<svg xmlns="http://www.w3.org/2000/svg" xmlns:svg="http://www.w3.org/2000/svg" version="1.1" viewBox="0 0 4180.16 6986.63">
 <g class="layer">
  <title>Layer 1</title>
  <path d="m0,0l0,4884.41c0,1132.21 935.77,2102.22 2090.09,2102.22c1154.32,0 2090.07,-970.01 2090.07,-2102.22l0,-4884.41l-4180.16,0zm0,0" fill="rgb(87.843137%,87.843137%,87.843137%)" fill-rule="nonzero" id="svg_1"/>
  <path d="m2064.1,277.04l-953.9,0l0,927.37l953.9,0l0,-927.37zm0,0" fill="rgb(15.686275%,7.058824%,51.764706%)" fill-rule="nonzero" id="svg_2"/>
  <path d="m4050.21,277.04l-928.25,0l0,927.37l928.25,0l0,-927.37zm0,0" fill="rgb(15.686275%,7.058824%,51.764706%)" fill-rule="nonzero" id="svg_3"/>
  <path d="m3069.97,277.04l-953.9,0l0,927.37l953.9,0l0,-927.37zm0,0" fill="rgb(94.117647%,6.666667%,10.588235%)" fill-rule="nonzero" id="svg_4"/>
  <path d="m129.96,1204.41l928.27,0l0,-927.37l-928.27,0l0,927.37zm0,0" fill="rgb(94.117647%,6.666667%,10.588235%)" fill-rule="nonzero" id="svg_5"/>
  <path d="m3475.42,6268.91c180.05,-182.82 321.64,-394.45 420.82,-628.96c102.19,-241.71 153.96,-495.9 153.96,-755.52l0,-2782.26l-928.23,0l0,4452.59c127.23,-80.79 245.5,-176.26 353.45,-285.85" fill="rgb(15.686275%,7.058824%,51.764706%)" fill-rule="nonzero" id="svg_6"/>
  <path d="m2116.07,3063.51l953.9,0l0,-961.35l-953.9,0l0,961.35zm0,0" fill="rgb(94.117647%,6.666667%,10.588235%)" fill-rule="nonzero" id="svg_7"/>
  <path d="m1110.2,3063.51l953.9,0l0,-961.35l-953.9,0l0,961.35zm0,0" fill="rgb(15.686275%,7.058824%,51.764706%)" fill-rule="nonzero" id="svg_8"/>
  <path d="m1110.2,5075.24l1959.75,0l0,-1959.76l-1959.75,0l0,1959.76zm0,0" fill="rgb(94.117647%,6.666667%,10.588235%)" fill-rule="nonzero" id="svg_9"/>
  <path d="m2116.06,5127.23l0,1729.13c254.26,-3.4 501.7,-56.47 735.81,-158.17c75.18,-32.66 147.91,-69.9 218.09,-111.44l0,-1459.52l-953.9,0zm0,0" fill="rgb(94.117647%,6.666667%,10.588235%)" fill-rule="nonzero" id="svg_10"/>
  <path d="m129.96,2102.16l0,2782.25c0,259.65 51.79,513.84 153.98,755.53c99.16,234.51 240.73,446.14 420.8,628.97c107.95,109.59 226.24,205.09 353.49,285.88l0,-4452.63l-928.27,0zm0,0" fill="rgb(94.117647%,6.666667%,10.588235%)" fill-rule="nonzero" id="svg_11"/>
  <path d="m1110.21,5127.23l0,1459.5c70.17,41.56 142.91,78.78 218.11,111.46c234.09,101.7 481.52,154.77 735.77,158.17l0,-1729.13l-953.88,0zm0,0" fill="rgb(15.686275%,7.058824%,51.764706%)" fill-rule="nonzero" id="svg_12"/>
  <path d="m2116.07,277.04l-51.97,0l0,927.37l51.97,0l0,-927.37zm0,0" fill="rgb(100%,100%,100%)" fill-rule="nonzero" id="svg_13"/>
  <path d="m1110.2,277.04l-51.99,0l0,927.37l51.99,0l0,-927.37zm0,0" fill="rgb(100%,100%,100%)" fill-rule="nonzero" id="svg_14"/>
  <path d="m3121.96,277.04l-52.01,0l0,927.37l52.01,0l0,-927.37zm0,0" fill="rgb(100%,100%,100%)" fill-rule="nonzero" id="svg_15"/>
  <path d="m3069.97,5075.24l-1959.75,0l0,-1959.76l1959.75,0l0,1959.76zm0,-2011.73l-953.9,0l0,-961.35l-51.97,0l0,961.35l-953.9,0l0,-961.35l-51.97,0l0,4452.63c17.18,10.91 34.48,21.59 51.97,31.94l0,-1459.5l953.88,0l0,1729.13c8.66,0.09 17.34,0.32 26.01,0.32c8.68,0 17.32,-0.23 25.98,-0.32l0,-1729.13l953.9,0l0,1459.52c17.49,-10.37 34.79,-21.05 51.99,-31.98l0,-4452.61l-51.99,0l0,961.35zm0,0" fill="rgb(100%,100%,100%)" fill-rule="nonzero" id="svg_16"/>
  <path d="m136.98,1471.38l123.61,0l143.95,270.37l143.96,-270.37l123.61,0l-197.85,363.83l-139.41,0l-197.87,-363.83zm0,0" fill="rgb(94.117647%,6.666667%,10.588235%)" fill-rule="nonzero" id="svg_17"/>
  <path d="m718.99,1471.38l112.92,0l0,363.84l-112.92,0l0,-363.84zm0,0" fill="rgb(94.117647%,6.666667%,10.588235%)" fill-rule="nonzero" id="svg_18"/>
  <path d="m1018.84,1741.75l197.01,0c47.51,0 66.01,-13.59 66.01,-65.34l0,-49.24c0,-51.76 -18.5,-65.35 -66.01,-65.35l-197.01,0l0,179.93zm-111.02,-270.38l335.04,0c111,0 149.99,36.69 149.99,126.66l0,110.52c0,89.97 -38.99,126.66 -149.99,126.66l-335.04,0l0,-363.84zm0,0" fill="rgb(94.117647%,6.666667%,10.588235%)" fill-rule="nonzero" id="svg_19"/>
  <path d="m1465.96,1471.38l395.92,0l0,84.43l-284.95,0l0,58.28l269.93,0l0,75.4l-269.93,0l0,58.28l291.44,0l0,87.44l-402.41,0l0,-363.83zm0,0" fill="rgb(94.117647%,6.666667%,10.588235%)" fill-rule="nonzero" id="svg_20"/>
  <path d="m2051.77,1672.89c0,52.79 10.99,72.86 63.43,72.86l141.8,0c52.44,0 63.42,-20.07 63.42,-72.86l0,-39.21c0,-45.2 -10.98,-72.85 -69.42,-72.85l-129.81,0c-58.43,0 -69.42,27.65 -69.42,72.85l0,39.21zm-113.86,-73.87c0,-106.52 59.42,-131.67 159.28,-131.67l177.81,0c99.86,0 159.28,25.15 159.28,131.67l0,108.54c0,106.54 -59.42,131.67 -159.28,131.67l-177.81,0c-99.86,0 -159.28,-25.13 -159.28,-131.67l0,-108.54zm0,0" fill="rgb(94.117647%,6.666667%,10.588235%)" fill-rule="nonzero" id="svg_21"/>
  <path d="m2496.63,1471.38l430.35,0l0,90.45l-158.72,0l0,273.38l-112.94,0l0,-273.38l-158.69,0l0,-90.45zm0,0" fill="rgb(15.686275%,7.058824%,51.764706%)" fill-rule="nonzero" id="svg_22"/>
  <path d="m3092.61,1672.89c0,52.79 11.03,72.86 63.59,72.86l142.19,0c52.58,0 63.61,-20.07 63.61,-72.86l0,-39.21c0,-45.2 -11.03,-72.85 -69.61,-72.85l-130.15,0c-58.6,0 -69.63,27.65 -69.63,72.85l0,39.21zm-114.18,-73.87c0,-106.52 59.59,-131.67 159.74,-131.67l178.26,0c100.19,0 159.75,25.15 159.75,131.67l0,108.54c0,106.54 -59.56,131.67 -159.75,131.67l-178.26,0c-100.15,0 -159.74,-25.13 -159.74,-131.67l0,-108.54zm0,0" fill="rgb(15.686275%,7.058824%,51.764706%)" fill-rule="nonzero" id="svg_23"/>
  <path d="m3549.61,1471.38l172.37,0l208.98,264.33l1,0l0,-264.33l111.25,0l0,363.83l-172.39,0l-208.98,-264.33l-1,0l0,264.33l-111.23,0l0,-363.83zm0,0" fill="rgb(15.686275%,7.058824%,51.764706%)" fill-rule="nonzero" id="svg_24"/>
  <path d="m1438.71,2467.08l296.9,0l0,68.33l-209.71,0l0,53.02l199.89,0l0,65.98l-199.89,0l0,96.98l-87.19,0l0,-284.31zm0,0" fill="rgb(100%,100%,100%)" fill-rule="nonzero" id="svg_25"/>
  <path d="m2407.64,2566.83c0,-83.24 46.73,-102.89 125.27,-102.89l102.51,0c124.1,0 140.18,26.71 139.39,107.2l-87.18,0l0,-7.85c0,-20.41 -14.9,-26.3 -40.82,-26.3l-95.04,0c-45.95,0 -54.61,21.59 -54.61,56.94l0,30.63c0,41.24 8.66,56.94 49.88,56.94l93.07,0c39.28,0 51.05,-3.95 51.05,-39.27l87.2,0l0,26.7c0,47.92 -17.31,85.62 -104.84,85.62l-140.61,0c-78.54,0 -125.27,-19.63 -125.27,-102.9l0,-84.82zm0,0" fill="rgb(100%,100%,100%)" fill-rule="nonzero" id="svg_26"/>
  <path d="m1428.59,5840.44l58,-0.03l0,-258.51l-51.09,0c-3.76,14.93 -11.54,26.28 -23.26,33.39c-12.26,7.44 -29.63,10.96 -52.16,10.96l-3.17,0l0,38.59l71.68,0l0,175.6zm0,0" fill="rgb(100%,100%,100%)" fill-rule="nonzero" id="svg_27"/>
  <path d="m1735.73,5696.11c-9.94,7.78 -23.04,11.52 -39,11.52c-17.26,0 -31.08,-3.63 -41.23,-11.29c-10.2,-7.64 -15.43,-18.67 -15.34,-32.11c-0.09,-13.1 5.37,-23.85 15.87,-31.12c10.45,-7.34 24.68,-10.8 42.54,-10.82c15.95,0 28.75,3.63 38.1,11.18c9.38,7.55 14.14,18.39 14.08,31.51c0.06,12.75 -5.1,23.45 -15.02,31.13m-39.38,-121.01c-37.72,0 -66.71,8.19 -87.21,24.24c-20.5,16.04 -30.64,37.97 -30.7,66.73c0.06,26.96 9.22,47.57 27.65,62.84c18.45,15.24 44.03,22.96 77.07,23c13.19,-0.04 25.24,-1.73 36.16,-5.12c10.95,-3.37 20.7,-8.38 29.36,-14.97l4.65,-3.59l0,10.09c0,19.63 -4.95,35.14 -15.28,45.98c-10.3,10.81 -25.17,16.1 -43.88,16.08c-13.16,0 -23.53,-2.28 -31.02,-7.25c-6.86,-4.52 -11.22,-11.43 -12.88,-20.06l-61.98,0c1.41,22.04 10.73,39.52 28.27,53.14c18.33,14.19 42.52,21.4 73.03,21.4c42.15,-0.02 73.62,-11.81 95.21,-35.11c21.61,-23.3 32.59,-57.64 32.59,-103.51c0,-44.35 -10.41,-77.48 -30.76,-99.99c-20.4,-22.51 -50.2,-33.88 -90.28,-33.9" fill="rgb(100%,100%,100%)" fill-rule="nonzero" id="svg_28"/>
  <path d="m2517.81,5738l-0.1,2.82l-91.61,0l94.87,-114.52l-3.16,111.7zm100.16,2.82l-42.51,0l-0.03,-158.94l-68.95,0l-131.64,147.25l0,55.76l142.97,0l0,55.57l57.65,0l0,-55.57l42.51,0l0,-44.07zm0,0" fill="rgb(100%,100%,100%)" fill-rule="nonzero" id="svg_29"/>
  <path d="m2753.17,5840.46l58.03,-0.02l0,-258.56l-51.08,0c-3.78,14.95 -11.56,26.3 -23.27,33.41c-12.29,7.44 -29.64,10.94 -52.16,10.96l-3.2,-0.02l0,38.61l71.68,0l0,175.62zm0,0" fill="rgb(100%,100%,100%)" fill-rule="nonzero" id="svg_30"/>
  <path d="m2805.4,3821.64l-328.51,0l0,187.55c0,48.61 -32.2,93.01 -98.2,93.01c-65.96,0 -98.18,-44.4 -98.18,-93.01l0.03,-436.25l-190.45,-192.92l-190.46,192.92l0,436.25c0,48.61 -32.22,93.01 -98.2,93.01c-65.97,0 -98.16,-44.4 -98.16,-93.01l0,-187.55l-328.53,0l0,989.06l475.22,0l0,-247.04c0,-146.77 78.72,-280.68 240.13,-280.68c161.37,0 240.13,133.91 240.13,280.68l0,247.04l475.18,0l0,-989.06zm0,0" fill="#ffffff" fill-rule="nonzero" id="svg_31" transform="matrix(1 0 0 1 0 0)"/>
 </g>
</svg>