<?xml version="1.0" encoding="UTF-8"?>
<svg width="472" height="211.77" version="1.1" viewBox="0 0 500.33954 224.47837" xml:space="preserve" xmlns="http://www.w3.org/2000/svg" xmlns:cc="http://creativecommons.org/ns#" xmlns:dc="http://purl.org/dc/elements/1.1/" xmlns:rdf="http://www.w3.org/1999/02/22-rdf-syntax-ns#"><metadata><rdf:RDF><cc:Work rdf:about=""><dc:format>image/svg+xml</dc:format><dc:type rdf:resource="http://purl.org/dc/dcmitype/StillImage"/><dc:title/></cc:Work></rdf:RDF></metadata><defs><clipPath id="n"><path d="m0 612h1008v-612h-1008z"/></clipPath><linearGradient id="q" x2="1" gradientTransform="matrix(-.79572 -12.504 -12.504 .79572 74.887 553.85)" gradientUnits="userSpaceOnUse"><stop stop-color="#e2b962" offset="0"/><stop stop-color="#a98331" offset=".99832"/><stop stop-color="#a98331" offset="1"/></linearGradient><clipPath id="o"><path d="m0 612h1008v-612h-1008z"/></clipPath><linearGradient id="r" x2="1" gradientTransform="matrix(-1.9884,-31.246,-31.246,1.9884,81.644,567.92)" gradientUnits="userSpaceOnUse"><stop stop-color="#e2b962" offset="0"/><stop stop-color="#e2b962" offset=".0061357"/><stop stop-color="#a98331" offset=".99554"/><stop stop-color="#a98331" offset="1"/></linearGradient><linearGradient id="s" x2="1" gradientTransform="matrix(-18.416,0,0,18.416,90.699,529.02)" gradientUnits="userSpaceOnUse"><stop stop-color="#e2b962" offset="0"/><stop stop-color="#a98331" offset="1"/></linearGradient><linearGradient id="t" x2="1" gradientTransform="matrix(-18.416,0,0,18.416,90.699,541.34)" gradientUnits="userSpaceOnUse"><stop stop-color="#e2b962" offset="0"/><stop stop-color="#a98331" offset="1"/></linearGradient><linearGradient id="u" x2="1" gradientTransform="matrix(-18.416,0,0,18.416,90.699,539.07)" gradientUnits="userSpaceOnUse"><stop stop-color="#e2b962" offset="0"/><stop stop-color="#a98331" offset="1"/></linearGradient><linearGradient id="v" x2="1" gradientTransform="matrix(-18.416,0,0,18.416,90.699,536.34)" gradientUnits="userSpaceOnUse"><stop stop-color="#e2b962" offset="0"/><stop stop-color="#a98331" offset="1"/></linearGradient><linearGradient id="w" x2="1" gradientTransform="matrix(-18.416,0,0,18.416,90.699,533.98)" gradientUnits="userSpaceOnUse"><stop stop-color="#e2b962" offset="0"/><stop stop-color="#a98331" offset="1"/></linearGradient><linearGradient id="x" x2="1" gradientTransform="matrix(-18.416,0,0,18.416,90.699,532.79)" gradientUnits="userSpaceOnUse"><stop stop-color="#e2b962" offset="0"/><stop stop-color="#a98331" offset="1"/></linearGradient><linearGradient id="y" x2="1" gradientTransform="matrix(-18.416,0,0,18.416,90.699,535.17)" gradientUnits="userSpaceOnUse"><stop stop-color="#e2b962" offset="0"/><stop stop-color="#a98331" offset="1"/></linearGradient><linearGradient id="z" x2="1" gradientTransform="matrix(-18.416,0,0,18.416,90.699,537.5)" gradientUnits="userSpaceOnUse"><stop stop-color="#e2b962" offset="0"/><stop stop-color="#a98331" offset="1"/></linearGradient><clipPath id="p"><path d="m0 612h1008v-612h-1008z"/></clipPath></defs><g transform="matrix(4.4085 0 0 -4.4085 1521.5 2473.1)"><g transform="translate(-363,-18)"><g clip-path="url(#n)"><g transform="translate(27.571,558.76)"><path d="m0 0c-0.547 0-1.042 0.095-1.486 0.285-0.444 0.189-0.823 0.446-1.139 0.772-0.314 0.324-0.559 0.707-0.732 1.148-0.174 0.44-0.261 0.911-0.261 1.413 0 0.527 0.093 1.011 0.28 1.452 0.186 0.44 0.442 0.822 0.767 1.143 0.324 0.322 0.707 0.573 1.148 0.753s0.915 0.27 1.423 0.27c0.328 0 0.645-0.042 0.95-0.126 0.306-0.083 0.592-0.2 0.859-0.352 0.267-0.151 0.508-0.334 0.724-0.55 0.215-0.215 0.4-0.455 0.554-0.718l-1.177-0.753c-0.199 0.367-0.455 0.655-0.766 0.864-0.313 0.209-0.694 0.313-1.144 0.313-0.328 0-0.632-0.06-0.912-0.178-0.279-0.119-0.521-0.282-0.723-0.487-0.203-0.207-0.362-0.449-0.478-0.729s-0.174-0.581-0.174-0.902c0-0.315 0.057-0.611 0.169-0.888 0.113-0.276 0.27-0.518 0.473-0.723 0.203-0.206 0.442-0.368 0.719-0.487 0.276-0.12 0.575-0.179 0.897-0.179 0.483 0 0.891 0.124 1.225 0.371 0.335 0.248 0.592 0.561 0.772 0.941l1.225-0.646c-0.154-0.302-0.342-0.576-0.564-0.82-0.222-0.245-0.469-0.456-0.743-0.632-0.273-0.177-0.569-0.314-0.887-0.41-0.319-0.097-0.652-0.145-0.999-0.145" fill="#17243a"/></g><g transform="translate(33.591,560.01)"><path d="m0 0c0.167 0 0.325 0.034 0.473 0.101s0.277 0.158 0.386 0.27c0.109 0.113 0.196 0.245 0.26 0.396 0.065 0.151 0.097 0.314 0.097 0.487 0 0.174-0.032 0.336-0.097 0.487-0.064 0.151-0.151 0.283-0.26 0.396s-0.238 0.202-0.386 0.27-0.306 0.101-0.473 0.101c-0.173 0-0.333-0.033-0.478-0.101-0.144-0.068-0.271-0.157-0.38-0.27-0.11-0.113-0.195-0.245-0.256-0.396s-0.092-0.313-0.092-0.487c0-0.173 0.031-0.336 0.092-0.487s0.146-0.283 0.256-0.396c0.109-0.112 0.236-0.203 0.38-0.27 0.145-0.067 0.305-0.101 0.478-0.101m0-1.254c-0.347 0-0.672 0.066-0.975 0.197-0.302 0.132-0.567 0.31-0.796 0.536-0.228 0.225-0.406 0.49-0.535 0.796-0.129 0.305-0.193 0.632-0.193 0.979 0 0.348 0.064 0.674 0.193 0.979 0.129 0.306 0.307 0.571 0.535 0.796 0.229 0.225 0.494 0.404 0.796 0.536 0.303 0.131 0.628 0.198 0.975 0.198 0.348 0 0.672-0.067 0.975-0.198 0.302-0.132 0.567-0.311 0.796-0.536 0.228-0.225 0.406-0.49 0.535-0.796 0.129-0.305 0.193-0.631 0.193-0.979 0-0.347-0.064-0.674-0.193-0.979-0.129-0.306-0.307-0.571-0.535-0.796-0.229-0.226-0.494-0.404-0.796-0.536-0.303-0.131-0.627-0.197-0.975-0.197" fill="#17243a"/></g><g transform="translate(36.621,563.68)"><path d="m0 0h1.312v-0.54c0.154 0.199 0.346 0.355 0.574 0.468 0.228 0.112 0.481 0.169 0.758 0.169 0.572 0 1.019-0.174 1.34-0.521 0.322-0.348 0.483-0.833 0.483-1.457v-2.943h-1.341v2.769c0 0.328-0.074 0.58-0.222 0.757s-0.37 0.266-0.666 0.266c-0.251 0-0.466-0.092-0.646-0.275-0.18-0.184-0.27-0.478-0.27-0.883v-2.634h-1.322z" fill="#17243a"/></g><g transform="translate(44.117,558.76)"><path d="m0 0c-0.347 0-0.672 0.066-0.975 0.198-0.302 0.132-0.567 0.31-0.796 0.535-0.228 0.225-0.406 0.491-0.535 0.796s-0.193 0.632-0.193 0.979c0 0.348 0.064 0.674 0.193 0.98 0.129 0.305 0.307 0.571 0.535 0.796 0.229 0.225 0.494 0.403 0.796 0.535 0.303 0.132 0.628 0.198 0.975 0.198 0.276 0 0.536-0.037 0.777-0.111s0.459-0.178 0.656-0.314c0.196-0.134 0.37-0.296 0.521-0.482 0.151-0.187 0.275-0.392 0.371-0.617l-1.177-0.502c-0.09 0.225-0.238 0.41-0.443 0.554-0.206 0.145-0.438 0.218-0.695 0.218-0.174 0-0.337-0.033-0.488-0.097s-0.281-0.154-0.39-0.27c-0.11-0.116-0.196-0.25-0.261-0.4-0.064-0.151-0.096-0.314-0.096-0.488 0-0.173 0.032-0.336 0.096-0.487 0.065-0.151 0.151-0.284 0.261-0.4 0.109-0.116 0.239-0.206 0.39-0.27 0.151-0.065 0.314-0.097 0.488-0.097 0.257 0 0.489 0.073 0.695 0.217 0.205 0.145 0.353 0.33 0.443 0.555l1.177-0.502c-0.096-0.225-0.22-0.431-0.371-0.617-0.151-0.187-0.325-0.347-0.521-0.483-0.197-0.134-0.415-0.239-0.656-0.313s-0.501-0.111-0.777-0.111" fill="#17243a"/></g><g transform="translate(49.317,559.97)"><path d="m0 0c0.18 0 0.346 0.034 0.497 0.101 0.15 0.067 0.281 0.161 0.39 0.28 0.11 0.119 0.195 0.257 0.256 0.415 0.061 0.157 0.092 0.326 0.092 0.506s-0.031 0.349-0.092 0.507c-0.061 0.157-0.146 0.294-0.256 0.41-0.109 0.115-0.24 0.207-0.39 0.275-0.151 0.068-0.317 0.101-0.497 0.101-0.187 0-0.359-0.032-0.517-0.096-0.157-0.065-0.294-0.155-0.409-0.27-0.116-0.116-0.206-0.253-0.27-0.411-0.065-0.157-0.097-0.329-0.097-0.516 0-0.186 0.032-0.358 0.097-0.516 0.064-0.158 0.154-0.294 0.27-0.41 0.115-0.116 0.252-0.208 0.409-0.275 0.158-0.067 0.33-0.101 0.517-0.101m-0.261-1.216c-0.257 0-0.522 0.052-0.796 0.154-0.273 0.104-0.524 0.258-0.752 0.463-0.229 0.206-0.415 0.467-0.56 0.782s-0.217 0.685-0.217 1.109c0 0.425 0.071 0.795 0.212 1.11 0.142 0.315 0.325 0.577 0.55 0.786s0.478 0.364 0.758 0.463c0.279 0.1 0.554 0.15 0.825 0.15 0.315 0 0.593-0.053 0.834-0.159s0.442-0.243 0.603-0.41v0.473h1.322v-4.825h-1.322v0.541c-0.161-0.187-0.365-0.339-0.613-0.459-0.247-0.118-0.529-0.178-0.844-0.178" fill="#17243a"/></g><g transform="translate(54.865,558.76)"><path d="m0 0c-0.347 0-0.672 0.066-0.975 0.198-0.302 0.132-0.567 0.31-0.796 0.535-0.228 0.225-0.406 0.491-0.535 0.796s-0.193 0.632-0.193 0.979c0 0.348 0.064 0.674 0.193 0.98 0.129 0.305 0.307 0.571 0.535 0.796 0.229 0.225 0.494 0.403 0.796 0.535 0.303 0.132 0.628 0.198 0.975 0.198 0.276 0 0.536-0.037 0.777-0.111s0.459-0.178 0.656-0.314c0.196-0.134 0.37-0.296 0.521-0.482 0.151-0.187 0.275-0.392 0.371-0.617l-1.177-0.502c-0.09 0.225-0.238 0.41-0.444 0.554-0.205 0.145-0.437 0.218-0.694 0.218-0.174 0-0.337-0.033-0.488-0.097s-0.281-0.154-0.39-0.27c-0.11-0.116-0.196-0.25-0.261-0.4-0.064-0.151-0.096-0.314-0.096-0.488 0-0.173 0.032-0.336 0.096-0.487 0.065-0.151 0.151-0.284 0.261-0.4 0.109-0.116 0.239-0.206 0.39-0.27 0.151-0.065 0.314-0.097 0.488-0.097 0.257 0 0.489 0.073 0.694 0.217 0.206 0.145 0.354 0.33 0.444 0.555l1.177-0.502c-0.096-0.225-0.22-0.431-0.371-0.617-0.151-0.187-0.325-0.347-0.521-0.483-0.197-0.134-0.415-0.239-0.656-0.313s-0.501-0.111-0.777-0.111" fill="#17243a"/></g><g transform="translate(60.065,559.97)"><path d="m0 0c0.18 0 0.346 0.034 0.497 0.101s0.281 0.161 0.391 0.28c0.109 0.119 0.194 0.257 0.255 0.415 0.062 0.157 0.092 0.326 0.092 0.506s-0.03 0.349-0.092 0.507c-0.061 0.157-0.146 0.294-0.255 0.41-0.11 0.115-0.24 0.207-0.391 0.275s-0.317 0.101-0.497 0.101c-0.187 0-0.358-0.032-0.516-0.096-0.158-0.065-0.295-0.155-0.41-0.27-0.116-0.116-0.206-0.253-0.27-0.411-0.065-0.157-0.097-0.329-0.097-0.516 0-0.186 0.032-0.358 0.097-0.516 0.064-0.158 0.154-0.294 0.27-0.41 0.115-0.116 0.252-0.208 0.41-0.275s0.329-0.101 0.516-0.101m-0.261-1.216c-0.257 0-0.522 0.052-0.796 0.154-0.273 0.104-0.524 0.258-0.752 0.463-0.228 0.206-0.415 0.467-0.56 0.782-0.144 0.315-0.216 0.685-0.216 1.109 0 0.425 0.07 0.795 0.211 1.11 0.142 0.315 0.325 0.577 0.551 0.786 0.224 0.209 0.477 0.364 0.757 0.463 0.28 0.1 0.555 0.15 0.825 0.15 0.315 0 0.593-0.053 0.834-0.159s0.443-0.243 0.603-0.41v0.473h1.322v-4.825h-1.322v0.541c-0.16-0.187-0.364-0.339-0.612-0.459-0.248-0.118-0.529-0.178-0.845-0.178" fill="#17243a"/></g><g transform="translate(63.162,563.68)"><path d="m0 0h0.82v0.125c0 0.393 0.035 0.722 0.106 0.989s0.188 0.483 0.352 0.647 0.382 0.281 0.652 0.352 0.608 0.106 1.012 0.106h0.107v-1.235c-0.206 0-0.368-9e-3 -0.487-0.029-0.12-0.019-0.209-0.059-0.27-0.121-0.062-0.061-0.102-0.149-0.121-0.265-0.02-0.115-0.029-0.267-0.029-0.453v-0.116h0.907v-1.187h-0.907v-3.637h-1.322v3.637h-0.82z" fill="#17243a"/></g><g transform="translate(126.98,541.94)"><path d="m0 0v-0.22h-0.479v-1.259h-0.233v1.259h-0.477v0.22z" fill="#a98331"/></g><g transform="translate(128.61,541.94)"><path d="m0 0v-1.479h-0.23v0.564c0 0.269 0.012 0.522 0.01 0.522h-2e-3c-2e-3 0-0.093-0.156-0.131-0.224l-0.287-0.496h-0.123l-0.287 0.496c-0.038 0.068-0.127 0.224-0.129 0.224h-2e-3c-2e-3 0 9e-3 -0.253 9e-3 -0.522v-0.564h-0.231v1.479h0.22l0.336-0.566c0.122-0.203 0.143-0.253 0.145-0.253h3e-3c2e-3 0 0.023 0.05 0.143 0.253l0.336 0.566z" fill="#a98331"/></g></g><path d="m90.2 548.89c-0.266-2.281 0.329-4.356 1.675-5.842 1.319-1.429 3.264-2.185 5.625-2.185 2.073 0 4.019 0.512 5.947 1.561l0.039 0.022 0.444 3.819-0.152-0.1c-1.936-1.273-3.82-1.918-5.597-1.918-1.316 0-2.381 0.415-3.082 1.202-0.733 0.824-1.034 2.007-0.869 3.421 0.34 2.921 2.336 4.665 5.338 4.665 1.652 0 3.254-0.547 4.761-1.624l0.117-0.084 0.443 3.796-0.052 0.027c-1.611 0.853-3.292 1.268-5.136 1.268-5.124 0-8.942-3.227-9.501-8.028m-72.104 0c-0.265-2.281 0.33-4.356 1.675-5.841 1.296-1.43 3.241-2.186 5.625-2.186 2.463 0 4.55 0.663 6.564 2.083l0.031 0.022 0.764 6.559h-6.051l-0.355-3.047h2.062l-0.208-1.787c-0.74-0.3-1.45-0.446-2.17-0.446-1.301 0-2.354 0.41-3.045 1.187-0.73 0.819-1.028 2.007-0.862 3.436 0.341 2.921 2.328 4.665 5.316 4.665 1.565 0 3.298-0.518 5.153-1.54l0.111-0.061 0.414 3.554-0.052 0.027c-1.801 0.944-3.583 1.403-5.45 1.403-5.136 0-8.963-3.227-9.522-8.028m18.959 4.076c-1.521-1.302-2.408-2.951-2.634-4.903-0.226-1.936 0.293-3.63 1.501-4.9 1.206-1.266 2.802-1.883 4.879-1.883 2.058 0 3.85 0.632 5.325 1.877 1.497 1.264 2.407 2.954 2.632 4.886 0.224 1.928-0.293 3.628-1.498 4.917-1.178 1.237-2.827 1.864-4.901 1.864-2.088 0-3.823-0.607-5.304-1.858m1.657-7.789c-0.628 0.704-0.899 1.722-0.766 2.866 0.263 2.26 1.986 3.902 4.097 3.902 0.987 0 1.817-0.346 2.399-0.999 0.632-0.71 0.906-1.733 0.772-2.883-0.266-2.287-1.95-3.884-4.096-3.884-0.992 0-1.825 0.345-2.406 0.998m82.747 9.438-1.527-13.107h3.452l0.589 5.058h1.183c3.669 0 5.69 1.376 6.006 4.09 0.135 1.164-0.08 2.046-0.657 2.695-0.758 0.851-2.12 1.264-4.165 1.264zm3.151-2.575h1.488c0.607 0 1.043-0.145 1.297-0.43 0.205-0.231 0.286-0.551 0.239-0.953-0.11-0.956-0.714-1.402-1.899-1.402h-1.449zm-8.655 2.575-0.856-7.348c-0.236-2.033-1.331-3.107-3.165-3.107-0.862 0-1.511 0.237-1.929 0.706-0.464 0.522-0.638 1.323-0.515 2.38l0.858 7.369h-3.451l-0.871-7.481c-0.203-1.745 0.163-3.2 1.059-4.207 0.959-1.077 2.521-1.647 4.515-1.647 3.904 0 6.489 2.182 6.914 5.834l0.874 7.501zm-53.649 0-1.526-13.107h4.978c1.947 0 3.448 0.071 5.02 0.996 2.135 1.255 3.461 3.228 3.732 5.557 0.248 2.126-0.435 3.92-1.972 5.191-1.54 1.261-3.3 1.363-5.275 1.363zm3.108-2.784h2.346c1.042 0 1.903-0.348 2.489-1.005 0.602-0.676 0.863-1.651 0.736-2.745-0.26-2.231-1.955-3.789-4.123-3.789h-2.326zm-13.918 2.784-1.526-13.107h9.039l0.311 2.671h-5.606l1.215 10.436z" fill="url(#q)"/><g clip-path="url(#o)"><g transform="translate(124.76,551.87)"><path d="m0 0h1.341c0.549 0 0.954-0.129 1.173-0.375 0.172-0.193 0.239-0.471 0.198-0.823-0.101-0.868-0.636-1.256-1.734-1.256h-1.264zm1.583 2.907h-5.029l-0.026-0.221-1.507-12.938-0.032-0.28h3.785l0.026 0.222 0.563 4.836h1.035c3.768 0 5.843 1.425 6.171 4.237 0.139 1.197-0.096 2.147-0.698 2.824-0.791 0.889-2.194 1.32-4.288 1.32m-2.15-5.611h1.545c1.22 0 1.866 0.474 1.983 1.477 0.108 0.929-0.438 1.477-1.62 1.477h-1.564l-0.344-2.954m2.15 5.36c3.47 0 5.045-1.212 4.737-3.864-0.314-2.689-2.279-4.016-5.922-4.016h-1.259l-0.589-5.057h-3.279l1.506 12.937h4.806m-6.767 0.251h-3.766l-0.026-0.221-0.847-7.274c-0.225-1.937-1.263-2.961-3.001-2.961-0.813 0-1.421 0.219-1.805 0.651-0.432 0.485-0.591 1.243-0.474 2.252l0.847 7.273 0.032 0.28h-3.784l-0.026-0.221-0.862-7.407c-0.209-1.794 0.171-3.293 1.1-4.336 0.991-1.113 2.595-1.702 4.638-1.702 3.996 0 6.643 2.235 7.079 5.98l0.862 7.406zm-0.282-0.251-0.862-7.406c-0.426-3.656-2.978-5.758-6.83-5.758-3.853 0-5.915 2.102-5.489 5.758l0.862 7.406h3.28l-0.847-7.273c-0.243-2.084 0.659-3.183 2.528-3.183s3.008 1.099 3.25 3.183l0.847 7.273h3.261m-19.592 2.553c-5.211 0-9.095-3.285-9.665-8.174-0.271-2.329 0.339-4.449 1.717-5.972 1.353-1.465 3.339-2.239 5.748-2.239 2.103 0 4.074 0.517 6.027 1.581l0.113 0.062 0.015 0.129 0.419 3.595 0.062 0.534-0.449-0.296c-1.908-1.254-3.761-1.89-5.506-1.89-1.267 0-2.289 0.396-2.957 1.146-0.701 0.788-0.988 1.926-0.829 3.292 0.329 2.829 2.263 4.518 5.173 4.518 1.617 0 3.187-0.536 4.665-1.593l0.346-0.247 0.049 0.422 0.419 3.594 0.02 0.171-0.152 0.08c-1.636 0.867-3.342 1.287-5.215 1.287m0-0.251c1.866 0 3.527-0.426 5.098-1.257l-0.419-3.595c-1.539 1.101-3.144 1.64-4.811 1.64-3.027 0-5.08-1.797-5.422-4.741-0.33-2.83 1.205-4.717 4.035-4.717 1.799 0 3.696 0.651 5.644 1.932l-0.419-3.595c-1.897-1.034-3.822-1.55-5.906-1.55-2.391 0-4.277 0.764-5.562 2.157-1.322 1.46-1.92 3.482-1.653 5.773 0.544 4.674 4.216 7.953 9.415 7.953m-72.081 0.251c-2.6 0-4.894-0.787-6.635-2.275-1.719-1.47-2.774-3.51-3.052-5.899-0.271-2.329 0.338-4.45 1.716-5.972 1.329-1.465 3.317-2.239 5.748-2.239 2.499 0 4.615 0.672 6.66 2.113l0.092 0.064 0.012 0.112 0.748 6.425 0.033 0.28h-6.384l-0.026-0.222-0.335-2.875-0.033-0.28h2.063l-0.176-1.504c-0.687-0.268-1.348-0.398-2.016-0.398-1.253 0-2.264 0.391-2.922 1.13-0.698 0.784-0.981 1.928-0.821 3.308 0.329 2.829 2.255 4.518 5.151 4.518 1.537 0 3.243-0.511 5.073-1.519l0.327-0.18 0.043 0.371 0.393 3.37 0.02 0.171-0.153 0.08c-1.825 0.957-3.633 1.421-5.526 1.421m0-0.251c1.908 0 3.652-0.471 5.41-1.392l-0.393-3.37c-1.876 1.033-3.614 1.55-5.194 1.55-3.027 0-5.058-1.797-5.4-4.741-0.335-2.875 1.206-4.717 3.992-4.717 0.745 0 1.488 0.157 2.248 0.471l0.226 1.932h-2.063l0.335 2.876h5.879l-0.748-6.425c-2.007-1.416-4.102-2.067-6.515-2.067-2.391 0-4.298 0.764-5.562 2.157-1.322 1.46-1.92 3.482-1.653 5.773 0.547 4.696 4.217 7.953 9.438 7.953m37.943-5.166h2.198c0.994 0 1.811-0.329 2.365-0.951 0.57-0.64 0.817-1.569 0.695-2.615-0.25-2.144-1.877-3.643-3.958-3.643h-2.14zm1.701 3.115h-5.105l-0.025-0.221-1.507-12.938-0.033-0.28h5.165c1.974 0 3.496 0.073 5.104 1.02 2.181 1.281 3.535 3.298 3.813 5.68 0.254 2.184-0.448 4.03-2.03 5.337-1.583 1.297-3.374 1.402-5.382 1.402m-2.822-10.574h2.421c2.232 0 3.945 1.61 4.207 3.864 0.263 2.254-1.078 3.845-3.309 3.845h-2.421l-0.898-7.709m2.822 10.323c2.079 0 3.742-0.132 5.222-1.344 1.513-1.251 2.186-3.012 1.941-5.115-0.27-2.311-1.563-4.243-3.691-5.493-1.577-0.928-3.109-0.985-4.977-0.985h-4.883l1.507 12.937h4.881m-12.148 0.251h-3.766l-0.026-0.221-1.506-12.938-0.033-0.28h9.372l0.026 0.222 0.292 2.5 0.033 0.28h-5.607l1.182 10.157zm-0.282-0.251-1.215-10.437h5.607l-0.292-2.5h-8.867l1.506 12.937h3.261m-13.714-10.186c-0.945 0-1.735 0.326-2.284 0.943-0.595 0.669-0.852 1.64-0.724 2.736 0.253 2.177 1.907 3.756 3.932 3.756 0.939 0 1.726-0.326 2.275-0.943 0.6-0.674 0.86-1.652 0.732-2.755-0.256-2.2-1.873-3.737-3.931-3.737m1.24 10.646c-2.128 0-3.898-0.621-5.411-1.897-1.532-1.312-2.463-3.045-2.692-5.012-0.231-1.986 0.303-3.726 1.545-5.032 1.24-1.301 2.875-1.934 5-1.934 2.098 0 3.926 0.644 5.432 1.915 1.53 1.292 2.461 3.019 2.691 4.993 0.23 1.979-0.304 3.725-1.542 5.05-1.212 1.272-2.902 1.917-5.023 1.917m-1.24-10.897c2.155 0 3.909 1.629 4.18 3.959s-1.101 3.978-3.256 3.978-3.91-1.648-4.181-3.978c-0.272-2.33 1.102-3.959 3.257-3.959m1.24 10.646c2.059 0 3.667-0.606 4.839-1.838 1.187-1.269 1.701-2.917 1.476-4.849s-1.122-3.58-2.603-4.83c-1.459-1.231-3.21-1.856-5.27-1.856-2.059 0-3.646 0.625-4.818 1.856-1.189 1.25-1.701 2.917-1.478 4.83 0.225 1.932 1.123 3.58 2.605 4.849 1.46 1.232 3.189 1.838 5.249 1.838" fill="#a98331"/></g></g><path d="m82.149 579h-8.562c0.156-0.927 0.434-2.871 0.573-3.798 9e-3 -0.061 6e-3 -0.122 0.011-0.203-0.254 0.061-0.489 0.117-0.723 0.176-2.031 0.505-4.687 1.178-6.726 1.649-0.418 0.097-0.409-0.195-0.326-0.428 0.083-0.234 11.746-31.212 12.61-33.531 0.08-0.217 0.063-0.382-0.043-0.584-0.31-0.59-0.495-0.992-0.798-1.587-0.045-0.089-0.138-0.176-0.229-0.216-0.425-0.189-0.861-0.358-1.288-0.545-0.095-0.041-0.187-0.117-0.253-0.199-0.271-0.334-0.531-0.678-0.797-1.018-0.03-0.039-0.058-0.095-0.097-0.107-0.304-0.087-0.312-0.352-0.37-0.592-0.559-2.304-1.119-3.721-1.68-6.024-0.015-0.059-0.035-0.134-0.079-0.163-0.231-0.159-0.296-0.378-0.29-0.646h-1e-3v-3.104h18.234v3.104h-2e-3c7e-3 0.268-0.058 0.487-0.29 0.646-0.043 0.029-0.064 0.104-0.078 0.163-0.562 2.303-1.121 3.72-1.68 6.024-0.059 0.24-0.066 0.505-0.37 0.592-0.04 0.012-0.068 0.068-0.098 0.107-0.265 0.34-0.526 0.684-0.797 1.018-0.065 0.082-0.157 0.158-0.253 0.199-0.426 0.187-0.862 0.356-1.287 0.545-0.092 0.04-0.184 0.127-0.229 0.216-0.303 0.595-0.488 0.997-0.799 1.587-0.106 0.202-0.123 0.367-0.042 0.584 0.864 2.319 12.527 33.297 12.61 33.531 0.083 0.233 0.092 0.525-0.327 0.428-2.039-0.471-4.695-1.144-6.725-1.649-0.234-0.059-0.469-0.115-0.723-0.176 4e-3 0.081 2e-3 0.142 0.01 0.203 0.139 0.927 0.417 2.871 0.574 3.798zm3.36-32.112c0.142 0.864 0.158 1.091 0.302 1.954 0.288 1.722 0.578 3.443 0.867 5.165 0.544 3.243 1.086 6.487 1.63 9.731 0.417 2.49 0.835 4.979 1.248 7.469 0.022 0.129 0.072 0.19 0.198 0.225 1.006 0.278 2.191 0.612 3.195 0.891 0.061 0.017 0.166 0.044 0.194 2e-3 0.028-0.041 9e-3 -0.15-0.011-0.219-0.442-1.529-7.099-23.569-7.531-25.044-0.017-0.059-0.039-0.117-0.058-0.176-0.011 0-0.023 1e-3 -0.034 2e-3m-6.715 0.174c-0.431 1.475-7.089 23.515-7.53 25.044-0.02 0.069-0.04 0.178-0.012 0.219 0.029 0.042 0.133 0.015 0.194-2e-3 1.005-0.279 2.189-0.613 3.195-0.891 0.127-0.035 0.177-0.096 0.199-0.225 0.413-2.49 0.831-4.979 1.248-7.469 0.543-3.244 1.086-6.488 1.63-9.731 0.288-1.722 0.579-3.443 0.866-5.165 0.144-0.863 0.161-1.09 0.303-1.954-0.012-1e-3 -0.023-2e-3 -0.034-2e-3 -0.019 0.059-0.041 0.117-0.059 0.176" fill="url(#r)"/><path d="m73.554 528.63h17.286v0.776h-17.286z" fill="url(#s)"/><path d="m79.474 542.14-0.809-1.594h3.518v1.594z" fill="url(#t)"/><path d="m82.183 539.65h-5.388l-0.92-1.162h12.615l-0.92 1.162z" fill="url(#u)"/><path d="m76.347 537.35-0.315-2.026h2.041l0.257 2.026z" fill="url(#v)"/><path d="m75.985 535.02-0.324-2.079h2.112l0.262 2.079z" fill="url(#w)"/><path d="m82.183 532.94h-8.058c-0.027-0.099-0.053-0.201-0.08-0.302h16.281c-0.026 0.102-0.053 0.203-0.08 0.302z" fill="url(#x)"/><path d="m82.183 535.32h-7.366c-0.03-0.101-0.06-0.201-0.09-0.302h14.918c-0.03 0.101-0.06 0.202-0.09 0.302z" fill="url(#y)"/><path d="m82.183 537.65h-6.713c-0.025-0.103-0.052-0.204-0.077-0.303h13.587c-0.026 0.1-0.052 0.2-0.078 0.303z" fill="url(#z)"/><g clip-path="url(#p)"><g transform="translate(79.336,574.5)"><path d="m0 0-0.184 3.16h-4.151l5.026-35.181h0.577l-3.368 32.021z" fill="#e2b862"/></g><g transform="translate(88.315,577.7)"><path d="m0 0-4.338-35.22h0.348l5.069 35.22z" fill="#e2b862"/></g></g></g></g></svg>
