<?xml version="1.0" encoding="UTF-8" standalone="no"?>
<!-- Created with Inkscape (http://www.inkscape.org/) -->

<svg
   xmlns:dc="http://purl.org/dc/elements/1.1/"
   xmlns:cc="http://creativecommons.org/ns#"
   xmlns:rdf="http://www.w3.org/1999/02/22-rdf-syntax-ns#"
   xmlns:svg="http://www.w3.org/2000/svg"
   xmlns="http://www.w3.org/2000/svg"
   xmlns:xlink="http://www.w3.org/1999/xlink"
   version="1.0"
   width="534"
   height="738"
   id="svg2">
  <defs
     id="defs4">
    <linearGradient
       id="linearGradient3076">
      <stop
         id="stop3078"
         style="stop-color:#ff0a0a;stop-opacity:1"
         offset="0" />
      <stop
         id="stop3084"
         style="stop-color:#ff0a0a;stop-opacity:1"
         offset="0.33000001" />
      <stop
         id="stop3086"
         style="stop-color:#ffffff;stop-opacity:1"
         offset="0.33000001" />
      <stop
         id="stop3088"
         style="stop-color:#ffffff;stop-opacity:1"
         offset="0.66000003" />
      <stop
         id="stop3090"
         style="stop-color:#ffff00;stop-opacity:1"
         offset="0.66000003" />
      <stop
         id="stop3080"
         style="stop-color:#ffff00;stop-opacity:1"
         offset="1" />
    </linearGradient>
    <linearGradient
       x1="24.566006"
       y1="168.72964"
       x2="42.667271"
       y2="168.72964"
       id="linearGradient3136"
       xlink:href="#linearGradient3076"
       gradientUnits="userSpaceOnUse"
       gradientTransform="translate(0,1.131285)" />
  </defs>
  <metadata
     id="metadata7">
    <rdf:RDF>
      <cc:Work
         rdf:about="">
        <dc:format>image/svg+xml</dc:format>
        <dc:type
           rdf:resource="http://purl.org/dc/dcmitype/StillImage" />
        <dc:title></dc:title>
      </cc:Work>
    </rdf:RDF>
  </metadata>
  <g
     id="layer1"
     style="fill-opacity:0.5">
    <rect
       width="737.99988"
       height="533.99994"
       rx="2.5634737"
       ry="2.5538738"
       x="-738"
       y="3.509668e-005"
       transform="matrix(0,-1,1,0,0,0)"
       id="rect1317"
       style="fill:#009d00;fill-rule:evenodd;stroke:none" />
    <g
       transform="matrix(0,-1.509164,1.506335,0,-115.6011,876.1191)"
       id="g4041"
       style="stroke:#ffffff;stroke-width:1.5;stroke-miterlimit:4;stroke-opacity:0.62921352;stroke-dasharray:none">
      <path
         d="m 118.19246,416.99231 0,-326.566444 434.51101,0.683193 0.68319,325.883251 -435.1942,0 z"
         id="path2194"
         style="fill:none;stroke:#ffffff;stroke-width:1.5;stroke-linecap:butt;stroke-linejoin:miter;stroke-miterlimit:4;stroke-opacity:0.62921352;stroke-dasharray:none" />
      <path
         d="m 370.97403,254.39229 a 34.842865,35.526058 0 1 1 -69.68573,0 34.842865,35.526058 0 1 1 69.68573,0 z"
         transform="matrix(0.952617,0,0,0.916433,15.58528,21.60032)"
         id="path2212"
         style="fill:none;stroke:#ffffff;stroke-width:1.60539436;stroke-linecap:butt;stroke-linejoin:round;stroke-miterlimit:4;stroke-opacity:0.62921352;stroke-dasharray:none;stroke-dashoffset:0" />
      <path
         d="m 117.96294,327.15238 60.47806,0 0,-145.5202 -60.12102,0 0,0"
         id="path2196"
         style="fill:none;stroke:#ffffff;stroke-width:1.5;stroke-linecap:butt;stroke-linejoin:miter;stroke-miterlimit:4;stroke-opacity:0.62921352;stroke-dasharray:none" />
      <path
         d="m 118.4324,219.89101 21.06657,0 -0.68319,66.95296 -21.17899,-1e-5"
         id="path2198"
         style="fill:none;stroke:#ffffff;stroke-width:1.5;stroke-linecap:butt;stroke-linejoin:miter;stroke-miterlimit:4;stroke-opacity:0.62921352;stroke-dasharray:none" />
      <path
         d="m 118.31998,240.38682 -10.9311,0 0,26.64454 10.9311,-1e-5"
         id="path2200"
         style="fill:none;stroke:#ffffff;stroke-width:1.5;stroke-linecap:butt;stroke-linejoin:miter;stroke-miterlimit:4;stroke-opacity:0.62921352;stroke-dasharray:none" />
      <path
         d="m 178.32858,279.68588 c 19.12942,-11.10189 18.36467,-41.10402 -0.0815,-52.03512"
         id="path2206"
         style="fill:none;stroke:#ffffff;stroke-width:1.5;stroke-linecap:butt;stroke-linejoin:miter;stroke-miterlimit:4;stroke-opacity:0.62921352;stroke-dasharray:none" />
      <path
         d="m 553.15787,327.23393 -59.33652,-0.0815 0,-145.5202 59.06102,0"
         id="path3091"
         style="fill:none;stroke:#ffffff;stroke-width:1.5;stroke-linecap:butt;stroke-linejoin:miter;stroke-miterlimit:4;stroke-opacity:0.62921352;stroke-dasharray:none" />
      <path
         d="m 553.25918,219.89102 -20.4958,0 0.68319,66.95296 19.7113,-10e-6"
         id="path3093"
         style="fill:none;stroke:#ffffff;stroke-width:1.5;stroke-linecap:butt;stroke-linejoin:miter;stroke-miterlimit:4;stroke-opacity:0.62921352;stroke-dasharray:none" />
      <path
         d="m 552.96391,240.38683 11.90956,0 0,26.64454 -11.66495,-10e-6"
         id="path3095"
         style="fill:none;stroke:#ffffff;stroke-width:1.5;stroke-linecap:butt;stroke-linejoin:miter;stroke-miterlimit:4;stroke-opacity:0.62921352;stroke-dasharray:none" />
      <path
         d="m 493.68916,279.68589 c -19.12942,-11.10189 -18.36468,-40.69633 0.0815,-51.62743"
         id="path3097"
         style="fill:none;stroke:#ffffff;stroke-width:1.5;stroke-linecap:butt;stroke-linejoin:miter;stroke-miterlimit:4;stroke-opacity:0.62921352;stroke-dasharray:none" />
      <path
         d="m 336.13116,90.425866 0,325.883254 0,0"
         id="path3107"
         style="fill:none;stroke:#ffffff;stroke-width:1.5;stroke-linecap:butt;stroke-linejoin:miter;stroke-miterlimit:4;stroke-opacity:0.62921352;stroke-dasharray:none" />
      <path
         d="m 118.34857,95.731078 c 0,0 4.03987,-0.963636 5.04056,-5.188811"
         id="path3117"
         style="fill:none;stroke:#ffffff;stroke-width:1.5;stroke-linecap:butt;stroke-linejoin:miter;stroke-miterlimit:4;stroke-opacity:0.62921352;stroke-dasharray:none" />
      <path
         d="m 123.06916,417.24402 c 0,0 -0.96364,-4.03986 -5.18881,-5.04056"
         id="path3120"
         style="fill:none;stroke:#ffffff;stroke-width:1.5;stroke-linecap:butt;stroke-linejoin:miter;stroke-miterlimit:4;stroke-opacity:0.62921352;stroke-dasharray:none" />
      <path
         d="m 553.14946,411.81092 c 0,0 -4.03987,0.96364 -5.04056,5.18881"
         id="path3122"
         style="fill:none;stroke:#ffffff;stroke-width:1.5;stroke-linecap:butt;stroke-linejoin:miter;stroke-miterlimit:4;stroke-opacity:0.62921352;stroke-dasharray:none" />
      <path
         d="m 547.05631,91.357379 c 0,0 0.96364,4.03987 5.18882,5.04056"
         id="path3124"
         style="fill:none;stroke:#ffffff;stroke-width:1.5;stroke-linecap:butt;stroke-linejoin:miter;stroke-miterlimit:4;stroke-opacity:0.62921352;stroke-dasharray:none" />
      <path
         d="m 514.91535,253.57072 a 1.0599999,1.3453845 0 1 1 -2.12,0 1.0599999,1.3453845 0 1 1 2.12,0 z"
         id="path3126"
         style="fill:none;stroke:#ffffff;stroke-width:1.5;stroke-linecap:butt;stroke-linejoin:round;stroke-miterlimit:4;stroke-opacity:0.62921352;stroke-dasharray:none;stroke-dashoffset:0" />
      <path
         d="m 159.65229,253.44841 a 1.4676921,1.3046153 0 1 1 -2.93538,0 1.4676921,1.3046153 0 1 1 2.93538,0 z"
         id="path3128"
         style="fill:none;stroke:#ffffff;stroke-width:1.5;stroke-linecap:butt;stroke-linejoin:round;stroke-miterlimit:4;stroke-opacity:0.62921352;stroke-dasharray:none;stroke-dashoffset:0" />
      <path
         d="m 337.49755,253.02589 a 1.3663868,1.3663868 0 1 1 -2.73277,0 1.3663868,1.3663868 0 1 1 2.73277,0 z"
         transform="translate(-0.683193,0)"
         id="path3130"
         style="fill:none;stroke:#ffffff;stroke-width:1.5;stroke-linecap:butt;stroke-linejoin:round;stroke-miterlimit:4;stroke-opacity:0.62921352;stroke-dasharray:none;stroke-dashoffset:0" />
    </g>
  </g>
  <g
     transform="matrix(0,-1,1,0,-75.24466,404.0203)"
     id="layer2">
    <g
       id="g1457"
       style="fill:#000000;fill-opacity:1">
      <path
         d="m -267.79597,322.90416 5.65033,8.25195 0,3.01576 -5.85522,5.82276 5.85522,5.7759 0,3.01575 -5.84915,8.46724 -5.57005,-2.65102 2.7202,-5.81622 -20.26473,-0.0663 0.0663,-17.49762 20.19845,0 -2.61811,-5.6672 5.66678,-2.65103 z"
         id="path1471"
         style="fill:#000000;fill-opacity:1;fill-rule:evenodd;stroke:#000000;stroke-width:0.57993299px;stroke-linecap:butt;stroke-linejoin:miter;stroke-opacity:1" />
      <path
         d="m -262.14564,334.17187 c -1.15987,5.79933 -1.15987,5.79933 -1.15987,5.79933 l 1.15987,5.79933"
         id="path1485"
         style="fill:#000000;fill-opacity:1;fill-rule:evenodd;stroke:#000000;stroke-width:0.57993299px;stroke-linecap:butt;stroke-linejoin:miter;stroke-opacity:1" />
    </g>
    <text
       x="339.31888"
       y="308.61642"
       transform="matrix(0,1,-1,0,0,0)"
       id="text6173"
       xml:space="preserve"
       style="font-size:16px;font-style:normal;font-variant:normal;font-weight:normal;font-stretch:normal;text-align:center;line-height:100%;writing-mode:lr-tb;text-anchor:middle;fill:#000000;fill-opacity:1;stroke:none;font-family:Verdana"><tspan
         x="339.31888"
         y="308.61642"
         id="tspan4157">Kawashima</tspan></text>
    <text
       x="150.7388"
       y="211.64647"
       transform="matrix(0,1,-1,0,0,0)"
       id="text6181"
       xml:space="preserve"
       style="font-size:16px;font-style:normal;font-variant:normal;font-weight:normal;font-stretch:normal;text-align:center;line-height:100%;writing-mode:lr-tb;text-anchor:middle;fill:#000000;fill-opacity:1;stroke:none;font-family:Verdana"><tspan
         x="150.7388"
         y="211.64647"
         id="tspan4225">Nagatomo</tspan></text>
    <text
       x="533.86578"
       y="213.61642"
       transform="matrix(0,1,-1,0,0,0)"
       id="text6191"
       xml:space="preserve"
       style="font-size:16px;font-style:normal;font-variant:normal;font-weight:normal;font-stretch:normal;text-align:center;line-height:100%;writing-mode:lr-tb;text-anchor:middle;fill:#000000;fill-opacity:1;stroke:none;font-family:Verdana"><tspan
         x="533.86578"
         y="213.61642"
         id="tspan4165">Uchida</tspan></text>
    <text
       x="338.89001"
       y="105.30271"
       transform="matrix(0,1,-1,0,0,0)"
       id="text6195"
       xml:space="preserve"
       style="font-size:16px;font-style:normal;font-variant:normal;font-weight:normal;font-stretch:normal;text-align:center;line-height:100%;writing-mode:lr-tb;text-anchor:middle;fill:#000000;fill-opacity:1;stroke:none;font-family:Verdana"><tspan
         x="341.70251"
         y="105.30271"
         id="tspan4175">Honda </tspan></text>
    <text
       x="532.7486"
       y="64.214394"
       transform="matrix(0,1,-1,0,0,0)"
       id="text6199"
       xml:space="preserve"
       style="font-size:16px;font-style:normal;font-variant:normal;font-weight:normal;font-stretch:normal;text-align:center;line-height:100%;writing-mode:lr-tb;text-anchor:middle;fill:#000000;fill-opacity:1;stroke:none;font-family:Verdana"><tspan
         x="532.7486"
         y="64.214394"
         id="tspan4153">Okazaki</tspan></text>
    <text
       x="150.0827"
       y="63.338417"
       transform="matrix(0,1,-1,0,0,0)"
       id="text6203"
       xml:space="preserve"
       style="font-size:16px;font-style:normal;font-variant:normal;font-weight:normal;font-stretch:normal;text-align:center;line-height:100%;writing-mode:lr-tb;text-anchor:middle;fill:#000000;fill-opacity:1;stroke:none;font-family:Verdana"><tspan
         x="150.0827"
         y="63.338417"
         id="tspan4155">Fujimoto</tspan></text>
    <text
       x="338.39685"
       y="21.654501"
       transform="matrix(0,1,-1,0,0,0)"
       id="text6207"
       xml:space="preserve"
       style="font-size:16px;font-style:normal;font-variant:normal;font-weight:normal;font-stretch:normal;text-align:center;line-height:100%;writing-mode:lr-tb;text-anchor:middle;fill:#000000;fill-opacity:1;stroke:none;font-family:Verdana"><tspan
         x="338.39685"
         y="21.654501"
         id="tspan1413">Maeda</tspan></text>
    <text
       x="425.50958"
       y="139.75854"
       transform="matrix(0,1,-1,0,0,0)"
       id="text6211"
       xml:space="preserve"
       style="font-size:16px;font-style:normal;font-variant:normal;font-weight:normal;font-stretch:normal;text-align:center;line-height:100%;writing-mode:lr-tb;text-anchor:middle;fill:#000000;fill-opacity:1;stroke:none;font-family:Verdana"><tspan
         x="425.50958"
         y="139.75854"
         id="tspan6215">Endō</tspan></text>
    <text
       x="258.79272"
       y="139.36786"
       transform="matrix(0,1,-1,0,0,0)"
       id="text6217"
       xml:space="preserve"
       style="font-size:16px;font-style:normal;font-variant:normal;font-weight:normal;font-stretch:normal;text-align:center;line-height:100%;writing-mode:lr-tb;text-anchor:middle;fill:#000000;fill-opacity:1;stroke:none;font-family:Verdana"><tspan
         x="258.79272"
         y="139.36786"
         id="tspan4173">Hasebe</tspan></text>
    <g
       transform="matrix(0.588968,0,0,0.581043,40.538894,0.00928658)"
       id="use7989"
       style="fill:#0000ff;fill-opacity:1">
      <path
         d="m -112.72276,230.81533 9.74306,14.22915 0,5.20018 -10.09636,10.0404 10.09636,9.9596 0,5.20018 -10.0859,14.60038 -9.60464,-4.57126 4.69054,-10.02912 -34.94323,-0.11428 0.11429,-30.1718 34.82894,0 -4.5145,-9.77216 9.77144,-4.57127 z"
         id="path2275"
         style="fill:#0000ff;fill-opacity:1;fill-rule:evenodd;stroke:#000000;stroke-width:1px;stroke-linecap:butt;stroke-linejoin:miter;stroke-opacity:1" />
      <path
         d="m -102.9797,250.24466 c -2,10 -2,10 -2,10 l 2,10"
         id="path2277"
         style="fill:#0000ff;fill-opacity:1;fill-rule:evenodd;stroke:#000000;stroke-width:1px;stroke-linecap:butt;stroke-linejoin:miter;stroke-opacity:1" />
    </g>
    <g
       transform="matrix(0.588968,0,0,0.581043,40.538894,384.25193)"
       id="use7991"
       style="fill:#0000ff;fill-opacity:1">
      <path
         d="m -112.72276,230.81533 9.74306,14.22915 0,5.20018 -10.09636,10.0404 10.09636,9.9596 0,5.20018 -10.0859,14.60038 -9.60464,-4.57126 4.69054,-10.02912 -34.94323,-0.11428 0.11429,-30.1718 34.82894,0 -4.5145,-9.77216 9.77144,-4.57127 z"
         id="path2281"
         style="fill:#0000ff;fill-opacity:1;fill-rule:evenodd;stroke:#000000;stroke-width:1px;stroke-linecap:butt;stroke-linejoin:miter;stroke-opacity:1" />
      <path
         d="m -102.9797,250.24466 c -2,10 -2,10 -2,10 l 2,10"
         id="path2283"
         style="fill:#0000ff;fill-opacity:1;fill-rule:evenodd;stroke:#000000;stroke-width:1px;stroke-linecap:butt;stroke-linejoin:miter;stroke-opacity:1" />
    </g>
    <g
       transform="matrix(0.588968,0,0,0.581043,-34.076332,108.90372)"
       id="use7993"
       style="fill:#0000ff;fill-opacity:1">
      <path
         d="m -112.72276,230.81533 9.74306,14.22915 0,5.20018 -10.09636,10.0404 10.09636,9.9596 0,5.20018 -10.0859,14.60038 -9.60464,-4.57126 4.69054,-10.02912 -34.94323,-0.11428 0.11429,-30.1718 34.82894,0 -4.5145,-9.77216 9.77144,-4.57127 z"
         id="path2287"
         style="fill:#0000ff;fill-opacity:1;fill-rule:evenodd;stroke:#000000;stroke-width:1px;stroke-linecap:butt;stroke-linejoin:miter;stroke-opacity:1" />
      <path
         d="m -102.9797,250.24466 c -2,10 -2,10 -2,10 l 2,10"
         id="path2289"
         style="fill:#0000ff;fill-opacity:1;fill-rule:evenodd;stroke:#000000;stroke-width:1px;stroke-linecap:butt;stroke-linejoin:miter;stroke-opacity:1" />
    </g>
    <use
       transform="translate(-0.10050435,163.95827)"
       id="use7995"
       style="fill:#ffffff;fill-opacity:1"
       x="0"
       y="0"
       width="534"
       height="738"
       xlink:href="#use7993" />
    <use
       transform="translate(32.627413,-85.185729)"
       id="use7997"
       style="fill:#ffffff;fill-opacity:1"
       x="0"
       y="0"
       width="534"
       height="738"
       xlink:href="#use7995" />
    <use
       transform="translate(-104.07107,200.8182)"
       id="use7999"
       style="fill:#ffffff;fill-opacity:1"
       x="0"
       y="0"
       width="534"
       height="738"
       xlink:href="#use7997" />
    <use
       transform="translate(4.36334e-5,-137.07107)"
       id="use8001"
       style="fill:#ffffff;fill-opacity:1"
       x="0"
       y="0"
       width="534"
       height="738"
       xlink:href="#use7999" />
    <use
       transform="translate(-4.36334e-5,-120)"
       id="use8003"
       style="fill:#ffffff;fill-opacity:1"
       x="0"
       y="0"
       width="534"
       height="738"
       xlink:href="#use8001" />
    <use
       transform="translate(0,-134.24264)"
       id="use8005"
       style="fill:#0000ff;fill-opacity:1"
       x="0"
       y="0"
       width="534"
       height="738"
       xlink:href="#use8003" />
    <g
       transform="matrix(0.588968,0,0,0.581043,199.15774,189.1119)"
       id="g8141"
       style="fill:#ffcc00;fill-opacity:1">
      <path
         d="m -112.72276,230.81533 9.74306,14.22915 0,5.20018 -10.09636,10.0404 10.09636,9.9596 0,5.20018 -10.0859,14.60038 -9.60464,-4.57126 4.69054,-10.02912 -34.94323,-0.11428 0.11429,-30.1718 34.82894,0 -4.5145,-9.77216 9.77144,-4.57127 z"
         id="path8143"
         style="fill:#ffcc00;fill-opacity:1;fill-rule:evenodd;stroke:#000000;stroke-width:1px;stroke-linecap:butt;stroke-linejoin:miter;stroke-opacity:1" />
      <path
         d="m -102.9797,250.24466 c -2,10 -2,10 -2,10 l 2,10"
         id="path8145"
         style="fill:#ffcc00;fill-opacity:1;fill-rule:evenodd;stroke:#000000;stroke-width:1px;stroke-linecap:butt;stroke-linejoin:miter;stroke-opacity:1" />
    </g>
    <text
       x="337.86172"
       y="-87.51944"
       transform="matrix(0,1,-1,0,0,0)"
       id="text8147"
       xml:space="preserve"
       style="font-size:16px;font-style:normal;font-variant:normal;font-weight:normal;font-stretch:normal;text-align:center;line-height:100%;writing-mode:lr-tb;text-anchor:middle;fill:#000000;fill-opacity:1;stroke:none;font-family:Verdana"><tspan
         x="337.86172"
         y="-87.51944"
         id="tspan4213">Cahill</tspan></text>
    <text
       x="150.90384"
       y="-171.66785"
       transform="matrix(0,1,-1,0,0,0)"
       id="text8151"
       xml:space="preserve"
       style="font-size:16px;font-style:normal;font-variant:normal;font-weight:normal;font-stretch:normal;text-align:center;line-height:100%;writing-mode:lr-tb;text-anchor:middle;fill:#000000;fill-opacity:1;stroke:none;font-family:Verdana"><tspan
         x="150.90384"
         y="-171.66785"
         id="tspan4215">Holman</tspan></text>
    <text
       x="343.28613"
       y="-141.52573"
       transform="matrix(0,1,-1,0,0,0)"
       id="text8155"
       xml:space="preserve"
       style="font-size:16px;font-style:normal;font-variant:normal;font-weight:normal;font-stretch:normal;text-align:center;line-height:100%;writing-mode:lr-tb;text-anchor:middle;fill:#000000;fill-opacity:1;stroke:none;font-family:Verdana"><tspan
         x="343.28613"
         y="-141.52573"
         id="tspan4211">Kewell</tspan></text>
    <g
       transform="matrix(0.588968,0,0,0.581043,228.47144,-1.4049268)"
       id="use8159"
       style="fill:#ffcc00;fill-opacity:1">
      <path
         d="m -112.72276,230.81533 9.74306,14.22915 0,5.20018 -10.09636,10.0404 10.09636,9.9596 0,5.20018 -10.0859,14.60038 -9.60464,-4.57126 4.69054,-10.02912 -34.94323,-0.11428 0.11429,-30.1718 34.82894,0 -4.5145,-9.77216 9.77144,-4.57127 z"
         id="path2293"
         style="fill:#ffcc00;fill-opacity:1;fill-rule:evenodd;stroke:#000000;stroke-width:1px;stroke-linecap:butt;stroke-linejoin:miter;stroke-opacity:1" />
      <path
         d="m -102.9797,250.24466 c -2,10 -2,10 -2,10 l 2,10"
         id="path2295"
         style="fill:#ffcc00;fill-opacity:1;fill-rule:evenodd;stroke:#000000;stroke-width:1px;stroke-linecap:butt;stroke-linejoin:miter;stroke-opacity:1" />
    </g>
    <g
       transform="matrix(0.588968,0,0,0.581043,143.61864,188.77887)"
       id="use8161"
       style="fill:#ffcc00;fill-opacity:1">
      <path
         d="m -112.72276,230.81533 9.74306,14.22915 0,5.20018 -10.09636,10.0404 10.09636,9.9596 0,5.20018 -10.0859,14.60038 -9.60464,-4.57126 4.69054,-10.02912 -34.94323,-0.11428 0.11429,-30.1718 34.82894,0 -4.5145,-9.77216 9.77144,-4.57127 z"
         id="path2299"
         style="fill:#ffcc00;fill-opacity:1;fill-rule:evenodd;stroke:#000000;stroke-width:1px;stroke-linecap:butt;stroke-linejoin:miter;stroke-opacity:1" />
      <path
         d="m -102.9797,250.24466 c -2,10 -2,10 -2,10 l 2,10"
         id="path2301"
         style="fill:#ffcc00;fill-opacity:1;fill-rule:evenodd;stroke:#000000;stroke-width:1px;stroke-linecap:butt;stroke-linejoin:miter;stroke-opacity:1" />
    </g>
    <text
       x="531.17438"
       y="-177.07127"
       transform="matrix(0,1,-1,0,0,0)"
       id="text8163"
       xml:space="preserve"
       style="font-size:16px;font-style:normal;font-variant:normal;font-weight:normal;font-stretch:normal;text-align:center;line-height:100%;writing-mode:lr-tb;text-anchor:middle;fill:#000000;fill-opacity:1;stroke:none;font-family:Verdana"><tspan
         x="531.17438"
         y="-177.07127"
         id="tspan4223"
         style="font-size:16px;font-style:normal;font-variant:normal;font-weight:normal;font-stretch:normal;text-align:center;line-height:100%;writing-mode:lr-tb;text-anchor:middle;font-family:Verdana">McKay</tspan></text>
    <text
       x="398.62"
       y="-202.89828"
       transform="matrix(0,1,-1,0,0,0)"
       id="text8167"
       xml:space="preserve"
       style="font-size:16px;font-style:normal;font-variant:normal;font-weight:normal;font-stretch:normal;text-align:center;line-height:100%;writing-mode:lr-tb;text-anchor:middle;fill:#000000;fill-opacity:1;stroke:none;font-family:Verdana"><tspan
         x="398.62"
         y="-202.89828"
         id="tspan4221">Valeri</tspan></text>
    <text
       x="279.05038"
       y="-202.52711"
       transform="matrix(0,1,-1,0,0,0)"
       id="text8173"
       xml:space="preserve"
       style="font-size:16px;font-style:normal;font-variant:normal;font-weight:normal;font-stretch:normal;text-align:center;line-height:100%;writing-mode:lr-tb;text-anchor:middle;fill:#000000;fill-opacity:1;stroke:none;font-family:Verdana"><tspan
         x="279.05038"
         y="-202.52711"
         id="tspan4217">Jedinak</tspan></text>
    <g
       transform="matrix(0.588968,0,0,0.581043,258.70247,132.94545)"
       id="use8177"
       style="fill:#ffcc00;fill-opacity:1">
      <path
         d="m -112.72276,230.81533 9.74306,14.22915 0,5.20018 -10.09636,10.0404 10.09636,9.9596 0,5.20018 -10.0859,14.60038 -9.60464,-4.57126 4.69054,-10.02912 -34.94323,-0.11428 0.11429,-30.1718 34.82894,0 -4.5145,-9.77216 9.77144,-4.57127 z"
         id="path2305"
         style="fill:#ffcc00;fill-opacity:1;fill-rule:evenodd;stroke:#000000;stroke-width:1px;stroke-linecap:butt;stroke-linejoin:miter;stroke-opacity:1" />
      <path
         d="m -102.9797,250.24466 c -2,10 -2,10 -2,10 l 2,10"
         id="path2307"
         style="fill:#ffcc00;fill-opacity:1;fill-rule:evenodd;stroke:#000000;stroke-width:1px;stroke-linecap:butt;stroke-linejoin:miter;stroke-opacity:1" />
    </g>
    <g
       transform="matrix(0.588968,0,0,0.581043,258.60197,251.64889)"
       id="use8179"
       style="fill:#ffcc00;fill-opacity:1">
      <path
         d="m -112.72276,230.81533 9.74306,14.22915 0,5.20018 -10.09636,10.0404 10.09636,9.9596 0,5.20018 -10.0859,14.60038 -9.60464,-4.57126 4.69054,-10.02912 -34.94323,-0.11428 0.11429,-30.1718 34.82894,0 -4.5145,-9.77216 9.77144,-4.57127 z"
         id="path1518"
         style="fill:#ffcc00;fill-opacity:1;fill-rule:evenodd;stroke:#000000;stroke-width:1px;stroke-linecap:butt;stroke-linejoin:miter;stroke-opacity:1" />
      <path
         d="m -102.9797,250.24466 c -2,10 -2,10 -2,10 l 2,10"
         id="path1520"
         style="fill:#ffcc00;fill-opacity:1;fill-rule:evenodd;stroke:#000000;stroke-width:1px;stroke-linecap:butt;stroke-linejoin:miter;stroke-opacity:1" />
    </g>
    <g
       transform="matrix(0.588968,0,0,0.581043,231.83242,382.83781)"
       id="use8181"
       style="font-size:27.35079765px;font-style:normal;font-variant:normal;font-weight:normal;font-stretch:normal;text-align:center;line-height:100%;writing-mode:lr-tb;text-anchor:middle;fill:#ffcc00;fill-opacity:1;font-family:Verdana">
      <path
         d="m -112.72276,230.81533 9.74306,14.22915 0,5.20018 -10.09636,10.0404 10.09636,9.9596 0,5.20018 -10.0859,14.60038 -9.60464,-4.57126 4.69054,-10.02912 -34.94323,-0.11428 0.11429,-30.1718 34.82894,0 -4.5145,-9.77216 9.77144,-4.57127 z"
         id="path1530"
         style="font-size:27.35079765px;font-style:normal;font-variant:normal;font-weight:normal;font-stretch:normal;text-align:center;line-height:100%;writing-mode:lr-tb;text-anchor:middle;fill:#ffcc00;fill-opacity:1;fill-rule:evenodd;stroke:#000000;stroke-width:1px;stroke-linecap:butt;stroke-linejoin:miter;stroke-opacity:1;font-family:Verdana" />
      <path
         d="m -102.9797,250.24466 c -2,10 -2,10 -2,10 l 2,10"
         id="path1532"
         style="font-size:27.35079765px;font-style:normal;font-variant:normal;font-weight:normal;font-stretch:normal;text-align:center;line-height:100%;writing-mode:lr-tb;text-anchor:middle;fill:#ffcc00;fill-opacity:1;fill-rule:evenodd;stroke:#000000;stroke-width:1px;stroke-linecap:butt;stroke-linejoin:miter;stroke-opacity:1;font-family:Verdana" />
    </g>
    <g
       transform="matrix(0.588968,0,0,0.581043,334.8795,379.9235)"
       id="use8195"
       style="fill:#ffcc00;fill-opacity:1">
      <path
         d="m -112.72276,230.81533 9.74306,14.22915 0,5.20018 -10.09636,10.0404 10.09636,9.9596 0,5.20018 -10.0859,14.60038 -9.60464,-4.57126 4.69054,-10.02912 -34.94323,-0.11428 0.11429,-30.1718 34.82894,0 -4.5145,-9.77216 9.77144,-4.57127 z"
         id="path1524"
         style="fill:#ffcc00;fill-opacity:1;fill-rule:evenodd;stroke:#000000;stroke-width:1px;stroke-linecap:butt;stroke-linejoin:miter;stroke-opacity:1" />
      <path
         d="m -102.9797,250.24466 c -2,10 -2,10 -2,10 l 2,10"
         id="path1526"
         style="fill:#ffcc00;fill-opacity:1;fill-rule:evenodd;stroke:#000000;stroke-width:1px;stroke-linecap:butt;stroke-linejoin:miter;stroke-opacity:1" />
    </g>
    <g
       transform="matrix(0.588968,0,0,0.581043,336.8795,251.4235)"
       id="use8197"
       style="fill:#ffcc00;fill-opacity:1">
      <path
         d="m -112.72276,230.81533 9.74306,14.22915 0,5.20018 -10.09636,10.0404 10.09636,9.9596 0,5.20018 -10.0859,14.60038 -9.60464,-4.57126 4.69054,-10.02912 -34.94323,-0.11428 0.11429,-30.1718 34.82894,0 -4.5145,-9.77216 9.77144,-4.57127 z"
         id="path1512"
         style="fill:#ffcc00;fill-opacity:1;fill-rule:evenodd;stroke:#000000;stroke-width:1px;stroke-linecap:butt;stroke-linejoin:miter;stroke-opacity:1" />
      <path
         d="m -102.9797,250.24466 c -2,10 -2,10 -2,10 l 2,10"
         id="path1514"
         style="fill:#ffcc00;fill-opacity:1;fill-rule:evenodd;stroke:#000000;stroke-width:1px;stroke-linecap:butt;stroke-linejoin:miter;stroke-opacity:1" />
    </g>
    <g
       transform="matrix(0.588968,0,0,0.581043,336.8796,131.4235)"
       id="use8199"
       style="fill:#ffcc00;fill-opacity:1">
      <path
         d="m -112.72276,230.81533 9.74306,14.22915 0,5.20018 -10.09636,10.0404 10.09636,9.9596 0,5.20018 -10.0859,14.60038 -9.60464,-4.57126 4.69054,-10.02912 -34.94323,-0.11428 0.11429,-30.1718 34.82894,0 -4.5145,-9.77216 9.77144,-4.57127 z"
         id="path1506"
         style="fill:#ffcc00;fill-opacity:1;fill-rule:evenodd;stroke:#000000;stroke-width:1px;stroke-linecap:butt;stroke-linejoin:miter;stroke-opacity:1" />
      <path
         d="m -102.9797,250.24466 c -2,10 -2,10 -2,10 l 2,10"
         id="path1508"
         style="fill:#ffcc00;fill-opacity:1;fill-rule:evenodd;stroke:#000000;stroke-width:1px;stroke-linecap:butt;stroke-linejoin:miter;stroke-opacity:1" />
    </g>
    <g
       transform="matrix(0.588968,0,0,0.581043,336.8795,1.423496)"
       id="use8201"
       style="fill:#ffcc00;fill-opacity:1">
      <path
         d="m -112.72276,230.81533 9.74306,14.22915 0,5.20018 -10.09636,10.0404 10.09636,9.9596 0,5.20018 -10.0859,14.60038 -9.60464,-4.57126 4.69054,-10.02912 -34.94323,-0.11428 0.11429,-30.1718 34.82894,0 -4.5145,-9.77216 9.77144,-4.57127 z"
         id="path1500"
         style="fill:#ffcc00;fill-opacity:1;fill-rule:evenodd;stroke:#000000;stroke-width:1px;stroke-linecap:butt;stroke-linejoin:miter;stroke-opacity:1" />
      <path
         d="m -102.9797,250.24466 c -2,10 -2,10 -2,10 l 2,10"
         id="path1502"
         style="fill:#ffcc00;fill-opacity:1;fill-rule:evenodd;stroke:#000000;stroke-width:1px;stroke-linecap:butt;stroke-linejoin:miter;stroke-opacity:1" />
    </g>
    <g
       id="g1461"
       style="fill:#d40000;fill-opacity:1">
      <path
         d="m 356.81981,324.08832 5.65033,8.25195 0,3.01576 -5.85522,5.82276 5.85522,5.7759 0,3.01575 -5.84915,8.46724 -5.57005,-2.65102 2.7202,-5.81622 -20.26473,-0.0663 0.0663,-17.49762 20.19845,0 -2.61811,-5.6672 5.66678,-2.65103 z"
         id="path8203"
         style="fill:#d40000;fill-opacity:1;fill-rule:evenodd;stroke:#000000;stroke-width:0.57993299px;stroke-linecap:butt;stroke-linejoin:miter;stroke-opacity:1" />
      <path
         d="m 362.47014,335.35603 c -1.15987,5.79933 -1.15987,5.79933 -1.15987,5.79933 l 1.15987,5.79933"
         id="path8205"
         style="fill:#d40000;fill-opacity:1;fill-rule:evenodd;stroke:#000000;stroke-width:0.57993299px;stroke-linecap:butt;stroke-linejoin:miter;stroke-opacity:1" />
    </g>
    <text
       x="280.05521"
       y="212.61642"
       transform="matrix(0,1,-1,0,0,0)"
       id="text4159"
       xml:space="preserve"
       style="font-size:16px;font-style:normal;font-variant:normal;font-weight:normal;font-stretch:normal;text-align:center;line-height:100%;writing-mode:lr-tb;text-anchor:middle;fill:#000000;fill-opacity:1;stroke:none;font-family:Verdana"><tspan
         x="280.05521"
         y="212.61642"
         id="tspan4163">Konno</tspan></text>
    <text
       x="402.38724"
       y="210.0881"
       transform="matrix(0,1,-1,0,0,0)"
       id="text4167"
       xml:space="preserve"
       style="font-size:16px;font-style:normal;font-variant:normal;font-weight:normal;font-stretch:normal;text-align:center;line-height:100%;writing-mode:lr-tb;text-anchor:middle;fill:#000000;fill-opacity:1;stroke:none;font-family:Verdana"><tspan
         x="402.38724"
         y="210.0881"
         id="tspan4171">Yoshida</tspan></text>
    <text
       x="338.58533"
       y="-367.24146"
       transform="matrix(0,1,-1,0,0,0)"
       id="text4181"
       xml:space="preserve"
       style="font-size:16px;font-style:normal;font-variant:normal;font-weight:normal;font-stretch:normal;text-align:center;line-height:100%;writing-mode:lr-tb;text-anchor:middle;fill:#000000;fill-opacity:1;stroke:none;font-family:Verdana"><tspan
         x="338.58533"
         y="-367.24146"
         id="tspan4185">Schwarzer</tspan></text>
    <text
       x="151.78064"
       y="-279.82724"
       transform="matrix(0,1,-1,0,0,0)"
       id="text4187"
       xml:space="preserve"
       style="font-size:16px;font-style:normal;font-variant:normal;font-weight:normal;font-stretch:normal;text-align:center;line-height:100%;writing-mode:lr-tb;text-anchor:middle;fill:#000000;fill-opacity:1;stroke:none;font-family:Verdana"><tspan
         x="151.78064"
         y="-279.82724"
         id="tspan4191">Wilkshire</tspan></text>
    <text
       x="281.41623"
       y="-279.58459"
       transform="matrix(0,1,-1,0,0,0)"
       id="text4193"
       xml:space="preserve"
       style="font-size:16px;font-style:normal;font-variant:normal;font-weight:normal;font-stretch:normal;text-align:center;line-height:100%;writing-mode:lr-tb;text-anchor:middle;fill:#000000;fill-opacity:1;stroke:none;font-family:Verdana"><tspan
         x="281.41623"
         y="-279.58459"
         id="tspan4197">Neill</tspan></text>
    <text
       x="402.44778"
       y="-280.0426"
       transform="matrix(0,1,-1,0,0,0)"
       id="text4199"
       xml:space="preserve"
       style="font-size:16px;font-style:normal;font-variant:normal;font-weight:normal;font-stretch:normal;text-align:center;line-height:100%;writing-mode:lr-tb;text-anchor:middle;fill:#000000;fill-opacity:1;stroke:none;font-family:Verdana"><tspan
         x="402.44778"
         y="-280.0426"
         id="tspan4209">Ognenovski</tspan></text>
    <text
       x="527.95551"
       y="-281.65564"
       transform="matrix(0,1,-1,0,0,0)"
       id="text4203"
       xml:space="preserve"
       style="font-size:16px;font-style:normal;font-variant:normal;font-weight:normal;font-stretch:normal;text-align:center;line-height:100%;writing-mode:lr-tb;text-anchor:middle;fill:#000000;fill-opacity:1;stroke:none;font-family:Verdana"><tspan
         x="527.95551"
         y="-281.65564"
         id="tspan4207">Carney</tspan></text>
    <use
       transform="translate(119.21023,-83.066395)"
       id="use7997-1"
       style="fill:#ffffff;fill-opacity:1"
       x="0"
       y="0"
       width="534"
       height="738"
       xlink:href="#use7995" />
  </g>
</svg>
