<?xml version="1.0" encoding="UTF-8" standalone="no"?>
<svg
   xmlns:dc="http://purl.org/dc/elements/1.1/"
   xmlns:cc="http://creativecommons.org/ns#"
   xmlns:rdf="http://www.w3.org/1999/02/22-rdf-syntax-ns#"
   xmlns:svg="http://www.w3.org/2000/svg"
   xmlns="http://www.w3.org/2000/svg"
   xmlns:xlink="http://www.w3.org/1999/xlink"
   xmlns:inkscape="http://www.inkscape.org/namespaces/inkscape"
   width="382.5"
   height="260"
   viewBox="0 0 765 520">
  <defs
     id="defs6">
    <linearGradient
       inkscape:collect="always"
       id="linearGradient962">
      <stop
         style="stop-color:#ffffff;stop-opacity:1;"
         offset="0"
         id="stop958" />
      <stop
         style="stop-color:#000000;stop-opacity:1"
         offset="1"
         id="stop960" />
    </linearGradient>
    <linearGradient
       xlink:href="#linearGradient962"
       id="linearGradient964"
       x1="242.22954"
       y1="91.729546"
       x2="242.22954"
       y2="91.714218"
       gradientUnits="userSpaceOnUse"
       gradientTransform="matrix(2.1461621,0,0,2.1461621,-6.1158055,5.4857433)" />
    <linearGradient
       xlink:href="#linearGradient962"
       id="linearGradient966"
       x1="241.84116"
       y1="78.094116"
       x2="241.84116"
       y2="78.062866"
       gradientUnits="userSpaceOnUse"
       gradientTransform="matrix(2.1461621,0,0,2.1461621,-6.1158055,5.4857433)" />
    <linearGradient
       xlink:href="#linearGradient962"
       id="linearGradient968"
       x1="242.23517"
       y1="65.475067"
       x2="242.23517"
       y2="65.45874"
       gradientUnits="userSpaceOnUse"
       gradientTransform="matrix(2.1461621,0,0,2.1461621,-6.1158055,5.4857433)" />
    <linearGradient
       xlink:href="#linearGradient962"
       id="linearGradient970"
       x1="242.30382"
       y1="51.694271"
       x2="242.30382"
       y2="51.672176"
       gradientUnits="userSpaceOnUse"
       gradientTransform="matrix(2.1461621,0,0,2.1461621,-6.1158055,5.4857433)" />
    <linearGradient
       xlink:href="#linearGradient962"
       id="linearGradient972"
       x1="242.48759"
       y1="38.476166"
       x2="242.48759"
       y2="38.468102"
       gradientUnits="userSpaceOnUse"
       gradientTransform="matrix(2.1461621,0,0,2.1461621,-6.1158055,5.4857433)" />
    <linearGradient
       xlink:href="#linearGradient962"
       id="linearGradient976"
       x1="242.3257"
       y1="186.69412"
       x2="242.3257"
       y2="186.67203"
       gradientUnits="userSpaceOnUse"
       gradientTransform="matrix(2.1461621,0,0,2.1461621,-6.1158055,5.4857433)" />
    <linearGradient
       xlink:href="#linearGradient962"
       id="linearGradient978"
       x1="241.80295"
       y1="172.52876"
       x2="241.80295"
       y2="172.52313"
       gradientUnits="userSpaceOnUse"
       gradientTransform="matrix(2.1461621,0,0,2.1461621,-6.1158055,5.4857433)" />
    <linearGradient
       xlink:href="#linearGradient962"
       id="linearGradient980"
       x1="242.34656"
       y1="159.58586"
       x2="242.34656"
       y2="159.54167"
       gradientUnits="userSpaceOnUse"
       gradientTransform="matrix(2.1461621,0,0,2.1461621,-6.1158055,5.4857433)" />
    <linearGradient
       xlink:href="#linearGradient962"
       id="linearGradient982"
       x1="242.09431"
       y1="146.23245"
       x2="242.09431"
       y2="146.05568"
       gradientUnits="userSpaceOnUse"
       gradientTransform="matrix(2.1461621,0,0,2.1461621,-6.1158055,5.4857433)" />
    <linearGradient
       xlink:href="#linearGradient962"
       id="linearGradient984"
       x1="242.01851"
       y1="132.52736"
       x2="242.01851"
       y2="132.35059"
       gradientUnits="userSpaceOnUse"
       gradientTransform="matrix(2.1461621,0,0,2.1461621,-6.1158055,5.4857433)" />
    <linearGradient
       xlink:href="#linearGradient962"
       id="linearGradient986"
       x1="242.12328"
       y1="118.81763"
       x2="242.12328"
       y2="118.64085"
       gradientUnits="userSpaceOnUse"
       gradientTransform="matrix(2.1461621,0,0,2.1461621,-6.1158055,5.4857433)" />
    <linearGradient
       xlink:href="#linearGradient962"
       id="linearGradient988"
       x1="242.01295"
       y1="105.28838"
       x2="242.01295"
       y2="105.27274"
       gradientUnits="userSpaceOnUse"
       gradientTransform="matrix(2.1461621,0,0,2.1461621,-6.1158055,5.4857433)" />
  </defs>
  <g>
    <path
       fill-rule="evenodd"
       clip-rule="evenodd"
       d="m 708.90655,257.55001 c 0,-3.07737 -0.0835,-6.1388 -0.22687,-9.18432 h 46.31583 c -0.14336,-3.57901 -0.37433,-7.13409 -0.68098,-10.66133 h -46.41137 c -0.62517,-6.21447 -1.55702,-12.33734 -2.75162,-18.3647 h 46.76974 c -0.61324,-3.58695 -1.31008,-7.13808 -2.09456,-10.6653 h -47.1003 c -1.61675,-6.25029 -3.5361,-12.37319 -5.73422,-18.3647 h 47.92856 c -1.13093,-3.59889 -2.35342,-7.15 -3.65555,-10.66132 h -48.57366 c -2.74768,-6.30203 -5.82185,-12.43289 -9.20266,-18.3647 h 49.97935 c -1.7362,-3.6148 -3.56396,-7.1699 -5.48336,-10.66529 h -51.03459 c -4.2091,-6.39361 -8.78053,-12.52446 -13.69047,-18.3647 h 53.41192 c -2.50076,-3.63471 -5.06124,-7.20972 -7.77304,-10.66131 h -55.2955 c -6.42312,-6.59266 -13.31614,-12.73148 -20.61533,-18.3647 h 59.63996 c -3.65159,-3.686472 -7.40274,-7.269436 -11.31717,-10.665289 H 617.71654 C 605.95738,85.161537 593.35801,78.978924 580.0817,74.201633 h 76.49615 C 650.38569,70.292222 643.97054,66.745082 637.37616,62.855575 H 521.06695 c -2.33351,-0.08362 -11.7273,-0.08362 -14.06079,0 h -0.0676 c -0.0676,0 -0.12749,0.0041 -0.19531,0.0077 -1.74813,0.0637 -3.49629,0.155275 -5.23245,0.262748 h -0.006 c -101.7919,6.46151 -182.34979,91.031457 -182.34979,194.419957 0,104.96901 83.04273,190.53818 187.02336,194.65862 0.39421,0.015 0.78846,0.0318 1.18666,0.0478 2.21404,0.0796 4.43607,0.12339 6.67003,0.12339 0.43402,0 123.34556,0.0478 123.34556,0.0478 6.59039,-4.07262 13.01351,-7.61976 19.20171,-11.5292 h -76.50411 c 13.27629,-4.78126 25.87965,-10.96388 37.63879,-18.36468 h 63.59815 c 3.91043,-3.39188 7.66557,-6.97488 11.31714,-10.66132 h -59.64393 c 7.30318,-5.62924 14.18823,-11.77202 20.61532,-18.35675 h 55.29154 c 2.71176,-3.46748 5.28022,-7.03057 7.78096,-10.66925 h -53.41588 c 4.90992,-5.84025 9.48538,-11.97509 13.69047,-18.36472 h 51.03857 c 1.91938,-3.49137 3.74718,-7.04648 5.47936,-10.66129 h -49.97537 c 3.38082,-5.93182 6.44702,-12.06665 9.20263,-18.36471 h 48.5737 c 1.30212,-3.50732 2.52462,-7.06641 3.65554,-10.66132 h -47.93249 c 2.2061,-5.99552 4.12151,-12.12238 5.73424,-18.36468 h 47.10427 c 0.78449,-3.53123 1.48137,-7.07437 2.09459,-10.66134 h -46.76979 c 1.19863,-6.03531 2.12646,-12.15421 2.75162,-18.36468 h 46.41142 c 0.3066,-3.53918 0.53757,-7.08232 0.68093,-10.66931 h -46.31583 c 0.13929,-3.03755 0.22294,-6.09898 0.22294,-9.18034 z"
       id="path2"
       style="fill:#000000;fill-opacity:1;stroke-width:3.98159" />
    <path
       fill-rule="evenodd"
       clip-rule="evenodd"
       fill="#ee3124"
       d="M 654.59069,392.41686 C 646.7778,376.28157 637.9535,353.681 637.9535,353.681 h -47.86888 l -79.83655,86.92658 70.36669,0.002 c 27.61853,-10.12892 53.41635,-26.77092 73.97593,-48.1931 z"
       id="path60"
       style="opacity:1;fill:#ffb60f;fill-opacity:1;stroke-width:3.98159"/>
    <path
       fill-rule="evenodd"
       clip-rule="evenodd"
       d="m 29.874291,41.397655 5.521874,2.214623 c -0.863734,3.933045 -2.296842,6.807112 -4.30577,8.620053 -2.00678,1.815089 -4.475506,2.721558 -7.406184,2.721558 -3.684821,0 -6.673509,-1.443478 -8.961753,-4.339026 -2.636313,-3.340189 -3.951251,-7.844617 -3.951251,-13.517569 0,-5.990865 1.323532,-10.68002 3.97274,-14.067469 2.301132,-2.938509 5.395097,-4.409912 9.28189,-4.409912 3.162721,0 5.811929,1.108386 7.943327,3.32086 1.516907,1.574509 2.629873,3.90942 3.336754,7.006885 l -5.614257,1.660429 c -0.363111,-1.903159 -1.078586,-3.361672 -2.15503,-4.377693 -1.074296,-1.016019 -2.341961,-1.525102 -3.800851,-1.525102 -2.086277,0 -3.785812,0.925802 -5.105041,2.775258 -1.319233,1.849455 -1.976701,4.906107 -1.976701,9.163508 0,4.418504 0.64243,7.55893 1.927282,9.425566 1.284857,1.866644 2.956456,2.798888 5.012652,2.798888 1.504009,0 2.803908,-0.597153 3.903983,-1.789311 1.095777,-1.194307 1.886461,-3.086722 2.376336,-5.681546 z"
       id="path4"
       style="stroke-width:2.14831" />
    <path
       fill-rule="evenodd"
       clip-rule="evenodd"
       d="m 40.131645,37.004928 c 0,-4.186517 0.603756,-7.63411 1.824151,-10.342778 1.216102,-2.70867 2.806054,-4.725673 4.765569,-6.051009 1.957357,-1.325338 4.3337,-1.991228 7.126861,-1.991228 4.04579,0 7.341722,1.574509 9.892097,4.721377 2.550367,3.149016 3.824484,7.631962 3.824484,13.446688 0,5.881313 -1.34931,10.473806 -4.047937,13.781777 -2.367744,2.92562 -5.582029,4.386283 -9.645013,4.386283 -4.095206,0 -7.324531,-1.443479 -9.694417,-4.339027 -2.700778,-3.307969 -4.045795,-7.844615 -4.045795,-13.612083 z m 5.882832,-0.242729 c 0,4.036156 0.754153,7.062731 2.260314,9.079737 1.50831,2.017002 3.377581,3.026576 5.607812,3.026576 2.243123,0 4.105952,-0.998835 5.582032,-3.000802 1.473933,-2.001966 2.210895,-5.0758 2.210895,-9.221503 0,-4.066229 -0.717628,-7.071325 -2.155036,-9.019591 -1.435257,-1.94397 -3.315269,-2.917029 -5.640041,-2.917029 -2.324769,0 -4.217676,0.981652 -5.676566,2.942806 -1.458889,1.959004 -2.18941,4.998472 -2.18941,9.109806 z"
       id="path6"
       style="stroke-width:2.14831" />
    <path
       fill-rule="evenodd"
       clip-rule="evenodd"
       d="M 73.179068,54.401847 V 19.171958 h 9.200247 c 3.429146,0 5.670124,0.169697 6.722934,0.504788 1.682342,0.545601 3.070329,1.707687 4.163955,3.488406 1.091481,1.778571 1.639366,4.070521 1.639366,6.873707 0,2.549713 -0.47054,4.684857 -1.415916,6.407581 -0.943229,1.722722 -2.124941,2.932063 -3.538718,3.628027 -1.413774,0.700258 -3.856718,1.046093 -7.315943,1.046093 h -3.751429 v 13.279137 h -5.704496 v 0.0021 z m 5.704496,-29.234729 v 9.96043 h 3.177758 c 2.131397,0 3.577397,-0.15036 4.346592,-0.453237 0.767044,-0.302871 1.394435,-0.850621 1.882156,-1.641097 0.489881,-0.788328 0.73482,-1.761387 0.73482,-2.910582 0,-1.164235 -0.25138,-2.145885 -0.758451,-2.942807 -0.507063,-0.799068 -1.130156,-1.333928 -1.871417,-1.60458 -0.745557,-0.270653 -2.316172,-0.408127 -4.716146,-0.408127 z"
       id="path8"
       style="stroke-width:2.14831" />
    <path
       fill-rule="evenodd"
       clip-rule="evenodd"
       d="m 123.09287,54.401847 h -6.18577 l -2.4236,-7.930539 h -11.35099 l -2.29898,7.930539 H 94.662791 L 105.5196,19.171958 h 6.23304 z m -10.44426,-13.925698 -3.99638,-13.079372 -3.7858,13.079372 z"
       id="path10"
       style="stroke-width:2.14831" />
    <path
       fill-rule="evenodd"
       clip-rule="evenodd"
       d="m 161.73522,54.401847 h -6.18578 l -2.4236,-7.930539 h -11.35101 l -2.29466,7.930539 h -6.1772 l 10.85897,-35.229889 h 6.23519 z m -10.44427,-13.925698 -3.99638,-13.079372 -3.78581,13.079372 z"
       id="path12"
       style="stroke-width:2.14831" />
    <polygon
       fill-rule="evenodd"
       clip-rule="evenodd"
       points="73.295,16.658 73.295,0.257 77.287,0.278 79.679,11.488 82.042,0.257 86.064,0.278 86.064,16.658 83.578,16.658 83.578,3.705 80.951,16.658 78.418,16.658 75.783,3.705 75.783,16.658 "
       id="polygon14"
       transform="matrix(2.148587,0,0,2.1480328,8.1735674,18.619913)" />
    <polygon
       fill-rule="evenodd"
       clip-rule="evenodd"
       points="98.957,0.257 98.957,3.048 91.837,3.048 91.837,6.698 98.494,6.698 98.494,9.446 91.837,9.446 91.837,13.867 99.21,13.867 99.21,16.658 89.181,16.658 89.181,0.257 "
       id="polygon16"
       transform="matrix(2.148587,0,0,2.1480328,8.1735674,18.619913)" />
    <path
       fill-rule="evenodd"
       clip-rule="evenodd"
       d="M 227.15971,54.401847 V 19.171958 h 12.0471 c 3.08109,0 5.28125,0.317908 6.60477,0.95158 1.31707,0.63367 2.40427,1.733462 3.25295,3.301525 0.85085,1.565917 1.27409,3.439 1.27409,5.621402 0,2.762372 -0.65958,4.985586 -1.9745,6.671791 -1.31281,1.686205 -3.18208,2.745183 -5.59707,3.17694 1.22469,0.891434 2.23666,1.868788 3.03808,2.92562 0.80142,1.058981 1.8886,2.964285 3.26801,5.718064 l 3.43774,6.862967 h -6.86046 l -4.10808,-7.655591 c -1.47394,-2.768814 -2.47732,-4.49798 -3.00586,-5.189648 -0.52427,-0.689518 -1.0829,-1.164232 -1.67162,-1.426294 -0.58656,-0.264205 -1.53411,-0.395237 -2.83614,-0.395237 h -1.15808 v 14.66462 h -5.71093 v 0.0021 z m 5.70664,-20.290319 h 4.24775 c 2.59334,0 4.24561,-0.113833 4.9568,-0.35013 0.709,-0.229839 1.2784,-0.700261 1.72316,-1.404813 0.44045,-0.706703 0.66391,-1.645396 0.66391,-2.816072 0,-1.121273 -0.22346,-2.021298 -0.66391,-2.704373 -0.44476,-0.680927 -1.03777,-1.149198 -1.79624,-1.406962 -0.53282,-0.173991 -2.08414,-0.266355 -4.64524,-0.266355 h -4.48408 v 8.948705 z"
       id="path18"
       style="stroke-width:2.14831" />
    <polygon
       fill-rule="evenodd"
       clip-rule="evenodd"
       points="118.198,0.257 118.198,16.658 115.544,16.658 115.544,0.257 "
       id="polygon20"
       transform="matrix(2.148587,0,0,2.1480328,8.1735674,18.619913)" />
    <path
       fill-rule="evenodd"
       clip-rule="evenodd"
       d="m 286.69274,41.397655 5.52618,2.214623 c -0.8616,3.933045 -2.29687,6.807112 -4.30578,8.620053 -2.00679,1.815089 -4.47982,2.721558 -7.41047,2.721558 -3.6827,0 -6.66924,-1.443478 -8.95748,-4.339026 -2.63416,-3.340189 -3.95338,-7.844617 -3.95338,-13.517569 0,-5.990865 1.32564,-10.68002 3.97275,-14.067469 2.30328,-2.938509 5.40154,-4.409912 9.28189,-4.409912 3.16485,0 5.81407,1.108386 7.94332,3.32086 1.52333,1.574509 2.63844,3.90942 3.3389,7.006885 l -5.6164,1.660429 c -0.35881,-1.903159 -1.07646,-3.361672 -2.15075,-4.377693 -1.07644,-1.016019 -2.34196,-1.525102 -3.803,-1.525102 -2.08626,0 -3.78796,0.925802 -5.10718,2.775258 -1.31708,1.849455 -1.97456,4.906107 -1.97456,9.163508 0,4.418504 0.64027,7.55893 1.9273,9.425566 1.2827,1.866644 2.95857,2.798888 5.01266,2.798888 1.50613,0 2.80387,-0.597153 3.90181,-1.789311 1.10008,-1.194307 1.88862,-3.086722 2.37419,-5.681546 z"
       id="path22"
       style="stroke-width:2.14831" />
    <path
       fill-rule="evenodd"
       clip-rule="evenodd"
       d="m 323.66347,54.401847 h -6.18792 l -2.42147,-7.930539 h -11.35314 l -2.29252,7.930539 h -6.1729 l 10.85895,-35.229889 h 6.23306 z M 313.22135,40.476149 309.2271,27.396777 305.43486,40.476149 Z"
       id="path24"
       style="stroke-width:2.14831" />
    <path
       fill-rule="evenodd"
       clip-rule="evenodd"
       fill="#ee3124"
       d="m 517.42722,62.720217 h -3.40072 c 1.1389,0 2.26981,0.02387 3.40072,0.03981 z"
       id="path48"
       style="stroke-width:3.98159" />
    <path
       fill-rule="evenodd"
       clip-rule="evenodd"
       fill="#EE3124"
       d="M 514.02251,62.720217 H 10 V 189.90757 H 331.22018 C 358.72058,115.64859 430.19133,62.720217 514.02251,62.720217 Z"
       id="path50"
       style="fill:#72a3cc;fill-opacity:1;stroke-width:3.98159" />
    <path
       fill-rule="evenodd"
       clip-rule="evenodd"
       fill="#FFDD00"
       d="M 331.19229,189.97924 H 10 v 134.89471 h 321.09276 c -7.72529,-20.98423 -11.95028,-43.66043 -11.95028,-67.31998 0,-23.75902 4.26083,-46.52282 12.04981,-67.57473 z"
       id="path52"
       style="fill:#fefefe;fill-opacity:1;stroke-width:3.98159" />
    <path
       fill-rule="evenodd"
       clip-rule="evenodd"
       fill="#ffdd00"
       d="M 331.22018,189.90757 H 10 v 0.0716 h 321.19229 c 0.006,-0.0238 0.015,-0.0478 0.0279,-0.0716 z"
       id="path54"
       style="stroke-width:3.98159" />
    <path
       fill-rule="evenodd"
       clip-rule="evenodd"
       fill="#00A651"
       d="M 331.47902,324.85009 H 10 v 127.5432 l 504.01733,2e-4 c -84.0288,0 -154.03837,-52.43858 -182.53833,-127.54336 z"
       id="path56"
       style="fill:#72a3cc;fill-opacity:1;stroke-width:3.98159" />
    <polygon
       fill-rule="evenodd"
       clip-rule="evenodd"
       fill="#ee3124"
       points="146.252,72.112 137.617,83.185 112.278,83.185 110.19,60.367 132.271,51.67 "
       id="polygon58"
       transform="matrix(3.9821013,0,0,3.9810742,10,-25.022658)"
       style="fill:#ffb60f;fill-opacity:1" />
    <path
       fill-rule="evenodd"
       clip-rule="evenodd"
       fill="#ee3124"
       d="m 652.10984,261.65052 10.01501,44.56813 h 40.65325 c 4.00202,-15.55008 6.12845,-31.86452 6.12845,-48.66864 0,-16.8439 -2.13839,-33.18624 -6.15631,-48.77614 h -32.40241 z"
       id="path62"
       style="fill:#ffb60f;fill-opacity:1;stroke-width:3.98159" />
    <path
       fill-rule="evenodd"
       clip-rule="evenodd"
       fill="#ee3124"
       d="m 640.34673,131.8874 5.91739,-17.3973 C 611.5163,82.374782 565.07309,62.724201 514.02251,62.724201 c -2.60426,0 -5.18467,0.09555 -7.75711,0.195086 l 61.79423,68.972103 h 72.2871 z"
       id="path64"
       style="fill:#ffb60f;fill-opacity:1;stroke-width:3.98159" />
    <path
       fill-rule="evenodd"
       clip-rule="evenodd"
       fill="#ee3124"
       d="M 414.39831,150.80945 446.52588,75.105342 C 391.65146,95.186438 350.54467,137.65165 331.18831,190.0071 h 37.1968 z"
       id="path66"
       style="fill:#ffb60f;fill-opacity:1;stroke-width:3.98159" />
    <path
       fill-rule="evenodd"
       clip-rule="evenodd"
       fill="#ee3124"
       d="m 369.48421,324.88988 h -38.37952 c 12.84229,34.8583 35.59811,65.01096 64.55198,87.24124 h 36.7527 z"
       id="path68"
       style="fill:#ffb60f;fill-opacity:1;stroke-width:3.98159" />
    <path
       fill-rule="evenodd"
       clip-rule="evenodd"
       fill="#034ea2"
       d="M 579.15377,73.907033 H 448.89924 c -13.57099,4.809146 -26.42922,11.083315 -38.42332,18.623472 H 617.58103 C 605.57501,84.990348 592.7168,78.716179 579.15377,73.907033 Z"
       id="path70"
       style="fill:url(#linearGradient972);fill-opacity:1;stroke-width:3.98159" />
    <path
       fill-rule="evenodd"
       clip-rule="evenodd"
       fill="#034ea2"
       d="m 374.52554,121.56447 h 278.99795 c -6.53066,-6.69218 -13.53118,-12.91859 -20.96577,-18.6155 H 395.49131 c -7.43459,5.7009 -14.43912,11.9273 -20.96577,18.6155 z"
       id="path72"
       style="fill:url(#linearGradient970);fill-opacity:1;stroke-width:3.98159" />
    <path
       fill-rule="evenodd"
       clip-rule="evenodd"
       fill="#034ea2"
       d="m 351.15059,150.60641 h 325.74783 c -4.26883,-6.48516 -8.91192,-12.7036 -13.9055,-18.61949 H 365.06007 c -4.99355,5.91589 -9.63668,12.13032 -13.90948,18.61949 z"
       id="path74"
       style="fill:url(#linearGradient968);fill-opacity:1;stroke-width:3.98159" />
    <path
       fill-rule="evenodd"
       clip-rule="evenodd"
       fill="#034ea2"
       d="m 335.38944,179.64834 h 357.26614 c -2.79542,-6.39758 -5.93332,-12.60408 -9.37386,-18.61948 H 344.7633 c -3.44055,6.0154 -6.57445,12.2219 -9.37386,18.61948 z"
       id="path76"
       style="fill:url(#linearGradient966);fill-opacity:1;stroke-width:3.98159" />
    <path
       fill-rule="evenodd"
       clip-rule="evenodd"
       fill="#034ea2"
       d="m 325.32668,208.68629 h 377.39569 c -1.63667,-6.33787 -3.59588,-12.54833 -5.83778,-18.61946 H 331.16442 c -2.2419,6.07113 -4.19713,12.28159 -5.83774,18.61946 z"
       id="path78"
       style="fill:url(#linearGradient964);fill-opacity:1;stroke-width:3.98159" />
    <path
       fill-rule="evenodd"
       clip-rule="evenodd"
       fill="#034ea2"
       d="m 320.14196,237.72825 h 387.76908 c -0.63714,-6.30206 -1.58887,-12.51251 -2.81139,-18.62349 H 322.95732 c -1.22647,6.11098 -2.17823,12.31746 -2.81536,18.62349 z"
       id="path80"
       style="fill:url(#linearGradient988);fill-opacity:1;stroke-width:3.98159" />
    <path
       fill-rule="evenodd"
       clip-rule="evenodd"
       fill="#034ea2"
       d="m 319.14248,257.55001 c 0,3.08536 0.0874,6.15873 0.23096,9.21223 h 389.29817 c 0.14745,-3.05749 0.23494,-6.12687 0.23494,-9.21223 0,-3.15301 -0.0835,-6.2901 -0.23895,-9.40728 H 319.3774 c -0.14745,3.12116 -0.23492,6.25427 -0.23492,9.40728 z"
       id="path82"
       style="fill:url(#linearGradient986);fill-opacity:1;stroke-width:3.98159" />
    <path
       fill-rule="evenodd"
       clip-rule="evenodd"
       fill="#034ea2"
       d="m 322.92547,295.80815 h 382.20605 c 1.21851,-6.11093 2.16231,-12.31744 2.79145,-18.62347 H 320.12604 c 0.63316,6.30603 1.57694,12.51254 2.79943,18.62347 z"
       id="path84"
       style="fill:url(#linearGradient984);fill-opacity:1;stroke-width:3.98159" />
    <path
       fill-rule="evenodd"
       clip-rule="evenodd"
       fill="#034ea2"
       d="m 331.08482,324.8421 h 365.87543 c 2.23795,-6.06317 4.1852,-12.28559 5.81388,-18.62345 h -377.5032 c 1.63267,6.33786 3.58387,12.55632 5.81389,18.62345 z"
       id="path86"
       style="fill:url(#linearGradient982);fill-opacity:1;stroke-width:3.98159" />
    <path
       fill-rule="evenodd"
       clip-rule="evenodd"
       fill="#034ea2"
       d="M 344.65581,353.87609 H 683.4012 c 3.42861,-6.01142 6.55853,-12.21394 9.34997,-18.61549 H 335.3058 c 2.7835,6.39759 5.9174,12.60407 9.35001,18.61549 z"
       id="path88"
       style="fill:url(#linearGradient980);fill-opacity:1;stroke-width:3.98159" />
    <path
       fill-rule="evenodd"
       clip-rule="evenodd"
       fill="#034ea2"
       d="m 364.89283,382.92598 h 298.26734 c 4.97763,-5.91588 9.60484,-12.13828 13.85371,-18.62343 H 351.02315 c 4.26084,6.48515 8.88808,12.70359 13.86968,18.62343 z"
       id="path90"
       style="fill:url(#linearGradient978);fill-opacity:1;stroke-width:3.98159" />
    <path
       fill-rule="evenodd"
       clip-rule="evenodd"
       fill="#034ea2"
       d="m 395.65667,412.13112 237.15194,-0.17105 c 7.40672,-5.70091 14.39128,-11.91935 20.90602,-18.61553 H 374.33837 c 6.50673,6.69618 13.9076,13.08577 21.3183,18.78669 z"
       id="path92"
       style="fill:url(#linearGradient976);fill-opacity:1;stroke-width:3.98159" />
    <path
       fill-rule="evenodd"
       clip-rule="evenodd"
       fill="#034ea2"
       d="m 448.02483,440.89289 c 0,0 24.86932,11.50791 69.65667,11.50791 44.78733,0 62.39672,-11.5063 62.39672,-11.5063 13.34611,-5.00549 25.895,-10.99581 37.80149,-18.50813 H 410.16136 c 11.91443,7.51232 24.396,13.68548 37.86347,18.50652 z"
       id="path94"
       style="opacity:1;fill:#000000;fill-opacity:1;stroke-width:3.98159" />
    <text
       xml:space="preserve"
       style="font-style:normal;font-variant:normal;font-weight:bold;font-stretch:normal;font-size:48.695px;line-height:1.25;font-family:Arial;-inkscape-font-specification:'Arial Bold';letter-spacing:0px;word-spacing:2.79001px;stroke-width:3.65215"
       x="10.946565"
       y="475.27625"
       id="text937"
       transform="scale(0.96818335,1.0328622)"><tspan
         id="tspan935"
         x="10.946565"
         y="475.27625"
         style="stroke-width:3.65215" /></text>
    <path
       style="fill:#000000;fill-opacity:1;stroke-width:1.26869;stroke-linecap:round;stroke-linejoin:round;paint-order:stroke fill markers"
       d="m 207.03291,17.151313 c 0,-0.05594 2.64553,-7.099483 2.67919,-7.133134 0.0129,-0.01374 1.4,-0.021354 3.08055,-0.01691 l 3.0556,0.008 -2.68888,3.593033 -2.68889,3.593033 h -1.71879 c -1.44928,0 -1.71878,-0.0069 -1.71878,-0.04406 z"
       id="path939" />
    <path
       style="fill:#000000;fill-opacity:1;stroke-width:2.51031;stroke-linecap:round;stroke-linejoin:round;paint-order:stroke fill markers"
       d="m 10.000136,499.39582 c 0.0234,-0.0379 11.866843,-32.4463 12.926202,-35.37131 l 0.186746,-0.51562 h 3.605945 3.605945 l 6.711568,17.89062 c 3.691363,9.83985 6.723724,17.92578 6.738581,17.96875 0.02141,0.0619 -0.737481,0.0781 -3.659153,0.0781 h -3.686165 l -0.489208,-1.35938 c -0.269065,-0.74765 -0.929797,-2.58281 -1.468293,-4.07812 l -0.979084,-2.71875 -6.751877,-0.0159 -6.751878,-0.0159 -0.246546,0.7034 c -0.135601,0.38688 -0.764353,2.22894 -1.397227,4.09348 l -1.15068,3.39008 -3.613064,5.7e-4 c -1.987185,3.1e-4 -3.5989998,-0.0222 -3.581812,-0.05 z m 21.273286,-14.24631 c -0.06618,-0.24194 -4.554705,-13.1027 -4.603217,-13.18939 -0.0363,-0.0649 -0.128512,0.13321 -0.302401,0.6496 -0.137597,0.4086 -1.153858,3.38994 -2.258359,6.62519 -1.104501,3.23525 -2.008183,5.91415 -2.008183,5.95312 0,0.0522 1.213664,0.0709 4.601039,0.0709 4.351674,0 4.599418,-0.006 4.571121,-0.10938 z"
       id="path884" />
    <path
       style="fill:#000000;fill-opacity:1;stroke-width:2.51031;stroke-linecap:round;stroke-linejoin:round;paint-order:stroke fill markers"
       d="m 47.163762,486.41514 v -13.03125 h 2.96875 2.96875 l 0.0028,1.85937 c 0.0025,1.67075 0.01234,1.8467 0.09699,1.73438 0.05181,-0.0688 0.312744,-0.4625 0.579848,-0.875 1.5254,-2.35573 2.714235,-3.17606 4.726632,-3.26149 0.89078,-0.0378 1.713481,0.0779 2.552892,0.35915 0.632781,0.212 1.785033,0.78319 1.833215,0.90875 0.02658,0.0693 -1.894679,5.96234 -1.943837,5.96234 -0.0088,0 -0.245717,-0.13803 -0.526399,-0.30672 -1.006604,-0.60499 -2.110878,-0.88325 -3.003027,-0.75672 -1.406564,0.19949 -2.252624,0.9117 -2.896711,2.43844 -0.782596,1.85506 -0.921493,3.72631 -0.922036,12.42187 l -3.47e-4,5.57813 h -3.21875 -3.21875 z"
       id="path886" />
    <path
       style="fill:#000000;fill-opacity:1;stroke-width:2.51031;stroke-linecap:round;stroke-linejoin:round;paint-order:stroke fill markers"
       d="m 74.476262,509.96652 c -1.999449,-0.14594 -4.053806,-0.63517 -5.288268,-1.25935 -1.375937,-0.69572 -2.612828,-1.93578 -3.299993,-3.30847 -0.468105,-0.93508 -0.723589,-2.13781 -0.723988,-3.40827 l -2.51e-4,-0.79971 0.203125,0.0341 c 0.309479,0.052 6.979427,0.90905 7.074517,0.90905 0.05307,0 0.1116,0.15049 0.161599,0.41548 0.104013,0.55124 0.442325,1.21749 0.735442,1.44832 0.676905,0.53307 1.288921,0.70061 2.715701,0.74342 2.819205,0.0846 4.411557,-0.55549 5.137681,-2.06517 0.307334,-0.63897 0.406551,-1.1983 0.4731,-2.66705 0.07009,-1.54687 0.07985,-4.75155 0.01446,-4.74608 -0.02578,0.002 -0.201385,0.21628 -0.39023,0.47584 -0.483428,0.66444 -1.242898,1.45879 -1.842032,1.92663 -1.667958,1.30244 -3.408022,1.85525 -5.533363,1.75794 -1.440895,-0.066 -2.516161,-0.34345 -3.6875,-0.95156 -0.855859,-0.44433 -1.390627,-0.84444 -2.158272,-1.61479 -2.690714,-2.70021 -3.942625,-6.66609 -3.712356,-11.76023 0.231542,-5.12231 1.881382,-8.62575 5.06162,-10.74837 1.473845,-0.9837 2.939775,-1.43938 4.840258,-1.50459 1.983908,-0.0681 3.55102,0.36877 5.106862,1.42354 0.668985,0.45353 1.857282,1.60814 2.365104,2.29806 l 0.340534,0.46264 0.01657,-1.82202 0.01657,-1.82201 h 3.034786 3.034787 l -0.02642,12.79687 c -0.02683,12.99509 -0.03359,13.38063 -0.267353,15.23438 -0.397144,3.1494 -1.613701,5.45673 -3.555827,6.74399 -1.442247,0.95594 -3.17737,1.51994 -5.409362,1.75831 -0.762153,0.0814 -3.569393,0.11244 -4.437501,0.0491 z m 2.761459,-16.17333 c 1.836888,-0.38931 3.374018,-1.90003 4.055682,-3.98601 0.382652,-1.17096 0.462116,-1.8238 0.462326,-3.79829 1.87e-4,-1.5609 -0.01673,-1.87467 -0.136537,-2.53645 -0.337871,-1.86619 -0.937,-3.09888 -1.974884,-4.06326 -1.056197,-0.9814 -2.12894,-1.37753 -3.574296,-1.31989 -0.862168,0.0344 -1.435806,0.18945 -2.135416,0.57724 -0.56712,0.31436 -1.537375,1.28237 -1.882279,1.87793 -0.501783,0.86646 -0.843729,1.9603 -1.024403,3.27693 -0.105725,0.77045 -0.105612,3.4585 1.88e-4,4.25 0.186343,1.39417 0.642526,2.79981 1.163149,3.58401 0.715383,1.07757 1.84251,1.898 2.933522,2.1353 0.510114,0.11095 1.595158,0.11223 2.112957,0.002 z"
       id="path888" />
    <path
       style="fill:#000000;fill-opacity:1;stroke-width:2.51031;stroke-linecap:round;stroke-linejoin:round;paint-order:stroke fill markers"
       d="m 102.49347,499.91313 c -1.90462,-0.25969 -3.364262,-0.77709 -4.724222,-1.67459 -2.819233,-1.86053 -4.518075,-5.0929 -4.984863,-9.48463 -0.138684,-1.3048 -0.09245,-3.95133 0.09064,-5.18799 0.480005,-3.24218 1.548101,-5.5945 3.440913,-7.57809 2.00291,-2.09897 4.555682,-3.16644 7.572242,-3.16644 3.94283,0 7.06194,1.56358 9.12349,4.57352 1.15539,1.68691 1.92882,4.00885 2.27921,6.84245 0.0928,0.75091 0.21334,2.81564 0.21551,3.69317 l 0.001,0.45289 -8.10938,0.0159 -8.109382,0.0159 0.0192,0.46875 c 0.12355,3.01615 1.674022,5.26904 4.043282,5.87499 0.59754,0.15283 1.68603,0.16772 2.26587,0.031 1.35953,-0.32055 2.41756,-1.44376 2.95814,-3.14038 0.0794,-0.24922 0.16745,-0.45312 0.19567,-0.45312 0.0822,0 6.32328,1.12834 6.34141,1.14647 0.04,0.04 -0.45279,1.25936 -0.76163,1.88478 -1.62051,3.28158 -4.31393,5.20726 -7.95576,5.68801 -0.87486,0.11548 -3.0463,0.11409 -3.90147,-0.003 z m 6.57618,-16.07612 c -5e-4,-0.47323 -0.15563,-1.48686 -0.31772,-2.07582 -0.39626,-1.43983 -1.35459,-2.64576 -2.58816,-3.25686 -1.87216,-0.92745 -4.23041,-0.34817 -5.52347,1.35679 -0.768962,1.0139 -1.254742,2.57425 -1.257272,4.03839 l -5.1e-4,0.29688 h 4.843752 4.84375 l -3.8e-4,-0.35938 z"
       id="path890" />
    <path
       style="fill:#000000;fill-opacity:1;stroke-width:2.51031;stroke-linecap:round;stroke-linejoin:round;paint-order:stroke fill markers"
       d="m 120.75752,486.41514 v -13.03125 h 2.96784 2.96785 l 0.0165,1.91609 0.0165,1.91609 0.48827,-0.60094 c 1.76983,-2.17822 3.92743,-3.42917 6.44406,-3.73619 0.83274,-0.10159 2.31635,-0.039 3.12809,0.13188 1.58185,0.33309 3.10347,1.12467 4.03761,2.10047 0.98625,1.03022 1.61659,2.36889 1.89415,4.0226 0.23496,1.39995 0.24251,1.71007 0.26971,11.07812 l 0.0268,9.23438 h -3.22248 -3.22247 l -8.4e-4,-7.07813 c -0.001,-8.89066 -0.0674,-10.56287 -0.46576,-11.74038 -0.33523,-0.99085 -0.98947,-1.75678 -1.85582,-2.17264 -2.53615,-1.21739 -5.89898,0.50397 -6.63714,3.3974 -0.36376,1.42586 -0.41482,2.73847 -0.41515,10.67187 l -2.9e-4,6.92188 h -3.21875 -3.21875 z"
       id="path892" />
    <path
       style="fill:#000000;fill-opacity:1;stroke-width:2.51031;stroke-linecap:round;stroke-linejoin:round;paint-order:stroke fill markers"
       d="m 154.66377,499.90761 c -1.26482,-0.22781 -2.39928,-0.77433 -3.16297,-1.52372 -0.99452,-0.97592 -1.42621,-2.37059 -1.555,-5.02383 -0.0336,-0.69158 -0.0615,-4.23164 -0.0622,-7.8668 l -0.001,-6.60937 h -1.5 -1.5 v -2.75 -2.75 h 1.5 1.5 v -2.58646 -2.58645 l 3.18361,-1.97605 c 1.75098,-1.08682 3.19942,-1.97604 3.21875,-1.97604 0.0193,0 0.0351,2.05312 0.0351,4.5625 v 4.5625 h 2.21875 2.21875 v 2.75 2.75 h -2.21875 -2.21875 l 0.003,5.76562 c 0.002,3.1711 0.0262,6.37533 0.0548,7.12052 0.0461,1.20309 0.0673,1.3866 0.18895,1.63788 0.15833,0.32708 0.47976,0.63027 0.84316,0.79533 0.52712,0.23941 1.59577,0.11849 2.78346,-0.31496 0.28794,-0.10509 0.53017,-0.18422 0.53827,-0.17586 0.0236,0.0243 0.52611,4.94172 0.52611,5.14784 0,0.17935 -0.0243,0.19552 -0.63377,0.42089 -0.76391,0.2825 -1.66799,0.50631 -2.55378,0.63219 -0.84518,0.12011 -2.72509,0.11695 -3.4062,-0.006 z"
       id="path894" />
    <path
       style="fill:#000000;fill-opacity:1;stroke-width:2.51031;stroke-linecap:round;stroke-linejoin:round;paint-order:stroke fill markers"
       d="m 165.28877,486.41514 v -13.03125 h 3.21875 3.21875 v 13.03125 13.03125 h -3.21875 -3.21875 z"
       id="path896" />
    <path
       style="fill:#000000;fill-opacity:1;stroke-width:2.51031;stroke-linecap:round;stroke-linejoin:round;paint-order:stroke fill markers"
       d="m 165.28877,466.66514 v -3.15625 h 3.21875 3.21875 v 3.15625 3.15625 h -3.21875 -3.21875 z"
       id="path898" />
    <path
       style="fill:#000000;fill-opacity:1;stroke-width:2.51031;stroke-linecap:round;stroke-linejoin:round;paint-order:stroke fill markers"
       d="m 178.35127,486.41514 v -13.03125 h 2.96875 2.96875 v 1.90625 c 0,1.04843 0.0211,1.90564 0.0469,1.9049 0.0258,-7.4e-4 0.15938,-0.16152 0.29688,-0.35727 0.33748,-0.48048 1.64946,-1.79661 2.17745,-2.18435 1.81873,-1.33561 3.70579,-1.90502 6.00488,-1.81193 1.40666,0.057 2.58359,0.34906 3.75517,0.93201 2.01599,1.00312 3.25204,2.73489 3.71447,5.20414 0.26479,1.41391 0.27009,1.61347 0.29744,11.20312 l 0.0264,9.26563 h -3.21758 -3.21758 l -0.0278,-8.07813 c -0.0287,-8.33474 -0.0458,-8.92676 -0.29409,-10.16173 -0.3133,-1.5583 -1.36995,-2.71287 -2.7884,-3.04681 -0.32229,-0.0759 -0.611,-0.0932 -1.14917,-0.0688 -0.82295,0.0372 -1.27547,0.14329 -1.93196,0.45294 -1.49561,0.70544 -2.52276,2.01746 -2.84156,3.62965 -0.3136,1.58587 -0.35101,2.69184 -0.35126,10.38229 l -2.2e-4,6.89063 h -3.21875 -3.21875 z"
       id="path902" />
    <path
       style="fill:#000000;fill-opacity:1;stroke-width:2.51031;stroke-linecap:round;stroke-linejoin:round;paint-order:stroke fill markers"
       d="m 211.88252,499.90993 c -1.6575,-0.2559 -3.11626,-0.95627 -4.18794,-2.01068 -1.08457,-1.06708 -1.73246,-2.28327 -2.07249,-3.89036 -0.15464,-0.73084 -0.15545,-2.49277 -0.002,-3.26312 0.33947,-1.69883 1.18076,-3.18189 2.34554,-4.13483 1.36628,-1.1178 3.02109,-1.72967 6.94765,-2.56892 2.68546,-0.57398 4.54772,-1.07584 5.48833,-1.47903 l 0.2799,-0.11998 -0.0376,-0.88894 c -0.056,-1.32345 -0.31428,-2.0732 -0.90034,-2.61341 -0.67746,-0.62446 -1.96709,-0.9191 -3.73197,-0.85263 -0.92707,0.0349 -1.43441,0.14813 -2.04273,0.45586 -0.68269,0.34535 -1.34981,1.17835 -1.75331,2.18928 -0.10855,0.27196 -0.21419,0.51441 -0.23476,0.53878 -0.0391,0.0464 -5.73063,-1.03034 -5.79694,-1.09665 -0.0771,-0.0771 0.49534,-1.66692 0.87211,-2.42216 0.50159,-1.00543 0.89029,-1.57658 1.53418,-2.25434 1.27417,-1.34116 2.76717,-2.06743 5.04188,-2.45263 1.99141,-0.33723 5.31453,-0.28071 7.30987,0.12432 1.90856,0.38741 3.65265,1.38755 4.63039,2.65528 0.69963,0.90714 0.991,1.74712 1.26156,3.63687 0.0987,0.68953 0.10987,1.42474 0.11308,7.4525 0.004,6.83045 0.0229,7.50195 0.25588,8.90625 0.12018,0.72444 0.4379,1.79878 0.80405,2.71875 0.15049,0.37812 0.29245,0.73672 0.31546,0.79687 0.0395,0.10328 -0.13459,0.10938 -3.12265,0.10938 h -3.16449 l -0.0683,-0.17188 c -0.0376,-0.0945 -0.21985,-0.69219 -0.40508,-1.32812 -0.18524,-0.63594 -0.3506,-1.19351 -0.36749,-1.23904 -0.0199,-0.0538 -0.22235,0.0924 -0.57774,0.41713 -1.75524,1.60397 -3.42463,2.45368 -5.48455,2.79162 -0.70824,0.11619 -2.47926,0.11283 -3.25,-0.006 z m 5.15625,-4.9585 c 1.75784,-0.59075 3.02622,-1.85274 3.39945,-3.38233 0.0548,-0.22469 0.12756,-0.745 0.16163,-1.15625 0.0639,-0.77118 0.0887,-3.46646 0.032,-3.46646 -0.0176,0 -0.3621,0.10028 -0.76562,0.22286 -0.40352,0.12257 -1.63661,0.4451 -2.74021,0.71673 -2.99097,0.73619 -3.7697,1.04367 -4.41007,1.74133 -0.70687,0.77013 -0.93959,1.68654 -0.70795,2.78783 0.13901,0.66089 0.42944,1.17872 0.96831,1.72649 0.79408,0.8072 1.49287,1.06922 2.75,1.03112 0.6063,-0.0184 0.81164,-0.053 1.3125,-0.22132 z"
       id="path904" />
    <path
       style="fill:#000000;fill-opacity:1;stroke-width:2.51031;stroke-linecap:round;stroke-linejoin:round;paint-order:stroke fill markers"
       d="m 249.14011,476.14951 c -0.0176,-0.0601 -0.30078,-1.59208 -0.62921,-3.40428 l -0.59713,-3.29491 v -2.97072 -2.97071 h 3.53125 3.53125 l 7.7e-4,2.92187 7.6e-4,2.92188 -0.54416,3.45312 -0.54417,3.45313 h -2.35864 c -2.19243,0 -2.36089,-0.008 -2.39071,-0.10938 z"
       id="path906" />
    <path
       style="fill:#000000;fill-opacity:1;stroke-width:2.51031;stroke-linecap:round;stroke-linejoin:round;paint-order:stroke fill markers"
       d="m 268.53877,500.00122 c -2.72234,-0.31329 -5.00919,-1.41042 -6.78678,-3.25597 -1.69794,-1.76287 -2.58982,-3.9094 -2.77412,-6.67667 -0.13828,-2.07617 0.18811,-3.91031 0.99781,-5.60715 0.49306,-1.03328 0.93418,-1.65474 1.74171,-2.45376 0.7629,-0.75487 1.4212,-1.23411 2.30575,-1.67859 0.2836,-0.1425 0.51563,-0.27099 0.51563,-0.28554 0,-0.0146 -0.27835,-0.17201 -0.61855,-0.34992 -1.45077,-0.75869 -2.54655,-1.83533 -3.20953,-3.15348 -0.95874,-1.90619 -1.17736,-4.24579 -0.60839,-6.5107 0.41237,-1.64155 1.20606,-2.99774 2.44585,-4.17927 0.66078,-0.62973 1.19445,-1.00405 2.025,-1.42036 1.5468,-0.77532 3.77923,-1.1829 5.93437,-1.08346 2.98369,0.13767 5.08473,0.93359 6.77254,2.56559 1.21746,1.17721 1.99965,2.50101 2.40228,4.0657 0.79729,3.09841 0.14184,6.1478 -1.7714,8.24119 -0.50001,0.54709 -1.46097,1.26708 -2.17216,1.62747 -0.17876,0.0906 -0.32501,0.17587 -0.32501,0.18954 0,0.0137 0.23797,0.14002 0.52882,0.2808 1.15763,0.56033 2.32327,1.47048 3.07385,2.40012 1.00186,1.24088 1.62817,2.64626 1.94064,4.35463 0.15126,0.827 0.14969,2.87928 -0.003,3.875 -0.37559,2.44976 -1.26702,4.34293 -2.81709,5.98277 -1.6523,1.74798 -3.58177,2.69394 -6.22325,3.05106 -0.71926,0.0973 -2.61027,0.10901 -3.375,0.021 z m 2.84375,-5.61844 c 0.68443,-0.21112 1.1967,-0.52835 1.75549,-1.08715 1.03032,-1.03031 1.48996,-2.28951 1.56477,-4.28674 0.0792,-2.11472 -0.37785,-3.50788 -1.53901,-4.69095 -0.60786,-0.61932 -1.13507,-0.94379 -1.90546,-1.17271 -0.67891,-0.20173 -1.82753,-0.2101 -2.55166,-0.0186 -1.01027,0.2672 -1.84974,0.9088 -2.41238,1.84376 -0.76939,1.27853 -1.06082,2.47968 -0.98464,4.0583 0.0936,1.93975 0.63486,3.28431 1.74468,4.33405 0.55676,0.52661 1.38861,0.97303 2.07821,1.11527 0.61168,0.12618 1.67856,0.081 2.25,-0.0953 z m -0.0312,-17.11838 c 1.12911,-0.3933 1.94954,-1.2299 2.33508,-2.38111 0.43736,-1.30597 0.34539,-2.99777 -0.22189,-4.08153 -0.12317,-0.23531 -0.40218,-0.58868 -0.71291,-0.90291 -0.79805,-0.80704 -1.56619,-1.10833 -2.80653,-1.10079 -1.25206,0.008 -2.09224,0.33395 -2.88092,1.11899 -0.79904,0.79536 -1.15033,1.76249 -1.15033,3.16697 0,1.03703 0.11564,1.61418 0.46819,2.3366 0.46561,0.95412 1.35005,1.67056 2.38188,1.92944 0.58404,0.14653 2.06122,0.0976 2.58743,-0.0857 z"
       id="path908" />
    <path
       style="fill:#000000;fill-opacity:1;stroke-width:2.51031;stroke-linecap:round;stroke-linejoin:round;paint-order:stroke fill markers"
       d="m 289.78877,499.14844 c 0,-0.46924 0.11856,-2.20526 0.22081,-3.2333 0.8495,-8.5405 4.43678,-17.96435 9.47796,-24.89881 0.23442,-0.32246 0.42623,-0.61074 0.42623,-0.64062 0,-0.0305 -3.22662,-0.0543 -7.34375,-0.0543 h -7.34375 v -3.1875 -3.1875 h 11.0625 11.0625 v 2.50604 2.50604 l -0.38216,0.41583 c -2.27205,2.47229 -5.07042,7.12394 -6.97041,11.58672 -2.19095,5.1462 -3.67061,11.38929 -3.95899,16.70412 -0.0336,0.61875 -0.0616,1.27265 -0.0622,1.45312 l -10e-4,0.32813 h -3.09375 -3.09375 z"
       id="path910" />
  </g>
</svg>
