<?xml version="1.0" encoding="utf-8"?>
<!-- Generator: Adobe Illustrator 16.0.0, SVG Export Plug-In . SVG Version: 6.00 Build 0)  -->
<!DOCTYPE svg PUBLIC "-//W3C//DTD SVG 1.1//EN" "http://www.w3.org/Graphics/SVG/1.1/DTD/svg11.dtd">
<svg version="1.1" id="logo" xmlns="http://www.w3.org/2000/svg" xmlns:xlink="http://www.w3.org/1999/xlink" x="0px" y="0px"
	 width="227.941px" height="221.405px" viewBox="0 0 227.941 221.405" enable-background="new 0 0 227.941 221.405"
	 xml:space="preserve">
<g>
	<defs>
		<path id="SVGID_1_" d="M49.093,65.284c0,36.062,29.219,65.287,65.286,65.287c36.059,0,65.286-29.225,65.286-65.287
			C179.665,29.224,150.438,0,114.379,0C78.313,0,49.093,29.224,49.093,65.284"/>
	</defs>
	<clipPath id="SVGID_2_">
		<use xlink:href="#SVGID_1_"  overflow="visible"/>
	</clipPath>
	
		<radialGradient id="SVGID_3_" cx="-115.2554" cy="428.2856" r="2.1644" gradientTransform="matrix(-22.4369 27.3699 -26.1961 -21.4747 8755.0254 12407.1582)" gradientUnits="userSpaceOnUse">
		<stop  offset="0" style="stop-color:#FFFFFF"/>
		<stop  offset="0.4483" style="stop-color:#FCFBFA"/>
		<stop  offset="0.6098" style="stop-color:#F3F1EF"/>
		<stop  offset="0.7249" style="stop-color:#E7E3E1"/>
		<stop  offset="0.8179" style="stop-color:#D7D0CE"/>
		<stop  offset="0.8976" style="stop-color:#C4BAB7"/>
		<stop  offset="0.967" style="stop-color:#AEA19E"/>
		<stop  offset="1" style="stop-color:#A29490"/>
	</radialGradient>
	<polygon clip-path="url(#SVGID_2_)" fill="url(#SVGID_3_)" points="101.571,-64.017 -14.926,78.093 127.184,194.589 
		243.681,52.479 	"/>
</g>
<g>
	<defs>
		<path id="SVGID_4_" d="M49.093,65.284c0,36.062,29.219,65.287,65.286,65.287c36.059,0,65.286-29.225,65.286-65.287
			C179.665,29.224,150.438,0,114.379,0C78.313,0,49.093,29.224,49.093,65.284"/>
	</defs>
	<clipPath id="SVGID_5_">
		<use xlink:href="#SVGID_4_"  overflow="visible"/>
	</clipPath>
	<g clip-path="url(#SVGID_5_)">
		<g>
			<defs>
				<rect id="SVGID_6_" x="-30.39" y="-79.235" width="289.554" height="289.564"/>
			</defs>
			<clipPath id="SVGID_7_">
				<use xlink:href="#SVGID_6_"  overflow="visible"/>
			</clipPath>
			<g clip-path="url(#SVGID_7_)">
				<defs>
					<polygon id="SVGID_8_" points="114.981,105.517 114.981,110.372 117.79,110.372 117.79,106.632 120.077,104.434 
						122.759,107.105 114.383,115.484 106.019,107.105 108.688,104.425 110.974,106.632 110.974,110.372 113.698,110.372 
						113.698,105.517 108.688,100.453 102.03,107.105 112.391,117.472 110.157,119.708 112.145,121.69 114.383,119.458 
						116.621,121.69 118.608,119.708 116.372,117.472 126.737,107.105 120.077,100.453 					"/>
				</defs>
				<clipPath id="SVGID_9_">
					<use xlink:href="#SVGID_8_"  overflow="visible"/>
				</clipPath>
				
					<radialGradient id="SVGID_10_" cx="-127.1997" cy="427.937" r="2.1648" gradientTransform="matrix(0 11.2855 -17.934 0 7789.1572 1534.4143)" gradientUnits="userSpaceOnUse">
					<stop  offset="0" style="stop-color:#F15B22"/>
					<stop  offset="0.5" style="stop-color:#ED1C24"/>
					<stop  offset="0.712" style="stop-color:#EA1C24"/>
					<stop  offset="0.7896" style="stop-color:#E31B23"/>
					<stop  offset="0.8451" style="stop-color:#D81A22"/>
					<stop  offset="0.89" style="stop-color:#CA191F"/>
					<stop  offset="0.9286" style="stop-color:#B8151B"/>
					<stop  offset="0.9628" style="stop-color:#A21014"/>
					<stop  offset="0.993" style="stop-color:#8A070A"/>
					<stop  offset="1" style="stop-color:#840506"/>
				</radialGradient>
				<rect x="102.03" y="100.453" clip-path="url(#SVGID_9_)" fill="url(#SVGID_10_)" width="24.707" height="21.237"/>
			</g>
			<g clip-path="url(#SVGID_7_)">
				<defs>
					<path id="SVGID_11_" d="M117.771,11.764l2.079,2.074l2.069-2.074l-2.069-2.079L117.771,11.764z M107.025,11.362l4.722,4.626
						l0.064,6.398l-5.076,5.137l2.076,1.983h9.215v-2.936h-6.189l8.012-8.012l1.154,1.156l-1.673,1.669l2.084,2.07l3.745-3.738
						l-5.311-5.3l-5.18,5.163l-0.057-4.776l-5.511-5.515L107.025,11.362z M111.642,8.985c0,1.183,0.962,2.15,2.145,2.15
						c1.197,0,2.154-0.967,2.154-2.15c0-1.189-0.957-2.15-2.154-2.15C112.604,6.835,111.642,7.796,111.642,8.985"/>
				</defs>
				<clipPath id="SVGID_12_">
					<use xlink:href="#SVGID_11_"  overflow="visible"/>
				</clipPath>
				
					<radialGradient id="SVGID_13_" cx="-97.9873" cy="419.8003" r="2.1648" gradientTransform="matrix(-0.0186 -13.5392 30.8157 -0.0424 -12823.6035 -1279.1414)" gradientUnits="userSpaceOnUse">
					<stop  offset="0" style="stop-color:#0072BC"/>
					<stop  offset="0.3" style="stop-color:#0061A8"/>
					<stop  offset="0.6599" style="stop-color:#0060A7"/>
					<stop  offset="0.7911" style="stop-color:#005DA2"/>
					<stop  offset="0.8849" style="stop-color:#00579A"/>
					<stop  offset="0.9602" style="stop-color:#114F90"/>
					<stop  offset="1" style="stop-color:#1F4888"/>
				</radialGradient>
				<polygon clip-path="url(#SVGID_12_)" fill="url(#SVGID_13_)" points="125.19,29.507 125.161,6.81 106.703,6.835 106.735,29.533 
									"/>
			</g>
			<g clip-path="url(#SVGID_7_)">
				<defs>
					<polygon id="SVGID_14_" points="33.678,10.697 50.278,43.283 86.398,37.568 92.123,1.444 59.531,-15.154 					"/>
				</defs>
				<clipPath id="SVGID_15_">
					<use xlink:href="#SVGID_14_"  overflow="visible"/>
				</clipPath>
				
					<radialGradient id="SVGID_16_" cx="-94.728" cy="425.9468" r="2.1655" gradientTransform="matrix(-8.3742 -8.3742 13.9294 -13.9294 -6639.9834 5177.375)" gradientUnits="userSpaceOnUse">
					<stop  offset="0" style="stop-color:#00BAF2"/>
					<stop  offset="0.5" style="stop-color:#00AEEF"/>
					<stop  offset="0.7298" style="stop-color:#00ACED"/>
					<stop  offset="0.8135" style="stop-color:#00A8E8"/>
					<stop  offset="0.8733" style="stop-color:#00A3E1"/>
					<stop  offset="0.9217" style="stop-color:#009BD8"/>
					<stop  offset="0.9628" style="stop-color:#0091CD"/>
					<stop  offset="0.9991" style="stop-color:#0084BF"/>
					<stop  offset="1" style="stop-color:#0084BF"/>
				</radialGradient>
				<polygon clip-path="url(#SVGID_15_)" fill="url(#SVGID_16_)" points="121.341,14.064 62.9,-44.375 4.46,14.064 62.9,72.504 				
					"/>
			</g>
			<g clip-path="url(#SVGID_7_)">
				<defs>
					<polygon id="SVGID_17_" points="142.367,93.536 136.636,129.656 169.226,146.258 195.087,120.402 178.485,87.816 					"/>
				</defs>
				<clipPath id="SVGID_18_">
					<use xlink:href="#SVGID_17_"  overflow="visible"/>
				</clipPath>
				
					<radialGradient id="SVGID_19_" cx="-127.3394" cy="419.8071" r="2.1656" gradientTransform="matrix(8.2145 8.5387 -14.2031 13.6637 7150.8657 -4555.3828)" gradientUnits="userSpaceOnUse">
					<stop  offset="0" style="stop-color:#F15B22"/>
					<stop  offset="0.5" style="stop-color:#ED1C24"/>
					<stop  offset="0.712" style="stop-color:#EA1C24"/>
					<stop  offset="0.7896" style="stop-color:#E31B23"/>
					<stop  offset="0.8451" style="stop-color:#D81A22"/>
					<stop  offset="0.89" style="stop-color:#CA191F"/>
					<stop  offset="0.9286" style="stop-color:#B8151B"/>
					<stop  offset="0.9628" style="stop-color:#A21014"/>
					<stop  offset="0.993" style="stop-color:#8A070A"/>
					<stop  offset="1" style="stop-color:#840506"/>
				</radialGradient>
				<polygon clip-path="url(#SVGID_18_)" fill="url(#SVGID_19_)" points="107.436,115.906 164.731,175.463 224.287,118.167 
					166.992,58.612 				"/>
			</g>
			<g clip-path="url(#SVGID_7_)">
				<defs>
					<polygon id="SVGID_20_" points="33.678,120.402 59.531,146.258 92.123,129.656 86.398,93.536 50.278,87.816 					"/>
				</defs>
				<clipPath id="SVGID_21_">
					<use xlink:href="#SVGID_20_"  overflow="visible"/>
				</clipPath>
				
					<radialGradient id="SVGID_22_" cx="-116.2349" cy="432.3188" r="2.1651" gradientTransform="matrix(-8.3778 8.3778 -14.2849 -14.2849 5288.2427 7242.5776)" gradientUnits="userSpaceOnUse">
					<stop  offset="0" style="stop-color:#FFDE00"/>
					<stop  offset="0.5" style="stop-color:#FDB913"/>
					<stop  offset="0.7704" style="stop-color:#FAB613"/>
					<stop  offset="0.8689" style="stop-color:#F2AC15"/>
					<stop  offset="0.9391" style="stop-color:#E89E17"/>
					<stop  offset="0.9958" style="stop-color:#D98B18"/>
					<stop  offset="1" style="stop-color:#D88917"/>
				</radialGradient>
				<polygon clip-path="url(#SVGID_21_)" fill="url(#SVGID_22_)" points="62.9,58.594 4.456,117.037 62.9,175.479 121.345,117.037 
									"/>
			</g>
			<g clip-path="url(#SVGID_7_)">
				<defs>
					<polygon id="SVGID_23_" points="136.636,1.444 142.367,37.568 178.485,43.283 195.087,10.697 169.226,-15.154 					"/>
				</defs>
				<clipPath id="SVGID_24_">
					<use xlink:href="#SVGID_23_"  overflow="visible"/>
				</clipPath>
				
					<radialGradient id="SVGID_25_" cx="-105.7017" cy="413.2856" r="2.1655" gradientTransform="matrix(8.3783 -8.3783 14.2856 14.2856 -4875.582 -6751.9448)" gradientUnits="userSpaceOnUse">
					<stop  offset="0" style="stop-color:#99CA3C"/>
					<stop  offset="0.5" style="stop-color:#77B643"/>
					<stop  offset="0.7341" style="stop-color:#75B342"/>
					<stop  offset="0.8206" style="stop-color:#6FAE41"/>
					<stop  offset="0.8825" style="stop-color:#66A73F"/>
					<stop  offset="0.9328" style="stop-color:#599C3C"/>
					<stop  offset="0.9754" style="stop-color:#498F38"/>
					<stop  offset="1" style="stop-color:#3D8534"/>
				</radialGradient>
				<polygon clip-path="url(#SVGID_24_)" fill="url(#SVGID_25_)" points="165.861,72.508 224.305,14.064 165.861,-44.38 
					107.419,14.064 				"/>
			</g>
			<g clip-path="url(#SVGID_7_)">
				<defs>
					<rect id="SVGID_26_" x="-6.276" y="-55.11" width="241.306" height="241.318"/>
				</defs>
				<clipPath id="SVGID_27_">
					<use xlink:href="#SVGID_26_"  overflow="visible"/>
				</clipPath>
				<polygon clip-path="url(#SVGID_27_)" fill="#FFFFFF" points="49.643,-29.725 88.111,-10.125 81.354,32.516 38.72,39.278 
					19.116,0.806 				"/>
				<polygon clip-path="url(#SVGID_27_)" fill="#FFFFFF" points="179.125,160.823 140.65,141.216 147.408,98.585 190.05,91.834 
					209.648,130.294 				"/>
				<polygon clip-path="url(#SVGID_27_)" fill="#FFFFFF" points="49.643,160.823 88.111,141.216 81.354,98.585 38.72,91.834 
					19.116,130.294 				"/>
				<polygon clip-path="url(#SVGID_27_)" fill="#FFFFFF" points="179.125,-29.725 140.65,-10.125 147.408,32.516 190.05,39.278 
					209.648,0.806 				"/>
			</g>
			<g clip-path="url(#SVGID_7_)">
				<defs>
					<polygon id="SVGID_28_" points="8.096,-6.695 29.96,36.226 77.536,28.687 85.067,-18.881 42.15,-40.747 					"/>
				</defs>
				<clipPath id="SVGID_29_">
					<use xlink:href="#SVGID_28_"  overflow="visible"/>
				</clipPath>
				
					<radialGradient id="SVGID_30_" cx="-76.5576" cy="427.3169" r="2.1656" gradientTransform="matrix(-4.3093 -4.3093 9.8079 -9.8079 -4443.4639 3889.856)" gradientUnits="userSpaceOnUse">
					<stop  offset="0" style="stop-color:#0072BC"/>
					<stop  offset="0.3" style="stop-color:#0061A8"/>
					<stop  offset="0.6599" style="stop-color:#0060A7"/>
					<stop  offset="0.7911" style="stop-color:#005DA2"/>
					<stop  offset="0.8849" style="stop-color:#00579A"/>
					<stop  offset="0.9602" style="stop-color:#114F90"/>
					<stop  offset="1" style="stop-color:#1F4888"/>
				</radialGradient>
				<polygon clip-path="url(#SVGID_29_)" fill="url(#SVGID_30_)" points="123.555,-2.261 46.582,-79.233 -30.39,-2.261 
					46.582,74.711 				"/>
			</g>
			<g clip-path="url(#SVGID_7_)">
				<defs>
					<polygon id="SVGID_31_" points="151.234,102.404 143.694,149.973 186.623,171.842 220.672,137.789 198.805,94.873 					"/>
				</defs>
				<clipPath id="SVGID_32_">
					<use xlink:href="#SVGID_31_"  overflow="visible"/>
				</clipPath>
				
					<radialGradient id="SVGID_33_" cx="-140.0127" cy="418.564" r="2.1655" gradientTransform="matrix(4.2252 4.3919 -9.9962 9.6166 4926.7134 -3307.9463)" gradientUnits="userSpaceOnUse">
					<stop  offset="0" style="stop-color:#B11117"/>
					<stop  offset="0.3" style="stop-color:#9E0B0F"/>
					<stop  offset="0.6327" style="stop-color:#9C0A0E"/>
					<stop  offset="0.7525" style="stop-color:#96080C"/>
					<stop  offset="0.8379" style="stop-color:#8C0507"/>
					<stop  offset="0.907" style="stop-color:#7F0001"/>
					<stop  offset="0.9654" style="stop-color:#6F0000"/>
					<stop  offset="1" style="stop-color:#620000"/>
				</radialGradient>
				<polygon clip-path="url(#SVGID_32_)" fill="url(#SVGID_33_)" points="105.238,131.869 180.695,210.302 259.129,134.846 
					183.671,56.412 				"/>
			</g>
			<g clip-path="url(#SVGID_7_)">
				<defs>
					<polygon id="SVGID_34_" points="8.096,137.789 42.15,171.842 85.067,149.973 77.536,102.404 29.96,94.873 					"/>
				</defs>
				<clipPath id="SVGID_35_">
					<use xlink:href="#SVGID_34_"  overflow="visible"/>
				</clipPath>
				
					<radialGradient id="SVGID_36_" cx="-118.4434" cy="436.3101" r="2.1657" gradientTransform="matrix(-4.3515 4.3515 -10.0961 -10.0961 3967.0698 5022.5938)" gradientUnits="userSpaceOnUse">
					<stop  offset="0" style="stop-color:#F68C1F"/>
					<stop  offset="0.3" style="stop-color:#F47920"/>
					<stop  offset="0.6306" style="stop-color:#F17720"/>
					<stop  offset="0.7511" style="stop-color:#EA721F"/>
					<stop  offset="0.8372" style="stop-color:#E0691E"/>
					<stop  offset="0.9069" style="stop-color:#D35D1C"/>
					<stop  offset="0.966" style="stop-color:#C14E19"/>
					<stop  offset="1" style="stop-color:#B44315"/>
				</radialGradient>
				<polygon clip-path="url(#SVGID_35_)" fill="url(#SVGID_36_)" points="46.582,56.387 -30.39,133.357 46.582,210.329 
					123.553,133.357 				"/>
			</g>
			<g clip-path="url(#SVGID_7_)">
				<defs>
					<polygon id="SVGID_37_" points="143.694,-18.881 151.234,28.687 198.805,36.226 220.672,-6.695 186.623,-40.747 					"/>
				</defs>
				<clipPath id="SVGID_38_">
					<use xlink:href="#SVGID_37_"  overflow="visible"/>
				</clipPath>
				
					<radialGradient id="SVGID_39_" cx="-98.0903" cy="409.3315" r="2.1656" gradientTransform="matrix(4.3524 -4.3524 10.0983 10.0983 -3555.269 -4531.7437)" gradientUnits="userSpaceOnUse">
					<stop  offset="0" style="stop-color:#388546"/>
					<stop  offset="0.3" style="stop-color:#007447"/>
					<stop  offset="0.6315" style="stop-color:#007346"/>
					<stop  offset="0.7516" style="stop-color:#006F43"/>
					<stop  offset="0.8373" style="stop-color:#006940"/>
					<stop  offset="0.9067" style="stop-color:#00623B"/>
					<stop  offset="0.9655" style="stop-color:#005835"/>
					<stop  offset="1" style="stop-color:#005030"/>
				</radialGradient>
				<polygon clip-path="url(#SVGID_38_)" fill="url(#SVGID_39_)" points="182.183,74.714 259.159,-2.261 182.183,-79.236 
					105.209,-2.261 				"/>
			</g>
			<g clip-path="url(#SVGID_7_)">
				<defs>
					<rect id="SVGID_40_" x="-6.276" y="-55.11" width="241.306" height="241.318"/>
				</defs>
				<clipPath id="SVGID_41_">
					<use xlink:href="#SVGID_40_"  overflow="visible"/>
				</clipPath>
				<polygon clip-path="url(#SVGID_41_)" fill="#FFFFFF" points="32.388,-55.111 81.104,-30.292 72.559,23.708 18.55,32.26 
					-6.276,-16.45 				"/>
				<polygon clip-path="url(#SVGID_41_)" fill="#FFFFFF" points="196.374,186.208 147.657,161.389 156.208,107.378 210.208,98.837 
					235.032,147.551 				"/>
				<polygon clip-path="url(#SVGID_41_)" fill="#FFFFFF" points="32.388,186.208 81.104,161.394 72.559,107.378 18.55,98.837 
					-6.276,147.551 				"/>
				<polygon clip-path="url(#SVGID_41_)" fill="#FFFFFF" points="196.374,-55.111 147.657,-30.292 156.208,23.708 210.208,32.26 
					235.032,-16.45 				"/>
			</g>
			<g clip-path="url(#SVGID_7_)">
				<defs>
					<path id="SVGID_42_" d="M65.588,74.244c0,1.178,0.954,2.144,2.145,2.144c1.178,0,2.134-0.966,2.134-2.144
						c0-1.188-0.956-2.143-2.134-2.143C66.542,72.102,65.588,73.057,65.588,74.244 M55.02,61.865l3.733,3.721l1.894-1.917
						l-1.645-1.652l1.117-1.124l2.753,2.752l-8.288,8.338l2.07,2.061l6.446-6.492l-1.614,6.917h2.935l2.433-10.984l-6.736-6.726
						L55.02,61.865z M68.597,63.485l2.437,10.984h2.939l-1.609-6.917l6.439,6.492l2.068-2.061l-8.288-8.338l2.758-2.752l1.114,1.124
						l-1.647,1.652l1.896,1.917l3.727-3.721l-5.09-5.105L68.597,63.485z M60.995,55.882l2.066,2.068l2.062-2.068l-2.062-2.064
						L60.995,55.882z M70.342,55.882l2.056,2.068l2.068-2.068l-2.068-2.064L70.342,55.882z"/>
				</defs>
				<clipPath id="SVGID_43_">
					<use xlink:href="#SVGID_42_"  overflow="visible"/>
				</clipPath>
				
					<radialGradient id="SVGID_44_" cx="-105.3525" cy="430.728" r="2.1646" gradientTransform="matrix(-14.8457 0 0 -22.6915 -1482.7058 9839.3555)" gradientUnits="userSpaceOnUse">
					<stop  offset="0" style="stop-color:#F68C1F"/>
					<stop  offset="0.3" style="stop-color:#F47920"/>
					<stop  offset="0.6306" style="stop-color:#F17720"/>
					<stop  offset="0.7511" style="stop-color:#EA721F"/>
					<stop  offset="0.8372" style="stop-color:#E0691E"/>
					<stop  offset="0.9069" style="stop-color:#D35D1C"/>
					<stop  offset="0.966" style="stop-color:#C14E19"/>
					<stop  offset="1" style="stop-color:#B44315"/>
				</radialGradient>
				<rect x="54.585" y="53.818" clip-path="url(#SVGID_43_)" fill="url(#SVGID_44_)" width="26.287" height="22.57"/>
			</g>
			<g clip-path="url(#SVGID_7_)">
				<defs>
					<polygon id="SVGID_45_" points="92.81,65.293 92.812,65.293 74.209,83.889 92.825,86.843 103.598,76.069 103.593,76.069 
						135.919,43.742 132.974,25.123 					"/>
				</defs>
				<clipPath id="SVGID_46_">
					<use xlink:href="#SVGID_45_"  overflow="visible"/>
				</clipPath>
				
					<linearGradient id="SVGID_47_" gradientUnits="userSpaceOnUse" x1="-111.7329" y1="417.5845" x2="-109.5664" y2="417.5845" gradientTransform="matrix(27.1382 -27.1382 27.1382 27.1382 -8224.5527 -14279.375)">
					<stop  offset="0" style="stop-color:#00BAF2"/>
					<stop  offset="0.1104" style="stop-color:#00AEEF"/>
					<stop  offset="0.4233" style="stop-color:#32327B"/>
					<stop  offset="0.6135" style="stop-color:#830406"/>
					<stop  offset="0.8834" style="stop-color:#ED1C24"/>
					<stop  offset="1" style="stop-color:#F15B22"/>
				</linearGradient>
				<polygon clip-path="url(#SVGID_46_)" fill="url(#SVGID_47_)" points="105.064,117.698 166.781,55.982 105.064,-5.732 
					43.352,55.982 				"/>
			</g>
			<g clip-path="url(#SVGID_7_)">
				<defs>
					<polygon id="SVGID_48_" points="103.602,76.075 103.598,76.069 92.825,86.843 95.769,105.442 114.365,86.851 114.379,86.851 
						154.542,46.681 135.933,43.742 					"/>
				</defs>
				<clipPath id="SVGID_49_">
					<use xlink:href="#SVGID_48_"  overflow="visible"/>
				</clipPath>
				
					<linearGradient id="SVGID_50_" gradientUnits="userSpaceOnUse" x1="-111.7192" y1="417.9438" x2="-109.5539" y2="417.9438" gradientTransform="matrix(27.0322 -27.0322 27.0322 27.0322 -8183.5352 -14214.0625)">
					<stop  offset="0" style="stop-color:#00AEEF"/>
					<stop  offset="0.3865" style="stop-color:#32327B"/>
					<stop  offset="0.6933" style="stop-color:#830406"/>
					<stop  offset="1" style="stop-color:#D81921"/>
				</linearGradient>
				<polygon clip-path="url(#SVGID_49_)" fill="url(#SVGID_50_)" points="123.683,136.301 185.393,74.593 123.683,12.883 
					61.974,74.593 				"/>
			</g>
			<g clip-path="url(#SVGID_7_)">
				<defs>
					<polygon id="SVGID_51_" points="74.209,46.674 92.812,65.276 92.81,65.284 132.974,105.442 135.919,86.843 103.593,54.509 
						103.598,54.509 92.825,43.726 					"/>
				</defs>
				<clipPath id="SVGID_52_">
					<use xlink:href="#SVGID_51_"  overflow="visible"/>
				</clipPath>
				
					<linearGradient id="SVGID_53_" gradientUnits="userSpaceOnUse" x1="-118.3921" y1="421.3413" x2="-116.227" y2="421.3413" gradientTransform="matrix(27.1513 27.1513 -27.1513 27.1513 14730.2207 -8180.1709)">
					<stop  offset="0" style="stop-color:#00BAF2"/>
					<stop  offset="0.1104" style="stop-color:#00AEEF"/>
					<stop  offset="0.4233" style="stop-color:#32327B"/>
					<stop  offset="0.6135" style="stop-color:#830406"/>
					<stop  offset="0.8528" style="stop-color:#ED1C24"/>
					<stop  offset="1" style="stop-color:#F15B22"/>
				</linearGradient>
				<polygon clip-path="url(#SVGID_52_)" fill="url(#SVGID_53_)" points="43.354,74.584 105.064,136.297 166.779,74.584 
					105.064,12.873 				"/>
			</g>
			<g clip-path="url(#SVGID_7_)">
				<defs>
					<polygon id="SVGID_54_" points="92.825,43.726 103.598,54.509 103.602,54.504 135.933,86.83 154.542,83.882 114.379,43.718 
						114.365,43.723 95.769,25.123 					"/>
				</defs>
				<clipPath id="SVGID_55_">
					<use xlink:href="#SVGID_54_"  overflow="visible"/>
				</clipPath>
				
					<linearGradient id="SVGID_56_" gradientUnits="userSpaceOnUse" x1="-118.3921" y1="420.9761" x2="-116.2271" y2="420.9761" gradientTransform="matrix(27.1388 27.1388 -27.1388 27.1388 14732.0273 -8185.2109)">
					<stop  offset="0" style="stop-color:#00AEEF"/>
					<stop  offset="0.3865" style="stop-color:#32327B"/>
					<stop  offset="0.6864" style="stop-color:#830406"/>
					<stop  offset="1" style="stop-color:#D81921"/>
				</linearGradient>
				<polygon clip-path="url(#SVGID_55_)" fill="url(#SVGID_56_)" points="61.972,55.976 123.683,117.689 185.398,55.976 
					123.683,-5.736 				"/>
			</g>
			<g clip-path="url(#SVGID_7_)">
				<defs>
					<rect id="SVGID_57_" x="-6.276" y="-55.11" width="241.306" height="241.318"/>
				</defs>
				<clipPath id="SVGID_58_">
					<use xlink:href="#SVGID_57_"  overflow="visible"/>
				</clipPath>
				<polygon clip-path="url(#SVGID_58_)" fill="#A72C31" points="114.365,86.83 125.15,76.048 114.365,65.272 103.591,76.048 				
					"/>
				<g opacity="0.15" clip-path="url(#SVGID_58_)">
					<g>
						<defs>
							<rect id="SVGID_59_" x="92.812" y="54.502" width="21.553" height="21.547"/>
						</defs>
						<clipPath id="SVGID_60_">
							<use xlink:href="#SVGID_59_"  overflow="visible"/>
						</clipPath>
						<g clip-path="url(#SVGID_60_)">
							<defs>
								<rect id="SVGID_61_" x="92.812" y="54.506" width="21.553" height="21.543"/>
							</defs>
							<clipPath id="SVGID_62_">
								<use xlink:href="#SVGID_61_"  overflow="visible"/>
							</clipPath>
							<polygon clip-path="url(#SVGID_62_)" fill="#EE2424" points="103.593,76.049 114.368,65.271 103.593,54.504 92.812,65.271 
															"/>
						</g>
					</g>
				</g>
				<polygon clip-path="url(#SVGID_58_)" fill="#20468A" points="114.365,65.272 125.15,54.502 114.365,43.72 103.591,54.502 				
					"/>
				<g opacity="0.3" clip-path="url(#SVGID_58_)">
					<g>
						<defs>
							<rect id="SVGID_63_" x="114.365" y="54.502" width="21.554" height="21.547"/>
						</defs>
						<clipPath id="SVGID_64_">
							<use xlink:href="#SVGID_63_"  overflow="visible"/>
						</clipPath>
						<g clip-path="url(#SVGID_64_)">
							<defs>
								<rect id="SVGID_65_" x="114.365" y="54.506" width="21.554" height="21.543"/>
							</defs>
							<clipPath id="SVGID_66_">
								<use xlink:href="#SVGID_65_"  overflow="visible"/>
							</clipPath>
							<polygon clip-path="url(#SVGID_66_)" fill="#2E3192" points="125.15,76.049 135.922,65.271 125.15,54.504 114.365,65.271 
															"/>
						</g>
					</g>
				</g>
				<polygon clip-path="url(#SVGID_58_)" fill="#FFFFFF" points="114.376,49.687 117.896,60.513 129.26,60.513 120.068,67.191 
					123.578,78.008 114.376,71.33 105.169,78.008 108.691,67.191 99.483,60.513 110.859,60.513 				"/>
			</g>
			<g clip-path="url(#SVGID_7_)">
				<defs>
					<path id="SVGID_67_" d="M166.042,55.694v4.775h-11.09v-4.775h-2.778v7.546h6.933v2.778h-4.154l-1.867,8.816l3.175-0.009
						l1.184-6.04h6.1l1.176,6.04h3.181l-1.857-8.808h-4.157V63.24h6.927v-7.546H166.042z M158.022,57.374l2.472,2.478l2.475-2.476
						l-2.475-2.467L158.022,57.374z"/>
				</defs>
				<clipPath id="SVGID_68_">
					<use xlink:href="#SVGID_67_"  overflow="visible"/>
				</clipPath>
				
					<radialGradient id="SVGID_69_" cx="-119.9443" cy="412.2651" r="2.1651" gradientTransform="matrix(10.0783 0 0 17.1843 1360.7634 -7020.4961)" gradientUnits="userSpaceOnUse">
					<stop  offset="0" style="stop-color:#99CA3C"/>
					<stop  offset="0.5" style="stop-color:#77B643"/>
					<stop  offset="0.7355" style="stop-color:#75B342"/>
					<stop  offset="0.8216" style="stop-color:#6FAE41"/>
					<stop  offset="0.8832" style="stop-color:#66A73F"/>
					<stop  offset="0.9331" style="stop-color:#5A9C3C"/>
					<stop  offset="0.9754" style="stop-color:#498F38"/>
					<stop  offset="1" style="stop-color:#3D8534"/>
				</radialGradient>
				<rect x="152.174" y="54.909" clip-path="url(#SVGID_68_)" fill="url(#SVGID_69_)" width="16.638" height="19.926"/>
			</g>
		</g>
	</g>
</g>
<path fill="#003375" d="M203.955,221.405c-7.526,0-15.071-1.58-22.425-4.697l2.062-3.908c4.835,1.985,9.42,2.912,14.804,3.028h0.811
	c8.26,0,14.033-2.641,17.656-8.085c2.002-3.002,3.154-8.03,1.372-11.434c-1.176-2.253-3.716-3.445-7.334-3.445l-0.227,0.004
	c-1.641,0.025-2.849,0.167-4.513,0.549l-3.711-3.88c0.181-6.635,0.636-12.265,1.356-16.751c0.927,0.054,1.89,0.078,2.858,0.078
	c4.509,0,9.328-0.593,13.961-1.703l2.32,8.54c-4.551-0.125-10.863-0.696-14.579-1.582l-0.39-0.086l-0.057,0.395
	c-0.273,2.05-0.432,4.475-0.611,7.291l-0.182,2.837l0.524-0.209c2.212-0.859,4.408-1.284,6.727-1.313h0.29
	c4.312,0,7.631,1.229,9.878,3.671c2.573,2.79,3.792,6.445,3.521,10.573c-0.394,6.035-2.914,11.003-7.295,14.391
	c-4.493,3.463-10.675,5.664-16.129,5.733L203.955,221.405z M37.47,221.264c-0.201-3.012-0.584-8.774-1.083-13.66l-0.087-0.829
	l-0.549,0.63c-2.82,3.183-5.419,5.875-10.944,9.028c-3.094,1.762-6.673,2.796-9.819,2.832h-0.206
	c-8.077,0-14.127-5.928-14.714-14.428c-0.488-6.982,1.679-13.506,5.794-17.435c3.5-3.344,7.354-5.002,11.779-5.057l0.163-0.006
	c3.754,0,7.13,1.776,9.282,4.869c1.737,2.495,2.054,7.353,0.785,11.654l-8.373-1.677c2.15-2.333,3.477-5.386,3.132-7.329
	c-0.305-1.664-2.208-2.964-4.334-2.964c-1.784,0.025-3.447,0.704-5.299,2.149c-4.627,3.605-6.469,9.759-5.052,16.877
	c0.877,4.488,3.948,7.273,8.015,7.273c1.722-0.024,3.523-0.4,5.612-1.15c5.797-2.079,10.006-5.111,14.064-10.155l0.09-0.114
	l-0.161-1.609c-0.2-2.178-0.455-4.245-0.685-6.211c-0.562-4.715-1.041-8.787-0.875-12.664c0.265-6.42,2.124-10.744,5.52-12.834
	c1.294-0.799,2.982-1.245,4.756-1.245c1.643,0,3.226,0.387,4.441,1.086c3.689,2.14,4.33,6.264,4.439,7.479
	c0.979,10.757-4.912,17.747-12.382,26.602l-1.271,1.518l0.017,0.161c0.034,0.235,0.079,0.763,0.117,1.265l0.177,1.97l0.573-1.046
	c1.99-3.642,5.634-5.641,8.068-5.666l0.176-0.004c3.526,0,5.753,1.433,7.932,5.12c0.761,1.278,2.077,3.312,2.868,4.363
	c0.37,0.495,1.58,1.804,2.669,1.804c1.273-0.018,1.935-1.732,2.371-3.223c0.611-2.083,1.017-4.255,1.347-7.226l5.45-0.11
	c0.221,5.652,2.451,10.772,4.855,11.039c0.136,0.022,0.269,0.026,0.402,0.026c2.44,0,5.329-2.433,7.925-6.688l0.1-0.162
	l-0.081-0.174c-3.743-8.232-6.253-21.962-4.009-28.006c1.465-3.944,3.381-5.666,6.824-6.143c0.337-0.038,0.665-0.06,0.987-0.06
	c2.299,0,4.656,1.102,6.308,2.944c2.622,2.925,4.13,8.707,3.677,14.063c-0.507,6.021-3.443,13.138-8.055,19.52l-0.127,0.173
	l0.093,0.199c1.821,3.779,5.255,4.574,7.813,4.574h0.152c2.921-0.04,6.396-1.112,9.53-2.967l0.378-0.224l-0.287-0.331
	c-3.503-3.965-5.285-11.119-3.995-15.945c0.978-3.576,4.272-7.215,8.694-7.274h0.009c0.657,0,1.439,0.067,2,0.157
	c5.719,0.994,8.688,5.507,7.938,12.064c-0.595,5.145-4.708,10.799-6.78,12.68l-0.361,0.335l0.421,0.242
	c1.232,0.743,2.897,1.166,4.578,1.166c3.694-0.045,5.706-1.506,8.44-4.553l4.381,6.553c-3.294,2.724-6.407,3.94-10.063,3.94
	c-0.924,0-1.907-0.08-2.923-0.235c-3.016-0.458-5.564-1.812-8.031-4.254l-0.226-0.226l-0.252,0.2
	c-4.811,3.871-7.389,5.238-12.276,5.238c-0.454,0-0.926,0-1.419-0.031c-4.797-0.207-8.036-2.525-10.517-7.511l-0.257-0.517
	l-0.358,0.453c-3.857,5.063-6.405,6.684-10.475,6.684c-0.175,0-0.349,0-0.531-0.009c-4.099-0.142-6.873-4.302-7.448-6.487
	l-0.705,0.021c-0.509,2.83-3.298,5.528-6.094,5.906c-0.304,0.04-0.609,0.058-0.926,0.058c-1.207,0-2.428-0.307-3.537-0.893
	c-2.801-1.482-4.252-3.889-5.85-6.892c-1.14-2.132-2.08-3.01-3.231-3.01c-0.313,0-0.643,0.062-1.049,0.19
	c-1.935,0.64-3.092,3.788-3.936,6.089c-0.852,2.343-1.63,5.048-2.298,8.032L37.47,221.264z M111.604,191.625
	c-0.198,0-0.405,0.013-0.623,0.049c-3.075,0.392-3.848,3.356-4.012,4.253c-0.517,3.002,1.723,9.063,3.705,11.221l0.222,0.249
	l0.265-0.196c3.221-2.363,4.963-6.611,4.666-11.352c-0.13-2.106-1.464-4.224-4.156-4.224H111.604z M87.283,176.169
	c-1.378,0.013-2.472,1.621-2.904,3.107c-1.346,4.648,0.318,15.482,2.64,21.696l0.263,0.683l0.393-0.622
	c3.272-5.229,3.976-10.929,3.986-14.782c0.021-5.726-1.594-8.199-2.552-9.16c-0.597-0.6-1.233-0.922-1.8-0.922H87.283z
	 M43.439,173.501c-0.688,0-1.341,0.239-1.89,0.696c-1.632,1.381-2.554,3.494-2.978,6.837c-0.58,4.455-0.523,6.714,0.37,16.107
	l0.085,0.932l0.567-0.748c5.37-7.121,7.926-15.381,6.664-21.556C45.993,174.455,44.807,173.501,43.439,173.501 M161.473,218.065
	c-4.004,0-8.341-2.814-11.32-7.348l-0.233-0.352l-0.314,0.281c-2.568,2.259-4.926,3.365-7.871,3.671l-0.453,0.036l-0.234,0.004
	c-3.422,0-6.537-2.642-7.105-6.008c-0.594-3.578,1.478-8.14,5.857-9.271c0.694-0.182,1.346-0.267,1.978-0.267
	c2.442,0,4.701,1.328,7.336,4.289l0.3,0.342l0.265-0.372c3.414-4.85,5.952-15.458,2.456-20.174
	c-1.183-1.596-3.263-2.592-5.432-2.592c-0.977,0-1.922,0.212-2.729,0.598c-2.231,1.067-3.635,3.909-3.798,7.665l-8.464-2.451
	c1.374-3.969,4.215-8.932,10.039-10.811c1.311-0.423,2.7-0.633,4.143-0.633c4.6,0,8.878,2.18,11.181,5.69
	c4.725,7.211,3.067,17.677-4.227,26.649l-0.205,0.25l0.219,0.235c2.774,2.895,5.345,4.276,8.077,4.343
	c0.137,0.004,0.287,0.009,0.428,0.009c2.799,0,4.715-0.945,6.539-3.248l4.627,1.804c-1.686,5.409-6.62,7.513-10.729,7.655
	L161.473,218.065z M141.757,202.721c-0.132,0-0.279,0.012-0.422,0.025c-1.566,0.161-3.265,1.364-3.28,3.02
	c-0.029,1.715,0.961,2.83,2.581,2.928c0.121,0.003,0.239,0.007,0.37,0.007c2.009,0,4.291-0.92,5.8-2.33l0.244-0.218l-0.199-0.266
	C145.329,203.839,143.517,202.721,141.757,202.721 M195.926,210.394c-3.142-0.226-6.166-1.275-8.856-2.212
	c-0.317-0.114-0.638-0.226-0.944-0.327c4.03-8.065,5.999-20.347,7.267-30.198l-0.663-0.245c-1.516,2.331-3.143,3.925-4.857,5.625
	c-0.374,0.372-0.75,0.737-1.131,1.131l-5.921-3.989c4.663-3,7.739-5.277,11.941-9.533c0.751,0.228,3.28,0.962,5.384,1.303
	C196.559,182.599,195.066,198.833,195.926,210.394 M173.365,206.229c-2.587,0-5.129-1.15-6.971-3.145
	c-1.722-1.838-2.678-4.271-2.7-6.837c-0.054-4.952,2.076-9.552,5.433-11.737c1.333-0.86,2.891-1.328,4.509-1.345h0.006
	c2.478,0,4.875,0.949,6.713,2.601c2.499,2.442,3.732,5.983,3.373,9.695c-0.383,3.956-2.484,7.469-5.625,9.4
	c-1.435,0.889-2.984,1.341-4.623,1.368H173.365z M172.785,189.622c-1.087,0.018-2.233,0.595-3.056,1.536
	c-1.083,1.231-1.713,2.984-1.613,4.481c0.144,2.068,1.968,4.381,4.356,4.381c0.287,0,0.56-0.036,0.837-0.092
	c2.472-0.48,4.236-3.481,4.152-5.835c-0.085-2.342-2.287-4.474-4.62-4.474h-0.01L172.785,189.622z M68.344,196.197
	c-0.163,0-0.338-0.003-0.535-0.021c-1.912-0.19-3.963-1.603-4.191-3.938c-0.123-1.231,0.295-2.426,1.178-3.371
	c0.839-0.884,2.002-1.465,3.21-1.582c0.15-0.017,0.292-0.026,0.437-0.035c2.207,0,4.578,1.491,4.824,3.982
	c0.242,2.438-1.556,4.329-3.434,4.752C69.186,196.131,68.79,196.197,68.344,196.197"/>
<path fill="#B72126" d="M30.54,159.87c-6.696,0-10.855-4.215-10.855-10.996c0-6.709,4.323-11.037,11.007-11.037
	c6.696,0,10.857,4.224,10.857,11.037C41.549,155.654,37.332,159.87,30.54,159.87 M30.54,141.699c-4.799,0-5.514,4.496-5.514,7.175
	c0,2.686,0.734,7.201,5.666,7.201c4.809,0,5.523-4.515,5.523-7.201C36.215,146.194,35.476,141.699,30.54,141.699"/>
<path fill="#B72126" d="M200.117,159.848c-6.59,0-10.528-4.115-10.528-11.001c0-6.792,4.055-11.009,10.566-11.009
	c1.916,0,3.817,0.322,6.167,1.045c0.518,0.157,1.791,0.566,2.421,0.772l-1.489,3.896c-0.497-0.159-1.421-0.44-1.802-0.555
	c-1.753-0.506-3.225-0.848-4.753-0.848c-3.729,0-5.615,2.256-5.615,6.7c0,4.42,1.895,6.667,5.638,6.667
	c1.448,0,2.952-0.26,4.604-0.774l0.408-0.131l-1.747,4.767l-0.118,0.038c-1.408,0.29-2.534,0.435-3.553,0.435H200.117z"/>
<path fill="#B72126" d="M10.521,159.848c-6.584,0-10.516-4.115-10.516-11.001c0-6.792,4.047-11.009,10.563-11.009
	c1.83,0,3.728,0.322,6.155,1.047l1.669,0.484l-1.403,3.971l-1.078-0.32c-1.984-0.564-3.337-0.873-4.811-0.873
	c-3.731,0-5.618,2.256-5.618,6.7c0,4.42,1.898,6.667,5.636,6.667c1.516,0,3.077-0.275,4.786-0.823l1.082-0.354l1.405,3.966
	l-1.669,0.514c-2.385,0.7-4.297,1.032-6.025,1.032H10.521z"/>
<path fill="#B72126" d="M123.174,159.785c-1.499,0-2.471-0.611-2.878-1.823l-3.269-9.707l-1.006,0.135v11.249h-4.629v-18.684
	c0-1.967,1.438-3.141,3.833-3.141c2.243,0,3.596,0.922,4.248,2.899l3.796,11.596l3.955-11.596c0.471-1.437,1.326-2.899,4.124-2.899
	c2.379,0,3.747,1.144,3.747,3.141v18.684h-4.768v-11.325l-0.997-0.161l-3.389,9.809C125.611,159.18,124.682,159.785,123.174,159.785
	"/>
<path fill="#B72126" d="M222.554,159.647l-1.341-3.885h-7.909l-0.729,2.075c-0.364,1.081-1.381,1.811-2.541,1.811h-3.432
	l7.163-19.587c0.55-1.554,1.749-2.31,3.654-2.31c1.813,0,3.09,0.814,3.6,2.28l6.922,19.617H222.554z M214.387,151.93h5.773
	l-2.831-8.601L214.387,151.93z"/>
<rect x="180.659" y="137.981" fill="#B72126" width="5.346" height="21.658"/>
<path fill="#B72126" d="M172.002,159.646l-3.441-7.833h-4.522v7.833h-5.271v-18.983c0-1.624,1.172-2.68,2.981-2.68h7.605
	c4.465,0,7.465,2.68,7.465,6.662c0,2.404-1.08,4.401-3.027,5.623l-0.422,0.256l4.224,9.122H172.002z M164.039,148.043l4.578-0.022
	c1.912,0,3.096-1.748,3.096-3.375c0-1.728-1.241-2.899-3.096-2.899h-4.578V148.043z"/>
<path fill="#B72126" d="M142.275,159.641c-1.856,0-3.014-1.028-3.014-2.69v-16.254c0-1.677,1.157-2.715,3.014-2.715h13.024v1.309
	c0,1.406-1.229,2.604-2.679,2.604h-8.085v4.831h9.358v3.777h-9.358v5.254h10.764v3.886H142.275z"/>
<path fill="#B72126" d="M103.99,159.647l-1.342-3.885h-7.926l-0.712,2.073c-0.347,1.061-1.39,1.813-2.545,1.813h-3.428l7.157-19.587
	c0.563-1.554,1.76-2.31,3.654-2.31c1.818,0,3.092,0.814,3.602,2.28l6.926,19.617H103.99z M95.823,151.93h5.769l-2.836-8.594
	L95.823,151.93z"/>
<path fill="#B72126" d="M76.246,159.647l-1.347-3.885h-7.907l-0.735,2.082c-0.329,1.059-1.371,1.804-2.529,1.804h-3.437l7.16-19.587
	c0.555-1.554,1.753-2.31,3.669-2.31c1.811,0,3.088,0.814,3.591,2.28l6.939,19.617H76.246z M68.082,151.93h5.784l-2.84-8.594
	L68.082,151.93z"/>
<path fill="#B72126" d="M44.686,159.646v-18.945c0-1.679,1.158-2.72,3.018-2.72h6.648c4.488,0,7.387,2.747,7.387,7.004
	c0,4.262-3.01,7.013-7.665,7.013h-4.195v7.647H44.686z M49.879,148.151h3.799c2.026,0,3.244-1.182,3.244-3.166
	c0-2.172-1.244-3.186-3.897-3.186h-3.145V148.151z"/>
<path fill="#B72126" d="M146.761,135.296l2.372-3.21c0.249-0.351,0.459-0.653,0.99-0.653h2.711c0.416,0,0.674,0.1,0.752,0.285
	c0.1,0.224-0.105,0.491-0.3,0.677l-3.17,2.902H146.761z"/>
</svg>
