<?xml version="1.0" encoding="UTF-8" standalone="no"?>
<svg
   xmlns="http://www.w3.org/2000/svg"
   height="220.36604"
   width="202"
   viewBox="0 0 202 220.36604">
  <defs>
    <style>.a{fill:#fff;}.b{isolation:isolate;}.c{fill:#95c6e6;}.d{fill:#fdce3d;}.e{fill:#003282;}.f{fill:#de2e33;}.g{fill:#58aa41;}.h{fill:none;}.i{clip-path:url(#a);}.j,.k{fill:#c9c8c9;}.j{fill-rule:evenodd;}.l{opacity:0.5;mix-blend-mode:screen;}</style>
    <clipPath id="a">
      <path
         fill="#fff"
         d="M 89.3,93 C 81.2,91.7 79.5,83.2 84.4,79.9 l 2.3,-1.4 c 5.3,-3.4 8.9,-9.4 10.7,-19.3 0.5,-3.2 0.9,-5.9 1.1,-8.5 v 0 a 2.1,2.1 0 0 0 -1.2,-2.1 c 0,0 1.4,-1.2 1.4,-2.3 A 73,73 0 0 0 98.5,38.2 5.8,5.8 0 0 0 94.8,33.4 L 93.7,33 93.1,29.6 a 2.6,2.6 0 0 0 -1.5,-2 c -6.2,-2.9 -4.7,-8 -4,-12.2 a 2.7,2.7 0 0 0 3.6,-2 l 0.3,-1.2 A 1.8,1.8 0 0 0 90.3,10.1 56.3,56.3 0 0 0 74.9,8 55.4,55.4 0 0 0 60,10.1 2.1,2.1 0 0 0 58.4,12.7 l 0.2,0.8 a 2.8,2.8 0 0 0 3.7,2.1 c 0.5,4.3 1.5,9.5 -3.5,12.3 A 4,4 0 0 0 56.6,31 l -0.4,2.6 -1.4,0.6 a 5.9,5.9 0 0 0 -3.4,4.8 69.7,69.7 0 0 0 -0.1,7.9 v 0 a 4.7,4.7 0 0 0 1.4,2.3 2.2,2.2 0 0 0 -1,2.1 v 0 c 0.4,2.4 0.8,5 1.5,8 2.4,9.9 6.8,15.8 12.3,19.7 l 1.8,1.3 C 71.7,83.2 69,91.5 61,93 a 7.5,7.5 0 0 0 -5.5,4.1 l -0.7,1.7 a 0.9,0.9 0 0 0 0.6,1.2 75.7,75.7 0 0 0 19.6,2.4 76.6,76.6 0 0 0 19.7,-2.5 0.8,0.8 0 0 0 0.6,-1.2 L 94.2,96.5 A 6.6,6.6 0 0 0 89.3,93 Z"
         class="a" />
    </clipPath>
  </defs>
  <g
     transform="translate(0,-3.0908203e-6)">
    <path
       fill="#003282" stroke-width="1.3"
       d="m 27.8,191.4 c -5.86667,0 -9.46667,-3.73334 -9.46667,-9.6 0,-5.86667 3.73334,-9.73334 9.6,-9.73334 C 33.8,172.06666 37.4,175.8 37.4,181.8 c 0,6 -3.6,9.6 -9.6,9.6 m 0,-15.86667 c -4.26667,0 -4.8,3.86667 -4.8,6.26667 0,2.4 0.66667,6.26666 4.93333,6.26666 4.26667,0 4.8,-4 4.8,-6.26666 0,-2.26667 -0.66666,-6.26667 -4.93333,-6.26667"
       class="e" />
    <path
       fill="#003282" stroke-width="1.3"
       d="m 176.6,191.4 c -5.73334,0 -9.2,-3.6 -9.2,-9.6 0,-6 3.46666,-9.73334 9.2,-9.73334 A 17.466666,17.466666 0 0 1 182.06666,173 l 2.13334,0.66666 -1.33334,3.46667 -1.6,-0.53333 a 17.333333,17.333333 0 0 0 -4.13333,-0.8 c -3.33333,0 -4.93333,2 -4.93333,6 0,4 1.6,5.73333 4.93333,5.73333 a 11.466666,11.466666 0 0 0 4,-0.66667 h 0.4 l -1.6,4.26667 v 0 l -3.2,0.4 z"
       class="e" />
    <path
       fill="#003282" stroke-width="1.3"
       d="m 10.2,191.4 c -5.73333,0 -9.2,-3.6 -9.2,-9.6 0,-6 3.6,-9.73334 9.2,-9.73334 A 17.466666,17.466666 0 0 1 15.66667,173 l 1.46666,0.4 -1.2,3.46666 L 15,176.6 a 13.866666,13.866666 0 0 0 -4.26667,-0.8 C 7.4,175.8 5.8,177.8 5.8,181.8 c 0,4 1.73333,5.73333 4.93333,5.73333 A 12.8,12.8 0 0 0 15,186.86666 l 0.93333,-0.26666 1.2,3.46666 -1.46666,0.4 A 17.333333,17.333333 0 0 1 10.33333,191.4 Z"
       class="e" />
    <path
       fill="#003282" stroke-width="1.3"
       d="M 109.13333,191.4 A 2.2666666,2.2666666 0 0 1 106.6,189.8 l -2.93334,-8.53334 -0.93333,-2.53333 v 12.53333 h -4 v -16.4 c 0,-1.73333 1.2,-2.8 3.33333,-2.8 A 3.4666666,3.4666666 0 0 1 105.8,174.6 l 3.33333,10.13333 L 112.6,174.6 a 3.3333333,3.3333333 0 0 1 3.6,-2.53334 c 2.13333,0 3.33333,0.93334 3.33333,2.8 v 16.4 H 115.4 V 178.6 l -0.93334,2.53333 -2.93333,8.66667 a 2.2666666,2.2666666 0 0 1 -2.4,1.6"
       class="e" />
    <path
       fill="#003282" stroke-width="1.3"
       d="m 196.33333,191.26666 -1.2,-3.46666 H 188.2 l -0.66667,1.86666 a 2.3999999,2.3999999 0 0 1 -2.26667,1.6 h -2.93333 l 6.26667,-17.2 a 2.9333333,2.9333333 0 0 1 3.2,-2 2.7999999,2.7999999 0 0 1 3.06666,2 l 6.13333,17.2 z m -7.2,-6.8 H 194.2 l -2.53334,-7.6 z"
       class="e" />
    <rect
       fill="#003282" stroke-width="1.3"
       height="19"
       width="4.6666665"
       y="172.19998"
       x="159.53333"
       class="e" />
    <path
       fill="#003282" stroke-width="1.3"
       d="m 151.93333,191.26666 -3.06667,-6.93333 h -4 v 6.93333 h -4.53333 V 174.6 a 2.2666666,2.2666666 0 0 1 2.53333,-2.4 h 6.66667 c 4,0 6.66667,2.4 6.66667,5.86666 A 5.8666665,5.8666665 0 0 1 153.53333,183 l -0.4,0.26666 3.73333,8 z M 144.86666,181 H 149 a 2.7999999,2.7999999 0 0 0 2.66666,-2.93334 A 2.5333333,2.5333333 0 0 0 149,175.53333 h -4.13334 z"
       class="e" />
    <path
       fill="#003282" stroke-width="1.3"
       d="m 125.8,191.26666 a 2.3999999,2.3999999 0 0 1 -2.66667,-2.4 V 174.6 A 2.3999999,2.3999999 0 0 1 125.8,172.2 h 11.46666 v 1.2 a 2.3999999,2.3999999 0 0 1 -2.4,2.26666 H 127.8 v 4.26667 h 8.26666 v 3.2 H 127.8 V 187.8 h 9.46666 v 3.46666 z"
       class="e" />
    <path
       fill="#003282" stroke-width="1.3"
       d="M 92.2,191.26666 91,187.8 h -6.93334 l -0.53333,1.86666 a 2.5333333,2.5333333 0 0 1 -2.26667,1.6 H 78.2 l 6.26666,-17.2 a 3.0666666,3.0666666 0 0 1 3.2,-2 3.0666666,3.0666666 0 0 1 3.2,2 l 6.13334,17.2 z m -7.06667,-6.8 H 90.2 l -2.53334,-7.6 z"
       class="e" />
    <path
       fill="#003282" stroke-width="1.3"
       d="m 67.93333,191.26666 -1.2,-3.46666 H 59.8 l -0.66667,1.86666 a 2.2666666,2.2666666 0 0 1 -2.26666,1.6 h -2.93334 l 6.26667,-17.2 a 2.9333333,2.9333333 0 0 1 3.2,-2 3.0666666,3.0666666 0 0 1 3.2,2 l 6,17.2 z m -7.2,-6.8 H 65.8 l -2.53333,-7.6 z"
       class="e" />
    <path
       fill="#003282" stroke-width="1.3"
       d="M 40.2,191.26666 V 174.6 a 2.3999999,2.3999999 0 0 1 2.66667,-2.4 h 5.86666 c 3.86667,0 6.4,2.4 6.4,6.13333 0,3.73333 -2.66666,6.13333 -6.66666,6.13333 h -3.73334 v 6.8 z m 4.53333,-10.13333 h 3.33334 a 2.6666666,2.6666666 0 0 0 2.93333,-2.8 c 0,-1.86667 -1.2,-2.8 -3.46667,-2.8 h -2.8 z"
       class="e" />
    <path
       fill="#003282" stroke-width="1.3"
       d="M 76.73333,164.33333 H 75.8 a 2,2 0 0 1 -0.93334,-0.4 L 74.2,163 a 3.3333333,3.3333333 0 0 1 -0.26667,-1.33334 v -6.13333 A 3.1999999,3.1999999 0 0 1 74.2,154.46666 c 0.13333,-0.26666 0.26666,-0.66666 0.53333,-0.8 A 2.3999999,2.3999999 0 0 1 75.66666,153 2.9333333,2.9333333 0 0 1 77.8,153 a 2,2 0 0 1 0.8,0.66666 l 0.66666,0.8 a 3.7333332,3.7333332 0 0 1 0.13334,1.2 V 156.2 c 0,0.13333 0,0.13333 -0.13334,0.13333 h -1.6 A 0.13333333,0.13333333 0 0 1 77.53333,156.2 v -0.53334 c 0,-0.4 0,-0.66666 -0.13333,-0.8 A 0.79999998,0.79999998 0 0 0 76.73333,154.6 c -0.4,0 -0.66667,0 -0.66667,0.26666 A 1.8666666,1.8666666 0 0 0 75.8,155.8 v 5.73333 A 1.0666666,1.0666666 0 0 0 76.06666,162.2 c 0.13334,0.26666 0.26667,0.26666 0.66667,0.26666 h 0.53333 l 0.26667,-0.4 V 161 H 79.4 v 0.66666 a 3.3333333,3.3333333 0 0 1 -0.13334,1.06667 l -0.66666,0.8 c -0.13334,0.26667 -0.53334,0.4 -0.8,0.53333 a 1.4666666,1.4666666 0 0 1 -1.06667,0.26667"
       class="e" />
    <path
       fill="#003282" stroke-width="1.3"
       d="M 83.53333,164.33333 H 82.46666 L 81.53333,163.8 A 2.1333333,2.1333333 0 0 1 81,162.86666 a 2,2 0 0 1 -0.26667,-1.2 v -6 a 2,2 0 0 1 0.26667,-1.2 2.1333333,2.1333333 0 0 1 0.53333,-0.93333 L 82.46666,153 a 2.5333333,2.5333333 0 0 1 2,0 L 85.4,153.53333 a 2.3999999,2.3999999 0 0 1 0.66666,0.93333 3.8666666,3.8666666 0 0 1 0.26667,1.2 v 6 a 3.8666666,3.8666666 0 0 1 -0.26667,1.2 A 2.3999999,2.3999999 0 0 1 85.4,163.8 l -0.93334,0.53333 h -0.93333 m 0,-9.73333 c -0.26667,0 -0.53333,0 -0.66667,0.26666 -0.13333,0.26667 -0.26666,0.4 -0.26666,0.66667 v 6 c 0,0.26667 0,0.53333 0.26666,0.66667 0.26667,0.13333 0.4,0.26666 0.66667,0.26666 A 0.79999998,0.79999998 0 0 0 84.2,162.2 a 1.0666666,1.0666666 0 0 0 0.26666,-0.66667 v -6 A 1.0666666,1.0666666 0 0 0 84.2,154.86666 0.79999998,0.79999998 0 0 0 83.53333,154.6"
       class="e" />
    <path
       fill="#003282" stroke-width="1.3"
       d="m 93.66666,164.2 h -1.6 l -2,-5.73334 c -0.13333,0 -0.26666,0 -0.26666,0.13334 v 5.46666 c 0,0.13334 0,0.13334 -0.13334,0.13334 h -1.6 a 0.13333333,0.13333333 0 0 1 -0.13333,-0.13334 V 153 H 89.8 l 2,5.73333 A 0.13333333,0.13333333 0 0 0 91.93333,158.6 V 153 H 93.8 v 11.06666 c 0,0.13334 0,0.13334 -0.13334,0.13334"
       class="e" />
    <path
       fill="#003282" stroke-width="1.3"
       d="m 102.86666,164.2 h -1.6 c -0.13333,0 -0.13333,0 -0.13333,-0.13334 V 158.6 c 0,-0.13334 -0.13333,-0.13334 -0.26667,0 l -1.2,3.6 h -0.93333 l -1.2,-3.6 c 0,-0.13334 -0.26667,-0.13334 -0.26667,0 v 5.46666 c 0,0.13334 0,0.13334 -0.13333,0.13334 h -1.46667 c -0.13333,0 -0.26666,0 -0.26666,-0.13334 V 153 h 1.73333 L 99,158.46666 h 0.13333 L 101,153 h 1.86666 v 11.06666 A 0.13333333,0.13333333 0 0 1 102.73333,164.2"
       class="e" />
    <path
       fill="#003282" stroke-width="1.3"
       d="m 109.53333,164.2 h -4.8 A 0.13333333,0.13333333 0 0 1 104.6,164.06666 V 153 h 5.06666 v 1.46666 h -3.2 V 157.4 h 2.8 v 1.46666 h -2.8 v 3.46667 h 3.06667 a 0.13333333,0.13333333 0 0 1 0.13333,0.13333 v 1.46667 a 0.13333333,0.13333333 0 0 1 -0.13333,0.13333"
       class="e" />
    <path
       fill="#003282" stroke-width="1.3"
       d="M 113.26666,164.2 H 111 a 0.13333333,0.13333333 0 0 1 -0.13334,-0.13334 V 153 h 3.86667 l 0.93333,0.66666 A 3.3333333,3.3333333 0 0 1 116.2,154.6 a 3.7333332,3.7333332 0 0 1 0.13333,1.2 v 1.2 c -0.13333,0.13333 -0.13333,0.4 -0.26667,0.53333 l -0.4,0.53333 H 115.4 l 0.66666,0.8 a 4.1333332,4.1333332 0 0 1 0.26667,1.46667 V 161 a 3.8666666,3.8666666 0 0 1 -0.66667,2.26666 3.1999999,3.1999999 0 0 1 -2.4,0.8 M 112.73333,162.2 h 1.33333 l 0.4,-0.4 c 0,-0.13334 0.13334,-0.26667 0.13334,-0.53334 V 159.8 L 114.33333,159.26666 114.06666,159 h -1.33333 z m 0,-5.06667 H 113.4 a 1.0666666,1.0666666 0 0 0 0.93333,-0.4 A 1.7333333,1.7333333 0 0 0 114.6,155.66666 2.5333333,2.5333333 0 0 0 114.33333,154.6 l -1.06667,-0.26667 h -0.53333 z"
       class="e" />
    <path
       fill="#003282" stroke-width="1.3"
       d="M 120.46666,164.33333 H 119.4 L 118.46666,163.8 117.8,162.86666 a 3.7333332,3.7333332 0 0 1 -0.13334,-1.2 v -6 a 2,2 0 0 1 0.26667,-1.2 2.1333333,2.1333333 0 0 1 0.53333,-0.93333 L 119.4,153 a 2.6666666,2.6666666 0 0 1 2,0 l 0.93333,0.53333 a 2.3999999,2.3999999 0 0 1 0.66667,0.93333 3.8666666,3.8666666 0 0 1 0.26666,1.2 v 6 A 3.8666666,3.8666666 0 0 1 123,162.86666 2.3999999,2.3999999 0 0 1 122.33333,163.8 L 121.4,164.33333 h -0.93334 m 0,-9.73333 c -0.26666,0 -0.53333,0 -0.66666,0.26666 -0.13334,0.26667 -0.26667,0.4 -0.26667,0.66667 v 6 c 0,0.26667 0,0.53333 0.26667,0.66667 0.26666,0.13333 0.4,0.26666 0.66666,0.26666 A 0.79999998,0.79999998 0 0 0 121.13333,162.2 1.0666666,1.0666666 0 0 0 121.4,161.53333 v -6 a 1.0666666,1.0666666 0 0 0 -0.26667,-0.66667 0.79999998,0.79999998 0 0 0 -0.66667,-0.26666"
       class="e" />
    <path
       fill="#003282" stroke-width="1.3"
       d="m 129.4,164.2 h -4.66667 c -0.13333,0 -0.26667,0 -0.26667,-0.13334 V 153 h 1.86667 v 9.33333 H 129.4 c 0.13333,0 0.13333,0 0.13333,0.13333 v 1.46667 c 0,0.13333 0,0.13333 -0.13333,0.13333"
       class="e" />
    <path
       fill="#003282" stroke-width="1.3"
       d="M 134.73333,159.4 H 131.4 v -1.46667 h 3.46666 V 159.4 h -0.13333"
       class="e" />
    <path
       fill="#003282" stroke-width="1.3"
       d="m 70.46666,159.4 h -3.33333 v -1.46667 H 70.6 V 159.4 h -0.13334"
       class="e" />
    <path
       fill="#fff" stroke-width="1.3"
       d="m 162.86666,64.599997 a 63.866665,63.866665 0 1 1 -127.59999,0 C 35.26667,40.999998 49.8,19.133332 68.06666,9.266665 l 1.6,-1.2 A 40.799999,40.799999 0 0 1 97.13333,5.133332 c 2.26667,0.666667 6.66667,-4.266666 8.93333,-4 2.26667,0.266667 3.6,1.866667 5.73334,2.266667 28.66666,6.266666 51.06666,30.666666 51.06666,61.199998 z"
       class="a" />
    <path
       fill="#fdce3d" stroke-width="1.3"
       d="M 109.66666,95.799998 A 21.733333,21.733333 0 0 1 69,103.66667 L 66.46667,110.2 a 21.466666,21.466666 0 0 1 -12.13334,-11.733332 21.999999,21.999999 0 0 1 -0.26666,-16.93334 23.066666,23.066666 0 0 1 5.06666,-7.6 C 55.26667,71.399997 49.66667,69.799997 48.6,66.199997 c -1.06667,-3.6 5.86667,-11.066666 6.13333,-16.133333 C 55,44.999998 48.06667,38.333331 49.8,33.533332 c 1.73333,-4.8 11.2,-5.333334 14.4,-9.466667 3.2,-4.133333 1.46667,-12.8 5.46666,-16 v 0 A 64.399998,64.399998 0 0 0 79,126.86666 a 66.799998,66.799998 0 0 0 15.86666,3.06667 c 11.46667,0.8 -0.4,-2.8 10.13334,-8.13333 l 5.86666,-26.666672 z"
       class="d" />
    <path
       fill="#de2e33" stroke-width="1.3"
       d="M 70.2,68.066664 A 22.266666,22.266666 0 0 0 54.06667,81.533328 21.999999,21.999999 0 0 0 54.33333,98.466668 21.466666,21.466666 0 0 0 66.46667,110.2 l 3.59999,-9.06667 9.06667,-22.800002 3.6,-9.066664 a 21.466666,21.466666 0 0 0 -12.53333,-1.2 z"
       class="f" />
    <path
       fill="#95c6e6" stroke-width="1.3"
       d="m 97.8,16.333332 c 0.93333,-14.133333 14.53333,-15.2 25.6,-11.866666 14.93333,4.399999 27.46666,15.866666 34.8,29.466666 a 65.466665,65.466665 0 0 1 -15.46667,81.599998 59.199999,59.199999 0 0 1 -7.33333,0.4 21.866666,21.866666 0 0 1 -3.06667,4.26667 L 117,92.066668 a 2.5333333,2.5333333 0 0 1 0.8,-3.2 28.533333,28.533333 0 0 0 8.93333,-37.200004 27.333333,27.333333 0 0 0 -33.46667,-12.933333 2.3999999,2.3999999 0 0 1 -3.06666,-2.8 l 3.33333,-14.266666 a 2.6666666,2.6666666 0 0 1 1.06667,-1.6 c 2.26666,-1.333333 3.06666,-2.533333 3.2,-3.733333 z"
       class="c" />
    <circle
       fill="#58aa41" stroke-width="1.3"
       r="21.733332"
       cy="93.266655"
       cx="88.06665"
       class="g" />
    <ellipse
       fill="#fdce3d" stroke-width="1.3"
       ry="10.666666"
       rx="10.533333"
       cy="11.666666"
       cx="105.53333"
       class="d" />
    <path
       fill="#fdce3d" stroke-width="1.3"
       d="m 144.06666,60.733331 a 33.999999,33.999999 0 0 0 -13.2,-22.266666 l -8.93333,11.999999 -22.66667,30.000004 -8.93333,12 a 33.866666,33.866666 0 0 0 53.73333,-31.733337 z"
       class="d" />
    <path
       fill="#fff" stroke-width="1.3"
       d="m 142.86666,115.66666 a 60.133332,60.133332 0 0 1 -14.8,-0.53333 C 128.06666,119.8 116.6,125.8 125.93333,129.8 a 66.399998,66.399998 0 0 0 16.93333,-14.13334 z"
       class="a" />
    <path
       fill="#fff" stroke-width="1.3"
       d="m 141.53333,51.266664 a 53.999999,53.999999 0 0 1 12.66667,4.133334 56.266665,56.266665 0 0 1 -7.06667,11.333333 50.399999,50.399999 0 0 1 10.53333,8.266667 57.866665,57.866665 0 0 0 -3.46666,-19.6 v 0 a 59.599999,59.599999 0 0 0 -9.86667,-17.2 v 0 A 61.333332,61.333332 0 0 0 129,25.399998 47.333332,47.333332 0 0 1 130.86666,38.733331 49.066665,49.066665 0 0 1 144.2,38.199998 56.799999,56.799999 0 0 1 141.53333,51.266664 Z m 4.53333,32.800004 a 58.399999,58.399999 0 0 1 7.73334,12.53333 51.999999,51.999999 0 0 1 -14,4.533332 56.266665,56.266665 0 0 1 3.06666,14.53333 A 62.266665,62.266665 0 0 0 153.8,96.733328 v 0 a 64.399998,64.399998 0 0 0 3.86666,-21.73333 60.799998,60.799998 0 0 1 -11.6,9.06667 z"
       class="a" />
    <ellipse
       fill="#58aa41" stroke-width="1.3"
       ry="21.2"
       rx="21.066666"
       cy="106.33333"
       cx="116.46664"
       class="g" />
    <path
       fill="#fdce3d" stroke-width="1.3"
       d="m 126.86666,18.333332 a 27.866666,27.866666 0 0 1 15.2,4.666666 l -6.8,10.4 a 15.333333,15.333333 0 0 0 -21.46666,4.4 15.6,15.6 0 0 0 4.4,21.6 l -6.8,10.399999 a 27.599999,27.599999 0 0 1 -12,-17.733333 27.333333,27.333333 0 0 1 4,-21.066666 27.999999,27.999999 0 0 1 23.46666,-12.666666 z"
       class="d" />
    <path
       fill="#003282" stroke-width="1.3"
       d="M 87,87.266668 83.8,55.799998 82.46666,43.266665 A 28.399999,28.399999 0 0 0 67.4,93.533328 a 28.133333,28.133333 0 0 0 20.8,6.26667 z"
       class="e" />
    <circle
       fill="#fdce3d" stroke-width="1.3"
       r="10.666666"
       cy="113"
       cx="115.39999"
       class="d" />
    <circle
       fill="#de2e33" stroke-width="1.3"
       r="24.399998"
       cy="28.999998"
       cx="92.06665"
       class="f" />
    <path
       fill="#fdce3d" stroke-width="1.3"
       d="m 116.73333,65.799997 a 33.199999,33.199999 0 0 1 -7.46667,17.200001 L 98.2,73.666668 a 18.4,18.4 0 0 0 -2.4,-25.733337 18.533333,18.533333 0 0 0 -13.33334,-4.133333 17.333333,17.333333 0 0 0 -12,6.8 l -11.59999,-9.6 a 32.266666,32.266666 0 0 1 22.26666,-11.733333 32.799999,32.799999 0 0 1 35.6,36.533332 z"
       class="d" />
    <path
       fill="none" stroke-width="1.3"
       d="M 109.66666,95.799998 A 21.733333,21.733333 0 0 1 69,103.66667 L 66.46667,110.2 a 21.466666,21.466666 0 0 1 -12.13334,-11.733332 21.999999,21.999999 0 0 1 -0.26666,-16.93334 23.066666,23.066666 0 0 1 5.06666,-7.6 C 55.26667,71.399997 49.66667,69.799997 48.6,66.199997 c -1.06667,-3.6 5.86667,-11.066666 6.13333,-16.133333 C 55,44.999998 48.06667,38.333331 49.8,33.533332 c 1.73333,-4.8 11.2,-5.333334 14.4,-9.466667 3.2,-4.133333 1.46667,-12.8 5.46666,-16 v 0 A 64.399998,64.399998 0 0 0 79,126.86666 a 66.799998,66.799998 0 0 0 15.86666,3.06667 c 11.46667,0.8 -0.4,-2.8 10.13334,-8.13333 l 5.86666,-26.666672 z"
       class="h" />
    <circle
       fill="#fff" stroke-width="1.3"
       r="14.933332"
       cy="98.066666"
       cx="119.13333"
       class="a" />
    <circle
       fill="#95c6e6" stroke-width="1.3"
       r="8.7999992"
       cy="106.06667"
       cx="115.8"
       class="c" />
    <path
       fill="#fff" stroke-width="1.3"
       d="M 120.06666,125 C 109.26666,123.26666 107,111.93333 113.53333,107.53333 L 116.6,105.66667 c 7.06666,-4.53334 11.86666,-12.533342 14.26666,-25.733342 0.66667,-4.26666 1.2,-7.86666 1.46667,-11.333331 v 0 a 2.7999999,2.7999999 0 0 0 -1.6,-2.8 c 0,0 1.86667,-1.6 1.86667,-3.066666 a 97.333331,97.333331 0 0 0 -0.26667,-10.8 7.7333331,7.7333331 0 0 0 -4.93333,-6.4 l -1.46667,-0.533333 -0.8,-4.533333 a 3.4666666,3.4666666 0 0 0 -2,-2.666667 C 114.86666,33.933332 116.86666,27.133332 117.8,21.533332 a 3.5999999,3.5999999 0 0 0 4.8,-2.666667 l 0.4,-1.6 a 2.3999999,2.3999999 0 0 0 -1.6,-2.8 75.066665,75.066665 0 0 0 -20.53334,-2.8 73.866665,73.866665 0 0 0 -19.86666,2.8 2.7999999,2.7999999 0 0 0 -2.13334,3.466667 l 0.26667,1.066667 a 3.7333332,3.7333332 0 0 0 4.93333,2.799999 c 0.66667,5.733334 2,12.666667 -4.66666,16.4 a 5.3333332,5.3333332 0 0 0 -2.93334,4.133333 l -0.53333,3.466667 -1.86667,0.8 a 7.8666665,7.8666665 0 0 0 -4.53333,6.4 A 92.933331,92.933331 0 0 0 69.4,63.533331 v 0 a 6.2666665,6.2666665 0 0 0 1.86666,3.066666 2.9333333,2.9333333 0 0 0 -1.33333,2.8 v 0 c 0.53333,3.200001 1.06667,6.666671 2,10.666671 3.2,13.2 9.06667,21.066662 16.4,26.266662 l 2.4,1.73333 C 96.6,111.93333 93,123 82.33333,125 A 9.9999998,9.9999998 0 0 0 75,130.46666 l -0.93334,2.26667 a 1.2,1.2 0 0 0 0.8,1.6 100.93333,100.93333 0 0 0 26.13334,3.2 102.13333,102.13333 0 0 0 26.26666,-3.33333 1.0666666,1.0666666 0 0 0 0.8,-1.6 L 126.6,129.66666 A 8.7999998,8.7999998 0 0 0 120.06666,125 Z"
       class="a" />
    <path
       fill="#fff" stroke-width="1.3"
       d="M 120.06666,125 C 109.26666,123.26666 107,111.93333 113.53333,107.53333 L 116.6,105.66667 c 7.06666,-4.53334 11.86666,-12.533342 14.26666,-25.733342 0.66667,-4.26666 1.2,-7.86666 1.46667,-11.333331 v 0 a 2.7999999,2.7999999 0 0 0 -1.6,-2.8 c 0,0 1.86667,-1.6 1.86667,-3.066666 a 97.333331,97.333331 0 0 0 -0.26667,-10.8 7.7333331,7.7333331 0 0 0 -4.93333,-6.4 l -1.46667,-0.533333 -0.8,-4.533333 a 3.4666666,3.4666666 0 0 0 -2,-2.666667 C 114.86666,33.933332 116.86666,27.133332 117.8,21.533332 a 3.5999999,3.5999999 0 0 0 4.8,-2.666667 l 0.4,-1.6 a 2.3999999,2.3999999 0 0 0 -1.6,-2.8 75.066665,75.066665 0 0 0 -20.53334,-2.8 73.866665,73.866665 0 0 0 -19.86666,2.8 2.7999999,2.7999999 0 0 0 -2.13334,3.466667 l 0.26667,1.066667 a 3.7333332,3.7333332 0 0 0 4.93333,2.799999 c 0.66667,5.733334 2,12.666667 -4.66666,16.4 a 5.3333332,5.3333332 0 0 0 -2.93334,4.133333 l -0.53333,3.466667 -1.86667,0.8 a 7.8666665,7.8666665 0 0 0 -4.53333,6.4 A 92.933331,92.933331 0 0 0 69.4,63.533331 v 0 a 6.2666665,6.2666665 0 0 0 1.86666,3.066666 2.9333333,2.9333333 0 0 0 -1.33333,2.8 v 0 c 0.53333,3.200001 1.06667,6.666671 2,10.666671 3.2,13.2 9.06667,21.066662 16.4,26.266662 l 2.4,1.73333 C 96.6,111.93333 93,123 82.33333,125 A 9.9999998,9.9999998 0 0 0 75,130.46666 l -0.93334,2.26667 a 1.2,1.2 0 0 0 0.8,1.6 100.93333,100.93333 0 0 0 26.13334,3.2 102.13333,102.13333 0 0 0 26.26666,-3.33333 1.0666666,1.0666666 0 0 0 0.8,-1.6 L 126.6,129.66666 A 8.7999998,8.7999998 0 0 0 120.06666,125 Z"
       class="a" />
    <g
       clip-path="url(#a)"
       class="i"
       transform="matrix(1.3333333,0,0,1.3333333,1,1)">
      <path
         fill="#c9c8c9" fill-rule="evenodd"
         d="m 94.4,33 a 14.5,14.5 0 0 0 -4.2,-8.7 c -0.6,-0.7 -0.6,-0.4 -0.1,0.2 0.5,0.6 3.1,4.2 3,5.2 -0.1,1 -0.2,0.5 -0.5,-0.3 A 2.5,2.5 0 0 0 91,27.7 c -0.7,-0.1 0.1,1.1 0.7,1.7 0.6,0.6 0.2,0.8 -0.7,0.2 a 15.8,15.8 0 0 1 -2.6,-3.1 l -1.2,-2 c -0.3,-0.6 -0.7,-0.7 -0.3,0 l 0.3,0.7 a 5.6,5.6 0 0 1 0.5,0.8 8.8,8.8 0 0 1 1.2,3.7 C 88.9,30.4 88.1,30 88,29.5 87.9,29 87.2,27.6 86.6,27.7 v 0 c -0.7,-0.1 -0.1,1.1 0.4,1.8 0.5,0.7 0,0.9 -0.7,0.2 A 12.1,12.1 0 0 1 84.1,26.5 C 83.9,25.9 83.6,25.3 83.4,24.8 A 0.4,0.4 0 0 0 83.3,24.5 1.4,1.4 0 0 0 83,24 c -0.2,0 -0.2,0.2 -0.1,0.5 l 0.2,0.3 a 15.4,15.4 0 0 0 0.5,1.7 7.8,7.8 0 0 1 0.5,3.2 c -0.2,0.7 -0.9,0.3 -0.9,-0.2 0,-0.5 -0.5,-1.9 -1.1,-1.8 v 0 c -0.7,-0.1 -0.3,1.1 0.1,1.8 0.4,0.7 -0.2,0.9 -0.8,0.2 a 12.6,12.6 0 0 1 -2,-5.2 C 79.3,24.2 79.2,24 79.1,24.1 79,24.2 78.9,24.2 79,24.5 a 11.7,11.7 0 0 1 0.2,5.2 c -0.3,0.7 -1,0.3 -0.9,-0.2 0.1,-0.5 -0.1,-1.9 -0.7,-1.8 v 0 c -0.7,-0.1 -0.6,1.1 -0.3,1.8 0.3,0.7 -0.4,0.9 -0.8,0.2 a 8,8 0 0 1 -1,-3.2 v -2 c -0.1,-0.3 -0.2,-0.5 -0.3,-0.4 -0.1,0.1 -0.1,0.1 -0.1,0.4 v 2 a 7.9,7.9 0 0 1 -0.8,3.2 c -0.4,0.7 -1,0.3 -0.8,-0.2 0.2,-0.5 0.2,-1.9 -0.4,-1.8 v 0 c -0.6,-0.1 -0.8,1.1 -0.6,1.8 0.2,0.7 -0.6,0.9 -0.9,0.2 a 6.6,6.6 0 0 1 -0.3,-3.2 c 0.1,-0.6 0.1,-1.2 0.2,-1.7 v -0.2 c 0.1,-0.4 0,-0.6 -0.1,-0.5 -0.1,0.1 -0.2,0.1 -0.3,0.5 v 0.2 l -0.3,1.7 a 8.4,8.4 0 0 1 -1.4,3.2 c -0.5,0.7 -1.1,0.3 -0.8,-0.2 0.3,-0.5 0.7,-1.9 0,-1.8 v 0 c -0.6,-0.1 -1,1.1 -1,1.8 0,0.7 -0.7,0.9 -0.9,0.2 a 5.5,5.5 0 0 1 0.2,-2.8 c 0.3,-0.9 0.5,-1.7 0.7,-2.4 v -0.2 c 0,-0.2 -0.1,-0.3 -0.1,-0.2 0,0.1 -0.2,0 -0.2,0.2 0,0.2 -0.1,0.1 -0.2,0.2 l -0.8,2.4 a 13.4,13.4 0 0 1 -1.8,2.8 c -0.7,0.7 -1.2,0.3 -0.8,-0.2 0.4,-0.5 1,-1.9 0.3,-1.8 v 0 c -0.6,-0.1 -1.2,1.1 -1.3,1.8 -0.1,0.7 -0.9,0.9 -0.9,0.2 a 12.1,12.1 0 0 1 1.8,-5.1 c 0.2,-0.5 0.1,-0.6 0,-0.5 -0.1,0.1 -0.3,0.2 -0.4,0.5 a 18.3,18.3 0 0 1 -3.6,5 c -0.8,0.7 -1.2,0.3 -0.7,-0.1 0.5,-0.4 1.3,-1.9 0.6,-1.8 A 2.5,2.5 0 0 0 58,29.5 c -0.2,0.8 -0.4,0.7 -0.5,0.3 -0.1,-0.4 1.1,-3.6 2.9,-5.4 1.8,-1.8 0.4,-0.9 -0.2,-0.3 -4.3,4.5 -5.4,6.9 -5,9.1 v 0.4 l 1.6,-0.2 h 0.4 c 0,0 9.9,-1.1 18.5,-1.2 A 152.4,152.4 0 0 1 94.4,33 Z"
         class="j" />
      <path
         fill="#c9c8c9"
         d="m 97.3,48.7 c 0,0 1.7,0.1 1.8,-1 l 0.3,-0.3 -0.2,-0.7 C 83.3,46.4 66.7,45.9 51.4,48.3 v 1 a 279.8,279.8 0 0 1 45.8,-0.6 z"
         class="k" />
      <path
         fill="#c9c8c9"
         d="m 76.6,14.7 c 5.3,1.4 6.7,5.8 11.8,8.4 a 21.9,21.9 0 0 1 -0.8,-7.6 45.4,45.4 0 0 0 -12.8,-2 38,38 0 0 0 -4.4,0.2 33.3,33.3 0 0 0 -8.1,1.9 c -0.1,3.7 0.4,1.8 -1.3,5.6 2.5,0.4 3.4,-2.5 7.1,-5.3 3.7,-2.8 5,-2.1 8.5,-1.2 z"
         class="k" />
      <path
         fill="#c9c8c9" fill-rule="evenodd"
         d="M 98.6,58.4 C 98.5,57.9 98,58.1 98.1,58.6 a 4.4,4.4 0 0 1 -1.8,4.3 c -0.5,0.4 -0.7,0.4 -0.2,-0.3 0.5,-0.7 0.5,-1.3 -0.3,-1.4 -0.8,-0.1 -1,0.9 -0.8,1.5 0.2,0.6 -0.6,0.6 -1,0.1 a 4.2,4.2 0 0 1 -0.5,-2.5 c 0.1,-0.6 0.1,-1.2 0.2,-1.7 0.1,-0.5 -0.5,-0.6 -0.6,0 a 1.3,1.3 0 0 1 -0.1,0.6 1.3,1.3 0 0 1 -0.1,0.6 5.7,5.7 0 0 1 -1.5,3 c -0.5,0.6 -1.2,0.3 -1,-0.1 a 1.2,1.2 0 0 0 0.1,-1.4 c 0.4,-1.7 1.8,-2.8 2.6,-4.3 a 8.5,8.5 0 0 0 0.6,-1.7 c 0,0.2 0.2,0.4 0.3,0.7 0.1,0.3 1.4,1.8 0.7,3.9 2.6,-1.4 5.9,-4.8 4,-9.3 C 98.5,50 98,50.3 98.3,50.7 a 3.8,3.8 0 0 1 -1,4.3 c -0.5,0.4 -0.7,0.4 -0.3,-0.2 0.4,-0.6 0.3,-1.4 -0.6,-1.5 -0.9,-0.1 -0.8,0.9 -0.5,1.5 0.3,0.6 -0.6,0.7 -1,0.1 a 4.6,4.6 0 0 1 -1,-2.5 9.2,9.2 0 0 1 -0.1,-1.6 c 0,-0.5 -0.6,-0.6 -0.6,0 V 52 a 4.6,4.6 0 0 1 -1.1,3 c -0.5,0.6 -1.2,0.2 -1,-0.1 0.2,-0.3 0.2,-1.6 -0.7,-1.6 v 0 c -0.8,0 -0.9,1 -0.6,1.6 0.3,0.6 -0.5,0.7 -1,0.1 a 4.6,4.6 0 0 1 -1.1,-2.7 v -1.5 c 0,-0.3 -0.2,-0.5 -0.3,-0.4 -0.1,0.1 -0.3,0.1 -0.3,0.4 V 51 c 0,0.4 -0.1,0.9 -0.1,1.3 A 5.2,5.2 0 0 1 86,55 c -0.5,0.6 -1.2,0.2 -1.1,-0.1 0.1,-0.3 0.3,-1.6 -0.6,-1.6 v 0 c -0.9,0 -0.9,1 -0.6,1.6 0.3,0.6 -0.6,0.7 -1.1,0.1 a 6.6,6.6 0 0 1 -1.1,-4.2 c 0.1,-0.3 -0.1,-0.5 -0.3,-0.4 -0.2,0.1 -0.3,0.1 -0.3,0.4 A 5.6,5.6 0 0 1 79.8,55 c -0.5,0.6 -1.2,0.2 -1,-0.1 0.2,-0.3 0.2,-1.6 -0.7,-1.6 v 0 c -0.8,0 -0.9,1 -0.6,1.6 0.3,0.6 -0.6,0.7 -1.1,0.1 a 5.2,5.2 0 0 1 -1,-2.7 v -1.5 c 0,-0.3 -0.2,-0.5 -0.3,-0.4 -0.1,0.1 -0.4,0.1 -0.3,0.4 V 51 a 5.7,5.7 0 0 0 -0.1,1.3 5.2,5.2 0 0 1 -1,2.7 c -0.5,0.6 -1.3,0.2 -1.1,-0.1 0.2,-0.3 0.3,-1.6 -0.6,-1.6 v 0 c -0.9,0 -0.9,1 -0.6,1.6 0.3,0.6 -0.6,0.7 -1.1,0.1 a 5.2,5.2 0 0 1 -1,-2.7 c 0,-0.4 -0.1,-0.9 -0.1,-1.3 v -0.2 c 0,-0.3 -0.1,-0.5 -0.3,-0.4 -0.2,0.1 -0.3,0.1 -0.3,0.4 v 1.5 A 4.6,4.6 0 0 1 67.5,55 c -0.5,0.6 -1.2,0.2 -1,-0.1 0.2,-0.3 0.2,-1.6 -0.6,-1.6 v 0 c -0.9,0 -1,1 -0.7,1.6 0.3,0.6 -0.5,0.7 -1,0.1 a 4.3,4.3 0 0 1 -1,-2.3 c 0,-0.7 -0.1,-1.4 -0.1,-1.9 v -0.3 h -0.3 c -0.1,0 -0.2,0 -0.2,0.1 a 0.4,0.4 0 0 0 -0.1,0.3 c 0,0.5 -0.1,1.2 -0.1,1.9 a 5,5 0 0 1 -0.9,2.3 c -0.5,0.6 -1.3,0.2 -1.1,-0.1 0.2,-0.3 0.2,-1.6 -0.6,-1.6 v 0 c -0.9,0 -1,1 -0.7,1.6 0.3,0.6 -0.5,0.7 -1,0.1 A 5.6,5.6 0 0 1 57,50.8 c 0,-0.4 -0.2,-0.5 -0.4,-0.4 -0.2,0.1 -0.2,0.2 -0.2,0.4 A 6.2,6.2 0 0 1 55.3,55 c -0.5,0.5 -1.2,0.2 -1,-0.2 0.2,-0.4 0.2,-1.5 -0.7,-1.5 -0.9,0 -0.9,0.9 -0.5,1.5 0.4,0.6 0.2,0.7 -0.4,0.3 a 4.1,4.1 0 0 1 -1,-4.5 c 0.3,-0.4 -0.2,-0.7 -0.5,-0.2 -1.9,4.7 1.6,8.3 4.3,9.7 -0.7,-2.2 -0.2,-2.4 0.7,-4 a 3,3 0 0 0 0.4,-0.8 6.9,6.9 0 0 0 0.5,1.7 c 0.9,1.7 2.7,2.7 2.7,5.1 0,-2.2 1.7,-3.4 2.6,-5.1 a 3,3 0 0 0 0.4,-1 10.4,10.4 0 0 0 0.4,1 c 0.8,1.5 2.3,2.5 2.6,4.3 0.3,1.8 -0.1,1 0.1,1.4 0.2,0.4 -0.4,0.7 -1,0.1 a 6.1,6.1 0 0 1 -1.3,-2.2 11.8,11.8 0 0 0 -0.4,-2 c 0,-0.1 0,-0.2 -0.1,-0.2 -0.1,0 -0.2,-0.2 -0.2,-0.2 l -0.3,0.2 v 0.2 l 0.3,2 a 4,4 0 0 1 -0.5,2.2 c -0.4,0.6 -1.2,0.3 -1.1,-0.1 0.1,-0.4 0,-1.6 -0.9,-1.5 v 0 c -0.8,-0.1 -0.7,0.9 -0.3,1.5 0.4,0.6 -0.3,0.7 -0.9,0.1 a 7.2,7.2 0 0 1 -2,-4.2 c -0.1,-0.3 -0.4,-0.4 -0.5,-0.3 -0.1,0.1 -0.2,0.1 -0.2,0.4 0,0.3 0.7,3 0,4.1 -0.7,1.1 -1.1,0.3 -1,-0.1 0.1,-0.4 -0.2,-1.6 -1,-1.5 -0.8,0.1 -0.6,0.9 -0.1,1.5 0.5,0.6 0.3,0.6 -0.3,0.2 -0.6,-0.4 -2.5,-2.9 -2.2,-4.4 0.3,-1.5 -0.5,-0.8 -0.6,-0.2 -0.4,4.7 3.9,8.2 6.7,9.7 -1.2,-2.2 -0.7,-2.4 -0.3,-4.1 0,-0.2 0.1,-0.5 0.1,-0.7 l 0.9,1.7 c 1.2,1.6 3,2.6 3.5,5.1 -0.4,-2.3 0.9,-3.5 1.4,-5.1 a 3.6,3.6 0 0 0 0.2,-1 l 0.6,1 c 1,1.6 2.7,2.6 3.1,5 -0.3,0.2 -0.2,1 0.1,1.5 0.3,0.5 -0.3,0.7 -0.8,0.1 a 6.5,6.5 0 0 1 -1.3,-2.3 l -0.6,-2 A 0.3,0.3 0 0 0 64.8,67 c 0,-0.1 -0.1,-0.2 -0.2,-0.1 -0.1,0.1 -0.2,0 -0.2,0.1 v 0.2 a 19.4,19.4 0 0 0 0.5,2 4.3,4.3 0 0 1 -0.2,2.3 c -0.2,0.6 -0.9,0.2 -0.9,-0.1 0,-0.3 -0.3,-1.7 -1,-1.6 v 0 c -0.7,-0.1 -0.4,1 0,1.6 0.4,0.6 -0.1,0.7 -0.7,0.1 A 10.7,10.7 0 0 1 59.6,67.3 C 59.5,66.9 59.2,66.8 59.1,66.9 59,67 58.9,67 59,67.3 a 6.8,6.8 0 0 1 0.9,4.2 C 59.8,72 59,71.7 59,71.3 c 0,-0.4 -0.5,-1.6 -1.2,-1.5 -0.7,0.1 -0.3,0.9 0.3,1.5 0.6,0.6 0.4,0.6 -0.2,0.2 a 7.5,7.5 0 0 1 -3,-4.4 c -0.1,-0.5 -0.6,-0.7 -0.5,-0.2 0.9,4.7 5.4,8.2 7.9,9.7 -1.5,-2.2 -1.2,-2.4 -1.2,-4 A 1.5,1.5 0 0 0 61,71.9 l 1.1,1.6 c 1.3,1.7 2.8,2.7 3.6,5.1 -0.7,-2.2 0.1,-3.4 0.3,-5.1 v -1 l 0.6,1 c 1,1.7 2.4,2.7 2.8,5.1 -0.4,-2.2 0.6,-3.4 1,-5.1 a 3.6,3.6 0 0 0 0.2,-1 c 0.2,0.3 0.3,0.7 0.5,1 0.2,0.3 2,2.7 2.1,5.1 -0.1,-2.2 1.1,-3.4 1.7,-5.1 a 4.2,4.2 0 0 0 0.4,-1 l 0.3,1 c 0.5,1.7 1.6,2.7 1.4,5.1 0.2,-2.2 1.6,-3.4 2.4,-5.1 L 80,72.4 a 3.7,3.7 0 0 0 0.1,1.1 c 0.3,1.7 1.3,2.7 0.7,5.1 0.5,-2.2 2.1,-3.4 3.2,-5.1 l 0.6,-1 v 1 c 0.1,1.7 0.9,2.7 0,5.1 0.8,-2.2 2.5,-3.4 3.9,-5.1 l 1.2,-1.7 a 1.7,1.7 0 0 0 -0.1,0.7 c -0.1,1.6 0.2,1.8 -1.4,3.9 2.5,-1.4 7,-4.8 8.1,-9.4 0.2,-0.5 -0.4,-0.2 -0.5,0.2 a 7.4,7.4 0 0 1 -3.1,4.3 c -0.6,0.4 -0.8,0.4 -0.2,-0.2 0.6,-0.6 1,-1.4 0.4,-1.5 -0.6,-0.1 -1.2,0.9 -1.3,1.5 -0.1,0.6 -0.7,0.7 -0.8,0.1 a 4.7,4.7 0 0 1 0.4,-2.5 c 0.2,-0.6 0.5,-1.1 0.7,-1.7 0.2,-0.6 -0.3,-0.5 -0.5,0.1 l -0.3,0.5 -0.3,0.7 a 8.9,8.9 0 0 1 -2.2,3 c -0.6,0.6 -1,0.2 -0.7,-0.1 0.3,-0.3 0.8,-1.7 0.1,-1.6 h -0.1 c -0.6,-0.1 -1,1 -1,1.6 0,0.6 -0.7,0.7 -0.9,0.1 a 4.6,4.6 0 0 1 0,-2.6 10.3,10.3 0 0 0 0.4,-1.4 0.3,0.3 0 0 0 0.1,-0.2 C 86.6,67 86.5,66.8 86.4,66.9 86.3,67 86.1,67 86,67.3 v 0.2 c -0.1,0.4 -0.3,0.9 -0.4,1.4 a 8.3,8.3 0 0 1 -1.7,2.6 c -0.5,0.6 -1,0.2 -0.7,-0.1 0.3,-0.3 0.6,-1.7 -0.2,-1.6 v 0 c -0.7,-0.1 -0.9,1 -0.8,1.6 a 0.5,0.5 0 0 1 -0.9,0.1 7.4,7.4 0 0 1 -0.1,-4.2 c 0.1,-0.4 0,-0.5 -0.2,-0.4 -0.2,0.1 -0.3,0 -0.3,0.4 A 8,8 0 0 1 79,71.5 c -0.4,0.6 -1,0.2 -0.8,-0.1 0.2,-0.3 0.4,-1.3 0,-1.5 0,-2.2 1.6,-3.4 2.4,-5 l 0.5,-1.2 0.3,1.2 c 0.8,1.6 2.3,2.6 2.2,5.1 0.1,-2.3 1.8,-3.5 2.7,-5.1 a 5.4,5.4 0 0 0 0.5,-1.1 l 0.3,1.1 c 0.7,1.6 2.1,2.6 1.8,5.1 0.3,-2.3 2,-3.5 3.1,-5.1 a 8.9,8.9 0 0 0 0.8,-1.7 c 0.1,0.2 0.1,0.4 0.2,0.6 0.1,0.2 1,1.8 0,4 2.6,-1.4 6.4,-4.8 5.6,-9.4 z M 74.6,57 a 3.7,3.7 0 0 0 0.5,-1.1 3.6,3.6 0 0 0 0.4,1.1 c 0.8,1.5 2.2,2.4 2.5,4.2 -0.7,0 -0.7,1 -0.4,1.5 0.3,0.5 -0.6,0.7 -1,0.1 a 4.1,4.1 0 0 1 -1.1,-2.6 c 0,-0.5 -0.1,-0.9 -0.1,-1.3 v -0.3 c 0,-0.3 -0.2,-0.4 -0.3,-0.4 -0.1,0 -0.3,0.1 -0.3,0.4 v 1.6 a 3.9,3.9 0 0 1 -0.9,2.6 c -0.4,0.6 -1.1,0.3 -1,-0.1 0.1,-0.4 0.2,-1.6 -0.7,-1.5 h -0.1 c 0.4,-1.7 1.8,-2.8 2.5,-4.2 z m -7.5,5.7 c 0.2,-0.6 0,-1.6 -0.8,-1.5 H 66 c 0.3,-1.7 1.7,-2.7 2.5,-4.2 a 3.6,3.6 0 0 0 0.4,-1.1 3.7,3.7 0 0 0 0.5,1.1 c 0.7,1.5 2.2,2.4 2.5,4.2 -0.5,0.2 -0.4,1 -0.2,1.5 0.2,0.5 -0.4,0.7 -1,0.1 a 5.7,5.7 0 0 1 -1.2,-2.6 c -0.1,-0.5 -0.1,-0.9 -0.2,-1.3 v -0.3 c 0,-0.3 -0.2,-0.4 -0.3,-0.4 -0.1,0 -0.4,0.1 -0.3,0.4 v 0.3 c 0,0.4 0.1,0.8 0.1,1.3 a 3.8,3.8 0 0 1 -0.7,2.6 c -0.4,0.6 -1.1,0.3 -1,-0.1 z m 5.3,8.7 c 0.2,0.3 -0.4,0.7 -0.8,0.1 A 6.6,6.6 0 0 1 70.5,68.9 5.9,5.9 0 0 0 70.3,67.5 V 67.3 C 70.3,67 70.1,66.8 70,66.9 69.9,67 69.7,67 69.8,67.3 v 0.2 a 6.1,6.1 0 0 1 0.1,1.4 4.6,4.6 0 0 1 -0.4,2.6 c -0.3,0.6 -1,0.2 -0.9,-0.1 0.1,-0.3 -0.1,-1.7 -0.8,-1.6 h -0.3 c -0.3,-2.2 1.1,-3.4 1.8,-5 a 4.3,4.3 0 0 0 0.2,-1.1 l 0.5,1.1 c 1,1.6 2.6,2.6 2.8,4.9 -0.7,0.1 -0.6,1.1 -0.4,1.7 z m 5.5,-1.6 v 0 c -0.7,-0.1 -0.9,1 -0.7,1.6 0.2,0.6 -0.5,0.7 -0.8,0.1 a 4.8,4.8 0 0 1 -0.7,-2.6 v -1.6 c 0,-0.3 -0.1,-0.5 -0.3,-0.4 -0.2,0.1 -0.2,0.1 -0.2,0.4 v 0.2 a 6.1,6.1 0 0 0 -0.1,1.4 6.2,6.2 0 0 1 -0.9,2.6 c -0.3,0.6 -0.9,0.2 -0.8,-0.1 0.1,-0.3 0.2,-1.7 -0.5,-1.6 h -0.1 c 0,-2.1 1.4,-3.3 2.1,-4.9 a 4.9,4.9 0 0 0 0.4,-1.1 4.9,4.9 0 0 0 0.4,1.1 c 0.9,1.6 2.5,2.6 2.5,5 z m 6.2,-8.6 v 0 c -0.8,-0.1 -0.9,0.9 -0.7,1.5 0.2,0.6 -0.5,0.7 -1,0.1 a 5.9,5.9 0 0 1 -0.9,-4.2 c 0,-0.3 -0.1,-0.4 -0.3,-0.4 -0.2,0 -0.3,0.1 -0.3,0.4 a 6.5,6.5 0 0 1 -1.1,4.2 c -0.5,0.6 -1.2,0.3 -1,-0.1 C 79,62.3 79,61.2 78.2,61.2 78.6,59.5 80,58.4 80.8,57 a 3.4,3.4 0 0 0 0.4,-1.2 3.3,3.3 0 0 0 0.5,1.2 c 0.7,1.5 2.2,2.4 2.5,4.2 z m 5.9,0 v 0 c -0.8,-0.1 -1,0.9 -0.8,1.5 0.2,0.6 -0.6,0.7 -1,0.1 a 4.4,4.4 0 0 1 -0.7,-2.6 c 0,-0.5 0.1,-0.9 0.1,-1.3 v -0.3 c 0.1,-0.3 -0.1,-0.4 -0.2,-0.4 A 0.4,0.4 0 0 0 87,58.6 v 0.3 c -0.1,0.4 -0.1,0.8 -0.2,1.3 a 4.8,4.8 0 0 1 -1.2,2.6 c -0.5,0.6 -1.2,0.3 -1,-0.1 0.2,-0.4 0.3,-1.3 -0.2,-1.5 0.4,-1.7 1.8,-2.8 2.5,-4.2 a 3.7,3.7 0 0 0 0.5,-1.1 3.6,3.6 0 0 0 0.4,1.1 c 0.8,1.5 2.2,2.4 2.6,4.2 z"
         class="j" />
      <path
         fill="#c9c8c9"
         d="m 75.2,96.4 c 4.1,-0.4 8.8,-3.5 7,-9.1 1.1,2.7 6.5,5.8 10.4,6.4 -3.2,2 -10.7,2.7 -17.4,2.7 z"
         class="k" />
      <path
         fill="#c9c8c9"
         d="m 27.2,60.9 c 0,27.9 23.7,39.1 47.8,39.1 24.1,0 47.8,-11.2 47.8,-39.1 v 54.2 H 27.2 Z"
         class="k" />
      <g
         style="opacity:0.5;mix-blend-mode:screen"
         class="l">
        <polygon
           fill="#c9c8c9"
           points="93.6,32.7 93.7,33.1 "
           class="k" />
      </g>
    </g>
    <g
       transform="matrix(1.6639229,0,0,1.6639229,26.192706,31.052257)">
      <path
         class="h"
         d="m 67.304205,60.209041 h -0.2 l -0.4,0.9 v 0 l -0.5,-0.9 h -0.3 v 1.5 h 0.3 v -0.9 0 l 0.3,0.7 h 0.3 l 0.3,-0.7 v 0 0.9 h 0.4 v -1.5 z"
         fill="#003282" />
      <path
         class="h"
         d="m 64.404205,60.209041 v 0.2 h 0.5 v 1.3 h 0.3 v -1.2 h 0.4 c 0.1,0 0.1,-0.1 0.1,-0.2 a 0.1,0.1 0 0 0 -0.1,-0.1 z"
         fill="#003282" />
    </g>
    <g
       transform="translate(-1.327227,-24.81997)">
      <path
         style="opacity:1;fill:#003282;fill-opacity:1;stroke:none;stroke-width:3;stroke-miterlimit:4;stroke-dasharray:none;stroke-opacity:1;paint-order:markers stroke fill"
         d="m 120.4533,226.24033 c -0.23299,0 -0.43244,0.12196 -0.54173,0.33126 -0.0951,0.18217 -0.46573,0.64733 -0.82362,1.03363 -0.35789,0.38631 -0.74997,0.93984 -0.87128,1.23017 -0.19914,0.47661 -0.19719,0.55375 0.0197,0.7934 0.13212,0.14599 0.3936,0.30389 0.58112,0.35096 0.18753,0.0471 0.37095,0.16901 0.40757,0.27092 0.0366,0.1019 0.0159,2.13953 -0.0462,4.52806 -0.0621,2.38852 -0.11786,4.75676 -0.12397,5.26281 l -0.0112,0.92008 h -0.96412 c -0.5698,0 -1.13922,0.0904 -1.39196,0.2211 -0.42712,0.22088 -0.42737,0.22202 -0.2151,0.82362 0.11689,0.33132 0.38746,0.92384 0.60127,1.31667 0.28343,0.52074 0.49324,0.73078 0.77449,0.77539 0.21216,0.0337 1.47175,0.0538 2.79908,0.0447 2.40081,-0.0164 2.41469,-0.0183 2.66491,-0.38447 0.20291,-0.2969 0.23441,-0.56476 0.16291,-1.38606 -0.0874,-1.00412 -0.0957,-1.02052 -0.60116,-1.18998 l -0.5124,-0.17175 0.0384,-4.03614 c 0.0211,-2.21989 0.109,-5.0833 0.19518,-6.36302 0.0862,-1.27972 0.11871,-2.47788 0.0723,-2.66265 -0.0464,-0.18477 -0.22444,-0.5142 -0.39579,-0.73204 -0.17134,-0.21783 -0.56769,-0.52662 -0.88068,-0.68629 -0.31299,-0.15968 -0.73495,-0.29039 -0.93774,-0.29039 z m -27.277497,0.001 c -0.508109,0.001 -0.914078,0.12198 -1.459198,0.43463 -0.415394,0.23825 -1.068358,0.7841 -1.451048,1.21307 -0.382685,0.42897 -0.853557,1.1153 -1.046314,1.52521 -0.192751,0.4099 -0.387931,0.93992 -0.433717,1.17775 -0.07152,0.3714 -0.01816,0.46876 0.378128,0.69003 0.253765,0.14169 0.752774,0.25767 1.108916,0.25767 0.597834,0 0.67018,-0.0425 0.941705,-0.55213 0.161757,-0.30363 0.378349,-0.65295 0.481382,-0.77631 0.103032,-0.12335 0.378447,-0.37175 0.612028,-0.55202 0.24594,-0.18982 0.633192,-0.32775 0.920084,-0.32775 0.307869,0 0.613066,0.11765 0.806298,0.31088 0.264361,0.26436 0.30154,0.44148 0.24794,1.18251 -0.04861,0.67206 -0.222696,1.18255 -0.760454,2.23052 -0.383554,0.74746 -1.020299,1.8218 -1.415047,2.38743 -0.394741,0.56562 -1.315636,1.8896 -2.046319,2.94218 -0.730683,1.05256 -1.595891,2.24501 -1.922692,2.64985 -0.326795,0.40484 -0.59486,0.80412 -0.595729,0.88725 -8.7e-4,0.0831 0.445675,0.58889 0.992198,1.12387 0.546528,0.53498 1.092987,1.00828 1.214435,1.05175 0.121454,0.0435 0.651463,0.0831 1.17775,0.0881 0.526287,0.005 1.397888,-0.0845 1.936847,-0.19868 0.538964,-0.11424 1.648929,-0.41414 2.466681,-0.66649 1.118179,-0.34505 1.545711,-0.54867 1.724232,-0.82113 0.20075,-0.30638 0.208789,-0.43131 0.05196,-0.80992 -0.102001,-0.24624 -0.39142,-0.55584 -0.643162,-0.68789 -0.320766,-0.16826 -0.743992,-0.22685 -1.414594,-0.19597 -0.526281,0.0242 -1.419434,0.0525 -1.984738,0.063 -0.822221,0.0152 -1.036703,-0.0268 -1.072461,-0.20979 -0.02458,-0.1258 0.300948,-0.6226 0.723541,-1.10405 0.422582,-0.48144 1.33065,-1.73654 2.017906,-2.7891 0.687249,-1.05258 1.438661,-2.33021 1.669773,-2.83916 0.238914,-0.52612 0.487085,-1.4218 0.575122,-2.07598 0.109699,-0.81532 0.108296,-1.4018 -0.0046,-2.01281 -0.08767,-0.47426 -0.374401,-1.21743 -0.637156,-1.65144 -0.262773,-0.43401 -0.693024,-0.9535 -0.956196,-1.15443 -0.263173,-0.20093 -0.708274,-0.46133 -0.989027,-0.57863 -0.280754,-0.11731 -0.827241,-0.21267 -1.214436,-0.21194 z m 9.468437,0.29628 c -0.17003,0.002 -0.59013,0.13077 -0.93355,0.28666 -0.34342,0.15588 -0.89202,0.56853 -1.21908,0.91691 -0.32705,0.34837 -0.856841,1.16333 -1.17741,1.81106 -0.320569,0.64774 -0.683616,1.57524 -0.806751,2.06104 -0.123134,0.4858 -0.264233,1.51262 -0.313491,2.28181 -0.04925,0.76918 -0.01526,2.00112 0.07552,2.73771 0.09077,0.73659 0.297355,1.86284 0.459077,2.50269 0.161716,0.63984 0.52289,1.63009 0.802565,2.20051 0.326998,0.66696 0.71923,1.20649 1.09906,1.51173 0.32486,0.26106 0.74204,0.5354 0.92699,0.60965 0.18496,0.0743 0.52503,0.13919 0.7557,0.14435 0.23066,0.005 0.64309,-0.0968 0.91657,-0.22654 0.27348,-0.12977 0.72831,-0.49185 1.01076,-0.80449 0.28245,-0.31264 0.69144,-0.91857 0.90887,-1.34655 0.27065,-0.53275 0.45702,-1.24234 0.59086,-2.25022 0.10753,-0.80966 0.19539,-2.53214 0.19598,-3.82762 0,-1.29547 -0.0947,-3.02479 -0.21103,-3.843 -0.11634,-0.81822 -0.30443,-1.75737 -0.41798,-2.08697 -0.11356,-0.3296 -0.42694,-0.87763 -0.69638,-1.21783 -0.26944,-0.3402 -0.75248,-0.8088 -1.07348,-1.04133 -0.321,-0.23253 -0.72277,-0.42135 -0.8928,-0.41957 z m 9.87737,0.0126 c -0.18045,1.7e-4 -0.37765,0.007 -0.59811,0.0202 -0.76597,0.0454 -1.45133,0.18332 -1.90253,0.38289 -0.38789,0.17156 -1.06012,0.64754 -1.49385,1.05774 -0.47934,0.45335 -0.91624,1.04267 -1.11413,1.50268 -0.24363,0.56635 -0.30778,0.94201 -0.25484,1.49305 0.0568,0.59127 0.16187,0.81779 0.53357,1.1499 0.25459,0.22747 0.61858,0.41357 0.8088,0.41357 0.19022,0 0.5128,-0.13135 0.71686,-0.29187 0.21908,-0.17233 0.41326,-0.51689 0.47414,-0.84139 0.0567,-0.30225 0.19243,-0.72237 0.3017,-0.93367 0.10927,-0.2113 0.46814,-0.62763 0.79748,-0.92517 0.45028,-0.4068 0.72707,-0.54105 1.11583,-0.54105 0.42351,0 0.57125,0.0865 0.81728,0.47844 0.22525,0.35885 0.28348,0.64409 0.23299,1.14096 -0.0418,0.41118 -0.37197,1.25635 -0.87061,2.22825 -0.44184,0.8612 -1.52479,2.61073 -2.40656,3.88784 -0.88177,1.27712 -2.07667,2.95438 -2.6553,3.7272 l -1.05197,1.40508 0.90479,0.9982 0.9048,0.99831 2.79704,-0.0771 c 1.53837,-0.0424 3.05244,-0.1096 3.36457,-0.14932 0.31212,-0.0397 0.7621,-0.17291 1.00001,-0.29594 0.23791,-0.12303 0.50152,-0.37496 0.58577,-0.55984 0.11445,-0.2512 0.0955,-0.47397 -0.0747,-0.88147 -0.16046,-0.38405 -0.39262,-0.61954 -0.78513,-0.79634 -0.44423,-0.20011 -0.93825,-0.24558 -2.4343,-0.22382 -1.03233,0.015 -1.87696,-0.0236 -1.87696,-0.0859 0,-0.0623 0.1718,-0.274 0.38176,-0.47028 0.20996,-0.1963 0.89192,-1.11871 1.51558,-2.04983 0.62365,-0.93112 1.37343,-2.09036 1.66615,-2.57616 0.29272,-0.48581 0.77265,-1.36368 1.06658,-1.95077 0.29393,-0.58709 0.66423,-1.57485 0.82283,-2.19497 0.1586,-0.62012 0.28814,-1.36529 0.28756,-1.65597 -5.8e-4,-0.29067 -0.0717,-0.78379 -0.15838,-1.0959 -0.0867,-0.3121 -0.42259,-0.85507 -0.74653,-1.20651 -0.39584,-0.42944 -0.83236,-0.71968 -1.33104,-0.88532 -0.40987,-0.13613 -0.79978,-0.19618 -1.34112,-0.19563 z m -9.66634,3.95894 c 0.0657,0 0.19981,0.2437 0.29809,0.54149 0.11791,0.35727 0.1486,0.99574 0.0901,1.87696 -0.0487,0.73453 -0.15973,2.16353 -0.24658,3.17562 -0.0868,1.01209 -0.22451,2.17928 -0.3059,2.59371 -0.0814,0.41443 -0.23759,0.87602 -0.34711,1.02582 -0.18183,0.24865 -0.21844,0.20718 -0.4216,-0.47697 -0.12239,-0.41212 -0.33588,-1.30432 -0.47437,-1.9827 -0.18061,-0.88495 -0.23138,-1.64932 -0.17955,-2.70556 0.0532,-1.08531 0.17241,-1.74285 0.45342,-2.50256 0.20963,-0.56677 0.52347,-1.14645 0.6975,-1.28814 0.17403,-0.14169 0.37026,-0.25767 0.43598,-0.25767 z" />
    </g>
  </g>
</svg>
