<?xml version="1.0" encoding="utf-8"?>
<!-- Generator: Adobe Illustrator 15.0.0, SVG Export Plug-In . SVG Version: 6.00 Build 0)  -->
<!DOCTYPE svg PUBLIC "-//W3C//DTD SVG 1.1//EN" "http://www.w3.org/Graphics/SVG/1.1/DTD/svg11.dtd">
<svg version="1.1" id="Layer_1" xmlns="http://www.w3.org/2000/svg" xmlns:xlink="http://www.w3.org/1999/xlink" x="0px" y="0px"
	 width="175.748px" height="117.402px" viewBox="0 0 175.748 117.402" enable-background="new 0 0 175.748 117.402"
	 xml:space="preserve">
<g>
	<path fill-rule="evenodd" clip-rule="evenodd" d="M112.118,81.722l-15.841,35.681h27.068l15.84-35.681H112.118L112.118,81.722
		L112.118,81.722L112.118,81.722z M122.312,115.563H98.95l14.192-31.986h23.377L122.312,115.563L122.312,115.563L122.312,115.563z"
		/>
	<path fill-rule="evenodd" clip-rule="evenodd" d="M115.911,89.104l-3.478,7.844h12.61l3.492-7.844H115.911L115.911,89.104
		L115.911,89.104L115.911,89.104z M124.023,95.094h-8.92l1.843-4.154h8.92L124.023,95.094L124.023,95.094L124.023,95.094z"/>
	<path fill-rule="evenodd" clip-rule="evenodd" d="M141.239,81.722l-15.841,35.681h27.068l15.84-35.681H141.239L141.239,81.722
		L141.239,81.722L141.239,81.722z M151.433,115.563h-23.361l14.192-31.986h23.377L151.433,115.563L151.433,115.563L151.433,115.563z
		"/>
	<path fill-rule="evenodd" clip-rule="evenodd" d="M157.657,89.104h-12.625l-9.37,20.744h12.611L157.657,89.104L157.657,89.104z
		 M147.252,107.993L147.252,107.993h-8.92l7.735-17.054h8.921L147.252,107.993L147.252,107.993z"/>
	<polygon fill-rule="evenodd" clip-rule="evenodd" points="118.519,108.168 109.597,108.168 111.44,104.014 120.359,104.014 
		118.519,108.168 119.553,110.003 123.03,102.159 110.419,102.159 106.927,110.003 119.553,110.003 118.519,108.168 
		118.519,108.168 	"/>
	<path fill-rule="evenodd" clip-rule="evenodd" fill="#00AB4E" d="M96.621,28.299c-6.15,15.226-23.453,14.995-23.453,14.995H31.565
		l2.23-4.998h38.373C72.169,38.296,88.932,38.602,96.621,28.299L96.621,28.299L96.621,28.299z"/>
	<path fill-rule="evenodd" clip-rule="evenodd" fill="#00AB4E" d="M93.199,35.988c-6.151,15.226-23.454,14.995-23.454,14.995H28.143
		l2.231-4.998h38.373C68.747,45.985,85.51,46.292,93.199,35.988L93.199,35.988L93.199,35.988z"/>
	<path fill-rule="evenodd" clip-rule="evenodd" fill="#00AB4E" d="M106.042,22.685c6.151-15.226,23.454-14.996,23.454-14.996h42.831
		l-2.23,4.999h-39.602C130.495,12.688,113.73,12.38,106.042,22.685L106.042,22.685L106.042,22.685z"/>
	<path fill-rule="evenodd" clip-rule="evenodd" fill="#00AB4E" d="M109.464,14.996C115.616-0.23,132.917,0,132.917,0h42.831
		l-2.229,4.999h-39.603C133.917,4.999,117.153,4.691,109.464,14.996L109.464,14.996L109.464,14.996z"/>
	<path fill-rule="evenodd" clip-rule="evenodd" fill="#FFFFFF" d="M89.778,43.678c-6.152,15.225-23.455,14.995-23.455,14.995h-41.6
		l2.23-4.998h38.371C65.324,53.675,82.088,53.982,89.778,43.678L89.778,43.678L89.778,43.678z"/>
	<path fill-rule="evenodd" clip-rule="evenodd" fill="#FFFFFF" d="M102.62,30.375c6.152-15.226,23.454-14.996,23.454-14.996h42.831
		l-2.23,4.999h-39.601C127.074,20.377,110.31,20.07,102.62,30.375L102.62,30.375L102.62,30.375z"/>
	<path fill-rule="evenodd" clip-rule="evenodd" fill="#E23E21" d="M86.356,51.368c-6.152,15.227-23.454,14.999-23.454,14.999H21.301
		l2.231-5.002h38.37C61.901,61.364,78.666,61.673,86.356,51.368L86.356,51.368L86.356,51.368z"/>
	<path fill-rule="evenodd" clip-rule="evenodd" fill="#E23E21" d="M82.934,59.058C76.781,74.284,59.48,74.054,59.48,74.054H17.879
		l2.23-4.998H58.48C58.48,69.056,75.244,69.363,82.934,59.058L82.934,59.058L82.934,59.058z"/>
	<path fill-rule="evenodd" clip-rule="evenodd" fill="#E23E21" d="M95.775,45.754c6.152-15.226,23.455-14.995,23.455-14.995h42.831
		l-2.229,4.998H120.23C120.23,35.757,103.465,35.451,95.775,45.754L95.775,45.754L95.775,45.754z"/>
	<path fill-rule="evenodd" clip-rule="evenodd" fill="#E23E21" d="M99.198,38.064c6.152-15.226,23.453-14.995,23.453-14.995h42.831
		l-2.229,4.998h-39.603C123.651,28.068,106.888,27.759,99.198,38.064L99.198,38.064L99.198,38.064z"/>
	<polygon fill-rule="evenodd" clip-rule="evenodd" points="19.497,104.949 16.42,104.949 28.604,77.591 16.304,77.591 0,114.194 
		27.682,114.194 43.985,77.591 31.682,77.591 19.497,104.949 19.497,104.949 	"/>
	<path fill-rule="evenodd" clip-rule="evenodd" d="M114.501,49.907h9.228l4.421-10.15H115.5c-28.375,0-26.837,37.834-56.059,37.834
		h-12.38l-16.302,36.604h12.227c31.835,0,24.914-36.604,54.29-36.604l4.921-11.221c-26.452,0-30.144,38.579-52.905,38.579h-2.725
		l1.777-3.994h5.407c19.687,0,24.916-38.131,52.137-38.131h12.073l4.229-9.38h-12.61c-13.086,0-20.436,7.551-26.555,15.852
		C89.834,59.696,97.332,49.907,114.501,49.907L114.501,49.907L114.501,49.907L114.501,49.907z M57.903,90.698h-4.991l1.384-3.111
		h2.993c11.321,0,17.288-6.593,22.864-14.26C73.957,82.201,68.332,90.698,57.903,90.698L57.903,90.698L57.903,90.698z"/>
	<path fill-rule="evenodd" clip-rule="evenodd" d="M130.88,39.757l-4.511,10.144h15.367l-1.569,3.543h-15.343l-10.247,22.918h27.067
		l16.302-36.605H130.88L130.88,39.757L130.88,39.757L130.88,39.757z M130.705,66.388l1.598-3.579h3.69l-1.596,3.579H130.705
		L130.705,66.388L130.705,66.388z"/>
</g>
</svg>
