<?xml version="1.0" encoding="utf-8"?>
<!-- Generator: Adobe Illustrator 16.0.0, SVG Export Plug-In . SVG Version: 6.00 Build 0)  -->
<!DOCTYPE svg PUBLIC "-//W3C//DTD SVG 1.1//EN" "http://www.w3.org/Graphics/SVG/1.1/DTD/svg11.dtd">
<svg version="1.1" id="team_logos" xmlns="http://www.w3.org/2000/svg" xmlns:xlink="http://www.w3.org/1999/xlink" x="0px" y="0px"
	 width="200px" height="200px" viewBox="0 0 200 200" enable-background="new 0 0 200 200" xml:space="preserve">
<g id="falcons">
	<g>
		<path fill="#BBC4CA" d="M163.542,60.687C144,48.35,99.235,38.914,65.845,31.153L27.453,72.418l32.954-0.706
			c-16.408,26.511-13.064,88.849,28.43,97.135c-2.136-4.095-5.845-11.617-1.037-20.931c3.422-6.623,22.459-43.041,22.459-43.041
			c3.059,0-0.439,0,4.558,0c6.171,0,8.202,2.321,5.465,5.591c16.45-0.208,26.552-6.43,31.083-13.075
			c-3.449-6.312-14.429-13.746-18.878-16.758c15.935,0,20.311,0,23.017,0c6.601,0,8.088,2.766,6.533,5.777
			C172.811,84.292,178.319,70.012,163.542,60.687z"/>
		<path fill="#FFFFFF" d="M160.915,61.945c-26.619-14.931-92.529-24.881-92.529-24.881L40.152,67.308h29.272
			c-21.614,28.557-16.826,86.206,14.96,98.189c-2.254-5.36-3.398-11.58,0.665-19.498c4.586-8.926,11.885-23.934,22.339-43.967
			c0,0,6.715,0,8.531,0c7.082,0,9.346,2.992,8.385,5.304c5.823,0,16.47-0.571,24.195-9.945
			c-6.436-8.989-27.716-19.473-27.716-19.473s34.148,0,36.507,0c5.364,0,8.045,1.907,7.304,5.138
			C173.918,78.503,171.493,67.88,160.915,61.945z"/>
		<g>
			<path d="M117.709,78.9l0.674,1.994c-1.589,3.104-7.279,14.382-9.249,18.326c0,0,8.597,0,14.765,0
				c0.203,2.617,2.799,4.834,5.495,5.423c-1.598-2.136-0.963-4.252,0.229-5.423c3.138,0,6.073,0,6.974,0
				c1.938,0,1.34,2.327-1.811,4.747c4.933-1.127,8.616-3.37,11.027-6.577C141.237,90.41,117.709,78.9,117.709,78.9z"/>
			<path d="M159.808,63.951c-22.385-12.28-93.283-22.67-93.283-22.67l2.571,3.271L52.657,62.249l57.806,4.419
				c-0.105,0.21-0.214,0.422-0.321,0.64H71.315l3.008,2.835c-2.456,3.456-4.546,7.185-6.299,11.092l32.466-6.635
				c-0.176,0.26-0.351,0.522-0.523,0.787l-38.679,12.89l3.399,1.924c-1.596,5.308-2.631,10.808-3.128,16.308l32.862-19.944
				c-0.097,0.302-0.192,0.602-0.281,0.905l-36.242,28.595l3.342,0.838c0.189,6.201,1.059,12.246,2.569,17.855l29.5-34.774
				c0.049,0.276,0.104,0.554,0.165,0.83l-29.218,42.875l2.75,0.187c3.386,7.62,8.2,13.869,14.328,17.753
				c-2.366-5.26-1.613-11.573,1.132-17.199c2.378-4.865,33.354-66.547,33.354-66.547l-5.175-2.772c0.021,0,44.338,0,48.132,0
				c4.928,0,7.661,2.068,7.604,4.851C169.429,77.392,170.108,69.602,159.808,63.951z"/>
		</g>
		<path fill="#FFFFFF" d="M150.014,62.984c2.462,0.823,7.998,3.909,10.092,6.327h-3.979
			C154.56,66.732,150.014,62.984,150.014,62.984z M162.352,68.388l0.617,2.732c-4.212,0.793-11.666,1.426-13.771,1.594
			c-0.106,0.208-0.211,0.421-0.318,0.634c1.795,0,7.433,0,11.095,0c4.399,0,6.255,2.088,6.646,3.29
			C167.196,74.996,166.667,70.59,162.352,68.388z"/>
		<path fill="#C9243F" d="M144.434,66.044L67.713,55.428l4.693-5.083c25.841,3.994,56.749,10.306,72.439,14.877
			C144.712,65.49,144.571,65.767,144.434,66.044z M132.856,96.004l-16.758-2.501l-1.697,3.29h18.061
			C132.599,96.526,132.729,96.263,132.856,96.004z M66.393,123.261l21.346-23.812c-0.017-0.34-0.03-0.678-0.036-1.017l-22,18.699
			C65.85,119.206,66.084,121.254,66.393,123.261z M92.04,114.072c-0.153-0.275-0.304-0.553-0.449-0.831L72.39,142.192
			c1.008,1.908,2.122,3.694,3.333,5.332L92.04,114.072z M77.368,71.541c-1.042,1.43-2.011,2.914-2.913,4.45l23.13-4.132
			c0.203-0.265,0.408-0.53,0.614-0.792L77.368,71.541z M66.794,97.149l23.645-12.912c0.128-0.321,0.261-0.643,0.398-0.962
			l-22.755,8.176C67.576,93.328,67.148,95.23,66.794,97.149z"/>
	</g>
</g>
</svg>
