<?xml version="1.0" encoding="utf-8"?>
<!-- Generator: Adobe Illustrator 18.0.0, SVG Export Plug-In . SVG Version: 6.00 Build 0)  -->
<!DOCTYPE svg PUBLIC "-//W3C//DTD SVG 1.1//EN" "http://www.w3.org/Graphics/SVG/1.1/DTD/svg11.dtd">
<svg version="1.1" id="Layer_2" xmlns="http://www.w3.org/2000/svg" xmlns:xlink="http://www.w3.org/1999/xlink" x="0px" y="0px"
	 width="200px" height="200px" viewBox="0 0 200 200" enable-background="new 0 0 200 200" xml:space="preserve">
<g>
	<path fill="#FF3C00" d="M91.6,110.1c2.3,2.4,5.7,5.9,8.2,8.4c-0.6-3.7-0.7-7.4,0-10.9c0.5-2.4,1.4-4.4,2.4-6.2l-2.2-4.8
		c-0.5,0.7-1.4,2.1-2.2,3.4C97.9,99.9,94.8,104.9,91.6,110.1z"/>
	<path fill="#FF3C00" d="M101.8,126.6c-2.1-1.3-4.3-2.9-6.4-5.2c0,0-3.6-3.4-6.7-6.5c-1.6,2.5-2.6,4.2-3.2,5.2l6.9,4.5
		c1.5,1,3.1,2.1,3.2,4.3c0.1,2.2-1.9,4.8-2.5,5.7c-0.8,1.1-3.4,4.1-6.7,2c0,0-4.8-3-8.2-5l-2.6,3.9c2.5,0.4,16,2.5,27.1,4.3
		c-0.6-4.3-2-8.2-2.9-11.6c1.5,3.2,3,7.3,3.9,11.8c0.8,0.1,1.5,0.2,2.2,0.4c-0.2-1.1-0.5-2.2-0.7-3.1
		C104.9,135.3,103.2,131.4,101.8,126.6z"/>
	<path fill="#FF3C00" d="M111.1,92.8c4-2.1,6.4-3.3,12.7-4.1c0,0,1.6-0.2,1.6-0.2c1.1-0.2,3.1-0.6,3.7-1.6c0.3-0.6,0.5-1.4,0.4-2.4
		c-6.7,1.4-13.7,3.1-19.7,5.5c-2.1,0.8-3.7,1.8-5.4,2.9c0.5,1.1,1.1,2.3,1.7,3.7c1.6-1.5,3.2-2.6,4.4-3.3
		C110.6,93.1,111.1,92.8,111.1,92.8z"/>
	<path fill="#311D00" d="M75.4,163.4c-6.7-0.3-14.5-3.1-20.1-5.9c-2.7-1.6-9.3-5-11.9-5.1c3,0.7,9.3,4.2,11.5,5.7
		c4.8,2.6,12.9,6.3,20.5,6.6c18.2,1.1,28.3-8.7,28.9-19c-0.5-0.1-1-0.2-1.5-0.2C101.3,158.3,87.5,164.5,75.4,163.4z"/>
	<path fill="#311D00" d="M102.7,139.7c0.4,0.1,0.7,0.1,1.1,0.2c-0.9-4.5-2.4-8.6-3.9-11.8C100.7,131.5,102.1,135.4,102.7,139.7z"/>
	<path fill="#311D00" d="M61.7,121.5c-2,0-3.8,0.7-5.1,2.1c-3,3-2.7,8.2,0.5,11.6c1.6,1.7,3.8,2.7,6.1,2.7c0.8,0,1.6-0.1,2.3-0.4
		l4.9-7.2c0-2.1-0.9-4.4-2.5-6.1C66.1,122.5,63.9,121.5,61.7,121.5z"/>
	<path fill="#311D00" d="M51.5,142.7c6.8,8.7,18.8,8.8,24.9,2.4C73.8,146.3,63,153.4,51.5,142.7z"/>
	<path fill="#311D00" d="M84.6,149.7c0.4,0.8,1.2,1.4,2.1,1.4c0.7,0,1.3-0.3,1.7-0.7c1.3-0.5,2.2-1.8,2.2-3.3c0-2-1.6-3.6-3.6-3.6
		c-2,0-3.6,1.6-3.6,3.6C83.4,148,83.8,149,84.6,149.7z M86.7,150.6c-1.1,0-2-0.9-2-2c0-1.1,0.9-2,2-2c1.1,0,2,0.9,2,2
		C88.6,149.7,87.8,150.6,86.7,150.6z M88.2,146.6c-0.5-0.6-1.8-0.8-2.5-0.3c-0.3,0.2-0.7-0.1-0.3-0.5c0.8-0.7,2.4-0.7,3.1,0.4
		C88.9,146.7,88.5,147.1,88.2,146.6z M87.1,144c2.3,0,4,3,2,5c0.9-1.8,0.2-4.2-2.1-4.3c-2.3-0.1-3.1,2.2-2.7,3.5
		C83.5,147.5,83.8,144,87.1,144z"/>
	<path fill="#FFFFFF" d="M85.5,145.8c-0.4,0.4-0.1,0.7,0.3,0.5c0.7-0.5,2-0.2,2.5,0.3c0.3,0.4,0.6,0.1,0.3-0.5
		C87.8,145.1,86.3,145.1,85.5,145.8z"/>
	<path fill="#FFFFFF" d="M87,144.8c2.2,0.1,2.9,2.4,2.1,4.3c2-2,0.3-5-2-5c-3.3,0-3.6,3.5-2.8,4.3C83.9,147.1,84.7,144.7,87,144.8z"
		/>
	<path fill="#FFFFFF" d="M88.6,148.6c0-1.1-0.9-2-2-2c-1.1,0-2,0.9-2,2c0,1.1,0.9,2,2,2C87.8,150.6,88.6,149.7,88.6,148.6z
		 M86.7,150.2c-0.9,0-1.6-0.7-1.6-1.6c0-0.9,0.7-1.6,1.6-1.6c0.9,0,1.6,0.7,1.6,1.6C88.2,149.5,87.5,150.2,86.7,150.2z"/>
	<path fill="#311D00" d="M86.7,147.1c-0.9,0-1.6,0.7-1.6,1.6c0,0.9,0.7,1.6,1.6,1.6c0.9,0,1.6-0.7,1.6-1.6
		C88.2,147.8,87.5,147.1,86.7,147.1z M85.5,148.7c0-0.2,0.1-0.1,0.2,0.1c0.4,0.7,1.6,0.7,2,0.2c0.2-0.3,0.2,0.1,0.2,0.1
		C87.1,150.5,85.4,149.6,85.5,148.7z"/>
	<path fill="#FFFFFF" d="M87.6,148.9c-0.4,0.5-1.6,0.5-2-0.2c0-0.2-0.1-0.3-0.2-0.1c-0.1,0.9,1.6,1.8,2.3,0.4
		C87.8,149,87.8,148.7,87.6,148.9z"/>
	<path fill="#311D00" d="M54.1,148.6c-0.9,0.6-1.3,1.9-1.1,3.2c-0.4,0.8-0.2,1.9,0.7,2.8c0.9,0.9,2.2,1.2,3,0.7
		c0.7,0.1,1.4-0.1,1.9-0.5c1.3-1.1,1.4-3.2,0.2-4.9C57.5,148.2,55.5,147.6,54.1,148.6z M53.9,154.3c-0.8-0.9-1-2.1-0.3-2.7
		c0.7-0.6,1.9-0.4,2.7,0.5c0.8,0.9,1,2.1,0.3,2.7C55.9,155.4,54.7,155.2,53.9,154.3z M57.1,152.2c-0.2-0.5-1-1.2-1.4-1.3
		c-0.4-0.1-0.3-0.8,0.3-0.6c0.5,0.2,1.2,0.8,1.4,1.1C57.8,152.2,57.3,152.6,57.1,152.2z M57.7,154.6c2.4-3.1-2.3-6.8-4.1-3.9
		C55.1,146,61.3,152,57.7,154.6z"/>
	<path fill="#FFFFFF" d="M55.9,150.3c-0.5-0.2-0.7,0.5-0.3,0.6c0.4,0.1,1.2,0.7,1.4,1.3c0.2,0.4,0.7,0,0.2-0.8
		C57.2,151.1,56.4,150.5,55.9,150.3z"/>
	<path fill="#FFFFFF" d="M53.6,150.7c1.9-2.9,6.5,0.8,4.1,3.9C61.3,152,55.1,146,53.6,150.7z"/>
	<path fill="#FFFFFF" d="M56.3,152c-0.8-0.9-2.1-1.1-2.7-0.5c-0.7,0.6-0.5,1.9,0.3,2.7c0.8,0.9,2.1,1.1,2.7,0.5
		C57.3,154.2,57.1,152.9,56.3,152z M56.3,154.6c-0.6,0.4-1.5,0.1-2.2-0.6c-0.7-0.7-0.8-1.7-0.3-2.2c0.6-0.5,1.6-0.2,2.2,0.5
		C56.5,152.9,56.9,154.1,56.3,154.6z"/>
	<path fill="#311D00" d="M53.8,151.8c-0.5,0.5-0.4,1.5,0.3,2.2c0.7,0.6,1.6,1,2.2,0.6c0.6-0.5,0.2-1.7-0.3-2.3
		C55.4,151.6,54.4,151.3,53.8,151.8z M55.8,154.3c-1.1,0.1-2.1-1.3-1.7-1.9c0,0,0.3-0.4,0.4,0c0.1,0.7,0.8,1.4,1.5,1.6
		C56.1,154,56.1,154.3,55.8,154.3z"/>
	<path fill="#FFFFFF" d="M54.4,152.4c-0.1-0.4-0.4,0-0.4,0c-0.4,0.6,0.6,2,1.7,1.9c0.3-0.1,0.3-0.3,0.1-0.3
		C55.2,153.8,54.5,153.1,54.4,152.4z"/>
	<path fill="#FFFFFF" d="M48.8,158.2c0.2-0.2,0.5-0.3,0.6-0.5c-3.1-2-6.9-3.3-13.2-1.2c-0.1,0-0.2,0.1-0.3,0.1
		c1.5-0.3,3.6-0.6,4.9-0.6c1.6,0.1,4.1,0.4,6.4,1.8l-1.1,0.6c-5.4,2.6-10,3.4-12.6,3.6c-2.5,0.2-2.1-1.3-0.4-2.2
		c0.9-0.5,1.7-1.4,2-3c-0.3,0.1-0.3,0.1-0.7,0.2c0,0,0,0,0,0c-0.6,4-8.4,3.6-7.5-1.9c0,0-1.1-2.3-1.8-3.7c0,0.1-0.2-0.8-0.1-0.9
		c0,0,1.9,3.1,2.7,4.1c-1.1,3.7,4.4,5.3,5.8,2.5c-4.8,0.9-5-1.6-4.9-2.4c0-0.1-0.1-0.3-0.1-0.4c-0.8-0.8-3.5-4.5-6.6-10.1
		c-0.4,3.3,3.3,10.9,3.6,11.7c0.3,0.8,0.3,0.8,0.3,0.8c-1.1,3.1,2.1,7.2,8,6.3C39.6,162.6,46,160.2,48.8,158.2z"/>
	<path fill="#311D00" d="M130.4,148.1c0,0-0.3,0.1-1,0.1l0.4,0.7c0.2,0.5,0.5,0.9,0.8,1.4c0.7-0.8,1.2-1.6,1.8-2.4
		C131.7,148,131,148,130.4,148.1z"/>
	<path fill="#311D00" d="M133.2,129.3c0.6,4.3,0.4,8.8-0.8,12.8c0.8-0.1,1.7-0.2,2.5-0.3c0.5-1.9,0.8-4,1-6.1c0-0.2,0-0.4,0-0.6
		l18.6,3.2c0,0-1.2-2.8-1.6-3.7l-17.1-2.9c0-0.2,0-0.4,0-0.5c-0.1-0.7-0.1-1.4-0.2-2.1C134.7,129.2,134,129.2,133.2,129.3z"/>
	<path fill="#311D00" d="M101.8,126.6c1.5,4.8,3.1,8.7,3.5,10.6c0.2,0.9,0.4,1.9,0.7,3.1c1,0.2,1.9,0.3,2.9,0.5c0-0.2,0-0.4,0-0.5
		c3.1-2.3,5.6-6,6.9-9.4l-0.2-0.5c-0.2,0-0.3,0-0.5,0c-3.3-0.2-6.9-0.7-10.5-2.3c0.9,3.5,1.9,6.9,2.4,10.1
		c-0.6-2.7-2.1-6.4-3.5-10.6C102.8,127.2,102.3,126.9,101.8,126.6z"/>
	<path fill="#311D00" d="M99.8,118.4c0.4,0.4,0.8,0.7,1.1,1c0.1,0.1,0.2,0.1,0.3,0.2c-1.1-5.7-1.1-11.6,1.7-17l-0.6-1.4
		c-1,1.8-1.9,3.8-2.4,6.2C99.1,111,99.3,114.8,99.8,118.4z"/>
	<path fill="#FFFFFF" d="M131.2,114.2c-1.1-5.3,0.1-15,3.9-17.8C129.7,97,128.1,110.8,131.2,114.2z"/>
	<path fill="#311D00" d="M112.9,124.7l-9.4-20.8c-2.2,5.5-1.8,11.2-0.8,16.9C105.7,122.9,108.5,124.2,112.9,124.7z"/>
	<path fill="#FFFFFF" d="M190,155.8c-0.8-11.3-3.4-22.5-7.6-34.5l-0.5-1.2c-1.1-2.8-3-3.3-6.1-3l-2.7,0.3
		c-5.4,0.5-14.2,1.4-21.5,0.1L141.6,94c-0.1,0-0.2,0-0.3,0c-0.2,0-0.4,0-0.6,0.1c2.7,6.4,11.6,27.4,11.6,27.4
		c-1.7,0.3-3.6,0.4-3.6,0.4l-11.2-26.3c-0.3,0.3-0.5,0.5-0.6,0.7c-0.1,0.1-0.1,0.2-0.1,0.2s3.8,8.9,7.9,18.9
		c-0.5-0.2-0.9-0.5-1.2-0.8c-2-1.2-6.5-4.5-10.3-10.2c0,0,0,0.1-0.1,0.2c0,0.2-0.1,0.5-0.2,0.9c5.3,8.1,12.4,11.2,12.4,11.2l1.8,4.3
		c-7.1-2.1-13-8.5-14.6-10.4c0,0.2,0,0.4,0,0.5c0,0.2,0,0.3,0,0.5c4,5.1,9.2,8.7,14.8,10.6c-4.2,0.5-8.7,1.1-12.9,1.5
		c-0.8,0.1-1.6,0.2-2.4,0.2c-0.5-2.1-1.2-4.1-2-5.9c-4-9.4-14.9-5.1-14.1,0.6c-3.3-7.3-6.7-14.8-9.2-20.4c1-1.1,2.9-3.1,6.1-5.1
		c-2.2,1-4,2.5-4,2.5c-0.9,0.7-1.7,1.4-2.4,2.1c-0.2-0.4-0.4-0.8-0.6-1.2c-0.6-1.4-1.2-2.7-1.7-3.7c1.6-1,3.3-2.1,5.4-2.9
		c6.1-2.5,13-4.1,19.7-5.5c0.4-0.1,0.7-0.2,1.1-0.2c0.2,3.3-1.5,4.6-4.4,5.2c-1.9,0.4-3.4,0.5-4.2,0.7l1.8,0.1c0.1,0,2.1,0,4.9-1
		c1.8-0.7,3.2-1.9,2.6-5.2c0.3-0.1,0.6-0.1,0.9-0.2c0.5,3.1,0,6.1-6,6.7c1,0.7,10.5-1,16.1,0.3c0.1,0.1,2.5,0.9-0.2,2.1
		c5.3-1.2,5.5-6.4,4.5-10.3l0.2,0c1,0.1,1.8,0.2,2.5,0.3c0,0,0,0,0,0c0.5,0.1,1.1,0.1,1.8,0.2c3.9,0.4,3.6-4.2,1.5-4.8
		c-1.6-0.5-2-0.5-2.4-0.5l-0.6-0.1l-4.9-10.9l2.7-1.3l7,12.6c3.2,5.2-2.1,7.3-5.1,5.7c-0.4,0.2-0.7,0.4-0.9,0.6
		c0.8,0.6,1.9,0.9,3,0.9c2,0,3.7-0.9,4.5-2.3c0.6-1.1,0.9-2.8-0.6-5.4l-7.4-13.4l-5.9,2.6c0.5,0.1,0.8,0.3,1,0.7l1-0.4l4.6,10.4
		c-0.6-0.1-2.1-0.2-2.5-0.3c0,0-1.1,0-1.1,0c-1-3.1-2.3-7-3.2-9.3c-0.5-0.1-1.4-0.1-1.6-0.1c0,0,0,0,0,0.1c0.7,1.3,2.8,7.9,3.5,9.7
		c1,2.5,0.9,3.9,0.9,3.9l-4.6-0.1c-0.1-1.3-1.3-3.8-1.3-3.8l-1.7-3.4l-0.5-1l-1.8-3.7l0,0c-0.2-0.4-0.5-1.3-0.6-2
		c-0.3-2.4,2.1-2.4,2.1-2.4c1.2,0,2.2,0.5,3.2,1.9c0.2,0,0.4,0,0.6,0c-1.4-2.8-2.2-3.7-3.2-5.3c-17.7-25.3-47.2-32.7-73.1-26.4
		c32.9-4.8,58,9.3,70.5,30.5c-1,0.5-2.8,1.4-3.6,1.8c-0.4,0-1.7,0-2.2,0c-0.8,0.1-1.5,0.1-1,2c0.4,1.4,0.5,1.7,0.8,2.6
		c0.4,1,1.6,4.1,2.4,6.7c-0.3,0.1-0.6,0.1-0.9,0.2c-0.2-0.5-0.3-1-0.5-1.5c-1-2.6-2.3-6-2.6-7.1c-0.2-0.6-0.5-1.7-0.1-2.7
		c0,0-1.2,1-0.1,3.6l2.8,7.8c-0.4,0.1-0.8,0.1-1.1,0.2c-8.5,1.7-16.9,4-21.5,5.9c0,0-3.5,1.3-6,3.3c-0.1,0.1-0.1,0.1-0.1,0.2
		c-0.7,0.2-1.4,0.7-1.9,1.3c-0.3,0.3-1.2,0.9-1.5,1.3c-1,1.1-1.8,2.1-2.9,3.7c-1,1.4-4.4,6.9-7.5,11.9c-0.3,0.1-0.5,0.2-0.8,0.4
		c-0.8,0.6-1.3,1.7-1.1,2.9c-2.5,4.1-4,6.4-4.6,7.4c-1.4,0.1-2.1,1.2-2.1,1.3c-0.6,1.2-3.2,5.5-3.7,6c-0.3,0.3-0.9,1.4-0.6,2.7
		l-0.2,0.5c0,0-5.8,8.6-5.8,8.6c-0.5,0.7-0.6,1.5-0.2,2.2c0.5,1,1.7,1.8,2.9,1.8c0.7,0,1.3-0.1,1.7-0.5c2.3,0.4,18.5,3.1,30.7,5.1
		c0.5,0.1,1,0.2,1.5,0.2c0.8,0.1,1.6,0.3,2.4,0.4c0.7,0.1,1.3,0.2,1.9,0.3c-0.3,3.5-1.2,6.6-2.5,9.3l0.5,0.1
		c8.5,0.7,14.5-0.8,18.7-3.6c0.4,0.7,0.7,1.3,1.1,2c4.1,6.5,10.3,10.8,18.4,12.9c8.3,2.2,17.8,2,26.9-0.7c1.1,0.6,2.1,0.2,2.8-0.2
		c0.2-0.1,0.4-0.2,0.6-0.4c9.9-2.2,11.5-3.1,12.1-3.6c0.1,0,0.1-0.1,0.2-0.1C190.1,160.4,190,156,190,155.8z M175.8,153.5
		c-0.4-4-1.1-8.2-2-12.2c2.3-0.4,6.5-1.5,8-1.9l0.1,0.7c0.8,4.3,2,10.8,2.4,14.7c0,0.4,0,0.7-0.1,1c-0.8-0.2-1.3-0.2-1.5-0.2
		C180.4,155.2,178.1,154.5,175.8,153.5z M176.2,122.6C176.2,122.6,176.2,122.6,176.2,122.6l0.2,0c0.8,1.8,2,5.6,2.3,7l0.7,3
		c-2.4,0.6-5,0.9-7.6,1.2c-1-3.4-2.2-6.7-3.4-9.5C174.4,123.5,176.2,122.6,176.2,122.6z M182.3,138.3c0,0-1.5,0.8-8.4,2
		c0,0-0.6-2.2-0.8-3.3c0,0,5.9-1.2,8.1-2.1c0,0,0-0.8-1.2-0.7c0,0-5.9,1.5-7.3,1.6l-0.3-0.9c0,0,5.1-1,6.8-1.4c0,0,3.6-1.2,4.4,1.5
		C183.5,135.1,184.3,137.4,182.3,138.3z M181.4,122c4.6,12.9,8.2,30.5,7.1,36.6c0-0.8-1.2-2.2-3.3-2.7c0,0,0-0.8,0-1.8
		c-0.5-5.3-2.4-15-2.4-15c3-1,2.7-7-2.4-7c-1.2-5.5-3-9.9-3-9.9c2.7-1.5,1.5-4,0-4.5C177.4,117.9,180.2,117.3,181.4,122z
		 M176.3,118.5c0.9,0.2,1.3,0.7,1.5,1.5c0,0.3-0.1,1.4-1.3,1.6l-0.4,0.1c-1.1,0.3-3.2,0.8-5.4,1.2c-1.3,0.3-2.6,0.5-2.4,0.4
		c-0.3-0.6-0.5-1.3-1.3-2.8c2.4-0.4,5.4-1,7.5-1.6C175.1,118.6,176.3,118.5,176.3,118.5z M171.7,118.5c-1,0.4-5.6,1-5.6,1
		c-0.6-0.5-1.2-0.6-1.4-0.6c0,0,0,0,0,0c0,0,0,0,0,0C166.5,119,171.7,118.5,171.7,118.5z M162.1,119.1c-1,0.1-1,1-1,1
		c-2.4,0.6-7.8,1.2-7.8,1.2l-1.1-2.5C157.8,119.6,162.1,119.1,162.1,119.1z M152,79.1L152,79.1L152,79.1c0.8,0.1,1.2,1,1.1,1.7
		c0,0.4-0.3,1.3-1.6,1.3c-1.2-0.3-4.4-0.6-6.1-0.7c0-1.4-0.8-3.3-0.8-3.3C146.4,78.3,151,78.8,152,79.1z M139.7,82.9
		c0,0,2.7,0,4.1,0c0,0-1,1.9-5.4,1.6C138.5,84.6,139.7,83.8,139.7,82.9z M132.2,67.3l1.2-0.6c0,0,0.1-0.1,0.1,0
		c-0.1,0.1-0.1,0.4-0.1,0.4c0,0.4,0,0.6,0.4,1.8c0.7,1.9,4.3,9.4,4.7,10.5c2.1,5.4-3.3,6.4-3.9,4c5.7-0.4,3.4-6.5,0.2-5.6
		c-1.2-3.1-2.2-6.1-2.2-6.1S131.3,68.4,132.2,67.3z M131.7,71.8l2.2,6.3l-1.2,0.2c0,0-1.5-4-2.4-6.8c-0.7-2.1-0.2-3.1-0.2-3.1
		l1.1-0.5C130.8,69.3,131.7,71.8,131.7,71.8z M106.9,86.1c5.8-2.4,17.8-5.5,28.2-7.2c1.1-0.2,2,0.6,2.1,1.4c0.1,0.7-0.3,1.5-1.6,1.8
		l-0.6,0.1c-8.3,1.7-17.7,3.5-25.6,6.7c-2.5,0.9-3.8,1.6-5.2,2.7c0,0-0.8-1.7-1-2.1c-0.4-0.8-0.5-0.9-0.9-1.1
		C103.4,87.7,104.9,87,106.9,86.1z M99.3,90.7c0.4-0.7,1.3-1.2,1.9-1.2c0.4,0,0.8,0.1,0.8,0.2l15.9,35.3c0,0-2.2,0.1-3.9-0.3
		c-6.8-14.8-14.7-32.2-14.7-32.3C99,91.8,99,91.2,99.3,90.7z M102.3,101.3l0.6,1.4c-2.9,5.4-2.8,11.3-1.7,17
		c-0.1-0.1-0.2-0.1-0.3-0.2c-0.3-0.3-0.7-0.7-1.1-1c-2.6-2.5-6-5.9-8.2-8.4c3.2-5.2,6.3-10.2,6.3-10.2c0.8-1.3,1.7-2.7,2.2-3.4
		L102.3,101.3z M103.5,103.9l9.4,20.8c-4.4-0.5-7.2-1.8-10.2-3.9C101.6,115.1,101.3,109.4,103.5,103.9z M95,95.5
		c1-1.7,3.5-4.6,3.2-4.2c0,0-0.1,0.9,0.4,1.8c0.4,0.7,1.1,2.6,1.1,2.6c0.1-0.1-1.7,2.1-2.7,3.7l-6.1,9.9l-1.6-1.8
		c0,0-0.7-0.8-1.3-0.8C91.1,101.5,94,96.9,95,95.5z M104.4,127.9c3.7,1.6,7.3,2.1,10.5,2.3c0.2,0,0.3,0,0.5,0l0.2,0.5
		c-1.3,3.5-3.7,7.2-6.9,9.4c0,0.2,0,0.4,0,0.5c-0.9-0.1-1.9-0.3-2.9-0.5c-0.7-0.1-1.5-0.2-2.2-0.4c-0.4-0.1-0.7-0.1-1.1-0.2
		c-11.1-1.8-24.6-3.9-27.1-4.3l2.6-3.9c3.4,2,8.2,5,8.2,5c3.3,2.1,5.9-0.9,6.7-2c0.6-0.8,2.6-3.4,2.5-5.7c-0.1-2.2-1.7-3.3-3.2-4.3
		l-6.9-4.5c0.6-1,1.7-2.7,3.2-5.2c3.1,3.1,6.7,6.5,6.7,6.5c2.1,2.3,4.3,4,6.4,5.2c0.5,0.3,1,0.6,1.5,0.8c1.4,4.2,2.9,7.9,3.5,10.6
		C106.3,134.9,105.3,131.5,104.4,127.9z M159.4,138.5c-0.6,0.3-3.5,0.7-3.5,0.7c-0.7-1.3-5-11.9-5-11.9c0.5-0.1,3.4-0.5,3.4-0.5
		C156.6,132.9,159.4,138.5,159.4,138.5z M160.3,138.2l-1.3-3c4.4,0.1,7.5,0,7.5,0c0.5,1.9-1.3,2-1.3,2L160.3,138.2z M158.6,134.3
		l-3.3-7.9c2.2-0.4,4.3-0.7,6.1-1l0,0l0,0c0.5-0.2,0.9-0.1,1.2,0c0.5,0.3,0.7,0.8,0.7,0.8l0,0l0,0c0.7,1.9,2.1,5.9,2.8,8
		C163.2,134.3,160.6,134.3,158.6,134.3z M152.6,133.8l-16.9-2.9c0,0.1,0,0.2,0,0.3c0,0.2,0,0.4,0,0.5l17.1,2.9
		c0.3,0.9,1.6,3.7,1.6,3.7l-18.6-3.2c0,0.2,0,0.4,0,0.6c0,0.1,0,0.2,0,0.3l18.4,3.1c-6.1,1-12.5,2-19.3,2.7
		c-0.8,0.1-1.7,0.2-2.5,0.3c1.2-4,1.4-8.5,0.8-12.8c0.8-0.1,1.6-0.2,2.4-0.3c4.7-0.5,9.7-1.2,14.3-1.8
		C150.8,129.6,151.8,131.8,152.6,133.8z M126,142.7c0,0-1.5,0.3-3.9,0.1c-1.2-2.2-2.5-5.2-5.8-12.5c2.3,0.3,4,0,4,0L126,142.7z
		 M91.9,126.6c-1.5-1-7.4-4.9-7.4-4.9l0.6-0.6c2.6,1.7,6.1,4,7.6,5.1c2.7,2,1.2,4.5,1.2,4.5C94.3,129.2,93.6,127.7,91.9,126.6z
		 M80.7,118.6L80.7,118.6L80.7,118.6c0.1-0.2,1-1.7,4.5-7.3c1,1.4,2.7,2.9,2.7,2.9l-4.2,6.7c-0.6,0.4-1.8,0-2.5-0.7
		C81,120,80.2,119.2,80.7,118.6z M79.4,118.9c-0.1,2,2.9,3.6,4.4,3.2l7.7,5.1c1.2,0.8,2.3,2.2,1.6,4.2c-0.1-1.8-2.3-3.2-2.3-3.2
		s-8.3-4.9-10.8-6.5C78.5,120.8,78.6,119.6,79.4,118.9z M75.5,125.1c1.5-2.1,2.3-3.4,2.6-3.9c0.3,0.7,1.3,1.3,1.3,1.3
		c2.6,1.6,7.9,4.9,9.5,5.7c1.7,0.9,2,1.4,2,1.4c1.9,1.8,1.6,3.7,0.6,4.9c-1.1,1.4-3.1,2.3-4.8,1.2l-2.3-1.4l0,0l-0.8-0.5l-7.2-4.4
		l0,0l0,0c0,0-1.2-0.6-1.5-1.7C74.6,126.8,74.9,126,75.5,125.1z M70.5,139.6c-0.8-0.1-1.7-0.6-2-1.2c-0.2-0.4-0.1-0.8,0.1-1.2
		l5.5-8.4c0.3,0.7,3.1,2.3,3.1,2.3c-1.2,1.7-5.3,7.8-5.3,7.9C71.5,139.5,70.9,139.6,70.5,139.6z M171.6,165c0,0,0,0.1-1.3,0.6
		c-8.5,2.2-17.5,2.3-25.2,0.3c-6.9-1.8-15.1-5.8-19.7-15.9c0,0-0.6-1.1-0.7-1.6c0,0,2.3,0,3.8-0.1c7.1,15.1,25.3,17.9,40.9,13.9
		c0,0,1.4-0.2,1.8-0.7c0.3-0.7,0.3-2.7,0.3-2.7c0-0.4-0.4-9.8-2.1-15.9c-0.2-0.7-0.4-1.1-0.5-1.2c0,0-0.5-0.2-0.8-0.2
		c-0.8,0-1.9,0.2-1.9,0.2c-9.6,2.3-24.5,4.2-36.2,5.4c0,0-0.9,0.1-2.5,0.2l-1.3,0c-2.2,0-5.4-0.1-9.4-0.7c0,0-43.8-7.1-43.6-7.1
		l2.3-3.2c0,0,42.2,6.9,42.2,6.9c6.4,1,9.4,0.5,9.5,0.5c11.4-0.6,32.4-3.7,37.5-5.1c0,0,2.7-0.7,3.1-1c0.2-0.2-0.3-2.3-0.3-2.3
		c0-0.1-2.1-6.8-3.1-9.4l0,0.1c0-0.1-0.5-1.5-0.9-1.8l-0.3,0c0,0-0.6,0.1-1.3,0.3c-9.9,1.8-28,4.3-38.6,5c0.9-0.1-4.3,0.2-8.4-0.1
		c-5.8-0.3-12.2-1.8-18.6-8.7c-0.1-0.1-7.1-6.8-10-9.9c-0.7-1-0.3-2.1,0.4-2.7c0.5-0.4,1.6-0.6,2.2,0.1c1.2,1.7,8.4,9,11.9,12.3
		c3.9,3,6.7,4.6,12.2,5.3c3,0.4,6.4,0.3,6.6,0.3c7.2,0.2,33.4-3,41.1-4.5c1-0.1,1.6-0.4,1.6-0.4l0-0.1l0-0.3c0-0.1,0.5-0.5,0.8-0.6
		c0.7-0.3,1.7-0.3,2.4,0.3c5.5,10.1,10.9,28.9,9.7,43.2c-0.1,0.8-0.4,1.4-1,1.7C174.1,165.1,172.8,165.7,171.6,165z M158.3,144.5
		c0.7-0.1,3.7-0.8,3.7-0.8c3.1,4.7,8.2,8.1,8.2,8.1c0.1,1.2,0.2,4.2,0.2,4.2C162.5,152.1,158.3,144.5,158.3,144.5z M163.1,143.4
		c1.6-0.3,3.1-0.7,4.5-1c0.4-0.1,0.5,0,0.5,0c0.3,0.2,0.4,0.7,0.4,0.8l0,0.1l0,0.1c0.5,1.8,0.9,4.3,1.2,6.8
		C167.2,148.2,164.9,145.9,163.1,143.4z M170.5,157.2c0.1,1.4,0.1,2.2,0.1,2.3c0,1.1-0.6,1.5-0.7,1.6c-14.4,3.9-31.6,1.9-39.3-10.7
		c-0.3-0.4-0.5-0.9-0.8-1.4l-0.4-0.7c0.6-0.1,1-0.1,1-0.1c0.6-0.1,1.3-0.1,2-0.2c7.7-0.8,17-2.1,24.9-3.4
		C160.8,150.8,165.6,154.9,170.5,157.2z M176,164.5c0.3-1.4,0.3-3.7,0.3-3.7c11.6-2.5,0.6-3.5,0.6-3.5c2.6,0.8,2.5,1.7,2.5,1.7
		c-1.1,0.1-3.1-0.5-3.1-0.5c0.1-0.7-0.1-3.7-0.1-3.7c3,1.3,3.5,0.9,6.6,1.6c3.2,0.7,1.6,2,1.6,2c-1.6,2-7.6,2.9-7.6,2.9
		c10.1-1.3,9.1-4.1,9.1-4.1c4.1,2.7,0.1,4.6-2,5.2C182,163,176,164.5,176,164.5z"/>
	<path fill="#FFFFFF" d="M84.5,132.5c0,0,0.1,0.3,0.4,0.8l0,0c0.2,0.4,0.6,0.8,1,1c3,1.8,4.7-0.5,4.7-0.5c0,0,1.4-1.8-0.6-3.8
		c-0.1-0.1-1.3-1.1-3-0.9c-0.2-0.7-1.1-2.6-3.6-2.6h0l0,0c-2,0.1-2.5,1.2-2.7,1.9c0,0-0.5,1.4,0.2,2.6C81,131,81.9,132.9,84.5,132.5
		z M87.1,129.6c2.3-0.1,4,2.2,2.9,3.9l-0.4,0.1c-2,0.3-3.1-0.5-3.4-2.3C86.5,131,87,130.4,87.1,129.6z M84.5,127.2
		c1.1,0.4,1.9,1.3,1.9,2.4l0.1,0c-0.1,0.7-0.9,1.7-2.4,1.5c-0.1-0.3-0.1-0.6-0.1-1c0.3,0.1,0.5,0.1,0.9,0.1c0-0.1,0-0.5,0-0.5
		c-0.3,0-0.6-0.1-0.9-0.3C84,128.6,84.2,127.8,84.5,127.2z M81.9,127.7c0.5-0.4,0.9-0.6,1.7-0.6c-0.3,0.5-0.4,1.2-0.5,2
		c-0.2-0.1-0.3-0.1-0.4-0.3l0,0.5c0.1,0.2,0.3,0.2,0.5,0.4c0,0.5,0,0.8,0.1,1.2c-0.1,0-0.2-0.1-0.3-0.2
		C81.4,129.8,81.9,127.7,81.9,127.7z M81.3,128.4c-0.3,3.3,2.7,3.7,4.4,3.1c0.4,2.6,2.7,2.7,3.8,2.5c-1.4,0.9-4.1,0.3-4.6-2.2
		C82.8,132.5,80.4,130.8,81.3,128.4z"/>
	<path fill="#311D00" d="M137.6,70.5c-0.7-0.4-1.7-1.9-1.5-3.1C137.7,67.4,138.1,69.7,137.6,70.5z"/>
	<path fill="#311D00" d="M139.3,74.7c-0.8-0.8-1.2-1.6-1.3-2.9C139.2,72.1,140,73.6,139.3,74.7z"/>
	<path fill="#311D00" d="M132.6,71.7c0,0,1,3.1,2.2,6.1c3.3-0.9,5.6,5.2-0.2,5.6c0.6,2.4,6,1.4,3.9-4c-0.4-1.1-4-8.6-4.7-10.5
		c-0.4-1.2-0.5-1.4-0.4-1.8c0,0,0-0.3,0.1-0.4c0,0-0.1,0-0.1,0l-1.2,0.6C131.3,68.4,132.6,71.7,132.6,71.7z"/>
	<path fill="#311D00" d="M130.2,68.3c0,0-0.5,1,0.2,3.1c0.9,2.8,2.4,6.8,2.4,6.8l1.2-0.2l-2.2-6.3c0,0-0.9-2.4-0.4-4L130.2,68.3z"/>
	<path fill="#311D00" d="M143.9,82.9c-1.4,0-4.1,0-4.1,0c-0.1,0.9-1.2,1.7-1.2,1.7C142.9,84.9,143.9,82.9,143.9,82.9z"/>
	<path fill="#311D00" d="M89.3,107.5l1.6,1.8l6.1-9.9c1-1.6,2.8-3.8,2.7-3.7c0,0-0.7-1.9-1.1-2.6c-0.5-0.9-0.4-1.8-0.4-1.8
		c0.3-0.4-2.1,2.5-3.2,4.2c-1,1.5-3.9,6-7,11.2C88.6,106.7,89.3,107.5,89.3,107.5z"/>
	<path fill="#311D00" d="M171.7,118.5c0,0-5.2,0.5-6.9,0.4c0.2,0,0.8,0.1,1.4,0.6C166.2,119.4,170.7,118.9,171.7,118.5z"/>
	<path fill="#311D00" d="M164.8,118.9C164.7,118.9,164.7,118.9,164.8,118.9C164.7,118.9,164.8,118.9,164.8,118.9z"/>
	<path fill="#311D00" d="M166.5,135.3c0,0-3.2,0-7.5,0l1.3,3l4.9-1C165.2,137.3,167,137.2,166.5,135.3z"/>
	<path fill="#311D00" d="M154.4,126.7c0,0-2.9,0.5-3.4,0.5c0,0,4.3,10.6,5,11.9c0,0,2.9-0.4,3.5-0.7
		C159.4,138.5,156.6,132.9,154.4,126.7z"/>
	<path fill="#311D00" d="M162,143.7c0,0-3,0.7-3.7,0.8c0,0,4.2,7.6,12.1,11.5c0,0-0.1-3-0.2-4.2C170.2,151.8,165.2,148.4,162,143.7z
		"/>
	<path fill="#311D00" d="M185.9,157.3c0,0,0.9,2.7-9.1,4.1c0,0,6-0.8,7.6-2.9c0,0,1.6-1.3-1.6-2c-3.1-0.7-3.6-0.3-6.6-1.6
		c0,0,0.2,2.9,0.1,3.7c0,0,2,0.6,3.1,0.5c0,0,0.1-0.9-2.5-1.7c0,0,11,1-0.6,3.5c0,0,0.1,2.3-0.3,3.7c0,0,6-1.6,7.8-2.1
		C186,161.9,190,160,185.9,157.3z"/>
	<path fill="#311D00" d="M116.3,130.3c3.3,7.3,4.6,10.3,5.8,12.5c2.5,0.2,3.9-0.1,3.9-0.1l-5.8-12.4
		C120.3,130.3,118.6,130.6,116.3,130.3z"/>
	<path fill="#311D00" d="M114.1,124.7c1.7,0.4,3.9,0.3,3.9,0.3l-15.9-35.3c0,0-0.4-0.2-0.8-0.2c-0.6,0-1.5,0.4-1.9,1.2
		c-0.3,0.6-0.3,1.2,0,1.7C99.3,92.4,107.3,109.8,114.1,124.7z"/>
	<path fill="#311D00" d="M175,163.5c1.3-14.2-4.2-33-9.7-43.2c-0.8-0.6-1.7-0.6-2.4-0.3c-0.4,0.2-0.8,0.5-0.8,0.6l0,0.3l0,0.1
		c0,0-0.6,0.2-1.6,0.4c-7.7,1.5-33.9,4.7-41.1,4.5c-0.2,0-3.7,0-6.6-0.3c-5.5-0.6-8.3-2.2-12.2-5.3c-3.5-3.3-10.7-10.7-11.9-12.3
		c-0.6-0.7-1.6-0.5-2.2-0.1c-0.7,0.6-1.1,1.7-0.4,2.7c2.8,3.1,9.9,9.8,10,9.9c6.4,6.9,12.8,8.4,18.6,8.7c4.1,0.3,9.3,0,8.4,0.1
		c10.6-0.6,28.7-3.2,38.6-5c0.7-0.2,1.3-0.3,1.3-0.3l0.3,0c0.5,0.2,0.9,1.7,0.9,1.8l0-0.1c1,2.6,3.1,9.3,3.1,9.4
		c0,0,0.6,2.1,0.3,2.3c-0.3,0.4-3.1,1-3.1,1c-5.1,1.4-26.1,4.5-37.5,5.1c-0.1,0-3.1,0.5-9.5-0.5c0,0-42.2-6.9-42.2-6.9l-2.3,3.2
		c-0.2,0,43.6,7.1,43.6,7.1c4,0.6,7.1,0.8,9.4,0.7l1.3,0c1.6-0.1,2.5-0.2,2.5-0.2c11.7-1.2,26.6-3.1,36.2-5.4c0,0,1.1-0.2,1.9-0.2
		c0.3,0,0.8,0.2,0.8,0.2c0.2,0.2,0.4,0.6,0.5,1.2c1.7,6.2,2.1,15.5,2.1,15.9c0,0,0,1.9-0.3,2.7c-0.4,0.4-1.8,0.7-1.8,0.7
		c-15.6,4-33.8,1.2-40.9-13.9c-1.5,0.1-3.8,0.1-3.8,0.1c0.1,0.5,0.7,1.6,0.7,1.6c4.5,10.1,12.7,14.1,19.7,15.9
		c7.6,2,16.7,1.9,25.2-0.3c1.4-0.5,1.3-0.6,1.3-0.6c1.3,0.7,2.5,0.1,2.5,0.1C174.7,164.8,175,164.2,175,163.5z"/>
	<path fill="#311D00" d="M76.3,129.3L76.3,129.3L76.3,129.3l7.3,4.4l0.8,0.5l0,0l2.3,1.4c1.7,1.1,3.8,0.2,4.8-1.2
		c0.9-1.3,1.3-3.1-0.6-4.9c0,0-0.3-0.4-2-1.4c-1.5-0.9-6.9-4.1-9.5-5.7c0,0-1-0.6-1.3-1.3c-0.3,0.6-1.1,1.8-2.6,3.9
		c-0.7,0.9-0.9,1.8-0.7,2.5C75.1,128.7,76.3,129.3,76.3,129.3z M80.7,128.4c0.2-0.6,0.7-1.7,2.7-1.9l0,0h0c2.5-0.1,3.4,1.9,3.6,2.6
		c1.7-0.2,2.9,0.9,3,0.9c2,2,0.6,3.8,0.6,3.8c0,0-1.7,2.3-4.7,0.5c-0.4-0.2-0.8-0.6-1-1l0,0c-0.2-0.5-0.4-0.8-0.4-0.8
		c-2.6,0.4-3.5-1.5-3.6-1.5C80.2,129.8,80.7,128.4,80.7,128.4z"/>
	<path fill="#311D00" d="M92.8,126.2c-1.5-1.1-5-3.4-7.6-5.1l-0.6,0.6c0,0,5.9,3.9,7.4,4.9c1.7,1.2,2.4,2.6,2.1,4.1
		C94,130.7,95.5,128.2,92.8,126.2z"/>
	<path fill="#311D00" d="M79.9,121.7c2.5,1.6,10.8,6.5,10.8,6.5s2.2,1.4,2.3,3.2c0.7-1.9-0.5-3.3-1.6-4.2l-7.7-5.1
		c-1.4,0.4-4.5-1.2-4.4-3.2C78.6,119.6,78.5,120.8,79.9,121.7z"/>
	<path fill="#311D00" d="M86.2,131.3c0.3,1.8,1.4,2.5,3.4,2.3l0.4-0.1c1.1-1.7-0.6-3.9-2.9-3.9C87,130.4,86.5,131,86.2,131.3z"/>
	<path fill="#311D00" d="M84.9,131.8c0.5,2.5,3.2,3.1,4.6,2.2c-1.1,0.2-3.4,0.1-3.8-2.5c-1.7,0.6-4.7,0.1-4.4-3.1
		C80.4,130.8,82.8,132.5,84.9,131.8z"/>
	<path fill="#311D00" d="M174.4,118.8c-2.1,0.6-5.1,1.2-7.5,1.6c0.8,1.6,1,2.2,1.3,2.8c-0.1,0.1,1.1-0.2,2.4-0.4
		c2.1-0.4,4.3-0.9,5.4-1.2l0.4-0.1c1.2-0.2,1.3-1.3,1.3-1.6c-0.1-0.8-0.5-1.3-1.5-1.5C176.3,118.5,175.1,118.6,174.4,118.8z"/>
	<path fill="#311D00" d="M179.1,133.5c-1.7,0.4-6.8,1.4-6.8,1.4l0.3,0.9c1.4-0.1,7.3-1.6,7.3-1.6c1.1,0,1.2,0.7,1.2,0.7
		c-2.3,0.9-8.1,2.1-8.1,2.1c0.3,1.1,0.8,3.3,0.8,3.3c6.9-1.2,8.4-2,8.4-2c2-0.8,1.2-3.2,1.2-3.2
		C182.7,132.3,179.1,133.5,179.1,133.5z"/>
	<path fill="#311D00" d="M177.5,122.4c0,0,1.8,4.4,3,9.9c5.1,0,5.3,6,2.4,7c0,0,1.9,9.7,2.4,15c0.1,1,0,1.8,0,1.8
		c2.1,0.4,3.3,1.9,3.3,2.7c1-6.1-2.5-23.7-7.1-36.6c-1.3-4.7-4-4.2-4-4.2C178.9,118.3,180.2,120.9,177.5,122.4z"/>
	<path fill="#311D00" d="M161.1,120.2c0,0,0.1-0.9,1-1c0,0-4.3,0.5-9.9-0.3l1.1,2.5C153.3,121.4,158.7,120.8,161.1,120.2z"/>
	<path fill="#311D00" d="M71.9,138.9c0,0,4.1-6.1,5.3-7.9c0,0-2.8-1.7-3.1-2.3l-5.5,8.4c-0.3,0.4-0.3,0.8-0.1,1.2
		c0.3,0.7,1.2,1.2,2,1.2C70.9,139.6,71.5,139.5,71.9,138.9z"/>
	<path fill="#311D00" d="M103.1,89.5c0.3,0.5,1,2.1,1,2.1c1.4-1.1,2.7-1.8,5.2-2.7c7.9-3.2,17.3-5.1,25.6-6.7l0.6-0.1
		c1.4-0.2,1.7-1,1.6-1.8c-0.1-0.8-1-1.6-2.1-1.4c-10.4,1.7-22.4,4.8-28.2,7.2c-2,0.8-3.5,1.6-4.6,2.3
		C102.6,88.7,102.7,88.7,103.1,89.5z"/>
	<path fill="#311D00" d="M83.7,120.9l4.2-6.7c0,0-1.7-1.5-2.7-2.9c-3.5,5.6-4.4,7.1-4.4,7.2l0,0l0,0c-0.5,0.6,0.3,1.4,0.5,1.6
		C81.9,120.9,83.1,121.4,83.7,120.9z"/>
	<path fill="#311D00" d="M145.4,81.4c1.6,0.2,4.8,0.5,6.1,0.7c1.4,0,1.6-0.9,1.6-1.3c0.1-0.7-0.3-1.6-1-1.7l0,0l0,0
		c-1-0.3-5.6-0.9-7.4-1C144.6,78.1,145.4,80.1,145.4,81.4z"/>
	<path fill="#311D00" d="M154.4,78.2l-7-12.6l-2.7,1.3l4.9,10.9l0.6,0.1c0.4,0.1,0.8,0.1,2.4,0.5c2.1,0.6,2.4,5.2-1.5,4.8
		c-0.6-0.1-1.2-0.2-1.8-0.2c0,0,0,0,0,0c-0.7-0.1-1.5-0.2-2.5-0.3l-0.2,0c1,3.9,0.7,9.1-4.5,10.3c2.7-1.2,0.3-2,0.2-2.1
		c-5.7-1.3-15.1,0.4-16.1-0.3c6-0.6,6.5-3.6,6-6.7c-0.3,0.1-0.6,0.1-0.9,0.2c0.6,3.3-0.8,4.5-2.6,5.2c-2.8,0.9-4.8,1-4.9,1l-1.8-0.1
		c0.8-0.3,2.3-0.3,4.2-0.7c2.9-0.6,4.6-1.9,4.4-5.2c-0.4,0.1-0.7,0.2-1.1,0.2c0,1-0.1,1.8-0.4,2.4c-0.6,1.1-2.6,1.5-3.7,1.6
		c0,0-1.6,0.2-1.6,0.2c-6.3,0.8-8.7,2-12.7,4.1c0,0-0.5,0.3-0.7,0.5c-1.2,0.7-2.8,1.8-4.4,3.3c0.2,0.4,0.4,0.8,0.6,1.2
		c0.7-0.7,1.5-1.4,2.4-2.1c0,0,1.8-1.5,4-2.5c-3.2,2-5.2,4-6.1,5.1c2.5,5.6,5.9,13,9.2,20.4c-0.8-5.7,10.1-10,14.1-0.6
		c0.8,1.8,1.4,3.8,2,5.9c0.8-0.1,1.6-0.2,2.4-0.2c-0.3-1.1-0.6-2.1-0.9-3.2c-0.6-2.4-1-5.8-1-9.4c0-0.2,0-0.4,0-0.5
		c1.6,1.9,7.6,8.3,14.6,10.4l-1.8-4.3c0,0-7.1-3-12.4-11.2c0.1-0.4,0.1-0.7,0.2-0.9c0.6-3,1.7-5.8,3.4-8c0.1-0.1,0.2-0.3,0.3-0.4
		c0.1-0.1,0.3-0.4,0.6-0.7l11.2,26.3c0,0,1.9-0.1,3.6-0.4c0,0-8.9-21-11.6-27.4c0.2,0,0.4,0,0.6-0.1c0.1,0,0.2,0,0.3,0v0
		c0.2,0,0.3,0,0.4,0c2.7-0.5,4.1-1.7,5.1-3.5c0.9-1.6,1-3.7,0.9-5.4c0.1-0.2,0.3-0.4,0.5-0.5c0.2-0.2,0.5-0.4,0.9-0.6
		C152.3,85.5,157.7,83.4,154.4,78.2z M131.2,114.2c-3.1-3.4-1.6-17.1,3.9-17.8C131.3,99.2,130.1,108.9,131.2,114.2z"/>
	<path fill="#311D00" d="M84.8,130.2c-0.3,0-0.6,0-0.9-0.1c0,0.4,0,0.7,0.1,1c1.6,0.2,2.4-0.8,2.4-1.5l-0.1,0c0.1-1-0.8-2-1.9-2.4
		c-0.3,0.6-0.5,1.4-0.6,2.3c0.3,0.1,0.6,0.2,0.9,0.3C84.9,129.7,84.8,130.1,84.8,130.2z"/>
	<path fill="#311D00" d="M82.9,130.7c0.1,0,0.2,0.1,0.3,0.2c-0.1-0.3-0.1-0.7-0.1-1.2c-0.2-0.1-0.4-0.2-0.5-0.4l0-0.5
		c0.2,0.2,0.3,0.2,0.4,0.3c0-0.8,0.2-1.5,0.5-2c-0.8,0-1.2,0.2-1.7,0.6C81.9,127.7,81.4,129.8,82.9,130.7z"/>
	<path fill="none" d="M84.6,149.7c0.4,0.8,1.2,1.4,2.1,1.4c0.7,0,1.3-0.3,1.7-0.7c1.3-0.5,2.2-1.8,2.2-3.3c0-2-1.6-3.6-3.6-3.6
		c-2,0-3.6,1.6-3.6,3.6C83.4,148,83.8,149,84.6,149.7z"/>
	<path fill="none" d="M58.6,36.6c10-1.7,19.3-1.1,27.7,1C77.9,35.5,68.6,34.9,58.6,36.6c-14,4.5-26.7,13.1-35.4,25.2
		C31.9,49.7,44.5,41.1,58.6,36.6z"/>
	<path fill="none" d="M40.2,154.8c4-0.6,7.3,0.2,12.2,3.8c0.3,0.2,0.6,0.4,0.9,0.6c-0.3-0.2-0.6-0.4-0.9-0.6
		C47.6,155,44.2,154.2,40.2,154.8z"/>
	<path fill="none" d="M125,70.1c0.1,0.7,0.4,1.2,0.5,1.6C125.4,71.4,125.2,70.8,125,70.1z"/>
	<path fill="none" d="M126.1,66.8c-0.1,0-0.2,0.1-0.2,0.2C125.9,66.9,126,66.8,126.1,66.8c-3.9-6.6-9.8-13.2-17.4-18.7
		C116.2,53.5,122.2,60.2,126.1,66.8z"/>
	<path fill="none" d="M22.9,62.3c0,0,0.1-0.1,0.1-0.1C22.9,62.2,22.9,62.2,22.9,62.3z"/>
	<path fill="none" d="M86.4,37.6c0.1,0,0.2,0.1,0.3,0.1C86.6,37.7,86.5,37.7,86.4,37.6z"/>
	<path fill="none" d="M125,68.3c0.1-0.3,0.2-0.6,0.3-0.8c0-0.1,0.1-0.1,0.1-0.2c0,0.1-0.1,0.1-0.1,0.2C125.1,67.7,125,68,125,68.3z"
		/>
	<path fill="none" d="M139.2,70.4c0-2.3-1.3-4-2.4-4.1c0,0-0.4-0.1-0.8,0.1c0,0,0,0-0.1,0.1c0,0,0,0,0,0c0,0-0.1,0.1-0.1,0.1
		c0,0,0,0,0,0c-0.1,0.2-0.2,0.5-0.2,1c0,0.2,0,0.5,0.1,0.8c0,0,0,0,0,0.1c0,0.1,0,0.1,0.1,0.3c0.1,0.3,0.3,0.8,0.6,1.2
		c0,0.1,0.1,0.1,0.2,0.2c0.2,0.3,0.5,0.6,0.9,1c0,0-0.1,0.8,0.1,1.7l0,0.1c0.2,0.7,0.5,1.3,1,1.9c1.3,1.5,2.6,0.5,2.2-1.3
		c-0.4-1.6-0.9-2.3-1.6-3C139.2,70.6,139.2,70.5,139.2,70.4z"/>
	<path fill="none" d="M36,156.7c1.5-0.3,3.6-0.7,4.9-0.6c1.7,0.1,4.1,0.4,6.4,1.8l-1.1,0.6c-5.4,2.6-10,3.4-12.6,3.6
		c-2.5,0.2-2.1-1.3-0.4-2.2c0.9-0.5,1.7-1.4,2-3c-0.3,0.1-0.3,0.1-0.7,0.2c0,0,0,0,0,0c-0.6,4-8.4,3.6-7.5-1.9c0,0-1.1-2.3-1.8-3.7
		c0,0.1-0.2-0.8-0.1-0.9c0,0,1.9,3.1,2.7,4.1c-1.1,3.7,4.4,5.3,5.8,2.5c-4.8,0.9-5-1.6-4.9-2.4c0-0.1-0.1-0.3-0.1-0.4
		c-0.8-0.8-3.6-4.5-6.6-10.1c-0.4,3.3,3.3,10.9,3.6,11.7c0.3,0.8,0.3,0.8,0.3,0.8c-1.1,3.1,2.1,7.2,8,6.3c5.7-0.5,12.2-2.9,15-4.9
		c0.2-0.2,0.5-0.3,0.6-0.5c-3.1-2-6.9-3.3-13.2-1.2C36.2,156.6,36.1,156.6,36,156.7z"/>
	<path fill="none" d="M54.1,148.6c-0.9,0.6-1.3,1.9-1.1,3.2c-0.4,0.8-0.2,1.9,0.7,2.8c0.9,0.9,2.2,1.2,3,0.7
		c0.7,0.1,1.4-0.1,1.9-0.5c1.3-1.1,1.4-3.2,0.2-4.9C57.5,148.2,55.5,147.6,54.1,148.6z"/>
	<path fill="none" d="M61.7,121.5c-2,0-3.8,0.7-5.1,2.1c-3,3-2.7,8.2,0.5,11.6c1.6,1.7,3.8,2.7,6.1,2.7c0.8,0,1.6-0.1,2.3-0.4
		l4.9-7.2c0-2.1-0.9-4.4-2.5-6.1C66.1,122.5,63.9,121.5,61.7,121.5z"/>
	<path fill="none" d="M51.5,142.7c6.8,8.7,18.8,8.8,24.9,2.4C73.8,146.3,63,153.4,51.5,142.7z"/>
	<path fill="#FF3C00" d="M125.5,71.7c-0.1-0.3-0.4-0.9-0.5-1.6c-0.1-0.6-0.2-1.2-0.1-1.8c0.1-0.3,0.2-0.6,0.3-0.8
		c0-0.1,0.1-0.1,0.1-0.2c0.1-0.1,0.2-0.2,0.4-0.3c0.1-0.1,0.1-0.1,0.2-0.2c-3.9-6.6-9.8-13.2-17.4-18.7c-6.3-4.5-13.6-8.2-21.9-10.4
		c-0.1,0-0.2-0.1-0.3-0.1c-0.1,0-0.1,0-0.2,0c-8.4-2.1-17.7-2.7-27.7-1c-14,4.5-26.7,13.1-35.4,25.2C23.1,61.9,23,62,23,62.1
		c0,0-0.1,0.1-0.1,0.1c-10.4,14.8-15,34.6-9.1,58.2c4.5,16.5,9.8,25.2,15.6,33.4c0,0-0.3,4,6.6,1.9c1.6-0.5,3-0.8,4.3-1
		c4-0.6,7.3,0.2,12.2,3.8c0.3,0.2,0.6,0.4,0.9,0.6c11.4,8,30.2,11.4,42.4,5.1c3.1-1.6,5.8-3.9,7.9-6.9c0,0,0.1-0.2,0.1-0.2
		c0.9-1.3,1.5-2.5,2-3.9c0.9-2.5,1.1-5,1-7.4c-0.8-0.1-1.6-0.3-2.4-0.4c-0.5,10.2-10.7,20.1-28.9,19c-7.6-0.3-15.7-4-20.5-6.6
		c-2.2-1.5-8.5-5-11.5-5.7c2.6,0.1,9.1,3.6,11.9,5.1c5.6,2.9,13.4,5.7,20.1,5.9c12.1,1.1,25.9-5.1,27.4-18.1
		c-12.2-2-28.3-4.7-30.7-5.1c-0.5,0.3-1.1,0.5-1.7,0.5c-1.2-0.1-2.4-0.8-2.9-1.8c-0.4-0.7-0.3-1.5,0.2-2.2c0,0,5.8-8.6,5.8-8.6
		l0.2-0.5c-0.3-1.3,0.4-2.5,0.6-2.7c0.5-0.5,3.1-4.8,3.7-6c0.1-0.1,0.8-1.2,2.1-1.3c0.6-1,2.1-3.3,4.6-7.4c-0.2-1.1,0.3-2.3,1.1-2.9
		c0.2-0.2,0.5-0.3,0.8-0.4c3.1-5,6.5-10.5,7.5-11.9c1.1-1.5,2-2.5,2.9-3.7c0.4-0.4,1.2-1.1,1.5-1.3c0.5-0.6,1.1-1.1,1.9-1.3
		c0-0.1,0.1-0.1,0.1-0.2c2.5-2,6-3.3,6-3.3c4.7-2,13-4.2,21.5-5.9c-0.6-1.7-2.5-7.2-2.5-7.2C125.7,72,125.6,71.9,125.5,71.7z
		 M87,143.4c2,0,3.6,1.6,3.6,3.6c0,1.5-0.9,2.8-2.2,3.3c-0.4,0.5-1,0.7-1.7,0.7c-0.9,0-1.7-0.6-2.1-1.4c-0.7-0.7-1.2-1.6-1.2-2.7
		C83.4,145,85,143.4,87,143.4z M58.6,154.8c-0.5,0.4-1.2,0.6-1.9,0.5c-0.8,0.5-2.1,0.2-3-0.7c-0.8-0.9-1.1-2-0.7-2.8
		c-0.2-1.3,0.2-2.5,1.1-3.2c1.4-1,3.4-0.4,4.6,1.3C59.9,151.6,59.9,153.7,58.6,154.8z M76.4,145.1c-6.1,6.4-18,6.4-24.9-2.4
		C63,153.4,73.8,146.3,76.4,145.1z M65.4,137.5c-0.7,0.2-1.5,0.4-2.3,0.4c-2.2,0-4.4-1-6.1-2.7c-3.2-3.4-3.4-8.5-0.5-11.6
		c1.3-1.4,3.1-2.1,5.1-2.1c2.2,0,4.4,1,6.1,2.7c1.7,1.7,2.5,4,2.5,6.1L65.4,137.5z"/>
	<path fill="#311D00" d="M144,67.2l-1,0.4c-0.2-0.4-0.5-0.6-1-0.7c-0.1,0-0.3,0-0.4-0.1c-38.1-68-155.4-30.3-127.2,59.7
		c2,6.3,4.4,11.9,6.8,16.3c-0.2,0.8-0.5,2.3,0,4.4c0.8,2.9,1.4,4.7,3.7,9.8c-0.9,3.5,2.3,8.5,10.1,7c9.3-1.4,14.2-4.8,15.3-5.7
		c0.3,0.2,0.6,0.5,0.9,0.7c16.6,12.9,43.6,13.9,53.6-1.3c4,0.8,9,0.2,9,0.2c5.2-0.3,9.3-1.7,12.6-3.9c-0.4-0.6-0.8-1.3-1.1-2
		c-4.2,2.8-10.2,4.3-18.7,3.6l-0.5-0.1c1.3-2.7,2.2-5.8,2.5-9.3c-0.6-0.1-1.3-0.2-1.9-0.3c0.1,2.4-0.1,4.9-1,7.4
		c-0.5,1.4-1,2.6-2,3.9c0,0-0.1,0.2-0.1,0.2c-2,3-4.7,5.3-7.9,6.9c-12.2,6.4-31,2.9-42.4-5.1c-0.3-0.2-0.6-0.4-0.9-0.6
		c-4.9-3.6-8.2-4.4-12.2-3.8c-1.3,0.2-2.7,0.6-4.3,1c-6.9,2.1-6.6-1.9-6.6-1.9c-5.7-8.2-11-16.9-15.6-33.4
		C7.9,96.8,12.4,77,22.9,62.3c0,0,0.1-0.1,0.1-0.1c0.1-0.1,0.1-0.2,0.2-0.3c8.7-12.1,21.4-20.7,35.4-25.2c10-1.7,19.3-1.1,27.7,1
		c0.1,0,0.1,0,0.2,0c0.1,0,0.2,0.1,0.3,0.1c8.3,2.2,15.7,5.9,21.9,10.4c7.6,5.5,13.5,12.1,17.4,18.7c-0.1,0-0.2,0.1-0.2,0.2
		c-0.1,0.1-0.3,0.2-0.4,0.3c0,0.1-0.1,0.1-0.1,0.2c-0.2,0.3-0.3,0.5-0.3,0.8c-0.1,0.6-0.1,1.2,0.1,1.8c0.1,0.7,0.4,1.2,0.5,1.6
		c0.1,0.2,0.1,0.3,0.1,0.3c0,0,1.9,5.4,2.5,7.2c0,0,0,0,0,0c0.4-0.1,0.8-0.2,1.1-0.2l-2.8-7.8c-1.1-2.6,0.1-3.6,0.1-3.6
		c-0.3,1,0,2.1,0.1,2.7c0.4,1.2,1.6,4.5,2.6,7.1c0.2,0.5,0.4,1,0.5,1.5c0.3-0.1,0.6-0.1,0.9-0.2c-0.9-2.6-2.1-5.7-2.4-6.7
		c-0.3-0.9-0.5-1.2-0.8-2.5c-0.5-1.9,0.2-1.9,1-2c0.5,0,1.8,0,2.2,0c0.8-0.4,2.5-1.3,3.6-1.8c-12.5-21.1-37.6-35.3-70.5-30.5
		c25.9-6.3,55.4,1.2,73.1,26.4c0.9,1.6,1.7,2.4,3.2,5.3c-0.2,0-0.4,0-0.6,0c-1-1.4-2-1.8-3.2-1.9c-0.1,0-2.4,0-2.1,2.4
		c0.1,0.7,0.4,1.6,0.6,2l0,0l1.8,3.7l0.5,1l1.7,3.4c0,0,1.3,2.5,1.3,3.8l4.6,0.1c0,0,0.1-1.4-0.9-3.9c-0.7-1.8-2.8-8.3-3.5-9.7
		c0,0,0,0,0-0.1c0.2,0,1.1,0,1.6,0.1c0.9,2.3,2.2,6.2,3.2,9.3c0,0,1.2,0.1,1.1,0c0.4,0,2,0.2,2.5,0.3L144,67.2z M49.4,157.8
		c-0.2,0.1-0.4,0.3-0.6,0.5c-2.8,2-9.2,4.4-15,4.9c-5.8,0.9-9.1-3.2-8-6.3c0,0,0,0-0.3-0.8c-0.3-0.7-4.1-8.4-3.6-11.7
		c3.1,5.7,5.8,9.3,6.6,10.1c0,0.1,0.1,0.3,0.1,0.4c-0.1,0.8,0.1,3.3,4.9,2.4c-1.5,2.8-6.9,1.3-5.8-2.5c-0.8-1-2.7-4.1-2.7-4.1
		c-0.1,0,0.1,0.9,0.1,0.9c0.6,1.3,1.8,3.7,1.8,3.7c-0.9,5.4,7,5.9,7.5,1.9c0,0,0,0,0,0c0.4-0.1,0.4,0,0.7-0.2c-0.3,1.6-1.1,2.5-2,3
		c-1.7,0.8-2.2,2.3,0.4,2.2c2.6-0.2,7.2-0.9,12.6-3.6l1.1-0.6c-2.3-1.5-4.7-1.7-6.4-1.8c-1.3-0.1-3.4,0.3-4.9,0.6
		c0.1,0,0.2-0.1,0.3-0.1C42.5,154.5,46.3,155.8,49.4,157.8z M140.8,73.6c0.4,1.8-0.9,2.8-2.2,1.3c-0.5-0.6-0.8-1.2-1-1.9l0-0.1
		c-0.2-1-0.1-1.7-0.1-1.7c-0.4-0.3-0.7-0.7-0.9-1c-0.1-0.1-0.1-0.2-0.2-0.2c-0.3-0.5-0.5-0.9-0.6-1.2c0-0.1,0-0.2-0.1-0.3
		c0,0,0-0.1,0-0.1c0-0.3-0.1-0.6-0.1-0.8c0-0.5,0.1-0.8,0.2-1c0,0,0,0,0,0c0-0.1,0.1-0.1,0.1-0.1c0,0,0,0,0,0c0,0,0,0,0.1-0.1
		c0.3-0.2,0.8-0.1,0.8-0.1c1.1,0.2,2.4,1.8,2.4,4.1c0,0.1,0,0.2,0,0.3C139.9,71.4,140.4,72,140.8,73.6z"/>
	<path fill="#FFFFFF" d="M140.8,73.6c-0.4-1.6-0.9-2.3-1.6-3c0-0.1,0-0.2,0-0.3c0-2.3-1.3-4-2.4-4.1c0,0-0.4-0.1-0.8,0.1
		c0,0,0,0-0.1,0.1c0,0,0,0,0,0c0,0-0.1,0.1-0.1,0.1c0,0,0,0,0,0c-0.1,0.2-0.2,0.5-0.2,1c0,0.2,0,0.5,0.1,0.8c0,0,0,0,0,0.1
		c0,0.1,0,0.1,0.1,0.3c0.1,0.3,0.3,0.8,0.6,1.2c0,0.1,0.1,0.1,0.2,0.2c0.2,0.3,0.5,0.6,0.9,1c0,0-0.1,0.8,0.1,1.7l0,0.1
		c0.2,0.7,0.5,1.3,1,1.9C139.9,76.4,141.2,75.5,140.8,73.6z M137.6,70.5c-0.7-0.4-1.7-1.9-1.5-3.1C137.7,67.4,138.1,69.7,137.6,70.5
		z M139.3,74.7c-0.8-0.8-1.2-1.6-1.3-2.9C139.2,72.1,140,73.6,139.3,74.7z"/>
</g>
</svg>
