<?xml version="1.0" encoding="utf-8"?>
<!-- Generator: Adobe Illustrator 16.0.0, SVG Export Plug-In . SVG Version: 6.00 Build 0)  -->
<!DOCTYPE svg PUBLIC "-//W3C//DTD SVG 1.1//EN" "http://www.w3.org/Graphics/SVG/1.1/DTD/svg11.dtd">
<svg version="1.1" id="team_logos" xmlns="http://www.w3.org/2000/svg" xmlns:xlink="http://www.w3.org/1999/xlink" x="0px" y="0px"
	 width="200px" height="200px" viewBox="0 0 200 200" enable-background="new 0 0 200 200" xml:space="preserve">
<g id="texans">
	<g>
		<g>
			<g>
				<path fill="#FFFFFF" d="M138.892,50.812c34.996,26.63,8.362,30.618-18.964,34.508c0,0-11.538-3.183-31.519-13.111
					C43.091,49.702,57.36,39.092,92.976,32.676C35.966,7.841-11.549,51.081,40.873,93.129L26.484,103.41
					c11.82,7.244,36.294,22.44,32.741,45.708l-12.148,8.683l37.107,16.81l29.279-13.264c0.211-12.886,23.243-19.579,33.153-45.793
					C201.163,103.046,187.268,55.057,138.892,50.812z"/>
				<path fill="#00143F" d="M113.959,87.774C45.486,61.327,40.948,39.632,83.692,32.132C30.237,17.611-0.938,56.348,51.948,93.293
					l-14.193,10.142c15.07,10.07,31.039,24.979,25.621,48.444l-7.149,5.105l27.465,12.449
					C109.248,141.442,122.619,114.245,113.959,87.774z M96.7,130.361l-10.516-11.962l-12.08,1.803l5.584-9.2l-10.517-11.97
					l13.968,6.288l5.571-9.2l3.049,13.078l13.968,6.278l-12.086,1.802L96.7,130.361z"/>
				<path fill="#C9243F" d="M148.721,54.981c23.498,18.395,7.184,30.147-21.47,33.343c7.251,30.553-14.973,58.539-38.506,80.208
					l21.576-9.774c1.598-12.416,23.483-18.873,33.855-46.435C192.895,101.46,184.944,66.497,148.721,54.981z"/>
			</g>
		</g>
	</g>
</g>
</svg>
