<?xml version="1.0" encoding="utf-8"?>
<!-- Generator: Adobe Illustrator 16.0.0, SVG Export Plug-In . SVG Version: 6.00 Build 0)  -->
<!DOCTYPE svg PUBLIC "-//W3C//DTD SVG 1.1//EN" "http://www.w3.org/Graphics/SVG/1.1/DTD/svg11.dtd">
<svg version="1.1" id="team_logos" xmlns="http://www.w3.org/2000/svg" xmlns:xlink="http://www.w3.org/1999/xlink" x="0px" y="0px"
	 width="200px" height="200px" viewBox="0 0 200 200" enable-background="new 0 0 200 200" xml:space="preserve">
<g id="colts">
	<g>
		<g>
			<g>
				<path fill="#FFFFFF" d="M99.952,176.205c-14.679-0.068-25.886-4.126-31.274-6.969c-10.553-5.538-19.25-12.875-26.735-23.052
					C31.182,131.589,29.1,119.841,28.239,113.44c-0.501-3.332-1.1-11.34,0.023-18.523c1.272-10.367,3.63-15.53,5.314-20.583
					c1.309-3.593,5.538-12.238,8.046-16.204c2.133-3.105,6.025-8.831,7.611-10.852c0.434-0.636-0.128-0.337-0.366-0.329
					c-0.584,0.143-0.884,0.179-1.334,0.143c-0.335,0-1.01-0.113-1.383-0.225c-2.096-0.448-5.09-2.769-4.715-6.811
					c-0.076-0.898,0.898-8.607,1.646-11.003c0.973-3.368,2.993-4.94,6.587-5.239c1.795,0,9.354-0.15,12.788,0.385
					c6.876,0.686,11.91,2.684,14.904,8.746c2.395,5.315,1.572,13.623-1.721,19.982c-1.123,2.171-3.368,6.213-5.314,8.833
					c-1.796,2.619-2.545,3.966-4.116,6.885c-1.572,3.068-6.812,14.519-8.608,22.003c-3.415,13.968-1.497,22.005,5.089,32.931
					c4.866,7.261,10.553,12.502,14.969,14.893c7.26,4.566,17.214,5.838,22.378,5.838"/>
			</g>
			<g>
				<path fill="#FFFFFF" d="M99.962,144.312c5.165,0,15.118-1.273,22.379-5.838c4.414-2.392,10.103-7.632,14.967-14.893
					c6.586-10.928,8.505-18.966,5.09-32.931c-1.798-7.484-7.037-18.935-8.608-22.003c-1.571-2.918-2.32-4.267-4.117-6.884
					c-1.943-2.621-4.191-6.663-5.314-8.833c-3.291-6.36-4.116-14.668-1.721-19.982c2.994-6.062,8.028-8.061,14.903-8.746
					c3.433-0.536,10.991-0.385,12.788-0.385c3.592,0.298,5.612,1.87,6.587,5.239c0.746,2.396,1.721,10.104,1.645,11.002
					c0.376,4.042-2.619,6.362-4.714,6.811c-0.375,0.113-1.048,0.225-1.384,0.225c-0.45,0.037-0.749,0-1.335-0.142
					c-0.239-0.008-0.801-0.307-0.364,0.329c1.584,2.021,5.478,7.747,7.611,10.852c2.506,3.967,6.734,12.611,8.044,16.204
					c1.685,5.052,4.044,10.215,5.314,20.583c1.121,7.184,0.523,15.192,0.022,18.524c-0.862,6.399-2.941,18.147-13.706,32.744
					c-7.482,10.176-16.181,17.513-26.73,23.051c-5.39,2.844-16.598,6.9-31.277,6.969"/>
			</g>
		</g>
		<g>
			<path fill="#003A70" d="M67.182,164.296c-9.581-5.689-18.263-12.871-26.645-26.705c-3.742-6.826-12.424-21.346-8.143-46.642
				c4.94-23.127,14.879-34.802,20.566-42.811c2.695-3.892-0.075-6.137-2.246-5.313c-1.819,0.689-3.068,0.732-3.068,0.732
				c-3.218-0.434-2.769-2.53-2.171-7.993l0.749-4.491c0.674-3.966,2.47-3.891,7.185-3.802c7.484,0.15,8.832,0.209,12.874,0.959
				c5.389,1.197,12.424,6.584,6.886,21.405c-3.444,7.933-7.037,10.628-10.928,18.86c-4.191,9.13-14.369,29.638-7.485,47.152
				c9.432,23.5,27.692,31.884,45.057,32.184c17.365-0.225,37.421-10.478,45.444-32.184c6.887-17.513-3.292-38.021-7.483-47.152
				c-3.894-8.232-7.487-10.927-10.928-18.86c-5.539-14.819,1.496-20.208,6.886-21.405c4.042-0.75,5.388-0.809,12.873-0.959
				c4.716-0.089,6.513-0.164,7.186,3.802l0.747,4.491c0.599,5.464,1.049,7.559-2.169,7.993c0,0-1.249-0.044-3.069-0.732
				c-2.169-0.824-4.939,1.422-2.245,5.313c5.688,8.008,15.629,19.684,20.567,42.811c4.281,25.297-4.401,39.817-8.143,46.642
				c-8.383,13.834-17.066,21.016-26.645,26.705c-13.113,9.131-37.661,8.608-32.946,8.309
				C104.827,172.978,81.85,173.577,67.182,164.296z"/>
		</g>
		<g>
			<g>
				<circle fill="#FFFFFF" cx="136.798" cy="49.102" r="1.761"/>
			</g>
			<g>
				<path fill="#FFFFFF" d="M159.218,97.001c0-0.973-0.79-1.762-1.764-1.762c-0.973,0-1.762,0.789-1.762,1.762
					c0,0.974,0.789,1.762,1.762,1.762C158.428,98.763,159.218,97.975,159.218,97.001z"/>
			</g>
			<g>
				<circle fill="#FFFFFF" cx="146.978" cy="137.717" r="1.763"/>
			</g>
			<g>
				<circle fill="#FFFFFF" cx="63.215" cy="49.102" r="1.762"/>
			</g>
			<g>
				<circle fill="#FFFFFF" cx="42.559" cy="97.001" r="1.761"/>
			</g>
			<g>
				<circle fill="#FFFFFF" cx="53.036" cy="137.717" r="1.763"/>
			</g>
			<g>
				<circle fill="#FFFFFF" cx="99.918" cy="160.02" r="1.762"/>
			</g>
		</g>
	</g>
</g>
</svg>
