<?xml version="1.0" encoding="utf-8"?>
<!-- Generator: Adobe Illustrator 20.0.0, SVG Export Plug-In . SVG Version: 6.00 Build 0)  -->
<svg version="1.1" id="team_logos" xmlns="http://www.w3.org/2000/svg" xmlns:xlink="http://www.w3.org/1999/xlink" x="0px" y="0px"
	 viewBox="0 0 200 200" style="enable-background:new 0 0 200 200;" xml:space="preserve">
<style type="text/css">
	.st0{fill:#FFFFFF;}
	.st1{fill:#002244;}
</style>
<g>
	<path class="st0" d="M156.9,123.9L156.9,123.9C156.9,123.9,156.9,123.9,156.9,123.9c0,0,0.2-0.4,0.4-1.1c0,0,0,0,0,0c0,0,0,0,0,0
		c-0.5,0-1-0.2-1.5-0.4c-0.9-0.5-1.5-1.4-1.5-2.5c0-1.1,0.6-2,1.5-2.5c0.4-0.3,0.9-0.4,1.5-0.4c0,0,0,0,0,0c0,0,0.1,0,0.1,0v0h0
		c-0.2-0.8-0.4-1.7-0.8-2.5c-0.4-0.9-0.9-1.7-1.6-2.6v0c0,0,0,0,0,0c0,0,0,0.5,0,1.3c0,0.6-0.1,1.3-0.3,2c-1.5,0.8-2.5,2.3-2.5,4.2
		C152.2,121.8,154.3,123.9,156.9,123.9z"/>
	<path class="st0" d="M191.2,67.4c-2.7-7.8-8.7-18.8-22.4-26.8c-6.8-4-15.7-6.2-24.9-6.2c-2.4,0-4.8,0.1-7.2,0.4
		c-13.4,1.7-25.1,8-32.7,17.9c-0.5,0.7-1,1.3-1.4,2C60.3,61.6,27,89,25.5,90.2L11.4,102l18.3,1.5c27.3,2.2,46.7,11.8,58.1,19.4
		c12.5,8.3,18.5,16.3,18.5,16.3l2.3,3.2l2.4,3.3l6.1-5.3c0.7-0.6,1.3-1.2,1.8-1.9l0.5,0.4c0.7,0.6,1.3,1.1,2,1.8
		c0.1,0.3,0.2,0.6,0.2,0.9c0,1.3-0.1,1.3-0.5,2.3l-0.2,0.4c-0.2,0.5-0.5,1.1-0.8,1.6c-0.1,0.3-0.2,0.5-0.3,0.6
		c0,0.1-0.1,0.1-0.1,0.2h0l-1.9,3.4l24.6,13.8l0.4-0.1c0,0,1.9-0.5,2.4-0.7c0.4-0.1,4.3-1.1,4.3-1.1c5.3-1.3,8.7-2.2,10.8-3.2l2-1
		l1.2-1.9c0.3-0.5,6.9-11.6,10.2-27.1c1.2-1.1,4.1-3.7,4.1-3.7l0.3-0.3l0.1-1.5l0.1-1.4c0.1-1.3,0.2-2.6,0.2-4
		c0-2.1-0.2-4.3-0.5-6.6c7.5-4.4,10.8-10.6,12.8-15.5c1.7-4.2,2.6-8.9,2.6-13.8C193.7,77.2,192.9,72.3,191.2,67.4z M189.1,93.5
		c-0.2,0.4-0.3,0.9-0.5,1.3c-2.1,5.3-5.5,11.2-13.2,15.1c0.1,0.6,0.2,1.1,0.3,1.7c0.3,2,0.5,4.2,0.5,6.3c0,0.6-0.1,1.2-0.1,1.9
		c0,0.6,0,1.2-0.1,1.9l-0.2,1.8l-0.3,0.3c0,0-0.6,0.5-1.3,1.2c-0.6,0.6-1.3,1.2-2,1.8c-0.3,0.2-0.5,0.5-0.7,0.7
		c-0.6,3-1.4,5.9-2.2,8.6c-3.1,10-6.9,17-7.7,18.3c-0.1,0.1-0.1,0.2-0.1,0.2l-0.7,1.2h0l-0.3,0.1l-1,0.5c-1.9,0.9-5.3,1.8-10.3,3
		l-2.2,0.6l-2.2,0.6l-1.8,0.5l-21.3-12l0.5-1c0,0,0.9-1.7,1.4-2.8c0.3-0.8,0.6-1.3,0.7-2c0.1-0.4,0.1-0.9,0.1-1.7c0,0,0-0.1,0-0.1
		c0,0,0,0,0,0c0-0.2,0-0.4-0.1-0.6c-0.1-0.6-0.2-1.2-0.5-1.7c-0.2-0.2-0.4-0.5-0.6-0.6c-1.1-1.2-1.9-1.7-3.2-2.8
		c-0.6-0.5-1.1-0.9-1.5-1.4l0,0c-0.7,1.3-1.7,2.5-3,3.6c-0.1,0.1-0.1,0.1-0.2,0.2l-3.9,3.4l-1.3-1.8l-1.8-2.4
		c-0.1-0.2-24.3-32.4-78.5-36.7l-5.9-0.5l-5.9-0.5h0l9-7.5c1.3-1.1,28.5-23.4,64.6-32.4c3.7-0.9,7.6-1.7,11.5-2.3
		c0.2,0,0.5-0.1,1-0.2c0,0,0,0,0,0c0.4-0.6,0.8-1.2,1.3-1.9c0.2-0.3,0.4-0.7,0.7-1c9.6-12.4,24.3-17.3,37.7-17.3
		c4.1,0,8.1,0.5,11.8,1.3c2.4,0.5,4.7,1.2,6.8,2.1c1.7,0.7,3.4,1.5,4.9,2.4h0l0,0v0c1.5,0.9,3,1.9,4.3,2.9
		c8.1,5.9,13.4,13.5,16.4,21.2c1.9,5,2.8,10.2,2.8,15C191,86.1,190.3,90,189.1,93.5z"/>
	<path class="st0" d="M156.2,120.7c-0.2,0-0.5-0.1-0.8-0.3c0.4,0.9,1.4,1.2,2,0.9c0-0.1,0.1-0.2,0.1-0.2c0.2-0.5,0.1-1,0.1-1
		s0,0-0.1,0.1c-0.1,0.1-0.3,0.2-0.5,0.3C156.9,120.7,156.6,120.7,156.2,120.7z"/>
	<path class="st0" d="M121.5,130.7c0.2,0.1,0.3,0.2,0.3,0.2l0,0.1l0-0.1C121.7,130.8,121.6,130.8,121.5,130.7z"/>
	<path class="st0" d="M166.4,44.9L166.4,44.9c-5.7-3.4-13.8-5.5-22.4-5.5c-11.3,0-23.4,3.6-32.3,12.4c-1.3,1.3-2.5,2.6-3.6,4.1
		c-0.5,0.7-1,1.4-1.5,2.1c-0.2,0.3-0.4,0.6-0.6,1l-0.3,0.4l-0.2,0l-0.2,0c-0.2,0-0.4,0.1-0.5,0.1c-0.4,0.1-0.7,0.1-1,0.2
		C87.4,62.2,72.5,68,60.3,74C41.7,83.3,29.4,93.3,28.7,94l-4.9,4l6.3,0.5c36.1,2.9,59.1,17.9,70.8,28.1c0,0,0,0,0.1,0
		c0.7,0.6,1.3,1.1,1.9,1.7c4.9,4.5,7.3,7.7,7.4,7.8l1.6,2.2l2.1-1.8c1.5-1.3,2.6-2.8,3.3-4.4l0.3-0.7l0.3-0.7l0.5,0.5l0.5,0.5
		c0.7,0.7,1.6,1.4,2.6,2.3c1.3,1.1,2.4,1.8,4.1,3.8l0.1,0.1l0.1,0.1c0.2,0.3,0.3,0.6,0.4,0.9c0.3,0.9,0.4,1.8,0.4,2.6c0,0,0,0,0,0
		c0,2.1-0.4,3.2-0.8,4.2c-0.1,0.1-0.1,0.3-0.2,0.4c-0.3,0.7-0.7,1.4-1,2l18.6,10.5l0.9-0.3l4.3-1.1c4.4-1.1,7.5-1.9,9.3-2.6
		c0.2-0.1,0.5-0.2,0.7-0.3l0.7-0.3l0.4-0.7c0.1-0.1,0.6-1,1.3-2.4c0.8-1.6,2-4,3.2-6.9c1.9-4.6,4-10.6,5.3-17.4l0.1-0.4l0.3-0.2
		c0.2-0.2,0.5-0.5,0.8-0.7c1-1,2.5-2.3,3.1-2.8l0.1-1c0.1-1.2,0.2-2.3,0.2-3.5c0-0.1,0-0.3,0-0.4c0-2.8-0.3-5.5-0.8-8l-0.2-0.8
		l0.8-0.4c4.7-2.2,7.7-5.2,9.8-8.3c0,0,0-0.1,0.1-0.1c0.1-0.1,0.1-0.2,0.2-0.3c1.2-1.8,2-3.7,2.8-5.5c1.3-3.2,2.1-7,2.2-11.1
		c0-0.3,0-0.6,0-0.9c0,0,0,0,0,0C188.8,69.3,182.3,54.3,166.4,44.9z M181.4,98.1c-2.2,3.7-5.1,6.5-8,8.1c-0.8,0.5-1.6,0.8-2.4,1.1
		c-0.3,0.1-0.7,0.2-1,0.3v0c0.2,0.8,0.4,1.7,0.5,2.5c0.1,0.4,0.2,0.8,0.2,1.3c0,0,0,0.1,0,0.1c0.2,1.1,0.3,2.3,0.4,3.5
		c0,0.2,0,0.4,0,0.7c0,0.2,0,0.5,0,0.8c0,0.3,0,0.6,0,0.9c0,0.2,0,0.5,0,0.7c0,0,0,0,0,0c0,0.3,0,0.7,0,1c0,0.2,0,0.4,0,0.5
		c0,0,0,0,0,0c0,0.5-0.1,1.1-0.1,1.6l-4.1,3.7l0,0c-1.8,9.5-5,17.5-7.3,22.3c-0.8,1.6-1.4,2.8-1.8,3.7c-0.4,0.8-0.7,1.2-0.7,1.2
		c-2.2,1.1-10.4,2.9-13.9,3.8l-15.6-8.5c0,0,0.9-1.8,1.2-4.3c0.1-0.5,0.1-1.1,0.1-1.7c0-1.5-0.3-3.1-1.2-4.7c-0.5-1-3.6-3.6-6.2-5.9
		c-0.1-0.1-0.2-0.2-0.3-0.2c-0.2-0.2-0.7-0.7-1.4-1.3c-1-1-2.3-2.3-2.7-2.8c-1.4-2.1-2.9-5-3.7-8.9c0,0-0.1,0.2-0.1,0.5
		c-0.3,1.5-0.8,6,2.1,10.8c-0.6,1.8-1.6,4-3.5,5.7c0,0-2.2-3.7-7.2-8.9c-9.5-10-29.2-25.8-63.1-32.9c0,0,23.9-22.3,60.7-30.3
		c-0.4,0.8-0.7,1.7-1,2.6c-0.8,1.2-1.9,3.2-2.9,5.9c-2.1,5.8-3.3,14.8,1.7,25.9c8.8,19.6,33,20.3,41.2,8.1c0.2-0.4,0.5-0.8,0.7-1.1
		c0.3-0.5,0.5-0.9,0.7-1.4c0.5-0.8,0.9-1.6,1.2-2.5c0.3-0.8,0.5-1.5,0.7-2.3c2.9-11.3-6.2-19.7-13.8-19.1
		c10.1,5.1,7.3,14.7,3.2,17.9c-4.4,3.3-11.4,3-15.7-3c-8.9-12.3-1.4-27.3,11.1-32.3c5.6-2.2,12.1-2.5,18.6,0.4c2.2,1,4.3,2.3,6.4,4
		c0.8,0.7,1.6,1.4,2.3,2.1c6.1,6.3,7.5,14.7,5.9,20.4c0,0.2-0.1,0.3-0.2,0.5c-0.1,0.2-0.1,0.3-0.2,0.5c0,0,0,0.1,0,0.1
		c-0.2,0.6-0.5,1.1-0.8,1.6c-0.2,0.3-0.4,0.6-0.6,0.9c-0.2,0.3-0.4,0.5-0.6,0.7c0,0-0.1,0.1-0.1,0.1c0,0,0,0-0.1,0.1l0,0
		c0,0,0,0,0,0h0c-0.2,0.2-0.3,0.3-0.5,0.5c0,0,0.7,0.7,1.5,1.7c0.6,0.7,1.2,1.5,1.8,2.3c2.2,3.1,2.5,4.2,3.5,4.7
		c0.2,0.1,0.3,0.1,0.5,0.1h0c0.2,0,0.4,0.1,0.5,0.1c0.3,0,0.5,0,0.8-0.1c0,0,0,0,0,0c0.6-0.1,1.2-0.4,1.9-0.7c0.3-0.2,0.7-0.4,1-0.7
		c1.3-1,3.1-3,4.4-4.9c0.4-0.6,0.7-1.1,0.9-1.6c0.8-1.6,3-6.6,3.1-14.2l0-0.6v0v0c0-2-0.2-4.1-0.5-6.4c-0.1-0.6-0.2-1.1-0.3-1.7
		c-0.5-2.7-1.5-5.2-2.6-7.6c-3-6.1-7.9-11.1-13-14.5c-2-1.3-4-2.4-6-3.2c-10.3-4.3-20.6-3.7-22.4-3.5c-0.1,0-0.2,0-0.2,0
		c0,0-0.1,0-0.1,0c0.1,0,10.8-1.9,22.5,1.7c0.1,0,0.2,0.1,0.3,0.1c0,0,0,0,0.1,0c4.3,1.4,8.7,3.5,12.8,6.8
		c4.6,3.7,8.7,8.8,11.6,15.9C187.8,79.6,185.9,90.7,181.4,98.1z"/>
	<path class="st0" d="M141.1,139.6L141.1,139.6c0,0-1.8,0.1-1.9,0.8c1.2,1.1,1.1,4.2,1.1,6.3c0,0.3,0,0.6,0,0.8
		C140.4,147.1,142.4,144.2,141.1,139.6z"/>
	<path class="st0" d="M154.7,94.7L154.7,94.7L154.7,94.7c0,0,6.2,7.7,7.7,17.9c0.3,2.2,0.5,4.4,0.3,6.8l-1.6,1.5l-0.8,0.8
		c0,2.3-0.1,6.1-1.1,10.5c-0.5,2.4-1.3,5-2.6,7.6c-1.3-2.4-3.2-4.5-5.2-6.2c-2.3-1.9-4.7-3.4-6.7-4.4c-1.2-0.6-2.2-0.9-3-1.1
		c-1.3,0.7-3.4,1.9-5.6,3.4c-1.6,1.1-3.3,2.4-4.5,3.8v0c0.3,0.3,0.6,1,0.8,1.6c0.3,0.6,0.5,1.3,0.5,1.6c0.2,0.9,0.3,1.8,0.3,2.6
		c0.1,2.3-0.3,4.2-0.7,5.6c0,0,2.2,1.2,3.8,2.1c1,0.5,1.7,0.9,1.7,0.9c0.1-0.4,0.2-0.8,0.3-1.2c0.5-2.6,0.1-4.4-0.6-6
		c-0.5-1.1-1.1-2-1.7-3.1c0.3-0.2,0.8-0.5,1.2-0.7c1.7-1,4.1-2.3,5.4-2.8c1.6,2.3,2.5,6,0.7,11.3c-0.4,1.2-0.9,2.4-1.4,3.4
		c-0.1,0.3-0.3,0.6-0.4,0.9l0,0c0,0,0,0,0.1,0c0.3,0.2,2.1,1.1,2.1,1.1h0c1.4-0.3,2.8-1,4-1.9c1.1-0.9,1.9-2,2.4-3.3
		c0.3-0.8,0.2-1.4,0.1-2c-0.1,0.2-0.3,0.4-0.5,0.6c-0.2,0.2-0.4,0.4-0.6,0.6c-0.7-1.7-0.7-3,0.2-4c0.5-0.5,1-0.7,1.6-0.7
		c0.3,0,0.5,0,0.7,0.1c0.6,0.2,1,0.6,1.3,1.2c0.2,0.5,0.3,1,0.3,1.4c0.2,2.9-2.2,5.6-2.2,5.6h0l0,0c0,0,3.1-0.1,4-0.6
		c0.5-1.1,1.4-2.9,2.4-5.1c2.4-5.5,5.5-14,6.7-22.6l2.8-2.5c0-0.9,0-1.8-0.1-2.7C165.6,103.3,154.7,94.7,154.7,94.7z"/>
	<path class="st1" d="M170.8,50.8c-4.1-3.2-8.5-5.4-12.8-6.8c0,0,0,0-0.1,0c-0.1,0-0.2-0.1-0.3-0.1c-11.7-3.6-22.4-1.7-22.5-1.7
		c0,0,0,0,0.1,0c0,0,0.1,0,0.2,0c1.8-0.1,12.1-0.7,22.4,3.5c2,0.8,4,1.9,6,3.2c5.1,3.4,9.9,8.4,13,14.5c1.2,2.4,2.1,4.9,2.6,7.6
		c0.1,0.6,0.2,1.2,0.3,1.7c0.4,2.3,0.5,4.4,0.5,6.4v0v0l0,0.6c-0.1,7.5-2.4,12.6-3.1,14.2c-0.2,0.5-0.6,1-0.9,1.6
		c-1.2,1.9-3,4-4.4,4.9c-0.4,0.3-0.7,0.5-1,0.7c-0.7,0.4-1.3,0.6-1.9,0.7c0,0,0,0,0,0c-0.3,0.1-0.6,0.1-0.8,0.1
		c-0.2,0-0.4,0-0.5-0.1h0c-0.2,0-0.3-0.1-0.5-0.1c-1-0.4-1.3-1.6-3.5-4.7c-0.6-0.8-1.2-1.6-1.8-2.3c-0.9-1-1.5-1.7-1.5-1.7
		c0.2-0.2,0.3-0.3,0.5-0.5h0c0,0,0,0,0,0l0,0c0,0,0,0,0.1-0.1c0,0,0.1-0.1,0.1-0.1c0.2-0.2,0.4-0.5,0.6-0.7c0.2-0.3,0.4-0.6,0.6-0.9
		c0.3-0.5,0.5-1,0.8-1.6c0,0,0-0.1,0-0.1c0.1-0.2,0.1-0.3,0.2-0.5c0.1-0.2,0.1-0.3,0.2-0.5c1.6-5.7,0.2-14.1-5.9-20.4
		c-0.7-0.7-1.4-1.4-2.3-2.1c-2.1-1.7-4.3-3-6.4-4c-6.5-2.9-13-2.6-18.6-0.4c-12.5,5-20,20-11.1,32.3c4.3,6,11.3,6.3,15.7,3
		c4.1-3.1,6.8-12.7-3.2-17.9c7.6-0.6,16.7,7.8,13.8,19.1c-0.2,0.8-0.4,1.5-0.7,2.3c-0.4,0.9-0.8,1.8-1.2,2.5
		c-0.2,0.5-0.5,0.9-0.7,1.4c-0.2,0.4-0.4,0.8-0.7,1.1c-8.1,12.2-32.3,11.5-41.2-8.1c-5-11.1-3.8-20.1-1.7-25.9
		c0.9-2.6,2.1-4.6,2.9-5.9c0.3-0.9,0.7-1.7,1-2.6C65.9,70.5,42,92.8,42,92.8c33.8,7,53.5,22.8,63.1,32.9c5,5.2,7.2,8.9,7.2,8.9
		c1.9-1.6,2.9-3.8,3.5-5.7c-2.9-4.8-2.4-9.3-2.1-10.8c0.1-0.4,0.1-0.5,0.1-0.5c0.8,3.9,2.2,6.8,3.7,8.9c0.4,0.5,1.6,1.8,2.7,2.8
		c0.6,0.6,1.1,1.1,1.4,1.3c0.2,0.1,0.3,0.2,0.3,0.2l0,0.1c2.6,2.3,5.7,4.9,6.2,5.9c0.9,1.6,1.2,3.2,1.2,4.7c0,0.6,0,1.2-0.1,1.7
		c-0.3,2.5-1.2,4.2-1.2,4.3l15.6,8.5c3.5-1,11.6-2.8,13.9-3.8c0,0,0.2-0.4,0.7-1.2c0.4-0.8,1.1-2.1,1.8-3.7
		c2.3-4.8,5.5-12.8,7.3-22.3l0,0l4.1-3.7c0.1-0.5,0.1-1.1,0.1-1.6c0,0,0,0,0,0c0-0.2,0-0.4,0-0.5c0-0.3,0-0.7,0-1c0,0,0,0,0,0
		c0-0.2,0-0.5,0-0.7c0-0.3,0-0.6,0-0.9c0-0.3,0-0.5,0-0.8c0-0.2,0-0.4,0-0.7c-0.1-1.2-0.2-2.3-0.4-3.5c0,0,0-0.1,0-0.1
		c-0.1-0.4-0.1-0.9-0.2-1.3c-0.2-0.9-0.3-1.7-0.5-2.5v0c0.3-0.1,0.7-0.2,1-0.3c0.8-0.3,1.6-0.6,2.4-1.1c2.9-1.6,5.8-4.4,8-8.1
		c4.5-7.4,6.3-18.5,1-31.5C179.5,59.6,175.4,54.5,170.8,50.8z M154.7,115c0.2-0.7,0.2-1.4,0.3-2c0-0.7,0-1.3,0-1.3c0,0,0,0,0,0v0
		c0.7,0.9,1.2,1.7,1.6,2.6c0.4,0.9,0.7,1.7,0.8,2.5h0v0c0,0-0.1,0-0.1,0c0,0,0,0,0,0c-0.5,0-1,0.2-1.5,0.4c-0.9,0.5-1.5,1.4-1.5,2.5
		c0,1.1,0.6,2,1.5,2.5c0.4,0.3,0.9,0.4,1.5,0.4c0,0,0,0,0,0c0,0,0,0,0,0c-0.2,0.7-0.4,1.1-0.4,1.1s0,0,0,0v0c-2.6,0-4.7-2.1-4.7-4.7
		C152.2,117.4,153.2,115.8,154.7,115z M157.6,120.2C157.7,120.2,157.7,120.1,157.6,120.2c0.1-0.1,0.1,0.4-0.1,0.9
		c0,0.1-0.1,0.2-0.1,0.2c-0.6,0.2-1.6,0-2-0.9c0.3,0.2,0.5,0.2,0.8,0.3c0.4,0,0.7-0.1,0.9-0.2C157.4,120.4,157.5,120.3,157.6,120.2z
		 M140.2,146.7c0-2.1,0.1-5.2-1.1-6.3c0.1-0.6,1.9-0.8,1.9-0.8h0c1.3,4.6-0.7,7.5-0.8,7.9C140.2,147.3,140.2,147,140.2,146.7z
		 M163.9,121.9c-1.1,8.6-4.3,17-6.7,22.6c-1,2.3-1.8,4.1-2.4,5.1c-0.9,0.4-4,0.6-4,0.6l0,0h0c0,0,2.4-2.7,2.2-5.6
		c0-0.5-0.1-0.9-0.3-1.4c-0.2-0.5-0.7-1-1.3-1.2c-0.2-0.1-0.5-0.1-0.7-0.1c-0.6,0-1.1,0.2-1.6,0.7c-0.9,1-0.9,2.3-0.2,4
		c0.2-0.2,0.4-0.4,0.6-0.6c0.2-0.2,0.3-0.4,0.5-0.6c0.1,0.6,0.2,1.2-0.1,2c-0.5,1.3-1.3,2.4-2.4,3.3c-1.1,0.9-2.5,1.6-4,1.9h0
		c0,0.1-1.7-0.9-2.1-1.1c0,0-0.1,0-0.1,0l0,0c0.1-0.3,0.3-0.6,0.4-0.9c0.4-1,1-2.2,1.4-3.4c1.8-5.3,0.9-9-0.7-11.3
		c-1.3,0.5-3.6,1.8-5.4,2.8c-0.5,0.3-0.9,0.5-1.2,0.7c0.6,1,1.2,2,1.7,3.1c0.7,1.6,1.1,3.4,0.6,6c-0.1,0.4-0.1,0.8-0.3,1.2
		c0,0.1-0.7-0.3-1.7-0.9c-1.6-0.9-3.8-2.1-3.8-2.1c0.4-1.4,0.8-3.2,0.7-5.6c0-0.8-0.1-1.7-0.3-2.6c-0.1-0.3-0.3-0.9-0.5-1.6
		c-0.3-0.6-0.6-1.3-0.8-1.6v0c1.2-1.4,2.9-2.7,4.5-3.8c2.2-1.5,4.3-2.7,5.6-3.4c0.8,0.2,1.8,0.6,3,1.1c2,1,4.4,2.4,6.7,4.4
		c2,1.7,3.9,3.8,5.2,6.2c1.2-2.7,2-5.3,2.6-7.6c1-4.4,1.1-8.2,1.1-10.5l0.8-0.8l1.6-1.5c0.2-2.3,0-4.6-0.3-6.8
		c-1.6-10.2-7.7-17.9-7.7-17.9l0,0l0,0c0,0,10.9,8.7,11.9,22c0.1,0.9,0.1,1.8,0.1,2.7L163.9,121.9z"/>
	<path class="st1" d="M121.5,130.7c0.1,0.1,0.2,0.2,0.3,0.2l0-0.1C121.7,130.8,121.6,130.8,121.5,130.7z"/>
	<path class="st1" d="M171.8,45.9c-1.4-1-2.8-2-4.3-2.9v0l0,0h0c-1.5-0.9-3.1-1.7-4.9-2.4c-2.1-0.9-4.4-1.6-6.8-2.1
		c-3.7-0.8-7.7-1.3-11.8-1.3c-13.4,0-28.1,4.9-37.7,17.3c-0.2,0.3-0.4,0.7-0.7,1c-0.4,0.6-0.9,1.2-1.3,1.9c0,0,0,0,0,0
		c-0.4,0.1-0.8,0.1-1,0.2c-3.9,0.6-7.7,1.4-11.5,2.3c-36.1,9-63.2,31.3-64.6,32.4l-9,7.5h0l5.9,0.5l5.9,0.5
		c54.2,4.4,78.3,36.5,78.5,36.7l1.8,2.4l1.3,1.8l3.9-3.4c0.1-0.1,0.1-0.1,0.2-0.2c1.3-1.1,2.2-2.4,3-3.6l0,0c0.5,0.4,1,0.9,1.5,1.4
		c1.2,1.1,2.1,1.6,3.2,2.8c0.2,0.2,0.4,0.4,0.6,0.6c0.3,0.5,0.4,1.1,0.5,1.7c0,0.2,0.1,0.4,0.1,0.6c0,0,0,0,0,0c0,0,0,0.1,0,0.1
		c0,0.7-0.1,1.2-0.1,1.7c-0.1,0.7-0.4,1.2-0.7,2c-0.5,1.1-1.4,2.8-1.4,2.8l-0.5,1l21.3,12l1.8-0.5l2.2-0.6l2.2-0.6
		c5-1.3,8.4-2.1,10.3-3l1-0.5l0.3-0.1h0l0.7-1.2c0,0,0.1-0.1,0.1-0.2c0.8-1.4,4.7-8.3,7.7-18.3c0.8-2.7,1.6-5.5,2.2-8.6
		c0.2-0.2,0.5-0.4,0.7-0.7c0.6-0.6,1.4-1.2,2-1.8c0.7-0.7,1.3-1.2,1.3-1.2l0.3-0.3l0.2-1.8c0.1-0.6,0.1-1.2,0.1-1.9
		c0-0.6,0.1-1.2,0.1-1.9c0-2.2-0.2-4.3-0.5-6.3c-0.1-0.6-0.2-1.1-0.3-1.7c7.7-3.9,11.1-9.8,13.2-15.1c0.2-0.4,0.3-0.9,0.5-1.3
		c1.2-3.5,1.9-7.4,1.9-11.5c0-4.8-0.9-9.9-2.8-15C185.3,59.3,179.9,51.8,171.8,45.9z M188.8,82c0,0.3,0,0.6,0,0.9
		c-0.1,4-0.8,7.8-2.2,11.1c-0.8,1.9-1.6,3.7-2.8,5.5c-0.1,0.1-0.1,0.2-0.2,0.3c0,0,0,0.1-0.1,0.1c-2.1,3.2-5.1,6.1-9.8,8.3l-0.8,0.4
		l0.2,0.8c0.5,2.5,0.8,5.3,0.8,8c0,0.1,0,0.3,0,0.4c0,1.2-0.1,2.3-0.2,3.5l-0.1,1c-0.6,0.6-2.1,1.9-3.1,2.8
		c-0.3,0.3-0.6,0.6-0.8,0.7l-0.3,0.2l-0.1,0.4c-1.4,6.8-3.4,12.8-5.3,17.4c-1.2,2.9-2.4,5.3-3.2,6.9c-0.8,1.5-1.3,2.3-1.3,2.4
		l-0.4,0.7l-0.7,0.3c-0.2,0.1-0.4,0.2-0.7,0.3c-1.7,0.7-4.9,1.5-9.3,2.6l-4.3,1.1l-0.9,0.3l-18.6-10.5c0.3-0.6,0.7-1.4,1-2
		c0.1-0.1,0.1-0.3,0.2-0.4c0.4-1,0.9-2.1,0.8-4.2c0,0,0,0,0,0c0-0.8-0.1-1.7-0.4-2.6c-0.1-0.3-0.2-0.6-0.4-0.9l-0.1-0.1l-0.1-0.1
		c-1.6-1.9-2.8-2.6-4.1-3.8c-1-0.9-1.8-1.6-2.6-2.3l-0.5-0.5l-0.5-0.5l-0.3,0.7l-0.3,0.7c-0.8,1.5-1.8,3.1-3.3,4.4l-2.1,1.8
		l-1.6-2.2c-0.1-0.1-2.5-3.3-7.4-7.8c-0.6-0.5-1.2-1.1-1.9-1.7c0,0,0,0-0.1,0c-11.7-10.2-34.7-25.2-70.8-28.1L23.8,98l4.9-4
		c0.8-0.7,13-10.7,31.6-19.9c12.2-6.1,27.1-11.8,43.4-14.3c0.2,0,0.6-0.1,1-0.2c0.2,0,0.3-0.1,0.5-0.1l0.2,0l0.2,0l0.3-0.4
		c0.2-0.3,0.4-0.6,0.6-1c0.5-0.7,1-1.4,1.5-2.1c1.1-1.5,2.3-2.8,3.6-4.1c8.9-8.8,21-12.4,32.3-12.4c8.6,0,16.7,2.1,22.4,5.5l0,0
		C182.3,54.3,188.8,69.3,188.8,82C188.8,82,188.8,82,188.8,82z"/>
</g>
</svg>
