<?xml version="1.0" encoding="utf-8"?>
<!-- Generator: Adobe Illustrator 16.0.3, SVG Export Plug-In . SVG Version: 6.00 Build 0)  -->
<!DOCTYPE svg PUBLIC "-//W3C//DTD SVG 1.1//EN" "http://www.w3.org/Graphics/SVG/1.1/DTD/svg11.dtd">
<svg version="1.1" id="team_logos" xmlns="http://www.w3.org/2000/svg" xmlns:xlink="http://www.w3.org/1999/xlink" x="0px" y="0px"
	 width="200px" height="200px" viewBox="0 0 200 200" enable-background="new 0 0 200 200" xml:space="preserve">
<g id="jets">
	<g>
		<g>
			<path fill="#FFFFFF" d="M182.914,72.839c-8.477-8.474-20.408-15.673-34.503-20.82c-14.888-5.433-31.626-8.304-48.412-8.304
				c-23.402,0-47.486,6.197-66.076,17.004C14.906,71.771,4,86.09,4,100c0,8.871,4.453,18.014,12.876,26.439
				c8.591,8.59,20.716,15.951,35.066,21.283c15.07,5.604,31.688,8.562,48.057,8.562c16.786,0,33.524-2.869,48.412-8.304
				c14.095-5.146,26.026-12.346,34.503-20.818C191.475,118.602,196,109.208,196,100C196,90.794,191.475,81.4,182.914,72.839z"/>
			<g>
				<path fill="#2A433A" d="M190.492,100c0-24.51-40.182-50.778-90.493-50.778C51.835,49.222,9.508,75.649,9.508,100
					c0,24.35,42.327,50.781,90.491,50.781C150.311,150.781,190.492,124.51,190.492,100z"/>
				<g>
					<g>
						<path fill="#FFFFFF" d="M135.001,73.584v5.335h8.44h0.057l0.055-0.005c0.455-0.031,1.206,0.09,1.368,0.364
							c0.151,0.256,0.099,1.177-1.069,3.01c-0.015,0.024-8.185,13.627-11.221,18.685l-11.965-19.141
							c-0.988-1.523-0.873-2.129-0.755-2.351c0.214-0.404,0.547-0.516,1.237-0.563l0.026,0.001c0.009,0,0.033,0,0.033,0h6.128
							v-5.335l-46.08-0.004v5.312h5.822c1.19,0,2.007,0.237,2.495,0.726c0.815,0.816,0.983,2.538,0.983,4.872v19.57L67.22,73.596
							H44.203v5.583h7.556c0.806-0.002,1.367,0.15,1.668,0.451c0.582,0.581,0.582,2.061,0.582,3.489l0.004,30.73
							c0,5.086-0.546,6.483-2.542,6.498c0.01,0-7.332,0-7.332,0v4.922h24.679v-4.979h-6.967c-1.176,0.009-2.016-0.047-2.314-0.343
							c-0.648-0.642-0.703-3.485-0.703-6.101V86.803l31.796,38.516h4.982c0,0,0.032-42.873-0.005-43.633
							c-0.056-1.166,0.265-2.498,2.344-2.765h4.953c2.291-0.009,3.789,2.765,5.337,5.38c0,0,11.901,20.243,13.483,22.923v9.77
							c0,3.312-1.468,3.312-2.097,3.312h-5.582v4.979h29.289v-5.023h-5.346c-2.068-0.11-2.794-0.71-2.712-3.786
							c0-0.033,0-8.252,0-10.082l14.291-23.978c2.049-3.172,2.263-3.501,5.068-3.463c0.021,0,4.85,0,4.85,0v-5.364h-24.485V73.584z"
							/>
						<path fill="#2A433A" d="M136.332,74.916v2.672h7.109c0,0,5.267-0.439,1.533,5.416l-12.324,20.52l-13.114-20.986
							c-3.405-5.401,1.673-4.948,1.673-4.948h4.794v-2.672l-43.417-0.005v2.648h4.492c4.315,0,4.81,2.778,4.81,6.929v23.5
							L66.562,74.927H45.535v2.919h6.224c3.971-0.008,3.541,3.121,3.587,6.168v29.833c0,4.148-0.177,7.803-3.866,7.83h-6.009v2.26
							h22.015v-2.316H61.85c-3.77,0.029-4.349-0.543-4.349-7.771V82.772l33.758,41.212h2.759V84.194c0-4.149,0.078-6.45,3.932-6.606
							h5.481c2.93,0.212,4.481,3.599,6.547,7.144l13.078,22.127v10.133c0,3.145-1.232,4.646-3.43,4.646h-4.248v2.312h26.623v-2.362
							h-4.054c-3.255-0.167-4.091-1.84-4.003-5.15v-10.414l13.466-22.748c3.01-4.517,3.178-5.716,7.245-5.66h3.498v-2.699
							L136.332,74.916L136.332,74.916z"/>
					</g>
					<g>
						<path fill="#2A433A" d="M120.488,124.611c0-6.023-9.098-12.478-20.489-12.478c-10.906,0-20.489,6.492-20.489,12.478
							c0,5.98,9.583,12.475,20.489,12.475C111.391,137.086,120.488,130.635,120.488,124.611z"/>
						<g>
							<path fill="#FFFFFF" d="M119.119,123.938c-0.671-5.151-8.908-10.424-19.12-10.424c-9.774,0-18.408,5.299-19.114,10.424
								H119.119z"/>
							<path fill="#FFFFFF" d="M80.883,125.271c0.697,5.127,9.336,10.439,19.116,10.439c10.219,0,18.46-5.283,19.121-10.439H80.883z
								"/>
						</g>
						<g>
							<rect x="99.344" y="123.945" fill="none" width="1.31" height="1.33"/>
							<path fill="#2A433A" d="M93.085,129.064c-2.589,0-4.688-1.996-4.688-4.453c0-2.461,2.099-4.454,4.688-4.454h13.828
								c2.59,0,4.688,1.993,4.688,4.454c0,2.457-2.099,4.453-4.688,4.453H93.085z"/>
							<path fill="#FFFFFF" d="M107.632,122.625c-0.028-0.133-0.062-0.264-0.098-0.391l-1.306-0.002
								c0.045,0.138,0.086,0.277,0.121,0.42c0.107,0.416,0.178,0.85,0.217,1.293h-2.338c-0.035-0.409-0.099-0.817-0.192-1.189
								l-1.261,0.018c0.117,0.377,0.195,0.769,0.242,1.172h-2.365v-1.112h-1.31v1.112H96.98c0.044-0.403,0.123-0.795,0.238-1.172
								l-1.259-0.018c-0.092,0.372-0.155,0.78-0.191,1.189H93.43c0.039-0.443,0.109-0.877,0.216-1.293
								c0.037-0.143,0.076-0.282,0.122-0.42l-1.308,0.002c-0.033,0.127-0.065,0.258-0.096,0.391c-0.145,0.652-0.22,1.326-0.22,2.023
								c0,0.809,0.103,1.595,0.298,2.345l1.307,0.015c-0.17-0.553-0.282-1.135-0.33-1.732h2.34c0.035,0.418,0.1,0.83,0.2,1.227
								l1.244-0.016c-0.117-0.389-0.193-0.795-0.235-1.211h2.376v1.156h1.311v-1.156h2.375c-0.041,0.416-0.118,0.822-0.235,1.211
								l1.243,0.016c0.102-0.396,0.166-0.809,0.199-1.227h2.341c-0.048,0.599-0.158,1.181-0.331,1.732l1.309-0.015
								c0.196-0.75,0.301-1.536,0.301-2.345C107.854,123.951,107.777,123.277,107.632,122.625z"/>
						</g>
					</g>
					<g>
						<g>
							<path fill="#2A433A" d="M159.631,91.146c-1.361-2.559-4.941-4.022-10.357-4.228c-3.979-0.13-7.102,0.077-9.575,0.709
								l-65.167,0.028c1.897-3.543,3.332-6.228,3.332-6.228H61.796L50.754,102.2c-0.894,1.311-1.019,1.387-1.934,1.291
								c-0.266-0.026-0.443-0.065-0.561-0.099c0.164-0.569,0.822-1.678,1.058-2.076c-0.006,0.013,3.842-6.32,3.842-6.32H38.178
								l-0.451,0.618c-4.118,5.668-5.334,10.237-3.619,13.581c1.648,3.21,5.695,4.818,12.031,4.779
								c6.384-0.039,10.406-0.341,13.605-2.427h32.509l8.379-15.647h7.224L99.52,111.52h16.591l5.218-9.785h7.022l-0.363,0.892
								c-1.282,3.147-0.594,5.238,0.211,6.437c1.572,2.34,4.949,3.532,10.039,3.543c8.568-0.016,14.041-0.805,16.662-4.793
								c2.166-3.295,2.488-6.295,0.914-8.453c-0.436-0.609-1.125-1.139-1.939-1.596h4.729l0.439-0.708
								C160.701,94.38,160.279,92.366,159.631,91.146z"/>
							<polygon fill="#2A433A" points="155.807,99.347 155.814,99.358 155.824,99.374 							"/>
						</g>
						<g>
							<g>
								<g>
									<path fill="#FFFFFF" d="M50.493,96.496h-11.55c-7.764,10.684-3.955,16.047,7.188,15.98
										c10.144-0.062,13.705-0.711,17.938-8.441L75.36,82.929H62.697l-10.658,20.049c-0.998,1.47-1.56,2.194-3.376,2.006
										c-2.872-0.303-2.091-1.983-0.635-4.432L50.493,96.496z"/>
									<polygon fill="#FFFFFF" points="102.02,110.018 115.214,110.018 123.523,94.531 129.604,94.531 132.516,89.126 
										105.812,89.126 102.969,94.403 110.355,94.403 									"/>
									<path fill="#FFFFFF" d="M129.377,103.188c-2.018,4.955,1.033,7.9,8.865,7.916c8.472-0.016,13.224-0.795,15.406-4.113
										c1.483-2.26,2.332-4.869,0.947-6.754c-0.951-1.356-4.365-2.537-7.596-3.165c-2.062-0.401-2.783-0.897-2.639-2.112
										c0.129-1.103,1.503-1.354,2.531-1.054c0.834,0.243,1.195,1.279,1.06,2.359h9.813c2.654-4.274-0.42-7.537-8.552-7.846
										c-10.065-0.33-13.899,1.521-15.933,6.648c-1.008,2.375-0.842,4.206,0.632,5.169c1.841,1.207,6.929,1.971,8.442,2.533
										c0.92,0.342,1.052,1.472,0.526,2.135c-0.603,0.767-2.041,1.131-2.954,0.422c-0.634-0.489-0.529-1.094-0.74-2.137H129.377
										L129.377,103.188z"/>
									<polygon fill="#FFFFFF" points="66.11,110.05 91.356,110.05 94.184,104.771 80.37,104.771 81.702,102.24 93.979,102.24 
										96.866,96.857 85.316,96.857 86.477,94.431 98.966,94.431 101.777,89.154 77.295,89.154 									"/>
								</g>
							</g>
						</g>
					</g>
				</g>
			</g>
		</g>
	</g>
</g>
</svg>
