<?xml version="1.0" encoding="utf-8"?>
<!-- Generator: Adobe Illustrator 16.0.0, SVG Export Plug-In . SVG Version: 6.00 Build 0)  -->
<!DOCTYPE svg PUBLIC "-//W3C//DTD SVG 1.1//EN" "http://www.w3.org/Graphics/SVG/1.1/DTD/svg11.dtd">
<svg version="1.1" id="team_logos" xmlns="http://www.w3.org/2000/svg" xmlns:xlink="http://www.w3.org/1999/xlink" x="0px" y="0px"
	 width="200px" height="200px" viewBox="0 0 200 200" enable-background="new 0 0 200 200" xml:space="preserve">
<g id="raiders">
	<g>
		<path fill="#231F20" d="M102.213,123.551c0.072,0.04-0.006,0.108,0.028,0.137c0.034,0.024,0.092,0.02,0.136-0.014
			c-0.068-0.015-0.005-0.061-0.021-0.09C102.317,123.526,102.26,123.566,102.213,123.551z"/>
		<g>
			<path fill="#FFFFFF" d="M100.156,21.5C80.091,39.683,53.898,39.139,26.993,35.756C21.192,101.664,43.765,166.717,99.73,178.5
				c56.499-11.326,78.812-76.258,73.368-142.195C148.05,38.829,122.098,39.854,100.156,21.5z"/>
		</g>
		<path d="M100.066,27.926c-16.722,13.6-43.103,16.978-68.291,13.295c-3.757,60.101,15.847,118.829,67.781,132.38
			c52.009-13.27,72.159-71.739,68.727-131.858C142.586,44.635,116.715,41.616,100.066,27.926z"/>
		<path fill="#FFFFFF" d="M120.062,131.524c-0.609,1.849-1.563,3.679-2.118,4.504c0,0,0.782,1.41,1.049,2.79
			c4.038,3.111,8.494,6.027,19.833,3.264c-2.019-0.617-14.681-6.926-17.939-10.003L120.062,131.524z"/>
		<path fill="#FFFFFF" d="M78.292,133.26c0,0,1.897,3.007,2.56,3.382c0,0,0.817,0.729,0.511,3.277
			c-4.56,3.408-15.695,4.793-21.344,2.573c0,0,13.627-5.374,17.394-8.767L78.292,133.26z"/>
		<path fill="#FFFFFF" d="M113.597,132.185c-0.263,0.282-0.492,0.58-0.775,0.845c-0.105,0.095-0.188,0.266-0.322,0.366
			c-0.316,0.238-0.596,0.462-0.941,0.679c-0.345,0.224-0.597,0.83-0.298,1.1c0.255,0.228,0.747,0.472,1.066-0.008
			c0.171-0.259,0.542-0.315,0.751-0.496c0.588-0.523,1.008-1.221,1.162-2.028c0.053-0.283-0.185-0.42-0.375-0.617
			c0.052,0.226-0.255,0.16-0.272,0.331C113.594,132.296,113.594,132.239,113.597,132.185z"/>
		<path fill="#FFFFFF" d="M84.697,133.002c0.325,0.904,1.086,1.289,1.311,1.653c0.36,0.575,0.528,1.186,0.878,1.737
			c-0.595,0.338-1.051,1.296-1.635,1.007c-0.293-0.147-0.382-0.775-0.56-1.217C84.248,135.066,84.871,134.143,84.697,133.002
			C84.727,133.004,84.67,133.001,84.697,133.002L84.697,133.002z"/>
		<path fill="#BBC4CA" d="M95.556,69.05c-6.829,0-13.886,1.707-16.009,8.239c0,0-3.598,13.146-3.363,15.212
			c-1.912,0.582-5.769,2.433-4.612,12.923c0,0,4.139,18.854,5.996,22.543l1.193,0.061c0,0,1.087-1.14,0.89,2.612
			c0,0-0.625,2.19,1.353,3.491c0,0,0.773-3.157,1.287,1.606c0.098,4.621,1.553,9.485,8.31,14.285c0,0,3.188-2.054,3.537-2.207
			c0,0-4.693-1.785-7.117-4.478c0,0,0.682,3.284-2.029-0.449c0,0-1.302-1.264-2.045-9.853c0.06-1.193-0.101-1.375-1.06-2.619
			c-3.728-7.598-6.688-25.119,0.312-31.607c7.377-0.47,24.981-0.86,31.585,0.341c2.703,0.656,4.033,1.521,4.642,6.171
			c1.315,5.883,0.441,17.635-2.619,27.049c0,0-0.447,2.026-1.523,2.997c-0.878,0.467-4.073,2.691-5.619,6.03
			c-0.573,1.166-1.829,2.299-3.929,3.214c-2.12,1.256-9.916,3.239-6.844,6.65c0,0-0.886,0.399-2.447,0.83
			c0,0,0.412,1.904,1.28,1.608c0,0,1.57-0.601,2.138-1.597c4.586,0.584,10.454-0.479,14.047-3.707
			c1.414-0.953,4.048-2.197,4.355-4.663c0,0,1.514-2.827-0.969-7.576c0.938-1.658,2.477-4.825,2.261-7.233
			c0.09-0.133,8.028-9.229,8.988-21.738c0,0-1.112-7.37-0.795-0.342c0,0-0.1,1.228-0.8,4.782c0,0-1.485,5.452-0.686,0.226
			c0,0,0.296-8.305-0.682-15.708c0,0-0.248-2.76,1.254,1.25c0.202,0.737-0.229-0.91-0.229-0.91s0.722,5.059,0.91,1.479
			c-0.91-4.21-1.138-5.236-2.392-5.69c-0.777-6.192-3.073-12.179-3.073-12.179l-0.567,0.682c2.1,5.845,3.47,25.268,2.957,30.849
			c0,0-1.348,10.989-2.504,10.244c0,0,1.866-18.542,1.029-25.423c-0.397-8.741-1.653-10.859-2.155-14.305c0,0-2.77-7.214,0.104-3.3
			l0.338-0.229c-2.449-6.277-6.148-9.333-17.301-9.562l1.523,27.283l-10.034,0.034L95.556,69.05z"/>
		<path fill="#FFFFFF" d="M82.858,104.667c-0.05-0.004,2.239-0.381,2.204-0.381c2.471,0.009,8.288-0.026,9.544,0.467
			c0.644,0.254,1.773-0.339,2.336-0.563c2.097-0.831,2.359-1.007,4.568-2.322c0.359-0.218,2.961-1.785,2.489-1.837
			c-6.036-0.661-18.344-0.585-20.777,0.142c0,0-1.023,0.171-1.311,0.494c-1.149,1.281-0.909,1.385-1.704,3.157
			c0.519-1.153-0.274,1.458-0.348,1.693c-0.205,0.671,0.948,0.639,1.182,0.318C81.464,105.249,81.547,104.575,82.858,104.667z"/>
		<path fill="#FFFFFF" d="M116.536,123.346c-0.271,1.299-0.436,2.643-0.886,3.886c-0.417,1.148-0.613,1.935-2.045,3.144
			c-0.295-2.498-1-3.73-0.866-4.663c-0.959,0.375-0.831,1.803-0.934,3.117c-0.164,2.083,0.4,3.615,0.269,3.006
			c0.061,0.29-0.727,0.865-1.01,1.312c-0.891,1.413-1.88,2.731-3.09,3.873c-0.18,0.169-0.226,0.515-0.415,0.597
			c-0.67,0.288-0.844,0.724-1.236,1.178c-0.321,0.374-1.17,0.664-1.605,0.904c-0.28,0.155-1.118,0.383-1.347,0.429
			c-0.507,0.102-0.969,0.084-1.737,0.044c-0.739-0.038-1.75-0.947-2.546-1.143c-2.323-0.565-2.863,1.532-6.473,0.758
			c-1.487-0.321-1.787-1.314-2.721-2.369c-0.177-0.201-1.066-1.279-1.206-1.43c0.374,0.402-2.475-2.28-3.021-4.349
			c-0.61-2.31-0.295-2.493-0.021-4.446c0.101-0.731-0.038-2.566-0.716-2.685c-0.631,0.648-0.175,1.093-0.362,2.03
			c-0.183,0.913,0.661,0.95,0.015,2.993c-0.186,0.582-0.504,0.442-0.688,0.05c-0.676-1.452-0.329-4.599-1.854-5.827
			c-0.353-0.283-0.373-1.136-0.079-1.357c0.47-0.352,0.934,0.206,1.537,0.065c0.109-0.022,0.042-0.759-0.041-0.854
			c-0.5-0.588-1.613-0.348-1.6-0.426c0.148-1.188,0.123-2.256-0.282-2.837c-0.553-0.798-1.37-0.935-1.703-1.714
			c-0.704-1.651-0.462-2.589-0.524-3.02c-0.084-0.583-0.226-1.523-0.061-2.142c-0.165,0.039-0.101-1.367-0.092-1.457
			c0.104-1.031,0.289-0.971,0.445-1.942c0.03-0.596,1.5-0.945,1.514,0.422c-0.36,1.806,0.181,3.229,0.227,5.054
			c0.006,0.219,0.365,0.425,0.607,0.496c3.973,1.141,6.945,0.703,10.896,0.625c1.06-0.021,1.694-1.345,1.921-2.377
			c0.374-1.71,0.376-2.288,0.39-4.168c0.197-0.503,0.661-0.366,1.025,0.051c0.676,0.779,0.148,1.069,0.317,2.066
			c0.13,0.778-0.871,1.922-0.871,1.922c0.112,0.007-0.336,2.633-0.224,2.64c0.205,0.011-0.152,2.355-0.207,2.298
			c-0.15,1.274,0.729,0.806,0.59,1.741c-0.021,0.427-0.237,1.019-0.227,1.099c0.127,0.862-1.798,0.675-1.489,0.691
			c-0.425-0.021-0.757-0.211-0.738-0.551c0.021-0.488-0.109-0.852-0.104-1.287c-0.938-0.051-0.55,0.703-0.601,1.679
			c-0.023,0.424,0.257,0.788,0.977,0.905c0.764,0.124,0.843,0.216,1.198-0.021c0.184-0.125,0.791-0.261,0.885-0.554
			c0.354,1.386,0.77,1.581,1.799,1.549c0.438-0.014,1.446,0.162,1.841-0.842c0.098-0.255,0.779-0.216,0.877-0.469
			c1.778,0.352,0.692,1.074,2.846,0.386c0.648-0.21,1.177-1.144,0.619-1.884c-0.067-0.089-0.417-0.085-0.423-0.035
			c-0.235,1.853-0.964,1.306-1.659,1.265c-2.286-0.13-1.052-1.08-2.993,0.015c-0.229,0.13-0.909,1.062-1.813,0.333
			c-1.224-1.091,0.099-1.877,0.247-3.064c0.133-1.083,0.083-4.482,0.032-5.472c-0.12-2.329,0.475-0.913,0.871-1.921
			c-0.334,0.085-0.153-2.85-0.184-3.001c-0.203-1.038-1.421-0.636-1.742-1.031c0,0-0.144-0.816,0.048-0.854
			c1.378-0.267,3.13-1.033,4.385-1.651c2.91-1.431,4.549-2.318,5.951-3.189c0.424-0.259,0.592-0.811,0.814-0.813
			c2.651-0.032,5.212-0.567,7.565,0.74c1.648,0.914,2.046,1.817,2.478,3.377c-0.19,0.032,0.155,1.664,0.159,1.805
			c0.034,1.027-0.021,2.904-0.007,3.42c0.081,3.387,0.275,4.545-0.188,6.831c-0.005,0.02-0.357,0.835-0.47,0.832
			c-0.279,0.411-0.76,1.023-1.329,1.503c-0.184,0.151-0.105,0.649,0.022,0.562c0.354-0.235,1.044-0.371,1.572-0.6
			C117.027,120.036,116.878,121.739,116.536,123.346z"/>
		<path d="M111.921,107.116c0.062,0.004-0.902-0.732-1.732-1.202c-0.379-0.218-1.97,0.86-2.356,0.901
			c-1.632,0.171-2.572,0.255-4.296,0.299c-0.425,0.012-1.03,0.017-1.286-0.375c-0.156-0.245-0.131-0.712,0.052-0.943
			c0.521-0.669,1.542,0.468,2.166-1.224c-0.003,0.008,1.952-0.08,2.548-0.106c2.04-0.095,5.046-0.077,4.775,0.164
			c0.25-0.222,0.643,0.883,1.051,1.166c0.769,0.533,0.549-0.171,0.895,0.902c-0.237-0.222,0.214,0.652-0.021,0.428
			c-0.006,0.113-0.15,0.616-0.206,0.672c-0.062,0.055-0.817-0.215-0.931-0.222C112.638,107.581,111.864,107.114,111.921,107.116z"/>
		<path d="M102.102,108.481c1.191-0.692-0.895-0.903-0.523,1.147c-0.033-0.191,0.388-0.063,0.423-0.154
			C102.061,109.333,102.089,108.823,102.102,108.481z"/>
		<path d="M100.919,113.122c0.269,1.381,0.021,1.199-0.13,2.472c-0.138,1.155,0.851,1.42,0.848,0.13
			C101.637,110.851,101.312,112.202,100.919,113.122z"/>
		<path d="M114.489,120.1c-0.114,0.27-0.293,0.284-0.513,0.428c-0.171,0.111-0.359,0.354-0.271,0.54
			c0.042,0.091,0.246,0.187,0.379,0.182c0.146-0.005,0.282-0.179,0.331-0.307C114.516,120.688,114.473,120.385,114.489,120.1z"/>
		<path fill="#231F20" d="M102.229,118.321c0.167,0.009,0.308-0.12,0.314-0.284c0.014-0.167-0.118-0.31-0.284-0.32
			c-0.167-0.008-0.31,0.119-0.315,0.289C101.931,118.17,102.062,118.312,102.229,118.321z"/>
		<path d="M113,110.213c-0.44,0.218-0.822,0.173-1.244,0.406c0.657-0.365-3.555-0.599-1.963-0.45
			c-1.13-0.105-2.054-0.349-3.23-0.344c0.003-0.055-0.223,0.176-0.221,0.119c-0.582,0.137-0.89-0.315-1.328-0.597
			c-0.305-0.199-0.578,0.008-0.861-0.032c0.061-0.109-0.102-0.183-0.056-0.252c0.073-0.116,0.272-0.177,0.347-0.186
			c0.506-0.068,1.097-0.021,1.583-0.19c1.703-0.592,3.031,0.22,4.779,0.166c0.547-0.017,1.304-0.127,1.817,0.236
			c0.104,0.073,0.104,0.252,0.183,0.31c0.231,0.171,0.639,0.066,0.772,0.209C113.849,109.9,113.304,110.061,113,110.213z"/>
		<path d="M111.328,112.684c-0.11-0.021-0.153-0.167-0.246-0.167c-0.993-0.002-1.883-0.257-2.798-0.647
			c-0.313-0.134-0.615,0.109-0.944,0.153c-0.427,0.057-0.881-0.121-1.253,0.012c-0.276,0.099-0.512,0.505-0.278,0.635
			c0.349,0.194,0.92,0.162,1.381-0.146c0.534-0.357,1.211-0.241,1.839-0.094c0.168,0.038,0.334,0.153,0.511,0.147
			C110.146,112.55,110.729,112.726,111.328,112.684z"/>
		<path d="M105.006,111.071c0.021-0.138-0.238-0.102-0.163-0.267c-0.411-0.117-0.795,0.252-1.193,0.09
			c-0.226-0.09-0.357-0.325-0.582-0.438c-0.016,0.323-0.134,0.769,0.146,0.892c0.566,0.246,1.18-0.468,1.78-0.106
			C104.996,111.184,104.992,111.127,105.006,111.071z"/>
		<path fill="#FFFFFF" d="M71.227,85.998l-3.698,3.654c0,0,3.24,5.044,3.659,5.236c0.663-1.247,1.781-2.984,3.241-3.078l0.267-1.866
			L71.227,85.998z"/>
		<path fill="#FFFFFF" d="M57.544,71.431l1.966,0.019c2.584,2.87,8.983,11.244,8.983,11.244l-0.979,2.343
			c2.503-2.092,3.944-3.471,4.87-4.79c1.813-1.957,3.44-0.418,2.005,0.876c-0.95,1.831-5.507,5.524-8.461,8.104
			c-8.435,7.592-24.384-4.53-11.031-16.226L57.544,71.431z"/>
		<path d="M55.001,75.915c1.462-1.805,2.774-0.795,1.608,0.255c-0.881,0.794,0.775,2.578,1.855,2.149
			c0.854-0.34,1.879,1.026,1.626,1.539c-0.659,1.358,0.612,2.776,1.591,2.306c0.543-0.258,1.675,0.64,1.293,1.436
			c-0.583,1.208,0.614,2.573,1.951,1.897c1.432-0.724,0.618,1.23,0.618,1.23C58.3,92.844,47.713,81.173,55.001,75.915z"/>
		<path fill="#FFFFFF" d="M55.76,73.258c1.282,0.068,2.375-0.918,2.441-2.198c0.068-1.282-0.918-2.375-2.199-2.443
			c-1.28-0.067-2.376,0.917-2.441,2.199C53.492,72.097,54.479,73.191,55.76,73.258z"/>
		<path d="M56.533,69.495c1.414,0.759,0.194,2.833-0.733,2.613c-1.002-0.238-0.234-0.44-0.234-0.44
			c0.933,0.135,1.782-1.358,0.608-1.849C55.729,69.635,56.533,69.495,56.533,69.495z"/>
		<path fill="#FFFFFF" d="M140.451,71.509l-1.965,0.078c-2.492,2.949-8.627,11.517-8.627,11.517l1.048,2.313
			c-2.566-2.013-4.049-3.344-5.015-4.636c-1.874-1.897-3.453-0.307-1.979,0.938c1.01,1.802,5.674,5.35,8.713,7.837
			c8.67,7.324,24.26-6.042,10.546-17.31L140.451,71.509z"/>
		<path d="M143.413,74.956c-1.218-1.263-2.194-0.544-1.854,0.51c0.387,1.18-1.08,3.42-1.816,2.954
			c-0.971-0.614-1.943,1.008-1.579,1.589c0.606,0.967-0.562,2.875-1.516,2.355c-0.529-0.289-1.611,0.766-1.247,1.476
			c0.601,1.182-0.69,2.265-1.892,1.957c-1.551-0.396-0.581,1.251-0.581,1.251C140.363,92.932,150.857,79.984,143.413,74.956z"/>
		<path fill="#FFFFFF" d="M142.319,72.528c-1.277,0.107-2.431-0.092-2.537-1.372c-0.11-1.278,0.87-3.152,2.149-3.26
			c1.277-0.107,2.401,0.843,2.511,2.124C144.553,71.297,143.599,72.421,142.319,72.528z"/>
		<path d="M141.429,68.792c-1.821,1.053-0.517,2.948,0.818,2.589c0.991-0.268,0.221-0.445,0.221-0.445
			c-1.307,0.229-2.253-1.11-0.67-1.83C142.236,68.907,141.429,68.792,141.429,68.792z"/>
		<path fill="#FFFFFF" d="M127.567,86.624c0.498,0.282,3.517,3.006,4.261,3.473c-0.438,1.858-3.389,7.601-4.04,8.592
			c-0.075-3.422-0.56-7.294-2.439-7.308l-0.354-1.388L127.567,86.624z"/>
		<path d="M115.422,141.077c0.149-1.038-0.753-2.006-1.393-1.188c-0.349,0.445-0.377,1.266-0.796,1.688
			c-1.135,1.143-1.846,1.359-2.504,2.063c-0.716,0.759-0.939,1.253-0.259,2.27c0.056,0.086,0.163,1.118,0.91,1.682
			c0.909,0.684,2.213-0.035,3.586-1.755c0.308-0.383,0.249-0.928,0.323-1.36C115.465,143.365,115.256,142.213,115.422,141.077z"/>
		<path d="M109.567,147.539c-0.09,2.833-4.227,3.968-5.89,3.024c-0.274-0.156-1.155-0.946-0.974-1.488
			c0.176-0.528,0.792-0.875,1.239-1.046c0.506-0.19,0.943-0.021,1.431-0.455c0.683-0.598,1.147-0.706,1.938-1.46
			c0.453-0.427,1.325-0.357,1.742-0.032c0.423,0.331,0.676,0.6,0.479,1.396C109.596,147.369,109.531,147.479,109.567,147.539z"/>
		<path fill="#FFFFFF" d="M114.196,143.295c-1.758,1.176-3.896,2.192-1.878,3.274c0.462,0.246,1.755-0.669,2.079-1.735
			C114.375,144.896,114.283,143.239,114.196,143.295z"/>
		<path fill="#FFFFFF" d="M108.164,148.816c-0.312,0.255-1.441,0.829-1.286,0.744c-0.747,0.415-1.612,0.648-2.468,0.507
			c-0.771-0.141-0.458-0.802-0.29-0.824c2.164-0.286,2.576-1.515,3.957-2.05c0.401,0.096,0.481,0.703,0.426,0.883
			C108.466,148.211,108.375,148.56,108.164,148.816z"/>
		<path d="M91.927,123.164c-0.544,0.69,0.008,0.797-1.305,2.068c-0.376,0.363-1.06,0.628-1.395,1.101
			c-0.059,0.079-0.049,0.391-0.064,0.618c0.833,0.276,2.352-0.385,3.958-0.406c0.967-0.016,1.91,0.304,2.89,0.503
			c1.721,0.352,3.311-0.025,5.379-0.139c2.482-0.136,2.957,0.458,3.742,0.367c1.533-0.176,2.471-0.934,1.809-0.741
			c0.161-0.048-1.278,0.139-1.166-0.078c-0.426-0.078-0.693,0.155-1.053,0.196c-0.839,0.097-1.676,0.051-2.572-0.255
			c-1.298-0.438-2.731,0.206-4.087,0.208c-2.206,0.003-4.652-0.801-7.401-0.518c-0.27,0.023,2.25-2.008,2.06-1.774
			c0.73-0.901,0.88-2.143,1.031-1.741C93.709,122.452,93.028,121.769,91.927,123.164z"/>
		<path d="M94.89,130.244c1.889-0.156,5.429,0.799,7.084,0.203c-0.009,0.169,1.392-0.441,1.356,0.239
			c-0.049,0.938-2.336,0.754-2.94,0.616c-1.649-0.373-2.233,0.146-5.646,0.045c-0.146-0.003-1.723,0.252-2.173-0.968
			C92.457,130.058,93.45,129.998,94.89,130.244"/>
		<path d="M106.085,124.341c-0.171,0.439,0.276,0.718,0.513,0.486c0.187-0.18,0.155-0.675-0.243-0.815
			C106.395,124.231,106.141,124.205,106.085,124.341z"/>
		<path d="M105.349,123.437c-0.176-0.111-0.356-0.275-0.509-0.312c-0.588-0.142-1.057-0.467-1.661-0.562
			c-0.15-0.022-0.217-0.281,0.032-0.403c0.372-0.186,0.782,0.009,1.165,0.133c0.507,0.171,0.581,0.778,0.995,1.028
			c0.121,0.075,0.451,0.12,0.358,0.29c-0.089,0.174-0.427,0.099-0.464-0.18C105.293,123.434,105.318,123.434,105.349,123.437z"/>
		<ellipse fill="#FFFFFF" cx="107.112" cy="125.624" rx="0.242" ry="0.323"/>
		<g>
			<path fill="#FFFFFF" d="M144.628,56.017c1.333,0.909,2.416,1.431,3.459,1.431c0.716,0,1.101-0.271,1.101-0.716
				c0-0.638-0.696-0.715-1.836-0.968c-2.355-0.501-3.555-1.795-3.555-3.805c0-2.898,2.263-5.023,5.774-5.023
				c1.585,0,3.073,0.406,4.658,1.254l-1.505,3.615c-0.971-0.715-1.974-1.083-2.845-1.083c-0.696,0-1.079,0.252-1.079,0.659
				c0,0.675,0.928,0.771,2.57,1.14c1.836,0.406,3.069,1.775,3.069,3.708c0,2.958-2.354,5.199-5.971,5.199
				c-1.813,0-3.65-0.523-5.427-1.547L144.628,56.017z"/>
			<path fill="#FFFFFF" d="M46.3,47.245h6.242c3.69,0,5.585,1.701,5.585,4.658c0,1.971-1.063,3.341-2.667,3.536l3.693,5.622h-5.568
				l-2.416-4.562v4.562H46.3V47.245z M51.168,53.507h0.773c0.948,0,1.468-0.484,1.468-1.333c0-0.85-0.501-1.371-1.468-1.371h-0.773
				V53.507z"/>
			<path fill="#FFFFFF" d="M67.7,47.131h5.527l4.831,13.817h-5.334l-0.443-1.741h-3.748l-0.428,1.741h-5.33L67.7,47.131z
				 M71.431,55.924l-0.424-1.564c-0.195-0.734-0.486-1.702-0.563-3.034h-0.096c-0.079,1.332-0.37,2.299-0.559,3.034l-0.426,1.564
				H71.431z"/>
			<path fill="#FFFFFF" d="M82.499,47.245h5.044v13.816h-5.044V47.245z"/>
			<path fill="#FFFFFF" d="M93.363,47.245h4.018c2.396,0,4.194,0.231,5.469,0.87c2.378,1.196,3.711,3.419,3.711,6.048
				c0,2.28-1.021,4.27-2.858,5.525c-1.796,1.237-3.924,1.371-6.685,1.371h-3.653L93.363,47.245L93.363,47.245z M100.848,54.163
				c0-1.817-1.001-2.667-3.012-2.667c-0.079,0-0.136,0-0.214,0v5.353C99.825,56.809,100.848,56.038,100.848,54.163z"/>
			<path fill="#FFFFFF" d="M111.265,47.245h9.237v3.75h-4.368v1.333h3.963v3.537h-3.963v1.448h4.483v3.748h-9.353V47.245z"/>
			<path fill="#FFFFFF" d="M126.207,47.245h6.241c3.693,0,5.588,1.701,5.588,4.658c0,1.971-1.065,3.341-2.669,3.536l3.693,5.622
				h-5.567l-2.415-4.562v4.562h-4.871V47.245L126.207,47.245z M131.078,53.507h0.771c0.949,0,1.472-0.484,1.472-1.333
				c0-0.85-0.503-1.371-1.472-1.371h-0.771V53.507z"/>
		</g>
	</g>
</g>
</svg>
