<?xml version="1.0" encoding="utf-8"?>
<!-- Generator: Adobe Illustrator 16.0.3, SVG Export Plug-In . SVG Version: 6.00 Build 0)  -->
<!DOCTYPE svg PUBLIC "-//W3C//DTD SVG 1.1//EN" "http://www.w3.org/Graphics/SVG/1.1/DTD/svg11.dtd">
<svg version="1.1" id="team_logos" xmlns="http://www.w3.org/2000/svg" xmlns:xlink="http://www.w3.org/1999/xlink" x="0px" y="0px"
	 width="200px" height="200px" viewBox="0 0 200 200" enable-background="new 0 0 200 200" xml:space="preserve">
<g id="titans">
	<g>
		<path fill="#FFFFFF" d="M65.997,111.344c0.19,2.252,0.989,6.736,3.584,11.742c3.206,6.182,9.919,14.421,23.764,19.087
			c2.2,3.451,4.786,6.673,7.713,9.591c10.524,10.495,24.51,16.264,39.373,16.241c14.865-0.021,28.83-5.831,39.326-16.356
			c10.495-10.522,16.266-24.508,16.241-39.371c-0.021-14.864-5.829-28.829-16.356-39.325c-8.338-8.316-18.8-13.667-30.312-15.523
			c-15.578-14.108-33.771-9.054-34.551-8.827c-0.262,0.074-0.65,0.187-1.139,0.335c-5.596,1.861-8.492-0.273-10.367-1.742
			c-2.078-1.63-4.345-3.286-6.533-4.516c-7.433-4.18-17.994-4.329-26.889-0.742c-5.863,1.996-8.815-0.586-10.563-1.793
			c-11.607-8.006-25.876-9.919-41.016-6.585C8.079,35.803,4,37.877,4,37.877s6.984,1.012,14.283,4.062
			c5.989,2.504,10.751,5.716,14.356,11.484c0,0,2.271,3.334,0.795,4.316c-1.649,1.101-3.37-1.592-3.37-1.592
			c-0.054,1.938-0.054,3.868,0.072,5.331c0.839,15.389,3.977,24.633,11.399,31.695c3.378,3.215,9.076,6.34,17.881,9.797
			C63.431,104.577,65.604,106.637,65.997,111.344z"/>
		<path fill="#002A5C" d="M177.139,75.465c-8.076-8.053-18.324-13.129-29.42-14.689c-14.461-13.837-31.949-8.766-31.949-8.766
			c3.705,0.551,6.168,2.761,5.217,5.208c-0.629,1.618-3.319,1.704-4.551,1.717c-3.906,0.042-7.278-2.355-9.972-4.544
			c-2.799-2.275-7.371-6.316-11.463-8.618c-7.619-4.284-19.718-3.752-28.475,1.839c5.236,0.355,11.536,1.864,15.294,4.975
			c2.097,1.736,4.772,5.232,2.585,6.864c-1.923,1.434-6.648,0.692-9.048-0.696c-3.82-2.211-7.258-5.561-9.32-7.989
			c-13.859-16.329-33.494-17.241-49.69-13.242C26.977,40.509,34.07,46.562,38.451,57c4.381,10.438,7.784,14.879,15.004,17.707
			c4.52,1.771,5.741,2.097,5.385,4.101c-0.518,2.936-5.871,1.525-9.954-0.068c-4.976-1.943-11.53-7.308-15.435-17.367
			c0.71,13.018,3.195,22.248,10.532,29.229c3.115,2.965,8.839,6.033,17.798,9.48c5.722,2.201,10.248,3.532,14.507,7.35
			c4.969,4.451,2.852,7.392-0.442,6.834c-3.731-0.631-6.392-4.438-6.392-4.438s0.005,21.21,26.22,29.371
			c2.181,3.617,4.821,6.99,7.893,10.051c9.854,9.824,22.943,15.229,36.86,15.207c13.916-0.021,26.99-5.459,36.818-15.312
			c9.825-9.855,15.228-22.944,15.206-36.86C192.432,98.367,186.992,85.292,177.139,75.465z"/>
		<path fill="#4495D1" d="M174.363,78.104c-7.817-7.818-17.854-12.609-28.688-13.798c-9.32-9.287-18.619-8.854-18.619-8.854
			c4.08,2.56,1.976,8.254-7.104,9.511c-8.991,1.241-20.411-1.806-25.973-8.285c-5.733-6.677-10.059-6.982-10.059-6.982
			c4.969,3.106,5.325,6.834,8.342,12.516c3.019,5.68,9.231,7.722,14.645,8.077c5.701,0.372,5.839,2.955,1.242,5.679
			c-5.015,2.974-9.454,0.163-12.677-3.014c-5.095-5.023-10.167-5.985-17.179-5.896c-7.012,0.088-16.279,1.012-24.102-1.918
			C46.368,62.212,41.21,51.916,41.21,51.916c3.869,13.667,12.467,20.147,20.442,21.71c10.542,2.069,17.827,4.577,22.284,8.188
			c4.354,3.53,6.67,7.051,8.308,11.911c1.263,3.746,1.488,8.72,0.241,9.016c-1.451,0.349-1.75-1.653-3.464-5.145
			c-1.891-3.858-4.148-6.882-8.704-9.313c-6.172-3.291-12.215-3.104-18.374-3.017c-4.881,0.067-7.741-0.49-7.741-0.49
			s0.207,0.658,8.156,2.443c8.858,1.989,17.425,6.98,23.128,19.153c4.851,10.353,2.321,17.64-8.43,14.343
			c0,0,5.021,11.159,21.418,15.135c2.117,3.719,4.747,7.18,7.855,10.287c9.086,9.084,21.166,14.09,34.017,14.09
			c12.85,0,24.932-5.006,34.018-14.09c9.088-9.088,14.091-21.166,14.091-34.016C188.455,99.271,183.452,87.191,174.363,78.104z"/>
		<path fill="#FFFFFF" d="M140.348,66.365c12.223,0,23.713,4.759,32.354,13.4c8.644,8.643,13.403,20.134,13.403,32.355
			c0,25.229-20.527,45.753-45.758,45.753c-12.222,0-23.713-4.76-32.354-13.4C99.35,135.83,94.59,124.341,94.59,112.12
			c0-12.221,4.76-23.713,13.403-32.355C116.637,71.125,128.127,66.365,140.348,66.365z"/>
		<g>
			<g>
				<g>
					<g>
						<g>
							<g>
								<circle fill="#002A5C" cx="140.348" cy="112.122" r="41.808"/>
							</g>
						</g>
					</g>
				</g>
			</g>
			<path fill="#FFFFFF" d="M130.122,103.66h-12.388l-4.082,7.281l-5.493-15.568h64.261l-5.486,15.568l-4.047-7.281h-12.186
				l-10.312,45.133L130.122,103.66z"/>
			<polygon fill="#BBC4CA" points="172.42,95.373 108.159,95.373 109.201,98.324 139.842,98.324 130.122,103.66 140.389,148.788 
				140.389,98.324 171.381,98.324 			"/>
		</g>
		<path fill="#DA2128" d="M108.803,59.263c-9.32-0.268-13.118-3.963-18.905-8.61c-7.084-5.689-14.941-4.104-14.941-4.104
			c4.705-2.694,13.959-2.804,20.623,3.039C101.529,54.808,104.453,57.642,108.803,59.263z"/>
		<path fill="#DA2128" d="M29.264,38.738c0,0,8.717-0.212,16.338,13.462c6.406,11.493,18.626,13.795,27.567,11.262
			c0,0-11.779-0.307-18.223-11.726C48.362,40.064,39.653,36.817,29.264,38.738z"/>
		<g>
			<g>
				<path fill="#DA2128" d="M78.622,104.945c0,0-1.233-12.708-19.345-16.394c-18.232-3.71-20.582-13.198-20.582-13.198
					s0.125,13.685,15.812,17.888C65.463,96.18,73.502,97.865,78.622,104.945z"/>
			</g>
		</g>
		<g>
			<polygon fill="#DA2128" points="146.629,91.354 144.166,84.022 150.395,79.508 142.665,79.508 140.234,72.183 137.918,79.508 
				130.188,79.6 136.486,84.082 134.139,91.45 140.348,86.843 			"/>
			<polygon fill="#DA2128" points="119.042,117.268 113.925,123.062 106.846,119.955 110.775,126.615 105.634,132.389 
				113.182,130.706 117.083,137.379 117.814,129.684 125.369,128.033 118.275,124.96 			"/>
			<polygon fill="#DA2128" points="155.275,128.2 162.854,129.732 163.703,137.416 167.504,130.686 175.075,132.25 169.846,126.557 
				173.674,119.839 166.643,123.055 161.438,117.336 162.322,125.018 			"/>
		</g>
	</g>
</g>
</svg>
