<svg xmlns="http://www.w3.org/2000/svg" width="90" height="87" viewBox="0 0 90 87">
    <path fill="#002C5F" fill-rule="evenodd" d="M44.557 47.32a21.989 21.989 0 0 1 15.777 6.646l.636-.624a22.867 22.867 0 0 0-16.413-6.915 22.871 22.871 0 0 0-16.414 6.915l.638.624a21.988 21.988 0 0 1 15.776-6.647zm0 9.419c3.788 0 7.186 1.668 9.503 4.31l.67-.59a13.487 13.487 0 0 0-10.173-4.615 13.496 13.496 0 0 0-10.175 4.615l.671.59a12.607 12.607 0 0 1 9.504-4.31zm12.407-3.982c-.266-.204-.46-.13-.642-.016l-5.007 3.254 1.058.593 3.61-2.343-.571 1.97-.467-.36-.955.62 1.104.849-.32 1.106.938.862 1.655-5.748c.066-.204.085-.412-.18-.615l-.223-.172zm-21.912 3.954c.307-.249.512-.586.54-.923.04-.41-.074-.693-.466-1.174l-1.99-2.451.884-.716 2.177 2.678c.454.561.641 1.128.572 1.734-.079.684-.403 1.237-1.004 1.728-.603.489-1.213.693-1.897.63-.607-.057-1.124-.355-1.58-.914l-2.177-2.681.883-.717 1.992 2.45c.39.48.645.65 1.054.697.334.04.706-.09 1.012-.341zm4.75-6.34l.26 1.288 2.585-.527.211 1.037-2.584.526.11.542c.122.6.36.704.897.594l2.079-.423.214 1.054-2.142.435c-.993.202-1.89-.08-2.138-1.313l-.737-3.618c-.054-.267.09-.457.334-.507l3.52-.716.214 1.053-2.824.574zm7.673 4.457l-.69-.18c-.24-.064-.375-.262-.305-.523l.937-3.575c.32-1.215 1.228-1.446 2.207-1.19l2.115.554-.273 1.04-2.05-.539c-.532-.14-.776-.05-.93.543l-.141.536 2.553.669-.269 1.023-2.553-.67-.601 2.312zm21.41 30.202h.269c.188 0 .357-.01.357-.238 0-.183-.165-.216-.322-.216h-.304v.454zm0 .19v.638h-.221v-1.471h.56c.347 0 .519.128.519.418 0 .263-.166.377-.38.405l.415.648h-.248l-.387-.638h-.258zm-.769-.102c0 .615.457 1.068 1.04 1.068.576 0 1.033-.453 1.033-1.068 0-.603-.457-1.059-1.033-1.059-.583 0-1.04.456-1.04 1.059zm1.04 1.28c-.7 0-1.296-.54-1.296-1.28 0-.731.595-1.272 1.296-1.272.694 0 1.29.54 1.29 1.272 0 .74-.596 1.28-1.29 1.28zm-6.931-9.148v5.53c0 .298-.128.436-.492.449v.292h5.637c.012-.588.033-1.154.128-2.029h-.355c-.18.897-.362 1.088-.939 1.088h-2.402v-2.25h1.42c.48 0 .554.162.62.545h.29a10.444 10.444 0 0 1-.062-1.014c0-.288.03-.746.062-1.014h-.29c-.066.383-.14.543-.62.543h-1.42v-2.029h2.284c.577 0 .726.203.833.79h.292a20.495 20.495 0 0 1-.085-1.642h-5.393v.292c.364.01.492.15.492.449zm-8.642-.035v3.988c0 1.827 1.025 2.457 2.945 2.457s2.948-.63 2.948-2.605v-3.84c0-.3.126-.438.49-.448v-.294c-.344.032-.78.064-1.228.064-.556 0-.994-.032-1.42-.064v.294c.459.02.577.105.577.52v3.99c0 1.186-.503 1.443-1.367 1.443s-1.366-.235-1.366-1.443v-3.99c0-.415.118-.5.577-.52v-.294c-.428.032-.864.064-1.42.064-.449 0-.885-.032-1.228-.064v.294c.364.01.492.148.492.448zm-4.227 3.81v.765c0 .491-.416.844-1.174.844-1.239 0-1.987-1.495-1.987-2.818 0-1.376.728-2.514 2.212-2.514.884 0 1.786.47 1.924 1.42h.308a31.952 31.952 0 0 1-.066-1.861c-.575-.36-1.366-.498-2.104-.498-2.305 0-3.854 1.403-3.854 3.72 0 1.922 1.282 3.577 3.287 3.577.728 0 1.433-.225 2.105-.854l.246.715h.618v-2.39c0-.48.192-.576.566-.589v-.334c-.48.032-.949.066-1.43.066-.449 0-.887-.034-1.323-.066v.358c.48.008.672.032.672.459zm-8.613-.573h-1.505c.278-.754.619-1.597.865-2.449h.02c.214 1.075.395 1.757.62 2.45zm-4.088 2.777v.292c.373-.032.737-.065 1.11-.065.363 0 .736.033 1.1.065v-.292c-.354-.022-.502-.149-.502-.341 0-.104.032-.223.085-.371l.47-1.256h2.08l.342 1.032c.055.138.108.383.108.533 0 .244-.139.329-.534.403v.292c.46-.032.918-.065 1.377-.065.448 0 .907.033 1.356.065v-.292c-.32-.084-.48-.223-.642-.69l-1.963-6.072c-.33.032-.673.064-1.003.064-.331 0-.662-.032-1.003-.064v.288c.287 0 .404.173.404.28 0 .107-.074.255-.137.416l-2.093 5.29c-.106.276-.245.445-.555.488zm-6.553-5.98v5.53c0 .3-.129.437-.491.45v.292h5.637c.01-.588.034-1.154.129-2.029h-.356c-.18.897-.363 1.088-.94 1.088h-2.4v-2.218H33.1c.48 0 .556.16.619.545h.291a10.453 10.453 0 0 1-.063-1.014c0-.29.032-.748.063-1.014h-.291c-.063.383-.139.544-.62.544h-1.416V77.36h2.282c.576 0 .725.203.832.79h.292a21.507 21.507 0 0 1-.085-1.642H29.61v.292c.362.01.49.15.49.449zm-6.792-.034v5.565c0 .298-.128.436-.49.449v.292h5.307c.01-.695.127-1.38.255-2.073h-.346c-.18.813-.469 1.132-1.174 1.132H24.89v-5.228c0-.298.076-.566.62-.585v-.294c-.31.032-.96.064-1.41.064-.394 0-.81-.032-1.28-.064v.294c.363.01.491.148.491.448zM8.347 71.71l.176-1.716c-.824.693-2.053 1.16-2.908 1.16-2.014 0-3.449-1.973-3.449-3.713 0-2.312 1.344-3.684 3.083-3.684 1.282 0 2.173.677 2.417 1.958h.399a40.523 40.523 0 0 1-.133-3.062c-.351-.14-1.25-.375-2.5-.375-3.57 0-5.432 2.587-5.432 5.27 0 2.62 1.861 5.178 5.157 5.178.885 0 2.243-.292 3.19-1.016zm24.405-6.366l-.306 5.778c-.026.58-.248.705-.787.749v.345c.429-.04.94-.084 1.451-.084.526 0 1.037.043 1.59.084v-.345c-.83-.099-.898-.249-.898-.942 0-.372.027-.746.041-1.464l.112-4.053h.026l2.641 6.88h1.16l2.309-6.796h.027l.319 4.12c.04.456.082 1.08.082 1.412 0 .634-.18.759-.857.843v.345c.567-.04 1.162-.084 1.769-.084.595 0 1.203.043 1.798.084v-.345c-.277-.044-.678-.099-.706-.458l-.44-5.905c-.042-.47-.098-1.09-.098-1.478 0-.375.068-.525.553-.567v-.361c-.47.042-.954.082-1.439.082-.481 0-.953-.04-1.437-.082l-2.17 6.41-2.418-6.41c-.498.042-.997.082-1.494.082-.498 0-.994-.04-1.408-.082v.361c.524.068.62.124.62.554 0 .552-.027.94-.04 1.327zm-11.845 6.872v-.345c.401-.056.581-.28.72-.637l2.71-6.872c.081-.208.178-.401.178-.538 0-.14-.151-.36-.525-.36V63.1c.443.042.871.082 1.3.082.428 0 .87-.04 1.3-.082l2.542 7.868c.208.609.414.789.829.9v.346c-.58-.04-1.174-.084-1.755-.084-.594 0-1.189.043-1.783.084v-.345c.51-.099.692-.209.692-.528 0-.193-.07-.51-.139-.69l-.441-1.34h-2.697l-.607 1.631c-.07.193-.112.345-.112.483 0 .248.193.415.65.444v.345c-.47-.04-.954-.084-1.423-.084-.485 0-.954.043-1.439.084zm3.346-3.957h1.949c-.29-.898-.526-1.783-.802-3.179h-.027c-.318 1.106-.762 2.2-1.12 3.18zm-13.188-4.215v7.245c0 .386-.165.567-.637.58v.353c.609-.04 1.149-.08 1.66-.08.512 0 1.05.04 1.658.08v-.354c-.47-.012-.636-.193-.636-.579v-3.182h3.346v3.182c0 .386-.165.567-.637.582v.351c.609-.04 1.148-.08 1.66-.08.51 0 1.05.04 1.658.08v-.351c-.47-.015-.636-.196-.636-.582v-7.245c0-.389.167-.569.637-.58V63.1c-.609.042-1.148.082-1.659.082-.512 0-1.051-.04-1.66-.082v.361c.472.012.637.192.637.581v2.737H13.11v-2.737c0-.389.167-.569.636-.58V63.1c-.608.042-1.146.082-1.659.08-.51 0-1.05-.038-1.659-.08v.361c.472.012.637.192.637.581zm71.87 5.028h-.35c.07.826.114 1.808.114 2.932.955.34 2.049.513 3.088.513 2.322 0 4.213-.998 4.213-2.877 0-1.85-1.337-2.375-2.774-2.787l-1.494-.428c-.585-.172-1.268-.4-1.268-1.182 0-.982 1.195-1.209 1.908-1.209 1.28 0 2.346.613 2.644 1.923h.358a32.848 32.848 0 0 1-.114-2.635 7.925 7.925 0 0 0-2.646-.455c-2.12 0-4.256.67-4.256 2.873 0 1.682 1.451 2.293 2.902 2.719l1.011.3c.655.2 1.538.427 1.538 1.28 0 1.068-1.21 1.31-2.049 1.31-1.523 0-2.542-.726-2.825-2.277zm-10.761-5.034v7.243c0 .388-.168.568-.637.581v.347c.442-.04.9-.083 1.356-.083.428 0 .87.042 1.327.083v-.347c-.374 0-.829-.054-.829-.774v-6.014h.027l4.589 7.142h1.466v-8.178c0-.389.165-.568.634-.58v-.364c-.442.044-.897.084-1.354.084-.428 0-.87-.04-1.327-.084v.363c.372 0 .829.056.829.773v5.049h-.027l-3.816-6.185c-.428.084-.843.084-1.215.084-.513 0-1.052-.04-1.66-.084v.363c.472.013.637.192.637.581zm-16.644.006v7.245c0 .386-.165.567-.635.582v.345c.608-.04 1.147-.084 1.658-.084.513.002 1.052.043 1.66.084v-.345c-.47-.015-.637-.196-.637-.582v-7.245c0-.389.168-.565.637-.58V63.1c-.608.042-1.147.082-1.66.082-.51 0-1.05-.04-1.658-.082v.361c.47.016.635.192.635.581zm-7.564 6.996v-6.57l.858-.09c1.216 0 1.989.44 1.989 1.687 0 1.146-.565 1.96-2.016 1.96-.182 0-.36-.04-.485-.04-.124 0-.207 0-.207.125 0 .29.996.636 1.674.636 1.782 0 3.08-1.05 3.082-2.765 0-1.604-.928-2.821-3.485-2.821h-4.09v.383c.47.014.634.196.634.583v6.76c0 .65-.096.884-.635.983v.345c.608-.04 1.148-.084 1.658-.084.511 0 1.052.043 1.923.084v-.345c-.802-.153-.9-.334-.9-.83zm16.696-6.732c2.074 0 2.696 2.35 2.696 3.951 0 1.51-.817 2.767-2.227 2.767-1.976 0-2.695-2.364-2.695-3.981 0-1.106.513-2.737 2.226-2.737zm.151 8.044c2.476 0 4.589-1.755 4.589-4.67 0-2.463-1.7-4.7-4.519-4.7-2.544 0-4.492 1.905-4.492 4.532 0 2.53 1.67 4.838 4.422 4.838zm-10.668-34.94c.43-1.978.107-3.817.107-3.817-1.265 1.818-2.507 3.203-3.656 4.258-3.097.162-5.513-.235-5.513-.235s1.38 1.382 2.975 2.178c-2.103 1.303-3.51 1.415-3.51 1.415 9.204.197 14.731-5.815 14.731-5.815-1.552 1.022-3.35 1.649-5.134 2.016zm-9.062.206s-1.871-.745-4.553-2.258c.094-1.613.343-3.664.854-6.27 0 0-2.132 2.11-4.893 3.744a46.058 46.058 0 0 1-4.92-3.907s.796 2.462 2.33 5.172c-1.458.544-2.957.798-4.33.463 0 0 1.62 2.022 6.62 2.884 1.387 1.642 3.075 3.001 5.046 3.474 0 0-.593-.653-.726-3.097 1.364.019 2.884-.04 4.572-.205zm-11.047-18.29c-2.232.069-3.981.266-5.347.515-.384-2.391-.444-4.108-.444-4.108-1.102 1.683-1.817 3.306-2.258 4.817-1.554.577-1.947 1.136-1.947 1.136.242.829.727 1.635 1.34 2.392-.192 3.58.966 5.945.966 5.945.261-1.257.78-2.477 1.434-3.62a26.821 26.821 0 0 0 3.79 2.522c-.89-1.59-1.542-3.375-2.024-5.105 2.136-2.683 4.49-4.494 4.49-4.494zm-5.154-8.63a36.589 36.589 0 0 1 3.923-3.279s-1.445 0-2.973.389c1.012-2.447 2.13-3.804 2.13-3.804s-6.434 4.578-7.653 12.803c0 0 .54-1.486 2.373-3.731.726 1.632 1.563 2.659 1.563 2.659.015-1.879.267-3.566.637-5.037zm21.402-6.765a25.788 25.788 0 0 0-4.853-1.867C47.363.43 49.159.017 49.159.017c-3.1-.124-5.77.438-8 1.297-3.335-.268-5.459.313-5.459.313.5.376.922 1.047 1.35 1.853-2.813 1.927-4.245 3.938-4.245 3.938 1.696-.842 3.498-1.483 5.275-1.97.194.356.4.712.622 1.059a20.103 20.103 0 0 0 2.467 3.112c.461-2.199 1.255-3.907 2.168-5.234 3.964-.55 6.947-.453 6.947-.453zm14.202 9.57c-1.054-2.37-2.573-4.156-4.225-5.505-1.411-2.963-3.036-4.333-3.036-4.333.136.682.033 1.456-.221 2.254-3.514-1.746-6.72-1.986-6.72-1.986 2.044 1.338 3.855 2.998 5.411 4.708-1.432 2.334-3.32 4.304-3.32 4.304 2.5-.564 4.51-.802 6.123-.842 2.466 3.402 3.797 6.257 3.797 6.257.05-2.298-.18-4.305-.564-6.037 2.09.401 2.755 1.18 2.755 1.18zm1.081 8.537c-.614.961-1.552 1.645-2.65 2.128-.148-3.081-.622-5.808-.622-5.808a70.242 70.242 0 0 1-2.887 6.714c-3.306.425-6.55-.06-6.55-.06 1.78 2.13 3.162 3.399 4.278 4.254-1.67 2.82-2.884 4.327-2.884 4.327 2.338-.535 4.199-1.424 5.677-2.478.607.418 1.124.88 1.639 1.665 0 0 .955-1.353 1.283-4.488 2.365-3.09 2.716-6.254 2.716-6.254zM44.988 23.18a98.81 98.81 0 0 0-3.604 5.91s-.881-3.026-1.209-7.379c-2.028-.684-4.121-1.475-6.139-2.384 0 0 2.333-1.182 6.06-2.627.106-2.264.421-4.674 1.073-7.081 0 0 1.226 2.257 3.457 5.462a81.046 81.046 0 0 1 7.75-2.137s-2.061 2.56-4.679 6.263a69.342 69.342 0 0 0 5.16 5.806s-3.359-.587-7.869-1.833z"/>
</svg>
