<?xml version="1.0" encoding="utf-8"?>
<!-- Generator: Adobe Illustrator 16.0.0, SVG Export Plug-In . SVG Version: 6.00 Build 0)  -->
<!DOCTYPE svg PUBLIC "-//W3C//DTD SVG 1.1//EN" "http://www.w3.org/Graphics/SVG/1.1/DTD/svg11.dtd">
<svg version="1.1" id="team_logos" xmlns="http://www.w3.org/2000/svg" xmlns:xlink="http://www.w3.org/1999/xlink" x="0px" y="0px"
	 width="200px" height="200px" viewBox="0 0 200 200" enable-background="new 0 0 200 200" xml:space="preserve">
<g id="cardinals">
	<g>
		<g>
			<g>
				<path fill="#FFFFFF" d="M183.458,148.951c-12.465-2.626-37.193-0.072-51.298,29.759c0,0-24.118-28.78-57.631-33.844
					c1.318-16.008-19.903-20.271-23.962-47.826c0,0-16.492-13.491-24.732-34.748l4.389,1.402c0,0-6.415-7.096-11.344-19.332
					l4.641,1.535c0,0-4.694-6.362-7.26-24.608C73.142,60.405,103.108,46.75,137.7,66.327c23.48,13.292,29.078,28.733,31.047,44.146
					C168.747,110.474,186.129,126.22,183.458,148.951z"/>
				<path d="M181.09,145.619c0.373-19.353-14.825-33.095-14.825-33.095c-1.645-12.224-6.088-29.914-29.769-42.968
					c-35.953-19.82-55.852-3.637-112.539-38.355c1.181,6.492,4.917,15.474,9.674,21.05l-5.864-1.917
					c4.268,8.975,11.085,17.126,14.659,19.771l-6.562-2.065c6.958,17.077,20.552,27.188,20.552,27.188
					c3.1,26.146,22.275,30.601,23.827,46.68c24.984,3.873,51.393,30.629,51.393,30.629
					C145.466,148.77,164.745,144.16,181.09,145.619z"/>
				<path fill="#FFFFFF" d="M149.086,111.964c-5.432,8.746-14.618,6.314-17.894-4.589l6.627,0.399
					c-5.813-3.478-11.084-8.583-15.165-13.625c-1.196,24.094,21.47,34.901,28.971,17.992
					C150.778,112.133,149.931,112.075,149.086,111.964z"/>
				<path fill="#B1063A" d="M133.491,72.833c-26.045-14.281-57.887-5.009-98.569-30.21c4.031,12.041,29.212,26.142,29.212,26.142
					l-22.283-7.237c5.674,9.846,28.902,22.181,28.902,22.181l-20.777-6.716c8.609,14.305,28.132,23.942,28.132,23.942l-12.006-0.864
					c1.557,13.438,20.125,25.014,21.111,35.388c8.398,3.21,19.225,8.796,27.664,16.055c16.12-7.927,11.676-34.761-19.073-72.804
					c42.294,2.556,41.126,33.907,65.403,29.401C159.434,99.69,158.283,86.428,133.491,72.833z"/>
				<path fill="#FFC20E" d="M178.051,140.628c-1.364-9.95-10.293-21.562-16.706-25.621c-3.005,6.157-10.341,10.104-16.789,11.894
					C159.688,128.717,172.129,134.734,178.051,140.628z"/>
				<path fill="#FFFFFF" d="M149.086,111.964c-5.432,8.746-14.618,6.314-17.894-4.589l6.627,0.399
					c-5.813-3.478-11.084-8.583-15.165-13.625c-1.196,24.094,21.47,34.901,28.971,17.992
					C150.778,112.133,149.931,112.075,149.086,111.964z"/>
				<path fill="#FFC20E" d="M145.671,148.842c9.838-5.515,22.511-8.191,31.769-6.322c-5.922-5.008-20.548-11.163-33.811-9.864
					C143.629,132.653,148.163,140.366,145.671,148.842z"/>
			</g>
		</g>
	</g>
</g>
</svg>
