<?xml version="1.0" encoding="utf-8"?>
<!-- Generator: Adobe Illustrator 16.0.0, SVG Export Plug-In . SVG Version: 6.00 Build 0)  -->
<!DOCTYPE svg PUBLIC "-//W3C//DTD SVG 1.1//EN" "http://www.w3.org/Graphics/SVG/1.1/DTD/svg11.dtd">
<svg version="1.1" id="team_logos" xmlns="http://www.w3.org/2000/svg" xmlns:xlink="http://www.w3.org/1999/xlink" x="0px" y="0px"
	 width="200px" height="200px" viewBox="0 0 200 200" enable-background="new 0 0 200 200" xml:space="preserve">
<g id="cowboys">
	<g>
		<polygon fill="#FFFFFF" points="196,78.624 123.193,78.624 99.999,9.253 76.806,78.624 4,78.624 63.652,121.337 40.751,190.747 
			99.999,148.417 159.253,190.665 136.346,121.339 		"/>
		<polygon fill="#002A5C" points="99.999,17.509 78.668,81.213 12.055,81.213 66.704,120.341 45.686,184.043 100.012,145.238 
			154.318,184.043 133.293,120.341 187.941,81.213 121.33,81.213 		"/>
		<polygon fill="#FFFFFF" points="99.999,35.068 82.847,86.667 28.89,86.667 73.155,118.361 56.131,169.957 100.132,138.527 
			143.865,169.957 126.841,118.361 171.109,86.667 117.152,86.667 		"/>
		<polygon fill="#002A5C" points="99.999,50.242 86.518,91.005 43.896,91.005 78.864,116.043 65.413,156.807 100.176,131.979 
			134.586,156.807 121.133,116.045 156.1,91.005 113.48,91.005 		"/>
	</g>
</g>
</svg>
