<?xml version="1.0" encoding="utf-8"?>
<!-- Generator: Adobe Illustrator 20.0.0, SVG Export Plug-In . SVG Version: 6.00 Build 0)  -->
<svg version="1.1" id="team_logos" xmlns="http://www.w3.org/2000/svg" xmlns:xlink="http://www.w3.org/1999/xlink" x="0px" y="0px"
	 viewBox="0 0 200 200" style="enable-background:new 0 0 200 200;" xml:space="preserve">
<style type="text/css">
	.st0{fill:#B0B7BC;}
	.st1{fill:#FFFFFF;}
	.st2{fill:#0076B6;}
</style>
<g>
	<g>
		<path class="st0" d="M174.079,73.369c0,0,2.403-2.061,4.915-2.016c2.518,0.04,4.256,0.883,5.203,1.89c0,0,2.002-0.274,4.177,0.323
			c2.172,0.6,5.239,2.392,6.434,4.478c1.193,2.09,1.333,4.492,0.092,6.764c0,0,0.412,1.546-0.603,3.462
			c-1.024,1.921-2.694,2.919-2.694,2.919s-1.143,2.839-4.123,4.16c-2.987,1.322-6.907-0.171-6.907-0.171s-2.221,0.433-3.895,0.433
			c-1.687-0.003-4.042-0.727-4.766-1.068c0,0-2.001,2.934-2.558,3.633c0,0,2.732,2.376,5.72,3.311
			c2.982,0.935,5.328,1.364,6.695,2.341c1.355,0.986,1.877,1.944,1.877,1.944s2.085-0.324,4.087,0.147
			c2.005,0.47,4.345,2.045,5.882,4.137c1.535,2.089,2.472,4.771,1.833,7.324c-0.639,2.561-2.1,3.492-2.1,3.492
			s-0.712,2.352-2.164,3.797c-1.445,1.458-3.511,1.551-3.511,1.551s-1.133,1.521-4.076,1.988c-2.939,0.47-5.044-1.155-5.044-1.155
			s-2.324,0.263-5.486-0.719c-3.153-0.977-5.312-4.209-5.312-4.209s-2.055-0.988-5.852-1.162
			c-3.796-0.173-12.272-1.877-16.045-4.071c0,0-2.219,1.072-8.945,1.42c0,0-0.997-3.036-2.947-4.559c0,0-5.78,3.207-7.608,4.054
			c-1.835,0.856-5.23,2.333-8.182,2.512c0,0-0.774,4.82-2.184,7.422c-1.404,2.604-4.107,4.538-6.396,5.296
			c0,0,3.332,1.182,5.084,3.781c1.743,2.604,2.342,5.458,1.15,7.757c-1.197,2.303-2.544,2.928-2.544,2.928s-0.684,2.324-3.375,3.531
			c-2.695,1.208-6.081,0.568-6.081,0.568s-1.875,0.988-4.443,0.969c-2.571-0.024-5.794-2.209-5.794-2.209s-8.429,0.771-10.938,0.56
			c-2.507-0.203-5.477-1.243-6.892-4.945c0,0-1.54,1.285-3.838,2.395c-2.302,1.108-6.661,3.245-9.794,5.475l0.104,1.665
			c0,0,4.578,1.724,4.872,6.41c0.301,4.69-2.261,6.429-2.988,6.926c0,0-0.974,2.115-3.064,3.178
			c-2.087,1.062-4.395,0.573-4.395,0.573s-5.148,2.284-9.072-1.469c-3.926-3.748-2.815-7.797-2.769-8.782
			c0.039-0.977,0.324-9.57,0.283-9.968c0,0-1.948-2.604-1.523-5.546c0.427-2.939,2.685-4.775,3.748-5.668
			c1.07-0.897,2.349-2.384,2.983-4.644c0.638-2.257,0.682-6.868,0.897-8.571c0.216-1.705,0.305-4.562,0.305-4.562
			s-7.715-2.127-11.725-6.603c-4.008-4.478-5.119-7.718-6.146-12.145c-1.016-4.432-1.738-8.911-5.811-11.424
			c0,0-2.667,0.763-5.731-0.472c-3.068-1.235-4.947-3.707-6.905-6.137c-1.962-2.43-8.946-3.538-11.427-3.664
			c0,0,5.243-5.8,12.322-8.272c7.074-2.468,10.441-1.493,12.787-0.169c2.347,1.322,4.19,3.547,5.058,6.57
			c0,0,4.613,1.995,7.773,5.707c3.154,3.705,4.645,6.987,5.672,11.036c1.022,4.054,2.309,8.964,10.44,10.747
			c0,0,4.819-4.818,6.645-6.018c1.838-1.189,4.136-1.865,4.798-2.059c0.659-0.195,3.757-1.203,3.757-1.203s4.868-3.97,5.661-4.762
			c0,0,1.815-3.224,2.965-5.1c1.151-1.875,2.953-3.735,2.953-3.735s-2.363-4.391-2.232-9.196c0,0,1.163,0.528,2.205,0.679
			c0,0-0.071-3.559,2.234-6.842c2.301-3.288,4.623-5.346,4.623-5.346s-0.176-4.323,2.445-8.421c0,0-1.997-3.2-2.168-5.245
			c0,0,3.324-0.298,5.839-1.023c2.517-0.724,3.75-1.233,5.031-2.775c1.277-1.532,4.344-5.283,8.225-7.118
			c3.883-1.831,8.186-2.498,11.275-2.254c0,0-1.895-1.625-3.991-2.305c0,0,3.575-2.631,10.61-3.382c0,0,0.053-3.564,0.813-5.44
			c0,0,9.343,6.393,14.028,8.228c4.69,1.836,8.096,2.43,10.527,3.626c2.422,1.187,4.144,3.388,4.54,4.743
			c0,0,2.618,1.006,4.622,2.415c2.001,1.406,3.163,4.798,3.163,4.798s3.786,1.51,7.71,3.895c3.917,2.386,8.731,7.418,8.731,7.418
			s-3.033,1.335-5.608,5.057C177.217,67.203,176.033,71.334,174.079,73.369"/>
		<path class="st1" d="M168.6,75.092c0,0,1.765-0.035,3.311,0.396c1.553,0.434,2.533,0.942,2.533,0.942s1.141-0.724,1.722-1.227
			c0.575-0.511,2.308-1.406,3.853-1.156c1.553,0.253,2.648,1.358,2.934,1.83c0,0,1.323,0.08,2.548,0.011
			c1.227-0.076,3.498,0.356,5.298,1.8c1.811,1.441,3.46,3.572,1.263,6.415c0,0,0.47,1.804-0.179,3.1
			c-0.649,1.303-2.327,2.011-2.327,2.011s-1.032,3.076-3.444,3.867c-2.415,0.797-5.446-0.689-5.446-0.689s-2.843,0.689-4.901,0.548
			c-2.053-0.147-4.3-1.882-4.3-1.882s-0.494,0.295-0.958,0.976c-0.473,0.688-4.011,5.646-4.836,6.52c0,0,3.462,3.362,6.885,4.764
			c3.427,1.404,5.155,1.627,6.062,1.874c0.896,0.256,2.879,1.372,3.604,3.539c0,0,2.202-0.548,3.639-0.435
			c1.444,0.106,2.849,0.393,5.372,2.988c2.523,2.596,1.948,4.943,1.551,6.021c-0.396,1.075-1.896,2.009-1.896,2.009
			s-0.125,2.173-1.425,3.329c-1.3,1.149-3.06,0.951-3.06,0.951s-0.689,1.314-2.488,1.861c-1.808,0.541-3.753-0.402-4.66-1.121
			c0,0-3.71,0.326-6.122-0.866c-2.411-1.189-3.546-3.522-3.546-3.522s-4.092-1.673-8.348-1.708
			c-4.253-0.035-12.49-2.335-15.189-4.304c0,0-4.096,1.866-7.397,1.915c0,0-1.019-3.09-4.589-5.234c0,0-7.65,4.239-10.39,5.5
			c-2.737,1.261-7.559,1.719-8.265,1.795c0,0,0.299,1.157-0.056,3.034c-0.374,1.872-1.52,5.554-2.492,6.779
			c-0.979,1.225-3.682,2.737-5.265,3.314c-1.584,0.578-3.566,1.084-5.232,1.909c-1.653,0.831-3.673,2.518-4.557,3.315
			c0,0,2.552,0.646,3.322,0.613c0.767-0.03,2.139-0.793,3.152-1.184c1.011-0.4,3.855-0.942,6.128,0.755
			c2.271,1.694,3.459,3.889,3.382,5.554c-0.064,1.656-1.14,2.86-2.727,3.68c0,0-0.474,2.341-2.453,3.06
			c-1.992,0.719-5.29,0.066-5.29,0.066s-1.565,1.016-3.44,1.121c-1.873,0.111-4.396-1.512-4.792-1.727
			c-0.401-0.22-0.794-0.432-1.482-0.432c-0.689,0-8.107,0.614-10.416,0.614c-2.305,0-3.891-1.122-4.866-2.922
			c-0.973-1.804,0.392-4.688,1.263-5.836c0.86-1.16,2.237-2.746,2.408-3.072c0.182-0.324,0.223-0.861-0.247-1.187
			c-0.469-0.324-1.974-1.067-1.974-1.067s-2.28,4.566-3.144,6.113c-0.867,1.55-1.986,3.28-4.145,4.614
			c-2.166,1.336-6.747,3.357-9.157,4.832c-2.419,1.475-3.851,2.838-3.851,2.838s0.025,4.345,0.156,4.88c0,0,2.176,0.429,3.047,1.184
			c0.866,0.761,1.727,1.986,1.69,3.68c-0.03,1.694-0.257,3.686-2.368,4.475c0,0-0.59,2.194-2.244,2.841
			c-1.66,0.651-3.356,0.074-3.356,0.074s-2.267,1.149-4.647,0.647c-2.378-0.503-4.361-2.952-4.398-5.445
			c-0.035-2.49,0.393-11.498,0.393-12.08c0-0.576,0-1.187-0.427-1.977c-0.435-0.795-1.447-2.775-1.188-4.039
			c0.252-1.261,1.546-2.741,2.737-3.753c1.189-1.007,2.635-2.013,3.354-4.036c0.718-2.012,1.331-4.79,1.406-6.92
			c0.073-2.122,0.331-9.044,0.798-10.918c0,0-8.948-1.985-12.984-6.599c-4.035-4.615-4.722-8.294-5.875-13.231
			c-1.154-4.942-2.627-8.718-7.327-11.176c0,0-2.518,1.226-5.756-0.179c-3.247-1.407-5.016-5.084-6.742-6.387
			c-1.731-1.294-6.441-2.039-7.383-2.013c0,0,5.612-3.894,9.473-5.048c3.856-1.152,8.042-1.512,10.671,0.581
			c2.629,2.083,3.025,5.693,3.025,5.693s5.411,2.235,8.549,6.09c3.137,3.86,4.065,7.46,4.681,9.877
			c0.616,2.415,2.517,7.245,5.568,9.375c3.052,2.132,6.63,3.028,8.495,3.155c0,0,5.264-5.499,7.067-6.691
			c1.797-1.189,3.818-1.66,4.678-1.91c0.869-0.248,3.867-1.243,3.867-1.243s5.305-4.568,6.324-5.356c0,0,3.077-5.33,3.941-6.596
			c0.87-1.259,3.191-4.225,3.191-4.225s-2.127-2.427-2.1-5.57c0,0,1.253,0.249,2.046,0.172c0,0-1.042-1.765-0.536-4.254
			c0.506-2.487,3.202-6.527,6.81-9.63c0,0-0.143-2.627,0.611-5.108c0.76-2.492,2.297-4.481,2.297-4.481s-1.645-2.035-1.905-3.632
			c0,0,3.108-0.291,5.272-1.008c2.161-0.727,3.892-2.259,3.892-2.259s4.14-5.715,9.186-7.518c5.055-1.804,10.201-1.246,10.201-1.246
			s2.553-1.661,3.605-2.027c0,0-2.003-2.255-3.665-2.949c0,0,3.892-1.176,7.477-0.901c0,0,0.066-2.494,0.473-3.942
			c0,0,6.248,4.508,9.099,5.765c2.846,1.262,8.286,3.065,10.13,3.645c1.836,0.575,4.954,1.773,5.613,5.101
			c0,0,3.031,1.276,4.226,1.926c1.19,0.651,2.417,2.202,2.667,2.851c0.245,0.644,0.497,1.446,0.807,1.945
			c0.312,0.504,0.845,0.861,1.352,1.037c0.507,0.185,5.514,2.419,7.827,4.149c2.301,1.737,5.445,4.725,5.445,4.725
			s-3.128,2.495-3.897,3.645c0,0-0.936,3.137-2.449,5.367c-1.52,2.235-3.783,3.107-3.783,3.107V75.092z"/>
		<path class="st2" d="M161.89,98.657c2.971-2.68,5.94-8.136,7.366-9.384c1.442-1.247,3.259-0.958,3.259-0.958
			s1.345,1.822,3.739,1.918c2.388,0.089,4.497-0.673,4.497-0.673s3.55,1.435,4.79,0.762c1.244-0.666,1.914-3.253,1.914-3.253
			s2.01-0.38,2.105-1.34c0.098-0.954-0.671-2.486-0.671-2.486s1.345-0.864,1.531-1.432c0.199-0.577-0.475-1.345-1.048-1.826
			c-0.576-0.476-2.681-1.63-3.731-1.436c-1.051,0.195-4.312-0.093-4.312-0.093s-0.48-1.342-1.341-1.629
			c-0.858-0.29-1.819,0.097-2.4,0.67c-0.571,0.576-2.289,1.723-3.151,1.723c-0.866,0-1.535-0.864-4.213-1.34
			c-2.686-0.479-4.312,0.767-4.312,0.767s0.249-1.981,0.109-3.362c-0.016-0.12-0.567,0.026-0.587-0.095
			c-0.073-1.308,0-3.249,0-3.249c-0.293,0.765-2.827,4.221-5.029,3.074c-2.202-1.153-1.581-5.271-1.581-5.271
			c3.451-2.111,8.341-1.822,8.341-1.822c0.945,2.104-0.298,4.21-0.298,4.21c4.117-1.341,5.078-6.414,5.561-7.465
			c0.473-1.056,2.673-2.297,2.673-2.297s-2.2-2.01-4.502-3.447c-2.292-1.436-6.507-3.255-7.275-3.542
			c-0.761-0.289-1.722-1.921-1.915-2.488c-0.19-0.579-0.763-2.302-2.198-3.073c-1.439-0.757-5.553-2.486-5.553-2.486
			s0.573-0.862-0.385-2.395c-0.958-1.529-4.408-2.199-10.057-4.114c-5.644-1.918-9.475-5.364-9.475-5.364
			c-0.199,1.632,1.052,3.067,1.052,3.067c-1.823-0.862-6.802-1.056-6.802-1.056c2.304,0.863,3.93,2.778,3.93,2.778
			c-1.915,0-4.983,1.824-4.983,1.824c2.491,0,3.543,1.337,3.543,1.337c-2.298,1.053-7.298-0.479-12.923,0.384
			c-5.62,0.863-9.287,5.269-9.287,5.269c2.391-0.868,3.923-0.097,3.923-0.097c-1.909,0.097-6.891,3.254-8.807,4.302
			c-1.917,1.057-4.692,0.958-4.692,0.958c0.664,1.441,2.487,1.827,2.487,1.827c-2.487,1.719-3.834,5.742-3.834,5.742
			c1.439-1.633,3.546-1.538,4.027-0.575c0.481,0.958-0.184,2.73-2.105,4.115c-1.553,1.121-5.357,4.309-7.375,7.181
			c-2.012,2.871-2.322,5.139-2.322,5.139c2.404-0.988,3.223-0.134,3.041,1.054c-0.317,2.01-3.865,3.571-3.865,3.571
			c0.858,1.436,4.109,1.538,4.109,1.538s-3.835,4.208-5.365,6.504c-1.531,2.301-4.115,6.903-4.596,7.568
			c-0.476,0.668-6.125,5.177-6.798,5.842c-0.671,0.665-6.421,2.108-7.857,2.779c-1.431,0.668-6.317,5.26-7.943,7.368
			c-0.1,0.128-0.191,0.253-0.285,0.38c-2.324-0.165-7.732-0.872-11.396-3.899c-4.771-3.952-5.887-8.652-6.709-11.86
			c-0.819-3.206-2.161-5.641-4.03-8.03c-1.868-2.386-7.609-5.243-8.577-5.839c0,0-0.708-4.037-2.683-5.371
			c-2.123-1.433-4.912-1.142-6.096-0.846c-0.358,0.092-0.843,0.256-1.373,0.459c1.11,0.102,2.119,0.346,2.934,0.563
			c2.707,0.698,2.884,2.598,2.884,2.598s-3.48-3.777-10.509-1.037c0.555,0.093,2.604,0.502,3.648,1.87
			c1.174,1.55,1.52,2.693,4.875,4.548c3,1.666,5.283-0.173,5.283-0.173s5.114,2.645,6.789,5.591
			c1.604,2.846,3.202,7.305,3.947,11.263c0.748,3.949,2.313,7.007,5.818,10.064c3.114,2.724,9.774,4.557,12.885,5.142
			c-0.085,0.29-0.18,0.586-0.278,0.899c-0.768,2.487-0.768,6.991-1.056,11.876c-0.283,4.878-1.336,7.653-2.489,9.761
			c-1.148,2.105-4.688,4.122-4.975,5.363c-0.288,1.249,1.345,2.59,1.531,4.5c0.191,1.915-0.283,9.959-0.283,11.107
			c0,1.152-0.291,2.588,0.379,3.642c0.671,1.057,1.727,1.627,3.161,1.432c1.432-0.185,2.009-1.048,2.009-1.048
			s2.106,0.863,3.062,0.282c0.958-0.576,0.863-2.482,0.863-2.482s1.438,0,1.815-0.484c0.393-0.481,0.481-2.203-0.188-3.064
			c-0.666-0.861-4.021-1.146-4.021-1.146c-0.184-0.389-0.767-6.895-0.287-8.334c0.479-1.432,4.308-3.637,7.283-5.363
			c2.966-1.72,6.986-3.158,8.419-4.688c1.171-1.247,4.252-7.433,5.366-9.703c0.066-0.141,3.757-9.225,12.589-13.247l0.067-0.046
			c-6.461,5.741-7.014,7.898-7.014,7.898s4.302-4.085,11.777-7.249c4.973-2.099,8.783-3.025,11.269-3.265
			c-6.165,1.963-11.428,4.942-16.729,8.132c-5.414,3.264-8.86,7.517-9.066,7.77c4.782,1.902,4.415,3.943,4.001,5.109
			c-0.48,1.344-3.445,4.313-3.925,5.649c-0.479,1.345-0.29,2.779,2.105,2.973c2.395,0.19,9.002-0.671,11.108-0.576
			c2.103,0.095,3.448,2.205,5.457,2.205c2.014,0,2.964-1.347,2.964-1.347c1.441,0.484,4.025,0.768,5.082,0.29
			c1.052-0.475,0.859-2.487,0.859-2.487c1.728-0.293,2.779-1.151,2.49-2.107c-0.286-0.958-0.959-2.198-2.393-3.066
			c-1.439-0.864-2.777-0.576-3.828-0.093c-1.057,0.475-2.492,1.334-4.025,1.144c-1.531-0.184-7.278-1.434-7.278-1.434
			c1.533-4.212,6.418-7.278,8.62-8.038c2.201-0.772,6.414-2.113,8.046-3.449c1.626-1.339,2.582-6.133,2.675-7.088
			c0.098-0.958-0.766-4.02-0.766-4.02c1.731-0.287,6.225-0.193,9.673-1.535c2.031-0.793,5.861-2.847,8.663-4.399
			c-6.149-3.546-18.424-2.648-18.424-2.648c12.902-2.686,21.825,0.73,21.825,0.73c4.213,1.246,6.32,5.268,6.32,5.268
			c2.68-0.385,6.129-2.013,6.129-2.013C153.688,106.921,161.89,98.657,161.89,98.657 M156.293,55.013
			c0.853,0,2.629,1.155,3.868,1.231c0,0-1.081,1.478-1.239,1.862c-0.146,0.386,0.469,1.16,0.469,1.16s-2.471-1.858-3.243-2.399
			c-0.779-0.542-3.72-1.163-3.72-1.163S155.45,55.013,156.293,55.013 M127.492,64.066c8.516,1.555,12.302,7.946,12.302,7.946
			s-6.406-5.158-13.229-5.876c-6.832-0.717-13.243,1.848-13.243,1.848S118.974,62.514,127.492,64.066 M106.872,81.472
			c-5.993,1.416-10.699-0.742-10.699-0.742c8.243-0.29,12.149-2.62,20.318-6.953c8.17-4.339,16.805-0.713,16.805-0.713
			c-6.066-0.897-10.681,0.659-14.148,2.355C116.126,76.894,112.551,80.128,106.872,81.472 M141.831,82.554
			c-2.735-2.937-11.969-4.755-20.763-1.451c8.793-4.757,16.935-3.381,21.114-1.236c3.998,2.051,3.64,5.337,3.569,5.78
			c0,0.014,0,0.042-0.008,0.052c0,0,2.927-0.582,4.973-1.834c0.176-2.743,1.738-5.525,4.278-5.381
			c2.851,0.161,6.798,2.267,6.798,2.267c-5.458,4.407-15.467,8.061-19.003,8.798C142.79,89.55,145.229,86.214,141.831,82.554"/>
		<path class="st2" d="M190.419,115.316c-0.282-1.247-1.722-3.063-3.25-3.924c-1.529-0.863-3.253-0.098-4.595,0
			c-1.341,0.092-2.491-0.959-2.783-1.629c-0.282-0.668-1.149-1.918-2.295-2.107c-1.144-0.187-3.734-0.861-7.273-2.487
			c-2.113-0.977-4.666-3.098-6.388-4.661c-1.534,1.589-3.902,3.906-6.524,6.07c-2.729,2.249-6.209,4.433-8.569,5.831
			c5.695,2.716,12.425,3.057,15.542,3.39c3.636,0.382,7.373,2.104,7.373,2.104s0.483,2.103,2.781,3.156
			c2.29,1.057,5.646,0.478,5.646,0.478s1.725,1.722,3.159,1.244c1.436-0.477,1.532-2.395,1.532-2.395s1.817,0.959,2.773,0.291
			c0.964-0.671,0.674-3.351,0.674-3.351C189.371,117.328,190.71,116.561,190.419,115.316"/>
	</g>
</g>
</svg>
