<?xml version="1.0" encoding="utf-8"?>
<!-- Generator: Adobe Illustrator 16.0.0, SVG Export Plug-In . SVG Version: 6.00 Build 0)  -->
<!DOCTYPE svg PUBLIC "-//W3C//DTD SVG 1.1//EN" "http://www.w3.org/Graphics/SVG/1.1/DTD/svg11.dtd">
<svg version="1.1" id="Layer_2" xmlns="http://www.w3.org/2000/svg" xmlns:xlink="http://www.w3.org/1999/xlink" x="0px" y="0px"
	 width="200px" height="200px" viewBox="0 0 200 200" enable-background="new 0 0 200 200" xml:space="preserve">
<g>
	<path d="M174.14,82.764c-2.062-4.351-6.055-7.979-9.999-10.573c1.372-1.757,2.336-4.056,2.017-6.321
		c-0.223-1.574-1.198-2.653-2.322-3.702c-2.481-2.317-5.36-4.223-8.357-5.8c-5.6-2.945-10.962-6.313-16.657-9.084
		c-7.566-3.682-15.777-6.177-24.172-6.954c-5.308-0.49-10.688-0.268-15.917,0.798c-0.403,0.083-0.619-0.02-1.019-0.114
		c-0.707-0.166-1.424-0.29-2.143-0.387c-7.408-1.009-15.115,0.317-22.215,2.412c-4.117,1.214-8.284,2.279-12.449,3.31
		c-4.172,1.032-8.359,1.997-12.619,2.582c-5.316,0.728-10.672,1.02-16.019,1.417c-2.312,0.171-4.623,0.481-6.941,0.511
		c-1.531,0.019-3.46-0.118-4.341,1.412c-3.215,5.572,1.672,12.616,5.175,16.758c2.033,2.404,4.318,4.646,6.848,6.524
		c0.876,0.651,1.793,1.278,2.785,1.738c0.357,0.165-0.083,1.853-0.129,2.299c-0.104,0.987-0.16,1.98-0.168,2.972
		c-0.08,9.391,4.311,18.1,10.551,24.917c5.958,6.509,13.836,10.203,21.753,13.741c3.269,1.461,6.588,2.938,9.53,5.002
		c3.764,2.642,6.765,6.117,9.326,9.905c2.506,3.707,4.715,7.608,7.537,11.095c2.723,3.364,5.941,6.202,9.698,8.364
		c8.146,4.689,18.04,5.93,26.572,1.52c6.28-3.246,11.534-8.413,14.221-15.011c0.356-0.874,0.667-1.768,0.924-2.676
		c0.195-0.688,0.484-1.469,0.312-2.184c-0.232-0.959-1.042-1.572-1.887-1.98c-0.247-0.119-1.165-0.452-1.105-0.692
		c0.084-0.339,0.162-0.678,0.235-1.02c0.416-1.934,0.694-3.9,0.809-5.876c0.136-2.376,0.035-4.794-0.521-7.113
		c-2.04,2.974-4.176,5.958-6.639,8.597c-1.613-1.516-2.97-3.477-3.591-5.611c-0.208-0.72-0.33-1.464-0.335-2.213
		c-0.002-0.425-0.101-0.974,0.322-1.145c0.439-0.179,0.876-0.365,1.309-0.562c1.732-0.791,3.299-1.774,4.763-2.996
		c0.297-0.249,0.591-0.503,0.88-0.763c0.375-0.338,0.949-0.407,1.426-0.562c0.877-0.289,1.742-0.611,2.587-0.985
		c1.163-0.513,2.295-1.117,3.325-1.862c0.772-0.56,1.591-1.222,2.09-2.052c0.178,0.489,0.519,0.924,0.85,1.317
		c0.35,0.418,0.317,0.471,0.808,0.168c0.742-0.456,1.46-0.961,2.157-1.485c0.13,0.823,0.13,1.676,0.125,2.508
		c0.354-0.131,0.73-0.216,1.105-0.256c-0.54,2.683-2.293,5.271-3.819,7.499c6.181-1.771,12.009-5.58,15.709-10.904
		c0.255-0.368,0.406-0.805,0.807-0.909c0.531-0.139,1.058-0.336,1.565-0.543c2.707-1.103,5.204-2.811,7.172-4.975
		c3.104-3.412,4.752-7.824,3.419-12.373c-0.536-1.827-1.446-3.545-2.597-5.057C176.156,84.434,175.249,83.3,174.14,82.764z
		 M140.86,140.419c-4.324,8.137-13.414,13.646-22.614,14.01c0.648-0.696,1.299-1.392,1.949-2.084
		c-3.606,0.626-7.335,0.728-10.937,0.019c0.456-0.338,1.03-0.788,1.102-1.396c-1.115-0.094-2.383-0.882-3.351-1.402
		c-1.148-0.619-2.247-1.331-3.293-2.11c-2.011-1.496-3.844-3.226-5.505-5.102c-1.663-1.877-3.153-3.901-4.499-6.017
		c-1.417-2.229-2.565-4.625-4.16-6.741c-3.125-4.144-7.399-7.288-12.077-9.475c-4.97-2.321-9.964-4.509-14.717-7.27
		c-4.374-2.541-8.633-5.492-12.123-9.182c-0.605-0.642-1.18-1.317-1.747-1.992c-0.337-0.4-1.177-1.131-1.245-1.685
		c-0.023-0.193,0.769-1.023,0.9-1.249c0.232-0.398,0.422-0.822,0.559-1.263c0.121-0.393,0.207-0.808,0.204-1.221
		c-0.504,0-0.968,0.141-1.497,0.054c0.883-0.525,1.609-1.357,2.193-2.193c-0.367,0.14-0.764,0.475-1.175,0.475
		c-0.172-0.735-0.581-1.552-1.181-2.028c-0.486-0.391-0.824-1.006-1.128-1.54c-0.256-0.448-1.142-0.03-1.59-0.03
		c0.261-0.252,1.324-0.844,1.324-1.221c0-0.861,0.666-1.595,0.837-2.41c0.452-2.153-2.474-1.797-3.671-1.609
		c0.459,0.058,0.934,0.148,1.28,0.48c-0.929,0.136-1.667,0.542-2.322,1.194c0-0.853-0.282-1.775-0.359-2.633
		c-0.095-1.045-0.138-2.1-0.126-3.149c0.01-1.032,0.085-2.066,0.274-3.082c0.094-0.505,0.217-1.006,0.375-1.495
		c0.097-0.26,1.224-0.243,1.47-0.279c2.055-0.297,4.101-0.789,6.028-1.567c1.645-0.665,3.561-1.607,4.738-2.981
		c-0.178,0.177-0.578,0.257-0.797,0.344c-0.596,0.234-1.2,0.443-1.812,0.626c-1.22,0.366-2.469,0.633-3.732,0.799
		c-2.481,0.326-5,0.233-7.475-0.109c-1.635-0.226-3.262-0.57-4.826-1.104c-0.496-0.169-1.462-0.374-1.832-0.792
		c0.957-0.156,1.929-0.331,2.85-0.638c-2.206-0.732-4.612-1.467-6.576-2.735c0.854,0.019,1.708,0.039,2.562,0.057
		c-2.676-2.129-5.384-4.634-6.747-7.846c-0.208-0.489-0.381-1.003-0.446-1.533c-0.027-0.226-0.033-0.458,0.003-0.682
		c0.049-0.307-0.486-0.727-0.705-0.929c-0.692-0.643-1.557-1.172-2.474-1.423c4.087-0.377,8.089,0.713,11.756,2.46
		c2.059,0.981,4.076,2.123,5.951,3.423c1.747,1.211,3.354,2.616,5.151,3.758c-3.315,0.556-6.889-0.026-10.154-0.599
		c1.479,0.905,3.193,1.487,4.852,1.953c4.086,1.147,8.388,1.399,12.612,1.256c4.009-0.136,8.108-0.535,11.796-2.223
		c1.672-0.765,3.279-1.68,4.75-2.784c0.802-0.602,1.917-1.24,2.555-2.027c-5.004,2.86-11.17,4.563-16.903,3.371
		c-4.349-0.904-7.988-3.159-11.709-5.44c0.42-0.019,0.849-0.07,1.248-0.213c-0.37-0.047-0.822-0.075-1.154-0.257
		c0.342-0.089,0.681-0.207,0.875-0.519c0.264-0.422,0.288-0.626,0.815-0.663c-0.114-0.073-0.173-0.171-0.324-0.19
		c0.381-0.467,1.011-0.38,1.395-0.781c0.354-0.37-0.492-0.396-0.685-0.396c0.511-0.282,1.025-0.093,1.497-0.48
		c0.535-0.438,0.274-1.105-0.44-1.105c0.232,0,0.432-0.151,0.657-0.187c-0.266,0.064-0.583-0.001-0.861,0.054
		c-0.249,0.05-0.656,0.247-0.897,0.08c-0.71-0.493-1.246,0.128-1.974,0.139c0.2,0.087,0.479,0.211,0.703,0.169
		c0.209,0.209,0.339,0.301,0.636,0.448c0.247,0.123,0.221,0.368-0.044,0.406c-0.418,0.06-0.83-0.15-1.249-0.081
		c0.09,0.075,0.179,0.152,0.266,0.231c-0.224,0.09-0.461,0.202-0.643,0.366c-0.212,0.192-0.446,0.091-0.742,0.141
		c-0.611,0.102-0.924,0.624-1.582,0.25c0.059,0.073,0.072,0.181,0.125,0.257c-0.265,0.003-0.536,0.028-0.791,0.098
		c-0.144,0.041-0.321,0.102-0.408,0.235c-0.298-0.149-0.598-0.296-0.899-0.44c-1.165-0.557-2.353-1.064-3.555-1.536
		c-2.464-0.967-5.018-1.865-7.606-2.442c3.492,0.002,7-0.239,10.493-0.306c2.8-0.055,5.617-0.104,8.397-0.462
		c1.987-0.256,3.916-0.538,5.867-0.975c1.468-0.328,2.935-0.656,4.402-0.984c0.415-0.092,0.872-0.343,1.216-0.047
		c0.18,0.155,0.274,0.33,0.417,0.507c0.304,0.38,0.853,0.498,1.308,0.549c-0.367,0.307-0.859,0.492-1.341,0.447
		c1.299,0.631,2.489,0.122,3.846,0.183c0.308,0.014,1.519-0.253,1.322-0.826c-0.032-0.093-0.442-0.278-0.521-0.333
		c-0.277-0.193-0.574-0.408-0.771-0.688c0.569,0.208,1.229,0.439,1.843,0.391c-0.39-0.394-0.309-0.799-0.223-1.291
		c0.101-0.571,0.095-0.499,0.704-0.635c0.554-0.125,1.108-0.249,1.663-0.373c1.734-0.389,3.469-0.778,5.203-1.167
		c2.401-0.539,4.789-1.115,7.184-1.681c0.026,1.396,2.361,2.339,3.519,2.213c0.363-0.039,0.826-0.304,1.151-0.078
		c0.261,0.182,0.496,0.358,0.787,0.5c0.236,0.117,0.703,0.164,0.864,0.371c-0.088-0.254-0.342-0.617-0.505-0.8
		c-0.287-0.425-0.575-0.857-0.794-1.322c-0.055-0.119-0.12-0.456-0.228-0.56c0.358,0.217,0.631,0.585,0.942,0.858
		c0.513,0.451,0.626,0.417,1.162,0.163c0.452-0.215,0.952-0.426,1.458-0.449c0.572-0.029,1.319-0.052,1.83-0.351
		c-0.239-0.361-0.509-0.709-0.822-1.008c0.477,0.205,1.048,0.396,1.452,0.728c0.519-0.104-0.153-1.595-0.306-1.816
		c4.235-0.239,8.499-0.041,12.7,0.523c-0.511,0.308-0.873,0.428-0.559,1.012c0.193,0.358,0.437,0.69,0.689,1.009
		c-0.412-0.234-0.815-0.479-1.221-0.724c-0.445-0.268-0.712-0.077-0.934,0.436c-0.464,1.076,0.801,1.562,1.623,1.769
		c0.543,0.136,1.069,0.078,1.601-0.084c0.521-0.159,0.962-0.086,1.506-0.152c0.536-0.065,1.138-0.264,1.468-0.72
		c-0.571-0.305-1.097-0.715-1.598-1.123c0.751,0.373,1.59,0.603,2.389,0.854c0.269,0.085,0.54-0.746,0.637-0.935
		c0.25-0.483,0.429-0.339,0.913-0.238c0.432,0.089,0.863,0.182,1.292,0.278c2.694,0.599,5.362,1.31,7.996,2.13
		c-0.515,0.079-1.128,0.131-1.551,0.466c-0.317,0.249-0.184,0.29-0.671,0.186c0.092,0.356,0.421,0.702,0.645,0.985
		c-0.312-0.138-0.478-0.473-0.696-0.126c-0.34,0.539,0.292,0.818,0.63,1.11c0.292,0.252,0.899,0.577,1.286,0.378
		c0.242-0.125-0.086-0.392-0.146-0.572c0.711,0.396,1.229,0.601,2.046,0.497c0.463-0.059,1.18,0.037,1.622,0.174
		c0.245,0.259,0.641,0.377,0.981,0.445c-0.173-0.168-0.333-0.353-0.492-0.533c0.185-0.048,0.359-0.142,0.499-0.271
		c0.078-0.073,0.368,0.058,0.487,0.076c-0.188-0.132-0.312-0.291-0.343-0.516c0.221,0.377,0.908,0.52,1.306,0.485
		c0.488-0.044,0.652,0.174,1.033,0.496c0.062,0.053,0.69,0.655,0.743,0.565c0.143-0.244,0.071-0.688,0.059-0.961
		c0.031,0.145,0.417,0.681,0.571,0.698c0.409-0.119,0.795-0.585,0.719-1.022c0.083,0.199,0.243,0.357,0.455,0.405
		c-0.108-0.22-0.115-0.492-0.114-0.732c0.001-0.302,0.347-0.209,0.516-0.489c0.412-0.689,1.122-0.471,0.669-1.432
		c-0.276-0.583-0.88-0.812-1.502-0.89c-0.352-0.045-0.715-0.029-1.066,0.02c-0.067,0.01-0.068,0.567-0.092,0.695
		c-0.116-0.438-0.536-0.773-0.906-0.999c0.384,0.956-0.303,0.718-0.922,0.913c-0.288,0.091-0.556,0.263-0.793,0.446
		c-0.072,0.056,0.003,0.534-0.013,0.67c-0.051-0.127-0.173-0.201-0.256-0.301c-0.177,0.168-0.225,0.566-0.28,0.793
		c-1.737-1.28-3.97-2.137-5.936-3.014c0.536-0.217,1.038-0.125,1.519-0.515c0.127,0.204,0.245,0.351,0.477,0.364
		c-0.241-0.633,0.237-1.32-0.23-1.9c-0.134-0.166-0.296-0.312-0.467-0.439c-0.143-0.105-0.158-0.372-0.357-0.494
		c-0.19,0.472-1.058,0-1.381-0.075c-0.404-0.092-0.865-0.034-1.274,0c0.132,0.523,0.219,1.059,0.284,1.594
		c-0.268-0.317-0.807-1.167-1.271-1.112c-0.517,0.06-0.887,0.45-1.339,0.66c-0.577,0.269-1.265-0.161-1.851-0.34
		c-1.209-0.373-2.473-0.743-3.74-0.85c3.871-0.907,8.134-0.687,12.027-0.125c3.424,0.493,6.798,1.37,10.042,2.569
		c1.353,0.5,2.682,1.056,3.991,1.656c0.637,0.291,1.271,0.593,1.899,0.9c0.513,0.25,0.823,0.797,1.164,1.265
		c-0.449-0.078-0.738-0.445-1.089-0.692c-0.059,0.886,0.957,1.318,1.629,1.599c0.908,0.379,1.758,0.779,2.608,1.279
		c-0.139-0.55-0.857-0.999-0.772-1.585c0.316,0.904,1.654,0.725,2.298,1.05c0.836,0.422,1.665,0.857,2.491,1.297
		c1.943,1.034,3.876,2.094,5.803,3.16c1.55,0.856,3.095,1.72,4.64,2.585c0.344,0.193,0.689,0.389,1.035,0.579
		c0.226,0.124,0.462,0.226,0.688,0.347c0.385,0.215,0.41,0.815,0.324,1.23c-0.327-0.196-0.598-0.525-0.852-0.804
		c-0.039,0.186,0.064,0.375-0.08,0.485c-0.208,0.158-0.338,0.4-0.351,0.662c-0.026,0.482,0.285,0.898,0.768,0.959
		c-0.067-0.165-0.1-0.354-0.11-0.533c1.034,0.905,2.421,0.857,3.462,1.741c-0.137-0.263-0.197-0.563-0.151-0.857
		c0.393,0.576,0.936,1.281,1.616,1.495c0.554,0.175,1.114,0.305,1.62,0.603c0.42,0.246,0.692,0.786,0.906,1.218
		c0.74,1.493,0.419,3.345-0.584,4.639c-2.515-2.219-5.688-3.748-8.679-5.208c-1.896-0.925-3.819-1.807-5.768-2.616
		c4.111,2.466,7.995,5.363,11.508,8.627c1.287,1.196,2.537,2.447,3.657,3.804c0.638,0.773,1.389,1.655,1.682,2.635
		c0.216,0.718,0.085,1.533-0.138,2.231c-0.173,0.541-0.642,1.319-0.331,1.885c0.753,1.375,2.581-0.434,3.178-1.061
		c0.547-0.575,0.443-0.633,1.116,0c0.879,0.825,1.658,1.806,2.133,2.921c0.881,2.073-0.078,3.512-2.167,4.008
		c-1.256,0.298-2.342,0.78-3.427,1.484c-0.325,0.21-0.483,0.432-0.874,0.286c-0.566-0.213-1.117-0.453-1.696-0.647
		c-3.13-1.054-6.343-1.901-9.58-2.549c-3.048-0.612-6.159-1.039-9.266-1.188c-0.958-0.046-1.916-0.091-2.875-0.096
		c-0.897-0.004-1.794,0.011-2.69,0.025c-0.447,0.007-0.894,0.014-1.342,0.019c-0.156,0.001-0.607-0.082-0.75,0.007
		c0.354,0.285,1.134,0.394,1.567,0.547c0.621,0.221,1.239,0.447,1.857,0.679c1.338,0.501,2.667,1.027,3.989,1.573
		c2.416,0.998,4.838,2.018,7.16,3.219c2.063,1.068,4.518,2.347,5.894,4.292c1.044,1.477,1.419,3.23,1.314,5.011
		c-0.024,0.402-0.185,0.28-0.567,0.27c-0.67-0.009-1.34,0.022-2.008,0.088c-1.423,0.14-2.819,0.438-4.187,0.85
		c-2.581,0.779-5.07,1.825-7.55,2.878c-4.81,2.042-10.418,2.484-15.161-0.019c-3.27-1.726-5.8-4.773-7.451-8.033
		c2.229,0.804,4.44,1.662,6.617,2.599c0.936,0.402,1.869,0.807,2.796,1.228c0.704,0.321,1.478,0.865,2.284,0.773
		c1.301-0.147,1.049-1.889,0.097-2.347c-0.212-0.102-0.427-0.199-0.642-0.295c-3.554-1.588-7.262-2.852-10.979-3.994
		c-13.969-4.294-28.595-6.641-43.165-7.542c7.909,0.85,15.773,2.176,23.528,3.943c-5.201,0.679-8.256,5.113-9.505,9.872
		c-1.362,5.186-0.615,10.501,0.961,15.547c1.579,5.058,3.759,9.951,6.473,14.504c2.545,4.268,5.692,8.924,10.039,11.54
		c2.393,1.44,5.09,1.725,7.823,1.414c2.883-0.326,5.567-1.499,8.3-2.412c2.765-0.925,5.598-1.77,8.523-1.957
		c1.457-0.094,2.916-0.004,4.354,0.259C138.243,139.206,141.18,139.805,140.86,140.419
		C139.896,142.234,140.976,140.196,140.86,140.419z M155.34,89.605c-1.788-1.547-4.947-1.653-7.202-1.669
		c2.062-1.103,4.438-0.574,6.567,0.026c2.271,0.64,4.478,1.521,6.624,2.498c0.544,0.247,1.084,0.5,1.617,0.765
		c0.407,0.203-0.464,1.683-0.628,1.96c-0.826,1.393-1.945,2.645-3.122,3.751c-0.587-1.46-1.491-2.826-2.314-4.162
		c-0.172-0.279-0.05-0.409-0.068-0.744C156.759,91.052,156.045,90.216,155.34,89.605C153.412,87.936,157.271,91.28,155.34,89.605z
		 M131.784,132.667c-0.394-0.255-0.785-0.509-1.179-0.765c-0.161-0.104-0.883-0.428-0.9-0.632c-0.09-0.979-0.178-1.957-0.266-2.936
		C130.643,129.54,132.277,130.674,131.784,132.667z M116.257,119.386c-0.051-5.434-0.468-11.489-3.135-16.364
		c-0.685-1.252-1.661-2.755-3.015-3.386c1.834,0.327,3.652,1.103,5.195,2.134c3.041,2.035,4.387,5.095,4.716,8.653
		c0.328,3.539-0.068,7.215,0.888,10.673c0.434,1.568,1.214,3.037,2.47,4.099c0.156,0.13,1.407,0.911,1.392,0.971
		c-0.061,0.214-0.134,0.423-0.211,0.632c-0.969,2.597-2.695,4.922-4.725,6.786c-0.761,0.698-1.576,1.339-2.431,1.918
		c-0.341,0.23-1.656,1.312-2.038,1.17c-0.655-0.244-1.28-0.581-1.876-0.942c-3.037-1.841-5.4-4.669-6.9-7.87
		c-1.656-3.536-1.569-7.656-1.687-11.477c-0.126-4.073-0.108-8.605-2.048-12.306c-1.306-2.491-3.724-4.643-6.487-5.364
		c2.407-1.251,5.884-0.462,8.248,0.4c3.159,1.152,5.495,3.657,6.966,6.624c1.204,2.427,1.89,5.102,2.234,7.78
		c0.386,2.997,0.381,6.013,1.14,8.965c0.487,1.897,1.292,4.206,3.138,5.19C116.535,125.367,116.281,122.058,116.257,119.386
		C116.098,102.078,116.31,125.207,116.257,119.386z M133.956,132.63c0.507,0.493,0.847,1.18,1.12,1.825
		c1.691-1.242,2.941-3.313,4.119-5.011c0.916-1.315,1.803-2.654,2.655-4.012c0.099,2.346-0.351,4.715-1.137,6.919
		c-0.562,1.575-1.304,3.334-2.523,4.523c-1.025,1-2.59,0.392-3.502-0.511c-0.202-0.199-0.954-0.146-1.238-0.166
		c-0.594-0.043-1.19-0.059-1.786-0.058c-1.137,0.004-2.272,0.074-3.402,0.195c-0.836,0.091-1.74,0.027-2.372,0.597
		c-1.26,1.135-2.808,2.019-4.465,2.406c-0.935,0.219-3.582,0.694-3.902-0.762c-0.163-0.734,0.639-1.117,1.122-1.499
		c2.408-1.892,4.451-4.051,6.009-6.692c0.993-1.685,1.875-3.453,2.621-5.262c1.163,3.425,1.04,7.224-0.583,10.48
		c0.562-1.131,1.682-1.935,2.739-2.562c0.159,0.189,1.616,1.964,1.452,2.269C131.489,134.183,132.924,133.334,133.956,132.63z
		 M143.355,108.396c-2.734,4.908-7.339,8.889-12.787,10.417c2.479-2.583,4.521-6.364,4.161-10.026
		c3.001,0.035,5.998-0.458,8.909-1.154C143.554,107.89,143.457,108.145,143.355,108.396
		C142.135,110.587,143.485,108.072,143.355,108.396z M164.331,107.051c-0.155,0.692-0.704,1.344-1.122,1.891
		c-0.764,0.997-1.613,1.929-2.495,2.82c-1.588,1.604-3.46,3.495-5.619,4.308c1.578-2.573,2.854-5.502,3.415-8.472
		c-0.927,0.781-1.979,1.471-3.14,1.848c0.034-0.998,0.034-2.214-0.46-3.109c-1.031,1.027-2.175,1.977-3.412,2.745
		c-0.588-0.958-1.168-2.022-1.4-3.131c-1.544,2.351-3.474,4.745-6.017,6.062c0.073-1.143-0.017-2.306-0.164-3.438
		c-0.029-0.213-0.06-0.425-0.095-0.638c-0.084-0.517,0.158-0.384,0.601-0.495c0.528-0.135,1.057-0.276,1.581-0.425
		c0.953-0.271,1.899-0.562,2.84-0.873c0.545-0.182,6.431-3.02,6.126-0.893c1.041-0.772,3.562-1.885,4.359-0.206
		c1.153-0.741,2.481-1.3,3.829-0.761C164.362,104.76,164.589,105.878,164.331,107.051
		C163.953,108.734,164.7,105.368,164.331,107.051z M176.879,96.327c-0.374,1.239-0.71,1.88-2.115,1.851
		c-0.722-0.015-2.858-0.576-3.204,0.381c-0.501,1.39,2.571,1.295,3.322,1.267c-2.099,2.314-5.273,3.787-8.328,4.334
		c-0.086,0.016-0.71-0.761-0.824-0.866c-0.499-0.456-1.058-0.847-1.643-1.182c-1.808-1.038-3.876-1.571-5.936-1.796
		c1.343-1.954,3.29-3.45,5.272-4.706c2.05-1.3,4.384-2.164,6.346-3.591c1.993-1.452,3.757-3.515,4.719-5.809
		c0.458,0.407,1.516,1.343,1.256,1.933c-0.449,1.02-1.261,1.672-2.104,2.353c-0.874,0.706-0.164,1.724,0.836,1.281
		c1.002-0.443,1.705-1.544,2.125-2.508c0.279,0.65,0.485,1.33,0.613,2.025c0.145,0.781-0.213,1.005-0.811,1.476
		c-0.646,0.508-1.378,0.892-2.128,1.22c-0.65,0.285-1.681,0.495-2.06,1.168c-0.634,1.12,1.411,0.881,1.915,0.745
		c1.203-0.325,2.423-0.911,3.208-1.91C177.264,94.784,177.104,95.565,176.879,96.327C176.622,97.179,177.124,95.502,176.879,96.327z
		"/>
	<path fill="#D7A22A" d="M167.292,79.811c-0.511,0.618-1.094,1.213-1.761,1.661c-0.719,0.482-2.204,0.66-1.982-0.668
		c0.201-1.199,0.93-2.228,0.549-3.503c-0.219-0.732-0.72-1.395-1.175-1.994c-1.742-2.292-3.904-4.289-6.084-6.153
		c-2.995-2.565-6.209-4.889-9.59-6.918c1.39,0.576,2.76,1.194,4.121,1.831c1.341,0.626,2.67,1.278,3.979,1.966
		c1.009,0.529,2.641,0.47,3.771,0.409c0.98-0.053,2.31-0.234,2.924-1.119c0.188-0.271-0.137-0.544-0.305-0.777
		c-0.384-0.531-1.137-0.694-1.737-0.869c-0.83-0.24-1.382-0.855-1.866-1.57c-0.049,0.293,0.013,0.595,0.15,0.857
		c-1.042-0.883-2.429-0.835-3.464-1.741c0.012,0.179,0.044,0.368,0.112,0.533c-0.482-0.06-0.795-0.477-0.77-0.959
		c0.014-0.261,0.142-0.503,0.35-0.661c0.145-0.11,0.044-0.299,0.081-0.485c0.255,0.279,0.525,0.607,0.852,0.803
		c0.077-0.37,0.007-0.757-0.112-1.11c-0.285-0.164-0.586-0.295-0.874-0.453c-0.321-0.175-0.639-0.356-0.959-0.535
		c-1.516-0.85-3.033-1.696-4.552-2.538c-1.931-1.068-3.862-2.129-5.81-3.167c-0.839-0.447-1.681-0.89-2.527-1.32
		c-0.667-0.338-2.125-0.207-2.444-1.125c-0.087,0.585,0.634,1.033,0.771,1.585c-0.85-0.501-1.699-0.901-2.606-1.279
		c-0.67-0.279-1.695-0.714-1.63-1.599c0.335,0.252,0.648,0.625,1.087,0.692c-0.217-0.348-0.625-1-0.959-1.165
		c-0.625-0.307-1.253-0.609-1.886-0.9c-1.299-0.6-2.616-1.159-3.957-1.663c-3.321-1.248-6.781-2.156-10.293-2.662
		c-3.894-0.561-8.155-0.782-12.025,0.125c1.267,0.107,2.53,0.478,3.739,0.851c0.585,0.18,1.272,0.61,1.85,0.341
		c0.454-0.21,0.824-0.6,1.339-0.66c0.465-0.054,1.005,0.795,1.273,1.112c-0.066-0.534-0.154-1.07-0.285-1.594
		c0.409-0.034,0.87-0.092,1.274,0c0.322,0.075,1.19,0.547,1.381,0.075c0.153,0.094,0.325,0.28,0.325,0.471
		c0.146,0.169,0.353,0.283,0.498,0.462c0.468,0.58-0.011,1.267,0.23,1.9c-0.232-0.014-0.349-0.161-0.476-0.364
		c-0.48,0.39-0.981,0.3-1.521,0.515c1.967,0.876,4.2,1.733,5.937,3.014c0.057-0.228,0.104-0.625,0.279-0.793
		c0.084,0.1,0.207,0.174,0.259,0.301c0.067-0.643-0.06-0.73,0.603-1.037c0.628-0.29,1.54,0.059,1.124-0.992
		c0.37,0.226,0.788,0.562,0.905,0.999c0.041-0.226,0.06-0.458,0.046-0.688c0.092-0.111,0.724-0.052,0.846-0.048
		c0.693,0.028,1.455,0.253,1.768,0.911c0.094,0.199,0.236,0.478,0.193,0.708c-0.054,0.283-0.584,0.252-0.728,0.489
		c-0.072,0.113-0.647,0.624-0.647,0.605c-0.011,0.274-0.013,0.599,0.114,0.851c-0.213-0.047-0.375-0.203-0.456-0.404
		c0.076,0.438-0.311,0.901-0.72,1.021c-0.154-0.016-0.539-0.553-0.572-0.697c0.012,0.271,0.083,0.716-0.06,0.96
		c-0.053,0.091-0.679-0.512-0.742-0.565c-0.38-0.322-0.545-0.539-1.032-0.496c-0.399,0.036-1.082-0.109-1.306-0.485
		c0.03,0.224,0.156,0.383,0.344,0.516c-0.148-0.021-0.317-0.047-0.453-0.111c-0.131,0.015-0.374,0.266-0.533,0.307
		c0.161,0.181,0.321,0.364,0.494,0.533c-0.288-0.057-0.588-0.15-0.832-0.317c-0.345-0.235-1.095-0.327-1.521-0.32
		c-0.491,0.008-0.894,0.155-1.374-0.022c-0.321-0.12-0.625-0.289-0.924-0.454c0.044,0.131,0.31,0.422,0.218,0.52
		c-0.28,0.296-0.99-0.039-1.243-0.231c-0.282-0.215-0.961-0.561-0.839-0.994c0.165-0.638,0.398-0.256,0.789-0.084
		c-0.224-0.285-0.549-0.628-0.644-0.985c0.362,0.075,0.362,0.121,0.577-0.103c0.401-0.417,1.106-0.468,1.645-0.549
		c-2.635-0.82-5.304-1.531-7.997-2.13c-0.489-0.108-1.851-0.643-2.121-0.183c-0.13,0.209-0.438,1.168-0.722,1.079
		c-0.797-0.252-1.636-0.482-2.387-0.855c0.501,0.408,1.026,0.817,1.598,1.123c-0.33,0.457-0.932,0.655-1.469,0.721
		c-0.457,0.056-0.893-0.056-1.325,0.094c-0.583,0.202-1.175,0.294-1.78,0.143c-0.821-0.205-2.087-0.692-1.623-1.769
		c0.147-0.343,0.438-0.735,0.796-0.519c0.45,0.272,0.899,0.545,1.356,0.807c-0.251-0.319-0.494-0.651-0.688-1.01
		c-0.312-0.583,0.048-0.704,0.56-1.012c-4.201-0.567-8.467-0.763-12.7-0.523c0.153,0.222,0.824,1.711,0.306,1.816
		c-0.403-0.333-0.975-0.524-1.452-0.728c0.314,0.299,0.583,0.648,0.823,1.008c-0.433,0.254-1.045,0.29-1.532,0.331
		c-0.633,0.053-1.179,0.196-1.755,0.469c-0.431,0.204-0.501,0.337-0.946,0.012c-0.416-0.304-0.722-0.761-1.158-1.033
		c0,0,0.162,0.419,0.138,0.358c0.187,0.44,0.438,0.85,0.701,1.249c0.217,0.33,0.558,0.698,0.688,1.074
		c-0.272-0.344-1.119-0.458-1.493-0.751c-0.461-0.363-0.775-0.099-1.31-0.041c-1.157,0.126-3.496-0.817-3.52-2.213
		c-2.304,0.543-4.602,1.101-6.912,1.619c-1.716,0.385-3.431,0.77-5.145,1.154c-0.441,0.099-0.882,0.198-1.323,0.296
		c-0.43,0.096-1.304,0.096-1.34,0.544c-0.045,0.577-0.283,1.054,0.191,1.531c-0.614,0.048-1.273-0.183-1.842-0.392
		c0.303,0.432,0.817,0.743,1.265,1.005c0.354,0.208-0.889,0.832-1.047,0.842c-0.353,0.021-0.702-0.068-1.054-0.042
		c-0.408,0.028-0.799,0.173-1.204,0.228c-0.637,0.088-1.265-0.091-1.835-0.368c0.482,0.044,0.973-0.14,1.34-0.448
		c-0.771-0.087-1.057-0.347-1.53-0.868c-0.453-0.497-0.814-0.274-1.412-0.141c-0.617,0.138-1.234,0.276-1.851,0.414
		c-1.5,0.336-3.001,0.672-4.501,1.008c-1.454,0.326-2.99,0.419-4.468,0.608c-0.237,0.03-1.027,0.008-0.852,0.508
		c0.16,0.456,1.846,0.298,2.231,0.277c-1.021,0.475-2.317,0.821-3.143,1.598c0.652-0.288,0.876,0.124,1.443,0.122
		c0.41-0.001,1.101-0.082,1.501-0.18c-0.225,0.037-0.424,0.187-0.657,0.187c0.714,0,0.975,0.667,0.44,1.105
		c-0.471,0.386-0.985,0.198-1.497,0.48c0.137,0,0.814-0.002,0.773,0.236c-0.088,0.469-1.161,0.547-1.483,0.941
		c0.152,0.02,0.21,0.117,0.324,0.19c-0.427,0.03-0.505,0.119-0.708,0.48c-0.235,0.416-0.527,0.583-0.983,0.701
		c0.332,0.182,0.784,0.21,1.155,0.258c-0.398,0.143-0.827,0.194-1.248,0.213c0.367,0.227,0.73,0.462,1.095,0.693
		c0.518,0.329,1.009,0.414,1.616,0.553c2.058,0.472,4.121,0.937,6.209,1.256c4.379,0.667,8.59,0.14,12.868-0.922
		c-0.542,0.591-1.113,1.176-1.798,1.602c2.122-0.581,4.28-1.058,6.417-1.581c2.314-0.566,4.63-1.198,6.973-1.64
		c1.092-0.205,2.195-0.35,3.302-0.447c1.09-0.096,2.368,0.051,3.366-0.354c0.834-0.338,1.887-0.131,2.725,0.103
		c1.113,0.311,2.37,0.233,3.526,0.317c-0.387-0.656-0.947-1.26-1.656-1.566c5.276,0,10.627,0.375,15.839,1.202
		c1.3,0.207,2.595,0.452,3.883,0.726c0.625,0.134,1.25,0.275,1.871,0.422c0.633,0.148,0.299-0.174,0.624-0.51
		c0.419-0.434,1.562,0.45,1.933,0.665c0.379,0.219,0.373,0.587,0.756,0.695c0.584,0.166,1.169,0.334,1.749,0.512
		c-0.232,0-0.789-0.544-1.006-0.676c1.146-0.829,2.593-1.16,3.986-1.211c0.342-0.012,0.686-0.011,1.026,0.021
		c0.304,0.028,1.021,0.351,1.252,0.244c0.581-0.267,1.131-0.341,1.729-0.091c0.742,0.31,1.016,0.59,0.826,1.386
		c-0.156,0.649-0.355,1.036-0.92,1.407c-0.285,0.188-0.594,0.362-0.918,0.473c-0.182-0.066-0.459-0.604-0.654-0.738
		c0.148,0.409,0.312,0.787-0.067,1.048c2.53,1.06,4.888,2.487,7.106,4.093c2.196,1.59,4.294,3.617,6.891,4.54
		c1.388,0.493,2.808,0.567,4.242,0.233c1.165-0.271,1.788-0.713,2.202-1.867c0.726-2.023-0.072-4.378-1.019-6.191
		c1.923,1.634,3.768,3.564,4.959,5.804c0.959,1.801,2.153,4.046,2.354,6.125c0.088,0.92-1.903,0.515-2.396,0.472
		c-0.687-0.056-1.398,0.036-2.08,0.1c-1.941,0.183-4.193,0.34-5.979,1.188c0.518,0,1.116-0.237,1.633-0.316
		c0.622-0.094,1.25-0.156,1.88-0.164c1.128-0.014,2.259,0.083,3.374,0.243c1.778,0.256,3.921,0.592,5.423,1.658
		c1.158,0.822,1.492,2.338-0.113,2.947c-0.217,0.083-0.997,0.116-0.991,0.31c0.012,0.416,0.117,0.835,0.3,1.207
		c0.301,0.605,1.04,1.628,1.663,1.946c4.819,0.729,9.596,1.993,14.151,3.707c0.528,0.199,1.15-0.471,1.596-0.728
		c0.948-0.545,1.875-0.818,2.919-1.096c2.143-0.57,2.794-2.2,1.85-4.196C169.344,81.771,168.376,80.68,167.292,79.811z
		 M59.379,55.766c0.95,0.615,0.292,1.717,0.599,2.576c0.423,1.214-1.5,1.4-2.22,1.341c0.235,0.115,0.497,0.257,0.759,0.292
		c-0.297,0.229-0.664,0.373-1.035,0.421c-0.169,0.022-0.713-0.096-0.822-0.033c-0.185,0.108-0.378,0.202-0.575,0.287
		c-0.841,0.366-2.269,0.663-2.932-0.208c0.673-0.121,1.348-0.236,2.024-0.328c-0.411-0.096-0.82-0.204-1.223-0.329
		c-0.597-0.184-0.914-0.174-0.66-0.812c0.08-0.199,0.746-0.905,0.473-0.97c-0.546-0.13-1.108-0.251-1.636-0.448
		c0.218-0.034,1.972-0.339,1.946-0.42c-0.139-0.43,0.395-0.781,0.66-1.003c0.369-0.309,0.737-0.831,1.151-1.065
		c0.825-0.466,1.812,0.049,2.646,0.122c0.692,0.061,1.423-0.072,2.112-0.14C60.344,55.438,59.842,55.644,59.379,55.766z
		 M80.446,52.228c-0.121,1.042-1.288,1.416-1.908,2.089c-0.404,0.438-0.424,1.023-1.015,1.306c-0.406,0.194-0.736,0.239-1.068,0.588
		c0.381,0.092,0.818,0.005,1.186-0.111c-0.623,0.533-1.16,0.942-1.997,1.057c-0.859,0.119-1.862,0.026-2.717-0.051
		c-0.496-0.044-1.078-0.113-1.482-0.434c-0.274-0.217-0.356-0.753-0.69-0.879c-0.192-0.072-0.998,0.236-1.253,0.26
		c-0.306,0.029-0.614,0.043-0.922,0.043c0.988-0.41,1.874-1.122,2.603-1.896c-0.245,0.104-1.348,0.606-1.612,0.448
		c-0.257-0.437-0.178-1.123,0.216-1.449c0.243-0.201,0.285-0.572,0.534-0.807c0.429-0.408,1.133-0.781,1.731-0.816
		c1.238-0.07,2.25-1.052,3.47-1.293c0.475-0.095,1.01-0.049,1.466,0.116c0.306,0.11,0.922-0.108,1.245-0.164
		c-0.562,0.445-1.159,0.879-1.807,1.195c0.572-0.065,1.134-0.205,1.679-0.391c0.347-0.118,0.615-0.303,0.982-0.253
		C79.882,50.895,80.549,51.349,80.446,52.228C80.358,52.996,80.536,51.46,80.446,52.228z M97.125,51.101
		c-0.105,0.767-0.422,1.529-1.17,1.83c-0.054,0.021-0.47,0.128-0.47,0.206c0,0.404,0,0.806,0,1.209
		c-0.329-0.295-0.776-0.972-1.209-1.001c-0.367-0.025-0.717-0.146-1.068,0.015c-0.438,0.199-0.81,0.51-1.273,0.66
		c-1.358,0.438-3.816-0.985-2.875-2.622c0.296,0.375,0.641,0.812,1.07,1.039c-0.18-0.425-0.343-0.876-0.399-1.335
		c-0.05-0.398,0.604-1.06,0.949-1.263c0.323-0.188,1.264-0.548,1.483-0.069c0.222,0.485,0.451,1.02,0.799,1.429
		c-0.062-0.949-0.189-2.018,0.027-2.953c0.139,0.303,0.282,0.605,0.438,0.9c0.273,0.518,0.348,0.429,0.914,0.346
		C95.512,49.321,97.386,49.329,97.125,51.101C97.067,51.518,97.187,50.683,97.125,51.101z M113.131,52.388
		c-0.57,0.47-1.556,0.552-0.716,1.403c-0.171-0.019-0.986-0.307-1.016-0.273c-0.218,0.252-0.341,0.525-0.518,0.797
		c-0.496,0.766-1.122,1.207-1.962,1.536c0.333,0.472,0.709,0.976,1.186,1.311c-0.927-0.393-1.975-0.882-2.686-1.612
		c-0.029,0.268-0.04,0.61,0.115,0.844c-1.352,0.551-2.791,0.017-3.901-0.817c0.515,0.085,1.033,0.182,1.558,0.182
		c-0.486-0.245-1.001-0.548-1.349-0.976c-0.637-0.783-0.225-1.791,0.662-2.096c1.312-0.453,2.427,0.567,3.688,0.869
		c-0.559-0.37-1.262-0.802-1.616-1.385c0.402,0.009,0.985,0.062,1.295-0.238c0.562-0.542,1.025-0.777,1.823-0.863
		c-0.196-0.108-0.44-0.226-0.586-0.4c0.781,0.206,1.527,0.254,2.326,0.337c0.606,0.063,1.229-0.176,1.825,0.014
		C113.934,51.239,113.483,52.095,113.131,52.388C112.651,52.782,113.611,51.988,113.131,52.388z M125.302,55.318
		c-0.274-0.068-0.554-0.132-0.821-0.226c0.163,0.247,0.65,0.751,0.325,0.943c-0.446,0.264-1.061,0.308-1.426,0.677
		c-0.969,0.984-2.059,0.489-3.221,0.199c0.284,0.262,0.567,0.569,0.76,0.906c-0.89,0.414-1.868,0.552-2.833,0.375
		c-0.579-0.106-1.214-0.461-0.786-1.096c0.079-0.117,1.154,0.317,1.347,0.35c-0.534-0.495-1.064-1.021-1.652-1.451
		c0.459,0.078,0.926,0.165,1.368,0.314c-0.108-0.502-0.555-0.919-0.035-1.342c0.366-0.298,0.901-0.346,1.289-0.619
		c-0.341-0.276-0.702-0.53-1.085-0.742c0.671,0.072,1.413,0.358,2.081,0.262c0.573-0.083,0.996-0.373,1.591-0.288
		c0.437,0.064,0.762,0.242,1.223,0.2c-0.16-0.183-0.372-0.31-0.597-0.399C123.633,53.492,126.223,54.103,125.302,55.318z
		 M131.528,60.469c0.146,0.135,1.046,0.958,0.899,1.083c-0.222,0.19-0.392,0.393-0.546,0.639c-0.215,0.347-0.537,0.501-0.78,0.784
		c-0.858,1.006-3.231,0.397-4.061-0.433c0.505,0.07,1.025,0.169,1.536,0.169c-0.245-0.181-0.486-0.369-0.721-0.563
		c-0.18-0.149-0.362-0.303-0.516-0.479c-0.139-0.16,0.104-0.205,0.18-0.382c0.083-0.194-0.144-1.162,0.312-1.012
		c0.483,0.159,0.979,0.319,1.483,0.391c-0.416-0.417-0.851-0.82-1.307-1.194c0.44-0.022,0.776,0.255,1.165,0.012
		c0.625-0.392,1.067-0.654,1.832-0.39c0.573,0.198,1.01,0.698,1.359,1.174c0.272,0.371,0.752,0.558,1.018,0.993
		c-0.128,0-0.417-0.246-0.526-0.303C132.441,60.739,131.995,60.535,131.528,60.469z M136.283,54.634
		c-0.044,0.558-0.563,0.799-1.068,0.776c-0.198-0.01-0.521-0.122-0.669,0.076c-0.082,0.111-0.521,0.611-0.701,0.5
		c-0.771-0.477-1.541-0.965-2.346-1.384c0.263,0.338,0.563,0.691,0.741,1.083c-1.479,0.104-3.373-0.626-4.294-1.819
		c0.396,0.181,0.802,0.37,1.223,0.484c-0.235-0.267-0.698-0.683-0.738-1.053c0.88-0.251,1.309-0.967,2.331-0.967
		c0.88,0,1.909,0.688,2.589,1.194c-0.301-0.417-0.618-0.842-0.995-1.194c1.06-0.003,2.605-0.598,3.21,0.621
		c-0.261-0.105-0.522-0.212-0.795-0.28C134.967,53.529,136.345,53.67,136.283,54.634C136.253,55.03,136.309,54.235,136.283,54.634z
		 M142.17,61.774c-0.452-0.18-1.031-0.42-1.438-0.135c-0.609,0.427-1.501-0.115-2.003-0.49c0.341,0.015,0.681,0.026,1.02,0.026
		c-0.545-0.489-1.388-0.383-1.979-0.844c-0.045,0.185,0.006,0.381,0.161,0.502c-0.922,0.215-0.882-0.658-1.208-1.234
		c-0.402-0.709,0.201-1.433,0.995-1.433c-0.334-0.205-0.669-0.407-1.009-0.6c0.855,0.236,1.712,0.561,2.474,1.021
		c-0.052-0.235-0.156-0.489-0.342-0.652c1.128-0.271,1.935,0.604,2.566,1.394c0.336,0.419,1.044,0.7,0.749,1.348
		c-0.052,0.109-0.312,0.329-0.278,0.413C141.969,61.318,142.06,61.551,142.17,61.774z M146.783,57.915
		c-0.417-0.367-0.835-0.735-1.252-1.101c0.18,0.429,0.387,0.859,0.523,1.304c-0.331,0.006-0.673-0.033-0.987-0.146
		c-0.337-0.121-1.228-0.625-1.369-0.969c-0.025-0.062,0.525,0.032,0.417,0.016c-0.64-0.706-1.343-0.556-2.158-0.723
		c-0.829-0.169-1.747-0.862-1.865-1.755c0.297,0.206,0.607,0.434,0.945,0.568c-0.243-0.357-0.56-0.826-0.56-1.273
		c0.199-0.272,1.211,0.287,1.544,0.15c-0.127-0.172-0.241-0.366-0.304-0.573c0.253,0.209,0.513,0.422,0.795,0.591
		c0.296,0.177,0.901-0.083,1.275,0.001c0.9,0.203,1.453,1.078,2.174,1.579c-0.186-0.233-0.367-0.517-0.441-0.807
		c0.529,0.329,1.636,0.844,1.055,1.585C146.233,56.8,147.339,57.266,146.783,57.915z M147.769,59.359
		c0.226-0.057,0.457-0.101,0.689-0.08c0.001-0.154-0.054-0.302-0.159-0.417c0.532,0.325,1.09,0.676,1.526,1.127
		c-0.044-0.152-0.087-0.303-0.129-0.454c1.101,0.292,1.839,1.082,2.177,2.165c0.396,1.274-1.441-0.067-1.759-0.22
		c0.226,0.352,0.511,0.718,0.66,1.11c-0.522-0.083-0.913-0.406-1.375-0.528c-0.646-0.17-2.131-0.542-2.131-1.435
		c0.322,0.153,0.643,0.307,0.967,0.453c-0.364-0.439-0.722-0.911-1.14-1.301C147.095,59.621,147.658,59.388,147.769,59.359
		C148.138,59.267,147.396,59.457,147.769,59.359z"/>
	<path d="M149.128,80.108c-0.583,1.203-2.922,0.388-3.83,0.167c-2.279-0.553-4.554-1.167-6.917-1.19
		c-3.115-0.03-6.301,0.556-9.294,1.401c1.551-1.278,3.77-1.995,5.67-2.562c1.956-0.584,3.967-0.955,6.015-0.867
		C141.779,77.099,150.153,77.974,149.128,80.108C148.338,81.737,149.293,79.765,149.128,80.108z"/>
	<path fill="#9F792C" d="M147.472,82.088c-0.021,1.37,1.023,2.399,1.963,3.263c-4.102-0.614-8.15-0.807-12.289-0.743
		c-0.709,0.01-1.556,0.295-2.002-0.303c-0.389-0.52-0.803-1.021-1.255-1.487c-1.261-1.297-2.92-2.402-4.801-2.333
		c3.146-0.889,6.531-1.518,9.807-1.389c2.434,0.095,4.754,0.821,7.114,1.343c0.749,0.166,1.605,0.381,2.373,0.211
		c0.793-0.176,1.065-0.96,0.419-1.534c0.461,0.249,0.858,0.86,0.836,1.388C149.59,81.58,148.37,82.033,147.472,82.088z"/>
	<path fill="#9F792C" d="M113.198,85.92c-0.949-0.894-1.896-1.793-2.859-2.673c-0.936-0.854-2.023-2.17-3.26-2.496
		c-2.438-0.642-4.891-1.236-7.354-1.786c-5.327-1.188-10.702-2.178-16.107-2.938c7.37,0.703,14.705,1.805,21.957,3.294
		c-1.532-1.091-3.149-2.057-4.761-3.024c-1.417-0.851-3.374-1.707-4.338-3.109c-0.741-1.076,0.266-2.082,1.018-2.778
		c0.688-0.553,1.003-1.413,1.568-2.098c2.256-2.736,5.868-4.484,9.315-5.158c-0.453-0.631-1.019-1.211-1.664-1.648
		c0.858-0.302,1.846-0.22,2.722-0.027c-0.029-0.127-0.271-1.224,0.091-1.21c0.439,0.017,0.95,0,1.368,0.149
		c-0.659-0.308-1.131-0.603-1.856-0.769c-0.931-0.214-1.867-0.414-2.808-0.595c-1.982-0.385-3.985-0.678-5.993-0.903
		c-4.028-0.451-8.113-0.708-12.167-0.708c0.708,0.307,1.269,0.911,1.656,1.567c-1.025-0.075-2.05-0.133-3.078-0.177
		c0.304,0.105,0.597,0.229,0.888,0.363c-0.472-0.07-0.951-0.131-1.429-0.143c0.69,0.381,0.344,0.713,0.347,1.362
		c0.002,0.562,0.432,1.063,0.536,1.608c-0.52-0.041-1.042-0.081-1.563-0.093c0.697,0.337,1.416,0.661,2.079,1.062
		c-0.484-0.03-0.756,0.062-1.103,0.416c-0.268,0.275-0.166,0.854-0.292,1.203c-0.217,0.606-0.804,0.746-1.369,0.875
		c-0.435,0.1-0.672,0.432-0.292,0.799c-0.496-0.111-1.001-0.247-1.508-0.293c0.285,0.286,0.576,0.575,0.901,0.813
		c-0.855-0.171-1.728,0.101-2.596-0.059c-0.517-0.096-1.087-0.32-1.367-0.798c-0.245-0.42,0.028-0.655,0.232-0.987
		c0.244-0.396-0.33-0.902-0.542-1.165c-0.029-0.035-0.422-0.694-0.131-0.693c0.786,0.004,1.655-0.029,2.418,0.183
		c-0.754-0.421-1.586-0.952-2.438-1.133c0.216-0.669,1.13-0.831,1.409-1.507c0.148-0.363,0.231-0.22,0.62-0.148
		c0.497,0.091,0.994,0.183,1.492,0.257c-0.863-0.329-1.587-0.874-2.491-1.127c0.422-0.021,0.845-0.038,1.265-0.075
		c0.594-0.106,0.904-0.452,1.381-0.766c-3.401,0.066-6.635,0.643-9.933,1.435c-3.249,0.78-6.52,1.516-9.746,2.388
		c0.685-0.426,1.256-1.01,1.798-1.602c-3.305,0.82-6.81,1.505-10.225,1.234c-3.391-0.271-6.723-1.063-10.027-1.842
		c3.656,2.501,8.044,4.429,12.484,4.82c4.978,0.438,10.306-1.275,14.591-3.723c-0.342,0.421-0.926,0.761-1.349,1.094
		c-0.812,0.643-1.63,1.291-2.504,1.849c-1.175,0.751-2.43,1.412-3.704,1.98c-1.183,0.517-2.249,1.233-3.419,1.78
		c-3.721,1.618-7.82,3.09-11.939,3.109c1.027,0.466,2.245,0.549,3.351,0.683c0.268,0.032,2.12,0.452,2.301,0.254
		c-2.718,2.718-6.742,3.923-10.443,4.5c-0.538,0.084-1.079,0.15-1.621,0.207c-0.354,0.118-0.421,0.996-0.488,1.313
		c-0.213,1.01-0.305,2.042-0.33,3.074c-0.024,1.043,0.011,2.091,0.093,3.132c0.076,0.969,0.386,2,0.386,2.961
		c0.652-0.652,1.395-1.059,2.322-1.194c-0.346-0.333-0.821-0.422-1.28-0.481c1.197-0.188,4.123-0.543,3.671,1.609
		c-0.171,0.815-0.837,1.548-0.837,2.41c0,0.381-1.064,0.962-1.323,1.222c0.307,0,1.373-0.355,1.534-0.067
		c0.296,0.531,0.622,1.09,1.057,1.521c0.572,0.566,1.008,1.143,1.249,1.928c0.14,0.455,0.921-0.104,1.234-0.26
		c-0.583,0.835-1.31,1.667-2.193,2.193c0.527,0.093,0.992-0.054,1.497-0.054c0.007,1.152-0.562,2.309-1.245,3.203
		c-0.152,0.2-0.512,0.397-0.362,0.667c0.163,0.292,0.383,0.557,0.59,0.818c0.518,0.652,1.108,1.252,1.616,1.91
		c0.212,0.258,0.273,0.503,0.544,0.272c0.283-0.242,0.565-0.485,0.86-0.711c0.708-0.544,1.449-1.013,2.231-1.439
		c0.291-0.158,0.206-0.25,0.317-0.571c0.155-0.448,0.456-0.553,0.837-0.778c0.617-0.395,0.503-1.04,0.956-1.551
		c-1.123-0.419-2.314-0.716-3.49-0.94c3.612-2.391,7.663-3.869,11.802-5.053c-0.773-0.716-1.056-1.401-0.646-2.399
		c0.184-0.447,0.849-1.155,0.215-1.517c0.304-0.228,0.55-0.537,0.75-0.856c-0.856,0-1.764,0.717-2.271-0.228
		c-0.463-0.862-0.173-1.686,0.073-2.562c-0.412,0.033-0.835-0.044-1.229-0.158c1.042-0.136,2.168-0.415,3.05-1.017
		c-0.489,0-1.003,0.129-1.496,0.159c0.195-1.523,1.966-0.826,2.923-0.538c1.321,0.399,1.416,1.23,2.029,2.291
		c0.328,0.568,0.865,1.096,1.482,1.345c0.67,0.316,1.516,0.326,2.141,0.698c0.293,0.167,0.514,0.438,0.682,0.725
		c0.229,0.392,0.987,0.129,1.425,0.088c0.98-0.092,1.962-0.169,2.946-0.229c-1.459-1.71-3.684-2.648-5.776-3.315
		c5.575-0.745,11.27-0.83,16.887-0.889c-0.445-0.372-1.01-0.562-1.541-0.772c1.217-0.139,2.444-0.022,3.662,0.066
		c-1.728-0.867-3.751-1.291-5.612-1.779c0.106,0.01,0.124,0.008,0.053-0.005c12.569,1.09,25.034,3.321,37.176,6.746
		C118.343,87.204,115.774,86.536,113.198,85.92C111.373,84.202,115.987,86.587,113.198,85.92z M92.6,62.174
		c0.579-0.311,1.021-0.316,1.097-1.083c0.571,0.109,1.143,0.217,1.709,0.347c-0.19-0.279-0.442-0.685-0.768-0.813
		c-0.021-0.373,0.869-0.603,1.105-0.694c0.619-0.238,1.12-0.744,1.82-0.635c0.624,0.098,1.17,0.486,1.773,0.668
		c-0.181-0.154-0.377-0.338-0.479-0.556c0.504,0.035,1.667,0.109,1.582,0.871c-0.037,0.318-0.466,0.408-0.485,0.692
		c-0.026,0.276,0.562,0.587,0.738,0.737c-0.24-0.075-0.481-0.14-0.725-0.195c0.819,0.955-0.048,2.177-0.991,2.614
		c0.382,0.168,0.756,0.357,1.115,0.568c-0.415-0.04-0.83-0.102-1.243-0.156c-0.42-0.055-0.723,0.25-1.002,0.561
		c-0.464,0.516-0.819,0.934-1.577,0.968c-0.396-0.023-0.826-0.248-1.216-0.332c0.216,0.187,0.438,0.374,0.63,0.586
		c-0.997,0.362-1.954-0.283-2.886-0.568c0.346,0.024,0.694,0.042,1.039,0.089c-0.608-0.489-1.328-0.965-1.833-1.563
		c0.332,0.057,0.668,0.11,0.995,0.191C92.144,63.96,91.428,62.811,92.6,62.174C92.964,61.978,92.24,62.37,92.6,62.174z
		 M85.079,71.396c0.203-0.449,0.627-0.324,1.03-0.319c0.593,0.007,0.558-0.318,0.9-0.694c0.617-0.68,2.236,0.109,2.936,0.37
		c-0.435,0.029-0.87,0.042-1.305,0.044c0.817,0.198,1.578,0.587,2.291,1.026c0.472,0.291,0.559,0.941,1.074,1.137
		c0.581,0.22,0.527,0.465-0.056,0.375c-0.514-0.079-1.032-0.135-1.551-0.18c0.55,0.212,1.099,0.426,1.647,0.639
		c-0.274,0.233-0.531,0.059-0.829,0.006c-0.453-0.081-0.64,0.462-0.929,0.705c-0.31,0.265-0.55,0.032-0.717,0.369
		c-0.226,0.455-0.596,0.52-1.061,0.462c-0.84-0.106-1.121-0.481-1.29-1.299c-0.091-0.441-1.145-0.903-1.537-1.117
		c0.295,0.013,0.59,0.055,0.88,0.106c-0.356-0.594-1.511-0.939-2.105-1.265c0.792,0.062,1.586,0.274,2.358,0.449
		C86.277,71.87,85.669,71.627,85.079,71.396z M56.835,88.944c-1.006,0.792-1.875,1.67-2.756,2.59
		c-0.833,0.87-2.262,1.203-3.195,0.255c-0.328-0.334-1.042-1.463-0.857-1.989c0.449-0.631,1.412-1.012,2.092-1.336
		c-0.69,0-1.385,0.088-2.065,0.203c0.063-1.25,0.273-2.651-0.105-3.863c-0.092-0.296-0.468-0.755-0.206-0.973
		c0.347-0.287,0.748-0.517,1.144-0.727c-0.87,0.131-1.808,0.222-2.681,0.053c0.393,0,0.796-0.18,1.14-0.357
		c0.037-0.019,0.128-1.068,0.206-1.242c0.281-0.642,1.035-1.35,1.554-1.806c0.604-0.529,2.242-0.173,2.892,0.111
		c0.252,0.109,0.495,0.292,0.612,0.547c0.097,0.213,0.77,0.136,0.992,0.116c-0.603,0.439-1.388,0.682-2.091,0.911
		c0.414,0.065,0.834,0.104,1.253,0.109c0.089,0.001,0.148,0.417,0.169,0.49c0.252,0.921,0.386,2.022,1.007,2.776
		c-0.55,0.33-1.126,0.643-1.732,0.857c0.427-0.02,0.853-0.082,1.271-0.172c0.361-0.078,0.755-0.349,1.033-0.081
		c0.216,0.209,0.476,0.407,0.651,0.654C57.651,86.761,57.537,88.401,56.835,88.944C56.355,89.321,57.318,88.571,56.835,88.944z
		 M62.917,77.235c-0.405,0.264-0.474,0.819-0.946,0.984c-0.417,0.147-0.878,0.188-1.317,0.225c-0.831,0.069-1.721-0.315-2.584-0.326
		c0.51,0.151,1.018,0.306,1.527,0.462c-1.046,0.161-2.061,0.254-2.761-0.666c-0.36-0.472-0.786-0.96-0.667-1.591
		c0.103-0.541,0.399-0.636-0.28-0.841c0.797-0.071,1.611-0.016,2.407,0.04c-0.506-0.162-1.024-0.286-1.545-0.389
		c0.13-0.539,0.24-1.062,0.859-1.132c0.559-0.062,1.019,0.126,1.534-0.177c0.577-0.339,0.851-0.345,1.502-0.15
		c0.401,0.121,1.021,0.22,1.131,0.705c-0.343-0.032-0.697,0.016-1.034,0.076c0.479,0.134,1.08,0.201,1.52,0.432
		C63.075,75.308,64.106,76.481,62.917,77.235C62.571,77.461,63.268,77.012,62.917,77.235z M71.517,70.81
		c-0.498,0.58-1.116,0.249-1.712,0.396c-0.183,0.045-0.405,0.252-0.578,0.335c-0.516,0.249-1.088,0.41-1.665,0.387
		c-0.868-0.033-1.786-0.339-2.576-0.69c-0.62-0.276-1.319-0.331-1.932-0.655c0.963,0.088,1.942,0.138,2.908,0.08
		c-0.584-0.185-1.37-0.419-1.771-0.91c0.793-0.529-0.038-1.397,0.36-2.091c0.577,0.274,1.176,0.571,1.798,0.729
		c-0.398-0.342-0.817-0.744-1.049-1.222c0.514-0.026,0.912-0.304,1.274-0.647c0.209-0.197,0.42-0.396,0.667-0.547
		c0.229-0.142,0.775-0.147,0.924-0.29c0.939-0.89,1.755-0.388,2.814-0.191c-0.453-0.305-1.003-0.62-1.35-1.048
		c0.538,0.174,0.99,0.068,1.527,0.115c0.688,0.058,2.007,0.568,1.745,1.502c-0.149,0.535-0.811,1.165-0.105,1.556
		c0.504,0.279,1.094,0.435,1.652,0.57c-0.431-0.035-0.864-0.059-1.296-0.048c-0.495,0.012-0.728,0.39-1.208,0.417
		c-0.525,0.028-0.441,0.452-0.315,0.798C71.8,69.829,71.872,70.398,71.517,70.81C71.003,71.409,72.033,70.211,71.517,70.81z
		 M81.278,81.605c-0.388,0.589-1.462,0.667-2.088,0.688c-0.624,0.019-0.953,0.149-1.558,0.334c-1.352,0.414-2.552-0.021-3.832-0.495
		c0.298-0.148,0.62-0.271,0.951-0.323c-0.48-0.88-1.301-1.489-1.984-2.202c-0.081-0.085-0.9-1.015-0.732-1.084
		c0.505-0.208,1.024-0.405,1.557-0.529c-0.239,0.004-1.734-0.008-1.741-0.267c-0.018-0.669,0.042-1.27,0.324-1.881
		c0.147-0.32,0.244-0.607,0.258-0.958c0.008-0.201,0.498-0.251,0.654-0.286c0.561-0.122,1.126-0.222,1.691-0.321
		c-0.244-0.377-0.805-0.485-1.213-0.546c1.864-0.636,3.138,0.095,4.024,1.734c0.329,0.609,1,1.794,1.75,1.949
		c0.581,0.119,1.25-0.037,1.818-0.17c-0.408,0.395-1.055,1.011-1.668,0.964c0.138,0.478,0.326,0.963,0.616,1.37
		C80.468,80.09,81.788,80.824,81.278,81.605C80.905,82.173,81.65,81.036,81.278,81.605z"/>
	<path fill="#FFFFFF" d="M132.105,72.826c-3.22-0.637-6.2-1.919-9.203-3.202c-3.04-1.299-6.142-2.39-9.422-2.892
		c-3.202-0.489-6.505-0.459-9.647,0.375c-1.421,0.377-2.963,0.812-4.198,1.633c-0.613,0.407-1.179,0.899-1.754,1.347
		c0.367-0.349,0.59-1.005,0.905-1.422c0.443-0.587,0.949-1.125,1.497-1.614c1.077-0.961,2.312-1.734,3.609-2.358
		c1.418-0.681,2.939-1.234,4.487-1.537c-0.454-0.631-1.021-1.211-1.666-1.647c0.768-0.271,1.634-0.225,2.423-0.086
		c0.465,0.082,0.387,0.492,0.379,0.918c-0.005,0.284,0.013,0.494-0.347,0.49c0.489,0.591,1.151,0.724,1.476,1.474
		c-0.383-0.254-0.905-0.384-1.182-0.759c0.308,1.152,1.413,1.581,2.396,2.045c0.285,0.135,0.577,0.256,0.841,0.431
		c0.049,0.032,0.478,0.444,0.521,0.437c0.389-0.09-0.27-0.778-0.382-0.893c0.345,0.098,0.671,0.307,0.974,0.497
		c-0.068-0.303,0.108-0.643,0.09-0.954c-0.019-0.299-0.245-0.533-0.437-0.742c-0.48-0.525-1.115-0.889-1.152-1.674
		c-0.02-0.441,0.181-1.029,0.485-1.361c0.276-0.302,0.331-0.395,0.738-0.337c0.423,0.061,0.851,0.115,1.267,0.216
		c-0.346-0.26-0.708-0.503-1.078-0.729c1.19-0.861,2.708-1.188,4.156-1.215c0.255-0.005,0.65-0.062,0.896,0.029
		c0.464,0.317,0.855,0.775,1.057,1.302c-0.417-0.317-0.919-0.905-1.277-0.33c-0.294,0.471-0.49,0.889-0.949,1.225
		c-0.629,0.46-2.187,0.831-2.139,1.828c-0.297,0.016-0.594,0.033-0.892,0.048c0.638,0.143,1.231,0.656,1.719,1.07
		c-0.309-0.123-0.669-0.151-0.997-0.177c-0.124,0.536,0.37,0.937,0.729,1.239c0.276,0.238,0.442,0.637,0.581,0.967
		c-0.188-0.012-0.381,0-0.568,0.027c0.823,0.303,1.432,0.706,2.325,0.796c0.361,0.037,0.041-0.672-0.087-0.823
		c-0.413-0.205-0.688-0.626-0.809-1.061c0.226,0.174,0.476,0.318,0.737,0.435c-0.004-0.81,0.404-1.611,0.978-2.162
		c-0.042,3.368,3.931,5.136,6.508,6.282c-0.106-0.378-0.11-0.792-0.074-1.181C126.965,71.018,129.656,72.24,132.105,72.826
		C131.386,72.684,131.73,72.737,132.105,72.826z"/>
	<path fill="#D7A22A" d="M146.055,94.166c-1.131,0.521-2.296,0.974-3.507,1.273c-1.095,0.271-2.576,0.63-3.707,0.468
		c0.193-0.44-0.211-1.71-0.834-1.71c-1.402-0.652-2.815-1.282-4.246-1.87c-2.953-1.215-5.961-2.291-9.007-3.242
		c-2.956-0.923-5.946-1.758-8.947-2.522c-0.757-0.192-1.515-0.379-2.273-0.562c-0.753-0.18-1.436-1.119-1.999-1.646
		c-1.269-1.186-2.555-2.357-3.899-3.455c8.196,2.182,16.301,4.875,24.032,8.378c1.444,0.654,2.882,1.33,4.297,2.045
		c0.639,0.323,1.304,0.804,2.06,0.611c0.996-0.253,0.842-1.438,0.295-2.025c-0.541-0.58-1.482-0.856-2.182-1.175
		c-5.541-2.526-11.356-4.476-17.204-6.147c-2.32-0.665-4.656-1.277-7.003-1.844c-1.241-0.3-2.485-0.587-3.732-0.861
		c-0.65-0.144-1.303-0.284-1.957-0.42c-0.811-0.169-1.351-0.624-2.039-1.073c-2.229-1.455-4.736-2.619-6.812-4.289
		c-0.627-0.505-1.37-1.174-1.121-2.068c0.137-0.372,0.305-0.704,0.568-1.007c0.114-0.133,0.739-0.855,0.949-0.855
		c0.109-0.085,0.463-0.158,0.51-0.218c1.152-0.288,2.311-0.561,3.491-0.706c0.483-0.058,0.437,0.305,0.657,0.692
		c0.187,0.325,0.397,0.633,0.621,0.932c0.298,0.399,0.616,0.786,0.952,1.154c-0.562,0.04-1.142-0.066-1.685-0.208
		c1.499,2.016,4.134,3.431,6.448,4.263c2.273,0.817,4.863,1.012,7.268,0.936c-0.355,0.182-0.729,0.332-1.102,0.476
		c2.333-0.068,4.577,0.72,6.75,1.474c0.354,0,1.186,0.797,1.476,1.002c0.688,0.487,1.358,0.998,2.011,1.53
		c1.253,1.019,2.378,2.144,3.547,3.253c-0.098-0.088-0.139-0.52-0.189-0.654c-0.17-0.432-0.344-0.863-0.541-1.284
		c-0.438-0.936-0.968-1.829-1.548-2.683c-0.89-1.31-2.023-3.046-3.357-3.914c2.019,0.065,4.022,0.813,5.203,2.522
		c0.303,0.437,0.545,0.918,0.705,1.425c0.198,0.633,1.063,0.35,1.682,0.541c1.946,0.598,3.418,2.186,4.591,3.778
		c0.199,0.272,0.573,0.396,0.91,0.584c0.667,0.372,1.322,0.761,1.975,1.153c1.485,0.889,3.021,1.813,4.254,3.042
		c-0.372-0.007-0.732,0.112-1.084,0.213c1.249,0.883,2.485,1.929,3.458,3.116C144.984,92.829,145.773,94.166,146.055,94.166
		C145.361,94.485,146.02,94.166,146.055,94.166z"/>
	<path fill="#006576" d="M131.784,132.667c-0.394-0.255-0.785-0.509-1.179-0.765c-0.161-0.104-0.883-0.428-0.9-0.632
		c-0.09-0.979-0.178-1.957-0.266-2.936C130.643,129.54,132.277,130.674,131.784,132.667z"/>
	<path fill="#006576" d="M124.778,126.125c-0.471,1.701-1.43,3.312-2.472,4.718c-1.137,1.53-2.505,2.885-4.027,4.032
		c-0.901,0.679-1.857,1.285-2.852,1.819c-0.12,0.001-0.304-0.118-0.409-0.163c-2.408-1.048-4.507-2.852-6.118-4.9
		c-1.262-1.604-2.356-3.46-2.964-5.416c-0.556-1.794-0.744-3.688-0.862-5.556c-0.31-4.882,0.123-10.058-1.455-14.764
		c-1.108-3.308-3.796-6.28-7.253-7.183c2.407-1.251,5.884-0.462,8.25,0.4c3.158,1.152,5.493,3.659,6.965,6.624
		c1.203,2.429,1.889,5.102,2.233,7.781c0.387,2.997,0.382,6.013,1.14,8.964c0.488,1.899,1.292,4.207,3.14,5.191
		c-1.386-2.051-1.705-4.938-1.811-7.329c-0.187-4.315-0.269-8.582-1.402-12.782c-0.718-2.659-2.004-6.502-4.688-7.884
		c-0.027-0.015-0.056-0.027-0.084-0.04c4.689,0.836,8.769,4.143,9.661,8.934C120.812,114.172,118.568,122.91,124.778,126.125z"/>
	<path fill="#006576" d="M163.057,91.28c-0.242,2.17-2.343,4.229-3.859,5.656c-0.56-1.395-1.419-2.699-2.2-3.976
		c-0.188-0.305-0.225-0.32-0.19-0.638c0.076-0.684-0.261-1.356-0.667-1.882c-1.768-2.284-5.329-2.484-8.002-2.503
		c2.724-1.456,6.188-0.189,8.877,0.767C159.075,89.435,161.104,90.295,163.057,91.28z"/>
	<path fill="#FFFFFF" d="M45.077,55.625c0.323,0.515-1.319,0.206-1.447,0.227c0.09,0.075,0.179,0.152,0.266,0.231
		c-0.224,0.09-0.461,0.202-0.643,0.366c-0.212,0.192-0.446,0.091-0.743,0.141c-0.61,0.102-0.923,0.624-1.581,0.25
		c0.058,0.073,0.072,0.181,0.125,0.257c-0.266,0.003-0.536,0.028-0.792,0.098c-0.144,0.041-0.321,0.102-0.408,0.235
		c-0.298-0.149-0.598-0.296-0.898-0.44c-1.166-0.557-2.353-1.064-3.555-1.536c-2.464-0.967-5.018-1.865-7.605-2.442
		c2.814,0.002,5.635-0.222,8.45-0.27c3.077-0.054,6.151-0.12,9.22-0.344c-0.709,0.88,1.577,0.728,2.047,0.702
		c-0.731,0.341-1.462,0.688-2.207,0.997c-0.614,0.254-1.016,0.806-1.723,0.815C44.122,55.144,44.615,55.202,45.077,55.625
		C45.139,55.723,44.961,55.519,45.077,55.625z"/>
	<path fill="#FFFFFF" d="M63.779,66.721c-1.199,0.604-2.429,1.244-3.605,1.892c-1.728,0.755-3.52,1.349-5.347,1.814
		c-1.845,0.47-3.786,0.876-5.7,0.885c1.028,0.466,2.245,0.549,3.351,0.683c0.721,0.087,1.578,0.05,2.275,0.263
		c-4.278,1.99-9.171,2.288-13.79,1.65c-1.635-0.226-3.262-0.571-4.826-1.104c-0.496-0.169-1.462-0.374-1.832-0.792
		c0.957-0.156,1.929-0.331,2.85-0.638c-2.206-0.732-4.612-1.468-6.576-2.735c0.854,0.019,1.708,0.039,2.562,0.057
		c-2.676-2.129-5.384-4.635-6.747-7.847c-0.208-0.488-0.381-1.003-0.446-1.533c-0.027-0.226-0.033-0.457,0.003-0.682
		c0.049-0.307-0.486-0.726-0.705-0.928c-0.692-0.644-1.557-1.172-2.474-1.424c4.087-0.377,8.089,0.713,11.756,2.46
		c2.059,0.981,4.076,2.123,5.951,3.422c1.747,1.211,3.354,2.616,5.151,3.758c-3.315,0.556-6.889-0.026-10.154-0.599
		c3.015,1.843,6.823,2.608,10.277,2.978c2.981,0.32,5.996,0.334,8.986,0.144C57.809,68.25,60.902,67.865,63.779,66.721
		C63.664,66.779,61.008,67.822,63.779,66.721z"/>
	<path fill="#FFFFFF" d="M177.337,93.993c-0.103,1.104-0.282,3.05-1.151,3.864c-1.021,0.956-2.922-0.099-4.148,0.25
		c-1.021,0.291-0.394,1.292,0.271,1.492c0.802,0.242,1.738,0.259,2.573,0.227c-2.101,2.316-5.273,3.781-8.328,4.334
		c-0.085,0.016-0.71-0.761-0.824-0.866c-0.499-0.456-1.058-0.847-1.643-1.182c-1.808-1.038-3.876-1.571-5.936-1.796
		c1.343-1.954,3.29-3.45,5.272-4.706c2.05-1.3,4.384-2.164,6.346-3.591c1.993-1.452,3.757-3.515,4.719-5.809
		c0.458,0.407,1.516,1.343,1.256,1.933c-0.449,1.02-1.261,1.672-2.104,2.353c-0.874,0.706-0.164,1.724,0.836,1.281
		c1.002-0.443,1.705-1.544,2.125-2.508c0.279,0.65,0.485,1.33,0.613,2.025c0.145,0.781-0.213,1.005-0.811,1.476
		c-0.646,0.508-1.378,0.892-2.128,1.22c-0.65,0.285-1.681,0.495-2.06,1.168c-0.634,1.12,1.409,0.881,1.914,0.745
		C175.334,95.578,176.552,94.991,177.337,93.993C177.269,94.726,176.2,95.439,177.337,93.993z"/>
	<path fill="#FFFFFF" d="M137.294,137.399c-0.87,0.062-1.72-0.287-2.382-0.832c-0.663-0.545-1.821-0.404-2.659-0.42
		c-1.887-0.037-3.787,0.111-5.651,0.408c-0.76,0.12-1.319,0.913-1.951,1.339c-1.643,1.104-3.768,1.911-5.774,1.618
		c-0.641-0.093-1.789-0.68-1.294-1.521c0.157-0.269,0.492-0.467,0.733-0.654c0.629-0.49,1.248-0.994,1.843-1.527
		c2.967-2.656,4.947-5.88,6.588-9.479c0.183-0.399,0.359-0.801,0.526-1.207c1.164,3.426,1.041,7.224-0.583,10.48
		c0.562-1.131,1.682-1.935,2.737-2.562c0.158,0.188,1.618,1.967,1.452,2.269c0.514-0.952,1.666-1.672,2.519-2.288
		c0.432-0.312,0.493-0.526,0.853-0.046c0.338,0.451,0.602,0.962,0.821,1.479c1.692-1.24,2.942-3.313,4.12-5.009
		c0.915-1.318,1.803-2.654,2.654-4.013c0.118,2.759-0.51,5.573-1.601,8.101c-0.416,0.966-0.907,1.921-1.549,2.759
		C138.375,136.715,137.878,137.36,137.294,137.399C135.736,137.51,138.853,137.293,137.294,137.399z"/>
	<path fill="#FFFFFF" d="M164.331,107.051c-0.155,0.692-0.704,1.344-1.122,1.891c-0.764,0.997-1.613,1.929-2.495,2.82
		c-1.588,1.604-3.46,3.495-5.619,4.308c1.578-2.573,2.854-5.502,3.415-8.472c-0.927,0.781-1.979,1.471-3.14,1.848
		c0.034-0.998,0.034-2.214-0.46-3.109c-1.031,1.027-2.175,1.977-3.412,2.745c-0.588-0.958-1.168-2.022-1.4-3.131
		c-1.544,2.351-3.474,4.745-6.017,6.062c0.073-1.143-0.017-2.306-0.164-3.438c-0.029-0.213-0.06-0.425-0.095-0.638
		c-0.084-0.517,0.158-0.384,0.601-0.495c0.528-0.135,1.057-0.276,1.581-0.425c0.953-0.271,1.899-0.562,2.84-0.873
		c0.545-0.182,6.431-3.02,6.126-0.893c1.041-0.772,3.562-1.885,4.359-0.206c1.153-0.741,2.481-1.3,3.829-0.761
		C164.362,104.76,164.589,105.878,164.331,107.051C163.953,108.734,164.7,105.368,164.331,107.051z"/>
	<path fill="#FFFFFF" d="M143.639,107.633c-0.707,2.138-2.451,4.121-3.996,5.699c-2.508,2.56-5.614,4.51-9.075,5.479
		c2.479-2.582,4.521-6.362,4.161-10.024C137.73,108.822,140.728,108.329,143.639,107.633
		C143.582,107.805,140.816,108.308,143.639,107.633z"/>
	<path fill="#FFFFFF" d="M157.134,98.211c-0.566-4.377-5.036-6.574-8.603-8.275c-4.254-2.028-8.67-3.788-13.131-5.301
		c2.404,1.289,5.06,2.684,7.01,4.623c-0.373-0.007-0.731,0.112-1.085,0.213c1.254,0.887,2.472,1.934,3.458,3.117
		c0.2,0.241,0.99,1.577,1.271,1.577c-1.131,0.519-2.296,0.975-3.507,1.273c-0.634,0.157-1.28,0.264-1.929,0.339
		c-0.448,0.053-1.413-0.062-1.783,0.139c-0.675,1.717-3.7-0.428-4.646-0.861c-2.18-1-4.371-1.965-6.603-2.85
		c-7.301-2.896-14.846-5.174-22.479-7.013c-3.585-0.863-7.196-1.627-10.824-2.297c-1.96-0.362-3.927-0.702-5.896-1.015
		c-1.526-0.242-3.188-0.678-4.734-0.678c1.861,0.488,3.884,0.912,5.612,1.779c-1.216-0.089-2.445-0.205-3.662-0.066
		c0.531,0.21,1.095,0.401,1.541,0.772c-5.617,0.062-11.312,0.144-16.887,0.889c2.093,0.667,4.317,1.605,5.776,3.315
		c-1.421,0.086-2.839,0.209-4.254,0.361c0.257,0.518,0.54,1.036,0.12,1.494c-0.324,0.354-0.725,0.644-1.137,0.889
		c0.365,0.082,0.76,0.056,1.127,0c-0.249,0.839,0.224,1.907-0.145,2.665c-0.363,0.746-1.523,0.917-2.238,1.048
		c-0.877,0.161-1.822,0.282-2.682-0.028c-0.543-0.195-0.354-0.302-0.135-0.789c-0.752,0.137-1.542,0.136-2.304,0.161
		c0.908-0.391,1.761-0.938,2.571-1.5c-0.524,0.204-1.075,0.346-1.619,0.488c-0.522,0.137-0.533,0.137-0.963-0.222
		c-0.498-0.414-0.467-0.355-1.065-0.181c-0.599,0.175-1.198,0.351-1.795,0.537c-3.28,1.019-6.487,2.431-9.357,4.329
		c1.177,0.229,2.365,0.522,3.49,0.94c-0.255,0.286-0.281,0.592-0.417,0.933c0.399-0.91,0.796-1.392,1.736-1.838
		c-0.054,0.068-0.632,1.247-0.479,1.247c0.538-0.854,1.51-1.408,2.527-1.373c-0.259,0.066-0.508,0.193-0.737,0.329
		c0.958,0.332,1.883,0.595,2.895,0.691c1.061,0.101,2.12,0.075,3.177,0.234c0.347,0.052,0.693,0.11,1.038,0.176
		c0.229,0.045,0.709-0.201,0.938-0.264c0.69-0.191,1.383-0.372,2.077-0.548c-0.698,0.437-1.436,0.815-2.171,1.185
		c1.819,1.001,1.538,3.009,0.567,4.524c-0.231,0.361-0.643,0.433-1.005,0.665c-0.859,0.549-1.651,1.259-1.94,2.271
		c0.388-0.357,0.826-0.664,1.273-0.941c-0.368,0.579-0.352,1.34-0.808,1.891c-0.515,0.622-1.373,0.613-2.105,0.688
		c-0.686,0.075-1.438-0.43-1.974-0.805c-0.283-0.198-1.126,0.683-1.348,0.889c0.291-0.969,1.014-1.838,1.724-2.539
		c-0.448,0.19-0.861,0.476-1.262,0.747c-0.424,0.288-0.407,0.147-0.87-0.068c-1.119-0.52-2.313-0.868-3.4-1.461
		c-1.741-0.946-1.216-2.824-0.37-4.179c-0.356,0.192-0.666,0.483-0.941,0.777c-0.032-0.408,0.02-0.853,0.248-1.203
		c0.231-0.357,0.687-0.372,0.96-0.675c-0.341,0.324-0.827,0.35-1.052,0.807c-0.055,0.111-0.125,0.598-0.192,0.633
		c-0.172,0.093-0.344,0.188-0.514,0.281c-1.07,0.598-2.011,1.341-2.949,2.124c7.307,8.009,17.587,12.35,27.202,16.842
		c4.677,2.187,8.952,5.331,12.077,9.475c1.595,2.116,2.743,4.511,4.16,6.741c1.345,2.115,2.836,4.14,4.499,6.017
		c1.66,1.876,3.494,3.605,5.505,5.102c0.967,0.719,1.976,1.382,3.028,1.966c1.042,0.578,2.406,1.436,3.614,1.547
		c-0.07,0.608-0.646,1.058-1.101,1.396c3.602,0.708,7.329,0.607,10.935-0.019c-0.65,0.694-1.299,1.389-1.948,2.084
		c5.096-0.202,10.284-2.116,14.487-4.97c2.025-1.376,3.86-3.031,5.408-4.934c0.778-0.957,1.484-1.972,2.115-3.031
		c0.092-0.157,0.807-1.181,0.673-1.323c-0.36-0.386-1.261-0.576-1.752-0.723c-5.234-1.556-10.562,0.08-15.529,1.778
		c-2.537,0.867-4.98,1.83-7.676,2.059c-2.539,0.214-5.015-0.147-7.221-1.476c-4.348-2.618-7.491-7.27-10.039-11.539
		c-2.715-4.552-4.893-9.445-6.474-14.504c-1.576-5.047-2.321-10.361-0.96-15.548c1.25-4.758,4.305-9.192,9.506-9.871
		c-7.756-1.767-15.62-3.095-23.529-3.943c16.557,1.023,33.375,3.819,49.017,9.493c1.921,0.696,3.844,1.427,5.692,2.301
		c0.296,0.14,0.54,0.407,0.708,0.682c0.352,0.577,0.194,1.453-0.524,1.66c-0.628,0.18-1.174-0.118-1.72-0.377
		c-3.319-1.563-6.734-2.937-10.184-4.183c1.646,3.246,4.162,6.282,7.41,8.012c3.41,1.815,7.492,2.151,11.23,1.337
		c1.908-0.415,3.671-1.173,5.455-1.94c1.873-0.808,3.812-1.529,5.759-2.139c1.999-0.627,4.069-1.021,6.168-1.034
		c0.73-0.005,0.899,0.181,0.908-0.569C157.183,99.176,157.2,98.677,157.134,98.211C157.062,97.66,157.16,98.396,157.134,98.211z
		 M86.091,112.131c-0.277,0.474-0.719,0.906-1.274,1.013c0.082-0.102,0.108-0.247,0.187-0.352c-0.463,0.128-0.957-0.016-1.371-0.226
		c0.435,0.606,0.507,1.108,0.182,1.718c0.285-0.021,0.571-0.042,0.856-0.062c-0.137,0.169-0.413,0.392-0.484,0.595
		c0.049,0.469-0.057,0.95-0.404,1.286c-0.774,0.751-2.125,0.608-3.027,0.215c-0.29-0.128-1.978-0.905-1.854-1.302
		c0.209-0.67,0.68-1.294,1.077-1.865c-0.625,0.189-1.207,0.59-1.746,0.95c-0.399,0.267-0.533,0-0.942-0.194
		c-0.86-0.408-1.97-0.371-2.894-0.488c-1.75-0.221-3.496-0.519-5.162-1.115c-0.325-0.116-0.65-0.241-0.96-0.395
		c-0.277-0.137,0.29-1.226,0.411-1.432c-0.489,0.24-0.937,0.607-1.248,1.058c-1.237-0.903-1.395-2.857-0.009-3.681
		c0.45-0.268,0.974-0.43,1.491-0.5c0.286-0.039,0.625-0.35,0.934-0.434c0.277-0.076,0.572-0.125,0.859-0.125
		c-0.211,0.126-0.416,0.266-0.617,0.405c0.662-0.127,1.437,0.018,2.1,0.067c0.914,0.069,1.826,0.158,2.74,0.231
		c1.539,0.126,2.83,0.139,4.312-0.2c-0.807,0.519-1.611,1.039-2.416,1.56c0.981-0.605,2.24-0.855,3.357-1.094
		c1.05-0.223,1.825,0.581,2.096,1.506c0.89-0.876,2.312,0.546,2.787,1.233c0.273,0.396,0.478,0.854,0.555,1.33
		C85.669,112.101,85.824,112.057,86.091,112.131z M78.898,96.115c1.6-0.7,3.018,0.127,3.913,1.459
		c0.117,0.175,0.408,0.93,0.594,1.01c0.598-0.246,1.262-0.375,1.9-0.462c-0.561,0.263-1.063,0.691-1.538,1.084
		c-0.018,0.016,0.564,1.837,0.575,2.055c0.038,0.906-0.769,1.251-1.487,1.532c-0.492,0.19-1.07,0.22-1.58,0.08
		c-0.345-0.094-0.594-0.281-0.973-0.249c0.325-0.437,0.875-0.761,1.319-1.065c-0.508,0.045-1.003,0.217-1.458,0.441
		c-0.147,0.071-0.359,0.26-0.521,0.286c-0.687,0.106-1.378,0.2-2.072,0.241c-0.822,0.048-1.548-0.248-2.262-0.634
		c-0.509-0.277-1.016-0.034-1.515,0.221c0.449-0.751,1.346-1.324,2.042-1.829c-0.5,0.109-0.974,0.354-1.416,0.607
		c-0.359,0.206-0.295,0.203-0.629-0.04c-0.661-0.482-1.705-0.895-2.158-1.599c-0.589-0.916-0.075-1.938,0.931-2.119
		c0.979-0.176,2.021-0.122,3.012-0.127c-0.272,0.213-0.491,0.534-0.63,0.849c0.278-0.401,1.073-0.724,1.519-0.901
		C77.263,96.64,78.107,96.458,78.898,96.115C79.875,95.688,77.916,96.541,78.898,96.115z"/>
	<path d="M146.783,57.915c-0.417-0.367-0.835-0.735-1.252-1.101c0.18,0.429,0.387,0.859,0.523,1.304
		c-0.331,0.006-0.673-0.033-0.987-0.146c-0.337-0.121-1.228-0.625-1.369-0.969c-0.025-0.062,0.525,0.032,0.417,0.016
		c-0.64-0.706-1.343-0.556-2.158-0.723c-0.829-0.169-1.747-0.862-1.865-1.755c0.297,0.206,0.607,0.434,0.945,0.568
		c-0.243-0.357-0.56-0.826-0.56-1.273c0.199-0.272,1.211,0.287,1.544,0.15c-0.127-0.172-0.241-0.366-0.304-0.573
		c0.253,0.209,0.513,0.422,0.795,0.591c0.296,0.177,0.901-0.083,1.275,0.001c0.9,0.203,1.453,1.078,2.174,1.579
		c-0.186-0.233-0.367-0.517-0.441-0.807c0.529,0.329,1.636,0.844,1.055,1.585C146.233,56.8,147.339,57.266,146.783,57.915z"/>
	<path d="M151.898,62.125c-0.347,0.52-1.404-0.462-1.784-0.645c0.226,0.352,0.509,0.718,0.66,1.11
		c-0.522-0.083-0.913-0.406-1.375-0.528c-0.647-0.17-2.132-0.542-2.132-1.435c0.321,0.153,0.644,0.307,0.968,0.453
		c-0.364-0.439-0.723-0.911-1.141-1.301c0.352-0.36,0.86-0.547,1.363-0.502c0.001-0.155-0.055-0.302-0.162-0.417
		c0.534,0.325,1.093,0.676,1.529,1.127c-0.044-0.152-0.087-0.302-0.129-0.453c0.653,0.173,1.207,0.459,1.598,1.029
		C151.484,60.844,152.136,61.774,151.898,62.125C151.769,62.32,152.028,61.934,151.898,62.125z"/>
	<path d="M138.543,91.585c-0.506,0.709-1.465,0.313-2.067,0c-0.931-0.484-1.882-0.93-2.827-1.384
		c-1.171-0.562-2.353-1.099-3.542-1.616c-3.484-1.516-7.038-2.869-10.633-4.099c-9.901-3.39-20.115-5.861-30.429-7.613
		c-1.805-0.307-3.615-0.59-5.429-0.845c10.525,1.003,21.001,2.791,31.238,5.448c6.739,1.749,13.428,3.858,19.83,6.616
		C135.658,88.512,139.834,89.76,138.543,91.585C138.182,92.092,139.284,90.538,138.543,91.585z"/>
	<path d="M113.807,66.063c-0.301-0.191-0.626-0.399-0.972-0.497c0.134,0.136,0.648,0.622,0.476,0.839
		c-0.062,0.079-1.102-0.652-1.266-0.727c-1.049-0.484-2.237-0.923-2.586-2.133c0.277,0.377,0.8,0.502,1.182,0.759
		c-0.293-0.762-0.992-0.889-1.474-1.474c0.787,0.01,0.125-1.727,0.17-2.182c0.062-0.642,1.119-0.385,1.557-0.228
		c-0.321-0.148-0.642-0.332-0.92-0.551c0.463-0.174,0.097-0.864,0.891-0.628c0.433,0.129,0.808,0.385,1.192,0.613
		c0.149,0.089,0.428,0.182,0.521,0.341c0.059,0.116,0.092,0.237,0.103,0.367c0.195,0.055,0.39,0.109,0.586,0.165
		c0.499,0.143,1.07,0.247,1.53,0.483c-0.562-0.136-1.456-0.452-1.873-0.02c-0.372,0.385-0.643,0.953-0.617,1.502
		c0.033,0.72,0.551,1.05,1.006,1.52c0.195,0.201,0.447,0.436,0.547,0.706C114,65.304,113.723,65.685,113.807,66.063z"/>
	<path d="M113.131,52.388c-0.57,0.47-1.556,0.552-0.716,1.403c-0.171-0.019-0.986-0.307-1.016-0.273
		c-0.218,0.252-0.341,0.525-0.518,0.797c-0.496,0.766-1.122,1.207-1.962,1.536c0.333,0.472,0.709,0.976,1.186,1.311
		c-0.927-0.393-1.975-0.882-2.686-1.612c-0.029,0.268-0.04,0.61,0.115,0.844c-1.352,0.551-2.791,0.017-3.901-0.817
		c0.515,0.085,1.033,0.182,1.558,0.182c-0.486-0.245-1.001-0.548-1.349-0.976c-0.637-0.783-0.225-1.791,0.662-2.096
		c1.312-0.453,2.427,0.567,3.688,0.869c-0.559-0.37-1.262-0.802-1.616-1.385c0.402,0.009,0.985,0.062,1.295-0.238
		c0.562-0.542,1.025-0.777,1.823-0.863c-0.196-0.108-0.44-0.226-0.586-0.4c0.781,0.206,1.527,0.254,2.326,0.337
		c0.606,0.063,1.229-0.176,1.825,0.014C113.934,51.239,113.483,52.095,113.131,52.388C112.651,52.782,113.611,51.988,113.131,52.388
		z"/>
	<path d="M122.278,61.628c-0.18,0.382-0.695,0.651-1.046,0.841c-0.18,0.098-0.474,0.337-0.596,0.131
		c-0.166-0.241-0.349-0.459-0.593-0.627c0.101,0.277,0.164,0.594,0.195,0.883c-0.11,0.247-0.851,0.611-1.064,0.822
		c-0.574,0.551-0.981,1.353-0.979,2.162c-0.262-0.116-0.513-0.26-0.738-0.435c0.101,0.364,0.309,0.715,0.614,0.942
		c0.122,0.09,0.703,0.98,0.367,0.951c-0.931-0.084-1.557-0.491-2.41-0.806c0.188-0.027,0.38-0.037,0.569-0.027
		c-0.14-0.329-0.306-0.728-0.581-0.967c-0.36-0.303-0.853-0.705-0.731-1.239c0.33,0.026,0.688,0.054,0.996,0.177
		c-0.486-0.415-1.079-0.927-1.717-1.07c0.297-0.017,0.596-0.033,0.893-0.049c-0.049-0.997,1.511-1.368,2.138-1.828
		c0.382-0.28,0.618-0.616,0.839-1.031c0.054-0.102,0.287-0.573,0.437-0.488c0.326,0.191,0.648,0.395,0.95,0.623
		c-0.201-0.526-0.594-0.984-1.056-1.302c0.395,0.056,0.794,0.129,1.172,0.258c0.474-0.016,0.827-0.375,1.358-0.248
		c0.367,0.088,1.188,0.361,1.312,0.78C122.732,60.532,122.462,61.226,122.278,61.628C122.109,61.988,122.442,61.268,122.278,61.628z
		"/>
	<path d="M125.302,55.318c-0.274-0.068-0.554-0.132-0.821-0.226c0.163,0.247,0.65,0.751,0.325,0.943
		c-0.446,0.264-1.061,0.308-1.426,0.677c-0.969,0.984-2.059,0.489-3.221,0.199c0.284,0.262,0.567,0.569,0.76,0.906
		c-0.89,0.414-1.868,0.552-2.833,0.375c-0.579-0.106-1.214-0.461-0.786-1.096c0.079-0.117,1.154,0.317,1.347,0.35
		c-0.534-0.495-1.064-1.021-1.652-1.451c0.459,0.078,0.926,0.165,1.368,0.314c-0.108-0.502-0.555-0.919-0.035-1.342
		c0.366-0.298,0.901-0.346,1.289-0.619c-0.341-0.276-0.702-0.53-1.085-0.742c0.671,0.072,1.413,0.358,2.081,0.262
		c0.573-0.083,0.996-0.373,1.591-0.288c0.437,0.064,0.762,0.242,1.223,0.2c-0.16-0.183-0.372-0.31-0.597-0.399
		C123.633,53.492,126.223,54.103,125.302,55.318z"/>
	<path d="M141.855,61.032c0.098,0.25,0.196,0.502,0.314,0.742c-0.452-0.18-1.031-0.42-1.438-0.135
		c-0.609,0.427-1.501-0.115-2.003-0.49c0.341,0.015,0.681,0.026,1.02,0.026c-0.545-0.489-1.388-0.383-1.979-0.844
		c-0.045,0.185,0.006,0.381,0.161,0.502c-0.922,0.215-0.882-0.658-1.208-1.234c-0.402-0.709,0.201-1.433,0.995-1.433
		c-0.334-0.205-0.669-0.407-1.009-0.6c0.855,0.236,1.712,0.561,2.474,1.021c-0.052-0.235-0.156-0.489-0.342-0.652
		c0.914-0.219,1.781,0.367,2.314,1.063C141.54,59.498,142.878,60.427,141.855,61.032z"/>
	<path d="M132.469,61.517c-0.644,0.529-1.209,1.892-2.156,1.962c-1.074,0.069-2.49-0.155-3.271-0.937
		c0.505,0.069,1.025,0.169,1.536,0.169c-0.245-0.181-0.486-0.369-0.721-0.563c-0.18-0.149-0.362-0.303-0.516-0.479
		c-0.139-0.16,0.104-0.205,0.18-0.382c0.083-0.194-0.144-1.162,0.312-1.012c0.483,0.159,0.979,0.319,1.483,0.391
		c-0.416-0.417-0.851-0.82-1.307-1.194c0.44-0.022,0.776,0.254,1.165,0.012c0.625-0.392,1.067-0.654,1.832-0.39
		c0.573,0.198,1.01,0.698,1.359,1.174c0.272,0.372,0.752,0.557,1.018,0.993c-0.556-0.353-1.194-0.698-1.854-0.79
		C131.864,60.637,132.297,61.194,132.469,61.517z"/>
	<path d="M136.283,54.634c-0.044,0.558-0.563,0.799-1.068,0.776c-0.198-0.01-0.521-0.122-0.669,0.076
		c-0.082,0.111-0.521,0.611-0.701,0.5c-0.771-0.477-1.541-0.965-2.346-1.384c0.263,0.338,0.563,0.691,0.741,1.083
		c-1.479,0.104-3.373-0.626-4.294-1.819c0.396,0.181,0.802,0.37,1.223,0.484c-0.235-0.267-0.698-0.683-0.738-1.053
		c0.88-0.251,1.309-0.967,2.331-0.967c0.88,0,1.909,0.688,2.589,1.194c-0.301-0.417-0.618-0.842-0.995-1.194
		c1.06-0.003,2.605-0.598,3.21,0.621c-0.261-0.105-0.522-0.212-0.795-0.28C134.967,53.529,136.345,53.67,136.283,54.634
		C136.253,55.03,136.309,54.235,136.283,54.634z"/>
	<path d="M83.746,99.223c0.424,0.881,1.067,2.391,0.073,3.104c-0.505,0.363-1.209,0.618-1.829,0.631
		c-0.604,0.011-1.109-0.383-1.69-0.333c0.325-0.437,0.875-0.761,1.319-1.065c-0.509,0.045-1.003,0.217-1.458,0.441
		c-0.147,0.071-0.359,0.26-0.521,0.286c-0.686,0.106-1.378,0.2-2.072,0.241c-0.822,0.048-1.548-0.248-2.262-0.634
		c-0.509-0.277-1.016-0.034-1.515,0.221c0.448-0.751,1.345-1.324,2.042-1.829c-0.5,0.109-0.974,0.354-1.415,0.607
		c-0.359,0.206-0.296,0.203-0.629-0.04c-0.66-0.482-1.704-0.895-2.158-1.599c-0.589-0.916-0.075-1.938,0.932-2.119
		c0.978-0.176,2.021-0.122,3.012-0.127c-0.272,0.213-0.491,0.534-0.63,0.849c0.308-0.443,1.184-0.8,1.7-0.954
		c1.145-0.34,2.461-1.146,3.666-1.045c1.344,0.111,2.177,1.14,2.813,2.218c0.286,0.485,0.163,0.524,0.727,0.358
		c0.474-0.14,0.965-0.242,1.455-0.309C84.738,98.39,84.228,98.824,83.746,99.223z"/>
	<path d="M62.917,77.235c-0.405,0.264-0.474,0.819-0.946,0.984c-0.417,0.147-0.878,0.188-1.317,0.225
		c-0.831,0.069-1.721-0.315-2.584-0.326c0.51,0.151,1.018,0.306,1.527,0.462c-1.046,0.161-2.061,0.254-2.761-0.666
		c-0.36-0.472-0.786-0.96-0.667-1.591c0.103-0.541,0.399-0.636-0.28-0.841c0.797-0.071,1.611-0.016,2.407,0.04
		c-0.506-0.162-1.024-0.286-1.545-0.389c0.13-0.539,0.24-1.062,0.859-1.132c0.559-0.062,1.019,0.126,1.534-0.177
		c0.577-0.339,0.851-0.345,1.502-0.15c0.401,0.121,1.021,0.22,1.131,0.705c-0.343-0.032-0.697,0.016-1.034,0.076
		c0.479,0.134,1.08,0.201,1.52,0.432C63.075,75.308,64.106,76.481,62.917,77.235C62.571,77.461,63.268,77.012,62.917,77.235z"/>
	<path d="M71.896,90.634c-0.249,0.839,0.224,1.907-0.145,2.665c-0.363,0.746-1.523,0.917-2.238,1.048
		c-0.877,0.161-1.822,0.282-2.682-0.028c-0.542-0.195-0.354-0.302-0.135-0.789c-0.752,0.137-1.542,0.136-2.304,0.161
		c0.908-0.391,1.761-0.938,2.571-1.5c-0.623,0.243-1.282,0.404-1.93,0.566c-0.467,0.118-0.995-0.581-1.291-0.887
		c-0.65-0.671-0.776-1.32-0.422-2.182c0.183-0.448,0.848-1.155,0.214-1.518c0.303-0.229,0.551-0.536,0.75-0.856
		c-0.856,0-1.765,0.717-2.271-0.228c-0.462-0.861-0.173-1.686,0.074-2.562c-0.412,0.033-0.836-0.043-1.229-0.158
		c1.042-0.136,2.167-0.415,3.049-1.017c-0.489,0-1.002,0.129-1.496,0.159c0.215-1.672,2.431-0.71,3.415-0.381
		c0.967,0,1.493,2.214,1.989,2.744c0.482,0.515,1.141,0.833,1.806,1.037c0.841,0.259,1.561,0.285,2.049,1.123
		c0.218,0.374,0.676,1.155,0.378,1.546c-0.333,0.437-0.809,0.777-1.278,1.056C71.135,90.716,71.529,90.69,71.896,90.634z"/>
	<path d="M59.379,55.766c0.95,0.615,0.292,1.717,0.599,2.576c0.423,1.214-1.5,1.4-2.22,1.341c0.235,0.115,0.497,0.257,0.759,0.292
		c-0.297,0.229-0.664,0.373-1.035,0.421c-0.169,0.022-0.713-0.096-0.822-0.033c-0.185,0.108-0.378,0.202-0.575,0.287
		c-0.841,0.366-2.269,0.663-2.932-0.208c0.673-0.121,1.348-0.236,2.024-0.328c-0.411-0.096-0.82-0.204-1.223-0.329
		c-0.597-0.184-0.914-0.174-0.66-0.812c0.08-0.199,0.746-0.905,0.473-0.97c-0.546-0.13-1.108-0.251-1.636-0.448
		c0.218-0.034,1.972-0.339,1.946-0.42c-0.139-0.43,0.395-0.781,0.66-1.003c0.369-0.309,0.737-0.831,1.151-1.065
		c0.825-0.466,1.812,0.049,2.646,0.122c0.692,0.061,1.423-0.072,2.112-0.14C60.344,55.438,59.842,55.644,59.379,55.766z"/>
	<path d="M138.902,95.635c-0.163,2.057-3.076,0.185-3.903-0.206c-1.133-0.534-2.271-1.057-3.418-1.56
		c-2.578-1.132-5.199-2.166-7.843-3.125c-8.222-2.983-16.692-5.269-25.255-7.03c-2.608-0.537-5.229-1.021-7.855-1.466
		c-1.26-0.214-2.521-0.417-3.784-0.606c-0.602-0.09-1.205-0.178-1.808-0.263c-0.4-0.056-0.953-0.026-1.325-0.183
		c10.289,0.894,20.505,2.544,30.531,5.016c4.808,1.186,9.587,2.479,14.262,4.116c2.265,0.793,4.503,1.659,6.705,2.61
		c0.477,0.206,0.951,0.416,1.425,0.629c0.35,0.159,1.156,0.356,1.402,0.644C138.528,94.458,138.958,95.071,138.902,95.635
		C138.898,95.688,138.981,94.845,138.902,95.635z"/>
	<path d="M81.278,81.605c-0.388,0.589-1.462,0.667-2.088,0.688c-0.624,0.019-0.953,0.149-1.558,0.334
		c-1.352,0.414-2.552-0.021-3.832-0.495c0.298-0.148,0.62-0.271,0.951-0.323c-0.48-0.88-1.301-1.489-1.984-2.202
		c-0.081-0.085-0.9-1.015-0.732-1.084c0.505-0.208,1.024-0.405,1.557-0.529c-0.239,0.004-1.734-0.008-1.741-0.267
		c-0.018-0.669,0.042-1.27,0.324-1.881c0.147-0.32,0.244-0.607,0.258-0.958c0.008-0.201,0.498-0.251,0.654-0.286
		c0.561-0.122,1.126-0.222,1.691-0.321c-0.244-0.377-0.805-0.485-1.213-0.546c1.864-0.636,3.138,0.095,4.024,1.734
		c0.329,0.609,1,1.794,1.75,1.949c0.581,0.119,1.25-0.037,1.818-0.17c-0.408,0.395-1.055,1.011-1.668,0.964
		c0.138,0.478,0.326,0.963,0.616,1.37C80.468,80.09,81.788,80.824,81.278,81.605C80.905,82.173,81.65,81.036,81.278,81.605z"/>
	<path d="M56.835,88.944c-1.006,0.792-1.875,1.67-2.756,2.59c-0.833,0.87-2.262,1.203-3.195,0.255
		c-0.328-0.334-1.042-1.463-0.857-1.989c0.449-0.631,1.412-1.012,2.092-1.336c-0.69,0-1.385,0.088-2.065,0.203
		c0.063-1.25,0.273-2.651-0.105-3.863c-0.092-0.296-0.468-0.755-0.206-0.973c0.347-0.287,0.748-0.517,1.144-0.727
		c-0.87,0.131-1.808,0.222-2.681,0.053c0.393,0,0.796-0.18,1.14-0.357c0.037-0.019,0.128-1.068,0.206-1.242
		c0.281-0.642,1.035-1.35,1.554-1.806c0.604-0.529,2.242-0.173,2.892,0.111c0.252,0.109,0.495,0.292,0.612,0.547
		c0.097,0.213,0.77,0.136,0.992,0.116c-0.603,0.439-1.388,0.682-2.091,0.911c0.414,0.065,0.834,0.104,1.253,0.109
		c0.089,0.001,0.148,0.417,0.169,0.49c0.252,0.921,0.386,2.022,1.007,2.776c-0.55,0.33-1.126,0.643-1.732,0.857
		c0.427-0.02,0.853-0.082,1.271-0.172c0.361-0.078,0.755-0.349,1.033-0.081c0.216,0.209,0.476,0.407,0.651,0.654
		C57.651,86.761,57.537,88.401,56.835,88.944C56.355,89.321,57.318,88.571,56.835,88.944z"/>
	<path d="M99.967,61.513c0.818,0.956-0.047,2.177-0.992,2.614c0.382,0.168,0.756,0.357,1.115,0.568
		c-0.416-0.04-0.83-0.102-1.243-0.156c-0.42-0.055-0.723,0.25-1.003,0.561c-0.464,0.515-0.819,0.934-1.577,0.967
		c-0.395-0.023-0.826-0.247-1.216-0.332c0.216,0.187,0.438,0.374,0.63,0.585c-0.997,0.363-1.954-0.283-2.886-0.567
		c0.346,0.024,0.695,0.042,1.039,0.089c-0.609-0.49-1.329-0.966-1.834-1.564c0.332,0.057,0.668,0.11,0.995,0.191
		c-0.579-0.344-1.34-1.072-0.924-1.805c0.452-0.797,1.52-0.507,1.624-1.573c0.572,0.109,1.143,0.216,1.71,0.346
		c-0.191-0.278-0.442-0.685-0.768-0.813c-0.021-0.373,0.869-0.603,1.105-0.694c0.62-0.238,1.12-0.744,1.82-0.635
		c0.624,0.098,1.17,0.486,1.773,0.668c-0.181-0.154-0.376-0.338-0.479-0.555c0.504,0.035,1.668,0.108,1.582,0.87
		c-0.036,0.317-0.465,0.407-0.484,0.692c-0.026,0.276,0.562,0.587,0.739,0.737C100.562,61.75,100.095,61.542,99.967,61.513z"/>
	<path d="M66.643,103.609c-1.203,0.405-2.431,1.461-2.788,2.703c0.389-0.356,0.827-0.664,1.274-0.941
		c-0.367,0.581-0.351,1.341-0.807,1.893c-0.516,0.622-1.373,0.611-2.106,0.688c-0.686,0.073-1.439-0.43-1.975-0.805
		c-0.283-0.199-1.126,0.682-1.348,0.888c0.291-0.969,1.014-1.837,1.723-2.539c-0.447,0.19-0.861,0.476-1.262,0.748
		c-0.424,0.286-0.407,0.147-0.87-0.068c-1.12-0.52-2.313-0.868-3.4-1.462c-1.741-0.946-1.217-2.823-0.369-4.178
		c-0.357,0.192-0.666,0.483-0.941,0.777c-0.036-0.451,0.034-0.947,0.324-1.311c0.312-0.386,0.888-0.363,1.092-0.882
		c0.219-0.439,0.266-0.857,0.644-1.205c0.333-0.306,0.73-0.546,1.137-0.739c-0.054,0.068-0.632,1.247-0.479,1.247
		c0.538-0.854,1.509-1.409,2.527-1.373c-0.259,0.067-0.507,0.194-0.737,0.329c0.957,0.332,1.884,0.595,2.894,0.691
		c1.061,0.101,2.12,0.076,3.177,0.233c0.347,0.053,0.693,0.111,1.038,0.177c0.229,0.044,0.709-0.202,0.938-0.264
		c0.69-0.19,1.383-0.372,2.077-0.548c-0.698,0.437-1.437,0.814-2.171,1.185C68.147,99.908,67.741,102.099,66.643,103.609z"/>
	<path d="M86.091,112.131c-0.277,0.474-0.719,0.906-1.274,1.013c0.082-0.102,0.108-0.247,0.187-0.352
		c-0.463,0.128-0.957-0.016-1.371-0.226c0.435,0.606,0.507,1.108,0.182,1.718c0.285-0.021,0.571-0.042,0.856-0.062
		c-0.137,0.169-0.413,0.392-0.484,0.595c0.049,0.469-0.057,0.95-0.404,1.286c-0.774,0.751-2.125,0.608-3.027,0.215
		c-0.29-0.128-1.978-0.905-1.854-1.302c0.209-0.67,0.68-1.294,1.077-1.865c-0.625,0.189-1.207,0.59-1.746,0.95
		c-0.399,0.267-0.533,0-0.942-0.194c-0.86-0.408-1.97-0.371-2.894-0.488c-1.75-0.221-3.496-0.519-5.162-1.115
		c-0.325-0.116-0.65-0.241-0.96-0.395c-0.277-0.137,0.29-1.226,0.411-1.432c-0.489,0.24-0.937,0.607-1.248,1.058
		c-1.237-0.903-1.395-2.857-0.009-3.681c0.45-0.268,0.974-0.43,1.491-0.5c0.286-0.039,0.625-0.35,0.934-0.434
		c0.277-0.076,0.572-0.125,0.859-0.125c-0.211,0.126-0.416,0.266-0.617,0.405c0.662-0.127,1.437,0.018,2.1,0.067
		c0.914,0.069,1.826,0.158,2.74,0.231c1.539,0.126,2.83,0.139,4.312-0.2c-0.807,0.519-1.611,1.039-2.416,1.56
		c0.981-0.605,2.24-0.855,3.357-1.094c1.05-0.223,1.825,0.581,2.096,1.506c0.89-0.876,2.312,0.546,2.787,1.233
		c0.273,0.396,0.478,0.854,0.555,1.33C85.669,112.101,85.824,112.057,86.091,112.131z"/>
	<path d="M85.429,61.934c0.698,0.337,1.416,0.661,2.079,1.062c-0.484-0.03-0.756,0.062-1.103,0.416
		c-0.268,0.275-0.166,0.853-0.292,1.203c-0.217,0.607-0.804,0.746-1.369,0.875c-0.434,0.1-0.672,0.432-0.292,0.799
		c-0.495-0.111-1.002-0.247-1.509-0.293c0.286,0.285,0.577,0.575,0.902,0.813c-0.855-0.171-1.728,0.101-2.596-0.059
		c-0.517-0.096-1.088-0.32-1.367-0.798c-0.245-0.42,0.027-0.655,0.232-0.987c0.244-0.397-0.33-0.903-0.542-1.165
		c-0.029-0.035-0.422-0.695-0.131-0.693c0.786,0.004,1.655-0.029,2.418,0.183c-0.754-0.421-1.586-0.952-2.438-1.133
		c0.216-0.67,1.13-0.831,1.409-1.508c0.148-0.363,0.231-0.22,0.62-0.148c0.497,0.091,0.994,0.183,1.492,0.257
		c-0.863-0.329-1.587-0.874-2.49-1.126c0.427-0.021,0.894,0.004,1.312-0.084c0.641-0.136,0.962-0.569,1.512-0.861
		c1.264-0.668,3.061-0.04,4.261,0.512c-0.472-0.07-0.951-0.131-1.429-0.143c0.69,0.38,0.345,0.715,0.347,1.362
		c0.002,0.562,0.432,1.063,0.535,1.608C86.802,61.837,85.698,61.94,85.429,61.934z"/>
	<path d="M92.387,73.413c-0.653-0.136-1.325-0.199-1.99-0.258c0.55,0.212,1.099,0.426,1.647,0.639
		c-0.274,0.233-0.531,0.059-0.829,0.006c-0.453-0.081-0.64,0.462-0.929,0.705c-0.31,0.265-0.55,0.032-0.717,0.369
		c-0.226,0.455-0.596,0.519-1.061,0.461c-0.84-0.106-1.121-0.481-1.29-1.299c-0.091-0.443-1.145-0.902-1.537-1.117
		c0.295,0.013,0.59,0.055,0.88,0.106c-0.356-0.594-1.511-0.939-2.105-1.265c0.792,0.061,1.586,0.273,2.358,0.449
		c-0.538-0.339-1.146-0.581-1.736-0.813c0.203-0.449,0.627-0.325,1.03-0.319c0.593,0.006,0.558-0.319,0.9-0.694
		c0.617-0.68,2.236,0.108,2.936,0.37c-0.435,0.029-0.87,0.042-1.305,0.044c0.866,0.209,2.324,0.707,2.795,1.526
		c0.159,0.276,0.247,0.514,0.57,0.637C92.196,73.031,92.521,73.167,92.387,73.413z"/>
	<path d="M80.446,52.228c-0.121,1.042-1.288,1.416-1.908,2.089c-0.404,0.438-0.424,1.023-1.015,1.306
		c-0.406,0.194-0.736,0.239-1.068,0.588c0.381,0.092,0.818,0.005,1.186-0.111c-0.623,0.533-1.16,0.942-1.997,1.057
		c-0.859,0.119-1.862,0.026-2.717-0.051c-0.496-0.044-1.078-0.113-1.482-0.434c-0.274-0.217-0.356-0.753-0.69-0.879
		c-0.192-0.072-0.998,0.236-1.253,0.26c-0.306,0.029-0.614,0.043-0.922,0.043c0.988-0.41,1.874-1.122,2.603-1.896
		c-0.245,0.104-1.348,0.606-1.612,0.448c-0.257-0.437-0.178-1.123,0.216-1.449c0.243-0.201,0.285-0.572,0.534-0.807
		c0.429-0.408,1.133-0.781,1.731-0.816c1.238-0.07,2.25-1.052,3.47-1.293c0.475-0.095,1.01-0.049,1.466,0.116
		c0.306,0.11,0.922-0.108,1.245-0.164c-0.562,0.445-1.159,0.879-1.807,1.195c0.572-0.065,1.134-0.205,1.679-0.391
		c0.347-0.118,0.615-0.303,0.982-0.253C79.882,50.895,80.549,51.349,80.446,52.228C80.358,52.996,80.536,51.46,80.446,52.228z"/>
	<path d="M97.125,51.101c-0.105,0.767-0.422,1.529-1.17,1.83c-0.054,0.021-0.47,0.128-0.47,0.206c0,0.404,0,0.806,0,1.209
		c-0.329-0.295-0.776-0.972-1.209-1.001c-0.367-0.025-0.717-0.146-1.068,0.015c-0.438,0.199-0.81,0.51-1.273,0.66
		c-1.358,0.438-3.816-0.985-2.875-2.622c0.296,0.375,0.641,0.812,1.07,1.039c-0.18-0.425-0.343-0.876-0.399-1.335
		c-0.05-0.398,0.604-1.06,0.949-1.263c0.323-0.188,1.264-0.548,1.483-0.069c0.222,0.485,0.451,1.02,0.799,1.429
		c-0.062-0.949-0.189-2.018,0.027-2.953c0.139,0.303,0.282,0.605,0.438,0.9c0.273,0.518,0.348,0.429,0.914,0.346
		C95.512,49.321,97.386,49.329,97.125,51.101C97.067,51.518,97.187,50.683,97.125,51.101z"/>
	<path d="M74.449,68.191c-0.571-0.046-1.162-0.091-1.731-0.018c-0.28,0.085-0.426,0.367-0.773,0.386
		c-0.307,0.017-0.518,0.255-0.408,0.559c0.531,1.401-0.221,2.305-1.707,2.091c-0.199-0.029-0.792,0.424-1,0.501
		c-0.897,0.329-1.765,0.205-2.664-0.051c-0.98-0.279-2.22-0.604-3.109-1.075c0.963,0.088,1.941,0.137,2.909,0.08
		c-0.585-0.185-1.371-0.419-1.772-0.91c0.794-0.529-0.038-1.397,0.36-2.092c0.577,0.275,1.176,0.572,1.798,0.729
		c-0.398-0.342-0.817-0.744-1.049-1.222c0.514-0.026,0.912-0.304,1.275-0.647c0.209-0.198,0.42-0.396,0.666-0.547
		c0.23-0.142,0.776-0.148,0.924-0.29c0.939-0.89,1.755-0.388,2.813-0.191c-0.453-0.306-1.003-0.62-1.35-1.048
		c0.539,0.174,0.991,0.068,1.527,0.114c0.688,0.058,2.007,0.569,1.746,1.503c-0.15,0.535-0.812,1.165-0.105,1.556
		C73.302,67.899,73.89,68.053,74.449,68.191C74.28,68.177,74.231,68.137,74.449,68.191z"/>
	<path fill="#9F792C" d="M146.726,75.889c0,0.797-2.662,0.319-3.279,0.352c-1.394,0.072-2.788,0.244-4.164,0.481
		c-1.45,0.25-2.819,0.709-4.227,1.113c-1.997,0.571-4.345,1.312-5.97,2.65c-0.258-1.197-1.047-2.316-2.029-3.028
		c-1.268-0.941-2.567-0.96-4.035-1.253c1.612-0.766,3.28-1.449,5.012-1.896c1.693-0.437,3.401-0.496,5.141-0.433
		c2.793,0.101,5.583,0.468,8.328,0.979c0.37,0.07,0.567,0.237,0.778-0.08c0.39-0.583,0.676-1.241,0.864-1.916
		c0.827-2.948-0.507-5.81-2.55-7.92c1.825,1.671,3.276,3.598,4.334,5.836c0.508,1.074,0.979,2.171,1.357,3.297
		C146.477,74.638,146.726,75.282,146.726,75.889z"/>
	<path fill="#9F792C" d="M161.697,70.06c-1.819-1.607-3.987-2.64-6.051-3.872c1.601,0.263,5.506,0.955,6.496-1.026
		C162.907,66.804,162.836,68.593,161.697,70.06z"/>
	<path fill="#006576" d="M126.101,72.914c-2.739,1.688-6.13,2.884-9.227,1.538c-2.741-1.193-5.273-3.013-7.619-4.854
		c2.427-0.276,5.497-0.208,7.52,1.232c0.56,0.398,1.059,0.853,1.647,1.207c0.234,0.141,0.355,0.121,0.355,0.386
		c0,0.365,0.133,0.723,0.374,0.999c1.231,1.413,3.505-0.363,2.386-1.887C123.064,71.968,124.593,72.412,126.101,72.914z"/>
	<path fill="#FFFFFF" d="M119.846,71.605c-0.068,1.101-1.157,0.596-1.697,0.262c-1.005-0.621-1.835-1.659-3.036-1.937
		c0.896,0.169,1.793,0.351,2.675,0.573C118.304,70.633,119.896,70.765,119.846,71.605C119.818,72.045,119.873,71.16,119.846,71.605z
		"/>
	<path fill="none" d="M121.829,72.422c0,2.067-3.187,1.898-3.036-0.179c0.506,0.183,1.018-0.073,1.053-0.639
		c0.034-0.57-0.646-0.723-1.05-0.833c-1.189-0.325-2.392-0.593-3.604-0.826c-1.912-0.366-3.989-0.569-5.938-0.348
		c2.344,1.841,4.878,3.66,7.619,4.854c3.097,1.348,6.487,0.15,9.227-1.538c-1.506-0.503-3.032-0.946-4.56-1.38
		C121.729,71.791,121.829,72.104,121.829,72.422C121.829,73.261,121.829,72.089,121.829,72.422z"/>
	<path fill="#9F792C" d="M136.638,72.933c0.789-0.197,2.323-0.654,2.772-1.403c-3.2,1.18-5.986,0.213-8.656-1.668
		c-2.667-1.879-5.142-3.954-8.024-5.518c-0.715-0.388-1.443-0.749-2.187-1.079c-0.465-0.207-0.534-0.284-0.936,0.036
		c-0.15,0.12-0.382,0.264-0.43,0.446c0,1.075,0.613,2.231,1.301,3.021c1.296,1.485,3.435,2.405,5.206,3.194
		c-0.106-0.378-0.11-0.792-0.074-1.181c0.966,1.599,2.567,2.583,4.25,3.284C131.929,72.926,134.417,73.487,136.638,72.933
		C137.599,72.693,135.042,73.331,136.638,72.933z"/>
	<path fill="none" d="M121.829,72.422c0,2.067-3.187,1.898-3.036-0.179c0.506,0.183,1.018-0.073,1.053-0.639
		c0.034-0.57-0.646-0.723-1.05-0.833c-1.189-0.325-2.392-0.593-3.604-0.826c-1.912-0.366-3.989-0.569-5.938-0.348
		c2.344,1.841,4.878,3.66,7.619,4.854c3.097,1.348,6.487,0.15,9.227-1.538c-1.506-0.503-3.032-0.946-4.56-1.38
		C121.729,71.791,121.829,72.104,121.829,72.422C121.829,73.261,121.829,72.089,121.829,72.422z"/>
	<path fill="#FFFFFF" d="M117.758,76.609c-2.844-1.502-5.794-2.685-8.557-4.354c-1.286-0.777-2.55-1.609-3.782-2.468
		c-0.22-0.152-0.43-0.315-0.618-0.503c-0.19-0.2-0.763-0.145-1.018-0.151c-0.09-0.003-1.673,0.003-1.673,0.075
		c0.326,1.058,1.171,2.011,1.903,2.815c-0.562,0.04-1.141-0.066-1.685-0.208c1.502,2.016,4.132,3.431,6.448,4.263
		c2.273,0.817,4.862,1.012,7.269,0.936c-0.356,0.182-0.729,0.332-1.102,0.476c2.305-0.067,4.599,0.681,6.737,1.47
		C120.418,78.114,119.106,77.315,117.758,76.609C116.271,75.823,118.74,77.123,117.758,76.609z"/>
	<path d="M140.594,64.941c-0.377-0.392-0.777-0.759-1.19-1.11c0.768,1.406,1.243,2.966,1.255,4.573
		c0.016,2.36-1.592,3.831-3.754,4.458c-2.228,0.646-4.705,0.053-6.884-0.532c-2.355-0.631-4.59-1.622-6.824-2.581
		c-7.699-3.302-18.134-5.67-25.221,0.28c1.207-0.401,2.554-0.631,3.812-0.785c0.468-0.056,0.937-0.102,1.406-0.114
		c0.399-0.01,0.802-0.001,1.199,0.042c0.408,0.043,0.497,0.216,0.813,0.458c2.451,1.87,5.234,3.442,7.975,4.84
		c2.878,1.143,5.646,2.607,8.234,4.308c2.677,1.762,4.999,3.771,7.317,5.972c-0.099-0.089-0.139-0.52-0.189-0.654
		c-0.17-0.432-0.344-0.864-0.541-1.284c-0.438-0.936-0.968-1.829-1.547-2.683c-0.562-0.826-1.174-1.625-1.838-2.371
		c-0.388-0.437-0.982-1.429-1.591-1.551c1.611-0.765,3.279-1.449,5.011-1.896c1.693-0.438,3.401-0.496,5.142-0.433
		c2.793,0.101,5.583,0.468,8.329,0.979c0.37,0.069,0.568,0.237,0.779-0.08c0.388-0.583,0.673-1.241,0.86-1.915
		C143.973,69.912,142.636,67.052,140.594,64.941C140.238,64.572,145.833,70.357,140.594,64.941z M118.233,74.935
		c-2.032-0.523-3.916-1.777-5.642-2.929c-1.141-0.761-2.259-1.561-3.337-2.408c1.917-0.218,3.963-0.024,5.848,0.33
		c1.153,0.217,2.301,0.467,3.434,0.772c0.443,0.12,1.126,0.19,1.291,0.725c0.197,0.644-0.512,1.003-1.032,0.816
		c-0.071,0.979,0.723,1.834,1.737,1.684c1.104-0.163,1.675-1.487,1.011-2.395c1.526,0.435,3.054,0.878,4.559,1.381
		C123.906,74.268,120.844,75.609,118.233,74.935C114.926,74.083,121.537,75.787,118.233,74.935z"/>
</g>
</svg>
