<?xml version="1.0" encoding="utf-8"?>
<!-- Generator: Adobe Illustrator 16.0.0, SVG Export Plug-In . SVG Version: 6.00 Build 0)  -->
<!DOCTYPE svg PUBLIC "-//W3C//DTD SVG 1.1//EN" "http://www.w3.org/Graphics/SVG/1.1/DTD/svg11.dtd">
<svg version="1.1" id="team_logos" xmlns="http://www.w3.org/2000/svg" xmlns:xlink="http://www.w3.org/1999/xlink" x="0px" y="0px"
	 width="200px" height="200px" viewBox="0 0 200 200" enable-background="new 0 0 200 200" xml:space="preserve">
<g id="giants">
	<g>
		<path fill="#C9243F" d="M177.306,134.398l-0.063-93.318h-25.879v54.321c0,0.654-0.012,1.308-0.044,1.945
			c-0.016,0.252-0.028,0.504-0.051,0.754c-0.247,1.973-1.447,3.66-3.148,4.642c-0.989,0.566-2.142,0.898-3.377,0.898
			c-3.565,0-6.58-2.718-6.569-6.094l0.037-56.465h-35.746v21.157h6.591c1.772,0,3.208,1.438,3.208,3.212v11.751l0,0v15.428v0.005
			v14.181c0.42,6.81,4.468,13.042,9.612,15.96c5.177,4.094,17.731,5.972,24.511,3.577c0,0,3.135-0.987,4.896-2.165v1.703v3.547
			c0,1.253-0.097,2.034-0.439,3.01c-0.857,1.856-2.748,2.832-5.747,2.904l-110.574-0.003l-0.003,24.592h119.845
			c3.65-0.184,7.081-0.596,9.97-1.408c3.945-1.212,12.977-5.443,12.977-18.825C177.312,139.517,177.308,134.598,177.306,134.398z
			 M163.285,155.125c-2.535,0.712-5.688,1.08-9.041,1.255c-0.234,0-109.456,0.015-116.154,0c0-4.317,0-13.136,0-17.456
			c6.686,0,107.005,0,107.005,0c5.601-0.134,7.97-2.78,8.984-4.972l0.075-0.158l0.056-0.166c0.531-1.513,0.637-2.725,0.637-4.187
			v-11.936l-5.554,3.715c-0.964,0.646-2.954,1.405-3.984,1.729l-0.114,0.036c-5.587,1.977-16.83,0.369-21.106-3.012l-0.213-0.167
			l-0.239-0.135c-4.328-2.459-7.458-7.686-7.803-13.019c0-0.321,0-13.743,0-14.012V92.63V77.201v-0.005V65.448
			c0-3.739-3.04-6.785-6.779-6.785c0,0-1.524,0-3.023,0c0-3.929,0-10.082,0-14.014c5.141,0,23.462,0,28.611,0
			c-0.011,6.266-0.041,52.916-0.041,52.929c0,2.456,0.989,4.802,2.782,6.602c1.918,1.929,4.602,3.031,7.36,3.031
			c1.806,0,3.591-0.477,5.155-1.374c2.697-1.556,4.534-4.278,4.912-7.294l0.015-0.102l0.06-0.912c0-0.002,0.048-2.128,0.048-2.128
			s0-44.521,0-50.752c4.457,0,14.289,0,18.742,0c0.009,6.599,0.065,95.061,0.065,95.061
			C173.74,150.333,167.191,153.925,163.285,155.125z"/>
		<path fill="#003C7F" d="M123.638,119.672l0.237,0.135l0.215,0.167c4.277,3.381,15.519,4.988,21.105,3.012l0.115-0.036
			c1.03-0.323,3.021-1.083,3.984-1.729l5.554-3.717v11.938c0,1.462-0.105,2.674-0.637,4.187l-0.056,0.166l-0.075,0.158
			c-1.015,2.191-3.384,4.838-8.983,4.972c0,0-100.318,0-107.005,0c0,4.32,0,13.139,0,17.456c6.699,0.015,115.919,0,116.156,0
			c3.354-0.175,6.504-0.543,9.04-1.255c3.904-1.2,10.456-4.792,10.456-15.415c0,0-0.059-88.463-0.066-95.062
			c-4.454,0-14.286,0-18.742,0c0,6.23,0,50.751,0,50.751s-0.048,2.126-0.048,2.129l-0.061,0.911l-0.015,0.103
			c-0.378,3.017-2.215,5.739-4.911,7.295c-1.564,0.896-3.35,1.374-5.157,1.374c-2.757,0-5.44-1.104-7.358-3.032
			c-1.794-1.799-2.782-4.146-2.782-6.602c0-0.014,0.03-46.663,0.04-52.929c-5.151,0-23.472,0-28.611,0c0,3.932,0,10.085,0,14.014
			c1.499,0,3.023,0,3.023,0c3.74,0,6.779,3.046,6.779,6.784v11.748v0.005v15.427v0.011c0,0.269,0,13.691,0,14.012
			C116.179,111.986,119.308,117.213,123.638,119.672z"/>
		<path fill="#C9243F" d="M107.181,125.532H83.473c-4.692,0-8.681-2.968-10.226-7.125c-0.44-1.183-0.694-2.462-0.694-3.804V68.732
			c-0.075-3.303-2.893-5.961-6.364-5.961c-3.52,0-6.374,2.727-6.374,6.094h-0.003l-0.006,0.593v56.235H34.534V65.509
			c0-1.773-1.438-3.211-3.213-3.211h-8.631l0.007-21.217h37.098v4.038c6.03-4.612,14.908-6.254,23.155-4.174
			c5.213,1.358,9.084,3.783,12.133,8.228c1.46,2.131,2.188,4.291,2.555,5.965c0.216,0.973,0.304,1.787,0.341,2.325v18.334
			l-0.008,4.856c0,0,0.007,1.156,0.008,3.026v15.428c0,0.771-0.003,1.538-0.008,2.283c0,0.049,0.008,0.09,0.008,0.137v0.443
			c0,1.775,1.439,3.212,3.215,3.212h5.489l0.495,0.002L107.181,125.532L107.181,125.532z"/>
		<path fill="#C9243F" d="M101.194,105.181c-1.776,0-3.215-1.437-3.215-3.212v-0.443c0-0.045-0.008-0.085-0.008-0.136
			c0.005-0.746,0.008-1.513,0.008-2.282v-15.43c-0.001-1.871-0.008-3.026-0.008-3.026l0.008-4.855V57.462
			c-0.036-0.539-0.125-1.354-0.341-2.325c-0.367-1.674-1.095-3.833-2.555-5.965c-3.049-4.445-6.92-6.87-12.133-8.228
			c-8.248-2.08-17.125-0.438-23.155,4.174v-4.038H22.696l-0.007,21.217h8.631c1.775,0,3.213,1.438,3.213,3.211v60.185h25.272V69.458
			l0.006-0.593h0.003c0-3.367,2.853-6.094,6.374-6.094c3.471,0,6.289,2.658,6.364,5.961v45.874c0,1.342,0.253,2.619,0.694,3.803
			c1.545,4.156,5.534,7.126,10.226,7.126h23.708v-20.351l-0.496-0.003H101.194z M103.611,121.964c-5.151,0-20.139,0-20.139,0
			c-3.05,0-5.816-1.932-6.882-4.801c-0.312-0.834-0.469-1.699-0.469-2.56V68.732c-0.117-5.287-4.577-9.533-9.934-9.533
			c-5.482,0-9.941,4.334-9.944,9.667c-0.004-0.022-0.007,0.571-0.007,0.571s0,46.423,0,52.685c-4.399,0-13.735,0-18.135,0
			c0-6.318,0-56.612,0-56.612c0-3.741-3.042-6.784-6.782-6.784c0,0-2.605,0-5.06,0c0-3.941,0.003-10.137,0.003-14.076
			c5.209,0,24.752,0,29.963,0c0,0.1,0,7.693,0,7.693l5.737-4.39c5.231-3.998,12.937-5.359,20.112-3.547
			c4.61,1.203,7.626,3.234,10.062,6.79c0.962,1.396,1.638,2.979,2.018,4.703c0,0,0.231,1.59,0.258,1.752c0,0.363,0,18.146,0,18.146
			l-0.006,4.85c0,0.02,0.006,3.037,0.006,3.037v15.424l-0.006,2.355c0,0,0.002,0.075,0.006,0.15c0,0.036,0,0.354,0,0.354
			c0,3.739,3.04,6.782,6.782,6.782c0,0,1.224,0,2.417,0C103.611,112.571,103.611,118.142,103.611,121.964z"/>
		<path fill="#003C7F" d="M94.413,101.969c0,0,0-0.319,0-0.355c-0.002-0.077-0.005-0.152-0.005-0.152l0.005-2.354V83.683
			c0,0-0.005-3.018-0.005-3.037l0.005-4.85c0,0,0-17.784,0-18.146c-0.026-0.161-0.257-1.751-0.257-1.751
			c-0.38-1.724-1.056-3.306-2.018-4.703c-2.436-3.556-5.453-5.587-10.062-6.79c-7.175-1.812-14.881-0.451-20.111,3.548l-5.737,4.39
			c0,0,0-7.594,0-7.694c-5.209,0-24.752,0-29.963,0c0,3.938-0.003,10.135-0.003,14.077c2.454,0,5.06,0,5.06,0
			c3.74,0,6.782,3.042,6.782,6.784c0,0,0,50.293,0,56.612c4.399,0,13.735,0,18.135,0c0-6.263,0-52.685,0-52.685
			s0.003-0.594,0.007-0.571c0.003-5.332,4.463-9.666,9.944-9.666c5.358,0,9.817,4.246,9.935,9.532v45.875
			c0,0.857,0.157,1.724,0.469,2.557c1.065,2.869,3.832,4.801,6.881,4.801c0,0,14.989,0,20.138,0c0-3.822,0-9.391,0-13.213
			c-1.191,0-2.416,0-2.416,0C97.453,108.75,94.413,105.707,94.413,101.969z"/>
	</g>
</g>
</svg>
