<?xml version="1.0" encoding="utf-8"?>
<!-- Generator: Adobe Illustrator 16.0.0, SVG Export Plug-In . SVG Version: 6.00 Build 0)  -->
<!DOCTYPE svg PUBLIC "-//W3C//DTD SVG 1.1//EN" "http://www.w3.org/Graphics/SVG/1.1/DTD/svg11.dtd">
<svg version="1.1" id="team_logos" xmlns="http://www.w3.org/2000/svg" xmlns:xlink="http://www.w3.org/1999/xlink" x="0px" y="0px"
	 width="200px" height="200px" viewBox="0 0 200 200" enable-background="new 0 0 200 200" xml:space="preserve">
<g id="steelers_1_">
	<g>
		<g>
			<g>
				<g>
					<g>
						<g>
							<path d="M27.059,100c0,40.221,32.722,72.941,72.941,72.941c40.222,0,72.941-32.721,72.941-72.941
								c0-40.222-32.72-72.941-72.941-72.941C59.78,27.059,27.059,59.778,27.059,100z"/>
							<circle fill="#B1BABF" cx="100" cy="100" r="71.342"/>
						</g>
						<g>
							<path fill="#FFFFFF" d="M100,159.686c32.87,0,59.514-26.643,59.514-59.51c0-32.869-26.644-59.516-59.514-59.516
								c-32.867,0-59.514,26.646-59.514,59.516C40.486,133.039,67.131,159.686,100,159.686z"/>
						</g>
						<g>
							<path fill="#FFC20E" d="M100.31,100.254c0.688-24.377,23.712-30.099,29.5-29.572c-14.263-0.776-28.338-6.803-29.426-29.354
								C98.667,62.299,90.25,68.262,70.859,70.752C84.71,71.453,98.73,76.936,100.31,100.254"/>
						</g>
						<g>
							<path fill="#DA2128" d="M129.889,130.426c0.689-24.379,23.311-30.391,29.097-29.865c-14.31-0.529-28.09-7.33-29.176-29.879
								c-1.72,20.973-10.107,27.084-29.5,29.572C114.16,100.957,128.312,107.107,129.889,130.426"/>
						</g>
						<g>
							<path fill="#00539B" d="M100.667,159.441c0.685-24.383,23.436-29.541,29.222-29.018c-14.261-0.775-28.492-7.613-29.579-30.17
								c-1.719,20.975-9.884,27.273-29.276,29.76C84.885,130.721,99.09,136.121,100.667,159.441"/>
						</g>
					</g>
				</g>
			</g>
		</g>
		<g>
			<path d="M83.729,95.045v8.924h2.367v-5.172c0.027-0.537-0.106-1.24,1.893-1.1V94.98H87.41c-0.789,0.177-0.999,0.546-1.35,1.16
				l-0.008-1.121L83.729,95.045z"/>
			<path d="M94.196,97.955c-0.018-0.807-0.165-1.645-0.615-2.101c-0.805-0.813-2.312-1.233-3.524-0.644
				c-0.365,0.176-0.631,0.138-1.238,0.892c-0.288,0.354-0.372,0.884-0.399,1.343c-0.056,0.967,0.263,2.242,1.58,2.576
				c0.736,0.188,1.576,0.281,1.966,0.875c0.216,0.324,0.153,0.459,0.058,0.705c-0.141,0.354-0.921,0.346-1.234,0.223
				c-0.311-0.115-0.505-0.48-0.464-0.793l-2.004,0.014c0.039,0.775,0.043,1.244,0.34,1.818c0.285,0.553,0.861,0.959,1.39,1.117
				c1.075,0.328,2.261,0.27,3.139-0.271c0.16-0.1,0.612-0.51,0.795-0.838c0.302-0.553,0.481-1.256,0.211-2.184
				c-0.129-0.443-0.143-0.496-0.223-0.652c-0.478-0.91-1.09-1.088-1.725-1.301c0.02,0-0.592-0.143-0.569-0.143
				c-1.12-0.125-1.188-0.76-1.041-1.189c0.123-0.354,0.407-0.473,0.774-0.473c0.312,0.002,0.617,0.221,0.675,0.451
				c0.04,0.163,0.034,0.354,0.034,0.567L94.196,97.955z"/>
			<path d="M55.736,95.096c0.034-1.131-0.209-1.77-0.453-2.195c-0.923-1.632-3.019-2.062-4.734-1.307
				c-0.645,0.281-1.091,0.793-1.406,1.354c-0.317,0.568-0.492,1.02-0.532,1.668c-0.081,1.367,0.603,2.809,1.892,3.613
				c0.902,0.564,1.562,0.639,2.33,1.375c0.406,0.389,0.375,1.395,0.24,1.625c-0.371,0.66-1.34,0.416-1.577,0.166
				c-0.239-0.25-0.345-1.152-0.296-1.512l-2.555,0.016c-0.098,1.125-0.021,1.818,0.32,2.58c0.347,0.779,0.83,1.07,1.461,1.371
				c1.368,0.65,3.214,0.596,4.546-0.648c0.326-0.303,0.444-0.658,0.444-0.658c0.31-0.754,0.655-1.605,0.414-2.98
				c-0.111-0.645-0.391-1.17-0.533-1.371c-0.475-0.671-0.825-0.975-2.095-1.594c0.03,0-0.399-0.182-0.368-0.182
				c-1.342-0.43-1.874-1.249-1.459-2.121c0.231-0.488,1.1-0.681,1.484-0.33c0.259,0.236,0.317,0.746,0.338,1.137l0.896-0.006H55.736
				z"/>
			<path d="M57.041,95.051l-0.947,0.027l0.01,2.062l0.893-0.029l0.019,4.736c0.009,2.516,2.164,2.129,3.305,2.156l0.001-2.676
				c-0.965,0.016-0.877-0.176-0.877-0.656v-3.515l0.92,0.015l-0.01-2.111l-0.911,0.02l-0.009-2.166l0,0l-2.394,1.312L57.041,95.051
				L57.041,95.051z"/>
			<polygon points="73.944,91.468 73.944,104.047 76.354,104.047 76.354,91.475 			"/>
			<g>
				<g>
					<g>
						<g>
							<g>
								<g>
									<path d="M79.037,101.443c0.005,0.803,1.754,0.965,1.797-0.045v-0.254l1.969-0.01l0.003,1.051
										c0.019,0.699-0.271,1.457-1.452,1.865c-1.254,0.393-2.037,0.156-2.77,0c-0.965-0.352-1.432-1.119-1.477-2.199v-4.354
										c-0.043-0.818,0.412-1.529,1.201-2.049c1.344-0.586,2.08-0.43,3.089-0.08c0.966,0.526,1.398,1.176,1.409,2.083v2.763
										h-3.777L79.037,101.443z M79.125,98.352l1.78,0.006C81.273,96.798,78.826,96.596,79.125,98.352z"/>
								</g>
							</g>
						</g>
					</g>
				</g>
			</g>
			<g>
				<g>
					<g>
						<g>
							<g>
								<g>
									<path d="M69.449,101.443c0.003,0.803,1.754,0.965,1.798-0.045v-0.254l1.967-0.01l0.005,1.051
										c0.018,0.699-0.272,1.457-1.453,1.865c-1.255,0.393-2.036,0.156-2.77,0c-0.963-0.352-1.431-1.119-1.476-2.199v-4.354
										c-0.044-0.818,0.412-1.529,1.2-2.049c1.345-0.586,2.082-0.43,3.09-0.08c0.965,0.526,1.396,1.176,1.408,2.083v2.763h-3.767
										L69.449,101.443z M69.535,98.352l1.781,0.006C71.686,96.798,69.238,96.596,69.535,98.352z"/>
								</g>
							</g>
						</g>
					</g>
				</g>
			</g>
			<g>
				<g>
					<g>
						<g>
							<g>
								<g>
									<path d="M62.919,101.443c0.005,0.803,1.753,0.965,1.797-0.045v-0.254l1.967-0.01l0.005,1.051
										c0.018,0.699-0.272,1.457-1.453,1.865c-1.254,0.393-2.038,0.156-2.77,0c-0.965-0.352-1.432-1.119-1.476-2.199v-4.354
										c-0.044-0.818,0.412-1.529,1.2-2.049c1.346-0.586,2.081-0.43,3.091-0.08c0.964,0.526,1.397,1.176,1.409,2.083v2.763h-3.768
										L62.919,101.443z M63.005,98.352l1.782,0.006C65.154,96.798,62.707,96.596,63.005,98.352z"/>
								</g>
							</g>
						</g>
					</g>
				</g>
			</g>
		</g>
	</g>
</g>
</svg>
