<?xml version="1.0" encoding="utf-8"?>
<!-- Generator: Adobe Illustrator 16.0.3, SVG Export Plug-In . SVG Version: 6.00 Build 0)  -->
<!DOCTYPE svg PUBLIC "-//W3C//DTD SVG 1.1//EN" "http://www.w3.org/Graphics/SVG/1.1/DTD/svg11.dtd">
<svg version="1.1" id="team_logos" xmlns="http://www.w3.org/2000/svg" xmlns:xlink="http://www.w3.org/1999/xlink" x="0px" y="0px"
	 width="200px" height="200px" viewBox="0 0 200 200" enable-background="new 0 0 200 200" xml:space="preserve">
<g id="_x34_9ers">
	<g>
		<path fill="#FFFFFF" d="M100.512,157.16c32.73,0,64.979-11.1,82.157-28.278C191.391,120.159,196,110.083,196,99.743
			c0-10.266-4.548-20.241-13.154-28.846c-17.044-17.044-49.361-28.057-82.334-28.057c-23.087,0-46.646,5.435-64.639,14.91
			C15.319,68.574,4,83.488,4,99.743c0,10.192,4.566,20.147,13.207,28.784c8.635,8.637,21.184,15.902,36.287,21.011
			C68.237,154.523,84.496,157.16,100.512,157.16z"/>
		<path d="M37.299,60.457c-19.5,10.27-30.24,24.222-30.24,39.286c0,9.364,4.257,18.569,12.312,26.625
			c8.304,8.303,20.442,15.312,35.104,20.272c14.432,4.879,30.351,7.461,46.037,7.461c31.961,0,63.358-10.75,79.993-27.384
			c8.138-8.134,12.437-17.462,12.437-26.976c0-9.438-4.237-18.664-12.26-26.685C164.184,56.56,132.715,45.9,100.512,45.9
			C77.906,45.9,54.865,51.205,37.299,60.457z"/>
		<path fill="#C6A876" d="M100.456,148.68c28.215,0,54.948-9.207,69.769-24.027c7.476-7.478,11.428-16.012,11.428-24.685
			c0-8.667-3.952-17.204-11.428-24.68c-14.82-14.82-41.554-24.027-69.769-24.027c-20.716,0-41.338,5.116-56.579,14.033
			C28,74.583,19.258,86.898,19.258,99.968c0,8.673,3.953,17.207,11.43,24.685C45.508,139.473,72.242,148.68,100.456,148.68z"/>
		<path fill="#C9243F" d="M100.604,146.95c41.354,0,74.879-21.427,74.879-47.24c0-25.817-33.525-46.744-74.879-46.744
			c-41.356,0-74.88,20.927-74.88,46.744C25.723,125.523,59.247,146.95,100.604,146.95z"/>
		<path d="M159.171,93.837h-0.205v-1.705h-1.5h-28.208c-0.64-3.342-2.562-6.443-5.305-8.865c-2.703-3.107-6.63-5.443-11.1-6.33
			L111,76.556c-4.288-0.902-7.673-1.616-21.3-1.546c0-0.001-2.62-0.09-5.164-0.426c-0.646-0.164-1.21-0.359-1.694-0.569
			c0.188-1.134,2.263-2.697,4.602-2.999c0.243-0.044,14.992-2.758,30.167,7.073l0.373,0.241h9.976V63.064h-1.705v-1.706h-13.69
			c0,0-1.625,1.242-2.307,1.763c-3.941-0.987-23.246-5.211-39.916,2.086c-7.006,2.896-11.353,8.359-11.045,13.908
			c0.156,2.798,1.496,5.238,3.812,7.131c1.702,2.125,4.381,3.782,7.868,4.788c4.935,1.422,9.115,2.008,13.167,2.239v0.491v6.47
			h1.706v1.706h5.206c2.156,0,2.709,1.193,2.842,1.64c-6.643-0.435-16.745-2.325-24.182-9.208l-0.279-0.301h-0.053
			c-0.41-0.392-0.814-0.798-1.207-1.223l-0.446-0.481h-7.488v21.729h1.707v1.703h6.106c0.896,0.063,3.73-0.252,5.689-5.974
			c3.177,1.107,11.003,3.464,20.641,3.726c0,3.446,0,13.38,0,13.519c-0.336,4.541-10.336,5.961-13.819,6.1l-1.44,0.057v6.721h1.706
			v1.701h43.903v-6.431l-1.118-0.296c-0.202-0.051-0.394-0.104-0.589-0.156v-1.473l-1.368-0.117
			c-2.47-0.219-4.369-0.646-5.843-1.172c-2.76-1.548-3.231-2.803-3.291-3.005c0-0.128,0-5.165,0-7.208c2.382,0,12.584,0,12.869,0
			c1.358,0.205,2.521,0.801,3.508,1.574c1.854,2.281,2.699,4.891,2.712,4.935l0.327,1.056l1.105,0.004h0.035
			c0.154,0.388,0.234,0.634,0.236,0.646l0.328,1.057l1.105,0.004h5.809v-26.147h-1.5h-0.205v-1.707h-1.502h-5.379l-0.25,1.194
			c-1.804,8.689-11.851,8.562-20.781,7.261c1.75-0.476,3.509-1.054,5.264-1.75c4.783-1.901,8.371-4.487,10.609-7.517h19.283
			c1.346,0.045,2.487,0.381,3.448,1.011c2.021,2.965,1.82,7.332,1.817,7.383l-0.085,1.582h1.584h0.212
			c-0.001,0.069-0.004,0.117-0.005,0.121l-0.085,1.582l1.585,0.003h6.099V93.837H159.171z"/>
		<path fill="#FFFFFF" d="M128.414,99.191h15.98c9.129,0.292,8.472,11.68,8.472,11.68h4.6V93.632h-27.583
			C129.883,93.632,129.816,97.491,128.414,99.191z"/>
		<path fill="#FFFFFF" d="M95.884,113.914v13.238c-0.473,6.938-15.258,7.515-15.258,7.515v3.774h40.901v-3.774
			c-12.153-1.054-12.207-7.249-12.207-7.249v-8.837h14.527c6.646,0.949,9.199,9.274,9.199,9.274h4.309V104.71h-4.16
			c-2.895,13.942-24.26,7.669-25.842,8.021C107.354,112.729,102.092,114.044,95.884,113.914z"/>
		<path fill="#FFFFFF" d="M108.646,91.14c5.553,1.627,6.068,5.865,2.817,9.833c-4.159,3.926-10.513,4.088-10.513,4.088
			s-21.392,2.312-33.877-11.193h-5.33v18.728h4.672c0,0,2.847,0.438,4.673-6.426c0,0,21.967,8.94,42.86,0.646
			c20.234-8.039,12.533-25.643-1.389-28.402c-5.355-1.062-7.486-1.979-22.854-1.898c0,0-2.774-0.088-5.475-0.453
			c-8.471-2.117-3.652-7.594,1.314-8.237c0,0,15.261-3.008,31.177,7.302h8.031V62.858H113.07l-2.481,1.898
			c0,0-21.66-6.049-39.647,1.826c-12.088,4.996-14.457,17.499-1.255,21.305c11.629,3.352,19.042,1.948,30.825,2.397
			C103.805,90.41,106.666,90.54,108.646,91.14z"/>
		<path fill="#FFFFFF" d="M91.193,98.734h-5.549c0-0.832,0-0.116,0-4.97c4.301,0,13.075,0.033,19.284,0
			c6.245,0,7.077,3.609,4.446,6.052c-2.481,2.302-7.677,3.941-13.831,2.821C95.543,102.639,95.037,98.734,91.193,98.734z"/>
	</g>
</g>
</svg>
