<?xml version="1.0" encoding="UTF-8" standalone="no"?>
<!-- Created with Inkscape (http://www.inkscape.org/) -->

<svg
   xmlns:dc="http://purl.org/dc/elements/1.1/"
   xmlns:cc="http://creativecommons.org/ns#"
   xmlns:rdf="http://www.w3.org/1999/02/22-rdf-syntax-ns#"
   xmlns:svg="http://www.w3.org/2000/svg"
   xmlns="http://www.w3.org/2000/svg"
   xmlns:xlink="http://www.w3.org/1999/xlink"
   xmlns:sodipodi="http://sodipodi.sourceforge.net/DTD/sodipodi-0.dtd"
   xmlns:inkscape="http://www.inkscape.org/namespaces/inkscape"
   width="534"
   height="738"
   id="svg2"
   sodipodi:version="0.32"
   inkscape:version="0.48.0 r9654"
   sodipodi:docname="ZAM-CIV-2012-02-12"
   version="1.0">
  <defs
     id="defs4">
    <linearGradient
       id="linearGradient3076">
      <stop
         style="stop-color:#ff0a0a;stop-opacity:1;"
         offset="0"
         id="stop3078" />
      <stop
         id="stop3084"
         offset="0.33000001"
         style="stop-color:#ff0a0a;stop-opacity:1;" />
      <stop
         style="stop-color:#ffffff;stop-opacity:1;"
         offset="0.33000001"
         id="stop3086" />
      <stop
         id="stop3088"
         offset="0.66000003"
         style="stop-color:#ffffff;stop-opacity:1;" />
      <stop
         style="stop-color:#ffff00;stop-opacity:1;"
         offset="0.66000003"
         id="stop3090" />
      <stop
         style="stop-color:#ffff00;stop-opacity:1;"
         offset="1"
         id="stop3080" />
    </linearGradient>
    <linearGradient
       inkscape:collect="always"
       xlink:href="#linearGradient3076"
       id="linearGradient3136"
       gradientUnits="userSpaceOnUse"
       x1="24.566006"
       y1="168.72964"
       x2="42.667271"
       y2="168.72964"
       gradientTransform="translate(0,1.131285)" />
  </defs>
  <sodipodi:namedview
     id="base"
     pagecolor="#ffffff"
     bordercolor="#666666"
     borderopacity="1.0"
     inkscape:pageopacity="0.0"
     inkscape:pageshadow="2"
     inkscape:zoom="0.70710685"
     inkscape:cx="79.639111"
     inkscape:cy="404.14125"
     inkscape:document-units="px"
     inkscape:current-layer="layer2"
     inkscape:window-width="1024"
     inkscape:window-height="712"
     inkscape:window-x="-4"
     inkscape:window-y="-4"
     inkscape:guide-points="true"
     showgrid="true"
     inkscape:window-maximized="0" />
  <metadata
     id="metadata7">
    <rdf:RDF>
      <cc:Work
         rdf:about="">
        <dc:format>image/svg+xml</dc:format>
        <dc:type
           rdf:resource="http://purl.org/dc/dcmitype/StillImage" />
        <dc:title></dc:title>
      </cc:Work>
    </rdf:RDF>
  </metadata>
  <g
     inkscape:label="Layer 1"
     inkscape:groupmode="layer"
     id="layer1"
     style="fill-opacity:0.5"
     sodipodi:insensitive="true">
    <rect
       style="fill:#009d00;fill-rule:evenodd;stroke:none;stroke-width:2.5;stroke-linecap:butt;stroke-linejoin:round;stroke-miterlimit:4;stroke-dasharray:none;stroke-dashoffset:0;stroke-opacity:1"
       id="rect1317"
       width="737.99988"
       height="533.99994"
       x="-738"
       y="3.509668e-005"
       rx="2.5634737"
       ry="2.5538738"
       transform="matrix(0,-1,1,0,0,0)" />
    <g
       id="g4041"
       style="stroke:#ffffff;stroke-width:1.5;stroke-miterlimit:4;stroke-dasharray:none;stroke-opacity:0.62921352"
       transform="matrix(0,-1.509164,1.506335,0,-115.6011,876.1191)">
      <path
         id="path2194"
         d="M 118.19246,416.99231 L 118.19246,90.425866 L 552.70347,91.109059 L 553.38666,416.99231 L 118.19246,416.99231 z "
         style="fill:none;fill-opacity:0.75;fill-rule:evenodd;stroke:#ffffff;stroke-width:1.5;stroke-linecap:butt;stroke-linejoin:miter;stroke-miterlimit:4;stroke-dasharray:none;stroke-opacity:0.62921352" />
      <path
         transform="matrix(0.952617,0,0,0.916433,15.58528,21.60032)"
         d="m 370.97403,254.39229 c 0,19.6205 -15.59968,35.52606 -34.84287,35.52606 -19.24318,0 -34.84286,-15.90556 -34.84286,-35.52606 0,-19.6205 15.59968,-35.52606 34.84286,-35.52606 19.24319,0 34.84287,15.90556 34.84287,35.52606 z"
         sodipodi:ry="35.526058"
         sodipodi:rx="34.842865"
         sodipodi:cy="254.39229"
         sodipodi:cx="336.13116"
         id="path2212"
         style="fill:none;fill-opacity:1;fill-rule:evenodd;stroke:#ffffff;stroke-width:1.60539436;stroke-linecap:butt;stroke-linejoin:round;stroke-miterlimit:4;stroke-dasharray:none;stroke-dashoffset:0;stroke-opacity:0.62921352"
         sodipodi:type="arc" />
      <path
         sodipodi:nodetypes="ccccc"
         id="path2196"
         d="M 117.96294,327.15238 L 178.441,327.15238 L 178.441,181.63218 L 118.31998,181.63218 L 118.31998,181.63218"
         style="fill:none;fill-opacity:0.75;fill-rule:evenodd;stroke:#ffffff;stroke-width:1.5;stroke-linecap:butt;stroke-linejoin:miter;stroke-miterlimit:4;stroke-dasharray:none;stroke-opacity:0.62921352" />
      <path
         sodipodi:nodetypes="cccc"
         id="path2198"
         d="M 118.4324,219.89101 L 139.49897,219.89101 L 138.81578,286.84397 L 117.63679,286.84396"
         style="fill:none;fill-opacity:0.75;fill-rule:evenodd;stroke:#ffffff;stroke-width:1.5;stroke-linecap:butt;stroke-linejoin:miter;stroke-miterlimit:4;stroke-dasharray:none;stroke-opacity:0.62921352" />
      <path
         sodipodi:nodetypes="cccc"
         id="path2200"
         d="M 118.31998,240.38682 L 107.38888,240.38682 L 107.38888,267.03136 L 118.31998,267.03135"
         style="fill:none;fill-opacity:0.75;fill-rule:evenodd;stroke:#ffffff;stroke-width:1.5;stroke-linecap:butt;stroke-linejoin:miter;stroke-miterlimit:4;stroke-dasharray:none;stroke-opacity:0.62921352" />
      <path
         sodipodi:nodetypes="cc"
         id="path2206"
         d="M 178.32858,279.68588 C 197.458,268.58399 196.69325,238.58186 178.24704,227.65076"
         style="fill:none;fill-opacity:0.75;fill-rule:evenodd;stroke:#ffffff;stroke-width:1.5;stroke-linecap:butt;stroke-linejoin:miter;stroke-miterlimit:4;stroke-dasharray:none;stroke-opacity:0.62921352" />
      <path
         sodipodi:nodetypes="cccc"
         id="path3091"
         d="M 553.15787,327.23393 L 493.82135,327.15239 L 493.82135,181.63219 L 552.88237,181.63219"
         style="fill:none;fill-opacity:0.75;fill-rule:evenodd;stroke:#ffffff;stroke-width:1.5;stroke-linecap:butt;stroke-linejoin:miter;stroke-miterlimit:4;stroke-dasharray:none;stroke-opacity:0.62921352" />
      <path
         sodipodi:nodetypes="cccc"
         id="path3093"
         d="M 553.25918,219.89102 L 532.76338,219.89102 L 533.44657,286.84398 L 553.15787,286.84397"
         style="fill:none;fill-opacity:0.75;fill-rule:evenodd;stroke:#ffffff;stroke-width:1.5;stroke-linecap:butt;stroke-linejoin:miter;stroke-miterlimit:4;stroke-dasharray:none;stroke-opacity:0.62921352" />
      <path
         sodipodi:nodetypes="cccc"
         id="path3095"
         d="M 552.96391,240.38683 L 564.87347,240.38683 L 564.87347,267.03137 L 553.20852,267.03136"
         style="fill:none;fill-opacity:0.75;fill-rule:evenodd;stroke:#ffffff;stroke-width:1.5;stroke-linecap:butt;stroke-linejoin:miter;stroke-miterlimit:4;stroke-dasharray:none;stroke-opacity:0.62921352" />
      <path
         sodipodi:nodetypes="cc"
         id="path3097"
         d="M 493.68916,279.68589 C 474.55974,268.584 475.32448,238.98956 493.77069,228.05846"
         style="fill:none;fill-opacity:0.75;fill-rule:evenodd;stroke:#ffffff;stroke-width:1.5;stroke-linecap:butt;stroke-linejoin:miter;stroke-miterlimit:4;stroke-dasharray:none;stroke-opacity:0.62921352" />
      <path
         id="path3107"
         d="M 336.13116,90.425866 L 336.13116,416.30912 L 336.13116,416.30912"
         style="fill:none;fill-opacity:0.75;fill-rule:evenodd;stroke:#ffffff;stroke-width:1.5;stroke-linecap:butt;stroke-linejoin:miter;stroke-miterlimit:4;stroke-dasharray:none;stroke-opacity:0.62921352" />
      <path
         sodipodi:nodetypes="cs"
         id="path3117"
         d="M 118.34857,95.731078 C 118.34857,95.731078 122.38844,94.767442 123.38913,90.542267"
         style="fill:none;fill-opacity:0.75;fill-rule:evenodd;stroke:#ffffff;stroke-width:1.5;stroke-linecap:butt;stroke-linejoin:miter;stroke-miterlimit:4;stroke-dasharray:none;stroke-opacity:0.62921352" />
      <path
         sodipodi:nodetypes="cs"
         id="path3120"
         d="M 123.06916,417.24402 C 123.06916,417.24402 122.10552,413.20416 117.88035,412.20346"
         style="fill:none;fill-opacity:0.75;fill-rule:evenodd;stroke:#ffffff;stroke-width:1.5;stroke-linecap:butt;stroke-linejoin:miter;stroke-miterlimit:4;stroke-dasharray:none;stroke-opacity:0.62921352" />
      <path
         sodipodi:nodetypes="cs"
         id="path3122"
         d="M 553.14946,411.81092 C 553.14946,411.81092 549.10959,412.77456 548.1089,416.99973"
         style="fill:none;fill-opacity:0.75;fill-rule:evenodd;stroke:#ffffff;stroke-width:1.5;stroke-linecap:butt;stroke-linejoin:miter;stroke-miterlimit:4;stroke-dasharray:none;stroke-opacity:0.62921352" />
      <path
         sodipodi:nodetypes="cs"
         id="path3124"
         d="M 547.05631,91.357379 C 547.05631,91.357379 548.01995,95.397249 552.24513,96.397939"
         style="fill:none;fill-opacity:0.75;fill-rule:evenodd;stroke:#ffffff;stroke-width:1.5;stroke-linecap:butt;stroke-linejoin:miter;stroke-miterlimit:4;stroke-dasharray:none;stroke-opacity:0.62921352" />
      <path
         d="m 514.91535,253.57072 c 0,0.74304 -0.47458,1.34539 -1.06,1.34539 -0.58543,0 -1.06,-0.60235 -1.06,-1.34539 0,-0.74303 0.47457,-1.34538 1.06,-1.34538 0.58542,0 1.06,0.60235 1.06,1.34538 z"
         sodipodi:ry="1.3453845"
         sodipodi:rx="1.0599999"
         sodipodi:cy="253.57072"
         sodipodi:cx="513.85535"
         id="path3126"
         style="fill:none;fill-opacity:1;fill-rule:evenodd;stroke:#ffffff;stroke-width:1.5;stroke-linecap:butt;stroke-linejoin:round;stroke-miterlimit:4;stroke-dasharray:none;stroke-dashoffset:0;stroke-opacity:0.62921352"
         sodipodi:type="arc" />
      <path
         d="m 159.65229,253.44841 c 0,0.72052 -0.65711,1.30462 -1.46769,1.30462 -0.81058,0 -1.46769,-0.5841 -1.46769,-1.30462 0,-0.72052 0.65711,-1.30462 1.46769,-1.30462 0.81058,0 1.46769,0.5841 1.46769,1.30462 z"
         sodipodi:ry="1.3046153"
         sodipodi:rx="1.4676921"
         sodipodi:cy="253.44841"
         sodipodi:cx="158.1846"
         id="path3128"
         style="fill:none;fill-opacity:1;fill-rule:evenodd;stroke:#ffffff;stroke-width:1.5;stroke-linecap:butt;stroke-linejoin:round;stroke-miterlimit:4;stroke-dasharray:none;stroke-dashoffset:0;stroke-opacity:0.62921352"
         sodipodi:type="arc" />
      <path
         transform="translate(-0.683193,0)"
         d="m 337.49755,253.02589 c 0,0.75464 -0.61175,1.36639 -1.36639,1.36639 -0.75463,0 -1.36638,-0.61175 -1.36638,-1.36639 0,-0.75463 0.61175,-1.36638 1.36638,-1.36638 0.75464,0 1.36639,0.61175 1.36639,1.36638 z"
         sodipodi:ry="1.3663868"
         sodipodi:rx="1.3663868"
         sodipodi:cy="253.02589"
         sodipodi:cx="336.13116"
         id="path3130"
         style="fill:none;fill-opacity:1;fill-rule:evenodd;stroke:#ffffff;stroke-width:1.5;stroke-linecap:butt;stroke-linejoin:round;stroke-miterlimit:4;stroke-dasharray:none;stroke-dashoffset:0;stroke-opacity:0.62921352"
         sodipodi:type="arc" />
    </g>
  </g>
  <g
     inkscape:groupmode="layer"
     id="layer2"
     inkscape:label="Players"
     transform="matrix(0,-1,1,0,-75.24466,404.0203)">
    <g
       id="g1457"
       style="fill:#ffff00;fill-opacity:1">
      <path
         sodipodi:nodetypes="cccccccccccccc"
         id="path1471"
         d="M -267.79597,322.90416 L -262.14564,331.15611 L -262.14564,334.17187 L -268.00086,339.99463 L -262.14564,345.77053 L -262.14564,348.78628 L -267.99479,357.25352 L -273.56484,354.6025 L -270.84464,348.78628 L -291.10937,348.72001 L -291.04309,331.22239 L -270.84464,331.22239 L -273.46275,325.55519 L -267.79597,322.90416 z "
         style="fill:#ffff00;fill-opacity:1;fill-rule:evenodd;stroke:#000000;stroke-width:0.57993298999999998px;stroke-linecap:butt;stroke-linejoin:miter;stroke-opacity:1" />
      <path
         id="path1485"
         d="M -262.14564,334.17187 C -263.30551,339.9712 -263.30551,339.9712 -263.30551,339.9712 L -262.14564,345.77053"
         style="fill:#ffff00;fill-opacity:1;fill-rule:evenodd;stroke:#000000;stroke-width:0.57993298999999998px;stroke-linecap:butt;stroke-linejoin:miter;stroke-opacity:1" />
    </g>
    <text
       xml:space="preserve"
       style="font-size:16px;font-style:normal;font-variant:normal;font-weight:normal;font-stretch:normal;text-align:center;line-height:100%;writing-mode:lr-tb;text-anchor:middle;fill:#000000;fill-opacity:1;stroke:none;font-family:Verdana"
       x="339.31888"
       y="308.61642"
       id="text6173"
       sodipodi:linespacing="100%"
       transform="matrix(0,1,-1,0,0,0)"><tspan
         sodipodi:role="line"
         x="339.31888"
         y="308.61642"
         id="tspan4157">Mweene</tspan></text>
    <text
       xml:space="preserve"
       style="font-size:16px;font-style:normal;font-variant:normal;font-weight:normal;font-stretch:normal;text-align:center;line-height:100%;writing-mode:lr-tb;text-anchor:middle;fill:#000000;fill-opacity:1;stroke:none;font-family:Verdana"
       x="150.7388"
       y="211.64647"
       id="text6181"
       sodipodi:linespacing="100%"
       transform="matrix(0,1,-1,0,0,0)"><tspan
         sodipodi:role="line"
         x="150.7388"
         y="211.64647"
         id="tspan4225">Musonda</tspan></text>
    <text
       xml:space="preserve"
       style="font-size:16px;font-style:normal;font-variant:normal;font-weight:normal;font-stretch:normal;text-align:center;line-height:100%;writing-mode:lr-tb;text-anchor:middle;fill:#000000;fill-opacity:1;stroke:none;font-family:Verdana"
       x="533.86578"
       y="213.61642"
       id="text6191"
       sodipodi:linespacing="100%"
       transform="matrix(0,1,-1,0,0,0)"><tspan
         sodipodi:role="line"
         x="533.86578"
         y="213.61642"
         id="tspan4165">Nkausu</tspan></text>
    <text
       xml:space="preserve"
       style="font-size:16px;font-style:normal;font-variant:normal;font-weight:normal;font-stretch:normal;text-align:center;line-height:100%;writing-mode:lr-tb;text-anchor:middle;fill:#000000;fill-opacity:1;stroke:none;font-family:Verdana"
       x="543.95099"
       y="116.61642"
       id="text6195"
       sodipodi:linespacing="100%"
       transform="matrix(0,1,-1,0,0,0)"><tspan
         sodipodi:role="line"
         x="543.95099"
         y="116.61642"
         id="tspan4175">Lungu</tspan></text>
    <text
       xml:space="preserve"
       style="font-size:16px;font-style:normal;font-variant:normal;font-weight:normal;font-stretch:normal;text-align:center;line-height:100%;writing-mode:lr-tb;text-anchor:middle;fill:#000000;fill-opacity:1;stroke:none;font-family:Verdana"
       x="392.74146"
       y="30.273273"
       id="text6199"
       sodipodi:linespacing="100%"
       transform="matrix(0,1,-1,0,0,0)"><tspan
         sodipodi:role="line"
         x="392.74146"
         y="30.273273"
         id="tspan4153">Katongo</tspan></text>
    <text
       xml:space="preserve"
       style="font-size:16px;font-style:normal;font-variant:normal;font-weight:normal;font-stretch:normal;text-align:center;line-height:100%;writing-mode:lr-tb;text-anchor:middle;fill:#000000;fill-opacity:1;stroke:none;font-family:Verdana"
       x="280.19034"
       y="141.12016"
       id="text6203"
       sodipodi:linespacing="100%"
       transform="matrix(0,1,-1,0,0,0)"><tspan
         sodipodi:role="line"
         x="280.19034"
         y="141.12016"
         id="tspan4155">Sinkala</tspan></text>
    <text
       xml:space="preserve"
       style="font-size:16px;font-style:normal;font-variant:normal;font-weight:normal;font-stretch:normal;text-align:center;line-height:100%;writing-mode:lr-tb;text-anchor:middle;fill:#000000;fill-opacity:1;stroke:none;font-family:Verdana"
       x="288.89938"
       y="30.139784"
       id="text6207"
       sodipodi:linespacing="100%"
       transform="matrix(0,1,-1,0,0,0)"><tspan
         sodipodi:role="line"
         x="288.89938"
         y="30.139784"
         id="tspan1413">Mayuka</tspan></text>
    <text
       xml:space="preserve"
       style="font-size:16px;font-style:normal;font-variant:normal;font-weight:normal;font-stretch:normal;text-align:center;line-height:100%;writing-mode:lr-tb;text-anchor:middle;fill:#000000;fill-opacity:1;stroke:none;font-family:Verdana"
       x="394.39688"
       y="141.17276"
       id="text6211"
       sodipodi:linespacing="100%"
       transform="matrix(0,1,-1,0,0,0)"><tspan
         sodipodi:role="line"
         x="394.39688"
         y="141.17276"
         id="tspan6215">Chansa</tspan></text>
    <text
       xml:space="preserve"
       style="font-size:16px;font-style:normal;font-variant:normal;font-weight:normal;font-stretch:normal;text-align:center;line-height:100%;writing-mode:lr-tb;text-anchor:middle;fill:#000000;fill-opacity:1;stroke:none;font-family:Verdana"
       x="142.82724"
       y="116.74044"
       id="text6217"
       sodipodi:linespacing="100%"
       transform="matrix(0,1,-1,0,0,0)"><tspan
         sodipodi:role="line"
         x="142.82724"
         y="116.74044"
         id="tspan4173">Kalaba</tspan></text>
    <g
       id="use7989"
       transform="matrix(0.588968,0,0,0.581043,-33.000204,131.53114)"
       style="fill:#008000;fill-opacity:1">
      <path
         sodipodi:nodetypes="cccccccccccccc"
         id="path2275"
         d="m -112.72276,230.81533 9.74306,14.22915 0,5.20018 -10.09636,10.0404 10.09636,9.9596 0,5.20018 -10.0859,14.60038 -9.60464,-4.57126 4.69054,-10.02912 -34.94323,-0.11428 0.11429,-30.1718 34.82894,0 -4.5145,-9.77216 9.77144,-4.57127 z"
         style="fill:#008000;fill-opacity:1;fill-rule:evenodd;stroke:#000000;stroke-width:1px;stroke-linecap:butt;stroke-linejoin:miter;stroke-opacity:1"
         inkscape:connector-curvature="0" />
      <path
         id="path2277"
         d="m -102.9797,250.24466 c -2,10 -2,10 -2,10 l 2,10"
         style="fill:#008000;fill-opacity:1;fill-rule:evenodd;stroke:#000000;stroke-width:1px;stroke-linecap:butt;stroke-linejoin:miter;stroke-opacity:1"
         inkscape:connector-curvature="0" />
    </g>
    <g
       id="use7991"
       transform="matrix(0.588968,0,0,0.581043,75.89423,242.83058)"
       style="fill:#008000;fill-opacity:1">
      <path
         sodipodi:nodetypes="cccccccccccccc"
         id="path2281"
         d="m -112.72276,230.81533 9.74306,14.22915 0,5.20018 -10.09636,10.0404 10.09636,9.9596 0,5.20018 -10.0859,14.60038 -9.60464,-4.57126 4.69054,-10.02912 -34.94323,-0.11428 0.11429,-30.1718 34.82894,0 -4.5145,-9.77216 9.77144,-4.57127 z"
         style="fill:#008000;fill-opacity:1;fill-rule:evenodd;stroke:#000000;stroke-width:1px;stroke-linecap:butt;stroke-linejoin:miter;stroke-opacity:1"
         inkscape:connector-curvature="0" />
      <path
         id="path2283"
         d="m -102.9797,250.24466 c -2,10 -2,10 -2,10 l 2,10"
         style="fill:#008000;fill-opacity:1;fill-rule:evenodd;stroke:#000000;stroke-width:1px;stroke-linecap:butt;stroke-linejoin:miter;stroke-opacity:1"
         inkscape:connector-curvature="0" />
    </g>
    <g
       id="use7993"
       transform="matrix(0.588968,0,0,0.581043,-8.62049,-7.0617805)"
       style="fill:#008000;fill-opacity:1">
      <path
         sodipodi:nodetypes="cccccccccccccc"
         id="path2287"
         d="m -112.72276,230.81533 9.74306,14.22915 0,5.20018 -10.09636,10.0404 10.09636,9.9596 0,5.20018 -10.0859,14.60038 -9.60464,-4.57126 4.69054,-10.02912 -34.94323,-0.11428 0.11429,-30.1718 34.82894,0 -4.5145,-9.77216 9.77144,-4.57127 z"
         style="fill:#008000;fill-opacity:1;fill-rule:evenodd;stroke:#000000;stroke-width:1px;stroke-linecap:butt;stroke-linejoin:miter;stroke-opacity:1"
         inkscape:connector-curvature="0" />
      <path
         id="path2289"
         d="m -102.9797,250.24466 c -2,10 -2,10 -2,10 l 2,10"
         style="fill:#008000;fill-opacity:1;fill-rule:evenodd;stroke:#000000;stroke-width:1px;stroke-linecap:butt;stroke-linejoin:miter;stroke-opacity:1"
         inkscape:connector-curvature="0" />
    </g>
    <use
       x="0"
       y="0"
       xlink:href="#use7993"
       id="use7995"
       transform="translate(-24.142132,250.22529)"
       width="534"
       height="738"
       style="fill:#ffffff;fill-opacity:1" />
    <use
       x="0"
       y="0"
       xlink:href="#use7995"
       id="use7997"
       transform="translate(24.142132,148.15948)"
       width="534"
       height="738"
       style="fill:#ffffff;fill-opacity:1" />
    <use
       x="0"
       y="0"
       xlink:href="#use7997"
       id="use7999"
       transform="translate(-97,-9.8995982)"
       width="534"
       height="738"
       style="fill:#ffffff;fill-opacity:1" />
    <use
       x="0"
       y="0"
       xlink:href="#use7999"
       id="use8001"
       transform="translate(4.36334e-5,-130)"
       width="534"
       height="738"
       style="fill:#ffffff;fill-opacity:1" />
    <use
       x="0"
       y="0"
       xlink:href="#use8001"
       id="use8003"
       transform="translate(-4.36334e-5,-120)"
       width="534"
       height="738"
       style="fill:#ffffff;fill-opacity:1" />
    <use
       x="0"
       y="0"
       xlink:href="#use8003"
       id="use8005"
       transform="translate(3.524292e-12,-130)"
       width="534"
       height="738"
       style="fill:#008000;fill-opacity:1" />
    <g
       transform="matrix(0.588968,0,0,0.581043,146.83184,191.94033)"
       id="g8141"
       style="fill:#ff7f2a;fill-opacity:1">
      <path
         style="fill:#ff7f2a;fill-opacity:1;fill-rule:evenodd;stroke:#000000;stroke-width:1px;stroke-linecap:butt;stroke-linejoin:miter;stroke-opacity:1"
         d="m -112.72276,230.81533 9.74306,14.22915 0,5.20018 -10.09636,10.0404 10.09636,9.9596 0,5.20018 -10.0859,14.60038 -9.60464,-4.57126 4.69054,-10.02912 -34.94323,-0.11428 0.11429,-30.1718 34.82894,0 -4.5145,-9.77216 9.77144,-4.57127 z"
         id="path8143"
         sodipodi:nodetypes="cccccccccccccc"
         inkscape:connector-curvature="0" />
      <path
         style="fill:#ff7f2a;fill-opacity:1;fill-rule:evenodd;stroke:#000000;stroke-width:1px;stroke-linecap:butt;stroke-linejoin:miter;stroke-opacity:1"
         d="m -102.9797,250.24466 c -2,10 -2,10 -2,10 l 2,10"
         id="path8145"
         inkscape:connector-curvature="0" />
    </g>
    <text
       xml:space="preserve"
       style="font-size:16px;font-style:normal;font-variant:normal;font-weight:normal;font-stretch:normal;text-align:center;line-height:100%;writing-mode:lr-tb;text-anchor:middle;fill:#000000;fill-opacity:1;stroke:none;font-family:Verdana"
       x="424.12872"
       y="-138.43112"
       id="text8147"
       sodipodi:linespacing="100%"
       transform="matrix(0,1,-1,0,0,0)"><tspan
         sodipodi:role="line"
         x="424.12872"
         y="-138.43112"
         id="tspan4213">Kalou</tspan></text>
    <text
       xml:space="preserve"
       style="font-size:16px;font-style:normal;font-variant:normal;font-weight:normal;font-stretch:normal;text-align:center;line-height:100%;writing-mode:lr-tb;text-anchor:middle;fill:#000000;fill-opacity:1;stroke:none;font-family:Verdana"
       x="282.42569"
       y="-139.14093"
       id="text8151"
       sodipodi:linespacing="100%"
       transform="matrix(0,1,-1,0,0,0)"><tspan
         sodipodi:role="line"
         x="282.42569"
         y="-139.14093"
         id="tspan4215">Gervinho</tspan></text>
    <text
       xml:space="preserve"
       style="font-size:16px;font-style:normal;font-variant:normal;font-weight:normal;font-stretch:normal;text-align:center;line-height:100%;writing-mode:lr-tb;text-anchor:middle;fill:#000000;fill-opacity:1;stroke:none;font-family:Verdana"
       x="344.70035"
       y="-92.028244"
       id="text8155"
       sodipodi:linespacing="100%"
       transform="matrix(0,1,-1,0,0,0)"><tspan
         sodipodi:role="line"
         x="344.70035"
         y="-92.028244"
         id="tspan4211">Drogba</tspan></text>
    <g
       id="use8159"
       transform="matrix(0.588968,0,0,0.581043,194.53032,132.94535)"
       style="fill:#ff7f2a;fill-opacity:1">
      <path
         sodipodi:nodetypes="cccccccccccccc"
         id="path2293"
         d="m -112.72276,230.81533 9.74306,14.22915 0,5.20018 -10.09636,10.0404 10.09636,9.9596 0,5.20018 -10.0859,14.60038 -9.60464,-4.57126 4.69054,-10.02912 -34.94323,-0.11428 0.11429,-30.1718 34.82894,0 -4.5145,-9.77216 9.77144,-4.57127 z"
         style="fill:#ff7f2a;fill-opacity:1;fill-rule:evenodd;stroke:#000000;stroke-width:1px;stroke-linecap:butt;stroke-linejoin:miter;stroke-opacity:1"
         inkscape:connector-curvature="0" />
      <path
         id="path2295"
         d="m -102.9797,250.24466 c -2,10 -2,10 -2,10 l 2,10"
         style="fill:#ff7f2a;fill-opacity:1;fill-rule:evenodd;stroke:#000000;stroke-width:1px;stroke-linecap:butt;stroke-linejoin:miter;stroke-opacity:1"
         inkscape:connector-curvature="0" />
    </g>
    <g
       id="use8161"
       transform="matrix(0.588968,0,0,0.581043,194.53033,272.21747)"
       style="fill:#ff6600;fill-opacity:1">
      <path
         sodipodi:nodetypes="cccccccccccccc"
         id="path2299"
         d="m -112.72276,230.81533 9.74306,14.22915 0,5.20018 -10.09636,10.0404 10.09636,9.9596 0,5.20018 -10.0859,14.60038 -9.60464,-4.57126 4.69054,-10.02912 -34.94323,-0.11428 0.11429,-30.1718 34.82894,0 -4.5145,-9.77216 9.77144,-4.57127 z"
         style="fill:#ff6600;fill-opacity:1;fill-rule:evenodd;stroke:#000000;stroke-width:1px;stroke-linecap:butt;stroke-linejoin:miter;stroke-opacity:1"
         inkscape:connector-curvature="0" />
      <path
         id="path2301"
         d="m -102.9797,250.24466 c -2,10 -2,10 -2,10 l 2,10"
         style="fill:#ff6600;fill-opacity:1;fill-rule:evenodd;stroke:#000000;stroke-width:1px;stroke-linecap:butt;stroke-linejoin:miter;stroke-opacity:1"
         inkscape:connector-curvature="0" />
    </g>
    <text
       xml:space="preserve"
       style="font-size:16px;font-style:normal;font-variant:normal;font-weight:normal;font-stretch:normal;text-align:center;line-height:100%;writing-mode:lr-tb;text-anchor:middle;fill:#000000;fill-opacity:1;stroke:none;font-family:Verdana"
       x="468.94897"
       y="-208.18398"
       id="text8163"
       sodipodi:linespacing="100%"
       transform="matrix(0,1,-1,0,0,0)"><tspan
         sodipodi:role="line"
         x="468.94897"
         y="-208.18398"
         id="tspan4223"
         style="font-size:16px;font-style:normal;font-variant:normal;font-weight:normal;font-stretch:normal;text-align:center;line-height:100%;writing-mode:lr-tb;text-anchor:middle;font-family:Verdana">Tioté</tspan></text>
    <text
       xml:space="preserve"
       style="font-size:16px;font-style:normal;font-variant:normal;font-weight:normal;font-stretch:normal;text-align:center;line-height:100%;writing-mode:lr-tb;text-anchor:middle;fill:#000000;fill-opacity:1;stroke:none;font-family:Verdana"
       x="340.63724"
       y="-209.96936"
       id="text8167"
       sodipodi:linespacing="100%"
       transform="matrix(0,1,-1,0,0,0)"><tspan
         sodipodi:role="line"
         x="343.44974"
         y="-209.96936"
         id="tspan4221">Y. Touré</tspan></text>
    <text
       xml:space="preserve"
       style="font-size:16px;font-style:normal;font-variant:normal;font-weight:normal;font-stretch:normal;text-align:center;line-height:100%;writing-mode:lr-tb;text-anchor:middle;fill:#000000;fill-opacity:1;stroke:none;font-family:Verdana"
       x="213.99657"
       y="-211.01241"
       id="text8173"
       sodipodi:linespacing="100%"
       transform="matrix(0,1,-1,0,0,0)"><tspan
         sodipodi:role="line"
         x="213.99657"
         y="-211.01241"
         id="tspan4217">Zokora</tspan></text>
    <g
       id="use8177"
       transform="matrix(0.588968,0,0,0.581043,265.77354,60.820563)"
       style="fill:#ff7f2a;fill-opacity:1">
      <path
         sodipodi:nodetypes="cccccccccccccc"
         id="path2305"
         d="m -112.72276,230.81533 9.74306,14.22915 0,5.20018 -10.09636,10.0404 10.09636,9.9596 0,5.20018 -10.0859,14.60038 -9.60464,-4.57126 4.69054,-10.02912 -34.94323,-0.11428 0.11429,-30.1718 34.82894,0 -4.5145,-9.77216 9.77144,-4.57127 z"
         style="fill:#ff7f2a;fill-opacity:1;fill-rule:evenodd;stroke:#000000;stroke-width:1px;stroke-linecap:butt;stroke-linejoin:miter;stroke-opacity:1"
         inkscape:connector-curvature="0" />
      <path
         id="path2307"
         d="m -102.9797,250.24466 c -2,10 -2,10 -2,10 l 2,10"
         style="fill:#ff7f2a;fill-opacity:1;fill-rule:evenodd;stroke:#000000;stroke-width:1px;stroke-linecap:butt;stroke-linejoin:miter;stroke-opacity:1"
         inkscape:connector-curvature="0" />
    </g>
    <g
       style="fill:#ff7f2a;fill-opacity:1"
       transform="matrix(0.588968,0,0,0.581043,264.25882,189.4235)"
       id="use8179">
      <path
         style="fill:#ff7f2a;fill-opacity:1;fill-rule:evenodd;stroke:#000000;stroke-width:1px;stroke-linecap:butt;stroke-linejoin:miter;stroke-opacity:1"
         d="m -112.72276,230.81533 9.74306,14.22915 0,5.20018 -10.09636,10.0404 10.09636,9.9596 0,5.20018 -10.0859,14.60038 -9.60464,-4.57126 4.69054,-10.02912 -34.94323,-0.11428 0.11429,-30.1718 34.82894,0 -4.5145,-9.77216 9.77144,-4.57127 z"
         id="path1518"
         sodipodi:nodetypes="cccccccccccccc"
         inkscape:connector-curvature="0" />
      <path
         style="fill:#ff7f2a;fill-opacity:1;fill-rule:evenodd;stroke:#000000;stroke-width:1px;stroke-linecap:butt;stroke-linejoin:miter;stroke-opacity:1"
         d="m -102.9797,250.24466 c -2,10 -2,10 -2,10 l 2,10"
         id="path1520"
         inkscape:connector-curvature="0" />
    </g>
    <g
       style="font-size:27.35079765px;font-style:normal;font-variant:normal;font-weight:normal;font-stretch:normal;text-align:center;line-height:100%;writing-mode:lr-tb;text-anchor:middle;fill:#ff7f2a;fill-opacity:1;font-family:Verdana"
       transform="matrix(0.588968,0,0,0.581043,262.94511,319.19821)"
       id="use8181">
      <path
         style="font-size:27.35079765px;font-style:normal;font-variant:normal;font-weight:normal;font-stretch:normal;text-align:center;line-height:100%;writing-mode:lr-tb;text-anchor:middle;fill:#ff7f2a;fill-opacity:1;fill-rule:evenodd;stroke:#000000;stroke-width:1px;stroke-linecap:butt;stroke-linejoin:miter;stroke-opacity:1;font-family:Verdana"
         d="m -112.72276,230.81533 9.74306,14.22915 0,5.20018 -10.09636,10.0404 10.09636,9.9596 0,5.20018 -10.0859,14.60038 -9.60464,-4.57126 4.69054,-10.02912 -34.94323,-0.11428 0.11429,-30.1718 34.82894,0 -4.5145,-9.77216 9.77144,-4.57127 z"
         id="path1530"
         sodipodi:nodetypes="cccccccccccccc"
         inkscape:connector-curvature="0" />
      <path
         style="font-size:27.35079765px;font-style:normal;font-variant:normal;font-weight:normal;font-stretch:normal;text-align:center;line-height:100%;writing-mode:lr-tb;text-anchor:middle;fill:#ff7f2a;fill-opacity:1;fill-rule:evenodd;stroke:#000000;stroke-width:1px;stroke-linecap:butt;stroke-linejoin:miter;stroke-opacity:1;font-family:Verdana"
         d="m -102.9797,250.24466 c -2,10 -2,10 -2,10 l 2,10"
         id="path1532"
         inkscape:connector-curvature="0" />
    </g>
    <g
       style="fill:#ff7f2a;fill-opacity:1"
       transform="matrix(0.588968,0,0,0.581043,334.8795,379.9235)"
       id="use8195">
      <path
         style="fill:#ff7f2a;fill-opacity:1;fill-rule:evenodd;stroke:#000000;stroke-width:1px;stroke-linecap:butt;stroke-linejoin:miter;stroke-opacity:1"
         d="M -112.72276,230.81533 L -102.9797,245.04448 L -102.9797,250.24466 L -113.07606,260.28506 L -102.9797,270.24466 L -102.9797,275.44484 L -113.0656,290.04522 L -122.67024,285.47396 L -117.9797,275.44484 L -152.92293,275.33056 L -152.80864,245.15876 L -117.9797,245.15876 L -122.4942,235.3866 L -112.72276,230.81533 z "
         id="path1524"
         sodipodi:nodetypes="cccccccccccccc" />
      <path
         style="fill:#ff7f2a;fill-opacity:1;fill-rule:evenodd;stroke:#000000;stroke-width:1px;stroke-linecap:butt;stroke-linejoin:miter;stroke-opacity:1"
         d="M -102.9797,250.24466 C -104.9797,260.24466 -104.9797,260.24466 -104.9797,260.24466 L -102.9797,270.24466"
         id="path1526" />
    </g>
    <g
       style="fill:#ff7f2a;fill-opacity:1"
       transform="matrix(0.588968,0,0,0.581043,336.8795,251.4235)"
       id="use8197">
      <path
         style="fill:#ff7f2a;fill-opacity:1;fill-rule:evenodd;stroke:#000000;stroke-width:1px;stroke-linecap:butt;stroke-linejoin:miter;stroke-opacity:1"
         d="M -112.72276,230.81533 L -102.9797,245.04448 L -102.9797,250.24466 L -113.07606,260.28506 L -102.9797,270.24466 L -102.9797,275.44484 L -113.0656,290.04522 L -122.67024,285.47396 L -117.9797,275.44484 L -152.92293,275.33056 L -152.80864,245.15876 L -117.9797,245.15876 L -122.4942,235.3866 L -112.72276,230.81533 z "
         id="path1512"
         sodipodi:nodetypes="cccccccccccccc" />
      <path
         style="fill:#ff7f2a;fill-opacity:1;fill-rule:evenodd;stroke:#000000;stroke-width:1px;stroke-linecap:butt;stroke-linejoin:miter;stroke-opacity:1"
         d="M -102.9797,250.24466 C -104.9797,260.24466 -104.9797,260.24466 -104.9797,260.24466 L -102.9797,270.24466"
         id="path1514" />
    </g>
    <g
       style="fill:#ff7f2a;fill-opacity:1"
       transform="matrix(0.588968,0,0,0.581043,336.8796,131.4235)"
       id="use8199">
      <path
         style="fill:#ff7f2a;fill-opacity:1;fill-rule:evenodd;stroke:#000000;stroke-width:1px;stroke-linecap:butt;stroke-linejoin:miter;stroke-opacity:1"
         d="M -112.72276,230.81533 L -102.9797,245.04448 L -102.9797,250.24466 L -113.07606,260.28506 L -102.9797,270.24466 L -102.9797,275.44484 L -113.0656,290.04522 L -122.67024,285.47396 L -117.9797,275.44484 L -152.92293,275.33056 L -152.80864,245.15876 L -117.9797,245.15876 L -122.4942,235.3866 L -112.72276,230.81533 z "
         id="path1506"
         sodipodi:nodetypes="cccccccccccccc" />
      <path
         style="fill:#ff7f2a;fill-opacity:1;fill-rule:evenodd;stroke:#000000;stroke-width:1px;stroke-linecap:butt;stroke-linejoin:miter;stroke-opacity:1"
         d="M -102.9797,250.24466 C -104.9797,260.24466 -104.9797,260.24466 -104.9797,260.24466 L -102.9797,270.24466"
         id="path1508" />
    </g>
    <g
       style="fill:#ff7f2a;fill-opacity:1"
       transform="matrix(0.588968,0,0,0.581043,336.8795,1.423496)"
       id="use8201">
      <path
         style="fill:#ff7f2a;fill-opacity:1;fill-rule:evenodd;stroke:#000000;stroke-width:1px;stroke-linecap:butt;stroke-linejoin:miter;stroke-opacity:1"
         d="M -112.72276,230.81533 L -102.9797,245.04448 L -102.9797,250.24466 L -113.07606,260.28506 L -102.9797,270.24466 L -102.9797,275.44484 L -113.0656,290.04522 L -122.67024,285.47396 L -117.9797,275.44484 L -152.92293,275.33056 L -152.80864,245.15876 L -117.9797,245.15876 L -122.4942,235.3866 L -112.72276,230.81533 z "
         id="path1500"
         sodipodi:nodetypes="cccccccccccccc" />
      <path
         style="fill:#ff7f2a;fill-opacity:1;fill-rule:evenodd;stroke:#000000;stroke-width:1px;stroke-linecap:butt;stroke-linejoin:miter;stroke-opacity:1"
         d="M -102.9797,250.24466 C -104.9797,260.24466 -104.9797,260.24466 -104.9797,260.24466 L -102.9797,270.24466"
         id="path1502" />
    </g>
    <g
       id="g1461"
       style="fill:#800080;fill-opacity:1">
      <path
         sodipodi:nodetypes="cccccccccccccc"
         id="path8203"
         d="M 356.81981,324.08832 L 362.47014,332.34027 L 362.47014,335.35603 L 356.61492,341.17879 L 362.47014,346.95469 L 362.47014,349.97044 L 356.62099,358.43768 L 351.05094,355.78666 L 353.77114,349.97044 L 333.50641,349.90417 L 333.57269,332.40655 L 353.77114,332.40655 L 351.15303,326.73935 L 356.81981,324.08832 z "
         style="fill:#800080;fill-opacity:1;fill-rule:evenodd;stroke:#000000;stroke-width:0.57993298999999998px;stroke-linecap:butt;stroke-linejoin:miter;stroke-opacity:1" />
      <path
         id="path8205"
         d="M 362.47014,335.35603 C 361.31027,341.15536 361.31027,341.15536 361.31027,341.15536 L 362.47014,346.95469"
         style="fill:#800080;fill-opacity:1;fill-rule:evenodd;stroke:#000000;stroke-width:0.57993298999999998px;stroke-linecap:butt;stroke-linejoin:miter;stroke-opacity:1" />
    </g>
    <text
       xml:space="preserve"
       style="font-size:16px;font-style:normal;font-variant:normal;font-weight:normal;font-stretch:normal;text-align:center;line-height:100%;writing-mode:lr-tb;text-anchor:middle;fill:#000000;fill-opacity:1;stroke:none;font-family:Verdana"
       x="280.05521"
       y="212.61642"
       id="text4159"
       sodipodi:linespacing="100%"
       transform="matrix(0,1,-1,0,0,0)"><tspan
         sodipodi:role="line"
         x="280.05521"
         y="212.61642"
         id="tspan4163">Himoonde</tspan></text>
    <text
       xml:space="preserve"
       style="font-size:16px;font-style:normal;font-variant:normal;font-weight:normal;font-stretch:normal;text-align:center;line-height:100%;writing-mode:lr-tb;text-anchor:middle;fill:#000000;fill-opacity:1;stroke:none;font-family:Verdana"
       x="402.38724"
       y="210.0881"
       id="text4167"
       sodipodi:linespacing="100%"
       transform="matrix(0,1,-1,0,0,0)"><tspan
         sodipodi:role="line"
         x="402.38724"
         y="210.0881"
         id="tspan4171">Sunzu</tspan></text>
    <text
       xml:space="preserve"
       style="font-size:16px;font-style:normal;font-variant:normal;font-weight:normal;font-stretch:normal;text-align:center;line-height:100%;writing-mode:lr-tb;text-anchor:middle;fill:#000000;fill-opacity:1;stroke:none;font-family:Verdana"
       x="338.58533"
       y="-368.65564"
       id="text4181"
       sodipodi:linespacing="100%"
       transform="matrix(0,1,-1,0,0,0)"><tspan
         sodipodi:role="line"
         x="338.58533"
         y="-368.65564"
         id="tspan4185">Barry</tspan></text>
    <text
       xml:space="preserve"
       style="font-size:16px;font-style:normal;font-variant:normal;font-weight:normal;font-stretch:normal;text-align:center;line-height:100%;writing-mode:lr-tb;text-anchor:middle;fill:#000000;fill-opacity:1;stroke:none;font-family:Verdana"
       x="153.19485"
       y="-282.65564"
       id="text4187"
       sodipodi:linespacing="100%"
       transform="matrix(0,1,-1,0,0,0)"><tspan
         sodipodi:role="line"
         x="153.19485"
         y="-282.65564"
         id="tspan4191">Gosso</tspan></text>
    <text
       xml:space="preserve"
       style="font-size:16px;font-style:normal;font-variant:normal;font-weight:normal;font-stretch:normal;text-align:center;line-height:100%;writing-mode:lr-tb;text-anchor:middle;fill:#000000;fill-opacity:1;stroke:none;font-family:Verdana"
       x="282.83044"
       y="-282.41302"
       id="text4193"
       sodipodi:linespacing="100%"
       transform="matrix(0,1,-1,0,0,0)"><tspan
         sodipodi:role="line"
         x="282.83044"
         y="-282.41302"
         id="tspan4197">K. Touré</tspan></text>
    <text
       xml:space="preserve"
       style="font-size:16px;font-style:normal;font-variant:normal;font-weight:normal;font-stretch:normal;text-align:center;line-height:100%;writing-mode:lr-tb;text-anchor:middle;fill:#000000;fill-opacity:1;stroke:none;font-family:Verdana"
       x="405.27621"
       y="-282.87103"
       id="text4199"
       sodipodi:linespacing="100%"
       transform="matrix(0,1,-1,0,0,0)"><tspan
         sodipodi:role="line"
         x="405.27621"
         y="-282.87103"
         id="tspan4209">Bamba</tspan></text>
    <text
       xml:space="preserve"
       style="font-size:16px;font-style:normal;font-variant:normal;font-weight:normal;font-stretch:normal;text-align:center;line-height:100%;writing-mode:lr-tb;text-anchor:middle;fill:#000000;fill-opacity:1;stroke:none;font-family:Verdana"
       x="529.36969"
       y="-280.24142"
       id="text4203"
       sodipodi:linespacing="100%"
       transform="matrix(0,1,-1,0,0,0)"><tspan
         sodipodi:role="line"
         x="529.36969"
         y="-280.24142"
         id="tspan4207">Tiéné</tspan></text>
    <g
       id="use7991-1"
       transform="matrix(0.588968,0,0,0.581043,75.133899,140.29812)"
       style="fill:#008000;fill-opacity:1">
      <path
         inkscape:connector-curvature="0"
         sodipodi:nodetypes="cccccccccccccc"
         id="path2281-7"
         d="m -112.72276,230.81533 9.74306,14.22915 0,5.20018 -10.09636,10.0404 10.09636,9.9596 0,5.20018 -10.0859,14.60038 -9.60464,-4.57126 4.69054,-10.02912 -34.94323,-0.11428 0.11429,-30.1718 34.82894,0 -4.5145,-9.77216 9.77144,-4.57127 z"
         style="fill:#008000;fill-opacity:1;fill-rule:evenodd;stroke:#000000;stroke-width:1px;stroke-linecap:butt;stroke-linejoin:miter;stroke-opacity:1" />
      <path
         inkscape:connector-curvature="0"
         id="path2283-4"
         d="m -102.9797,250.24466 c -2,10 -2,10 -2,10 l 2,10"
         style="fill:#008000;fill-opacity:1;fill-rule:evenodd;stroke:#000000;stroke-width:1px;stroke-linecap:butt;stroke-linejoin:miter;stroke-opacity:1" />
    </g>
  </g>
</svg>
