<?xml version="1.0" encoding="UTF-8" standalone="no"?>
<!-- Created with Inkscape (http://www.inkscape.org/) -->

<svg
   xmlns:dc="http://purl.org/dc/elements/1.1/"
   xmlns:cc="http://creativecommons.org/ns#"
   xmlns:rdf="http://www.w3.org/1999/02/22-rdf-syntax-ns#"
   xmlns:svg="http://www.w3.org/2000/svg"
   xmlns="http://www.w3.org/2000/svg"
   xmlns:xlink="http://www.w3.org/1999/xlink"
   xmlns:sodipodi="http://sodipodi.sourceforge.net/DTD/sodipodi-0.dtd"
   xmlns:inkscape="http://www.inkscape.org/namespaces/inkscape"
   width="534"
   height="738"
   id="svg2"
   sodipodi:version="0.32"
   inkscape:version="0.48.2 r9819"
   sodipodi:docname="CZE-GER_1976-06-20.svg"
   version="1.0"
   inkscape:output_extension="org.inkscape.output.svg.inkscape">
  <defs
     id="defs4">
    <inkscape:perspective
       sodipodi:type="inkscape:persp3d"
       inkscape:vp_x="0 : 369 : 1"
       inkscape:vp_y="0 : 1000 : 0"
       inkscape:vp_z="534 : 369 : 1"
       inkscape:persp3d-origin="267 : 246 : 1"
       id="perspective2523" />
    <linearGradient
       id="linearGradient3076">
      <stop
         style="stop-color:#ff0a0a;stop-opacity:1;"
         offset="0"
         id="stop3078" />
      <stop
         id="stop3084"
         offset="0.33000001"
         style="stop-color:#ff0a0a;stop-opacity:1;" />
      <stop
         style="stop-color:#ffffff;stop-opacity:1;"
         offset="0.33000001"
         id="stop3086" />
      <stop
         id="stop3088"
         offset="0.66000003"
         style="stop-color:#ffffff;stop-opacity:1;" />
      <stop
         style="stop-color:#ffff00;stop-opacity:1;"
         offset="0.66000003"
         id="stop3090" />
      <stop
         style="stop-color:#ffff00;stop-opacity:1;"
         offset="1"
         id="stop3080" />
    </linearGradient>
    <linearGradient
       inkscape:collect="always"
       xlink:href="#linearGradient3076"
       id="linearGradient3136"
       gradientUnits="userSpaceOnUse"
       x1="24.566006"
       y1="168.72964"
       x2="42.667271"
       y2="168.72964"
       gradientTransform="translate(0,1.131285)" />
  </defs>
  <sodipodi:namedview
     id="base"
     pagecolor="#ffffff"
     bordercolor="#666666"
     borderopacity="1.0"
     inkscape:pageopacity="0.0"
     inkscape:pageshadow="2"
     inkscape:zoom="1.0000001"
     inkscape:cx="262.56741"
     inkscape:cy="383.55304"
     inkscape:document-units="px"
     inkscape:current-layer="layer2"
     inkscape:window-width="1600"
     inkscape:window-height="838"
     inkscape:window-x="-8"
     inkscape:window-y="-8"
     inkscape:guide-points="true"
     showgrid="true"
     inkscape:window-maximized="1">
    <inkscape:grid
       type="xygrid"
       id="grid2525" />
  </sodipodi:namedview>
  <metadata
     id="metadata7">
    <rdf:RDF>
      <cc:Work
         rdf:about="">
        <dc:format>image/svg+xml</dc:format>
        <dc:type
           rdf:resource="http://purl.org/dc/dcmitype/StillImage" />
        <dc:title />
      </cc:Work>
    </rdf:RDF>
  </metadata>
  <g
     inkscape:label="Layer 1"
     inkscape:groupmode="layer"
     id="layer1"
     style="fill-opacity:0.5"
     sodipodi:insensitive="true">
    <rect
       style="fill:#009d00;fill-rule:evenodd;stroke:none;stroke-width:2.5;stroke-linecap:butt;stroke-linejoin:round;stroke-miterlimit:4;stroke-dasharray:none;stroke-dashoffset:0;stroke-opacity:1"
       id="rect1317"
       width="737.99988"
       height="533.99994"
       x="-738"
       y="3.509668e-005"
       rx="2.5634737"
       ry="2.5538738"
       transform="matrix(0,-1,1,0,0,0)" />
    <g
       id="g4041"
       style="stroke:#ffffff;stroke-width:1.5;stroke-miterlimit:4;stroke-dasharray:none;stroke-opacity:0.62921352"
       transform="matrix(0,-1.509164,1.506335,0,-115.6011,876.1191)">
      <path
         id="path2194"
         d="M 118.19246,416.99231 L 118.19246,90.425866 L 552.70347,91.109059 L 553.38666,416.99231 L 118.19246,416.99231 z "
         style="fill:none;fill-opacity:0.75;fill-rule:evenodd;stroke:#ffffff;stroke-width:1.5;stroke-linecap:butt;stroke-linejoin:miter;stroke-miterlimit:4;stroke-dasharray:none;stroke-opacity:0.62921352" />
      <path
         transform="matrix(0.952617,0,0,0.916433,15.58528,21.60032)"
         d="m 370.97403,254.39229 c 0,19.6205 -15.59968,35.52606 -34.84287,35.52606 -19.24318,0 -34.84286,-15.90556 -34.84286,-35.52606 0,-19.6205 15.59968,-35.52606 34.84286,-35.52606 19.24319,0 34.84287,15.90556 34.84287,35.52606 z"
         sodipodi:ry="35.526058"
         sodipodi:rx="34.842865"
         sodipodi:cy="254.39229"
         sodipodi:cx="336.13116"
         id="path2212"
         style="fill:none;fill-opacity:1;fill-rule:evenodd;stroke:#ffffff;stroke-width:1.60539436;stroke-linecap:butt;stroke-linejoin:round;stroke-miterlimit:4;stroke-dasharray:none;stroke-dashoffset:0;stroke-opacity:0.62921352"
         sodipodi:type="arc" />
      <path
         sodipodi:nodetypes="ccccc"
         id="path2196"
         d="M 117.96294,327.15238 L 178.441,327.15238 L 178.441,181.63218 L 118.31998,181.63218 L 118.31998,181.63218"
         style="fill:none;fill-opacity:0.75;fill-rule:evenodd;stroke:#ffffff;stroke-width:1.5;stroke-linecap:butt;stroke-linejoin:miter;stroke-miterlimit:4;stroke-dasharray:none;stroke-opacity:0.62921352" />
      <path
         sodipodi:nodetypes="cccc"
         id="path2198"
         d="M 118.4324,219.89101 L 139.49897,219.89101 L 138.81578,286.84397 L 117.63679,286.84396"
         style="fill:none;fill-opacity:0.75;fill-rule:evenodd;stroke:#ffffff;stroke-width:1.5;stroke-linecap:butt;stroke-linejoin:miter;stroke-miterlimit:4;stroke-dasharray:none;stroke-opacity:0.62921352" />
      <path
         sodipodi:nodetypes="cccc"
         id="path2200"
         d="M 118.31998,240.38682 L 107.38888,240.38682 L 107.38888,267.03136 L 118.31998,267.03135"
         style="fill:none;fill-opacity:0.75;fill-rule:evenodd;stroke:#ffffff;stroke-width:1.5;stroke-linecap:butt;stroke-linejoin:miter;stroke-miterlimit:4;stroke-dasharray:none;stroke-opacity:0.62921352" />
      <path
         sodipodi:nodetypes="cc"
         id="path2206"
         d="M 178.32858,279.68588 C 197.458,268.58399 196.69325,238.58186 178.24704,227.65076"
         style="fill:none;fill-opacity:0.75;fill-rule:evenodd;stroke:#ffffff;stroke-width:1.5;stroke-linecap:butt;stroke-linejoin:miter;stroke-miterlimit:4;stroke-dasharray:none;stroke-opacity:0.62921352" />
      <path
         sodipodi:nodetypes="cccc"
         id="path3091"
         d="M 553.15787,327.23393 L 493.82135,327.15239 L 493.82135,181.63219 L 552.88237,181.63219"
         style="fill:none;fill-opacity:0.75;fill-rule:evenodd;stroke:#ffffff;stroke-width:1.5;stroke-linecap:butt;stroke-linejoin:miter;stroke-miterlimit:4;stroke-dasharray:none;stroke-opacity:0.62921352" />
      <path
         sodipodi:nodetypes="cccc"
         id="path3093"
         d="M 553.25918,219.89102 L 532.76338,219.89102 L 533.44657,286.84398 L 553.15787,286.84397"
         style="fill:none;fill-opacity:0.75;fill-rule:evenodd;stroke:#ffffff;stroke-width:1.5;stroke-linecap:butt;stroke-linejoin:miter;stroke-miterlimit:4;stroke-dasharray:none;stroke-opacity:0.62921352" />
      <path
         sodipodi:nodetypes="cccc"
         id="path3095"
         d="M 552.96391,240.38683 L 564.87347,240.38683 L 564.87347,267.03137 L 553.20852,267.03136"
         style="fill:none;fill-opacity:0.75;fill-rule:evenodd;stroke:#ffffff;stroke-width:1.5;stroke-linecap:butt;stroke-linejoin:miter;stroke-miterlimit:4;stroke-dasharray:none;stroke-opacity:0.62921352" />
      <path
         sodipodi:nodetypes="cc"
         id="path3097"
         d="M 493.68916,279.68589 C 474.55974,268.584 475.32448,238.98956 493.77069,228.05846"
         style="fill:none;fill-opacity:0.75;fill-rule:evenodd;stroke:#ffffff;stroke-width:1.5;stroke-linecap:butt;stroke-linejoin:miter;stroke-miterlimit:4;stroke-dasharray:none;stroke-opacity:0.62921352" />
      <path
         id="path3107"
         d="M 336.13116,90.425866 L 336.13116,416.30912 L 336.13116,416.30912"
         style="fill:none;fill-opacity:0.75;fill-rule:evenodd;stroke:#ffffff;stroke-width:1.5;stroke-linecap:butt;stroke-linejoin:miter;stroke-miterlimit:4;stroke-dasharray:none;stroke-opacity:0.62921352" />
      <path
         sodipodi:nodetypes="cs"
         id="path3117"
         d="M 118.34857,95.731078 C 118.34857,95.731078 122.38844,94.767442 123.38913,90.542267"
         style="fill:none;fill-opacity:0.75;fill-rule:evenodd;stroke:#ffffff;stroke-width:1.5;stroke-linecap:butt;stroke-linejoin:miter;stroke-miterlimit:4;stroke-dasharray:none;stroke-opacity:0.62921352" />
      <path
         sodipodi:nodetypes="cs"
         id="path3120"
         d="M 123.06916,417.24402 C 123.06916,417.24402 122.10552,413.20416 117.88035,412.20346"
         style="fill:none;fill-opacity:0.75;fill-rule:evenodd;stroke:#ffffff;stroke-width:1.5;stroke-linecap:butt;stroke-linejoin:miter;stroke-miterlimit:4;stroke-dasharray:none;stroke-opacity:0.62921352" />
      <path
         sodipodi:nodetypes="cs"
         id="path3122"
         d="M 553.14946,411.81092 C 553.14946,411.81092 549.10959,412.77456 548.1089,416.99973"
         style="fill:none;fill-opacity:0.75;fill-rule:evenodd;stroke:#ffffff;stroke-width:1.5;stroke-linecap:butt;stroke-linejoin:miter;stroke-miterlimit:4;stroke-dasharray:none;stroke-opacity:0.62921352" />
      <path
         sodipodi:nodetypes="cs"
         id="path3124"
         d="M 547.05631,91.357379 C 547.05631,91.357379 548.01995,95.397249 552.24513,96.397939"
         style="fill:none;fill-opacity:0.75;fill-rule:evenodd;stroke:#ffffff;stroke-width:1.5;stroke-linecap:butt;stroke-linejoin:miter;stroke-miterlimit:4;stroke-dasharray:none;stroke-opacity:0.62921352" />
      <path
         d="m 514.91535,253.57072 c 0,0.74304 -0.47458,1.34539 -1.06,1.34539 -0.58543,0 -1.06,-0.60235 -1.06,-1.34539 0,-0.74303 0.47457,-1.34538 1.06,-1.34538 0.58542,0 1.06,0.60235 1.06,1.34538 z"
         sodipodi:ry="1.3453845"
         sodipodi:rx="1.0599999"
         sodipodi:cy="253.57072"
         sodipodi:cx="513.85535"
         id="path3126"
         style="fill:none;fill-opacity:1;fill-rule:evenodd;stroke:#ffffff;stroke-width:1.5;stroke-linecap:butt;stroke-linejoin:round;stroke-miterlimit:4;stroke-dasharray:none;stroke-dashoffset:0;stroke-opacity:0.62921352"
         sodipodi:type="arc" />
      <path
         d="m 159.65229,253.44841 c 0,0.72052 -0.65711,1.30462 -1.46769,1.30462 -0.81058,0 -1.46769,-0.5841 -1.46769,-1.30462 0,-0.72052 0.65711,-1.30462 1.46769,-1.30462 0.81058,0 1.46769,0.5841 1.46769,1.30462 z"
         sodipodi:ry="1.3046153"
         sodipodi:rx="1.4676921"
         sodipodi:cy="253.44841"
         sodipodi:cx="158.1846"
         id="path3128"
         style="fill:none;fill-opacity:1;fill-rule:evenodd;stroke:#ffffff;stroke-width:1.5;stroke-linecap:butt;stroke-linejoin:round;stroke-miterlimit:4;stroke-dasharray:none;stroke-dashoffset:0;stroke-opacity:0.62921352"
         sodipodi:type="arc" />
      <path
         transform="translate(-0.683193,0)"
         d="m 337.49755,253.02589 c 0,0.75464 -0.61175,1.36639 -1.36639,1.36639 -0.75463,0 -1.36638,-0.61175 -1.36638,-1.36639 0,-0.75463 0.61175,-1.36638 1.36638,-1.36638 0.75464,0 1.36639,0.61175 1.36639,1.36638 z"
         sodipodi:ry="1.3663868"
         sodipodi:rx="1.3663868"
         sodipodi:cy="253.02589"
         sodipodi:cx="336.13116"
         id="path3130"
         style="fill:none;fill-opacity:1;fill-rule:evenodd;stroke:#ffffff;stroke-width:1.5;stroke-linecap:butt;stroke-linejoin:round;stroke-miterlimit:4;stroke-dasharray:none;stroke-dashoffset:0;stroke-opacity:0.62921352"
         sodipodi:type="arc" />
    </g>
  </g>
  <g
     inkscape:groupmode="layer"
     id="layer2"
     inkscape:label="Players"
     transform="matrix(0,-1,1,0,-75.24466,404.0203)">
    <g
       id="g1457"
       style="fill:#00aad4;fill-opacity:1">
      <path
         sodipodi:nodetypes="cccccccccccccc"
         id="path1471"
         d="M -267.79597,322.90416 L -262.14564,331.15611 L -262.14564,334.17187 L -268.00086,339.99463 L -262.14564,345.77053 L -262.14564,348.78628 L -267.99479,357.25352 L -273.56484,354.6025 L -270.84464,348.78628 L -291.10937,348.72001 L -291.04309,331.22239 L -270.84464,331.22239 L -273.46275,325.55519 L -267.79597,322.90416 z "
         style="fill:#00aad4;fill-opacity:1;fill-rule:evenodd;stroke:#000000;stroke-width:0.57993298999999998px;stroke-linecap:butt;stroke-linejoin:miter;stroke-opacity:1" />
      <path
         id="path1485"
         d="M -262.14564,334.17187 C -263.30551,339.9712 -263.30551,339.9712 -263.30551,339.9712 L -262.14564,345.77053"
         style="fill:#00aad4;fill-opacity:1;fill-rule:evenodd;stroke:#000000;stroke-width:0.57993298999999998px;stroke-linecap:butt;stroke-linejoin:miter;stroke-opacity:1" />
    </g>
    <text
       xml:space="preserve"
       style="font-size:16px;font-style:normal;font-variant:normal;font-weight:normal;font-stretch:normal;text-align:center;line-height:100%;writing-mode:lr-tb;text-anchor:middle;fill:#000000;fill-opacity:1;stroke:none;font-family:Verdana"
       x="339.31888"
       y="316.13596"
       id="text6173"
       sodipodi:linespacing="100%"
       transform="matrix(0,1,-1,0,0,0)"><tspan
         sodipodi:role="line"
         x="339.31888"
         y="316.13596"
         id="tspan4157">Maier</tspan></text>
    <g
       style="fill:#ffffff;fill-opacity:1"
       transform="matrix(0.588968,0,0,0.581043,-130.52615,261.42352)"
       id="use8001">
      <path
         style="fill:#ffffff;fill-opacity:1;fill-rule:evenodd;stroke:#000000;stroke-width:1px;stroke-linecap:butt;stroke-linejoin:miter;stroke-opacity:1"
         d="m -112.72276,230.81533 9.74306,14.22915 0,5.20018 -10.09636,10.0404 10.09636,9.9596 0,5.20018 -10.0859,14.60038 -9.60464,-4.57126 4.69054,-10.02912 -34.94323,-0.11428 0.11429,-30.1718 34.82894,0 -4.5145,-9.77216 9.77144,-4.57127 z"
         id="path8354"
         sodipodi:nodetypes="cccccccccccccc"
         inkscape:connector-curvature="0" />
      <path
         style="fill:#ffffff;fill-opacity:1;fill-rule:evenodd;stroke:#000000;stroke-width:1px;stroke-linecap:butt;stroke-linejoin:miter;stroke-opacity:1"
         d="m -102.9797,250.24466 c -2,10 -2,10 -2,10 l 2,10"
         id="path8356"
         inkscape:connector-curvature="0" />
    </g>
    <use
       x="0"
       y="0"
       xlink:href="#use8001"
       id="use8003"
       transform="translate(15.959205,-145.0001)"
       width="534"
       height="738"
       style="fill:#ffffff;fill-opacity:1" />
    <g
       id="g4005"
       style="fill:#ff0000;fill-opacity:1"
       transform="translate(43.976856,31.79876)">
      <g
         style="fill:#ff0000;fill-opacity:1"
         id="g8141"
         transform="matrix(0.588968,0,0,0.581043,212.29229,269.57325)">
        <path
           sodipodi:nodetypes="cccccccccccccc"
           id="path8143"
           d="m -112.72276,230.81533 9.74306,14.22915 0,5.20018 -10.09636,10.0404 10.09636,9.9596 0,5.20018 -10.0859,14.60038 -9.60464,-4.57126 4.69054,-10.02912 -34.94323,-0.11428 0.11429,-30.1718 34.82894,0 -4.5145,-9.77216 9.77144,-4.57127 z"
           style="fill:#ff0000;fill-opacity:1;fill-rule:evenodd;stroke:#000000;stroke-width:1px;stroke-linecap:butt;stroke-linejoin:miter;stroke-opacity:1"
           inkscape:connector-curvature="0" />
        <path
           id="path8145"
           d="m -102.9797,250.24466 c -2,10 -2,10 -2,10 l 2,10"
           style="fill:#ff0000;fill-opacity:1;fill-rule:evenodd;stroke:#000000;stroke-width:1px;stroke-linecap:butt;stroke-linejoin:miter;stroke-opacity:1"
           inkscape:connector-curvature="0" />
      </g>
    </g>
    <text
       xml:space="preserve"
       style="font-size:16px;font-style:normal;font-variant:normal;font-weight:normal;font-stretch:normal;text-align:center;line-height:100%;writing-mode:lr-tb;text-anchor:middle;fill:#000000;fill-opacity:1;stroke:none;font-family:Verdana"
       x="499.2121"
       y="-111.1029"
       id="text8147"
       sodipodi:linespacing="100%"
       transform="matrix(0,1,-1,0,0,0)"><tspan
         sodipodi:role="line"
         x="499.2121"
         y="-111.1029"
         id="tspan4213">Nehoda</tspan></text>
    <text
       xml:space="preserve"
       style="font-size:16px;font-style:normal;font-variant:normal;font-weight:normal;font-stretch:normal;text-align:center;line-height:100%;writing-mode:lr-tb;text-anchor:middle;fill:#000000;fill-opacity:1;stroke:none;font-family:Verdana"
       x="280.2695"
       y="-305.3476"
       id="text8151"
       sodipodi:linespacing="100%"
       transform="matrix(0,1,-1,0,0,0)"><tspan
         sodipodi:role="line"
         x="280.2695"
         y="-305.3476"
         id="tspan4215">Ondruš</tspan></text>
    <text
       xml:space="preserve"
       style="font-size:16px;font-style:normal;font-variant:normal;font-weight:normal;font-stretch:normal;text-align:center;line-height:100%;writing-mode:lr-tb;text-anchor:middle;fill:#000000;fill-opacity:1;stroke:none;font-family:Verdana"
       x="454.77777"
       y="-201.99715"
       id="text8155"
       sodipodi:linespacing="100%"
       transform="matrix(0,1,-1,0,0,0)"><tspan
         sodipodi:role="line"
         x="454.77777"
         y="-201.99715"
         id="tspan4211">Móder</tspan></text>
    <g
       id="g3994"
       style="fill:#ff0000;fill-opacity:1"
       transform="translate(90.067361,86)">
      <g
         id="g3449"
         style="fill:#ff0000;fill-opacity:1">
        <g
           id="use8159"
           transform="matrix(0.588968,0,0,0.581043,270.34304,44.031322)"
           style="fill:#ff0000;fill-opacity:1"
           inkscape:transform-center-x="-90.942988"
           inkscape:transform-center-y="-14.999978">
          <path
             sodipodi:nodetypes="cccccccccccccc"
             id="path2293"
             d="m -112.72276,230.81533 9.74306,14.22915 0,5.20018 -10.09636,10.0404 10.09636,9.9596 0,5.20018 -10.0859,14.60038 -9.60464,-4.57126 4.69054,-10.02912 -34.94323,-0.11428 0.11429,-30.1718 34.82894,0 -4.5145,-9.77216 9.77144,-4.57127 z"
             style="fill:#ff0000;fill-opacity:1;fill-rule:evenodd;stroke:#000000;stroke-width:1px;stroke-linecap:butt;stroke-linejoin:miter;stroke-opacity:1"
             inkscape:connector-curvature="0" />
          <path
             id="path2295"
             d="m -102.9797,250.24466 c -2,10 -2,10 -2,10 l 2,10"
             style="fill:#ff0000;fill-opacity:1;fill-rule:evenodd;stroke:#000000;stroke-width:1px;stroke-linecap:butt;stroke-linejoin:miter;stroke-opacity:1"
             inkscape:connector-curvature="0" />
        </g>
      </g>
    </g>
    <g
       id="g3983"
       style="fill:#ff0000;fill-opacity:1"
       transform="translate(-104.91739,9.724434)">
      <g
         style="fill:#ff0000;fill-opacity:1"
         transform="matrix(0.588968,0,0,0.581043,270.42396,337.47493)"
         id="use8161">
        <path
           style="fill:#ff0000;fill-opacity:1;fill-rule:evenodd;stroke:#000000;stroke-width:1px;stroke-linecap:butt;stroke-linejoin:miter;stroke-opacity:1"
           d="m -112.72276,230.81533 9.74306,14.22915 0,5.20018 -10.09636,10.0404 10.09636,9.9596 0,5.20018 -10.0859,14.60038 -9.60464,-4.57126 4.69054,-10.02912 -34.94323,-0.11428 0.11429,-30.1718 34.82894,0 -4.5145,-9.77216 9.77144,-4.57127 z"
           id="path2299"
           sodipodi:nodetypes="cccccccccccccc"
           inkscape:connector-curvature="0" />
        <path
           style="fill:#ff0000;fill-opacity:1;fill-rule:evenodd;stroke:#000000;stroke-width:1px;stroke-linecap:butt;stroke-linejoin:miter;stroke-opacity:1"
           d="m -102.9797,250.24466 c -2,10 -2,10 -2,10 l 2,10"
           id="path2301"
           inkscape:connector-curvature="0" />
      </g>
    </g>
    <text
       xml:space="preserve"
       style="font-size:16px;font-style:normal;font-variant:normal;font-weight:normal;font-stretch:normal;text-align:center;line-height:100%;writing-mode:lr-tb;text-anchor:middle;fill:#000000;fill-opacity:1;stroke:none;font-family:Verdana"
       x="530.96368"
       y="-290.30936"
       id="text8163"
       sodipodi:linespacing="100%"
       transform="matrix(0,1,-1,0,0,0)"><tspan
         sodipodi:role="line"
         x="530.96368"
         y="-290.30936"
         id="tspan4223"
         style="font-size:16px;font-style:normal;font-variant:normal;font-weight:normal;font-stretch:normal;text-align:center;line-height:100%;writing-mode:lr-tb;text-anchor:middle;font-family:Verdana">Čapkovič</tspan></text>
    <text
       xml:space="preserve"
       style="font-size:16px;font-style:normal;font-variant:normal;font-weight:normal;font-stretch:normal;text-align:center;line-height:100%;writing-mode:lr-tb;text-anchor:middle;fill:#000000;fill-opacity:1;stroke:none;font-family:Verdana"
       x="402.63632"
       y="-291.38748"
       id="text8167"
       sodipodi:linespacing="100%"
       transform="matrix(0,1,-1,0,0,0)"><tspan
         sodipodi:role="line"
         x="402.63632"
         y="-291.38748"
         id="tspan4221">Gögh</tspan></text>
    <text
       xml:space="preserve"
       style="font-size:16px;font-style:normal;font-variant:normal;font-weight:normal;font-stretch:normal;text-align:center;line-height:100%;writing-mode:lr-tb;text-anchor:middle;fill:#000000;fill-opacity:1;stroke:none;font-family:Verdana"
       x="148.90091"
       y="-291.60318"
       id="text8173"
       sodipodi:linespacing="100%"
       transform="matrix(0,1,-1,0,0,0)"><tspan
         sodipodi:role="line"
         x="148.90091"
         y="-291.60318"
         id="tspan4217">Pivarník</tspan></text>
    <g
       id="g3968"
       style="fill:#ff0000;fill-opacity:1"
       transform="translate(-10,-120)">
      <g
         style="fill:#ff0000;fill-opacity:1"
         transform="matrix(0.588968,0,0,0.581043,355.80126,117.88978)"
         id="use8177">
        <path
           style="fill:#ff0000;fill-opacity:1;fill-rule:evenodd;stroke:#000000;stroke-width:1px;stroke-linecap:butt;stroke-linejoin:miter;stroke-opacity:1"
           d="m -112.72276,230.81533 9.74306,14.22915 0,5.20018 -10.09636,10.0404 10.09636,9.9596 0,5.20018 -10.0859,14.60038 -9.60464,-4.57126 4.69054,-10.02912 -34.94323,-0.11428 0.11429,-30.1718 34.82894,0 -4.5145,-9.77216 9.77144,-4.57127 z"
           id="path2305"
           sodipodi:nodetypes="cccccccccccccc"
           inkscape:connector-curvature="0" />
        <path
           style="fill:#ff0000;fill-opacity:1;fill-rule:evenodd;stroke:#000000;stroke-width:1px;stroke-linecap:butt;stroke-linejoin:miter;stroke-opacity:1"
           d="m -102.9797,250.24466 c -2,10 -2,10 -2,10 l 2,10"
           id="path2307"
           inkscape:connector-curvature="0" />
      </g>
    </g>
    <g
       id="g3973"
       style="fill:#ff0000;fill-opacity:1"
       transform="translate(-10,-18)">
      <g
         id="use8179"
         transform="matrix(0.588968,0,0,0.581043,355.70076,270.18045)"
         style="fill:#ff0000;fill-opacity:1">
        <path
           sodipodi:nodetypes="cccccccccccccc"
           id="path1518"
           d="m -112.72276,230.81533 9.74306,14.22915 0,5.20018 -10.09636,10.0404 10.09636,9.9596 0,5.20018 -10.0859,14.60038 -9.60464,-4.57126 4.69054,-10.02912 -34.94323,-0.11428 0.11429,-30.1718 34.82894,0 -4.5145,-9.77216 9.77144,-4.57127 z"
           style="fill:#ff0000;fill-opacity:1;fill-rule:evenodd;stroke:#000000;stroke-width:1px;stroke-linecap:butt;stroke-linejoin:miter;stroke-opacity:1"
           inkscape:connector-curvature="0" />
        <path
           id="path1520"
           d="m -102.9797,250.24466 c -2,10 -2,10 -2,10 l 2,10"
           style="fill:#ff0000;fill-opacity:1;fill-rule:evenodd;stroke:#000000;stroke-width:1px;stroke-linecap:butt;stroke-linejoin:miter;stroke-opacity:1"
           inkscape:connector-curvature="0" />
      </g>
    </g>
    <g
       id="g3978"
       style="fill:#ff0000;fill-opacity:1"
       transform="translate(-12,-4)">
      <g
         id="use8181"
         transform="matrix(0.588968,0,0,0.581043,356.59651,383.69709)"
         style="font-size:27.35079765px;font-style:normal;font-variant:normal;font-weight:normal;font-stretch:normal;text-align:center;line-height:100%;writing-mode:lr-tb;text-anchor:middle;fill:#ff0000;fill-opacity:1;font-family:Verdana">
        <path
           sodipodi:nodetypes="cccccccccccccc"
           id="path1530"
           d="m -112.72276,230.81533 9.74306,14.22915 0,5.20018 -10.09636,10.0404 10.09636,9.9596 0,5.20018 -10.0859,14.60038 -9.60464,-4.57126 4.69054,-10.02912 -34.94323,-0.11428 0.11429,-30.1718 34.82894,0 -4.5145,-9.77216 9.77144,-4.57127 z"
           style="font-size:27.35079765px;font-style:normal;font-variant:normal;font-weight:normal;font-stretch:normal;text-align:center;line-height:100%;writing-mode:lr-tb;text-anchor:middle;fill:#ff0000;fill-opacity:1;fill-rule:evenodd;stroke:#000000;stroke-width:1px;stroke-linecap:butt;stroke-linejoin:miter;stroke-opacity:1;font-family:Verdana"
           inkscape:connector-curvature="0" />
        <path
           id="path1532"
           d="m -102.9797,250.24466 c -2,10 -2,10 -2,10 l 2,10"
           style="font-size:27.35079765px;font-style:normal;font-variant:normal;font-weight:normal;font-stretch:normal;text-align:center;line-height:100%;writing-mode:lr-tb;text-anchor:middle;fill:#ff0000;fill-opacity:1;fill-rule:evenodd;stroke:#000000;stroke-width:1px;stroke-linecap:butt;stroke-linejoin:miter;stroke-opacity:1;font-family:Verdana"
           inkscape:connector-curvature="0" />
      </g>
    </g>
    <g
       id="g3963"
       style="fill:#ff0000;fill-opacity:1"
       transform="translate(-100,84)">
      <g
         id="use8201"
         transform="matrix(0.588968,0,0,0.581043,355.96037,-0.09219216)"
         style="fill:#ff0000;fill-opacity:1">
        <path
           sodipodi:nodetypes="cccccccccccccc"
           id="path1500"
           d="m -112.72276,230.81533 9.74306,14.22915 0,5.20018 -10.09636,10.0404 10.09636,9.9596 0,5.20018 -10.0859,14.60038 -9.60464,-4.57126 4.69054,-10.02912 -34.94323,-0.11428 0.11429,-30.1718 34.82894,0 -4.5145,-9.77216 9.77144,-4.57127 z"
           style="fill:#ff0000;fill-opacity:1;fill-rule:evenodd;stroke:#000000;stroke-width:1px;stroke-linecap:butt;stroke-linejoin:miter;stroke-opacity:1"
           inkscape:connector-curvature="0" />
        <path
           id="path1502"
           d="m -102.9797,250.24466 c -2,10 -2,10 -2,10 l 2,10"
           style="fill:#ff0000;fill-opacity:1;fill-rule:evenodd;stroke:#000000;stroke-width:1px;stroke-linecap:butt;stroke-linejoin:miter;stroke-opacity:1"
           inkscape:connector-curvature="0" />
      </g>
    </g>
    <g
       id="g1461"
       style="fill:#00aa00;fill-opacity:1">
      <path
         sodipodi:nodetypes="cccccccccccccc"
         id="path8203"
         d="M 356.81981,324.08832 L 362.47014,332.34027 L 362.47014,335.35603 L 356.61492,341.17879 L 362.47014,346.95469 L 362.47014,349.97044 L 356.62099,358.43768 L 351.05094,355.78666 L 353.77114,349.97044 L 333.50641,349.90417 L 333.57269,332.40655 L 353.77114,332.40655 L 351.15303,326.73935 L 356.81981,324.08832 z "
         style="fill:#00aa00;fill-opacity:1;fill-rule:evenodd;stroke:#000000;stroke-width:0.57993298999999998px;stroke-linecap:butt;stroke-linejoin:miter;stroke-opacity:1" />
      <path
         id="path8205"
         d="M 362.47014,335.35603 C 361.31027,341.15536 361.31027,341.15536 361.31027,341.15536 L 362.47014,346.95469"
         style="fill:#00aa00;fill-opacity:1;fill-rule:evenodd;stroke:#000000;stroke-width:0.57993298999999998px;stroke-linecap:butt;stroke-linejoin:miter;stroke-opacity:1" />
    </g>
    <text
       xml:space="preserve"
       style="font-size:16px;font-style:normal;font-variant:normal;font-weight:normal;font-stretch:normal;text-align:center;line-height:100%;writing-mode:lr-tb;text-anchor:middle;fill:#000000;fill-opacity:1;stroke:none;font-family:Verdana"
       x="266.96091"
       y="219.28931"
       id="text4159"
       sodipodi:linespacing="100%"
       transform="matrix(0,1,-1,0,0,0)"><tspan
         sodipodi:role="line"
         x="266.96091"
         y="219.28931"
         id="tspan4163">Schwarzenbeck</tspan></text>
    <text
       xml:space="preserve"
       style="font-size:16px;font-style:normal;font-variant:normal;font-weight:normal;font-stretch:normal;text-align:center;line-height:100%;writing-mode:lr-tb;text-anchor:middle;fill:#000000;fill-opacity:1;stroke:none;font-family:Verdana"
       x="412.23676"
       y="234.2767"
       id="text4167"
       sodipodi:linespacing="100%"
       transform="matrix(0,1,-1,0,0,0)"><tspan
         sodipodi:role="line"
         x="412.23676"
         y="234.2767"
         id="tspan4171">Beckenbauer</tspan></text>
    <text
       xml:space="preserve"
       style="font-size:16px;font-style:normal;font-variant:normal;font-weight:normal;font-stretch:normal;text-align:center;line-height:100%;writing-mode:lr-tb;text-anchor:middle;fill:#000000;fill-opacity:1;stroke:none;font-family:Verdana"
       x="339.99954"
       y="-372.38358"
       id="text4181"
       sodipodi:linespacing="100%"
       transform="matrix(0,1,-1,0,0,0)"><tspan
         sodipodi:role="line"
         x="339.99954"
         y="-372.38358"
         id="tspan4185">Viktor</tspan></text>
    <text
       xml:space="preserve"
       style="font-size:16px;font-style:normal;font-variant:normal;font-weight:normal;font-stretch:normal;text-align:center;line-height:100%;writing-mode:lr-tb;text-anchor:middle;fill:#000000;fill-opacity:1;stroke:none;font-family:Verdana"
       x="235.02277"
       y="-202.30725"
       id="text4187"
       sodipodi:linespacing="100%"
       transform="matrix(0,1,-1,0,0,0)"><tspan
         sodipodi:role="line"
         x="235.02277"
         y="-202.30725"
         id="tspan4191">Dobiaš</tspan></text>
    <g
       style="fill:#ffffff;fill-opacity:1"
       transform="matrix(0.588968,0,0,0.581043,-113.30111,381.42352)"
       id="g8358">
      <path
         style="fill:#ffffff;fill-opacity:1;fill-rule:evenodd;stroke:#000000;stroke-width:1px;stroke-linecap:butt;stroke-linejoin:miter;stroke-opacity:1"
         d="m -112.72276,230.81533 9.74306,14.22915 0,5.20018 -10.09636,10.0404 10.09636,9.9596 0,5.20018 -10.0859,14.60038 -9.60464,-4.57126 4.69054,-10.02912 -34.94323,-0.11428 0.11429,-30.1718 34.82894,0 -4.5145,-9.77216 9.77144,-4.57127 z"
         id="path8360"
         sodipodi:nodetypes="cccccccccccccc"
         inkscape:connector-curvature="0" />
      <path
         style="fill:#ffffff;fill-opacity:1;fill-rule:evenodd;stroke:#000000;stroke-width:1px;stroke-linecap:butt;stroke-linejoin:miter;stroke-opacity:1"
         d="m -102.9797,250.24466 c -2,10 -2,10 -2,10 l 2,10"
         id="path8362"
         inkscape:connector-curvature="0" />
    </g>
    <text
       xml:space="preserve"
       style="font-size:16px;font-style:normal;font-variant:normal;font-weight:normal;font-stretch:normal;text-align:center;line-height:100%;writing-mode:lr-tb;text-anchor:middle;fill:#000000;fill-opacity:1;stroke:none;font-family:Verdana"
       x="532.94421"
       y="217.76877"
       id="text8364"
       sodipodi:linespacing="100%"
       transform="matrix(0,1,-1,0,0,0)"><tspan
         sodipodi:role="line"
         x="532.94421"
         y="217.76877"
         id="tspan8366">Vogts</tspan></text>
    <g
       style="fill:#ffffff;fill-opacity:1"
       transform="matrix(0.588968,0,0,0.581043,-113.97887,-3.7695033)"
       id="g8368">
      <path
         style="fill:#ffffff;fill-opacity:1;fill-rule:evenodd;stroke:#000000;stroke-width:1px;stroke-linecap:butt;stroke-linejoin:miter;stroke-opacity:1"
         d="m -112.72276,230.81533 9.74306,14.22915 0,5.20018 -10.09636,10.0404 10.09636,9.9596 0,5.20018 -10.0859,14.60038 -9.60464,-4.57126 4.69054,-10.02912 -34.94323,-0.11428 0.11429,-30.1718 34.82894,0 -4.5145,-9.77216 9.77144,-4.57127 z"
         id="path8370"
         sodipodi:nodetypes="cccccccccccccc"
         inkscape:connector-curvature="0" />
      <path
         style="fill:#ffffff;fill-opacity:1;fill-rule:evenodd;stroke:#000000;stroke-width:1px;stroke-linecap:butt;stroke-linejoin:miter;stroke-opacity:1"
         d="m -102.9797,250.24466 c -2,10 -2,10 -2,10 l 2,10"
         id="path8372"
         inkscape:connector-curvature="0" />
    </g>
    <text
       xml:space="preserve"
       style="font-size:16px;font-style:normal;font-variant:normal;font-weight:normal;font-stretch:normal;text-align:center;line-height:100%;writing-mode:lr-tb;text-anchor:middle;fill:#000000;fill-opacity:1;stroke:none;font-family:Verdana"
       x="147.19437"
       y="220.72008"
       id="text8374"
       sodipodi:linespacing="100%"
       transform="matrix(0,1,-1,0,0,0)"><tspan
         sodipodi:role="line"
         x="147.19437"
         y="220.72008"
         id="tspan8376">Dietz</tspan></text>
    <g
       style="fill:#ffffff;fill-opacity:1"
       transform="matrix(0.588968,0,0,0.581043,-4.493432,190.79688)"
       id="g8436">
      <path
         style="fill:#ffffff;fill-opacity:1;fill-rule:evenodd;stroke:#000000;stroke-width:1px;stroke-linecap:butt;stroke-linejoin:miter;stroke-opacity:1"
         d="m -112.72276,230.81533 9.74306,14.22915 0,5.20018 -10.09636,10.0404 10.09636,9.9596 0,5.20018 -10.0859,14.60038 -9.60464,-4.57126 4.69054,-10.02912 -34.94323,-0.11428 0.11429,-30.1718 34.82894,0 -4.5145,-9.77216 9.77144,-4.57127 z"
         id="path8438"
         sodipodi:nodetypes="cccccccccccccc"
         inkscape:connector-curvature="0" />
      <path
         style="fill:#ffffff;fill-opacity:1;fill-rule:evenodd;stroke:#000000;stroke-width:1px;stroke-linecap:butt;stroke-linejoin:miter;stroke-opacity:1"
         d="m -102.9797,250.24466 c -2,10 -2,10 -2,10 l 2,10"
         id="path8440"
         inkscape:connector-curvature="0" />
    </g>
    <use
       x="0"
       y="0"
       xlink:href="#use8001"
       id="use8442"
       transform="translate(208.54585,-71.202636)"
       width="534"
       height="738"
       style="fill:#f60909;fill-opacity:1" />
    <text
       xml:space="preserve"
       style="font-size:16px;font-style:normal;font-variant:normal;font-weight:normal;font-stretch:normal;text-align:center;line-height:100%;writing-mode:lr-tb;text-anchor:middle;fill:#000000;fill-opacity:1;stroke:none;font-family:Verdana"
       x="339.61053"
       y="28.976242"
       id="text8444"
       sodipodi:linespacing="100%"
       transform="matrix(0,1,-1,0,0,0)"><tspan
         sodipodi:role="line"
         x="339.61053"
         y="28.976242"
         id="tspan8446">Müller</tspan></text>
    <text
       xml:space="preserve"
       style="font-size:16px;font-style:normal;font-variant:normal;font-weight:normal;font-stretch:normal;text-align:center;line-height:100%;writing-mode:lr-tb;text-anchor:middle;fill:#000000;fill-opacity:1;stroke:none;font-family:Verdana"
       x="341.76071"
       y="111.23465"
       id="text8448"
       sodipodi:linespacing="100%"
       transform="matrix(0,1,-1,0,0,0)"><tspan
         sodipodi:role="line"
         x="341.76071"
         y="111.23465"
         id="tspan8450">Beer</tspan></text>
    <g
       style="fill:#ffffff;fill-opacity:1"
       transform="matrix(0.588968,0,0,0.581043,-23.419882,302.4553)"
       id="g8452">
      <path
         style="fill:#ffffff;fill-opacity:1;fill-rule:evenodd;stroke:#000000;stroke-width:1px;stroke-linecap:butt;stroke-linejoin:miter;stroke-opacity:1"
         d="m -112.72276,230.81533 9.74306,14.22915 0,5.20018 -10.09636,10.0404 10.09636,9.9596 0,5.20018 -10.0859,14.60038 -9.60464,-4.57126 4.69054,-10.02912 -34.94323,-0.11428 0.11429,-30.1718 34.82894,0 -4.5145,-9.77216 9.77144,-4.57127 z"
         id="path8454"
         sodipodi:nodetypes="cccccccccccccc"
         inkscape:connector-curvature="0" />
      <path
         style="fill:#ffffff;fill-opacity:1;fill-rule:evenodd;stroke:#000000;stroke-width:1px;stroke-linecap:butt;stroke-linejoin:miter;stroke-opacity:1"
         d="m -102.9797,250.24466 c -2,10 -2,10 -2,10 l 2,10"
         id="path8456"
         inkscape:connector-curvature="0" />
    </g>
    <text
       xml:space="preserve"
       style="font-size:16px;font-style:normal;font-variant:normal;font-weight:normal;font-stretch:normal;text-align:center;line-height:100%;writing-mode:lr-tb;text-anchor:middle;fill:#000000;fill-opacity:1;stroke:none;font-family:Verdana"
       x="453.96948"
       y="130.80212"
       id="text8458"
       sodipodi:linespacing="100%"
       transform="matrix(0,1,-1,0,0,0)"><tspan
         sodipodi:role="line"
         x="453.96948"
         y="130.80212"
         id="tspan8460">Bonhof</tspan></text>
    <g
       style="fill:#ffffff;fill-opacity:1"
       transform="matrix(0.588968,0,0,0.581043,55.506568,346.79688)"
       id="g8462">
      <path
         style="fill:#ffffff;fill-opacity:1;fill-rule:evenodd;stroke:#000000;stroke-width:1px;stroke-linecap:butt;stroke-linejoin:miter;stroke-opacity:1"
         d="m -112.72276,230.81533 9.74306,14.22915 0,5.20018 -10.09636,10.0404 10.09636,9.9596 0,5.20018 -10.0859,14.60038 -9.60464,-4.57126 4.69054,-10.02912 -34.94323,-0.11428 0.11429,-30.1718 34.82894,0 -4.5145,-9.77216 9.77144,-4.57127 z"
         id="path8464"
         sodipodi:nodetypes="cccccccccccccc"
         inkscape:connector-curvature="0" />
      <path
         style="fill:#ffffff;fill-opacity:1;fill-rule:evenodd;stroke:#000000;stroke-width:1px;stroke-linecap:butt;stroke-linejoin:miter;stroke-opacity:1"
         d="m -102.9797,250.24466 c -2,10 -2,10 -2,10 l 2,10"
         id="path8466"
         inkscape:connector-curvature="0" />
    </g>
    <text
       xml:space="preserve"
       style="font-size:16px;font-style:normal;font-variant:normal;font-weight:normal;font-stretch:normal;text-align:center;line-height:100%;writing-mode:lr-tb;text-anchor:middle;fill:#000000;fill-opacity:1;stroke:none;font-family:Verdana"
       x="498.32568"
       y="49.718918"
       id="text8468"
       sodipodi:linespacing="100%"
       transform="matrix(0,1,-1,0,0,0)"><tspan
         sodipodi:role="line"
         x="498.32568"
         y="49.718918"
         id="tspan8470">Hoeneß</tspan></text>
    <g
       id="g3988"
       style="fill:#ff0000;fill-opacity:1"
       transform="translate(-116.99999,-158.90625)">
      <g
         style="fill:#ff0000;fill-opacity:1"
         id="g9482"
         transform="matrix(0.588968,0,0,0.581043,283.50657,190.49629)">
        <g
           id="g3445"
           style="fill:#ff0000;fill-opacity:1">
          <path
             style="fill:#ff0000;fill-opacity:1;fill-rule:evenodd;stroke:#000000;stroke-width:1px;stroke-linecap:butt;stroke-linejoin:miter;stroke-opacity:1"
             d="m -112.72276,230.81533 9.74306,14.22915 0,5.20018 -10.09636,10.0404 10.09636,9.9596 0,5.20018 -10.0859,14.60038 -9.60464,-4.57126 4.69054,-10.02912 -34.94323,-0.11428 0.11429,-30.1718 34.82894,0 -4.5145,-9.77216 9.77144,-4.57127 z"
             id="path9484"
             sodipodi:nodetypes="cccccccccccccc"
             inkscape:connector-curvature="0" />
          <path
             style="fill:#ff0000;fill-opacity:1;fill-rule:evenodd;stroke:#000000;stroke-width:1px;stroke-linecap:butt;stroke-linejoin:miter;stroke-opacity:1"
             d="m -102.9797,250.24466 c -2,10 -2,10 -2,10 l 2,10"
             id="path9486"
             inkscape:connector-curvature="0" />
        </g>
      </g>
    </g>
    <text
       xml:space="preserve"
       style="font-size:16px;font-style:normal;font-variant:normal;font-weight:normal;font-stretch:normal;text-align:center;line-height:100%;writing-mode:lr-tb;text-anchor:middle;fill:#000000;fill-opacity:1;stroke:none;font-family:Verdana"
       x="182.76028"
       y="-111.51615"
       id="text9488"
       sodipodi:linespacing="100%"
       transform="matrix(0,1,-1,0,0,0)"><tspan
         sodipodi:role="line"
         x="182.76028"
         y="-111.51615"
         id="tspan9490">Masný</tspan></text>
    <text
       xml:space="preserve"
       style="font-size:16px;font-style:normal;font-variant:normal;font-weight:normal;font-stretch:normal;text-align:center;line-height:100%;writing-mode:lr-tb;text-anchor:middle;fill:#000000;fill-opacity:1;stroke:none;font-family:Verdana"
       x="343.10095"
       y="-182.85001"
       id="text9492"
       sodipodi:linespacing="100%"
       transform="matrix(0,1,-1,0,0,0)"><tspan
         sodipodi:role="line"
         x="343.10095"
         y="-182.85001"
         id="tspan9494">Panenka</tspan></text>
    <text
       xml:space="preserve"
       style="font-size:16px;font-style:normal;font-variant:normal;font-weight:normal;font-stretch:normal;text-align:center;line-height:100%;writing-mode:lr-tb;text-anchor:middle;fill:#000000;fill-opacity:1;stroke:none;font-family:Verdana"
       x="339.62549"
       y="-97.716087"
       id="text9496"
       sodipodi:linespacing="100%"
       transform="matrix(0,1,-1,0,0,0)"><tspan
         sodipodi:role="line"
         x="339.62549"
         y="-97.716087"
         id="tspan9498">Švehlík</tspan></text>
    <g
       id="g4010"
       style="fill:#ff0000;fill-opacity:1"
       transform="translate(6,0)">
      <g
         style="fill:#ff0000;fill-opacity:1"
         transform="matrix(0.588968,0,0,0.581043,146.67205,189.84175)"
         id="g9500">
        <path
           style="fill:#ff0000;fill-opacity:1;fill-rule:evenodd;stroke:#000000;stroke-width:1px;stroke-linecap:butt;stroke-linejoin:miter;stroke-opacity:1"
           d="m -112.72276,230.81533 9.74306,14.22915 0,5.20018 -10.09636,10.0404 10.09636,9.9596 0,5.20018 -10.0859,14.60038 -9.60464,-4.57126 4.69054,-10.02912 -34.94323,-0.11428 0.11429,-30.1718 34.82894,0 -4.5145,-9.77216 9.77144,-4.57127 z"
           id="path9502"
           sodipodi:nodetypes="cccccccccccccc"
           inkscape:connector-curvature="0" />
        <path
           style="fill:#ff0000;fill-opacity:1;fill-rule:evenodd;stroke:#000000;stroke-width:1px;stroke-linecap:butt;stroke-linejoin:miter;stroke-opacity:1"
           d="m -102.9797,250.24466 c -2,10 -2,10 -2,10 l 2,10"
           id="path9504"
           inkscape:connector-curvature="0" />
      </g>
    </g>
    <g
       id="g4000"
       style="fill:#ff0000;fill-opacity:1"
       transform="translate(25.349614,74.00001)">
      <g
         id="g9506"
         transform="matrix(0.588968,0,0,0.581043,212.50037,116.63423)"
         style="fill:#ff0000;fill-opacity:1">
        <path
           sodipodi:nodetypes="cccccccccccccc"
           id="path9508"
           d="m -112.72276,230.81533 9.74306,14.22915 0,5.20018 -10.09636,10.0404 10.09636,9.9596 0,5.20018 -10.0859,14.60038 -9.60464,-4.57126 4.69054,-10.02912 -34.94323,-0.11428 0.11429,-30.1718 34.82894,0 -4.5145,-9.77216 9.77144,-4.57127 z"
           style="fill:#ff0000;fill-opacity:1;fill-rule:evenodd;stroke:#000000;stroke-width:1px;stroke-linecap:butt;stroke-linejoin:miter;stroke-opacity:1"
           inkscape:connector-curvature="0" />
        <path
           id="path9510"
           d="m -102.9797,250.24466 c -2,10 -2,10 -2,10 l 2,10"
           style="fill:#ff0000;fill-opacity:1;fill-rule:evenodd;stroke:#000000;stroke-width:1px;stroke-linecap:butt;stroke-linejoin:miter;stroke-opacity:1"
           inkscape:connector-curvature="0" />
      </g>
    </g>
    <g
       id="g9512"
       style="fill:#ffffff;fill-opacity:1"
       transform="translate(177.86494,-104.92721)">
      <path
         sodipodi:nodetypes="cccccccccccccc"
         id="path9514"
         d="m -267.79597,322.90416 5.65033,8.25195 0,3.01576 -5.85522,5.82276 5.85522,5.7759 0,3.01575 -5.84915,8.46724 -5.57005,-2.65102 2.7202,-5.81622 -20.26473,-0.0663 0.0663,-17.49762 20.19845,0 -2.61811,-5.6672 5.66678,-2.65103 z"
         style="fill:#ffffff;fill-opacity:1;fill-rule:evenodd;stroke:#000000;stroke-width:0.57993299px;stroke-linecap:butt;stroke-linejoin:miter;stroke-opacity:1"
         inkscape:connector-curvature="0" />
      <path
         id="path9516"
         d="m -262.14564,334.17187 c -1.15987,5.79933 -1.15987,5.79933 -1.15987,5.79933 l 1.15987,5.79933"
         style="fill:#ffffff;fill-opacity:1;fill-rule:evenodd;stroke:#000000;stroke-width:0.57993299px;stroke-linecap:butt;stroke-linejoin:miter;stroke-opacity:1"
         inkscape:connector-curvature="0" />
    </g>
    <text
       xml:space="preserve"
       style="font-size:16px;font-style:normal;font-variant:normal;font-weight:normal;font-stretch:normal;text-align:center;line-height:100%;writing-mode:lr-tb;text-anchor:middle;fill:#000000;fill-opacity:1;stroke:none;font-family:Verdana"
       x="234.84406"
       y="131.62282"
       id="text9518"
       sodipodi:linespacing="100%"
       transform="matrix(0,1,-1,0,0,0)"><tspan
         sodipodi:role="line"
         x="234.84406"
         y="131.62282"
         id="tspan9520">Wimmer</tspan></text>
    <g
       id="g9522"
       style="fill:#ffffff;fill-opacity:1"
       transform="translate(256.85714,-156.92721)">
      <path
         sodipodi:nodetypes="cccccccccccccc"
         id="path9524"
         d="m -267.79597,322.90416 5.65033,8.25195 0,3.01576 -5.85522,5.82276 5.85522,5.7759 0,3.01575 -5.84915,8.46724 -5.57005,-2.65102 2.7202,-5.81622 -20.26473,-0.0663 0.0663,-17.49762 20.19845,0 -2.61811,-5.6672 5.66678,-2.65103 z"
         style="fill:#ffffff;fill-opacity:1;fill-rule:evenodd;stroke:#000000;stroke-width:0.57993299px;stroke-linecap:butt;stroke-linejoin:miter;stroke-opacity:1"
         inkscape:connector-curvature="0" />
      <path
         id="path9526"
         d="m -262.14564,334.17187 c -1.15987,5.79933 -1.15987,5.79933 -1.15987,5.79933 l 1.15987,5.79933"
         style="fill:#ffffff;fill-opacity:1;fill-rule:evenodd;stroke:#000000;stroke-width:0.57993299px;stroke-linecap:butt;stroke-linejoin:miter;stroke-opacity:1"
         inkscape:connector-curvature="0" />
    </g>
    <text
       xml:space="preserve"
       style="font-size:16px;font-style:normal;font-variant:normal;font-weight:normal;font-stretch:normal;text-align:center;line-height:100%;writing-mode:lr-tb;text-anchor:middle;fill:#000000;fill-opacity:1;stroke:none;font-family:Verdana"
       x="182.76404"
       y="49.611778"
       id="text9528"
       sodipodi:linespacing="100%"
       transform="matrix(0,1,-1,0,0,0)"><tspan
         sodipodi:role="line"
         x="182.76404"
         y="49.611778"
         id="tspan9530">Hölzenbein</tspan></text>
  </g>
</svg>
