<?xml version="1.0" encoding="UTF-8" standalone="no"?>
<!-- Created with Inkscape (http://www.inkscape.org/) -->

<svg
   xmlns:dc="http://purl.org/dc/elements/1.1/"
   xmlns:cc="http://creativecommons.org/ns#"
   xmlns:rdf="http://www.w3.org/1999/02/22-rdf-syntax-ns#"
   xmlns:svg="http://www.w3.org/2000/svg"
   xmlns="http://www.w3.org/2000/svg"
   xmlns:sodipodi="http://sodipodi.sourceforge.net/DTD/sodipodi-0.dtd"
   xmlns:inkscape="http://www.inkscape.org/namespaces/inkscape"
   width="80.000023mm"
   height="72.98716mm"
   viewBox="0 0 80.000023 72.98716"
   version="1.1"
   id="svg24905"
   inkscape:version="0.92.4 (5da689c313, 2019-01-14)"
   sodipodi:docname="Costa Rican Football Federation logo.svg">
  <defs
     id="defs24899" />
  <sodipodi:namedview
     id="base"
     pagecolor="#ffffff"
     bordercolor="#666666"
     borderopacity="1.0"
     inkscape:pageopacity="0.0"
     inkscape:pageshadow="2"
     inkscape:zoom="0.7"
     inkscape:cx="36.867211"
     inkscape:cy="-60.098192"
     inkscape:document-units="mm"
     inkscape:current-layer="layer1"
     showgrid="false"
     inkscape:window-width="1366"
     inkscape:window-height="705"
     inkscape:window-x="-8"
     inkscape:window-y="-8"
     inkscape:window-maximized="1" />
  <metadata
     id="metadata24902">
    <rdf:RDF>
      <cc:Work
         rdf:about="">
        <dc:format>image/svg+xml</dc:format>
        <dc:type
           rdf:resource="http://purl.org/dc/dcmitype/StillImage" />
        <dc:title></dc:title>
      </cc:Work>
    </rdf:RDF>
  </metadata>
  <g
     inkscape:label="Layer 1"
     inkscape:groupmode="layer"
     id="layer1"
     transform="translate(-82.849717,-59.945191)">
    <path
       inkscape:connector-curvature="0"
       style="fill:#000000;fill-opacity:1;fill-rule:evenodd;stroke:none;stroke-width:1.13796246"
       d="m 156.19051,113.22051 4.44072,1.62696 -0.32893,0.90236 -3.68951,-1.35135 -0.81792,2.24036 -0.75565,-0.27548 z m 0,0"
       id="path21847" />
    <path
       inkscape:connector-curvature="0"
       style="fill:#000000;fill-opacity:1;fill-rule:evenodd;stroke:none;stroke-width:1.13796246"
       d="m 159.56884,109.65551 c -0.52454,-0.12452 -0.95127,-0.0977 -1.28019,0.08 -0.32896,0.17774 -0.53789,0.45341 -0.62679,0.82234 -0.0845,0.37341 -0.0226,0.70679 0.19128,1.00907 0.20903,0.30225 0.58676,0.51563 1.12465,0.64456 0.5334,0.12451 0.96013,0.10226 1.27574,-0.0668 0.31547,-0.16903 0.52008,-0.44454 0.60898,-0.83127 0.0932,-0.38228 0.0323,-0.72011 -0.17774,-1.01794 -0.20902,-0.29773 -0.5823,-0.51118 -1.11571,-0.64011 m 0.19548,-0.96904 c 0.47563,0.11129 0.85791,0.27548 1.14239,0.49341 0.21354,0.15999 0.39118,0.35118 0.53789,0.57788 0.14677,0.22677 0.23999,0.45783 0.27548,0.69789 0.0577,0.31547 0.04,0.66234 -0.049,1.04016 -0.15999,0.67566 -0.5023,1.17352 -1.02239,1.48025 -0.52453,0.30677 -1.16464,0.37338 -1.9203,0.19129 -0.75124,-0.17774 -1.28913,-0.51563 -1.61805,-1.02239 -0.32893,-0.50676 -0.41341,-1.09797 -0.24903,-1.77808 0.16,-0.68457 0.49786,-1.18242 1.01794,-1.48467 0.51566,-0.30677 1.14687,-0.37341 1.88476,-0.19548"
       id="path21849" />
    <path
       inkscape:connector-curvature="0"
       id="path21851"
       d="m 161.83142,105.11698 -1.09352,-0.12903 -0.071,0.62676 c -0.0445,0.36451 -0.0623,0.59566 -0.0623,0.68456 0,0.16452 0.04,0.30225 0.12451,0.40451 0.0845,0.10225 0.2,0.16 0.35564,0.17774 0.14225,0.0161 0.26677,-0.01 0.36892,-0.0755 0.0977,-0.0713 0.16903,-0.18225 0.20903,-0.33782 0.0161,-0.0932 0.0577,-0.36451 0.10677,-0.80902 z m -1.88475,-0.21773 -1.26687,-0.14226 -0.0977,0.88014 c -0.04,0.34228 -0.0577,0.56008 -0.049,0.65343 0.0129,0.14226 0.0623,0.26677 0.15096,0.36451 0.089,0.10226 0.21774,0.16 0.38673,0.18225 0.14226,0.0129 0.26677,-0.003 0.37341,-0.0623 0.10677,-0.0577 0.19129,-0.15129 0.25322,-0.27129 0.0577,-0.12451 0.11129,-0.4045 0.16,-0.84013 z m 2.78266,-0.64899 -0.21354,1.88473 c -0.0445,0.37341 -0.0932,0.64901 -0.14225,0.82681 -0.0532,0.18226 -0.13774,0.33783 -0.25322,0.47119 -0.11548,0.13322 -0.26225,0.23999 -0.43564,0.31547 -0.17773,0.0755 -0.36892,0.10226 -0.5734,0.08 -0.22225,-0.0258 -0.41786,-0.10645 -0.58676,-0.24903 -0.17322,-0.13773 -0.29354,-0.31547 -0.36451,-0.52898 -0.11548,0.27999 -0.2845,0.48453 -0.50676,0.61788 -0.21773,0.12903 -0.46673,0.17774 -0.73788,0.14677 -0.21774,-0.0258 -0.41786,-0.0977 -0.61343,-0.22225 -0.19129,-0.11999 -0.33783,-0.27547 -0.44009,-0.46231 -0.10225,-0.18677 -0.15129,-0.40895 -0.15129,-0.66675 0,-0.15548 0.0323,-0.53789 0.0977,-1.14688 l 0.18226,-1.6047 z m 0,0"
       style="clip-rule:nonzero;fill:#000000;fill-opacity:1;fill-rule:evenodd;stroke:none;stroke-width:1.13796246" />
    <path
       inkscape:connector-curvature="0"
       id="path21855"
       d="m 158.05749,100.83629 3.96509,0.0623 0.0226,-1.409126 0.80456,0.0129 -0.0577,3.769516 -0.80456,-0.0129 0.0226,-1.40022 -3.96509,-0.0623 z m 0,0"
       style="clip-rule:nonzero;fill:#000000;fill-opacity:1;fill-rule:evenodd;stroke:none;stroke-width:1.13796246" />
    <path
       inkscape:connector-curvature="0"
       id="path21859"
       d="m 162.51598,94.69752 0.0755,0.955716 -2.58264,0.204511 c -0.40896,0.03548 -0.67566,0.06677 -0.79124,0.09774 -0.19129,0.05774 -0.34228,0.169028 -0.44899,0.333378 -0.10226,0.164512 -0.14677,0.377829 -0.12451,0.644564 0.0226,0.271283 0.0932,0.475632 0.21354,0.600081 0.12451,0.129028 0.26677,0.20451 0.43118,0.217736 0.16451,0.0129 0.43564,0.0097 0.8135,-0.02258 l 2.63596,-0.209027 0.0755,0.955716 -2.49819,0.199995 c -0.56899,0.04452 -0.97794,0.04903 -1.21797,0.01613 -0.23999,-0.03226 -0.4445,-0.111288 -0.61789,-0.235478 -0.17322,-0.129029 -0.31547,-0.306766 -0.43118,-0.528954 -0.11548,-0.226768 -0.19128,-0.524534 -0.21773,-0.902395 -0.0355,-0.453407 -0.0129,-0.80014 0.0755,-1.040166 0.0845,-0.239993 0.20903,-0.440052 0.3645,-0.586758 0.15548,-0.151286 0.32451,-0.253542 0.50677,-0.311282 0.26676,-0.08451 0.66675,-0.14677 1.20019,-0.191285 z m 0,0"
       style="clip-rule:nonzero;fill:#000000;fill-opacity:1;fill-rule:evenodd;stroke:none;stroke-width:1.13796246" />
    <path
       inkscape:connector-curvature="0"
       style="fill:#000000;fill-opacity:1;fill-rule:evenodd;stroke:none;stroke-width:1.13796246"
       d="m 157.08842,91.225838 4.68965,-0.857912 0.58679,3.200527 -0.79124,0.146771 -0.41341,-2.258134 -1.11129,0.204511 0.3556,1.946948 -0.78678,0.14677 -0.36006,-1.951399 -1.99588,0.368925 z m 0,0"
       id="path21863" />
    <path
       inkscape:connector-curvature="0"
       style="fill:#000000;fill-opacity:1;fill-rule:evenodd;stroke:none;stroke-width:1.13796246"
       d="m 153.78567,83.344565 4.30737,-2.053687 1.51134,3.173883 -0.72456,0.346701 -1.10239,-2.307036 -0.95571,0.457859 1.02239,2.142556 -0.72456,0.346732 -1.02239,-2.142587 -1.17352,0.560114 1.14239,2.391484 -0.72456,0.342281 z m 0,0"
       id="path21865" />
    <path
       inkscape:connector-curvature="0"
       style="fill:#000000;fill-opacity:1;fill-rule:evenodd;stroke:none;stroke-width:1.13796246"
       d="m 155.30147,78.08148 -2.70264,1.635827 0.36893,0.608984 c 0.13773,0.226768 0.24902,0.386732 0.33783,0.471181 0.11128,0.115481 0.23547,0.186769 0.36895,0.226768 0.12903,0.04 0.30677,0.03226 0.52454,-0.02581 0.21322,-0.05322 0.48008,-0.177737 0.79569,-0.368925 0.31547,-0.191285 0.5423,-0.364507 0.67566,-0.524535 0.13773,-0.155479 0.22225,-0.311282 0.25773,-0.466761 0.0355,-0.15548 0.0226,-0.324475 -0.0355,-0.493406 -0.0445,-0.133223 -0.16451,-0.364507 -0.36896,-0.697885 z m 0.19128,-1.240192 0.9024,1.498024 c 0.20451,0.33783 0.33783,0.613435 0.39115,0.822333 0.0755,0.275476 0.0713,0.555662 -0.003,0.835719 -0.0755,0.279993 -0.21773,0.542309 -0.42673,0.786786 -0.20902,0.244509 -0.50231,0.484503 -0.88459,0.715658 -0.33338,0.204511 -0.64898,0.33783 -0.94236,0.400086 -0.35563,0.08 -0.68456,0.08 -0.98239,0.0032 -0.22677,-0.05774 -0.44896,-0.182253 -0.67121,-0.377861 -0.16903,-0.14677 -0.34673,-0.373377 -0.52899,-0.675659 l -0.93349,-1.538024 z m 0,0"
       id="path21867" />
    <path
       inkscape:connector-curvature="0"
       style="fill:#000000;fill-opacity:1;fill-rule:evenodd;stroke:none;stroke-width:1.13796246"
       d="m 145.83327,72.809524 3.37833,-3.365006 2.48038,2.493739 -0.5645,0.568985 -1.80921,-1.813629 -0.7512,0.746787 1.67582,1.684729 -0.56898,0.568985 -1.67583,-1.68473 -0.92017,0.915718 1.87144,1.875853 -0.56899,0.568985 z m 0,0"
       id="path21869" />
    <path
       inkscape:connector-curvature="0"
       style="fill:#000000;fill-opacity:1;fill-rule:evenodd;stroke:none;stroke-width:1.13796246"
       d="m 143.2195,68.777761 0.80014,0.493406 c -0.14677,0.284509 -0.19548,0.533438 -0.14677,0.75569 0.0445,0.222252 0.18677,0.422279 0.41786,0.600081 0.24451,0.186769 0.46673,0.275476 0.67121,0.266767 0.20451,-0.0097 0.36008,-0.08451 0.46676,-0.226769 0.0668,-0.08871 0.0977,-0.182253 0.0932,-0.284508 -0.003,-0.102255 -0.0532,-0.231284 -0.14677,-0.373409 -0.0668,-0.102256 -0.22677,-0.311282 -0.48008,-0.631177 -0.33338,-0.413441 -0.52454,-0.75569 -0.57344,-1.026844 -0.071,-0.386731 0.003,-0.729012 0.23548,-1.026843 0.14677,-0.191285 0.33786,-0.328927 0.57789,-0.41786 0.23547,-0.08451 0.48895,-0.08903 0.76011,-0.02258 0.27128,0.06677 0.55566,0.21322 0.84459,0.435634 0.47118,0.360054 0.74678,0.737915 0.82678,1.129066 0.08,0.391183 -0.01,0.76456 -0.26225,1.124647 l -0.78679,-0.551211 c 0.11548,-0.222252 0.15548,-0.413408 0.11129,-0.582307 -0.04,-0.169027 -0.16903,-0.33341 -0.38225,-0.497857 -0.22225,-0.169028 -0.42676,-0.253542 -0.62233,-0.257735 -0.12903,-0.0032 -0.22677,0.04451 -0.30225,0.142254 -0.0668,0.08903 -0.0887,0.195479 -0.0623,0.315475 0.0323,0.15548 0.19999,0.41786 0.50673,0.791237 0.30225,0.368958 0.50676,0.666789 0.60901,0.897912 0.10677,0.226768 0.14677,0.46231 0.12452,0.702336 -0.0258,0.244509 -0.12903,0.484535 -0.31129,0.724561 -0.16902,0.213543 -0.38231,0.37341 -0.64901,0.471181 -0.26677,0.09774 -0.54676,0.111287 -0.83569,0.03548 -0.28902,-0.07548 -0.59566,-0.239994 -0.92459,-0.488955 -0.48008,-0.364506 -0.76014,-0.755689 -0.84459,-1.177968 -0.0887,-0.41786 0.01,-0.857913 0.28451,-1.320223"
       id="path21871" />
    <path
       inkscape:connector-curvature="0"
       style="fill:#000000;fill-opacity:1;fill-rule:evenodd;stroke:none;stroke-width:1.13796246"
       d="m 138.46318,67.862044 2.31148,-4.169566 0.81792,0.453407 0.15548,3.733932 1.54692,-2.79157 0.77792,0.431214 -2.31149,4.169534 -0.84014,-0.462278 -0.16903,-3.653935 -1.51134,2.720444 z m 0,0"
       id="path21873" />
    <path
       inkscape:connector-curvature="0"
       style="fill:#000000;fill-opacity:1;fill-rule:evenodd;stroke:none;stroke-width:1.13796246"
       d="m 134.4981,66.319569 1.68027,-4.462945 3.28942,1.244644 -0.27999,0.751238 -2.39149,-0.902363 -0.37783,0.991264 2.22256,0.840138 -0.28451,0.751238 -2.22257,-0.840138 -0.45785,1.213516 2.4804,0.937942 -0.28006,0.751238 z m 0,0"
       id="path21875" />
    <path
       inkscape:connector-curvature="0"
       style="fill:#000000;fill-opacity:1;fill-rule:evenodd;stroke:none;stroke-width:1.13796246"
       d="m 133.3468,64.185916 0.84013,0.488955 c -0.25779,0.480084 -0.57342,0.804559 -0.9557,0.977941 -0.37784,0.177738 -0.81791,0.209027 -1.31133,0.09322 -0.61788,-0.137738 -1.07572,-0.466762 -1.37355,-0.977942 -0.30225,-0.511212 -0.36896,-1.133518 -0.20003,-1.862531 0.17335,-0.777914 0.51119,-1.333545 1.0046,-1.671374 0.49786,-0.33783 1.06684,-0.431182 1.71585,-0.284509 0.56453,0.129029 0.98682,0.404505 1.26687,0.822365 0.16448,0.24451 0.25783,0.568985 0.2756,0.964587 l -0.97793,0.0097 c 0,-0.25322 -0.0711,-0.466762 -0.20893,-0.649015 -0.14226,-0.177738 -0.33784,-0.293218 -0.58677,-0.351152 -0.34228,-0.08 -0.64455,-0.01935 -0.91571,0.182253 -0.2667,0.195479 -0.46673,0.573436 -0.5912,1.124615 -0.13781,0.586759 -0.12445,1.031295 0.0313,1.329093 0.15558,0.293218 0.40007,0.484536 0.73346,0.560115 0.24892,0.05322 0.48007,0.02258 0.69789,-0.09322 0.21338,-0.119997 0.39561,-0.342281 0.55564,-0.662337"
       id="path21877" />
    <path
       inkscape:connector-curvature="0"
       style="fill:#000000;fill-opacity:1;fill-rule:evenodd;stroke:none;stroke-width:1.13796246"
       d="m 128.23486,65.026023 0.62677,-4.725196 0.95127,0.124512 -0.62677,4.725229 z m 0,0"
       id="path21879" />
    <path
       inkscape:connector-curvature="0"
       style="fill:#000000;fill-opacity:1;fill-rule:evenodd;stroke:none;stroke-width:1.13796246"
       d="m 124.64761,62.003329 0.69789,0.03226 c 0.45785,0.02258 0.74679,0.01613 0.85793,-0.01613 0.11557,-0.03226 0.20893,-0.09774 0.2756,-0.186769 0.0711,-0.09322 0.10664,-0.213543 0.11119,-0.355636 0.009,-0.159996 -0.0268,-0.293218 -0.10664,-0.395602 -0.0756,-0.102256 -0.19558,-0.169028 -0.34673,-0.199995 -0.0755,-0.01613 -0.3067,-0.03226 -0.69344,-0.04903 l -0.74236,-0.03548 z m -1.08906,2.707089 0.22225,-4.765227 2.00921,0.09322 c 0.50676,0.02581 0.87126,0.08451 1.09797,0.182253 0.22225,0.09774 0.40006,0.257735 0.52896,0.480084 0.12449,0.226768 0.18226,0.480084 0.16894,0.760109 -0.0178,0.360087 -0.13336,0.649015 -0.35117,0.871267 -0.2178,0.222252 -0.53342,0.355603 -0.95127,0.395635 0.20003,0.133222 0.36005,0.275476 0.48897,0.42673 0.1289,0.151286 0.29783,0.417828 0.50675,0.795689 l 0.53342,0.955716 -1.14685,-0.05322 -0.63122,-1.066843 c -0.2267,-0.38228 -0.38673,-0.622306 -0.47118,-0.724561 -0.0889,-0.09774 -0.18226,-0.169028 -0.28006,-0.209027 -0.0977,-0.04 -0.2578,-0.06677 -0.47563,-0.07548 l -0.19558,-0.0097 -0.0933,1.986979 z m 0,0"
       id="path21881" />
    <path
       inkscape:connector-curvature="0"
       style="fill:#000000;fill-opacity:1;fill-rule:evenodd;stroke:none;stroke-width:1.13796246"
       d="m 119.67792,62.158906 0.70233,-0.04452 c 0.45785,-0.03226 0.73791,-0.06677 0.84903,-0.115481 0.11119,-0.04452 0.19557,-0.119997 0.25338,-0.217736 0.0578,-0.09774 0.08,-0.217736 0.0711,-0.364474 -0.009,-0.159996 -0.0578,-0.284509 -0.15113,-0.377861 -0.0889,-0.09322 -0.21338,-0.151286 -0.36451,-0.164512 -0.08,-0.0032 -0.31115,0.0032 -0.69789,0.02581 l -0.7379,0.04903 z m -0.7779,2.809344 -0.31116,-4.756324 2.00921,-0.129029 c 0.50231,-0.03548 0.87571,-0.0129 1.1113,0.05774 0.23116,0.06677 0.42674,0.209027 0.57787,0.417828 0.15113,0.209026 0.23557,0.453407 0.25338,0.737916 0.0223,0.355603 -0.0623,0.657885 -0.25338,0.902363 -0.19116,0.244509 -0.48897,0.413376 -0.89792,0.502309 0.20893,0.106771 0.38672,0.226768 0.52897,0.364506 0.1467,0.137738 0.34227,0.38228 0.59565,0.737884 l 0.63566,0.88904 -1.14685,0.07548 -0.74679,-0.995715 c -0.2667,-0.351152 -0.45341,-0.573404 -0.54676,-0.662337 -0.0977,-0.08903 -0.20002,-0.151287 -0.30225,-0.177737 -0.10228,-0.03226 -0.26225,-0.03548 -0.48453,-0.02258 l -0.19112,0.0097 0.1289,1.986979 z m 0,0"
       id="path21883" />
    <path
       inkscape:connector-curvature="0"
       style="fill:#000000;fill-opacity:1;fill-rule:evenodd;stroke:none;stroke-width:1.13796246"
       d="m 116.45072,63.425775 -0.95126,-1.631376 -0.33783,1.849177 z m 2.04922,1.569152 -1.01794,0.173221 -0.59121,-1.000167 -1.88029,0.315476 -0.20893,1.133518 -1.00461,0.173221 1.02684,-5.009673 0.99127,-0.169027 z m 0,0"
       id="path21885" />
    <path
       inkscape:connector-curvature="0"
       style="fill:#000000;fill-opacity:1;fill-rule:evenodd;stroke:none;stroke-width:1.13796246"
       d="m 111.49436,66.426276 -1.02238,-3.831737 -1.36023,0.364507 -0.20893,-0.777915 3.6406,-0.97349 0.20893,0.777882 -1.35577,0.360088 1.02683,3.831736 z m 0,0"
       id="path21887" />
    <path
       inkscape:connector-curvature="0"
       style="fill:#000000;fill-opacity:1;fill-rule:evenodd;stroke:none;stroke-width:1.13796246"
       d="m 105.72899,67.248609 0.7779,-0.537857 c 0.20002,0.249026 0.40896,0.395602 0.63122,0.444504 0.22225,0.04452 0.46229,-0.0032 0.71567,-0.14677 0.2667,-0.14677 0.44006,-0.315476 0.51118,-0.506761 0.0756,-0.191285 0.0711,-0.364506 -0.0132,-0.515631 -0.0578,-0.09774 -0.13335,-0.169028 -0.22671,-0.204511 -0.0977,-0.03548 -0.23115,-0.04 -0.40451,-0.0129 -0.11557,0.02258 -0.36895,0.08451 -0.76457,0.18677 -0.51119,0.137738 -0.90236,0.173221 -1.17352,0.111287 -0.38227,-0.08903 -0.66232,-0.297734 -0.84457,-0.62679 -0.12003,-0.21322 -0.16893,-0.444504 -0.15113,-0.693433 0.0177,-0.253219 0.11119,-0.488955 0.28448,-0.711239 0.17338,-0.222252 0.41785,-0.417827 0.7379,-0.595629 0.52008,-0.289025 0.97349,-0.391183 1.36467,-0.306766 0.39117,0.08451 0.69789,0.315475 0.92459,0.693433 l -0.82236,0.497858 c -0.15112,-0.195479 -0.3156,-0.306766 -0.48452,-0.33783 -0.17335,-0.02581 -0.37339,0.02258 -0.60898,0.15548 -0.24448,0.133222 -0.40896,0.289024 -0.48897,0.466761 -0.0533,0.111288 -0.0489,0.226768 0.009,0.333378 0.0578,0.09774 0.14671,0.159996 0.2667,0.182254 0.15558,0.03226 0.4623,-0.01613 0.9246,-0.146771 0.4623,-0.129028 0.81791,-0.195478 1.07128,-0.199994 0.24892,-0.0032 0.48008,0.05322 0.69345,0.173221 0.20893,0.119997 0.38672,0.311282 0.53342,0.573436 0.13335,0.239994 0.19115,0.502277 0.17335,0.782334 -0.0177,0.284509 -0.11558,0.542308 -0.30225,0.777915 -0.18671,0.235477 -0.45785,0.453407 -0.8179,0.653434 -0.52898,0.289025 -1.00017,0.391183 -1.41802,0.30225 -0.4134,-0.08903 -0.78235,-0.351152 -1.09795,-0.791237"
       id="path21889" />
    <path
       inkscape:connector-curvature="0"
       style="fill:#000000;fill-opacity:1;fill-rule:evenodd;stroke:none;stroke-width:1.13796246"
       d="m 101.79946,68.848888 c 0.30228,0.448956 0.63566,0.72011 0.99571,0.809011 0.36007,0.09322 0.6979,0.03548 1.01351,-0.177737 0.3156,-0.21322 0.49786,-0.502309 0.54675,-0.871267 0.0489,-0.364507 -0.0844,-0.777883 -0.39117,-1.235741 -0.3067,-0.453408 -0.63567,-0.724562 -0.98238,-0.813463 -0.34673,-0.09322 -0.68457,-0.02581 -1.0135,0.195479 -0.3245,0.217736 -0.5112,0.511212 -0.5601,0.871235 -0.0489,0.360087 0.0844,0.769012 0.39118,1.222451 m -0.80458,0.582307 c -0.27115,-0.404505 -0.44007,-0.782366 -0.50674,-1.13797 -0.0445,-0.262251 -0.0445,-0.524534 0,-0.791236 0.0489,-0.262251 0.13335,-0.497858 0.2667,-0.697885 0.1778,-0.271283 0.4223,-0.511212 0.74235,-0.729013 0.58232,-0.391183 1.16464,-0.524534 1.76028,-0.395602 0.5912,0.129029 1.1024,0.51118 1.53804,1.160162 0.43117,0.635661 0.59564,1.253548 0.49786,1.849209 -0.10232,0.59121 -0.44453,1.084616 -1.0224,1.475799 -0.58231,0.391151 -1.16908,0.528954 -1.75584,0.400054 -0.58676,-0.124513 -1.09351,-0.502309 -1.52025,-1.133518"
       id="path21891" />
    <path
       inkscape:connector-curvature="0"
       style="fill:#000000;fill-opacity:1;fill-rule:evenodd;stroke:none;stroke-width:1.13796246"
       d="m 100.0614,70.946994 0.89792,-0.377829 c 0.22671,0.493406 0.29783,0.946813 0.20893,1.351319 -0.0933,0.408956 -0.33339,0.777914 -0.72012,1.106841 -0.484525,0.404538 -1.017947,0.573436 -1.60915,0.506761 -0.586759,-0.07097 -1.124625,-0.391183 -1.609147,-0.969039 -0.511196,-0.604564 -0.751238,-1.209097 -0.724565,-1.80921 0.03097,-0.595629 0.297831,-1.111293 0.809024,-1.538023 0.44451,-0.373377 0.915694,-0.54676 1.418004,-0.515631 0.293379,0.01613 0.60899,0.137738 0.937929,0.364506 l -0.582316,0.786785 c -0.204479,-0.155479 -0.41785,-0.231284 -0.644554,-0.226768 -0.226704,0.0032 -0.440062,0.08903 -0.635654,0.253219 -0.266703,0.226768 -0.404512,0.506761 -0.40895,0.840139 -0.0045,0.33783 0.177801,0.72011 0.542308,1.155743 0.386725,0.457859 0.746786,0.715659 1.075726,0.773464 0.333388,0.05322 0.631215,-0.02581 0.893482,-0.249026 0.195573,-0.164512 0.311153,-0.368958 0.346713,-0.608984 0.0313,-0.244509 -0.031,-0.524534 -0.19557,-0.84459"
       id="path21893" />
    <path
       inkscape:connector-curvature="0"
       style="fill:#000000;fill-opacity:1;fill-rule:evenodd;stroke:none;stroke-width:1.13796246"
       d="m 93.082492,81.028627 -3.836185,-2.831569 0.555647,-0.751238 3.720613,0.324507 -2.569315,-1.889207 0.528983,-0.715659 3.836171,2.827118 -0.568981,0.773464 -3.64059,-0.30225 2.50263,1.849208 z m 0,0"
       id="path21895" />
    <path
       inkscape:connector-curvature="0"
       style="fill:#000000;fill-opacity:1;fill-rule:evenodd;stroke:none;stroke-width:1.13796246"
       d="m 88.930706,83.566817 c 0.480071,0.253219 0.897921,0.33783 1.262421,0.249026 0.360061,-0.08451 0.631216,-0.297734 0.813472,-0.631209 0.177802,-0.33783 0.204478,-0.675659 0.07555,-1.022392 -0.128899,-0.346733 -0.43562,-0.648983 -0.924591,-0.911266 -0.480074,-0.257735 -0.897921,-0.3467 -1.249086,-0.266767 -0.346726,0.08451 -0.613429,0.297734 -0.800137,0.644563 -0.186704,0.346701 -0.2178,0.693434 -0.09332,1.035715 0.1289,0.342281 0.431185,0.640112 0.915708,0.902363 m -0.440072,0.88904 c -0.426737,-0.231284 -0.755674,-0.488987 -0.973493,-0.773463 -0.16448,-0.209026 -0.288928,-0.440085 -0.368949,-0.697884 -0.08445,-0.253219 -0.115577,-0.502309 -0.09332,-0.742368 0.03129,-0.319991 0.137803,-0.653434 0.320056,-0.991263 0.32894,-0.617855 0.786799,-1.004586 1.369115,-1.169066 0.58232,-0.164512 1.217974,-0.06226 1.902527,0.306766 0.680114,0.360055 1.111289,0.831236 1.302433,1.404672 0.186704,0.573436 0.115577,1.164646 -0.213382,1.778082 -0.333391,0.622338 -0.791237,1.013489 -1.369105,1.177968 -0.577868,0.164512 -1.204648,0.06226 -1.875863,-0.293218"
       id="path21897" />
    <path
       inkscape:connector-curvature="0"
       style="fill:#000000;fill-opacity:1;fill-rule:evenodd;stroke:none;stroke-width:1.13796246"
       d="m 90.033106,87.034047 -4.414053,-1.804726 0.364512,-0.88904 4.414044,1.809177 z m 0,0"
       id="path21899" />
    <path
       inkscape:connector-curvature="0"
       style="fill:#000000;fill-opacity:1;fill-rule:evenodd;stroke:none;stroke-width:1.13796246"
       d="m 87.774956,88.038666 0.546757,-0.804592 c 0.462297,0.289025 0.764576,0.626758 0.915707,1.017941 0.146706,0.391183 0.146706,0.831268 0.0045,1.315771 -0.182253,0.604532 -0.542317,1.040166 -1.071287,1.306901 -0.528973,0.262251 -1.155737,0.289024 -1.875863,0.07097 -0.760125,-0.226768 -1.293546,-0.60008 -1.595812,-1.115712 -0.302282,-0.520083 -0.360061,-1.093519 -0.168931,-1.733631 0.168931,-0.555662 0.466746,-0.955716 0.902369,-1.204645 0.262284,-0.14677 0.586769,-0.217736 0.986829,-0.21322 l -0.05781,0.977909 c -0.248929,-0.01935 -0.471194,0.04 -0.662327,0.169028 -0.186705,0.124513 -0.320056,0.311282 -0.391174,0.55563 -0.09774,0.337862 -0.06226,0.644564 0.119997,0.92904 0.177802,0.279992 0.542318,0.502309 1.084626,0.666789 0.57343,0.173221 1.01794,0.191285 1.324655,0.05774 0.306701,-0.133222 0.511196,-0.364506 0.608993,-0.693433 0.07113,-0.24451 0.05781,-0.480084 -0.04448,-0.702336 C 88.299436,88.416559 88.09057,88.2165 87.77495,88.038698"
       id="path21901" />
    <path
       inkscape:connector-curvature="0"
       style="fill:#000000;fill-opacity:1;fill-rule:evenodd;stroke:none;stroke-width:1.13796246"
       d="m 86.343617,93.243946 -1.853628,0.377828 1.649147,0.911266 z m 2.142565,-1.444671 -0.164479,1.022392 -1.133512,0.235477 -0.302282,1.889176 1.013502,0.555662 -0.160028,1.004619 -4.42293,-2.564867 0.160028,-0.995716 z m 0,0"
       id="path21903" />
    <path
       inkscape:connector-curvature="0"
       id="path21905"
       d="m 84.894488,99.622743 0.02226,-0.702336 c 0.01774,-0.457827 0.0045,-0.742335 -0.03129,-0.857913 -0.03552,-0.11548 -0.09774,-0.20451 -0.191156,-0.271283 -0.09332,-0.06677 -0.213381,-0.106771 -0.355613,-0.111287 -0.160028,-0.0032 -0.288928,0.03548 -0.391174,0.115481 -0.10219,0.08 -0.168898,0.195478 -0.200026,0.351184 -0.01323,0.07548 -0.02677,0.306766 -0.03993,0.693433 l -0.02226,0.742335 z m 2.720447,1.049067 -4.765218,-0.15548 0.06668,-2.013654 c 0.01774,-0.502309 0.07113,-0.871267 0.164479,-1.09797 0.09332,-0.226769 0.25338,-0.404506 0.475636,-0.533406 0.222252,-0.129028 0.475632,-0.191285 0.755686,-0.182253 0.360052,0.0129 0.648992,0.124513 0.875696,0.342281 0.226704,0.213221 0.3645,0.528986 0.40895,0.942362 0.1289,-0.199994 0.266703,-0.364474 0.417847,-0.493406 0.151125,-0.129029 0.413399,-0.30225 0.791237,-0.520083 l 0.951268,-0.542308 -0.04006,1.146873 -1.062388,0.644531 c -0.377838,0.231284 -0.613432,0.395635 -0.715678,0.484503 -0.09774,0.08451 -0.168898,0.177737 -0.204478,0.279993 -0.04006,0.09774 -0.06226,0.257735 -0.07113,0.480084 l -0.0045,0.191285 1.986985,0.06677 z m 0,0"
       style="clip-rule:nonzero;fill:#000000;fill-opacity:1;fill-rule:evenodd;stroke:none;stroke-width:1.13796246" />
    <path
       inkscape:connector-curvature="0"
       id="path21909"
       d="m 87.908314,104.9525 -4.756331,0.36006 -0.262251,-3.50723 0.800124,-0.0577 0.191156,2.54709 1.057952,-0.08 -0.177801,-2.36929 0.800123,-0.0577 0.177802,2.36926 1.293546,-0.0977 -0.195575,-2.64486 0.800124,-0.0623 z m 0,0"
       style="clip-rule:nonzero;fill:#000000;fill-opacity:1;fill-rule:evenodd;stroke:none;stroke-width:1.13796246" />
    <path
       inkscape:connector-curvature="0"
       style="fill:#000000;fill-opacity:1;fill-rule:evenodd;stroke:none;stroke-width:1.13796246"
       d="m 84.596674,109.31323 3.116058,-0.54676 -0.12448,-0.70234 c -0.04448,-0.26225 -0.09332,-0.44896 -0.142255,-0.56008 -0.06668,-0.14677 -0.155576,-0.26225 -0.262283,-0.34673 -0.111062,-0.0845 -0.275605,-0.13774 -0.497858,-0.16452 -0.222252,-0.0258 -0.515634,-0.01 -0.880134,0.0532 -0.360061,0.0668 -0.635667,0.14677 -0.817911,0.24451 -0.182253,0.0977 -0.320056,0.21322 -0.40896,0.34673 -0.08887,0.13322 -0.137802,0.28903 -0.146705,0.47118 -0.0045,0.13774 0.02677,0.40006 0.09332,0.78234 z m -0.622329,1.08461 -0.30225,-1.72027 c -0.07113,-0.39119 -0.08887,-0.69344 -0.06668,-0.90682 0.03129,-0.28902 0.133352,-0.54676 0.306702,-0.78233 0.173382,-0.23129 0.400073,-0.42231 0.684565,-0.57789 0.280057,-0.15548 0.644541,-0.27128 1.084613,-0.34673 0.38229,-0.0668 0.724565,-0.08 1.022392,-0.0323 0.360052,0.0535 0.666779,0.17354 0.915708,0.35118 0.191124,0.13774 0.355613,0.33338 0.49341,0.59567 0.10219,0.19547 0.182253,0.47118 0.244477,0.81788 l 0.311153,1.77363 z m 0,0"
       id="path21913" />
    <path
       inkscape:connector-curvature="0"
       style="fill:#000000;fill-opacity:1;fill-rule:evenodd;stroke:none;stroke-width:1.13796246"
       d="m 89.77529,113.75395 -4.596309,1.25351 -0.924595,-3.39607 0.77346,-0.20903 0.671227,2.46707 1.026831,-0.28 -0.626767,-2.28926 0.77346,-0.21322 0.626767,2.29368 1.253534,-0.34228 -0.697888,-2.56041 0.77346,-0.20903 z m 0,0"
       id="path21915" />
    <path
       inkscape:connector-curvature="0"
       style="fill:#000000;fill-opacity:1;fill-rule:evenodd;stroke:none;stroke-width:1.13796246"
       d="m 91.104396,117.48343 -4.47629,1.63582 -1.120176,-3.06272 0.755676,-0.27128 0.786799,2.15591 1.066839,-0.38674 -0.680114,-1.86253 0.751238,-0.27547 0.680101,1.86253 1.906975,-0.69343 z m 0,0"
       id="path21917" />
    <path
       inkscape:connector-curvature="0"
       style="fill:#ffffff;fill-opacity:1;fill-rule:nonzero;stroke:none;stroke-width:1.13796246"
       d="m 155.4304,100.29398 c 0,17.84733 -14.46903,32.31637 -32.31637,32.31637 -17.84734,0 -32.316361,-14.46904 -32.316361,-32.31637 0,-17.847326 14.469021,-32.316359 32.316361,-32.316359 17.84734,0 32.31637,14.469033 32.31637,32.316359"
       id="path21919" />
    <path
       inkscape:connector-curvature="0"
       style="fill:none;stroke:#e6b314;stroke-width:0.64408672;stroke-linecap:butt;stroke-linejoin:miter;stroke-miterlimit:4;stroke-opacity:1"
       d="m 155.43037,100.29398 c 0,17.84733 -14.46904,32.31633 -32.31636,32.31633 -17.84734,0 -32.316357,-14.469 -32.316357,-32.31633 0,-17.847358 14.469017,-32.316359 32.316357,-32.316359 17.84732,0 32.31636,14.469001 32.31636,32.316359 z m 0,0"
       id="path21921" />
    <path
       inkscape:connector-curvature="0"
       style="fill:#1e2b82;fill-opacity:1;fill-rule:nonzero;stroke:none;stroke-width:1.13796246"
       d="m 129.10612,124.46679 c -13.49553,0 -24.43508,-11.24628 -24.43508,-25.11962 0,-13.873371 10.93955,-25.119651 24.43508,-25.119651 9.94827,0 18.50078,6.120997 22.31471,14.895763 -4.40959,-11.384083 -15.46028,-19.460932 -28.40904,-19.460932 -16.8205,0 -30.453829,13.619959 -30.453829,30.41825 0,16.79829 13.633329,30.41383 30.453829,30.41383 16.14927,0 29.36034,-12.56205 30.37828,-28.43572 -1.31132,12.5976 -11.68192,22.40808 -24.28395,22.40808"
       id="path21923" />
    <path
       inkscape:connector-curvature="0"
       style="fill:#d71919;fill-opacity:1;fill-rule:nonzero;stroke:none;stroke-width:1.13796246"
       d="m 143.44178,108.81982 c -7.38787,6.48992 -18.55412,5.53866 -24.93294,-2.12036 -6.38326,-7.659024 -5.5609,-19.127556 1.83141,-25.613028 5.45421,-4.783001 12.9532,-5.520917 19.07419,-2.507094 -7.64567,-4.165115 -17.41615,-3.307202 -24.51063,2.916019 -9.21483,8.085784 -10.42392,22.159183 -2.69822,31.431773 7.72126,9.27262 21.45681,10.23279 30.67166,2.15146 8.85031,-7.7657 10.30834,-21.05231 3.565,-30.307127 5.07638,7.587894 3.90732,17.989587 -3.00047,24.048357"
       id="path21925" />
    <path
       inkscape:connector-curvature="0"
       style="fill:#1e2b82;fill-opacity:1;fill-rule:nonzero;stroke:none;stroke-width:1.13796246"
       d="m 144.74865,94.750841 c -1.61802,7.001139 -8.68141,11.184059 -15.77144,9.348199 -7.0856,-1.8403 -11.52187,-8.997015 -9.90829,-15.99815 1.19576,-5.165282 5.34754,-8.792539 10.29056,-9.606002 -6.34769,0.777915 -11.79746,5.445339 -13.35327,12.161966 -2.01811,8.725863 3.31164,17.598436 11.89526,19.820986 8.58362,2.22704 17.18056,-3.04492 19.19867,-11.770782 1.93366,-8.379131 -2.9027,-16.891645 -10.89066,-19.523188 6.27659,2.347066 10.05052,9.028146 8.53917,15.566971"
       id="path21927" />
    <path
       inkscape:connector-curvature="0"
       style="fill:#d71919;fill-opacity:1;fill-rule:nonzero;stroke:none;stroke-width:1.13796246"
       d="m 139.79675,89.149926 c -0.39118,4.876354 -4.76968,8.476935 -9.76604,8.036882 -5.00971,-0.435633 -8.74808,-4.751873 -8.35691,-9.632678 0.29338,-3.600581 2.75156,-6.498826 6.0232,-7.601248 -4.2318,1.231322 -7.46788,4.974157 -7.84573,9.659354 -0.48895,6.085451 4.02733,11.450754 10.09054,11.984164 6.05431,0.52899 11.36184,-3.969539 11.85079,-10.059409 0.46676,-5.84094 -3.67613,-11.015124 -9.37484,-11.886359 4.50295,0.871235 7.74347,4.938577 7.37899,9.499294"
       id="path21929" />
    <path
       inkscape:connector-curvature="0"
       style="fill:#1e2b82;fill-opacity:1;fill-rule:nonzero;stroke:none;stroke-width:1.13796246"
       d="m 137.55638,87.447456 c 0,3.978409 -3.16941,7.201162 -7.07671,7.201162 -3.89841,0 -7.07227,-3.222753 -7.07227,-7.201162 0,-3.973991 3.17386,-7.205614 7.07227,-7.205614 3.9073,0 7.07671,3.231623 7.07671,7.205614"
       id="path21931" />
    <path
       inkscape:connector-curvature="0"
       style="fill:#e6b017;fill-opacity:1;fill-rule:nonzero;stroke:none;stroke-width:1.13796246"
       d="m 118.4466,100.09841 c 2.70267,-2.493774 5.39644,-5.000836 9.22373,-6.085452 -0.20003,3.018274 -1.87587,5.552012 -3.00938,8.365812 -1.09351,2.71599 -2.03589,5.88984 -3.60948,8.11242 -0.74679,1.05794 -1.85363,1.5158 -2.40483,2.78712 -0.85348,1.96476 -0.52454,4.67188 -1.20464,6.59218 -1.06684,3.02273 -4.51629,4.14734 -5.41422,6.84556 v 0.50231 c 0.22225,1.32909 1.40913,1.43577 2.2048,2.03143 h 0.40452 c 0.89348,-0.64456 1.24464,-1.97811 1.20019,-3.80061 1.00906,-1.83585 2.25815,-3.68506 3.40944,-5.83652 1.0624,-1.97366 2.63154,-3.72503 3.60948,-5.82762 0.40451,-0.85791 0.43562,-2.11143 0.80013,-3.04047 0.8268,-2.067 2.15591,-4.65855 3.21385,-6.33883 0.72901,-1.15574 2.08478,-1.79582 3.00494,-3.04046 1.5158,-2.040335 3.445,-6.036551 3.40944,-8.112463 -0.0132,-0.81343 -0.24006,-1.538024 -0.60009,-2.280359 2.19146,-1.551345 0.22225,-8.796958 2.40483,-9.632678 1.48024,-0.564533 2.26703,1.533604 3.20942,2.533771 2.0003,-0.391183 3.9206,1.662472 5.41421,0.253219 v -0.506728 c -0.66679,-1.360222 -3.29833,0.0032 -4.81413,-1.26687 -0.84903,-3.0005 -2.50707,-5.827618 -5.21418,-6.080998 -0.92903,-0.08903 -1.76028,0.995715 -2.60487,0 0.20448,-2.084783 0.48453,-5.191958 -0.40006,-6.592179 h -1.80474 c -1.75584,1.942529 -0.7779,5.223054 -0.20003,7.605668 -6.00986,3.196076 -9.86382,9.974959 -14.64237,13.940046 0.33783,1.013489 0.51119,2.227038 1.6047,2.280359 0.95571,0.02258 0.57787,-1.635795 1.00461,-2.280359 3.22719,-1.044617 9.94828,-13.059908 11.633,-3.547227 -2.96493,2.640413 -5.67647,2.58264 -7.82349,5.574206 -0.94682,1.320222 -1.23576,3.378329 -2.2048,4.81858 -1.21797,1.800307 -3.71616,1.929202 -4.21402,4.560752 0.52008,1.72914 3.54724,1.76918 4.21402,0.50673 0.48007,-0.76902 -0.0889,-2.63597 0.20002,-3.04047"
       id="path21933" />
    <path
       inkscape:connector-curvature="0"
       style="fill:#e6b319;fill-opacity:1;fill-rule:nonzero;stroke:none;stroke-width:1.13796246"
       d="m 111.80998,121.08846 c 0,1.67137 -1.35578,3.02273 -3.02272,3.02273 -1.66694,0 -3.02271,-1.35136 -3.02271,-3.02273 0,-1.66692 1.35577,-3.01827 3.02271,-3.01827 1.66694,0 3.02272,1.35135 3.02272,3.01827"
       id="path21935" />
  </g>
</svg>
