<?xml version="1.0" encoding="utf-8"?>
<!-- Generator: Adobe Illustrator 12.0.0, SVG Export Plug-In  -->
<!DOCTYPE svg PUBLIC "-//W3C//DTD SVG 1.1//EN" "http://www.w3.org/Graphics/SVG/1.1/DTD/svg11.dtd" [
	<!ENTITY ns_flows "http://ns.adobe.com/Flows/1.0/">
	<!ENTITY ns_svg "http://www.w3.org/2000/svg">
	<!ENTITY ns_xlink "http://www.w3.org/1999/xlink">
]>
<svg  version="1.1" xmlns="&ns_svg;" xmlns:xlink="&ns_xlink;" xmlns:a="http://ns.adobe.com/AdobeSVGViewerExtensions/3.0/"
	 width="351" height="235" viewBox="-0.5820313 -0.0927734 351 235" enable-background="new -0.5820313 -0.0927734 351 235"
	 xml:space="preserve">
<defs>
</defs>
<path d="M192.4189453,56.3579102c-12.2514648,30.3212891-46.706543,29.8608398-46.706543,29.8608398H62.8618164l4.4418945-9.953125
	h76.4179688C143.7216797,76.265625,177.105957,76.8769531,192.4189453,56.3579102"/>
<path d="M217.9936523,29.8642578c12.2524414-30.3217773,46.7075195-29.8637695,46.7075195-29.8637695H350l-4.4389648,9.9555664
	h-78.8691406C266.6918945,9.9560547,233.3076172,9.3427734,217.9936523,29.8642578"/>
<path fill="#FF1100" d="M185.6040039,71.6713867c-12.2514648,30.3217773-46.7070313,29.8608398-46.7070313,29.8608398H56.046875
	l4.4414063-9.9526367H136.90625C136.90625,91.5795898,170.2905273,92.1904297,185.6040039,71.6713867"/>
<path fill="#FF1100" d="M211.1787109,45.1777344c12.2509766-30.3217773,46.7099609-29.8632813,46.7099609-29.8632813H343.1875
	l-4.4414063,9.9550781h-78.8681641C259.8779297,25.2695313,226.4926758,24.65625,211.1787109,45.1777344"/>
<path fill="#FF1100" d="M178.7915039,86.9848633c-12.2519531,30.3217773-46.7099609,29.8608398-46.7099609,29.8608398H49.2358398
	l4.4394531-9.9526367h76.4155273C130.0908203,106.8930664,163.4750977,107.5063477,178.7915039,86.9848633"/>
<path fill="#FF1100" d="M204.3657227,60.4912109c12.2514648-30.3217773,46.706543-29.8632813,46.706543-29.8632813h85.2988281
	l-4.4414063,9.9555664h-78.8666992C253.0629883,40.5834961,219.6787109,39.9697266,204.3657227,60.4912109"/>
<path fill="#FFF200" d="M171.9755859,102.2983398c-12.2514648,30.3242188-46.7070313,29.8662109-46.7070313,29.8662109H42.4204102
	l4.4418945-9.9580078h76.4130859C123.2753906,122.206543,156.6616211,122.8203125,171.9755859,102.2983398"/>
<path fill="#FFF200" d="M165.1601563,117.6123047c-12.2514648,30.3237305-46.7070313,29.8657227-46.7070313,29.8657227H35.6049805
	l4.4418945-9.9550781h76.4150391C116.4619141,137.5229492,149.8461914,138.1362305,165.1601563,117.6123047"/>
<path fill="#FFF200" d="M190.7348633,91.1186523c12.2514648-30.3217773,46.7089844-29.8608398,46.7089844-29.8608398h85.2998047
	l-4.4428711,9.9526367h-78.8662109C239.4345703,71.2104492,206.0478516,70.5996094,190.7348633,91.1186523"/>
<path fill="#FFF200" d="M197.5498047,75.8051758c12.2514648-30.3217773,46.7075195-29.8613281,46.7075195-29.8613281h85.2988281
	l-4.4389648,9.953125h-78.8691406C246.2480469,55.8969727,212.8637695,55.2836914,197.5498047,75.8051758"/>
<polyline points="38.8271484,209.0063477 32.7001953,209.0063477 56.965332,154.5214844 32.4677734,154.5214844 0,227.4165039 
	55.1279297,227.4165039 87.5952148,154.5214844 63.0922852,154.5214844 38.8271484,209.0063477 "/>
<path d="M228.0244141,99.3891602h18.3759766l8.8056641-20.2138672H230.015625
	c-56.5078125,0-53.4458008,75.3461914-111.6401367,75.3461914H93.7197266l-32.465332,72.8950195h24.3500977
	c63.4003906,0,49.6166992-72.8950195,108.1171875-72.8950195l9.800293-22.3476563
	c-52.6791992,0-60.0307617,76.8325195-105.3603516,76.8325195h-5.4262695l3.5400391-7.9570313h10.7675781
	c39.2050781,0,49.6186523-75.9335938,103.8300781-75.9335938h24.0424805l8.4233398-18.6831055h-25.1147461
	c-26.0595703,0-40.6962891,15.0371094-52.8833008,31.5717773
	C178.9018555,118.8862305,193.8344727,99.3891602,228.0244141,99.3891602z M115.3129883,180.6269531h-9.9404297l2.7563477-6.1967773
	h5.9599609c22.5458984,0,34.4287109-13.1298828,45.5336914-28.4023438
	C147.2832031,163.7070313,136.0820313,180.6269531,115.3129883,180.6269531z"/>
<path d="M260.6445313,79.175293l-8.9824219,20.2016602h30.6030273l-3.1259766,7.0556641h-30.5541992l-20.4082031,45.6401367
	h53.90625l32.4648438-72.8974609H260.6445313z M260.2978516,132.2109375l3.1791992-7.1289063h7.3510742l-3.1782227,7.1289063
	H260.2978516z"/>
<path d="M223.277832,163.4052734l-31.546875,71.0566406h53.9052734l31.546875-71.0566406H223.277832z M243.5776367,230.7958984
	h-46.5249023l28.2631836-63.6977539h46.5556641L243.5776367,230.7958984z"/>
<path d="M282.0664063,163.4052734l-31.546875,71.0566406h53.9067383l31.5454102-71.0566406H282.0664063z M302.3676758,230.7958984
	h-46.5258789l28.2641602-63.6977539h46.5541992L302.3676758,230.7958984z"/>
<path d="M230.8295898,178.1054688l-6.9243164,15.6210938h25.1132813l6.9541016-15.6210938H230.8295898z M246.9848633,190.0317383
	h-17.762207l3.6679688-8.2695313h17.7646484L246.9848633,190.0317383z"/>
<path d="M219.0952148,203.7963867l-6.925293,15.621582h25.1142578l6.953125-15.621582H219.0952148z M235.2495117,215.7226563
	h-17.762207l3.6689453-8.2700195h17.7646484L235.2495117,215.7226563z"/>
<path d="M289.6196289,178.1054688l-6.9243164,15.6210938h25.1132813l6.9541016-15.6210938H289.6196289z M305.7753906,190.0317383
	h-17.7626953l3.6679688-8.2695313h17.7646484L305.7753906,190.0317383z"/>
<path d="M277.8842773,203.7963867l-6.9243164,15.621582h25.1147461l6.9526367-15.621582H277.8842773z M294.0395508,215.7226563
	h-17.762207l3.6679688-8.2700195h17.765625L294.0395508,215.7226563z"/>
</svg>
