<?xml version="1.0" encoding="utf-8"?>
<!-- Generator: Adobe Illustrator 15.0.0, SVG Export Plug-In . SVG Version: 6.00 Build 0)  -->
<!DOCTYPE svg PUBLIC "-//W3C//DTD SVG 1.1//EN" "http://www.w3.org/Graphics/SVG/1.1/DTD/svg11.dtd">
<svg version="1.1" id="Layer_1" xmlns="http://www.w3.org/2000/svg" xmlns:xlink="http://www.w3.org/1999/xlink" x="0px" y="0px"
	 width="130.464px" height="175.75px" viewBox="0 0 130.464 175.75" enable-background="new 0 0 130.464 175.75"
	 xml:space="preserve">
<g>
	<path fill-rule="evenodd" clip-rule="evenodd" fill="#2E5E9C" d="M81.395,1.153c0.203,0.812-0.744,1.353-0.608,2.232
		c0.202,1.15,1.42,2.097,0.879,3.382c-0.406,0.474-0.677,1.082-1.082,1.624c-0.338-0.677-0.136-1.421-0.608-2.029
		c-1.218-1.826-3.45-3.382-2.368-5.749c0.136-0.677,0.947-0.677,1.421-0.542C79.839,0.477,80.718,0.612,81.395,1.153L81.395,1.153
		L81.395,1.153z"/>
	<path fill-rule="evenodd" clip-rule="evenodd" fill="#0095D6" d="M51.296,1.897c0.812-0.067,1.759-0.203,2.57-0.406
		c-4.261,1.285-8.387,3.991-12.445,6.223l0,0L39.392,9.27l-5.343,5.344c-1.488,1.083-1.894,2.773-3.111,4.059
		c-1.759,3.314-3.382,6.628-4.261,10.281c-0.474,0.744-0.338,1.623-0.812,2.3c0.203,1.015-0.473,1.691-0.405,2.706
		c-0.812,2.57-0.744,4.938-0.947,7.71c0.609,4.938,1.15,9.943,2.706,14.678l0,0l1.082,3.314l0.068-0.067
		c0.338,2.232,2.029,3.923,2.638,6.02c2.503,3.517,4.532,7.034,7.981,10.01c0.474,0.744,1.353,1.285,1.353,2.164l0,0l-0.203,0.271
		c-3.382-1.083-5.546-3.788-8.185-5.885c-3.923-4.058-6.223-8.996-8.116-14.001c-1.759-4.667-2.503-9.808-2.706-14.745
		c0.609-9.875,3.043-19.277,8.658-27.055c0.608-0.542,1.15-1.285,1.624-2.029c3.652-3.855,8.116-7.711,12.783-10.01
		c1.42-0.271,2.57-1.286,3.923-1.759c0.541,0.135,0.812-0.474,1.285-0.338c0.947-0.474,2.029-1.015,3.179-1.015
		c0.135,0,0.135-0.338,0.406-0.203l0,0L51.296,1.897L51.296,1.897z"/>
	<path fill-rule="evenodd" clip-rule="evenodd" fill="#FFE11B" d="M64.282,5.752c0.339,0.136,0.609-0.541,1.015-0.406
		c0.135-0.135,0.203-0.271,0.271-0.474c-0.068,0.203,0.135,0.338,0.203,0.338c0.135-0.067,0.135-0.271,0.271-0.135l0,0v0.068
		c0.067,0.067,0.202-0.068,0.338-0.068s0.338,0.676,0.608,0.203c0,0.135,0.136,0.067,0.203,0.067l0,0l0.067-0.067
		c0.068,0.067,0.271,0.406,0.541,0.406c0.609-0.271,1.15,0,1.759,0.271c-0.067,0.271,0.271,0.271,0.406,0.406
		c0.338-0.406,0.744,0.135,0.947,0.338l0,0l0.338-0.609c0,0.203-0.474,0.744,0.135,0.812c0.271,0.067,0.406-0.203,0.474-0.338
		c0.203,0.135,0.338,0.203,0.338,0.405c-0.202,0.271-0.202-0.135-0.473-0.067l0,0v0.338c0.271,0,0.744,0.203,0.879-0.271l0,0V6.835
		c0.541,0,0.203,0.608,0.744,0.608l0,0l0.135-0.135c-0.067,0-0.067-0.068-0.135-0.068c0-0.135,0.203-0.271,0.405-0.135l0,0v0.473
		c-1.149,0.947-2.638,0.542-3.923,0.947c-0.879,0.135-1.894,0.271-2.841,0.608c-1.42,0.203-2.773,0.609-4.193,0.947
		c-3.179,0.879-6.425,1.556-9.267,3.247c-0.947,0.338-2.299,0.406-3.314,0c-0.676,0.135-1.285-0.271-1.961-0.406
		c0-0.338,0.609-0.338,0.406-0.812c-0.068-0.067-0.203,0-0.338,0l0,0l-0.203,0.135l-0.744-0.608c0.067-0.135,0.338,0,0.406-0.203
		c-0.068-0.135-0.068-0.203-0.135-0.271c0.135,0.068,0.203-0.338,0.406-0.135c0.203,0.135,0.271,0.338,0.135,0.474l0,0l-0.067,0.135
		c0.135,0.135,0.609,0.338,0.541-0.135c-0.203-0.338,0.203-0.271,0-0.609c0.271,0,0.203,0.338,0.473,0.203
		c0-0.812,0.744,0.271,0.812-0.542c0.135,0,0.203-0.135,0.203-0.338c0,0-0.067-0.068-0.135-0.068l0,0l-0.135,0.135
		c-0.203-0.067,0.135-0.406,0.203-0.676c0.338,0.203,0.473,0,0.812,0c0.135,0,0.068,0.271,0.203,0.203
		c0.067-0.406,0.067-1.015,0.608-1.15c0.271,0.271,0.609,0.135,0.812,0.338c0.067-0.067,0.067-0.271,0.067-0.406
		c0.271-0.135,0.338,0.135,0.406,0.338c0.338-0.135,0.068-0.541,0.203-0.744c0.203,0.068,0.271-0.135,0.338-0.203
		c0-0.203-0.203-0.406,0-0.609l0,0h0.271c-0.338,0.271,0.068,0.406,0,0.744c0.339-0.135,0.744-0.203,0.879-0.609
		c0.203,0.406,0.677,0.406,0.947,0.271l0,0l0.541-0.271c0.068,0.067,0,0.203,0.135,0.203c0.271-0.135,0.135-0.338,0.135-0.541l0,0
		l-0.067-0.067c0.203-0.068,0.473,0.067,0.405-0.271c0-0.068,0.068-0.135-0.067-0.203l0,0h-0.135
		c-0.135-0.203,0.067-0.271,0.203-0.271l0,0h0.136c-0.068,0.068,0.067,0.068,0.135,0.135l0,0l0.203-0.338
		c-0.067,0.271,0.203,0.271,0.338,0.406c0.203,0,0.338-0.135,0.474-0.203l0,0V6.158c0.406,0.135,0.541,0.406,0.744,0.677
		c0.135-0.542,0.947,0.203,0.812-0.609l0,0l0.338-0.474c0.271,0.203,0,0.406,0,0.541c0.135,0.203,0.406,0,0.541,0.136
		c0.068-0.203-0.067-0.541,0.271-0.541c0.067,0.203,0.405,0.067,0.541,0.067c0.135-0.067,0.135-0.271,0.338-0.067l0,0l0.405,0.338
		l0.135-0.135c-0.135,0-0.067-0.203-0.067-0.203l0,0l0.541-0.542c0,0.203-0.135,0.338-0.068,0.542c0.135,0.27,0.271-0.136,0.474,0
		c0,0-0.067,0.135,0.068,0.135l0,0l0.338-0.406l-0.203-0.135c0.067-0.068,0.271-0.271,0.338-0.406c0.068-0.135,0.203,0,0.271,0.135
		c0.203-0.067,0.338-0.271,0.27-0.474l0,0L64.282,5.752L64.282,5.752z"/>
	<path fill-rule="evenodd" clip-rule="evenodd" fill="#FFE11B" d="M68.747,4.941c-0.067,0.135,0,0.271-0.135,0.338l0,0l-0.068-0.338
		H68.747L68.747,4.941z"/>
	<path fill-rule="evenodd" clip-rule="evenodd" fill="#FFE11B" d="M61.171,5.685h-0.067V5.347
		C61.104,5.414,61.239,5.55,61.171,5.685L61.171,5.685L61.171,5.685z"/>
	<polygon fill-rule="evenodd" clip-rule="evenodd" fill="#FFE11B" points="71.655,6.429 71.52,6.429 71.52,6.293 71.655,6.293 
		71.655,6.429 	"/>
	<path fill-rule="evenodd" clip-rule="evenodd" fill="#FFE11B" d="M74.225,7.714l-0.067,0.135l-0.203-0.473
		C74.158,7.443,74.158,7.646,74.225,7.714L74.225,7.714L74.225,7.714z"/>
	<path fill-rule="evenodd" clip-rule="evenodd" fill="#FFE11B" d="M52.378,8.593c-0.068,0-0.068,0.068-0.136,0.068l0,0V8.323
		C52.311,8.323,52.446,8.458,52.378,8.593L52.378,8.593L52.378,8.593z"/>
	<path fill-rule="evenodd" clip-rule="evenodd" fill="#2E5E9C" d="M84.913,10.961c3.585,2.029,7.981,2.435,11.228,5.343
		c2.57,1.42,3.044,4.667,5.208,6.561c3.044,2.164,7.17,3.449,8.929,7.034c-0.067,0.203-0.136,0.474-0.136,0.676
		c-3.449-4.058-9.537-2.908-12.648-7.305c-1.69-4.194-5.885-6.561-9.739-8.455c-1.556-0.812-3.382-1.962-3.923-3.923
		c0-0.203-0.068-0.406,0.135-0.541C84.439,10.284,84.506,10.825,84.913,10.961L84.913,10.961L84.913,10.961z"/>
	<path fill-rule="evenodd" clip-rule="evenodd" fill="#2E5E9C" d="M78.487,11.299c-2.164,1.894-5.208,1.894-7.644,3.247
		c-4.802,2.029-9.063,5.005-14.407,5.885c-1.353,0.135-2.57,0-3.855-0.338c-4.667-0.947-9.063-2.57-13.866-2.84
		c-1.759-0.068-3.382,0.27-5.005-0.203c2.909-1.894,6.696-1.827,10.349-1.488c3.247,0.338,6.561,1.488,9.875,1.083
		c5.14-1.962,10.078-4.6,15.895-4.938c0.609,0,1.354-0.271,1.826-0.067l0,0l0.136-0.135C73.887,11.096,76.661,11.367,78.487,11.299
		L78.487,11.299L78.487,11.299z"/>
	<path fill-rule="evenodd" clip-rule="evenodd" fill="#009DDD" d="M101.348,13.328c0.067,0.203-0.135,0.338-0.202,0.473
		c-0.136-0.067-0.339-0.27-0.339-0.473C101.01,13.463,101.146,13.125,101.348,13.328L101.348,13.328L101.348,13.328z"/>
	<path fill-rule="evenodd" clip-rule="evenodd" fill="#009DDD" d="M101.281,14.208c-0.067,0.067-0.067,0.135-0.067,0.135
		c0.135,0.338,0.338,0,0.541,0.067c-0.068,0.135-0.068,0.271-0.068,0.406l0,0l0.271,0.271l-0.203,0.203
		c0-0.203-0.271-0.271-0.406-0.135c0.136-0.203-0.135-0.406-0.067-0.609l0,0l-0.271-0.203
		C101.078,14.208,101.213,14.275,101.281,14.208L101.281,14.208L101.281,14.208z"/>
	<path fill-rule="evenodd" clip-rule="evenodd" fill="#0095D6" d="M101.958,12.246v0.136c-0.203,0.067-0.203-0.136-0.339-0.203l0,0
		v-0.203C101.754,11.908,101.822,12.246,101.958,12.246L101.958,12.246L101.958,12.246z"/>
	<polygon fill-rule="evenodd" clip-rule="evenodd" fill="#0095D6" points="99.589,12.178 99.251,12.178 99.251,12.043 
		99.589,12.043 99.589,12.178 	"/>
	<path fill-rule="evenodd" clip-rule="evenodd" fill="#0095D6" d="M100.74,12.584l-0.136,0.135l-0.067-0.135
		c-0.135,0.271-0.135,0.676,0.203,0.744c-0.067-0.474,0.474-0.271,0.676-0.406c0.203,0.135,0.136,0.406,0.406,0.474l0,0l0.406-0.068
		c0,0.068-0.068,0.135,0.067,0.203c-0.338,0-0.406,0.406-0.609,0.541c0.339,0.135,0.068,0.676,0.542,0.541
		c0.067-0.068,0.202-0.135,0.202-0.271c-0.202-0.068-0.338-0.203-0.338-0.338c0.136,0.068,0.609-0.338,0.541,0.135
		c0.136,0.338,0.609-0.135,0.541,0.338c0.677,0.271,0.474,1.285,1.15,1.353c0.405,0.406,0.474,1.015,1.015,1.421
		c0,0.405,0.474,0.608,0.608,0.879c1.759,2.841,3.518,5.682,4.531,8.793l0,0h-0.135c-1.69-1.623-3.652-3.517-5.614-4.599
		c0-0.609-1.082-0.203-0.812-0.947l0,0h-0.676c0.067-0.135,0.271-0.271,0.202-0.406c-0.202-0.067-0.474-0.135-0.338-0.406
		c0.136-0.068,0.203,0.338,0.406,0.135c0-0.271-0.271-0.271-0.406-0.406c-0.203,0.067-0.271,0.203-0.474,0.135
		c0.136-0.271,0-0.541,0.338-0.744c0.068,0,0.203,0.068,0.203-0.067c0-0.203-0.271-0.338-0.473-0.338c-0.136,0,0,0.271-0.203,0.203
		l0,0l-0.068-0.068l0.136-0.135c-0.136-0.271-0.271,0-0.406,0c-0.067,0.203-0.067,0.474-0.338,0.406
		c-0.406-0.203,0.338-0.947-0.406-0.812l0,0l-0.202,0.135c-0.136-0.135-0.203-0.406-0.406-0.677l0,0l0.406-0.135
		c-0.203-0.338-0.136-0.609-0.136-1.015c0.068,0,0.136,0,0.136-0.068c-0.271-0.067,0-0.338,0.067-0.541l0,0h0.338
		c0.339,0.609-0.812,0.677-0.338,1.218c0.271-0.203,0.879-0.068,0.812-0.609c-0.067-0.203,0.136-0.812-0.203-0.947l0,0h-0.608
		c-0.135,0.271-0.406,0.406-0.541,0.677l0,0l-0.136-0.338l-0.405,0.406c-0.068-0.406-0.812-0.067-0.541-0.608l0,0l0.202-0.136
		c-0.405-0.203-0.473-0.473-0.676-0.744c0.135-0.136,0.067-0.338,0.067-0.474c0.067,0,0.136,0,0.136-0.067l0,0l0.202,0.203
		l0.271-0.271l-0.202-0.271l0.338-0.203l0.067,0.406c0.339-0.203,0.067-0.542,0.203-0.879c0.136,0,0.136-0.136,0.271-0.136
		c0.136-0.608-0.338-0.676-0.677-0.812c0.271,0.068,0.339-0.473,0.609-0.473l0,0l-0.406-0.203l0.067-0.135
		C100.333,12.313,100.604,12.381,100.74,12.584L100.74,12.584L100.74,12.584z"/>
	<path fill-rule="evenodd" clip-rule="evenodd" fill="#0095D6" d="M100.063,13.666c-0.135,0-0.338,0.068-0.405-0.067
		c-0.068-0.203,0.135-0.338,0.271-0.406C100.13,13.26,99.996,13.463,100.063,13.666L100.063,13.666L100.063,13.666z"/>
	<polygon fill-rule="evenodd" clip-rule="evenodd" fill="#0095D6" points="99.387,13.801 99.455,13.801 99.455,14.14 99.387,14.14 
		99.387,13.801 	"/>
	<path fill-rule="evenodd" clip-rule="evenodd" fill="#0095D6" d="M99.251,14.613c-0.067,0.135-0.135,0.135-0.203,0.135V14.41
		C99.117,14.478,99.251,14.545,99.251,14.613L99.251,14.613L99.251,14.613z"/>
	<path fill-rule="evenodd" clip-rule="evenodd" fill="#009DDD" d="M101.416,16.034c-0.27-0.068-0.405,0.271-0.676,0.203
		c0.135-0.135,0.067-0.271,0.067-0.406l0,0h0.203c0,0.068,0.067,0.068,0.067,0.135c0.136-0.067,0.203,0,0.271-0.067
		c0.067-0.203-0.135-0.271-0.271-0.406l0,0l0.203-0.203C101.619,15.493,101.484,15.696,101.416,16.034L101.416,16.034
		L101.416,16.034z"/>
	<path fill-rule="evenodd" clip-rule="evenodd" fill="#009DDD" d="M102.16,15.898c-0.135-0.068-0.202,0.067-0.271,0.135
		c0,0,0-0.406,0.271-0.406l0,0V15.898L102.16,15.898z"/>
	<path fill-rule="evenodd" clip-rule="evenodd" fill="#2E5E9C" d="M60.157,25.909c1.488,4.059,0.473,9.199-1.691,12.987
		c-0.812,1.285-0.947,2.976-0.947,4.532c0.135,0.812,0.406,1.488,0.744,2.232c0.338,0.474,0.609,1.015,0.676,1.556
		c-2.57-1.082-4.329-4.059-4.532-6.967c0-3.179,0.406-6.358,1.218-9.537c0.338-2.232,0.609-4.059,0.203-6.426
		c-0.067-0.541,0.406-0.405,0.744-0.676C58.06,23.271,59.548,24.624,60.157,25.909L60.157,25.909L60.157,25.909z"/>
	<path fill-rule="evenodd" clip-rule="evenodd" fill="#2E5E9C" d="M101.484,30.103c-0.136,1.69-0.474,3.247-0.947,4.734l0,0
		l-2.638,7.305c-0.338,1.217-0.947,2.3-1.285,3.517c-0.474,0.338-0.271,1.217-0.947,1.15c-0.135,0.067-0.067,0.338-0.271,0.271
		c-1.285-1.488-1.218-3.72-1.082-5.682c0.405-3.991,1.556-7.981,3.247-11.566l0,0l0.879-1.285
		C99.658,28.614,100.807,29.02,101.484,30.103L101.484,30.103L101.484,30.103z"/>
	<polygon fill-rule="evenodd" clip-rule="evenodd" fill="#0095D6" points="44.735,37.678 44.667,37.475 45.141,37.543 
		44.735,37.678 	"/>
	<path fill-rule="evenodd" clip-rule="evenodd" fill="#0095D6" d="M41.759,37.948c0.136,0.135-0.067,0.135-0.135,0.271
		C41.556,38.083,41.624,37.881,41.759,37.948L41.759,37.948L41.759,37.948z"/>
	<path fill-rule="evenodd" clip-rule="evenodd" fill="#0095D6" d="M42.435,38.287v0.271c-0.405,0,0.339,0.812-0.27,0.406
		c0.135-0.338-0.271-0.271-0.135-0.676C42.165,38.151,42.435,38.083,42.435,38.287L42.435,38.287L42.435,38.287z"/>
	<path fill-rule="evenodd" clip-rule="evenodd" fill="#0095D6" d="M49.199,38.151c0.067,0.135-0.068,0.203-0.135,0.271
		c-0.135-0.135-0.677,0.203-0.474-0.338C48.793,38.083,49.064,38.083,49.199,38.151L49.199,38.151L49.199,38.151z"/>
	<path fill-rule="evenodd" clip-rule="evenodd" fill="#0095D6" d="M46.697,38.76c0.271,0.271-0.338,0.541,0,0.676
		c0.338-0.068,0.135-0.541,0.473-0.541l0,0l-0.135,0.406c0.406-0.203,0.676,0.271,1.083-0.068c0-0.203-0.338-0.406-0.135-0.609
		c0.067,0.068,0.203,0,0.271,0.068l0,0l-0.135,0.135c0.27,0.203,0.27,0.338,0.338,0.609c0.474-0.135,0.744-0.474,1.083-0.676
		c-0.068,0.271,0.338,0.338,0.541,0.406c0-0.135,0.203-0.271,0.338-0.203c0.135,0.203-0.067,0.744,0.406,0.541l0,0h0.203
		c0,0.203-0.338,0.542,0.068,0.676l0,0h0.135c-0.203,0.271,0.203,0.338,0.406,0.406c0,1.961,0.608,3.788,0.879,5.682
		c0.203,0.406,0.271,0.812,0.406,1.217l0,0l1.082,2.3c0,0.135-0.135,0.474-0.474,0.474c-2.638,2.164-5.411,4.261-7.575,6.967
		c-1.285,1.556-2.841,3.179-3.72,5.005c-1.826,2.3-2.773,5.005-3.991,7.576l0,0h-0.135c-4.193-5.073-6.967-11.228-8.725-17.586
		c0.338-0.677-0.609-1.015-0.203-1.624c-0.474-0.609-0.067-1.217-0.474-1.894c0-0.203,0.338-0.474,0.068-0.676
		c0.406-0.338,0.541-0.812,1.082-0.812c0.068-0.271,0.406-0.338,0.338-0.676c-0.203,0.068-0.135-0.338-0.338-0.135l0,0l-0.203-0.135
		c0.135-0.203,0.541,0,0.608-0.338c0-0.135-0.203-0.135-0.135-0.338l0,0l0.135-0.135c0.068,0.135,0.068,0.271,0.203,0.338
		c0.135,0.068,0.203-0.067,0.271-0.135c-0.067-0.271,0.135-0.406,0.338-0.541l0,0l0.338,0.271c0.203-0.067,0.067-0.338,0.135-0.541
		c-0.203,0-0.203-0.271-0.271-0.406c0.136-0.135,0.271-0.338,0.068-0.406c0.135-0.067,0.338-0.067,0.406-0.27l0,0h-0.068V43.63
		h0.068c0,0.068,0,0.136,0.135,0.203l0,0h0.135l0.068-0.541c0.338,0,0.406,0.135,0.406,0.406c0.203-0.135,0.608-0.338,0.338-0.609
		c0,0-0.067-0.067-0.067-0.135c0.067-0.135,0.203-0.067,0.338-0.067l0,0v0.27c0.068,0.068,0.338-0.067,0.338-0.203l0,0l-0.135-0.541
		c0.203-0.068,0.474,0.271,0.474-0.068c0.338,0.135,0.067,0.474,0.271,0.677c0.271-0.068,0.338-0.406,0.135-0.609
		c0-0.135-0.203-0.203-0.135-0.406c0.338-0.271,0.541,0.203,0.676,0.473l0,0l0.067,0.068c0.203-0.473,0.812-0.338,0.879-0.812
		c0.338-0.068,0.338-0.812,0.812-0.406c0.271-0.271-0.338-0.609,0-0.744c0.203,0.135,0,0.541,0.271,0.609l0,0l0.068-0.136
		c0.27,0.203,0.338,0.542,0.405,0.879c0.474-0.203-0.067-1.015,0.541-1.217c0.271-0.135,0.068-0.338,0.135-0.542
		c0.203,0.203,0.338,0.406,0.677,0.338c0,0,0.067-0.067,0.067-0.135c0.271,0.068,0.203,0.541,0.609,0.406
		c0-0.338,0.067-0.541,0-0.879c-0.203-0.135-0.271-0.271-0.271-0.542l0,0l0.406-0.135c-0.203,0.609,0.474,0.812,0.744,1.15
		c0.067-0.406,0.067-0.879-0.203-1.217c-0.203-0.609,0.542-0.271,0.744-0.676c0.541-0.271,0.203,0.609,0.744,0.271
		c0,0.135,0.067,0.271,0,0.271l0,0l-0.474-0.135c-0.068,0.135,0.068,0.338,0.135,0.541c0.609-0.135,0.068,0.812,0.744,0.541
		c0.203-0.406,0.338-0.812,0.812-0.812c0.203,0.135,0.474,0.067,0.676,0.067c0.203-0.473,0.879-0.609,1.42-0.744
		c0,0.067-0.135,0.135-0.203,0.203c0.203,0.338,0.338-0.068,0.541,0l0,0l0.135-0.135c0.067,0.338,0.135,0.676,0.406,0.947
		c0.136-0.203,0.136-0.473,0-0.676c-0.067,0-0.135,0.068-0.135,0.068c-0.068-0.135,0.135-0.474,0.271-0.744
		C46.358,38.151,46.02,39.031,46.697,38.76L46.697,38.76L46.697,38.76z"/>
	<path fill-rule="evenodd" clip-rule="evenodd" fill="#0095D6" d="M43.112,38.287c0,0.135,0,0.203-0.068,0.271l0,0h-0.067v-0.271
		H43.112L43.112,38.287z"/>
	<path fill-rule="evenodd" clip-rule="evenodd" fill="#0095D6" d="M51.363,38.287c-0.067,0.068,0,0.203-0.135,0.271v-0.271H51.363
		L51.363,38.287z"/>
	<path fill-rule="evenodd" clip-rule="evenodd" fill="#0095D6" d="M51.025,39.233h-0.338c-0.067-0.271,0.068-0.406,0.271-0.541l0,0
		h0.067V39.233L51.025,39.233z"/>
	<path fill-rule="evenodd" clip-rule="evenodd" fill="#0095D6" d="M41.759,39.166c0,0.067,0.068,0.271-0.067,0.271l0,0l0,0v-0.271
		H41.759L41.759,39.166z"/>
	<path fill-rule="evenodd" clip-rule="evenodd" fill="#0095D6" d="M38.783,39.572h-0.135v-0.271
		C38.783,39.369,38.715,39.504,38.783,39.572L38.783,39.572L38.783,39.572z"/>
	<path fill-rule="evenodd" clip-rule="evenodd" fill="#0095D6" d="M37.498,40.722c0-0.406-1.083-0.744-0.068-0.879l0,0
		L37.498,40.722L37.498,40.722z"/>
	<path fill-rule="evenodd" clip-rule="evenodd" fill="#ED1B32" d="M77.743,21.174c-0.136-0.067-0.067-0.338,0.135-0.405
		C77.877,20.836,77.877,21.106,77.743,21.174L77.743,21.174L77.743,21.174z"/>
	<path fill-rule="evenodd" clip-rule="evenodd" fill="#ED1B32" d="M81.395,21.106c-0.067,0.067-0.136,0-0.271,0
		c0.067-0.135-0.338-0.203-0.136-0.338l0,0L81.395,21.106L81.395,21.106z"/>
	<path fill-rule="evenodd" clip-rule="evenodd" fill="#ED1B32" d="M79.907,21.445h0.068l-0.068,0.067
		c-0.135,0.068-0.203-0.067-0.271-0.067l0,0l-0.203,0.135c0.068-0.068,0.136-0.541,0.474-0.541
		C79.975,21.174,79.704,21.31,79.907,21.445L79.907,21.445L79.907,21.445z"/>
	<path fill-rule="evenodd" clip-rule="evenodd" fill="#ED1B32" d="M79.028,21.445c0,0.067-0.067,0.135-0.136,0.067
		c-0.067-0.067,0.136-0.203,0.068-0.406C79.095,21.106,79.028,21.377,79.028,21.445L79.028,21.445L79.028,21.445z"/>
	<path fill-rule="evenodd" clip-rule="evenodd" fill="#ED1B32" d="M83.831,21.58l-0.068,0.067c0.338,0.068,0.338,0.609,0.744,0.541
		c-0.067,0.338,0.136,0.474,0.271,0.744c0.136-0.203,0.136-0.406,0.338-0.541c0.406,0.203,0.88,0.135,1.285,0.203l0,0l-0.067,0.338
		c0.203,0.135,0.406,0,0.609,0.068c0-0.271,0.202-0.474,0.338-0.676l0,0l0.474,0.067c-0.271,0.271-0.203,0.676-0.677,0.676
		c0.406,0.879,0.677-0.473,1.218,0.271C88.498,23.204,88.767,23,89.039,23c0.405,0.406-0.812,0.947,0,0.947
		c0.067-0.135,0.135-0.203,0.135-0.406c0.136,0.135,0,0.676,0.406,0.541c0,0.203-0.068,0.338,0.067,0.474
		c0.067,0,0.136,0,0.203-0.068c0-0.135-0.203-0.203-0.136-0.338l0,0l0.203-0.203c0.271,0.203-0.067,0.676,0.541,0.609l0,0v0.406
		c0.203,0.135,0.474,0,0.744,0.067c0.067-0.135,0.136-0.27,0.271-0.27l0,0l0.135,0.067c-0.27,0.135-0.676,0.338-0.676,0.744
		c0.067,0.203,0.135,0.067,0.338,0c0.068-0.068,0.136-0.135,0.203-0.135c0.067,0.135-0.067,0.135-0.135,0.203l0,0l0.338,0.406
		c0.067,0,0.203-0.135,0.271-0.203l0,0l0.338,0.339l0.338-0.339c-0.135,0.609-0.608,0.677-0.338,1.353
		c0.406-0.135,0.541,0.135,0.677,0.406c0,0.136,0,0.136,0.067,0.203l0,0h0.203c-0.271,0.541,0.406,1.082,0.067,1.758
		c-1.894,5.208-2.367,10.349-2.367,15.963c-4.532-0.203-9.401-0.271-13.596-0.135c-0.541-0.812-0.541-2.097-1.217-2.976
		c0.203-0.338-0.339-0.406-0.406-0.676c0-0.406-0.608-1.015,0-1.285c-0.338-0.271-0.135-0.812-0.135-1.15l0,0l0.135-0.135
		c-0.135-0.067-0.203-0.203-0.338-0.271c-0.339,0.271-0.203-0.338-0.406-0.406c-1.218-0.203,0-1.15-0.812-1.556
		c0.271-0.474-0.608-0.271-0.203-0.744l0,0l0.406,0.135c-0.067-0.135,0.067-0.541-0.203-0.677l0,0h-0.203
		c0.136-0.405-0.338-0.541-0.541-0.744l0,0h-0.405c0.067,0.067-0.136,0.474,0.067,0.541c0.203,0.068,0.135-0.203,0.338-0.135
		c-0.135,0.406-0.812,0.541-0.608,1.082c-0.067,0.068-0.338-0.067-0.406-0.271c0.406-0.608-0.608-0.541-0.541-0.947l0,0h0.271
		c0,0.271,0.406,0.203,0.609,0.271c0.067-0.135-0.136-0.338-0.068-0.541l0,0h0.068c0.067-0.135,0-0.271-0.136-0.338l0,0
		l-0.474,0.067c0-0.271,0.203-0.406-0.135-0.542c-0.406,0.068-0.609-0.27-1.015-0.067c-0.203-0.203,0.338-0.474,0-0.676l0,0
		l0.203-0.203c0,0.135,0.135,0.068,0.27,0.068l0,0v-0.068c-0.54-0.067-0.202-1.15-1.014-0.812l0,0l-0.203,0.203
		c-0.136-0.135,0-0.676,0.271-0.541c0-0.135,0-0.338,0.203-0.271l0,0v0.135c0.338,0.203,0.135-0.338,0.405-0.406
		c-0.202-0.203-0.135-0.474,0-0.676l0,0l-0.135-0.135h0.271c-0.067,0.068,0,0.135,0.067,0.135l0,0h0.067
		c0.067-0.271-0.202-0.676-0.473-0.744c0.405-0.271,0.405-1.015,0.946-0.609c0.203-0.541-1.082-0.541-0.541-1.285
		c-0.203-0.203,0.135-0.541,0-0.879c0.135,0.203,0.744,0.271,0.474,0.608l0,0l0.067,0.068c0.136-0.203,0.406-0.406,0.136-0.676l0,0
		l-0.136-0.068c-0.271,0.135-0.135-0.338-0.338-0.541c0.338-0.068,0.744,0,0.676,0.406c0.136,0,0.203-0.135,0.271-0.203
		c0.067-0.338-0.203-0.542-0.203-0.812c-0.203,0.068-0.406,0.406-0.609,0.271c0.541-0.338,0.744-0.947,1.354-0.947l0,0l0.135-0.271
		c-0.203-0.068-0.203-0.338-0.271-0.541l0,0l0.608,0.067l-0.202,0.338c0.202,0.338,0.541-0.271,0.676,0.271
		c0.406-0.406,0.744-0.947,0.474-1.556c-0.135-0.068-0.474-0.203-0.405-0.406c0.271-0.135,0.541-0.609,0.879-0.406
		c0,0.067,0,0.135,0.067,0.135l0,0l-0.338,0.271c0.067,0.271,0.338,0.068,0.474,0.203c0,0.135-0.203,0.135-0.136,0.338
		c0.067,0.068,0.067,0.135,0.203,0.135c0.203-0.135,0.203-0.406,0.203-0.608c-0.406,0.067-0.203-0.474-0.271-0.609
		c0.067,0.068,0,0.406,0.271,0.271c0.203-0.271,0.067-0.676,0.405-0.812l0,0v-0.203c0.136,0.135,0.339,0.474,0.474,0.203
		c0-0.203,0-0.405,0.136-0.405c-0.067,0.203,0.135,0.541,0.474,0.338l0,0l0.067-0.338c0.405,0.608,1.149,0.067,1.69,0.405
		c0.339-0.067,0.677-0.135,0.812-0.405c0.474,0.405,0.744-0.203,1.218-0.203c0.136-0.068-0.203-0.474,0.136-0.406
		c0.135,0.203,0.135,0.338,0.271,0.542c0.135-0.609,0.541,0.338,0.744-0.271c0.135,0.135,0.405,0.135,0.474,0.271
		c0.067-0.068,0.338-0.203,0.27-0.406l0,0h0.203c0.136,0.203-0.338,0.608,0.136,0.608c0.067-0.135,0.067-0.203,0.271-0.271
		c-0.067,0.068,0,0.136,0.067,0.136c-0.067,0.067-0.203,0.135-0.135,0.203c0.067,0.203,0.27,0.271,0.473,0.203
		c0,0.203-0.067,0.338-0.135,0.474c0.271,0.203,0.474-0.135,0.474-0.406c-0.136-0.271-0.474-0.473-0.271-0.812l0,0l0.676-0.406
		C84.372,21.242,84.168,21.647,83.831,21.58L83.831,21.58L83.831,21.58z"/>
	<path fill-rule="evenodd" clip-rule="evenodd" fill="#ED1B32" d="M86.333,21.445l-0.608-0.068
		C85.792,21.174,86.198,21.31,86.333,21.445L86.333,21.445L86.333,21.445z"/>
	<path fill-rule="evenodd" clip-rule="evenodd" fill="#ED1B32" d="M88.835,21.715h-0.068c-0.135-0.203,0.068-0.203,0.136-0.271
		C88.903,21.512,88.97,21.647,88.835,21.715L88.835,21.715L88.835,21.715z"/>
	<polygon fill-rule="evenodd" clip-rule="evenodd" fill="#ED1B32" points="86.806,21.647 86.874,21.647 86.874,21.512 
		86.806,21.512 86.806,21.647 	"/>
	<path fill-rule="evenodd" clip-rule="evenodd" fill="#ED1B32" d="M84.913,21.918h-0.271c0.067,0,0.135-0.203,0.271-0.135l0,0
		V21.918L84.913,21.918z"/>
	<polygon fill-rule="evenodd" clip-rule="evenodd" fill="#ED1B32" points="86.603,22.053 86.67,21.851 86.874,22.053 86.603,22.053 
			"/>
	<path fill-rule="evenodd" clip-rule="evenodd" fill="#ED1B32" d="M75.172,22.121c0,0.067,0.067,0.203,0,0.203
		c-0.136,0.067-0.136-0.068-0.203-0.136l0,0l0.067-0.203C75.037,22.121,75.172,22.121,75.172,22.121L75.172,22.121L75.172,22.121z"
		/>
	<path fill-rule="evenodd" clip-rule="evenodd" fill="#ED1B32" d="M88.159,22.527c0,0.135,0,0.271-0.203,0.338
		C87.821,22.595,88.091,22.595,88.159,22.527L88.159,22.527L88.159,22.527z"/>
	<path fill-rule="evenodd" clip-rule="evenodd" fill="#ED1B32" d="M72.669,23.136v0.203c-0.135,0-0.202,0.067-0.271-0.068
		C72.332,23.136,72.535,23,72.669,23.136L72.669,23.136L72.669,23.136z"/>
	<path fill-rule="evenodd" clip-rule="evenodd" fill="#ED1B32" d="M72.128,24.421c0,0.135-0.202,0.067-0.271,0.135
		C71.858,24.421,72.061,24.353,72.128,24.421L72.128,24.421L72.128,24.421z"/>
	<path fill-rule="evenodd" clip-rule="evenodd" fill="#ED1B32" d="M72.602,25.232c-0.135,0.068-0.135-0.068-0.203-0.135
		c0.068,0,0-0.135,0.203-0.068l0,0V25.232L72.602,25.232z"/>
	<path fill-rule="evenodd" clip-rule="evenodd" fill="#ED1B32" d="M92.15,25.571c-0.068,0.203-0.203,0.135-0.339,0
		C91.879,25.503,92.082,25.503,92.15,25.571L92.15,25.571L92.15,25.571z"/>
	<path fill-rule="evenodd" clip-rule="evenodd" fill="#ED1B32" d="M70.37,27.938c-0.067,0.135,0,0.271-0.202,0.203l0,0v-0.203H70.37
		L70.37,27.938z"/>
	<path fill-rule="evenodd" clip-rule="evenodd" fill="#ED1B32" d="M70.099,28.547v0.406c-0.271,0.067-0.405-0.135-0.608-0.271
		c0-0.203,0-0.271,0.203-0.338C69.829,28.344,69.964,28.412,70.099,28.547L70.099,28.547L70.099,28.547z"/>
	<polygon fill-rule="evenodd" clip-rule="evenodd" fill="#ED1B32" points="70.37,29.223 70.235,29.223 70.235,28.953 70.37,28.953 
		70.37,29.223 	"/>
	<path fill-rule="evenodd" clip-rule="evenodd" fill="#ED1B32" d="M70.708,30.035l-0.136,0.068l-0.203-0.135l0.203-0.271
		C70.64,29.832,70.64,29.899,70.708,30.035L70.708,30.035L70.708,30.035z"/>
	<path fill-rule="evenodd" clip-rule="evenodd" fill="#ED1B32" d="M69.964,30.035c-0.136,0.338,0.541,0.271,0.135,0.609
		c-0.271,0.135-0.338-0.203-0.541-0.271C69.558,30.103,69.829,30.035,69.964,30.035L69.964,30.035L69.964,30.035z"/>
	<path fill-rule="evenodd" clip-rule="evenodd" fill="#ED1B32" d="M69.288,31.252v0.135c-0.067,0.067-0.338-0.068-0.338-0.271
		C69.153,31.049,69.22,31.252,69.288,31.252L69.288,31.252L69.288,31.252z"/>
	<path fill-rule="evenodd" clip-rule="evenodd" fill="#ED1B32" d="M70.64,33.146c-0.067-0.067-0.202-0.271-0.067-0.338h0.067V33.146
		L70.64,33.146z"/>
	<path fill-rule="evenodd" clip-rule="evenodd" fill="#ED1B32" d="M69.423,32.943v0.203c-0.136,0-0.203-0.067-0.339-0.203
		C69.153,32.875,69.355,32.875,69.423,32.943L69.423,32.943L69.423,32.943z"/>
	<path fill-rule="evenodd" clip-rule="evenodd" fill="#ED1B32" d="M70.505,33.89c0,0.135,0,0.271-0.136,0.338l0,0v-0.405
		C70.438,33.823,70.505,33.89,70.505,33.89L70.505,33.89L70.505,33.89z"/>
	<path fill-rule="evenodd" clip-rule="evenodd" fill="#ED1B32" d="M73.617,36.19c0,0.203,0,0.474-0.203,0.474
		c-0.067-0.136-0.405-0.271-0.271-0.542l0,0L73.617,36.19L73.617,36.19z"/>
	<path fill-rule="evenodd" clip-rule="evenodd" fill="#ED1B32" d="M75.375,40.451c0,0.203-0.136,0.135-0.271,0.203l0,0v-0.203
		H75.375L75.375,40.451z"/>
	<path fill-rule="evenodd" clip-rule="evenodd" fill="#2E5E9C" d="M74.09,43.224c0.271,1.961-1.285,3.382-2.436,4.6
		c-2.3,1.623-4.464,3.45-6.561,5.343l0,0l-6.696,5.141c-3.247,3.652-7.711,4.599-10.89,8.184c-1.42,1.285-2.773,2.706-3.991,4.194
		c-0.947,0.608-1.353,1.894-2.029,2.773c-0.473-0.135-0.406,0.541-0.879,0.203c-0.068-4.532,2.367-7.981,5.141-11.296
		c7.169-7.914,15.962-13.392,24.958-17.856c0.474-0.271,1.285-0.676,1.487-1.353c-3.043-0.473-5.952,0.812-8.792,0.947
		c-0.271-0.203-0.744-0.203-0.744-0.541c2.909-2.029,6.967-2.097,10.281-1.488C73.346,42.277,73.887,42.751,74.09,43.224
		L74.09,43.224L74.09,43.224z"/>
	<path fill-rule="evenodd" clip-rule="evenodd" fill="#2E5E9C" d="M93.84,51.408c0.947,0.744,1.354,1.691,1.759,2.638
		c1.962,5.411,2.638,10.687,4.059,16.233c0.676,2.435,0.676,5.276-0.947,7.44c-2.57,3.382-6.493,4.87-10.619,4.938
		c-0.338,0-0.541,0.136-0.947,0.068c-0.067-0.474-0.474-0.203-0.812-0.203c-2.977,0.676-5.546-0.203-8.455,0.947
		c-1.961,0.812-3.99,1.082-5.884,2.232c-1.826,0.608-3.45,1.624-5.006,2.774c0.136-0.609,0.947-1.083,1.015-1.895
		c4.532-3.788,9.402-6.087,14.948-7.576c2.773-0.406,5.344-1.488,7.981-2.232c1.69-0.676,4.193-1.556,4.396-3.788
		c0.338-3.518-1.623-6.696-1.69-10.349c-0.474-2.638-0.677-5.343-0.947-8.117c-0.271-0.744-0.406-1.826-1.353-2.367
		c-3.111-1.488-7.238-0.676-10.755-0.879c-3.044,0.27-6.696,0.608-9.47,0.338c-0.338-0.135-0.338-0.609-0.474-0.879
		c2.368-0.879,4.396-1.014,7.103-1.149c3.517-0.068,7.372-0.406,10.687,0C90.255,49.853,92.285,50.259,93.84,51.408L93.84,51.408
		L93.84,51.408z"/>
	<path fill-rule="evenodd" clip-rule="evenodd" fill="#0095D6" d="M112.509,41.533c-0.339,0.203,0.067,0.677,0.135,1.015
		c-0.067,1.961-0.067,3.991-0.541,5.749c-0.812,7.238-4.465,13.73-8.59,19.818c-0.677-0.406-0.542,0.812-1.285,0.541l0,0
		l-0.271-1.556c0.067,0,0.067-0.067,0.135-0.067c0-0.203-0.135-0.068-0.135-0.135c-0.947-4.871-1.488-10.281-2.841-15.016
		c0.202-0.135,0.338,0.406,0.541,0c0-0.135-0.203-0.067-0.203-0.067c-0.136-0.338,0.474-0.135,0.338-0.609
		c0.677-0.067,0-0.947,0.609-1.082l0,0h0.202c-0.067,0.135,0.136,0.203,0.271,0.135c0.406,0.067,0.203-0.203,0.541-0.406
		c0.203,0.068,0.406,0,0.609-0.067c-0.271-0.203,0-0.609,0-0.677c0.203-0.067,0.338,0.203,0.405,0.338
		c0.068-0.338,0.406-0.406,0.406-0.744c0.271,0.203,0.135,0.541,0.271,0.812c0.271-0.135,0.136-0.406,0.203-0.541
		c0.271-0.068,0.405-0.135,0.676-0.203l0,0l-0.271-0.406c0.271-0.135,0.609-0.203,0.812-0.474c0.271,0.068,0.609,0.136,0.813-0.067
		c-0.136-0.135-0.203-0.338-0.339-0.474c-0.067,0.135-0.067,0.338-0.338,0.271c-0.067,0-0.067-0.135-0.067-0.203
		c0.338,0.135,0.338-0.135,0.405-0.338c0.541,0.271,0.474-0.338,0.947-0.406c0-0.203-0.271-0.135-0.135-0.406
		c0.473,0.067,0.338-0.406,0.608-0.609c0-0.068,0.067-0.203,0-0.271h-0.067c0-0.677,0.676-0.406,1.082-0.609
		c0.135,0.203,0.271-0.068,0.405-0.068c-0.067-0.473,0.677-0.473,0.339-0.879c0.135-0.135,0.338-0.067,0.338-0.203
		c0.136-0.203-0.338-0.271-0.067-0.474l0,0h0.271c0.067,0.203-0.136,0.609,0.203,0.609c0.202-0.136,0-0.542,0.202-0.744
		c0.271-0.271,0.339-0.812,0.88-0.542c0,0.068,0,0.135,0.067,0.203c0.067,0,0.136,0,0.203-0.068
		c-0.136-0.271-0.339-0.541-0.339-0.879c0.068-0.135,0.203,0.067,0.271,0.067c0.676-0.135,0.202-1.42,1.082-0.947l0,0l0.405-0.135
		c-0.203-0.271,0.338-0.338,0.338-0.542C112.779,40.248,112.238,41.06,112.509,41.533L112.509,41.533L112.509,41.533z"/>
	<path fill-rule="evenodd" clip-rule="evenodd" fill="#0095D6" d="M111.359,40.383c0,0.068-0.136,0.068-0.136,0.203l0,0h-0.067
		v-0.271C111.156,40.316,111.359,40.248,111.359,40.383L111.359,40.383L111.359,40.383z"/>
	<path fill-rule="evenodd" clip-rule="evenodd" fill="#0095D6" d="M108.382,42.683l-0.067,0.068v-0.338
		C108.382,42.48,108.315,42.615,108.382,42.683L108.382,42.683L108.382,42.683z"/>
	<path fill-rule="evenodd" clip-rule="evenodd" fill="#0095D6" d="M107.03,43.833c-0.067,0-0.135,0.067-0.203,0l0,0l0.136-0.203
		C107.098,43.563,107.03,43.833,107.03,43.833L107.03,43.833L107.03,43.833z"/>
	<path fill-rule="evenodd" clip-rule="evenodd" fill="#0095D6" d="M105.745,45.591c0.136,0.203-0.203,0.203-0.271,0.338
		C105.339,45.659,105.677,45.727,105.745,45.591L105.745,45.591L105.745,45.591z"/>
	<path fill-rule="evenodd" clip-rule="evenodd" fill="#0095D6" d="M105.069,46.674c-0.068,0.067-0.271,0.338-0.474,0.135
		C104.527,46.471,104.933,46.606,105.069,46.674L105.069,46.674L105.069,46.674z"/>
	<polygon fill-rule="evenodd" clip-rule="evenodd" fill="#0095D6" points="104.325,47.08 104.257,46.809 104.325,46.809 
		104.325,47.08 	"/>
	<path fill-rule="evenodd" clip-rule="evenodd" fill="#0095D6" d="M103.918,47.959c-0.067,0-0.203,0-0.271-0.068l0,0l0.203-0.271
		C103.918,47.621,103.851,47.891,103.918,47.959L103.918,47.959L103.918,47.959z"/>
	<path fill-rule="evenodd" clip-rule="evenodd" fill="#0095D6" d="M103.31,47.959c0,0.068-0.067,0.135-0.067,0.135l0,0h-0.203
		v-0.135H103.31L103.31,47.959z"/>
	<path fill-rule="evenodd" clip-rule="evenodd" fill="#0095D6" d="M99.589,50.867c-0.202,0-0.473,0-0.473-0.271
		C99.387,50.529,99.589,50.8,99.589,50.867L99.589,50.867L99.589,50.867z"/>
	<path fill-rule="evenodd" clip-rule="evenodd" fill="#0095D6" d="M99.048,50.867v0.135h-0.202V50.8
		C98.981,50.8,98.981,50.867,99.048,50.867L99.048,50.867L99.048,50.867z"/>
	<polygon fill-rule="evenodd" clip-rule="evenodd" fill="#2FB457" points="82.003,57.767 82.072,57.767 82.072,57.902 
		82.003,57.902 82.003,57.767 	"/>
	<path fill-rule="evenodd" clip-rule="evenodd" fill="#2FB457" d="M79.569,57.293c-0.136,0.203-0.203,0.338-0.203,0.609
		c0.406-0.203,0.271,0.406,0.677,0.271c-0.067-0.338,0.405-0.541,0.676-0.406c0.136,0.271,0.541,0.338,0.406,0.676
		c0,0.068,0.135,0.068,0.203,0.068c0.203-0.068,0.067-0.338,0.067-0.474c0-0.203-0.406-0.067-0.271-0.406
		c0.067-0.068,0.203-0.068,0.271-0.135c0.338,0.338,0.608-0.136,0.947-0.203c0,0.135,0,0.203,0.067,0.271l0,0h0.203
		c0,0.203,0.067,0.541-0.271,0.541c0.067-0.067-0.067-0.135-0.136-0.203c-0.203,0.135-0.067,0.338-0.135,0.473
		c0.271,0.338,0.338-0.271,0.541-0.067c0.202-0.135,0.135-0.406,0.338-0.474c0.271,0.203,0.405,0.474,0.744,0.609
		c0.338-0.135,0.136-0.609,0.474-0.609c-0.136,0.271-0.136,0.609,0,0.879l0,0l0.338-0.338l0.067,0.406
		c0.339-0.068,0.88,0,0.744-0.542l0,0v-0.135c0.136,0.068,0.271,0.203,0.338,0.271c0.203-0.135,0.406-0.203,0.339-0.541
		c0.541-0.135,0,0.609,0.608,0.406l0,0l0.203,0.338l0.608-0.474c0,0.271-0.473,0.474-0.067,0.812l0.608-0.067
		c0,0.067,0.068,0.135,0.068,0.203l0,0l0.405-0.405c0.068,0.067,0.203,0.135,0.136,0.203c-0.271,0.135-0.474,0.338-0.474,0.609
		c0.067,0.068,0.136,0.068,0.203,0.068l0,0l0.135-0.203c0.136,0.338,0.744,0.203,0.609,0.676c-0.271,0.068-0.271,0.338-0.339,0.541
		c0.067,0.135,0.339,0,0.406,0.203c-0.067,0.067-0.203,0.135-0.136,0.271l0.068,0.067l0.338-0.338
		c0.203,3.314,1.285,6.561,2.097,9.672c-1.015,2.773-4.126,3.72-6.696,4.6c-6.087,1.488-11.701,4.059-16.909,7.576
		c0.541-2.909,0.676-6.02-0.136-8.996c-0.744-2.57-2.706-4.938-5.275-6.087c-0.338-0.203-0.677-0.608-1.083-0.473
		c-0.203-0.135-0.271-0.338-0.338-0.474c0.271,0.136,0.338-0.27,0.406-0.405c-0.474-0.271-0.474-0.609-0.474-1.083
		c0,0.135,0.135,0.135,0.203,0.068c-0.067,0.338,0.136,0.541,0.271,0.744c0.406,0.068,0.608-0.338,0.879-0.473
		c-0.271-0.541,0.541-0.271,0.541-0.744l0,0l-0.068-0.406c-0.135-0.068-0.338,0.271-0.609,0c0.136,0,0.271-0.135,0.271-0.068l0,0
		l0.406-0.338l0.203,0.203c0.406-0.474,1.556,0.473,1.285-0.474c-0.203,0,0,0.271-0.271,0.203l0,0l-0.338-0.608
		c0.203-0.135,0.473-0.068,0.744-0.068l0,0l0.203,0.203c0.473-0.068,0.406-1.083,0.947-0.609c0.406-0.135-0.067-0.406,0.203-0.609
		l0,0h0.405c0.136-0.203-0.271-0.271-0.405-0.473c-0.136,0.067-0.203,0.135-0.271,0.203l0,0L65.5,61.757l-0.271,0.203l-0.203-0.609
		c0.203,0.135,0.474-0.203,0.609,0.203c0.271-0.203,0.608,0.135,0.88-0.203l0,0l0.135,0.271c0.203-0.203-0.067-0.474-0.135-0.609
		c-0.136-0.135-0.203,0-0.271,0c-0.135,0-0.067-0.203-0.067-0.271c0.203-0.406,0.406,0.271,0.608,0l0,0v0.473
		c0.203-0.067,0.744,0,0.88-0.067c0-0.338-0.338-1.082,0.406-1.015c0.135,0.068,0.067,0.338-0.068,0.474
		c0,0.067,0.136,0.067,0.203,0.067c0.338-0.338,0.338-0.947,0.609-1.149l0,0l0.067,0.067c0.135-0.474,0.879-0.067,1.149-0.677
		c0.203,0.406,0.744,0.203,0.88,0.609c0.067,0,0.202-0.068,0.338-0.068c0,0.135-0.067,0.135-0.136,0.203
		c0.203,0.135,0.474-0.135,0.474-0.406c0.067-0.271,0.339-0.406,0.608-0.473c0,0.135,0.068,0.135,0.136,0.203
		c0.136,0,0.203-0.271,0.338-0.068c0.203-0.135-0.135-0.203-0.135-0.405c0.608,0,0.541-0.609,1.217-0.541
		c-0.135,0.203,0,0.608-0.135,0.812l0,0l0.135,0.135c0.068-0.338,0.339-0.405,0.474-0.812c0.136,0.068,0.203,0.203,0.271,0.203
		c-0.135,0.406-0.405,0.608-0.744,0.676c0.068,0.271,0.474,0.203,0.677,0.406c0.339-0.203-0.067-0.474,0.271-0.676
		c0.271-0.067,0.541,0.338,0.608,0l0,0l-0.135-0.135l0.541-0.271c0.135,0.135-0.135,0.406-0.406,0.474
		c0.136,0.473,0.474-0.068,0.744,0c0.136-0.068,0.068-0.271,0.068-0.406l0,0l0.405,0.203c-0.067-0.541,0.609-0.271,0.88-0.271
		c0.067,0.135,0.271,0.067,0.338,0.067l0,0l0.203-0.203c-0.136-0.271-0.271,0.067-0.474,0c-0.136,0,0-0.271-0.136-0.406
		c0.136,0,0.541,0.135,0.474-0.203l0,0v-0.271h0.406v0.067c-0.136,0-0.136,0.136-0.203,0.203c0,0.068,0,0.135,0.067,0.135
		c0.136-0.067,0.406-0.135,0.406-0.406c0.135,0.135,0.271,0.203,0.474,0.203C79.163,57.293,79.501,56.887,79.569,57.293
		L79.569,57.293L79.569,57.293z"/>
	<path fill-rule="evenodd" clip-rule="evenodd" fill="#2FB457" d="M84.777,57.158c0,0.135,0.067,0.271,0,0.271l0,0h-0.203
		C84.506,57.293,84.709,57.226,84.777,57.158L84.777,57.158L84.777,57.158z"/>
	<path fill-rule="evenodd" clip-rule="evenodd" fill="#2FB457" d="M80.787,57.226c0,0.135,0,0.271-0.068,0.338l0,0h-0.202
		C80.448,57.293,80.718,57.36,80.787,57.226L80.787,57.226L80.787,57.226z"/>
	<path fill-rule="evenodd" clip-rule="evenodd" fill="#2FB457" d="M79.975,57.563c0,0,0,0.068-0.068,0.068l0,0h-0.135v-0.135
		C79.907,57.496,79.975,57.428,79.975,57.563L79.975,57.563L79.975,57.563z"/>
	<path fill-rule="evenodd" clip-rule="evenodd" fill="#2FB457" d="M76.525,57.97l-0.202,0.135l-0.068-0.203
		C76.323,57.902,76.525,57.834,76.525,57.97L76.525,57.97L76.525,57.97z"/>
	<polygon fill-rule="evenodd" clip-rule="evenodd" fill="#2FB457" points="84.574,58.104 84.439,58.104 84.439,57.97 84.574,57.97 
		84.574,58.104 	"/>
	<path fill-rule="evenodd" clip-rule="evenodd" fill="#2FB457" d="M88.565,58.443c-0.067-0.203,0.202-0.203,0.271-0.271l0,0v0.271
		H88.565L88.565,58.443z"/>
	<path fill-rule="evenodd" clip-rule="evenodd" fill="#2FB457" d="M71.52,58.713c-0.068,0.135,0.067,0.338-0.068,0.406
		c-0.135-0.203-0.27-0.406-0.54-0.271c0-0.135-0.068-0.271,0.135-0.406C71.25,58.511,71.384,58.578,71.52,58.713L71.52,58.713
		L71.52,58.713z"/>
	<path fill-rule="evenodd" clip-rule="evenodd" fill="#2FB457" d="M66.65,59.66c-0.135,0.068-0.203-0.135-0.135-0.271l0,0h0.135
		V59.66L66.65,59.66z"/>
	<path fill-rule="evenodd" clip-rule="evenodd" fill="#2FB457" d="M63.742,62.501c-0.068,0.338-0.338,0.203-0.609,0.27l0,0
		l0.203-0.338C63.403,62.636,63.539,62.501,63.742,62.501L63.742,62.501L63.742,62.501z"/>
	<path fill-rule="evenodd" clip-rule="evenodd" fill="#2FB457" d="M63.065,63.11c0,0.068,0.068,0.203-0.067,0.271
		c-0.068,0-0.135-0.067-0.203-0.135C62.727,63.042,62.998,62.975,63.065,63.11L63.065,63.11L63.065,63.11z"/>
	<path fill-rule="evenodd" clip-rule="evenodd" fill="#2FB457" d="M61.78,65.004c-0.135,0.135-0.135,0.406-0.271,0.406
		c0-0.338-0.338-0.406-0.067-0.812C61.645,64.598,61.645,64.869,61.78,65.004L61.78,65.004L61.78,65.004z"/>
	<path fill-rule="evenodd" clip-rule="evenodd" fill="#0095D6" d="M58.06,70.956c-0.068,0.541,0.338,1.014,0,1.42
		c-2.232,1.15-4.329,2.841-5.75,4.938c-1.556,2.029-2.57,5.005-1.42,7.508c0.541,1.015,1.082,1.894,2.232,2.367
		c2.976,1.083,5.952-0.338,8.117-2.367c1.218-1.285,2.029-2.976,2.841-4.464c0.338,0.541,0.135,1.353,0.135,1.962l0,0l-1.556,3.043
		c-2.367,2.571-5.005,5.952-8.658,4.802c-3.179-0.27-6.155-2.705-7.575-5.681c-1.42-3.652,0-7.575,2.232-10.484
		c2.165-2.165,4.396-4.599,7.576-4.058C56.842,70.279,57.451,70.55,58.06,70.956L58.06,70.956L58.06,70.956z"/>
	<path fill-rule="evenodd" clip-rule="evenodd" fill="#F6891F" d="M57.857,75.623c0.135-0.068,0.203-0.203,0.338-0.203
		c-0.338,0.474,0.068,1.015,0.338,1.421c0.271,0.135,0.541,0.067,0.744,0.067l0,0v-0.406c0.135,0.067,0.203-0.068,0.271-0.136
		c-0.271-0.338,0.271-0.541,0.406-0.744c0.135,0,0.203,0.135,0.406,0.067c0.068,0.203-0.135,0.338-0.271,0.406l0,0l0.474,0.473
		c-0.135,0.203-0.541-0.203-0.474,0.271c0.406,0.067,0.474,0.744,0.947,0.405c0.068-0.135,0.203-0.271,0.338-0.338l0,0h0.135
		c-0.135,0.338,0,0.676,0.136,0.947c0.203-0.203,0.541-0.068,0.744,0c0.135,0.067,0.068,0.203,0.068,0.271
		c-0.203,0.068-0.338,0.271-0.474,0.406c0,0.203,0.067,0.338,0.135,0.474c0.135,0,0.271-0.067,0.338-0.203
		c-0.406,2.368-2.435,4.464-4.464,5.952c-1.42,0.812-3.382,0.677-4.667-0.338c-0.676-0.812-0.676-1.962-0.541-2.976
		c0.609-0.609,0-1.218,0.812-1.826c0-0.474,0.609-0.744,0.676-1.217c0.542-0.068,0.271-0.812,0.812-0.879
		c0.203-0.406,0.406-0.879,0.744-1.15c0.338,0.203,0.474-0.27,0.677-0.405c0.135-0.068,0.135-0.136,0.135-0.271l0,0h0.203
		c0,0.135-0.135,0.135-0.068,0.271c0.338-0.338,0.879,0.473,1.083-0.203l0,0l-0.338-0.271l0.135-0.068L57.857,75.623L57.857,75.623z
		"/>
	<path fill-rule="evenodd" clip-rule="evenodd" fill="#F6891F" d="M59.142,75.69c-0.068,0.068-0.068,0.203-0.068,0.338
		c-0.067,0-0.135,0-0.203-0.067C58.804,75.826,59.007,75.69,59.142,75.69L59.142,75.69L59.142,75.69z"/>
	<path fill-rule="evenodd" clip-rule="evenodd" fill="#F6891F" d="M59.007,76.502v0.203h-0.203c0-0.067,0-0.067,0-0.135
		C58.804,76.502,58.939,76.367,59.007,76.502L59.007,76.502L59.007,76.502z"/>
	<path fill-rule="evenodd" clip-rule="evenodd" fill="#2E5E9C" d="M24.782,136.903c-1.42,0.068-2.57-0.27-3.45-1.352
		c-1.285-2.436-0.135-5.277,0.068-7.914c1.082-6.426,1.759-13.258,2.976-19.547l0,0h7.711l-1.894,13.527
		c-0.474,3.449-1.015,7.371-1.556,11.092c-0.067,0.338,0.338,0.813,0.744,0.947c0.541,0.203,0.879,0.135,1.42-0.068
		c0.879-0.404,1.014-1.488,1.082-2.434l0,0l1.894-13.189c0.338-3.248,1.014-6.563,1.42-9.875l0,0h7.914l-1.015,7.033
		c-0.609,5.141-1.488,10.551-2.232,15.828c0,1.148-0.135,2.502,1.082,3.178c1.083,0.406,2.165,0.203,3.044-0.607
		c0.947-0.947,1.082-3.383,1.42-5.209l0,0l1.218-8.725l0.338-2.57l1.217-8.928h7.914l-0.067,1.555
		c1.826-2.098,4.667-1.555,7.237-1.555c0.947,0.066,2.029,0.473,2.435,1.42c0.339,0.676,0.203,1.758,0.068,2.502l0,0l-1.083,7.441
		l-0.271,1.42l-6.696-0.068c0.473-2.096,0.541-4.125,0.947-6.291c0.068-0.541-0.135-1.217-0.676-1.555
		c-0.676-0.271-1.285-0.068-1.894,0.27c-0.676,0.678-0.947,2.301-1.082,3.652c-0.406,2.707-0.812,5.344-1.218,8.117l0,0
		l-1.691,11.904h-7.643c0-0.541,0-0.879,0.068-1.623c-0.879,1.082-1.894,2.367-3.314,2.705c-1.894,0.137-4.194,0.137-5.546-1.555
		l0,0l-0.947-1.217c-0.676,1.42-2.435,1.758-3.72,1.689C31.004,136.903,26.608,136.903,24.782,136.903L24.782,136.903
		L24.782,136.903z"/>
	<path fill-rule="evenodd" clip-rule="evenodd" fill="#2E5E9C" d="M18.018,108.09c1.082,0.201,2.232,0.541,2.502,1.689l0,0
		l-0.068,1.895l-1.69,11.432l-9.334,0.066c-0.473-0.066-0.271,0.744-0.406,1.016c-0.474,2.908-0.947,5.885-1.285,8.793
		c0.068,0.338,0.271,0.607,0.609,0.811c0.541,0.203,0.744,0,1.285-0.066c0.609-0.271,1.217-0.881,1.15-1.625l0,0l1.015-7.305
		l6.696-0.066c-0.473,3.449-0.541,6.898-1.691,10.145c-0.676,1.623-2.773,2.029-4.058,2.029l0,0H2.461
		c-0.676,0-1.961-0.811-2.232-1.893c-0.744-3.248,0.541-6.359,0.812-9.674c0.676-4.734,1.353-10.01,2.232-15.082
		c0.473-1.354,1.826-2.164,3.247-2.164l0,0H18.018L18.018,108.09z M11.795,110.93c-0.474,0-0.677,0.406-0.947,0.744
		c-0.473,2.502-0.812,5.344-1.217,7.914l0,0h2.773c0.338-2.57,0.879-5.344,1.083-8.049C13.013,110.999,12.54,110.795,11.795,110.93
		L11.795,110.93L11.795,110.93z"/>
	<path fill-rule="evenodd" clip-rule="evenodd" fill="#2E5E9C" d="M84.1,108.09c1.083,0,2.098,0.338,2.57,1.283
		c0.609,2.842-0.271,5.682-0.743,8.727l0,0l-1.15,7.846c-0.608,3.18-0.541,6.494-2.029,9.402c-0.946,1.42-2.638,1.555-4.126,1.555
		l0,0H68.476c-1.015,0-2.164-0.338-2.841-1.352c-1.15-2.773,0.203-5.885,0.338-8.523c0.812-5.547,1.354-11.498,2.503-17.045
		c0.541-1.758,2.164-1.893,3.855-1.893l0,0H84.1L84.1,108.09z M77.81,110.862c-0.744-0.135-1.487,0.137-1.826,0.813
		c-0.541,3.449-1.149,7.305-1.623,10.688l0,0l-1.353,9.4c-0.068,0.475-0.203,1.354,0.338,1.76c0.338,0.27,0.879,0.203,1.285,0.203
		c0.541-0.137,0.879-0.271,1.149-0.813c1.083-6.764,2.029-13.527,2.977-20.426c0.067-0.541,0.203-1.488-0.474-1.625l0,0H77.81
		L77.81,110.862z"/>
	<path fill-rule="evenodd" clip-rule="evenodd" fill="#2E5E9C" d="M110.074,113.77c1.623,4.668-0.879,9.336-2.908,13.326
		c-2.232,3.721-4.735,7.305-7.914,10.281c-1.69-1.15-3.314-2.367-5.005-3.518c2.231-2.367,4.531-4.6,6.223-7.238
		c-1.759,0.137-4.262-0.066-6.02-1.148c-3.111-1.895-4.532-5.682-4.059-9.471c0.338-3.178,2.841-6.561,6.02-7.574
		c1.962-0.744,4.6-0.881,6.764-0.406C106.083,108.766,109.059,110.659,110.074,113.77L110.074,113.77L110.074,113.77z
		 M101.619,112.553c-1.42-0.473-2.976,0.135-4.058,1.285c-1.015,1.15-1.421,2.908-1.15,4.193c0.203,1.76,1.353,3.246,2.977,3.789
		c1.353,0.338,3.314,0,4.396-1.488c1.285-1.557,1.217-4.193,0.202-5.885C103.445,113.569,102.499,112.891,101.619,112.553
		L101.619,112.553L101.619,112.553z"/>
	<path fill-rule="evenodd" clip-rule="evenodd" fill="#2E5E9C" d="M126.781,119.858c2.841,2.098,4.058,5.615,3.584,9.131
		c-0.405,3.383-3.179,6.764-6.357,7.779c-4.059,1.217-8.658,0.473-11.634-2.705c-3.449-3.449-2.3-8.93-0.474-12.852
		c0.947-2.029,2.097-4.33,3.585-6.357c1.759-2.57,3.585-5.006,5.885-7.238c1.623,1.15,3.449,2.299,5.072,3.586
		c-2.231,2.367-4.6,4.463-6.223,7.236C120.219,118.438,124.278,117.897,126.781,119.858L126.781,119.858L126.781,119.858z
		 M116.432,129.936c0.405,1.082,1.623,2.301,2.841,2.504c1.487,0.404,3.043-0.203,4.058-1.422c1.015-1.555,1.488-3.584,0.609-5.479
		c-0.609-1.082-1.556-2.096-2.773-2.434c-1.691-0.406-3.314,0.338-4.262,1.689C116.905,124.795,115.349,126.487,116.432,129.936
		L116.432,129.936L116.432,129.936z"/>
	<path fill-rule="evenodd" clip-rule="evenodd" fill="#0095D6" d="M24.782,142.381l-1.082,2.098h-9.267
		c-0.879,1.623-1.961,3.721-2.706,5.344l0,0h7.846l-1.624,3.246h-7.778c-0.676,1.285-1.285,2.57-1.894,3.924
		c-0.406,0.811,0.542,0.879,1.083,0.879l0,0h9.808c-0.609,1.217-1.15,2.367-1.827,3.518l0,0H2.867
		c-0.744-0.137-2.165,0.203-2.773-0.744c-0.406-1.76,0.812-3.111,1.42-4.6l0,0l5.75-11.566h-3.45l1.015-2.098H24.782L24.782,142.381
		z"/>
	<path fill-rule="evenodd" clip-rule="evenodd" fill="#2E5E9C" d="M85.25,166.055c8.996,0.338,18.127,1.15,27.056,2.301l0,0
		l2.638,0.338l0.271,1.623c-7.373-0.541-14.948-1.082-22.727-1.016l0,0l-8.319,0.137c-8.726,0.338-18.06,1.486-26.515,3.855
		c-0.812-1.76-1.42-3.652-2.097-5.479c0.609-0.068,1.217-0.137,1.759-0.271l0,0l6.966-0.813c3.653-0.404,7.576-0.473,11.499-0.744
		l0,0L85.25,166.055L85.25,166.055z"/>
	<path fill-rule="evenodd" clip-rule="evenodd" fill="#2E5E9C" d="M10.916,97.403l-0.812,5.275
		c-0.203,0.947-0.676,2.908-3.247,2.908c-2.502,0-2.367-1.961-2.232-2.908l0,0l0.812-5.275h2.165l-0.744,5.072
		c-0.067,0.203-0.135,0.475-0.067,0.676c0,0.271,0.135,0.406,0.406,0.406c0.338,0,0.473-0.135,0.609-0.406
		c0.067-0.201,0.067-0.473,0.135-0.676l0,0l0.812-5.072H10.916L10.916,97.403z"/>
	<polygon fill-rule="evenodd" clip-rule="evenodd" fill="#2E5E9C" points="17.139,97.403 21.197,97.403 20.926,99.295 
		19.032,99.295 18.897,100.446 20.521,100.446 20.25,102.34 18.559,102.34 18.356,103.557 20.25,103.557 19.912,105.452 
		15.921,105.452 17.139,97.403 	"/>
	<polygon fill-rule="evenodd" clip-rule="evenodd" fill="#2E5E9C" points="27.149,105.452 28.367,97.403 32.222,97.403 
		31.951,99.364 30.26,99.364 30.058,100.514 31.613,100.514 31.343,102.407 29.787,102.407 29.313,105.452 27.149,105.452 	"/>
	<path fill-rule="evenodd" clip-rule="evenodd" fill="#2E5E9C" d="M40.203,105.452v-1.016h-1.488l-0.338,1.016h-2.232l3.179-8.049
		h2.706l0.405,8.049H40.203L40.203,105.452z M40.203,102.747l0.068-1.895c0-0.473,0.067-1.014,0.067-1.488l0,0l0,0
		c-0.135,0.475-0.271,1.016-0.473,1.488l0,0l-0.542,1.895H40.203L40.203,102.747z"/>
	<path fill-rule="evenodd" clip-rule="evenodd" fill="#0095D6" d="M21.197,153.069l1.624-3.246h13.798
		c0.812,0,1.623,0.473,2.029,1.285c0.947,2.57-1.488,4.801-2.232,7.17c0,0.27-0.406,0.742,0.406,0.742c0.473,0,1.961,0,2.57,0
		c0-0.473-0.068-0.945,0.068-1.486c1.082-2.098,2.097-4.262,3.449-6.291c1.218-1.691,5.682-1.42,8.59-1.42
		c0.608,0,1.015,0.607,1.217,1.148c0.406-0.201,0.542-0.742,0.812-1.082l0,0l5.479-0.066l-4.6,9.063
		c1.083-0.338,2.097-1.148,3.111-1.758c1.556-1.082,2.638-2.908,3.314-4.531l0,0l3.855-7.441l0.338-0.676h-4.261l1.217-2.098h10.146
		l-3.72,7.508l-3.179,6.223c-0.271,0.947-1.556,2.908-0.271,2.908c0.947,0,1.556,0,2.638,0c-0.339-1.486,0.676-2.771,1.285-4.125
		c1.149-1.961,2.231-5.072,5.005-5.072l0,0h5.614c0.405,0,1.149,0.541,1.285,1.082l0,0l0.812-1.082c0.744,0,5.072,0,5.479,0l0,0
		l-4.262,8.521c-0.202,0.338-0.338,0.676,0.271,0.676l0,0h3.72c0.947-2.027,2.164-3.99,3.111-5.951l0,0h-2.706l1.624-3.246h13.46
		c1.218,0,2.3,0.541,2.705,1.623c0,2.502-1.758,4.6-2.57,6.898c-0.135,0.203-0.135,0.676,0.271,0.676c0.879,0,1.758,0,2.705,0
		c-0.203-0.945-0.136-1.217,0.135-1.824c1.557-2.707,3.112-7.373,5.479-7.373s3.652,0,6.29,0c0.812,0,1.15,0.676,1.488,1.082l0,0
		l3.179-6.426h-3.923l1.082-2.098h9.943l-1.691,3.652l-6.155,11.973c0,0-0.812,1.014,0.406,1.014l0,0h3.517
		c-0.405,0.881-0.541,1.285-1.082,2.369l0,0h-1.015h-7.508c-0.608,0-1.015-0.271-1.353-0.678c-0.677,0.338-1.421,0.678-2.3,0.678
		l0,0h-7.102c-0.609,0-4.668,0-7.17,0c-0.677,0-1.15-1.219-1.15-1.826c0.068-0.543,0.271-0.947,0.541-1.488l0,0l2.029-4.6
		c0.203-0.541-0.405-0.744-0.405-0.744c-0.812-0.068-1.826-0.338-2.503,0.27c-0.744,0.609-1.149,1.557-1.556,2.367l0,0l-3.111,6.021
		H80.989c-1.623,0-3.99,0.203-4.666-0.609c-0.744,0.27-1.354,0.609-2.436,0.609l0,0l-11.363,0.066c-1.42,0-3.179,0.137-3.517-1.42
		c-0.135-0.406-0.203-0.879-0.271-1.42c-1.624,1.689-3.72,3.043-5.952,3.787c-2.029,3.855-3.991,8.117-7.508,10.957
		c-2.367,1.557-5.14,3.314-8.116,1.826c-1.217-0.541-2.029-1.689-2.368-2.84c-0.676-3.314,2.165-5.885,4.6-7.508l0,0l0.541-0.271
		l1.691-0.811c1.759-0.881,3.72-1.15,5.479-2.029c0.135-0.203,0.203-0.475,0.338-0.744c-0.744,0.203-1.556,0.473-2.435,0.406l0,0
		l-11.499,0.066c-1.42,0-4.464,0.203-3.518-1.893l0,0l2.909-5.75c0.271-0.676,0-0.744-0.271-0.947
		c-0.947-0.203-2.368-0.27-2.841,0.406l0,0l-0.676,1.082l-3.72,7.035h-5.682l4.329-8.32H21.197L21.197,153.069z M50.89,152.528
		c-0.879,0-2.3-0.271-3.043,0.676c-0.744,1.557-1.556,3.111-2.503,4.668c-0.135,0.338-0.406,0.947,0.271,1.148
		c1.083,0,2.706,0.203,3.382-0.676c0.677-1.42,1.353-2.773,2.165-4.125C51.972,152.797,50.89,152.528,50.89,152.528L50.89,152.528
		L50.89,152.528z M116.837,152.528c-0.879,0-2.3-0.271-3.044,0.676c-0.744,1.557-1.556,3.111-2.502,4.668
		c-0.203,0.338-0.406,0.947,0.202,1.148c1.15,0,2.773,0.203,3.45-0.676c0.676-1.42,1.353-2.773,2.164-4.125
		C117.919,152.797,116.837,152.528,116.837,152.528L116.837,152.528L116.837,152.528z M78.96,152.528
		c-0.88,0-2.368-0.271-3.044,0.676c-0.812,1.557-1.623,3.111-2.503,4.668c-0.203,0.338-0.405,0.947,0.203,1.148
		c1.15,0,2.773,0.203,3.382-0.676c0.677-1.42,1.421-2.773,2.232-4.125C79.975,152.797,78.96,152.528,78.96,152.528L78.96,152.528
		L78.96,152.528z M42.977,166.19c-1.759,1.15-4.126,2.504-4.126,5.006c0.068,0.338,0.406,0.744,0.744,0.813
		c0.338,0.27,0.879,0.066,1.217-0.068c2.502-1.623,3.72-4.396,4.802-6.898C44.667,165.245,43.855,165.717,42.977,166.19
		L42.977,166.19L42.977,166.19z"/>
	<path fill-rule="evenodd" clip-rule="evenodd" fill="#2E5E9C" d="M126.061,104.098l0.397-1.195h0.466v1.66h-0.266v-1.328h-0.066
		l-0.398,1.328h-0.199l-0.465-1.328l0,0v1.328h-0.265v-1.66h0.398L126.061,104.098L126.061,104.098z M125,103.168h-0.465v1.395
		h-0.266v-1.395h-0.464v-0.266H125V103.168L125,103.168z M123.141,103.633c0-1.262,0.996-2.322,2.322-2.322
		c1.262,0,2.323,1.061,2.323,2.322c0,1.328-1.062,2.322-2.323,2.322C124.137,105.956,123.141,104.961,123.141,103.633h-0.266
		c0,1.459,1.129,2.588,2.588,2.588c1.461,0,2.589-1.129,2.589-2.588c0-1.461-1.128-2.588-2.589-2.588
		c-1.459,0-2.588,1.127-2.588,2.588H123.141L123.141,103.633z"/>
</g>
</svg>
