<?xml version="1.0" encoding="utf-8"?>
<!-- Generator: Adobe Illustrator 15.0.0, SVG Export Plug-In . SVG Version: 6.00 Build 0)  -->
<!DOCTYPE svg PUBLIC "-//W3C//DTD SVG 1.1//EN" "http://www.w3.org/Graphics/SVG/1.1/DTD/svg11.dtd">
<svg version="1.1" id="Layer_1" xmlns="http://www.w3.org/2000/svg" xmlns:xlink="http://www.w3.org/1999/xlink" x="0px" y="0px"
	 width="175.748px" height="117.48px" viewBox="0 0 175.748 117.48" enable-background="new 0 0 175.748 117.48"
	 xml:space="preserve">
<g>
	<polygon fill-rule="evenodd" clip-rule="evenodd" points="129.684,104.079 149.7,81.705 147.658,81.705 128.353,102.983 
		125.612,109.09 149.489,109.063 145.767,117.44 147.65,117.44 152.074,107.485 128.121,107.525 129.684,104.079 	"/>
	<polygon fill-rule="evenodd" clip-rule="evenodd" points="171.125,81.745 169.241,81.745 160.396,101.648 169.572,101.648 
		170.272,100.06 162.986,100.06 171.125,81.745 171.125,81.745 	"/>
	<polygon fill-rule="evenodd" clip-rule="evenodd" points="161.571,81.745 153.432,100.06 142.312,100.06 158.984,81.745 
		156.943,81.745 138.824,101.648 154.61,101.648 163.455,81.745 161.571,81.745 161.571,81.745 	"/>
	<polygon fill-rule="evenodd" clip-rule="evenodd" points="157.783,107.525 153.36,117.48 155.245,117.48 158.967,109.104 
		166.288,109.104 166.989,107.525 157.783,107.525 157.783,107.525 	"/>
	<path fill-rule="evenodd" clip-rule="evenodd" d="M123.56,117.384l9.833-22.162h-17.829l1.9-4.297h17.841l4.095-9.22h-27.067
		l-15.841,35.679H123.56L123.56,117.384L123.56,117.384L123.56,117.384z M113.364,83.545h23.363l-2.456,5.539h-17.829l-3.562,8.021
		h17.829l-8.175,18.425H99.158L113.364,83.545L113.364,83.545L113.364,83.545z"/>
	<polygon fill-rule="evenodd" clip-rule="evenodd" points="118.732,108.168 109.811,108.168 111.654,104.014 120.573,104.014 
		118.732,108.168 119.767,110.002 123.244,102.158 110.633,102.158 107.141,110.002 119.767,110.002 118.732,108.168 
		118.732,108.168 	"/>
	<path fill-rule="evenodd" clip-rule="evenodd" fill="#D82C20" d="M96.621,28.298c-6.15,15.226-23.453,14.995-23.453,14.995H31.566
		l2.23-4.998h38.373C72.169,38.295,88.932,38.602,96.621,28.298L96.621,28.298L96.621,28.298z"/>
	<path fill-rule="evenodd" clip-rule="evenodd" fill="#FFDD00" d="M93.2,35.988c-6.152,15.226-23.455,14.994-23.455,14.994H28.144
		l2.23-4.997h38.373C68.747,45.985,85.51,46.292,93.2,35.988L93.2,35.988L93.2,35.988z"/>
	<path fill-rule="evenodd" clip-rule="evenodd" fill="#FFDD00" d="M106.042,22.685c6.151-15.226,23.454-14.996,23.454-14.996h42.831
		l-2.23,4.999h-39.602C130.495,12.688,113.73,12.38,106.042,22.685L106.042,22.685L106.042,22.685z"/>
	<path fill-rule="evenodd" clip-rule="evenodd" fill="#D82C20" d="M109.464,14.995C115.616-0.23,132.917,0,132.917,0h42.831
		l-2.229,4.999h-39.603C133.917,4.999,117.153,4.69,109.464,14.995L109.464,14.995L109.464,14.995z"/>
	<path fill-rule="evenodd" clip-rule="evenodd" fill="#FFDD00" d="M89.778,43.678c-6.151,15.226-23.455,14.994-23.455,14.994h-41.6
		l2.229-4.998h38.371C65.324,53.674,82.088,53.982,89.778,43.678L89.778,43.678L89.778,43.678z"/>
	<path fill-rule="evenodd" clip-rule="evenodd" fill="#FFDD00" d="M102.62,30.375c6.152-15.226,23.454-14.996,23.454-14.996h42.831
		l-2.23,4.999h-39.601C127.074,20.377,110.31,20.07,102.62,30.375L102.62,30.375L102.62,30.375z"/>
	<path fill-rule="evenodd" clip-rule="evenodd" fill="#FFDD00" d="M86.356,51.367c-6.153,15.228-23.454,14.998-23.454,14.998H21.301
		l2.23-5.002h38.37C61.901,61.363,78.666,61.672,86.356,51.367L86.356,51.367L86.356,51.367z"/>
	<path fill-rule="evenodd" clip-rule="evenodd" fill="#D82C20" d="M82.934,59.057C76.781,74.284,59.48,74.053,59.48,74.053H17.879
		l2.23-4.997H58.48C58.48,69.056,75.244,69.363,82.934,59.057L82.934,59.057L82.934,59.057z"/>
	<path fill-rule="evenodd" clip-rule="evenodd" fill="#D82C20" d="M95.775,45.754c6.152-15.226,23.455-14.995,23.455-14.995h42.831
		l-2.229,4.998H120.23C120.23,35.757,103.465,35.45,95.775,45.754L95.775,45.754L95.775,45.754z"/>
	<path fill-rule="evenodd" clip-rule="evenodd" fill="#FFDD00" d="M99.198,38.063c6.152-15.225,23.453-14.994,23.453-14.994h42.831
		l-2.229,4.998h-39.603C123.651,28.067,106.888,27.759,99.198,38.063L99.198,38.063L99.198,38.063z"/>
	<polygon fill-rule="evenodd" clip-rule="evenodd" points="19.497,104.948 16.42,104.948 28.605,77.59 16.304,77.59 0,114.193 
		27.682,114.193 43.985,77.59 31.682,77.59 19.497,104.948 19.497,104.948 	"/>
	<path fill-rule="evenodd" clip-rule="evenodd" d="M114.501,49.906h9.228l4.421-10.15H115.5c-28.375,0-26.837,37.833-56.059,37.833
		h-12.38l-16.302,36.604h12.227c31.835,0,24.914-36.604,54.29-36.604l4.921-11.221c-26.452,0-30.144,38.579-52.905,38.579h-2.725
		l1.777-3.994h5.407c19.687,0,24.916-38.13,52.137-38.13h12.072l4.229-9.381h-12.61c-13.086,0-20.436,7.552-26.555,15.853
		C89.835,59.696,97.332,49.906,114.501,49.906L114.501,49.906L114.501,49.906L114.501,49.906z M57.903,90.698h-4.991l1.384-3.112
		h2.993c11.321,0,17.288-6.592,22.864-14.26C73.957,82.201,68.333,90.698,57.903,90.698L57.903,90.698L57.903,90.698z"/>
	<path fill-rule="evenodd" clip-rule="evenodd" d="M130.88,39.756L126.369,49.9h15.367l-1.57,3.543h-15.342l-10.247,22.918h27.067
		l16.302-36.605H130.88L130.88,39.756L130.88,39.756L130.88,39.756z M130.706,66.388l1.597-3.58h3.69l-1.596,3.58H130.706
		L130.706,66.388L130.706,66.388z"/>
</g>
</svg>
