<svg enable-background="new 0 0 187.1 125.3" height="258.828491" viewBox="0 0 187.1 125.3" width="386.356231" xmlns="http://www.w3.org/2000/svg"><path d="m102.9 30.1c-6.5 16.2-25 16-25 16h-44.3l2.4-5.3h40.8s17.9.3 26.1-10.7z" fill="#0049bf"/><path d="m99.2 38.3c-6.5 16.2-25 16-25 16h-44.2l2.4-5.3h40.8s17.8.3 26-10.7z" fill="#0049bf"/><path d="m112.9 24.1c6.5-16.2 25-16 25-16h45.6l-2.4 5.3h-42.2c0 .1-17.8-.2-26 10.7z" fill="#ee3124"/><path d="m116.5 16c6.5-16.2 25-16 25-16h45.6l-2.4 5.3h-42.2c.1 0-17.8-.3-26 10.7z" fill="#ee3124"/><path d="m95.6 46.5c-6.5 16.2-25 16-25 16h-44.3l2.4-5.3h40.8c0-.1 17.9.3 26.1-10.7z" fill="#0049bf"/><path d="m109.2 32.3c6.5-16.2 25-16 25-16h45.6l-2.4 5.3h-42.2c.1.1-17.8-.2-26 10.7z" fill="#ee3124"/><path d="m91.9 54.7c-6.6 16.2-25 16-25 16h-44.2l2.4-5.3h40.8c0-.1 17.8.3 26-10.7z" fill="#0049bf"/><path d="m88.3 62.9c-6.6 16.2-25 16-25 16h-44.3l2.4-5.3h40.8c.1-.1 17.9.2 26.1-10.7z" fill="#0049bf"/><path d="m102 48.7c6.5-16.2 25-16 25-16h45.6l-2.4 5.3h-42.2c0 .1-17.9-.3-26 10.7z" fill="#ee3124"/><path d="m105.6 40.5c6.5-16.2 25-16 25-16h45.6l-2.4 5.3h-42.2c0 .1-17.8-.3-26 10.7z" fill="#ee3124"/><path d="m20.8 111.7h-3.3l13-29.1h-13.1l-17.4 39h29.5l17.3-39h-13.1z"/><path d="m121.9 53.1h9.8l4.7-10.8h-13.4c-30.2 0-28.6 40.3-59.7 40.3h-13.2l-17.4 39h13c33.9 0 26.5-39 57.8-39l5.2-11.9c-28.2 0-32.1 41.1-56.3 41.1h-2.9l1.9-4.3h5.8c21 0 26.5-40.6 55.5-40.6h12.9l4.5-10h-13.4c-13.9 0-21.8 8-28.3 16.9 7.2-10.3 15.2-20.7 33.5-20.7zm-60.3 43.5h-5.3l1.5-3.3h3.2c12.1 0 18.4-7 24.3-15.2-6.6 9.4-12.6 18.5-23.7 18.5z"/><path d="m139.3 42.3-4.8 10.8h16.4l-1.7 3.8h-16.3l-10.9 24.4h28.8l17.4-39zm-.2 28.4 1.7-3.8h3.9l-1.7 3.8z"/><path d="m182.4 87.3h-2l-9.4 21.2h9.8l.7-1.7h-7.7z"/><path d="m172.3 87.3-8.7 19.5h-11.8l17.7-19.5h-2.1l-19.3 21.2h16.8l9.4-21.2z"/><path d="m168.2 114.7-4.7 10.6h2l4-8.9h7.8l.7-1.7z"/><path d="m136.7 114.7 1.6-3.6 21.3-23.8h-2.2l-16.9 18.8 8.3-18.8h-28.8l-16.9 38h28.9l4-8.9h23.4l-4 8.9h2l4.7-10.6zm-5.8 8.7h-24.9l15.1-34h24.9z"/><path d="m124.1 95.2-3.7 8.4h13.4l3.7-8.4zm8.6 6.4h-9.5l2-4.4h9.5z"/><path d="m117.8 108.9-3.7 8.4h13.4l3.7-8.4zm8.6 6.4h-9.5l2-4.4h9.5z"/></svg>