<?xml version="1.0" encoding="utf-8"?>
<!-- Generator: Adobe Illustrator 21.1.0, SVG Export Plug-In . SVG Version: 6.00 Build 0)  -->
<svg version="1.1" id="Layer_1" xmlns="http://www.w3.org/2000/svg" xmlns:xlink="http://www.w3.org/1999/xlink" x="0px" y="0px"
	 width="175.7px" height="117.4px" viewBox="0 0 175.7 117.4" style="enable-background:new 0 0 175.7 117.4;" xml:space="preserve"
	>
<style type="text/css">
	.st0{fill:#00A766;}
	.st1{fill:#FFFFFF;}
	.st2{fill:#EE3124;}
</style>
<g>
	<path d="M123.3,117.4l9.8-22.2h-17.8l1.9-4.3h17.8l4.1-9.2h-27.1l-15.8,35.7H123.3L123.3,117.4L123.3,117.4L123.3,117.4z
		 M113.2,83.5h23.4l-2.5,5.5h-17.8l-3.6,8h17.8l-8.2,18.4H98.9L113.2,83.5L113.2,83.5L113.2,83.5z"/>
	<polygon points="118.5,108.2 109.6,108.2 111.4,104 120.4,104 118.5,108.2 119.6,110 123,102.2 110.4,102.2 106.9,110 119.6,110 
		118.5,108.2 	"/>
	<path d="M142.2,81.7l-15.8,35.7h27.1l15.8-35.7H142.2L142.2,81.7L142.2,81.7L142.2,81.7z M152.4,115.5H129l14.2-32h23.4
		L152.4,115.5L152.4,115.5L152.4,115.5z"/>
	<path d="M146,89.1l-3.5,7.8h12.6l3.5-7.8H146L146,89.1L146,89.1L146,89.1z M154.1,95.1h-8.9l1.8-4.2h8.9L154.1,95.1L154.1,95.1
		L154.1,95.1z"/>
	<path d="M140.1,102l-3.5,7.8h12.6l3.5-7.8H140.1L140.1,102L140.1,102L140.1,102z M148.2,108h-8.9l1.8-4.2h8.9L148.2,108L148.2,108
		L148.2,108z"/>
	<path class="st0" d="M96.6,28.3c-6.2,15.2-23.5,15-23.5,15H31.6l2.2-5h38.4C72.2,38.3,88.9,38.6,96.6,28.3L96.6,28.3L96.6,28.3z"/>
	<path class="st0" d="M93.2,36C87,51.2,69.7,51,69.7,51H28.1l2.2-5h38.4C68.7,46,85.5,46.3,93.2,36L93.2,36L93.2,36z"/>
	<path class="st0" d="M106,22.7c6.2-15.2,23.5-15,23.5-15h42.8l-2.2,5h-39.6C130.5,12.7,113.7,12.4,106,22.7L106,22.7L106,22.7z"/>
	<path class="st0" d="M109.5,15c6.2-15.2,23.5-15,23.5-15h42.8l-2.2,5h-39.6C133.9,5,117.2,4.7,109.5,15L109.5,15L109.5,15z"/>
	<path class="st1" d="M89.8,43.7c-6.2,15.2-23.5,15-23.5,15H24.7l2.2-5h38.4C65.3,53.7,82.1,54,89.8,43.7L89.8,43.7L89.8,43.7z"/>
	<path class="st1" d="M102.6,30.4c6.2-15.2,23.5-15,23.5-15h42.8l-2.2,5h-39.6C127.1,20.4,110.3,20.1,102.6,30.4L102.6,30.4
		L102.6,30.4z"/>
	<path class="st2" d="M86.4,51.4c-6.2,15.2-23.5,15-23.5,15H21.3l2.2-5h38.4C61.9,61.4,78.7,61.7,86.4,51.4L86.4,51.4L86.4,51.4z"/>
	<path class="st2" d="M82.9,59.1c-6.2,15.2-23.5,15-23.5,15H17.9l2.2-5h38.4C58.5,69.1,75.2,69.4,82.9,59.1L82.9,59.1L82.9,59.1z"/>
	<path class="st2" d="M95.8,45.8c6.2-15.2,23.5-15,23.5-15h42.8l-2.2,5h-39.6C120.2,35.8,103.5,35.5,95.8,45.8L95.8,45.8L95.8,45.8z
		"/>
	<path class="st2" d="M99.2,38.1c6.2-15.2,23.5-15,23.5-15h42.8l-2.2,5h-39.6C123.7,28.1,106.9,27.8,99.2,38.1L99.2,38.1L99.2,38.1z
		"/>
	<polygon points="19.5,104.9 16.4,104.9 28.6,77.6 16.3,77.6 0,114.2 27.7,114.2 44,77.6 31.7,77.6 19.5,104.9 	"/>
	<path d="M114.5,49.9h9.2l4.4-10.1h-12.6c-28.4,0-26.8,37.8-56.1,37.8H47.1l-16.3,36.6H43c31.8,0,24.9-36.6,54.3-36.6l4.9-11.2
		c-26.5,0-30.1,38.6-52.9,38.6h-2.7l1.8-4h5.4c19.7,0,24.9-38.1,52.1-38.1H118l4.2-9.4h-12.6C96.5,53.4,89.1,61,83,69.3
		C89.8,59.7,97.3,49.9,114.5,49.9L114.5,49.9L114.5,49.9L114.5,49.9z M57.9,90.7h-5l1.4-3.1h3c11.3,0,17.3-6.6,22.9-14.3
		C74,82.2,68.3,90.7,57.9,90.7L57.9,90.7L57.9,90.7z"/>
	<path d="M130.9,39.8l-4.5,10.1h15.4l-1.6,3.5h-15.3l-10.2,22.9h27.1l16.3-36.6H130.9L130.9,39.8L130.9,39.8L130.9,39.8z
		 M130.7,66.4l1.6-3.6h3.7l-1.6,3.6H130.7L130.7,66.4L130.7,66.4z"/>
</g>
</svg>
