<svg xmlns="http://www.w3.org/2000/svg" viewBox="0 0 644 644" width="161" height="161"><path fill="#3a53a4" d="M244 4.5C362-7.5 482 8 593 48.3c1.3.3 2 1.5 2.4 2.6a802 802 0 0 1 45.2 210c8 103-4.4 208-36.1 306-3.2 9.4-6 19-9.9 28.3-3.2 1.8-6.8 2.6-10.2 3.9-74 26-151 40-229 43.9-4.8.2-9.6 0-14.3 1.1h-39.5c-1.7-.4-3.5-.7-5.3-.8a799 799 0 0 1-246-47.1c-1.1-.4-2.2-1.1-2.5-2.3a797 797 0 0 1-47.2-298c2.7-81 18-162 44.7-238 1.1-2.9 1.8-5.9 3.3-8.6 2.7-1.5 5.8-2.3 8.7-3.3 60-21 123-35 187-41.3z"/><path fill="#f9f9ff" d="M101 42.8c130-39 270-43 402-11.1 29 6.7 57 16 84.8 25.3 32 88 48 181 46.7 274-.9 78-14 156-37.7 230-3 8.8-5.9 18-8.9 26.3-18 6-35 12-52.9 17-60 17-123 27-186 29.3-78 2.6-156-6.7-231-27.1-9.3-2.7-19-5.4-27.8-8.1-9.7-3.2-19-6.6-29.1-9.8-1.2-.5-2.6-.7-3.5-1.6a775 775 0 0 1-43.1-339c4.9-49 14-98 28.4-146 4.2-15 9.7-30 14.8-45.2 15-4.8 29-10 43.7-14.2z"/><path fill="#3a53a4" d="M148 47.4c136-34 283-27 415 19.9 3.3 1.1 6.6 2.3 9.9 3.4a732 732 0 0 1 44.3 259c-.8 80-15 160-41.6 236-.9 2.5-1.7 5.1-2.6 7.6-18 6.3-36 12-54.5 17.4-47 13-95 21-143 24.9-103 7.8-208-6.9-305-42.4-5.9-17-12-35-16.7-52.4-37-129-37-269 .1-398 4.9-18 11-35 16.7-52.3 26-8.9 51-17 77.5-23.3z"/><g fill="#f9f9ff"><path d="M387 97.4c11-4.2 25-2 33.7 5.8a476 476 0 0 1 83.3 103c3.3 4.2 6.2 9.5 4.5 15-1.5 8.5-12 14-19.6 10.2a359 359 0 0 1-74.2-57.9c-3.8-4.3-10-5.8-15.5-3.7-4.3 1.2-5 6.2-7 9.6 13 31 25 63 33 95.5 6.9 27 12 54 15.1 81.2 44 5.1 88 10 133 16.1 7.4.6 15 2.3 21.5 5.6 3.6 2 8.4 2.4 10.8 6.2 3.1 4.1 2.3 10-1.5 13.5-3.2 3.2-7.9 2.9-11.9 4-47 10-95 19-142 26.9-11 2.4-23 2.8-33.7.1-5.5-1.5-12-2.9-15.5-7.3-15-12-27-28-36.4-44.8-27 7.1-54 16-79.5 27.8-1.1.5-1.4 1.9-1.9 2.9-5.7 13-11 27-18.6 39.6-9.6 17-20 33-31.9 48.2-8.2 12-18 22-26.9 33.1-9 12-20 23-33.5 30.6-3.4 2-6.7 4.7-10.8 4.7-5.8.2-12-4.7-11.6-10.7-.4-3.8 1.8-7.1 3.1-10.5 2.2-5.5 4.5-11 6.5-16.6-7.4 6.6-16 12-25.8 14.6-15 4.5-33 2-46.2-6.6a58.1 58.1 0 0 1-25-32 58.4 58.4 0 0 1 5.7-48.2 58.1 58.1 0 0 1 32.5-25.5c16-5 33-3 47.1 5.3a59.2 59.2 0 0 1 27.9 39.5c18-33 36-67 54.6-100 7.4-12 17-23 27.1-32.9 19-19 42-34 66.9-43.7-12-17-24-35-36.1-52.2-28 17-55 34-82.6 51.1a69 69 0 0 1-40.2 9.1c-5.5-.6-11-4.6-12.2-10-6.9-42-11-83-13.3-125 .1-4.8-2.1-9.6-.7-14.3 1.4-5.6 6.4-10 12.2-10.8 7.9 2.8 14 9.7 16.9 17.2 10 24 21 47 31.5 70.9 16-13 31-26 46.5-39.2 1.9-1.6 3.7-3.2 5.4-4.9-12-2.9-23-11-28.1-22.1-5.7-10-5.1-23-1.8-34.4 3.7-12 13-21 24.5-25.5 7.9-3.3 17-2.9 24.9-1.6 14 2.7 26 13 32.4 25.6 2.7 6 11 8 16.3 3.6 21-14 44-26 67.7-35.1zM519 108c13-3.3 26-6.5 39.6-9.6 2.2 7 4.3 14 6.5 21.2-2.8.6-5.6 1.2-8.4 1.6-1.4-4.3-2.6-8.5-4.1-12.7-2.5.6-5 1.3-7.5 1.9 1 4 2.1 8.1 3.1 12.1l-8 1.2-3.3-11.2-15.2 3.6c-.9-2.7-1.8-5.3-2.7-8zm10.4 32c-1.2-5.2 1-11 5.1-14 1.7 1.6 3.3 3.3 5 4.9-1.3 1.9-3.3 4-2.6 6.6.6 3.6 4.9 5.5 8.1 4 4.2-3.8 5.4-11 11.3-12.7 6-2.5 13 2.3 14.1 8.5.3 4.1-.9 8.1-2.2 11.9-2.2-.8-4.3-1.6-6.5-2.4 1.1-3.1 1.8-6.5.7-9.7-1.4-.1-3.1-1-4.4-.1-4.1 4-5.6 11-11.3 12.9-7.2 3.3-16-2.6-17.2-10zm7.5 24.2c.7-5.1 5.2-8.8 9.8-10.3 1.6 1.9 3 3.8 4.5 5.8-2.3 1.5-4.7 3-6.1 5.4-.7 2.8 2.3 5.5 5 4.4 9.1-2.3 18-5 27.1-7.3.6 3.1 1.3 6.1 1.9 9.2-9.5 2.6-19 4.9-28.8 6.8-7.7 1.5-15-6.4-13.5-13.9zm23.1 20.2c3.9-2.6 9.6.9 9 5.5-.1 4.3-5.5 7-9 4.6-3.8-2-3.8-8.1 0-10.1zm-1.3 18c8.7-1.8 17-3.6 26-5.3.5 3 .8 6.1 1.2 9.1-8 1.9-16 3.3-24.2 5.2-4 .8-7 5.2-6 9.2 1.1 4.5 6.3 7 10.7 6.6 7.5-.8 15-2.3 22.4-3.1.5 3.2 1.1 6.4 1.5 9.6l-26.3 3c-3.7.5-7.4-.9-10.4-3-7.9-5.5-9.7-18-3.9-25.5 2.2-2.9 5.3-5.2 8.9-5.8zm-8.4 44.1c14-1.2 27-2.7 41.2-4 .9 8.2 1.7 16 2.5 24.5-2.9.1-5.8.2-8.7.4-.7-4.8-1.1-9.7-1.7-14.5-2.4.1-4.7.2-7.1.4 0 4.5.6 8.9.5 13.4-2.5.1-5 .2-7.4.2-.4-4.4-.9-8.8-1.3-13.2-2.6.2-5.3.5-7.9.7.1 4.7.7 9.4 1 14.2-3.1.3-6.1.5-9.2.8-.7-7.6-1.5-15-1.9-22.9zm2.7 29.4c14-.8 28-1.4 41.3-2.1.3 7.5 1.1 15 1.1 22.6h-8.2c-.4-4.6-.7-9.2-.9-13.8-2.9.2-5.9.3-8.8.4 0 4.1.2 8.2.4 12.3h-7.5c-.3-3.8-.4-7.6-.5-11.5l-16.4 1.2c-.2-3.1-.3-6.1-.4-9.2z"/><path d="M554 296c14 5.5 28 12 42.4 17.8.2 3.1.2 6.3.2 9.4-14 5.7-28 11-41.9 16.9v-9.5c3.7-1.7 7.5-3.5 11.2-5.2-.3-4.8.8-10-.5-14.6-3.5-1.8-7.1-3.1-10.7-4.6-.3-3.3-.6-6.7-.8-10z"/></g><path fill="#3a53a4" d="M574 313c3.7 1.5 7.4 3 11 4.7-3.6 1.6-7.3 3-11 4.3v-9.1z"/><g fill="#f9f9ff"><path d="M49.1 322h24c12 .2 24 12 21.7 24.9-1.2 12-12 21-23.8 20.9 0-1.2 0-2.5-.1-3.7 2.4-.5 5.2-.4 7.1-2.1 5.9-5.3 7.7-14 4.6-21.7-2.4-5.3-7.1-10-13.2-10.6-.1 20 0 40-.1 59.3.1 2.4 0 5.1 1.3 7.2 1.1 1.9 3.2 2.7 5 3.8-8.8.4-18-.2-26.4.4 3.1-1.3 6.2-3.7 6-7.4.2-20 0-40 .1-60.1-.1-2.4.2-5-1.1-7.1-1.1-2-3.2-2.9-5.1-3.9z"/><path d="M93.1 322c15.3.1 30.6 0 45.9.1 1.8-.3 2.5 1.4 3.4 2.6 2.8 3.9 4.8 8.5 5.7 13.3-1.5-.1-3.1-.1-4.6-.3-2.8-2.4-5.6-5.3-9.6-5.6-6.1-.6-12.3.3-18.4 0-.1 8.1-.1 16.2 0 24.3 4.8-.4 9.6-.1 14.3-.4 2.8-.1 4.5-2.6 5.9-4.7-.3 6.5-.3 13.1 0 19.6-1.6-2.6-3.6-5.5-6.9-5.9-4.5-.3-9-.4-13.4-.4-.1 9.1-.1 18.2 0 27.2 7.1.1 14.1.6 21.2.1 3.9-.5 6.4-3.8 8.7-6.7.8-.2 2.3-.5 3.1-.6-.5 6.2-3.3 13.1-8.7 16.4-15.2.2-30.5 0-45.8.1 2.8-1.4 5.8-3.6 5.8-7.1.2-19.3 0-38.6.1-57.9-.1-3.3.5-6.8-1.1-9.9-1.1-2.3-3.6-3.2-5.8-4.1z"/><path d="M147.6 322h46.2c3.8 4.6 6.7 9.9 7.6 15.8-2-.2-4.5.5-5.9-1.4-2.7-2.9-6.5-4.7-10.5-4.6-5.5 0-11 .3-16.5.2-.1 7.8-.1 15.6 0 23.4 5.1.1 10.3.8 15.4.3 2.5-.2 3.8-2.6 5.1-4.5-.1 6.3 0 12.6 0 18.9-1.8-2.3-3.8-5.2-7-5.3-4.5-.2-9-.4-13.5-.3-.1 8.9-.1 17.7 0 26.5-.1 4.5 3.8 7.5 7.1 10-9.5 0-19-.1-28.5.1 3-1.2 6.1-3.4 6.1-7 .1-21.4.1-42.7 0-64.1.4-3.7-2.8-6.2-5.6-8zm390.6 138.2c10.2-4.1 22 3.9 24.7 13.9 2.8 9.9-2.8 22-13 25-5.4 1.7-10.7 3.5-16.1 5-3-13.4-6.2-26.7-9.1-40 4.5-1.4 9-2.6 13.5-3.9z"/></g><path fill="#3a53a4" d="M534 469c4.7-1.1 9.7-4.1 14.5-1.7 7.2 2.8 10 12 5.8 18.7-3 5.1-9.3 5.9-14.3 7.9-2.1-8.3-4.1-17-6-24.9z"/><path fill="#f9f9ff" d="M497.7 471.2l9.2-2.4c8.1 12 16.1 24 24.1 36.1-2.8.7-5.7 1.4-8.5 2-2.1-3.2-4.4-6.4-6.6-9.5-4.1 1.1-8.1 2.3-12.1 3.6-.2 3.7-.3 7.5-.5 11.2-2.8.6-5.6 1.1-8.4 1.6.9-14.2 1.8-28.4 2.8-42.6zm-42.2 8.5c5.5-.9 11-2 16.5-2.7 6.9-.2 13.3 6 13.2 13 .3 3.5-1.4 6.7-3.1 9.6 3.6 4.8 7.2 9.6 10.6 14.6-2.6.8-5.2 1.5-7.8 2.2-3.7-3.9-6.1-8.9-10.1-12.4-2.7.1-5.4.7-8.1 1.1.4 4.9 1.4 9.7 1.3 14.6-2.9.5-5.7.9-8.5 1.4-1.3-13.8-2.7-27.5-4-41.3z"/><path fill="#3a53a4" d="M504.6 479.7c2.4 3.5 4.6 7.2 6.6 10.9-2.5.7-4.9 1.3-7.4 1.9.1-4.3.4-8.6.8-12.8z"/><path fill="#f9f9ff" d="M432 484c7.3-2.4 15 .6 20.7 5.8-1.3 1.8-2.6 3.7-3.9 5.5-3.6-2.7-8.1-6.3-12.7-4.3-7.4 2.7-10 13-5.1 19.1 3.1 4.4 10 6.4 14.4 2.1.2-1.6.3-3.2.4-4.7 2.6-.2 5.2-.3 7.8-.3l.3 12.4c-6 4.5-14 5.8-21.3 2.7-6.6-3.1-12-9.5-12.6-16.9-1.2-8.8 3.9-18 12-21.4z"/><path fill="#3a53a4" d="M464 486c3.1-.3 6.1-1.4 9.2-.9 4.3 1 5 7.6 1 9.5-2.9 1.2-6.1 1.3-9.1 1.8-.5-3.5-.9-7-1.2-10.5z"/><path fill="#f9f9ff" d="M394.4 487.5c5.1-1.4 10.9-.3 15.2 2.9 10 7.2 10.6 23.6 1.9 32-4 3.9-9.6 6.7-15.3 5.5-9-1.3-15.9-10-15.8-19-1.2-9.3 4.9-19 14-21.5zm-74.3 1.7c6.3 0 12.6-.1 18.8.7 4.9 1.5 8.1 7.1 7.5 12.1-.2 2.6-1.7 4.7-3 6.9 3.2 2.2 6.3 5.1 6.7 9.2 1.2 6.3-4.4 13.5-11.1 12.7-6.2-.1-12.4 0-18.5-.1-.1-13.8-.4-27.7-.4-41.5zm33.8.1c8-.3 16-.5 24-.8.1 3.2.3 6.5.4 9.7-5.1.1-10.2 0-15.3.1.1 2.2.3 4.5.4 6.7 4.1-.1 8.3-.3 12.4-.2v8.3c-4.1-.1-8.2-.3-12.3-.3.1 2.9.2 5.8.4 8.7 4.9-.2 9.9-.2 14.8-.5.2 3 .5 5.9.8 8.9-7.9.4-15.7 1-23.6 1.1-.8-13.9-1.5-27.8-2-41.7z"/><path fill="#3a53a4" d="M395 495c6.2-2.7 13 2.5 14.7 8.6 2 7.2-3.9 15-11.2 15.7-6.2 0-12-5.7-11.6-11.8-.3-5.3 3.2-10 8.1-12.5zm-67.3 2.4c2.6 0 5.1-.2 7.7.2 3 1.3 3.7 6 .9 7.8-2.7.9-5.7.3-8.5.4v-8.4z"/><path fill="#f9f9ff" d="M540 515c5.1-8 17-9.5 24.3-3.7-1.1 1.8-2.3 3.7-3.4 5.5-2.7-1-5.6-2.5-8.6-1.4-3.9 1.2-6.4 4.9-7.1 8.8 7.2-2.8 16-1.8 21.2 4.7 3.6 6 1.4 14-4 18.6-2.9 2.3-6.6 3.4-10.3 3.8-5.5.6-11-2.7-13.5-7.7-4-9.1-3.6-20 1.3-28.6z"/><path fill="#3a53a4" d="M328.1 514.3c3.1.1 6.3-.3 9.4.3 3.8 1.1 4 7.1.2 8.2-3.2.5-6.4.2-9.6.2v-8.7z"/><path fill="#f9f9ff" d="M494 525c12-2.5 23-5.7 34.5-8.7.5 3.8 2.3 7.8.7 11.6-3.7 11-7.1 23-10.9 34-3.7.8-7.3 1.7-11 2.5 4-12 8.3-23 12.3-35.2-7.9 2-16 4.3-23.6 6.3-.7-3.5-1.4-7-1.9-10.5zm-33.4 13.2c4.5-9.5 20-12 26.3-3.9 4.5 6.3 4.9 15 3 22.1-2 5.9-4.8 12-10.8 15.3-6.3 3.3-14 1.7-19.2-3.2 1.5-1.7 2.6-4.1 4.7-5.1 2.9 1 5.8 2.9 9 1.8 4.5-1.1 7.1-5.5 8.4-9.6-6 2.7-14 2.8-18.8-1.5-5.1-3.4-5.1-11-2.7-15.8z"/><path fill="#3a53a4" d="M549 530c4.2-2.3 11 .3 10.7 5.6.3 7.2-12 10-14.6 3.4-2.1-3.5.4-7.8 3.9-9.1z"/><path fill="#f9f9ff" d="M225 538c.9-2.5 1.9-5 2.9-7.5 9.4 2.2 19 4.3 28.1 6.6-1.5 3.1-2.4 6.7-4.7 9.3-8.3 5.9-17 11-25.2 17.2 5 1.5 10 2.7 15.1 4.1-.8 2.4-1.6 4.8-2.5 7.2-8.3-2.1-17-4-24.9-6.3 1.1-2.7.9-6.4 3.6-8.1 8.7-6 18-12 26.1-17.8-6.2-1.6-12-3-18.6-4.6zm216-2.7c2.5-1.2 5.4-1.3 8.1-1.9.4 14 1.1 28 1.1 42.2l-9.6 1.2c-.3-8.7-.5-17-1.1-26-2.4 1.2-4.8 2.5-7.2 3.7-.3-3.2-.6-6.3-.8-9.5 3.2-3.2 6.1-6.8 9.6-9.8z"/><path fill="#3a53a4" d="M472 537c3.8-1.4 9.5 0 10 4.6 1.1 7.4-11 11-14.3 4.9-2.5-3.7.5-8.4 4.3-9.5z"/><path fill="#f9f9ff" d="M241 574.9c7.9-12.4 15.7-25 23.8-37.3 2.6.3 5.3.5 7.9.8 3.5 14.1 7 28.1 10.4 42.2-2.9-.2-5.9-.5-8.8-.8-1.3-3.5-1.4-7.7-3.3-10.8-4.9-1.1-9.9-1.4-14.8-2.1-2.1 3.2-4.1 6.4-6.1 9.6-3-.5-6.1-1-9.1-1.6zm143.9-34.6c4.7-.2 9.4-1 14.1-1 5.3 0 10.3 3.8 11.6 9 1.1 3.5-.2 7-1.5 10.3 2.3 2.1 4.7 4.5 5.4 7.7 1.6 5.8-2 12.7-7.8 14.3-6.8.7-13.6.7-20.4 1.3-.6-13.8-1.2-27.6-1.5-41.4zm-103 19.7c.5-9.5 8.6-18.1 18.2-18.7 7.2.4 13.7 4.6 17.6 10.6-2.2 1.1-4.4 2.2-6.6 3.2-2.5-3-5.9-5.7-10-5.4-4.5-.2-8.4 3-10.3 6.9-2.9 7.1 2.4 16.3 10.2 16.8 3.3.5 6.5-.7 9.2-2.6.2-2.7.4-5.3.4-8 2.7.2 5.4.5 8.1.6.3 5.3.2 10.6.1 16-7.1 2.2-14.8 3.5-22.1 1.7-9.1-2.4-15.7-11.8-14.8-21.2zm74.1-18.5c8-.2 16-.5 23.9-.8.1 3.2.3 6.4.5 9.6-5.3.4-10.5.1-15.8.3 0 2.1 0 4.1.1 6.2h11.2v8.4h-11.2c-.1 2.9-.1 5.8 0 8.8 5.5 0 11-.5 16.5-.7.1 2.9.3 5.9.3 8.8-8.5.5-17 .9-25.6 1.1 0-13.9-.2-27.8.1-41.7zm-32.3.1c6.7.3 13.4.4 20.1.8 5.7 2 9.1 8.7 8 14.5-.4 3.6-2.9 6.4-5 9 2.5 5.5 4.7 11.2 6.3 17-2.6.2-5.2.3-7.7.2-1.2-5.2-3.3-10.1-6.4-14.4h-6.8c0 4.8 0 9.5-.1 14.3-2.8-.2-5.7-.3-8.5-.6.1-13.6 0-27.2.1-40.8z"/><path fill="#3a53a4" d="M260.3 560c2.3-4.4 4.7-8.8 7.2-13.1.8 4.8 1.6 9.5 2.3 14.3-3.2-.3-6.4-.7-9.5-1.2zm133-13.2c2.8.1 5.7-.5 8.4.4 3.2 1.4 3.2 6.3.3 7.9-2.8.4-5.5.1-8.3-.1l-.3-8.3zm-61.4 2.5c3.7.3 8.2-1.1 11.1 1.8 2.9 2.8 1.3 8.3-2.6 9.2-2.8.5-5.6.2-8.5.3-.2-3.8-.2-7.5-.1-11.3z"/><path fill="#f9f9ff" d="M422 555c3.2-1.7 7.3 1.1 7 4.7-.1 3.7-5 6-7.8 3.6-2.9-2-2.3-6.9.9-8.2z"/><path fill="#3a53a4" d="M394 563.2c3.1.1 6.3-.3 9.4.4 3.5 1.2 3.6 6.6.2 8.1-2.9.9-6.1.6-9.1.9-.3-3.1-.4-6.2-.5-9.3z"/></svg>