<?xml version="1.0" encoding="utf-8"?>
<!-- Generator: Adobe Illustrator 15.0.0, SVG Export Plug-In . SVG Version: 6.00 Build 0)  -->
<!DOCTYPE svg PUBLIC "-//W3C//DTD SVG 1.1//EN" "http://www.w3.org/Graphics/SVG/1.1/DTD/svg11.dtd">
<svg version="1.1" id="Layer_1" xmlns="http://www.w3.org/2000/svg" xmlns:xlink="http://www.w3.org/1999/xlink" x="0px" y="0px"
	 width="175.748px" height="115.502px" viewBox="0 0 175.748 115.502" enable-background="new 0 0 175.748 115.502"
	 xml:space="preserve">
<g>
	<polygon fill-rule="evenodd" clip-rule="evenodd" points="110.701,80.319 109.746,82.18 148.254,82.103 146.559,85.658 
		119.72,115.502 121.761,115.502 148.176,86.196 150.813,80.337 110.701,80.319 	"/>
	<polygon fill-rule="evenodd" clip-rule="evenodd" points="106.781,89.217 107.471,87.653 137.72,87.653 112.635,115.464 
		110.786,115.464 134.29,89.217 106.781,89.217 	"/>
	<path fill-rule="evenodd" clip-rule="evenodd" d="M95.057,27.841C89.006,42.82,71.983,42.593,71.983,42.593H31.054l2.195-4.917H71
		C71,37.676,87.492,37.978,95.057,27.841L95.057,27.841L95.057,27.841z"/>
	<path fill-rule="evenodd" clip-rule="evenodd" d="M91.69,35.406c-6.052,14.979-23.074,14.751-23.074,14.751H27.688l2.194-4.917
		h37.751C67.633,45.241,84.125,45.542,91.69,35.406L91.69,35.406L91.69,35.406z"/>
	<path fill-rule="evenodd" clip-rule="evenodd" d="M104.325,22.317c6.051-14.979,23.073-14.752,23.073-14.752h42.139l-2.194,4.917
		h-38.96C128.383,12.483,111.889,12.18,104.325,22.317L104.325,22.317L104.325,22.317z"/>
	<path fill-rule="evenodd" clip-rule="evenodd" d="M107.691,14.753C113.744-0.227,130.766,0,130.766,0h42.137l-2.192,4.918h-38.962
		C131.748,4.918,115.257,4.615,107.691,14.753L107.691,14.753L107.691,14.753z"/>
	<path fill-rule="evenodd" clip-rule="evenodd" fill="#FFD400" d="M88.325,42.971C82.273,57.95,65.25,57.723,65.25,57.723H24.323
		l2.193-4.917h37.75C64.266,52.806,80.759,53.108,88.325,42.971L88.325,42.971L88.325,42.971z"/>
	<path fill-rule="evenodd" clip-rule="evenodd" fill="#FFD400" d="M100.959,29.883c6.052-14.979,23.073-14.753,23.073-14.753h42.139
		l-2.194,4.918h-38.96C125.017,20.048,108.523,19.745,100.959,29.883L100.959,29.883L100.959,29.883z"/>
	<path fill-rule="evenodd" clip-rule="evenodd" fill="#DC4128" d="M84.958,50.536c-6.053,14.98-23.074,14.756-23.074,14.756H20.956
		l2.194-4.921h37.749C60.899,60.371,77.393,60.674,84.958,50.536L84.958,50.536L84.958,50.536z"/>
	<path fill-rule="evenodd" clip-rule="evenodd" fill="#DC4128" d="M81.591,58.102c-6.053,14.98-23.075,14.753-23.075,14.753H17.589
		l2.194-4.917h37.75C57.533,67.938,74.025,68.241,81.591,58.102L81.591,58.102L81.591,58.102z"/>
	<path fill-rule="evenodd" clip-rule="evenodd" fill="#DC4128" d="M94.225,45.014c6.053-14.98,23.075-14.752,23.075-14.752h42.138
		l-2.193,4.917h-38.961C118.283,35.178,101.79,34.877,94.225,45.014L94.225,45.014L94.225,45.014z"/>
	<path fill-rule="evenodd" clip-rule="evenodd" fill="#DC4128" d="M97.593,37.448c6.052-14.979,23.072-14.751,23.072-14.751h42.138
		l-2.192,4.917h-38.961C121.649,27.614,105.157,27.31,97.593,37.448L97.593,37.448L97.593,37.448z"/>
	<polygon fill-rule="evenodd" clip-rule="evenodd" points="19.181,103.25 16.154,103.25 28.142,76.335 16.04,76.335 0,112.346 
		27.233,112.346 43.273,76.335 31.168,76.335 19.181,103.25 19.181,103.25 	"/>
	<path fill-rule="evenodd" clip-rule="evenodd" d="M112.647,49.099h9.077l4.351-9.985H113.63c-27.915,0-26.402,37.222-55.151,37.222
		h-12.18l-16.038,36.011H42.29c31.32,0,24.511-36.011,53.412-36.011l4.841-11.04c-26.024,0-29.656,37.955-52.049,37.955h-2.681
		l1.749-3.93h5.319c19.368,0,24.512-37.513,51.293-37.513h11.877l4.16-9.229h-12.405c-12.875,0-20.105,7.429-26.126,15.595
		C88.38,58.73,95.756,49.099,112.647,49.099L112.647,49.099L112.647,49.099L112.647,49.099z M56.965,89.229h-4.911l1.362-3.061
		h2.944c11.138,0,17.008-6.485,22.494-14.029C72.759,80.871,67.226,89.229,56.965,89.229L56.965,89.229L56.965,89.229z"/>
	<path fill-rule="evenodd" clip-rule="evenodd" d="M128.761,39.113l-4.438,9.98h15.118l-1.544,3.485h-15.094l-10.081,22.546h26.629
		l16.037-36.012H128.761L128.761,39.113L128.761,39.113L128.761,39.113z M128.59,65.313l1.571-3.521h3.631l-1.571,3.521H128.59
		L128.59,65.313L128.59,65.313z"/>
	<g>
		<path fill-rule="evenodd" clip-rule="evenodd" d="M166.279,101.642l9.469-21.317h-26.63l-4.001,9.094h17.541l-1.72,4.075h-17.552
			l-9.853,21.932h26.628l4.035-9.088h-17.419l2.112-4.695H166.279L166.279,101.642L166.279,101.642L166.279,101.642z
			 M144.153,108.158h17.358l-2.365,5.456h-22.984l8.242-18.311h17.54l3.352-7.739h-17.539l2.368-5.417h22.999l-7.854,17.682H147.86
			L144.153,108.158L144.153,108.158L144.153,108.158z"/>
	</g>
</g>
</svg>
