<?xml version="1.0" encoding="utf-8"?>
<!-- Generator: Adobe Illustrator 15.0.0, SVG Export Plug-In . SVG Version: 6.00 Build 0)  -->
<!DOCTYPE svg PUBLIC "-//W3C//DTD SVG 1.1//EN" "http://www.w3.org/Graphics/SVG/1.1/DTD/svg11.dtd">
<svg version="1.1" id="Layer_1" xmlns="http://www.w3.org/2000/svg" xmlns:xlink="http://www.w3.org/1999/xlink" x="0px" y="0px"
	 width="128.947px" height="160.241px" viewBox="0 0 128.947 160.241" enable-background="new 0 0 128.947 160.241"
	 xml:space="preserve">
<g>
	<path fill-rule="evenodd" clip-rule="evenodd" d="M32.77,157.526h1.745c1.875,0,2.263-1.68,2.263-2.262
		c0-1.422-0.841-2.327-2.198-2.327h-3.232v7.11h1.422V157.526L32.77,157.526z M32.77,156.298v-2.133h1.228
		c0.905,0,1.293,0.323,1.293,0.969c0,0.324,0,1.164-1.099,1.164H32.77L32.77,156.298z"/>
	<path fill-rule="evenodd" clip-rule="evenodd" d="M39.556,156.492c0,3.361,2.456,3.749,3.426,3.749
		c0.905,0,3.426-0.388,3.426-3.749c0-3.296-2.521-3.748-3.426-3.748C42.012,152.744,39.556,153.196,39.556,156.492L39.556,156.492z
		 M41.043,156.492c0-1.938,1.164-2.456,1.939-2.456s1.939,0.518,1.939,2.456c0,2.004-1.164,2.521-1.939,2.521
		S41.043,158.496,41.043,156.492L41.043,156.492z"/>
	<path fill-rule="evenodd" clip-rule="evenodd" d="M49.574,160.047h1.422v-2.779h1.551c1.099,0,1.164,0.388,1.164,1.357
		c0,0.711,0.064,1.099,0.129,1.422h1.616v-0.194c-0.258-0.129-0.258-0.388-0.258-1.422c0-1.293-0.324-1.486-0.905-1.745
		c0.646-0.259,1.098-0.97,1.098-1.745c0-0.582-0.387-2.004-2.262-2.004h-3.556V160.047L49.574,160.047z M50.997,156.104v-1.938
		h1.875c0.84,0,1.034,0.582,1.034,0.969c0,0.712-0.388,0.97-1.164,0.97H50.997L50.997,156.104z"/>
	<polygon fill-rule="evenodd" clip-rule="evenodd" points="61.661,154.23 63.794,154.23 63.794,152.937 58.042,152.937 
		58.042,154.23 60.175,154.23 60.175,160.047 61.661,160.047 61.661,154.23 	"/>
	<path fill-rule="evenodd" clip-rule="evenodd" d="M72.326,152.937H70.84v4.719c0,0.84-0.388,1.356-1.422,1.356
		c-0.711,0-1.293-0.451-1.293-1.421v-4.654h-1.486v4.719c0,0.711,0.129,1.292,0.517,1.745c0.646,0.711,1.616,0.84,2.263,0.84
		c1.81,0,2.908-0.775,2.908-2.649V152.937L72.326,152.937z"/>
	<path fill-rule="evenodd" clip-rule="evenodd" d="M79.113,157.397h1.615c-0.258,1.486-1.356,1.615-1.681,1.615
		c-1.034,0-2.067-0.517-2.067-2.455c0-1.81,0.969-2.586,2.003-2.586c1.1,0,1.552,0.905,1.552,1.163h1.486
		c-0.064-0.969-0.904-2.391-3.103-2.391c-2.392,0-3.49,1.874-3.49,3.813c0,2.455,1.552,3.684,3.297,3.684
		c1.292,0,1.81-0.646,2.197-1.099l0.129,0.905h1.034v-3.813h-2.973V157.397L79.113,157.397z"/>
	<path fill-rule="evenodd" clip-rule="evenodd" d="M86.934,158.625h2.65l0.452,1.422h1.616l-2.521-7.11h-1.745l-2.521,7.11h1.552
		L86.934,158.625L86.934,158.625z M88.227,154.553h0.064l0.841,2.844h-1.811L88.227,154.553L88.227,154.553z"/>
	<polygon fill-rule="evenodd" clip-rule="evenodd" points="96.048,152.937 94.561,152.937 94.561,160.047 99.538,160.047 
		99.538,158.754 96.048,158.754 96.048,152.937 	"/>
	<path fill-rule="evenodd" clip-rule="evenodd" d="M51.578,122.494c3.167-3.555,7.692-5.817,12.798-5.817
		c5.235,0,9.954,2.392,13.057,6.141l0.84-0.775c-3.296-3.943-8.272-6.464-13.832-6.464c-5.429,0-10.277,2.392-13.638,6.141
		L51.578,122.494L51.578,122.494z"/>
	<polygon fill-rule="evenodd" clip-rule="evenodd" points="62.954,113.509 57.977,114.543 56.749,108.533 61.597,107.499 
		61.855,108.597 58.624,109.244 58.882,110.537 61.985,109.89 62.179,110.989 59.141,111.635 59.399,113.057 62.696,112.411 
		62.954,113.509 	"/>
	<polygon fill-rule="evenodd" clip-rule="evenodd" points="72.456,109.631 69.482,108.985 69.159,110.342 72.132,110.924 
		71.938,112.023 68.966,111.442 68.448,113.898 66.768,113.509 67.996,107.499 72.649,108.533 72.456,109.631 	"/>
	<path fill-rule="evenodd" clip-rule="evenodd" d="M79.565,119.909l-1.422-1.422l0.193-1.293l-2.521-1.745l-1.099,0.711l-1.681-0.97
		l5.946-3.555l1.616,1.099L79.565,119.909L79.565,119.909z M79.113,113.316l-2.263,1.422l1.745,1.228L79.113,113.316L79.113,113.316
		z"/>
	<path fill-rule="evenodd" clip-rule="evenodd" d="M52.29,117.453c-1.099,0.84-2.973,1.551-4.331-0.065l-2.003-2.521l1.357-1.033
		l1.939,2.521c0.646,0.775,1.551,0.646,2.262,0.064c0.711-0.518,1.034-1.357,0.388-2.198l-1.939-2.521l1.357-1.034l1.939,2.521
		C54.487,114.802,53.711,116.289,52.29,117.453L52.29,117.453z"/>
	<path fill-rule="evenodd" clip-rule="evenodd" d="M85.641,113.898c-5.3-5.56-12.797-9.05-21.071-9.05
		c-8.402,0-15.965,3.556-21.265,9.243l-0.905-0.905c5.623-5.816,13.444-9.501,22.169-9.501c8.596,0,16.417,3.619,21.976,9.372
		L85.641,113.898L85.641,113.898z"/>
	<path fill-rule="evenodd" clip-rule="evenodd" d="M122.483,131.09c0.064,0-0.646-0.646-0.711-0.711
		c-0.194,0-1.422,0.711-2.392,1.422c-2.521,1.875-3.297,3.232-3.942,4.137c-0.13,0.194,0.193,0.259,0.193,0.259
		c1.163-0.13,2.909-0.582,5.171-0.646l0.194-0.064l0.129-0.323c0.517-1.229,1.099-2.65,1.228-3.361
		C122.354,131.801,122.483,131.155,122.483,131.09L122.483,131.09z M112.529,140.333c-0.388,0.129-1.034,0.064-1.486-0.129
		c-0.582-0.323-1.229-2.134-1.163-2.393c0-0.193,0.064-0.258,0.193-0.323l0.518-0.517c0.129-0.064,1.356-2.263,6.334-6.076
		c2.585-1.938,5.494-3.684,7.886-5.364c0.452,0.388,1.422,0.711,1.615,0.84c0.518,0.841,0.905,2.198,0.841,2.65
		c-0.13,0.582-1.293,4.266-1.81,5.43c0,0-0.259,0.97-0.194,1.034c0.129,0.388,0.84,0.388,1.228,0.323
		c0.259,0,1.099-0.064,1.293-0.13c0.13,0,0.711-0.129,0.841-0.129c0.323,0,0.193,0,0.323,0.323c-0.453,0.323-0.97,0.905-1.423,1.228
		c-0.581,0.453-0.969,1.229-2.133,1.681c-0.323,0.065-0.775,0.194-0.969,0.259l-0.259,0.064l-0.129,0.259
		c-0.324,0.841-0.582,1.551-0.971,2.392c-0.388,0.84-1.033,4.201-1.163,5.171c-0.064,0.388-0.775,2.004-1.163,3.296
		c-0.452,1.357-1.034,2.068-1.875,1.875c-0.193,0-0.322-0.065-0.388-0.194c-0.064,0-0.129-0.064-0.193-0.193l-0.259-0.194
		c-0.064-0.388-0.323-0.97-0.517-1.486c-0.13-0.259-0.194-0.518-0.259-0.711c-0.065-0.259-0.453-0.518-0.453-0.582
		c0.13-0.646,3.038-9.437,2.65-9.437c-1.228,0-1.874,0.193-3.685,0.517C114.985,139.946,112.529,140.333,112.529,140.333
		L112.529,140.333z"/>
	<path fill-rule="evenodd" clip-rule="evenodd" d="M76.011,125.791c3.685,0.517,4.33,2.262,4.33,3.749
		c0,2.779-2.649,4.589-4.524,6.14c-1.615,1.229-4.201,4.072-5.816,5.171c0,0.13,0,0.13,0,0.13c2.585,0.388,7.691-1.293,10.664-0.453
		l0.646,1.357c-0.452,0.646,0,0.646,0.388,2.068c0.323,1.357-0.581,0.776-1.099,0.841c-5.623,0.259-13.121,0.904-14.479,0.775
		c-1.357-0.13-1.939-2.521-2.65-3.426c0-0.193,0-0.452,0.065-0.518c5.041-5.041,10.019-8.338,12.798-11.698
		c0,0,0.323-0.711-1.034-0.841c-1.357-0.064-4.267,0.776-5.559,2.327c0,0-0.194,0.323-0.712,0.193
		c-0.193-0.063-0.193-0.646-0.322-0.646c-0.646,0-0.905-0.711-0.905-0.711C67.932,126.954,73.425,125.467,76.011,125.791
		L76.011,125.791z"/>
	<path fill-rule="evenodd" clip-rule="evenodd" d="M15.641,122.042c0,0.259-0.258,1.681-0.388,1.874
		c-0.129,0.259-0.582,0.582-0.84,0.712c-1.228,0.775-2.585,1.163-3.942,1.744c-1.164,0.582-2.263,1.164-3.491,2.198
		c-0.258,0.388-0.646,1.422-0.323,1.81c0.194,0.13,0.905,0.194,1.164,0.13c0.388-0.065,1.292-0.389,1.681-0.518
		c0.711-0.194,1.228-0.388,1.939-0.646c0.323,0.064,0.582,0.194,0.84,0.323c0.388,0.194,0.84,0.323,1.099,0.582
		c0.84,0.775,0.84,1.745,0.711,2.779c-0.84,0.711-2.521,1.486-3.49,2.068c-2.068,1.099-3.231,1.81-4.848,3.749
		c-0.711,0.904-0.388,1.551-0.388,1.551c0.064,0.064,0.194,0.646,0.517,0.711c1.099,0.193,3.62-1.099,4.912-1.034
		c1.099,0.517,1.551,1.875,2.004,2.844c-0.065,1.422-4.524,2.327-5.559,2.586c-0.646,0.193-1.357,0.452-2.262,0.452
		c-1.422,0-2.974-0.904-3.426-1.163c-0.259-0.194-0.388-0.453-0.582-0.711c-1.228-1.552-1.099-2.909-0.646-4.654
		c0.13-0.388,0.194-0.84,0.324-1.228c0.129-0.389,2.004-3.167,2.391-3.361l0.065-0.517l-0.452-0.194
		c-1.681-0.323-1.358-3.619-1.164-4.719c0.064-0.452,1.745-3.167,2.391-3.36c0.194-0.453,0.646-0.97,1.034-1.293
		c0.776-0.841,7.563-3.167,9.178-3.942l0.517,0.064c0.194,0.193,0.453,0.581,0.517,0.84
		C15.253,121.847,15.447,121.977,15.641,122.042L15.641,122.042z"/>
	<path fill-rule="evenodd" clip-rule="evenodd" d="M53.388,131.866c-0.388,0.065-0.776,0.13-1.228,0.194
		c-0.84,0.064-1.681,0.194-2.327,0.259h-0.388l-0.129,0.258c-1.034,1.681-2.585,4.46-2.585,5.43c0,0-0.194,1.163,0.064,1.875
		c0.323,0.646,1.422,0.517,1.422,0.517c3.425-0.97,8.402-3.103,8.596-6.722c0-0.518-0.065-0.776-0.259-1.034
		c-0.646-0.711-2.262-0.776-2.262-0.776C54.035,131.801,53.711,131.866,53.388,131.866L53.388,131.866z M60.95,135.227
		c0,0.13-0.129,0.646-0.452,1.229c-0.259,0.452-0.582,0.775-0.969,1.356c-0.388,0.518-0.776,1.1-1.099,1.487
		c0,0-0.905,1.034-1.228,2.068c-0.129,0.517-0.388,0.84-0.582,1.034c-1.939,2.068-6.141,3.037-8.144,2.908
		c-4.266-0.193-5.494-5.3-5.365-7.756c0-0.646,0.452-1.616,0.905-2.521c2.521-5.106,4.589-7.175,8.791-6.916
		C54.939,128.182,61.08,132.771,60.95,135.227L60.95,135.227z"/>
	<path fill-rule="evenodd" clip-rule="evenodd" d="M43.757,128.893c0.194,0.193,0.453,0.517,0.776,0.84
		c0.258,0.259,0.582,0.582,1.034,0.97l-0.064,0.582c-1.229,0.259-2.715,0.581-4.072,1.099c-1.487,0.517-3.038,1.034-3.684,2.392
		c-0.453,0.97-0.711,2.262-0.84,3.361c-0.129,1.033-0.129,2.197-0.129,2.585c0,0.259,0,0.581,0.064,0.84
		c0,0.259,0.065,0.582,0.129,0.841c0.064,0.323,0.129,0.581,0.194,0.84c0.065,0.259,0.065,0.452,0.065,0.582
		c-0.065,0.323-1.099,1.293-1.616,1.293c-1.358-0.13-2.133-1.681-2.457-4.008c-0.258-2.197-0.129-4.46-0.129-4.912
		c0.064-0.518,0.129-1.745,0.258-3.038c0.129-0.582,0.258-1.163,0.388-1.681c0.194-0.452,0.323-0.711,0.453-0.84
		c0.711-0.194,2.392-0.775,4.136-1.293c1.875-0.582,3.62-1.099,4.266-1.034S43.435,128.505,43.757,128.893L43.757,128.893z"/>
	<path fill-rule="evenodd" clip-rule="evenodd" d="M20.618,139.364c0.064,0.064,0.194,0.129,0.517,0.194h0.388
		c1.034,0.064,1.875-0.646,2.457-1.422c0.646-0.841,1.099-1.939,1.486-2.974c0.646-1.939,1.034-4.008,1.163-4.848
		c0.065,0,0.259,0,0.388,0c0.905,0.064,3.038,1.486,3.038,1.616c0.065,0.323,0.194,0.581,0.323,0.711
		c0.064,0.129,0.646,0.711,0.646,0.775c0,0-0.582,4.783-0.388,7.627c0,0.194-0.711,0.905-1.034,1.228
		c-0.517,0.518-1.229,1.1-1.745,1.487c-0.194-0.065-0.97-1.229-1.229-1.164c-0.258,0.065-2.327,1.681-2.714,1.681
		c-0.84,0-2.973,0.388-4.589-0.388c-1.099-0.517-1.875-0.97-2.392-1.938c-1.292-2.263-1.81-6.271-1.616-7.046
		c0.129-0.517,0.905-3.555,1.939-5.752c0.323,0.193,0.646,0.322,0.969,0.517c0.517,0.259,1.099,0.452,1.551,0.775
		c1.034,0.518,1.357,1.034,1.293,1.811c0,0.322-0.259,1.356-0.582,2.521c-0.129,0.582-0.453,2.585-0.453,2.844
		c0,0.452,0.065,0.775,0.194,1.034C20.23,138.653,20.553,139.364,20.618,139.364L20.618,139.364z"/>
	<path fill-rule="evenodd" clip-rule="evenodd" d="M89.52,131.543c-0.323,0.063-0.711,0.129-1.099,0.193
		c-0.711,0.194-0.776,0.388-1.357,0.452l-0.323,0.065l-0.13,0.258c-0.84,1.681-2.779,4.46-2.714,5.365c0,0-0.194,1.099,0.129,1.745
		c0.323,0.582,1.228,0.388,1.228,0.388c3.038-1.229,7.369-3.685,7.369-7.11c0-0.452-0.065-0.711-0.259-0.969
		c-0.582-0.582-2.004-0.518-2.004-0.518C90.102,131.414,89.777,131.478,89.52,131.543L89.52,131.543z M96.177,133.417
		c0,0.064-0.064,0.388-0.259,0.905c-0.129,0.517-0.388,1.099-0.646,1.68c-0.324,0.582-0.582,1.164-0.776,1.616l-0.323,0.582
		l-0.064,0.193c-0.064,0.064-0.064,0.129-0.064,0.194c-0.13,0.259-0.194,0.711-0.323,1.163c-0.13,0.453-0.259,0.775-0.452,1.034
		c-1.357,2.263-4.978,3.813-6.723,4.008c-3.749,0.452-5.494-4.072-5.688-6.464c-0.064-0.582,0.193-1.551,0.452-2.456
		c1.551-5.171,3.167-7.239,6.787-7.886C90.747,127.471,95.983,131.026,96.177,133.417L96.177,133.417z"/>
	<path fill-rule="evenodd" clip-rule="evenodd" d="M104.127,131.543c-0.323,0.063-0.711,0.129-1.099,0.193
		c-0.711,0.194-0.776,0.388-1.357,0.452l-0.323,0.065l-0.13,0.258c-0.84,1.681-2.778,4.46-2.778,5.365c0,0-0.13,1.099,0.193,1.745
		c0.323,0.582,1.229,0.388,1.229,0.388c3.038-1.229,7.368-3.685,7.368-7.11c0-0.452-0.13-0.711-0.259-0.969
		c-0.646-0.582-2.068-0.518-2.068-0.518C104.709,131.414,104.386,131.478,104.127,131.543L104.127,131.543z M110.784,133.417
		c0,0.064-0.064,0.388-0.259,0.905c-0.193,0.517-0.388,1.099-0.711,1.68c-0.259,0.582-0.517,1.164-0.711,1.616l-0.323,0.582
		l-0.064,0.193c-0.064,0.064-0.064,0.129-0.064,0.194c-0.129,0.259-0.259,0.711-0.323,1.163c-0.129,0.453-0.259,0.775-0.452,1.034
		c-1.357,2.263-4.977,3.813-6.723,4.008c-3.749,0.452-5.494-4.072-5.752-6.464c0-0.582,0.193-1.551,0.517-2.456
		c1.552-5.171,3.168-7.239,6.787-7.886C105.354,127.471,110.591,131.026,110.784,133.417L110.784,133.417z"/>
	<path fill-rule="evenodd" clip-rule="evenodd" d="M7.626,33.879c0.064,0.129,0,0.323-0.064,0.453
		c-0.065,0.194-0.259,0.388-0.453,0.452c-0.259,0.065-0.453,0.065-0.711-0.064C6.14,34.59,6.01,34.46,5.946,34.267
		c-0.129-0.194-0.129-0.452,0-0.646c0.064-0.129,0.129-0.259,0.259-0.324c0.129-0.129,0.388-0.193,0.582-0.064l-0.064,0.194
		c-0.129,0-0.258,0-0.323,0c-0.129,0.064-0.194,0.129-0.259,0.258c-0.064,0.194-0.064,0.388,0.065,0.517
		c0.064,0.129,0.194,0.194,0.323,0.258c0.129,0.065,0.323,0.065,0.452,0.065c0.194-0.065,0.323-0.129,0.388-0.323
		c0.064-0.064,0.064-0.194,0-0.258c0-0.129-0.065-0.194-0.129-0.259l0.064-0.258C7.497,33.556,7.562,33.685,7.626,33.879
		L7.626,33.879z M5.494,34.46c0.129,0.323,0.388,0.582,0.711,0.711c0.323,0.194,0.646,0.194,0.97,0.065
		c0.388-0.129,0.581-0.323,0.775-0.646c0.129-0.323,0.129-0.711,0.064-1.034c-0.129-0.323-0.388-0.582-0.711-0.711
		c-0.323-0.194-0.646-0.194-1.034-0.064c-0.323,0.129-0.582,0.323-0.711,0.646C5.364,33.75,5.364,34.138,5.494,34.46L5.494,34.46z
		 M8.208,33.491c0.129,0.388,0.129,0.775-0.064,1.164c-0.194,0.388-0.453,0.646-0.905,0.775c-0.388,0.129-0.775,0.129-1.164-0.064
		c-0.388-0.129-0.646-0.453-0.775-0.84C5.17,34.138,5.17,33.75,5.364,33.362s0.452-0.646,0.84-0.776
		c0.388-0.129,0.775-0.129,1.164,0.065C7.755,32.78,8.014,33.104,8.208,33.491L8.208,33.491z"/>
	<path fill-rule="evenodd" clip-rule="evenodd" d="M8.919,31.617c-0.129-0.194-0.194-0.452-0.194-0.711v-0.517
		c0-0.194,0-0.323,0-0.453c-0.065-0.129-0.129-0.258-0.258-0.323c-0.194-0.064-0.323-0.129-0.453-0.064
		c-0.129,0-0.259,0.129-0.323,0.259c-0.129,0.258-0.129,0.452-0.064,0.646c0.064,0.065,0.194,0.194,0.388,0.259L7.82,31.035
		c-0.258-0.129-0.388-0.259-0.517-0.453c-0.129-0.259-0.129-0.582,0.065-0.905s0.387-0.517,0.646-0.517
		c0.194-0.064,0.453,0,0.646,0.064c0.194,0.129,0.324,0.323,0.388,0.517c0.064,0.129,0.064,0.388,0.064,0.646v0.323
		c0,0.194,0,0.323,0,0.388c0.065,0.194,0.129,0.323,0.194,0.453l0.84-1.422l0.324,0.193l-1.035,1.746
		C9.242,31.94,9.048,31.746,8.919,31.617L8.919,31.617z"/>
	<path fill-rule="evenodd" clip-rule="evenodd" d="M9.565,27.092c0.258,0.064,0.582,0.194,0.905,0.388
		c0.387,0.259,0.646,0.453,0.775,0.711c0.194,0.323,0.194,0.711,0,1.034c-0.194,0.323-0.453,0.453-0.84,0.388
		c-0.259,0-0.582-0.129-0.97-0.388c-0.258-0.129-0.517-0.323-0.646-0.582c-0.323-0.388-0.323-0.711-0.13-1.099
		C8.919,27.222,9.178,27.092,9.565,27.092L9.565,27.092z M10.987,28.514c-0.064-0.194-0.323-0.388-0.71-0.646
		c-0.259-0.194-0.518-0.323-0.776-0.388c-0.194-0.064-0.388,0.065-0.517,0.259c-0.129,0.194-0.129,0.388,0,0.582
		c0.129,0.194,0.323,0.388,0.711,0.582c0.194,0.194,0.452,0.258,0.646,0.323c0.258,0.064,0.517,0,0.646-0.194
		C11.052,28.902,11.052,28.708,10.987,28.514L10.987,28.514z"/>
	<path fill-rule="evenodd" clip-rule="evenodd" d="M10.923,25.218c0.259,0.064,0.582,0.193,0.905,0.452
		c0.388,0.194,0.582,0.453,0.776,0.711c0.194,0.323,0.194,0.711-0.065,1.034c-0.194,0.258-0.452,0.388-0.84,0.388
		c-0.258-0.064-0.582-0.194-0.97-0.452c-0.258-0.194-0.517-0.388-0.646-0.582c-0.259-0.388-0.259-0.775-0.065-1.099
		C10.277,25.347,10.535,25.218,10.923,25.218L10.923,25.218z M12.345,26.705c-0.064-0.194-0.323-0.453-0.711-0.711
		c-0.258-0.194-0.517-0.324-0.776-0.388c-0.194-0.064-0.387,0-0.517,0.194c-0.129,0.194-0.129,0.388,0,0.582
		c0.064,0.194,0.323,0.452,0.646,0.646c0.259,0.194,0.453,0.323,0.646,0.323c0.259,0.129,0.517,0.064,0.646-0.129
		C12.409,27.028,12.409,26.898,12.345,26.705L12.345,26.705z"/>
	<path fill-rule="evenodd" clip-rule="evenodd" d="M12.732,25.735c-0.129-0.194-0.129-0.452-0.129-0.775l0.064-0.453
		c0.064-0.194,0.064-0.323,0-0.453c0-0.129-0.064-0.258-0.194-0.388c-0.129-0.064-0.259-0.129-0.388-0.129
		c-0.194,0.065-0.323,0.129-0.388,0.259c-0.194,0.194-0.194,0.388-0.129,0.582c0.065,0.129,0.194,0.259,0.324,0.323l-0.259,0.323
		c-0.194-0.129-0.323-0.323-0.388-0.517c-0.129-0.258-0.064-0.582,0.194-0.905c0.194-0.259,0.388-0.453,0.646-0.453
		c0.258,0,0.452,0.065,0.646,0.194c0.194,0.129,0.259,0.323,0.323,0.582c0,0.129,0,0.323,0,0.646l-0.064,0.323
		c-0.065,0.129-0.065,0.259,0,0.388c0,0.129,0.064,0.323,0.129,0.452l0.97-1.357l0.323,0.259l-1.228,1.616
		C12.926,26.058,12.797,25.929,12.732,25.735L12.732,25.735z"/>
	<path fill-rule="evenodd" clip-rule="evenodd" d="M13.702,20.887l1.357,1.357c0.129,0.129,0.323,0.258,0.452,0.258
		c0.259,0.065,0.453,0,0.711-0.193c0.194-0.259,0.323-0.518,0.194-0.776c0-0.129-0.129-0.259-0.259-0.388l-1.357-1.357l0.323-0.323
		l1.164,1.228c0.323,0.258,0.452,0.517,0.517,0.711c0.129,0.387,0,0.775-0.323,1.163c-0.388,0.323-0.775,0.453-1.164,0.323
		c-0.194-0.064-0.452-0.194-0.711-0.517l-1.228-1.164L13.702,20.887L13.702,20.887z"/>
	<polygon fill-rule="evenodd" clip-rule="evenodd" points="15.706,18.819 17.386,17.397 17.645,17.655 16.288,18.883 16.869,19.53 
		18.162,18.431 18.356,18.689 17.128,19.853 17.774,20.629 19.196,19.401 19.39,19.659 17.709,21.146 15.706,18.819 	"/>
	<polygon fill-rule="evenodd" clip-rule="evenodd" points="18.033,16.815 19.713,15.522 19.907,15.846 18.614,16.88 19.131,17.591 
		20.359,16.686 20.553,16.944 19.39,17.914 20.23,19.013 19.907,19.271 18.033,16.815 	"/>
	<path fill-rule="evenodd" clip-rule="evenodd" d="M22.298,15.846l-1.163-0.84l0.388,1.357L22.298,15.846L22.298,15.846z
		 M20.683,14.747l0.388-0.258l2.65,1.81l-0.323,0.258l-0.775-0.517l-1.034,0.711l0.323,0.905l-0.388,0.259L20.683,14.747
		L20.683,14.747z"/>
	<polygon fill-rule="evenodd" clip-rule="evenodd" points="25.013,11.967 25.207,12.226 24.302,12.808 25.854,15.07 25.466,15.264 
		23.979,13.066 23.139,13.648 22.945,13.325 25.013,11.967 	"/>
	<path fill-rule="evenodd" clip-rule="evenodd" d="M25.271,11.58l0.453-0.324l2.133,1.746l-0.646-2.65l0.517-0.323l1.616,2.585
		l-0.323,0.258l-0.969-1.551c0-0.065-0.064-0.129-0.129-0.259c-0.064-0.129-0.194-0.258-0.258-0.388l0.646,2.65l-0.388,0.194
		l-2.068-1.746v0.129c0.064,0.064,0.129,0.129,0.194,0.258c0.129,0.13,0.194,0.194,0.194,0.259l0.97,1.551l-0.323,0.194
		L25.271,11.58L25.271,11.58z"/>
	<path fill-rule="evenodd" clip-rule="evenodd" fill="#F37121" d="M24.755,18.948c3.878-2.068,3.684-1.034,6.398-2.456
		c13.251-6.141,24.174,4.459,24.174,4.459s-6.205-2.649-11.117-2.456c-14.155,0.452-20.748,8.855-21.395,9.76
		c-5.365,7.433-7.626,14.607-6.657,22.622c1.034,7.11,3.103,12.927,8.726,19.197c0,0,3.749,6.27,12.604,10.858
		c4.913,2.521,16.482,8.984,23.333,9.954c2.456,0.064,3.103,0.194,4.718,0.775c0.194-0.129,0.582-0.452,0.582-0.711
		c2.456,0.841,12.475,2.715,14.996,3.038c0.775-6.334,3.425-11.569,8.596-18.809c1.293-1.746,2.65-3.943,3.038-4.654
		c0.064-0.453,3.297-4.137,3.297-4.137c2.649-3.102,3.878-5.106,5.623-8.79c2.585-5.559,2.649-10.212,3.813-15.254
		c0.646-4.137-1.099-8.661-2.909-12.733c0.259-0.969-0.323-1.874-0.646-2.714c-2.457-6.528-21.782-20.295-41.496-6.916
		c13.896-18.033,34.968-6.205,34.902-6.334c9.438,4.719,14.544,14.479,14.479,25.531l-0.193,4.589l-0.323,0.323
		c-0.518,2.327-0.13,3.555-0.775,5.817c-0.13,0.194-0.13-0.323-0.194-0.193c-1.099,3.167-2.068,6.334-3.942,9.372
		c-0.13,0.905,0.129,1.875-0.323,2.78c-0.452,0.453-0.97,0.646-1.422,1.034l-9.372,13.703c0.388,0.129-13.186,18.55-1.229,25.401
		c0.194,0.259-0.646,0.582-0.97,0.582c-8.209-0.452-26.823-3.231-32.511-5.559v-0.582c-1.034-0.582-1.422-1.486-2.521-1.681
		c-2.327,0-3.813-0.193-5.946-0.97l-0.969,0.646c0,0-1.293-0.517-2.844-1.163c-1.293-0.452-13.509-6.334-17.387-10.147
		c0,0-7.175-6.981-10.212-8.985c-3.103-3.425-5.882-11.311-5.882-11.311c-0.129-0.775-4.072-7.303-4.072-10.406
		c0-2.521-1.616-0.388-0.84-3.103c0.646-2.392,3.361-14.802,5.106-16.417c0,0,3.103-4.589,5.494-6.916
		c1.422-1.357,3.297-4.396,5.495-5.753L24.755,18.948L24.755,18.948z"/>
	<path fill-rule="evenodd" clip-rule="evenodd" fill="#FDB827" d="M95.272,57.471c4.589-15.835-5.495-30.572-12.863-35.161
		c-4.33-2.715-11.698-8.145-25.401-6.658c-10.148,1.034-18.356,8.015-21.2,10.988c-5.106,5.494-7.692,10.858-8.791,18.292
		c-0.84,5.559,0.194,12.41,2.068,17.387c1.292,3.36,1.939,4.524,3.49,6.657c-0.258,0.194-0.129,0.258-0.453,0
		c-2.133-2.973-2.392-3.878-3.943-7.498c-0.517-1.163-0.517-1.681-0.517-1.681s-0.776-0.194-0.905,0.065
		c0,0.065,0,0.711,0.711,2.457c1.164,2.973,3.167,7.303,6.464,10.987c0.323,0.388-0.129,0.518-0.323,0.129
		c-4.266-4.524-6.205-10.147-6.981-12.345c-0.388-1.034-0.775-2.262-0.775-2.456c0,0-1.163-0.388-1.034,0.129
		c0.582,2.133,1.745,5.042,3.749,9.049c1.357,2.391,2.392,4.589,7.11,9.049c7.368,6.98,22.041,10.535,35.808,6.011
		C84.413,78.671,91.588,69.946,95.272,57.471L95.272,57.471z"/>
	<path fill-rule="evenodd" clip-rule="evenodd" fill="#FFFFFF" d="M72.326,34.719c-0.581,0.711-0.97,2.133-1.099,2.973
		s1.81,3.232,3.619,5.494c1.423,1.81,2.068,3.685,3.038,4.783c0.841,0.84,1.293,2.844-0.517,3.426
		c-2.327,0.775-2.068-0.388-2.068-0.388l-0.776-2.327c0,0-1.68-3.943-2.326-5.171c-0.646-1.229-5.042-5.236-4.719-6.722
		c0.129-0.388,0.259-0.84,0.453-1.228c-0.776,0.84-1.552,1.487-2.004,2.133c-0.259,0.323-0.646,0.453-1.164,0.582
		c-2.392,0.582-5.17-0.388-5.623,0.065c-2.65,2.456,2.133,0.905,6.593,3.491c0.775,0.452,2.909,4.589,4.008,7.626
		c0.388,1.228-1.616-0.84-1.681-0.259C67.802,64.128,57.008,57.6,54.487,60.508c-1.875,2.909,8.984,1.811,7.434,3.491
		c-2.586,2.714-5.559-0.582-8.597,0.84c-2.65,1.293-1.875,4.459-5.559,5.042c-1.551-0.582-3.942-1.939-7.239-0.97
		c-1.81-0.84,2.714-1.874,0.84-3.103c-0.582-0.388-6.076-0.646-6.593-1.099c-4.396-3.943-5.106-8.597-4.202-11.44
		c0.065-0.453,1.164-3.167,0.194-4.718c-0.582-2.004-0.905-5.042-0.065-7.045c0.259-0.582-0.129,2.456,1.939,5.688
		c0.517,1.292,2.069,3.426,2.392,2.779c0.129-0.129,4.654,0.646,7.239,0.129c1.292-0.259,2.521-0.453,3.038-1.357
		c0.258-0.517,1.099-2.392-0.453-2.65c-1.487-0.258-1.681,1.035-2.262,1.164c-3.232,0.259-5.753,0.194-6.334-0.259
		c-1.228-1.421-4.072-6.722-3.038-9.889c0.969-2.973,3.361-5.946,5.882-8.079c0.711-0.517,4.072-0.775,4.718-1.034
		c1.163-1.357,0.258-1.939-1.164-1.616c-0.258-0.064,1.034-0.84,1.228-1.099c4.718-2.844,10.988-3.232,12.798-2.909
		c3.555,0.711-2.715,2.779-0.452,4.524c2.068,1.357,5.558-5.559,12.41-1.616c2.197,1.228,1.874,3.942,1.292,6.398
		c-0.129,0.517-0.258,0.97-0.452,1.357c0.194-0.194,0.323-0.323,0.518-0.388C70.84,32.134,72.908,34.008,72.326,34.719
		L72.326,34.719z M69.288,61.478c0,0,0.194-1.939,0.582-2.844c0.323-0.905,2.521-4.007,3.167-4.848
		c0.646-0.905,2.327-1.681,2.327-1.681s3.361,0.129,4.395,0.776c1.035,0.646,1.1,0.97,0.712,2.262
		c-0.259,1.034-1.164,0.711-1.81,0.452c-0.518-0.193-0.582,0.065-3.297,1.616s-2.327,2.198-2.974,4.007
		c-0.646,1.81,0,2.133-0.775,2.262C69.095,63.805,69.288,61.478,69.288,61.478L69.288,61.478z"/>
	<path fill-rule="evenodd" clip-rule="evenodd" fill="#F37121" d="M54.487,21.017c-2.65,0.388-5.429,1.099-8.273,2.133
		c-1.034,0.517-2.004,1.099-2.974,1.745c0.065-0.194-0.064-0.323,0-0.452c0.259-0.453,0.453-0.776,0.517-1.034
		c0.129-0.259,0.194-0.453,0.129-0.711c0.453-0.517,1.229-1.099,2.004-1.551l0.129-0.065c0.646-1.034,1.163-1.228,1.163-1.228
		s17.452-8.726,33.481,3.167c3.103,2.327,5.753,5.041,8.273,9.113c3.942,6.334,4.912,11.893,5.042,18.421
		c-0.646,9.501-5.882,21.782-17.646,27.469c-4.913,2.392-8.08,3.555-13.574,4.202c-2.327,0.259-3.749,0.323-6.14,0.194
		c-4.719-0.194-6.981-0.453-11.893-2.521c-1.81-0.775-4.331-2.391-6.593-4.524c0,0-0.129-0.259,0.97,0.064
		c0.064,0,0.129-0.064,0.129-0.129c-1.939-1.422-5.042-5.235-5.042-5.235c-0.582-1.164-1.551-2.327-2.327-3.942
		c-1.034-2.068-2.133-5.559-2.133-5.559c0.129-0.129,0.453-0.065,0.453-0.065c-0.453-1.486-0.517-2.133-0.775-3.555
		c0.194-0.259,0.258-0.388,0.84-0.129c0.194,0.905,0.582,2.068,0.97,3.167c0.194,0.064,0.388,0,0.711-0.129
		c0.388-1.681,0-2.456,0.065-3.749c0.064-1.292,0.517-2.068,0.84-3.426c0.194-0.711,0.259-1.357,0.582-1.81l-0.259-0.582
		c-0.323-0.453-0.452-1.228-0.452-1.68c0.194-0.97,1.422-1.552,2.198-0.582l1.034,1.357c0.517-0.064,0.517,0.129,1.034,0.064
		c0.453-0.064,1.681-0.453,2.844-0.517c1.228-0.129,2.068,0.064,3.038,0.129l1.293-1.487c1.164-2.133,3.49-0.905,2.392,1.293
		l-0.841,1.163c0.194,0.194,0.388,0.453,0.582,0.711c1.875,2.973,3.62,6.076,5.235,9.243c0.129-0.064,1.81,0.582,1.81,0.582
		c2.521,0.453,2.779,2.327,0.323,2.65l-2.068-0.388c-0.193,0.259-0.323,0.518-0.517,0.775l-0.646,0.776l-0.711,0.776
		c-0.453,0.517-0.905,0.97-1.228,1.551c-0.258,0.259-0.582,0.582-0.905,0.905l-0.905,0.969c-0.194,0.259-0.258,0.323-0.452,0.518
		c0.064,0.129,0.064,0.387,0.129,0.517l0.517,1.099c1.422,1.939-0.646,3.749-2.068,1.81c0,0-1.486-2.198-1.551-2.391
		c-0.194-0.129-0.453-0.518-0.711-0.647c-0.388-0.258-1.616,0-2.003-0.194c-0.259-0.064-0.323-0.388-0.388-0.582
		c3.167-0.775,6.981-1.357,8.532-5.882c0.841-3.555-0.646-6.593-3.425-9.114c-0.388-0.323-2.779-1.81-3.426-1.874l-1.616,0.129
		c-0.323,0-0.646-0.064-0.905-0.129c0,0-1.164,0.064-1.875,0.323c-0.711,0.259-1.164,0.388-1.681,0.905
		c-0.452,0.517-0.582,0.97-0.776,1.551c-0.387,0.905-0.582,2.327-0.582,2.327c0.064,0.97,0.064,1.357,0.194,1.681l0.258,1.099
		c0.129,0.775,0.711,1.487,1.357,2.327c0.517,0.646,0.711,1.164,1.422,1.551c1.164,0.711,2.133,0.453,3.49,0.194
		c0.775-0.129,1.422-0.194,1.939-0.646c0.323-0.194,1.487-1.486,1.487-1.486c0.582-0.97,0.258-1.81-0.194-2.456
		c-0.194-0.324-0.646-1.357-1.422-1.81c-0.84-0.517-1.681-0.582-2.521-0.323c-0.582,0.323-0.582,1.357-0.517,1.616
		c0.129,0.453,1.551,0.518,1.81,0.582c0.452,0.129,0.775,0.388,0.711,0.97c0.064,0.387-1.164,1.163-1.164,1.163
		c-0.97,0.194-1.551,0.064-2.456-0.323c-0.323-0.129-0.582-0.129-0.776-0.388c-0.323-0.582-0.388-0.711-0.517-0.84
		c-0.517-0.776-0.453-1.551-0.258-2.327c0.194-0.841,0.582-1.616,0.711-2.392c0.517-0.582,1.164-0.905,1.745-0.776
		c0.711,0.194,0.711,0,1.163,0.065c0.97,0.129,1.552,0.452,2.392,0.775c0.776,0.324,1.487,0.775,1.939,1.616
		c0.969,1.357,1.745,2.909,1.292,4.783c-0.194,0.517-0.388,0.84-0.582,1.228l-0.323,0.646c-0.129,0.194-0.258,0.388-0.323,0.582
		c-1.034,1.292-2.262,1.874-4.007,2.262c-0.582,0.194-0.905,0.194-1.487,0.259c-0.776,0-1.357-0.065-2.068-0.129
		c-1.293-0.194-2.65-1.422-3.103-1.68c-0.324-0.129-0.776-0.065-1.293-0.323c3.103,5.041,7.691,9.566,13.638,12.216
		c-0.194-0.323-0.388-0.646-0.453-1.034c-0.129-1.228,1.681-0.905,2.068-0.194c0.194,0.323,1.422,2.133,2.456,2.715
		c0.582,0.129,1.099,0.258,1.616,0.323c1.746,0.388,5.817,0.452,7.175,0.388c0.323-0.065,0.452,0.646,1.486,0.388
		c0.582-0.129,1.81-0.582,3.038-1.034c0.646-0.517,1.486-1.422,1.81-1.875c0.453-0.582,0.905-1.357,1.811-0.969
		c0.581,0.258,0.775,0.323,0.322,0.969c-0.064,0.194-0.129,0.388-0.193,0.518c2.521-0.711,4.524-1.358,7.368-3.813
		c1.422-1.229,2.197-1.939,3.361-3.426c1.616-2.068,2.779-4.847,3.296-5.881c0.259-0.582,0.518-1.164,0.646-1.681
		c0.129-0.776,0.259-1.681,0.323-2.65c0-0.97-0.064-2.004-0.129-2.457c-0.065-0.517-0.388-2.003-0.841-2.391
		c-1.422-1.357-5.752-1.746-5.752-1.746l-0.646,0.388c0,0-0.841,0.517-1.034,0.582c-1.745,1.164-2.974,2.973-3.426,4.201
		c-0.452,1.164-1.164,2.263-1.551,3.426c-0.194,0.259-0.13,0.388-0.194,0.646c-0.259,1.357,0.646,2.844,0.775,3.49l0.259,0.969
		c0.064,0.259,0.904,1.939,2.068,2.004c0.259,0.064,0.775-0.064,0.775-0.064c0.452,0,0.97-0.129,1.293-0.517
		c1.034-0.776,1.163-0.905,1.292-1.034c0.712-0.97,1.552-1.939,2.134-2.973c0.646-1.035,1.034-2.198,0.711-3.555
		c-0.129-0.129-0.323-0.388-0.388-0.582c-0.13-0.258-0.194-0.517-0.259-0.775c-0.194-0.517-0.452-0.969-1.357-0.969
		c-1.163-0.129-2.004,0.84-2.65,1.745c-0.129,0.582-0.517,2.198-0.129,2.392c0.517,0.452,1.099-1.357,1.486-1.487h0.776
		c0.517,0.646,0.711,0.775,0.711,0.775c0.064,0.453,0.129,0.841,0.064,1.228c-0.388,1.035-0.582,1.293-1.034,2.004
		c-0.194,0.259-0.452,0.646-0.452,0.646l-0.776,0.646c-0.259,0.129-0.452-0.129-0.581,0.323l-0.646-0.258
		c-0.323,0.065-0.389-0.323-0.646-0.388c-1.681-2.262-1.552-4.718-0.323-7.109c0.194-0.259,0.388-0.453,0.581-0.711l0.582-0.776
		c0.388-0.517,2.068-1.81,2.521-1.81c0,0,0.517,0,0.84-0.064c0.259-0.064,0.452-0.064,0.711-0.194
		c1.486,0.064,2.456,1.228,3.038,2.521c0.517,2.068,0.193,4.912-0.775,6.657c-0.776,1.551-2.586,3.813-2.586,3.813
		s-2.004,1.292-2.197,1.422l-0.841,0.323c-0.388,0.259-0.904,0.452-1.228,0.776c-0.13,0.064-0.323,0.064-0.452,0.129
		c-0.065,0.129-0.13,0.194-0.194,0.323l-0.97,1.099l-0.388,0.388c-1.228,2.004-3.878,1.293-2.65-0.711l0.775-0.97
		c-0.129-0.129-0.258-0.258-0.387-0.453c-0.323-1.099-0.712-2.133-1.229-3.167c-0.452-1.034-0.97-2.133-1.422-3.167l-0.259-0.258
		l-1.616-0.13c-2.392-0.194-2.198-2.391,0.129-2.391l2.521-0.323l0.129-0.064c0.13-0.194,0.323-0.453,0.453-0.711
		c0.388-0.711,0.904-1.422,1.422-2.133c0.517-0.711,1.099-1.422,1.616-2.133c1.034-1.292,2.003-2.521,2.714-3.943
		c-0.259-0.194-0.452-0.452-0.646-0.775l-0.323-1.164c-1.229-2.133,1.099-3.426,2.326-1.292l0.776,1.551
		c0.322,0,0.646,0,0.969,0.129h0.711c1.939,0.517,3.49,0.84,5.106,0.905l0.452-0.453c1.229-2.068,3.685-0.84,2.456,1.229
		l-0.388,0.582c0,0,0.582,2.391,0.646,3.942c0.064,0.646,0.064,1.745,0.064,1.745l-0.064,2.262c0.388-0.84,1.034-3.103,0.97-3.49
		c0.193-0.194,0.646-4.137,0.711-4.396c0,0,0.194-0.775,0.259-2.197c-0.064-1.228-0.13-2.521-0.13-2.521l-0.064-0.388
		c-0.193-0.582-1.099-0.969-1.293-1.81c0-0.259,0.646-1.422,0.711-1.551c-0.193-0.905-0.452-1.81-0.646-2.521
		c-0.13-0.452-0.323-0.905-0.582-1.616c-1.099-2.262-2.262-4.266-3.619-6.076c-0.259-0.259-0.453-0.517-0.711-0.776
		c-1.487-1.551-4.783-4.201-6.076-4.977c-1.293-0.84-2.585-1.551-4.008-2.133c-0.322,0.323-0.258,0.582-0.193,0.775l0.193,0.582
		c0.065,0.065,0.13,0.129,0.13,0.259l1.551,0.258c1.487,0.646,2.65,2.973,0.711,2.456c-1.228-0.323-1.034-0.064-2.133-0.388
		c-0.323,1.292-0.904,2.844-1.292,3.555c-0.323,0.711-0.971,1.099-1.293,1.745c-0.259,0.453-0.259,0.646-0.453,1.034
		c0.13,0.13,1.164,2.457,1.164,2.457c0.193,0.388-0.518,0.775-0.711,1.163c-0.841,0.582-1.164,1.551-2.133,0.194
		c-0.711-1.034-0.453-1.616-1.035-2.327H65.41c-1.099,0-2.133-0.194-3.167-0.388c-1.034-0.129-2.133-0.323-3.296-0.258
		c-0.323-0.13-0.582-0.194-0.905-0.194c-0.259,0-0.582,0-0.84,0c-0.323,0-0.582,0-0.84,0c-0.323-0.065-0.646-0.129-0.905-0.194
		l-0.582,0.194h-0.388l-1.228,1.357c-1.163,2.133-4.072,1.034-2.909-1.099l1.228-1.616c-0.969-2.65-2.004-5.171-2.909-7.756
		l-1.034,0.129c-1.681,0.776-2.909-1.421-1.228-2.197l2.844-0.775c0.84-0.711,1.81-1.293,2.715-1.81
		c0.969-0.582,1.875-1.034,2.779-1.616C54.681,21.469,54.552,21.21,54.487,21.017L54.487,21.017z M66.832,22.438
		c0-0.064,0.064-0.129,0.194-0.129c0.388,0.064,1.357,0.193,2.392,0.517c3.167,1.034,6.205,2.521,9.049,4.653
		c1.099,0.776,2.133,1.616,3.167,2.715l3.038,3.749c0.064-0.323-0.194-0.97-0.582-1.616c-3.942-5.429-10.083-9.631-17.71-11.117
		c-0.388-0.064-0.775-0.129-1.163-0.194c0,0-1.487-0.065-2.457,0c-1.551,0.129-2.521,0.323-3.942,0.969
		c-2.069,0.905-3.491,1.551-4.589,3.555c-0.453,0.905-0.711,1.551-0.776,2.585c-0.064,1.228,0,2.327,0.711,3.038
		c0.388,2.327,2.198,3.49,4.524,4.266c1.293,0.453,3.555,0.323,3.555,0.323c2.198,0.711,3.942-0.582,5.494-2.327
		c0.646-0.711,0.84-1.357,1.292-2.133c0.259-1.292-0.322-2.197-0.646-3.296c-0.582-2.133-3.167-2.198-5.042-2.65
		c-1.616,0.388-3.296,1.163-4.072,2.779c-0.064,0.452-0.323,0.97-0.064,1.422c0.129-0.065,0.193,1.034,0.711,1.357
		c0.194,0.064,0.323,0.129,0.452,0.194c0.582,0.258,0.84,0.711,1.422,0.84c0.905,0.258,2.521-0.646,2.327-0.905
		c-0.711-0.776-1.357-0.453-1.357-0.453c-0.97-0.452-0.194-0.323-0.84-0.84c0.129-0.388-0.776-1.164-0.518-1.486
		c0.388-0.453,0.646-1.099,1.357-1.099c1.099,0.194,2.198,0,2.844,1.099c0.517,0.905,1.357,2.714,1.099,3.49
		c-0.323,0.84-1.099,1.939-2.068,2.003c-2.327,0.517-3.555,0.453-5.429-0.453c-2.133-0.84-2.65-2.521-2.78-4.653
		c-0.064-1.164-0.064-1.939,0.518-2.974c0.323-0.517,0.711-0.84,1.099-1.163c0.194-0.064,0.905-0.711,1.551-1.034
		c1.551-0.84,2.197-1.357,4.331-1.228c0.323,0,0.646-0.064,1.099-0.064C65.669,22.18,66.25,22.31,66.832,22.438L66.832,22.438z
		 M40.461,28.644c-1.292-0.711,0.582-2.909,2.068-1.616C43.305,27.739,41.883,29.354,40.461,28.644L40.461,28.644z M50.415,40.989
		c1.81,1.164-0.517,4.524-2.521,2.392C46.731,42.217,48.605,39.761,50.415,40.989L50.415,40.989z M60.175,61.931
		c0.775,1.486-2.068,2.521-2.65,0.388C57.202,61.09,59.399,60.444,60.175,61.931L60.175,61.931z M33.739,44.479
		c-0.97,1.357-3.167-0.969-1.552-2.392C33.093,41.312,34.773,43.122,33.739,44.479L33.739,44.479z M72.456,45.061
		c-0.194,1.874-3.813,0.84-2.974-1.422C69.935,42.346,72.649,43.186,72.456,45.061L72.456,45.061z"/>
	<path fill-rule="evenodd" clip-rule="evenodd" fill="#00AB66" d="M115.697,27.286c-0.13-0.323-0.13-0.776-0.13-1.228
		c0-0.646,0-1.357,0.388-2.068c0.259-0.84,1.681-1.163,2.65-1.034c1.099,0.129,2.004,0.84,2.326,1.487
		c0.323,0.776,0.389,1.487,0.194,2.262l-0.064,0.258c-0.064,0.194-0.194,0.388-0.323,0.582c-0.194,0.388-0.452,0.711-0.775,0.969
		c-0.259,0.194-1.681,0.969-2.069,0.711c-0.064,0.064-0.193,0.129-0.322,0.129c-0.13,0-0.194-0.065-0.259-0.129
		c-0.194,0.064-0.453,0-0.582,0c-0.581-0.129-1.228-0.84-1.228-1.034c0-0.259,0.388-0.259,0.258-0.518
		c-0.063-0.129-0.193-0.194-0.193-0.258C115.632,27.351,115.632,27.351,115.697,27.286L115.697,27.286z"/>
	<path fill-rule="evenodd" clip-rule="evenodd" fill="#00AB66" d="M83.831,2.79c-0.84-0.84,0.388-1.681,1.293-2.198
		c0.129-0.065,0.194-0.065-0.064,0c-0.388,0.129-0.905,0.388-1.357,0.84c-0.194,0.194-0.388,0.582-0.388,0.905
		c0.064,0.323,0.259,0.517,0.323,0.646h-0.064c-0.13-0.065-0.194-0.194-0.194-0.194c-0.064-0.065-0.193-0.259-0.193-0.582
		c0-0.258,0.129-0.517,0.322-0.775c0.389-0.388,0.905-0.711,1.552-1.034c1.163-0.711,3.296-0.517,4.201,0.969
		c0.452,0.711,0.452,1.616,0.13,2.262c-0.259,0.711-0.776,1.293-1.487,1.681c-0.064,0.064-0.646,0.323-0.904,0.388
		c-0.453,0.064-0.841,0-1.229-0.065c-0.259-0.064-0.323-0.064-0.582-0.194c-0.129,0.194-0.84-0.646-0.904-0.646
		c-0.065-0.065-0.323-0.453-0.323-0.518c-0.259-0.388-0.259-0.905-0.259-1.292c0,0,0.129,0,0.194-0.129
		c0.064-0.064,0.129-0.258,0.064-0.258C83.896,2.66,83.831,2.79,83.831,2.79L83.831,2.79z"/>
	<path fill-rule="evenodd" clip-rule="evenodd" fill="#00AB66" d="M104.838,7.443c0.193-0.905,1.422-0.582,2.068-0.323
		c0.258,0.064,0.258,0.064,0-0.129c-0.388-0.194-0.582-0.259-1.164-0.388c-0.258-0.065-0.581-0.065-0.84,0.194
		c-0.259,0.194-0.323,0.582-0.388,0.517c0-0.129,0-0.129,0-0.259c0.064-0.129,0.194-0.258,0.388-0.452
		c0.194-0.129,0.518-0.194,0.775-0.194c0.582,0.064,1.164,0.388,1.681,0.711c1.293,0.582,2.263,2.392,1.616,3.942
		c-0.388,0.776-1.099,1.229-1.811,1.358c-0.711,0.129-1.486,0.064-2.197-0.324c-0.064,0-0.129-0.064-0.258-0.064
		c-0.194-0.129-0.323-0.259-0.518-0.452c-0.323-0.259-0.517-0.646-0.646-1.035c-0.064-0.258-0.193-0.258-0.193-0.517
		c-0.194,0,0.064-1.099,0.064-1.164c0-0.064,0.194-0.452,0.259-0.517c0.129-0.453,0.581-0.711,0.904-0.97c0,0,0,0.194,0.13,0.259
		C104.902,7.702,104.838,7.572,104.838,7.443L104.838,7.443z"/>
	<path fill-rule="evenodd" clip-rule="evenodd" fill="#00AB66" d="M119.122,46.095c0.97-0.582,1.422,0.84,1.616,1.81
		c0.064,0.129,0.064,0.194,0.064-0.064c-0.064-0.388-0.129-0.97-0.452-1.487c-0.13-0.259-0.388-0.517-0.711-0.582
		c-0.453-0.129-0.582,0.064-0.646,0c0-0.064,0.452-0.259,0.775-0.129c0.259,0.065,0.518,0.258,0.711,0.452
		c0.259,0.518,0.388,1.099,0.452,1.81c0.389,1.292-0.322,3.167-2.003,3.685c-0.776,0.193-1.616-0.065-2.134-0.518
		c-0.581-0.452-0.969-1.034-1.163-1.875c-0.064-0.064-0.064-0.129-0.064-0.194c-0.064-0.258-0.064-0.452-0.064-0.711
		c0.064-0.452,0.194-0.84,0.388-1.163c0.129-0.194,0.129-0.259,0.323-0.453c-0.13-0.129,0.84-0.646,0.904-0.711c0,0,0.13,0,0.194,0
		c0.064-0.065,0.259-0.129,0.323-0.129c0.452-0.129,1.099-0.064,1.293,0.064C119.122,45.966,118.929,46.16,119.122,46.095
		L119.122,46.095z"/>
	<path fill-rule="evenodd" clip-rule="evenodd" fill="#00AB66" d="M63.924,6.732c-0.517-0.711,0.452-1.422,1.099-1.745
		c0.259-0.129,0.194-0.193-0.064-0.064c-0.388,0.129-0.646,0.258-1.034,0.582c-0.259,0.194-0.453,0.452-0.453,0.775
		s0.259,0.646,0.194,0.646c-0.129-0.065-0.129-0.065-0.194-0.129c-0.064-0.129-0.129-0.323-0.129-0.582
		c0.065-0.259,0.194-0.582,0.388-0.776c0.452-0.388,0.969-0.582,1.616-0.84c1.229-0.582,3.231-0.194,4.072,1.357
		c0.323,0.775,0.193,1.616-0.13,2.197c-0.388,0.647-0.904,1.164-1.681,1.552c-0.064,0-0.129,0.064-0.193,0.064
		c-0.259,0.064-0.452,0.129-0.711,0.129c-0.388,0.065-0.84,0-1.164-0.129c-0.258-0.129-0.322-0.064-0.581-0.258
		c-0.064,0.194-0.776-0.711-0.84-0.711c0-0.065-0.194-0.453-0.259-0.518c-0.194-0.452-0.129-0.905-0.129-1.357
		c0,0,0.194,0.129,0.258,0.064C64.182,6.926,64.053,6.861,63.924,6.732L63.924,6.732z"/>
	<path fill-rule="evenodd" clip-rule="evenodd" fill="#00AB66" d="M108.522,70.398c0-0.388,0.064-0.711,0.193-1.164
		c0.13-0.582,0.323-1.228,0.84-1.81c0.453-0.646,1.811-0.581,2.586-0.129c0.97,0.453,1.552,1.357,1.681,2.133s0,1.487-0.323,2.133
		l-0.13,0.194c-0.129,0.194-0.258,0.323-0.388,0.517c-0.258,0.258-0.581,0.517-0.969,0.646c-0.259,0.129-0.453,0.193-0.518,0.323
		c-0.064,0.259-1.357,0.064-1.745-0.258c-0.064,0-0.194-0.129-0.259-0.194c-0.129,0-0.323-0.129-0.452-0.194
		c-0.517-0.258-0.775-1.292-0.775-1.292s-0.129-0.194,0-0.258c0.129,0,0.064-0.517,0.129-0.582
		C108.393,70.462,108.457,70.462,108.522,70.398L108.522,70.398z"/>
	<path fill-rule="evenodd" clip-rule="evenodd" fill="#00AB66" d="M95.014,87.074c0.193-0.259,0.259-0.388,0.517-0.711
		c0.388-0.517,0.84-1.034,1.552-1.487c0.711-0.517,2.262-0.451,3.037-0.063c0.97,0.388,1.357,1.163,1.293,1.745
		c-0.129,0.646-0.517,1.228-1.099,1.81l-0.194,0.129c-0.193,0.13-0.388,0.259-0.646,0.388c-0.387,0.194-0.775,0.453-1.292,0.518
		c-0.323,0.064-0.388,0.194-0.711,0.258c-0.646,0.065-1.357-0.063-1.616-0.388c-0.064-0.064-0.194,0.194-0.323,0.13
		c-0.064,0-0.129-0.13-0.194-0.13c-0.129-0.064-0.388-0.129-0.452-0.193c-0.517-0.259-0.129-1.681-0.064-1.681L95.014,87.074
		L95.014,87.074z"/>
</g>
</svg>
