<?xml version="1.0" encoding="utf-8"?>
<!-- Generator: Adobe Illustrator 15.0.0, SVG Export Plug-In . SVG Version: 6.00 Build 0)  -->
<!DOCTYPE svg PUBLIC "-//W3C//DTD SVG 1.1//EN" "http://www.w3.org/Graphics/SVG/1.1/DTD/svg11.dtd">
<svg version="1.1" id="Layer_1" xmlns="http://www.w3.org/2000/svg" xmlns:xlink="http://www.w3.org/1999/xlink" x="0px" y="0px"
	 width="187.086px" height="143.425px" viewBox="0 0 187.086 143.425" enable-background="new 0 0 187.086 143.425"
	 xml:space="preserve">
<g>
	<path fill-rule="evenodd" clip-rule="evenodd" d="M175.512,70.979c0-0.773-0.021-1.542-0.057-2.307h11.631
		c-0.036-0.899-0.094-1.792-0.171-2.678H175.26c-0.157-1.561-0.391-3.099-0.691-4.613h11.745c-0.154-0.901-0.329-1.793-0.526-2.679
		h-11.828c-0.406-1.57-0.888-3.108-1.44-4.613h12.036c-0.284-0.904-0.591-1.796-0.918-2.678h-12.198
		c-0.69-1.583-1.462-3.123-2.311-4.613h12.551c-0.436-0.908-0.895-1.801-1.377-2.679h-12.816c-1.057-1.606-2.205-3.146-3.438-4.613
		h13.413c-0.628-0.913-1.271-1.811-1.952-2.678h-13.886c-1.613-1.656-3.344-3.198-5.177-4.613h14.977
		c-0.917-0.926-1.859-1.826-2.842-2.679h-15.97c-2.953-1.859-6.117-3.412-9.451-4.612h19.21c-1.555-0.982-3.166-1.873-4.822-2.85
		h-29.208c-0.586-0.021-2.945-0.021-3.531,0h-0.017c-0.017,0-0.032,0.001-0.049,0.002c-0.439,0.016-0.878,0.039-1.314,0.066h-0.002
		c-25.562,1.623-45.792,22.866-45.792,48.836c0,26.367,20.854,47.861,46.966,48.896c0.099,0.004,0.198,0.008,0.298,0.012
		c0.556,0.02,1.114,0.031,1.675,0.031c0.109,0,30.975,0.012,30.975,0.012c1.655-1.023,3.268-1.914,4.822-2.896h-19.212
		c3.334-1.201,6.499-2.754,9.452-4.613h15.971c0.982-0.852,1.925-1.752,2.842-2.678h-14.978c1.834-1.414,3.563-2.957,5.177-4.611
		h13.885c0.681-0.871,1.326-1.766,1.954-2.68h-13.414c1.233-1.467,2.382-3.008,3.438-4.613h12.817
		c0.482-0.877,0.941-1.77,1.376-2.678h-12.55c0.849-1.49,1.619-3.031,2.311-4.613h12.198c0.327-0.881,0.634-1.775,0.918-2.678
		h-12.037c0.554-1.506,1.035-3.045,1.44-4.613h11.829c0.197-0.887,0.372-1.777,0.526-2.678h-11.745
		c0.301-1.516,0.534-3.053,0.691-4.613h11.655c0.077-0.889,0.135-1.779,0.171-2.68h-11.631
		C175.491,72.522,175.512,71.753,175.512,70.979L175.512,70.979z"/>
	<path fill-rule="evenodd" clip-rule="evenodd" d="M10.1,10.604l2.57,1.031c-0.402,1.831-1.069,3.169-2.004,4.013
		c-0.934,0.845-2.083,1.267-3.447,1.267c-1.715,0-3.106-0.672-4.171-2.02c-1.227-1.555-1.839-3.652-1.839-6.293
		c0-2.789,0.616-4.972,1.849-6.549C4.129,0.685,5.569,0,7.378,0c1.472,0,2.705,0.516,3.697,1.546
		c0.706,0.733,1.224,1.82,1.553,3.262l-2.613,0.773C9.846,4.695,9.513,4.016,9.012,3.543c-0.5-0.473-1.09-0.71-1.769-0.71
		c-0.971,0-1.762,0.431-2.376,1.292c-0.614,0.861-0.92,2.284-0.92,4.266c0,2.057,0.299,3.519,0.897,4.388
		c0.598,0.869,1.376,1.303,2.333,1.303c0.7,0,1.305-0.278,1.817-0.833C9.504,12.693,9.872,11.812,10.1,10.604L10.1,10.604z"/>
	<path fill-rule="evenodd" clip-rule="evenodd" d="M14.874,8.559c0-1.949,0.281-3.554,0.849-4.815
		c0.566-1.261,1.306-2.2,2.218-2.817C18.852,0.31,19.958,0,21.258,0c1.883,0,3.417,0.733,4.604,2.198
		c1.187,1.466,1.78,3.553,1.78,6.26c0,2.738-0.628,4.876-1.884,6.416c-1.102,1.362-2.598,2.042-4.489,2.042
		c-1.906,0-3.409-0.672-4.512-2.02C15.5,13.356,14.874,11.244,14.874,8.559L14.874,8.559L14.874,8.559z M17.612,8.446
		c0,1.879,0.351,3.288,1.052,4.227c0.702,0.939,1.572,1.409,2.61,1.409c1.044,0,1.911-0.465,2.598-1.397
		c0.686-0.932,1.029-2.363,1.029-4.293c0-1.893-0.334-3.292-1.003-4.199c-0.668-0.905-1.543-1.358-2.625-1.358
		c-1.082,0-1.963,0.457-2.642,1.37C17.952,5.117,17.612,6.532,17.612,8.446L17.612,8.446z"/>
	<path fill-rule="evenodd" clip-rule="evenodd" d="M30.255,16.658V0.257h4.282c1.596,0,2.639,0.079,3.129,0.235
		c0.783,0.254,1.429,0.795,1.938,1.624c0.508,0.828,0.763,1.895,0.763,3.2c0,1.187-0.219,2.181-0.659,2.983
		c-0.439,0.802-0.989,1.365-1.647,1.689c-0.658,0.326-1.795,0.487-3.405,0.487H32.91v6.182H30.255L30.255,16.658L30.255,16.658z
		 M32.91,3.048v4.637h1.479c0.992,0,1.665-0.07,2.023-0.211c0.357-0.141,0.649-0.396,0.876-0.764
		c0.228-0.367,0.342-0.82,0.342-1.355c0-0.542-0.117-0.999-0.353-1.37c-0.236-0.372-0.526-0.621-0.871-0.747
		c-0.347-0.126-1.078-0.19-2.195-0.19H32.91L32.91,3.048z"/>
	<path fill-rule="evenodd" clip-rule="evenodd" d="M53.486,16.658h-2.879l-1.128-3.692h-5.283l-1.07,3.692h-2.872l5.053-16.401
		h2.901L53.486,16.658L53.486,16.658L53.486,16.658z M48.625,10.175l-1.86-6.089l-1.762,6.089H48.625L48.625,10.175z"/>
	<path fill-rule="evenodd" clip-rule="evenodd" d="M71.471,16.658h-2.879l-1.128-3.692h-5.283l-1.068,3.692h-2.875l5.054-16.401
		h2.902L71.471,16.658L71.471,16.658L71.471,16.658z M66.61,10.175L64.75,4.086l-1.762,6.089H66.61L66.61,10.175z"/>
	<polygon fill-rule="evenodd" clip-rule="evenodd" points="73.295,16.658 73.295,0.257 77.287,0.278 79.679,11.488 82.042,0.257 
		86.064,0.278 86.064,16.658 83.578,16.658 83.578,3.705 80.951,16.658 78.418,16.658 75.783,3.705 75.783,16.658 73.295,16.658 	
		"/>
	<polygon fill-rule="evenodd" clip-rule="evenodd" points="89.181,16.658 89.181,0.257 98.957,0.257 98.957,3.048 91.837,3.048 
		91.837,6.698 98.494,6.698 98.494,9.446 91.837,9.446 91.837,13.867 99.21,13.867 99.21,16.658 89.181,16.658 	"/>
	<path fill-rule="evenodd" clip-rule="evenodd" d="M101.921,16.658V0.257h5.607c1.434,0,2.458,0.148,3.074,0.443
		c0.613,0.295,1.119,0.807,1.514,1.537c0.396,0.729,0.593,1.601,0.593,2.617c0,1.286-0.307,2.321-0.919,3.106
		c-0.611,0.785-1.481,1.278-2.605,1.479c0.57,0.415,1.041,0.87,1.414,1.362c0.373,0.493,0.879,1.38,1.521,2.662l1.6,3.195h-3.193
		l-1.912-3.564c-0.686-1.289-1.153-2.094-1.399-2.416c-0.244-0.321-0.504-0.542-0.778-0.664c-0.273-0.123-0.714-0.184-1.32-0.184
		h-0.539v6.827H101.921L101.921,16.658L101.921,16.658z M104.577,7.212h1.977c1.207,0,1.976-0.053,2.307-0.163
		c0.33-0.107,0.595-0.326,0.802-0.654c0.205-0.329,0.309-0.766,0.309-1.311c0-0.522-0.104-0.941-0.309-1.259
		c-0.207-0.317-0.483-0.535-0.836-0.655c-0.248-0.081-0.97-0.124-2.162-0.124h-2.087V7.212L104.577,7.212z"/>
	<polygon fill-rule="evenodd" clip-rule="evenodd" points="115.544,16.658 115.544,0.257 118.198,0.257 118.198,16.658 
		115.544,16.658 	"/>
	<path fill-rule="evenodd" clip-rule="evenodd" d="M129.629,10.604l2.572,1.031c-0.401,1.831-1.069,3.169-2.004,4.013
		c-0.934,0.845-2.085,1.267-3.449,1.267c-1.714,0-3.104-0.672-4.169-2.02c-1.226-1.555-1.84-3.652-1.84-6.293
		c0-2.789,0.617-4.972,1.849-6.549C123.66,0.685,125.102,0,126.908,0c1.473,0,2.706,0.516,3.697,1.546
		c0.709,0.733,1.228,1.82,1.554,3.262l-2.614,0.773c-0.167-0.886-0.501-1.565-1.001-2.038c-0.501-0.473-1.09-0.71-1.77-0.71
		c-0.971,0-1.763,0.431-2.377,1.292c-0.613,0.861-0.919,2.284-0.919,4.266c0,2.057,0.298,3.519,0.897,4.388
		c0.597,0.869,1.377,1.303,2.333,1.303c0.701,0,1.305-0.278,1.816-0.833C129.036,12.693,129.403,11.812,129.629,10.604
		L129.629,10.604z"/>
	<path fill-rule="evenodd" clip-rule="evenodd" d="M146.836,16.658h-2.88l-1.127-3.692h-5.284l-1.067,3.692h-2.873l5.054-16.401
		h2.901L146.836,16.658L146.836,16.658L146.836,16.658z M141.976,10.175l-1.859-6.089l-1.765,6.089H141.976L141.976,10.175z"/>
	<path fill-rule="evenodd" clip-rule="evenodd" d="M1.526,126.767h5.282c1.441,0,2.455,0.135,3.041,0.4s1.079,0.738,1.482,1.412
		c0.402,0.672,0.604,1.434,0.604,2.285c0,0.787-0.171,1.494-0.513,2.127c-0.341,0.635-0.783,1.102-1.328,1.404
		c0.773,0.287,1.379,0.773,1.817,1.465c0.437,0.689,0.656,1.529,0.656,2.521c0,1.201-0.282,2.219-0.845,3.047
		c-0.562,0.828-1.227,1.342-1.994,1.535c-0.534,0.137-1.773,0.203-3.718,0.203H1.526V126.767L1.526,126.767L1.526,126.767z
		 M4.181,129.558v3.65h1.765c1.06,0,1.712-0.02,1.963-0.055c0.455-0.072,0.813-0.26,1.07-0.566c0.256-0.303,0.385-0.719,0.385-1.242
		c0-0.467-0.105-0.846-0.315-1.135c-0.208-0.293-0.462-0.473-0.759-0.545c-0.298-0.072-1.153-0.107-2.564-0.107H4.181L4.181,129.558
		L4.181,129.558z M4.181,135.997v4.379h2.472c1.083,0,1.779-0.059,2.087-0.174c0.308-0.115,0.565-0.34,0.774-0.682
		c0.208-0.338,0.313-0.768,0.313-1.287c0-0.537-0.113-0.98-0.336-1.326c-0.224-0.346-0.52-0.586-0.889-0.715
		c-0.371-0.131-1.126-0.195-2.269-0.195H4.181L4.181,135.997z"/>
	<path fill-rule="evenodd" clip-rule="evenodd" d="M14.687,135.065c0-1.947,0.282-3.553,0.849-4.813
		c0.564-1.262,1.304-2.201,2.217-2.818c0.911-0.617,2.018-0.926,3.317-0.926c1.884,0,3.418,0.732,4.605,2.199
		c1.187,1.465,1.779,3.553,1.779,6.26c0,2.736-0.629,4.875-1.883,6.414c-1.103,1.361-2.599,2.043-4.489,2.043
		c-1.906,0-3.409-0.674-4.512-2.02C15.313,139.864,14.687,137.753,14.687,135.065L14.687,135.065L14.687,135.065z M17.425,134.956
		c0,1.879,0.352,3.287,1.051,4.227c0.703,0.939,1.572,1.408,2.611,1.408c1.043,0,1.911-0.467,2.597-1.398
		c0.687-0.93,1.032-2.363,1.032-4.293c0-1.895-0.335-3.291-1.004-4.199c-0.67-0.904-1.543-1.357-2.625-1.357
		c-1.083,0-1.963,0.457-2.643,1.369C17.765,131.626,17.425,133.04,17.425,134.956L17.425,134.956z"/>
	<polygon fill-rule="evenodd" clip-rule="evenodd" points="30.068,143.167 30.068,126.938 32.724,126.938 32.724,140.376 
		39.339,140.376 39.339,143.167 30.068,143.167 	"/>
	<polygon fill-rule="evenodd" clip-rule="evenodd" points="41.65,143.167 41.65,126.767 44.305,126.767 44.305,143.167 
		41.65,143.167 	"/>
	<polygon fill-rule="evenodd" clip-rule="evenodd" points="50.68,143.167 45.96,126.767 48.812,126.767 52.175,138.903 
		55.37,126.767 58.223,126.767 53.556,143.167 50.68,143.167 	"/>
	<polygon fill-rule="evenodd" clip-rule="evenodd" points="59.963,143.167 59.963,126.767 62.619,126.767 62.619,143.167 
		59.963,143.167 	"/>
	<path fill-rule="evenodd" clip-rule="evenodd" d="M77.505,143.167h-2.879l-1.128-3.691h-5.283l-1.068,3.691h-2.873l5.052-16.4
		h2.902L77.505,143.167L77.505,143.167L77.505,143.167z M72.645,136.685l-1.86-6.088l-1.762,6.088H72.645L72.645,136.685z"/>
	<path fill-rule="evenodd" clip-rule="evenodd" d="M91.55,143.167h-2.528v-11.85c-0.936,1.07-2.018,1.859-3.245,2.361v-2.832
		c0.7-0.287,1.424-0.799,2.175-1.535c0.75-0.736,1.272-1.584,1.564-2.545h2.033V143.167L91.55,143.167z"/>
	<path fill-rule="evenodd" clip-rule="evenodd" d="M94.513,139.39l2.486-0.344c0.114,1.201,0.578,1.803,1.394,1.803
		c0.55,0,1.002-0.303,1.352-0.906c0.351-0.607,0.574-1.836,0.677-3.688c-0.316,0.453-0.671,0.797-1.065,1.029
		c-0.396,0.23-0.836,0.346-1.318,0.346c-1.002,0-1.89-0.486-2.662-1.457c-0.771-0.973-1.157-2.26-1.157-3.869
		c0-1.723,0.404-3.072,1.217-4.059c0.812-0.984,1.813-1.479,3.006-1.479c1.33,0,2.427,0.637,3.29,1.908
		c0.862,1.271,1.295,3.379,1.295,6.322c0,2.994-0.449,5.146-1.344,6.457c-0.894,1.314-2.055,1.971-3.48,1.971
		c-0.99,0-1.806-0.33-2.45-0.99S94.694,140.761,94.513,139.39L94.513,139.39L94.513,139.39z M100.201,132.536
		c0-1.014-0.19-1.793-0.57-2.334c-0.38-0.545-0.813-0.816-1.293-0.816c-0.47,0-0.857,0.223-1.168,0.67
		c-0.313,0.449-0.467,1.195-0.467,2.236c0,1.043,0.17,1.809,0.51,2.291c0.34,0.486,0.759,0.727,1.255,0.727
		c0.476,0,0.884-0.23,1.223-0.693C100.031,134.153,100.201,133.462,100.201,132.536L100.201,132.536z"/>
	<path fill-rule="evenodd" clip-rule="evenodd" d="M105.211,139.39l2.487-0.344c0.112,1.201,0.577,1.803,1.392,1.803
		c0.553,0,1.002-0.303,1.353-0.906c0.351-0.607,0.576-1.836,0.676-3.688c-0.314,0.453-0.67,0.797-1.065,1.029
		c-0.396,0.23-0.833,0.346-1.316,0.346c-1.003,0-1.889-0.486-2.661-1.457c-0.773-0.973-1.16-2.26-1.16-3.869
		c0-1.723,0.407-3.072,1.218-4.059c0.813-0.984,1.814-1.479,3.006-1.479c1.331,0,2.429,0.637,3.29,1.908s1.293,3.379,1.293,6.322
		c0,2.994-0.445,5.146-1.342,6.457c-0.895,1.314-2.055,1.971-3.479,1.971c-0.99,0-1.806-0.33-2.45-0.99
		C105.807,141.774,105.393,140.761,105.211,139.39L105.211,139.39L105.211,139.39z M110.899,132.536
		c0-1.014-0.188-1.793-0.569-2.334c-0.381-0.545-0.813-0.816-1.295-0.816c-0.468,0-0.856,0.223-1.168,0.67
		c-0.309,0.449-0.464,1.195-0.464,2.236c0,1.043,0.168,1.809,0.509,2.291c0.34,0.486,0.759,0.727,1.256,0.727
		c0.475,0,0.882-0.23,1.223-0.693C110.729,134.153,110.899,133.462,110.899,132.536L110.899,132.536z"/>
	<path fill-rule="evenodd" clip-rule="evenodd" d="M114.81,129.944v-2.92h8.637v2.277c-0.705,0.871-1.423,2.107-2.146,3.711
		c-0.725,1.605-1.287,3.326-1.683,5.158c-0.397,1.836-0.596,3.5-0.596,4.996h-2.444c0.059-2.32,0.438-4.639,1.141-6.951
		c0.7-2.314,1.647-4.404,2.838-6.271H114.81L114.81,129.944z"/>
	<path fill-rule="evenodd" clip-rule="evenodd" fill="#EE3124" d="M127.427,22.04h-0.854c0.286,0,0.57,0.006,0.854,0.01V22.04
		L127.427,22.04z"/>
	<path fill-rule="evenodd" clip-rule="evenodd" fill="#EE3124" d="M126.572,22.04H0v31.948h80.666
		C87.572,35.335,105.52,22.04,126.572,22.04L126.572,22.04z"/>
	<path fill-rule="evenodd" clip-rule="evenodd" fill="#FFDD00" d="M80.659,54.006H0V87.89h80.634
		c-1.94-5.271-3.001-10.967-3.001-16.91C77.633,65.012,78.703,59.294,80.659,54.006L80.659,54.006z"/>
	<path fill-rule="evenodd" clip-rule="evenodd" fill="#FFDD00" d="M80.666,53.988H0v0.018h80.659
		C80.661,54,80.663,53.994,80.666,53.988L80.666,53.988z"/>
	<path fill-rule="evenodd" clip-rule="evenodd" fill="#00A651" d="M80.731,87.884H0v31.801h126.899v-0.029
		c-0.108,0-0.218,0.004-0.327,0.004C105.585,119.659,87.685,106.446,80.731,87.884L80.731,87.884z"/>
	<polygon fill-rule="evenodd" clip-rule="evenodd" fill="#EE3124" points="112.278,83.185 110.19,60.367 132.271,51.67 
		146.252,72.112 137.617,83.185 112.278,83.185 	"/>
	<path fill-rule="evenodd" clip-rule="evenodd" fill="#EE3124" d="M161.872,104.856c-1.962-4.053-4.178-9.73-4.178-9.73h-12.021
		l-20.192,21.898h17.696C150.333,114.444,156.709,110.237,161.872,104.856L161.872,104.856z"/>
	<path fill-rule="evenodd" clip-rule="evenodd" fill="#EE3124" d="M161.249,72.009l2.515,11.195h10.209
		c1.005-3.906,1.539-8.004,1.539-12.225c0-4.231-0.537-8.336-1.546-12.252h-8.137L161.249,72.009L161.249,72.009z"/>
	<path fill-rule="evenodd" clip-rule="evenodd" fill="#EE3124" d="M158.295,39.414l1.486-4.37
		c-8.726-8.067-20.389-13.003-33.209-13.003c-0.654,0-1.302,0.024-1.948,0.049l15.518,17.325H158.295L158.295,39.414z"/>
	<path fill-rule="evenodd" clip-rule="evenodd" fill="#EE3124" d="M101.554,44.167l8.068-19.016
		c-14.486,4.524-23.731,14.704-28.964,28.862h9.341L101.554,44.167L101.554,44.167z"/>
	<path fill-rule="evenodd" clip-rule="evenodd" fill="#EE3124" d="M90.275,87.894h-9.638c3.225,8.756,8.889,16.33,16.16,21.914h9.28
		L90.275,87.894L90.275,87.894z"/>
	<path fill-rule="evenodd" clip-rule="evenodd" fill="#034EA2" d="M142.928,24.85h-32.71c-3.408,1.208-6.637,2.784-9.649,4.678
		h52.009C149.563,27.634,146.334,26.058,142.928,24.85L142.928,24.85z"/>
	<path fill-rule="evenodd" clip-rule="evenodd" fill="#034EA2" d="M91.541,36.821h70.063c-1.64-1.681-3.398-3.245-5.265-4.676
		H96.806C94.939,33.577,93.18,35.141,91.541,36.821L91.541,36.821z"/>
	<path fill-rule="evenodd" clip-rule="evenodd" fill="#034EA2" d="M85.671,44.116h81.803c-1.072-1.629-2.238-3.191-3.492-4.677
		H89.164C87.91,40.925,86.744,42.486,85.671,44.116L85.671,44.116z"/>
	<path fill-rule="evenodd" clip-rule="evenodd" fill="#034EA2" d="M81.713,51.411h89.718c-0.702-1.607-1.49-3.166-2.354-4.677
		h-85.01C83.203,48.245,82.416,49.804,81.713,51.411L81.713,51.411z"/>
	<path fill-rule="evenodd" clip-rule="evenodd" fill="#034EA2" d="M79.186,58.705h94.773c-0.411-1.592-0.903-3.152-1.466-4.677
		H80.652C80.089,55.553,79.598,57.113,79.186,58.705L79.186,58.705z"/>
	<path fill-rule="evenodd" clip-rule="evenodd" fill="#034EA2" d="M77.884,66h97.378c-0.16-1.583-0.399-3.143-0.706-4.678H78.591
		C78.283,62.857,78.044,64.416,77.884,66L77.884,66z"/>
	<path fill-rule="evenodd" clip-rule="evenodd" fill="#034EA2" d="M77.633,70.979c0,0.775,0.022,1.547,0.058,2.314h97.762
		c0.037-0.768,0.059-1.539,0.059-2.314c0-0.792-0.021-1.58-0.06-2.363h-97.76C77.655,69.4,77.633,70.187,77.633,70.979
		L77.633,70.979z"/>
	<path fill-rule="evenodd" clip-rule="evenodd" fill="#034EA2" d="M78.583,80.589h95.981c0.306-1.535,0.543-3.094,0.701-4.678H77.88
		C78.039,77.495,78.276,79.054,78.583,80.589L78.583,80.589z"/>
	<path fill-rule="evenodd" clip-rule="evenodd" fill="#034EA2" d="M80.632,87.882h91.88c0.562-1.523,1.051-3.086,1.46-4.678h-94.8
		C79.582,84.796,80.072,86.358,80.632,87.882L80.632,87.882z"/>
	<path fill-rule="evenodd" clip-rule="evenodd" fill="#034EA2" d="M84.04,95.175h85.067c0.861-1.51,1.647-3.068,2.348-4.676H81.692
		C82.391,92.106,83.178,93.665,84.04,95.175L84.04,95.175z"/>
	<path fill-rule="evenodd" clip-rule="evenodd" fill="#034EA2" d="M89.122,102.472h74.902c1.25-1.486,2.412-3.049,3.479-4.678
		H85.639C86.709,99.423,87.871,100.985,89.122,102.472L89.122,102.472z"/>
	<path fill-rule="evenodd" clip-rule="evenodd" fill="#034EA2" d="M96.743,109.765h59.659c1.86-1.432,3.614-2.994,5.25-4.676H91.494
		C93.128,106.771,94.882,108.333,96.743,109.765L96.743,109.765z"/>
	<path fill-rule="evenodd" clip-rule="evenodd" fill="#034EA2" d="M110.07,117.06h33.005c3.381-1.211,6.588-2.789,9.578-4.676
		H100.49C103.482,114.271,106.688,115.849,110.07,117.06L110.07,117.06z"/>
</g>
</svg>
