<?xml version="1.0" encoding="utf-8"?>
<!-- Generator: Adobe Illustrator 15.0.0, SVG Export Plug-In . SVG Version: 6.00 Build 0)  -->
<!DOCTYPE svg PUBLIC "-//W3C//DTD SVG 1.1//EN" "http://www.w3.org/Graphics/SVG/1.1/DTD/svg11.dtd">
<svg version="1.1" id="Layer_1" xmlns="http://www.w3.org/2000/svg" xmlns:xlink="http://www.w3.org/1999/xlink" x="0px" y="0px"
	 width="187.086px" height="121.073px" viewBox="0 0 187.086 121.073" enable-background="new 0 0 187.086 121.073"
	 xml:space="preserve">
<g>
	<polygon fill-rule="evenodd" clip-rule="evenodd" fill="#FFFFFF" points="11.96,76.517 22.485,44.318 38.033,44.318 38.033,76.517 
		11.96,76.517 	"/>
	<polygon fill-rule="evenodd" clip-rule="evenodd" fill="#EE3124" points="135.056,44.318 22.485,44.318 32.382,12.567 
		144.952,12.567 135.056,44.318 	"/>
	<polygon fill-rule="evenodd" clip-rule="evenodd" fill="#0066A6" points="138.009,108.267 2.063,108.267 11.96,76.517 
		147.905,76.517 138.009,108.267 	"/>
	<path fill-rule="evenodd" clip-rule="evenodd" fill="#0066A6" d="M2.307,111.589h5.479c2.028,0,3.344,0.934,3.344,2.984
		c0,1.867-1.873,3.479-4.783,3.479H4.055l-0.696,2.801H0L2.307,111.589L2.307,111.589z M4.613,115.845h1.299
		c1.362,0,1.812-0.428,1.812-1.051c0-0.713-0.759-0.83-1.471-0.83H5.092L4.613,115.845L4.613,115.845z"/>
	<path fill-rule="evenodd" clip-rule="evenodd" fill="#0066A6" d="M18.035,111.589h3.343l1.719,9.264h-3.344l-0.187-1.322h-3.605
		l-0.852,1.322h-3.468L18.035,111.589L18.035,111.589z M17.2,117.544h2.119l-0.371-2.775h-0.031L17.2,117.544L17.2,117.544z"/>
	<path fill-rule="evenodd" clip-rule="evenodd" fill="#0066A6" d="M28.806,111.589h5.603c2.043,0,3.606,0.467,3.606,2.426
		c0,1.35-0.991,2.336-2.584,2.557v0.025c1.006,0.234,1.146,1.025,1.146,1.895s-0.124,1.816,0.155,2.361h-3.25
		c-0.124-0.232-0.14-0.492-0.14-0.908c0-0.439,0.17-1.012,0.17-1.479c0-0.48-0.433-0.844-1.377-0.844h-1.471l-0.804,3.23h-3.344
		L28.806,111.589L28.806,111.589z M31.158,115.638h1.796c1.13,0,1.656-0.48,1.656-1.037c0-0.365-0.264-0.807-1.146-0.807h-1.842
		L31.158,115.638L31.158,115.638z"/>
	<path fill-rule="evenodd" clip-rule="evenodd" fill="#0066A6" d="M45.75,111.589h3.343l1.719,9.264h-3.344l-0.186-1.322h-3.606
		l-0.852,1.322h-3.467L45.75,111.589L45.75,111.589z M44.914,117.544h2.121l-0.372-2.775h-0.03L44.914,117.544L44.914,117.544z"/>
	<path fill-rule="evenodd" clip-rule="evenodd" fill="#0066A6" d="M61.48,119.958l-0.031-0.025
		c-0.712,0.805-1.812,1.141-2.988,1.141c-3.87,0-4.489-2.75-4.489-3.906c0-2.904,1.98-5.799,6.315-5.799
		c2.477,0,4.55,1.051,4.581,3.465H61.65c-0.093-0.855-0.696-1.154-1.563-1.154c-1.873,0-2.709,1.674-2.709,3.27
		c0,1.09,0.557,1.816,1.935,1.816c0.913,0,1.688-0.273,2.028-1.025h-1.548l0.496-1.986h4.519l-1.269,5.1h-2.152L61.48,119.958
		L61.48,119.958z"/>
	<path fill-rule="evenodd" clip-rule="evenodd" fill="#0066A6" d="M78.24,117.714c-0.588,2.336-2.631,3.359-5.417,3.359
		c-3.313,0-4.69-1.348-4.69-2.828c0-0.182,0.078-0.545,0.125-0.752l1.47-5.904h3.405l-1.253,5.061
		c-0.078,0.285-0.17,0.752-0.17,0.895c0,0.285-0.093,1.221,1.285,1.221c1.408,0,1.842-1.064,2.089-2.09l1.269-5.086h3.406
		L78.24,117.714L78.24,117.714z"/>
	<path fill-rule="evenodd" clip-rule="evenodd" fill="#0066A6" d="M86.235,111.589h3.343l1.718,9.264h-3.343l-0.186-1.322H84.16
		l-0.851,1.322h-3.467L86.235,111.589L86.235,111.589z M85.399,117.544h2.122l-0.372-2.775h-0.031L85.399,117.544L85.399,117.544z"
		/>
	<polygon fill-rule="evenodd" clip-rule="evenodd" fill="#0066A6" points="96.531,117.454 94.163,111.589 97.584,111.589 
		98.637,115.04 101.33,111.589 105.323,111.589 99.937,117.429 99.102,120.853 95.696,120.853 96.531,117.454 	"/>
	<polygon fill-rule="evenodd" clip-rule="evenodd" fill="#0066A6" points="104.442,116.325 109.318,116.325 108.822,118.452 
		103.946,118.452 104.442,116.325 	"/>
	<path fill-rule="evenodd" clip-rule="evenodd" fill="#0066A6" d="M115.165,118.479c0.031,0.156,0.093,0.324,0.34,0.479
		c0.172,0.105,0.402,0.131,0.82,0.131c1.316,0,2.013-1.076,2.275-2.012h-0.03c-0.387,0.506-1.471,0.883-2.461,0.883
		c-1.843,0-3.143-1.09-3.143-2.621c0-2.232,2.121-3.619,4.644-3.619c2.445,0,4.133,1.297,4.133,3.826c0,2.025-1.3,5.412-5.464,5.412
		c-1.95,0-3.932-0.584-4.024-2.479H115.165L115.165,118.479z M118.88,114.962c0-0.791-0.511-1.193-1.439-1.193
		c-1.146,0-1.61,0.688-1.61,1.338c0,0.285,0.171,1.127,1.424,1.127C118.523,116.233,118.88,115.339,118.88,114.962L118.88,114.962z"
		/>
	<path fill-rule="evenodd" clip-rule="evenodd" fill="#0066A6" d="M126.012,118.479c0.031,0.156,0.093,0.324,0.341,0.479
		c0.17,0.105,0.401,0.131,0.819,0.131c1.316,0,2.014-1.076,2.276-2.012h-0.031c-0.387,0.506-1.47,0.883-2.461,0.883
		c-1.842,0-3.143-1.09-3.143-2.621c0-2.232,2.121-3.619,4.644-3.619c2.446,0,4.133,1.297,4.133,3.826c0,2.025-1.3,5.412-5.463,5.412
		c-1.951,0-3.932-0.584-4.024-2.479H126.012L126.012,118.479z M129.727,114.962c0-0.791-0.511-1.193-1.439-1.193
		c-1.146,0-1.609,0.688-1.609,1.338c0,0.285,0.171,1.127,1.424,1.127C129.371,116.233,129.727,115.339,129.727,114.962
		L129.727,114.962z"/>
	<path fill-rule="evenodd" clip-rule="evenodd" fill="#0066A6" d="M44.797,5.969c-0.201,0.946-1.068,3.737-5.665,3.737
		c-3.204,0-4.751-1.739-4.751-4.217C34.38,2.492,36.608,0,40.369,0c2.461,0,4.66,0.895,4.722,3.672H41.87
		c0.032-0.869-0.463-1.362-1.516-1.362c-1.889,0-2.569,1.817-2.569,3.127c0,0.766,0.217,1.959,1.78,1.959
		c1.067,0,1.672-0.609,1.888-1.427H44.797L44.797,5.969z"/>
	<path fill-rule="evenodd" clip-rule="evenodd" fill="#0066A6" d="M52.333,0c3.127,0,5.031,1.233,5.031,4.061
		c0,3.114-2.446,5.645-6.207,5.645c-3.127,0-5.031-1.388-5.031-4.062C46.126,2.53,48.572,0,52.333,0L52.333,0z M51.25,7.396
		c2.043,0,2.708-2.024,2.708-3.399c0-0.843-0.387-1.687-1.719-1.687c-2.042,0-2.708,2.024-2.708,3.4
		C49.531,6.552,49.918,7.396,51.25,7.396L51.25,7.396z"/>
	<path fill-rule="evenodd" clip-rule="evenodd" fill="#0066A6" d="M60.011,0.221h5.479c2.028,0,3.343,0.934,3.343,2.984
		c0,1.869-1.873,3.478-4.783,3.478H61.76l-0.697,2.803h-3.359L60.011,0.221L60.011,0.221z M62.317,4.477h1.299
		c1.362,0,1.811-0.428,1.811-1.051c0-0.714-0.758-0.83-1.47-0.83h-1.161L62.317,4.477L62.317,4.477z"/>
	<path fill-rule="evenodd" clip-rule="evenodd" fill="#0066A6" d="M73.956,0.221h3.343l1.718,9.264h-3.344l-0.186-1.323h-3.606
		l-0.851,1.323h-3.468L73.956,0.221L73.956,0.221z M73.12,6.176h2.121L74.869,3.4h-0.031L73.12,6.176L73.12,6.176z"/>
	<path fill-rule="evenodd" clip-rule="evenodd" fill="#0066A6" d="M90.303,0.221h3.343l1.717,9.264H92.02l-0.186-1.323h-3.607
		l-0.851,1.323h-3.467L90.303,0.221L90.303,0.221z M89.466,6.176h2.121L91.215,3.4h-0.03L89.466,6.176L89.466,6.176z"/>
	<polygon fill-rule="evenodd" clip-rule="evenodd" fill="#0066A6" points="98.429,0.221 103.18,0.221 103.32,5.203 103.352,5.203 
		106.369,0.221 111.213,0.221 108.86,9.485 105.703,9.485 107.406,3.101 107.375,3.101 103.753,9.485 101.23,9.485 100.828,3.101 
		100.796,3.101 99.279,9.485 96.122,9.485 98.429,0.221 	"/>
	<polygon fill-rule="evenodd" clip-rule="evenodd" fill="#0066A6" points="113.039,0.221 122.173,0.221 121.599,2.595 
		115.872,2.595 115.578,3.75 120.888,3.75 120.345,5.956 115.021,5.956 114.727,7.111 120.578,7.111 119.989,9.485 110.733,9.485 
		113.039,0.221 	"/>
	<path fill-rule="evenodd" clip-rule="evenodd" fill="#0066A6" d="M123.921,0.221h5.604c2.043,0,3.605,0.467,3.605,2.426
		c0,1.35-0.99,2.335-2.586,2.556v0.026c1.008,0.233,1.146,1.025,1.146,1.895c0,0.869-0.123,1.816,0.154,2.361h-3.25
		c-0.124-0.233-0.14-0.493-0.14-0.908c0-0.441,0.171-1.013,0.171-1.479c0-0.48-0.434-0.844-1.378-0.844h-1.471l-0.804,3.231h-3.345
		L123.921,0.221L123.921,0.221z M126.273,4.269h1.795c1.13,0,1.657-0.48,1.657-1.038c0-0.363-0.264-0.804-1.146-0.804h-1.841
		L126.273,4.269L126.273,4.269z"/>
	<polygon fill-rule="evenodd" clip-rule="evenodd" fill="#0066A6" points="135.391,0.221 138.797,0.221 136.505,9.485 
		133.101,9.485 135.391,0.221 	"/>
	<path fill-rule="evenodd" clip-rule="evenodd" fill="#0066A6" d="M149.411,5.969c-0.2,0.946-1.067,3.737-5.665,3.737
		c-3.203,0-4.752-1.739-4.752-4.217c0-2.997,2.229-5.489,5.99-5.489c2.461,0,4.659,0.895,4.722,3.672h-3.221
		c0.032-0.869-0.463-1.362-1.516-1.362c-1.888,0-2.57,1.817-2.57,3.127c0,0.766,0.217,1.959,1.78,1.959
		c1.068,0,1.673-0.609,1.888-1.427H149.411L149.411,5.969z"/>
	<path fill-rule="evenodd" clip-rule="evenodd" fill="#0066A6" d="M155.354,0.221h3.344l1.718,9.264h-3.344l-0.186-1.323h-3.606
		l-0.851,1.323h-3.469L155.354,0.221L155.354,0.221z M154.518,6.176h2.121L156.267,3.4h-0.03L154.518,6.176L154.518,6.176z"/>
	<path fill-rule="evenodd" clip-rule="evenodd" fill="#0066A6" d="M124.232,60.937c0,26.715-21.655,48.371-48.37,48.371
		S27.492,87.651,27.492,60.937s21.656-48.371,48.371-48.371S124.232,34.222,124.232,60.937L124.232,60.937z"/>
	<path fill-rule="evenodd" clip-rule="evenodd" fill="#FFFFFF" d="M26.596,60.937c0,27.166,22.101,49.266,49.267,49.266
		c27.166,0,49.266-22.1,49.266-49.266S103.028,11.67,75.863,11.67C48.697,11.67,26.596,33.771,26.596,60.937L26.596,60.937z
		 M28.389,60.937c0-26.178,21.296-47.475,47.474-47.475c26.177,0,47.473,21.297,47.473,47.475s-21.296,47.475-47.473,47.475
		C49.685,108.411,28.389,87.114,28.389,60.937L28.389,60.937z"/>
	<path fill="#FFFFFF" d="M123.989,62.263c0.006-0.207,0.011-0.414,0.014-0.619c0.004-0.236,0.006-0.473,0.006-0.707
		c0-8.311-2.104-16.127-5.81-22.947c-3.809-7.009-9.308-12.967-15.948-17.327c-1.509,2.306-4.992,4.308-9.725,5.73
		c-4.738,1.424-10.741,2.275-17.271,2.275c-6.252,0-12.023-0.781-16.662-2.098c-4.659-1.323-8.188-3.191-9.936-5.36
		c-6.413,4.4-11.707,10.31-15.367,17.217c-3.559,6.716-5.575,14.377-5.575,22.509c0,0.289,0.004,0.58,0.01,0.871
		c0.005,0.256,0.014,0.516,0.022,0.777c3.087,2.867,9.475,5.348,17.955,7.105c8.361,1.734,18.746,2.762,30.002,2.762
		c11.476,0,22.048-1.068,30.492-2.865C114.747,67.769,121.104,65.21,123.989,62.263L123.989,62.263z M124.211,62.356l0.161,0.154
		c-2.92,3.037-9.387,5.664-18.082,7.514c-8.476,1.805-19.08,2.875-30.585,2.875c-11.282,0-21.699-1.031-30.091-2.771
		c-8.623-1.787-15.119-4.33-18.239-7.279l-0.071-0.156c-0.01-0.287-0.019-0.578-0.025-0.875c-0.006-0.291-0.01-0.586-0.01-0.881
		c0-8.207,2.035-15.938,5.627-22.718c3.729-7.036,9.134-13.047,15.683-17.498l0.176-0.12l0.129,0.169
		c1.641,2.163,5.146,4.039,9.832,5.369c4.6,1.306,10.328,2.081,16.542,2.081c6.487,0,12.445-0.844,17.143-2.256
		c4.761-1.431,8.216-3.438,9.592-5.728l0.119-0.199l0.194,0.126c6.788,4.411,12.406,10.471,16.286,17.612
		c3.741,6.886,5.866,14.775,5.866,23.161c0,0.24-0.003,0.479-0.006,0.715c-0.004,0.24-0.01,0.479-0.016,0.711L124.211,62.356
		L124.211,62.356z"/>
	<path fill="#FFFFFF" d="M33.673,37.989c0,2.916,4.666,5.586,12.208,7.545c7.628,1.981,18.171,3.207,29.823,3.207
		c11.651,0,22.194-1.226,29.821-3.207c7.543-1.959,12.208-4.629,12.208-7.545h0.448c0,3.146-4.794,5.964-12.544,7.978
		c-7.665,1.991-18.249,3.223-29.933,3.223c-11.685,0-22.269-1.231-29.935-3.223c-7.751-2.013-12.545-4.832-12.545-7.978H33.673
		L33.673,37.989z"/>
	<path fill="#FFFFFF" d="M75.256,28.22c6.487,0,12.445-0.844,17.143-2.256c4.634-1.393,8.031-3.331,9.477-5.545
		c-3.783-2.435-7.931-4.354-12.342-5.659c-4.332-1.281-8.92-1.969-13.671-1.969c-4.925,0-9.677,0.739-14.149,2.113
		c-4.551,1.397-8.815,3.452-12.684,6.054c1.697,2.084,5.135,3.891,9.685,5.182C63.314,27.445,69.042,28.22,75.256,28.22
		L75.256,28.22z M75.256,28.667c-6.252,0-12.023-0.781-16.662-2.098c-4.779-1.357-8.369-3.288-10.068-5.528l-0.143-0.188
		l0.195-0.132c3.955-2.688,8.329-4.81,13.004-6.245c4.517-1.387,9.312-2.134,14.281-2.134c4.792,0,9.423,0.695,13.797,1.989
		c4.525,1.338,8.775,3.318,12.645,5.833l0.181,0.118l-0.11,0.185c-1.437,2.389-4.981,4.464-9.849,5.927
		C87.789,27.816,81.786,28.667,75.256,28.667L75.256,28.667z"/>
	<path fill="#FFFFFF" d="M75.705,72.899c-11.282,0-21.699-1.031-30.091-2.771c-8.271-1.715-14.585-4.125-17.84-6.922
		c0.206,4.449,1.016,8.74,2.349,12.791c1.42,4.316,3.435,8.365,5.947,12.045c5.313,1.146,11.515,2.064,18.331,2.691
		c6.6,0.605,13.784,0.938,21.305,0.938c7.61,0,14.876-0.34,21.541-0.961c6.882-0.639,13.133-1.578,18.467-2.75
		c2.526-3.717,4.546-7.805,5.959-12.166c1.323-4.082,2.115-8.404,2.296-12.887c-3.087,2.869-9.363,5.35-17.678,7.117
		C97.814,71.829,87.21,72.899,75.705,72.899L75.705,72.899z M75.705,72.452c11.476,0,22.048-1.068,30.492-2.865
		c8.611-1.832,14.997-4.414,17.854-7.385l0.386,0.16c-0.137,4.721-0.947,9.275-2.338,13.568c-1.437,4.432-3.492,8.584-6.065,12.355
		l-0.137,0.094c-5.362,1.182-11.662,2.129-18.609,2.775c-6.689,0.623-13.969,0.965-21.581,0.965c-7.522,0-14.721-0.334-21.346-0.943
		c-6.878-0.631-13.129-1.559-18.472-2.715l-0.137-0.094c-2.56-3.734-4.61-7.846-6.054-12.232c-1.399-4.254-2.227-8.764-2.393-13.443
		l0.377-0.17c3.061,2.895,9.48,5.396,18.022,7.168C54.063,71.425,64.449,72.452,75.705,72.452L75.705,72.452z"/>
	<path fill="#FFFFFF" d="M36.441,88.579c4.383,6.24,10.208,11.393,16.992,14.971c6.697,3.533,14.33,5.533,22.43,5.533
		c8.118,0,15.766-2.01,22.474-5.557c6.793-3.594,12.624-8.766,17.004-15.027c-5.24,1.127-11.346,2.031-18.055,2.656
		c-6.689,0.623-13.969,0.965-21.581,0.965c-7.522,0-14.721-0.334-21.346-0.943C47.717,90.567,41.66,89.681,36.441,88.579
		L36.441,88.579z M35.935,88.243l0.047-0.219c5.332,1.154,11.564,2.078,18.418,2.709c6.6,0.605,13.784,0.938,21.305,0.938
		c7.61,0,14.876-0.34,21.541-0.961c6.919-0.643,13.2-1.59,18.554-2.768l0.232,0.344c-4.455,6.531-10.461,11.92-17.487,15.637
		c-6.771,3.58-14.49,5.607-22.682,5.607c-8.174,0-15.877-2.02-22.638-5.586c-7.015-3.699-13.016-9.068-17.475-15.576L35.935,88.243
		L35.935,88.243z"/>
	<path fill="#FFFFFF" d="M65.546,20.124c-9.106,2.463-17.023,8.225-22.628,16.06c-5.49,7.673-8.762,17.334-8.762,27.832
		c0,9.654,2.767,18.6,7.48,25.943c4.845,7.547,11.746,13.402,19.813,16.59l-0.165,0.418c-8.155-3.225-15.13-9.141-20.025-16.766
		c-4.758-7.414-7.551-16.443-7.551-26.186c0-10.593,3.303-20.344,8.845-28.091c5.665-7.918,13.669-13.742,22.877-16.232
		L65.546,20.124L65.546,20.124z"/>
	<polygon fill="#FFFFFF" points="61.337,106.534 61.802,106.474 61.861,106.915 61.397,106.978 61.337,106.534 	"/>
	<path fill="#FFFFFF" d="M61.64,106.812c-3.213-5.297-5.781-11.412-7.527-18.096c-1.682-6.438-2.601-13.4-2.601-20.668
		c0-9.474,1.563-18.432,4.34-26.379c2.886-8.259,7.086-15.427,12.211-20.953l0.327,0.305c-5.083,5.481-9.25,12.596-12.117,20.795
		c-2.761,7.899-4.313,16.807-4.313,26.232c0,7.232,0.914,14.156,2.585,20.555c1.734,6.639,4.285,12.713,7.479,17.975L61.64,106.812
		L61.64,106.812z"/>
	<polygon fill="#FFFFFF" points="61.861,106.915 61.397,106.978 61.337,106.534 61.802,106.474 61.861,106.915 	"/>
	<path fill="#FFFFFF" d="M61.45,106.548c0.148,0.059,0.254,0.102,0.327,0.129c0.017,0.006,0.034,0.014,0.051,0.02l0.195-0.119
		c0.1,0.166,0.111,0.184,0.126,0.209v-0.002c0.028,0.045-0.055-0.09,0.067,0.109l-0.268,0.326c-0.118-0.045-0.229-0.086-0.333-0.127
		c-0.146-0.055-0.261-0.1-0.331-0.127L61.45,106.548L61.45,106.548z"/>
	<path fill="#FFFFFF" d="M86.294,19.691c9.208,2.49,17.212,8.314,22.876,16.232c5.542,7.747,8.846,17.498,8.846,28.091
		c0,9.742-2.793,18.771-7.552,26.186c-4.895,7.625-11.87,13.541-20.024,16.766l-0.165-0.418c8.067-3.188,14.969-9.043,19.813-16.59
		c4.713-7.342,7.479-16.289,7.479-25.943c0-10.498-3.271-20.159-8.761-27.832c-5.605-7.834-13.522-13.597-22.629-16.06
		L86.294,19.691L86.294,19.691z"/>
	<polygon fill="#FFFFFF" points="90.328,106.978 89.864,106.915 89.924,106.474 90.388,106.534 90.328,106.978 	"/>
	<path fill="#FFFFFF" d="M89.702,106.577c3.194-5.264,5.745-11.336,7.479-17.975c1.671-6.398,2.585-13.322,2.585-20.555
		c0-9.426-1.553-18.333-4.314-26.232c-2.866-8.2-7.033-15.314-12.116-20.795l0.327-0.305c5.125,5.526,9.325,12.694,12.211,20.953
		c2.778,7.948,4.341,16.905,4.341,26.379c0,7.268-0.919,14.23-2.602,20.668c-1.746,6.684-4.313,12.799-7.527,18.096L89.702,106.577
		L89.702,106.577z"/>
	<polygon fill="#FFFFFF" points="89.924,106.474 90.388,106.534 90.328,106.978 89.864,106.915 89.924,106.474 	"/>
	<path fill="#FFFFFF" d="M90.44,106.966c-0.071,0.027-0.184,0.07-0.331,0.127l-0.001,0.002c-0.07,0.027-0.181,0.068-0.332,0.125
		l-0.268-0.326c0.043-0.07,0.061-0.1,0.067-0.109v0.002c0.016-0.025,0.026-0.043,0.126-0.209l0.195,0.119
		c0.017-0.006,0.034-0.014,0.052-0.02h-0.001c0.072-0.027,0.18-0.07,0.327-0.129L90.44,106.966L90.44,106.966z M89.576,106.784
		C89.58,106.778,89.578,106.78,89.576,106.784L89.576,106.784L89.576,106.784z M89.576,106.784
		C89.571,106.792,89.564,106.802,89.576,106.784L89.576,106.784L89.576,106.784z"/>
	<polygon fill="#FFFFFF" points="76.086,21.573 76.086,109.579 75.638,109.579 75.638,21.573 76.086,21.573 	"/>
	<path fill="#FFFFFF" d="M88.428,17.237c0,1.334-1.438,2.52-3.763,3.358c-2.255,0.813-5.368,1.317-8.802,1.317
		s-6.546-0.503-8.802-1.317c-2.325-0.838-3.763-2.024-3.763-3.358c0-1.333,1.438-2.52,3.764-3.358
		c2.255-0.813,5.368-1.317,8.802-1.317s6.546,0.503,8.802,1.317C86.99,14.718,88.428,15.904,88.428,17.237L88.428,17.237z
		 M87.98,17.237c0-1.124-1.325-2.164-3.466-2.936c-2.211-0.797-5.27-1.291-8.651-1.291s-6.44,0.493-8.651,1.291
		c-2.141,0.772-3.466,1.812-3.466,2.936c0,1.125,1.324,2.165,3.465,2.937c2.211,0.797,5.27,1.291,8.652,1.291
		s6.44-0.493,8.651-1.291C86.655,19.401,87.98,18.362,87.98,17.237L87.98,17.237z"/>
	<path fill-rule="evenodd" clip-rule="evenodd" fill="#EE3124" d="M60.197,17.04c0,0-8.216,3.137-11.353,6.274l2.091,1.643
		l1.494,0.448l-1.195,6.125l-3.437,5.228L47.35,43.48l1.494,3.884l-0.15,2.091l4.033,3.287l0.598,3.436l3.435,3.137l4.93,0.597
		l4.183,3.585l1.643,2.689l-0.747,4.033l-2.689,3.436l-1.045,3.734l1.942,3.734l2.987,4.184l2.241,2.838l-1.045,2.838l-1.045,1.494
		v3.734l-1.792,1.643l-0.299,2.391l-0.299,2.092l0.747,2.688l0.896,1.195l1.644,0.449l0.747-1.943l1.494-3.137l2.091-1.941
		l1.344,0.598l1.494-0.746l1.045-0.299l0.448-1.645l2.39-0.299l3.287-2.092l5.079-3.734l4.033-1.045l-0.149-1.494l3.436-4.033
		v-6.125l-3.735-3.734L88.429,74.7l0.299-2.838l-0.598-1.344l-2.838-1.195l-1.494-0.299l-3.884-3.885l-4.481-0.746l-5.377-0.148
		l-1.195-3.734l-2.689-2.541l0.747-4.183h-2.39l-1.494,0.896l-0.598,1.792l-1.792-0.149l-0.896-4.034l1.345-3.286l6.871,0.149
		l1.494,3.287l2.54,0.149l0.298-5.826l1.942-0.149l1.467,2.348l-0.271-5.037l1.344-2.54l2.241-2.689l4.481-0.597l-2.688-4.333
		l3.436,0.299l0.298-3.437l-2.838-1.344l-0.449-1.793h-4.182l-0.896-1.942l-1.644,0.149l-0.896,1.942l0.597,1.942l-0.747,0.598
		l-1.195,2.091l-1.344-2.838l-1.644-1.793l0.748-1.942h2.39l-0.149-3.734l-3.436-0.896l-1.046,1.494l-4.182-1.793l0.597-1.792
		l-2.838,0.598L60.197,17.04L60.197,17.04z"/>
	<path fill-rule="evenodd" clip-rule="evenodd" fill="#FFFFFF" d="M186.19,60.937c0,26.715-21.656,48.371-48.37,48.371
		c-26.716,0-48.371-21.656-48.371-48.371s21.655-48.371,48.371-48.371C164.534,12.566,186.19,34.222,186.19,60.937L186.19,60.937z"
		/>
	<path fill="#ED1C24" d="M187.086,60.937c0,13.604-5.514,25.922-14.43,34.836c-8.915,8.916-21.232,14.43-34.836,14.43
		c-13.605,0-25.923-5.514-34.838-14.43c-8.915-8.914-14.43-21.232-14.43-34.836c0-13.605,5.515-25.922,14.43-34.837
		c8.915-8.915,21.232-14.43,34.838-14.43c13.604,0,25.921,5.515,34.836,14.43C181.572,35.015,187.086,47.332,187.086,60.937
		L187.086,60.937z M185.294,60.937c0-13.11-5.314-24.979-13.905-33.57c-8.591-8.591-20.459-13.905-33.568-13.905
		c-13.11,0-24.979,5.313-33.57,13.905c-8.591,8.591-13.905,20.459-13.905,33.57c0,13.109,5.314,24.979,13.905,33.57
		c8.591,8.59,20.46,13.904,33.57,13.904c13.109,0,24.978-5.314,33.568-13.906C179.979,85.915,185.294,74.046,185.294,60.937
		L185.294,60.937z"/>
	<polygon fill="#0066A6" points="154.346,16.331 139.652,19.71 139.138,19.675 126.231,14.812 126.862,13.138 139.516,17.906 
		153.946,14.587 154.346,16.331 	"/>
	<path fill="#0066A6" d="M139.147,27.47l0.486,0.358l19.77,14.566l0.528,0.389l-0.21,0.619l-7.283,21.502l-0.219,0.645l-0.674-0.035
		l-26.358-1.387l-0.641-0.035l-0.175-0.621l-6.243-22.195l-0.182-0.647l0.57-0.354l20.115-12.485L139.147,27.47L139.147,27.47z
		 M139.063,29.629L120.033,41.44l5.887,20.928l25.043,1.318l6.854-20.239L139.063,29.629L139.063,29.629z"/>
	<polygon fill="#0066A6" points="140.35,18.838 140.35,28.549 138.557,28.549 138.557,18.838 140.35,18.838 	"/>
	<polygon fill="#0066A6" points="177.592,32.623 175.35,41.599 175.199,42.202 174.579,42.271 158.973,44.005 158.776,42.227 
		173.764,40.561 175.854,32.188 177.592,32.623 	"/>
	<polygon fill="#0066A6" points="175.206,40.86 186.729,56.864 185.279,57.907 173.757,41.903 175.206,40.86 	"/>
	<polygon fill="#0066A6" points="183.314,78.478 160.466,85.841 149.789,100.401 157.578,104.763 156.703,106.323 148.032,101.468 
		147.15,100.974 147.749,100.159 159.194,84.552 159.643,84.229 182.769,76.776 183.314,78.478 	"/>
	<polygon fill="#0066A6" points="159.085,85.417 150.762,64.954 152.421,64.282 160.745,84.745 159.085,85.417 	"/>
	<polygon fill="#0066A6" points="148.435,101.583 123.117,100.544 122.647,100.524 122.396,100.126 110.95,82.093 110.623,81.577 
		110.985,81.083 124.512,62.702 125.955,63.759 112.79,81.649 123.656,98.771 148.505,99.792 148.435,101.583 	"/>
	<polygon fill="#0066A6" points="123.526,100.46 115.091,104.356 114.342,102.733 122.777,98.835 123.526,100.46 	"/>
	<polygon fill="#0066A6" points="95.115,85.073 95.889,77.853 90.793,55.771 89.668,54.928 90.74,53.5 92.127,54.54 92.463,55.055 
		97.666,77.599 97.684,77.892 96.894,85.263 95.115,85.073 	"/>
	<polygon fill="#0066A6" points="102.892,28.518 103.239,37.882 103.103,38.382 92.352,55.723 90.832,54.785 101.437,37.68 
		101.1,28.581 102.892,28.518 	"/>
	<polygon fill="#0066A6" points="102.508,37.035 119.154,40.156 118.825,41.914 102.179,38.792 102.508,37.035 	"/>
	<polygon fill="#0066A6" points="111.486,82.481 96.818,78.745 97.26,77.009 111.928,80.745 111.486,82.481 	"/>
	<path fill-rule="evenodd" clip-rule="evenodd" fill="#EE3124" d="M127.987,69.575h-4.706l-3.062,4.332l7.917,5.303l19.494,0.748
		l7.102-3.461l-2.61-6.307l-20.55,0.057v2.166h18v2.316c0,0-0.821,2.016-8.439,1.867C133.514,76.446,130.452,76.671,127.987,69.575
		L127.987,69.575z"/>
	<path fill-rule="evenodd" clip-rule="evenodd" fill="#0061AF" d="M131.572,72.413c0,0,1.344,3.287,8.664,3.287
		s8.889-3.287,8.889-3.287H131.572L131.572,72.413z"/>
	<path fill-rule="evenodd" clip-rule="evenodd" fill="#EE3124" d="M115.948,46.214l-1.073-4.106l-4.829-0.936l-0.808,7.878
		l4.497,15.184l4.835,3.889l2.966-3.648L116.4,49.158l-1.517,0.611l4.636,13.824l-1.622,0.656c0,0-1.625-0.063-3.481-5.956
		C112.559,52.399,111.613,50.111,115.948,46.214L115.948,46.214z"/>
	<path fill-rule="evenodd" clip-rule="evenodd" fill="#0061AF" d="M114.884,49.769c0,0-1.956,1.96-0.07,7.583
		c1.884,5.622,4.706,6.241,4.706,6.241L114.884,49.769L114.884,49.769z"/>
	<path fill-rule="evenodd" clip-rule="evenodd" fill="#EE3124" d="M126.04,95.358l2.021,2.873l6.939,0.064l0.055-4.822l-8.38-12.879
		l-8.025-5.209l-3.349,4.943l8.663,13.713l1.595-1.168l-7.057-11.922l1.415-0.996c0,0,3.196,0.426,5.961,4.68
		C127.841,87.653,129.315,90.804,126.04,95.358L126.04,95.358z"/>
	<path fill-rule="evenodd" clip-rule="evenodd" fill="#0061AF" d="M125.56,92.874c0,0,1.893-3.211-1.252-7.684
		c-3.144-4.471-5.805-4.238-5.805-4.238L125.56,92.874L125.56,92.874z"/>
	<path fill-rule="evenodd" clip-rule="evenodd" fill="#EE3124" d="M111.721,73.345l2.858,0.443l2.956-4.09l-5.119-4.449
		l-11.287-1.563l-4.977,0.543l1.535,7.521l12.177,1.527l0.109-2.004l-10.99-1.379l0.116-2.143c0,0,0.604-1.803,5.248-1.082
		C108.993,67.394,110.574,66.591,111.721,73.345L111.721,73.345z"/>
	<path fill-rule="evenodd" clip-rule="evenodd" fill="#0061AF" d="M109.974,71.274c0,0-0.654-3.145-5.124-3.705
		s-5.866,2.326-5.866,2.326L109.974,71.274L109.974,71.274z"/>
	<path fill-rule="evenodd" clip-rule="evenodd" fill="#EE3124" d="M154.894,37.153l2.069,1.675l2.316-3.449v-4.532l-9.058-5.999
		l-5.717,0.353l-1.883,3.642l10.941,7.325l1.182-1.527l-9.843-6.487l0.778-0.805c0,0,2.562-0.985,6.221,1.116
		C156.216,30.944,156.914,33.359,154.894,37.153L154.894,37.153z"/>
	<path fill-rule="evenodd" clip-rule="evenodd" fill="#0061AF" d="M154.745,34.64c0,0,1.208-2.729-2.846-5.294
		s-6.929-1.179-6.929-1.179L154.745,34.64L154.745,34.64z"/>
	<path fill-rule="evenodd" clip-rule="evenodd" fill="#EE3124" d="M172.626,30.368l0.765-1.266l-2.436-2.542l-5.806,1.714
		l-4.54,8.682l2.599,3.727l5.667-0.585l3.239-8.5l-1.576-0.239l-2.926,7.671l-2.481-0.617c0,0-1.425-0.802-0.071-4.015
		C166.413,31.185,166.738,29.83,172.626,30.368L172.626,30.368z"/>
	<path fill-rule="evenodd" clip-rule="evenodd" fill="#0061AF" d="M170.538,31.36c0,0-2.86-0.164-4.049,2.957
		c-1.189,3.12,1.133,4.66,1.133,4.66L170.538,31.36L170.538,31.36z"/>
	<path fill-rule="evenodd" clip-rule="evenodd" fill="#EE3124" d="M144.812,96.161l-2.494,2.477l-5.171-0.236l-0.116-4.877
		l11.013-12.504l7.228-3.455l2.232,5.156l-9.566,13.182l-1.275-0.744l9.035-11.854l-1.648-1.168c0,0-3.507,0.637-5.966,3.385
		C144.288,89.765,143.206,92.501,144.812,96.161L144.812,96.161z"/>
	<path fill-rule="evenodd" clip-rule="evenodd" fill="#0061AF" d="M146.661,95.159c0,0-2.87-2.818,2.126-7.76
		c3.886-3.846,6.794-3.973,6.794-3.973L146.661,95.159L146.661,95.159z"/>
	<path fill-rule="evenodd" clip-rule="evenodd" fill="#EE3124" d="M155.406,63.47l-0.878,3.488l2.55,4.975l5.636-6.275l4.782-14.294
		l-0.426-5.953l-6.775,0.746l-4.253,15.206l1.606,0.404L161.538,48l1.28,0.067c0,0,1.639,1.556,0.106,7.176
		C161.393,60.862,161.126,62.966,155.406,63.47L155.406,63.47z"/>
	<path fill-rule="evenodd" clip-rule="evenodd" fill="#0061AF" d="M157.648,61.767c0,0,2.739-0.488,4.104-5.915
		c1.367-5.425-0.215-7.852-0.215-7.852L157.648,61.767L157.648,61.767z"/>
	<path fill-rule="evenodd" clip-rule="evenodd" fill="#EE3124" d="M174.805,47.262l-1.793-3.022l-4.612,0.798l0.272,5.99
		l8.231,14.047l5.422,3.242l0.69-7.707l-7.277-10.789l-1.392,0.825l7.287,10.603l-1.919,1.844c0,0-1.608,0.24-4.414-4.711
		C172.495,53.429,171.186,51.548,174.805,47.262L174.805,47.262z"/>
	<path fill-rule="evenodd" clip-rule="evenodd" fill="#0061AF" d="M174.347,50.646c0,0-1.599,2.116,1.188,6.817
		c2.788,4.703,6.099,3.785,6.099,3.785L174.347,50.646L174.347,50.646z"/>
	<path fill-rule="evenodd" clip-rule="evenodd" fill="#EE3124" d="M163.403,78.575l-3.301,1.074l-2.174-5.963l5.847-6.326
		l12.649-1.115l5.696,3.465l-2.163,5.555l-14.159,3.117l0.049-2.252l11.4-2.639l-0.132-2.463c0,0-3.137-1.859-7.229-0.584
		C165.01,71.964,163.669,72.995,163.403,78.575L163.403,78.575z"/>
	<path fill-rule="evenodd" clip-rule="evenodd" fill="#0061AF" d="M165.848,76.13c0,0,0.197-3.332,4.945-4.516
		c4.749-1.186,6.455,1.877,6.455,1.877L165.848,76.13L165.848,76.13z"/>
	<path fill-rule="evenodd" clip-rule="evenodd" fill="#EE3124" d="M102.637,41.674l1.054-1.586l5.173,0.887l-0.64,8.327
		l-7.937,13.254l-4.528,0.295l-2.168-6.603l7.784-12.81l1.231,2.513l-7.686,10.494l0.909,3.019c0,0,1.751,1.146,5.17-3.837
		C104.417,50.644,105.985,48.876,102.637,41.674L102.637,41.674z"/>
	<path fill-rule="evenodd" clip-rule="evenodd" fill="#0061AF" d="M102.606,45.951c0,0,1.382,3.558-1.803,8.361
		c-4.158,6.271-5.837,2.118-5.837,2.118L102.606,45.951L102.606,45.951z"/>
	<path fill-rule="evenodd" clip-rule="evenodd" fill="#EE3124" d="M108.568,26.441l-0.296-1.379l4.122-2.898l2.153,1.894
		l2.502,10.234l-1.042,3.432l-4.936-0.95l-2.29-9.321l1.848,0.047l1.546,8.022l2.161-0.068c0,0,0.832-1.39,0.429-3.747
		C114.169,28.219,112.664,26.634,108.568,26.441L108.568,26.441z"/>
	<path fill-rule="evenodd" clip-rule="evenodd" fill="#0061AF" d="M110.63,27.5c0,0,2.178,0.741,2.82,4.055
		c0.645,3.316-1.276,3.893-1.276,3.893L110.63,27.5L110.63,27.5z"/>
	<path fill-rule="evenodd" clip-rule="evenodd" fill="#EE3124" d="M122.578,36.674l-2.629,1.542l-2.685-0.248l2.475-7.347
		l9.588-6.941l5.063-1.064l1.965,4.762l-12.209,8.059l-0.3-1.704l8.562-6.49l-0.533-1.37c0,0-1.901-1.35-5.483,1.516
		S122.587,31.098,122.578,36.674L122.578,36.674z"/>
	<path fill-rule="evenodd" clip-rule="evenodd" fill="#0061AF" d="M123.876,33.715c0,0-0.207-3.309,3.273-5.946
		c3.481-2.641,5.259-0.526,5.259-0.526L123.876,33.715L123.876,33.715z"/>
	<path fill-rule="evenodd" clip-rule="evenodd" fill="#EE3124" d="M157.475,18.128l0.973,0.521l2.753,1.654l-5.637,3.428
		l-8.585,0.385l-1.943-2.363l2.123-3.295l6.988-1.275l1.576,0.838l-8.138,1.703l-0.444,1.347c0,0,1.666,0.63,4.994,0.563
		C155.462,21.566,155.387,20.451,157.475,18.128L157.475,18.128z"/>
	<path fill-rule="evenodd" clip-rule="evenodd" fill="#0061AF" d="M155.723,18.021c0,0-1.217,2.679-4.385,2.66
		c-3.172-0.018-3.661-0.99-3.661-0.99L155.723,18.021L155.723,18.021z"/>
	<path fill-rule="evenodd" clip-rule="evenodd" fill="#EE3124" d="M119.78,19.003l-1.063-0.494l-4.646,2.333l4.16,2.29l10.288,0.032
		l5.838-1.29l-0.129-3.322l-12.355-1.224l-1.975,0.786l11.695,1.087l0.28,0.834c0,0-1.425,1.08-5.644,1.128
		C122.012,21.213,121.006,20.68,119.78,19.003L119.78,19.003z"/>
	<path fill-rule="evenodd" clip-rule="evenodd" fill="#0061AF" d="M119.899,18.114c0,0,2.509,2.184,6.523,2.058
		c4.017-0.126,5.172-0.971,5.172-0.971L119.899,18.114L119.899,18.114z"/>
	<path fill-rule="evenodd" clip-rule="evenodd" fill="#EE3124" d="M144.36,102.438l-5.65-0.26c0,0-0.673,4.096,1.814,6.377
		c0,0,3.007-0.051,4.251-0.363C144.775,108.192,143.635,105.134,144.36,102.438L144.36,102.438z"/>
	<path fill-rule="evenodd" clip-rule="evenodd" fill="#0061AF" d="M145.501,107.935c0,0-0.362-1.867,0.83-2.801l1.089,2.385
		C147.42,107.519,146.746,107.778,145.501,107.935L145.501,107.935z"/>
	<path fill-rule="evenodd" clip-rule="evenodd" fill="#EE3124" d="M146.331,105.134l1.089,2.385c0,0,1.192-0.104,1.658-0.363
		l-1.399-2.902L146.331,105.134L146.331,105.134z"/>
	<path fill-rule="evenodd" clip-rule="evenodd" fill="#EE3124" d="M129.662,102.128h5.657c0,0,0.483,4.123-2.106,6.287
		c0,0-3.001-0.191-4.229-0.559C128.983,107.856,130.264,104.853,129.662,102.128L129.662,102.128z"/>
	<path fill-rule="evenodd" clip-rule="evenodd" fill="#0061AF" d="M128.271,107.565c0,0,0.448-1.85-0.7-2.836l-1.197,2.332
		C126.373,107.062,127.035,107.353,128.271,107.565L128.271,107.565z"/>
	<path fill-rule="evenodd" clip-rule="evenodd" fill="#EE3124" d="M127.57,104.729l-1.197,2.332c0,0-1.186-0.158-1.641-0.439
		l1.532-2.834L127.57,104.729L127.57,104.729z"/>
	<path fill-rule="evenodd" clip-rule="evenodd" fill="#EE3124" d="M88.553,60.937c0,27.166,22.101,49.266,49.268,49.266
		c27.164,0,49.266-22.1,49.266-49.266S164.984,11.67,137.82,11.67C110.653,11.67,88.553,33.771,88.553,60.937L88.553,60.937z
		 M90.345,60.937c0-26.178,21.296-47.475,47.475-47.475c26.177,0,47.474,21.297,47.474,47.475s-21.297,47.475-47.474,47.475
		C111.642,108.411,90.345,87.114,90.345,60.937L90.345,60.937z"/>
</g>
</svg>
