<?xml version="1.0" encoding="utf-8"?>
<!-- Generator: Adobe Illustrator 15.0.0, SVG Export Plug-In . SVG Version: 6.00 Build 0)  -->
<!DOCTYPE svg PUBLIC "-//W3C//DTD SVG 1.1//EN" "http://www.w3.org/Graphics/SVG/1.1/DTD/svg11.dtd">
<svg version="1.1" id="Capa_1" xmlns="http://www.w3.org/2000/svg" xmlns:xlink="http://www.w3.org/1999/xlink" x="0px" y="0px"
	 width="180px" height="102.281px" viewBox="0 0 180 102.281" enable-background="new 0 0 180 102.281" xml:space="preserve">
<g>
	<g>
		<g>
			<g>
				<g>
					<path d="M3.423,102.281H0.614l2.093-9.071h2.79L3.86,99.109l5.249-5.899h2.747L3.423,102.281z"/>
					<path d="M15.766,100.82l0.828-1.423h2.768l-0.828,1.423c-0.565,0.974-1.771,1.461-3.617,1.461h-3.617
						c-1.845,0-2.484-0.487-1.919-1.461l3.578-6.15c0.565-0.974,1.728-1.46,3.485-1.46h3.879c1.757,0,2.354,0.486,1.788,1.46
						l-1.397,2.402c-0.544,0.936-1.739,1.403-3.583,1.403h-3.617l-1.364,2.345H15.766z M19.342,94.67h-3.616l-1.364,2.345h3.617
						L19.342,94.67z"/>
					<path d="M22.4,102.281h-2.768l4.426-7.611c0.565-0.974,1.727-1.46,3.485-1.46h3.879c1.757,0,2.353,0.486,1.787,1.46
						l-4.426,7.611h-2.768l4.426-7.611h-3.617L22.4,102.281z"/>
					<path d="M37.965,100.82l0.828-1.423h2.768l-0.828,1.423c-0.566,0.974-1.772,1.461-3.617,1.461H33.5
						c-1.845,0-2.485-0.487-1.919-1.461l3.578-6.15c0.566-0.974,1.728-1.46,3.485-1.46h3.879c1.757,0,2.354,0.486,1.788,1.46
						l-1.397,2.402c-0.545,0.936-1.739,1.403-3.583,1.403h-3.617l-1.364,2.345H37.965z M41.542,94.67h-3.617l-1.364,2.345h3.617
						L41.542,94.67z"/>
					<path d="M47.107,93.21h9.149l-10.269,7.61h5.843l-0.85,1.461h-9.183l10.268-7.611h-5.808L47.107,93.21z"/>
					<path d="M64.593,93.21h2.767l-4.426,7.61c-0.565,0.974-1.771,1.461-3.617,1.461h-3.616c-1.845,0-2.485-0.487-1.919-1.461
						l4.427-7.61h2.768l-4.427,7.61h3.617L64.593,93.21z"/>
					<path d="M71.266,100.82l0.827-1.423h2.769l-0.828,1.423c-0.565,0.974-1.771,1.461-3.617,1.461H66.8
						c-1.845,0-2.484-0.487-1.919-1.461l3.577-6.15c0.566-0.974,1.728-1.46,3.486-1.46h3.879c1.758,0,2.354,0.486,1.788,1.46
						l-1.397,2.402c-0.544,0.936-1.74,1.403-3.583,1.403h-3.617l-1.364,2.345H71.266z M74.843,94.67h-3.617l-1.364,2.345h3.617
						L74.843,94.67z"/>
					<path d="M78.406,101.41h4.576l-0.506,0.871h-7.343l5.289-9.095h2.768L78.406,101.41z"/>
					<path d="M93.568,102.281h-2.768l2.639-4.536h-3.618l-2.637,4.536h-2.767l4.783-8.225c0.336-0.58,1.385-0.87,3.143-0.87h3.879
						c1.758,0,2.467,0.29,2.13,0.87L93.568,102.281z M95.584,94.057h-3.618l-1.638,2.818h3.617L95.584,94.057z"/>
				</g>
				<g>
					<path d="M102.938,102.281l2.638-4.536c0.337-0.58,1.429-0.87,3.273-0.87h3.617l1.638-2.818h-3.616l-0.814,1.398h-2.766
						l0.813-1.398c0.337-0.58,1.385-0.87,3.143-0.87h3.88c1.757,0,2.467,0.29,2.129,0.87l-1.644,2.826
						c-0.331,0.569-1.418,0.853-3.264,0.853l-3.621,0.01l-2.132,3.665h6.384l-0.506,0.871H102.938z"/>
					<path d="M118.819,94.057c0.338-0.58,1.385-0.87,3.144-0.87h3.878c1.759,0,2.469,0.29,2.131,0.87l-4.276,7.354
						c-0.338,0.581-1.43,0.871-3.274,0.871h-3.615c-1.846,0-2.601-0.29-2.263-0.871L118.819,94.057z M117.312,101.41h3.616
						l4.276-7.354h-3.616L117.312,101.41z"/>
					<path d="M129.92,94.057c0.337-0.58,1.385-0.87,3.142-0.87h3.88c1.758,0,2.468,0.29,2.13,0.87l-4.276,7.354
						c-0.339,0.581-1.43,0.871-3.273,0.871h-3.616c-1.847,0-2.601-0.29-2.263-0.871L129.92,94.057z M128.411,101.41h3.616
						l4.276-7.354h-3.615L128.411,101.41z"/>
					<path d="M138.996,102.281h-2.777l10.842-8.225h-6.04l0.506-0.87h9.15L138.996,102.281z"/>
				</g>
			</g>
			<g>
				<g>
					<path d="M10.193,87.287h4.066l0.969-1.698h3.112l-0.97,1.698c-0.663,1.161-2.032,1.74-4.106,1.74H9.198
						c-2.075,0-2.781-0.579-2.117-1.74l4.191-7.337c0.662-1.16,1.982-1.741,3.958-1.741h4.362c1.976,0,2.631,0.581,1.97,1.741
						l-0.97,1.696H17.48l0.969-1.696h-4.066L10.193,87.287z"/>
					<path d="M23.751,79.95c0.662-1.16,1.982-1.741,3.958-1.741h4.362c1.976,0,2.631,0.581,1.969,1.741l-4.19,7.337
						c-0.664,1.161-2.032,1.74-4.106,1.74h-4.066c-2.074,0-2.78-0.579-2.116-1.74L23.751,79.95z M30.929,79.95h-4.066l-4.19,7.337
						h4.065L30.929,79.95z"/>
					<path d="M31.045,89.027l6.042-10.579h7.326c1.976,0,2.77,0.339,2.385,1.013l-1.872,3.277c-0.386,0.677-1.616,1.013-3.69,1.013
						h-4.066l-3.014,5.276H31.045z M39.622,79.461l-1.872,3.277h4.066l1.872-3.277H39.622z"/>
					<path d="M53.813,89.027h-3.111l3.014-5.276h-4.067l-3.013,5.276h-3.111l5.464-9.566c0.385-0.674,1.565-1.013,3.542-1.013h4.361
						c1.977,0,2.771,0.339,2.385,1.013L53.813,89.027z M56.167,79.461H52.1l-1.872,3.277h4.065L56.167,79.461z"/>
				</g>
				<g>
					<path d="M72.363,89.027h-3.307l3.205-5.276H67.94l-3.204,5.276H61.43l5.81-9.566c0.409-0.674,1.664-1.013,3.763-1.013h4.634
						c2.101,0,2.945,0.339,2.535,1.013L72.363,89.027z M74.866,79.461h-4.32l-1.99,3.277h4.321L74.866,79.461z"/>
					<path d="M90.187,79.005c0.101-0.165,0.388-0.34,0.86-0.522c0.471-0.18,0.866-0.273,1.188-0.273h4.493
						c2.089,0,2.781,0.581,2.077,1.741l-5.511,9.077h-3.31l5.513-9.077h-4.321l-5.51,9.077H82.36l5.511-9.077h-4.363l-5.512,9.077
						H74.69l5.512-9.077c0.705-1.16,2.108-1.741,4.208-1.741h4.519C90.089,78.209,90.508,78.476,90.187,79.005z"/>
					<path d="M104.325,87.287l1.03-1.698h3.306l-1.03,1.698c-0.706,1.161-2.159,1.74-4.363,1.74h-4.319
						c-2.204,0-2.955-0.579-2.249-1.74l4.454-7.337c0.703-1.16,2.107-1.741,4.207-1.741h4.633c2.1,0,2.796,0.581,2.092,1.741
						l-1.74,2.866c-0.678,1.115-2.116,1.674-4.322,1.674h-4.319l-1.697,2.797H104.325z M108.779,79.95h-4.32l-1.698,2.797h4.318
						L108.779,79.95z"/>
					<path d="M108.9,89.027l5.512-9.077c0.704-1.16,2.108-1.741,4.208-1.741h4.632c2.1,0,2.797,0.581,2.093,1.741l-1.029,1.696
						h-3.308l1.03-1.696h-4.32l-5.512,9.077H108.9z"/>
					<path d="M122.16,89.027l6.565-10.81h3.307l-6.566,10.81H122.16z"/>
					<path d="M132.123,87.287h4.319l1.03-1.698h3.306l-1.028,1.698c-0.707,1.161-2.161,1.74-4.365,1.74h-4.32
						c-2.205,0-2.955-0.579-2.249-1.74l4.453-7.337c0.705-1.16,2.107-1.741,4.207-1.741h4.635c2.101,0,2.796,0.581,2.093,1.741
						l-1.031,1.696h-3.306l1.03-1.696h-4.321L132.123,87.287z"/>
					<path d="M151.951,89.027h-3.306l3.202-5.276h-4.319l-3.203,5.276h-3.307l5.81-9.566c0.409-0.674,1.665-1.013,3.765-1.013h4.633
						c2.101,0,2.942,0.339,2.535,1.013L151.951,89.027z M154.454,79.461h-4.32l-1.989,3.277h4.318L154.454,79.461z"/>
				</g>
			</g>
		</g>
		<g>
			<g>
				<g>
					<path fill="#034694" d="M2.81,101.667H0l2.093-9.071h2.789l-1.636,5.9l5.249-5.9h2.748L2.81,101.667z"/>
					<path fill="#034694" d="M15.151,100.207l0.828-1.423h2.768l-0.828,1.423c-0.566,0.974-1.772,1.46-3.617,1.46h-3.616
						c-1.845,0-2.485-0.486-1.919-1.46l3.578-6.151c0.565-0.973,1.728-1.46,3.485-1.46h3.88c1.757,0,2.353,0.487,1.787,1.46
						L20.1,96.458c-0.545,0.937-1.738,1.403-3.583,1.403h-3.617l-1.364,2.346H15.151z M18.729,94.056h-3.617l-1.364,2.346h3.617
						L18.729,94.056z"/>
					<path fill="#034694" d="M21.786,101.667h-2.767l4.426-7.611c0.565-0.973,1.728-1.46,3.485-1.46h3.879
						c1.758,0,2.353,0.487,1.788,1.46l-4.426,7.611h-2.768l4.426-7.611h-3.617L21.786,101.667z"/>
					<path fill="#034694" d="M37.351,100.207l0.828-1.423h2.768l-0.828,1.423c-0.566,0.974-1.772,1.46-3.617,1.46h-3.616
						c-1.845,0-2.485-0.486-1.919-1.46l3.578-6.151c0.566-0.973,1.728-1.46,3.485-1.46h3.879c1.758,0,2.354,0.487,1.788,1.46
						l-1.397,2.402c-0.544,0.937-1.738,1.403-3.583,1.403H35.1l-1.365,2.346H37.351z M40.928,94.056h-3.616l-1.364,2.346h3.616
						L40.928,94.056z"/>
					<path fill="#034694" d="M46.494,92.596h9.149l-10.27,7.611h5.843l-0.849,1.46h-9.184l10.268-7.611h-5.808L46.494,92.596z"/>
					<path fill="#034694" d="M63.979,92.596h2.768l-4.426,7.611c-0.566,0.974-1.771,1.46-3.617,1.46h-3.617
						c-1.845,0-2.483-0.486-1.918-1.46l4.426-7.611h2.768l-4.426,7.611h3.616L63.979,92.596z"/>
					<path fill="#034694" d="M70.651,100.207l0.828-1.423h2.768l-0.828,1.423c-0.566,0.974-1.772,1.46-3.617,1.46h-3.617
						c-1.845,0-2.484-0.486-1.918-1.46l3.578-6.151c0.565-0.973,1.727-1.46,3.485-1.46h3.878c1.758,0,2.354,0.487,1.788,1.46
						L75.6,96.458c-0.545,0.937-1.739,1.403-3.584,1.403H68.4l-1.365,2.346H70.651z M74.229,94.056h-3.616l-1.364,2.346h3.617
						L74.229,94.056z"/>
					<path fill="#034694" d="M77.792,100.796h4.576l-0.505,0.871h-7.344l5.289-9.095h2.768L77.792,100.796z"/>
					<path fill="#034694" d="M92.956,101.667h-2.768l2.638-4.535h-3.617l-2.638,4.535h-2.768l4.783-8.224
						c0.337-0.58,1.385-0.871,3.143-0.871h3.879c1.758,0,2.467,0.291,2.13,0.871L92.956,101.667z M94.971,93.443h-3.617
						l-1.639,2.817h3.618L94.971,93.443z"/>
				</g>
				<g>
					<path fill="#034694" d="M102.324,101.667l2.639-4.535c0.337-0.58,1.429-0.871,3.272-0.871h3.617l1.638-2.817h-3.615
						l-0.814,1.397h-2.768l0.814-1.397c0.337-0.58,1.385-0.871,3.142-0.871h3.88c1.757,0,2.467,0.291,2.13,0.871l-1.645,2.826
						c-0.33,0.568-1.417,0.853-3.264,0.853l-3.621,0.01l-2.132,3.664h6.384l-0.505,0.871H102.324z"/>
					<path fill="#034694" d="M118.206,93.443c0.338-0.58,1.386-0.871,3.144-0.871h3.879c1.758,0,2.468,0.291,2.132,0.871
						l-4.277,7.353c-0.338,0.582-1.43,0.871-3.273,0.871h-3.617c-1.845,0-2.601-0.289-2.262-0.871L118.206,93.443z M116.698,100.796
						h3.616l4.277-7.353h-3.617L116.698,100.796z"/>
					<path fill="#034694" d="M129.308,93.443c0.336-0.58,1.385-0.871,3.142-0.871h3.88c1.758,0,2.467,0.291,2.13,0.871l-4.277,7.353
						c-0.338,0.582-1.428,0.871-3.273,0.871h-3.616c-1.846,0-2.6-0.289-2.262-0.871L129.308,93.443z M127.799,100.796h3.615
						l4.277-7.353h-3.616L127.799,100.796z"/>
					<path fill="#034694" d="M138.384,101.667h-2.777l10.842-8.224h-6.041l0.507-0.871h9.149L138.384,101.667z"/>
				</g>
			</g>
			<g>
				<g>
					<path fill="#C61D23" d="M9.579,86.673h4.066l0.97-1.698h3.112l-0.97,1.698c-0.664,1.162-2.032,1.741-4.106,1.741H8.584
						c-2.075,0-2.78-0.579-2.116-1.741l4.189-7.337c0.662-1.16,1.982-1.74,3.958-1.74h4.362c1.975,0,2.631,0.58,1.969,1.74
						l-0.969,1.697h-3.112l0.97-1.697H13.77L9.579,86.673z"/>
					<path fill="#C61D23" d="M23.138,79.336c0.662-1.16,1.981-1.74,3.958-1.74h4.361c1.975,0,2.631,0.58,1.969,1.74l-4.19,7.337
						c-0.664,1.162-2.031,1.741-4.106,1.741h-4.065c-2.074,0-2.78-0.579-2.117-1.741L23.138,79.336z M30.314,79.336H26.25
						l-4.19,7.337h4.065L30.314,79.336z"/>
					<path fill="#C61D23" d="M30.432,88.414l6.042-10.58H43.8c1.976,0,2.771,0.34,2.385,1.013l-1.872,3.277
						c-0.387,0.677-1.616,1.014-3.69,1.014h-4.066l-3.014,5.276H30.432z M39.007,78.847l-1.871,3.277h4.065l1.872-3.277H39.007z"/>
					<path fill="#C61D23" d="M53.199,88.414h-3.111l3.014-5.276h-4.066l-3.014,5.276H42.91l5.464-9.567
						c0.386-0.673,1.566-1.013,3.542-1.013h4.361c1.976,0,2.771,0.34,2.386,1.013L53.199,88.414z M55.552,78.847h-4.065
						l-1.872,3.277h4.065L55.552,78.847z"/>
				</g>
				<g>
					<path fill="#C61D23" d="M71.749,88.414h-3.306l3.204-5.276h-4.32l-3.204,5.276h-3.306l5.809-9.567
						c0.41-0.673,1.664-1.013,3.763-1.013h4.635c2.1,0,2.944,0.34,2.535,1.013L71.749,88.414z M74.251,78.847h-4.32l-1.99,3.277
						h4.32L74.251,78.847z"/>
					<path fill="#C61D23" d="M89.573,78.392c0.101-0.166,0.388-0.341,0.861-0.523c0.47-0.18,0.866-0.272,1.188-0.272h4.494
						c2.086,0,2.78,0.58,2.074,1.74l-5.51,9.078h-3.31l5.514-9.078h-4.32l-5.512,9.078h-3.306l5.511-9.078h-4.363l-5.512,9.078
						h-3.306l5.512-9.078c0.704-1.16,2.108-1.74,4.208-1.74h4.519C89.477,77.596,89.896,77.861,89.573,78.392z"/>
					<path fill="#C61D23" d="M103.713,86.673l1.03-1.698h3.306l-1.03,1.698c-0.706,1.162-2.159,1.741-4.364,1.741h-4.318
						c-2.205,0-2.956-0.579-2.248-1.741l4.453-7.337c0.702-1.16,2.107-1.74,4.206-1.74h4.634c2.1,0,2.795,0.58,2.092,1.74
						l-1.74,2.867c-0.678,1.114-2.117,1.673-4.322,1.673h-4.319l-1.698,2.797H103.713z M108.166,79.336h-4.32l-1.697,2.797h4.318
						L108.166,79.336z"/>
					<path fill="#C61D23" d="M108.288,88.414l5.511-9.078c0.704-1.16,2.108-1.74,4.208-1.74h4.633c2.1,0,2.796,0.58,2.092,1.74
						l-1.029,1.697h-3.307l1.029-1.697h-4.319l-5.513,9.078H108.288z"/>
					<path fill="#C61D23" d="M121.548,88.414l6.565-10.811h3.305l-6.564,10.811H121.548z"/>
					<path fill="#C61D23" d="M131.51,86.673h4.32l1.029-1.698h3.307l-1.028,1.698c-0.707,1.162-2.162,1.741-4.366,1.741h-4.32
						c-2.204,0-2.954-0.579-2.249-1.741l4.454-7.337c0.704-1.16,2.107-1.74,4.207-1.74h4.635c2.101,0,2.796,0.58,2.092,1.74
						l-1.03,1.697h-3.306l1.031-1.697h-4.322L131.51,86.673z"/>
					<path fill="#C61D23" d="M151.339,88.414h-3.306l3.203-5.276h-4.32l-3.203,5.276h-3.307l5.809-9.567
						c0.409-0.673,1.665-1.013,3.766-1.013h4.634c2.099,0,2.941,0.34,2.533,1.013L151.339,88.414z M153.841,78.847h-4.319
						l-1.989,3.277h4.318L153.841,78.847z"/>
				</g>
			</g>
		</g>
	</g>
	<g>
		<g>
			<g>
				<polygon fill="#DA2128" points="89.887,57.881 23.351,57.881 12.201,73.809 78.736,73.809 				"/>
				<polygon points="89.887,57.881 66.294,57.881 60.705,66.057 78.736,73.809 				"/>
				<polygon fill="#FFDD00" points="112.185,26.027 45.649,26.027 34.5,41.954 101.036,41.954 				"/>
				<polygon fill="#005B9E" points="101.036,41.954 34.5,41.954 23.351,57.881 89.887,57.881 				"/>
				
					<linearGradient id="SVGID_1_" gradientUnits="userSpaceOnUse" x1="-1553.2813" y1="1060.0938" x2="-1638.2168" y2="1060.0938" gradientTransform="matrix(1 0 0 1 1698.9219 -1002.2119)">
					<stop  offset="0.6" style="stop-color:#DA2128"/>
					<stop  offset="1" style="stop-color:#4C0000"/>
				</linearGradient>
				<polygon fill="url(#SVGID_1_)" points="138.392,49.707 71.855,49.707 60.705,66.057 145.641,66.057 				"/>
				
					<linearGradient id="SVGID_2_" gradientUnits="userSpaceOnUse" x1="-1538.2334" y1="1027.3965" x2="-1615.9175" y2="1027.3965" gradientTransform="matrix(1 0 0 1 1698.9219 -1002.2119)">
					<stop  offset="0.7" style="stop-color:#FFDD00"/>
					<stop  offset="1" style="stop-color:#BB8A0B"/>
				</linearGradient>
				<polygon fill="url(#SVGID_2_)" points="160.688,17.012 94.154,17.012 83.004,33.359 149.541,33.359 				"/>
				
					<linearGradient id="SVGID_3_" gradientUnits="userSpaceOnUse" x1="-1549.3809" y1="1043.7441" x2="-1627.0669" y2="1043.7441" gradientTransform="matrix(1 0 0 1 1698.9219 -1002.2119)">
					<stop  offset="0.7" style="stop-color:#005B9E"/>
					<stop  offset="1" style="stop-color:#000034"/>
				</linearGradient>
				<polygon fill="url(#SVGID_3_)" points="149.541,33.359 83.004,33.359 71.855,49.707 138.392,49.707 				"/>
			</g>
			<g>
				<g>
					<polygon fill="#FFFFFF" points="67.248,30.214 68.227,32.214 70.453,32.139 68.854,33.688 69.612,35.783 67.644,34.74 
						65.887,36.108 66.271,33.915 64.426,32.666 66.632,32.353 					"/>
					<polygon fill="#FFFFFF" points="77.667,30.214 78.283,32.353 80.489,32.666 78.644,33.915 79.028,36.108 77.271,34.74 
						75.303,35.783 76.062,33.688 74.462,32.139 76.688,32.214 					"/>
				</g>
				<g>
					<polygon fill="#FFFFFF" points="56.984,33.308 58.134,35.214 60.345,34.946 58.887,36.629 59.825,38.649 57.773,37.782 
						56.143,39.298 56.333,37.08 54.387,35.996 56.557,35.492 					"/>
					<polygon fill="#FFFFFF" points="87.93,33.308 88.358,35.492 90.529,35.996 88.582,37.08 88.772,39.298 87.142,37.782 
						85.09,38.649 86.029,36.629 84.569,34.946 86.781,35.214 					"/>
				</g>
				<g>
					<polygon fill="#FFFFFF" points="47.338,38.625 48.487,40.534 50.699,40.265 49.24,41.948 50.178,43.968 48.127,43.1 
						46.497,44.618 46.687,42.399 44.74,41.316 46.911,40.812 					"/>
					<polygon fill="#FFFFFF" points="97.578,38.625 98.006,40.812 100.176,41.316 98.229,42.399 98.42,44.618 96.788,43.1 
						94.738,43.968 95.677,41.948 94.217,40.265 96.429,40.534 					"/>
				</g>
				<g>
					<polygon fill="#FFFFFF" points="41.207,46.561 42.356,48.468 44.568,48.199 43.108,49.882 44.047,51.9 41.996,51.034 
						40.365,52.551 40.556,50.332 38.609,49.249 40.78,48.746 					"/>
					<polygon fill="#FFFFFF" points="103.709,46.561 104.137,48.747 106.307,49.25 104.361,50.333 104.551,52.551 102.921,51.035 
						100.87,51.901 101.808,49.882 100.348,48.199 102.56,48.468 					"/>
				</g>
			</g>
		</g>
		<g>
			<g>
				
					<radialGradient id="SVGID_4_" cx="-1553.6499" cy="1032.623" r="33.2798" fx="-1559.6002" fy="1031.5411" gradientTransform="matrix(1 0 0 1 1698.9219 -1002.2119)" gradientUnits="userSpaceOnUse">
					<stop  offset="0" style="stop-color:#FFFFFF"/>
					<stop  offset="0.382" style="stop-color:#E6E7E8"/>
					<stop  offset="0.882" style="stop-color:#D1D3D4"/>
					<stop  offset="1" style="stop-color:#939598"/>
				</radialGradient>
				<circle fill="url(#SVGID_4_)" cx="145.109" cy="34.891" r="34.35"/>
			</g>
			<path fill="#FFFFFF" d="M168.194,27.233l-12.081,1.302c-0.482,0.072-0.853,0.125-1.076,0.153l-3.042,6.137l2.997-5.585
				l13.607-1.397C168.598,27.837,168.196,27.237,168.194,27.233z M155.144,6.88c-0.029-0.018-0.495-0.327-0.507-0.333
				c-0.26,0.343-6.644,8.777-7.559,9.985l0.621,0.557C149.058,15.256,154.031,8.405,155.144,6.88z M167.315,51.191
				c-0.248,0.022-9.494,0.816-11.518,0.993l0.261,0.65c1.397-0.124,11.604-1.031,11.865-1.055
				c0.135-0.244,7.272-13.116,7.425-13.391c-0.021-0.033-0.146-0.227-0.345-0.535C173.919,39.775,167.44,50.966,167.315,51.191z
				 M179.148,37.713h-2.772l-7.235-11.225l-0.405-12.171l0.062-0.024l-0.434,0.113l0.132,12.393l7.315,11.307h3.344
				C179.148,37.922,179.144,37.769,179.148,37.713z M134.146,42.614c-0.512,1.551-3.885,11.778-4.003,12.144
				c0.038,0.023,0.234,0.144,0.543,0.332c0.537-1.61,3.552-10.62,3.994-11.961l13.109-0.665c0.942,1.455,6.108,9.431,7.215,11.139
				c0.151-0.135,0.535-0.509,0.563-0.532c-0.223-0.341-6.32-9.757-7.409-11.438C147.017,41.712,135.404,42.526,134.146,42.614z
				 M130.594,4.313l-0.01,0.004c-0.034,0.016-0.067,0.032-0.101,0.048c-0.625,2.313-1.388,5.137-1.655,6.125l0.063,0.121
				C129.261,9.243,130.02,6.438,130.594,4.313z M126.61,31.087c1.044-2.107,6.128-12.171,6.248-12.415
				c0.299-0.021,13.263-1.02,13.563-1.042c0.157,0.231,6.748,9.994,7.775,11.495c0.111-0.225,0.354-0.674,0.366-0.701
				c-0.175-0.253-7.783-11.374-7.953-11.622c-0.005,0.001-0.023,0.002-0.038,0.003l-0.029,0.039l-14.165,0.993
				c-0.357,0.721-6.102,12.309-6.234,12.579C126.154,30.435,126.535,30.98,126.61,31.087z M113.83,32.547l-2.217-5.004
				c-0.088,0.23-0.271,0.578-0.309,0.752l2.166,4.89L113.83,32.547z M144.422,63.789l-0.097,5.431
				c-0.067-0.002-0.136-0.005-0.203-0.006v0.401c0.18,0.008,0.631-0.193,0.812-0.188l0.098-5.431l11.804-10.689l-0.802,0.072
				L144.422,63.789z M169.712,58.851l0.037,0.163c0.151-0.153-0.006,0.321,0.144,0.167l-0.107-0.407
				C169.761,58.8,169.736,58.825,169.712,58.851z M152.931,1.447l1.853,4.558l13.381,7.896l3.335-0.873
				c-0.177-0.157-0.438-0.354-0.532-0.467l-2.672,0.834l-13.016-7.731l-1.758-4.192c-0.215-0.05-0.725-0.401-0.94-0.447
				c0.051,0.124,0.103,0.251,0.152,0.377C152.799,1.417,152.865,1.431,152.931,1.447z M179.209,38.647h-0.03
				c0.011,0.265,0.02,0.5,0.012,0.572C179.19,39.222,179.201,38.893,179.209,38.647z M128.145,11.301l0.153,0.042
				c0.417,0.795,2.779,5.297,3.444,6.563l0.179-0.36c-0.432-0.82-3.115-5.934-3.562-6.787l-0.153-0.041l0.009-0.034l-6.529-0.384
				c-0.122,0.114-0.242,0.232-0.364,0.348c-0.056,0.055-0.113,0.108-0.169,0.162c2.478,0.146,6.491,0.382,7.014,0.413
				L128.145,11.301z M119.607,56.98l-1.154,0.23l0.005,0.004c0.131,0.161,0.266,0.315,0.399,0.473l10.847-1.944l14.166,8.66
				l0.011-0.587l-14.115-8.656L119.607,56.98z M133.434,43.049l0.228-0.688l-7.956-11.625c-0.026,0.004-0.074,0.014-0.106,0.02
				l-0.012,0.024l-11.295,2.049c-0.154,0.275-1.868,3.317-3.315,5.884c0-0.003-0.001-0.006-0.001-0.009
				c-0.021-0.177-0.034-0.355-0.051-0.533l-0.098,0.179c0,0.004,0.002,0.008,0.002,0.012c0.025,0.309,0.06,0.464,0.094,0.771
				c0,0.002,0.271,0.47,0.271,0.473c1.486-2.637,3.581-6.029,3.651-6.153c0.227-0.042,9.213-1.639,10.614-1.894L133.434,43.049z"/>
			<g>
				<path fill="#C61D23" d="M139.815,35.526c0.022,0.017,0.047,0.038,0.061,0.042c0.035,0.015,0.321,0.061,0.321,0.061
					s0.104,0.11,0.158,0.182c0.058,0.072,0.457,0.252,0.457,0.252s0.049,0.138,0.064,0.217c0.02,0.079,0.115,0.143,0.115,0.143
					l0.229,0.221l0.271,0.215l0.165,0.146c0,0,0.062,0.129,0.097,0.167c0.034,0.034,0.02,0.169,0.02,0.169s-0.042,0.173-0.007,0.21
					c0.035,0.035,0.048,0.137,0.048,0.137l-0.037,0.243c0,0,0.063,0.127,0.096,0.185c0.032,0.059,0.056,0.229,0.049,0.261
					c-0.002,0.032-0.114,0.158-0.1,0.259c0.015,0.102,0.024,0.258,0.02,0.301c-0.004,0.046,0.079,0.242,0.079,0.242
					s-0.008,0.065-0.081,0.159c-0.071,0.096-0.01,0.09,0.044,0.361c0.049,0.272-0.034,0.199-0.046,0.298
					c-0.009,0.098-0.104,0.536-0.106,0.581c-0.004,0.043,0.047,0.17,0.047,0.17l0.044,0.316c0,0,0.02,0.072,0.099,0.165
					c0.082,0.096-0.019,0.166-0.022,0.211c-0.005,0.043-0.118,0.167-0.111,0.246c0.003,0.078,0.073,0.151,0.09,0.23
					c0.017,0.08-0.013,0.132-0.032,0.197c-0.02,0.067-0.011,0.212-0.011,0.212s-0.224,0.259-0.245,0.334
					c-0.02,0.076-0.08,0.149-0.084,0.225c-0.012,0.08-0.016,0.123-0.021,0.188c-0.007,0.068,0.026,0.126,0.057,0.207
					c0.029,0.081,0.045,0.049,0.089,0.13c0.041,0.083-0.037,0.097-0.04,0.141c-0.004,0.046-0.05,0.11-0.047,0.198
					c0.005,0.091-0.05,0.14-0.049,0.252c0.002,0.112-0.014,0.133-0.018,0.209c-0.012,0.078-0.018,0.154-0.003,0.257
					c0.015,0.102,0.127,0.256,0.179,0.371c0.052,0.118,0.168,0.216,0.202,0.252c0.033,0.037-0.008,0.211-0.005,0.29
					c0.007,0.079,0.04,0.228,0.065,0.363c0.023,0.136-0.048,0.462-0.061,0.607c-0.014,0.144-0.082,0.193-0.082,0.193
					s-0.12,0.19-0.126,0.255c-0.007,0.067-0.035,0.353-0.038,0.388c-0.003,0.033-0.044,0.308-0.049,0.374
					c-0.008,0.065-0.128,0.146-0.167,0.165c-0.04,0.019-0.025,0.096-0.028,0.141c-0.006,0.043,0.032,0.181,0.032,0.181
					s0.018,0.078,0.009,0.157c-0.006,0.076,0.132,0.212,0.132,0.212l0.022,0.168l0.118,0.188l0.021,0.204
					c0,0,0.021,0.033,0.05,0.105c0.03,0.071,0.021,0.158,0.042,0.227c0.018,0.068-0.018,0.142-0.02,0.299
					c-0.003,0.156-0.002,0.425,0.002,0.492c0.008,0.065,0.092,0.14,0.157,0.234c0.063,0.096,0.188,0.152,0.188,0.152l0.225,0.273
					l0.095,0.187c0,0,0.132,0.215,0.151,0.248c0.023,0.035-0.012,0.124-0.009,0.256c-0.004,0.133,0.055,0.184,0.057,0.292
					c0,0.112-0.023,0.11-0.031,0.189c-0.006,0.075-0.044,0.173-0.044,0.173l-0.186-0.038l-0.062,0.052l-0.049,0.039
					c0,0,0.022,0.157,0.031,0.225c0.003,0.067-0.031,0.188-0.031,0.188s-0.047,0.172-0.053,0.252
					c-0.01,0.077-0.087,0.247-0.087,0.247s0.053,0.106,0.144,0.204c0.093,0.095,0.215,0.153,0.262,0.169
					c0.05,0.014,0.197,0.038,0.197,0.038l0.04,0.248l-0.146,0.197l-0.165,0.108l-0.017,0.188c0,0,0.097,0.165,0.177,0.264
					c0.081,0.094-0.011,0.242-0.011,0.242l0.204,0.363l0.143,0.112l0.081,0.186l0.16,0.284l0.017,0.099l0.24,0.135
					c0,0,0.15,0.034,0.26,0.065s-0.038,0.119-0.038,0.119l0.101,0.266l0.101,0.133c0,0,0.031,0.104,0.124,0.166
					c0.095,0.064,0.131,0.057,0.175,0.127c0.045,0.07,0.126,0.156,0.212,0.185c0.084,0.029,0.188,0.142,0.188,0.142l0.075,0.118
					l0.211,0.172l0.114,0.134l0.334,0.074l0.001,0.112l0.42,0.114l0.216,0.11l0.177,0.127c0,0,0.204,0.106,0.255,0.111
					c0.051,0.004,0.347,0.197,0.383,0.213c0.037,0.017,0.15,0.014,0.15,0.014s0.387,0.066,0.434,0.092s0.434,0.096,0.472,0.099
					c0.039,0.003,0.308-0.063,0.308-0.063s0.353,0.022,0.391,0.026c0.038,0.003,0.404-0.101,0.404-0.101l0.188-0.107l-0.034-0.056
					l-0.406-0.092l-0.387-0.09l-0.211-0.12l-0.368-0.235l-0.144-0.133l-0.348-0.187l-0.258-0.333l-0.151-0.216l-0.086-0.176
					l-0.158-0.068l0.008-0.188l-0.17-0.082l-0.168-0.226l-0.157-0.062l0.062-0.283l0.115-0.122l0.137-0.1
					c0,0,0.093-0.035,0.151-0.098c0.055-0.063-0.002-0.134-0.002-0.134l0.001-0.279l0.026-0.119l0.301-0.23l0.198-0.173l0.189-0.026
					l-0.161-0.292l-0.154-0.247l-0.248-0.037l-0.215-0.019l-0.194-0.085l-0.124-0.163l-0.23-0.356l-0.014-0.234l0.207-0.284
					l0.16-0.084l0.24-0.111l0.094-0.06c0,0,0.073-0.093,0.055-0.187c-0.018-0.089-0.018-0.088-0.018-0.088s0.018-0.166,0.024-0.223
					c0.005-0.056,0.087-0.236,0.087-0.236l0.047-0.23l0.243-0.034l0.178,0.002l0.049,0.03l0.106-0.317l-0.184-0.202
					c0,0-0.026,0.029-0.133,0.087c-0.109,0.057-0.125,0.098-0.125,0.098l-0.144,0.045l-0.204-0.219l-0.108-0.188l-0.128-0.132
					l0.032-0.2l-0.038-0.248l0.107,0.076l0.289,0.148l0.36,0.056l0.289,0.026l0.199,0.006l0.183-0.163l0.09-0.037l-0.294-0.326
					l0.116-0.292l0.016-0.141l0.081-0.183l0.318-0.039l0.464,0.041l0.297-0.052c0,0,0.503-0.088,0.694-0.127
					c0.195-0.038,0.274-0.088,0.274-0.088s0.067-0.284,0.08-0.373c0.005-0.091,0.178-0.285,0.178-0.285s0.033-0.208,0.042-0.307
					c0.01-0.1-0.017-0.203-0.017-0.203s-0.224-0.165-0.308-0.217c-0.084-0.051-0.004-0.088,0.023-0.231
					c0.026-0.141-0.038-0.125-0.038-0.125s-0.109-0.167-0.175-0.305c-0.061-0.14-0.282-0.193-0.282-0.193s0.002-0.021,0.015-0.154
					c0.014-0.132,0.126,0,0.126,0l0.279,0.246l0.277,0.137l0.382,0.123c0,0,0.149,0.014,0.226,0.02
					c0.076,0.007,0.148,0.036,0.148,0.036l0.232,0.077l0.183-0.074l0.319-0.15l-0.036-0.272l0.126-0.232l0.341-0.148l0.183-0.172
					l0.089-0.249l-0.009-0.18l0.022-0.333l0.105-0.201c0,0,0.153-0.132,0.204-0.138c0.051-0.007,0.142-0.155,0.142-0.155
					l-0.054-0.206l0.034-0.23l0.163,0.147l0.025,0.137l0.11,0.165l0.124-0.099l0.06-0.096l0.022-0.132l0.107-0.167l0.247-0.314
					l0.139-0.144l0.14-0.121l0.133-0.078l-0.024-0.27l0.216-0.259l0.03-0.3l-0.08-0.217l-0.032-0.17l-0.012-0.268l0.069-0.082
					l0.167-0.253l0.19-0.127l0.012-0.101l0.169-0.074l0.072-0.095l0.474-0.058c0,0,0.15-0.121,0.262-0.21
					c0.11-0.09,0.258-0.057,0.258-0.057l0.148,0.047l0.29-0.13l0.18-0.151l0.199-0.093l0.456,0.017l0.325,0.029l0.127,0.011
					c0,0,0.124,0.01,0.189,0.004c0.062-0.005,0.077-0.169,0.077-0.169s-0.069-0.196,0-0.234c0.066-0.039,0.089-0.003,0.089-0.003
					l0.222-0.193c0,0,0.15-0.153,0.202-0.25c0.047-0.096,0.046-0.084,0.046-0.084s0.078-0.171,0.096-0.226
					c0.02-0.054,0.088-0.249,0.088-0.249l0.166-0.264c0,0,0.18-0.129,0.344-0.258c0.164-0.131,0.007-0.068,0.017-0.177
					c0.011-0.11-0.045-0.071-0.055-0.105c-0.005-0.034,0.003-0.267,0.003-0.267l-0.032-0.194c0,0,0.084-0.181,0.149-0.196
					c0.065-0.017,0.195-0.072,0.195-0.072l0.031-0.219l0.01-0.212l0.086-0.216l0.067-0.161l0.073-0.127l-0.139-0.48l0.001-0.289
					c0,0-0.014-0.369-0.01-0.402s-0.012-0.146-0.012-0.146l-0.025-0.258l0.253-0.232H139.815z"/>
				<path fill="#034694" d="M131.017,17.218c0,0,0.164,0.237,0.233,0.299c0.071,0.063,0.036,0.037,0.229,0.131
					c0.191,0.095,0.049,0.004,0.049,0.004s0.09,0.008,0.265,0.024c0.176,0.015,0.336,0.186,0.336,0.186l0.194,0.061l0.077,0.118
					l0.295,0.105l0.377,0.022c0,0,0.062-0.117,0.151-0.165c0.099-0.048,0.2,0.051,0.2,0.051l0.033,0.07l-0.087,0.081l0.007,0.19
					l-0.008,0.111l0.173,0.127l0.177,0.16l0.188,0.161l0.199,0.262c0,0,0.066,0.107,0.085,0.155c0.023,0.045-0.022,0.14-0.022,0.14
					l-0.015,0.134l-0.047,0.309l-0.018,0.187l0.213,0.151c0,0,0.312,0.072,0.349,0.075c0.036,0.004,0.146,0.046,0.146,0.046
					l0.264,0.137l0.063,0.149l0.023,0.269l-0.011,0.089l0.092,0.086l0.166,0.137l0.094-0.081l0.284-0.041l0.239,0.154l0.22,0.198
					l0.256,0.211l0.092,0.111l0.226,0.029l0.165-0.018l0.091-0.149l-0.114-0.232l0.176-0.14l0.152-0.122l0.149,0.025l0.355-0.136
					l0.207,0.074l0.155,0.102c0,0,0.07,0.062,0.138,0.146s-0.021,0.077-0.021,0.077l-0.1,0.125c0,0-0.018,0.165-0.022,0.198
					c-0.003,0.033-0.014,0.155-0.014,0.155s0.084,0.074,0.161,0.147c0.08,0.074,0.132,0.212,0.132,0.212l0.067,0.186l-0.02,0.221
					l-0.085,0.092l0.062,0.162l0.062,0.116c0,0-0.112,0.38-0.13,0.423c-0.019,0.043-0.022,0.133-0.022,0.133
					s-0.014,0.22-0.001,0.254c0.008,0.036,0.019,0.18,0.019,0.18l-0.126,0.134l-0.111,0.102c0,0-0.198,0.194-0.202,0.228
					c-0.004,0.032-0.112,0.111-0.112,0.111l-0.287-0.003l-0.091,0.115l-0.134,0.211l0.007,0.056l-0.014,0.276l-0.231,0.036
					l-0.183,0.061l-0.236,0.091l-0.257,0.155l0.049,0.271c0,0-0.022,0.088-0.077,0.151c-0.058,0.06-0.074,0.092-0.074,0.092
					s-0.173,0.097-0.177,0.129c-0.005,0.032-0.032,0.064-0.038,0.098c-0.002,0.032-0.057,0.083-0.166,0.164
					c-0.108,0.079,0.002,0.11,0.055,0.204c0.054,0.095,0.044,0.082,0.044,0.082s-0.237,0.237-0.206,0.294
					c0.031,0.058,0.075,0.119,0.156,0.203c0.081,0.086,0.088,0.129,0.088,0.129l0.15,0.148c0,0,0.113,0.021,0.188,0.028
					c0.072,0.006,0.043,0.058,0.043,0.058l-0.035,0.097l-0.112,0.136c0,0-0.084,0.048-0.153,0.108
					c-0.068,0.061-0.195,0.084-0.236,0.09c-0.036,0.009-0.106,0.07-0.199,0.117c-0.094,0.047-0.103,0.125-0.103,0.125
					s-0.009,0.089-0.012,0.12c-0.002,0.034-0.015,0.124-0.015,0.124s0.068,0.116,0.133,0.223c0.066,0.106,0.11,0.155,0.11,0.155
					l0.038,0.149l-0.028,0.129l-0.14,0.011l-0.078,0.038l0.064,0.127c0,0,0.092,0.074,0.136,0.136
					c0.047,0.059,0.049,0.037,0.049,0.037l0.214,0.12l0.113,0.143l0.12,0.21l0.139,0.113c0,0,0.311,0.194,0.393,0.247
					c0.084,0.052,0.069,0.207,0.069,0.207s0.109,0.165,0.141,0.235c0.03,0.069-0.015,0.144-0.015,0.144s0.026,0.256,0.06,0.294
					c0.037,0.037,0.043,0.093,0.072,0.151c0.032,0.059,0.093,0.232,0.093,0.232s0.067,0.206,0.105,0.219
					c0.037,0.016,0.102,0.11,0.102,0.11l-0.013,0.132l0.176,0.272l0.046,0.161l0.154,0.237l0.089,0.13c0,0,0.015,0.113,0.021,0.169
					s0.078,0.196,0.184,0.328c0.1,0.132,0.135,0.156,0.203,0.241c0.066,0.083,0.059,0.161,0.071,0.297
					c0.011,0.134,0.014,0.123,0.014,0.123s0.029,0.215,0.089,0.251c0.058,0.041,0.252,0.146,0.252,0.146l0.169,0.06l0.059,0.207
					c0,0,0.201,0.262,0.224,0.296c0.021,0.036,0.173,0.139,0.236,0.166c0.061,0.027,0.252,0.135,0.288,0.16
					c0.023,0.017,0.066,0.053,0.106,0.084h19.748l0.025-0.023l0.155-0.029c0,0,0.239-0.114,0.279-0.121
					c0.038-0.007,0.102-0.125,0.102-0.125l0.147-0.343c0,0,0.123-0.346,0.153-0.4c0.03-0.05,0.234-0.189,0.234-0.189l0.292-0.164
					l0.204-0.149l0.149-0.21c0,0,0.128-0.255,0.229-0.269c0.104-0.014,0.16-0.208,0.16-0.208l0.215-0.261l0.153-0.23
					c0,0,0.034-0.242,0.037-0.277c0.003-0.032-0.072-0.184-0.083-0.318c-0.013-0.136-0.036-0.15-0.057-0.184
					c-0.021-0.035-0.076-0.252-0.076-0.252l-0.076-0.395l-0.109-0.166c0,0-0.15-0.015-0.2-0.019
					c-0.053-0.004-0.163-0.014-0.216-0.02c-0.048-0.003-0.197-0.162-0.197-0.162l-0.136-0.012l-0.15-0.036l-0.311-0.161l-0.1-0.175
					c0,0-0.278-0.237-0.429-0.383c-0.151-0.147-0.216-0.153-0.216-0.153s-0.113-0.132-0.213-0.265
					c-0.104-0.131-0.14-0.146-0.16-0.182c-0.019-0.035-0.156-0.035-0.223-0.029c-0.064,0.004-0.432,0.006-0.432,0.006
					s-0.363-0.032-0.399-0.035c-0.038-0.004-0.279-0.024-0.328-0.029c-0.049-0.005-0.249-0.156-0.249-0.156l-0.391-0.27
					c0,0-0.131,0.135-0.183,0.186c-0.055,0.05-0.218,0.138-0.321,0.162c-0.104,0.023-0.227,0.002-0.264-0.024
					c-0.035-0.025,0.034-0.219,0.034-0.219s0.003-0.145-0.042-0.195c-0.05-0.048-0.189-0.26-0.189-0.26l-0.17-0.226l-0.472-0.198
					c0,0-0.348-0.176-0.398-0.192c-0.049-0.017-0.261-0.045-0.261-0.045s-0.23,0.036-0.271,0.044
					c-0.036,0.008-0.282,0.185-0.282,0.185l-0.148-0.035l0.091-0.26c0,0,0.086-0.125,0.088-0.158
					c0.003-0.033-0.207-0.086-0.207-0.086l-0.342-0.119l-0.438-0.029l-0.167,0.009l-0.108-0.311l0.137-0.11l0.206-0.261l0.209-0.193
					l-0.088-0.139l-0.021-0.193l-0.125-0.01l-0.102-0.088l-0.101-0.174v-0.225l-0.058-0.216l-0.096-0.264l0.036-0.153l-0.032-0.148
					l-0.118-0.098l-0.035-0.148l-0.286-0.181l-0.195-0.185l-0.094-0.097l-0.139-0.113l-0.176-0.17l-0.354-0.121l-0.312-0.039
					l-0.355-0.12l-0.189,0.016l-0.179-0.015l-0.299-0.027l-0.434-0.093l-0.176-0.128l-0.076-0.172l-0.163-0.238l-0.288-0.025
					l-0.09-0.131l0.019-0.177l-0.088-0.141l-0.184-0.206l-0.184-0.184l-0.247-0.189l-0.162-0.015l-0.21,0.072l-0.271-0.069
					l-0.161-0.137l0.197-0.194l0.14-0.165c0,0,0.012-0.099,0.025-0.131c0.015-0.032-0.253-0.124-0.253-0.124l-0.224-0.02
					l-0.324-0.062l-0.33-0.129l-0.099-0.131l0.066-0.172l-0.114-0.1l-0.23,0.025c0,0-0.177,0.095-0.204,0.126
					c-0.026,0.032-0.271,0.054-0.271,0.054l-0.317,0.005l-0.546-0.237l-0.18-0.105l-0.325-0.041l-0.116,0.012l-0.194,0.039
					l-0.132,0.055c0,0-0.273-0.158-0.271-0.191c0.004-0.033-0.004-0.212-0.004-0.212l-0.223-0.164l-0.47-0.222l-0.185-0.081
					l-0.136,0.11l-0.234,0.046c0,0-0.274,0.109-0.305,0.14c-0.026,0.032-0.183,0.194-0.213,0.227
					c-0.025,0.031,0.063,0.272,0.063,0.272s0.089,0.131,0.167,0.237c0.077,0.107-0.118,0.281-0.118,0.281l-0.336,0.072l-0.135-0.024
					l-0.125-0.168l-0.018-0.201L142,20.638l0.135-0.211l0.072-0.205l-0.134-0.201l0.068-0.162l0.195-0.082l0.11-0.08l0.096-0.224
					l-0.103-0.09l-0.21,0.072l-0.162,0.108l-0.181,0.151c0,0-0.199,0.083-0.264,0.11c-0.066,0.027-0.252,0.111-0.252,0.111
					l-0.151-0.002l-0.305-0.105l-0.104,0.046l-0.047,0.165l-0.093,0.091c0,0-0.04-0.004-0.147-0.048
					c-0.112-0.043-0.176-0.036-0.176-0.036l-0.12,0.078l-0.242,0.134l-0.103,0.248l-0.042,0.318l-0.075,0.094l-0.248,0.111
					l-0.142,0.133l-0.29,0.141c0,0-0.021,0.189-0.036,0.221c-0.018,0.032-0.127-0.012-0.127-0.012l-0.149-0.125l-0.184-0.204
					l-0.174-0.161c0,0-0.252-0.134-0.312-0.161c-0.063-0.027-0.174-0.16-0.174-0.16s-0.192-0.106-0.235-0.099
					c-0.035,0.008-0.424,0.085-0.424,0.085l-0.252,0.145l-0.385,0.155l-0.227-0.02l-0.239-0.087l-0.181-0.25l-0.196-0.208
					l-0.269-0.212l-0.171-0.439l-0.075-0.273l0.115-0.135l0.041-0.286l0.114-0.101l0.081-0.349l0.074-0.218l-0.007-0.19l0.151-0.129
					l0.084-0.329l0.095-0.214l0.075-0.216l-0.131-0.11l-0.14-0.144h-5.062L131.017,17.218z"/>
				<path fill="#DDB10A" d="M152.537,1.391l0.19,0.128c0,0-0.128,0.011-0.241,0.001c-0.112-0.01-0.168,0.042-0.168,0.042
					s-0.183,0.039-0.221,0.036c-0.039-0.004-0.206,0.06-0.206,0.06s-0.124,0.065-0.227,0.091c-0.103,0.025-0.197,0.104-0.197,0.104
					l-0.281,0.144l0.034,0.16l0.151,0.135l0.202-0.004l0.282-0.063l0.249-0.067l0.216-0.249l0.184-0.095l0.191-0.015l0.435-0.018
					c0,0,0.112,0.009,0.163,0.014c0.031,0.002,0.316-0.08,0.514-0.138C153.387,1.561,152.965,1.471,152.537,1.391z M151.558,1.439
					c0.051-0.005,0.199-0.083,0.199-0.083l0.215-0.024c0,0,0.146,0.003,0.27,0.008c-2.068-0.37-4.196-0.579-6.374-0.594
					c-8.817-0.059-16.889,2.937-23.1,7.923c0.051,0.05,0.083,0.078,0.133,0.166c0.065,0.118,0.018,0.059,0.035,0.137
					c0.021,0.08,0.03,0.114,0.03,0.114s0.126,0.133,0.16,0.169c0.034,0.038,0.041,0.039,0.078,0.077
					c0.034,0.035,0.216,0.119,0.255,0.254c0.033,0.137-0.046,0.097-0.093,0.17c-0.046,0.074,0,0-0.056,0.052
					c-0.059,0.05-0.072,0.093-0.079,0.126c-0.002,0.033,0.007,0.088,0.007,0.088l0.084,0.176l0.125,0.122l0.092,0.12l0.138,0.123
					l0.203,0.129l0.109,0.054l-0.04,0.142c0,0,0.037,0.149,0.031,0.192c-0.003,0.044,0.099,0.162,0.099,0.162l0.096,0.188
					l0.087,0.143l0.172,0.193l0.112,0.132l-0.028,0.153l0.15,0.281l0.136,0.156c0,0,0.004,0.079-0.004,0.166
					c-0.009,0.088-0.145,0.066-0.203,0.128c-0.055,0.063,0.039,0.116,0.039,0.116s-0.022,0.098-0.055,0.173
					c-0.032,0.074-0.14,0.109-0.14,0.109l-0.031,0.074l-0.044,0.208l-0.005,0.168l0.251,0.277l0.286,0.182l0.05,0.138l0.074,0.15
					l0.309,0.184l0.321,0.072c0,0,0.147,0.035,0.286,0.082c0.133,0.045,0.188,0.128,0.188,0.128s0.128,0.11,0.174,0.149
					c0.045,0.039,0.192,0.228,0.192,0.228l0.11,0.155l0.233,0.065l0.165-0.009l0.204,0.143l0.322,0.182l0.361,0.2l0.087,0.118
					l0.211,0.052l0.088,0.11l0.508,0.121l0.165,0.015c0,0,0.234-0.078,0.276-0.109c0.04-0.03,0.195-0.073,0.195-0.073l0.352-0.102
					l0.323,0.195l0.272,0.17c0,0,0.035,0.045,0.179,0.26c0.144,0.213,0.101,0.132,0.201,0.265c0.103,0.129,0.014,0.088,0.014,0.088
					l0.011,0.006h5.062l-0.089-0.091l-0.511-0.212l-0.313-0.039l-0.254,0.023l-0.346,0.026l-0.385-0.056l-0.351-0.042l-0.314-0.029
					l-0.229-0.098l-0.026-0.114l0.105-0.058l0.239-0.257l0.238-0.224l0.25-0.212l0.207-0.326l0.13-0.167l0.138-0.212l0.011-0.254
					l-0.009-0.28l0.053-0.15l0.159-0.199c0,0,0.206-0.148,0.271-0.165c0.063-0.016,0.053-0.174,0.053-0.174l-0.102-0.131
					l-0.229-0.109l-0.42-0.094l-0.382,0.013l-0.243,0.032l-0.35,0.071l-0.227,0.147l-0.021,0.187l-0.169,0.175
					c0,0-0.071,0.195-0.075,0.227c-0.001,0.033-0.188,0.217-0.253,0.268c-0.068,0.049-0.198,0.082-0.198,0.082l-0.106,0.079
					l-0.142,0.145L131.906,15l-0.253-0.011l-0.148-0.001l-0.33-0.019l-0.335,0.037l-0.105,0.036l-0.408,0.052l-0.225-0.029
					l-0.021-0.148l-0.215-0.164l-0.147-0.024l-0.2-0.163l-0.072-0.273l-0.145-0.203l0.015-0.177l-0.084-0.152l-0.021-0.17
					l-0.182-0.226l0.051-0.129l-0.119-0.188l-0.042-0.116c0,0,0.03-0.276,0.036-0.31c0.002-0.033,0.163-0.264,0.163-0.264
					l0.029-0.309l0.017-0.311l0.296-0.42l0.183-0.317l0.128-0.145l0.22-0.17l-0.002-0.347l0.144-0.445l0.059-0.194l0.265-0.245
					l0.209-0.069l0.184-0.184l0.269-0.044l0.284-0.04l0.194-0.05l0.199-0.106l0.217-0.159l0.221-0.047l0.224-0.093l0.215-0.003
					l0.304,0.004l0.113,0.01l0.144,0.092l0.109,0.053l0.262-0.087l0.308,0.083l0.137,0.145l0.144,0.09l0.179-0.028
					c0,0,0.182-0.028,0.267-0.01c0.089,0.019,0.19,0.138,0.19,0.138l0.207,0.075c0,0,0.117-0.024,0.156-0.042
					c0.039-0.018-0.037-0.137-0.037-0.137l-0.079-0.23l0.119-0.168l0.112-0.012l0.34-0.114l0.163-0.084l0.223,0.163l0.105,0.077
					l0.271-0.144l0.317-0.039l0.179-0.017l0.26,0.2l0.138,0.146l0.031,0.08l0.023,0.148l0.233,0.063l0.169-0.051
					c0,0,0.179-0.151,0.217-0.159c0.038-0.008,0.202,0.018,0.202,0.018l0.05,0.004l0.105,0.209l0.164,0.238l0.195,0.241
					l-0.044,0.185c0,0-0.028,0.143-0.163,0.198c-0.127,0.054-0.011,0.153-0.011,0.153l-0.022,0.2l-0.022,0.232l0.008,0.189
					l0.175,0.274l0.033,0.291l0.173,0.172l0.146,0.189l0.065,0.107l0.114,0l0.261-0.189l0.104-0.159l0.083-0.336l-0.02-0.304
					l0.036-0.387l-0.06-0.272l0.066-0.173l0.054-0.263l-0.104-0.254l-0.055-0.338l0.018-0.288l0.159-0.332l0.17-0.196l0.234-0.214
					l0.216-0.227l0.336-0.092l0.125,0l0.304-0.117l0.233-0.19l0.281-0.131l0.155-0.176l0.22-0.036l0.318-0.041l0.113-0.101
					l0.18-0.172c0,0,0.219-0.148,0.264-0.134c0.051,0.016,0,0,0.065,0.005c0.064,0.006,0.291-0.118,0.291-0.118
					s0.151-0.142,0.206-0.171c0.052-0.029,0.258-0.179,0.296-0.175c0.038,0.003,0.323-0.183,0.323-0.183l0.063-0.26l0.041-0.311
					l0.13-0.155l0.154-0.166l0.263-0.087l0.206-0.15l0.116-0.167l0.073-0.35l0.183-0.051l0.222-0.08l0.22-0.16l0.296-0.174
					l0.172-0.363l0.176-0.085c0,0,0.23-0.146,0.294-0.141c0.062,0.006,0.097,0.009,0.238,0.032c0.135,0.023,0.135,0.034,0.135,0.034
					l0.361-0.079l0.313-0.095c0,0,0.22-0.046,0.256-0.044c0.041,0.004,0.272-0.066,0.272-0.066l0.126,0.002l0.125-0.113
					l-0.002-0.223l0.026-0.254l0.223-0.237l0.224-0.191c0,0,0.197-0.095,0.299-0.084c0.101,0.007,0.169-0.053,0.169-0.053
					l0.227,0.021c0,0,0.119-0.067,0.159-0.097c0.043-0.031,0.18-0.13,0.18-0.13l0.274,0.024l0.229-0.001l0.437-0.073l0.158-0.053
					l0.043-0.05l0.101-0.115C151.198,1.497,151.507,1.447,151.558,1.439z M122.418,11.032c-0.038-0.002-0.177-0.149-0.177-0.149
					l-0.075-0.251l0.048-0.23l-0.016-0.069c0,0-0.029-0.236-0.052-0.272c-0.021-0.035,0.006-0.043,0.006-0.043l0.03-0.465
					l-0.126-0.112c0,0-0.002-0.003-0.046-0.154c-0.146,0.123-0.286,0.253-0.43,0.378l0.088,0.109l0.009,0.167l-0.034,0.198
					l-0.116,0.157l-0.125,0.111l-0.017,0.177l0.142,0.112l0.049,0.127c0,0,0.181,0.093,0.326,0.173
					c0.143,0.08,0.152,0.125,0.152,0.125s0.057,0.072,0.088,0.12c0.034,0.046,0.118,0.088,0.118,0.088l-0.104,0.157l0.003,0.113
					l0.076,0.128c0,0,0.169-0.05,0.269-0.041c0.1,0.008,0.084-0.205,0.084-0.205l0.02-0.344
					C122.607,11.138,122.456,11.036,122.418,11.032z"/>
			</g>
			<path opacity="0.2" d="M179.304,38.107h-3.493L168.495,26.8l-0.132-12.393l3.587-0.939c-0.123-0.154-0.241-0.311-0.366-0.463
				l-3.42,0.895l-13.381-7.896l-1.853-4.558c-0.214-0.05-0.428-0.103-0.644-0.149c0.825,2.028,1.744,4.293,1.971,4.853
				l-7.653,10.112l-14.223,0.997l-3.554-6.77c0.292-1.08,1.179-4.36,1.827-6.76c-0.004,0.001-0.006,0.002-0.01,0.004
				c-0.211,0.097-0.42,0.194-0.628,0.296c-0.002,0-0.004,0.001-0.004,0.002l-1.643,6.074l-6.623-0.389
				c-0.123,0.114-0.243,0.231-0.364,0.348c-0.058,0.054-0.115,0.107-0.171,0.162c2.479,0.146,6.492,0.382,7.015,0.413l-0.021,0.079
				l0.153,0.041c0.446,0.853,3.13,5.966,3.562,6.787l-6.272,12.651l-11.355,2.06l-2.515-5.679c-0.022,0.085-0.039,0.173-0.061,0.259
				c-0.048,0.206-0.097,0.412-0.143,0.619l2.255,5.09l-2.941,5.22c0,0.004,0.001,0.008,0.001,0.012
				c0.026,0.31,0.052,0.618,0.086,0.925c0,0.003,0.001,0.006,0.001,0.009c1.486-2.637,3.259-5.783,3.328-5.908
				c0.228-0.042,9.998-1.814,11.4-2.069l7.956,11.625l-4.048,12.276l-11.099,1.989c0.001,0.002,0.003,0.004,0.005,0.005
				c0.131,0.16,0.266,0.315,0.399,0.473l10.847-1.944l14.115,8.656l-0.097,5.39c0.18,0.007,0.36,0.009,0.541,0.014l0.097-5.431
				l11.611-10.41l11.85-1.053l1.626,6.737c0.15-0.152,0.296-0.312,0.444-0.466l-1.574-6.522l7.443-13.428h3.429
				c0-0.003,0.001-0.007,0.001-0.011C179.271,38.461,179.288,38.284,179.304,38.107z M154.637,6.547
				c0.378,0.221,11.577,6.831,13.029,7.686l0.088,0.333l0.07-0.018c0.017,1.632,0.123,11.661,0.129,12.092
				c-0.438,0.049-11.487,1.309-12.946,1.475l-7.929-11.584C147.993,15.324,154.377,6.89,154.637,6.547z M126.144,30.417
				c0.136-0.275,6.12-12.348,6.254-12.617c0.3-0.021,13.913-0.976,14.213-0.997c0.17,0.249,7.778,11.369,7.953,11.622
				c-0.137,0.275-6.121,12.348-6.255,12.617c-0.299,0.021-13.913,0.975-14.214,0.996C133.927,41.791,126.315,30.67,126.144,30.417z
				 M144.124,63.331c-0.331-0.203-13.63-8.358-13.98-8.573c0.119-0.367,3.538-10.734,4.016-12.182l13.977-0.979
				c1.035,1.601,7.208,11.13,7.432,11.473C155.237,53.367,144.412,63.071,144.124,63.331z M167.924,51.779
				c-0.261,0.023-10.468,0.931-11.865,1.055l-7.359-11.361l6.354-12.817l13.036-1.486c0.826,1.276,7.1,10.97,7.26,11.219
				C175.196,38.664,168.059,51.535,167.924,51.779z"/>
			<g>
				<path fill="#58595B" d="M110.219,34.891c0,19.239,15.65,34.89,34.891,34.89c19.237,0,34.891-15.65,34.891-34.89
					C180,15.652,164.347,0,145.109,0C125.869,0,110.219,15.652,110.219,34.891z M111.301,34.891
					c0-18.642,15.166-33.809,33.809-33.809s33.809,15.167,33.809,33.809c0,18.642-15.166,33.808-33.809,33.808
					S111.301,53.532,111.301,34.891z"/>
			</g>
		</g>
	</g>
</g>
</svg>
