<svg xmlns="http://www.w3.org/2000/svg" xmlns:xlink="http://www.w3.org/1999/xlink" viewBox="0 0 180 182" width="180" height="182"><defs><style>.a{fill:url(#a);}.b{fill:none;}.c{isolation:isolate;}.d{fill:url(#b);}.e{clip-path:url(#d);}.f{fill:#105e06;}.g{fill:#002b82;}.h{fill:#05cddb;}.fs,.i{fill:#ffc600;}.fs,.ft,.fu,.fv,.fw,.ga,.gc,.j{mix-blend-mode:multiply;}.k{fill:#fff;}.l{fill:#fefefe;}.m{fill:#fdfdfd;}.n{fill:#fcfdfc;}.o{fill:#fbfcfb;}.p{fill:#fafbfa;}.q{fill:#f9faf9;}.r{fill:#f8f9f8;}.s{fill:#f7f9f7;}.t{fill:#f6f8f6;}.u{fill:#f5f7f5;}.v{fill:#f4f6f4;}.w{fill:#f3f5f3;}.x{fill:#f2f4f2;}.y{fill:#f1f4f1;}.z{fill:#f0f3f0;}.aa{fill:#eff2ef;}.ab{fill:#eef1ee;}.ac{fill:#edf0ed;}.ad{fill:#ecf0ec;}.ae{fill:#ebefeb;}.af{fill:#eaeeea;}.ag{fill:#e9ede9;}.ah{fill:#e8ece8;}.ai{fill:#e7ece7;}.aj{fill:#e6ebe6;}.ak{fill:#e5eae5;}.al{fill:#e4e9e4;}.am{fill:#e3e8e3;}.an{fill:#e2e8e2;}.ao{fill:#e1e7e1;}.ap{fill:#e1e6e0;}.aq{fill:#e0e5df;}.ar{fill:#dfe4de;}.as{fill:#dee4dd;}.at{fill:#dde3dc;}.au{fill:#dce2db;}.av{fill:#dbe1da;}.aw{fill:#dae0d9;}.ax{fill:#d9dfd8;}.ay{fill:#d8dfd7;}.az{fill:#d7ded6;}.ba{fill:#d6ddd5;}.bb{fill:#d5dcd4;}.bc{fill:#d4dbd3;}.bd{fill:#d3dbd2;}.be{fill:#d2dad1;}.bf{fill:#d1d9d0;}.bg{fill:#d0d8cf;}.bh{fill:#cfd7ce;}.bi{fill:#ced7cd;}.bj{fill:#cdd6cc;}.bk{fill:#ccd5cb;}.bl{fill:#cbd4ca;}.bm{fill:#cad3c9;}.bn{fill:#c9d3c8;}.bo{fill:#c8d2c7;}.bp{fill:#c7d1c6;}.bq{fill:#c6d0c5;}.br{fill:#c5cfc4;}.bs{fill:#c4cfc4;}.bt{fill:#c3cec3;}.bu{fill:#c2cdc2;}.bv{fill:#c1ccc1;}.bw{fill:#c0cbc0;}.bx{fill:#bfcabf;}.by{fill:#becabe;}.bz{fill:#bdc9bd;}.ca{fill:#bcc8bc;}.cb{fill:#bbc7bb;}.cc{fill:#bac6ba;}.cd{fill:#b9c6b9;}.ce{fill:#b8c5b8;}.cf{fill:#b7c4b7;}.cg{fill:#b6c3b6;}.ch{fill:#b5c2b5;}.ci{fill:#b4c2b4;}.cj{fill:#b3c1b3;}.ck{fill:#b2c0b2;}.cl{fill:#b1bfb1;}.cm{fill:#b0beb0;}.cn{fill:#afbeaf;}.co{fill:#aebdae;}.cp{fill:#adbcad;}.cq{fill:#acbbac;}.cr{fill:#abbaab;}.cs{fill:#aab9aa;}.ct{fill:#a9b9a9;}.cu{fill:#a8b8a8;}.cv{fill:#a7b7a7;}.cw{fill:#a7b6a6;}.cx{fill:#a6b5a5;}.cy{fill:#a5b5a4;}.cz{fill:#a4b4a3;}.da{fill:#a3b3a2;}.db{fill:#a2b2a1;}.dc{fill:#a1b1a0;}.dd{fill:#a0b19f;}.de{fill:#9fb09e;}.df{fill:#9eaf9d;}.dg{fill:#9dae9c;}.dh{fill:#9cad9b;}.di{fill:#9bad9a;}.dj{fill:#9aac99;}.dk{fill:#99ab98;}.dl{fill:#98aa97;}.dm{fill:#97a996;}.dn{fill:#96a995;}.do{fill:#95a894;}.dp{fill:#94a793;}.dq{fill:#93a692;}.dr{fill:#92a591;}.ds{fill:#91a490;}.dt{fill:#90a48f;}.du{fill:#8fa38e;}.dv{fill:#8ea28d;}.dw{fill:#8da18c;}.dx{fill:#8ca08b;}.dy{fill:#8ba08a;}.dz{fill:#8a9f89;}.ea{fill:#899e88;}.eb{fill:url(#e);}.ec{clip-path:url(#g);}.ed{fill:url(#h);}.ee{fill:url(#i);}.ef{fill:url(#j);}.eg{fill:url(#k);}.eh{fill:url(#l);}.ei{fill:url(#m);}.ej{fill:url(#n);}.ek{fill:url(#o);}.el{fill:url(#p);}.em{fill:url(#q);}.en{fill:url(#r);}.eo{fill:url(#s);}.ep{fill:url(#t);}.eq{fill:url(#u);}.er{fill:url(#v);}.es{fill:url(#w);}.et{fill:url(#x);}.eu{fill:url(#y);}.ev{fill:url(#z);}.ew{fill:url(#aa);}.ex{fill:url(#ab);}.ey{fill:url(#ac);}.ez{fill:url(#ad);}.fa{fill:url(#ae);}.fb{fill:url(#af);}.fc{fill:url(#ag);}.fd{fill:url(#ah);}.fe{fill:url(#ai);}.ff{fill:url(#aj);}.fg{fill:url(#ak);}.fh{fill:url(#al);}.fi{fill:url(#am);}.fj{fill:url(#an);}.fk{fill:url(#ao);}.fl{fill:url(#ap);}.fm{fill:url(#aq);}.fn{fill:url(#ar);}.fo{fill:url(#as);}.fp{fill:url(#at);}.fq{fill:url(#au);}.fr{fill:url(#av);}.ft{fill:#347800;}.fu,.fw,.fx,.ga,.gb,.gc{opacity:0.5;}.fu{fill:url(#aw);}.fv{fill:url(#ax);}.fw{fill:url(#ay);}.fx,.gb{mix-blend-mode:screen;}.fy{fill:url(#az);}.fz{fill:url(#ba);}.ga{fill:url(#bb);}.gb{fill:url(#bc);}.gc{fill:url(#bd);}.gd{fill:#63900a;}</style><linearGradient id="a" x1="65.7" y1="11.06" x2="117.29" y2="93.93" gradientUnits="userSpaceOnUse"><stop offset="0" stop-color="#77a100"/><stop offset="0.32" stop-color="#749e02"/><stop offset="0.59" stop-color="#699507"/><stop offset="0.84" stop-color="#588710"/><stop offset="1" stop-color="#497a17"/></linearGradient><linearGradient id="b" x1="71.28" y1="-0.42" x2="37.2" y2="49.92" gradientUnits="userSpaceOnUse"><stop offset="0" stop-color="#ffc600"/><stop offset="0.66" stop-color="#fcc200"/><stop offset="1" stop-color="#f7bd00"/></linearGradient><clipPath id="d"><path class="a" d="M140.5,41.2C136.9,19.3,118.9,3.2,98.7.3,85.1-1.6,66.9,5.6,66.3,18.2c-.1,1.7-.3,3.5-.5,5.3-1.1,4.5-5.2,2.3-6.6-3.8s-6.9,2.4-1.5,6.5a17.3,17.3,0,0,1,5.5,6.5c.5,1.2.5,2.3,0,2.7s-1.1.5-1.5.2a3,3,0,0,1-1-2,3.5,3.5,0,0,0-3.9-2.4,3.8,3.8,0,0,0-3.3,3.6c-.1,1.6.6,3.4,2.3,3.8s2.9.3,3.4,1.1.1.4-.1.8-.4.3-.9.4S51,42.1,48.6,38s-4.8,1.5-1.4,3.9,12.2.1,9.1,3.2-6,3.4-8.3,5c-6.3,4.2-7.9,9.5-4,21.3S56.5,90.7,67.1,96.2c12.5,6.4,31.2,7.2,45.7-.3C132.9,85.4,144.2,64,140.5,41.2Z"/></clipPath><linearGradient id="e" x1="115.42" y1="48.94" x2="115.7" y2="52.04" gradientUnits="userSpaceOnUse"><stop offset="0" stop-color="#fff"/><stop offset="1" stop-color="#a9a9a1" stop-opacity="0"/></linearGradient><clipPath id="g"><path class="b" d="M105.8,98.3C97.2,97,95.4,88,100.6,84.5L103,83c5.6-3.5,9.4-9.9,11.3-20.4a84.8,84.8,0,0,0,1.2-8.9h0a2.1,2.1,0,0,0-1.3-2.2,4.5,4.5,0,0,0,1.6-2.4c0-2.9-.1-5.7-.3-8.5a6,6,0,0,0-3.9-5.1l-1.2-.5-.6-3.6a2.6,2.6,0,0,0-1.6-2.1c-6.5-3-4.9-8.5-4.3-12.8a2.9,2.9,0,0,0,3.9-2.2l.3-1.3a1.9,1.9,0,0,0-1.3-2.2A60.5,60.5,0,0,0,90.6,8.6a62.3,62.3,0,0,0-15.9,2.2,2.4,2.4,0,0,0-1.6,2.8l.2.8a3,3,0,0,0,3.9,2.2c.5,4.6,1.6,10-3.8,13a4.5,4.5,0,0,0-2.2,3.2l-.5,2.8-1.5.7a5.8,5.8,0,0,0-3.5,5.1,57.5,57.5,0,0,0-.1,8.3h0c0,1.2,1.5,2.4,1.5,2.4A2.1,2.1,0,0,0,66,54.3h0c.4,2.5.9,5.3,1.6,8.4,2.4,10.6,7.1,16.9,13,21l1.9,1.3c4.6,3.1,1.8,11.8-6.7,13.4a7.8,7.8,0,0,0-5.8,4.3l-.8,1.8a.9.9,0,0,0,.6,1.2,76.6,76.6,0,0,0,20.8,2.7,86.1,86.1,0,0,0,20.9-2.6,1,1,0,0,0,.6-1.3l-1.2-2.3A6.9,6.9,0,0,0,105.8,98.3Z"/></clipPath><linearGradient id="h" x1="65.32" y1="58.7" x2="115.62" y2="58.7" gradientUnits="userSpaceOnUse"><stop offset="0" stop-color="#cfcca5"/><stop offset="0.23" stop-color="#dee8e7"/><stop offset="0.37" stop-color="#dbe5e2"/><stop offset="0.53" stop-color="#d3dbd4"/><stop offset="0.69" stop-color="#c5cabd"/><stop offset="0.86" stop-color="#b1b39d"/><stop offset="1" stop-color="#9e9c7e"/></linearGradient><linearGradient id="i" x1="65.42" y1="58.7" x2="114.61" y2="58.7" gradientUnits="userSpaceOnUse"><stop offset="0" stop-color="#d0cda7"/><stop offset="0.23" stop-color="#dfe9e8"/><stop offset="0.37" stop-color="#dce6e3"/><stop offset="0.53" stop-color="#d4dbd5"/><stop offset="0.7" stop-color="#c6cbbe"/><stop offset="0.87" stop-color="#b2b39e"/><stop offset="1" stop-color="#a09e81"/></linearGradient><linearGradient id="j" x1="65.52" y1="58.69" x2="113.61" y2="58.69" gradientUnits="userSpaceOnUse"><stop offset="0" stop-color="#d1cea9"/><stop offset="0.23" stop-color="#e0e9e8"/><stop offset="0.37" stop-color="#dde6e3"/><stop offset="0.53" stop-color="#d5dcd5"/><stop offset="0.7" stop-color="#c7cbbe"/><stop offset="0.88" stop-color="#b3b49e"/><stop offset="1" stop-color="#a3a184"/></linearGradient><linearGradient id="k" x1="65.62" y1="58.69" x2="112.6" y2="58.69" gradientUnits="userSpaceOnUse"><stop offset="0" stop-color="#d3d0ac"/><stop offset="0.23" stop-color="#e0eae9"/><stop offset="0.38" stop-color="#dde7e4"/><stop offset="0.54" stop-color="#d5ddd6"/><stop offset="0.71" stop-color="#c7ccbf"/><stop offset="0.89" stop-color="#b4b59f"/><stop offset="1" stop-color="#a5a387"/></linearGradient><linearGradient id="l" x1="65.72" y1="58.68" x2="111.6" y2="58.68" gradientUnits="userSpaceOnUse"><stop offset="0" stop-color="#d4d1ae"/><stop offset="0.23" stop-color="#e1eae9"/><stop offset="0.38" stop-color="#dee7e4"/><stop offset="0.54" stop-color="#d6ddd6"/><stop offset="0.72" stop-color="#c7ccbf"/><stop offset="0.9" stop-color="#b4b59f"/><stop offset="1" stop-color="#a7a68b"/></linearGradient><linearGradient id="m" x1="65.82" y1="58.68" x2="110.59" y2="58.68" gradientUnits="userSpaceOnUse"><stop offset="0" stop-color="#d5d2b0"/><stop offset="0.23" stop-color="#e2ebea"/><stop offset="0.38" stop-color="#dfe8e5"/><stop offset="0.55" stop-color="#d7ddd7"/><stop offset="0.73" stop-color="#c9cdc0"/><stop offset="0.91" stop-color="#b5b5a0"/><stop offset="1" stop-color="#aaa88e"/></linearGradient><linearGradient id="n" x1="65.92" y1="58.67" x2="109.59" y2="58.67" gradientUnits="userSpaceOnUse"><stop offset="0" stop-color="#d6d3b2"/><stop offset="0.23" stop-color="#e3ebeb"/><stop offset="0.38" stop-color="#e0e8e6"/><stop offset="0.55" stop-color="#d8ded8"/><stop offset="0.73" stop-color="#cacdc1"/><stop offset="0.92" stop-color="#b6b6a1"/><stop offset="1" stop-color="#acaa91"/></linearGradient><linearGradient id="o" x1="66.02" y1="58.67" x2="108.59" y2="58.67" gradientUnits="userSpaceOnUse"><stop offset="0" stop-color="#d7d5b4"/><stop offset="0.23" stop-color="#e4eceb"/><stop offset="0.38" stop-color="#e1e9e6"/><stop offset="0.56" stop-color="#d9dfd8"/><stop offset="0.74" stop-color="#cbcec1"/><stop offset="0.93" stop-color="#b7b7a1"/><stop offset="1" stop-color="#afad94"/></linearGradient><linearGradient id="p" x1="66.12" y1="58.66" x2="107.66" y2="58.66" gradientUnits="userSpaceOnUse"><stop offset="0" stop-color="#d8d6b7"/><stop offset="0.23" stop-color="#e4ecec"/><stop offset="0.39" stop-color="#e1e9e7"/><stop offset="0.56" stop-color="#d9dfd9"/><stop offset="0.75" stop-color="#cbcec2"/><stop offset="0.94" stop-color="#b8b7a2"/><stop offset="1" stop-color="#b1af97"/></linearGradient><linearGradient id="q" x1="66.22" y1="58.66" x2="107.25" y2="58.66" gradientUnits="userSpaceOnUse"><stop offset="0" stop-color="#dad7b9"/><stop offset="0.23" stop-color="#e5edec"/><stop offset="0.39" stop-color="#e2eae7"/><stop offset="0.57" stop-color="#dae0d9"/><stop offset="0.76" stop-color="#cccfc2"/><stop offset="0.95" stop-color="#b8b8a2"/><stop offset="1" stop-color="#b3b29a"/></linearGradient><linearGradient id="r" x1="66.32" y1="58.65" x2="107.16" y2="58.65" gradientUnits="userSpaceOnUse"><stop offset="0" stop-color="#dbd8bb"/><stop offset="0.23" stop-color="#e6eeed"/><stop offset="0.39" stop-color="#e3ebe8"/><stop offset="0.57" stop-color="#dbe0da"/><stop offset="0.77" stop-color="#cdd0c3"/><stop offset="0.96" stop-color="#bab9a3"/><stop offset="1" stop-color="#b6b49d"/></linearGradient><linearGradient id="s" x1="66.41" y1="58.64" x2="107.08" y2="58.64" gradientUnits="userSpaceOnUse"><stop offset="0" stop-color="#dcdabd"/><stop offset="0.23" stop-color="#e7eeed"/><stop offset="0.4" stop-color="#e4ebe8"/><stop offset="0.58" stop-color="#dbe1da"/><stop offset="0.78" stop-color="#cdd0c3"/><stop offset="0.99" stop-color="#bab9a3"/><stop offset="1" stop-color="#b8b7a1"/></linearGradient><linearGradient id="t" x1="66.51" y1="58.64" x2="107" y2="58.64" gradientUnits="userSpaceOnUse"><stop offset="0" stop-color="#dddbbf"/><stop offset="0.23" stop-color="#e8efee"/><stop offset="0.4" stop-color="#e5ece9"/><stop offset="0.59" stop-color="#dce1db"/><stop offset="0.79" stop-color="#ced1c4"/><stop offset="1" stop-color="#bab9a4"/><stop offset="1" stop-color="#bab9a4"/></linearGradient><linearGradient id="u" x1="66.61" y1="58.63" x2="106.91" y2="58.63" gradientUnits="userSpaceOnUse"><stop offset="0" stop-color="#dedcc2"/><stop offset="0.23" stop-color="#e8efef"/><stop offset="0.4" stop-color="#e5ecea"/><stop offset="0.59" stop-color="#dde2dc"/><stop offset="0.8" stop-color="#cfd1c5"/><stop offset="1" stop-color="#bdbba7"/></linearGradient><linearGradient id="v" x1="66.71" y1="58.62" x2="106.83" y2="58.62" gradientUnits="userSpaceOnUse"><stop offset="0" stop-color="#dfddc4"/><stop offset="0.23" stop-color="#e9f0ef"/><stop offset="0.41" stop-color="#e6edea"/><stop offset="0.6" stop-color="#dee3dc"/><stop offset="0.81" stop-color="#d0d2c5"/><stop offset="1" stop-color="#bfbeaa"/></linearGradient><linearGradient id="w" x1="66.8" y1="58.62" x2="106.74" y2="58.62" gradientUnits="userSpaceOnUse"><stop offset="0" stop-color="#e1dfc6"/><stop offset="0.23" stop-color="#eaf0f0"/><stop offset="0.41" stop-color="#e7edeb"/><stop offset="0.61" stop-color="#dfe3dd"/><stop offset="0.82" stop-color="#d1d2c6"/><stop offset="1" stop-color="#c1c0ad"/></linearGradient><linearGradient id="x" x1="66.9" y1="58.61" x2="106.66" y2="58.61" gradientUnits="userSpaceOnUse"><stop offset="0" stop-color="#e2e0c8"/><stop offset="0.23" stop-color="#ebf1f0"/><stop offset="0.41" stop-color="#e8eeeb"/><stop offset="0.62" stop-color="#e0e4dd"/><stop offset="0.84" stop-color="#d2d3c6"/><stop offset="1" stop-color="#c4c3b0"/></linearGradient><linearGradient id="y" x1="67" y1="58.6" x2="106.57" y2="58.6" gradientUnits="userSpaceOnUse"><stop offset="0" stop-color="#e3e1ca"/><stop offset="0.23" stop-color="#ecf2f1"/><stop offset="0.42" stop-color="#e9efec"/><stop offset="0.62" stop-color="#e1e4de"/><stop offset="0.85" stop-color="#d3d4c7"/><stop offset="1" stop-color="#c6c5b3"/></linearGradient><linearGradient id="z" x1="67.09" y1="58.59" x2="106.49" y2="58.59" gradientUnits="userSpaceOnUse"><stop offset="0" stop-color="#e4e2cd"/><stop offset="0.23" stop-color="#ecf2f2"/><stop offset="0.42" stop-color="#e9efed"/><stop offset="0.64" stop-color="#e1e4df"/><stop offset="0.86" stop-color="#d3d4c8"/><stop offset="1" stop-color="#c9c7b7"/></linearGradient><linearGradient id="aa" x1="67.19" y1="58.58" x2="106.41" y2="58.58" gradientUnits="userSpaceOnUse"><stop offset="0" stop-color="#e5e4cf"/><stop offset="0.23" stop-color="#edf3f2"/><stop offset="0.43" stop-color="#eaf0ed"/><stop offset="0.65" stop-color="#e2e5df"/><stop offset="0.88" stop-color="#d4d5c8"/><stop offset="1" stop-color="#cbcaba"/></linearGradient><linearGradient id="ab" x1="67.29" y1="58.57" x2="106.32" y2="58.57" gradientUnits="userSpaceOnUse"><stop offset="0" stop-color="#e6e5d1"/><stop offset="0.23" stop-color="#eef3f3"/><stop offset="0.43" stop-color="#ebf0ee"/><stop offset="0.66" stop-color="#e3e6e0"/><stop offset="0.9" stop-color="#d5d5c9"/><stop offset="1" stop-color="#cdccbd"/></linearGradient><linearGradient id="ac" x1="67.38" y1="58.56" x2="106.24" y2="58.56" gradientUnits="userSpaceOnUse"><stop offset="0" stop-color="#e8e6d3"/><stop offset="0.23" stop-color="#eff4f3"/><stop offset="0.44" stop-color="#ecf1ee"/><stop offset="0.67" stop-color="#e4e6e0"/><stop offset="0.92" stop-color="#d6d6c9"/><stop offset="1" stop-color="#d0cfc0"/></linearGradient><linearGradient id="ad" x1="67.48" y1="58.55" x2="106.15" y2="58.55" gradientUnits="userSpaceOnUse"><stop offset="0" stop-color="#e9e7d5"/><stop offset="0.23" stop-color="#f0f4f4"/><stop offset="0.44" stop-color="#edf1ef"/><stop offset="0.68" stop-color="#e5e7e1"/><stop offset="0.93" stop-color="#d7d6ca"/><stop offset="1" stop-color="#d2d1c3"/></linearGradient><linearGradient id="ae" x1="67.58" y1="58.54" x2="106.07" y2="58.54" gradientUnits="userSpaceOnUse"><stop offset="0" stop-color="#eae9d7"/><stop offset="0.23" stop-color="#f1f5f4"/><stop offset="0.45" stop-color="#eef2ef"/><stop offset="0.7" stop-color="#e5e8e1"/><stop offset="0.96" stop-color="#d7d7ca"/><stop offset="1" stop-color="#d4d4c6"/></linearGradient><linearGradient id="af" x1="67.67" y1="58.53" x2="105.99" y2="58.53" gradientUnits="userSpaceOnUse"><stop offset="0" stop-color="#ebeada"/><stop offset="0.23" stop-color="#f1f5f5"/><stop offset="0.46" stop-color="#eef2f0"/><stop offset="0.71" stop-color="#e6e8e2"/><stop offset="0.99" stop-color="#d8d7cb"/><stop offset="1" stop-color="#d7d6ca"/></linearGradient><linearGradient id="ag" x1="67.77" y1="58.52" x2="105.9" y2="58.52" gradientUnits="userSpaceOnUse"><stop offset="0" stop-color="#ecebdc"/><stop offset="0.23" stop-color="#f2f6f6"/><stop offset="0.46" stop-color="#eff3f1"/><stop offset="0.73" stop-color="#e7e8e3"/><stop offset="1" stop-color="#d9d8cd"/></linearGradient><linearGradient id="ah" x1="67.87" y1="58.5" x2="105.82" y2="58.5" gradientUnits="userSpaceOnUse"><stop offset="0" stop-color="#edecde"/><stop offset="0.23" stop-color="#f3f7f6"/><stop offset="0.47" stop-color="#f0f4f1"/><stop offset="0.75" stop-color="#e8e9e3"/><stop offset="1" stop-color="#dcdbd0"/></linearGradient><linearGradient id="ai" x1="67.96" y1="58.49" x2="105.73" y2="58.49" gradientUnits="userSpaceOnUse"><stop offset="0" stop-color="#efeee0"/><stop offset="0.23" stop-color="#f4f7f7"/><stop offset="0.48" stop-color="#f1f4f2"/><stop offset="0.76" stop-color="#e9eae4"/><stop offset="1" stop-color="#deddd3"/></linearGradient><linearGradient id="aj" x1="68.06" y1="58.48" x2="105.65" y2="58.48" gradientUnits="userSpaceOnUse"><stop offset="0" stop-color="#f0efe2"/><stop offset="0.23" stop-color="#f5f8f7"/><stop offset="0.49" stop-color="#f2f5f2"/><stop offset="0.79" stop-color="#e9eae4"/><stop offset="1" stop-color="#e0e0d6"/></linearGradient><linearGradient id="ak" x1="68.16" y1="58.46" x2="105.57" y2="58.46" gradientUnits="userSpaceOnUse"><stop offset="0" stop-color="#f1f0e5"/><stop offset="0.23" stop-color="#f5f8f8"/><stop offset="0.5" stop-color="#f2f5f3"/><stop offset="0.81" stop-color="#eaebe5"/><stop offset="1" stop-color="#e3e2d9"/></linearGradient><linearGradient id="al" x1="68.25" y1="58.45" x2="105.48" y2="58.45" gradientUnits="userSpaceOnUse"><stop offset="0" stop-color="#f2f1e7"/><stop offset="0.23" stop-color="#f6f9f9"/><stop offset="0.51" stop-color="#f3f6f4"/><stop offset="0.83" stop-color="#ebece6"/><stop offset="1" stop-color="#e5e4dc"/></linearGradient><linearGradient id="am" x1="68.35" y1="58.43" x2="105.4" y2="58.43" gradientUnits="userSpaceOnUse"><stop offset="0" stop-color="#f3f3e9"/><stop offset="0.23" stop-color="#f7f9f9"/><stop offset="0.54" stop-color="#f4f6f4"/><stop offset="0.88" stop-color="#ebece6"/><stop offset="1" stop-color="#e7e7e0"/></linearGradient><linearGradient id="an" x1="68.45" y1="58.41" x2="105.31" y2="58.41" gradientUnits="userSpaceOnUse"><stop offset="0" stop-color="#f4f4eb"/><stop offset="0.23" stop-color="#f8fafa"/><stop offset="0.55" stop-color="#f5f6f5"/><stop offset="0.91" stop-color="#edece7"/><stop offset="1" stop-color="#eae9e3"/></linearGradient><linearGradient id="ao" x1="68.54" y1="58.39" x2="105.23" y2="58.39" gradientUnits="userSpaceOnUse"><stop offset="0" stop-color="#f6f5ed"/><stop offset="0.23" stop-color="#f9fbfa"/><stop offset="0.58" stop-color="#f6f7f5"/><stop offset="0.97" stop-color="#edede7"/><stop offset="1" stop-color="#ecece6"/></linearGradient><linearGradient id="ap" x1="68.64" y1="58.38" x2="105.15" y2="58.38" gradientUnits="userSpaceOnUse"><stop offset="0" stop-color="#f7f6f0"/><stop offset="0.23" stop-color="#f9fbfb"/><stop offset="0.6" stop-color="#f6f8f6"/><stop offset="1" stop-color="#eeeee9"/></linearGradient><linearGradient id="aq" x1="68.74" y1="58.36" x2="105.06" y2="58.36" gradientUnits="userSpaceOnUse"><stop offset="0" stop-color="#f8f8f2"/><stop offset="0.23" stop-color="#fafcfb"/><stop offset="0.64" stop-color="#f7f9f6"/><stop offset="1" stop-color="#f1f1ec"/></linearGradient><linearGradient id="ar" x1="68.83" y1="58.34" x2="104.98" y2="58.34" gradientUnits="userSpaceOnUse"><stop offset="0" stop-color="#f9f9f4"/><stop offset="0.23" stop-color="#fbfcfc"/><stop offset="0.67" stop-color="#f8f9f7"/><stop offset="1" stop-color="#f3f3ef"/></linearGradient><linearGradient id="as" x1="68.93" y1="58.32" x2="104.9" y2="58.32" gradientUnits="userSpaceOnUse"><stop offset="0" stop-color="#fafaf6"/><stop offset="0.23" stop-color="#fcfdfd"/><stop offset="0.71" stop-color="#f9faf8"/><stop offset="1" stop-color="#f6f5f2"/></linearGradient><linearGradient id="at" x1="69.02" y1="58.3" x2="104.81" y2="58.3" gradientUnits="userSpaceOnUse"><stop offset="0" stop-color="#fbfbf8"/><stop offset="0.23" stop-color="#fdfdfd"/><stop offset="0.85" stop-color="#fafaf8"/><stop offset="1" stop-color="#f8f8f6"/></linearGradient><linearGradient id="au" x1="69.12" y1="58.27" x2="104.73" y2="58.27" gradientUnits="userSpaceOnUse"><stop offset="0" stop-color="#fdfdfb"/><stop offset="0.23" stop-color="#fdfefe"/><stop offset="0.98" stop-color="#fafaf9"/><stop offset="1" stop-color="#fafaf9"/></linearGradient><linearGradient id="av" x1="69.22" y1="58.25" x2="104.64" y2="58.25" gradientUnits="userSpaceOnUse"><stop offset="0" stop-color="#fefefd"/><stop offset="0.23" stop-color="#fefefe"/><stop offset="1" stop-color="#fdfdfc"/></linearGradient><linearGradient id="aw" x1="95.77" y1="94.5" x2="98.65" y2="101.33" gradientUnits="userSpaceOnUse"><stop offset="0" stop-color="#969478"/><stop offset="1" stop-color="#a9a9a1" stop-opacity="0"/></linearGradient><linearGradient id="ax" x1="78.45" y1="109.27" x2="81.66" y2="103" xlink:href="#aw"/><linearGradient id="ay" x1="90.6" y1="35.91" x2="90.4" y2="33.45" xlink:href="#aw"/><linearGradient id="az" x1="110.11" y1="32.27" x2="110.39" y2="35.36" xlink:href="#e"/><linearGradient id="ba" x1="90.09" y1="33.89" x2="90.37" y2="36.98" gradientUnits="userSpaceOnUse"><stop offset="0" stop-color="#fff"/><stop offset="1" stop-color="#fffff3" stop-opacity="0"/></linearGradient><linearGradient id="bb" x1="90.89" y1="53.1" x2="90.7" y2="49.98" xlink:href="#aw"/><linearGradient id="bc" x1="90.26" y1="49.37" x2="90.67" y2="52.93" xlink:href="#ba"/><linearGradient id="bd" x1="90.4" y1="14.5" x2="90.4" y2="24.99" xlink:href="#aw"/></defs><title>logo-ca</title><g class="c"><path class="d" d="M40.1,35.9a30.9,30.9,0,0,0-1.2,13.4c.3,2.6,2.4,3.3,4.7,1.3,11.2-10,18-20.7,19.3-32.4.6-5.7,4-9.3,6.9-12s6-6.6.6-4.2C57.1,7.8,45.4,18,40.1,35.9Z"/><path class="a" d="M140.5,41.2C136.9,19.3,118.9,3.2,98.7.3,85.1-1.6,66.9,5.6,66.3,18.2c-.1,1.7-.3,3.5-.5,5.3-1.1,4.5-5.2,2.3-6.6-3.8s-6.9,2.4-1.5,6.5a17.3,17.3,0,0,1,5.5,6.5c.5,1.2.5,2.3,0,2.7s-1.1.5-1.5.2a3,3,0,0,1-1-2,3.5,3.5,0,0,0-3.9-2.4,3.8,3.8,0,0,0-3.3,3.6c-.1,1.6.6,3.4,2.3,3.8s2.9.3,3.4,1.1.1.4-.1.8-.4.3-.9.4S51,42.1,48.6,38s-4.8,1.5-1.4,3.9,12.2.1,9.1,3.2-6,3.4-8.3,5c-6.3,4.2-7.9,9.5-4,21.3S56.5,90.7,67.1,96.2c12.5,6.4,31.2,7.2,45.7-.3C132.9,85.4,144.2,64,140.5,41.2Z"/><g class="e"><path class="f" d="M80,103.3c-7.4,9.5,10.6-14.7,7.4-23.5C85.3,74,69.2,65.1,67.8,52.5c-.8-7-9.7-4.9-6,1.6,2.6,4.3,3.4,9.1,2.5,14.7s-2.1-1.3-2.2-2.7c-.4-3.9-4.9-2.5-6,0s1.2,4.6,2.8,7.3c.5.8-.1,1.3-.8.9-4.2-2.7-6-5.1-5.8-11.2.3-8.6-5.8-7.3-5.3-1.9,1.3,15.5,9.5,21.9,21.1,24.7C85.4,90.2,71.4,98,71.4,98Z"/><path class="g" d="M128.1,21.5c-2-2.3-8.8-2.1-4.1,3.8,3.5,4.4,6.2,6.4,3.8,12.5-.6,1.5-4.1,3.4-2.3-1.1s-2.2-7-4.7-5.5-3,4-2.5,5.3c1.6,4-.5,4.7-.8,2.8-1.1-6.9-5.5-11.1-9.6-14.6s-8.3,2.4-4.6,4.3c5.7,2.9,11.1,13.2,10.1,17.7-2.1,9.6-1.5,12.8-10,18.1-2.4,1.4.2,5.6-3.8,8.5,0,0-14.6-33.6-11.6-3.8,1.3,13.7,7.9,27.5,15.4,26.3,10.3-1.5,11.7-12.6,14.5-30.9,2.3-15.4,9.7-16.4,15-25.3C135.5,35.1,133,27.1,128.1,21.5Z"/><path class="h" d="M133.7,43.6c-3.2,4.1-6.1,6.4-8.9,9.3s-4.2,6.8-4.6,12.3c-.7,9.3-1.4,15.2-3.7,21.1-.9,2-.4,2.7,1.9,1.1,16-11.2,20.5-29.6,19.1-42.4C137.2,41.8,135.2,41.7,133.7,43.6Z"/><path class="i" d="M113.3,19.5c.8-1.3.1-3.2.9-3.1s1,1.1,1.5,2a1.3,1.3,0,0,0,1.6.6,3.6,3.6,0,0,1,1.5,0c.5.2-.1.7-1.1,1.2s-1.1.7-.6,1.6,1.1,1.7,1.2,2.4-.8.1-1.5-.7-1.4-1.2-1.8-.8-.7,1.5-1.2,1.8-.7.1-.7-.6.8-1.9-.3-2.4-1.6-.4-2.1-1.1S112.9,20.2,113.3,19.5Z"/><g class="j"><path class="k" d="M61.9,98.9c8.1-2.1,13.7-6.8,11.5-13-3.2-9.2-13.6-11.4-15-24.3C57.3,51,58.4,40,65.4,32s3.1-9.7,4.7-17.5S80.8,4.1,93.5,4.1s20.3,8.7,22.3,16.8,3.3,9.1,6.1,18c2.3,7.3,1.3,12.7,0,22.6-1.9,13.9-4.1,11-6.8,22.3-1.4,6,7.1,9,12.3,15.8C137.6,112.9,38,105,61.9,98.9Z"/><path class="l" d="M62.1,98.9c8-2.1,13.7-6.8,11.4-13.1-3.4-9.1-13.6-11.4-15-24.3-1.2-10.6,0-21.4,7-29.5s3.1-9.7,4.7-17.4S80.8,4.2,93.5,4.2s20.3,8.6,22.2,16.7,3.3,9.1,6.1,18c2.3,7.3,1.4,12.7,0,22.5-1.8,14-4,11.1-6.8,22.4-1.5,6,7,9,12.2,15.8C137.4,112.9,38.3,105,62.1,98.9Z"/><path class="m" d="M62.2,98.9c7.9-2.1,13.7-6.7,11.3-13.1-3.4-9.1-13.6-11.5-15-24.3-1.1-10.6.1-21.4,7-29.4s3.2-9.7,4.8-17.5S80.8,4.3,93.4,4.3s20.3,8.5,22.2,16.6,3.2,9,6.1,17.9c2.3,7.3,1.4,12.7.1,22.6-1.9,14-4,11.2-6.9,22.4-1.6,6,6.9,9,12.1,15.8C137.3,112.8,38.7,105.1,62.2,98.9Z"/><path class="n" d="M62.3,99c7.9-2.1,13.7-6.8,11.3-13.2-3.5-9-13.6-11.5-15-24.4-1.1-10.6,0-21.2,7-29.3s3.2-9.7,4.8-17.4S80.8,4.3,93.4,4.3s20.2,8.5,22.1,16.6,3.2,9,6.1,17.9c2.4,7.3,1.4,12.6.1,22.5-1.8,14-3.9,11.4-6.9,22.5-1.6,6.1,6.8,9.1,12.1,15.8C137.2,112.8,39,105.2,62.3,99Z"/><path class="o" d="M62.5,99c7.8-2.1,13.7-6.8,11.2-13.2-3.6-9-13.7-11.6-15-24.5-1.2-10.5,0-21.1,6.9-29.1s3.3-9.7,4.8-17.5S80.8,4.4,93.4,4.4s20.1,8.4,22,16.5,3.2,9,6.1,17.8c2.4,7.3,1.5,12.7.2,22.6-1.9,14-3.9,11.4-7,22.5-1.7,6.1,6.7,9.1,12,15.8C137,112.7,39.4,105.2,62.5,99Z"/><path class="p" d="M62.6,99c7.7-2.1,13.7-6.8,11.1-13.2-3.6-9-13.6-11.7-15-24.5-1.1-10.6.1-21,7-29.1s3.3-9.7,4.8-17.4S80.8,4.5,93.4,4.5s20,8.3,21.8,16.4,3.2,8.9,6.2,17.8c2.4,7.3,1.5,12.6.2,22.5-1.8,14-3.8,11.6-7,22.6-1.8,6.1,6.6,9.1,11.9,15.8C136.9,112.7,39.7,105.3,62.6,99Z"/><path class="q" d="M62.7,99c7.7-2.1,13.7-6.8,11.1-13.2-3.7-9-13.6-11.8-15-24.6-1.1-10.6,0-20.9,6.9-28.9s3.4-9.7,4.9-17.5S80.8,4.5,93.3,4.5s20.1,8.3,21.8,16.4,3.2,8.9,6.2,17.7c2.4,7.3,1.5,12.7.2,22.6-1.8,14-3.7,11.6-7,22.6C112.7,90,121,93,126.3,99.5,136.8,112.6,40.1,105.4,62.7,99Z"/><path class="r" d="M62.9,99.1c7.6-2.2,13.7-6.8,10.9-13.4-3.7-8.8-13.6-11.8-14.9-24.6-1.1-10.5,0-20.7,6.9-28.8s3.4-9.7,4.9-17.5S80.8,4.6,93.3,4.6s20,8.2,21.7,16.3,3.1,8.9,6.1,17.7c2.6,7.2,1.7,12.6.4,22.5-1.8,14-3.7,11.8-7.1,22.7-1.9,6.2,6.4,9.2,11.7,15.7C136.7,112.6,40.4,105.4,62.9,99.1Z"/><path class="s" d="M63,99.1c7.5-2.2,13.7-6.8,10.9-13.4-3.8-8.8-13.6-11.9-15-24.6-1.1-10.6.1-20.7,6.9-28.7s3.5-9.7,5-17.5S80.8,4.6,93.3,4.6s19.9,8.2,21.6,16.3,3.1,8.8,6.1,17.6,1.7,12.7.4,22.6c-1.8,14-3.6,11.9-7.1,22.7-2,6.2,6.3,9.2,11.7,15.7C136.5,112.5,40.8,105.5,63,99.1Z"/><path class="t" d="M63.1,99.1c7.5-2.2,13.7-6.8,10.8-13.4C70.1,76.9,60.4,73.8,59,61c-1.1-10.6,0-20.6,6.9-28.6s3.6-9.7,5-17.5S80.8,4.7,93.3,4.7s19.8,8.1,21.5,16.2,3,8.8,6.1,17.6c2.6,7.2,1.7,12.6.5,22.5-1.9,14-3.6,12-7.2,22.8-2.1,6.3,6.3,9.2,11.6,15.7C136.4,112.5,41.1,105.5,63.1,99.1Z"/><path class="u" d="M63.3,99.1C70.7,97,77,92.3,74,85.7c-3.9-8.8-13.6-12-14.9-24.8-1.1-10.5,0-20.4,6.8-28.4s3.7-9.7,5-17.5S80.8,4.8,93.2,4.8s19.9,8,21.5,16.1,3,8.8,6.1,17.5,1.8,12.7.5,22.5c-1.8,14.1-3.5,12.2-7.2,22.9-2.1,6.3,6.2,9.3,11.5,15.7C136.3,112.4,41.5,105.6,63.3,99.1Z"/><path class="v" d="M63.4,99.2C70.7,97,77.1,92.3,74,85.7,70.1,77,60.5,73.6,59.1,60.9,58,50.3,59.2,40.5,66,32.5s3.7-9.7,5-17.5S80.8,4.8,93.2,4.8s19.8,8,21.4,16.1,2.9,8.7,6.1,17.5c2.6,7.2,1.8,12.6.5,22.5-1.8,14-3.5,12.2-7.2,22.9-2.2,6.3,6.1,9.3,11.4,15.7C136.2,112.4,41.8,105.7,63.4,99.2Z"/><path class="w" d="M63.5,99.2c7.3-2.2,13.7-6.8,10.6-13.6-4-8.6-13.5-12.1-14.9-24.8-1.1-10.5,0-20.2,6.9-28.2s3.7-9.7,5-17.5S80.8,4.9,93.2,4.9s19.7,7.9,21.3,16,2.9,8.7,6.1,17.4,1.8,12.7.6,22.5c-1.8,14.1-3.5,12.4-7.3,23-2.3,6.3,6,9.3,11.3,15.7C136,112.3,42.2,105.7,63.5,99.2Z"/><path class="x" d="M63.7,99.2c7.1-2.2,13.7-6.8,10.5-13.6C70.1,77,60.6,73.4,59.3,60.7c-1.1-10.5,0-20.1,6.8-28.1s3.8-9.7,5.1-17.5,9.6-10.2,22-10.2,19.6,7.9,21.2,16,2.9,8.6,6.1,17.4c2.7,7.2,1.9,12.6.6,22.5-1.8,14-3.4,12.5-7.3,22.9-2.4,6.5,5.9,9.5,11.2,15.8C135.9,112.3,42.6,105.8,63.7,99.2Z"/><path class="y" d="M63.8,99.3c7.1-2.3,13.7-6.9,10.4-13.7C70.1,77,60.7,73.3,59.3,60.7c-1.1-10.6.1-20,6.9-28S70,23,71.3,15.1,80.8,5,93.2,5s19.6,7.8,21.1,15.9,2.8,8.6,6.1,17.3,1.9,12.6.6,22.5c-1.7,14.1-3.3,12.6-7.3,23-2.5,6.5,5.8,9.5,11.2,15.8C135.8,112.2,42.9,105.9,63.8,99.3Z"/><path class="z" d="M63.9,99.3C71,97,77.7,92.4,74.3,85.6c-4.2-8.5-13.6-12.3-14.9-25-1.1-10.5,0-19.9,6.8-27.9s3.9-9.7,5.2-17.5S80.8,5.1,93.1,5.1s19.6,7.6,21.1,15.8,2.8,8.6,6.1,17.3c2.7,7.2,1.9,12.6.7,22.5-1.8,14-3.4,12.7-7.4,23-2.5,6.5,5.7,9.5,11.1,15.8C135.7,112.2,43.3,105.9,63.9,99.3Z"/><path class="aa" d="M64.1,99.3C71,97,77.8,92.4,74.3,85.6c-4.2-8.5-13.5-12.4-14.8-25.1-1.1-10.5,0-19.7,6.8-27.7s3.9-9.7,5.1-17.6S80.8,5.1,93.1,5.1s19.5,7.6,21,15.8,2.7,8.5,6.1,17.2,2,12.6.7,22.5c-1.7,14.1-3.3,12.9-7.4,23.1-2.6,6.6,5.6,9.5,11,15.7C135.5,112.1,43.6,106,64.1,99.3Z"/><path class="ab" d="M64.2,99.3c6.9-2.2,13.7-6.8,10.2-13.8s-13.5-12.4-14.9-25c-1.1-10.5.1-19.7,6.8-27.7s4-9.7,5.2-17.5S80.8,5.2,93.1,5.2s19.4,7.5,20.9,15.7,2.7,8.5,6,17.2c2.9,7.2,2.1,12.6.9,22.5-1.8,14-3.3,12.9-7.5,23.1-2.7,6.6,5.5,9.6,10.9,15.7C135.4,112,44,106,64.2,99.3Z"/><path class="ac" d="M64.3,99.4c6.9-2.3,13.8-6.9,10.1-13.9S60.9,73,59.6,60.4c-1.1-10.5,0-19.6,6.8-27.5s4-9.8,5.2-17.6S80.8,5.2,93.1,5.2s19.4,7.5,20.8,15.7c1.2,6.6,2.6,8.5,6,17.1s2.1,12.6.9,22.5c-1.8,14.1-3.3,13.1-7.5,23.2-2.8,6.6,5.4,9.6,10.8,15.7C135.3,112,44.3,106.1,64.3,99.4Z"/><path class="ad" d="M64.5,99.4c6.7-2.3,13.7-6.9,10-13.9S61,72.9,59.7,60.3c-1.1-10.5,0-19.4,6.7-27.4s4.1-9.7,5.3-17.5S80.8,5.3,93,5.3s19.4,7.4,20.8,15.6c1.1,6.6,2.6,8.4,6,17.1s2.2,12.6.9,22.5c-1.7,14.1-3.2,13.1-7.5,23.2-2.9,6.7,5.3,9.6,10.8,15.7C135.2,111.9,44.7,106.2,64.5,99.4Z"/><path class="ae" d="M64.6,99.4c6.7-2.3,13.8-6.9,10-13.9S61.1,72.9,59.7,60.3c-1.1-10.5.1-19.4,6.8-27.3s4.1-9.8,5.3-17.6,9-10,21.2-10,19.3,7.3,20.7,15.5c1.1,6.6,2.6,8.4,6,17s2.2,12.6,1,22.5c-1.8,14.1-3.2,13.3-7.6,23.3-2.9,6.7,5.2,9.7,10.7,15.7C135.1,111.9,45,106.2,64.6,99.4Z"/><path class="af" d="M64.7,99.5c6.7-2.4,13.8-6.9,9.9-14S61.1,72.8,59.8,60.2C58.7,49.7,59.8,41,66.5,33s4.2-9.7,5.4-17.5S80.9,5.4,93,5.4s19.2,7.3,20.6,15.5c1,6.5,2.5,8.4,6,17s2.2,12.6,1,22.5c-1.7,14.1-3.2,13.4-7.6,23.3-3,6.8,5.1,9.7,10.6,15.7C134.9,111.8,45.4,106.3,64.7,99.5Z"/><path class="ag" d="M64.9,99.5c6.5-2.4,13.7-6.9,9.8-14.1S61.2,72.7,59.9,60.1c-1.1-10.5,0-19.1,6.7-27s4.2-9.8,5.3-17.6,9-10,21.1-10,19.2,7.2,20.5,15.4c1,6.5,2.5,8.3,6,17s2.2,12.5,1,22.4c-1.7,14.1-3.1,13.5-7.6,23.4-3.1,6.8,5,9.7,10.5,15.7C134.8,111.8,45.8,106.3,64.9,99.5Z"/><path class="ah" d="M65,99.5c6.5-2.4,13.8-6.9,9.7-14.1S61.3,72.6,59.9,60.1c-1.1-10.5,0-19,6.7-27s4.3-9.7,5.4-17.6,8.9-10,20.9-10,19.2,7.2,20.5,15.4c1,6.4,2.4,8.3,6,16.9s2.3,12.6,1.1,22.4c-1.7,14.2-3.1,13.7-7.7,23.5-3.2,6.8,4.9,9.8,10.4,15.7C134.7,111.7,46.1,106.4,65,99.5Z"/><path class="ai" d="M65.1,99.5c6.5-2.4,13.8-6.9,9.7-14.1S61.3,72.5,60,60c-1.1-10.5,0-18.9,6.7-26.8s4.3-9.8,5.4-17.6,8.8-10,20.8-10,19.1,7.1,20.4,15.3c.9,6.4,2.4,8.3,6,16.9s2.3,12.5,1.1,22.4c-1.7,14.1-3.1,13.7-7.7,23.5-3.3,6.9,4.8,9.8,10.3,15.7C134.6,111.7,46.5,106.5,65.1,99.5Z"/><path class="aj" d="M65.3,99.6c6.4-2.4,13.8-7,9.5-14.2s-13.4-13-14.7-25.5c-1.1-10.4,0-18.7,6.6-26.7s4.4-9.7,5.5-17.6,8.7-9.9,20.7-9.9,19,7,20.3,15.1c.9,6.5,2.3,8.3,6,16.9s2.3,12.5,1.2,22.4c-1.7,14.2-3.1,13.9-7.8,23.6-3.4,6.9,4.8,9.8,10.3,15.7C134.4,111.6,46.8,106.5,65.3,99.6Z"/><path class="ak" d="M65.4,99.6c6.3-2.4,13.8-6.9,9.5-14.2s-13.5-13-14.8-25.5c-1.1-10.5,0-18.7,6.7-26.7s4.4-9.7,5.5-17.5,8.6-10,20.6-10,19,7,20.1,15.1c1,6.4,2.4,8.3,6.1,16.9s2.4,12.5,1.2,22.4c-1.7,14.1-3.1,13.9-7.8,23.6-3.4,6.9,4.7,9.8,10.2,15.6C134.3,111.6,47.2,106.6,65.4,99.6Z"/><path class="al" d="M65.5,99.6c6.3-2.4,13.9-6.9,9.5-14.3s-13.5-13-14.8-25.5c-1.1-10.5,0-18.6,6.6-26.5s4.5-9.7,5.6-17.6,8.5-9.9,20.5-9.9,18.9,6.9,20,15c.9,6.4,2.4,8.3,6.1,16.8s2.4,12.5,1.2,22.4c-1.6,14.2-3,14.1-7.8,23.6-3.5,7.1,4.6,10,10.1,15.7C134.2,111.5,47.5,106.6,65.5,99.6Z"/><path class="am" d="M65.7,99.6c6.2-2.4,13.8-6.9,9.3-14.3S61.6,72.2,60.3,59.7c-1.1-10.4,0-18.4,6.6-26.4s4.6-9.7,5.5-17.5,8.5-9.9,20.4-9.9,18.9,6.8,20,14.9c.9,6.3,2.3,8.2,6,16.8s2.5,12.5,1.4,22.4c-1.7,14.1-3,14.2-7.9,23.6-3.6,7.1,4.5,10,10,15.7C134.1,111.5,47.9,106.7,65.7,99.6Z"/><path class="an" d="M65.8,99.7c6.1-2.5,13.8-7,9.3-14.4S61.6,72.1,60.3,59.7c-1-10.5,0-18.4,6.6-26.3s4.7-9.7,5.6-17.6,8.4-9.9,20.3-9.9,18.9,6.8,19.9,14.9c.9,6.3,2.3,8.2,6,16.7s2.6,12.5,1.4,22.4c-1.7,14.2-3,14.3-7.9,23.7-3.7,7.1,4.4,10,9.9,15.7C134,111.4,48.3,106.8,65.8,99.7Z"/><path class="ao" d="M65.9,99.7c6.1-2.5,13.9-6.9,9.2-14.4S61.7,72,60.4,59.6c-1.1-10.4,0-18.2,6.6-26.2s4.7-9.7,5.6-17.6S80.9,6,92.8,6s18.8,6.7,19.8,14.8c.8,6.3,2.2,8.2,6,16.7S121.2,50,120,59.9c-1.6,14.1-2.9,14.4-7.9,23.7-3.8,7.2,4.3,10.1,9.9,15.7C133.8,111.4,48.6,106.8,65.9,99.7Z"/><path class="ap" d="M66.1,99.7c6-2.5,13.8-6.9,9.1-14.4S61.8,71.9,60.5,59.5c-1.1-10.4,0-18.1,6.5-26s4.8-9.7,5.7-17.6S80.9,6,92.8,6s18.7,6.7,19.7,14.8c.8,6.2,2.2,8.1,6,16.6s2.6,12.5,1.5,22.4c-1.7,14.2-3,14.5-8,23.8-3.9,7.2,4.2,10.1,9.8,15.7C133.7,111.3,49,106.9,66.1,99.7Z"/><path class="aq" d="M66.2,99.8c5.9-2.6,13.9-7,9-14.5S61.8,71.9,60.5,59.5c-1-10.5,0-18,6.6-26s4.8-9.7,5.7-17.6,8.1-9.8,19.9-9.8,18.7,6.6,19.7,14.7c.8,6.2,2.2,8.1,6,16.6s2.7,12.5,1.5,22.4c-1.6,14.1-2.9,14.6-8,23.8-4,7.2,4.1,10.1,9.7,15.7C133.6,111.3,49.3,106.9,66.2,99.8Z"/><path class="ar" d="M66.3,99.8c5.9-2.5,13.9-7,9-14.6S61.9,71.8,60.6,59.4c-1.1-10.4,0-17.9,6.5-25.8S72,23.9,72.9,16s8-9.8,19.8-9.8,18.7,6.5,19.6,14.6c.7,6.1,2.1,8.1,6,16.5s2.7,12.5,1.6,22.4c-1.7,14.2-3,14.7-8.1,23.9-4.1,7.3,4,10.1,9.6,15.7C133.5,111.2,49.7,107,66.3,99.8Z"/><path class="as" d="M66.5,99.8c5.8-2.5,13.9-7,8.8-14.6S62,71.7,60.7,59.3c-1.1-10.4,0-17.7,6.5-25.7s4.9-9.7,5.7-17.6,8-9.8,19.8-9.8,18.6,6.5,19.5,14.6c.7,6.1,2.1,8,6,16.5s2.7,12.5,1.6,22.4c-1.6,14.1-2.9,14.8-8.1,23.9-4.2,7.3,3.9,10.2,9.5,15.7C133.4,111.2,50.1,107,66.5,99.8Z"/><path class="at" d="M66.6,99.8c5.7-2.5,13.9-6.9,8.8-14.6S62,71.6,60.7,59.3c-1-10.5,0-17.7,6.5-25.6s5-9.7,5.8-17.6,7.9-9.8,19.7-9.8,18.5,6.4,19.4,14.5c.7,6,2,8,6,16.4s2.8,12.5,1.6,22.4c-1.6,14.2-2.9,15-8.1,24-4.2,7.3,3.8,10.2,9.4,15.7C133.2,111.1,50.4,107.1,66.6,99.8Z"/><path class="au" d="M66.7,99.9c5.7-2.6,14-7,8.8-14.7s-13.4-13.7-14.7-26c-1.1-10.4,0-17.6,6.5-25.5s5-9.7,5.8-17.6,7.8-9.8,19.5-9.8,18.5,6.4,19.4,14.5c.6,6,2,8,6,16.4s2.8,12.4,1.7,22.4c-1.6,14.2-3,15-8.2,24-4.3,7.4,3.7,10.2,9.4,15.6C133.1,111.1,50.8,107.1,66.7,99.9Z"/><path class="av" d="M66.9,99.9c5.6-2.6,13.9-7,8.6-14.7S62.1,71.4,60.9,59.1c-1.1-10.4,0-17.4,6.4-25.3s5.1-9.7,5.9-17.7,7.7-9.7,19.4-9.7,18.5,6.3,19.3,14.4c.6,6,1.9,7.9,6,16.3s2.8,12.5,1.7,22.4c-1.6,14.2-2.9,15.2-8.2,24.1s3.6,10.2,9.3,15.6C133,111,51.1,107.2,66.9,99.9Z"/><path class="aw" d="M67,99.9c5.6-2.6,14-7,8.6-14.8s-13.4-13.7-14.7-26c-1-10.4,0-17.4,6.5-25.3s5.1-9.7,5.9-17.6,7.6-9.7,19.3-9.7,18.4,6.1,19.2,14.3c.6,5.9,1.9,7.9,5.9,16.3s3,12.4,1.8,22.3c-1.5,14.3-2.9,15.3-8.2,24.2s3.6,10.3,9.2,15.6C132.9,111,51.5,107.2,67,99.9Z"/><path class="ax" d="M67.2,100c5.4-2.7,13.9-7.1,8.4-14.9S62.3,71.3,61,59c-1.1-10.4,0-17.2,6.4-25.1s5.2-9.7,6-17.7,7.5-9.7,19.2-9.7,18.3,6.1,19.1,14.3c.5,5.9,1.9,7.8,5.9,16.2s3,12.5,1.9,22.4c-1.6,14.2-2.9,15.4-8.3,24.2s3.5,10.3,9.1,15.6C132.8,110.9,51.9,107.3,67.2,100Z"/><path class="ay" d="M67.3,100c5.4-2.7,14-7,8.4-14.9S62.3,71.2,61.1,58.9c-1.1-10.4,0-17.1,6.4-25s5.2-9.7,5.9-17.6,7.5-9.7,19.2-9.7,18.3,6,19,14.2c.5,5.8,1.8,7.8,5.9,16.2s3,12.4,1.9,22.3c-1.6,14.3-2.9,15.5-8.3,24.3s3.4,10.3,9,15.6C132.6,110.8,52.2,107.3,67.3,100Z"/><path class="az" d="M67.4,100c5.4-2.6,14-7,8.3-14.9s-13.3-14-14.6-26.2c-1-10.4,0-17,6.4-24.9s5.3-9.7,6-17.7,7.4-9.7,19-9.7,18.3,6,19,14.2c.5,5.8,1.8,7.8,5.9,16.1s3.1,12.5,2,22.4c-1.6,14.2-2.9,15.6-8.4,24.2s3.3,10.5,9,15.7C132.5,110.8,52.6,107.4,67.4,100Z"/><path class="ba" d="M67.6,100c5.2-2.6,14-7,8.2-14.9S62.5,71,61.2,58.8c-1.1-10.4,0-16.9,6.4-24.8s5.3-9.7,6-17.6,7.3-9.7,18.9-9.7,18.2,5.9,18.9,14.1c.4,5.8,1.7,7.7,5.9,16.1s3.1,12.4,2,22.3c-1.6,14.3-2.9,15.7-8.4,24.3s3.2,10.5,8.9,15.7C132.4,110.7,52.9,107.4,67.6,100Z"/><path class="bb" d="M67.7,100.1c5.2-2.7,14-7.1,8.2-15.1S62.5,71,61.3,58.7c-1.1-10.3,0-16.7,6.3-24.6s5.4-9.7,6.1-17.7,7.2-9.6,18.8-9.6,18.1,5.8,18.8,14c.4,5.7,1.7,7.7,5.9,16s3.1,12.5,2,22.4c-1.5,14.2-2.9,15.8-8.4,24.3s3.1,10.5,8.8,15.7C132.3,110.7,53.3,107.5,67.7,100.1Z"/><path class="bc" d="M67.8,100.1C73,97.4,81.9,93,75.9,85S62.6,70.9,61.3,58.7c-1-10.4,0-16.7,6.4-24.6s5.4-9.7,6.1-17.6S81,6.8,92.5,6.8s18.1,5.8,18.7,14c.4,5.7,1.7,7.7,5.9,16s3.2,12.4,2.1,22.3c-1.6,14.3-2.9,15.9-8.5,24.4s3,10.5,8.7,15.7C132.2,110.6,53.7,107.5,67.8,100.1Z"/><path class="bd" d="M68,100.1C73.1,97.4,82,93,76,85S62.7,70.8,61.4,58.6c-1.1-10.4,0-16.6,6.3-24.4s5.6-9.7,6.2-17.7S81,6.9,92.4,6.9s18.1,5.7,18.7,13.9c.3,5.6,1.6,7.6,5.9,15.9s3.2,12.5,2.1,22.4c-1.5,14.2-2.9,16-8.5,24.4s2.9,10.6,8.6,15.7C132,110.6,54,107.6,68,100.1Z"/><path class="be" d="M68.1,100.2c5-2.8,14.1-7.1,7.9-15.2S62.7,70.7,61.5,58.5c-1.1-10.3-.1-16.4,6.3-24.3s5.6-9.7,6.1-17.7S81,6.9,92.4,6.9s18,5.7,18.6,13.9c.3,5.6,1.6,7.6,5.9,15.9s3.2,12.4,2.2,22.3c-1.6,14.3-2.9,16.1-8.6,24.5s2.8,10.6,8.5,15.6C131.9,110.5,54.4,107.6,68.1,100.2Z"/><path class="bf" d="M68.2,100.2c5-2.8,14.1-7.1,7.9-15.2S62.8,70.6,61.5,58.5c-1-10.4,0-16.4,6.3-24.2s5.7-9.7,6.2-17.7S81,7,92.4,7s18,5.6,18.4,13.8c.4,5.5,1.6,7.6,6,15.8S120.1,49,119,59c-1.5,14.2-2.9,16.2-8.6,24.5s2.7,10.6,8.5,15.6C131.8,110.5,54.8,107.7,68.2,100.2Z"/><path class="bg" d="M68.4,100.2c4.9-2.8,14.1-7.1,7.7-15.3S62.8,70.5,61.6,58.4c-1.1-10.4,0-16.2,6.3-24.1s5.7-9.7,6.2-17.7S81,7.1,92.4,7.1s17.9,5.5,18.3,13.7c.3,5.5,1.6,7.5,5.9,15.8S120,49,118.9,58.9c-1.5,14.3-2.9,16.3-8.6,24.6s2.6,10.7,8.4,15.6C131.7,110.4,55.1,107.7,68.4,100.2Z"/><path class="bh" d="M68.5,100.2c4.9-2.8,14.1-7.1,7.7-15.3S62.9,70.5,61.7,58.3c-1.1-10.3-.1-16.1,6.2-23.9s5.8-9.7,6.3-17.7S81,7.1,92.3,7.1s17.9,5.5,18.3,13.7c.3,5.5,1.5,7.5,5.9,15.7s3.4,12.4,2.4,22.4c-1.5,14.2-2.9,16.4-8.7,24.6s2.6,10.7,8.3,15.6C131.6,110.4,55.5,107.7,68.5,100.2Z"/><path class="bi" d="M68.6,100.3c4.8-2.9,14.2-7.2,7.7-15.4S63,70.4,61.7,58.3c-1-10.4,0-16,6.3-23.9s5.8-9.7,6.3-17.7,6.7-9.5,18-9.5,17.9,5.4,18.2,13.6c.3,5.4,1.5,7.5,5.9,15.7s3.5,12.4,2.4,22.3c-1.5,14.3-2.9,16.5-8.7,24.7s2.5,10.7,8.2,15.6C131.5,110.3,55.8,107.8,68.6,100.3Z"/><path class="bj" d="M68.8,100.3c4.7-2.9,14.1-7.2,7.5-15.4S63,70.3,61.8,58.2c-1-10.3,0-15.9,6.2-23.8s5.9-9.6,6.4-17.6S81,7.3,92.3,7.3s17.8,5.3,18.1,13.5c.3,5.4,1.5,7.4,5.9,15.6s3.5,12.4,2.4,22.4c-1.5,14.2-2.9,16.6-8.7,24.7s2.4,10.7,8.1,15.6C131.3,110.3,56.2,107.8,68.8,100.3Z"/><path class="bk" d="M68.9,100.3c4.7-2.9,14.2-7.1,7.5-15.4S63.1,70.2,61.9,58.1c-1.1-10.3-.1-15.7,6.2-23.6s5.9-9.7,6.3-17.7S81,7.3,92.3,7.3s17.7,5.3,18,13.5c.2,5.3,1.4,7.4,5.9,15.6s3.5,12.4,2.5,22.3c-1.5,14.3-2.9,16.7-8.8,24.8s2.3,10.8,8.1,15.6C131.2,110.2,56.6,107.9,68.9,100.3Z"/><path class="bl" d="M69,100.3c4.7-2.8,14.2-7.1,7.4-15.5S63.2,70.1,61.9,58.1c-1-10.4,0-15.7,6.2-23.6s6-9.6,6.4-17.7S81,7.4,92.3,7.4s17.6,5.1,17.9,13.4c.2,5.3,1.4,7.4,5.9,15.5s3.6,12.4,2.5,22.3c-1.5,14.3-2.9,16.9-8.8,24.9s2.2,10.8,8,15.6C131.1,110.1,56.9,107.9,69,100.3Z"/><path class="bm" d="M69.2,100.4c4.5-2.9,14.2-7.2,7.3-15.6S63.2,70,62,58c-1-10.3,0-15.5,6.2-23.4s6-9.7,6.4-17.7S81,7.4,92.2,7.4s17.7,5.1,17.9,13.4c.2,5.2,1.3,7.3,5.9,15.5s3.6,12.4,2.6,22.3c-1.5,14.3-3,16.9-8.9,24.9s2.1,10.8,7.9,15.6C131,110.1,57.3,107.9,69.2,100.4Z"/><path class="bn" d="M69.3,100.4c4.5-2.9,14.3-7.2,7.2-15.6S63.3,70,62.1,57.9C61,47.6,62,42.5,68.2,34.6s6.1-9.6,6.5-17.7S81,7.5,92.2,7.5s17.6,5,17.8,13.3c.1,5.2,1.3,7.3,5.9,15.5s3.6,12.3,2.6,22.2c-1.5,14.4-2.9,17.1-8.9,24.9s2,10.9,7.8,15.7C130.9,110,57.7,108,69.3,100.4Z"/><path class="bo" d="M69.4,100.4c4.5-2.9,14.3-7.2,7.2-15.6S63.4,69.9,62.1,57.9c-1-10.3,0-15.4,6.2-23.2S74.4,25,74.8,17,81,7.6,92.2,7.6s17.5,4.9,17.7,13.2c.1,5.2,1.3,7.3,5.9,15.4s3.6,12.3,2.6,22.3c-1.4,14.3-2.9,17.1-8.9,24.9s1.9,11,7.7,15.6C130.8,110,58,108,69.4,100.4Z"/><path class="bp" d="M69.6,100.5c4.4-3,14.3-7.3,7-15.7-5.8-7-13.2-15-14.4-27-1-10.3,0-15.2,6.1-23.1s6.2-9.6,6.6-17.7S81,7.6,92.2,7.6s17.5,4.9,17.6,13.2c.1,5.1,1.2,7.2,5.9,15.4s3.7,12.3,2.7,22.2c-1.5,14.4-3,17.3-9,25s1.8,11,7.6,15.6C130.6,109.9,58.4,108,69.6,100.5Z"/><path class="bq" d="M69.7,100.5c4.3-3,14.3-7.2,7-15.8-5.9-6.8-13.2-15-14.4-27-1.1-10.3-.1-15.1,6.1-22.9s6.2-9.7,6.5-17.7S81,7.7,92.1,7.7s17.5,4.8,17.6,13.1c.1,5.1,1.2,7.2,5.8,15.3s3.8,12.3,2.8,22.3c-1.4,14.3-2.9,17.3-9,25s1.7,11,7.6,15.6C130.5,109.9,58.8,108.1,69.7,100.5Z"/><path class="br" d="M69.8,100.5c4.3-3,14.4-7.2,7-15.8-6-6.8-13.3-15.1-14.5-27-1-10.3,0-15,6.1-22.9s6.3-9.6,6.6-17.7,6-9.4,17.1-9.4,17.4,4.8,17.5,13.1c0,5,1.1,7.2,5.8,15.3s3.8,12.3,2.8,22.2c-1.4,14.4-2.9,17.5-9,25.1s1.7,11,7.5,15.6C130.4,109.8,59.1,108.1,69.8,100.5Z"/><path class="bs" d="M70,100.5c4.2-3,14.3-7.2,6.8-15.8-6-6.8-13.2-15.2-14.4-27.1-1-10.3,0-14.9,6.1-22.7s6.4-9.7,6.6-17.8,5.9-9.3,17-9.3,17.4,4.7,17.4,13c0,5,1.1,7.1,5.8,15.2s3.9,12.3,2.9,22.3c-1.4,14.3-3,17.5-9.1,25.1s1.6,11.1,7.4,15.6C130.3,109.7,59.5,108.1,70,100.5Z"/><path class="bt" d="M70.1,100.6c4.2-3.1,14.4-7.3,6.8-15.9-6-6.8-13.2-15.2-14.4-27.2-1.1-10.3-.1-14.7,6-22.6s6.5-9.6,6.7-17.7S81,7.9,92.1,7.9s17.3,4.6,17.3,12.9c0,5,1.1,7.1,5.8,15.2s3.9,12.3,2.9,22.2c-1.4,14.4-2.9,17.7-9.1,25.2s1.5,11.1,7.3,15.6C130.2,109.7,59.8,108.1,70.1,100.6Z"/><path class="bu" d="M70.2,100.6c4.1-3.1,14.5-7.3,6.7-15.9-6-6.8-13.2-15.3-14.4-27.2-1-10.3,0-14.7,6.1-22.5s6.5-9.7,6.7-17.8S81,7.9,92,7.9s17.3,4.6,17.3,12.9c-.1,4.9,1,7,5.8,15.1s3.9,12.3,3,22.3c-1.5,14.3-3,17.7-9.2,25.2s1.4,11.1,7.2,15.6C130.1,109.6,60.2,108.2,70.2,100.6Z"/><path class="bv" d="M70.4,100.6c3.4-3.8,14.4-7.3,6.6-15.9-6.1-6.8-13.2-15.4-14.4-27.3-1-10.3,0-14.5,6-22.4s6.6-9.6,6.8-17.7S81,8,92,8s17.3,4.5,17.2,12.8c-.1,4.9,1,7,5.8,15.1s4,12.3,3,22.2c-1.4,14.4-3,17.8-9.2,25.3S110.1,94.5,116,99C130,109.6,59.4,106.3,70.4,100.6Z"/><path class="bw" d="M70.5,100.7C73.9,96.8,85,93.3,77,84.6c-6.1-6.7-13.1-15.4-14.3-27.3-1.1-10.2-.1-14.4,6-22.2s6.6-9.7,6.7-17.8S81,8,92,8s17.2,4.5,17.1,12.8c-.1,4.8.9,7,5.8,15s4,12.3,3,22.3c-1.4,14.3-3,17.9-9.2,25.3s1.2,11.2,7.1,15.6C129.8,109.5,59.7,106.4,70.5,100.7Z"/><path class="bx" d="M70.6,100.7c3.3-3.9,14.5-7.4,6.5-16.1C71,77.9,63.9,69.1,62.7,57.3c-1-10.3,0-14.4,6-22.2s6.7-9.6,6.8-17.7S81,8.1,92,8.1s17.1,4.4,17,12.6c-.1,4.9.9,7,5.8,15.1s4,12.3,3.1,22.2c-1.4,14.4-3,18-9.3,25.4s1.1,11.2,7,15.6C129.7,109.5,60.1,106.4,70.6,100.7Z"/><path class="by" d="M70.8,100.7c3.2-3.9,14.5-7.4,6.4-16.1C71,77.9,64,69.1,62.8,57.2c-1-10.3,0-14.2,6-22s6.7-9.7,6.8-17.8S81,8.2,92,8.2s17.1,4.3,16.9,12.5c-.2,4.8.8,7,5.8,15S118.8,48,117.8,58c-1.4,14.3-3,18.1-9.3,25.4s1,11.2,6.9,15.5C129.6,109.4,60.4,106.4,70.8,100.7Z"/><path class="bz" d="M70.9,100.7c3.1-3.9,14.5-7.3,6.3-16.1C71,78,64.1,69,62.9,57.1c-1.1-10.2-.1-14.1,5.9-21.9s6.8-9.6,6.9-17.7,5.4-9.3,16.2-9.3,17.1,4.2,16.9,12.5c-.2,4.8.8,7,5.8,15s4.1,12.2,3.1,22.2c-1.3,14.4-3,18.2-9.3,25.5s.9,11.3,6.8,15.5C129.5,109.3,60.8,106.4,70.9,100.7Z"/><path class="ca" d="M71,100.8c3.1-4,14.6-7.4,6.3-16.2C71,78,64.1,68.9,62.9,57.1c-1-10.3,0-14,6-21.8s6.8-9.7,6.9-17.8,5.3-9.2,16.1-9.2,17,4.1,16.7,12.4c-.1,4.8.9,6.9,5.9,14.9s4.1,12.3,3.2,22.2c-1.4,14.4-3,18.4-9.4,25.6s.9,11.3,6.7,15.5C129.4,109.3,61.1,106.4,71,100.8Z"/><path class="cb" d="M71.2,100.8c3-4,14.6-7.4,6.1-16.3C71.1,78,64.2,68.8,63,57c-1-10.2-.1-13.9,5.9-21.7s6.9-9.6,7-17.8,5.2-9.2,16-9.2,17,4.1,16.6,12.4c-.1,4.7.8,6.9,5.8,14.9s4.3,12.2,3.3,22.2c-1.3,14.4-3,18.4-9.4,25.5-7.7,8.6.8,11.4,6.7,15.6C129.3,109.2,61.4,106.5,71.2,100.8Z"/><path class="cc" d="M71.3,100.8c2.9-4,14.6-7.4,6.1-16.3C71.1,78,64.2,68.7,63.1,56.9c-1-10.2-.1-13.7,5.9-21.5s6.9-9.7,6.9-17.8,5.2-9.2,16-9.2,16.9,4,16.5,12.3c-.2,4.7.8,6.9,5.8,14.8s4.3,12.3,3.4,22.2c-1.4,14.4-3.1,18.5-9.5,25.6-7.8,8.6.7,11.4,6.6,15.6C129.2,109.2,61.8,106.5,71.3,100.8Z"/><path class="cd" d="M71.4,100.8c2.9-4,14.7-7.4,6-16.3C71.1,78,64.3,68.6,63.1,56.9s0-13.7,5.9-21.5,7-9.6,7-17.8,5.1-9.1,15.8-9.1,17,3.9,16.5,12.2c-.2,4.6.7,6.8,5.8,14.8s4.3,12.2,3.4,22.2c-1.3,14.4-3.1,18.6-9.5,25.6-7.9,8.6.6,11.5,6.5,15.6C129,109.1,62.1,106.5,71.4,100.8Z"/><path class="ce" d="M71.6,100.9c2.7-4.1,14.6-7.5,5.9-16.4C71.2,78,64.4,68.6,63.2,56.8c-1-10.2-.1-13.5,5.9-21.3s7-9.7,7-17.8,5-9.2,15.7-9.2,16.9,3.9,16.4,12.2c-.2,4.6.7,6.8,5.8,14.7s4.4,12.3,3.4,22.2c-1.3,14.5-3,18.7-9.5,25.7-8,8.6.5,11.5,6.4,15.6C128.9,109,62.5,106.5,71.6,100.9Z"/><path class="cf" d="M71.7,100.9c2.7-4.1,14.7-7.5,5.9-16.4-6.4-6.5-13.2-16-14.3-27.8-1-10.2-.1-13.4,5.8-21.2s7.1-9.6,7.1-17.8,4.9-9.1,15.6-9.1,16.8,3.8,16.3,12.1c-.2,4.5.7,6.8,5.8,14.7s4.4,12.2,3.5,22.2c-1.4,14.4-3.1,18.8-9.6,25.7-8.1,8.7.4,11.5,6.3,15.6C128.8,109,62.8,106.6,71.7,100.9Z"/><path class="cg" d="M71.8,100.9c2.7-4.1,14.8-7.5,5.8-16.5-6.4-6.4-13.1-16-14.3-27.7-1-10.2,0-13.4,5.9-21.2s7.2-9.6,7.1-17.7,4.8-9.1,15.5-9.1,16.8,3.7,16.2,12c-.3,4.5.6,6.7,5.8,14.6s4.4,12.3,3.5,22.2c-1.3,14.5-3.1,18.9-9.6,25.8-8.2,8.7.3,11.5,6.3,15.6C128.7,108.9,63.1,106.6,71.8,100.9Z"/><path class="ch" d="M72,101c2.5-4.2,14.7-7.6,5.7-16.6C71.2,78,64.6,68.3,63.4,56.6s-.1-13.2,5.8-21,7.3-9.6,7.2-17.8,4.7-9.1,15.3-9.1,16.8,3.7,16.2,12c-.3,4.5.6,6.7,5.8,14.6s4.5,12.2,3.6,22.2c-1.4,14.4-3.2,18.9-9.7,25.8-8.3,8.7.2,11.6,6.2,15.6C128.6,108.9,63.5,106.6,72,101Z"/><path class="ci" d="M72.1,101c2.5-4.2,14.8-7.6,5.6-16.6C71.3,78,64.6,68.2,63.5,56.5c-1-10.2-.1-13.1,5.8-20.9s7.3-9.6,7.1-17.8,4.7-9,15.3-9,16.7,3.6,16.1,11.9c-.3,4.4.5,6.7,5.8,14.5s4.5,12.3,3.6,22.2c-1.3,14.5-3.1,19.1-9.7,25.9-8.5,8.7.1,11.6,6.1,15.5C128.5,108.8,63.8,106.6,72.1,101Z"/><path class="cj" d="M72.2,101c2.4-4.2,14.9-7.6,5.6-16.6C71.3,78,64.7,68.1,63.5,56.5s0-13,5.8-20.8,7.4-9.6,7.2-17.8,4.6-9.1,15.2-9.1,16.7,3.6,16,11.9c-.3,4.4.5,6.6,5.8,14.5s4.5,12.2,3.6,22.2c-1.3,14.4-3.1,19.1-9.7,25.9-8.6,8.7.1,11.6,6,15.5C128.4,108.7,64.2,106.6,72.2,101Z"/><path class="ck" d="M72.4,101c2.3-4.2,14.8-7.6,5.4-16.6-6.5-6.3-13-16.3-14.2-28-1-10.2-.1-12.9,5.8-20.7s7.4-9.6,7.2-17.8,4.5-9,15.1-9,16.6,3.5,15.9,11.8c-.4,4.3.5,6.6,5.8,14.4s4.6,12.2,3.7,22.2c-1.3,14.5-3.2,19.3-9.8,26-8.7,8.7,0,11.6,5.9,15.5C128.3,108.7,64.5,106.7,72.4,101Z"/><path class="cl" d="M72.5,101.1c2.3-4.3,14.9-7.7,5.4-16.8-6.5-6.2-13.1-16.3-14.2-28-1-10.2-.1-12.7,5.7-20.5s7.5-9.6,7.3-17.8,4.4-9,15-9,16.6,3.4,15.8,11.7c-.4,4.3.4,6.5,5.7,14.4s4.7,12.2,3.8,22.2c-1.3,14.4-3.1,19.3-9.8,26-8.8,8.7-.1,11.6,5.8,15.5C128.1,108.6,64.8,106.7,72.5,101.1Z"/><path class="cm" d="M72.6,101.1c2.2-4.3,14.9-7.6,5.3-16.8-6.5-6.2-13-16.4-14.2-28s0-12.7,5.8-20.5S77,26.2,76.8,18s4.3-9,14.8-9,16.6,3.3,15.8,11.7c-.4,4.2.4,6.5,5.7,14.3s4.7,12.2,3.8,22.2c-1.2,14.5-3.1,19.4-9.8,26.1-8.9,8.8-.2,11.7,5.8,15.5C128,108.6,65.2,106.7,72.6,101.1Z"/><path class="cn" d="M72.8,101.1c2.1-4.3,14.9-7.6,5.2-16.8-6.6-6.2-13.1-16.5-14.2-28.1s-.1-12.5,5.7-20.3,7.6-9.6,7.4-17.8,4.2-9,14.7-9,16.5,3.2,15.7,11.6c-.4,4.2.3,6.5,5.7,14.3s4.8,12.2,3.9,22.2c-1.3,14.4-3.2,19.5-9.9,26.1-9,8.8-.3,11.7,5.7,15.5C127.9,108.5,65.5,106.7,72.8,101.1Z"/><path class="co" d="M72.9,101.2c2-4.4,15-7.7,5.2-16.9C71.4,78.1,65,67.7,63.9,56.1c-1-10.1-.1-12.4,5.7-20.2s7.6-9.6,7.3-17.8,4.2-9,14.7-9,16.5,3.2,15.6,11.6c-.5,4.2.3,6.4,5.7,14.2s4.8,12.2,3.9,22.2c-1.3,14.5-3.2,19.6-9.9,26.2-9.1,8.8-.4,11.7,5.6,15.5C127.8,108.4,65.9,106.7,72.9,101.2Z"/><path class="cp" d="M73,101.2c2-4.4,15-7.7,5.1-16.9-6.6-6.2-13-16.7-14.2-28.2s0-12.4,5.7-20.1,7.7-9.6,7.4-17.9,4.1-8.9,14.6-8.9,16.4,3.1,15.5,11.5c-.5,4.1.3,6.4,5.7,14.2s4.8,12.2,4,22.1c-1.3,14.5-3.2,19.7-10,26.2-9.3,8.9-.5,11.8,5.5,15.6C127.7,108.4,66.2,106.8,73,101.2Z"/><path class="cq" d="M73.2,101.2c1.9-4.4,15-7.7,5-17A45.7,45.7,0,0,1,64,56c-1-10.2-.1-12.2,5.7-20s7.7-9.6,7.4-17.8,4-8.9,14.4-8.9,16.5,3,15.5,11.4c-.5,4.1.2,6.4,5.7,14.1s4.9,12.2,4,22.2c-1.3,14.5-3.2,19.8-10,26.2-9.4,8.9-.6,11.9,5.4,15.6C127.6,108.3,66.5,106.8,73.2,101.2Z"/><path class="cr" d="M73.3,101.2c1.8-4.4,15.1-7.7,4.9-17A45.9,45.9,0,0,1,64.1,55.9c-1-10.1-.1-12.1,5.6-19.8s7.8-9.6,7.5-17.9,3.9-8.9,14.3-8.9,16.4,3,15.4,11.4c-.5,4,.2,6.3,5.7,14.1s4.9,12.2,4,22.1c-1.2,14.5-3.2,19.9-10,26.3-9.5,8.9-.6,11.9,5.4,15.6C127.5,108.2,66.9,106.8,73.3,101.2Z"/><path class="cs" d="M73.4,101.3c1.8-4.5,15.1-7.8,4.9-17.1A46.8,46.8,0,0,1,64.1,55.9c-1-10.2,0-12,5.7-19.8s7.8-9.6,7.5-17.8,3.8-8.9,14.2-8.9,16.4,2.9,15.3,11.3c-.6,4,.1,6.3,5.7,14s4.9,12.2,4.1,22.2c-1.3,14.5-3.3,19.9-10.1,26.3-9.6,8.9-.7,11.9,5.3,15.6C127.4,108.2,67.2,106.8,73.4,101.3Z"/><path class="ct" d="M73.6,101.3c1.6-4.5,15.1-7.8,4.7-17.1A46.4,46.4,0,0,1,64.2,55.8c-1-10.1-.1-11.9,5.6-19.6s8-9.6,7.6-17.9,3.7-8.9,14.1-8.9,16.3,2.9,15.2,11.3c-.6,3.9.1,6.3,5.7,14s5,12.2,4.1,22.1c-1.2,14.5-3.2,20.1-10.1,26.4-9.7,8.9-.8,11.9,5.2,15.5C127.2,108.1,67.6,106.9,73.6,101.3Z"/><path class="cu" d="M73.7,101.3c1.6-4.5,15.2-7.8,4.7-17.1-6.8-6.1-13-17-14.1-28.5S64.2,44,69.9,36.2s8-9.6,7.5-17.8,3.7-8.9,14-8.9,16.3,2.8,15.2,11.2c-.6,3.9.1,6.2,5.7,14s5,12.1,4.1,22.1c-1.2,14.5-3.2,20.1-10.1,26.4-9.8,8.9-.9,12,5.1,15.5C127.1,108.1,67.9,106.9,73.7,101.3Z"/><path class="cv" d="M73.9,101.3c1.5-4.4,15.1-7.8,4.6-17.2-6.9-6-13.1-16.9-14.2-28.4s0-11.7,5.6-19.4,8.1-9.6,7.6-17.9,3.6-8.8,13.9-8.8,16.3,2.7,15,11.1c-.5,3.9.1,6.2,5.7,13.9s5.1,12.1,4.3,22.1c-1.2,14.6-3.3,20.2-10.2,26.5-10,8.9-1,12,5,15.5C127,108,68.2,106.9,73.9,101.3Z"/><path class="cw" d="M74,101.4c1.4-4.5,15.2-7.9,4.5-17.3-6.8-6-13-17-14.1-28.5S64.3,44.1,70,36.3s8.1-9.6,7.6-17.8,3.6-8.9,13.8-8.9,16.2,2.7,14.9,11.1c-.5,3.8.1,6.2,5.7,13.9s5.2,12.1,4.3,22.1C115.1,71.2,113,77,106.1,83.2,96,92.1,105,95.2,111,98.7,126.9,107.9,68.6,106.9,74,101.4Z"/><path class="cx" d="M74.1,101.4c1.4-4.5,15.3-7.9,4.5-17.3-6.9-6-13-17.1-14.1-28.6S64.4,44.1,70,36.4s8.2-9.6,7.7-17.9,3.5-8.8,13.7-8.8,16.2,2.6,14.8,11c-.6,3.8,0,6.1,5.7,13.8s5.2,12.1,4.4,22.1C115.1,71.2,113,77,106,83.2c-10.2,8.9-1.2,12,4.9,15.5C126.8,107.9,68.9,106.9,74.1,101.4Z"/><path class="cy" d="M74.3,101.4c1.2-4.5,15.2-7.9,4.3-17.3-6.9-6-13-17.2-14.1-28.6s-.1-11.4,5.6-19.1,8.2-9.6,7.7-17.9,3.4-8.8,13.6-8.8,16.1,2.6,14.7,11c-.6,3.7,0,6.1,5.7,13.8s5.2,12.1,4.4,22.1c-1.2,14.5-3.3,20.5-10.3,26.6-10.3,9-1.3,12.1,4.8,15.5C126.7,107.8,69.3,107,74.3,101.4Z"/><path class="cz" d="M74.4,101.5c1.2-4.6,15.3-8,4.3-17.4-6.9-6-13-17.3-14.1-28.7s-.1-11.2,5.5-18.9,8.3-9.6,7.8-17.9,3.3-8.8,13.4-8.8,16.2,2.5,14.7,10.9c-.6,3.7,0,6,5.7,13.7s5.2,12.1,4.4,22.1c-1.2,14.6-3.3,20.6-10.3,26.7-10.4,9-1.4,12.1,4.7,15.5C126.6,107.7,69.6,107,74.4,101.5Z"/><path class="da" d="M74.5,101.5c1.2-4.6,15.4-8,4.2-17.4-6.9-5.9-12.9-17.4-14-28.7s-.1-11.2,5.5-18.9,8.3-9.6,7.7-17.9,3.3-8.7,13.4-8.7,16.1,2.4,14.6,10.8c-.6,3.6-.1,6,5.7,13.7s5.3,12.1,4.5,22.1c-1.2,14.5-3.4,20.6-10.4,26.7-10.6,9-1.4,12.1,4.6,15.5C126.5,107.7,69.9,107,74.5,101.5Z"/><path class="db" d="M74.7,101.5c1-4.6,15.3-8,4.1-17.5-7-5.8-13-17.3-14.1-28.7s-.1-11,5.5-18.7S78.6,27,78,18.7s3.2-8.8,13.3-8.8,16.1,2.3,14.5,10.8c-.6,3.6-.1,6,5.7,13.6s5.3,12.1,4.5,22.1c-1.2,14.6-3.3,20.7-10.4,26.8-10.7,9-1.5,12.1,4.5,15.5C126.4,107.6,70.3,107,74.7,101.5Z"/><path class="dc" d="M74.8,101.5c1-4.6,15.4-8,4.1-17.5-7.1-5.8-13-17.4-14.1-28.8s-.1-10.9,5.5-18.6,8.4-9.6,7.8-17.9S81.2,10,91.3,10s16,2.2,14.4,10.7c-.7,3.6-.2,5.9,5.7,13.6s5.3,12.1,4.5,22c-1.1,14.6-3.3,20.9-10.4,26.9-10.8,9-1.6,12.1,4.5,15.5C126.2,107.5,70.6,107,74.8,101.5Z"/><path class="dd" d="M74.9,101.6c.9-4.7,15.5-8.1,4-17.6-7-5.8-12.9-17.5-14-28.8s-.1-10.8,5.4-18.5,8.5-9.6,7.9-17.9,3-8.8,13-8.8,16.1,2.2,14.4,10.7c-.7,3.5-.2,5.9,5.7,13.5s5.4,12.1,4.6,22.1c-1.2,14.6-3.4,20.9-10.5,26.9-10.9,9-1.7,12.2,4.4,15.4C126.1,107.5,71,107.1,74.9,101.6Z"/><path class="de" d="M75.1,101.6c.8-4.7,15.4-8.1,3.9-17.6-7.1-5.8-13-17.6-14.1-28.9s-.1-10.7,5.5-18.4,8.5-9.6,7.9-17.9,2.9-8.7,12.9-8.7,16,2.1,14.3,10.6c-.7,3.5-.2,5.9,5.7,13.5s5.4,12,4.6,22c-1.1,14.6-3.4,21-10.5,26.9-11,9.1-1.8,12.3,4.3,15.5C126,107.4,71.3,107.1,75.1,101.6Z"/><path class="df" d="M75.2,101.6C76,96.9,90.7,93.5,79,84c-7.1-5.8-12.9-17.7-14-29s-.1-10.5,5.4-18.3,8.6-9.5,8-17.9,2.8-8.6,12.8-8.6,16,2,14.2,10.5c-.7,3.4-.3,5.8,5.6,13.4s5.5,12.1,4.8,22.1c-1.2,14.6-3.4,21.1-10.6,26.9-11.2,9.1-1.9,12.3,4.2,15.5C125.9,107.3,71.6,107.1,75.2,101.6Z"/><path class="dg" d="M75.3,101.7c.7-4.8,15.6-8.2,3.8-17.8-7.1-5.7-13-17.7-14-28.9S65,44.5,70.5,36.8s8.7-9.6,7.9-17.9,2.8-8.7,12.8-8.7,15.9,2,14.1,10.5c-.7,3.4-.3,5.8,5.6,13.4s5.6,12,4.8,22c-1.1,14.6-3.4,21.2-10.6,27-11.3,9.1-2,12.3,4.1,15.5C125.8,107.3,72,107.1,75.3,101.7Z"/><path class="dh" d="M75.5,101.7c.6-4.8,15.5-8.2,3.6-17.8-7.1-5.7-12.9-17.7-14-29S65,44.5,70.5,36.8s8.8-9.5,8-17.9,2.7-8.6,12.6-8.6,16,1.9,14.1,10.4c-.8,3.4-.4,5.8,5.6,13.3s5.6,12.1,4.8,22.1c-1.1,14.6-3.4,21.2-10.6,27-11.4,9.1-2.1,12.4,4,15.5C125.7,107.2,72.3,107.2,75.5,101.7Z"/><path class="di" d="M75.6,101.7c.5-4.8,15.6-8.3,3.6-17.8-7.2-5.7-12.9-17.8-14-29.1s-.1-10.2,5.4-17.9,8.8-9.6,8-17.9,2.6-8.6,12.5-8.6,15.9,1.8,14,10.3c-.8,3.3-.4,5.7,5.6,13.3s5.6,12,4.9,22c-1.1,14.6-3.4,21.4-10.7,27.1-11.5,9.1-2.1,12.4,4,15.5C125.6,107.1,72.7,107.2,75.6,101.7Z"/><path class="dj" d="M75.7,101.7c.5-4.8,15.7-8.3,3.5-17.8C72,78.2,66.3,66,65.3,54.8s-.1-10.2,5.3-17.9,8.9-9.5,8.1-17.9,2.5-8.6,12.4-8.6S107,12.2,105,20.7c-.8,3.3-.4,5.7,5.6,13.2S116.3,46,115.5,56c-1.1,14.6-3.4,21.4-10.8,27.1-11.6,9-2.1,12.4,4,15.5C125.5,107.1,73,107.2,75.7,101.7Z"/><path class="dk" d="M75.9,101.8c.4-4.9,15.6-8.4,3.4-17.9-7.2-5.7-12.9-18-14-29.2s-.1-10,5.4-17.7,8.9-9.6,8.1-17.9,2.4-8.6,12.3-8.6,15.8,1.7,13.8,10.1c-.8,3.3-.5,5.7,5.6,13.3s5.7,12,4.9,22c-1.1,14.6-3.4,21.5-10.8,27.2-11.7,9-2.2,12.4,3.9,15.5C125.4,107,73.3,107.2,75.9,101.8Z"/><path class="dl" d="M76,101.8c1.1-4.8,15.7-8.4,3.4-18-7.3-5.6-12.9-18-14-29.2s-.1-9.9,5.3-17.6,9-9.5,8.2-17.9,2.3-8.6,12.2-8.6,15.8,1.7,13.7,10.1c-.8,3.3-.5,5.7,5.6,13.2s5.7,12.1,5,22.1c-1.1,14.6-3.5,21.6-10.9,27.2-11.8,9-2.3,12.4,3.8,15.5C125.3,106.9,74.6,107.6,76,101.8Z"/><path class="dm" d="M76.1,101.8c1.1-4.8,15.8-8.4,3.3-18-7.3-5.6-12.9-18.1-13.9-29.2s-.1-9.8,5.3-17.5,9-9.6,8.1-18,2.3-8.5,12.1-8.5,15.8,1.6,13.7,10c-.9,3.3-.6,5.7,5.6,13.2s5.8,12,5,22c-1.1,14.7-3.4,21.7-10.9,27.3-11.9,9-2.4,12.5,3.7,15.5C125.1,106.8,74.9,107.5,76.1,101.8Z"/><path class="dn" d="M76.3,101.9c.9-5,15.7-8.5,3.2-18.1-7.3-5.6-12.9-18.1-14-29.3s-.1-9.7,5.3-17.4,9.1-9.5,8.2-17.9,2.2-8.5,12-8.5,15.8,1.5,13.6,9.9c-.9,3.2-.6,5.6,5.6,13.1s5.8,12.1,5.1,22.1c-1.1,14.6-3.5,21.7-11,27.3-12,9-2.5,12.5,3.7,15.4C125,106.8,75.2,107.5,76.3,101.9Z"/><path class="do" d="M76.4,101.9c.8-5,15.8-8.5,3.1-18.1-7.3-5.6-12.8-18.2-13.9-29.4s-.1-9.5,5.3-17.2,9.1-9.6,8.2-18,2.1-8.5,11.9-8.5,15.8,1.5,13.5,9.9c-.9,3.2-.6,5.6,5.6,13.1s5.8,12,5.1,22c-1.1,14.7-3.5,21.8-11,27.4-12.2,9-2.6,12.5,3.6,15.4C124.9,106.7,75.5,107.5,76.4,101.9Z"/><path class="dp" d="M76.5,101.9c.7-5,15.9-8.5,3.1-18.1-7.4-5.6-12.9-18.3-13.9-29.4s-.1-9.5,5.2-17.2,9.2-9.5,8.3-17.9,2-8.5,11.8-8.5,15.7,1.4,13.4,9.8c-.9,3.1-.7,5.6,5.6,13s5.9,12,5.1,22.1c-1,14.6-3.5,21.9-11,27.4-12.3,9-2.7,12.5,3.5,15.4C124.8,106.6,75.8,107.5,76.5,101.9Z"/><path class="dq" d="M76.7,101.9c.5-5,15.8-8.5,2.9-18.2-7.4-5.5-12.8-18.3-13.9-29.4s-.1-9.3,5.3-17,9.2-9.6,8.3-18,1.9-8.5,11.6-8.5,15.8,1.4,13.3,9.8c-.8,3.1-.6,5.5,5.6,13s6,12,5.3,22c-1.1,14.7-3.5,22-11.1,27.5-12.4,9-2.7,12.6,3.4,15.4C124.7,106.6,76,107.5,76.7,101.9Z"/><path class="dr" d="M76.8,102c.4-5.1,15.9-8.6,2.9-18.3-7.4-5.5-12.9-18.4-13.9-29.5S65.7,45,71,37.3s9.4-9.5,8.4-17.9,1.8-8.5,11.5-8.5,15.7,1.3,13.2,9.7c-.9,3.1-.6,5.5,5.6,12.9s6,12,5.3,22c-1,14.7-3.5,22.1-11.1,27.6-12.5,9-2.8,12.6,3.3,15.4C124.6,106.5,76.3,107.5,76.8,102Z"/><path class="ds" d="M76.9,102c.4-5.1,16-8.6,2.9-18.3-7.5-5.5-12.9-18.4-13.9-29.5s-.1-9.2,5.2-16.8,9.4-9.6,8.3-18S81.2,11,90.9,11s15.7,1.2,13.1,9.6c-.9,3-.7,5.4,5.6,12.9s6.1,12,5.4,22c-1.1,14.7-3.6,22.2-11.2,27.5-12.7,9.1-2.9,12.7,3.2,15.5C124.5,106.4,76.6,107.5,76.9,102Z"/><path class="dt" d="M77.1,102c.2-5.1,16-8.6,2.7-18.3C72.3,78.2,67,65.2,65.9,54.1s-.1-9,5.2-16.7,9.5-9.5,8.4-17.9S81.3,11,90.9,11s15.7,1.2,13,9.6c-.9,3-.7,5.4,5.6,12.8s6.1,12,5.4,22c-1,14.7-3.5,22.3-11.2,27.6-12.8,9.1-3,12.7,3.2,15.5C124.4,106.3,76.9,107.5,77.1,102Z"/><path class="du" d="M77.2,102c.1-5.1,16-8.6,2.7-18.3C72.4,78.2,67,65.1,66,54s-.1-8.9,5.2-16.5,9.5-9.6,8.4-18,1.7-8.4,11.2-8.4c11,0,15.7,1.1,13,9.5-.9,2.9-.8,5.4,5.6,12.8s6.1,12,5.4,22c-1,14.7-3.5,22.3-11.2,27.6-12.9,9.1-3.1,12.7,3.1,15.5C124.3,106.3,77.1,107.5,77.2,102Z"/><path class="dv" d="M77.3,102.1c0-5.3,16.1-8.8,2.6-18.5C72.4,78.2,67.1,65,66.1,54s-.2-8.8,5.1-16.5,9.6-9.5,8.5-18,1.6-8.4,11.1-8.4c11,.1,15.7,1.1,12.9,9.5-.9,2.9-.8,5.3,5.6,12.7s6.2,12,5.5,22C113.7,70,111.2,77.7,103.5,83c-13,9-3.2,12.8,3,15.5C124.2,106.2,77.4,107.5,77.3,102.1Z"/><path class="dw" d="M77.5,102.1c-.2-5.3,16.1-8.8,2.5-18.5-7.6-5.4-12.8-18.7-13.9-29.7s-.1-8.7,5.2-16.3,9.6-9.6,8.5-18,1.5-8.4,11-8.4c11,0,15.7,1,12.8,9.4-.9,2.9-.9,5.3,5.6,12.7s6.2,12,5.5,22c-1,14.7-3.6,22.5-11.3,27.7-13.2,9-3.3,12.8,2.9,15.5C124,106.1,77.7,107.5,77.5,102.1Z"/><path class="dx" d="M77.6,102.1c-.4-5.3,16.1-8.8,2.4-18.5-7.6-5.4-12.8-18.8-13.8-29.8s-.1-8.5,5.1-16.2,9.7-9.5,8.6-18,1.4-8.3,10.9-8.3,15.6.9,12.7,9.3c-1,2.8-.9,5.3,5.6,12.6s6.2,12,5.5,22c-1,14.7-3.5,22.6-11.3,27.8-13.3,9-3.4,12.8,2.8,15.4C123.9,106.1,78,107.5,77.6,102.1Z"/><path class="dy" d="M77.7,102.2c-.5-5.3,16.2-8.9,2.4-18.6-7.6-5.4-12.8-18.8-13.8-29.8s-.2-8.5,5.1-16.1,9.7-9.6,8.5-18,1.4-8.4,10.9-8.4,15.6.9,12.6,9.3c-1,2.8-.9,5.2,5.6,12.6s6.3,12,5.6,22c-1,14.7-3.6,22.6-11.4,27.8-13.4,9-3.4,12.8,2.8,15.4C123.8,105.9,78.2,107.5,77.7,102.2Z"/><path class="dz" d="M77.9,102.2c-.7-5.3,16.2-8.9,2.3-18.6-7.7-5.4-12.8-18.9-13.9-29.9s-.1-8.3,5.1-16,9.8-9.5,8.6-18,1.3-8.3,10.7-8.3,15.7.8,12.6,9.2c-1,2.8-1,5.2,5.6,12.5s6.3,12,5.6,22c-1,14.7-3.6,22.7-11.4,27.9-13.5,9-3.5,12.8,2.7,15.4C123.7,105.9,78.5,107.5,77.9,102.2Z"/><path class="ea" d="M78,102.2c-.8-5.3,16.2-8.9,2.2-18.7-7.7-5.3-12.8-18.9-13.8-29.9s-.1-8.2,5.1-15.8,9.8-9.6,8.6-18,1.2-8.4,10.6-8.4,15.6.9,12.5,9.2c-1,2.7-1,5.2,5.5,12.5s6.4,11.9,5.8,22c-1,14.7-3.7,22.8-11.5,27.9-13.7,9-3.6,12.9,2.6,15.4C123.6,105.8,78.8,107.6,78,102.2Z"/></g><polygon class="eb" points="115.7 51.8 115.6 51.4 115.6 51.4 115.7 51.8"/><polygon class="eb" points="115.7 51.8 115.6 51.4 115.6 51.4 115.7 51.8"/></g><path class="g" d="M66.6,130.6h-.9l-.9-.5-.6-.8a2.5,2.5,0,0,1-.3-1.3V122a3.6,3.6,0,0,1,.2-1.1,2.4,2.4,0,0,1,.6-.8l.8-.6a3.8,3.8,0,0,1,2.1,0l.8.6a1.5,1.5,0,0,1,.6.9,3.6,3.6,0,0,1,.2,1.1v.5a.3.3,0,0,1-.1.2H67.6a.2.2,0,0,1-.2-.2v-.5a1.9,1.9,0,0,0-.2-.7.9.9,0,0,0-.6-.3c-.4,0-.6.1-.7.3a2,2,0,0,0-.2.9v5.5a1.4,1.4,0,0,0,.2.7c.1.2.3.3.7.3h.2l.3-.2.2-.3a.7.7,0,0,0,.1-.5v-.5h1.8v.7a4.4,4.4,0,0,1-.2,1,1.6,1.6,0,0,1-.6.8l-.8.6-1,.2"/><path class="g" d="M73.1,130.6l-1-.2-.8-.5a2.2,2.2,0,0,1-.7-.9,3.7,3.7,0,0,1-.2-1.2v-5.7a5,5,0,0,1,.2-1.2l.7-.9a1.9,1.9,0,0,1,.9-.5,3.1,3.1,0,0,1,1.9,0l.9.5.6.9a2.5,2.5,0,0,1,.2,1.2v5.7a2.2,2.2,0,0,1-.2,1.2,3.5,3.5,0,0,1-.6.9l-.9.5-1,.2m0-9.5-.6.3a.8.8,0,0,0-.3.7v5.7a1,1,0,0,0,.3.8l.6.2.7-.2a1,1,0,0,0,.3-.8v-5.7a.8.8,0,0,0-.3-.7.9.9,0,0,0-.7-.3"/><path class="g" d="M82.9,130.5H81.4l-2-5.5h-.2v5.4H77.4V119.6l.2-.2h1.6l1.9,5.5h.2v-5.6h1.5l.2.2v10.8h-.2"/><path class="g" d="M91.7,130.5H90.1V125h-.2l-1.1,3.5h-1L86.6,125h-.2v5.4H84.7V119.6c0-.1,0-.2.1-.2h1.6l1.8,5.2h.2l1.8-5.2h1.5l.2.2v10.8h-.2"/><path class="g" d="M98.2,130.5H93.5V119.6c0-.1,0-.2.1-.2h4.6c.1,0,.1.1.1.2V121H95.4a.1.1,0,0,0-.1.1V124h2.5c.1,0,.1,0,.1.1v1.4c0,.1,0,.2-.1.2H95.4c-.1,0-.1,0-.1.1v2.7h2.9c.1,0,.1.1.1.2v1.5h-.1"/><path class="g" d="M101.8,130.5H99.6V119.6c0-.1,0-.2.1-.2h2.2a3.2,3.2,0,0,1,1.4.3l.9.6a4.1,4.1,0,0,1,.5.9,4.1,4.1,0,0,1,.1,1.1v.4a1.9,1.9,0,0,1-.1.8.8.8,0,0,1-.2.5l-.3.5-.3.2a1.3,1.3,0,0,1,.6.7,2.9,2.9,0,0,1,.3,1.4v.6a2.7,2.7,0,0,1-3,3.1m-.5-1.9h1.3l.3-.3a1.4,1.4,0,0,0,.2-.6v-1.4l-.2-.4c-.1-.2-.2-.3-.4-.3h-1.2Zm0-4.8h.6a1.1,1.1,0,0,0,1-.4,2.5,2.5,0,0,0,.2-1,1.3,1.3,0,0,0-.3-1c-.1-.3-.5-.4-.9-.4h-.6Z"/><path class="g" d="M108.7,130.6l-.9-.2a2.6,2.6,0,0,1-.9-.5,1.5,1.5,0,0,1-.6-.9,2.1,2.1,0,0,1-.3-1.2v-5.7a2.7,2.7,0,0,1,.3-1.2,2.4,2.4,0,0,1,.6-.9,2.6,2.6,0,0,1,.9-.5,3.1,3.1,0,0,1,1.9,0l.9.5a2.4,2.4,0,0,1,.6.9,2.7,2.7,0,0,1,.3,1.2v5.7a2.1,2.1,0,0,1-.3,1.2,1.5,1.5,0,0,1-.6.9l-.9.5-1,.2m0-9.5a.9.9,0,0,0-.6.3.8.8,0,0,0-.3.7v5.7a1,1,0,0,0,.3.8l.6.2.7-.2a1,1,0,0,0,.3-.8v-5.7a.8.8,0,0,0-.3-.7.9.9,0,0,0-.7-.3"/><path class="g" d="M117.4,130.5h-4.7v-11h1.5l.2.2v9h2.9c.1,0,.1.1.1.2v1.5h-.1"/><path class="g" d="M122.5,125.9h-3l-.2-.2v-1.4l.2-.2h3l.2.2v1.4l-.2.2"/><path class="g" d="M60.5,125.9h-3l-.2-.2v-1.4l.2-.2h3l.2.2v1.4l-.2.2"/><path class="g" d="M24.1,154.7c-5.3,0-8.6-3.3-8.6-8.7s3.5-8.7,8.7-8.7,8.6,3.4,8.6,8.7-3.3,8.7-8.7,8.7m0-14.3c-3.8,0-4.3,3.5-4.3,5.6s.5,5.7,4.4,5.7,4.4-3.5,4.4-5.7-.6-5.6-4.5-5.6"/><path class="g" d="M158,154.7c-5.2,0-8.3-3.2-8.3-8.7s3.2-8.7,8.4-8.7a14.9,14.9,0,0,1,4.8.9l1.9.6-1.1,3-1.5-.4a12.7,12.7,0,0,0-3.7-.7c-3,0-4.5,1.8-4.5,5.3s1.5,5.3,4.5,5.3a12.3,12.3,0,0,0,3.6-.6h.4l-1.4,3.7H161l-2.8.3Z"/><path class="g" d="M8.3,154.7c-5.2,0-8.3-3.2-8.3-8.7s3.2-8.7,8.3-8.7a16,16,0,0,1,4.9.9l1.3.3-1.1,3.2-.8-.3a16.3,16.3,0,0,0-3.8-.7c-3,0-4.5,1.8-4.5,5.3s1.5,5.3,4.5,5.3a11,11,0,0,0,3.8-.7l.8-.2,1.1,3.1-1.3.4a19.1,19.1,0,0,1-4.8.8Z"/><path class="g" d="M97.3,154.7a2.1,2.1,0,0,1-2.3-1.5l-2.6-7.7-.8-2.2v11.2H88V139.8c0-1.6,1.1-2.5,3-2.5a3,3,0,0,1,3.3,2.3l3,9.2,3.2-9.2a2.9,2.9,0,0,1,3.2-2.3c1.9,0,3,.9,3,2.5v14.7h-3.8V143.2l-.8,2.3-2.6,7.7a2,2,0,0,1-2.2,1.5"/><path class="g" d="M175.7,154.5l-1-3h-6.3l-.5,1.6a2,2,0,0,1-2,1.4h-2.8l5.7-15.4a2.7,2.7,0,0,1,2.9-1.8,2.7,2.7,0,0,1,2.8,1.8l5.5,15.4Zm-6.4-6h4.6l-2.3-6.8Z"/><rect class="g" x="142.7" y="137.4" width="4.2" height="17.1"/><path class="g" d="M135.8,154.5l-2.7-6.1h-3.6v6.1h-4.1V139.6a2.1,2.1,0,0,1,2.3-2.2h6c3.6,0,5.9,2.2,5.9,5.3a4.8,4.8,0,0,1-2.4,4.4l-.3.2,3.3,7.2Zm-6.3-9.1h3.7a2.6,2.6,0,0,0,2.4-2.7,2.2,2.2,0,0,0-2.4-2.3h-3.7Z"/><path class="g" d="M112.3,154.5a2.1,2.1,0,0,1-2.3-2.1V139.6a2.1,2.1,0,0,1,2.3-2.2h10.3v1.1a2,2,0,0,1-2.1,2h-6.4v3.8h7.4v3h-7.4v4.2h8.5v3Z"/><path class="g" d="M82.1,154.5l-1-3H74.8l-.6,1.6a2,2,0,0,1-2,1.4H69.5l5.7-15.4a2.7,2.7,0,0,1,2.9-1.8,2.7,2.7,0,0,1,2.8,1.8l5.5,15.4Zm-6.4-6h4.5L78,141.7Z"/><path class="g" d="M60.2,154.5l-1.1-3H52.9l-.6,1.6a2,2,0,0,1-2,1.4H47.6l5.7-15.4c.4-1.2,1.3-1.8,2.9-1.8a2.7,2.7,0,0,1,2.8,1.8l5.5,15.4Zm-6.4-6h4.5l-2.2-6.8Z"/><path class="g" d="M35.3,154.5V139.6a2.2,2.2,0,0,1,2.4-2.2h5.2c3.6,0,5.9,2.2,5.9,5.6s-2.4,5.5-6.1,5.5H39.4v6Zm4.1-9h3a2.3,2.3,0,0,0,2.5-2.5c0-1.7-.9-2.5-3-2.5H39.4Z"/><g class="ec"><path class="ed" d="M100.6,84.5,103,83c5.6-3.5,9.4-9.9,11.3-20.4a77.5,77.5,0,0,0,1.2-21.9,6,6,0,0,0-3.9-5.1l-1.2-.5-.6-3.6a2.9,2.9,0,0,0-1.6-2.1c-6.5-3-4.9-8.5-4.3-12.8h0a2.9,2.9,0,0,0,3.9-2.2l.3-1.3a1.9,1.9,0,0,0-1.3-2.2A60.5,60.5,0,0,0,90.6,8.6a62.3,62.3,0,0,0-15.9,2.2,2.4,2.4,0,0,0-1.6,2.8l.2.8a3,3,0,0,0,3.9,2.2h0c.5,4.5,1.6,10-3.7,13a4.3,4.3,0,0,0-2.3,3.2l-.5,2.8-1.5.7a5.8,5.8,0,0,0-3.5,5.1c-.5,6.5-.2,12.1,1.9,21.2,2.4,10.6,7.1,16.9,13,21l1.9,1.3c4.6,3.1,1.8,11.8-6.7,13.4a7.8,7.8,0,0,0-5.9,4.3l-3.1,6.2h47.5l-3.4-6.7a6.9,6.9,0,0,0-5.1-3.8C97.2,97,95.4,88,100.6,84.5Z"/><path class="ee" d="M100.2,84.5l2.4-1.5c5.2-3.6,9-9.9,10.8-20.3a81.7,81.7,0,0,0,1.1-22,5.9,5.9,0,0,0-3.7-5.1l-1.2-.5-.6-3.5a2.7,2.7,0,0,0-1.5-2.2c-6.2-3.1-4.7-8.5-4-13h.1c1.9.3,3.8-.3,4.2-2.1l.2-1.2a1.9,1.9,0,0,0-1.4-2.2A62.1,62.1,0,0,0,90.3,8.6a59.3,59.3,0,0,0-15.5,2.2,2.4,2.4,0,0,0-1.7,2.7l.2.9a3,3,0,0,0,3.9,2.1h.1c.6,4.8,1.6,10.2-3.7,13.1a4.5,4.5,0,0,0-2.4,3.4l-.4,2.7-1.5.7a5.8,5.8,0,0,0-3.5,5.1c-.5,6.6-.2,12.1,1.9,21.2,2.4,10.6,7,16.8,12.9,21l1.9,1.2c4.6,3.2,1.8,11.9-6.7,13.5a8.2,8.2,0,0,0-5.9,4.3l-3,6.2h46.6l-3.3-6.7a6.6,6.6,0,0,0-5-3.7C96.9,96.9,95.3,88.1,100.2,84.5Z"/><path class="ef" d="M99.8,84.5l2.3-1.5c5-3.7,8.6-9.9,10.3-20.3a85.9,85.9,0,0,0,1.1-22,6.1,6.1,0,0,0-3.5-5.1l-1.2-.5-.5-3.5a3,3,0,0,0-1.5-2.2c-5.8-3.2-4.4-8.5-3.8-13.1h.3c2.1.4,4-.3,4.4-2L108,13a1.9,1.9,0,0,0-1.6-2.1A58.7,58.7,0,0,0,90.1,8.6a62.8,62.8,0,0,0-15.3,2.2,2.2,2.2,0,0,0-1.6,2.7v.8a2.9,2.9,0,0,0,3.9,2h.2c.6,4.9,1.6,10.2-3.7,13.2a4.5,4.5,0,0,0-2.4,3.4l-.4,2.7-1.5.7a5.8,5.8,0,0,0-3.5,5c-.5,6.7-.2,12.3,1.9,21.4s7,16.7,12.9,20.8l1.8,1.3c4.6,3.2,1.8,11.9-6.7,13.5a7.8,7.8,0,0,0-5.8,4.3l-3.1,6.1h45.8l-3.2-6.6a6.8,6.8,0,0,0-4.9-3.7C96.6,96.9,95.1,88.2,99.8,84.5Z"/><path class="eg" d="M99.4,84.5l2.2-1.6c4.7-3.7,8.2-9.7,9.9-20.2a95.3,95.3,0,0,0,1-22,5.9,5.9,0,0,0-3.4-5.1l-1.1-.5-.5-3.5a3,3,0,0,0-1.4-2.3c-5.5-3.2-4.1-8.4-3.6-13.2h.4c2.3.3,4.4-.3,4.7-1.9l.3-1.2c.2-1-.8-1.9-1.7-2.2A61.1,61.1,0,0,0,89.9,8.7a57.9,57.9,0,0,0-15.1,2.1,2.3,2.3,0,0,0-1.6,2.7l.2.7a2.8,2.8,0,0,0,3.8,2h.3c.7,5.1,1.6,10.4-3.8,13.4a4.8,4.8,0,0,0-2.3,3.4l-.5,2.7-1.4.6a6.2,6.2,0,0,0-3.6,5.1,67.8,67.8,0,0,0,2,21.4c2.4,10.5,6.9,16.6,12.8,20.8l1.8,1.3c4.7,3.2,1.8,11.9-6.7,13.5a8,8,0,0,0-5.8,4.3l-3,6.1h44.9l-3.1-6.6a7,7,0,0,0-4.7-3.7C96.3,96.9,95,88.2,99.4,84.5Z"/><path class="eh" d="M99.1,84.5l2.1-1.6c4.3-3.9,7.8-9.7,9.4-20.1a101.7,101.7,0,0,0,.9-22.1c-.2-2.3-1.4-4.4-3.2-5.1l-1.1-.5-.5-3.4a3.7,3.7,0,0,0-1.2-2.4c-5.2-3.3-3.9-8.4-3.4-13.3h.5c2.5.3,4.6-.2,4.9-1.8l.3-1.2c.2-.9-.9-1.9-1.8-2.1A59,59,0,0,0,89.7,8.7a55.2,55.2,0,0,0-14.8,2.1,2.3,2.3,0,0,0-1.7,2.6l.2.8a3,3,0,0,0,3.9,1.9c0-.1.2-.1.3-.1.7,5.2,1.6,10.4-3.8,13.5a5,5,0,0,0-2.4,3.4L71,35.6l-1.5.6A6.3,6.3,0,0,0,66,41.3a67.8,67.8,0,0,0,2,21.4c2.4,10.5,6.8,16.6,12.7,20.8l1.9,1.3c4.6,3.1,1.7,11.9-6.7,13.5a7.8,7.8,0,0,0-5.8,4.3l-3,6.1h44l-3.1-6.6a6.9,6.9,0,0,0-4.5-3.7C96.1,96.8,94.9,88.3,99.1,84.5Z"/><path class="ei" d="M98.7,84.5a11.6,11.6,0,0,1,2-1.6c4-4,7.4-9.7,8.9-20.1a101.7,101.7,0,0,0,.9-22.1c-.2-2.3-1.3-4.4-3.1-5.1l-1-.5-.5-3.4a3.6,3.6,0,0,0-1.1-2.4c-4.9-3.4-3.7-8.4-3.2-13.5h.6c2.7.3,4.9-.1,5.3-1.7l.2-1.2c.2-.9-1-1.8-1.9-2.1a64.7,64.7,0,0,0-16.3-2,58.5,58.5,0,0,0-14.6,2.1,2.1,2.1,0,0,0-1.6,2.6v.7a2.9,2.9,0,0,0,3.9,1.8h.4c.8,5.5,1.6,10.6-3.8,13.7a4.7,4.7,0,0,0-2.4,3.4l-.4,2.7-1.5.6a6.2,6.2,0,0,0-3.5,5.1,68.4,68.4,0,0,0,2,21.5c2.4,10.4,6.8,16.4,12.6,20.7l1.9,1.3c4.6,3.1,1.8,11.9-6.7,13.5a8.1,8.1,0,0,0-5.8,4.2l-3,6.1h43.1l-2.9-6.6a6.2,6.2,0,0,0-4.3-3.6A8.4,8.4,0,0,1,98.7,84.5Z"/><path class="ej" d="M98.3,84.5a16,16,0,0,1,1.9-1.6c3.7-4.1,7.1-9.6,8.5-20a108.5,108.5,0,0,0,.8-22.2c-.2-2.3-1.3-4.4-2.9-5.1l-1-.5-.4-3.4a3.6,3.6,0,0,0-1.1-2.4c-4.5-3.5-3.4-8.4-3-13.7h.8c2.8.3,5.1-.1,5.5-1.7l.2-1.1c.2-.9-1.1-1.9-2.1-2.1a59.5,59.5,0,0,0-16.2-2,61.7,61.7,0,0,0-14.3,2,2.4,2.4,0,0,0-1.7,2.6l.2.8c.3,1.5,2.1,2.3,3.8,1.7h.5c.8,5.6,1.6,10.6-3.8,13.8a4.7,4.7,0,0,0-2.4,3.4l-.5,2.7-1.4.6a6.2,6.2,0,0,0-3.5,5.1,68.4,68.4,0,0,0,2,21.5c2.3,10.4,6.7,16.4,12.6,20.6l1.8,1.3c4.6,3.2,1.8,12-6.7,13.6a7.8,7.8,0,0,0-5.7,4.2l-3,6.1h42.2l-2.8-6.4a6.2,6.2,0,0,0-4.2-3.7C95.5,96.7,94.6,88.4,98.3,84.5Z"/><path class="ek" d="M98,84.5a6.6,6.6,0,0,1,1.7-1.6c3.5-4.2,6.7-9.6,8.1-20a115.2,115.2,0,0,0,.7-22.2c-.2-2.3-1.2-4.4-2.8-5.1l-.9-.5-.4-3.3a3.6,3.6,0,0,0-1-2.5c-4.1-3.6-3.1-8.4-2.8-13.8h1c3,.3,5.4,0,5.7-1.6l.2-1.1c.2-.9-1.2-1.8-2.2-2.1A66.1,66.1,0,0,0,89.1,8.7a60.5,60.5,0,0,0-14.1,2,2.2,2.2,0,0,0-1.6,2.6V14a2.8,2.8,0,0,0,3.8,1.7h.6c.8,5.7,1.6,10.7-3.8,13.9A5.1,5.1,0,0,0,71.6,33l-.4,2.5-1.4.7a6.2,6.2,0,0,0-3.5,5.1,68.4,68.4,0,0,0,2,21.5c2.3,10.4,6.6,16.3,12.5,20.6l1.9,1.3c4.5,3.2,1.7,12-6.8,13.5a8.3,8.3,0,0,0-5.7,4.3l-3,6.1h41.4l-2.7-6.4a6.5,6.5,0,0,0-4.1-3.7C95.2,96.7,94.5,88.5,98,84.5Z"/><path class="el" d="M97.6,84.5a6.6,6.6,0,0,1,1.7-1.6c3.1-4.3,6.3-9.6,7.5-20a123.9,123.9,0,0,0,.7-22.2c-.2-2.3-1.1-4.4-2.6-5.1l-.9-.5-.4-3.3a4.1,4.1,0,0,0-.8-2.5c-3.9-3.7-2.9-8.4-2.6-14h1c3.2.3,5.7,0,6-1.5l.2-1c.2-.9-1.3-1.9-2.3-2.1A66.8,66.8,0,0,0,88.9,8.7a59.3,59.3,0,0,0-13.9,2,2.2,2.2,0,0,0-1.6,2.5v.7c.4,1.5,2.1,2.2,3.9,1.7l.6-.2c.9,5.9,1.6,10.8-3.8,14A5.2,5.2,0,0,0,71.7,33l-.4,2.5-1.4.7a6,6,0,0,0-3.5,5.1,68.2,68.2,0,0,0,2,21.5C70.7,73.2,75,79.1,80.8,83.4l1.9,1.3c4.6,3.1,1.7,12-6.7,13.5a7.9,7.9,0,0,0-5.7,4.3l-3,6h40.5l-2.6-6.4a6.4,6.4,0,0,0-3.9-3.7C94.9,96.6,94.4,88.6,97.6,84.5Z"/><path class="em" d="M97.2,84.5a6.4,6.4,0,0,1,1.6-1.7c2.8-4.3,5.9-9.4,7.1-19.8a133.9,133.9,0,0,0,.6-22.3c-.2-2.3-1-4.4-2.5-5.1l-.8-.5-.4-3.3a4.1,4.1,0,0,0-.7-2.5c-3.5-3.8-2.6-8.4-2.4-14.1a2.3,2.3,0,0,1,1.2-.1c3.4.2,5.9,0,6.2-1.5l.3-1c.1-.9-1.5-1.8-2.5-2.1A68.4,68.4,0,0,0,88.7,8.7a61.8,61.8,0,0,0-13.6,2,2.2,2.2,0,0,0-1.7,2.5l.2.7c.3,1.4,2,2.1,3.8,1.5h.7c.9,6,1.6,10.9-3.9,14.1A5,5,0,0,0,71.8,33l-.4,2.5-1.4.6a6.1,6.1,0,0,0-3.5,5.2,69,69,0,0,0,2,21.6C70.8,73.2,75,79,80.9,83.4l1.8,1.3c4.6,3.1,1.7,12-6.7,13.5a7.9,7.9,0,0,0-5.7,4.3l-2.9,6H107l-2.6-6.4a6.1,6.1,0,0,0-3.7-3.7C94.6,96.6,94.2,88.6,97.2,84.5Z"/><path class="en" d="M96.9,84.5a5.5,5.5,0,0,1,1.4-1.7c2.5-4.4,5.6-9.4,6.6-19.8a133.7,133.7,0,0,0,.6-22.3c-.2-2.3-.9-4.4-2.3-5.1l-.8-.5-.3-3.2a5.4,5.4,0,0,0-.7-2.6C98.3,25.4,99,20.9,99.2,15h1.3c3.6.3,6.3.1,6.6-1.4l.2-1c.2-.8-1.6-1.8-2.6-2A66.1,66.1,0,0,0,88.5,8.8a56.2,56.2,0,0,0-13.4,1.9,2.1,2.1,0,0,0-1.6,2.5v.6c.3,1.5,2,2.1,3.8,1.5l.8-.2c1,6.3,1.6,11.1-3.9,14.3A5.5,5.5,0,0,0,71.8,33l-.4,2.5-1.3.6a6.1,6.1,0,0,0-3.5,5.2,69,69,0,0,0,2,21.6C70.9,73.2,75,79,80.9,83.4l1.9,1.3c4.5,3.1,1.6,12-6.8,13.5a8,8,0,0,0-5.6,4.2l-3,6.1h38.8l-2.5-6.3a6.1,6.1,0,0,0-3.6-3.6C94.4,96.6,94.1,88.6,96.9,84.5Z"/><path class="eo" d="M96.5,84.5a4.6,4.6,0,0,1,1.4-1.7c2.1-4.5,5.1-9.4,6.1-19.7a145.5,145.5,0,0,0,.5-22.4c-.2-2.3-.9-4.4-2.1-5.1l-.8-.5-.3-3.2a5.1,5.1,0,0,0-.6-2.7c-2.7-3.8-2.1-8.3-2-14.4h1.5c3.8.3,6.5.2,6.8-1.3l.2-.9c.2-.9-1.7-1.8-2.7-2A62,62,0,0,0,88.3,8.8a53.2,53.2,0,0,0-13.1,1.9,2.1,2.1,0,0,0-1.7,2.4v.6c.4,1.5,2,2,3.8,1.5l.9-.2c1,6.4,1.6,11.1-3.9,14.4A5.2,5.2,0,0,0,71.9,33l-.4,2.5-1.4.6a6.1,6.1,0,0,0-3.4,5.2c-.4,6.7,0,12.5,2,21.6s6.3,16,12.2,20.4l1.9,1.3c4.5,3.2,1.6,12.1-6.8,13.6a8,8,0,0,0-5.6,4.2l-2.9,6.1h37.8l-2.3-6.2a6,6,0,0,0-3.4-3.7C94.1,96.5,94,88.7,96.5,84.5Z"/><path class="ep" d="M96.1,84.5c.4-.7.6-1.3,1.3-1.7,1.9-4.6,4.8-9.3,5.7-19.7a157.6,157.6,0,0,0,.4-22.4,7.1,7.1,0,0,0-2-5.1,1.6,1.6,0,0,1-.7-.5l-.3-3.2a5.2,5.2,0,0,0-.5-2.7c-2.4-3.9-1.8-8.3-1.7-14.5a3.5,3.5,0,0,1,1.5-.1c4,.2,6.8.2,7.1-1.3l.2-.9c.2-.8-1.8-1.8-2.8-2A68.7,68.7,0,0,0,88.1,8.8a52,52,0,0,0-12.9,1.9,2.1,2.1,0,0,0-1.7,2.4l.2.6c.3,1.4,1.9,1.9,3.8,1.3l.9-.2c1,6.6,1.6,11.3-3.9,14.6A5.2,5.2,0,0,0,72,33l-.4,2.5-1.4.6a6.1,6.1,0,0,0-3.4,5.2c-.4,6.7,0,12.6,2,21.7S75.1,78.9,81,83.3l1.8,1.3c4.6,3.1,1.6,12.1-6.7,13.6a7.8,7.8,0,0,0-5.6,4.2l-2.9,6h36.9l-2.2-6.2A6.4,6.4,0,0,0,99,98.6C93.8,96.5,93.8,88.7,96.1,84.5Z"/><path class="eq" d="M95.7,84.5a4.3,4.3,0,0,1,1.2-1.7c1.6-4.7,4.4-9.3,5.2-19.7a157.5,157.5,0,0,0,.4-22.4,8.3,8.3,0,0,0-1.8-5.1,1.6,1.6,0,0,1-.7-.5L99.7,32a7.2,7.2,0,0,0-.3-2.8c-2.1-3.9-1.6-8.3-1.6-14.7a4.4,4.4,0,0,1,1.7-.1c4.1.2,7.1.3,7.3-1.2l.2-.8c.2-.9-1.9-1.8-3-2A62.9,62.9,0,0,0,87.9,8.8a56.1,56.1,0,0,0-12.7,1.9A2,2,0,0,0,73.6,13v.6c.3,1.4,2,1.9,3.8,1.3l1-.2c1.1,6.7,1.6,11.3-3.9,14.7A5.3,5.3,0,0,0,72,33.1l-.4,2.4-1.3.6a5.7,5.7,0,0,0-3.4,5.2c-.4,6.7,0,12.6,2,21.7S75.1,78.9,81,83.3l1.8,1.3c4.6,3.1,1.6,12.1-6.7,13.6a8,8,0,0,0-5.6,4.2l-2.9,6h36.1l-2.2-6.2a6.4,6.4,0,0,0-3-3.7C93.5,96.5,93.7,88.7,95.7,84.5Z"/><path class="er" d="M95.4,84.5c.3-.7.4-1.3,1.1-1.7,1.2-4.8,4-9.3,4.7-19.6a218.8,218.8,0,0,0,.3-22.5,8.3,8.3,0,0,0-1.7-5.1,1,1,0,0,1-.6-.5L99,32a9.9,9.9,0,0,0-.3-2.8c-1.7-3.9-1.4-8.3-1.4-14.8l1.9-.2c4.3.3,7.3.4,7.6-1.1v-.8c.2-.8-2.1-1.8-3.1-2A69.2,69.2,0,0,0,87.7,8.8a60.4,60.4,0,0,0-12.4,1.8A2.2,2.2,0,0,0,73.6,13v.6c.4,1.3,2,1.8,3.8,1.2l1.1-.3c1.1,7,1.6,11.5-3.9,14.9a5,5,0,0,0-2.6,3.7l-.4,2.4-1.3.6A5.7,5.7,0,0,0,67,41.3C66.6,48,67,53.9,69,63s6.1,15.8,12,20.3l1.9,1.3c4.5,3.1,1.6,12.1-6.8,13.6a7.4,7.4,0,0,0-5.5,4.2l-2.9,6h35.2l-2.1-6.2a5.7,5.7,0,0,0-2.9-3.6C93.2,96.4,93.6,88.8,95.4,84.5Z"/><path class="es" d="M95,84.5c.3-.8.4-1.4,1-1.7.9-4.9,3.6-9.3,4.3-19.6s.4-15.7.2-22.5A9.1,9.1,0,0,0,99,35.6a1,1,0,0,1-.6-.5L98.2,32a18,18,0,0,0-.2-2.8c-2.1-3.6-1.1-8.3-1.1-15l1.9-.2c4.5.3,7.6.4,7.9-1l.2-.8c.1-.8-2.3-1.7-3.3-1.9A71.3,71.3,0,0,0,87.4,8.8a59,59,0,0,0-12.1,1.8A2.1,2.1,0,0,0,73.7,13v.5c.3,1.3,1.9,1.7,3.7,1.1l1.2-.2c1.2,7.1,1.7,11.5-4,14.9a6,6,0,0,0-2.6,3.8l-.3,2.4-1.3.6a5.7,5.7,0,0,0-3.4,5.2,72.5,72.5,0,0,0,2,21.7c2.2,10.1,6.1,15.8,12,20.3l1.8,1.2c4.5,3.2,1.6,12.2-6.8,13.7a7.7,7.7,0,0,0-5.5,4.1l-2.8,6h34.3l-2-6.1a6.2,6.2,0,0,0-2.8-3.6C93,96.4,93.4,88.8,95,84.5Z"/><path class="et" d="M94.6,84.5c.3-.8.3-1.4.9-1.8.6-4.9,3.2-9.1,3.8-19.4s.4-15.8.2-22.6a10,10,0,0,0-1.4-5.1,1,1,0,0,1-.5-.5L97.4,32a21.8,21.8,0,0,0-.1-2.8c-1.8-3.7-.8-8.3-.9-15.1a4.6,4.6,0,0,1,2.1-.2c4.7.2,7.9.4,8.1-.9l.2-.8c.1-.8-2.4-1.8-3.4-2A67.8,67.8,0,0,0,87.2,8.9a50.7,50.7,0,0,0-11.8,1.7c-1.3.4-1.9,1.3-1.7,2.3v.5c.3,1.3,1.9,1.7,3.8,1.1l1.2-.3c1.2,7.3,1.7,11.7-4,15.1a6,6,0,0,0-2.6,3.8l-.4,2.4-1.2.5a6,6,0,0,0-3.4,5.3c-.4,6.7,0,12.7,2,21.8s6,15.6,11.9,20.1l1.8,1.3c4.6,3.1,1.6,12.2-6.8,13.7a7.6,7.6,0,0,0-5.4,4.1l-2.9,6h33.5l-1.9-6.1a6.9,6.9,0,0,0-2.6-3.6C92.7,96.3,93.3,88.8,94.6,84.5Z"/><path class="eu" d="M94.3,84.5c.2-.8.2-1.4.7-1.8.4-5,2.9-9.1,3.4-19.4s.3-15.8.1-22.6a11.5,11.5,0,0,0-1.2-5.1,1,1,0,0,1-.5-.5l-.2-3c.1-1.2.1-2.3.1-2.9-1.5-3.7-.6-8.3-.8-15.3l2.2-.2c4.9.2,8.2.5,8.4-.8l.2-.8c.1-.8-2.5-1.7-3.5-1.9A68.3,68.3,0,0,0,87,8.9a55.6,55.6,0,0,0-11.6,1.7,2.1,2.1,0,0,0-1.7,2.3v.5c.4,1.2,1.9,1.6,3.8,1l1.3-.3c1.2,7.4,1.7,11.7-4,15.2a5.4,5.4,0,0,0-2.6,3.8l-.4,2.3-1.3.6a6.4,6.4,0,0,0-3.4,5.3,77.4,77.4,0,0,0,2.1,21.8c2.2,10,5.9,15.6,11.8,20.1L83,84.5c4.5,3.1,1.5,12.2-6.8,13.7a7.5,7.5,0,0,0-5.5,4.1l-2.8,6h32.6l-1.8-6a6.7,6.7,0,0,0-2.5-3.7C92.4,96.3,93.1,88.8,94.3,84.5Z"/><path class="ev" d="M93.9,84.5c.2-.8.1-1.4.7-1.8,0-5.1,2.4-9.1,2.8-19.3s.3-15.9.1-22.7a13.7,13.7,0,0,0-1-5.1c-.5-.2-.5-.5-.5-.5v-3a25.4,25.4,0,0,1,.1-3c-1.2-3.7-.3-8.2-.6-15.4l2.4-.2c5.1.3,8.4.6,8.6-.7l.2-.7c.2-.8-2.6-1.8-3.6-2A69.9,69.9,0,0,0,86.8,8.9a54.3,54.3,0,0,0-11.4,1.7,1.9,1.9,0,0,0-1.6,2.2v.5c.3,1.2,1.8,1.6,3.7,1l1.4-.4c1.3,7.6,1.7,11.9-4,15.4a5.8,5.8,0,0,0-2.7,3.8L72,35.4l-1.3.6a6.4,6.4,0,0,0-3.4,5.3,77.4,77.4,0,0,0,2.1,21.8c2.1,10,5.9,15.5,11.8,20.1L83,84.5c4.5,3.1,1.5,12.2-6.8,13.7a7.1,7.1,0,0,0-5.4,4.1L68,108.2l16.1.2H99.6l-1.7-6a7.3,7.3,0,0,0-2.2-3.7C92.1,96.3,92.9,88.8,93.9,84.5Z"/><path class="ew" d="M93.5,84.5c.2-.9.1-1.5.6-1.8-.3-5.2,2.1-9,2.4-19.3s.2-15.8,0-22.8a17.2,17.2,0,0,0-.9-5,.6.6,0,0,1-.4-.5v-3a22.3,22.3,0,0,1,.2-3c-.9-3.7-.1-8.2-.3-15.5a9,9,0,0,1,2.5-.2c5.2.2,8.7.6,8.9-.7V12c.2-.8-2.7-1.7-3.7-1.9A70.4,70.4,0,0,0,86.6,8.9a50.8,50.8,0,0,0-11.1,1.7,2.1,2.1,0,0,0-1.7,2.2v.5c.3,1.1,1.8,1.4,3.7.8l1.5-.3c1.3,7.8,1.7,11.9-4,15.5a5.8,5.8,0,0,0-2.7,3.9l-.3,2.2-1.3.6a6.2,6.2,0,0,0-3.4,5.3,78.1,78.1,0,0,0,2.1,21.9c2.1,9.9,5.8,15.4,11.7,20L83,84.5c4.5,3.1,1.5,12.2-6.8,13.7a7.5,7.5,0,0,0-5.4,4.1L68,108.2H98.8l-1.6-5.9a7.1,7.1,0,0,0-2.1-3.6C91.8,96.2,92.8,88.8,93.5,84.5Z"/><path class="ex" d="M93.1,84.5c.2-.9,0-1.5.5-1.8-.6-5.3,1.7-9,2-19.3s0-15.8-.1-22.8a23.7,23.7,0,0,0-.7-5,.6.6,0,0,1-.4-.5V32.2c.1-1.3.2-2.4.3-3.1-.6-3.8.2-8.2-.1-15.7a9.8,9.8,0,0,1,2.6-.2c5.5.2,9,.7,9.2-.6v-.7c.2-.7-2.8-1.7-3.9-1.8A69.9,69.9,0,0,0,86.4,8.9a49.6,49.6,0,0,0-10.9,1.7,1.9,1.9,0,0,0-1.6,2.2v.4c.2,1.1,1.8,1.4,3.7.8l1.5-.4c1.4,8,1.7,12.1-4,15.7a5.5,5.5,0,0,0-2.7,3.9l-.4,2.2-1.2.6a6.2,6.2,0,0,0-3.4,5.3,78.1,78.1,0,0,0,2.1,21.9c2.1,9.9,5.7,15.3,11.6,19.9L83,84.4c4.5,3.1,1.5,12.3-6.8,13.8a7.2,7.2,0,0,0-5.3,4.1l-2.8,5.9H98l-1.5-5.9a8.1,8.1,0,0,0-2-3.6C91.6,96.2,92.6,88.8,93.1,84.5Z"/><path class="ey" d="M92.8,84.5c.1-.9-.1-1.5.4-1.8-1-5.4,1.3-9,1.4-19.2s0-15.9-.2-22.9a20.2,20.2,0,0,0-.5-5,.4.4,0,0,1-.2-.5V32.2a12.4,12.4,0,0,1,.3-3.1c-.3-3.8.5-8.2.1-15.8a10.9,10.9,0,0,1,2.8-.3c5.6.3,9.2.7,9.4-.5l.2-.6c.1-.8-3-1.7-4.1-1.9A71.4,71.4,0,0,0,86.2,8.9a46.3,46.3,0,0,0-10.6,1.7c-1.3.3-1.9,1.2-1.7,2.1v.4c.3,1.1,1.8,1.4,3.7.8l1.6-.4c1.4,8.1,1.7,12.2-4.1,15.8a5.8,5.8,0,0,0-2.7,3.9l-.3,2.2L71,36a5.9,5.9,0,0,0-3.4,5.3,77.8,77.8,0,0,0,2.1,21.9c2.1,9.9,5.7,15.3,11.6,19.9l1.8,1.3c4.5,3.1,1.4,12.3-6.8,13.8a7.4,7.4,0,0,0-5.4,4l-2.7,5.9,14.8.2H97.2l-1.4-5.9A8.1,8.1,0,0,0,94,98.8C91.3,96.2,92.4,88.8,92.8,84.5Z"/><path class="ez" d="M92.4,84.4c0-.9-.2-1.5.3-1.8-1.2-5.4.9-8.8,1-19.1s-.1-15.9-.3-22.9a49.2,49.2,0,0,0-.3-5c-.4-.2-.2-.5-.2-.5V32.2a12.5,12.5,0,0,1,.5-3.1c.6-3.8.7-8.2.3-16a11.4,11.4,0,0,1,2.8-.2c5.8.2,9.6.7,9.7-.5l.2-.6c.1-.8-3.1-1.7-4.2-1.8A71.8,71.8,0,0,0,86,8.9a60.3,60.3,0,0,0-10.4,1.6,2.2,2.2,0,0,0-1.7,2.2v.4c.3,1,1.8,1.2,3.7.6l1.7-.4c1.4,8.3,1.7,12.3-4.1,15.9a6.2,6.2,0,0,0-2.7,4l-.3,2.2-1.2.6a5.9,5.9,0,0,0-3.4,5.3,77.5,77.5,0,0,0,2.1,21.9c2.1,9.9,5.6,15.2,11.5,19.9l1.8,1.3c4.5,3.1,1.5,12.3-6.8,13.8a7.3,7.3,0,0,0-5.3,4l-2.8,5.9,14.5.2H96.4L95,102.4a8.1,8.1,0,0,0-1.6-3.6C91,96.1,92.2,88.8,92.4,84.4Z"/><path class="fa" d="M92,84.4c0-.9-.2-1.5.2-1.8-1.5-5.5.6-8.8.6-19s-.2-16-.4-23c0-2.1-.1-4-.2-5s-.1-.5-.1-.5V32.3a18.4,18.4,0,0,1,.6-3.2c.9-3.8,1-8.2.5-16.2a12.8,12.8,0,0,1,3-.2c6,.2,9.8.8,10-.4v-.6c.1-.7-3.2-1.6-4.3-1.8A67.9,67.9,0,0,0,85.8,9a52.1,52.1,0,0,0-10.2,1.5c-1.2.4-1.8,1.2-1.6,2.1V13c.2,1.1,1.7,1.2,3.6.6l1.8-.4c1.5,8.5,1.7,12.4-4.1,16a5.9,5.9,0,0,0-2.7,4l-.4,2.2-1.1.5a6.1,6.1,0,0,0-3.4,5.4,78.4,78.4,0,0,0,2.1,22c2.1,9.8,5.5,15.1,11.4,19.8l1.8,1.3c4.5,3.1,1.5,12.3-6.8,13.8a7.3,7.3,0,0,0-5.3,4l-2.7,5.9H95.6l-1.3-5.7a9.2,9.2,0,0,0-1.5-3.7C90.7,96.1,92,88.8,92,84.4Z"/><path class="fb" d="M91.7,84.4c-.1-.9-.3-1.5.1-1.8-1.9-5.6.1-8.8,0-19s-.2-16-.4-23v-5c-.3-.1-.1-.5-.1-.5V32.3a17.3,17.3,0,0,1,.7-3.2c1.2-3.9,1.2-8.2.7-16.3a13.9,13.9,0,0,1,3.2-.3c6.1.2,10,.9,10.2-.3v-.5c.1-.8-3.4-1.7-4.4-1.8A68.2,68.2,0,0,0,85.6,9a48.3,48.3,0,0,0-9.9,1.5A2,2,0,0,0,74,12.6v.3c.3,1.1,1.7,1.2,3.7.6l1.8-.5c1.5,8.7,1.7,12.5-4.1,16.2a6.3,6.3,0,0,0-2.8,4l-.3,2.2-1.2.5a6,6,0,0,0-3.3,5.4,78.4,78.4,0,0,0,2.1,22c2,9.8,5.5,15,11.4,19.8l1.8,1.3c4.4,3.1,1.4,12.3-6.9,13.8a7.1,7.1,0,0,0-5.2,4L68.3,108l13.7.2H94.8l-1.2-5.7a9.8,9.8,0,0,0-1.3-3.6C90.5,96.1,91.8,88.8,91.7,84.4Z"/><path class="fc" d="M91.3,84.4c-.1-1-.4-1.6,0-1.8-2.2-5.7-.3-8.8-.4-19s-.4-16-.5-23a33.4,33.4,0,0,1,.2-5c-.3-.1-.1-.5-.1-.5V32.3a8.9,8.9,0,0,1,.7-3.2c1.4-3.9,1.5-8.2.9-16.5a25,25,0,0,1,3.3-.3c6.4.3,10.4,1,10.5-.2v-.5c.1-.7-3.5-1.6-4.5-1.8A74.8,74.8,0,0,0,85.4,9a47,47,0,0,0-9.7,1.5A2,2,0,0,0,74,12.6v.3c.3,1,1.7,1.1,3.7.5l1.9-.5c1.6,8.8,1.7,12.6-4.1,16.3a6,6,0,0,0-2.8,4.1l-.3,2.1-1.2.5A6,6,0,0,0,68,41.3a81.5,81.5,0,0,0,2,22c2.1,9.8,5.5,15,11.4,19.7l1.8,1.3c4.5,3.1,1.4,12.4-6.8,13.9a7.3,7.3,0,0,0-5.3,4L68.4,108l13.2.2H93.9l-1-5.7a13.6,13.6,0,0,0-1.2-3.6C90.2,96,91.6,88.8,91.3,84.4Z"/><path class="fd" d="M90.9,84.4c-.1-1-.4-1.6-.1-1.8-2.5-5.8-.6-8.7-.9-18.9s-.4-16.1-.5-23.1a30.7,30.7,0,0,1,.3-5c-.3-.1,0-.5,0-.5V32.4a9.9,9.9,0,0,1,.9-3.4c1.6-3.8,1.7-8.1,1.1-16.5a10.9,10.9,0,0,1,3.4-.3c6.5.2,10.6,1,10.7-.2v-.4c.2-.8-3.6-1.7-4.6-1.8A69.8,69.8,0,0,0,85.2,9a53.8,53.8,0,0,0-9.5,1.5,1.9,1.9,0,0,0-1.6,2v.3c.2,1,1.6,1,3.6.4l2.1-.5c1.5,9,1.6,12.7-4.2,16.5a5.7,5.7,0,0,0-2.8,4.1l-.3,2.1-1.2.5a6,6,0,0,0-3.3,5.4,82.5,82.5,0,0,0,2,22.1c2.1,9.7,5.4,14.8,11.3,19.6l1.8,1.3c4.5,3.1,1.4,12.4-6.8,13.8a7.3,7.3,0,0,0-5.2,4L68.5,108l12.8.2H93.1l-.9-5.7a24.4,24.4,0,0,0-1-3.6C89.9,96,91.4,88.8,90.9,84.4Z"/><path class="fe" d="M90.6,84.4c-.2-1-.6-1.6-.3-1.8-2.7-5.9-1-8.7-1.3-18.9s-.5-16.1-.6-23.1a20.2,20.2,0,0,1,.5-5c-.3-.1,0-.5,0-.5V32.4a9.8,9.8,0,0,1,1-3.4c1.9-3.9,2-8.1,1.3-16.7a16.2,16.2,0,0,1,3.5-.3c6.8.2,10.9,1,11.1-.1v-.4c.2-.7-3.7-1.6-4.8-1.8A75.2,75.2,0,0,0,85,9a49.5,49.5,0,0,0-9.2,1.5c-1.2.3-1.8,1.1-1.7,2v.3c.3.9,1.7.9,3.6.3l2.2-.5c1.6,9.1,1.6,12.8-4.3,16.6a6.3,6.3,0,0,0-2.8,4.1l-.3,2-1.1.6a5.9,5.9,0,0,0-3.3,5.4c-.4,6.8.1,13,2,22.1S75.6,78.2,81.5,83l1.7,1.3c4.5,3.1,1.4,12.4-6.8,13.8a7.1,7.1,0,0,0-5.2,4L68.5,108H92.3l-.9-5.6a17.9,17.9,0,0,0-.8-3.6C89.6,96,91.2,88.9,90.6,84.4Z"/><path class="ff" d="M90.2,84.4c-.2-1-.6-1.7-.3-1.9-3.1-5.9-1.4-8.6-1.8-18.7s-.6-16.2-.7-23.2a15.7,15.7,0,0,1,.6-5c-.2-.1.1-.5.1-.5V32.4A8.5,8.5,0,0,1,89.2,29c2.1-3.9,2.2-8.1,1.5-16.8a17.3,17.3,0,0,1,3.7-.4c6.9.2,11.2,1.1,11.3.1v-.5c.1-.7-3.9-1.6-5-1.7a75.5,75.5,0,0,0-16-.7,46.7,46.7,0,0,0-9,1.5c-1.2.3-1.8,1.1-1.6,1.9v.3c.3.9,1.7.9,3.7.3l2.2-.6c1.6,9.4,1.6,12.9-4.3,16.8A6,6,0,0,0,73,33.3l-.3,2-1.1.6a5.9,5.9,0,0,0-3.3,5.4c-.4,6.8.1,13,2,22.1S75.6,78.1,81.5,83l1.8,1.3c4.4,3.1,1.3,12.4-6.9,13.8a7.1,7.1,0,0,0-5.1,4l-2.7,5.8,11.9.2h11l-.8-5.5A28.6,28.6,0,0,0,90,99C89.3,95.9,91,88.9,90.2,84.4Z"/><path class="fg" d="M89.8,84.4c-.2-1.1-.7-1.7-.4-1.9C86,76.4,87.6,74,87.1,63.8s-.6-16.1-.7-23.2a13.4,13.4,0,0,1,.8-5c-.2-.1.1-.5.1-.5V32.5A8.5,8.5,0,0,1,88.5,29c2.4-4,2.5-8.1,1.8-17a13.9,13.9,0,0,1,3.8-.3c7.1.2,11.4,1.1,11.5.1v-.4c.1-.7-4-1.6-5.1-1.7A70.6,70.6,0,0,0,84.5,9a42.8,42.8,0,0,0-8.6,1.5c-1.3.3-1.8,1.1-1.7,1.9v.2c.2.9,1.6.9,3.6.2l2.3-.5c1.6,9.5,1.6,13-4.3,16.8a6.1,6.1,0,0,0-2.8,4.2l-.3,2-1.1.5a6.1,6.1,0,0,0-3.3,5.5c-.4,6.8.1,13.1,2,22.1S75.6,78.1,81.5,83l1.8,1.2c4.5,3.1,1.3,12.5-6.8,13.9a7.1,7.1,0,0,0-5.2,4l-2.6,5.8,11.5.2H90.7l-.7-5.5L89.5,99C89,95.9,90.8,88.9,89.8,84.4Z"/><path class="fh" d="M89.4,84.4c-.3-1.1-.7-1.7-.5-1.9-3.7-6.2-2.1-8.5-2.7-18.7s-.8-16.1-.8-23.2a11.5,11.5,0,0,1,.9-5c-.2-.1.2-.5.2-.5V32.5A7.3,7.3,0,0,1,87.8,29c2.7-4,2.8-8.1,2-17.2a20.6,20.6,0,0,1,3.9-.3c7.3.2,11.7,1.2,11.8.2v-.4c.1-.7-4.1-1.6-5.2-1.7a71.2,71.2,0,0,0-16.1-.5,45,45,0,0,0-8.4,1.3c-1.2.4-1.8,1.2-1.7,1.9v.3c.2.8,1.6.7,3.6.1l2.4-.6c1.7,9.7,1.6,13.1-4.3,17a6.5,6.5,0,0,0-2.9,4.3l-.3,1.9-1.1.5a6,6,0,0,0-3.2,5.4c-.4,6.9.1,13.2,2,22.3S75.7,78,81.6,82.9l1.7,1.3c4.5,3.1,1.4,12.5-6.8,13.9a6.8,6.8,0,0,0-5.1,4l-2.7,5.8,11.1.2H89.9l-.6-5.5c-.2-1.5-.3-2.7-.4-3.6C88.8,95.9,90.6,88.9,89.4,84.4Z"/><path class="fi" d="M89.1,84.4c-.4-1.1-.9-1.7-.6-1.9-4.1-6.3-2.6-8.5-3.2-18.6s-.9-16.2-.9-23.3a10,10,0,0,1,1.1-5c-.2-.1.2-.5.2-.5V32.5A6.5,6.5,0,0,1,87.2,29c2.9-4.1,3-8.1,2.1-17.3a21.8,21.8,0,0,1,4.1-.4c7.5.2,12,1.3,12,.3v-.3c.1-.7-4.2-1.6-5.3-1.7a66.2,66.2,0,0,0-16.1-.5,54.1,54.1,0,0,0-8.2,1.3c-1.2.4-1.7,1.1-1.6,1.9v.2c.3.8,1.6.7,3.6.1l2.5-.6c1.7,9.8,1.6,13.2-4.3,17.1a6.5,6.5,0,0,0-2.9,4.3l-.3,1.9-1.1.5a6,6,0,0,0-3.2,5.4c-.4,6.9.1,13.2,2,22.3s5.1,14.5,11,19.4a17.8,17.8,0,0,0,1.8,1.3c4.4,3.1,1.3,12.5-6.9,13.9a7.2,7.2,0,0,0-5.1,3.9l-2.6,5.8,10.7.2H89l-.5-5.4a23.3,23.3,0,0,1-.1-3.6C88.5,95.8,90.4,89,89.1,84.4Z"/><path class="fj" d="M88.7,84.4c-.4-1.1-.9-1.8-.7-1.9-4.3-6.4-3-8.4-3.7-18.6s-.9-16.2-.9-23.3a9.9,9.9,0,0,1,1.3-5c-.2-.1.2-.5.2-.5V32.6A7.4,7.4,0,0,1,86.5,29c3.1-4.1,3.3-8.1,2.3-17.5a17.2,17.2,0,0,1,4.2-.3c7.7.1,12.3,1.3,12.4.3v-.3c.1-.7-4.3-1.6-5.4-1.7a72,72,0,0,0-16.1-.4A48.9,48.9,0,0,0,76,10.4c-1.2.3-1.8,1.1-1.7,1.9v.2c.2.7,1.5.6,3.5,0l2.6-.6c1.8,10,1.6,13.3-4.3,17.2a6.2,6.2,0,0,0-2.9,4.3L73,35.3l-1.1.5a6,6,0,0,0-3.3,5.4c-.3,6.9.3,13.3,2.1,22.3s5,14.5,10.9,19.4l1.8,1.3c4.4,3.1,1.3,12.5-6.9,13.9a6.9,6.9,0,0,0-5,3.9l-2.6,5.8,10.2.2h9.1l-.4-5.4a21.4,21.4,0,0,1,0-3.6C88.2,95.8,90.2,89,88.7,84.4Z"/><path class="fk" d="M88.3,84.4c-.4-1.2-1-1.8-.8-1.9C82.9,76,84.2,74.1,83.4,64s-1-16.3-1-23.4a9,9,0,0,1,1.4-5c-.1-.1.3-.5.3-.5l.2-2.5a6.5,6.5,0,0,1,1.5-3.7c3.4-4.1,3.5-8,2.6-17.5a13.3,13.3,0,0,1,4.3-.4c7.8.2,12.5,1.4,12.6.4v-.3c.1-.6-4.4-1.5-5.5-1.6a72.1,72.1,0,0,0-16.1-.4A47.5,47.5,0,0,0,76,10.4c-1.2.3-1.7,1.1-1.6,1.8v.2c.2.7,1.5.5,3.6-.1l2.6-.6c1.8,10.2,1.6,13.4-4.4,17.4a6.5,6.5,0,0,0-2.9,4.3L73,35.3l-1,.5a6,6,0,0,0-3.3,5.4c-.3,6.9.3,13.3,2.1,22.4s5,14.3,10.9,19.3l1.7,1.3c4.4,3,1.3,12.5-6.8,13.9a7.1,7.1,0,0,0-5.1,3.9l-2.6,5.8,9.9.2h8.6l-.3-5.4a18.9,18.9,0,0,1,.1-3.5C87.9,95.8,90,89,88.3,84.4Z"/><path class="fl" d="M88,84.4c-.5-1.2-1.1-1.8-.9-1.9-5-6.6-3.8-8.4-4.7-18.5a228.3,228.3,0,0,1-1-23.4,8.3,8.3,0,0,1,1.6-5c-.2-.1.3-.5.3-.5l.2-2.5a6.9,6.9,0,0,1,1.6-3.7c3.7-4.2,3.8-8,2.8-17.7a25.5,25.5,0,0,1,4.4-.4c8.1.2,12.9,1.4,12.9.5v-.2c0-.7-4.6-1.6-5.7-1.7a72.4,72.4,0,0,0-16.1-.3,42.6,42.6,0,0,0-7.4,1.3c-1.3.3-1.8,1-1.7,1.8h0c.3.7,1.6.5,3.6-.1l2.7-.6c1.8,10.3,1.6,13.5-4.4,17.5a6.5,6.5,0,0,0-2.9,4.3l-.3,1.9-1,.5a6,6,0,0,0-3.3,5.4c-.3,6.9.3,13.3,2.1,22.4s4.9,14.3,10.8,19.2l1.8,1.3c4.4,3.1,1.2,12.6-6.9,14a6.9,6.9,0,0,0-5,3.9L69,107.7l9.4.3h8.2l-.2-5.3a9.7,9.7,0,0,1,.3-3.6C87.6,95.7,89.8,89.1,88,84.4Z"/><path class="fm" d="M87.6,84.4c-.5-1.2-1.2-1.9-1-2-5.3-6.6-4.2-8.2-5.1-18.4a205.3,205.3,0,0,1-1.1-23.4,8.3,8.3,0,0,1,1.7-5c-.1-.1.4-.5.4-.5l.2-2.4a7.1,7.1,0,0,1,1.8-3.8c3.9-4.2,4-8,2.9-17.9a27.1,27.1,0,0,1,4.6-.4c8.2.2,13.1,1.5,13.1.6V11c.1-.6-4.8-1.5-5.9-1.6a66,66,0,0,0-16-.3,41.4,41.4,0,0,0-7.2,1.3c-1.2.3-1.7,1-1.7,1.7v.2c.2.7,1.5.4,3.5-.2l2.8-.7c1.9,10.5,1.6,13.6-4.4,17.7a6.5,6.5,0,0,0-2.9,4.3l-.3,1.9-1,.5a5.9,5.9,0,0,0-3.3,5.4c-.3,6.9.3,13.3,2.1,22.4s4.8,14.2,10.7,19.2l1.8,1.3c4.4,3.1,1.2,12.6-6.9,14a6.8,6.8,0,0,0-5,3.9l-2.5,5.7,8.9.2h7.8v-5.2a9.7,9.7,0,0,1,.4-3.6C87.3,95.7,89.6,89.1,87.6,84.4Z"/><path class="fn" d="M87.2,84.4c-.5-1.2-1.2-1.9-1.1-2-5.6-6.7-4.5-8.2-5.5-18.3a189,189,0,0,1-1.2-23.5,7.3,7.3,0,0,1,1.9-5c-.1,0,.4-.5.4-.5l.2-2.4a6.6,6.6,0,0,1,1.9-3.8c4.2-4.3,4.3-8,3.1-18a21.5,21.5,0,0,1,4.8-.4c8.4.1,13.3,1.5,13.4.6h0c.1-.7-4.9-1.5-6-1.7a71.6,71.6,0,0,0-16-.2,52.8,52.8,0,0,0-7,1.3c-1.2.3-1.7,1-1.6,1.7h0c.2.7,1.5.4,3.5-.3l2.9-.6C82.8,21.9,82.5,25,76.5,29a6.7,6.7,0,0,0-3,4.5l-.2,1.8-1.1.4A6.2,6.2,0,0,0,69,41.2c-.3,6.9.3,13.4,2.1,22.4s4.8,14.2,10.7,19.2l1.7,1.3c4.4,3.1,1.2,12.6-6.9,14a6.6,6.6,0,0,0-4.9,3.8l-2.6,5.8,8.6.2H85v-5.2a9.7,9.7,0,0,1,.6-3.6C87,95.7,89.4,89.1,87.2,84.4Z"/><path class="fo" d="M86.8,84.4c-.6-1.2-1.2-1.9-1.2-2-5.8-6.8-4.9-8.2-6-18.3a189,189,0,0,1-1.2-23.5,7.4,7.4,0,0,1,2-5l.5-.5.3-2.4a6,6,0,0,1,1.9-3.8c4.5-4.4,4.5-8,3.4-18.2a28.7,28.7,0,0,1,4.8-.4c8.6.2,13.7,1.6,13.7.7h0c.1-.6-5-1.5-6.1-1.6a61.3,61.3,0,0,0-16-.1,37.6,37.6,0,0,0-6.7,1.2c-1.3.3-1.8,1-1.7,1.7h0c.2.7,1.5.3,3.6-.3l2.9-.7C83,22,82.6,24.9,76.6,29a6.7,6.7,0,0,0-3,4.5l-.3,1.8-1,.4a6.1,6.1,0,0,0-3.2,5.5c-.3,6.9.3,13.4,2.1,22.5s4.7,14,10.6,19.1l1.7,1.3c4.4,3,1.2,12.6-6.9,14a7,7,0,0,0-4.9,3.8l-2.5,5.7,8.1.3h6.9v-5.2a7.5,7.5,0,0,1,.8-3.5C86.7,95.6,89.2,89.2,86.8,84.4Z"/><path class="fp" d="M86.5,84.4c-.7-1.3-1.4-2-1.3-2-6.2-6.9-5.3-8.2-6.5-18.2a158.9,158.9,0,0,1-1.3-23.6,7.1,7.1,0,0,1,2.2-5l.5-.5.3-2.3a6.7,6.7,0,0,1,2-3.9c4.8-4.4,4.8-8,3.6-18.3a22,22,0,0,1,5-.5c8.8.2,13.9,1.7,13.9.8h0c.1-.6-5.1-1.4-6.2-1.5a61.3,61.3,0,0,0-16-.1,36.4,36.4,0,0,0-6.5,1.2c-1.2.3-1.7.9-1.6,1.6h0c.2.6,1.4.2,3.5-.4l3-.7c2,11,1.6,13.9-4.5,18a6.9,6.9,0,0,0-2.9,4.5l-.3,1.7-1,.5a6.1,6.1,0,0,0-3.2,5.5c-.3,6.9.3,13.4,2.1,22.5s4.6,14,10.5,19.1l1.8,1.3c4.4,3,1.2,12.6-6.9,14a6.6,6.6,0,0,0-4.9,3.8l-2.5,5.7,7.7.3h6.3l.2-5.2a9.5,9.5,0,0,1,.9-3.5C86.4,95.6,89,89.2,86.5,84.4Z"/><path class="fq" d="M86.1,84.4a9.3,9.3,0,0,0-1.4-2c-6.5-7-5.7-8.1-6.9-18.2a147.7,147.7,0,0,1-1.4-23.6,6.7,6.7,0,0,1,2.4-5l.5-.5.3-2.3a6.3,6.3,0,0,1,2.1-3.9c5.1-4.5,5.1-8,3.8-18.5a24.5,24.5,0,0,1,5.1-.4c9,.1,14.2,1.7,14.2.8h0c.1-.6-5.2-1.5-6.3-1.6-6.9-.6-9.8-.7-16,0a45.7,45.7,0,0,0-6.2,1.1c-1.3.4-1.8,1-1.7,1.7h0c.2.6,1.4.2,3.5-.5l3.1-.7c2,11.2,1.6,14-4.5,18.2a7,7,0,0,0-3,4.5l-.2,1.7-1,.5a6.1,6.1,0,0,0-3.2,5.5,89.6,89.6,0,0,0,2.1,22.5c1.9,9.3,4.5,13.9,10.5,19L83.6,84c4.4,3.1,1.2,12.7-6.9,14.1a6.6,6.6,0,0,0-4.9,3.8l-2.5,5.7,7.3.2h5.9l.3-5.1a6.9,6.9,0,0,1,1.1-3.5C86.2,95.6,88.8,89.3,86.1,84.4Z"/><path class="fr" d="M85.7,84.4a7.7,7.7,0,0,0-1.5-2c-6.8-7.1-6-8.1-7.4-18.2a136.9,136.9,0,0,1-1.4-23.6,6.8,6.8,0,0,1,2.5-5l.6-.5.3-2.3a6.5,6.5,0,0,1,2.3-3.9c5.2-4.6,5.3-8,4-18.7a33.3,33.3,0,0,1,5.2-.4c9.2.2,14.4,1.7,14.4.9h.1c0-.6-5.4-1.4-6.5-1.5-7-.6-9.9-.7-16,0a44.4,44.4,0,0,0-6,1.1c-1.2.3-1.7,1-1.7,1.6h0c.2.5,1.4.1,3.5-.6l3.2-.7C83.4,22,82.9,24.8,76.8,29a6.7,6.7,0,0,0-3,4.5l-.3,1.7-.9.5a6,6,0,0,0-3.2,5.5,89.6,89.6,0,0,0,2.1,22.5c1.9,9.3,4.5,13.9,10.4,19L83.6,84c4.4,3.1,1.2,12.7-6.9,14.1a6.6,6.6,0,0,0-4.8,3.8l-2.5,5.6,6.9.3h5.4l.4-5a7.4,7.4,0,0,1,1.2-3.6C85.9,95.5,88.6,89.3,85.7,84.4Z"/><path class="k" d="M85.4,84.4a12.5,12.5,0,0,0-1.6-2.1c-7.2-7.1-6.5-8-7.9-18a129.5,129.5,0,0,1-1.5-23.7,6.7,6.7,0,0,1,2.7-5l.6-.5.4-2.2a6.3,6.3,0,0,1,2.3-4.1c5.5-4.6,5.6-7.9,4.2-18.7A25.4,25.4,0,0,1,90,9.6c9.3.2,14.7,1.8,14.7,1.1h0c0-.6-5.5-1.5-6.6-1.6a65.4,65.4,0,0,0-16,.1,43.2,43.2,0,0,0-5.8,1.1c-1.2.3-1.7,1-1.6,1.6h0c.2.5,1.4,0,3.5-.6l3.2-.8C83.5,22.1,83,24.7,76.9,29a6.7,6.7,0,0,0-3,4.5l-.3,1.7-.9.5c-2.2,1-3.1,3.1-3.2,5.5-.3,7,.3,13.5,2.1,22.6S76,77.5,81.9,82.7L83.7,84c4.3,3,1.1,12.7-7,14.1a6.5,6.5,0,0,0-4.8,3.7l-2.4,5.7,6.4.3h5l.4-5a9.3,9.3,0,0,1,1.4-3.6C85.6,95.5,88.4,89.4,85.4,84.4Z"/><path class="g" d="M97.1,42.7c.2,3.4-1.9,7-6.5,6.8s-6.5-2.6-6.5-6.5a6.8,6.8,0,0,1,6.5-6.5C94.2,36.2,96.9,39.1,97.1,42.7Z"/><path class="k" d="M87.7,43.4c-.5-.1-.7-.2-.9,0s.2.4.5.6.4.1.3.4-.2.4-.2.8.2.4.5.2.4-.7.8-.4.8.6.9.5-.3-.7-.4-1,0-.3.3-.5.7-.3.7-.5-.3-.2-.7-.2-.5.2-.7,0-.1-.6-.2-.9-.3-.2-.4.2S87.9,43.4,87.7,43.4Z"/><path class="k" d="M92.2,45.2l-.7.2c-.1.1.2.3.5.4s.3.1.3.3-.1.4,0,.7.2.3.4.1.3-.6.6-.5l.8.3c.1-.1-.3-.5-.4-.8s-.1-.2.1-.4.5-.3.5-.5-.2-.2-.6-.1-.4.2-.5.1-.3-.5-.4-.7-.3-.1-.3.3S92.4,45.2,92.2,45.2Z"/><path class="k" d="M91.8,40c.5-.4.4-1.2.7-1.1s.3.5.4.9.2.4.6.4l.6.2c.1.1-.2.2-.6.4s-.5.1-.4.5.3.8.2,1.1-.3-.1-.5-.4-.4-.7-.6-.5-.4.5-.7.6-.2-.1-.2-.3.5-.7.2-1-.7-.3-.8-.7S91.6,40.3,91.8,40Z"/><path class="fs" d="M99.3,61a11.9,11.9,0,0,1-4.4-3.5c-1.1-1.4-2.1-1.7-2.8-1.6s.4-.7.2-1.9-3.5-2.6-4.8-.1.7,2.7,0,3.6-1.9,1.2-2.1-1.2a11.7,11.7,0,0,0-2.3-6.6,10.4,10.4,0,0,1-1.6-6,7.2,7.2,0,0,1,1.1-3.3c.5-1-1.8-1.6-3.7,1.4s-1.7,2.3-1.1,3.3,1.6.6,1.9,2.2,0,3,.4,4,1.4,2.2.9,5,1.1,3-1.6,3.6l-3.4.9c-2,.8-4,2.6-3.5,4.7,1.1,5.3,2.9,7.8,4.7,10.7a36.8,36.8,0,0,0,6.4,7.7c4.3,3.8,2.4,11.6-3.9,14.9-2,1.1-3.4,1.3-4.2,3.3l-2.2,5.8h6l3,1.2h1.9l.6-6.2c.1-1.3.9-2.3,1.6-3.8,2-4,3.2-10.8.4-14.9A35.8,35.8,0,0,0,84.5,81a34.5,34.5,0,0,1-3.6-5.6,34.8,34.8,0,0,1-3.6-9.7c-.2-1.1.6-1.7,2.4-1.5a10.4,10.4,0,0,0,5.1-.7c1.4-.7,1,.6.5,1.8S82.7,73,85,71.1s3.5-6.6,4.2-7.8a7.3,7.3,0,0,1,2-2.7c1.2-1,1.3-1.1,3,0a7.7,7.7,0,0,0,4.3,1.7C99.9,62.6,100.3,61.5,99.3,61Z"/><path class="ft" d="M101.1,38.2c-2.1-.5-2.9.6-2.6,2.6s.8,2.5,2.6,2.2-.2-2.7,2-1.3a10.7,10.7,0,0,1,3.5,2.9,7.4,7.4,0,0,1,1,3.2c.1,3.5-1.4.6-2.8-1.3s-3.5-2-4.7-.9-1,3.1-.7,4.3,2.3,4.2,4.9,2.7,2.4-.2,2.1.8c-.8,2.5-3.2,2.6-5.3,1.8s-4.4-6.2-5.7-4,1.7,4.8,2.8,5.7,1.9,1.2,3.4,2.3,2.9,3.1,2,8.1S101,76.5,96,81.9a6.8,6.8,0,0,0-1.4,2c-2.6,5-1.8,11.1.3,15.1.7,1.5,1.5,2.5,1.6,3.8l.6,6.2H99l2.9-1.2H108l-2.2-5.8c-.8-2-2.3-2.2-4.2-3.3-6.4-3.3-7.8-11.8-4-14.9l1.5-1.2c8.9-7.1,9.5-12.6,10.8-19.8A122.5,122.5,0,0,0,111,50.7C111.3,44.5,107.6,39.8,101.1,38.2Z"/><path class="fu" d="M90.6,102c4.4-.4,9.4-3.7,7.5-9.5a9,9,0,0,0,7.7,5.8C102.3,100.3,97.7,102,90.6,102Z"/><path class="fv" d="M70.3,102a7.7,7.7,0,0,1,3.2-3,48.2,48.2,0,0,0,17.1,3v6.8H67.3Z"/><path class="fw" d="M109.8,31.8c-11.1-1.4-27.4-1-38.5.5l-.6,3.3a175.7,175.7,0,0,1,39.7-.5Z"/><g class="fx"><polygon class="fy" points="110.4 35.1 110.3 34.7 110.3 34.7 110.4 35.1"/><path class="fz" d="M111.6,35.6l-1.2-.5h0a175.7,175.7,0,0,0-39.7.5v-.4h0v.4l-1.5.7a6.1,6.1,0,0,0-3.1,3.2c14.3-1.7,34.7-2.2,49-.6A6.3,6.3,0,0,0,111.6,35.6Z"/></g><path class="ga" d="M114.2,51.6a4.5,4.5,0,0,0,1.6-2.4h0l-.2-.7a279.6,279.6,0,0,0-50.1.5l.3,3.2a300.5,300.5,0,0,1,48.4-.6Z"/><path class="gb" d="M115.5,53.8a2.1,2.1,0,0,0-1.3-2.2,300.5,300.5,0,0,0-48.4.6c.1,1.1.2,2.2.4,3.4a425.3,425.3,0,0,1,49.2-.5c0-.4.1-.9.1-1.3Z"/><path class="gc" d="M92.4,15.7c4.7,2,6.9,8.2,12.3,11a45.6,45.6,0,0,1-.8-10.1,46.4,46.4,0,0,0-13.5-2.2,42.1,42.1,0,0,0-4.6.2,42.1,42.1,0,0,0-8.6,2c-.1,3.9.9,8.5-1.1,10.7,4.5-1.3,3.4-7.4,7.2-10.3S88.9,14.2,92.4,15.7Z"/><path class="fs" d="M85.8,14.6a55.6,55.6,0,0,0-5.6,1.1c1.6,9.6,1.7,10.5-1.9,12.9a6.6,6.6,0,0,0-2.7,4.6L75.4,35l-.8.4A7.2,7.2,0,0,0,71.1,41a79,79,0,0,0,.2,10.7c.2,1.5.1,2.2.6,5.7s4.9,1.8,4.4-1.8A59.8,59.8,0,0,1,76,40.3a8.4,8.4,0,0,1,2.8-5.1l.5-.5.3-2.2c.2-1.5,2.4-3.7,3.5-4.6,3.1-2.6,4.3-5.3,3.2-13.3Z"/><path class="ft" d="M110.1,39.5c-.7-1.4-2.5-3.9-3.6-4.5l-.8-.4-.3-1.7a5.9,5.9,0,0,0-2.6-4.3c-3.7-2.4-3.5-3.2-2-12.8a46.9,46.9,0,0,0-6.1-1.2c-1.1,8.1.2,10.7,3.2,13.3,1.2.9,3.3,2.8,3.5,4.4l.3,2.2.6.5a16.5,16.5,0,0,0,3,2.4,11.4,11.4,0,0,1,4,3C110.6,41.8,110.6,40.6,110.1,39.5Z"/></g><path class="gd" d="M35.7,182a4.9,4.9,0,0,1-2.4-.8c-1.7-1.6-2.3-5.2-2.6-6.8-.8-4.1-.9-7.1-.3-9.2s3-1.9,4.9-1.8a8.6,8.6,0,0,1,4.7,1.1c3.1,1.7-1.2,4.8-2.6,5.7,4.1.4,8.8,3.2,5.2,8C41.5,179.7,37.8,182.2,35.7,182Zm-1.9-12.8a8.5,8.5,0,0,0,3.6-2.5c.1-.2,0-.5-.2-.5l-2.4.3c-.3.1-1.3.2-1.4.5S33.5,168.6,33.8,169.2Zm2.2,9.6c1.3-.9,5.7-2.7,5.7-4.5s-5.6-1.6-7.1-1.7C35.1,174.7,35.4,176.7,36,178.8Z"/><path class="gd" d="M46.3,181c-1.5-.8-1.4-2.2-1.3-3.8s.3-5.1.7-7.9c.1-1.2.3-2.5.5-3.7s.8-.9,1.4-1.1a27.3,27.3,0,0,1,4.9-.6c3.3.1,6.7,1.8,5.3,5.4s-4,3.7-6.2,4a17,17,0,0,0,2.6,2.9c.8.8,2.2,1.3,2.3,2.4s-.5,2.6-2.3,1.5-3.8-3.2-5.3-5.1c.1,1.6.1,3.2.2,4.7S48,181.9,46.3,181Zm2.7-9.1a12.2,12.2,0,0,0,4.4-2.2c1.7-1.5,2.3-3.3-.5-3.4a10.5,10.5,0,0,0-2.5.1c-1,.1-1.3.1-1.3,1.3A29.5,29.5,0,0,0,49,171.9Z"/><path class="gd" d="M66.7,180.7c-2.5-.2-1.5-3.3-2.6-4.2s-1.8-.1-2.2-.2-1,1.3-1.3,2.3a3,3,0,0,1-1.2,1.8.9.9,0,0,1-1.4-.5c-.3-2.7.7-5.8,1.4-8.4s1.5-6.6,3.4-6.8,2.2,0,3.1,1.4c2,3.1,2.8,9.2,2.5,12.7C68.3,179.7,67.8,180.8,66.7,180.7Zm-2.6-6.6a10.8,10.8,0,0,0-.7-5.1,24.4,24.4,0,0,0-1.2,5.2Z"/><path class="gd" d="M74.1,180.6c-1,0-3.8-1-2.6-2.6s2.9-.7,3.8-1a15.7,15.7,0,0,0,4.2-1.8c-2.7-1.2-5.8,1.4-8.4-.7-4.4-3.5.7-7.8,3.9-9.2,1.4-.7,4-1.6,5-.2s-.4,1.9-1.5,2.5-4.3,1.5-5.7,3.7c2.8-.1,6.4-.5,8.4,1.9s2,3.2.5,4.5A14,14,0,0,1,74.1,180.6Z"/><path class="gd" d="M86.4,181.1a4.8,4.8,0,0,1-2-.7c-1.2-.7-.8-3.2-.7-4.2l.6-4.5c.2-1.3.2-3.2,1.5-3.5,2.9-.7,2.5,5.6,2.4,7.2S88.3,181.4,86.4,181.1Zm1-14.8a8.5,8.5,0,0,1-2.2.4c-1.6.1-2-2.2-.6-2.9s2-1.5,3-.4S88.2,165.9,87.4,166.3Z"/><path class="gd" d="M91.4,178.4c-1-2.6-.8-4.1-1-6.9s-.2-7.6,1.5-7.6c4.4-.1,2.5,9.3,3.3,12.5.3,1.1,6.1-4.2,7.6-3.2s.7,3.4-3.8,6.7C96.9,181.5,92.9,182,91.4,178.4Z"/><path class="gd" d="M108.8,180.1c-6.4-2.9,6.5-9.1,5.6-12.4-.5-1.7-3.6.6-5.2,1.6s-3.7,3.1-5,2.2,1.2-4.3,3-5.3c3.4-2,6.6-2.6,9.1-1.2a2.9,2.9,0,0,1,1.1,4,8.8,8.8,0,0,1-.9,2c-1.3,2-3.8,4-5.3,5.9,1.6,0,5.6-1.1,6.1,1.2s-2,1.8-3.9,2.1A8,8,0,0,1,108.8,180.1Z"/><path class="gd" d="M121.8,179.8c-3.7-1.5-4.1-7.6-2.3-11s3.6-3.6,6.4-2.3,5.3,7,2.8,10.3a7.9,7.9,0,0,1-2.8,2.6A4.5,4.5,0,0,1,121.8,179.8Zm1.3-2.2c2.9.4,3.7-3.8,3.1-6a6.4,6.4,0,0,0-1.3-2.6c-1-1.3-1.2-1.2-2.1,0S120.2,176.8,123.1,177.6Z"/><path class="gd" d="M130,180.1c-.8-.3-1.2-.9-.7-1.5s3-.6,3.2-1.9,1.2-4.9,1.5-7.6a5.6,5.6,0,0,1-1.9.7c-1.3-.1-2.4-.9-2.1-2.2s1.4-2.1,3.8-2.8,3.3.6,3.4,2.6c.4,3.7-1.1,6.1-1.8,9.3,1.4-.1,1.9.7,1.9,2s-2.1,1.6-3.6,1.8A8.8,8.8,0,0,1,130,180.1Z"/><path class="gd" d="M139.8,180.5c-1.4-.8-.3-1.7.7-2.6a21.5,21.5,0,0,0,4-4.5c-1.8,0-3.5-.2-4.5-1.4s-.9-3.4-.3-4.8c1.6-4,7.3-5.6,9.3-1.4,3,6.3-1.7,11.1-6.3,14.4A3.8,3.8,0,0,1,139.8,180.5Zm5.6-9.1a5.8,5.8,0,0,0,1.1-2.5c.3-1.5,0-3.8-1.8-2.7S141.9,170,145.4,171.4Z"/></g></svg>