<?xml version="1.0" encoding="UTF-8" standalone="no"?>
<svg
   xmlns:dc="http://purl.org/dc/elements/1.1/"
   xmlns:cc="http://creativecommons.org/ns#"
   xmlns:rdf="http://www.w3.org/1999/02/22-rdf-syntax-ns#"
   xmlns:svg="http://www.w3.org/2000/svg"
   xmlns="http://www.w3.org/2000/svg"
   xmlns:sodipodi="http://sodipodi.sourceforge.net/DTD/sodipodi-0.dtd"
   xmlns:inkscape="http://www.inkscape.org/namespaces/inkscape"
   viewBox="0 0 201.99998 222.26666"
   version="1.1"
   id="svg155"
   sodipodi:docname="logo-ca2020.svg"
   width="201.99998"
   height="222.26666"
   inkscape:version="0.92.4 (5da689c313, 2019-01-14)">
  <metadata
     id="metadata159">
    <rdf:RDF>
      <cc:Work
         rdf:about="">
        <dc:format>image/svg+xml</dc:format>
        <dc:type
           rdf:resource="http://purl.org/dc/dcmitype/StillImage" />
        <dc:title>Recurso 1</dc:title>
      </cc:Work>
    </rdf:RDF>
  </metadata>
  <sodipodi:namedview
     pagecolor="#ffffff"
     bordercolor="#666666"
     borderopacity="1"
     objecttolerance="10"
     gridtolerance="10"
     guidetolerance="10"
     inkscape:pageopacity="0"
     inkscape:pageshadow="2"
     inkscape:window-width="1366"
     inkscape:window-height="705"
     id="namedview157"
     showgrid="false"
     fit-margin-top="1"
     fit-margin-left="1"
     fit-margin-right="1"
     fit-margin-bottom="1"
     inkscape:zoom="4.122749"
     inkscape:cx="137.11596"
     inkscape:cy="44.577273"
     inkscape:window-x="-8"
     inkscape:window-y="-8"
     inkscape:window-maximized="1"
     inkscape:current-layer="svg155" />
  <defs
     id="defs7">
    <style
       id="style2">.a{fill:#fff;}.b{isolation:isolate;}.c{fill:#95c6e6;}.d{fill:#fdce3d;}.e{fill:#003282;}.f{fill:#de2e33;}.g{fill:#58aa41;}.h{fill:none;}.i{clip-path:url(#a);}.j,.k{fill:#c9c8c9;}.j{fill-rule:evenodd;}.l{opacity:0.5;mix-blend-mode:screen;}</style>
    <clipPath
       id="a">
      <path
         class="a"
         d="M 89.3,93 C 81.2,91.7 79.5,83.2 84.4,79.9 l 2.3,-1.4 c 5.3,-3.4 8.9,-9.4 10.7,-19.3 0.5,-3.2 0.9,-5.9 1.1,-8.5 v 0 a 2.1,2.1 0 0 0 -1.2,-2.1 c 0,0 1.4,-1.2 1.4,-2.3 A 73,73 0 0 0 98.5,38.2 5.8,5.8 0 0 0 94.8,33.4 L 93.7,33 93.1,29.6 a 2.6,2.6 0 0 0 -1.5,-2 c -6.2,-2.9 -4.7,-8 -4,-12.2 a 2.7,2.7 0 0 0 3.6,-2 l 0.3,-1.2 A 1.8,1.8 0 0 0 90.3,10.1 56.3,56.3 0 0 0 74.9,8 55.4,55.4 0 0 0 60,10.1 2.1,2.1 0 0 0 58.4,12.7 l 0.2,0.8 a 2.8,2.8 0 0 0 3.7,2.1 c 0.5,4.3 1.5,9.5 -3.5,12.3 A 4,4 0 0 0 56.6,31 l -0.4,2.6 -1.4,0.6 a 5.9,5.9 0 0 0 -3.4,4.8 69.7,69.7 0 0 0 -0.1,7.9 v 0 a 4.7,4.7 0 0 0 1.4,2.3 2.2,2.2 0 0 0 -1,2.1 v 0 c 0.4,2.4 0.8,5 1.5,8 2.4,9.9 6.8,15.8 12.3,19.7 l 1.8,1.3 C 71.7,83.2 69,91.5 61,93 a 7.5,7.5 0 0 0 -5.5,4.1 l -0.7,1.7 a 0.9,0.9 0 0 0 0.6,1.2 75.7,75.7 0 0 0 19.6,2.4 76.6,76.6 0 0 0 19.7,-2.5 0.8,0.8 0 0 0 0.6,-1.2 L 94.2,96.5 A 6.6,6.6 0 0 0 89.3,93 Z"
         id="path4"
         inkscape:connector-curvature="0"
         style="fill:#ffffff" />
    </clipPath>
  </defs>
  <title
     id="title9">Recurso 1</title>
  <g
     id="g4090">
    <path
       class="e"
       d="m 27.8,191.4 c -5.86667,0 -9.46667,-3.73334 -9.46667,-9.6 0,-5.86667 3.73334,-9.73334 9.6,-9.73334 C 33.8,172.06666 37.4,175.8 37.4,181.8 c 0,6 -3.6,9.6 -9.6,9.6 m 0,-15.86667 c -4.26667,0 -4.8,3.86667 -4.8,6.26667 0,2.4 0.66667,6.26666 4.93333,6.26666 4.26667,0 4.8,-4 4.8,-6.26666 0,-2.26667 -0.66666,-6.26667 -4.93333,-6.26667"
       id="path53"
       inkscape:connector-curvature="0"
       style="isolation:isolate;fill:#003282;stroke-width:1.33333325" />
    <path
       class="e"
       d="m 176.6,191.4 c -5.73334,0 -9.2,-3.6 -9.2,-9.6 0,-6 3.46666,-9.73334 9.2,-9.73334 A 17.466666,17.466666 0 0 1 182.06666,173 l 2.13334,0.66666 -1.33334,3.46667 -1.6,-0.53333 a 17.333333,17.333333 0 0 0 -4.13333,-0.8 c -3.33333,0 -4.93333,2 -4.93333,6 0,4 1.6,5.73333 4.93333,5.73333 a 11.466666,11.466666 0 0 0 4,-0.66667 h 0.4 l -1.6,4.26667 v 0 l -3.2,0.4 z"
       id="path55"
       inkscape:connector-curvature="0"
       style="isolation:isolate;fill:#003282;stroke-width:1.33333325" />
    <path
       class="e"
       d="m 10.2,191.4 c -5.73333,0 -9.2,-3.6 -9.2,-9.6 0,-6 3.6,-9.73334 9.2,-9.73334 A 17.466666,17.466666 0 0 1 15.66667,173 l 1.46666,0.4 -1.2,3.46666 L 15,176.6 a 13.866666,13.866666 0 0 0 -4.26667,-0.8 C 7.4,175.8 5.8,177.8 5.8,181.8 c 0,4 1.73333,5.73333 4.93333,5.73333 A 12.8,12.8 0 0 0 15,186.86666 l 0.93333,-0.26666 1.2,3.46666 -1.46666,0.4 A 17.333333,17.333333 0 0 1 10.33333,191.4 Z"
       id="path57"
       inkscape:connector-curvature="0"
       style="isolation:isolate;fill:#003282;stroke-width:1.33333325" />
    <path
       class="e"
       d="M 109.13333,191.4 A 2.2666666,2.2666666 0 0 1 106.6,189.8 l -2.93334,-8.53334 -0.93333,-2.53333 v 12.53333 h -4 v -16.4 c 0,-1.73333 1.2,-2.8 3.33333,-2.8 A 3.4666666,3.4666666 0 0 1 105.8,174.6 l 3.33333,10.13333 L 112.6,174.6 a 3.3333333,3.3333333 0 0 1 3.6,-2.53334 c 2.13333,0 3.33333,0.93334 3.33333,2.8 v 16.4 H 115.4 V 178.6 l -0.93334,2.53333 -2.93333,8.66667 a 2.2666666,2.2666666 0 0 1 -2.4,1.6"
       id="path59"
       inkscape:connector-curvature="0"
       style="isolation:isolate;fill:#003282;stroke-width:1.33333325" />
    <path
       class="e"
       d="m 196.33333,191.26666 -1.2,-3.46666 H 188.2 l -0.66667,1.86666 a 2.3999999,2.3999999 0 0 1 -2.26667,1.6 h -2.93333 l 6.26667,-17.2 a 2.9333333,2.9333333 0 0 1 3.2,-2 2.7999999,2.7999999 0 0 1 3.06666,2 l 6.13333,17.2 z m -7.2,-6.8 H 194.2 l -2.53334,-7.6 z"
       id="path61"
       inkscape:connector-curvature="0"
       style="isolation:isolate;fill:#003282;stroke-width:1.33333325" />
    <rect
       class="e"
       x="159.53333"
       y="172.19998"
       width="4.6666665"
       height="19"
       id="rect63"
       style="isolation:isolate;fill:#003282;stroke-width:1.33333325" />
    <path
       class="e"
       d="m 151.93333,191.26666 -3.06667,-6.93333 h -4 v 6.93333 h -4.53333 V 174.6 a 2.2666666,2.2666666 0 0 1 2.53333,-2.4 h 6.66667 c 4,0 6.66667,2.4 6.66667,5.86666 A 5.8666665,5.8666665 0 0 1 153.53333,183 l -0.4,0.26666 3.73333,8 z M 144.86666,181 H 149 a 2.7999999,2.7999999 0 0 0 2.66666,-2.93334 A 2.5333333,2.5333333 0 0 0 149,175.53333 h -4.13334 z"
       id="path65"
       inkscape:connector-curvature="0"
       style="isolation:isolate;fill:#003282;stroke-width:1.33333325" />
    <path
       class="e"
       d="m 125.8,191.26666 a 2.3999999,2.3999999 0 0 1 -2.66667,-2.4 V 174.6 A 2.3999999,2.3999999 0 0 1 125.8,172.2 h 11.46666 v 1.2 a 2.3999999,2.3999999 0 0 1 -2.4,2.26666 H 127.8 v 4.26667 h 8.26666 v 3.2 H 127.8 V 187.8 h 9.46666 v 3.46666 z"
       id="path67"
       inkscape:connector-curvature="0"
       style="isolation:isolate;fill:#003282;stroke-width:1.33333325" />
    <path
       class="e"
       d="M 92.2,191.26666 91,187.8 h -6.93334 l -0.53333,1.86666 a 2.5333333,2.5333333 0 0 1 -2.26667,1.6 H 78.2 l 6.26666,-17.2 a 3.0666666,3.0666666 0 0 1 3.2,-2 3.0666666,3.0666666 0 0 1 3.2,2 l 6.13334,17.2 z m -7.06667,-6.8 H 90.2 l -2.53334,-7.6 z"
       id="path69"
       inkscape:connector-curvature="0"
       style="isolation:isolate;fill:#003282;stroke-width:1.33333325" />
    <path
       class="e"
       d="m 67.93333,191.26666 -1.2,-3.46666 H 59.8 l -0.66667,1.86666 a 2.2666666,2.2666666 0 0 1 -2.26666,1.6 h -2.93334 l 6.26667,-17.2 a 2.9333333,2.9333333 0 0 1 3.2,-2 3.0666666,3.0666666 0 0 1 3.2,2 l 6,17.2 z m -7.2,-6.8 H 65.8 l -2.53333,-7.6 z"
       id="path71"
       inkscape:connector-curvature="0"
       style="isolation:isolate;fill:#003282;stroke-width:1.33333325" />
    <path
       class="e"
       d="M 40.2,191.26666 V 174.6 a 2.3999999,2.3999999 0 0 1 2.66667,-2.4 h 5.86666 c 3.86667,0 6.4,2.4 6.4,6.13333 0,3.73333 -2.66666,6.13333 -6.66666,6.13333 h -3.73334 v 6.8 z m 4.53333,-10.13333 h 3.33334 a 2.6666666,2.6666666 0 0 0 2.93333,-2.8 c 0,-1.86667 -1.2,-2.8 -3.46667,-2.8 h -2.8 z"
       id="path73"
       inkscape:connector-curvature="0"
       style="isolation:isolate;fill:#003282;stroke-width:1.33333325" />
    <path
       class="e"
       d="M 76.73333,164.33333 H 75.8 a 2,2 0 0 1 -0.93334,-0.4 L 74.2,163 a 3.3333333,3.3333333 0 0 1 -0.26667,-1.33334 v -6.13333 A 3.1999999,3.1999999 0 0 1 74.2,154.46666 c 0.13333,-0.26666 0.26666,-0.66666 0.53333,-0.8 A 2.3999999,2.3999999 0 0 1 75.66666,153 2.9333333,2.9333333 0 0 1 77.8,153 a 2,2 0 0 1 0.8,0.66666 l 0.66666,0.8 a 3.7333332,3.7333332 0 0 1 0.13334,1.2 V 156.2 c 0,0.13333 0,0.13333 -0.13334,0.13333 h -1.6 A 0.13333333,0.13333333 0 0 1 77.53333,156.2 v -0.53334 c 0,-0.4 0,-0.66666 -0.13333,-0.8 A 0.79999998,0.79999998 0 0 0 76.73333,154.6 c -0.4,0 -0.66667,0 -0.66667,0.26666 A 1.8666666,1.8666666 0 0 0 75.8,155.8 v 5.73333 A 1.0666666,1.0666666 0 0 0 76.06666,162.2 c 0.13334,0.26666 0.26667,0.26666 0.66667,0.26666 h 0.53333 l 0.26667,-0.4 V 161 H 79.4 v 0.66666 a 3.3333333,3.3333333 0 0 1 -0.13334,1.06667 l -0.66666,0.8 c -0.13334,0.26667 -0.53334,0.4 -0.8,0.53333 a 1.4666666,1.4666666 0 0 1 -1.06667,0.26667"
       id="path75"
       inkscape:connector-curvature="0"
       style="isolation:isolate;fill:#003282;stroke-width:1.33333325" />
    <path
       class="e"
       d="M 83.53333,164.33333 H 82.46666 L 81.53333,163.8 A 2.1333333,2.1333333 0 0 1 81,162.86666 a 2,2 0 0 1 -0.26667,-1.2 v -6 a 2,2 0 0 1 0.26667,-1.2 2.1333333,2.1333333 0 0 1 0.53333,-0.93333 L 82.46666,153 a 2.5333333,2.5333333 0 0 1 2,0 L 85.4,153.53333 a 2.3999999,2.3999999 0 0 1 0.66666,0.93333 3.8666666,3.8666666 0 0 1 0.26667,1.2 v 6 a 3.8666666,3.8666666 0 0 1 -0.26667,1.2 A 2.3999999,2.3999999 0 0 1 85.4,163.8 l -0.93334,0.53333 h -0.93333 m 0,-9.73333 c -0.26667,0 -0.53333,0 -0.66667,0.26666 -0.13333,0.26667 -0.26666,0.4 -0.26666,0.66667 v 6 c 0,0.26667 0,0.53333 0.26666,0.66667 0.26667,0.13333 0.4,0.26666 0.66667,0.26666 A 0.79999998,0.79999998 0 0 0 84.2,162.2 a 1.0666666,1.0666666 0 0 0 0.26666,-0.66667 v -6 A 1.0666666,1.0666666 0 0 0 84.2,154.86666 0.79999998,0.79999998 0 0 0 83.53333,154.6"
       id="path77"
       inkscape:connector-curvature="0"
       style="isolation:isolate;fill:#003282;stroke-width:1.33333325" />
    <path
       class="e"
       d="m 93.66666,164.2 h -1.6 l -2,-5.73334 c -0.13333,0 -0.26666,0 -0.26666,0.13334 v 5.46666 c 0,0.13334 0,0.13334 -0.13334,0.13334 h -1.6 a 0.13333333,0.13333333 0 0 1 -0.13333,-0.13334 V 153 H 89.8 l 2,5.73333 A 0.13333333,0.13333333 0 0 0 91.93333,158.6 V 153 H 93.8 v 11.06666 c 0,0.13334 0,0.13334 -0.13334,0.13334"
       id="path79"
       inkscape:connector-curvature="0"
       style="isolation:isolate;fill:#003282;stroke-width:1.33333325" />
    <path
       class="e"
       d="m 102.86666,164.2 h -1.6 c -0.13333,0 -0.13333,0 -0.13333,-0.13334 V 158.6 c 0,-0.13334 -0.13333,-0.13334 -0.26667,0 l -1.2,3.6 h -0.93333 l -1.2,-3.6 c 0,-0.13334 -0.26667,-0.13334 -0.26667,0 v 5.46666 c 0,0.13334 0,0.13334 -0.13333,0.13334 h -1.46667 c -0.13333,0 -0.26666,0 -0.26666,-0.13334 V 153 h 1.73333 L 99,158.46666 h 0.13333 L 101,153 h 1.86666 v 11.06666 A 0.13333333,0.13333333 0 0 1 102.73333,164.2"
       id="path81"
       inkscape:connector-curvature="0"
       style="isolation:isolate;fill:#003282;stroke-width:1.33333325" />
    <path
       class="e"
       d="m 109.53333,164.2 h -4.8 A 0.13333333,0.13333333 0 0 1 104.6,164.06666 V 153 h 5.06666 v 1.46666 h -3.2 V 157.4 h 2.8 v 1.46666 h -2.8 v 3.46667 h 3.06667 a 0.13333333,0.13333333 0 0 1 0.13333,0.13333 v 1.46667 a 0.13333333,0.13333333 0 0 1 -0.13333,0.13333"
       id="path83"
       inkscape:connector-curvature="0"
       style="isolation:isolate;fill:#003282;stroke-width:1.33333325" />
    <path
       class="e"
       d="M 113.26666,164.2 H 111 a 0.13333333,0.13333333 0 0 1 -0.13334,-0.13334 V 153 h 3.86667 l 0.93333,0.66666 A 3.3333333,3.3333333 0 0 1 116.2,154.6 a 3.7333332,3.7333332 0 0 1 0.13333,1.2 v 1.2 c -0.13333,0.13333 -0.13333,0.4 -0.26667,0.53333 l -0.4,0.53333 H 115.4 l 0.66666,0.8 a 4.1333332,4.1333332 0 0 1 0.26667,1.46667 V 161 a 3.8666666,3.8666666 0 0 1 -0.66667,2.26666 3.1999999,3.1999999 0 0 1 -2.4,0.8 M 112.73333,162.2 h 1.33333 l 0.4,-0.4 c 0,-0.13334 0.13334,-0.26667 0.13334,-0.53334 V 159.8 L 114.33333,159.26666 114.06666,159 h -1.33333 z m 0,-5.06667 H 113.4 a 1.0666666,1.0666666 0 0 0 0.93333,-0.4 A 1.7333333,1.7333333 0 0 0 114.6,155.66666 2.5333333,2.5333333 0 0 0 114.33333,154.6 l -1.06667,-0.26667 h -0.53333 z"
       id="path85"
       inkscape:connector-curvature="0"
       style="isolation:isolate;fill:#003282;stroke-width:1.33333325" />
    <path
       class="e"
       d="M 120.46666,164.33333 H 119.4 L 118.46666,163.8 117.8,162.86666 a 3.7333332,3.7333332 0 0 1 -0.13334,-1.2 v -6 a 2,2 0 0 1 0.26667,-1.2 2.1333333,2.1333333 0 0 1 0.53333,-0.93333 L 119.4,153 a 2.6666666,2.6666666 0 0 1 2,0 l 0.93333,0.53333 a 2.3999999,2.3999999 0 0 1 0.66667,0.93333 3.8666666,3.8666666 0 0 1 0.26666,1.2 v 6 A 3.8666666,3.8666666 0 0 1 123,162.86666 2.3999999,2.3999999 0 0 1 122.33333,163.8 L 121.4,164.33333 h -0.93334 m 0,-9.73333 c -0.26666,0 -0.53333,0 -0.66666,0.26666 -0.13334,0.26667 -0.26667,0.4 -0.26667,0.66667 v 6 c 0,0.26667 0,0.53333 0.26667,0.66667 0.26666,0.13333 0.4,0.26666 0.66666,0.26666 A 0.79999998,0.79999998 0 0 0 121.13333,162.2 1.0666666,1.0666666 0 0 0 121.4,161.53333 v -6 a 1.0666666,1.0666666 0 0 0 -0.26667,-0.66667 0.79999998,0.79999998 0 0 0 -0.66667,-0.26666"
       id="path87"
       inkscape:connector-curvature="0"
       style="isolation:isolate;fill:#003282;stroke-width:1.33333325" />
    <path
       class="e"
       d="m 129.4,164.2 h -4.66667 c -0.13333,0 -0.26667,0 -0.26667,-0.13334 V 153 h 1.86667 v 9.33333 H 129.4 c 0.13333,0 0.13333,0 0.13333,0.13333 v 1.46667 c 0,0.13333 0,0.13333 -0.13333,0.13333"
       id="path89"
       inkscape:connector-curvature="0"
       style="isolation:isolate;fill:#003282;stroke-width:1.33333325" />
    <path
       class="e"
       d="M 134.73333,159.4 H 131.4 v -1.46667 h 3.46666 V 159.4 h -0.13333"
       id="path91"
       inkscape:connector-curvature="0"
       style="isolation:isolate;fill:#003282;stroke-width:1.33333325" />
    <path
       class="e"
       d="m 70.46666,159.4 h -3.33333 v -1.46667 H 70.6 V 159.4 h -0.13334"
       id="path93"
       inkscape:connector-curvature="0"
       style="isolation:isolate;fill:#003282;stroke-width:1.33333325" />
    <path
       class="a"
       d="m 162.86666,64.599997 a 63.866665,63.866665 0 1 1 -127.59999,0 C 35.26667,40.999998 49.8,19.133332 68.06666,9.266665 l 1.6,-1.2 A 40.799999,40.799999 0 0 1 97.13333,5.133332 c 2.26667,0.666667 6.66667,-4.266666 8.93333,-4 2.26667,0.266667 3.6,1.866667 5.73334,2.266667 28.66666,6.266666 51.06666,30.666666 51.06666,61.199998 z"
       id="path95"
       inkscape:connector-curvature="0"
       style="isolation:isolate;fill:#ffffff;stroke-width:1.33333325" />
    <path
       class="d"
       d="M 109.66666,95.799998 A 21.733333,21.733333 0 0 1 69,103.66667 L 66.46667,110.2 a 21.466666,21.466666 0 0 1 -12.13334,-11.733332 21.999999,21.999999 0 0 1 -0.26666,-16.93334 23.066666,23.066666 0 0 1 5.06666,-7.6 C 55.26667,71.399997 49.66667,69.799997 48.6,66.199997 c -1.06667,-3.6 5.86667,-11.066666 6.13333,-16.133333 C 55,44.999998 48.06667,38.333331 49.8,33.533332 c 1.73333,-4.8 11.2,-5.333334 14.4,-9.466667 3.2,-4.133333 1.46667,-12.8 5.46666,-16 v 0 A 64.399998,64.399998 0 0 0 79,126.86666 a 66.799998,66.799998 0 0 0 15.86666,3.06667 c 11.46667,0.8 -0.4,-2.8 10.13334,-8.13333 l 5.86666,-26.666672 z"
       id="path97"
       inkscape:connector-curvature="0"
       style="isolation:isolate;fill:#fdce3d;stroke-width:1.33333325" />
    <path
       class="f"
       d="M 70.2,68.066664 A 22.266666,22.266666 0 0 0 54.06667,81.533328 21.999999,21.999999 0 0 0 54.33333,98.466668 21.466666,21.466666 0 0 0 66.46667,110.2 l 3.59999,-9.06667 9.06667,-22.800002 3.6,-9.066664 a 21.466666,21.466666 0 0 0 -12.53333,-1.2 z"
       id="path99"
       inkscape:connector-curvature="0"
       style="isolation:isolate;fill:#de2e33;stroke-width:1.33333325" />
    <path
       class="c"
       d="m 97.8,16.333332 c 0.93333,-14.133333 14.53333,-15.2 25.6,-11.866666 14.93333,4.399999 27.46666,15.866666 34.8,29.466666 a 65.466665,65.466665 0 0 1 -15.46667,81.599998 59.199999,59.199999 0 0 1 -7.33333,0.4 21.866666,21.866666 0 0 1 -3.06667,4.26667 L 117,92.066668 a 2.5333333,2.5333333 0 0 1 0.8,-3.2 28.533333,28.533333 0 0 0 8.93333,-37.200004 27.333333,27.333333 0 0 0 -33.46667,-12.933333 2.3999999,2.3999999 0 0 1 -3.06666,-2.8 l 3.33333,-14.266666 a 2.6666666,2.6666666 0 0 1 1.06667,-1.6 c 2.26666,-1.333333 3.06666,-2.533333 3.2,-3.733333 z"
       id="path101"
       inkscape:connector-curvature="0"
       style="isolation:isolate;fill:#95c6e6;stroke-width:1.33333325" />
    <circle
       class="g"
       cx="88.06665"
       cy="93.266655"
       r="21.733332"
       id="circle103"
       style="isolation:isolate;fill:#58aa41;stroke-width:1.33333325" />
    <ellipse
       class="d"
       cx="105.53333"
       cy="11.666666"
       rx="10.533333"
       ry="10.666666"
       id="ellipse105"
       style="isolation:isolate;fill:#fdce3d;stroke-width:1.33333325" />
    <path
       class="d"
       d="m 144.06666,60.733331 a 33.999999,33.999999 0 0 0 -13.2,-22.266666 l -8.93333,11.999999 -22.66667,30.000004 -8.93333,12 a 33.866666,33.866666 0 0 0 53.73333,-31.733337 z"
       id="path107"
       inkscape:connector-curvature="0"
       style="isolation:isolate;fill:#fdce3d;stroke-width:1.33333325" />
    <path
       class="a"
       d="m 142.86666,115.66666 a 60.133332,60.133332 0 0 1 -14.8,-0.53333 C 128.06666,119.8 116.6,125.8 125.93333,129.8 a 66.399998,66.399998 0 0 0 16.93333,-14.13334 z"
       id="path109"
       inkscape:connector-curvature="0"
       style="isolation:isolate;fill:#ffffff;stroke-width:1.33333325" />
    <path
       class="a"
       d="m 141.53333,51.266664 a 53.999999,53.999999 0 0 1 12.66667,4.133334 56.266665,56.266665 0 0 1 -7.06667,11.333333 50.399999,50.399999 0 0 1 10.53333,8.266667 57.866665,57.866665 0 0 0 -3.46666,-19.6 v 0 a 59.599999,59.599999 0 0 0 -9.86667,-17.2 v 0 A 61.333332,61.333332 0 0 0 129,25.399998 47.333332,47.333332 0 0 1 130.86666,38.733331 49.066665,49.066665 0 0 1 144.2,38.199998 56.799999,56.799999 0 0 1 141.53333,51.266664 Z m 4.53333,32.800004 a 58.399999,58.399999 0 0 1 7.73334,12.53333 51.999999,51.999999 0 0 1 -14,4.533332 56.266665,56.266665 0 0 1 3.06666,14.53333 A 62.266665,62.266665 0 0 0 153.8,96.733328 v 0 a 64.399998,64.399998 0 0 0 3.86666,-21.73333 60.799998,60.799998 0 0 1 -11.6,9.06667 z"
       id="path111"
       inkscape:connector-curvature="0"
       style="isolation:isolate;fill:#ffffff;stroke-width:1.33333325" />
    <ellipse
       class="g"
       cx="116.46664"
       cy="106.33333"
       rx="21.066666"
       ry="21.199999"
       id="ellipse113"
       style="isolation:isolate;fill:#58aa41;stroke-width:1.33333325" />
    <path
       class="d"
       d="m 126.86666,18.333332 a 27.866666,27.866666 0 0 1 15.2,4.666666 l -6.8,10.4 a 15.333333,15.333333 0 0 0 -21.46666,4.4 15.6,15.6 0 0 0 4.4,21.6 l -6.8,10.399999 a 27.599999,27.599999 0 0 1 -12,-17.733333 27.333333,27.333333 0 0 1 4,-21.066666 27.999999,27.999999 0 0 1 23.46666,-12.666666 z"
       id="path115"
       inkscape:connector-curvature="0"
       style="isolation:isolate;fill:#fdce3d;stroke-width:1.33333325" />
    <path
       class="e"
       d="M 87,87.266668 83.8,55.799998 82.46666,43.266665 A 28.399999,28.399999 0 0 0 67.4,93.533328 a 28.133333,28.133333 0 0 0 20.8,6.26667 z"
       id="path117"
       inkscape:connector-curvature="0"
       style="isolation:isolate;fill:#003282;stroke-width:1.33333325" />
    <circle
       class="d"
       cx="115.39999"
       cy="113"
       r="10.666666"
       id="circle119"
       style="isolation:isolate;fill:#fdce3d;stroke-width:1.33333325" />
    <circle
       class="f"
       cx="92.06665"
       cy="28.999998"
       r="24.399998"
       id="circle121"
       style="isolation:isolate;fill:#de2e33;stroke-width:1.33333325" />
    <path
       class="d"
       d="m 116.73333,65.799997 a 33.199999,33.199999 0 0 1 -7.46667,17.200001 L 98.2,73.666668 a 18.4,18.4 0 0 0 -2.4,-25.733337 18.533333,18.533333 0 0 0 -13.33334,-4.133333 17.333333,17.333333 0 0 0 -12,6.8 l -11.59999,-9.6 a 32.266666,32.266666 0 0 1 22.26666,-11.733333 32.799999,32.799999 0 0 1 35.6,36.533332 z"
       id="path123"
       inkscape:connector-curvature="0"
       style="isolation:isolate;fill:#fdce3d;stroke-width:1.33333325" />
    <path
       class="h"
       d="M 109.66666,95.799998 A 21.733333,21.733333 0 0 1 69,103.66667 L 66.46667,110.2 a 21.466666,21.466666 0 0 1 -12.13334,-11.733332 21.999999,21.999999 0 0 1 -0.26666,-16.93334 23.066666,23.066666 0 0 1 5.06666,-7.6 C 55.26667,71.399997 49.66667,69.799997 48.6,66.199997 c -1.06667,-3.6 5.86667,-11.066666 6.13333,-16.133333 C 55,44.999998 48.06667,38.333331 49.8,33.533332 c 1.73333,-4.8 11.2,-5.333334 14.4,-9.466667 3.2,-4.133333 1.46667,-12.8 5.46666,-16 v 0 A 64.399998,64.399998 0 0 0 79,126.86666 a 66.799998,66.799998 0 0 0 15.86666,3.06667 c 11.46667,0.8 -0.4,-2.8 10.13334,-8.13333 l 5.86666,-26.666672 z"
       id="path125"
       inkscape:connector-curvature="0"
       style="isolation:isolate;fill:none;stroke-width:1.33333325" />
    <circle
       class="a"
       cx="119.13333"
       cy="98.066666"
       r="14.933332"
       id="circle127"
       style="isolation:isolate;fill:#ffffff;stroke-width:1.33333325" />
    <circle
       class="c"
       cx="115.79999"
       cy="106.06667"
       r="8.7999992"
       id="circle129"
       style="isolation:isolate;fill:#95c6e6;stroke-width:1.33333325" />
    <path
       class="a"
       d="M 120.06666,125 C 109.26666,123.26666 107,111.93333 113.53333,107.53333 L 116.6,105.66667 c 7.06666,-4.53334 11.86666,-12.533342 14.26666,-25.733342 0.66667,-4.26666 1.2,-7.86666 1.46667,-11.333331 v 0 a 2.7999999,2.7999999 0 0 0 -1.6,-2.8 c 0,0 1.86667,-1.6 1.86667,-3.066666 a 97.333331,97.333331 0 0 0 -0.26667,-10.8 7.7333331,7.7333331 0 0 0 -4.93333,-6.4 l -1.46667,-0.533333 -0.8,-4.533333 a 3.4666666,3.4666666 0 0 0 -2,-2.666667 C 114.86666,33.933332 116.86666,27.133332 117.8,21.533332 a 3.5999999,3.5999999 0 0 0 4.8,-2.666667 l 0.4,-1.6 a 2.3999999,2.3999999 0 0 0 -1.6,-2.8 75.066665,75.066665 0 0 0 -20.53334,-2.8 73.866665,73.866665 0 0 0 -19.86666,2.8 2.7999999,2.7999999 0 0 0 -2.13334,3.466667 l 0.26667,1.066667 a 3.7333332,3.7333332 0 0 0 4.93333,2.799999 c 0.66667,5.733334 2,12.666667 -4.66666,16.4 a 5.3333332,5.3333332 0 0 0 -2.93334,4.133333 l -0.53333,3.466667 -1.86667,0.8 a 7.8666665,7.8666665 0 0 0 -4.53333,6.4 A 92.933331,92.933331 0 0 0 69.4,63.533331 v 0 a 6.2666665,6.2666665 0 0 0 1.86666,3.066666 2.9333333,2.9333333 0 0 0 -1.33333,2.8 v 0 c 0.53333,3.200001 1.06667,6.666671 2,10.666671 3.2,13.2 9.06667,21.066662 16.4,26.266662 l 2.4,1.73333 C 96.6,111.93333 93,123 82.33333,125 A 9.9999998,9.9999998 0 0 0 75,130.46666 l -0.93334,2.26667 a 1.2,1.2 0 0 0 0.8,1.6 100.93333,100.93333 0 0 0 26.13334,3.2 102.13333,102.13333 0 0 0 26.26666,-3.33333 1.0666666,1.0666666 0 0 0 0.8,-1.6 L 126.6,129.66666 A 8.7999998,8.7999998 0 0 0 120.06666,125 Z"
       id="path131"
       inkscape:connector-curvature="0"
       style="isolation:isolate;fill:#ffffff;stroke-width:1.33333325" />
    <path
       class="a"
       d="M 120.06666,125 C 109.26666,123.26666 107,111.93333 113.53333,107.53333 L 116.6,105.66667 c 7.06666,-4.53334 11.86666,-12.533342 14.26666,-25.733342 0.66667,-4.26666 1.2,-7.86666 1.46667,-11.333331 v 0 a 2.7999999,2.7999999 0 0 0 -1.6,-2.8 c 0,0 1.86667,-1.6 1.86667,-3.066666 a 97.333331,97.333331 0 0 0 -0.26667,-10.8 7.7333331,7.7333331 0 0 0 -4.93333,-6.4 l -1.46667,-0.533333 -0.8,-4.533333 a 3.4666666,3.4666666 0 0 0 -2,-2.666667 C 114.86666,33.933332 116.86666,27.133332 117.8,21.533332 a 3.5999999,3.5999999 0 0 0 4.8,-2.666667 l 0.4,-1.6 a 2.3999999,2.3999999 0 0 0 -1.6,-2.8 75.066665,75.066665 0 0 0 -20.53334,-2.8 73.866665,73.866665 0 0 0 -19.86666,2.8 2.7999999,2.7999999 0 0 0 -2.13334,3.466667 l 0.26667,1.066667 a 3.7333332,3.7333332 0 0 0 4.93333,2.799999 c 0.66667,5.733334 2,12.666667 -4.66666,16.4 a 5.3333332,5.3333332 0 0 0 -2.93334,4.133333 l -0.53333,3.466667 -1.86667,0.8 a 7.8666665,7.8666665 0 0 0 -4.53333,6.4 A 92.933331,92.933331 0 0 0 69.4,63.533331 v 0 a 6.2666665,6.2666665 0 0 0 1.86666,3.066666 2.9333333,2.9333333 0 0 0 -1.33333,2.8 v 0 c 0.53333,3.200001 1.06667,6.666671 2,10.666671 3.2,13.2 9.06667,21.066662 16.4,26.266662 l 2.4,1.73333 C 96.6,111.93333 93,123 82.33333,125 A 9.9999998,9.9999998 0 0 0 75,130.46666 l -0.93334,2.26667 a 1.2,1.2 0 0 0 0.8,1.6 100.93333,100.93333 0 0 0 26.13334,3.2 102.13333,102.13333 0 0 0 26.26666,-3.33333 1.0666666,1.0666666 0 0 0 0.8,-1.6 L 126.6,129.66666 A 8.7999998,8.7999998 0 0 0 120.06666,125 Z"
       id="path133"
       inkscape:connector-curvature="0"
       style="isolation:isolate;fill:#ffffff;stroke-width:1.33333325" />
    <g
       transform="matrix(1.3333333,0,0,1.3333333,1,0.999999)"
       class="i"
       clip-path="url(#a)"
       id="g151"
       style="isolation:isolate">
      <path
         class="j"
         d="m 94.4,33 a 14.5,14.5 0 0 0 -4.2,-8.7 c -0.6,-0.7 -0.6,-0.4 -0.1,0.2 0.5,0.6 3.1,4.2 3,5.2 -0.1,1 -0.2,0.5 -0.5,-0.3 A 2.5,2.5 0 0 0 91,27.7 c -0.7,-0.1 0.1,1.1 0.7,1.7 0.6,0.6 0.2,0.8 -0.7,0.2 a 15.8,15.8 0 0 1 -2.6,-3.1 l -1.2,-2 c -0.3,-0.6 -0.7,-0.7 -0.3,0 l 0.3,0.7 a 5.6,5.6 0 0 1 0.5,0.8 8.8,8.8 0 0 1 1.2,3.7 C 88.9,30.4 88.1,30 88,29.5 87.9,29 87.2,27.6 86.6,27.7 v 0 c -0.7,-0.1 -0.1,1.1 0.4,1.8 0.5,0.7 0,0.9 -0.7,0.2 A 12.1,12.1 0 0 1 84.1,26.5 C 83.9,25.9 83.6,25.3 83.4,24.8 A 0.4,0.4 0 0 0 83.3,24.5 1.4,1.4 0 0 0 83,24 c -0.2,0 -0.2,0.2 -0.1,0.5 l 0.2,0.3 a 15.4,15.4 0 0 0 0.5,1.7 7.8,7.8 0 0 1 0.5,3.2 c -0.2,0.7 -0.9,0.3 -0.9,-0.2 0,-0.5 -0.5,-1.9 -1.1,-1.8 v 0 c -0.7,-0.1 -0.3,1.1 0.1,1.8 0.4,0.7 -0.2,0.9 -0.8,0.2 a 12.6,12.6 0 0 1 -2,-5.2 C 79.3,24.2 79.2,24 79.1,24.1 79,24.2 78.9,24.2 79,24.5 a 11.7,11.7 0 0 1 0.2,5.2 c -0.3,0.7 -1,0.3 -0.9,-0.2 0.1,-0.5 -0.1,-1.9 -0.7,-1.8 v 0 c -0.7,-0.1 -0.6,1.1 -0.3,1.8 0.3,0.7 -0.4,0.9 -0.8,0.2 a 8,8 0 0 1 -1,-3.2 v -2 c -0.1,-0.3 -0.2,-0.5 -0.3,-0.4 -0.1,0.1 -0.1,0.1 -0.1,0.4 v 2 a 7.9,7.9 0 0 1 -0.8,3.2 c -0.4,0.7 -1,0.3 -0.8,-0.2 0.2,-0.5 0.2,-1.9 -0.4,-1.8 v 0 c -0.6,-0.1 -0.8,1.1 -0.6,1.8 0.2,0.7 -0.6,0.9 -0.9,0.2 a 6.6,6.6 0 0 1 -0.3,-3.2 c 0.1,-0.6 0.1,-1.2 0.2,-1.7 v -0.2 c 0.1,-0.4 0,-0.6 -0.1,-0.5 -0.1,0.1 -0.2,0.1 -0.3,0.5 v 0.2 l -0.3,1.7 a 8.4,8.4 0 0 1 -1.4,3.2 c -0.5,0.7 -1.1,0.3 -0.8,-0.2 0.3,-0.5 0.7,-1.9 0,-1.8 v 0 c -0.6,-0.1 -1,1.1 -1,1.8 0,0.7 -0.7,0.9 -0.9,0.2 a 5.5,5.5 0 0 1 0.2,-2.8 c 0.3,-0.9 0.5,-1.7 0.7,-2.4 v -0.2 c 0,-0.2 -0.1,-0.3 -0.1,-0.2 0,0.1 -0.2,0 -0.2,0.2 0,0.2 -0.1,0.1 -0.2,0.2 l -0.8,2.4 a 13.4,13.4 0 0 1 -1.8,2.8 c -0.7,0.7 -1.2,0.3 -0.8,-0.2 0.4,-0.5 1,-1.9 0.3,-1.8 v 0 c -0.6,-0.1 -1.2,1.1 -1.3,1.8 -0.1,0.7 -0.9,0.9 -0.9,0.2 a 12.1,12.1 0 0 1 1.8,-5.1 c 0.2,-0.5 0.1,-0.6 0,-0.5 -0.1,0.1 -0.3,0.2 -0.4,0.5 a 18.3,18.3 0 0 1 -3.6,5 c -0.8,0.7 -1.2,0.3 -0.7,-0.1 0.5,-0.4 1.3,-1.9 0.6,-1.8 A 2.5,2.5 0 0 0 58,29.5 c -0.2,0.8 -0.4,0.7 -0.5,0.3 -0.1,-0.4 1.1,-3.6 2.9,-5.4 1.8,-1.8 0.4,-0.9 -0.2,-0.3 -4.3,4.5 -5.4,6.9 -5,9.1 v 0.4 l 1.6,-0.2 h 0.4 c 0,0 9.9,-1.1 18.5,-1.2 A 152.4,152.4 0 0 1 94.4,33 Z"
         id="path135"
         inkscape:connector-curvature="0"
         style="fill:#c9c8c9;fill-rule:evenodd" />
      <path
         class="k"
         d="m 97.3,48.7 c 0,0 1.7,0.1 1.8,-1 l 0.3,-0.3 -0.2,-0.7 C 83.3,46.4 66.7,45.9 51.4,48.3 v 1 a 279.8,279.8 0 0 1 45.8,-0.6 z"
         id="path137"
         inkscape:connector-curvature="0"
         style="fill:#c9c8c9" />
      <path
         class="k"
         d="m 76.6,14.7 c 5.3,1.4 6.7,5.8 11.8,8.4 a 21.9,21.9 0 0 1 -0.8,-7.6 45.4,45.4 0 0 0 -12.8,-2 38,38 0 0 0 -4.4,0.2 33.3,33.3 0 0 0 -8.1,1.9 c -0.1,3.7 0.4,1.8 -1.3,5.6 2.5,0.4 3.4,-2.5 7.1,-5.3 3.7,-2.8 5,-2.1 8.5,-1.2 z"
         id="path139"
         inkscape:connector-curvature="0"
         style="fill:#c9c8c9" />
      <path
         class="j"
         d="M 98.6,58.4 C 98.5,57.9 98,58.1 98.1,58.6 a 4.4,4.4 0 0 1 -1.8,4.3 c -0.5,0.4 -0.7,0.4 -0.2,-0.3 0.5,-0.7 0.5,-1.3 -0.3,-1.4 -0.8,-0.1 -1,0.9 -0.8,1.5 0.2,0.6 -0.6,0.6 -1,0.1 a 4.2,4.2 0 0 1 -0.5,-2.5 c 0.1,-0.6 0.1,-1.2 0.2,-1.7 0.1,-0.5 -0.5,-0.6 -0.6,0 a 1.3,1.3 0 0 1 -0.1,0.6 1.3,1.3 0 0 1 -0.1,0.6 5.7,5.7 0 0 1 -1.5,3 c -0.5,0.6 -1.2,0.3 -1,-0.1 a 1.2,1.2 0 0 0 0.1,-1.4 c 0.4,-1.7 1.8,-2.8 2.6,-4.3 a 8.5,8.5 0 0 0 0.6,-1.7 c 0,0.2 0.2,0.4 0.3,0.7 0.1,0.3 1.4,1.8 0.7,3.9 2.6,-1.4 5.9,-4.8 4,-9.3 C 98.5,50 98,50.3 98.3,50.7 a 3.8,3.8 0 0 1 -1,4.3 c -0.5,0.4 -0.7,0.4 -0.3,-0.2 0.4,-0.6 0.3,-1.4 -0.6,-1.5 -0.9,-0.1 -0.8,0.9 -0.5,1.5 0.3,0.6 -0.6,0.7 -1,0.1 a 4.6,4.6 0 0 1 -1,-2.5 9.2,9.2 0 0 1 -0.1,-1.6 c 0,-0.5 -0.6,-0.6 -0.6,0 V 52 a 4.6,4.6 0 0 1 -1.1,3 c -0.5,0.6 -1.2,0.2 -1,-0.1 0.2,-0.3 0.2,-1.6 -0.7,-1.6 v 0 c -0.8,0 -0.9,1 -0.6,1.6 0.3,0.6 -0.5,0.7 -1,0.1 a 4.6,4.6 0 0 1 -1.1,-2.7 v -1.5 c 0,-0.3 -0.2,-0.5 -0.3,-0.4 -0.1,0.1 -0.3,0.1 -0.3,0.4 V 51 c 0,0.4 -0.1,0.9 -0.1,1.3 A 5.2,5.2 0 0 1 86,55 c -0.5,0.6 -1.2,0.2 -1.1,-0.1 0.1,-0.3 0.3,-1.6 -0.6,-1.6 v 0 c -0.9,0 -0.9,1 -0.6,1.6 0.3,0.6 -0.6,0.7 -1.1,0.1 a 6.6,6.6 0 0 1 -1.1,-4.2 c 0.1,-0.3 -0.1,-0.5 -0.3,-0.4 -0.2,0.1 -0.3,0.1 -0.3,0.4 A 5.6,5.6 0 0 1 79.8,55 c -0.5,0.6 -1.2,0.2 -1,-0.1 0.2,-0.3 0.2,-1.6 -0.7,-1.6 v 0 c -0.8,0 -0.9,1 -0.6,1.6 0.3,0.6 -0.6,0.7 -1.1,0.1 a 5.2,5.2 0 0 1 -1,-2.7 v -1.5 c 0,-0.3 -0.2,-0.5 -0.3,-0.4 -0.1,0.1 -0.4,0.1 -0.3,0.4 V 51 a 5.7,5.7 0 0 0 -0.1,1.3 5.2,5.2 0 0 1 -1,2.7 c -0.5,0.6 -1.3,0.2 -1.1,-0.1 0.2,-0.3 0.3,-1.6 -0.6,-1.6 v 0 c -0.9,0 -0.9,1 -0.6,1.6 0.3,0.6 -0.6,0.7 -1.1,0.1 a 5.2,5.2 0 0 1 -1,-2.7 c 0,-0.4 -0.1,-0.9 -0.1,-1.3 v -0.2 c 0,-0.3 -0.1,-0.5 -0.3,-0.4 -0.2,0.1 -0.3,0.1 -0.3,0.4 v 1.5 A 4.6,4.6 0 0 1 67.5,55 c -0.5,0.6 -1.2,0.2 -1,-0.1 0.2,-0.3 0.2,-1.6 -0.6,-1.6 v 0 c -0.9,0 -1,1 -0.7,1.6 0.3,0.6 -0.5,0.7 -1,0.1 a 4.3,4.3 0 0 1 -1,-2.3 c 0,-0.7 -0.1,-1.4 -0.1,-1.9 v -0.3 h -0.3 c -0.1,0 -0.2,0 -0.2,0.1 a 0.4,0.4 0 0 0 -0.1,0.3 c 0,0.5 -0.1,1.2 -0.1,1.9 a 5,5 0 0 1 -0.9,2.3 c -0.5,0.6 -1.3,0.2 -1.1,-0.1 0.2,-0.3 0.2,-1.6 -0.6,-1.6 v 0 c -0.9,0 -1,1 -0.7,1.6 0.3,0.6 -0.5,0.7 -1,0.1 A 5.6,5.6 0 0 1 57,50.8 c 0,-0.4 -0.2,-0.5 -0.4,-0.4 -0.2,0.1 -0.2,0.2 -0.2,0.4 A 6.2,6.2 0 0 1 55.3,55 c -0.5,0.5 -1.2,0.2 -1,-0.2 0.2,-0.4 0.2,-1.5 -0.7,-1.5 -0.9,0 -0.9,0.9 -0.5,1.5 0.4,0.6 0.2,0.7 -0.4,0.3 a 4.1,4.1 0 0 1 -1,-4.5 c 0.3,-0.4 -0.2,-0.7 -0.5,-0.2 -1.9,4.7 1.6,8.3 4.3,9.7 -0.7,-2.2 -0.2,-2.4 0.7,-4 a 3,3 0 0 0 0.4,-0.8 6.9,6.9 0 0 0 0.5,1.7 c 0.9,1.7 2.7,2.7 2.7,5.1 0,-2.2 1.7,-3.4 2.6,-5.1 a 3,3 0 0 0 0.4,-1 10.4,10.4 0 0 0 0.4,1 c 0.8,1.5 2.3,2.5 2.6,4.3 0.3,1.8 -0.1,1 0.1,1.4 0.2,0.4 -0.4,0.7 -1,0.1 a 6.1,6.1 0 0 1 -1.3,-2.2 11.8,11.8 0 0 0 -0.4,-2 c 0,-0.1 0,-0.2 -0.1,-0.2 -0.1,0 -0.2,-0.2 -0.2,-0.2 l -0.3,0.2 v 0.2 l 0.3,2 a 4,4 0 0 1 -0.5,2.2 c -0.4,0.6 -1.2,0.3 -1.1,-0.1 0.1,-0.4 0,-1.6 -0.9,-1.5 v 0 c -0.8,-0.1 -0.7,0.9 -0.3,1.5 0.4,0.6 -0.3,0.7 -0.9,0.1 a 7.2,7.2 0 0 1 -2,-4.2 c -0.1,-0.3 -0.4,-0.4 -0.5,-0.3 -0.1,0.1 -0.2,0.1 -0.2,0.4 0,0.3 0.7,3 0,4.1 -0.7,1.1 -1.1,0.3 -1,-0.1 0.1,-0.4 -0.2,-1.6 -1,-1.5 -0.8,0.1 -0.6,0.9 -0.1,1.5 0.5,0.6 0.3,0.6 -0.3,0.2 -0.6,-0.4 -2.5,-2.9 -2.2,-4.4 0.3,-1.5 -0.5,-0.8 -0.6,-0.2 -0.4,4.7 3.9,8.2 6.7,9.7 -1.2,-2.2 -0.7,-2.4 -0.3,-4.1 0,-0.2 0.1,-0.5 0.1,-0.7 l 0.9,1.7 c 1.2,1.6 3,2.6 3.5,5.1 -0.4,-2.3 0.9,-3.5 1.4,-5.1 a 3.6,3.6 0 0 0 0.2,-1 l 0.6,1 c 1,1.6 2.7,2.6 3.1,5 -0.3,0.2 -0.2,1 0.1,1.5 0.3,0.5 -0.3,0.7 -0.8,0.1 a 6.5,6.5 0 0 1 -1.3,-2.3 l -0.6,-2 A 0.3,0.3 0 0 0 64.8,67 c 0,-0.1 -0.1,-0.2 -0.2,-0.1 -0.1,0.1 -0.2,0 -0.2,0.1 v 0.2 a 19.4,19.4 0 0 0 0.5,2 4.3,4.3 0 0 1 -0.2,2.3 c -0.2,0.6 -0.9,0.2 -0.9,-0.1 0,-0.3 -0.3,-1.7 -1,-1.6 v 0 c -0.7,-0.1 -0.4,1 0,1.6 0.4,0.6 -0.1,0.7 -0.7,0.1 A 10.7,10.7 0 0 1 59.6,67.3 C 59.5,66.9 59.2,66.8 59.1,66.9 59,67 58.9,67 59,67.3 a 6.8,6.8 0 0 1 0.9,4.2 C 59.8,72 59,71.7 59,71.3 c 0,-0.4 -0.5,-1.6 -1.2,-1.5 -0.7,0.1 -0.3,0.9 0.3,1.5 0.6,0.6 0.4,0.6 -0.2,0.2 a 7.5,7.5 0 0 1 -3,-4.4 c -0.1,-0.5 -0.6,-0.7 -0.5,-0.2 0.9,4.7 5.4,8.2 7.9,9.7 -1.5,-2.2 -1.2,-2.4 -1.2,-4 A 1.5,1.5 0 0 0 61,71.9 l 1.1,1.6 c 1.3,1.7 2.8,2.7 3.6,5.1 -0.7,-2.2 0.1,-3.4 0.3,-5.1 v -1 l 0.6,1 c 1,1.7 2.4,2.7 2.8,5.1 -0.4,-2.2 0.6,-3.4 1,-5.1 a 3.6,3.6 0 0 0 0.2,-1 c 0.2,0.3 0.3,0.7 0.5,1 0.2,0.3 2,2.7 2.1,5.1 -0.1,-2.2 1.1,-3.4 1.7,-5.1 a 4.2,4.2 0 0 0 0.4,-1 l 0.3,1 c 0.5,1.7 1.6,2.7 1.4,5.1 0.2,-2.2 1.6,-3.4 2.4,-5.1 L 80,72.4 a 3.7,3.7 0 0 0 0.1,1.1 c 0.3,1.7 1.3,2.7 0.7,5.1 0.5,-2.2 2.1,-3.4 3.2,-5.1 l 0.6,-1 v 1 c 0.1,1.7 0.9,2.7 0,5.1 0.8,-2.2 2.5,-3.4 3.9,-5.1 l 1.2,-1.7 a 1.7,1.7 0 0 0 -0.1,0.7 c -0.1,1.6 0.2,1.8 -1.4,3.9 2.5,-1.4 7,-4.8 8.1,-9.4 0.2,-0.5 -0.4,-0.2 -0.5,0.2 a 7.4,7.4 0 0 1 -3.1,4.3 c -0.6,0.4 -0.8,0.4 -0.2,-0.2 0.6,-0.6 1,-1.4 0.4,-1.5 -0.6,-0.1 -1.2,0.9 -1.3,1.5 -0.1,0.6 -0.7,0.7 -0.8,0.1 a 4.7,4.7 0 0 1 0.4,-2.5 c 0.2,-0.6 0.5,-1.1 0.7,-1.7 0.2,-0.6 -0.3,-0.5 -0.5,0.1 l -0.3,0.5 -0.3,0.7 a 8.9,8.9 0 0 1 -2.2,3 c -0.6,0.6 -1,0.2 -0.7,-0.1 0.3,-0.3 0.8,-1.7 0.1,-1.6 h -0.1 c -0.6,-0.1 -1,1 -1,1.6 0,0.6 -0.7,0.7 -0.9,0.1 a 4.6,4.6 0 0 1 0,-2.6 10.3,10.3 0 0 0 0.4,-1.4 0.3,0.3 0 0 0 0.1,-0.2 C 86.6,67 86.5,66.8 86.4,66.9 86.3,67 86.1,67 86,67.3 v 0.2 c -0.1,0.4 -0.3,0.9 -0.4,1.4 a 8.3,8.3 0 0 1 -1.7,2.6 c -0.5,0.6 -1,0.2 -0.7,-0.1 0.3,-0.3 0.6,-1.7 -0.2,-1.6 v 0 c -0.7,-0.1 -0.9,1 -0.8,1.6 a 0.5,0.5 0 0 1 -0.9,0.1 7.4,7.4 0 0 1 -0.1,-4.2 c 0.1,-0.4 0,-0.5 -0.2,-0.4 -0.2,0.1 -0.3,0 -0.3,0.4 A 8,8 0 0 1 79,71.5 c -0.4,0.6 -1,0.2 -0.8,-0.1 0.2,-0.3 0.4,-1.3 0,-1.5 0,-2.2 1.6,-3.4 2.4,-5 l 0.5,-1.2 0.3,1.2 c 0.8,1.6 2.3,2.6 2.2,5.1 0.1,-2.3 1.8,-3.5 2.7,-5.1 a 5.4,5.4 0 0 0 0.5,-1.1 l 0.3,1.1 c 0.7,1.6 2.1,2.6 1.8,5.1 0.3,-2.3 2,-3.5 3.1,-5.1 a 8.9,8.9 0 0 0 0.8,-1.7 c 0.1,0.2 0.1,0.4 0.2,0.6 0.1,0.2 1,1.8 0,4 2.6,-1.4 6.4,-4.8 5.6,-9.4 z M 74.6,57 a 3.7,3.7 0 0 0 0.5,-1.1 3.6,3.6 0 0 0 0.4,1.1 c 0.8,1.5 2.2,2.4 2.5,4.2 -0.7,0 -0.7,1 -0.4,1.5 0.3,0.5 -0.6,0.7 -1,0.1 a 4.1,4.1 0 0 1 -1.1,-2.6 c 0,-0.5 -0.1,-0.9 -0.1,-1.3 v -0.3 c 0,-0.3 -0.2,-0.4 -0.3,-0.4 -0.1,0 -0.3,0.1 -0.3,0.4 v 1.6 a 3.9,3.9 0 0 1 -0.9,2.6 c -0.4,0.6 -1.1,0.3 -1,-0.1 0.1,-0.4 0.2,-1.6 -0.7,-1.5 h -0.1 c 0.4,-1.7 1.8,-2.8 2.5,-4.2 z m -7.5,5.7 c 0.2,-0.6 0,-1.6 -0.8,-1.5 H 66 c 0.3,-1.7 1.7,-2.7 2.5,-4.2 a 3.6,3.6 0 0 0 0.4,-1.1 3.7,3.7 0 0 0 0.5,1.1 c 0.7,1.5 2.2,2.4 2.5,4.2 -0.5,0.2 -0.4,1 -0.2,1.5 0.2,0.5 -0.4,0.7 -1,0.1 a 5.7,5.7 0 0 1 -1.2,-2.6 c -0.1,-0.5 -0.1,-0.9 -0.2,-1.3 v -0.3 c 0,-0.3 -0.2,-0.4 -0.3,-0.4 -0.1,0 -0.4,0.1 -0.3,0.4 v 0.3 c 0,0.4 0.1,0.8 0.1,1.3 a 3.8,3.8 0 0 1 -0.7,2.6 c -0.4,0.6 -1.1,0.3 -1,-0.1 z m 5.3,8.7 c 0.2,0.3 -0.4,0.7 -0.8,0.1 A 6.6,6.6 0 0 1 70.5,68.9 5.9,5.9 0 0 0 70.3,67.5 V 67.3 C 70.3,67 70.1,66.8 70,66.9 69.9,67 69.7,67 69.8,67.3 v 0.2 a 6.1,6.1 0 0 1 0.1,1.4 4.6,4.6 0 0 1 -0.4,2.6 c -0.3,0.6 -1,0.2 -0.9,-0.1 0.1,-0.3 -0.1,-1.7 -0.8,-1.6 h -0.3 c -0.3,-2.2 1.1,-3.4 1.8,-5 a 4.3,4.3 0 0 0 0.2,-1.1 l 0.5,1.1 c 1,1.6 2.6,2.6 2.8,4.9 -0.7,0.1 -0.6,1.1 -0.4,1.7 z m 5.5,-1.6 v 0 c -0.7,-0.1 -0.9,1 -0.7,1.6 0.2,0.6 -0.5,0.7 -0.8,0.1 a 4.8,4.8 0 0 1 -0.7,-2.6 v -1.6 c 0,-0.3 -0.1,-0.5 -0.3,-0.4 -0.2,0.1 -0.2,0.1 -0.2,0.4 v 0.2 a 6.1,6.1 0 0 0 -0.1,1.4 6.2,6.2 0 0 1 -0.9,2.6 c -0.3,0.6 -0.9,0.2 -0.8,-0.1 0.1,-0.3 0.2,-1.7 -0.5,-1.6 h -0.1 c 0,-2.1 1.4,-3.3 2.1,-4.9 a 4.9,4.9 0 0 0 0.4,-1.1 4.9,4.9 0 0 0 0.4,1.1 c 0.9,1.6 2.5,2.6 2.5,5 z m 6.2,-8.6 v 0 c -0.8,-0.1 -0.9,0.9 -0.7,1.5 0.2,0.6 -0.5,0.7 -1,0.1 a 5.9,5.9 0 0 1 -0.9,-4.2 c 0,-0.3 -0.1,-0.4 -0.3,-0.4 -0.2,0 -0.3,0.1 -0.3,0.4 a 6.5,6.5 0 0 1 -1.1,4.2 c -0.5,0.6 -1.2,0.3 -1,-0.1 C 79,62.3 79,61.2 78.2,61.2 78.6,59.5 80,58.4 80.8,57 a 3.4,3.4 0 0 0 0.4,-1.2 3.3,3.3 0 0 0 0.5,1.2 c 0.7,1.5 2.2,2.4 2.5,4.2 z m 5.9,0 v 0 c -0.8,-0.1 -1,0.9 -0.8,1.5 0.2,0.6 -0.6,0.7 -1,0.1 a 4.4,4.4 0 0 1 -0.7,-2.6 c 0,-0.5 0.1,-0.9 0.1,-1.3 v -0.3 c 0.1,-0.3 -0.1,-0.4 -0.2,-0.4 A 0.4,0.4 0 0 0 87,58.6 v 0.3 c -0.1,0.4 -0.1,0.8 -0.2,1.3 a 4.8,4.8 0 0 1 -1.2,2.6 c -0.5,0.6 -1.2,0.3 -1,-0.1 0.2,-0.4 0.3,-1.3 -0.2,-1.5 0.4,-1.7 1.8,-2.8 2.5,-4.2 a 3.7,3.7 0 0 0 0.5,-1.1 3.6,3.6 0 0 0 0.4,1.1 c 0.8,1.5 2.2,2.4 2.6,4.2 z"
         id="path141"
         inkscape:connector-curvature="0"
         style="fill:#c9c8c9;fill-rule:evenodd" />
      <path
         class="k"
         d="m 75.2,96.4 c 4.1,-0.4 8.8,-3.5 7,-9.1 1.1,2.7 6.5,5.8 10.4,6.4 -3.2,2 -10.7,2.7 -17.4,2.7 z"
         id="path143"
         inkscape:connector-curvature="0"
         style="fill:#c9c8c9" />
      <path
         class="k"
         d="m 27.2,60.9 c 0,27.9 23.7,39.1 47.8,39.1 24.1,0 47.8,-11.2 47.8,-39.1 v 54.2 H 27.2 Z"
         id="path145"
         inkscape:connector-curvature="0"
         style="fill:#c9c8c9" />
      <g
         class="l"
         id="g149"
         style="opacity:0.5;mix-blend-mode:screen">
        <polygon
           class="k"
           points="93.6,32.7 93.7,33.1 "
           id="polygon147"
           style="fill:#c9c8c9" />
      </g>
    </g>
    <g
       id="g343"
       transform="matrix(1.6639229,0,0,1.6639229,26.192706,31.052257)">
      <path
         style="isolation:isolate;fill:#003282"
         inkscape:connector-curvature="0"
         id="path151"
         d="m 67.304205,60.209041 h -0.2 l -0.4,0.9 v 0 l -0.5,-0.9 h -0.3 v 1.5 h 0.3 v -0.9 0 l 0.3,0.7 h 0.3 l 0.3,-0.7 v 0 0.9 h 0.4 v -1.5 z"
         class="h" />
      <path
         style="isolation:isolate;fill:#003282"
         inkscape:connector-curvature="0"
         id="path153"
         d="m 64.404205,60.209041 v 0.2 h 0.5 v 1.3 h 0.3 v -1.2 h 0.4 c 0.1,0 0.1,-0.1 0.1,-0.2 a 0.1,0.1 0 0 0 -0.1,-0.1 z"
         class="h" />
    </g>
    <g
       id="g3930"
       transform="translate(-1.327227,-24.81997)">
      <path
         id="path28"
         d="m 134.16468,246.19175 c -0.36695,-0.009 -0.79967,-0.0475 -0.96161,-0.0848 -0.16193,-0.0372 -0.53359,-0.12898 -0.8259,-0.20387 -0.2923,-0.0749 -0.83865,-0.40657 -1.21409,-0.73704 -0.37544,-0.33048 -0.91225,-1.01149 -1.19291,-1.51336 -0.28067,-0.50188 -0.6191,-1.37417 -0.75208,-1.93842 -0.18857,-0.80015 -0.22409,-1.46328 -0.16137,-3.01329 0.0442,-1.09305 0.18423,-2.40682 0.31112,-2.91947 0.1269,-0.51265 0.45953,-1.42734 0.73919,-2.03263 0.27967,-0.6053 0.71475,-1.36097 0.96686,-1.67928 0.3114,-0.39318 0.85077,-0.77318 1.68216,-1.18516 1.13455,-0.56219 1.25361,-0.59183 1.63262,-0.40648 0.22485,0.10996 0.53216,0.43931 0.6829,0.73188 0.2111,0.40968 0.24076,0.61959 0.12909,0.91331 -0.0979,0.2576 -0.38624,0.48515 -0.88834,0.70115 -0.40885,0.17588 -0.94173,0.54572 -1.1842,0.82187 -0.24246,0.27615 -0.61066,0.83722 -0.81823,1.24683 -0.20756,0.40961 -0.50111,1.22849 -0.65233,1.81975 -0.15121,0.59124 -0.28806,1.46264 -0.30409,1.93644 -0.016,0.4738 0.0219,1.25893 0.0842,1.74473 0.0624,0.4858 0.2395,1.22592 0.39363,1.6447 0.17249,0.46863 0.50106,0.96091 0.85446,1.28019 0.31582,0.28533 0.85285,0.5938 1.19342,0.6855 0.48774,0.13134 0.73172,0.12404 1.14924,-0.0344 0.39773,-0.15089 0.57144,-0.32833 0.69592,-0.71086 0.16084,-0.49423 0.19151,-0.51113 1.00611,-0.55429 0.49247,-0.0261 0.92647,0.0271 1.04861,0.12844 0.11462,0.0951 0.2084,0.37013 0.2084,0.61112 0,0.241 -0.10722,0.66414 -0.23828,0.94033 -0.13106,0.27618 -0.50318,0.71194 -0.82694,0.96836 -0.32375,0.25642 -0.92654,0.55387 -1.33952,0.66099 -0.41299,0.10713 -1.05111,0.18709 -1.41806,0.1777 z m 24.23987,-3.96214 c -0.42031,-0.002 -0.88795,-0.0764 -1.03921,-0.16427 -0.26053,-0.15137 -0.26934,-0.32667 -0.16707,-3.32696 0.0796,-2.3356 0.0644,-3.14027 -0.0579,-3.06467 -0.0912,0.0564 -0.39725,0.46424 -0.68006,0.90633 -0.28281,0.44211 -0.68384,0.86832 -0.89116,0.94714 -0.20731,0.0788 -0.60885,0.14332 -0.89228,0.14332 -0.28344,0 -0.63447,-0.0638 -0.78008,-0.14168 -0.14559,-0.0779 -0.4143,-0.54164 -0.59711,-1.03049 -0.18282,-0.48884 -0.37979,-0.8888 -0.4377,-0.8888 -0.0579,0 -0.19383,0.87775 -0.302,1.95056 -0.10817,1.07281 -0.20175,2.41428 -0.20797,2.98105 -0.009,0.83793 -0.0663,1.07845 -0.30571,1.28711 -0.21721,0.18931 -0.50678,0.24723 -1.10409,0.22082 l -0.80968,-0.0358 0.0252,-2.28179 c 0.0138,-1.25499 0.12843,-3.64855 0.25463,-5.31903 0.12621,-1.67048 0.29275,-3.20369 0.3701,-3.40713 0.12142,-0.31935 0.26151,-0.38393 1.02526,-0.47257 0.48654,-0.0565 1.09055,-0.0574 1.34225,-0.002 0.37665,0.0827 0.5195,0.24039 0.80719,0.89089 0.19224,0.43471 0.5266,1.3709 0.74302,2.08043 0.36748,1.20475 0.40793,1.27084 0.61178,0.99957 0.12005,-0.15977 0.50451,-0.85357 0.85437,-1.54179 0.34985,-0.68822 0.84336,-1.53525 1.09667,-1.8823 0.25332,-0.34704 0.62116,-0.70415 0.81742,-0.79358 0.31271,-0.14248 0.44864,-0.0926 1.09929,0.40362 0.40836,0.31142 0.74247,0.64193 0.74247,0.73448 0,0.0925 -0.0962,1.55289 -0.21371,3.24523 -0.11755,1.69233 -0.24246,4.01503 -0.27759,5.16156 -0.0351,1.14653 -0.10848,2.15678 -0.16301,2.24499 -0.0545,0.0882 -0.44301,0.15839 -0.8633,0.15592 z m 6.22841,-0.0495 c -1.17401,0.0151 -2.39512,-0.0163 -2.71355,-0.0697 -0.48459,-0.0813 -0.5981,-0.16908 -0.69632,-0.53853 -0.0645,-0.24277 -0.132,-2.13078 -0.14993,-4.19556 -0.0179,-2.06479 -0.0162,-4.41345 0.004,-5.21926 0.02,-0.80581 0.10768,-1.55107 0.19489,-1.65614 0.11287,-0.136 0.63898,-0.19104 1.82622,-0.19104 0.91722,0 1.99902,0.0711 2.40397,0.15791 0.49044,0.10518 0.88385,0.30881 1.17813,0.60981 0.243,0.24856 0.55527,0.6909 0.69393,0.98299 0.1453,0.30608 0.25213,0.88253 0.25217,1.36062 0,0.59306 -0.0933,0.98775 -0.3274,1.38457 -0.2589,0.43881 -0.28717,0.5806 -0.13495,0.67714 0.10591,0.0672 0.27515,0.12312 0.37613,0.12436 0.10097,0.001 0.45356,0.24615 0.78352,0.54426 0.32996,0.2981 0.72763,0.7923 0.88371,1.09823 0.17017,0.33358 0.28377,0.85612 0.28377,1.30546 0,0.41208 -0.10846,0.96125 -0.24099,1.22037 -0.13255,0.25912 -0.43173,0.71389 -0.66487,1.0106 -0.23313,0.29671 -0.73747,0.72554 -1.12073,0.95296 -0.66997,0.39754 -0.77921,0.41456 -2.83143,0.44094 z m -0.14721,-1.94238 c 0.28339,-0.0337 0.6984,-0.0621 0.92224,-0.063 0.25322,-0.001 0.60633,-0.1843 0.93459,-0.48512 0.41715,-0.3823 0.54346,-0.6243 0.6034,-1.15615 0.0425,-0.37682 0.002,-0.81094 -0.0925,-0.9871 -0.0926,-0.17295 -0.36709,-0.41726 -0.61008,-0.54291 -0.31454,-0.16266 -0.76909,-0.2161 -1.57816,-0.18554 l -1.1364,0.0429 -0.0415,1.64444 c -0.0371,1.47201 -0.014,1.65227 0.22083,1.71912 0.14428,0.0411 0.49419,0.0471 0.77757,0.0133 z m -0.29173,-5.80589 c 0.33042,0 0.79426,-0.10005 1.03074,-0.22234 0.23648,-0.12229 0.49818,-0.34979 0.58155,-0.50557 0.0834,-0.15577 0.15157,-0.48398 0.15157,-0.72936 0,-0.29711 -0.0994,-0.49935 -0.29771,-0.60546 -0.16374,-0.0876 -0.71027,-0.13965 -1.2145,-0.11559 l -0.9168,0.0437 -0.0448,0.86679 c -0.0246,0.47674 -0.0102,0.95702 0.0322,1.06729 0.0475,0.12387 0.30656,0.2005 0.67772,0.2005 z m 7.27697,7.80002 c -0.40888,10e-4 -0.82292,-0.0772 -0.92008,-0.1744 -0.13106,-0.13107 -0.17665,-1.5905 -0.17665,-5.65565 0,-3.01344 0.0402,-5.58378 0.0894,-5.71185 0.0629,-0.16394 0.28273,-0.23286 0.74274,-0.23286 0.49079,0 0.74008,0.0867 1.00168,0.34828 0.24757,0.24756 0.37942,0.59752 0.45596,1.21011 0.0592,0.47401 0.0732,2.90854 0.031,5.41006 -0.0612,3.63021 -0.11744,4.57404 -0.27862,4.67613 -0.11106,0.0704 -0.53647,0.12894 -0.94536,0.13018 z m -28.11025,-0.24754 c -1.78127,0.0456 -3.3546,0.0493 -3.4963,0.008 -0.14169,-0.041 -0.26617,-0.0862 -0.27664,-0.10055 -0.0105,-0.0143 -0.0405,-2.54027 -0.0667,-5.61326 -0.0326,-3.8125 0.002,-5.64742 0.10947,-5.77667 0.0932,-0.1123 0.31517,-0.15588 0.54519,-0.10703 0.2134,0.0453 0.66644,0.18146 1.00676,0.30254 0.34032,0.12109 0.65252,0.33179 0.69379,0.46824 0.0413,0.13644 0.0486,2.15915 0.0163,4.4949 l -0.0587,4.24682 3.48684,-0.0513 3.48684,-0.0513 0.13989,0.56645 c 0.10687,0.43273 0.0883,0.65863 -0.0788,0.95689 -0.19422,0.3467 -0.33352,0.40065 -1.24398,0.48172 -0.5639,0.0502 -2.48267,0.12859 -4.26395,0.17416 z m 31.27702,0.10258 c -0.72292,0 -1.02416,-0.0542 -1.02256,-0.18402 0.001,-0.1012 0.13715,-0.71398 0.30202,-1.36172 0.16487,-0.64773 0.49863,-2.03889 0.74169,-3.09146 0.24306,-1.05257 0.57348,-2.57622 0.73428,-3.38589 0.1608,-0.80967 0.39503,-1.8696 0.52051,-2.3554 0.1255,-0.4858 0.29063,-0.95888 0.36696,-1.05129 0.0763,-0.0924 0.43164,-0.21192 0.78955,-0.2656 0.35791,-0.0537 0.89275,-0.0522 1.18854,0.003 0.438,0.0822 0.57895,0.19943 0.75968,0.63197 0.12204,0.29209 0.31135,0.99554 0.42068,1.56322 0.10933,0.56769 0.43849,2.32395 0.73147,3.90281 0.29298,1.57885 0.65975,3.24946 0.81506,3.71247 0.15529,0.463 0.28235,1.07577 0.28235,1.36171 v 0.51989 h -1.01415 -1.01413 l -0.25971,-0.9934 c -0.14283,-0.54653 -0.33237,-1.0735 -0.42118,-1.17105 -0.11325,-0.12441 -0.33732,-0.14001 -0.75033,-0.0523 -0.32387,0.0688 -0.83053,0.16691 -1.12591,0.21802 -0.42803,0.0741 -0.5567,0.17434 -0.63381,0.49391 -0.0532,0.22054 -0.16187,0.6494 -0.24147,0.95303 l -0.14474,0.55204 h -1.0248 z m 2.6786,-4.14354 c 0.33753,-0.0758 0.65747,-0.16494 0.71098,-0.19801 0.0535,-0.0331 -0.0508,-0.74245 -0.23174,-1.57641 -0.18097,-0.83395 -0.3405,-1.5494 -0.3545,-1.58988 -0.014,-0.0405 -0.2078,0.68821 -0.43062,1.61933 -0.22282,0.93112 -0.38323,1.73568 -0.35647,1.7879 0.0268,0.0522 0.32482,0.0329 0.66235,-0.0429 z m -41.35107,3.9405 c -0.46665,0.0203 -0.98094,0.004 -1.14288,-0.0355 -0.16193,-0.0398 -0.47913,-0.14399 -0.70488,-0.23152 -0.23469,-0.091 -0.57377,-0.4378 -0.79179,-0.80983 -0.35906,-0.61268 -0.3774,-0.73905 -0.31404,-2.16372 0.0578,-1.29992 0.13128,-1.64977 0.52158,-2.48383 0.24987,-0.53394 0.73807,-1.27865 1.0849,-1.65492 0.34683,-0.37627 0.81292,-0.7784 1.03576,-0.89364 0.22284,-0.11523 0.63137,-0.20952 0.90786,-0.20952 0.27649,0 0.66342,0.12642 0.85984,0.28093 0.19643,0.15451 0.54205,0.62066 0.76804,1.03588 0.33734,0.6198 0.42493,0.99775 0.48927,2.11128 0.0436,0.75523 0.005,1.74777 -0.0874,2.2396 -0.0912,0.4858 -0.34722,1.175 -0.56894,1.53156 -0.22172,0.35656 -0.58441,0.78286 -0.80598,0.94735 -0.27446,0.20374 -0.67329,0.3108 -1.25131,0.33591 z m -0.42483,-1.60092 c 0.0909,-0.0272 0.31846,-0.3552 0.50574,-0.72891 0.18728,-0.37373 0.37565,-1.03321 0.4186,-1.46552 0.043,-0.43231 0.007,-0.96989 -0.0807,-1.19463 -0.0873,-0.22473 -0.26359,-0.44883 -0.3917,-0.49799 -0.12811,-0.0492 -0.30318,-0.0191 -0.38905,0.0667 -0.0859,0.0859 -0.24541,0.50033 -0.35453,0.92103 -0.15643,0.60301 -0.16405,0.99599 -0.036,1.85679 0.10064,0.67672 0.22522,1.07311 0.32762,1.04249 z m 10.5825,-1.48663 c -0.46665,0.0224 -1.08031,-0.0284 -1.3637,-0.11287 -0.28338,-0.0845 -0.67059,-0.29729 -0.86046,-0.47287 -0.18987,-0.17558 -0.44641,-0.51384 -0.57011,-0.75169 -0.17369,-0.334 -0.20978,-0.7726 -0.15847,-1.92629 0.0567,-1.2759 0.13215,-1.63425 0.51686,-2.45635 0.24773,-0.52938 0.70127,-1.24018 1.00786,-1.57954 0.30659,-0.33936 0.74131,-0.7121 0.96603,-0.82831 0.22472,-0.11621 0.63421,-0.21129 0.90997,-0.21129 0.34525,0 0.70916,0.15865 1.16859,0.50945 0.37786,0.28852 0.74243,0.71945 0.84067,0.99369 0.0954,0.26633 0.20976,1.08044 0.25413,1.80915 0.0452,0.74155 0.008,1.71382 -0.0851,2.20819 -0.0912,0.4858 -0.34722,1.175 -0.56894,1.53156 -0.22172,0.35655 -0.58441,0.78286 -0.80598,0.94734 -0.27206,0.20196 -0.67834,0.31229 -1.25131,0.33983 z m -0.31903,-1.71464 c 0.0699,0 0.27136,-0.28155 0.44774,-0.62566 0.20791,-0.40561 0.34516,-1.00048 0.39028,-1.69145 0.0476,-0.7292 0.0113,-1.13601 -0.1149,-1.28811 -0.10147,-0.12227 -0.27405,-0.22231 -0.38351,-0.22231 -0.10946,0 -0.30009,0.19545 -0.42362,0.43433 -0.14569,0.28174 -0.22389,0.8377 -0.22258,1.58253 0.001,0.63152 0.0419,1.29726 0.0908,1.47944 0.0488,0.18218 0.14594,0.33123 0.21582,0.33123 z"
         style="opacity:1;fill:#fdce3d;fill-opacity:1;stroke:none;stroke-width:3;stroke-miterlimit:4;stroke-dasharray:none;stroke-opacity:1;paint-order:markers stroke fill"
         inkscape:connector-curvature="0" />
      <path
         id="path26"
         d="m 36.263577,246.02837 c -0.331753,0.026 -0.829802,-0.11022 -1.39852,-0.38247 -0.602219,-0.28829 -1.187754,-0.74661 -1.840158,-1.44037 -0.526285,-0.55964 -1.221865,-1.41415 -1.545732,-1.89892 -0.323868,-0.48477 -0.936079,-1.57715 -1.360468,-2.42752 l -0.77162,-1.54613 -0.0035,1.47212 c -0.0019,0.80967 -0.05352,1.55079 -0.114652,1.64694 -0.06114,0.0961 -0.296292,0.24519 -0.522574,0.33122 -0.22628,0.086 -0.592595,0.15642 -0.814033,0.15642 -0.221435,0 -0.482106,-0.0795 -0.579267,-0.17665 -0.130601,-0.1306 -0.176654,-1.5065 -0.176654,-5.27769 0,-3.19929 0.05792,-5.26717 0.155357,-5.54668 0.135647,-0.38912 0.243038,-0.45683 0.846473,-0.53368 0.380113,-0.0484 1.029266,-0.13023 1.442564,-0.18183 0.507995,-0.0634 1.017533,-0.0165 1.572746,0.14494 0.451713,0.13132 1.020707,0.40655 1.264433,0.61163 0.253707,0.21348 0.578333,0.73211 0.759406,1.21324 0.221916,0.58965 0.296501,1.05121 0.250002,1.5471 -0.04456,0.47516 -0.21155,0.9093 -0.509647,1.32491 -0.243858,0.34 -0.716978,0.7722 -1.051379,0.96044 -0.334402,0.18824 -0.608003,0.41221 -0.608003,0.4977 0,0.0855 0.311446,0.85892 0.692101,1.71872 0.380657,0.8598 0.960307,2.01859 1.288111,2.5751 0.327805,0.55649 0.96036,1.3888 1.405678,1.84955 0.445318,0.46076 1.127307,0.98991 1.515531,1.17589 l 0.70586,0.33816 -0.0434,0.90375 -0.0434,0.90375 z m -6.329281,-11.74376 c 0.250469,0 0.645623,-0.0984 0.878118,-0.2186 0.232498,-0.12023 0.566566,-0.4206 0.742374,-0.66751 0.298271,-0.41888 0.304045,-0.47273 0.08633,-0.80501 -0.136391,-0.20816 -0.438186,-0.39453 -0.726434,-0.4486 -0.27121,-0.0509 -0.685746,-0.0705 -0.921193,-0.0437 -0.424128,0.0484 -0.428483,0.0587 -0.471337,1.11612 l -0.04325,1.06729 z M 18.882569,245.9144 c -0.561311,0 -1.020568,-0.0601 -1.020568,-0.13357 0,-0.0735 0.337585,-1.54743 0.75019,-3.27548 0.412603,-1.72805 0.978357,-4.13559 1.257231,-5.3501 0.278872,-1.2145 0.598282,-2.70503 0.709797,-3.31228 0.111516,-0.60725 0.315188,-1.54945 0.452605,-2.09377 0.137416,-0.54432 0.339221,-1.06385 0.448454,-1.15451 0.109233,-0.0907 0.637083,-0.17526 1.173,-0.18802 0.859392,-0.0205 1.007478,0.0175 1.254708,0.32197 0.154173,0.18984 0.345346,0.58731 0.424829,0.88328 0.07948,0.29596 0.31646,1.46555 0.526615,2.59908 0.210153,1.13354 0.508185,2.75656 0.662292,3.60671 0.154106,0.85016 0.414838,1.93702 0.579402,2.41525 0.164565,0.47824 0.299208,1.09101 0.299208,1.36172 v 0.4922 h -1.008639 -1.008639 l -0.261626,-0.99369 c -0.143895,-0.54652 -0.335902,-1.07269 -0.426684,-1.16926 -0.12767,-0.1358 -0.411617,-0.12822 -1.253561,0.0335 -0.598675,0.11498 -1.11698,0.23753 -1.151786,0.27234 -0.03481,0.0348 -0.326355,1.21216 -0.647887,2.61635 -0.321531,1.40418 -0.6192,2.66899 -0.661488,2.81068 -0.06362,0.21319 -0.252915,0.25762 -1.097453,0.25762 z m 3.566132,-7.97106 c 0.337528,-0.0758 0.657468,-0.16494 0.710977,-0.19801 0.05351,-0.0331 -0.04008,-0.72039 -0.207988,-1.52736 -0.167903,-0.80698 -0.344766,-1.50671 -0.393028,-1.55496 -0.04826,-0.0483 -0.253826,0.65838 -0.456811,1.57029 -0.202984,0.91191 -0.346062,1.70075 -0.31795,1.75297 0.02811,0.0522 0.327273,0.0329 0.6648,-0.0429 z m 16.427728,7.34352 c -0.56588,0.0433 -0.865642,-0.008 -1.119962,-0.1915 -0.336531,-0.24286 -0.34407,-0.29324 -0.243883,-1.62954 l 0.103383,-1.37894 h -0.608453 c -0.33465,0 -0.873396,-0.13516 -1.197215,-0.30036 -0.323818,-0.1652 -0.718451,-0.51299 -0.876962,-0.77287 -0.158511,-0.25988 -0.434578,-0.9031 -0.613482,-1.42939 -0.248916,-0.73224 -0.323576,-1.2852 -0.318028,-2.3554 0.004,-0.76919 0.09157,-1.79599 0.194625,-2.28179 0.103055,-0.4858 0.321155,-1.24225 0.484667,-1.681 0.163512,-0.43874 0.567235,-1.09056 0.897162,-1.44849 0.329929,-0.35793 0.914993,-0.81047 1.300145,-1.00564 0.525206,-0.26614 0.938092,-0.35486 1.651537,-0.35486 0.668498,0 1.020025,0.0688 1.182594,0.23134 0.17734,0.17734 0.231334,0.55284 0.231334,1.60882 0,1.05598 -0.05399,1.43148 -0.231334,1.60882 -0.127233,0.12724 -0.417058,0.23134 -0.644055,0.23134 -0.226996,0 -0.619739,-0.0414 -0.87276,-0.092 -0.387232,-0.0774 -0.46004,-0.15899 -0.46004,-0.51524 0,-0.27263 -0.07637,-0.42324 -0.214613,-0.42324 -0.118037,0 -0.391631,0.30206 -0.607988,0.67124 -0.216356,0.36919 -0.517254,1.14309 -0.668662,1.71979 -0.151408,0.57671 -0.275288,1.52129 -0.275288,2.09908 0,0.57779 0.100208,1.37722 0.222684,1.77651 0.122477,0.39929 0.322996,0.857 0.445598,1.01715 0.174719,0.22822 0.277755,0.25711 0.476576,0.13364 0.139513,-0.0866 0.330199,-0.31705 0.423746,-0.512 0.09355,-0.19494 0.192914,-0.78504 0.220818,-1.31133 0.04777,-0.90101 0.03118,-0.95966 -0.284118,-1.0044 -0.184171,-0.0261 -0.427186,-0.19175 -0.540035,-0.36803 -0.112849,-0.17629 -0.227148,-0.48127 -0.253997,-0.67775 -0.03988,-0.29188 0.03197,-0.37688 0.392823,-0.46466 0.242901,-0.0591 0.95108,-0.13656 1.573732,-0.17214 0.622652,-0.0356 1.212865,-0.0148 1.311585,0.0462 0.139896,0.0865 0.147953,1.08748 0.03653,4.53773 -0.07863,2.43474 -0.18864,4.47247 -0.244464,4.52829 -0.05582,0.0558 -0.449212,0.1281 -0.874196,0.16061 z m 32.831144,-2.85126 c -0.384366,0.0929 -0.431346,0.0393 -1.055501,-1.20342 -0.359279,-0.71536 -0.871051,-1.92444 -1.137279,-2.68683 -0.465238,-1.33231 -0.487833,-1.36623 -0.581469,-0.87289 -0.05358,0.2823 -0.178672,1.30823 -0.277977,2.27984 -0.09931,0.9716 -0.205225,1.84936 -0.235373,1.95056 -0.03499,0.11746 -0.336011,0.1832 -0.832295,0.18176 -0.427619,-0.001 -0.848567,-0.0509 -0.935439,-0.11041 -0.08687,-0.0595 -0.202715,-0.22927 -0.257428,-0.37731 -0.05471,-0.14804 0.0012,-1.93667 0.124254,-3.97474 0.123048,-2.03807 0.282672,-4.42039 0.354722,-5.29403 0.07204,-0.87365 0.210871,-1.68471 0.308507,-1.80235 0.128717,-0.15509 0.344787,-0.18859 0.785982,-0.12186 0.334654,0.0506 0.81861,0.17712 1.075458,0.28112 0.256843,0.104 0.564909,0.34368 0.684595,0.53261 0.119686,0.18894 0.524102,1.56159 0.898701,3.05033 0.374598,1.48874 0.743534,2.81365 0.819856,2.94425 0.113461,0.19416 0.139504,0.17035 0.142837,-0.13058 0.0023,-0.20242 0.105636,-1.69295 0.229768,-3.31228 0.124132,-1.61934 0.288509,-3.09331 0.365277,-3.27548 0.08058,-0.19123 0.267845,-0.33123 0.443027,-0.33123 0.166898,0 0.560973,0.13138 0.875729,0.29195 0.314755,0.16058 0.616329,0.43074 0.670161,0.60036 0.05384,0.16962 0.02739,0.84975 -0.05875,1.5114 -0.08615,0.66165 -0.222122,1.99794 -0.30216,2.96955 -0.08003,0.9716 -0.183331,2.49525 -0.229547,3.38589 -0.04622,0.89063 -0.119152,1.90088 -0.162075,2.24499 -0.05368,0.43031 -0.148565,0.62565 -0.303917,0.62565 -0.12423,0 -0.401714,0.12283 -0.616631,0.27296 -0.214917,0.15013 -0.571784,0.31671 -0.79303,0.37019 z M 53.62094,242.3813 h -1.01078 l -0.280062,-0.55206 c -0.154035,-0.30362 -0.58266,-1.32759 -0.9525,-2.27548 -0.36984,-0.94788 -0.74762,-2.00263 -0.839509,-2.34388 -0.107197,-0.3981 -0.207997,-0.55424 -0.281266,-0.43569 -0.06281,0.10162 -0.08686,0.62641 -0.05345,1.16619 0.03341,0.53978 0.0051,1.062 -0.06297,1.16048 -0.06804,0.0985 -0.501019,0.22342 -0.96218,0.27761 -0.613511,0.0721 -0.90378,0.0444 -1.081867,-0.10344 -0.215846,-0.17914 -0.232046,-0.46879 -0.143141,-2.55942 0.05514,-1.29657 0.1673,-3.14706 0.24925,-4.1122 0.08195,-0.96514 0.214077,-1.8764 0.293614,-2.02501 0.119082,-0.22251 0.254083,-0.25364 0.76464,-0.17634 0.341014,0.0516 0.83017,0.17897 1.087015,0.28297 0.256845,0.104 0.575644,0.35492 0.708445,0.55759 0.132798,0.20268 0.49924,1.38407 0.814312,2.62532 0.315072,1.24125 0.668741,2.55492 0.78593,2.91927 0.120362,0.37422 0.222414,0.53435 0.234543,0.36803 0.01181,-0.16193 0.139302,-1.7229 0.283312,-3.46882 0.144012,-1.74592 0.310423,-3.25301 0.369803,-3.34909 0.05938,-0.0961 0.253105,-0.17359 0.430503,-0.17226 0.177397,0.001 0.587522,0.15295 0.91139,0.33694 0.576297,0.32738 0.588689,0.35165 0.581343,1.13847 -0.0041,0.44218 -0.116745,2.02951 -0.250258,3.5274 -0.133513,1.49788 -0.282191,3.45213 -0.330396,4.34276 -0.04821,0.89064 -0.125287,1.90089 -0.171292,2.245 l -0.08365,0.62566 z m -7.828741,-0.1619 c -2.204482,-0.008 -4.169466,-0.0597 -4.366627,-0.11478 l -0.358479,-0.10012 -0.0096,-5.61412 c -0.0053,-3.08776 0.03466,-5.65838 0.0887,-5.71248 0.05404,-0.0541 1.246459,-0.14832 2.649826,-0.20937 1.40337,-0.0611 2.608752,-0.0613 2.67863,-4.7e-4 0.06988,0.0608 0.159451,0.39806 0.199055,0.74942 0.05846,0.51868 0.01391,0.6914 -0.236852,0.91834 -0.232915,0.21079 -0.625727,0.30118 -1.597575,0.36766 l -1.288717,0.0882 -0.04526,0.7948 -0.04526,0.79479 1.044108,-0.097 c 0.57426,-0.0534 1.207398,-0.0561 1.406974,-0.006 0.321786,0.0808 0.362865,0.17001 0.362865,0.78837 0,0.48856 -0.08059,0.77021 -0.269214,0.94091 -0.193264,0.17491 -0.543315,0.24364 -1.240792,0.24364 -0.686969,0 -1.039344,0.0678 -1.202912,0.23134 -0.151038,0.15103 -0.231028,0.49594 -0.230453,0.99368 4.64e-4,0.41929 0.04374,1.31299 0.09613,1.98599 l 0.09525,1.22363 3.271013,-0.0294 c 1.799055,-0.0162 3.349571,0.0191 3.44559,0.0785 0.111031,0.0686 0.139388,0.27695 0.0779,0.57232 -0.05317,0.25543 -0.191068,0.61348 -0.306437,0.79566 -0.209533,0.33086 -0.21415,0.33121 -4.217912,0.31655 z m 13.017659,0.0147 c -0.235587,0 -0.49233,-0.0828 -0.57054,-0.18401 -0.07821,-0.10122 -0.152243,-0.81336 -0.164518,-1.58254 -0.01228,-0.76919 -0.06454,-2.89854 -0.116158,-4.73191 l -0.09384,-3.33339 -0.587773,-0.094 c -0.323276,-0.0517 -0.703557,-0.15596 -0.845071,-0.23169 -0.141512,-0.0757 -0.335536,-0.44842 -0.43116,-0.82818 -0.139599,-0.5544 -0.136031,-0.71597 0.01811,-0.81983 0.105587,-0.0711 0.423836,-0.0946 0.70722,-0.052 0.283384,0.0425 2.428709,0.078 4.767387,0.0789 l 4.252142,0.002 -0.07493,1.04719 c -0.04713,0.65863 -0.15006,1.09479 -0.277403,1.17545 -0.111362,0.0705 -1.238757,0.12927 -2.505327,0.13051 -1.962728,0.002 -2.316042,0.0366 -2.392202,0.23511 -0.04915,0.12807 -0.08936,1.94155 -0.08936,4.02995 0,2.08839 -0.04289,4.01156 -0.09532,4.27371 -0.07167,0.35835 -0.216615,0.5273 -0.584122,0.68086 -0.268838,0.11233 -0.68155,0.20423 -0.917137,0.20423 z m 5.370698,0 c -0.405186,0 -0.751278,-0.0897 -0.89295,-0.23134 -0.197898,-0.19789 -0.231338,-0.76027 -0.231338,-3.89061 0,-3.13034 0.03344,-3.69273 0.231338,-3.89062 0.162319,-0.16232 0.513651,-0.23133 1.177697,-0.23133 h 0.946371 v 3.96955 c 0,3.77393 -0.01403,3.97708 -0.284753,4.12196 -0.15661,0.0838 -0.582472,0.15239 -0.946365,0.15239 z m 11.383113,-0.14721 c -0.563652,0 -1.024815,-0.0338 -1.024815,-0.0751 0,-0.0413 0.225739,-1.01842 0.501646,-2.17139 0.275902,-1.15297 0.67462,-2.89126 0.886035,-3.86286 0.211416,-0.97161 0.565645,-2.59426 0.787176,-3.60591 l 0.402787,-1.83934 0.839014,-0.11718 c 0.461459,-0.0644 1.056782,-0.0607 1.322946,0.008 0.397106,0.1029 0.528356,0.24504 0.731512,0.79221 0.136171,0.36675 0.550696,2.32298 0.921167,4.34718 0.370472,2.0242 0.804519,4.07179 0.964554,4.5502 0.160036,0.47841 0.292608,1.11826 0.294596,1.42189 l 0.0036,0.55204 h -1.012596 -1.01259 l -0.248896,-0.99087 c -0.136896,-0.54498 -0.31814,-1.07431 -0.402775,-1.17628 -0.08463,-0.10197 -0.295343,-0.15553 -0.468258,-0.11902 -0.17291,0.0365 -0.68896,0.13862 -1.146785,0.22691 -0.724881,0.13979 -0.844776,0.21185 -0.928233,0.55784 -0.05271,0.21853 -0.160963,0.64575 -0.240567,0.94937 l -0.144732,0.55205 z m 2.324273,-4.02744 c 0.141689,-0.0399 0.478924,-0.11718 0.749406,-0.17176 0.414316,-0.0836 0.478216,-0.1491 0.405644,-0.41582 -0.04737,-0.17413 -0.198715,-0.89626 -0.336312,-1.60471 -0.137598,-0.70846 -0.28833,-1.28811 -0.334968,-1.28811 -0.04664,0 -0.233634,0.67901 -0.41554,1.50892 -0.181905,0.82992 -0.32964,1.62933 -0.328296,1.77648 0.0017,0.1838 0.08307,0.24484 0.260066,0.195 z"
         style="opacity:1;fill:#95c6e6;fill-opacity:1;stroke:none;stroke-width:3;stroke-miterlimit:4;stroke-dasharray:none;stroke-opacity:1;paint-order:markers stroke fill"
         inkscape:connector-curvature="0" />
      <path
         inkscape:connector-curvature="0"
         d="m 120.4533,226.24033 c -0.23299,0 -0.43244,0.12196 -0.54173,0.33126 -0.0951,0.18217 -0.46573,0.64733 -0.82362,1.03363 -0.35789,0.38631 -0.74997,0.93984 -0.87128,1.23017 -0.19914,0.47661 -0.19719,0.55375 0.0197,0.7934 0.13212,0.14599 0.3936,0.30389 0.58112,0.35096 0.18753,0.0471 0.37095,0.16901 0.40757,0.27092 0.0366,0.1019 0.0159,2.13953 -0.0462,4.52806 -0.0621,2.38852 -0.11786,4.75676 -0.12397,5.26281 l -0.0112,0.92008 h -0.96412 c -0.5698,0 -1.13922,0.0904 -1.39196,0.2211 -0.42712,0.22088 -0.42737,0.22202 -0.2151,0.82362 0.11689,0.33132 0.38746,0.92384 0.60127,1.31667 0.28343,0.52074 0.49324,0.73078 0.77449,0.77539 0.21216,0.0337 1.47175,0.0538 2.79908,0.0447 2.40081,-0.0164 2.41469,-0.0183 2.66491,-0.38447 0.20291,-0.2969 0.23441,-0.56476 0.16291,-1.38606 -0.0874,-1.00412 -0.0957,-1.02052 -0.60116,-1.18998 l -0.5124,-0.17175 0.0384,-4.03614 c 0.0211,-2.21989 0.109,-5.0833 0.19518,-6.36302 0.0862,-1.27972 0.11871,-2.47788 0.0723,-2.66265 -0.0464,-0.18477 -0.22444,-0.5142 -0.39579,-0.73204 -0.17134,-0.21783 -0.56769,-0.52662 -0.88068,-0.68629 -0.31299,-0.15968 -0.73495,-0.29039 -0.93774,-0.29039 z m -27.277497,0.001 c -0.508109,0.001 -0.914078,0.12198 -1.459198,0.43463 -0.415394,0.23825 -1.068358,0.7841 -1.451048,1.21307 -0.382685,0.42897 -0.853557,1.1153 -1.046314,1.52521 -0.192751,0.4099 -0.387931,0.93992 -0.433717,1.17775 -0.07152,0.3714 -0.01816,0.46876 0.378128,0.69003 0.253765,0.14169 0.752774,0.25767 1.108916,0.25767 0.597834,0 0.67018,-0.0425 0.941705,-0.55213 0.161757,-0.30363 0.378349,-0.65295 0.481382,-0.77631 0.103032,-0.12335 0.378447,-0.37175 0.612028,-0.55202 0.24594,-0.18982 0.633192,-0.32775 0.920084,-0.32775 0.307869,0 0.613066,0.11765 0.806298,0.31088 0.264361,0.26436 0.30154,0.44148 0.24794,1.18251 -0.04861,0.67206 -0.222696,1.18255 -0.760454,2.23052 -0.383554,0.74746 -1.020299,1.8218 -1.415047,2.38743 -0.394741,0.56562 -1.315636,1.8896 -2.046319,2.94218 -0.730683,1.05256 -1.595891,2.24501 -1.922692,2.64985 -0.326795,0.40484 -0.59486,0.80412 -0.595729,0.88725 -8.7e-4,0.0831 0.445675,0.58889 0.992198,1.12387 0.546528,0.53498 1.092987,1.00828 1.214435,1.05175 0.121454,0.0435 0.651463,0.0831 1.17775,0.0881 0.526287,0.005 1.397888,-0.0845 1.936847,-0.19868 0.538964,-0.11424 1.648929,-0.41414 2.466681,-0.66649 1.118179,-0.34505 1.545711,-0.54867 1.724232,-0.82113 0.20075,-0.30638 0.208789,-0.43131 0.05196,-0.80992 -0.102001,-0.24624 -0.39142,-0.55584 -0.643162,-0.68789 -0.320766,-0.16826 -0.743992,-0.22685 -1.414594,-0.19597 -0.526281,0.0242 -1.419434,0.0525 -1.984738,0.063 -0.822221,0.0152 -1.036703,-0.0268 -1.072461,-0.20979 -0.02458,-0.1258 0.300948,-0.6226 0.723541,-1.10405 0.422582,-0.48144 1.33065,-1.73654 2.017906,-2.7891 0.687249,-1.05258 1.438661,-2.33021 1.669773,-2.83916 0.238914,-0.52612 0.487085,-1.4218 0.575122,-2.07598 0.109699,-0.81532 0.108296,-1.4018 -0.0046,-2.01281 -0.08767,-0.47426 -0.374401,-1.21743 -0.637156,-1.65144 -0.262773,-0.43401 -0.693024,-0.9535 -0.956196,-1.15443 -0.263173,-0.20093 -0.708274,-0.46133 -0.989027,-0.57863 -0.280754,-0.11731 -0.827241,-0.21267 -1.214436,-0.21194 z m 9.468437,0.29628 c -0.17003,0.002 -0.59013,0.13077 -0.93355,0.28666 -0.34342,0.15588 -0.89202,0.56853 -1.21908,0.91691 -0.32705,0.34837 -0.856841,1.16333 -1.17741,1.81106 -0.320569,0.64774 -0.683616,1.57524 -0.806751,2.06104 -0.123134,0.4858 -0.264233,1.51262 -0.313491,2.28181 -0.04925,0.76918 -0.01526,2.00112 0.07552,2.73771 0.09077,0.73659 0.297355,1.86284 0.459077,2.50269 0.161716,0.63984 0.52289,1.63009 0.802565,2.20051 0.326998,0.66696 0.71923,1.20649 1.09906,1.51173 0.32486,0.26106 0.74204,0.5354 0.92699,0.60965 0.18496,0.0743 0.52503,0.13919 0.7557,0.14435 0.23066,0.005 0.64309,-0.0968 0.91657,-0.22654 0.27348,-0.12977 0.72831,-0.49185 1.01076,-0.80449 0.28245,-0.31264 0.69144,-0.91857 0.90887,-1.34655 0.27065,-0.53275 0.45702,-1.24234 0.59086,-2.25022 0.10753,-0.80966 0.19539,-2.53214 0.19598,-3.82762 0,-1.29547 -0.0947,-3.02479 -0.21103,-3.843 -0.11634,-0.81822 -0.30443,-1.75737 -0.41798,-2.08697 -0.11356,-0.3296 -0.42694,-0.87763 -0.69638,-1.21783 -0.26944,-0.3402 -0.75248,-0.8088 -1.07348,-1.04133 -0.321,-0.23253 -0.72277,-0.42135 -0.8928,-0.41957 z m 9.87737,0.0126 c -0.18045,1.7e-4 -0.37765,0.007 -0.59811,0.0202 -0.76597,0.0454 -1.45133,0.18332 -1.90253,0.38289 -0.38789,0.17156 -1.06012,0.64754 -1.49385,1.05774 -0.47934,0.45335 -0.91624,1.04267 -1.11413,1.50268 -0.24363,0.56635 -0.30778,0.94201 -0.25484,1.49305 0.0568,0.59127 0.16187,0.81779 0.53357,1.1499 0.25459,0.22747 0.61858,0.41357 0.8088,0.41357 0.19022,0 0.5128,-0.13135 0.71686,-0.29187 0.21908,-0.17233 0.41326,-0.51689 0.47414,-0.84139 0.0567,-0.30225 0.19243,-0.72237 0.3017,-0.93367 0.10927,-0.2113 0.46814,-0.62763 0.79748,-0.92517 0.45028,-0.4068 0.72707,-0.54105 1.11583,-0.54105 0.42351,0 0.57125,0.0865 0.81728,0.47844 0.22525,0.35885 0.28348,0.64409 0.23299,1.14096 -0.0418,0.41118 -0.37197,1.25635 -0.87061,2.22825 -0.44184,0.8612 -1.52479,2.61073 -2.40656,3.88784 -0.88177,1.27712 -2.07667,2.95438 -2.6553,3.7272 l -1.05197,1.40508 0.90479,0.9982 0.9048,0.99831 2.79704,-0.0771 c 1.53837,-0.0424 3.05244,-0.1096 3.36457,-0.14932 0.31212,-0.0397 0.7621,-0.17291 1.00001,-0.29594 0.23791,-0.12303 0.50152,-0.37496 0.58577,-0.55984 0.11445,-0.2512 0.0955,-0.47397 -0.0747,-0.88147 -0.16046,-0.38405 -0.39262,-0.61954 -0.78513,-0.79634 -0.44423,-0.20011 -0.93825,-0.24558 -2.4343,-0.22382 -1.03233,0.015 -1.87696,-0.0236 -1.87696,-0.0859 0,-0.0623 0.1718,-0.274 0.38176,-0.47028 0.20996,-0.1963 0.89192,-1.11871 1.51558,-2.04983 0.62365,-0.93112 1.37343,-2.09036 1.66615,-2.57616 0.29272,-0.48581 0.77265,-1.36368 1.06658,-1.95077 0.29393,-0.58709 0.66423,-1.57485 0.82283,-2.19497 0.1586,-0.62012 0.28814,-1.36529 0.28756,-1.65597 -5.8e-4,-0.29067 -0.0717,-0.78379 -0.15838,-1.0959 -0.0867,-0.3121 -0.42259,-0.85507 -0.74653,-1.20651 -0.39584,-0.42944 -0.83236,-0.71968 -1.33104,-0.88532 -0.40987,-0.13613 -0.79978,-0.19618 -1.34112,-0.19563 z m -9.66634,3.95894 c 0.0657,0 0.19981,0.2437 0.29809,0.54149 0.11791,0.35727 0.1486,0.99574 0.0901,1.87696 -0.0487,0.73453 -0.15973,2.16353 -0.24658,3.17562 -0.0868,1.01209 -0.22451,2.17928 -0.3059,2.59371 -0.0814,0.41443 -0.23759,0.87602 -0.34711,1.02582 -0.18183,0.24865 -0.21844,0.20718 -0.4216,-0.47697 -0.12239,-0.41212 -0.33588,-1.30432 -0.47437,-1.9827 -0.18061,-0.88495 -0.23138,-1.64932 -0.17955,-2.70556 0.0532,-1.08531 0.17241,-1.74285 0.45342,-2.50256 0.20963,-0.56677 0.52347,-1.14645 0.6975,-1.28814 0.17403,-0.14169 0.37026,-0.25767 0.43598,-0.25767 z"
         style="opacity:1;fill:#003282;fill-opacity:1;stroke:none;stroke-width:3;stroke-miterlimit:4;stroke-dasharray:none;stroke-opacity:1;paint-order:markers stroke fill"
         id="path24" />
    </g>
  </g>
</svg>
