
<svg xmlns="http://www.w3.org/2000/svg" xmlns:xlink="http://www.w3.org/1999/xlink" viewBox="0 0 183.7 159.1" width="339.796959376" height="294.293392688">
<defs>
<style type="text/css">
.a{fill:#fff;}
.b{fill:url(#a);}
.c{fill:url(#b);}
.text{fill:#005ca4;}
.year{fill:#fff;}
</style>
<linearGradient id="a" x1="107.83" y1="14.84" x2="67.12" y2="85.35" gradientUnits="userSpaceOnUse">
<stop offset="0" stop-color="#8cbae4"/>
<stop offset="0.11" stop-color="#6dacdf"/>
<stop offset="0.54" stop-color="#005ca4"/>
<stop offset="1" stop-color="#005ca4"/>
</linearGradient>
<linearGradient id="b" x1="120.58" y1="7.68" x2="63.06" y2="107.3" gradientUnits="userSpaceOnUse">
<stop offset="0.05" stop-color="#8cbae4"/>
<stop offset="0.54" stop-color="#005ca4"/>
<stop offset="1" stop-color="#005ca4"/>
</linearGradient>
</defs>
<title>CONMEBOL logo</title>
<path class="text" d="M25.8,159.1a10.2,10.2,0,0,1-2.7-.4,6.6,6.6,0,0,1-2.5-1.3,7.1,7.1,0,0,1-1.8-2.5,9.2,9.2,0,0,1-.7-3.9V135.9a8.6,8.6,0,0,1,.6-3.1,7.3,7.3,0,0,1,4-4.2,8.2,8.2,0,0,1,6.1,0,7.3,7.3,0,0,1,2.4,1.7,7.8,7.8,0,0,1,1.6,2.6,9.1,9.1,0,0,1,.6,3.3v1.8a.4.4,0,0,1-.4.4H28.5a.4.4,0,0,1-.4-.4v-1.5a3.5,3.5,0,0,0-.7-2.2,2.1,2.1,0,0,0-1.8-.9,2,2,0,0,0-1.9.9,5.6,5.6,0,0,0-.5,2.6v13.9a4.1,4.1,0,0,0,.5,2.2,2,2,0,0,0,1.9.8h.9l.8-.5a2.3,2.3,0,0,0,.6-.9,3.9,3.9,0,0,0,.2-1.5v-1.5a.4.4,0,0,1,.4-.4h4.4a.4.4,0,0,1,.4.4v1.9a8.1,8.1,0,0,1-2.2,5.5,8,8,0,0,1-2.4,1.7A6.9,6.9,0,0,1,25.8,159.1Z"/>
<path class="text" d="M44.4,159.1a8.1,8.1,0,0,1-2.8-.5A7.9,7.9,0,0,1,39,157a7.7,7.7,0,0,1-1.8-2.6,8.9,8.9,0,0,1-.7-3.7V136.3a9,9,0,0,1,.7-3.6,7.7,7.7,0,0,1,1.8-2.6,7.9,7.9,0,0,1,2.6-1.6,8,8,0,0,1,5.7,0,7.9,7.9,0,0,1,2.6,1.6,7.7,7.7,0,0,1,1.8,2.6,9,9,0,0,1,.7,3.6v14.5a8.9,8.9,0,0,1-.7,3.7,7.7,7.7,0,0,1-1.8,2.6,7.9,7.9,0,0,1-2.6,1.6A8.2,8.2,0,0,1,44.4,159.1Zm0-25.8a2.6,2.6,0,0,0-2.7,3v14.5a2.8,2.8,0,0,0,.8,2.2,3,3,0,0,0,3.9,0,2.8,2.8,0,0,0,.8-2.2V136.3a2.9,2.9,0,0,0-.8-2.2A2.8,2.8,0,0,0,44.4,133.4Z"/>
<path class="text" d="M71.6,158.9H67.5a.4.4,0,0,1-.4-.3l-5.8-15.1a.3.3,0,0,0-.5.1v14.8a.4.4,0,0,1-.4.4H55.9a.4.4,0,0,1-.4-.4V128.7a.4.4,0,0,1,.4-.4h4.2a.4.4,0,0,1,.4.3l5.7,15.1a.3.3,0,0,0,.5-.1V128.7a.4.4,0,0,1,.4-.4h4.4a.4.4,0,0,1,.4.4v29.7A.4.4,0,0,1,71.6,158.9Z"/>
<path class="text" d="M96.7,158.9H92.3a.4.4,0,0,1-.4-.4V143.7a.3.3,0,0,0-.5-.1L88,154.2l-.3.2H85.3l-.3-.2-3.3-10.6a.3.3,0,0,0-.5.1v14.7a.4.4,0,0,1-.4.4H76.4a.4.4,0,0,1-.4-.4V128.7a.4.4,0,0,1,.4-.4h4.2a.4.4,0,0,1,.4.3l5.3,14.3a.3.3,0,0,0,.5,0L92,128.5a.4.4,0,0,1,.4-.3h4.3a.4.4,0,0,1,.4.4v29.7A.4.4,0,0,1,96.7,158.9Z"/>
<path class="text" d="M114.8,158.9H101.5a.4.4,0,0,1-.4-.4V128.7a.4.4,0,0,1,.4-.4h13.4a.4.4,0,0,1,.4.4v4.3a.4.4,0,0,1-.4.4h-8.3a.3.3,0,0,0-.3.3v6.9a.3.3,0,0,0,.3.3h7.1a.4.4,0,0,1,.4.4v4.3a.4.4,0,0,1-.4.4h-7.1a.3.3,0,0,0-.3.3v6.9a.3.3,0,0,0,.3.3h8.3a.4.4,0,0,1,.4.4v4.5A.4.4,0,0,1,114.8,158.9Z"/>
<path class="text" d="M124.7,158.9h-6.1a.4.4,0,0,1-.4-.4V128.7a.4.4,0,0,1,.4-.4h6.5a9.4,9.4,0,0,1,3.8.7,7.4,7.4,0,0,1,2.6,1.9,9,9,0,0,1,2,5.1c.2,2.8-.4,5.6-2.7,7.3h-.1a5.3,5.3,0,0,1,2,2.2,10.5,10.5,0,0,1,.7,6,9,9,0,0,1-2,4.9C130,158,127.7,158.9,124.7,158.9Zm-1.3-5.7a.3.3,0,0,0,.3.3H125a4.4,4.4,0,0,0,2-.4c2.1-1.1,2.2-4.9.6-6.5l-.3-.3c-1-.7-2.4-.5-3.6-.5a.3.3,0,0,0-.3.3Zm0-12.5a.3.3,0,0,0,.3.3h1.4c1.4,0,2.3-.3,2.8-1a5.3,5.3,0,0,0-.1-5.6,3.5,3.5,0,0,0-2.9-1h-1.3a.3.3,0,0,0-.3.3Z"/>
<path class="text" d="M144.4,159.1a8.1,8.1,0,0,1-2.8-.5A7.9,7.9,0,0,1,139,157a7.7,7.7,0,0,1-1.8-2.6,8.9,8.9,0,0,1-.7-3.7V136.3a9,9,0,0,1,.7-3.6,7.7,7.7,0,0,1,1.8-2.6,7.9,7.9,0,0,1,2.6-1.6,8,8,0,0,1,5.7,0,7.9,7.9,0,0,1,2.6,1.6,7.7,7.7,0,0,1,1.8,2.6,9,9,0,0,1,.7,3.6v14.5a8.9,8.9,0,0,1-.7,3.7,7.7,7.7,0,0,1-1.8,2.6,7.9,7.9,0,0,1-2.6,1.6A8.2,8.2,0,0,1,144.4,159.1Zm0-25.8a2.6,2.6,0,0,0-2.7,3v14.5a2.8,2.8,0,0,0,.8,2.2,3,3,0,0,0,3.9,0,2.8,2.8,0,0,0,.8-2.2V136.3a2.9,2.9,0,0,0-.8-2.2A2.8,2.8,0,0,0,144.4,133.4Z"/>
<path class="text" d="M170.1,158.9H156.7a.4.4,0,0,1-.4-.4V128.7a.4.4,0,0,1,.4-.4h4.4a.4.4,0,0,1,.4.4v24.5a.3.3,0,0,0,.3.3h8.3a.4.4,0,0,1,.4.4v4.5A.4.4,0,0,1,170.1,158.9Z"/>
<rect class="text" x="173.8" y="140.9" width="9.9" height="5.39" rx="0.1" ry="0.1"/>
<rect class="text" y="140.9" width="9.9" height="5.39" rx="0.1" ry="0.1"/>
<path class="b" d="M91.9,17.3a78.2,78.2,0,0,0-18.1,2.1,69.1,69.1,0,0,0-16.5,6.2,2.6,2.6,0,0,0-1.4,2c-.2,1.7-.4,3.3-.5,4.9s-.2,3.3-.2,4.9A71.3,71.3,0,0,0,64.7,73,70.2,70.2,0,0,0,90.6,98.9a2.5,2.5,0,0,0,2.5,0A70.2,70.2,0,0,0,119.1,73a71.3,71.3,0,0,0,9.5-35.6c0-1.6-.1-3.2-.2-4.9s-.3-3.3-.5-4.9h0a2.6,2.6,0,0,0-1.4-2A69.2,69.2,0,0,0,110,19.4,78.3,78.3,0,0,0,91.9,17.3Z"/>
<path class="c" d="M47.9,66.3,40.5,83.1h-.2a57.2,57.2,0,0,1-6-25.7h0L47.1,64A1.8,1.8,0,0,1,47.9,66.3Zm86.6-35.5c.1,1.9.2,3.7.2,5.5a79.7,79.7,0,0,1-2.7,20.4l15.9-12A57.1,57.1,0,0,0,141.2,28l-6.9.3C134.4,29.2,134.5,30,134.6,30.9ZM69,14,71.2,3.8A57.6,57.6,0,0,0,49.9,18.2l10.4-1.3A78.4,78.4,0,0,1,69,14Zm54.3,2.9,10.4,1.3A57.6,57.6,0,0,0,112.6,3.8L114.7,14A78.3,78.3,0,0,1,123.4,16.9Zm-18-5L101,.7A57.5,57.5,0,0,0,82.7.7L78.4,12A88.7,88.7,0,0,1,105.3,12ZM49,36.3c0-1.8.1-3.6.2-5.5s.2-1.7.3-2.5L42.5,28a57.1,57.1,0,0,0-6.7,16.8l15.9,12A79.7,79.7,0,0,1,49,36.3Zm100.4,21L136.6,64a1.8,1.8,0,0,0-.8,2.3l7.4,16.8h.2a57.2,57.2,0,0,0,6-25.7ZM59.5,75.9c-1.1-1.9-2-3.8-2.9-5.7L47.1,93.6a57.7,57.7,0,0,0,19.7,15.7L80.1,99.3A78.4,78.4,0,0,1,59.5,75.9Zm30.5,30.4-9.9,7.5a57.9,57.9,0,0,0,23.5,0l-9.9-7.5A3,3,0,0,0,90.1,106.3Zm34.1-30.4a78.5,78.5,0,0,1-20.6,23.4l13.2,10.1a57.7,57.7,0,0,0,19.7-15.7l-9.5-23.4C126.2,72.2,125.3,74.1,124.2,75.9Z"/>
<path class="a" d="M112.1,50.5a.3.3,0,0,1,0,.4l-.7.9H111a15.3,15.3,0,0,0-5.2-3.9,16.1,16.1,0,0,0-6.7-1.4h-.2a16,16,0,0,0-9,2.9A14.3,14.3,0,0,0,84.5,56l-.3.2h0L84,56l-.4-1.7a.6.6,0,0,1,.1-.4,15.6,15.6,0,0,1,1.5-2.3A16.5,16.5,0,0,1,88.8,48a17.8,17.8,0,0,1,10-3.2h.2a17.9,17.9,0,0,1,7.4,1.6A17.1,17.1,0,0,1,112.1,50.5Zm.7-3.3h0a20.6,20.6,0,0,0-13.8-5.2h-.3a21.1,21.1,0,0,0-10.1,2.7,19.4,19.4,0,0,0-7,6.7.3.3,0,0,0,0,.2V52l.9.5h.4a17.7,17.7,0,0,1,6.4-6.1,19.4,19.4,0,0,1,9.3-2.5h.3a18.9,18.9,0,0,1,13.5,5.5h.3a.3.3,0,0,0,.2-.3V47.6A.5.5,0,0,0,112.9,47.2Zm0-3.6a24.1,24.1,0,0,0-13.7-4.3h-.3a24.1,24.1,0,0,0-11.9,3.3,22.1,22.1,0,0,0-8,8.1.3.3,0,0,0,0,.3l.3.2h1.1l.4-.2a20.5,20.5,0,0,1,7.1-6.9A22.4,22.4,0,0,1,98.8,41h.3a22.2,22.2,0,0,1,13.5,4.5h.3a.3.3,0,0,0,.2-.3V44A.5.5,0,0,0,112.8,43.6Zm-13.7-7h-.4a27.3,27.3,0,0,0-13.3,3.6,25.1,25.1,0,0,0-8.8,8.5.4.4,0,0,0,0,.5l.6.8h.5a23.3,23.3,0,0,1,8.5-8.3,25.6,25.6,0,0,1,12.5-3.4h.3A25.3,25.3,0,0,1,112.5,42h.4l.8-.7a.3.3,0,0,0,.1-.3v-.2A27,27,0,0,0,99.2,36.6ZM114.5,38a30.2,30.2,0,0,0-15.3-4.1h-.4a30.4,30.4,0,0,0-14.3,3.7,28.2,28.2,0,0,0-9.8,8.9.5.5,0,0,0,0,.5l.7.8h.5a26.4,26.4,0,0,1,9.4-8.7,28.7,28.7,0,0,1,13.4-3.5h.4a28.5,28.5,0,0,1,14.7,4h.3l.2-.2.3-1.1A.3.3,0,0,0,114.5,38ZM98.6,32.9h.3a.3.3,0,0,0,0-.3l-.4-.9a.5.5,0,0,0-.5-.3h0a33.7,33.7,0,0,0-14,3.6,31.3,31.3,0,0,0-10.8,9,.5.5,0,0,0-.1.5l.5,1,.2.2h.3A30.7,30.7,0,0,1,98.6,32.9Zm7,.6a31.2,31.2,0,0,1,8.4,3h.3a.3.3,0,0,0,.1-.3l-.3-1.3a.5.5,0,0,0-.3-.3,33,33,0,0,0-6.7-2.4h-.4l-1.2.8a.3.3,0,0,0-.1.3l.2.2ZM83.2,34a34.4,34.4,0,0,1,7.2-2.7,35.5,35.5,0,0,1,7.7-1.1l.3-.2a.3.3,0,0,0,0-.3l-.6-1a.5.5,0,0,0-.5-.2,37.2,37.2,0,0,0-7.3,1.1,36.1,36.1,0,0,0-7.6,2.9,34.3,34.3,0,0,0-11.7,9.9.3.3,0,0,0,0,.3l.2.2,1,.4h.4A32.6,32.6,0,0,1,83.2,34Zm-3.8-1A37.1,37.1,0,0,1,92,28.1l.2-.2a.3.3,0,0,0-.1-.3l-1-.9h-.4a38.8,38.8,0,0,0-12.2,4.9,36.7,36.7,0,0,0-9.3,8.1.5.5,0,0,0-.1.4l.2,1.4.2.2h.3A34.9,34.9,0,0,1,79.4,32.9ZM70,36.8h.3A39.3,39.3,0,0,1,87.7,26.3l.2-.2a.3.3,0,0,0-.1-.3l-.7-.8a.5.5,0,0,0-.5-.1,41.1,41.1,0,0,0-16.9,10,.5.5,0,0,0-.1.4l.2,1.3Zm.9-6.6v.2l.9.7h.4a42.3,42.3,0,0,1,10.3-6,.3.3,0,0,0,.2-.3.3.3,0,0,0-.2-.3l-1.5-.5h-.4A44,44,0,0,0,71,30Zm-.7-1.2h.3a45,45,0,0,1,4.7-3.2.3.3,0,0,0,.1-.3l-.2-.2-1.3-.4h-.4L70,27.3a.5.5,0,0,0-.2.5l.2,1.1ZM100.4,59h0a2.4,2.4,0,0,0-1.4-.5h0a2.2,2.2,0,0,0-2.3,2.2,2.4,2.4,0,0,0,.7,1.5l3.5,3.2h.4l1-.6v-.2a.3.3,0,0,0-.1-.3c-1.4-1.2-3.7-3.3-3.7-3.3l-.2-.4a.6.6,0,0,1,.6-.5h.4l3.2,2.8h.3l.2-.2.4-1.1a.3.3,0,0,0-.1-.3Zm2.2-1.9A5.6,5.6,0,0,0,99,55.7h-.2a5.4,5.4,0,0,0-3.7,1.5,4.8,4.8,0,0,0-1.5,3.5,4.7,4.7,0,0,0,1.1,2.9,21.9,21.9,0,0,0,6.6,5.4h.3a.3.3,0,0,0,.1-.3l-.4-1.5v-.2A20,20,0,0,1,96,62.6a3.1,3.1,0,0,1-.7-1.9,3.1,3.1,0,0,1,1-2.3,3.7,3.7,0,0,1,2.5-1H99a3.8,3.8,0,0,1,2.5,1l2.8,2.5h.4l.9-.7V60a.3.3,0,0,0-.1-.2Zm1.9-2.1a7.2,7.2,0,0,0-1.6-1.1,8.7,8.7,0,0,0-3.9-.9h-.1a8.5,8.5,0,0,0-5.8,2.3,7.4,7.4,0,0,0-2.3,5.5,7.3,7.3,0,0,0,1.6,4.4,24.3,24.3,0,0,0,5.6,5.2h.3l1.2-.5.2-.2a.3.3,0,0,0-.1-.3,22.8,22.8,0,0,1-5.8-5.2,5.6,5.6,0,0,1-1.2-3.4,5.7,5.7,0,0,1,1.9-4.3,6.8,6.8,0,0,1,4.6-1.8h.1a7,7,0,0,1,3.1.7l1.2.9,3,2.8h.3a.3.3,0,0,0,.2-.2V57.4a.5.5,0,0,0-.1-.4ZM99,50.3h-.2A11.5,11.5,0,0,0,91,53.4a10,10,0,0,0-3.2,7.4,9.9,9.9,0,0,0,2.1,5.9A27.1,27.1,0,0,0,96,72.5h.3l.2-.2.3-1.1a.3.3,0,0,0-.1-.3,25.6,25.6,0,0,1-5.5-5.2,8.2,8.2,0,0,1-1.7-4.9,8.3,8.3,0,0,1,2.7-6.2A9.8,9.8,0,0,1,98.8,52H99a9.8,9.8,0,0,1,7.1,3h.5l.6-.9a.4.4,0,0,0-.1-.4A11.6,11.6,0,0,0,99,50.3Zm0-2.7h-.2a14.5,14.5,0,0,0-9.9,4,12.6,12.6,0,0,0-4,9.4,12.4,12.4,0,0,0,2.6,7.5A30.2,30.2,0,0,0,96.3,76h.4l.8-.8a.3.3,0,0,0,.1-.3v-.2a28.6,28.6,0,0,1-8.5-7.5,10.8,10.8,0,0,1-2.3-6.5,10.9,10.9,0,0,1,3.5-8.1,12.8,12.8,0,0,1,8.7-3.5H99a13,13,0,0,1,8.8,3.4h.4l1-.6v-.2a.3.3,0,0,0-.1-.3A14.6,14.6,0,0,0,99,47.5ZM95.2,78.7h.4l.5-.9a.3.3,0,0,0-.1-.4,32,32,0,0,1-9.6-8.5h-.3l-.2.2-.3,1.3a.5.5,0,0,0,.1.4A34,34,0,0,0,95.2,78.7ZM97,82.7h.1V81.2a.3.3,0,0,0-.2-.3A35.4,35.4,0,0,1,87.3,74H87a.3.3,0,0,0-.2.3v1.5a.5.5,0,0,0,.2.4,37.3,37.3,0,0,0,9.8,6.6Zm-7.3-2.8-.2.2-.2,1.1a.5.5,0,0,0,.2.5,41.3,41.3,0,0,0,6.1,3.5h.3V83.8a.3.3,0,0,0-.2-.3A39.4,39.4,0,0,1,90,80Zm8.9,9.5h.2a.3.3,0,0,0,0-.3l-.9-1.5h-.2a42.7,42.7,0,0,1-8-4.2h-.3a.3.3,0,0,0-.1.3v1.3a.5.5,0,0,0,.2.4,44.5,44.5,0,0,0,8.9,4.3Zm-6.8-1.8h-.3a.3.3,0,0,0-.1.3l.5,1.4.3.3a48.1,48.1,0,0,0,6.3,2.6h.4l1.4-.7a.3.3,0,0,0,0-.5A46.2,46.2,0,0,1,91.7,87.7Z"/>
<path class="year" d="M107.6,66.9v3.9h-.9V67.9l-.7.3a1.2,1.2,0,0,1-.3-.8l1.2-.5h.7Z"/>
<path class="year" d="M111.1,68.7c0,1.6-.9,2.2-2.4,2.2a1,1,0,0,1-.1-.5,1.3,1.3,0,0,1,0-.3c.9,0,1.5-.1,1.6-.9a1,1,0,0,1-.7.3,1.2,1.2,0,0,1-1.3-1.3,1.4,1.4,0,0,1,1.4-1.4C110.6,66.8,111.1,67.6,111.1,68.7Zm-1.5,0,.7-.2c0-.6-.3-1-.7-1a.5.5,0,0,0-.6.6A.5.5,0,0,0,109.6,68.8Z"/>
<path class="year" d="M113.3,66.9v3.9h-.9V67.9l-.7.3a1.2,1.2,0,0,1-.3-.8l1.2-.5h.7Z"/>
<path class="year" d="M116.9,69.5a1.3,1.3,0,0,1-1.5,1.4,1.4,1.4,0,0,1-1.5-1.6,2.6,2.6,0,0,1,2.3-2.6,1.3,1.3,0,0,1,.2.8,1.8,1.8,0,0,0-1.6,1l.7-.2A1.1,1.1,0,0,1,116.9,69.5Zm-.8,0a.5.5,0,0,0-.6-.5l-.7.2h0c0,.5.3.8.6.8A.5.5,0,0,0,116.1,69.6Z"/>
</svg>