<svg height="326.164037" viewBox="0 0 94.482002 100" width="306.594194" xmlns="http://www.w3.org/2000/svg" xmlns:xlink="http://www.w3.org/1999/xlink"><linearGradient id="a"><stop offset="0" stop-color="#003768"/><stop offset="1" stop-color="#003768"/></linearGradient><radialGradient id="b" cx="0" cy="0" gradientTransform="matrix(60.112 0 0 -60.112 58.475 795.822)" gradientUnits="userSpaceOnUse" r="1" spreadMethod="pad" xlink:href="#a"/><radialGradient id="c" cx="0" cy="0" gradientTransform="matrix(54.919 0 0 -54.919 63.205 795.822)" gradientUnits="userSpaceOnUse" r="1" spreadMethod="pad" xlink:href="#a"/><radialGradient id="d" cx="0" cy="0" gradientTransform="matrix(40.006 0 0 -40.006 88.632 801.33)" gradientUnits="userSpaceOnUse" r="1" spreadMethod="pad" xlink:href="#a"/><radialGradient id="e" cx="0" cy="0" gradientTransform="matrix(40.016 0 0 -40.016 88.633 801.332)" gradientUnits="userSpaceOnUse" r="1" spreadMethod="pad" xlink:href="#a"/><radialGradient id="f" cx="0" cy="0" gradientTransform="matrix(40.046 0 0 -40.046 88.633 801.336)" gradientUnits="userSpaceOnUse" r="1" spreadMethod="pad" xlink:href="#a"/><radialGradient id="g" cx="0" cy="0" gradientTransform="matrix(40.013 0 0 -40.013 88.633 801.332)" gradientUnits="userSpaceOnUse" r="1" spreadMethod="pad" xlink:href="#a"/><radialGradient id="h" cx="0" cy="0" gradientTransform="matrix(40.013 0 0 -40.013 88.633 801.331)" gradientUnits="userSpaceOnUse" r="1" spreadMethod="pad" xlink:href="#a"/><radialGradient id="i" cx="0" cy="0" gradientTransform="matrix(39.993 0 0 -39.993 88.634 801.328)" gradientUnits="userSpaceOnUse" r="1" spreadMethod="pad" xlink:href="#a"/><radialGradient id="j" cx="0" cy="0" gradientTransform="matrix(39.994 0 0 -39.994 88.636 801.33)" gradientUnits="userSpaceOnUse" r="1" spreadMethod="pad" xlink:href="#a"/><radialGradient id="k" cx="0" cy="0" gradientTransform="matrix(40.007 0 0 -40.007 88.634 801.33)" gradientUnits="userSpaceOnUse" r="1" spreadMethod="pad" xlink:href="#a"/><radialGradient id="l" cx="0" cy="0" gradientTransform="matrix(39.989 0 0 -39.989 88.634 801.326)" gradientUnits="userSpaceOnUse" r="1" spreadMethod="pad" xlink:href="#a"/><radialGradient id="m" cx="0" cy="0" gradientTransform="matrix(39.985 0 0 -39.985 88.633 801.324)" gradientUnits="userSpaceOnUse" r="1" spreadMethod="pad" xlink:href="#a"/><radialGradient id="n" cx="0" cy="0" gradientTransform="matrix(41.355 0 0 -41.355 88.581 801.789)" gradientUnits="userSpaceOnUse" r="1" spreadMethod="pad" xlink:href="#a"/><linearGradient id="o" gradientTransform="matrix(5.8261 -102.51 -102.51 -5.8261 56.996 804.46)" gradientUnits="userSpaceOnUse" spreadMethod="pad" x1="0" x2="1" y1="0" y2="0"><stop offset="0" stop-color="#fff"/><stop offset="1" stop-color="#0095d5"/></linearGradient><linearGradient id="p"><stop offset="0" stop-color="#fff200"/><stop offset="1" stop-color="#004e1e"/></linearGradient><radialGradient id="q" cx="0" cy="0" gradientTransform="matrix(40.245 0 0 -40.245 60.895 770.746)" gradientUnits="userSpaceOnUse" r="1" spreadMethod="pad" xlink:href="#p"/><radialGradient id="r" cx="0" cy="0" gradientTransform="matrix(40.244 0 0 -40.244 60.897 770.745)" gradientUnits="userSpaceOnUse" r="1" spreadMethod="pad" xlink:href="#p"/><radialGradient id="s" cx="0" cy="0" gradientTransform="matrix(40.458 0 0 -40.458 91.743 745.08)" gradientUnits="userSpaceOnUse" r="1" spreadMethod="pad"><stop offset="0" stop-color="#004e1e"/><stop offset="1" stop-color="#fff200"/></radialGradient><linearGradient id="t"><stop offset="0" stop-color="#bf3831"/><stop offset="1" stop-color="#f7931d"/></linearGradient><linearGradient id="u" gradientTransform="matrix(25.498 9.5911 9.5911 -25.498 66.263 752.016)" gradientUnits="userSpaceOnUse" spreadMethod="pad" x1="0" x2="1" xlink:href="#t" y1="0" y2="0"/><linearGradient id="v" gradientTransform="matrix(-5.8718 3.9244 3.9244 5.8718 58.009 755.301)" gradientUnits="userSpaceOnUse" spreadMethod="pad" x1="0" x2="1" xlink:href="#t" y1="0" y2="0"/><linearGradient id="w"><stop offset="0" stop-color="#0095d5"/><stop offset="1" stop-color="#262261"/></linearGradient><radialGradient id="x" cx="0" cy="0" gradientTransform="matrix(1.6527 0 0 -1.6527 53.432 759.195)" gradientUnits="userSpaceOnUse" r="1" spreadMethod="pad" xlink:href="#w"/><linearGradient id="y" gradientTransform="matrix(-12.828 -.000001 -.000001 12.828 60.45 755.981)" gradientUnits="userSpaceOnUse" spreadMethod="pad" x1="0" x2="1" xlink:href="#t" y1="0" y2="0"/><radialGradient id="z" cx="0" cy="0" gradientTransform="matrix(26.776 0 0 -26.776 58.694 786.373)" gradientUnits="userSpaceOnUse" r="1" spreadMethod="pad" xlink:href="#p"/><linearGradient id="A" gradientTransform="matrix(31.021 0 0 -31.021 31.056 792.686)" gradientUnits="userSpaceOnUse" spreadMethod="pad" x1="0" x2="1" xlink:href="#w" y1="0" y2="0"/><radialGradient id="B" cx="0" cy="0" gradientTransform="matrix(12.392 0 0 -12.392 57.561 790.424)" gradientUnits="userSpaceOnUse" r="1" spreadMethod="pad" xlink:href="#p"/><linearGradient id="C" gradientTransform="matrix(13.222 0 0 -13.222 61.706 785.252)" gradientUnits="userSpaceOnUse" spreadMethod="pad" x1="0" x2="1" xlink:href="#w" y1="0" y2="0"/><radialGradient id="D" cx="0" cy="0" gradientTransform="matrix(26.278 0 0 -26.278 30.326 751.332)" gradientUnits="userSpaceOnUse" r="1" spreadMethod="pad" xlink:href="#p"/><radialGradient id="E" cx="0" cy="0" gradientTransform="matrix(26.278 0 0 -26.278 30.326 751.333)" gradientUnits="userSpaceOnUse" r="1" spreadMethod="pad" xlink:href="#p"/><g transform="matrix(1.21887515 0 0 -1.21887515 -36.3219575 982.86122125)"><path d="m0 0c-3.461 0-6.278 2.818-6.278 6.278v74.124h60.83c5.359 0 9.72-4.362 9.72-9.72v-70.682z" fill="#fff" transform="translate(36.898 725.145)"/><path d="m36.898 727.046h62.37v49.354c-5.008-24.424-26.621-42.791-52.525-42.791h-14.222v-2.186c0-2.419 1.958-4.377 4.377-4.377" fill="url(#b)"/><path d="m91.834 786.723c.299-2.305.458-4.657.458-7.055 0-10.898-3.206-20.986-8.647-29.203 9.622 10.2 15.623 24.654 15.623 40.682-1.529-2.552-4.273-4.291-7.434-4.424" fill="url(#c)"/><path d="m97.365 796.14s-.277-1.019-.472-1.399c0 0 1.167-.034 1.082-1.356-.664-1.776-2.035-3.209-3.767-3.955-.975-.28-1.48.262-1.48.262-.137-.133-1.05-.506-1.05-.506 1.385-.055 2.058.074 2.131.089l.078.026-.063-.023-.015-.003c-.735-.266-1.529-.414-2.36-.414-3.841 0-6.961 3.121-6.961 6.966 0 .313.022.62.063.926.007-.11.084-1.237.428-2.197 0 0 .17.868.31 1.152 0 0-.931.506-.436 2.342.473 1.418 1.396 2.629 2.593 3.475v-.004c1.676.717 1.976-.742 1.976-.742.35.296 1.259.809 1.259.809-1.766.372-1.847.694-1.847.694.809.329 1.688.51 2.615.51 1.548 0 2.977-.506 4.129-1.356-.063-.24-.709-.232-.709-.232 1.042-.794 1.222-1.016 1.222-1.016-.136.687-.007.839-.007.839 1.429-1.275 2.335-3.132 2.335-5.2 0-.418-.042-.828-.111-1.227-.023-.037-.201-.24-.943 1.54zm-5.916 7.505c-4.317 0-7.818-3.501-7.818-7.818 0-4.318 3.501-7.819 7.818-7.819 4.318 0 7.819 3.501 7.819 7.819 0 4.317-3.501 7.818-7.819 7.818" fill="url(#d)"/><path d="m90.943 800.255c-.834.144-1.485.284-1.485.284.1-1.813-1.193-3.32-1.193-3.32.153-.071 1.489-.284 1.489-.284-.506 2.308 1.189 3.32 1.189 3.32" fill="url(#e)"/><path d="m88.465 795.413s-.247.668-.439 1.484c0 0-1.437-1.65-2.534-1.234 0 0 .14-.689.462-1.513 0 0 .406 1.488 2.511 1.263" fill="url(#f)"/><path d="m89.858 796.599c-.288-.367-1.049-1.252-1.049-1.252 2.141-.433 2.94-2.32 2.94-2.32.343.387 1.004 1.193 1.004 1.193-2.267.38-2.895 2.379-2.895 2.379" fill="url(#g)"/><path d="m94.851 800.144c-.141.923-.214 1.041-.214 1.041-1.822 0-3.656.351-3.656.351.202-.931.195-1.119.195-1.119 1.821 1.122 3.675-.273 3.675-.273" fill="url(#h)"/><path d="m85.854 793.873c-.236.059-.779.35-.779.35.54-1.806 1.311-3.091 1.311-3.091.225-.173.717-.302.717-.302-1.641 1.573-1.249 3.043-1.249 3.043" fill="url(#i)"/><path d="m96.136 799.941-.008.033h-.033c-.273.003-.923-.03-.93-.03l-.111-.003.085-.078c1.629-1.452 1.048-3.428 1.041-3.45l-.018-.061.066.003.994.066.062.004-.022.058c-.682 1.885-1.123 3.443-1.126 3.458" fill="url(#j)"/><path d="m93.155 794.198c.075-.214.544-1.367.544-1.367 1.507 1.766 2.928 1.899 2.928 1.899-.155.645-.517 1.351-.517 1.351-.997-2.13-2.955-1.883-2.955-1.883" fill="url(#k)"/><path d="m91.103 789.984c.516-.122 1.513-.141 1.513-.141-.454 1.304.868 2.693.868 2.693-.683-.004-1.581.159-1.581.159.691-1.965-.8-2.711-.8-2.711" fill="url(#l)"/><path d="m87.502 790.53c.166-.391.372-.612.372-.612.96-.469 3.416-.703 3.416-.703-.162.175-.48.628-.48.628-1.905-.601-3.308.687-3.308.687" fill="url(#m)"/><path d="m93.887 789.301-.078-.026.015.003z" fill="url(#n)"/><g fill="#fff"><path d="m0 0c-.236-.057-.499-.123-.92-.123-.827 0-1.784.415-1.784 1.59 0 1.078.754 1.614 1.777 1.614.318 0 .624-.07.924-.157l-.067-.671c-.269.145-.525.215-.813.215-.583 0-.968-.421-.968-1.001 0-.607.429-.979 1.039-.979.269 0 .542.072.771.159z" transform="translate(91.922 728.852)"/><path d="m0 0c0-.845-.546-1.228-1.359-1.228-.809 0-1.359.383-1.359 1.228v1.924h.827v-1.783c0-.411.111-.758.532-.758.425 0 .532.347.532.758v1.783h.827z" transform="translate(95.083 729.957)"/><path d="m0 0h.21c.285 0 .51.102.51.424 0 .318-.225.422-.51.422h-.21zm-.831 1.429h.986c.949 0 1.392-.317 1.392-1.015 0-.624-.458-.999-1.233-.999h-.314v-1.084h-.831z" transform="translate(96.513 730.452)"/><path d="m0 0c-.235-.057-.498-.123-.919-.123-.828 0-1.781.417-1.781 1.59 0 1.078.755 1.616 1.775 1.616.316 0 .623-.07.92-.159l-.066-.671c-.268.146-.525.217-.808.217-.587 0-.97-.427-.97-1.003 0-.61.43-.977 1.035-.977.272 0 .547.07.773.159z" transform="translate(47.655 728.852)"/><path d="m0 0c.501 0 .702.478.702.99 0 .538-.201.99-.702.99s-.702-.452-.702-.99c0-.512.201-.99.702-.99zm0 2.593c1.022 0 1.554-.607 1.554-1.603 0-.986-.541-1.603-1.554-1.603s-1.555.617-1.555 1.603c0 .996.533 1.603 1.555 1.603" transform="translate(49.605 729.342)"/><path d="m0 0h1.051l1.05-2.105h.008l-.013 2.105h.755v-3.1h-1.026l-1.083 2.118h-.01l.027-2.118h-.759z" transform="translate(51.769 731.883)"/><path d="m0 0h2.073v-.587h-1.247v-.679h1.195v-.586h-1.195v-1.248h-.826z" transform="translate(55.323 731.883)"/><path d="m0 0h2.184v-.587h-1.358v-.639h1.283v-.587h-1.283v-.702h1.409v-.585h-2.235z" transform="translate(57.927 731.883)"/><path d="m0 0h.321c.619 0 .964.321.964.937 0 .619-.358.938-.964.938h-.321zm-.825 2.488h1.127c1.081 0 1.837-.339 1.837-1.536 0-1.162-.78-1.564-1.837-1.564h-1.127z" transform="translate(61.621 729.395)"/><path d="m0 0h2.183v-.587h-1.359v-.639h1.284v-.587h-1.284v-.702h1.41v-.585h-2.234z" transform="translate(64.365 731.883)"/><path d="m0 0h.218c.266 0 .606.009.606.359 0 .288-.29.342-.606.342h-.218zm-.823 1.288h1.473c.55 0 .999-.249.999-.783 0-.413-.195-.688-.596-.781v-.009c.265-.07.284-.307.439-.683l.303-.844h-.86l-.18.559c-.168.532-.275.665-.582.665h-.173v-1.224h-.823z" transform="translate(68.036 730.595)"/><path d="m0 0h-.007l-.399-1.211h.776zm-.506.641h1.014l1.194-3.1h-.906l-.231.661h-1.164l-.242-.661h-.842z" transform="translate(71.757 731.242)"/><path d="m0 0h-.765v.613h2.353v-.613h-.763v-2.487h-.825z" transform="translate(74.151 731.27)"/><path d="m76.259 728.783h.8252v3.1001h-.8252z"/><path d="m0 0c.502 0 .702.478.702.99 0 .538-.2.99-.702.99s-.701-.452-.701-.99c0-.512.199-.99.701-.99zm0 2.593c1.019 0 1.553-.607 1.553-1.603 0-.986-.54-1.603-1.553-1.603-1.014 0-1.555.617-1.555 1.603 0 .996.532 1.603 1.555 1.603" transform="translate(79.276 729.342)"/><path d="m0 0h1.053l1.045-2.105h.011l-.014 2.105h.757v-3.1h-1.027l-1.082 2.118h-.012l.028-2.118h-.759z" transform="translate(81.44 731.883)"/><path d="m0 0c.214-.114.511-.203.853-.203.264 0 .511.053.511.302 0 .577-1.464.213-1.464 1.342 0 .744.728.949 1.348.949.299 0 .591-.044.801-.115l-.055-.64c-.21.1-.451.142-.687.142-.21 0-.555-.017-.555-.288 0-.502 1.464-.164 1.464-1.284 0-.802-.673-1.021-1.363-1.021-.288 0-.646.044-.923.133z" transform="translate(85.023 729.545)"/><path d="m0 0v-7.257h2.286v2.623h1.592l.624 1.588h-2.216v1.474h2.692l.595 1.572z" fill-rule="evenodd" transform="translate(75.935 740.877)"/><path d="m0 0-.003-7.257h2.264v7.257z" fill-rule="evenodd" transform="translate(82.246 740.877)"/><path d="m0 0-.873-3.021h1.774zm-1.138 1.865-2.607-7.254h2.182l.285.979h2.548l.299-.979h2.253l-2.607 7.254z" fill-rule="evenodd" transform="translate(94.168 738.998)"/><path d="m0 0v-7.257h2.29v2.623h1.588l.625 1.588h-2.213v1.474h2.688l.591 1.572z" fill-rule="evenodd" transform="translate(86.12 740.877)"/></g><path d="m78.267 765.69s6.965 3.469 7.659 14.799c-1.178 4.018-3.106 7.766-5.65 11.113-5.023 6.606-13.816 12.039-22.849 12.039h-24.907v-60.371c1.734-1.231 6.648-4.097 14.157-3.439-1.903-.461-9.097-1.343-14.157.522v-5.104h14.227c20.781 0 37.898 13.964 40.217 31.944-.669-4.135-3.066-8.359-10.518-12.27-8.697-4.557-17.076-3.71-18.561-.529s2.759 6.205 2.759 6.205-7.634-8.113 7.423-6.734c14.007 2.247 18.959 15.007 19.093 15.369v.002c.047.703.073 1.412.073 2.127 0 1.836-.154 3.64-.454 5.403-.687-3.272-2.689-8.272-8.512-11.076" fill="url(#o)"/><path d="m60.592 746.354c-4.454 1.593-6.482-.125-6.482-.125-4.003-4.775-14.078-2.624-21.59 6.917v-.862l.006-.007v-5.272l-.006.004v-3.739c1.734-1.231 6.648-4.097 14.157-3.439-1.903-.461-9.097-1.343-14.157.522v-5.102h14.227c14.2 0 26.688 6.522 33.913 16.39-6.467-7.159-15.617-6.878-20.068-5.287" fill="url(#q)"/><path d="m68.067 753.865c13.982 2.243 18.937 14.959 19.093 15.367.047.703.073 1.415.073 2.131 0 1.838-.154 3.64-.454 5.405-.687-3.273-2.689-8.274-8.512-11.078 0 0 6.965 3.47 7.659 14.801-1.178 4.02-3.106 7.767-5.65 11.112-2.043 2.686-4.709 5.178-7.76 7.191 7.701-20.636-1.864-32.974-2.429-33.377 8.786 15.696 2.496 29.9-.476 35.083-3.767 1.95-7.948 3.143-12.184 3.143h-8.575c4.778-2.586 17.919-11.198 19.197-28.294.032-.405.066-.79-.03-.005-.503 4.264-3.531 18.723-21.598 28.299h-12.928c4.176-1.244 20.761-6.91 28.813-20.442 2.175-4.361 5.576-13.952-1.197-22.066-.151-.179-.306-.358-.465-.536 0 0-7.634-8.113 7.423-6.734" fill="url(#r)"/><path d="m67.838 752.013c-5.045-.786-8.978.298-9.953 2.381-1.485 3.181 2.759 6.205 2.759 6.205.159.178.314.357.465.536-1.133.168-2.278.391-3.431.69 0 0-6.844 1.799-7.996-3.534-.125-.395-.447-1.23-.964-1.551-1.037-.343-2.551-.979-2.733-1.795.359.051 1.973.271 3.398.328.107-.076.226-.169.348-.263l1.226-1.404s6.777-7.307 15.972-7.475c-4.239 2.144-1.033 4.7.909 5.882" fill="url(#s)"/><path d="m76.446 754.923c-2.999-1.57-5.956-2.499-8.608-2.91-1.942-1.182-5.148-3.738-.909-5.882 4.298-.079 9.122 1.405 14.037 5.925 3.195 4.492 5.304 9.661 6.009 15.205-.65-4.154-3.036-8.405-10.529-12.338" fill="url(#u)"/><path d="m51.932 757.748s-.152 2.625 2.519 1.545c0 0 .28-2.472-2.519-1.545" fill="url(#v)"/><path d="m52.131 757.876s-.125 2.209 2.119 1.3c0 0 .237-2.081-2.119-1.3" fill="url(#x)"/><path d="m49.679 757.079s-3.59-.863-3.76-2.197c0 0 3.601.534 5.145.284 0 0-.543.333.133.537 0 0-4.901.007-1.518 1.376" fill="url(#y)"/><path d="m51.278 791.41c-8.24 3.096-16.315-1.533-18.758-3.142v6.194c12.941 1.106 18.758-3.052 18.758-3.052" fill="url(#z)"/><path d="m62.077 782.708s-6.149 12.826-29.557 19.956v-7.545c3.077.355 19.438 1.518 29.557-12.411" fill="url(#A)"/><path d="m67.941 776.522c.016-.116.019-.177.019-.177.728 13.829-9.466 24.534-12.383 27.298h-6.725c4.667-2.526 17.313-10.802 19.089-27.121" fill="url(#B)"/><path d="m0 0h-2.431c18.068-9.577 21.095-24.035 21.598-28.299.097-.785.063-.401.03.005-1.278 17.096-14.418 25.708-19.197 28.294" fill="#fff" transform="translate(48.852 803.643)"/><path d="m71.147 767.463c7.186 14.874 1.307 28.084-1.536 33.037-2.183 1.13-4.502 2.004-6.888 2.541 3.601-3.32 15.175-15.921 8.424-35.578" fill="url(#C)"/><path d="m0 0c.565.402 10.13 12.741 2.429 33.376-.934.617-1.905 1.19-2.905 1.707 2.968-5.178 9.262-19.386.476-35.083" fill="#fff" transform="translate(70.087 765.417)"/><path d="m0 0c-.746 2.545-1.794 4.982-3.109 7.277.868-2.685 3.601-12.952-2.186-20.266 2.094 2.05 4.875 6.042 5.295 12.989" fill="#004e1e" transform="translate(85.926 780.494)"/><path d="m0 0c-.214 1.263-.502 2.507-.857 3.725-.69-11.337-7.659-14.807-7.659-14.807 5.828 2.805 7.83 7.811 8.516 11.082" fill="#fff" transform="translate(86.783 776.772)"/><path d="m0 0c-15.057-1.379-7.424 6.734-7.424 6.734s-4.243-3.024-2.759-6.204c1.485-3.182 9.865-4.029 18.561.529 7.494 3.933 9.88 8.183 10.53 12.337.081.655.14 1.312.184 1.974-.133-.363-5.085-13.123-19.092-15.37" fill="#fff" transform="translate(68.067 753.865)"/><path d="m0 0c-.254-1.447-.805-2.642-1.581-3.579 0 0 2.028 1.719 6.482.126 4.454-1.591 13.612-1.873 20.079 5.297.1.132.195.269.295.404-10.044-9.243-19.738-5.782-25.275-2.248" fill="#fff" transform="translate(55.691 749.807)"/><path d="m54.11 746.229c-.487-.585-1.063-1.068-1.71-1.451-7.534-4.875-18.618 5.399-19.88 7.506v-5.275c17.923-10.076 21.59-.78 21.59-.78" fill="url(#D)"/><path d="m52.4 744.778c-7.523-4.872-18.591 5.373-19.874 7.499v-5.272c17.917-10.07 21.584-.776 21.584-.776-.487-.585-1.063-1.068-1.71-1.451" fill="url(#E)"/><path d="m0 0v-2.917c5.06-1.865 12.254-.983 14.157-.522-7.509-.658-12.423 2.208-14.157 3.439" fill="#fff" transform="translate(32.52 743.27)"/><path d="m0 0c0 .608-3.789.593-3.789 1.555.085.338 2.944 2.033 2.944 3.318 0 .812-1.456.898-2.604.898-.812 0-1.237.014-1.81-.017.185.591.355 1.199.488 1.368.273.34.831.525 2.031.525 2.829 0 4.317-.896 4.317-2.504-.07-2.283-1.709-3.045-1.709-3.045.014 0 3.249-.357 3.249-2.69 0-2.471-3.604-3.133-5.635-3.133 0 0-.491.019-.562.424 1.019.862 3.08 2.773 3.08 3.301" fill="#003768" transform="translate(58.335 767.614)"/><path d="m0 0c-.339.154-.793 1.252-.793 4.554 0 2.183.117 4.569.117 4.569s-.273.507-1.558.609c0 0-.033.118-.033.288 0 .439.218 1.251 1.861 1.251.492 0 1.777.018 1.828-.32.152-.964.606-4.198.606-7.006 0-1.98-.236-3.402-.672-4.013-.052-.016-.24-.05-.391-.05-.321 0-.846.05-.965.118" fill="#003768" transform="translate(51.041 764.008)"/><path d="m0 0c-.875 0-1.47-.864-1.47-1.677 0-.78.525-1.233 1.407-1.233.913 0 1.319.71 1.319 1.42 0 .727-.444 1.49-1.256 1.49zm3.187.338c-.188-4.892-1.355-7.041-2.936-7.041-3.583 0-3.8 7.194-3.8 7.225-.018.102-.018.205-.018.323 0 2.623 1.942 3.79 3.944 3.79 2.4 0 2.825-2.063 2.825-3.756 0-.185-.015-.373-.015-.541" fill="#003768" transform="translate(45.531 770.626)"/><path d="m0 0c0 .423.015.761.826 2.369 1.27 2.556 2.777 4.115 2.758 4.706-.033 1.015-1.403.982-2.285.982-.676 0-1.553-.052-2.097-.118-.084.288-.132.659-.132 1.015 0 .455.066.591.08.61.019.031.326.522 2.37.522 4.738 0 4.587-2.062 4.587-2.723 0-.525-.137-1.082-.425-1.727-1.252-2.825-2.452-4.604-2.452-4.604 1.436.237 2.603.305 4.029.305-.188-.694-.509-2.013-.983-2.13-1.761-.425-3.165-.494-4.482-.476-.308 0-1.794.22-1.794 1.269" fill="#003768" transform="translate(34.749 765.158)"/><path d="m0 0c.07-.418.196-.68 1.319-.68.24 0 .48.022.701.042-.358-.818-.701-1.361-.952-1.361-.695 0-1.802.137-2.357.166-.095.954-.273 3.205-.273 4.451 0 1.045.066 1.767.107 2.197v.072c.263.074.742.106 1.097.106.296 0 .41-.056.462-.106v-.072c-.052-.742-.178-2.714-.178-3.988 0-.357.034-.587.074-.827" fill="#007f46" transform="translate(59.872 778.072)"/><path d="m0 0c-.137.639-.273 1.717-.273 2.584 0 .743.01 1.707.176 3.476.022.082.063.765 1.079.773.147 0 .273-.023.41-.053.041-.428.092-1.222.092-2.437 0-2.596-.24-3.885-.383-4.424-.16-.045-.525-.075-.754-.075-.126 0-.266.061-.347.156" fill="#007f46" transform="translate(56.246 776.2)"/><path d="m0 0c-.879-.242-.85-.419-.857-.576-.015-.325.281-.535 1.005-1.026.93-.628 1.462-1.299 1.462-2.052 0-1.819-1.987-2.303-3.168-2.303-.577 0-1.079.085-1.375.148.119.188.296.605.598.751.377.179.692.168 1.234.578.861.639-.48 1.673-1.119 2.091-.565.38-1.074.827-1.074 1.78 0 1.34 1.347 1.623 2.614 1.623.491 0 1.005-.083 1.474-.242-.092-.155-.44-.668-.794-.772" fill="#007f46" transform="translate(53.941 782.019)"/><path d="m0 0c0-.513.388-.744.794-.744.473 0 .982.316.982.858 0 .491-.491.817-.96.817-.443 0-.816-.272-.816-.931zm-1.717-2c0 .626.177 1.645.701 3.296.517 1.643 1.164 2.628 1.714 2.628.262 0 .764-.201 1.666-1.579 1.159-1.791 1.599-4.051 1.606-5.141 0-.166 0-.291-.081-.291-.325 0-1.477.975-1.954 1.496l-.306-.229c-.007-.012-1.629-1.111-2.836-1.172-.152 0-.51.081-.51.992" fill="#007f46" transform="translate(46.739 779.036)"/><path d="m0 0c0-.566.336-.809.765-.809.468 0 1.015.337 1.015.883 0 .48-.481.772-.942.772-.428 0-.838-.251-.838-.846zm-.543-4.45c-.263 1.874-.827 4.606-.827 5.655 0 .184.051.583.136 1.188.4.074.846.159 1.234.159 2.02 0 3.224-1.141 3.224-2.241 0-.429 0-1.079-.839-1.652 0 0 1.448-.481 1.899-3.067-.141-.053-.388-.061-.517-.061-.196 0-.469.008-.628.019-.189.513-.436 1.056-.76 1.351-.233.211-.577.511-1.183.511-.336 0-.65-.071-.713-.647-.136-1.215-.679-1.153-1.026-1.215" fill="#007f46" transform="translate(40.494 780.513)"/><path d="m0 0c0-.502.389-.731.798-.731.458 0 .994.325.994.858 0 .482-.503.796-.964.796-.439 0-.828-.262-.828-.923zm-1.068 2.721c0-.502.389-.731.81-.731.458 0 .983.315.983.846 0 .482-.495.807-.968.807-.428 0-.825-.26-.825-.922zm-1.074-1.118c0 1.392.645 2.888.95 3.518 1.236-.158 3.235-.767 3.235-1.864 0-.618-.502-.982-.617-1.078.148-.063 1.736-.713 1.736-2.02 0-1.455-1.769-2.05-3.154-2.083-1.669 0-2.15 1.998-2.15 3.527" fill="#007f46" transform="translate(35.906 777.987)"/><path d="m0 0v-1.12h-.455v2.756h.455v-1.119h3.149v-.517z" fill="#231f20" transform="translate(103.039 728.166)"/><path d="m0 0v.853l2.995 1.13-2.995 1.108v.852h3.604v-.516h-3.12v-.011l3.12-1.193v-.502l-3.12-1.197v-.007h3.12v-.517z" fill="#231f20" transform="translate(102.584 730.327)"/><path d="m0 0c.58-.093.913-.513.913-1.012 0-.728-.554-1.197-1.285-1.197-.732 0-1.275.44-1.275 1.182 0 .514.31.953.876 1.027v-.425c-.285-.059-.466-.292-.466-.598 0-.491.366-.743.853-.743.507 0 .886.282.886.754 0 .318-.184.542-.502.587zm1.326-1.064c0 .883-.712 1.595-1.698 1.595-.987 0-1.699-.712-1.699-1.595s.712-1.595 1.699-1.595c.986 0 1.698.712 1.698 1.595zm-3.808 0c0 1.163.946 2.109 2.11 2.109 1.162 0 2.108-.946 2.108-2.109 0-1.16-.946-2.109-2.108-2.109-1.164 0-2.11.949-2.11 2.109" fill="#231f20" transform="translate(104.759 738.47)"/></g></svg>