<?xml version="1.0" encoding="UTF-8" standalone="no"?>
<!-- Created with Inkscape (http://www.inkscape.org/) -->

<svg
   xmlns:dc="http://purl.org/dc/elements/1.1/"
   xmlns:cc="http://creativecommons.org/ns#"
   xmlns:rdf="http://www.w3.org/1999/02/22-rdf-syntax-ns#"
   xmlns:svg="http://www.w3.org/2000/svg"
   xmlns="http://www.w3.org/2000/svg"
   xmlns:sodipodi="http://sodipodi.sourceforge.net/DTD/sodipodi-0.dtd"
   xmlns:inkscape="http://www.inkscape.org/namespaces/inkscape"
   width="20"
   height="50"
   id="svg2"
   version="1.1"
   inkscape:version="0.92.1 r15371"
   sodipodi:docname="FIFA_Confederations_Cup_(Cup).svg">
  <defs
     id="defs4" />
  <sodipodi:namedview
     id="base"
     pagecolor="#ffffff"
     bordercolor="#666666"
     borderopacity="1.0"
     inkscape:pageopacity="0.0"
     inkscape:pageshadow="2"
     inkscape:zoom="17.3"
     inkscape:cx="10"
     inkscape:cy="25"
     inkscape:document-units="px"
     inkscape:current-layer="layer1"
     showgrid="false"
     inkscape:window-width="1920"
     inkscape:window-height="1017"
     inkscape:window-x="-8"
     inkscape:window-y="-8"
     inkscape:window-maximized="1" />
  <metadata
     id="metadata7">
    <rdf:RDF>
      <cc:Work
         rdf:about="">
        <dc:format>image/svg+xml</dc:format>
        <dc:type
           rdf:resource="http://purl.org/dc/dcmitype/StillImage" />
        <dc:title></dc:title>
      </cc:Work>
    </rdf:RDF>
  </metadata>
  <g
     inkscape:label="Livello 1"
     inkscape:groupmode="layer"
     id="layer1"
     transform="translate(0,-1002.3622)">
    <path
       style="fill:#1a1a1a;stroke:#000000;stroke-width:0.07718545px;stroke-linecap:butt;stroke-linejoin:miter;stroke-opacity:1"
       d="m 1.1689482,1049.9357 0.8852204,1.2302 c 0.2237315,0.8223 4.8568766,1.1462 7.9911054,1.1578 0.05803,0 0.119122,0 0.17608,0 3.134229,-0.011 7.767374,-0.3355 7.991106,-1.1578 l 0.88522,-1.2302 h -8.876326 -0.17608 z"
       id="path3101"
       inkscape:connector-curvature="0" />
    <path
       style="fill:#003380;stroke:#002255;stroke-width:0.07793956px;stroke-linecap:butt;stroke-linejoin:miter;stroke-opacity:1"
       d="m 3.2110279,1042.9239 -2.1092398,7.09 c 0.1131377,0.8368 4.7006264,1.2797 8.9338229,1.2934 0.0674,0 0.134953,0 0.202156,0 4e-6,0 -5e-6,0 0,0 4.233364,-0.013 8.823115,-0.4565 8.936258,-1.2934 l -2.109241,-7.09 h -6.827017 -0.202156 z"
       id="path3103"
       inkscape:connector-curvature="0" />
    <circle
       id="path3109"
       style="fill:#ffdd55;stroke:#ffd42a;stroke-width:0.08282156;stroke-linecap:round;stroke-linejoin:round;stroke-miterlimit:4;stroke-dasharray:none;stroke-opacity:1"
       cx="6.4379463"
       cy="1047.2533"
       r="2.4105232" />
    <circle
       style="fill:#ffe680;stroke:#ffd42a;stroke-width:0.08282156;stroke-linecap:round;stroke-linejoin:round;stroke-miterlimit:4;stroke-dasharray:none;stroke-opacity:1"
       id="path3105"
       cx="6.3015008"
       cy="1047.0583"
       r="2.4105232" />
    <circle
       style="fill:#ffdd55;stroke:#ffd42a;stroke-width:0.06477123;stroke-linecap:round;stroke-linejoin:round;stroke-miterlimit:4;stroke-dasharray:none;stroke-opacity:1"
       id="path3111"
       cx="6.3015008"
       cy="1047.0985"
       r="1.885168" />
    <circle
       id="path3107"
       style="fill:#ffe680;stroke:#ffd42a;stroke-width:0.06477123;stroke-linecap:round;stroke-linejoin:round;stroke-miterlimit:4;stroke-dasharray:none;stroke-opacity:1"
       cx="6.1553092"
       cy="1046.9524"
       r="1.885168" />
    <path
       style="fill:#ffe680;stroke:#ffd42a;stroke-width:0.07718545px;stroke-linecap:butt;stroke-linejoin:miter;stroke-opacity:1"
       d="m 2.753908,1044.4447 c -0.2213123,1.3951 -0.6550667,2.6627 -1.1500439,3.8936 -0.1575847,-0.091 -0.2862861,-0.2128 -0.2801243,-0.4852 l 0.9331157,-3.1891 c 0.1298737,-0.2521 0.3133435,-0.2362 0.4970525,-0.2193 z"
       id="path3113"
       inkscape:connector-curvature="0"
       sodipodi:nodetypes="ccccc" />
    <path
       sodipodi:nodetypes="ccccc"
       inkscape:connector-curvature="0"
       id="path3115"
       d="m 2.3339884,1044.6195 c -0.1851973,1.1674 -0.5481696,2.2281 -0.9623737,3.2582 -0.1318691,-0.075 -0.2395681,-0.1781 -0.2344121,-0.406 l 0.7808449,-2.6688 c 0.1086801,-0.211 0.2622105,-0.1977 0.4159409,-0.1834 z"
       style="fill:#ffe680;stroke:#ffd42a;stroke-width:0.06458992px;stroke-linecap:butt;stroke-linejoin:miter;stroke-opacity:1" />
    <path
       style="fill:#ffe680;stroke:#ffd42a;stroke-width:0.07718545px;stroke-linecap:butt;stroke-linejoin:miter;stroke-opacity:1"
       d="m 3.960931,1046.4612 -1.6569993,-0.3456 c -0.3254386,-0.069 -0.4753468,0.4184 -0.2398555,0.4689 l 1.8241501,0.38 c 0.00621,-0.1692 0.038852,-0.3252 0.072705,-0.5033 z"
       id="path3117"
       inkscape:connector-curvature="0"
       sodipodi:nodetypes="ccccc" />
    <circle
       style="fill:#ffdd55;stroke:#ffd42a;stroke-width:0.08282156;stroke-linecap:round;stroke-linejoin:round;stroke-miterlimit:4;stroke-dasharray:none;stroke-opacity:1"
       id="path3125"
       transform="scale(-1,1)"
       cx="-13.842176"
       cy="1047.2533"
       r="2.4105232" />
    <circle
       transform="scale(-1,1)"
       id="path3121"
       style="fill:#ffe680;stroke:#ffd42a;stroke-width:0.08282156;stroke-linecap:round;stroke-linejoin:round;stroke-miterlimit:4;stroke-dasharray:none;stroke-opacity:1"
       cx="-13.978625"
       cy="1047.0583"
       r="2.4105232" />
    <circle
       transform="scale(-1,1)"
       id="path3127"
       style="fill:#ffdd55;stroke:#ffd42a;stroke-width:0.06477123;stroke-linecap:round;stroke-linejoin:round;stroke-miterlimit:4;stroke-dasharray:none;stroke-opacity:1"
       cx="-13.978621"
       cy="1047.0985"
       r="1.885168" />
    <circle
       style="fill:#ffe680;stroke:#ffd42a;stroke-width:0.06477123;stroke-linecap:round;stroke-linejoin:round;stroke-miterlimit:4;stroke-dasharray:none;stroke-opacity:1"
       id="path3123"
       transform="scale(-1,1)"
       cx="-14.124811"
       cy="1046.9524"
       r="1.885168" />
    <path
       sodipodi:nodetypes="ccccc"
       inkscape:connector-curvature="0"
       id="path3129"
       d="m 17.52621,1044.4447 c 0.221313,1.3951 0.655066,2.6627 1.150044,3.8936 0.157585,-0.091 0.286286,-0.2128 0.280124,-0.4852 l -0.933115,-3.1891 c -0.129874,-0.2521 -0.313345,-0.2362 -0.497053,-0.2193 z"
       style="fill:#ffe680;stroke:#ffd42a;stroke-width:0.07718545px;stroke-linecap:butt;stroke-linejoin:miter;stroke-opacity:1" />
    <path
       style="fill:#ffe680;stroke:#ffd42a;stroke-width:0.06458992px;stroke-linecap:butt;stroke-linejoin:miter;stroke-opacity:1"
       d="m 17.946129,1044.6195 c 0.185198,1.1674 0.548171,2.2281 0.962374,3.2582 0.131869,-0.075 0.239568,-0.1781 0.234413,-0.406 l -0.780846,-2.6688 c -0.10868,-0.211 -0.26221,-0.1977 -0.415941,-0.1834 z"
       id="path3131"
       inkscape:connector-curvature="0"
       sodipodi:nodetypes="ccccc" />
    <ellipse
       id="path3067"
       style="fill:#003380;stroke:#002255;stroke-width:0.06629003;stroke-linecap:round;stroke-linejoin:round;stroke-miterlimit:4;stroke-dasharray:none;stroke-opacity:1"
       cx="10.136162"
       cy="1042.9313"
       rx="6.9249401"
       ry="1.0061879" />
    <path
       style="fill:#ffe680;stroke:#ffd42a;stroke-width:0.07718545px;stroke-linecap:butt;stroke-linejoin:miter;stroke-opacity:1"
       d="m 8.8242678,1046.9375 c -0.1398548,0 -0.1529646,0.509 0.036181,0.509 h 0.7453219 1.0685363 0.745321 c 0.189146,0 0.176036,-0.509 0.03618,-0.509 H 10.645362 9.6347149 Z"
       id="path3119"
       inkscape:connector-curvature="0" />
    <path
       style="fill:#ffe680;stroke:#ffcc00;stroke-width:0.07718545px;stroke-linecap:butt;stroke-linejoin:miter;stroke-opacity:1"
       d="m 5.3427317,1017.3038 c -0.2826275,9.3035 3.2776646,20.8522 -0.9382855,25.423 0,0.6361 3.7385735,0.8539 5.7334318,0.8539 1.994858,0 5.735843,-0.2178 5.735843,-0.8539 -4.21595,-4.5708 -0.655658,-16.1195 -0.938286,-25.423 -3.355742,0 -6.1651484,0 -9.5927033,0 z"
       id="path3144"
       inkscape:connector-curvature="0"
       sodipodi:nodetypes="ccsccc" />
    <path
       style="fill:#ffd42a;stroke:#ffcc00;stroke-width:0.07718545px;stroke-linecap:butt;stroke-linejoin:miter;stroke-opacity:1"
       d="m 13.820483,1035.1913 0.108386,0.1521 c 1.243563,1.7094 -3.434534,4.7204 -3.387932,7.3881 l -2.8e-5,0.3139 c -0.5805045,-7.0728 3.248636,-3.5274 3.279574,-7.5909 z"
       id="path3165"
       inkscape:connector-curvature="0"
       sodipodi:nodetypes="cccccc" />
    <path
       style="fill:#ffdd55;stroke:#ffcc00;stroke-width:0.07718545px;stroke-linecap:butt;stroke-linejoin:miter;stroke-opacity:1"
       d="m 10.542443,1042.75 c 0,-6.8004 3.433718,-3.1608 3.433718,-7.3361 2.128624,3.9246 -3.347636,3.4004 -3.433718,7.3361 z"
       id="path3149"
       inkscape:connector-curvature="0"
       sodipodi:nodetypes="ccc" />
    <path
       style="fill:#ffd42a;stroke:#ffcc00;stroke-width:0.06841365px;stroke-linecap:butt;stroke-linejoin:miter;stroke-opacity:1"
       d="m 14.215881,1028.5106 0.15454,0.3415 v 2.1909 l -7.9925348,3.8136 3.083e-4,2.2511 -0.060804,0.6238 c -3.8436626,-6.1619 7.9497355,-4.5861 7.8984675,-9.2209 z"
       id="path3167"
       inkscape:connector-curvature="0"
       sodipodi:nodetypes="ccccccc" />
    <path
       style="fill:#ffdd55;stroke:#ffcc00;stroke-width:0.06841365px;stroke-linecap:butt;stroke-linejoin:miter;stroke-opacity:1"
       d="m 6.3062642,1037.6697 c 0,-4.0936 11.2306038,-3.5244 8.0456188,-8.8807 0,4.2444 -11.7121862,3.247 -8.0456188,8.8807 z"
       id="path3151"
       inkscape:connector-curvature="0"
       sodipodi:nodetypes="ccc" />
    <path
       sodipodi:nodetypes="ccccc"
       inkscape:connector-curvature="0"
       id="path3169"
       d="m 16.321613,1046.4612 1.657001,-0.3456 c 0.325437,-0.069 0.475346,0.4184 0.239855,0.4689 l -1.824151,0.38 c -0.0062,-0.1692 -0.03885,-0.3252 -0.07271,-0.5033 z"
       style="fill:#ffe680;stroke:#ffd42a;stroke-width:0.07718545px;stroke-linecap:butt;stroke-linejoin:miter;stroke-opacity:1" />
    <path
       style="fill:#ffd42a;stroke:#ffcc00;stroke-width:0.07291975px;stroke-linecap:butt;stroke-linejoin:miter;stroke-opacity:1"
       d="m 6.250462,1031.0584 c -0.4207548,-1.4574 -0.091836,-2.6184 0,-3.873 l 8.204774,-5.3075 c 0.584846,-1.2376 0.992649,-2.6036 1.021538,-4.2443 v -0.7857 l -0.406544,0.7891 c 0,6.4476 -13.3265051,5.2445 -9.1765183,13.4489 l 0.4059576,0.703 z"
       id="path3171"
       inkscape:connector-curvature="0"
       sodipodi:nodetypes="ccccccccc" />
    <path
       style="fill:#ffdd55;stroke:#ffcc00;stroke-width:0.07291975px;stroke-linecap:butt;stroke-linejoin:miter;stroke-opacity:1"
       d="m 6.3761486,1031.7889 c -5.32544,-8.3886 9.1052274,-7.7694 9.1052274,-14.1691 0,10.5226 -10.4812834,6.55 -9.1052274,14.1691 z"
       id="path3153"
       inkscape:connector-curvature="0"
       sodipodi:nodetypes="ccc" />
    <circle
       id="path3071"
       style="fill:#fff6d5;stroke:#ffcc00;stroke-width:0.0679342;stroke-linecap:round;stroke-linejoin:round;stroke-miterlimit:4;stroke-dasharray:none;stroke-opacity:1"
       cx="10.143458"
       cy="1011.3274"
       r="8.6872177" />
    <path
       sodipodi:nodetypes="cccccccccccc"
       inkscape:connector-curvature="0"
       id="path3073"
       d="m 16.295497,1017.4162 0.148281,-0.2373 -0.978672,0.3856 -0.266911,-0.059 0.385539,-0.4152 -0.266913,-0.5338 -0.978673,0.7118 -1.898033,-0.059 -0.889703,0.4449 -0.474509,1.6014 1.181777,0.4893 c 2.099092,-0.6237 3.043383,-1.4809 4.037817,-2.328 z"
       style="fill:#ffeeaa;stroke:#ffcc00;stroke-width:0.06931076px;stroke-linecap:butt;stroke-linejoin:miter;stroke-opacity:1" />
    <path
       sodipodi:nodetypes="ccccccccccccccccccccccccccccccccccccccccccccccccccccccccccccccccscc"
       inkscape:connector-curvature="0"
       id="path3075"
       d="m 15.724003,1004.6916 0.23044,0.684 0.830389,0.8007 0.04449,0.9935 -0.311397,-0.6228 -0.533822,-0.6376 -0.04449,0.6079 0.785905,1.0381 -0.756247,0.1186 -0.474509,0.3707 -0.578308,-0.7859 0.296567,0.6672 -0.02965,0.4449 -0.489336,0.8897 -0.711764,0.2965 -0.148283,0.2373 v 0.9046 l -0.682105,0.2965 -0.593137,0.2818 -0.296568,-0.9491 -0.533822,-0.43 v -0.519 l -0.222424,-0.1186 -0.667279,0.6525 -0.785905,0.1927 v 0.7118 l -0.7710754,1.0084 -0.6524491,-0.5784 0.2520822,-1.0527 -0.1334544,-0.8898 -0.5634808,0.4301 v -0.8305 l -0.667276,-0.03 -0.1186272,-0.3262 -1.2455844,-0.3411 0.4003661,0.6079 0.8452183,0.3114 0.252083,0.2967 -1.2010994,0.4003 -0.044484,0.3559 -0.7265919,0.2669 -0.7265909,-1.0231 -0.3558788,-1.3791 -0.1334559,1.0677 0.4745075,1.0528 0.6524476,0.5931 0.6524487,0.014 -0.2075964,0.43 -0.459681,0.5784 v 0.4448 l -0.5338237,0.6228 0.029661,0.3559 -0.1779419,0.4744 0.1038023,0.2818 0.4151927,0.1482 -0.014828,0.6229 -0.2669113,0.3262 -0.029658,0.8007 0.2669118,0.9639 -0.252083,0.1483 -0.8303896,-0.1631 -2.0166589,-2.9509 -0.7265923,-2.2984 -0.072411,4e-4 c 0.048877,-3.0276 1.1837329,-4.9596 2.5446242,-6.3689 3.4517309,-3.5745 9.3817745,-2.8963 11.7105395,-0.4991 z"
       style="fill:#ffeeaa;stroke:#ffcc00;stroke-width:0.06931076px;stroke-linecap:butt;stroke-linejoin:miter;stroke-opacity:1" />
    <path
       inkscape:connector-curvature="0"
       id="path3077"
       d="m 6.7163564,1014.0947 0.4893373,0.3558 0.059314,0.3708 0.2520823,0.3113 -0.266911,1.2012 H 6.7163564 l -0.014828,-0.6377 -0.3113967,-0.2372 0.014828,-0.2521 0.3855374,-0.2076 z"
       style="fill:#ffeeaa;stroke:#ffcc00;stroke-width:0.06931076px;stroke-linecap:butt;stroke-linejoin:miter;stroke-opacity:1" />
    <path
       inkscape:connector-curvature="0"
       id="path3079"
       d="m 16.087899,1008.3265 0.01483,0.8303 -0.341053,0.2373 -0.26691,-0.4449 0.01483,-0.3855 0.326225,-0.2818 z"
       style="fill:#ffeeaa;stroke:#ffcc00;stroke-width:0.06931076px;stroke-linecap:butt;stroke-linejoin:miter;stroke-opacity:1" />
    <path
       inkscape:connector-curvature="0"
       id="path3081"
       d="m 15.479934,1009.9279 0.311395,-0.1779 0.400367,0.1927 -0.489336,0.519 -0.311396,0.015 z"
       style="fill:#ffeeaa;stroke:#ffcc00;stroke-width:0.06931076px;stroke-linecap:butt;stroke-linejoin:miter;stroke-opacity:1" />
    <path
       inkscape:connector-curvature="0"
       id="path3083"
       d="m 14.738514,1010.1206 -0.148283,0.4005 -0.370709,0.1185 -0.148285,-0.5486 0.192769,-0.1779 0.252082,0.03 z"
       style="fill:#ffeeaa;stroke:#ffcc00;stroke-width:0.06931076px;stroke-linecap:butt;stroke-linejoin:miter;stroke-opacity:1" />
    <path
       inkscape:connector-curvature="0"
       id="path3085"
       d="m 13.255675,1011.4255 -0.133454,0.8898 -0.65245,-0.267 0.222426,-0.5338 z"
       style="fill:#ffeeaa;stroke:#ffcc00;stroke-width:0.06931076px;stroke-linecap:butt;stroke-linejoin:miter;stroke-opacity:1" />
    <path
       inkscape:connector-curvature="0"
       id="path3087"
       d="m 13.789498,1012.7156 c 0.05932,-0.014 1.275241,-0.8007 1.275241,-0.8007 l 0.711762,0.2669 c 0,0 -0.54865,0.5191 -0.489336,0.5191 0.05931,0 1.260414,0.029 1.260414,0.029 l -1.823892,0.9194 z"
       style="fill:#ffeeaa;stroke:#ffcc00;stroke-width:0.06931076px;stroke-linecap:butt;stroke-linejoin:miter;stroke-opacity:1" />
    <path
       inkscape:connector-curvature="0"
       id="path3089"
       d="m 13.300161,1012.7453 -1.052815,-0.4597 0.118626,0.5042 0.474509,0.5487 0.07414,0.4892 0.874874,0.697 0.578308,-0.3262 -0.815563,-0.5487 z"
       style="fill:#ffeeaa;stroke:#ffcc00;stroke-width:0.06931076px;stroke-linecap:butt;stroke-linejoin:miter;stroke-opacity:1" />
    <path
       inkscape:connector-curvature="0"
       id="path3091"
       d="m 14.916455,1014.2578 -0.28174,0.2372 -0.459679,0.059 0.370709,0.3262 0.815563,-0.045 0.281739,0.2373 1.00833,-0.5784 -0.163113,-0.2224 -1.215928,0.2076 z"
       style="fill:#ffeeaa;stroke:#ffcc00;stroke-width:0.06931076px;stroke-linecap:butt;stroke-linejoin:miter;stroke-opacity:1" />
    <path
       inkscape:connector-curvature="0"
       id="path3093"
       d="m 17.363139,1008.5192 -0.02965,1.3049 -0.83039,0.6228 0.533822,0.03 -0.148285,0.7117 0.771077,-1.4236 z"
       style="fill:#ffeeaa;stroke:#ffcc00;stroke-width:0.06931076px;stroke-linecap:butt;stroke-linejoin:miter;stroke-opacity:1" />
    <path
       inkscape:connector-curvature="0"
       id="path3095"
       d="m 17.837648,1007.8074 -0.444852,0.5042 0.237254,0.059 0.02965,0.2669 0.474508,-0.3559 -0.296568,-0.1779 z"
       style="fill:#ffeeaa;stroke:#ffcc00;stroke-width:0.06931076px;stroke-linecap:butt;stroke-linejoin:miter;stroke-opacity:1" />
    <path
       inkscape:connector-curvature="0"
       id="path3097"
       d="m 16.414123,1010.6545 -0.415196,0.2075 -0.08897,0.4153 0.474509,-0.2372 0.207597,-0.03 z"
       style="fill:#ffeeaa;stroke:#ffcc00;stroke-width:0.06931076px;stroke-linecap:butt;stroke-linejoin:miter;stroke-opacity:1" />
    <path
       style="fill:#ffd42a;stroke:#ffcc00;stroke-width:0.06367924px;stroke-linecap:butt;stroke-linejoin:miter;stroke-opacity:1"
       d="M 5.569025,1023.1892 5.4503416,1022.91 c -1.0793736,-4.5024 -0.1286598,-8.7311 0.618054,-12.9874 l 0.1747169,0.029 c 0.5035024,3.7683 -1.5991605,7.7571 -0.6740875,13.2378 z"
       id="path3173"
       inkscape:connector-curvature="0"
       sodipodi:nodetypes="ccccc" />
    <path
       style="fill:#ffdd55;stroke:#ffcc00;stroke-width:0.06367924px;stroke-linecap:butt;stroke-linejoin:miter;stroke-opacity:1"
       d="m 5.4641964,1022.9422 c -0.9797271,-5.5428 1.1401076,-9.0658 0.6083054,-13.0393 -1.2463574,4.3272 -2.6203874,8.652 -0.6083054,13.0393 z"
       id="path3155"
       inkscape:connector-curvature="0"
       sodipodi:nodetypes="ccc" />
  </g>
</svg>
