<?xml version="1.0" encoding="utf-8"?>
<!-- Generator: Adobe Illustrator 15.0.0, SVG Export Plug-In . SVG Version: 6.00 Build 0)  -->
<!DOCTYPE svg PUBLIC "-//W3C//DTD SVG 1.1//EN" "http://www.w3.org/Graphics/SVG/1.1/DTD/svg11.dtd">
<svg version="1.1" id="Calque_1" xmlns="http://www.w3.org/2000/svg" xmlns:xlink="http://www.w3.org/1999/xlink" x="0px" y="0px"
	 width="338.3px" height="295.6px" viewBox="0 0 566 494.657" enable-background="new 0 0 566 494.657" xml:space="preserve">
<rect fill="#F1A32F" width="566" height="494.657"/>
<path fill="#FFFFFF" d="M144.76,48.703c-2.25,0.844-4.998,1.262-8.243,1.262c-2.741,0-5.315-0.447-7.738-1.355
	c-2.423-0.909-4.637-2.474-6.664-4.702c-1.767-1.94-3.05-4.276-3.851-7.01c-0.8-2.74-1.197-5.69-1.197-8.842
	c0-2.783,0.231-5.243,0.692-7.392c0.462-2.149,1.241-4.233,2.344-6.245c1.89-3.455,4.363-5.986,7.414-7.58
	c3.058-1.601,6.512-2.401,10.392-2.401c1.132,0,2.265,0.08,3.375,0.224c1.118,0.151,2.171,0.368,3.159,0.664
	c0.988,0.296,1.897,0.635,2.719,1.017c0.814,0.383,1.485,0.822,1.983,1.327l-4.796,8.358c-2.019-1.558-4.211-2.336-6.57-2.336
	c-0.966,0-1.882,0.137-2.748,0.411c-0.865,0.281-1.586,0.707-2.178,1.298c-0.548,0.548-1.002,1.118-1.356,1.709
	c-0.36,0.577-0.649,1.262-0.887,2.012c-0.231,0.764-0.382,1.608-0.476,2.553c-0.08,0.952-0.123,2.077-0.123,3.382
	c0,3.621,0.123,6.404,0.375,8.366c0.259,1.955,0.844,3.461,1.774,4.507c0.714,0.844,1.536,1.521,2.459,2.026
	c0.931,0.505,1.976,0.75,3.159,0.75c1.436,0,2.748-0.202,3.945-0.627c1.205-0.418,2.416-1.183,3.635-2.271l4.868,7.688
	C148.827,46.799,147.01,47.874,144.76,48.703"/>
<path fill="#FFFFFF" d="M182.376,20.167c-0.274-1.767-0.692-3.159-1.255-4.168c-0.57-1.01-1.291-1.716-2.171-2.113
	c-0.887-0.396-1.933-0.598-3.144-0.598c-2.567,0-4.414,1.24-5.539,3.721c-1.14,2.48-1.702,5.827-1.702,10.031
	c0,2.82,0.166,5.142,0.505,6.938c0.332,1.817,0.822,3.245,1.45,4.298c0.627,1.053,1.392,1.774,2.293,2.17
	c0.901,0.411,1.94,0.606,3.115,0.606s2.2-0.209,3.08-0.635c0.887-0.418,1.594-1.146,2.142-2.207c0.548-1.046,0.952-2.488,1.226-4.32
	s0.411-4.154,0.411-6.981C182.787,24.183,182.65,21.926,182.376,20.167 M194.592,34.69c-0.569,2.942-1.594,5.546-3.094,7.796
	c-1.493,2.25-3.519,4.061-6.065,5.431c-2.545,1.363-5.784,2.048-9.692,2.048c-3.202,0-6.036-0.505-8.495-1.514
	c-2.467-1.01-4.543-2.467-6.224-4.356c-1.688-1.896-2.957-4.176-3.822-6.851c-0.866-2.676-1.298-5.654-1.298-8.936
	c0-3.916,0.512-7.356,1.522-10.327c1.002-2.964,2.423-5.459,4.233-7.486c1.81-2.012,3.945-3.527,6.411-4.543
	c2.459-1.01,5.142-1.515,8.056-1.515c3.743,0,6.858,0.649,9.339,1.926c2.488,1.284,4.471,2.949,5.936,4.991
	c1.478,2.041,2.524,4.313,3.137,6.815c0.606,2.51,0.916,4.961,0.916,7.363C195.451,28.684,195.162,31.741,194.592,34.69z"/>
<path fill="#FFFFFF" d="M228.732,49.215l-7.767-15.281c-0.584-1.132-1.19-2.445-1.795-3.909c-0.613-1.479-1.154-2.936-1.616-4.363
	c0.13,0.844,0.26,2.236,0.411,4.168c0.145,1.933,0.216,4.276,0.216,7.01v12.375h-10.731V5.188h10.861l8.02,15.094
	c0.635,1.176,1.262,2.502,1.896,3.981c0.627,1.471,1.219,2.942,1.767,4.414c-0.08-0.627-0.151-1.363-0.188-2.207
	c-0.043-0.844-0.086-1.702-0.13-2.589c-0.036-0.88-0.058-1.767-0.058-2.654c0-0.887,0-1.681,0-2.402V5.188h10.738v44.027H228.732"/>
<path fill="#FFFFFF" d="M280.029,48.703c-2.25,0.844-4.998,1.262-8.235,1.262c-2.741,0-5.322-0.447-7.731-1.355
	c-2.423-0.909-4.645-2.474-6.671-4.702c-1.767-1.94-3.05-4.276-3.851-7.01c-0.8-2.74-1.204-5.69-1.204-8.842
	c0-2.783,0.238-5.243,0.699-7.392c0.461-2.149,1.248-4.233,2.337-6.245c1.896-3.455,4.37-5.986,7.42-7.58
	c3.051-1.601,6.52-2.401,10.385-2.401c1.14,0,2.272,0.08,3.382,0.224c1.118,0.151,2.164,0.368,3.166,0.664
	c0.981,0.296,1.89,0.635,2.705,1.017c0.829,0.383,1.485,0.822,1.997,1.327l-4.803,8.358c-2.019-1.558-4.211-2.336-6.57-2.336
	c-0.966,0-1.882,0.137-2.748,0.411c-0.865,0.281-1.586,0.707-2.178,1.298c-0.548,0.548-0.995,1.118-1.363,1.709
	c-0.353,0.577-0.649,1.262-0.873,2.012c-0.238,0.764-0.396,1.608-0.476,2.553c-0.086,0.952-0.129,2.077-0.129,3.382
	c0,3.621,0.123,6.404,0.382,8.366c0.252,1.955,0.844,3.461,1.767,4.507c0.714,0.844,1.536,1.521,2.466,2.026
	c0.923,0.505,1.976,0.75,3.151,0.75c1.428,0,2.748-0.202,3.952-0.627c1.197-0.418,2.401-1.183,3.62-2.271l4.869,7.688
	C284.11,46.799,282.286,47.874,280.029,48.703"/>
<path fill="#FFFFFF" d="M311.58,24.046c-0.217-0.966-0.39-2.026-0.541-3.188c-0.145-1.161-0.245-2.156-0.281-3
	c-0.079,0.844-0.209,1.854-0.382,3.029c-0.159,1.183-0.44,2.51-0.822,3.981l-1.76,7.197h5.683L311.58,24.046 M318.02,49.215
	l-2.265-8.43h-10.42l-2.409,8.43h-11.878l14.149-44.027h11.748l13.335,44.027H318.02z"/>
<path fill="#FFFFFF" d="M365.105,48.703c-2.25,0.844-4.998,1.262-8.243,1.262c-2.74,0-5.315-0.447-7.738-1.355
	c-2.416-0.909-4.645-2.474-6.663-4.702c-1.76-1.94-3.052-4.276-3.844-7.01c-0.808-2.74-1.205-5.69-1.205-8.842
	c0-2.783,0.23-5.243,0.692-7.392c0.469-2.149,1.24-4.233,2.337-6.245c1.896-3.455,4.37-5.986,7.42-7.58
	c3.051-1.601,6.52-2.401,10.393-2.401c1.132,0,2.257,0.08,3.382,0.224c1.111,0.151,2.164,0.368,3.151,0.664
	c0.989,0.296,1.897,0.635,2.719,1.017c0.815,0.383,1.486,0.822,1.983,1.327l-4.796,8.358c-2.019-1.558-4.211-2.336-6.569-2.336
	c-0.966,0-1.882,0.137-2.748,0.411c-0.858,0.281-1.586,0.707-2.178,1.298c-0.548,0.548-1.002,1.118-1.355,1.709
	c-0.36,0.577-0.649,1.262-0.888,2.012c-0.23,0.764-0.382,1.608-0.476,2.553c-0.079,0.952-0.123,2.077-0.123,3.382
	c0,3.621,0.123,6.404,0.375,8.366c0.261,1.955,0.845,3.461,1.774,4.507c0.707,0.844,1.537,1.521,2.459,2.026
	c0.931,0.505,1.977,0.75,3.159,0.75c1.436,0,2.748-0.202,3.952-0.627c1.197-0.418,2.408-1.183,3.627-2.271l4.868,7.688
	C369.18,46.799,367.355,47.874,365.105,48.703"/>
<path fill="#FFFFFF" d="M396.656,24.046c-0.217-0.966-0.396-2.026-0.541-3.188c-0.151-1.161-0.245-2.156-0.289-3
	c-0.079,0.844-0.208,1.854-0.375,3.029c-0.172,1.183-0.446,2.51-0.821,3.981l-1.767,7.197h5.683L396.656,24.046 M403.089,49.215
	l-2.271-8.43h-10.421l-2.402,8.43h-11.869l14.148-44.027h11.748l13.32,44.027H403.089z"/>
<polyline fill="#FFFFFF" points="448.118,14.44 435.931,14.44 435.931,21.861 445.847,21.861 445.847,30.84 435.996,30.84 
	435.996,49.215 424.702,49.215 424.702,5.188 448.934,5.188 448.118,14.44 "/>
<polygon fill="#FFFFFF" points="34.209,457.006 32.031,457.006 32.031,55.806 533.97,55.806 533.97,457.006 34.209,457.006 "/>
<polygon fill="#007AC1" points="529.613,452.648 529.613,60.163 36.388,60.163 36.388,452.648 529.613,452.648 "/>
<polyline fill="#FFFFFF" points="197.59,395.483 206.366,395.483 206.366,397.798 203.424,397.798 203.424,404.844 200.532,404.844 
	200.532,397.798 197.59,397.798 197.59,395.483 "/>
<polyline fill="#FFFFFF" points="207.679,395.483 211.494,395.483 212.951,401.181 214.415,395.483 218.208,395.483 
	218.208,404.844 215.85,404.844 215.85,397.711 214.018,404.844 211.876,404.844 210.051,397.711 210.051,404.844 207.679,404.844 
	207.679,395.483 "/>
<linearGradient id="SVGID_1_" gradientUnits="userSpaceOnUse" x1="106.9824" y1="241.9863" x2="261.355" y2="241.9863">
	<stop  offset="0" style="stop-color:#FFF200"/>
	<stop  offset="0.75" style="stop-color:#F1A32F"/>
</linearGradient>
<polyline fill="url(#SVGID_1_)" points="106.982,74.131 261.355,74.131 187.075,409.841 106.982,74.131 "/>
<polyline fill="#FDB72C" points="269.497,81.3 330.674,71.506 216.34,308.503 297.428,97.713 269.497,81.3 "/>
<polyline fill="#FDB72C" points="100.441,77.802 70.419,71.932 158.409,320.157 87.799,93.379 100.441,77.802 "/>
<polyline fill="#FFFFFF" points="127.074,78.675 187.464,402.153 147.62,78.675 127.074,78.675 "/>
<linearGradient id="SVGID_2_" gradientUnits="userSpaceOnUse" x1="147.3174" y1="427.3037" x2="248.2085" y2="427.3037">
	<stop  offset="0" style="stop-color:#FFF200"/>
	<stop  offset="0.75" style="stop-color:#F1A32F"/>
</linearGradient>
<polyline fill="url(#SVGID_2_)" points="147.317,414.716 152.589,443.743 248.208,410.865 147.317,414.716 "/>
<path fill="#FFFFFF" d="M53.587,369.636c1.457-34.342,30.455-60.996,64.797-59.546c34.328,1.457,60.989,30.469,59.525,64.812
	c-1.442,34.326-30.455,60.98-64.783,59.531C78.785,432.983,52.138,403.978,53.587,369.636"/>
<polyline fill="#181979" points="130.254,342.759 106.824,367.083 115.672,397.062 148.442,398.447 159.483,369.318 
	130.254,342.759 "/>
<polyline fill="#181979" points="96.259,300.325 51.344,308.806 52.599,325.018 96.259,300.325 "/>
<polyline fill="#181979" points="40.801,276.513 66.554,254.567 126.987,301.638 40.801,276.513 "/>
<polyline fill="#181979" points="165.325,263.293 188.186,270.426 150.526,297.34 165.325,263.293 "/>
<polyline fill="#181979" points="161.546,314.402 191.95,321.08 177.815,334.522 161.546,314.402 "/>
<polyline fill="#181979" points="115.91,264.094 137.25,242.805 139.471,298.443 115.91,264.094 "/>
<path fill="#181979" d="M121.009,310.342l0.058,9.613l-26.373,17.251l-11.034-4.442c0,0-0.822-2.049-7.284,15.613
	c-6.461,17.646-5.409,17.696-5.409,17.696l17.863,1.378l8.026,29.503l-12.188,6.108c0,0,6.39,5.567,15.483,9.931
	c9.087,4.355,15.483,9.923,15.483,9.923l3.094-10.464l27.758,3.75l2.164,9.447c-24.375,8.683-50.712,2.928-64.436-12.008
	C75.352,404,55.534,371.353,64.203,354.47c8.654-16.86,21.758-40.717,43.299-43.839
	C113.624,309.743,121.009,310.342,121.009,310.342"/>
<path fill="#FFFFFF" d="M325.315,219.266c-1.515-1.471-3.145-2.517-4.897-3.145c-1.752-0.627-3.678-0.945-5.762-0.945
	c-1.622,0-3.18,0.267-4.659,0.793c-1.492,0.526-2.783,1.233-3.879,2.127c-1.572,1.262-2.95,3.007-4.118,5.235
	c-1.176,2.236-2.142,4.608-2.906,7.133c-0.758,2.517-1.327,5.012-1.717,7.479c-0.403,2.466-0.591,4.514-0.591,6.137
	c0,3.627,0.844,6.224,2.545,7.804c1.695,1.579,4.111,2.357,7.249,2.357c2.459,0,4.601-0.446,6.432-1.341l2.661-12.542h-8.069v-8.979
	h21.324l-5.646,26.459c-3.13,1.681-6.288,2.863-9.446,3.541c-3.159,0.692-6.361,1.031-9.606,1.031c-3.188,0-5.985-0.447-8.38-1.334
	c-2.401-0.887-4.428-2.164-6.072-3.814c-1.645-1.645-2.892-3.635-3.714-5.964c-0.837-2.33-1.255-4.905-1.255-7.731
	c0-3.152,0.324-6.217,0.98-9.195c0.649-2.986,1.551-5.784,2.697-8.409c1.146-2.61,2.495-5.005,4.031-7.183
	c1.543-2.171,3.194-3.988,4.977-5.459c3.18-2.668,6.237-4.5,9.173-5.495c2.921-0.995,6.166-1.493,9.714-1.493
	c3.296,0,6.288,0.519,8.979,1.572c2.69,1.038,5.034,2.603,7.018,4.688L325.315,219.266"/>
<path fill="#FFFFFF" d="M365.167,227.624c-1.061-1.125-2.712-1.694-4.976-1.694c-2.59,0-4.774,0.923-6.563,2.755
	c-1.054,1.053-1.977,2.408-2.77,4.082c-0.787,1.68-1.457,3.44-2.013,5.272c-0.556,1.832-0.974,3.598-1.262,5.3
	s-0.44,3.101-0.44,4.197c0,2.784,0.556,4.708,1.666,5.776c1.104,1.082,2.82,1.609,5.135,1.609c1.371,0,2.661-0.268,3.873-0.815
	c1.212-0.555,2.344-1.486,3.396-2.791c0.844-1.053,1.608-2.358,2.286-3.93c0.692-1.572,1.27-3.216,1.745-4.947
	s0.844-3.455,1.11-5.192c0.261-1.724,0.39-3.296,0.39-4.709C366.746,230.386,366.22,228.749,365.167,227.624 M378.271,239.617
	c-0.39,2.12-0.966,4.197-1.724,6.238c-0.764,2.041-1.717,3.98-2.87,5.805c-1.146,1.832-2.495,3.455-4.01,4.868
	c-2.199,1.983-4.709,3.47-7.536,4.436c-2.827,0.959-5.893,1.449-9.195,1.449c-2.877,0-5.401-0.382-7.579-1.139
	c-2.178-0.758-3.974-1.847-5.416-3.253c-1.442-1.413-2.524-3.101-3.267-5.063c-0.729-1.962-1.089-4.147-1.089-6.556
	c0-2.351,0.245-4.666,0.742-6.945c0.498-2.271,1.227-4.428,2.192-6.476c0.967-2.034,2.164-3.938,3.577-5.683
	c1.413-1.752,3.015-3.26,4.788-4.515c2.149-1.521,4.494-2.646,7.032-3.375c2.546-0.729,5.199-1.096,7.976-1.096
	c2.575,0,4.883,0.317,6.952,0.945c2.077,0.627,3.851,1.572,5.344,2.82c1.493,1.262,2.647,2.827,3.454,4.709
	c0.815,1.882,1.219,4.082,1.219,6.584C378.861,235.42,378.667,237.504,378.271,239.617z"/>
<polyline fill="#FFFFFF" points="407.716,261.735 382.634,261.735 391.721,218.725 402.625,218.725 395.326,253.16 411.79,253.16 
	407.716,261.735 "/>
<path fill="#FFFFFF" d="M441.488,228.417c-0.974-1.205-2.574-1.796-4.832-1.796h-3.916l-5.646,26.726h5.099
	c1.774,0,3.331-0.591,4.665-1.759c1.327-1.176,2.445-2.704,3.332-4.587c0.888-1.882,1.565-3.995,2.034-6.354
	c0.476-2.351,0.714-4.724,0.714-7.132C442.938,231.324,442.447,229.622,441.488,228.417 M453.265,244.305
	c-1.097,3.252-2.625,6.102-4.587,8.561c-1.961,2.459-4.283,4.442-6.974,5.964c-2.696,1.515-5.61,2.409-8.748,2.669
	c-0.938,0.1-1.982,0.165-3.137,0.201c-1.146,0.021-2.553,0.036-4.232,0.036H414.53l9.102-43.01h9.404c0.686,0,1.436,0,2.278,0
	c0.887,0,1.731,0.007,2.546,0.036c0.808,0.029,1.565,0.05,2.279,0.079c0.699,0.021,1.291,0.058,1.752,0.123
	c4.14,0.512,7.335,2.02,9.605,4.507c2.279,2.481,3.412,5.957,3.412,10.399C454.909,237.583,454.368,241.06,453.265,244.305z"/>
<path fill="#FFFFFF" d="M322.186,285.108c-1.146-1.046-2.431-1.773-3.837-2.199c-1.413-0.411-2.877-0.628-4.399-0.628
	c-1.824,0-3.67,0.447-5.523,1.342c-1.854,0.887-3.404,2.063-4.658,3.526c-1.205,1.363-2.279,3.086-3.217,5.178
	s-1.724,4.291-2.352,6.599c-0.627,2.293-1.11,4.559-1.456,6.786c-0.339,2.221-0.505,4.118-0.505,5.684
	c0,3.612,0.836,6.237,2.509,7.889c1.667,1.651,4.046,2.474,7.133,2.474c1.615,0,3.23-0.303,4.825-0.901
	c1.593-0.599,3.331-1.558,5.213-2.87l3.758,7.132c-2.503,1.768-5.077,3.059-7.716,3.866c-2.647,0.808-5.532,1.212-8.662,1.212
	c-6.173,0-10.933-1.645-14.286-4.94s-5.026-8.026-5.026-14.2c0-2.091,0.202-4.283,0.591-6.576c0.391-2.309,0.945-4.565,1.652-6.794
	c0.706-2.221,1.564-4.363,2.589-6.426s2.163-3.938,3.418-5.61c2.979-3.974,6.526-6.974,10.623-9.022
	c4.11-2.033,8.38-3.058,12.822-3.058c2.719,0,5.235,0.396,7.572,1.183c2.314,0.779,4.082,1.832,5.286,3.138L322.186,285.108"/>
<path fill="#FFFFFF" d="M360.674,314.82c-0.31,1.572-0.663,2.921-1.053,4.046s-0.815,2.092-1.255,2.906
	c-0.446,0.808-0.952,1.521-1.528,2.12c-0.577,0.605-1.227,1.197-1.962,1.768c-1.406,1.153-3.317,2.17-5.719,3.058
	c-2.409,0.894-5.308,1.341-8.712,1.341c-4.753,0-8.474-0.822-11.171-2.474c-2.689-1.651-4.031-3.938-4.031-6.873
	c0-0.627,0.036-1.42,0.115-2.401c0.08-0.966,0.224-1.896,0.433-2.783l6.195-29.294h10.89l-5.95,28.068
	c-0.158,0.742-0.288,1.42-0.396,2.047c-0.107,0.636-0.158,1.154-0.158,1.573c0,1.052,0.433,1.933,1.291,2.639
	c0.865,0.707,2.155,1.061,3.887,1.061c2.769,0,4.738-0.671,5.914-2.005c1.182-1.342,2.055-3.397,2.632-6.173l5.806-27.21h10.889
	L360.674,314.82"/>
<path fill="#FFFFFF" d="M396.516,295.32c-0.706-0.707-2.048-1.061-4.031-1.061h-4.86l-2.431,11.604h4.774
	c2.301,0,4.146-0.627,5.531-1.882s2.077-3.181,2.077-5.799C397.576,296.979,397.223,296.027,396.516,295.32 M408.336,302.438
	c-0.62,1.81-1.5,3.439-2.618,4.91c-1.125,1.465-2.444,2.705-3.959,3.729c-1.521,1.017-3.173,1.738-4.94,2.149
	c-1.362,0.317-2.797,0.541-4.313,0.671c-1.514,0.137-3.108,0.194-4.788,0.194h-4.306l-3.216,15.151h-10.659l9.094-43.01h12.152
	c2.242,0,4.096,0.051,5.56,0.159c1.464,0.101,2.684,0.267,3.649,0.468c0.967,0.209,1.773,0.434,2.43,0.664
	c0.649,0.238,1.292,0.512,1.919,0.822c1.615,0.793,2.849,1.926,3.686,3.418c0.836,1.492,1.254,3.151,1.254,4.983
	C409.28,298.738,408.964,300.636,408.336,302.438z"/>
<path fill="#FFFFFF" d="M320.281,365.937c-2.214,3.296-5.423,6.794-9.598,10.507c-0.888,0.787-1.977,1.725-3.253,2.827
	c-1.283,1.09-2.597,2.193-3.959,3.289c-1.356,1.104-2.705,2.171-4.039,3.217s-2.523,1.903-3.563,2.588
	c0.888-0.107,2.091-0.193,3.635-0.281c1.543-0.071,2.972-0.114,4.276-0.114h15.686l-4.153,8.776H281.67l1.579-7.355
	c0.938-0.744,2.084-1.667,3.448-2.792c1.355-1.117,2.783-2.293,4.27-3.525c1.492-1.227,2.949-2.46,4.391-3.687
	c1.436-1.232,2.705-2.343,3.802-3.331c2.927-2.611,5.213-4.89,6.865-6.822c1.644-1.933,2.885-3.62,3.721-5.056
	c0.829-1.441,1.342-2.675,1.529-3.729c0.181-1.038,0.273-1.983,0.273-2.819c0-1.724-0.525-2.936-1.564-3.649
	c-1.053-0.699-2.329-1.053-3.844-1.053c-1.673,0-3.462,0.439-5.373,1.327c-1.911,0.894-4.168,2.257-6.778,4.081l-4.233-6.9
	c3.339-2.51,6.642-4.429,9.916-5.771c3.267-1.326,6.909-1.989,10.939-1.989c1.983,0,3.779,0.288,5.401,0.857
	c1.623,0.577,2.993,1.37,4.125,2.395c1.118,1.017,1.977,2.25,2.582,3.678c0.599,1.442,0.902,3.022,0.902,4.752
	C323.621,359.122,322.503,362.647,320.281,365.937"/>
<path fill="#FFFFFF" d="M355.929,354.693c-0.237-0.865-0.548-1.543-0.938-2.041c-0.396-0.489-0.852-0.836-1.378-1.017
	c-0.519-0.188-1.096-0.273-1.724-0.273c-1.045,0-2.047,0.31-3.014,0.938c-0.967,0.627-1.846,1.521-2.633,2.668
	c-1.204,1.724-2.235,3.851-3.093,6.383c-0.859,2.545-1.595,5.155-2.193,7.846c-0.605,2.697-1.045,5.293-1.334,7.796
	c-0.288,2.51-0.433,4.602-0.433,6.274c0,2.827,0.403,4.681,1.212,5.574c0.815,0.887,1.867,1.327,3.18,1.327
	c1.097,0,2.172-0.383,3.209-1.14c1.054-0.758,2.02-1.817,2.906-3.173c1.097-1.832,2.063-4.01,2.899-6.541
	c0.837-2.546,1.529-5.113,2.077-7.724c0.556-2.618,0.952-5.143,1.219-7.572c0.26-2.431,0.39-4.421,0.39-5.993
	C356.282,356.663,356.167,355.56,355.929,354.693 M366.718,369.269c-0.498,2.899-1.19,5.654-2.077,8.271
	c-0.895,2.604-1.969,5.041-3.252,7.291c-1.284,2.243-2.705,4.226-4.271,5.95c-2.148,2.358-4.463,4.117-6.944,5.293
	c-2.48,1.175-5.235,1.767-8.271,1.767c-4.442,0-7.861-1.529-10.27-4.586c-2.401-3.058-3.606-7.277-3.606-12.657
	c0-3.036,0.246-6.015,0.75-8.942c0.491-2.928,1.227-5.712,2.192-8.344c0.967-2.64,2.128-5.084,3.483-7.334
	c1.356-2.243,2.899-4.233,4.63-5.95c2.143-2.099,4.436-3.678,6.902-4.752c2.451-1.067,4.968-1.601,7.521-1.601
	c4.442,0,7.883,1.514,10.313,4.543c2.424,3.036,3.643,7.082,3.643,12.151C367.461,363.397,367.215,366.369,366.718,369.269z"/>
<path fill="#FFFFFF" d="M399.841,354.693c-0.245-0.865-0.556-1.543-0.952-2.041c-0.389-0.489-0.844-0.836-1.37-1.017
	c-0.526-0.188-1.104-0.273-1.731-0.273c-1.038,0-2.04,0.31-3.007,0.938c-0.974,0.627-1.846,1.521-2.632,2.668
	c-1.205,1.724-2.229,3.851-3.094,6.383c-0.866,2.545-1.594,5.155-2.193,7.846c-0.605,2.697-1.052,5.293-1.334,7.796
	c-0.288,2.51-0.439,4.602-0.439,6.274c0,2.827,0.404,4.681,1.219,5.574c0.815,0.887,1.868,1.327,3.174,1.327
	c1.103,0,2.17-0.383,3.216-1.14c1.046-0.758,2.013-1.817,2.899-3.173c1.103-1.832,2.069-4.01,2.905-6.541
	c0.83-2.546,1.529-5.113,2.077-7.724c0.549-2.618,0.959-5.143,1.212-7.572c0.26-2.431,0.397-4.421,0.397-5.993
	C400.188,356.663,400.064,355.56,399.841,354.693 M410.622,369.269c-0.497,2.899-1.19,5.654-2.077,8.271
	c-0.887,2.604-1.976,5.041-3.252,7.291c-1.284,2.243-2.712,4.226-4.277,5.95c-2.148,2.358-4.449,4.117-6.938,5.293
	c-2.48,1.175-5.235,1.767-8.271,1.767c-4.442,0-7.868-1.529-10.262-4.586c-2.409-3.058-3.613-7.277-3.613-12.657
	c0-3.036,0.253-6.015,0.742-8.942c0.498-2.928,1.234-5.712,2.193-8.344c0.973-2.64,2.134-5.084,3.489-7.334
	c1.364-2.243,2.899-4.233,4.63-5.95c2.143-2.099,4.443-3.678,6.895-4.752c2.459-1.067,4.969-1.601,7.537-1.601
	c4.435,0,7.875,1.514,10.298,4.543c2.431,3.036,3.648,7.082,3.648,12.151C411.364,363.397,411.112,366.369,410.622,369.269z"/>
<path fill="#FFFFFF" d="M452.724,363.06c-1.644,2.43-4.399,4.355-8.265,5.762c2.2,0.519,3.916,1.543,5.171,3.064
	c1.255,1.516,1.882,3.368,1.882,5.561c0,2.979-0.836,5.784-2.51,8.431c-1.68,2.64-3.951,4.947-6.829,6.938
	c-2.877,1.983-6.238,3.555-10.081,4.702c-3.837,1.154-7.962,1.73-12.348,1.73c-0.627,0-1.182,0-1.644,0
	c-0.476,0-0.945-0.021-1.413-0.043c-0.47-0.028-0.967-0.072-1.493-0.115c-0.52-0.058-1.146-0.13-1.882-0.245l-1.017-7.753
	c1.153,0.26,2.105,0.411,2.855,0.469c0.764,0.058,1.767,0.08,3.028,0.08c2.928,0,5.668-0.375,8.229-1.141
	c2.561-0.75,4.789-1.766,6.707-3.021c1.903-1.247,3.403-2.668,4.5-4.27c1.104-1.594,1.651-3.223,1.651-4.896
	c0-1.824-0.67-3.173-2.005-4.038c-1.327-0.858-3.822-1.298-7.478-1.298c-0.317,0-0.815,0.014-1.494,0.043
	c-0.677,0.021-1.255,0.036-1.73,0.036c-0.468,0-0.729,0-0.778,0l1.882-8.777c0.101,0,0.411,0.022,0.938,0.08
	c0.526,0.05,1.212,0.107,2.084,0.159c0.858,0.05,1.63,0.071,2.309,0.071c3.296,0,5.819-0.678,7.579-2.04
	c1.759-1.356,2.64-3.289,2.64-5.807c0-1.247-0.469-2.264-1.414-3.05c-0.938-0.778-2.351-1.176-4.233-1.176
	c-2.668,0-5.076,0.505-7.247,1.528c-2.163,1.018-3.938,2.027-5.294,3.016l-4.074-6.815c3.13-2.143,6.439-3.765,9.916-4.89
	s6.801-1.68,9.995-1.68c2.199,0,4.19,0.295,5.972,0.901c1.788,0.599,3.303,1.398,4.536,2.423c1.233,1.017,2.178,2.242,2.834,3.678
	s0.987,2.964,0.987,4.587C455.189,358.032,454.368,360.636,452.724,363.06"/>
</svg>
