<?xml version="1.0" encoding="utf-8"?>
<!-- Generator: Adobe Illustrator 15.0.0, SVG Export Plug-In . SVG Version: 6.00 Build 0)  -->
<!DOCTYPE svg PUBLIC "-//W3C//DTD SVG 1.1//EN" "http://www.w3.org/Graphics/SVG/1.1/DTD/svg11.dtd">
<svg version="1.1" id="Layer_1" xmlns="http://www.w3.org/2000/svg" xmlns:xlink="http://www.w3.org/1999/xlink" x="0px" y="0px"
	 width="466.4px" height="214.4px" viewBox="0 0 566 255.625" enable-background="new 0 0 566 255.625" xml:space="preserve">
<rect fill="#1C3F94" width="566" height="255.625"/>
<path fill="#FFFFFF" d="M103.581,74.439c-1.815-1.752-3.773-3-5.863-3.75c-2.095-0.75-4.391-1.128-6.893-1.128
	c-1.935,0-3.801,0.31-5.582,0.939c-1.786,0.624-3.332,1.472-4.643,2.531c-1.878,1.506-3.521,3.595-4.93,6.258
	c-1.402,2.662-2.559,5.49-3.469,8.502c-0.899,3.005-1.592,5.982-2.061,8.925c-0.47,2.943-0.704,5.388-0.704,7.329
	c0,4.328,1.013,7.425,3.045,9.303c2.039,1.878,4.93,2.823,8.68,2.823c2.943,0,5.502-0.533,7.689-1.598l3.189-14.817H82.38v-10.7
	h25.512l-6.75,31.494c-3.756,2.004-7.523,3.413-11.307,4.22c-3.779,0.807-7.615,1.219-11.491,1.219
	c-3.807,0-7.162-0.532-10.042-1.591c-2.874-1.071-5.296-2.582-7.265-4.552c-1.981-1.969-3.464-4.345-4.466-7.128
	c-1.002-2.788-1.5-5.862-1.5-9.246c0-3.744,0.389-7.409,1.174-10.975c0.784-3.567,1.866-6.905,3.24-10.037
	c1.374-3.126,2.989-5.988,4.832-8.582c1.85-2.599,3.836-4.769,5.96-6.521c3.819-3.189,7.477-5.376,10.976-6.567
	c3.503-1.19,7.385-1.78,11.633-1.78c3.939,0,7.523,0.618,10.741,1.861c3.217,1.253,6.023,3.114,8.393,5.605L103.581,74.439"/>
<path fill="#FFFFFF" d="M147.665,84.338c-1.254-1.351-3.223-2.027-5.92-2.027c-3.068,0-5.662,1.1-7.797,3.298
	c-1.254,1.254-2.353,2.886-3.287,4.895c-0.939,2.004-1.746,4.111-2.399,6.31c-0.658,2.192-1.162,4.311-1.5,6.349
	c-0.349,2.038-0.521,3.721-0.521,5.032c0,3.332,0.659,5.634,1.976,6.928c1.311,1.282,3.349,1.924,6.108,1.924
	c1.626,0,3.166-0.327,4.604-0.991c1.437-0.653,2.788-1.769,4.042-3.338c1.001-1.254,1.906-2.828,2.719-4.712
	c0.813-1.877,1.506-3.853,2.073-5.925c0.561-2.067,1.001-4.145,1.316-6.212c0.31-2.073,0.47-3.951,0.47-5.651
	C149.548,87.647,148.918,85.684,147.665,84.338 M163.352,98.714c-0.475,2.537-1.156,5.021-2.066,7.466
	c-0.911,2.439-2.044,4.752-3.424,6.945c-1.38,2.187-2.977,4.128-4.792,5.817c-2.622,2.381-5.634,4.15-9.012,5.313
	c-3.378,1.156-7.042,1.734-10.992,1.734c-3.441,0-6.458-0.458-9.057-1.362c-2.594-0.905-4.758-2.21-6.481-3.893
	c-1.718-1.695-3.023-3.716-3.894-6.058c-0.881-2.347-1.316-4.963-1.316-7.838c0-2.822,0.297-5.587,0.893-8.307
	c0.595-2.731,1.471-5.307,2.628-7.752c1.162-2.439,2.582-4.706,4.271-6.807c1.689-2.096,3.601-3.893,5.731-5.399
	c2.565-1.809,5.37-3.16,8.404-4.036c3.04-0.871,6.212-1.311,9.527-1.311c3.069,0,5.84,0.377,8.313,1.127s4.597,1.873,6.384,3.373
	c1.786,1.511,3.16,3.383,4.128,5.639c0.973,2.256,1.46,4.884,1.46,7.884C164.056,93.693,163.821,96.178,163.352,98.714z"/>
<polyline fill="#FFFFFF" points="195.092,125.256 165.075,125.256 175.958,73.81 188.995,73.81 180.275,114.997 199.97,114.997 
	195.092,125.256 "/>
<path fill="#FFFFFF" d="M236.783,85.489c-1.162-1.437-3.086-2.153-5.771-2.153h-4.689l-6.75,31.981h6.092
	c2.124,0,3.99-0.692,5.576-2.101c1.597-1.408,2.926-3.234,3.991-5.49c1.064-2.25,1.872-4.781,2.439-7.598
	c0.566-2.811,0.847-5.662,0.847-8.542C238.518,88.964,237.94,86.932,236.783,85.489 M250.764,104.417
	c-1.317,3.881-3.143,7.294-5.485,10.231c-2.347,2.942-5.129,5.318-8.347,7.133c-3.229,1.815-6.716,2.88-10.46,3.195
	c-1.134,0.12-2.382,0.2-3.756,0.235c-1.374,0.028-3.063,0.046-5.061,0.046H204.43l10.878-51.447h11.256c0.807,0,1.717,0,2.719,0
	c1.065,0,2.078,0.017,3.052,0.051c0.967,0.029,1.866,0.057,2.719,0.092c0.836,0.028,1.546,0.074,2.113,0.143
	c4.935,0.624,8.759,2.422,11.49,5.393c2.72,2.971,4.077,7.122,4.077,12.441C252.734,96.373,252.081,100.535,250.764,104.417z"/>
<path fill="#FFFFFF" d="M411.379,72.058c-1.38-1.254-2.914-2.124-4.603-2.623c-1.689-0.503-3.435-0.755-5.25-0.755
	c-2.193,0-4.397,0.538-6.619,1.597c-2.215,1.059-4.076,2.468-5.57,4.22c-1.443,1.626-2.731,3.687-3.853,6.194
	c-1.128,2.502-2.067,5.13-2.817,7.884c-0.75,2.748-1.323,5.45-1.735,8.113c-0.407,2.656-0.601,4.923-0.601,6.801
	c0,4.317,0.996,7.46,2.994,9.435c2.004,1.97,4.849,2.955,8.542,2.955c1.935,0,3.859-0.367,5.771-1.082
	c1.901-0.722,3.979-1.861,6.235-3.424l4.5,8.525c-3.006,2.124-6.08,3.67-9.24,4.637c-3.155,0.968-6.613,1.454-10.369,1.454
	c-7.38,0-13.071-1.969-17.084-5.908c-4.008-3.939-6.006-9.596-6.006-16.981c0-2.496,0.229-5.124,0.704-7.872
	c0.464-2.748,1.123-5.457,1.97-8.113c0.842-2.656,1.878-5.221,3.097-7.695c1.22-2.467,2.588-4.7,4.088-6.704
	c3.573-4.746,7.809-8.347,12.722-10.786c4.906-2.433,10.019-3.653,15.337-3.653c3.247,0,6.27,0.47,9.046,1.403
	c2.783,0.939,4.895,2.192,6.332,3.75L411.379,72.058"/>
<path fill="#FFFFFF" d="M457.381,107.502c-0.378,1.877-0.802,3.486-1.265,4.832c-0.475,1.345-0.974,2.496-1.506,3.469
	c-0.527,0.968-1.145,1.809-1.832,2.531c-0.687,0.721-1.466,1.425-2.336,2.107c-1.695,1.379-3.979,2.593-6.853,3.658
	s-6.349,1.597-10.414,1.597c-5.685,0-10.145-0.984-13.369-2.954c-3.217-1.969-4.82-4.712-4.82-8.21c0-0.75,0.04-1.7,0.131-2.857
	c0.092-1.156,0.269-2.267,0.521-3.326l7.409-34.976h13.042l-7.128,33.487c-0.195,0.871-0.349,1.689-0.475,2.439
	s-0.189,1.374-0.189,1.872c0,1.254,0.515,2.302,1.546,3.144c1.036,0.847,2.582,1.265,4.643,1.265c3.315,0,5.679-0.796,7.082-2.388
	c1.408-1.597,2.456-4.053,3.143-7.362l6.945-32.457h13.042L457.381,107.502"/>
<path fill="#FFFFFF" d="M495.746,84.167c-0.836-0.848-2.451-1.266-4.827-1.266h-5.811L482.2,96.779h5.719
	c2.748,0,4.953-0.75,6.613-2.25c1.655-1.5,2.479-3.813,2.479-6.939C497.011,86.147,496.593,85.008,495.746,84.167 M509.813,92.754
	c-0.75,2.165-1.804,4.117-3.144,5.869c-1.345,1.752-2.919,3.24-4.74,4.46c-1.809,1.219-3.779,2.084-5.908,2.582
	c-1.621,0.372-3.338,0.641-5.159,0.796c-1.809,0.16-3.716,0.234-5.719,0.234h-5.159l-3.847,18.121h-12.756l10.878-51.441h14.542
	c2.691,0,4.907,0.058,6.658,0.184c1.752,0.126,3.207,0.315,4.363,0.566c1.162,0.252,2.13,0.516,2.909,0.796
	c0.784,0.281,1.545,0.607,2.295,0.985c1.941,0.939,3.413,2.302,4.409,4.082c1.002,1.786,1.5,3.773,1.5,5.96
	C510.935,88.329,510.563,90.596,509.813,92.754z"/>
<polyline fill="#FFFFFF" points="310.988,202.163 315.711,202.163 315.711,203.405 314.131,203.405 314.131,207.201 
	312.568,207.201 312.568,203.405 310.988,203.405 310.988,202.163 "/>
<polyline fill="#FFFFFF" points="316.421,202.163 318.471,202.163 319.261,205.226 320.045,202.163 322.089,202.163 
	322.089,207.201 320.818,207.201 320.818,203.359 319.828,207.201 318.677,207.201 317.692,203.359 317.692,207.201 
	316.421,207.201 316.421,202.163 "/>
<path fill="#FCB33D" d="M132.493,61.065c-0.784,0.292-1.734,0.435-2.862,0.435c-0.951,0-1.844-0.154-2.685-0.469
	c-0.836-0.309-1.609-0.853-2.308-1.632c-0.618-0.67-1.059-1.483-1.339-2.427c-0.281-0.951-0.413-1.976-0.413-3.069
	c0-0.968,0.075-1.815,0.241-2.565c0.154-0.744,0.424-1.471,0.807-2.164c0.659-1.202,1.512-2.078,2.577-2.634
	c1.059-0.549,2.261-0.836,3.601-0.836c0.395,0,0.79,0.035,1.173,0.081c0.39,0.051,0.75,0.126,1.1,0.234
	c0.337,0.098,0.652,0.218,0.933,0.35c0.292,0.131,0.521,0.286,0.693,0.463l-1.666,2.897c-0.693-0.538-1.455-0.807-2.279-0.807
	c-0.332,0-0.653,0.046-0.951,0.137c-0.297,0.098-0.549,0.247-0.755,0.453c-0.189,0.189-0.344,0.389-0.47,0.589
	c-0.126,0.206-0.229,0.436-0.309,0.699c-0.074,0.263-0.137,0.567-0.166,0.887c-0.029,0.332-0.04,0.722-0.04,1.174
	c0,1.26,0.04,2.227,0.132,2.903c0.086,0.675,0.292,1.196,0.612,1.563c0.246,0.292,0.533,0.526,0.859,0.704
	c0.315,0.177,0.687,0.263,1.088,0.263c0.498,0,0.956-0.069,1.374-0.217c0.412-0.149,0.836-0.413,1.259-0.79l1.689,2.668
	C133.901,60.407,133.271,60.773,132.493,61.065"/>
<path fill="#FCB33D" d="M145.546,51.166c-0.097-0.618-0.241-1.099-0.441-1.443c-0.195-0.354-0.447-0.601-0.75-0.738
	c-0.309-0.137-0.676-0.206-1.099-0.206c-0.882,0-1.523,0.429-1.918,1.288c-0.39,0.865-0.59,2.027-0.59,3.487
	c0,0.979,0.057,1.78,0.178,2.404c0.114,0.63,0.28,1.122,0.503,1.489c0.218,0.366,0.481,0.618,0.796,0.756
	c0.309,0.137,0.67,0.206,1.077,0.206c0.406,0,0.761-0.075,1.076-0.212c0.303-0.149,0.55-0.407,0.738-0.773
	c0.189-0.361,0.333-0.865,0.43-1.5c0.091-0.63,0.137-1.443,0.137-2.416C145.684,52.557,145.638,51.779,145.546,51.166
	 M149.777,56.199c-0.195,1.03-0.55,1.923-1.077,2.708c-0.515,0.784-1.219,1.408-2.095,1.883c-0.887,0.476-2.009,0.71-3.366,0.71
	c-1.117,0-2.09-0.171-2.949-0.521c-0.859-0.355-1.569-0.858-2.158-1.511c-0.584-0.659-1.025-1.449-1.323-2.376
	c-0.298-0.933-0.452-1.964-0.452-3.103c0-1.357,0.177-2.548,0.527-3.578c0.349-1.037,0.841-1.896,1.465-2.6
	c0.63-0.704,1.374-1.225,2.227-1.574c0.853-0.355,1.781-0.533,2.794-0.533c1.3,0,2.376,0.224,3.241,0.67
	c0.859,0.447,1.551,1.025,2.061,1.735c0.509,0.704,0.876,1.494,1.088,2.364c0.211,0.871,0.315,1.718,0.315,2.548
	C150.075,54.121,149.978,55.18,149.777,56.199z"/>
<path fill="#FCB33D" d="M161.623,61.243l-2.696-5.302c-0.206-0.389-0.407-0.847-0.619-1.357c-0.217-0.509-0.4-1.013-0.566-1.511
	c0.051,0.292,0.097,0.773,0.148,1.443c0.046,0.675,0.075,1.488,0.075,2.433v4.294h-3.727V45.968h3.773l2.782,5.238
	c0.218,0.413,0.435,0.865,0.659,1.38c0.217,0.515,0.417,1.025,0.612,1.535c-0.028-0.224-0.051-0.476-0.069-0.768
	c-0.011-0.297-0.028-0.595-0.04-0.899c-0.017-0.303-0.023-0.612-0.023-0.921c0-0.304,0-0.584,0-0.83v-4.735h3.722v15.275H161.623"/>
<path fill="#FCB33D" d="M179.422,61.065c-0.784,0.292-1.735,0.435-2.857,0.435c-0.95,0-1.849-0.154-2.691-0.469
	c-0.836-0.309-1.608-0.853-2.307-1.632c-0.613-0.67-1.059-1.483-1.334-2.427c-0.28-0.951-0.418-1.976-0.418-3.069
	c0-0.968,0.08-1.815,0.241-2.565c0.154-0.744,0.429-1.471,0.807-2.164c0.658-1.202,1.517-2.078,2.576-2.634
	c1.059-0.549,2.262-0.836,3.601-0.836c0.395,0,0.79,0.035,1.174,0.081c0.389,0.051,0.75,0.126,1.099,0.234
	c0.338,0.098,0.653,0.218,0.945,0.35c0.28,0.131,0.51,0.286,0.681,0.463l-1.66,2.897c-0.699-0.538-1.46-0.807-2.279-0.807
	c-0.338,0-0.652,0.046-0.956,0.137c-0.298,0.098-0.549,0.247-0.756,0.453c-0.188,0.189-0.343,0.389-0.469,0.589
	c-0.12,0.206-0.229,0.436-0.303,0.699c-0.081,0.263-0.138,0.567-0.166,0.887c-0.029,0.332-0.046,0.722-0.046,1.174
	c0,1.26,0.04,2.227,0.131,2.903c0.086,0.675,0.292,1.196,0.613,1.563c0.246,0.292,0.532,0.526,0.859,0.704
	c0.32,0.177,0.687,0.263,1.093,0.263c0.493,0,0.951-0.069,1.369-0.217c0.418-0.149,0.835-0.413,1.259-0.79l1.689,2.668
	C180.836,60.407,180.201,60.773,179.422,61.065"/>
<path fill="#FCB33D" d="M190.369,52.512c-0.075-0.332-0.143-0.705-0.189-1.105c-0.052-0.407-0.086-0.75-0.098-1.048
	c-0.028,0.298-0.074,0.647-0.137,1.059c-0.057,0.407-0.149,0.865-0.281,1.374l-0.612,2.502h1.969L190.369,52.512 M192.602,61.243
	l-0.791-2.926h-3.618l-0.83,2.926h-4.116l4.906-15.275h4.076l4.626,15.275H192.602z"/>
<path fill="#FCB33D" d="M208.936,61.065c-0.779,0.292-1.735,0.435-2.863,0.435c-0.95,0-1.843-0.154-2.685-0.469
	c-0.836-0.309-1.609-0.853-2.307-1.632c-0.619-0.67-1.065-1.483-1.34-2.427c-0.275-0.951-0.412-1.976-0.412-3.069
	c0-0.968,0.08-1.815,0.24-2.565c0.16-0.744,0.43-1.471,0.807-2.164c0.665-1.202,1.518-2.078,2.571-2.634
	c1.065-0.549,2.267-0.836,3.607-0.836c0.401,0,0.79,0.035,1.174,0.081c0.389,0.051,0.75,0.126,1.099,0.234
	c0.343,0.098,0.653,0.218,0.939,0.35c0.286,0.131,0.509,0.286,0.687,0.463l-1.661,2.897c-0.698-0.538-1.465-0.807-2.278-0.807
	c-0.338,0-0.659,0.046-0.956,0.137c-0.298,0.098-0.55,0.247-0.756,0.453c-0.189,0.189-0.344,0.389-0.469,0.589
	c-0.121,0.206-0.229,0.436-0.304,0.699c-0.08,0.263-0.137,0.567-0.172,0.887c-0.023,0.332-0.04,0.722-0.04,1.174
	c0,1.26,0.04,2.227,0.132,2.903c0.086,0.675,0.292,1.196,0.613,1.563c0.246,0.292,0.532,0.526,0.858,0.704
	c0.321,0.177,0.682,0.263,1.094,0.263c0.492,0,0.95-0.069,1.368-0.217c0.412-0.149,0.836-0.413,1.26-0.79l1.689,2.668
	C210.35,60.407,209.714,60.773,208.936,61.065"/>
<path fill="#FCB33D" d="M219.882,52.512c-0.08-0.332-0.143-0.705-0.194-1.105c-0.046-0.407-0.081-0.75-0.092-1.048
	c-0.029,0.298-0.08,0.647-0.137,1.059c-0.058,0.407-0.155,0.865-0.281,1.374l-0.618,2.502h1.975L219.882,52.512 M222.115,61.243
	l-0.79-2.926h-3.613l-0.841,2.926h-4.111l4.907-15.275h4.07l4.626,15.275H222.115z"/>
<polyline fill="#FCB33D" points="237.734,49.18 233.508,49.18 233.508,51.75 236.949,51.75 236.949,54.871 233.531,54.871 
	233.531,61.243 229.609,61.243 229.609,45.968 238.02,45.968 237.734,49.18 "/>
<path fill="#FCB33D" d="M132.493,61.065c-0.784,0.292-1.734,0.435-2.862,0.435c-0.951,0-1.844-0.154-2.685-0.469
	c-0.836-0.309-1.609-0.853-2.308-1.632c-0.618-0.67-1.059-1.483-1.339-2.427c-0.281-0.951-0.413-1.976-0.413-3.069
	c0-0.968,0.075-1.815,0.241-2.565c0.154-0.744,0.424-1.471,0.807-2.164c0.659-1.202,1.512-2.078,2.577-2.634
	c1.059-0.549,2.261-0.836,3.601-0.836c0.395,0,0.79,0.035,1.173,0.081c0.39,0.051,0.75,0.126,1.1,0.234
	c0.337,0.098,0.652,0.218,0.933,0.35c0.292,0.131,0.521,0.286,0.693,0.463l-1.666,2.897c-0.693-0.538-1.455-0.807-2.279-0.807
	c-0.332,0-0.653,0.046-0.951,0.137c-0.297,0.098-0.549,0.247-0.755,0.453c-0.189,0.189-0.344,0.389-0.47,0.589
	c-0.126,0.206-0.229,0.436-0.309,0.699c-0.074,0.263-0.137,0.567-0.166,0.887c-0.029,0.332-0.04,0.722-0.04,1.174
	c0,1.26,0.04,2.227,0.132,2.903c0.086,0.675,0.292,1.196,0.612,1.563c0.246,0.292,0.533,0.526,0.859,0.704
	c0.315,0.177,0.687,0.263,1.088,0.263c0.498,0,0.956-0.069,1.374-0.217c0.412-0.149,0.836-0.413,1.259-0.79l1.689,2.668
	C133.901,60.407,133.271,60.773,132.493,61.065"/>
<path fill="#FCB33D" d="M145.546,51.166c-0.097-0.618-0.241-1.099-0.441-1.443c-0.195-0.354-0.447-0.601-0.75-0.738
	c-0.309-0.137-0.676-0.206-1.099-0.206c-0.882,0-1.523,0.429-1.918,1.288c-0.39,0.865-0.59,2.027-0.59,3.487
	c0,0.979,0.057,1.78,0.178,2.404c0.114,0.63,0.28,1.122,0.503,1.489c0.218,0.366,0.481,0.618,0.796,0.756
	c0.309,0.137,0.67,0.206,1.077,0.206c0.406,0,0.761-0.075,1.076-0.212c0.303-0.149,0.55-0.407,0.738-0.773
	c0.189-0.361,0.333-0.865,0.43-1.5c0.091-0.63,0.137-1.443,0.137-2.416C145.684,52.557,145.638,51.779,145.546,51.166
	 M149.777,56.199c-0.195,1.03-0.55,1.923-1.077,2.708c-0.515,0.784-1.219,1.408-2.095,1.883c-0.887,0.476-2.009,0.71-3.366,0.71
	c-1.117,0-2.09-0.171-2.949-0.521c-0.859-0.355-1.569-0.858-2.158-1.511c-0.584-0.659-1.025-1.449-1.323-2.376
	c-0.298-0.933-0.452-1.964-0.452-3.103c0-1.357,0.177-2.548,0.527-3.578c0.349-1.037,0.841-1.896,1.465-2.6
	c0.63-0.704,1.374-1.225,2.227-1.574c0.853-0.355,1.781-0.533,2.794-0.533c1.3,0,2.376,0.224,3.241,0.67
	c0.859,0.447,1.551,1.025,2.061,1.735c0.509,0.704,0.876,1.494,1.088,2.364c0.211,0.871,0.315,1.718,0.315,2.548
	C150.075,54.121,149.978,55.18,149.777,56.199z"/>
<path fill="#FCB33D" d="M161.623,61.243l-2.696-5.302c-0.206-0.389-0.407-0.847-0.619-1.357c-0.217-0.509-0.4-1.013-0.566-1.511
	c0.051,0.292,0.097,0.773,0.148,1.443c0.046,0.675,0.075,1.488,0.075,2.433v4.294h-3.727V45.968h3.773l2.782,5.238
	c0.218,0.413,0.435,0.865,0.659,1.38c0.217,0.515,0.417,1.025,0.612,1.535c-0.028-0.224-0.051-0.476-0.069-0.768
	c-0.011-0.297-0.028-0.595-0.04-0.899c-0.017-0.303-0.023-0.612-0.023-0.921c0-0.304,0-0.584,0-0.83v-4.735h3.722v15.275H161.623"/>
<path fill="#FCB33D" d="M179.422,61.065c-0.784,0.292-1.735,0.435-2.857,0.435c-0.95,0-1.849-0.154-2.691-0.469
	c-0.836-0.309-1.608-0.853-2.307-1.632c-0.613-0.67-1.059-1.483-1.334-2.427c-0.28-0.951-0.418-1.976-0.418-3.069
	c0-0.968,0.08-1.815,0.241-2.565c0.154-0.744,0.429-1.471,0.807-2.164c0.658-1.202,1.517-2.078,2.576-2.634
	c1.059-0.549,2.262-0.836,3.601-0.836c0.395,0,0.79,0.035,1.174,0.081c0.389,0.051,0.75,0.126,1.099,0.234
	c0.338,0.098,0.653,0.218,0.945,0.35c0.28,0.131,0.51,0.286,0.681,0.463l-1.66,2.897c-0.699-0.538-1.46-0.807-2.279-0.807
	c-0.338,0-0.652,0.046-0.956,0.137c-0.298,0.098-0.549,0.247-0.756,0.453c-0.188,0.189-0.343,0.389-0.469,0.589
	c-0.12,0.206-0.229,0.436-0.303,0.699c-0.081,0.263-0.138,0.567-0.166,0.887c-0.029,0.332-0.046,0.722-0.046,1.174
	c0,1.26,0.04,2.227,0.131,2.903c0.086,0.675,0.292,1.196,0.613,1.563c0.246,0.292,0.532,0.526,0.859,0.704
	c0.32,0.177,0.687,0.263,1.093,0.263c0.493,0,0.951-0.069,1.369-0.217c0.418-0.149,0.835-0.413,1.259-0.79l1.689,2.668
	C180.836,60.407,180.201,60.773,179.422,61.065"/>
<path fill="#FCB33D" d="M190.369,52.512c-0.075-0.332-0.143-0.705-0.189-1.105c-0.052-0.407-0.086-0.75-0.098-1.048
	c-0.028,0.298-0.074,0.647-0.137,1.059c-0.057,0.407-0.149,0.865-0.281,1.374l-0.612,2.502h1.969L190.369,52.512 M192.602,61.243
	l-0.791-2.926h-3.618l-0.83,2.926h-4.116l4.906-15.275h4.076l4.626,15.275H192.602z"/>
<path fill="#FCB33D" d="M208.936,61.065c-0.779,0.292-1.735,0.435-2.863,0.435c-0.95,0-1.843-0.154-2.685-0.469
	c-0.836-0.309-1.609-0.853-2.307-1.632c-0.619-0.67-1.065-1.483-1.34-2.427c-0.275-0.951-0.412-1.976-0.412-3.069
	c0-0.968,0.08-1.815,0.24-2.565c0.16-0.744,0.43-1.471,0.807-2.164c0.665-1.202,1.518-2.078,2.571-2.634
	c1.065-0.549,2.267-0.836,3.607-0.836c0.401,0,0.79,0.035,1.174,0.081c0.389,0.051,0.75,0.126,1.099,0.234
	c0.343,0.098,0.653,0.218,0.939,0.35c0.286,0.131,0.509,0.286,0.687,0.463l-1.661,2.897c-0.698-0.538-1.465-0.807-2.278-0.807
	c-0.338,0-0.659,0.046-0.956,0.137c-0.298,0.098-0.55,0.247-0.756,0.453c-0.189,0.189-0.344,0.389-0.469,0.589
	c-0.121,0.206-0.229,0.436-0.304,0.699c-0.08,0.263-0.137,0.567-0.172,0.887c-0.023,0.332-0.04,0.722-0.04,1.174
	c0,1.26,0.04,2.227,0.132,2.903c0.086,0.675,0.292,1.196,0.613,1.563c0.246,0.292,0.532,0.526,0.858,0.704
	c0.321,0.177,0.682,0.263,1.094,0.263c0.492,0,0.95-0.069,1.368-0.217c0.412-0.149,0.836-0.413,1.26-0.79l1.689,2.668
	C210.35,60.407,209.714,60.773,208.936,61.065"/>
<path fill="#FCB33D" d="M219.882,52.512c-0.08-0.332-0.143-0.705-0.194-1.105c-0.046-0.407-0.081-0.75-0.092-1.048
	c-0.029,0.298-0.08,0.647-0.137,1.059c-0.058,0.407-0.155,0.865-0.281,1.374l-0.618,2.502h1.975L219.882,52.512 M222.115,61.243
	l-0.79-2.926h-3.613l-0.841,2.926h-4.111l4.907-15.275h4.07l4.626,15.275H222.115z"/>
<polyline fill="#FCB33D" points="237.734,49.18 233.508,49.18 233.508,51.75 236.949,51.75 236.949,54.871 233.531,54.871 
	233.531,61.243 229.609,61.243 229.609,45.968 238.02,45.968 237.734,49.18 "/>
<path fill="#FCB33D" d="M358.582,148.249c-1.197,1.769-2.92,3.658-5.176,5.656c-0.469,0.424-1.059,0.928-1.752,1.523
	c-0.687,0.59-1.397,1.18-2.124,1.77c-0.733,0.589-1.46,1.173-2.176,1.734c-0.715,0.561-1.362,1.025-1.923,1.391
	c0.481-0.057,1.128-0.108,1.964-0.148c0.83-0.04,1.591-0.063,2.301-0.063h8.445l-2.239,4.729h-18.114l0.847-3.968
	c0.504-0.395,1.128-0.899,1.861-1.5c0.732-0.607,1.5-1.236,2.296-1.901c0.801-0.664,1.591-1.316,2.37-1.981
	c0.773-0.664,1.454-1.259,2.044-1.797c1.574-1.403,2.805-2.628,3.692-3.676c0.888-1.036,1.558-1.947,2.004-2.719
	c0.447-0.773,0.722-1.443,0.825-2.004c0.097-0.561,0.143-1.065,0.143-1.517c0-0.934-0.281-1.586-0.842-1.964
	c-0.561-0.384-1.248-0.567-2.067-0.567c-0.898,0-1.866,0.235-2.891,0.71c-1.03,0.481-2.25,1.214-3.647,2.198l-2.284-3.715
	c1.803-1.351,3.578-2.388,5.336-3.098c1.757-0.721,3.721-1.082,5.891-1.082c1.071,0,2.044,0.155,2.914,0.464
	s1.609,0.739,2.216,1.288c0.607,0.556,1.07,1.208,1.391,1.981c0.321,0.779,0.487,1.632,0.487,2.559
	C360.374,144.579,359.772,146.479,358.582,148.249"/>
<path fill="#FCB33D" d="M377.767,142.191c-0.12-0.464-0.292-0.83-0.504-1.094c-0.212-0.269-0.458-0.452-0.738-0.549
	c-0.281-0.104-0.59-0.149-0.928-0.149c-0.567,0-1.105,0.171-1.626,0.503c-0.515,0.344-0.99,0.819-1.414,1.438
	c-0.647,0.933-1.202,2.072-1.666,3.44c-0.464,1.369-0.859,2.771-1.185,4.22c-0.321,1.448-0.561,2.851-0.716,4.202
	c-0.154,1.351-0.235,2.479-0.235,3.372c0,1.529,0.218,2.525,0.659,3.006c0.435,0.475,1.002,0.716,1.706,0.716
	c0.59,0,1.168-0.206,1.735-0.613c0.561-0.412,1.076-0.979,1.557-1.712c0.595-0.984,1.111-2.158,1.563-3.521
	c0.452-1.368,0.824-2.754,1.116-4.156c0.304-1.409,0.521-2.771,0.659-4.077c0.143-1.305,0.212-2.387,0.212-3.229
	C377.961,143.256,377.898,142.655,377.767,142.191 M383.578,150.046c-0.263,1.557-0.641,3.04-1.122,4.448
	c-0.475,1.409-1.059,2.714-1.746,3.928c-0.693,1.208-1.46,2.273-2.302,3.206c-1.156,1.265-2.399,2.216-3.738,2.851
	c-1.334,0.63-2.817,0.95-4.449,0.95c-2.399,0-4.237-0.83-5.531-2.473c-1.293-1.643-1.94-3.922-1.94-6.819
	c0-1.631,0.131-3.234,0.4-4.809c0.264-1.58,0.659-3.074,1.18-4.5c0.521-1.414,1.151-2.731,1.878-3.945
	c0.732-1.208,1.563-2.278,2.49-3.206c1.157-1.128,2.393-1.975,3.716-2.553c1.322-0.578,2.674-0.865,4.053-0.865
	c2.393,0,4.243,0.813,5.554,2.445c1.305,1.637,1.964,3.819,1.964,6.544C383.984,146.886,383.847,148.478,383.578,150.046z"/>
<path fill="#FCB33D" d="M401.406,142.191c-0.126-0.464-0.292-0.83-0.503-1.094c-0.212-0.269-0.458-0.452-0.739-0.549
	c-0.28-0.104-0.595-0.149-0.927-0.149c-0.567,0-1.105,0.171-1.632,0.503c-0.515,0.344-0.991,0.819-1.409,1.438
	c-0.646,0.933-1.202,2.072-1.666,3.44c-0.463,1.369-0.864,2.771-1.185,4.22c-0.32,1.448-0.561,2.851-0.715,4.202
	c-0.161,1.351-0.235,2.479-0.235,3.372c0,1.529,0.217,2.525,0.658,3.006c0.43,0.475,1.002,0.716,1.706,0.716
	c0.59,0,1.174-0.206,1.735-0.613c0.561-0.412,1.076-0.979,1.557-1.712c0.596-0.984,1.111-2.158,1.563-3.521
	c0.447-1.368,0.825-2.754,1.117-4.156c0.292-1.409,0.515-2.771,0.658-4.077c0.138-1.305,0.212-2.387,0.212-3.229
	C401.601,143.256,401.532,142.655,401.406,142.191 M407.217,150.046c-0.264,1.557-0.642,3.04-1.123,4.448
	c-0.475,1.409-1.059,2.714-1.752,3.928c-0.687,1.208-1.454,2.273-2.295,3.206c-1.157,1.265-2.399,2.216-3.739,2.851
	c-1.334,0.63-2.817,0.95-4.454,0.95c-2.393,0-4.231-0.83-5.531-2.473c-1.294-1.643-1.941-3.922-1.941-6.819
	c0-1.631,0.138-3.234,0.407-4.809c0.263-1.58,0.658-3.074,1.179-4.5c0.521-1.414,1.145-2.731,1.878-3.945
	c0.733-1.208,1.563-2.278,2.491-3.206c1.156-1.128,2.393-1.975,3.715-2.553c1.317-0.578,2.674-0.865,4.054-0.865
	c2.387,0,4.236,0.813,5.548,2.445c1.311,1.637,1.963,3.819,1.963,6.544C407.618,146.886,407.486,148.478,407.217,150.046z"/>
<path fill="#FCB33D" d="M427.759,141.607h-8.273l-1.809,5.696c0.612-0.086,1.288-0.126,2.021-0.126c2.279,0,4.071,0.584,5.382,1.752
	c1.306,1.168,1.964,2.72,1.964,4.661c0,1.666-0.372,3.246-1.099,4.746c-0.733,1.511-1.781,2.84-3.149,3.996
	c-1.357,1.151-3.017,2.061-4.958,2.742c-1.941,0.676-4.134,1.008-6.584,1.008c-0.676,0-1.208-0.011-1.598-0.04
	c-0.4-0.029-0.921-0.109-1.568-0.252l-0.332-4.288c0.755,0.229,1.431,0.378,2.021,0.446c0.595,0.075,1.196,0.109,1.82,0.109
	c1.122,0,2.187-0.143,3.184-0.423c0.996-0.281,1.889-0.687,2.679-1.22c0.79-0.532,1.454-1.174,1.987-1.918
	c0.532-0.744,0.899-1.563,1.093-2.462c0.315-1.345,0.132-2.427-0.55-3.24c-0.675-0.813-1.7-1.22-3.08-1.22
	c-0.87,0-1.792,0.058-2.765,0.166c-0.967,0.115-2.176,0.384-3.607,0.808l4.689-15.779h14.388L427.759,141.607"/>
<path fill="#FFFFFF" d="M233.445,187.397c0.79-18.487,16.403-32.84,34.884-32.061c18.487,0.784,32.846,16.403,32.056,34.901
	c-0.785,18.481-16.403,32.828-34.878,32.044C247.014,221.508,232.667,205.884,233.445,187.397"/>
<polyline fill="#1C3F94" points="274.724,172.93 262.112,186.029 266.869,202.168 284.514,202.913 290.469,187.231 274.724,172.93 
	"/>
<polyline fill="#FCB33D" points="262.123,28.855 345.374,28.855 305.32,209.897 262.123,28.855 "/>
<polyline fill="#FCB33D" points="349.765,32.725 382.759,27.447 321.099,155.245 364.822,41.571 349.765,32.725 "/>
<polyline fill="#FCB33D" points="258.596,30.836 242.405,27.67 289.856,161.531 251.778,39.241 258.596,30.836 "/>
<polyline fill="#FFFFFF" points="272.955,31.3 305.526,205.747 284.034,31.3 272.955,31.3 "/>
<polygon fill="#FFFFFF" points="231.924,154.404 256.36,149.792 256.56,150.335 232.656,163.856 231.924,154.404 "/>
<polygon fill="#1C3F94" points="232.549,154.882 233.169,162.892 254.73,150.696 232.549,154.882 "/>
<polygon fill="#FFFFFF" points="226.476,137.538 226.558,137.256 226.748,137.479 226.558,137.256 226.476,137.538 225.954,137.384 
	240.421,125.072 273.146,150.559 272.885,151.071 226.476,137.538 "/>
<polygon fill="#1C3F94" points="271.578,150.08 240.438,125.828 227.162,137.126 271.578,150.08 "/>
<polygon fill="#FFFFFF" points="293.342,130.028 293.447,129.787 306.565,133.881 284.944,149.33 293.342,130.028 "/>
<polygon fill="#1C3F94" points="286.327,147.623 305.264,134.09 293.775,130.504 286.327,147.623 "/>
<polygon fill="#FFFFFF" points="291.346,157.844 291.574,157.66 291.346,157.844 290.822,157.196 308.545,161.087 300.304,168.923 
	291.346,157.844 "/>
<polygon fill="#1C3F94" points="300.361,168.061 307.34,161.423 292.327,158.126 300.361,168.061 "/>
<polygon fill="#FFFFFF" points="266.759,130.74 267,130.575 267.208,130.782 267,130.575 266.759,130.74 266.62,130.539 
	278.756,118.434 280.021,150.076 266.759,130.74 "/>
<polygon fill="#1C3F94" points="279.354,148.062 278.225,119.791 267.38,130.609 279.354,148.062 "/>
<polyline fill="#FCB33D" points="283.879,212.52 286.719,228.172 338.28,210.447 283.879,212.52 "/>
<path fill="#1C3F94" d="M269.749,155.474l0.029,5.176l-14.199,9.286l-5.937-2.387c0,0-0.447-1.105-3.922,8.404
	c-3.486,9.499-2.914,9.527-2.914,9.527l9.613,0.744l4.328,15.888l-6.567,3.286c0,0,3.441,2.995,8.336,5.348
	c4.895,2.347,8.336,5.341,8.336,5.341l1.666-5.633l14.949,2.015l1.162,5.09c-13.122,4.671-27.304,1.568-34.689-6.464
	c-4.775-5.199-15.447-22.775-10.781-31.861c4.66-9.075,11.72-21.922,23.319-23.611C265.77,155.147,269.749,155.474,269.749,155.474"
	/>
</svg>
