<?xml version="1.0" encoding="utf-8"?>
<!-- Generator: Adobe Illustrator 15.0.0, SVG Export Plug-In . SVG Version: 6.00 Build 0)  -->
<!DOCTYPE svg PUBLIC "-//W3C//DTD SVG 1.1//EN" "http://www.w3.org/Graphics/SVG/1.1/DTD/svg11.dtd">
<svg version="1.1" id="Layer_1" xmlns="http://www.w3.org/2000/svg" xmlns:xlink="http://www.w3.org/1999/xlink" x="0px" y="0px"
	 width="185.5px" height="84.666px" viewBox="0 0 185.5 84.666" enable-background="new 0 0 185.5 84.666" xml:space="preserve">
<g>
	<g>
		<path fill="#FFFFFF" d="M185.5,41.833c0-11.827-21.617-22.053-53.021-26.939L138.5,0l-16,3.333L80.167,3.667L68.333,1l4.37,11.392
			C29.826,15.081,0,27.237,0,41.833c0,14.761,30.507,27.022,74.164,29.524C78.248,77.243,84.781,78,86.833,78
			c2.166,0,4.334-0.667,4.334-0.667l1.166,7.333l42-13.833l-12.458-0.356C158.913,67.064,185.5,57.27,185.5,41.833z"/>
	</g>
	<g>
		<path fill="#254A9F" d="M183.5,41.833c-0.367-11.396-20.36-21.164-52.964-25.541l5.297-14.125l-13,2.333l-43,0.167l-9.166-2
			l4.07,11.595C28.937,16.736,2,29.668,2,41.833c0,12.212,27.141,25.2,73.265,27.603c2.833,5.563,8.689,7.064,11.568,7.064
			c3.333,0,5.667-2,5.667-2l1,8.5l33.833-11.334l-20.646-1.384l0.462-0.794C153.538,67.52,183.992,57.097,183.5,41.833z"/>
	</g>
	<g>
		<path fill="#F5C028" d="M34.106,33.868c-0.61-0.589-1.27-1.011-1.976-1.263c-0.703-0.253-1.479-0.379-2.321-0.379
			c-0.651,0-1.28,0.105-1.878,0.314c-0.602,0.211-1.122,0.497-1.564,0.855c-0.632,0.507-1.184,1.209-1.657,2.104
			c-0.473,0.897-0.864,1.851-1.171,2.865c-0.304,1.011-0.536,2.015-0.693,3.007c-0.16,0.991-0.236,1.812-0.236,2.468
			c0,1.454,0.341,2.497,1.026,3.132c0.684,0.633,1.659,0.947,2.921,0.947c0.99,0,1.853-0.178,2.591-0.535l1.072-4.99h-3.252v-3.605
			h8.591l-2.273,10.608c-1.263,0.674-2.532,1.147-3.806,1.419c-1.273,0.274-2.564,0.412-3.869,0.412
			c-1.284,0-2.413-0.182-3.38-0.537c-0.972-0.359-1.79-0.869-2.45-1.531c-0.666-0.665-1.166-1.465-1.502-2.401
			c-0.337-0.938-0.507-1.975-0.507-3.112c0-1.262,0.133-2.495,0.396-3.697c0.264-1.199,0.626-2.326,1.09-3.378
			c0.465-1.055,1.008-2.018,1.629-2.892s1.291-1.605,2.007-2.197c1.285-1.072,2.517-1.808,3.696-2.208
			c1.18-0.401,2.484-0.601,3.915-0.601c1.327,0,2.534,0.209,3.617,0.627c1.086,0.421,2.025,1.049,2.826,1.889L34.106,33.868"/>
		<path fill="#F5C028" d="M48.952,37.201c-0.422-0.454-1.089-0.682-1.996-0.682c-1.029,0-1.906,0.369-2.624,1.11
			c-0.423,0.421-0.793,0.971-1.107,1.647c-0.317,0.678-0.586,1.384-0.808,2.124c-0.221,0.74-0.39,1.453-0.507,2.141
			c-0.116,0.686-0.174,1.251-0.174,1.695c0,1.119,0.223,1.898,0.667,2.328c0.44,0.433,1.127,0.65,2.057,0.65
			c0.546,0,1.063-0.109,1.55-0.332c0.483-0.223,0.937-0.597,1.36-1.126c0.336-0.423,0.643-0.95,0.917-1.585
			c0.274-0.634,0.506-1.299,0.696-1.997c0.19-0.695,0.338-1.394,0.442-2.092c0.104-0.695,0.158-1.33,0.158-1.903
			C49.584,38.317,49.371,37.656,48.952,37.201 M54.232,42.043c-0.157,0.854-0.391,1.691-0.694,2.515
			c-0.306,0.821-0.69,1.602-1.154,2.338c-0.466,0.738-1.001,1.39-1.613,1.961c-0.885,0.8-1.896,1.396-3.033,1.785
			c-1.141,0.392-2.373,0.586-3.702,0.586c-1.159,0-2.176-0.154-3.052-0.458c-0.873-0.306-1.6-0.745-2.18-1.313
			c-0.581-0.568-1.017-1.247-1.311-2.04c-0.296-0.786-0.442-1.669-0.442-2.64c0-0.947,0.098-1.88,0.299-2.794
			c0.201-0.92,0.496-1.788,0.885-2.612c0.391-0.82,0.87-1.584,1.438-2.29c0.573-0.705,1.214-1.313,1.931-1.817
			c0.863-0.614,1.807-1.063,2.827-1.36c1.026-0.297,2.095-0.443,3.213-0.443c1.029,0,1.964,0.128,2.796,0.379
			c0.833,0.255,1.549,0.633,2.15,1.141c0.601,0.504,1.063,1.135,1.391,1.896c0.327,0.76,0.489,1.644,0.489,2.655
			C54.469,40.35,54.392,41.19,54.232,42.043z"/>
		<polyline fill="#F5C028" points="64.921,50.98 54.814,50.98 58.477,33.654 62.868,33.654 59.932,47.524 66.563,47.524 
			64.921,50.98 		"/>
		<path fill="#F5C028" d="M78.959,37.591c-0.391-0.485-1.037-0.726-1.943-0.726h-1.579l-2.272,10.771h2.051
			c0.717,0,1.342-0.239,1.883-0.712c0.531-0.475,0.983-1.089,1.34-1.848c0.359-0.757,0.632-1.61,0.821-2.559
			c0.188-0.946,0.282-1.904,0.282-2.875C79.541,38.76,79.348,38.076,78.959,37.591 M83.669,43.963
			c-0.446,1.307-1.06,2.454-1.848,3.444c-0.791,0.99-1.73,1.791-2.812,2.403c-1.087,0.61-2.26,0.97-3.525,1.074
			c-0.378,0.043-0.799,0.067-1.26,0.08c-0.463,0.011-1.033,0.016-1.708,0.016h-4.452l3.663-17.326h3.792c0.275,0,0.579,0,0.914,0
			c0.359,0,0.701,0.008,1.026,0.02c0.328,0.011,0.634,0.02,0.916,0.031c0.285,0.012,0.522,0.025,0.714,0.047
			c1.661,0.212,2.95,0.815,3.864,1.819c0.917,1,1.377,2.396,1.377,4.188C84.331,41.253,84.11,42.656,83.669,43.963z"/>
		<path fill="#F5C028" d="M137.751,33.067c-0.463-0.422-0.98-0.717-1.55-0.887c-0.568-0.166-1.156-0.25-1.768-0.25
			c-0.737,0-1.48,0.179-2.228,0.536s-1.374,0.833-1.879,1.422c-0.482,0.547-0.916,1.241-1.296,2.086
			c-0.378,0.842-0.694,1.726-0.945,2.653c-0.253,0.927-0.449,1.837-0.584,2.732c-0.138,0.896-0.206,1.66-0.206,2.292
			c0,1.452,0.336,2.511,1.01,3.175c0.675,0.663,1.633,0.995,2.875,0.995c0.653,0,1.301-0.122,1.944-0.365
			c0.641-0.241,1.34-0.626,2.099-1.151l1.517,2.872c-1.012,0.716-2.047,1.235-3.11,1.561c-1.063,0.326-2.229,0.489-3.491,0.489
			c-2.487,0-4.403-0.663-5.757-1.991c-1.345-1.327-2.021-3.23-2.021-5.717c0-0.842,0.075-1.724,0.237-2.65
			c0.158-0.929,0.379-1.838,0.663-2.732c0.286-0.894,0.632-1.758,1.045-2.589c0.408-0.833,0.868-1.584,1.376-2.258
			c1.201-1.601,2.629-2.812,4.282-3.633s3.373-1.231,5.164-1.231c1.096,0,2.11,0.157,3.049,0.474
			c0.935,0.315,1.646,0.737,2.13,1.262L137.751,33.067"/>
		<path fill="#F5C028" d="M153.243,45.001c-0.128,0.634-0.271,1.174-0.427,1.63c-0.158,0.453-0.328,0.838-0.509,1.168
			c-0.178,0.323-0.384,0.609-0.616,0.849c-0.229,0.245-0.494,0.482-0.784,0.713c-0.572,0.463-1.343,0.873-2.31,1.23
			c-0.97,0.356-2.138,0.537-3.503,0.537c-1.918,0-3.421-0.333-4.503-0.995c-1.086-0.661-1.629-1.584-1.629-2.762
			c0-0.254,0.019-0.574,0.049-0.963c0.032-0.39,0.09-0.765,0.176-1.121l2.491-11.78h4.393l-2.4,11.278
			c-0.063,0.297-0.118,0.569-0.156,0.821c-0.042,0.253-0.065,0.463-0.065,0.631c0,0.422,0.173,0.774,0.521,1.06
			s0.868,0.427,1.566,0.427c1.115,0,1.91-0.269,2.384-0.806c0.472-0.539,0.825-1.362,1.058-2.479l2.337-10.932h4.392L153.243,45.001
			"/>
		<path fill="#F5C028" d="M166.163,37.145c-0.283-0.284-0.826-0.428-1.627-0.428h-1.956l-0.98,4.674h1.925
			c0.928,0,1.672-0.251,2.228-0.758c0.56-0.503,0.839-1.283,0.839-2.338C166.591,37.813,166.448,37.428,166.163,37.145
			 M170.9,40.036c-0.255,0.728-0.609,1.386-1.061,1.976c-0.454,0.593-0.984,1.091-1.594,1.503c-0.613,0.411-1.272,0.7-1.989,0.868
			c-0.55,0.126-1.129,0.216-1.741,0.27c-0.608,0.052-1.252,0.077-1.925,0.077h-1.737l-1.298,6.103h-4.294l3.666-17.325h4.896
			c0.904,0,1.652,0.022,2.244,0.066c0.588,0.042,1.078,0.104,1.466,0.188c0.391,0.084,0.717,0.176,0.979,0.271
			c0.264,0.094,0.521,0.205,0.772,0.333c0.654,0.314,1.149,0.771,1.487,1.372c0.337,0.603,0.507,1.27,0.507,2.009
			C171.279,38.546,171.151,39.31,170.9,40.036z"/>
	</g>
	<g>
		<path fill="#00B5EF" d="M44.186,29.202c-0.258,0.092-0.572,0.141-0.945,0.141c-0.313,0-0.607-0.051-0.885-0.154
			s-0.531-0.281-0.764-0.538c-0.204-0.223-0.352-0.491-0.441-0.804c-0.09-0.312-0.137-0.65-0.137-1.013
			c0-0.317,0.025-0.599,0.078-0.844c0.054-0.248,0.143-0.486,0.268-0.718c0.217-0.395,0.502-0.684,0.852-0.866
			c0.35-0.185,0.746-0.275,1.189-0.275c0.129,0,0.258,0.009,0.389,0.025c0.126,0.017,0.246,0.041,0.358,0.076
			c0.114,0.033,0.216,0.073,0.313,0.117c0.092,0.042,0.168,0.094,0.228,0.152l-0.55,0.958c-0.232-0.181-0.481-0.267-0.753-0.267
			c-0.11,0-0.217,0.014-0.315,0.047c-0.099,0.031-0.182,0.08-0.247,0.147c-0.063,0.063-0.116,0.127-0.156,0.195
			c-0.042,0.066-0.075,0.145-0.104,0.231c-0.026,0.088-0.043,0.183-0.054,0.293c-0.01,0.109-0.014,0.238-0.014,0.387
			c0,0.415,0.014,0.734,0.043,0.959c0.029,0.222,0.097,0.395,0.203,0.515c0.082,0.098,0.176,0.173,0.281,0.232
			s0.227,0.086,0.362,0.086c0.164,0,0.314-0.022,0.452-0.072c0.139-0.047,0.277-0.136,0.416-0.259l0.558,0.879
			C44.651,28.983,44.443,29.105,44.186,29.202"/>
		<path fill="#00B5EF" d="M48.492,25.932c-0.027-0.201-0.078-0.361-0.146-0.476c-0.063-0.117-0.146-0.198-0.247-0.243
			c-0.101-0.046-0.222-0.069-0.361-0.069c-0.291,0-0.504,0.143-0.633,0.426c-0.129,0.285-0.193,0.667-0.193,1.149
			c0,0.323,0.02,0.587,0.059,0.795c0.037,0.208,0.091,0.371,0.164,0.492c0.071,0.119,0.16,0.202,0.262,0.248
			c0.105,0.047,0.225,0.07,0.356,0.07c0.137,0,0.253-0.026,0.356-0.072c0.098-0.048,0.182-0.135,0.242-0.253
			c0.064-0.12,0.113-0.286,0.141-0.496c0.033-0.208,0.049-0.477,0.049-0.799C48.541,26.392,48.525,26.134,48.492,25.932
			 M49.893,27.595c-0.065,0.338-0.184,0.635-0.355,0.896c-0.172,0.255-0.4,0.464-0.695,0.619c-0.291,0.156-0.66,0.233-1.107,0.233
			c-0.367,0-0.692-0.057-0.974-0.171c-0.284-0.117-0.521-0.283-0.712-0.501c-0.193-0.217-0.34-0.477-0.438-0.784
			c-0.102-0.305-0.15-0.645-0.15-1.023c0-0.448,0.061-0.842,0.174-1.183c0.116-0.339,0.277-0.625,0.486-0.857
			c0.207-0.232,0.451-0.404,0.733-0.52c0.282-0.117,0.589-0.174,0.922-0.174c0.429,0,0.785,0.073,1.07,0.221
			c0.284,0.146,0.511,0.337,0.68,0.571c0.171,0.232,0.288,0.493,0.358,0.78c0.07,0.288,0.105,0.568,0.105,0.843
			C49.99,26.909,49.957,27.257,49.893,27.595z"/>
		<path fill="#00B5EF" d="M53.803,29.259l-0.893-1.75c-0.066-0.129-0.134-0.278-0.204-0.448c-0.071-0.17-0.133-0.335-0.185-0.5
			c0.016,0.096,0.031,0.254,0.049,0.479c0.014,0.22,0.025,0.488,0.025,0.801v1.418h-1.23v-5.042h1.244l0.917,1.727
			c0.071,0.137,0.145,0.288,0.218,0.457c0.071,0.168,0.139,0.338,0.203,0.506c-0.012-0.072-0.018-0.156-0.022-0.253
			c-0.007-0.095-0.011-0.195-0.016-0.293c-0.003-0.104-0.007-0.205-0.007-0.306s0-0.194,0-0.275v-1.561h1.229v5.042H53.803"/>
		<path fill="#00B5EF" d="M59.678,29.202c-0.258,0.092-0.573,0.141-0.947,0.141c-0.313,0-0.607-0.051-0.884-0.154
			c-0.278-0.103-0.532-0.281-0.763-0.538c-0.203-0.223-0.35-0.491-0.44-0.804c-0.093-0.312-0.14-0.65-0.14-1.013
			c0-0.317,0.027-0.599,0.082-0.844c0.053-0.248,0.143-0.486,0.268-0.718c0.217-0.395,0.498-0.684,0.849-0.866
			c0.351-0.185,0.745-0.275,1.19-0.275c0.129,0,0.259,0.009,0.387,0.025c0.127,0.017,0.248,0.041,0.361,0.076
			c0.113,0.033,0.219,0.073,0.311,0.117c0.095,0.042,0.17,0.094,0.229,0.152l-0.551,0.958c-0.232-0.181-0.48-0.267-0.751-0.267
			c-0.11,0-0.216,0.014-0.313,0.047c-0.1,0.031-0.184,0.08-0.25,0.147c-0.064,0.063-0.115,0.127-0.156,0.195
			c-0.041,0.066-0.074,0.145-0.101,0.231c-0.026,0.088-0.046,0.183-0.056,0.293c-0.008,0.109-0.014,0.238-0.014,0.387
			c0,0.415,0.014,0.734,0.043,0.959c0.027,0.222,0.098,0.395,0.203,0.515c0.082,0.098,0.175,0.173,0.281,0.232
			c0.105,0.059,0.229,0.086,0.362,0.086c0.163,0,0.313-0.022,0.452-0.072c0.137-0.047,0.275-0.136,0.416-0.259l0.555,0.879
			C60.145,28.983,59.934,29.105,59.678,29.202"/>
		<path fill="#00B5EF" d="M63.289,26.375c-0.024-0.108-0.044-0.232-0.061-0.363c-0.018-0.133-0.03-0.249-0.031-0.346
			c-0.012,0.097-0.026,0.212-0.046,0.348c-0.019,0.135-0.05,0.286-0.094,0.456l-0.202,0.826h0.65L63.289,26.375 M64.027,29.259
			l-0.26-0.967h-1.194L62.3,29.259h-1.36l1.618-5.042h1.347l1.527,5.042H64.027z"/>
		<path fill="#00B5EF" d="M69.417,29.202c-0.255,0.092-0.57,0.141-0.94,0.141c-0.314,0-0.611-0.051-0.887-0.154
			c-0.277-0.103-0.532-0.281-0.764-0.538c-0.201-0.223-0.35-0.491-0.44-0.804c-0.093-0.312-0.14-0.65-0.14-1.013
			c0-0.317,0.027-0.599,0.08-0.844c0.055-0.248,0.143-0.486,0.27-0.718c0.213-0.395,0.5-0.684,0.85-0.866
			c0.348-0.185,0.746-0.275,1.186-0.275c0.133,0,0.263,0.009,0.391,0.025c0.127,0.017,0.248,0.041,0.361,0.076
			c0.113,0.033,0.219,0.073,0.313,0.117c0.094,0.042,0.168,0.094,0.227,0.152l-0.551,0.958c-0.23-0.181-0.48-0.267-0.751-0.267
			c-0.11,0-0.216,0.014-0.313,0.047c-0.102,0.031-0.186,0.08-0.25,0.147c-0.064,0.063-0.115,0.127-0.155,0.195
			c-0.042,0.066-0.077,0.145-0.101,0.231c-0.027,0.088-0.047,0.183-0.057,0.293c-0.01,0.109-0.015,0.238-0.015,0.387
			c0,0.415,0.015,0.734,0.044,0.959c0.027,0.222,0.098,0.395,0.201,0.515c0.084,0.098,0.178,0.173,0.283,0.232
			c0.107,0.059,0.227,0.086,0.362,0.086c0.163,0,0.313-0.022,0.452-0.072c0.139-0.047,0.275-0.136,0.416-0.259l0.557,0.879
			C69.885,28.983,69.676,29.105,69.417,29.202"/>
		<path fill="#00B5EF" d="M73.031,26.375c-0.023-0.108-0.044-0.232-0.061-0.363c-0.018-0.133-0.029-0.249-0.033-0.346
			c-0.012,0.097-0.023,0.212-0.044,0.348c-0.019,0.135-0.05,0.286-0.094,0.456l-0.202,0.826h0.65L73.031,26.375 M73.77,29.259
			l-0.26-0.967h-1.194l-0.276,0.967H70.68l1.623-5.042h1.344l1.527,5.042H73.77z"/>
		<polyline fill="#00B5EF" points="78.926,25.277 77.529,25.277 77.529,26.127 78.666,26.127 78.666,27.155 77.539,27.155 
			77.539,29.259 76.245,29.259 76.245,24.217 79.021,24.217 78.926,25.277 		"/>
	</g>
	<path fill="#FFFFFF" d="M119.71,57.389c-0.4,0.592-0.973,1.221-1.726,1.885c-0.159,0.143-0.353,0.311-0.586,0.506
		c-0.227,0.197-0.466,0.395-0.707,0.596c-0.245,0.193-0.487,0.389-0.725,0.576c-0.241,0.186-0.453,0.342-0.642,0.463
		c0.16-0.02,0.38-0.035,0.657-0.049c0.274-0.014,0.529-0.023,0.765-0.023h2.815l-0.747,1.578h-6.04l0.282-1.322
		c0.169-0.133,0.378-0.297,0.62-0.5c0.246-0.201,0.501-0.412,0.769-0.635c0.268-0.221,0.528-0.438,0.788-0.658
		c0.257-0.225,0.484-0.422,0.682-0.6c0.524-0.469,0.937-0.877,1.232-1.225c0.295-0.348,0.519-0.65,0.669-0.908
		s0.241-0.482,0.273-0.668c0.033-0.188,0.05-0.357,0.05-0.51c0-0.307-0.094-0.523-0.28-0.65c-0.189-0.129-0.421-0.191-0.688-0.191
		c-0.303,0-0.625,0.08-0.968,0.238c-0.344,0.16-0.747,0.404-1.217,0.73l-0.76-1.234c0.599-0.453,1.191-0.797,1.78-1.039
		c0.587-0.234,1.238-0.357,1.964-0.357c0.357,0,0.679,0.051,0.972,0.154c0.29,0.104,0.536,0.248,0.739,0.432
		c0.201,0.18,0.355,0.402,0.463,0.66c0.108,0.26,0.163,0.543,0.163,0.852C120.309,56.164,120.109,56.799,119.71,57.389"/>
	<path fill="#FFFFFF" d="M127.108,55.371c-0.044-0.154-0.101-0.277-0.17-0.367c-0.07-0.09-0.153-0.15-0.247-0.184
		c-0.092-0.033-0.197-0.049-0.308-0.049c-0.189,0-0.369,0.057-0.544,0.17c-0.173,0.111-0.329,0.271-0.47,0.477
		c-0.215,0.311-0.401,0.693-0.556,1.146c-0.156,0.457-0.288,0.926-0.396,1.408c-0.107,0.484-0.188,0.951-0.236,1.4
		c-0.057,0.453-0.077,0.826-0.077,1.127c0,0.506,0.073,0.84,0.214,1c0.149,0.16,0.339,0.238,0.573,0.238
		c0.195,0,0.39-0.068,0.575-0.205c0.188-0.137,0.36-0.326,0.52-0.57c0.201-0.326,0.373-0.719,0.525-1.174
		c0.149-0.453,0.271-0.918,0.372-1.385c0.098-0.471,0.169-0.924,0.217-1.359c0.046-0.436,0.069-0.793,0.069-1.078
		C127.17,55.723,127.151,55.523,127.108,55.371 M129.044,57.986c-0.089,0.521-0.211,1.018-0.372,1.484
		c-0.16,0.471-0.353,0.906-0.583,1.311c-0.233,0.402-0.486,0.758-0.768,1.068c-0.384,0.422-0.801,0.74-1.246,0.949
		c-0.445,0.211-0.942,0.316-1.483,0.316c-0.799,0-1.413-0.273-1.843-0.822c-0.435-0.549-0.649-1.307-0.649-2.271
		c0-0.547,0.044-1.082,0.135-1.605c0.089-0.527,0.219-1.027,0.391-1.498c0.174-0.477,0.382-0.912,0.63-1.318
		c0.242-0.404,0.519-0.758,0.829-1.068c0.385-0.375,0.798-0.66,1.237-0.852c0.441-0.193,0.893-0.289,1.354-0.289
		c0.797,0,1.414,0.271,1.852,0.814c0.434,0.545,0.651,1.273,0.651,2.184C129.178,56.934,129.134,57.465,129.044,57.986z"/>
	<path fill="#FFFFFF" d="M136.488,55.371c-0.038-0.154-0.098-0.277-0.167-0.367c-0.072-0.09-0.154-0.15-0.247-0.184
		c-0.096-0.033-0.198-0.049-0.311-0.049c-0.188,0-0.371,0.057-0.539,0.17c-0.173,0.111-0.334,0.271-0.475,0.477
		c-0.213,0.311-0.4,0.693-0.554,1.146c-0.156,0.457-0.287,0.926-0.396,1.408c-0.105,0.484-0.188,0.951-0.239,1.4
		c-0.053,0.453-0.076,0.826-0.076,1.127c0,0.506,0.072,0.84,0.216,1c0.146,0.16,0.337,0.238,0.57,0.238
		c0.195,0,0.392-0.068,0.577-0.205c0.189-0.137,0.365-0.326,0.522-0.57c0.197-0.326,0.369-0.719,0.521-1.174
		c0.15-0.453,0.273-0.918,0.371-1.385c0.1-0.471,0.174-0.924,0.218-1.359c0.05-0.436,0.072-0.793,0.072-1.078
		C136.553,55.723,136.533,55.523,136.488,55.371 M138.425,57.986c-0.087,0.521-0.212,1.018-0.371,1.484
		c-0.156,0.471-0.353,0.906-0.583,1.311c-0.233,0.402-0.487,0.758-0.767,1.068c-0.386,0.422-0.803,0.74-1.247,0.949
		c-0.444,0.211-0.941,0.316-1.483,0.316c-0.799,0-1.413-0.273-1.845-0.822s-0.648-1.307-0.648-2.271
		c0-0.547,0.045-1.082,0.136-1.605c0.087-0.527,0.219-1.027,0.394-1.498c0.172-0.477,0.38-0.912,0.627-1.318
		c0.241-0.404,0.52-0.758,0.826-1.068c0.386-0.375,0.799-0.66,1.243-0.852c0.438-0.193,0.887-0.289,1.348-0.289
		c0.797,0,1.417,0.271,1.853,0.814c0.436,0.545,0.654,1.273,0.654,2.184C138.561,56.934,138.515,57.465,138.425,57.986z"/>
	<polyline fill="#00B5EF" points="164.978,48.693 166.795,48.693 166.795,49.17 166.189,49.17 166.189,50.625 165.588,50.625 
		165.588,49.17 164.978,49.17 164.978,48.693 	"/>
	<polyline fill="#00B5EF" points="167.066,48.693 167.854,48.693 168.155,49.869 168.456,48.693 169.239,48.693 169.239,50.625 
		168.751,50.625 168.751,49.152 168.375,50.625 167.932,50.625 167.558,49.152 167.558,50.625 167.066,50.625 167.066,48.693 	"/>
	<path fill="#254A9F" d="M79.648,52.784"/>
	<path fill="#FFFFFF" d="M141.433,55.715l0.132-1.707l7.222-0.131c0,0-3.151,4.334-3.939,5.516s-1.444,2.757-1.444,3.15
		c0,0.395-2.363-0.131-2.363-0.131s0.657-1.838,1.707-3.545s2.101-3.283,2.101-3.283L141.433,55.715z"/>
	<polygon fill="#FFFFFF" points="69.474,54.402 69.736,58.211 79.584,53.09 79.716,52.433 	"/>
	<polygon fill="#FFFFFF" points="81.821,47.407 85.1,45.079 89.958,50.857 	"/>
	<polygon fill="#FFFFFF" points="87.595,39.301 92.716,50.332 92.584,41.14 	"/>
	<polygon fill="#FFFFFF" points="96.918,44.291 94.816,50.332 101.645,45.604 	"/>
	<polygon fill="#FFFFFF" points="96.393,53.482 99.412,56.896 102.039,54.271 	"/>
	<g>
		<polyline fill="#F4BB4A" points="117.047,11.218 128.548,9.375 106.241,64.119 122.297,14.299 117.047,11.218 		"/>
		<polyline fill="#F4BB4A" points="85.263,10.557 79.623,9.452 89.805,38.125 90.362,37.668 82.887,13.488 85.263,10.557 		"/>
		<linearGradient id="SVGID_1_" gradientUnits="userSpaceOnUse" x1="93.9375" y1="76.5137" x2="113.7256" y2="76.5137">
			<stop  offset="0" style="stop-color:#F7DB48"/>
			<stop  offset="1" style="stop-color:#EC9E50"/>
		</linearGradient>
		<polygon fill="url(#SVGID_1_)" points="93.938,73.529 113.726,73.705 95.043,79.498 		"/>
		<g>
			<g>
				
					<linearGradient id="SVGID_2_" gradientUnits="userSpaceOnUse" x1="88.0664" y1="-39.6934" x2="117.1113" y2="-39.6934" gradientTransform="matrix(1 0 0 1 -1.667 81.333)">
					<stop  offset="0" style="stop-color:#F7DB48"/>
					<stop  offset="1" style="stop-color:#EC9E50"/>
				</linearGradient>
				<polygon fill="url(#SVGID_2_)" points="86.399,10.352 94.728,45.408 95.998,42.321 104.928,45.211 96.523,51.514 
					105.453,53.352 99.544,59.393 98.493,59.129 98.052,59.4 101.266,72.928 115.444,10.352 				"/>
			</g>
		</g>
		<polyline fill="#FFFFFF" points="90.273,10.722 96.167,42.292 98.089,42.816 94.136,10.722 90.273,10.722 		"/>
	</g>
	<path fill="#00B5EF" d="M8.413,50.726c0,0-3.939-4.333-3.414-8.929C5.524,37.2,10.924,25.049,49.12,19.342
		c11.424-1.707,17.727-2.101,22.454-2.232c4.747-0.132,6.828-0.131,6.828-0.131L74.595,6.21l3.939,0.919h43.858l8.798-2.757
		l-9.061,1.182L79.584,5.816l-6.696-1.444l3.808,11.556c0,0-28.758,0.131-52.394,8.404C0.666,32.604,0.271,45.211,8.413,50.726z"/>
	<path fill="#00B5EF" d="M129.743,16.978l-0.919,1.313c0,0,19.564,2.101,30.333,5.646s17.729,7.223,21.011,10.637
		s-6.828-9.323-26.919-13.394S129.743,16.978,129.743,16.978z"/>
	<g>
		<path fill="#F9F6ED" d="M34.412,30.241c-0.203-0.027-4.952-1.285-8.015-0.086c-3.068,1.2-6.497,5.715-7.192,9.473
			c-0.625,3.376-0.643,7.519,0.795,8.637l0.46-0.592c-0.955-0.743-1.188-4.291-0.518-7.908c0.644-3.479,3.914-7.811,6.728-8.911
			c2.881-1.127,7.645-0.509,7.692-0.503L34.412,30.241z"/>
	</g>
	<g>
		
			<rect x="28.502" y="39.911" transform="matrix(-0.9998 -0.0217 0.0217 -0.9998 62.1655 81.2456)" fill="#F9F6ED" width="6.042" height="0.75"/>
	</g>
	<g>
		<path fill="#F9F6ED" d="M31.287,42.248l-1.313,6.565l0.267-0.288c-0.022,0.007-2.308,0.637-3.403,0.515
			c-1.126-0.126-2.275-0.505-2.286-0.509l-0.237,0.212c0.05,0.017,1.233,0.908,2.44,1.042c1.239,0.138,3.588-0.509,3.688-0.537
			l0.222-0.061l0.045-0.227l1.313-6.566L31.287,42.248z"/>
	</g>
	<g>
		<path fill="#F9F6ED" d="M51.482,35.756c-0.161-0.061-3.696-2.098-5.642-1.403c-1.948,0.695-5.958,3.359-6.666,5.625
			c-0.666,2.131-0.673,7.5-0.673,7.728h0.75l0,0c0-0.055,0.007-5.482,0.639-7.504c0.605-1.937,4.386-4.494,6.202-5.143
			c1.687-0.602,5.351,0.771,5.388,0.785L51.482,35.756z"/>
	</g>
	<g>
		<path fill="#F9F6ED" d="M51.346,37.62L51.346,37.62c0.003,0.037-0.252,3.752-1.003,5.751l-0.248,0.682
			c-0.715,1.979-1.524,4.221-3.584,4.871l0.227,0.715c2.413-0.762,3.327-3.296,4.063-5.332l0.246-0.672
			c0.807-2.152,0.559-5.908,0.548-6.066L51.346,37.62z"/>
	</g>
	<g>
		<polygon fill="#F9F6ED" points="61.421,34.333 60.239,34.464 59.976,34.492 59.915,34.751 56.501,49.327 57.231,49.498 
			60.646,34.922 60.321,35.209 61.503,35.078 		"/>
	</g>
	<g>
		<polygon fill="#F9F6ED" points="59.755,48.762 65.271,49.262 65.271,48.512 59.755,48.512 		"/>
	</g>
	<g>
		<path fill="#F9F6ED" d="M82.735,36.281c-0.03-0.055-0.564-1.653-2.165-1.945c-1.474-0.268-6.952,0.11-7.185,0.127l-0.288,0.02
			l-0.054,0.284l-2.758,14.576l0.736,0.14l2.758-14.576l-0.342,0.305c0.056-0.004,5.615-0.388,6.997-0.137
			c1.243,0.227,1.835,1.249,1.841,1.26L82.735,36.281z"/>
	</g>
	<g>
		<path fill="#F9F6ED" d="M73.241,49.023c0.105,0.011,2.599,0.765,4.106,0.217c1.534-0.559,4.438-3.303,4.58-6.112
			c0.123-2.462-0.094-3.682-0.139-3.901l-0.233,0.156v-0.001c0.003,0.012-0.251,1.181-0.378,3.709
			c-0.123,2.461-2.753,4.959-4.086,5.444c-1.346,0.488-3.748,0.244-3.772,0.242L73.241,49.023z"/>
	</g>
	<g>
		<path fill="#F9F6ED" d="M137.098,29.866c-0.141,0-0.338-0.007-0.566-0.015c-2.056-0.071-7.385-0.655-9.979,2.927
			c-2.789,3.851-4.567,10.853-3.46,13.622l0.696-0.279c-1.013-2.532,0.751-9.285,3.371-12.903c2.36-3.258,7.53-3.079,9.477-3.011
			c0.235,0.008,0.439,0.015,0.593,0.015L137.098,29.866z"/>
	</g>
	<g>
		<path fill="#F9F6ED" d="M134.103,48.266L134.103,48.266c-0.013,0.004-1.298,0.385-2.557,0.512
			c-1.234,0.123-2.882-0.252-2.898-0.256l-0.168,0.23c0.071,0.018,1.782,0.907,3.141,0.771c1.333-0.134,2.643-0.523,2.697-0.539
			L134.103,48.266z"/>
	</g>
	<g>
		<path fill="#F9F6ED" d="M144.289,34.569l-1.575-0.368l-0.271,0.021l-0.063,0.265l-2.626,11.026
			c-0.006,0.026-0.56,2.717,0.23,3.508l0.531-0.531c-0.314-0.313-0.215-2.066-0.033-2.795l2.628-11.034l-0.334,0.286l1.575-0.131
			L144.289,34.569z"/>
	</g>
	<g>
		<path fill="#F9F6ED" d="M153.644,34.699l-1.313-0.5h-0.309l-0.06,0.303c-0.02,0.1-1.971,9.97-2.352,11.115
			c-0.375,1.127-1.224,2.564-2.378,2.91c-1.226,0.368-2.603,0.25-2.616,0.249l-0.068,0.247c0.063,0.006,1.532,0.633,2.899,0.223
			c1.429-0.428,2.422-2.033,2.874-3.392c0.396-1.19,2.296-10.8,2.377-11.208l-0.368,0.303h1.313V34.699z"/>
	</g>
	<g>
		<path fill="#F9F6ED" d="M168.943,35.23c-0.015-0.003-1.468-0.766-2.516-0.896c-1.065-0.134-6.269-0.009-6.489-0.004l-0.299,0.008
			l-0.06,0.292l-3.021,14.707l0.734,0.151l3.021-14.707l-0.358,0.299c0.054-0.001,5.368-0.129,6.378-0.002
			c1.027,0.128,2.461,0.387,2.475,0.391L168.943,35.23z"/>
	</g>
	<g>
		<path fill="#F9F6ED" d="M167.965,37.697c0.236,0.826-0.402,3.11-1.515,3.777c-1.223,0.734-1.815,0.734-2.17,0.734h-2.889v0.75
			h2.889c0.432,0,1.154,0,2.557-0.841c1.476-0.886,1.665-3.521,1.349-4.627L167.965,37.697z"/>
	</g>
	<polygon fill="#00B5EF" points="89.169,58.604 85.361,61.361 86.674,65.695 87.462,65.564 86.28,61.625 89.694,59.129 	"/>
	<path fill="#00B5EF" d="M76.694,62.412c0-9.191,8.272-10.111,8.272-10.111S83.1,53.734,81,55.083
		c-0.419,0.27-0.921-0.253-1.339,0.077c-2.038,1.607-3.886,3.941-3.886,7.121c0,7.091,5.063,11.161,8.929,11.161
		c0.124,0-7.065-1.625-7.926-9.458h2.898v-1.088H76.74L76.694,62.412z"/>
	<polygon fill="#00B5EF" points="86.167,73.083 86.834,71.416 90,71.166 89.75,72.083 87.75,72.333 87.167,73 	"/>
	<g>
		<g>
			<path fill="#FFFFFF" d="M93.75,54.083c0,0-1.25-0.833-2.666-1.333S86.5,52.5,86.5,52.5v1.833L82.417,57l-2.583-0.834
				c0,0-1,1.417-1.5,2.917s-0.417,3.083-0.417,3.083l2.833,0.25L82.167,68l-2.083,0.833c0,0,0.916,1.333,2.333,2.333
				s3.25,1.334,3.25,1.334l0.75-1.834H91L91.334,73c0,0,1.916-1,3.25-2.167S97,68.166,97,68.166L93.75,54.083z M91.917,66.666
				l-6-0.083l-1.667-5.5l5-3.833l4.417,4.333L91.917,66.666z"/>
		</g>
	</g>
</g>
</svg>
