<?xml version="1.0" encoding="utf-8"?>
<!-- Generator: Adobe Illustrator 15.0.0, SVG Export Plug-In . SVG Version: 6.00 Build 0)  -->
<!DOCTYPE svg PUBLIC "-//W3C//DTD SVG 1.1//EN" "http://www.w3.org/Graphics/SVG/1.1/DTD/svg11.dtd">
<svg version="1.1" id="Layer_1" xmlns="http://www.w3.org/2000/svg" xmlns:xlink="http://www.w3.org/1999/xlink" x="0px" y="0px"
	 width="468" height="213" viewBox="0 0 553.939 253.104" enable-background="new 0 0 553.939 253.104"
	 xml:space="preserve">
<path fill="#FFFFFF" d="M479.345,61.736c-24.154-7.782-53.203-13.762-86.236-17.848L411.59,0c0,0-47.284,8.644-48.008,8.776H238.14
	c-0.771-0.148-36.174-7.215-36.174-7.215l13.205,37.512c-56.037,3.189-103.924,10.865-140.573,22.663
	C25.792,77.436,0,99.328,0,125.054c0,25.706,25.792,47.614,74.597,63.312c37.446,12.062,86.626,19.807,144.25,22.865
	c7.816,12.894,21.982,21.526,38.125,21.526c4.205,0,8.259-0.598,12.114-1.688l4.039,22.034l126.1-40.814l-34.869-3.073
	c45.102-3.868,84.048-10.893,114.989-20.85c48.798-15.698,74.594-37.606,74.594-63.312
	C553.939,99.328,528.143,77.436,479.345,61.736"/>
<path fill="#1C3F94" d="M549.853,125.053c0-35.874-58.398-65.63-162.628-77.749l17.661-41.923l-40.931,7.489H237.735l-29.523-5.894
	l12.635,35.891C82.908,49.946,4.089,83.382,4.089,125.053c0,41.703,78.983,75.171,217.18,82.21
	c6.819,12.738,20.248,21.402,35.704,21.402c5.416,0,10.563-1.068,15.286-2.992l4.052,22.102l102.497-33.182l-59.841-5.272
	l0.628-1.488C465.875,202.295,549.853,168.062,549.853,125.053"/>
<path fill="#00B0E8" d="M254.699,184.214c1.913-1.468,7.754-5.964,10.85-8.34c-0.78-0.735-1.452-1.371-1.938-1.832
	c-2.532,1.944-9.771,7.516-11.949,9.188c0.899,2.589,3.713,10.737,4.595,13.302h2.695
	C257.837,193.307,255.495,186.535,254.699,184.214"/>
<path fill="#00B0E8" d="M254.76,219.511l2.224-5.479h9.903l-1.539,1.797h-6.988l-1.543,3.904
	C255.837,219.733,254.76,219.511,254.76,219.511"/>
<path fill="#00B0E8" d="M226.621,191.056h9.166l-0.561-2.207l-8.884-0.548c0-9.687,3.151-17.347,9.702-24.414l2.521,1.002
	c1.521-1.93,6.115-5.832,14.548-8.564c-0.006-0.265-0.01-0.546-0.01-0.877c-2.38,0.279-4.75,0.735-7.093,1.555
	c0,0-1.96,0.767-2.034,0.792c-12.036,5.191-19.818,16.988-19.818,30.065c0,15.932,11.45,29.224,26.542,32.142
	c-3.52-1.145-6.852-2.835-9.85-4.994C226.755,205.305,226.621,191.056,226.621,191.056"/>
<polygon fill="#FFC425" points="257.224,29.375 342.875,29.375 301.669,215.645 "/>
<polygon fill="#FFC425" points="347.395,33.351 382.021,26.446 315.821,189.456 315.925,187.847 362.889,42.458 "/>
<polygon fill="#E7A614" points="252.292,32.065 235.623,28.155 269.143,123.488 270.795,121.996 245.276,40.055 "/>
<polygon fill="#FFFFFF" points="268.97,35.533 286.143,122.681 290.123,123.818 280.37,35.533 "/>
<polygon fill="#E7A614" points="332.647,35.533 303.59,192.386 302.813,190.376 321.247,35.533 "/>
<polygon fill="#FFC425" points="339.292,219.893 285.486,233.665 283.307,219.893 "/>
<path fill="#E7A614" d="M190.127,139.87l-0.769,2.652h-18.882c0.436-2.933,5.941-39.906,5.941-39.906h-0.023l-1.981-2.645
	l-0.764,2.645h-10.379l-7.083,47.44l-2.454,0.406l1.995,2.659h34.89l1.515-10.6h-0.015L190.127,139.87z"/>
<path fill="#E7A614" d="M143.337,106.878c-3.904-2.963-8.889-4.468-14.807-4.468c-8.274,0-15.86,3.312-21.359,9.324
	c-4.88,5.317-7.354,11.956-7.354,19.74c0,7.515,3.264,14.459,8.729,18.578c3.923,2.962,8.746,4.401,14.741,4.401
	c8.59,0,15.847-3.16,21.569-9.393c4.717-5.089,7.213-11.889,7.213-19.67C152.07,117.771,148.887,111.022,143.337,106.878
	 M123.778,142.735c-6.527,0-10.423-4.576-10.423-12.24c0-9.526,6.175-16.438,14.686-16.438c6.08,0,10.493,4.943,10.493,11.751
	C138.533,135.777,132.465,142.735,123.778,142.735"/>
<path fill="#E7A614" d="M504.544,104.501c-4.056-1.953-9.143-1.953-16.181-1.953h-9.442l-7.101,47.562l-2.437,0.285l1.995,2.659
	h13.291c0,0,2.284-15.682,2.583-17.75h4.743c13.558,0,21.024-6.126,21.024-17.253C513.021,112.106,509.853,107.039,504.544,104.501
	 M490.668,124.772c0,0-0.928-0.057-1.827-0.111c0.332-2.19,1.513-10.007,1.769-11.704c0.201-0.008,0.408-0.019,0.408-0.019
	c4.021,0,8.815,0.984,8.815,5.674C499.833,120.136,499.833,124.772,490.668,124.772"/>
<path fill="#E7A614" d="M235.554,105.989c-5.488-2.856-13.111-3.442-22.865-3.442l-6.84,0.084l-0.192,1.167l-6.885,46.109
	l-2.476,0.555l1.997,2.66h21.387c11.308,0,17.982-2.255,23.037-7.788c3.988-4.439,6.093-10.247,6.093-16.8
	C248.808,118.455,244.101,110.447,235.554,105.989 M220.236,142.313h-7.056c0.417-2.765,4.041-26.851,4.341-28.858
	c0.446-0.014,0.896-0.028,0.896-0.028c10.711,0,16.854,5.403,16.854,14.827C235.272,137.059,229.651,142.313,220.236,142.313"/>
<path fill="#E7A614" d="M468.507,100.31l-0.611,2.66h-10.895l-3.878,25.993c-1.495,9.965-4.41,13.496-11.139,13.496
	c-3.478,0-9.308-1.009-9.308-7.769c0-1.358,0.236-3.628,0.755-7.357l3.665-24.363l-1.999-2.66l-0.599,2.66h-10.621l-3.673,24.525
	c-0.38,2.748-0.573,5.234-0.573,7.405c0,12.019,8.137,19.485,21.233,19.485c7.254,0,13.664-2.159,18.047-6.083
	c4.603-4.141,6.229-9.728,7.366-17.392l4.224-27.941L468.507,100.31z"/>
<path fill="#E7A614" d="M96.229,94.359c-4.691-1.046-9.247-1.561-13.873-1.561c-12.49,0-22.628,2.974-30.132,8.837
	c-8.478,6.661-13.146,15.916-13.146,26.057c0,17.259,12.633,26.761,35.57,26.761c4.787,0,9.619-0.561,14.772-1.717l0.617-0.136
	l4.743-31.594h-0.028l-2.018-2.69l-0.778,2.69H69.611l-1.182,8.207l-2.435,0.386l1.996,2.662h10.758
	c-0.229,1.585-1.113,7.732-1.27,8.828c-2.313,0.297-4.328,0.505-6.219,0.505c-11.203,0-17.372-5.268-17.372-14.834
	c0-12.875,10.966-21.523,27.284-21.523c4.328,0,9.26,0.758,14.662,2.253l1,0.277l1.983-12.789l-1.997-2.662L96.229,94.359z"/>
<path fill="#E7A614" d="M415.108,94.321c-4.361-1.111-8.946-1.675-13.662-1.675c-12.706,0-21.601,3.003-28.836,9.735
	c-6.885,6.362-10.375,14.457-10.375,24.058c0,16.456,11.595,27.947,28.201,27.947c6.464,0,12.701-1.457,18.533-4.33l0.432-0.211
	l2.661-16.987l-1.996-2.662l-1.084,5.216c-4.947,3.79-10.797,5.944-16.26,5.944c-10.072,0-15.849-5.374-15.849-14.748
	c0-13.067,9.578-21.185,24.998-21.185c3.798,0,8.024,0.574,12.911,1.755l0.979,0.235l1.883-12.384l-1.996-2.66L415.108,94.321z"/>
<path fill="#FFC425" d="M96.819,92.318l-1.981,12.789l-1-0.278c-5.403-1.495-10.335-2.253-14.663-2.253
	c-16.319,0-27.283,8.649-27.283,21.523c0,9.567,6.169,14.833,17.372,14.833c1.891,0,3.904-0.208,6.217-0.504
	c0.158-1.097,1.043-7.243,1.271-8.829H65.994l1.623-11.254h25.169l-4.743,31.594l-0.617,0.138
	c-5.155,1.156-9.986,1.717-14.773,1.717c-22.938,0-35.57-9.502-35.57-26.762c0-10.143,4.667-19.396,13.146-26.058
	c7.503-5.862,17.641-8.835,30.132-8.835c5.206,0,10.321,0.647,15.642,1.976L96.819,92.318z M150.073,122.73
	c0,7.779-2.496,14.582-7.213,19.669c-5.722,6.232-12.978,9.394-21.567,9.394c-5.995,0-10.818-1.44-14.741-4.403
	c-5.467-4.118-8.729-11.061-8.729-18.579c0-7.782,2.474-14.421,7.352-19.738c5.501-6.011,13.086-9.324,21.36-9.324
	c5.917,0,10.903,1.506,14.806,4.468C146.891,108.362,150.073,115.109,150.073,122.73 M111.358,127.831
	c0,7.667,3.897,12.242,10.424,12.242c8.688,0,14.756-6.957,14.756-16.925c0-6.81-4.415-11.752-10.495-11.752
	C117.536,111.396,111.358,118.307,111.358,127.831 M168.481,139.863c0.434-2.933,5.939-39.907,5.939-39.907h-13.147l-7.541,50.506
	h34.888l1.515-10.599H168.481z M246.812,125.873c0,6.554-2.105,12.359-6.093,16.801c-5.055,5.531-11.729,7.788-23.037,7.788h-21.387
	l7.366-49.325l0.192-1.167l6.839-0.084c9.755,0,17.377,0.585,22.865,3.441C242.106,107.786,246.812,115.792,246.812,125.873
	 M233.278,125.594c0-9.425-6.145-14.829-16.854-14.829c0,0-0.453,0.016-0.897,0.028c-0.301,2.007-3.925,26.093-4.341,28.858h7.055
	C227.656,139.651,233.278,134.396,233.278,125.594 M414.874,92.139c-4.881-1.429-10.068-2.153-15.423-2.153
	c-12.706,0-21.602,3.001-28.836,9.735c-6.886,6.361-10.377,14.456-10.377,24.056c0,16.456,11.597,27.947,28.201,27.947
	c6.465,0,12.703-1.455,18.536-4.329l0.429-0.212l2.662-16.987l-1.896,1.604c-5.18,4.383-11.537,6.897-17.444,6.897
	c-10.072,0-15.848-5.377-15.848-14.75c0-13.066,9.576-21.184,24.995-21.184c3.801,0,8.026,0.574,12.913,1.754l0.98,0.235
	l1.882-12.383L414.874,92.139z M455.006,100.31l-3.879,25.991c-1.494,9.966-4.41,13.497-11.138,13.497
	c-3.479,0-9.308-1.01-9.308-7.77c0-1.358,0.234-3.629,0.755-7.356l3.661-24.362h-13.215l-3.673,24.524
	c-0.38,2.747-0.575,5.236-0.575,7.406c0,12.018,8.14,19.484,21.236,19.484c7.253,0,13.661-2.159,18.044-6.082
	c4.604-4.141,6.23-9.726,7.365-17.394l4.226-27.938H455.006z M511.026,115.391c0,11.125-7.468,17.252-21.025,17.252h-4.743
	c-0.297,2.067-2.582,17.752-2.582,17.752h-13.292l7.541-50.508h9.443c7.039,0,12.126,0,16.182,1.953
	C507.858,104.378,511.026,109.444,511.026,115.391 M489.022,110.278c0,0-0.208,0.009-0.408,0.019
	c-0.255,1.697-1.437,9.513-1.77,11.704c0.902,0.055,1.829,0.112,1.829,0.112c9.164,0,9.164-4.638,9.164-6.162
	C497.837,111.262,493.044,110.278,489.022,110.278"/>
<path fill="#FFFFFF" d="M69.276,125.809h2.444c0.203-1.417,0.319-2.223,0.528-3.673h15.972c0.048-0.329,0.098-0.649,0.14-0.924
	H69.938C69.688,122.952,69.571,123.75,69.276,125.809"/>
<path fill="#FFFFFF" d="M166.37,143.652h19.234c0.039-0.274,0.08-0.571,0.131-0.926h-19.227
	C166.42,143.317,166.37,143.652,166.37,143.652"/>
<path fill="#FFFFFF" d="M42.161,125.492c0-9.096,4.216-17.418,11.868-23.436c6.905-5.394,16.353-8.128,28.081-8.128
	c3.433,0,6.846,0.377,10.305,1.008c0.025-0.158,0.046-0.296,0.071-0.462c-4.282-0.922-8.468-1.471-12.686-1.471
	c-11.728,0-21.176,2.736-28.082,8.128c-7.653,6.018-11.87,14.339-11.87,23.438c0,11.775,6.491,17.875,14.878,20.86
	C47.49,142.168,42.161,136.162,42.161,125.492"/>
<path fill="#FFFFFF" d="M141.617,123.611c0-7.138-4.102-12.802-10.003-14.526c4.63,2.382,7.691,7.442,7.691,13.601
	c0,11.737-7.605,20.254-18.084,20.254c-1.486,0-2.875-0.202-4.16-0.572c1.87,0.965,4.041,1.496,6.473,1.496
	C134.012,143.863,141.617,135.349,141.617,123.611"/>
<path fill="#FFFFFF" d="M236.044,125.13c0,10.728-7.038,17.387-18.365,17.387h-8.471l-0.138,0.926h10.919
	c11.328,0,18.365-6.664,18.365-17.388c0-8.542-4.259-14.495-11.779-16.927C232.643,111.967,236.044,117.513,236.044,125.13"/>
<path fill="#FFFFFF" d="M490.421,125.9c10.872,0,12.495-5.944,12.495-9.488c0-1.703-0.577-6.505-6.782-8.302
	c4.047,2.168,4.472,5.917,4.472,7.378c0,3.543-1.622,9.487-12.493,9.487c-0.204-0.006-2.03-0.118-2.03-0.118l-1.204-0.072
	l-0.116,0.775l3.631,0.222C488.393,125.782,490.219,125.895,490.421,125.9"/>
<path fill="#FFFFFF" d="M441.738,143.587c10.53,0,13.16-7.848,14.428-16.332c0,0,2.784-18.653,3.457-23.155h4.313
	c0.051-0.333,0.098-0.648,0.14-0.924h-6.763c-0.673,4.503-3.456,23.155-3.456,23.155c-1.272,8.484-3.9,16.33-14.432,16.33
	c-1.786,0-3.41-0.232-4.863-0.66C436.511,143.027,438.929,143.587,441.738,143.587"/>
<path fill="#FFFFFF" d="M382.556,140.416c2.781,1.344,6.115,2.068,9.918,2.068c4.013,0,8.175-1.037,12.118-2.901
	c0.111-0.705,0.232-1.474,0.366-2.324c-4.693,2.757-9.864,4.303-14.795,4.303C387.36,141.562,384.817,141.159,382.556,140.416"/>
<path fill="#FFFFFF" d="M422.714,132.701c0-2.02,0.184-4.358,0.539-6.914c0,0,2.582-17.252,3.248-21.688h4.032
	c0.051-0.327,0.101-0.646,0.142-0.924h-6.487c-0.663,4.435-3.245,21.688-3.245,21.688c-0.356,2.556-0.539,4.892-0.539,6.912
	c0,7.66,3.842,12.975,10.568,15.111C425.692,144.342,422.714,139.431,422.714,132.701"/>
<path fill="#FFFFFF" d="M481.543,103.677h6.575c5.451,0,9.64,0.013,12.84,0.932c-0.141-0.073-0.263-0.161-0.408-0.229
	c-3.377-1.628-8.146-1.628-14.742-1.628h-6.575c-0.692,4.649-5.634,37.722-6.547,43.851h2.448
	C476.318,138.662,480.877,108.131,481.543,103.677"/>
<path fill="#FFFFFF" d="M365.316,124.239c0-8.634,3.133-15.905,9.306-21.612l0.009-0.007c6.575-6.117,14.77-8.845,26.568-8.845
	c3.465,0,6.822,0.401,10.078,1.063c0.021-0.14,0.038-0.257,0.061-0.403c-3.985-0.984-8.137-1.585-12.449-1.585
	c-11.801,0-19.994,2.729-26.568,8.845l-0.009,0.007c-6.174,5.707-9.306,12.978-9.306,21.612c0,11.369,5.972,19.833,15.531,23.114
	C370.339,142.641,365.316,134.66,365.316,124.239"/>
<path fill="#FFFFFF" d="M165.892,103.745h3.97c0.051-0.346,0.099-0.666,0.139-0.924h-6.419c-0.696,4.65-5.632,37.721-6.549,43.853
	h2.45C160.667,138.73,165.225,108.2,165.892,103.745"/>
<path fill="#FFFFFF" d="M110.303,145.194c-4.635-3.493-7.403-9.445-7.403-15.921c0-6.922,2.179-12.806,6.478-17.49l0.002-0.002
	c4.862-5.315,11.577-8.243,18.904-8.243c2.819,0,5.37,0.392,7.657,1.146c-2.826-1.375-6.159-2.071-9.968-2.071
	c-7.329,0-14.043,2.929-18.905,8.244l-0.004,0.005c-4.296,4.683-6.476,10.564-6.476,17.486c0,6.478,2.768,12.429,7.403,15.922
	c1.504,1.135,3.187,1.994,5.055,2.607C112.076,146.401,111.16,145.842,110.303,145.194"/>
<path fill="#FFFFFF" d="M208.458,103.726c1.933-0.024,3.984-0.049,3.984-0.049c7.663,0,13.871,0.376,18.56,1.936
	c-4.873-2.353-11.875-2.86-20.87-2.86c0,0-2.052,0.024-3.985,0.049c-0.407,2.736-5.613,37.598-6.55,43.872h2.45
	C203.265,138.511,208.066,106.348,208.458,103.726"/>
<path fill="#FFFFFF" d="M77.656,142.191l2.508-0.322l2.179-15.138h-2.445l-2.045,14.214l-2.507,0.321
	c-2.154,0.275-4.447,0.531-6.643,0.531c-3.292,0-6.243-0.442-8.819-1.281c3.07,1.431,6.801,2.204,11.131,2.204
	C73.211,142.721,75.504,142.465,77.656,142.191"/>
<polygon fill="#1C3F94" points="231.831,141.022 262.787,154.891 271.46,149.71 254.687,126.217 "/>
<polygon fill="#1C3F94" points="273.276,152.954 280.222,156.404 312.107,133.611 285.317,125.249 "/>
<path fill="#1C3F94" d="M283.844,157.125c-0.587,0.479-3.387,2.742-3.387,2.742l13.897,17.195l18.871-17.938l-28.439-6.259
	C284.787,152.866,284.006,156.376,283.844,157.125"/>
<polygon fill="#1C3F94" points="256.853,132.88 272.56,155.789 279.607,151.58 278.789,124.432 273.673,114.861 254.348,108.167 "/>
<polygon fill="#FFFFFF" points="235.917,156.63 205.992,172.696 205.251,163.203 "/>
<polygon fill="#FFFFFF" points="252.017,133.929 265.171,150.699 241.369,140.148 "/>
<polygon fill="#FFFFFF" points="288.292,131.748 300.324,135.505 280.5,149.678 "/>
<polygon fill="#FFFFFF" points="286.309,158.646 302.304,162.164 294.866,169.237 "/>
<path fill="#FFFFFF" d="M274.197,148.774c-1.442-2.1-15.095-31.358-15.095-31.358l14.023,4.555L274.197,148.774z"/>
<path fill="#00B0E8" d="M476.981,69.081c-25.262-8.124-56.027-14.261-91.225-18.299l-0.96,2.287
	c36.382,3.998,68.113,10.199,94.059,18.481c27.856,8.894,47.899,19.908,59.039,32.178C527.219,90.483,506.478,78.583,476.981,69.081
	z"/>
<path fill="#00B0E8" d="M360.415,16.888H235.896L214.849,12.4l11.608,33.749c-3.099,0.173-6.418,0.387-8.962,0.548
	c-56.169,3.086-104.079,10.658-140.537,22.385c-44.65,14.37-69.23,34.252-69.23,55.972c0,9.585,4.799,18.817,14,27.376
	c-7.976-7.978-12.126-16.518-12.126-25.363c0-21.542,24.592-41.263,69.232-55.516c37.249-11.892,86.445-19.5,144.212-22.42
	l-0.018-0.042c2.414-0.112,4.93-0.243,7.133-0.365l-11.105-32.418l17.959,3.471h124.513l27.016-7.086L360.415,16.888z"/>
<path fill="#FFFFFF" d="M276.989,162.35c-5.539-4.286-12.461-6.866-20.017-6.866c-0.361,0-0.716,0.04-1.079,0.054l0.1,5.719
	l-13.438,8.771l-5.724-2.261c-3.914,4.991-6.313,11.214-6.544,17.993l7.854,0.611l4.451,16.34l-5.889,2.957
	c4.074,5.279,9.789,9.195,16.403,10.989l2.335-4.997h13.997l1.79,5.983c6.703-3.248,12.125-8.71,15.324-15.425
	C283.884,191.102,280.559,177.25,276.989,162.35 M271.503,199.263h-17.186l-5.871-16.996l15.348-11.803l13.825,13.037
	L271.503,199.263z"/>
<path fill="#00B0E8" d="M111.69,75.792c-2.641,0-4.354,1.644-4.354,4.006c0,2.408,1.713,4.028,4.354,4.028
	c1.667,0,3.219-0.508,4.816-1.527l0.14,4.283c-1.854,0.974-3.798,1.413-6.021,1.413c-2.454,0-4.56-0.811-6.205-2.339
	c-1.69-1.574-2.523-3.497-2.523-5.835c0-2.339,0.833-4.285,2.523-5.858c1.714-1.598,3.821-2.316,6.53-2.316
	c1.922,0,3.728,0.441,5.557,1.32v4.331C114.91,76.278,113.358,75.792,111.69,75.792"/>
<path fill="#00B0E8" d="M120.49,73.962c1.644-1.528,3.751-2.315,6.205-2.315c2.455,0,4.585,0.787,6.228,2.315
	c1.692,1.574,2.502,3.52,2.502,5.859c0,2.338-0.81,4.259-2.502,5.834c-1.643,1.527-3.772,2.339-6.228,2.339
	c-2.454,0-4.561-0.812-6.205-2.339c-1.69-1.575-2.525-3.497-2.525-5.834C117.964,77.482,118.799,75.536,120.49,73.962
	 M126.695,83.317c1.853,0,3.242-1.459,3.242-3.52s-1.389-3.497-3.242-3.497c-1.853,0-3.242,1.436-3.242,3.497
	S124.842,83.317,126.695,83.317"/>
<polygon fill="#00B0E8" points="136.975,71.901 141.955,71.901 149.017,79.82 149.017,71.901 154.434,71.901 154.434,87.716 
	149.456,87.716 142.394,79.798 142.394,87.716 136.975,87.716 "/>
<path fill="#00B0E8" d="M165.526,75.792c-2.639,0-4.354,1.644-4.354,4.006c0,2.408,1.714,4.028,4.354,4.028
	c1.667,0,3.218-0.508,4.816-1.527l0.138,4.283c-1.853,0.974-3.798,1.413-6.021,1.413c-2.454,0-4.56-0.811-6.205-2.339
	c-1.689-1.574-2.524-3.497-2.524-5.835c0-2.339,0.835-4.285,2.524-5.858c1.713-1.598,3.82-2.316,6.529-2.316
	c1.923,0,3.729,0.441,5.559,1.32v4.331C168.744,76.278,167.193,75.792,165.526,75.792"/>
<path fill="#00B0E8" d="M178.539,71.901h5.765l7.202,15.815h-5.488l-1.064-2.709h-7.156l-1.112,2.709h-5.534L178.539,71.901z
	 M183.748,81.974l-2.315-5.859l-2.385,5.859H183.748z"/>
<path fill="#00B0E8" d="M200.199,75.792c-2.641,0-4.354,1.644-4.354,4.006c0,2.408,1.712,4.028,4.354,4.028
	c1.667,0,3.219-0.508,4.816-1.527l0.138,4.283c-1.853,0.974-3.798,1.413-6.02,1.413c-2.455,0-4.56-0.811-6.205-2.339
	c-1.69-1.574-2.523-3.497-2.523-5.835c0-2.339,0.833-4.285,2.523-5.858c1.712-1.598,3.82-2.316,6.529-2.316
	c1.923,0,3.729,0.441,5.558,1.32v4.331C203.418,76.278,201.866,75.792,200.199,75.792"/>
<path fill="#00B0E8" d="M213.096,71.901h5.766l7.201,15.815h-5.488l-1.064-2.709h-7.155l-1.112,2.709h-5.535L213.096,71.901z
	 M218.305,81.974l-2.314-5.859l-2.385,5.859H218.305z"/>
<polygon fill="#00B0E8" points="226.919,71.901 238.473,71.901 238.473,75.352 232.359,75.352 232.359,78.223 238.172,78.223 
	238.172,81.58 232.359,81.58 232.359,87.716 226.919,87.716 "/>
<path fill="#00B0E8" d="M498.861,149.347h-1.303v3.285h-1.635v-3.285h-1.303v-1.22h4.24V149.347z M502.509,150.271l0.791-2.145
	h2.064v4.505h-1.469v-2.954l-1.106,2.954h-0.562l-1.105-2.954v2.954h-1.468v-4.505h2.063L502.509,150.271z"/>
<path fill="#FFFFFF" d="M342.075,186.579l5.067-5.103c3.413-3.446,5.205-5.998,5.205-8.616c0-2.241-1.516-3.758-3.93-3.758
	c-1.861,0-3.482,0.966-5.067,2.861v-6.067c2.379-1.931,4.825-2.825,7.79-2.825c5.172,0,8.377,3.066,8.377,7.755
	c0,3.515-2,6.722-5.929,10.34h7.823v5.826h-19.337V186.579z"/>
<path fill="#FFFFFF" d="M376.82,163.07c6.033,0,10.17,4.688,10.17,12.17c0,7.479-4.137,12.167-10.17,12.167
	c-6.031,0-10.168-4.724-10.168-12.167C366.652,167.792,370.789,163.07,376.82,163.07 M376.82,181.339
	c2.274,0,3.759-2.138,3.759-6.099c0-3.966-1.484-6.139-3.759-6.139c-2.275,0-3.757,2.173-3.757,6.139
	C373.063,179.201,374.544,181.339,376.82,181.339"/>
<path fill="#FFFFFF" d="M401.638,163.07c6.03,0,10.167,4.688,10.167,12.17c0,7.479-4.137,12.167-10.167,12.167
	c-6.033,0-10.17-4.724-10.17-12.167C391.468,167.792,395.605,163.07,401.638,163.07 M401.638,181.339
	c2.274,0,3.756-2.138,3.756-6.099c0-3.966-1.481-6.139-3.756-6.139s-3.759,2.173-3.759,6.139
	C397.879,179.201,399.364,181.339,401.638,181.339"/>
<path fill="#FFFFFF" d="M424.387,179.306c-4.998,0-8.101-2.964-8.101-7.411c0-5.272,3.86-8.824,10.271-8.824
	c5.964,0,9.86,3.997,9.86,9.756c0,6.755-4.999,12.581-13.513,14.581l-5.309-4.172c3.445-0.413,5.86-1.724,7.307-3.93H424.387z
	 M426.457,168.447c-1.999,0-3.585,1.517-3.585,3.447s1.586,3.481,3.585,3.481s3.548-1.551,3.548-3.481
	C430.004,170,428.456,168.447,426.457,168.447"/>
</svg>
