<?xml version="1.0" encoding="UTF-8"?>
<svg width="512px" height="351px" viewBox="0 0 36 24" version="1.1" xmlns="http://www.w3.org/2000/svg" xmlns:xlink="http://www.w3.org/1999/xlink">
    <title>goldcup-xs</title>
    <defs>
        <linearGradient x1="33.4706419%" y1="134.110779%" x2="47.637898%" y2="37.4975593%" id="linearGradient-1">
            <stop stop-color="#BD7B2A" offset="0%"></stop>
            <stop stop-color="#C6862F" offset="21%"></stop>
            <stop stop-color="#DEA33C" offset="58%"></stop>
            <stop stop-color="#FFCB4F" offset="100%"></stop>
        </linearGradient>
        <linearGradient x1="35.9706365%" y1="114.712581%" x2="51.9384635%" y2="19.7594971%" id="linearGradient-2">
            <stop stop-color="#BD7B2A" offset="0%"></stop>
            <stop stop-color="#C6862F" offset="21%"></stop>
            <stop stop-color="#DEA33C" offset="58%"></stop>
            <stop stop-color="#FFCB4F" offset="100%"></stop>
        </linearGradient>
        <linearGradient x1="45.974524%" y1="100.064869%" x2="59.9581218%" y2="3.47511815%" id="linearGradient-3">
            <stop stop-color="#BD7B2A" offset="0%"></stop>
            <stop stop-color="#C6862F" offset="21%"></stop>
            <stop stop-color="#DEA33C" offset="58%"></stop>
            <stop stop-color="#FFCB4F" offset="100%"></stop>
        </linearGradient>
        <linearGradient x1="39.5404037%" y1="126.513455%" x2="47.578326%" y2="50.699955%" id="linearGradient-4">
            <stop stop-color="#BD7B2A" offset="0%"></stop>
            <stop stop-color="#C6862F" offset="21%"></stop>
            <stop stop-color="#DEA33C" offset="58%"></stop>
            <stop stop-color="#FFCB4F" offset="100%"></stop>
        </linearGradient>
        <linearGradient x1="44.9414112%" y1="116.799481%" x2="50.6937142%" y2="40.8358043%" id="linearGradient-5">
            <stop stop-color="#BD7B2A" offset="0%"></stop>
            <stop stop-color="#C6862F" offset="21%"></stop>
            <stop stop-color="#DEA33C" offset="58%"></stop>
            <stop stop-color="#FFCB4F" offset="100%"></stop>
        </linearGradient>
        <linearGradient x1="44.1330248%" y1="100.311251%" x2="52.1642239%" y2="31.5864927%" id="linearGradient-6">
            <stop stop-color="#BD7B2A" offset="0%"></stop>
            <stop stop-color="#C6862F" offset="21%"></stop>
            <stop stop-color="#DEA33C" offset="58%"></stop>
            <stop stop-color="#FFCB4F" offset="100%"></stop>
        </linearGradient>
        <linearGradient x1="47.737141%" y1="93.2313398%" x2="55.8773981%" y2="17.2183588%" id="linearGradient-7">
            <stop stop-color="#BD7B2A" offset="0%"></stop>
            <stop stop-color="#C6862F" offset="21%"></stop>
            <stop stop-color="#DEA33C" offset="58%"></stop>
            <stop stop-color="#FFCB4F" offset="100%"></stop>
        </linearGradient>
        <linearGradient x1="46.9039011%" y1="49.9017056%" x2="50.990244%" y2="49.5478459%" id="linearGradient-8">
            <stop stop-color="#BD7B2A" offset="0%"></stop>
            <stop stop-color="#C6862F" offset="21%"></stop>
            <stop stop-color="#DEA33C" offset="58%"></stop>
            <stop stop-color="#FFCB4F" offset="100%"></stop>
        </linearGradient>
        <linearGradient x1="50.9813504%" y1="50.056157%" x2="40.3377637%" y2="49.4515736%" id="linearGradient-9">
            <stop stop-color="#BD7B2A" offset="0%"></stop>
            <stop stop-color="#C6862F" offset="21%"></stop>
            <stop stop-color="#DEA33C" offset="58%"></stop>
            <stop stop-color="#FFCB4F" offset="100%"></stop>
        </linearGradient>
        <linearGradient x1="42.8790642%" y1="43.3698951%" x2="46.2873188%" y2="46.5433603%" id="linearGradient-10">
            <stop stop-color="#BD7B2A" offset="0%"></stop>
            <stop stop-color="#C6862F" offset="21%"></stop>
            <stop stop-color="#DEA33C" offset="58%"></stop>
            <stop stop-color="#FFCB4F" offset="100%"></stop>
        </linearGradient>
    </defs>
    <g id="Symbols" stroke="none" stroke-width="1" fill="none" fill-rule="evenodd">
        <g id="top/01menu-FINAL-CLIENTE" transform="translate(-267.000000, -33.000000)">
            <g id="--competitions/50x50/Concacaf_GoldCup" transform="translate(267.198440, 27.000000)">
                <rect id="Rectangle" fill="#FFFFFF" opacity="0" x="0" y="0" width="35" height="35"></rect>
                <g id="Group" transform="translate(0.000000, 6.300000)" fill-rule="nonzero">
                    <g id="Logo/05_competitions06_gold_cup/2">
                        <path d="M29.8061887,14.9655025 C29.7015319,14.4665237 29.4168709,14.1103758 28.9522059,13.8970588 C28.617224,13.7457588 28.2543194,13.666136 27.8867647,13.6632966 C27.3081495,13.6525735 26.375674,13.6581495 26.0900123,13.6581495 L26.0900123,14.7334559 C26.5472426,14.7334559 27.1983456,14.7334559 27.666299,14.7334559 C27.7790063,14.7337951 27.8915896,14.7409568 28.0034314,14.754902 C28.2577819,14.7896446 28.4422181,14.9693627 28.5022672,15.2661765 C28.5292949,15.4016677 28.5292949,15.5411632 28.5022672,15.6766544 C28.4704552,15.8535528 28.3660968,16.0090795 28.2144608,16.105576 C28.1231005,16.1699142 27.9635417,16.2025123 27.6675858,16.2025123 L27.3621936,16.2025123 L27.3621936,14.9740809 C26.878799,15.1027574 26.2980392,15.2653186 26.0848652,15.3133578 C26.0848652,16.1999387 26.0848652,17.8868873 26.0848652,18.2840686 L27.3651961,18.2840686 L27.3651961,17.1568627 C27.5745098,17.1491422 27.7778186,17.1469975 27.9802696,17.1328431 C28.3843137,17.1041054 28.7699142,17.0067402 29.1186275,16.7927083 C29.344204,16.6606346 29.5303534,16.4706348 29.6577819,16.242402 C29.8803922,15.8366422 29.8992647,15.4072917 29.8061887,14.9655025 Z" id="Path" fill="url(#linearGradient-1)"></path>
                        <path d="M24.1572917,13.6551471 L24.1572917,13.6551471 C24.1572917,13.6551471 24.1482843,15.5921569 24.1482843,16.2561275 C24.1482843,16.8424632 23.9569853,17.3232843 23.2552696,17.3232843 C22.5535539,17.3232843 22.3626838,16.8566176 22.3626838,16.2561275 C22.3626838,15.5921569 22.3549632,13.6551471 22.3549632,13.6551471 L21.0523284,13.6551471 C21.0523284,13.6551471 21.0523284,15.7624387 21.0523284,16.2561275 C21.0523284,17.7011642 21.7038603,18.0288603 22.2777574,18.2240196 C22.5938725,18.33125 22.9211397,18.3595588 23.2544118,18.3634191 C23.5859681,18.3595588 23.914951,18.33125 24.2306373,18.2240196 C24.8045343,18.0288603 25.4560662,17.6501225 25.4560662,16.2561275 C25.4560662,15.7624387 25.4560662,13.6551471 25.4560662,13.6551471 L24.1572917,13.6551471 Z" id="Path" fill="url(#linearGradient-2)"></path>
                        <path d="M18.9832108,14.7386029 C19.2126838,14.711152 19.4979167,14.7137255 19.73125,14.7094363 C19.8088848,14.7094363 19.8324755,14.7094363 20.365625,14.7072917 L20.365625,13.655576 L19.9088235,13.655576 C19.539951,13.6645833 19.1697917,13.655576 18.8030637,13.6903186 C18.2856147,13.7283153 17.7919582,13.9227861 17.3876225,14.2479167 C17.0775908,14.4982645 16.8528095,14.8385833 16.7442402,15.2219975 C16.6035205,15.7106176 16.6035205,16.229027 16.7442402,16.7176471 C16.8528095,17.1010613 17.0775908,17.4413801 17.3876225,17.6917279 C17.7919582,18.0168585 18.2856147,18.2113293 18.8030637,18.249326 C19.1697917,18.2823529 19.539951,18.2750613 19.9088235,18.2840686 L20.365625,18.2840686 L20.365625,17.2332108 C19.8324755,17.2332108 19.808027,17.2332108 19.73125,17.2332108 C19.4996324,17.2289216 19.2126838,17.2332108 18.9832108,17.2040441 C18.6272059,17.161152 18.3239583,17.0110294 18.1219363,16.6974877 C18.0241422,16.5452206 17.9289216,16.225674 17.9289216,16.0223652 L17.9289216,15.9224265 C17.9289216,15.7199755 18.0241422,15.3995711 18.1219363,15.2473039 C18.3239583,14.9316176 18.6272059,14.7814951 18.9832108,14.7386029 Z" id="Path" fill="url(#linearGradient-3)"></path>
                        <path d="M18.7185662,6.93008578 C18.2864294,6.94656983 17.8798735,6.72542669 17.6589059,6.35369129 C17.4379383,5.98195589 17.4379383,5.51914705 17.6589059,5.14741165 C17.8798735,4.77567625 18.2864294,4.55453311 18.7185662,4.57101716 C19.1358153,4.57090841 19.5225868,4.78952549 19.7376838,5.14705882 L19.7458333,5.16121324 L19.4211397,5.36237745 L19.4129902,5.34693627 C19.2800923,5.08645688 19.0109677,4.92388504 18.7185662,4.92745098 C18.4263396,4.92691464 18.1560249,5.08232009 18.0094471,5.3351276 C17.8628693,5.5879351 17.8622971,5.89973719 18.0079459,6.15308103 C18.1535947,6.40642487 18.4233371,6.56282151 18.7155637,6.56335784 C19.0248983,6.56914268 19.3078129,6.38970463 19.4344363,6.10741422 L19.4417279,6.09154412 L19.7767157,6.26911765 L19.7689951,6.28370098 C19.5707499,6.68183275 19.1633178,6.9325474 18.7185662,6.93008578 Z" id="Path" fill="#000000"></path>
                        <path d="M20.7091912,6.93008578 C20.2546495,6.92890208 19.887019,6.55967289 19.8878063,6.10513036 C19.8885962,5.65058782 20.2575057,5.28263652 20.7120488,5.28302975 C21.1665918,5.2834236 21.5348652,5.65201315 21.5348652,6.10655637 C21.5336829,6.5617258 21.1643621,6.93008578 20.7091912,6.93008578 Z M20.7091912,5.62659314 C20.4518382,5.62659314 20.2502451,5.83762255 20.2502451,6.10655637 C20.2502451,6.3754902 20.4518382,6.58651961 20.7091912,6.58651961 C20.9663805,6.57564409 21.1692876,6.36397555 21.1692876,6.10655637 C21.1692876,5.8491372 20.9663805,5.63746865 20.7091912,5.62659314 L20.7091912,5.62659314 Z" id="Shape" fill="#000000"></path>
                        <path d="M22.826348,6.89920343 L22.826348,6.00490196 C22.826348,5.74754902 22.6976716,5.6060049 22.4669118,5.6060049 C22.236152,5.6060049 22.0886029,5.77757353 22.0886029,6.02977941 L22.0886029,6.90006127 L21.7223039,6.90006127 L21.7223039,5.31305147 L22.0856005,5.31305147 L22.0856005,5.4846201 C22.2022384,5.3524261 22.3713027,5.2784899 22.547549,5.28259804 C22.9473039,5.28259804 23.1956495,5.54810049 23.1956495,5.97573529 L23.1956495,6.89877451 L22.826348,6.89920343 Z" id="Path" fill="#000000"></path>
                        <path d="M24.2087623,6.93008578 C23.7539395,6.93008578 23.3852328,6.56137911 23.3852328,6.10655637 C23.3852328,5.65173364 23.7539395,5.28302696 24.2087623,5.28302696 C24.5359191,5.27477935 24.8349672,5.46706094 24.9632353,5.76813725 L24.970098,5.78357843 L24.6406863,5.92383578 L24.6338235,5.90839461 C24.5655734,5.73532702 24.3969099,5.6229417 24.2109069,5.62659314 C24.0394325,5.62766581 23.8815559,5.72013748 23.7967477,5.86917495 C23.7119395,6.01821243 23.713084,6.20117338 23.7997502,6.34913819 C23.8864163,6.49710299 24.0454374,6.58759228 24.2169118,6.58651961 C24.4056122,6.58684032 24.5745445,6.46959753 24.6402574,6.29270833 L24.6466912,6.27683824 L24.9795343,6.41752451 L24.9726716,6.43296569 C24.8467628,6.74188103 24.5422017,6.94007662 24.2087623,6.93008578 Z" id="Path" fill="#000000"></path>
                        <path d="M25.8751225,6.93008578 C25.4860907,6.93008578 25.0841912,6.6221201 25.0841912,6.10655637 C25.0841912,5.57169118 25.4933824,5.28301762 25.878125,5.28301762 C26.0660271,5.28205687 26.2464199,5.35671814 26.3786765,5.49019608 L26.3786765,5.31605392 L26.7449755,5.31605392 L26.7449755,6.90306373 L26.3786765,6.90306373 L26.3786765,6.71819853 C26.2478053,6.85608558 26.0652069,6.93291997 25.8751225,6.93008578 Z M25.921875,5.61758578 C25.7233821,5.61234768 25.5415318,5.72797616 25.4620748,5.90994717 C25.3826177,6.09191818 25.4214206,6.30389414 25.5601861,6.44591881 C25.6989516,6.58794348 25.9099698,6.63165611 26.0937361,6.55644423 C26.2775023,6.48123235 26.3973206,6.30211493 26.3966912,6.10355392 C26.3992252,5.97595851 26.3503348,5.85270559 26.261026,5.76154121 C26.1717172,5.67037682 26.0494955,5.61896257 25.921875,5.61887255 L25.921875,5.61758578 Z" id="Shape" fill="#000000"></path>
                        <path d="M27.7602328,6.93008578 C27.3054101,6.93008578 26.9367034,6.56137911 26.9367034,6.10655637 C26.9367034,5.65173364 27.3054101,5.28302696 27.7602328,5.28302696 C28.0867034,5.27572938 28.3847647,5.46781333 28.5129902,5.76813725 L28.519424,5.78357843 L28.1900123,5.92383578 L28.1835784,5.90839461 C28.1150706,5.73534155 27.9463184,5.62301108 27.7602328,5.62659314 C27.4951565,5.62836979 27.2817099,5.84469691 27.2834865,6.10977328 C27.2852632,6.37484966 27.5015903,6.58829626 27.7666667,6.58651961 C27.9552884,6.58691115 28.1241324,6.46961081 28.1895833,6.29270833 L28.1960172,6.27683824 L28.5288603,6.41752451 L28.5232843,6.43382353 C28.3972114,6.74210087 28.0931502,6.93985174 27.7602328,6.93008578 Z" id="Path" fill="#000000"></path>
                        <path d="M29.4265931,6.93008578 C29.0379902,6.93008578 28.6356618,6.6221201 28.6356618,6.10655637 C28.6356618,5.57169118 29.0448529,5.28302107 29.4300245,5.28302107 C29.6175096,5.28225771 29.7974282,5.35691465 29.9292892,5.49019608 L29.9292892,5.31605392 L30.2955882,5.31605392 L30.2955882,6.90306373 L29.9292892,6.90306373 L29.9292892,6.71819853 C29.7986214,6.85586454 29.6163806,6.93267935 29.4265931,6.93008578 Z M29.4733456,5.61758578 C29.2748527,5.61234768 29.0930024,5.72797616 29.0135454,5.90994717 C28.9340883,6.09191818 28.9728912,6.30389414 29.1116567,6.44591881 C29.2504222,6.58794348 29.4614404,6.63165611 29.6452067,6.55644423 C29.8289729,6.48123235 29.9487912,6.30211493 29.9481618,6.10355392 C29.9506958,5.97595851 29.9018054,5.85270559 29.8124966,5.76154121 C29.7231878,5.67037682 29.6009661,5.61896257 29.4733456,5.61887255 L29.4733456,5.61758578 Z" id="Shape" fill="#000000"></path>
                        <path d="M30.7322304,6.89920343 L30.7322304,5.64546569 L30.4710172,5.64546569 L30.4710172,5.31390931 L30.7322304,5.31390931 L30.7322304,5.25 C30.7322304,4.75802696 30.8909314,4.60018382 31.3863358,4.60018382 L31.4292279,4.60018382 L31.4292279,4.94332108 L31.4125,4.94332108 C31.122549,4.94332108 31.0993873,4.99050245 31.0993873,5.25514706 L31.0993873,5.31605392 L31.4292279,5.31605392 L31.4292279,5.64761029 L31.0993873,5.64761029 L31.0993873,6.90134804 L30.7322304,6.89920343 Z" id="Path" fill="#000000"></path>
                        <path d="M34.031924,8.44460784 C33.610723,8.14436275 33.1311887,8.00367647 32.6190564,7.98995098 C31.9726716,7.9723652 31.3254289,7.98180147 30.6786152,7.98008578 C30.6571691,7.98008578 30.635723,7.98265931 30.6155637,7.98394608 L30.6155637,9.05882353 C30.8780637,9.05882353 31.7153186,9.05582108 32.2265931,9.06096814 C32.3800354,9.06323363 32.5330613,9.07757532 32.6842525,9.10386029 C33.0840074,9.17291667 33.3645221,9.4002451 33.4889093,9.78541667 C33.6328526,10.2057307 33.6055806,10.6658111 33.4129902,11.0661765 C33.2868873,11.3333946 33.0698529,11.4878064 32.7854779,11.560723 C32.597885,11.6027206 32.4059241,11.6220175 32.2137255,11.6181985 C32.1060662,11.6181985 31.9992647,11.6181985 31.8851716,11.6181985 L31.8851716,9.31746324 C31.3610294,9.45729167 30.8913603,9.56366422 30.608701,9.65759804 C30.608701,10.5531863 30.608701,12.5879902 30.608701,12.6171569 C31.1581495,12.6171569 31.7895221,12.6171569 32.3548407,12.6171569 C32.8429534,12.6171569 33.3130515,12.5270833 33.7514093,12.304473 C34.1908669,12.0890005 34.5367172,11.7207339 34.7242034,11.2686275 C34.945527,10.7419118 34.9575368,10.1963235 34.8267157,9.64558824 C34.7207626,9.1601803 34.4373053,8.73185848 34.031924,8.44460784 L34.031924,8.44460784 Z" id="Path" fill="url(#linearGradient-4)"></path>
                        <path d="M28.3568627,7.98609069 L27.0808211,7.98609069 L27.0808211,12.6102941 C28.1732843,12.6102941 29.3150735,12.6132966 30.1476103,12.6150123 C30.1476103,12.370527 30.1377451,11.6405025 30.1476103,11.6164828 L28.3568627,11.6164828 L28.3568627,7.98609069 Z" id="Path" fill="url(#linearGradient-5)"></path>
                        <path d="M23.9891544,7.84926471 C22.5033701,7.84926471 21.4846814,8.87867647 21.4846814,10.2941176 C21.4846814,11.6237745 22.3339461,12.7436887 23.9891544,12.7436887 C25.6443627,12.7436887 26.4889093,11.6242034 26.4889093,10.2941176 C26.4889093,8.95631127 25.7352941,7.84926471 23.9891544,7.84926471 Z M25.1043505,10.297549 C25.1043505,11.1438113 24.6930147,11.6010417 23.9891544,11.6010417 C23.329902,11.6010417 22.8761029,11.079473 22.8761029,10.297549 C22.8761029,9.515625 23.3642157,9.04723721 23.9891544,9.04723721 C24.5913603,9.04552696 25.1022059,9.45 25.1022059,10.2941176 L25.1043505,10.297549 Z" id="Shape" fill="url(#linearGradient-6)"></path>
                        <path d="M18.090625,9.57224265 C18.2926471,9.25870098 18.5958946,9.10857843 18.9518995,9.0661152 C19.1813725,9.03823529 19.4666054,9.04080882 19.6999387,9.03651961 C19.7775735,9.03651961 20.4080882,9.03651961 20.9416667,9.03651961 L20.9416667,7.98265931 L19.8775123,7.98265931 C19.5086397,7.99123775 19.1384804,7.98265931 18.7717525,8.01697304 C18.2543035,8.05496975 17.7606469,8.2494405 17.3563113,8.57457108 C17.0462795,8.82491895 16.8214983,9.16523774 16.7129289,9.54865196 C16.5722092,10.037272 16.5722092,10.5556815 16.7129289,11.0443015 C16.8214983,11.4277157 17.0462795,11.7680345 17.3563113,12.0183824 C17.7605504,12.3436791 18.2542607,12.538171 18.7717525,12.5759804 C19.0925858,12.6047181 20.463848,12.6085784 20.9313725,12.6085784 L20.9313725,10.2889706 L19.7376838,10.2889706 C19.7376838,10.4493873 19.7376838,11.0202819 19.7376838,11.5585784 L19.6995098,11.5585784 C19.4678922,11.5542892 19.1809436,11.5585784 18.9514706,11.5294118 C18.5954657,11.4865196 18.2922181,11.3363971 18.0901961,11.0228554 C17.992402,10.8705882 17.8971814,10.5510417 17.8971814,10.3477328 L17.8971814,10.248223 C17.8976103,10.0449142 17.9928309,9.7245098 18.090625,9.57224265 Z" id="Path" fill="url(#linearGradient-7)"></path>
                        <polygon id="Path" fill="url(#linearGradient-8)" points="3.58535539 0 12.9963235 0 8.290625 22.9091299"></polygon>
                        <polygon id="Path" fill="url(#linearGradient-9)" points="3.00545343 5.15863971 4.10778186 5.46446078 3.68314951 3.53259804 0 2.55680147 7.10122549 20.5058824"></polygon>
                        <polygon id="Path" fill="url(#linearGradient-10)" points="13.6028186 5.15863971 12.5030637 5.46360294 12.9246936 3.53259804 16.6078431 2.55680147 9.50661765 20.5058824"></polygon>
                    </g>
                </g>
            </g>
        </g>
    </g>
</svg>