<?xml version="1.0" encoding="utf-8"?>
<!-- Generator: Adobe Illustrator 16.0.3, SVG Export Plug-In . SVG Version: 6.00 Build 0)  -->
<!DOCTYPE svg PUBLIC "-//W3C//DTD SVG 1.1//EN" "http://www.w3.org/Graphics/SVG/1.1/DTD/svg11.dtd">
<svg version="1.1" id="Capa_1" xmlns="http://www.w3.org/2000/svg" xmlns:xlink="http://www.w3.org/1999/xlink" x="0px" y="0px"
	 width="182.686px" height="268px" viewBox="0 0 182.686 268" enable-background="new 0 0 182.686 268" xml:space="preserve">
<linearGradient id="SVGID_1_" gradientUnits="userSpaceOnUse" x1="2.2495" y1="99.6064" x2="181.686" y2="99.6064">
	<stop  offset="0" style="stop-color:#CC963C"/>
	<stop  offset="0.4659" style="stop-color:#997F51"/>
	<stop  offset="1" style="stop-color:#C9953F"/>
</linearGradient>
<path fill="url(#SVGID_1_)" d="M91.968,192.127h12.493l0.073-0.422l2.048-11.884l46.373-146.233l-23.281,7.496l0.113-0.568
	l3.748-21.918l0.817,0.117l47.335-15.108l-74.122,188.522v2.498c-1.514,1.363-15.596,0.909-15.596,0.909s-14.082,0.454-15.596-0.909
	v-2.498L2.25,3.605l47.335,15.108l0.817-0.117l3.748,21.918l0.114,0.568l-23.282-7.496l46.372,146.233l2.049,11.884l0.073,0.422
	H91.968z"/>
<radialGradient id="SVGID_2_" cx="89.5449" cy="19.9399" r="74.1499" gradientUnits="userSpaceOnUse">
	<stop  offset="0" style="stop-color:#F5CE90"/>
	<stop  offset="0.6075" style="stop-color:#CCA668"/>
	<stop  offset="1" style="stop-color:#936F34"/>
</radialGradient>
<polygon fill="url(#SVGID_2_)" points="91.968,192.127 104.46,192.127 137.091,2.811 136.146,2.811 91.968,2.811 47.79,2.811 
	46.844,2.811 79.476,192.127 "/>
<linearGradient id="SVGID_3_" gradientUnits="userSpaceOnUse" x1="13.7197" y1="34.5264" x2="33.3062" y2="34.5264">
	<stop  offset="0" style="stop-color:#523712"/>
	<stop  offset="0.0849" style="stop-color:#563B14"/>
	<stop  offset="0.2108" style="stop-color:#64441A"/>
	<stop  offset="0.3614" style="stop-color:#775121"/>
	<stop  offset="0.4195" style="stop-color:#805724"/>
	<stop  offset="0.5269" style="stop-color:#835B28"/>
	<stop  offset="0.6969" style="stop-color:#8A6633"/>
	<stop  offset="0.9071" style="stop-color:#957747"/>
	<stop  offset="1" style="stop-color:#997F51"/>
</linearGradient>
<polygon fill="url(#SVGID_3_)" points="30.982,33.587 13.72,28.136 33.306,40.917 "/>
<linearGradient id="SVGID_4_" gradientUnits="userSpaceOnUse" x1="15.3096" y1="65.8843" x2="46.2002" y2="65.8843">
	<stop  offset="0" style="stop-color:#7F5624"/>
	<stop  offset="1" style="stop-color:#997F51"/>
</linearGradient>
<polygon fill="url(#SVGID_4_)" points="19.075,31.63 15.31,31.63 38.023,91.734 46.2,100.138 27.62,37.206 "/>
<linearGradient id="SVGID_5_" gradientUnits="userSpaceOnUse" x1="56.562" y1="153.1904" x2="79.4756" y2="153.1904">
	<stop  offset="0" style="stop-color:#7F5624"/>
	<stop  offset="1" style="stop-color:#997F51"/>
</linearGradient>
<polygon fill="url(#SVGID_5_)" points="56.562,114.253 78.453,192.127 79.476,192.127 77.106,178.383 "/>
<radialGradient id="SVGID_6_" cx="77.9985" cy="144.5425" r="61.6349" gradientTransform="matrix(1 0 0 1.3875 0 -56.006)" gradientUnits="userSpaceOnUse">
	<stop  offset="0" style="stop-color:#7F531C"/>
	<stop  offset="0.1491" style="stop-color:#855821"/>
	<stop  offset="0.3609" style="stop-color:#97682E"/>
	<stop  offset="0.6099" style="stop-color:#B5854A"/>
	<stop  offset="0.8854" style="stop-color:#E4B47A"/>
	<stop  offset="1" style="stop-color:#FCCD93"/>
</radialGradient>
<polygon fill="url(#SVGID_6_)" points="55.059,36.767 56.081,19.732 80.952,192.127 79.403,191.705 "/>
<linearGradient id="SVGID_7_" gradientUnits="userSpaceOnUse" x1="7.0195" y1="22.6279" x2="51.8784" y2="22.6279">
	<stop  offset="0" style="stop-color:#7F5624"/>
	<stop  offset="1" style="stop-color:#997F51"/>
</linearGradient>
<polygon fill="url(#SVGID_7_)" points="7.02,6.672 38.364,17.688 49.153,26.546 51.878,38.584 48.812,19.732 "/>
<path fill="#9E6215" d="M91.968,2.016c24.474,0.008,44.178,0.361,44.178,0.795s-19.704,0.787-44.178,0.795
	C67.494,3.598,47.79,3.245,47.79,2.811S67.494,2.023,91.968,2.016z"/>
<radialGradient id="SVGID_8_" cx="91.9678" cy="242.3428" r="37.7704" gradientUnits="userSpaceOnUse">
	<stop  offset="0" style="stop-color:#F5CE90"/>
	<stop  offset="0.189" style="stop-color:#E9C384"/>
	<stop  offset="0.4965" style="stop-color:#CBA466"/>
	<stop  offset="0.8821" style="stop-color:#9E793D"/>
	<stop  offset="0.9707" style="stop-color:#936F34"/>
</radialGradient>
<path fill="url(#SVGID_8_)" d="M91.968,266.685c44.064,0.625,47.528-6.927,47.528-6.927l-9.71-41.793l-37.818,0.965l-37.818-0.965
	l-9.71,41.793C44.44,259.757,47.904,267.31,91.968,266.685z"/>
<radialGradient id="SVGID_9_" cx="91.9678" cy="214.1641" r="27.0208" gradientUnits="userSpaceOnUse">
	<stop  offset="0" style="stop-color:#F5CE90"/>
	<stop  offset="0.189" style="stop-color:#E9C384"/>
	<stop  offset="0.4965" style="stop-color:#CBA466"/>
	<stop  offset="0.8821" style="stop-color:#9E793D"/>
	<stop  offset="0.9707" style="stop-color:#936F34"/>
</radialGradient>
<path fill="url(#SVGID_9_)" d="M91.968,219.384h2.669c37.647,0.227,35.149-1.419,35.149-1.419l-7.197-9.042l-30.621,2.057
	l-30.621-2.057l-7.197,9.042c0,0-2.499,1.646,35.149,1.419H91.968z"/>
<linearGradient id="SVGID_10_" gradientUnits="userSpaceOnUse" x1="61.3042" y1="208.4268" x2="122.6313" y2="208.4268">
	<stop  offset="0" style="stop-color:#7F5624"/>
	<stop  offset="1" style="stop-color:#997F51"/>
</linearGradient>
<path fill="url(#SVGID_10_)" d="M91.968,211.434h1.817c25.95,0.114,28.846-2.271,28.846-2.271c0.057-1.931-8.631-3.748-8.631-3.748
	l-22.032,0.682l-22.032-0.682c0,0-8.688,1.817-8.631,3.748c0,0,2.896,2.385,28.846,2.271H91.968z"/>
<radialGradient id="SVGID_11_" cx="91.9678" cy="200.9038" r="16.1245" gradientUnits="userSpaceOnUse">
	<stop  offset="0" style="stop-color:#F5CE90"/>
	<stop  offset="0.1891" style="stop-color:#ECC687"/>
	<stop  offset="0.4545" style="stop-color:#D5AE70"/>
	<stop  offset="0.7635" style="stop-color:#B28C4F"/>
	<stop  offset="1" style="stop-color:#936F34"/>
</radialGradient>
<path fill="url(#SVGID_11_)" d="M91.968,206.778c20.158,0.114,22.032-1.363,22.032-1.363l-5.508-10.392l-16.524,0.511l-16.524-0.511
	l-5.508,10.392C69.936,205.415,71.81,206.892,91.968,206.778z"/>
<path fill="#6B4D12" d="M91.968,262.842c43.61,0.303,46.681-6.73,46.681-6.73l0.149,0.642c0,0-1.706,6.998-46.83,6.695
	c-45.124,0.303-46.83-6.695-46.83-6.695l0.149-0.642C45.287,256.112,48.358,263.145,91.968,262.842z"/>
<path fill="#6B4D12" d="M91.968,261.667c37.897,0.254,45.17-4.641,46.527-6.215l-0.164-0.709l-0.249,0.231
	c-1.999,1.73-10.657,6.333-46.114,6.087c-35.457,0.246-44.116-4.357-46.114-6.087l-0.249-0.231l-0.165,0.709
	C46.798,257.026,54.071,261.922,91.968,261.667z"/>
<path fill="#6B4D12" d="M91.968,253.624c30.687,0.206,41.294-2.965,44.94-5.014l-0.178-0.768c-3.724,2.053-14.45,5.387-44.762,5.176
	c-30.312,0.21-41.039-3.124-44.762-5.176l-0.178,0.768C50.674,250.659,61.281,253.83,91.968,253.624z"/>
<path fill="#6B4D12" d="M91.968,251.843c29.712,0.2,40.6-2.766,44.571-4.816l-0.179-0.77c-4.043,2.062-15.027,5.184-44.392,4.98
	c-29.364,0.204-40.349-2.918-44.392-4.98l-0.179,0.77C51.368,249.077,62.256,252.042,91.968,251.843z"/>
<path fill="#6B4D12" d="M91.968,244.497c26.495,0.178,38.021-2.162,43.022-4.123l-0.18-0.771
	c-5.054,1.999-16.619,4.469-42.842,4.288c-26.223,0.182-37.789-2.289-42.842-4.288l-0.181,0.771
	C53.946,242.335,65.473,244.674,91.968,244.497z"/>
<path fill="#6B4D12" d="M91.968,242.715c25.845,0.173,37.447-2.048,42.643-3.978l-0.179-0.77
	c-5.243,1.971-16.875,4.319-42.464,4.142c-25.59,0.177-37.222-2.171-42.465-4.142l-0.178,0.77
	C54.521,240.667,66.123,242.889,91.968,242.715z"/>
<path fill="#6B4D12" d="M91.968,234.743c23.311,0.156,35.035-1.635,40.922-3.404l-0.174-0.761c-5.919,1.821-17.645,3.72-40.749,3.56
	c-23.104,0.16-34.83-1.739-40.749-3.56l-0.174,0.761C56.933,233.107,68.657,234.899,91.968,234.743z"/>
<path fill="#6B4D12" d="M91.968,232.961c22.815,0.153,34.531-1.56,40.539-3.292l-0.174-0.758c-6.037,1.785-17.75,3.6-40.364,3.443
	c-22.614,0.157-34.328-1.659-40.364-3.443l-0.175,0.758C57.437,231.401,69.152,233.114,91.968,232.961z"/>
<path fill="#6B4D12" d="M91.968,225.615c20.931,0.141,32.521-1.291,38.931-2.865l-0.175-0.745c-6.43,1.63-18.002,3.147-38.756,3.003
	c-20.753,0.145-32.326-1.373-38.756-3.003l-0.175,0.745C59.447,224.325,71.037,225.756,91.968,225.615z"/>
<path fill="#6B4D12" d="M91.968,223.834c20.51,0.137,32.05-1.233,38.538-2.769l-0.171-0.744c-6.504,1.593-18.025,3.048-38.366,2.907
	c-20.341,0.141-31.862-1.314-38.366-2.907l-0.171,0.744C59.917,222.601,71.458,223.971,91.968,223.834z"/>
<linearGradient id="SVGID_12_" gradientUnits="userSpaceOnUse" x1="150.6289" y1="34.5264" x2="170.2158" y2="34.5264">
	<stop  offset="0" style="stop-color:#7F5624"/>
	<stop  offset="1" style="stop-color:#997F51"/>
</linearGradient>
<polygon fill="url(#SVGID_12_)" points="152.954,33.587 170.216,28.136 150.629,40.917 "/>
<linearGradient id="SVGID_13_" gradientUnits="userSpaceOnUse" x1="137.7354" y1="65.8843" x2="168.626" y2="65.8843">
	<stop  offset="0" style="stop-color:#7F5624"/>
	<stop  offset="1" style="stop-color:#997F51"/>
</linearGradient>
<polygon fill="url(#SVGID_13_)" points="164.86,31.63 168.626,31.63 145.913,91.734 137.735,100.138 156.315,37.206 "/>
<linearGradient id="SVGID_14_" gradientUnits="userSpaceOnUse" x1="104.4604" y1="153.1904" x2="127.3735" y2="153.1904">
	<stop  offset="0" style="stop-color:#7F5624"/>
	<stop  offset="1" style="stop-color:#997F51"/>
</linearGradient>
<polygon fill="url(#SVGID_14_)" points="127.374,114.253 105.482,192.127 104.46,192.127 106.829,178.383 "/>
<radialGradient id="SVGID_15_" cx="109.1167" cy="142.7256" r="99.9308" gradientTransform="matrix(0.1621 -0.9868 0.3267 0.0537 44.8057 242.7417)" gradientUnits="userSpaceOnUse">
	<stop  offset="0" style="stop-color:#7F531C"/>
	<stop  offset="0.1323" style="stop-color:#845720"/>
	<stop  offset="0.3201" style="stop-color:#93652D"/>
	<stop  offset="0.5411" style="stop-color:#AC7F48"/>
	<stop  offset="0.7852" style="stop-color:#D2A774"/>
	<stop  offset="1" style="stop-color:#FDD7A9"/>
</radialGradient>
<polygon fill="url(#SVGID_15_)" points="128.877,36.767 127.855,19.732 102.984,192.127 104.533,191.705 "/>
<linearGradient id="SVGID_16_" gradientUnits="userSpaceOnUse" x1="185.1851" y1="17.3545" x2="140.9732" y2="24.9501">
	<stop  offset="0" style="stop-color:#7F5624"/>
	<stop  offset="1" style="stop-color:#997F51"/>
</linearGradient>
<polygon fill="url(#SVGID_16_)" points="176.917,6.672 145.572,17.688 134.783,26.546 132.057,38.584 135.124,19.732 "/>
</svg>
