<svg xmlns="http://www.w3.org/2000/svg" xmlns:xlink="http://www.w3.org/1999/xlink" height="500" width="900"><path d="M 0,0 H 900 V 500 H 0 Z" fill="#da2d1c" fill-rule="evenodd"/><path d="M 0,0 H 400 V 250 H 0 Z" fill="#2042a1" fill-rule="evenodd"/><g transform="matrix(1.0033325,0,0,1.0033325,2.9167478,1.5584938)"><path d="m 195.68324,56.250997 a 69.063843,69.063843 0 0 0 -4.88524,0.173255 69.063843,69.063843 0 0 0 -3.34886,0.40651 l -0.38026,12.02395 a 57.15824,57.15824 0 0 0 -8.59635,2.023179 L 172.8035,60.231729 a 69.063843,69.063843 0 0 0 -2.14581,0.712894 69.063843,69.063843 0 0 0 -6.30129,2.820075 69.063843,69.063843 0 0 0 -5.83741,3.348842 l 4.91225,11.083799 a 57.15824,57.15824 0 0 0 -6.89606,5.522399 l -9.72851,-7.133442 a 69.063843,69.063843 0 0 0 -3.94623,4.236489 69.063843,69.063843 0 0 0 -4.17799,5.495774 69.063843,69.063843 0 0 0 -1.67629,2.734574 l 9.16712,7.796835 a 57.15824,57.15824 0 0 0 -3.78348,7.979462 l -11.85332,-2.20468 a 69.063843,69.063843 0 0 0 -0.83214,2.28044 69.063843,69.063843 0 0 0 -1.70817,6.68868 69.063843,69.063843 0 0 0 -0.98104,6.49142 l 11.71832,3.06758 a 57.15824,57.15824 0 0 0 -0.20813,4.16186 57.15824,57.15824 0 0 0 0.21976,4.67601 l -11.59606,3.14595 a 69.063843,69.063843 0 0 0 0.47551,3.91698 69.063843,69.063843 0 0 0 1.51166,6.73556 69.063843,69.063843 0 0 0 1.59379,4.796 l 11.79445,-2.30217 a 57.15824,57.15824 0 0 0 3.91923,7.92207 l -9.15849,7.9311 a 69.063843,69.063843 0 0 0 0.28313,0.49388 69.063843,69.063843 0 0 0 4.01561,5.61541 69.063843,69.063843 0 0 0 4.55599,5.18677 69.063843,69.063843 0 0 0 1.1119,1.03577 l 9.68165,-7.23207 a 57.15824,57.15824 0 0 0 6.90281,5.51528 l -4.76901,11.02417 a 69.063843,69.063843 0 0 0 3.50522,2.14881 69.063843,69.063843 0 0 0 6.21616,3.0027 69.063843,69.063843 0 0 0 4.59201,1.67629 l 5.54901,-10.64766 a 57.15824,57.15824 0 0 0 8.64062,1.8683 l 0.49051,12.10008 a 69.063843,69.063843 0 0 0 0.72789,0.10988 69.063843,69.063843 0 0 0 6.89457,0.34501 69.063843,69.063843 0 0 0 4.88563,-0.17325 69.063843,69.063843 0 0 0 3.34847,-0.40651 l 0.38025,-12.02396 a 57.15824,57.15824 0 0 0 8.59636,-2.02317 l 5.66903,10.64616 a 69.063843,69.063843 0 0 0 2.1462,-0.7129 69.063843,69.063843 0 0 0 6.30128,-2.82007 69.063843,69.063843 0 0 0 5.83741,-3.34884 l -4.91225,-11.0838 a 57.15824,57.15824 0 0 0 6.89606,-5.5224 l 9.72851,7.13344 a 69.063843,69.063843 0 0 0 3.94623,-4.23649 69.063843,69.063843 0 0 0 4.17799,-5.49577 69.063843,69.063843 0 0 0 1.67629,-2.73457 l -9.16713,-7.79722 a 57.15824,57.15824 0 0 0 3.78349,-7.97908 l 11.85331,2.20468 a 69.063843,69.063843 0 0 0 0.83215,-2.28044 69.063843,69.063843 0 0 0 1.70817,-6.68905 69.063843,69.063843 0 0 0 0.98103,-6.49106 l -11.71832,-3.06757 a 57.15824,57.15824 0 0 0 0.20812,-4.16225 57.15824,57.15824 0 0 0 -0.22013,-4.67562 l 11.59645,-3.14558 a 69.063843,69.063843 0 0 0 -0.4755,-3.91737 69.063843,69.063843 0 0 0 -1.51205,-6.73592 69.063843,69.063843 0 0 0 -1.59343,-4.79564 l -11.79443,2.30219 a 57.15824,57.15824 0 0 0 -3.91923,-7.922084 l 9.15849,-7.931089 a 69.063843,69.063843 0 0 0 -0.28313,-0.493888 69.063843,69.063843 0 0 0 -4.01562,-5.615402 69.063843,69.063843 0 0 0 -4.55599,-5.186765 69.063843,69.063843 0 0 0 -1.11191,-1.035777 l -9.68162,7.232071 a 57.15824,57.15824 0 0 0 -6.90282,-5.515274 l 4.76901,-11.024174 a 69.063843,69.063843 0 0 0 -3.50523,-2.148807 69.063843,69.063843 0 0 0 -6.21617,-3.002707 69.063843,69.063843 0 0 0 -4.592,-1.676296 l -5.54902,10.647663 a 57.15824,57.15824 0 0 0 -8.6406,-1.868301 l -0.49052,-12.100076 a 69.063843,69.063843 0 0 0 -0.72789,-0.109877 69.063843,69.063843 0 0 0 -6.89494,-0.34501 z m 0,37.42301 a 31.640887,31.640887 0 0 1 31.6411,31.640723 31.640887,31.640887 0 0 1 -31.6411,31.64111 31.640887,31.640887 0 0 1 -31.64073,-31.64111 31.640887,31.640887 0 0 1 31.64073,-31.640723 z" fill="#fff"/><g transform="matrix(0.38063549,-0.00510108,0.00510108,0.38063549,329.95779,-33.792727)" fill-rule="evenodd" stroke="#2042a1" stroke-width="3.177"><g fill="#fff"><path d="m -377.11864,592.75454 h 8.47457 c -4.73045,-48.26639 -14.22725,-95.86768 -49.54212,-148.30469 -7.87982,-10.03101 -14.6378,-21.561 -33.61466,-37.14053 l -18.06723,0.25153 -6.26505,9.5394 c 0.28824,54.06152 6.47067,64.8929 12.15008,86.60738 2.6192,-23.08972 3.07541,-43.29546 9.5339,-71.50424 14.88007,15.9548 29.76013,29.8993 44.6402,55.26893 28.18812,44.40648 32.40231,76.22081 32.69031,105.28222 z"/><path d="m -461.66578,425.97988 4.45216,3.44373 3.25534,3.18506"/><path d="m -366.28731,592.75454 h 5.43064 l -0.0341,-27.21233 -6.14561,-0.18727 z"/><path d="m -356.73687,592.75454 h 6.38578 l -0.5712,-31.49862 -6.55228,6.63179 z"/><path d="m -347.45762,592.75454 -0.18175,-46.59418 c 10.5375,-54.52651 40.79067,-94.13116 68.90916,-140.55751 11.34694,-2.69488 16.23583,-3.26315 25.55224,-2.00116 17.72401,39.9045 9.28116,86.3351 3.70763,102.22458 -0.03,-29.57441 -9.16192,-53.30818 -15.9807,-79.26189 -19.99215,18.61645 -77.55763,71.98029 -74.59133,166.19016 z"/><path d="m -265.77365,426.96726 4.54114,-4.58796"/><path d="m -314.2386,414.79986 c 7.78165,-22.01296 16.81052,-45.10368 39.40328,-83.78834 l 26.95396,-1.56237 c 16.27173,37.16226 14.93168,63.5302 16.4195,91.63136 -9.41625,-22.42232 -15.50137,-44.84463 -31.77967,-67.26695 -21.2105,23.22952 -32.33215,47.29977 -48.19915,70.97458 z"/><path d="m -264.27554,354.96446 5.43064,-6.41377"/><path d="m -389.18336,444.10745 c 0.21803,0.26719 -20.30525,-77.28083 -27.31746,-86.92866 l -22.28341,-31.06273 c -7.51364,-0.76416 -11.35958,-1.10835 -19.37255,-0.37453 -4.9483,7.06215 -9.84346,13.00071 -13.30578,20.06286 -8.25726,16.11467 -13.95189,39.66515 -17.84783,56.74901 l -0.62605,16.40846 c 11.75724,-22.08758 18.88485,-43.73425 40.25424,-66.73728 26.37801,31.5586 40.23417,69.56745 54.76897,106.06072 l 5.78862,-7.4951 z"/><path d="m -449.43228,352.4364 -5.19656,-6.46059"/></g><g transform="rotate(-14.411486,-1414.7725,456.74865)"><path d="m -372.467,562.73325 14.60655,-0.37453 c 1.63699,-9.02118 9.30026,-32.65377 -8.80139,-46.06681 -13.47024,20.39238 -9.35483,32.10396 -5.80516,46.44134 z" fill="#fff"/><path d="m -371.82203,562.56621 0.13241,-9.5339 0.48056,8.64761 1.37325,-0.39725 c -0.64801,-7.85413 -0.28475,-11.6555 -0.0662,-15.00354 -0.46761,4.66694 0.48743,10.01437 0.96002,14.83802 l 1.22484,-0.19862 -0.0662,-4.70824 0.8607,4.70824 c 1.76859,-0.40789 2.43858,-0.43023 4.10487,-0.0331 l 0.0662,-5.00618 0.59587,4.97307 1.58898,0.0662 c 0.64436,-3.68149 0.10283,-9.72767 -0.0662,-15.03663 0.48221,4.96699 1.82485,9.88958 1.19174,15.33456 l 1.32415,0.43035 c 0,0 0.72829,0.65458 0.46346,0.72078 -0.26483,0.0662 -13.8374,0.33104 -13.8374,0.33104 z" fill="#2042a1"/></g><g transform="rotate(-0.44540239,-31126.326,-232.24315)"><path d="m -372.467,562.73325 14.60655,-0.37453 c 1.63699,-9.02118 9.30026,-32.65377 -8.80139,-46.06681 -13.47024,20.39238 -9.35483,32.10396 -5.80516,46.44134 z" fill="#fff"/><path d="m -371.82203,562.56621 0.13241,-9.5339 0.48056,8.64761 1.37325,-0.39725 c -0.64801,-7.85413 -0.28475,-11.6555 -0.0662,-15.00354 -0.46761,4.66694 0.48743,10.01437 0.96002,14.83802 l 1.22484,-0.19862 -0.0662,-4.70824 0.8607,4.70824 c 1.76859,-0.40789 2.43858,-0.43023 4.10487,-0.0331 l 0.0662,-5.00618 0.59587,4.97307 1.58898,0.0662 c 0.64436,-3.68149 0.10283,-9.72767 -0.0662,-15.03663 0.48221,4.96699 1.82485,9.88958 1.19174,15.33456 l 1.32415,0.43035 c 0,0 0.72829,0.65458 0.46346,0.72078 -0.26483,0.0662 -13.8374,0.33104 -13.8374,0.33104 z" fill="#2042a1"/></g><g transform="rotate(-22.191853,-959.30439,450.21059)"><path d="m -372.467,562.73325 14.60655,-0.37453 c 1.63699,-9.02118 9.30026,-32.65377 -8.80139,-46.06681 -13.47024,20.39238 -9.35483,32.10396 -5.80516,46.44134 z" fill="#fff"/><path d="m -371.82203,562.56621 0.13241,-9.5339 0.48056,8.64761 1.37325,-0.39725 c -0.64801,-7.85413 -0.28475,-11.6555 -0.0662,-15.00354 -0.46761,4.66694 0.48743,10.01437 0.96002,14.83802 l 1.22484,-0.19862 -0.0662,-4.70824 0.8607,4.70824 c 1.76859,-0.40789 2.43858,-0.43023 4.10487,-0.0331 l 0.0662,-5.00618 0.59587,4.97307 1.58898,0.0662 c 0.64436,-3.68149 0.10283,-9.72767 -0.0662,-15.03663 0.48221,4.96699 1.82485,9.88958 1.19174,15.33456 l 1.32415,0.43035 c 0,0 0.72829,0.65458 0.46346,0.72078 -0.26483,0.0662 -13.8374,0.33104 -13.8374,0.33104 z" fill="#2042a1"/></g><g transform="rotate(13.897778,516.73618,452.19936)"><path d="m -372.467,562.73325 14.60655,-0.37453 c 1.63699,-9.02118 9.30026,-32.65377 -8.80139,-46.06681 -13.47024,20.39238 -9.35483,32.10396 -5.80516,46.44134 z" fill="#fff"/><path d="m -371.82203,562.56621 0.13241,-9.5339 0.48056,8.64761 1.37325,-0.39725 c -0.64801,-7.85413 -0.28475,-11.6555 -0.0662,-15.00354 -0.46761,4.66694 0.48743,10.01437 0.96002,14.83802 l 1.22484,-0.19862 -0.0662,-4.70824 0.8607,4.70824 c 1.76859,-0.40789 2.43858,-0.43023 4.10487,-0.0331 l 0.0662,-5.00618 0.59587,4.97307 1.58898,0.0662 c 0.64436,-3.68149 0.10283,-9.72767 -0.0662,-15.03663 0.48221,4.96699 1.82485,9.88958 1.19174,15.33456 l 1.32415,0.43035 c 0,0 0.72829,0.65458 0.46346,0.72078 -0.26483,0.0662 -13.8374,0.33104 -13.8374,0.33104 z" fill="#2042a1"/></g><g transform="rotate(-11.730074,-1337.5474,482.34938)"><path d="m -372.467,562.73325 14.60655,-0.37453 c 1.63699,-9.02118 9.30026,-32.65377 -8.80139,-46.06681 -13.47024,20.39238 -9.35483,32.10396 -5.80516,46.44134 z" fill="#fff"/><path d="m -371.82203,562.56621 0.13241,-9.5339 0.48056,8.64761 1.37325,-0.39725 c -0.64801,-7.85413 -0.28475,-11.6555 -0.0662,-15.00354 -0.46761,4.66694 0.48743,10.01437 0.96002,14.83802 l 1.22484,-0.19862 -0.0662,-4.70824 0.8607,4.70824 c 1.76859,-0.40789 2.43858,-0.43023 4.10487,-0.0331 l 0.0662,-5.00618 0.59587,4.97307 1.58898,0.0662 c 0.64436,-3.68149 0.10283,-9.72767 -0.0662,-15.03663 0.48221,4.96699 1.82485,9.88958 1.19174,15.33456 l 1.32415,0.43035 c 0,0 0.72829,0.65458 0.46346,0.72078 -0.26483,0.0662 -13.8374,0.33104 -13.8374,0.33104 z" fill="#2042a1"/></g><g transform="rotate(17.555445,280.34809,476.76767)"><path d="m -372.467,562.73325 14.60655,-0.37453 c 1.63699,-9.02118 9.30026,-32.65377 -8.80139,-46.06681 -13.47024,20.39238 -9.35483,32.10396 -5.80516,46.44134 z" fill="#fff"/><path d="m -371.82203,562.56621 0.13241,-9.5339 0.48056,8.64761 1.37325,-0.39725 c -0.64801,-7.85413 -0.28475,-11.6555 -0.0662,-15.00354 -0.46761,4.66694 0.48743,10.01437 0.96002,14.83802 l 1.22484,-0.19862 -0.0662,-4.70824 0.8607,4.70824 c 1.76859,-0.40789 2.43858,-0.43023 4.10487,-0.0331 l 0.0662,-5.00618 0.59587,4.97307 1.58898,0.0662 c 0.64436,-3.68149 0.10283,-9.72767 -0.0662,-15.03663 0.48221,4.96699 1.82485,9.88958 1.19174,15.33456 l 1.32415,0.43035 c 0,0 0.72829,0.65458 0.46346,0.72078 -0.26483,0.0662 -13.8374,0.33104 -13.8374,0.33104 z" fill="#2042a1"/></g><g transform="matrix(0.99197788,0.31835948,-0.31382512,1.0063107,178.64139,-58.860202)" stroke-width="3.032"><path d="m -372.467,562.73325 14.60655,-0.37453 c 1.63699,-9.02118 9.30026,-32.65377 -8.80139,-46.06681 -13.47024,20.39238 -9.35483,32.10396 -5.80516,46.44134 z" fill="#fff"/><path d="m -371.82203,562.56621 0.13241,-9.5339 0.48056,8.64761 1.37325,-0.39725 c -0.64801,-7.85413 -0.28475,-11.6555 -0.0662,-15.00354 -0.46761,4.66694 0.48743,10.01437 0.96002,14.83802 l 1.22484,-0.19862 -0.0662,-4.70824 0.8607,4.70824 c 1.76859,-0.40789 2.43858,-0.43023 4.10487,-0.0331 l 0.0662,-5.00618 0.59587,4.97307 1.58898,0.0662 c 0.64436,-3.68149 0.10283,-9.72767 -0.0662,-15.03663 0.48221,4.96699 1.82485,9.88958 1.19174,15.33456 l 1.32415,0.43035 c 0,0 0.72829,0.65458 0.46346,0.72078 -0.26483,0.0662 -13.8374,0.33104 -13.8374,0.33104 z" fill="#2042a1"/></g><g transform="matrix(0.99717612,-0.00613232,0.00549714,1.1123976,-12.192739,-231.26251)" stroke-width="3.017"><path d="m -372.467,562.73325 14.60655,-0.37453 c 1.63699,-9.02118 9.30026,-32.65377 -8.80139,-46.06681 -13.47024,20.39238 -9.35483,32.10396 -5.80516,46.44134 z" fill="#fff"/><path d="m -371.82203,562.56621 0.13241,-9.5339 0.48056,8.64761 1.37325,-0.39725 c -0.64801,-7.85413 -0.28475,-11.6555 -0.0662,-15.00354 -0.46761,4.66694 0.48743,10.01437 0.96002,14.83802 l 1.22484,-0.19862 -0.0662,-4.70824 0.8607,4.70824 c 1.76859,-0.40789 2.43858,-0.43023 4.10487,-0.0331 l 0.0662,-5.00618 0.59587,4.97307 1.58898,0.0662 c 0.64436,-3.68149 0.10283,-9.72767 -0.0662,-15.03663 0.48221,4.96699 1.82485,9.88958 1.19174,15.33456 l 1.32415,0.43035 c 0,0 0.72829,0.65458 0.46346,0.72078 -0.26483,0.0662 -13.8374,0.33104 -13.8374,0.33104 z" fill="#2042a1"/></g><g transform="matrix(1.0192192,0.34000141,-0.35753583,0.96923422,210.35326,7.770291)" stroke-width="3.017"><path d="m -372.467,562.73325 14.60655,-0.37453 c 1.63699,-9.02118 9.30026,-32.65377 -8.80139,-46.06681 -13.47024,20.39238 -9.35483,32.10396 -5.80516,46.44134 z" fill="#fff"/><path d="m -371.82203,562.56621 0.13241,-9.5339 0.48056,8.64761 1.37325,-0.39725 c -0.64801,-7.85413 -0.28475,-11.6555 -0.0662,-15.00354 -0.46761,4.66694 0.48743,10.01437 0.96002,14.83802 l 1.22484,-0.19862 -0.0662,-4.70824 0.8607,4.70824 c 1.76859,-0.40789 2.43858,-0.43023 4.10487,-0.0331 l 0.0662,-5.00618 0.59587,4.97307 1.58898,0.0662 c 0.64436,-3.68149 0.10283,-9.72767 -0.0662,-15.03663 0.48221,4.96699 1.82485,9.88958 1.19174,15.33456 l 1.32415,0.43035 c 0,0 0.72829,0.65458 0.46346,0.72078 -0.26483,0.0662 -13.8374,0.33104 -13.8374,0.33104 z" fill="#2042a1"/></g><g transform="matrix(1.0192192,0.34000141,-0.35753583,0.96923422,197.90622,5.121986)" stroke-width="3.017"><path d="m -372.467,562.73325 14.60655,-0.37453 c 1.63699,-9.02118 9.30026,-32.65377 -8.80139,-46.06681 -13.47024,20.39238 -9.35483,32.10396 -5.80516,46.44134 z" fill="#fff"/><path d="m -371.82203,562.56621 0.13241,-9.5339 0.48056,8.64761 1.37325,-0.39725 c -0.64801,-7.85413 -0.28475,-11.6555 -0.0662,-15.00354 -0.46761,4.66694 0.48743,10.01437 0.96002,14.83802 l 1.22484,-0.19862 -0.0662,-4.70824 0.8607,4.70824 c 1.76859,-0.40789 2.43858,-0.43023 4.10487,-0.0331 l 0.0662,-5.00618 0.59587,4.97307 1.58898,0.0662 c 0.64436,-3.68149 0.10283,-9.72767 -0.0662,-15.03663 0.48221,4.96699 1.82485,9.88958 1.19174,15.33456 l 1.32415,0.43035 c 0,0 0.72829,0.65458 0.46346,0.72078 -0.26483,0.0662 -13.8374,0.33104 -13.8374,0.33104 z" fill="#2042a1"/></g><g stroke-width="3.079"><g transform="matrix(1.0290795,-0.25850043,0.27557714,0.96531043,-152.36572,-210.66819)"><path d="m -372.467,562.73325 14.60655,-0.37453 c 1.63699,-9.02118 9.30026,-32.65377 -8.80139,-46.06681 -13.47024,20.39238 -9.35483,32.10396 -5.80516,46.44134 z" fill="#fff"/><path d="m -371.82203,562.56621 0.13241,-9.5339 0.48056,8.64761 1.37325,-0.39725 c -0.64801,-7.85413 -0.28475,-11.6555 -0.0662,-15.00354 -0.46761,4.66694 0.48743,10.01437 0.96002,14.83802 l 1.22484,-0.19862 -0.0662,-4.70824 0.8607,4.70824 c 1.76859,-0.40789 2.43858,-0.43023 4.10487,-0.0331 l 0.0662,-5.00618 0.59587,4.97307 1.58898,0.0662 c 0.64436,-3.68149 0.10283,-9.72767 -0.0662,-15.03663 0.48221,4.96699 1.82485,9.88958 1.19174,15.33456 l 1.32415,0.43035 c 0,0 0.72829,0.65458 0.46346,0.72078 -0.26483,0.0662 -13.8374,0.33104 -13.8374,0.33104 z" fill="#2042a1"/></g><g transform="matrix(1.0158739,0.30631265,-0.25892759,0.96990901,156.20657,24.40636)"><path d="m -372.467,562.73325 14.60655,-0.37453 c 1.63699,-9.02118 9.30026,-32.65377 -8.80139,-46.06681 -13.47024,20.39238 -9.35483,32.10396 -5.80516,46.44134 z" fill="#fff"/><path d="m -371.82203,562.56621 0.13241,-9.5339 0.48056,8.64761 1.37325,-0.39725 c -0.64801,-7.85413 -0.28475,-11.6555 -0.0662,-15.00354 -0.46761,4.66694 0.48743,10.01437 0.96002,14.83802 l 1.22484,-0.19862 -0.0662,-4.70824 0.8607,4.70824 c 1.76859,-0.40789 2.43858,-0.43023 4.10487,-0.0331 l 0.0662,-5.00618 0.59587,4.97307 1.58898,0.0662 c 0.64436,-3.68149 0.10283,-9.72767 -0.0662,-15.03663 0.48221,4.96699 1.82485,9.88958 1.19174,15.33456 l 1.32415,0.43035 c 0,0 0.72829,0.65458 0.46346,0.72078 -0.26483,0.0662 -13.8374,0.33104 -13.8374,0.33104 z" fill="#2042a1"/></g><g transform="matrix(1.0158739,0.30631265,-0.25892759,0.96990901,140.31674,22.287716)"><path d="m -372.467,562.73325 14.60655,-0.37453 c 1.63699,-9.02118 9.30026,-32.65377 -8.80139,-46.06681 -13.47024,20.39238 -9.35483,32.10396 -5.80516,46.44134 z" fill="#fff"/><path d="m -371.82203,562.56621 0.13241,-9.5339 0.48056,8.64761 1.37325,-0.39725 c -0.64801,-7.85413 -0.28475,-11.6555 -0.0662,-15.00354 -0.46761,4.66694 0.48743,10.01437 0.96002,14.83802 l 1.22484,-0.19862 -0.0662,-4.70824 0.8607,4.70824 c 1.76859,-0.40789 2.43858,-0.43023 4.10487,-0.0331 l 0.0662,-5.00618 0.59587,4.97307 1.58898,0.0662 c 0.64436,-3.68149 0.10283,-9.72767 -0.0662,-15.03663 0.48221,4.96699 1.82485,9.88958 1.19174,15.33456 l 1.32415,0.43035 c 0,0 0.72829,0.65458 0.46346,0.72078 -0.26483,0.0662 -13.8374,0.33104 -13.8374,0.33104 z" fill="#2042a1"/></g></g><g transform="matrix(1.0494498,-0.15385482,0.16644141,1.067279,-96.245184,-197.97279)" stroke-width="2.969"><path d="m -372.467,562.73325 14.60655,-0.37453 c 1.63699,-9.02118 9.30026,-32.65377 -8.80139,-46.06681 -13.47024,20.39238 -9.35483,32.10396 -5.80516,46.44134 z" fill="#fff"/><path d="m -371.82203,562.56621 0.13241,-9.5339 0.48056,8.64761 1.37325,-0.39725 c -0.64801,-7.85413 -0.28475,-11.6555 -0.0662,-15.00354 -0.46761,4.66694 0.48743,10.01437 0.96002,14.83802 l 1.22484,-0.19862 -0.0662,-4.70824 0.8607,4.70824 c 1.76859,-0.40789 2.43858,-0.43023 4.10487,-0.0331 l 0.0662,-5.00618 0.59587,4.97307 1.58898,0.0662 c 0.64436,-3.68149 0.10283,-9.72767 -0.0662,-15.03663 0.48221,4.96699 1.82485,9.88958 1.19174,15.33456 l 1.32415,0.43035 c 0,0 0.72829,0.65458 0.46346,0.72078 -0.26483,0.0662 -13.8374,0.33104 -13.8374,0.33104 z" fill="#2042a1"/></g><g transform="matrix(1.179289,0.26126527,-0.28929051,1.0119762,213.92798,14.687307)" stroke-width="2.821"><path d="m -372.467,562.73325 14.60655,-0.37453 c 1.63699,-9.02118 9.30026,-32.65377 -8.80139,-46.06681 -13.47024,20.39238 -9.35483,32.10396 -5.80516,46.44134 z" fill="#fff"/><path d="m -371.82203,562.56621 0.13241,-9.5339 0.48056,8.64761 1.37325,-0.39725 c -0.64801,-7.85413 -0.28475,-11.6555 -0.0662,-15.00354 -0.46761,4.66694 0.48743,10.01437 0.96002,14.83802 l 1.22484,-0.19862 -0.0662,-4.70824 0.8607,4.70824 c 1.76859,-0.40789 2.43858,-0.43023 4.10487,-0.0331 l 0.0662,-5.00618 0.59587,4.97307 1.58898,0.0662 c 0.64436,-3.68149 0.10283,-9.72767 -0.0662,-15.03663 0.48221,4.96699 1.82485,9.88958 1.19174,15.33456 l 1.32415,0.43035 c 0,0 0.72829,0.65458 0.46346,0.72078 -0.26483,0.0662 -13.8374,0.33104 -13.8374,0.33104 z" fill="#2042a1"/></g><g transform="matrix(1.058793,-0.281438,0.29935046,0.9589588,-161.88522,-150.91803)" stroke-width="3.03"><path d="m -372.467,562.73325 14.60655,-0.37453 c 1.63699,-9.02118 9.30026,-32.65377 -8.80139,-46.06681 -13.47024,20.39238 -9.35483,32.10396 -5.80516,46.44134 z" fill="#fff"/><path d="m -371.82203,562.56621 0.13241,-9.5339 0.48056,8.64761 1.37325,-0.39725 c -0.64801,-7.85413 -0.28475,-11.6555 -0.0662,-15.00354 -0.46761,4.66694 0.48743,10.01437 0.96002,14.83802 l 1.22484,-0.19862 -0.0662,-4.70824 0.8607,4.70824 c 1.76859,-0.40789 2.43858,-0.43023 4.10487,-0.0331 l 0.0662,-5.00618 0.59587,4.97307 1.58898,0.0662 c 0.64436,-3.68149 0.10283,-9.72767 -0.0662,-15.03663 0.48221,4.96699 1.82485,9.88958 1.19174,15.33456 l 1.32415,0.43035 c 0,0 0.72829,0.65458 0.46346,0.72078 -0.26483,0.0662 -13.8374,0.33104 -13.8374,0.33104 z" fill="#2042a1"/></g><g transform="rotate(-22.471194,-965.49719,330.63671)"><path d="m -372.467,562.73325 14.60655,-0.37453 c 1.63699,-9.02118 9.30026,-32.65377 -8.80139,-46.06681 -13.47024,20.39238 -9.35483,32.10396 -5.80516,46.44134 z" fill="#fff"/><path d="m -371.82203,562.56621 0.13241,-9.5339 0.48056,8.64761 1.37325,-0.39725 c -0.64801,-7.85413 -0.28475,-11.6555 -0.0662,-15.00354 -0.46761,4.66694 0.48743,10.01437 0.96002,14.83802 l 1.22484,-0.19862 -0.0662,-4.70824 0.8607,4.70824 c 1.76859,-0.40789 2.43858,-0.43023 4.10487,-0.0331 l 0.0662,-5.00618 0.59587,4.97307 1.58898,0.0662 c 0.64436,-3.68149 0.10283,-9.72767 -0.0662,-15.03663 0.48221,4.96699 1.82485,9.88958 1.19174,15.33456 l 1.32415,0.43035 c 0,0 0.72829,0.65458 0.46346,0.72078 -0.26483,0.0662 -13.8374,0.33104 -13.8374,0.33104 z" fill="#2042a1"/></g><g transform="rotate(-0.54549099,-24365.589,-4749.4042)"><path d="m -372.467,562.73325 14.60655,-0.37453 c 1.63699,-9.02118 9.30026,-32.65377 -8.80139,-46.06681 -13.47024,20.39238 -9.35483,32.10396 -5.80516,46.44134 z" fill="#fff"/><path d="m -371.82203,562.56621 0.13241,-9.5339 0.48056,8.64761 1.37325,-0.39725 c -0.64801,-7.85413 -0.28475,-11.6555 -0.0662,-15.00354 -0.46761,4.66694 0.48743,10.01437 0.96002,14.83802 l 1.22484,-0.19862 -0.0662,-4.70824 0.8607,4.70824 c 1.76859,-0.40789 2.43858,-0.43023 4.10487,-0.0331 l 0.0662,-5.00618 0.59587,4.97307 1.58898,0.0662 c 0.64436,-3.68149 0.10283,-9.72767 -0.0662,-15.03663 0.48221,4.96699 1.82485,9.88958 1.19174,15.33456 l 1.32415,0.43035 c 0,0 0.72829,0.65458 0.46346,0.72078 -0.26483,0.0662 -13.8374,0.33104 -13.8374,0.33104 z" fill="#2042a1"/></g><g transform="rotate(-23.357527,-888.12359,345.77281)"><path d="m -372.467,562.73325 14.60655,-0.37453 c 1.63699,-9.02118 9.30026,-32.65377 -8.80139,-46.06681 -13.47024,20.39238 -9.35483,32.10396 -5.80516,46.44134 z" fill="#fff"/><path d="m -371.82203,562.56621 0.13241,-9.5339 0.48056,8.64761 1.37325,-0.39725 c -0.64801,-7.85413 -0.28475,-11.6555 -0.0662,-15.00354 -0.46761,4.66694 0.48743,10.01437 0.96002,14.83802 l 1.22484,-0.19862 -0.0662,-4.70824 0.8607,4.70824 c 1.76859,-0.40789 2.43858,-0.43023 4.10487,-0.0331 l 0.0662,-5.00618 0.59587,4.97307 1.58898,0.0662 c 0.64436,-3.68149 0.10283,-9.72767 -0.0662,-15.03663 0.48221,4.96699 1.82485,9.88958 1.19174,15.33456 l 1.32415,0.43035 c 0,0 0.72829,0.65458 0.46346,0.72078 -0.26483,0.0662 -13.8374,0.33104 -13.8374,0.33104 z" fill="#2042a1"/></g><g transform="rotate(8.9227113,955.80329,779.44956)"><path d="m -372.467,562.73325 14.60655,-0.37453 c 1.63699,-9.02118 9.30026,-32.65377 -8.80139,-46.06681 -13.47024,20.39238 -9.35483,32.10396 -5.80516,46.44134 z" fill="#fff"/><path d="m -371.82203,562.56621 0.13241,-9.5339 0.48056,8.64761 1.37325,-0.39725 c -0.64801,-7.85413 -0.28475,-11.6555 -0.0662,-15.00354 -0.46761,4.66694 0.48743,10.01437 0.96002,14.83802 l 1.22484,-0.19862 -0.0662,-4.70824 0.8607,4.70824 c 1.76859,-0.40789 2.43858,-0.43023 4.10487,-0.0331 l 0.0662,-5.00618 0.59587,4.97307 1.58898,0.0662 c 0.64436,-3.68149 0.10283,-9.72767 -0.0662,-15.03663 0.48221,4.96699 1.82485,9.88958 1.19174,15.33456 l 1.32415,0.43035 c 0,0 0.72829,0.65458 0.46346,0.72078 -0.26483,0.0662 -13.8374,0.33104 -13.8374,0.33104 z" fill="#2042a1"/></g><g transform="rotate(-14.103807,-1145.3545,286.51634)"><path d="m -372.467,562.73325 14.60655,-0.37453 c 1.63699,-9.02118 9.30026,-32.65377 -8.80139,-46.06681 -13.47024,20.39238 -9.35483,32.10396 -5.80516,46.44134 z" fill="#fff"/><path d="m -371.82203,562.56621 0.13241,-9.5339 0.48056,8.64761 1.37325,-0.39725 c -0.64801,-7.85413 -0.28475,-11.6555 -0.0662,-15.00354 -0.46761,4.66694 0.48743,10.01437 0.96002,14.83802 l 1.22484,-0.19862 -0.0662,-4.70824 0.8607,4.70824 c 1.76859,-0.40789 2.43858,-0.43023 4.10487,-0.0331 l 0.0662,-5.00618 0.59587,4.97307 1.58898,0.0662 c 0.64436,-3.68149 0.10283,-9.72767 -0.0662,-15.03663 0.48221,4.96699 1.82485,9.88958 1.19174,15.33456 l 1.32415,0.43035 c 0,0 0.72829,0.65458 0.46346,0.72078 -0.26483,0.0662 -13.8374,0.33104 -13.8374,0.33104 z" fill="#2042a1"/></g><g transform="rotate(5.0055684,1628.1548,1091.2806)"><path d="m -372.467,562.73325 14.60655,-0.37453 c 1.63699,-9.02118 9.30026,-32.65377 -8.80139,-46.06681 -13.47024,20.39238 -9.35483,32.10396 -5.80516,46.44134 z" fill="#fff"/><path d="m -371.82203,562.56621 0.13241,-9.5339 0.48056,8.64761 1.37325,-0.39725 c -0.64801,-7.85413 -0.28475,-11.6555 -0.0662,-15.00354 -0.46761,4.66694 0.48743,10.01437 0.96002,14.83802 l 1.22484,-0.19862 -0.0662,-4.70824 0.8607,4.70824 c 1.76859,-0.40789 2.43858,-0.43023 4.10487,-0.0331 l 0.0662,-5.00618 0.59587,4.97307 1.58898,0.0662 c 0.64436,-3.68149 0.10283,-9.72767 -0.0662,-15.03663 0.48221,4.96699 1.82485,9.88958 1.19174,15.33456 l 1.32415,0.43035 c 0,0 0.72829,0.65458 0.46346,0.72078 -0.26483,0.0662 -13.8374,0.33104 -13.8374,0.33104 z" fill="#2042a1"/></g><g transform="rotate(-7.672294,-1578.7573,186.33522)"><path d="m -372.467,562.73325 14.60655,-0.37453 c 1.63699,-9.02118 9.30026,-32.65377 -8.80139,-46.06681 -13.47024,20.39238 -9.35483,32.10396 -5.80516,46.44134 z" fill="#fff"/><path d="m -371.82203,562.56621 0.13241,-9.5339 0.48056,8.64761 1.37325,-0.39725 c -0.64801,-7.85413 -0.28475,-11.6555 -0.0662,-15.00354 -0.46761,4.66694 0.48743,10.01437 0.96002,14.83802 l 1.22484,-0.19862 -0.0662,-4.70824 0.8607,4.70824 c 1.76859,-0.40789 2.43858,-0.43023 4.10487,-0.0331 l 0.0662,-5.00618 0.59587,4.97307 1.58898,0.0662 c 0.64436,-3.68149 0.10283,-9.72767 -0.0662,-15.03663 0.48221,4.96699 1.82485,9.88958 1.19174,15.33456 l 1.32415,0.43035 c 0,0 0.72829,0.65458 0.46346,0.72078 -0.26483,0.0662 -13.8374,0.33104 -13.8374,0.33104 z" fill="#2042a1"/></g><g transform="rotate(10.442429,407.19073,756.76506)"><path d="m -372.467,562.73325 14.60655,-0.37453 c 1.63699,-9.02118 9.30026,-32.65377 -8.80139,-46.06681 -13.47024,20.39238 -9.35483,32.10396 -5.80516,46.44134 z" fill="#fff"/><path d="m -371.82203,562.56621 0.13241,-9.5339 0.48056,8.64761 1.37325,-0.39725 c -0.64801,-7.85413 -0.28475,-11.6555 -0.0662,-15.00354 -0.46761,4.66694 0.48743,10.01437 0.96002,14.83802 l 1.22484,-0.19862 -0.0662,-4.70824 0.8607,4.70824 c 1.76859,-0.40789 2.43858,-0.43023 4.10487,-0.0331 l 0.0662,-5.00618 0.59587,4.97307 1.58898,0.0662 c 0.64436,-3.68149 0.10283,-9.72767 -0.0662,-15.03663 0.48221,4.96699 1.82485,9.88958 1.19174,15.33456 l 1.32415,0.43035 c 0,0 0.72829,0.65458 0.46346,0.72078 -0.26483,0.0662 -13.8374,0.33104 -13.8374,0.33104 z" fill="#2042a1"/></g><g transform="rotate(-5.2853858,-1790.8362,95.218284)"><path d="m -372.467,562.73325 14.60655,-0.37453 c 1.63699,-9.02118 9.30026,-32.65377 -8.80139,-46.06681 -13.47024,20.39238 -9.35483,32.10396 -5.80516,46.44134 z" fill="#fff"/><path d="m -371.82203,562.56621 0.13241,-9.5339 0.48056,8.64761 1.37325,-0.39725 c -0.64801,-7.85413 -0.28475,-11.6555 -0.0662,-15.00354 -0.46761,4.66694 0.48743,10.01437 0.96002,14.83802 l 1.22484,-0.19862 -0.0662,-4.70824 0.8607,4.70824 c 1.76859,-0.40789 2.43858,-0.43023 4.10487,-0.0331 l 0.0662,-5.00618 0.59587,4.97307 1.58898,0.0662 c 0.64436,-3.68149 0.10283,-9.72767 -0.0662,-15.03663 0.48221,4.96699 1.82485,9.88958 1.19174,15.33456 l 1.32415,0.43035 c 0,0 0.72829,0.65458 0.46346,0.72078 -0.26483,0.0662 -13.8374,0.33104 -13.8374,0.33104 z" fill="#2042a1"/></g><g transform="rotate(-6.4143624,-1218.3084,234.25261)"><path d="m -372.467,562.73325 14.60655,-0.37453 c 1.63699,-9.02118 9.30026,-32.65377 -8.80139,-46.06681 -13.47024,20.39238 -9.35483,32.10396 -5.80516,46.44134 z" fill="#fff"/><path d="m -371.82203,562.56621 0.13241,-9.5339 0.48056,8.64761 1.37325,-0.39725 c -0.64801,-7.85413 -0.28475,-11.6555 -0.0662,-15.00354 -0.46761,4.66694 0.48743,10.01437 0.96002,14.83802 l 1.22484,-0.19862 -0.0662,-4.70824 0.8607,4.70824 c 1.76859,-0.40789 2.43858,-0.43023 4.10487,-0.0331 l 0.0662,-5.00618 0.59587,4.97307 1.58898,0.0662 c 0.64436,-3.68149 0.10283,-9.72767 -0.0662,-15.03663 0.48221,4.96699 1.82485,9.88958 1.19174,15.33456 l 1.32415,0.43035 c 0,0 0.72829,0.65458 0.46346,0.72078 -0.26483,0.0662 -13.8374,0.33104 -13.8374,0.33104 z" fill="#2042a1"/></g><g transform="rotate(14.046612,99.401752,681.82892)"><path d="m -372.467,562.73325 14.60655,-0.37453 c 1.63699,-9.02118 9.30026,-32.65377 -8.80139,-46.06681 -13.47024,20.39238 -9.35483,32.10396 -5.80516,46.44134 z" fill="#fff"/><path d="m -371.82203,562.56621 0.13241,-9.5339 0.48056,8.64761 1.37325,-0.39725 c -0.64801,-7.85413 -0.28475,-11.6555 -0.0662,-15.00354 -0.46761,4.66694 0.48743,10.01437 0.96002,14.83802 l 1.22484,-0.19862 -0.0662,-4.70824 0.8607,4.70824 c 1.76859,-0.40789 2.43858,-0.43023 4.10487,-0.0331 l 0.0662,-5.00618 0.59587,4.97307 1.58898,0.0662 c 0.64436,-3.68149 0.10283,-9.72767 -0.0662,-15.03663 0.48221,4.96699 1.82485,9.88958 1.19174,15.33456 l 1.32415,0.43035 c 0,0 0.72829,0.65458 0.46346,0.72078 -0.26483,0.0662 -13.8374,0.33104 -13.8374,0.33104 z" fill="#2042a1"/></g><g transform="rotate(24.619184,-189.71196,588.84283)"><path d="m -372.467,562.73325 14.60655,-0.37453 c 1.63699,-9.02118 9.30026,-32.65377 -8.80139,-46.06681 -13.47024,20.39238 -9.35483,32.10396 -5.80516,46.44134 z" fill="#fff"/><path d="m -371.82203,562.56621 0.13241,-9.5339 0.48056,8.64761 1.37325,-0.39725 c -0.64801,-7.85413 -0.28475,-11.6555 -0.0662,-15.00354 -0.46761,4.66694 0.48743,10.01437 0.96002,14.83802 l 1.22484,-0.19862 -0.0662,-4.70824 0.8607,4.70824 c 1.76859,-0.40789 2.43858,-0.43023 4.10487,-0.0331 l 0.0662,-5.00618 0.59587,4.97307 1.58898,0.0662 c 0.64436,-3.68149 0.10283,-9.72767 -0.0662,-15.03663 0.48221,4.96699 1.82485,9.88958 1.19174,15.33456 l 1.32415,0.43035 c 0,0 0.72829,0.65458 0.46346,0.72078 -0.26483,0.0662 -13.8374,0.33104 -13.8374,0.33104 z" fill="#2042a1"/></g><g transform="matrix(1.0272962,0.26549902,-0.21998739,0.97947564,145.09896,35.464577)" stroke-width="3.079"><path d="m -372.467,562.73325 14.60655,-0.37453 c 1.63699,-9.02118 9.30026,-32.65377 -8.80139,-46.06681 -13.47024,20.39238 -9.35483,32.10396 -5.80516,46.44134 z" fill="#fff"/><path d="m -371.82203,562.56621 0.13241,-9.5339 0.48056,8.64761 1.37325,-0.39725 c -0.64801,-7.85413 -0.28475,-11.6555 -0.0662,-15.00354 -0.46761,4.66694 0.48743,10.01437 0.96002,14.83802 l 1.22484,-0.19862 -0.0662,-4.70824 0.8607,4.70824 c 1.76859,-0.40789 2.43858,-0.43023 4.10487,-0.0331 l 0.0662,-5.00618 0.59587,4.97307 1.58898,0.0662 c 0.64436,-3.68149 0.10283,-9.72767 -0.0662,-15.03663 0.48221,4.96699 1.82485,9.88958 1.19174,15.33456 l 1.32415,0.43035 c 0,0 0.72829,0.65458 0.46346,0.72078 -0.26483,0.0662 -13.8374,0.33104 -13.8374,0.33104 z" fill="#2042a1"/></g><g transform="matrix(1.0568873,0.09389578,-0.05681873,1.0022667,55.112493,-20.803495)" stroke-width="3.079"><path d="m -372.467,562.73325 14.60655,-0.37453 c 1.63699,-9.02118 9.30026,-32.65377 -8.80139,-46.06681 -13.47024,20.39238 -9.35483,32.10396 -5.80516,46.44134 z" fill="#fff"/><path d="m -371.82203,562.56621 0.13241,-9.5339 0.48056,8.64761 1.37325,-0.39725 c -0.64801,-7.85413 -0.28475,-11.6555 -0.0662,-15.00354 -0.46761,4.66694 0.48743,10.01437 0.96002,14.83802 l 1.22484,-0.19862 -0.0662,-4.70824 0.8607,4.70824 c 1.76859,-0.40789 2.43858,-0.43023 4.10487,-0.0331 l 0.0662,-5.00618 0.59587,4.97307 1.58898,0.0662 c 0.64436,-3.68149 0.10283,-9.72767 -0.0662,-15.03663 0.48221,4.96699 1.82485,9.88958 1.19174,15.33456 l 1.32415,0.43035 c 0,0 0.72829,0.65458 0.46346,0.72078 -0.26483,0.0662 -13.8374,0.33104 -13.8374,0.33104 z" fill="#2042a1"/></g><g><g transform="rotate(20.893708,-263.1487,572.02535)"><path d="m -372.467,562.73325 14.60655,-0.37453 c 1.63699,-9.02118 9.30026,-32.65377 -8.80139,-46.06681 -13.47024,20.39238 -9.35483,32.10396 -5.80516,46.44134 z" fill="#fff"/><path d="m -371.82203,562.56621 0.13241,-9.5339 0.48056,8.64761 1.37325,-0.39725 c -0.64801,-7.85413 -0.28475,-11.6555 -0.0662,-15.00354 -0.46761,4.66694 0.48743,10.01437 0.96002,14.83802 l 1.22484,-0.19862 -0.0662,-4.70824 0.8607,4.70824 c 1.76859,-0.40789 2.43858,-0.43023 4.10487,-0.0331 l 0.0662,-5.00618 0.59587,4.97307 1.58898,0.0662 c 0.64436,-3.68149 0.10283,-9.72767 -0.0662,-15.03663 0.48221,4.96699 1.82485,9.88958 1.19174,15.33456 l 1.32415,0.43035 c 0,0 0.72829,0.65458 0.46346,0.72078 -0.26483,0.0662 -13.8374,0.33104 -13.8374,0.33104 z" fill="#2042a1"/></g><g transform="rotate(-18.137401,-476.56676,549.9622)"><path d="m -372.467,562.73325 14.60655,-0.37453 c 1.63699,-9.02118 9.30026,-32.65377 -8.80139,-46.06681 -13.47024,20.39238 -9.35483,32.10396 -5.80516,46.44134 z" fill="#fff"/><path d="m -371.82203,562.56621 0.13241,-9.5339 0.48056,8.64761 1.37325,-0.39725 c -0.64801,-7.85413 -0.28475,-11.6555 -0.0662,-15.00354 -0.46761,4.66694 0.48743,10.01437 0.96002,14.83802 l 1.22484,-0.19862 -0.0662,-4.70824 0.8607,4.70824 c 1.76859,-0.40789 2.43858,-0.43023 4.10487,-0.0331 l 0.0662,-5.00618 0.59587,4.97307 1.58898,0.0662 c 0.64436,-3.68149 0.10283,-9.72767 -0.0662,-15.03663 0.48221,4.96699 1.82485,9.88958 1.19174,15.33456 l 1.32415,0.43035 c 0,0 0.72829,0.65458 0.46346,0.72078 -0.26483,0.0662 -13.8374,0.33104 -13.8374,0.33104 z" fill="#2042a1"/></g><g transform="translate(3.707627,-1.324153)"><path d="m -372.467,562.73325 14.60655,-0.37453 c 1.63699,-9.02118 9.30026,-32.65377 -8.80139,-46.06681 -13.47024,20.39238 -9.35483,32.10396 -5.80516,46.44134 z" fill="#fff"/><path d="m -371.82203,562.56621 0.13241,-9.5339 0.48056,8.64761 1.37325,-0.39725 c -0.64801,-7.85413 -0.28475,-11.6555 -0.0662,-15.00354 -0.46761,4.66694 0.48743,10.01437 0.96002,14.83802 l 1.22484,-0.19862 -0.0662,-4.70824 0.8607,4.70824 c 1.76859,-0.40789 2.43858,-0.43023 4.10487,-0.0331 l 0.0662,-5.00618 0.59587,4.97307 1.58898,0.0662 c 0.64436,-3.68149 0.10283,-9.72767 -0.0662,-15.03663 0.48221,4.96699 1.82485,9.88958 1.19174,15.33456 l 1.32415,0.43035 c 0,0 0.72829,0.65458 0.46346,0.72078 -0.26483,0.0662 -13.8374,0.33104 -13.8374,0.33104 z" fill="#2042a1"/></g></g></g><path d="m 206.91777,47.641084 -10.52528,-7.201823 -10.56646,7.143398 3.75538,-12.009193 -10.21611,-7.614936 12.84563,-0.220284 4.25293,-11.849692 4.18397,11.873068 12.84426,0.291421 -10.26004,7.558235 z" id="a" fill="#fff" fill-rule="evenodd" stroke-width=".452"/><use y="0" x="0" xlink:href="#a" width="900" transform="translate(-40.681021,8.7383252)" height="500" id="b"/><use y="0" x="0" xlink:href="#b" width="900" transform="translate(-32.932308,23.30218)" height="500" id="c"/><use y="0" x="0" xlink:href="#c" width="900" transform="translate(-16.466053,34.95322)" height="500" id="d"/><use y="0" x="0" xlink:href="#d" width="900" transform="translate(-4.1325395e-5,38.8369)" height="500" id="e"/><use y="0" x="0" xlink:href="#e" width="900" transform="translate(16.466154,38.836799)" height="500" id="f"/><use y="0" x="0" xlink:href="#f" width="900" transform="translate(31.479367,28.156705)" height="500" id="g"/><use y="0" x="0" xlink:href="#g" width="900" transform="translate(40.681021,9.7092402)" height="500" id="h"/><use y="0" x="0" xlink:href="#h" width="900" transform="translate(42.618275,-7.7673196)" height="500" id="i"/><use y="0" x="0" xlink:href="#i" width="900" transform="translate(31.479166,-28.156705)" height="500" id="j"/><use y="0" x="0" xlink:href="#j" width="900" transform="translate(17.434781,-38.836799)" height="500" id="k"/><use y="0" x="0" xlink:href="#k" width="900" transform="translate(-2.9058808,-37.865955)" height="500" id="l"/><use y="0" x="0" xlink:href="#l" width="900" transform="translate(-17.43468,-35.924165)" height="500" id="m"/><use xlink:href="#m" width="900" transform="translate(-27.120647,-25.24397)" height="500"/></g></svg>