<svg xmlns="http://www.w3.org/2000/svg" height="600" width="900"><path d="M 0,0 H 900 V 600 H 0 Z" fill="#032ea1" fill-rule="evenodd"/><path d="m 525,113.802 8.9256,27.5472 29.028,-0.048 -23.5116,16.98 9.0144,27.5196 L 525,168.7464 l -23.4564,17.052 9.0144,-27.516 -23.5116,-16.98 29.028,0.0456 z m 150,0.396 8.9256,27.5484 29.028,-0.048 -23.5116,16.98 9.0144,27.5196 L 675,169.1436 l -23.4564,17.0544 9.0144,-27.5196 -23.5116,-16.98 29.028,0.048 z m 150,-0.396 8.9256,27.5472 29.028,-0.048 -23.5116,16.98 9.0144,27.5196 L 825,168.7464 l -23.4564,17.052 9.0144,-27.516 -23.5116,-16.98 29.028,0.0456 z" fill="#fff"/><path d="M 0,0 H 450 V 300 H 0 Z" fill="#e00025" fill-rule="evenodd"/><g transform="matrix(1.2,0,0,1.2,0,-0.00201167)" stroke="#000"><g fill="#fff"><g transform="matrix(0.62067,0,0,0.62232,-50.128,-196.472)"><path d="m 379.09,389.916 c 0,0 -0.23,-6.58 3.6,-6.652 3.833,0.072 3.602,6.652 3.602,6.652 z m 158.35,172.017 v -32.83 c 1.07,-4.164 4.606,-7.848 7.264,-8.586 v -30.79 c -4.02,0 -5.987,5.238 -5.987,5.238 l -6.834,30.098 v 36.618 z" stroke-width="1.2"/><path d="m 477.79,496.58 h -9.856 v 20.887 h 9.855 z" stroke-width="1.292" stroke-linecap="square" stroke-linejoin="bevel"/><g stroke-width="1.2"><path d="m 292.726,496.58 h 182.08 v 70.06 h -182.08 z" stroke-linejoin="bevel"/><path d="m 228.58,561.807 v -32.704 c -1.07,-4.164 -4.606,-7.848 -7.264,-8.586 v -28.79 l 5.987,3.238 6.834,30.098 v 36.744 z"/><path d="m 228.58,561.933 v -32.83 c -1.07,-4.164 -4.606,-7.848 -7.264,-8.586 v -30.79 c 4.02,0 5.987,5.238 5.987,5.238 l 6.834,30.098 v 36.618 z"/><path d="m 221.5,570.317 c 2.817,-1.435 6.03,-4.774 7.08,-8.51 H 537.5 c 1.05,3.736 4.264,7.075 7.08,8.51 z"/><g stroke-linejoin="bevel"><path d="m 465.398,535.257 h 5.738 v 26.393 h -5.738 z" stroke-linecap="square"/><path d="m 292.726,522.22 h 182.08 v 8.145 h -182.08 z m 0,-11.037 h 182.08 v 7.182 h -182.08 z"/></g></g><path d="m 292.726,500.157 h 182.08 v 6.966 h -182.08 z" stroke-width="1.182" stroke-linejoin="bevel"/><path d="m 477.79,496.58 h -9.856 v 20.887 h 9.855 z" stroke-width="1.292" stroke-linecap="square" stroke-linejoin="bevel"/><g stroke-width="1.2"><path d="m 541.43,570.317 c -2.768,-1.25 -6.8,-4.67 -6.8,-8.11 V 521.33 l 1.898,-3.374 h -69.636 l 2.717,3.374 v 40.876 c 0,3.44 -2.768,6.86 -5.536,8.11 z"/><path d="m 340.648,535.257 h 5.738 v 26.393 h -5.738 z m 78.392,0 h 5.738 v 26.393 h -5.738 z" stroke-linecap="square" stroke-linejoin="bevel"/><path d="m 428.637,570.317 c -3.242,-1.25 -7.963,-4.67 -7.963,-8.11 V 523.33 l 4.22,-5.374 h -84.44 l 4.047,5.374 v 38.876 c 0,3.44 -3.24,6.86 -6.484,8.11 z"/><path d="m 355.47,535.257 h 5.737 v 26.393 h -5.738 z m 48.504,0 h 5.738 v 26.393 h -5.738 z" stroke-linecap="square" stroke-linejoin="bevel"/><path d="m 338.942,473.715 v 44.25 h 86.437 v -9.53 l 0.124,-34.72 c -3.535,1.39 -4.156,4.594 -4.156,4.594 v 18.842 h -78 V 478.31 c 0,0 -0.87,-3.206 -4.406,-4.595 z"/><path d="m 413.65,570.317 c -2.824,-1.25 -8.978,-4.67 -8.978,-8.11 v -43.508 c 0.604,-2.43 3.897,-3.863 6.017,-5.375 h -57.317 c 2.728,1.444 5.77,2.643 6.856,5.374 v 43.506 c 0,3.44 -4.867,6.86 -7.692,8.11 z"/><path d="m 421.34,513.79 v -31.338 h -7.858 v -3.054 H 351.34 v 3.053 h -7.858 v 31.34 z"/><path d="m 294.164,535.257 h 5.738 v 26.393 h -5.738 z" stroke-linecap="square" stroke-linejoin="bevel"/><path d="m 224.326,570.317 c 2.768,-1.25 6.798,-4.67 6.798,-8.11 V 521.33 l -1.896,-3.374 h 69.636 l -2.717,3.374 v 40.876 c 0,3.44 2.767,6.86 5.535,8.11 z"/><path d="m 231.786,490.755 h 6.43 v 23.84 h -6.43 z m -0.041,-5.099 h 6.43 v 5.022 h -6.43 z" stroke-linecap="square" stroke-linejoin="bevel"/><path d="m 287.624,570.317 c -2.768,-1.25 -6.798,-4.67 -6.798,-8.11 V 523.33 l 5.79,-5.374 h -47.34 l 5.79,5.374 v 38.876 c 0,3.44 -4.03,6.86 -6.797,8.11 z"/><path d="m 280.993,570.317 c -2.768,-1.25 -6.798,-4.67 -6.798,-8.11 v -35.144 l 3.79,-5.375 h -30.077 l 3.79,5.375 v 35.143 c 0,3.44 -4.03,6.86 -6.798,8.11 z m 246.277,0 c -2.77,-1.25 -6.8,-4.67 -6.8,-8.11 V 523.33 l 5.79,-5.374 h -47.34 l 5.79,5.374 v 38.876 c 0,3.44 -4.03,6.86 -6.797,8.11 z"/><path d="m 520.637,570.317 c -2.768,-1.25 -6.798,-4.67 -6.798,-8.11 v -35.144 l 3.79,-5.375 h -30.078 l 3.79,5.375 v 35.143 c 0,3.44 -4.03,6.86 -6.798,8.11 z M 255.76,521.688 h 14.372 v 48.63 h -14.37 z m 145.507,48.629 c -2.768,-1.25 -6.798,-4.67 -6.798,-8.11 V 525.06 l 2.272,-3.374 h -28.305 l 2.273,3.375 v 37.143 c 0,3.44 -4.03,6.86 -6.798,8.11 z"/></g><path d="m 375.417,521.7 h 14.345 v 48.604 h -14.345 z" stroke-width="1.226"/><g stroke-width="1.2"><path d="m 495.405,521.688 h 14.37 v 48.63 h -14.37 z"/><path d="m 368.195,503.218 h 28.79 v 10.607 h -28.79 z" stroke-linejoin="bevel"/><path d="m 397.298,511.005 c 0.034,-3.202 9.34,-3.346 14.13,-6.072 h -57.523 c 4.79,2.726 13.88,2.95 13.88,6.072 l 1.947,6.21 23.813,0.957 z" stroke-linejoin="bevel"/><path d="m 408.543,477.184 c 0,-7.838 0.328,-10.858 2.736,-10.858 v 24.93 c -5.907,2.142 -10.12,9.678 -10.12,9.678 h -37.14 c 0,0 -4.214,-7.536 -10.12,-9.68 v -24.928 c 2.97,0 2.99,3.155 2.99,10.858 z"/><path d="m 364.572,481.826 c 4.785,5.745 4.34,15.49 4.286,21.233 h 27.75 c -0.056,-5.745 -0.5,-15.49 4.285,-21.234 z"/><path d="m 236.21,535.257 h 5.738 v 26.393 h -5.738 z" stroke-linecap="square" stroke-linejoin="bevel"/></g></g><path d="m -534.158,490.755 h 6.43 v 23.84 h -6.43 z" transform="matrix(-0.62067,0,0,0.62232,-50.128,-196.472)" stroke-width="1.2" stroke-linecap="square" stroke-linejoin="bevel"/></g><g transform="matrix(0.62067,0,0,0.62232,-50.128,-196.472)"><path d="m 221.5,570.317 c 2.817,-1.435 6.03,-4.773 7.08,-8.51 H 537.5 c 1.05,3.736 4.264,7.075 7.08,8.51 z" fill="none" stroke-width="1.2"/><g fill="#fff"><g stroke-width="1.2"><path d="m 285.406,535.257 h 5.738 v 26.393 h -5.738 z" stroke-linecap="square" stroke-linejoin="bevel"/><path d="m 227.285,482.63 v 35.326 h 4.017 V 482.54 c -1.448,-0.73 -2.807,-0.843 -4.017,0.09 z"/><path d="m 227.41,505.487 c 4.98,2.546 9.913,5.492 11.162,12.47 h -11.16 z"/></g><path d="m 288.156,496.58 h 9.855 v 20.887 h -9.854 z" stroke-width="1.292" stroke-linecap="square" stroke-linejoin="bevel"/><path d="m 296.48,494.905 v 23.05 h 3.256 v -23.108 c -1.017,-0.477 -2.406,-0.55 -3.257,0.06 z m 62.622,-17.721 v -8.858 c -0.126,-4.428 -4.415,-4.75 -4.54,-7.977 0,0 -0.555,-4.844 0.722,-7.055 1.735,6.476 4.89,5.287 4.89,2.624 0,-2.325 -1.788,-4.486 -5.453,-10.13 -1.17,-1.803 -0.446,-7.455 1.196,-9.475 0.637,4.913 1.365,7.264 3.474,7.264 1.287,0 2.338,-0.84 2.338,-3.3 0,-3.13 -2.12,-4.712 -3.162,-7.56 -1.216,-3.325 -0.38,-6.714 1.642,-8.608 0.866,4.847 0.608,6.78 2.76,6.78 4.342,-1.374 0.002,-7.66 -0.926,-9.244 -1.067,-1.85 1.435,-5.536 1.435,-5.536 1.38,4.304 1.823,4.655 3.312,4.256 1.877,-0.504 1.634,-3.29 -0.657,-5.542 -1.447,-1.42 -1.294,-3.538 0.26,-5.238 1.56,3.05 3.556,2.864 3.75,1.053 l -1.255,-7.028 h 27.607 l -1.37,6.798 c -0.393,1.946 2.233,2.368 3.865,-0.822 1.554,1.7 1.707,3.817 0.26,5.238 -2.292,2.252 -2.534,5.038 -0.656,5.542 1.49,0.4 1.932,0.048 3.312,-4.256 0,0 2.245,2.513 1.435,5.536 -0.927,1.585 -5.267,7.87 -0.926,9.244 2.153,0 1.895,-1.933 2.76,-6.78 2.02,1.894 2.86,5.283 1.643,8.607 -1.043,2.848 -3.162,4.43 -3.162,7.56 0,2.46 1.05,3.3 2.337,3.3 2.11,0 2.838,-2.352 3.475,-7.265 1.642,2.02 2.366,7.672 1.195,9.476 -3.665,5.644 -5.453,7.805 -5.453,10.13 0,2.662 3.154,3.85 4.89,-2.625 1.275,2.21 0.722,7.054 0.722,7.054 -0.127,3.227 -4.415,3.548 -4.54,7.976 v 8.858 z" stroke-width="1.2"/></g><path d="m 369.226,412.038 h 27.405" fill="none"/><path d="m 380.17,416.02 -3.8,-1.957 v -5.596 c 1.553,0.467 3.298,0.658 3.47,3.135 0.54,-3.536 1.516,-3.363 3.05,-4.74 1.532,1.377 2.508,1.204 3.05,4.74 0.17,-2.477 1.915,-2.668 3.47,-3.135 v 5.596 l -3.803,1.958 z" fill="#fff" stroke-width="1.2"/><path d="m 365.977,420.59 h 33.474" fill="none"/><path d="m 379.918,425.205 -6.314,-4.34 v -5.157 c 2.213,0.512 4.698,0.722 4.94,3.438 0.772,-3.877 2.162,-5.88 4.345,-7.392 2.182,1.51 3.572,3.515 4.343,7.392 0.243,-2.716 2.728,-2.926 4.942,-3.438 v 5.157 l -6.315,4.34 z" fill="#fff" stroke-width="1.2"/><path d="m 362.736,430.977 h 39.846" fill="none"/><path d="m 379.472,439.515 -7.26,-6.376 v -7.577 c 2.545,0.753 5.403,1.06 5.682,5.05 0.886,-5.696 2.485,-8.64 4.995,-10.86 2.51,2.22 4.108,5.164 4.994,10.86 0.28,-3.99 3.137,-4.297 5.682,-5.05 v 7.576 l -7.26,6.375 z m 13.385,8.47 -6.566,9.082 h -7.433 l -6.566,-9.082 z m -24.342,15.243 c 3.284,1.795 4.497,5.37 4.847,12.085 h 18.48 c 0.35,-6.714 1.563,-10.29 4.847,-12.085 z" fill="#fff" stroke-width="1.2"/><path d="m 359.335,443.665 h 47.257 m -48.342,14.457 h 48.68" fill="none"/><g fill="#fff" stroke-width="1.2" stroke-linejoin="bevel"><path d="m 396.96,447.985 v -9.123 c -3.118,0.86 -5.14,2.706 -6.04,5.213 0,-3.03 -3.985,-10.012 -8.33,-13.488 -4.36,3.89 -8.413,10.21 -8.33,13.488 -0.743,-2.387 -2.923,-4.354 -6.042,-5.213 v 9.123 z"/><path d="m 398.344,463.228 v -9.123 c -3.42,0.858 -5.636,2.706 -6.622,5.212 0,-3.028 -4.368,-10.012 -9.133,-13.487 -4.78,3.89 -9.222,10.208 -9.133,13.487 -0.812,-2.387 -3.202,-4.354 -6.622,-5.212 v 9.123 z"/><path d="m 402.19,481.95 v -10.524 c -4.255,1.098 -6.9,4.245 -8.24,6.08 0,-5.698 -6.433,-14.385 -11.36,-17.23 -5.056,2.92 -11.362,11.896 -11.362,17.23 -1.374,-1.823 -3.984,-4.982 -8.24,-6.08 v 10.523 z"/><path d="m 399.886,505.31 v -10.82 c -3.755,1.47 -4.877,5.09 -6.058,7.547 0.463,-10.974 -6.18,-22.77 -11.24,-25.76 -5.058,2.99 -11.827,15.04 -11.237,25.76 -1.21,-2.443 -2.302,-6.076 -6.057,-7.546 v 10.82 z"/></g></g><g stroke-width="1.2"><path d="m -534.2,485.656 h 6.43 v 5.022 h -6.43 z" transform="matrix(-0.62067,0,0,0.62232,-50.128,-196.472)" fill="#fff" stroke-linecap="square" stroke-linejoin="bevel"/><g transform="matrix(0.62067,0,0,0.62232,-50.128,-196.472)"><path d="m 474.694,535.257 h 5.738 v 26.393 h -5.738 z m 49.196,0 h 5.74 v 26.393 h -5.74 z" fill="#fff" stroke-linecap="square" stroke-linejoin="bevel"/><path d="m 343.482,505.31 h 77.857 m -53.143,0.01 h 28.857 v 10.607 h -28.857 z" fill="none"/></g></g><g fill="#fff"><g transform="matrix(0.62067,0,0,0.62232,-50.128,-196.472)"><path d="m 397.254,521.688 v -10.82 c -3.933,0.937 -4.176,2.387 -5.426,4.81 0.463,-6.554 -4.18,-14.03 -9.24,-17.023 -5.058,2.992 -9.7,10.47 -9.237,17.023 -1.25,-2.423 -1.403,-3.874 -5.425,-4.81 v 10.82 z m -97.518,-16.201 c -4.98,2.546 -9.912,5.492 -11.16,12.47 h 11.16 z" stroke-width="1.2"/><path d="m 231.302,490.755 h 6.912 v 27.054 h -6.912 z m 0,-5.099 h 6.872 v 5.022 h -6.872 z" stroke-width="1.2" stroke-linecap="square" stroke-linejoin="bevel"/><path d="m 288.156,496.58 h 9.855 v 20.887 h -9.854 z" stroke-width="1.292" stroke-linecap="square" stroke-linejoin="bevel"/><g stroke-width="1.2"><path d="m 238.116,517.6 v -46.306 c 1.972,0 2.276,6.787 6.798,6.787 2.355,0 2.105,-2.81 0.783,-5.1 -1.17,-2.028 -2.62,-4.83 -0.652,-10.046 1.35,3.992 4.98,5.26 4.31,2.755 -1.154,-4.302 -4.472,-5.008 -1.983,-11.684 0.865,5.57 4.438,5.324 3.57,2.086 -0.977,-3.648 -2.997,-5.143 -0.505,-10.284 1.395,5.838 3.283,5.496 3.283,1.873 0,-5.354 -0.206,-11.13 6.724,-13.272 0,0 0.4,-4.91 2.9,-4.91 2.5,0 2.9,4.91 2.9,4.91 6.93,2.143 6.724,7.918 6.724,13.273 0,3.624 1.887,3.966 3.283,-1.872 2.493,5.14 0.473,6.636 -0.504,10.284 -0.868,3.238 2.704,3.483 3.57,-2.086 2.49,6.676 -0.83,7.382 -1.982,11.683 -0.67,2.503 2.96,1.236 4.308,-2.756 1.968,5.217 0.52,8.018 -0.65,10.045 -1.323,2.29 -1.573,5.1 0.78,5.1 4.524,0 4.828,-6.786 6.8,-6.786 V 517.6 Z"/><path d="m 266.812,451.467 2.902,-2.44 v -3.124 c -1.062,0.103 -1.64,0.47 -2.425,1.497 -0.668,-2.07 -2.135,-3.688 -4.1,-4.692 -1.967,1.004 -3.434,2.547 -4.1,4.618 -0.785,-1.028 -1.364,-1.32 -2.426,-1.423 v 3.125 l 2.902,2.44 z"/><path d="m 268.365,459.3 1.35,-2.92 v -4.062 c -1.063,0.105 -1.642,0.475 -2.426,1.518 -0.668,-2.1 -2.135,-3.74 -4.1,-4.76 -1.967,1.02 -3.434,2.585 -4.1,4.686 -0.785,-1.043 -1.364,-1.34 -2.426,-1.444 v 4.062 l 1.35,2.92 z"/><path d="m 268.57,469.897 4.312,-5.26 v -5.188 c -1.577,0.176 -2.438,0.804 -3.603,2.57 -0.992,-3.557 -3.17,-4.334 -6.09,-6.06 -2.92,1.726 -5.1,2.376 -6.09,5.933 -1.166,-1.766 -2.027,-2.267 -3.604,-2.444 v 5.188 l 4.312,5.26 z"/><path d="m 269.832,480.317 c 0,0 5.025,-4.383 5.323,-6.79 v -5.547 c -1.947,0.228 -3.79,0.733 -5.227,3.013 -1.224,-4.592 -3.134,-5.873 -6.74,-8.1 -3.604,2.227 -5.514,3.508 -6.738,8.1 -1.438,-2.28 -3.28,-2.785 -5.227,-3.013 v 5.547 c 0.634,2.407 5.323,6.79 5.323,6.79 z"/><path d="m 271.975,499.552 c 0,0 6.882,-7.618 7.04,-10.587 v -8.65 c -2.575,0.358 -5.01,2.13 -6.914,5.683 -1.617,-7.16 -4.143,-12.152 -8.91,-15.623 -4.77,3.47 -7.295,8.463 -8.913,15.623 -1.903,-3.554 -4.34,-5.325 -6.914,-5.682 v 8.65 c 0.494,2.968 7.04,10.586 7.04,10.586 z"/><path d="m 271.975,510.92 c 0,0 5.882,-5.986 7.04,-8.586 v -8.65 c -2.575,0.357 -5.01,2.128 -6.914,5.683 -1.617,-7.16 -4.143,-11.26 -8.91,-14.73 -4.77,3.47 -7.295,7.57 -8.913,14.73 -1.903,-3.555 -4.34,-5.326 -6.914,-5.682 v 8.65 c 1.494,2.6 7.04,8.585 7.04,8.585 z"/><path d="m 274.35,517.54 c -1.718,-7.468 -3.194,-13.008 -11.46,-18.624 -8.268,5.616 -9.744,11.156 -11.46,18.625 z"/><path d="m 278.604,521.688 v -10.82 c -3.754,1.472 -7.147,3.65 -8.398,6.073 -1.398,-6.006 -4.09,-8.652 -7.445,-12.285 -3.354,3.633 -5.6,6.28 -7,12.286 -1.25,-2.422 -4.643,-4.6 -8.397,-6.07 V 521.69 Z M 227.285,482.63 v 35.326 h 4.017 V 482.54 c -1.448,-0.73 -2.807,-0.843 -4.017,0.09 z"/><path d="m 227.41,505.487 c 4.98,2.546 9.913,5.492 11.162,12.47 h -11.16 z m 69.07,-10.582 v 23.05 h 3.256 v -23.108 c -1.017,-0.477 -2.406,-0.55 -3.257,0.06 z"/><path d="m 299.736,505.31 c -4.98,2.545 -9.912,5.49 -11.16,12.468 h 11.16 z M 538.66,482.63 v 35.326 h -4.018 V 482.54 c 1.448,-0.73 2.808,-0.843 4.018,0.09 z m -61.05,34.97 v -46.306 c 1.973,0 2.277,6.787 6.8,6.787 2.354,0 2.104,-2.81 0.782,-5.1 -1.17,-2.028 -2.62,-4.83 -0.652,-10.046 1.35,3.992 4.98,5.26 4.31,2.755 -1.154,-4.302 -4.472,-5.008 -1.983,-11.684 0.865,5.57 4.438,5.324 3.57,2.086 -0.977,-3.648 -2.997,-5.143 -0.505,-10.284 1.395,5.838 3.283,5.496 3.283,1.873 0,-5.354 -0.206,-11.13 6.724,-13.272 0,0 0.4,-4.91 2.9,-4.91 2.5,0 2.9,4.91 2.9,4.91 6.928,2.143 6.723,7.918 6.723,13.273 0,3.624 1.888,3.966 3.283,-1.872 2.492,5.14 0.472,6.636 -0.505,10.284 -0.867,3.238 2.705,3.483 3.57,-2.086 2.49,6.676 -0.828,7.382 -1.98,11.683 -0.672,2.503 2.958,1.236 4.307,-2.756 1.968,5.217 0.52,8.018 -0.65,10.045 -1.323,2.29 -1.573,5.1 0.78,5.1 4.524,0 4.828,-6.786 6.8,-6.786 V 517.6 Z"/><path d="m 506.307,451.467 2.902,-2.44 v -3.124 c -1.063,0.103 -1.642,0.47 -2.426,1.497 -0.667,-2.07 -2.134,-3.688 -4.1,-4.692 -1.966,1.004 -3.433,2.547 -4.1,4.618 -0.784,-1.028 -1.364,-1.32 -2.425,-1.423 v 3.125 l 2.9,2.44 z"/><path d="m 507.86,459.3 1.35,-2.92 v -4.062 c -1.063,0.105 -1.642,0.475 -2.426,1.518 -0.667,-2.1 -2.134,-3.74 -4.1,-4.76 -1.966,1.02 -3.433,2.585 -4.1,4.686 -0.784,-1.043 -1.364,-1.34 -2.425,-1.444 v 4.062 l 1.348,2.92 z"/><path d="m 508.065,469.897 4.312,-5.26 v -5.188 c -1.577,0.176 -2.438,0.804 -3.603,2.57 -0.99,-3.557 -3.17,-4.334 -6.09,-6.06 -2.92,1.726 -5.1,2.376 -6.09,5.933 -1.165,-1.766 -2.026,-2.267 -3.603,-2.444 v 5.188 l 4.313,5.26 z"/><path d="m 509.327,480.317 c 0,0 5.025,-4.383 5.323,-6.79 v -5.547 c -1.947,0.228 -3.79,0.733 -5.227,3.013 -1.224,-4.592 -3.134,-5.873 -6.74,-8.1 -3.604,2.227 -5.515,3.508 -6.738,8.1 -1.438,-2.28 -3.28,-2.785 -5.227,-3.013 v 5.547 c 0.634,2.407 5.323,6.79 5.323,6.79 z"/><path d="m 511.47,499.552 c 0,0 6.882,-7.618 7.04,-10.587 v -8.65 c -2.576,0.358 -5.01,2.13 -6.914,5.683 -1.618,-7.16 -4.144,-12.152 -8.912,-15.623 -4.768,3.47 -7.295,8.463 -8.912,15.623 -1.903,-3.554 -4.34,-5.325 -6.914,-5.682 v 8.65 c 0.494,2.968 7.04,10.586 7.04,10.586 z"/><path d="m 511.47,510.92 c 0,0 5.882,-5.986 7.04,-8.586 v -8.65 c -2.576,0.357 -5.01,2.128 -6.914,5.683 -1.618,-7.16 -4.144,-11.26 -8.912,-14.73 -4.768,3.47 -7.295,7.57 -8.912,14.73 -1.903,-3.555 -4.34,-5.326 -6.914,-5.682 v 8.65 c 1.494,2.6 7.04,8.585 7.04,8.585 z"/><path d="m 513.845,517.54 c -1.718,-7.468 -3.194,-13.008 -11.46,-18.624 -8.268,5.616 -9.744,11.156 -11.46,18.625 z m 24.689,-12.053 c -4.98,2.546 -9.376,5.492 -10.625,12.47 h 10.624 z m -69.069,-10.582 v 23.05 h -3.256 v -23.108 c 1.016,-0.477 2.405,-0.55 3.255,0.06 z"/><path d="m 466.21,505.487 c 4.98,2.546 9.91,5.492 11.16,12.47 h -11.16 z"/><path d="m 469.465,494.905 v 23.05 h -3.256 v -23.108 c 1.016,-0.477 2.405,-0.55 3.255,0.06 z"/><path d="m 466.21,505.487 c 4.98,2.546 9.91,5.492 11.16,12.47 h -11.16 z m -54.93,-31.515 c 0,-8.99 7.76,-10 7.76,-10 v 8 c -2.953,-0.127 -4.378,2.524 -4.378,6.47 0,3.947 2.38,4.01 2.38,4.01 v 22.704 h -5.763 z m -57.346,0 c 0,-8.99 -7.762,-10 -7.762,-10 v 8 c 2.954,-0.127 4.38,2.524 4.38,6.47 0,3.947 -2.38,4.01 -2.38,4.01 v 22.704 h 5.762 z m 164.292,47.59 v -10.82 c -3.755,1.472 -7.148,3.65 -8.398,6.072 -1.398,-6.006 -4.09,-8.652 -7.446,-12.285 -3.355,3.632 -5.6,6.278 -7,12.284 -1.25,-2.423 -4.643,-4.6 -8.398,-6.07 v 10.818 z"/></g></g><path d="m 82.29,158.174 v 6.148 h 210.42 v -6.148 z m -3.81,6.207 v 8.022 h 218.04 v -8.02 z m 218.04,8.022 v 0.053 H 78.48 l -6.375,-0.053 v 10.577 h 230.79 V 172.4 Z M 65.686,183.047 v 12.455 h 243.628 v -12.455 z m 243.628,12.455 v 0.02 H 65.686 v -0.02 h -6.42 v 12.46 H 315.734 V 195.5 Z" stroke-width=".746"/><g transform="matrix(0.62067,0,0,0.62232,-50.128,-196.472)"><path d="m 250.142,569.932 h 25.61 v 79.897 h -25.61 z" stroke-width="1.306"/><path d="m 255.813,569.93 h 14.267 v 79.9 h -14.267 z" stroke-width="1.304"/></g></g><g transform="matrix(0.62067,0,0,0.62232,-50.128,-196.472)"><path d="m 255.55,579.79 h 14.792 m -14.792,10 h 14.792 m -14.792,10 h 14.792 m -14.792,10 h 14.792 m -14.792,10 h 14.792 m -14.792,10 h 14.792 m -14.792,10 h 14.792" fill="none" stroke-width="1.2"/><path d="m 369.606,569.933 h 25.61 v 79.896 h -25.61 z" fill="#fff" stroke-width="1.306"/><path d="m 375.456,569.93 h 14.267 v 79.9 h -14.267 z" fill="#fff" stroke-width="1.304"/><path d="m 375.525,579.774 h 13.772 m -13.772,10.006 h 13.772 m -13.772,10.005 h 13.772 m -13.772,10.005 h 13.772 m -13.772,10.005 h 13.772 M 375.525,629.8 h 13.772 m -13.772,10.006 h 13.772" fill="none" stroke-width="1.2"/></g><path d="m 250.142,569.932 h 25.61 v 79.897 h -25.61 z" transform="matrix(0.62067,0,0,0.62232,98.612,-196.472)" fill="#fff" stroke-width="1.306"/><path d="m 255.813,569.93 h 14.267 v 79.9 h -14.267 z" transform="matrix(0.62067,0,0,0.62232,98.612,-196.472)" fill="#fff" stroke-width="1.304"/><g stroke-width="1.2"><path d="m 255.55,579.79 h 14.792 m -14.792,10 h 14.792 m -14.792,10 h 14.792 m -14.792,10 h 14.792 m -14.792,10 h 14.792 m -14.792,10 h 14.792 m -14.792,10 h 14.792" transform="matrix(0.62067,0,0,0.62232,98.612,-196.472)" fill="none"/><g transform="matrix(0.62067,0,0,0.62232,-50.128,-196.472)" fill="#fff"><path d="m 305.406,535.257 h 5.738 v 26.393 h -5.738 z m 12,0 h 5.738 v 26.393 h -5.738 z m 12,0 h 5.738 v 26.393 h -5.738 z m 100.504,0 h 5.74 v 26.393 h -5.74 z m 12,0 h 5.74 v 26.393 h -5.74 z m 12,0 h 5.74 v 26.393 h -5.74 z" stroke-linecap="square" stroke-linejoin="bevel"/><path d="m 370.656,403.548 -0.635,-5 h 25.342 l -0.636,5 z m 1.698,-5.098 -0.546,-4.11 h 21.767 l -0.546,4.11 z m 3.454,-4.264 -0.363,-4.11 h 14.493 l -0.363,4.11 z"/></g></g></g></svg>