<?xml version="1.0" encoding="UTF-8" standalone="no"?>
<svg xmlns="http://www.w3.org/2000/svg" version="1.1" height="450" width="675">
  <title>Flag of New Caledonia</title>
  <rect style="fill:#ed4135" y="0" x="0" height="450" width="675" />
  <rect style="fill:#009543" y="300" x="337.5" height="150" width="337.5" />
  <rect style="fill:#0035ad" y="0" x="337.5" height="150" width="337.5" />
  <rect style="fill:#ffffff" y="0" x="0" height="450" width="225" />
  <rect style="fill:#0035ad" width="112.5" height="450" x="0" y="0" />
  <g id="symbol">
    <circle style="fill:#fae600;stroke:#000000;stroke-width:5" r="147.48" cy="225" cx="506.25" />
    <path style="stroke:#000000;stroke-width:6" d="m 481.25,247 h 50 m -50,-37 h 50 m -25,-132 v 252" />
    <path d="m 446.87,360.419 c 60.191,24.58 116.608,1.51 116.608,1.51 0,0 -21.297,-23.048 -32.214,-32.047 -10.653,-8.778 -41.991,-8.431 -52.685,0 -8.924,7.038 -34.52,32.97 -31.709,30.537 z" />
    <ellipse ry="24" rx="16.5" cy="293" cx="506.25" />
    <ellipse ry="12.66" rx="20" cy="228.5" cx="506.25" />
    <circle cy="170" cx="506.25" r="20" />
    <path d="m 530.25,95.5 c -0.006,-0.0134 1.733,2.8708 -1.913,9.436 -17.426,31.383 -34.913,32.061 -38.232,34.764 -3.658,2.978 -5.202,2.774 -5.202,2.774 0.261,-2.688 0.504,-13.679 0.695,-14.738 2.645,-14.663 24.796,-14.461 42.132,-29.4755 2.708,-2.3455 2.514,-2.7739 2.514,-2.7739 z" />
    <path d="m 471.75,163 c 0,0 3.91436,11.22974 4.5,22.5 0.93516,17.99657 18.18031,18.5 30,18.5 v -10 c -8.85851,0 -16.55267,-1.31658 -23,-14.5 -3.18045,-6.50336 -11.5,-16.5 -11.5,-16.5 z" />
    <path d="m 471.25,308 c 0,0 6.29638,-7.76543 13.6619,-25.97461 3.8429,-9.50049 12.9496,-15.02539 21.3381,-15.02539 v -14 c -19.02757,0 -28.1503,7.0552 -29.11281,17.36332 -1.97744,21.17757 -5.88719,37.63668 -5.88719,37.63668 z" />
    <path d="m 540.75,163 c 0,0 -3.91436,11.22974 -4.5,22.5 -0.93516,17.99657 -18.18031,18.5 -30,18.5 v -10 c 8.85851,0 16.55267,-1.31658 23,-14.5 3.18045,-6.50336 11.5,-16.5 11.5,-16.5 z" />
    <path d="m 541.25,308 c 0,0 -6.29638,-7.76543 -13.6619,-25.97461 -3.8429,-9.50049 -12.9496,-15.02539 -21.3381,-15.02539 v -14 c 19.02757,0 28.1503,7.0552 29.11281,17.36332 1.97744,21.17757 5.88719,37.63668 5.88719,37.63668 z" />
  </g>
</svg>
