<?xml version="1.0" encoding="UTF-8" standalone="no"?>
<!-- Created with Inkscape (http://www.inkscape.org/) -->

<svg
   width="534"
   height="738"
   id="svg2"
   sodipodi:version="0.32"
   inkscape:version="1.2.1 (9c6d41e410, 2022-07-14)"
   sodipodi:docname="CRO-ESP 2023-06-18.svg"
   version="1.0"
   inkscape:output_extension="org.inkscape.output.svg.inkscape"
   xmlns:inkscape="http://www.inkscape.org/namespaces/inkscape"
   xmlns:sodipodi="http://sodipodi.sourceforge.net/DTD/sodipodi-0.dtd"
   xmlns:xlink="http://www.w3.org/1999/xlink"
   xmlns="http://www.w3.org/2000/svg"
   xmlns:svg="http://www.w3.org/2000/svg"
   xmlns:rdf="http://www.w3.org/1999/02/22-rdf-syntax-ns#"
   xmlns:cc="http://creativecommons.org/ns#"
   xmlns:dc="http://purl.org/dc/elements/1.1/">
  <defs
     id="defs4">
    <inkscape:perspective
       sodipodi:type="inkscape:persp3d"
       inkscape:vp_x="0 : 369 : 1"
       inkscape:vp_y="0 : 1000 : 0"
       inkscape:vp_z="534 : 369 : 1"
       inkscape:persp3d-origin="267 : 246 : 1"
       id="perspective2753" />
    <linearGradient
       id="linearGradient3076">
      <stop
         style="stop-color:#ff0a0a;stop-opacity:1;"
         offset="0"
         id="stop3078" />
      <stop
         id="stop3084"
         offset="0.33000001"
         style="stop-color:#ff0a0a;stop-opacity:1;" />
      <stop
         style="stop-color:#ffffff;stop-opacity:1;"
         offset="0.33000001"
         id="stop3086" />
      <stop
         id="stop3088"
         offset="0.66000003"
         style="stop-color:#ffffff;stop-opacity:1;" />
      <stop
         style="stop-color:#ffff00;stop-opacity:1;"
         offset="0.66000003"
         id="stop3090" />
      <stop
         style="stop-color:#ffff00;stop-opacity:1;"
         offset="1"
         id="stop3080" />
    </linearGradient>
    <linearGradient
       inkscape:collect="always"
       xlink:href="#linearGradient3076"
       id="linearGradient3136"
       gradientUnits="userSpaceOnUse"
       x1="24.566006"
       y1="168.72964"
       x2="42.667271"
       y2="168.72964"
       gradientTransform="translate(0,1.131285)" />
  </defs>
  <sodipodi:namedview
     id="base"
     pagecolor="#ffffff"
     bordercolor="#666666"
     borderopacity="1.0"
     inkscape:pageopacity="0.0"
     inkscape:pageshadow="2"
     inkscape:zoom="1.1029812"
     inkscape:cx="267.91028"
     inkscape:cy="369.90657"
     inkscape:document-units="px"
     inkscape:current-layer="layer2"
     inkscape:window-width="1920"
     inkscape:window-height="1017"
     inkscape:window-x="1912"
     inkscape:window-y="-8"
     inkscape:guide-points="true"
     showgrid="true"
     inkscape:window-maximized="1"
     inkscape:snap-nodes="false"
     inkscape:snap-to-guides="false"
     inkscape:snap-grids="false"
     inkscape:pagecheckerboard="0"
     inkscape:showpageshadow="2"
     inkscape:deskcolor="#d1d1d1">
    <inkscape:grid
       type="xygrid"
       id="grid2755" />
  </sodipodi:namedview>
  <metadata
     id="metadata7">
    <rdf:RDF>
      <cc:Work
         rdf:about="">
        <dc:format>image/svg+xml</dc:format>
        <dc:type
           rdf:resource="http://purl.org/dc/dcmitype/StillImage" />
      </cc:Work>
    </rdf:RDF>
  </metadata>
  <g
     inkscape:label="Layer 1"
     inkscape:groupmode="layer"
     id="layer1"
     style="fill-opacity:0.5"
     sodipodi:insensitive="true">
    <rect
       style="fill:#009d00;fill-rule:evenodd;stroke:none;stroke-width:2.5;stroke-linecap:butt;stroke-linejoin:round;stroke-miterlimit:4;stroke-dasharray:none;stroke-dashoffset:0;stroke-opacity:1"
       id="rect1317"
       width="737.99988"
       height="533.99994"
       x="-738"
       y="3.509668e-005"
       rx="2.5634737"
       ry="2.5538738"
       transform="matrix(0,-1,1,0,0,0)" />
    <g
       id="g4041"
       style="stroke:#ffffff;stroke-width:1.5;stroke-miterlimit:4;stroke-dasharray:none;stroke-opacity:0.62921352"
       transform="matrix(0,-1.509164,1.506335,0,-115.6011,876.1191)">
      <path
         id="path2194"
         d="M 118.19246,416.99231 L 118.19246,90.425866 L 552.70347,91.109059 L 553.38666,416.99231 L 118.19246,416.99231 z "
         style="fill:none;fill-opacity:0.75;fill-rule:evenodd;stroke:#ffffff;stroke-width:1.5;stroke-linecap:butt;stroke-linejoin:miter;stroke-miterlimit:4;stroke-dasharray:none;stroke-opacity:0.62921352" />
      <path
         transform="matrix(0.952617,0,0,0.916433,15.58528,21.60032)"
         d="m 370.97403,254.39229 a 34.842865,35.526058 0 0 1 -34.84287,35.52606 34.842865,35.526058 0 0 1 -34.84286,-35.52606 34.842865,35.526058 0 0 1 34.84286,-35.52606 34.842865,35.526058 0 0 1 34.84287,35.52606 z"
         sodipodi:ry="35.526058"
         sodipodi:rx="34.842865"
         sodipodi:cy="254.39229"
         sodipodi:cx="336.13116"
         id="path2212"
         style="fill:none;fill-opacity:1;fill-rule:evenodd;stroke:#ffffff;stroke-width:1.60539436;stroke-linecap:butt;stroke-linejoin:round;stroke-miterlimit:4;stroke-dasharray:none;stroke-dashoffset:0;stroke-opacity:0.62921352"
         sodipodi:type="arc" />
      <path
         sodipodi:nodetypes="ccccc"
         id="path2196"
         d="M 117.96294,327.15238 L 178.441,327.15238 L 178.441,181.63218 L 118.31998,181.63218 L 118.31998,181.63218"
         style="fill:none;fill-opacity:0.75;fill-rule:evenodd;stroke:#ffffff;stroke-width:1.5;stroke-linecap:butt;stroke-linejoin:miter;stroke-miterlimit:4;stroke-dasharray:none;stroke-opacity:0.62921352" />
      <path
         sodipodi:nodetypes="cccc"
         id="path2198"
         d="M 118.4324,219.89101 L 139.49897,219.89101 L 138.81578,286.84397 L 117.63679,286.84396"
         style="fill:none;fill-opacity:0.75;fill-rule:evenodd;stroke:#ffffff;stroke-width:1.5;stroke-linecap:butt;stroke-linejoin:miter;stroke-miterlimit:4;stroke-dasharray:none;stroke-opacity:0.62921352" />
      <path
         sodipodi:nodetypes="cccc"
         id="path2200"
         d="M 118.31998,240.38682 L 107.38888,240.38682 L 107.38888,267.03136 L 118.31998,267.03135"
         style="fill:none;fill-opacity:0.75;fill-rule:evenodd;stroke:#ffffff;stroke-width:1.5;stroke-linecap:butt;stroke-linejoin:miter;stroke-miterlimit:4;stroke-dasharray:none;stroke-opacity:0.62921352" />
      <path
         sodipodi:nodetypes="cc"
         id="path2206"
         d="M 178.32858,279.68588 C 197.458,268.58399 196.69325,238.58186 178.24704,227.65076"
         style="fill:none;fill-opacity:0.75;fill-rule:evenodd;stroke:#ffffff;stroke-width:1.5;stroke-linecap:butt;stroke-linejoin:miter;stroke-miterlimit:4;stroke-dasharray:none;stroke-opacity:0.62921352" />
      <path
         sodipodi:nodetypes="cccc"
         id="path3091"
         d="M 553.15787,327.23393 L 493.82135,327.15239 L 493.82135,181.63219 L 552.88237,181.63219"
         style="fill:none;fill-opacity:0.75;fill-rule:evenodd;stroke:#ffffff;stroke-width:1.5;stroke-linecap:butt;stroke-linejoin:miter;stroke-miterlimit:4;stroke-dasharray:none;stroke-opacity:0.62921352" />
      <path
         sodipodi:nodetypes="cccc"
         id="path3093"
         d="M 553.25918,219.89102 L 532.76338,219.89102 L 533.44657,286.84398 L 553.15787,286.84397"
         style="fill:none;fill-opacity:0.75;fill-rule:evenodd;stroke:#ffffff;stroke-width:1.5;stroke-linecap:butt;stroke-linejoin:miter;stroke-miterlimit:4;stroke-dasharray:none;stroke-opacity:0.62921352" />
      <path
         sodipodi:nodetypes="cccc"
         id="path3095"
         d="M 552.96391,240.38683 L 564.87347,240.38683 L 564.87347,267.03137 L 553.20852,267.03136"
         style="fill:none;fill-opacity:0.75;fill-rule:evenodd;stroke:#ffffff;stroke-width:1.5;stroke-linecap:butt;stroke-linejoin:miter;stroke-miterlimit:4;stroke-dasharray:none;stroke-opacity:0.62921352" />
      <path
         sodipodi:nodetypes="cc"
         id="path3097"
         d="M 493.68916,279.68589 C 474.55974,268.584 475.32448,238.98956 493.77069,228.05846"
         style="fill:none;fill-opacity:0.75;fill-rule:evenodd;stroke:#ffffff;stroke-width:1.5;stroke-linecap:butt;stroke-linejoin:miter;stroke-miterlimit:4;stroke-dasharray:none;stroke-opacity:0.62921352" />
      <path
         id="path3107"
         d="M 336.13116,90.425866 L 336.13116,416.30912 L 336.13116,416.30912"
         style="fill:none;fill-opacity:0.75;fill-rule:evenodd;stroke:#ffffff;stroke-width:1.5;stroke-linecap:butt;stroke-linejoin:miter;stroke-miterlimit:4;stroke-dasharray:none;stroke-opacity:0.62921352" />
      <path
         sodipodi:nodetypes="cs"
         id="path3117"
         d="M 118.34857,95.731078 C 118.34857,95.731078 122.38844,94.767442 123.38913,90.542267"
         style="fill:none;fill-opacity:0.75;fill-rule:evenodd;stroke:#ffffff;stroke-width:1.5;stroke-linecap:butt;stroke-linejoin:miter;stroke-miterlimit:4;stroke-dasharray:none;stroke-opacity:0.62921352" />
      <path
         sodipodi:nodetypes="cs"
         id="path3120"
         d="M 123.06916,417.24402 C 123.06916,417.24402 122.10552,413.20416 117.88035,412.20346"
         style="fill:none;fill-opacity:0.75;fill-rule:evenodd;stroke:#ffffff;stroke-width:1.5;stroke-linecap:butt;stroke-linejoin:miter;stroke-miterlimit:4;stroke-dasharray:none;stroke-opacity:0.62921352" />
      <path
         sodipodi:nodetypes="cs"
         id="path3122"
         d="M 553.14946,411.81092 C 553.14946,411.81092 549.10959,412.77456 548.1089,416.99973"
         style="fill:none;fill-opacity:0.75;fill-rule:evenodd;stroke:#ffffff;stroke-width:1.5;stroke-linecap:butt;stroke-linejoin:miter;stroke-miterlimit:4;stroke-dasharray:none;stroke-opacity:0.62921352" />
      <path
         sodipodi:nodetypes="cs"
         id="path3124"
         d="M 547.05631,91.357379 C 547.05631,91.357379 548.01995,95.397249 552.24513,96.397939"
         style="fill:none;fill-opacity:0.75;fill-rule:evenodd;stroke:#ffffff;stroke-width:1.5;stroke-linecap:butt;stroke-linejoin:miter;stroke-miterlimit:4;stroke-dasharray:none;stroke-opacity:0.62921352" />
      <path
         d="m 514.91535,253.57072 a 1.0599999,1.3453845 0 0 1 -1.06,1.34539 1.0599999,1.3453845 0 0 1 -1.06,-1.34539 1.0599999,1.3453845 0 0 1 1.06,-1.34538 1.0599999,1.3453845 0 0 1 1.06,1.34538 z"
         sodipodi:ry="1.3453845"
         sodipodi:rx="1.0599999"
         sodipodi:cy="253.57072"
         sodipodi:cx="513.85535"
         id="path3126"
         style="fill:none;fill-opacity:1;fill-rule:evenodd;stroke:#ffffff;stroke-width:1.5;stroke-linecap:butt;stroke-linejoin:round;stroke-miterlimit:4;stroke-dasharray:none;stroke-dashoffset:0;stroke-opacity:0.62921352"
         sodipodi:type="arc" />
      <path
         d="m 159.65229,253.44841 a 1.4676921,1.3046153 0 0 1 -1.46769,1.30462 1.4676921,1.3046153 0 0 1 -1.46769,-1.30462 1.4676921,1.3046153 0 0 1 1.46769,-1.30462 1.4676921,1.3046153 0 0 1 1.46769,1.30462 z"
         sodipodi:ry="1.3046153"
         sodipodi:rx="1.4676921"
         sodipodi:cy="253.44841"
         sodipodi:cx="158.1846"
         id="path3128"
         style="fill:none;fill-opacity:1;fill-rule:evenodd;stroke:#ffffff;stroke-width:1.5;stroke-linecap:butt;stroke-linejoin:round;stroke-miterlimit:4;stroke-dasharray:none;stroke-dashoffset:0;stroke-opacity:0.62921352"
         sodipodi:type="arc" />
      <path
         transform="translate(-0.683193,0)"
         d="m 337.49755,253.02589 a 1.3663868,1.3663868 0 0 1 -1.36639,1.36639 1.3663868,1.3663868 0 0 1 -1.36638,-1.36639 1.3663868,1.3663868 0 0 1 1.36638,-1.36638 1.3663868,1.3663868 0 0 1 1.36639,1.36638 z"
         sodipodi:ry="1.3663868"
         sodipodi:rx="1.3663868"
         sodipodi:cy="253.02589"
         sodipodi:cx="336.13116"
         id="path3130"
         style="fill:none;fill-opacity:1;fill-rule:evenodd;stroke:#ffffff;stroke-width:1.5;stroke-linecap:butt;stroke-linejoin:round;stroke-miterlimit:4;stroke-dasharray:none;stroke-dashoffset:0;stroke-opacity:0.62921352"
         sodipodi:type="arc" />
    </g>
  </g>
  <g
     inkscape:groupmode="layer"
     id="layer2"
     inkscape:label="Players"
     transform="rotate(-90,164.38782,239.63248)">
    <text
       xml:space="preserve"
       style="font-style:normal;font-weight:normal;font-size:40px;line-height:1.25;font-family:sans-serif;fill:#000000;fill-opacity:1;stroke:none"
       x="452.19543"
       y="-203.28282"
       id="text36140"
       transform="rotate(90)" />
    <text
       xml:space="preserve"
       style="font-style:normal;font-weight:normal;font-size:40px;line-height:1.25;font-family:sans-serif;fill:#000000;fill-opacity:1;stroke:none"
       x="246.18335"
       y="-181.43913"
       id="text89524"
       transform="rotate(90)" />
    <g
       style="fill:#3fff2e;fill-opacity:1"
       transform="matrix(0.588968,0,0,0.581043,-203.61738,190.49871)"
       id="g5409">
      <path
         style="fill:#3fff2e;fill-opacity:1;fill-rule:evenodd;stroke:#000000;stroke-width:1px;stroke-linecap:butt;stroke-linejoin:miter;stroke-opacity:1"
         d="m -112.72276,230.81533 9.74306,14.22915 v 5.20018 l -10.09636,10.0404 10.09636,9.9596 v 5.20018 l -10.0859,14.60038 -9.60464,-4.57126 4.69054,-10.02912 -34.94323,-0.11428 0.11429,-30.1718 h 34.82894 l -4.5145,-9.77216 z"
         id="path5411"
         sodipodi:nodetypes="cccccccccccccc"
         inkscape:connector-curvature="0" />
      <path
         style="fill:#3fff2e;fill-opacity:1;fill-rule:evenodd;stroke:#000000;stroke-width:1px;stroke-linecap:butt;stroke-linejoin:miter;stroke-opacity:1"
         d="m -102.9797,250.24466 c -2,10 -2,10 -2,10 l 2,10"
         id="path5413"
         inkscape:connector-curvature="0" />
    </g>
    <text
       id="text5405"
       y="310.40189"
       x="339.93054"
       style="font-style:normal;font-variant:normal;font-weight:normal;font-stretch:normal;line-height:0%;font-family:Verdana;text-align:center;writing-mode:lr-tb;text-anchor:middle;fill:#000000;fill-opacity:1;stroke:none"
       xml:space="preserve"
       transform="rotate(90)"><tspan
         id="tspan5407"
         y="310.40189"
         x="339.93054"
         sodipodi:role="line"
         style="font-size:16px;line-height:1">Livaković</tspan></text>
    <text
       xml:space="preserve"
       style="font-style:normal;font-variant:normal;font-weight:normal;font-stretch:normal;line-height:0%;font-family:Verdana;text-align:center;writing-mode:lr-tb;text-anchor:middle;fill:#000000;fill-opacity:1;stroke:none;stroke-width:1px;stroke-linecap:butt;stroke-linejoin:miter;stroke-opacity:1"
       x="277.65872"
       y="230.28931"
       id="text4159-8"
       transform="rotate(90)"><tspan
         sodipodi:role="line"
         x="277.65872"
         y="230.28931"
         id="tspan4163-4"
         style="font-size:16px;line-height:1">Erlić</tspan></text>
    <text
       xml:space="preserve"
       style="font-style:normal;font-variant:normal;font-weight:normal;font-stretch:normal;line-height:0%;font-family:Verdana;text-align:center;writing-mode:lr-tb;text-anchor:middle;fill:#000000;fill-opacity:1;stroke:none;stroke-width:1px;stroke-linecap:butt;stroke-linejoin:miter;stroke-opacity:1"
       x="536.94421"
       y="212.76877"
       id="text8364"
       transform="rotate(90)"><tspan
         sodipodi:role="line"
         x="536.94421"
         y="212.76877"
         style="font-size:16px;line-height:1"
         id="tspan3317">Juranović</tspan></text>
    <text
       xml:space="preserve"
       style="font-style:normal;font-variant:normal;font-weight:normal;font-stretch:normal;line-height:0%;font-family:Verdana;text-align:center;writing-mode:lr-tb;text-anchor:middle;fill:#000000;fill-opacity:1;stroke:none;stroke-width:1px;stroke-linecap:butt;stroke-linejoin:miter;stroke-opacity:1"
       x="147.19437"
       y="214.72008"
       id="text8374"
       transform="rotate(90)"><tspan
         sodipodi:role="line"
         x="147.19437"
         y="214.72008"
         id="tspan8376"
         style="font-size:16px;line-height:1">Perišić</tspan></text>
    <text
       xml:space="preserve"
       style="font-style:normal;font-variant:normal;font-weight:normal;font-stretch:normal;line-height:0%;font-family:Verdana;text-align:center;writing-mode:lr-tb;text-anchor:middle;fill:#000000;fill-opacity:1;stroke:none;stroke-width:1px;stroke-linecap:butt;stroke-linejoin:miter;stroke-opacity:1"
       x="406.72113"
       y="230.298"
       id="text8444-2"
       transform="rotate(90)"><tspan
         sodipodi:role="line"
         x="406.72113"
         y="230.298"
         id="tspan8446-5"
         style="font-size:16px;line-height:1">Šutalo</tspan></text>
    <g
       id="g1026"
       transform="translate(-93.30214,-148.95826)"
       style="fill:#001860;fill-opacity:1">
      <g
         id="g1014"
         transform="matrix(0.588968,0,0,0.581043,-30.315478,274.45531)"
         style="fill:#001860;fill-opacity:1">
        <path
           inkscape:connector-curvature="0"
           sodipodi:nodetypes="cccccccccccccc"
           id="path1010"
           d="m -112.72276,230.81533 9.74306,14.22915 v 5.20018 l -10.09636,10.0404 10.09636,9.9596 v 5.20018 l -10.0859,14.60038 -9.60464,-4.57126 4.69054,-10.02912 -34.94323,-0.11428 0.11429,-30.1718 h 34.82894 l -4.5145,-9.77216 z"
           style="fill:#001860;fill-opacity:1;fill-rule:evenodd;stroke:#000000;stroke-width:1px;stroke-linecap:butt;stroke-linejoin:miter;stroke-opacity:1" />
        <path
           inkscape:connector-curvature="0"
           id="path1012"
           d="m -102.9797,250.24466 c -2,10 -2,10 -2,10 l 2,10"
           style="fill:#001860;fill-opacity:1;fill-rule:evenodd;stroke:#000000;stroke-width:1px;stroke-linecap:butt;stroke-linejoin:miter;stroke-opacity:1" />
      </g>
    </g>
    <g
       id="g25263"
       transform="translate(-93.30214,-18.95826)"
       style="fill:#001860;fill-opacity:1">
      <g
         id="g25255"
         transform="matrix(0.588968,0,0,0.581043,-30.315478,274.45531)"
         style="fill:#001860;fill-opacity:1">
        <path
           inkscape:connector-curvature="0"
           sodipodi:nodetypes="cccccccccccccc"
           id="path25251"
           d="m -112.72276,230.81533 9.74306,14.22915 v 5.20018 l -10.09636,10.0404 10.09636,9.9596 v 5.20018 l -10.0859,14.60038 -9.60464,-4.57126 4.69054,-10.02912 -34.94323,-0.11428 0.11429,-30.1718 h 34.82894 l -4.5145,-9.77216 z"
           style="fill:#001860;fill-opacity:1;fill-rule:evenodd;stroke:#000000;stroke-width:1px;stroke-linecap:butt;stroke-linejoin:miter;stroke-opacity:1" />
        <path
           inkscape:connector-curvature="0"
           id="path25253"
           d="m -102.9797,250.24466 c -2,10 -2,10 -2,10 l 2,10"
           style="fill:#001860;fill-opacity:1;fill-rule:evenodd;stroke:#000000;stroke-width:1px;stroke-linecap:butt;stroke-linejoin:miter;stroke-opacity:1" />
      </g>
    </g>
    <g
       id="g985"
       transform="translate(-77.30214,111.04174)"
       style="fill:#001860;fill-opacity:1">
      <g
         id="g977"
         transform="matrix(0.588968,0,0,0.581043,-30.315478,274.45531)"
         style="fill:#001860;fill-opacity:1">
        <path
           inkscape:connector-curvature="0"
           sodipodi:nodetypes="cccccccccccccc"
           id="path973"
           d="m -112.72276,230.81533 9.74306,14.22915 v 5.20018 l -10.09636,10.0404 10.09636,9.9596 v 5.20018 l -10.0859,14.60038 -9.60464,-4.57126 4.69054,-10.02912 -34.94323,-0.11428 0.11429,-30.1718 h 34.82894 l -4.5145,-9.77216 z"
           style="fill:#001860;fill-opacity:1;fill-rule:evenodd;stroke:#000000;stroke-width:1px;stroke-linecap:butt;stroke-linejoin:miter;stroke-opacity:1" />
        <path
           inkscape:connector-curvature="0"
           id="path975"
           d="m -102.9797,250.24466 c -2,10 -2,10 -2,10 l 2,10"
           style="fill:#001860;fill-opacity:1;fill-rule:evenodd;stroke:#000000;stroke-width:1px;stroke-linecap:butt;stroke-linejoin:miter;stroke-opacity:1" />
      </g>
    </g>
    <g
       id="g1079"
       transform="translate(-77.30214,-278.95826)"
       style="fill:#001860;fill-opacity:1">
      <g
         id="g1071"
         transform="matrix(0.588968,0,0,0.581043,-30.315478,274.45531)"
         style="fill:#001860;fill-opacity:1">
        <path
           inkscape:connector-curvature="0"
           sodipodi:nodetypes="cccccccccccccc"
           id="path1067"
           d="m -112.72276,230.81533 9.74306,14.22915 v 5.20018 l -10.09636,10.0404 10.09636,9.9596 v 5.20018 l -10.0859,14.60038 -9.60464,-4.57126 4.69054,-10.02912 -34.94323,-0.11428 0.11429,-30.1718 h 34.82894 l -4.5145,-9.77216 z"
           style="fill:#001860;fill-opacity:1;fill-rule:evenodd;stroke:#000000;stroke-width:1px;stroke-linecap:butt;stroke-linejoin:miter;stroke-opacity:1" />
        <path
           inkscape:connector-curvature="0"
           id="path1069"
           d="m -102.9797,250.24466 c -2,10 -2,10 -2,10 l 2,10"
           style="fill:#001860;fill-opacity:1;fill-rule:evenodd;stroke:#000000;stroke-width:1px;stroke-linecap:butt;stroke-linejoin:miter;stroke-opacity:1" />
      </g>
    </g>
    <g
       style="fill:#ffffff;fill-opacity:1"
       transform="matrix(0.588968,0,0,0.581043,424.38262,189.00396)"
       id="g5415">
      <path
         inkscape:connector-curvature="0"
         style="fill:#ffffff;fill-opacity:1;fill-rule:evenodd;stroke:#000000;stroke-width:1px;stroke-linecap:butt;stroke-linejoin:miter;stroke-opacity:1"
         d="m -112.72276,230.81533 9.74306,14.22915 v 5.20018 l -10.09636,10.0404 10.09636,9.9596 v 5.20018 l -10.0859,14.60038 -9.60464,-4.57126 4.69054,-10.02912 -34.94323,-0.11428 0.11429,-30.1718 h 34.82894 l -4.5145,-9.77216 z"
         id="path5417"
         sodipodi:nodetypes="cccccccccccccc" />
      <path
         inkscape:connector-curvature="0"
         style="fill:#ffffff;fill-opacity:1;fill-rule:evenodd;stroke:#000000;stroke-width:1px;stroke-linecap:butt;stroke-linejoin:miter;stroke-opacity:1"
         d="m -102.9797,250.24466 c -2,10 -2,10 -2,10 l 2,10"
         id="path5419" />
    </g>
    <text
       xml:space="preserve"
       style="font-style:normal;font-variant:normal;font-weight:normal;font-stretch:normal;line-height:0%;font-family:Verdana;text-align:center;writing-mode:lr-tb;text-anchor:middle;fill:#000000;fill-opacity:1;stroke:none"
       x="339.99374"
       y="-369.60318"
       id="text5421"
       transform="rotate(90)"><tspan
         sodipodi:role="line"
         x="339.99374"
         y="-369.60318"
         id="tspan5423"
         style="font-size:16px;line-height:1">Simón</tspan></text>
    <g
       id="use8177"
       transform="matrix(0.588968,0,0,0.581043,346.38261,125.49871)"
       style="fill:#e00000;fill-opacity:1">
      <path
         sodipodi:nodetypes="cccccccccccccc"
         id="path2305"
         d="m -112.72276,230.81533 9.74306,14.22915 v 5.20018 l -10.09636,10.0404 10.09636,9.9596 v 5.20018 l -10.0859,14.60038 -9.60464,-4.57126 4.69054,-10.02912 -34.94323,-0.11428 0.11429,-30.1718 h 34.82894 l -4.5145,-9.77216 z"
         style="fill:#e00000;fill-opacity:1;fill-rule:evenodd;stroke:#000000;stroke-width:1px;stroke-linecap:butt;stroke-linejoin:miter;stroke-opacity:1"
         inkscape:connector-curvature="0" />
      <path
         id="path2307"
         d="m -102.9797,250.24466 c -2,10 -2,10 -2,10 l 2,10"
         style="fill:#e00000;fill-opacity:1;fill-rule:evenodd;stroke:#000000;stroke-width:1px;stroke-linecap:butt;stroke-linejoin:miter;stroke-opacity:1"
         inkscape:connector-curvature="0" />
    </g>
    <g
       style="fill:#e00000;fill-opacity:1"
       transform="matrix(0.588968,0,0,0.581043,346.38261,255.49871)"
       id="use8179">
      <path
         style="fill:#e00000;fill-opacity:1;fill-rule:evenodd;stroke:#000000;stroke-width:1px;stroke-linecap:butt;stroke-linejoin:miter;stroke-opacity:1"
         d="m -112.72276,230.81533 9.74306,14.22915 v 5.20018 l -10.09636,10.0404 10.09636,9.9596 v 5.20018 l -10.0859,14.60038 -9.60464,-4.57126 4.69054,-10.02912 -34.94323,-0.11428 0.11429,-30.1718 h 34.82894 l -4.5145,-9.77216 z"
         id="path1518"
         sodipodi:nodetypes="cccccccccccccc"
         inkscape:connector-curvature="0" />
      <path
         style="fill:#e00000;fill-opacity:1;fill-rule:evenodd;stroke:#000000;stroke-width:1px;stroke-linecap:butt;stroke-linejoin:miter;stroke-opacity:1"
         d="m -102.9797,250.24466 c -2,10 -2,10 -2,10 l 2,10"
         id="path1520"
         inkscape:connector-curvature="0" />
    </g>
    <g
       style="font-style:normal;font-variant:normal;font-weight:normal;font-stretch:normal;font-size:27.3508px;line-height:100%;font-family:Verdana;text-align:center;writing-mode:lr-tb;text-anchor:middle;fill:#e00000;fill-opacity:1"
       transform="matrix(0.588968,0,0,0.581043,330.38261,385.49871)"
       id="use8181">
      <path
         style="font-style:normal;font-variant:normal;font-weight:normal;font-stretch:normal;font-size:27.3508px;line-height:100%;font-family:Verdana;text-align:center;writing-mode:lr-tb;text-anchor:middle;fill:#e00000;fill-opacity:1;fill-rule:evenodd;stroke:#000000;stroke-width:1px;stroke-linecap:butt;stroke-linejoin:miter;stroke-opacity:1"
         d="m -112.72276,230.81533 9.74306,14.22915 v 5.20018 l -10.09636,10.0404 10.09636,9.9596 v 5.20018 l -10.0859,14.60038 -9.60464,-4.57126 4.69054,-10.02912 -34.94323,-0.11428 0.11429,-30.1718 h 34.82894 l -4.5145,-9.77216 z"
         id="path1530"
         sodipodi:nodetypes="cccccccccccccc"
         inkscape:connector-curvature="0" />
      <path
         style="font-style:normal;font-variant:normal;font-weight:normal;font-stretch:normal;font-size:27.3508px;line-height:100%;font-family:Verdana;text-align:center;writing-mode:lr-tb;text-anchor:middle;fill:#e00000;fill-opacity:1;fill-rule:evenodd;stroke:#000000;stroke-width:1px;stroke-linecap:butt;stroke-linejoin:miter;stroke-opacity:1"
         d="m -102.9797,250.24466 c -2,10 -2,10 -2,10 l 2,10"
         id="path1532"
         inkscape:connector-curvature="0" />
    </g>
    <g
       style="fill:#e00000;fill-opacity:1"
       transform="matrix(0.588968,0,0,0.581043,330.38261,-4.5012901)"
       id="use8201">
      <path
         style="fill:#e00000;fill-opacity:1;fill-rule:evenodd;stroke:#000000;stroke-width:1px;stroke-linecap:butt;stroke-linejoin:miter;stroke-opacity:1"
         d="m -112.72276,230.81533 9.74306,14.22915 v 5.20018 l -10.09636,10.0404 10.09636,9.9596 v 5.20018 l -10.0859,14.60038 -9.60464,-4.57126 4.69054,-10.02912 -34.94323,-0.11428 0.11429,-30.1718 h 34.82894 l -4.5145,-9.77216 z"
         id="path1500"
         sodipodi:nodetypes="cccccccccccccc"
         inkscape:connector-curvature="0" />
      <path
         style="fill:#e00000;fill-opacity:1;fill-rule:evenodd;stroke:#000000;stroke-width:1px;stroke-linecap:butt;stroke-linejoin:miter;stroke-opacity:1"
         d="m -102.9797,250.24466 c -2,10 -2,10 -2,10 l 2,10"
         id="path1502"
         inkscape:connector-curvature="0" />
    </g>
    <text
       id="text5329"
       y="-291.36404"
       x="276.45169"
       style="font-style:normal;font-variant:normal;font-weight:normal;font-stretch:normal;font-size:16px;line-height:0%;font-family:Verdana;text-align:center;writing-mode:lr-tb;text-anchor:middle;fill:#000000;fill-opacity:1;stroke:none"
       xml:space="preserve"
       transform="rotate(90)"><tspan
         y="-291.36404"
         x="276.45169"
         sodipodi:role="line"
         id="tspan82908"
         style="font-size:16px">Le Normand</tspan></text>
    <text
       xml:space="preserve"
       style="font-style:normal;font-variant:normal;font-weight:normal;font-stretch:normal;line-height:0%;font-family:Verdana;text-align:center;writing-mode:lr-tb;text-anchor:middle;fill:#000000;fill-opacity:1;stroke:none"
       x="406.45169"
       y="-291.36404"
       id="text5333"
       transform="rotate(90)"><tspan
         sodipodi:role="line"
         x="406.45169"
         y="-291.36404"
         id="tspan5335"
         style="font-size:16px;line-height:1">Laporte</tspan></text>
    <text
       id="text5337"
       y="-275.36404"
       x="536.45166"
       style="font-style:normal;font-variant:normal;font-weight:normal;font-stretch:normal;line-height:0%;font-family:Verdana;text-align:center;writing-mode:lr-tb;text-anchor:middle;fill:#000000;fill-opacity:1;stroke:none"
       xml:space="preserve"
       transform="rotate(90)"><tspan
         id="tspan5339"
         y="-275.36404"
         x="536.45166"
         sodipodi:role="line"
         style="font-size:16px;line-height:1">Alba</tspan></text>
    <text
       id="text149"
       y="-275.36404"
       x="146.45169"
       style="font-style:normal;font-variant:normal;font-weight:normal;font-stretch:normal;font-size:16px;line-height:0%;font-family:Verdana;text-align:center;writing-mode:lr-tb;text-anchor:middle;fill:#000000;fill-opacity:1;stroke:none"
       xml:space="preserve"
       transform="rotate(90)"><tspan
         y="-275.36404"
         x="146.45169"
         sodipodi:role="line"
         id="tspan147"
         style="font-size:16px">Navas</tspan></text>
    <g
       id="g8976"
       transform="matrix(0.588968,0,0,0.581043,146.38261,190.49871)"
       style="fill:#e00000;fill-opacity:1">
      <path
         sodipodi:nodetypes="cccccccccccccc"
         id="path8978"
         d="m -112.72276,230.81533 9.74306,14.22915 v 5.20018 l -10.09636,10.0404 10.09636,9.9596 v 5.20018 l -10.0859,14.60038 -9.60464,-4.57126 4.69054,-10.02912 -34.94323,-0.11428 0.11429,-30.1718 h 34.82894 l -4.5145,-9.77216 z"
         style="fill:#e00000;fill-opacity:1;fill-rule:evenodd;stroke:#000000;stroke-width:1px;stroke-linecap:butt;stroke-linejoin:miter;stroke-opacity:1"
         inkscape:connector-curvature="0" />
      <path
         id="path8980"
         d="m -102.9797,250.24466 c -2,10 -2,10 -2,10 l 2,10"
         style="fill:#e00000;fill-opacity:1;fill-rule:evenodd;stroke:#000000;stroke-width:1px;stroke-linecap:butt;stroke-linejoin:miter;stroke-opacity:1"
         inkscape:connector-curvature="0" />
    </g>
    <text
       id="text8982"
       y="-91.364059"
       x="339.95697"
       style="font-style:normal;font-variant:normal;font-weight:normal;font-stretch:normal;line-height:0%;font-family:Verdana;text-align:center;writing-mode:lr-tb;text-anchor:middle;fill:#000000;fill-opacity:1;stroke:none"
       xml:space="preserve"
       transform="rotate(90)"><tspan
         id="tspan8984"
         y="-91.364059"
         x="339.95697"
         sodipodi:role="line"
         style="font-size:16px;line-height:1">Morata</tspan></text>
    <g
       id="g254"
       transform="matrix(0.588968,0,0,0.581043,272.38261,125.49871)"
       style="fill:#e00000;fill-opacity:1">
      <path
         sodipodi:nodetypes="cccccccccccccc"
         id="path250"
         d="m -112.72276,230.81533 9.74306,14.22915 v 5.20018 l -10.09636,10.0404 10.09636,9.9596 v 5.20018 l -10.0859,14.60038 -9.60464,-4.57126 4.69054,-10.02912 -34.94323,-0.11428 0.11429,-30.1718 h 34.82894 l -4.5145,-9.77216 z"
         style="fill:#e00000;fill-opacity:1;fill-rule:evenodd;stroke:#000000;stroke-width:1px;stroke-linecap:butt;stroke-linejoin:miter;stroke-opacity:1"
         inkscape:connector-curvature="0" />
      <path
         id="path252"
         d="m -102.9797,250.24466 c -2,10 -2,10 -2,10 l 2,10"
         style="fill:#e00000;fill-opacity:1;fill-rule:evenodd;stroke:#000000;stroke-width:1px;stroke-linecap:butt;stroke-linejoin:miter;stroke-opacity:1"
         inkscape:connector-curvature="0" />
    </g>
    <g
       style="fill:#e00000;fill-opacity:1"
       transform="matrix(0.588968,0,0,0.581043,272.38261,255.49871)"
       id="g260">
      <path
         style="fill:#e00000;fill-opacity:1;fill-rule:evenodd;stroke:#000000;stroke-width:1px;stroke-linecap:butt;stroke-linejoin:miter;stroke-opacity:1"
         d="m -112.72276,230.81533 9.74306,14.22915 v 5.20018 l -10.09636,10.0404 10.09636,9.9596 v 5.20018 l -10.0859,14.60038 -9.60464,-4.57126 4.69054,-10.02912 -34.94323,-0.11428 0.11429,-30.1718 h 34.82894 l -4.5145,-9.77216 z"
         id="path256"
         sodipodi:nodetypes="cccccccccccccc"
         inkscape:connector-curvature="0" />
      <path
         style="fill:#e00000;fill-opacity:1;fill-rule:evenodd;stroke:#000000;stroke-width:1px;stroke-linecap:butt;stroke-linejoin:miter;stroke-opacity:1"
         d="m -102.9797,250.24466 c -2,10 -2,10 -2,10 l 2,10"
         id="path258"
         inkscape:connector-curvature="0" />
    </g>
    <text
       id="text264"
       y="-217.36404"
       x="276.45169"
       style="font-style:normal;font-variant:normal;font-weight:normal;font-stretch:normal;font-size:16px;line-height:0%;font-family:Verdana;text-align:center;writing-mode:lr-tb;text-anchor:middle;fill:#000000;fill-opacity:1;stroke:none"
       xml:space="preserve"
       transform="rotate(90)"><tspan
         y="-217.36404"
         x="276.45169"
         sodipodi:role="line"
         id="tspan262"
         style="font-size:16px">Rodri</tspan></text>
    <text
       xml:space="preserve"
       style="font-style:normal;font-variant:normal;font-weight:normal;font-stretch:normal;line-height:0%;font-family:Verdana;text-align:center;writing-mode:lr-tb;text-anchor:middle;fill:#000000;fill-opacity:1;stroke:none"
       x="406.45169"
       y="-217.36404"
       id="text268"
       transform="rotate(90)"><tspan
         sodipodi:role="line"
         x="406.45169"
         y="-217.36404"
         id="tspan266"
         style="font-size:16px;line-height:1">Ruiz</tspan></text>
    <g
       id="g274"
       transform="matrix(0.588968,0,0,0.581043,206.38261,61.49871)"
       style="fill:#e00000;fill-opacity:1">
      <path
         inkscape:connector-curvature="0"
         sodipodi:nodetypes="cccccccccccccc"
         id="path270"
         d="m -112.72276,230.81533 9.74306,14.22915 v 5.20018 l -10.09636,10.0404 10.09636,9.9596 v 5.20018 l -10.0859,14.60038 -9.60464,-4.57126 4.69054,-10.02912 -34.94323,-0.11428 0.11429,-30.1718 h 34.82894 l -4.5145,-9.77216 z"
         style="fill:#e00000;fill-opacity:1;fill-rule:evenodd;stroke:#000000;stroke-width:1px;stroke-linecap:butt;stroke-linejoin:miter;stroke-opacity:1" />
      <path
         inkscape:connector-curvature="0"
         id="path272"
         d="m -102.9797,250.24466 c -2,10 -2,10 -2,10 l 2,10"
         style="fill:#e00000;fill-opacity:1;fill-rule:evenodd;stroke:#000000;stroke-width:1px;stroke-linecap:butt;stroke-linejoin:miter;stroke-opacity:1" />
    </g>
    <text
       id="text278"
       y="-151.32465"
       x="211.94925"
       style="font-style:normal;font-variant:normal;font-weight:normal;font-stretch:normal;line-height:0%;font-family:Verdana;text-align:center;writing-mode:lr-tb;text-anchor:middle;fill:#000000;fill-opacity:1;stroke:none"
       xml:space="preserve"
       transform="rotate(90)"><tspan
         id="tspan276"
         y="-151.32465"
         x="211.94925"
         sodipodi:role="line"
         style="font-size:16px;line-height:1">Asensio</tspan></text>
    <g
       style="fill:#e00000;fill-opacity:1"
       transform="matrix(0.588968,0,0,0.581043,206.38261,319.49871)"
       id="g284">
      <path
         style="fill:#e00000;fill-opacity:1;fill-rule:evenodd;stroke:#000000;stroke-width:1px;stroke-linecap:butt;stroke-linejoin:miter;stroke-opacity:1"
         d="m -112.72276,230.81533 9.74306,14.22915 v 5.20018 l -10.09636,10.0404 10.09636,9.9596 v 5.20018 l -10.0859,14.60038 -9.60464,-4.57126 4.69054,-10.02912 -34.94323,-0.11428 0.11429,-30.1718 h 34.82894 l -4.5145,-9.77216 z"
         id="path280"
         sodipodi:nodetypes="cccccccccccccc"
         inkscape:connector-curvature="0" />
      <path
         style="fill:#e00000;fill-opacity:1;fill-rule:evenodd;stroke:#000000;stroke-width:1px;stroke-linecap:butt;stroke-linejoin:miter;stroke-opacity:1"
         d="m -102.9797,250.24466 c -2,10 -2,10 -2,10 l 2,10"
         id="path282"
         inkscape:connector-curvature="0" />
    </g>
    <text
       xml:space="preserve"
       style="font-style:normal;font-variant:normal;font-weight:normal;font-stretch:normal;line-height:0%;font-family:Verdana;text-align:center;writing-mode:lr-tb;text-anchor:middle;fill:#000000;fill-opacity:1;stroke:none"
       x="469.94925"
       y="-151.32465"
       id="text288"
       transform="rotate(90)"><tspan
         sodipodi:role="line"
         x="469.94925"
         y="-151.32465"
         id="tspan286"
         style="font-size:16px;line-height:1">Pino</tspan></text>
    <g
       id="g294"
       transform="matrix(0.588968,0,0,0.581043,206.38261,190.49871)"
       style="fill:#e00000;fill-opacity:1">
      <path
         sodipodi:nodetypes="cccccccccccccc"
         id="path290"
         d="m -112.72276,230.81533 9.74306,14.22915 v 5.20018 l -10.09636,10.0404 10.09636,9.9596 v 5.20018 l -10.0859,14.60038 -9.60464,-4.57126 4.69054,-10.02912 -34.94323,-0.11428 0.11429,-30.1718 h 34.82894 l -4.5145,-9.77216 z"
         style="fill:#e00000;fill-opacity:1;fill-rule:evenodd;stroke:#000000;stroke-width:1px;stroke-linecap:butt;stroke-linejoin:miter;stroke-opacity:1"
         inkscape:connector-curvature="0" />
      <path
         id="path292"
         d="m -102.9797,250.24466 c -2,10 -2,10 -2,10 l 2,10"
         style="fill:#e00000;fill-opacity:1;fill-rule:evenodd;stroke:#000000;stroke-width:1px;stroke-linecap:butt;stroke-linejoin:miter;stroke-opacity:1"
         inkscape:connector-curvature="0" />
    </g>
    <text
       id="text298"
       y="-151.36406"
       x="339.95697"
       style="font-style:normal;font-variant:normal;font-weight:normal;font-stretch:normal;line-height:0%;font-family:Verdana;text-align:center;writing-mode:lr-tb;text-anchor:middle;fill:#000000;fill-opacity:1;stroke:none"
       xml:space="preserve"
       transform="rotate(90)"><tspan
         id="tspan296"
         y="-151.36406"
         x="339.95697"
         sodipodi:role="line"
         style="font-size:16px;line-height:1">Gavi</tspan></text>
    <text
       xml:space="preserve"
       style="font-style:normal;font-variant:normal;font-weight:normal;font-stretch:normal;line-height:0%;font-family:Verdana;text-align:center;writing-mode:lr-tb;text-anchor:middle;fill:#000000;fill-opacity:1;stroke:none;stroke-width:1px;stroke-linecap:butt;stroke-linejoin:miter;stroke-opacity:1"
       x="342.75247"
       y="150.93269"
       id="text8448"
       transform="rotate(90)"><tspan
         sodipodi:role="line"
         x="342.75247"
         y="150.93269"
         id="tspan8450"
         style="font-size:16px;line-height:1">Brozović</tspan></text>
    <text
       xml:space="preserve"
       style="font-style:normal;font-variant:normal;font-weight:normal;font-stretch:normal;line-height:0%;font-family:Verdana;text-align:center;writing-mode:lr-tb;text-anchor:middle;fill:#000000;fill-opacity:1;stroke:none;stroke-width:1px;stroke-linecap:butt;stroke-linejoin:miter;stroke-opacity:1"
       x="449.82278"
       y="133.69771"
       id="text8458"
       transform="rotate(90)"><tspan
         sodipodi:role="line"
         x="449.82278"
         y="133.69771"
         id="tspan8460"
         style="font-size:16px;line-height:1">Modrić</tspan></text>
    <text
       xml:space="preserve"
       style="font-style:normal;font-variant:normal;font-weight:normal;font-stretch:normal;line-height:0%;font-family:Verdana;text-align:center;writing-mode:lr-tb;text-anchor:middle;fill:#000000;fill-opacity:1;stroke:none;stroke-width:1px;stroke-linecap:butt;stroke-linejoin:miter;stroke-opacity:1"
       x="220.14081"
       y="53.677155"
       id="text8468"
       transform="rotate(90)"><tspan
         sodipodi:role="line"
         x="220.14081"
         y="53.677155"
         id="tspan8470"
         style="font-size:16px;line-height:1">Ivanušec</tspan></text>
    <text
       xml:space="preserve"
       style="font-style:normal;font-variant:normal;font-weight:normal;font-stretch:normal;line-height:0%;font-family:Verdana;text-align:center;writing-mode:lr-tb;text-anchor:middle;fill:#000000;fill-opacity:1;stroke:none;stroke-width:1px;stroke-linecap:butt;stroke-linejoin:miter;stroke-opacity:1"
       x="341.9209"
       y="31.737518"
       id="text9518"
       transform="rotate(90)"><tspan
         sodipodi:role="line"
         x="341.9209"
         y="31.737518"
         id="tspan9520"
         style="font-size:16px;line-height:1">Kramarić</tspan></text>
    <text
       xml:space="preserve"
       style="font-style:normal;font-variant:normal;font-weight:normal;font-stretch:normal;line-height:0%;font-family:Verdana;text-align:center;writing-mode:lr-tb;text-anchor:middle;fill:#000000;fill-opacity:1;stroke:none;stroke-width:1px;stroke-linecap:butt;stroke-linejoin:miter;stroke-opacity:1"
       x="462.54938"
       y="52.611778"
       id="text9528"
       transform="rotate(90)"><tspan
         sodipodi:role="line"
         x="462.54938"
         y="52.611778"
         id="tspan9530"
         style="font-size:16px;line-height:1">Pašalić</tspan></text>
    <text
       xml:space="preserve"
       style="font-style:normal;font-variant:normal;font-weight:normal;font-stretch:normal;line-height:0%;font-family:Verdana;text-align:center;writing-mode:lr-tb;text-anchor:middle;fill:#000000;fill-opacity:1;stroke:none;stroke-width:1px;stroke-linecap:butt;stroke-linejoin:miter;stroke-opacity:1"
       x="234.14081"
       y="133.67715"
       id="text1629"
       transform="rotate(90)"><tspan
         sodipodi:role="line"
         x="234.14081"
         y="133.67715"
         id="tspan1627"
         style="font-size:16px;line-height:1">Kovačić</tspan></text>
    <g
       id="g1368"
       transform="translate(-13.30214,-82.95826)"
       style="fill:#001860;fill-opacity:1">
      <g
         id="g1360"
         transform="matrix(0.588968,0,0,0.581043,-30.315478,274.45531)"
         style="fill:#001860;fill-opacity:1">
        <path
           inkscape:connector-curvature="0"
           sodipodi:nodetypes="cccccccccccccc"
           id="path1356"
           d="m -112.72276,230.81533 9.74306,14.22915 v 5.20018 l -10.09636,10.0404 10.09636,9.9596 v 5.20018 l -10.0859,14.60038 -9.60464,-4.57126 4.69054,-10.02912 -34.94323,-0.11428 0.11429,-30.1718 h 34.82894 l -4.5145,-9.77216 z"
           style="fill:#001860;fill-opacity:1;fill-rule:evenodd;stroke:#000000;stroke-width:1px;stroke-linecap:butt;stroke-linejoin:miter;stroke-opacity:1" />
        <path
           inkscape:connector-curvature="0"
           id="path1358"
           d="m -102.9797,250.24466 c -2,10 -2,10 -2,10 l 2,10"
           style="fill:#001860;fill-opacity:1;fill-rule:evenodd;stroke:#000000;stroke-width:1px;stroke-linecap:butt;stroke-linejoin:miter;stroke-opacity:1" />
      </g>
    </g>
    <g
       id="g1462"
       transform="translate(2.69786,-190.95826)"
       style="fill:#001860;fill-opacity:1">
      <g
         id="g1454"
         transform="matrix(0.588968,0,0,0.581043,-30.315478,274.45531)"
         style="fill:#001860;fill-opacity:1">
        <path
           inkscape:connector-curvature="0"
           sodipodi:nodetypes="cccccccccccccc"
           id="path1450"
           d="m -112.72276,230.81533 9.74306,14.22915 v 5.20018 l -10.09636,10.0404 10.09636,9.9596 v 5.20018 l -10.0859,14.60038 -9.60464,-4.57126 4.69054,-10.02912 -34.94323,-0.11428 0.11429,-30.1718 h 34.82894 l -4.5145,-9.77216 z"
           style="fill:#001860;fill-opacity:1;fill-rule:evenodd;stroke:#000000;stroke-width:1px;stroke-linecap:butt;stroke-linejoin:miter;stroke-opacity:1" />
        <path
           inkscape:connector-curvature="0"
           id="path1452"
           d="m -102.9797,250.24466 c -2,10 -2,10 -2,10 l 2,10"
           style="fill:#001860;fill-opacity:1;fill-rule:evenodd;stroke:#000000;stroke-width:1px;stroke-linecap:butt;stroke-linejoin:miter;stroke-opacity:1" />
      </g>
    </g>
    <g
       id="g1476"
       transform="translate(2.69786,23.04174)"
       style="fill:#001860;fill-opacity:1">
      <g
         id="g1468"
         transform="matrix(0.588968,0,0,0.581043,-30.315478,274.45531)"
         style="fill:#001860;fill-opacity:1">
        <path
           inkscape:connector-curvature="0"
           sodipodi:nodetypes="cccccccccccccc"
           id="path1464"
           d="m -112.72276,230.81533 9.74306,14.22915 v 5.20018 l -10.09636,10.0404 10.09636,9.9596 v 5.20018 l -10.0859,14.60038 -9.60464,-4.57126 4.69054,-10.02912 -34.94323,-0.11428 0.11429,-30.1718 h 34.82894 l -4.5145,-9.77216 z"
           style="fill:#001860;fill-opacity:1;fill-rule:evenodd;stroke:#000000;stroke-width:1px;stroke-linecap:butt;stroke-linejoin:miter;stroke-opacity:1" />
        <path
           inkscape:connector-curvature="0"
           id="path1466"
           d="m -102.9797,250.24466 c -2,10 -2,10 -2,10 l 2,10"
           style="fill:#001860;fill-opacity:1;fill-rule:evenodd;stroke:#000000;stroke-width:1px;stroke-linecap:butt;stroke-linejoin:miter;stroke-opacity:1" />
      </g>
    </g>
    <g
       id="g1650"
       transform="translate(82.69786,-204.95826)"
       style="fill:#001860;fill-opacity:1">
      <g
         id="g1642"
         transform="matrix(0.588968,0,0,0.581043,-30.315478,274.45531)"
         style="fill:#001860;fill-opacity:1">
        <path
           inkscape:connector-curvature="0"
           sodipodi:nodetypes="cccccccccccccc"
           id="path1638"
           d="m -112.72276,230.81533 9.74306,14.22915 v 5.20018 l -10.09636,10.0404 10.09636,9.9596 v 5.20018 l -10.0859,14.60038 -9.60464,-4.57126 4.69054,-10.02912 -34.94323,-0.11428 0.11429,-30.1718 h 34.82894 l -4.5145,-9.77216 z"
           style="fill:#001860;fill-opacity:1;fill-rule:evenodd;stroke:#000000;stroke-width:1px;stroke-linecap:butt;stroke-linejoin:miter;stroke-opacity:1" />
        <path
           inkscape:connector-curvature="0"
           id="path1640"
           d="m -102.9797,250.24466 c -2,10 -2,10 -2,10 l 2,10"
           style="fill:#001860;fill-opacity:1;fill-rule:evenodd;stroke:#000000;stroke-width:1px;stroke-linecap:butt;stroke-linejoin:miter;stroke-opacity:1" />
      </g>
    </g>
    <g
       id="g1744"
       transform="translate(106.69786,-84.95826)"
       style="fill:#001860;fill-opacity:1">
      <g
         id="g1736"
         transform="matrix(0.588968,0,0,0.581043,-30.315478,274.45531)"
         style="fill:#001860;fill-opacity:1">
        <path
           inkscape:connector-curvature="0"
           sodipodi:nodetypes="cccccccccccccc"
           id="path1732"
           d="m -112.72276,230.81533 9.74306,14.22915 v 5.20018 l -10.09636,10.0404 10.09636,9.9596 v 5.20018 l -10.0859,14.60038 -9.60464,-4.57126 4.69054,-10.02912 -34.94323,-0.11428 0.11429,-30.1718 h 34.82894 l -4.5145,-9.77216 z"
           style="fill:#001860;fill-opacity:1;fill-rule:evenodd;stroke:#000000;stroke-width:1px;stroke-linecap:butt;stroke-linejoin:miter;stroke-opacity:1" />
        <path
           inkscape:connector-curvature="0"
           id="path1734"
           d="m -102.9797,250.24466 c -2,10 -2,10 -2,10 l 2,10"
           style="fill:#001860;fill-opacity:1;fill-rule:evenodd;stroke:#000000;stroke-width:1px;stroke-linecap:butt;stroke-linejoin:miter;stroke-opacity:1" />
      </g>
    </g>
    <g
       id="g1838"
       transform="translate(82.69786,37.04174)"
       style="fill:#001860;fill-opacity:1">
      <g
         id="g1830"
         transform="matrix(0.588968,0,0,0.581043,-30.315478,274.45531)"
         style="fill:#001860;fill-opacity:1">
        <path
           inkscape:connector-curvature="0"
           sodipodi:nodetypes="cccccccccccccc"
           id="path1826"
           d="m -112.72276,230.81533 9.74306,14.22915 v 5.20018 l -10.09636,10.0404 10.09636,9.9596 v 5.20018 l -10.0859,14.60038 -9.60464,-4.57126 4.69054,-10.02912 -34.94323,-0.11428 0.11429,-30.1718 h 34.82894 l -4.5145,-9.77216 z"
           style="fill:#001860;fill-opacity:1;fill-rule:evenodd;stroke:#000000;stroke-width:1px;stroke-linecap:butt;stroke-linejoin:miter;stroke-opacity:1" />
        <path
           inkscape:connector-curvature="0"
           id="path1828"
           d="m -102.9797,250.24466 c -2,10 -2,10 -2,10 l 2,10"
           style="fill:#001860;fill-opacity:1;fill-rule:evenodd;stroke:#000000;stroke-width:1px;stroke-linecap:butt;stroke-linejoin:miter;stroke-opacity:1" />
      </g>
    </g>
  </g>
</svg>
