<?xml version="1.0" encoding="UTF-8" standalone="no"?>
<!-- Created with Inkscape (http://www.inkscape.org/) -->

<svg
   xmlns:dc="http://purl.org/dc/elements/1.1/"
   xmlns:cc="http://creativecommons.org/ns#"
   xmlns:rdf="http://www.w3.org/1999/02/22-rdf-syntax-ns#"
   xmlns:svg="http://www.w3.org/2000/svg"
   xmlns="http://www.w3.org/2000/svg"
   xmlns:sodipodi="http://sodipodi.sourceforge.net/DTD/sodipodi-0.dtd"
   xmlns:inkscape="http://www.inkscape.org/namespaces/inkscape"
   id="svg2"
   version="1.1"
   inkscape:version="0.48.5 r10040"
   width="144.34625"
   height="35.490002"
   xml:space="preserve"
   sodipodi:docname="The_historic_olympic_collection_style_guide.pdf"><metadata
     id="metadata8"><rdf:RDF><cc:Work
         rdf:about=""><dc:format>image/svg+xml</dc:format><dc:type
           rdf:resource="http://purl.org/dc/dcmitype/StillImage" /><dc:title></dc:title></cc:Work></rdf:RDF></metadata><defs
     id="defs6"><clipPath
       clipPathUnits="userSpaceOnUse"
       id="clipPath24"><path
         d="m 276.967,364.923 115.477,0 0,28.392 -115.477,0 0,-28.392 z"
         id="path26"
         inkscape:connector-curvature="0" /></clipPath><clipPath
       clipPathUnits="userSpaceOnUse"
       id="clipPath88"><path
         d="m 276.967,364.923 115.477,0 0,28.392 -115.477,0 0,-28.392 z"
         id="path90"
         inkscape:connector-curvature="0" /></clipPath><clipPath
       clipPathUnits="userSpaceOnUse"
       id="clipPath318"><path
         d="m 673.979,311.841 80.953,0 0,100.575 -80.953,0 0,-100.575 z"
         id="path320"
         inkscape:connector-curvature="0" /></clipPath><clipPath
       clipPathUnits="userSpaceOnUse"
       id="clipPath366"><path
         d="m 425.905,96.452 232.441,0 0,328.742 -232.441,0 0,-328.742 z"
         id="path368"
         inkscape:connector-curvature="0" /></clipPath><clipPath
       clipPathUnits="userSpaceOnUse"
       id="clipPath382"><path
         d="m 280.701,103.688 73.904,0 0,112.107 -73.904,0 0,-112.107 z"
         id="path384"
         inkscape:connector-curvature="0" /></clipPath><clipPath
       clipPathUnits="userSpaceOnUse"
       id="clipPath906"><path
         d="m 0,595.276 841.89,0 L 841.89,0 0,0 0,595.276 z"
         id="path908"
         inkscape:connector-curvature="0" /></clipPath></defs><sodipodi:namedview
     pagecolor="#ffffff"
     bordercolor="#666666"
     borderopacity="1"
     objecttolerance="10"
     gridtolerance="10"
     guidetolerance="10"
     inkscape:pageopacity="0"
     inkscape:pageshadow="2"
     inkscape:window-width="1280"
     inkscape:window-height="659"
     id="namedview4"
     showgrid="false"
     fit-margin-top="0"
     fit-margin-left="0"
     fit-margin-right="0"
     fit-margin-bottom="0"
     inkscape:object-paths="false"
     inkscape:object-nodes="true"
     inkscape:snap-global="false"
     inkscape:zoom="2.8284271"
     inkscape:cx="178.15836"
     inkscape:cy="-32.8476"
     inkscape:window-x="0"
     inkscape:window-y="0"
     inkscape:window-maximized="1"
     inkscape:current-layer="g10" /><g
     id="g10"
     inkscape:groupmode="layer"
     inkscape:label="The_historic_olympic_collection_style_guide"
     transform="matrix(1.25,0,0,-1.25,-346.20875,491.64375)"><g
       id="g20"><g
         id="g22"
         clip-path="url(#clipPath24)"><g
           id="g28"
           transform="translate(281.7303,365.3217)"><path
             d="m 0,0 0,20.753 c 0,1.218 0.987,2.206 2.206,2.206 1.218,0 2.206,-0.988 2.206,-2.206 L 4.412,0"
             style="fill:none;stroke:#231f20;stroke-width:0.986;stroke-linecap:butt;stroke-linejoin:miter;stroke-miterlimit:8;stroke-opacity:1;stroke-dasharray:none"
             id="path30"
             inkscape:connector-curvature="0" /></g><g
           id="g32"
           transform="translate(290.3537,365.2983)"><path
             d="m 0,0 0,20.796 c 0,1.218 0.988,2.206 2.206,2.206 1.218,0 2.206,-0.988 2.206,-2.206 L 4.412,0"
             style="fill:none;stroke:#231f20;stroke-width:0.986;stroke-linecap:butt;stroke-linejoin:miter;stroke-miterlimit:8;stroke-opacity:1;stroke-dasharray:none"
             id="path34"
             inkscape:connector-curvature="0" /></g><g
           id="g36"
           transform="translate(279.5715,365.2986)"><path
             d="m 0,0 0,20.966 c 0,2.397 1.943,4.341 4.341,4.341 2.397,0 4.341,-1.944 4.341,-4.341 L 8.682,0"
             style="fill:none;stroke:#231f20;stroke-width:0.986;stroke-linecap:butt;stroke-linejoin:miter;stroke-miterlimit:8;stroke-opacity:1;stroke-dasharray:none"
             id="path38"
             inkscape:connector-curvature="0" /></g><g
           id="g40"
           transform="translate(288.2535,365.3217)"><path
             d="m 0,0 0,21.003 c 0,2.398 1.943,4.341 4.341,4.341 2.397,0 4.341,-1.943 4.341,-4.341 l 0,-21.026"
             style="fill:none;stroke:#231f20;stroke-width:0.986;stroke-linecap:butt;stroke-linejoin:miter;stroke-miterlimit:8;stroke-opacity:1;stroke-dasharray:none"
             id="path42"
             inkscape:connector-curvature="0" /></g><g
           id="g44"
           transform="translate(277.4597,365.345)"><path
             d="m 0,0 0,20.961 c 0,3.56 2.886,6.446 6.447,6.446 1.819,0 3.462,-0.753 4.634,-1.965"
             style="fill:none;stroke:#231f20;stroke-width:0.986;stroke-linecap:butt;stroke-linejoin:miter;stroke-miterlimit:8;stroke-opacity:1;stroke-dasharray:none"
             id="path46"
             inkscape:connector-curvature="0" /></g><g
           id="g48"
           transform="translate(287.8958,390.7051)"><path
             d="m 0,0 c 1.177,1.266 2.904,2.094 4.769,2.094 2.218,0 4.175,-1.12 5.335,-2.826"
             style="fill:none;stroke:#231f20;stroke-width:0.986;stroke-linecap:butt;stroke-linejoin:miter;stroke-miterlimit:8;stroke-opacity:1;stroke-dasharray:none"
             id="path50"
             inkscape:connector-curvature="0" /></g><g
           id="g52"
           transform="translate(310.2709,368.2497)"><path
             d="m 0,0 c -1.387,-1.526 -3.482,-2.498 -5.826,-2.498 -3.871,0 -7.062,2.649 -7.507,6.066"
             style="fill:none;stroke:#231f20;stroke-width:0.99000001;stroke-linecap:butt;stroke-linejoin:miter;stroke-miterlimit:8;stroke-opacity:1;stroke-dasharray:none"
             id="path54"
             inkscape:connector-curvature="0" /></g><g
           id="g56"
           transform="translate(298.0849,389.6165)"><path
             d="m 0,0 c 1.346,1.902 3.691,3.161 6.359,3.161 2.804,0 5.251,-1.39 6.557,-3.455"
             style="fill:none;stroke:#231f20;stroke-width:0.986;stroke-linecap:butt;stroke-linejoin:miter;stroke-miterlimit:8;stroke-opacity:1;stroke-dasharray:none"
             id="path58"
             inkscape:connector-curvature="0" /></g><g
           id="g60"
           transform="translate(309.597,387.1362)"><path
             d="m 0,0 c -0.777,2.049 -2.753,3.504 -5.068,3.504 -2.993,0 -5.42,-2.435 -5.42,-5.438 l 0,-11.791 c 0,-3.003 2.427,-5.438 5.42,-5.438 2.894,0 5.257,2.274 5.413,5.138 l -0.03,0.212"
             style="fill:none;stroke:#231f20;stroke-width:0.986;stroke-linecap:butt;stroke-linejoin:miter;stroke-miterlimit:8;stroke-opacity:1;stroke-dasharray:none"
             id="path62"
             inkscape:connector-curvature="0" /></g><g
           id="g64"
           transform="translate(307.8395,373.2629)"><path
             d="m 0,0 c -0.083,-1.81 -1.532,-3.298 -3.363,-3.298 -1.884,0 -3.411,1.528 -3.411,3.411 l -0.044,3.98"
             style="fill:none;stroke:#231f20;stroke-width:0.986;stroke-linecap:butt;stroke-linejoin:miter;stroke-miterlimit:8;stroke-opacity:1;stroke-dasharray:none"
             id="path66"
             inkscape:connector-curvature="0" /></g><g
           id="g68"
           transform="translate(301.0654,380.9496)"><path
             d="M 0,0 0,3.98 C 0,5.864 1.527,7.391 3.411,7.391 5.21,7.391 6.683,6 6.813,4.235"
             style="fill:none;stroke:#231f20;stroke-width:0.986;stroke-linecap:butt;stroke-linejoin:miter;stroke-miterlimit:8;stroke-opacity:1;stroke-dasharray:none"
             id="path70"
             inkscape:connector-curvature="0" /></g></g></g><g
       id="g72"
       transform="translate(300.6429,381.4423)"><path
         d="M 0,0 6.465,0"
         style="fill:none;stroke:#231f20;stroke-width:0.986;stroke-linecap:butt;stroke-linejoin:miter;stroke-miterlimit:8;stroke-opacity:1;stroke-dasharray:none"
         id="path74"
         inkscape:connector-curvature="0" /></g><g
       id="g76"
       transform="translate(300.5313,376.9839)"><path
         d="M 0,0 6.682,0"
         style="fill:none;stroke:#231f20;stroke-width:0.986;stroke-linecap:butt;stroke-linejoin:miter;stroke-miterlimit:8;stroke-opacity:1;stroke-dasharray:none"
         id="path78"
         inkscape:connector-curvature="0" /></g><g
       id="g80"
       transform="translate(299.1414,379.2367)"><path
         d="M 0,0 8.037,0"
         style="fill:none;stroke:#231f20;stroke-width:0.986;stroke-linecap:butt;stroke-linejoin:miter;stroke-miterlimit:2;stroke-opacity:1;stroke-dasharray:none"
         id="path82"
         inkscape:connector-curvature="0" /></g><g
       id="g84"><g
         id="g86"
         clip-path="url(#clipPath88)"><g
           id="g92"
           transform="translate(297.3345,390.0658)"><path
             d="m 0,0 c 0,0 0.458,-0.634 0.528,-0.739 0.07,-0.106 0.305,-0.553 0.305,-0.553 0,0 0.352,0.658 0.516,0.858 C 1.514,-0.235 0,0 0,0"
             style="fill:#231f20;fill-opacity:1;fill-rule:nonzero;stroke:none"
             id="path94"
             inkscape:connector-curvature="0" /></g><g
           id="g96"
           transform="translate(323.5581,393.3156)"><path
             d="M 0,0 0,-27.982"
             style="fill:none;stroke:#231f20;stroke-width:0.986;stroke-linecap:butt;stroke-linejoin:miter;stroke-miterlimit:8;stroke-opacity:1;stroke-dasharray:none"
             id="path98"
             inkscape:connector-curvature="0" /></g><g
           id="g100"
           transform="translate(325.6569,393.2752)"><path
             d="M 0,0 0,-27.972"
             style="fill:none;stroke:#231f20;stroke-width:0.986;stroke-linecap:butt;stroke-linejoin:miter;stroke-miterlimit:8;stroke-opacity:1;stroke-dasharray:none"
             id="path102"
             inkscape:connector-curvature="0" /></g><g
           id="g104"
           transform="translate(327.8625,393.3104)"><path
             d="M 0,0 0,-28.007"
             style="fill:none;stroke:#231f20;stroke-width:0.986;stroke-linecap:butt;stroke-linejoin:miter;stroke-miterlimit:8;stroke-opacity:1;stroke-dasharray:none"
             id="path106"
             inkscape:connector-curvature="0" /></g><g
           id="g108"
           transform="translate(323.4982,365.5329)"><path
             d="M 0,0 -5.793,13.797 0.012,27.572"
             style="fill:none;stroke:#231f20;stroke-width:0.986;stroke-linecap:butt;stroke-linejoin:miter;stroke-miterlimit:8;stroke-opacity:1;stroke-dasharray:none"
             id="path110"
             inkscape:connector-curvature="0" /></g><g
           id="g112"
           transform="translate(342.3146,369.6378)"><path
             d="m 0,0 c -1.323,-2.315 -3.853,-3.88 -6.756,-3.88 -4.273,0 -7.736,3.389 -7.736,7.569 l 0,11.802 c 0,4.18 3.463,7.569 7.736,7.569 2.801,0 5.254,-1.456 6.612,-3.637"
             style="fill:none;stroke:#231f20;stroke-width:0.986;stroke-linecap:butt;stroke-linejoin:miter;stroke-miterlimit:2;stroke-opacity:1;stroke-dasharray:none"
             id="path114"
             inkscape:connector-curvature="0" /></g><g
           id="g116"
           transform="translate(341.1052,373.6124)"><path
             d="m 0,0 c 0,-3.086 -2.484,-5.588 -5.547,-5.588 -3.064,0 -5.547,2.502 -5.547,5.588 l 0,11.404 c 0,3.086 2.483,5.587 5.547,5.587 C -2.484,16.991 0,14.49 0,11.404 L 0,0 z"
             style="fill:none;stroke:#231f20;stroke-width:0.986;stroke-linecap:butt;stroke-linejoin:miter;stroke-miterlimit:2;stroke-opacity:1;stroke-dasharray:none"
             id="path118"
             inkscape:connector-curvature="0" /></g><g
           id="g120"
           transform="translate(338.8146,373.3193)"><path
             d="m 0,0 c -0.107,-1.754 -1.56,-3.143 -3.338,-3.143 -1.846,0 -3.344,1.5 -3.344,3.35 l 0,11.608 c 0,1.851 1.498,3.351 3.344,3.351 1.819,0 3.298,-1.454 3.344,-3.265"
             style="fill:none;stroke:#231f20;stroke-width:0.986;stroke-linecap:butt;stroke-linejoin:miter;stroke-miterlimit:2;stroke-opacity:1;stroke-dasharray:none"
             id="path122"
             inkscape:connector-curvature="0" /></g><g
           id="g124"
           transform="translate(342.1903,389.0318)"><path
             d="m 0,0 c 1.347,2.227 3.827,3.721 6.663,3.721 4.273,0 7.737,-3.389 7.737,-7.569 l 0,-11.803 c 0,-4.18 -3.464,-7.568 -7.737,-7.568 -2.843,0 -5.327,1.5 -6.671,3.734"
             style="fill:none;stroke:#231f20;stroke-width:0.986;stroke-linecap:butt;stroke-linejoin:miter;stroke-miterlimit:2;stroke-opacity:1;stroke-dasharray:none"
             id="path126"
             inkscape:connector-curvature="0" /></g><g
           id="g128"
           transform="translate(354.4006,377.2526)"><path
             d="m 0,0 0,-3.586 c 0,-3.086 -2.484,-5.587 -5.547,-5.587 -3.064,0 -5.547,2.501 -5.547,5.587 l 0,11.404 c 0,3.086 2.483,5.587 5.547,5.587 C -2.484,13.405 0,10.904 0,7.818 L 0,3.41"
             style="fill:none;stroke:#231f20;stroke-width:0.986;stroke-linecap:butt;stroke-linejoin:miter;stroke-miterlimit:2;stroke-opacity:1;stroke-dasharray:none"
             id="path130"
             inkscape:connector-curvature="0" /></g><g
           id="g132"
           transform="translate(352.1166,373.581)"><path
             d="m 0,0 c 0,-1.85 -1.497,-3.35 -3.344,-3.35 -1.847,0 -3.344,1.5 -3.344,3.35 l 0,11.608 c 0,1.85 1.497,3.35 3.344,3.35 1.847,0 3.344,-1.5 3.344,-3.35 L 0,0 z"
             style="fill:none;stroke:#231f20;stroke-width:0.986;stroke-linecap:butt;stroke-linejoin:miter;stroke-miterlimit:2;stroke-opacity:1;stroke-dasharray:none"
             id="path134"
             inkscape:connector-curvature="0" /></g><g
           id="g136"
           transform="translate(341.5779,389.045)"><path
             d="m 0,0 1.197,0 c 0,0 -0.587,-0.978 -0.599,-1.047 0,0 -0.481,0.93 -0.598,1.047"
             style="fill:#231f20;fill-opacity:1;fill-rule:nonzero;stroke:none"
             id="path138"
             inkscape:connector-curvature="0" /></g><g
           id="g140"
           transform="translate(341.5815,369.3689)"><path
             d="M 0,0 C 0,0 0.595,0.883 0.595,1.419 0.595,1.419 1,0.347 1.261,0.073 1.521,-0.203 0,0 0,0"
             style="fill:#231f20;fill-opacity:1;fill-rule:nonzero;stroke:none"
             id="path142"
             inkscape:connector-curvature="0" /></g><g
           id="g144"
           transform="translate(358.637,379.2014)"><path
             d="m 0,0 0.036,5.581 c 0,4.18 3.463,7.569 7.736,7.569 2.801,0 5.254,-1.457 6.612,-3.638"
             style="fill:none;stroke:#231f20;stroke-width:0.986;stroke-linecap:butt;stroke-linejoin:miter;stroke-miterlimit:2;stroke-opacity:1;stroke-dasharray:none"
             id="path146"
             inkscape:connector-curvature="0" /></g><g
           id="g148"
           transform="translate(371.9557,384.2176)"><path
             d="m 0,0 0,0.452 c 0,3.086 -2.483,5.587 -5.547,5.587 -3.063,0 -5.547,-2.501 -5.547,-5.587 l 0,-11.212"
             style="fill:none;stroke:#231f20;stroke-width:0.986;stroke-linecap:butt;stroke-linejoin:miter;stroke-miterlimit:2;stroke-opacity:1;stroke-dasharray:none"
             id="path150"
             inkscape:connector-curvature="0" /></g><g
           id="g152"
           transform="translate(369.6706,384.8734)"><path
             d="m 0,0 c -0.045,1.811 -1.524,3.265 -3.343,3.265 -1.847,0 -3.344,-1.5 -3.344,-3.351 l -0.007,-4.759"
             style="fill:none;stroke:#231f20;stroke-width:0.986;stroke-linecap:butt;stroke-linejoin:miter;stroke-miterlimit:2;stroke-opacity:1;stroke-dasharray:none"
             id="path154"
             inkscape:connector-curvature="0" /></g><g
           id="g156"
           transform="translate(372.4284,388.6982)"><path
             d="m 0,0 1.161,-0.15 c 0,0 -0.551,-0.828 -0.563,-0.897 0,0 -0.481,0.93 -0.598,1.047"
             style="fill:#231f20;fill-opacity:1;fill-rule:nonzero;stroke:none"
             id="path158"
             inkscape:connector-curvature="0" /></g><g
           id="g160"
           transform="translate(362.4735,380.1693)"><path
             d="m 0,0 0,-0.827 c 0,0 0.462,0.317 0.858,0.497 L 0,0 z"
             style="fill:#231f20;fill-opacity:1;fill-rule:nonzero;stroke:none"
             id="path162"
             inkscape:connector-curvature="0" /></g><g
           id="g164"
           transform="translate(369.6637,373.2081)"><path
             d="m 0,0 c 0,-1.809 -1.467,-3.275 -3.276,-3.275 -1.809,0 -3.275,1.466 -3.275,3.275 0,1.809 1.466,3.276 3.275,3.276 C -1.467,3.276 0,1.809 0,0 z"
             style="fill:none;stroke:#231f20;stroke-width:1.01699996;stroke-linecap:butt;stroke-linejoin:miter;stroke-miterlimit:2;stroke-opacity:1;stroke-dasharray:none"
             id="path166"
             inkscape:connector-curvature="0" /></g><g
           id="g168"
           transform="translate(382.9255,373.2332)"><path
             d="m 0,0 c 0,-1.809 -1.467,-3.275 -3.276,-3.275 -1.809,0 -3.275,1.466 -3.275,3.275 0,1.809 1.466,3.276 3.275,3.276 C -1.467,3.276 0,1.809 0,0 z"
             style="fill:none;stroke:#231f20;stroke-width:1.01699996;stroke-linecap:butt;stroke-linejoin:miter;stroke-miterlimit:2;stroke-opacity:1;stroke-dasharray:none"
             id="path170"
             inkscape:connector-curvature="0" /></g><g
           id="g172"
           transform="translate(382.9492,384.808)"><path
             d="m 0,0 c 0,-1.809 -1.467,-3.275 -3.276,-3.275 -1.809,0 -3.275,1.466 -3.275,3.275 0,1.809 1.466,3.276 3.275,3.276 C -1.467,3.276 0,1.809 0,0 z"
             style="fill:none;stroke:#231f20;stroke-width:1.01699996;stroke-linecap:butt;stroke-linejoin:miter;stroke-miterlimit:2;stroke-opacity:1;stroke-dasharray:none"
             id="path174"
             inkscape:connector-curvature="0" /></g><g
           id="g176"
           transform="translate(379.6736,379.7475)"><path
             d="m 0,0 c 2.795,0 5.061,2.266 5.061,5.061 0,2.794 -2.266,5.06 -5.061,5.06 -2.795,0 -5.061,-2.266 -5.061,-5.06 C -5.061,2.266 -2.795,0 0,0 m -6.061,5.061 c 0,3.347 2.713,6.061 6.061,6.061 3.348,0 6.062,-2.714 6.062,-6.061 0,-3.348 -2.714,-6.062 -6.062,-6.062 -3.348,0 -6.061,2.714 -6.061,6.062"
             style="fill:#231f20;fill-opacity:1;fill-rule:nonzero;stroke:none"
             id="path178"
             inkscape:connector-curvature="0" /></g><g
           id="g180"
           transform="translate(372.9893,388.5406)"><path
             d="m 0,0 c 1.338,2.319 3.844,3.88 6.713,3.88 4.278,0 7.747,-3.468 7.747,-7.746 0,-2.276 -0.982,-4.321 -2.544,-5.738 1.572,-1.418 2.561,-3.471 2.561,-5.754 0,-4.278 -3.468,-7.746 -7.746,-7.746 -2.801,0 -5.255,1.487 -6.615,3.715 -1.374,-2.241 -3.845,-3.736 -6.666,-3.736 -4.316,0 -7.814,3.499 -7.814,7.814 0,0.24 -0.01,3.273 0.012,3.508 l 0,2.622"
             style="fill:none;stroke:#231f20;stroke-width:0.986;stroke-linecap:butt;stroke-linejoin:miter;stroke-miterlimit:2;stroke-opacity:1;stroke-dasharray:none"
             id="path182"
             inkscape:connector-curvature="0" /></g><g
           id="g184"
           transform="translate(371.9571,384.6743)"><path
             d="m 0,0 c 0,-0.029 0,-0.059 0.001,-0.088 0.024,-2.248 1.008,-4.266 2.56,-5.666 -0.536,-0.485 -1,-1.045 -1.383,-1.663 -1.367,2.269 -3.854,3.786 -6.696,3.786 -1.35,0 -2.62,-0.342 -3.728,-0.945"
             style="fill:none;stroke:#231f20;stroke-width:1.02400005;stroke-linecap:butt;stroke-linejoin:miter;stroke-miterlimit:2;stroke-opacity:1;stroke-dasharray:none"
             id="path186"
             inkscape:connector-curvature="0" /></g><g
           id="g188"
           transform="translate(366.4008,368.16)"><path
             d="m 0,0 c 2.795,0 5.061,2.266 5.061,5.061 0,2.795 -2.266,5.06 -5.061,5.06 -2.795,0 -5.061,-2.265 -5.061,-5.06 C -5.061,2.266 -2.795,0 0,0 m -6.061,5.061 c 0,3.347 2.713,6.061 6.061,6.061 3.348,0 6.062,-2.714 6.062,-6.061 C 6.062,1.713 3.348,-1 0,-1 -3.348,-1 -6.061,1.713 -6.061,5.061"
             style="fill:#f9a91f;fill-opacity:1;fill-rule:nonzero;stroke:none"
             id="path190"
             inkscape:connector-curvature="0" /></g><g
           id="g192"
           transform="translate(361.3428,373.1386)"><path
             d="m 0,0 c 2.524,0.732 4.373,3.043 4.373,5.803 0,3.348 -2.714,6.061 -6.061,6.061 -3.348,0 -6.062,-2.713 -6.062,-6.061 0,-3.348 2.714,-6.061 6.062,-6.061 0.222,0 0.477,0.023 0.694,0.047 0,0 -0.005,0.426 -0.005,0.497 0,0.145 0.04,0.519 0.04,0.519 -0.005,-0.001 -0.5,-0.062 -0.729,-0.062 -2.795,0 -5.061,2.266 -5.061,5.06 0,2.795 2.266,5.061 5.061,5.061 2.795,0 5.06,-2.266 5.06,-5.061 0,-2.163 -1.365,-4.01 -3.275,-4.734 0,0 -0.056,-0.286 -0.075,-0.488 C -0.005,0.299 0,0 0,0"
             style="fill:#0b8ed8;fill-opacity:1;fill-rule:nonzero;stroke:none"
             id="path194"
             inkscape:connector-curvature="0" /></g><g
           id="g196"
           transform="translate(372.9893,385.1049)"><path
             d="m 0,0 c -3.263,0 -5.926,-2.612 -6.059,-5.842 0,0 0.294,-0.034 0.502,-0.07 0.299,-0.053 0.492,-0.106 0.492,-0.106 0.036,2.765 2.292,5.017 5.065,5.017 2.795,0 5.061,-2.266 5.061,-5.06 0,-2.795 -2.266,-5.061 -5.061,-5.061 -2.437,0 -4.478,1.736 -4.959,4.03 0,0 -0.235,0.083 -0.502,0.141 -0.303,0.066 -0.55,0.093 -0.55,0.093 0.397,-2.965 2.938,-5.265 6.011,-5.265 3.347,0 6.061,2.714 6.061,6.062 C 6.061,-2.714 3.347,0 0,0"
             style="fill:#231f20;fill-opacity:1;fill-rule:nonzero;stroke:none"
             id="path198"
             inkscape:connector-curvature="0" /></g><g
           id="g200"
           transform="translate(379.65,379.2945)"><path
             d="m 0,0 c -0.199,0 -0.413,-0.004 -0.607,-0.023 0,0 0.014,-0.33 -0.005,-0.589 -0.017,-0.256 -0.044,-0.432 -0.044,-0.432 0.212,0.027 0.438,0.043 0.656,0.043 2.795,0 5.061,-2.266 5.061,-5.06 0,-2.795 -2.266,-5.061 -5.061,-5.061 -2.795,0 -5.061,2.266 -5.061,5.061 0,2.178 1.427,4.063 3.358,4.776 0,0 0.035,0.123 0.071,0.417 0.033,0.275 0.03,0.656 0.03,0.656 -0.446,-0.125 -0.905,-0.311 -1.304,-0.529 -1.88,-1.029 -3.155,-3.026 -3.155,-5.32 0,-3.348 2.713,-6.062 6.061,-6.062 3.347,0 6.061,2.714 6.061,6.062 C 6.061,-2.714 3.347,0 0,0"
             style="fill:#009e59;fill-opacity:1;fill-rule:nonzero;stroke:none"
             id="path202"
             inkscape:connector-curvature="0" /></g><g
           id="g204"
           transform="translate(386.3826,385.0252)"><path
             d="m 0,0 c -3.111,0 -5.674,-2.344 -6.022,-5.362 -0.015,-0.132 -0.026,-0.265 -0.032,-0.4 0,0 0.215,-0.031 0.518,-0.088 0.279,-0.053 0.476,-0.11 0.476,-0.11 0.003,0.14 0.012,0.279 0.026,0.416 0.259,2.552 2.414,4.543 5.034,4.543 2.795,0 5.061,-2.266 5.061,-5.06 0,-2.795 -2.266,-5.061 -5.061,-5.061 -2.403,0 -4.415,1.675 -4.932,3.921 -0.011,0.051 -0.022,0.103 -0.033,0.154 0,0 -0.29,0.109 -0.492,0.154 -0.431,0.097 -0.563,0.119 -0.563,0.119 0.008,-0.07 0.019,-0.151 0.03,-0.22 0.448,-2.905 2.96,-5.129 5.99,-5.129 3.348,0 6.062,2.714 6.062,6.062 C 6.062,-2.714 3.348,0 0,0"
             style="fill:#ee2049;fill-opacity:1;fill-rule:nonzero;stroke:none"
             id="path206"
             inkscape:connector-curvature="0" /></g><g
           id="g208"
           transform="translate(315.3087,369.6768)"><path
             d="m 0,0.042 0,0 -2.05,-4.374 1.032,0 1.01,2.033 0,-0.006 1.017,-2.05 1.032,0 z"
             style="fill:#000000;fill-opacity:1;fill-rule:nonzero;stroke:none"
             id="path210"
             inkscape:connector-curvature="0"
             sodipodi:nodetypes="ccccccccc" /></g><g
           id="g212"
           transform="translate(312.0002,365.3687)"><path
             d="m 0,0 3.285,7.04 0,2.393 L -1.126,0 0,0 z"
             style="fill:#231f20;fill-opacity:1;fill-rule:nonzero;stroke:none"
             id="path214"
             inkscape:connector-curvature="0" /></g><g
           id="g216"
           transform="translate(315.3087,374.7783)"><path
             d="M -0.026625,0.02965 -0.03675825,-2.3696 3.285,-9.433 l 1.127,0 z"
             style="fill:#231f20;fill-opacity:1;fill-rule:nonzero;stroke:none"
             id="path218"
             inkscape:connector-curvature="0"
             sodipodi:nodetypes="ccccc" /></g><g
           id="g220"
           transform="translate(309.4917,365.3783)"><path
             d="m 0,0 -1.021,0 12.593,27.912 1.125,0 L 0,0 z"
             style="fill:#000000;fill-opacity:1;fill-rule:nonzero;stroke:none"
             id="path222"
             inkscape:connector-curvature="0" /></g><g
           id="g224"
           transform="translate(320.9113,365.3844)"><path
             d="m 0,0 1.094,-0.005 -12.187,27.911 -1.121,0 L 0,0 z"
             style="fill:#000000;fill-opacity:1;fill-rule:nonzero;stroke:none"
             id="path226"
             inkscape:connector-curvature="0" /></g><g
           id="g228"
           transform="translate(309.5716,387.2264)"><path
             d="M 0,0 3.344,-7.896 0.27,-14.185"
             style="fill:none;stroke:#231f20;stroke-width:0.986;stroke-linecap:butt;stroke-linejoin:miter;stroke-miterlimit:8;stroke-opacity:1;stroke-dasharray:none"
             id="path230"
             inkscape:connector-curvature="0" /></g><g
           id="g232"
           transform="translate(315.2768,388.9477)"><path
             d="m 0,-0.042 0,0 2.05,4.374 -1.032,0 -1.01,-2.033 0,0.006 -1.017,2.05 -1.032,0 z"
             style="fill:#000000;fill-opacity:1;fill-rule:nonzero;stroke:none"
             id="path234"
             inkscape:connector-curvature="0"
             sodipodi:nodetypes="ccccccccc" /></g><g
           id="g236"
           transform="translate(318.5852,393.256)"><path
             d="m 0,0 -3.285,-7.04 0,-2.393 L 1.126,0 z"
             style="fill:#231f20;fill-opacity:1;fill-rule:nonzero;stroke:none"
             id="path238"
             inkscape:connector-curvature="0"
             sodipodi:nodetypes="ccccc" /></g><g
           id="g240"
           transform="translate(315.2768,383.8464)"><path
             d="M 0.03223883,-0.01898058 0.03665825,2.3607612 -3.285,9.433 l -1.127,0 z"
             style="fill:#231f20;fill-opacity:1;fill-rule:nonzero;stroke:none"
             id="path242"
             inkscape:connector-curvature="0"
             sodipodi:nodetypes="ccccc" /></g></g></g></g></svg>