<?xml version="1.0" encoding="UTF-8"?>
<svg width="212pt" version="1.1" xmlns="http://www.w3.org/2000/svg" height="263pt" viewBox="0 0 212 263" xmlns:xlink="http://www.w3.org/1999/xlink">
 <defs>
  <clipPath id="Clip0">
   <path d="M0 0 L210 0 L210 260 L0 260 L0 0 Z" transform="translate(1, 1.99207)"/>
  </clipPath>
  <clipPath id="Clip1">
   <path d="M0 0 L210 0 L210 260 L0 260 L0 0 Z" transform="translate(1, 1.99207)"/>
  </clipPath>
 </defs>
 <g id="Background">
  <g id="Layer_1" clip-path="url(#Clip0)">
   <g id="Group16" clip-path="url(#Clip1)">
    <path style="fill:#161413; fill-rule:evenodd;stroke:none;" d="M29.8313 10.7207 C29.6851 11.7832 28.8863 12.5021 28.119 13.1512 C26.9421 14.1381 25.22 14.8436 23.7492 15.3843 C23.49 11.2725 26.9855 8.74229 27.8251 5.07889 C30.4024 5.92182 29.5819 8.74963 29.8313 10.7207 L29.8313 10.7207 Z M6.57827 12.975 C7.85424 10.1199 9.71286 7.23032 10.1997 3.9319 C10.2173 3.82394 10.2173 3.73443 10.2173 3.63708 C10.2076 3.59371 10.19 3.55587 10.1632 3.51804 C10.1372 3.47744 10.0965 3.4313 10.071 3.39623 C9.98545 3.26382 9.90166 3.16647 9.81602 3.04189 C9.78088 3.00406 9.7443 2.96069 9.70916 2.92009 C9.66426 2.8984 9.62907 2.87164 9.59249 2.84442 C9.45969 2.77937 9.31574 2.76599 9.19126 2.68478 C9.13434 2.64972 9.07603 2.60635 9.00015 2.5819 C8.92422 2.57913 8.83493 2.57359 8.75484 2.59527 C8.71965 2.60589 8.6655 2.59527 8.6396 2.61419 C5.49951 4.09015 3.00174 6.40996 1.51337 9.41037 C0 11.7463 1.18663 14.4496 2.61854 16.6988 C3.12716 17.5962 6.18582 17.6151 7.68532 16.9747 C7.9255 16.8667 9.78134 15.7742 10.4552 15.2039 C12.4915 13.4871 14.9541 12.0924 16.734 9.83204 C18.0627 7.57449 16.8358 5.13101 15.8556 2.98699 C18.6731 3.12771 21.3727 3.08434 23.8158 4.44957 C24.0519 4.94415 24.1629 4.76607 24.1902 5.28237 C22.8125 8.76717 18.9323 10.5975 18.7625 14.9552 C18.8074 19.6106 20.635 19.4916 21.3672 19.2941 C25.9026 17.3125 31.5539 14.7333 33.4926 10.2621 C33.8994 6.64206 30.8037 4.1875 28.1273 2.67648 L28.1273 2.60635 C30.9287 1.74126 43.4474 1.40352 40.4642 5.12044 C38.4251 7.04254 36.013 8.68644 35.21 11.6735 C34.9333 13.5333 35.3526 15.4526 36.3559 17.0181 C36.4494 17.1694 36.6734 17.2857 36.7979 17.3157 C36.9229 17.3429 37.039 17.3618 37.1682 17.4024 C37.301 17.4375 37.4218 17.4297 37.556 17.4107 C37.5833 17.4107 37.6185 17.3812 37.6494 17.3673 C37.6671 17.3673 37.6943 17.3673 37.7078 17.3618 C37.7429 17.3268 37.7957 17.2861 37.8327 17.3023 C38.5186 17.6239 39.1263 16.9346 39.8163 17.0375 C43.6927 15.4859 47.1447 13.7206 49.8549 10.525 C50.9083 8.61124 50.8907 6.04549 49.5798 4.01772 C48.0626 2.36597 45.7342 3.64446 43.87 4.03109 C43.7275 3.25505 43.1878 2.50623 42.5061 2.20356 C37.4486 0.52459 31.4136 0.84387 25.978 1.07087 C25.9605 1.07087 25.9605 1.04365 25.9605 1.04365 C25.9415 0.986897 25.9253 0.951833 25.8938 0.916766 C25.8841 0.897849 25.8665 0.876163 25.8573 0.857247 C25.8262 0.800498 25.7638 0.738209 25.6971 0.727602 C25.4963 0.711451 25.3001 0.746518 25.0992 0.738209 C25.0909 0.738209 25.0775 0.710989 25.0775 0.710989 C25.0057 0.710989 24.9742 0.640858 24.9298 0.594721 C24.908 0.575805 24.8632 0.575805 24.8456 0.594721 C24.7655 0.667622 24.7016 0.746057 24.6313 0.827257 C24.2028 1.30571 23.7298 1.72465 23.4627 2.31937 L14.7037 1.29741 L13.6693 0.400019 C12.902 0 11.9472 0.754361 11.279 0.897388 C10.601 0.959676 10.4941 1.75417 10.4547 2.29214 C10.2173 3.77642 11.9394 2.74107 12.3407 3.85485 C12.635 4.76607 12.7067 5.67177 12.7419 6.65821 C13.0455 10.2076 9.58417 11.9867 7.10403 13.3976 C7.02815 13.4437 6.91703 13.3976 6.84115 13.3408 C6.82774 13.3326 6.8018 13.3326 6.78284 13.3275 C6.73794 13.3113 6.69489 13.3003 6.65419 13.2735 C6.63658 13.2573 6.59588 13.2652 6.58659 13.2385 C6.57827 13.214 6.59635 13.1817 6.56902 13.1545 C6.56069 13.1411 6.55145 13.1411 6.55145 13.1356 C6.51996 13.0806 6.56069 13.0239 6.57827 12.975 L6.57827 12.975 Z M46.0382 10.3123 C44.4776 11.9964 42.2784 13.4645 40.0181 14.2027 C39.6872 11.272 41.8772 8.47419 43.3887 6.08426 C44.6549 5.77605 45.5472 6.37631 46.2661 6.70617 C47.215 7.17636 46.8506 9.24978 46.0382 10.3123 L46.0382 10.3123 Z" transform="translate(160.092, 169.263)"/>
    <path style="fill:#161413; fill-rule:evenodd;stroke:none;" d="M0.404952 35.8166 L0.423927 35.8328 C0.864515 36.6924 1.4259 37.4873 2.0877 38.2038 C3.34468 39.5151 5.11538 38.2172 6.75181 38.4392 C6.75181 38.4392 29.033 35.3059 32.0741 35.149 C34.0456 34.9354 37.3727 34.1354 39.7807 33.2052 C41.0469 32.9699 42.5455 33.2052 43.8117 32.9621 C44.2051 32.8675 44.293 32.9515 44.6822 32.8541 C45.2126 32.6677 45.8726 32.108 45.5786 31.7431 C45.1853 31.2808 44.486 30.9347 43.8487 30.7022 C43.8001 30.6588 43.4553 30.4808 43.3618 30.4808 C43.2156 30.3862 43.0624 30.3401 42.9213 30.2482 C42.7246 30.2049 42.5279 30.2104 42.3316 30.1158 C41.2565 29.851 41.3949 29.8588 40.3166 29.5912 C32.2708 28.3907 21.219 29.0804 12.5984 30.0807 C14.8462 27.5911 17.5976 24.6198 20.3809 22.2031 C24.1625 18.3155 30.0049 14.0039 28.3101 7.30736 C27.7978 5.85817 24.0824 0 9.52586 6.41781 C7.78201 7.35306 5.7795 7.96667 4.52668 9.66457 C4.25408 10.0295 4.11987 10.6376 4.47669 11.0298 C4.54426 11.1327 4.57989 11.3731 4.6109 11.5595 C4.7141 12.1676 5.22645 12.0218 5.52078 12.4463 C5.5925 12.5492 5.6823 12.6248 5.77996 12.6949 C6.53804 13.3408 7.61726 14.4713 8.7141 13.7141 C12.6572 7.14774 22.4191 4.90635 24.3457 8.04514 C24.7743 8.87237 24.3457 9.70519 23.851 10.5541 C17.5721 18.5753 9.03529 25.3013 2.77404 32.4384 C1.68136 32.6682 1.21347 33.309 0.717344 33.9983 C0.695592 34.0279 0.650701 34.0551 0.633115 34.0823 C0.60581 34.1363 0.574801 34.1903 0.53963 34.2337 C0.397085 34.439 0.25917 34.5931 0.116626 34.7933 C0.0800647 34.8394 0.0800647 34.9096 0.0448919 34.9718 C0 35.053 0.00971887 35.1638 0.0448919 35.2556 C0.0546108 35.2828 0.0800647 35.3151 0.10737 35.3396 C0.213815 35.5029 0.311466 35.6542 0.404952 35.8166 L0.404952 35.8166 Z" transform="translate(131.189, 160.961)"/>
    <path style="fill:#161413; fill-rule:evenodd;stroke:none;" d="M6.98787 13.3252 C6.7532 13.101 6.80087 12.771 6.77174 12.4924 C7.91764 9.0025 9.87808 5.7742 11.198 2.42226 C11.2077 2.39504 11.2299 2.36828 11.2331 2.35213 C11.2669 2.26308 11.2535 2.17357 11.2378 2.08453 C11.2378 2.06561 11.2294 2.04946 11.2294 2.03054 C11.2151 1.95211 11.1753 1.89259 11.1711 1.81692 C11.1549 1.70342 11.1549 1.59546 11.1711 1.48427 C11.1711 1.48427 11.1711 1.47088 11.1753 1.46535 C11.1841 1.43582 11.1711 1.4169 11.1753 1.38968 C11.1938 1.33847 11.2294 1.30064 11.247 1.25727 C11.2577 1.23004 11.2665 1.18714 11.247 1.1493 C11.2327 1.12485 11.2017 1.10086 11.1841 1.07087 C11.1841 1.06256 11.1841 1.04365 11.1753 1.0358 C11.142 0.989666 11.1151 0.946756 11.0707 0.913996 C10.9967 0.865551 10.9365 0.81388 10.8828 0.754361 C10.763 0.65147 10.6819 0.500139 10.5353 0.430008 C10.4709 0.40048 10.3927 0.386638 10.3483 0.332657 C10.2654 0.32712 10.1789 0.354341 10.1118 0.31374 C9.90444 0.189167 9.79522 0 9.5592 0.286518 C9.54949 0.29713 9.51153 0.286518 9.49026 0.286518 C9.49442 0.278213 9.4805 0.259297 9.47587 0.259297 C9.42959 0.227 9.38011 0.227 9.32966 0.199779 C9.29863 0.186398 9.29355 0.145797 9.23801 0.186398 C9.17554 0.234844 9.12416 0.286518 9.06585 0.337732 L7.68579 1.31909 C3.23731 6.55578 0 18.3289 8.18792 14.8251 C11.1512 13.3492 13.4343 11.278 15.9162 9.24516 C15.1757 11.846 14.5496 13.9817 13.7179 16.6121 C12.3179 21.7187 10.5491 27.2312 11.6168 32.2026 C12.0921 32.8758 12.0736 34.3896 13.0843 34.3033 C13.6638 33.7169 14.9282 34.1653 14.8662 32.8947 C14.0567 31.213 16.0792 30.7373 16.0792 29.1506 C17.3505 21.5295 19.8214 13.298 21.4306 5.94167 L22.4233 4.52524 C22.4098 3.66568 21.4181 3.40316 21.0672 2.60866 C19.8339 2.91132 18.4001 2.07622 17.4078 3.4982 C17.4555 3.85254 17.6865 4.26317 17.5129 4.56076 C14.9708 8.0239 11.5349 10.9329 7.79547 13.3413 C7.75057 13.3685 7.69966 13.3685 7.65522 13.3953 C7.62142 13.4225 7.57236 13.4304 7.5386 13.4387 C7.48492 13.4659 7.42059 13.4493 7.36691 13.417 C7.32016 13.3847 7.22851 13.3847 7.18453 13.3685 C7.12807 13.3413 7.06976 13.3496 7.01515 13.3413 C7.00544 13.3413 6.99203 13.3335 6.98787 13.3252 L6.98787 13.3252 Z" transform="translate(30.8383, 171.644)"/>
    <path style="fill:#161413; fill-rule:evenodd;stroke:none;" d="M30.7787 29.4745 C30.3728 30.9666 30.2257 32.1944 29.3579 33.4078 C26.8699 37.1602 22.4075 40.3663 19.0045 43.2131 C16.3383 45.454 12.3846 49.6229 9.94934 52.0856 C9.71748 52.4152 9.38335 52.2453 9.46524 51.6581 C9.46524 51.6498 9.47865 51.6498 9.48374 51.6498 C9.47911 51.6092 9.49719 51.5658 9.50413 51.5252 C9.51708 51.4333 9.51708 51.3466 9.50413 51.2579 C9.50413 51.2418 9.4657 51.2228 9.46154 51.2012 C9.43934 51.1338 9.41202 51.0714 9.36527 51.0225 C9.34353 50.993 9.34769 50.9468 9.36527 50.9117 C12.9997 44.3642 18.6861 38.649 22.7384 32.0661 C23.8334 30.4249 24.6914 29.0002 24.1384 27.4458 C22.9703 23.3635 13.0182 26.8861 11.1188 27.5159 C11.0791 27.5293 11.0383 27.5076 10.9865 27.5348 C10.9689 27.5593 10.918 27.5593 10.8995 27.5348 C10.8685 27.5131 10.837 27.4887 10.8032 27.4726 C10.538 27.329 10.1414 28.0239 9.67998 27.9782 C9.6712 27.9782 9.66241 27.9621 9.66241 27.9621 C9.66241 27.9348 9.64895 27.9215 9.64017 27.8998 C9.63601 27.8753 9.61797 27.8592 9.61289 27.8269 C9.59712 27.8107 9.56614 27.8107 9.53557 27.8107 C9.43472 27.8107 9.33428 27.8107 9.23385 27.819 C9.08204 27.838 8.933 27.8596 8.79465 27.838 C8.43781 27.7757 8.80344 28.0867 8.54333 28.1651 L8.53454 28.1757 C8.26426 28.1757 8.01946 28.0972 7.74872 28.1485 C7.54785 28.1836 7.34744 28.1295 7.14754 28.1836 C6.89529 28.2486 6.64305 28.2809 6.39316 28.2998 C5.95905 28.3349 5.50829 28.351 5.07325 28.2998 C4.73495 28.2647 4.43319 28.1997 4.10182 28.1485 C3.86301 28.0972 3.66262 28.0133 3.44834 27.9348 C3.30996 27.862 3.20954 27.7997 3.09569 27.6996 C3.02673 27.6673 2.94157 27.6862 2.87724 27.6511 C1.82252 27.0619 0.647459 25.7373 0.415597 24.3014 C0 19.1972 4.07637 15.6722 6.85918 12.4523 C11.2836 8.1351 16.5396 4.63691 21.779 1.27618 C21.8975 1.19498 22.0109 1.13823 22.1382 1.07087 C22.2539 1.00858 22.377 0.973515 22.5038 0.951833 C22.6177 0.924608 22.718 0.903389 22.8291 0.876163 C22.8921 0.848943 22.9296 0.803267 22.9925 0.773277 C23.0569 0.759895 23.1175 0.738209 23.1795 0.724832 C23.3313 0.697612 23.4581 0.627481 23.5964 0.586878 C23.9329 0.519517 24.2629 0.662544 24.5869 0.559658 C25.0663 0.408323 25.5541 0.448925 26.0424 0.400019 C26.1433 0.386638 26.2437 0.29713 26.3589 0.27037 C26.4728 0.262065 26.5732 0.251453 26.6871 0.221925 C26.9258 0.18686 27.1128 0.0650547 27.3493 0.021685 C27.4146 0.00830488 27.4761 0 27.5414 0.021685 C27.6011 0.0489065 27.664 0.0839715 27.7371 0.10012 C27.8802 0.110732 28.0158 0.0839715 28.1542 0.137953 L28.1542 0.159638 C28.1676 0.173018 28.1902 0.159638 28.1902 0.167943 C28.1902 0.159638 28.168 0.17348 28.1542 0.138415 C28.1902 0.222386 28.23 0.298053 28.2434 0.359878 C28.3166 0.973515 28.2902 1.57931 28.3545 2.19018 C28.3545 2.2414 28.368 2.29815 28.3818 2.36043 C28.455 2.59297 28.5688 2.78767 28.647 3.02805 C28.647 3.06312 28.6692 3.10649 28.7053 3.14432 C28.7211 3.16047 28.7211 3.21445 28.7345 3.24167 L28.7567 3.24167 L28.7567 3.26889 C28.7697 3.2772 28.7831 3.29335 28.8053 3.29335 C29.8887 3.35563 29.1482 4.72088 29.3537 5.44522 C29.9207 6.87784 29.2223 7.46472 26.3728 10.0088 C20.1935 12.8772 13.5398 15.4859 7.99121 21.1493 C7.67464 21.4736 7.00359 22.1201 6.72499 22.7632 C10.0401 23.2661 13.9965 22.0172 17.288 21.8386 C21.2172 20.9707 26.8338 20.9274 29.5676 24.6959 C30.3594 25.8531 31.0087 27.2238 30.756 28.7349 C30.7518 28.77 30.8171 28.7783 30.8435 28.8105 C30.8611 28.8267 30.8389 28.8673 30.8569 28.8945 C30.8833 28.9379 30.8921 28.9757 30.8833 29.0191 C30.8833 29.0408 30.8745 29.0597 30.8657 29.0814 C30.8611 29.1437 30.8611 29.1921 30.8384 29.241 C30.8102 29.3042 30.7963 29.4067 30.7787 29.4745 L30.7787 29.4745 Z" transform="translate(1, 152.275)"/>
    <path style="fill:#161413; fill-rule:evenodd;stroke:none;" d="M26.0359 11.5193 C28.6424 9.47818 31.8779 7.9722 33.0464 4.26317 C33.2079 3.43315 33.7693 0 31.2091 0.332195 C25.5476 0.883549 21.257 4.87681 21.3264 11.8838 C21.3264 11.8838 20.2985 12.7595 19.6654 12.8084 C18.6727 12.8707 18.0933 12.0162 17.861 11.6079 C16.5818 8.7584 15.8232 4.43019 12.8775 3.19507 C10.8374 3.21676 8.48502 4.39559 7.02907 5.91213 C6.62317 4.3739 5.33845 2.32998 3.65707 2.02178 C3.30719 1.95949 3.1378 2.07576 2.76293 2.45455 C2.7074 2.50577 2.59401 2.56528 2.49358 2.60035 C2.35752 2.60035 2.14787 2.78675 2.18767 2.94638 C3.22897 6.96642 0 11.4838 0.740483 15.6635 C1.68229 16.6582 1.30649 18.4562 2.85827 18.1803 C3.51638 18.2154 4.17911 17.8666 4.62712 17.5556 C6.76341 15.1038 7.38078 11.7731 7.45666 8.39623 C8.46282 7.19339 10.4584 5.48446 11.4035 6.08472 C12.8506 9.95339 12.5498 15.7142 16.9029 17.1039 C19.0337 17.6635 20.4281 16.3417 21.7795 15.2224 C22.259 16.3929 22.8208 17.085 23.9759 17.2174 C26.1229 17.7337 29.0312 15.6897 31.6238 13.5545 C33.2241 12.2137 35.0888 10.5403 36.7132 9.25855 C36.0625 12.1053 36.5165 14.7545 37.8235 17.2091 C38.104 17.9201 39.8885 17.7794 40.7984 16.863 C41.9929 15.1384 43.6974 13.9623 44.9405 12.6484 C45.8378 11.7131 46.6855 10.5477 47.6658 9.9179 C47.4439 13.297 43.6798 24.0459 43.5849 27.5551 C43.4831 31.045 43.7464 34.9003 45.9184 37.5011 C46.5149 37.5011 47.1535 37.4172 47.7024 36.8603 L47.6927 36.8469 C47.6829 36.7984 47.6829 36.7551 47.6478 36.7011 C47.6381 36.6928 47.6478 36.6605 47.6478 36.6471 C47.6381 36.6254 47.6381 36.6065 47.6302 36.5849 C47.5678 36.4658 47.4786 36.3712 47.4161 36.2522 C47.4161 36.2466 47.4161 36.2333 47.4161 36.225 C47.3889 36.2033 47.3796 36.1682 47.3754 36.141 C47.3537 36.0653 47.3537 35.9814 47.3754 35.9057 C47.3889 35.8517 47.3889 35.7922 47.4064 35.7488 C47.4337 35.7138 47.4513 35.6815 47.4688 35.6598 C47.4864 35.6515 47.4961 35.6247 47.5137 35.6164 C47.5234 35.6081 47.5137 35.5892 47.5137 35.5703 C47.461 32.7886 49.1067 29.8985 48.9689 26.9138 C49.5571 22.0559 53.5801 9.79331 52.0722 5.33264 C52.0722 5.31653 52.0939 5.2676 52.117 5.22975 C52.1697 5.17301 52.1753 5.1029 52.2326 5.03504 C52.2423 5.02678 52.2502 5.00001 52.2502 4.9917 C52.2775 4.78638 52.2146 4.59445 52.1212 4.41312 C52.0939 4.35914 52.0181 4.31577 51.9695 4.26179 C51.9344 4.22119 51.9168 4.17274 51.8678 4.14552 C51.8003 4.1183 51.7554 4.08323 51.6985 4.03986 C51.6264 3.99372 51.5815 3.92359 51.5288 3.85347 C51.4747 3.76442 51.4474 3.68321 51.3989 3.59924 C51.3679 3.5508 51.3055 3.51527 51.2528 3.53188 C51.1728 3.5591 51.1006 3.54249 51.0206 3.5508 C49.9317 3.60755 48.7183 2.58005 47.6566 3.70213 C47.2238 7.91686 44.0269 9.97924 41.1811 12.096 C40.6021 12.5501 40.7813 10.9228 40.7484 10.4143 C40.7225 9.90866 40.8516 7.65942 41.021 7.05685 C41.1811 6.49444 41.6638 4.48325 41.5254 3.7778 C41.4981 3.62646 41.4847 3.49682 41.4222 3.37224 C41.3871 3.31826 41.3204 3.30211 41.2705 3.29104 C41.2487 3.27489 41.2177 3.26151 41.2079 3.21537 C41.1807 3.18584 41.1413 3.18584 41.1048 3.18584 C40.9502 3.15862 40.7887 3.15078 40.6369 3.20199 C40.5702 3.21537 40.4943 3.26151 40.4323 3.26151 C40.2004 3.29104 39.9862 3.30211 39.7585 3.3561 C39.6553 3.38055 39.5539 3.44284 39.4507 3.48851 C39.1119 3.62646 38.7551 3.62093 38.408 3.60755 C37.0251 3.5591 38.0377 5.03504 37.5065 5.68101 C34.3853 8.65459 28.9955 12.9584 27.4789 13.1452 C26.0359 13.1817 26.0359 11.5193 26.0359 11.5193 L26.0359 11.5193 Z M29.3227 3.09818 C29.3227 3.09818 31.8779 5.9449 25.2177 10.2838 C25.2177 10.2838 25.6619 4.20919 29.3227 3.09818 L29.3227 3.09818 Z" transform="translate(75.0582, 169.714)"/>
    <path style="fill:#161413; fill-rule:evenodd;stroke:none;" d="M20.1893 19.5289 C20.5086 21.3403 20.604 23.1623 21.1621 24.8869 C20.5859 25.4572 19.9616 25.5006 19.3308 25.4817 C18.8514 24.8436 17.7656 24.1949 16.9826 23.722 C13.5615 27.5284 6.62039 32.3918 4.78027 32.3918 C3.53905 32.7973 1.88638 30.6155 1.59389 29.5667 C0 19.8833 13.12 16.8146 15.4863 16.9392 C15.3081 12.1136 16.628 4.68441 19.4447 0.683768 C19.8325 0.0429086 20.486 0.07013 21.0302 0 C23.5918 2.17865 20.8118 17.2931 20.1893 19.5289 L20.1893 19.5289 Z M15.3433 22.8324 C12.4762 21.7915 9.6041 23.6597 7.57467 25.6791 C6.68055 26.8012 5.6078 27.9907 5.59897 29.6263 C9.38288 28.7774 12.8284 25.7493 15.3433 22.8324 L15.3433 22.8324 Z" transform="translate(52.3938, 156.292)"/>
    <path style="fill:#fec133; fill-rule:evenodd;stroke:none;" d="M32.1417 18.4156 C31.3193 25.7068 25.1177 31.3758 17.5879 31.3758 C9.49534 31.3758 2.93695 24.8362 2.93695 16.7694 C2.93695 10.5892 6.78561 5.30683 12.2198 3.17385 C12.367 2.36828 12.4448 1.53825 12.4448 0.692073 C12.4448 0.462306 12.4406 0.229768 12.4272 0 C5.23385 2.20079 0 8.87237 0 16.7694 C0 26.4529 7.87366 34.3065 17.5874 34.3065 C26.5728 34.3065 33.9854 27.5777 35.0402 18.8996 C34.0507 18.8156 33.0825 18.6564 32.1417 18.4156 L32.1417 18.4156 Z" transform="translate(67.8199, 227.685)"/>
    <path style="fill:#fec133; fill-rule:evenodd;stroke:none;" d="M0.00416523 2.94915 C0.25917 2.93578 0.519265 2.9247 0.781212 2.9247 C7.83108 2.9247 13.7142 7.89101 15.1142 14.5063 C16.1027 14.863 17.139 15.1066 18.2122 15.2362 C17.0834 6.63375 9.71378 0 0.781212 0 C0.519727 0 0.25917 0.00830488 0 0.0189167 C0.039801 0.491835 0.0624783 0.96798 0.0624783 1.45705 C0.0624783 1.95949 0.039801 2.45409 0.00416523 2.94915 L0.00416523 2.94915 Z" transform="translate(84.6266, 226.921)"/>
    <path style="fill:#024fa2; fill-rule:evenodd;stroke:none;" d="M18.3039 33.6117 C18.3039 33.106 18.3256 32.6169 18.3682 32.1219 C18.1118 32.1353 17.8507 32.1463 17.5861 32.1463 C9.50043 32.1463 2.9351 25.6012 2.9351 17.5344 C2.9351 9.46987 9.50043 2.9307 17.5861 2.9307 C25.68 2.9307 32.2421 9.47033 32.2421 17.5344 C32.2421 23.7146 28.3916 28.9886 22.9569 31.1271 C22.8097 31.9327 22.7297 32.7572 22.7297 33.6117 C22.7297 33.8387 22.7384 34.074 22.7472 34.3065 C29.9429 32.1057 35.1762 25.4314 35.1762 17.5344 C35.1762 7.8509 27.3007 0 17.5851 0 C7.87089 0 0 7.8509 0 17.5344 C0 27.2178 7.87089 35.0715 17.5851 35.0715 C17.8503 35.0715 18.1062 35.0632 18.3673 35.0526 C18.3307 34.5769 18.3039 34.0929 18.3039 33.6117 L18.3039 33.6117 Z" transform="translate(48.7626, 210.843)"/>
    <path style="fill:#161413; fill-rule:evenodd;stroke:none;" d="M2.89437 15.8826 C3.72232 8.59416 9.9234 2.9307 17.449 2.9307 C25.5416 2.9307 32.1051 9.47033 32.1051 17.5344 C32.1051 23.7146 28.2518 28.9886 22.8254 31.1271 C22.6778 31.9327 22.5894 32.7572 22.5894 33.6117 C22.5894 33.8387 22.5977 34.074 22.6056 34.3065 C29.804 32.1057 35.0388 25.4314 35.0388 17.5344 C35.0388 7.8509 27.1638 0 17.4486 0 C8.4619 0 1.05889 6.72325 0 15.3958 C0.985306 15.4826 1.95812 15.6501 2.89437 15.8826 L2.89437 15.8826 Z" transform="translate(87.0147, 210.843)"/>
    <path style="fill:#161413; fill-rule:evenodd;stroke:none;" d="M18.1488 13.7741 C18.1488 13.2684 18.171 12.7794 18.2113 12.2843 C17.9521 12.2977 17.6967 12.3088 17.431 12.3088 C10.3844 12.3088 4.49752 7.34244 3.09939 0.729905 C2.11362 0.373258 1.07694 0.129648 0 0 C1.13294 8.5997 8.50259 15.2339 17.431 15.2339 C17.6967 15.2339 17.9521 15.2256 18.2113 15.215 C18.1756 14.7393 18.1488 14.2553 18.1488 13.7741 L18.1488 13.7741 Z" transform="translate(87.0327, 230.681)"/>
    <path style="fill:#00ae5a; fill-rule:evenodd;stroke:none;" d="M32.1384 18.4156 C31.3183 25.7068 25.1191 31.3758 17.5819 31.3758 C9.49257 31.3758 2.93695 24.8362 2.93695 16.7694 C2.93695 10.5892 6.78469 5.30683 12.2221 3.17385 C12.3647 2.36828 12.4443 1.53825 12.4443 0.692073 C12.4443 0.462306 12.436 0.229768 12.4267 0 C5.23385 2.20079 0 8.87237 0 16.7694 C0 26.4529 7.8695 34.3065 17.5814 34.3065 C26.5737 34.3065 33.9808 27.5833 35.0383 18.9052 C34.0475 18.8156 33.0807 18.6564 32.1384 18.4156 L32.1384 18.4156 Z" transform="translate(105.935, 227.685)"/>
    <path style="fill:#00ae5a; fill-rule:evenodd;stroke:none;" d="M0.0629411 1.45705 C0.0629411 1.95995 0.0453547 2.45455 0.000462805 2.94915 C0.259632 2.93578 0.51834 2.9247 0.776121 2.9247 C7.832 2.9247 13.7193 7.89101 15.1142 14.5063 C16.1 14.863 17.1343 15.1066 18.2136 15.2362 C17.0816 6.63375 9.71378 0 0.775658 0 C0.517878 0 0.25917 0.00830488 0 0.0189167 C0.0411894 0.491835 0.0629411 0.96798 0.0629411 1.45705 L0.0629411 1.45705 Z" transform="translate(122.741, 226.921)"/>
    <path style="fill:#f15728; fill-rule:evenodd;stroke:none;" d="M17.4555 0 C8.46883 0 1.0575 6.72325 0 15.3958 C0.993639 15.4826 1.95766 15.6501 2.89483 15.8826 C3.72325 8.59416 9.92247 2.9307 17.4555 2.9307 C25.5407 2.9307 32.1056 9.47033 32.1056 17.5344 C32.1056 25.6012 25.5402 32.1463 17.4555 32.1463 C10.3996 32.1463 4.51371 27.175 3.11744 20.5597 C2.13584 20.203 1.09731 19.9594 0.0180493 19.8381 C1.15146 28.4294 8.52345 35.072 17.456 35.072 C27.1642 35.072 35.0416 27.2188 35.0416 17.5349 C35.0416 7.8509 27.1638 0 17.4555 0 L17.4555 0 Z" transform="translate(125.127, 210.843)"/>
    <path style="fill:#fec133; fill-rule:evenodd;stroke:none;" d="M13.2686 1.34908 C11.2077 0 7.75566 0.902465 5.5888 0.997509 C5.51708 1.00212 5.44489 1.00212 5.37452 0.984589 C5.0788 0.920458 4.80251 0.984589 4.50816 0.955522 C4.43781 0.884468 4.40218 0.866474 4.33877 0.784351 C4.32119 0.764973 4.31286 0.728982 4.29527 0.728982 C4.1842 0.711451 4.11617 0.628866 4.00926 0.646397 C3.8843 0.664852 3.75148 0.664852 3.62976 0.711451 C3.59459 0.719755 3.55525 0.728982 3.51869 0.737753 C3.48352 0.755284 3.322 0.801883 3.28266 0.816183 C2.63983 1.05795 1.98496 1.54471 1.86834 2.17127 C0 6.66652 2.84994 11.9023 5.4805 15.681 C7.86673 18.0659 11.1008 19.814 14.4362 19.0135 C15.7705 18.2242 15.9672 16.3366 16.1801 15.2565 C16.0861 11.0243 17.0136 4.41266 13.2686 1.34908 L13.2686 1.34908 Z M11.6538 14.3961 C11.6538 14.4745 11.0966 14.4745 11.0966 14.3231 C10.8555 13.7833 10.4579 13.4013 10.0581 13.0899 C9.97662 12.9363 9.81695 12.8587 9.81695 12.6317 C9.73552 12.4762 9.41571 12.3208 9.33983 12.1676 C9.02234 11.5512 8.61694 10.938 8.21983 10.3996 C7.50665 9.63087 6.78376 8.93284 6.46257 8.09217 C6.22239 7.39964 6.22239 6.55394 6.6227 5.93429 C7.18546 5.16471 7.82275 4.78684 8.70115 4.48279 C9.17831 4.40528 9.85214 4.27794 10.4233 4.43619 C10.4542 4.44496 10.4774 4.46526 10.4936 4.48279 C10.4936 4.49155 10.4991 4.50494 10.4991 4.51001 C10.5264 4.54046 10.5658 4.55384 10.5834 4.59168 C10.6024 4.63645 10.6107 4.68718 10.5834 4.72734 C10.5658 4.79146 10.5834 4.87404 10.5658 4.93631 C10.5385 4.99631 10.5209 5.08305 10.5755 5.12275 C10.6028 5.14116 10.638 5.16055 10.6473 5.18779 C10.9101 5.78805 10.7352 6.17746 11.0175 6.85938 C11.0976 7.24186 11.3336 7.55099 11.4132 7.93809 C11.4127 10.0909 12.2953 12.2446 11.6538 14.3961 L11.6538 14.3961 Z" transform="translate(116.895, 50.7302)"/>
    <path style="fill:#fec133; fill-rule:evenodd;stroke:none;" d="M2.02013 1.22036 C1.81419 1.34724 1.54715 1.50272 1.31899 1.58531 C1.27039 1.60284 1.19033 1.72049 1.13202 1.73388 C0.761772 1.95442 0.583596 2.29399 0.423002 2.66402 C0.387829 2.71016 0.302673 2.74569 0.262872 2.78952 C0.124494 3.05896 0.0393382 3.33718 0 3.65045 C0.0124957 3.73304 0.132824 3.78841 0.146245 3.84101 C0.405415 4.43896 0.895987 4.78361 1.51012 4.80346 C1.67165 4.81315 1.81373 4.78407 1.97524 4.79515 C2.39824 4.83023 2.79533 4.99539 3.23221 4.97508 C3.48305 4.94877 3.69594 4.96631 3.92919 5.01755 C4.60581 5.10336 5.96182 5.47292 6.0021 5.48169 C6.48897 5.59473 6.93372 6.10411 7.41088 5.94675 C7.78664 5.85494 8.05738 5.39911 8.23652 5.00785 C8.32072 4.59629 8.55628 4.30562 8.71364 3.99695 C9.10562 3.39208 9.66842 2.82689 9.46755 2.09837 L9.43097 2.05084 C9.30603 2.02039 9.18155 1.97979 9.06077 2.0024 C9.04315 2.00701 9.01217 2.03331 8.99409 2.03331 C8.93162 2.04208 8.87747 2.01116 8.81638 2.01116 C8.77985 2.01116 8.73495 2.00701 8.70809 1.98948 C8.68635 1.97102 8.62804 1.9498 8.62018 1.92073 C8.56603 1.73803 8.48594 1.72003 8.41422 1.61991 C6.77775 0.951372 5.41757 0.103811 3.59829 0.0438313 C3.55756 0.0438313 3.53165 0.0553657 3.49925 0.0553657 C3.39743 0.0599799 3.32153 0 3.2188 0.0129187 C3.19288 0.0129187 3.19704 0.064132 3.17945 0.0867398 C3.13456 0.135185 3.09013 0.182246 3.06283 0.246839 C3.01932 0.355726 3.01932 0.46461 2.9786 0.578113 C2.96888 0.595644 2.95546 0.609026 2.93001 0.629327 C2.70647 0.760357 2.49219 0.891392 2.28347 1.05195 C2.18859 1.06487 2.10853 1.14238 2.03818 1.20744 L2.04235 1.20282 L2.02013 1.22036 L2.02013 1.22036 Z" transform="translate(107.066, 48.8828)"/>
    <path style="fill:#fec133; fill-rule:evenodd;stroke:none;" d="M44.1426 30.0328 C44.3763 30.1795 44.5859 30.3529 44.8136 30.4531 C44.9914 30.5398 45.1436 30.6708 45.3357 30.7133 C45.4731 30.7442 45.6069 30.7843 45.7406 30.8309 C45.8119 30.8582 45.8924 30.8909 45.9628 30.931 C46.1289 30.9892 46.2132 30.9892 46.3748 31.0446 C46.3924 31.0912 46.4589 31.1313 46.4941 31.1401 C46.9361 31.2693 47.4975 31.1913 47.7384 31.6564 C47.7833 31.7362 47.9271 31.7652 48.0154 31.8224 C48.8043 31.8003 49.3439 32.5699 49.8933 32.0388 L49.9016 32.0227 C49.9423 32.0227 49.9501 31.9918 49.9774 31.9743 C50.0223 31.9276 50.0496 31.8608 50.0847 31.8008 C50.0847 31.8008 50.0944 31.7833 50.1078 31.7833 C50.1199 31.679 50.1296 31.5627 50.1078 31.4607 C50.0981 31.4187 50.1023 31.3675 50.0981 31.3186 C49.5409 25.4581 45.1659 19.4163 40.5901 15.2833 C23.6654 0 1.18385 27.9344 1.18385 27.9344 C0 29.3638 0.653013 30.9398 2.6713 30.149 C2.97027 30.2067 3.30164 29.9663 3.5409 29.9105 C4.02037 29.7375 4.49937 29.5063 4.97929 29.2724 C5.33983 29.1012 5.81926 29.1012 6.17842 28.9282 C6.35659 28.8147 6.53521 28.5808 6.77775 28.4631 C7.73711 28.0027 8.81407 27.8296 9.71471 27.1385 C10.0738 26.8474 10.6741 26.9074 11.2114 26.792 C12.2907 26.5608 13.1288 25.8674 14.1474 25.5228 C16.0079 24.8846 17.8651 24.48 19.6598 23.7284 C19.839 23.6731 20.0796 23.5015 20.2578 23.3819 C20.6193 23.2684 20.9807 23.3819 21.3412 23.2684 C22.0572 23.0373 22.7796 22.7508 23.4956 22.4038 C23.7987 22.2303 24.1491 22.1348 24.454 22.1127 C25.1408 22.0614 25.7749 22.1127 26.432 21.8834 C26.6746 21.8257 26.9115 22.0301 27.0897 21.912 C27.8126 21.5659 28.5878 22.0126 29.369 21.8349 C29.5338 21.804 29.699 21.7477 29.861 21.7662 C29.9355 21.7703 30.0313 21.7994 30.091 21.7528 C30.1044 21.744 30.091 21.6974 30.0956 21.6933 C30.1229 21.6614 30.1266 21.6088 30.1785 21.5945 C30.2271 21.5788 30.2409 21.6393 30.2743 21.6614 C30.314 21.6836 30.3589 21.648 30.4015 21.6614 C30.6287 21.7528 32.8941 23.3113 33.7263 23.6463 C33.9915 23.752 33.9628 23.847 34.0447 24.08 C34.2053 24.384 34.5246 24.4625 34.8453 24.6152 C34.9995 24.6936 35.2424 24.5377 35.3743 24.5294 C36.1185 24.6152 36.8414 24.9239 37.3968 25.3871 C37.9586 25.6958 38.1197 26.3099 38.5987 26.7699 C38.9953 27.0785 39.4752 27.2349 40.0371 27.4652 C40.1972 27.5427 40.2749 27.9256 40.5165 28.0816 C41.3172 28.4636 40.6258 28.573 41.4255 28.8055 C42.2243 29.0366 42.9421 29.4975 43.6626 29.9571 C43.8232 30.0328 43.9843 30.0328 44.1426 30.0328 L44.1426 30.0328 Z" transform="translate(61.6767, 48.0182)"/>
    <path style="fill:#fec133; fill-rule:evenodd;stroke:none;" d="M33.8753 7.36783 L33.8656 7.38209 C33.817 7.45918 33.6513 7.52884 33.5944 7.61049 C33.4111 7.95056 33.3315 8.34873 33.0899 8.66197 C32.6452 9.18843 32.2467 9.71858 31.7163 10.1915 C31.6094 10.2741 31.4317 10.1915 31.4044 10.3225 C31.3188 10.5389 31.1633 10.7179 31.0559 10.9052 C31.03 10.9828 31.0559 11.0607 31.0656 11.1433 C31.079 11.2656 31.1184 11.403 31.0304 11.4746 C30.9763 11.5299 30.9235 11.5632 30.9235 11.5991 C30.8926 11.6661 30.8342 11.7039 30.7986 11.7214 C30.6727 11.7727 30.5533 11.8571 30.4677 11.9683 C29.9591 12.5731 29.4602 13.1646 29.0358 13.889 C28.6387 14.5843 27.9973 15.2787 27.4807 15.7788 C26.8652 16.3653 25.6069 17.0905 25.0441 17.6257 C24.964 17.6945 24.9113 17.7858 24.8571 17.855 C24.6836 18.0677 24.4207 18.1725 24.2282 18.3639 C23.9477 18.6823 23.5909 18.9107 23.3104 19.2244 C23.1897 19.349 23.0652 19.4537 22.9717 19.6115 C22.886 19.7712 22.7981 19.8934 22.6912 20.0535 C22.4945 20.3179 22.2548 20.5089 22.0933 20.8051 C22.0039 20.9449 21.8887 21.0469 21.7679 21.1267 C20.934 21.6831 20.4878 22.5897 19.7261 23.1679 C18.8907 23.5905 17.8563 23.4368 17.0904 23.1679 C16.4693 22.9501 16.0953 22.6649 15.4581 22.5164 C14.8953 22.2834 14.4941 21.8211 13.9327 21.5143 C13.7767 21.4386 13.5393 21.3606 13.3796 21.3606 C13.3445 21.3606 13.2903 21.0141 13.1654 20.9274 C13.076 20.8402 13.0177 20.7225 12.8983 20.669 C12.7368 20.5915 12.5105 20.5624 12.3356 20.5135 C12.1754 20.4623 12.1171 20.2621 11.9695 20.1758 C11.7293 20.0314 11.5506 19.8574 11.3988 19.6844 C11.3692 19.6535 11.2739 19.6932 11.2211 19.6669 C11.061 19.5885 11.042 19.3979 10.9661 19.3194 C10.7259 19.2327 10.4714 19.1931 10.2664 19.0463 C10.1997 19.0191 10.0886 19.0288 10.0211 19.0463 C9.78504 19.1238 9.62398 18.9753 9.38381 18.8978 C8.74096 18.5882 8.52668 17.8288 7.78664 17.6635 C7.65245 17.6364 7.76907 17.4684 7.71492 17.4033 C7.5645 17.2299 7.32293 17.2857 7.11836 17.1431 C7.05589 17.0854 6.90824 17.0389 6.82404 17.0476 C6.02522 17.1214 5.38797 16.5834 4.74559 16.278 C4.1083 15.9694 4.04073 15.9389 3.40715 15.705 C3.08597 15.5514 2.76571 15.5514 2.44452 15.3963 C2.25617 15.305 2.09603 15.1583 1.83316 15.1786 C1.5527 15.1961 0 15.2362 0.535463 17.3125 C2.0243 21.5433 5.33382 28.13 10.2664 33.5208 C20.8094 45.0378 39.0147 17.2774 41.065 2.65479 C41.065 2.65479 41.3861 0 39.6344 1.28218 C39.3442 1.49165 39.1068 1.72465 38.7912 1.87829 C38.5459 1.95672 38.6042 2.16573 38.5107 2.34244 C38.4432 2.46747 38.39 2.59389 38.3414 2.72492 C38.2655 2.76276 38.2206 2.84535 38.1544 2.89794 C38.1271 2.9164 38.0868 2.90809 38.0512 2.93393 C38.0146 2.95423 37.9929 2.98053 37.9577 3.0036 C37.8994 3.04143 37.8466 3.05896 37.7883 3.09911 C37.73 3.13002 37.6851 3.19046 37.6407 3.24121 C37.6273 3.25459 37.6148 3.27305 37.6097 3.29058 C37.5569 3.35056 37.5079 3.3907 37.4634 3.45944 C37.3523 3.65092 37.1908 3.80594 37.0293 3.95497 C36.392 4.88004 35.6705 5.65423 34.8315 6.46028 C34.7949 6.49628 34.8231 6.56963 34.8231 6.61852 C34.8134 6.63421 34.8041 6.63421 34.7944 6.64714 C34.7727 6.69648 34.7648 6.76526 34.7144 6.80537 C34.644 6.84784 34.5681 6.83445 34.4959 6.85661 C34.3941 6.90134 34.3126 6.9655 34.2247 7.02962 C34.2016 7.04716 34.1974 7.08773 34.1706 7.10527 C34.0544 7.17267 33.9595 7.26356 33.8753 7.36783 L33.8753 7.36783 Z" transform="translate(115.865, 55.2042)"/>
    <path style="fill:#fec133; fill-rule:evenodd;stroke:none;" d="M3.27479 4.71072 C3.56914 4.67472 3.88107 4.60598 4.17911 4.57968 C4.24668 4.57507 4.30916 4.60598 4.36238 4.57091 C4.43411 4.53308 4.53177 4.56122 4.6035 4.53308 C4.62109 4.52339 4.63082 4.52847 4.63868 4.5377 C4.69699 4.58844 4.87978 4.49709 4.91913 4.5663 C4.92884 4.58383 4.98669 4.58383 5.01263 4.59721 C5.50367 4.77068 6.51209 5.09736 7.21602 5.0752 C7.82738 5.41295 7.5196 3.79717 7.5645 2.98145 C7.57421 2.91916 7.36783 2.49884 7.37754 2.43379 C7.37754 1.96087 7.56866 1.2605 7.35022 1.13408 C7.17112 1.09163 6.81479 1.25173 6.65466 1.20052 C6.29411 1.07825 6.15576 0.722524 5.71795 0.60026 C5.24587 0.473842 4.75946 0.404171 4.26427 0.400019 C3.83571 0.408785 3.45204 0.322506 3.04246 0.203931 C2.6315 0.0862786 2.23025 0 1.7841 0.131033 C1.6161 0.268986 1.71746 0.353419 1.53882 0.456307 C1.25003 0.642243 1.24031 0.882626 1.1024 1.17791 C1.0538 1.26926 0.679393 1.35093 0.642835 1.43397 C0.0448919 2.68478 0 3.21907 0.0231401 4.26594 C0.0286938 4.36191 0.0231401 4.44773 0.0814533 4.52339 C0.0814533 4.54369 0.0814533 4.57968 0.0814533 4.59306 C0.0990397 4.65302 0.130048 4.74391 0.196691 4.75268 C0.428556 4.78361 0.634503 4.7933 0.839522 4.8925 C1.16904 5.04381 1.53095 5.00785 1.88777 5.01709 C2.10205 5.00832 2.27977 4.9977 2.49404 4.97508 C2.56994 4.94877 2.65001 4.88835 2.72174 4.86619 C2.91844 4.78361 2.94389 4.80207 3.14891 4.72411 C3.21231 4.69318 3.24332 4.71488 3.27479 4.71072 L3.27479 4.71072 Z" transform="translate(107.988, 57.4018)"/>
    <path style="fill:#024fa2; fill-rule:evenodd;stroke:none;" d="M138.601 42.3936 C138.735 42.5606 138.869 42.7254 139.02 42.8942 C139.19 43.0382 139.359 43.2071 139.484 43.3898 C139.605 43.5411 139.819 43.6034 139.854 43.7986 C139.868 43.8945 139.903 43.9236 139.987 43.9236 C140.041 43.919 140.082 43.9033 140.125 43.9499 L140.125 43.9674 C140.457 44.2101 140.768 44.5229 141.062 44.8279 L141.072 44.8367 C141.103 44.85 141.113 44.8842 141.134 44.9105 C141.156 44.928 141.174 44.9589 141.197 44.9746 C141.214 45.0106 141.242 45.0415 141.277 45.066 C141.357 45.1144 141.437 45.1661 141.505 45.2348 C141.633 45.3617 141.719 45.5287 141.875 45.6533 C141.963 45.735 142.062 45.8088 142.179 45.8485 C142.271 45.8748 142.356 45.9066 142.445 45.9352 C142.535 45.9486 142.598 46.0136 142.687 46.0312 C142.767 46.0487 142.85 46.0621 142.927 46.0441 C143.048 46.0312 143.159 46.0003 143.275 45.9671 C143.293 45.9625 143.311 45.9398 143.32 45.9264 C143.338 45.8928 143.329 45.8623 143.346 45.8309 C143.356 45.8134 143.387 45.7972 143.396 45.7798 C143.41 45.7534 143.41 45.7197 143.414 45.6893 C143.414 45.6533 143.379 45.6487 143.373 45.6178 C143.271 45.2934 142.656 42.5897 141.509 41.6005 L137.852 36.8566 C137.397 35.6962 137.264 35.4318 137.237 35.3913 L136.216 34.2198 C134.638 32.4259 132.643 31.0007 131.819 28.8156 C131.248 28.0844 130.565 27.3775 129.896 26.6947 C129.187 25.9615 128.452 25.2099 127.841 24.4048 L127.792 24.3181 C127.73 24.2092 127.479 23.9268 127.417 23.7801 C126.748 22.5934 123.59 19.6655 122.422 18.954 C122.181 18.8055 122.022 18.5628 121.789 18.3667 C121.566 18.1665 121.361 17.9976 121.102 17.8799 C119.916 17.3425 118.81 16.702 117.887 15.7267 C117.761 15.5638 117.579 15.4771 117.427 15.3345 C117.177 15.0858 117.07 14.7481 116.831 14.5294 C112.165 10.3174 109.534 8.58816 104.752 5.38664 L102.264 3.71274 C101.845 3.51251 101.412 3.29288 100.957 3.06588 C98.1029 1.63237 94.8743 0 91.9117 1.91012 C91.7133 2.30553 91.3295 2.52791 90.9549 2.74753 C90.5873 2.957 90.2664 3.10649 90.0787 3.46683 C90.0611 3.5042 90.0435 3.56233 90.0875 3.5711 C90.1342 3.58448 90.179 3.60201 90.2169 3.63523 C90.2345 3.65738 90.2216 3.68368 90.2123 3.70398 L90.2035 3.70398 C90.1878 3.73489 90.2035 3.77503 90.1832 3.80871 C90.1656 3.83086 90.1346 3.84378 90.1217 3.871 C90.1129 3.88161 90.0925 3.88161 90.0995 3.87515 C90.0791 4.00895 90.0791 4.13122 89.9474 4.23134 C89.8646 4.29547 89.7555 4.31808 89.6731 4.39559 C89.6334 4.43066 89.6047 4.48233 89.5862 4.52247 C89.4637 4.88281 89.1982 5.13332 88.9328 5.39772 C88.888 5.44614 88.8454 5.49553 88.8279 5.54719 C88.8006 5.62469 88.7959 5.72066 88.8057 5.79867 C88.8454 6.02517 88.9929 6.20284 89.1576 6.35877 C89.2422 6.45889 89.3582 6.54055 89.4077 6.64944 C89.491 6.82522 89.5085 6.99407 89.5506 7.17174 C89.6177 7.41441 89.6047 7.64973 89.6468 7.90116 C89.6685 7.95471 89.7605 7.94594 89.7823 8.01006 L89.7957 8.02344 C90.8417 8.87006 91.3998 9.76377 91.9875 10.6999 C92.1757 10.9998 92.3672 11.3066 92.5785 11.6204 L92.5919 11.6379 L92.6007 11.6624 L94.3 16.0377 L95.1449 18.2025 L95.149 18.2186 L95.149 18.2315 C95.4958 19.6475 95.5222 21.135 95.5513 22.5847 C95.5643 23.2763 95.5786 23.996 95.629 24.6872 C95.629 24.7181 95.6244 24.7559 95.6419 24.7831 C95.6739 24.8358 95.6563 24.9096 95.6202 24.965 C95.5171 24.9746 95.4214 24.9008 95.321 24.9229 C95.2947 24.9271 95.2628 24.9271 95.2364 24.9386 L95.1721 24.9049 C93.4261 23.9914 91.7202 22.9113 90.0653 21.8681 C87.2492 20.0872 84.3304 18.2449 81.1615 17.1971 C78.2044 16.4192 75.2232 15.3567 72.3378 14.3254 C65.6462 11.9378 58.7239 9.46525 51.3661 10.3373 C50.2401 10.4997 48.9976 10.4351 47.7958 10.3682 C45.2603 10.2302 42.868 10.0992 41.5347 12.0887 L41.5213 12.102 L41.5083 12.1196 C41.3028 12.3198 41.338 12.4975 41.425 12.784 C41.4435 12.8527 41.4074 12.9224 41.4297 12.9953 C41.4782 13.1535 41.4569 13.4179 41.3695 13.5729 C41.2246 13.8 40.9992 14.0265 41.0372 14.3467 C41.4297 15.3714 41.6902 15.4623 41.6041 16.1161 C41.6041 16.1452 41.6527 16.1493 41.6708 16.1936 C41.7777 16.5092 41.7962 16.8229 41.9697 17.0628 C43.1161 17.7969 44.162 18.5993 45.1742 19.3684 C46.153 20.1153 47.1558 20.8891 48.2494 21.589 L48.2577 21.5936 L48.2674 21.6024 C49.8327 22.8786 51.7665 25.5061 53.4672 27.8181 C54.2677 28.9047 55.026 29.934 55.6327 30.6722 L55.9763 31.0852 L55.432 31.0187 C48.6378 30.1605 36.891 31.3454 30.302 33.5527 C30.2016 33.5909 30.0919 33.6089 29.9961 33.6528 C29.9785 33.673 29.9494 33.691 29.9318 33.7049 C29.9045 33.7132 29.8869 33.7178 29.8577 33.7266 C29.8313 33.7451 29.8091 33.7778 29.7758 33.7865 C29.3426 33.8779 27.6039 34.6157 27.5122 34.6383 C27.4345 34.6512 27.3109 34.6383 27.247 34.6779 C27.155 34.7292 27.073 34.7915 26.999 34.8606 C26.9638 34.9003 26.9286 34.9336 26.8856 34.9649 C26.7292 35.1029 26.5487 35.1901 26.4103 35.3299 C26.3228 35.4116 26.2497 35.4812 26.1785 35.5523 C26.1007 35.621 26.0091 35.6612 25.9262 35.7165 C25.8901 35.7497 25.8531 35.7765 25.817 35.7991 C25.6249 35.9301 25.4158 35.9343 25.1815 35.9592 C25.1543 35.968 25.1321 35.9943 25.1075 36.0031 C24.336 36.2993 23.5867 36.5281 22.8106 37.6276 C22.2039 38.488 21.0112 38.7662 19.8561 39.0353 C18.9971 39.2355 18.1076 39.4394 17.4903 39.8819 L17.4726 39.8953 L17.4551 39.904 C16.6146 40.2819 15.9075 40.7645 15.2206 41.2296 C14.7657 41.5382 14.2904 41.8631 13.7975 42.1408 C11.2757 43.4013 9.32453 44.4085 6.79162 45.824 C5.26576 46.5755 3.83155 47.5407 2.12426 48.9656 C2.07752 49.0007 2.01967 49.0432 2.028 49.1143 C2.03263 49.1475 2.00579 49.1609 1.99561 49.1784 C1.96784 49.1969 1.94192 49.2103 1.93266 49.2297 C1.89471 49.2518 1.86741 49.2878 1.83224 49.31 C1.61796 49.4914 1.39767 49.6382 1.15238 49.7739 C1.014 49.8565 0.882563 49.9207 0.795556 50.0476 C0.699758 50.1944 0.603493 50.3255 0.565543 50.5028 C0.507695 50.7456 0.581279 51.0031 0.516953 51.2459 C0.494734 51.341 0.333681 51.341 0.311466 51.4273 C0.289252 51.5769 0.268889 51.7274 0.211038 51.8548 C0.190675 51.8926 0.219831 51.9462 0.197617 51.9919 C0.142081 52.1276 0.0777508 52.2568 0.0106445 52.3875 C0.00647922 52.4096 0 52.4438 0.0148097 52.465 C0.0555365 52.5319 0.142081 52.5652 0.211501 52.5873 C0.369316 52.6427 0.566005 52.6183 0.717806 52.5786 C0.808517 52.5453 0.900153 52.4872 0.991785 52.4609 C1.0413 52.4433 1.06074 52.3542 1.11906 52.3358 C1.2329 52.3095 1.35277 52.2998 1.46662 52.261 C1.75865 52.1581 2.03726 52.0496 2.32975 51.9669 C2.46998 51.9273 2.60836 51.8737 2.71758 51.7763 C2.83559 51.6909 2.90085 51.5667 3.03228 51.5003 C3.14799 51.4352 3.26229 51.4024 3.37985 51.3756 C3.39743 51.371 3.41595 51.3572 3.43122 51.3484 C3.44881 51.3396 3.48398 51.3443 3.50249 51.3299 C3.52702 51.3216 3.55803 51.2981 3.58024 51.2884 C3.5932 51.2755 3.61541 51.2755 3.63115 51.2709 C4.65764 50.8153 5.70773 50.379 6.79578 50.1552 C7.17066 50.1104 7.52242 50.0776 7.86812 50.0462 C9.05244 49.9327 10.1692 49.8237 11.0748 49.3211 C11.9107 48.7251 12.7317 48.0701 13.5282 47.4423 C14.6135 46.5773 15.7376 45.6847 16.9326 44.9109 C16.9793 44.88 17.0437 44.9151 17.0797 44.88 C17.1061 44.8464 17.1399 44.8579 17.1714 44.8579 C17.1714 44.8842 17.1714 44.9063 17.1667 44.9289 C17.2223 44.9243 17.2764 44.9889 17.3116 44.9552 C18.4737 44.0772 19.702 43.7635 20.984 43.4216 C22.2219 43.0899 22.8277 42.9478 23.9125 42.3614 C23.9611 42.3341 24.0033 42.27 24.0523 42.2746 C24.1264 42.27 24.1528 42.234 24.2171 42.2031 C24.2444 42.1786 24.2481 42.1344 24.2772 42.1214 C24.3601 42.0702 24.4133 42.0125 24.4962 41.9742 C24.5049 41.9742 24.5137 41.9392 24.5234 41.9193 C24.5966 41.8658 24.7104 41.906 24.7928 41.8658 C25.1404 41.8921 25.1075 41.8833 25.319 41.87 C25.4602 41.8612 25.6559 41.8612 25.8036 41.8252 C25.8563 41.8095 25.9438 41.7611 25.9993 41.7477 C27.3239 41.3961 28 41.0916 29.5782 40.3271 C29.6208 40.305 29.6652 40.2805 29.7119 40.263 C29.7253 40.2584 29.7393 40.2408 29.7568 40.2224 C29.7994 40.1582 29.8221 40.0803 29.8998 40.0494 C29.9308 40.0406 29.9577 40.0249 29.9905 40.0203 C30.091 39.994 30.1872 39.994 30.2877 39.9719 C30.314 39.9631 30.3414 39.9446 30.3696 39.9322 C30.3881 39.9275 30.4015 39.9543 30.4103 39.9585 C30.488 39.9857 30.5709 39.9769 30.6491 39.9806 C30.6713 39.9806 30.6843 39.9631 30.7019 39.9497 C30.7583 39.9077 30.794 39.8542 30.849 39.8127 C30.9453 39.7499 31.0592 39.7361 31.1684 39.7033 C31.2688 39.6812 31.3739 39.6586 31.4604 39.6946 C31.4984 39.7121 31.4877 39.7947 31.5247 39.821 C31.552 39.8454 31.5877 39.8413 31.6252 39.8256 C31.6562 39.8168 31.6904 39.8035 31.7256 39.8072 C31.8491 39.7855 31.9737 39.7675 32.0963 39.7587 C32.15 39.7587 32.2101 39.7411 32.2652 39.7209 C32.3235 39.6992 32.3527 39.6341 32.4064 39.6032 C32.5068 39.5492 32.6489 39.6166 32.7678 39.6392 C32.8206 39.7075 33.8869 39.8676 34.3418 39.9326 L34.4423 39.9723 C34.4978 39.9723 34.5492 39.9677 34.5894 39.9899 C34.5894 39.9899 37.3255 40.519 39.8135 40.4189 C40.0014 40.4148 40.2245 40.1453 40.4855 40.2081 C40.4897 40.1587 40.5165 40.1587 40.541 40.1278 L42.4811 38.925 C42.5367 38.9033 42.5589 38.8346 42.6079 38.8207 C42.7685 38.7935 42.9421 38.8936 43.1027 38.8788 C43.2614 38.8567 43.4437 38.7782 43.5622 38.8341 C43.7691 38.9342 43.9006 39.134 44.0843 39.2895 C44.1528 39.3624 44.2754 39.3116 44.3624 39.3545 C44.5725 39.4722 44.8155 39.5031 45.0029 39.6544 C45.1025 39.7255 45.2028 39.8205 45.27 39.9322 C45.3177 40.041 45.3616 40.1633 45.4491 40.1855 C45.9059 40.263 46.3632 40.305 46.8242 40.2408 C46.8427 40.245 46.8779 40.2274 46.8918 40.2274 C47.1609 40.2081 47.4397 40.2939 47.7051 40.2362 C47.9021 40.1762 48.1024 40.1185 48.3118 40.1144 C48.3673 40.0941 48.3719 40.0254 48.4279 40.0544 L48.5504 40.041 C50.6327 40.3363 52.7084 40.1809 54.2894 40.012 C56.7471 39.4943 59.1216 39.916 61.4138 40.3234 C62.6651 40.5449 63.9584 40.777 65.249 40.8499 C66.8037 40.5809 67.5666 39.2115 68.1035 37.9044 C68.5784 35.6593 68.1997 33.4336 67.0668 31.7911 C65.366 29.7052 63.3453 27.7808 61.3916 25.9182 C58.9302 23.5683 56.3809 21.1424 54.4416 18.3505 L54.1354 17.9146 L56.1404 18.3459 C57.3871 19.115 58.8164 19.2761 60.3327 19.4491 C61.6015 19.5889 62.9125 19.7365 64.0856 20.2805 C67.3835 22.174 70.3647 23.5083 73.781 24.9576 C74.0866 25.0886 74.4011 25.0756 74.722 25.1273 C74.753 25.1665 74.8223 25.1665 74.8177 25.2404 C74.9273 25.2072 74.9916 25.2851 75.097 25.3276 C75.2015 25.3317 75.3106 25.2985 75.4156 25.3405 C75.6542 25.4586 75.8951 25.5454 76.1384 25.628 C76.5268 25.7193 76.9143 25.6367 77.2616 25.759 C77.7818 25.9638 78.2567 26.3366 78.7713 26.541 C78.8402 26.5835 78.8365 26.6527 78.9054 26.6924 C79.046 26.7329 79.1463 26.7749 79.2532 26.8524 C79.6897 27.2257 80.0957 27.4924 80.5747 27.8043 C80.7444 27.9528 80.8406 28.0995 81.0099 28.2444 C81.316 28.4738 81.672 28.4221 81.9814 28.5822 C82.0822 28.6218 82.2246 28.6269 82.2875 28.7377 L82.3698 28.787 C83.8278 29.1248 85.2802 29.6738 86.673 30.2205 C87.3676 30.4895 88.0787 30.7719 88.7876 31.0141 C88.8316 31.0316 88.8542 31.0852 88.906 31.0898 C89.0373 31.0995 89.1423 31.1032 89.2759 31.1373 C89.5081 31.2014 89.7776 31.1373 90.0116 31.2277 C90.1924 31.29 90.4047 31.3278 90.554 31.4413 C90.8879 31.7016 91.194 31.8751 91.5325 31.9969 C92.0254 32.1833 92.5225 32.2612 92.9882 32.5261 C93.0376 32.5533 93.0931 32.5016 93.1445 32.5348 C93.2716 32.6483 93.4251 32.706 93.5546 32.7932 L93.617 32.8444 C94.3615 33.2398 95.1291 33.6528 95.9064 33.978 C96.8456 34.0265 97.5008 34.3315 98.1436 34.6337 C98.9237 34.9986 99.6594 35.3432 100.863 35.1117 C101.115 35.065 101.372 35.1029 101.622 35.1389 C101.882 35.1749 102.132 35.2118 102.336 35.1476 C102.586 35.0521 102.773 34.839 102.979 34.6166 C103.201 34.3697 103.429 34.1058 103.799 33.9582 L104.053 33.9739 C104.548 33.6652 104.753 33.2094 104.825 32.9542 C105.391 30.9957 104.861 29.2613 104.298 27.4232 C103.914 26.189 103.522 24.9133 103.505 23.5706 C103.451 20.5942 102.523 17.9888 101.622 15.472 L101.199 14.2696 C101.115 14.0224 101.22 14.1298 101.257 13.9139 C101.275 13.787 101.426 13.8733 101.444 13.8687 C101.444 13.8687 104.146 14.9299 105.484 15.3077 C106.51 15.5942 107.563 15.8941 108.516 16.2895 C109.181 16.3721 109.601 16.7675 110.006 17.1616 C110.39 17.5192 110.747 17.8619 111.286 17.9173 C112.95 17.8288 113.994 18.9776 114.711 20.0208 C115.849 20.3852 116.285 21.2541 116.714 22.1016 L116.848 22.3969 C116.856 22.4504 116.866 22.497 116.883 22.5413 C116.901 22.5685 116.932 22.5925 116.955 22.5925 C117.097 22.6054 117.222 22.6322 117.343 22.7189 C117.343 22.7189 117.347 22.7374 117.347 22.7452 C117.401 22.814 117.491 22.8278 117.557 22.8698 C117.584 22.8832 117.615 22.8744 117.641 22.8883 C117.686 22.9233 117.717 22.9658 117.735 23.0105 C117.744 23.0659 117.73 23.1148 117.735 23.1706 C117.73 23.1748 117.748 23.1835 117.748 23.1882 C118.257 24.4126 119.051 25.1905 121.21 26.4294 C122.069 26.912 122.761 27.6142 123.44 28.2874 C124.009 28.8659 125.375 30.0263 125.375 30.0263 C125.652 30.8642 126.248 31.0686 126.935 31.3062 C127.461 31.482 128.001 31.673 128.452 32.144 C129.509 32.7443 130.485 33.8133 131.35 34.761 C131.753 35.2035 132.127 35.6215 132.493 35.9721 C132.698 36.1595 132.858 36.3809 133.099 36.5549 C133.438 36.7994 133.848 36.9415 134.138 37.2372 C134.802 37.8887 135.209 38.6707 135.856 39.3397 C136.176 39.6599 136.48 39.9386 136.797 40.2381 C136.952 40.3825 137.068 40.5158 137.179 40.6805 C137.358 40.938 137.714 41.0473 137.921 41.23 C138.058 41.3759 138.165 41.5544 138.229 41.7985 C138.26 42.0098 138.469 42.085 138.567 42.2991 L138.601 42.3936 L138.601 42.3936 Z" transform="translate(9.83768, 1.99207)"/>
    <path style="fill:#f15728; fill-rule:evenodd;stroke:none;" d="M13.6318 18.9125 C13.6221 18.9125 13.6133 18.8992 13.6046 18.8853 C13.5912 18.8659 13.562 18.8608 13.5444 18.8608 C13.3857 18.8475 13.2297 18.8073 13.1071 18.7986 C12.4448 18.7344 12.1925 18.7247 11.7043 18.7118 C11.1869 18.6985 10.6542 18.6389 10.1479 18.5646 C9.2246 18.4294 8.39758 18.7672 7.48168 18.4936 C5.98679 17.8158 3.22018 18.4936 1.72579 17.6783 C1.61241 17.5427 1.49393 17.2728 1.26391 17.2728 C1.26391 17.2728 1.26391 17.2354 1.25096 17.2179 C1.23753 17.2179 1.19681 17.2179 1.17691 17.2179 C1.04964 17.1353 0.936249 17.0172 0.822399 16.9484 C0.775658 16.9124 0.720123 16.9 0.661808 16.882 C0.661808 16.8635 0.648851 16.8483 0.630799 16.8354 C0.619229 16.8308 0.619229 16.8308 0.611363 16.8266 C0.501679 16.7482 0.392457 16.673 0.274442 16.595 C0 16.2024 0.0268426 16.0663 0.269814 15.6372 C0.457712 15.4877 0.649314 14.9834 1.26901 14.5368 C2.18767 13.8719 23.0346 0 68.4942 5.03966 C78.1277 6.10411 84.8433 10.9398 88.2466 24.2756 C92.6219 41.4289 93.033 63.3006 91.4765 78.5182 C91.4631 78.6691 91.4456 78.9179 91.3193 79.0453 C91.311 79.056 91.2842 79.0966 91.2708 79.1427 C91.2588 79.2129 91.2842 79.3025 91.2588 79.3643 C91.2046 79.5319 91.1149 79.675 91.0705 79.8536 C90.9901 80.1107 90.9822 80.3974 90.9277 80.6808 C90.8884 80.9079 90.8611 81.1299 90.7325 81.3298 C90.7002 81.3838 90.7325 81.5352 90.665 81.5786 C90.5984 81.6054 90.5226 82.1487 90.4736 82.1381 C90.3395 82.1381 89.8216 82.2599 89.6926 82.2438 C89.4826 82.2004 89.5233 81.8002 89.1178 81.8491 C88.9037 81.868 88.654 81.8625 88.6091 81.7923 C88.5023 81.622 88.4478 81.3843 88.3816 81.195 C88.3229 81.0002 87.9844 80.7514 87.9312 80.5571 C87.8864 80.3974 87.8947 80.192 87.8554 80.0405 C87.842 79.9782 87.8864 79.9242 87.842 79.8619 C87.8147 79.8213 87.7791 79.7834 87.7537 79.7701 C87.6196 79.6671 87.4582 79.6565 87.3514 79.5162 C87.2496 79.3458 87.2496 79.151 87.1641 78.9646 C87.0883 78.7781 87.0355 78.581 86.9324 78.4134 C86.8742 78.3322 86.8973 78.2269 86.8649 78.1457 C86.839 78.0617 86.7808 78.0321 86.7539 77.9509 C86.7539 77.932 86.728 77.9047 86.728 77.8913 C86.7049 77.8263 86.6915 77.7506 86.6517 77.7238 C86.5176 77.6402 86.3618 77.7644 86.2277 77.6675 C86.175 77.6402 86.1338 77.5673 86.0848 77.5294 C86.0497 77.4971 85.978 77.5105 85.96 77.4537 C85.9369 77.3563 85.8744 77.294 85.8448 77.2049 C85.6659 76.7558 85.3538 76.1668 85.3538 76.1668 C83.3996 71.7793 83.1097 71.6011 81.1611 68.0671 C80.8129 67.5293 80.9294 66.8457 80.8129 66.3019 C80.6977 66.1639 80.4739 65.7586 80.4739 65.6262 C80.4739 64.3988 79.2837 63.1792 79.1722 62.6281 C78.6909 60.3787 78.3598 59.281 78.2433 56.8318 C78.2433 56.288 76.9998 54.0229 76.7719 53.4792 C75.9696 51.5787 75.7731 50.0804 75.3185 47.9081 C75.2015 47.2263 74.703 46.0053 74.4709 45.3271 C74.0168 43.8294 72.3216 41.7486 72.089 40.119 C71.8569 39.1672 71.3482 37.8781 71.1166 36.9272 C70.6583 34.8888 70.5376 33.2615 69.8505 31.3583 C69.6184 30.5444 68.9853 29.5063 68.4281 28.9084 C68.4198 28.8996 68.4147 28.882 68.4008 28.8862 C68.3967 28.8198 68.4281 28.7266 68.3615 28.6772 C68.3615 28.5997 68.4101 28.5263 68.3967 28.4507 C68.4142 28.4507 68.4064 28.4128 68.4239 28.4041 C68.4674 28.3778 68.4512 28.3593 68.4942 28.3215 C68.5039 28.3086 68.5132 28.2818 68.5132 28.2546 C68.5215 28.2458 68.5391 28.2311 68.5391 28.2214 C68.558 28.195 68.558 28.1614 68.5756 28.13 C68.5839 28.13 68.6015 28.1259 68.6015 28.1171 C68.6015 28.0811 68.6191 28.0387 68.5974 28.017 C66.3718 26.1138 65.6966 27.4006 65.126 27.2649 C63.6297 27.2649 62.7895 26.183 61.2959 25.9094 C59.4555 25.4983 61.0772 25.5919 59.1591 25.5919 C58.7979 25.5919 57.7053 24.516 57.3598 24.3804 C55.6378 23.7026 54.0568 23.1822 52.3047 23.3695 C49.7781 23.6426 48.1703 22.5731 46.1016 22.1666 C42.1919 21.6227 39.329 22.5404 35.4243 21.9996 C34.8495 21.9996 34.2747 21.422 33.8124 21.2845 C33.7305 21.2572 33.63 21.2439 33.5717 21.2393 C32.8312 21.1535 32.1088 21.1285 31.3711 21.1844 C31.1276 21.2107 30.8449 21.2065 30.6084 21.231 C30.0327 21.2845 29.4375 21.2794 28.8317 21.231 C28.1042 21.171 27.7857 20.9283 27.1878 20.8881 C26.1553 20.7502 25.3593 21.0326 24.3004 20.837 C24.169 20.8106 24.0171 20.7193 23.8765 20.7193 C23.8718 20.7193 23.8718 20.7105 23.863 20.7018 C23.8297 20.6971 23.8121 20.6612 23.7853 20.6506 C23.6983 20.6284 23.6585 20.5417 23.5844 20.5241 C23.1092 20.4106 22.6348 20.3544 22.1548 20.3013 C21.3102 20.2155 20.516 20.2418 19.6668 20.1324 C19.2137 20.1019 18.7921 20.0194 18.3422 19.9331 C17.8892 19.8768 17.4412 19.9059 16.9886 19.8196 C16.6965 19.7642 16.4341 19.7379 16.1458 19.6217 C15.8542 19.5418 15.5594 19.5081 15.2674 19.3993 C14.7921 19.1991 14.3127 18.9776 13.7846 18.9439 C13.8119 18.9439 13.8383 18.9439 13.7846 18.9439 C13.7318 18.9434 13.6823 18.9259 13.6318 18.9125 L13.6318 18.9125 Z M83.2923 49.7388 C83.3275 49.761 83.3723 49.7485 83.4033 49.761 C83.4172 49.7707 83.4172 49.7831 83.431 49.7882 C83.4796 49.7988 83.591 49.8214 83.5772 49.766 C83.561 49.7213 83.561 49.6613 83.5906 49.6077 C83.6179 49.4522 83.9254 48.588 83.8357 47.6178 L83.6271 46.2468 C83.6854 45.6552 83.6854 45.5195 83.6854 45.495 L83.5064 44.791 C83.3894 44.3259 83.5605 42.4587 83.3367 40.1869 C83.327 39.9557 83.364 39.7176 83.3543 39.4772 C83.1767 36.4141 82.3744 32.5971 81.3969 29.5654 C81.3127 29.1381 80.4286 26.6794 80.3408 26.2107 C79.4973 23.0516 78.8643 21.8894 78.8643 21.8894 C77.8608 19.1354 76.1388 16.5318 74.8455 14.8293 C74.8279 14.8108 74.8413 14.7845 74.8279 14.7693 C74.703 14.6023 74.5333 14.487 74.4089 14.3287 C74.3373 14.2461 74.2573 14.1778 74.1773 14.122 C74.101 14.0735 74.0344 14.0334 73.9669 13.9827 C73.9262 13.9351 73.9003 13.8913 73.8559 13.847 L73.8286 13.818 C73.0531 12.9838 72.188 12.037 70.7698 12.139 C70.6181 12.2192 70.4405 12.2243 70.2611 12.228 C70.096 12.2396 69.9494 12.228 69.8153 12.3055 C69.8056 12.3161 69.7881 12.33 69.8056 12.3388 C69.8153 12.3485 69.8329 12.3609 69.8329 12.3747 C69.8426 12.3844 69.8329 12.3881 69.8246 12.3932 L69.8149 12.3932 C69.8052 12.3973 69.8052 12.4107 69.7918 12.4153 C69.7797 12.426 69.7659 12.4213 69.7566 12.426 C69.7525 12.4306 69.7469 12.426 69.7469 12.426 C69.7205 12.461 69.6896 12.4924 69.6271 12.5035 C69.5865 12.5081 69.5471 12.4965 69.5023 12.5081 C69.475 12.5122 69.4574 12.5256 69.4482 12.5302 C69.3372 12.616 69.1948 12.6479 69.0468 12.6839 C69.0251 12.6945 68.9983 12.6986 68.9844 12.7125 C68.9571 12.73 68.9395 12.7572 68.9317 12.7794 C68.9044 12.8481 68.922 12.9215 68.9576 12.9902 C68.9673 13.0308 68.9941 13.0728 68.9941 13.1125 C68.9899 13.1748 68.9631 13.226 68.9492 13.2813 C68.9317 13.357 68.8776 13.4258 68.8517 13.5037 C68.8517 13.5222 68.8776 13.5346 68.8776 13.5531 L68.8776 13.5637 C69.1009 13.9596 69.1458 14.295 69.1851 14.6503 C69.1952 14.7638 69.2128 14.8773 69.2341 14.9968 L69.2341 15.0064 L69.2341 15.0152 L69.0468 16.5138 L68.9534 17.2608 L68.9534 17.2654 C68.8193 17.718 68.5576 18.1475 68.307 18.5651 C68.1821 18.764 68.0531 18.9725 67.9412 19.1769 C67.9412 19.1857 67.9324 19.1954 67.9324 19.2032 C67.9324 19.2262 67.9148 19.2392 67.8968 19.2544 C67.8524 19.2387 67.8297 19.2078 67.7904 19.1949 C67.7807 19.1949 67.7724 19.1903 67.7544 19.1852 L67.7373 19.1677 C67.2772 18.6472 66.8582 18.083 66.4434 17.5431 C65.7563 16.613 64.9341 15.7359 63.9571 14.9419 C63.0119 14.2641 62.1093 13.8036 61.2371 13.0862 C59.2081 11.4141 57.1115 9.54275 54.2353 8.73768 C53.7822 8.61724 53.3405 8.4267 52.911 8.23569 C51.9963 7.83982 51.1372 7.46657 50.2752 7.81304 L50.2664 7.8172 L50.2577 7.8172 C50.143 7.84443 50.1254 7.89978 50.1037 7.98698 C50.0967 8.00867 50.0699 8.02206 50.0658 8.04468 C50.0523 8.09541 49.9955 8.16414 49.9386 8.19137 C49.8424 8.23107 49.7129 8.26518 49.6685 8.35561 C49.6218 8.6869 49.6995 8.74779 49.546 8.91207 C49.5418 8.92084 49.5594 8.92961 49.5594 8.94295 C49.5418 9.04307 49.485 9.12939 49.503 9.22074 C49.7911 9.58107 50.0292 9.94324 50.2572 10.2948 C50.4819 10.6367 50.7094 10.9883 50.979 11.3283 L50.9836 11.3329 L50.9883 11.3371 C51.3249 11.9023 51.5496 12.8869 51.7466 13.751 C51.8382 14.1557 51.9246 14.5423 52.0162 14.8251 L52.0601 14.9899 L51.8733 14.8939 C49.521 13.6957 44.9826 12.1662 42.1372 11.8289 C42.0952 11.8243 42.0503 11.8146 42.0035 11.8146 C41.9947 11.8146 41.9813 11.8146 41.9725 11.8192 C41.9595 11.8146 41.9549 11.8146 41.9415 11.8146 C41.9281 11.8146 41.9123 11.8192 41.8994 11.8146 C41.7212 11.7837 40.94 11.733 40.9048 11.7279 C40.871 11.7191 40.8317 11.6969 40.7998 11.7016 C40.7572 11.7016 40.7127 11.7057 40.6748 11.7145 C40.6526 11.7191 40.6299 11.7233 40.6123 11.7279 C40.5304 11.7366 40.4476 11.7366 40.3689 11.757 C40.3203 11.7657 40.2819 11.7754 40.2416 11.7832 C40.1995 11.7929 40.1597 11.7878 40.1195 11.7929 C40.0991 11.7961 40.0815 11.7961 40.0583 11.7961 C39.9677 11.8058 39.8853 11.7786 39.7978 11.7528 C39.7848 11.7528 39.7714 11.757 39.7617 11.7528 C39.4188 11.7233 39.0994 11.6785 38.6112 11.8658 C38.2233 12.0102 37.7305 11.9143 37.2533 11.8238 C36.903 11.7611 36.5332 11.6882 36.2226 11.7191 L36.2032 11.7191 C35.8242 11.7057 35.4738 11.7325 35.1346 11.7611 C34.9073 11.7832 34.669 11.8017 34.4372 11.8058 C33.2686 11.7883 32.3629 11.7837 31.1614 11.8058 C30.4589 11.7929 29.7235 12.0329 28.8294 12.1749 C28.8072 12.1796 28.7729 12.1846 28.7641 12.2022 C28.76 12.2109 28.7465 12.2109 28.7419 12.2151 C28.7285 12.2151 28.7155 12.2151 28.7109 12.2197 C28.6905 12.2197 28.6729 12.2243 28.6554 12.2285 C28.5415 12.2488 28.4323 12.2576 28.3184 12.2576 C28.2541 12.2617 28.1888 12.2576 28.1361 12.2797 C28.0708 12.3018 28.0111 12.3304 27.9667 12.371 C27.9014 12.4264 27.8792 12.509 27.8103 12.5625 C27.7839 12.5847 27.7233 12.5625 27.701 12.5847 C27.6659 12.622 27.6279 12.6575 27.583 12.6848 C27.5696 12.6954 27.5696 12.7134 27.5497 12.7226 C27.5099 12.7489 27.4604 12.7752 27.4086 12.7983 C27.3998 12.8043 27.3956 12.8177 27.3956 12.8218 C27.3998 12.844 27.422 12.8666 27.4442 12.8818 C27.4956 12.9215 27.5692 12.9441 27.6353 12.9528 C27.6738 12.9574 27.7182 12.9528 27.7561 12.9574 C27.7784 12.9621 27.801 12.9399 27.8279 12.9441 C27.8746 12.9528 27.9195 12.9662 27.9704 12.9713 C28.0977 12.9842 28.2226 12.9958 28.3453 13.0179 C28.4031 13.0267 28.4633 13.0313 28.5235 13.0225 C28.5818 13.0128 28.6285 12.9907 28.6901 12.9907 C28.7465 12.9907 28.7933 12.9953 28.8419 13.0041 C28.8465 13.0041 28.8604 13.0041 28.8641 13.0041 C28.8729 13.0041 28.8886 13.0128 28.8974 13.0087 C28.9071 13.0087 28.9196 13.0087 28.9335 13.0087 C28.9381 13.0087 28.9469 13.0128 28.9557 13.0128 C29.4176 13.035 29.8878 13.0663 30.3312 13.1623 C30.476 13.1997 30.6144 13.2398 30.7458 13.2818 C31.2077 13.4175 31.6428 13.5489 32.0657 13.5402 C32.4897 13.5005 32.9159 13.44 33.3255 13.3819 C33.8883 13.3044 34.4677 13.2223 35.0522 13.1817 C35.0809 13.1817 35.0943 13.1992 35.1165 13.1951 C35.13 13.1909 35.1429 13.1992 35.1527 13.2038 C35.148 13.2085 35.1429 13.2126 35.1392 13.2223 C35.1568 13.2265 35.1684 13.2486 35.1901 13.2486 C35.7793 13.1748 36.2902 13.268 36.8294 13.3533 C37.3514 13.44 37.6008 13.4904 38.1141 13.4867 C38.1317 13.4867 38.1581 13.4733 38.1808 13.4825 C38.2099 13.4908 38.2233 13.4867 38.2548 13.4867 C38.2682 13.4825 38.277 13.4733 38.2909 13.4733 C38.333 13.4691 38.3594 13.4599 38.402 13.4645 C38.402 13.4645 38.4108 13.4548 38.4195 13.4511 C38.4557 13.4442 38.4936 13.4733 38.5292 13.4784 C38.6514 13.5319 38.6427 13.5231 38.7204 13.5494 C38.7741 13.5688 38.8476 13.596 38.9083 13.6089 C38.9301 13.6089 38.9773 13.6089 38.9953 13.6136 C39.5534 13.7095 39.8584 13.7183 40.585 13.7358 C40.6026 13.7358 40.6258 13.7399 40.6433 13.7399 C40.6521 13.7399 40.6609 13.7358 40.6656 13.7358 C40.6989 13.7225 40.7211 13.7049 40.7526 13.7095 C40.766 13.7095 40.7817 13.7095 40.7951 13.7137 C40.835 13.7225 40.8706 13.7321 40.9131 13.7399 C40.9219 13.7446 40.9349 13.7399 40.9493 13.7446 C40.9576 13.7446 40.9576 13.7561 40.9576 13.7607 C40.9872 13.7783 41.0177 13.7824 41.045 13.7958 C41.0492 13.8004 41.0585 13.7958 41.0742 13.7958 C41.1006 13.7912 41.1228 13.7824 41.1496 13.7824 C41.1964 13.7783 41.2413 13.787 41.2885 13.7958 C41.3283 13.8046 41.3745 13.8092 41.3968 13.8336 C41.4065 13.847 41.3885 13.8645 41.3968 13.8784 C41.4014 13.8871 41.419 13.8918 41.4329 13.8918 C41.4486 13.8959 41.462 13.8959 41.475 13.9005 C41.5245 13.9135 41.5713 13.9268 41.6199 13.9425 C41.6448 13.9513 41.6666 13.9513 41.6888 13.9559 C41.7161 13.9605 41.7402 13.9471 41.7629 13.9471 C41.8114 13.9425 41.8499 13.9831 41.8897 14.0048 C41.8994 14.0338 42.2604 14.2253 42.4205 14.3047 L42.4469 14.3337 C42.4654 14.3384 42.4895 14.3467 42.4982 14.3559 C42.4982 14.3559 43.4109 14.8893 44.3476 15.2164 C44.4207 15.2385 44.5522 15.1979 44.6345 15.2524 C44.648 15.239 44.6577 15.2427 44.6707 15.239 L45.6115 15.1896 C45.636 15.1943 45.6583 15.1767 45.6805 15.1809 C45.7457 15.1943 45.7897 15.2431 45.8499 15.2676 C45.9142 15.281 45.9947 15.2861 46.0281 15.317 C46.0864 15.377 46.0952 15.448 46.1373 15.5121 C46.1461 15.5454 46.2072 15.55 46.2289 15.5721 C46.2828 15.6302 46.3651 15.6769 46.4081 15.7456 C46.4298 15.7761 46.452 15.8166 46.4566 15.8545 C46.452 15.8904 46.4469 15.932 46.4742 15.95 C46.6254 16.0372 46.791 16.1142 46.9731 16.159 C46.9787 16.1636 46.9916 16.1636 47.0004 16.1687 C47.1008 16.1996 47.1882 16.2601 47.2973 16.2863 C47.3805 16.2979 47.467 16.3108 47.5451 16.3371 C47.5673 16.3417 47.5803 16.3242 47.5988 16.3371 L47.6455 16.3514 C48.3604 16.7247 49.1576 16.9798 49.773 17.1556 C50.7783 17.3669 51.5769 17.8181 52.3487 18.2537 C52.7699 18.4848 53.2027 18.7316 53.6684 18.936 C54.2908 19.0828 54.8277 18.8225 55.2716 18.5448 C55.8649 18.0096 56.1395 17.3572 56.0299 16.7505 C55.7867 15.9454 55.4029 15.1393 55.0288 14.3614 C54.5535 13.3787 54.0693 12.3623 53.8728 11.3334 L53.8413 11.1752 L54.4998 11.5752 C54.818 11.9577 55.316 12.2063 55.8417 12.4665 C56.2833 12.6848 56.7407 12.909 57.075 13.2228 C57.9383 14.2009 58.7915 14.9853 59.7819 15.8586 C59.8689 15.9371 59.9942 15.9768 60.0987 16.0372 C60.1033 16.0547 60.1297 16.0635 60.1172 16.081 C60.162 16.0907 60.1699 16.1188 60.2041 16.1461 C60.2393 16.159 60.2869 16.0547 60.3179 16.081 C60.3822 16.1461 60.4538 16.1991 60.5315 16.2545 C60.654 16.332 60.8145 16.9595 60.9195 17.0458 C61.0758 17.1837 61.1807 17.3613 61.3319 17.4924 C61.3495 17.5145 61.3366 17.5321 61.3541 17.5565 C61.3939 17.5874 61.4281 17.6147 61.4499 17.6525 C61.5419 17.8214 61.6468 17.9574 61.7648 18.1167 C61.7957 18.1835 61.8073 18.2389 61.8424 18.3081 C61.9113 18.4175 62.0524 18.4525 62.1389 18.5439 C62.1661 18.5725 62.2175 18.5951 62.2221 18.6352 L62.2438 18.6615 C62.7192 18.973 63.1538 19.3421 63.5645 19.7042 C63.7693 19.8819 63.9788 19.9686 64.1957 20.1509 C64.2132 20.1596 64.2086 20.1818 64.2262 20.1905 C64.2715 20.2108 64.314 20.233 64.3533 20.2593 C64.4278 20.3147 64.5411 20.3368 64.6109 20.4019 C64.6659 20.4466 64.7367 20.4886 64.7709 20.5463 C64.8472 20.6708 64.9253 20.7705 65.0294 20.8573 C65.1764 20.9883 65.4382 20.866 65.5561 21.0109 C65.5695 21.0284 65.6 21.0197 65.6116 21.04 C65.6379 21.0884 65.6828 21.1285 65.7161 21.1751 L65.7295 21.1973 C65.9218 21.4215 66.1267 21.6526 66.3491 21.8617 C66.6793 22.0176 66.8624 22.2045 67.0358 22.3821 C67.255 22.6045 67.4552 22.8135 67.9324 22.927 C68.0351 22.9515 68.1197 22.9999 68.2038 23.0474 C68.2894 23.0968 68.3745 23.1429 68.4586 23.1563 C68.5696 23.1651 68.6732 23.1342 68.7883 23.101 C68.9141 23.065 69.0473 23.0225 69.2031 23.0359 L69.2979 23.0783 C69.5337 23.065 69.6896 22.9648 69.7603 22.9049 C70.3231 22.4319 70.4475 21.858 70.5816 21.2531 C70.6708 20.842 70.7591 20.4199 71.0005 20.0374 C71.5267 19.182 71.665 18.304 71.7991 17.4522 L71.8657 17.0453 C71.8791 16.9585 71.9022 17.0056 71.9461 16.9494 C71.9813 16.9189 72.022 16.9627 72.0275 16.9669 L72.0585 16.9959 C72.0585 16.9959 72.2453 17.9095 72.7443 18.357 C73.1239 18.6989 73.5114 19.0523 73.8369 19.426 C74.1037 19.599 74.1939 19.8639 74.2873 20.1149 C74.3729 20.3507 74.4432 20.5726 74.6711 20.711 C75.4114 21.0284 75.6038 21.7404 75.6824 22.3396 C76.0949 22.7364 76.0949 23.2006 76.0838 23.6385 L76.0755 23.787 C76.0579 23.8295 76.0838 23.8742 76.173 23.9647 C76.2489 24.0422 76.3603 24.4431 76.2896 24.5852 C76.2447 25.2676 76.4052 25.7059 77.0655 26.6836 C77.3281 27.0661 77.2444 27.5838 77.3864 28.0128 C77.5076 28.3778 77.8419 29.1557 77.8419 29.1557 C77.7702 29.5644 77.9848 29.7753 78.2257 30.024 C78.4111 30.2067 78.6081 30.4023 78.6978 30.6939 C79.0229 31.1719 80.8661 36.0446 81.8871 43.8212 C81.9222 44.0962 82.0332 44.3476 82.1104 44.5718 C82.5608 45.0078 82.3411 46.2967 82.466 47.1197 C82.5298 47.5305 82.3994 47.9266 82.5243 48.318 C82.6135 48.4906 82.5691 48.7464 82.6311 48.9425 C82.7476 49.316 82.8766 49.5823 83.2193 49.6806 C83.253 49.6899 83.2692 49.7213 83.2923 49.7388 L83.2923 49.7388 Z" transform="translate(39.9398, 81.2026)"/>
    <path style="fill:#161413; fill-rule:evenodd;stroke:none;" d="M0 3.62277 C0 1.60053 1.60546 0 3.63763 0 C5.67166 0 7.27803 1.60053 7.27803 3.62277 C7.27803 5.64223 5.6712 7.24555 3.63763 7.24555 C1.60546 7.24555 0 5.64223 0 3.62277 L0 3.62277 Z M0.588687 3.62277 C0.588687 5.32571 1.9757 6.65591 3.63809 6.65591 C5.30696 6.65591 6.68887 5.32571 6.68887 3.62277 C6.68887 1.90597 5.30742 0.589648 3.63809 0.589648 C1.9757 0.589648 0.588687 1.90597 0.588687 3.62277 L0.588687 3.62277 Z M4.92329 2.87118 C4.80667 2.36551 4.37811 2.09237 3.76814 2.09237 C2.76895 2.09237 2.35381 2.84949 2.35381 3.57387 C2.35381 4.43619 2.86243 5.0849 3.78989 5.0849 C4.39755 5.0849 4.7891 4.80115 4.92329 4.26825 L5.48466 4.26825 C5.37775 5.14163 4.62897 5.67685 3.78989 5.67685 C2.55467 5.67685 1.75587 4.74668 1.75587 3.59509 C1.75587 2.39227 2.51533 1.50272 3.78156 1.50272 C4.63729 1.50272 5.32453 2.01901 5.48466 2.87072 L4.92329 2.87072 L4.92329 2.87118 Z" transform="translate(203.579, 191.557)"/>
    <path style="fill:#161413; fill-rule:evenodd;stroke:none;" d="M0 0 L3.11327 0 L3.11327 0.586417 L1.89148 0.586417 L1.89148 3.84147 L1.21902 3.84147 L1.21902 0.586417 L0 0.586417 L0 0 Z" transform="translate(193.321, 193.185)"/>
    <path style="fill:#161413; fill-rule:evenodd;stroke:none;" d="M0 0 L0.946431 0 L2.01227 3.0036 L2.02152 3.0036 L3.0508 0 L3.99306 0 L3.99306 3.84147 L3.35023 3.84147 L3.35023 0.878471 L3.33681 0.878471 L2.27097 3.84147 L1.71792 3.84147 L0.650701 0.878471 L0.642835 0.878471 L0.642835 3.84147 L0 3.84147 L0 0 Z" transform="translate(196.871, 193.185)"/>
   </g>
  </g>
 </g>
</svg>
