<?xml version="1.0" encoding="UTF-8" standalone="no"?>
<!-- Created with Inkscape (http://www.inkscape.org/) -->

<svg
   xmlns:dc="http://purl.org/dc/elements/1.1/"
   xmlns:cc="http://creativecommons.org/ns#"
   xmlns:rdf="http://www.w3.org/1999/02/22-rdf-syntax-ns#"
   xmlns:svg="http://www.w3.org/2000/svg"
   xmlns="http://www.w3.org/2000/svg"
   xmlns:xlink="http://www.w3.org/1999/xlink"
   xmlns:sodipodi="http://sodipodi.sourceforge.net/DTD/sodipodi-0.dtd"
   xmlns:inkscape="http://www.inkscape.org/namespaces/inkscape"
   width="211.13602"
   height="265.53784"
   id="svg2"
   version="1.1"
   inkscape:version="0.48.2 r9819"
   sodipodi:docname="2016 Summer Olympics logo.svg">
  <defs
     id="defs4">
    <radialGradient
       id="radialGradient3155"
       spreadMethod="pad"
       gradientTransform="matrix(40.583801,40.672836,-40.672836,40.583801,134.55956,175.61809)"
       gradientUnits="userSpaceOnUse"
       r="1"
       cy="0"
       cx="0"
       fy="0"
       fx="0">
      <stop
         id="stop3157"
         offset="0"
         style="stop-opacity:1;stop-color:#fcd205" />
      <stop
         id="stop3159"
         offset="0.725006"
         style="stop-opacity:1;stop-color:#f47216" />
      <stop
         id="stop3161"
         offset="1"
         style="stop-opacity:1;stop-color:#f03c1f" />
    </radialGradient>
    <clipPath
       id="clipPath3119"
       clipPathUnits="userSpaceOnUse">
      <path
         id="path3121"
         d="m 219.146,603.946 157.14,0 0,202.762 -157.14,0 0,-202.762 z"
         inkscape:connector-curvature="0" />
    </clipPath>
    <clipPath
       id="clipPath3053"
       clipPathUnits="userSpaceOnUse">
      <path
         id="path3055"
         d="m 0,0 595.275,0 0,833.017 L 0,833.017 0,0 z"
         inkscape:connector-curvature="0" />
    </clipPath>
    <linearGradient
       id="linearGradient3177-4"
       spreadMethod="pad"
       gradientTransform="matrix(29.76947,69.123978,69.123978,-29.76947,273.3721,709.24316)"
       gradientUnits="userSpaceOnUse"
       y2="0"
       x2="1"
       y1="0"
       x1="0">
      <stop
         id="stop3179-0"
         offset="0"
         style="stop-opacity:1;stop-color:#005d28" />
      <stop
         id="stop3181-9"
         offset="0.5"
         style="stop-opacity:1;stop-color:#66c430" />
      <stop
         id="stop3183-4"
         offset="1"
         style="stop-opacity:1;stop-color:#007a38" />
    </linearGradient>
    <linearGradient
       y2="0"
       x2="1"
       y1="0"
       x1="0"
       spreadMethod="pad"
       gradientTransform="matrix(29.76947,69.123978,69.123978,-29.76947,273.3721,709.24316)"
       gradientUnits="userSpaceOnUse"
       id="linearGradient3354"
       xlink:href="#linearGradient3177-4"
       inkscape:collect="always" />
    <radialGradient
       inkscape:collect="always"
       xlink:href="#radialGradient3155"
       id="radialGradient3391"
       gradientUnits="userSpaceOnUse"
       gradientTransform="matrix(40.583801,40.672836,-40.672836,40.583801,134.55956,175.61809)"
       spreadMethod="pad"
       cx="0"
       cy="0"
       fx="0"
       fy="0"
       r="1" />
    <radialGradient
       id="radialGradient3199-8"
       spreadMethod="pad"
       gradientTransform="matrix(50.325119,0,0,-50.325119,337.15302,735.11539)"
       gradientUnits="userSpaceOnUse"
       r="1"
       cy="0"
       cx="0"
       fy="0"
       fx="0">
      <stop
         id="stop3201-8"
         offset="0"
         style="stop-opacity:1;stop-color:#4dc6f4" />
      <stop
         id="stop3203-2"
         offset="0.8022"
         style="stop-opacity:1;stop-color:#2157a3" />
      <stop
         id="stop3205-4"
         offset="1"
         style="stop-opacity:1;stop-color:#2157a3" />
    </radialGradient>
    <radialGradient
       r="1"
       fy="0"
       fx="0"
       cy="0"
       cx="0"
       spreadMethod="pad"
       gradientTransform="matrix(50.325119,0,0,-50.325119,337.15302,735.11539)"
       gradientUnits="userSpaceOnUse"
       id="radialGradient3389"
       xlink:href="#radialGradient3199-8"
       inkscape:collect="always" />
  </defs>
  <sodipodi:namedview
     id="base"
     pagecolor="#ffffff"
     bordercolor="#666666"
     borderopacity="1.0"
     inkscape:pageopacity="0.0"
     inkscape:pageshadow="2"
     inkscape:zoom="1.4"
     inkscape:cx="5.0338289"
     inkscape:cy="215.13964"
     inkscape:document-units="px"
     inkscape:current-layer="g3411"
     showgrid="false"
     fit-margin-top="9"
     fit-margin-right="18"
     fit-margin-bottom="9"
     fit-margin-left="18"
     inkscape:window-width="2560"
     inkscape:window-height="1305"
     inkscape:window-x="0"
     inkscape:window-y="0"
     inkscape:window-maximized="1" />
  <metadata
     id="metadata7">
    <rdf:RDF>
      <cc:Work
         rdf:about="">
        <dc:format>image/svg+xml</dc:format>
        <dc:type
           rdf:resource="http://purl.org/dc/dcmitype/StillImage" />
        <dc:title />
      </cc:Work>
    </rdf:RDF>
  </metadata>
  <g
     inkscape:label="Calque 1"
     inkscape:groupmode="layer"
     id="layer1"
     transform="translate(-48.201442,-127.25004)">
    <g
       transform="matrix(1.25,0,0,-1.25,-240.6183,1115.2552)"
       inkscape:label="rio 2016"
       id="g2993">
      <g
         id="g3049">
        <g
           clip-path="url(#clipPath3053)"
           id="g3051">
          <g
             transform="translate(162.9026,813.7717)"
             id="g3057" />
        </g>
      </g>
      <g
         id="g3165">
        <g
           id="g3167">
          <g
             id="g3173">
            <g
               id="g3175" />
          </g>
        </g>
      </g>
      <g
         id="g3187">
        <g
           id="g3189">
          <g
             id="g3195">
            <g
               id="g3197" />
          </g>
        </g>
      </g>
      <g
         id="g3411"
         transform="matrix(1.2715068,0,0,1.2715068,-66.642931,-212.64529)">
        <g
           id="g3044">
          <g
             id="g3115">
            <g
               clip-path="url(#clipPath3119)"
               id="g3117">
              <g
                 transform="translate(286.9022,650.9248)"
                 id="g3123">
                <path
                   id="path3125"
                   style="fill:#117fcd;fill-opacity:1;fill-rule:nonzero;stroke:none"
                   d="m 0,0 c -0.455,6.079 -5.526,10.87 -11.721,10.87 -6.493,0 -11.755,-5.265 -11.755,-11.758 0,-6.493 5.262,-11.755 11.755,-11.755 0.351,0 0.698,0.017 1.04,0.047 -0.021,0.293 -0.036,0.587 -0.036,0.888 0,0.368 0.019,0.729 0.052,1.088 -0.348,-0.037 -0.699,-0.06 -1.056,-0.06 -5.407,0 -9.792,4.386 -9.792,9.792 0,5.408 4.385,9.791 9.792,9.791 5.224,0 9.478,-4.09 9.765,-9.24 0.011,-0.185 0.028,-0.364 0.028,-0.551 0,-0.524 -0.054,-1.036 -0.133,-1.536 -0.574,-3.638 -3.144,-6.606 -6.558,-7.745 -0.08,-0.503 -0.133,-1.015 -0.133,-1.539 0,-0.188 0.017,-0.368 0.028,-0.548 4.702,1.234 8.253,5.309 8.708,10.282 0.034,0.357 0.053,0.719 0.053,1.086 C 0.037,-0.587 0.022,-0.293 0,0"
                   inkscape:connector-curvature="0" />
              </g>
              <g
                 transform="translate(297.7045,638.6206)"
                 id="g3127">
                <path
                   id="path3129"
                   style="fill:#f9a91f;fill-opacity:1;fill-rule:nonzero;stroke:none"
                   d="m 0,0 c -0.31,-5.131 -4.557,-9.194 -9.763,-9.194 -5.222,0 -9.478,4.091 -9.764,9.242 -0.01,0.18 -0.027,0.361 -0.027,0.548 0,0.525 0.053,1.036 0.133,1.539 0.574,3.637 3.144,6.603 6.558,7.746 0.079,0.499 0.133,1.011 0.133,1.535 0,0.187 -0.017,0.366 -0.028,0.552 -4.703,-1.238 -8.253,-5.312 -8.709,-10.284 -0.033,-0.358 -0.052,-0.72 -0.052,-1.088 0,-0.301 0.015,-0.595 0.036,-0.888 0.454,-6.075 5.526,-10.869 11.72,-10.869 6.181,0 11.246,4.773 11.719,10.834 C 1.286,-0.272 0.633,-0.165 0,0 m -10.818,10.33 c 0.034,0.357 0.053,0.72 0.053,1.086 0,0.301 -0.015,0.595 -0.037,0.888 0.342,0.03 0.689,0.048 1.039,0.048 0.331,0 0.656,-0.018 0.98,-0.043 0.668,-0.055 1.321,-0.163 1.955,-0.327 4.747,-1.218 8.331,-5.326 8.775,-10.339 -0.706,0.073 -1.387,0.222 -2.04,0.434 -0.563,3.687 -3.172,6.699 -6.641,7.828 -0.654,0.213 -1.335,0.362 -2.039,0.433 -0.327,0.032 -0.656,0.05 -0.99,0.05 -0.357,0 -0.709,-0.02 -1.055,-0.058"
                   inkscape:connector-curvature="0" />
              </g>
              <g
                 transform="translate(312.3561,650.9569)"
                 id="g3131">
                <path
                   id="path3133"
                   style="fill:#231f20;fill-opacity:1;fill-rule:nonzero;stroke:none"
                   d="m 0,0 c -0.487,6.05 -5.545,10.807 -11.718,10.807 -6.182,0 -11.246,-4.774 -11.717,-10.834 0.668,-0.056 1.322,-0.163 1.955,-0.328 0.311,5.131 4.555,9.196 9.762,9.196 5.203,0 9.444,-4.06 9.761,-9.182 0.012,-0.203 0.033,-0.402 0.033,-0.61 0,-0.501 -0.051,-0.993 -0.124,-1.476 -0.554,-3.661 -3.133,-6.656 -6.562,-7.804 -0.077,-0.483 -0.124,-0.972 -0.124,-1.475 0,-0.206 0.017,-0.408 0.03,-0.61 4.714,1.247 8.266,5.348 8.696,10.343 0.03,0.336 0.048,0.678 0.048,1.022 C 0.04,-0.629 0.025,-0.313 0,0 m -10.653,-10.681 c -0.03,-0.34 -0.048,-0.679 -0.048,-1.025 0,-0.323 0.018,-0.638 0.044,-0.952 -0.35,-0.031 -0.703,-0.049 -1.061,-0.049 -0.33,0 -0.656,0.016 -0.978,0.043 -0.67,0.056 -1.322,0.163 -1.956,0.328 -4.747,1.216 -8.331,5.326 -8.773,10.337 0.704,-0.071 1.385,-0.22 2.039,-0.433 0.561,-3.686 3.171,-6.699 6.641,-7.827 0.653,-0.212 1.334,-0.362 2.04,-0.434 0.324,-0.032 0.653,-0.049 0.987,-0.049 0.361,0 0.716,0.023 1.065,0.061"
                   inkscape:connector-curvature="0" />
              </g>
              <g
                 transform="translate(323.1744,638.6498)"
                 id="g3135">
                <path
                   id="path3137"
                   style="fill:#00a650;fill-opacity:1;fill-rule:nonzero;stroke:none"
                   d="m 0,0 c -0.31,-5.125 -4.554,-9.191 -9.761,-9.191 -5.203,0 -9.445,4.062 -9.761,9.182 -0.013,0.202 -0.03,0.404 -0.03,0.61 0,0.503 0.047,0.992 0.124,1.475 0.553,3.664 3.13,6.659 6.562,7.804 0.073,0.484 0.124,0.975 0.124,1.476 0,0.208 -0.021,0.407 -0.033,0.61 -4.712,-1.245 -8.263,-5.347 -8.696,-10.34 -0.03,-0.34 -0.048,-0.679 -0.048,-1.025 0,-0.323 0.018,-0.638 0.043,-0.952 0.483,-6.045 5.543,-10.804 11.715,-10.804 6.18,0 11.244,4.77 11.718,10.829 C 1.286,-0.27 0.633,-0.161 0,0 m -10.827,10.334 c 0.031,0.336 0.049,0.678 0.049,1.022 0,0.322 -0.015,0.638 -0.04,0.951 0.346,0.031 0.7,0.052 1.057,0.052 0.33,0 0.655,-0.019 0.98,-0.046 0.67,-0.053 1.322,-0.161 1.955,-0.325 4.747,-1.221 8.33,-5.332 8.773,-10.342 -0.706,0.071 -1.387,0.22 -2.04,0.432 -0.559,3.69 -3.169,6.704 -6.639,7.833 -0.652,0.211 -1.334,0.363 -2.039,0.43 -0.327,0.035 -0.656,0.051 -0.99,0.051 -0.361,0 -0.714,-0.02 -1.066,-0.058"
                   inkscape:connector-curvature="0" />
              </g>
              <g
                 transform="translate(326.1107,661.7951)"
                 id="g3139">
                <path
                   id="path3141"
                   style="fill:#ee2049;fill-opacity:1;fill-rule:nonzero;stroke:none"
                   d="m 0,0 c -6.18,0 -11.244,-4.772 -11.718,-10.832 0.671,-0.053 1.323,-0.162 1.956,-0.325 0.312,5.125 4.555,9.19 9.762,9.19 5.408,0 9.791,-4.383 9.791,-9.791 0,-5.406 -4.383,-9.792 -9.791,-9.792 -0.334,0 -0.663,0.017 -0.99,0.05 -0.706,0.071 -1.387,0.221 -2.04,0.432 -3.469,1.13 -6.079,4.144 -6.638,7.834 -0.653,0.21 -1.334,0.362 -2.04,0.429 0.441,-5.009 4.026,-9.12 8.772,-10.34 0.633,-0.162 1.285,-0.27 1.956,-0.326 0.322,-0.025 0.651,-0.043 0.98,-0.043 6.494,0 11.758,5.263 11.758,11.756 C 11.758,-5.265 6.494,0 0,0"
                   inkscape:connector-curvature="0" />
              </g>
            </g>
          </g>
          <path
             sodipodi:nodetypes="ccccccccccccccccccccccccccccccccccccccccccccccccccccccccccccccccccccccccccccsccccccccccccccccsscccccccccscc"
             inkscape:connector-curvature="0"
             d="m 270.1398,689.775 c 0.055,1.445 1.232,2.615 2.63,2.616 1.399,0 2.493,-1.171 2.442,-2.616 -0.052,-1.446 -1.231,-2.615 -2.628,-2.615 -1.4,0.003 -2.495,1.169 -2.444,2.615 m 18.575,-13.904 c -2.852,-0.046 -5.576,4.436 -5.34,7.36 0.107,1.32 0.823,2.317 2.335,2.312 2.883,-0.01 5.396,-4.017 5.296,-6.742 -0.053,-1.482 -0.655,-2.905 -2.291,-2.93 m -1.248,13.686 c -2.438,0.089 -4.649,-1.256 -6.091,-3.321 -0.753,-1.079 -1.831,-2.962 -3.043,-5.078 -1.559,-2.723 -3.13,-5.423 -4.245,-5.404 -0.695,0.013 -0.897,0.681 -0.932,1.481 -0.095,2.085 0.039,4.149 0.023,6.231 -0.003,0.576 0.034,1.022 -0.388,1.298 -0.634,0.412 -2.027,0.422 -2.885,-0.681 -1.775,-2.287 -3.523,-4.722 -5.521,-6.825 -0.839,-0.884 -1.766,-1.542 -2.999,-1.544 -0.802,0 -1.338,0.126 -2.177,1.111 -1.147,1.344 -2.194,3.573 -2.602,4.615 -0.066,0.171 0.023,0.214 0.09,0.234 4.563,1.331 10.1,4.292 10.02,10.014 -0.056,3.895 -2.961,6.393 -6.889,6.527 -4.444,0.149 -8.684,-2.028 -11.216,-5.681 -4.207,-6.071 -3.399,-13.887 -2.166,-19.26 0.159,-0.698 0.708,-0.995 1.337,-0.995 1.504,0.003 3.269,1.82 2.86,3.342 -2.146,7.966 -1.592,12.465 0.501,15.366 1.428,1.977 3.989,3.255 6.456,3.278 2.649,0.027 5.46,-1.152 5.385,-4.224 -0.094,-3.797 -4.908,-4.972 -7.965,-5.265 -0.845,-0.08 -1.678,-0.386 -2.212,-1.095 -0.709,-0.939 -0.644,-2.083 -0.303,-3.25 0.599,-2.055 1.52,-3.649 2.652,-5.466 0.942,-1.511 2.608,-3.065 4.554,-3.164 2.866,-0.141 4.584,1.633 6.175,3.374 1.079,1.178 1.975,2.358 3.011,3.598 0.074,0.087 0.104,0.046 0.104,-0.025 -0.045,-3.13 -0.027,-7.033 3.638,-6.947 1.987,0.048 3.324,1.473 4.466,2.873 0.948,1.161 1.759,2.581 2.584,3.986 0.06,0.088 0.097,0.129 0.13,-0.002 0.771,-3.36 3.585,-6.772 7.238,-6.857 4.958,-0.111 8.03,5.196 7.724,9.502 -0.269,3.812 -3.118,8.105 -7.314,8.254 m 33.003,-13.699 c -3.339,-0.007 -5.497,2.894 -5.503,5.897 -0.005,2.197 1.23,3.806 3.554,3.811 3.338,0.009 5.552,-2.949 5.557,-5.954 0.003,-2.195 -1.285,-3.749 -3.608,-3.754 m -0.094,13.699 c -4.571,-0.018 -8.218,-3.93 -9.015,-8.176 -0.311,-1.666 -0.979,-2.711 -2.232,-3.803 -1.528,-1.335 -3.341,-1.917 -5.286,-1.895 -0.945,0.01 -2.471,0.304 -2.673,1.522 -0.12,0.703 0.445,1.391 0.954,1.909 0.929,0.945 1.629,1.538 2.586,2.454 1.562,1.492 3.004,2.766 4.368,4.488 1.547,1.95 2.645,4.093 2.52,6.303 -0.192,3.443 -2.746,5.676 -6.346,5.661 -2.498,-0.011 -4.834,-1.015 -6.636,-2.607 -0.385,-0.339 -0.757,-0.792 -1.003,-1.286 -0.194,-0.382 -0.312,-0.79 -0.307,-1.185 0.007,-0.622 0.57,-1.171 1.173,-1.173 0.436,0 0.929,0.198 1.44,0.63 1.025,0.871 2.345,1.604 3.718,1.655 2.65,0.1 3.888,-1.581 3.966,-3.381 0.06,-1.397 -0.552,-2.589 -1.382,-3.634 -1.169,-1.464 -2.287,-2.416 -3.636,-3.647 -1.193,-1.085 -2.27,-2.009 -3.356,-3.135 -1.306,-1.349 -2.297,-2.673 -2.219,-4.511 0.113,-2.649 2.783,-3.927 5.064,-3.945 3.697,-0.028 7.305,2.083 9.715,4.76 0.035,0.039 0.066,0.062 0.092,-0.002 1.165,-2.807 3.795,-4.758 6.866,-4.758 5.152,0 9.156,5.089 9.077,9.896 -0.068,4.059 -3.219,7.878 -7.448,7.86 m 31.293,-12.124 c -0.53,-0.993 -1.6,-1.53 -2.682,-1.587 -3.225,-0.17 -5.341,2.545 -5.923,5.752 1.281,0.77 2.758,1.29 4.272,1.286 1.539,-0.008 2.891,-0.673 3.721,-1.688 0.85,-1.036 1.27,-2.526 0.612,-3.763 m -2.511,9.459 c -2.105,0.002 -4.178,-0.643 -6.094,-1.85 0.874,3.47 3.326,6.113 6.494,8.029 1.108,0.67 2.222,1.315 2.684,2.552 0.254,0.688 0.182,1.716 -0.752,1.784 -0.651,0.05 -1.304,-0.326 -1.841,-0.624 -5.463,-3.066 -9.615,-8.038 -10.444,-14.311 -1.457,-1.451 -2.735,-2.883 -4.044,-4.589 -0.011,-0.013 -0.015,-0.005 -0.015,0.002 l 0,11.376 c 0,0.785 -0.454,1.088 -1.007,1.075 -0.49,-0.01 -1.185,-0.348 -1.534,-0.569 l -2.595,-1.641 c -0.844,-0.536 -1.161,-0.968 -1.085,-1.677 0.126,-1.212 1.493,-1.366 2.493,-0.784 l 0.002,-12.626 c 0,-0.522 0.282,-1.023 0.876,-1.02 0.541,0.003 0.997,0.296 1.529,0.822 1.705,1.696 3.474,3.984 5.57,6.013 0.754,-3.816 3.723,-7.053 7.865,-7.053 4.609,0 8.416,4.379 8.387,8.693 -0.025,3.548 -2.94,6.398 -6.489,6.398"
             style="fill:#134785;fill-opacity:1;fill-rule:nonzero;stroke:none"
             id="path3219" />
          <g
             id="g3035">
            <g
               id="g3143">
              <g
                 id="g3145">
                <g
                   id="g3151">
                  <g
                     id="g3153">
                    <path
                       id="path3163"
                       transform="matrix(0.8,0,0,-0.8,192.49464,892.20416)"
                       d="m 121.5,136.25 c -0.46,0 -0.9325,0.0213 -1.40625,0.0625 -5.44375,0.44 -10.48,2.9025 -15.1875,6.125 -14.97375,10.26 -26.92,29.945 -29.53125,48.21875 -1.155,8.0325 -0.81,16.1 2.34375,23.46875 5.58875,11.68875 18.97875,11 27.3125,5.1875 4.14,-2.89 8.02375,-6.46625 11.78125,-9.6875 1.15875,-0.99625 2.305,-1.8825 3.40625,-2.71875 2.51706,2.60001 5.2384,5.4365 8.25,8.625 12.245,12.9475 26.05,18.02 37.9375,18.1875 15.495,0.20125 31.955,-10.075 31.96875,-27.59375 0.0137,-15.495 -13.82625,-30.12375 -26.9375,-34.65625 -1.15,-0.44875 -2.285,-0.82 -3.375,-1.125 -4.49875,-1.25625 -9.14625,-2.05875 -15.03125,-2.34375 -1.97125,-0.095 -2.3075,-0.1125 -4.59375,-0.0937 -0.8225,0 -2.6075,0.11 -2.9375,0.0937 -0.52375,-0.0263 -0.84375,-0.26625 -0.5625,-1.0625 1.36375,-3.85 0.53875,-7.0475 -2.5625,-7.8125 -3.0675,-0.7525 -5.13375,2.395 -5.96875,4.15625 -0.54125,1.17125 -1.6,1.7675 -1.375,-0.1875 0.855,-7.67375 -1.01875,-19.715 -6.09375,-24.375 C 126.80875,136.9225 124.215,136.25 121.5,136.25 z m -1.46875,3.9375 c 0.27186,-0.0132 0.53772,-0.01 0.8125,0 0.63907,0.0225 1.28016,0.12734 1.9375,0.28125 8.48,1.98375 6.7875,25.96625 0.625,41.90625 -0.91,2.36375 -2.38125,5.42875 -4.1875,8.75 -3.71976,-5.86314 -7.9108,-11.28274 -14.5,-15.78125 -0.5075,-0.34875 -0.85875,-0.71625 -0.84375,-1.125 0.035,-0.94125 0.66875,-1.065 1.34375,-3.34375 0.82,-2.735 0.70375,-5.915 -2.25,-6.875 -2.30875,-0.76125 -4.0975,0.0962 -5.53125,1.78125 -0.3425,0.40875 -0.7325,1.3675 -1.09375,1.03125 -0.335,-0.175 0.2575,-1.68875 0.375,-2.03125 2.413367,-6.54324 6.40945,-12.88712 11.46875,-18.03125 0.026,-0.0264 0.0677,-0.0361 0.0937,-0.0625 3.89969,-3.58416 7.67206,-6.30225 11.75,-6.5 z M 159,174.9375 c 2.74434,0.0202 5.425,0.34062 7.75,0.84375 8.67244,1.87307 21.26672,8.51965 20.96875,18.8125 -9e-4,0.0312 0.001,0.0625 0,0.0937 -0.002,0.0101 0.002,0.0212 0,0.0312 -0.41,2.415 -0.9225,2.9575 -2.34375,1.78125 -1.47875,-1.2325 -3.97125,-1.9325 -5.78125,-0.0312 -3.15281,3.30244 -0.45346,7.72114 -1.53125,13.0625 -6.91823,0.0656 -15.85597,-2.5599 -23.21875,-6.6875 -8.98125,-5.03745 -14.165,-11.9612 -13.5625,-17.8437 0.76125,-7.58531 9.48574,-10.12314 17.71875,-10.0625 z m 22.1875,3.65625 c 0.46611,0.48168 0.91574,0.93527 1.34375,1.4375 0.84661,0.99342 1.60806,2.03672 2.28125,3.09375 -0.67413,-1.05559 -1.43402,-2.10176 -2.28125,-3.09375 -0.42362,-0.496 -0.88293,-0.96156 -1.34375,-1.4375 z m -81.4375,13.125 c 4.30427,-0.18892 7.77199,2.63142 13.9375,8.5625 -6.0725,9.055 -13.63375,17.35 -19.625,17.1875 -2.940224,-0.0782 -4.301044,-1.69811 -5.34375,-3.8125 -0.02071,-0.0527 -0.04236,-0.10322 -0.0625,-0.15625 -3.027876,-7.9411 0.384342,-19.86356 9.0625,-21.46875 0.708438,-0.16469 1.377161,-0.28379 2.03125,-0.3125 z m 34.59375,9.40625 c 4.46844,0.0933 9.13281,2.15391 14.59375,6.59375 3.50125,2.84125 8.94,8.225 14.28125,14.15625 -4.72278,0.82734 -9.9895,0.5521 -14.9375,-0.40625 -3.38231,-0.82303 -6.19335,-2.14894 -8.46875,-3.625 -5.4434,-3.52629 -9.80597,-8.97734 -13.4375,-14.84375 2.68641,-1.28766 5.28768,-1.93097 7.96875,-1.875 z m -16.65625,2.84375 c 1.86045,1.64972 3.64189,3.18032 5.375,4.59375 -1.73337,-1.41124 -3.51424,-2.94505 -5.375,-4.59375 z m 26.09375,16.4375 c 0.38989,0.11214 0.7902,0.20835 1.1875,0.3125 -0.39998,-0.10484 -0.79498,-0.19957 -1.1875,-0.3125 z m 22.46875,0.75 c -0.45923,0.13783 -0.93269,0.26212 -1.40625,0.375 -0.48245,0.115 -0.94211,0.22244 -1.4375,0.3125 0.48224,-0.0878 0.9673,-0.20133 1.4375,-0.3125 0.47858,-0.11316 0.94207,-0.23662 1.40625,-0.375 z"
                       style="fill:url(#radialGradient3391);stroke:none"
                       inkscape:connector-curvature="0" />
                  </g>
                </g>
              </g>
            </g>
            <path
               inkscape:connector-curvature="0"
               d="m 288.581,783.144 c -4.355,-0.352 -8.402,-2.306 -12.168,-4.884 l 0,0 c -11.979,-8.208 -21.517,-23.967 -23.606,-38.586 l 0,0 c -0.924,-6.426 -0.669,-12.865 1.854,-18.76 l 0,0 c 4.471,-9.351 15.191,-8.813 21.858,-4.163 l 0,0 c -17.29,-6.571 -17.682,19.65 -5.853,21.838 l 0,0 c 4.534,1.054 7.348,-1.355 13.701,-7.516 l 0,0 c 6.193,-5.662 11.381,-9.771 16.326,-12.46 l 0,0 c 2.875,-1.565 6.698,-2.901 10.756,-3.653 l 0,0 c -2.852,0.651 -5.22,1.734 -7.113,2.962 l 0,0 c -4.384,2.84 -7.881,7.25 -10.798,11.979 l 0,0 c -5.084,8.22 -8.611,16.11 -17.275,22.025 l 0,0 c -0.406,0.279 -0.686,0.568 -0.674,0.895 l 0,0 c 0.028,0.753 0.535,0.863 1.075,2.686 l 0,0 c 0.656,2.188 0.574,4.727 -1.789,5.495 l 0,0 c -1.847,0.609 -3.279,-0.083 -4.426,-1.431 l 0,0 c -0.274,-0.327 -0.58,-1.082 -0.869,-0.813 l 0,0 c -0.268,0.14 0.206,1.359 0.3,1.633 l 0,0 c 3.013,8.169 9.08,15.925 16.714,20.303 l 0,0 c 3.246,1.865 6.239,2.332 9.062,0.528 l 0,0 c -1.703,1.437 -3.784,1.972 -5.956,1.972 l 0,0 c -0.368,0 -0.74,-0.017 -1.119,-0.05"
               style="fill:url(#linearGradient3354);stroke:none"
               id="path3185" />
            <path
               inkscape:connector-curvature="0"
               d="m 342.663,736.438 c -0.328,-1.932 -0.728,-2.377 -1.865,-1.436 l 0,0 c -1.183,0.986 -3.168,1.553 -4.616,0.032 l 0,0 c -3.54,-3.708 2.157,-9.18 -4.248,-15.974 l 0,0 c -7.072,-7.514 -23.025,-4.919 -31.241,-0.447 l 0,0 c -4.945,2.689 -10.133,6.798 -16.327,12.46 l 0,0 c 2.952,-2.967 6.636,-6.784 10.892,-11.29 l 0,0 c 9.796,-10.358 20.856,-14.423 30.366,-14.557 l 0,0 c 12.396,-0.161 25.556,8.053 25.567,22.068 l 0,0 c 0.011,12.396 -11.051,24.115 -21.54,27.741 l 0,0 c 7.673,-3.81 14.218,-11.53 13.012,-18.597"
               style="fill:url(#radialGradient3389);stroke:none"
               id="path3207" />
          </g>
          <path
             sodipodi:nodetypes="cccccccccccccccccccccccccccccccc"
             inkscape:connector-curvature="0"
             d="m 364.3878,671.801 -0.36101,2.502 c -0.065,0.455 -0.10299,0.78 -0.12099,0.979 l -0.008,0 c -0.036,-0.142 -0.094,-0.352 -0.188,-0.607 l -0.97,-2.874 -0.44,0 -0.925,2.695 c -0.101,0.297 -0.173,0.558 -0.237,0.786 l -0.007,0 c -0.016,-0.298 -0.056,-0.615 -0.104,-1.014 l -0.291,-2.467 -0.383,0 0.538,3.862 0.482,0 0.938,-2.745 c 0.061,-0.197 0.151,-0.476 0.222,-0.74 l 0.005,0 c 0.069,0.259 0.127,0.451 0.21401,0.686 l 0.957,2.799 0.49999,0 0.569,-3.862 z m -5.984,3.559 0,-3.559 -0.366,0 0,3.559 -1.201,0 0,0.303 2.76299,0 0,-0.303 z"
             style="fill:#134785;fill-opacity:1;fill-rule:nonzero;stroke:none"
             id="path3219-5" />
        </g>
      </g>
    </g>
  </g>
</svg>
