<?xml version="1.0" encoding="utf-8"?>
<!-- Generator: Adobe Illustrator 15.0.0, SVG Export Plug-In . SVG Version: 6.00 Build 0)  -->
<svg version="1.2" baseProfile="tiny" id="Layer_1" xmlns="http://www.w3.org/2000/svg" xmlns:xlink="http://www.w3.org/1999/xlink"
	 x="0px" y="0px" width="120.877px" height="135.029px" viewBox="0 0 120.877 135.029" xml:space="preserve">
<path fill="#CCCCCC" d="M43.765,57.16l-8.313,12.976c-3.854-1.996-6.856-4.032-9.003-6.1c-5-4.93-7.501-10.837-7.501-17.732
	c0-6.443,2.196-12.069,6.589-16.881c4.396-4.803,10.041-7.759,16.945-8.864v15.457c-4.869,1.861-7.305,5.259-7.305,10.185
	c0,2.519,0.66,4.62,1.984,6.307C38.48,54.199,40.681,55.75,43.765,57.16z"/>
<path fill="#CCCCCC" d="M30.483,111.739l-9.109-13.057l30.031-42.97c2.416-4.032,3.623-7.374,3.623-10.029
	c0-2.34-0.605-4.352-1.818-6.025c-1.213-1.668-2.965-2.9-5.25-3.694V20.559c5.405,0.794,10.138,3.121,14.203,6.979
	c5.269,4.996,7.905,11.115,7.905,18.353c0,2.688-0.434,5.325-1.293,7.91c-0.859,2.584-2.308,5.602-4.338,9.047L30.483,111.739z"/>
<path fill="#CCCCCC" d="M93.251,67.138l8.313-12.976c3.854,1.996,6.856,4.032,9.003,6.1c5,4.93,7.501,10.836,7.501,17.731
	c0,6.443-2.196,12.07-6.589,16.883c-4.396,4.803-10.041,7.758-16.945,8.863V88.282c4.869-1.861,7.305-5.26,7.305-10.186
	c0-2.518-0.66-4.619-1.984-6.307C98.535,70.099,96.335,68.548,93.251,67.138z"/>
<path fill="#CCCCCC" d="M70.105,82.522c-1.545-0.521-2.595-0.651-2.595-0.651c-0.215-1.354-0.322-2.75-0.322-4.189
	c0-2.688,0.445-5.324,1.329-7.91c0.884-2.584,2.372-5.602,4.459-9.047l34.905-48.891l9.364,13.057l-30.872,42.97
	c-2.483,4.031-3.725,7.373-3.725,10.029c0,2.34,0.623,4.352,1.869,6.025l-14.44-1.31"/>
<circle fill="#CCCCCC" cx="79.217" cy="15.333" r="15.333"/>
<polygon fill="#CCCCCC" points="19.249,6.073 35.038,6.073 19.249,21.862 "/>
<path fill="#CCCCCC" d="M52.217,95.858l6.903-1.197l3.381-6.48l-3.24-2.254c0,0-4.72,1.197-8.03,5.775L52.217,95.858z"/>
<polygon fill="#CCCCCC" points="60.244,96.846 67.922,96.846 70.246,104.172 64.118,108.82 57.99,104.313 "/>
<path fill="#CCCCCC" d="M76.609,95.585l-6.903-1.197l-3.381-6.48l3.24-2.254c0,0,4.72,1.197,8.03,5.775L76.609,95.585z"/>
<path fill="#CCCCCC" d="M50.064,100.001l5.203,4.691l-0.592,7.285l-3.943,0.18c0,0-3.355-3.527-3.719-9.166L50.064,100.001z"/>
<path fill="#CCCCCC" d="M78.004,100.09l-5.032,4.875l0.853,7.26l3.947,0.039c0,0,3.228-3.646,3.389-9.293L78.004,100.09z"/>
<path fill="#CCCCCC" d="M57.589,114.918l5.974-3.174l6.417,2.939l-1.139,3.639c0,0-4.308,1.881-9.544,0.35L57.589,114.918z"/>
<path fill="#FF0000" d="M0,102.337h2.726v5.059c0,1.102,0.309,1.955,0.927,2.561c0.617,0.605,1.53,0.906,2.736,0.906v-8.525h2.726
	v8.525c1.308,0,2.226-0.223,2.756-0.672c0.529-0.449,0.841-0.867,0.936-1.254c0.093-0.389,0.142-0.902,0.142-1.541v-5.059h2.726
	v5.182c0,0.979-0.091,1.813-0.272,2.498c-0.183,0.688-0.551,1.377-1.101,2.07c-0.757,0.83-1.664,1.418-2.724,1.764
	c-1.062,0.348-2.21,0.521-3.446,0.521l-0.937-0.041c-0.567,0-1.121-0.055-1.658-0.164c-0.538-0.107-1.045-0.244-1.526-0.408
	c-0.48-0.162-0.901-0.352-1.264-0.57c-0.364-0.217-0.77-0.537-1.221-0.959s-0.781-0.932-0.992-1.529
	c-0.212-0.6-0.352-1.158-0.426-1.684C0.038,108.493,0,107.966,0,107.437V102.337z"/>
<path fill="#FF0000" d="M15.675,96.44v3.16H0v-4.547l12.013-3.711L0,87.612v-4.506h15.675v3.029l-12.191-0.24l12.191,3.732v3.283
	L3.374,96.765L15.675,96.44z"/>
<path fill="#FF0000" d="M0,80.081v-3.215h15.675v3.215H0z"/>
<path fill="#FF0000" d="M15.675,71.696v3.082H0v-7.561c0-0.381,0.021-0.771,0.065-1.172c0.043-0.401,0.128-0.849,0.25-1.346
	c0.123-0.495,0.414-0.96,0.871-1.395c0.458-0.435,0.983-0.754,1.579-0.959c0.638-0.175,1.293-0.265,1.961-0.265
	c0.739,0,1.406,0.102,2.001,0.307c0.611,0.231,1.115,0.558,1.517,0.979c0.397,0.421,0.684,0.972,0.859,1.651l6.572-3.623v3.447
	l-6.134,3.244v3.609H15.675z M2.811,67.935v3.762h3.948v-3.762c0-0.555-0.037-1.02-0.108-1.393
	c-0.074-0.373-0.262-0.702-0.564-0.987c-0.304-0.244-0.744-0.366-1.323-0.366c-0.839,0-1.373,0.241-1.605,0.722
	C2.926,66.393,2.811,67.067,2.811,67.935z"/>
<path fill="#FF0000" d="M15.675,57.181v3.264L0,54.285v-3.263l15.675-6.263v3.429l-3.748,1.345v6.385L15.675,57.181z M9.143,54.917
	v-4.385l-5.991,2.222L9.143,54.917z"/>
<path fill="#FF0000" d="M15.675,39.331v3.213H2.754v4.702H0.029V34.603h2.726v4.728H15.675z"/>
<path fill="#FF0000" d="M0,21.054h2.726v5.059c0,1.101,0.309,1.956,0.927,2.56c0.617,0.605,1.53,0.908,2.736,0.908v-8.526h2.726
	v8.526c1.308,0,2.226-0.224,2.756-0.673c0.529-0.448,0.841-0.866,0.936-1.253c0.093-0.388,0.142-0.902,0.142-1.541v-5.059h2.726
	v5.182c0,0.979-0.091,1.811-0.272,2.498c-0.183,0.688-0.551,1.376-1.101,2.071c-0.757,0.83-1.664,1.417-2.724,1.764
	c-1.062,0.347-2.21,0.52-3.446,0.52l-0.937-0.04c-0.567,0-1.121-0.055-1.658-0.163C5,32.776,4.493,32.64,4.012,32.478
	c-0.48-0.163-0.901-0.353-1.264-0.571c-0.364-0.218-0.77-0.538-1.221-0.96c-0.451-0.421-0.781-0.931-0.992-1.529
	c-0.212-0.599-0.352-1.16-0.426-1.683C0.038,27.211,0,26.684,0,26.153V21.054z"/>
<path fill="#FF0000" d="M0,14.027V5.93h2.811v7.614c0,1.607,0.683,2.411,2.048,2.411c0.582,0,1.003-0.185,1.266-0.551
	c0.289-0.354,0.436-0.823,0.436-1.408v-4.06c0-0.788,0.058-1.489,0.174-2.1c0.13-0.559,0.484-1.133,1.057-1.725
	c0.575-0.591,1.64-0.886,3.194-0.886c0.423,0,0.813,0.03,1.168,0.091c0.358,0.062,0.773,0.183,1.254,0.367
	c0.481,0.182,0.9,0.497,1.264,0.938s0.618,0.967,0.763,1.581c0.161,0.556,0.24,1.276,0.24,2.159v8.196h-2.812V10.85
	c0-0.762-0.119-1.349-0.359-1.763s-0.693-0.621-1.364-0.621h-0.325c-0.452,0.039-0.78,0.149-0.984,0.326
	C9.614,9.023,9.469,9.285,9.393,9.577C9.324,9.87,9.286,10.221,9.286,10.63v3.634c0,1.568-0.35,2.776-1.046,3.627
	c-0.699,0.85-1.867,1.277-3.51,1.277c-0.827,0-1.569-0.13-2.222-0.389c-0.655-0.257-1.16-0.61-1.517-1.062
	c-0.354-0.448-0.605-0.963-0.752-1.55C0.079,15.639,0,14.925,0,14.027z"/>
<path d="M11.505,134.936H9.547l2.75-3.947l-2.662-3.959h1.936l1.628,2.517l1.617-2.517h1.914l-2.541,3.849l2.728,4.058h-1.991
	l-1.661-2.75L11.505,134.936z"/>
<path d="M18.588,127.029h1.734v7.906h-1.734V127.029z"/>
<path d="M25.407,134.936h-1.734v-6.516h-2.531v-1.375h6.813v1.375h-2.547V134.936z"/>
<path d="M29.73,134.936v-7.906h1.656v3.203h3.047v-3.203h1.656v7.906h-1.656v-3.313h-3.047v3.313H29.73z"/>
<path d="M42.614,134.936h-1.76l3.322-7.906h1.76l3.377,7.906h-1.848l-0.726-1.891h-3.443L42.614,134.936z M43.835,131.654H46.2
	l-1.199-3.031L43.835,131.654z"/>
<path d="M53.156,127.029h4.367v1.422h-4.105c-0.866,0-1.299,0.345-1.299,1.033c0,0.293,0.099,0.506,0.297,0.638
	c0.191,0.146,0.444,0.22,0.761,0.22h2.193c0.426,0,0.805,0.029,1.135,0.088c0.301,0.065,0.611,0.243,0.931,0.533
	c0.319,0.289,0.479,0.826,0.479,1.61c0,0.212-0.017,0.408-0.05,0.588s-0.099,0.39-0.198,0.632c-0.099,0.241-0.268,0.454-0.506,0.638
	c-0.239,0.183-0.523,0.311-0.854,0.384c-0.301,0.081-0.69,0.121-1.167,0.121h-4.426v-1.422h4.163c0.411,0,0.729-0.06,0.953-0.181
	c0.224-0.121,0.336-0.349,0.336-0.685v-0.165c-0.022-0.227-0.081-0.391-0.177-0.492c-0.125-0.109-0.267-0.183-0.425-0.22
	c-0.158-0.036-0.348-0.055-0.568-0.055h-1.964c-0.846,0-1.499-0.176-1.958-0.528c-0.46-0.352-0.689-0.942-0.689-1.771
	c0-0.418,0.069-0.792,0.209-1.122c0.139-0.33,0.33-0.585,0.572-0.765s0.521-0.307,0.836-0.38
	C52.287,127.069,52.671,127.029,53.156,127.029z"/>
<path d="M60.12,127.029h1.734v7.906H60.12V127.029z"/>
<path d="M65.184,134.936h-1.761l3.322-7.906h1.76l3.377,7.906h-1.848l-0.726-1.891h-3.443L65.184,134.936z M66.404,131.654h2.365
	l-1.199-3.031L66.404,131.654z"/>
<path d="M75.108,134.936h-1.703v-7.906h2.112l3.223,5.695l-0.069-5.695h1.672v7.906h-1.912l-3.386-5.973L75.108,134.936z"/>
<path d="M93.102,127.029v1.359h-2.736c-0.485,0-0.872,0.115-1.158,0.346c-0.287,0.231-0.471,0.487-0.552,0.769
	c-0.081,0.282-0.14,0.542-0.177,0.78c-0.036,0.237-0.055,0.474-0.055,0.708v0.143v0.121c0,0.103,0.004,0.214,0.011,0.335
	c0.008,0.12,0.022,0.267,0.044,0.438c0.022,0.173,0.071,0.357,0.148,0.555c0.077,0.198,0.186,0.381,0.325,0.549
	c0.184,0.191,0.381,0.31,0.594,0.357s0.488,0.071,0.826,0.071h2.729v1.375h-2.788c-0.526,0-0.975-0.046-1.344-0.138
	c-0.37-0.092-0.741-0.276-1.114-0.555c-0.446-0.382-0.763-0.84-0.949-1.375s-0.279-1.114-0.279-1.737v-0.473
	c0-0.286,0.029-0.564,0.088-0.836c0.059-0.271,0.132-0.527,0.221-0.77c0.088-0.242,0.19-0.454,0.308-0.638s0.29-0.389,0.518-0.616
	c0.228-0.227,0.503-0.394,0.826-0.5c0.322-0.106,0.625-0.178,0.908-0.215c0.282-0.036,0.567-0.055,0.854-0.055H93.102z"/>
<path d="M95.272,131.827v-4.798h1.656v4.754c0,0.146,0.007,0.295,0.021,0.445s0.042,0.323,0.083,0.518
	c0.04,0.194,0.125,0.37,0.253,0.528c0.129,0.157,0.311,0.278,0.545,0.363c0.235,0.084,0.529,0.126,0.882,0.126
	c0.47,0,0.831-0.073,1.085-0.22c0.253-0.146,0.43-0.357,0.528-0.633c0.1-0.275,0.149-0.651,0.149-1.128v-4.754h1.656v4.798
	c0,0.205-0.008,0.411-0.022,0.616c-0.015,0.206-0.033,0.407-0.056,0.605c-0.059,0.33-0.271,0.743-0.635,1.237
	c-0.364,0.496-1.269,0.743-2.712,0.743c-1.465,0-2.369-0.229-2.712-0.688c-0.342-0.459-0.537-0.774-0.585-0.946
	c-0.048-0.173-0.083-0.311-0.105-0.413c-0.021-0.103-0.032-0.22-0.032-0.353c0-0.102,0-0.199,0-0.291s0-0.182,0-0.27V131.827z"/>
<path d="M105.374,134.936h-1.656v-7.906h3.609c0.55,0,1.005,0.024,1.364,0.072s0.679,0.16,0.958,0.337
	c0.366,0.206,0.642,0.509,0.825,0.906c0.183,0.398,0.274,0.826,0.274,1.282c0,0.405-0.071,0.789-0.215,1.15
	c-0.143,0.36-0.349,0.643-0.616,0.846c-0.269,0.202-0.507,0.331-0.716,0.387c-0.21,0.056-0.377,0.096-0.501,0.122
	c-0.125,0.025-0.25,0.038-0.375,0.038h-0.937h-2.016V134.936z M107.306,128.451h-1.932v2.328h2.02c1.008,0,1.512-0.386,1.512-1.158
	c0-0.464-0.142-0.774-0.425-0.933S107.806,128.451,107.306,128.451z"/>
<rect x="0.856" y="123.01" width="119.41" height="1.016"/>
<path fill="#FFCE00" d="M46.573,57.168L38.26,70.144c-3.854-1.996-6.857-4.032-9.002-6.1c-5.001-4.93-7.501-10.837-7.501-17.731
	c0-6.443,2.196-12.069,6.589-16.881c4.397-4.803,10.042-7.759,16.945-8.864v15.457c-4.869,1.861-7.304,5.259-7.304,10.185
	c0,2.519,0.66,4.62,1.983,6.307C41.289,54.208,43.489,55.758,46.573,57.168z"/>
<path fill="#0E949E" d="M33.292,111.747L24.183,98.69l30.031-42.969c2.416-4.032,3.623-7.374,3.623-10.029
	c0-2.34-0.605-4.352-1.818-6.025c-1.213-1.668-2.965-2.9-5.25-3.694V20.567c5.405,0.794,10.138,3.121,14.203,6.979
	c5.269,4.996,7.905,11.115,7.905,18.353c0,2.688-0.434,5.325-1.293,7.91c-0.859,2.584-2.308,5.602-4.338,9.047L33.292,111.747z"/>
<path fill="#0000FF" d="M96.06,67.146l8.313-12.976c3.854,1.996,6.856,4.032,9.003,6.1c5,4.93,7.501,10.837,7.501,17.731
	c0,6.443-2.196,12.069-6.589,16.882c-4.396,4.803-10.041,7.759-16.945,8.863V88.29c4.869-1.861,7.305-5.259,7.305-10.185
	c0-2.519-0.66-4.619-1.984-6.307C101.344,70.106,99.144,68.556,96.06,67.146z"/>
<path fill="#CC25C0" d="M85.12,100.97c-0.75-16.583-15.042-18.365-15.042-18.365c-0.215-1.353-0.322-2.749-0.322-4.189
	c0-2.688,0.445-5.324,1.329-7.909s2.372-5.602,4.459-9.047l34.905-48.892l9.364,13.057L88.941,68.593
	c-2.483,4.032-3.725,7.374-3.725,10.029c0,2.341,0.623,4.353,1.869,6.025c1.247,1.668,3.048,2.899,5.397,3.693v15.406
	c-2.646-0.378-4.992-1.093-7.325-2.166L85.12,100.97z"/>
<circle fill="#0B0B84" cx="82.026" cy="15.342" r="15.333"/>
<polygon fill="#0000FF" points="22.057,6.081 37.847,6.081 22.058,21.87 "/>
<path d="M54.171,94.798l6.903-1.197l3.381-6.48l-3.24-2.254c0,0-4.719,1.197-8.03,5.775L54.171,94.798z"/>
<polygon points="62.482,95.502 70.16,95.502 72.484,102.827 66.356,107.476 60.229,102.968 "/>
<path d="M78.849,94.81l-6.903-1.197l-3.381-6.48l3.24-2.254c0,0,4.72,1.197,8.03,5.775L78.849,94.81z"/>
<path d="M52.659,98.87l5.204,4.692l-0.593,7.285l-3.943,0.18c0,0-3.356-3.527-3.718-9.166L52.659,98.87z"/>
<path d="M80.243,98.889l-5.032,4.875l0.853,7.26l3.947,0.038c0,0,3.228-3.646,3.389-9.293L80.243,98.889z"/>
<path d="M59.756,113.574l5.974-3.175l6.417,2.939l-1.139,3.639c0,0-4.308,1.882-9.544,0.351L59.756,113.574z"/>
</svg>
