<?xml version="1.0" encoding="utf-8"?>
<!-- Generator: Adobe Illustrator 15.0.0, SVG Export Plug-In . SVG Version: 6.00 Build 0)  -->
<svg version="1.2" baseProfile="tiny" id="Layer_1" xmlns="http://www.w3.org/2000/svg" xmlns:xlink="http://www.w3.org/1999/xlink"
	 x="0px" y="0px" width="187.086px" height="139.712px" viewBox="0 0 187.086 139.712" xml:space="preserve">
<g>
	<path fill-rule="evenodd" fill="#FFFFFF" d="M96.831,89.353c24.757,0,44.826-19.993,44.826-44.654
		c0-24.661-20.069-44.654-44.826-44.654S52.003,20.038,52.003,44.699C52.003,69.36,72.074,89.353,96.831,89.353L96.831,89.353z"/>
	<path fill-rule="evenodd" fill="#EE3124" d="M52.741,52.089c3.2,19.291,18.719,34.42,38.201,37.033l-0.114-20.675l-8.678,3.589
		c0,0,0,4.24,0,6.197C57.355,73.667,52.741,52.089,52.741,52.089L52.741,52.089z"/>
	<path fill-rule="evenodd" fill="#0070B9" d="M82.933,64.456c3.059,0,5.537-2.375,5.537-5.307c0-2.93-2.479-5.305-5.537-5.305
		c-3.058,0-5.536,2.375-5.536,5.305C77.396,62.081,79.875,64.456,82.933,64.456L82.933,64.456z"/>
	<path fill-rule="evenodd" fill="#0070B9" d="M85.413,12.985l-0.653,5.873l12.397,5.546l12.724-5.546c0,0-0.979-4.567-0.979-5.546
		C97.483,7.765,85.413,12.985,85.413,12.985L85.413,12.985z"/>
	<path fill-rule="evenodd" fill="#0070B9" d="M128.312,32.926l-5.88-0.581l-5.373,12.613l5.676,12.506c0,0,4.557-1.034,5.535-1.046
		C133.677,44.934,128.312,32.926,128.312,32.926L128.312,32.926z"/>
	<path d="M100.756,78.308c8.236-0.973,15.556-5.02,20.782-11.05c5.127-5.916,8.244-13.748,8.244-22.47
		c0-9.102-3.689-17.342-9.644-23.307c-5.959-5.969-14.19-9.661-23.267-9.661c-8.25,0-15.978,3.049-21.938,8.086
		c-5.961,5.037-10.153,12.059-11.327,20.002c-0.071,0.484-0.143,0.968-1.11,0.827c-0.967-0.141-0.896-0.625-0.825-1.109
		c1.246-8.43,5.687-15.876,12-21.21c6.305-5.327,14.478-8.552,23.2-8.552c9.612,0,18.333,3.915,24.65,10.242
		c6.309,6.32,10.218,15.046,10.218,24.683c0,9.208-3.3,17.485-8.727,23.747c-5.541,6.395-13.3,10.684-22.028,11.715
		c-0.485,0.059-0.972,0.115-1.087-0.855C99.784,78.423,100.271,78.365,100.756,78.308L100.756,78.308z"/>
	<path fill-rule="evenodd" fill="#EE3124" d="M93.669,89.275c0,0,2.184,0.119,3.292,0.119c24.686,0,44.696-20.012,44.696-44.698
		C141.657,20.012,121.646,0,96.961,0C72.277,0,52.265,20.012,52.265,44.696c0,0.947,0.088,3.503,0.088,3.503
		c33.744,0.033,33.744,0,33.744,0l4.553-11.333l-28.513,0.01C66.49,21.359,79.975,10.375,96.459,9.849
		c19.51,0,35.326,15.878,35.326,35.464c0,16.864-11.433,30.761-27.147,34.358l-0.13-28.532c0,0,0.13,0-10.929,5.551
		C93.579,56.691,93.579,56.691,93.669,89.275L93.669,89.275z"/>
	<path fill-rule="evenodd" fill="#FFFFFF" d="M96.939,7.438c1.621,0,2.936-1.313,2.936-2.936c0-1.621-1.314-2.937-2.936-2.937
		s-2.937,1.315-2.937,2.937C94.003,6.125,95.318,7.438,96.939,7.438L96.939,7.438z"/>
	<path fill-rule="evenodd" fill="#FFFFFF" d="M136.96,47.568c1.621,0,2.937-1.314,2.937-2.937c0-1.621-1.315-2.936-2.937-2.936
		c-1.623,0-2.937,1.315-2.937,2.936C134.023,46.253,135.337,47.568,136.96,47.568L136.96,47.568z"/>
	<polygon fill-rule="evenodd" fill="#149552" points="11.702,123.91 0.015,123.91 0.015,101.888 3.841,101.888 3.841,119.875 
		11.702,119.875 11.702,123.91 	"/>
	<polygon fill-rule="evenodd" fill="#149552" points="25.503,123.91 14.199,123.91 14.199,101.89 25.347,101.89 25.347,105.923 
		18.025,105.923 18.025,110.535 25.01,110.535 25.01,114.57 18.025,114.57 18.025,119.875 25.503,119.875 25.503,123.91 	"/>
	<path fill-rule="evenodd" fill="#149552" d="M32.477,105.923h2.002c1.396,0,1.958,1.199,1.958,2.336
		c0,1.166-0.562,2.398-1.958,2.398h-2.002V105.923L32.477,105.923z M28.651,101.89v22.02h7.442c4.458,0,5.399-3.939,5.399-6.449
		c0-2.574-1.077-4.834-3.252-5.641c1.305-0.904,2.11-2.557,2.11-4.404c0-2.461-1.454-5.525-5.062-5.525H28.651L28.651,101.89z
		 M32.477,114.693h2.677c1.319,0,2.302,0.869,2.302,2.479c0,1.898-0.737,2.703-2.835,2.703h-2.144V114.693L32.477,114.693z"/>
	<path fill-rule="evenodd" fill="#149552" d="M53.835,115.712H49.12l2.245-8.564L53.835,115.712L53.835,115.712z M53.521,101.888
		h-4.425l-6.176,22.021h4.042l1.146-4.363h6.849l1.258,4.363h4.111L53.521,101.888L53.521,101.888z"/>
	<polygon fill-rule="evenodd" fill="#149552" points="77.846,123.91 74.628,123.91 66.142,109.8 66.142,123.91 62.316,123.91 
		62.316,101.888 65.827,101.888 74.021,115.353 74.021,101.888 77.846,101.888 77.846,123.91 	"/>
	<path fill-rule="evenodd" fill="#149552" d="M94.46,112.9c0,4.043-1.937,6.729-4.842,6.729c-2.927,0-4.863-2.686-4.863-6.729
		c0-4.045,1.936-6.73,4.863-6.73C92.523,106.169,94.46,108.855,94.46,112.9L94.46,112.9z M98.376,112.9
		c0-5.307-2.977-11.297-8.758-11.297c-5.78,0-8.778,5.959-8.778,11.297c0,5.629,3.154,11.295,8.778,11.295
		C95.131,124.195,98.376,118.562,98.376,112.9L98.376,112.9z"/>
	<polygon fill-rule="evenodd" fill="#149552" points="116.879,123.91 113.661,123.91 105.175,109.8 105.175,123.91 101.349,123.91 
		101.349,101.888 104.859,101.888 113.053,115.353 113.053,101.888 116.879,101.888 116.879,123.91 	"/>
	<path fill-rule="evenodd" fill="#0070B9" d="M5.253,135.417h-2.27l1.081-4.344L5.253,135.417L5.253,135.417z M5.101,128.423H2.972
		L0,139.556h1.946l0.55-2.203h3.297l0.605,2.203h1.978L5.101,128.423L5.101,128.423z"/>
	<path fill-rule="evenodd" fill="#0070B9" d="M31.052,131.314c-1.071-0.717-1.707-0.994-2.327-0.994
		c-0.653,0-1.069,0.359-1.069,0.912c0,1.682,3.731,1.209,3.731,5.092c0,2.137-1.189,3.375-2.823,3.375
		c-1.275,0-1.914-0.504-2.649-1.076v-2.398c1.061,1.061,1.709,1.438,2.511,1.438c0.694,0,1.069-0.377,1.069-1.029
		c0-1.826-3.731-1.158-3.731-5.154c0-1.926,1.104-3.197,2.801-3.197c0.813,0,1.558,0.26,2.488,0.865V131.314L31.052,131.314z"/>
	<polygon fill-rule="evenodd" fill="#0070B9" points="51.815,139.556 49.979,139.556 49.979,128.423 51.815,128.423 51.815,139.556 
			"/>
	<path fill-rule="evenodd" fill="#0070B9" d="M75.258,135.417h-2.27l1.082-4.344L75.258,135.417L75.258,135.417z M75.107,128.423
		h-2.129l-2.972,11.133h1.945l0.552-2.203h3.297l0.605,2.203h1.978L75.107,128.423L75.107,128.423z"/>
	<polygon fill-rule="evenodd" fill="#0070B9" points="103.964,139.556 102.421,139.556 98.356,132.423 98.356,139.556 
		96.521,139.556 96.521,128.423 98.205,128.423 102.129,135.23 102.129,128.423 103.964,128.423 103.964,139.556 	"/>
	<path fill-rule="evenodd" fill="#149552" d="M141.377,123.91h-12.193v-0.607c1.945-2.814,3.812-6.021,5.136-8.434
		c1.514-2.73,1.999-4.338,1.999-6.041s-1.08-3.148-2.459-3.148c-1.296,0-2.945,1.029-4.433,2.73v-4.594
		c2.001-1.51,3.406-2.088,5.162-2.088c3.624,0,5.843,2.344,5.843,6.232c0,2.764-1.706,6.523-5.004,11.504h5.949V123.91
		L141.377,123.91z"/>
	<path fill-rule="evenodd" fill="#149552" d="M152.593,112.511c0,4.555-0.297,7.568-2.105,7.568c-1.672,0-2.184-2.438-2.184-6.895
		c0-4.297,0.242-7.344,2.157-7.344C152.135,105.841,152.593,108.183,152.593,112.511L152.593,112.511z M156.703,112.865
		c0-6.445-2.083-11.137-6.216-11.137c-3.699,0-6.295,3.824-6.295,11.232c0,6.605,2.082,11.23,6.35,11.23
		C154.864,124.191,156.703,119.279,156.703,112.865L156.703,112.865z"/>
	<path fill-rule="evenodd" fill="#149552" d="M167.787,112.511c0,4.555-0.298,7.568-2.106,7.568c-1.672,0-2.184-2.438-2.184-6.895
		c0-4.297,0.242-7.344,2.157-7.344C167.328,105.841,167.787,108.183,167.787,112.511L167.787,112.511z M171.897,112.865
		c0-6.445-2.082-11.137-6.217-11.137c-3.699,0-6.295,3.824-6.295,11.232c0,6.605,2.082,11.23,6.351,11.23
		C170.058,124.191,171.897,119.279,171.897,112.865L171.897,112.865z"/>
	<path fill-rule="evenodd" fill="#149552" d="M182.975,112.511c0,4.555-0.297,7.568-2.104,7.568c-1.674,0-2.186-2.438-2.186-6.895
		c0-4.297,0.243-7.344,2.158-7.344C182.517,105.841,182.975,108.183,182.975,112.511L182.975,112.511z M187.086,112.865
		c0-6.445-2.082-11.137-6.215-11.137c-3.701,0-6.297,3.824-6.297,11.232c0,6.605,2.082,11.23,6.351,11.23
		C185.247,124.191,187.086,119.279,187.086,112.865L187.086,112.865z"/>
	<path fill-rule="evenodd" fill="#0070B9" d="M136.38,138.601c-1.026,0.799-1.804,1.111-2.895,1.111
		c-2.863,0-4.291-2.811-4.291-5.676c0-2.963,1.611-5.74,4.432-5.74c1.025,0,1.943,0.326,2.667,0.98v2.48
		c-0.809-0.684-1.631-1.141-2.538-1.141c-1.566,0-2.668,1.4-2.668,3.371c0,1.986,1.091,3.402,2.626,3.402
		c0.961,0,1.608-0.455,2.667-1.221V138.601L136.38,138.601z"/>
	<path fill-rule="evenodd" fill="#0070B9" d="M162.048,128.437v6.313c0,3.686-1.662,4.963-3.681,4.963
		c-2.136,0-3.681-1.504-3.681-4.947v-6.328h1.836v6.393c0,1.6,0.767,2.561,1.823,2.561c0.971,0,1.867-0.766,1.867-2.756v-6.197
		H162.048L162.048,128.437z"/>
	<path fill-rule="evenodd" fill="#0070B9" d="M183.165,130.476h0.648c0.994,0,1.351,0.344,1.351,1.295
		c0,0.836-0.302,1.295-1.146,1.295h-0.854V130.476L183.165,130.476z M181.33,128.437v11.133h1.835v-4.465h1.459
		c1.698,0,2.433-1.795,2.433-3.367c0-1.523-0.757-3.301-2.442-3.301H181.33L181.33,128.437z"/>
</g>
</svg>
