<?xml version="1.0" encoding="UTF-8" standalone="no"?>
<svg height="352.72925" viewBox="0 0 275 352.72923" width="275" xmlns="http://www.w3.org/2000/svg">
   <path d="m202.35283 276.71228h-13.01053c-2.21587 0-4.43173-.12555-6.64759-.37953.12651.79165.18976 1.59864.18976 2.42192 0 .72744-.0633 1.4568-.18976 2.18424 2.21682-.2214 4.43172-.33257 6.64759-.33257h6.36198c-4.27263 10.69978-9.35321 18.42272-15.24077 23.17072 1.57181.82424 2.858 1.53443 3.7455 2.70562 3.45031-3.89406 6.30448-7.43829 9.02734-12.24859v15.28965c0 2.46889-.11022 4.93777-.33257 7.40762.7284-.12651 1.45584-.19073 2.18328-.19073.82328 0 1.63027.0633 2.42192.19073-.25398-2.46985-.37953-4.93777-.37953-7.40762v-22.934c.88654-1.93025 1.70886-3.92568 2.46889-5.98245h2.75449c2.21586 0 4.43173.11118 6.64759.33258-.0949-.72744-.14184-1.4568-.14184-2.18424 0-.82232.047-1.63027.14184-2.42192-2.21586.25302-4.43173.37857-6.64759.37857z" stroke-width=".95841855"/>
   <path d="m189.95569 222.79644c5.33168 0 6.56229 3.98511 6.85652 5.9192h7.03c-.64405-4.68763-4.21896-8.67273-13.35939-8.67273-13.06325 0-16.28833 9.08293-16.28833 19.91977 0 13.12458 4.63012 20.80152 16.64198 20.80152 5.80035 0 10.54548-1.58139 12.0109-2.16699v-3.75029c-1.52292 1.11272-5.09782 3.16278-10.19565 3.16278-11.30838 0-12.00995-12.94919-12.00995-19.50861-.00095-6.03516 1.28716-15.70465 9.31392-15.70465z" stroke-width=".95841855"/>
   <path d="m100.29275 304.38566c3.0104-8.7657 5.13904-14.22102 6.38786-16.36596-1.72898-.15334-3.14265-.56738-4.93585-1.24115-1.40888 5.9767-3.39664 11.37068-5.73422 16.1829 1.53634.18306 2.81008.65843 4.28221 1.42421z" stroke-width=".95841855"/>
   <path d="m119.04421 284.7467c-.7974 1.3485-1.75582 2.65195-2.64427 3.44935 2.11523.82808 4.5199 2.74396 7.67597 5.2876.67473-1.31783 1.68682-2.68262 2.57623-3.63241-3.03435-1.5028-5.4927-3.3583-7.60793-5.10454z" stroke-width=".95841855"/>
   <path d="m127.94409 286.54086c.1821 5.2991-.27507 9.39346-1.3715 12.2831 1.2862-.0451 2.6692.0307 4.14804.22522-.046-5.79459.41116-9.88896 1.37245-12.28309-1.34849.046-2.73149-.0288-4.14899-.22523z" stroke-width=".95841855"/>
   <path d="m118.10784 182.30326l-18.17258 25.08469h2.85609l18.61441-25.58882.005 13.85298h-8.34495l-1.5766 2.16124h9.92922l.0153 9.5746h4.78538l-.10542-30.97417h-8.65548l-.35845 1.01113c1.74241.27794 3.42347.32682 2.76791 2.16411-.12076.31819-1.20664 1.93121-1.75965 2.71424z" stroke-width=".95841855"/>
   <path d="m119.63747 278.00998c2.20437.88079 4.56974 2.61361 7.79003 5.42752.77919-1.45775 1.64465-2.71232 2.59348-3.76275-3.11869-1.59481-5.53199-3.20687-7.70281-5.07195-.88079 1.38971-1.69736 2.52543-2.6807 3.40718z" stroke-width=".95841855"/>
   <path d="m117.40723 260.12014l-14.29577-39.43222h-11.016061v1.28908c2.344291.35078 4.511281.40732 4.511281 2.75257 0 .41021-.6431 2.46122-.99484 3.4551l-11.661082 31.93451h3.633365l4.395308-12.18725h14.939829l4.39435 12.18725h6.09362zm-24.431044-14.94079l6.269014-17.11065 6.67826 17.11065z" stroke-width=".95841855"/>
   <path d="m72.726718 287.14563c-1.600559.55205-3.04202.84245-4.322468.87407 1.760615 4.07616 3.249998 9.4088 4.466231 15.99793 1.504717-.49071 3.137862-.84341 4.898477-1.05714z" stroke-width=".95841855"/>
   <path d="m118.15288 313.17723c1.22103.45717 2.99027 1.22582 4.61287 2.30596.80507-5.65946 1.80087-11.24896 3.22125-17.46335-1.44051-.53863-2.83884-1.36574-3.73304-2.02514-1.27374 7.80249-2.64045 13.45237-4.10108 17.18253z" stroke-width=".95841855"/>
   <path d="m102.16646 311.55655h-7.45266v-30.52563h5.19559c2.36921 0 4.73842.12171 7.10763.36707-.12747-.7974-.19169-1.57756-.19169-2.34429 0-.76674.0642-1.54785.19169-2.34429-2.36825.24439-4.73746.36707-7.10763.36707h-24.972558c-2.369211 0-4.738422-.12172-7.108591-.36707.128428.79644.192642 1.57755.192642 2.34429 0 .76577-.06326 1.54689-.192642 2.34429 2.369211-.24536 4.738421-.36707 7.108591-.36707h5.474486v30.52563h-7.155553c-2.36921 0-4.738421-.12172-7.107632-.36804.128428.79741.191684 1.57852.191684 2.34525 0 .76578-.06326 1.54689-.191684 2.3443 2.369211-.2444 4.738422-.36708 7.107632-.36708h28.910695c2.36921 0 4.73842.12268 7.10763.36708-.12842-.79741-.19264-1.57756-.19264-2.3443 0-.76673.0642-1.54784.19264-2.34525-2.37017.24632-4.73842.36804-7.10763.36804zm-11.775129 0h-5.657545v-30.52563h5.657545z" stroke-width=".95841855"/>
   <path d="m77.158446 260.12014v-40.07723l-12.304178 1.34753v1.28812c5.681505.76194 5.857854.82041 5.857854 5.74188v31.69874h6.446324z" stroke-width=".95841855"/>
   <path d="m129.50631 316.93615c2.48326-2.84267 4.17391-5.76201 5.05757-8.7609.95555-3.24329 1.42517-9.00914 1.42517-17.29179v-7.88012c0-2.84267.29136-5.34606.87408-7.50921-1.80853 0-3.29504-.12363-4.45952-.37091.21468 3.67746.32203 6.984.32203 9.91964v5.8406c0 7.35586-.3757 12.39618-1.1501 15.11234-.75811 2.66057-2.52831 5.34702-5.28664 8.06605 1.31687.68048 2.38934 1.63794 3.21741 2.8743z" stroke-width=".95841855"/>
   <path d="m145.69112 279.89902c0-1.33028.23002-2.45738.69007-3.38226-1.80854 0-3.35639-.0585-4.64354-.17347.24535 1.87946.36803 3.74454.36803 5.59429v25.07031c0 2.16795-.12268 4.32151-.36803 6.46166.70444-.11597 1.42517-.17347 2.16123-.17347.70444 0 1.42517.0575 2.16028.17347-.24536-2.14015-.36804-4.29371-.36804-6.46166z" stroke-width=".95841855"/>
   <path d="m8.144641 220.68888v1.28907c2.343333.35079 4.512235.40733 4.512235 2.75258 0 .41021-.644058 2.46122-.996756 3.4551l-11.66012 31.93451h3.6343232l4.3943488-12.18725h14.940788l4.394349 12.18725h6.091708l-14.294813-39.43126zm.880787 24.49047l6.268057-17.11065 6.679219 17.11065z" stroke-width=".95841855"/>
   <path d="m201.52284 291.31571c-.85491 1.07055-2.21586 1.70406-3.62186 2.59252 3.4043 3.71866 6.49903 7.53125 8.73694 11.91218 1.61398-1.31687 2.89251-2.19574 3.83751-2.63852-3.10528-4.23334-6.2048-7.49005-8.95259-11.86618z" stroke-width=".95841855"/>
   <path d="m141.74627 298.10418c-1.09164-4.44322-1.76828-8.42162-2.03184-11.93614-1.03222.19072-2.17466.32682-3.42923.4102 1.0188 4.26305 1.65423 8.30662 1.9063 12.12879 1.20856-.32395 2.39221-.52521 3.55477-.60285z" stroke-width=".95841855"/>
   <path d="m168.97303 305.81083c2.37496-3.22125 4.46335-6.84599 6.26806-10.87422v15.03088c0 2.38359-.11118 4.76813-.33258 7.15268.7284-.12843 1.47214-.1936 2.23216-.1936.7284 0 1.4568.0642 2.18424.1936-.2214-2.38455-.33162-4.76909-.33162-7.15268v-15.51392c1.32933 1.4175 2.62703 3.06119 3.8931 4.92914.88654-1.3207 1.8047-2.33566 2.75354-3.04393-1.45584-1.6111-2.81679-3.17429-4.08287-4.68859-.72839.83862-1.58234 1.65998-2.56377 2.46506v-6.8134h3.51357c.85491 0 1.72515.0642 2.61169.19264-.12651-.70827-.19073-1.40121-.19073-2.07785 0-.70923.0642-1.40121.19073-2.07785-.88654.12938-1.75678.1936-2.61169.1936h-3.51357v-6.00641c0-1.51334.23673-2.76983.71211-3.76946-1.867 0-3.4666-.0642-4.79593-.19264.2214 2.09414.33257 4.17199.33257 6.23355v3.73496h-4.98665c-.85491 0-1.72419-.0642-2.61073-.1936.12651.67664.18977 1.36958.18977 2.07785 0 .6776-.0633 1.37054-.18977 2.07785.88654-.12843 1.75678-.19264 2.61073-.19264h4.17871c-2.46985 6.92649-5.41315 11.95244-8.83183 15.07784 1.39258 1.16064 2.51585 2.30404 3.37076 3.43114z" stroke-width=".95841855"/>
   <path d="m148.41783 298.6984c1.26702-.33161 2.51393-.53959 3.73591-.62393-1.28907-4.48923-2.10181-8.51842-2.43822-12.09045-1.1223.19935-2.37208.34599-3.74837.43992 1.3715 4.33013 2.18807 8.42162 2.45068 12.27446z" stroke-width=".95841855"/>
   <path d="m152.73646 260.12014v-39.43126h-3.76754v31.87221h-.11981l-18.84155-31.87221h-12.61374v1.28907c5.14287.9958 5.97861.76003 5.97861 6.20768v31.93451h3.76659v-33.33955h.1198l19.73959 33.33955z" stroke-width=".95841855"/>
   <path d="m139.94253 178.57501h1.88521 1.70503 6.16646l-.0431-2.16219h-22.04746v1.01113c4.23525.68623 4.37518.68623 4.37518 5.24926v24.71474h5.06141v-15.09893h5.03553.53767.80891v-2.15931h-.80891-.53767-5.03553v-9.16536c0-2.20341.5971-2.38934 2.8973-2.38934z" stroke-width=".95841855"/>
   <path d="m48.969439 258.0097c-4.689542 0-9.375251-2.46026-11.190496-3.51452v4.74801c1.229651.29136 5.740928 1.52101 10.253162 1.52101 8.086178 0 14.705016-3.16087 14.705016-11.54128 0-12.53899-19.04186-11.7205-19.04186-20.7421 0-3.86626 2.517766-5.68342 5.625917-5.68342 4.568782 0 8.904667 1.87659 10.487975 2.63565v-4.33301c-1.523886-.29519-5.330724-1.05617-9.374292-1.05617-8.259652 0-13.184965 3.69278-13.184965 10.13623 0 12.3636 19.041861 11.48281 19.041861 20.97595 0 5.33072-3.631448 6.85365-7.322318 6.85365z" stroke-width=".95841855"/>
   <path d="m161.13891 178.06897c4.18446 0 5.15246 3.12827 5.38536 4.65024h5.51666c-.50126-3.68224-3.3123-6.81339-10.4899-6.81339-10.26466 0-12.79488 7.13542-12.79488 15.64618 0 10.31929 3.63624 16.34487 13.06899 16.34487 4.55728 0 8.28745-1.24307 9.43851-1.70407v-2.94522c-1.19802.876-4.00427 2.4871-8.01238 2.4871-8.88262 0-9.43371-10.17266-9.43371-15.32895 0-4.74417 1.014-12.33676 7.32135-12.33676z" stroke-width=".95841855"/>
   <path d="m234.99944 245.59147c0 5.91919 0 12.42111-8.96121 12.42111-8.38521 0-8.38521-7.09134-8.38521-13.77056v-24.19911l-12.30417 1.35041v1.28428c5.68629.76769 5.8636.82424 5.8636 5.74476v18.74859c0 8.73215 3.74454 13.59325 14.06096 13.59325 13.23959 0 13.94307-7.96734 13.94307-15.8187v-24.2547h-4.218v24.90067z" stroke-width=".95841855"/>
   <path d="m263.10603 220.68888h-18.27992v1.28907c5.50899.87792 5.624.87792 5.624 6.67827v31.46392h6.44536v-17.51798h2.05006c7.26481 0 16.05447 0 16.05447-11.07452 0-6.91403-4.68763-10.83876-11.89397-10.83876zm-3.16279 19.15879h-3.04777v-12.89073c0-2.40276.17252-3.51548 3.33913-3.51548 5.21476 0 8.32195 1.28907 8.32195 7.85041 0 7.03096-3.98606 8.5558-8.61331 8.5558z" stroke-width=".95841855"/>
   <path d="m156.63051 275.28328c-1.80853 0-3.37075-.0604-4.68954-.1821.2444 1.97243.36803 3.93047.36803 5.87127v28.44778c0 2.24462-.12267 4.49115-.36803 6.73673.73511-.091 1.45584-.13706 2.16028-.13706.7351 0 1.45584.046 2.16027.13706-.24535-2.24558-.36803-4.49211-.36803-6.73673v-30.58793c.00096-1.42517.24631-2.60785.73702-3.54902z" stroke-width=".95841855"/>
   <rect fill="#ee2c29" height="3.8164229" stroke-width=".95841855" width="3.6812859" x="193.82387" y="340.51132"/>
   <path d="m196.86972 332.33027h-2.4363l-.60956 1.97147h-7.11817v12.17766c0 2.23312 1.88425 4.05891 4.18637 4.05891h9.54393c2.30308 0 4.18638-1.82579 4.18638-4.05891v-12.17766h-7.11722zm3.49439 14.95996h-9.39825v-9.74137h9.39825z" fill="#ee2c29" stroke-width=".95841855"/>
   <path d="m224.23928 334.24423h-4.56878v5.76681h-8.26924v-5.76681h-4.46815v6.50383c0 1.99926 1.71941 3.37651 3.44839 3.37651h9.289v6.35527h4.56878v-6.35527h4.94735v-4.11449h-4.94735z" fill="#ee2c29" stroke-width=".95841855"/>
   <path d="m176.85985 332.33027h-2.43725l-.60956 1.97147h-7.11817v12.17766c0 2.23312 1.88425 4.05891 4.18733 4.05891h9.54393c2.30212 0 4.18637-1.82579 4.18637-4.05891v-12.17766h-7.11721zm3.49344 14.95996h-9.39921v-9.74137h9.39921z" fill="#ee2c29" stroke-width=".95841855"/>
   <polygon fill="#ee2c29" points="159.959 49.861 159.611 44.158 153.913 40.818 148.33 43.355 149.092 48.99 154.818 52.345" transform="matrix(.95841857 0 0 .95841857 0 .00342234)"/>
   <polygon fill="#ee2c29" points="147.385 49.186 146.622 43.522 141.095 42.081 136.144 46.466 136.762 52.781 142.349 53.752" transform="matrix(.95841857 0 0 .95841857 0 .00342234)"/>
   <path d="m138.10045 71.48803l1.54689-1.876584-3.45798-4.193081-5.77255-1.120391-.79837 2.416173c1.16736 1.151061 2.46602 2.12098 3.88831 2.93947 1.45104.807946 2.97972 1.434752 4.5937 1.834413z" fill="#ee2c29" stroke-width=".95841855"/>
   <polygon fill="#ee2c29" points="136.391 54.463 133.352 59.293 136.038 65.33 142.098 66.505 144.718 61.503 142.021 55.44" transform="matrix(.95841857 0 0 .95841857 0 .00342234)"/>
   <path d="m127.26169 43.402532l2.04719-.01917 4.92148-4.35793.19551-1.893835c-1.45584.725523-2.77654 1.619728-4.00619 2.679738-1.20185 1.074388-2.25611 2.257076-3.15799 3.591195z" fill="#ee2c29" stroke-width=".95841855"/>
   <rect fill="#ee2c29" height="3.8164229" stroke-width=".95841855" width="3.6812859" x="173.81305" y="340.51132"/>
   <path d="m128.34087 65.315814l.59039-1.917795-2.66632-5.992992-1.87467-.734148c.29903 1.72707.82328 3.349673 1.57181 4.936814.67089 1.330285 1.43092 2.55131 2.37879 3.708121z" fill="#ee2c29" stroke-width=".95841855"/>
   <polygon fill="#ee2c29" points="146.179 62.415 143.587 67.365 147.223 71.773 153.802 71.122 156.83 65.793 152.959 61.786" transform="matrix(.95841857 0 0 .95841857 0 .00342234)"/>
   <path d="m160.76609 51.189683c-.23769-1.732821-.7121-3.370758-1.406-4.976109-.7054-1.549763-1.57756-2.973015-2.66057-4.288924l-2.06156.590386.33161 5.439984 4.00715 4.449938z" fill="#ee2c29" stroke-width=".95841855"/>
   <path d="m160.51498 57.520996c.30382-1.455838.45525-2.933719.40637-4.422143l-1.28619.928707-1.41559 6.398403.82808 1.298657c.65939-1.340828 1.14147-2.747786 1.46733-4.203624z" fill="#ee2c29" stroke-width=".95841855"/>
   <path d="m154.9437 67.192398c1.1961-1.111766 2.21874-2.329916 3.10719-3.697579l.093-.147597-1.17502-1.738571-5.07291 1.984885-2.88389 5.073868 1.80662 1.38204c1.50568-.761943 2.87047-1.728029 4.12504-2.857046z" fill="#ee2c29" stroke-width=".95841855"/>
   <path d="m144.80363 71.892482c1.4913-.205101 2.87909-.552049 4.2918-1.074387l-1.40984-1.026466-6.53449.647891-1.21049 1.408875c1.6159.226187 3.24329.223312 4.86302.04409z" fill="#ee2c29" stroke-width=".95841855"/>
   <path d="m124.46311 50.181426c-.2789 1.523886-.40541 3.102401-.28752 4.646414l2.39604.87887 2.90018-4.611911-.58943-6.008326-2.61073-.03642c-.8597 1.623561-1.45009 3.33338-1.80854 5.131373z" fill="#ee2c29" stroke-width=".95841855"/>
   <path d="m117.36602 334.24423h-4.56782v13.53766c-3.50206-3.29408-7.00412-8.57688-9.6714-13.53766h-7.21785v1.72228l2.69699 1.22007v13.29422h4.264v-9.95222c2.53885 4.13174 6.36198 9.28899 10.89147 12.20067h5.30101v-2.69124h-1.6964z" fill="#ee2c29" stroke-width=".95841855"/>
   <path d="m88.071958 341.56463c0-.004 0 .0556 0 .24057 0 .62201 0 2.68069 0 8.67464h4.567823v-16.23657h-4.567823c0 4.9579 0 6.74919 0 7.32136z" fill="#ee2c29" stroke-width=".95841855"/>
   <polygon fill="#ee2c29" points="67.638 348.742 67.638 351.209 69.916 351.209 69.916 365.683 74.365 365.683 74.365 359.051 85.059 359.051 85.059 365.683 89.825 365.683 89.825 348.742 85.059 348.742 85.059 354.758 74.365 354.758 74.365 348.742" transform="matrix(.95841857 0 0 .95841857 0 .00342234)"/>
   <path d="m154.36194 348.01191c-2.42193-.73702-2.68357-2.27624-2.92126-4.74513h10.58286c1.27853 0 2.53214-1.19035 2.53214-2.66344v-6.36007h-6.71181l-.38912-1.9475h-3.51739l-.45429 1.9475c-2.10661 0-4.33014 0-6.38307 0v3.24808h12.91948v2.52831c-4.06848 0-8.85195 0-12.91948 0v3.24712c0 4.25059 2.10277 7.39037 6.08117 8.44751 3.97743 1.05617 8.22035.15143 11.45406-1.36479l-1.70407-2.7267c-2.89922.71402-6.1473 1.12614-8.56922.38911z" fill="#ee2c29" stroke-width=".95841855"/>
   <path d="m140.83003 35.318271c-1.60344.166765-3.17429.514671-4.68571 1.070554l-.21277 2.429591 5.25788 1.373414 5.31635-2.417132-.66993-2.235991c-1.69928-.313402-3.29792-.33928-5.00582-.220436z" fill="#ee2c29" stroke-width=".95841855"/>
   <path d="m119.96909 350.28816h6.10608c-.10351-1.2632-.1198-2.52639.0441-3.79055h8.12164l2.23311 3.79055h4.62437l-10.98156-16.3765c-6.27285 3.83176-9.84775 11.26046-10.14773 16.3765zm6.81244-7.70665c.37761-1.68777.8827-2.83116 2.34716-4.45664l2.72191 4.45664z" fill="#ee2c29" stroke-width=".95841855"/>
   <polygon fill="#ee2c29" points="153.888 53.786 148.41 50.578 143.652 54.891 146.202 60.621 152.529 59.993" transform="matrix(.95841857 0 0 .95841857 0 .00342234)"/>
   <polygon fill="#ee2c29" points="164.861 56.116 160.65 51.439 155.611 53.94 154.171 60.522 158.114 64.652 163.434 62.57" transform="matrix(.95841857 0 0 .95841857 0 .00342234)"/>
   <path d="m152.13361 37.955839c-1.39833-.847242-2.87142-1.513343-4.43939-1.976259l.54534 1.667648 5.65563 3.314212 1.55168-.403494c-1.00826-.989088-2.12002-1.853582-3.31326-2.602107z" fill="#ee2c29" stroke-width=".95841855"/>
   <path d="m58.381109 334.24423h-12.568701v12.17767c0 2.23311 1.800868 4.0589 4.003314 4.0589h11.973523l1.155853-3.24712h-12.20546v-9.74233h12.20546v-5.30293h-3.048729z" fill="#ee2c29" stroke-width=".95841855"/>
   <path d="m57.016321 85.358263c.905706 2.987391 4.790176 7.268648 2.661528 11.196248 1.857416.4447 4.529487-.70348 3.714831-4.77676 0 0 4.511276-.264524 4.245794-3.980312-2.742035.691978-5.735177-2.898258-3.440723-5.16971 2.294454-2.272411 6.094584 1.771157 5.837728 7.129676-.256856 5.359476-5.863605 9.611976-7.044377 14.636965-1.18173 5.02499.898997 19.4904 19.885269 21.34015 0 0-2.782289 5.04128-1.317826 8.49063 1.463506 3.45031 6.120461 4.65696 11.529776 7.42199 5.410269 2.76504 8.980379 7.05301 12.471899 8.36316 0 0-5.6585-11.51252-11.761711-12.04348 0 0 3.287371-1.64369 1.969551-3.99757-4.100115 1.31879-9.093476-.40733-7.559048-5.57128 1.535386-5.16588 7.284938-3.84422 10.468808.93254 3.18482 4.7758 5.72655 13.15621 13.80698 12.59937 0 0 5.34989 13.26834 15.92125 7.69514 0 0 19.49998 13.13129 19.90156-2.65386 0 0 7.04533 1.50567 8.53376-4.49403 7.82548 2.28008 28.44873 5.69684 27.05807-12.60416 4.76717-.62585 17.18924-6.28147 16.99468-13.57121-.19456-7.28973-.94117-13.8664 1.42996-19.748209 2.37208-5.882773 9.54393-11.059192 17.51893-11.625618 0 0-15.60305-6.726181-27.43665 11.434888-.84341-6.961948-4.40681-20.767968-22.72027-20.706629-18.31442.06134-22.07429 13.294224-22.70493 17.713489-.63064 4.41927.79644 12.252429-.79645 14.640809-1.59193 2.38837-4.61383 4.16528-7.81111 4.49881 5.94986 4.35601 16.87775 3.54615 17.36463-7.68747 6.46357 2.8005 18.65849-2.67016 9.28611-12.248589-.35844 4.65887-4.70008 8.481039-7.28014 4.51127-2.58007-3.96977 3.20782-10.598189 11.79142-10.614482 8.58264-.01629 11.94094 8.491592 12.4719 13.002862.53096 4.511279-.77153 19.084029 1.88234 22.003379 0 0-8.03251-6.99263-13.40828-2.35484-4.48157-6.50095-18.86072-4.24771-13.41786 6.8872 5.53103-3.25863 13.24822-2.43534 14.26031 5.07578 1.01209 7.51113-10.42664 8.91809-14.49992 6.34282 0 0-1.51526-7.45554-8.51746-7.17281-.49167-5.48311-4.56687-12.19108-13.96033-15.40849-9.39442-3.21646-14.70693-3.13307-20.53603-4.34931-5.8291-1.21527-6.63322-5.44381-7.42966-9.15864 0 0 11.94573 12.24667 17.24387.0652 0 0 8.81649.65076 8.03921-6.349529 0 0 3.62666-.39103 5.83581-4.807423 2.20916-4.416393 4.93202-3.7455 7.12393-3.100484 0 0-2.20053-3.374592-7.12968-2.984515-4.92915.391993-6.35336 2.597314-7.77852 4.277422-.72744-2.397005-2.14111-5.264594-6.08692-5.828144 0 0-.1313 5.043199-1.16831 8.025797-1.03701 2.982597-4.65504 6.103207-7.39037 3.761797-2.73628-2.339503-2.84938-5.438071-.12747-9.066643 2.72191-3.628573 3.10624-7.386532 2.71712-9.071432 0 0 4.54865 4.409684 9.59664 4.79401 5.04799.384325 7.64339-1.167354 10.75346-2.074018 3.11103-.907623 7.50058-2.721909 10.35667-2.589647-2.18328-1.669565-5.66905-1.265113-9.06472-.131304-3.39472 1.132851-7.25236 2.342375-11.52882 2.204363-4.27646-.138012-6.47412-3.626656-8.02963-4.923396 3.42826-1.753906 3.90076-7.259062-2.07881-7.911745.16772-3.267249-.93254-6.629382-4.79784-6.221095-3.86626.409244-4.92532 3.501103-4.40873 5.962322 0 0-4.54194-1.553597-4.54003 3.106234-1.56318-.170598-3.94868-2.19382-2.2034-6.470284 1.74528-4.276463 6.74918-6.747266 8.68998-9.340747 1.94271-2.594439 4.40297-7.24852 3.23945-10.10269 0 0-2.46409 6.475076-6.61213 9.97522-4.14803 3.499187-6.99933 5.699716-8.29511 9.458633-1.29674 3.757959 1.29387 9.076224 4.66942 9.468217 3.37555.392952 5.05661 1.950382 3.88926 5.316348-1.16831 3.366925-2.7152 4.917646-4.53428 5.568412 0 0-.91529-4.148036-3.50302-3.758918-2.58773.389118-3.11294 2.463136-2.59444 4.925313 0 0-2.2034-1.814286-6.091706.777278-3.889263 2.592522-3.758918 5.055658-5.832936 8.554849-2.074018 3.50014-1.943673 5.05565-6.999331 5.5732 0 0 5.573204 2.981639 8.684231-.64789 3.111027-3.62857 4.148036-9.07335 7.777562-8.165728 0 0-2.85129 3.888308-3.629526 7.776608-.778236 3.888299-3.629531 5.702589-10.110358 5.184089 0 0 3.889263 4.01865 8.165726 2.85225 4.277423-1.1664 5.574158-1.6849 8.166688-6.222049 0 0-1.03701 8.296069 4.01769 13.481109 5.0547 5.18505 8.42546 7.64722 14.38778 8.94396 5.96232 1.29674 17.87834 2.71904 15.94233 9.85159-1.936 7.13159-11.7895 5.44286-16.45604 2.46122-4.66654-2.98164-13.35557-12.71055-17.37901-14.90629-4.022482-2.19573-10.360504-5.4371-14.2536 1.2977 0 0-6.738641.64885-10.885718-3.37171-4.148036-4.02057-5.838686-8.68999-3.760835-10.49756 2.076893-1.8095 4.929147.38432 5.314431 2.59156.385285 2.2082-.391034 4.53236-2.592522 3.75988.643099 2.37592 4.486357 5.07674 7.259062 1.6849 2.773664-3.3928.751401-7.25331-.518504-8.94109-1.270863-1.68586-3.886387-4.28701-7.385574-5.44765 0 0 5.826227-6.233559 5.180253-14.12709-.645016-7.892607-11.021814-13.888473-11.409973-24.507751-.38816-10.619278 4.671332-14.118464 8.948754-14.118464 4.277422 0 7.003164 1.812369 7.906953 4.275505.903789 2.464094.130345 5.962322-2.592522 5.832936-2.721909-.130345-3.240413-5.832936-1.555513-6.869945 0 0-5.0547-1.426127-4.795927 5.573204 0 0-5.711216-1.816203-6.224929 2.074018-.513712 3.889263 3.500145 5.702591 5.704508 6.349523 0 0-2.594439 7.64818 2.46026 10.110358 0 0-.389118-7.900245 5.44861-8.034423-.513713 4.300424.121719 10.287665 7.26002 10.367213 7.138302.07955 7.775646-7.513043 6.868986-10.364338 0 0-1.549762 4.924355-4.929146 4.530445-3.379384-.392952-4.658873-2.857046-4.532362-6.087875 5.767763-2.953846 9.525722-11.26046 4.018649-21.128338 5.608666 1.446254 12.567739 2.043349 19.954279-2.074018 7.38749-4.116407 7.8782-10.558897 16.08226-14.909159 8.09576-4.29084 18.7898-3.757001 25.91947 1.037967 7.12872 4.795927 12.18438 14.646553 10.8886 23.72086 0 0 7.91078-1.029341 6.99933-10.498517 5.74859 4.761424 11.28729 8.343992 16.05255 8.033465 5.27801-.344073 10.20428-.553966 12.68179 6.298726 2.47752 6.852693-3.93047 12.036779-3.93047 12.036779 5.66425-1.160645 15.66247-7.641471 13.09583-17.474846-2.56664-9.834333-10.7247-11.424349-14.02071-11.17516-3.296.24823-12.70192-1.224859-14.60342-9.142355 5.39781-1.410792 15.02417-3.960185 13.92678-13.824229-2.14111 2.547476-5.46298 4.754714-11.40135 2.525433-5.93932-2.23024-11.08411-8.38808-21.87111-9.6896117-10.78604-1.301533-20.05491.24823-28.27335 4.9128527 0 0 3.17524-10.0921467 8.48297-13.54245376-3.51165-.6852693-8.03634.2194779-11.9419 3.27491606-3.90555 3.055439-4.91764 6.6226727-8.49925 8.5299247-1.17215-5.5176147-10.89147-13.8491476-20.15842-3.8346317-8.846206-1.380123-15.526383 5.1409567-13.80698 16.2471107 1.768282 11.420516 15.73244 9.673319 16.97455 2.721909-2.89826 2.287745-6.973453.299985-6.75302-3.698537.22044-3.998522 3.41868-7.275355 8.38904-6.633215 4.97132.64214 7.32615 7.677891 3.93623 13.139919-3.38993 5.462027-7.91654 7.880117-15.646187 6.857485-7.729645-1.023592-13.370897-.57026-16.420585.820406 0 0 5.444776-11.675455.761943-15.647142-.513713 2.953846-1.822912 6.788479-3.946768 9.655109-2.122897 2.867588-8.781989 6.531622-11.170369 13.936364-2.388379 7.404742-1.086846 21.588379 3.954436 27.820016 0 0-6.078291-1.267029-7.404742-8.962172-1.73378 3.650617-2.35771 7.821654 1.711735 12.077991-1.286198 2.35771-2.092228 5.84827-1.186522 8.836619zm43.314769 7.481418c-2.43247-2.959599.13993-5.827187 1.86508-6.292979-.67089 1.998303-.8204 3.837508.21085 4.753757 1.03222.915289 2.81584 1.382042 5.071-.422663-.30861 3.049685-4.71446 4.922435-7.14693 1.961885z" fill="#ee2c29" stroke-width=".95841855"/>
</svg>
