<?xml version="1.0" encoding="utf-8"?>
<!-- Generator: Adobe Illustrator 12.0.0, SVG Export Plug-In  -->
<!DOCTYPE svg PUBLIC "-//W3C//DTD SVG 1.1//EN" "http://www.w3.org/Graphics/SVG/1.1/DTD/svg11.dtd" [
	<!ENTITY ns_flows "http://ns.adobe.com/Flows/1.0/">
	<!ENTITY ns_svg "http://www.w3.org/2000/svg">
	<!ENTITY ns_xlink "http://www.w3.org/1999/xlink">
]>
<svg  version="1.1" xmlns="&ns_svg;" xmlns:xlink="&ns_xlink;" xmlns:a="http://ns.adobe.com/AdobeSVGViewerExtensions/3.0/"
	 width="271" height="301" viewBox="-0.8896484 -0.0507813 271 301" enable-background="new -0.8896484 -0.0507813 271 301"
	 xml:space="preserve">
<defs>
</defs>
<path fill-rule="evenodd" clip-rule="evenodd" d="M157.6650391,225.3457031
	c-0.6533203,0.2646484-2.8720703,1.0175781-5.5761719,1.0175781c-5.578125,0-7.7226563-3.65625-7.7226563-9.9609375
	c0-5.2167969,1.4882813-9.5771484,7.5546875-9.5771484c4.2587891,0,5.9140625,1.9189453,6.203125,4.1669922h-3.2646484
	c-0.1308594-0.9355469-0.6884766-2.8466797-3.1679688-2.8466797c-3.7275391,0-4.3222656,4.6572266-4.3222656,7.5634766
	c0,3.1337891,0.3310547,9.3310547,5.5751953,9.3310547c2.3818359,0,4.03125-0.9785156,4.7207031-1.5087891V225.3457031z"/>
<path fill-rule="evenodd" clip-rule="evenodd" d="M137.4287109,215.5087891v-5.5839844
	c0-1.3457031,0.3623047-1.4482422,1.71875-1.4482422h5.7822266l-0.0410156-1.3173828h-13.0341797v0.5986328
	c2.5078125,0.4248047,2.5688477,0.4248047,2.5688477,3.1962891v15.1181641h3.0053711v-9.2431641h3.7666016v-1.3203125H137.4287109z"
	/>
<path d="M125.5180664,207.1591797l-0.1928711,0.5986328c1.0224609,0.1601563,2.0131836,0.1855469,1.612793,1.3173828
	c-0.0668945,0.1943359-0.690918,1.1894531-1.0244141,1.6826172l-10.7563477,15.3144531h1.6767578l11.0244141-15.6455078v8.484375
	h-4.9453125l-0.9287109,1.3203125h5.8740234v5.8408203h2.9780273v-18.9130859H125.5180664z"/>
<polygon fill="#79003C" points="92.828125,288.1191406 98.5517578,288.1191406 98.5517578,298.3173828 101.7128906,298.3173828 
	101.7128906,288.1191406 107.4379883,288.1191406 107.4379883,285.1650391 92.828125,285.1650391 "/>
<path fill="#79003C" d="M67.3520508,291.7324219c0-2.1103516-0.890625-3.8671875-2.6621094-5.2099609
	c-1.5083008-1.1523438-3.3886719-1.7421875-5.5917969-1.7421875c-2.1835938,0-4.0800781,0.5839844-5.6020508,1.7392578
	c-1.7861328,1.3457031-2.6894531,3.1025391-2.6894531,5.2128906c0,2.1425781,0.8916016,3.8994141,2.6591797,5.2275391
	c1.5019531,1.140625,3.4008789,1.7138672,5.6323242,1.7138672c0.7519531,0,1.4628906-0.0654297,2.1367188-0.2021484L62.2988281,300
	h3.7919922l-1.8852539-2.6865234c0.1806641-0.1054688,0.3374023-0.2158203,0.5-0.3417969
	C66.4697266,295.6484375,67.3520508,293.8828125,67.3520508,291.7324219z M62.8168945,294.5390625
	c-0.1181641,0.0908203-0.2539063,0.1591797-0.3779297,0.2451172l-1.3779297-1.9677734h-3.7929688l1.9824219,2.8320313
	c-0.0483398,0-0.0898438,0.0117188-0.1523438,0.0117188c-1.5708008,0-2.8203125-0.3710938-3.7416992-1.1210938
	c-0.8803711-0.7128906-1.3144531-1.6347656-1.3144531-2.8066406c0-1.1347656,0.4418945-2.0439453,1.3452148-2.7802734
	c0.9462891-0.7617188,2.190918-1.1552734,3.7109375-1.1552734c1.3916016,0,2.5600586,0.3486328,3.4863281,1.0185547
	c1.0297852,0.7529297,1.5371094,1.7050781,1.5371094,2.9169922C64.121582,292.890625,63.7001953,293.8115234,62.8168945,294.5390625
	z"/>
<path fill="#79003C" d="M82.6035156,285.1650391h-3.2080078l-6.9511719,13.1523438h3.4887695l1.3837891-2.6806641h7.3686523
	l1.3779297,2.6806641h3.4926758L82.6035156,285.1650391z M78.9052734,292.6796875l2.1118164-3.9755859l2.0883789,3.9755859
	H78.9052734z"/>
<path fill="#79003C" d="M120.7207031,285.1650391h-3.2041016l-6.9506836,13.1523438h3.4916992l1.3813477-2.6806641h7.3652344
	l1.3828125,2.6806641h3.4916992L120.7207031,285.1650391z M117.0170898,292.6796875l2.1162109-3.9755859l2.0883789,3.9755859
	H117.0170898z"/>
<path d="M205.8232422,286.7226563v2.6230469l2.5224609-1.1210938v10.0927734h3.2324219v-13.1640625h-3.2324219
	C207.7314453,285.7011719,207.0292969,286.2597656,205.8232422,286.7226563z"/>
<path d="M221.8925781,286.7226563v2.6230469l2.5185547-1.1210938v10.0927734h3.2324219v-13.1640625h-3.2324219
	C223.7998047,285.7011719,223.0996094,286.2597656,221.8925781,286.7226563z"/>
<path d="M167.6982422,295.4863281c0.3095703-1.2558594,4.1542969-2.0078125,5.2978516-2.3671875
	c2.2529297-0.6679688,3.6386719-1.9423828,3.6210938-3.8359375c0.0117188-1.2871094-0.6210938-2.4101563-1.7333984-3.203125
	c-1.1181641-0.8154297-2.5498047-1.2001953-4.2333984-1.2001953c-2.3056641,0-4.4677734,0.7753906-6.4091797,2.2958984
	l-0.4423828,0.3476563l1.9960938,2.1044922l0.3681641-0.2910156c1.3544922-1.0839844,2.8027344-1.6191406,4.4472656-1.6425781
	c0.9824219-0.0058594,1.5830078,0.1601563,2.0527344,0.4423828c0.4638672,0.2958984,0.609375,0.6132813,0.6181641,1.0117188
	c-0.0117188,0.3515625-0.1367188,0.5791016-0.6181641,0.8701172c-1.0068359,0.4960938-3.0839844,1.0380859-3.7470703,1.2148438
	c-3.3886719,1.0244141-5.3037109,3.3085938-5.4248047,6.5253906l-0.0058594,0.5419922h13.4355469v-2.8144531H167.6982422z"/>
<path d="M191.1474609,284.9882813c-1.8828125,0-3.4931641,0.6503906-4.8193359,1.9335938
	c-1.3789063,1.3515625-2.0732422,2.9404297-2.0732422,4.7851563c0,1.8623047,0.6875,3.4511719,2.0458984,4.7998047
	c1.3339844,1.3027344,2.9462891,1.953125,4.8466797,1.953125c1.8876953,0,3.5107422-0.6533203,4.8564453-1.9765625
	c1.3603516-1.3144531,2.0400391-2.9111328,2.0400391-4.7763672c0-1.8447266-0.6816406-3.4335938-2.0507813-4.7851563
	C194.6777344,285.6386719,193.0566406,284.9882813,191.1474609,284.9882813z M193.9296875,294.5566406
	c-0.7255859,0.7294922-1.6513672,1.1083984-2.7802734,1.1083984c-1.125,0-2.0527344-0.3789063-2.7792969-1.1083984
	c-0.7285156-0.7363281-1.0869141-1.6835938-1.0869141-2.8300781c0-1.1513672,0.3583984-2.0957031,1.0810547-2.8349609
	c0.71875-0.7265625,1.6542969-1.1035156,2.7851563-1.1035156c1.1386719,0,2.0634766,0.3769531,2.7841797,1.1035156
	c0.7246094,0.7392578,1.0927734,1.6835938,1.0927734,2.8349609
	C195.0263672,292.8730469,194.6582031,293.8203125,193.9296875,294.5566406z"/>
<path fill="#79003C" d="M145.2890625,293.4296875c0.6748047-0.2285156,1.2529297-0.5761719,1.6982422-1.0634766
	c0.6845703-0.7167969,1.0410156-1.6835938,1.0410156-2.8466797c0-1.3056641-0.4296875-2.3837891-1.2695313-3.1708984
	c-0.8242188-0.7871094-1.9511719-1.1835938-3.3623047-1.1835938h-10.034668v13.1523438h3.1538086v-4.5654297h5.1669922
	l3.2451172,4.5654297h3.7216797L145.2890625,293.4296875z M143.0976563,290.7998047h-6.5820313v-2.6806641h6.4042969
	c1.6748047,0,1.9003906,0.7099609,1.9003906,1.4091797C144.8203125,290.1552734,144.6181641,290.7998047,143.0976563,290.7998047z"
	/>
<path d="M75.9711914,273.4472656c0,0,0.0146484-34.8095703,0-34.8095703c4.8125-2.9150391,8.2094727-1.5976563,8.2094727-1.5976563
	v36.4072266H75.9711914z"/>
<path d="M144.8662109,273.4472656v-28.8525391c0-2.9599609-1.3457031-6.0625-6.5244141-6.0625
	c-2.6992188,0-4.1137695,0.4042969-5.6645508,1.0146484v33.9003906h-8.2167969v-34.3769531
	c3.4379883-1.6113281,8.0883789-2.6230469,14.2124023-2.6230469c10.8525391,0,14.4228516,5.2753906,14.4228516,11.1337891
	v25.8662109H144.8662109z"/>
<path d="M212.9160156,266.1035156c0,2.9599609,1.3457031,6.0595703,6.5302734,6.0595703
	c2.6953125,0,4.1064453-0.4042969,5.6582031-1.0146484c0,0-0.0458984-32.4912109,0-32.5166016
	c4.9560547-2.9658203,8.2128906-1.5458984,8.2128906-1.5458984v34.5380859
	c-3.4316406,1.6171875-8.0791016,2.6269531-14.2119141,2.6269531c-10.8378906,0-14.4130859-5.2587891-14.4130859-11.1074219
	v-24.4941406c5.1660156-2.9414063,8.2265625-1.5634766,8.2265625-1.5634766L212.9160156,266.1035156z"/>
<path d="M60.2382813,252.2236328c-3.5654297-1.2001953-8.4379883-3.8300781-8.5087891-6.7929688
	c-0.0629883-2.7861328,1.0249023-6.0205078,6.4091797-6.6708984c0.0537109-0.0107422,0.1113281-0.0107422,0.1660156-0.0195313
	c0.4892578-0.0576172,1.0307617-0.0830078,1.5976563-0.0947266c4.5942383,0.1142578,6.9047852,3.9355469,6.9047852,3.9355469
	l1.2436523-2.9716797l0.371582-0.8496094c-2.6757813-1.4912109-6.0854492-2.4150391-10.6025391-2.3095703
	c-7.7470703,0.1855469-12.7524414,5.0302734-12.6113281,10.8193359c0.0898438,3.7646484,1.9086914,7.0302734,9.2290039,10.3466797
	c4.581543,2.0673828,7.7280273,4.7285156,7.3969727,7.8144531c-0.6323242,5.8027344-4.1894531,6.3876953-8.2416992,6.2792969
	c-4.7285156-0.3222656-7.6323242-3.8271484-7.6323242-3.8271484l-1.2089844,3.84375
	c2.4384766,1.4267578,6.5292969,2.4765625,11.2714844,2.359375c8.8813477-0.2138672,14.3334961-5.4707031,14.1801758-11.3964844
	C70.1044922,258.4570313,68.2045898,254.8671875,60.2382813,252.2236328"/>
<path d="M104.5249023,236.4726563c-3.2915039,0-6.1337891,0.5332031-8.4077148,1.2041016l-0.0141602,0.0087891H96.081543
	c-1.6606445,0.4951172-3.0258789,1.0634766-4.0200195,1.5449219l0.0585938,0.1455078l-0.0068359,0.0058594l1.2353516,3.2480469
	c0,0,2.1376953-2.8037109,6.3652344-3.5078125c0.7143555-0.09375,1.4482422-0.1484375,2.1889648-0.1484375
	c5.4404297,0,8.3398438,4.0302734,8.3398438,8.7441406v1.9589844c-11.0415039,1.0751953-20.269043,3.8359375-20.269043,13.4013672
	c0,7.0009766,4.918457,11.0478516,14.8237305,11.0478516c5.6542969,0,10.2314453-1.0869141,13.1293945-2.6298828v-22.4951172
	C117.9267578,239.6357422,111.9960938,236.4726563,104.5249023,236.4726563 M110.2426758,270.1152344
	c-1.2041016,0.7421875-3.0214844,1.2353516-4.9140625,1.2353516c-4.7749023,0-7.6083984-3.8330078-7.6083984-8.5380859
	c0-6.6054688,4.7910156-9.8105469,12.5224609-10.9658203V270.1152344z"/>
<path d="M192.6689453,271.6474609c-8.2529297,0-13.7675781-7.6777344-13.7675781-21.1230469
	c0-12.7568359,4.8964844-20.2998047,12.6796875-21.3154297c0.0117188,0,0.0263672,0,0.0380859,0
	c6.6738281-0.4414063,7.6582031,3.8759766,7.6582031,3.8759766l1.9628906-3.7070313l-0.0488281-0.0234375
	c-2.4082031-1.6025391-5.6865234-2.6064453-10.3457031-2.6064453c-12.796875,0-21.5908203,8.7753906-21.5908203,23.8466797
	c0,15.3916016,8.7207031,23.8359375,21.5136719,23.8359375c4.5458984,0,8.1220703-0.9492188,10.4550781-2.6210938
	l-2.1933594-2.1210938C197.2792969,270.9082031,195.5966797,271.6474609,192.6689453,271.6474609"/>
<path d="M80.1738281,233.6865234c-2.234375,0-4.0517578-1.6279297-4.0517578-3.625
	c0-2.0585938,1.8173828-3.6894531,4.0517578-3.6894531c2.2900391,0,4.0546875,1.6308594,4.0546875,3.6894531
	C84.2285156,232.0585938,82.4638672,233.6865234,80.1738281,233.6865234"/>
<path d="M30.9814453,228.296875C30.9892578,228.3076172,0,273.5722656,0,273.5722656h4.6245117l4.1757813-6.0966797
	c1.1635742-1.3583984,4.5717773-4.8261719,11.7006836-8.5019531c5.5537109-2.7548828,8.7910156-3.2421875,10.4804688-3.2021484
	v42.5371094h8.2451172v-71.6083984C39.2265625,226.7001953,34.8618164,225.6845703,30.9814453,228.296875z M18.2949219,256.0703125
	c0,0-0.9101563,0.2626953-2.2456055,0.8164063l14.9321289-21.8027344v19.4609375
	C29.1049805,254.2822266,25.0375977,254.1484375,18.2949219,256.0703125z"/>
<path d="M253.4775391,274.2285156c-2.0908203,0-4.2490234-0.265625-5.4589844-0.7363281v24.828125h-8.1533203v-59.25
	c2.7646484-1.4765625,6.8037109-2.6230469,12.59375-2.6230469c10.5830078,0,16.9853516,7.140625,16.9853516,18.7246094
	C269.4443359,267.0302734,262.9707031,274.2285156,253.4775391,274.2285156 M252.2626953,238.7773438
	c-1.8193359,0-3.0976563,0.3164063-4.2441406,0.8808594v31.5273438c0.9414063,0.4765625,2.15625,0.71875,3.6357422,0.71875
	c6.4667969,0,9.6328125-7.6435547,9.6328125-16.4609375C261.2871094,246.7509766,258.9267578,238.7773438,252.2626953,238.7773438"
	/>
<radialGradient id="XMLID_1_" cx="196.7783203" cy="14.7539063" r="277.8582764" gradientUnits="userSpaceOnUse">
	<stop  offset="0.0769231" style="stop-color:#FFF594"/>
	<stop  offset="0.181319" style="stop-color:#F5C814"/>
	<stop  offset="0.2255087" style="stop-color:#EEAE08"/>
	<stop  offset="0.3112905" style="stop-color:#E37A00"/>
	<stop  offset="0.3740316" style="stop-color:#DE5A00"/>
	<stop  offset="0.406593" style="stop-color:#DC4E00"/>
	<stop  offset="0.681319" style="stop-color:#200202"/>
	<stop  offset="1" style="stop-color:#74264F"/>
</radialGradient>
<path fill="url(#XMLID_1_)" d="M199.8535156,118.2182617c1.8613281-2.0864258,5.1386719-6.050293,9.4306641-12.3925781
	c0.0507813-0.0766602,0.1132813-0.1455078,0.171875-0.2138672c-22.9326172-21.5239258-56.2929688-39.3251953-93.925293-39.3251953
	c-22.3056641-0.0029297-46.1069336,6.2441406-70.1469727,21.6723633c-0.0463867,0.7070313-0.0864258,1.4189453-0.1162109,2.1274414
	c46.7963867-23.6186523,84.753418-16.2094727,90.6542969-4.9321289c-3.0371094-1.3857422-9.4145508-2.7817383-14.5141602-2.7817383
	c-12.199707,0-17.8666992-1.9365234-17.8666992-1.9365234s3.1113281,8.2246094,19.3105469,14.1992188
	c-13.3291016-2.4628906-46.8134766,4.5317383-75.4433594,19.8730469
	c3.3754883,15.2626953,10.4550781,29.1298828,20.2519531,40.6079102
	C94.0620117,129.5532227,142.1757813,101.9472656,199.8535156,118.2182617z"/>
<radialGradient id="XMLID_2_" cx="196.7783203" cy="14.7539063" r="277.8579712" gradientUnits="userSpaceOnUse">
	<stop  offset="0.0769231" style="stop-color:#FFF594"/>
	<stop  offset="0.181319" style="stop-color:#F5C814"/>
	<stop  offset="0.2255087" style="stop-color:#EEAE08"/>
	<stop  offset="0.3112905" style="stop-color:#E37A00"/>
	<stop  offset="0.3740316" style="stop-color:#DE5A00"/>
	<stop  offset="0.406593" style="stop-color:#DC4E00"/>
	<stop  offset="0.681319" style="stop-color:#200202"/>
	<stop  offset="1" style="stop-color:#74264F"/>
</radialGradient>
<path fill="url(#XMLID_2_)" d="M210.2851563,32.3725586c-0.0019531,0-0.0947266,0.0498047-0.0947266,0.0429688
	c1.4746094,2.3056641,2.8632813,4.6171875,4.1572266,6.934082c-0.9345703,0.3295898-3.2158203,1.1049805-3.4824219,1.2050781
	c-2.8486328,1.0791016-6.0810547,0.6132813-8.4746094-1.262207c-7.9316406-6.2167969-16.6513672-11.875-25.8320313-16.7714844
	c-4.6064453-2.4526367-7.9306641-6.7661133-9.4960938-11.7353516c-0.4785156-1.5102539-1.7412109-4.6870117-1.8994141-4.9589844
	c5.8730469,1.059082,11.7451172,2.6704102,17.5361328,4.890625c-0.0029297,0,0.0283203-0.0869141,0.0283203-0.0869141
	C169.7294922,3.8413086,154.9521484,0,139.2705078,0c-47.828125,0-87.3085938,35.6806641-93.2998047,81.8759766
	c3.7783203-2.3085938,7.5571289-4.3930664,11.3291016-6.2753906c3.1728516-16.9267578,9.3417969-27.5942383,18.784668-37.6342773
	c4.265625-3.8212891,10.2836914-5.097168,15.7148438-3.2939453c3.8134766,1.2636719,7.9746094,2.8222656,12.4995117,4.6713867
	c5.019043,2.0566406,7.9414063,7.2792969,7.4785156,12.6835938c-0.2670898,3.097168-0.4970703,6.2680664-0.6933594,9.4853516
	c1.484375-0.0512695,2.9589844-0.0825195,4.4423828-0.0825195c2.1455078,0.0068359,4.2744141,0.0693359,6.3969727,0.1791992
	c0.1411133-3.5615234,0.3076172-7.0527344,0.4995117-10.4663086c0.3276367-5.6318359,3.612793-10.730957,8.65625-13.2734375
	c8.8984375-4.4902344,17.5996094-8.2973633,25.9091797-11.3603516c5.4658203-2.0092773,11.5615234-1.5786133,16.6904297,1.1777344
	c8.3134766,4.4790039,16.2783203,9.5053711,23.6904297,14.9423828c4.7421875,3.4833984,7.9609375,8.7094727,8.9345703,14.5126953
	c1.4628906,8.7822266,2.3642578,18.1005859,2.6865234,27.7202148c0.1337891,3.9482422-1.0810547,7.7792969-3.34375,10.9194336
	c4.9267578,3.9692383,12.6347656,11.1274414,16.7958984,15.4794922c-1.3535156,3.5761719-3.9414063,8.8066406-6.6679688,12.4995117
	c3.625,1.5,7.28125,3.1884766,10.9628906,5.0576172c4.2685547-10.7426758,6.6220703-22.4638672,6.6220703-34.7250977
	C233.359375,70.4731445,224.6523438,48.8930664,210.2851563,32.3725586z M152.0888672,20.199707
	c-8.2304688,2.7675781-16.7910156,6.328125-25.5,10.6176758c-2.9204102,1.4326172-6.1064453,2.1484375-9.3071289,2.1484375
	c-2.4589844,0-4.9155273-0.4208984-7.2670898-1.2607422c-4.6054688-1.6396484-8.8813477-2.9697266-12.8061523-3.9794922
	c-3.0302734-0.7841797-5.2216797-3.2739258-5.5600586-6.0146484c18.3173828-12.71875,41.9003906-19.3408203,65.8818359-16.9526367
	c0.0195313,0.1201172,0.7958984,3.1401367,1.1376953,4.7783203
	C159.6435547,14.2119141,156.6181641,18.6796875,152.0888672,20.199707z M225.1914063,103.0307617
	c-0.8359375-0.9194336-1.7099609-1.8564453-2.6523438-2.8188477c-4.0478516-4.1352539-6.5214844-9.6191406-6.7441406-15.402832
	c-0.4023438-10.4316406-1.6142578-20.4990234-3.5722656-29.8857422c-0.5917969-2.8417969,0.6777344-5.8017578,3.2451172-7.1567383
	c0.3183594-0.1591797,2.2402344-1.1049805,2.5517578-1.269043c6.1933594,13.081543,9.4335938,26.2041016,9.4335938,38.8120117
	C227.4472656,91.3554688,226.7011719,97.2788086,225.1914063,103.0307617z"/>
<radialGradient id="XMLID_3_" cx="196.7783203" cy="14.7573242" r="277.8516541" gradientUnits="userSpaceOnUse">
	<stop  offset="0.0769231" style="stop-color:#FFF594"/>
	<stop  offset="0.181319" style="stop-color:#F5C814"/>
	<stop  offset="0.2255087" style="stop-color:#EEAE08"/>
	<stop  offset="0.3112905" style="stop-color:#E37A00"/>
	<stop  offset="0.3740316" style="stop-color:#DE5A00"/>
	<stop  offset="0.406593" style="stop-color:#DC4E00"/>
	<stop  offset="0.681319" style="stop-color:#200202"/>
	<stop  offset="1" style="stop-color:#74264F"/>
</radialGradient>
<path fill="url(#XMLID_3_)" d="M83.8120117,170.0966797c31.3945313,22.7724609,66.3950195,19.9082031,84.3686523,13.5488281
	c-16.6464844-12.2226563-37.2490234-19.765625-56.5761719-19.765625
	C101.7822266,163.8798828,92.2905273,165.8271484,83.8120117,170.0966797z"/>
<radialGradient id="XMLID_4_" cx="196.7783203" cy="14.753418" r="277.8588562" gradientUnits="userSpaceOnUse">
	<stop  offset="0.0769231" style="stop-color:#FFF594"/>
	<stop  offset="0.181319" style="stop-color:#F5C814"/>
	<stop  offset="0.2255087" style="stop-color:#EEAE08"/>
	<stop  offset="0.3112905" style="stop-color:#E37A00"/>
	<stop  offset="0.3740316" style="stop-color:#DE5A00"/>
	<stop  offset="0.406593" style="stop-color:#DC4E00"/>
	<stop  offset="0.681319" style="stop-color:#200202"/>
	<stop  offset="1" style="stop-color:#74264F"/>
</radialGradient>
<path fill="url(#XMLID_4_)" d="M139.3701172,134.0419922c2.8544922-1.2451172,9.3046875-2.4614258,14.3457031-2.1533203
	c12.3144531,0.7543945,18.1494141-1.1679688,18.1494141-1.1679688s-2.3955078,8.8535156-18.9716797,12.3071289
	c11.9160156,0,35.7470703,4.190918,57.4501953,12.7211914c6.1962891-7.137207,11.3300781-15.2250977,15.1669922-24.0014648
	c-15.1972656-7.0429688-33.9755859-10.4379883-50.140625-10.4394531
	C157.0195313,121.3071289,142.0283203,125.6757813,139.3701172,134.0419922z"/>
<path d="M220.6132813,158.4355469c-1.0800781,1.46875-3.1386719,1.7910156-4.609375,0.7128906
	c-1.4677734-1.0810547-1.7832031-3.1484375-0.703125-4.6171875c1.0810547-1.46875,3.1455078-1.7851563,4.6162109-0.7041016
	C221.3857422,154.9082031,221.6923828,156.9667969,220.6132813,158.4355469z M215.5576172,154.7197266
	c-0.9746094,1.3261719-0.6894531,3.1962891,0.6357422,4.1689453c1.3251953,0.9755859,3.1884766,0.6845703,4.1630859-0.6386719
	c0.9736328-1.3291016,0.6972656-3.1904297-0.6289063-4.1669922
	C218.4023438,153.1083984,216.5332031,153.3935547,215.5576172,154.7197266z M219.5458984,157.6289063
	c-0.6425781,0.875-1.8779297,1.0576172-2.7539063,0.4130859c-0.8808594-0.6474609-1.0742188-1.8828125-0.4326172-2.7548828
	c0.3652344-0.4960938,0.8935547-0.7587891,1.4726563-0.7871094l0.0361328,0.328125
	c-0.4794922,0.0195313-0.9404297,0.2392578-1.2451172,0.6533203c-0.5322266,0.7207031-0.3740234,1.7529297,0.3632813,2.2978516
	c0.7314453,0.5361328,1.7646484,0.3789063,2.2958984-0.3447266c0.2939453-0.3964844,0.3769531-0.9072266,0.2685547-1.3574219
	l0.3203125-0.0878906C220.0136719,156.5332031,219.9052734,157.140625,219.5458984,157.6289063z"/>
<path d="M226.0791016,150.8144531l-2.1914063-0.7207031l-1.3886719,1.9023438l1.3447266,1.8847656l-0.296875,0.4082031
	l-3.8837891-5.5869141l0.2460938-0.340332l6.4951172,2.0073242L226.0791016,150.8144531z M220.9462891,149.1298828
	c-0.5292969-0.1777344-0.7480469-0.3037109-0.7480469-0.3037109l-0.0117188,0.0141602c0,0,0.1679688,0.1811523,0.4951172,0.6391602
	l1.6054688,2.2226563l1.2529297-1.7216797L220.9462891,149.1298828z"/>
<path d="M222.3125,145.5766602l2.1230469,1.3989258l1.140625-1.730957l0.3046875,0.2001953l-1.1416016,1.7314453l2.6376953,1.737793
	l-0.2929688,0.4448242l-5.3671875-3.5375977l1.546875-2.3476563l0.3046875,0.2006836L222.3125,145.5766602z"/>
<path d="M230.46875,144.1459961c-0.7324219,1.2373047-2.4326172,1.2836914-4.0400391,0.3325195
	c-1.5683594-0.9287109-2.3925781-2.449707-1.6552734-3.6953125c0.2851563-0.4824219,0.6044922-0.7280273,0.8984375-0.8574219
	l0.1923828,0.2988281c-0.2197266,0.0976563-0.5166016,0.3227539-0.7314453,0.6850586
	c-0.6904297,1.1655273,0.2949219,2.3242188,1.5810547,3.0864258c1.3261719,0.784668,2.7851563,1.0185547,3.4472656-0.0986328
	c0.2089844-0.3535156,0.2646484-0.6679688,0.2607422-0.9736328l0.3544922,0.0249023
	C230.8251953,143.2709961,230.7167969,143.7280273,230.46875,144.1459961z"/>
<path d="M232.1279297,140.9882813l-1.8789063-3.5102539c-0.4306641-0.8110352-0.7773438-1.0991211-1.1455078-1.2832031
	c-0.7597656-0.3808594-1.3613281-0.1381836-1.8007813,0.7392578c-0.2353516,0.46875-0.2763672,0.8237305-0.2587891,1.1450195
	l-0.3720703-0.0083008c-0.0117188-0.4555664,0.0634766-0.8779297,0.3759766-1.5048828
	c0.4394531-0.8774414,1.3457031-1.3535156,2.2900391-0.8813477c0.4023438,0.2001953,0.8183594,0.6606445,1.2617188,1.5092773
	l1.5,2.9121094l1.2578125-2.5146484l0.3769531,0.1875L232.1279297,140.9882813z"/>
<path d="M235.2011719,134.7548828c-0.5927734,1.3632813-2.4521484,0.9223633-3.7646484,0.3515625
	c-1.3115234-0.5712891-2.9033203-1.6308594-2.3085938-2.9941406c0.59375-1.3637695,2.4521484-0.9233398,3.7636719-0.3515625
	C234.2041016,132.3320313,235.7949219,133.390625,235.2011719,134.7548828z M229.4121094,132.2348633
	c-0.4677734,1.0722656,1.2021484,1.9731445,2.2226563,2.4165039c1.0195313,0.4438477,2.7724609,1.0336914,3.2402344-0.0380859
	c0.4658203-1.0727539-1.1591797-1.9541016-2.1806641-2.3984375
	C231.6728516,131.7719727,229.8779297,131.1635742,229.4121094,132.2348633z"/>
<path d="M237.0478516,130.1826172c-0.5214844,1.3916016-2.3974609,1.0458984-3.7353516,0.5424805
	c-1.3398438-0.5019531-2.9794922-1.4770508-2.4580078-2.8676758c0.5234375-1.3911133,2.4003906-1.0458984,3.7373047-0.5424805
	C235.9316406,127.8168945,237.5712891,128.7919922,237.0478516,130.1826172z M231.1445313,127.9658203
	c-0.4111328,1.0932617,1.2988281,1.9057617,2.3417969,2.2963867c1.0410156,0.390625,2.8183594,0.8891602,3.2294922-0.2036133
	c0.4101563-1.09375-1.2568359-1.8896484-2.2978516-2.2802734
	C233.3769531,127.387207,231.5556641,126.8720703,231.1445313,127.9658203z"/>
<path d="M238.3320313,126.5966797l-0.3642578,0.03125c-0.0302734-0.8842773-0.2480469-2.1533203-1.6689453-3.171875
	c0.0263672,0.3139648,0.0029297,0.6591797-0.1181641,1.0332031c-0.3574219,1.1132813-1.2617188,1.6958008-2.4638672,1.3076172
	c-0.9082031-0.2929688-1.671875-1.1191406-1.2890625-2.3115234c0.359375-1.112793,1.3847656-1.4887695,2.8447266-1.0185547
	C238.0654297,123.3681641,238.3378906,125.8134766,238.3320313,126.5966797z M232.7519531,123.6098633
	c-0.2822266,0.871582,0.3603516,1.4716797,1.1171875,1.715332c1.0039063,0.3242188,1.6972656,0.0063477,2.0185547-0.9897461
	c0.1494141-0.4628906,0.1474609-0.8261719,0.125-1.0302734c-0.2910156-0.1625977-0.5791016-0.2749023-0.8994141-0.3779297
	C233.9306641,122.5444336,233.0380859,122.7192383,232.7519531,123.6098633z"/>
</svg>
