<?xml version="1.0" encoding="utf-8"?>
<!-- Generator: Adobe Illustrator 12.0.0, SVG Export Plug-In  -->
<!DOCTYPE svg PUBLIC "-//W3C//DTD SVG 1.1//EN" "http://www.w3.org/Graphics/SVG/1.1/DTD/svg11.dtd" [
	<!ENTITY ns_flows "http://ns.adobe.com/Flows/1.0/">
	<!ENTITY ns_svg "http://www.w3.org/2000/svg">
	<!ENTITY ns_xlink "http://www.w3.org/1999/xlink">
]>
<svg  version="1.1" xmlns="&ns_svg;" xmlns:xlink="&ns_xlink;" xmlns:a="http://ns.adobe.com/AdobeSVGViewerExtensions/3.0/"
	 width="244" height="300" viewBox="-0.4047852 0 244 300" enable-background="new -0.4047852 0 244 300" xml:space="preserve">
<defs>
</defs>
<path fill="#FFDC00" d="M157.2695313,21.519043c-0.0024414-0.0048828-0.0097656-0.012207-0.0097656-0.012207
	c0,0.0024414,0,0.0048828,0,0.0073242l0,0c0.0097656,0.0820313,0.0170898,0.1582031,0.0268555,0.237793
	c0.7504883,6.4052734-0.8310547,8.4365234-1.4912109,9.2333984c-3.9443359,5.1816406-20.3359375-4.4003906-27.8583984-3.390625
	c41.0961914,16.0361328,66.2646484,39.3071289,64.6582031,89.527832c0,0,0.0043945-0.012207,0.0117188-0.0380859
	c-0.0708008,0.8623047-0.1513672,1.7255859-0.2446289,2.6000977c0.1225586-0.2749023,1.0029297-2.3129883,1.1157227-2.590332
	c3.2695313-8.5292969,5.0625-17.7900391,5.0625-27.4672852C198.5405273,60.0302734,181.800293,34.3457031,157.2695313,21.519043"/>
<path fill="#F9B700" d="M192.5976563,117.1225586c1.6040039-50.2207031-23.5644531-73.4916992-64.6606445-89.527832
	c7.5249023-1.0097656,23.9140625,8.5722656,27.8583984,3.390625c0.6699219-0.8071289,2.2910156-2.8710938,1.4643555-9.4785156
	c0,0,0.4682617,0.5996094,0.8266602,1.3574219c0.8857422,1.8837891,2.0483398,5.8974609,0.2944336,9.6147461
	c-1.7954102,3.8178711-4.8417969,3.0576172-0.8955078,6.0390625c3.9541016,2.9814453,14.8349609,12.074707,19.5297852,17.4379883
	c4.6992188,5.3691406,12.6484375,14.6333008,15.3027344,32.5917969
	C194.949707,106.3720703,192.5976563,117.1225586,192.5976563,117.1225586"/>
<path fill="#FFDC00" d="M189.6811523,87.7285156c0,0-5.359375-17.2631836-22.7275391-31.4179688
	c-1.7392578-1.3588867-3.5302734-2.6860352-5.3574219-3.9785156c-0.4267578-0.2890625-0.8486328-0.5800781-1.2851563-0.8642578
	c0,0,0.0126953-0.0053711,0.0341797-0.012207c-21.9794922-15.2016602-49.3520508-25.4638672-66.8867188-29.9047852
	c2.1899414,10.3740234-6.1787109,31.4189453-23.4365234,34.1967773c0.0219727,0.0629883,0.605957,0.3168945,0.8803711,0.3286133
	c0.3706055,0.012207,0.7407227,0.0283203,1.1088867,0.0405273c1.1870117,0.0244141,2.9921875,0.0673828,5.2124023,0.1362305
	c5.8320313,0.1606445,11.6699219,0.4892578,17.487793,0.9638672c6.3798828,0.5175781,12.637207,1.4570313,18.9208984,2.652832
	c2.2148438,0.4267578,4.527832,0.8964844,6.9042969,1.4384766h0.0053711
	c10.8583984,2.4799805,23.5585938,6.4394531,33.8232422,15.6328125c0.0859375,0.074707,0.1645508,0.1484375,0.2504883,0.2182617
	c0.7675781,0.6660156,1.5009766,1.3491211,2.2197266,2.0444336c0.2255859,0.2158203,0.4414063,0.4399414,0.659668,0.6611328
	c0.534668,0.534668,1.0551758,1.0742188,1.5649414,1.6225586c0.2695313,0.2880859,0.5371094,0.5849609,0.7998047,0.8793945
	c0.4560547,0.5112305,0.8925781,1.03125,1.3242188,1.5512695c0.2431641,0.2993164,0.4980469,0.5913086,0.7358398,0.894043
	c0.5834961,0.7333984,1.1113281,1.5097656,1.6484375,2.2636719c0.2939453,0.4086914,0.5644531,0.828125,0.8466797,1.2426758
	c0.2695313,0.4047852,0.5415039,0.8071289,0.8046875,1.2163086c0.2919922,0.4663086,0.5834961,0.9335938,0.8632813,1.4082031
	c0.2182617,0.359375,0.4243164,0.7260742,0.6303711,1.0878906c0.2822266,0.4975586,0.5615234,0.9921875,0.831543,1.4995117
	v0.0024414c5.1137695,9.737793,7.0786133,20.5229492,5.7910156,30.5419922
	c-1.675293,13.0664063-4.6967773,21.7075195-8.4550781,27.1479492l-0.6674805,2.394043
	c13.1328125-8.7324219,23.421875-21.4008789,29.1835938-36.3212891c2.0258789-7.8735352-0.5224609-18.6694336-1.0991211-21.2583008
	C191.4541016,92.2368164,189.6811523,87.7285156,189.6811523,87.7285156"/>
<path fill="#E72300" d="M170.9370117,8.2236328c4.6137695,2.7607422,8.9770508,5.9023438,13.0439453,9.3818359
	c4.0688477,3.4829102,7.8466797,7.3056641,11.2802734,11.4174805c2.0136719,2.4135742,3.909668,4.9301758,5.6831055,7.5400391
	c2.2387695,0.1054688,4.4589844,0.2563477,6.6469727,0.4526367c-1.6606445-2.1904297-3.387207-4.3056641-5.1777344-6.3408203
	c-1.7880859-2.0356445-3.6376953-3.9951172-5.543457-5.8764648s-3.8657227-3.6791992-5.8745117-5.3999023
	c-3.7084961-3.175293-7.5839844-6.0678711-11.5839844-8.6655273c-4.003418-2.5991211-8.1259766-4.8999023-12.3354492-6.8911133
	c-1.4477539-0.6855469-2.9042969-1.3344727-4.3710938-1.9438477c-5.3549805-2.0527344-7.9423828-1.972168-8.9819336-1.7490234
	c2.0131836,0.7089844,3.9926758,1.4765625,5.9428711,2.3178711c1.949707,0.8369141,3.8662109,1.734375,5.7441406,2.6958008
	C167.2895508,6.121582,169.1318359,7.1445313,170.9370117,8.2236328"/>
<path fill="#E72300" d="M166.6767578,211.2915039c3.2128906-1.6191406,6.4233398-3.1958008,9.519043-5.0405273
	c3.0854492-1.8422852,6.1069336-3.8701172,9.0380859-6.0703125c2.9316406-2.2026367,5.7714844-4.5751953,8.5112305-7.1040039
	c2.7397461-2.53125,5.3745117-5.2143555,7.8857422-8.0400391c7.9594727-8.9428711,14.7119141-19.3061523,19.7475586-30.5888672
	c5.0380859-11.2924805,8.3540039-23.5097656,9.440918-36.1665039c0.2275391-2.7197266,0.3598633-5.4584961,0.3798828-8.2128906
	c0.0859375-10.7749023-1.1455078-20.9750977-3.4731445-30.519043c-2.9604492-12.1816406-7.7070313-23.3037109-13.7602539-33.1923828
	c-0.5395508,0.0532227-1.0913086,0.105957-1.6455078,0.1635742c-0.5541992,0.0551758-1.1210938,0.1162109-1.6875,0.1762695
	c-0.5712891,0.0581055-1.1479492,0.1152344-1.7294922,0.1782227c-0.5810547,0.0625-1.1694336,0.128418-1.7607422,0.190918
	c7.0341797,13.8989258,10.5297852,29.4760742,10.1445313,45.0517578
	c-0.3847656,16.0546875-4.777832,31.1303711-12.2148438,44.2729492
	c-7.3881836,13.0512695-17.7729492,24.1914063-30.2182617,32.4819336c-2.0922852,1.3935547-4.2436523,2.7055664-6.4458008,3.9345703
	c-0.3950195,0.2329102-1.7314453,0.9125977-1.7314453,0.9125977V211.2915039z"/>
<path fill="#FFDC00" d="M167.3164063,104.0922852c-5.1416016-12.7744141-12.6269531-21.2587891-21.1088867-26.980957
	c-0.0024414,0-0.0048828-0.0048828-0.0048828-0.0048828c-2.3916016-1.4912109-5.0185547-3.0917969-7.6157227-4.328125
	c-9.25-4.6230469-19.7866211-6.3730469-29.9360352-7.7001953c-10.4707031-1.3637695-21.0253906-2.1240234-31.5771484-2.4233398
	c-4.2631836-0.1201172-8.5258789-0.0810547-12.7866211-0.0551758c-11.2192383,0.0625-16.8803711,4.7089844-18.8276367,13.6923828
	c-1.0053711,4.6176758-1.6899414,9.9018555-1.3862305,17.1254883c0.1767578,4.3120117,1.1015625,11.5283203,2.8115234,15.4345703
	c5.1381836-3.1826172,13.2602539-7.1757813,23.1591797-10.1118164c0.8706055-0.2587891,1.7958984-0.5336914,2.8256836-0.8120117
	c11.7783203-3.1923828,32.6689453-10.1923828,53.7695313-7.3481445
	c18.6240234,2.5112305,35.2807617,10.3969727,42.1396484,16.7216797
	C168.3955078,106.0078125,167.8364258,105.3847656,167.3164063,104.0922852"/>
<path d="M148.5668945,208.6254883c-4.2578125-0.0146484-6.4135742-2.3574219-7.6547852-5.4404297
	c-1.2045898-3.0708008-1.3540039-6.8583984-1.3540039-9.4042969c0-2.3422852,0.2675781-5.3720703,1.2680664-7.7680664
	c1.0327148-2.3916016,2.6787109-4.1108398,5.6245117-4.1186523c3.921875,0.0078125,4.7314453,2.8354492,4.9838867,4.2856445
	l0.0395508,0.3310547h6.2880859l-0.0366211-0.4414063c-0.4980469-3.8681641-3.6103516-7.159668-10.8505859-7.1279297
	c-5.2080078-0.0126953-8.5507813,1.824707-10.5522461,4.7734375c-1.9692383,2.9624023-2.6025391,6.9257813-2.6025391,11.1967773
	c0,5.1879883,0.9223633,9.3330078,3.0859375,12.2368164c2.1459961,2.887207,5.550293,4.4375,10.3134766,4.4375h0.0175781
	c4.6259766,0,8.3662109-1.253418,9.5385742-1.7246094l0.2626953-0.0976563v-3.9912109l-0.6479492,0.4711914
	C155.1503906,207.0751953,152.4477539,208.6254883,148.5668945,208.6254883 M122.871582,184.3813477
	c0.1376953-2.0844727,0.1376953-1.8393555,2.4951172-1.9814453h10.1171875l-0.0664063-2.9580078h-22.746582v1.7392578
	l0.3457031,0.0678711c4.2480469,0.8540039,3.8535156,0.2358398,4.0053711,4.8203125v25.0063477h5.8496094v-15.0161133h6.3623047
	v-2.9682617h-6.3623047V184.3813477z M102.6860352,179.4418945l-0.4418945,1.2680664l-0.1669922,0.4487305l0.4663086,0.090332
	c1.5844727,0.2060547,2.6733398,0.4003906,2.5654297,1.0283203c0,0.1396484-0.0268555,0.3481445-0.1201172,0.5981445
	c-0.046875,0.1621094-1.175293,1.8540039-1.6972656,2.6000977l-18.5356445,25.6000977h3.8041992l17.9370117-24.6489258v12.1738281
	h-8.1040039l-2.1508789,2.9438477h10.2700195l0.012207,9.53125h5.5771484l-0.1225586-31.6337891H102.6860352z"/>
<path fill="#F9B700" d="M72.8725586,97.9282227c-11.5283203,3.2304688-20.371582,7.4467773-25.9858398,10.9223633
	c-1.7119141-3.9047852-2.6386719-11.1210938-2.8134766-15.4331055c-0.3017578-7.2236328,0.3808594-12.5092773,1.3837891-17.1254883
	c1.4125977-6.5043945,4.9277344-10.7700195,10.8393555-12.6132813c0,0-6.5009766,1.8886719-6.7973633,14.0126953
	c-0.2993164,12.1220703,2.875,21.3369141,10.3583984,19.2397461L72.8725586,97.9282227z"/>
<path fill="#F9B700" d="M120.5419922,61.3081055c-0.0029297,0-4.6948242-1.0131836-6.9121094-1.4399414
	c-6.2841797-1.1953125-12.5410156-2.1328125-18.918457-2.6523438c-5.8154297-0.4746094-11.652832-0.8037109-17.4907227-0.9619141
	c-2.2172852-0.0698242-4.0224609-0.112793-5.2119141-0.1357422c-0.3657227-0.0146484-0.7358398-0.0170898-1.1040039-0.0395508
	c-0.3974609-0.0253906-0.8579102-0.2695313-0.8828125-0.3320313c17.2578125-2.777832,25.6264648-23.8203125,23.4335938-34.1933594
	c0,0,3.0371094,3.0683594,2.6689453,8.8227539c-0.3725586,5.7543945-1.699707,9.590332-3.7626953,14.3144531
	c-1.8320313,4.1796875-2.6147461,8.3740234,5.4575195,10.4785156
	C110.671875,58.5170898,120.5419922,61.3081055,120.5419922,61.3081055"/>
<path fill="#E72300" d="M46.1020508,188.4848633c2.1826172,2.3276367,4.9106445,5.0161133,7.309082,7.1357422
	c2.4018555,2.1191406,4.9057617,4.1308594,7.5083008,6.0288086c2.6025391,1.9013672,4.765625,3.4584961,7.5522461,5.1137695
	c2.7841797,1.6660156,5.7592773,3.3925781,8.7124023,4.8007813v-37.4179688
	c-8.4887695-4.2631836-17.2504883-10.7773438-25.0776367-19.0849609
	c-7.8217773-8.3027344-14.9008789-18.3198242-19.4379883-29.815918c-4.253418-10.7788086-7.3095703-24.1733398-6.5219727-37.7866211
	c-0.0078125,0.0170898-0.0151367,0.0356445-0.0273438,0.0532227c-0.012207,0.0141602-0.0219727,0.0317383-0.0371094,0.0498047
	c-0.0117188,0.0151367-0.0292969,0.0332031-0.0483398,0.0454102c-0.0175781,0.0175781-0.034668,0.034668-0.0541992,0.050293
	c-2.4506836,2.890625-4.9448242,14.6220703-5.9624023,25.3999023c-0.2993164,3.1992188-0.1918945,6.1132813-0.1918945,8.8911133
	c0,6.5908203,0.7407227,13.0219727,2.0214844,19.2568359c1.8417969,8.9384766,6.0185547,19.9238281,9.1191406,25.6123047
	C35.2407227,174.6538086,39.9848633,181.9628906,46.1020508,188.4848633"/>
<path fill="#E72300" d="M47.6865234,95.3198242c2.5727539,1.6079102,5.4111328,3.175293,8.7324219,4.8022461
	c3.2768555,1.6054688,5.1240234,1.3085938,8.7734375,0.1630859c1.9179688-0.6015625,4.3339844-1.4360352,7.7114258-2.3530273
	c3.0317383-0.8183594,6.659668-1.8959961,10.7412109-2.9838867c6.175293-1.6518555,13.3823242-3.3481445,21.1035156-4.2802734
	c7.8242188-0.9492188,15.7592773-1.0385742,23.5585938,0.1743164c9.4165039,1.4594727,18.253418,4.2324219,25.4667969,7.6000977
	c7.2163086,3.3603516,12.7724609,6.6655273,15.7724609,9.7680664c0,0-0.480957-1.921875-1.4990234-5.2270508
	c-1.0175781-3.3046875-3.0224609-7.4365234-6.7260742-12.2871094c-3.7084961-4.8530273-8.6826172-9.9487305-16.75-14.5908203
	c0,0-6.7963867-0.8837891-9.597168-0.9267578c-6.1665039-0.0922852-15.0556641,0.1787109-25.9726563,2.3989258
	c-4.1894531,0.8457031-8.6782227,1.9741211-13.4238281,3.4433594c-4.8173828,1.4902344-8.4453125,2.765625-12.0454102,3.8510742
	C76.1147461,87.1015625,71.2192383,88.8125,67.456543,89.6010742c-4.6259766,0.9702148-7.4418945,1.3061523-10.046875,0.6083984
	c-0.1738281-0.0429688-0.3457031-0.0737305-0.5175781-0.1191406c-5.7299805-1.4506836-14.5600586-4.6210938-16.5517578-3.6010742
	c-1.3833008,0.7729492-1.3935547,1.7099609-0.6450195,2.7451172c0.9638672,1.3330078,2.4477539,2.3032227,3.7651367,3.25
	C44.8095703,93.4545898,46.2099609,94.394043,47.6865234,95.3198242"/>
<path fill="#FFDC00" d="M76.9169922,22.2250977c-0.4931641-4.0947266-2.4482422-7.706543-4.9331055-10.7148438
	c-0.8066406-0.7666016-1.6772461-1.4643555-2.5996094-2.0917969c-1.4106445-0.965332-2.9482422-1.7563477-4.5742188-2.3608398
	c-1.2929688-0.4794922-2.6367188-0.8339844-4.0302734-1.0551758c-2.144043-0.3393555-4.3706055-0.3642578-6.6328125-0.0043945
	c-3.9438477,0.6142578-7.421875,2.2822266-10.2255859,4.6425781h-0.0073242
	c-0.612793,0.5249023-1.2041016,1.0732422-1.7563477,1.6582031c-1.6015625,1.7207031-2.8740234,3.7099609-3.7841797,5.8623047
	c-0.0913086,0.2109375-0.1889648,0.4243164-0.2651367,0.6352539c-0.3779297,0.9970703-0.6645508,2.0395508-0.8754883,3.1015625
	c-0.3413086,1.7280273-0.4536133,3.5087891-0.3041992,5.3271484c0.0439453,0.5556641,0.0981445,1.1000977,0.1938477,1.6484375
	c1.5893555,9.3276367,9.3867188,14.0449219,18.6806641,13.9848633c1.5400391-0.0097656,3.1274414-0.1362305,4.7285156-0.3867188
	c1.4921875-0.2314453,3.6328125-0.7612305,5.8823242-1.7539063c0.5957031-0.2587891,1.1845703-0.5551758,1.7851563-0.8789063
	c0.0200195-0.0097656,0.0419922-0.0219727,0.0664063-0.0341797c1.1801758-0.6538086,2.4555664-1.7011719,3.4365234-2.7539063
	C74.8613281,33.6723633,77.7895508,29.3198242,76.9169922,22.2250977 M57.7480469,31.7285156
	c-0.671875,0.2563477-1.3852539,0.4550781-2.1362305,0.5727539c-0.4902344,0.0834961-0.9916992,0.050293-1.4770508,0.1152344
	c-4.4960938,0.6132813-10.0166016-1.4482422-11.0888672-7.7626953c-0.1225586-0.7265625-0.1689453-1.4072266-0.1689453-2.0727539
	c0-0.7607422,0.0805664-1.4838867,0.2353516-2.1645508c0.3208008-1.4140625,1.1132813-3.0771484,2.003418-4.1416016
	c1.847168-2.2050781,3.9785156-3.6547852,7.6259766-4.2299805c0.6621094-0.0976563,1.3222656-0.1582031,1.9750977-0.1958008
	l0.2871094-0.0151367c3.6713867,0.2441406,5.1210938,0.6958008,7.5957031,3.2207031
	c1.2685547,1.3037109,2.1640625,2.9785156,2.5170898,5.0576172c0.4804688,2.7802734-0.3979492,5.3271484-1.9204102,7.5507813
	C61.972168,29.4560547,60.8657227,30.6835938,57.7480469,31.7285156"/>
<path fill="#FFFFFF" d="M63.1982422,27.6621094c-1.2260742,1.7939453-2.3325195,3.0214844-5.4501953,4.0664063
	c-0.671875,0.2563477-1.3881836,0.4550781-2.1362305,0.5751953c-0.4931641,0.0834961-0.9887695,0.0478516-1.4770508,0.112793
	c-4.4960938,0.6132813-10.0195313-1.449707-11.0888672-7.7626953c-0.1225586-0.7265625-0.1689453-1.4072266-0.1689453-2.0703125
	c0-0.7631836,0.0805664-1.4863281,0.2373047-2.1669922c0.3188477-1.4140625,1.1113281-3.0771484,2.0014648-4.1416016
	c1.847168-2.2026367,3.9785156-3.6547852,7.628418-4.2275391c0.6572266-0.1000977,1.3198242-0.1606445,1.9750977-0.1982422
	l0.284668-0.0151367c3.6713867,0.2441406,5.1210938,0.6958008,7.5957031,3.2197266
	c1.2685547,1.3032227,2.1660156,2.9785156,2.5170898,5.0585938C65.5947266,22.8925781,64.71875,25.4394531,63.1982422,27.6621094"/>
<path fill="#E72300" d="M86.2836914,22.0952148C85.1923828,14.2182617,74.3217773-3.034668,56.5712891,0.4619141
	c-1.7026367,0.3261719-3.3466797,0.8066406-4.9433594,1.40625c-4.2011719,1.5898438-7.9541016,4.0390625-10.9980469,7.1230469
	c-2.1533203,2.1904297-3.9589844,4.6899414-5.2905273,7.4125977c-0.2133789,0.4462891-0.4243164,0.8964844-0.6235352,1.3535156
	c-1.7802734,4.2216797-2.4770508,8.9111328-1.7363281,13.7358398c0.2426758,1.5576172,0.6279297,3.0463867,1.1333008,4.4741211
	c0.1005859,0.2827148,0.1962891,0.5541992,0.2993164,0.8334961c3.3823242,8.5947266,11.3466797,14.5849609,20.5400391,16.1875
	c3.1938477,0.5581055,6.5317383,0.5922852,9.8793945,0.0146484c2.1074219-0.3618164,5.1367188-1.2705078,8.2661133-3.0439453
	c0.0175781-0.0073242,0.034668-0.0097656,0.0541992-0.0219727c0.0195313-0.0107422,0.0512695-0.0234375,0.0805664-0.0478516
	c2.1264648-1.2128906,4.2998047-2.8413086,6.25-4.9536133C83.8510742,40.1884766,87.8779297,33.5107422,86.2836914,22.0952148
	 M71.6992188,37.0507813c-0.9804688,1.0566406-2.2558594,2.1015625-3.4355469,2.7490234
	c-0.0249023,0.0146484-0.0444336,0.0268555-0.0664063,0.0405273c-0.5961914,0.3232422-1.1899414,0.6166992-1.7832031,0.8754883
	c-2.2514648,0.9916992-4.3901367,1.5253906-5.8823242,1.7539063c-1.605957,0.2509766-3.1884766,0.3759766-4.7285156,0.3862305
	C46.5092773,42.9160156,38.7138672,38.1992188,37.125,28.8710938c-0.0957031-0.546875-0.1523438-1.090332-0.1962891-1.6469727
	c-0.1547852-1.8164063-0.034668-3.5996094,0.3066406-5.3276367c0.2104492-1.0629883,0.4980469-2.1044922,0.8706055-3.1000977
	c0.0805664-0.2133789,0.1762695-0.4243164,0.2675781-0.6352539c0.9101563-2.1547852,2.1801758-4.1416016,3.7866211-5.8671875
	c0.5473633-0.5800781,1.1411133-1.1269531,1.7592773-1.6518555h0.0043945
	c2.8012695-2.3583984,6.2792969-4.03125,10.2207031-4.6469727c2.2646484-0.3588867,4.4912109-0.3286133,6.6328125,0.0073242
	c1.3935547,0.2211914,2.7397461,0.5756836,4.0327148,1.0522461c1.628418,0.6083984,3.1660156,1.3994141,4.5742188,2.3608398
	c0.9199219,0.6279297,1.7905273,1.3295898,2.5996094,2.0947266c2.4829102,3.0073242,4.4399414,6.621582,4.9350586,10.7148438
	C77.7822266,29.3212891,74.8588867,33.6713867,71.6992188,37.0507813"/>
<path fill="#F9B700" d="M37.125,28.8720703c1.5888672,9.328125,9.3842773,14.0429688,18.6782227,13.9848633
	c1.5400391-0.0097656,3.1225586-0.1347656,4.7285156-0.3886719c1.4892578-0.2260742,3.6308594-0.7617188,5.8798828-1.7539063
	c0.5957031-0.2553711,1.1894531-0.5517578,1.7856445-0.8754883c0.0219727-0.0136719,0.0415039-0.0234375,0.0664063-0.0380859
	c1.1767578-0.6513672,2.4575195-1.6962891,3.4355469-2.7485352c3.159668-3.3823242,6.0859375-7.7324219,5.2197266-14.828125
	c-0.4951172-4.0913086-2.4550781-7.7080078-4.9350586-10.7148438c-0.809082-0.7626953-1.6796875-1.4643555-2.5996094-2.0922852
	c-0.3701172-0.2539063-0.7480469-0.4916992-1.1357422-0.7211914c10.3115234,9.6000977,4.8198242,21.6533203,0.4907227,25.7026367
	c-4.0126953,3.7416992-11.7045898,7.703125-20.6704102,4.5810547c-7.7407227-2.6923828-10.5415039-10.2397461-11.1650391-12.2617188
	c0.0097656,0.1699219,0.0097656,0.3359375,0.0249023,0.5073242C36.9726563,27.7792969,37.0292969,28.3232422,37.125,28.8720703"/>
<path fill="#FFDC00" d="M166.1689453,142.6918945l0.0019531-0.0097656c0.4980469-1.3027344,0.9863281-2.6591797,1.4526367-4.0522461
	c1.5986328-5.1850586,3.7841797-14.8564453,2.4770508-26.1894531c-0.0419922-0.2895508-0.0786133-0.4628906-0.1298828-0.6967773
	c-7.2460938-7.1928711-23.3212891-12.7607422-31.465332-14.6650391
	c-22.5893555-5.2749023-55.7583008,0.6279297-85.6459961,19.3066406
	c-3.1689453,1.984375-0.8857422,10.2919922,10.0961914,23.5302734
	c9.8452148,11.8613281,31.3022461-15.9560547,63.1069336-17.3686523c11.78125-0.5224609,20.2724609,0.8779297,27.5131836,3.5195313
	c3.7915039,1.7294922,12.5708008,6.6645508,12.5932617,16.6279297V142.6918945z"/>
<path fill="#E72300" d="M39.1806641,271.0463867c0.6645508,2.9477539,1.6137695,6.9731445,3.1635742,12.4306641l0.6552734,0.1025391
	l2.4619141,0.0444336c0.7856445,0.0561523,1.2612305,0.2329102,1.371582,0.9443359
	c-0.0566406,1.0625-0.7675781,1.7192383-2.1264648,1.9726563l-1.3076172,0.2373047
	c1.4985352,4.5576172,2.3574219,6.8505859,3.5371094,8.6220703c0.7797852,1.1669922,1.5058594,2.0795898,1.4541016,2.9995117
	c-0.0585938,1.0766602-1.0888672,1.2143555-1.699707,1.2802734l-0.3823242-0.0244141
	c-1.324707-0.0883789-1.9892578-1.7143555-3.909668-6.1860352c-0.9174805-2.1362305-1.4008789-3.5512695-2.3330078-5.9819336
	c0,0-1.456543-0.4047852-4.0957031-0.1225586c-4.4423828,0.4824219-7.2749023,1.4223633-7.2749023,1.4223633
	s-4.1333008,7.0913086-5.5214844,9.6982422c-0.8188477,1.0668945-1.6875,1.574707-2.6074219,1.5083008l-0.3725586-0.0219727
	c-0.878418-0.0585938-1.378418-0.3212891-1.5136719-0.8022461l-0.065918-0.9882813
	c0.0219727-0.4462891,2.9873047-6.1738281,8.2539063-14.2167969c2.2807617-3.4931641,4.34375-7.753418,5.5205078-10.1054688
	c0.5375977-1.0942383,1.9677734-5.871582,4.0151367-5.734375C36.4033203,268.125,38.4296875,267.7324219,39.1806641,271.0463867
	 M36.2172852,274.9458008c-1.9570313,3.9443359-3.8974609,7.777832-4.7954102,9.4931641l-0.0019531,0.0703125l0.0634766,0.0053711
	c0.5986328,0.0390625,3.3256836-0.1254883,6.0170898-0.5893555l0.8999023-0.0039063
	C37.8115234,281.1069336,36.2172852,274.9458008,36.2172852,274.9458008"/>
<path fill="#E72300" d="M63.5151367,293.9038086l-0.0742188-0.125c-0.4731445-0.8286133-0.9980469-2.7739258-1.2900391-4.9375
	c-0.0957031-0.7529297-0.1518555-1.5209961-0.203125-2.2617188c-0.1547852-2.2319336-0.2875977-4.1499023-1.6855469-4.1499023
	c-0.0708008,0-0.1420898,0.0073242-0.2158203,0.0141602c-1.1625977,0.1572266-1.5717773,1.2070313-2.4648438,3.5083008
	l-0.309082,0.7773438c-0.7998047,2.2172852-2.9194336,6.3647461-4.1337891,6.3647461
	c-0.1054688,0-0.1987305-0.0214844-0.2915039-0.0976563c-0.5249023-0.4272461-0.1865234-2.8061523,0.1176758-4.8911133
	c0.3388672-2.3618164,0.6621094-4.6044922,0.0761719-5.2861328c-0.1279297-0.1450195-0.284668-0.2182617-0.5371094-0.2182617
	h-0.0097656c-0.5888672,0.0463867-1.1313477,0.3554688-1.6630859,0.9570313
	c-1.1137695,1.7265625-1.4912109,2.6342773-1.4887695,5.2983398c0.0024414,0.7895508,0.0097656,1.7241211-0.0151367,2.8720703
	c-0.0512695,2.2363281,0.706543,3.8701172,1.5039063,4.6821289c0.4267578,0.4365234,0.9711914,0.6621094,1.6088867,0.6621094
	c1.1455078,0,2.1977539-0.6987305,2.2426758-0.730957c1.1401367-0.7109375,2.8569336-2.1044922,4.6455078-6.0014648
	c0.362793,1.6137695,1.1821289,7.0761719,3.7202148,7.3779297c0,0,0.0932617,0.0146484,0.2285156,0.0146484
	c0.3041992,0,0.7260742-0.0620117,0.9931641-0.3359375c0.1547852-0.1621094,0.2329102-0.3803711,0.2255859-0.6430664
	C64.5986328,296.5507813,64.6552734,295.8886719,63.5151367,293.9038086"/>
<path fill="#E72300" d="M70.7255859,297.0166016c-3.4580078-0.2280273-4.9125977-1.3686523-5.1333008-2.8994141
	c-0.0981445-0.6889648-0.046875-1.1669922,0.1621094-1.4375c0.1616211-0.2202148,0.4287109-0.3432617,0.8803711-0.4042969h0.0073242
	c0.5224609,0,2.2861328,1.3466797,4.409668,1.5478516c0.9179688,0.078125,3.9248047-0.0957031,4.0966797-1.277832
	c0.1547852-1.1015625-1.3935547-1.6069336-4.7167969-2.4067383c-2.9506836-0.8632813-4.4589844-1.925293-4.4589844-3.1489258
	v-0.1865234c0-2.0068359,1.2236328-3.5229492,3.7475586-4.6289063c0.7382813-0.3383789,2.3989258-0.6992188,3.8041992-0.6992188
	c1.265625,0,2.1362305,0.2773438,2.4575195,0.7998047c0.21875,0.362793,0.2651367,0.6938477,0.1450195,0.9887695
	c-0.2133789,0.5180664-0.8852539,0.8710938-1.4619141,1.0004883c-0.5297852,0.0786133-1.0180664,0.1591797-1.4594727,0.2163086
	c-2.0874023,0.3017578-3.0415039,0.4414063-3.1835938,1.1918945c-0.0566406,0.2895508-0.2255859,1.152832,3.4980469,2.1416016
	c4.9199219,1.3046875,5.6557617,3.6469727,5.6557617,4.9248047c0,1.9526367-1.8295898,3.2993164-5.4208984,3.9936523
	C72.6835938,296.918457,71.6679688,297.0166016,70.7255859,297.0166016"/>
<path fill="#E72300" d="M102.7539063,282.0048828c-0.1738281-0.5200195-0.8266602-0.8754883-1.296875-0.8754883
	l-0.2724609-0.0073242c-0.355957,0-0.7553711,0.0957031-1.1650391,0.262207
	c-1.6606445,0.5473633-4.3730469,2.9707031-5.222168,4.9111328l-0.0566406-1.1430664
	c-0.2792969-1.7612305-0.9023438-2.2128906-2.1630859-2.2128906H92.418457
	c-0.5004883,0.0712891-3.9003906,0.4174805-4.5869141,0.6704102c-0.8876953,0.3256836-1.6606445,0.3383789-1.6606445,0.3383789
	l-0.0268555-2.8603516c0-2.9267578,0.2182617-2.0112305,0.5395508-4.5917969
	c0.2133789-1.7338867-0.0981445-3.1835938-1.3071289-3.3237305h-0.2597656c-0.8637695,0-1.8549805,0.7436523-2.109375,1.9624023
	c-1.1704102,5.5849609-0.7460938,9.2958984-0.7460938,9.2958984s-0.7924805,0.0498047-1.7338867,0.0322266
	c-1.7783203,0-2.6147461,0.1987305-2.8354492,1.324707c-0.3725586,1.9428711,4.8662109,2.3793945,4.8740234,2.3818359
	c0,0,0.0043945,0,0.0043945,0.0043945c0.0073242,0.0297852,0.1835938,0.6699219,0.2695313,1.8378906
	c0.0200195,0.4414063,0.0371094,0.9536133,0.0419922,1.5620117c0,0.1860352,0,0.3608398,0.0073242,0.5400391v0.2719727
	c0,2.5947266,0.1791992,4.6870117,1.1381836,5.3613281c0.8608398,0.6108398,2.6318359,0.3266602,2.5634766-2.5820313v-0.6376953
	c0-0.6206055-0.0644531-2.4208984-0.0644531-2.987793l-0.3823242-4.0644531
	c0.8632813-0.4316406,4.7485352-0.6279297,5.0039063-0.6967773c0.7553711-0.2202148,0.8754883,2.0922852,1.1694336,4.1943359
	c0.3115234,2.2397461,0.0742188,4.6972656,0.1772461,5.0478516c0.5541992,1.8911133,3.0019531,1.1801758,3.0039063,0.184082
	c0.0151367-0.9467773,0.1425781-3.7773438,0.8193359-5.9501953c1.3588867-3.3901367,3.3066406-4.9331055,5.4995117-6.5693359
	C102.2641602,283.3520508,102.9750977,282.6918945,102.7539063,282.0048828"/>
<path fill="#E72300" d="M143.3549805,281.7866211c0.7285156,0,1.2163086,0.6157227,1.4692383,1.8398438
	c0,0.6499023,0.3823242,2.7329102,1.1694336,6.2670898c0.5473633,1.9697266,0.9101563,3.0390625,1.9580078,4.3901367
	c0.6176758,0.9448242,0.9321289,1.6660156,0.9321289,2.1762695v0.3530273c0,0.434082-0.8930664,1.4448242-1.9155273,1.1723633
	c-1.0595703-0.2866211-2.2275391-1.0668945-2.7744141-2.4702148c-1.265625-3.2744141-1.1064453-3.1958008-1.1064453-3.1958008
	c-1.3486328,2.0727539-2.2685547,4.4399414-8.0668945,4.5820313c-1.5063477,0.0371094-3.0708008-0.96875-3.1884766-3.6054688
	c-0.1181641-2.6293945,1.878418-6.8017578,9.418457-10.7880859c0.6870117-0.3505859,1.2143555-0.7211914,1.8271484-0.7211914
	H143.3549805z M140.2080078,291.9194336c1.7607422-2.2832031,1.675293-5.871582,0.2285156-5.8300781
	c-0.6181641,0.0244141-1.8520508,1.2021484-3.5644531,2.9829102c-1.0644531,1.3486328-2.0698242,3.5512695-1.5961914,4.2333984
	C135.7558594,293.9799805,138.5131836,294.1074219,140.2080078,291.9194336"/>
<path fill="#E72300" d="M123.1069336,273.425293c-0.3701172,4.0615234-1.5742188,11.1772461,0.4785156,21.7539063
	c0.434082,2.2392578-0.4267578,2.1416016-0.6279297,2.190918c-0.6108398,0.1494141-1.4643555,0.0068359-1.8959961-1.1625977
	c-2.0258789-5.4897461-2.8867188-17.5332031-1.9741211-23.2211914
	C120.0244141,267.1655273,123.4975586,269.0571289,123.1069336,273.425293"/>
<path fill="#E72300" d="M186.3085938,296.8276367c-2.7275391-0.2402344-8.1630859-3.3481445-7.5722656-11.3935547
	l0.0493164-0.6860352c0.5400391-7.3984375,4.9399414-10.2929688,8.8720703-10.5283203
	c0.2817383-0.0195313,0.5737305-0.0117188,0.8974609,0.0175781c7.7363281,0.6865234,8.7392578,10.125,8.5698242,12.4208984
	c-0.137207,1.847168-1.2607422,11.0180664-10.1665039,10.2255859L186.3085938,296.8276367z M188.2900391,277.9702148
	c-0.3110352-0.0292969-0.6279297,0.0097656-0.9316406,0.1005859c-1.9379883,0.6152344-4.1333008,2.8847656-4.4643555,7.4082031
	c-0.3969727,5.4350586,2.8603516,7.4907227,4.4985352,7.6401367l0.1005859,0.0097656
	c4.1845703,0.1767578,6.2475586-3.2841797,6.4677734-6.2915039l0.0366211-0.5024414
	C193.9975586,281.8579102,190.5493164,278.1708984,188.2900391,277.9702148"/>
<path fill="#E72300" d="M204.5644531,272.2578125c0.8168945,0,0.9418945,1.0151367,0.6938477,3.2763672
	c-0.2177734,1.9873047-1.0297852,14.3027344-1.0864258,16.5473633c-0.0537109,2.2568359,0.0097656,4.6948242-1.6503906,4.6679688
	c-1.6679688-0.0224609-2.1533203-2.0952148-2.0063477-6.9516602c0.0664063-1.9814453,0.059082-5.3569336,0.2133789-8.0429688
	C201.1303711,274.7275391,202.5581055,272.2578125,204.5644531,272.2578125"/>
<path fill="#E72300" d="M116.887207,293.8305664c-1.824707-4.2705078,0.3212891-9.7299805-3.8066406-11.7226563
	c-0.0126953-0.0048828-0.0297852-0.0048828-0.046875-0.0097656c-0.3115234-0.0932617-0.6328125-0.1860352-0.9858398-0.2792969
	c-1.1674805-0.1914063-3.1298828-0.230957-5.0673828,0.8730469c-3.6694336,2.090332-7.2260742,6.7358398-6.1025391,11.0771484
	c0.3652344,1.4272461,1.4960938,2.7226563,3.1318359,3.0439453c1.7246094,0.3334961,5.0361328,0.4736328,8.6220703-6.0390625
	c0,0-0.0786133,4.9741211,3.1713867,7.1376953c0.6914063,0.4663086,2.5380859-0.1030273,2.3125-1.4125977
	C117.9711914,295.6479492,117.8461914,295.6650391,116.887207,293.8305664 M104.9248047,292.9223633
	c-1.1967773-0.7871094-0.9438477-3.8554688,0.8339844-6.043457c2.9165039-3.6054688,5.6855469-2.2070313,6.1196289-1.8540039
	C113.5585938,286.425293,107.59375,294.6689453,104.9248047,292.9223633"/>
<path fill="#E72300" d="M176.0288086,293.1875c-1.2753906-0.0341797-2.6806641,0.0888672-5.1826172,0.0664063
	c-2.3989258-0.0170898-4.4467773-0.1767578-6.8925781-0.2651367c0,0,6.4311523-5.0180664,8.3398438-6.9707031
	c2.8085938-2.8183594,4.5180664-4.7758789,4.2163086-8.0922852c-0.3017578-3.3134766-3.3164063-5.5600586-6.1538086-5.5429688
	c-2.4682617,0.012207-5.0854492,1.0126953-7.3686523,3.0244141c-1.6831055,1.6459961,0.2470703,4.4785156,2.3647461,2.6904297
	c0.0239258-0.0146484,0.0395508-0.0244141,0.0683594-0.0366211c1.3198242-1.0991211,2.769043-1.4301758,4.0620117-1.4692383
	c2.3476563-0.0761719,2.8232422,1.5693359,2.4580078,2.7792969c-1.6757813,5.6123047-12.4165039,11.8227539-13.7216797,13.1274414
	c-1.3022461,1.2900391-1.4790039,4.0297852,1.8032227,4.6967773c3.3847656,0.2329102,3.1489258-0.7578125,10.4389648-0.5175781
	c3.4267578,0,4.0595703,0.7236328,6.5219727,0.1987305C178.1923828,296.621582,178.9770508,293.2539063,176.0288086,293.1875"/>
<path fill="#E72300" d="M225.8349609,273.7143555c0.0566406-1.2314453-3.8383789-0.934082-6.6811523-0.737793
	c-3.0610352,0.1933594-5.5708008,0.9072266-7.3681641,1.277832c-0.6821289,0.1420898-1.2338867,0.6376953-1.4350586,1.3217773
	c-0.6547852,2.2348633-2.4868164,7.8007813-1.3930664,11.2392578c0.2675781,0.8486328,2.7026367-0.5297852,5.2880859-0.9418945
	c5.2587891-1.2070313,5.6831055,1.9545898,5.7592773,3.0170898v0.1000977
	c0.2597656,4.7172852-5.0185547,5.5463867-7.6772461,5.2885742c-1.5800781-0.0810547-2.4624023-0.2675781-3.0908203-0.2675781
	c-2.7172852,0-2.6386719,1.9799805-0.7919922,2.7714844c1.0839844,0.4589844,2.359375,0.6967773,4.6064453,0.9125977
	c6.3330078,0.605957,12.1630859-3.6152344,11.9179688-9.9726563c-0.2285156-5.7993164-5.65625-6.4736328-12.1660156-4.7416992
	c-0.1567383,0.0415039-0.5883789,0.1000977-0.6010742-0.503418c-0.0366211-1.3046875-0.1494141-4.0712891,2.0507813-5.2016602
	C215.3198242,276.7314453,225.7416992,275.7797852,225.8349609,273.7143555"/>
<path fill="#E72300" d="M129.644043,277.9550781c0.9511719,0.2802734,2.2758789-0.2543945,2.2758789-0.9975586
	c0,0,0-1.7861328-1.7832031-1.8891602c-1.159668-0.0688477-2.0161133,0.3632813-2.0161133,1.0839844
	C128.1206055,276.8662109,128.6875,277.6831055,129.644043,277.9550781"/>
<path fill="#E72300" d="M129.8154297,280.793457c0.0249023,0,0.0493164,0.0073242,0.0859375,0.0073242
	C129.8696289,280.8007813,129.840332,280.8007813,129.8154297,280.793457"/>
<path fill="#E72300" d="M129.3666992,292.5571289c-0.1713867-2.6586914,0.1494141-5.0253906,0.3803711-7.0073242
	c0.1713867-1.4765625-0.0195313-2.7080078-0.5810547-3.2133789c-0.0224609-0.0126953-0.0449219-0.0297852-0.0688477-0.0463867
	c-0.0341797-0.027832-0.0712891-0.0395508-0.1030273-0.0644531c-0.1083984-0.0463867-0.2133789-0.0859375-0.331543-0.1147461
	c-0.03125,0-0.0537109-0.0053711-0.0805664-0.0053711c-0.1103516-0.0170898-0.2285156-0.0317383-0.3583984-0.0317383
	c-1.2973633,0-1.6015625,4.1772461-1.6826172,5.840332c-0.0708008,1.6557617-0.2475586,4.675293-0.1938477,6.1713867v0.0073242
	c0.0029297,0.2597656,0.0146484,0.5151367,0.0146484,0.7773438c0.0297852,2.6982422,1.1801758,3.0517578,1.9819336,2.8769531
	C129.8154297,297.418457,129.5581055,295.5966797,129.3666992,292.5571289"/>
<path fill="#FFFFFF" d="M148.6064453,124.5141602c-8.9770508-5.8696289-18.2290039-10.3486328-26.8920898-13.7519531
	c0.4047852-0.7158203,0.6108398-1.4765625,0.6010742-2.25c-0.0449219-4.0791016-5.9458008-7.1586914-13.7211914-7.1586914
	l-0.2353516,0.0024414c-3.7822266,0.0356445-7.2749023,0.8242188-9.7963867,2.1425781
	c-5.1801758-1.2387695-9.4829102-2.0200195-12.4921875-2.4897461c-0.3408203,0.109375-0.6816406,0.2172852-1.0200195,0.3276367
	c4.0786133,1.0839844,7.9516602,2.2270508,11.6113281,3.4106445c-0.1987305,0.1655273-0.3925781,0.3359375-0.5639648,0.5126953
	c-1.0307617,1.0522461-1.5673828,2.2626953-1.550293,3.5014648c0.0366211,4.0786133,5.9233398,7.1523438,13.6914063,7.1523438
	h0.262207c4.1425781-0.034668,7.9370117-0.9765625,10.4931641-2.5288086
	c7.5102539,3.440918,13.3061523,6.7070313,17.3706055,9.2255859
	C140.9462891,122.9023438,144.956543,123.5595703,148.6064453,124.5141602 M108.1430664,112.8623047h-0.2382813
	c-6.2319336,0-10.9121094-2.4521484-10.9316406-4.6494141c-0.0048828-0.5224609,0.2504883-1.0644531,0.7626953-1.6201172
	c0.3554688-0.3813477,0.8071289-0.7358398,1.324707-1.0595703c5.9453125,1.9941406,11.2875977,4.0742188,16.043457,6.1254883
	C113.1416016,112.3945313,110.6865234,112.8398438,108.1430664,112.8623047 M118.5258789,109.546875
	c-6.0317383-2.2280273-11.7119141-3.9389648-16.730957-5.2426758c1.8129883-0.5825195,3.9765625-0.9208984,6.2524414-0.9467773
	h0.2138672c6.2397461,0,10.9335938,2.4614258,10.9560547,4.6542969
	C119.222168,108.5092773,118.984375,109.0249023,118.5258789,109.546875"/>
<path fill="#F9B700" d="M154.1889648,126.3461914c-7.3686523-2.7915039-16.012207-4.3364258-28.1264648-3.7993164
	c-31.8022461,1.4125977-53.2587891,29.2299805-63.1044922,17.3686523
	c-10.984375-13.2382813-13.2675781-21.5458984-10.1010742-23.5302734c1.0297852-0.6376953,1.2045898-0.7407227,2.2373047-1.3510742
	c0,0-1.5800781,1.3510742,2.5117188,8.6235352c3.4633789,6.1567383,10.1542969,10.4052734,15.9355469,10.6088867
	c6.9633789,0.2402344,12.2861328-2.9189453,20.5742188-6.4116211c8.6313477-3.6328125,19.6391602-7.7607422,33.7719727-8.0258789
	C143.9438477,119.5273438,154.1889648,126.3461914,154.1889648,126.3461914"/>
<path fill="#E72300" d="M204.2705078,39.5571289c-9.1342773-0.4467773-19.2763672-0.5302734-29.1958008-0.0957031
	c-5.1484375,0.2290039-9.9926758,0.5883789-15.0898438,1.1157227c-4.5986328,0.4765625-8.5014648,0.9296875-12.7695313,1.7070313
	l0,0c-3.0854492,0.5361328-6.0654297,1.1308594-8.7045898,1.7231445c-6.4189453,1.4448242-9.6074219,2.5424805-13.8291016,4.2177734
	c-2.5874023,1.0302734-4.1987305,1.8408203-5.4570313,3.2192383c-0.7578125,0.8266602-1.3535156,1.8691406-1.3222656,2.6674805
	c0.1157227,2.8681641,6.6743164,6.4125977,9.8798828,7.8842773c5.8349609,2.8378906,6.8334961,3.1015625,15.6025391,7.4897461
	c3.8061523,1.9042969,7.4194336,4.5029297,10.9389648,7.5273438c2.4477539,2.0922852,4.7314453,4.4311523,6.7719727,6.921875
	c1.3120117,1.5908203,2.5263672,3.2304688,3.6352539,4.9130859c5.2592773,7.9750977,8.2172852,16.9008789,8.8378906,25.6914063
	c0.2255859,3.2207031,0.1396484,6.4228516-0.2626953,9.550293c-0.9321289,7.2651367-2.4477539,12.8061523-4.2578125,17.2382813
	c-0.8168945,2.1630859-1.6704102,4.1035156-2.4921875,5.7958984c-0.8222656,1.6875-1.6142578,3.1323242-2.2983398,4.3046875
	s-1.2661133,2.0771484-1.6782227,2.6831055c-0.4121094,0.6108398-0.6572266,0.9243164-0.6572266,0.9272461
	c8.2885742-4.6772461,14.5874023-14.5869141,18.0141602-21.550293c1.890625-3.8505859,4.1621094-10.5371094,5.0424805-13.7456055
	c2.9707031-10.8974609,2.5512695-20.300293,1.7094727-24.3364258c-1.6674805-8.015625-3.921875-12.8276367-6.394043-17.2675781
	c-1.8007813-3.2426758-4.1455078-6.6616211-5.7441406-8.6459961c-1.3105469-1.6298828-2.7719727-3.2670898-6.0390625-7.2407227
	c-3.8876953-4.7290039-6.2084961-7.8964844-7.7836914-10.2353516c2.9462891-2.2822266,10.5107422-3.6191406,18.1806641-4.6835938
	c3.6132813-0.5029297,7.2509766-0.9418945,10.4418945-1.3920898c4.5839844-0.6450195,10.1074219-1.4570313,15.3442383-1.8383789
	c6.3505859-0.4672852,10.71875-0.793457,13.434082-1.0166016c0.7700195-0.0664063,1.4052734-0.121582,1.9375-0.1484375
	c1.7739258-0.0883789,3.671875-0.3974609,5.3959961-0.6079102c0.296875-0.0532227,0.5668945-0.1083984,0.8071289-0.1635742
	c0.237793-0.0551758,0.4414063-0.1030273,0.605957-0.1455078c0.171875-0.0458984,0.2993164-0.0805664,0.3896484-0.1083984
	c0.0859375-0.0268555,0.1328125-0.0429688,0.1328125-0.0429688
	C221.5229492,40.824707,213.4018555,40.0043945,204.2705078,39.5571289"/>
<path fill="#E72300" d="M119.1313477,46.8896484c1.074707-0.5107422,1.7563477-0.8793945,3.1713867-1.4741211
	c1.9892578-0.8339844,3.2055664-1.3037109,5.074707-1.9550781c1.7807617-0.621582,2.2148438-0.7246094,4.0249023-1.2202148
	c1.9794922-0.5400391,3.9589844-0.9921875,5.519043-1.3334961l-0.2626953-0.3037109
	c-0.2133789-0.2290039-0.3286133-0.3500977-0.3457031-0.371582c-0.0634766-0.0810547-0.2158203-0.2138672-0.3583984-0.3671875
	c-0.3330078-0.3637695-0.3061523-0.3759766-0.8730469-0.9145508c-0.5048828-0.484375-0.7548828-0.7583008-0.9296875-0.8764648
	c-0.7919922-0.7080078-0.4804688-0.4516602-2.3520508-1.956543c-1.5942383-1.2851563-3.5322266-2.2358398-4.1572266-2.5546875
	c-1.4770508-0.7553711-3.0854492-1.3637695-4.706543-1.800293c-1.6142578-0.4428711-3.2207031-0.6953125-5.0063477-0.4956055
	c-1.9204102,0.1337891-3.5219727,1.152832-4.4863281,2.3095703c-0.9589844,1.152832-1.3442383,2.581543-1.2875977,4.1586914
	c0.0615234,1.7758789,0.7529297,3.4755859,1.7954102,4.8955078
	C115.0009766,44.0639648,117.1474609,45.7944336,119.1313477,46.8896484"/>
<polygon points="120.0097656,232.5400391 120.2177734,232.5400391 120.2373047,232.5766602 134.9003906,260.5849609 
	141.6894531,260.5849609 141.6894531,224.4116211 136.1879883,224.4116211 136.1879883,251.1420898 135.9794922,251.1420898 
	135.9619141,251.1074219 121.9814453,224.4140625 114.5151367,224.4116211 114.5151367,260.5849609 120.0097656,260.5849609 "/>
<path d="M193.2841797,258.3383789c2.1411133,1.8491211,5.2783203,2.8256836,9.0751953,2.8256836h0.0024414
	c3.9614258,0,7.046875-0.9521484,9.1640625-2.8256836c2.2192383-1.9624023,3.3452148-4.9155273,3.3452148-8.7861328v-25.140625
	h-6.0268555v25.140625c0,4.8955078-2.1801758,7.3779297-6.4824219,7.3779297c-4.3413086,0-6.5415039-2.4824219-6.5415039-7.3779297
	v-25.140625h-6.0263672v25.140625C189.7939453,253.3837891,190.96875,256.3393555,193.2841797,258.3383789"/>
<path d="M101.2875977,250.793457l3.1445313,9.7915039h6.2768555l-12.3203125-36.1733398h-7.3242188l-12.3740234,36.1733398H84.96875
	l3.159668-9.8378906h13.1445313L101.2875977,250.793457z M89.5605469,246.1972656l0.0268555-0.0859375l5.0112305-15.9902344
	h0.2060547l0.012207,0.0473633l5.0263672,16.0288086H89.5605469z"/>
<polygon points="28.7949219,260.5922852 34.2724609,260.5922852 34.2724609,224.4116211 28.8149414,224.4116211 0,260.5922852 
	6.5532227,260.5922852 28.7949219,232.7504883 28.7949219,246.1972656 20.7353516,246.1972656 17.1787109,250.7490234 
	28.7949219,250.7490234 "/>
<path d="M174.2797852,261.1640625c4.2631836,0,7.9716797-1.2949219,9.8261719-2.0825195v-5.2563477l-0.0615234,0.0341797
	c-1.2241211,0.7114258-4.4716797,2.5976563-8.3442383,2.5976563c-3.5200195,0-6.1391602-1.4399414-7.784668-4.2753906
	c-1.4428711-2.484375-2.1743164-6.1123047-2.1743164-10.7875977c0-6.0776367,1.3178711-13.3232422,7.5917969-13.3232422
	c2.1367188,0,3.6547852,0.6894531,4.515625,2.0410156c0.8071289,1.2773438,0.9125977,2.9458008,0.9199219,4.112793h6.7055664
	c-0.0288086-5.0351563-3.2294922-10.387207-12.1411133-10.387207c-5.5825195,0-9.5908203,2.3007813-11.9208984,6.8432617
	c-1.5454102,3.0048828-2.3271484,6.9267578-2.3271484,11.6601563c0,5.840332,1.2285156,10.4321289,3.6494141,13.6474609
	C165.3251953,259.4248047,169.2080078,261.1640625,174.2797852,261.1640625z"/>
<path d="M243.1904297,234.815918c0-9.1660156-6.4008789-10.4042969-12.6630859-10.4042969h-9.3037109v36.1733398h6.0214844
	v-15.4667969h3.2797852C234.3339844,245.1181641,243.1904297,244.1142578,243.1904297,234.815918 M227.2451172,228.6494141
	h3.2797852c3.0683594,0,4.9272461,0.8417969,5.8447266,2.6445313c0.4663086,0.9174805,0.6918945,2.0673828,0.6918945,3.5219727
	c0,2.1484375-0.7285156,3.7705078-2.1611328,4.8222656c-1.105957,0.8120117-2.6220703,1.2412109-4.3754883,1.2412109h-3.2797852
	V228.6494141z"/>
<rect x="68.3710938" y="224.4116211" width="6.0214844" height="36.1733398"/>
<path d="M49.109375,261.1489258c0.309082,0.012207,0.5957031,0.0170898,0.8706055,0.0170898
	c8.3276367,0,13.2993164-3.8310547,13.2993164-10.2475586c0-0.6621094-0.0634766-1.3095703-0.1914063-1.925293
	c-1.0175781-4.8808594-5.8618164-7.4931641-10.1376953-9.7988281c-3.7456055-2.0185547-6.980957-3.7602539-6.980957-6.5859375
	c0-2.840332,2.0708008-4.5400391,5.5385742-4.5400391c0.5102539,0,1.0424805,0.034668,1.6777344,0.1054688
	c2.5932617,0.284668,4.78125,1.152832,6.7084961,1.9204102c0.2211914,0.0883789,0.4370117,0.1743164,0.6479492,0.2578125v-5.5332031
	l-0.0883789-0.0151367c-1.4423828-0.2919922-4.831543-0.96875-8.7373047-0.96875
	c-3.5664063,0-6.5952148,0.7753906-8.7636719,2.2416992c-2.4160156,1.6362305-3.6420898,4.0131836-3.6420898,7.0571289
	c0,4.2773438,3.1147461,6.815918,5.8276367,8.5478516c1.1748047,0.7524414,2.4379883,1.4443359,3.659668,2.1162109
	c4.0249023,2.2080078,7.824707,4.2929688,7.824707,8.0131836c0,1.0991211-0.3999023,4.7119141-5.5561523,5.0874023
	c-0.2768555,0.0219727-0.5742188,0.0317383-0.8759766,0.0317383c-0.8164063,0-1.6503906-0.0732422-2.472168-0.2128906
	c-3.3188477-0.5722656-5.9477539-2.1782227-7.6894531-3.2402344l-0.0317383-0.0200195v6.1958008
	c0.1201172,0.0297852,0.2768555,0.0712891,0.4609375,0.1176758
	C41.9150391,260.1459961,45.3271484,261.0263672,49.109375,261.1489258"/>
</svg>
