<?xml version="1.0" encoding="UTF-8" standalone="no"?>
<!-- Created with Inkscape (http://www.inkscape.org/) -->
<!DOCTYPE svg PUBLIC "-//W3C//DTD SVG 1.1//EN" "http://www.w3.org/Graphics/SVG/1.1/DTD/svg11.dtd">
<svg
   xmlns:a="http://ns.adobe.com/AdobeSVGViewerExtensions/3.0/"
   xmlns:svg="http://www.w3.org/2000/svg"
   xmlns="http://www.w3.org/2000/svg"
   xmlns:xlink="http://www.w3.org/1999/xlink"
   version="1.1"
   width="80"
   height="150"
   viewBox="0 0 341.33334 640"
   id="svg153"
   xml:space="preserve"
   style="overflow:visible"><defs
     id="defs177"><linearGradient
       id="linearGradient3717"><stop
         id="stop3719"
         style="stop-color:#fdfde4;stop-opacity:1"
         offset="0" /><stop
         id="stop3721"
         style="stop-color:#f2d032;stop-opacity:1"
         offset="1" /></linearGradient><radialGradient
       cx="116.8169"
       cy="47.079601"
       r="182.3371"
       fx="116.8169"
       fy="47.079601"
       id="XMLID_1_"
       gradientUnits="userSpaceOnUse"><stop
         id="stop157"
         style="stop-color:#ffffff;stop-opacity:1"
         offset="0" /><stop
         id="stop158"
         style="stop-color:#ffe199;stop-opacity:1"
         offset="0.59549999" /><stop
         id="stop159"
         style="stop-color:#ffbf33;stop-opacity:1"
         offset="0.99440002" /><a:midPointStop
         offset="0"
         style="stop-color:#FFFFFF"
         id="midPointStop160" /><a:midPointStop
         offset="0.5"
         style="stop-color:#FFFFFF"
         id="midPointStop161" /><a:midPointStop
         offset="0.5955"
         style="stop-color:#99CCFF"
         id="midPointStop162" /><a:midPointStop
         offset="0.5"
         style="stop-color:#99CCFF"
         id="midPointStop163" /><a:midPointStop
         offset="0.9944"
         style="stop-color:#3399FF"
         id="midPointStop164" /></radialGradient><radialGradient
       cx="79.194916"
       cy="35.084747"
       r="5.7203388"
       fx="79.194916"
       fy="35.084747"
       id="radialGradient3874"
       xlink:href="#linearGradient3717"
       gradientUnits="userSpaceOnUse" /><radialGradient
       cx="116.8169"
       cy="47.079601"
       r="182.3371"
       fx="116.8169"
       fy="47.079601"
       id="radialGradient3906"
       xlink:href="#XMLID_1_"
       gradientUnits="userSpaceOnUse"
       gradientTransform="matrix(1.003216,0,0,0.9582,44.107959,7.811132)" /></defs><path
     d="M 298.66667,292.55167 H 42.666668 V 36.551673 H 298.66667 V 292.55167 z"
     id="path156"
     style="font-size:12px;opacity:0.2;fill:none;stroke:none" /><g
     id="g3916"><path
       d="M 170.66165,235.84356 C 232.81991,235.84356 283.24556,187.48033 283.24556,128.14667 283.24556,69.190549 232.82192,20.818697 170.66165,20.818697 108.9438,20.821572 58.087774,69.190549 58.087774,128.14667 58.088777,187.48129 108.94481,235.84356 170.66165,235.84356 z"
       id="path165"
       style="fill:url(#radialGradient3906);stroke:none" /><path
       d="M 133.26878,32.646718 C 132.712,32.646718 132.10304,32.866146 131.47804,33.203432 132.94274,32.792364 133.63194,32.646718 133.26878,32.646718 z M 169.51497,39.402028 169.88014,34.337941 164.2832,34.674269 165.02358,39.402986 169.51497,39.402986 z M 106.36353,126.9288 C 105.23893,125.91311 105.99134,121.51881 105.99134,121.51881 105.99134,121.51881 89.173425,113.0761 70.86373,108.00339 68.605491,107.37769 69.746147,102.93739 71.979306,101.25288 L 71.233916,96.506915 C 70.86373,94.150701 74.973906,82.661883 79.084082,81.652899 83.196264,80.633374 78.710885,88.406292 78.710885,88.406292 L 74.600709,90.772088 C 74.600709,90.772088 79.455272,96.17442 80.581883,96.17442 81.699466,96.17442 83.568457,93.470379 83.568457,93.470379 L 78.338692,90.101348 83.19827,88.067089 83.502245,86.285796 84.317859,86.039538 92.359639,74.404116 C 97.918459,72.231876 104.74835,69.540292 105.61814,69.142639 107.11293,68.470941 117.57547,62.732281 119.44346,61.377387 121.31647,60.020575 125.41962,60.364569 126.9104,60.364569 128.41221,60.364569 130.6534,59.686164 131.02459,55.963557 131.39778,52.247657 132.89558,51.571168 134.01818,52.587818 135.13777,53.596803 132.89257,55.288026 135.51097,55.963557 138.12635,56.64292 140.36352,58.332227 142.23653,56.64292 143.60291,55.403968 141.77505,53.995414 140.5431,52.930854 L 161.29061,52.930854 163.53781,46.838618 158.68024,46.164045 140.73672,44.475697 140.73672,42.447187 139.30613,42.678114 C 141.24936,32.483824 152.78735,34.163548 144.10251,28.261995 143.57482,27.899795 135.97546,39.69907 134.04226,39.469102 130.53903,39.02833 126.01252,38.993835 125.04542,40.080433 123.77234,41.516775 127.91161,35.138038 131.47804,33.203432 125.7878,34.805542 107.80816,40.680267 88.799225,60.019617 70.628977,78.507128 63.383751,103.41362 63.383751,104.28558 63.383751,105.97297 67.12374,106.65137 67.49794,108.68084 67.87214,110.69881 60.40119,117.46466 60.40119,120.84327 60.40119,122.40035 58.637536,143.22778 64.878543,160.38531 72.17092,180.40786 87.734813,197.13037 89.544615,198.23038 L 93.277582,196.53437 C 93.277582,196.53437 84.684033,182.00805 84.310837,180.65124 83.94065,179.30593 94.025981,159.70403 98.886562,160.38531 103.74112,161.04935 102.62354,162.41191 105.61313,160.72068 108.6007,159.03425 110.46869,145.17006 113.83147,143.82858 117.19726,142.46985 120.93123,140.78342 120.56405,137.40576 120.18384,134.01852 107.48111,127.94162 106.35952,126.9288 L 106.36353,126.9288 z M 187.45147,27.57784 177.36313,24.195394 179.23212,29.607307 187.45147,27.57784 z M 149.70748,40.081392 C 150.83208,40.081392 173.25195,25.894282 171.00776,25.551247 168.77059,25.215877 168.39338,25.551247 162.40719,24.875716 156.43304,24.198268 150.07365,32.986879 148.58488,34.339857 147.0941,35.69571 147.59671,40.081392 149.70748,40.081392 z M 252.59229,141.97063 255.48657,138.38504 252.59229,137.41151 250.42234,140.01877 247.89323,143.59286 250.06218,144.5731 252.59229,141.97063 z M 265.24686,153.70283 264.52254,148.48926 259.8305,148.48926 259.46633,152.39297 255.11939,151.74906 254.04094,147.50998 251.87299,146.2097 249.33485,149.137 246.81076,148.48926 246.08242,150.76115 248.97871,151.42327 248.97871,172.58799 259.21352,174.94037 C 258.97877,175.33132 258.8012,175.66094 258.741,175.83916 258.01167,178.12255 261.63127,179.10662 264.15737,178.12255 265.1024,177.76323 268.07794,174.88863 269.94693,170.63997 272.55328,164.72021 274.82858,156.90513 275.28604,154.14264 L 276.4588,151.75097 269.22361,154.35249 265.24385,153.70666 265.24686,153.70283 z M 280.43956,114.29014 278.55151,110.79751 C 276.31534,98.751019 271.1849,83.325916 260.19266,67.39105 243.64662,43.435092 197.61204,29.616889 197.61204,29.616889 L 195.08595,32.541316 193.6363,30.268465 190.0177,28.960522 190.0177,31.891656 193.27815,34.502751 191.10719,35.478199 182.78652,36.125942 163.98023,45.90054 165.78301,53.714661 163.61004,54.371986 162.5346,55.996135 168.6803,64.784746 169.04246,67.721629 163.98023,68.697076 163.98023,74.555511 161.08896,75.206129 161.45313,79.768119 136.85327,96.057519 137.5786,105.16713 C 139.38238,107.45051 153.49462,121.13266 153.49462,121.13266 153.49462,121.13266 169.76477,121.77561 173.38438,119.82854 177.00097,117.87478 174.46785,121.77944 175.55534,122.75776 176.63881,123.74183 177.00097,130.57284 178.08344,131.22729 179.16691,131.87695 178.08344,135.78161 179.53108,137.09147 180.97672,138.38504 180.97672,154.02861 180.97672,154.02861 180.97672,154.02861 189.65754,168.02504 189.65754,171.6135 189.65754,175.19334 189.29538,174.86755 196.17042,174.54463 203.04245,174.21885 204.48608,171.6135 205.92971,170.64093 207.38236,169.66069 207.38236,167.37921 208.83101,165.42353 210.28066,163.46593 212.80274,155.98047 216.0642,153.37895 219.31562,150.76594 227.99745,148.81026 228.71676,144.25689 229.44007,139.69586 232.69551,136.11027 232.69551,136.11027 L 248.33264,120.31243 247.89323,122.43676 247.52906,130.56996 252.23214,128.94581 251.87399,120.14667 250.18257,118.44203 250.42334,118.19386 C 250.42334,118.19386 249.33485,116.24296 247.89423,116.24296 246.4476,116.24296 237.76075,118.19386 236.32013,117.87094 234.87048,117.54323 228.71776,101.90925 227.63429,101.26438 226.54881,100.61184 219.68079,89.862756 219.68079,89.862756 219.68079,89.862756 235.59179,108.10305 238.12391,115.26368 239.59262,119.43568 245.11231,115.55306 249.60371,111.19803 L 250.79152,113.96531 253.68078,113.30704 253.31862,110.05203 256.57205,110.05203 256.57205,114.93789 255.48858,117.54419 255.11638,121.77464 258.01468,124.3867 259.46533,122.11001 264.15737,117.8719 269.58778,115.26463 271.03542,117.8719 271.76074,121.45653 270.30808,125.36214 267.41882,127.6417 265.97118,133.50589 265.97118,136.42935 262.72076,134.47942 262.3586,128.29424 257.65753,128.62386 255.48958,134.15267 258.74401,138.72233 266.33635,139.69777 272.48908,134.15363 273.20939,123.41604 275.94415,119.96556 C 277.72687,124.34071 278.99995,128.91995 278.99995,133.18393 278.99995,137.85995 281.23712,129.94426 279.33302,115.68337 L 280.44257,114.2911 280.44257,114.29014 z M 189.29538,81.071271 169.76678,80.410113 178.07842,73.901061 182.42235,73.901061 189.29438,78.456343 189.29438,81.070313 189.29538,81.071271 z M 213.17092,78.792672 213.17092,81.723805 204.85326,81.723805 205.57557,83.68045 200.50833,84.335859 200.14918,85.958091 196.53359,85.312264 190.02071,84.001447 191.10819,82.378256 192.19468,80.415862 195.80926,76.837944 197.25891,79.445206 202.68631,79.117501 205.57658,76.184451 216.7845,78.139179 213.17192,78.796504 213.17192,78.792672 z M 213.88722,74.553595 209.55232,75.204213 208.83,72.269246 214.24737,71.620545 214.97571,68.691327 218.96148,72.604616 213.88722,74.548804 213.88722,74.553595 z M 234.86848,175.83629 232.33435,177.79006 232.69451,182.68167 235.95095,182.68167 235.95095,178.45409 238.84924,174.86276 238.84924,167.37538 237.03843,167.04001 234.87249,175.83629 234.86848,175.83629 z M 210.64181,166.07702 C 210.64181,166.07702 208.10869,166.71327 210.99795,167.69734 213.88722,168.67949 225.46433,151.7481 225.46433,151.7481 L 215.69802,157.60174 210.6378,166.07606 210.64181,166.07606 z M 190.9527,228.49704 188.78976,226.52794 184.44784,225.86774 183.72753,227.83876 177.94299,227.1891 177.57983,224.56555 173.24192,224.56555 168.54185,227.1891 160.22921,227.1891 159.50789,225.21808 146.13503,223.90056 143.96206,225.86774 138.54369,224.56555 137.82037,219.96523 135.29026,219.62986 132.39799,224.56459 122.64071,224.23305 C 124.3833,225.02261 138.96002,233.32446 161.30967,235.06167 190.95169,237.35081 205.05089,230.46902 205.05089,230.46902 L 203.96541,229.48111 190.95169,228.50088 190.95169,228.49704 z"
       id="path174"
       style="fill:#faf069;fill-opacity:1;stroke:none" /></g><g
     id="g3909"><path
       d="M 85.423731,37.754238 A 5.7203388,5.7203388 0 1 1 73.983053,37.754238 5.7203388,5.7203388 0 1 1 85.423731,37.754238 z"
       transform="matrix(4.2666667,0,0,4.2666667,-293.63842,-10.967854)"
       id="path3715"
       style="color:#000000;fill:url(#radialGradient3874);fill-opacity:1;fill-rule:nonzero;marker:none;visibility:visible;display:inline;overflow:visible;enable-background:accumulate" /><use
       transform="translate(56.839538,10.305084)"
       id="use3727"
       x="0"
       y="0"
       width="256"
       height="256"
       xlink:href="#path3715" /><use
       transform="translate(124.23728,13.016949)"
       id="use3729"
       x="0"
       y="0"
       width="256"
       height="256"
       xlink:href="#path3715" /><use
       transform="translate(192.71976,10.305084)"
       id="use3731"
       x="0"
       y="0"
       width="256"
       height="256"
       xlink:href="#path3715" /><use
       transform="translate(248.47457,0)"
       id="use3733"
       x="0"
       y="0"
       width="256"
       height="256"
       xlink:href="#path3715" /></g><g
     id="g3686"><path
       d="M 83.066667,568.69316 72.933334,590.8265 74.400001,619.1813 266.93334,619.1813 268.53334,590.8265 258.26667,568.69316 83.066667,568.69316 z"
       id="rect3763"
       style="color:#000000;fill:#feb648;fill-opacity:1;fill-rule:nonzero;marker:none;visibility:visible;display:inline;overflow:visible;enable-background:accumulate" /><path
       d="M 88.666667,543.07237 74.266667,569.11983 267.06667,569.11983 252.8,543.07237 88.666667,543.07237 z M 64.133334,591.25316 54.8,611.51983 286.53334,611.51983 277.20001,591.25316 64.133334,591.25316 z"
       id="rect3757"
       style="color:#000000;fill:#000000;stroke:#000000;stroke-width:4.26666689;stroke-linejoin:round;stroke-miterlimit:4;stroke-opacity:1;stroke-dasharray:none;marker:none;visibility:visible;display:inline;overflow:visible;enable-background:accumulate" /><path
       d="M 67.666667,168.57441 31.8,169.64108 C 114.84201,278.97066 166.23508,397.02381 91.533335,549.37442 L 111.31667,542.84108 131.1,554.70775 150.88334,544.97442 170.60001,559.57987 190.45,544.97442 210.23334,554.70775 230.01667,542.84108 249.8,549.37442 C 175.09826,397.02381 226.49134,278.97066 309.53334,169.64108 L 273.66667,168.57441 239.00001,186.97441 213.00001,170.70775 170.73334,190.30775 128.33334,170.70775 102.33333,186.97441 67.666667,168.57441 z"
       id="path3660"
       style="fill:#feb648;fill-opacity:1" /><path
       d="M 229.63108,543.07237 249.80001,549.37442 C 175.09827,397.02381 226.49134,278.97066 309.53334,169.64108 L 273.66667,168.57441 C 205.04331,287.92358 185.53909,412.16263 229.63108,543.07237 z M 213.00001,170.70775 C 184.70335,295.4633 164.14579,420.21887 190.45,544.97442 L 210.86667,554.70775 C 188.66554,427.07733 189.11888,303.07166 239.00001,186.97441 L 213.00001,170.70775 M 128.33334,170.70775 C 156.3577,295.4633 174.70478,420.21887 150.88334,544.97442 L 170.60001,559.57987 170.73334,190.30775 128.33334,170.70775 M 67.666671,168.57441 C 120.9422,266.34455 160.91605,371.28216 111.70226,543.07237 L 130.60001,554.70775 C 155.50044,430.94643 160.7641,307.86224 102.33334,186.97441 L 67.666671,168.57441"
       id="path3689"
       style="fill:#ffd453;fill-opacity:1" /><rect
       width="117.15254"
       height="35.796612"
       rx="5.7527332"
       ry="5.3692174"
       x="112.09039"
       y="355.67624"
       id="rect3706"
       style="color:#000000;fill:#ffef8e;fill-opacity:1;fill-rule:nonzero;marker:none;visibility:visible;display:inline;overflow:visible;enable-background:accumulate" /><path
       d="M 192.5845,385.79121 192.5845,361.35788 214.51324,361.35788 214.51324,365.49121 199.04312,365.49121 199.04312,371.27454 212.39674,371.27454 212.39674,375.40788 199.04312,375.40788 199.04312,385.79121 z M 189.09336,385.79121 182.06742,385.79121 179.27451,380.24121 166.4882,380.24121 163.84802,385.79121 156.99665,385.79121 169.45567,361.35788 176.28522,361.35788 z M 177.20164,376.12454 172.79408,367.05788 168.47379,376.12454 z M 148.42152,376.80788 154.68376,378.32455 C 153.72367,380.99122 152.1272,382.97177 149.89435,384.26621 147.66145,385.56066 144.82854,386.20788 141.3956,386.20788 137.14803,386.20788 133.65689,385.09954 130.92217,382.88288 128.18744,380.66622 126.82007,377.63567 126.82008,373.79121 126.82007,369.72456 128.19471,366.56623 130.94399,364.31621 133.69326,362.06624 137.30804,360.94124 141.78836,360.94121 145.70132,360.94124 148.87971,361.82457 151.32354,363.59121 152.77815,364.63567 153.86914,366.13567 154.59649,368.09122 L 148.20333,369.25788 C 147.8251,367.99123 147.03595,366.99123 145.8359,366.25788 144.6358,365.52456 143.17752,365.1579 141.46106,365.15788 139.08998,365.1579 137.16622,365.8079 135.68977,367.10788 134.21329,368.40789 133.47506,370.51345 133.47507,373.42454 133.47506,376.51344 134.20238,378.71344 135.65704,380.02455 137.11167,381.33566 139.0027,381.99122 141.33014,381.99122 143.0466,381.99122 144.52307,381.57455 145.75953,380.74121 146.99595,379.90789 147.88328,378.59677 148.42152,376.80788 z"
       id="path3788"
       style="font-size:39.05514145px;font-style:normal;font-variant:normal;font-weight:bold;font-stretch:normal;text-align:start;line-height:100%;writing-mode:lr-tb;text-anchor:start;fill:#9c6a33;fill-opacity:1;stroke:#fcb50c;stroke-width:1.27999997;stroke-linecap:butt;stroke-linejoin:round;stroke-miterlimit:4;stroke-opacity:1;stroke-dasharray:none;font-family:Arial;-inkscape-font-specification:Arial Bold" /></g></svg>