<?xml version="1.0" encoding="utf-8"?>
<!-- Generator: Adobe Illustrator 15.0.0, SVG Export Plug-In . SVG Version: 6.00 Build 0)  -->
<!DOCTYPE svg PUBLIC "-//W3C//DTD SVG 1.1//EN" "http://www.w3.org/Graphics/SVG/1.1/DTD/svg11.dtd">
<svg version="1.1" id="Layer_1" xmlns="http://www.w3.org/2000/svg" xmlns:xlink="http://www.w3.org/1999/xlink" x="0px" y="0px"
	 width="276.999282707" height="361.011765167" viewBox="0 0 351.417 458" enable-background="new 0 0 351.417 458" xml:space="preserve">
<g>
	<path d="M199.696,298.675c-3.464,2.476-15.593,41.087-15.593,41.087c-14.605-3.219-42.576-22.772-42.576-22.772
		c-19.061,17.079-31.189,1.484-31.189,1.484c-14.11-16.337,0.495-34.158,0.495-34.158c-9.406-22.773,15.844-38.863,15.844-38.863
		l0.743-3.96l-10.149-15.842l-10.892,2.475c-35.15,19.803-56.686,23.021-56.686,23.021c-4.456,0.742-3.466,3.961-3.466,3.961
		l4.208,16.337c3.218,3.218-0.743,4.951-0.743,4.951c-10.148,0.494-9.159-7.179-9.159-7.179c-0.99-3.96-2.97-3.218-2.97-3.218
		l-6.189,3.466l-4.208,10.148c-1.485,5.445-7.179,3.713-7.179,3.713c-3.465-0.99-0.742-6.931-0.742-6.931l4.455-8.665l-2.723-2.227
		l-9.159,10.396c-4.456,4.209-7.178,0.495-7.178,0.495c-4.456-4.208,0.248-7.674,0.248-7.674l11.386-8.169
		c-1.238-0.247-1.485-3.961-1.485-3.961l-7.674,3.961c-5.693,2.229-6.684-1.485-6.684-1.485c-1.98-4.455,3.466-5.941,3.466-5.941
		c5.446-1.98,11.139-5.445,11.139-5.445c5.941-8.665,13.614-8.416,13.614-8.416c3.713,0.743,5.693-1.238,5.693-1.238
		c20.793-10.644,40.348-31.683,40.348-31.683c1.485-13.367,8.416-17.08,8.416-17.08c-13.119-6.188-5.446-16.337-5.446-16.337
		l5.693-10.645l-0.248-9.653c-1.485-18.07-6.436-17.822-6.436-17.822c7.922,0.247,12.129-5.198,12.129-5.198
		c-6.931-9.654-15.843-5.199-15.843-5.199c-1.485-11.387,9.157-18.317,9.157-18.317c-8.416-16.585-4.208-15.1-4.208-15.1
		c5.94-1.98,10.149,3.713,10.149,3.713c2.97,2.475,2.723-0.248,2.723-0.248c-14.853-47.279,2.97-75.249,2.97-75.249
		c20.298-23.021,47.277-10.642,47.277-10.642c11.139-10.396,22.526-8.417,22.526-8.417c55.2,5.94,44.308,93.32,44.308,93.32
		c-5.198,10.149-6.684,0-6.684,0c2.228-14.109-2.475-47.775-2.475-47.775c-17.328-49.754-43.317-27.969-43.317-27.969
		c22.773,16.584,30.447,59.161,30.447,59.161c-2.97,11.14-7.179-0.248-7.179-0.248c-8.17-35.644-27.724-52.725-27.724-52.725
		c-11.881,7.179-11.138,68.32-11.138,68.32L144,92.482c9.654-20.298,20.793-25.249,20.793-25.249
		c7.673-1.98,4.208,6.437,4.208,6.437c-1.238,2.475-1.485,19.803-1.485,19.803l-2.228,4.456
		c25.744,8.169,23.763,36.882,23.763,36.882c0.248,35.15-33.169,45.049-33.169,45.049c0,32.922-22.521,37.127-22.521,37.127
		c-20.298,3.218-18.565-9.407-18.565-9.407l-10.891-9.653l-0.495-2.229c-5.198,1.238-12.872-1.98-12.872-1.98l16.09,10.644
		c5.198,27.477,32.921,15.098,32.921,15.098c8.416-9.407,14.356-13.119,14.356-13.119c9.654-11.881,8.168-24.753,8.168-24.753
		c21.289-3.466,26.979-25.989,26.979-25.989l2.723-0.99c13.614-18.813,43.566-53.219,43.566-53.219
		c2.474-4.951,1.483-8.167,1.483-8.167c-3.465-2.97-3.961-10.891-3.961-10.891c-1.238-3.961-6.685-11.634-6.685-11.634
		c-4.207-4.208,1.734-5.941,1.734-5.941c9.901-3.714,11.634,9.406,11.634,9.406c1.732,2.724,2.724,0.743,2.724,0.743l5.939-4.703
		c0.248-5.198,2.971-15.1,2.971-15.1c2.723-6.188,6.931-5.446,6.931-5.446c5.199,0,3.96,6.435,3.96,6.435l-4.207,13.368
		c2.723,2.722,4.95,0.495,4.95,0.495c3.714-10.397,9.406-16.337,9.406-16.337c11.14-2.724,8.417,8.911,8.417,8.911l-11.635,12.872
		c1.733,3.713,4.456,2.971,4.456,2.971c5.198-5.941,11.634-7.427,11.634-7.427c8.168,3.466,2.228,8.912,2.228,8.912
		c-4.703,1.733-13.366,9.159-13.366,9.159c-3.217,12.625-17.08,14.852-17.08,14.852c0.742,8.665-5.94,27.725-5.94,27.725
		c-6.931,23.268-22.772,42.08-22.772,42.08c2.228,12.377-10.148,34.407-10.148,34.407c-6.188,10.148-9.406,31.188-9.406,31.188
		c-5.197,11.633-29.207,17.078-29.207,17.078l-3.219,4.457c22.031-2.724,32.923-13.615,32.923-13.615
		C213.064,264.266,199.696,298.675,199.696,298.675z M134.627,15.697c-52.533-2.241-20.913,78.923-20.913,78.923l4.979-2.739
		c-1.743-44.068,15.686-75.685,15.686-75.685"/>
	<path fill="#959595" d="M265.033,424.858c0,0,41.428-5.981,57.131,2.394c0,0,18.544,5.982,0.748,14.806
		c0,0-43.371,13.161-69.693,2.243c0,0-8.972-6.58-22.581-3.439c0,0-52.489,13.759-67.445,15.255c0,0-25.872,4.337-44.267-0.15
		c0,0-10.467-3.141-26.769-3.29c0,0-40.229,2.094-49.801-2.843c0,0-30.36-10.916-2.542-17.646c0,0,46.062-5.382,56.83-10.616
		c0,0,24.075-12.115,61.464-8.525c0,0,48.154,0.15,73.429,7.328C231.536,420.373,248.134,427.251,265.033,424.858z"/>
	<path d="M144.787,323.943c0,0,19.633,16.495,37.06,19.632l-6.739,13.825c0,0,1.742,2.206-0.232,6.04l-8.249,12.199
		c0,0,5.693,5.922,1.046,14.403c0,0,1.975,3.601-2.904,5.228l-1.278,1.277c0,0,2.789,4.762-3.484,5.576
		c0,0-7.898,12.662-12.429,16.729c0,0,1.859,5.69-4.182,5.808l-1.162,0.581c0,0,1.045,4.298-3.718,4.763h-0.697
		c0,0-7.898,9.758-24.045,1.626c0,0-9.062-5.576-6.738-16.961c0,0,0.812-5.109,4.761-13.358l18.703-33.688
		c0,0,1.511-2.904,4.531-2.556l-0.117-14.403c0,0,0.116-6.041,4.182-6.506L144.787,323.943z"/>
	<path fill="#DA261E" d="M172.366,357.785c0,0,3.002,0.924,1.078,4.466l-9.239,13.167c0,0-14.783,0.307-27.487-9.702l0.154-15.707
		c0,0,0.693-4.156,3.772-4.003C140.645,346.006,162.819,357.016,172.366,357.785z"/>
	<path fill="#DA261E" d="M124.342,258.081c0,0-9.93,12.521-11.01,24.178C113.332,282.259,123.478,268.442,124.342,258.081z"/>
	<path fill="#FBDC00" d="M162.335,327.593l20.292,9.497c0,0,9.932-31.732,14.896-39.937c0,0,14.248-35.618,9.282-45.333
		c0,0-4.966,22.02-14.68,34.756C192.126,286.576,164.062,322.627,162.335,327.593z"/>
	<path fill="#92942E" d="M160.532,380.146c0,0,1.375-5.27,5.384-1.833c0,0,2.062,6.988-0.458,10.424
		c0,0-19.245,33.564-30.127,40.323c0,0-2.291,0.688-3.551,0.114c0,0-1.49,0.116,2.52-2.634c0,0,15.124-25.89,18.903-28.523
		C153.203,398.017,161.561,386.214,160.532,380.146z"/>
	<path fill="#92942E" d="M135.676,369.609c0,0-1.031-2.979-3.093-0.803c0,0-23.369,36.543-23.713,46.967
		c0,0,0.688,3.666,1.604-0.343c0,0,1.833-8.936,5.498-13.977L135.676,369.609z"/>
	<path fill="#CFE359" d="M157.142,378.058c0,0,2.935,1.526,1.526,4.343c0,0-6.337,12.79-10.444,17.249
		c0,0-7.627,11.267-10.444,17.956l-5.163,8.097c0,0-3.286,2.816-6.572-0.938c0,0-4.811-4.107-10.326-4.459
		c0,0-5.985,1.173-3.99-4.107c0,0,2.816-12.324,8.449-19.014c0,0,13.729-20.652,16.312-26.52c0,0,0.117-3.052,3.99-0.822
		L157.142,378.058z"/>
	<path fill="#92942E" d="M142.004,361.745c0,0,11.969-1.173,15.725,5.985c0,0,0.586,1.408-0.939,3.755
		c0,0-18.306,33.68-21.474,36.848c0,0-2.816,5.514-11.5,1.29c0,0-7.158-0.587-2.816-7.041c0,0,17.367-20.188,20.653-39.197
		C141.652,363.385,141.066,361.631,142.004,361.745z"/>
	<path d="M151.808,382.494c0,0,1.42,2.334-1.319,2.74l-13.292-5.682c0,0-1.014-0.204-2.13-0.103c0,0-1.826-1.42,0.102-2.435
		c0,0-0.406-1.32,3.957,0L151.808,382.494z"/>
	<path d="M148.284,388.104c0,0,1.421,2.333-1.318,2.739l-13.292-5.682c0,0-1.014-0.203-2.131-0.102c0,0-1.827-1.421,0.102-2.436
		c0,0-0.406-1.319,3.957,0L148.284,388.104z"/>
	<path d="M145.204,393.658c0,0,1.421,2.334-1.319,2.739l-13.291-5.682c0,0-1.014-0.203-2.131-0.102c0,0-1.827-1.421,0.101-2.436
		c0,0-0.405-1.319,3.958,0L145.204,393.658z"/>
	<path d="M142.761,399.055c0,0,1.421,2.333-1.319,2.739l-13.292-5.682c0,0-1.014-0.203-2.13-0.102c0,0-1.827-1.421,0.101-2.436
		c0,0-0.406-1.319,3.958,0L142.761,399.055z"/>
	<path d="M138.618,404.918c0,0,1.218,2.028-1.928,2.435l-13.393-6.291c0,0-4.565,0.203-2.231-2.131c0,0,0.709-1.825,4.362-0.202
		L138.618,404.918z"/>
	<path d="M135.54,410.313c0,0,1.218,2.029-1.928,2.436l-13.393-6.291c0,0-4.565,0.203-2.232-2.131c0,0,0.71-1.825,4.363-0.202
		L135.54,410.313z"/>
	<path fill="#FFFFFF" d="M94.462,222.512l7.681,4.868c0,0-28.367,14.981-40.231,19.012c0,0,13.157-9.659,16.047-12.7
		C77.959,233.691,89.139,221.371,94.462,222.512z"/>
	<path fill="#FFFFFF" d="M254.674,108.273c0,0-3.593,33.002-26.491,61.29c0,0-10.553,6.735-16.389-2.694
		c0,0-1.797-4.939,6.51-11.226C218.304,155.644,244.571,142.848,254.674,108.273z"/>
	<path fill="#FFFFFF" d="M248.224,98.451c0,0-1.605,2.811,3.213,2.008c0,0,14.053,0.937,14.856-10.975c0,0,1.204-8.165-8.968-9.905
		C257.325,79.579,243.271,77.706,248.224,98.451z"/>
	<path fill="#FFFFFF" d="M164.898,82.84c0,0-5.313,5.313-6.083,10.163c0,0-1.309,2.925,1.617,3.619c0,0,2.541,0.154,4.235-4.621
		L164.898,82.84z"/>
	<path fill="#DA261E" d="M199.368,147.491l-7.08,9.913h-4.957c0,0-8.675,16.64-27.083,23.189c0,0,0.885,17.525-7.257,26.731
		c0,0,15.754-7.612,23.544,2.832c0,0,7.08,6.197,6.726,18.765c0,0,16.109-3.187,22.304-6.019c0,0,1.062,11.683-3.718,14.692
		c0,0-14.868,7.081-21.418,8.32c0,0-2.301,7.435-3.186,8.674c0,0,25.312-6.196,28.853-16.286c0,0,3.012-19.472,6.906-25.137
		c0,0,13.629-25.137,12.567-38.768C225.568,174.397,199.013,175.991,199.368,147.491z"/>
	<path fill="#FBDC00" d="M199.822,185.796c0,0,10.653,16.66,8.613,30.373l-23.251,7.288c0,0-2.712-14.02-10.306-17.533
		C174.879,205.924,194.27,191.917,199.822,185.796z"/>
	<path fill="#8F922B" d="M153.003,211.818c0,0,25.702-11.905,28.409,17.315c0,0-0.811,27.327-17.587,43.56
		c0,0-9.74,7.847-13.257,23.539c0,0-9.199,34.36-33.278,21.915c0,0-12.716-7.305-8.658-22.456c0,0,1.083-8.117,10.282-17.316
		c0,0,8.117-10.823,10.552-33.279C129.465,245.096,134.334,222.1,153.003,211.818z"/>
	<path fill="#4E5627" d="M162.795,257.205c0,0-8.792,9.002-15.282,5.338c0,0-4.083-4.605-1.152-14.236c0,0,2.408-6.908,4.606-10.049
		c0,0,2.512-5.652-1.675-6.28c0,0-12.352-2.616-10.886,24.284c0,0,2.094,15.496-10.886,29.208c0,0-14.13,7.437-13.817,17.381
		c0,0-3.56,12.979,9.421,7.641c0,0,0.523-0.838,1.361,1.047c0,0,5.863,10.048,12.667-1.467c0,0,4.605-7.224,4.5-12.667
		c0,0,4.814-19.053,16.747-25.124c0,0,11.41-7.328,13.399-14.759c0,0,0.732-2.932-0.943-4.816c0,0-3.663-3.245-5.966,1.466
		L162.795,257.205z"/>
	<path fill="#CEE15C" d="M131.974,259.418c-2.56,14.035-15.711,27.808-15.711,27.808c-6.973,5.119-8.016,19.786-8.016,19.786
		c-0.875-3.048-1.074-6.714,0.077-11.012c0,0,1.083-8.118,10.282-17.316c0,0,8.117-10.824,10.552-33.28
		c0,0,4.868-22.996,23.538-33.277c0,0-15.314,9.475-20.387,44.991L131.974,259.418z"/>
	<g>
		<circle cx="174.729" cy="226.638" r="3.664"/>
		<circle cx="160.597" cy="215.798" r="3.664"/>
		<circle cx="174.539" cy="237.381" r="3.663"/>
		<circle cx="151.824" cy="222.36" r="3.663"/>
		<circle cx="143.712" cy="239.161" r="3.664"/>
		<circle cx="167.782" cy="256.957" r="3.664"/>
		<circle cx="159.283" cy="267.085" r="3.664"/>
		<circle cx="140.874" cy="250.002" r="3.664"/>
		<circle cx="139.605" cy="303.611" r="3.664"/>
		<circle cx="120.94" cy="296.807" r="3.663"/>
		<circle cx="132.868" cy="313.941" r="3.664"/>
		<circle cx="116.558" cy="307.686" r="3.664"/>
	</g>
	<path fill="#DA261E" d="M77.615,206.965c0,0,18.249,17.115,27.43,18.362l12.355-2.153c0,0,7.82,3.286,11.22,14.054
		c0,0,8.729-15.075,11.335-17.683c0,0-24.71,9.976-33.097-16.094l-21.536-13.375C85.323,190.077,76.028,196.536,77.615,206.965z"/>
	<path fill="#FBDC00" d="M135.763,223.06c0,0-6.461,0.341-8.501,0.454c0,0,0.453,3.287,2.607,5.101h1.814L135.763,223.06z"/>
	<path fill="#FFFFFF" d="M151.83,147.998c0,0,7.908-8.585,11.749,7.457c0,0,3.389,16.946-11.749,19.431c0,0-2.938,0-4.293,6.327
		c0,0-3.389,26.209-20.561,29.825c0,0-5.875,1.129-8.812-0.452c0,0-1.808-2.259,1.129-2.259c0,0,15.59,2.259,21.917-19.432
		c0,0,4.97-21.689,5.196-31.404C146.406,157.49,147.085,150.255,151.83,147.998z"/>
	<path fill="#FFFFFF" d="M117.261,206.971l-3.841-2.937c0,0,15.138-4.293,19.657-14.46c0,0,0.074-0.833-1.099-0.554
		c0,0-7.289,11.087-19.939,13.153l-6.304-5.253c0,0,19.04-6.991,26.42-21.597c0,0,7.996-20.142,10.609-21.986
		c0,0,2.613-4.305,1.999,1.691c-0.615,5.996,0.461,0,0.461,0s-3.69,33.209-9.84,42.742
		C135.383,197.77,126.507,208.946,117.261,206.971z"/>
	<path fill="#FFFFFF" d="M148.531,137.291c0,0-23.626,20.981-26.272,26.083c0,0-1.323-23.814-6.237-29.296
		c0,0-4.159-5.859-4.159,2.835c0,0,3.78,16.255-2.079,20.979c0,0-10.584,5.291-14.931,11.717c0,0-6.804,5.481-10.584,3.024
		c0,0-2.079-1.512,2.268-8.694c0,0,1.512-10.771-2.078-19.277c0,0,1.323,14.176,0.189,18.712c0,0-6.048,8.883-5.292,12.664
		c0,0,5.48,1.323,10.017-0.567c0,0,5.293-1.322,9.64-6.048c4.347-4.726,0.567-0.189,0.567-0.189s14.743-11.907,17.011,6.615
		c0,0,1.322,9.638-11.341,18.899c0,0,17.009-3.778,25.704-22.301C130.954,172.447,145.316,139.558,148.531,137.291z"/>
	<path fill="#FFFFFF" d="M108.84,172.344c0,0,2.105-2.782-3.158-1.955c0,0-5.79,1.579-7.143,5.339c0,0-1.579,3.082,1.354,1.203
		C99.893,176.931,106.359,172.794,108.84,172.344z"/>
	<path fill="#FFFFFF" d="M86.885,180.013c0,0,0.376,0.602-0.15,1.279c0,0-3.534-1.053-6.316,0.752c0,0-1.58,0.375-0.978-0.978
		C79.441,181.066,81.922,178.434,86.885,180.013z"/>
	<polygon points="290.266,177.4 316.467,177.4 323.531,204.058 302.113,217.956 281.152,202.235 	"/>
	<path d="M272.038,144.362h15.037l-11.392,15.494l-22.329,7.974l0.684-9.341C254.038,158.489,261.558,149.83,272.038,144.362z"/>
	<path d="M246.293,191.754l11.392,17.316l-0.684,18.227l-7.975-4.101c0,0-7.519-12.531-7.747-23.695L246.293,191.754z"/>
	<path d="M350.417,194.147c0,0,1.821,16.29-12.305,34.518l4.102-19.367L350.417,194.147z"/>
	<path d="M298.468,238.69l19.139,5.468c0,0-18.228,8.659-35.999,2.735l-4.785-5.469L298.468,238.69z"/>
	<path d="M317.151,143.451c0,0,18.228,7.975,25.974,23.468l-15.037-6.38l-15.949-15.721L317.151,143.451z"/>
	<polygon points="326.266,204.969 339.024,209.298 339.252,210.893 	"/>
	<path d="M302.035,219.744l-1.319,16.45l-1.32,0.692L302.035,219.744z"/>
	<path d="M317.374,176.932l8.51-14.139l1.491-0.03L317.374,176.932z"/>
	<path d="M289.716,175.782l-13.054-14.235l0.452-1.69L289.716,175.782z"/>
	<path d="M279.033,203.101l-18.469,5.647l-1.331-1.136L279.033,203.101z"/>
	<path d="M275.301,239.996l-15.76-11.167l0.086-1.747L275.301,239.996z"/>
	<path d="M246.921,190.022l4.183-20.056l1.838-0.677L246.921,190.022z"/>
	<path d="M289.786,143.89l19.543-0.143l0.954,1.255L289.786,143.89z"/>
	<path fill="#FFFFFF" d="M112.173,120.074c0,0-1.894,3.055,1.893,4.153c0,0,14.718,2.809,19.543-6.535c0,0,3.604-5.802-1.466-8.367
		c0,0-6.657-5.68-14.535,2.199L112.173,120.074z"/>
	<g>
		<path d="M116.059,113.687c-1.16,2.603,2.911,4.507,5.807,4.433c3.28-0.084,5.869-2.878,5.783-6.237
			c-0.056-2.139-1.313-3.695-2.971-4.739C124.678,107.143,118.354,108.532,116.059,113.687z"/>
		<circle fill="#FFFFFF" cx="123.938" cy="110.679" r="2.174"/>
		<circle fill="#FFFFFF" cx="122.127" cy="114.021" r="0.935"/>
		<path fill="#959D38" d="M126.518,107.145c2.139,1.313,3.256,3.054,3.325,5.748c0.109,4.231-3.232,7.75-7.464,7.86
			c-3.738,0.096-6.672-1.845-7.439-5.367l1.052-1.86c0.583,2.677,2.851,4.312,5.69,4.238c3.215-0.083,5.754-2.757,5.671-5.972
			c-0.053-2.047-1.284-3.536-2.908-4.533L126.518,107.145z"/>
	</g>
	<g>
		<path d="M75.934,123.508c-1.787,0.775-0.617,3.614,0.875,4.914c1.69,1.473,4.283,1.264,5.792-0.467
			c0.959-1.103,1.046-2.466,0.693-3.758C83.294,124.197,79.47,121.974,75.934,123.508z"/>
		<circle fill="#FFFFFF" cx="81.289" cy="125.634" r="1.485"/>
		<circle fill="#FFFFFF" cx="78.834" cy="126.48" r="0.639"/>
		<path fill="#959D38" d="M84.22,125.048c0.469,1.648,0.229,3.042-0.983,4.43c-1.898,2.179-5.206,2.408-7.387,0.507
			c-1.925-1.678-2.506-4.009-1.265-6.138l1.389-0.449c-0.943,1.615-0.558,3.487,0.906,4.762c1.656,1.442,4.169,1.271,5.613-0.387
			c0.919-1.054,0.987-2.373,0.63-3.625L84.22,125.048z"/>
	</g>
	<circle fill="none" stroke="#000000" stroke-width="2" cx="295.62" cy="194.147" r="54.797"/>
</g>
</svg>
