<?xml version="1.0" encoding="utf-8"?>
<!-- Generator: Adobe Illustrator 15.0.0, SVG Export Plug-In . SVG Version: 6.00 Build 0)  -->
<svg version="1.2" baseProfile="tiny" id="Calque_1"
	 xmlns="http://www.w3.org/2000/svg" xmlns:xlink="http://www.w3.org/1999/xlink" x="0px" y="0px" width="141.224px"
	 height="368.599px" viewBox="0 0 141.224 368.599" xml:space="preserve">
<g>
	<polygon fill-rule="evenodd" fill="#0089CC" points="25.55,298.585 25.581,282.087 32.008,282.06 32.036,304.041 20.846,304.041 
		7.417,287.453 7.389,303.98 0.931,304.041 0.874,282.087 0.959,282.06 12.151,282.06 25.55,298.585 	"/>
	<path fill-rule="evenodd" fill="#0089CC" d="M104.173,282.087l0.058,21.953h-6.859l-0.028-21.926l0.058-0.055
		C99.667,282.06,101.934,282.029,104.173,282.087L104.173,282.087z"/>
	<polygon fill-rule="evenodd" fill="#0089CC" points="73.44,292.675 73.47,292.703 74.302,292.015 85.29,282.087 94.417,282.087 
		81.85,292.732 81.877,292.849 96.023,303.98 86.066,304.041 73.499,292.789 73.44,292.876 73.44,304.041 66.584,304.041 
		66.584,282.087 73.44,282.087 73.44,292.675 	"/>
	<path fill-rule="evenodd" fill="#0089CC" d="M55.881,281.828c2.84,0.115,5.91,0.316,7.43,3.129
		c0.346,0.775,0.517,1.605,0.489,2.553l-0.028,11.938c-0.088,1.607-1.204,3.014-2.582,3.787c-2.983,1.293-6.6,0.979-10.073,1.063
		c-4.104-0.059-8.32,0.201-12.137-0.488c-1.693-0.258-3.5-1.664-3.959-3.355l-0.231-1.379l0.058-12.652
		c0.059-1.607,1.464-3.014,2.813-3.732c2.21-0.918,4.878-0.803,7.433-0.918L55.881,281.828L55.881,281.828z M42.421,287.253
		c-0.572,0.115-1.29,0.342-1.376,1.002c0,3.271-0.085,6.602,0.059,9.842c0.201,0.547,0.804,0.488,1.232,0.633l12.397,0.027
		c1.062-0.086,2.325,0.174,2.898-0.889l0.027-9.266l-0.086-0.721c-0.171-0.43-0.604-0.488-0.975-0.602L42.421,287.253
		L42.421,287.253z"/>
	<path fill-rule="evenodd" fill="#0089CC" d="M138.432,303.953v0.088h-7.574c-0.688-1.268-1.378-2.469-2.01-3.732l-0.144-0.057
		H115.25l-2.068,3.729l-7.659,0.061l12.078-21.953h8.869L138.432,303.953L138.432,303.953z M121.99,287.595l-4.218,7.836h8.438
		C124.804,292.82,123.396,290.179,121.99,287.595L121.99,287.595z"/>
</g>
<rect x="0.81" y="270.853" fill-rule="evenodd" fill="#0089CC" width="139.912" height="3.109"/>
<g>
	<path fill-rule="evenodd" fill="#008C44" d="M129.522,72.874c0,0-31.283,13.236-42,47.13c-10.718,33.894-8.49,48.6-8.49,48.6
		s14.224-44.861,22.447-58.32C109.704,96.826,129.522,72.874,129.522,72.874"/>
	<path fill-rule="evenodd" fill="#008C44" d="M106.353,23.197c0,0,0.107,35.749,29.056,46.751c0,0-0.163,2.483-2.857,1.721
		C96.205,61.396,106.353,23.197,106.353,23.197"/>
	<path fill-rule="evenodd" fill="#ED1C2E" d="M82.03,25.474c13.545,0,25.877-6.274,25.877-6.274s-7.676,1.905-19.311,1.905
		c-11.632,0-47.438-8.304-47.438-8.304S58.703,25.474,82.03,25.474"/>
	<path fill-rule="evenodd" fill="#ED1C2E" d="M43.908,19.807l-9.352-2.064c0,0-17.348-0.864-24.981,7.949
		C1.943,34.506,8.599,58.7,8.599,58.7s0.17-18.945,5.903-27.668C20.232,22.31,43.908,19.807,43.908,19.807"/>
	<path fill-rule="evenodd" d="M8.882,60.401c0.503,1.332,4.23,12.855,12.098,15.489c2.391,0,0.997-9.837,8.434-9.837
		c5.521,0,25.56,37.185,25.56,37.185L28.457,72.652c0,0-3.479,9.243-5.72,8.248C8.077,74.397,8.882,60.401,8.882,60.401"/>
	<path fill-rule="evenodd" fill="#FFCB05" d="M46.034,97.568c7.594,0,5.571,4.154,5.43,16.161
		c-0.142,12.008-0.142,26.403-0.142,26.403s-6.75-10.908-7.466-25.665C43.409,105.246,40.234,97.568,46.034,97.568"/>
	<path fill-rule="evenodd" fill="#FFCB05" d="M67.31,165.861c2.373-0.361,2.018-4.292,7.062-2.036
		c6.093,2.72,1.975,12.516-6.428,10.753c-16.558-3.482-16.622-33.651-16.622-33.651s9.938,15.569,11.932,20.292
		C64.504,164.174,65.884,166.076,67.31,165.861"/>
	<path fill="#FFFFFF" d="M65.021,18.907c0,10.442-8.464,18.907-18.91,18.907c-10.439,0-18.907-8.465-18.907-18.907
		S35.671,0,46.111,0C56.557,0,65.021,8.465,65.021,18.907z"/>
	<g>
		<path fill="#ED1C2E" d="M58.994,19.059c0,7.114-5.767,12.881-12.883,12.881c-7.111,0-12.881-5.767-12.881-12.881
			c0-7.115,5.77-12.883,12.881-12.883C53.227,6.176,58.994,11.943,58.994,19.059z"/>
		<path fill="#FFFFFF" d="M56.8,26.515l-1.292-0.746c0.104-0.792,0.207-1.392,0.207-2.12c0-0.686-0.092-1.476-0.354-2.65
			c0.588-0.716,1.845-3.019,2.014-4.014c0.662,0.05,1.276,0.155,1.649,0.321l0.016-0.034c-0.014-0.096-0.023-0.191-0.038-0.287
			c-0.437-0.16-1.017-0.255-1.646-0.301c-0.71-2.184-1.831-4.108-3.528-5.649c0.195-0.77,0.323-1.54,0.375-2.306
			c-0.032-0.026-0.063-0.052-0.096-0.074l-0.195-0.014c-0.046,0.76-0.174,1.528-0.367,2.298l-3.368,0.065
			c-1.104-1.613-3.181-2.786-5.795-3.498c0.167-0.493,0.396-0.954,0.676-1.406l-0.105-0.066V5.873H44.93h-0.083l-0.042,0.072
			c-0.308,0.495-0.561,1.005-0.738,1.559c-0.618,0.312-3.615,2.063-5.117,4.244l-1.735-0.169c0.032-0.417,0.051-0.756,0.051-1.045
			c0-0.345-0.026-0.622-0.096-0.885l-0.286,0.074c0.059,0.231,0.084,0.483,0.084,0.812c0,0.293-0.021,0.65-0.056,1.103
			c-1.344,1.087-2.401,2.658-3.141,4.607l-0.587,0.405l0.17,0.247l0.405-0.281c0.111,1.199,0.743,3.191,1.397,3.923
			c-0.165,0.568-0.218,1.52-0.22,2.515c0,1.356,0.106,2.764,0.212,3.296l0.004,0.028l0.018,0.022h-0.002
			c0.798,1.217,3.037,1.869,5.275,2.593l1.834,2.373l0.162,0.317l0.265-0.135l-0.06-0.118l6.453-0.086l0.256,0.411l0.251-0.157
			l-0.261-0.423l1.273-2.134l0.003,0.008c1.344-0.363,4.111-2.277,4.768-3.001l1.249,0.718c0.06-0.08,0.115-0.162,0.173-0.243
			C56.806,26.517,56.804,26.517,56.8,26.515z M50.1,11.307c0.002,0,0.004,0,0.006,0c0.006,0.002,0.01,0.002,0.016,0
			c0.01-0.002,0.016-0.002,0.023-0.004l3.461-0.068c1.683,1.521,2.787,3.426,3.487,5.61c-0.034,0.73-1.416,3.336-1.966,3.971
			c-0.072,0.004-0.18,0.008-0.315,0.008c-0.886,0-2.949-0.12-4.683-0.554l-2.479-3.907c0.226-0.712,0.676-1.925,1.162-2.99
			C49.268,12.342,49.829,11.437,50.1,11.307z M49.882,20.439c-0.092,0.493-1.843,3.917-2.748,4.84l-4.641,0.243
			c-0.586-0.46-2.475-2.91-3.177-5.221l2.022-4.039c0.957-0.107,1.807-0.147,2.546-0.147c2.082,0,3.263,0.325,3.506,0.399
			L49.882,20.439z M44.205,7.768c2.578,0.684,4.603,1.823,5.674,3.328l0.002,0.006c-0.445,0.312-0.876,1.167-1.338,2.148
			c-0.477,1.045-0.918,2.218-1.153,2.952c-0.396-0.11-1.581-0.385-3.504-0.385c-0.737,0-1.581,0.042-2.532,0.146
			c-0.383-1.376-1.682-3.49-2.146-4.066C40.653,9.799,43.656,8.037,44.205,7.768z M34.042,16.369
			c0.729-1.924,1.762-3.454,3.062-4.501l1.849,0.181c0.375,0.435,1.807,2.748,2.132,4.059l-2.026,4.044
			c-1.355,0.215-2.295,0.08-3.677,0.191C34.782,19.711,34.056,17.419,34.042,16.369z M40.36,28.651
			c-2.142-0.678-4.226-1.36-4.906-2.361c-0.002-0.004-0.006-0.008-0.008-0.014c0,0-0.004-0.004-0.012-0.016
			c-0.098-0.508-0.201-1.896-0.199-3.208c-0.002-0.969,0.058-1.911,0.203-2.415c1.313-0.102,2.254,0.024,3.615-0.184
			c0.729,2.288,2.447,4.581,3.179,5.233C40.948,26.89,40.458,28.103,40.36,28.651z M49.073,31.044l-6.599,0.085l-1.831-2.371
			c0.046-0.391,0.515-1.707,1.883-2.941l4.632-0.243c1.272,0.857,2.413,2.008,3.186,3.346L49.073,31.044z M50.365,28.882
			l-0.002,0.006c0.002-0.014,0.01-0.032,0.022-0.048C50.376,28.854,50.369,28.869,50.365,28.882z M55.205,25.805
			c-0.414,0.542-3.35,2.603-4.62,2.942c-0.774-1.338-1.9-2.483-3.159-3.351c0.945-1.077,2.455-3.944,2.72-4.814
			c1.753,0.425,3.773,0.539,4.667,0.539c0.105,0,0.193-0.002,0.268-0.004c0.251,1.133,0.337,1.885,0.337,2.533
			C55.417,24.363,55.315,24.962,55.205,25.805z"/>
	</g>
</g>
<path fill="#0089CC" d="M7.175,193.875H0v-2.59h17.465v2.59h-7.21v21h-3.08V193.875z"/>
<path fill="#0089CC" d="M27.055,191.286v14c0,5.25,2.345,7.49,5.495,7.49c3.465,0,5.74-2.311,5.74-7.49v-14h3.08v13.79
	c0,7.245-3.815,10.185-8.925,10.185c-4.83,0-8.47-2.729-8.47-10.08v-13.895H27.055z"/>
<path fill="#0089CC" d="M50.575,214.875v-23.59h3.36l7.525,11.935c1.715,2.766,3.115,5.215,4.2,7.665l0.105-0.035
	c-0.28-3.149-0.35-6.02-0.35-9.659v-9.905h2.87v23.59h-3.08l-7.49-11.97c-1.645-2.625-3.22-5.32-4.375-7.875l-0.105,0.035
	c0.175,2.975,0.21,5.81,0.21,9.729v10.08H50.575z"/>
<path fill="#0089CC" d="M89.424,211.166c1.365,0.875,3.325,1.54,5.425,1.54c3.115,0,4.936-1.61,4.936-4.025
	c0-2.17-1.26-3.465-4.445-4.654c-3.85-1.4-6.23-3.431-6.23-6.721c0-3.675,3.045-6.404,7.631-6.404c2.379,0,4.164,0.56,5.18,1.154
	l-0.84,2.485c-0.735-0.455-2.311-1.12-4.445-1.12c-3.22,0-4.445,1.925-4.445,3.535c0,2.205,1.436,3.29,4.69,4.55
	c3.989,1.575,5.985,3.465,5.985,6.93c0,3.641-2.66,6.825-8.226,6.825c-2.274,0-4.76-0.7-6.02-1.54L89.424,211.166z"/>
<path fill="#0089CC" d="M127.083,207.456l-2.449,7.42h-3.15l8.016-23.59h3.674l8.051,23.59h-3.256l-2.52-7.42H127.083z
	 M134.819,205.076l-2.345-6.79c-0.49-1.54-0.84-2.94-1.19-4.305h-0.104c-0.315,1.364-0.7,2.835-1.155,4.27l-2.31,6.825H134.819z"/>
<g>
	<path fill="#0089CC" d="M6.488,328.756l-1.96,5.936h-2.52l6.412-18.872h2.94l6.44,18.872h-2.604l-2.016-5.936H6.488z
		 M12.676,326.852L10.8,321.42c-0.392-1.232-0.672-2.353-0.952-3.444H9.764c-0.252,1.092-0.56,2.268-0.924,3.416l-1.848,5.46H12.676
		z"/>
	<path fill="#0089CC" d="M20.488,334.692v-11.676h-1.876v-1.876h1.876v-0.645c0-1.903,0.448-3.64,1.596-4.731
		c0.924-0.896,2.156-1.26,3.276-1.26c0.896,0,1.624,0.195,2.1,0.392l-0.308,1.904c-0.392-0.168-0.868-0.309-1.596-0.309
		c-2.072,0-2.632,1.849-2.632,3.92v0.729H26.2v1.876h-3.248v11.676H20.488z"/>
	<path fill="#0089CC" d="M28.467,325.368c0-1.596-0.028-2.968-0.112-4.228h2.156l0.112,2.66h0.084
		c0.616-1.82,2.128-2.969,3.78-2.969c0.252,0,0.448,0.028,0.672,0.084v2.297c-0.28-0.028-0.532-0.057-0.868-0.057
		c-1.736,0-2.968,1.316-3.304,3.136c-0.056,0.364-0.084,0.757-0.084,1.177v7.224h-2.464L28.467,325.368z"/>
	<path fill="#0089CC" d="M38.883,318.648c-0.924,0-1.54-0.728-1.54-1.596s0.644-1.568,1.596-1.568c0.952,0,1.568,0.7,1.568,1.568
		s-0.616,1.596-1.596,1.596H38.883z M37.707,334.692V321.14h2.464v13.552H37.707z"/>
	<path fill="#0089CC" d="M53.919,334.216c-0.644,0.308-2.072,0.783-3.892,0.783c-4.088,0-6.748-2.771-6.748-6.943
		s2.856-7.225,7.28-7.225c1.456,0,2.744,0.364,3.416,0.729l-0.56,1.876c-0.588-0.308-1.512-0.645-2.856-0.645
		c-3.108,0-4.788,2.324-4.788,5.152c0,3.136,2.016,5.068,4.704,5.068c1.4,0,2.324-0.336,3.024-0.645L53.919,334.216z"/>
	<path fill="#0089CC" d="M66.378,331.444c0,1.176,0.056,2.324,0.196,3.248h-2.212l-0.224-1.708h-0.084
		c-0.728,1.064-2.212,2.016-4.144,2.016c-2.744,0-4.144-1.932-4.144-3.892c0-3.276,2.912-5.068,8.148-5.04v-0.28
		c0-1.12-0.308-3.164-3.08-3.136c-1.288,0-2.604,0.364-3.556,1.008l-0.56-1.651c1.12-0.7,2.772-1.177,4.48-1.177
		c4.172,0,5.18,2.828,5.18,5.544V331.444z M63.971,327.776c-2.688-0.056-5.74,0.42-5.74,3.052c0,1.624,1.064,2.353,2.296,2.353
		c1.792,0,2.94-1.12,3.332-2.269c0.084-0.252,0.112-0.531,0.112-0.784V327.776z"/>
	<path fill="#0089CC" d="M70.326,324.808c0-1.428-0.028-2.548-0.112-3.668h2.184l0.141,2.212h0.056
		c0.672-1.26,2.239-2.521,4.479-2.521c1.877,0,4.789,1.12,4.789,5.769v8.092h-2.465v-7.812c0-2.185-0.813-4.032-3.136-4.032
		c-1.597,0-2.856,1.147-3.304,2.52c-0.112,0.309-0.168,0.756-0.168,1.148v8.176h-2.464V324.808z"/>
	<path fill="#0089CC" d="M105.046,334.104c-0.869,0.448-2.688,0.896-4.984,0.896c-5.32,0-9.297-3.359-9.297-9.575
		c0-5.937,4.005-9.912,9.856-9.912c2.324,0,3.836,0.504,4.479,0.84l-0.615,1.988c-0.896-0.448-2.212-0.784-3.78-0.784
		c-4.424,0-7.364,2.828-7.364,7.784c0,4.647,2.66,7.588,7.225,7.588c1.512,0,3.023-0.309,4.004-0.784L105.046,334.104z"/>
	<path fill="#0089CC" d="M119.045,330.996c0,1.4,0.028,2.632,0.112,3.696h-2.184l-0.141-2.212h-0.057
		c-0.615,1.092-2.071,2.52-4.479,2.52c-2.128,0-4.676-1.203-4.676-5.936v-7.924h2.464v7.476c0,2.576,0.813,4.34,3.023,4.34
		c1.652,0,2.801-1.147,3.248-2.268c0.141-0.336,0.225-0.784,0.225-1.26v-8.288h2.464V330.996z"/>
	<path fill="#0089CC" d="M123.133,325.564c0-1.736-0.028-3.136-0.112-4.424h2.213l0.14,2.324h0.056
		c0.98-1.681,2.604-2.633,4.788-2.633c3.304,0,5.769,2.772,5.769,6.889c0,4.872-2.996,7.279-6.16,7.279
		c-1.82,0-3.36-0.783-4.172-2.128h-0.057v7.364h-2.464V325.564z M125.597,329.176c0,0.336,0.028,0.699,0.112,1.008
		c0.42,1.708,1.932,2.884,3.668,2.884c2.604,0,4.116-2.128,4.116-5.236c0-2.716-1.4-5.04-4.004-5.04
		c-1.68,0-3.276,1.177-3.752,3.024c-0.057,0.336-0.141,0.7-0.141,1.008V329.176z"/>
	<path fill="#0089CC" d="M11.01,368.599c-5.012,0-8.484-3.863-8.484-9.575c0-5.992,3.696-9.912,8.736-9.912
		c5.18,0,8.512,3.948,8.512,9.548c0,6.468-3.948,9.939-8.736,9.939H11.01z M11.122,366.612c3.864,0,6.048-3.557,6.048-7.84
		c0-3.752-1.96-7.673-6.02-7.673s-6.076,3.78-6.076,7.868c0,3.977,2.184,7.645,6.02,7.645H11.122z"/>
	<path fill="#0089CC" d="M23.525,368.292v-11.676h-1.876v-1.876h1.876v-0.645c0-1.903,0.448-3.64,1.596-4.731
		c0.924-0.896,2.156-1.26,3.276-1.26c0.896,0,1.624,0.195,2.1,0.392l-0.308,1.904c-0.392-0.168-0.868-0.309-1.596-0.309
		c-2.072,0-2.632,1.849-2.632,3.92v0.729h3.276v1.876h-3.248v11.676H23.525z"/>
	<path fill="#0089CC" d="M49.368,368.292v-18.872h2.688l6.02,9.548c1.372,2.212,2.492,4.172,3.36,6.132l0.084-0.027
		c-0.224-2.521-0.28-4.816-0.28-7.729v-7.924h2.296v18.872h-2.464l-5.992-9.576c-1.316-2.1-2.576-4.256-3.5-6.3l-0.084,0.028
		c0.14,2.38,0.168,4.647,0.168,7.784v8.063H49.368z"/>
	<path fill="#0089CC" d="M77.199,365.043c0,1.176,0.057,2.324,0.197,3.248h-2.213l-0.224-1.708h-0.084
		c-0.728,1.064-2.212,2.016-4.144,2.016c-2.745,0-4.145-1.932-4.145-3.892c0-3.276,2.912-5.068,8.148-5.04v-0.28
		c0-1.12-0.309-3.164-3.08-3.136c-1.289,0-2.604,0.364-3.556,1.008l-0.56-1.651c1.12-0.7,2.772-1.177,4.479-1.177
		c4.172,0,5.18,2.828,5.18,5.544V365.043z M74.792,361.375c-2.688-0.056-5.74,0.42-5.74,3.052c0,1.624,1.064,2.353,2.296,2.353
		c1.792,0,2.94-1.12,3.332-2.269c0.084-0.252,0.112-0.531,0.112-0.784V361.375z"/>
	<path fill="#0089CC" d="M84.003,351.492v3.248h3.528v1.876h-3.528v7.308c0,1.68,0.477,2.632,1.848,2.632
		c0.672,0,1.064-0.056,1.429-0.168l0.112,1.876c-0.477,0.168-1.232,0.336-2.185,0.336c-1.147,0-2.071-0.392-2.659-1.035
		c-0.673-0.757-0.953-1.961-0.953-3.557v-7.392h-2.1v-1.876h2.1v-2.492L84.003,351.492z"/>
	<path fill="#0089CC" d="M91.48,352.248c-0.925,0-1.541-0.728-1.541-1.596s0.645-1.568,1.596-1.568c0.953,0,1.568,0.7,1.568,1.568
		s-0.615,1.596-1.596,1.596H91.48z M90.303,368.292V354.74h2.464v13.552H90.303z"/>
	<path fill="#0089CC" d="M102.371,368.599c-3.64,0-6.496-2.688-6.496-6.972c0-4.536,2.996-7.196,6.721-7.196
		c3.892,0,6.523,2.828,6.523,6.944c0,5.04-3.5,7.224-6.72,7.224H102.371z M102.455,366.751c2.353,0,4.116-2.212,4.116-5.292
		c0-2.296-1.147-5.18-4.06-5.18c-2.885,0-4.145,2.688-4.145,5.264c0,2.968,1.68,5.208,4.061,5.208H102.455z"/>
	<path fill="#0089CC" d="M112.227,358.408c0-1.428-0.028-2.548-0.112-3.668h2.185l0.14,2.212h0.057
		c0.672-1.26,2.239-2.521,4.479-2.521c1.876,0,4.788,1.12,4.788,5.769v8.092h-2.465v-7.812c0-2.185-0.811-4.032-3.135-4.032
		c-1.597,0-2.856,1.147-3.305,2.52c-0.111,0.309-0.168,0.756-0.168,1.148v8.176h-2.464V358.408z"/>
	<path fill="#0089CC" d="M127.431,365.799c0.756,0.448,2.044,0.952,3.275,0.952c1.765,0,2.604-0.868,2.604-2.016
		c0-1.177-0.7-1.82-2.491-2.492c-2.465-0.896-3.613-2.212-3.613-3.836c0-2.185,1.793-3.977,4.677-3.977
		c1.372,0,2.575,0.364,3.304,0.841l-0.588,1.764c-0.532-0.308-1.512-0.784-2.771-0.784c-1.457,0-2.24,0.84-2.24,1.848
		c0,1.148,0.783,1.652,2.548,2.324c2.323,0.868,3.556,2.044,3.556,4.088c0,2.408-1.876,4.088-5.039,4.088
		c-1.484,0-2.857-0.392-3.809-0.951L127.431,365.799z"/>
</g>
<g>
	<path fill="#0089CC" d="M114.029,192.699v20.887h-3.08v-20.887H114.029z"/>
	<rect x="108.067" y="191.134" fill="#0089CC" width="8.939" height="2.622"/>
	<rect x="108.033" y="212.246" fill="#0089CC" width="8.939" height="2.622"/>
</g>
<g>
	<path fill="#0089CC" d="M80.557,192.948v20.7h-3.08v-20.7H80.557z"/>
	<rect x="74.595" y="191.396" fill="#0089CC" width="8.939" height="2.6"/>
	<rect x="74.561" y="212.32" fill="#0089CC" width="8.939" height="2.6"/>
</g>
<path fill="#0089CC" d="M2.55,260.559v-4.416l4.104-3.6c7.072-6.145,10.484-9.648,10.533-13.297c0-2.544-1.533-4.56-5.242-4.56
	c-2.769,0-5.192,1.344-6.874,2.544l-2.126-5.184c2.374-1.776,6.182-3.217,10.483-3.217c7.319,0,11.276,4.128,11.276,9.792
	c0,5.232-3.857,9.408-8.556,13.44l-2.967,2.4v0.096h12.165v6H2.55z"/>
<path fill="#ED1C2E" d="M51.409,261.087c-8.308,0-11.968-7.248-12.017-16.08c0-9.072,3.907-16.177,12.215-16.177
	c8.555,0,11.968,7.44,11.968,15.984c0,9.6-4.006,16.272-12.116,16.272H51.409z M51.508,255.567c2.917,0,4.5-3.552,4.5-10.656
	c0-6.912-1.533-10.56-4.549-10.56c-2.819,0-4.599,3.504-4.599,10.56c-0.049,7.2,1.731,10.656,4.599,10.656H51.508z"/>
<path fill="#FFCB05" d="M88.745,261.087c-8.308,0-11.968-7.248-12.017-16.08c0-9.072,3.906-16.177,12.215-16.177
	c8.556,0,11.967,7.44,11.967,15.984c0,9.6-4.005,16.272-12.115,16.272H88.745z M88.844,255.567c2.918,0,4.5-3.552,4.5-10.656
	c0-6.912-1.533-10.56-4.55-10.56c-2.819,0-4.599,3.504-4.599,10.56c-0.05,7.2,1.731,10.656,4.599,10.656H88.844z"/>
<path fill="#008C44" d="M127.811,260.559v-7.44h-14.242v-4.752l12.116-19.008h9.247v18.288h3.809v5.472h-3.809v7.44H127.811z
	 M127.811,247.647v-6.912c0-1.872,0.099-3.792,0.198-5.808h-0.147c-1.038,2.016-1.93,3.84-3.018,5.808l-4.253,6.816l-0.049,0.096
	H127.811z"/>
</svg>
