<?xml version="1.0" encoding="utf-8"?>
<!-- Generator: Adobe Illustrator 15.0.0, SVG Export Plug-In . SVG Version: 6.00 Build 0)  -->
<svg version="1.2" baseProfile="tiny" id="Calque_1"
	 xmlns="http://www.w3.org/2000/svg" xmlns:xlink="http://www.w3.org/1999/xlink" x="0px" y="0px" width="248.67px"
	 height="402.14px" viewBox="0 0 328.502 531.229" xml:space="preserve">
<path d="M136.119,410.749h-9.734l-0.689-4.427h-6.354l-0.765,4.427h-9.724l8.377-34.811h11.509 M124.581,398.979l-0.606-4.057
	c-0.009-0.021-0.041-0.216-0.083-0.621c-0.042-0.335-0.193-1.639-0.477-3.929c-0.029-0.251-0.068-0.606-0.117-1.038
	c-0.042-0.452-0.105-1.003-0.181-1.687l-0.293-3.301c-0.034,0.322-0.071,0.68-0.125,1.062c-0.049,0.4-0.107,0.83-0.168,1.28
	c-0.105,0.938-0.181,1.59-0.223,1.941c-0.049,0.371-0.073,0.587-0.098,0.677l-0.652,4.21l-0.941,5.462H124.581z"/>
<path d="M149.101,410.749h-9.086V393.66h-2.623v-7.336h2.623v-4.466c0-3.143,0.682-5.515,2.048-7.12
	c1.372-1.626,3.374-2.438,6.016-2.438c1.311,0,2.728,0.213,4.273,0.631v8.357c-0.802-0.57-1.416-0.848-1.853-0.848
	c-0.936,0-1.398,0.832-1.398,2.487v3.396h3.251v7.336h-3.251"/>
<path d="M164.291,410.749h-9.096v-24.425h9.096l-0.484,4.762c1.372-3.554,3.64-5.326,6.791-5.326v10.146
	c-0.983-0.537-1.833-0.804-2.515-0.804c-1.225,0-2.164,0.433-2.818,1.325c-0.653,0.882-0.973,2.155-0.973,3.837"/>
<path d="M183.56,378.786c0,1.438-0.517,2.67-1.557,3.708c-1.068,1.022-2.309,1.542-3.726,1.542c-1.46,0-2.711-0.52-3.748-1.576
	c-1.024-1.051-1.533-2.308-1.533-3.744c0-1.45,0.508-2.695,1.533-3.714c1.063-1.036,2.31-1.54,3.728-1.54
	c1.485,0,2.747,0.521,3.773,1.56C183.046,376.041,183.56,377.297,183.56,378.786 M182.797,410.749h-9.076v-24.394h9.076V410.749z"/>
<path d="M200.143,402.915v7.69c-0.545,0.068-1.021,0.093-1.428,0.111c-0.409,0.022-0.746,0.032-1.012,0.032
	c-2.664,0-4.874-0.78-6.639-2.339c-1.204-1.052-2.167-2.488-2.915-4.327c-0.748-1.838-1.119-3.73-1.119-5.656
	c0-3.439,1.065-6.321,3.194-8.661c2.122-2.292,4.814-3.441,8.081-3.441c0.199,0,0.445,0.015,0.749,0.031
	c0.293,0.022,0.66,0.039,1.088,0.074v8.254c-2.691,0.17-4.029,1.521-4.029,4.047c0,1.138,0.333,2.146,1.001,2.996
	c0.68,0.837,1.485,1.237,2.417,1.237c0.083,0,0.178,0,0.276-0.018C199.906,402.946,200.018,402.932,200.143,402.915"/>
<path d="M225.57,410.749h-9.096c0.075-0.814,0.137-1.587,0.181-2.32c0.041-0.732,0.093-1.334,0.135-1.791
	c-1.569,2.742-3.677,4.111-6.307,4.111c-2.298,0-4.114-1.098-5.464-3.288c-1.32-2.194-1.986-5.204-1.986-9.063
	c0-3.732,0.688-6.676,2.077-8.811c1.384-2.175,3.275-3.263,5.651-3.263c2.444,0,4.422,1.288,5.923,3.864
	c-0.029-0.306-0.049-0.571-0.068-0.786c-0.022-0.234-0.035-0.421-0.044-0.567l-0.086-1.423l-0.075-1.088h9.159 M216.486,398.28
	c0-0.836-0.037-1.558-0.112-2.141c-0.066-0.588-0.184-1.054-0.337-1.434c-0.156-0.376-0.359-0.641-0.614-0.789
	c-0.244-0.166-0.547-0.257-0.904-0.257c-1.603,0-2.393,1.911-2.393,5.688c0,2.711,0.704,4.065,2.132,4.065
	C215.736,403.414,216.486,401.707,216.486,398.28z"/>
<path d="M261.422,400.136l-0.546,9.449c-2.085,0.785-3.963,1.164-5.622,1.164c-3.899,0-7.179-1.369-9.836-4.129
	c-2.979-3.089-4.471-7.471-4.471-13.141c0-5.302,1.397-9.548,4.199-12.761c2.791-3.192,6.538-4.78,11.22-4.78
	c1.519,0,3.065,0.269,4.645,0.821v9.635c-1.396-1.393-2.833-2.097-4.31-2.097c-1.929,0-3.43,0.805-4.511,2.43
	c-1.085,1.639-1.63,3.893-1.63,6.789c0,1.405,0.135,2.637,0.408,3.742c0.269,1.107,0.65,2.04,1.161,2.791
	c0.504,0.758,1.124,1.345,1.865,1.743c0.733,0.393,1.574,0.604,2.529,0.604C258.146,402.396,259.779,401.639,261.422,400.136"/>
<path d="M265.245,386.324h9.086v13.755c0,1.315,0.124,2.264,0.385,2.867c0.263,0.501,0.771,0.751,1.52,0.751
	c0.726,0,1.22-0.25,1.47-0.751c0.273-0.504,0.407-1.449,0.407-2.867v-13.755h9.081v14.682c0,0.987-0.076,1.857-0.24,2.661
	c-0.152,0.782-0.405,1.497-0.737,2.134c-0.348,0.658-0.777,1.24-1.313,1.753c-0.541,0.538-1.171,1.022-1.911,1.482
	c-1.992,1.148-4.241,1.713-6.757,1.713c-2.547,0-4.811-0.564-6.764-1.713c-0.758-0.46-1.396-0.944-1.934-1.46
	c-0.533-0.516-0.971-1.105-1.311-1.757c-0.337-0.655-0.596-1.37-0.743-2.152c-0.158-0.804-0.239-1.674-0.239-2.661"/>
<path d="M300.918,421.651h-9.081v-35.327h9.037l-0.156,3.464c0.374-0.721,0.753-1.335,1.148-1.849
	c0.392-0.498,0.819-0.898,1.261-1.182c0.458-0.287,0.941-0.434,1.457-0.434c0.523,0,1.101,0,1.733,0
	c2.344,0,4.256,1.139,5.729,3.391c1.458,2.227,2.186,5.187,2.186,8.868c0,3.744-0.696,6.717-2.095,8.898
	c-1.369,2.18-3.253,3.268-5.662,3.268c-2.198,0-4.12-1.264-5.758-3.816c0.073,0.783,0.117,1.428,0.137,1.995
	c0.039,0.567,0.063,1.257,0.063,2.059 M305.142,398.397c0-1.489-0.186-2.656-0.558-3.476c-0.366-0.836-0.887-1.262-1.568-1.262
	c-1.394,0-2.098,1.613-2.098,4.821c0,3.295,0.679,4.933,2.036,4.933c0.675,0,1.208-0.434,1.601-1.325
	C304.947,401.224,305.142,399.983,305.142,398.397z"/>
<path d="M132.635,446.033c0,3.628-1.051,6.506-3.148,8.645c-2.102,2.141-4.923,3.212-8.455,3.212c-3.474,0-6.241-1.11-8.299-3.28
	c-2.036-2.206-3.063-5.148-3.063-8.861c0-3.693,1.042-6.666,3.139-8.907c2.063-2.256,4.818-3.381,8.238-3.381
	c3.615,0,6.451,1.125,8.509,3.361C131.611,439.061,132.635,442.136,132.635,446.033 M123.554,445.733
	c0-0.834-0.061-1.586-0.168-2.271c-0.113-0.675-0.274-1.242-0.484-1.724c-0.215-0.486-0.469-0.854-0.768-1.119
	c-0.296-0.273-0.621-0.404-0.985-0.404c-0.716,0-1.297,0.499-1.738,1.501c-0.44,0.89-0.655,2.192-0.655,3.946
	c0,1.726,0.215,3.045,0.655,3.95c0.44,0.997,1.022,1.498,1.755,1.498c0.691,0,1.259-0.481,1.708-1.467
	C123.334,448.545,123.554,447.232,123.554,445.733z"/>
<path d="M146.752,457.89h-9.088v-17.091h-2.618v-7.339h2.618v-4.479c0-3.129,0.682-5.51,2.053-7.123
	c1.364-1.627,3.375-2.427,6.013-2.427c1.313,0,2.733,0.203,4.275,0.634v8.354c-0.804-0.567-1.418-0.846-1.851-0.846
	c-0.938,0-1.403,0.813-1.403,2.493v3.393h3.253v7.339h-3.253"/>
<path d="M167.953,457.89v-34.833h8.584l4.637,12.241c0.252,0.717,0.533,1.558,0.857,2.474c0.318,0.938,0.67,2.027,1.061,3.247
	l0.964,3.061c-0.348-3.029-0.604-5.618-0.792-7.759c-0.186-2.159-0.274-3.963-0.274-5.423v-7.841h9.096v34.833h-9.096l-4.678-12.826
	c-0.496-1.372-0.935-2.662-1.335-3.848c-0.391-1.205-0.73-2.339-1.034-3.429c0.379,2.459,0.648,4.604,0.829,6.409
	c0.181,1.823,0.267,3.427,0.267,4.795v8.898"/>
<path d="M219.576,457.89h-9.098c0.073-0.821,0.137-1.584,0.186-2.327c0.042-0.748,0.083-1.335,0.127-1.787
	c-1.566,2.742-3.669,4.114-6.31,4.114c-2.284,0-4.104-1.11-5.45-3.311c-1.327-2.176-1.992-5.201-1.992-9.063
	c0-3.727,0.694-6.668,2.077-8.795c1.376-2.175,3.264-3.261,5.649-3.261c2.441,0,4.42,1.291,5.928,3.862
	c-0.029-0.299-0.054-0.572-0.078-0.787c-0.008-0.235-0.02-0.42-0.034-0.567l-0.098-1.422l-0.062-1.086h9.154 M210.483,445.415
	c0-0.854-0.032-1.557-0.101-2.141c-0.071-0.59-0.183-1.07-0.345-1.44c-0.154-0.366-0.359-0.635-0.604-0.801
	c-0.249-0.147-0.558-0.234-0.914-0.234c-1.595,0-2.398,1.886-2.398,5.668c0,2.724,0.716,4.065,2.139,4.065
	C209.742,450.532,210.483,448.825,210.483,445.415z"/>
<polyline points="234.524,457.89 225.43,457.89 225.43,440.799 222.859,440.799 222.859,433.46 225.43,433.46 225.43,426.333 
	234.524,426.333 234.524,433.46 237.523,433.46 237.523,440.799 234.524,440.799 "/>
<path d="M250.216,425.914c0,1.426-0.523,2.667-1.56,3.698c-1.067,1.037-2.31,1.54-3.723,1.54c-1.466,0-2.713-0.518-3.75-1.55
	c-1.023-1.073-1.532-2.324-1.532-3.75c0-1.456,0.509-2.712,1.532-3.73c1.062-1.016,2.311-1.537,3.726-1.537
	c1.486,0,2.75,0.521,3.774,1.569C249.701,423.18,250.216,424.431,250.216,425.914 M249.442,457.89h-9.066v-24.412h9.066V457.89z"/>
<path d="M276.074,446.033c0,3.628-1.049,6.506-3.149,8.645c-2.109,2.141-4.935,3.212-8.466,3.212c-3.472,0-6.236-1.11-8.287-3.28
	c-2.049-2.206-3.066-5.148-3.066-8.861c0-3.693,1.039-6.666,3.125-8.907c2.074-2.256,4.825-3.381,8.257-3.381
	c3.604,0,6.446,1.125,8.497,3.361C275.048,439.061,276.074,442.136,276.074,446.033 M266.992,445.733
	c0-0.834-0.061-1.586-0.173-2.271c-0.112-0.675-0.275-1.242-0.489-1.724c-0.217-0.486-0.464-0.854-0.76-1.119
	c-0.298-0.273-0.631-0.404-0.992-0.404c-0.717,0-1.298,0.499-1.735,1.501c-0.434,0.89-0.655,2.192-0.655,3.946
	c0,1.726,0.222,3.045,0.655,3.95c0.438,0.997,1.026,1.498,1.752,1.498c0.694,0,1.257-0.481,1.716-1.467
	C266.765,448.545,266.992,447.232,266.992,445.733z"/>
<path d="M302.537,457.89h-9.081v-12.931c0-1.101-0.135-1.882-0.423-2.317c-0.273-0.438-0.753-0.646-1.442-0.646
	c-1.618,0-2.42,1.198-2.42,3.589v12.305h-9.093v-24.43h9.093c-0.021,0.606-0.034,1.153-0.053,1.675c-0.013,0.5-0.035,0.98-0.06,1.42
	l-0.098,1.558c1.569-3.096,3.857-4.652,6.891-4.652c2.114,0,3.75,0.721,4.918,2.142c1.182,1.432,1.768,3.427,1.768,5.984"/>
<path d="M305.108,455.364l3.295-6.793c1.621,1.688,3.137,2.54,4.535,2.54c1.17,0,1.768-0.382,1.768-1.186
	c0-0.685-0.778-1.303-2.323-1.836c-4.17-1.426-6.258-3.679-6.258-6.754c0-2.275,0.959-4.15,2.86-5.638
	c1.927-1.487,4.324-2.238,7.189-2.238c2.354,0,4.783,0.685,7.276,2.072l-3.099,6.825c-1.516-1.427-2.755-2.142-3.718-2.142
	c-0.957,0-1.424,0.361-1.424,1.068c0,0.78,0.904,1.504,2.706,2.179c2.244,0.812,3.774,1.699,4.584,2.625
	c0.857,0.919,1.285,2.2,1.285,3.83c0,2.335-0.929,4.241-2.794,5.728c-1.862,1.491-4.259,2.244-7.17,2.244
	c-1.37,0-2.729-0.187-4.081-0.54c-0.644-0.164-1.338-0.413-2.081-0.751C306.908,456.264,306.057,455.846,305.108,455.364"/>
<rect x="4.717" y="364.723" fill="#FFCB05" width="94.029" height="93.65"/>
<path fill-rule="evenodd" fill="#00678F" d="M6.421,411.72c0-9.697,20.176-17.507,45.312-17.507c24.938,0,45.299,7.81,45.299,17.507
	c0,9.716-20.362,17.523-45.299,17.523C26.597,429.243,6.421,421.436,6.421,411.72"/>
<polyline fill="#FFFFFF" points="22.982,420.099 27.746,402.588 35.172,402.588 35.172,413.064 40.313,402.588 47.736,402.588 
	42.972,420.099 38.208,420.099 41.264,409.065 35.172,420.099 31.17,420.099 31.17,409.065 28.125,420.099 "/>
<polyline fill-rule="evenodd" fill="#ED1C24" points="49.063,420.866 49.638,418.212 55.163,418.212 54.395,420.866 "/>
<polyline fill="#FFCB05" points="50.024,417.439 52.679,407.358 47.736,407.358 49.063,402.588 64.292,402.588 63.156,407.358 
	58.203,407.358 55.346,417.439 "/>
<polyline fill="#FFFFFF" points="60.867,420.099 65.624,402.588 70.579,402.588 73.236,412.111 75.712,402.588 80.86,402.588 
	76.089,420.099 70.956,420.099 68.293,410.786 65.624,420.099 "/>
<rect y="467.941" width="328.502" height="7.837"/>
<path fill="#ED1C2E" d="M193.755,528.564l10.993-14.834c5.074-6.776,6.644-10.133,6.644-13.919c0-2.198-1.024-3.667-2.535-3.667
	c-1.693,0-2.597,1.774-2.597,5.014c0,0.364,0,0.789,0.058,1.461h-10.57c-0.061-0.672-0.061-1.097-0.061-1.526
	c0-8.058,5.62-13.978,13.229-13.978c7.79,0,13.109,5.432,13.109,13.308c0,6.35-3.08,11.904-10.572,19.109
	c3.622-0.249,4.534-0.308,10.025-0.368v9.4"/>
<path fill="#FFCB05" d="M256.938,508.174c0,13.001-5.318,21.119-13.835,21.119c-9.123,0-14.614-8.054-14.614-21.303
	c0-12.756,5.491-20.875,14.194-20.875C251.62,487.115,256.938,494.93,256.938,508.174 M239.177,507.139
	c0,3.049,0.242,6.048,0.729,8.975c0.362,2.381,1.327,3.659,2.777,3.659c2.479,0,3.568-3.598,3.568-11.658
	c0-7.997-1.154-11.539-3.63-11.539C240.326,496.575,239.177,500.056,239.177,507.139z"/>
<path fill="#008C44" d="M291.551,508.174c0,13.001-5.313,21.119-13.835,21.119c-9.118,0-14.618-8.054-14.618-21.303
	c0-12.756,5.5-20.875,14.197-20.875C286.238,487.115,291.551,494.93,291.551,508.174 M273.791,507.139
	c0,3.049,0.239,6.048,0.726,8.975c0.359,2.381,1.327,3.659,2.779,3.659c2.474,0,3.56-3.598,3.56-11.658
	c0-7.997-1.144-11.539-3.623-11.539C274.937,496.575,273.791,500.056,273.791,507.139z"/>
<path fill-rule="evenodd" fill="#008C44" d="M287.981,125.997c0,0-64.536,27.308-86.644,97.229
	c-22.107,69.92-17.517,100.255-17.517,100.255s29.343-92.543,46.309-120.307C247.096,175.411,287.981,125.997,287.981,125.997"/>
<path fill-rule="evenodd" fill="#008C44" d="M240.183,23.518c0,0,0.226,73.748,59.942,96.447c0,0-0.335,5.121-5.894,3.549
	C219.25,102.323,240.183,23.518,240.183,23.518"/>
<path fill-rule="evenodd" fill="#ED1C2E" d="M190.006,28.217c27.939,0,53.382-12.943,53.382-12.943s-15.833,3.929-39.832,3.929
	c-24.002,0-97.866-17.13-97.866-17.13S141.884,28.217,190.006,28.217"/>
<path fill-rule="evenodd" fill="#ED1C2E" d="M111.366,16.527l-19.292-4.261c0,0-35.791-1.78-51.538,16.401
	c-15.745,18.183-2.012,68.095-2.012,68.095S38.876,57.678,50.7,39.684C62.524,21.688,111.366,16.527,111.366,16.527"/>
<path fill-rule="evenodd" d="M39.111,100.27c1.036,2.749,8.721,26.519,24.955,31.956c4.93,0,2.056-20.298,17.395-20.298
	c11.396,0,52.731,76.712,52.731,76.712l-54.704-63.098c0,0-7.174,19.07-11.799,17.016C37.446,129.141,39.111,100.27,39.111,100.27"
	/>
<path fill-rule="evenodd" fill="#FFCB05" d="M115.75,176.942c15.667,0,11.494,8.571,11.203,33.339
	c-0.293,24.768-0.293,54.471-0.293,54.471s-13.926-22.504-15.402-52.95C110.334,192.781,103.786,176.942,115.75,176.942"/>
<path fill-rule="evenodd" fill="#FFCB05" d="M159.64,317.824c4.894-0.742,4.165-8.851,14.566-4.199
	c12.568,5.612,4.074,25.82-13.256,22.182c-34.161-7.183-34.291-69.419-34.291-69.419s20.499,32.118,24.615,41.859
	C153.852,314.347,156.702,318.27,159.64,317.824"/>
<g>
	<path d="M311.267,501.566c0.757-0.379,1.481-0.656,2.171-0.836c0.691-0.181,1.34-0.271,1.945-0.271
		c2.763,0,5.033,1.169,6.812,3.503c1.78,2.335,2.669,5.364,2.669,9.089c0,4.897-1.197,8.824-3.59,11.783
		c-2.394,2.959-5.558,4.438-9.492,4.438c-4.125,0-7.449-1.428-9.975-4.284c-2.526-2.856-3.789-6.622-3.789-11.294
		c0-3.84,0.86-8.011,2.582-12.514c1.721-4.502,4.264-9.221,7.631-14.159h12.318c-1.875,2.292-3.582,4.645-5.125,7.059
		C313.883,496.497,312.497,498.99,311.267,501.566z M308.883,514.317c0,1.964,0.194,3.394,0.582,4.29s1.007,1.344,1.858,1.344
		c0.889,0,1.537-0.438,1.943-1.316c0.407-0.878,0.61-2.316,0.61-4.317c0-1.905-0.189-3.27-0.567-4.091
		c-0.379-0.82-1.003-1.231-1.873-1.231c-0.813,0-1.442,0.463-1.887,1.388S308.883,512.619,308.883,514.317z"/>
</g>
<g>
	<path d="M3.287,530.386v-42.781h21.25v10.375h-9.25v5.438h8.344v10.031h-8.344v5.906h9.25v11.031H3.287z"/>
	<path d="M62.693,505.417c0,0.039,0,0.098,0,0.176c0.083,1.641,0.125,2.862,0.125,3.663c0,7.461-1.231,12.988-3.692,16.582
		c-2.461,3.595-6.231,5.392-11.311,5.392c-5.099,0-9.045-1.938-11.838-5.815c-2.793-3.876-4.19-9.34-4.19-16.39
		c0-7.147,1.406-12.646,4.219-16.493c2.813-3.847,6.826-5.771,12.041-5.771c3.711,0,6.714,0.845,9.009,2.533s4.028,4.319,5.2,7.892
		l-10.366,3.544c-0.47-1.483-1.018-2.552-1.644-3.206s-1.418-0.981-2.376-0.981c-1.487,0-2.529,0.845-3.125,2.533
		s-0.895,4.817-0.895,9.386c0,4.549,0.293,7.658,0.88,9.327s1.614,2.504,3.082,2.504c1.096,0,1.918-0.464,2.466-1.393
		s0.822-2.331,0.822-4.208v-0.587h-3.531v-8.688H62.693z"/>
	<path d="M66.592,487.604h12.602l3.226,13.128l3.255-13.128h12.604l-9.906,25.61v17.171H76.467v-17.171L66.592,487.604z"/>
	<path d="M104.564,530.386v-42.781h12.728c5.427,0,9.444,1.206,12.05,3.618c2.606,2.411,3.91,6.126,3.91,11.145
		c0,4.257-1.274,7.611-3.823,10.062s-6.04,3.676-10.473,3.676h-2.423v14.281H104.564z M116.533,496.729v9.469
		c1.829-0.039,3.171-0.429,4.028-1.169s1.285-1.909,1.285-3.507c0-1.578-0.409-2.771-1.226-3.58s-2.024-1.213-3.62-1.213H116.533z"
		/>
	<path d="M157.516,530.386h-11.969v-31.938h-7.094v-10.844h26.156v10.844h-7.094V530.386z"/>
</g>
<g>
	<g>
		<path fill-rule="evenodd" fill="#58595B" d="M231.707,0c15.01,0,27.24,12.224,27.24,27.234c0,14.991-12.23,27.218-27.24,27.218
			c-14.981,0-27.212-12.227-27.212-27.218C204.495,12.224,216.725,0,231.707,0"/>
		<path fill-rule="evenodd" fill="#595A5C" d="M231.667,0.09c-11.903-0.033-22.041,7.744-25.691,18.471
			c-0.928,2.73-1.428,5.658-1.422,8.701c0.01,7.942,3.465,15.113,8.929,20.076c4.833,4.384,11.236,7.056,18.237,7.052
			c11.466-0.011,21.296-7.172,25.285-17.223c1.219-3.075,1.879-6.426,1.866-9.93C258.838,12.285,246.609,0.098,231.667,0.09"/>
		<path fill-rule="evenodd" fill="#5A5B5D" d="M231.626,0.18c-11.869-0.066-21.951,7.725-25.605,18.432
			c-0.926,2.721-1.42,5.642-1.409,8.679c0.02,7.921,3.478,15.078,8.923,20.02c4.83,4.368,11.217,7.027,18.198,7.018
			c11.438-0.021,21.237-7.177,25.223-17.19c1.217-3.063,1.865-6.403,1.838-9.896C258.73,12.347,246.5,0.196,231.626,0.18"/>
		<path fill-rule="evenodd" fill="#5B5C5E" d="M231.587,0.271c-11.835-0.099-21.863,7.707-25.52,18.392
			c-0.924,2.711-1.414,5.626-1.398,8.658c0.03,7.899,3.49,15.042,8.918,19.963c4.826,4.354,11.198,6.998,18.158,6.984
			c11.412-0.031,21.179-7.181,25.162-17.158c1.213-3.05,1.841-6.379,1.81-9.862C258.584,12.409,246.393,0.294,231.587,0.271"/>
		<path fill-rule="evenodd" fill="#5C5C5F" d="M231.547,0.361c-11.801-0.132-21.774,7.688-25.434,18.352
			c-0.922,2.702-1.406,5.61-1.386,8.636c0.04,7.878,3.503,15.008,8.912,19.907c4.823,4.338,11.18,6.969,18.118,6.95
			c11.386-0.041,21.12-7.186,25.101-17.125c1.211-3.037,1.823-6.355,1.781-9.829C258.46,12.471,246.286,0.392,231.547,0.361"/>
		<path fill-rule="evenodd" fill="#5C5D60" d="M231.507,0.451c-11.766-0.165-21.685,7.669-25.348,18.313
			c-0.92,2.692-1.399,5.594-1.373,8.614c0.051,7.856,3.505,14.984,8.906,19.85c4.811,4.333,11.161,6.94,18.078,6.917
			c11.359-0.052,21.063-7.19,25.039-17.093c1.208-3.024,1.807-6.332,1.754-9.795C258.341,12.533,246.177,0.49,231.507,0.451"/>
		<path fill-rule="evenodd" fill="#5D5E60" d="M231.467,0.541c-11.73-0.198-21.596,7.651-25.262,18.272
			c-0.918,2.682-1.392,5.578-1.36,8.592c0.061,7.835,3.517,14.951,8.9,19.793c4.805,4.321,11.142,6.912,18.039,6.883
			c11.332-0.062,21.003-7.195,24.977-17.06c1.206-3.012,1.789-6.308,1.726-9.761C258.218,12.595,246.07,0.587,231.467,0.541"/>
		<path fill-rule="evenodd" fill="#5E5F61" d="M231.428,0.631c-11.697-0.231-21.507,7.632-25.177,18.232
			c-0.916,2.673-1.385,5.563-1.348,8.57c0.07,7.813,3.525,14.918,8.895,19.736c4.8,4.308,11.123,6.882,17.999,6.85
			c11.306-0.072,20.944-7.2,24.915-17.028c1.203-2.999,1.771-6.285,1.698-9.728C258.099,12.657,245.962,0.686,231.428,0.631"/>
		<path fill-rule="evenodd" fill="#5F6062" d="M231.388,0.721c-11.662-0.264-21.418,7.614-25.091,18.193
			c-0.913,2.664-1.377,5.546-1.336,8.548c0.081,7.792,3.537,14.885,8.89,19.68c4.794,4.294,11.104,6.854,17.959,6.816
			c11.279-0.083,20.887-7.204,24.854-16.995c1.2-2.986,1.754-6.261,1.67-9.694C257.976,12.719,245.854,0.783,231.388,0.721"/>
		<path fill-rule="evenodd" fill="#606163" d="M231.348,0.812c-11.628-0.297-21.329,7.595-25.004,18.153
			c-0.912,2.654-1.371,5.531-1.324,8.527c0.091,7.771,3.548,14.853,8.884,19.623c4.788,4.281,11.086,6.824,17.92,6.782
			c11.252-0.093,20.827-7.208,24.792-16.962c1.197-2.974,1.736-6.238,1.642-9.661C257.857,12.781,245.747,0.881,231.348,0.812"/>
		<path fill-rule="evenodd" fill="#616264" d="M231.308,0.902c-11.593-0.33-21.263,7.568-24.918,18.113
			c-0.916,2.643-1.356,5.515-1.312,8.505c0.117,7.75,3.559,14.82,8.878,19.566c4.784,4.269,11.066,6.796,17.88,6.749
			c11.226-0.103,20.769-7.213,24.73-16.93c1.194-2.961,1.72-6.214,1.614-9.627C257.737,12.844,245.639,0.979,231.308,0.902"/>
		<path fill-rule="evenodd" fill="#616365" d="M231.268,0.992c-11.558-0.362-21.176,7.549-24.832,18.073
			c-0.915,2.632-1.349,5.499-1.299,8.483c0.13,7.728,3.569,14.786,8.872,19.509c4.778,4.255,11.048,6.767,17.84,6.715
			c11.198-0.114,20.711-7.218,24.669-16.897c1.192-2.949,1.702-6.19,1.586-9.593C257.615,12.906,245.532,1.077,231.268,0.992"/>
		<path fill-rule="evenodd" fill="#626366" d="M231.229,1.082c-11.524-0.396-21.091,7.53-24.747,18.033
			c-0.913,2.623-1.341,5.483-1.286,8.461c0.141,7.707,3.58,14.753,8.867,19.453c4.772,4.242,11.028,6.738,17.799,6.682
			c11.172-0.124,20.673-7.214,24.607-16.865c1.196-2.934,1.685-6.167,1.559-9.56C257.497,12.968,245.423,1.175,231.229,1.082"/>
		<path fill-rule="evenodd" fill="#636467" d="M231.189,1.172c-11.489-0.429-21.005,7.509-24.661,17.993
			c-0.911,2.613-1.333,5.467-1.274,8.44c0.152,7.685,3.592,14.72,8.862,19.396c4.768,4.229,11.01,6.709,17.76,6.648
			c11.145-0.134,20.615-7.217,24.545-16.833c1.193-2.92,1.667-6.143,1.53-9.526C257.374,13.031,245.316,1.273,231.189,1.172"/>
		<path fill-rule="evenodd" fill="#646567" d="M231.149,1.262c-11.455-0.461-20.918,7.491-24.575,17.954
			c-0.91,2.603-1.325,5.451-1.262,8.417c0.164,7.664,3.603,14.687,8.856,19.339c4.762,4.217,10.99,6.68,17.72,6.615
			c11.118-0.145,20.559-7.222,24.483-16.8c1.191-2.908,1.65-6.119,1.503-9.492C257.255,13.094,245.208,1.371,231.149,1.262"/>
		<path fill-rule="evenodd" fill="#656668" d="M231.109,1.353c-11.42-0.495-20.829,7.472-24.488,17.914
			c-0.909,2.593-1.318,5.435-1.25,8.396c0.177,7.642,3.612,14.654,8.851,19.283c4.757,4.203,10.972,6.651,17.68,6.581
			c11.092-0.155,20.504-7.225,24.423-16.768c1.188-2.895,1.632-6.095,1.474-9.458C257.131,13.156,245.1,1.469,231.109,1.353"/>
		<path fill-rule="evenodd" fill="#666769" d="M231.07,1.443c-11.387-0.528-20.742,7.452-24.403,17.874
			c-0.907,2.584-1.31,5.419-1.237,8.374c0.188,7.621,3.624,14.622,8.845,19.226c4.752,4.19,10.953,6.623,17.641,6.547
			c11.064-0.166,20.444-7.229,24.36-16.735c1.188-2.882,1.615-6.071,1.446-9.425C257.013,13.219,244.993,1.567,231.07,1.443"/>
		<path fill-rule="evenodd" fill="#66686A" d="M231.03,1.533c-11.352-0.561-20.656,7.433-24.317,17.834
			c-0.906,2.574-1.302,5.403-1.225,8.353c0.2,7.599,3.634,14.588,8.839,19.169c4.746,4.178,10.935,6.593,17.601,6.513
			c11.038-0.175,20.389-7.233,24.299-16.703c1.185-2.869,1.598-6.047,1.418-9.391C256.89,13.282,244.885,1.665,231.03,1.533"/>
		<path fill-rule="evenodd" fill="#67686B" d="M230.99,1.623c-11.316-0.594-20.57,7.413-24.231,17.794
			c-0.904,2.564-1.295,5.387-1.213,8.331c0.21,7.578,3.646,14.556,8.834,19.113c4.741,4.165,10.915,6.578,17.561,6.48
			c11.012-0.163,20.33-7.237,24.237-16.67c1.183-2.856,1.58-6.023,1.391-9.357C256.773,13.345,244.777,1.763,230.99,1.623"/>
		<path fill-rule="evenodd" fill="#68696C" d="M230.95,1.713c-11.282-0.626-20.483,7.393-24.146,17.754
			c-0.902,2.555-1.287,5.371-1.2,8.309c0.223,7.556,3.656,14.522,8.828,19.056c4.736,4.151,10.896,6.55,17.521,6.446
			c10.985-0.172,20.274-7.241,24.176-16.638c1.181-2.843,1.563-6,1.363-9.323C256.652,13.407,244.669,1.86,230.95,1.713"/>
		<path fill-rule="evenodd" fill="#696A6C" d="M230.911,1.803c-11.248-0.659-20.396,7.375-24.06,17.715
			c-0.901,2.545-1.279,5.355-1.188,8.287c0.233,7.535,3.667,14.49,8.822,19c4.73,4.139,10.878,6.521,17.481,6.413
			c10.958-0.181,20.217-7.245,24.113-16.605c1.178-2.83,1.546-5.976,1.335-9.29C256.532,13.47,244.562,1.958,230.911,1.803"/>
		<path fill-rule="evenodd" fill="#6A6B6D" d="M230.871,1.894c-11.214-0.692-20.309,7.355-23.974,17.675
			c-0.9,2.536-1.271,5.339-1.176,8.266c0.246,7.513,3.678,14.457,8.816,18.942c4.726,4.125,10.859,6.494,17.441,6.379
			c10.933-0.19,20.161-7.249,24.053-16.573c1.176-2.817,1.528-5.952,1.307-9.256C256.412,13.534,244.454,2.056,230.871,1.894"/>
		<path fill-rule="evenodd" fill="#6A6C6E" d="M230.831,1.984c-11.179-0.726-20.222,7.335-23.888,17.635
			c-0.899,2.525-1.264,5.324-1.164,8.244c0.256,7.492,3.689,14.424,8.812,18.886c4.72,4.112,10.84,6.465,17.401,6.345
			c10.906-0.2,20.104-7.252,23.991-16.541c1.174-2.804,1.511-5.928,1.278-9.222C256.292,13.597,244.346,2.154,230.831,1.984"/>
		<path fill-rule="evenodd" fill="#6B6C6F" d="M230.791,2.074c-11.144-0.758-20.137,7.316-23.802,17.595
			c-0.897,2.516-1.256,5.308-1.151,8.222c0.269,7.47,3.7,14.39,8.806,18.829c4.716,4.1,10.821,6.438,17.362,6.312
			c10.879-0.208,20.046-7.257,23.929-16.508c1.172-2.792,1.494-5.904,1.251-9.188C256.173,13.66,244.239,2.252,230.791,2.074"/>
		<path fill-rule="evenodd" fill="#6C6D70" d="M230.75,2.164c-11.109-0.792-20.049,7.296-23.716,17.556
			c-0.896,2.506-1.248,5.292-1.139,8.2c0.28,7.448,3.711,14.357,8.8,18.772c4.71,4.086,10.803,6.409,17.322,6.278
			c10.853-0.218,19.989-7.26,23.867-16.475c1.169-2.779,1.477-5.88,1.223-9.155C256.051,13.723,244.13,2.35,230.75,2.164"/>
		<path fill-rule="evenodd" fill="#6D6E71" d="M230.711,2.254c-11.075-0.825-19.963,7.277-23.631,17.516
			c-0.895,2.496-1.24,5.276-1.126,8.178c0.292,7.427,3.722,14.325,8.794,18.716c4.705,4.074,10.784,6.381,17.282,6.245
			c10.826-0.227,19.932-7.264,23.806-16.443c1.168-2.766,1.46-5.856,1.195-9.122C255.933,13.787,244.023,2.448,230.711,2.254"/>
		<path fill-rule="evenodd" fill="#6D6F71" d="M230.671,2.344c-11.041-0.857-19.874,7.259-23.544,17.476
			c-0.893,2.487-1.233,5.259-1.114,8.156c0.305,7.406,3.732,14.291,8.788,18.659c4.7,4.061,10.765,6.353,17.242,6.211
			c10.8-0.236,19.875-7.268,23.744-16.41c1.165-2.753,1.443-5.832,1.168-9.088C255.814,13.85,243.916,2.546,230.671,2.344"/>
		<path fill-rule="evenodd" fill="#6E7072" d="M230.631,2.435c-11.006-0.89-19.787,7.239-23.458,17.436
			c-0.892,2.477-1.226,5.244-1.103,8.135c0.314,7.384,3.745,14.258,8.783,18.603c4.694,4.047,10.746,6.324,17.203,6.177
			c10.772-0.245,19.819-7.271,23.683-16.378c1.162-2.74,1.425-5.808,1.139-9.054C255.694,13.914,243.808,2.644,230.631,2.435"/>
		<path fill-rule="evenodd" fill="#6F7073" d="M230.591,2.525c-10.971-0.923-19.7,7.219-23.372,17.396
			c-0.891,2.467-1.218,5.228-1.09,8.113c0.327,7.362,3.755,14.225,8.777,18.546c4.689,4.035,10.728,6.296,17.163,6.144
			c10.746-0.254,19.762-7.275,23.621-16.345c1.16-2.728,1.408-5.784,1.111-9.021C255.575,13.977,243.7,2.742,230.591,2.525"/>
		<path fill-rule="evenodd" fill="#707174" d="M230.552,2.615c-10.938-0.957-19.615,7.199-23.287,17.356
			c-0.889,2.457-1.21,5.212-1.077,8.091c0.338,7.341,3.767,14.191,8.771,18.489c4.685,4.021,10.709,6.268,17.123,6.11
			c10.72-0.264,19.705-7.279,23.56-16.313c1.158-2.714,1.391-5.76,1.083-8.987C255.455,14.041,243.592,2.84,230.552,2.615"/>
		<path fill-rule="evenodd" fill="#717275" d="M230.512,2.705c-10.902-0.989-19.528,7.18-23.201,17.316
			c-0.887,2.448-1.202,5.196-1.064,8.069c0.35,7.319,3.777,14.159,8.766,18.433c4.679,4.008,10.69,6.239,17.084,6.076
			c10.692-0.273,19.646-7.283,23.497-16.28c1.156-2.702,1.374-5.735,1.056-8.953C255.336,14.104,243.485,2.938,230.512,2.705"/>
		<path fill-rule="evenodd" fill="#717375" d="M230.472,2.795c-10.868-1.022-19.441,7.161-23.115,17.276
			c-0.885,2.438-1.193,5.18-1.052,8.048c0.361,7.297,3.788,14.126,8.76,18.375c4.674,3.996,10.672,6.211,17.044,6.043
			c10.665-0.282,19.59-7.287,23.436-16.248c1.154-2.689,1.356-5.711,1.027-8.919C255.216,14.168,243.376,3.036,230.472,2.795"/>
		<path fill-rule="evenodd" fill="#727476" d="M230.432,2.886c-10.833-1.056-19.353,7.141-23.028,17.236
			c-0.885,2.428-1.188,5.164-1.041,8.026c0.373,7.276,3.8,14.092,8.755,18.319c4.669,3.982,10.653,6.183,17.004,6.009
			c10.639-0.291,19.534-7.292,23.374-16.216c1.151-2.676,1.34-5.687,1-8.886C255.097,14.232,243.269,3.133,230.432,2.886"/>
		<path fill-rule="evenodd" fill="#737477" d="M230.392,2.976c-10.798-1.088-19.265,7.123-22.942,17.197
			c-0.883,2.418-1.18,5.148-1.028,8.004c0.384,7.254,3.811,14.06,8.749,18.262c4.664,3.969,10.634,6.155,16.964,5.976
			c10.612-0.3,19.478-7.294,23.313-16.183c1.149-2.663,1.322-5.663,0.971-8.852C254.978,14.296,243.162,3.231,230.392,2.976"/>
		<path fill-rule="evenodd" fill="#747578" d="M230.353,3.066c-10.765-1.121-19.181,7.103-22.857,17.157
			c-0.881,2.408-1.172,5.132-1.016,7.982c0.396,7.233,3.822,14.026,8.744,18.206c4.658,3.956,10.614,6.126,16.924,5.942
			c10.585-0.309,19.42-7.298,23.251-16.151c1.146-2.65,1.305-5.639,0.943-8.818C254.862,14.36,243.053,3.329,230.353,3.066"/>
		<path fill-rule="evenodd" fill="#747678" d="M230.313,3.156c-10.729-1.154-19.094,7.083-22.771,17.117
			c-0.879,2.399-1.163,5.116-1.003,7.96c0.406,7.211,3.833,13.992,8.738,18.149c4.653,3.943,10.596,6.098,16.884,5.908
			c10.559-0.319,19.362-7.303,23.189-16.118c1.145-2.637,1.288-5.614,0.916-8.785C254.743,14.424,242.946,3.427,230.313,3.156"/>
		<path fill-rule="evenodd" fill="#757779" d="M230.273,3.246c-10.695-1.187-19.007,7.064-22.686,17.078
			c-0.878,2.389-1.155,5.1-0.99,7.938c0.419,7.19,3.844,13.959,8.732,18.092c4.648,3.93,10.577,6.07,16.844,5.875
			c10.532-0.328,19.306-7.307,23.128-16.086c1.143-2.624,1.271-5.59,0.888-8.751C254.624,14.488,242.838,3.525,230.273,3.246"/>
		<path fill-rule="evenodd" fill="#76777A" d="M230.233,3.336c-10.66-1.22-18.918,7.045-22.599,17.038
			c-0.877,2.38-1.148,5.084-0.979,7.917c0.429,7.168,3.855,13.926,8.728,18.036c4.644,3.917,10.558,6.042,16.805,5.841
			c10.506-0.337,19.247-7.311,23.065-16.053c1.141-2.611,1.255-5.566,0.86-8.717C254.505,14.552,242.73,3.623,230.233,3.336"/>
		<path fill-rule="evenodd" fill="#77787B" d="M230.194,3.427c-10.626-1.253-18.831,7.025-22.514,16.998
			c-0.875,2.37-1.142,5.068-0.967,7.895c0.44,7.146,3.867,13.893,8.722,17.979c4.639,3.904,10.539,6.013,16.765,5.808
			c10.479-0.346,19.191-7.314,23.005-16.021c1.138-2.598,1.236-5.541,0.831-8.684C254.386,14.617,242.623,3.721,230.194,3.427"/>
		<path fill-rule="evenodd" fill="#77797C" d="M230.154,3.517c-10.592-1.286-18.746,7.005-22.428,16.958
			c-0.873,2.36-1.133,5.052-0.954,7.874c0.451,7.125,3.878,13.859,8.716,17.922c4.634,3.891,10.521,5.985,16.725,5.774
			c10.453-0.355,19.135-7.317,22.943-15.988c1.136-2.585,1.22-5.517,0.804-8.65C254.268,14.681,242.515,3.819,230.154,3.517"/>
		<path fill-rule="evenodd" fill="#787A7C" d="M230.114,3.607c-10.557-1.319-18.658,6.986-22.342,16.918
			c-0.872,2.351-1.125,5.037-0.941,7.852c0.464,7.104,3.889,13.827,8.71,17.866c4.628,3.877,10.502,5.957,16.685,5.74
			c10.427-0.365,19.078-7.321,22.882-15.956c1.134-2.573,1.203-5.493,0.775-8.617C254.15,14.746,242.407,3.917,230.114,3.607"/>
		<path fill-rule="evenodd" fill="#797B7D" d="M230.074,3.697c-10.522-1.352-18.571,6.966-22.256,16.878
			c-0.87,2.341-1.117,5.02-0.929,7.83c0.475,7.082,3.899,13.792,8.704,17.809c4.624,3.865,10.482,5.928,16.646,5.707
			c10.399-0.374,19.021-7.325,22.819-15.923c1.131-2.56,1.187-5.468,0.748-8.583C254.032,14.81,242.299,4.015,230.074,3.697"/>
		<path fill-rule="evenodd" fill="#7A7B7E" d="M230.034,3.787c-10.487-1.385-18.484,6.947-22.17,16.839
			c-0.868,2.331-1.11,5.004-0.917,7.808c0.486,7.061,3.912,13.76,8.699,17.752c4.618,3.852,10.464,5.9,16.605,5.673
			c10.373-0.383,18.962-7.33,22.758-15.891c1.129-2.547,1.169-5.444,0.72-8.549C253.914,14.875,242.192,4.113,230.034,3.787"/>
		<path fill-rule="evenodd" fill="#7A7C7F" d="M229.995,3.877c-10.453-1.418-18.395,6.928-22.084,16.799
			c-0.867,2.321-1.103,4.988-0.905,7.786c0.497,7.039,3.924,13.727,8.693,17.695c4.613,3.838,10.445,5.872,16.565,5.64
			c10.347-0.393,18.906-7.333,22.696-15.858c1.127-2.534,1.153-5.419,0.692-8.516C253.795,14.939,242.083,4.21,229.995,3.877"/>
		<path fill-rule="evenodd" fill="#7B7D7F" d="M229.955,3.968c-10.419-1.451-18.31,6.908-21.998,16.759
			c-0.865,2.312-1.095,4.972-0.893,7.764c0.509,7.017,3.934,13.693,8.688,17.639c4.608,3.826,10.427,5.843,16.526,5.606
			c10.319-0.402,18.849-7.336,22.635-15.826c1.124-2.521,1.136-5.395,0.664-8.482C253.68,15.003,241.976,4.309,229.955,3.968"/>
		<path fill-rule="evenodd" fill="#7C7E80" d="M229.915,4.058c-10.384-1.484-18.223,6.89-21.912,16.719
			c-0.864,2.302-1.087,4.956-0.88,7.743c0.52,6.996,3.945,13.66,8.682,17.582c4.604,3.813,10.407,5.815,16.486,5.572
			c10.293-0.411,18.792-7.34,22.573-15.793c1.122-2.508,1.118-5.37,0.636-8.448C253.56,15.068,241.869,4.406,229.915,4.058"/>
		<path fill-rule="evenodd" fill="#7D7E81" d="M229.875,4.148c-10.35-1.517-18.136,6.87-21.826,16.679
			c-0.862,2.292-1.079,4.94-0.867,7.721c0.531,6.974,3.957,13.626,8.676,17.525c4.599,3.8,10.389,5.787,16.446,5.539
			c10.267-0.42,18.735-7.344,22.512-15.761c1.119-2.495,1.102-5.346,0.608-8.415C253.445,15.133,241.761,4.504,229.875,4.148"/>
		<path fill-rule="evenodd" fill="#7D7F82" d="M229.835,4.238c-10.315-1.55-18.05,6.85-21.741,16.639
			c-0.86,2.283-1.071,4.924-0.855,7.699c0.541,6.952,3.969,13.593,8.671,17.468c4.594,3.787,10.37,5.759,16.406,5.505
			c10.241-0.43,18.678-7.349,22.45-15.729c1.117-2.482,1.085-5.321,0.58-8.381C253.328,15.198,241.653,4.602,229.835,4.238"/>
		<path fill-rule="evenodd" fill="#7E8082" d="M229.795,4.328c-10.281-1.583-17.962,6.831-21.655,16.6
			c-0.859,2.273-1.063,4.908-0.843,7.677c0.554,6.931,3.979,13.56,8.665,17.412c4.589,3.773,10.352,5.73,16.367,5.471
			c10.214-0.439,18.619-7.352,22.388-15.696c1.115-2.469,1.068-5.297,0.553-8.347C253.21,15.263,241.545,4.7,229.795,4.328"/>
		<path fill-rule="evenodd" fill="#7F8183" d="M229.755,4.418c-10.246-1.616-17.874,6.812-21.568,16.56
			c-0.857,2.263-1.057,4.893-0.831,7.656c0.564,6.909,3.991,13.526,8.659,17.355c4.584,3.76,10.332,5.702,16.327,5.438
			c10.188-0.448,18.562-7.356,22.326-15.664c1.113-2.457,1.052-5.272,0.524-8.313C253.092,15.328,241.438,4.798,229.755,4.418"/>
		<path fill-rule="evenodd" fill="#808184" d="M229.715,4.509c-10.211-1.649-17.787,6.792-21.482,16.52
			c-0.856,2.253-1.049,4.876-0.818,7.634c0.576,6.887,4.002,13.493,8.653,17.299c4.579,3.747,10.313,5.673,16.287,5.404
			c10.161-0.458,18.507-7.359,22.266-15.631c1.11-2.443,1.034-5.248,0.496-8.28C252.976,15.393,241.33,4.896,229.715,4.509"/>
		<path fill-rule="evenodd" fill="#808285" d="M229.675,4.599c-10.177-1.682-17.699,6.773-21.396,16.48
			c-0.854,2.244-1.041,4.86-0.806,7.612c0.587,6.866,4.014,13.459,8.647,17.242c4.575,3.734,10.296,5.645,16.248,5.371
			c10.133-0.467,18.449-7.363,22.203-15.599c1.108-2.431,1.018-5.223,0.468-8.246C252.859,15.458,241.222,4.994,229.675,4.599"/>
		<path fill-rule="evenodd" fill="#818385" d="M229.636,4.689c-10.143-1.715-17.612,6.753-21.312,16.44
			c-0.853,2.233-1.034,4.844-0.794,7.59c0.598,6.844,4.026,13.425,8.643,17.185c4.569,3.721,10.276,5.617,16.208,5.337
			c10.106-0.476,18.392-7.368,22.142-15.566c1.106-2.418,1.001-5.198,0.44-8.212C252.742,15.523,241.115,5.092,229.636,4.689"/>
		<path fill-rule="evenodd" fill="#828486" d="M229.596,4.779c-10.108-1.748-17.525,6.734-21.226,16.4
			c-0.852,2.224-1.026,4.828-0.781,7.568c0.61,6.822,4.037,13.392,8.637,17.128c4.564,3.708,10.258,5.588,16.168,5.303
			c10.08-0.486,18.335-7.371,22.08-15.534c1.104-2.405,0.984-5.173,0.413-8.178C252.627,15.588,241.006,5.19,229.596,4.779"/>
		<path fill-rule="evenodd" fill="#828487" d="M229.556,4.869c-10.073-1.781-17.438,6.715-21.139,16.361
			c-0.85,2.214-1.02,4.812-0.77,7.547c0.62,6.801,4.049,13.358,8.631,17.071c4.561,3.695,10.239,5.56,16.128,5.27
			c10.054-0.495,18.276-7.375,22.019-15.501c1.102-2.392,0.968-5.148,0.385-8.145C252.509,15.654,240.899,5.288,229.556,4.869"/>
		<path fill-rule="evenodd" fill="#838588" d="M229.516,4.959c-10.038-1.813-17.351,6.695-21.053,16.321
			c-0.848,2.205-1.012,4.796-0.757,7.525c0.632,6.779,4.061,13.325,8.625,17.015c4.555,3.682,10.221,5.531,16.089,5.236
			c10.026-0.504,18.219-7.379,21.956-15.469c1.099-2.379,0.952-5.124,0.357-8.111C252.395,15.719,240.792,5.386,229.516,4.959"/>
		<path fill-rule="evenodd" fill="#848688" d="M229.477,5.05c-10.005-1.847-17.265,6.676-20.968,16.281
			c-0.847,2.195-1.004,4.78-0.745,7.503c0.643,6.757,4.073,13.291,8.62,16.958c4.55,3.669,10.201,5.503,16.049,5.203
			c10.001-0.514,18.163-7.382,21.896-15.436c1.097-2.367,0.935-5.1,0.328-8.078C252.276,15.785,240.683,5.483,229.477,5.05"/>
		<path fill-rule="evenodd" fill="#858789" d="M229.437,5.14c-9.97-1.879-17.177,6.656-20.882,16.241
			c-0.845,2.186-0.996,4.764-0.732,7.481c0.654,6.736,4.084,13.257,8.615,16.901c4.545,3.655,10.182,5.475,16.008,5.169
			c9.975-0.523,18.106-7.386,21.834-15.403c1.095-2.354,0.918-5.075,0.301-8.044C252.163,15.85,240.576,5.582,229.437,5.14"/>
		<path fill-rule="evenodd" fill="#85878A" d="M229.397,5.23c-9.936-1.913-17.09,6.637-20.796,16.201
			c-0.843,2.176-0.988,4.749-0.72,7.46c0.665,6.714,4.096,13.224,8.609,16.845c4.54,3.642,10.163,5.446,15.968,5.135
			c9.948-0.532,18.05-7.39,21.772-15.371c1.092-2.341,0.9-5.05,0.272-8.01C252.046,15.916,240.468,5.679,229.397,5.23"/>
		<path fill-rule="evenodd" fill="#86888B" d="M229.357,5.32c-9.9-1.946-17.004,6.617-20.71,16.161
			c-0.841,2.166-0.98,4.732-0.707,7.438c0.677,6.692,4.107,13.19,8.604,16.788c4.536,3.629,10.145,5.418,15.929,5.102
			c9.921-0.542,17.99-7.394,21.71-15.338c1.09-2.328,0.885-5.025,0.245-7.977C251.931,15.981,240.36,5.777,229.357,5.32"/>
		<path fill-rule="evenodd" fill="#87898B" d="M229.318,5.41c-9.866-1.979-16.915,6.598-20.624,16.122
			c-0.84,2.157-0.974,4.717-0.695,7.417c0.688,6.671,4.119,13.157,8.598,16.731c4.53,3.616,10.125,5.389,15.889,5.068
			c9.895-0.552,17.934-7.397,21.648-15.306c1.088-2.315,0.869-5,0.218-7.943C251.817,16.046,240.252,5.875,229.318,5.41"/>
		<path fill-rule="evenodd" fill="#888A8C" d="M229.278,5.5c-9.832-2.012-16.827,6.579-20.538,16.082
			c-0.838,2.146-0.967,4.7-0.684,7.394c0.698,6.649,4.131,13.123,8.593,16.675c4.526,3.603,10.106,5.361,15.849,5.034
			c9.868-0.561,17.876-7.402,21.587-15.273c1.086-2.302,0.853-4.975,0.189-7.909C251.701,16.112,240.145,5.973,229.278,5.5"/>
		<path fill-rule="evenodd" fill="#888A8D" d="M229.238,5.591c-9.797-2.044-16.739,6.56-20.452,16.042
			c-0.837,2.137-0.958,4.684-0.671,7.373c0.709,6.627,4.143,13.089,8.587,16.618c4.521,3.59,10.088,5.333,15.81,5.001
			c9.841-0.57,17.819-7.405,21.525-15.241c1.083-2.289,0.835-4.951,0.161-7.875C251.587,16.178,240.038,6.071,229.238,5.591"/>
		<path fill-rule="evenodd" fill="#898B8E" d="M229.198,5.681c-9.763-2.077-16.652,6.541-20.366,16.002
			c-0.835,2.127-0.951,4.668-0.658,7.351c0.72,6.605,4.154,13.056,8.581,16.562c4.517,3.577,10.069,5.304,15.77,4.967
			c9.815-0.58,17.762-7.41,21.464-15.209c1.081-2.276,0.819-4.926,0.133-7.842C251.469,16.244,239.929,6.169,229.198,5.681"/>
		<path fill-rule="evenodd" fill="#8A8C8E" d="M229.158,5.771c-9.728-2.11-16.566,6.521-20.28,15.962
			c-0.833,2.117-0.942,4.652-0.646,7.329c0.73,6.584,4.166,13.022,8.575,16.504c4.512,3.563,10.05,5.275,15.729,4.934
			c9.789-0.589,17.705-7.413,21.402-15.176c1.078-2.264,0.803-4.901,0.105-7.808C251.357,16.309,239.822,6.267,229.158,5.771"/>
		<path fill-rule="evenodd" fill="#8B8D8F" d="M229.119,5.861c-9.693-2.144-16.479,6.5-20.195,15.922
			c-0.831,2.108-0.935,4.636-0.633,7.307c0.742,6.563,4.177,12.988,8.569,16.448c4.508,3.55,10.031,5.247,15.689,4.9
			c9.763-0.599,17.647-7.417,21.341-15.144c1.075-2.25,0.786-4.875,0.077-7.774C251.241,16.375,239.714,6.365,229.119,5.861"/>
		<path fill-rule="evenodd" fill="#8B8D90" d="M229.079,5.951c-9.659-2.176-16.39,6.482-20.108,15.883
			c-0.83,2.098-0.929,4.62-0.622,7.286c0.752,6.541,4.189,12.955,8.564,16.391c4.503,3.537,10.014,5.218,15.65,4.866
			c9.735-0.608,17.589-7.421,21.278-15.111c1.073-2.238,0.771-4.851,0.05-7.741C251.127,16.441,239.606,6.463,229.079,5.951"/>
		<path fill-rule="evenodd" fill="#8C8E91" d="M229.039,6.042c-9.624-2.209-16.303,6.463-20.022,15.843
			c-0.828,2.089-0.921,4.604-0.609,7.264c0.764,6.519,4.201,12.921,8.559,16.334c4.499,3.524,9.995,5.19,15.61,4.833
			c9.709-0.618,17.532-7.425,21.217-15.079c1.071-2.225,0.754-4.825,0.021-7.707C251.011,16.507,239.499,6.561,229.039,6.042"/>
		<path fill-rule="evenodd" fill="#8D8F92" d="M228.999,6.132c-9.59-2.243-16.215,6.443-19.937,15.803
			c-0.826,2.079-0.913,4.588-0.597,7.242c0.774,6.498,4.213,12.887,8.553,16.278c4.493,3.511,9.976,5.161,15.57,4.799
			c9.683-0.627,17.476-7.428,21.156-15.046c1.068-2.212,0.737-4.801-0.007-7.673C250.899,16.573,239.391,6.659,228.999,6.132"/>
		<path fill-rule="evenodd" fill="#8E9092" d="M228.959,6.222c-9.556-2.275-16.131,6.423-19.852,15.763
			c-0.824,2.069-0.905,4.572-0.584,7.22c0.786,6.476,4.225,12.854,8.547,16.221c4.489,3.498,9.957,5.133,15.531,4.766
			c9.655-0.637,17.418-7.432,21.094-15.014c1.066-2.199,0.721-4.776-0.034-7.64C250.787,16.639,239.283,6.756,228.959,6.222"/>
		<path fill-rule="evenodd" fill="#8E9093" d="M228.919,6.312c-9.521-2.308-16.042,6.404-19.766,15.724
			c-0.822,2.059-0.897,4.556-0.571,7.198c0.796,6.454,4.236,12.819,8.541,16.164c4.485,3.484,9.938,5.104,15.491,4.732
			c9.63-0.646,17.361-7.435,21.032-14.981c1.063-2.186,0.705-4.75-0.063-7.606C250.671,16.705,239.175,6.854,228.919,6.312"/>
		<path fill-rule="evenodd" fill="#8F9194" d="M228.879,6.402c-9.486-2.341-15.952,6.385-19.679,15.684
			c-0.821,2.05-0.892,4.54-0.561,7.176c0.808,6.433,4.249,12.786,8.536,16.108c4.479,3.471,9.92,5.076,15.451,4.698
			c9.604-0.656,17.303-7.439,20.971-14.949c1.062-2.174,0.689-4.727-0.09-7.573C250.559,16.771,239.068,6.952,228.879,6.402"/>
		<path fill-rule="evenodd" fill="#909295" d="M228.839,6.492c-9.451-2.374-15.865,6.366-19.593,15.644
			c-0.819,2.04-0.884,4.524-0.548,7.155c0.817,6.41,4.261,12.752,8.53,16.051c4.476,3.458,9.9,5.048,15.411,4.665
			c9.576-0.666,17.246-7.443,20.909-14.917c1.06-2.161,0.673-4.701-0.118-7.539C250.444,16.837,238.959,7.05,228.839,6.492"/>
		<path fill-rule="evenodd" fill="#919395" d="M228.799,6.583c-9.417-2.407-15.777,6.347-19.507,15.604
			c-0.818,2.03-0.876,4.508-0.535,7.133c0.829,6.389,4.271,12.718,8.524,15.995c4.471,3.445,9.882,5.019,15.372,4.631
			c9.549-0.675,17.188-7.447,20.848-14.884c1.057-2.148,0.656-4.676-0.146-7.505C250.333,16.903,238.852,7.148,228.799,6.583"/>
		<path fill-rule="evenodd" fill="#919396" d="M228.76,6.673c-9.383-2.44-15.692,6.326-19.422,15.564
			c-0.815,2.021-0.867,4.492-0.522,7.111c0.839,6.367,4.284,12.684,8.519,15.938c4.466,3.431,9.863,4.991,15.332,4.598
			c9.522-0.685,17.132-7.451,20.786-14.852c1.055-2.135,0.641-4.65-0.175-7.472C250.217,16.97,238.745,7.246,228.76,6.673"/>
		<path fill-rule="evenodd" fill="#929497" d="M228.72,6.763c-9.349-2.473-15.604,6.308-19.336,15.524
			c-0.814,2.011-0.86,4.476-0.51,7.089c0.851,6.345,4.296,12.65,8.513,15.881c4.462,3.418,9.845,4.962,15.292,4.564
			c9.496-0.694,17.073-7.455,20.725-14.819c1.053-2.122,0.625-4.625-0.202-7.438C250.106,17.035,238.636,7.344,228.72,6.763"/>
		<path fill-rule="evenodd" fill="#939598" d="M228.68,6.853c-9.313-2.506-15.517,6.288-19.25,15.484
			c-0.813,2.001-0.853,4.46-0.498,7.068c0.86,6.324,4.309,12.616,8.508,15.824c4.457,3.405,9.825,4.934,15.253,4.53
			c9.47-0.703,17.016-7.458,20.662-14.787c1.05-2.109,0.608-4.601-0.23-7.404C249.992,17.102,238.529,7.442,228.68,6.853"/>
		<path fill-rule="evenodd" fill="#949698" d="M228.64,6.943c-9.278-2.539-15.427,6.27-19.163,15.444
			c-0.812,1.992-0.847,4.444-0.486,7.046c0.872,6.302,4.321,12.583,8.502,15.768c4.452,3.392,9.807,4.905,15.213,4.497
			c9.443-0.713,16.959-7.462,20.601-14.754c1.047-2.096,0.593-4.576-0.258-7.371C249.881,17.168,238.421,7.54,228.64,6.943"/>
		<path fill-rule="evenodd" fill="#949699" d="M228.601,7.033c-9.245-2.572-15.34,6.25-19.078,15.405
			c-0.81,1.982-0.839,4.428-0.474,7.024c0.883,6.28,4.332,12.548,8.496,15.711c4.448,3.378,9.788,4.876,15.173,4.463
			c9.417-0.723,16.9-7.467,20.539-14.722c1.045-2.083,0.578-4.55-0.285-7.337C249.769,17.234,238.314,7.638,228.601,7.033"/>
		<path fill-rule="evenodd" fill="#95979A" d="M228.561,7.124c-9.21-2.605-15.254,6.23-18.992,15.365
			c-0.808,1.972-0.831,4.412-0.461,7.002c0.894,6.259,4.344,12.515,8.49,15.654c4.444,3.365,9.77,4.848,15.133,4.429
			c9.391-0.732,16.846-7.469,20.479-14.689c1.042-2.07,0.561-4.525-0.314-7.303C249.657,17.3,238.206,7.736,228.561,7.124"/>
		<path fill-rule="evenodd" fill="#96989B" d="M228.521,7.214c-9.176-2.638-15.166,6.211-18.906,15.325
			c-0.806,1.962-0.823,4.396-0.448,6.98c0.905,6.236,4.356,12.48,8.485,15.597c4.439,3.352,9.75,4.819,15.093,4.396
			c9.363-0.742,16.786-7.474,20.416-14.657c1.04-2.058,0.545-4.5-0.342-7.27C249.546,17.366,238.098,7.833,228.521,7.214"/>
		<path fill-rule="evenodd" fill="#97999B" d="M228.481,7.304c-9.141-2.671-15.078,6.192-18.82,15.286
			c-0.804,1.953-0.815,4.379-0.437,6.958c0.914,6.215,4.369,12.446,8.48,15.541c4.435,3.338,9.731,4.79,15.053,4.362
			c9.337-0.751,16.729-7.477,20.354-14.624c1.037-2.045,0.529-4.475-0.37-7.236C249.433,17.433,237.991,7.932,228.481,7.304"/>
		<path fill-rule="evenodd" fill="#979A9C" d="M228.441,7.394c-9.105-2.704-14.99,6.172-18.734,15.246
			c-0.802,1.943-0.809,4.364-0.424,6.937c0.926,6.193,4.381,12.412,8.475,15.484c4.431,3.325,9.713,4.762,15.013,4.329
			c9.312-0.761,16.671-7.482,20.293-14.592c1.035-2.032,0.514-4.45-0.397-7.202C249.323,17.499,237.882,8.029,228.441,7.394"/>
		<path fill-rule="evenodd" fill="#989A9D" d="M228.402,7.484c-9.072-2.737-14.901,6.154-18.648,15.206
			c-0.801,1.934-0.802,4.347-0.412,6.915c0.936,6.172,4.393,12.378,8.469,15.428c4.426,3.312,9.693,4.733,14.974,4.295
			c9.284-0.771,16.612-7.486,20.23-14.56c1.033-2.019,0.498-4.424-0.426-7.168C249.209,17.565,237.775,8.127,228.402,7.484"/>
		<path fill-rule="evenodd" fill="#999B9E" d="M228.362,7.574c-9.037-2.77-14.813,6.135-18.563,15.166
			c-0.799,1.924-0.794,4.332-0.399,6.894c0.947,6.15,4.405,12.344,8.463,15.371c4.422,3.298,9.675,4.705,14.934,4.261
			c9.258-0.781,16.555-7.489,20.169-14.527c1.03-2.006,0.482-4.399-0.453-7.135C249.1,17.632,237.667,8.225,228.362,7.574"/>
		<path fill-rule="evenodd" fill="#9A9C9E" d="M228.322,7.665c-9.003-2.803-14.728,6.114-18.477,15.126
			c-0.797,1.915-0.786,4.315-0.387,6.872c0.957,6.128,4.418,12.31,8.457,15.314c4.418,3.285,9.656,4.676,14.894,4.228
			c9.231-0.791,16.499-7.493,20.108-14.495c1.027-1.993,0.467-4.374-0.482-7.101C248.987,17.699,237.559,8.323,228.322,7.665"/>
		<path fill-rule="evenodd" fill="#9B9D9F" d="M228.282,7.755c-8.968-2.836-14.64,6.095-18.391,15.086
			c-0.795,1.905-0.779,4.3-0.375,6.85c0.968,6.106,4.43,12.275,8.452,15.257c4.413,3.271,9.638,4.647,14.854,4.194
			c9.205-0.8,16.441-7.496,20.047-14.462c1.025-1.98,0.451-4.348-0.51-7.067C248.878,17.764,237.452,8.421,228.282,7.755"/>
		<path fill-rule="evenodd" fill="#9B9DA0" d="M228.243,7.845c-8.934-2.869-14.552,6.076-18.306,15.046
			c-0.793,1.896-0.771,4.283-0.362,6.828c0.979,6.085,4.442,12.242,8.446,15.201c4.408,3.258,9.618,4.619,14.814,4.161
			c9.178-0.81,16.383-7.5,19.984-14.429c1.023-1.968,0.437-4.324-0.537-7.034C248.768,17.831,237.344,8.519,228.243,7.845"/>
		<path fill-rule="evenodd" fill="#9C9EA1" d="M228.203,7.935c-8.899-2.902-14.462,6.058-18.219,15.007
			c-0.792,1.886-0.765,4.267-0.351,6.806c0.989,6.063,4.454,12.207,8.44,15.144c4.405,3.245,9.6,4.59,14.774,4.127
			c9.152-0.819,16.325-7.504,19.923-14.396c1.021-1.955,0.421-4.298-0.565-7C248.657,17.897,237.236,8.617,228.203,7.935"/>
		<path fill-rule="evenodd" fill="#9D9FA2" d="M228.163,8.025c-8.864-2.935-14.374,6.038-18.133,14.967
			c-0.79,1.876-0.757,4.251-0.338,6.784c0.999,6.042,4.467,12.173,8.435,15.087c4.4,3.232,9.581,4.562,14.734,4.093
			c9.126-0.829,16.267-7.509,19.861-14.364c1.019-1.942,0.405-4.273-0.593-6.966C248.547,17.964,237.128,8.715,228.163,8.025"/>
		<path fill-rule="evenodd" fill="#9EA0A2" d="M228.123,8.115c-8.83-2.968-14.287,6.018-18.047,14.927
			c-0.787,1.866-0.75,4.235-0.326,6.763c1.01,6.02,4.479,12.139,8.43,15.03c4.396,3.218,9.563,4.533,14.695,4.06
			c9.099-0.839,16.209-7.512,19.799-14.332c1.016-1.93,0.39-4.248-0.621-6.933C248.437,18.03,237.021,8.813,228.123,8.115"/>
		<path fill-rule="evenodd" fill="#9EA1A3" d="M228.083,8.206c-8.796-3-14.2,5.999-17.962,14.887
			c-0.785,1.856-0.742,4.219-0.313,6.741c1.02,5.998,4.491,12.105,8.424,14.974c4.392,3.205,9.544,4.504,14.655,4.026
			c9.072-0.849,16.153-7.515,19.738-14.299c1.013-1.917,0.374-4.223-0.649-6.899C248.329,18.096,236.913,8.911,228.083,8.206"/>
		<path fill-rule="evenodd" fill="#9FA1A4" d="M228.043,8.296c-8.761-3.034-14.112,5.979-17.876,14.847
			c-0.784,1.847-0.734,4.203-0.301,6.719c1.03,5.976,4.504,12.07,8.418,14.917c4.388,3.191,9.525,4.476,14.615,3.992
			c9.045-0.859,16.095-7.519,19.677-14.267c1.011-1.904,0.358-4.197-0.678-6.865C248.217,18.163,236.805,9.009,228.043,8.296"/>
		<path fill-rule="evenodd" fill="#A0A2A5" d="M228.003,8.386c-8.727-3.067-14.024,5.959-17.79,14.807
			c-0.782,1.837-0.727,4.188-0.288,6.697c1.041,5.955,4.517,12.036,8.412,14.86c4.384,3.178,9.507,4.447,14.575,3.959
			c9.02-0.868,16.037-7.523,19.615-14.234c1.008-1.891,0.344-4.172-0.705-6.832C248.11,18.229,236.698,9.106,228.003,8.386"/>
		<path fill-rule="evenodd" fill="#A1A3A5" d="M227.963,8.476c-8.691-3.1-13.934,5.942-17.703,14.768
			c-0.78,1.828-0.721,4.171-0.276,6.676c1.052,5.933,4.528,12.001,8.406,14.804c4.38,3.164,9.488,4.418,14.536,3.925
			c8.992-0.878,15.979-7.528,19.553-14.202c1.006-1.878,0.329-4.146-0.732-6.798C248.001,18.294,236.589,9.205,227.963,8.476"/>
		<path fill-rule="evenodd" fill="#A2A4A6" d="M227.923,8.566c-8.657-3.133-13.849,5.922-17.617,14.728
			c-0.778,1.818-0.713,4.155-0.265,6.654c1.062,5.912,4.541,11.967,8.401,14.747c4.375,3.151,9.469,4.39,14.496,3.892
			c8.966-0.888,15.921-7.531,19.491-14.169c1.003-1.865,0.313-4.122-0.761-6.764C247.892,18.361,236.482,9.302,227.923,8.566"/>
		<path fill-rule="evenodd" fill="#A2A4A7" d="M227.884,8.657c-8.623-3.166-13.761,5.902-17.532,14.688
			c-0.776,1.809-0.706,4.139-0.252,6.632c1.072,5.89,4.554,11.933,8.396,14.69c4.371,3.137,9.45,4.36,14.456,3.858
			c8.939-0.897,15.863-7.535,19.43-14.137c1-1.852,0.3-4.096-0.788-6.73C247.783,18.427,236.375,9.4,227.884,8.657"/>
		<path fill-rule="evenodd" fill="#A3A5A8" d="M227.844,8.747c-8.588-3.199-13.673,5.883-17.446,14.648
			c-0.774,1.799-0.698,4.123-0.239,6.61c1.082,5.868,4.566,11.899,8.39,14.634c4.367,3.124,9.432,4.332,14.417,3.824
			c8.912-0.908,15.806-7.538,19.368-14.104c0.998-1.839,0.283-4.071-0.817-6.697C247.674,18.494,236.267,9.498,227.844,8.747"/>
		<path fill-rule="evenodd" fill="#A4A6A9" d="M227.804,8.837c-8.554-3.232-13.583,5.864-17.36,14.608
			c-0.772,1.789-0.69,4.106-0.227,6.588c1.093,5.846,4.578,11.863,8.384,14.577c4.362,3.11,9.413,4.304,14.377,3.791
			c8.886-0.917,15.748-7.542,19.307-14.072c0.995-1.827,0.269-4.046-0.845-6.663C247.567,18.56,236.159,9.596,227.804,8.837"/>
		<path fill-rule="evenodd" fill="#A5A7A9" d="M227.764,8.927c-8.519-3.265-13.495,5.844-17.274,14.568
			c-0.771,1.78-0.683,4.091-0.214,6.566c1.103,5.825,4.591,11.83,8.378,14.521c4.359,3.097,9.394,4.274,14.337,3.757
			c8.86-0.928,15.689-7.546,19.245-14.04c0.993-1.813,0.253-4.02-0.873-6.629C247.458,18.626,236.051,9.694,227.764,8.927"/>
		<path fill-rule="evenodd" fill="#A5A8AA" d="M227.725,9.017c-8.485-3.297-13.408,5.826-17.188,14.529
			c-0.769,1.77-0.677,4.075-0.203,6.545c1.113,5.803,4.604,11.795,8.373,14.463c4.354,3.083,9.375,4.246,14.297,3.724
			c8.834-0.938,15.633-7.55,19.184-14.007c0.99-1.801,0.239-3.995-0.9-6.596C247.35,18.692,235.944,9.792,227.725,9.017"/>
		<path fill-rule="evenodd" fill="#A6A8AB" d="M227.685,9.107c-8.45-3.331-13.319,5.806-17.103,14.489
			c-0.767,1.76-0.669,4.059-0.19,6.523c1.123,5.781,4.616,11.76,8.367,14.407c4.351,3.07,9.357,4.217,14.258,3.689
			c8.807-0.947,15.573-7.554,19.121-13.975c0.988-1.788,0.224-3.97-0.929-6.562C247.243,18.758,235.835,9.89,227.685,9.107"/>
		<path fill-rule="evenodd" fill="#A7A9AC" d="M227.645,9.198c-8.416-3.364-13.231,5.787-17.017,14.449
			c-0.766,1.751-0.662,4.043-0.178,6.501c1.135,5.759,4.63,11.726,8.362,14.35c4.346,3.056,9.338,4.188,14.217,3.656
			c8.78-0.957,15.516-7.558,19.06-13.942c0.985-1.775,0.209-3.945-0.956-6.528C247.137,18.824,235.728,9.988,227.645,9.198"/>
		<path fill-rule="evenodd" fill="#A8AAAD" d="M227.605,9.288c-8.381-3.396-13.144,5.769-16.931,14.409
			c-0.764,1.741-0.654,4.026-0.165,6.48c1.145,5.737,4.642,11.69,8.356,14.293c4.342,3.042,9.318,4.16,14.177,3.623
			c8.754-0.967,15.46-7.561,18.999-13.91c0.982-1.762,0.194-3.92-0.984-6.495C247.03,18.89,235.621,10.086,227.605,9.288"/>
		<path fill-rule="evenodd" fill="#A9ABAD" d="M227.565,9.378c-8.346-3.43-13.055,5.749-16.845,14.369
			c-0.762,1.732-0.646,4.011-0.152,6.458c1.155,5.716,4.654,11.656,8.351,14.237c4.339,3.028,9.3,4.131,14.138,3.589
			c8.728-0.978,15.4-7.565,18.937-13.877c0.98-1.75,0.18-3.895-1.013-6.461C246.922,18.956,235.512,10.184,227.565,9.378"/>
		<path fill-rule="evenodd" fill="#A9ACAE" d="M227.526,9.468c-8.313-3.463-12.967,5.729-16.759,14.329
			c-0.76,1.722-0.642,3.995-0.142,6.437c1.165,5.694,4.668,11.622,8.346,14.18c4.334,3.015,9.281,4.102,14.098,3.556
			c8.701-0.987,15.343-7.569,18.875-13.845c0.978-1.736,0.165-3.87-1.04-6.428C246.816,19.022,235.405,10.282,227.526,9.468"/>
		<path fill-rule="evenodd" fill="#AAACAF" d="M227.486,9.558c-8.277-3.495-12.879,5.711-16.673,14.29
			c-0.758,1.713-0.633,3.979-0.129,6.415c1.175,5.672,4.681,11.587,8.34,14.124c4.331,3.001,9.262,4.073,14.058,3.521
			c8.675-0.997,15.284-7.573,18.813-13.812c0.976-1.724,0.15-3.844-1.068-6.394C246.709,19.088,235.297,10.379,227.486,9.558"/>
		<path fill-rule="evenodd" fill="#ABADB0" d="M227.446,9.648c-8.243-3.528-12.789,5.691-16.587,14.25
			c-0.756,1.703-0.626,3.962-0.116,6.393c1.186,5.65,4.692,11.552,8.334,14.066c4.327,2.987,9.243,4.044,14.018,3.488
			c8.648-1.007,15.227-7.577,18.752-13.78c0.973-1.711,0.137-3.819-1.096-6.36C246.603,19.154,235.189,10.478,227.446,9.648"/>
		<path fill-rule="evenodd" fill="#ACAEB0" d="M227.406,9.739c-8.208-3.562-12.701,5.672-16.501,14.21
			c-0.754,1.693-0.618,3.946-0.104,6.371c1.195,5.629,4.705,11.518,8.328,14.01c4.322,2.974,9.225,4.015,13.979,3.455
			c8.621-1.017,15.169-7.581,18.69-13.747c0.97-1.698,0.121-3.793-1.125-6.327C246.497,19.219,235.082,10.575,227.406,9.739"/>
		<path fill-rule="evenodd" fill="#ADAFB1" d="M227.367,9.829c-8.174-3.594-12.613,5.654-16.416,14.17
			c-0.752,1.683-0.611,3.93-0.091,6.349c1.205,5.607,4.718,11.483,8.322,13.953c4.319,2.96,9.206,3.987,13.938,3.421
			c8.596-1.027,15.111-7.584,18.629-13.715c0.967-1.685,0.107-3.769-1.152-6.293C246.391,19.285,234.974,10.673,227.367,9.829"/>
		<path fill-rule="evenodd" fill="#AEB0B2" d="M227.327,9.919c-8.14-3.627-12.527,5.633-16.33,14.13
			c-0.749,1.674-0.604,3.915-0.079,6.327c1.215,5.586,4.731,11.448,8.317,13.896c4.315,2.946,9.187,3.958,13.898,3.387
			c8.569-1.038,15.054-7.587,18.567-13.682c0.964-1.672,0.093-3.743-1.181-6.259C246.286,19.351,234.866,10.771,227.327,9.919"/>
		<path fill-rule="evenodd" fill="#AEB0B3" d="M227.287,10.009c-8.104-3.661-12.437,5.615-16.243,14.09
			c-0.748,1.665-0.598,3.898-0.067,6.306c1.226,5.563,4.744,11.413,8.312,13.84c4.311,2.932,9.168,3.929,13.859,3.354
			c8.542-1.047,14.994-7.593,18.505-13.65c0.962-1.66,0.079-3.718-1.208-6.226C246.179,19.417,234.758,10.869,227.287,10.009"/>
		<path fill-rule="evenodd" fill="#AFB1B4" d="M227.247,10.099c-8.07-3.693-12.347,5.596-16.157,14.051
			c-0.746,1.655-0.59,3.882-0.055,6.284c1.235,5.542,4.757,11.379,8.306,13.783c4.308,2.918,9.15,3.9,13.819,3.32
			c8.516-1.058,14.937-7.596,18.443-13.617c0.959-1.646,0.064-3.693-1.235-6.192C246.076,19.481,234.651,10.967,227.247,10.099"/>
		<path fill-rule="evenodd" fill="#B0B2B4" d="M227.207,10.189c-8.035-3.726-12.259,5.577-16.071,14.011
			c-0.744,1.646-0.583,3.867-0.042,6.262c1.246,5.521,4.77,11.343,8.3,13.726c4.304,2.905,9.132,3.871,13.779,3.287
			c8.488-1.067,14.877-7.601,18.382-13.585c0.957-1.634,0.051-3.668-1.264-6.158C245.971,19.547,234.543,11.065,227.207,10.189"/>
		<path fill-rule="evenodd" fill="#B1B3B5" d="M227.167,10.28c-8.001-3.759-12.171,5.558-15.986,13.971
			c-0.742,1.636-0.575,3.85-0.029,6.24c1.255,5.499,4.782,11.309,8.294,13.67c4.301,2.891,9.112,3.842,13.739,3.253
			c8.463-1.078,14.821-7.604,18.321-13.553c0.954-1.621,0.036-3.643-1.292-6.125C245.866,19.612,234.435,11.163,227.167,10.28"/>
		<path fill-rule="evenodd" fill="#B2B4B6" d="M227.127,10.37c-7.967-3.792-12.084,5.538-15.9,13.931
			c-0.739,1.626-0.568,3.834-0.018,6.219c1.266,5.477,4.796,11.274,8.289,13.613c4.297,2.877,9.094,3.813,13.7,3.219
			c8.436-1.088,14.763-7.607,18.259-13.52c0.951-1.608,0.021-3.618-1.32-6.091C245.761,19.677,234.328,11.261,227.127,10.37"/>
		<path fill-rule="evenodd" fill="#B2B4B7" d="M227.087,10.46c-7.932-3.825-11.995,5.519-15.814,13.892
			c-0.737,1.616-0.561,3.818-0.005,6.196c1.274,5.456,4.809,11.239,8.283,13.556c4.293,2.863,9.075,3.785,13.66,3.186
			c8.409-1.098,14.703-7.612,18.197-13.488c0.948-1.595,0.009-3.593-1.348-6.057C245.657,19.742,234.22,11.359,227.087,10.46"/>
		<path fill-rule="evenodd" fill="#B3B5B8" d="M227.047,10.55c-7.897-3.858-11.904,5.501-15.728,13.852
			c-0.735,1.607-0.555,3.802,0.007,6.175c1.285,5.434,4.821,11.204,8.277,13.5c4.289,2.85,9.057,3.755,13.62,3.152
			c8.383-1.108,14.646-7.616,18.136-13.455c0.945-1.583-0.006-3.568-1.376-6.023C245.552,19.808,234.112,11.457,227.047,10.55"/>
		<path fill-rule="evenodd" fill="#B4B6B8" d="M227.008,10.64c-7.863-3.891-11.816,5.481-15.643,13.812
			c-0.733,1.598-0.547,3.786,0.02,6.153c1.295,5.412,4.835,11.169,8.271,13.443c4.285,2.835,9.037,3.727,13.581,3.119
			c8.355-1.118,14.586-7.62,18.073-13.422c0.943-1.57-0.019-3.543-1.403-5.99C245.449,19.873,234.004,11.555,227.008,10.64"/>
		<path fill-rule="evenodd" fill="#B5B7B9" d="M226.968,10.73c-7.828-3.924-11.728,5.463-15.557,13.772
			c-0.731,1.588-0.539,3.77,0.032,6.131c1.305,5.39,4.847,11.134,8.266,13.386c4.282,2.821,9.019,3.697,13.541,3.084
			c8.329-1.129,14.528-7.624,18.012-13.39c0.94-1.558-0.033-3.519-1.432-5.956C245.343,19.938,233.897,11.652,226.968,10.73"/>
		<path fill-rule="evenodd" fill="#B6B8BA" d="M226.928,10.821c-7.794-3.957-11.641,5.442-15.471,13.732
			c-0.729,1.578-0.532,3.754,0.044,6.109c1.314,5.369,4.861,11.099,8.261,13.33c4.278,2.807,9,3.668,13.501,3.051
			c8.304-1.139,14.472-7.627,17.951-13.357c0.938-1.544-0.047-3.493-1.46-5.922C245.241,20.002,233.789,11.75,226.928,10.821"/>
		<path fill-rule="evenodd" fill="#B7B8BB" d="M226.888,10.911c-7.759-3.99-11.552,5.424-15.385,13.692
			c-0.728,1.568-0.525,3.738,0.057,6.088c1.324,5.347,4.874,11.063,8.255,13.272c4.274,2.793,8.981,3.64,13.461,3.018
			c8.277-1.15,14.413-7.631,17.89-13.325c0.936-1.532-0.061-3.469-1.487-5.889C245.139,20.066,233.681,11.848,226.888,10.911"/>
		<path fill-rule="evenodd" fill="#B7B9BC" d="M226.848,11.001c-7.725-4.023-11.461,5.406-15.298,13.652
			c-0.726,1.56-0.519,3.722,0.068,6.066c1.334,5.326,4.887,11.029,8.249,13.216c4.271,2.779,8.962,3.611,13.422,2.984
			c8.25-1.16,14.354-7.635,17.827-13.292c0.933-1.519-0.074-3.443-1.516-5.855C245.034,20.131,233.574,11.946,226.848,11.001"/>
		<path fill-rule="evenodd" fill="#B8BABC" d="M226.809,11.091c-7.69-4.056-11.372,5.386-15.213,13.612
			c-0.724,1.55-0.512,3.706,0.081,6.044c1.344,5.304,4.899,10.993,8.243,13.159c4.268,2.765,8.943,3.582,13.382,2.95
			c8.224-1.17,14.295-7.639,17.766-13.26c0.93-1.506-0.088-3.419-1.543-5.821C244.932,20.195,233.465,12.044,226.809,11.091"/>
		<path fill-rule="evenodd" fill="#B9BBBD" d="M226.769,11.181c-7.655-4.089-11.283,5.368-15.127,13.573
			c-0.722,1.541-0.505,3.69,0.093,6.022c1.353,5.283,4.913,10.958,8.238,13.103c4.264,2.75,8.926,3.552,13.342,2.917
			c8.197-1.18,14.237-7.644,17.704-13.228c0.927-1.493-0.101-3.394-1.571-5.788C244.829,20.26,233.358,12.142,226.769,11.181"/>
		<path fill-rule="evenodd" fill="#BABCBE" d="M226.729,11.271c-7.621-4.122-11.196,5.349-15.041,13.533
			c-0.719,1.53-0.497,3.674,0.105,6c1.363,5.26,4.927,10.922,8.233,13.046c4.261,2.736,8.906,3.524,13.302,2.883
			c8.171-1.19,14.177-7.648,17.642-13.195c0.925-1.481-0.114-3.37-1.599-5.754C244.727,20.324,233.25,12.24,226.729,11.271"/>
		<path fill-rule="evenodd" fill="#BBBDBF" d="M226.689,11.362c-7.586-4.155-11.106,5.329-14.955,13.493
			c-0.717,1.521-0.49,3.658,0.118,5.979c1.373,5.239,4.94,10.887,8.228,12.989c4.257,2.722,8.887,3.495,13.262,2.85
			c8.145-1.201,14.121-7.651,17.581-13.163c0.921-1.468-0.129-3.344-1.628-5.72C244.625,20.388,233.142,12.338,226.689,11.362"/>
		<path fill-rule="evenodd" fill="#BCBDC0" d="M226.65,11.452c-7.553-4.188-11.019,5.31-14.87,13.454
			c-0.715,1.511-0.482,3.642,0.131,5.957c1.383,5.217,4.953,10.852,8.222,12.933c4.254,2.708,8.868,3.466,13.222,2.816
			c8.118-1.211,14.062-7.656,17.52-13.13c0.919-1.455-0.142-3.32-1.655-5.687C244.522,20.452,233.035,12.436,226.65,11.452"/>
		<path fill-rule="evenodd" fill="#BCBEC0" d="M226.61,11.542c-7.518-4.221-10.928,5.293-14.783,13.414
			c-0.713,1.502-0.476,3.626,0.143,5.935c1.392,5.196,4.966,10.816,8.216,12.876c4.25,2.693,8.85,3.437,13.182,2.782
			c8.092-1.222,14.003-7.659,17.458-13.098c0.916-1.442-0.154-3.295-1.683-5.653C244.421,20.515,232.927,12.534,226.61,11.542"/>
		<path fill-rule="evenodd" fill="#BDBFC1" d="M226.57,11.632c-7.482-4.254-10.838,5.273-14.697,13.374
			c-0.711,1.493-0.47,3.61,0.154,5.914c1.402,5.174,4.98,10.781,8.211,12.819c4.247,2.679,8.83,3.407,13.143,2.749
			c8.064-1.232,13.944-7.664,17.396-13.065c0.913-1.429-0.167-3.271-1.711-5.619C244.318,20.58,232.82,12.632,226.57,11.632"/>
		<path fill-rule="evenodd" fill="#BEC0C2" d="M226.53,11.722c-7.448-4.287-10.751,5.254-14.611,13.334
			c-0.708,1.482-0.463,3.594,0.167,5.892c1.412,5.152,4.994,10.746,8.205,12.763c4.244,2.665,8.812,3.378,13.103,2.715
			c8.038-1.243,13.885-7.668,17.334-13.033c0.911-1.417-0.181-3.247-1.738-5.585C244.217,20.643,232.711,12.729,226.53,11.722"/>
		<path fill-rule="evenodd" fill="#BFC1C3" d="M226.491,11.813c-7.414-4.32-10.662,5.235-14.526,13.294
			c-0.706,1.473-0.455,3.578,0.18,5.87c1.421,5.131,5.007,10.71,8.199,12.706c4.24,2.65,8.793,3.35,13.063,2.682
			c8.013-1.253,13.826-7.672,17.272-13c0.908-1.404-0.193-3.222-1.767-5.552C244.114,20.707,232.604,12.828,226.491,11.813"/>
		<path fill-rule="evenodd" fill="#C0C2C4" d="M226.451,11.903c-7.38-4.353-10.573,5.216-14.44,13.254
			c-0.704,1.463-0.448,3.562,0.192,5.848c1.432,5.109,5.02,10.675,8.193,12.649c4.237,2.636,8.774,3.32,13.023,2.647
			c7.985-1.264,13.769-7.675,17.211-12.968c0.905-1.391-0.207-3.197-1.795-5.518C244.014,20.77,232.497,12.925,226.451,11.903"/>
		<path fill-rule="evenodd" fill="#C1C2C4" d="M226.411,11.993c-7.345-4.386-10.484,5.197-14.354,13.214
			c-0.702,1.454-0.44,3.546,0.205,5.827c1.44,5.087,5.033,10.639,8.188,12.592c4.234,2.622,8.755,3.291,12.983,2.614
			c7.958-1.274,13.71-7.68,17.149-12.936c0.902-1.378-0.22-3.172-1.823-5.484C243.913,20.833,232.388,13.023,226.411,11.993"/>
		<path fill-rule="evenodd" fill="#C1C3C5" d="M226.371,12.083c-7.311-4.419-10.392,5.179-14.268,13.174
			c-0.7,1.445-0.436,3.53,0.216,5.805c1.45,5.066,5.047,10.604,8.183,12.536c4.23,2.607,8.736,3.262,12.943,2.581
			c7.932-1.285,13.652-7.684,17.088-12.903c0.899-1.366-0.232-3.149-1.851-5.451C243.812,20.895,232.281,13.121,226.371,12.083"/>
		<path fill-rule="evenodd" fill="#C2C4C6" d="M226.331,12.173c-7.275-4.452-10.302,5.161-14.182,13.135
			c-0.698,1.435-0.428,3.514,0.229,5.783c1.459,5.045,5.061,10.568,8.177,12.479c4.228,2.593,8.718,3.233,12.903,2.547
			c7.905-1.295,13.593-7.688,17.026-12.87c0.896-1.354-0.245-3.125-1.879-5.417C243.709,20.958,232.173,13.219,226.331,12.173"/>
		<path fill-rule="evenodd" fill="#C3C5C7" d="M226.292,12.263c-7.241-4.484-10.216,5.142-14.097,13.095
			c-0.695,1.426-0.421,3.498,0.241,5.761c1.469,5.023,5.073,10.533,8.171,12.422c4.225,2.578,8.7,3.204,12.864,2.514
			c7.878-1.306,13.533-7.692,16.964-12.838c0.894-1.341-0.258-3.101-1.906-5.384C243.611,21.021,232.065,13.317,226.292,12.263"/>
		<path fill-rule="evenodd" fill="#C4C6C8" d="M226.251,12.354c-7.207-4.518-10.126,5.122-14.011,13.055
			c-0.693,1.416-0.413,3.482,0.254,5.739c1.478,5.001,5.087,10.497,8.165,12.366c4.221,2.563,8.681,3.174,12.824,2.479
			c7.852-1.316,13.474-7.697,16.902-12.805c0.892-1.328-0.271-3.077-1.934-5.35C243.511,21.083,231.958,13.415,226.251,12.354"/>
		<path fill-rule="evenodd" fill="#C5C6C8" d="M226.211,12.444c-7.172-4.551-10.037,5.104-13.925,13.015
			c-0.691,1.407-0.406,3.466,0.267,5.717c1.488,4.98,5.101,10.461,8.159,12.309c4.219,2.548,8.662,3.146,12.784,2.446
			c7.826-1.327,13.417-7.7,16.842-12.773c0.888-1.315-0.284-3.052-1.963-5.316C243.409,21.146,231.85,13.513,226.211,12.444"/>
		<path fill-rule="evenodd" fill="#C5C7C9" d="M226.171,12.534c-7.138-4.583-9.944,5.087-13.838,12.976
			c-0.689,1.397-0.4,3.451,0.277,5.696c1.497,4.958,5.115,10.425,8.154,12.252c4.216,2.534,8.644,3.116,12.745,2.413
			c7.799-1.337,13.356-7.705,16.779-12.74c0.886-1.302-0.296-3.029-1.99-5.283C243.31,21.208,231.742,13.611,226.171,12.534"/>
		<path fill-rule="evenodd" fill="#C6C8CA" d="M226.132,12.624c-7.104-4.617-9.855,5.067-13.753,12.936
			c-0.688,1.388-0.394,3.434,0.29,5.674c1.507,4.937,5.128,10.39,8.148,12.196c4.213,2.519,8.625,3.087,12.705,2.379
			c7.772-1.349,13.298-7.709,16.718-12.708c0.883-1.29-0.309-3.004-2.019-5.249C243.209,21.27,231.634,13.709,226.132,12.624"/>
		<path fill-rule="evenodd" fill="#C7C9CB" d="M226.092,12.714c-7.068-4.65-9.769,5.047-13.667,12.896
			c-0.685,1.378-0.386,3.418,0.303,5.652c1.516,4.916,5.142,10.354,8.143,12.139c4.21,2.504,8.605,3.058,12.665,2.345
			c7.746-1.359,13.239-7.712,16.656-12.675c0.879-1.277-0.321-2.98-2.046-5.215C243.11,21.331,231.527,13.807,226.092,12.714"/>
		<path fill-rule="evenodd" fill="#C8CACC" d="M226.052,12.804c-7.034-4.682-9.679,5.029-13.581,12.856
			c-0.683,1.369-0.379,3.402,0.315,5.63c1.525,4.894,5.155,10.318,8.137,12.083c4.206,2.489,8.587,3.028,12.625,2.312
			c7.72-1.37,13.18-7.718,16.595-12.643c0.877-1.264-0.333-2.956-2.074-5.182C243.009,21.393,231.418,13.905,226.052,12.804"/>
		<path fill-rule="evenodd" fill="#C9CBCC" d="M226.012,12.895c-6.999-4.715-9.589,5.01-13.495,12.816
			c-0.681,1.359-0.372,3.387,0.328,5.609c1.534,4.873,5.169,10.282,8.131,12.025c4.204,2.474,8.568,2.999,12.586,2.278
			c7.692-1.381,13.121-7.721,16.533-12.61c0.873-1.251-0.347-2.933-2.103-5.148C242.911,21.454,231.311,14.002,226.012,12.895"/>
		<path fill-rule="evenodd" fill="#CACBCD" d="M225.972,12.985c-6.965-4.749-9.498,4.992-13.409,12.776
			c-0.678,1.35-0.365,3.37,0.34,5.586c1.543,4.851,5.183,10.246,8.126,11.969c4.201,2.459,8.55,2.97,12.546,2.245
			c7.666-1.392,13.062-7.726,16.472-12.578c0.871-1.239-0.358-2.909-2.131-5.114C242.81,21.516,231.204,14.101,225.972,12.985"/>
		<path fill-rule="evenodd" fill="#CBCCCE" d="M225.933,13.075c-6.931-4.781-9.406,4.975-13.323,12.737
			c-0.677,1.34-0.358,3.354,0.352,5.565c1.552,4.83,5.196,10.21,8.12,11.912c4.198,2.444,8.53,2.94,12.506,2.211
			c7.64-1.402,13.003-7.73,16.41-12.546c0.867-1.226-0.37-2.886-2.158-5.081C242.711,21.577,231.095,14.198,225.933,13.075"/>
		<path fill-rule="evenodd" fill="#CBCDCF" d="M225.893,13.165c-6.896-4.814-9.319,4.955-13.237,12.697
			c-0.674,1.331-0.352,3.338,0.364,5.543c1.562,4.808,5.21,10.174,8.114,11.855c4.195,2.429,8.512,2.912,12.467,2.177
			c7.612-1.414,12.941-7.735,16.348-12.513c0.865-1.213-0.382-2.862-2.186-5.047C242.612,21.637,230.988,14.296,225.893,13.165"/>
		<path fill-rule="evenodd" fill="#CCCED0" d="M225.853,13.255c-6.861-4.848-9.229,4.937-13.151,12.657
			c-0.671,1.321-0.345,3.323,0.377,5.521c1.571,4.787,5.224,10.138,8.108,11.799c4.192,2.414,8.493,2.882,12.427,2.144
			c7.587-1.424,12.884-7.74,16.286-12.481c0.862-1.201-0.395-2.838-2.214-5.013C242.513,21.698,230.88,14.394,225.853,13.255"/>
		<path fill-rule="evenodd" fill="#CDCFD0" d="M225.813,13.345c-6.826-4.88-9.139,4.918-13.065,12.617
			c-0.669,1.312-0.338,3.307,0.39,5.5c1.581,4.765,5.237,10.102,8.104,11.742c4.189,2.398,8.474,2.853,12.386,2.11
			c7.561-1.436,12.824-7.744,16.225-12.448c0.858-1.188-0.406-2.815-2.241-4.979C242.416,21.758,230.773,14.492,225.813,13.345"/>
		<path fill-rule="evenodd" fill="#CECFD1" d="M225.774,13.436c-6.793-4.914-9.05,4.9-12.98,12.577
			c-0.667,1.302-0.331,3.291,0.401,5.478c1.589,4.744,5.252,10.065,8.099,11.685c4.187,2.383,8.454,2.824,12.346,2.077
			c7.534-1.446,12.766-7.748,16.164-12.416c0.855-1.175-0.419-2.792-2.271-4.946C242.315,21.819,230.665,14.59,225.774,13.436"/>
		<path fill-rule="evenodd" fill="#CFD0D2" d="M225.734,13.526c-6.758-4.946-8.96,4.881-12.895,12.537
			c-0.665,1.293-0.324,3.275,0.414,5.456c1.599,4.722,5.266,10.029,8.093,11.629c4.184,2.367,8.436,2.794,12.307,2.042
			c7.507-1.457,12.707-7.751,16.102-12.383c0.853-1.163-0.431-2.769-2.298-4.913C242.216,21.878,230.557,14.688,225.734,13.526"/>
		<path fill-rule="evenodd" fill="#D0D1D3" d="M225.694,13.616c-6.723-4.979-8.869,4.863-12.808,12.498
			c-0.662,1.284-0.318,3.259,0.426,5.435c1.607,4.701,5.279,9.993,8.087,11.572c4.182,2.352,8.417,2.765,12.267,2.009
			c7.48-1.468,12.646-7.757,16.04-12.351c0.85-1.151-0.442-2.746-2.326-4.879C242.117,21.939,230.45,14.786,225.694,13.616"/>
		<path fill-rule="evenodd" fill="#D0D2D3" d="M225.654,13.706c-6.688-5.012-8.779,4.845-12.722,12.458
			c-0.66,1.274-0.312,3.243,0.438,5.413c1.617,4.68,5.293,9.957,8.081,11.516c4.179,2.336,8.398,2.735,12.227,1.975
			c7.454-1.479,12.587-7.761,15.979-12.318c0.847-1.138-0.454-2.723-2.354-4.845C242.02,21.999,230.341,14.884,225.654,13.706"/>
		<path fill-rule="evenodd" fill="#D1D3D4" d="M225.614,13.796c-6.653-5.045-8.688,4.827-12.636,12.418
			c-0.657,1.264-0.304,3.227,0.451,5.391c1.625,4.658,5.307,9.92,8.075,11.458c4.177,2.32,8.379,2.706,12.188,1.942
			c7.426-1.49,12.527-7.766,15.916-12.286c0.844-1.125-0.466-2.699-2.382-4.811C241.919,22.059,230.234,14.982,225.614,13.796"/>
		<path fill-rule="evenodd" fill="#D2D3D5" d="M225.575,13.886c-6.62-5.078-8.599,4.809-12.551,12.378
			c-0.655,1.255-0.298,3.211,0.463,5.369c1.635,4.637,5.321,9.884,8.07,11.401c4.174,2.305,8.36,2.677,12.147,1.909
			c7.399-1.501,12.467-7.771,15.854-12.253c0.841-1.113-0.478-2.676-2.409-4.777C241.822,22.118,230.126,15.08,225.575,13.886"/>
		<path fill-rule="evenodd" fill="#D3D4D6" d="M225.535,13.977c-6.585-5.111-8.508,4.791-12.465,12.338
			c-0.653,1.246-0.291,3.195,0.476,5.347c1.644,4.616,5.335,9.847,8.064,11.345c4.171,2.29,8.342,2.647,12.107,1.875
			c7.373-1.512,12.409-7.774,15.794-12.221c0.837-1.1-0.489-2.654-2.438-4.744C241.723,22.177,230.018,15.178,225.535,13.977"/>
		<path fill-rule="evenodd" fill="#D4D5D7" d="M225.495,14.067c-6.55-5.145-8.417,4.772-12.378,12.298
			c-0.65,1.236-0.285,3.18,0.487,5.326c1.653,4.594,5.35,9.811,8.059,11.288c4.169,2.273,8.322,2.618,12.067,1.841
			c7.347-1.523,12.35-7.78,15.732-12.188c0.835-1.087-0.502-2.631-2.466-4.71C241.625,22.236,229.911,15.275,225.495,14.067"/>
		<path fill-rule="evenodd" fill="#D4D6D7" d="M225.455,14.157c-6.516-5.177-8.327,4.754-12.292,12.259
			c-0.648,1.227-0.278,3.163,0.5,5.304c1.662,4.573,5.362,9.774,8.053,11.232c4.167,2.257,8.304,2.588,12.028,1.807
			c7.319-1.534,12.289-7.784,15.67-12.156c0.831-1.075-0.513-2.608-2.493-4.676C241.527,22.294,229.803,15.374,225.455,14.157"/>
		<path fill-rule="evenodd" fill="#D5D7D8" d="M225.416,14.247c-6.481-5.21-8.237,4.736-12.207,12.219
			c-0.646,1.218-0.271,3.148,0.512,5.282c1.67,4.551,5.378,9.737,8.048,11.175c4.164,2.241,8.285,2.559,11.988,1.774
			c7.293-1.546,12.228-7.79,15.608-12.124c0.829-1.063-0.524-2.586-2.521-4.643C241.428,22.353,229.695,15.471,225.416,14.247"/>
		<path fill-rule="evenodd" fill="#D6D7D9" d="M225.375,14.337c-6.447-5.243-8.146,4.717-12.121,12.179
			c-0.644,1.208-0.265,3.132,0.524,5.26c1.68,4.53,5.392,9.701,8.042,11.118c4.162,2.225,8.267,2.529,11.948,1.74
			c7.267-1.558,12.169-7.794,15.547-12.091c0.825-1.05-0.536-2.563-2.549-4.609C241.332,22.411,229.587,15.569,225.375,14.337"/>
		<path fill-rule="evenodd" fill="#D7D8DA" d="M225.335,14.427c-6.412-5.276-8.056,4.7-12.035,12.139
			c-0.642,1.199-0.258,3.116,0.537,5.239c1.688,4.509,5.405,9.665,8.036,11.062c4.16,2.209,8.247,2.5,11.908,1.707
			c7.24-1.569,12.109-7.799,15.485-12.059c0.822-1.037-0.547-2.541-2.577-4.575C241.233,22.469,229.48,15.667,225.335,14.427"/>
		<path fill-rule="evenodd" fill="#D8D9DB" d="M225.295,14.518c-6.378-5.309-7.968,4.681-11.949,12.099
			c-0.639,1.189-0.251,3.101,0.55,5.217c1.697,4.487,5.419,9.627,8.03,11.005c4.158,2.193,8.229,2.47,11.869,1.673
			c7.213-1.58,12.049-7.803,15.424-12.026c0.819-1.025-0.56-2.519-2.605-4.542C241.135,22.526,229.372,15.765,225.295,14.518"/>
		<path fill-rule="evenodd" fill="#D9DADB" d="M225.256,14.608c-6.344-5.342-7.874,4.664-11.863,12.059
			c-0.637,1.18-0.244,3.084,0.562,5.195c1.706,4.466,5.433,9.591,8.024,10.948c4.155,2.176,8.21,2.44,11.829,1.639
			c7.187-1.591,11.99-7.809,15.362-11.994c0.815-1.012-0.57-2.497-2.633-4.508C241.037,22.584,229.264,15.863,225.256,14.608"/>
		<path fill-rule="evenodd" fill="#D9DBDC" d="M225.216,14.698c-6.309-5.375-7.783,4.646-11.777,12.02
			c-0.634,1.17-0.238,3.068,0.573,5.173c1.715,4.445,5.448,9.554,8.02,10.892c4.153,2.16,8.191,2.411,11.789,1.605
			c7.16-1.603,11.929-7.814,15.301-11.961c0.813-1-0.582-2.475-2.661-4.474C240.939,22.642,229.157,15.961,225.216,14.698"/>
		<path fill-rule="evenodd" fill="#DADCDD" d="M225.176,14.788c-6.274-5.408-7.691,4.629-11.691,11.98
			c-0.632,1.161-0.231,3.053,0.586,5.151c1.723,4.424,5.462,9.517,8.014,10.834c4.151,2.144,8.172,2.382,11.75,1.572
			c7.133-1.614,11.868-7.819,15.238-11.929c0.81-0.987-0.593-2.453-2.688-4.44C240.841,22.699,229.049,16.059,225.176,14.788"/>
		<path fill-rule="evenodd" fill="#DBDCDE" d="M225.136,14.878c-6.239-5.441-7.601,4.61-11.605,11.94
			c-0.629,1.152-0.225,3.037,0.599,5.129c1.732,4.403,5.476,9.48,8.008,10.778c4.149,2.126,8.153,2.352,11.71,1.539
			c7.106-1.625,11.809-7.825,15.177-11.896c0.807-0.975-0.604-2.431-2.717-4.407C240.743,22.756,228.941,16.157,225.136,14.878"/>
		<path fill-rule="evenodd" fill="#DCDDDE" d="M225.096,14.969c-6.205-5.474-7.513,4.591-11.52,11.9
			c-0.626,1.143-0.218,3.021,0.611,5.108c1.741,4.382,5.49,9.443,8.002,10.721c4.147,2.11,8.135,2.322,11.67,1.505
			c7.08-1.637,11.748-7.83,15.115-11.863c0.804-0.963-0.615-2.409-2.744-4.374C240.645,22.813,228.833,16.255,225.096,14.969"/>
		<path fill-rule="evenodd" fill="#DDDEDF" d="M225.057,15.059c-6.171-5.507-7.421,4.573-11.435,11.86
			c-0.624,1.133-0.211,3.005,0.624,5.086c1.75,4.36,5.504,9.406,7.996,10.665c4.146,2.093,8.116,2.293,11.63,1.472
			c7.053-1.649,11.689-7.833,15.055-11.831c0.8-0.95-0.628-2.387-2.773-4.34C240.547,22.869,228.726,16.353,225.057,15.059"/>
		<path fill-rule="evenodd" fill="#DEDFE0" d="M225.017,15.149c-6.136-5.54-7.328,4.557-11.348,11.82
			c-0.622,1.124-0.206,2.99,0.635,5.064c1.758,4.34,5.52,9.369,7.991,10.608c4.144,2.076,8.097,2.263,11.591,1.438
			c7.025-1.66,11.628-7.84,14.992-11.798c0.797-0.938-0.638-2.366-2.801-4.306C240.45,22.925,228.618,16.451,225.017,15.149"/>
		<path fill-rule="evenodd" fill="#DEE0E1" d="M224.977,15.239c-6.102-5.573-7.236,4.54-11.262,11.78
			c-0.619,1.115-0.199,2.974,0.647,5.042c1.768,4.318,5.532,9.332,7.985,10.551c4.143,2.059,8.078,2.234,11.551,1.404
			c6.999-1.671,11.568-7.845,14.931-11.766c0.793-0.925-0.649-2.344-2.829-4.272C240.351,22.981,228.51,16.548,224.977,15.239"/>
		<path fill-rule="evenodd" fill="#DFE0E2" d="M224.937,15.329c-6.066-5.606-7.145,4.522-11.176,11.741
			c-0.617,1.105-0.192,2.958,0.66,5.021c1.775,4.297,5.547,9.294,7.98,10.495c4.14,2.041,8.059,2.204,11.51,1.37
			c6.973-1.684,11.507-7.851,14.869-11.733c0.791-0.913-0.661-2.323-2.856-4.239C240.254,23.037,228.403,16.646,224.937,15.329"/>
		<path fill-rule="evenodd" fill="#E0E1E2" d="M224.898,15.419c-6.033-5.639-7.057,4.503-11.091,11.701
			c-0.614,1.096-0.186,2.942,0.673,4.999c1.784,4.276,5.562,9.257,7.975,10.438c4.138,2.024,8.039,2.174,11.471,1.337
			c6.945-1.695,11.445-7.857,14.807-11.701c0.787-0.9-0.671-2.302-2.884-4.205C240.157,23.092,228.294,16.744,224.898,15.419"/>
		<path fill-rule="evenodd" fill="#E1E2E3" d="M224.858,15.51c-5.998-5.672-6.965,4.486-11.005,11.661
			c-0.611,1.086-0.179,2.927,0.686,4.977c1.792,4.254,5.575,9.22,7.969,10.381c4.136,2.006,8.02,2.145,11.431,1.303
			c6.919-1.707,11.386-7.862,14.746-11.668c0.783-0.888-0.684-2.281-2.913-4.171C240.058,23.147,228.187,16.842,224.858,15.51"/>
		<path fill-rule="evenodd" fill="#E2E3E4" d="M224.818,15.6c-5.963-5.705-6.87,4.47-10.918,11.622
			c-0.609,1.077-0.174,2.911,0.696,4.955c1.802,4.234,5.59,9.183,7.964,10.325c4.134,1.989,8.001,2.115,11.391,1.27
			c6.893-1.719,11.325-7.868,14.685-11.636c0.78-0.875-0.694-2.26-2.94-4.138C239.96,23.203,228.08,16.94,224.818,15.6"/>
		<path fill-rule="evenodd" fill="#E3E4E5" d="M224.778,15.69c-5.929-5.738-6.778,4.453-10.832,11.582
			c-0.607,1.068-0.166,2.896,0.709,4.934c1.81,4.213,5.604,9.145,7.958,10.268c4.133,1.971,7.982,2.085,11.351,1.236
			c6.864-1.73,11.265-7.874,14.623-11.604c0.776-0.863-0.705-2.239-2.969-4.104C239.862,23.257,227.971,17.038,224.778,15.69"/>
		<path fill-rule="evenodd" fill="#E3E4E5" d="M224.738,15.78c-5.894-5.771-6.687,4.435-10.746,11.542
			c-0.604,1.059-0.16,2.879,0.722,4.912c1.818,4.192,5.618,9.108,7.952,10.211c4.131,1.953,7.964,2.055,11.312,1.202
			c6.837-1.742,11.202-7.88,14.561-11.571c0.773-0.851-0.716-2.218-2.996-4.07C239.765,23.312,227.864,17.136,224.738,15.78"/>
		<path fill-rule="evenodd" fill="#E4E5E6" d="M224.699,15.87c-5.86-5.804-6.598,4.417-10.661,11.502
			c-0.602,1.049-0.153,2.864,0.734,4.89c1.827,4.171,5.633,9.07,7.946,10.154c4.129,1.935,7.944,2.025,11.271,1.169
			c6.811-1.753,11.143-7.886,14.499-11.539c0.771-0.838-0.728-2.197-3.024-4.037C239.667,23.367,227.756,17.234,224.699,15.87"/>
		<path fill-rule="evenodd" fill="#E5E6E7" d="M224.659,15.96c-5.825-5.837-6.506,4.399-10.575,11.462
			c-0.6,1.04-0.146,2.848,0.747,4.868c1.836,4.15,5.646,9.033,7.94,10.098c4.129,1.917,7.926,1.996,11.231,1.135
			c6.784-1.766,11.08-7.893,14.438-11.506c0.768-0.826-0.737-2.176-3.052-4.003C239.568,23.421,227.648,17.332,224.659,15.96"/>
		<path fill-rule="evenodd" fill="#E6E7E8" d="M224.619,16.051c-5.79-5.87-6.413,4.382-10.489,11.422
			c-0.597,1.03-0.141,2.833,0.759,4.847c1.843,4.129,5.662,8.995,7.936,10.041c4.127,1.898,7.907,1.966,11.192,1.102
			c6.756-1.778,11.021-7.897,14.376-11.474c0.764-0.813-0.75-2.156-3.081-3.969C239.469,23.475,227.541,17.43,224.619,16.051"/>
		<path fill-rule="evenodd" fill="#E7E8E9" d="M224.579,16.141c-5.756-5.902-6.318,4.367-10.402,11.382
			c-0.595,1.021-0.135,2.817,0.771,4.825c1.853,4.108,5.676,8.958,7.93,9.984c4.125,1.88,7.888,1.937,11.152,1.068
			c6.729-1.79,10.96-7.903,14.314-11.441c0.76-0.801-0.76-2.135-3.108-3.936C239.373,23.529,227.433,17.528,224.579,16.141"/>
		<path fill-rule="evenodd" fill="#E8E8E9" d="M224.54,16.231c-5.722-5.936-6.227,4.35-10.317,11.342
			c-0.592,1.012-0.128,2.801,0.783,4.803c1.861,4.087,5.69,8.92,7.924,9.928c4.124,1.861,7.868,1.906,11.112,1.034
			c6.703-1.802,10.897-7.911,14.253-11.409c0.757-0.789-0.771-2.116-3.136-3.902C239.274,23.582,227.326,17.625,224.54,16.231"/>
		<path fill-rule="evenodd" fill="#E9E9EA" d="M224.5,16.321c-5.688-5.969-6.133,4.333-10.231,11.303
			c-0.59,1.003-0.121,2.785,0.796,4.781c1.869,4.066,5.705,8.882,7.918,9.871c4.122,1.842,7.85,1.876,11.072,1
			c6.676-1.814,10.838-7.916,14.191-11.376c0.754-0.777-0.781-2.095-3.164-3.869C239.175,23.635,227.217,17.724,224.5,16.321"/>
		<path fill-rule="evenodd" fill="#E9EAEB" d="M224.459,16.411c-5.652-6.001-6.044,4.315-10.146,11.263
			c-0.587,0.994-0.115,2.77,0.809,4.759c1.878,4.045,5.719,8.844,7.912,9.814c4.122,1.823,7.831,1.847,11.033,0.967
			c6.648-1.826,10.775-7.923,14.129-11.344c0.751-0.765-0.793-2.076-3.191-3.835C239.078,23.688,227.11,17.821,224.459,16.411"/>
		<path fill-rule="evenodd" fill="#EAEBEC" d="M224.419,16.501c-5.617-6.035-5.951,4.298-10.06,11.223
			c-0.584,0.984-0.108,2.754,0.82,4.737c1.886,4.025,5.733,8.806,7.907,9.758c4.12,1.804,7.812,1.817,10.993,0.933
			c6.622-1.839,10.714-7.93,14.067-11.311c0.747-0.753-0.804-2.055-3.22-3.801C238.979,23.741,227.002,17.919,224.419,16.501"/>
		<path fill-rule="evenodd" fill="#EBECEC" d="M224.379,16.592c-5.583-6.068-5.858,4.281-9.974,11.183
			c-0.581,0.975-0.103,2.739,0.833,4.716c1.895,4.004,5.748,8.768,7.901,9.701c4.119,1.784,7.793,1.787,10.953,0.9
			c6.595-1.851,10.653-7.936,14.007-11.279c0.743-0.741-0.815-2.036-3.248-3.768C238.88,23.793,226.894,18.017,224.379,16.592"/>
		<path fill-rule="evenodd" fill="#ECEDED" d="M224.34,16.682c-5.549-6.101-5.764,4.267-9.888,11.144
			c-0.579,0.966-0.097,2.723,0.845,4.694c1.902,3.983,5.763,8.73,7.896,9.645c4.118,1.765,7.773,1.757,10.914,0.866
			c6.567-1.863,10.591-7.943,13.944-11.247c0.739-0.729-0.827-2.016-3.276-3.734C238.782,23.846,226.787,18.115,224.34,16.682"/>
		<path fill-rule="evenodd" fill="#EDEDEE" d="M224.3,16.772c-5.515-6.133-5.671,4.25-9.802,11.104
			c-0.577,0.957-0.09,2.708,0.857,4.672c1.911,3.962,5.776,8.692,7.89,9.587c4.117,1.745,7.755,1.727,10.874,0.833
			c6.54-1.875,10.53-7.95,13.883-11.214c0.736-0.716-0.837-1.996-3.304-3.7C238.682,23.898,226.679,18.213,224.3,16.772"/>
		<path fill-rule="evenodd" fill="#EEEEEF" d="M224.26,16.862c-5.479-6.167-5.579,4.232-9.716,11.063
			c-0.573,0.947-0.083,2.692,0.87,4.65c1.919,3.941,5.791,8.654,7.884,9.531c4.116,1.725,7.735,1.697,10.834,0.799
			c6.514-1.888,10.467-7.958,13.821-11.182c0.733-0.705-0.849-1.977-3.332-3.666C238.583,23.951,226.571,18.311,224.26,16.862"/>
		<path fill-rule="evenodd" fill="#EEEFF0" d="M224.22,16.952c-5.444-6.199-5.487,4.216-9.63,11.024
			c-0.571,0.938-0.077,2.677,0.882,4.629c1.927,3.921,5.806,8.615,7.879,9.474c4.115,1.705,7.717,1.667,10.794,0.765
			c6.486-1.9,10.406-7.965,13.76-11.149c0.729-0.692-0.858-1.957-3.359-3.632C238.485,24.002,226.463,18.409,224.22,16.952"/>
		<path fill-rule="evenodd" fill="#EFF0F0" d="M224.181,17.042c-5.411-6.232-5.395,4.199-9.545,10.984
			c-0.568,0.929-0.07,2.661,0.895,4.607c1.935,3.9,5.82,8.577,7.873,9.417c4.114,1.684,7.697,1.637,10.755,0.732
			c6.459-1.913,10.343-7.974,13.697-11.117c0.727-0.681-0.87-1.938-3.387-3.599C238.386,24.053,226.356,18.507,224.181,17.042"/>
		<path fill-rule="evenodd" fill="#F0F1F1" d="M224.141,17.133c-5.376-6.266-5.298,4.185-9.458,10.944
			c-0.566,0.92-0.065,2.646,0.906,4.585c1.943,3.879,5.834,8.539,7.867,9.361c4.114,1.663,7.679,1.607,10.715,0.698
			c6.432-1.926,10.282-7.979,13.637-11.084c0.722-0.668-0.882-1.918-3.416-3.565C238.287,24.105,226.248,18.604,224.141,17.133"/>
		<path fill-rule="evenodd" fill="#F1F1F2" d="M224.101,17.223c-5.342-6.298-5.204,4.169-9.372,10.905
			c-0.563,0.911-0.059,2.63,0.919,4.563c1.952,3.859,5.849,8.5,7.861,9.304c4.112,1.643,7.659,1.577,10.675,0.665
			c6.405-1.938,10.22-7.988,13.575-11.052c0.719-0.657-0.893-1.899-3.443-3.531C238.188,24.156,226.14,18.703,224.101,17.223"/>
		<path fill-rule="evenodd" fill="#F2F2F3" d="M224.061,17.313c-5.307-6.332-5.112,4.151-9.286,10.865
			c-0.561,0.901-0.054,2.614,0.931,4.542c1.96,3.839,5.864,8.461,7.856,9.247c4.111,1.621,7.641,1.547,10.636,0.631
			c6.377-1.95,10.157-7.996,13.513-11.019c0.716-0.645-0.903-1.88-3.472-3.498C238.088,24.208,226.033,18.801,224.061,17.313"/>
		<path fill-rule="evenodd" fill="#F3F3F3" d="M224.022,17.403c-5.273-6.365-5.02,4.135-9.201,10.825
			c-0.558,0.893-0.046,2.599,0.943,4.52c1.968,3.818,5.878,8.423,7.852,9.191c4.11,1.6,7.62,1.517,10.595,0.597
			c6.35-1.963,10.096-8.003,13.451-10.987c0.712-0.633-0.914-1.861-3.499-3.464C237.989,24.257,225.924,18.898,224.022,17.403"/>
		<path fill-rule="evenodd" fill="#F3F4F4" d="M223.982,17.493c-5.238-6.397-4.926,4.121-9.115,10.785
			c-0.555,0.883-0.04,2.584,0.956,4.498c1.977,3.798,5.892,8.384,7.846,9.134c4.109,1.577,7.602,1.487,10.555,0.564
			c6.322-1.976,10.033-8.013,13.39-10.955c0.709-0.621-0.926-1.842-3.527-3.43C237.889,24.308,225.817,18.997,223.982,17.493"/>
		<path fill-rule="evenodd" fill="#F4F5F5" d="M223.942,17.583c-5.203-6.43-4.832,4.104-9.029,10.745
			c-0.553,0.874-0.033,2.568,0.969,4.476c1.984,3.777,5.906,8.345,7.84,9.077c4.11,1.556,7.582,1.457,10.515,0.53
			c6.295-1.989,9.971-8.021,13.328-10.922c0.705-0.609-0.937-1.824-3.555-3.396C237.79,24.358,225.709,19.094,223.942,17.583"/>
		<path fill-rule="evenodd" fill="#F5F6F6" d="M223.902,17.674c-5.169-6.463-4.734,4.091-8.942,10.705
			c-0.551,0.865-0.028,2.553,0.98,4.455c1.992,3.756,5.921,8.307,7.834,9.021c4.109,1.533,7.563,1.427,10.476,0.497
			c6.267-2.001,9.908-8.03,13.267-10.89c0.701-0.597-0.948-1.805-3.583-3.363C237.69,24.407,225.602,19.192,223.902,17.674"/>
		<path fill-rule="evenodd" fill="#F6F6F7" d="M223.862,17.764c-5.134-6.496-4.644,4.074-8.856,10.666
			c-0.547,0.856-0.021,2.538,0.992,4.433c2,3.737,5.936,8.268,7.829,8.964c4.108,1.511,7.544,1.396,10.436,0.463
			c6.239-2.015,9.847-8.037,13.205-10.856c0.697-0.585-0.959-1.787-3.611-3.33C237.589,24.458,225.494,19.29,223.862,17.764"/>
		<path fill-rule="evenodd" fill="#F7F7F8" d="M223.823,17.854c-5.101-6.529-4.55,4.058-8.771,10.625
			c-0.545,0.847-0.016,2.522,1.005,4.411c2.008,3.716,5.949,8.229,7.823,8.907c4.108,1.488,7.525,1.366,10.396,0.429
			c6.213-2.027,9.785-8.046,13.144-10.824c0.693-0.574-0.971-1.769-3.639-3.296C237.489,24.507,225.386,19.388,223.823,17.854"/>
		<path fill-rule="evenodd" fill="#F8F8F9" d="M223.783,17.944c-5.065-6.563-4.455,4.043-8.686,10.585
			c-0.542,0.838-0.009,2.507,1.018,4.389c2.016,3.696,5.964,8.19,7.817,8.851c4.107,1.464,7.505,1.336,10.356,0.396
			c6.185-2.04,9.721-8.056,13.081-10.792c0.69-0.563-0.981-1.75-3.667-3.262C237.389,24.557,225.279,19.486,223.783,17.944"/>
		<path fill-rule="evenodd" fill="#F9F9FA" d="M223.743,18.034c-5.03-6.595-4.359,4.028-8.6,10.546
			c-0.539,0.829-0.003,2.491,1.03,4.367c2.024,3.675,5.978,8.15,7.812,8.793c4.106,1.441,7.484,1.301,10.316,0.362
			c6.153-2.065,9.658-8.066,13.02-10.759c0.688-0.551-0.992-1.732-3.694-3.229C237.289,24.606,225.17,19.584,223.743,18.034"/>
		<path fill-rule="evenodd" fill="#FAFBFB" d="M223.703,18.125c-4.996-6.628-4.265,4.014-8.514,10.506
			c-0.536,0.819,0,2.478,1.043,4.345c2.025,3.659,5.992,8.112,7.806,8.737c4.107,1.417,7.466,1.272,10.276,0.328
			c6.127-2.075,9.595-8.076,12.958-10.727c0.685-0.539-1.003-1.714-3.723-3.195C237.187,24.655,225.063,19.682,223.703,18.125"/>
		<path fill-rule="evenodd" fill="#FCFCFC" d="M223.664,18.215c-4.962-6.661-4.171,3.999-8.428,10.466
			c-0.533,0.811,0.006,2.462,1.054,4.324c2.036,3.637,6.007,8.072,7.801,8.68c4.106,1.392,7.447,1.243,10.236,0.295
			c6.101-2.085,9.529-8.09,12.897-10.694c0.679-0.528-1.016-1.696-3.751-3.161C237.086,24.704,224.956,19.78,223.664,18.215"/>
		<path fill-rule="evenodd" fill="#FDFDFD" d="M223.624,18.305c-4.928-6.694-4.063,3.992-8.342,10.427
			c-0.529,0.802,0.014,2.446,1.066,4.302c2.046,3.616,6.021,8.033,7.795,8.624c4.106,1.368,7.428,1.214,10.197,0.261
			c6.073-2.095,9.471-8.094,12.835-10.662c0.677-0.516-1.026-1.678-3.779-3.127C236.986,24.753,224.847,19.877,223.624,18.305"/>
		<path fill-rule="evenodd" fill="#FFFFFF" d="M223.583,18.395c-4.893-6.727-3.974,3.974-8.256,10.387
			c-1.553,2.334,6.211,11.976,8.868,12.847c13.144,4.285,18.042-6.721,22.931-10.402C249.366,29.554,225.237,20.655,223.583,18.395"
			/>
	</g>
	<path fill="#737373" d="M254.082,42.686l-2.666-1.537c0.213-1.633,0.426-2.874,0.426-4.373c0-1.415-0.191-3.046-0.734-5.469
		c1.217-1.476,3.805-6.23,4.157-8.283c1.368,0.104,2.632,0.324,3.403,0.665l0.031-0.07c-0.027-0.199-0.049-0.398-0.08-0.595
		c-0.896-0.331-2.096-0.524-3.395-0.62c-1.465-4.504-3.775-8.473-7.279-11.654c0.4-1.588,0.668-3.177,0.773-4.757
		c-0.064-0.052-0.131-0.103-0.196-0.154l-0.403-0.025c-0.096,1.565-0.36,3.15-0.759,4.737l-6.945,0.137
		c-2.28-3.328-6.563-5.746-11.958-7.215c0.346-1.018,0.821-1.969,1.396-2.899l-0.221-0.137V0.104h-0.04h-0.173l-0.088,0.146
		c-0.631,1.019-1.154,2.074-1.52,3.218c-1.273,0.641-7.459,4.255-10.559,8.755l-3.576-0.35c0.064-0.863,0.102-1.559,0.102-2.159
		c0-0.708-0.056-1.282-0.195-1.823l-0.594,0.153c0.123,0.477,0.174,0.994,0.174,1.67c0,0.608-0.042,1.344-0.111,2.279
		c-2.773,2.242-4.955,5.48-6.48,9.503l-1.209,0.836l0.349,0.506l0.837-0.579c0.228,2.472,1.535,6.581,2.882,8.091
		c-0.341,1.173-0.45,3.134-0.452,5.187c0,2.801,0.215,5.705,0.436,6.801l0.011,0.06l0.032,0.045l-0.001,0
		c1.644,2.51,6.264,3.852,10.882,5.343l3.782,4.897l0.335,0.656l0.547-0.278l-0.125-0.245l13.313-0.176l0.528,0.847l0.521-0.325
		l-0.543-0.871l2.631-4.404l0.005,0.016c2.772-0.748,8.482-4.698,9.835-6.191l2.574,1.483c0.121-0.167,0.24-0.334,0.357-0.503
		C254.093,42.691,254.087,42.688,254.082,42.686z M240.255,11.314c0.004,0,0.008,0,0.012,0c0.012,0.001,0.023,0,0.037-0.002
		c0.017-0.002,0.031-0.005,0.045-0.01l7.139-0.139c3.475,3.142,5.753,7.07,7.197,11.573c-0.073,1.505-2.921,6.884-4.057,8.192
		c-0.149,0.009-0.373,0.014-0.649,0.014c-1.829,0.002-6.089-0.244-9.659-1.14l-5.115-8.061c0.467-1.472,1.395-3.972,2.397-6.167
		C238.54,13.449,239.694,11.58,240.255,11.314z M239.81,30.147c-0.19,1.02-3.802,8.083-5.672,9.987l-9.572,0.501
		c-1.211-0.951-5.105-6.004-6.556-10.77l4.172-8.328c1.978-0.223,3.729-0.309,5.253-0.309c4.301,0,6.732,0.676,7.238,0.825
		L239.81,30.147z M228.093,4.011c5.32,1.412,9.498,3.758,11.703,6.863l0.011,0.015c-0.919,0.643-1.81,2.407-2.765,4.43
		c-0.982,2.154-1.888,4.574-2.378,6.09c-0.818-0.228-3.262-0.794-7.229-0.794c-1.521,0-3.262,0.085-5.223,0.302
		c-0.788-2.841-3.466-7.201-4.424-8.392C220.768,8.203,226.962,4.568,228.093,4.011z M207.13,21.752
		c1.5-3.968,3.633-7.123,6.314-9.286l3.814,0.374c0.772,0.898,3.725,5.671,4.398,8.374l-4.181,8.345
		c-2.796,0.443-4.733,0.164-7.583,0.395C208.66,28.649,207.158,23.923,207.13,21.752z M220.164,47.091
		c-4.418-1.398-8.717-2.807-10.12-4.869c-0.005-0.01-0.012-0.02-0.019-0.029c0,0-0.006-0.011-0.021-0.036
		c-0.201-1.048-0.413-3.914-0.411-6.62c-0.005-1.994,0.12-3.936,0.417-4.977c2.707-0.216,4.65,0.048,7.458-0.379
		c1.503,4.714,5.05,9.446,6.556,10.795C221.38,43.457,220.365,45.961,220.164,47.091z M238.137,52.028l-13.61,0.179l-3.779-4.894
		c0.094-0.808,1.063-3.524,3.884-6.067l9.554-0.501c2.627,1.765,4.981,4.139,6.571,6.901L238.137,52.028z M240.802,47.57
		l-0.004,0.01c0.006-0.028,0.02-0.062,0.045-0.097C240.826,47.51,240.812,47.539,240.802,47.57z M250.789,41.222
		c-0.857,1.12-6.913,5.368-9.529,6.069c-1.6-2.761-3.924-5.124-6.521-6.912c1.952-2.223,5.067-8.139,5.611-9.934
		c3.615,0.877,7.782,1.112,9.629,1.112c0.218,0,0.4-0.003,0.55-0.009c0.52,2.337,0.697,3.89,0.697,5.228
		C251.226,38.247,251.013,39.478,250.789,41.222z"/>
	<path fill="#FFFFFF" d="M212.871,11.695c-2.782,2.231-4.975,5.473-6.502,9.522l-1.249,0.865l0.17,0.25V22.33l1.061-0.732
		c0.142,2.418,1.56,6.91,2.924,8.336c-0.353,1.121-0.471,3.13-0.473,5.227c0,2.789,0.217,5.699,0.434,6.77
		c0.01,0.018,0.019,0.034,0.026,0.048l-0.006,0.005c1.57,2.425,6.181,3.795,10.8,5.28l0.045,0.014l3.821,4.95l0.34,0.665l0.27-0.135
		l-0.24-0.47l13.652-0.18l0.576,0.922l0.256-0.159l-0.594-0.953l2.703-4.522c0.005-0.004,0.009-0.008,0.014-0.014
		c0.015-0.015,0.027-0.032,0.037-0.051c0.002-0.009,0.005-0.017,0.007-0.025l0.019,0.074c2.768-0.731,8.744-4.9,9.843-6.241
		l2.732,1.577l0.001,0.001c0.012,0.014,0.029,0.011,0.045,0.017l0.042-0.084l0.01-0.017l-0.052,0.102
		c0.021,0.008,0.04,0.024,0.061,0.023v0.003c0.075-0.004,0.111-0.046,0.113-0.048l0.137-0.139l-0.176-0.102
		c0-0.001-0.001-0.003-0.001-0.004c-0.007-0.004-0.015-0.006-0.022-0.009l-2.777-1.6c0.219-1.699,0.435-2.947,0.435-4.458
		c0-1.416-0.192-3.053-0.745-5.509c1.19-1.38,3.969-6.515,4.193-8.409c1.435,0.1,2.77,0.321,3.6,0.688l0.122-0.276
		c-0.905-0.396-2.277-0.616-3.747-0.716c-1.464-4.557-3.79-8.557-7.336-11.753c0.411-1.607,0.686-3.217,0.793-4.814
		c-0.068-0.052-0.133-0.108-0.202-0.159l-0.085-0.005c-0.098,1.615-0.375,3.249-0.793,4.881l-7.148,0.142
		c-2.255-3.35-6.589-5.798-12.079-7.266c0.354-1.091,0.855-2.103,1.466-3.09l-0.008-0.005c-0.115,0.01-0.232,0.016-0.348,0.026
		c-0.586,0.975-1.082,1.979-1.423,3.065c-1.093,0.529-7.513,4.24-10.611,8.811l-3.821-0.374c0.068-0.933,0.113-1.673,0.113-2.299
		c0-0.701-0.056-1.262-0.192-1.786l-0.216,0.057c-0.021,0.021-0.044,0.042-0.066,0.063c0.121,0.48,0.174,1,0.174,1.667
		C212.99,9.968,212.945,10.724,212.871,11.695z M219.958,46.915c-4.49-1.425-8.904-2.82-10.385-4.997
		c-0.002-0.006-0.006-0.012-0.01-0.018c0,0-0.011-0.016-0.045-0.066c-0.004-0.005-0.007-0.011-0.01-0.016l-0.001,0.001
		c-0.001-0.001-0.001-0.002-0.001-0.003c-0.187-0.968-0.405-3.887-0.405-6.656c-0.002-2.072,0.127-4.076,0.456-5.125
		c2.825-0.235,4.794,0.054,7.686-0.406c1.504,4.861,5.299,9.83,6.68,10.965C221.05,43.231,220.062,45.95,219.958,46.915z
		 M217.509,29.474l4.24-8.462c2.018-0.229,3.804-0.317,5.352-0.317c4.488,0,6.969,0.733,7.342,0.845l5.195,8.192
		c-0.104,0.958-3.83,8.237-5.764,10.176l-9.691,0.509C222.97,39.506,218.986,34.362,217.509,29.474z M237.895,51.806l-13.774,0.181
		l-3.866-5.002c0.058-0.795,1.023-3.615,3.981-6.27l9.66-0.507c2.689,1.798,5.097,4.228,6.711,7.063L237.895,51.806z
		 M240.621,47.247l-0.002,0.004c0-0.004,0.004-0.01,0.005-0.015C240.623,47.241,240.621,47.244,240.621,47.247z M251.05,36.397
		c0,1.498-0.219,2.744-0.444,4.504c-0.838,1.148-7.053,5.509-9.72,6.184l0.01,0.038h-0.028c-1.62-2.847-4.017-5.279-6.697-7.091
		c1.968-2.113,5.38-8.672,5.741-10.153c3.624,0.901,7.877,1.144,9.734,1.144c0.284,0,0.512-0.005,0.677-0.015
		C250.865,33.423,251.05,35.021,251.05,36.397z M239.906,10.775C239.906,10.775,239.906,10.775,239.906,10.775
		c0.002,0,0.004,0.001,0.007,0.001c-0.001,0-0.003,0-0.005-0.001c0.003,0,0.006,0,0.008,0c0.03,0.004,0.055-0.001,0.072-0.009
		l7.227-0.141c3.53,3.174,5.838,7.151,7.296,11.707c-0.059,1.583-2.994,7.084-4.142,8.369c-0.152,0.012-0.4,0.019-0.723,0.019
		c-1.852,0-6.15-0.247-9.757-1.158l-5.189-8.179C235.583,18.488,238.49,11.313,239.906,10.775c-0.003,0-0.004,0-0.006,0
		C239.902,10.775,239.904,10.775,239.906,10.775z M227.746,3.467c5.406,1.427,9.662,3.811,11.895,7.007h-0.002l0.056,0.08
		c-1.723,0.993-4.302,7.738-5.257,10.669c-0.617-0.184-3.104-0.83-7.336-0.83c-1.547,0-3.328,0.086-5.336,0.314
		c-0.743-2.862-3.641-7.542-4.502-8.554C220.301,7.673,226.728,3.951,227.746,3.467z M217.001,12.312
		c0.748,0.825,3.807,5.746,4.49,8.539l-4.244,8.473c-2.887,0.467-4.85,0.171-7.746,0.415c-1.306-1.308-2.833-6.149-2.861-8.393
		c1.516-4.023,3.686-7.229,6.425-9.42L217.001,12.312z"/>
	<path d="M253.839,43.043c-0.001-0.001-0.002-0.004-0.002-0.007c-0.01-0.005-0.02-0.008-0.029-0.011l-2.771-1.597
		c0.219-1.7,0.436-2.949,0.436-4.457c0-1.415-0.192-3.051-0.748-5.508c1.19-1.379,3.974-6.52,4.196-8.413
		c1.434,0.1,2.768,0.323,3.6,0.688l0.121-0.274c-0.904-0.397-2.277-0.616-3.747-0.718c-1.464-4.556-3.79-8.557-7.337-11.751
		c0.425-1.657,0.707-3.316,0.805-4.959l-0.298-0.02h-0.002c-0.096,1.617-0.373,3.249-0.79,4.883l-7.15,0.139
		c-2.256-3.348-6.589-5.798-12.078-7.264c0.354-1.091,0.855-2.103,1.466-3.09l-0.088-0.054V0.455h-0.04h-0.086l-0.042,0.071
		c-0.636,1.028-1.161,2.093-1.522,3.247c-1.092,0.529-7.512,4.24-10.611,8.81l-3.822-0.374c0.07-0.934,0.113-1.672,0.113-2.3
		c0-0.699-0.055-1.26-0.189-1.786L212.93,8.2c0.128,0.493,0.181,1.025,0.181,1.709c0,0.631-0.044,1.389-0.116,2.358
		c-2.784,2.229-4.975,5.475-6.505,9.526l-1.248,0.864l0.172,0.246l1.059-0.731c0.141,2.417,1.558,6.905,2.924,8.335
		c-0.352,1.12-0.471,3.131-0.473,5.228c0,2.789,0.217,5.7,0.433,6.77c0.011,0.018,0.02,0.034,0.028,0.047l-0.006,0.003l0.001,0.001
		l-0.001,0l0.058,0.087c0.003,0.005,0.008,0.01,0.013,0.015c1.634,2.362,6.176,3.714,10.729,5.178l0.047,0.015l3.816,4.943
		l0.326,0.641c0.018,0.004,0.033,0.009,0.05,0.014l0.236-0.12l-0.241-0.471l13.654-0.18l0.55,0.882
		c0.056-0.015,0.109-0.032,0.165-0.047l0.116-0.072l-0.595-0.954l2.701-4.519c0.004-0.003,0.01-0.008,0.016-0.015
		c0.015-0.015,0.027-0.032,0.035-0.053c0.004-0.009,0.006-0.018,0.008-0.026l0.021,0.077v-0.002c2.767-0.731,8.74-4.896,9.841-6.24
		l2.729,1.573c0.002,0.001,0.002,0.002,0.002,0.003c0.006,0.005,0.012,0.003,0.018,0.007c0.06-0.081,0.116-0.163,0.174-0.244
		L253.839,43.043z M240.028,11.349C240.027,11.35,240.027,11.35,240.028,11.349c0.005,0.001,0.009,0.002,0.013,0.002
		c0,0-0.002,0-0.004,0c0.002,0,0.004,0,0.006,0c0.027,0.002,0.049-0.002,0.064-0.01l7.227-0.141
		c3.533,3.173,5.844,7.155,7.299,11.713c-0.066,1.589-2.994,7.078-4.141,8.362c-0.152,0.011-0.4,0.02-0.723,0.02
		c-1.854,0-6.152-0.247-9.758-1.161l-5.189-8.178C235.707,19.061,238.613,11.885,240.028,11.349c-0.005,0-0.009-0.001-0.013-0.002
		C240.019,11.348,240.023,11.349,240.028,11.349z M239.761,30.304c-0.101,0.949-3.836,8.242-5.768,10.178l-9.686,0.509
		c-1.21-0.903-5.199-6.05-6.678-10.944l4.24-8.461c2.017-0.229,3.804-0.317,5.353-0.317c4.487,0,6.968,0.731,7.341,0.845
		L239.761,30.304z M227.869,4.041c5.404,1.425,9.661,3.811,11.894,7.005h-0.001l0.055,0.08c-1.723,0.995-4.303,7.74-5.258,10.67
		c-0.617-0.182-3.104-0.828-7.335-0.828c-1.546,0-3.328,0.087-5.336,0.314c-0.739-2.862-3.642-7.545-4.503-8.555
		C220.421,8.249,226.85,4.525,227.869,4.041z M206.761,21.92c1.517-4.024,3.687-7.227,6.423-9.42l3.938,0.384
		c0.746,0.816,3.809,5.743,4.492,8.541l-4.243,8.471c-2.887,0.467-4.852,0.171-7.747,0.415
		C208.316,28.999,206.791,24.165,206.761,21.92z M220.082,47.49c-4.488-1.426-8.905-2.823-10.387-4.999
		c-0.002-0.006-0.006-0.012-0.009-0.017c0,0-0.013-0.022-0.058-0.086c-0.186-0.968-0.404-3.888-0.404-6.655
		c0-2.072,0.127-4.077,0.455-5.125c2.826-0.237,4.795,0.052,7.686-0.406c1.507,4.861,5.303,9.831,6.682,10.964
		C221.17,43.806,220.185,46.524,220.082,47.49z M238.017,52.378l-13.775,0.181l-3.865-5.002c0.058-0.796,1.023-3.616,3.982-6.269
		l9.656-0.508c2.69,1.796,5.098,4.226,6.713,7.063L238.017,52.378z M240.741,47.823L240.741,47.823
		c0.001-0.012,0.005-0.028,0.015-0.045C240.749,47.792,240.744,47.807,240.741,47.823z M250.728,41.476
		c-0.838,1.146-7.053,5.507-9.723,6.184l0.01,0.036h-0.024c-1.621-2.845-4.019-5.277-6.698-7.092
		c1.968-2.113,5.38-8.671,5.74-10.153c3.625,0.903,7.875,1.144,9.736,1.146c0.283,0,0.51-0.005,0.676-0.016
		c0.541,2.416,0.728,4.013,0.728,5.391C251.172,38.469,250.955,39.715,250.728,41.476z"/>
</g>
</svg>
