<?xml version="1.0" encoding="utf-8"?>
<!-- Generator: Adobe Illustrator 15.0.0, SVG Export Plug-In . SVG Version: 6.00 Build 0)  -->
<svg version="1.2" baseProfile="tiny" id="Calque_1"
	 xmlns="http://www.w3.org/2000/svg" xmlns:xlink="http://www.w3.org/1999/xlink" x="0px" y="0px" width="249.62px"
	 height="400.62px" viewBox="0 0 328.502 527.22" xml:space="preserve">
<path d="M136.119,408.676h-9.734l-0.689-4.427h-6.354l-0.765,4.427h-9.724l8.377-34.811h11.509 M124.581,396.906l-0.606-4.057
	c-0.009-0.021-0.041-0.216-0.083-0.621c-0.042-0.335-0.193-1.639-0.477-3.929c-0.029-0.251-0.068-0.606-0.117-1.038
	c-0.042-0.452-0.105-1.003-0.181-1.687l-0.293-3.301c-0.034,0.322-0.071,0.68-0.125,1.062c-0.049,0.4-0.107,0.83-0.168,1.28
	c-0.105,0.938-0.181,1.59-0.223,1.941c-0.049,0.371-0.073,0.587-0.098,0.677l-0.652,4.21l-0.941,5.462H124.581z"/>
<path d="M149.101,408.676h-9.086v-17.089h-2.623v-7.336h2.623v-4.466c0-3.143,0.682-5.515,2.048-7.12
	c1.372-1.626,3.374-2.438,6.016-2.438c1.311,0,2.728,0.213,4.273,0.631v8.357c-0.802-0.57-1.416-0.848-1.853-0.848
	c-0.936,0-1.398,0.832-1.398,2.487v3.396h3.251v7.336h-3.251"/>
<path d="M164.291,408.676h-9.096v-24.425h9.096l-0.484,4.762c1.372-3.554,3.64-5.326,6.791-5.326v10.146
	c-0.983-0.537-1.833-0.804-2.515-0.804c-1.225,0-2.164,0.433-2.818,1.325c-0.653,0.882-0.973,2.155-0.973,3.837"/>
<path d="M183.56,376.713c0,1.438-0.517,2.67-1.557,3.708c-1.068,1.022-2.309,1.542-3.726,1.542c-1.46,0-2.711-0.52-3.748-1.576
	c-1.024-1.051-1.533-2.308-1.533-3.744c0-1.45,0.508-2.695,1.533-3.714c1.063-1.036,2.31-1.54,3.728-1.54
	c1.485,0,2.747,0.521,3.773,1.56C183.046,373.968,183.56,375.224,183.56,376.713 M182.797,408.676h-9.076v-24.394h9.076V408.676z"/>
<path d="M200.143,400.842v7.69c-0.545,0.068-1.021,0.093-1.428,0.111c-0.409,0.022-0.746,0.032-1.012,0.032
	c-2.664,0-4.874-0.78-6.639-2.339c-1.204-1.052-2.167-2.488-2.915-4.327c-0.748-1.838-1.119-3.73-1.119-5.656
	c0-3.439,1.065-6.321,3.194-8.661c2.122-2.292,4.814-3.441,8.081-3.441c0.199,0,0.445,0.015,0.749,0.031
	c0.293,0.022,0.66,0.039,1.088,0.074v8.254c-2.691,0.17-4.029,1.521-4.029,4.047c0,1.138,0.333,2.146,1.001,2.996
	c0.68,0.837,1.485,1.237,2.417,1.237c0.083,0,0.178,0,0.276-0.018C199.906,400.874,200.018,400.859,200.143,400.842"/>
<path d="M225.57,408.676h-9.096c0.075-0.814,0.137-1.587,0.181-2.32c0.041-0.732,0.093-1.334,0.135-1.791
	c-1.569,2.742-3.677,4.111-6.307,4.111c-2.298,0-4.114-1.098-5.464-3.288c-1.32-2.194-1.986-5.204-1.986-9.063
	c0-3.732,0.688-6.676,2.077-8.811c1.384-2.175,3.275-3.263,5.651-3.263c2.444,0,4.422,1.288,5.923,3.864
	c-0.029-0.306-0.049-0.571-0.068-0.786c-0.022-0.234-0.035-0.421-0.044-0.567l-0.086-1.423l-0.075-1.088h9.159 M216.486,396.208
	c0-0.836-0.037-1.558-0.112-2.141c-0.066-0.588-0.184-1.054-0.337-1.434c-0.156-0.376-0.359-0.641-0.614-0.789
	c-0.244-0.166-0.547-0.257-0.904-0.257c-1.603,0-2.393,1.911-2.393,5.688c0,2.711,0.704,4.065,2.132,4.065
	C215.736,401.341,216.486,399.634,216.486,396.208z"/>
<path d="M261.422,398.063l-0.546,9.449c-2.085,0.785-3.963,1.164-5.622,1.164c-3.899,0-7.179-1.369-9.836-4.129
	c-2.979-3.089-4.471-7.471-4.471-13.141c0-5.302,1.397-9.548,4.199-12.761c2.791-3.192,6.538-4.78,11.22-4.78
	c1.519,0,3.065,0.269,4.645,0.821v9.635c-1.396-1.393-2.833-2.097-4.31-2.097c-1.929,0-3.43,0.805-4.511,2.43
	c-1.085,1.639-1.63,3.893-1.63,6.789c0,1.405,0.135,2.637,0.408,3.742c0.269,1.107,0.65,2.04,1.161,2.791
	c0.504,0.758,1.124,1.345,1.865,1.743c0.733,0.393,1.574,0.604,2.529,0.604C258.146,400.324,259.779,399.566,261.422,398.063"/>
<path d="M265.245,384.251h9.086v13.755c0,1.315,0.124,2.264,0.385,2.867c0.263,0.501,0.771,0.751,1.52,0.751
	c0.726,0,1.22-0.25,1.47-0.751c0.273-0.504,0.407-1.449,0.407-2.867v-13.755h9.081v14.682c0,0.987-0.076,1.857-0.24,2.661
	c-0.152,0.782-0.405,1.497-0.737,2.134c-0.348,0.658-0.777,1.24-1.313,1.753c-0.541,0.538-1.171,1.022-1.911,1.482
	c-1.992,1.148-4.241,1.713-6.757,1.713c-2.547,0-4.811-0.564-6.764-1.713c-0.758-0.46-1.396-0.944-1.934-1.46
	c-0.533-0.516-0.971-1.105-1.311-1.757c-0.337-0.655-0.596-1.37-0.743-2.152c-0.158-0.804-0.239-1.674-0.239-2.661"/>
<path d="M300.918,419.579h-9.081v-35.327h9.037l-0.156,3.464c0.374-0.721,0.753-1.335,1.148-1.849
	c0.392-0.498,0.819-0.898,1.261-1.182c0.458-0.287,0.941-0.434,1.457-0.434c0.523,0,1.101,0,1.733,0
	c2.344,0,4.256,1.139,5.729,3.391c1.458,2.227,2.186,5.187,2.186,8.868c0,3.744-0.696,6.717-2.095,8.898
	c-1.369,2.18-3.253,3.268-5.662,3.268c-2.198,0-4.12-1.264-5.758-3.816c0.073,0.783,0.117,1.428,0.137,1.995
	c0.039,0.567,0.063,1.257,0.063,2.059 M305.142,396.325c0-1.489-0.186-2.656-0.558-3.476c-0.366-0.836-0.887-1.262-1.568-1.262
	c-1.394,0-2.098,1.613-2.098,4.821c0,3.295,0.679,4.933,2.036,4.933c0.675,0,1.208-0.434,1.601-1.325
	C304.947,399.151,305.142,397.911,305.142,396.325z"/>
<path d="M132.635,443.96c0,3.628-1.051,6.506-3.148,8.645c-2.102,2.141-4.923,3.212-8.455,3.212c-3.474,0-6.241-1.11-8.299-3.28
	c-2.036-2.206-3.063-5.148-3.063-8.861c0-3.693,1.042-6.666,3.139-8.907c2.063-2.256,4.818-3.381,8.238-3.381
	c3.615,0,6.451,1.125,8.509,3.361C131.611,436.988,132.635,440.063,132.635,443.96 M123.554,443.661
	c0-0.834-0.061-1.586-0.168-2.271c-0.113-0.675-0.274-1.242-0.484-1.724c-0.215-0.486-0.469-0.854-0.768-1.119
	c-0.296-0.273-0.621-0.404-0.985-0.404c-0.716,0-1.297,0.499-1.738,1.501c-0.44,0.89-0.655,2.192-0.655,3.946
	c0,1.726,0.215,3.045,0.655,3.95c0.44,0.997,1.022,1.498,1.755,1.498c0.691,0,1.259-0.481,1.708-1.467
	C123.334,446.472,123.554,445.16,123.554,443.661z"/>
<path d="M146.752,455.817h-9.088v-17.091h-2.618v-7.339h2.618v-4.479c0-3.129,0.682-5.51,2.053-7.123
	c1.364-1.627,3.375-2.427,6.013-2.427c1.313,0,2.733,0.203,4.275,0.634v8.354c-0.804-0.567-1.418-0.846-1.851-0.846
	c-0.938,0-1.403,0.813-1.403,2.493v3.393h3.253v7.339h-3.253"/>
<path d="M167.953,455.817v-34.833h8.584l4.637,12.241c0.252,0.717,0.533,1.558,0.857,2.474c0.318,0.938,0.67,2.027,1.061,3.247
	l0.964,3.061c-0.348-3.029-0.604-5.618-0.792-7.759c-0.186-2.159-0.274-3.963-0.274-5.423v-7.841h9.096v34.833h-9.096l-4.678-12.826
	c-0.496-1.372-0.935-2.662-1.335-3.848c-0.391-1.205-0.73-2.339-1.034-3.429c0.379,2.459,0.648,4.604,0.829,6.409
	c0.181,1.823,0.267,3.427,0.267,4.795v8.898"/>
<path d="M219.576,455.817h-9.098c0.073-0.821,0.137-1.584,0.186-2.327c0.042-0.748,0.083-1.335,0.127-1.787
	c-1.566,2.742-3.669,4.114-6.31,4.114c-2.284,0-4.104-1.11-5.45-3.311c-1.327-2.176-1.992-5.201-1.992-9.063
	c0-3.727,0.694-6.668,2.077-8.795c1.376-2.175,3.264-3.261,5.649-3.261c2.441,0,4.42,1.291,5.928,3.862
	c-0.029-0.299-0.054-0.572-0.078-0.787c-0.008-0.235-0.02-0.42-0.034-0.567l-0.098-1.422l-0.062-1.086h9.154 M210.483,443.342
	c0-0.854-0.032-1.557-0.101-2.141c-0.071-0.59-0.183-1.07-0.345-1.44c-0.154-0.366-0.359-0.635-0.604-0.801
	c-0.249-0.147-0.558-0.234-0.914-0.234c-1.595,0-2.398,1.886-2.398,5.668c0,2.724,0.716,4.065,2.139,4.065
	C209.742,448.459,210.483,446.752,210.483,443.342z"/>
<polyline points="234.524,455.817 225.43,455.817 225.43,438.726 222.859,438.726 222.859,431.387 225.43,431.387 225.43,424.26 
	234.524,424.26 234.524,431.387 237.523,431.387 237.523,438.726 234.524,438.726 "/>
<path d="M250.216,423.841c0,1.426-0.523,2.667-1.56,3.698c-1.067,1.037-2.31,1.54-3.723,1.54c-1.466,0-2.713-0.518-3.75-1.55
	c-1.023-1.073-1.532-2.324-1.532-3.75c0-1.456,0.509-2.712,1.532-3.73c1.062-1.016,2.311-1.537,3.726-1.537
	c1.486,0,2.75,0.521,3.774,1.569C249.701,421.107,250.216,422.358,250.216,423.841 M249.442,455.817h-9.066v-24.412h9.066V455.817z"
	/>
<path d="M276.074,443.96c0,3.628-1.049,6.506-3.149,8.645c-2.109,2.141-4.935,3.212-8.466,3.212c-3.472,0-6.236-1.11-8.287-3.28
	c-2.049-2.206-3.066-5.148-3.066-8.861c0-3.693,1.039-6.666,3.125-8.907c2.074-2.256,4.825-3.381,8.257-3.381
	c3.604,0,6.446,1.125,8.497,3.361C275.048,436.988,276.074,440.063,276.074,443.96 M266.992,443.661
	c0-0.834-0.061-1.586-0.173-2.271c-0.112-0.675-0.275-1.242-0.489-1.724c-0.217-0.486-0.464-0.854-0.76-1.119
	c-0.298-0.273-0.631-0.404-0.992-0.404c-0.717,0-1.298,0.499-1.735,1.501c-0.434,0.89-0.655,2.192-0.655,3.946
	c0,1.726,0.222,3.045,0.655,3.95c0.438,0.997,1.026,1.498,1.752,1.498c0.694,0,1.257-0.481,1.716-1.467
	C266.765,446.472,266.992,445.16,266.992,443.661z"/>
<path d="M302.537,455.817h-9.081v-12.931c0-1.101-0.135-1.882-0.423-2.317c-0.273-0.438-0.753-0.646-1.442-0.646
	c-1.618,0-2.42,1.198-2.42,3.589v12.305h-9.093v-24.43h9.093c-0.021,0.606-0.034,1.153-0.053,1.675c-0.013,0.5-0.035,0.98-0.06,1.42
	l-0.098,1.558c1.569-3.096,3.857-4.652,6.891-4.652c2.114,0,3.75,0.721,4.918,2.142c1.182,1.432,1.768,3.427,1.768,5.984"/>
<path d="M305.108,453.292l3.295-6.793c1.621,1.688,3.137,2.54,4.535,2.54c1.17,0,1.768-0.382,1.768-1.186
	c0-0.685-0.778-1.303-2.323-1.836c-4.17-1.426-6.258-3.679-6.258-6.754c0-2.275,0.959-4.15,2.86-5.638
	c1.927-1.487,4.324-2.238,7.189-2.238c2.354,0,4.783,0.685,7.276,2.072l-3.099,6.825c-1.516-1.427-2.755-2.142-3.718-2.142
	c-0.957,0-1.424,0.361-1.424,1.068c0,0.78,0.904,1.504,2.706,2.179c2.244,0.812,3.774,1.699,4.584,2.625
	c0.857,0.919,1.285,2.2,1.285,3.83c0,2.335-0.929,4.241-2.794,5.728c-1.862,1.491-4.259,2.244-7.17,2.244
	c-1.37,0-2.729-0.187-4.081-0.54c-0.644-0.164-1.338-0.413-2.081-0.751C306.908,454.191,306.057,453.773,305.108,453.292"/>
<rect x="4.717" y="362.65" fill="#FFCB05" width="94.029" height="93.65"/>
<path fill-rule="evenodd" fill="#00678F" d="M6.421,409.647c0-9.697,20.176-17.507,45.312-17.507
	c24.938,0,45.299,7.81,45.299,17.507c0,9.716-20.362,17.523-45.299,17.523C26.597,427.17,6.421,419.363,6.421,409.647"/>
<polyline fill="#FFFFFF" points="22.982,418.026 27.746,400.515 35.172,400.515 35.172,410.992 40.313,400.515 47.736,400.515 
	42.972,418.026 38.208,418.026 41.264,406.993 35.172,418.026 31.17,418.026 31.17,406.993 28.125,418.026 "/>
<polyline fill-rule="evenodd" fill="#ED1C24" points="49.063,418.793 49.638,416.139 55.163,416.139 54.395,418.793 "/>
<polyline fill="#FFCB05" points="50.024,415.367 52.679,405.286 47.736,405.286 49.063,400.515 64.292,400.515 63.156,405.286 
	58.203,405.286 55.346,415.367 "/>
<polyline fill="#FFFFFF" points="60.867,418.026 65.624,400.515 70.579,400.515 73.236,410.039 75.712,400.515 80.86,400.515 
	76.089,418.026 70.956,418.026 68.293,408.713 65.624,418.026 "/>
<rect y="465.869" width="328.502" height="7.837"/>
<path d="M33.028,502.989v1.403c0,7.51-0.726,11.968-2.66,15.808c-2.234,4.397-6.702,7.021-12.199,7.021
	c-9.484,0-15.346-7.932-15.346-20.875c0-13.061,5.922-21.303,15.287-21.303c6.58,0,11.173,3.3,14.009,10.075l-10.509,3.968
	c-0.303-2.687-1.51-4.215-3.205-4.215c-3.016,0-4.466,4.149-4.466,12.514c0,7.022,1.269,10.075,4.17,10.075
	c2.293,0,3.684-2.199,3.742-5.923h-3.987v-8.548"/>
<polyline points="56.225,526.492 56.225,510.129 51.026,510.129 51.026,526.492 40.155,526.492 40.155,485.776 51.026,485.776 
	51.026,500.178 56.225,500.178 56.225,485.776 67.095,485.776 67.095,526.492 "/>
<path d="M92.886,526.492l-0.785-5.193h-7.311l-0.905,5.193H72.651l9.663-40.716h13.352l8.516,40.716 M90.107,507.81
	c0-0.182-0.12-0.851-0.423-3.295c-0.418-3.423-0.24-1.893-0.907-9.033c-0.176,1.401-0.298,2.501-0.418,3.234
	c-0.305,2.563-0.183,2.077-0.544,4.215l-0.123,0.851l-0.244,1.588l-0.059,0.793l-1.146,6.413h4.59L90.107,507.81z"/>
<path d="M109.804,485.776h10.386l5.434,14.285c0.726,1.955,1.029,2.87,1.873,5.617l0.364,1.031l0.359,1.222l0.367,1.163l0.359,1.218
	c-0.905-7.934-1.205-11.477-1.205-15.38v-9.156h10.389v40.716h-10.389l-5.437-14.955c-1.269-3.542-1.992-5.619-2.779-8.486
	c0.242,3.356,0.362,4.881,0.484,6.473c0.12,2.198,0.181,4.999,0.181,6.588v10.381h-10.386"/>
<path d="M164.222,526.492l-0.788-5.193h-7.308l-0.907,5.193h-11.237l9.666-40.716h13.349l8.521,40.716 M161.44,507.81
	c0-0.182-0.122-0.851-0.426-3.295c-0.42-3.423-0.239-1.893-0.902-9.033c-0.181,1.401-0.303,2.501-0.425,3.234
	c-0.303,2.563-0.181,2.077-0.545,4.215l-0.119,0.851l-0.242,1.588l-0.059,0.793l-1.146,6.413h4.59L161.44,507.81z"/>
<path fill="#ED1C2E" d="M193.755,526.492l10.993-14.834c5.074-6.776,6.644-10.133,6.644-13.919c0-2.198-1.024-3.667-2.535-3.667
	c-1.693,0-2.597,1.774-2.597,5.014c0,0.364,0,0.789,0.058,1.461h-10.57c-0.061-0.672-0.061-1.097-0.061-1.526
	c0-8.058,5.62-13.978,13.229-13.978c7.79,0,13.109,5.432,13.109,13.308c0,6.35-3.08,11.904-10.572,19.109
	c3.622-0.249,4.534-0.308,10.025-0.368v9.4"/>
<path fill="#FFCB05" d="M256.938,506.101c0,13.001-5.318,21.119-13.835,21.119c-9.123,0-14.614-8.054-14.614-21.303
	c0-12.756,5.491-20.875,14.194-20.875C251.62,485.042,256.938,492.857,256.938,506.101 M239.177,505.066
	c0,3.049,0.242,6.048,0.729,8.975c0.362,2.381,1.327,3.659,2.777,3.659c2.479,0,3.568-3.598,3.568-11.658
	c0-7.997-1.154-11.539-3.63-11.539C240.326,494.502,239.177,497.983,239.177,505.066z"/>
<path fill="#008C44" d="M291.551,506.101c0,13.001-5.313,21.119-13.835,21.119c-9.118,0-14.618-8.054-14.618-21.303
	c0-12.756,5.5-20.875,14.197-20.875C286.238,485.042,291.551,492.857,291.551,506.101 M273.791,505.066
	c0,3.049,0.239,6.048,0.726,8.975c0.359,2.381,1.327,3.659,2.779,3.659c2.474,0,3.56-3.598,3.56-11.658
	c0-7.997-1.144-11.539-3.623-11.539C274.937,494.502,273.791,497.983,273.791,505.066z"/>
<path d="M325.681,514.893c0,7.202-5.862,12.327-14.015,12.327c-7.492,0-13.471-5.551-13.471-12.449c0-4.517,2.234-7.637,6.824-9.463
	c-4.165-1.467-6.042-4.152-6.042-8.667c0-6.594,5.438-11.599,12.747-11.599c7.61,0,13.229,4.884,13.229,11.479
	c0,4.086-1.752,6.831-5.555,8.786C323.75,507.134,325.681,510.129,325.681,514.893 M309.247,513.856
	c0,2.321,1.146,3.963,2.654,3.963c1.636,0,2.726-1.642,2.726-4.146c0-2.503-1.028-4.092-2.726-4.092
	C310.334,509.582,309.247,511.351,309.247,513.856z M309.667,497.311c0,2.2,0.912,3.601,2.301,3.601s2.295-1.343,2.295-3.476
	c0-2.262-0.906-3.662-2.295-3.662C310.52,493.774,309.667,495.055,309.667,497.311z"/>
<path fill-rule="evenodd" fill="#008C44" d="M221.674,280.009c-8.137-7.294-3.892-16.497,1.046-25.822
	c5.665-10.695,13.225-21.543,20.525-29.841C245.785,223.136,238.69,295.258,221.674,280.009"/>
<path fill-rule="evenodd" fill="#008C44" d="M287.981,123.924c0,0-64.536,27.308-86.644,97.229
	c-22.107,69.92-17.517,100.255-17.517,100.255s29.343-92.543,46.309-120.307C247.096,173.338,287.981,123.924,287.981,123.924"/>
<path fill-rule="evenodd" fill="#ED1C2E" d="M240.183,21.445c0,0,0.226,73.748,59.942,96.447c0,0-0.335,5.121-5.894,3.549
	C219.25,100.25,240.183,21.445,240.183,21.445"/>
<path fill-rule="evenodd" fill="#ED1C2E" d="M190.006,26.144c27.939,0,53.382-12.943,53.382-12.943s-15.833,3.929-39.832,3.929
	C179.554,17.13,105.69,0,105.69,0S141.884,26.144,190.006,26.144"/>
<path fill-rule="evenodd" d="M111.366,14.454l-19.292-4.261c0,0-35.791-1.78-51.538,16.401
	c-15.745,18.183-2.012,68.095-2.012,68.095S38.876,55.605,50.7,37.611C62.524,19.615,111.366,14.454,111.366,14.454"/>
<path fill-rule="evenodd" d="M39.111,98.197c1.036,2.749,8.721,26.519,24.955,31.956c4.93,0,2.056-20.298,17.395-20.298
	c11.396,0,52.731,76.712,52.731,76.712l-54.704-63.098c0,0-7.174,19.07-11.799,17.016C37.446,127.068,39.111,98.197,39.111,98.197"
	/>
<path fill-rule="evenodd" fill="#FFCB05" d="M115.75,174.87c15.667,0,11.494,8.571,11.203,33.339
	c-0.293,24.768-0.293,54.471-0.293,54.471s-13.926-22.504-15.402-52.95C110.334,190.708,103.786,174.87,115.75,174.87"/>
<path fill-rule="evenodd" fill="#FFCB05" d="M159.64,315.751c4.894-0.742,4.165-8.851,14.566-4.199
	c12.568,5.612,4.074,25.82-13.256,22.182c-34.161-7.183-34.291-69.419-34.291-69.419s20.499,32.118,24.615,41.859
	C153.852,312.274,156.702,316.197,159.64,315.751"/>
<g>
	<path fill-rule="evenodd" fill="#58595B" d="M92.196,99.922c15.009,0,27.239,12.224,27.239,27.234
		c0,14.991-12.23,27.218-27.239,27.218c-14.982,0-27.212-12.227-27.212-27.218C64.984,112.146,77.214,99.922,92.196,99.922"/>
	<path fill-rule="evenodd" fill="#595A5C" d="M92.156,100.012c-14.932-0.033-27.098,12.183-27.119,27.151
		c-0.008,14.929,12.201,27.143,27.123,27.147c15,0.021,27.194-12.2,27.218-27.136C119.389,112.23,107.1,100.023,92.156,100.012"/>
	<path fill-rule="evenodd" fill="#5A5B5D" d="M92.117,100.102c-14.883-0.066-26.984,12.143-27.026,27.069
		c-0.016,14.867,12.171,27.069,27.032,27.078c14.991,0.042,27.149-12.173,27.197-27.054
		C119.342,112.315,106.995,100.125,92.117,100.102"/>
	<path fill-rule="evenodd" fill="#5B5C5E" d="M92.077,100.192c-14.833-0.099-26.871,12.103-26.934,26.986
		c-0.022,14.805,12.142,26.994,26.943,27.007c14.981,0.063,27.104-12.146,27.176-26.971
		C119.294,112.4,106.889,100.226,92.077,100.192"/>
	<path fill-rule="evenodd" fill="#5C5C5F" d="M92.037,100.283c-14.784-0.132-26.757,12.062-26.841,26.903
		c-0.03,14.743,12.112,26.887,26.853,26.937c14.972,0.051,27.059-12.119,27.155-26.889
		C119.248,112.485,106.784,100.327,92.037,100.283"/>
	<path fill-rule="evenodd" fill="#5C5D60" d="M91.997,100.373c-14.734-0.165-26.676,12.021-26.748,26.821
		c-0.071,14.681,12.083,26.804,26.763,26.866c14.963,0.063,27.046-12.092,27.134-26.806
		C119.233,112.57,106.679,100.428,91.997,100.373"/>
	<path fill-rule="evenodd" fill="#5D5E60" d="M91.958,100.463c-14.686-0.198-26.569,11.98-26.655,26.738
		c-0.085,14.619,12.053,26.721,26.673,26.796c14.954,0.076,27.007-12.065,27.112-26.724
		C119.192,112.655,106.573,100.529,91.958,100.463"/>
	<path fill-rule="evenodd" fill="#5E5F61" d="M91.917,100.553c-14.636-0.231-26.461,11.94-26.562,26.656
		c-0.099,14.557,12.024,26.639,26.583,26.725c14.945,0.089,26.969-12.038,27.091-26.641
		C119.152,112.741,106.468,100.631,91.917,100.553"/>
	<path fill-rule="evenodd" fill="#5F6062" d="M91.878,100.643c-14.586-0.264-26.354,11.9-26.469,26.573
		c-0.113,14.495,11.995,26.556,26.493,26.655c14.936,0.102,26.93-12.011,27.07-26.559
		C119.112,112.826,106.363,100.732,91.878,100.643"/>
	<path fill-rule="evenodd" fill="#606163" d="M91.838,100.733c-14.537-0.297-26.247,11.859-26.376,26.491
		c-0.127,14.432,11.965,26.473,26.403,26.584c14.928,0.114,26.892-11.983,27.049-26.476
		C119.071,112.911,106.257,100.833,91.838,100.733"/>
	<path fill-rule="evenodd" fill="#616264" d="M91.798,100.824c-14.487-0.33-26.139,11.818-26.283,26.408
		c-0.141,14.371,11.936,26.392,26.313,26.514c14.918,0.127,26.853-11.957,27.028-26.394
		C119.03,112.996,106.152,100.935,91.798,100.824"/>
	<path fill-rule="evenodd" fill="#616365" d="M91.758,100.914c-14.438-0.362-26.033,11.778-26.19,26.326
		c-0.155,14.308,11.907,26.309,26.224,26.443c14.909,0.14,26.814-11.929,27.007-26.312
		C118.99,113.081,106.047,101.036,91.758,100.914"/>
	<path fill-rule="evenodd" fill="#626366" d="M91.718,101.004c-14.388-0.396-25.925,11.737-26.097,26.243
		c-0.169,14.247,11.877,26.227,26.133,26.373c14.9,0.153,26.776-11.902,26.986-26.229
		C118.949,113.166,105.941,101.137,91.718,101.004"/>
	<path fill-rule="evenodd" fill="#636467" d="M91.679,101.094c-14.339-0.429-25.817,11.696-26.004,26.16
		c-0.184,14.184,11.848,26.145,26.043,26.302c14.891,0.166,26.736-11.875,26.964-26.146
		C118.908,113.251,105.836,101.238,91.679,101.094"/>
	<path fill-rule="evenodd" fill="#646567" d="M91.639,101.184c-14.29-0.461-25.71,11.656-25.911,26.078
		c-0.197,14.122,11.818,26.063,25.953,26.232c14.883,0.179,26.699-11.847,26.944-26.064
		C118.868,113.336,105.731,101.339,91.639,101.184"/>
	<path fill-rule="evenodd" fill="#656668" d="M91.599,101.274c-14.24-0.495-25.603,11.615-25.819,25.995
		c-0.211,14.06,11.789,25.98,25.864,26.162c14.874,0.191,26.66-11.82,26.922-25.982C118.827,113.421,105.625,101.44,91.599,101.274"
		/>
	<path fill-rule="evenodd" fill="#666769" d="M91.559,101.365c-14.19-0.528-25.495,11.575-25.726,25.913
		c-0.225,13.997,11.759,25.898,25.773,26.091c14.865,0.205,26.621-11.792,26.901-25.899
		C118.786,113.506,105.521,101.542,91.559,101.365"/>
	<path fill-rule="evenodd" fill="#66686A" d="M91.52,101.455c-14.141-0.561-25.388,11.534-25.633,25.83
		c-0.239,13.935,11.73,25.816,25.684,26.021c14.856,0.217,26.582-11.765,26.88-25.816
		C118.746,113.592,105.415,101.643,91.52,101.455"/>
	<path fill-rule="evenodd" fill="#67686B" d="M91.479,101.545c-14.092-0.594-25.28,11.493-25.54,25.748
		c-0.252,13.873,11.701,25.735,25.594,25.95c14.847,0.23,26.543-11.738,26.859-25.734
		C118.705,113.677,105.31,101.745,91.479,101.545"/>
	<path fill-rule="evenodd" fill="#68696C" d="M91.44,101.635c-14.042-0.626-25.173,11.452-25.447,25.665
		c-0.266,13.811,11.671,25.653,25.504,25.88c14.838,0.243,26.504-11.711,26.838-25.652
		C118.664,113.762,105.205,101.846,91.44,101.635"/>
	<path fill-rule="evenodd" fill="#696A6C" d="M91.4,101.725c-13.993-0.659-25.065,11.412-25.354,25.583
		c-0.28,13.748,11.642,25.571,25.414,25.809c14.83,0.256,26.466-11.683,26.817-25.569C118.623,113.847,105.099,101.947,91.4,101.725
		"/>
	<path fill-rule="evenodd" fill="#6A6B6D" d="M91.36,101.815c-13.943-0.692-24.958,11.371-25.261,25.5
		c-0.293,13.686,11.613,25.49,25.324,25.739c14.821,0.269,26.427-11.656,26.796-25.487
		C118.582,113.933,104.994,102.048,91.36,101.815"/>
	<path fill-rule="evenodd" fill="#6A6C6E" d="M91.32,101.906c-13.894-0.726-24.851,11.33-25.168,25.417
		c-0.307,13.624,11.583,25.409,25.234,25.668c14.812,0.282,26.388-11.628,26.774-25.405
		C118.541,114.018,104.889,102.149,91.32,101.906"/>
	<path fill-rule="evenodd" fill="#6B6C6F" d="M91.28,101.996c-13.844-0.758-24.743,11.29-25.075,25.334
		c-0.321,13.562,11.554,25.327,25.145,25.598c14.803,0.295,26.35-11.601,26.753-25.322C118.5,114.103,104.783,102.25,91.28,101.996"
		/>
	<path fill-rule="evenodd" fill="#6C6D70" d="M91.241,102.086c-13.795-0.792-24.636,11.248-24.982,25.252
		c-0.334,13.499,11.525,25.246,25.054,25.527c14.795,0.308,26.311-11.574,26.732-25.24
		C118.459,114.188,104.678,102.352,91.241,102.086"/>
	<path fill-rule="evenodd" fill="#6D6E71" d="M91.201,102.176c-13.746-0.825-24.528,11.207-24.889,25.169
		c-0.348,13.438,11.496,25.165,24.964,25.458c14.786,0.321,26.271-11.547,26.711-25.158
		C118.418,114.273,104.573,102.453,91.201,102.176"/>
	<path fill-rule="evenodd" fill="#6D6F71" d="M91.161,102.266c-13.696-0.857-24.42,11.167-24.796,25.087
		c-0.361,13.375,11.466,25.083,24.874,25.387c14.777,0.334,26.233-11.519,26.69-25.075
		C118.377,114.359,104.468,102.554,91.161,102.266"/>
	<path fill-rule="evenodd" fill="#6E7072" d="M91.121,102.356c-13.646-0.89-24.313,11.126-24.704,25.004
		c-0.375,13.312,11.438,25.002,24.785,25.316c14.769,0.348,26.194-11.491,26.669-24.993
		C118.336,114.444,104.362,102.656,91.121,102.356"/>
	<path fill-rule="evenodd" fill="#6F7073" d="M91.082,102.447c-13.597-0.923-24.206,11.085-24.611,24.921
		c-0.388,13.25,11.408,24.921,24.695,25.246c14.76,0.36,26.155-11.463,26.647-24.91C118.295,114.53,104.257,102.757,91.082,102.447"
		/>
	<path fill-rule="evenodd" fill="#707174" d="M91.042,102.537c-13.548-0.957-24.098,11.044-24.518,24.839
		c-0.401,13.188,11.378,24.84,24.604,25.175c14.751,0.374,26.117-11.436,26.627-24.828
		C118.255,114.615,104.152,102.858,91.042,102.537"/>
	<path fill-rule="evenodd" fill="#717275" d="M91.002,102.627c-13.499-0.989-23.99,11.003-24.425,24.756
		c-0.415,13.125,11.349,24.759,24.515,25.105c14.743,0.387,26.078-11.409,26.605-24.745
		C118.213,114.7,104.046,102.959,91.002,102.627"/>
	<path fill-rule="evenodd" fill="#717375" d="M90.962,102.717c-13.449-1.022-23.883,10.961-24.332,24.674
		c-0.428,13.063,11.32,24.678,24.425,25.034c14.734,0.4,26.039-11.38,26.584-24.663C118.172,114.786,103.941,103.061,90.962,102.717
		"/>
	<path fill-rule="evenodd" fill="#727476" d="M90.922,102.808c-13.399-1.056-23.775,10.92-24.239,24.591
		c-0.441,13,11.291,24.598,24.335,24.964c14.726,0.413,26-11.353,26.563-24.58C118.131,114.871,103.836,103.162,90.922,102.808"/>
	<path fill-rule="evenodd" fill="#737477" d="M90.882,102.897c-13.35-1.088-23.667,10.88-24.146,24.509
		c-0.455,12.938,11.262,24.517,24.245,24.894c14.717,0.426,25.96-11.326,26.542-24.498
		C118.09,114.957,103.73,103.263,90.882,102.897"/>
	<path fill-rule="evenodd" fill="#747578" d="M90.842,102.988c-13.3-1.121-23.56,10.839-24.053,24.426
		c-0.467,12.876,11.232,24.437,24.155,24.823c14.708,0.44,25.922-11.298,26.521-24.416
		C118.049,115.042,103.625,103.364,90.842,102.988"/>
	<path fill-rule="evenodd" fill="#747678" d="M90.803,103.078c-13.251-1.154-23.452,10.798-23.96,24.343
		c-0.48,12.813,11.203,24.356,24.065,24.752c14.7,0.453,25.883-11.27,26.5-24.333C118.008,115.127,103.52,103.466,90.803,103.078"/>
	<path fill-rule="evenodd" fill="#757779" d="M90.763,103.168c-13.202-1.187-23.344,10.757-23.867,24.261
		c-0.494,12.751,11.174,24.276,23.975,24.683c14.692,0.466,25.844-11.243,26.479-24.251
		C117.967,115.212,103.415,103.567,90.763,103.168"/>
	<path fill-rule="evenodd" fill="#76777A" d="M90.723,103.258c-13.152-1.22-23.236,10.715-23.774,24.178
		c-0.507,12.688,11.145,24.195,23.885,24.612c14.683,0.48,25.805-11.214,26.458-24.168
		C117.925,115.298,103.31,103.668,90.723,103.258"/>
	<path fill-rule="evenodd" fill="#77787B" d="M90.683,103.349c-13.103-1.253-23.128,10.674-23.681,24.095
		c-0.52,12.626,11.115,24.115,23.795,24.542c14.675,0.493,25.766-11.187,26.437-24.086
		C117.884,115.383,103.204,103.77,90.683,103.349"/>
	<path fill-rule="evenodd" fill="#77797C" d="M90.644,103.438c-13.053-1.286-23.021,10.633-23.589,24.013
		c-0.533,12.563,11.086,24.035,23.706,24.471c14.667,0.506,25.727-11.159,26.416-24.003
		C117.843,115.469,103.099,103.871,90.644,103.438"/>
	<path fill-rule="evenodd" fill="#787A7C" d="M90.604,103.529C77.6,102.21,67.69,114.121,67.108,127.459
		c-0.546,12.501,11.057,23.955,23.616,24.4c14.657,0.52,25.688-11.131,26.395-23.921
		C117.802,115.555,102.994,103.972,90.604,103.529"/>
	<path fill-rule="evenodd" fill="#797B7D" d="M90.563,103.619c-12.954-1.352-22.805,10.551-23.402,23.848
		c-0.559,12.438,11.027,23.875,23.525,24.33c14.649,0.534,25.649-11.103,26.374-23.838
		C117.761,115.64,102.888,104.073,90.563,103.619"/>
	<path fill-rule="evenodd" fill="#7A7B7E" d="M90.524,103.709c-12.905-1.385-22.697,10.51-23.31,23.766
		c-0.571,12.376,10.999,23.795,23.436,24.259c14.641,0.547,25.61-11.075,26.352-23.756
		C117.719,115.726,102.783,104.174,90.524,103.709"/>
	<path fill-rule="evenodd" fill="#7A7C7F" d="M90.484,103.799c-12.855-1.418-22.59,10.468-23.217,23.683
		c-0.584,12.314,10.97,23.715,23.346,24.189c14.633,0.561,25.572-11.047,26.332-23.673
		C117.678,115.811,102.678,104.276,90.484,103.799"/>
	<path fill-rule="evenodd" fill="#7B7D7F" d="M90.444,103.89c-12.806-1.451-22.482,10.427-23.124,23.6
		c-0.597,12.251,10.94,23.636,23.256,24.119c14.625,0.574,25.532-11.02,26.31-23.591C117.636,115.897,102.572,104.377,90.444,103.89
		"/>
	<path fill-rule="evenodd" fill="#7C7E80" d="M90.404,103.979c-12.756-1.484-22.374,10.386-23.031,23.518
		c-0.61,12.189,10.911,23.556,23.166,24.048c14.616,0.587,25.493-10.992,26.289-23.509
		C117.595,115.982,102.467,104.478,90.404,103.979"/>
	<path fill-rule="evenodd" fill="#7D7E81" d="M90.365,104.07c-12.707-1.517-22.266,10.345-22.938,23.435
		c-0.623,12.126,10.882,23.476,23.076,23.978c14.608,0.601,25.454-10.963,26.268-23.426
		C117.553,116.068,102.362,104.58,90.365,104.07"/>
	<path fill-rule="evenodd" fill="#7D7F82" d="M90.325,104.16c-12.657-1.55-22.158,10.304-22.845,23.352
		c-0.635,12.064,10.853,23.396,22.986,23.907c14.6,0.615,25.415-10.935,26.247-23.344
		C117.512,116.154,102.256,104.681,90.325,104.16"/>
	<path fill-rule="evenodd" fill="#7E8082" d="M90.285,104.25c-12.608-1.583-22.05,10.263-22.752,23.27
		c-0.648,12.001,10.824,23.317,22.896,23.837c14.591,0.628,25.375-10.907,26.226-23.262
		C117.47,116.239,102.151,104.782,90.285,104.25"/>
	<path fill-rule="evenodd" fill="#7F8183" d="M90.245,104.34c-12.559-1.616-21.942,10.221-22.659,23.187
		c-0.66,11.939,10.794,23.238,22.806,23.767c14.583,0.642,25.336-10.879,26.205-23.179
		C117.429,116.325,102.046,104.883,90.245,104.34"/>
	<path fill-rule="evenodd" fill="#808184" d="M90.206,104.431c-12.509-1.649-21.834,10.179-22.566,23.104
		c-0.673,11.876,10.765,23.158,22.716,23.696c14.574,0.655,25.297-10.851,26.183-23.097
		C117.387,116.411,101.94,104.984,90.206,104.431"/>
	<path fill-rule="evenodd" fill="#808285" d="M90.166,104.521c-12.459-1.682-21.727,10.138-22.474,23.022
		c-0.685,11.813,10.737,23.079,22.626,23.625c14.566,0.669,25.258-10.823,26.162-23.014
		C117.345,116.497,101.835,105.086,90.166,104.521"/>
	<path fill-rule="evenodd" fill="#818385" d="M90.125,104.611c-12.41-1.715-21.618,10.097-22.38,22.939
		c-0.697,11.75,10.707,23,22.537,23.555c14.558,0.683,25.219-10.795,26.141-22.932C117.304,116.583,101.73,105.187,90.125,104.611"
		/>
	<path fill-rule="evenodd" fill="#828486" d="M90.086,104.701c-12.361-1.748-21.51,10.055-22.288,22.857
		c-0.71,11.688,10.678,22.921,22.446,23.484c14.55,0.697,25.18-10.766,26.12-22.849C117.262,116.668,101.625,105.288,90.086,104.701
		"/>
	<path fill-rule="evenodd" fill="#828487" d="M90.046,104.791c-12.311-1.781-21.402,10.014-22.194,22.774
		c-0.722,11.625,10.648,22.842,22.356,23.414c14.542,0.71,25.14-10.738,26.099-22.767C117.22,116.754,101.52,105.39,90.046,104.791"
		/>
	<path fill-rule="evenodd" fill="#838588" d="M90.006,104.881c-12.262-1.813-21.294,9.973-22.102,22.692
		c-0.734,11.563,10.62,22.763,22.267,23.344c14.533,0.725,25.101-10.71,26.078-22.685
		C117.178,116.84,101.414,105.491,90.006,104.881"/>
	<path fill-rule="evenodd" fill="#848688" d="M89.966,104.972c-12.212-1.847-21.186,9.931-22.009,22.609
		c-0.747,11.5,10.591,22.685,22.177,23.273c14.525,0.738,25.062-10.682,26.057-22.602
		C117.136,116.926,101.309,105.592,89.966,104.972"/>
	<path fill-rule="evenodd" fill="#858789" d="M89.927,105.062c-12.163-1.879-21.078,9.89-21.916,22.527
		c-0.758,11.438,10.561,22.605,22.087,23.203c14.517,0.752,25.022-10.653,26.035-22.52
		C117.094,117.011,101.204,105.693,89.927,105.062"/>
	<path fill-rule="evenodd" fill="#85878A" d="M89.887,105.152c-12.113-1.913-20.969,9.848-21.823,22.444
		c-0.771,11.375,10.532,22.527,21.997,23.132c14.509,0.766,24.983-10.625,26.015-22.437
		C117.052,117.097,101.098,105.794,89.887,105.152"/>
	<path fill-rule="evenodd" fill="#86888B" d="M89.847,105.242c-12.064-1.946-20.862,9.806-21.73,22.361
		c-0.783,11.313,10.503,22.448,21.907,23.062c14.501,0.78,24.943-10.597,25.993-22.355
		C117.01,117.183,100.993,105.896,89.847,105.242"/>
	<path fill-rule="evenodd" fill="#87898B" d="M89.807,105.332c-12.015-1.979-20.753,9.765-21.637,22.279
		c-0.795,11.25,10.474,22.37,21.817,22.992c14.493,0.794,24.904-10.568,25.972-22.272
		C116.968,117.269,100.888,105.997,89.807,105.332"/>
	<path fill-rule="evenodd" fill="#888A8C" d="M89.767,105.422c-11.965-2.012-20.645,9.724-21.544,22.196
		c-0.807,11.187,10.445,22.292,21.727,22.921c14.485,0.808,24.865-10.54,25.951-22.19
		C116.926,117.355,100.782,106.098,89.767,105.422"/>
	<path fill-rule="evenodd" fill="#888A8D" d="M89.728,105.513c-11.916-2.044-20.536,9.682-21.451,22.113
		c-0.819,11.125,10.416,22.213,21.637,22.851c14.477,0.823,24.825-10.511,25.93-22.107
		C116.884,117.441,100.677,106.2,89.728,105.513"/>
	<path fill-rule="evenodd" fill="#898B8E" d="M89.688,105.603c-11.866-2.077-20.428,9.64-21.358,22.031
		c-0.831,11.062,10.387,22.135,21.547,22.78c14.469,0.836,24.786-10.483,25.909-22.025
		C116.842,117.527,100.572,106.301,89.688,105.603"/>
	<path fill-rule="evenodd" fill="#8A8C8E" d="M89.648,105.693c-11.817-2.11-20.32,9.598-21.266,21.949
		C67.54,138.64,78.74,149.698,89.84,150.351c14.461,0.851,24.747-10.454,25.888-21.942
		C116.8,117.613,100.466,106.402,89.648,105.693"/>
	<path fill-rule="evenodd" fill="#8B8D8F" d="M89.608,105.783c-11.767-2.144-20.211,9.557-21.172,21.866
		c-0.854,10.937,10.329,21.979,21.368,22.639c14.453,0.865,24.707-10.425,25.866-21.86
		C116.757,117.699,100.361,106.503,89.608,105.783"/>
	<path fill-rule="evenodd" fill="#8B8D90" d="M89.568,105.873c-11.718-2.176-20.103,9.515-21.08,21.784
		c-0.866,10.873,10.299,21.9,21.277,22.568c14.445,0.879,24.667-10.396,25.845-21.777
		C116.715,117.785,100.256,106.604,89.568,105.873"/>
	<path fill-rule="evenodd" fill="#8C8E91" d="M89.528,105.963c-11.668-2.209-19.995,9.474-20.987,21.701
		c-0.877,10.811,10.271,21.823,21.188,22.499c14.437,0.894,24.627-10.368,25.824-21.695
		C116.673,117.871,100.151,106.706,89.528,105.963"/>
	<path fill-rule="evenodd" fill="#8D8F92" d="M89.489,106.054c-11.619-2.243-19.886,9.432-20.894,21.618
		c-0.889,10.748,10.242,21.745,21.098,22.428c14.429,0.908,24.588-10.339,25.803-21.613
		C116.631,117.957,100.045,106.807,89.489,106.054"/>
	<path fill-rule="evenodd" fill="#8E9092" d="M89.449,106.144c-11.569-2.275-19.778,9.39-20.801,21.536
		c-0.9,10.685,10.212,21.667,21.008,22.357c14.421,0.922,24.548-10.311,25.782-21.53C116.588,118.043,99.94,106.908,89.449,106.144"
		/>
	<path fill-rule="evenodd" fill="#8E9093" d="M89.409,106.234c-11.521-2.308-19.669,9.348-20.708,21.453
		c-0.912,10.622,10.184,21.589,20.918,22.287c14.413,0.937,24.508-10.282,25.761-21.448
		C116.546,118.129,99.835,107.009,89.409,106.234"/>
	<path fill-rule="evenodd" fill="#8F9194" d="M89.369,106.324c-11.471-2.341-19.561,9.306-20.615,21.37
		c-0.923,10.56,10.155,21.512,20.828,22.217c14.405,0.951,24.469-10.253,25.74-21.366
		C116.503,118.215,99.729,107.111,89.369,106.324"/>
	<path fill-rule="evenodd" fill="#909295" d="M89.329,106.414c-11.421-2.374-19.452,9.265-20.522,21.288
		c-0.935,10.497,10.125,21.434,20.738,22.146c14.397,0.965,24.429-10.224,25.718-21.283
		C116.46,118.301,99.624,107.212,89.329,106.414"/>
	<path fill-rule="evenodd" fill="#919395" d="M89.29,106.504c-11.372-2.407-19.343,9.223-20.429,21.205
		c-0.946,10.434,10.097,21.357,20.648,22.076c14.39,0.98,24.39-10.195,25.698-21.201C116.418,118.388,99.519,107.313,89.29,106.504"
		/>
	<path fill-rule="evenodd" fill="#919396" d="M89.25,106.595c-11.322-2.44-19.234,9.181-20.336,21.123
		c-0.957,10.371,10.067,21.28,20.558,22.005c14.382,0.995,24.349-10.167,25.676-21.118
		C116.375,118.474,99.414,107.415,89.25,106.595"/>
	<path fill-rule="evenodd" fill="#929497" d="M89.21,106.685c-11.273-2.473-19.126,9.139-20.244,21.04
		c-0.968,10.308,10.039,21.203,20.468,21.935c14.374,1.009,24.31-10.138,25.655-21.036C116.333,118.56,99.309,107.516,89.21,106.685
		"/>
	<path fill-rule="evenodd" fill="#939598" d="M89.17,106.775c-11.223-2.506-19.017,9.097-20.15,20.958
		c-0.979,10.246,10.009,21.125,20.378,21.864c14.366,1.024,24.27-10.108,25.634-20.953C116.29,118.646,99.203,107.617,89.17,106.775
		"/>
	<path fill-rule="evenodd" fill="#949698" d="M89.13,106.865c-11.174-2.539-18.909,9.055-20.058,20.875
		c-0.99,10.182,9.98,21.048,20.289,21.793c14.358,1.039,24.229-10.079,25.613-20.871C116.247,118.732,99.098,107.718,89.13,106.865"
		/>
	<path fill-rule="evenodd" fill="#949699" d="M89.09,106.955c-11.125-2.572-18.799,9.013-19.964,20.792
		c-1.001,10.12,9.951,20.971,20.198,21.724c14.351,1.054,24.19-10.051,25.592-20.789C116.204,118.819,98.993,107.819,89.09,106.955"
		/>
	<path fill-rule="evenodd" fill="#95979A" d="M89.051,107.045c-11.075-2.605-18.691,8.971-19.872,20.71
		c-1.012,10.057,9.922,20.895,20.109,21.653c14.342,1.068,24.15-10.021,25.571-20.706
		C116.162,118.905,98.887,107.921,89.051,107.045"/>
	<path fill-rule="evenodd" fill="#96989B" d="M89.011,107.136c-11.025-2.638-18.582,8.929-19.779,20.627
		c-1.023,9.994,9.893,20.818,20.019,21.583c14.335,1.083,24.11-9.992,25.55-20.624C116.118,118.991,98.782,108.022,89.011,107.136"
		/>
	<path fill-rule="evenodd" fill="#97999B" d="M88.971,107.226c-10.976-2.671-18.473,8.887-19.686,20.545
		c-1.033,9.931,9.864,20.74,19.929,21.512c14.327,1.098,24.07-9.963,25.528-20.541C116.075,119.078,98.677,108.123,88.971,107.226"
		/>
	<path fill-rule="evenodd" fill="#979A9C" d="M88.931,107.316c-10.927-2.704-18.364,8.845-19.593,20.462
		c-1.044,9.868,9.835,20.665,19.839,21.442c14.319,1.113,24.03-9.934,25.507-20.459C116.032,119.164,98.571,108.225,88.931,107.316"
		/>
	<path fill-rule="evenodd" fill="#989A9D" d="M88.891,107.406c-10.877-2.737-18.255,8.802-19.5,20.379
		c-1.055,9.805,9.806,20.587,19.749,21.371c14.312,1.128,23.989-9.904,25.486-20.376C115.989,119.25,98.466,108.326,88.891,107.406"
		/>
	<path fill-rule="evenodd" fill="#999B9E" d="M88.852,107.496c-10.828-2.77-18.146,8.761-19.407,20.297
		c-1.065,9.743,9.777,20.511,19.659,21.301c14.304,1.143,23.949-9.875,25.465-20.294C115.945,119.337,98.361,108.427,88.852,107.496
		"/>
	<path fill-rule="evenodd" fill="#9A9C9E" d="M88.812,107.586c-10.778-2.803-18.037,8.718-19.314,20.214
		c-1.076,9.679,9.748,20.435,19.569,21.23c14.296,1.158,23.909-9.846,25.444-20.211C115.902,119.423,98.255,108.528,88.812,107.586"
		/>
	<path fill-rule="evenodd" fill="#9B9D9F" d="M88.772,107.677c-10.729-2.836-17.927,8.676-19.221,20.131
		c-1.086,9.616,9.719,20.359,19.479,21.16c14.288,1.173,23.869-9.817,25.423-20.129C115.858,119.51,98.15,108.629,88.772,107.677"/>
	<path fill-rule="evenodd" fill="#9B9DA0" d="M88.732,107.767c-10.679-2.869-17.818,8.634-19.128,20.049
		c-1.096,9.553,9.69,20.282,19.39,21.089c14.281,1.188,23.828-9.787,25.401-20.046C115.815,119.596,98.045,108.731,88.732,107.767"
		/>
	<path fill-rule="evenodd" fill="#9C9EA1" d="M88.692,107.857c-10.63-2.902-17.709,8.592-19.036,19.966
		c-1.107,9.49,9.661,20.206,19.299,21.019c14.273,1.204,23.788-9.758,25.381-19.964C115.772,119.683,97.939,108.832,88.692,107.857"
		/>
	<path fill-rule="evenodd" fill="#9D9FA2" d="M88.652,107.947c-10.581-2.935-17.6,8.55-18.942,19.884
		c-1.117,9.428,9.632,20.13,19.209,20.949c14.265,1.219,23.748-9.729,25.359-19.882C115.728,119.769,97.834,108.933,88.652,107.947"
		/>
	<path fill-rule="evenodd" fill="#9EA0A2" d="M88.613,108.037c-10.531-2.968-17.49,8.507-18.85,19.802
		c-1.127,9.364,9.603,20.054,19.119,20.878c14.258,1.234,23.707-9.699,25.338-19.799C115.685,119.855,97.729,109.035,88.613,108.037
		"/>
	<path fill-rule="evenodd" fill="#9EA1A3" d="M88.573,108.127c-10.481-3-17.381,8.465-18.757,19.719
		c-1.137,9.302,9.574,19.978,19.03,20.808c14.25,1.25,23.667-9.669,25.317-19.717C115.641,119.942,97.624,109.136,88.573,108.127"/>
	<path fill-rule="evenodd" fill="#9FA1A4" d="M88.533,108.218c-10.432-3.034-17.271,8.423-18.664,19.636
		c-1.147,9.238,9.545,19.902,18.94,20.737c14.242,1.265,23.625-9.64,25.296-19.634C115.597,120.029,97.519,109.237,88.533,108.218"
		/>
	<path fill-rule="evenodd" fill="#A0A2A5" d="M88.493,108.308c-10.383-3.067-17.162,8.38-18.571,19.553
		c-1.157,9.176,9.516,19.827,18.85,20.667c14.235,1.281,23.585-9.61,25.275-19.552C115.553,120.115,97.413,109.338,88.493,108.308"
		/>
	<path fill-rule="evenodd" fill="#A1A3A5" d="M88.453,108.398c-10.333-3.1-17.052,8.338-18.478,19.471
		c-1.167,9.112,9.486,19.751,18.76,20.596c14.227,1.297,23.545-9.581,25.254-19.47C115.509,120.202,97.308,109.439,88.453,108.398"
		/>
	<path fill-rule="evenodd" fill="#A2A4A6" d="M88.414,108.488c-10.284-3.133-16.943,8.296-18.385,19.388
		c-1.176,9.05,9.458,19.676,18.67,20.526c14.22,1.313,23.504-9.551,25.233-19.387C115.465,120.289,97.203,109.541,88.414,108.488"/>
	<path fill-rule="evenodd" fill="#A2A4A7" d="M88.374,108.579c-10.234-3.166-16.833,8.253-18.292,19.306
		c-1.186,8.986,9.429,19.6,18.58,20.455c14.212,1.328,23.463-9.521,25.211-19.305C115.421,120.375,97.097,109.642,88.374,108.579"/>
	<path fill-rule="evenodd" fill="#A3A5A8" d="M88.334,108.668c-10.185-3.199-16.724,8.211-18.199,19.223
		c-1.196,8.924,9.399,19.525,18.49,20.385c14.205,1.344,23.422-9.492,25.19-19.222C115.376,120.462,96.992,109.743,88.334,108.668"
		/>
	<path fill-rule="evenodd" fill="#A4A6A9" d="M88.294,108.759c-10.135-3.232-16.613,8.168-18.106,19.141
		c-1.205,8.86,9.371,19.45,18.4,20.314c14.197,1.36,23.381-9.461,25.169-19.14C115.333,120.548,96.887,109.845,88.294,108.759"/>
	<path fill-rule="evenodd" fill="#A5A7A9" d="M88.254,108.849c-10.086-3.265-16.504,8.126-18.014,19.058
		c-1.214,8.798,9.342,19.375,18.311,20.244c14.189,1.376,23.34-9.432,25.148-19.057C115.288,120.635,96.781,109.946,88.254,108.849"
		/>
	<path fill-rule="evenodd" fill="#A5A8AA" d="M88.214,108.939c-10.036-3.297-16.394,8.084-17.92,18.976
		c-1.224,8.734,9.313,19.299,18.22,20.173c14.182,1.392,23.3-9.401,25.127-18.975C115.244,120.722,96.676,110.047,88.214,108.939"/>
	<path fill-rule="evenodd" fill="#A6A8AB" d="M88.175,109.029c-9.987-3.331-16.285,8.042-17.828,18.893
		c-1.233,8.671,9.284,19.225,18.13,20.104c14.174,1.408,23.258-9.372,25.106-18.893C115.199,120.809,96.571,110.148,88.175,109.029"
		/>
	<path fill-rule="evenodd" fill="#A7A9AC" d="M88.135,109.12c-9.938-3.364-16.174,7.999-17.734,18.81
		c-1.242,8.608,9.254,19.149,18.04,20.033c14.167,1.424,23.217-9.342,25.085-18.81C115.154,120.896,96.465,110.25,88.135,109.12"/>
	<path fill-rule="evenodd" fill="#A8AAAD" d="M88.095,109.209c-9.888-3.396-16.064,7.956-17.642,18.728
		c-1.251,8.544,9.226,19.074,17.951,19.962c14.159,1.44,23.176-9.312,25.064-18.728C115.11,120.982,96.36,110.351,88.095,109.209"/>
	<path fill-rule="evenodd" fill="#A9ABAD" d="M88.055,109.3c-9.839-3.43-15.954,7.914-17.549,18.645
		c-1.261,8.482,9.197,19,17.861,19.892c14.152,1.457,23.134-9.282,25.042-18.645C115.065,121.069,96.255,110.452,88.055,109.3"/>
	<path fill-rule="evenodd" fill="#A9ACAE" d="M88.015,109.39c-9.789-3.463-15.844,7.871-17.456,18.563
		c-1.269,8.418,9.167,18.925,17.771,19.821c14.145,1.473,23.093-9.251,25.021-18.563C115.02,121.156,96.15,110.553,88.015,109.39"/>
	<path fill-rule="evenodd" fill="#AAACAF" d="M87.976,109.48c-9.74-3.495-15.733,7.829-17.363,18.48
		c-1.278,8.356,9.138,18.851,17.681,19.751c14.136,1.49,23.052-9.222,25-18.48C114.975,121.242,96.044,110.655,87.976,109.48"/>
	<path fill-rule="evenodd" fill="#ABADB0" d="M87.936,109.57c-9.69-3.528-15.623,7.786-17.27,18.397
		c-1.287,8.292,9.109,18.776,17.591,19.68c14.129,1.506,23.01-9.191,24.979-18.398C114.93,121.329,95.939,110.756,87.936,109.57"/>
	<path fill-rule="evenodd" fill="#ACAEB0" d="M87.896,109.661c-9.641-3.562-15.513,7.743-17.177,18.314
		c-1.296,8.23,9.08,18.702,17.501,19.61c14.122,1.523,22.969-9.162,24.958-18.315C114.885,121.416,95.834,110.857,87.896,109.661"/>
	<path fill-rule="evenodd" fill="#ADAFB1" d="M87.856,109.75c-9.591-3.594-15.402,7.701-17.084,18.232
		c-1.304,8.167,9.051,18.627,17.411,19.54c14.114,1.54,22.927-9.131,24.937-18.233C114.839,121.502,95.729,110.958,87.856,109.75"/>
	<path fill-rule="evenodd" fill="#AEB0B2" d="M87.816,109.841c-9.542-3.627-15.292,7.658-16.991,18.149
		c-1.313,8.104,9.022,18.553,17.321,19.469c14.106,1.557,22.885-9.101,24.916-18.15C114.794,121.589,95.623,111.06,87.816,109.841"
		/>
	<path fill-rule="evenodd" fill="#AEB0B3" d="M87.776,109.931c-9.492-3.661-15.182,7.615-16.898,18.067
		c-1.321,8.04,8.993,18.479,17.231,19.398c14.099,1.574,22.844-9.07,24.895-18.068C114.749,121.676,95.518,111.161,87.776,109.931"
		/>
	<path fill-rule="evenodd" fill="#AFB1B4" d="M87.736,110.021c-9.443-3.693-15.07,7.573-16.805,17.984
		c-1.329,7.978,8.964,18.405,17.141,19.329c14.092,1.591,22.802-9.041,24.874-17.986C114.703,121.763,95.413,111.262,87.736,110.021
		"/>
	<path fill-rule="evenodd" fill="#B0B2B4" d="M87.697,110.111c-9.394-3.726-14.96,7.53-16.712,17.902
		c-1.337,7.914,8.935,18.332,17.051,19.258c14.084,1.608,22.76-9.01,24.853-17.903C114.657,121.85,95.307,111.363,87.697,110.111"/>
	<path fill-rule="evenodd" fill="#B1B3B5" d="M87.657,110.202c-9.344-3.759-14.849,7.487-16.619,17.819
		c-1.346,7.852,8.906,18.257,16.961,19.188c14.076,1.625,22.718-8.979,24.832-17.821C114.612,121.937,95.202,111.464,87.657,110.202
		"/>
	<path fill-rule="evenodd" fill="#B2B4B6" d="M87.617,110.292c-9.294-3.792-14.738,7.445-16.527,17.737
		c-1.354,7.788,8.877,18.184,16.872,19.117c14.069,1.642,22.675-8.948,24.811-17.738C114.565,122.024,95.097,111.566,87.617,110.292
		"/>
	<path fill-rule="evenodd" fill="#B2B4B7" d="M87.577,110.382c-9.245-3.825-14.627,7.401-16.434,17.654
		c-1.361,7.725,8.848,18.11,16.782,19.046c14.062,1.66,22.633-8.918,24.789-17.656C114.52,122.111,94.992,111.667,87.577,110.382"/>
	<path fill-rule="evenodd" fill="#B3B5B8" d="M87.538,110.472c-9.196-3.858-14.516,7.358-16.341,17.571
		c-1.369,7.662,8.818,18.037,16.691,18.976c14.054,1.677,22.591-8.888,24.769-17.574C114.474,122.198,94.886,111.768,87.538,110.472
		"/>
	<path fill-rule="evenodd" fill="#B4B6B8" d="M87.498,110.562c-9.146-3.891-14.404,7.316-16.248,17.489
		c-1.377,7.598,8.789,17.962,16.602,18.905c14.047,1.695,22.548-8.857,24.747-17.491C114.427,122.285,94.781,111.87,87.498,110.562"
		/>
	<path fill-rule="evenodd" fill="#B5B7B9" d="M87.458,110.652c-9.097-3.924-14.293,7.273-16.155,17.406
		c-1.384,7.536,8.761,17.889,16.512,18.835c14.039,1.712,22.505-8.826,24.726-17.408C114.381,122.372,94.676,111.971,87.458,110.652
		"/>
	<path fill-rule="evenodd" fill="#B6B8BA" d="M87.418,110.743c-9.047-3.957-14.182,7.23-16.062,17.324
		c-1.392,7.472,8.731,17.816,16.422,18.765c14.032,1.731,22.463-8.796,24.705-17.326C114.334,122.459,94.57,112.072,87.418,110.743"
		/>
	<path fill-rule="evenodd" fill="#B7B8BB" d="M87.378,110.833c-8.998-3.99-14.07,7.188-15.969,17.241
		c-1.399,7.409,8.702,17.743,16.332,18.694c14.024,1.749,22.42-8.765,24.684-17.244C114.288,122.546,94.465,112.173,87.378,110.833"
		/>
	<path fill-rule="evenodd" fill="#B7B9BC" d="M87.338,110.923c-8.948-4.023-13.958,7.145-15.876,17.159
		c-1.407,7.346,8.672,17.669,16.242,18.624c14.017,1.767,22.377-8.734,24.663-17.161C114.241,122.633,94.36,112.274,87.338,110.923"
		/>
	<path fill-rule="evenodd" fill="#B8BABC" d="M87.298,111.013c-8.899-4.056-13.847,7.102-15.783,17.076
		c-1.414,7.283,8.644,17.597,16.152,18.554c14.009,1.785,22.334-8.704,24.642-17.079C114.194,122.72,94.254,112.376,87.298,111.013"
		/>
	<path fill-rule="evenodd" fill="#B9BBBD" d="M87.259,111.103c-8.85-4.089-13.736,7.059-15.69,16.994
		c-1.42,7.22,8.615,17.524,16.063,18.483c14.001,1.803,22.292-8.673,24.62-16.997C114.147,122.807,94.149,112.477,87.259,111.103"/>
	<path fill-rule="evenodd" fill="#BABCBE" d="M87.219,111.193c-8.8-4.122-13.624,7.016-15.597,16.911
		c-1.428,7.157,8.585,17.451,15.972,18.413c13.994,1.822,22.248-8.643,24.599-16.914C114.1,122.894,94.044,112.578,87.219,111.193"
		/>
	<path fill-rule="evenodd" fill="#BBBDBF" d="M87.179,111.284c-8.75-4.155-13.511,6.973-15.504,16.828
		c-1.435,7.094,8.556,17.378,15.882,18.342c13.986,1.84,22.205-8.611,24.578-16.832C114.053,122.981,93.938,112.68,87.179,111.284"
		/>
	<path fill-rule="evenodd" fill="#BCBDC0" d="M87.139,111.374c-8.701-4.188-13.399,6.931-15.412,16.746
		c-1.441,7.031,8.527,17.306,15.792,18.272c13.979,1.859,22.161-8.581,24.557-16.75C114.005,123.068,93.833,112.781,87.139,111.374"
		/>
	<path fill-rule="evenodd" fill="#BCBEC0" d="M87.1,111.464c-8.652-4.221-13.288,6.888-15.319,16.663
		c-1.448,6.967,8.498,17.233,15.703,18.201c13.971,1.877,22.117-8.55,24.536-16.667C113.958,123.155,93.728,112.882,87.1,111.464"/>
	<path fill-rule="evenodd" fill="#BDBFC1" d="M87.06,111.554c-8.602-4.254-13.175,6.844-15.226,16.581
		c-1.454,6.904,8.469,17.16,15.612,18.13c13.964,1.896,22.074-8.519,24.515-16.584C113.91,123.242,93.623,112.983,87.06,111.554"/>
	<path fill-rule="evenodd" fill="#BEC0C2" d="M87.02,111.644c-8.553-4.287-13.063,6.802-15.133,16.498
		c-1.461,6.841,8.439,17.088,15.522,18.06c13.956,1.915,22.03-8.488,24.494-16.502C113.862,123.329,93.518,113.084,87.02,111.644"/>
	<path fill-rule="evenodd" fill="#BFC1C3" d="M86.98,111.734c-8.503-4.32-12.95,6.759-15.04,16.416
		c-1.467,6.778,8.41,17.016,15.433,17.99c13.948,1.935,21.986-8.457,24.472-16.419C113.814,123.416,93.412,113.186,86.98,111.734"/>
	<path fill-rule="evenodd" fill="#C0C2C4" d="M86.94,111.825c-8.454-4.353-12.837,6.716-14.947,16.333
		c-1.473,6.715,8.381,16.944,15.343,17.919c13.941,1.954,21.942-8.426,24.452-16.337C113.766,123.503,93.307,113.287,86.94,111.825"
		/>
	<path fill-rule="evenodd" fill="#C1C2C4" d="M86.9,111.915c-8.404-4.386-12.724,6.673-14.854,16.25
		c-1.479,6.652,8.352,16.871,15.253,17.849c13.934,1.974,21.897-8.395,24.43-16.254C113.718,123.59,93.202,113.388,86.9,111.915"/>
	<path fill-rule="evenodd" fill="#C1C3C5" d="M86.86,112.005c-8.354-4.419-12.611,6.63-14.761,16.167
		c-1.485,6.589,8.322,16.799,15.163,17.778c13.926,1.993,21.853-8.364,24.409-16.172C113.669,123.677,93.096,113.49,86.86,112.005"
		/>
	<path fill-rule="evenodd" fill="#C2C4C6" d="M86.821,112.095c-8.306-4.452-12.499,6.587-14.668,16.085
		c-1.491,6.526,8.294,16.728,15.073,17.708c13.918,2.013,21.809-8.333,24.388-16.09C113.621,123.764,92.991,113.591,86.821,112.095"
		/>
	<path fill-rule="evenodd" fill="#C3C5C7" d="M86.781,112.185c-8.256-4.484-12.385,6.544-14.575,16.002
		c-1.497,6.463,8.264,16.656,14.983,17.638c13.91,2.033,21.764-8.303,24.367-16.007C113.572,123.851,92.886,113.692,86.781,112.185"
		/>
	<path fill-rule="evenodd" fill="#C4C6C8" d="M86.741,112.275c-8.207-4.518-12.272,6.501-14.482,15.92
		c-1.502,6.4,8.235,16.583,14.893,17.567c13.903,2.053,21.719-8.271,24.346-15.925C113.522,123.938,92.78,113.793,86.741,112.275"/>
	<path fill-rule="evenodd" fill="#C5C6C8" d="M86.701,112.366c-8.157-4.551-12.158,6.459-14.389,15.837
		c-1.508,6.337,8.206,16.513,14.803,17.497c13.895,2.074,21.673-8.241,24.325-15.843C113.474,124.025,92.675,113.895,86.701,112.366
		"/>
	<path fill-rule="evenodd" fill="#C5C7C9" d="M86.662,112.456c-8.108-4.583-12.045,6.416-14.297,15.755
		c-1.513,6.274,8.177,16.44,14.713,17.426c13.888,2.094,21.628-8.21,24.304-15.76C113.424,124.112,92.57,113.996,86.662,112.456"/>
	<path fill-rule="evenodd" fill="#C6C8CA" d="M86.622,112.546c-8.058-4.617-11.931,6.374-14.204,15.672
		c-1.519,6.212,8.147,16.369,14.624,17.356c13.88,2.115,21.583-8.179,24.282-15.678C113.375,124.199,92.464,114.097,86.622,112.546"
		/>
	<path fill-rule="evenodd" fill="#C7C9CB" d="M86.582,112.636c-8.009-4.65-11.817,6.331-14.111,15.589
		c-1.523,6.148,8.118,16.297,14.534,17.285c13.872,2.136,21.537-8.148,24.261-15.595C113.325,124.286,92.359,114.198,86.582,112.636
		"/>
	<path fill-rule="evenodd" fill="#C8CACC" d="M86.542,112.726c-7.959-4.682-11.703,6.288-14.018,15.507
		c-1.528,6.085,8.088,16.226,14.443,17.215c13.864,2.157,21.491-8.117,24.24-15.513C113.276,124.373,92.254,114.3,86.542,112.726"/>
	<path fill-rule="evenodd" fill="#C9CBCC" d="M86.502,112.816c-7.91-4.715-11.588,6.245-13.925,15.424
		c-1.533,6.022,8.059,16.155,14.354,17.145c13.856,2.178,21.445-8.086,24.219-15.43C113.226,124.459,92.149,114.401,86.502,112.816"
		/>
	<path fill-rule="evenodd" fill="#CACBCD" d="M86.462,112.907c-7.86-4.749-11.474,6.202-13.832,15.342
		c-1.538,5.96,8.03,16.084,14.264,17.074c13.849,2.199,21.399-8.055,24.198-15.348C113.176,124.546,92.043,114.502,86.462,112.907"
		/>
	<path fill-rule="evenodd" fill="#CBCCCE" d="M86.422,112.997c-7.811-4.781-11.359,6.16-13.739,15.259
		c-1.542,5.897,8,16.013,14.174,17.003c13.84,2.221,21.353-8.024,24.177-15.265C113.125,124.633,91.938,114.604,86.422,112.997"/>
	<path fill-rule="evenodd" fill="#CBCDCF" d="M86.383,113.087c-7.762-4.814-11.244,6.117-13.646,15.177
		c-1.547,5.834,7.971,15.942,14.084,16.933c13.833,2.243,21.305-7.994,24.155-15.183C113.075,124.719,91.833,114.705,86.383,113.087
		"/>
	<path fill-rule="evenodd" fill="#CCCED0" d="M86.343,113.177c-7.712-4.848-11.129,6.074-13.553,15.094
		c-1.551,5.771,7.942,15.871,13.994,16.863c13.825,2.265,21.259-7.963,24.135-15.101C113.024,124.806,91.728,114.806,86.343,113.177
		"/>
	<path fill-rule="evenodd" fill="#CDCFD0" d="M86.303,113.267c-7.663-4.88-11.015,6.032-13.46,15.012
		c-1.555,5.709,7.912,15.8,13.904,16.792c13.817,2.287,21.212-7.932,24.113-15.018C112.973,124.893,91.622,114.907,86.303,113.267"
		/>
	<path fill-rule="evenodd" fill="#CECFD1" d="M86.263,113.357c-7.613-4.914-10.899,5.989-13.367,14.929
		c-1.559,5.646,7.883,15.729,13.814,16.722c13.809,2.31,21.165-7.902,24.092-14.936C112.922,124.979,91.517,115.008,86.263,113.357"
		/>
	<path fill-rule="evenodd" fill="#CFD0D2" d="M86.224,113.448c-7.564-4.946-10.783,5.946-13.274,14.846
		c-1.563,5.583,7.854,15.659,13.724,16.651c13.8,2.333,21.117-7.871,24.071-14.854C112.871,125.066,91.412,115.109,86.224,113.448"
		/>
	<path fill-rule="evenodd" fill="#D0D1D3" d="M86.184,113.538c-7.514-4.979-10.667,5.904-13.182,14.764
		c-1.567,5.521,7.824,15.589,13.635,16.581c13.792,2.355,21.069-7.841,24.05-14.771C112.82,125.152,91.306,115.211,86.184,113.538"
		/>
	<path fill-rule="evenodd" fill="#D0D2D3" d="M86.144,113.628c-7.465-5.012-10.552,5.862-13.089,14.681
		c-1.57,5.458,7.794,15.518,13.544,16.51c13.784,2.378,21.021-7.811,24.029-14.688C112.768,125.238,91.201,115.312,86.144,113.628"
		/>
	<path fill-rule="evenodd" fill="#D1D3D4" d="M86.104,113.718c-7.415-5.045-10.436,5.819-12.996,14.599
		c-1.573,5.395,7.765,15.447,13.455,16.439c13.776,2.402,20.973-7.78,24.008-14.605C112.716,125.325,91.096,115.414,86.104,113.718"
		/>
	<path fill-rule="evenodd" fill="#D2D3D5" d="M86.064,113.808c-7.366-5.078-10.318,5.777-12.902,14.516
		c-1.577,5.333,7.735,15.378,13.364,16.37c13.768,2.426,20.925-7.75,23.987-14.523C112.664,125.411,90.991,115.515,86.064,113.808"
		/>
	<path fill-rule="evenodd" fill="#D3D4D6" d="M86.024,113.898c-7.316-5.111-10.202,5.734-12.81,14.434
		c-1.58,5.27,7.706,15.308,13.275,16.299c13.759,2.45,20.875-7.719,23.965-14.441C112.612,125.497,90.885,115.616,86.024,113.898"/>
	<path fill-rule="evenodd" fill="#D4D5D7" d="M85.984,113.989c-7.267-5.145-10.085,5.692-12.717,14.351
		c-1.583,5.208,7.676,15.237,13.185,16.229c13.751,2.474,20.827-7.689,23.944-14.358C112.56,125.583,90.78,115.717,85.984,113.989"
		/>
	<path fill-rule="evenodd" fill="#D4D6D7" d="M85.945,114.079c-7.218-5.177-9.968,5.651-12.624,14.269
		c-1.586,5.146,7.647,15.167,13.095,16.158c13.742,2.499,20.777-7.66,23.923-14.276C112.507,125.669,90.675,115.818,85.945,114.079"
		/>
	<path fill-rule="evenodd" fill="#D5D7D8" d="M85.905,114.169c-7.168-5.21-9.85,5.608-12.531,14.186
		c-1.589,5.083,7.617,15.098,13.005,16.088c13.734,2.524,20.727-7.63,23.902-14.194C112.454,125.755,90.569,115.919,85.905,114.169"
		/>
	<path fill-rule="evenodd" fill="#D6D7D9" d="M85.865,114.259c-7.119-5.243-9.734,5.566-12.438,14.103
		c-1.591,5.021,7.587,15.028,12.915,16.017c13.726,2.548,20.678-7.6,23.881-14.111C112.401,125.841,90.464,116.021,85.865,114.259"
		/>
	<path fill-rule="evenodd" fill="#D7D8DA" d="M85.825,114.349c-7.069-5.276-9.615,5.525-12.345,14.021
		c-1.593,4.958,7.558,14.958,12.825,15.947c13.717,2.574,20.627-7.57,23.86-14.029C112.348,125.927,90.359,116.122,85.825,114.349"
		/>
	<path fill-rule="evenodd" fill="#D8D9DB" d="M85.786,114.439c-7.02-5.309-9.497,5.483-12.252,13.938
		c-1.596,4.896,7.528,14.889,12.735,15.876c13.708,2.6,20.577-7.542,23.839-13.947C112.294,126.012,90.253,116.223,85.786,114.439"
		/>
	<path fill-rule="evenodd" fill="#D9DADB" d="M85.746,114.53c-6.97-5.342-9.378,5.441-12.159,13.855
		c-1.598,4.834,7.498,14.819,12.645,15.806c13.699,2.626,20.526-7.512,23.818-13.864C112.241,126.098,90.148,116.325,85.746,114.53"
		/>
	<path fill-rule="evenodd" fill="#D9DBDC" d="M85.706,114.62c-6.92-5.375-9.26,5.4-12.066,13.773
		c-1.6,4.772,7.469,14.75,12.556,15.735c13.69,2.652,20.475-7.483,23.796-13.782C112.187,126.183,90.043,116.426,85.706,114.62"/>
	<path fill-rule="evenodd" fill="#DADCDD" d="M85.666,114.71c-6.871-5.408-9.141,5.358-11.974,13.69
		c-1.602,4.71,7.439,14.681,12.465,15.665c13.681,2.68,20.423-7.454,23.775-13.699C112.132,126.269,89.938,116.527,85.666,114.71"/>
	<path fill-rule="evenodd" fill="#DBDCDE" d="M85.626,114.8c-6.822-5.441-9.021,5.317-11.88,13.607
		c-1.603,4.648,7.409,14.611,12.375,15.595c13.672,2.707,20.372-7.425,23.754-13.617C112.079,126.354,89.833,116.628,85.626,114.8"
		/>
	<path fill-rule="evenodd" fill="#DCDDDE" d="M85.586,114.891c-6.772-5.474-8.901,5.276-11.788,13.525
		c-1.604,4.586,7.379,14.542,12.285,15.524c13.663,2.735,20.319-7.397,23.733-13.534C112.024,126.438,89.727,116.729,85.586,114.891
		"/>
	<path fill-rule="evenodd" fill="#DDDEDF" d="M85.546,114.98c-6.723-5.507-8.782,5.235-11.695,13.442
		c-1.606,4.524,7.35,14.473,12.196,15.454c13.654,2.762,20.267-7.369,23.712-13.452C111.969,126.523,89.622,116.831,85.546,114.98"
		/>
	<path fill-rule="evenodd" fill="#DEDFE0" d="M85.507,115.071c-6.673-5.54-8.661,5.194-11.602,13.36
		c-1.607,4.462,7.32,14.404,12.106,15.383c13.644,2.791,20.213-7.34,23.691-13.369C111.915,126.608,89.517,116.932,85.507,115.071"
		/>
	<path fill-rule="evenodd" fill="#DEE0E1" d="M85.467,115.161c-6.624-5.573-8.54,5.153-11.509,13.277
		c-1.608,4.401,7.29,14.335,12.016,15.313c13.635,2.82,20.16-7.313,23.67-13.287C111.859,126.693,89.411,117.033,85.467,115.161"/>
	<path fill-rule="evenodd" fill="#DFE0E2" d="M85.427,115.251c-6.575-5.606-8.419,5.113-11.416,13.195
		c-1.609,4.339,7.26,14.266,11.926,15.242c13.625,2.85,20.106-7.286,23.648-13.205C111.804,126.777,89.306,117.135,85.427,115.251"
		/>
	<path fill-rule="evenodd" fill="#E0E1E2" d="M85.387,115.341c-6.525-5.639-8.298,5.072-11.323,13.112
		c-1.609,4.278,7.23,14.198,11.836,15.172c13.616,2.879,20.053-7.259,23.628-13.122C111.749,126.861,89.201,117.236,85.387,115.341"
		/>
	<path fill-rule="evenodd" fill="#E1E2E3" d="M85.348,115.432c-6.476-5.672-8.176,5.032-11.23,13.029
		c-1.61,4.216,7.2,14.129,11.746,15.102c13.605,2.91,19.998-7.232,23.606-13.04C111.693,126.945,89.095,117.337,85.348,115.432"/>
	<path fill-rule="evenodd" fill="#E2E3E4" d="M85.308,115.521c-6.426-5.705-8.054,4.993-11.137,12.947
		c-1.611,4.155,7.17,14.061,11.656,15.031c13.595,2.94,19.943-7.206,23.585-12.958C111.637,127.029,88.99,117.438,85.308,115.521"/>
	<path fill-rule="evenodd" fill="#E3E4E5" d="M85.268,115.612c-6.376-5.738-7.931,4.953-11.044,12.864
		c-1.611,4.094,7.14,13.992,11.566,14.96c13.585,2.972,19.888-7.18,23.564-12.875C111.581,127.112,88.885,117.54,85.268,115.612"/>
	<path fill-rule="evenodd" fill="#E3E4E5" d="M85.228,115.702c-6.327-5.771-7.808,4.913-10.952,12.781
		c-1.611,4.033,7.11,13.924,11.477,14.89c13.575,3.003,19.832-7.154,23.543-12.792C111.524,127.196,88.779,117.641,85.228,115.702"
		/>
	<path fill-rule="evenodd" fill="#E4E5E6" d="M85.188,115.792c-6.278-5.804-7.684,4.874-10.858,12.699
		c-1.611,3.972,7.08,13.856,11.386,14.82c13.564,3.036,19.776-7.129,23.522-12.71C111.468,127.279,88.674,117.742,85.188,115.792"/>
	<path fill-rule="evenodd" fill="#E5E6E7" d="M85.148,115.882c-6.229-5.837-7.561,4.835-10.766,12.616
		c-1.611,3.911,7.049,13.788,11.296,14.75c13.554,3.068,19.72-7.104,23.501-12.627C111.412,127.362,88.569,117.843,85.148,115.882"
		/>
	<path fill-rule="evenodd" fill="#E6E7E8" d="M85.108,115.973c-6.179-5.87-7.436,4.796-10.672,12.534
		c-1.61,3.85,7.019,13.719,11.207,14.679c13.542,3.103,19.662-7.08,23.479-12.545C111.354,127.444,88.463,117.945,85.108,115.973"/>
	<path fill-rule="evenodd" fill="#E7E8E9" d="M85.069,116.063c-6.129-5.902-7.312,4.758-10.58,12.452
		c-1.609,3.789,6.989,13.651,11.117,14.608c13.532,3.136,19.605-7.056,23.459-12.462C111.297,127.527,88.358,118.046,85.069,116.063
		"/>
	<path fill-rule="evenodd" fill="#E8E8E9" d="M85.029,116.153c-6.08-5.936-7.186,4.72-10.487,12.369
		c-1.609,3.729,6.958,13.584,11.027,14.538c13.52,3.171,19.547-7.034,23.438-12.38C111.24,127.609,88.253,118.147,85.029,116.153"/>
	<path fill-rule="evenodd" fill="#E9E9EA" d="M84.989,116.243c-6.031-5.969-7.06,4.682-10.394,12.286
		c-1.608,3.668,6.928,13.516,10.937,14.467c13.509,3.207,19.489-7.011,23.417-12.298C111.183,127.691,88.148,118.249,84.989,116.243
		"/>
	<path fill-rule="evenodd" fill="#E9EAEB" d="M84.949,116.333c-5.981-6.001-6.933,4.645-10.301,12.204
		c-1.607,3.608,6.897,13.448,10.847,14.397c13.497,3.242,19.43-6.989,23.396-12.215C111.125,127.773,88.042,118.35,84.949,116.333"
		/>
	<path fill-rule="evenodd" fill="#EAEBEC" d="M84.91,116.423c-5.932-6.035-6.807,4.607-10.208,12.121
		c-1.606,3.547,6.868,13.38,10.757,14.326c13.485,3.279,19.371-6.967,23.374-12.133C111.068,127.854,87.937,118.451,84.91,116.423"
		/>
	<path fill-rule="evenodd" fill="#EBECEC" d="M84.87,116.514c-5.882-6.068-6.68,4.57-10.115,12.038
		c-1.605,3.488,6.837,13.313,10.667,14.256c13.473,3.317,19.311-6.947,23.353-12.051C111.01,127.935,87.832,118.552,84.87,116.514"
		/>
	<path fill-rule="evenodd" fill="#ECEDED" d="M84.83,116.604c-5.833-6.101-6.551,4.535-10.022,11.956
		c-1.604,3.428,6.806,13.246,10.577,14.186c13.46,3.356,19.251-6.927,23.332-11.968C110.952,128.016,87.727,118.653,84.83,116.604"
		/>
	<path fill-rule="evenodd" fill="#EDEDEE" d="M84.79,116.694c-5.783-6.133-6.422,4.499-9.929,11.873
		c-1.602,3.369,6.775,13.178,10.487,14.115c13.448,3.395,19.19-6.908,23.311-11.886C110.894,128.096,87.621,118.754,84.79,116.694"
		/>
	<path fill-rule="evenodd" fill="#EEEEEF" d="M84.75,116.784c-5.733-6.167-6.293,4.463-9.836,11.791
		c-1.6,3.309,6.745,13.111,10.397,14.044c13.434,3.435,19.129-6.889,23.29-11.803C110.836,128.176,87.516,118.856,84.75,116.784"/>
	<path fill-rule="evenodd" fill="#EEEFF0" d="M84.71,116.874c-5.685-6.199-6.163,4.429-9.744,11.708
		c-1.598,3.25,6.714,13.044,10.308,13.975c13.42,3.476,19.067-6.872,23.269-11.721C110.778,128.256,87.411,118.957,84.71,116.874"/>
	<path fill-rule="evenodd" fill="#EFF0F0" d="M84.67,116.964c-5.635-6.232-6.032,4.394-9.65,11.625
		c-1.596,3.19,6.683,12.977,10.217,13.904c13.407,3.518,19.005-6.854,23.248-11.638C110.72,128.335,87.305,119.059,84.67,116.964"/>
	<path fill-rule="evenodd" fill="#F0F1F1" d="M84.631,117.055c-5.585-6.266-5.901,4.36-9.558,11.542
		c-1.594,3.131,6.652,12.91,10.127,13.833c13.393,3.56,18.943-6.839,23.226-11.556C110.662,128.414,87.2,119.16,84.631,117.055"/>
	<path fill-rule="evenodd" fill="#F1F1F2" d="M84.591,117.145c-5.536-6.298-5.77,4.328-9.465,11.46
		c-1.592,3.073,6.622,12.843,10.038,13.763c13.378,3.605,18.881-6.823,23.206-11.474C110.603,128.493,87.095,119.261,84.591,117.145
		"/>
	<path fill-rule="evenodd" fill="#F2F2F3" d="M84.551,117.235c-5.487-6.332-5.637,4.295-9.372,11.378
		c-1.589,3.014,6.59,12.775,9.948,13.692c13.364,3.65,18.817-6.809,23.184-11.391C110.544,128.571,86.99,119.362,84.551,117.235"/>
	<path fill-rule="evenodd" fill="#F3F3F3" d="M84.511,117.325c-5.437-6.365-5.503,4.263-9.279,11.295
		c-1.587,2.956,6.559,12.708,9.857,13.622c13.349,3.696,18.753-6.796,23.163-11.309C110.486,128.648,86.884,119.463,84.511,117.325"
		/>
	<path fill-rule="evenodd" fill="#F3F4F4" d="M84.471,117.415c-5.387-6.397-5.368,4.232-9.186,11.213
		c-1.584,2.897,6.528,12.642,9.768,13.551c13.332,3.743,18.689-6.784,23.142-11.226C110.428,128.726,86.779,119.564,84.471,117.415"
		/>
	<path fill-rule="evenodd" fill="#F4F5F5" d="M84.432,117.505c-5.338-6.43-5.235,4.201-9.093,11.13
		c-1.582,2.84,6.497,12.575,9.678,13.481c13.315,3.792,18.625-6.774,23.121-11.144C110.37,128.802,86.674,119.666,84.432,117.505"/>
	<path fill-rule="evenodd" fill="#F5F6F6" d="M84.392,117.596c-5.289-6.463-5.098,4.172-9,11.047
		c-1.579,2.782,6.465,12.509,9.588,13.411c13.299,3.842,18.561-6.764,23.1-11.062C110.312,128.878,86.568,119.767,84.392,117.596"/>
	<path fill-rule="evenodd" fill="#F6F6F7" d="M84.352,117.686c-5.239-6.496-4.962,4.143-8.907,10.965
		c-1.576,2.725,6.434,12.442,9.498,13.34c13.281,3.893,18.495-6.755,23.079-10.979C110.253,128.955,86.463,119.868,84.352,117.686"
		/>
	<path fill-rule="evenodd" fill="#F7F7F8" d="M84.312,117.776c-5.189-6.529-4.823,4.116-8.814,10.882
		c-1.573,2.668,6.402,12.375,9.408,13.27c13.264,3.945,18.43-6.748,23.058-10.896C110.195,129.03,86.358,119.97,84.312,117.776"/>
	<path fill-rule="evenodd" fill="#F8F8F9" d="M84.272,117.866c-5.141-6.563-4.687,4.088-8.722,10.799
		c-1.57,2.612,6.371,12.31,9.318,13.2c13.245,4,18.365-6.742,23.036-10.814C110.138,129.105,86.252,120.071,84.272,117.866"/>
	<path fill-rule="evenodd" fill="#F9F9FA" d="M84.232,117.956c-5.091-6.595-4.546,4.063-8.628,10.717
		c-1.567,2.555,6.339,12.243,9.229,13.129c13.225,4.055,18.299-6.736,23.015-10.731C110.081,129.18,86.147,120.172,84.232,117.956"
		/>
	<path fill-rule="evenodd" fill="#FAFBFB" d="M84.193,118.046c-5.042-6.628-4.407,4.037-8.536,10.634
		c-1.564,2.499,6.307,12.177,9.138,13.059c13.205,4.113,18.233-6.733,22.994-10.649C110.023,129.253,86.042,120.273,84.193,118.046"
		/>
	<path fill-rule="evenodd" fill="#FCFCFC" d="M84.153,118.137c-4.992-6.661-4.265,4.013-8.442,10.552
		c-1.561,2.443,6.275,12.11,9.048,12.988c13.184,4.171,18.167-6.73,22.973-10.566C109.965,129.327,85.937,120.375,84.153,118.137"/>
	<path fill-rule="evenodd" fill="#FDFDFD" d="M84.113,118.227c-4.943-6.694-4.124,3.991-8.35,10.469
		c-1.558,2.388,6.243,12.044,8.958,12.918c13.162,4.234,18.102-6.73,22.952-10.484C109.909,129.4,85.832,120.476,84.113,118.227"/>
	<path fill-rule="evenodd" fill="#FFFFFF" d="M84.073,118.317c-4.893-6.727-3.974,3.974-8.257,10.387
		c-1.552,2.334,6.211,11.976,8.869,12.847c13.143,4.285,18.042-6.721,22.931-10.402C109.855,129.476,85.726,120.577,84.073,118.317"
		/>
</g>
<path fill="#737373" d="M114.571,142.608l-2.666-1.537c0.213-1.633,0.425-2.874,0.425-4.373c0-1.415-0.191-3.046-0.733-5.469
	c1.217-1.476,3.804-6.23,4.157-8.283c1.368,0.104,2.631,0.324,3.404,0.665l0.03-0.07c-0.026-0.199-0.048-0.398-0.079-0.595
	c-0.897-0.331-2.096-0.524-3.396-0.62c-1.465-4.504-3.774-8.473-7.278-11.654c0.399-1.588,0.667-3.177,0.773-4.757
	c-0.065-0.052-0.131-0.103-0.196-0.154l-0.404-0.025c-0.095,1.565-0.36,3.15-0.758,4.737l-6.945,0.137
	c-2.28-3.328-6.564-5.746-11.958-7.215c0.346-1.018,0.822-1.969,1.397-2.899l-0.222-0.137v-0.332h-0.04h-0.172l-0.088,0.146
	c-0.631,1.019-1.155,2.074-1.521,3.218c-1.272,0.641-7.459,4.255-10.559,8.755l-3.576-0.35c0.064-0.863,0.102-1.559,0.102-2.159
	c0-0.708-0.056-1.282-0.195-1.823l-0.594,0.153c0.124,0.477,0.175,0.994,0.175,1.67c0,0.608-0.042,1.344-0.112,2.279
	c-2.773,2.242-4.955,5.48-6.481,9.503l-1.209,0.836l0.349,0.506l0.837-0.579c0.227,2.472,1.535,6.581,2.881,8.091
	c-0.34,1.173-0.45,3.134-0.452,5.187c0,2.801,0.214,5.705,0.435,6.801l0.011,0.06l0.032,0.045l0,0
	c1.644,2.51,6.264,3.852,10.882,5.343l3.782,4.897l0.334,0.656l0.548-0.278l-0.125-0.245l13.313-0.176l0.528,0.847l0.521-0.325
	l-0.543-0.871l2.631-4.404l0.004,0.016c2.773-0.748,8.482-4.698,9.834-6.191l2.574,1.483c0.121-0.167,0.241-0.334,0.358-0.503
	C114.583,142.613,114.577,142.61,114.571,142.608z M100.744,111.236c0.004,0,0.008,0,0.012,0c0.012,0.001,0.024,0,0.038-0.002
	c0.016-0.002,0.031-0.005,0.044-0.01l7.14-0.139c3.474,3.142,5.752,7.07,7.197,11.573c-0.074,1.505-2.921,6.884-4.058,8.192
	c-0.149,0.009-0.372,0.014-0.649,0.014c-1.83,0.002-6.089-0.244-9.66-1.14l-5.115-8.061c0.467-1.472,1.396-3.972,2.398-6.167
	C99.029,113.371,100.183,111.501,100.744,111.236z M100.299,130.069c-0.19,1.02-3.801,8.083-5.671,9.987l-9.573,0.501
	c-1.21-0.951-5.104-6.004-6.555-10.77l4.172-8.328c1.977-0.223,3.73-0.309,5.253-0.309c4.3,0,6.732,0.676,7.238,0.825
	L100.299,130.069z M88.583,103.933c5.32,1.412,9.498,3.758,11.704,6.863l0.01,0.015c-0.919,0.643-1.81,2.407-2.764,4.43
	c-0.983,2.154-1.888,4.574-2.378,6.09c-0.818-0.228-3.262-0.794-7.229-0.794c-1.521,0-3.263,0.085-5.224,0.302
	c-0.788-2.841-3.465-7.201-4.423-8.392C81.257,108.125,87.452,104.49,88.583,103.933z M67.62,121.674
	c1.5-3.968,3.632-7.123,6.314-9.286l3.814,0.374c0.772,0.898,3.724,5.671,4.399,8.374l-4.181,8.345
	c-2.796,0.443-4.733,0.164-7.583,0.395C69.148,128.571,67.647,123.845,67.62,121.674z M80.653,147.013
	c-4.418-1.398-8.717-2.807-10.12-4.869c-0.005-0.01-0.012-0.02-0.018-0.029c0,0-0.006-0.011-0.022-0.036
	c-0.2-1.048-0.413-3.914-0.411-6.62c-0.004-1.994,0.121-3.936,0.417-4.977c2.707-0.216,4.65,0.048,7.458-0.379
	c1.502,4.714,5.05,9.446,6.556,10.795C81.87,143.379,80.854,145.883,80.653,147.013z M98.626,151.95l-13.61,0.179l-3.779-4.894
	c0.093-0.808,1.062-3.524,3.883-6.067l9.553-0.501c2.627,1.765,4.982,4.139,6.572,6.901L98.626,151.95z M101.292,147.492
	l-0.005,0.01c0.006-0.028,0.02-0.062,0.046-0.097C101.315,147.432,101.301,147.46,101.292,147.492z M111.278,141.144
	c-0.858,1.12-6.914,5.368-9.53,6.069c-1.6-2.761-3.923-5.124-6.52-6.912c1.953-2.223,5.067-8.139,5.611-9.934
	c3.615,0.877,7.782,1.112,9.629,1.112c0.217,0,0.4-0.003,0.55-0.009c0.52,2.337,0.697,3.89,0.697,5.228
	C111.715,138.168,111.502,139.399,111.278,141.144z"/>
<path fill="#FFFFFF" d="M73.36,111.617c-2.783,2.231-4.975,5.473-6.503,9.522l-1.249,0.865l0.17,0.25v-0.002l1.061-0.732
	c0.141,2.418,1.56,6.91,2.924,8.336c-0.353,1.121-0.471,3.13-0.473,5.227c0,2.789,0.217,5.699,0.434,6.77
	c0.01,0.018,0.019,0.034,0.027,0.048l-0.007,0.005c1.571,2.425,6.181,3.795,10.8,5.28l0.045,0.014l3.822,4.95l0.339,0.665
	l0.27-0.135l-0.241-0.47l13.653-0.18l0.575,0.922l0.256-0.159l-0.594-0.953l2.704-4.522c0.004-0.004,0.008-0.008,0.013-0.014
	c0.015-0.015,0.027-0.032,0.037-0.051c0.003-0.009,0.005-0.017,0.007-0.025l0.019,0.074c2.768-0.731,8.744-4.9,9.842-6.241
	l2.732,1.577l0,0.001c0.013,0.014,0.03,0.011,0.045,0.017l0.042-0.084l0.01-0.017l-0.052,0.102c0.021,0.008,0.04,0.024,0.061,0.023
	v0.003c0.075-0.004,0.11-0.046,0.112-0.048l0.137-0.139l-0.176-0.102c0-0.001-0.001-0.003-0.001-0.004
	c-0.007-0.004-0.015-0.006-0.023-0.009l-2.777-1.6c0.219-1.699,0.435-2.947,0.435-4.458c0-1.416-0.192-3.053-0.745-5.509
	c1.19-1.38,3.969-6.515,4.193-8.409c1.435,0.1,2.769,0.321,3.6,0.688l0.122-0.276c-0.905-0.396-2.277-0.616-3.747-0.716
	c-1.464-4.557-3.791-8.557-7.336-11.753c0.411-1.607,0.686-3.217,0.793-4.814c-0.068-0.052-0.134-0.108-0.203-0.159l-0.085-0.005
	c-0.098,1.615-0.375,3.249-0.792,4.881l-7.148,0.142c-2.255-3.35-6.589-5.798-12.08-7.266c0.354-1.091,0.855-2.103,1.466-3.09
	l-0.008-0.005c-0.115,0.01-0.232,0.016-0.347,0.026c-0.587,0.975-1.082,1.979-1.423,3.065c-1.092,0.529-7.512,4.24-10.611,8.811
	l-3.821-0.374c0.069-0.933,0.113-1.673,0.113-2.299c0-0.701-0.056-1.262-0.192-1.786l-0.216,0.057
	c-0.022,0.021-0.044,0.042-0.066,0.063c0.12,0.48,0.173,1,0.173,1.667C73.479,109.89,73.435,110.646,73.36,111.617z M80.447,146.836
	c-4.49-1.425-8.903-2.82-10.384-4.997c-0.002-0.006-0.006-0.012-0.01-0.018c0,0-0.011-0.016-0.045-0.066
	c-0.004-0.005-0.007-0.011-0.01-0.016l0,0.001c0-0.001-0.001-0.002-0.001-0.003c-0.186-0.968-0.405-3.887-0.405-6.656
	c-0.002-2.072,0.127-4.076,0.456-5.125c2.826-0.235,4.794,0.054,7.686-0.406c1.504,4.861,5.3,9.83,6.68,10.965
	C81.539,143.153,80.552,145.872,80.447,146.836z M77.998,129.396l4.241-8.462c2.017-0.229,3.804-0.317,5.352-0.317
	c4.489,0,6.969,0.733,7.341,0.845l5.196,8.192c-0.105,0.958-3.831,8.237-5.764,10.176l-9.692,0.509
	C83.459,139.428,79.475,134.284,77.998,129.396z M98.384,151.728l-13.775,0.181l-3.866-5.002c0.058-0.795,1.023-3.615,3.982-6.27
	l9.66-0.507c2.689,1.798,5.096,4.228,6.71,7.063L98.384,151.728z M101.11,147.169l-0.002,0.004c0-0.004,0.004-0.01,0.005-0.015
	C101.112,147.163,101.11,147.166,101.11,147.169z M111.539,136.319c0,1.498-0.218,2.744-0.444,4.504
	c-0.838,1.148-7.053,5.509-9.72,6.184l0.01,0.038h-0.028c-1.62-2.847-4.017-5.279-6.697-7.091c1.968-2.113,5.38-8.672,5.741-10.153
	c3.625,0.901,7.877,1.144,9.735,1.144c0.284,0,0.511-0.005,0.676-0.015C111.354,133.345,111.539,134.943,111.539,136.319z
	 M100.395,110.697C100.395,110.697,100.395,110.697,100.395,110.697c0.002,0,0.005,0.001,0.007,0.001c-0.001,0-0.003,0-0.005-0.001
	c0.003,0,0.005,0,0.008,0c0.03,0.004,0.055-0.001,0.072-0.009l7.227-0.141c3.53,3.174,5.838,7.151,7.296,11.707
	c-0.059,1.583-2.994,7.084-4.141,8.369c-0.153,0.012-0.4,0.019-0.723,0.019c-1.853,0-6.151-0.247-9.757-1.158l-5.189-8.179
	C96.072,118.41,98.979,111.234,100.395,110.697c-0.002,0-0.004,0-0.005,0C100.391,110.697,100.393,110.697,100.395,110.697z
	 M88.235,103.389c5.406,1.427,9.662,3.811,11.894,7.007h-0.001l0.055,0.08c-1.723,0.993-4.302,7.738-5.257,10.669
	c-0.617-0.184-3.104-0.83-7.336-0.83c-1.546,0-3.328,0.086-5.336,0.314c-0.743-2.862-3.64-7.542-4.501-8.554
	C80.791,107.595,87.217,103.873,88.235,103.389z M77.491,112.234c0.747,0.825,3.807,5.746,4.49,8.539l-4.245,8.473
	c-2.886,0.467-4.849,0.171-7.745,0.415c-1.306-1.308-2.833-6.149-2.862-8.393c1.516-4.023,3.685-7.229,6.425-9.42L77.491,112.234z"
	/>
<path d="M114.329,142.965c-0.001-0.001-0.001-0.004-0.002-0.007c-0.01-0.005-0.02-0.008-0.03-0.011l-2.77-1.597
	c0.219-1.7,0.436-2.949,0.436-4.457c0-1.415-0.193-3.051-0.748-5.508c1.191-1.379,3.973-6.52,4.196-8.413
	c1.435,0.1,2.769,0.323,3.6,0.688l0.122-0.274c-0.905-0.397-2.278-0.616-3.748-0.718c-1.464-4.556-3.791-8.557-7.336-11.751
	c0.424-1.657,0.707-3.316,0.804-4.959l-0.298-0.02h-0.002c-0.096,1.617-0.373,3.249-0.791,4.883l-7.15,0.139
	c-2.255-3.348-6.589-5.798-12.078-7.264c0.354-1.091,0.855-2.103,1.466-3.09l-0.088-0.054v-0.176h-0.04h-0.086l-0.042,0.071
	c-0.636,1.028-1.161,2.093-1.522,3.247c-1.092,0.529-7.512,4.24-10.611,8.81l-3.822-0.374c0.069-0.934,0.113-1.672,0.113-2.3
	c0-0.699-0.056-1.26-0.19-1.786l-0.292,0.077c0.128,0.493,0.181,1.025,0.181,1.709c0,0.631-0.044,1.389-0.117,2.358
	c-2.784,2.229-4.975,5.475-6.505,9.526l-1.248,0.864l0.172,0.246l1.059-0.731c0.141,2.417,1.558,6.905,2.925,8.335
	c-0.352,1.12-0.471,3.131-0.473,5.228c0,2.789,0.217,5.7,0.433,6.77c0.011,0.018,0.02,0.034,0.028,0.047l-0.005,0.003
	c0,0,0.001,0.001,0.001,0.001l-0.001,0l0.058,0.087c0.003,0.005,0.008,0.01,0.012,0.015c1.634,2.362,6.176,3.714,10.729,5.178
	l0.047,0.015l3.816,4.943l0.327,0.641c0.017,0.004,0.033,0.009,0.049,0.014l0.236-0.12l-0.241-0.471l13.654-0.18l0.55,0.882
	c0.056-0.015,0.109-0.032,0.165-0.047l0.116-0.072l-0.594-0.954l2.7-4.519c0.005-0.003,0.01-0.008,0.016-0.015
	c0.015-0.015,0.028-0.032,0.036-0.053c0.004-0.009,0.006-0.018,0.008-0.026l0.021,0.077v-0.002c2.767-0.731,8.74-4.896,9.841-6.24
	l2.729,1.573c0.001,0.001,0.002,0.002,0.002,0.003c0.005,0.005,0.012,0.003,0.017,0.007c0.06-0.081,0.116-0.163,0.174-0.244
	L114.329,142.965z M100.517,111.271C100.517,111.272,100.517,111.272,100.517,111.271c0.004,0.001,0.009,0.002,0.013,0.002
	c-0.001,0-0.002,0-0.004,0c0.002,0,0.004,0,0.006,0c0.026,0.002,0.048-0.002,0.063-0.01l7.228-0.141
	c3.532,3.173,5.843,7.155,7.299,11.713c-0.066,1.589-2.995,7.078-4.141,8.362c-0.152,0.011-0.4,0.02-0.723,0.02
	c-1.853,0-6.152-0.247-9.758-1.161l-5.189-8.178C96.195,118.982,99.102,111.807,100.517,111.271c-0.005,0-0.009-0.001-0.013-0.002
	C100.508,111.27,100.513,111.271,100.517,111.271z M100.25,130.226c-0.101,0.949-3.836,8.242-5.767,10.178l-9.687,0.509
	c-1.209-0.903-5.198-6.05-6.677-10.944l4.24-8.461c2.016-0.229,3.803-0.317,5.352-0.317c4.487,0,6.967,0.731,7.341,0.845
	L100.25,130.226z M88.357,103.963c5.405,1.425,9.662,3.811,11.894,7.005h-0.001l0.055,0.08c-1.723,0.995-4.303,7.74-5.257,10.67
	c-0.617-0.182-3.104-0.828-7.335-0.828c-1.546,0-3.328,0.087-5.336,0.314c-0.74-2.862-3.642-7.545-4.503-8.555
	C80.911,108.17,87.339,104.447,88.357,103.963z M67.251,121.842c1.516-4.024,3.686-7.227,6.422-9.42l3.938,0.384
	c0.746,0.816,3.809,5.743,4.492,8.541l-4.244,8.471c-2.886,0.467-4.851,0.171-7.747,0.415
	C68.806,128.92,67.28,124.087,67.251,121.842z M80.571,147.412c-4.488-1.426-8.905-2.823-10.386-4.999
	c-0.002-0.006-0.006-0.012-0.009-0.017c0,0-0.013-0.022-0.058-0.086c-0.186-0.968-0.405-3.888-0.405-6.655
	c0-2.072,0.127-4.077,0.456-5.125c2.826-0.237,4.794,0.052,7.685-0.406c1.507,4.861,5.303,9.831,6.681,10.964
	C81.66,143.728,80.675,146.446,80.571,147.412z M98.506,152.3l-13.775,0.181l-3.865-5.002c0.058-0.796,1.023-3.616,3.982-6.269
	l9.657-0.508c2.69,1.796,5.098,4.226,6.712,7.063L98.506,152.3z M101.23,147.745L101.23,147.745
	c0.001-0.012,0.005-0.028,0.015-0.045C101.238,147.714,101.232,147.729,101.23,147.745z M111.217,141.397
	c-0.838,1.146-7.053,5.507-9.722,6.184l0.009,0.036h-0.024c-1.621-2.845-4.018-5.277-6.698-7.092
	c1.968-2.113,5.38-8.671,5.741-10.153c3.625,0.903,7.875,1.144,9.736,1.146c0.283,0,0.51-0.005,0.676-0.016
	c0.542,2.416,0.728,4.013,0.728,5.391C111.662,138.391,111.443,139.637,111.217,141.397z"/>
</svg>
