<svg enable-background="new 0 0 441.214 359.904" height="285.728236" viewBox="0 0 441.214 359.904" width="349.982911" xmlns="http://www.w3.org/2000/svg"><path d="m294.638 134.23h28.102v-9.804h-35.148c2.568 3.094 4.92 6.372 7.046 9.804m-158.644 66.13h-43.048v9.806h46.024c-1.182-3.184-2.168-6.46-2.976-9.806m52.376-101.246h-44.364v9.806h26.374c5.554-3.94 11.584-7.242 17.99-9.806m-41.8 126.558h-28.094v9.806h35.142c-2.568-3.094-4.92-6.374-7.048-9.806m-53.624-66.13h43.048c.808-3.346 1.794-6.62 2.976-9.804h-46.024zm212.268 0h43.062v-9.804h-46.036c1.182 3.184 2.168 6.458 2.974 9.804m68.6 15.508h-66.306c.092 1.622.146 3.256.146 4.902s-.054 3.278-.146 4.902h66.306zm-255.338-40.82h28.094c2.128-3.432 4.48-6.71 7.048-9.804h-35.142zm51.904 116.754h-26.374v9.804h44.364c-6.406-2.564-12.436-5.866-17.99-9.804m177.896-50.624h-43.062c-.806 3.346-1.792 6.622-2.974 9.806h46.036zm-51.072 50.624h-26.374c-5.554 3.938-11.584 7.24-17.99 9.804h44.364zm25.536-25.312h-28.102c-2.126 3.432-4.478 6.712-7.046 9.806h35.148zm-255.324-40.818h66.286c-.092-1.624-.148-3.256-.148-4.902s.056-3.28.148-4.902h-66.286zm156.252 151.436v-69.352c-2.042.072-4.086.072-6.128 0v69.352h-137.674l-9.804 9.804h301.086l-9.806-9.804zm-207.724-100.662v6.126h35.084v-123.778h-35.084v6.128h28.956v111.524zm409.326-111.352v-6.128h-35.084v123.78h35.084v-6.128h-28.956v-111.524zm-151.188 62.554 13.998-15.784-8.62-26.266-23.05-12.04-13.81 13.08 8.834 30.36zm-2.294 5.692-22.586-10.618-25.534 18.314v27.422l23.7 11.15 8.398-6.022 16.022-11.492zm-28.324 51.204-22.86-10.756-22.858 10.756 4.72 8.784c5.81 1.452 11.884 2.236 18.138 2.236 6.256 0 12.328-.784 18.14-2.236zm-49.624-4.936 23.7-11.15v-27.422l-25.534-18.314-22.586 10.618v28.754l21.568 15.468zm-26.712-51.96 22.648-10.65 8.834-30.36-13.81-13.08-23.052 12.04-8.62 26.266zm-3.836 4.91-13.944-15.722-3.512 2.926c-.004.338-.026.67-.026 1.008 0 14.634 4.242 28.29 11.536 39.832h5.946zm43.792-77.912-17.228 15.26 13.438 12.73h34.62l13.44-12.73-17.228-15.26zm-10.25-4.774c-13.714 4.612-25.66 13.088-34.54 24.14v4.39l21.278-11.114 17.138-15.178zm43.67 2.238 17.138 15.178 21.278 11.114v-4.39c-8.88-11.052-20.826-19.528-34.54-24.14zm51.358 64.726-13.946 15.722v28.044h5.946c7.294-11.542 11.536-25.198 11.536-39.832 0-.338-.022-.672-.026-1.008zm-71.258 84.856c-44.62 0-80.922-36.302-80.922-80.922s36.302-80.922 80.922-80.922c44.622 0 80.922 36.302 80.922 80.922s-36.3 80.922-80.922 80.922m50.226-151.954h26.374v-9.806h-44.364c6.406 2.564 12.436 5.866 17.99 9.806m160.578-41.774h-13.366c1.746 6.498 6.868 11.62 13.366 13.366zm0 212.246c-6.498 1.746-11.62 6.866-13.366 13.366h13.366zm9.806 23.17h-91.064l50.408 50.408-6.932 6.934-89.94-89.938 6.934-6.934 29.724 29.726h71.402c1.972-9.888 9.776-17.69 19.662-19.662v-186.29c-9.886-1.97-17.69-9.774-19.662-19.66h-71.402l-29.724 29.724-6.934-6.932 89.94-89.938 6.932 6.934-50.408 50.408h91.064zm-418.042-9.804c-1.746-6.5-6.868-11.62-13.368-13.366v13.366zm-13.368-212.23c6.518-1.732 11.652-6.866 13.384-13.382h-13.384zm127.72 189.438-89.938 89.938-6.932-6.934 50.408-50.408h-91.062v-245.22h91.064l-50.408-50.408 6.932-6.934 89.938 89.938-6.932 6.932-29.726-29.724h-71.398c-1.966 9.922-9.776 17.722-19.666 19.67v186.28c9.888 1.97 17.692 9.774 19.662 19.662h71.4l29.726-29.726zm-57.658-246.352-9.804-9.804h301.086l-9.806 9.804h-137.674v69.352c-2.042-.072-4.086-.072-6.128 0v-69.352z"/></svg>