<svg xmlns="http://www.w3.org/2000/svg" width="300" height="300" xmlns:v="https://vecta.io/nano"><circle cx="222.442" cy="51.928" r="21.5"/><circle cx="55.761" cy="230.696" r="20" fill="none" stroke="#000" stroke-width="6"/><path d="M91.317 268.37c16.877-32.665 35.639-64.323 58.218-93.454a198.558 198.558 0 0 1 25.665-27.128 12.794 12.794 0 0 1 18.04 1.4c4.49 5.175 3.7 12.31-.282 17.294a152.976 152.976 0 0 1-10.579 14.07C171.606 193.66 158 206.913 146.2 219.258l-38.048 38.846c-4.253 4.183-8.942 8.7-13.4 12.669a2.125 2.125 0 0 1-3.435-2.403zm20.344-94.648c7.306-15.072 16.9-29.736 29.823-40.558 3.009-2.517 7.587-4.64 11.16-6.365 13.644-6.375 25.145 11.43 13.95 21.264-13.756 11.662-25.477 25.225-36.4 39.531-9.876 11.476-26.233-.92-18.533-13.872zm64.49-90.101c-17.605 1.529-35.193-.947-52.7-2.623-13.061-1.379-26.5-2.945-39.527-4.852l-13.175-2a1.473 1.473 0 0 1 0-2.921c6.321-.823 13.392-1.527 19.763-2.236l46.115-3.881c13.151-1.041 26.345-1.871 39.527-.894 11.898 1.086 11.846 18.349-.003 19.407zm74.725 3.108c12.076 14.133 27.973 41.751 7.043 55.262-11.271 6.889-24.92 8.278-37.684 9.862-3.519.324-8.652.9-12.153 1.049a1.6 1.6 0 0 1-.8-3.057l11.06-4.7c9.763-4.435 20.446-8.209 28.721-15.044 1.678-1.525 3.041-3.137 2.423-5.12a30.293 30.293 0 0 0-3.54-7.155c-4.063-6.358-8.621-12.481-12.336-19.141-5.954-11.159 9.023-21.402 17.266-11.956z"/></svg>