<?xml version="1.0" encoding="UTF-8" standalone="no"?>
<!-- Created with Inkscape (http://www.inkscape.org/) -->

<svg
   xmlns:dc="http://purl.org/dc/elements/1.1/"
   xmlns:cc="http://creativecommons.org/ns#"
   xmlns:rdf="http://www.w3.org/1999/02/22-rdf-syntax-ns#"
   xmlns:svg="http://www.w3.org/2000/svg"
   xmlns="http://www.w3.org/2000/svg"
   xmlns:sodipodi="http://sodipodi.sourceforge.net/DTD/sodipodi-0.dtd"
   xmlns:inkscape="http://www.inkscape.org/namespaces/inkscape"
   width="250"
   height="250"
   viewBox="0 0 66.145832 66.145835"
   version="1.1"
   id="svg1422"
   inkscape:version="0.92.4 (5da689c313, 2019-01-14)"
   sodipodi:docname="footb.svg">
  <defs
     id="defs1416" />
  <sodipodi:namedview
     id="base"
     pagecolor="#ffffff"
     bordercolor="#666666"
     borderopacity="1.0"
     inkscape:pageopacity="0.0"
     inkscape:pageshadow="2"
     inkscape:zoom="0.9725031"
     inkscape:cx="238.71181"
     inkscape:cy="-20.682622"
     inkscape:document-units="mm"
     inkscape:current-layer="layer1"
     showgrid="false"
     units="px"
     inkscape:pagecheckerboard="true"
     inkscape:window-width="1366"
     inkscape:window-height="705"
     inkscape:window-x="-8"
     inkscape:window-y="-8"
     inkscape:window-maximized="1"
     showguides="false" />
  <metadata
     id="metadata1419">
    <rdf:RDF>
      <cc:Work
         rdf:about="">
        <dc:format>image/svg+xml</dc:format>
        <dc:type
           rdf:resource="http://purl.org/dc/dcmitype/StillImage" />
        <dc:title></dc:title>
      </cc:Work>
    </rdf:RDF>
  </metadata>
  <g
     inkscape:label="Layer 1"
     inkscape:groupmode="layer"
     id="layer1"
     transform="translate(0,-230.85415)">
    <g
       id="g909"
       transform="matrix(2.9168688,0,0,-2.9169974,66.145833,263.92707)"
       style="fill:#842435;fill-opacity:1;stroke-width:0.12094134">
      <path
         d="m 0,0 c 0,-6.262 -5.077,-11.338 -11.338,-11.338 -6.263,0 -11.339,5.076 -11.339,11.338 0,6.262 5.076,11.338 11.339,11.338 C -5.077,11.338 0,6.262 0,0"
         style="fill:#842435;fill-opacity:1;fill-rule:nonzero;stroke:none;stroke-width:0.12094134"
         id="path911"
         inkscape:connector-curvature="0" />
    </g>
    <g
       id="g913"
       transform="matrix(2.9169974,0,0,-2.9169974,54.80457,256.0716)"
       style="stroke-width:0.12093867">
      <path
         d="M 0,0 C -0.209,0.061 -2.687,0.862 -3.157,1.014 -3.425,1.238 -4.454,2.09 -5.113,2.627 -5.108,2.091 -5.186,1.418 -5.384,0.862 c 0.713,-0.36 1.495,-0.727 1.788,-0.819 0.003,-10e-4 0.014,-0.005 0.017,-0.005 0.431,-0.137 3.251,-0.611 3.442,-0.641 0.068,-0.009 0.141,0.004 0.204,0.043 0.146,0.092 0.19,0.284 0.099,0.43 C 0.126,-0.066 0.067,-0.022 0,0"
         style="fill:#ffffff;fill-opacity:1;fill-rule:nonzero;stroke:none;stroke-width:0.12093867"
         id="path915"
         inkscape:connector-curvature="0" />
    </g>
    <g
       id="g917"
       transform="matrix(2.9169974,0,0,-2.9169974,37.97058,246.17716)"
       style="stroke-width:0.12093867">
      <path
         d="M 0,0 C 0.648,-0.2 1.335,0.165 1.534,0.813 1.733,1.462 1.369,2.148 0.72,2.348 0.072,2.547 -0.615,2.182 -0.814,1.534 -1.013,0.885 -0.648,0.199 0,0"
         style="fill:#ffffff;fill-opacity:1;fill-rule:nonzero;stroke:none;stroke-width:0.12093867"
         id="path919"
         inkscape:connector-curvature="0" />
    </g>
    <g
       id="g921"
       transform="matrix(2.9169974,0,0,-2.9169974,40.13209,277.75953)"
       style="stroke-width:0.12093867">
      <path
         d="m 0,0 c -0.673,0 -1.219,-0.546 -1.219,-1.219 0,-0.673 0.546,-1.219 1.219,-1.219 0.674,0 1.219,0.546 1.219,1.219 C 1.219,-0.546 0.674,0 0,0"
         style="fill:#ffffff;fill-opacity:1;fill-rule:nonzero;stroke:none;stroke-width:0.12093867"
         id="path923"
         inkscape:connector-curvature="0" />
    </g>
    <g
       id="g925"
       transform="matrix(2.9169974,0,0,-2.9169974,14.94676,257.19465)"
       style="stroke-width:0.12093867">
      <path
         d="m 0,0 c 0.077,-0.02 0.143,-0.008 0.222,0.024 0.351,0.145 3.141,1.52 3.141,1.52 0,0 2.571,0.372 2.973,0.47 0.401,0.098 0.709,0.35 0.797,0.752 C 7.245,3.289 6.913,3.805 6.389,3.918 6.185,3.962 5.985,3.924 5.805,3.862 5.625,3.801 2.957,2.644 2.957,2.644 2.922,2.63 2.889,2.612 2.858,2.591 L -0.101,0.583 C -0.164,0.54 -0.213,0.476 -0.234,0.396 -0.279,0.223 -0.174,0.045 0,0"
         style="fill:#ffffff;fill-opacity:1;fill-rule:nonzero;stroke:none;stroke-width:0.12093867"
         id="path927"
         inkscape:connector-curvature="0" />
    </g>
    <g
       id="g929"
       transform="matrix(2.9169974,0,0,-2.9169974,34.20768,258.23898)"
       style="stroke-width:0.12093867">
      <path
         d="m 0,0 c -0.419,0.1 -0.876,-0.044 -1.158,-0.406 -0.061,-0.079 -0.112,-0.162 -0.163,-0.262 -0.293,-0.577 -1.013,-2.23 -1.296,-3.05 -0.248,0.038 -4.592,0.697 -4.709,0.704 -0.118,0.007 -0.196,-0.003 -0.283,-0.06 -0.189,-0.123 -0.243,-0.376 -0.12,-0.565 0.057,-0.087 0.143,-0.144 0.236,-0.169 l 5.131,-1.387 c 0.286,-0.078 0.592,0.032 0.765,0.273 L 0.061,-2.6 c 0.556,-0.517 1.218,-1.039 1.944,-1.567 l 2.809,-4.551 c 0.056,-0.089 0.148,-0.156 0.261,-0.172 0.202,-0.028 0.387,0.112 0.416,0.314 0.01,0.074 -0.002,0.146 -0.033,0.209 l -2.351,4.93 c -0.022,0.048 -0.05,0.094 -0.085,0.136 0,0 -2.219,2.756 -2.409,2.936 C 0.384,-0.149 0.218,-0.056 0,0"
         style="fill:#ffffff;fill-opacity:1;fill-rule:nonzero;stroke:none;stroke-width:0.12093867"
         id="path931"
         inkscape:connector-curvature="0" />
    </g>
  </g>
</svg>
