<?xml version="1.0" encoding="utf-8"?>
<!-- Generator: Adobe Illustrator 22.0.1, SVG Export Plug-In . SVG Version: 6.00 Build 0)  -->
<svg version="1.1" id="Layer_1" xmlns="http://www.w3.org/2000/svg" xmlns:xlink="http://www.w3.org/1999/xlink" x="0px" y="0px"
	 viewBox="0 0 160 26" style="enable-background:new 0 0 160 26;" xml:space="preserve" width="160px" height="26px" >
<metadata><?xpacket begin="﻿" id="W5M0MpCehiHzreSzNTczkc9d"?>
<x:xmpmeta xmlns:x="adobe:ns:meta/" x:xmptk="Adobe XMP Core 5.6-c143 79.161210, 2017/08/11-10:28:36        ">
   <rdf:RDF xmlns:rdf="http://www.w3.org/1999/02/22-rdf-syntax-ns#">
      <rdf:Description rdf:about=""/>
   </rdf:RDF>
</x:xmpmeta>
                                                                                                    
                                                                                                    
                                                                                                    
                                                                                                    
                                                                                                    
                                                                                                    
                                                                                                    
                                                                                                    
                                                                                                    
                                                                                                    
                                                                                                    
                                                                                                    
                                                                                                    
                                                                                                    
                                                                                                    
                                                                                                    
                                                                                                    
                                                                                                    
                                                                                                    
                                                                                                    
                           
<?xpacket end="w"?></metadata>
<style type="text/css">
	.st0{fill:#FFD400;}
	.st1{fill:#00288C;}
</style>
<g>
	<g>
		<g>
			<g>
				<path class="st0" d="M14.3,20.2c18.3,2.6,19.5,4.4,24,4.4c3.5,0,6.5-1.1,8.7-2.9C40.1,19.9,25.4,19.5,14.3,20.2z"/>
			</g>
			<path class="st0" d="M49.9,6.3C32.2,5,15.2,7.9,0,14.3c18.6,1.1,32.5,2.7,48.4,6.1c1.9-2.2,3.1-5,3.1-8.1
				C51.4,10.1,50.9,8,49.9,6.3z"/>
			<path class="st0" d="M38.7,0c-9.4,0-21.6,3.5-31,7c12.9-2.5,28.9-3.1,41.1-2.3C46.9,2.4,44,0,38.7,0z"/>
		</g>
		<g>
			<g>
				<path class="st1" d="M75.5,15.9c1,0.5,2.8,1.1,4.4,1.1c1.4,0,2.1-0.5,2.2-1.2c0.1-0.7-0.4-1.2-1.8-1.9c-1.8-0.8-3.2-2.1-2.9-3.9
					C77.8,7,81,5,85.2,5c1.9,0,3,0.3,3.8,0.6l-1,3.3c-0.7-0.3-2-0.8-3.4-0.8c-1.3,0-2.2,0.5-2.3,1.3c-0.1,0.6,0.5,1.1,1.8,1.7
					c1.7,0.8,3.4,2,3.1,4c-0.4,3.4-3.8,5.2-8.1,5.2c-2.1,0-3.5-0.4-4.6-0.9L75.5,15.9z"/>
			</g>
			<g>
				<path class="st1" d="M102.1,5c-4.2,0-8.5,3.4-9.9,7.6c-1.3,4.2,0.8,7.7,5,7.7c4.7,0,8.8-3.5,10.1-7.7C108.7,8.4,106.4,5,102.1,5
					z M103.1,11c-0.3,2.5-2,6-4.4,6c-1.5,0-2.2-1.1-2-2.9c0.2-2.3,1.9-5.9,4.4-5.9C102.8,8.2,103.2,9.7,103.1,11z"/>
			</g>
			<g>
				<path class="st1" d="M104.8,26l4.6-15c0.5-1.7,1.2-4.2,1.6-5.7h3.9l-0.6,2.3h0.1c1.4-1.6,3.3-2.6,5-2.6c3.2,0,4.4,2.6,4.1,5.6
					c-0.6,5.1-4.6,9.8-9.7,9.8c-1.2,0-2.2-0.3-2.7-0.6H111l-1.9,6.3H104.8z M112.1,16.3c0.4,0.5,1.1,0.7,1.9,0.7
					c2.3,0,4.7-3.5,5.1-6.4c0.1-1.2-0.2-2.4-1.6-2.4c-1.6,0-3.6,2.1-4.4,4.9L112.1,16.3z"/>
			</g>
			<g>
				<path class="st1" d="M134.7,19.4c-1.8,0.7-3.5,0.9-5.1,0.9c-4.2,0-6.1-2.4-5.7-6.2c0.5-4.5,4.3-9.2,9.7-9.2c3,0,4.9,1.7,4.6,4.4
					c-0.4,3.8-4.3,5.1-10.1,5c0,0.4,0,1.1,0.3,1.5c0.5,0.8,1.4,1.2,2.7,1.2c1.6,0,3.5-0.6,4.7-1.1L134.7,19.4z M132.7,8.1
					c-2,0-3.4,1.7-3.8,3c3.4,0,5.1-0.5,5.3-1.8C134.2,8.6,133.7,8.1,132.7,8.1z"/>
			</g>
			<g>
				<path class="st1" d="M137,20l3-9.9c0.6-1.9,1-3.5,1.3-4.8h3.9l-0.6,2.3h0.1c1.6-1.9,3.5-2.6,5.5-2.6c2.4,0,3.6,1.5,3.3,4
					c-0.1,0.7-0.3,1.8-0.5,2.5l-2.6,8.5H146c0,0,2-6.4,2.5-8.2c0.6-2.1,0.7-3.5-0.9-3.5c-1.5,0-3.1,1.6-4.2,5
					c-1,3.3-2.1,6.8-2.1,6.8H137z"/>
			</g>
			<g>
				<path class="st1" d="M76.8,5.3l-3,9.9c-0.6,1.9-1,3.5-1.3,4.8h-3.9l0.6-2.3h-0.1c-1.6,1.9-3.5,2.6-5.5,2.6c-2.4,0-3.6-1.5-3.3-4
					c0.1-0.7,0.3-1.8,0.5-2.5l2.6-8.5h4.3c0,0-2,6.4-2.5,8.2c-0.6,2.1-0.7,3.5,0.9,3.5c1.5,0,3.1-1.6,4.2-5s2.1-6.8,2.1-6.8H76.8z"
					/>
			</g>
		</g>
	</g>
	<g>
		<g>
			<g>
				<g>
					<path class="st1" d="M155.1,2.5h-1V2.2h2.4v0.3h-1v2.8h-0.4V2.5z"/>
				</g>
				<g>
					<path class="st1" d="M157.1,2.2h0.3l1.1,1.6l1.1-1.6h0.3v3.1h-0.4V2.8l-1,1.4h-0.2l-1-1.4v2.5h-0.4V2.2z"/>
				</g>
			</g>
		</g>
	</g>
</g>
</svg>
