<svg height="306.785996" viewBox="0 0 34.262 32.202" width="325.96012" xmlns="http://www.w3.org/2000/svg"><path clip-rule="evenodd" d="m21.872 1.7044 7.281 14.2316-21.077 10.782-7.28227-14.222z" fill="#f9f208" fill-rule="evenodd"/><path clip-rule="evenodd" d="m10.727 9.0322-8.5096 4.6808 9.4056-4.4903-9.7731 5.3273 9.4051-4.49-8.514 4.68 9.41-4.49-9.7775 5.321 9.4095-4.484-8.5136 4.675 9.4046-4.485-9.7724 5.321 21.0734-10.7812-2.103-4.1124-21.07827 10.7916 9.41027-4.4898-8.5141 4.6798 9.4101-4.4896-9.7787 5.3266z" fill="#fd1205" fill-rule="evenodd"/><path clip-rule="evenodd" d="m6.5013 23.638 9.4057-4.49-8.5101 4.681 9.4061-4.49-9.7784 5.326 9.4104-4.49-8.5148 4.68 9.4098-4.49-9.777 5.326 9.405-4.49-8.5092 4.681 9.4002-4.49-9.773 5.326 21.077-10.782-2.101-4.111-21.0786 10.787 9.4106-4.49-8.5152 4.675 9.4102-4.49z" fill="#fd1205" fill-rule="evenodd"/><path d="m33.457 9.4315c.22754-4.5219-3.2729-8.3975-7.7972-8.6266-4.5217-.2286-8.3917 3.2729-8.6203 7.7956-.22886 4.5214 3.2686 8.3919 7.7911 8.6211 4.5217.22807 8.3959-3.2689 8.6253-7.79z" fill="#fff"/><g fill="#0b256b"><path d="m28.221 10.523-.621-3.8704-3.869-.6048-1.772 3.4956 2.773 2.7636z"/><path d="m23.837 1.0837c-1.5719.27649-3.0368 1.0279-4.1968 2.1473l-.2278.98397c1.0451-.24818 2.1082-.39528 3.1808-.44502.64293-.83528 1.3867-1.6145 2.1963-2.3145l-.95249-.37174z"/><path d="m17.272 7.9075c-.21166 1.5851.03916 3.2078.74479 4.6508l.86147.52254c.09128-1.0702.27622-2.1254.56356-3.162-.58657-.84189-1.093-1.7878-1.5065-2.7752l-.6633.76384z"/><path d="m21.731 16.256c1.4475.69717 3.0763.96281 4.6653.72521l.75167-.65748c-.96545-.39581-1.9119-.90275-2.8106-1.4891-1.0051.27728-2.0664.46751-3.1358.55932l.52942.862z"/><path d="m31.05 14.598c1.1141-1.1544 1.855-2.6178 2.1315-4.1991l-.39264-.93079c-.67865.79136-1.4539 1.5409-2.2902 2.2119-.05424 1.0663-.18653 2.1111-.43153 3.1549l.98292-.2368z"/><path d="m32.352 5.2223c-.75485-1.4184-1.9161-2.5749-3.3329-3.3276l-1.0094.089957c.55562.91518 1.0274 1.8817 1.4036 2.8871.99535.35057 1.9672.81729 2.8829 1.3748z"/><path d="m3.2594 31.34v-4.0864h2.65v.48339h-2.1619v1.2475h2.023v.48259h-2.023v1.3914h2.2492v.48259h-2.7373z"/><path d="m6.5116 30.028.45693-.04604c.02196.20399.071966.37279.15081.50429.079639.1307.2024.23733.36935.31855.16616.08123.35374.12118.56197.12118.18494 0 .34819-.0299.49027-.0926.14129-.06059.24685-.14552.31617-.25267.069055-.10663.10398-.22357.10398-.34872 0-.12806-.033866-.23997-.10028-.33522-.066939-.094984-.17674-.17568-.33046-.23997-.098159-.042862-.31617-.10927-.65272-.19923-.33708-.090222-.57255-.17568-.70749-.25479-.17542-.10345-.30559-.22992-.39131-.38179-.085459-.15187-.12859-.32173-.12859-.50958 0-.20664.052387-.39978.15769-.57943.10504-.17965.25876-.31617.46037-.4093.20188-.09287.4265-.13996.67336-.13996.27146 0 .5117.04948.71913.14711.20796.09684.36803.2405.47968.43021.11165.1905.17145.40534.17991.64505l-.46725.04075c-.024871-.25665-.11006-.45138-.254-.58208-.14446-.13229-.35692-.19791-.63922-.19791-.29316 0-.50694.06006-.64134.17991-.13441.1188-.20108.26379-.20108.43232 0 .14711.047624.26776.14234.36274.093661.09366.33708.19103.73183.29051.39422.09975.66489.18653.81094.26035.21378.1098.37121.24791.47307.41645.1016.16722.1524.36062.1524.57943 0 .21722-.056091.42148-.16774.61303-.11139.19288-.27199.3421-.48101.44793-.20902.10716-.44449.16086-.7059.16086-.33205 0-.60986-.05424-.83316-.16219-.22463-.10716-.40057-.26934-.52757-.48577-.12726-.21643-.19473-.4601-.20108-.73342z"/><path d="m10.092 31.34v-4.0875h1.3859c.24368 0 .42968.01349.55826.03942.18071.03334.33125.0971.45323.19103.1225.09366.2204.22569.29474.39396.07461.16854.11139.35427.11139.5572 0 .34739-.09895.64108-.29765.88184-.1987.23997-.55747.36062-1.0766.36062h-.94138v1.6632h-.48789zm.48789-2.1457h.94773c.31326 0 .53551-.06509.66701-.19473.13176-.13017.19764-.313.19764-.54847 0-.17039-.03889-.31723-.11615-.43841-.07752-.12144-.17991-.20188-.30638-.23997-.08149-.02434-.23204-.03651-.45217-.03651h-.93767z"/><path d="m12.729 31.34 1.4049-4.0875h.52995l1.5026 4.0875h-.55377l-.42439-1.2374h-1.5462l-.3966 1.2374h-.51646zm1.0567-1.6793h1.2491l-.38364-1.1313c-.11536-.34422-.20267-.62679-.26299-.85036-.04974.26299-.11642.5236-.20108.78263l-.40137 1.1991z"/><path d="m16.548 31.34v-4.0875h.50006l1.924 3.2083v-3.2083h.46751v4.0875h-.50085l-1.9238-3.207v3.207z"/><path d="m19.855 31.34 1.4047-4.0875h.52995l1.5026 4.0875h-.55377l-.42439-1.2374h-1.5459l-.39714 1.2374zm1.0559-1.6793h1.2491l-.38311-1.1313c-.11562-.34422-.2032-.62679-.26299-.85036-.04974.26299-.11668.5236-.20188.78263l-.4011 1.1991z"/><path d="m17.542 27.612v-.25135c.08228-.08678.17753-.13017.28522-.13017.04154 0 .07805.004.11192.01164.03439.0082.09551.0299.18362.06509.08811.03572.14843.05292.17965.05292.03572 0 .07779-.01164.12515-.03334.04736-.02223.0934-.05741.13785-.10504v.26035c-.0299.03043-.07117.06006-.12409.08678s-.10768.04022-.16404.04022c-.03175 0-.06297-.0034-.09366-.01164-.0299-.0077-.07858-.02619-.14499-.05424-.09842-.04286-.17621-.06376-.23362-.06376-.08943 0-.17753.04392-.26299.13202v.000529z"/><path d="m25.531 29.065c-.2241-.08414-.38682-.19844-.48842-.34422-.10213-.14631-.15266-.30559-.15266-.48074 0-.29739.11827-.54265.35454-.73659.23627-.19473.57202-.2913 1.0075-.2913.431 0 .7657.09631 1.0038.2913.23865.19394.35771.4392.35771.73659 0 .18521-.05503.35004-.16483.49424-.1098.14446-.26379.25426-.46169.33072.25162.08943.44264.2196.57414.39078.13017.17118.19605.36935.19605.59398 0 .37015-.13361.67018-.4011.90275-.26696.23098-.6215.34739-1.0649.34739-.41248 0-.75511-.09578-1.03-.28733-.32385-.22595-.48524-.5363-.48524-.93026 0-.21643.06006-.41566.1815-.59769.12091-.1815.31273-.3212.57361-.41962zm.09895.94164c0 .21272.06138.37808.18388.49741.1225.11932.27596.17886.45958.17886.18018 0 .32887-.05741.44688-.17224.11747-.11456.17621-.27913.17621-.49556 0-.18891-.06006-.34078-.18018-.45455-.11933-.11509-.2712-.17224-.45455-.17224-.21352 0-.37147.06509-.47651.19526-.10292.13017-.15531.2704-.15531.42306zm.08546-1.7105c0 .15266.04868.27119.14711.35692.09816.08546.22833.12832.39184.12832.16483 0 .29765-.04339.39581-.12885.09975-.08678.14922-.2069.14922-.35877 0-.1442-.04974-.25902-.14816-.34607-.0971-.08625-.22727-.12885-.38814-.12885-.16748 0-.3003.04339-.39978.1307-.0979.08758-.1479.2024-.1479.3466z"/><path d="m30.624 30.509v.71357h-2.7199c.03016-.26881.11827-.5236.26564-.76358.14711-.2413.43814-.55985.87232-.95699.34978-.32199.56435-.53948.64372-.65457.10716-.15716.15981-.31353.15981-.46804 0-.17065-.04604-.30215-.13917-.39396-.09207-.09075-.22092-.13679-.38444-.13679-.16139 0-.28998.04815-.38549.14314-.09578.09684-.15134.25611-.16616.47889l-.7731-.07673c.04524-.42121.19103-.72389.43365-.90724s.54636-.27516.91016-.27516c.39978 0 .71331.10583.94138.31802.22833.21272.3421.47704.3421.79295 0 .17938-.03254.3511-.09763.51302-.06429.16219-.16854.33205-.31035.51038-.09366.118-.26352.28786-.50879.50879-.24659.22225-.4011.36935-.46619.44185-.06509.07276-.1188.14314-.15901.21219h1.5414z"/></g></svg>