<?xml version="1.0" encoding="utf-8"?>
<svg xmlns="http://www.w3.org/2000/svg" xml:space="preserve" width="195.75" height="129.25" version="1.0">
  <g fill-rule="evenodd" clip-rule="evenodd">
    <path fill="#008C44" d="M89.166 100.543h-3.998c-.069 0-.162.047-.208.117l-2.011 2.957-6.956 10.354c-.046.094-.046.186 0 .279l6.956 10.377 2.011 2.934c.046.047.139.092.208.092h3.998c.138 0 .254-.092.254-.23V100.8c0-.14-.116-.257-.254-.257zm-2.611 23.482c0 .139-.093.23-.231.23-.092 0-.162-.023-.208-.092l-3.167-4.668-3.513-5.246c-.069-.094-.069-.186 0-.279l3.513-5.223 3.167-4.691c.139-.207.439-.115.439.139v19.83zm72.246-26.554c0-3.26-2.682-5.941-5.94-5.941-3.281 0-5.939 2.682-5.939 5.941 0 3.281 2.658 5.939 5.939 5.939 3.258 0 5.94-2.658 5.94-5.939zm-9.036 0c0-1.688 1.386-3.098 3.096-3.098 1.688 0 3.098 1.41 3.098 3.098 0 1.709-1.41 3.096-3.098 3.096-1.711-.001-3.096-1.387-3.096-3.096zm3.095 7.371c-5.107 0-9.267 4.184-9.267 9.268 0 5.109 4.159 9.268 9.267 9.268 5.085 0 9.269-4.158 9.269-9.268 0-5.085-4.184-9.268-9.269-9.268zm0 15.693c-3.559 0-6.425-2.865-6.425-6.426 0-3.535 2.866-6.424 6.425-6.424 3.537 0 6.426 2.889 6.426 6.424 0 3.561-2.889 6.426-6.426 6.426zm24.245 2.842c5.107 0 9.29-4.158 9.29-9.268 0-5.084-4.183-9.268-9.29-9.268-5.131 0-9.292 4.184-9.292 9.268 0 5.11 4.162 9.268 9.292 9.268zm0-15.691c3.535 0 6.424 2.889 6.424 6.424 0 3.561-2.889 6.426-6.424 6.426-3.56 0-6.426-2.865-6.426-6.426.001-3.536 2.867-6.424 6.426-6.424zm-48.488-2.844c-5.107 0-9.268 4.184-9.268 9.268 0 5.109 4.16 9.268 9.268 9.268 5.085 0 9.268-4.158 9.268-9.268 0-5.085-4.183-9.268-9.268-9.268zm0 15.693c-3.56 0-6.425-2.865-6.425-6.426 0-3.535 2.865-6.424 6.425-6.424 3.536 0 6.425 2.889 6.425 6.424 0 3.561-2.889 6.426-6.425 6.426zM24.5 104.52c-.092 0-.162.045-.208.092L9.016 127.283c-.046.047-.046.094-.046.139 0 .139.093.23.231.23h2.866c.093 0 .162-.045.208-.092l9.175-13.611c.115-.186.416-.094.416.139v13.334c0 .139.116.23.254.23h2.38c.115 0 .231-.092.231-.23V104.75c0-.115-.115-.23-.231-.23zm49.62 9.589c0-.045 0-.092-.023-.139l-8.99-13.311c-.046-.07-.116-.117-.185-.117H39.407c-.093 0-.162.047-.208.117l-9.753 14.467c-.046.068-.116.115-.208.115-.116 0-.231-.115-.231-.254v-14.189c0-.139-.116-.256-.231-.256h-2.38c-.139 0-.231.117-.231.256v23.527c0 .23.3.322.416.139l14.144-20.963c.046-.047.116-.092.185-.092h22.487c.069 0 .162.045.208.092l7.049 10.469c.023.047.046.094.046.139 0 .047-.023.094-.046.141l-7.049 10.445c-.046.07-.139.115-.208.115H42.366c-.139 0-.231-.115-.231-.254V104.75c0-.23-.3-.324-.439-.139l-15.3 22.672c-.023.047-.023.094-.023.139 0 .139.092.23.231.23h2.866c.069 0 .162-.045.208-.092l9.152-13.611c.046-.07.139-.094.208-.094.139 0 .231.094.231.232v13.334c0 .139.115.23.254.23h25.399c.069 0 .139-.045.185-.092l8.99-13.311c.023-.045.023-.092.023-.139z"/>
    <path fill="#008C44" d="M46.641 107.686h16.64c.139 0 .231-.115.231-.232v-2.381c0-.137-.093-.23-.231-.23H43.798c-.139 0-.254.094-.254.23v8.09c0 .115.116.232.254.232h19.483c.139 0 .231-.117.231-.232v-2.381c0-.137-.093-.254-.231-.254h-16.64c-.139 0-.231-.092-.231-.23v-2.381c0-.116.092-.231.231-.231zm-3.097 15.46c0 .117.116.23.254.23h19.483c.139 0 .231-.113.231-.23v-2.381c0-.139-.093-.23-.231-.23h-16.64c-.139 0-.231-.115-.231-.254V117.9c0-.115.092-.23.231-.23h16.64c.139 0 .231-.117.231-.232v-2.379c0-.139-.093-.232-.231-.232H43.798c-.139 0-.254.094-.254.232v8.087zm31.292-10.607c.093.139.301.139.394 0l7.834-11.625c.023-.023.046-.07.046-.115 0-.139-.116-.256-.231-.256h-2.866c-.092 0-.162.047-.208.117l-4.576 6.771c-.046.068-.116.115-.185.115-.092 0-.162-.047-.208-.115l-4.576-6.771c-.023-.07-.115-.117-.185-.117H67.21c-.185 0-.301.23-.208.371l7.834 11.625zm.394 3.143c-.093-.139-.301-.139-.394 0l-7.834 11.602c-.023.047-.023.094-.023.139 0 .139.092.23.231.23h2.865c.07 0 .162-.045.185-.092l4.576-6.795c.047-.045.116-.092.208-.092.069 0 .139.047.185.092l4.576 6.795c.046.047.116.092.208.092h2.866c.115 0 .231-.092.231-.23 0-.045-.023-.092-.046-.139l-7.834-11.602zm29.144-7.996c1.987 0 3.882.947 5.107 2.52.022.068.092.092.185.092h2.773c.138 0 .254-.092.254-.23 0-.047-.023-.07-.046-.117-1.549-3.119-4.761-5.107-8.273-5.107-5.132 0-9.269 4.139-9.269 9.268 0 5.109 4.137 9.268 9.269 9.268 3.513 0 6.725-1.986 8.296-5.129h-.022c.022-.023.046-.07.046-.094 0-.139-.116-.254-.254-.254h-2.773c-.093 0-.162.047-.208.092-3.721 4.9-11.51 2.266-11.51-3.883-.001-3.561 2.865-6.426 6.425-6.426zm-79.504-7.143h-2.866c-.093 0-.162.047-.208.117L3.839 127.283c-.023.047-.023.094-.023.139 0 .139.092.23.231.23h2.866c.069 0 .162-.045.185-.092l17.98-26.646c.023-.023.023-.07.023-.115.001-.139-.092-.256-.231-.256z"/>
    <path fill="#008C44" d="M179.555 100.773c-.115-.021-.209-.113-.209-.23 0-.045.023-.115.047-.139l9.637-12.779c.023-.047.047-.094.047-.139 0-.139-.092-.254-.23-.254h-2.982c-.068 0-.138.045-.185.115l-12.272 16.248c-.022.045-.046.092-.046.16 0 .162.162.277.348.209 1.086-.369 2.241-.555 3.397-.555 5.916 0 10.7 4.783 10.7 10.699 0 5.895-4.784 10.701-10.7 10.701-5.895 0-10.701-4.807-10.701-10.701 0-2.334.763-4.598 2.172-6.447l15.092-20.037c.047-.047.047-.094.047-.139 0-.139-.093-.254-.231-.254h-2.98c-.07 0-.14.045-.186.115l-14.029 18.604c-.485.648-.924 1.363-1.294 2.104-.901-1.803-2.219-3.396-3.813-4.645 1.249-1.734 1.896-3.814 1.896-5.939 0-5.662-4.576-10.238-10.216-10.238-8.319 0-13.149 9.428-8.297 16.154-1.617 1.248-2.912 2.842-3.813 4.668-2.52-4.992-7.327-7.488-12.134-7.488-4.831 0-9.638 2.496-12.134 7.488-2.403-4.783-7.095-7.373-11.855-7.488-3.837-.068-7.72 1.457-10.516 4.715-.046.047-.116.07-.185.07-.138 0-.231-.094-.231-.232v-4.32c0-.139-.116-.256-.254-.256h-2.357c-.139 0-.254.117-.254.256v26.623c0 .139.115.23.254.23h2.357c.139 0 .254-.092.254-.23v-4.344c0-.115.093-.232.231-.232.069 0 .139.047.185.094 2.796 3.281 6.679 4.807 10.516 4.738 4.783-.117 9.452-2.705 11.879-7.512 2.473 4.992 7.279 7.486 12.11 7.486 4.807.025 9.614-2.473 12.134-7.486 2.473 4.992 7.279 7.486 12.109 7.486 4.808.025 9.615-2.473 12.134-7.486 2.288 4.6 6.98 7.486 12.111 7.486 7.488 0 13.565-6.055 13.565-13.543-.002-6.539-4.67-12.156-11.118-13.336zm-64.481 13.336c0 1.287.183 2.572.525 3.791h-1.08c-.094 0-.186.07-.208.162-1.826 4.6-5.755 6.725-9.684 6.771-5.455.068-10.932-3.859-10.932-10.725 0-5.916 4.761-10.699 10.678-10.699.068 0 .161.023.254.023 4.275.092 8.089 2.75 9.684 6.725.022.092.114.139.208.139h1.086c-.346 1.225-.531 2.52-.531 3.813zm13.543 10.702c-5.917 0-10.7-4.807-10.7-10.701 0-5.893 4.783-10.699 10.7-10.699 5.893 0 10.7 4.807 10.7 10.699 0 5.894-4.807 10.701-10.7 10.701zm24.243 0c-5.916 0-10.7-4.807-10.7-10.701 0-4.414 2.704-8.365 6.771-9.961.093-.021.162-.115.162-.207s-.046-.162-.093-.209c-2.195-1.34-3.513-3.721-3.513-6.262 0-4.068 3.305-7.373 7.372-7.373 4.068 0 7.373 3.305 7.373 7.373 0 2.541-1.317 4.922-3.49 6.262-.161.094-.139.348.047.416 4.09 1.619 6.771 5.57 6.771 9.961.002 5.894-4.782 10.701-10.7 10.701z"/>
    <path d="M57.134 7.127H27.782c.531-.231 1.063-.439 1.595-.624l27.757.023c.162 0 .3.115.3.3 0 .163-.139.301-.3.301zM36.449 8.353H25.125c.439-.231.855-.417 1.271-.624H36.45c.185 0 .3.138.3.323 0 .162-.116.301-.301.301zm25.769 1.224H22.906c.37-.231.74-.439 1.109-.624h38.203c.162 0 .301.138.301.3 0 .186-.139.324-.301.324zm-28.057 1.225H20.987c.324-.231.647-.439.948-.625h12.226c.162 0 .3.139.3.301 0 .186-.138.324-.3.324zm11.74 0h-5.478c-.162 0-.3-.139-.3-.323 0-.162.139-.301.3-.301h5.478c.162 0 .301.139.301.301 0 .185-.139.323-.301.323zm20.084 1.202H19.277c.277-.208.554-.416.832-.601h45.876c.162 0 .301.138.301.3 0 .162-.139.301-.301.301zm-28.843 1.225H17.729c.277-.231.532-.439.786-.625l18.627.023c.162 0 .301.139.301.301 0 .162-.139.301-.301.301zm11.302 0h-7.696c-.162 0-.3-.139-.3-.3 0-.162.139-.301.3-.301h7.696c.162 0 .301.139.301.301 0 .161-.14.3-.301.3zm20.546 1.225H16.342c.254-.231.462-.439.693-.625l51.955.023c.162 0 .3.138.3.3 0 .163-.139.302-.3.302zm-19.391 1.225H18.861c-.162 0-.301-.139-.301-.3 0-.185.139-.301.301-.301h30.738c.162 0 .301.116.301.301 0 .161-.139.3-.301.3zm18.489 1.224c.185-.208.393-.416.578-.624l-54.173-.022c-.185.185-.37.393-.601.646h54.196zm-51.076.601h28.889c.162 0 .301.139.301.3 0 .185-.139.324-.301.324H17.012c-.162 0-.3-.139-.3-.324 0-.161.139-.3.3-.3zm25.215 3.051H15.625c-.162 0-.3-.139-.3-.3 0-.162.139-.3.3-.3h26.602c.162 0 .3.138.3.3 0 .162-.138.3-.3.3zm-1.387 2.45H15.164c-.162 0-.301-.139-.301-.3s.139-.301.301-.301H40.84c.162 0 .3.139.3.301s-.138.3-.3.3zm-3.236 2.45H15.625c-.162 0-.3-.138-.3-.3 0-.185.139-.324.3-.324h21.979c.162 0 .3.139.3.324.001.161-.138.3-.3.3zm-10.146 2.427H18.63c-.162 0-.301-.116-.301-.301 0-.162.139-.3.301-.3h8.828c.185 0 .324.138.324.3 0 .185-.138.301-.324.301zm-10.815 0h-1.017c-.162 0-.3-.116-.3-.301 0-.162.139-.3.3-.3h1.017c.162 0 .3.138.3.3 0 .185-.139.301-.3.301zm14.19 0c-.162 0-.301-.116-.301-.301 0-.162.139-.3.301-.3h1.248c.162 0 .3.138.3.3 0 .186-.139.301-.3.301h-1.248zm7.002 0H36.61c-.185 0-.3-.116-.3-.301 0-.162.115-.3.3-.3h1.225c.162 0 .3.138.3.3.001.185-.138.301-.3.301zm-20.73 2.449h-1.017c-.162 0-.301-.139-.301-.3s.139-.3.301-.3h1.017c.162 0 .3.139.3.3s-.138.3-.3.3zm8.99 0h-6.541c-.162 0-.301-.139-.301-.3s.139-.3.301-.3h6.541c.162 0 .3.139.3.3s-.138.3-.3.3zm11.972 0h-.994c-.185 0-.323-.139-.323-.3s.139-.3.323-.3h.994c.162 0 .3.139.3.3s-.138.3-.3.3zm-12.203 2.45h-5.847c-.162 0-.3-.138-.3-.301 0-.185.139-.323.3-.323h5.847c.162 0 .301.139.301.323 0 .163-.139.301-.301.301zm.462 2.45h-5.385c-.185 0-.324-.139-.324-.324 0-.162.139-.3.324-.3h5.385c.162 0 .3.139.3.3 0 .185-.138.324-.3.324zm5.524 0h-1.456c-.185 0-.323-.139-.323-.324 0-.162.139-.3.323-.3h1.456c.162 0 .301.139.301.3-.001.185-.14.324-.301.324zm.231 2.427h-7.234c-.162 0-.3-.139-.3-.301 0-.161.138-.3.3-.3h7.234c.162 0 .3.139.3.3 0 .162-.138.301-.3.301zm2.75 2.449h-3.074c-.162 0-.301-.139-.301-.3 0-.185.139-.324.301-.324h3.074c.185 0 .323.139.323.324 0 .162-.138.3-.323.3zm.462 2.45h-1.225c-.162 0-.3-.139-.3-.323 0-.162.139-.301.3-.301h1.225c.185 0 .324.139.324.301 0 .184-.138.323-.324.323zm15.67 0h-8.135c-.162 0-.3-.139-.3-.323 0-.162.139-.301.3-.301h8.135c.185 0 .324.139.324.301 0 .184-.139.323-.324.323zm-13.359 2.427h-1.225c-.185 0-.3-.139-.3-.3 0-.162.116-.3.3-.3h1.225c.162 0 .3.138.3.3.001.161-.138.3-.3.3zm17.981 0H40.054c-.162 0-.3-.139-.3-.3 0-.162.139-.3.3-.3h15.531c.162 0 .301.138.301.3 0 .161-.139.3-.301.3zm-51.931.624h52.394c.162 0 .301.139.301.301 0 .162-.139.3-.301.3H3.677c0-.139-.023-.347-.023-.555v-.046zm58.842 21.378H44.908c-.185 0-.3-.139-.3-.324 0-.161.115-.3.3-.3h17.588c.162 0 .3.139.3.3 0 .186-.139.324-.3.324zm-3.236 2.405H44.677c-.185 0-.301-.139-.301-.301 0-.139.116-.277.301-.277H59.26c.185 0 .324.139.324.277-.001.162-.139.301-.324.301zm-2.75 2.449H43.752c-.162 0-.3-.139-.3-.301 0-.186.138-.301.3-.301H56.51c.162 0 .3.115.3.301 0 .162-.138.301-.3.301zm12.48 1.224H17.012c-.208-.186-.416-.371-.647-.578l52.625-.047c.162 0 .3.139.3.324 0 .163-.139.301-.3.301zm-14.792 1.225h-11.37c-.162 0-.3-.139-.3-.322 0-.162.139-.301.3-.301h11.371c.162 0 .301.139.301.301-.001.183-.14.322-.302.322zm11.787 1.225H20.109c-.277-.207-.554-.416-.832-.623h46.708c.162 0 .301.139.301.301 0 .183-.139.322-.301.322zM49.83 76.717h-7.696c-.162 0-.3-.139-.3-.301s.139-.301.3-.301h7.696c.162 0 .301.139.301.301s-.139.301-.301.301zm12.388 1.224H23.992c-.346-.186-.716-.393-1.063-.602h39.289c.162 0 .301.139.301.301s-.139.301-.301.301zm-15.161 1.225H41.21c-.162 0-.3-.139-.3-.301s.139-.301.3-.301h5.847c.162 0 .3.139.3.301s-.138.301-.3.301zm10.077 1.225H29.331c-.485-.186-1.017-.393-1.548-.602l29.352-.021c.162 0 .3.139.3.322-.001.162-.14.301-.301.301zm-13.313 1.224h-3.536c-.162 0-.301-.139-.301-.301 0-.184.139-.322.301-.322h3.536c.185 0 .324.139.324.322 0 .163-.139.301-.324.301zm2.612-77.4c-1.109-.093-2.288-.139-3.444-.139-1.155 0-2.288.046-3.443.139-.115.023-.208.116-.208.231 0 .139.093.231.231.231h6.841c.115 0 .231-.092.231-.231 0-.115-.092-.208-.208-.231zM46.41 82.68c.139 0 .231-.117.231-.232s-.116-.23-.231-.23h-6.841c-.301 0-.324.439-.023.463 1.155.092 2.288.16 3.466.16l3.398-.161zm20.084-63.951c-.162.185-.324.394-.485.602H11.836c.184-.208.323-.417.485-.602h54.173zm-1.826 2.45c-.139.185-.277.393-.416.601h-54.15c.138-.208.277-.416.416-.624l54.15.023zm-1.549 2.426c-.115.185-.208.393-.323.578L8.6 24.23c.138-.231.254-.439.369-.647l54.15.022zm-1.317 2.451c-.069.162-.185.37-.277.578l-54.173.046c.116-.254.208-.462.324-.67l54.126.046zm-1.11 2.449c-.069.163-.138.371-.231.579l-54.172.022c.092-.231.185-.439.277-.647l54.126.046zm-.901 2.451c-.069.162-.138.369-.208.601H5.434c.069-.231.139-.439.208-.647l54.149.046zm-.739 2.426c-.023.162-.092.346-.139.554l-54.173.07c.069-.278.116-.462.185-.671l54.127.047zm-.555 2.45c-.046.186-.069.393-.116.578l-54.15.023c.023-.208.069-.416.116-.624l54.15.023zm-.415 2.449c-.023.185-.047.394-.07.578l-54.15.023c.023-.208.046-.416.07-.624l54.15.023zm-.232 2.427c-.023.139-.023.347-.046.555l-54.15.069c0-.277.023-.485.046-.693l54.15.069zm-.092 2.45v.647l-54.173-.046v-.647l54.173.046zm.138 3.675c.023.208.023.416.046.601H40.748c-.162 0-.3-.139-.3-.301 0-.185.139-.3.3-.3h17.148zm.116 1.202c.023.231.046.439.093.647l-54.173-.023c-.023-.185-.047-.393-.07-.601l54.15-.023zm.162 1.224c.046.231.069.439.115.647l-19.159-.022c-.162 0-.301-.139-.301-.324 0-.162.139-.301.301-.301h19.044zm.207 1.226c.046.231.07.438.116.624H4.347c-.046-.185-.092-.393-.116-.601l54.15-.023zm.232 1.224c.046.208.092.416.139.624l-21.448-.023c-.185 0-.324-.138-.324-.3 0-.162.139-.3.324-.3h21.309v-.001zm.3 1.225c.046.254.116.462.162.647l-54.173-.046c-.046-.139-.093-.347-.138-.531l54.149-.07zm.324 1.225c.046.231.115.416.185.624l-23.043-.023c-.185 0-.3-.139-.3-.301 0-.162.116-.3.3-.3h22.858zm.346 1.225c.069.208.139.417.231.647l-54.172-.046c-.069-.185-.139-.393-.208-.601h54.149zM60 56.586c.092.254.162.462.254.67l-22.719-.046c-.185 0-.324-.139-.324-.301 0-.185.139-.323.324-.323H60zm.461 1.225c.093.231.162.462.254.67l-54.173-.046c-.069-.162-.162-.393-.23-.602l54.149-.022zm.486 1.225c.116.231.208.439.301.647l-23.481-.046c-.185 0-.323-.116-.323-.301 0-.162.138-.3.323-.3h23.18zm.554 1.225c.116.254.231.462.324.647l-54.173-.046c-.093-.139-.185-.347-.277-.555l54.126-.046zm.602 1.224c.139.254.254.462.347.647l-23.088-.046c-.162 0-.3-.139-.3-.301s.139-.301.3-.301h22.741v.001zm.669 1.225c.139.231.231.439.347.624l-54.15-.023c-.115-.162-.231-.37-.346-.578l54.149-.023zm.717 1.202c.116.231.254.439.393.647l-21.979-.023c-.162 0-.301-.139-.301-.3 0-.185.139-.324.301-.324h21.586zm.763 1.225c.139.231.277.439.416.647l-54.173-.023c-.116-.185-.255-.393-.393-.624h54.15zm1.756 2.449c.162.209.324.418.485.625l-54.173-.023c-.162-.184-.301-.393-.462-.578l54.15-.024zm2.057 2.428c.208.23.416.439.601.646l-54.196-.045c-.162-.162-.347-.371-.532-.555l54.127-.046zm69.057-62.887 29.421.023c-.531-.231-1.063-.439-1.618-.624h-27.803c-.185 0-.3.139-.3.3 0 .163.116.301.3.301zm17.588-2.912c.115.023.208.116.208.231 0 .139-.093.231-.23.231h-6.842c-.115 0-.231-.092-.231-.231 0-.115.093-.208.209-.231 2.334-.185 4.646-.185 6.956.023l-.07-.023zm0 78.465c.115 0 .208-.117.208-.232s-.093-.23-.23-.23h-6.842c-.115 0-.231.115-.231.23s.093.232.209.232c1.155.092 2.311.16 3.443.16 1.179 0 2.334-.068 3.513-.16h-.07zm14.422-74.327h-1.872c-.186 0-.324-.139-.324-.301 0-.185.139-.323.324-.323h.601c.485.231.878.439 1.294.647l-.023-.023zm1.132.601c.416.23.763.439 1.11.647l-39.336-.023c-.162 0-.301-.138-.301-.324 0-.162.139-.3.301-.3h38.226zm-16.525 1.848h-3.536c-.186 0-.323-.139-.323-.323 0-.162.138-.301.323-.301h3.536c.161 0 .3.139.3.301 0 .185-.139.323-.3.323zm19.53 0h-18.004c-.162 0-.301-.139-.301-.323 0-.162.139-.301.301-.301h17.079c.348.231.647.417.948.625h-.023v-.001zm-44.998 1.202h46.708c-.208-.162-.485-.37-.786-.578l-45.922-.023c-.162 0-.301.138-.301.3 0 .162.138.301.301.301zm24.082 1.225c.161 0 .301-.139.301-.3 0-.162-.14-.301-.301-.301h-4.923c-.162 0-.3.139-.3.301 0 .161.138.3.3.3h4.923zm24.174 0c-.231-.186-.485-.393-.74-.601h-21.678c-.162 0-.301.139-.301.301 0 .161.139.3.301.3h22.418zm-51.261 1.225h52.648c-.208-.185-.417-.394-.647-.578l-52.001-.023c-.161 0-.301.138-.301.3 0 .162.139.301.301.301zm14.861.624h-.994c-.162 0-.301.116-.301.301 0 .162.139.3.301.3h.994c.185 0 .323-.139.323-.3 0-.186-.138-.301-.323-.301zm2.773.601c.161 0 .3-.139.3-.3 0-.185-.139-.301-.3-.301h-1.226c-.185 0-.3.116-.3.301 0 .162.115.3.3.3h1.226zm7.834 0c.162 0 .301-.139.301-.3 0-.185-.139-.301-.301-.301h-1.225c-.185 0-.3.116-.3.301 0 .162.115.3.3.3h1.225zm27.827-.601H154.34c-.161 0-.301.116-.301.301 0 .162.14.3.301.3h24.845c-.161-.185-.393-.393-.601-.601h-.023zm-52.371 1.825h54.173c-.185-.208-.369-.416-.555-.601l-54.173-.023c.185.208.393.417.578.624h-.023zm16.71.601h-2.612c-.161 0-.301.139-.301.3 0 .185.14.324.301.324h2.612c.161 0 .3-.139.3-.324 0-.161-.138-.3-.3-.3zm37.996 0h-35.777c-.161 0-.3.139-.3.3 0 .185.139.324.3.324h36.309c-.162-.185-.324-.393-.508-.601l-.024-.023zm1.524 1.827c-.139-.162-.3-.347-.438-.555l-54.22-.047c.208.254.37.439.532.647l54.126-.045zm.463.624h-42.132c-.162 0-.301.138-.301.3 0 .162.139.3.301.3h42.57c-.115-.162-.276-.37-.415-.578l-.023-.022zm-52.879 1.825h54.149c-.092-.162-.23-.369-.369-.577l-54.196-.023c.161.231.323.439.462.67l-.046-.07zm8.297.624h-2.172c-.162 0-.301.139-.301.301s.139.3.301.3h2.172c.162 0 .301-.139.301-.3s-.139-.301-.301-.301zm8.99 0h-6.771c-.162 0-.3.139-.3.301s.138.3.3.3h6.771c.162 0 .3-.139.3-.3s-.138-.301-.3-.301zm9.892 0h-7.673c-.185 0-.3.139-.3.301s.115.3.3.3h7.673c.186 0 .324-.139.324-.3s-.139-.301-.324-.301zm9.683 0h-3.998c-.162 0-.301.139-.301.301s.139.3.301.3h3.998c.162 0 .301-.139.301-.3s-.139-.301-.301-.301zm17.681 0h-15c-.16 0-.3.139-.3.301s.14.3.3.3h15.393c-.092-.162-.231-.37-.369-.578l-.024-.023zm-53.065 1.826h54.173c-.115-.185-.23-.393-.347-.578l-54.173-.046c.139.231.255.439.37.647l-.023-.023zm9.338.601h-5.594c-.185 0-.323.139-.323.324 0 .162.139.3.323.3h5.594c.185 0 .323-.138.323-.3.001-.185-.138-.324-.323-.324zm8.066 0h-1.688c-.161 0-.3.139-.3.324 0 .162.139.3.3.3h1.688c.186 0 .324-.138.324-.3 0-.185-.139-.324-.324-.324zm8.297 0h-5.385c-.161 0-.301.139-.301.324 0 .162.14.3.301.3h5.385c.186 0 .324-.138.324-.3 0-.185-.139-.324-.324-.324zm11.301 0h-2.843c-.186 0-.301.139-.301.324 0 .162.115.3.301.3h2.843c.161 0 .301-.138.301-.3 0-.185-.139-.324-.301-.324zm3.606 0h13.89c.116.231.231.416.323.624H172.09c-.162 0-.301-.138-.301-.3 0-.185.139-.324.301-.324zm-39.336 1.849h54.15c-.093-.185-.185-.393-.277-.601l-54.174-.023c.116.231.208.439.301.647v-.023zm54.705 1.202c-.07-.139-.162-.347-.255-.555l-14.652-.046c-.162 0-.3.138-.3.3 0 .186.138.301.3.301h14.907zm-18.051 0c.162 0 .301-.116.301-.301 0-.162-.139-.3-.301-.3h-12.063c-.186 0-.301.138-.301.3 0 .186.115.301.301.301h12.063zm-14.975-.601h-1.249c-.161 0-.3.138-.3.3 0 .186.139.301.3.301h1.249c.162 0 .3-.116.3-.301-.001-.162-.138-.3-.3-.3zm-3.929.601c.161 0 .3-.116.3-.301 0-.162-.139-.3-.3-.3h-.763c-.185 0-.301.138-.301.3 0 .186.116.301.301.301h.763zm-11.972-.601h-2.866c-.162 0-.301.138-.301.3 0 .186.139.301.301.301h2.866c.161 0 .3-.116.3-.301 0-.162-.139-.3-.3-.3zm49.181 1.224h-54.15c.093.232.162.44.254.648l54.15-.046c-.069-.162-.161-.37-.254-.578v-.024zm-29.906 1.826h30.6c-.047-.162-.139-.393-.208-.601h-30.392c-.186 0-.3.139-.3.3s.114.301.3.301zm-13.058-.601h-10.724c.093.208.162.439.254.647l10.47-.046c.161 0 .3-.139.3-.3s-.139-.301-.3-.301zm43.865 1.226h-54.149c.068.231.161.438.207.67l54.15-.069c-.046-.162-.116-.37-.186-.601h-.022zm-25.977 1.825h26.556c-.047-.185-.116-.37-.163-.578l-26.393-.046c-.161 0-.3.139-.3.323 0 .163.139.301.3.301zm-27.618 0h11.811c.162 0 .301-.138.301-.301 0-.185-.139-.323-.301-.323h-11.972c.069.254.115.439.185.647l-.024-.023zm54.335.601h-54.15c.046.208.093.416.139.624h54.173c-.047-.208-.116-.417-.161-.601v-.023h-.001zm-15.184 1.849h14.121c.185 0 .323-.139.323-.324 0-.162-.139-.3-.323-.3H174.17c-.186 0-.301.139-.301.3 0 .185.115.324.301.324zm-38.666-.624h35.291c.162 0 .301.139.301.3 0 .185-.139.324-.301.324h-35.151c-.047-.162-.093-.37-.14-.555v-.069zm54.404 1.225h-54.149c.046.254.092.463.115.647l54.15-.046c-.023-.138-.047-.347-.093-.554l-.023-.047zm-5.616 1.826h3.56c.161 0 .301-.139.301-.301 0-.161-.14-.3-.301-.3h-3.56c-.161 0-.3.139-.3.3 0 .162.139.301.3.301zm-7.742-.601h-1.687c-.186 0-.323.139-.323.3 0 .162.138.301.323.301h1.687c.162 0 .301-.139.301-.301 0-.161-.139-.3-.301-.3zm-4.391.601h-8.136c-.161 0-.301-.139-.301-.301 0-.161.14-.3.301-.3h8.136c.185 0 .323.139.323.3 0 .162-.138.301-.323.301zm-36.077 0h25.261c.162 0 .301-.139.301-.301 0-.161-.139-.3-.301-.3H135.99c.022.254.068.439.092.646v-.045zm54.242.623h-54.149c.022.254.046.439.068.647l54.15-.046c-.022-.162-.046-.347-.069-.554v-.047zm-2.472 1.202h-2.635c-.162 0-.3.139-.3.324 0 .162.138.3.3.3h2.635c.161 0 .301-.139.301-.3-.001-.185-.14-.324-.301-.324zm-22.442.624h11.602c.162 0 .301-.139.301-.3 0-.185-.139-.324-.301-.324H165.41c-.185 0-.301.139-.301.324 0 .162.117.3.301.3zm-29.051 0h26.37c.161 0 .3-.139.3-.3 0-.185-.139-.324-.3-.324h-26.416c.022.277.046.485.046.693v-.069zm54.22.601h-54.173c.022.208.022.416.046.624h54.15c.001-.207-.023-.415-.023-.624zm-2.727 1.225h-1.017c-.161 0-.301.139-.301.301 0 .185.14.323.301.323h1.017c.161 0 .301-.139.301-.323-.001-.162-.14-.301-.301-.301zm-20.824.624h9.521c.162 0 .301-.139.301-.323 0-.162-.139-.301-.301-.301h-9.521c-.185 0-.323.139-.323.301 0 .184.139.323.323.323zm-30.53 0h28.058c.185 0 .323-.139.323-.323 0-.162-.139-.301-.323-.301h-28.08c0 .231.022.439.022.647v-.023zm54.173.601h-54.173v.577l54.173.023v-.6zm-16.432 1.826c.162 0 .301-.139.301-.3 0-.162-.139-.3-.301-.3h-5.386c-.161 0-.3.138-.3.3 0 .162.139.3.3.3h5.386zm-37.763 0h29.929c.162 0 .301-.139.301-.3 0-.162-.139-.3-.301-.3h-29.906c-.001.184-.023.392-.023.6zm54.127.624h-54.15c-.023.185-.023.393-.046.601h54.173c0-.208.023-.416.023-.625v.024zm-21.287 1.826h1.017c.162 0 .301-.139.301-.301 0-.185-.139-.3-.301-.3h-1.017c-.162 0-.301.115-.301.3.001.162.139.301.301.301zm-33.003 0h31.015c.163 0 .301-.139.301-.301 0-.185-.138-.3-.301-.3h-30.969c0 .139-.023.347-.046.554v.047zm54.081.601h-54.15c-.022.162-.046.37-.068.578l54.149.046c.023-.254.047-.462.069-.67v.046zm-15.693 1.849c.162 0 .3-.139.3-.324 0-.162-.138-.301-.3-.301h-38.619c-.023.162-.069.37-.092.578l38.711.047zm15.323.601h-54.15c-.023.161-.069.369-.115.554l54.149.069c.069-.254.093-.462.139-.67l-.023.047zm-54.52 1.825h36.886c.185 0 .323-.138.323-.3 0-.162-.139-.3-.323-.3h-36.746c-.047.139-.093.347-.14.555v.045zm54.012.624h-54.173c-.046.186-.093.393-.139.601h54.15c.045-.208.115-.415.162-.601zm-51.307 1.826h32.355c.161 0 .3-.139.3-.301 0-.162-.139-.3-.3-.3h-32.355c-.163 0-.302.139-.302.3 0 .163.139.301.302.301zm50.613.624h-54.15c-.046.139-.139.37-.207.578l54.149.023c.092-.231.162-.462.231-.67l-.023.069zM142.6 57.21h26.347c.162 0 .301-.139.301-.301 0-.185-.139-.323-.301-.323H142.6c-.185 0-.323.139-.323.323-.001.162.138.301.323.301zm45.367.601h-54.172c-.07.185-.14.393-.232.601l54.15.023c.093-.231.185-.439.254-.67v.046zm-46.523 1.826h25.19c.162 0 .301-.116.301-.301 0-.162-.139-.3-.301-.3h-25.19c-.186 0-.301.139-.301.3.001.185.116.301.301.301zm45.46.624h-54.15c-.093.185-.185.393-.301.601h54.15c.116-.208.208-.417.301-.625v.024zM142.6 62.087h21.956c.185 0 .323-.139.323-.301s-.139-.301-.323-.301H142.6c-.185 0-.323.139-.323.301s.138.301.323.301zm43.055.623h-54.173c-.092.162-.208.37-.323.578l54.127.023c.139-.231.254-.439.369-.625v.024zm-40.767 1.826h19.437c.185 0 .323-.139.323-.3 0-.185-.139-.324-.323-.324h-19.437c-.162 0-.301.139-.301.324 0 .161.139.3.301.3zm39.265.601h-54.149c-.093.162-.255.37-.393.578l54.149.046c.162-.254.301-.462.439-.67l-.046.046zm-13.358 1.849c.162 0 .301-.139.301-.324 0-.161-.139-.3-.301-.3h-1.479c-.162 0-.301.139-.301.3 0 .186.139.324.301.324h1.479zm-26.693 0h20.223c.185 0 .323-.139.323-.324 0-.161-.139-.3-.323-.3h-20.223c-.162 0-.3.139-.3.3 0 .186.137.324.3.324zm38.318.6h-54.173c-.115.162-.277.371-.438.555l54.127.047c.185-.23.346-.439.508-.623l-.024.021zm-12.779 1.227h-1.919c-.185 0-.323.139-.323.277 0 .162.139.301.323.301h1.919c.161 0 .3-.139.3-.301-.001-.139-.139-.277-.3-.277zm-25.447.578h18.998c.161 0 .3-.139.3-.301 0-.139-.139-.277-.3-.277h-18.998c-.162 0-.301.139-.301.277.001.162.139.301.301.301zm36.169.623H126.19c-.162.186-.37.393-.555.602h54.15c.209-.21.394-.417.578-.602zm-12.11 1.224h-1.456c-.185 0-.322.115-.322.301 0 .162.138.301.322.301h1.456c.162 0 .301-.139.301-.301 0-.185-.139-.301-.301-.301zm-22.44.602h14.375c.161 0 .3-.139.3-.301 0-.186-.139-.301-.3-.301h-14.375c-.162 0-.301.115-.301.301 0 .162.138.301.301.301zm32.101.599h-52.648c-.161 0-.301.139-.301.324 0 .162.14.301.301.301h51.978c.254-.23.463-.416.693-.625h-.023zm-31.64 1.85H158.8c.161 0 .301-.139.301-.322 0-.162-.14-.301-.301-.301h-12.526c-.162 0-.301.139-.301.301.001.183.139.322.301.322zm28.705.602h-46.708c-.162 0-.301.139-.301.301 0 .184.139.322.301.322h45.876c.347-.254.624-.439.879-.646l-.047.023zm-27.318 1.224h7.233c.162 0 .301.139.301.301s-.139.301-.301.301h-7.233c-.162 0-.301-.139-.301-.301s.139-.301.301-.301zm23.689 1.225h-39.312c-.162 0-.301.139-.301.301s.139.301.301.301h38.226c.416-.209.763-.416 1.11-.625l-.024.023zm-34.228 3.051h27.803c.555-.209 1.087-.416 1.618-.646l-29.421.023c-.161 0-.3.139-.3.322 0 .162.139.301.3.301z"/>
    <path fill="#FFF" d="M136.498 43.458c0-21.702-17.703-39.382-39.382-39.382-21.678 0-39.358 17.68-39.358 39.382 0 21.679 17.68 39.36 39.358 39.36 21.679 0 39.382-17.681 39.382-39.36z"/>
    <path fill="#EE3224" d="M107.331 5.417c-3.305-.878-6.748-1.34-10.215-1.34-3.42 0-6.841.439-10.169 1.34-1.248 1.364-2.519 2.843-3.721 4.391 4.807 1.317 9.476 3.005 13.936 5.108 4.553-2.149 9.222-3.836 14.006-5.13-1.248-1.41-2.52-2.912-3.837-4.346v-.023zM97.116 28.714c-5.223 2.45-9.984 5.916-13.982 10.168.693 5.847 2.52 11.44 5.362 16.571 2.843.485 5.731.762 8.62.762 2.935 0 5.848-.277 8.713-.832 2.797-5.13 4.6-10.724 5.315-16.524-3.951-4.183-8.712-7.649-14.004-10.123l-.024-.022zm-33.003-6.703c-3.768 5.755-5.939 12.457-6.31 19.391.971 1.733 2.011 3.397 3.097 5.015 2.658-4.276 5.731-8.182 9.106-11.833-.647-4.877-.809-9.892-.555-14.884-1.733.739-3.537 1.479-5.339 2.288v.023h.001zm66.03 0c3.791 5.824 5.963 12.526 6.31 19.46-.901 1.548-1.942 3.212-3.028 4.83-2.635-4.044-5.686-7.95-9.06-11.602.347-3.582.556-7.002.556-10.446 0-1.479-.047-2.935-.116-4.415 1.849.67 3.675 1.41 5.454 2.219l-.116-.046zM66.517 68.234c4.368 5.385 10.1 9.521 16.571 11.994 1.872-.416 3.79-.879 5.662-1.41-3.166-3.721-5.939-7.857-8.366-12.156-4.854-1.017-9.638-2.403-14.26-4.16.046 1.965.185 3.929.416 5.871l-.023-.139zm61.638-5.755c-4.507 1.733-9.292 3.12-14.145 4.091-2.474 4.275-5.27 8.389-8.366 12.248 1.872.578 3.79 1.041 5.709 1.434 6.354-2.52 12.063-6.68 16.408-12.041.186-1.918.324-3.882.416-5.847l-.022.115z"/>
  </g>
</svg>