<?xml version="1.0" encoding="UTF-8" standalone="no"?>
<svg
   xmlns:dc="http://purl.org/dc/elements/1.1/"
   xmlns:cc="http://creativecommons.org/ns#"
   xmlns:rdf="http://www.w3.org/1999/02/22-rdf-syntax-ns#"
   xmlns:svg="http://www.w3.org/2000/svg"
   xmlns="http://www.w3.org/2000/svg"
   xmlns:xlink="http://www.w3.org/1999/xlink"
   xmlns:sodipodi="http://sodipodi.sourceforge.net/DTD/sodipodi-0.dtd"
   xmlns:inkscape="http://www.inkscape.org/namespaces/inkscape"
   version="1.1"
   x="0px"
   y="0px"
   width="272.53845"
   height="300"
   viewBox="0 0 272.53845 300"
   id="svg2"
   inkscape:version="0.47 r22583"
   sodipodi:docname="2010_FIFA_World_Cup_logo.svg">
  <metadata
     id="metadata324">
    <rdf:RDF>
      <cc:Work
         rdf:about="">
        <dc:format>image/svg+xml</dc:format>
        <dc:type
           rdf:resource="http://purl.org/dc/dcmitype/StillImage" />
      </cc:Work>
    </rdf:RDF>
  </metadata>
  <defs
     id="defs322">
    <inkscape:perspective
       sodipodi:type="inkscape:persp3d"
       inkscape:vp_x="0 : 330 : 1"
       inkscape:vp_y="0 : 1000 : 0"
       inkscape:vp_z="600 : 330 : 1"
       inkscape:persp3d-origin="300 : 220 : 1"
       id="perspective326" />
    <linearGradient
       inkscape:collect="always"
       xlink:href="#SVGID_1_"
       id="linearGradient3200"
       gradientUnits="userSpaceOnUse"
       gradientTransform="matrix(12.4074,0,0,12.4074,-170.9265,1034.6906)"
       x1="30.481701"
       y1="-47.5098"
       x2="27.733601"
       y2="-51.291901" />
    <linearGradient
       inkscape:collect="always"
       xlink:href="#SVGID_2_"
       id="linearGradient3202"
       gradientUnits="userSpaceOnUse"
       gradientTransform="matrix(12.4074,0,0,12.4074,-170.9265,1034.6906)"
       x1="23.1565"
       y1="-47.285198"
       x2="21.7031"
       y2="-51.278599" />
    <linearGradient
       inkscape:collect="always"
       xlink:href="#SVGID_3_"
       id="linearGradient3204"
       gradientUnits="userSpaceOnUse"
       gradientTransform="matrix(12.4074,0,0,12.4074,-170.9265,1034.6906)"
       x1="19.9377"
       y1="-47.167999"
       x2="18.362499"
       y2="-51.495998" />
    <linearGradient
       inkscape:collect="always"
       xlink:href="#SVGID_4_"
       id="linearGradient3206"
       gradientUnits="userSpaceOnUse"
       gradientTransform="matrix(12.4074,0,0,12.4074,-170.9265,1034.6906)"
       x1="26.6248"
       y1="-47.3335"
       x2="25.1922"
       y2="-51.269001" />
    <linearGradient
       inkscape:collect="always"
       xlink:href="#SVGID_5_"
       id="linearGradient3208"
       gradientUnits="userSpaceOnUse"
       gradientTransform="matrix(12.4074,0,0,12.4074,-170.9265,1034.6906)"
       x1="32.498798"
       y1="-47.243198"
       x2="31.0569"
       y2="-51.2047" />
    <linearGradient
       inkscape:collect="always"
       xlink:href="#SVGID_6_"
       id="linearGradient3210"
       gradientUnits="userSpaceOnUse"
       gradientTransform="matrix(12.4074,0,0,12.4074,-170.9265,1034.6906)"
       x1="30.122801"
       y1="-38.2686"
       x2="28.936399"
       y2="-42.1492" />
    <linearGradient
       inkscape:collect="always"
       xlink:href="#SVGID_7_"
       id="linearGradient3212"
       gradientUnits="userSpaceOnUse"
       gradientTransform="matrix(12.4074,0,0,12.4074,-170.9265,1034.6906)"
       x1="32.825001"
       y1="-38.290501"
       x2="31.479601"
       y2="-41.987099" />
    <linearGradient
       inkscape:collect="always"
       xlink:href="#SVGID_8_"
       id="linearGradient3214"
       gradientUnits="userSpaceOnUse"
       gradientTransform="matrix(12.4074,0,0,12.4074,-170.9265,1034.6906)"
       x1="24.340599"
       y1="-38.144501"
       x2="22.913"
       y2="-42.0667" />
    <linearGradient
       inkscape:collect="always"
       xlink:href="#SVGID_9_"
       id="linearGradient3216"
       gradientUnits="userSpaceOnUse"
       gradientTransform="matrix(12.4074,0,0,12.4074,-170.9265,1034.6906)"
       x1="27.6194"
       y1="-38.2915"
       x2="26.2736"
       y2="-41.988701" />
    <linearGradient
       inkscape:collect="always"
       xlink:href="#SVGID_10_"
       id="linearGradient3218"
       gradientUnits="userSpaceOnUse"
       gradientTransform="matrix(12.4074,0,0,12.4074,-170.9265,1034.6906)"
       x1="24.6726"
       y1="-42.480499"
       x2="23.8857"
       y2="-46.942902" />
    <linearGradient
       inkscape:collect="always"
       xlink:href="#SVGID_11_"
       id="linearGradient3220"
       gradientUnits="userSpaceOnUse"
       gradientTransform="matrix(12.4074,0,0,12.4074,-170.9265,1034.6906)"
       x1="44.436298"
       y1="-71.542999"
       x2="40.780201"
       y2="-73.302002" />
    <linearGradient
       inkscape:collect="always"
       xlink:href="#SVGID_12_"
       id="linearGradient3222"
       gradientUnits="userSpaceOnUse"
       gradientTransform="matrix(12.4074,0,0,12.4074,-170.9265,1034.6906)"
       x1="36.657001"
       y1="-50.900902"
       x2="22.842199"
       y2="-58.594799" />
    <linearGradient
       inkscape:collect="always"
       xlink:href="#SVGID_13_"
       id="linearGradient3224"
       gradientUnits="userSpaceOnUse"
       gradientTransform="matrix(12.4074,0,0,12.4074,-170.9265,1034.6906)"
       x1="45.773201"
       y1="-53.8354"
       x2="39.380001"
       y2="-60.333599" />
    <linearGradient
       inkscape:collect="always"
       xlink:href="#SVGID_14_"
       id="linearGradient3226"
       gradientUnits="userSpaceOnUse"
       gradientTransform="matrix(12.4074,0,0,12.4074,-170.9265,1034.6906)"
       x1="39.617901"
       y1="-66.790001"
       x2="30.290199"
       y2="-74.425102" />
    <linearGradient
       inkscape:collect="always"
       xlink:href="#SVGID_15_"
       id="linearGradient3228"
       gradientUnits="userSpaceOnUse"
       gradientTransform="matrix(12.4074,0,0,12.4074,-170.9265,1034.6906)"
       x1="41.924099"
       y1="-75.129402"
       x2="48.7635"
       y2="-47.8894" />
    <linearGradient
       inkscape:collect="always"
       xlink:href="#SVGID_16_"
       id="linearGradient3230"
       gradientUnits="userSpaceOnUse"
       gradientTransform="matrix(12.4074,0,0,12.4074,-170.9265,1034.6906)"
       x1="31.342501"
       y1="-75.349098"
       x2="48.566299"
       y2="-54.815498" />
    <linearGradient
       inkscape:collect="always"
       xlink:href="#SVGID_17_"
       id="linearGradient3232"
       gradientUnits="userSpaceOnUse"
       gradientTransform="matrix(12.4074,0,0,12.4074,-170.9265,1034.6906)"
       x1="24.219999"
       y1="-72.046402"
       x2="47.4245"
       y2="-44.807098" />
    <linearGradient
       inkscape:collect="always"
       xlink:href="#SVGID_18_"
       id="linearGradient3234"
       gradientUnits="userSpaceOnUse"
       gradientTransform="matrix(12.4074,0,0,12.4074,-170.9265,1034.6906)"
       x1="42.966999"
       y1="-42.1465"
       x2="49.187"
       y2="-58.350101" />
    <linearGradient
       inkscape:collect="always"
       xlink:href="#SVGID_19_"
       id="linearGradient3236"
       gradientUnits="userSpaceOnUse"
       gradientTransform="matrix(12.4074,0,0,12.4074,-170.9265,1034.6906)"
       x1="30.7131"
       y1="-75.230003"
       x2="13.8642"
       y2="-62.399799" />
    <linearGradient
       inkscape:collect="always"
       xlink:href="#SVGID_20_"
       id="linearGradient3238"
       gradientUnits="userSpaceOnUse"
       gradientTransform="matrix(12.4074,0,0,12.4074,-170.9265,1034.6906)"
       x1="19.828899"
       y1="-70.899902"
       x2="44.578098"
       y2="-45.189499" />
    <linearGradient
       inkscape:collect="always"
       xlink:href="#SVGID_21_"
       id="linearGradient3240"
       gradientUnits="userSpaceOnUse"
       gradientTransform="matrix(12.4074,0,0,12.4074,-170.9265,1034.6906)"
       x1="21.4597"
       y1="-73.8853"
       x2="25.0879"
       y2="-63.916698" />
    <linearGradient
       inkscape:collect="always"
       xlink:href="#SVGID_22_"
       id="linearGradient3242"
       gradientUnits="userSpaceOnUse"
       gradientTransform="matrix(12.4074,0,0,12.4074,-170.9265,1034.6906)"
       x1="22.5823"
       y1="-72.485397"
       x2="41.815498"
       y2="-42.868999" />
    <linearGradient
       inkscape:collect="always"
       xlink:href="#SVGID_23_"
       id="linearGradient3244"
       gradientUnits="userSpaceOnUse"
       gradientTransform="matrix(12.4074,0,0,12.4074,-170.9265,1034.6906)"
       x1="30.4412"
       y1="-75.7202"
       x2="15.5755"
       y2="-64.601196" />
    <linearGradient
       inkscape:collect="always"
       xlink:href="#SVGID_24_"
       id="linearGradient3246"
       gradientUnits="userSpaceOnUse"
       gradientTransform="matrix(12.4074,0,0,12.4074,-170.9265,1034.6906)"
       x1="41.252201"
       y1="-67.648903"
       x2="35.448601"
       y2="-75.2537" />
    <radialGradient
       inkscape:collect="always"
       xlink:href="#SVGID_25_"
       id="radialGradient3248"
       gradientUnits="userSpaceOnUse"
       gradientTransform="matrix(12.4074,0,0,12.4074,-170.9265,1034.6906)"
       cx="36.200401"
       cy="-79.767097"
       r="2.9456" />
    <linearGradient
       inkscape:collect="always"
       xlink:href="#SVGID_26_"
       id="linearGradient3250"
       gradientUnits="userSpaceOnUse"
       gradientTransform="matrix(12.4074,0,0,12.4074,-170.9265,1034.6906)"
       x1="35.539799"
       y1="-74.459503"
       x2="34.719799"
       y2="-80.294403" />
  </defs>
  <sodipodi:namedview
     pagecolor="#ffffff"
     bordercolor="#666666"
     borderopacity="1"
     objecttolerance="10"
     gridtolerance="10"
     guidetolerance="10"
     inkscape:pageopacity="0"
     inkscape:pageshadow="2"
     inkscape:window-width="1280"
     inkscape:window-height="750"
     id="namedview320"
     showgrid="false"
     inkscape:zoom="2.0227539"
     inkscape:cx="216.59371"
     inkscape:cy="195.787"
     inkscape:window-x="-8"
     inkscape:window-y="-8"
     inkscape:window-maximized="1"
     inkscape:current-layer="svg2" />
  <title
     id="title4">2010 FIFA World Cup logo</title>
  <linearGradient
     id="SVGID_1_"
     gradientUnits="userSpaceOnUse"
     x1="30.481701"
     y1="-47.5098"
     x2="27.733601"
     y2="-51.291901"
     gradientTransform="matrix(12.4074,0,0,12.4074,-170.9265,1034.6906)">
    <stop
       offset="0"
       stop-color="#000"
       id="stop41" />
    <stop
       offset="1"
       stop-color="#434345"
       id="stop43" />
  </linearGradient>
  <linearGradient
     id="SVGID_2_"
     gradientUnits="userSpaceOnUse"
     x1="23.1565"
     y1="-47.285198"
     x2="21.7031"
     y2="-51.278599"
     gradientTransform="matrix(12.4074,0,0,12.4074,-170.9265,1034.6906)">
    <stop
       offset="0"
       stop-color="#000"
       id="stop48" />
    <stop
       offset="1"
       stop-color="#474749"
       id="stop50" />
  </linearGradient>
  <linearGradient
     id="SVGID_3_"
     gradientUnits="userSpaceOnUse"
     x1="19.9377"
     y1="-47.167999"
     x2="18.362499"
     y2="-51.495998"
     gradientTransform="matrix(12.4074,0,0,12.4074,-170.9265,1034.6906)">
    <stop
       offset="0"
       stop-color="#000"
       id="stop55" />
    <stop
       offset="1"
       stop-color="#4E4F51"
       id="stop57" />
  </linearGradient>
  <linearGradient
     id="SVGID_4_"
     gradientUnits="userSpaceOnUse"
     x1="26.6248"
     y1="-47.3335"
     x2="25.1922"
     y2="-51.269001"
     gradientTransform="matrix(12.4074,0,0,12.4074,-170.9265,1034.6906)">
    <stop
       offset="0"
       stop-color="#000"
       id="stop62" />
    <stop
       offset="1"
       stop-color="#515254"
       id="stop64" />
  </linearGradient>
  <linearGradient
     id="SVGID_5_"
     gradientUnits="userSpaceOnUse"
     x1="32.498798"
     y1="-47.243198"
     x2="31.0569"
     y2="-51.2047"
     gradientTransform="matrix(12.4074,0,0,12.4074,-170.9265,1034.6906)">
    <stop
       offset="0"
       stop-color="#000"
       id="stop69" />
    <stop
       offset="0.9882"
       stop-color="#515254"
       id="stop71" />
    <stop
       offset="1"
       stop-color="#515254"
       id="stop73" />
  </linearGradient>
  <linearGradient
     id="SVGID_6_"
     gradientUnits="userSpaceOnUse"
     x1="30.122801"
     y1="-38.2686"
     x2="28.936399"
     y2="-42.1492"
     gradientTransform="matrix(12.4074,0,0,12.4074,-170.9265,1034.6906)">
    <stop
       offset="0"
       stop-color="#000"
       id="stop78" />
    <stop
       offset="1"
       stop-color="#3F3E40"
       id="stop80" />
  </linearGradient>
  <linearGradient
     id="SVGID_7_"
     gradientUnits="userSpaceOnUse"
     x1="32.825001"
     y1="-38.290501"
     x2="31.479601"
     y2="-41.987099"
     gradientTransform="matrix(12.4074,0,0,12.4074,-170.9265,1034.6906)">
    <stop
       offset="0"
       stop-color="#000"
       id="stop85" />
    <stop
       offset="1"
       stop-color="#48484A"
       id="stop87" />
  </linearGradient>
  <linearGradient
     id="SVGID_8_"
     gradientUnits="userSpaceOnUse"
     x1="24.340599"
     y1="-38.144501"
     x2="22.913"
     y2="-42.0667"
     gradientTransform="matrix(12.4074,0,0,12.4074,-170.9265,1034.6906)">
    <stop
       offset="0"
       stop-color="#000"
       id="stop92" />
    <stop
       offset="1"
       stop-color="#4D4D4F"
       id="stop94" />
  </linearGradient>
  <linearGradient
     id="SVGID_9_"
     gradientUnits="userSpaceOnUse"
     x1="27.6194"
     y1="-38.2915"
     x2="26.2736"
     y2="-41.988701"
     gradientTransform="matrix(12.4074,0,0,12.4074,-170.9265,1034.6906)">
    <stop
       offset="0"
       stop-color="#000"
       id="stop99" />
    <stop
       offset="1"
       stop-color="#4D4D4F"
       id="stop101" />
  </linearGradient>
  <linearGradient
     id="SVGID_10_"
     gradientUnits="userSpaceOnUse"
     x1="24.6726"
     y1="-42.480499"
     x2="23.8857"
     y2="-46.942902"
     gradientTransform="matrix(12.4074,0,0,12.4074,-170.9265,1034.6906)">
    <stop
       offset="0"
       stop-color="#C4161C"
       id="stop106" />
    <stop
       offset="0.3804"
       stop-color="#C4161C"
       id="stop108" />
    <stop
       offset="0.6784"
       stop-color="#ED1C24"
       id="stop110" />
    <stop
       offset="0.8392"
       stop-color="#ED1C24"
       id="stop112" />
    <stop
       offset="1"
       stop-color="#ED1C24"
       id="stop114" />
  </linearGradient>
  <linearGradient
     id="SVGID_11_"
     gradientUnits="userSpaceOnUse"
     x1="44.436298"
     y1="-71.542999"
     x2="40.780201"
     y2="-73.302002"
     gradientTransform="matrix(12.4074,0,0,12.4074,-170.9265,1034.6906)">
    <stop
       offset="0"
       stop-color="#9D9FA2"
       id="stop123" />
    <stop
       offset="1"
       stop-color="#FFF"
       id="stop125" />
  </linearGradient>
  <linearGradient
     id="SVGID_12_"
     gradientUnits="userSpaceOnUse"
     x1="36.657001"
     y1="-50.900902"
     x2="22.842199"
     y2="-58.594799"
     gradientTransform="matrix(12.4074,0,0,12.4074,-170.9265,1034.6906)">
    <stop
       offset="0"
       stop-color="#D8D9DB"
       id="stop132" />
    <stop
       offset="0.9294"
       stop-color="#FFF"
       id="stop134" />
    <stop
       offset="1"
       stop-color="#FFF"
       id="stop136" />
  </linearGradient>
  <linearGradient
     id="SVGID_13_"
     gradientUnits="userSpaceOnUse"
     x1="45.773201"
     y1="-53.8354"
     x2="39.380001"
     y2="-60.333599"
     gradientTransform="matrix(12.4074,0,0,12.4074,-170.9265,1034.6906)">
    <stop
       offset="0"
       stop-color="#999B9E"
       id="stop141" />
    <stop
       offset="0.6784"
       stop-color="#FFF"
       id="stop143" />
    <stop
       offset="1"
       stop-color="#FFF"
       id="stop145" />
  </linearGradient>
  <linearGradient
     id="SVGID_14_"
     gradientUnits="userSpaceOnUse"
     x1="39.617901"
     y1="-66.790001"
     x2="30.290199"
     y2="-74.425102"
     gradientTransform="matrix(12.4074,0,0,12.4074,-170.9265,1034.6906)">
    <stop
       offset="0"
       stop-color="#9D9FA2"
       id="stop150" />
    <stop
       offset="1"
       stop-color="#F5F6F6"
       id="stop152" />
  </linearGradient>
  <linearGradient
     id="SVGID_15_"
     gradientUnits="userSpaceOnUse"
     x1="41.924099"
     y1="-75.129402"
     x2="48.7635"
     y2="-47.8894"
     gradientTransform="matrix(12.4074,0,0,12.4074,-170.9265,1034.6906)">
    <stop
       offset="0"
       stop-color="#D7DF23"
       id="stop159" />
    <stop
       offset="0.4902"
       stop-color="#77C043"
       id="stop161" />
    <stop
       offset="1"
       stop-color="#007236"
       id="stop163" />
    <stop
       offset="1"
       stop-color="#007236"
       id="stop165" />
  </linearGradient>
  <linearGradient
     id="SVGID_16_"
     gradientUnits="userSpaceOnUse"
     x1="31.342501"
     y1="-75.349098"
     x2="48.566299"
     y2="-54.815498"
     gradientTransform="matrix(12.4074,0,0,12.4074,-170.9265,1034.6906)">
    <stop
       offset="0"
       stop-color="#FFF200"
       id="stop170" />
    <stop
       offset="0.3804"
       stop-color="#FFDD00"
       id="stop172" />
    <stop
       offset="0.749"
       stop-color="#F58220"
       id="stop174" />
    <stop
       offset="1"
       stop-color="#F58220"
       id="stop176" />
  </linearGradient>
  <linearGradient
     id="SVGID_17_"
     gradientUnits="userSpaceOnUse"
     x1="24.219999"
     y1="-72.046402"
     x2="47.4245"
     y2="-44.807098"
     gradientTransform="matrix(12.4074,0,0,12.4074,-170.9265,1034.6906)">
    <stop
       offset="0"
       stop-color="#FCAF17"
       id="stop181" />
    <stop
       offset="0.3882"
       stop-color="#ED1C24"
       id="stop183" />
    <stop
       offset="1"
       stop-color="#B02A30"
       id="stop185" />
  </linearGradient>
  <linearGradient
     id="SVGID_18_"
     gradientUnits="userSpaceOnUse"
     x1="42.966999"
     y1="-42.1465"
     x2="49.187"
     y2="-58.350101"
     gradientTransform="matrix(12.4074,0,0,12.4074,-170.9265,1034.6906)">
    <stop
       offset="0"
       stop-color="#040040"
       id="stop190" />
    <stop
       offset="0.7098"
       stop-color="#004B97"
       id="stop192" />
    <stop
       offset="0.8118"
       stop-color="#004B97"
       id="stop194" />
    <stop
       offset="1"
       stop-color="#004B97"
       id="stop196" />
  </linearGradient>
  <linearGradient
     id="SVGID_19_"
     gradientUnits="userSpaceOnUse"
     x1="30.7131"
     y1="-75.230003"
     x2="13.8642"
     y2="-62.399799"
     gradientTransform="matrix(12.4074,0,0,12.4074,-170.9265,1034.6906)">
    <stop
       offset="0"
       stop-color="#D7DF23"
       id="stop203" />
    <stop
       offset="0.5098"
       stop-color="#77C043"
       id="stop205" />
    <stop
       offset="0.8706"
       stop-color="#007236"
       id="stop207" />
    <stop
       offset="1"
       stop-color="#007236"
       id="stop209" />
  </linearGradient>
  <linearGradient
     id="SVGID_20_"
     gradientUnits="userSpaceOnUse"
     x1="19.828899"
     y1="-70.899902"
     x2="44.578098"
     y2="-45.189499"
     gradientTransform="matrix(12.4074,0,0,12.4074,-170.9265,1034.6906)">
    <stop
       offset="0"
       stop-color="#FFF200"
       id="stop214" />
    <stop
       offset="0.3686"
       stop-color="#FFDD00"
       id="stop216" />
    <stop
       offset="1"
       stop-color="#F99D1C"
       id="stop218" />
  </linearGradient>
  <linearGradient
     id="SVGID_21_"
     gradientUnits="userSpaceOnUse"
     x1="21.4597"
     y1="-73.8853"
     x2="25.0879"
     y2="-63.916698"
     gradientTransform="matrix(12.4074,0,0,12.4074,-170.9265,1034.6906)">
    <stop
       offset="0"
       stop-color="#FFF7DB"
       id="stop223" />
    <stop
       offset="0.5294"
       stop-color="#FFDD00"
       id="stop225" />
    <stop
       offset="1"
       stop-color="#FFDD00"
       id="stop227" />
  </linearGradient>
  <linearGradient
     id="SVGID_22_"
     gradientUnits="userSpaceOnUse"
     x1="22.5823"
     y1="-72.485397"
     x2="41.815498"
     y2="-42.868999"
     gradientTransform="matrix(12.4074,0,0,12.4074,-170.9265,1034.6906)">
    <stop
       offset="0"
       stop-color="#FDB813"
       id="stop232" />
    <stop
       offset="0.4"
       stop-color="#FDB813"
       id="stop234" />
    <stop
       offset="0.6588"
       stop-color="#E9841D"
       id="stop236" />
    <stop
       offset="1"
       stop-color="#E9841D"
       id="stop238" />
  </linearGradient>
  <linearGradient
     id="SVGID_23_"
     gradientUnits="userSpaceOnUse"
     x1="30.4412"
     y1="-75.7202"
     x2="15.5755"
     y2="-64.601196"
     gradientTransform="matrix(12.4074,0,0,12.4074,-170.9265,1034.6906)">
    <stop
       offset="0"
       stop-color="#62A73B"
       id="stop243" />
    <stop
       offset="0.4902"
       stop-color="#006B2C"
       id="stop245" />
    <stop
       offset="0.8314"
       stop-color="#007236"
       id="stop247" />
    <stop
       offset="1"
       stop-color="#007236"
       id="stop249" />
  </linearGradient>
  <linearGradient
     id="SVGID_24_"
     gradientUnits="userSpaceOnUse"
     x1="41.252201"
     y1="-67.648903"
     x2="35.448601"
     y2="-75.2537"
     gradientTransform="matrix(12.4074,0,0,12.4074,-170.9265,1034.6906)">
    <stop
       offset="0"
       stop-color="#000"
       id="stop260" />
    <stop
       offset="0.2392"
       stop-color="#000"
       id="stop262" />
    <stop
       offset="1"
       stop-color="#4D4D4F"
       id="stop264" />
  </linearGradient>
  <radialGradient
     id="SVGID_25_"
     cx="36.200401"
     cy="-79.767097"
     r="2.9456"
     gradientTransform="matrix(12.4074,0,0,12.4074,-170.9265,1034.6906)"
     gradientUnits="userSpaceOnUse">
    <stop
       offset="0"
       stop-color="#FFF"
       id="stop269" />
    <stop
       offset="0.4902"
       stop-color="#FFF"
       id="stop271" />
    <stop
       offset="0.7098"
       stop-color="#BCBDC0"
       id="stop273" />
    <stop
       offset="1"
       stop-color="#BCBDC0"
       id="stop275" />
  </radialGradient>
  <linearGradient
     id="SVGID_26_"
     gradientUnits="userSpaceOnUse"
     x1="35.539799"
     y1="-74.459503"
     x2="34.719799"
     y2="-80.294403"
     gradientTransform="matrix(12.4074,0,0,12.4074,-170.9265,1034.6906)">
    <stop
       offset="0"
       stop-color="#ED1C24"
       id="stop282" />
    <stop
       offset="0.4"
       stop-color="#EE3224"
       id="stop284" />
    <stop
       offset="0.8118"
       stop-color="#FFDD00"
       id="stop286" />
    <stop
       offset="1"
       stop-color="#FFDD00"
       id="stop288" />
  </linearGradient>
  <g
     id="g3132"
     transform="matrix(0.4529803,0,0,0.4529803,0.3313716,1.2580644)">
    <path
       id="path6"
       d="m 3.634,3.771 v 606.887 c 0,25.14 20.444,45.57 45.587,45.57 H 574.634 V 77.813 c 0,-40.795 -33.168,-73.992 -73.975,-74.041 H 3.634 l 0,-10e-4 z"
       style="fill:#ffffff" />
    <path
       id="path8"
       d="M 130.704,592.554 H 12.988 v 18.113 c 0,20.002 16.217,36.201 36.215,36.201 H 565.272 V 238.542 C 523.843,440.595 345.009,592.554 130.704,592.554 z"
       style="fill:#004b97" />
    <path
       id="path10"
       d="m 565.263,116.507 c -12.681,21.124 -35.389,35.55 -61.515,36.632 2.459,19.075 3.781,38.549 3.781,58.359 0,90.18 -26.529,173.595 -71.521,241.583 79.588,-84.193 129.261,-203.48 129.261,-335.831 -10e-4,-0.244 -0.006,-0.493 -0.006,-0.743 l 0,0 z"
       style="fill:#3d9cd7" />
    <path
       id="path12"
       d="m 524.931,130.292 c -6.059,-8.313 -10.001,-18.243 -10.994,-29.032 7.301,-13.88 11.107,-29.848 10.315,-46.647 -0.538,-11.527 -3.296,-22.388 -7.681,-32.337 24.16,6.938 41.86,29.175 41.86,55.575 0.002,23.238 -13.733,43.217 -33.5,52.441 l 0,0 z m -24.373,5.444 c -5.313,0 -10.426,-0.788 -15.298,-2.123 9.734,-6.767 18.112,-15.376 24.553,-25.309 1.745,8.804 5.379,16.87 10.328,23.951 -6.127,2.199 -12.692,3.481 -19.583,3.481 l 0,0 z m -21.683,-4.24 c -21.229,-8.583 -36.194,-29.354 -36.194,-53.646 0,-6.833 1.262,-13.394 3.437,-19.491 12.772,-1.648 26.123,2.609 35.626,12.722 8.457,9.02 12.807,21.699 10.755,34.854 -1.587,10.211 -6.516,19.162 -13.624,25.561 l 0,0 z m -14.492,-98.79 c 5.633,2.342 10.907,5.424 15.539,9.37 -3.406,5.17 -4.793,11.635 -3.521,18.012 -8.475,-5.366 -18.361,-7.698 -28.065,-7.033 3.769,-7.946 9.258,-14.901 16.047,-20.349 z m 45.289,28.191 c -3.239,0.486 -5.909,2.451 -7.388,5.117 -3.252,-9.411 -8.558,-17.692 -15.325,-24.411 3.419,-3.282 8.063,-5.297 13.171,-5.297 10.52,0 19.045,8.544 19.045,19.067 0,2.727 -0.556,5.305 -1.598,7.643 -2.136,-1.703 -4.972,-2.574 -7.905,-2.119 z M 506.433,71 c 0,-2.616 2.114,-4.744 4.754,-4.744 2.617,0 4.75,2.128 4.75,4.744 0,2.617 -2.133,4.74 -4.75,4.74 -2.64,0 -4.754,-2.123 -4.754,-4.74 z m -1.094,8.369 c 3.429,2.416 7.944,2.461 11.391,0.231 -3.018,12.261 -8.697,23.519 -16.419,33.13 4.52,-10.172 6.416,-21.626 5.028,-33.361 l 0,0 z M 483.896,65.385 c -3.869,-6.263 -3.663,-13.87 -0.153,-19.771 7.608,7.69 13.145,17.553 15.591,28.807 -6.106,-0.235 -12.006,-3.442 -15.438,-9.036 z m 9.205,13.13 c 2.354,0.71 4.763,1.047 7.116,1.047 1.111,8.771 0.21,17.438 -2.43,25.505 1.096,-9.196 -0.593,-18.424 -4.686,-26.552 z m 7.457,-58.535 c 3.323,0 6.535,0.342 9.714,0.871 2.66,5.322 4.833,10.936 6.334,16.843 -4.32,-4.03 -10.115,-6.489 -16.477,-6.489 -6.608,0 -12.602,2.643 -16.965,6.925 -4.229,-3.581 -8.935,-6.522 -13.941,-8.896 9.035,-5.831 19.781,-9.254 31.335,-9.254 z m 0.007,-6.844 c -35.735,0 -64.711,28.959 -64.711,64.702 0,35.742 28.976,64.719 64.711,64.719 35.74,0 64.727,-28.977 64.727,-64.719 -10e-4,-35.743 -28.986,-64.702 -64.727,-64.702 z"
       style="fill:#004b97" />
    <polygon
       id="polygon14"
       points="355.934,632.484 347.135,632.484 343.511,612.794 343.442,612.794 340.053,632.484 331.208,632.484 325.527,606.861 332.512,606.861 335.804,626.546 335.878,626.546 339.323,606.861 347.997,606.861 351.596,626.546 351.65,626.546 354.996,606.861 361.646,606.861 "
       style="fill:#ffffff" />
    <path
       id="path16"
       d="m 377.149,627.855 c 4.145,0 5.809,-3.951 5.809,-8.176 0,-4.451 -1.664,-8.18 -5.809,-8.18 -4.171,0 -5.813,3.729 -5.813,8.18 0,4.225 1.642,8.176 5.813,8.176 z m 0,-21.432 c 8.426,0 12.842,5.037 12.842,13.258 0,8.158 -4.464,13.254 -12.842,13.254 -8.379,0 -12.877,-5.096 -12.877,-13.254 0,-8.221 4.425,-13.258 12.877,-13.258 z"
       style="fill:#ffffff" />
    <path
       id="path18"
       d="m 401.379,617.511 h 1.791 c 2.2,0 5.011,-0.088 5.011,-2.98 0,-2.373 -2.406,-2.813 -5.011,-2.813 h -1.791 v 5.793 l 0,0 z m -6.833,-10.646 h 12.195 c 4.543,0 8.26,2.063 8.26,6.457 0,3.418 -1.605,5.693 -4.916,6.478 v 0.059 c 2.198,0.595 2.352,2.533 3.625,5.65 l 2.495,6.978 h -7.127 l -1.466,-4.632 c -1.393,-4.399 -2.269,-5.502 -4.808,-5.502 h -1.427 v 10.134 h -6.833 l 0.002,-25.622 0,0 z"
       style="fill:#ffffff" />
    <polygon
       id="polygon20"
       points="437.543,632.484 420.14,632.484 420.14,606.861 426.958,606.861 426.958,627.421 437.543,627.421 "
       style="fill:#ffffff" />
    <path
       id="path22"
       d="m 448.294,627.421 h 2.646 c 5.106,0 7.974,-2.636 7.974,-7.74 0,-5.098 -2.963,-7.756 -7.974,-7.756 h -2.646 v 15.496 z m -6.818,-20.562 h 9.322 c 8.92,0 15.176,2.775 15.176,12.717 0,9.582 -6.435,12.912 -15.176,12.912 h -9.322 v -25.629 z"
       style="fill:#ffffff" />
    <path
       id="path24"
       d="m 504.476,631.896 c -1.926,0.486 -4.093,1.037 -7.59,1.037 -6.823,0 -14.736,-3.449 -14.736,-13.141 0,-8.92 6.239,-13.367 14.692,-13.367 2.608,0 5.145,0.586 7.616,1.313 l -0.582,5.56 c -2.188,-1.221 -4.312,-1.803 -6.663,-1.803 -4.856,0 -8,3.526 -8,8.297 0,5.021 3.545,8.063 8.553,8.063 2.219,0 4.513,-0.582 6.387,-1.303 l 0.323,5.344 0,0 z"
       style="fill:#ffffff" />
    <path
       id="path26"
       d="m 530.627,622.751 c 0,7.024 -4.556,10.186 -11.23,10.186 -6.701,0 -11.232,-3.16 -11.232,-10.186 v -15.89 h 6.82 v 14.76 c 0,3.38 0.905,6.234 4.412,6.234 3.492,0 4.391,-2.854 4.391,-6.234 v -14.76 h 6.841 l -0.002,15.89 0,0 z"
       style="fill:#ffffff" />
    <path
       id="path28"
       d="m 542.406,618.691 h 1.776 c 2.343,0 4.206,-0.85 4.206,-3.531 0,-2.608 -1.863,-3.446 -4.206,-3.446 h -1.776 v 6.977 l 0,0 z m -6.819,-11.832 h 8.141 c 7.832,0 11.481,2.646 11.481,8.404 0,5.191 -3.772,8.26 -10.159,8.26 h -2.645 v 8.965 h -6.818 v -25.629 l 0,0 z"
       style="fill:#ffffff" />
    <polygon
       id="polygon30"
       points="372.185,532.429 372.185,592.445 391.151,592.445 391.151,570.768 404.29,570.768 409.459,557.628 391.151,557.628 391.151,545.441 413.404,545.441 418.306,532.429 "
       style="fill:#ffffff" />
    <polygon
       id="polygon32"
       points="443.154,592.445 443.154,532.429 424.443,532.429 424.406,592.445 "
       style="fill:#ffffff" />
    <path
       id="path34"
       d="m 533.125,532.527 h -19.47 l -21.563,60.023 h 18.092 l 2.327,-8.076 h 21.085 l 2.465,8.076 h 18.65 l -21.586,-60.023 z m -17.272,40.431 7.223,-24.976 7.475,24.976 h -14.698 z"
       style="fill:#ffffff" />
    <polygon
       id="polygon36"
       points="456.47,532.429 456.47,592.445 475.436,592.445 475.436,570.768 488.585,570.768 493.745,557.628 475.436,557.628 475.436,545.441 497.698,545.441 502.578,532.429 "
       style="fill:#ffffff" />
    <path
       id="path38"
       d="m 193.656,458.831 c 4.025,3.864 4.025,11.266 4.025,11.266 0,0 -16.222,2.438 -16.222,13.324 0,0.932 0.127,1.795 0.364,2.59 -1.83,-1.75 -3.061,-3.986 -3.061,-6.807 0,-10.898 16.238,-13.337 16.238,-13.337 0,0 0.003,-3.569 -1.344,-7.036 z m 0.665,36.183 c 1.282,0.307 2.485,0.5 3.545,0.635 -0.607,1.791 -0.923,3.013 -0.883,3.58 -0.797,2.754 -2.229,6.221 -4.519,8.023 -11.7,-1.041 -20.629,-6.461 -24.201,-14.129 4.474,5.393 12.104,9.067 21.527,9.914 2.294,-1.838 3.726,-5.351 4.531,-8.023 l 0,0 z m -58.595,-29.382 c 1.863,2.049 3.262,4.666 3.598,7.879 0.202,1.859 -1.072,8.313 -7.091,11.301 -1.086,-1.188 -2.264,-2.451 -3.603,-3.811 6.798,-2.771 8.206,-9.769 8.001,-11.724 -0.136,-1.311 -0.455,-2.539 -0.905,-3.645 z m 6.876,32.662 c 0.948,1.203 1.974,2.473 3.099,3.854 -0.788,1.117 -9.297,5.064 -11.254,5.289 0,0 -4.504,-5.289 -13.153,-19.08 6.887,10.662 10.471,14.838 10.471,14.838 1.762,-0.17 8.936,-3.463 10.837,-4.901 l 0,0 z M 121.15,488.139 c -0.396,0.705 1.526,19.697 1.526,19.697 0,0 -10.246,0.375 -14.02,-2.816 l 0.092,-2.752 c 4.557,1.584 11.236,1.348 11.236,1.348 0,0 -1.913,-18.991 -1.523,-19.704 0.946,1.503 1.849,2.908 2.689,4.227 z m -1.536,-20.173 0.215,6.481 c -0.793,0.478 -1.63,0.937 -2.5,1.4 l -0.407,-12.098 c 0,0 7.546,-0.951 9.229,4.555 -0.119,0.225 -0.25,0.434 -0.372,0.639 -2.748,-1.393 -6.165,-0.977 -6.165,-0.977 l 0,0 z m -63.101,-7.855 0.553,0.074 c 0,0 14.037,25.83 16.559,46.271 -4.688,0.639 -12.326,-0.152 -15.074,0.045 0,0 -0.346,-1.813 -0.906,-4.254 3.458,0.061 9.394,0.502 13.289,-0.015 C 69.028,486.771 60.535,468.24 56.513,460.111 l 0,0 z m -2.762,33.232 -10.907,-1.57 c 0,0 -2.557,7.75 -6.225,14.75 0,0 -9.148,-0.592 -11.682,-1.27 0,0 -0.921,0.157 -1.053,-1.81 -0.024,-0.381 0.118,-1.08 0.396,-2.047 3.636,0.516 9.646,0.896 9.646,0.896 3.667,-6.998 6.232,-14.761 6.232,-14.761 l 12.313,1.777 c 0.449,1.234 0.891,2.624 1.28,4.035 l 0,0 z M 49.72,473.345 c -1.15,2.57 -2.323,5.418 -3.187,7.551 -2.137,-0.459 -4.01,-0.871 -4.01,-0.871 0,0 2.749,-7.151 5.136,-12.276 0.901,1.932 1.544,3.765 2.061,5.596 z m 111.046,-11.766 4.895,45.239 c -1.868,1.156 -11.792,1.332 -16.926,-3.715 -0.053,-0.717 -0.105,-1.502 -0.154,-2.324 5.354,3.072 12.8,2.814 14.396,1.804 l -4.529,-41.814 c 1.609,0.394 2.318,0.81 2.318,0.81 l 0,0 z m -55.076,-1.516 c 1.501,0.938 -0.68,9.359 -0.68,9.359 0,0 -9.634,0.012 -14.795,2.521 l -0.117,2.806 c -1.737,0.358 -2.901,0.7 -2.901,0.7 l 0.329,-7.729 c 5.154,-2.504 14.802,-2.525 14.802,-2.525 0,0 0.679,-2.621 1.017,-5.106 0.772,-0.017 1.557,-0.026 2.345,-0.026 l 0,0 z m -5.927,18.166 c 0.941,0.025 1.859,0.1 2.732,0.275 l -0.089,7.729 c -2.788,-0.434 -8.872,0.994 -11.857,1.183 -0.607,0.739 -1.27,15.836 -0.161,20.287 0,0 -8.946,-0.609 -15.04,-4.74 -0.112,-0.941 -0.205,-1.873 -0.263,-2.828 5.791,2.881 12.61,3.336 12.61,3.336 -1.1,-4.451 -0.438,-19.539 0.18,-20.287 2.978,-0.18 9.056,-1.619 11.848,-1.188 l 0.04,-3.767 0,0 z m 125.74,-4.884 c -1.143,2.57 -2.325,5.418 -3.188,7.551 -2.145,-0.459 -4.019,-0.871 -4.019,-0.871 0,0 2.767,-7.151 5.148,-12.276 0.903,1.932 1.555,3.765 2.059,5.596 z m 6.788,-13.234 0.562,0.074 c 0,0 14.036,25.83 16.558,46.271 -4.688,0.639 -12.325,-0.152 -15.064,0.045 0,0 -0.354,-1.813 -0.929,-4.254 3.467,0.061 9.411,0.502 13.303,-0.015 -1.915,-15.461 -10.398,-33.992 -14.43,-42.121 z m -2.757,33.232 -10.896,-1.57 c 0,0 -2.578,7.75 -6.229,14.75 0,0 -9.14,-0.592 -11.7,-1.27 0,0 -0.9,0.157 -1.038,-1.81 -0.034,-0.381 0.118,-1.08 0.407,-2.047 3.615,0.516 9.63,0.896 9.63,0.896 3.669,-6.998 6.238,-14.761 6.238,-14.761 l 12.312,1.777 c 0.449,1.234 0.882,2.624 1.276,4.035 l 0,0 z m -25.724,-90.519 1.523,-0.021 c 1.75,0.516 1.68,6.475 -0.504,7.402 l -9.411,1.188 c 0.867,11.639 1.786,37.924 1.786,37.924 0,0 -5.485,2.924 -16.077,1.08 l 0.346,-3.807 c 8.598,0.861 13.045,-1.508 13.045,-1.508 0,0 -0.925,-26.277 -1.79,-37.927 l 9.424,-1.182 c 0.936,-0.401 1.487,-1.72 1.658,-3.149 l 0,0 z m -22.327,10.726 c -1.947,0.283 -4.578,0.713 -7.082,1.276 0,-1.829 0.253,-3.479 0.631,-4.897 3.702,-0.664 6.894,-1.014 6.894,-1.014 l -0.443,4.635 0,0 z m 36.924,-8.909 c 1.957,0.539 2.788,1.143 2.788,1.143 l -0.328,10.33 c -1.051,-0.092 -2.027,-0.184 -2.806,-0.301 l 0.346,-11.172 z m 23.659,0.487 c 1.021,0.162 1.886,0.434 2.438,0.836 l 3.194,43.092 c -2.831,2.627 -13.499,1.229 -13.499,1.229 0,0 -0.218,-0.293 -0.419,-4.006 3.291,0.25 9.229,0.396 11.244,-1.453 l -2.958,-39.698 0,0 z m -11.267,27.89 c -2.797,-0.521 -6.153,-0.727 -9.253,-0.119 0,0 -0.521,8.719 1.038,17.4 -5.03,1.309 -8.343,1.592 -14.62,1.119 0,-0.633 -0.079,-2.052 -0.146,-4.07 4.719,0.223 7.77,-0.166 12.068,-1.27 -1.546,-8.685 -1.033,-17.421 -1.033,-17.421 4.157,-0.805 8.768,-0.131 11.905,0.734 0.015,1.31 0.028,2.515 0.041,3.627 l 0,0 z m -85.658,-27.704 1.134,26.359 c -1.15,-0.854 -2.088,-1.877 -2.631,-2.938 l -1.056,-24.444 c 1.476,0.167 2.513,0.513 2.553,1.023 z m 22.077,-1.375 c 0.933,0.404 1.794,0.943 2.481,1.699 0.136,1.965 3.384,37.547 3.527,39.504 0.288,4.215 -2.019,5.414 -8.403,6.092 0,0 -0.708,-2.192 -1.532,-4.371 5.512,-0.7 7.525,-2.01 7.239,-5.94 -0.108,-1.691 -2.541,-28.424 -3.312,-36.984 l 0,0 z m -5.563,41.618 c -2.635,2.803 -6.294,5.17 -9.669,5.416 -1.957,0.117 -11.078,-3.33 -16.715,-6.225 -0.066,-0.438 -0.149,-1.523 -0.251,-3.039 5.522,2.565 12.589,5.141 14.277,5.024 3.722,-0.262 7.787,-3.104 10.436,-6.278 0.687,1.599 1.449,3.716 1.922,5.102 l 0,0 z m -79.103,-44.75 c 2.403,4.162 4.016,8.238 4.407,12.336 -7.304,-2.596 -14.478,0.607 -17.48,2.559 -0.709,-0.336 -1.457,-0.69 -2.232,-1.02 -0.766,-0.324 -2.604,-0.955 -1.895,-2.029 0.695,-1.067 9.689,-7.014 18.911,-3.737 -0.258,-2.685 -1.036,-5.367 -2.227,-8.068 l 0.516,-0.041 z m 0.754,27.851 c 3.317,4.166 4.377,8.13 3.82,9.9 -4.617,14.461 -26.607,11.078 -30.885,9.801 -2.118,-0.631 -3.418,-2.645 -4.224,-5.012 0.454,0.355 0.968,0.617 1.526,0.787 4.29,1.266 26.269,4.666 30.898,-9.803 0.361,-1.15 0.042,-3.222 -1.135,-5.673 z m -14.287,3.983 c -5.88,-5.023 -18.971,-9.869 -18.913,-13.576 0.009,-0.246 0.025,-0.49 0.052,-0.758 5.76,4.219 18.605,9.279 18.953,14.256 l -0.092,0.078 z m 61.694,-1.39 c -1.384,9.895 -9.223,18.807 -17.224,19.377 -8.613,0.6 -19.133,-6.115 -23.01,-14.275 4.91,6.117 13.248,10.531 20.305,10.043 8.01,-0.565 15.849,-9.477 17.237,-19.383 0.48,-7.037 -0.604,-12.736 -2.725,-17.104 3.811,4.604 6.061,11.725 5.417,21.342 l 0,0 z M 112.226,414.04 c -4.431,-0.779 -10.844,7.071 -11.01,7.975 -0.235,1.334 0.048,3.113 0.778,4.906 -2.616,-2.797 -3.896,-6.677 -3.475,-9.125 0.171,-0.916 6.578,-8.765 11.021,-7.972 3.086,0.552 5.1,3.228 6.316,6.181 -1.001,-0.994 -2.196,-1.701 -3.63,-1.965 l 0,0 z m 133.753,113.974 c 2.28,2.773 3.785,5.943 4.018,9.139 1.034,14.738 -7.772,24.24 -20.41,25.138 -6.408,0.438 -12.5,-2.861 -15.792,-9.841 3.424,4.068 8.172,5.945 13.097,5.613 12.654,-0.897 21.435,-10.389 20.415,-25.129 -0.111,-1.673 -0.588,-3.315 -1.328,-4.92 l 0,0 z m -10.234,5.026 c -1.291,-1.05 -2.994,-1.857 -5.087,-2.273 -3.554,-0.686 -7.437,0.701 -8.539,6.387 -0.14,0.714 0.03,1.673 0.447,2.709 -2.095,-2.293 -3.458,-5.266 -3.141,-6.928 1.108,-5.694 4.981,-7.092 8.535,-6.395 4.502,0.873 7.212,3.657 7.785,6.5 l 0,0 z m -128.542,28.437 c 0,0 -0.258,-1.59 -0.279,-3.699 9.394,1.703 28.958,1.992 34.754,-2.592 -0.401,-0.945 -1.265,-2.787 -2.101,-4.543 0.393,-0.066 0.616,-0.092 0.616,-0.092 0,0 3.257,6.705 4.171,8.877 -6.363,5.011 -29.254,4.163 -37.161,2.049 l 0,0 z M 126.16,528.96 c -3.615,0.86 -7.344,2.223 -10.027,3.608 0,0 -0.959,-2.477 -1.736,-4.709 4.162,-1.965 10.168,-3.729 14.731,-4.073 1.236,-0.089 0.696,2.786 -2.968,5.174 l 0,0 z m 14.931,-8.888 c 2.558,2.431 3.624,6.295 3.639,9.509 -0.289,0.983 -0.504,1.979 -0.641,2.987 -0.024,0.392 -0.052,0.785 -0.064,1.174 -2.665,7.638 -10.793,8.681 -18.223,13.447 -2.337,0 -4.876,-0.104 -7.454,-0.397 8.729,-8.896 20.834,-7.875 23.4,-18.713 0.511,-2.148 0.367,-5.234 -0.657,-8.007 l 0,0 z m 30.066,12.968 c -1.283,-1.05 -2.999,-1.857 -5.082,-2.273 -3.56,-0.686 -7.432,0.701 -8.54,6.387 -0.148,0.714 0.026,1.673 0.438,2.709 -2.074,-2.293 -3.452,-5.266 -3.135,-6.928 1.112,-5.694 4.974,-7.092 8.54,-6.395 4.496,0.873 7.215,3.657 7.779,6.5 l 0,0 z m 10.234,-5.026 c 2.281,2.773 3.796,5.943 4.019,9.139 1.025,14.738 -7.771,24.24 -20.405,25.138 -6.408,0.438 -12.51,-2.861 -15.806,-9.841 3.439,4.068 8.181,5.945 13.102,5.613 12.652,-0.897 21.447,-10.389 20.418,-25.129 -0.12,-1.673 -0.585,-3.315 -1.328,-4.92 l 0,0 z m 20.958,-11.337 c 0.753,-0.015 1.554,-0.015 2.401,0.026 0,0 2.658,36.377 1.927,46.658 0,0 -11.087,0.685 -16.37,-4.053 l 0.146,-2.385 c 5.638,2.694 13.542,2.209 13.542,2.209 0.572,-8.125 -0.972,-32.58 -1.646,-42.455 l 0,0 z m -12.943,8.262 -0.302,5.271 c -0.753,-1.488 -1.314,-3.078 -1.717,-4.396 0.684,-0.236 1.384,-0.537 2.019,-0.875 z"
       style="fill:#d1d3d4" />
    <path
       id="path45"
       d="m 174.707,400.193 c 0,0 -2.99,4.187 -2.99,10.388 4.891,-1.084 10.204,-1.673 10.204,-1.673 l 0,0 -3.484,37.255 c 10.585,1.854 16.076,-1.082 16.076,-1.082 l 0,0 c 0,0 -0.914,-26.279 -1.79,-37.922 l 0,0 9.43,-1.188 c 2.184,-0.924 2.23,-6.881 0.503,-7.389 -22.413,0.22 -27.949,1.611 -27.949,1.611 l 0,0 0,0 z"
       style="fill:url(#linearGradient3200)" />
    <path
       id="path52"
       d="M 108.325,399.477 C 94.65,400.43 85.147,410.7 86.277,426.641 l 0,0 c 0.727,10.365 14.027,20.492 24.512,19.756 l 0,0 c 8.009,-0.567 15.844,-9.481 17.232,-19.381 l 0,0 c 1.241,-18.283 -8.06,-27.588 -18.468,-27.588 -0.405,0.008 -0.817,0.017 -1.228,0.049 z m -0.535,30.735 c -6.372,-1.125 -9.936,-8.554 -9.271,-12.412 l 0,0 c 0.166,-0.914 6.573,-8.764 11.021,-7.98 l 0,0 c 6.373,1.14 8.207,11.39 7.703,14.271 l 0,0 c -0.831,4.789 -4.231,6.303 -7.475,6.303 l 0,0 c -0.677,-0.003 -1.339,-0.07 -1.978,-0.182 l 0,0 z"
       style="fill:url(#linearGradient3202)" />
    <path
       id="path59"
       d="m 50.849,407.591 c -2.48,2.25 -3.387,5.174 -3.427,7.246 l 0,0 c -0.097,4.721 21.241,11.291 21.693,17.727 l 0,0 c -7.065,5.603 -17.553,-3.625 -20.004,-3.83 l 0,0 c -0.968,-0.088 -0.989,0.385 -0.989,0.385 l 0,0 c 0,0 -0.648,13.224 5.428,15.019 l 0,0 c 4.28,1.27 26.264,4.67 30.89,-9.801 l 0,0 c 1.032,-3.256 -3.437,-13.854 -17.188,-19.648 l 0,0 c -0.771,-0.322 -2.613,-0.963 -1.896,-2.039 l 0,0 c 0.688,-1.059 9.687,-7.004 18.907,-3.738 l 0,0 c -0.393,-4.088 -2.003,-8.172 -4.405,-12.321 -12.012,0.951 -20.854,3.44 -29.009,11 l 0,0 z"
       style="fill:url(#linearGradient3204)" />
    <path
       id="path66"
       d="m 130.683,401.427 v 0.016 c 0.022,0.552 1.408,35.81 1.888,39.097 l 0,0 c 5.649,2.881 14.771,6.332 16.729,6.202 l 0,0 c 3.716,-0.264 7.791,-3.104 10.436,-6.282 l 0,0 c 1.12,2.588 2.395,6.545 2.395,6.545 6.4,-0.681 8.706,-1.873 8.403,-6.074 l 0,0 c -0.131,-1.971 -3.387,-37.561 -3.527,-39.514 l 0,0 c -2.005,-2.209 -5.487,-2.625 -7.804,-2.625 l 0,0 c -1.37,0 -2.324,0.145 -2.324,0.145 l 0,0 c 0.175,3.344 1.422,27.615 1.563,29.574 l 0,0 c 0,0 -3.034,5.031 -5.874,5.301 l 0,0 c -3.218,0.303 -7.489,-2.268 -8.926,-5.068 l 0,0 -1.183,-27.641 c -0.116,-1.583 -9.384,-1.547 -11.776,0.324 l 0,0 z"
       style="fill:url(#linearGradient3206)" />
    <path
       id="path75"
       d="m 205.277,447.199 c 6.271,0.474 9.581,0.181 14.62,-1.125 l 0,0 c -1.556,-8.676 -1.043,-17.411 -1.043,-17.411 l 0,0 c 4.157,-0.806 8.768,-0.142 11.905,0.733 l 0,0 c 0.147,15.84 0.748,16.656 0.748,16.656 l 0,0 c 0,0 10.667,1.396 13.513,-1.223 l 0,0 -3.213,-43.103 c -2.255,-1.613 -10.163,-1.176 -10.163,-1.176 l 0,0 c -1.345,6.059 -1.777,11.836 -2.083,16.467 l 0,0 c -2.985,-0.652 -8.483,-0.754 -11.504,-1.203 l 0,0 0.446,-14.258 c 0,0 -2.744,-1.973 -9.889,-1.973 l 0,0 c -5.308,13.226 -3.394,43.952 -3.337,47.616 l 0,0 0,0 z"
       style="fill:url(#linearGradient3208)" />
    <path
       id="path82"
       d="m 190.622,513.936 c -2.146,0.789 -6.684,4.635 -6.684,4.635 0,0 0.748,4.041 2.516,7.484 l 0,0 c 0.985,-0.195 2.022,-0.625 2.956,-1.115 l 0,0 -1.778,30.146 c 5.271,4.729 16.358,4.051 16.358,4.051 l 0,0 c 0.726,-10.285 -1.937,-46.654 -1.937,-46.654 l 0,0 c -0.582,-0.024 -1.146,-0.039 -1.688,-0.039 -6.285,-10e-4 -9.743,1.492 -9.743,1.492 l 0,0 0,0 z"
       style="fill:url(#linearGradient3210)" />
    <path
       id="path89"
       d="m 224.623,514.636 c -7.419,0.518 -14.668,8.776 -15.945,17.926 l 0,0 c -1.209,17.586 8.133,26.195 18.213,25.504 l 0,0 c 12.654,-0.896 21.438,-10.391 20.415,-25.137 l 0,0 c -0.657,-9.272 -12.151,-18.322 -21.673,-18.322 l 0,0 c -0.341,-0.002 -0.685,0.012 -1.01,0.029 l 0,0 z m 3.003,28.412 c -4.36,-0.679 -8.75,-7.277 -8.199,-10.134 l 0,0 c 1.104,-5.676 4.978,-7.067 8.535,-6.373 l 0,0 c 6.128,1.201 8.938,5.9 7.538,9.539 l 0,0 c -1.765,4.562 -3.235,7.072 -6.596,7.072 l 0,0 c -0.394,0 -0.823,-0.03 -1.278,-0.104 l 0,0 0,0 z"
       style="fill:url(#linearGradient3212)" />
    <path
       id="path96"
       d="m 110.749,520.188 c -0.32,0.283 2.683,8.154 2.683,8.154 l 0,0 c 4.169,-2.154 10.761,-4.187 15.702,-4.549 l 0,0 c 1.53,-0.119 0.327,4.271 -6.054,6.711 l 0,0 c -8.566,3.26 -15.525,7.396 -18.262,17.66 l 0,0 c -1.111,4.098 -0.304,9.078 -0.304,9.078 l 0,0 c 7.906,2.133 30.799,2.959 37.158,-2.045 l 0,0 c -0.911,-2.166 -4.172,-8.871 -4.172,-8.871 l 0,0 c 0,0 -9.131,1.576 -19.167,0.463 l 0,0 c 8.745,-8.89 20.847,-7.879 23.408,-18.707 l 0,0 c 1.033,-4.351 -0.587,-12.545 -6.929,-14.242 l 0,0 c -1.606,-0.434 -3.39,-0.652 -5.263,-0.652 l 0,0 c -6.162,0 -13.358,2.341 -18.8,7 l 0,0 0,0 z"
       style="fill:url(#linearGradient3214)" />
    <path
       id="path103"
       d="m 160.035,514.636 c -7.415,0.518 -14.663,8.776 -15.951,17.926 l 0,0 c -1.188,17.586 8.143,26.195 18.223,25.504 l 0,0 c 12.649,-0.896 21.436,-10.391 20.414,-25.137 l 0,0 c -0.655,-9.272 -12.142,-18.322 -21.671,-18.322 l 0,0 c -0.346,-0.002 -0.679,0.012 -1.015,0.029 l 0,0 z m 3.012,28.412 c -4.364,-0.679 -8.759,-7.277 -8.208,-10.134 l 0,0 c 1.112,-5.676 4.981,-7.067 8.531,-6.373 l 0,0 c 6.141,1.201 8.942,5.9 7.541,9.539 l 0,0 c -1.754,4.562 -3.229,7.072 -6.592,7.072 l 0,0 c -0.393,0 -0.822,-0.03 -1.272,-0.104 l 0,0 0,0 z"
       style="fill:url(#linearGradient3216)" />
    <path
       id="path116"
       d="m 163.878,481.165 c 0,11.623 10.566,20.504 25.908,21.868 l 0,0 c 4.036,-3.204 5.392,-11.612 5.392,-11.612 l 0,0 c -5.725,-0.688 -16.413,-3.859 -16.413,-12.222 l 0,0 c 0,-10.895 16.238,-13.331 16.238,-13.331 l 0,0 c 0,0 0,-7.406 -4.049,-11.271 l 0,0 c -18.321,0 -27.076,13.363 -27.076,26.568 l 0,0 z m 33.1,18.06 c 0.14,1.951 1.051,1.785 1.051,1.785 l 0,0 c 2.542,0.695 11.682,1.287 11.682,1.287 l 0,0 c 3.672,-7.008 6.238,-14.76 6.238,-14.76 l 0,0 12.308,1.77 c 1.878,5.104 3.396,12.961 3.396,12.961 l 0,0 c 1.11,-0.072 3.051,0.008 5.271,0.096 l 0,0 c 3.212,0.121 7.013,0.25 9.796,-0.137 l 0,0 c -2.518,-20.432 -16.56,-46.26 -16.56,-46.26 l 0,0 c 0,0 -7.317,-1.021 -13.192,-1.021 l 0,0 c -6.142,10.518 -20.231,40.745 -19.99,44.279 l 0,0 z m 21.315,-19.202 c 0,0 2.771,-7.158 5.153,-12.27 l 0,0 c 2.253,4.836 2.932,9.174 3.941,14.197 l 0,0 c -2.786,-0.514 -9.094,-1.927 -9.094,-1.927 l 0,0 z M 21.196,499.225 c 0.13,1.951 1.046,1.785 1.046,1.785 l 0,0 c 2.547,0.695 11.689,1.287 11.689,1.287 l 0,0 c 3.663,-7.008 6.229,-14.76 6.229,-14.76 l 0,0 12.313,1.77 c 1.874,5.104 3.394,12.961 3.394,12.961 l 0,0 c 1.116,-0.072 3.06,0.008 5.279,0.096 l 0,0 c 3.207,0.121 7.012,0.25 9.786,-0.137 l 0,0 c -2.525,-20.432 -16.555,-46.26 -16.555,-46.26 l 0,0 c 0,0 -7.331,-1.021 -13.191,-1.021 l 0,0 c -6.152,10.518 -20.237,40.745 -19.99,44.279 l 0,0 z m 21.315,-19.202 c 0,0 2.767,-7.158 5.148,-12.27 l 0,0 c 2.253,4.836 2.928,9.174 3.938,14.197 l 0,0 c -2.779,-0.514 -9.086,-1.927 -9.086,-1.927 l 0,0 z m 63.445,20.769 c 3.791,3.203 14.038,2.819 14.038,2.819 l 0,0 c 0,0 -1.922,-18.991 -1.532,-19.696 l 0,0 c 8.744,13.963 13.302,19.284 13.302,19.284 l 0,0 c 1.952,-0.205 10.457,-4.168 11.245,-5.274 l 0,0 c -5.521,-6.779 -8.276,-10.728 -14.379,-16.926 l 0,0 c 6.802,-2.771 8.211,-9.767 7.996,-11.714 l 0,0 c -0.866,-8.299 -8.824,-12.653 -13.586,-13.438 l 0,0 -15.617,-0.688 -1.467,45.633 0,0 z m 10.965,-37.039 c 0,0 7.541,-0.949 9.229,4.553 l 0,0 c -2.049,3.674 -5.082,5.582 -8.82,7.547 l 0,0 -0.409,-12.1 0,0 z m 29.725,-7.864 c -1.313,11.494 -1.327,32.699 -0.604,42.994 l 0,0 c 5.145,5.033 15.066,4.859 16.936,3.699 l 0,0 -4.895,-45.229 c 0,0 -2.63,-1.52 -9.248,-1.52 l 0,0 c -0.683,0.002 -1.414,0.015 -2.189,0.056 l 0,0 z m -69.201,2.918 c 0,0 -6.975,21.666 -4.793,39.922 l 0,0 c 6.102,4.133 15.044,4.746 15.044,4.746 l 0,0 c -1.104,-4.451 -0.442,-19.539 0.175,-20.287 l 0,0 c 2.985,-0.18 9.056,-1.619 11.853,-1.188 l 0,0 0.083,-7.726 c -5.212,-1.012 -12.613,1.172 -12.613,1.172 l 0,0 0.338,-7.731 c 5.156,-2.504 14.803,-2.519 14.803,-2.519 l 0,0 c 0,0 2.166,-8.426 0.665,-9.362 l 0,0 c -13.107,10e-4 -25.555,2.973 -25.555,2.973 l 0,0 z"
       style="fill:url(#linearGradient3218)" />
    <path
       id="path118"
       d="M 77.207,306.584 C 65.323,302.018 54.875,296.215 46.165,289.05 c 8.636,6.132 18.699,11.143 29.951,15.101 0.356,0.822 0.71,1.63 1.091,2.433 l 0,0 z"
       style="fill:#d1d3d4" />
    <path
       id="path120"
       d="m 204.001,65.66 c 1.449,0.09 2.916,0.182 4.399,0.246 0.655,3.409 1.348,6.872 2.044,10.211 -97.631,14.699 -172.36,91.632 -170.031,162.989 0.782,23.873 10.877,41.591 26.59,54.525 C 48.384,280.412 36.158,261.571 35.282,235.18 32.941,163.82 107.675,86.88 205.327,72.183 c -0.446,-2.139 -0.896,-4.325 -1.326,-6.523 l 0,0 z"
       style="fill:#d1d3d4" />
    <path
       id="path127"
       d="m 374.262,167.688 c 0.958,-0.984 2.938,-3.028 5.028,-5.169 l 0,0 c -9.371,-23.316 -19.319,-40.708 -26,-51.199 l 0,0 c -5.277,-2.662 -10.708,-5.575 -16.185,-8.749 0.05,0.06 20.565,24.459 37.157,65.117 l 0,0 z"
       style="fill:url(#linearGradient3220)" />
    <path
       id="path129"
       d="m 377.579,436.158 c 36.355,-96.245 29.816,-168.684 11.03,-226.114 1.742,-1.295 3.37,-2.68 4.889,-4.118 14.992,58.285 19.535,137.566 -15.919,230.232 z"
       style="fill:#d1d3d4" />
    <path
       id="path138"
       d="m 105.033,308.196 c 0.004,1.227 0.267,2.945 0.511,4.622 l 0,0 c 8.882,4.364 28.824,12.52 65.21,19.677 l 0,0 c 35.376,13.301 43.293,21.997 72.546,23.319 l 0,0 c 6.897,20.152 20.913,53.484 30.054,77.681 l 0,0 0.801,-6.349 C 263.43,398.167 254.244,365.562 249.744,347.917 l 0,0 c -36.75,-0.498 -39.218,-6.709 -81.724,-22.184 l 0,0 c -26.372,-4.08 -46.971,-10.146 -62.981,-17.543 l -0.006,0.006 0,0 z"
       style="fill:url(#linearGradient3222)" />
    <path
       id="path147"
       d="m 336.43,237.056 c -0.59,0.332 -1.177,0.684 -1.775,1.033 29.747,48.458 51.26,105.134 34.911,173.542 16.349,-68.408 -0.435,-127.771 -30.192,-176.238 l 0,0 c -0.973,0.539 -1.968,1.098 -2.944,1.663 l 0,0 0,0 z"
       style="fill:url(#linearGradient3224)" />
    <path
       id="path154"
       d="m 199.948,117.308 h -0.002 v 10e-4 c 38.285,19.147 79.044,48.116 114.638,90.811 l 0,0 c 1.434,-0.679 2.862,-1.384 4.29,-2.101 l 0,0 c -27.015,-34.431 -59.436,-61.875 -87.405,-81.44 l 0,0 c -11.415,-2.565 -22.949,-4.898 -31.521,-7.271 z"
       style="fill:url(#linearGradient3226)" />
    <path
       id="path156"
       d="m 332.232,507.497 c 0,0 96.574,-84.875 108.472,-195.825 0,0 1.139,6.572 1.203,17.611 -14.552,79.761 -70.269,143.828 -94.622,168.605 -4.78,3.275 -9.796,6.469 -15.053,9.609 z"
       style="fill:#d1d3d4" />
    <path
       id="path167"
       d="m 379.325,162.624 c 2.119,-2.18 4.211,-4.43 6.26,-6.771 l 0,0 c 3.584,-4.026 7.937,-13.573 11.029,-18.099 l 0,0 c 0.705,-1.021 1.31,-2.015 1.865,-3.021 l 0,0 c -10.443,-8.202 -27.151,-19.871 -53.142,-34.904 0.048,0.059 17.876,22.676 33.988,62.795 z m 15.688,49.418 c 13.735,57.657 16.777,134.651 -17.438,224.112 l 0,0 c 0,0 88.398,-114.967 43.776,-266.11 l 0,0 c -4.698,12.929 -11.411,29.907 -26.338,41.998 l 0,0 0,0 z"
       style="fill:url(#linearGradient3228)" />
    <path
       id="path178"
       d="m 308.382,108.147 c 12.559,20.493 31.965,55.904 40.238,80.415 l 0,0 c 5.095,-3.541 10.182,-7.366 15.158,-11.517 l 0,0 C 350.676,142.501 326.007,99.265 318.501,88.61 l -10.119,19.537 0,0 z m 10.492,97.872 c 5.09,-2.521 10.221,-5.279 15.338,-8.282 l 0,0 c -36.854,-48.453 -85.59,-78.722 -85.59,-78.722 l 0,0 c -16.273,-4.679 -32.452,-9.214 -46.104,-12.995 31.967,18.612 79.239,52.712 116.356,99.999 z m 43.364,24.598 c 8.452,27.433 10.873,52.521 10.873,52.521 l 0,0 c 0,0 -5.957,-28.048 -16.463,-49.851 l 0,0 c -5.615,2.674 -10.633,5.024 -14.383,6.906 l 0,0 c 27.93,47.57 43.118,105.276 27.3,171.438 l 0,0 c 22.787,-73.582 19.818,-138.035 8.109,-188.814 l 0,0 c -5.15,2.749 -10.434,5.375 -15.436,7.8 l 0,0 0,0 z"
       style="fill:url(#linearGradient3230)" />
    <path
       id="path187"
       d="m 140.656,143.433 v 0.003 c 0.048,0.014 15.409,4.222 37.725,14.266 l 0,0 c 0.857,-0.73 1.854,-1.243 2.723,-1.243 l 0,0 c 1.483,0 6.534,3.848 10.316,7.414 l 0,0 c 25.521,12.725 56.888,32.036 84.771,59.79 l 0,0 c 9.235,-3.252 19.295,-6.985 29.752,-11.581 l 0,0 c -27.975,-34.789 -68.472,-68.76 -125.99,-99.377 -30.505,8.172 -39.252,30.609 -39.297,30.728 l 0,0 z M 302.57,254.332 c 12.198,16.722 22.756,35.644 30.548,57.052 l 0,0 c 3.086,1.229 5.317,2.752 6.224,4.767 l 0,0 c 1.375,3.008 -0.612,8.242 -0.612,10.462 l 0,0 c 0,3.144 4.504,10.13 4.544,17.822 l 0,0 c 0,1.096 -0.062,2.275 -0.201,3.555 l 0,0 c 8.211,44.16 5.021,96.982 -16.567,159.851 l 0,0 c 0,0 78.678,-131.035 2.705,-261.922 l 0,0 c -7.991,2.216 -18.683,4.252 -26.641,8.413 l 0,0 0,0 z"
       style="fill:url(#linearGradient3232)" />
    <path
       id="path198"
       d="M 335.783,508.988 C 464.91,432.062 444.245,313.165 444.245,313.165 l 0,0 c -11.88,110.92 -108.409,195.778 -108.462,195.823 z"
       style="fill:url(#linearGradient3234)" />
    <path
       id="path200"
       d="m 342.269,240.195 c -0.945,-1.619 -1.923,-3.217 -2.894,-4.801 4.787,-2.662 9.634,-5.144 14.487,-7.529 l 0.73,1.361 c 0.701,1.322 1.393,2.685 2.058,4.063 -5.622,2.671 -10.639,5.02 -14.381,6.906 l 0,0 z m 19.972,-9.581 c -0.604,-1.961 -1.252,-3.927 -1.899,-5.899 5.326,-2.557 10.627,-5.077 15.94,-7.695 0.465,1.922 0.929,3.844 1.393,5.796 -5.147,2.756 -10.431,5.373 -15.434,7.798 l 0,0 z"
       style="fill:#f99b1c" />
    <path
       id="path211"
       d="m 13.982,209.131 c -6.483,49.833 19.391,79.961 62.133,95.021 -0.837,-1.953 -1.576,-3.971 -2.251,-6.063 l 0,0 C 64.729,292.675 56.806,286.126 50.548,278.282 l 0,0 C 39.907,266.793 33.582,251.465 33.333,229.271 l 0,0 C 32.668,170.184 79.41,92.671 203.286,61.97 l 0,0 c -16.301,-0.796 -29.9,-2.813 -40.497,-5.011 l 0,0 C 89.647,81.422 24.316,129.723 13.982,209.131 l 0,0 0,0 z"
       style="fill:url(#linearGradient3236)" />
    <path
       id="path220"
       d="m 207.115,190.86 c 0,2.245 -2.684,12.072 -2.684,14.321 l 0,0 c 0,31.962 -73.827,53.116 -73.827,71.674 l 0,0 c 0,1.993 0.529,3.739 1.467,5.288 l 0,0 c 8.867,5.077 22.791,5.896 24.379,5.896 l 0,0 c 6.036,0 82.718,-6.815 82.718,-27.726 l 0,0 c 0,-0.293 -0.024,-0.578 -0.074,-0.845 l 0,0 c -3.221,-1.33 -6.561,-2.275 -6.561,-4.521 l 0,0 c 0,-0.367 0.024,-0.723 0.088,-1.068 l 0,0 c -3.034,-1.221 -5.979,-2.18 -5.979,-4.289 l 0,0 c 0,-9.998 18.542,-15.219 44.773,-24.268 l 0,0 c -23.173,-20.899 -47.902,-36.372 -69.224,-47.442 1.296,4.283 4.924,6.353 4.924,12.98 l 0,0 z m -155.78,41.044 c 0.328,17.312 4.636,35.909 19.491,52.283 l 0,0 c -0.434,-3.471 -0.656,-7.091 -0.656,-10.901 l 0,0 c 0,-0.895 -0.896,-5.141 -0.896,-6.701 l 0,0 c 0,-20.145 -11.354,-28.325 -17.88,-39.17 l 0,0 c -0.059,1.521 -0.098,3.019 -0.059,4.489 z m 239.955,42.108 c 0,6.26 -5.992,20.493 -5.992,23.4 l 0,0 c 0,1.134 0.229,2.184 0.665,3.126 l 0,0 c 9.704,4.885 28.109,5.926 40.654,8.881 l 0,0 c -6.812,-17.539 -16.488,-34.457 -26.67,-49.129 l 0,0 c -5.16,3.19 -8.657,7.516 -8.657,13.722 l 0,0 z m -180.073,36.877 c 11.88,4.867 25.991,9.077 42.777,12.382 l 0,0 c -3.055,-1.991 -5.971,-4.601 -8.815,-7.458 l 0,0 c -6.357,-5.029 -12.146,-12.374 -18.139,-18.433 l 0,0 c -2.949,-2.328 -6.014,-4.083 -9.257,-4.905 l 0,0 c -2.192,2.901 -5.567,12.742 -6.566,18.414 l 0,0 z m 170.054,40.627 c -2.237,0 -18.327,1.795 -20.576,1.795 l 0,0 c -3.453,0 -6.632,-0.043 -9.577,-0.127 l 0,0 c 4.832,18.371 13.302,47.666 23.036,73.963 l 0,0 3.628,-28.996 c 0,-2.229 6.746,-40.514 6.987,-42.737 l 0,0 c 0.156,-1.48 0.116,-2.74 -0.066,-3.802 l 0,0 c -0.704,-0.096 -1.374,-0.116 -1.961,-0.116 l 0,0 c -0.595,-10e-4 -1.117,0.02 -1.471,0.02 l 0,0 z m 27.812,107.571 c -2.942,7.246 -5.896,14.887 -8.912,22.655 l 0,0 c 8.124,12.746 16.903,22.402 26.108,26.578 l 0,0 0.224,-0.504 0.135,-0.41 c 16.889,-49.344 19.852,-92.172 16.358,-129.666 l 0,0 c -10.786,32.78 -32.009,76.524 -33.913,81.347 l 0,0 0,0 z"
       style="fill:url(#linearGradient3238)" />
    <path
       id="path229"
       d="m 59.098,195.258 v 0.003 c 8.961,2.076 39.96,19.346 43.017,24.936 l 0,0 c 3.717,2.692 6.132,4.934 6.132,6.143 l 0,0 c 0,9.278 -10.173,8.206 -16.493,13.278 25.55,-2.984 84.359,-51.26 85.459,-73.525 l 0,0 c -18.76,-8.014 -31.196,-11.401 -31.196,-11.401 l 0,0 c 0,0 1.314,-3.399 4.701,-8.036 l 0,0 c -6.372,-2.211 -10.063,-3.217 -10.063,-3.217 l 0,0 c 0,0 2.484,-6.435 9.464,-13.675 l 0,0 c -9.088,-3.51 -18.586,-6.846 -28.5,-10.027 l 0,0 C 90.651,141.461 69.611,169.46 59.098,195.258 l 0,0 z"
       style="fill:url(#linearGradient3240)" />
    <path
       id="path240"
       d="m 146.015,154.688 c 0,0 12.438,3.388 31.196,11.401 l 0,0 c 0.078,-1.667 -0.157,-3.198 -0.767,-4.538 l 0,0 c -0.402,-1.029 0.583,-2.7 1.936,-3.853 l 0,0 c -11.416,-5.135 -20.997,-8.75 -27.664,-11.048 l 0,0 c -3.387,4.639 -4.701,8.038 -4.701,8.038 l 0,0 z m 49.85,14.731 c 0,6.705 5.356,8.045 5.356,16.085 l 0,0 c 0,2.24 -2.683,12.076 -2.683,14.316 l 0,0 c 0,31.967 -73.832,53.129 -73.827,71.676 l 0,0 c 0,4.786 3.089,8.211 7.357,10.647 l 0,0 c -0.938,-1.549 -1.467,-3.295 -1.467,-5.288 l 0,0 c 0,-18.558 73.827,-39.712 73.827,-71.674 l 0,0 c 0,-2.249 2.684,-12.076 2.684,-14.321 l 0,0 c 0,-6.627 -3.628,-8.697 -4.924,-12.979 l 0,0 c 21.32,11.069 46.051,26.543 69.224,47.442 l 0,0 c 1.563,-0.543 3.164,-1.085 4.774,-1.664 l 0,0 C 248.303,195.905 216.938,176.595 191.415,163.87 l 0,0 c 2.499,2.369 4.45,4.619 4.45,5.549 l 0,0 z m -93.514,51.563 c 0,10.488 -13.039,7.748 -18.773,15.641 2.377,3.082 3.686,3.138 5.809,3.138 l 0,0 c 0.753,0 1.545,-0.056 2.367,-0.144 l 0,0 c 6.32,-5.073 16.493,-4 16.493,-13.279 l 0,0 c 0,-1.209 -2.415,-3.449 -6.132,-6.143 l 0,0 c 0.157,0.304 0.236,0.566 0.236,0.787 l 0,0 z m 182.418,46.486 c 0,6.269 -5.375,21.685 -5.375,24.591 l 0,0 c 0,2.43 1.098,4.443 2.988,6.143 l 0,0 c 0.979,0.865 2.205,1.649 3.58,2.338 l 0,0 c -0.438,-0.942 -0.665,-1.992 -0.665,-3.126 l 0,0 c 0,-2.907 5.992,-17.142 5.992,-23.4 l 0,0 c 0,-6.206 3.497,-10.53 8.657,-13.722 l 0,0 c 10.182,14.672 19.858,31.59 26.67,49.129 l 0,0 c 2.424,0.563 4.618,1.198 6.5,1.942 l 0,0 c -1.501,-4.141 -3.122,-8.198 -4.833,-12.173 l 0,0 c -0.39,-0.901 -0.787,-1.812 -1.194,-2.723 l 0,0 -0.984,-2.149 -0.45,-0.992 -0.255,-0.557 -0.101,-0.237 -0.196,-0.41 -0.153,-0.319 -0.162,-0.311 -0.192,-0.407 -0.108,-0.249 -0.181,-0.368 -0.184,-0.364 -0.172,-0.341 C 316.93,275.34 308.62,262.166 299.511,250.22 l 0,0 c -8.261,3.434 -14.742,8.511 -14.742,17.248 l 0,0 z m -52.237,-12.519 c 0,2.246 3.34,3.191 6.561,4.521 l 0,0 c -0.48,-2.985 -3.514,-4.407 -6.473,-5.59 l 0,0 c -0.062,0.348 -0.088,0.703 -0.088,1.069 l 0,0 z m -127.499,53.243 c 1.991,0.923 4.049,1.816 6.184,2.696 l 0,0 c 0.999,-5.673 4.374,-15.514 6.566,-18.414 l 0,0 c 3.243,0.822 6.308,2.577 9.257,4.905 l 0,0 c -4.797,-4.851 -9.712,-8.907 -15.156,-10.263 l 0,0 c -2.57,3.419 -6.821,16.497 -6.851,21.076 z m 48.961,15.079 c 4.482,0.895 9.145,1.711 14.024,2.465 l 0,0 c -4.29,-1.563 -8.982,-3.213 -14.174,-4.972 l 0,0 c -3.032,-1.017 -5.904,-2.768 -8.667,-4.951 l 0,0 c 2.847,2.858 5.763,5.466 8.817,7.458 z m 121.381,22.887 c -2.224,0 -18.331,1.796 -20.563,1.796 l 0,0 c -1.756,0 -3.445,-0.025 -5.069,-0.035 l 0,0 c 0.417,1.633 0.876,3.385 1.375,5.266 l 0,0 c 2.945,0.084 6.124,0.127 9.577,0.127 l 0,0 c 2.249,0 18.339,-1.795 20.576,-1.795 l 0,0 c 0.714,0 2.014,-0.092 3.432,0.096 l 0,0 c -0.928,-5.032 -5.38,-5.469 -7.976,-5.469 l 0,0 c -0.547,-0.001 -1.011,0.014 -1.352,0.014 l 0,0 z m 27.795,107.576 c -2.569,6.396 -5.17,13.113 -7.827,19.929 l 0,0 c 1.585,2.803 3.191,5.508 4.828,8.079 l 0,0 c 3.017,-7.77 5.97,-15.409 8.912,-22.655 l 0,0 c 1.903,-4.822 23.127,-48.566 33.913,-81.347 l 0,0 c 3.492,37.494 0.529,80.322 -16.358,129.666 6.59,-19.215 11.435,-37.469 14.767,-54.813 l 0,0 0.361,-1.869 c 7.192,-38.514 6.907,-72.584 1.306,-102.717 l 0,0 c -2.938,28.716 -37.294,99.223 -39.902,105.727 l 0,0 0,0 z"
       style="fill:url(#linearGradient3242)" />
    <path
       id="path251"
       d="m 33.332,229.273 c 0.249,22.192 6.574,37.521 17.215,49.01 l 0,0 C 41.429,266.859 35.859,252.681 35.289,235.181 l 0,0 C 32.942,163.824 107.672,86.883 205.334,72.185 l 0,0 C 204.629,68.831 203.941,65.391 203.285,61.972 79.409,92.675 32.667,170.187 33.332,229.273 l 0,0 0,0 z"
       style="fill:url(#linearGradient3244)" />
    <path
       id="path253"
       d="m 421.347,170.044 c -4.696,12.93 -11.41,29.907 -26.333,41.998 -0.493,-2.063 -0.992,-4.098 -1.51,-6.111 12.636,-12.041 17.779,-28.95 22.017,-40.688 0.563,-1.571 1.183,-4.411 1.729,-8.054 1.479,4.31 2.849,8.6 4.097,12.855 l 0,0 z"
       style="fill:#49a842" />
    <path
       id="path255"
       d="m 329.206,245.913 c -7.992,2.215 -18.677,4.254 -26.635,8.417 l -3.063,-4.114 c 9.108,-3.796 20.38,-5.6 27.472,-8.124 l 2.226,3.821 0,0 z"
       style="fill:#b02a30" />
    <path
       id="path257"
       d="m 360.348,224.716 c 9.984,29.628 12.761,58.415 12.761,58.415 0,0 -7.014,-33.024 -19.237,-55.265 -7.673,3.782 -15.311,7.766 -22.813,12.384 -10.383,6.372 -46.291,6.66 -46.291,27.221 0,6.264 -5.357,21.68 -5.357,24.587 0,17.445 54.354,11.839 59.956,24.068 1.353,2.998 -0.639,8.233 -0.639,10.47 0,3.131 4.525,10.124 4.552,17.814 0,25.935 -37.521,102.83 -40.099,109.326 -10.514,26.043 -21.372,57.283 -34.771,80.148 l -4.123,-1.051 c 0.818,-20.845 2.604,-45.398 2.604,-47.642 l 10.899,-87.037 c 0,-2.231 6.737,-40.526 6.979,-42.742 1.119,-10.133 -7.147,-9.258 -9.376,-9.258 -2.237,0 -18.346,1.785 -20.571,1.785 -45.719,0 -42.161,-7.283 -100.962,-27.186 -15.652,-5.248 -26.788,-29.83 -41.963,-33.634 -2.587,3.424 -6.847,16.563 -6.847,21.032 0,2.235 0.89,6.263 0.89,8.5 0,14.085 44.751,35.169 43.9,36.681 0.775,0.646 24.157,13.595 24.157,27.349 0,4.24 -4.146,7.146 -6.269,7.146 -2.902,0 -4.474,-2.571 -4.474,-4.026 0,-2.228 -0.889,-1.334 -0.889,-3.57 0,-26.049 -92.198,-29.938 -92.198,-106.945 0,-0.893 -0.889,-5.144 -0.889,-6.702 0,-28.283 -22.354,-32.972 -22.362,-54.551 0,-3.799 4.25,-16.987 10.732,-16.987 6.592,0 44.707,21.125 44.707,25.938 0,10.497 -13.039,7.743 -18.773,15.641 2.368,3.089 3.682,3.129 5.804,3.129 25.83,0 96.013,-58.313 87.064,-78.205 -0.674,-1.686 2.421,-5.1 4.667,-5.1 2.446,0 14.749,10.613 14.749,12.965 0,6.705 5.358,8.05 5.358,16.091 0,2.236 -2.684,12.075 -2.684,14.313 0,31.965 -73.833,53.129 -73.833,71.684 0,14.741 29.396,16.532 31.752,16.532 6.031,0 82.713,-6.814 82.713,-27.716 0,-6.93 -12.535,-6.374 -12.535,-10.724 0,-16.997 53.649,-20.232 107.574,-51.864 13.778,-8.771 3.091,-1.914 14.409,-9.175 12.829,-8.863 25.388,-19.57 36.964,-32.7 3.586,-4.028 7.944,-13.574 11.03,-18.109 10.563,-15.517 5.589,-29.186 6.216,-45.323 9.312,3.725 12.305,12.042 14.291,18.572 4.338,14.34 0.972,47.206 -1.599,54.249 -5.374,14.863 -12.186,38.023 -33.868,49.093 -7.29,3.716 -13.987,6.842 -21.306,10.379 l 0,0 z" />
    <path
       id="path266"
       d="m 295.356,127.679 c 0,0 -28.219,-3.326 -46.733,-8.663 0,0 48.734,30.269 85.599,78.713 l 0,0 c 13.766,-8.762 3.085,-1.908 14.404,-9.165 l 0,0 c -8.272,-24.511 -27.677,-59.922 -40.243,-80.415 l -13.027,19.53 z"
       style="fill:url(#linearGradient3246)" />
    <path
       id="path277"
       d="M 224.995,69.515 V 69.7 c 0.052,21.904 17.81,39.619 39.722,39.619 l 0,0 c 21.942,0 39.727,-17.766 39.727,-39.712 l 0,0 c 0,-21.938 -17.783,-39.735 -39.727,-39.735 -21.912,0 -39.67,17.747 -39.722,39.643 l 0,0 z"
       style="fill:url(#radialGradient3248)" />
    <path
       id="path279"
       d="m 238.007,49.423 0.709,-10.027 c 0.455,-0.382 0.91,-0.757 1.383,-1.125 0.758,-0.578 1.524,-1.139 2.32,-1.663 2.241,-1.507 4.662,-2.788 7.253,-3.834 4.403,-1.777 8.938,-2.706 13.416,-2.867 -1.353,1.27 -2.246,2.328 -2.854,3.135 l 1.204,3.519 c 0.885,0.604 2.236,1.545 3.729,2.685 1.726,1.53 6.793,6.035 7.834,7.63 l 11.499,1.33 6.895,-4.632 2.704,-2.407 -5.526,9.48 c 2.729,5.742 3.965,11.489 4.499,14.816 l 5.165,5.816 2.021,2.275 2.376,0.871 1.668,-2.933 -1.466,-5.262 -0.28,-9.008 c 2.098,5.795 1.942,10.912 1.873,14.055 l -0.009,0.62 c -0.314,5.679 -1.839,11.188 -4.417,16.166 -0.381,0.73 -0.791,1.457 -1.216,2.166 -1.804,3.003 -4.027,5.8 -6.609,8.265 l -0.814,0.753 c -3.36,3.82 -13.257,9.448 -20.422,10.032 -2.833,-0.381 -10.654,-2.153 -13.264,-2.92 l -0.656,-0.215 -11.009,-1.349 c -5.286,-2.284 -9.341,-6.845 -12.648,-10.549 l -1.021,-8.261 -7.414,-13.361 -0.073,-2.67 -0.026,-0.688 -0.005,-0.596 c 1.532,-3.79 4.977,-7.261 7.205,-9.252 l 5.976,-9.995 0,0 z m 3.428,18.807 6.45,-0.573 -5.439,4.854 -1.222,12.208 7.502,11.717 9.279,3.976 c 2.981,-0.377 8.768,-1.389 13.561,-2.93 l 3.19,-4.722 1.077,5.077 4.315,3.063 11.437,-2.294 7.612,-10.316 2.46,-11.463 -1.3,-3.038 -3.939,-2.066 -4.229,-2.235 c -2.592,2.185 -6.558,4.597 -9.634,6.332 l -4.71,10.223 -3.091,6.719 0.254,-6.479 0.442,-10.646 -10.979,-11.004 -10.652,1.938 -5.937,1.086 3.944,-1.808 12.667,-5.787 4.71,-11.31 c -0.862,-1.639 -4.942,-9.196 -8.099,-12.238 l -5.523,-0.942 c -5.892,1.342 -10.154,3.065 -12.404,4.09 l -7.423,20.463 -0.279,0.773 c 2.142,4.27 4.518,6.366 5.96,7.332 l 0,0 z m 14.78,34.602 -6.937,-5.533 -1.677,-1.348 -9.556,-8.426 c -1.527,-0.229 -2.876,-0.631 -4.032,-1.052 l 7.817,13.22 14.86,4.858 c -0.177,-0.526 -0.347,-1.103 -0.475,-1.719 l 0,0 z m 30.299,-51.686 c -6.176,-1.838 -14.505,-1.688 -14.505,-1.688 -1.725,2.39 -4.969,12.688 -4.969,12.688 0,0 4.456,-7.62 7.13,-9.494 3.086,-1.465 12.344,-1.506 12.344,-1.506 z" />
    <path
       id="path290"
       d="m 224.821,68.632 v 0.032 c 1.534,-3.785 7.209,-9.251 7.209,-9.251 l 0,0 5.975,-9.991 0.713,-10.024 c -8.589,7.336 -13.625,18.028 -13.897,29.234 l 0,0 z m 48.178,-21.759 11.506,1.331 6.885,-4.633 2.711,-2.405 -13.362,1.74 -15.565,-3.667 c 1.714,1.532 6.791,6.046 7.825,7.634 l 0,0 z m -10.09,4.583 -5.301,8.378 -7.279,5.855 -8.071,-0.846 -6.495,-4.718 -0.294,0.767 c 2.154,4.263 4.522,6.377 5.972,7.34 l 0,0 6.447,-0.568 -5.438,4.854 -1.227,12.202 4.252,-10.277 7.125,-6.718 7.064,0.104 10.95,9.102 4.395,9.357 0.443,-10.658 -10.972,-10.998 -16.594,3.032 16.61,-7.595 4.705,-11.307 c -0.591,-1.15 -2.758,-5.164 -5.077,-8.518 l 0,0 -1.215,11.212 0,0 z m 25.667,-0.806 c 2.705,5.707 3.962,11.494 4.49,14.813 l 0,0 5.17,5.815 2.022,2.277 2.376,0.874 1.667,-2.938 -1.461,-5.266 -0.984,4.569 -3.619,0.48 -2.368,-7.624 -2.889,-13.136 1.12,-9.354 -5.524,9.49 0,0 z m -6.017,25.168 -4.955,10.764 -2.846,6.176 1.077,5.077 4.315,3.063 11.441,-2.289 7.606,-10.315 2.455,-11.465 -1.291,-3.037 -3.939,-2.065 3.061,4.514 -1.825,8.391 -5.927,7.205 -9.073,3.086 -4.7,-8.672 13.813,-13.058 4.651,-1.466 -4.231,-2.236 c -2.595,2.174 -6.551,4.599 -9.632,6.327 l 0,0 z m -54.819,8.733 c 1.449,3.568 3.349,6.812 5.625,9.7 l 0,0 -1.021,-8.265 -7.415,-13.358 c 0.303,3.987 1.226,8.014 2.811,11.923 z m 40.312,11.261 -10.041,4.599 c 2.974,-0.379 8.761,-1.394 13.552,-2.93 l 0,0 3.195,-4.724 0.253,-6.469 -6.959,9.524 0,0 z m -26.215,3.878 14.854,4.862 c -0.172,-0.521 -0.348,-1.111 -0.474,-1.729 l 0,0 -6.938,-5.522 -1.683,-1.35 -9.555,-8.426 c -1.515,-0.235 -2.871,-0.631 -4.031,-1.059 l 0,0 7.827,13.224 0,0 z m 29.105,9.586 -0.72,-0.113 -0.454,-0.062 -0.517,-0.097 -0.885,-0.17 -0.696,-0.138 -0.381,-0.087 -0.402,-0.064 -0.836,-0.182 -0.421,-0.095 -0.639,-0.141 -0.358,-0.07 c -2.854,-0.64 -5.729,-1.348 -7.052,-1.737 l 0,0 -0.569,-0.188 -11.004,-1.335 c 8.086,4.058 15.553,5.302 24.934,4.479 l 0,0 0,0 z"
       style="fill:url(#linearGradient3250)" />
    <path
       id="path292"
       d="m 233.016,62.371 c -2.118,1.438 -2.933,2.723 -2.933,2.723 5.13,1.165 10.316,5.996 10.316,5.996 0,0 -3.963,-6.036 -7.383,-8.719 z"
       style="fill:#ffffff" />
    <path
       id="path294"
       d="m 588.906,656.229 h 0.434 c 3.842,-0.113 6.932,-3.215 7.027,-7.063 v -0.371 c -0.099,-3.9 -3.304,-7.058 -7.247,-7.058 -3.982,0 -7.239,3.255 -7.239,7.24 -10e-4,3.933 3.141,7.136 7.025,7.252 z" />
    <path
       id="path296"
       d="m 583.49,648.979 c 0,2.92 2.307,5.162 5.629,5.162 3.361,0 5.65,-2.242 5.65,-5.162 0,-2.867 -2.289,-5.146 -5.65,-5.146 -3.322,0 -5.629,2.278 -5.629,5.146 z"
       style="fill:#ffffff" />
    <path
       id="path298"
       d="m 590.297,645.184 c 1.96,0.312 3.037,1.791 3.037,3.523 0,2.481 -1.859,4.092 -4.271,4.092 -2.443,0 -4.272,-1.518 -4.272,-4.057 0,-1.777 1.041,-3.203 3.016,-3.484 v 1.602 c -0.948,0.172 -1.407,0.963 -1.407,1.884 0,1.34 1.074,2.084 2.65,2.084 1.48,0 2.688,-0.837 2.688,-2.119 0,-1.011 -0.508,-1.742 -1.439,-1.849 v -1.676 h -0.002 z" />
    <path
       id="path300"
       d="m 596.127,634.55 h -2.341 c -1.273,-1.287 -5.24,-6.049 -7.805,-6.049 -1.283,0 -1.896,1.137 -1.896,2.289 0,1.178 0.525,2.307 1.124,3.227 l -2.332,0.217 c -0.64,-1.254 -1.003,-2.721 -1.003,-4.155 0,-2.67 1.349,-4.388 4.105,-4.388 2.959,0 5.694,2.984 7.936,5.273 v -5.721 h 2.21 l 0.002,9.307 0,0 z" />
    <path
       id="path302"
       d="m 589.167,616.578 c -1.805,0 -5.196,0 -5.196,2.087 0,2.051 3.393,2.051 5.196,2.051 1.769,0 5.106,0.014 5.106,-2.051 10e-4,-2.108 -3.338,-2.087 -5.106,-2.087 z m 0,6.947 c -3.512,0 -7.288,-1.059 -7.288,-4.86 0,-4.091 4.03,-4.896 7.288,-4.896 3.243,0 7.199,0.836 7.199,4.896 0,4.317 -4.271,4.86 -7.199,4.86 z" />
    <path
       id="path304"
       d="m 589.167,605.417 c -1.805,0 -5.196,0 -5.196,2.084 0,2.049 3.393,2.049 5.196,2.049 1.769,0 5.106,0.024 5.106,-2.049 10e-4,-2.101 -3.338,-2.084 -5.106,-2.084 z m 0,6.95 c -3.512,0 -7.288,-1.071 -7.288,-4.866 0,-4.099 4.03,-4.894 7.288,-4.894 3.243,0 7.199,0.845 7.199,4.894 0,4.33 -4.271,4.866 -7.199,4.866 z" />
    <path
       id="path306"
       d="m 584.209,592.078 v 5.394 l 2.985,0.053 c -0.059,-0.313 -0.132,-0.735 -0.132,-1.283 0,-1.95 0.919,-4.512 4.543,-4.512 2.587,0 4.681,1.785 4.761,5.252 v 0.412 0.051 c -0.025,1.021 -0.199,2.17 -0.401,3.021 l -2.513,-0.063 c 0.285,-0.688 0.705,-1.645 0.705,-2.879 0,-1.467 -0.679,-2.982 -2.465,-2.982 -1.809,0 -2.42,1.607 -2.42,3.205 0,0.867 0.118,1.691 0.381,2.515 l -7.524,-0.138 v -8.045 h 2.08 l 0,-10e-4 z" />
    <polygon
       id="polygon308"
       points="582.128,583.55 582.128,575.759 584.329,575.759 584.329,580.734 587.779,580.734 587.779,575.999 589.985,575.999 589.985,580.734 596.13,580.734 596.13,583.55 " />
    <polygon
       id="polygon310"
       points="596.13,573.749 582.128,573.749 582.128,570.934 596.13,570.934 " />
    <polygon
       id="polygon312"
       points="582.128,567.931 582.128,560.145 584.329,560.145 584.329,565.122 587.779,565.122 587.779,560.393 589.985,560.393 589.985,565.122 596.13,565.122 596.13,567.931 " />
    <path
       id="path314"
       d="m 584.929,552.953 v 0.043 l 5.781,2.015 v -4.088 l -5.781,2.03 z m -2.802,1.541 v -3.163 l 14.001,-5.494 v 3.112 l -3.208,1.193 v 5.688 l 3.208,1.221 v 2.906 l -14.001,-5.463 z" />
    <polygon
       id="polygon316"
       points="582.128,539.906 582.128,529.068 584.33,529.068 584.33,533.087 596.126,533.087 596.126,535.896 584.33,535.896 584.33,539.906 " />
    <polygon
       id="polygon318"
       points="596.13,518.098 596.13,520.796 584.567,524.559 584.614,524.6 596.13,524.6 596.13,527.29 582.128,527.29 582.128,522.792 592.738,519.46 592.738,519.434 582.128,516.091 582.128,511.595 596.13,511.595 596.13,514.281 584.567,514.281 584.567,514.32 " />
  </g>
</svg>
