<?xml version="1.0" encoding="UTF-8" standalone="no"?>
<!-- Created with Inkscape (http://www.inkscape.org/) -->

<svg
   xmlns:dc="http://purl.org/dc/elements/1.1/"
   xmlns:cc="http://creativecommons.org/ns#"
   xmlns:rdf="http://www.w3.org/1999/02/22-rdf-syntax-ns#"
   xmlns:svg="http://www.w3.org/2000/svg"
   xmlns="http://www.w3.org/2000/svg"
   xmlns:sodipodi="http://sodipodi.sourceforge.net/DTD/sodipodi-0.dtd"
   xmlns:inkscape="http://www.inkscape.org/namespaces/inkscape"
   width="70.555557mm"
   height="95.87822mm"
   viewBox="0 0 250.00001 339.72597"
   id="svg10623"
   version="1.1"
   inkscape:version="0.91 r13725"
   sodipodi:docname="2014 FIFA World Cup.svg">
  <defs
     id="defs10625">
    <radialGradient
       fx="0"
       fy="0"
       cx="0"
       cy="0"
       r="1"
       gradientUnits="userSpaceOnUse"
       gradientTransform="matrix(4.7734,0,0,-4.6816,114.65,478.042)"
       spreadMethod="pad"
       id="radialGradient3206">
      <stop
         style="stop-opacity:1;stop-color:#b8d433"
         offset="0"
         id="stop3208" />
      <stop
         style="stop-opacity:1;stop-color:#004517"
         offset="1"
         id="stop3210" />
    </radialGradient>
    <radialGradient
       fx="0"
       fy="0"
       cx="0"
       cy="0"
       r="1"
       gradientUnits="userSpaceOnUse"
       gradientTransform="matrix(9.1243,0,0,-8.9489,102.82,481.151)"
       spreadMethod="pad"
       id="radialGradient3188">
      <stop
         style="stop-opacity:1;stop-color:#b8d433"
         offset="0"
         id="stop3190" />
      <stop
         style="stop-opacity:1;stop-color:#004517"
         offset="1"
         id="stop3192" />
    </radialGradient>
    <radialGradient
       fx="0"
       fy="0"
       cx="0"
       cy="0"
       r="1"
       gradientUnits="userSpaceOnUse"
       gradientTransform="matrix(4.8883,0,0,-4.7943,118.007,483.224)"
       spreadMethod="pad"
       id="radialGradient3170">
      <stop
         style="stop-opacity:1;stop-color:#b8d433"
         offset="0"
         id="stop3172" />
      <stop
         style="stop-opacity:1;stop-color:#004517"
         offset="1"
         id="stop3174" />
    </radialGradient>
    <radialGradient
       fx="0"
       fy="0"
       cx="0"
       cy="0"
       r="1"
       gradientUnits="userSpaceOnUse"
       gradientTransform="matrix(7.6074,0,0,-7.4611,106.326,486.003)"
       spreadMethod="pad"
       id="radialGradient3152">
      <stop
         style="stop-opacity:1;stop-color:#b8d433"
         offset="0"
         id="stop3154" />
      <stop
         style="stop-opacity:1;stop-color:#004517"
         offset="1"
         id="stop3156" />
    </radialGradient>
    <radialGradient
       fx="0"
       fy="0"
       cx="0"
       cy="0"
       r="1"
       gradientUnits="userSpaceOnUse"
       gradientTransform="matrix(10.918,0,0,-10.708,117.202,488.443)"
       spreadMethod="pad"
       id="radialGradient3134">
      <stop
         style="stop-opacity:1;stop-color:#b8d433"
         offset="0"
         id="stop3136" />
      <stop
         style="stop-opacity:1;stop-color:#004517"
         offset="1"
         id="stop3138" />
    </radialGradient>
    <radialGradient
       fx="0"
       fy="0"
       cx="0"
       cy="0"
       r="1"
       gradientUnits="userSpaceOnUse"
       gradientTransform="matrix(10.921,0,0,-10.711,117.201,488.442)"
       spreadMethod="pad"
       id="radialGradient3116">
      <stop
         style="stop-opacity:1;stop-color:#b8d433"
         offset="0"
         id="stop3118" />
      <stop
         style="stop-opacity:1;stop-color:#004517"
         offset="1"
         id="stop3120" />
    </radialGradient>
    <radialGradient
       fx="0"
       fy="0"
       cx="0"
       cy="0"
       r="1"
       gradientUnits="userSpaceOnUse"
       gradientTransform="matrix(12.865,0,0,-12.618,102.295,474.74)"
       spreadMethod="pad"
       id="radialGradient3098">
      <stop
         style="stop-opacity:1;stop-color:#b8d433"
         offset="0"
         id="stop3100" />
      <stop
         style="stop-opacity:1;stop-color:#004517"
         offset="1"
         id="stop3102" />
    </radialGradient>
    <radialGradient
       fx="0"
       fy="0"
       cx="0"
       cy="0"
       r="1"
       gradientUnits="userSpaceOnUse"
       gradientTransform="matrix(8.7311,0,0,-8.5632,116.723,467.716)"
       spreadMethod="pad"
       id="radialGradient3080">
      <stop
         style="stop-opacity:1;stop-color:#b8d433"
         offset="0"
         id="stop3082" />
      <stop
         style="stop-opacity:1;stop-color:#004517"
         offset="1"
         id="stop3084" />
    </radialGradient>
    <radialGradient
       fx="0"
       fy="0"
       cx="0"
       cy="0"
       r="1"
       gradientUnits="userSpaceOnUse"
       gradientTransform="matrix(6.6041,0,0,-6.4771,124.456,476.693)"
       spreadMethod="pad"
       id="radialGradient3062">
      <stop
         style="stop-opacity:1;stop-color:#b8d433"
         offset="0"
         id="stop3064" />
      <stop
         style="stop-opacity:1;stop-color:#004517"
         offset="1"
         id="stop3066" />
    </radialGradient>
    <radialGradient
       fx="0"
       fy="0"
       cx="0"
       cy="0"
       r="1"
       gradientUnits="userSpaceOnUse"
       gradientTransform="matrix(5.7667,0,0,-5.6558,121.578,465.998)"
       spreadMethod="pad"
       id="radialGradient3044">
      <stop
         style="stop-opacity:1;stop-color:#b8d433"
         offset="0"
         id="stop3046" />
      <stop
         style="stop-opacity:1;stop-color:#004517"
         offset="1"
         id="stop3048" />
    </radialGradient>
    <radialGradient
       fx="0"
       fy="0"
       cx="0"
       cy="0"
       r="1"
       gradientUnits="userSpaceOnUse"
       gradientTransform="matrix(7.9434,0,0,-7.7907,127.711,472.385)"
       spreadMethod="pad"
       id="radialGradient3026">
      <stop
         style="stop-opacity:1;stop-color:#b8d433"
         offset="0"
         id="stop3028" />
      <stop
         style="stop-opacity:1;stop-color:#004517"
         offset="1"
         id="stop3030" />
    </radialGradient>
    <radialGradient
       fx="0"
       fy="0"
       cx="0"
       cy="0"
       r="1"
       gradientUnits="userSpaceOnUse"
       gradientTransform="matrix(8.6103,0,0,-8.4447,133.315,467.334)"
       spreadMethod="pad"
       id="radialGradient3008">
      <stop
         style="stop-opacity:1;stop-color:#b8d433"
         offset="0"
         id="stop3010" />
      <stop
         style="stop-opacity:1;stop-color:#004517"
         offset="1"
         id="stop3012" />
    </radialGradient>
    <radialGradient
       fx="0"
       fy="0"
       cx="0"
       cy="0"
       r="1"
       gradientUnits="userSpaceOnUse"
       gradientTransform="matrix(6.586,0,0,-6.4593,125.97,464.959)"
       spreadMethod="pad"
       id="radialGradient2990">
      <stop
         style="stop-opacity:1;stop-color:#b8d433"
         offset="0"
         id="stop2992" />
      <stop
         style="stop-opacity:1;stop-color:#004517"
         offset="1"
         id="stop2994" />
    </radialGradient>
    <radialGradient
       fx="0"
       fy="0"
       cx="0"
       cy="0"
       r="1"
       gradientUnits="userSpaceOnUse"
       gradientTransform="matrix(8.2524,0,0,-8.0937,131.195,470.157)"
       spreadMethod="pad"
       id="radialGradient2972">
      <stop
         style="stop-opacity:1;stop-color:#b8d433"
         offset="0"
         id="stop2974" />
      <stop
         style="stop-opacity:1;stop-color:#004517"
         offset="1"
         id="stop2976" />
    </radialGradient>
    <radialGradient
       fx="0"
       fy="0"
       cx="0"
       cy="0"
       r="1"
       gradientUnits="userSpaceOnUse"
       gradientTransform="matrix(6.9664,0,0,-6.8324,121.654,479.292)"
       spreadMethod="pad"
       id="radialGradient2954">
      <stop
         style="stop-opacity:1;stop-color:#b8d433"
         offset="0"
         id="stop2956" />
      <stop
         style="stop-opacity:1;stop-color:#004517"
         offset="1"
         id="stop2958" />
    </radialGradient>
    <radialGradient
       fx="0"
       fy="0"
       cx="0"
       cy="0"
       r="1"
       gradientUnits="userSpaceOnUse"
       gradientTransform="matrix(6.2694,0,0,-6.1489,116.124,475.239)"
       spreadMethod="pad"
       id="radialGradient2936">
      <stop
         style="stop-opacity:1;stop-color:#b8d433"
         offset="0"
         id="stop2938" />
      <stop
         style="stop-opacity:1;stop-color:#004517"
         offset="1"
         id="stop2940" />
    </radialGradient>
    <radialGradient
       fx="0"
       fy="0"
       cx="0"
       cy="0"
       r="1"
       gradientUnits="userSpaceOnUse"
       gradientTransform="matrix(5.9141,0,0,-5.8004,101.31,462.231)"
       spreadMethod="pad"
       id="radialGradient2918">
      <stop
         style="stop-opacity:1;stop-color:#ffe300"
         offset="0"
         id="stop2920" />
      <stop
         style="stop-opacity:1;stop-color:#f7931d"
         offset="1"
         id="stop2922" />
    </radialGradient>
    <radialGradient
       fx="0"
       fy="0"
       cx="0"
       cy="0"
       r="1"
       gradientUnits="userSpaceOnUse"
       gradientTransform="matrix(13.046,0,0,-12.795,106.229,454.34)"
       spreadMethod="pad"
       id="radialGradient2900">
      <stop
         style="stop-opacity:1;stop-color:#ffe300"
         offset="0"
         id="stop2902" />
      <stop
         style="stop-opacity:1;stop-color:#f7931d"
         offset="1"
         id="stop2904" />
    </radialGradient>
    <radialGradient
       fx="0"
       fy="0"
       cx="0"
       cy="0"
       r="1"
       gradientUnits="userSpaceOnUse"
       gradientTransform="matrix(12.258,0,0,-12.023,102.912,451.757)"
       spreadMethod="pad"
       id="radialGradient2882">
      <stop
         style="stop-opacity:1;stop-color:#ffe300"
         offset="0"
         id="stop2884" />
      <stop
         style="stop-opacity:1;stop-color:#f7931d"
         offset="1"
         id="stop2886" />
    </radialGradient>
    <radialGradient
       fx="0"
       fy="0"
       cx="0"
       cy="0"
       r="1"
       gradientUnits="userSpaceOnUse"
       gradientTransform="matrix(4.4694,0,0,-4.3834,96.263,457.87)"
       spreadMethod="pad"
       id="radialGradient2864">
      <stop
         style="stop-opacity:1;stop-color:#ffe300"
         offset="0"
         id="stop2866" />
      <stop
         style="stop-opacity:1;stop-color:#f7931d"
         offset="1"
         id="stop2868" />
    </radialGradient>
    <radialGradient
       fx="0"
       fy="0"
       cx="0"
       cy="0"
       r="1"
       gradientUnits="userSpaceOnUse"
       gradientTransform="matrix(30.035,0,0,-29.458,125.638,436.07)"
       spreadMethod="pad"
       id="radialGradient2846">
      <stop
         style="stop-opacity:1;stop-color:#ffe300"
         offset="0"
         id="stop2848" />
      <stop
         style="stop-opacity:1;stop-color:#f7931d"
         offset="1"
         id="stop2850" />
    </radialGradient>
    <radialGradient
       fx="0"
       fy="0"
       cx="0"
       cy="0"
       r="1"
       gradientUnits="userSpaceOnUse"
       gradientTransform="matrix(26.519,0,0,-26.009,118.713,462.949)"
       spreadMethod="pad"
       id="radialGradient2828">
      <stop
         style="stop-opacity:1;stop-color:#ffe300"
         offset="0"
         id="stop2830" />
      <stop
         style="stop-opacity:1;stop-color:#f7931d"
         offset="1"
         id="stop2832" />
    </radialGradient>
    <radialGradient
       fx="0"
       fy="0"
       cx="0"
       cy="0"
       r="1"
       gradientUnits="userSpaceOnUse"
       gradientTransform="matrix(17.837,0,0,-17.494,106.131,460.94)"
       spreadMethod="pad"
       id="radialGradient2810">
      <stop
         style="stop-opacity:1;stop-color:#ffe300"
         offset="0"
         id="stop2812" />
      <stop
         style="stop-opacity:1;stop-color:#f7931d"
         offset="1"
         id="stop2814" />
    </radialGradient>
    <radialGradient
       fx="0"
       fy="0"
       cx="0"
       cy="0"
       r="1"
       gradientUnits="userSpaceOnUse"
       gradientTransform="matrix(6.6275,0,0,-6.5,106.756,465.727)"
       spreadMethod="pad"
       id="radialGradient2792">
      <stop
         style="stop-opacity:1;stop-color:#ffe300"
         offset="0"
         id="stop2794" />
      <stop
         style="stop-opacity:1;stop-color:#f7931d"
         offset="1"
         id="stop2796" />
    </radialGradient>
    <radialGradient
       fx="0"
       fy="0"
       cx="0"
       cy="0"
       r="1"
       gradientUnits="userSpaceOnUse"
       gradientTransform="matrix(29.879,0,0,-29.304,118.81,412.345)"
       spreadMethod="pad"
       id="radialGradient2774">
      <stop
         style="stop-opacity:1;stop-color:#b8d433"
         offset="0"
         id="stop2776" />
      <stop
         style="stop-opacity:1;stop-color:#004517"
         offset="1"
         id="stop2778" />
    </radialGradient>
    <radialGradient
       fx="0"
       fy="0"
       cx="0"
       cy="0"
       r="1"
       gradientUnits="userSpaceOnUse"
       gradientTransform="matrix(18.958,0,0,-18.593,102.913,419.806)"
       spreadMethod="pad"
       id="radialGradient2756">
      <stop
         style="stop-opacity:1;stop-color:#b8d433"
         offset="0"
         id="stop2758" />
      <stop
         style="stop-opacity:1;stop-color:#004517"
         offset="1"
         id="stop2760" />
    </radialGradient>
    <clipPath
       clipPathUnits="userSpaceOnUse"
       id="clipPath2726">
      <path
         d="m 117.595,487.845 c -1.565,-0.071 -4.645,-0.17 -12.701,0.563 2.128,0.466 6.987,1.394 13.384,-0.532 0,0 -0.441,-0.02 -0.683,-0.031 z m -16.938,-2.255 c 2.163,0.244 7.061,0.74 14.331,-2.386 -3.897,-0.209 -12.277,0.81 -14.331,2.386 z m 10.593,-7.447 c -0.003,0.002 -0.01,0.004 -0.014,0.006 -3.504,0.075 -6.584,0.275 -8.736,0.62 -3.664,0.581 -5.198,1.41 -5.426,1.53 1.104,0.453 3.802,0.892 7.116,0.471 2.295,-0.292 5.116,-0.93 7.046,-2.621 0.004,-10e-4 0.011,-0.002 0.014,-0.003 0,-0.001 0,-0.002 0,-0.003 z m 15.049,10.932 c -1.457,1.771 -6.74,3.205 -11.471,3.138 l -0.008,-0.004 c -0.488,-0.007 -0.998,-0.019 -1.474,-0.04 -2.08,-0.1 -5.579,-0.702 -9.185,-2.526 -2.919,-1.478 -5.884,-3.681 -8.163,-6.505 0.031,-0.051 -7.457,-8.747 -4.755,-20.417 0.524,-1.581 0.82,-2.416 2.179,-1.951 0.774,0.428 0.765,1.878 0.906,2.507 0.705,3.162 -0.096,6.235 3.993,8.984 3.615,2.074 7.798,1.782 11.107,1.48 3.352,-0.311 5.795,-0.631 5.837,1.49 -0.316,1.597 -2.275,2.29 -3.423,2.692 2.164,-0.179 5.921,-0.275 6.021,2.296 0.001,0.021 0.001,0.042 0.002,0.063 0,0.014 0.002,0.027 0.002,0.041 0,-10e-4 -0.003,-0.003 -0.003,-0.004 -0.008,0.989 -0.914,2.073 -2.306,2.673 l 0.003,0.002 c 2.355,-0.402 6.011,-0.08 6.246,1.924 0.021,0.443 -0.496,1.524 -1.458,2.326 2.328,-0.336 5.267,-0.876 6.301,0.263 0.321,0.353 0.118,1.014 -0.351,1.568 z m 0,0.001 0,-0.001 10e-4,0 c 0,0 0,0 -10e-4,0.001"
         id="path2728"
         inkscape:connector-curvature="0" />
    </clipPath>
    <radialGradient
       fx="0"
       fy="0"
       cx="0"
       cy="0"
       r="1"
       gradientUnits="userSpaceOnUse"
       gradientTransform="matrix(28.26,0,0,-27.717,110.817,473.97)"
       spreadMethod="pad"
       id="radialGradient2738">
      <stop
         style="stop-opacity:1;stop-color:#8cc63f"
         offset="0"
         id="stop2740" />
      <stop
         style="stop-opacity:1;stop-color:#00380d"
         offset="1"
         id="stop2742" />
    </radialGradient>
    <radialGradient
       fx="0"
       fy="0"
       cx="0"
       cy="0"
       r="1"
       gradientUnits="userSpaceOnUse"
       gradientTransform="matrix(22.921,0,0,-22.48,123.018,472.569)"
       spreadMethod="pad"
       id="radialGradient2714">
      <stop
         style="stop-opacity:1;stop-color:#8cc63f"
         offset="0"
         id="stop2716" />
      <stop
         style="stop-opacity:1;stop-color:#00380d"
         offset="1"
         id="stop2718" />
    </radialGradient>
    <radialGradient
       fx="0"
       fy="0"
       cx="0"
       cy="0"
       r="1"
       gradientUnits="userSpaceOnUse"
       gradientTransform="matrix(5.7426,0,0,-5.6322,132.381,457.544)"
       spreadMethod="pad"
       id="radialGradient2696">
      <stop
         style="stop-opacity:1;stop-color:#ed1c24"
         offset="0"
         id="stop2698" />
      <stop
         style="stop-opacity:1;stop-color:#8d0305"
         offset="1"
         id="stop2700" />
    </radialGradient>
    <radialGradient
       fx="0"
       fy="0"
       cx="0"
       cy="0"
       r="1"
       gradientUnits="userSpaceOnUse"
       gradientTransform="matrix(5.7833,0,0,-5.6721,132.462,457.553)"
       spreadMethod="pad"
       id="radialGradient2678">
      <stop
         style="stop-opacity:1;stop-color:#ed1c24"
         offset="0"
         id="stop2680" />
      <stop
         style="stop-opacity:1;stop-color:#8d0305"
         offset="1"
         id="stop2682" />
    </radialGradient>
    <radialGradient
       fx="0"
       fy="0"
       cx="0"
       cy="0"
       r="1"
       gradientUnits="userSpaceOnUse"
       gradientTransform="matrix(5.7407,0,0,-5.6303,132.38,457.543)"
       spreadMethod="pad"
       id="radialGradient2660">
      <stop
         style="stop-opacity:1;stop-color:#ed1c24"
         offset="0"
         id="stop2662" />
      <stop
         style="stop-opacity:1;stop-color:#8d0305"
         offset="1"
         id="stop2664" />
    </radialGradient>
    <radialGradient
       fx="0"
       fy="0"
       cx="0"
       cy="0"
       r="1"
       gradientUnits="userSpaceOnUse"
       gradientTransform="matrix(5.7431,0,0,-5.6326,132.383,457.543)"
       spreadMethod="pad"
       id="radialGradient2642">
      <stop
         style="stop-opacity:1;stop-color:#ed1c24"
         offset="0"
         id="stop2644" />
      <stop
         style="stop-opacity:1;stop-color:#8d0305"
         offset="1"
         id="stop2646" />
    </radialGradient>
    <radialGradient
       fx="0"
       fy="0"
       cx="0"
       cy="0"
       r="1"
       gradientUnits="userSpaceOnUse"
       gradientTransform="matrix(6.727,0,0,-6.5977,132.159,456.493)"
       spreadMethod="pad"
       id="radialGradient2624">
      <stop
         style="stop-opacity:1;stop-color:#ed1c24"
         offset="0"
         id="stop2626" />
      <stop
         style="stop-opacity:1;stop-color:#8d0305"
         offset="1"
         id="stop2628" />
    </radialGradient>
    <radialGradient
       fx="0"
       fy="0"
       cx="0"
       cy="0"
       r="1"
       gradientUnits="userSpaceOnUse"
       gradientTransform="matrix(5.2524,0,0,-5.1514,133.367,457.554)"
       spreadMethod="pad"
       id="radialGradient2606">
      <stop
         style="stop-opacity:1;stop-color:#ed1c24"
         offset="0"
         id="stop2608" />
      <stop
         style="stop-opacity:1;stop-color:#8d0305"
         offset="1"
         id="stop2610" />
    </radialGradient>
    <radialGradient
       fx="0"
       fy="0"
       cx="0"
       cy="0"
       r="1"
       gradientUnits="userSpaceOnUse"
       gradientTransform="matrix(6.085,0,0,-5.968,133.113,457.129)"
       spreadMethod="pad"
       id="radialGradient2588">
      <stop
         style="stop-opacity:1;stop-color:#ed1c24"
         offset="0"
         id="stop2590" />
      <stop
         style="stop-opacity:1;stop-color:#8d0305"
         offset="1"
         id="stop2592" />
    </radialGradient>
    <radialGradient
       fx="0"
       fy="0"
       cx="0"
       cy="0"
       r="1"
       gradientUnits="userSpaceOnUse"
       gradientTransform="matrix(6.5129,0,0,-6.3877,131.742,456.733)"
       spreadMethod="pad"
       id="radialGradient2570">
      <stop
         style="stop-opacity:1;stop-color:#ed1c24"
         offset="0"
         id="stop2572" />
      <stop
         style="stop-opacity:1;stop-color:#8d0305"
         offset="1"
         id="stop2574" />
    </radialGradient>
    <radialGradient
       fx="0"
       fy="0"
       cx="0"
       cy="0"
       r="1"
       gradientUnits="userSpaceOnUse"
       gradientTransform="matrix(6.2996,0,0,-6.1785,132.895,457.396)"
       spreadMethod="pad"
       id="radialGradient2552">
      <stop
         style="stop-opacity:1;stop-color:#ed1c24"
         offset="0"
         id="stop2554" />
      <stop
         style="stop-opacity:1;stop-color:#8d0305"
         offset="1"
         id="stop2556" />
    </radialGradient>
    <radialGradient
       fx="0"
       fy="0"
       cx="0"
       cy="0"
       r="1"
       gradientUnits="userSpaceOnUse"
       gradientTransform="matrix(5.9737,0,0,-5.8588,132.849,457.483)"
       spreadMethod="pad"
       id="radialGradient2534">
      <stop
         style="stop-opacity:1;stop-color:#ed1c24"
         offset="0"
         id="stop2536" />
      <stop
         style="stop-opacity:1;stop-color:#8d0305"
         offset="1"
         id="stop2538" />
    </radialGradient>
    <radialGradient
       fx="0"
       fy="0"
       cx="0"
       cy="0"
       r="1"
       gradientUnits="userSpaceOnUse"
       gradientTransform="matrix(16.561,0,0,-16.242,123.028,468.636)"
       spreadMethod="pad"
       id="radialGradient2516">
      <stop
         style="stop-opacity:1;stop-color:#e31b22"
         offset="0"
         id="stop2518" />
      <stop
         style="stop-opacity:1;stop-color:#ca161d"
         offset="1"
         id="stop2520" />
    </radialGradient>
    <radialGradient
       fx="0"
       fy="0"
       cx="0"
       cy="0"
       r="1"
       gradientUnits="userSpaceOnUse"
       gradientTransform="matrix(35.705,0,0,-35.019,119.575,450.919)"
       spreadMethod="pad"
       id="radialGradient2498">
      <stop
         style="stop-opacity:1;stop-color:#ffe300"
         offset="0"
         id="stop2500" />
      <stop
         style="stop-opacity:1;stop-color:#f7931d"
         offset="1"
         id="stop2502" />
    </radialGradient>
    <radialGradient
       fx="0"
       fy="0"
       cx="0"
       cy="0"
       r="1"
       gradientUnits="userSpaceOnUse"
       gradientTransform="matrix(19.331,0,0,-18.96,106.313,423.512)"
       spreadMethod="pad"
       id="radialGradient2480">
      <stop
         style="stop-opacity:1;stop-color:#b8d433"
         offset="0"
         id="stop2482" />
      <stop
         style="stop-opacity:1;stop-color:#004517"
         offset="1"
         id="stop2484" />
    </radialGradient>
    <radialGradient
       fx="0"
       fy="0"
       cx="0"
       cy="0"
       r="1"
       gradientUnits="userSpaceOnUse"
       gradientTransform="matrix(27.817,0,0,-27.282,121.253,422.85)"
       spreadMethod="pad"
       id="radialGradient2462">
      <stop
         style="stop-opacity:1;stop-color:#8cc63f"
         offset="0"
         id="stop2464" />
      <stop
         style="stop-opacity:1;stop-color:#00380d"
         offset="1"
         id="stop2466" />
    </radialGradient>
    <radialGradient
       fx="0"
       fy="0"
       cx="0"
       cy="0"
       r="1"
       gradientUnits="userSpaceOnUse"
       gradientTransform="matrix(13.592,0,0,-13.331,93.832,411.542)"
       spreadMethod="pad"
       id="radialGradient2444">
      <stop
         style="stop-opacity:1;stop-color:#b8d433"
         offset="0"
         id="stop2446" />
      <stop
         style="stop-opacity:1;stop-color:#004517"
         offset="1"
         id="stop2448" />
    </radialGradient>
    <radialGradient
       fx="0"
       fy="0"
       cx="0"
       cy="0"
       r="1"
       gradientUnits="userSpaceOnUse"
       gradientTransform="matrix(20.68,0,0,-20.282,105.373,419.954)"
       spreadMethod="pad"
       id="radialGradient2426">
      <stop
         style="stop-opacity:1;stop-color:#8cc63f"
         offset="0"
         id="stop2428" />
      <stop
         style="stop-opacity:1;stop-color:#00380d"
         offset="1"
         id="stop2430" />
    </radialGradient>
    <radialGradient
       fx="0"
       fy="0"
       cx="0"
       cy="0"
       r="1"
       gradientUnits="userSpaceOnUse"
       gradientTransform="matrix(31.511,0,0,-30.905,115.803,392.466)"
       spreadMethod="pad"
       id="radialGradient2372">
      <stop
         style="stop-opacity:1;stop-color:#aed136"
         offset="0"
         id="stop2374" />
      <stop
         style="stop-opacity:1;stop-color:#005d29"
         offset="1"
         id="stop2376" />
    </radialGradient>
    <radialGradient
       fx="0"
       fy="0"
       cx="0"
       cy="0"
       r="1"
       gradientUnits="userSpaceOnUse"
       gradientTransform="matrix(31.608,6.9818,7.1187,-31.003,112.385,391.842)"
       spreadMethod="pad"
       id="radialGradient2354">
      <stop
         style="stop-opacity:1;stop-color:#aed136"
         offset="0"
         id="stop2356" />
      <stop
         style="stop-opacity:1;stop-color:#005d29"
         offset="1"
         id="stop2358" />
    </radialGradient>
    <clipPath
       clipPathUnits="userSpaceOnUse"
       id="clipPath2324">
      <path
         d="m 115.413,378.724 c -0.138,-0.344 -1.254,-0.759 -1.796,-0.351 -0.201,0.15 -0.246,0.412 -0.217,0.667 0.036,0.474 0.398,0.834 0.873,0.881 l 0.032,0.003 c 0.042,0.003 0.086,0.005 0.126,0.003 0.192,-0.011 0.378,-0.07 0.551,-0.177 l 0.016,-0.006 c 0.181,-0.092 0.36,-0.335 0.36,-0.335 0.122,-0.222 0.14,-0.464 0.055,-0.685 z m -1.115,4.778 c -1.301,0.346 -2.102,-2.139 -2.624,-3.608 -0.676,-1.909 -1.189,-2.759 -1.114,-3.407 0.109,-0.919 1.107,-1.154 1.151,-1.16 2.051,-0.202 4.533,1.274 4.533,1.274 0,0 2.207,-1.435 2.934,-1.226 0.577,0.165 -0.842,3.575 -2.585,6.145 -0.801,1.178 -1.575,1.793 -2.295,1.982 z m 9.591,-3.308 c -1.332,0.5 -1.884,0.741 -2.032,1.179 -0.124,0.369 -0.093,0.848 1.818,1.232 0.046,0.149 0.074,0.541 0.074,0.541 0,0 -1.432,0.351 -2.103,0.203 -2.235,-0.494 -3.593,-1.582 -3.146,-2.56 0.285,-0.626 1.939,-1.239 2.978,-1.73 0.488,-0.238 0.586,-0.934 0.678,-1.337 0.15,-0.652 -0.327,-1.243 -1.794,-1.457 -0.262,-0.038 -0.885,0.195 -0.848,0.031 0.141,-0.609 1.598,-1.442 2.866,-1.081 2.082,0.59 3.472,2.171 3.207,3.324 -0.126,0.551 -0.641,1.258 -1.698,1.655 z m 3.63,3.172 c 1.621,0.17 1.105,1.521 1.086,1.584 -0.122,0.411 -0.836,0.768 -1.316,0.706 -0.27,-0.036 -0.676,-0.343 -0.866,-0.593 -0.14,-0.174 -0.479,-0.461 -0.36,-0.902 0,0 0.518,-0.889 1.456,-0.795 z m 1.369,-1.054 -0.436,0.369 c 0,0 -2.082,-0.156 -2.075,-0.243 0,-0.139 0,-0.441 0.002,-0.581 l 0.002,-0.333 c 0.004,-0.957 -0.381,-4.29 -0.12,-5.714 0.044,-0.24 0.707,-0.692 1.278,-0.692 0.567,0 0.796,0.288 0.959,0.765 0.264,0.78 0.505,4.411 0.425,5.97 -0.016,0.182 -0.035,0.459 -0.035,0.459 z m 4.176,-5.021 c -0.222,0.22 -0.573,0.161 -0.661,0.121 -0.137,-0.062 0.189,-0.549 0.096,-0.471 -1.269,1.063 0.313,6.177 0.243,8.071 -0.013,0.357 -0.479,0.669 -0.873,0.687 -0.047,0.002 -1.284,-0.509 -1.402,-1.207 -0.016,-0.094 -1.675,-7.309 -0.694,-8.594 0.368,-0.482 1.259,-0.761 1.742,-0.761 1.212,0 1.881,1.261 1.837,1.499 -0.034,0.187 -0.155,0.526 -0.288,0.655 z m -21.422,4.854 c 0.21,0.237 0.28,1.016 0.28,1.016 l -0.442,0.318 c 0,0 -2.92,-0.796 -2.931,-0.798 l -0.468,-0.216 -0.399,0.111 c -0.002,0.004 -0.156,0.203 -0.422,0.4 -0.115,0.018 -0.312,0.296 -0.628,0.296 -0.233,0 -0.413,-0.015 -0.537,-0.032 0.107,-1.381 0.493,-5.663 0.894,-7.52 0.104,-0.45 0.595,-0.575 0.814,-0.573 0.058,0.002 0.321,-0.002 0.481,0.007 0.421,0.023 0.767,0.093 0.912,0.243 0.026,0.033 0.102,0.108 0.091,0.339 -0.039,0.751 -0.405,2.569 -0.472,2.853 l -0.01,0.032 c -0.438,2.135 2.201,3.195 2.837,3.524 z m -8.725,-4.634 c -0.382,-0.419 -0.933,-0.422 -1.117,-0.435 -0.732,-0.054 -1.521,0.216 -1.693,0.529 -0.179,0.331 -0.506,1.255 -0.324,1.595 0.312,0.657 1.358,0.667 2.091,0.513 l 0.042,-0.01 c 0.068,-0.016 0.128,-0.032 0.192,-0.059 0.275,-0.098 0.521,-0.263 0.719,-0.492 l 0.013,-0.019 c 0.252,-0.245 0.359,-0.635 0.359,-0.635 0.066,-0.364 -0.028,-0.715 -0.282,-0.987 z m -3.001,4.989 c 0.305,0.978 0.885,0.944 0.93,0.952 0.764,0.089 1.06,-0.542 1.06,-0.542 0.158,-0.24 0.196,-0.516 0.11,-0.773 -0.127,-0.398 -0.487,-0.565 -0.602,-0.618 -0.188,-0.086 -0.365,-0.14 -0.523,-0.159 -0.05,-0.011 -0.104,-0.014 -0.152,-0.014 -0.266,0 -0.518,0.099 -0.698,0.275 -0.204,0.192 -0.286,0.366 -0.125,0.879 z m 3.866,-1.363 c 0.463,0.398 0.714,0.847 0.728,1.206 0.072,2.571 -5.682,3.022 -5.682,3.022 0,0 -1.682,-2.846 -1.522,-5.465 0.115,-1.914 0.761,-4.882 3.599,-4.782 1.323,0.051 4.777,0.573 5.124,2.771 0.263,1.668 -1.092,2.674 -2.247,3.248"
         id="path2326"
         inkscape:connector-curvature="0" />
    </clipPath>
    <linearGradient
       x1="0"
       y1="0"
       x2="1"
       y2="0"
       gradientUnits="userSpaceOnUse"
       gradientTransform="matrix(-0.054513,-12.273,-12.513,0.053464,115.342,382.204)"
       spreadMethod="pad"
       id="linearGradient2336">
      <stop
         style="stop-opacity:1;stop-color:#aed136"
         offset="0"
         id="stop2338" />
      <stop
         style="stop-opacity:1;stop-color:#005d29"
         offset="1"
         id="stop2340" />
    </linearGradient>
  </defs>
  <sodipodi:namedview
     id="base"
     pagecolor="#ffffff"
     bordercolor="#666666"
     borderopacity="1.0"
     inkscape:pageopacity="0.0"
     inkscape:pageshadow="2"
     inkscape:zoom="0.35"
     inkscape:cx="424.57178"
     inkscape:cy="58.901459"
     inkscape:document-units="px"
     inkscape:current-layer="layer1"
     showgrid="false"
     fit-margin-top="0"
     fit-margin-left="0"
     fit-margin-right="0"
     fit-margin-bottom="0"
     inkscape:window-width="1366"
     inkscape:window-height="705"
     inkscape:window-x="-8"
     inkscape:window-y="-8"
     inkscape:window-maximized="1" />
  <metadata
     id="metadata10628">
    <rdf:RDF>
      <cc:Work
         rdf:about="">
        <dc:format>image/svg+xml</dc:format>
        <dc:type
           rdf:resource="http://purl.org/dc/dcmitype/StillImage" />
        <dc:title></dc:title>
      </cc:Work>
    </rdf:RDF>
  </metadata>
  <g
     inkscape:label="Layer 1"
     inkscape:groupmode="layer"
     id="layer1"
     transform="translate(536.71464,205.60516)">
    <g
       transform="matrix(2.9011744,0,0,-2.9011744,-745.03057,1222.3964)"
       id="g2320">
      <g
         id="g2322"
         clip-path="url(#clipPath2324)">
        <g
           id="g2328">
          <g
             id="g2334">
            <path
               d="m 157.977,492.215 -86.173,0 0,-117.1 86.173,0 0,117.1 z"
               style="fill:url(#linearGradient2336);stroke:none"
               id="path2342"
               inkscape:connector-curvature="0" />
          </g>
        </g>
      </g>
    </g>
    <g
       transform="matrix(2.9011744,0,0,-2.9011744,-745.03057,1222.3964)"
       id="g2344">
      <g
         id="g2346">
        <g
           id="g2352">
          <path
             d="m 125.268,378.86 c -0.127,0.55 -0.599,1.072 -1.697,1.539 -1.311,0.556 -2.012,0.887 -2.115,1.335 -0.116,0.505 0.376,1.024 2.29,1.409 -0.24,0.543 -1.588,0.769 -2.501,0.568 -2.236,-0.494 -3.386,-1.515 -3.146,-2.561 0.239,-1.046 1.794,-1.643 2.832,-2.134 0.488,-0.238 0.731,-0.531 0.823,-0.932 0.151,-0.652 -0.326,-1.242 -1.793,-1.457 -0.262,-0.038 -0.501,-0.113 -0.463,-0.278 0.14,-0.61 1.28,-1.038 2.479,-0.774 2.116,0.468 3.554,2.133 3.291,3.285"
             style="fill:url(#radialGradient2354);stroke:none"
             id="path2360"
             inkscape:connector-curvature="0" />
        </g>
      </g>
    </g>
    <g
       transform="matrix(2.9011744,0,0,-2.9011744,-745.03057,1222.3964)"
       id="g2362">
      <g
         id="g2364">
        <g
           id="g2370">
          <path
             d="m 128.452,382.681 c -2.66,0.915 -2.512,0.172 -2.516,0.08 0,-0.144 0,-0.441 0.004,-0.585 l 0.001,-0.333 c 0.004,-0.956 0.021,-4.583 0.309,-5.999 0.038,-0.192 0.277,-0.406 0.847,-0.406 0.57,0 0.798,0.29 0.96,0.764 0.266,0.78 0.507,4.413 0.422,5.973 -0.011,0.179 -0.019,0.355 -0.027,0.506 z m -25.977,-4.847 c -0.378,-0.425 -0.932,-0.425 -1.115,-0.44 -0.73,-0.053 -1.523,0.22 -1.693,0.532 -0.18,0.329 -0.507,1.254 -0.324,1.594 0.31,0.655 1.358,0.666 2.09,0.511 l 0.044,-0.008 c 0.066,-0.013 0.126,-0.032 0.192,-0.059 0.274,-0.095 0.518,-0.263 0.718,-0.493 l 0.015,-0.018 c 0.248,-0.246 0.355,-0.635 0.355,-0.635 0.066,-0.365 -0.03,-0.714 -0.282,-0.984 z m -2.997,4.986 c 0.303,0.979 0.883,0.947 0.929,0.954 0.763,0.09 1.059,-0.544 1.059,-0.544 0.158,-0.242 0.193,-0.516 0.112,-0.774 -0.129,-0.398 -0.491,-0.565 -0.606,-0.615 -0.185,-0.09 -0.365,-0.139 -0.521,-0.161 -0.049,-0.009 -0.104,-0.011 -0.153,-0.011 -0.266,0 -0.517,0.097 -0.697,0.269 -0.203,0.194 -0.288,0.367 -0.123,0.882 z m 3.864,-1.36 c 0.463,0.393 0.715,0.844 0.729,1.203 0.069,2.573 -5.682,3.024 -5.682,3.024 0,0 -1.684,-2.849 -1.522,-5.467 0.113,-1.913 0.76,-4.879 3.598,-4.782 1.324,0.048 4.778,0.575 5.125,2.773 0.261,1.667 -1.091,2.673 -2.248,3.249 z m 29.571,-4.503 c -0.4,0.963 -0.669,0.151 -0.855,0.303 -1.267,1.064 0.389,6.057 0.227,7.945 -0.027,0.301 -0.192,0.39 -0.416,0.494 -0.044,0.021 -1.725,-0.189 -1.843,-0.887 -0.017,-0.092 -1.325,-7.629 -0.283,-8.871 0.332,-0.382 0.849,-0.484 1.332,-0.484 1.213,0 1.921,1.293 1.838,1.5 z m -5.835,6.731 c 1.62,0.166 1.1,1.517 1.088,1.584 -0.143,0.405 -0.737,0.419 -1.234,0.399 -0.271,-0.011 -0.759,-0.038 -0.951,-0.286 -0.137,-0.176 -0.148,-0.525 -0.027,-0.966 0,0 0.189,-0.828 1.124,-0.731 z m -15.875,-1.223 c 0.209,0.237 0.305,0.748 0.277,1.014 -0.263,0.049 -0.54,0.076 -0.832,0.076 -1.353,0 -2.527,-0.549 -2.538,-0.554 l -0.467,-0.218 -0.336,0.387 c -0.003,0.003 -0.162,0.183 -0.428,0.379 -0.112,0.019 -0.37,0.043 -0.686,0.043 -0.235,0 -0.415,-0.013 -0.54,-0.032 0.11,-1.38 0.867,-5.769 1.267,-7.627 0.102,-0.445 0.176,-0.466 0.444,-0.466 0.055,0 1.082,0.006 1.393,0.248 0.025,0.036 0.102,0.112 0.088,0.343 -0.04,0.749 -0.403,2.567 -0.472,2.852 l -0.008,0.032 c -0.439,2.133 2.199,3.195 2.838,3.523 z m 3.774,-3.421 c -0.137,-0.344 -1.256,-0.758 -1.797,-0.352 -0.2,0.153 -0.244,0.414 -0.216,0.67 0.035,0.473 0.395,0.831 0.872,0.879 l 0.033,0.003 c 0.044,0.003 0.087,0.005 0.126,0.003 0.192,-0.01 0.376,-0.073 0.551,-0.175 l 0.017,-0.011 c 0.181,-0.092 0.357,-0.333 0.357,-0.333 0.125,-0.221 0.144,-0.463 0.057,-0.684 z m -3.743,1.17 c -1.632,-4.515 -0.039,-4.558 0.038,-4.565 2.051,-0.206 4.453,1.238 4.453,1.238 0,0 2.485,-1.619 3.048,-1.399 0.557,0.216 -0.877,3.782 -2.621,6.351 -2.538,3.733 -4.147,0.516 -4.918,-1.625"
             style="fill:url(#radialGradient2372);stroke:none"
             id="path2378"
             inkscape:connector-curvature="0" />
        </g>
      </g>
    </g>
    <g
       id="g2380"
       transform="matrix(2.9011744,0,0,-2.9011744,-326.91911,91.692682)">
      <path
         d="m 0,0 c -0.559,-0.145 -1.179,-0.304 -2.184,-0.304 -1.97,0 -4.248,0.983 -4.248,3.712 0,2.522 1.794,3.781 4.235,3.781 0.75,0 1.479,-0.157 2.189,-0.368 L -0.163,5.257 c -0.643,0.337 -1.252,0.493 -1.929,0.493 -1.395,0 -2.302,-0.99 -2.302,-2.342 0,-1.403 1.018,-2.281 2.458,-2.281 0.642,0 1.307,0.18 1.84,0.378 L 0,0"
         style="fill:#003768;fill-opacity:1;fill-rule:nonzero;stroke:none"
         id="path2382"
         inkscape:connector-curvature="0" />
    </g>
    <g
       id="g2384"
       transform="matrix(2.9011744,0,0,-2.9011744,-305.8769,84.256972)">
      <path
         d="m 0,0 c 0,-1.969 -1.305,-2.867 -3.232,-2.867 -1.931,0 -3.237,0.898 -3.237,2.867 l 0,4.503 1.968,0 0,-4.168 c 0,-0.951 0.267,-1.771 1.269,-1.771 1.008,0 1.268,0.82 1.268,1.771 l 0,4.168 L 0,4.503 0,0"
         style="fill:#003768;fill-opacity:1;fill-rule:nonzero;stroke:none"
         id="path2386"
         inkscape:connector-curvature="0" />
    </g>
    <g
       id="g2388"
       transform="matrix(2.9011744,0,0,-2.9011744,-297.36195,80.8684)">
      <path
         d="m 0,0 0.501,0 c 0.67,0 1.211,0.226 1.211,0.994 0,0.723 -0.541,0.967 -1.211,0.967 L 0,1.961 0,0 Z m -1.973,3.336 2.345,0 c 2.247,0 3.298,-0.741 3.298,-2.376 0,-1.466 -1.083,-2.33 -2.913,-2.33 l -0.757,0 0,-2.527 -1.973,0 0,7.233"
         style="fill:#003768;fill-opacity:1;fill-rule:nonzero;stroke:none"
         id="path2390"
         inkscape:connector-curvature="0" />
    </g>
    <g
       id="g2392"
       transform="matrix(2.9011744,0,0,-2.9011744,-461.92527,92.174277)">
      <path
         d="m 0,0 2.55,0 0.968,5.54 0.021,0 L 4.585,0 7.116,0 8.77,7.233 l -1.925,0 -0.952,-5.561 -0.019,0 -1.035,5.561 -2.505,0 -0.985,-5.561 -0.027,0 -0.949,5.561 -2,0 L 0,0"
         style="fill:#003768;fill-opacity:1;fill-rule:nonzero;stroke:none"
         id="path2394"
         inkscape:connector-curvature="0" />
    </g>
    <g
       id="g2396"
       transform="matrix(2.9011744,0,0,-2.9011744,-424.89177,88.423058)">
      <path
         d="M 0,0 C 1.192,0 1.674,1.119 1.674,2.32 1.674,3.569 1.192,4.623 0,4.623 -1.2,4.623 -1.675,3.569 -1.675,2.32 -1.675,1.119 -1.2,0 0,0 m 0,6.062 c 2.43,0 3.691,-1.421 3.691,-3.742 0,-2.304 -1.275,-3.751 -3.691,-3.751 -2.413,0 -3.701,1.447 -3.701,3.751 0,2.321 1.269,3.742 3.701,3.742"
         style="fill:#003768;fill-opacity:1;fill-rule:nonzero;stroke:none"
         id="path2398"
         inkscape:connector-curvature="0" />
    </g>
    <g
       id="g2400"
       transform="matrix(2.9011744,0,0,-2.9011744,-406.02834,79.937123)">
      <path
         d="m 0,0 0.526,0 c 0.634,0 1.437,0.038 1.437,0.845 0,0.676 -0.685,0.794 -1.437,0.794 L 0,1.639 0,0 Z m -1.955,3.015 3.507,0 c 1.319,0 2.38,-0.582 2.38,-1.828 0,-0.973 -0.471,-1.602 -1.417,-1.831 l 0,-0.012 c 0.63,-0.171 0.676,-0.722 1.043,-1.588 l 0.717,-1.974 -2.046,0 -0.431,1.293 C 1.401,-1.677 1.149,-1.36 0.421,-1.36 l -0.421,0 0,-2.858 -1.955,0 0,7.233"
         style="fill:#003768;fill-opacity:1;fill-rule:nonzero;stroke:none"
         id="path2402"
         inkscape:connector-curvature="0" />
    </g>
    <g
       id="g2404"
       transform="matrix(2.9011744,0,0,-2.9011744,-390.87841,92.174277)">
      <path
         d="m 0,0 5.006,0 0,1.423 -3.047,0 0,5.81 L 0,7.233 0,0"
         style="fill:#003768;fill-opacity:1;fill-rule:nonzero;stroke:none"
         id="path2406"
         inkscape:connector-curvature="0" />
    </g>
    <g
       id="g2408"
       transform="matrix(2.9011744,0,0,-2.9011744,-367.35858,88.048807)">
      <path
         d="m 0,0 0.753,0 c 1.474,0 2.302,0.749 2.302,2.191 0,1.442 -0.858,2.182 -2.302,2.182 L 0,4.373 0,0 Z m -1.958,5.811 2.677,0 c 2.574,0 4.361,-0.79 4.361,-3.595 0,-2.707 -1.844,-3.639 -4.361,-3.639 l -2.677,0 0,7.234"
         style="fill:#003768;fill-opacity:1;fill-rule:nonzero;stroke:none"
         id="path2410"
         inkscape:connector-curvature="0" />
    </g>
    <g
       id="g2412"
       transform="matrix(2.9011744,0,0,-2.9011744,-536.71464,71.132059)">
      <path
         d="m 0,0 0,-7.272 2.338,0 0,2.625 1.63,0 0.638,1.593 -2.268,0 0,1.478 2.751,0 L 5.693,0 0,0 Z m 6.406,0 -0.002,-7.272 2.318,0 0,7.272 -2.316,0 z m 11.222,-4.911 0.891,3.026 0.924,-3.026 -1.815,0 z M 10.318,0 l 0,-7.272 2.337,0 0,2.625 1.627,0 0.638,1.593 -2.265,0 0,1.478 2.751,0 0.61,1.576 -5.698,0 z m 9.442,-0.013 -2.405,0 -2.664,-7.275 2.237,0 0.29,0.979 2.606,0 0.298,-0.979 2.306,0 -2.668,7.275"
         style="fill:#003768;fill-opacity:1;fill-rule:nonzero;stroke:none"
         id="path2414"
         inkscape:connector-curvature="0" />
    </g>
    <g
       transform="matrix(2.9011744,0,0,-2.9011744,-745.03057,1222.3964)"
       id="g2416">
      <g
         id="g2418">
        <g
           id="g2424">
          <path
             d="m 94.868,412.671 c -1.672,-0.511 -2.873,-1.198 -1.616,-2.604 4.383,-4.511 12.182,-5.086 14.625,-5.139 -9.777,2.575 -3.833,15.494 -3.833,15.494 -4.18,-6.822 -9.176,-7.751 -9.176,-7.751"
             style="fill:url(#radialGradient2426);stroke:none"
             id="path2432"
             inkscape:connector-curvature="0" />
        </g>
      </g>
    </g>
    <g
       transform="matrix(2.9011744,0,0,-2.9011744,-745.03057,1222.3964)"
       id="g2434">
      <g
         id="g2436">
        <g
           id="g2442">
          <path
             d="m 95.716,412.472 c 0,0 2.835,0.469 6.058,4.847 -3.525,-4.019 -6.906,-4.648 -6.906,-4.648 -1.099,-0.337 -1.995,-0.748 -2.123,-1.391 0.022,0.081 0.309,0.63 2.971,1.192"
             style="fill:url(#radialGradient2444);stroke:none"
             id="path2450"
             inkscape:connector-curvature="0" />
        </g>
      </g>
    </g>
    <g
       transform="matrix(2.9011744,0,0,-2.9011744,-745.03057,1222.3964)"
       id="g2452">
      <g
         id="g2454">
        <g
           id="g2460">
          <path
             d="m 106.322,423.934 c -1.212,-3.75 -7.755,-19.891 10.193,-19.489 9.477,0.141 14.616,1.7 17.503,3.459 2.855,1.749 3.061,3.293 3.061,3.293 0,0 -15.038,-5.559 -21.417,9.971 -5.929,13.859 -10.629,20.01 -10.629,20.01 0,0 4.155,-7.985 1.289,-17.244"
             style="fill:url(#radialGradient2462);stroke:none"
             id="path2468"
             inkscape:connector-curvature="0" />
        </g>
      </g>
    </g>
    <g
       transform="matrix(2.9011744,0,0,-2.9011744,-745.03057,1222.3964)"
       id="g2470">
      <g
         id="g2472">
        <g
           id="g2478">
          <path
             d="m 106.805,423.817 c 2.475,8.62 -1.042,16.026 -1.578,17.08 -0.137,0.186 -0.194,0.281 -0.194,0.281 0,0 4.155,-7.985 1.289,-17.244 -1.21,-3.749 -7.752,-19.88 10.174,-19.489 -16.614,-0.079 -10.804,15.662 -9.691,19.372"
             style="fill:url(#radialGradient2480);stroke:none"
             id="path2486"
             inkscape:connector-curvature="0" />
        </g>
      </g>
    </g>
    <g
       transform="matrix(2.9011744,0,0,-2.9011744,-745.03057,1222.3964)"
       id="g2488">
      <g
         id="g2490">
        <g
           id="g2496">
          <path
             d="m 106.55,447.344 c -1.308,0.624 -6.214,1.936 -9.398,10.529 -1.532,1.534 -2.834,2.476 -3.536,1.937 -1.359,-1.047 2.3,-8.516 6.627,-12.176 19.105,-15.505 12.953,-38.661 36.834,-35.82 0.25,0.027 -13.495,3.92 -11.378,22.381 1.452,12.222 8.728,18.923 10.143,20.338 3.511,3.512 2.798,4.964 1.629,5.181 -4.884,-0.536 -8.249,-8.744 -13.298,-8.514 -2.182,0.027 -4.315,1.263 -5.261,2.311 -6.806,7.47 -5.165,16.234 -7.61,17.115 -0.381,0.129 -0.751,0.179 -1.105,0.175 -1.272,-0.019 -2.292,-0.834 -2.435,-1.985 -0.42,-1.92 0.162,-4.234 0.245,-5.865 3.139,-3.185 6.539,-12.588 6.654,-12.985 -1.428,1.143 -6.049,5.047 -6.654,12.985 -0.196,0.503 -0.401,0.999 -0.619,1.49 -0.838,1.876 -1.662,5.857 -4.858,4.785 -2.744,-0.922 -0.634,-6.032 0.399,-8.977 2.952,-1.617 7.395,-9.578 7.719,-12.109 -1.719,1.339 -5.675,4.497 -7.719,12.109 -1.174,1.614 -2.379,3.562 -3.928,4.575 -2.361,1.554 -4.062,-0.543 -3.634,-2.493 0.444,-2.052 1.13,-3.162 1.785,-4.458 4.203,-2.95 9.455,-10.529 9.398,-10.529"
             style="fill:url(#radialGradient2498);stroke:none"
             id="path2504"
             inkscape:connector-curvature="0" />
        </g>
      </g>
    </g>
    <g
       transform="matrix(2.9011744,0,0,-2.9011744,-745.03057,1222.3964)"
       id="g2506">
      <g
         id="g2508">
        <g
           id="g2514">
          <path
             d="m 129.532,458.682 c -0.162,-0.435 -0.502,-0.672 -0.968,-0.672 -0.071,0 -0.144,0.006 -0.23,0.021 -0.211,0.03 -0.385,0.112 -0.521,0.236 -0.115,0.109 -0.198,0.242 -0.258,0.407 -0.173,0.511 -0.082,1.14 0.236,1.677 0.115,0.189 0.247,0.324 0.392,0.41 0.033,0.021 0.346,0.195 0.657,0.195 0.19,0 0.338,-0.066 0.445,-0.207 0.395,-0.523 0.494,-1.372 0.247,-2.067 z m -0.687,4.707 c -0.144,0 -0.3,-0.018 -0.445,-0.05 -0.595,-0.13 -1.085,-0.382 -1.506,-0.776 -0.362,-0.341 -0.647,-0.78 -0.836,-1.298 -0.458,-1.19 -0.528,-2.987 0.38,-4.121 0.279,-0.35 0.644,-0.605 1.065,-0.74 0.251,-0.079 0.515,-0.123 0.795,-0.123 0.303,0 0.627,0.049 0.952,0.142 0.685,0.189 1.168,0.57 1.504,1.01 0.278,0.353 0.415,0.735 0.489,1.288 0.121,1.098 -0.035,3.112 -0.981,4.134 -0.327,0.359 -0.796,0.534 -1.417,0.534 z m 3.942,2.169 c -0.636,-0.008 -1.873,-0.541 -1.881,-1.355 -0.006,-0.046 -0.019,-0.216 0.071,-0.318 0.039,-0.044 0.093,-0.066 0.154,-0.066 0.024,0 0.046,0.003 0.071,0.011 0.017,0.003 0.041,0.003 0.121,0.003 0.181,0 0.414,-0.035 0.5,-0.078 0.029,-0.022 0.191,-0.229 0.155,-2.083 -0.008,-0.64 -0.155,-2.537 -0.138,-2.645 0.038,-0.218 0.119,-0.371 0.246,-0.466 0.096,-0.075 0.183,-0.09 0.298,-0.09 l 0.129,0.002 c 0.544,0.006 0.803,0.656 0.803,0.656 0.458,1.058 0.586,5.321 -0.188,6.254 -0.1,0.117 -0.209,0.175 -0.341,0.175 z m 4.227,-1.636 c -0.131,-0.078 -0.807,-0.284 -1.316,-0.324 -0.213,-0.013 0.969,1.45 1.66,2.14 -0.02,-0.764 -0.341,-1.716 -0.344,-1.816 z m 1.563,0.313 c -0.064,-0.016 -0.122,-0.024 -0.226,-0.059 0.071,0.27 0.226,0.794 0.271,2.727 0.007,0.181 -0.457,0.624 -0.85,0.603 -0.348,-0.016 -1.678,-1.203 -2.363,-2.025 -1.126,-1.35 -2.019,-3.632 -0.565,-3.487 0.471,0.049 1.47,0.431 1.998,0.509 -0.007,-0.328 -0.386,-1.313 -0.419,-1.632 -0.104,-0.861 0.775,-0.44 0.963,-0.271 0.513,0.46 0.759,2.211 0.759,2.211 0,0 0.406,0.076 0.683,0.425 0.115,0.135 0.247,0.427 0.261,0.609 0.041,0.555 -0.261,0.446 -0.512,0.39 z m -12.207,-8.227 c -0.26,0 -0.458,-0.154 -0.924,-0.43 -0.429,-0.258 -0.781,-0.455 -1.034,-0.576 -0.423,-0.207 -0.845,-0.309 -1.272,-0.309 -0.277,0 -0.498,0.048 -0.633,0.087 0.584,0.705 3.045,3.851 2.339,6.502 -0.31,1.16 -1.354,1.852 -2.799,1.852 -0.305,0 -0.596,-0.031 -0.868,-0.099 -0.962,-0.232 -1.818,-0.736 -2.845,-1.691 -0.149,-0.138 -0.237,-0.272 -0.278,-0.405 -0.033,-0.124 -0.033,-0.253 0.011,-0.39 0.096,-0.276 0.313,-0.629 0.581,-0.764 0.073,-0.04 0.327,-0.076 0.372,-0.076 0.404,0 0.799,0.151 1.224,0.451 l 0.077,0.062 c 0.314,0.227 1.048,0.762 1.624,0.762 0.346,0 0.68,-0.169 0.811,-0.578 0.455,-1.429 -0.85,-2.78 -1.429,-3.421 0,0 -2.088,-1.802 -1.716,-2.649 0.156,-0.359 0.367,-0.554 0.65,-0.758 0.776,-0.594 2.025,-0.989 3.098,-0.989 0.121,0 0.239,0.006 0.351,0.021 2.089,0.174 3.069,0.914 3.286,2.465 0.086,0.613 -0.475,0.933 -0.626,0.933"
             style="fill:url(#radialGradient2516);stroke:none"
             id="path2522"
             inkscape:connector-curvature="0" />
        </g>
      </g>
    </g>
    <g
       transform="matrix(2.9011744,0,0,-2.9011744,-745.03057,1222.3964)"
       id="g2524">
      <g
         id="g2526">
        <g
           id="g2532">
          <path
             d="m 124.58,461.487 c 0.806,-2.745 -1.722,-5.913 -2.306,-6.618 0.074,-0.042 0.141,-0.066 0.233,-0.089 0.584,0.705 3.045,3.851 2.339,6.502 -0.162,0.609 -0.527,1.089 -1.048,1.407 -0.029,0.018 -0.057,0.034 -0.086,0.051 -0.006,0.004 -0.011,0.006 -0.015,0.01 0.419,-0.314 0.726,-0.733 0.883,-1.263"
             style="fill:url(#radialGradient2534);stroke:none"
             id="path2540"
             inkscape:connector-curvature="0" />
        </g>
      </g>
    </g>
    <g
       transform="matrix(2.9011744,0,0,-2.9011744,-745.03057,1222.3964)"
       id="g2542">
      <g
         id="g2544">
        <g
           id="g2550">
          <path
             d="m 127.555,458.674 c -0.173,0.511 -0.082,1.14 0.236,1.677 0.115,0.189 0.247,0.324 0.392,0.41 0.033,0.021 0.346,0.195 0.657,0.195 0.14,0 0.255,-0.036 0.349,-0.11 0,0 0,0 0.002,0 -0.177,0.173 -0.427,0.28 -0.61,0.28 -0.313,0 -0.626,-0.174 -0.657,-0.195 -0.148,-0.086 -0.277,-0.22 -0.394,-0.412 -0.318,-0.535 -0.408,-1.164 -0.236,-1.675 0.061,-0.166 0.143,-0.299 0.258,-0.408 0.074,-0.066 0.31,-0.236 0.406,-0.277 0,0 -0.001,0.002 -0.003,0.002 -0.052,0.031 -0.1,0.066 -0.142,0.106 -0.115,0.109 -0.198,0.242 -0.258,0.407"
             style="fill:url(#radialGradient2552);stroke:none"
             id="path2558"
             inkscape:connector-curvature="0" />
        </g>
      </g>
    </g>
    <g
       transform="matrix(2.9011744,0,0,-2.9011744,-745.03057,1222.3964)"
       id="g2560">
      <g
         id="g2562">
        <g
           id="g2568">
          <path
             d="m 137.099,465.907 c -0.689,-0.689 -1.652,-1.942 -1.73,-2.14 -0.082,-0.211 0.221,-0.187 0.329,-0.169 -0.213,-0.013 0.969,1.45 1.66,2.14 0.024,0.165 -0.161,0.264 -0.259,0.169"
             style="fill:url(#radialGradient2570);stroke:none"
             id="path2576"
             inkscape:connector-curvature="0" />
        </g>
      </g>
    </g>
    <g
       transform="matrix(2.9011744,0,0,-2.9011744,-745.03057,1222.3964)"
       id="g2578">
      <g
         id="g2580">
        <g
           id="g2586">
          <path
             d="m 121.678,461.19 c -0.575,0 -1.309,-0.535 -1.623,-0.761 l -0.077,-0.062 c -0.425,-0.3 -0.82,-0.452 -1.224,-0.452 -0.037,0 -0.24,0.025 -0.358,0.07 0.077,-0.084 0.162,-0.154 0.252,-0.2 0.073,-0.04 0.327,-0.076 0.372,-0.076 0.404,0 0.799,0.151 1.224,0.451 l 0.077,0.062 c 0.314,0.227 1.048,0.762 1.624,0.762 0.182,0 0.36,-0.047 0.507,-0.151 0.001,0 0.003,0 0.003,0 -0.309,0.306 -0.552,0.357 -0.777,0.357"
             style="fill:url(#radialGradient2588);stroke:none"
             id="path2594"
             inkscape:connector-curvature="0" />
        </g>
      </g>
    </g>
    <g
       transform="matrix(2.9011744,0,0,-2.9011744,-745.03057,1222.3964)"
       id="g2596">
      <g
         id="g2598">
        <g
           id="g2604">
          <path
             d="m 138.196,464.131 c 0.056,0.018 0.119,0.035 0.155,0.045 0.071,0.27 0.226,0.794 0.271,2.727 0.003,0.052 -0.034,0.124 -0.096,0.201 l -0.001,0.002 c 0,0 -0.256,-2.706 -0.329,-2.975"
             style="fill:url(#radialGradient2606);stroke:none"
             id="path2612"
             inkscape:connector-curvature="0" />
        </g>
      </g>
    </g>
    <g
       transform="matrix(2.9011744,0,0,-2.9011744,-745.03057,1222.3964)"
       id="g2614">
      <g
         id="g2616">
        <g
           id="g2622">
          <path
             d="m 134.586,462.163 c -0.144,-0.015 -0.266,10e-4 -0.367,0.03 0.117,-0.153 0.319,-0.229 0.625,-0.199 0.471,0.049 1.47,0.431 1.998,0.509 0.006,0.091 0.005,0.171 0.006,0.228 -0.526,-0.078 -1.79,-0.519 -2.262,-0.568"
             style="fill:url(#radialGradient2624);stroke:none"
             id="path2630"
             inkscape:connector-curvature="0" />
        </g>
      </g>
    </g>
    <g
       transform="matrix(2.9011744,0,0,-2.9011744,-745.03057,1222.3964)"
       id="g2632">
      <g
         id="g2634">
        <g
           id="g2640">
          <path
             d="m 138.814,464.281 c 0.017,-0.065 0.025,-0.15 0.017,-0.267 -0.014,-0.183 -0.145,-0.474 -0.262,-0.61 -0.278,-0.348 -0.681,-0.425 -0.681,-0.425 0,0 -0.247,-1.752 -0.761,-2.21 -0.103,-0.096 -0.427,-0.27 -0.671,-0.252 0.165,-0.361 0.776,-0.056 0.93,0.083 0.513,0.459 0.759,2.21 0.759,2.21 0,0 0.406,0.077 0.683,0.425 0.115,0.135 0.247,0.428 0.261,0.61 0.027,0.382 -0.107,0.45 -0.275,0.436"
             style="fill:url(#radialGradient2642);stroke:none"
             id="path2648"
             inkscape:connector-curvature="0" />
        </g>
      </g>
    </g>
    <g
       transform="matrix(2.9011744,0,0,-2.9011744,-745.03057,1222.3964)"
       id="g2650">
      <g
         id="g2652">
        <g
           id="g2658">
          <path
             d="m 129.828,463.183 c 0.063,-0.048 0.121,-0.1 0.174,-0.159 0.947,-1.022 1.101,-3.036 0.982,-4.133 -0.074,-0.554 -0.212,-0.936 -0.489,-1.289 -0.338,-0.441 -0.818,-0.821 -1.503,-1.009 -0.326,-0.092 -0.65,-0.141 -0.952,-0.141 -0.281,0 -0.545,0.043 -0.796,0.121 -0.141,0.045 -0.274,0.109 -0.405,0.181 0.2,-0.151 0.421,-0.272 0.661,-0.35 0.254,-0.078 0.516,-0.123 0.798,-0.123 0.3,0 0.627,0.051 0.952,0.142 0.685,0.19 1.165,0.57 1.502,1.01 0.277,0.353 0.416,0.735 0.491,1.289 0.12,1.098 -0.037,3.111 -0.981,4.133 -0.124,0.135 -0.268,0.245 -0.434,0.328"
             style="fill:url(#radialGradient2660);stroke:none"
             id="path2666"
             inkscape:connector-curvature="0" />
        </g>
      </g>
    </g>
    <g
       transform="matrix(2.9011744,0,0,-2.9011744,-745.03057,1222.3964)"
       id="g2668">
      <g
         id="g2670">
        <g
           id="g2676">
          <path
             d="m 123.71,452.61 c 2.089,0.174 3.069,0.914 3.286,2.465 0.071,0.513 -0.308,0.82 -0.523,0.907 0.167,-0.156 0.314,-0.403 0.268,-0.739 -0.217,-1.553 -1.197,-2.29 -3.286,-2.465 -0.112,-0.015 -0.231,-0.02 -0.351,-0.02 -0.913,0 -1.966,0.287 -2.732,0.739 0.78,-0.55 1.963,-0.908 2.987,-0.908 0.121,0 0.239,0.006 0.351,0.021"
             style="fill:url(#radialGradient2678);stroke:none"
             id="path2684"
             inkscape:connector-curvature="0" />
        </g>
      </g>
    </g>
    <g
       transform="matrix(2.9011744,0,0,-2.9011744,-745.03057,1222.3964)"
       id="g2686">
      <g
         id="g2688">
        <g
           id="g2694">
          <path
             d="m 132.872,465.549 c 0.771,-0.938 0.642,-5.193 0.187,-6.251 0,0 -0.261,-0.651 -0.805,-0.656 l -0.13,-0.003 c -0.049,0 -0.091,0.004 -0.132,0.013 0.029,-0.034 0.059,-0.066 0.094,-0.091 0.095,-0.074 0.183,-0.09 0.297,-0.09 l 0.13,0.002 c 0.543,0.005 0.803,0.656 0.803,0.656 0.458,1.059 0.586,5.322 -0.19,6.254 -0.076,0.091 -0.159,0.145 -0.254,0.166"
             style="fill:url(#radialGradient2696);stroke:none"
             id="path2702"
             inkscape:connector-curvature="0" />
        </g>
      </g>
    </g>
    <g
       transform="matrix(2.9011744,0,0,-2.9011744,-745.03057,1222.3964)"
       id="g2704">
      <g
         id="g2706">
        <g
           id="g2712">
          <path
             d="m 117.871,478.584 c -0.111,-0.245 -1.131,-1.909 -1.348,-3.072 -0.19,-0.993 -0.115,-2.155 0.118,-2.394 0.255,-0.315 0.927,-0.29 1.602,0.022 0.562,0.263 1.45,1.261 2.127,1.756 -0.458,-0.799 -4.661,-5.902 -3.52,-7.307 1.14,-1.388 3.888,1.006 6.383,3.927 -0.178,-0.39 -1.609,-1.857 -2.55,-4.077 -1.378,-3.249 0.872,-2.912 1.947,-2.342 1.27,0.682 2.741,2.481 3.655,3.643 -0.977,-2.056 -2.358,-4.314 -1.039,-4.516 1.988,-0.311 3.631,1.403 5.029,3.667 0.026,0.034 0.083,0.145 0.181,0.303 -0.382,-1.049 0.061,-1.508 1.322,-1.492 2.624,0.108 6.112,1.956 6.173,4.368 0.185,7.196 -5.912,15.752 -8.896,16.209 0,0 -0.384,0.142 -1.07,0.129 -1.818,-0.026 -5.738,-1.122 -10.114,-8.824 m 10.459,3.299 c -1.439,-3.632 -7.658,-6.499 -7.96,-6.987 1.555,2.998 4.192,5.973 7.96,6.987 m 2.723,-2.323 c -0.211,-0.645 -0.386,-2.016 -1.908,-4.068 -0.961,-1.296 -4.583,-2.816 -5.651,-3.67 0.173,0.275 1.468,5.302 7.559,7.738 z m 2.206,-2.605 c -0.442,-1.544 -1.022,-4.777 -6.963,-8.186 1.999,5.176 5.01,6.636 6.963,8.186 m 2.595,-1.847 c 0.1,-5.012 -4.556,-6.243 -5.255,-6.688 0.814,1.272 3.068,4.521 5.255,6.688"
             style="fill:url(#radialGradient2714);stroke:none"
             id="path2720"
             inkscape:connector-curvature="0" />
        </g>
      </g>
    </g>
    <g
       transform="matrix(2.9011744,0,0,-2.9011744,-745.03057,1222.3964)"
       id="g2722">
      <g
         id="g2724"
         clip-path="url(#clipPath2726)">
        <g
           id="g2730">
          <g
             id="g2736">
            <path
               d="m 157.977,492.215 -86.173,0 0,-117.1 86.173,0 0,117.1 z"
               style="fill:url(#radialGradient2738);stroke:none"
               id="path2744"
               inkscape:connector-curvature="0" />
          </g>
        </g>
      </g>
    </g>
    <g
       transform="matrix(2.9011744,0,0,-2.9011744,-745.03057,1222.3964)"
       id="g2746">
      <g
         id="g2748">
        <g
           id="g2754">
          <path
             d="m 106.588,404.99 c 0,0 0,0 0.002,-0.002 0.514,-0.035 0.951,-0.052 1.287,-0.06 -9.777,2.575 -3.833,15.494 -3.833,15.494 -0.08,-0.13 -0.16,-0.256 -0.239,-0.382 -0.952,-2.066 -5.091,-12.106 2.783,-15.05"
             style="fill:url(#radialGradient2756);stroke:none"
             id="path2762"
             inkscape:connector-curvature="0" />
        </g>
      </g>
    </g>
    <g
       transform="matrix(2.9011744,0,0,-2.9011744,-745.03057,1222.3964)"
       id="g2764">
      <g
         id="g2766">
        <g
           id="g2772">
          <path
             d="m 137.079,411.197 c 0,0 -15.037,-5.559 -21.417,9.972 -5.929,13.86 -10.627,20.01 -10.627,20.01 0,0 5.54,-9.115 10.106,-20.342 6.705,-16.479 21.938,-9.64 21.938,-9.64"
             style="fill:url(#radialGradient2774);stroke:none"
             id="path2780"
             inkscape:connector-curvature="0" />
        </g>
      </g>
    </g>
    <g
       transform="matrix(2.9011744,0,0,-2.9011744,-745.03057,1222.3964)"
       id="g2782">
      <g
         id="g2784">
        <g
           id="g2790">
          <path
             d="m 102.428,469.189 c 0.926,0.154 2.034,-0.294 2.67,-1.223 1.375,-2.007 2.909,-5.015 2.909,-5.015 -0.196,0.503 -0.401,0.999 -0.619,1.49 -0.838,1.876 -1.662,5.857 -4.858,4.785 -0.036,-0.012 -0.069,-0.024 -0.102,-0.037"
             style="fill:url(#radialGradient2792);stroke:none"
             id="path2798"
             inkscape:connector-curvature="0" />
        </g>
      </g>
    </g>
    <g
       transform="matrix(2.9011744,0,0,-2.9011744,-745.03057,1222.3964)"
       id="g2800">
      <g
         id="g2802">
        <g
           id="g2808">
          <path
             d="m 108.708,458.96 c 1.383,-6.149 5.051,-9.014 6.329,-10 -0.025,0.075 -0.128,0.383 -0.376,1.006 -1.165,0.932 -4.45,3.701 -5.953,8.994"
             style="fill:url(#radialGradient2810);stroke:none"
             id="path2816"
             inkscape:connector-curvature="0" />
        </g>
      </g>
    </g>
    <g
       transform="matrix(2.9011744,0,0,-2.9011744,-745.03057,1222.3964)"
       id="g2818">
      <g
         id="g2820">
        <g
           id="g2826">
          <path
             d="m 137.537,459.535 c 0.54,-0.102 0.704,-0.295 0.828,-0.526 -0.137,0.406 -0.488,0.631 -0.894,0.705 -4.884,-0.536 -8.249,-8.744 -13.298,-8.514 -2.182,0.027 -4.315,1.263 -5.261,2.311 -6.806,7.47 -5.165,16.234 -7.61,17.115 -0.201,0.069 -0.399,0.114 -0.592,0.141 2.997,-0.64 0.599,-9.344 8.134,-17.987 0.927,-1.063 3.081,-2.283 5.263,-2.311 5.373,-0.207 8.546,8.529 13.43,9.066"
             style="fill:url(#radialGradient2828);stroke:none"
             id="path2834"
             inkscape:connector-curvature="0" />
        </g>
      </g>
    </g>
    <g
       transform="matrix(2.9011744,0,0,-2.9011744,-745.03057,1222.3964)"
       id="g2836">
      <g
         id="g2838">
        <g
           id="g2844">
          <path
             d="m 125.699,434.195 c 0.907,7.641 4.091,13.122 6.695,16.505 -0.013,-0.015 -6.506,-7.633 -7.399,-17.024 -1.677,-17.617 10.67,-21.793 12.082,-21.862 0.25,0.027 -13.495,3.92 -11.378,22.381"
             style="fill:url(#radialGradient2846);stroke:none"
             id="path2852"
             inkscape:connector-curvature="0" />
        </g>
      </g>
    </g>
    <g
       transform="matrix(2.9011744,0,0,-2.9011744,-745.03057,1222.3964)"
       id="g2854">
      <g
         id="g2856">
        <g
           id="g2862">
          <path
             d="m 93.616,459.81 c -0.064,-0.049 -0.117,-0.112 -0.159,-0.188 1.273,0.476 3.695,-1.749 3.695,-1.749 -1.532,1.534 -2.834,2.476 -3.536,1.937"
             style="fill:url(#radialGradient2864);stroke:none"
             id="path2870"
             inkscape:connector-curvature="0" />
        </g>
      </g>
    </g>
    <g
       transform="matrix(2.9011744,0,0,-2.9011744,-745.03057,1222.3964)"
       id="g2872">
      <g
         id="g2874">
        <g
           id="g2880">
          <path
             d="m 106.735,446.709 c 0,0.161 -0.088,0.481 -0.185,0.635 -1.23,0.586 -5.645,1.784 -8.815,9.077 2.357,-6.848 7.608,-9.463 9,-9.712"
             style="fill:url(#radialGradient2882);stroke:none"
             id="path2888"
             inkscape:connector-curvature="0" />
        </g>
      </g>
    </g>
    <g
       transform="matrix(2.9011744,0,0,-2.9011744,-745.03057,1222.3964)"
       id="g2890">
      <g
         id="g2892">
        <g
           id="g2898">
          <path
             d="m 103.211,459.263 c 2.163,-7.576 5.533,-10.499 7.48,-11.831 0,0.201 -0.025,0.495 -0.043,0.708 -1.644,1.28 -5.328,4.221 -7.437,11.123"
             style="fill:url(#radialGradient2900);stroke:none"
             id="path2906"
             inkscape:connector-curvature="0" />
        </g>
      </g>
    </g>
    <g
       transform="matrix(2.9011744,0,0,-2.9011744,-745.03057,1222.3964)"
       id="g2908">
      <g
         id="g2910">
        <g
           id="g2916">
          <path
             d="m 96.596,465.187 c 0.526,0.058 1.086,-0.147 1.768,-0.561 1.517,-0.916 3.393,-2.763 4.565,-4.377 -1.174,1.614 -2.379,3.562 -3.928,4.575 -0.937,0.617 -1.769,0.659 -2.405,0.363"
             style="fill:url(#radialGradient2918);stroke:none"
             id="path2924"
             inkscape:connector-curvature="0" />
        </g>
      </g>
    </g>
    <g
       transform="matrix(2.9011744,0,0,-2.9011744,-745.03057,1222.3964)"
       id="g2926">
      <g
         id="g2928">
        <g
           id="g2934">
          <path
             d="m 116.444,473.784 c 0.035,-0.324 0.104,-0.57 0.197,-0.666 0.255,-0.315 0.927,-0.29 1.602,0.022 0.562,0.263 1.45,1.261 2.127,1.756 -0.677,-0.492 -1.638,-1.083 -2.241,-1.24 -1.381,-0.36 -1.655,0.04 -1.685,0.128"
             style="fill:url(#radialGradient2936);stroke:none"
             id="path2942"
             inkscape:connector-curvature="0" />
        </g>
      </g>
    </g>
    <g
       transform="matrix(2.9011744,0,0,-2.9011744,-745.03057,1222.3964)"
       id="g2944">
      <g
         id="g2946">
        <g
           id="g2952">
          <path
             d="m 120.93,475.894 c 1.596,2.638 4.053,5.088 7.4,5.989 0.02,0.048 0.111,0.261 0.196,0.472 -5.081,-0.854 -7.596,-6.461 -7.596,-6.461"
             style="fill:url(#radialGradient2954);stroke:none"
             id="path2960"
             inkscape:connector-curvature="0" />
        </g>
      </g>
    </g>
    <g
       transform="matrix(2.9011744,0,0,-2.9011744,-745.03057,1222.3964)"
       id="g2962">
      <g
         id="g2964">
        <g
           id="g2970">
          <path
             d="m 135.799,475.674 c -3.319,-3.357 -5.2,-7.254 -5.2,-7.254 0.814,1.272 3.068,4.521 5.255,6.688 0,0.203 -0.018,0.35 -0.055,0.566"
             style="fill:url(#radialGradient2972);stroke:none"
             id="path2978"
             inkscape:connector-curvature="0" />
        </g>
      </g>
    </g>
    <g
       transform="matrix(2.9011744,0,0,-2.9011744,-745.03057,1222.3964)"
       id="g2980">
      <g
         id="g2982">
        <g
           id="g2988">
          <path
             d="m 125.147,464.702 c -0.192,0.066 -0.373,0.134 -0.436,0.303 -0.039,-0.428 0.103,-0.715 0.535,-0.781 1.988,-0.311 3.631,1.403 5.029,3.667 0.026,0.034 0.083,0.145 0.181,0.303 0,0 -3.046,-4.252 -5.309,-3.492"
             style="fill:url(#radialGradient2990);stroke:none"
             id="path2996"
             inkscape:connector-curvature="0" />
        </g>
      </g>
    </g>
    <g
       transform="matrix(2.9011744,0,0,-2.9011744,-745.03057,1222.3964)"
       id="g2998">
      <g
         id="g3000">
        <g
           id="g3006">
          <path
             d="m 137.875,471.568 c -0.06,-2.414 -3.548,-4.26 -6.174,-4.369 -0.707,-0.009 -1.261,0.098 -1.374,0.441 -0.046,-0.658 0.439,-0.951 1.451,-0.938 2.624,0.108 6.112,1.956 6.173,4.368 0.013,0.533 -0.006,1.073 -0.058,1.616 0.018,-0.308 -0.003,-0.545 -0.018,-1.118"
             style="fill:url(#radialGradient3008);stroke:none"
             id="path3014"
             inkscape:connector-curvature="0" />
        </g>
      </g>
    </g>
    <g
       transform="matrix(2.9011744,0,0,-2.9011744,-745.03057,1222.3964)"
       id="g3016">
      <g
         id="g3018">
        <g
           id="g3024">
          <path
             d="m 126.296,468.769 c 1.999,5.176 5.01,6.636 6.963,8.186 0.041,0.169 0.042,0.193 0.071,0.513 -4.552,-2.235 -6.869,-7.673 -7.034,-8.699"
             style="fill:url(#radialGradient3026);stroke:none"
             id="path3032"
             inkscape:connector-curvature="0" />
        </g>
      </g>
    </g>
    <g
       transform="matrix(2.9011744,0,0,-2.9011744,-745.03057,1222.3964)"
       id="g3034">
      <g
         id="g3036">
        <g
           id="g3042">
          <path
             d="m 125.886,468.239 c -0.048,-0.054 -1.86,-2.104 -3.312,-2.724 -0.732,-0.313 -1.958,-0.563 -2.324,0.2 0.036,-1.356 1.555,-1.056 2.38,-0.618 1.098,0.589 2.347,2.016 3.256,3.142"
             style="fill:url(#radialGradient3044);stroke:none"
             id="path3050"
             inkscape:connector-curvature="0" />
        </g>
      </g>
    </g>
    <g
       transform="matrix(2.9011744,0,0,-2.9011744,-745.03057,1222.3964)"
       id="g3052">
      <g
         id="g3054">
        <g
           id="g3060">
          <path
             d="m 123.867,472.746 c 0.702,1.623 2.564,4.965 7.186,6.814 0.072,0.264 0.1,0.491 0.157,0.658 -5.446,-1.693 -7.266,-7.231 -7.343,-7.472"
             style="fill:url(#radialGradient3062);stroke:none"
             id="path3068"
             inkscape:connector-curvature="0" />
        </g>
      </g>
    </g>
    <g
       transform="matrix(2.9011744,0,0,-2.9011744,-745.03057,1222.3964)"
       id="g3070">
      <g
         id="g3072">
        <g
           id="g3078">
          <path
             d="m 116.74,468.116 c -0.033,0.041 -0.06,0.085 -0.085,0.132 -0.003,-0.264 0.057,-0.489 0.195,-0.659 1.14,-1.388 3.888,1.006 6.383,3.927 -3.164,-2.803 -5.318,-4.827 -6.493,-3.4"
             style="fill:url(#radialGradient3080);stroke:none"
             id="path3086"
             inkscape:connector-curvature="0" />
        </g>
      </g>
    </g>
    <g
       transform="matrix(2.9011744,0,0,-2.9011744,-745.03057,1222.3964)"
       id="g3088">
      <g
         id="g3090">
        <g
           id="g3096">
          <path
             d="m 98.323,472.261 c 3.615,2.074 7.796,1.782 11.105,1.48 3.081,-0.286 5.395,-0.578 5.779,1.022 -0.343,-1.069 -1.914,-1.186 -6.296,-0.599 -3.291,0.441 -7.585,0.687 -11.199,-1.389 -4.091,-2.75 -3.425,-7.225 -3.673,-8.851 -0.273,-1.79 -0.208,-2.662 -0.981,-3.001 -0.425,-0.146 -0.879,-0.176 -1.151,0.2 0.322,-0.464 0.749,-0.615 1.516,-0.353 0.773,0.428 0.765,1.878 0.905,2.507 0.705,3.162 -0.095,6.235 3.995,8.984"
             style="fill:url(#radialGradient3098);stroke:none"
             id="path3104"
             inkscape:connector-curvature="0" />
        </g>
      </g>
    </g>
    <g
       transform="matrix(2.9011744,0,0,-2.9011744,-745.03057,1222.3964)"
       id="g3106">
      <g
         id="g3108">
        <g
           id="g3114">
          <path
             d="m 118.945,487.87 c -7.788,2.982 -12.532,1.3 -14.05,0.538 2.127,0.466 6.987,1.394 13.385,-0.532 0.245,0.009 0.459,0.01 0.665,-0.006"
             style="fill:url(#radialGradient3116);stroke:none"
             id="path3122"
             inkscape:connector-curvature="0" />
        </g>
      </g>
    </g>
    <g
       transform="matrix(2.9011744,0,0,-2.9011744,-745.03057,1222.3964)"
       id="g3124">
      <g
         id="g3126">
        <g
           id="g3132">
          <path
             d="m 126.3,489.076 0,-0.001 c 0.238,-0.287 0.372,-0.583 0.388,-0.884 0.074,-1.322 -5.177,-0.752 -6.896,-0.549 0.199,-0.121 0.384,-0.255 0.557,-0.398 2.328,-0.336 5.269,-0.876 6.301,0.263 0.321,0.353 0.118,1.014 -0.35,1.569"
             style="fill:url(#radialGradient3134);stroke:none"
             id="path3140"
             inkscape:connector-curvature="0" />
        </g>
      </g>
    </g>
    <g
       transform="matrix(2.9011744,0,0,-2.9011744,-745.03057,1222.3964)"
       id="g3142">
      <g
         id="g3144">
        <g
           id="g3150">
          <path
             d="m 100.657,485.59 c 2.165,0.244 7.062,0.74 14.331,-2.386 -1.308,0.767 -3.909,2.286 -7.744,2.736 -4.338,0.51 -6.115,-0.086 -6.588,-0.35 l 0.002,0 -0.001,0"
             style="fill:url(#radialGradient3152);stroke:none"
             id="path3158"
             inkscape:connector-curvature="0" />
        </g>
      </g>
    </g>
    <g
       transform="matrix(2.9011744,0,0,-2.9011744,-745.03057,1222.3964)"
       id="g3160">
      <g
         id="g3162">
        <g
           id="g3168">
          <path
             d="m 115.561,482.994 c 2.355,-0.402 6.011,-0.08 6.246,1.924 -0.117,-1.132 -2.341,-1.756 -6.685,-1.756 0.107,-0.038 0.351,-0.129 0.439,-0.168"
             style="fill:url(#radialGradient3170);stroke:none"
             id="path3176"
             inkscape:connector-curvature="0" />
        </g>
      </g>
    </g>
    <g
       transform="matrix(2.9011744,0,0,-2.9011744,-745.03057,1222.3964)"
       id="g3178">
      <g
         id="g3180">
        <g
           id="g3186">
          <path
             d="m 104.235,481.342 c -3.847,0.412 -6.064,-0.439 -7.159,-1.043 1.102,0.453 3.8,0.892 7.116,0.471 2.295,-0.292 5.114,-0.93 7.044,-2.621 -1.354,1.798 -4.712,2.947 -7.001,3.193"
             style="fill:url(#radialGradient3188);stroke:none"
             id="path3194"
             inkscape:connector-curvature="0" />
        </g>
      </g>
    </g>
    <g
       transform="matrix(2.9011744,0,0,-2.9011744,-745.03057,1222.3964)"
       id="g3196">
      <g
         id="g3198">
        <g
           id="g3204">
          <path
             d="m 111.842,477.923 c 2.194,-0.181 6.026,-0.279 6.026,2.4 0,-1.433 -2.603,-2.354 -6.615,-2.174 0.19,-0.097 0.589,-0.226 0.589,-0.226"
             style="fill:url(#radialGradient3206);stroke:none"
             id="path3212"
             inkscape:connector-curvature="0" />
        </g>
      </g>
    </g>
    <g
       id="g3214"
       transform="matrix(2.9011744,0,0,-2.9011744,-469.33196,16.569669)">
      <path
         d="m 0,0 0.247,0.159 c 0.041,0.027 0.082,0.056 0.114,0.086 0.033,0.024 0.06,0.056 0.08,0.086 0.017,0.037 0.025,0.072 0.021,0.11 0,0.043 -0.019,0.089 -0.052,0.14 C 0.38,0.623 0.348,0.651 0.313,0.667 0.277,0.681 0.239,0.686 0.199,0.681 0.16,0.675 0.119,0.664 0.081,0.647 0.044,0.627 0.005,0.607 -0.033,0.584 L -0.282,0.421 0,0 Z m -0.704,0.451 0.559,0.361 C 0.04,0.929 0.199,0.983 0.34,0.979 0.476,0.976 0.598,0.896 0.705,0.737 0.79,0.611 0.82,0.491 0.792,0.385 0.765,0.278 0.694,0.179 0.576,0.089 L 1.415,-0.3 1.127,-0.487 0.313,-0.099 0.14,-0.21 0.57,-0.85 0.288,-1.03 -0.704,0.451 Z m 1.716,-1.466 c 0.142,0.09 0.255,0.203 0.341,0.332 0.089,0.126 0.146,0.269 0.173,0.426 C 1.552,-0.102 1.549,0.051 1.518,0.215 1.483,0.377 1.415,0.535 1.313,0.686 1.213,0.839 1.091,0.962 0.951,1.06 0.814,1.151 0.666,1.216 0.513,1.253 0.358,1.286 0.206,1.291 0.049,1.267 -0.108,1.237 -0.258,1.178 -0.398,1.089 -0.537,0.999 -0.65,0.888 -0.738,0.758 -0.826,0.627 -0.881,0.486 -0.908,0.331 -0.938,0.183 -0.936,0.024 -0.901,-0.14 c 0.034,-0.16 0.1,-0.323 0.2,-0.472 0.106,-0.149 0.227,-0.275 0.365,-0.368 0.141,-0.098 0.284,-0.163 0.439,-0.195 0.153,-0.037 0.31,-0.043 0.467,-0.016 0.157,0.029 0.302,0.086 0.442,0.176 z m 0.17,-0.253 C 0.998,-1.385 0.802,-1.46 0.595,-1.499 0.388,-1.534 0.185,-1.533 -0.012,-1.49 c -0.201,0.038 -0.391,0.118 -0.564,0.227 -0.174,0.115 -0.325,0.26 -0.445,0.44 -0.121,0.182 -0.201,0.374 -0.236,0.58 -0.035,0.201 -0.033,0.399 0.008,0.597 0.041,0.195 0.118,0.38 0.234,0.552 0.114,0.172 0.265,0.316 0.45,0.437 0.184,0.116 0.381,0.194 0.584,0.23 C 0.226,1.608 0.43,1.606 0.631,1.565 0.831,1.525 1.017,1.447 1.193,1.337 1.368,1.222 1.518,1.076 1.64,0.896 1.758,0.713 1.837,0.522 1.874,0.321 1.909,0.116 1.909,-0.081 1.865,-0.277 1.824,-0.476 1.747,-0.659 1.632,-0.83 1.518,-1.006 1.367,-1.148 1.182,-1.268"
         style="fill:#231f20;fill-opacity:1;fill-rule:nonzero;stroke:none"
         id="path3216"
         inkscape:connector-curvature="0" />
    </g>
    <g
       id="g3218"
       transform="matrix(2.9011744,0,0,-2.9011744,-457.48647,10.36986)">
      <path
         d="m 0,0 c 0.09,-0.199 0.108,-0.386 0.053,-0.555 -0.05,-0.177 -0.157,-0.315 -0.315,-0.417 -0.116,-0.073 -0.23,-0.12 -0.355,-0.139 -0.118,-0.02 -0.235,-0.016 -0.348,0.014 -0.111,0.028 -0.22,0.08 -0.321,0.152 -0.099,0.075 -0.187,0.169 -0.263,0.277 -0.074,0.118 -0.129,0.234 -0.159,0.348 -0.035,0.121 -0.039,0.235 -0.022,0.345 0.013,0.112 0.057,0.214 0.122,0.317 0.067,0.1 0.157,0.189 0.274,0.264 0.081,0.052 0.169,0.091 0.258,0.113 0.089,0.025 0.177,0.031 0.264,0.025 C -0.721,0.73 -0.636,0.706 -0.554,0.663 -0.468,0.621 -0.389,0.559 -0.318,0.48 L -0.59,0.311 C -0.671,0.385 -0.761,0.428 -0.864,0.434 -0.965,0.444 -1.064,0.414 -1.159,0.358 -1.239,0.303 -1.297,0.249 -1.338,0.184 -1.375,0.118 -1.401,0.05 -1.409,-0.023 c -0.006,-0.071 0,-0.148 0.024,-0.226 0.025,-0.078 0.06,-0.153 0.113,-0.228 0.052,-0.078 0.113,-0.147 0.179,-0.198 0.066,-0.05 0.136,-0.087 0.211,-0.109 0.07,-0.022 0.147,-0.032 0.224,-0.02 0.079,0.011 0.156,0.037 0.23,0.086 0.097,0.063 0.165,0.145 0.195,0.243 0.03,0.097 0.019,0.199 -0.036,0.304 L 0,0 Z m -1.833,-0.848 c 0.103,-0.151 0.223,-0.276 0.362,-0.369 0.138,-0.094 0.286,-0.161 0.44,-0.198 0.155,-0.033 0.31,-0.036 0.463,-0.009 0.157,0.027 0.306,0.083 0.446,0.171 0.141,0.092 0.256,0.205 0.341,0.335 0.085,0.129 0.143,0.27 0.172,0.421 0.029,0.154 0.023,0.31 -0.009,0.476 C 0.348,0.143 0.282,0.301 0.178,0.452 0.077,0.606 -0.041,0.725 -0.182,0.82 -0.321,0.916 -0.468,0.98 -0.623,1.015 -0.775,1.052 -0.932,1.056 -1.089,1.03 -1.245,1.002 -1.393,0.943 -1.53,0.853 -1.673,0.762 -1.785,0.654 -1.87,0.52 -1.964,0.394 -2.016,0.253 -2.043,0.098 c -0.032,-0.152 -0.029,-0.309 0.007,-0.473 0.034,-0.162 0.103,-0.32 0.203,-0.473 z m -0.325,-0.205 c -0.118,0.178 -0.199,0.371 -0.235,0.573 -0.037,0.202 -0.034,0.403 0.009,0.598 0.041,0.198 0.12,0.378 0.231,0.552 0.117,0.173 0.268,0.32 0.451,0.435 0.186,0.12 0.38,0.198 0.586,0.233 0.21,0.036 0.41,0.03 0.614,-0.008 C -0.304,1.29 -0.115,1.213 0.056,1.101 0.232,0.99 0.382,0.843 0.502,0.66 0.625,0.48 0.703,0.288 0.739,0.086 0.773,-0.121 0.771,-0.32 0.729,-0.516 0.692,-0.709 0.611,-0.894 0.498,-1.064 0.382,-1.238 0.232,-1.385 0.047,-1.502 -0.136,-1.62 -0.331,-1.7 -0.537,-1.733 c -0.209,-0.035 -0.415,-0.033 -0.612,0.006 -0.2,0.041 -0.387,0.119 -0.562,0.228 -0.176,0.114 -0.325,0.263 -0.447,0.446"
         style="fill:#231f20;fill-opacity:1;fill-rule:nonzero;stroke:none"
         id="path3220"
         inkscape:connector-curvature="0" />
    </g>
  </g>
</svg>
