<?xml version="1.0" encoding="UTF-8" standalone="no"?>
<svg
   xmlns:dc="http://purl.org/dc/elements/1.1/"
   xmlns:cc="http://creativecommons.org/ns#"
   xmlns:rdf="http://www.w3.org/1999/02/22-rdf-syntax-ns#"
   xmlns:svg="http://www.w3.org/2000/svg"
   xmlns="http://www.w3.org/2000/svg"
   xmlns:sodipodi="http://sodipodi.sourceforge.net/DTD/sodipodi-0.dtd"
   xmlns:inkscape="http://www.inkscape.org/namespaces/inkscape"
   version="1.1"
   width="237.99245"
   height="252"
   id="svg91"
   viewBox="0 0 237.99245 252"
   sodipodi:docname="fk-akademija-pandev-strumica.svg"
   inkscape:version="0.92.4 (5da689c313, 2019-01-14)">
  <metadata
     id="metadata97">
    <rdf:RDF>
      <cc:Work
         rdf:about="">
        <dc:format>image/svg+xml</dc:format>
        <dc:type
           rdf:resource="http://purl.org/dc/dcmitype/StillImage" />
        <dc:title></dc:title>
      </cc:Work>
    </rdf:RDF>
  </metadata>
  <defs
     id="defs95" />
  <sodipodi:namedview
     pagecolor="#ffffff"
     bordercolor="#666666"
     borderopacity="1"
     objecttolerance="10"
     gridtolerance="10"
     guidetolerance="10"
     inkscape:pageopacity="0"
     inkscape:pageshadow="2"
     inkscape:window-width="1366"
     inkscape:window-height="705"
     id="namedview93"
     showgrid="false"
     fit-margin-top="1"
     fit-margin-right="1"
     fit-margin-bottom="1"
     fit-margin-left="1"
     inkscape:zoom="0.56064347"
     inkscape:cx="179.95328"
     inkscape:cy="387.38756"
     inkscape:window-x="-8"
     inkscape:window-y="-8"
     inkscape:window-maximized="1"
     inkscape:current-layer="svg91" />
  <g
     id="Layer1000"
     transform="matrix(0.44097225,0,0,0.44097225,-12.254143,-59.624997)">
    <path
       d="m 60.5477,137.4803 c 67.5851,24.1052 157.2434,45.8547 231.723,46.8782 85.6033,1.1766 177.0243,-21.64 247.2505,-46.2079 1.9622,6.1422 3.9157,13.0777 5.8192,20.6158 5.295,-1.2196 10.5924,-2.4736 15.8928,-3.7662 v 93.6312 c 3.5427,31.221 5.0722,62.5605 3.1512,87.9334 -7.3282,96.7936 -44.7249,176.7727 -96.6812,239.4726 C 419.7778,633.8726 354.3509,683.368 298.2538,704.4094 234.0304,677.7064 174.346,630.6248 130.0443,578.4342 69.9896,507.6856 33.9888,420.3346 30.2718,322.2337 c -0.878,-23.1771 0.9471,-49.6201 5.1821,-77.8403 v -88.0527 c 6.032,1.5513 12.068,3.0399 18.1067,4.4777 2.3513,-8.4925 4.7277,-16.4599 6.9871,-23.3381 z"
       style="fill:#005891;fill-rule:evenodd"
       id="path2"
       inkscape:connector-curvature="0" />
    <path
       d="m 298.5343,684.9673 c 57.8723,-23.576 116.9535,-74.1901 156.2664,-121.6323 54.7949,-66.1252 86.053,-142.3526 92.5401,-228.0353 1.3288,-17.5517 1.1136,-35.9633 -0.0235,-54.1283 -9.4422,2.3201 -19.0038,4.4998 -28.6588,6.5427 v 141.8697 c -5.0675,14.936 -11.0449,29.5242 -17.8986,43.7393 V 291.3255 c -8.9409,1.7162 -17.9498,3.3171 -27.0087,4.8034 v 224.6267 c -5.6281,8.5039 -11.5974,16.8442 -17.8985,25.015 V 298.9068 c -8.9714,1.315 -17.9793,2.5208 -27.0087,3.6157 V 577.516 c -5.6757,6.0628 -11.6226,12.0867 -17.7997,18.0128 V 304.5356 c -38.2305,4.0189 -76.6315,6.0896 -113.9367,6.2609 -36.2086,0.1662 -73.9649,-1.7243 -111.1142,-5.347 v 289.3588 c -6.0766,-5.8356 -11.9752,-11.8046 -17.6811,-17.8744 v -273.344 c -9.0712,-1.0239 -18.0842,-2.1496 -27.0087,-3.3721 v 245.407 c -6.3084,-8.0243 -12.2761,-16.2038 -17.8985,-24.5341 V 297.6192 c -9.1346,-1.4038 -18.1496,-2.9086 -27.0087,-4.5088 V 474.5638 C 89.5373,460.6007 83.5633,446.2769 78.4979,431.6063 V 289.7031 c -10.506,-2.1039 -20.7458,-4.3436 -30.6529,-6.7106 -0.9655,12.9906 -1.3087,25.9383 -0.8288,38.6068 3.4736,91.6815 36.4576,174.0669 95.8029,243.9804 41.4805,48.8675 96.564,93.4255 155.7152,119.3876 z"
       style="fill:#a58647;fill-rule:evenodd"
       id="path4"
       inkscape:connector-curvature="0" />
    <g
       id="Layer1001">
      <path
         d="m 525.361,286.2704 v 121.4275 c 6.4694,-23.6279 10.7228,-48.0601 12.6267,-73.2078 1.2678,-16.7454 0.6515,-33.8923 -0.6659,-50.9265 -3.9689,0.9259 -7.9556,1.8284 -11.9608,2.7068 z"
         style="fill:#ffffff;fill-rule:evenodd"
         id="path6"
         inkscape:connector-curvature="0" />
      <path
         d="m 480.4538,295.0059 v 215.2843 c 4.8165,-7.7753 9.3521,-15.6814 13.6036,-23.7124 V 292.5873 c -4.5193,0.8351 -9.0546,1.6414 -13.6036,2.4186 z"
         style="fill:#ffffff;fill-rule:evenodd"
         id="path8"
         inkscape:connector-curvature="0" />
      <path
         d="m 435.5466,301.6877 v 268.5104 c 3.6911,-4.1207 7.2505,-8.2488 10.6614,-12.3652 0.989,-1.1934 1.9679,-2.3918 2.9421,-3.5926 V 299.8689 c -4.5266,0.6348 -9.0622,1.24 -13.6035,1.8188 z"
         style="fill:#ffffff;fill-rule:evenodd"
         id="path10"
         inkscape:connector-curvature="0" />
      <path
         d="m 71.7953,288.3345 v 121.7807 c -7.9318,-28.4457 -12.5603,-58.116 -13.7276,-88.9217 -0.446,-11.7835 -0.1638,-23.777 0.6569,-35.6815 4.303,0.9645 8.6624,1.9052 13.0707,2.8225 z"
         style="fill:#ffffff;fill-rule:evenodd"
         id="path12"
         inkscape:connector-curvature="0" />
      <path
         d="m 116.7025,296.5662 v 214.2632 c -4.8185,-7.6279 -9.3571,-15.376 -13.6032,-23.2459 V 294.2978 c 4.4988,0.7811 9.0351,1.5369 13.6032,2.2684 z"
         style="fill:#ffffff;fill-rule:evenodd"
         id="path14"
         inkscape:connector-curvature="0" />
      <path
         d="m 161.6098,302.8134 v 266.8462 c -3.3905,-3.7545 -6.7076,-7.5414 -9.9447,-11.3549 -1.2326,-1.4521 -2.4491,-2.9112 -3.6586,-4.3741 v -252.815 c 4.5156,0.5908 9.0509,1.1572 13.6033,1.6978 z"
         style="fill:#ffffff;fill-rule:evenodd"
         id="path16"
         inkscape:connector-curvature="0" />
      <path
         d="m 404.3417,305.2206 v 296.6167 c -31.7259,29.2902 -68.7908,55.5884 -105.667,71.4454 -38.2546,-17.426 -74.3346,-42.9052 -105.9787,-72.1592 V 306.0836 c 34.9787,3.2078 70.3786,4.869 104.4116,4.7129 35.1255,-0.1612 71.2226,-2.0064 107.2341,-5.5759 z"
         style="fill:#ffffff;fill-rule:evenodd"
         id="path18"
         inkscape:connector-curvature="0" />
    </g>
    <path
       d="m 290.59,338.0535 c -0.7061,2.0289 -0.2795,7.3068 -0.2925,9.5217 -1.8044,0.5285 -0.8714,1.7138 -0.0305,4.0456 0.3354,0.9304 0.2788,1.9853 0.623,2.9157 0.5741,1.5516 1.3311,2.3928 2.801,2.0328 0.4521,1.7454 0.9772,4.1379 1.3911,5.0411 -3.6844,2.3884 -5.542,2.502 -8.3658,3.62 -3.6308,1.4377 -6.8712,2.9753 -7.9851,4.5179 -0.4032,0.3861 -0.3298,2.4069 -0.6237,3.1368 -0.2286,0.5677 -0.5489,0.8636 -0.693,1.7685 -0.2216,1.3921 -0.0265,3.6351 -0.2413,5.1656 -0.1472,1.0466 -0.6348,1.613 -0.995,1.9317 1.0043,1.4394 2.2963,2.2266 2.368,2.8345 0.0948,0.8064 0.8338,1.3633 0.869,2.0276 0.0275,0.5167 -0.6257,1.1732 -0.687,1.5898 -0.0845,0.5711 0.1263,1.0191 -0.126,1.5905 -1.109,2.5095 -10.0727,8.891 -13.3475,11.2657 -4.6315,0.2249 -17.2401,4.5735 -19.7478,7.5294 l 0.5918,1.5375 c -1.4099,2.2548 -6.9549,9.7911 -6.5742,12.1913 0.5633,3.5534 2.1508,8.2348 2.4883,9.0485 1.2648,1.4019 3.2471,2.8131 4.3084,3.296 1.2993,0.3026 2.4776,0.5768 4.0993,0.554 1.1401,-0.0161 0.5369,-1.5292 -0.5154,-1.9843 -1.0503,-0.4545 -1.7259,-0.7702 -2.2876,-1.1793 -0.7219,-0.5265 -0.9662,-1.0581 -1.1733,-1.6988 0.2165,-1.8566 1.6468,-4.0524 2.8184,-6.15 0.4069,-0.7279 0.8241,-1.3639 1.0919,-2.0804 0.445,-1.1908 0.2399,-3.0906 0.5194,-4.0873 0.4146,-1.4782 1.2377,-3.3275 1.5534,-3.0165 1.2808,1.2628 2.1572,2.3503 3.9568,3.3899 1.2216,0.1705 3.5196,0.1333 4.8705,-0.0818 1.3505,-0.2148 1.7554,-0.6093 3.6334,-1.1518 3.9994,-1.1559 4.9398,-3.4602 13.4293,-4.8866 0.3465,1.1549 0.441,2.6345 0.3334,4.3624 -0.1367,2.1991 -2.7319,5.1741 -3.4246,8.0257 -0.3506,1.444 -0.3717,2.8563 -0.7916,4.4016 -0.6029,2.2178 -2.7584,6.7515 -4.5819,9.5488 0.9196,1.3696 2.6737,1.7162 2.5798,2.5201 -0.0593,0.5098 -0.0777,1.9079 -0.5781,1.979 -1.1799,0.1672 -2.9089,1.1609 -3.5389,3.1512 -0.3372,1.065 -1.2373,2.4119 -1.557,3.4773 -0.426,1.4199 0.1789,4.3925 -0.2132,5.7411 -0.1478,0.5077 -0.76,0.814 -0.9092,1.2879 -0.2202,0.6997 -0.2768,1.433 -0.3633,2.0955 -0.2235,1.7159 -1.6481,1.6844 -1.9474,2.5091 -0.3341,0.9213 1.0004,1.1204 0.5908,2.6472 -0.1893,0.7055 -0.9943,0.6364 -0.939,2.17 0.0292,0.808 -0.9042,1.9022 -1.0107,2.4132 -0.2303,1.1019 -2.9626,2.1378 -3.1938,3.2498 -0.1495,0.7205 0.3549,1.0754 0.2084,1.798 -0.2764,1.3646 -3.5158,4.679 -3.7899,6.042 -0.1522,0.7577 -0.4297,2.374 -0.6958,3.0989 -3.0721,8.3665 -6.236,15.8228 -8.462,20.7633 -0.6571,1.4588 -0.2061,5.6904 -0.7697,7.2002 -1.243,3.3288 -2.4713,6.7042 -3.6151,10.1896 -2.6063,1.75 -5.486,5.098 -5.907,7.4864 -1.688,9.5723 -1.9786,21.8715 -6.9261,33.1131 -0.8435,1.9166 0.7839,3.495 2.8121,4.0326 -0.3914,2.0342 -1.0459,5.3285 -1.5788,6.9877 -0.2104,0.6552 -6.5035,-0.3398 -8.0762,0.2789 -0.6324,0.2486 -1.0219,0.9812 -1.7524,1.6307 1.5231,0.5288 1.7597,0.7236 3.9897,1.4873 -0.2095,1.1398 0.1099,2.0946 -0.5801,2.2031 -3.0078,0.4732 -8.7583,-0.1555 -12.2128,0.5607 -2.0486,0.4246 -2.9682,1.7373 -2.7615,2.9863 0.3694,2.227 3.6684,4.7897 5.3618,5.592 6.0524,2.868 12.8659,4.2605 18.9421,4.7753 3.4086,0.2888 6.3336,-0.9756 6.6205,-1.7672 0.3773,-1.0399 -0.4364,-2.181 -0.31,-3.3402 0.1263,-1.1596 1.1937,-2.3392 0.8944,-3.4575 -0.3589,-1.3419 -2.0355,-2.481 -1.5834,-3.7216 0.3589,-0.9853 0.7346,-0.6096 0.9983,-1.4247 0.2638,-0.815 0.4159,-2.8214 0.6981,-3.7447 0.13,-0.4256 0.445,-0.9675 0.5727,-1.4481 0.2276,-0.8539 0.3633,-2.6411 0.5935,-3.4947 0.2128,-0.7876 0.7092,-1.0188 0.935,-1.7996 0.25,-0.8637 -0.2041,-2.546 0.1331,-3.3644 1.8851,-2.926 2.3901,-5.7646 2.9438,-8.5485 0.4041,-2.0315 0.8348,-4.1338 1.8465,-6.534 0.938,-2.2259 3.6476,-4.3798 4.86,-6.8882 1.1385,-2.3556 1.6345,-4.9693 1.8516,-7.5813 0.1535,-1.8445 -0.0519,-3.493 0.6991,-4.0359 1.3566,-0.9813 0.3998,-4.3597 0.8104,-6.2492 0.1363,-0.6294 0.9098,-0.435 1.0244,-1.0747 0.1793,-1.0011 0.0232,-2.1609 0.3234,-3.0464 0.6854,-2.0184 2.4833,-2.871 3.235,-4.8945 1.242,-3.3436 2.739,-6.476 4.7103,-9.028 3.9602,-5.1278 9.1899,-8.6005 12.8284,-12.6515 1.8499,1.3566 1.9404,1.7852 3.7903,3.1418 1.7038,-1.5968 3.2601,-4.0034 4.7853,-6.6958 0.506,-0.8938 2.0282,-2.8402 2.5315,-3.7776 0.6897,-1.2832 1.0024,-3.5098 1.4873,-4.5708 0.6237,-1.3647 1.0158,-1.8888 1.4619,-2.3436 0.2587,-0.2634 1.9343,0.0952 1.943,0.4638 0.0533,2.2682 0.2611,4.044 0.1451,6.0692 -0.0697,1.2209 -1.5147,1.7514 -1.6659,3.0584 -0.1716,1.4809 0.9471,3.3791 0.8734,4.9271 4.5319,0.0891 9.0639,0.2711 15.7245,3.6083 4.0078,12.8931 8.7626,26.3706 12.8562,32.2766 0.6931,1 2.2746,1.2296 4.3999,1.7949 1.5503,0.4126 3.0725,1.3704 4.4107,1.3111 2.4196,-0.107 3.7759,-2.0621 6.0407,-4.471 3.4458,-3.6646 7.4495,-8.6668 11.5284,-12.1484 0.6495,-0.5543 1.189,-1.8472 1.8948,-2.3349 0.8063,-0.5573 1.5329,0.1254 1.9709,0.6613 0.2353,0.2875 0.5372,0.6504 0.8914,1.0667 0.3687,0.4336 1.8982,0.5637 2.3721,1.0828 1.9598,2.1485 3.355,4.9099 4.9435,6.9663 0.7533,0.9752 3.5088,2.2866 5.2484,1.2695 2.6532,-1.5514 3.2725,-9.2888 2.3124,-12.5221 -1.1559,-3.8929 -4.4086,-8.3414 -6.978,-12.2252 -0.1318,-0.1994 -0.7936,-1.5573 -0.4434,-2.1391 0.4098,-0.68 1.4712,-0.7845 2.2316,-1.1351 0.6706,-0.3093 1.1284,-0.8532 0.4072,-1.5687 -0.4514,-0.4481 -2.6821,1.6552 -4.0501,1.6203 -1.0744,-3.4642 -1.6397,-5.9827 -3.0027,-6.8705 -1.923,-1.252 -4.1053,-2.2282 -6.1406,-1.6371 -1.3931,0.4049 -2.9464,4.7213 -3.8144,8.023 -0.3395,1.2909 0.2617,2.6948 -0.1917,3.3436 -0.7416,1.0607 -2.0322,2.4622 -3.0755,3.042 -1.3415,0.745 -2.6287,0.56 -3.9196,1.0355 -1.2018,0.4431 -2.6553,1.6643 -3.6834,1.5962 -0.8368,-0.0556 -1.4917,-0.51 -1.8848,-1.1867 -0.4273,-0.7356 0.125,-2.2252 1.9478,-2.3351 -0.1673,-0.8506 -1.2655,-2.359 -1.4418,-3.2206 -0.9061,-4.4314 -0.5217,-11.2603 -1.3783,-15.7936 -0.4957,-2.6251 -1.4578,-4.8242 -1.4206,-8.1708 0.01,-0.8847 -1.9247,-0.003 -2.2374,-1.2869 0.3084,-0.8479 1.4505,-1.9746 2.5913,-3.2859 0.3381,-0.3884 -0.6961,-0.734 -1.6137,-1.3942 -0.628,-0.4514 -0.9253,-1.3428 -0.9695,-1.62 -0.1401,-0.879 0.4413,-3.2028 4.2477,-0.1689 3.8627,-8.2277 5.3644,-8.3078 7.4969,-13.3264 0.4882,-1.1495 0.9581,-3.3553 1.3036,-5.1207 0.1569,-0.8023 -0.004,-1.368 0.314,-1.9605 0.4213,-0.7842 3.9948,-2.7903 4.421,-3.6037 0.5141,-0.9802 -0.6092,-4.2695 -0.3106,-5.2213 3.8721,-2.2809 8.713,-3.4026 15.0101,-9.8722 3.6428,-3.7427 7.8999,-10.6605 7.9291,-13.5338 0.005,-0.487 -0.0436,-1.8493 -0.2969,-2.7823 -0.3261,-1.1994 -0.9327,-2.1153 -1.5644,-4.0346 -0.5104,-1.5506 -0.7326,-3.5564 -1.6401,-5.3989 -0.9977,-2.0262 -3.4324,-5.9305 -6.0005,-9.2898 -4.2809,-5.599 -9.5951,-11.3354 -14.0848,-16.4401 -1.7403,-1.6337 -4.2136,-2.807 -6.3014,-3.864 -3.2578,-1.6488 -6.2455,-2.8841 -9.1631,-4.1194 -1.2195,-0.5164 -0.7906,-1.5717 -2.0439,-2.0748 -3.4613,-1.3901 -7.6403,-2.4183 -10.0542,-4.9002 0.1796,-0.426 -0.5285,-1.5014 -1.3382,-2.354 -1.0024,-1.055 -2.2554,-2.5681 -2.0842,-3.1984 0.8657,-0.1676 1.2299,-1.0771 1.6901,-2.0691 0.3576,-0.7718 0.8475,-1.5584 1.2041,-2.3211 0.6344,-1.3566 0.434,-2.8691 0.5057,-3.9757 0.0556,-0.8545 -0.3549,-2.2215 -2.1053,-1.9899 0.4984,-6.0562 -0.5801,-11.2553 -3.1143,-13.4002 -2.5989,-2.2001 -8.404,-2.5989 -12.6314,-1.5271 -3.5031,0.8877 -8.4083,4.3536 -9.3216,6.976 z m 50.1108,81.6997 c 0.3351,0.6856 2.3684,0.3619 3.7484,0.4634 1.2172,0.0899 1.5778,0.9853 3.7679,0.2105 0.7554,-0.9983 1.4504,-2.7162 1.2993,-3.5899 -0.1884,-1.0868 -0.9605,-1.3254 -1.5661,-2.0966 -0.7788,-0.9913 -1.4749,-2.4266 -2.302,-3.0356 -0.8589,-0.6327 -1.3572,-0.5171 -2.746,-0.2479 -0.3063,3.7544 0.5539,5.7481 -0.1669,6.0765 -1.0939,0.499 -1.4273,1.2852 -2.0346,2.2196 z"
       style="fill:#005891;fill-rule:evenodd"
       id="path21"
       inkscape:connector-curvature="0" />
    <g
       id="Layer1002">
      <path
         d="M 300.6208,555.9716 A 20.3192,20.3192 0 0 1 320.94,576.2908 20.3192,20.3192 0 1 1 300.6208,555.9716 Z"
         style="fill:#005891;fill-rule:evenodd"
         id="path23"
         inkscape:connector-curvature="0" />
      <path
         d="m 307.1012,557.7374 c 5.3724,1.877 9.6818,6.0216 11.7797,11.2861 l -4.789,-2.3342 -7.5564,-7.8638 z m 13.1273,19.8114 c -0.4062,6.4171 -3.8922,11.9986 -8.9972,15.2812 l -0.8402,-3.3921 5.4392,-9.7828 z m -19.1194,18.3849 c -0.1622,0.004 -0.3251,0.006 -0.4883,0.006 -3.6952,0 -7.1523,-1.0208 -10.1048,-2.7957 l 9.0833,0.4377 z m -18.4804,-11.7379 c -1.0643,-2.419 -1.6569,-5.093 -1.6569,-7.905 0,-2.3071 0.3992,-4.5203 1.1298,-6.5769 l 1.367,-1.0467 5.1358,3.1402 0.7423,7.6362 -4.1807,6.4288 z m 1.4293,-18.4794 c 2.4549,-3.8362 6.2066,-6.7635 10.636,-8.1637 l 3.9974,2.0228 -2.8489,8.0146 -6.8604,3.6623 -5.0806,-3.1063 z m 5.7183,26.7205 -4.1254,-6.0809 4.0554,-6.2361 7.5769,1.3127 4.9281,8.079 -2.6029,3.3995 z m 20.0521,-3.366 -6.9619,0.2282 -4.9968,-8.1915 3.2849,-6.7412 10.2493,-1.1189 3.6666,6.3945 z m 3.2746,-22.4432 -1.799,5.9562 -10.0582,1.0982 -4.73,-5.9861 2.8352,-7.9753 6.5578,-0.5802 z"
         style="fill:#ffffff;fill-rule:evenodd"
         id="path25"
         inkscape:connector-curvature="0" />
    </g>
    <g
       id="Layer1003">
      <path
         d="m 78.0367,177.3841 c 76.2408,26.1142 144.7675,43.4638 216.1677,44.0999 75.6509,0.674 152.9557,-18.0869 225.186,-43.8452 l 2.5899,7.3648 c -69.429,26.5646 -158.4237,48.6375 -229.5444,47.7203 -76.8735,-0.9917 -148.0192,-20.4241 -217.174,-45.5353 z"
         style="fill:#ffffff;fill-rule:evenodd"
         id="path28"
         inkscape:connector-curvature="0" />
      <path
         d="m 342.2536,182.8641 5.3516,10.6349 11.7681,1.8033 -8.4607,8.376 1.9216,11.7493 -10.5806,-5.4582 -10.5805,5.4582 1.9215,-11.7493 -8.4606,-8.376 11.7681,-1.8033 z"
         style="fill:#ffffff;fill-rule:evenodd"
         id="path30"
         inkscape:connector-curvature="0" />
      <path
         d="m 395.3755,176.3894 5.3516,10.6349 11.7681,1.8033 -8.4606,8.376 1.9215,11.7493 -10.5806,-5.4582 -10.5805,5.4582 1.9215,-11.7493 -8.4606,-8.376 11.7681,-1.8033 z"
         style="fill:#ffffff;fill-rule:evenodd"
         id="path32"
         inkscape:connector-curvature="0" />
      <path
         d="m 196.3547,174.2741 5.3516,10.4309 11.7681,1.7686 -8.4607,8.2154 1.9215,11.5239 -10.5805,-5.3535 -10.5805,5.3535 1.9215,-11.5239 -8.4606,-8.2154 11.7681,-1.7687 z"
         style="fill:#ffffff;fill-rule:evenodd"
         id="path34"
         inkscape:connector-curvature="0" />
      <path
         d="m 244.1119,182.4941 5.3516,10.6349 11.768,1.8033 -8.4606,8.376 1.9215,11.7493 -10.5805,-5.4582 -10.5805,5.4582 1.9215,-11.7493 -8.4607,-8.376 11.7681,-1.8033 z"
         style="fill:#ffffff;fill-rule:evenodd"
         id="path36"
         inkscape:connector-curvature="0" />
      <path
         d="m 292.0353,187.1859 5.3516,10.6349 11.768,1.8033 -8.4606,8.376 1.9215,11.7493 -10.5805,-5.4582 -10.5805,5.4582 1.9215,-11.7493 -8.4607,-8.376 11.7681,-1.8033 z"
         style="fill:#ffffff;fill-rule:evenodd"
         id="path38"
         inkscape:connector-curvature="0" />
    </g>
    <g
       id="Layer1004">
      <path
         d="m 274.4603,645.5196 v -4.3831 h -10.7369 c 3.1576,-3.5889 9.7938,-10.4269 10.2027,-17.607 0.1609,-2.8298 -0.5459,-4.8919 -2.054,-6.4596 -1.2966,-1.3479 -3.926,-2.0755 -5.7451,-2.0222 -3.3248,0.0979 -5.7257,1.81 -7.1905,4.4445 l 3.0724,2.2906 c 1.0433,-1.4156 1.6981,-2.493 3.8158,-2.5111 1.4069,-0.0118 2.6954,0.9796 3.0514,2.5359 0.7567,3.3091 -0.5125,6.2719 -2.1476,8.9808 -2.5667,4.2518 -5.911,8.5407 -7.6523,10.6192 v 4.112 z"
         style="fill:#005891;fill-rule:evenodd"
         id="path41"
         inkscape:connector-curvature="0" />
      <path
         d="m 286.4402,641.8309 c -1.8051,0 -2.2204,-1.5393 -2.4695,-3.8031 -0.5421,-4.9197 -0.5276,-10.0354 -0.029,-15.0533 0.2096,-2.1093 0.8189,-3.6254 2.4985,-3.6254 1.7681,0 2.2777,1.4374 2.4914,3.6402 0.4996,5.1482 0.5768,10.656 -0.0595,15.0556 -0.3248,2.2467 -0.5971,3.786 -2.4319,3.786 z m 0,4.2135 c 7.3767,-6e-4 7.9432,-9.6225 7.9432,-15.367 0,-5.7622 -0.5115,-15.5586 -7.9432,-15.5419 -7.2534,0.0164 -7.8705,9.9245 -7.875,15.5419 -0.005,5.8105 0.386,15.3677 7.875,15.367 z"
         style="fill:#005891;fill-rule:evenodd"
         id="path43"
         inkscape:connector-curvature="0" />
      <path
         d="m 325.8453,641.9287 c -1.8051,0 -2.2204,-1.5392 -2.4695,-3.803 -0.5421,-4.9197 -0.5276,-10.0354 -0.029,-15.0533 0.2096,-2.1093 0.8189,-3.6255 2.4985,-3.6255 1.7681,0 2.2777,1.4374 2.4914,3.6402 0.4996,5.1483 0.5768,10.6561 -0.0596,15.0557 -0.3247,2.2467 -0.5971,3.7859 -2.4318,3.7859 z m 0,4.2136 c 7.3767,-7e-4 7.9432,-9.6226 7.9432,-15.367 0,-5.7622 -0.5115,-15.5587 -7.9432,-15.5419 -7.2534,0.0164 -7.8705,9.9245 -7.875,15.5419 -0.005,5.8105 0.386,15.3677 7.875,15.367 z"
         style="fill:#005891;fill-rule:evenodd"
         id="path45"
         inkscape:connector-curvature="0" />
      <path
         d="m 299.1992,623.1478 2.7849,2.6606 4.5034,-5.2046 v 24.9158 h 4.6101 v -29.8593 h -4.3802 z"
         style="fill:#005891;fill-rule:evenodd"
         id="path47"
         inkscape:connector-curvature="0" />
    </g>
    <g
       id="Layer1005">
      <path
         d="m 165.0825,249.8153 8.3585,0.8664 4.8428,33.6068 -6.8118,-0.706 -1.1433,-8.5542 -7.7166,-0.7998 -3.002,8.1244 -6.5936,-0.6834 z m -0.5704,18.5846 5.2381,0.5429 -1.2795,-11.7794 -0.1948,-0.0202 z"
         style="fill:#ffffff;fill-rule:evenodd"
         id="path50"
         inkscape:connector-curvature="0" />
      <path
         d="m 212.3212,253.9403 8.3846,0.5586 6.0746,33.4061 -6.8331,-0.4552 -1.4569,-8.5063 -7.7408,-0.5158 -2.7014,8.2293 -6.6142,-0.4407 z m 0.1129,18.5929 5.2545,0.3501 -1.7115,-11.7245 -0.1954,-0.013 z"
         style="fill:#ffffff;fill-rule:evenodd"
         id="path52"
         inkscape:connector-curvature="0" />
      <path
         d="m 356.616,255.298 8.3859,-0.2995 10.0369,32.6753 -6.8342,0.2441 -2.3986,-8.3223 -8.1099,0.2384 -1.3924,8.5089 -6.6153,0.2363 z m 2.0922,18.4941 5.6233,-0.1496 -3.2781,-11.529 -0.1955,0.007 z"
         style="fill:#ffffff;fill-rule:evenodd"
         id="path54"
         inkscape:connector-curvature="0" />
      <path
         d="m 311.6368,257.3125 6.4459,-0.1978 0.4141,13.5 0.1038,7.1751 0.1162,-0.004 1.7977,-4.7596 6.3575,-16.1815 8.2034,-0.2517 0.9896,32.2557 -6.5866,0.2021 -0.4323,-14.091 -0.1157,-7.7834 -0.1229,0.004 -1.7076,4.9411 -6.7997,17.2112 -7.6738,0.2354 z"
         style="fill:#ffffff;fill-rule:evenodd"
         id="path56"
         inkscape:connector-curvature="0" />
      <path
         d="m 295.5687,289.3039 -7.3073,-0.005 -4.3543,-20.1795 -1.1845,-4.607 -0.1105,-1e-4 0.0698,4.9739 -0.0148,19.8085 -5.9197,-0.004 0.0243,-32.4565 9.8063,0.007 3.9416,18.9865 1.1403,5.7025 0.1044,1e-4 1.1549,-5.7008 4.519,-18.9802 9.7936,0.007 -0.0243,32.4565 -6.3296,-0.005 0.0149,-19.8086 0.0772,-4.9738 h -0.1105 l -1.1849,4.6052 z"
         style="fill:#ffffff;fill-rule:evenodd"
         id="path58"
         inkscape:connector-curvature="0" />
      <path
         d="m 257.811,256.8161 15.0218,0.2856 -0.1063,5.5894 -8.5882,-0.1633 -0.1384,7.2752 7.6841,0.1461 -0.1008,5.3007 -7.684,-0.1461 -0.1593,8.3774 8.5882,0.1632 -0.1088,5.7234 -15.0218,-0.2856 z"
         style="fill:#ffffff;fill-rule:evenodd"
         id="path60"
         inkscape:connector-curvature="0" />
      <path
         d="m 113.5521,243.1593 6.3475,0.8974 -2.0677,14.626 0.1183,0.0168 10.0357,-13.4997 7.0943,1.003 -11.3566,14.2732 7.1044,17.8156 -7.6372,-1.0797 -5.5837,-16.0856 0.0145,0.002 -2.2529,14.9778 -6.3475,-0.8974 z"
         style="fill:#ffffff;fill-rule:evenodd"
         id="path62"
         inkscape:connector-curvature="0" />
      <path
         d="m 183.329,251.8625 6.393,0.4752 -1.1466,15.0974 0.1191,0.009 9.1717,-14.5008 7.1451,0.5311 -10.4384,15.3602 8.2681,17.3062 -7.6919,-0.5718 -6.6362,-15.6807 0.0145,10e-4 -1.2564,15.094 -6.393,-0.4752 z"
         style="fill:#ffffff;fill-rule:evenodd"
         id="path64"
         inkscape:connector-curvature="0" />
      <path
         d="m 86.9537,238.0025 -0.7245,4.2033 c 5.9996,0.8458 11.0101,5.8554 9.5579,14.2803 -1.4532,8.4311 -9.0057,10.5906 -13.721,9.872 l -0.7933,4.6018 -5.9651,-1.0282 0.7932,-4.6018 c -5.1724,-0.7974 -10.8068,-5.419 -9.3537,-13.8494 1.326,-7.693 6.6955,-11.2904 13.5168,-10.3029 l 0.7246,-4.2033 z m -1.5481,8.9812 -2.4704,14.332 c 3.8302,0.377 5.4629,-3.3678 6.0456,-6.0028 0.7211,-3.262 -0.262,-7.7582 -3.5752,-8.3292 z m -8.4355,13.3038 2.4704,-14.332 c -3.7573,-0.1765 -5.6002,3.7399 -6.0188,6.6755 -0.3792,2.6596 0.0049,6.1983 3.5484,7.6565 z"
         style="fill:#ffffff;fill-rule:evenodd"
         id="path66"
         inkscape:connector-curvature="0" />
      <path
         d="m 101.2712,266.7565 a 3.9773,3.9773 0 0 1 3.2439,4.5951 3.9773,3.9773 0 1 1 -3.2439,-4.5951 z"
         style="fill:#ffffff;fill-rule:evenodd"
         id="path68"
         inkscape:connector-curvature="0" />
      <path
         d="m 137.5308,271.8802 a 3.9773,3.9773 0 0 1 3.2359,4.6008 3.9773,3.9773 0 1 1 -3.2359,-4.6008 z"
         style="fill:#ffffff;fill-rule:evenodd"
         id="path70"
         inkscape:connector-curvature="0" />
      <path
         d="m 236.6699,255.8879 14.7098,0.4432 -0.803,26.6504 3.6428,0.1098 -0.4307,14.2932 -6.3686,-0.1919 0.2656,-8.8141 -14.0844,-0.4244 -0.2656,8.8141 -6.5022,-0.1959 0.4307,-14.2933 2.0346,0.0613 c 2.3974,-4.3198 6.7337,-17.5868 7.371,-26.4524 z m 8.3564,5.8697 -3.6017,-0.1085 c -1.1595,7.7679 -3.2531,15.7274 -5.9762,20.8765 l 8.9439,0.2695 z"
         style="fill:#ffffff;fill-rule:evenodd"
         id="path72"
         inkscape:connector-curvature="0" />
      <path
         d="m 339.8222,256.4941 6.5841,-0.2597 1.2263,31.0821 c 0.1384,3.5101 -0.7016,6.3853 -2.5314,8.2173 -1.4225,1.4245 -3.4961,2.3709 -5.8355,2.4632 -1.3716,0.0541 -2.9099,-0.0535 -4.34,-0.3342 l -0.2275,-5.7651 c 0.9469,0.1894 2.227,0.2556 3.0488,0.2232 2.4941,-0.0984 3.4038,-1.9478 3.3178,-4.1294 z"
         style="fill:#ffffff;fill-rule:evenodd"
         id="path74"
         inkscape:connector-curvature="0" />
    </g>
    <g
       id="Layer1006">
      <path
         d="m 416.122,250.8129 8.3521,-0.9249 11.8559,31.8168 -6.8067,0.7537 -2.9304,-8.1174 -7.7108,0.8539 -1.2118,8.5761 -6.5886,0.7296 z m 3.3815,18.2832 5.2342,-0.5796 -3.7471,-11.2407 -0.1947,0.0216 z"
         style="fill:#ffffff;fill-rule:evenodd"
         id="path77"
         inkscape:connector-curvature="0" />
      <path
         d="m 486.1333,242.3214 14.8412,-2.3394 0.8705,5.5222 -8.485,1.3375 1.133,7.1878 7.5918,-1.1967 0.8255,5.237 -7.5918,1.1967 1.3047,8.2766 8.485,-1.3375 0.8914,5.6546 -14.8412,2.3395 z"
         style="fill:#ffffff;fill-rule:evenodd"
         id="path79"
         inkscape:connector-curvature="0" />
      <path
         d="m 465.0511,245.4266 14.5486,-2.2171 4.0167,26.3582 3.603,-0.5491 2.1542,14.1366 -6.2987,0.9599 -1.3285,-8.7175 -13.93,2.1228 1.3285,8.7175 -6.4309,0.98 -2.1543,-14.1366 2.0123,-0.3066 c 1.5789,-4.6814 3.4513,-18.5129 2.4791,-27.3481 z m 9.278,4.2664 -3.5622,0.5428 c 0.2606,7.8496 -0.3631,16.0562 -2.1128,21.612 l 8.8458,-1.348 z"
         style="fill:#ffffff;fill-rule:evenodd"
         id="path81"
         inkscape:connector-curvature="0" />
      <path
         d="m 505.1301,239.1143 8.8249,-1.4058 c 4.31,-0.6866 9.0198,0.2538 10.1574,6.2192 0.6726,3.5276 -0.768,6.8403 -2.8653,7.611 2.5997,0.4316 5.5161,1.731 6.3635,7.0502 1.1119,6.9799 -3.9711,10.4172 -8.8987,11.2021 l -8.4798,1.3509 z m 6.6408,4.1029 1.2261,7.6966 2.2568,-0.3595 c 2.1148,-0.3369 3.7632,-1.5926 3.3056,-4.4649 -0.4872,-3.0586 -2.5691,-3.5444 -4.7683,-3.194 z m 2.0081,12.6057 1.3839,8.6872 2.6407,-0.4207 c 2.364,-0.3766 4.3515,-1.8489 3.8392,-5.0654 -0.475,-2.9816 -2.0297,-4.1305 -5.2231,-3.6218 z"
         style="fill:#ffffff;fill-rule:evenodd"
         id="path83"
         inkscape:connector-curvature="0" />
      <path
         d="m 434.5529,249.3491 6.2902,-0.7477 1.4875,12.5143 7.8561,-0.9338 -1.4875,-12.5143 6.2901,-0.7477 3.8103,32.0552 -6.2901,0.7477 -1.681,-14.1417 -7.8561,0.9339 1.681,14.1417 -6.2902,0.7477 z"
         style="fill:#ffffff;fill-rule:evenodd"
         id="path85"
         inkscape:connector-curvature="0" />
      <path
         d="m 385.9301,253.5918 20.3398,-1.3904 2.2153,32.4077 -6.3503,0.4341 -1.8148,-26.5486 -7.6426,0.5224 1.8149,26.5486 -6.3469,0.4339 z"
         style="fill:#ffffff;fill-rule:evenodd"
         id="path87"
         inkscape:connector-curvature="0" />
    </g>
  </g>
</svg>
