<?xml version="1.0" encoding="UTF-8" standalone="no"?>
<svg
   xmlns:dc="http://purl.org/dc/elements/1.1/"
   xmlns:cc="http://creativecommons.org/ns#"
   xmlns:rdf="http://www.w3.org/1999/02/22-rdf-syntax-ns#"
   xmlns:svg="http://www.w3.org/2000/svg"
   xmlns="http://www.w3.org/2000/svg"
   xmlns:sodipodi="http://sodipodi.sourceforge.net/DTD/sodipodi-0.dtd"
   xmlns:inkscape="http://www.inkscape.org/namespaces/inkscape"
   version="1.1"
   width="251.74126"
   height="252"
   id="svg91"
   viewBox="0 0 251.74126 252"
   sodipodi:docname="FC_Alanyaspor_Logo (1).svg"
   inkscape:version="0.92.4 (5da689c313, 2019-01-14)">
  <metadata
     id="metadata97">
    <rdf:RDF>
      <cc:Work
         rdf:about="">
        <dc:format>image/svg+xml</dc:format>
        <dc:type
           rdf:resource="http://purl.org/dc/dcmitype/StillImage" />
        <dc:title></dc:title>
      </cc:Work>
    </rdf:RDF>
  </metadata>
  <defs
     id="defs95" />
  <sodipodi:namedview
     pagecolor="#ffffff"
     bordercolor="#666666"
     borderopacity="1"
     objecttolerance="10"
     gridtolerance="10"
     guidetolerance="10"
     inkscape:pageopacity="0"
     inkscape:pageshadow="2"
     inkscape:window-width="1366"
     inkscape:window-height="705"
     id="namedview93"
     showgrid="false"
     inkscape:zoom="0.63785072"
     inkscape:cx="208.29716"
     inkscape:cy="288.34493"
     inkscape:window-x="-8"
     inkscape:window-y="-8"
     inkscape:window-maximized="1"
     inkscape:current-layer="svg91"
     fit-margin-top="1"
     fit-margin-right="1"
     fit-margin-bottom="1"
     fit-margin-left="1" />
  <g
     id="Layer1000"
     transform="matrix(0.43589532,0,0,0.43589532,-3.8682969,-57.487911)">
    <path
       d="m 297.4158,215.8095 c -56.5055,0 -107.6439,23.2197 -144.6973,60.5551 -37.1976,37.4806 -60.205,89.1922 -60.205,145.9253 0,56.5297 22.8622,107.3954 59.845,144.1582 37.097,36.8765 88.4109,59.5723 145.1197,59.5723 56.7009,0 107.9736,-22.6819 145.0347,-59.542 36.9564,-36.756 59.7897,-87.6197 59.7897,-144.1573 0,-56.7363 -23.0063,-108.4584 -60.2036,-145.9471 -37.0491,-37.3397 -88.1807,-60.5645 -144.6832,-60.5645 z m -148.3047,56.9676 c 37.9803,-38.2694 90.3941,-62.07 148.3047,-62.07 57.9079,0 110.3145,23.8057 148.2906,62.0794 38.1208,38.4196 61.6986,91.4139 61.6986,149.5346 0,57.9402 -23.4119,110.0775 -61.3046,147.7647 -37.9914,37.7855 -90.5338,61.037 -148.6222,61.037 -58.0958,0 -110.6793,-23.2656 -148.7072,-61.0673 -37.9188,-37.6932 -61.3599,-89.8325 -61.3599,-147.7656 0,-58.1179 23.5789,-111.1014 61.7,-149.5128 z"
       style="fill:#1b1918;fill-rule:evenodd"
       id="path10"
       inkscape:connector-curvature="0" />
    <path
       d="m 464.5696,634.2261 -32.3867,-36.8575 9.9088,-8.4607 c 2.8749,-2.455 5.0894,-4.082 6.6277,-4.8975 1.5473,-0.8207 3.0424,-1.3074 4.3955,-1.4807 1.6539,-0.2121 3.5035,0.2164 5.0276,1.0523 1.5135,0.8297 3.0226,2.3819 4.4623,4.0733 1.7659,2.0747 3.2874,3.4934 3.6006,5.5141 0.3208,2.0692 0.1017,4.4196 -1.1066,6.6414 4.8973,-2.2319 7.0601,-0.7317 10.914,3.4276 2.4455,2.6402 8.4111,10.9669 11.4826,10.9992 l -8.2414,7.198 c -1.2792,0.1529 -2.4127,-0.6654 -3.2049,-1.4079 -2.1379,-2.0026 -3.9601,-4.1672 -5.7911,-6.0746 -2.0925,-2.1801 -4.098,-5.1673 -5.3239,-5.5244 -1.2175,-0.3546 -2.5977,-0.0984 -4.2627,1.3188 l -1.6059,1.3669 13.839,15.692 z m -10.7777,-29.4279 c 0.1332,-0.1131 0.3103,-0.2502 0.5309,-0.4104 0.2211,-0.1604 0.3833,-0.2852 0.4869,-0.3732 1.6125,-1.3722 2.6723,-2.6519 2.6538,-3.9292 -0.0183,-1.2633 -1.0899,-2.6115 -2.509,-4.2795 -1.3104,-1.5395 -2.1765,-2.3395 -3.3997,-2.4122 -1.2228,-0.073 -2.392,0.7196 -4.0046,2.0921 -0.1031,0.0878 -0.2526,0.2287 -0.4458,0.4207 -0.1933,0.1924 -0.3576,0.3453 -0.4904,0.4586 z"
       style="fill:#231f20;fill-rule:evenodd"
       id="path12"
       inkscape:connector-curvature="0" />
    <path
       d="m 414.1132,638.6094 -6.4516,-10.6758 c -1.3685,-2.2657 -1.9778,-4.8078 -2.0252,-6.5156 -0.0677,-2.4319 0.4635,-4.6003 1.629,-6.5491 1.1656,-1.9489 3.0934,-3.9435 5.4935,-5.4737 2.4173,-1.5408 5.1671,-2.616 7.401,-2.8347 2.2342,-0.2184 4.5973,0.2258 6.7792,1.3014 1.5658,0.7722 3.4919,2.1331 4.9498,4.3414 l 7.0023,10.6073 c 3.1119,4.7137 5.5454,8.2185 6.6397,10.64 1.0943,2.4219 1.6992,4.6724 1.7407,6.4178 0.0574,2.4046 -0.719,4.6345 -1.8747,6.585 -1.1533,1.946 -3.173,3.618 -5.5738,5.1487 -2.4006,1.5303 -4.7334,2.4093 -6.9926,2.6439 -2.2647,0.2258 -4.4835,-0.1995 -6.6508,-1.2662 -1.5258,-0.7672 -3.3734,-2.0269 -4.8833,-4.1709 z m 17.6829,-5.9261 -4.7041,-6.9602 -4.8356,-7.5705 c -1.3081,-2.0483 -3.418,-2.2795 -4.7772,-1.413 -1.326,0.8454 -1.6229,2.9763 -0.5402,4.6345 l 4.782,7.324 4.8213,7.5458 4.1956,6.3858 c 1.4688,2.2354 3.3614,2.4784 4.7215,1.6119 1.3435,-0.8564 1.8513,-2.1735 1.3068,-3.5437 -0.52,-1.3084 -2.0653,-3.7164 -4.9701,-8.0146 z"
       style="fill:#231f20;fill-rule:evenodd"
       id="path14"
       inkscape:connector-curvature="0" />
    <path
       d="m 386.6104,677.0392 -18.5812,-45.2983 10.172,-4.2026 c 3.4308,-1.4179 5.8245,-2.4944 7.5964,-2.8676 1.7625,-0.3719 3.9628,-0.5605 5.4016,-0.2916 1.8962,0.3548 4.0014,1.2804 5.6025,2.8891 1.5939,1.6016 2.9109,4.2139 4.0427,6.8872 1.8673,4.4104 2.7316,8.818 1.544,12.0183 -1.1873,3.2005 -4.3185,5.0794 -9.1951,7.144 l -3.3297,1.4098 7.3128,17.6469 z m -0.1921,-30.4481 c 0.1515,-0.0412 0.321,-0.0905 0.5081,-0.1468 0.1962,-0.0602 0.4507,-0.1564 0.7906,-0.3005 1.8796,-0.7956 3.3699,-1.398 3.8039,-2.7033 0.4337,-1.3037 -0.2539,-3.365 -1.1483,-5.4783 -0.7395,-1.7474 -2.1712,-3.7048 -3.4446,-3.7893 -1.4853,-0.0986 -2.2179,0.3357 -4.2931,1.2151 l -0.8144,0.3452 z"
       style="fill:#231f20;fill-rule:evenodd"
       id="path16"
       inkscape:connector-curvature="0" />
    <path
       d="m 339.0289,671.8586 10.9435,-2.2937 c 0.3096,2.6813 0.8252,5.0176 1.8666,6.3938 0.7285,0.9632 2.6557,1.4172 3.9373,0.9936 1.0236,-0.3387 2.2675,-1.123 2.6075,-2.0823 0.3422,-0.9658 0.2986,-2.0951 -0.2677,-3.3682 -0.9998,-2.2473 -3.0929,-3.3506 -6.7584,-5.2196 -4.5391,-2.3141 -7.6659,-3.7776 -9.2025,-4.69 -1.1601,-0.689 -3.0571,-1.8417 -4.0244,-2.9682 -0.9933,-1.1563 -1.7685,-2.8221 -2.3015,-4.4333 -1.2968,-3.9198 -1.3611,-7.5856 0.007,-10.5162 1.3687,-2.9317 5.2829,-5.6216 8.9726,-6.8421 4.0214,-1.3306 7.9787,-1.5642 10.9064,-0.2235 5.3192,2.4365 6.8972,5.6158 7.6737,10.142 0.0547,0.32 0.5024,2.3415 0.5618,2.5207 l -10.5432,2.6762 -0.4184,-1.7607 c -0.491,-2.0664 -0.6697,-3.701 -1.9741,-4.5163 -1.0325,-0.6454 -1.8935,-1.051 -2.9731,-0.6939 -0.9127,0.3021 -1.9045,0.9066 -2.2276,1.7939 -0.3255,0.8944 -0.5144,1.9051 -0.1294,3.0687 1.0184,3.0771 6.9348,4.9151 9.9561,6.2453 3.9097,1.7214 6.5095,3.1155 8.0532,4.3186 2.115,1.6489 3.5706,3.4634 4.6614,6.0488 0.7928,1.8791 2.3016,6.7614 0.1597,11.0099 -1.54,3.056 -3.9813,5.5829 -7.9317,7.2857 -4.0785,1.7581 -11.1458,1.7845 -14.0306,0.1631 -2.8858,-1.6218 -5.0406,-3.8417 -6.558,-8.4278 -0.0109,-0.0329 -0.76,-3.7863 -0.966,-4.6245 z"
       style="fill:#231f20;fill-rule:evenodd"
       id="path18"
       inkscape:connector-curvature="0" />
    <path
       d="m 298.2271,692.2637 4.8808,-49.5003 15.0102,-1.3653 13.4221,47.7598 -11.7931,1.4692 -1.8252,-8.8694 -8.1318,0.677 -0.2653,8.8667 z m 11.8098,-18.1314 6.2491,-0.5006 -4.1057,-22.9396 -0.9023,0.0564 z"
       style="fill:#231f20;fill-rule:evenodd"
       id="path20"
       inkscape:connector-curvature="0" />
    <path
       d="m 299.965,136.4457 c 7.2168,13.7083 16.361,31.1536 25.5393,48.6632 66.6162,127.0896 136.2742,259.9821 216.9397,380.7297 l 1.0489,1.5702 -4.0785,4.9663 -1.9599,-2.4166 c -31.9527,-39.3984 -68.9516,-71.9274 -111.1159,-94.0255 -38.5398,-20.1982 -81.422,-30.2808 -128.743,-30.3624 -45.5171,-0.0788 -89.5196,8.8237 -130.5681,30.3982 -39.4367,20.7275 -76.1646,51.849 -108.9119,94.1232 l -2.6665,3.4421 -3.2287,-7.668 0.7793,-1.1389 C 129.2734,453.2519 194.3107,329.0658 258.9171,205.7006 271.3054,182.0458 283.682,158.4128 295.2808,136.48 l 0.5734,-1.0846 3.2335,-0.6159 z m 21.0351,51.0148 c -7.3395,-14.0017 -14.6228,-27.8969 -23.3728,-44.5263 -11.8936,22.5127 -23.042,43.8009 -34.2059,65.118 -60.3202,115.181 -121.0173,231.0744 -190.8638,336.7114 28.3643,-31.7673 59.2999,-56.0608 92.0979,-73.2991 41.7946,-21.9665 86.5964,-31.0567 132.9401,-30.9764 48.1884,0.083 91.8535,10.375 131.0947,30.9407 34.8358,18.2574 66.1666,43.4837 94.0643,73.7416 C 448.4599,430.6241 383.3963,306.5 321.0001,187.4605 Z"
       style="fill:#1b1918;fill-rule:evenodd"
       id="path22"
       inkscape:connector-curvature="0" />
    <path
       d="m 172.9527,660.3724 28.9084,-40.4772 13.6926,6.2995 -12.1745,48.093 -10.9555,-4.6057 2.8394,-8.5985 -7.3868,-3.4671 -4.6503,7.5541 z m 19.2766,-9.83 5.6668,2.6814 7.8769,-21.9325 -0.8103,-0.401 z"
       style="fill:#231f20;fill-rule:evenodd"
       id="path24"
       inkscape:connector-curvature="0" />
    <path
       d="m 106.7636,612.0044 39.5176,-30.207 11.2398,10.0416 -25.7566,42.3999 -9.1208,-7.619 5.2386,-7.386 -6.0434,-5.4829 -6.6631,5.856 z m 21.3131,-3.7378 4.6299,4.2268 13.9685,-18.6537 -0.6568,-0.6211 z"
       style="fill:#231f20;fill-rule:evenodd"
       id="path26"
       inkscape:connector-curvature="0" />
    <path
       d="m 269.8492,690.2256 1.6404,-19.1278 -6.705,-30.5312 11.97,1.1681 1.3478,15.7491 1.1693,0.052 3.5141,-15.3023 11.9067,0.8032 -11.8265,27.9452 -1.6087,20.0341 z"
       style="fill:#231f20;fill-rule:evenodd"
       id="path28"
       inkscape:connector-curvature="0" />
    <path
       d="m 215.3299,679.7867 11.2458,-48.0846 12.1298,2.9137 1.6627,28.8785 0.8364,0.2071 5.7954,-27.0023 10.9409,2.6377 -11.0589,47.5526 -12.0204,-2.9876 -1.6974,-30.4692 -0.7184,-0.1707 -6.1503,28.4888 z"
       style="fill:#231f20;fill-rule:evenodd"
       id="path30"
       inkscape:connector-curvature="0" />
    <path
       d="m 162.5226,655.3539 -19.7918,-12.861 26.7352,-40.9025 9.3502,6.0813 -21.4555,33.0818 10.3321,6.4352 z"
       style="fill:#231f20;fill-rule:evenodd"
       id="path32"
       inkscape:connector-curvature="0" />
    <path
       d="m 263.5486,582.1095 h 7.4999 v -31.5003 l -6.2858,-0.008 c -2.001,2.5265 -3.1362,3.3704 -6.2473,3.3809 l 0.002,4.5473 5.0312,-0.0144 z"
       style="fill:#231f20;fill-rule:evenodd"
       id="path34"
       inkscape:connector-curvature="0" />
    <path
       d="m 284.343,550.0395 c -4.1332,0.068 -8.7964,2.7076 -8.7964,6.1863 l -3e-4,10.2333 c 0,2.6263 2.0214,6.1059 4.5246,6.1087 l 3.1952,0.004 c 1.6453,0.002 2.5164,-1.0755 3.0314,-1.5041 l -0.003,3.9915 c -6e-4,1.2243 -0.5307,2.0877 -1.7961,2.1121 -1.3609,0.0261 -2.0194,-0.7268 -2.0211,-2.666 l -6.6016,-0.1721 c -0.015,6.1095 3.2531,8.2661 8.3435,8.1715 4.9584,-0.0924 8.7449,-2.647 8.7514,-6.9225 l 0.0304,-19.5628 c 0.005,-3.41 -4.4989,-6.0483 -8.6582,-5.9799 z m 0.0343,5.6041 c -0.875,10e-4 -1.9074,0.6899 -1.9071,1.4998 l 0.003,8.2034 c 3e-4,1.1597 0.9791,1.8261 1.8105,1.8128 0.8974,-0.0142 1.7813,-0.7421 1.7813,-1.6407 l -3e-4,-8.2032 c 0,-0.7736 -0.8648,-1.6736 -1.6872,-1.6721 z"
       style="fill:#231f20;fill-rule:evenodd"
       id="path36"
       inkscape:connector-curvature="0" />
    <path
       d="m 300.4226,550.8096 h 7.6405 c 0.0385,5.1942 -2.9586,11.6255 -7.4203,18.6537 l -0.004,1.0624 4.5703,-0.005 -0.0136,-4.7057 c 1.8508,-2.6944 3.4308,-5.6917 4.1987,-8.8867 0.9689,0 1.9378,-2e-4 2.9067,-2e-4 l 0.0104,13.6139 2.2094,10e-4 0.006,5.7067 -2.2521,-0.008 -0.0116,5.8244 -6.9625,-0.008 -0.008,-5.6679 -9.4128,0.004 -0.007,-6.7974 c 2.1812,-5.7547 4.0365,-11.9484 4.5502,-18.7867 z"
       style="fill:#231f20;fill-rule:evenodd"
       id="path38"
       inkscape:connector-curvature="0" />
    <path
       d="m 324.9207,549.978 c -5.8683,-0.0139 -8.3492,2.6064 -8.4002,8.1938 -0.03,3.2947 0.2849,5.9683 2.9999,7.0503 -3.2357,1.7518 -3.2811,3.833 -3.2624,8.1369 0.0295,6.7099 3.2105,9.54 9.0377,9.4875 6.1345,-0.055 8.8379,-3.4288 8.8501,-9.9374 0.007,-3.5566 -0.296,-6.7428 -3.75,-7.7627 3.1312,-1.0601 3.5374,-3.791 3.5252,-7.1254 -0.0199,-5.4114 -2.7295,-8.0283 -9.0003,-8.043 z m 0.2344,5.5111 c -1.2931,-0.017 -1.8836,1.4984 -1.9032,3.3188 -0.0263,2.4395 0.5021,3.9175 1.9687,3.9376 1.4644,0.0198 2.0693,-1.3482 2.0625,-3.8815 -0.005,-1.9882 -0.7404,-3.3565 -2.128,-3.3749 z m 0.0658,12.469 c -1.656,0.0153 -1.9814,2.9001 -1.988,4.5567 -0.007,1.7501 0.2005,4.8918 1.95,4.875 1.7433,-0.0167 1.9244,-2.8879 1.9312,-4.6315 0.006,-1.6166 -0.2778,-4.8152 -1.8932,-4.8002 z"
       style="fill:#231f20;fill-rule:evenodd"
       id="path40"
       inkscape:connector-curvature="0" />
    <path
       d="m 297.3078,465.7572 c -21.5393,0 -41.0394,8.7305 -55.1542,22.8453 -4.347,4.3469 -8.1822,9.2049 -11.41,14.4754 1.438,0.6389 2.7819,1.2569 4.1093,1.8666 3.3299,1.5299 6.5614,3.0146 10.2036,4.3696 0.3467,0.1287 0.6027,0.1613 0.7776,0.125 0.0433,-0.009 0.0691,-0.0201 0.0782,-0.0306 0.019,-0.0221 0.0318,-0.0624 0.0371,-0.1128 0.0125,-0.1145 -0.0141,-0.2469 -0.0822,-0.3784 -0.373,-0.72 -0.8574,-1.4806 -1.396,-2.2354 -0.6273,-0.8788 -1.3516,-1.7734 -2.0716,-2.6005 -0.9113,-1.0472 -1.2274,-2.1331 -1.0995,-3.0943 0.0918,-0.696 0.4056,-1.2986 0.8954,-1.7708 0.434,-0.4184 0.9958,-0.7195 1.6453,-0.8717 1.2223,-0.286 2.8544,-0.0405 4.4957,1.0236 l 13.7622,8.9246 c 0.8067,0.523 1.6574,0.7115 2.4114,0.6488 0.5052,-0.0416 0.9542,-0.1944 1.2975,-0.4291 0.2789,-0.1905 0.483,-0.4357 0.5734,-0.7107 0.0828,-0.2514 0.0757,-0.557 -0.0499,-0.9025 l -1.2469,-3.4314 c -1.1535,-3.1745 -0.8453,-5.1468 0.7588,-6.116 1.3365,-0.8076 3.4398,-0.5023 6.2223,0.7016 3.0861,1.3354 5.8933,2.9608 8.7109,4.5918 1.0156,0.5879 2.0364,1.179 2.5492,1.4684 l -1.6611,2.9497 c -1.209,-0.6823 -1.8981,-1.0814 -2.5889,-1.4814 -2.759,-1.5973 -5.5083,-3.189 -8.352,-4.4195 -1.7396,-0.7526 -2.8227,-1.0839 -3.1263,-0.9005 -0.0366,0.0221 0.1749,0.6706 0.676,2.05 l 1.247,3.4313 c 0.4045,1.1137 0.4005,2.1767 0.0896,3.1215 -0.3297,1.0026 -1.0001,1.8437 -1.8888,2.4511 -0.824,0.5636 -1.8388,0.9236 -2.9318,1.0143 -1.4417,0.1196 -3.045,-0.2262 -4.5374,-1.1937 l -13.7623,-8.9246 c -0.691,-0.4479 -1.2852,-0.616 -1.7084,-0.5842 0.0462,0.0604 0.1069,0.1338 0.1828,0.2211 0.7526,0.8643 1.5395,1.8414 2.2712,2.8664 0.6261,0.8776 1.197,1.7765 1.6483,2.6475 0.3821,0.7376 0.523,1.5404 0.4411,2.2919 -0.0794,0.7256 -0.3626,1.4091 -0.8343,1.9598 -0.4816,0.5621 -1.1426,0.976 -1.9649,1.1464 -0.7631,0.1584 -1.6572,0.0989 -2.6513,-0.2708 -3.7644,-1.4003 -7.0469,-2.9086 -10.4292,-4.4625 -1.4567,-0.6693 -2.9327,-1.3473 -4.4167,-2.005 -6.1928,11.1824 -9.7197,24.0463 -9.7197,37.7343 0,18.2673 6.2802,35.0674 16.7981,48.3599 l 0.0204,-0.0621 c 1.3386,0.4411 3.0294,1.0142 4.7104,1.5834 3.1637,1.0715 6.328,2.1436 9.3498,3.06 0.9087,0.2755 1.6137,0.2809 2.0667,0.1114 0.0513,-0.019 0.0944,-0.0391 0.129,-0.0604 -0.1667,-0.4379 -0.3901,-0.8353 -0.6531,-1.2123 -0.2815,-0.4031 -0.6384,-0.8158 -1.0333,-1.2433 -0.8566,-0.9272 -1.3473,-2.0038 -1.4195,-2.9764 -0.0516,-0.7019 0.1017,-1.366 0.4742,-1.9358 0.3779,-0.5777 0.9513,-1.0125 1.7288,-1.2379 0.9516,-0.2758 2.2559,-0.2043 3.907,0.4125 2.9033,1.0848 5.4618,2.842 8.0068,4.591 l 0.003,-0.005 c 1.1883,0.8164 2.3749,1.6317 3.6011,2.3712 0.8589,0.5179 1.7139,0.8833 2.558,1.1123 0.8793,0.2387 1.7399,0.3314 2.5736,0.2985 0.9694,-0.0385 2.0347,-0.1925 2.7964,-0.6125 0.5093,-0.2807 0.8699,-0.7456 0.8631,-1.4984 -0.007,-0.6112 -0.2798,-1.3485 -0.553,-2.0878 -0.26,-0.7038 -0.5213,-1.4102 -0.6642,-2.2147 -0.1349,-0.7602 -0.1287,-1.4346 9e-4,-2.0202 0.2018,-0.9119 0.6828,-1.5786 1.3963,-2.0106 0.6336,-0.3844 1.3845,-0.5338 2.2187,-0.4621 0.8291,0.0712 1.7841,0.3657 2.8091,0.8623 2.7479,1.3315 5.3643,2.8154 7.983,4.3007 2.2118,1.2547 4.4263,2.5107 6.7249,3.6715 1.3342,0.6738 2.6396,0.9436 3.7647,0.9334 1.1729,-0.0105 2.0846,-0.3033 2.5395,-0.7296 0.2033,-0.1905 0.3056,-0.4487 0.3206,-0.7359 0.0233,-0.4456 -0.1256,-0.9629 -0.4144,-1.48 -0.5066,-0.9065 -0.8691,-2.0656 -0.898,-3.103 -0.0201,-0.7334 0.1156,-1.4378 0.4564,-2.0328 0.4149,-0.7234 1.0686,-1.2449 2.0174,-1.4422 0.6735,-0.1398 1.4811,-0.0941 2.4358,0.2052 2.9996,0.94 6.8899,2.8508 10.8754,4.8078 2.3967,1.177 4.8299,2.3718 7.1492,3.3863 0.7223,0.3161 1.4463,0.5462 2.2108,0.6596 0.7636,0.1134 1.5735,0.1134 2.4707,-0.0292 0.7871,-0.1253 1.4762,-0.3517 1.9332,-0.6689 0.1882,-0.1307 0.3064,-0.2503 0.3135,-0.3399 0.021,-0.2651 -0.0558,-0.5142 -0.218,-0.7421 -0.2537,-0.3569 -0.6865,-0.6928 -1.2719,-0.9987 -0.9028,-0.4714 -1.7731,-1.1837 -2.2062,-1.9032 -0.3342,-0.555 -0.4776,-1.1562 -0.3572,-1.7784 0.1336,-0.6891 0.5409,-1.2643 1.2955,-1.6554 0.7047,-0.3654 1.8601,-0.5607 3.621,-0.4462 2.8394,0.1848 5.3886,0.7021 7.9225,1.4493 2.4636,0.7266 4.9204,1.6796 7.6329,2.7579 l -1.249,3.1493 c -2.6062,-1.0361 -4.9669,-1.9517 -7.3409,-2.6519 -2.1591,-0.6366 -4.3251,-1.0893 -6.6994,-1.2812 0.5766,0.4144 1.0522,0.8796 1.4165,1.3918 0.6324,0.8889 0.9292,1.8856 0.8427,2.9747 -0.0958,1.2033 -0.7574,2.158 -1.7756,2.8644 -0.8821,0.6123 -2.0611,1.0253 -3.3279,1.2268 -1.2719,0.2024 -2.4171,0.203 -3.4939,0.0428 -1.0758,-0.1596 -2.081,-0.4776 -3.0748,-0.9125 -2.2975,-1.0048 -4.8084,-2.2379 -7.2819,-3.4526 -3.8444,-1.8875 -7.5966,-3.7306 -10.3969,-4.6082 -0.2143,-0.0672 -0.3833,-0.1075 -0.5122,-0.1245 l 8e-4,0.059 c 0.0133,0.487 0.2047,1.0686 0.4728,1.5486 0.5947,1.0646 0.8966,2.2147 0.8397,3.3003 -0.0601,1.1469 -0.5001,2.2059 -1.3836,3.0342 -1.0327,0.9678 -2.7856,1.6283 -4.8385,1.647 -1.6206,0.0144 -3.4702,-0.3586 -5.3192,-1.2924 -2.3471,-1.1851 -4.6108,-2.4692 -6.8712,-3.7513 -2.5571,-1.4505 -5.1123,-2.8996 -7.7839,-4.1942 -0.6463,-0.3132 -1.1951,-0.4943 -1.6129,-0.53 l -0.0443,-0.005 c -5e-4,0.1341 0.0173,0.3081 0.0556,0.5244 0.0899,0.5071 0.2979,1.0695 0.5049,1.6297 0.3696,0.9997 0.7384,1.9973 0.7525,3.2176 v 0.006 c 0.0261,2.2547 -1.0689,3.6541 -2.6172,4.5079 -1.2971,0.7158 -2.8944,0.9689 -4.2982,1.0248 -1.1902,0.047 -2.3938,-0.0786 -3.5963,-0.4051 -1.1364,-0.3087 -2.2807,-0.796 -3.422,-1.4842 -1.2602,-0.7603 -2.5095,-1.6183 -3.7604,-2.4778 v -0.006 c -2.3672,-1.6265 -4.7466,-3.2613 -7.2791,-4.2075 -0.6483,-0.2421 -1.1253,-0.3529 -1.4547,-0.3645 0.0862,0.1862 0.2358,0.4011 0.4447,0.6273 0.4624,0.5006 0.902,1.0151 1.3122,1.6021 0.4232,0.6066 0.7855,1.2572 1.0613,1.9936 0.2783,0.7427 0.2976,1.4783 0.0918,2.1572 -0.1618,0.5332 -0.4555,1.0077 -0.8648,1.4015 -0.3637,0.3497 -0.8215,0.6352 -1.3584,0.8365 -1.0891,0.4076 -2.5588,0.4626 -4.2324,-0.0451 -3.0682,-0.9303 -5.959,-1.9023 -8.837,-2.8769 0.5859,0.6256 1.1809,1.2419 1.7867,1.8476 14.1148,14.1149 33.6149,22.8453 55.1542,22.8453 21.5394,0 41.0395,-8.7304 55.1543,-22.8453 14.1148,-14.1148 22.8453,-33.6149 22.8453,-55.1542 0,-6.7525 -0.8584,-13.3042 -2.4713,-19.5531 l -1.9445,2.7017 c -3.1057,-2.2306 -6.3037,-4.2517 -9.5715,-6.0829 -3.2443,-1.8179 -6.5449,-3.437 -9.8813,-4.8782 -0.8138,-0.3514 -1.4834,-0.4855 -1.9797,-0.445 -0.184,0.0147 -0.305,0.0451 -0.3597,0.0862 l 0.01,10e-4 c -0.0196,0.1392 0.0207,0.3461 0.1284,0.6185 0.121,0.3059 0.2679,0.6202 0.411,0.9278 l -0.006,0.003 c 0.2514,0.5386 0.4957,1.0625 0.6845,1.6708 0.2189,0.7047 0.2778,1.3629 0.1999,1.9689 -0.1089,0.8476 -0.4703,1.5537 -1.0304,2.1175 -0.5006,0.5037 -1.1466,0.8717 -1.8961,1.1044 -0.9859,0.3064 -2.1841,0.3773 -3.4572,0.2134 -2.8321,-0.3645 -5.5989,-1.3161 -8.3477,-2.2609 -1.1642,-0.3999 -2.3258,-0.7996 -3.4804,-1.1483 l -0.25,-0.0745 c 0.1134,0.1097 0.2239,0.2239 0.3314,0.3415 h 0.007 c 0.3036,0.3323 0.5839,0.7022 0.8254,1.0834 0.4952,0.7818 0.7197,1.5234 0.7158,2.2156 -0.008,1.1571 -0.5672,2.0239 -1.5435,2.6237 -0.686,0.4216 -1.5973,0.6843 -2.6532,0.7991 -2.34,0.2546 -5.6648,-0.2083 -8.7058,-1.252 -3.2961,-1.1311 -6.5273,-2.6476 -9.7458,-4.1579 -1.7232,-0.8084 -3.4429,-1.616 -5.2591,-2.3936 -0.9048,-0.2752 -1.5732,-0.3469 -2.0112,-0.2639 0.0479,0.1605 0.1497,0.3631 0.3073,0.603 0.3481,0.53 0.6656,1.1205 0.8929,1.7492 0.2132,0.5834 0.3467,1.2039 0.3611,1.8476 0.0213,0.965 -0.1508,1.7853 -0.4782,2.4744 -0.4544,0.9558 -1.1724,1.6299 -2.0712,2.067 -0.7807,0.3796 -1.6912,0.561 -2.6672,0.5828 -1.9808,0.044 -4.31,-0.5967 -6.2767,-1.5312 -2.23,-1.0599 -4.4181,-2.3029 -6.6073,-3.5465 -2.3244,-1.3201 -4.6519,-2.6424 -6.9664,-3.7034 -1.1906,-0.546 -2.0872,-0.8283 -2.689,-0.8513 l -0.0408,-0.004 c -0.0144,0.4079 0.1097,1.0074 0.3728,1.7951 l 0.007,0.027 c 0.3359,1 0.6783,2.0245 0.7546,3.1799 0.0759,1.1469 -0.0607,2.226 -0.4578,3.1496 -0.3413,0.7934 -0.8652,1.4635 -1.5971,1.9615 h -0.006 c -0.6973,0.4743 -1.5534,0.7702 -2.5832,0.8382 -1.4604,0.0967 -3.3296,-0.2746 -5.6707,-1.2818 -3.202,-1.3773 -6.2788,-3.1011 -9.3209,-4.8053 -1.6685,-0.9348 -3.3273,-1.864 -4.8861,-2.6728 -0.8708,-0.4515 -1.51,-0.5995 -1.9085,-0.5425 0.0927,0.1956 0.3089,0.449 0.6681,0.7446 0.5454,0.4491 1.002,0.974 1.3751,1.5478 0.3863,0.5941 0.6862,1.2438 0.9051,1.9176 0.6814,2.0922 0.316,3.5399 -1.2005,4.3852 -1.0633,0.5933 -2.6994,0.623 -4.9776,0.1188 l -0.1395,-0.0332 -16.95,-5.3252 1.0097,-3.2422 16.9234,5.3166 c 1.3691,0.2974 2.1909,0.3665 2.4865,0.2019 0.1485,-0.0828 -0.2721,-0.044 -0.3787,-0.3725 v -0.007 c -0.1284,-0.3966 -0.3016,-0.7742 -0.5221,-1.1132 -0.1922,-0.2954 -0.4199,-0.5598 -0.684,-0.7772 -1.313,-1.0812 -1.925,-2.34 -1.9565,-3.46 -0.0201,-0.7024 0.1757,-1.3499 0.5638,-1.8947 0.3759,-0.527 0.9125,-0.9334 1.5865,-1.171 1.1719,-0.4136 2.8358,-0.3047 4.7537,0.69 1.7266,0.8957 3.3554,1.8079 4.9927,2.7255 2.958,1.6568 5.9496,3.3332 9.0017,4.646 1.8199,0.7829 3.164,1.0788 4.1162,1.0159 0.396,-0.0261 0.6888,-0.114 0.8909,-0.25 l -0.002,-0.003 c 0.1676,-0.114 0.296,-0.286 0.3878,-0.5001 0.1772,-0.4124 0.2336,-0.9632 0.1919,-1.595 -0.0476,-0.7243 -0.3172,-1.5302 -0.5797,-2.3171 l -0.007,-0.0269 c -0.4334,-1.2909 -0.6086,-2.38 -0.5286,-3.2612 0.0884,-0.9769 0.4668,-1.7394 1.1327,-2.2819 0.6259,-0.51 1.4258,-0.7484 2.3973,-0.7118 1.0513,0.0402 2.3791,0.424 3.9775,1.1568 2.4772,1.1356 4.8561,2.4871 7.2324,3.8367 2.1225,1.2056 4.244,2.4109 6.3816,3.4268 1.5514,0.7373 3.3281,1.2438 4.7619,1.2121 0.4935,-0.0108 0.9267,-0.0893 1.2583,-0.2506 0.2135,-0.1037 0.3799,-0.2545 0.4771,-0.4592 0.1105,-0.2327 0.1681,-0.5491 0.159,-0.9595 -0.005,-0.2387 -0.0649,-0.4969 -0.1596,-0.7589 v -0.006 c -0.1284,-0.3563 -0.3206,-0.7095 -0.536,-1.0377 -0.5766,-0.8774 -0.8722,-1.7439 -0.8975,-2.532 -0.0263,-0.8183 0.2186,-1.5463 0.7237,-2.1387 0.4649,-0.5451 1.1169,-0.9278 1.942,-1.1066 0.9868,-0.2135 2.2845,-0.129 3.8455,0.3574 l 0.0723,0.0224 0.0873,0.0374 c 1.764,0.7532 3.6079,1.6189 5.4547,2.4852 3.0909,1.4502 6.1937,2.9066 9.4136,4.0115 2.6008,0.8927 5.3657,1.2972 7.2442,1.0928 0.4621,-0.0502 0.8362,-0.1327 1.0931,-0.2483 l -0.1236,-0.2078 c -0.127,-0.2007 -0.2858,-0.4073 -0.4666,-0.6055 l 0.004,-0.003 c -0.1542,-0.1681 -0.326,-0.3257 -0.5089,-0.4612 -1.4176,-1.0511 -2.285,-1.9814 -2.6399,-2.7374 -0.3849,-0.8201 -0.3523,-1.5732 0.0788,-2.2419 0.3711,-0.5754 0.9686,-0.9326 1.7762,-1.0596 0.9888,-0.1551 2.592,0.0601 4.6965,0.6959 1.1888,0.3592 2.3933,0.7733 3.6,1.188 2.6121,0.898 5.2412,1.802 7.6702,2.1147 0.7963,0.1023 1.5027,0.0717 2.0353,-0.0939 0.2206,-0.0683 0.3886,-0.1539 0.4879,-0.254 0.0396,-0.0399 0.0657,-0.0907 0.0734,-0.1508 0.017,-0.1321 -0.008,-0.3129 -0.0802,-0.5471 -0.1262,-0.4067 -0.317,-0.8152 -0.5128,-1.235 h -0.007 c -0.1622,-0.3481 -0.3277,-0.703 -0.4904,-1.1137 -0.3288,-0.8303 -0.4283,-1.6203 -0.328,-2.3324 0.1242,-0.8796 0.5375,-1.6112 1.1945,-2.1503 0.5939,-0.487 1.3584,-0.7878 2.2513,-0.8609 1.0151,-0.0834 2.2408,0.1292 3.5875,0.7109 3.4353,1.4839 6.842,3.1555 10.2005,5.0374 3.3145,1.8576 6.5974,3.934 9.8305,6.2527 -3.5404,-13.646 -10.6815,-25.8412 -20.3496,-35.5093 -14.1148,-14.1148 -33.6149,-22.8453 -55.1543,-22.8453 z m 21.7296,44.1856 -0.6758,-0.9139 c -1.1653,-1.5692 -2.01,-2.7062 -3.2258,-4.7004 -0.6772,-1.1103 -0.8836,-2.1767 -0.7455,-3.0722 0.106,-0.6879 0.4116,-1.2821 0.8716,-1.7441 0.4564,-0.4581 1.0423,-0.7622 1.7161,-0.8773 0.8949,-0.1531 1.9539,0.0374 3.0232,0.6749 0.9686,0.5777 1.811,1.0947 2.6472,1.6075 5.4012,3.3137 10.5316,6.4607 16.3662,6.2158 0.3747,-0.0156 0.8676,-0.1085 1.2597,-0.3121 0.0972,-0.0504 0.1749,-0.0989 0.2182,-0.1406 -0.011,-0.0793 -0.0567,-0.1998 -0.1445,-0.369 -0.4907,-0.9437 -1.3802,-1.7677 -2.2595,-2.5824 -0.3365,-0.3112 -0.6707,-0.6208 -0.8652,-0.811 h -0.007 c -1.0091,-0.987 -1.5826,-2.0134 -1.7915,-2.9605 -0.1766,-0.8008 -0.1,-1.5531 0.1919,-2.2099 0.3048,-0.6854 0.8266,-1.2319 1.5262,-1.5928 0.7455,-0.3846 1.6841,-0.5476 2.7437,-0.415 2.7411,0.3439 6.0383,1.4378 9.3962,2.8231 3.2945,1.3595 6.6289,2.9888 9.5361,4.4546 l -1.5279,3.0297 c -2.8667,-1.4454 -6.1387,-3.0456 -9.2968,-4.3486 -3.0937,-1.2765 -6.0973,-2.28 -8.5198,-2.5838 -0.3478,-0.0434 -0.6018,-0.0236 -0.7552,0.0456 l 0.0142,0.0663 c 0.072,0.3269 0.3441,0.7541 0.8612,1.2598 l -0.003,0.003 c 0.3441,0.3364 0.5709,0.5462 0.7954,0.7543 1.11,1.0284 2.2328,2.0681 2.9766,3.499 0.3351,0.6452 0.4952,1.2575 0.5196,1.8321 0.034,0.8203 -0.2092,1.5111 -0.6313,2.086 -0.3738,0.5094 -0.8682,0.8943 -1.4099,1.1758 -0.8643,0.449 -1.9114,0.6517 -2.6952,0.6846 -6.8621,0.2883 -12.4172,-3.1196 -18.2659,-6.7079 -0.9028,-0.5539 -1.8142,-1.1129 -2.6206,-1.594 -0.1922,-0.1145 -0.356,-0.1856 -0.4881,-0.2191 0.038,0.1471 0.1216,0.3342 0.2596,0.5607 1.1449,1.878 1.9471,2.9577 3.0535,4.4476 l 0.6888,0.9275 z m 19.6758,-10.813 c 0.003,-0.007 0.005,-0.0105 0,0 z m -110.0009,41.0029 c 1.4553,0.8325 3.0132,1.3206 4.5331,1.4828 1.5503,0.1655 3.062,-0.007 4.3818,-0.4964 h 0.007 c 0.0859,-0.0317 0.1474,-0.0584 0.1829,-0.0788 v -0.006 c 0.0626,-0.0357 0.087,-0.0326 0.0898,-0.0411 0.003,-0.007 -0.013,-0.0567 -0.0465,-0.1471 l -0.0209,-0.0522 c -0.1999,-0.2052 -0.3918,-0.4144 -0.5755,-0.6151 l -0.003,0.003 c -0.3112,-0.3393 -0.5952,-0.6491 -0.9839,-0.9725 -1.1117,-0.925 -1.749,-1.8199 -1.9706,-2.5818 -0.2044,-0.6996 -0.1253,-1.3428 0.2097,-1.9024 0.3232,-0.5394 0.8309,-0.909 1.5018,-1.0854 0.8005,-0.2103 1.9514,-0.1213 3.3248,0.3507 1.527,0.5252 3.0291,1.061 4.5323,1.597 4.9998,1.785 10.0295,3.5782 14.8337,4.6029 0.7243,0.1545 1.3263,0.1517 1.779,0.036 0.1874,-0.0479 0.3271,-0.1097 0.4159,-0.1791 -0.1576,-0.6052 -0.3178,-1.0199 -0.5267,-1.3709 -0.2157,-0.3628 -0.5462,-0.748 -1.0191,-1.2634 -1.0219,-1.1128 -1.5114,-2.2374 -1.5825,-3.2334 -0.0556,-0.7748 0.1343,-1.4803 0.5264,-2.0753 v -0.007 c 0.384,-0.5819 0.9493,-1.0227 1.6542,-1.2849 0.9392,-0.3487 2.1371,-0.3649 3.439,0.0745 3.4356,1.1594 6.6289,2.706 9.7813,4.233 3.1821,1.5415 6.3229,3.0628 9.4677,4.0657 0.9799,0.3124 2.2138,0.506 3.2757,0.4536 0.4907,-0.0241 0.9102,-0.1007 1.1818,-0.2427 l -0.0343,-0.1301 c -0.2897,-0.9587 -0.9862,-1.8136 -1.6974,-2.6867 -0.3833,-0.4705 -0.7708,-0.9459 -1.1189,-1.4417 -0.6377,-0.9088 -0.9331,-1.8056 -0.9382,-2.6186 -0.005,-0.7878 0.2523,-1.48 0.7356,-2.0393 0.4439,-0.513 1.0559,-0.8776 1.8022,-1.0587 0.9576,-0.2327 2.1847,-0.1545 3.5555,0.3365 l 0.002,-0.006 c 3.9841,1.4272 7.8126,3.3148 11.6309,5.197 1.8935,0.9332 3.7856,1.8664 5.5936,2.6947 0.7772,0.356 1.5814,0.5638 2.3955,0.6482 0.9012,0.093 1.8216,0.036 2.738,-0.1369 0.843,-0.159 1.2943,-0.3027 1.368,-0.4365 l -0.3617,-0.5652 c -0.2356,-0.288 -0.5139,-0.5947 -0.792,-0.9009 -0.6797,-0.7483 -1.3595,-1.4975 -1.946,-2.5376 l 0.005,-0.003 c -0.6412,-1.1387 -0.8742,-2.1538 -0.7945,-2.9871 0.0728,-0.7628 0.3821,-1.3879 0.881,-1.8579 0.4756,-0.4478 1.0905,-0.7146 1.8014,-0.7869 0.8977,-0.091 1.9913,0.1559 3.1218,0.7818 2.4925,1.3808 4.6613,2.6467 6.8165,3.9048 3.4897,2.0366 6.9497,4.0566 10.4462,5.8393 0.9079,0.4626 1.794,0.8198 2.645,1.0369 0.8005,0.2044 1.5613,0.2861 2.2683,0.2152 0.233,-0.0233 0.4586,-0.0587 0.6715,-0.1066 0.4765,-0.1071 0.8617,-0.2659 1.076,-0.481 0.1069,-0.1075 0.1619,-0.2739 0.1381,-0.5117 -0.007,-0.0652 -0.0187,-0.138 -0.0363,-0.2163 -0.1655,-0.7361 -0.3753,-1.4527 -0.6384,-2.1597 -0.261,-0.7018 -0.5853,-1.4156 -0.983,-2.1529 -0.4161,-0.7716 -0.5746,-1.5009 -0.5281,-2.1682 0.0618,-0.8946 0.4618,-1.6214 1.1015,-2.1665 0.5284,-0.4505 1.2104,-0.7521 1.9724,-0.8955 1.0885,-0.2047 2.4148,-0.0902 3.6839,0.381 3.9257,1.4573 7.8435,2.9386 11.6674,4.6043 3.8874,1.6931 7.6876,3.5756 11.319,5.8102 l -1.7807,2.8964 c -3.5184,-2.1651 -7.1714,-3.9764 -10.8938,-5.5976 -3.786,-1.6492 -7.638,-3.1059 -11.4945,-4.5374 -0.6789,-0.252 -1.3527,-0.32 -1.8766,-0.2217 -0.1142,0.0213 -0.2094,0.0474 -0.2812,0.0766 0.021,0.055 0.0539,0.125 0.1001,0.2106 0.4595,0.8521 0.8459,1.7076 1.1696,2.5781 0.322,0.8651 0.5751,1.7263 0.771,2.5979 0.0479,0.2132 0.0822,0.4233 0.1026,0.6285 0.1364,1.3564 -0.2987,2.4233 -1.108,3.2357 -0.7025,0.705 -1.6631,1.1563 -2.7366,1.3978 -0.3484,0.0782 -0.7121,0.1358 -1.0837,0.1729 -1.1324,0.1137 -2.2816,9e-4 -3.4378,-0.2945 -1.1056,-0.2821 -2.2252,-0.7299 -3.3492,-1.3028 -3.5994,-1.8352 -7.0943,-3.8753 -10.6186,-5.9324 -2.3241,-1.3566 -4.6615,-2.7212 -6.7501,-3.878 -0.2529,-0.1401 -0.4785,-0.2393 -0.6718,-0.3002 0.0606,0.1496 0.1465,0.3254 0.2611,0.5286 h 0.007 c 0.3982,0.7064 0.9464,1.3102 1.4941,1.9134 0.3163,0.3481 0.6338,0.6979 0.9711,1.1174 l 0.0482,0.0599 0.0516,0.0796 c 1.0114,1.5602 1.2127,2.9211 0.5477,4.129 -0.5933,1.0774 -1.8182,1.7784 -3.7196,2.1373 -1.2221,0.2304 -2.4668,0.305 -3.708,0.1766 -1.1673,-0.1211 -2.3279,-0.4221 -3.4586,-0.9403 -1.9698,-0.9028 -3.827,-1.8184 -5.6866,-2.7348 -3.7034,-1.8258 -7.4171,-3.6567 -11.2725,-5.0378 v -0.006 c -0.6491,-0.2327 -1.1628,-0.3047 -1.5188,-0.25 0.0499,0.1267 0.1423,0.2891 0.2815,0.4873 0.3118,0.4442 0.6443,0.8521 0.9731,1.2557 0.932,1.1438 1.8445,2.264 2.3216,3.8427 0.1703,0.5635 0.2191,1.0907 0.1638,1.5808 -0.1338,1.1861 -0.7943,2.0064 -1.7841,2.5322 -0.7285,0.3872 -1.6447,0.5828 -2.6232,0.6313 -1.4525,0.072 -3.1309,-0.1902 -4.4583,-0.6134 -3.426,-1.0928 -6.6518,-2.6552 -9.9196,-4.2381 -3.0691,-1.4865 -6.1781,-2.9925 -9.3821,-4.0737 -0.5116,-0.1726 -0.9037,-0.2029 -1.1514,-0.1241 0.0357,0.2747 0.2494,0.6576 0.6882,1.1355 0.6004,0.6546 1.0426,1.1821 1.4312,1.8349 0.3904,0.6559 0.6656,1.3513 0.9108,2.3085 h 0.007 c 0.1321,0.5176 0.1409,1.0307 0.0357,1.5228 -0.1494,0.701 -0.5221,1.3178 -1.0859,1.8096 v 0.007 c -0.4811,0.4186 -1.0999,0.739 -1.8292,0.9255 -0.9204,0.2353 -2.0526,0.2605 -3.3205,-0.01 -5.0295,-1.073 -10.1625,-2.903 -15.2657,-4.7226 h -0.007 c -1.0644,-0.3795 -2.1277,-0.7588 -3.176,-1.1262 l 0.2027,0.2197 v 0.007 c 0.1758,0.1919 0.3629,0.3957 0.6622,0.69 l 0.1752,0.172 0.1105,0.1934 c 0.1364,0.2384 0.2515,0.483 0.343,0.7313 0.3169,0.8555 0.3288,1.6875 0.0595,2.446 -0.2755,0.7736 -0.8186,1.4114 -1.6041,1.8615 l -0.003,-0.005 c -0.2279,0.1307 -0.4604,0.2412 -0.6925,0.3274 -1.7989,0.6693 -3.8421,0.9065 -5.9224,0.6843 -1.9786,-0.2112 -3.9935,-0.8391 -5.8621,-1.908 z m 32.2049,-0.0579 c -10e-4,0.008 -0.002,0.0117 6e-4,9e-4 10e-4,-0.007 8e-4,-0.005 -6e-4,-9e-4 z m -0.004,0.0125 -0.003,0.006 0.005,-10e-4 z m 0.2151,-6.1183 c -0.002,0.003 -0.002,0.003 0,0 z m 25.9815,5.4828 c -0.001,0.0422 -0.004,0.0842 9e-4,0.0402 z m -9.4164,-20.0829 c -0.0323,0.0263 -0.0136,0.0139 0.0162,-0.005 -0.004,-0.002 -0.009,-10e-4 -0.0162,0.005 z m 71.4014,-3.7797 c -0.007,0.006 0.003,-9e-4 0.01,-0.003 z m -78.9086,97.217 c -0.4403,-0.6602 -0.8845,-1.4307 -1.3309,-2.2057 -0.3045,-0.5283 -0.6112,-1.0598 -0.9173,-1.5485 l -0.003,0.002 c -0.5732,-0.9139 -0.8249,-1.8051 -0.8173,-2.6003 0.007,-0.7747 0.252,-1.4578 0.6877,-2.0086 0.4352,-0.5499 1.0381,-0.9394 1.7649,-1.1299 0.7719,-0.2024 1.6852,-0.174 2.6563,0.1457 1.336,0.44 2.9257,1.2178 4.7245,2.0979 3.392,1.6589 7.5909,3.7134 12.0385,4.2855 l 0.646,0.0839 c 1.7206,0.2284 3.3012,0.4382 4.1292,0.0524 -0.1046,-0.1412 -0.2613,-0.3195 -0.4484,-0.5176 -0.5403,-0.572 -1.1928,-1.0613 -1.8867,-1.5809 -0.6211,-0.4654 -1.2722,-0.9536 -1.963,-1.5729 -0.9321,-0.8363 -1.4655,-1.6232 -1.6762,-2.3392 -0.2539,-0.8629 -0.1108,-1.6234 0.3527,-2.2745 0.375,-0.5258 0.9314,-0.9028 1.6214,-1.1361 1.0494,-0.3555 2.573,-0.4014 4.2123,-0.1443 2.9724,0.4669 6.0786,1.5315 9.1346,2.8811 2.9775,1.3147 5.9601,2.9279 8.7285,4.5193 1.0692,0.6145 2.0602,1.0057 2.8559,1.1129 0.3492,0.047 0.6142,0.0377 0.7673,-0.0366 0.0196,-0.009 0.0411,-0.0519 0.0635,-0.1315 0.0677,-0.241 0.0703,-0.6007 -0.005,-1.0922 v -0.006 c -0.0655,-0.4269 -0.3234,-0.8759 -0.5987,-1.3547 -0.3971,-0.6914 -0.8189,-1.4253 -1.0862,-2.4571 -0.2364,-0.9113 -0.3541,-1.777 -0.2996,-2.5268 0.0595,-0.8268 0.3189,-1.5528 0.8277,-2.1271 0.5516,-0.6239 1.3107,-0.9907 2.3159,-1.0242 0.6134,-0.0201 1.3187,0.0902 2.1226,0.3564 1.8697,0.6188 3.8732,1.4856 5.8858,2.4681 1.9078,0.9309 3.9257,2.027 5.8709,3.1266 l -1.6611,2.9497 c -1.7796,-1.006 -3.7029,-2.0466 -5.698,-3.02 -1.8901,-0.9227 -3.7533,-1.7305 -5.4606,-2.2958 -0.3441,-0.1139 -0.6129,-0.1757 -0.8147,-0.1924 -0.0269,0.3784 0.0479,0.8753 0.193,1.4351 0.1557,0.601 0.4573,1.1257 0.741,1.6197 0.4459,0.7759 0.8635,1.5035 1.0228,2.5311 0.1522,0.9799 0.1122,1.8204 -0.0865,2.5268 -0.3056,1.0862 -0.9527,1.8315 -1.8573,2.2711 -0.7713,0.375 -1.6888,0.4779 -2.6943,0.3422 -1.2248,-0.1653 -2.6427,-0.7053 -4.0918,-1.5381 -2.6376,-1.5163 -5.4984,-3.0617 -8.4093,-4.3469 -2.8329,-1.2513 -5.6636,-2.2303 -8.2842,-2.6419 -0.7186,-0.1128 -1.3669,-0.1525 -1.8836,-0.1163 l 0.1502,0.1375 c 0.5763,0.5168 1.1707,0.9624 1.7374,1.387 0.8254,0.6183 1.6015,1.1999 2.3249,1.9658 0.7691,0.8142 1.3462,1.6903 1.4777,2.6334 0.1764,1.2646 -0.3126,2.3687 -1.8408,3.1808 -1.7552,0.9323 -3.8942,0.6486 -6.2271,0.3384 l -0.6395,-0.0839 c -5.0023,-0.6457 -9.4785,-2.8357 -13.095,-4.6046 -1.6463,-0.8056 -3.1013,-1.5173 -4.2993,-1.9119 -0.2727,-0.0896 -0.4909,-0.123 -0.6494,-0.1083 0.0264,0.1689 0.1194,0.3915 0.2911,0.6653 v 0.007 c 0.3719,0.5933 0.6806,1.1282 0.9868,1.6594 0.3631,0.6304 0.7248,1.2572 1.2243,2.0066 z m 23.7047,-2.6167 c 0.0153,0.0797 0.0241,0.1293 0.0124,0.0462 z M 238.5462,484.9951 c 15.0384,-15.0383 35.8141,-24.3402 58.7616,-24.3402 22.9476,0 43.7233,9.3019 58.7617,24.3402 15.0383,15.0384 24.3402,35.8141 24.3402,58.7617 0,22.9475 -9.3019,43.7232 -24.3402,58.7616 -15.0384,15.0384 -35.8141,24.3402 -58.7617,24.3402 -22.9475,0 -43.7232,-9.3018 -58.7616,-24.3402 -15.0384,-15.0384 -24.3402,-35.8141 -24.3402,-58.7616 0,-22.9476 9.3018,-43.7233 24.3402,-58.7617 z"
       style="fill:#231f20;fill-rule:evenodd"
       id="path42"
       inkscape:connector-curvature="0" />
    <path
       d="m 297.4201,324.2081 c 9.2509,10.2418 15.4491,21.6578 19.4998,33.9001 l 22.8002,-0.2999 c 5.8646,20.008 6.7796,39.8429 4.8183,57.6751 L 274.32,370.7082 c 4.5456,-18.6543 11.7539,-34.6459 23.1001,-46.5001 z"
       style="fill:#fff200;fill-rule:evenodd"
       id="path44"
       inkscape:connector-curvature="0" />
    <path
       d="m 250.5453,383.3467 69.6001,44.5881 c -4.4234,17.7132 -10.6934,33.969 -22.7233,45.6769 -7.6275,-7.315 -14.5735,-17.3562 -19.8,-34.2751 l -20.8503,2.3998 c -6.2991,-17.7355 -8.7275,-37.0539 -6.2265,-58.3897 z"
       style="fill:#fff200;fill-rule:evenodd"
       id="path46"
       inkscape:connector-curvature="0" />
    <path
       d="m 297.4221,284.5346 c 34.7652,22.771 56.4151,67.51 56.3794,113.7711 -0.0241,31.4736 -12.0912,82.6775 -56.3803,111.6785 -36.0555,-23.0037 -56.9335,-70.4713 -56.785,-113.7761 -0.5573,-49.22 23.7421,-91.2476 56.7859,-111.6735 z"
       style="fill:none"
       id="path48"
       inkscape:connector-curvature="0" />
    <path
       d="m 274.32,370.7082 c 4.5456,-18.6543 11.7539,-34.6459 23.1001,-46.5001 9.2509,10.2418 15.4491,21.6578 19.4998,33.9001 l 22.8002,-0.2999 c 5.8646,20.008 6.7796,39.8429 4.8183,57.6751 z m 23.1021,-86.1736 c -33.0438,20.4259 -57.3432,62.4535 -56.7859,111.6735 -0.1485,43.3048 20.7295,90.7724 56.785,113.7761 44.2891,-29.001 56.3562,-80.2049 56.3803,-111.6785 0.0357,-46.2611 -21.6142,-91.0001 -56.3794,-113.7711 z m -46.8768,98.8121 69.6001,44.5881 c -4.4234,17.7132 -10.6934,33.969 -22.7233,45.6769 -7.6275,-7.315 -14.5735,-17.3562 -19.8,-34.2751 l -20.8503,2.3998 c -6.2991,-17.7355 -8.7275,-37.0539 -6.2265,-58.3897 z"
       style="fill:#231f20;fill-rule:evenodd"
       id="path50"
       inkscape:connector-curvature="0" />
    <path
       d="m 237.2635,540.1783 z m 20.7403,3.3333 c -5.0295,-1.073 -10.1625,-2.903 -15.2657,-4.7226 l -3.1828,-1.1262 c 0.7906,0.8572 1.1112,0.9788 1.4936,2.0132 0.6338,1.7152 0.0323,3.4038 -1.5446,4.3075 l -0.003,-0.005 c -1.6818,0.9644 -4.5536,1.2319 -6.6149,1.0117 -1.9786,-0.2112 -3.9935,-0.8391 -5.8621,-1.908 l 1.6878,-2.9497 c 1.4553,0.8325 3.0132,1.3206 4.5331,1.4828 1.5503,0.1655 3.062,-0.007 4.3818,-0.4964 l 0.1894,-0.0788 v -0.006 l 0.0224,-0.2404 -0.5789,-0.612 c -1.1741,-1.2801 -2.5228,-2.0738 -2.9545,-3.5543 -0.4017,-1.378 0.339,-2.6272 1.7115,-2.9878 0.8005,-0.2103 1.9514,-0.1213 3.3248,0.3507 6.3456,2.1818 13.0912,4.8614 19.366,6.1999 0.7203,0.1537 1.7637,0.1945 2.1949,-0.1431 -0.3266,-1.2538 -0.6429,-1.6506 -1.5458,-2.6343 -1.0219,-1.1128 -1.5114,-2.2374 -1.5825,-3.2334 -0.1968,-2.7488 2.5188,-4.3388 5.6196,-3.2925 6.7754,2.2864 12.9875,6.3023 19.249,8.2987 1.0358,0.3303 3.4347,0.7458 4.4575,0.2109 -0.6378,-2.4196 -3.7715,-4.0955 -3.7888,-6.8771 -0.0179,-2.8667 3.0177,-3.8631 6.0933,-2.7615 l 0.002,-0.006 c 5.9624,2.1359 11.5308,5.2835 17.2245,7.8917 1.6347,0.7489 3.3831,0.8416 5.1335,0.5113 0.843,-0.159 1.2943,-0.3027 1.368,-0.4365 -1.0273,-1.6055 -2.0353,-2.1161 -3.0997,-4.0037 l 0.005,-0.003 c -2.3785,-4.2239 0.9326,-7.1079 5.0097,-4.8501 5.9414,3.2905 11.4075,6.7598 17.2627,9.7441 1.7501,0.8921 3.714,1.5664 5.5848,1.1455 0.9173,-0.2064 1.3479,-0.4527 1.1778,-1.209 l -1.6214,-4.3126 c -1.9755,-3.6629 1.7413,-6.5154 6.2297,-4.8492 7.9262,2.9423 15.7569,5.966 22.9864,10.4145 l -1.7807,2.8964 c -7.0489,-4.3379 -14.6891,-7.2771 -22.3883,-10.135 l -2.1578,-0.1451 1.2697,2.7887 c 0.7968,2.1419 1.5891,4.6318 -0.2344,6.4621 -1.7757,1.7822 -4.9445,1.8669 -7.2581,1.2762 -1.1056,-0.2821 -2.2252,-0.7299 -3.3492,-1.3028 -5.809,-2.9614 -11.7445,-6.6954 -17.3687,-9.8104 -0.2529,-0.1401 -0.4785,-0.2393 -0.6718,-0.3002 0.0606,0.1496 0.1465,0.3254 0.2611,0.5286 h 0.007 c 0.7219,1.2804 2.0469,2.3707 2.565,3.1703 2.0753,3.2029 0.561,5.5621 -3.1719,6.2663 -2.4305,0.4583 -4.8759,0.286 -7.1666,-0.7637 -5.6622,-2.5948 -11.1702,-5.699 -16.9591,-7.7726 v -0.006 c -0.6491,-0.2327 -1.1628,-0.3047 -1.5188,-0.25 0.4861,1.2345 4.0765,4.1834 3.74,7.1665 -0.4396,3.8968 -6.08,3.4385 -8.8656,2.5501 -6.6492,-2.1203 -12.6921,-6.0817 -19.3017,-8.3118 -0.5116,-0.1726 -0.9037,-0.2029 -1.1514,-0.1241 0.1494,1.1494 2.118,1.7172 3.0302,5.2789 h 0.007 c 0.3175,1.2444 -0.0754,2.4823 -1.0502,3.3324 v 0.007 c -1.3082,1.1384 -3.2851,1.3133 -5.1497,0.9156 z m 16.9551,-16.7885 z m 54.9335,-3.3693 z m 19.2098,-7.7703 c -8e-4,6e-4 -0.002,0.001 -0.002,0.004 0.001,-8e-4 0.003,-10e-4 0.002,-0.004 z m -94.86,14.0709 c -0.9967,0.5559 -2.9956,0.6704 -5.1171,0.0856 l -16.95,-5.3252 1.0097,-3.2422 16.9234,5.3166 c 1.3691,0.2974 2.1909,0.3665 2.4865,0.2019 l -0.3787,-0.3793 -1.2061,-1.8904 c -4.3087,-3.547 -0.9783,-8.9096 4.9475,-5.8357 4.673,2.4239 9.235,5.3243 13.9944,7.3715 1.7683,0.7605 4.0493,1.4108 5.0051,0.7628 0.5559,-0.3782 0.6285,-1.3567 0.5797,-2.0951 -0.125,-1.8992 -2.5041,-5.8326 0.0176,-7.8871 1.6563,-1.3496 4.2114,-0.5468 6.3748,0.445 4.6815,2.1461 9.0414,5.0905 13.614,7.2635 1.6157,0.7679 4.5482,1.6773 6.0202,0.9615 0.5329,-0.2591 0.65,-0.7747 0.6361,-1.4187 -0.0309,-1.4236 -1.529,-2.3412 -1.5931,-4.3351 -0.0533,-1.6588 1.029,-2.891 2.6657,-3.2453 0.849,-0.184 2.7153,-0.1344 4.0051,0.4172 4.8852,2.0897 9.8192,4.7639 14.8683,6.4967 2.4817,0.8519 6.6642,1.5979 8.3373,0.8445 l -0.5865,-0.8167 c -0.8507,-0.9272 -4.6038,-3.0617 -3.07,-5.4405 1.5784,-2.448 7.2071,-0.1607 10.0727,0.8243 1.7033,0.5854 8.8106,3.1604 10.1934,1.7668 0.2982,-0.3007 -0.3663,-1.6041 -0.5196,-1.9329 h -0.007 c -0.5364,-1.1517 -0.9967,-2.1815 -0.8184,-3.4461 0.2497,-1.7705 1.6696,-2.8655 3.4458,-3.0112 1.0151,-0.0834 2.2408,0.1292 3.5875,0.7109 7.0356,3.039 13.701,6.7504 20.031,11.2901 -5.7248,-22.0649 -20.7436,-40.1102 -40.4263,-50.0323 -8.4188,13.4484 -19.8036,25.9775 -34.9642,35.9047 -13.9821,-8.9206 -25.6819,-21.5203 -34.7578,-36.1295 -13.1032,6.5015 -24.1983,16.615 -31.9198,29.2232 2.1753,0.9666 14.6783,6.8995 15.1687,6.3306 0.4621,-0.536 -3.0435,-4.788 -3.5127,-5.3271 -3.2559,-3.7406 1.0162,-7.9039 5.9369,-4.7132 l 13.7622,8.9246 c 2.1283,1.3799 4.8884,0.4116 4.2324,-1.3935 l -1.2469,-3.4314 c -1.1535,-3.1745 -0.8453,-5.1468 0.7588,-6.116 1.3365,-0.8076 3.4398,-0.5023 6.2223,0.7016 4.0156,1.7373 7.7088,4.0558 11.2601,6.0602 l -1.6611,2.9497 c -3.7914,-2.1399 -7.2068,-4.2851 -10.9409,-5.9009 -1.7396,-0.7526 -2.8227,-1.0839 -3.1263,-0.9005 l 1.923,5.4813 c 1.7768,4.8909 -4.2486,8.6479 -9.2684,5.3932 l -13.7623,-8.9246 c -0.691,-0.4479 -1.2852,-0.616 -1.7084,-0.5842 l 2.454,3.0875 c 1.0732,1.504 2.2804,3.1901 2.0894,4.9394 -0.2781,2.5469 -2.7474,3.8409 -5.4505,2.8354 -5.3458,-1.9882 -9.8135,-4.2372 -14.8459,-6.4675 -15.2413,27.5213 -12.3477,61.5436 7.0784,86.0942 l 0.0204,-0.0621 14.0602,4.6434 c 0.8926,0.2707 1.7798,0.3067 2.1957,0.051 -0.8334,-2.1897 -2.9211,-2.9324 -3.1059,-5.432 -0.1097,-1.4831 0.7177,-2.7431 2.203,-3.1737 3.3965,-0.9844 9.163,3.113 11.9138,5.0035 l 0.003,-0.005 c 2.7315,1.8766 5.3076,3.9178 8.7327,3.782 1.4329,-0.0567 3.6779,-0.32 3.6595,-2.1109 -0.0159,-1.5387 -1.7552,-3.8875 -1.2163,-6.3227 0.3903,-1.7635 1.8748,-2.6221 3.615,-2.4727 0.8291,0.0712 1.7841,0.3657 2.8091,0.8623 5.0837,2.463 9.6891,5.4377 14.7079,7.9722 1.959,0.9893 5.0343,1.3941 6.3042,0.2038 1.1339,-1.0627 -0.9204,-2.7374 -0.9918,-5.3189 -0.0771,-2.7828 2.0525,-4.1653 4.9096,-3.2698 4.7007,1.4734 12.6836,5.8572 18.0246,8.1941 1.5308,0.6698 2.9713,0.9026 4.6815,0.6304 0.737,-0.1173 2.2135,-0.5899 2.2467,-1.0088 0.1191,-1.5058 -2.5432,-1.7292 -3.6961,-3.644 -0.7506,-1.2466 -0.4425,-2.7181 0.9383,-3.4338 2.4298,-1.2598 9.0261,0.2607 11.5435,1.0031 2.4636,0.7266 4.9204,1.6796 7.6329,2.7579 l -1.249,3.1493 c -4.7778,-1.8995 -8.9938,-3.5252 -14.0403,-3.9331 3.528,2.5359 3.2814,7.4832 -2.8443,8.4577 -2.3984,0.3816 -4.4342,0.0641 -6.5687,-0.8697 -3.8415,-1.6803 -15.8264,-7.8735 -18.191,-8.1853 0.0226,1.5642 1.4431,2.4313 1.3133,4.9079 -0.2532,4.8269 -6.7527,5.8068 -11.5413,3.3888 -4.9972,-2.5234 -9.6299,-5.5102 -14.6551,-7.9455 l -1.6572,-0.5346 c -0.006,1.3853 1.3006,3.1995 1.313,5.3782 0.0318,5.4913 -6.6418,6.1787 -10.5117,5.1276 -2.624,-0.7126 -4.9076,-2.399 -7.1824,-3.962 v -0.006 c -1.9205,-1.3195 -6.5829,-4.4961 -8.7338,-4.572 0.3713,0.8025 5.072,4.8702 2.0452,7.7817 -1.3264,1.2758 -3.5079,1.4229 -5.5908,0.7914 -3.0682,-0.9303 -5.959,-1.9023 -8.837,-2.8769 30.1195,32.1596 80.9025,33.0403 112.0952,1.8476 19.2569,-19.2569 27.3869,-47.5364 20.374,-74.7073 l -1.9445,2.7017 c -6.092,-4.3756 -12.6332,-8.0156 -19.4528,-10.9611 -0.7756,-0.335 -1.9916,-0.6137 -2.3346,-0.3583 l 0.005,9e-4 0.5394,1.5463 -0.006,0.003 c 0.8807,1.8868 1.5936,4.0065 -0.146,5.7572 -1.3082,1.3164 -3.4282,1.5656 -5.3533,1.3178 -4.0904,-0.5264 -8.0974,-2.2969 -12.0781,-3.4837 l 0.3314,0.3415 h 0.007 c 2.7601,3.0204 1.8034,6.2368 -2.6555,6.7218 -5.9236,0.6443 -12.9563,-2.8315 -18.4516,-5.4099 -1.7232,-0.8084 -3.4429,-1.616 -5.2591,-2.3936 -0.9048,-0.2752 -1.5732,-0.3469 -2.0112,-0.2639 0.1976,0.6616 1.5126,2.0024 1.5613,4.1998 0.0726,3.2636 -2.0817,5.0545 -5.2166,5.1242 -4.2978,0.0958 -9.0819,-2.9182 -12.884,-5.0777 -2.3247,-1.3203 -7.2893,-4.3081 -9.6962,-4.5589 -0.0575,1.6273 2.1186,4.7979 0.6764,8.1516 -0.3413,0.7934 -0.8652,1.4635 -1.5971,1.9615 -0.1769,0.0545 -0.8974,0.7263 -2.5897,0.8382 -1.4604,0.0967 -3.3296,-0.2746 -5.6707,-1.2818 -4.9533,-2.1308 -9.5176,-5.0457 -14.207,-7.4781 -0.8708,-0.4515 -1.51,-0.5995 -1.9085,-0.5425 0.3659,0.7721 2.0015,1.2994 2.9483,4.21 0.6814,2.0922 0.316,3.5399 -1.2005,4.3852 z m 9.3064,52.4551 v -23.5947 l -5.0312,0.0144 -0.002,-4.5473 c 3.1111,-0.0105 4.2463,-0.8544 6.2473,-3.3809 l 6.2858,0.008 v 31.5003 z m 11.998,-25.8837 c 0,-3.4787 4.6632,-6.1183 8.7964,-6.1863 4.1593,-0.0684 8.6636,2.5699 8.6582,5.9799 l -0.0304,19.5628 c -0.007,4.2755 -3.793,6.8301 -8.7514,6.9225 -5.0904,0.0946 -8.3585,-2.062 -8.3435,-8.1715 l 6.6016,0.1721 c 0.002,1.9392 0.6602,2.6921 2.0211,2.666 1.2654,-0.0244 1.7955,-0.8878 1.7961,-2.1121 l 0.003,-3.9915 c -0.515,0.4286 -1.3861,1.5058 -3.0314,1.5041 l -3.1952,-0.004 c -2.5032,-0.003 -4.5246,-3.4824 -4.5246,-6.1087 z m 64.0454,-55.7359 z m -20.5546,9.4529 -3.9016,-5.6143 c -2.3865,-3.9138 1.0978,-7.2654 4.8654,-5.0187 6.0874,3.63 12.217,8.1074 19.0134,7.8233 l 1.4779,-0.4527 c -0.1454,-1.044 -3.274,-3.7618 -3.2757,-3.7624 -1.0091,-0.987 -1.5826,-2.0134 -1.7915,-2.9605 -0.5882,-2.6665 1.5735,-4.5796 4.4618,-4.2177 5.6389,0.7067 13.7043,4.6418 18.9323,7.2777 l -1.5279,3.0297 c -4.8274,-2.4341 -12.6754,-6.2895 -17.8166,-6.9324 -0.3478,-0.0434 -0.6018,-0.0236 -0.7552,0.0456 l 0.8723,1.3295 c 1.6302,1.5939 4.1867,3.5858 4.2916,6.0854 0.11,2.6189 -2.5078,3.8528 -4.7364,3.9464 -7.8775,0.3308 -14.2928,-4.3708 -20.8865,-8.3019 -0.1922,-0.1145 -0.356,-0.1856 -0.4881,-0.2191 0.2324,0.9006 3.2091,4.868 4.0019,5.9358 z m -51.0996,99.1092 z m 2.2482,3.7542 -2.2513,-3.7522 c -2.255,-3.5955 0.4847,-6.8466 4.2916,-5.5931 1.336,0.44 2.9257,1.2178 4.7245,2.0979 4.0726,1.9922 7.5062,3.6893 12.6845,4.3694 1.7206,0.2284 3.3012,0.4382 4.1292,0.0524 -1.4221,-1.9196 -5.2463,-3.5368 -5.9743,-6.0106 -0.4722,-1.6052 0.4638,-2.8995 1.9741,-3.4106 3.437,-1.1634 9.9193,1.2231 13.3469,2.7368 2.9775,1.3147 5.9601,2.9279 8.7285,4.5193 0.9408,0.5408 2.912,1.419 3.6232,1.0763 l 0.0581,-1.2302 c -0.0706,-0.9261 -2.2158,-3.1374 -1.9845,-6.3386 0.2044,-2.8258 2.5401,-3.6972 5.2662,-2.7949 3.8426,1.2722 8.0918,3.5229 11.7567,5.5947 l -1.6611,2.9497 c -3.2911,-1.8603 -7.6014,-4.138 -11.1586,-5.3158 -0.3441,-0.1139 -0.6129,-0.1757 -0.8147,-0.1924 -0.1482,2.0837 1.643,3.564 1.9568,5.5859 0.5235,3.3738 -1.3122,5.5891 -4.6381,5.1401 -1.2248,-0.1653 -2.6427,-0.7053 -4.0918,-1.5381 -4.8441,-2.7842 -11.2323,-6.1313 -16.6935,-6.9888 -0.7186,-0.1128 -1.3669,-0.1525 -1.8836,-0.1163 1.8759,1.7167 5.3308,3.5468 5.6902,6.1237 0.1764,1.2646 -0.3126,2.3687 -1.8408,3.1808 -1.9329,1.027 -4.4172,0.5734 -6.8666,0.2545 -5.0023,-0.6457 -9.4785,-2.8357 -13.095,-4.6046 -1.258,-0.6154 -4.1734,-2.0922 -4.9487,-2.0202 l 2.5022,4.3381 z m 25.6864,-43.2099 c 2.1812,-5.7547 4.0365,-11.9484 4.5502,-18.7867 h 7.6405 c 0.0385,5.1942 -2.9586,11.6255 -7.4203,18.6537 l -0.004,1.0624 4.5703,-0.005 -0.0136,-4.7057 c 1.8508,-2.6944 3.4308,-5.6917 4.1987,-8.8867 l 2.9067,-2e-4 0.0104,13.6139 2.2094,10e-4 0.006,5.7067 -2.2521,-0.008 -0.0116,5.8244 -6.9625,-0.008 -0.008,-5.6679 -9.4128,0.004 z m 20.6481,-11.4245 c 0.051,-5.5874 2.5319,-8.2077 8.4002,-8.1938 6.2708,0.0147 8.9804,2.6316 9.0003,8.043 0.0122,3.3344 -0.394,6.0653 -3.5252,7.1254 3.454,1.0199 3.7565,4.2061 3.75,7.7627 -0.0122,6.5086 -2.7156,9.8824 -8.8501,9.9374 -5.8272,0.0525 -9.0082,-2.7776 -9.0377,-9.4875 -0.0187,-4.3039 0.0267,-6.3851 3.2624,-8.1369 -2.715,-1.082 -3.0299,-3.7556 -2.9999,-7.0503 z"
       style="fill:#ffffff;fill-rule:evenodd"
       id="path52"
       inkscape:connector-curvature="0" />
    <path
       d="m 282.4702,557.1434 0.003,8.2034 c 3e-4,1.1597 0.9791,1.8261 1.8105,1.8128 0.8974,-0.0142 1.7813,-0.7421 1.7813,-1.6407 l -3e-4,-8.2032 c 0,-0.7736 -0.8648,-1.6736 -1.6872,-1.6721 -0.875,10e-4 -1.9074,0.6899 -1.9071,1.4998 z"
       style="fill:#ffffff;fill-rule:evenodd"
       id="path54"
       inkscape:connector-curvature="0" />
    <path
       d="m 323.2519,558.8079 c -0.0263,2.4395 0.5021,3.9175 1.9687,3.9376 1.4644,0.0198 2.0693,-1.3482 2.0625,-3.8815 -0.005,-1.9882 -0.7404,-3.3565 -2.128,-3.3749 -1.2931,-0.017 -1.8836,1.4984 -1.9032,3.3188 z"
       style="fill:#ffffff;fill-rule:evenodd"
       id="path56"
       inkscape:connector-curvature="0" />
    <path
       d="m 325.2209,567.9581 c -1.656,0.0153 -1.9814,2.9001 -1.988,4.5567 -0.007,1.7501 0.2005,4.8918 1.95,4.875 1.7433,-0.0167 1.9244,-2.8879 1.9312,-4.6315 0.006,-1.6166 -0.2778,-4.8152 -1.8932,-4.8002 z"
       style="fill:#ffffff;fill-rule:evenodd"
       id="path58"
       inkscape:connector-curvature="0" />
    <path
       d="m 297.9581,139.2812 c -77.4544,0 -147.8265,31.8316 -198.8575,83.0194 -51.1137,51.2713 -82.8297,121.9637 -82.8297,199.5426 0,77.4564 31.5958,147.6005 82.5474,198.4008 51.0324,50.8808 121.4853,82.3646 199.0619,82.3646 77.5505,0 147.8616,-31.434 198.7693,-82.2563 50.8595,-50.7742 82.3552,-120.9098 82.3552,-198.392 0,-77.6325 -31.5981,-148.3969 -82.612,-199.7048 C 445.5292,171.0989 375.3584,139.2812 297.9581,139.2812 Z M 95.4933,218.713 c 51.9618,-52.1214 123.6112,-84.5342 202.4648,-84.5342 78.8032,0 150.2498,32.3989 202.0419,84.4892 51.9373,52.2363 84.1071,124.2725 84.1071,203.2923 0,78.8796 -32.0752,150.2912 -83.8701,201.9994 -51.8329,51.7458 -123.4137,83.7513 -202.3568,83.7513 -78.9679,0 -150.6907,-32.0553 -202.6494,-83.8596 C 43.3443,572.1191 11.1685,500.6985 11.1685,421.8432 c 0,-78.9696 32.2883,-150.9333 84.3248,-203.1302 z"
       style="fill:#231f20;fill-rule:evenodd"
       id="path60"
       inkscape:connector-curvature="0" />
    <path
       d="m 103.1012,487.3799 c 52.5311,-85.3172 100.3473,-175.8093 147.6901,-266.1656 -37.7793,8.9156 -71.5371,28.4131 -98.0716,55.1498 -37.1977,37.4805 -60.2051,89.1921 -60.2051,145.9253 0,22.803 3.7202,44.6845 10.5866,65.0905 z"
       style="fill:#f58220;fill-rule:evenodd"
       id="path62"
       inkscape:connector-curvature="0" />
    <path
       d="m 344.5027,221.3254 c 46.4729,88.4557 94.758,178.871 147.4818,265.326 6.696,-20.1878 10.3192,-41.8093 10.3192,-64.3309 0,-56.7362 -23.0062,-108.4583 -60.2036,-145.9471 -26.4228,-26.6301 -60.0089,-46.0811 -97.5974,-55.048 z"
       style="fill:#f58220;fill-rule:evenodd"
       id="path64"
       inkscape:connector-curvature="0" />
    <path
       d="m 426.3386,475.933 c -25.3746,-13.2984 -52.6314,-22.212 -81.7982,-26.7732 -2.5376,6.8845 -5.6792,13.7914 -9.5224,20.5189 7.5872,3.8644 14.705,8.9699 21.0515,15.3164 32.4536,32.4536 32.4536,85.0697 0,117.5233 -12.3905,12.3905 -27.7197,20.0503 -43.744,22.9796 50.7742,-3.5827 96.391,-25.4058 130.1885,-59.0201 15.6821,-15.5971 28.8212,-33.7349 38.7519,-53.7682 -17.2236,-14.2356 -35.5286,-26.6099 -54.9273,-36.7767 z"
       style="fill:#f58220;fill-rule:evenodd"
       id="path66"
       inkscape:connector-curvature="0" />
    <path
       d="m 238.5462,602.5184 c -32.4536,-32.4536 -32.4536,-85.0697 0,-117.5233 6.4707,-6.4706 13.7427,-11.6509 21.4965,-15.5412 -3.7261,-6.531 -6.9477,-13.4119 -9.6369,-20.505 -28.777,4.3299 -56.7014,12.9988 -83.3783,27.0199 -18.542,9.7455 -36.4853,21.7887 -53.6975,36.2086 9.9686,20.2311 23.2067,38.5412 39.0297,54.2701 33.7059,33.5055 79.1481,55.3045 129.7097,59.01 -15.9441,-2.9594 -31.1897,-10.6056 -43.5232,-22.9391 z"
       style="fill:#f58220;fill-rule:evenodd"
       id="path68"
       inkscape:connector-curvature="0" />
    <path
       d="m 87.4123,422.2894 c 0,-58.1179 23.5788,-111.1014 61.7,-149.5129 28.1931,-28.4076 64.3394,-48.8426 104.7835,-57.4883 1.6742,-3.1963 3.348,-6.3921 5.0213,-9.5876 11.8568,-22.64 23.703,-45.2599 34.8667,-66.3885 -75.8064,1.1208 -144.5703,32.7217 -194.6832,82.9885 -51.1137,51.2713 -82.8297,121.9637 -82.8297,199.5426 0,51.3465 13.8846,99.4793 38.0882,140.8941 C 69.8896,539.9688 84.9555,516.6746 99.648,492.9701 91.7269,470.9316 87.4123,447.1438 87.4123,422.2894 Z"
       style="fill:#ffffff;fill-rule:evenodd"
       id="path70"
       inkscape:connector-curvature="0" />
    <path
       d="m 445.7075,272.7859 c 38.1209,38.4196 61.6986,91.4139 61.6986,149.5346 0,24.5912 -4.2174,48.1369 -11.969,69.9761 14.739,24.031 29.8267,47.7445 45.3203,71.013 24.3074,-41.5063 38.2473,-89.8022 38.2473,-141.3493 0,-77.6325 -31.5981,-148.3969 -82.612,-199.7048 -50.0933,-50.3821 -118.914,-82.0063 -194.9239,-82.9525 6.9611,13.2321 15.4837,29.4911 24.0355,45.8059 5.2725,10.0587 10.5642,20.154 15.8786,30.2765 40.2599,8.7018 76.2386,29.0946 104.3246,57.4005 z"
       style="fill:#ffffff;fill-rule:evenodd"
       id="path72"
       inkscape:connector-curvature="0" />
    <path
       d="m 148.7721,570.0549 c -15.9196,-15.825 -29.2875,-34.1963 -39.4404,-54.474 -17.7967,15.3942 -34.7902,33.3698 -50.8317,54.0156 11.4749,18.4082 25.0248,35.3994 40.3183,50.6475 51.0324,50.8808 121.4853,82.3646 199.0619,82.3646 77.5505,0 147.8616,-31.434 198.7693,-82.2563 15.3388,-15.3131 28.9162,-32.3873 40.3996,-50.8927 -15.9911,-19.6622 -33.243,-37.6047 -51.7705,-53.3829 -10.1143,20.0945 -23.3887,38.3057 -39.1771,54.0085 -37.9913,37.7856 -90.5338,61.037 -148.6222,61.037 -58.0957,0 -110.6793,-23.2656 -148.7072,-61.0673 z m -42.0083,41.9496 39.5175,-30.2068 11.24,10.0412 -25.757,42.3997 -9.1202,-7.6186 5.2381,-7.386 -6.0435,-5.4828 -6.6628,5.8556 z m 341.9555,-27.9941 c 1.5474,-0.8209 3.0424,-1.3073 4.3957,-1.4808 1.6537,-0.212 3.5033,0.2166 5.0275,1.0525 1.5134,0.8297 3.0226,2.3817 4.4623,4.0731 1.766,2.0747 3.2874,3.4934 3.6006,5.5142 0.3209,2.0691 0.1017,4.4195 -1.1067,6.6413 4.8975,-2.232 7.0603,-0.7316 10.914,3.4277 2.4454,2.6402 8.4112,10.967 11.4826,10.9993 l -8.2412,7.198 c -1.2793,0.1528 -2.4128,-0.6656 -3.2051,-1.408 -2.1376,-2.0027 -3.96,-4.1672 -5.7909,-6.0746 -2.0926,-2.1802 -4.0981,-5.1673 -5.3241,-5.5245 -1.2174,-0.3546 -2.5976,-0.0983 -4.2627,1.319 l -1.6058,1.3669 13.839,15.692 -8.335,7.4197 -32.3867,-36.8575 9.9088,-8.4609 c 2.8749,-2.4548 5.0893,-4.0818 6.6277,-4.8974 z m -305.9887,58.4825 26.7353,-40.9026 9.3504,6.0815 -21.4555,33.0817 10.332,6.4352 -5.1701,8.1652 z m 30.2222,17.8795 28.9086,-40.4771 13.6924,6.2992 -12.1748,48.0932 -10.955,-4.6058 2.8391,-8.5983 -7.3868,-3.4671 -4.6502,7.5538 z m 42.3771,19.4142 11.2459,-48.0844 12.1297,2.9135 1.6628,28.8785 0.8362,0.2072 5.7955,-27.0023 10.9409,2.6377 -11.0589,47.5526 -12.0203,-2.9875 -1.6974,-30.4693 -0.7185,-0.1706 -6.1504,28.4887 z m 54.5193,10.4388 1.6404,-19.1276 -6.7051,-30.5311 11.9702,1.1682 1.3476,15.749 1.1693,0.0518 3.5141,-15.3022 11.9069,0.8033 -11.8267,27.9451 -1.6087,20.0341 z m 28.3779,2.0384 4.8807,-49.5005 15.0103,-1.3652 13.4221,47.7598 -11.793,1.4692 -1.8252,-8.8693 -8.1321,0.6769 -0.265,8.8668 z m 40.8019,-20.4052 10.9434,-2.2937 c 0.3096,2.6812 0.8252,5.0176 1.8667,6.3938 0.7285,0.9632 2.6557,1.4173 3.9373,0.9935 1.0236,-0.3387 2.2674,-1.1231 2.6073,-2.0823 0.3424,-0.9658 0.2988,-2.0951 -0.2676,-3.3681 -0.9998,-2.2473 -3.0929,-3.3506 -6.7584,-5.2195 -4.5391,-2.3142 -7.666,-3.7777 -9.2024,-4.6902 -1.1602,-0.6888 -3.0571,-1.8416 -4.0246,-2.9681 -0.9933,-1.1563 -1.7685,-2.8222 -2.3014,-4.4334 -1.2969,-3.9198 -1.3612,-7.5855 0.007,-10.516 1.3688,-2.9319 5.2829,-5.6217 8.9725,-6.8423 4.0215,-1.3305 7.9789,-1.5641 10.9065,-0.2233 5.3193,2.4364 6.897,5.6157 7.6737,10.1418 0.0547,0.32 0.5023,2.3417 0.5618,2.5208 l -10.5431,2.6762 -0.4184,-1.7606 c -0.4913,-2.0664 -0.6699,-3.7012 -1.9741,-4.5164 -1.0326,-0.6455 -1.8935,-1.0511 -2.9732,-0.6939 -0.9128,0.3021 -1.9046,0.9065 -2.2275,1.794 -0.3254,0.8943 -0.5145,1.9049 -0.1295,3.0685 1.0184,3.0773 6.9349,4.9153 9.9561,6.2453 3.9098,1.7215 6.5095,3.1156 8.0532,4.3189 2.1149,1.6486 3.5705,3.463 4.6613,6.0485 0.7929,1.8791 2.3017,6.7615 0.1599,11.0101 -1.5401,3.0557 -3.9816,5.5828 -7.9319,7.2856 -4.0782,1.758 -11.1456,1.7847 -14.0304,0.163 -2.8859,-1.6217 -5.0408,-3.8415 -6.5582,-8.4277 -0.0108,-0.0329 -0.76,-3.7862 -0.9658,-4.6245 z m 47.5812,5.1806 -18.5811,-45.2982 10.1722,-4.2026 c 3.4307,-1.4179 5.8243,-2.4945 7.5962,-2.8678 1.7626,-0.3716 3.9629,-0.5604 5.4017,-0.2914 1.8961,0.3546 4.0014,1.2804 5.6024,2.8891 1.594,1.6015 2.9109,4.2137 4.0428,6.887 1.8672,4.4104 2.7315,8.818 1.544,12.0183 -1.1874,3.2006 -4.3185,5.0794 -9.1953,7.1442 l -3.3295,1.4097 7.3128,17.6468 z m 27.5032,-38.4298 -6.4517,-10.6759 c -1.3685,-2.2657 -1.978,-4.8078 -2.0253,-6.5154 -0.0678,-2.4318 0.4634,-4.6003 1.629,-6.5492 1.1657,-1.9488 3.0935,-3.9435 5.4936,-5.4737 2.4171,-1.5409 5.167,-2.6161 7.401,-2.8346 2.2342,-0.2186 4.5972,0.2256 6.779,1.3014 1.5659,0.7721 3.492,2.1331 4.9499,4.3412 l 7.0024,10.6073 c 3.1119,4.7137 5.5454,8.2185 6.6396,10.6401 1.0942,2.4219 1.6994,4.6724 1.7408,6.4179 0.0572,2.4044 -0.7192,4.6344 -1.8749,6.5849 -1.1531,1.946 -3.1728,3.6179 -5.5737,5.1486 -2.4007,1.5304 -4.7333,2.4094 -6.9925,2.6441 -2.2649,0.2257 -4.4836,-0.1995 -6.651,-1.2662 -1.5256,-0.7673 -3.3732,-2.027 -4.8832,-4.1709 z"
       style="fill:#ffffff;fill-rule:evenodd"
       id="path74"
       inkscape:connector-curvature="0" />
    <path
       d="m 146.0186,593.2188 -17.9419,15.0474 4.6298,4.2273 13.9686,-18.6537 z"
       style="fill:#ffffff;fill-rule:evenodd"
       id="path76"
       inkscape:connector-curvature="0" />
    <path
       d="m 204.963,630.8904 -12.7338,19.6517 5.6668,2.6819 7.8769,-21.9325 z"
       style="fill:#ffffff;fill-rule:evenodd"
       id="path78"
       inkscape:connector-curvature="0" />
    <path
       d="m 311.2781,650.7485 -1.2413,23.3838 6.2493,-0.5006 -4.1057,-22.9396 z"
       style="fill:#ffffff;fill-rule:evenodd"
       id="path80"
       inkscape:connector-curvature="0" />
    <path
       d="m 381.8205,635.7334 4.5978,10.8578 0.508,-0.1469 c 0.1964,-0.06 0.4507,-0.1564 0.7906,-0.3004 1.8796,-0.7957 3.3701,-1.3981 3.8041,-2.7034 0.4337,-1.3037 -0.254,-3.365 -1.1483,-5.4783 -0.7396,-1.7472 -2.1714,-3.7048 -3.4447,-3.7893 -1.4854,-0.0987 -2.2178,0.3356 -4.2931,1.2152 z"
       style="fill:#ffffff;fill-rule:evenodd"
       id="path82"
       inkscape:connector-curvature="0" />
    <path
       d="m 426.5425,636.2439 4.1955,6.3859 c 1.4686,2.2354 3.3613,2.4783 4.7214,1.6117 1.3436,-0.8563 1.8513,-2.1736 1.3068,-3.5435 -0.5202,-1.3085 -2.0653,-3.7166 -4.97,-8.0147 l -4.7041,-6.9602 -4.8356,-7.5705 c -1.3082,-2.0483 -3.418,-2.2796 -4.7773,-1.4131 -1.326,0.8456 -1.6228,2.9764 -0.5402,4.6347 l 4.782,7.3238 z"
       style="fill:#ffffff;fill-rule:evenodd"
       id="path84"
       inkscape:connector-curvature="0" />
    <path
       d="m 446.614,596.3652 7.1779,8.4331 c 0.1332,-0.1131 0.3104,-0.2503 0.5309,-0.4105 0.2211,-0.1604 0.3833,-0.2851 0.487,-0.3733 1.6124,-1.3722 2.6722,-2.6518 2.6538,-3.9291 -0.0184,-1.2634 -1.0899,-2.6115 -2.5092,-4.2794 -1.3105,-1.5395 -2.1764,-2.3395 -3.3996,-2.4123 -1.2229,-0.0729 -2.3919,0.7197 -4.0045,2.0922 -0.1032,0.0876 -0.2529,0.2285 -0.4459,0.4207 -0.1933,0.1922 -0.3577,0.3452 -0.4904,0.4586 z"
       style="fill:#ffffff;fill-rule:evenodd"
       id="path86"
       inkscape:connector-curvature="0" />
    <path
       d="m 240.6362,396.2081 c -0.5573,-49.22 23.7421,-91.2476 56.7859,-111.6735 34.7652,22.771 56.4151,67.51 56.3794,113.7711 -0.01,12.9569 -2.0608,29.2578 -7.5609,45.9768 29.3834,4.6911 56.8574,13.7339 82.4497,27.1463 34.8358,18.2574 66.1666,43.4837 94.0643,73.7416 C 448.4599,430.6241 383.3963,306.5 321.0001,187.4605 c -7.3395,-14.0017 -14.6228,-27.8969 -23.3728,-44.5263 -11.8936,22.5127 -23.042,43.8009 -34.2059,65.118 -60.3202,115.181 -121.0173,231.0744 -190.8638,336.7114 28.3643,-31.7673 59.2999,-56.0608 92.0979,-73.2991 26.8843,-14.1301 55.0131,-22.932 83.9962,-27.3926 -5.3022,-15.575 -8.0699,-31.9986 -8.0155,-47.8638 z"
       style="fill:#42a13f;fill-rule:evenodd"
       id="path88"
       inkscape:connector-curvature="0" />
  </g>
</svg>
