<svg width="107" height="132" fill="none" xmlns="http://www.w3.org/2000/svg"><path d="M57.13 11.74L63 7.26h-7.26L53.5 0l-2.24 7.26H44l5.87 4.48L47.63 19l5.87-4.479L59.37 19l-2.24-7.26zm-33.865 6.694l3.128-7.133-6.635 3.904L14.024 10l1.611 7.614L9 21.518l7.63.82L18.194 30l3.128-7.133 7.678.82-5.735-5.253zm60.422 0L80.56 11.3l6.683 3.904L92.929 10l-1.564 7.614L98 21.518l-7.63.82L88.758 30l-3.128-7.133-7.63.82 5.687-5.253zM53.5 132C23.966 132 0 108.023 0 78.476 0 48.93 23.966 25 53.5 25S107 48.977 107 78.524C107 108.07 83.034 132 53.5 132z" fill="#FD0"/><path d="M53.023 29C25.4 29 3 51.39 3 79c0 27.611 22.4 50 50.023 50C80.647 129 103 106.563 103 78.953 103 51.389 80.647 29 53.023 29zm10.165 60.96l-30.965 10.583-7.482-12.982 33.93-5.41-2.26-3.904 43.06-4.233-38.542 12.041 2.26 3.904zM6.812 78.953c0-25.494 20.706-46.19 46.212-46.19 22.588 0 41.364 16.18 45.411 37.582h-46.54l2.258 3.904H12.694l28.518 49.342c-19.812-5.221-34.4-23.189-34.4-44.638zm46.212 46.19c-2.353 0-4.612-.188-6.871-.517l-6.259-10.819 27.812-16.04-2.259-3.903 33.741-15.946c.565 25.964-20.282 47.225-46.165 47.225z" fill="#0033A1"/><path d="M43.516 57.79h6.765L51.532 60H57l-6.117-11h-4.865l-5.839 10.472v-6.053h-9.453v-2.21h9.453V49H26v11h16.31l1.206-2.21zm3.382-6.1l2.132 3.843h-4.31l2.178-3.843zm-11.491 6.1H30.68v-2.21h4.727v2.21zm22.97-6.58V60h4.729v-8.79h13.166v2.21h-9.457v2.209h9.457v2.21h-9.457V60H81V49H53v2.21h5.377z" fill="#0033A1"/></svg>