<?xml version="1.0" encoding="UTF-8" standalone="no"?>
<svg xmlns:rdf="http://www.w3.org/1999/02/22-rdf-syntax-ns#" xmlns="http://www.w3.org/2000/svg" height="242.3135" width="205.95615" version="1.1" xmlns:cc="http://creativecommons.org/ns#" xmlns:dc="http://purl.org/dc/elements/1.1/" viewBox="0 0 205.95615 242.3135"><polygon points="10.405 8.339 193.435 8.659 197.907 42.518 196.31 80.529 186.407 130.04 174.909 157.191 153.188 189.773 134.023 208.299 113.26 227.146 101.76 232.895 86.748 226.186 66.943 207.341 56.402 192.967 36.278 164.538 14.877 116.624 8.169 72.225 8.488 44.115 10.405 8.339" fill="#fff" fill-rule="evenodd"/><path d="M3.66029,0s-12.5298,72.3184,8.7754,133.5967c19.77,56.8769,74.6675,108.7168,89.3525,108.7168,14.2246,0,71.6367-51.6826,91.3262-105.9697C215.923,73.4502,201.39859,0,201.39859,0Zm193.581,5.0371a299.15955,299.15955,0,0,1,3.9102,49.0195c0,23.83989-2.7715,52.9922-12.7715,80.5684-19.9961,55.1338-77.2207,102.3623-86.4687,102.3623-9.5742,0-64.6065-47.1894-84.7168-105.043C7.42639,103.8486,4.81609,73.9385,4.81609,50.001a315.23731,315.23731,0,0,1,3.102-44.9639Z" fill="#fff" fill-rule="evenodd"/><path d="M197.24129,5.0371a299.15955,299.15955,0,0,1,3.9102,49.0195c0,23.83989-2.7715,52.9922-12.7715,80.5684-19.9961,55.1338-77.2207,102.3623-86.4687,102.3623-9.5742,0-64.6065-47.1894-84.7168-105.043C7.42639,103.8486,4.81609,73.9385,4.81609,50.001a315.23731,315.23731,0,0,1,3.102-44.9639ZM65.64612,130.1387c1.70507.456,3.43847.9189,3.43847.9189,11.1973,3.0342,21.4346,5.8018,33.3335,6.377v.0019a100.92335,100.92335,0,0,0,22.9736-1.6074l.0254-.0039-.0117.001h-.0019l-.002.001h0l.002-.001h.0019c.2236-.0459,6.1914-1.252,6.1914-1.252,3.7891-.8984,7.3672-1.7461,10.2285-1a3.68666,3.68666,0,0,1,1.5254,2.3301c.1133.5078.0528.8359-.0527.9229-4.6455,3.6103-11.9375,4.289-18.3701,4.8906l-.8897.083c-.0888.0098-.1787.0185-.2695.0283h0c-.0899.0088-.1807.0176-.2734.0264h0c-.0918.0088-.1836.0166-.2774.0254h0c-.0937.0078-.1875.0156-.2822.0244h-.001c-.0947.0068-.1894.0146-.2861.0215h-.001c-.0957.0068-.1934.0146-.291.0205l-.001.0009c-.0977.0069-.1953.0127-.2939.0196h-.002l-.2988.0176h-.002c-.0996.0058-.2002.0107-.3017.0166h-.003c-.1005.0048-.2021.0107-.3046.0146l-.002.001c-.1035.0049-.2061.0088-.3105.0127l-.002.001c-.1035.0039-.207.0087-.3125.0127h-.0029c-.1045.0039-.21.0078-.3155.0107h-.0039c-.1054.0039-.2109.0068-.3183.0098h-.0039c-.1065.0039-.2129.0058-.3203.0087h-.0049c-.1084.003-.2158.0059-.3242.0069l-.004.001c-17.7983.4043-39.9843-2.5791-53.57857-11.9424ZM87.61,175.9815c-1.4414-.7002-1.9761-2.3956-2.5288-4.2032,0,0-.0425-.1386-.0801-.2646.0425-2.6992,2.0923-3.6358,5.2256-4.7324l1.9102-.7168c3.1909-1.0801,6.7587-1.9952,10.2978-2.8672h0l.0269-.0069.0112-.0029.0156-.0039.0117-.0029.0152-.0039.0122-.003c2.9057-.7177,5.8086-1.4521,8.7124-2.1826l-.8135-1.0146-.5854-.7412a62.22424,62.22424,0,0,0-7.3135-.3047c-.0308.0009-.0615.0009-.0928.0019v-.001a52.74614,52.74614,0,0,0-16.4961,2.8702,8.556,8.556,0,0,1-1.9853-1.8565s-.5904-.6504-.918-1.0097l.0015-.0235a7.34508,7.34508,0,0,0-1.002-3.2275,5.67021,5.67021,0,0,1-.7954-2.335,2.26473,2.26473,0,0,1,.3545-1.0517,49.42241,49.42241,0,0,1,10.2265-1.8936,57.95819,57.95819,0,0,0,10.3287-1.8135c.0898-.0019.1792-.0244.269-.0332v.003a14.89943,14.89943,0,0,0,2.979-.5606,8.1968,8.1968,0,0,1,4.147-.3584c-.6641.5752-1.2871,1.2266-1.8985,1.8682a14.0384,14.0384,0,0,1-2.5712,2.331l-.4019.2451v1.4004l.6626.1436a58.98179,58.98179,0,0,0,10.2148.9619,48.87948,48.87948,0,0,1,11.9034,1.4356,5.57491,5.57491,0,0,1,.4931,2.5361,13.45715,13.45715,0,0,1-.1162,1.5889,7.76181,7.76181,0,0,1-5.9209,2.9101,22.26583,22.26583,0,0,1-4.289.6348c-.1582.0146-4.816.8291-4.816.8291a91.6759,91.6759,0,0,0-10.3862,2.1582v.001a35.78155,35.78155,0,0,0-4.7456,1.705c-.272.1211-.3735.0909-.4067.3868l-.1211,1.0751.8266.7901.1587.0801a1.19068,1.19068,0,0,0,.4873.1562l3.8008-.164h0l5.7847-.25a92.04048,92.04048,0,0,1,13.5591-.2247c.0576.0391.163.1114.163.1114s.3125-.1045.6172-.21a3.89973,3.89973,0,0,1,1.416,2.7559v1.2724a5.03273,5.03273,0,0,1-1.4277,3.5391,2.47068,2.47068,0,0,1-1.8281.7666c-.5684-1.8066-2.5733-2.0361-4.0235-2.1231a7.0402,7.0402,0,0,1-2.0957-.3164l-.143-.0615-.1543-.0058c-4.1118-.1622-7.9634,0-11.6904.1572h-.0088l-.0025.001h-.0307l-.002.0009h-.0093l-.0024.001h-.0278l-.003.001h-.0234l-.0098.001h-.0058l-.002.0009h-.0254l-.0019.001h-.0201l-.0014.001h-.001a98.51889,98.51889,0,0,1-14.8081-.1523ZM62.0387,60.9795c-.62842.2324-3.99121,4.1406-3.99121,4.1406s-1.771,1.8721-2.30713,2.5098c1.49561,5.8584-4.66162,7.89257-7.977,5.4219-3.49612-2.6045-4.05032-9.9717,3.86279-9.7842,2.49756-2.8467,4.86524-5.124,5.92139-6.543-19.0669-8.0537-24.2437,13.461-18.4766,18.71193a10.37929,10.37929,0,0,0-5.434-1.44043c-2.8086.0996-6.439,2.4209-10.3663,11.89355.6773.39942,22.125,12.17875,23.1841,12.65135,8.10208-13.02537,5.42092-14.27146,4.74026-15.875,4.91943.35645,18.06784-6.68555,10.84375-21.68652Zm82.94869,74.5557c-.33-1.4688-1.4726-3.2578-2.7402-3.586-3.2637-.8535-7.04.043-11.0371.9912l-6.084,1.2305a99.19146,99.19146,0,0,1-22.6147,1.5889l-.0767-.003v-.0087l-.041-.002v-6.3965c14.6182,2.0742,28.999-6.2773,31.8242-20.9053H184.132a170.78044,170.78044,0,0,1-6.418,22.6094c-17.0801,47.0586-66.4253,93.9453-75.3862,93.9453-.023,0-.0357-21.0205-.0425-45.208.0439-.0019.2041-.0029.2476-.0049,3.6821-.1474,7.4936-.3046,11.5336-.1513a9.12261,9.12261,0,0,0,2.3838.3681c2.1026.1143,2.7618.3145,2.7871,1.3252a.75166.75166,0,0,0,.6661.7139,4.23538,4.23538,0,0,0,3.6777-1.2705,6.2853,6.2853,0,0,0,1.8223-4.3926c0-.1269-.0059-.2558-.0147-.3838a6.87933,6.87933,0,0,0,.249-1.832v-1.2588a5.74394,5.74394,0,0,0-2.3007-4.3857l-.3926-.337-.1524.1348s-.4863.2031-.6386.2676l-.1758-.0137a64.88525,64.88525,0,0,0-7.5816-.1308c1.3433-.2246,3.1245-.5196,3.1822-.5284a22.39541,22.39541,0,0,0,4.3095-.6064,9.39733,9.39733,0,0,0,7.2178-3.5479.696.696,0,0,0,.1377-.332,13.56677,13.56677,0,0,0,.1484-1.9541c0-.1816-.0048-.3682-.0136-.5576l.0703-.1016.0283-.1982a15.20994,15.20994,0,0,0,.1455-2.0479,6.82,6.82,0,0,0-.8887-3.7539l-.166-.2392-.2773-.085c-4.0879-1.2646-8.4571-1.4219-12.6797-1.5742-1.9238-.0684-3.7774-.168-5.5874-.3516a7.31935,7.31935,0,0,1,2.2363-1.4765.74275.74275,0,0,0,.4761-.6924.78915.78915,0,0,0-.0103-.1279.73775.73775,0,0,0-.728-.6065h-1.6367c-.1309-.0478-.2612-.0908-.3916-.1279a7.85236,7.85236,0,0,1,2.4663-1.7774l1.3359-.5244a84.09561,84.09561,0,0,0,10.2876-.2363c-.0068.0019.8721-.0791.8721-.0791,6.6484-.5947,14.1807-1.2705,19.2148-5.001a2.23593,2.23593,0,0,0,.6231-2.376,5.46027,5.46027,0,0,0-.5039-1.3359c.0293-.0225.0586-.0439.0879-.0664a2.48906,2.48906,0,0,0,.6347-2.5986Zm-41.248,11.1523a9.389,9.389,0,0,1-1.3213.2129v.001l-.0234.0019v-.3252c.4394.0371.8886.0733,1.3447.1094Zm84.8633-132.7881H15.64469s-9.9561,62.74221,8.602,116.084c17.5777,50.5244,66.7573,98.4707,77.8765,99.8301,11.8598-1.3594,61.7119-49.2022,79.2197-97.4414,19.8672-54.74319,7.2598-118.4727,7.2598-118.4727ZM21.89659,107.8213c-4.3222-18.81348-4.811-34.8115-4.811-50.6025a298.323,298.323,0,0,1,2.3271-39.4585h82.8775l-.0078,24.019-4.9966-9.125-6.544.8897L85.716,53.1758l-5.9683,2.4082,2.8789-14.9717-2.251-5.4453-4.3457,1.5703-1.3603-3.6123-8.74368,3.2471L67.235,40.5068l-3.24561,1.2569,2.87989,7.4853,6.38622-2.4599L70.547,61.1924l2.3823,5.875,15.4659-6.1651,4.0732-.5546,1.5708-6.544,4.9204-.5234,3.3057,5.6982-.0049,11.8623c-14.7393.2481-28.2183,10.61233-27.5698,27.3291a33.90108,33.90108,0,0,0,1.7822,9.7129l-54.5762-.0615Z" fill="#146734" fill-rule="evenodd"/><path d="M131.57729,97.4443c-.961-2.4863-3.4043-4.414-5.9707-5.66109a14.62422,14.62422,0,0,0-5.375-1.52344c0,2.81055,2.6875,5.86033,5.375,8.831,3.0088,3.333,6.0117,6.5049,5.1699,9.1143.7217-1.8057,1.5684-8.4727.8008-10.7608Zm-11.3457-9.03121a10.20533,10.20533,0,0,1,5.375,1.00391c2.9267,1.32324,5.25,3.49121,5.334,3.97265a38.09525,38.09525,0,0,0-4.6944-8.14941c-.0791,0-.3193-.04-.6396-.04-1.6817-.0791-5.7344,0-5.375,3.21289Zm-2.2422-.36426c.3584-5.13671,7.0977-4.53418,7.0977-4.53418a31.63629,31.63629,0,0,0-17.481-9.83595,12.07,12.07,0,0,0-2.8467-.2412,39.58731,39.58731,0,0,1,2.8467,4.09571,38.442,38.442,0,0,1,5.5713,18.627c.0395,6.7841-2.3623,16.0185-5.5713,23.0039a47.04078,47.04078,0,0,1-2.1611,4.2138,17.79915,17.79915,0,0,0,2.1611.1241,28.557,28.557,0,0,0,18.0005-7.4307,16.26133,16.26133,0,0,0,3.7275-5.2158c.4405-2.8125-1.4033-5.7432-3.7275-8.7539-3.5283-4.5352-8.0996-9.27249-7.6172-14.05277Zm-7.7793,5.10059a39.35357,39.35357,0,0,0-2.604-9.75586c-1.9238-4.85742-4.5713-8.95216-6.7378-10.11626a21.908,21.908,0,0,0-8.7754,2.00493c-.7231.32422-1.4448.64649-2.2485,1.04688.6435.52246,1.4043,1.043,2.2485,1.64551a14.54482,14.54482,0,0,1,5.9307,8.55078c1.3252,5.29883-2.6055,9.9141-5.9307,14.6943-3.5303,5.0596-6.4556,10.2774-1.8877,16.6612a7.79388,7.79388,0,0,0,1.8877,1.4853c2.7251,1.7246,7.4556,3.8135,9.8989,4.0117a43.57148,43.57148,0,0,0,5.6143-10.3574,42.246,42.246,0,0,0,2.604-19.87108Zm-23.4512-8.31055a19.79713,19.79713,0,0,1,5.334-.24023,16.41176,16.41176,0,0,1,3.2842.6416,14.13241,14.13241,0,0,0-3.2842-4.415,14.69127,14.69127,0,0,0-4.6914-3.17187,3.53856,3.53856,0,0,0-.6426.44043c-4.25,3.09472-7.0952,7.749-8.5791,13.3291,1.1231-3.85547,4.6499-5.86035,8.5791-6.584Zm0,18.94823a40.675,40.675,0,0,1,5.334-8.0674c2.2417-2.81149,4.127-5.22067,4.0483-7.10641-.121-1.00489-1.7646-1.44727-4.0483-1.32422a20.282,20.282,0,0,0-5.334,1.082c-3.5283,1.28418-7.0542,3.69434-8.3393,7.3486a6.77158,6.77158,0,0,0-.481,2.6504v.0791c.041,5.7403,5.1294,14.1299,8.8203,17.2598a6.42014,6.42014,0,0,1,.5181.4434c-.1592-.3604-.3579-.6807-.5181-1.003a12.70617,12.70617,0,0,1,0-11.3623Z" fill="#ed6723" fill-rule="evenodd"/><path d="M126.56949,52.5625s7.3799,2.8613,8.8144,3.416a8.44036,8.44036,0,0,1-3.3349,1.7744,7.04885,7.04885,0,0,1-6.5791-1.83,7.232,7.232,0,0,1-1.6524-2.4356,6.33931,6.33931,0,0,1-.5244-2.8008,8.484,8.484,0,0,1,.5654-3.0097,7.0032,7.0032,0,0,1,1.5723-2.4698,7.72185,7.72185,0,0,1,2.4209-1.7431,6.15945,6.15945,0,0,1,2.6729-.6367,6.91892,6.91892,0,0,1,2.7519.4501,7.08289,7.08289,0,0,1,2.6162,1.7178,5.97637,5.97637,0,0,1,1.5225,2.6358l.0781.2705,4.707,1.7773-.0488-.8633a10.52224,10.52224,0,0,0-2.0498-5.7529,11.55532,11.55532,0,0,0-5.0928-3.6992,11.75229,11.75229,0,0,0-4.54-.8467,10.69275,10.69275,0,0,0-4.3701.9766,11.8109,11.8109,0,0,0-3.8594,2.6758,11.29164,11.29164,0,0,0-2.4551,3.9013,11.64313,11.64313,0,0,0-.8847,4.3945,11.0516,11.0516,0,0,0,.7226,4.1954,11.97392,11.97392,0,0,0,2.5918,4.1152,11.43726,11.43726,0,0,0,4.0752,2.6309,10.8937,10.8937,0,0,0,8.8359-.1788,12.70079,12.70079,0,0,0,6.3291-6.7802l.2422-.5401-13.6318-5.2158-1.4951,3.8711Z" fill="#fff" fill-rule="evenodd"/><path d="M158.10269,56.4883l-5.7295,6.3467,1.3398,1.1621a9.05928,9.05928,0,0,0,4.4063,2.5449,3.91635,3.91635,0,0,0,3.501-1.3857,3.74569,3.74569,0,0,0,1.0918-3.379,7.72227,7.72227,0,0,0-2.6368-3.7255l-1.8593-1.6875-.1133.124Zm.1367.3535c.2148.1943,1.6094,1.4609,1.6094,1.4609a7.40137,7.40137,0,0,1,2.5351,3.545,3.10536,3.10536,0,0,1,.0684.6308,3.70212,3.70212,0,0,1-1.082,2.4512,3.58194,3.58194,0,0,1-3.2022,1.2783,8.74413,8.74413,0,0,1-4.2295-2.4609s-.8779-.7608-1.0869-.9405c.2178-.2402,5.1738-5.7314,5.3877-5.9648Z" fill="#231f20" fill-rule="evenodd"/><path d="M105.58069,160.6816c-1.0527-.0371-2.1001-.0371-3.146-.0195v.8047c.4443-.1094.8916-.2207,1.3345-.3291,0,0,1.0332-.2588,1.8115-.4561Z" fill="#231f20" fill-rule="evenodd"/><path d="M121.55379,170.0986c-.1757-.1181-.3496-.2363-.3496-.2363.0664.0449.208.1465.3496.2363Z" fill="#231f20" fill-rule="evenodd"/><path d="M110.02309,152.5625a7.30609,7.30609,0,0,1,2.2363-1.4775.74275.74275,0,0,0,.4761-.6924.78915.78915,0,0,0-.0103-.1279.73775.73775,0,0,0-.728-.6065h-1.6367c-.1309-.0478-.2617-.0898-.3916-.1269-.3745.3652-.7422.7519-1.105,1.1347-.5049.5332-1.0249,1.0596-1.561,1.5459.8974.1436,1.8032.2578,2.7202.3506Zm-7.605-5.6611c-.144.0127-.2905.0283-.4311.0283a.85278.85278,0,0,0-.2476.0371,56.152,56.152,0,0,1-10.1074,1.7695,49.69926,49.69926,0,0,0-10.9351,2.0625.84954.84954,0,0,0-.4136.3184,4.0016,4.0016,0,0,0-.3979,3.8721c-.8106,1.6748-.0283,3.1836.6128,4.4277a4.87713,4.87713,0,0,1,.8203,2.6211.86662.86662,0,0,0,.2393.6269l1.082,1.1407a8.92394,8.92394,0,0,0,2.6826,2.2988.72487.72487,0,0,0,.5835.0391,46.14781,46.14781,0,0,1,5.2002-1.4834c-.5508.207-1.4351.5371-1.4351.5371-2.8354.9931-6.3652,2.2275-6.3652,6.3906a.87.87,0,0,0,.0376.249l.1328.4307.022.0723a5.48475,5.48475,0,0,0-.2173,1.5761.74493.74493,0,0,0,.0347.2295l.1357.4268c.6152,1.9179,1.314,4.0927,3.4863,5.0039a.64706.64706,0,0,0,.2115.0556,104.3126,104.3126,0,0,0,15.3838.1543c3.6821-.1474,7.4936-.3046,11.5336-.1513a9.12261,9.12261,0,0,0,2.3838.3681c2.1026.1143,2.7618.3145,2.7871,1.3252a.75166.75166,0,0,0,.6661.7139,4.23538,4.23538,0,0,0,3.6777-1.2705,6.2853,6.2853,0,0,0,1.8223-4.3926c0-.1269-.0059-.2549-.0157-.3838a6.16362,6.16362,0,0,1-1.58,2.7891,4.23681,4.23681,0,0,1-3.794,1.373l-.7295-.0791-.0205-.7334c-.0273-1.0048-.6289-1.1933-2.6846-1.3164a9.09425,9.09425,0,0,1-2.3994-.3818c-4.0293-.1582-7.8349.0019-11.5141.1572-.0845.0039-.1646.0069-.2476.0088v-1.6787a98.51889,98.51889,0,0,1-14.8081-.1523c-1.4414-.7002-1.9761-2.3956-2.5288-4.2032,0,0-.0425-.1386-.0801-.2646.0425-2.6992,2.0923-3.6358,5.2256-4.7324l1.9102-.7168c3.1909-1.0801,6.7587-1.9952,10.2978-2.8672h0l.0112-.003-.0278.0069v-1.7305c.4502-.1103.9028-.2226,1.3511-.333,0,0,1.0332-.2588,1.8115-.4561-1.0581-.0371-2.1108-.0361-3.1626-.0175v-1.7305l.0166-.001v-.001a52.74614,52.74614,0,0,0-16.4961,2.8702,8.556,8.556,0,0,1-1.9853-1.8565s-.5904-.6504-.918-1.0097l.0015-.0235a7.34508,7.34508,0,0,0-1.002-3.2275,5.67021,5.67021,0,0,1-.7954-2.335,2.26473,2.26473,0,0,1,.3545-1.0517,49.42241,49.42241,0,0,1,10.2265-1.8936,57.95819,57.95819,0,0,0,10.3287-1.8135c.0898-.0019.1792-.0244.269-.0332v-1.6562Zm11.9815,21.5371c1.3427-.2236,3.122-.5186,3.1787-.5274a22.39541,22.39541,0,0,0,4.3095-.6064,9.39733,9.39733,0,0,0,7.2178-3.5479.696.696,0,0,0,.1377-.332,13.56677,13.56677,0,0,0,.1484-1.9541c0-.1816-.0048-.3682-.0136-.5566l.0703-.1026-.1143.166a9.23747,9.23747,0,0,1-7.2373,3.7432,20.45514,20.45514,0,0,1-4.3203.6406l-4.6953.8223a83.48892,83.48892,0,0,0-10.6631,2.3213v-1.8193a35.78155,35.78155,0,0,0-4.7456,1.705c-.272.1211-.3735.0909-.4067.3868l-.1211,1.0751.8266.7901.1587.0801a1.19068,1.19068,0,0,0,.4873.1562l3.8008-.164v-1.6797c2.5303-.1094,5.6753-.2461,5.6753-.2461,2.1392-.1416,4.2246-.2784,6.3062-.3506Zm-11.8721-5.2647.2021-.0498-.2021.0498Zm.2597-.0644c.0186-.0039.0362-.0088.0547-.0137-.0185.0049-.0361.0098-.0547.0137Zm.3262-.0801c.0181-.0049.0362-.0098.0542-.0137-.018.0039-.0361.0088-.0542.0137Zm.0718-.0176.0908-.0234-.0908.0234Zm.1455-.0361c.0176-.0049.0361-.0088.0537-.0137-.0176.0049-.0361.0088-.0537.0137Zm.1079-.0264c.0723-.0185.1445-.0361.2173-.0537-.0728.0176-.145.0352-.2173.0537Zm.2398-.0595.0268-.0069-.0268.0069Zm-1.1441,13.2392h0Zm-.0054,0h0Zm-.0107,0h-.0059l-.0029.001.0088-.001Zm-.0112.001h0Zm-.0108,0h0Zm-.0112,0-.0088.001.0088-.001Zm-.0112.001h-.003l-.0024.0009h-.0029l.0083-.0009Zm-.0108.0009h0Zm-.0107,0h0Zm-.0054,0h0Zm-.0058.001h0Zm-.0113,0h0Zm-.0053,0h0Zm42.3442-36.5967a5.47394,5.47394,0,0,0-.5039-1.3359c-5.0567,3.8701-12.5586,4.5713-19.1817,5.1895,0,0-.8867.083-.875.082-5.6953.624-14.8642.1816-21.7817-.4395l-.0083-.0009v-1.6729l.0166.001h0a70.33428,70.33428,0,0,1-8.5986-1.1299c-7.5991-1.6729-15.3379-3.3799-22.3926-6.7695-.041-.0196-.0815-.0381-.1221-.0586-.1069-.0518-.2134-.1035-.3198-.1563l-.1006-.0498c-.0991-.0488-.1977-.0986-.2964-.1474l-.1216-.0616-.3208-.164c-.0302-.0166-.0605-.0313-.0903-.0479-.1211-.0625-.2407-.125-.3608-.1894l-.0264-.0137c-.1108-.0596-.2212-.1182-.3315-.1787-.0391-.0205-.0777-.042-.1162-.0635q-.1707-.09225-.3409-.1875l-.0566-.0322c-.124-.0684-.2476-.1387-.3711-.209l-.0063-.0029-.0118-.0078c-.1191-.0674-.2378-.1368-.3559-.2061-.0254-.0146-.0513-.0303-.0772-.0449q-.3705-.21825-.7373-.4434l-.0674-.041c-.1186-.0732-.23775-.1475-.35592-.2227l-.03906-.0234c-.125-.0801-.25-.1592-.375-.2402l-.0044-.003q-.19116-.1245-.38134-.25l-.03223-.0214q-.18969-.126-.37842-.2549c1.70507.456,3.43847.9189,3.43847.9189,11.1973,3.0342,21.4346,5.8018,33.3335,6.377v-1.6778l.0166.001v-.0097c-11.7275-.5752-21.8442-3.3106-32.9106-6.3116l-7.57719-2.0234a.83926.83926,0,0,0-.75634,1.4521,42.23011,42.23011,0,0,0,6.12013,4.3184l-5.5298-1.4111a.73609.73609,0,0,0-.6377,1.289c9.3169,7.5733,20.9424,10.0225,32.1812,12.3946a89.1316,89.1316,0,0,0,10.415,1.2314c.397-.0889.8037-.1963,1.2202-.3086,1.7217-.4629,3.6646-.9756,5.5767-.248h6.0312l-2.7964,1.0976a84.09561,84.09561,0,0,0,10.2876-.2363c-.0068.0019.8721-.0791.8721-.0791,6.6484-.5947,14.1807-1.2705,19.2148-5.001a2.23593,2.23593,0,0,0,.6231-2.376Zm-10.0615-37.3134c.6425,21.5595-21.7691,33.039-40.7334,24.7295-12.4688-5.379-18.8799-17.2227-19.2832-28.7823-.8428-21.72165,21.6899-32.7207,40.6103-24.7324a32.50455,32.50455,0,0,1,19.4063,28.7852Zm-3.1299-4.7784c-.961-2.4863-3.4043-4.414-5.9707-5.66109a14.62422,14.62422,0,0,0-5.375-1.52344c0,2.81055,2.6875,5.86033,5.375,8.831,3.0088,3.333,6.0117,6.5049,5.1699,9.1143.7217-1.8057,1.5684-8.4727.8008-10.7608Zm-11.3457-9.03121a10.20533,10.20533,0,0,1,5.375,1.00391c2.9267,1.32324,5.25,3.49121,5.334,3.97265a38.09525,38.09525,0,0,0-4.6944-8.14941c-.0791,0-.3193-.04-.6396-.04-1.6817-.0791-5.7344,0-5.375,3.21289Zm-2.2422-.36426c.3584-5.13671,7.0977-4.53418,7.0977-4.53418a31.63629,31.63629,0,0,0-17.481-9.83595,12.07,12.07,0,0,0-2.8467-.2412,39.58731,39.58731,0,0,1,2.8467,4.09571,38.442,38.442,0,0,1,5.5713,18.627c.0395,6.7841-2.3623,16.0185-5.5713,23.0039a47.04078,47.04078,0,0,1-2.1611,4.2138,17.79915,17.79915,0,0,0,2.1611.1241,28.557,28.557,0,0,0,18.0005-7.4307,16.26133,16.26133,0,0,0,3.7275-5.2158c.4405-2.8125-1.4033-5.7432-3.7275-8.7539-3.5283-4.5352-8.0996-9.27249-7.6172-14.05277Zm-7.7793,5.10059a39.35357,39.35357,0,0,0-2.604-9.75586c-1.9238-4.85742-4.5713-8.95216-6.7378-10.11626a21.908,21.908,0,0,0-8.7754,2.00493c-.7231.32422-1.4448.64649-2.2485,1.04688.6435.52246,1.4043,1.043,2.2485,1.64551a14.54482,14.54482,0,0,1,5.9307,8.55078c1.3252,5.29883-2.6055,9.9141-5.9307,14.6943-3.5303,5.0596-6.4556,10.2774-1.8877,16.6612a7.79388,7.79388,0,0,0,1.8877,1.4853c2.7251,1.7246,7.4556,3.8135,9.8989,4.0117a43.57148,43.57148,0,0,0,5.6143-10.3574,42.246,42.246,0,0,0,2.604-19.87108Zm-23.4512-8.31055a19.79713,19.79713,0,0,1,5.334-.24023,16.41176,16.41176,0,0,1,3.2842.6416,14.13241,14.13241,0,0,0-3.2842-4.415,14.69127,14.69127,0,0,0-4.6914-3.17187,3.53856,3.53856,0,0,0-.6426.44043c-4.25,3.09472-7.0952,7.749-8.5791,13.3291,1.1231-3.85547,4.6499-5.86035,8.5791-6.584Zm0,18.94823a40.675,40.675,0,0,1,5.334-8.0674c2.2417-2.81149,4.127-5.22067,4.0483-7.10641-.121-1.00489-1.7646-1.44727-4.0483-1.32422a20.282,20.282,0,0,0-5.334,1.082c-3.5283,1.28418-7.0542,3.69434-8.3393,7.3486a6.77158,6.77158,0,0,0-.481,2.6504v.0791c.041,5.7403,5.1294,14.1299,8.8203,17.2598a6.42014,6.42014,0,0,1,.5181.4434c-.1592-.3604-.3579-.6807-.5181-1.003a12.70617,12.70617,0,0,1,0-11.3623ZM62.0387,60.9795c-.62842.2324-3.99121,4.1406-3.99121,4.1406s-1.771,1.8721-2.30713,2.5098c1.49561,5.8584-4.66162,7.89257-7.977,5.4219-3.49612-2.6045-4.05032-9.9717,3.86279-9.7842,2.49756-2.8467,4.86524-5.124,5.92139-6.543-19.0669-8.0537-24.2437,13.461-18.4766,18.71193a10.37929,10.37929,0,0,0-5.434-1.44043c-2.8086.0996-6.439,2.4209-10.3663,11.89355.6773.39942,22.125,12.17875,23.1841,12.65135,8.10208-13.02537,5.42092-14.27146,4.74026-15.875,4.91943.35645,18.06784-6.68555,10.84375-21.68652ZM61.63343,64.96l-.32764-.8477L57.8722,67.9121l.06543.2842a5.56745,5.56745,0,0,1-.10986,2.8994A7.31048,7.31048,0,0,1,56.214,73.8711a6.905,6.905,0,0,1-2.28222,1.64453A6.97193,6.97193,0,0,1,48.278,75.667a8.518,8.518,0,0,1-2.57907-1.6309,6.93655,6.93655,0,0,1-1.7676-2.372,7.56149,7.56149,0,0,1-.4214-5.5909,7.31288,7.31288,0,0,1,1.4229-2.3935,7.6568,7.6568,0,0,1,2.66646-1.917,6.42578,6.42578,0,0,1,3.0332-.4023l.28418.0293,3.28271-3.6026-.833-.2646a10.31512,10.31512,0,0,0-6.22266-.1651A11.26282,11.26282,0,0,0,41.796,60.8301a10.66255,10.66255,0,0,0-2.2954,3.7881,11.06979,11.06979,0,0,0-.6362,4.4121,11.70249,11.70249,0,0,0,1.1089,4.5752,11.13412,11.13412,0,0,0,2.7544,3.68747A12.3685,12.3685,0,0,0,46.484,79.6963a11.15135,11.15135,0,0,0,4.2095.80664,11.84711,11.84711,0,0,0,4.78955-.93457,11.50114,11.50114,0,0,0,3.90576-2.84473A11.91857,11.91857,0,0,0,62.2677,71.124a10.9963,10.9963,0,0,0-.63427-6.164ZM49.82434,84.81934A6.2541,6.2541,0,0,0,48.49622,82.169a7.77046,7.77046,0,0,0-2.41993-1.99219,6.25586,6.25586,0,0,0-3.6045-.751,5.21954,5.21954,0,0,0-2.3725.86426,5.3743,5.3743,0,0,0-.5938-1.55958,5.06649,5.06649,0,0,0-2.0508-1.834,5.846,5.846,0,0,0-5.228-.5c-1.5508.60156-2.8892,1.9668-4.0762,4.167l-2.4887,4.61621L45.838,95.9248l2.60452-4.93944a12.27515,12.27515,0,0,0,1.38672-3.42774,5.78279,5.78279,0,0,0-.00489-2.73828ZM38.97769,87.50489c.3164-.59277.9018-1.68359.9018-1.68359A3.9887,3.9887,0,0,1,41.88,83.74024a2.82431,2.82431,0,0,1,2.522.32813,2.44,2.44,0,0,1,1.4575,1.67285,2.16941,2.16941,0,0,1,.0376.4082,5.7764,5.7764,0,0,1-.7539,2.4668s-.5854,1.08789-.9004,1.6748c-.7641-.40527-4.4946-2.3789-5.2651-2.78613Zm-3.0728-2.17676s-.1118.20215-.2182.40235c-.7281-.38672-3.6812-1.95118-4.4219-2.34473.2373-.44238.539-.9961.539-.9961a4.51181,4.51181,0,0,1,1.7232-1.98144,2.10884,2.10884,0,0,1,1.9155.22754,2.13625,2.13625,0,0,1,1.3643,1.62109,1.85857,1.85857,0,0,1,.0244.30371,6.259,6.259,0,0,1-.9263,2.76758Zm13.53762-.417a5.89792,5.89792,0,0,0-1.2461-2.49219,7.33293,7.33293,0,0,0-2.30912-1.89648,5.87068,5.87068,0,0,0-3.3711-.707,4.85874,4.85874,0,0,0-2.686,1.21484,5.09657,5.09657,0,0,0-.6626-2.10156,4.67755,4.67755,0,0,0-1.8852-1.68067,5.49175,5.49175,0,0,0-4.9043-.48828c-1.4693.56836-2.7403,1.875-3.8833,3.99121l-2.3003,4.26758L45.674,95.3936l2.42233-4.59086a12.29767,12.29767,0,0,0,1.34912-3.31934,5.41661,5.41661,0,0,0-.00293-2.57226Zm-.32666,2.502A11.91835,11.91835,0,0,1,47.798,90.64258s-2.11719,4.01661-2.26469,4.29592c-.292-.1563-18.5893-9.90431-18.8813-10.05861.1494-.27539,2.1396-3.96777,2.1396-3.96777,1.1055-2.04395,2.3169-3.29981,3.711-3.84082a5.1787,5.1787,0,0,1,4.622.4746,4.33407,4.33407,0,0,1,1.7544,1.55762,4.80249,4.80249,0,0,1,.6612,2.2207l.018.36622.2671-.252a4.57118,4.57118,0,0,1,2.7285-1.28808,5.51293,5.51293,0,0,1,3.1749.66894,7.0293,7.0293,0,0,1,2.20649,1.81153,5.58217,5.58217,0,0,1,1.18067,2.35742,5.10729,5.10729,0,0,1,0,2.4248ZM61.2677,65.1025l-.10009-.2548-2.86768,3.1748.02295.0869a6.01838,6.01838,0,0,1-.11816,3.1015A7.7299,7.7299,0,0,1,56.504,74.1348a7.277,7.277,0,0,1-2.4082,1.73728,7.78044,7.78044,0,0,1-3.00733.71289,7.87037,7.87037,0,0,1-2.95654-.55274,8.8475,8.8475,0,0,1-2.69577-1.707,7.34077,7.34077,0,0,1-1.8609-2.4912,7.22313,7.22313,0,0,1-.792-3.002,7.13057,7.13057,0,0,1,.3545-2.8877,7.88756,7.88756,0,0,1,1.5034-2.5273,8.01017,8.01017,0,0,1,2.80571-2.0156,6.81527,6.81527,0,0,1,3.22852-.4317l.085.0078,2.73682-3.0009-.249-.0811a9.963,9.963,0,0,0-5.99511-.1631A10.91493,10.91493,0,0,0,42.088,61.0928a10.28077,10.28077,0,0,0-2.2148,3.6533,10.6915,10.6915,0,0,0-.6153,4.2617,11.28024,11.28024,0,0,0,1.066,4.4258,10.75244,10.75244,0,0,0,2.6645,3.56543,12.0439,12.0439,0,0,0,3.645,2.333,10.71291,10.71291,0,0,0,4.0601.77734,11.42137,11.42137,0,0,0,4.63037-.90039,11.067,11.067,0,0,0,3.77148-2.74805A11.469,11.469,0,0,0,61.881,71.0508a10.614,10.614,0,0,0-.61329-5.9483Zm.2837,5.8848a11.15317,11.15317,0,0,1-2.707,5.25,10.7263,10.7263,0,0,1-3.6582,2.66406,11.06493,11.06493,0,0,1-4.49267.87305,10.42673,10.42673,0,0,1-3.9356-.75488A11.67342,11.67342,0,0,1,43.216,76.75a10.43078,10.43078,0,0,1-2.5874-3.46,10.931,10.931,0,0,1-1.0328-4.2988,10.3311,10.3311,0,0,1,.5938-4.1338,9.97473,9.97473,0,0,1,2.146-3.5371,10.569,10.569,0,0,1,5.00926-3.2637,9.55619,9.55619,0,0,1,5.5376.0957c-.31982.3487-2.166,2.3741-2.25977,2.4776a7.1684,7.1684,0,0,0-3.30371.4599,8.37376,8.37376,0,0,0-2.92868,2.1036,8.19221,8.19221,0,0,0-1.5708,2.6377,8.32109,8.32109,0,0,0,.4541,6.1513,7.65722,7.65722,0,0,0,1.9399,2.5957,9.17326,9.17326,0,0,0,2.791,1.76468,7.70365,7.70365,0,0,0,6.23047-.16406,7.64754,7.64754,0,0,0,2.52-1.81832,8.04876,8.04876,0,0,0,1.77148-3.0498,6.38166,6.38166,0,0,0,.28369-1.877,6.17224,6.17224,0,0,0-.14941-1.3057c.08838-.0976,2.03955-2.2568,2.374-2.6298a10.64492,10.64492,0,0,1,.689,3.6386,9.82445,9.82445,0,0,1-.17236,1.8506ZM46.57779,85.60645a3.14919,3.14919,0,0,0-1.8247-2.17871,3.52856,3.52856,0,0,0-3.1275-.37109,4.65334,4.65334,0,0,0-2.3906,2.42187l-1.2476,2.32617,6.5538,3.47071,1.2529-2.3291a5.4855,5.4855,0,0,0,.7837-3.33985ZM45.49529,88.792s-.9541,1.77344-1.0918,2.02832c-.274-.14356-5.6817-3.00684-5.9605-3.15332.1397-.26074,1.0923-2.03125,1.0923-2.03125a4.33279,4.33279,0,0,1,2.2119-2.26367,3.22085,3.22085,0,0,1,2.8467.35156,2.79781,2.79781,0,0,1,1.6528,1.94531,2.85254,2.85254,0,0,1,.0425.47852,6.16149,6.16149,0,0,1-.7939,2.64453Zm-7.9624-6.61231a2.8264,2.8264,0,0,0-1.7447-2.18457,2.81412,2.81412,0,0,0-2.5678-.24707,5.08683,5.08683,0,0,0-2.0577,2.2959l-.8916,1.64258,5.7095,3.02539.564-1.03516a6.08712,6.08712,0,0,0,.9883-3.49707Zm-1.2818,3.33594-.4067.74219c-.2691-.14356-4.8374-2.56348-5.1128-2.709.1294-.24218.728-1.3457.728-1.3457a4.76975,4.76975,0,0,1,1.8999-2.14844,2.46306,2.46306,0,0,1,2.2715.23828,2.52027,2.52027,0,0,1,1.5693,1.92579,2.60735,2.60735,0,0,1,.021.34277,6.64375,6.64375,0,0,1-.9702,2.9541Zm136.9424-9.61914a8.6807,8.6807,0,0,0-5.2939,6.59473l-1.4795-3.2793,11.415-8.93362-5.1074-6.9658s-3.6836,2.9199-5.8399,4.625c-.1865.1484-.6767.5264-1.3476,1.042a11.52588,11.52588,0,0,0,1.1201-1.3018c1.79-2.7246,2.331-7.2519-.2139-10.1875a74.616,74.616,0,0,0-8.9961-9.0839l-7.3847,8.4043,5.6386-9.0733-7.8086-4.7617-3.7343,6.0371c.1103-7.8691-6.9375-13.2461-15.3096-12.4844-2.8408.2578-11.8252,3.0264-11.9355,15.2862l.0517.1572-2.9834-.419,2.251-18.5312-8.2193-.9951L106.027,48.8301l-8.7412-16.1758-6.544.8897L85.716,53.1758l-5.9683,2.4082,2.8789-14.9717-2.251-5.4453-4.3457,1.5703-1.3603-3.6123-8.74368,3.2471L67.235,40.5068l-3.24561,1.2569,2.87989,7.4853,6.38622-2.4599L70.547,61.1924l2.3823,5.875,15.4659-6.1651,4.0732-.5546,1.5708-6.544,4.9204-.5234,3.0899,5.916,4.1352-.5762,13.9258,1.7793.1094-.8301c2.8388,3.0508,7.4179,5.8877,13.6582,4.2334-.3614-.0644.6787-.0966,2.1621-.7871l-1.9473,3.2227,6.7324,4.2715.2325-.5117,4.5039,4.1806,3.3437-3.8086-.8828,5.94338,3.5293,3.4375,4.6914,6.63965L158.88,84.5293a8.76807,8.76807,0,0,0,3.4942,11.0107c3.9248,2.6905,13.3671,1.3692,13.8164-6.415l1.5996,3.07129c.1015.04492,6.1601-2.06055,6.9658-6.91895a8.49213,8.49213,0,0,0-11.5625-9.38086ZM93.50649,47.666c.2588-1.0595,1.1147-4.5635,1.5508-6.3515.8413,1.6357,2.4892,4.8281,2.9829,5.7861-1.0235.1279-3.4961.4365-4.5337.5654Zm-7.4839,7.6895s-7.4004,2.8183-8.9136,3.3955c.3281-1.7608,3.2764-17.586,3.2764-17.586l-1.2251-3.2158-.5234.2002L66.39368,42.835,67.943,46.7051s6.3936-2.4639,7.8638-3.0303c-.3208,1.7578-3.1201,17.1406-3.1201,17.1406l1.3462,3.5371,13.4868-5.1669-.0801-.2051,3.397-.4151s1.4892-5.916,1.6567-6.581c.6621-.0801,6.9224-.835,7.5913-.917.3169.6133,3.1089,5.9795,3.1089,5.9795l3.8579-.4981-.0474.3819,11.2911,1.3867.497-4.1026s-6.08-.7333-7.0249-.8476c.1284-1.0488,2.2598-18.5703,2.2598-18.5703l-4.2207-.5469-.0689.5586-2.5317,20.4932L96.18709,34.876l-.3837.0517-3.4024.4522-5.6118,21.9375-.7666-1.9619Zm-12.314-19.9532-5.4492,2.0196,1.1694,3.0683,5.4107-2.0595-1.1309-3.0284Zm52.8609,17.1602s7.3799,2.8613,8.8144,3.416a8.44036,8.44036,0,0,1-3.3349,1.7744,7.04885,7.04885,0,0,1-6.5791-1.83,7.232,7.232,0,0,1-1.6524-2.4356,6.33931,6.33931,0,0,1-.5244-2.8008,8.484,8.484,0,0,1,.5654-3.0097,7.0032,7.0032,0,0,1,1.5723-2.4698,7.72185,7.72185,0,0,1,2.4209-1.7431,6.15945,6.15945,0,0,1,2.6729-.6367,6.91892,6.91892,0,0,1,2.7519.4501,7.08289,7.08289,0,0,1,2.6162,1.7178,5.97637,5.97637,0,0,1,1.5225,2.6358l.0781.2705,4.707,1.7773-.0488-.8633a10.52224,10.52224,0,0,0-2.0498-5.7529,11.55532,11.55532,0,0,0-5.0928-3.6992,11.75229,11.75229,0,0,0-4.54-.8467,10.69275,10.69275,0,0,0-4.3701.9766,11.8109,11.8109,0,0,0-3.8594,2.6758,11.29164,11.29164,0,0,0-2.4551,3.9013,11.64313,11.64313,0,0,0-.8847,4.3945,11.0516,11.0516,0,0,0,.7226,4.1954,11.97392,11.97392,0,0,0,2.5918,4.1152,11.43726,11.43726,0,0,0,4.0752,2.6309,10.8937,10.8937,0,0,0,8.8359-.1788,12.70079,12.70079,0,0,0,6.3291-6.7802l.2422-.5401-13.6318-5.2158-1.4951,3.8711Zm22.5576-6.3076-.2988.4795L137.02059,65.625l3.6172,2.2481,12.1016-19.3184-3.6123-2.2998Zm13.7549,9.8496-5.1026-4.5732-.372.416-14.8711,16.5664,3.1308,2.8564s4.3545-4.8506,5.9512-6.6308c-.2852,2.5644-1.209,10.86325-1.209,10.86325l3.9903,3.60937s.8369-8.93942.9843-10.50392a6.7845,6.7845,0,0,0,4.1748,1.0928,6.61146,6.61146,0,0,0,4.6211-2.3291,7.15565,7.15565,0,0,0,2.1143-5.6817,9.47011,9.47011,0,0,0-3.4121-5.6855Zm-4.6651,9.7139a8.37709,8.37709,0,0,1-4.0107-2.3594s-.4316-.3721-.793-.6875c.6153-.6846,4.2451-4.7031,4.8555-5.376.4805.4365,1.3184,1.1973,1.3184,1.1973a7.08554,7.08554,0,0,1,2.413,3.3408,2.75248,2.75248,0,0,1,.0606.5537,3.29412,3.29412,0,0,1-.9834,2.1826,3.16788,3.16788,0,0,1-2.8604,1.1485Zm14.333.6601-.4453.3369-17.7715,13.378,2.5723,3.44335L175.12419,69.876l-2.5743-3.3975Zm9.8936,14.60842a6.4147,6.4147,0,0,0-3.7197-3.49023,6.84066,6.84066,0,0,0-5.2207.42089,7.03072,7.03072,0,0,0-1.6397,1.10645,5.89042,5.89042,0,0,0-1.1748,1.57715,6.21083,6.21083,0,0,0-.7265,3.0498,9.93424,9.93424,0,0,0,.1835,1.79394c.004.05176.0303.36328.0303.36328l.0088.07519.0059.06543a10.86662,10.86662,0,0,1,.1523,1.70508,3.25909,3.25909,0,0,1-.1933,1.292,2.67406,2.67406,0,0,1-1.4942,1.32911,3.17521,3.17521,0,0,1-2.4258.25879,2.96475,2.96475,0,0,1-1.6777-1.63575,2.57844,2.57844,0,0,1-.1055-2.19238,3.65888,3.65888,0,0,1,1.751-1.72266l.4756-.24512-1.6309-3.541-.5117.23633a7.466,7.466,0,0,0-3.9551,3.93066,6.68337,6.68337,0,0,0,.2491,5.33008,6.78306,6.78306,0,0,0,4.0957,3.77735,7.737,7.737,0,0,0,5.7392-.55372,6.35539,6.35539,0,0,0,3.1231-2.82519,6.986,6.986,0,0,0,.832-4.22559c-.001-.01855-.249-1.5957-.249-1.5957a4.8389,4.8389,0,0,1-.0108-2.6748,1.72253,1.72253,0,0,1,.4219-.6211,1.51339,1.51339,0,0,1,.5918-.40625,2.69722,2.69722,0,0,1,2.0322-.22265,2.19689,2.19689,0,0,1,1.3574,1.24218,2.24508,2.24508,0,0,1,.0967,1.71094,2.42341,2.42341,0,0,1-1.2656,1.38574l-.4707.25,1.7295,3.68653.5205-.28125a6.81044,6.81044,0,0,0,3.374-3.61231,5.97176,5.97176,0,0,0-.2988-4.74121ZM126.96789,46.2656l-1.9375,5.4444a11.06773,11.06773,0,0,1,.0596-1.5713,6.14686,6.14686,0,0,1,2.9267-4.8653c1.5957-.8837,6.961-1.6005,7.9873,4.5303l-9.0361-3.5381Zm29.2422,16.0918,1.9062-2.2509s2.5645,1.6376,1.3145,3.2363c-1.3887,1.7754-3.7021-1.374-3.2207-.9854Zm.2334,13.57718c-.0137-.1045.1768-2.60738.4736-4.50388a6.24062,6.24062,0,0,0,5.8262-.3096c-2.9297,2.2412-6.2998,4.81348-6.2998,4.81348ZM167.007,88.499c-1.1748.16895-1.5996-1.59668.5058-2.35352a2.9961,2.9961,0,0,1,.3028,1.00879,1.098,1.098,0,0,1-.8086,1.34473ZM95.85609,35.3174l-3.1421.418-5.8618,22.9209,3.6699-.4473s1.6016-6.3643,1.6563-6.582c.2192-.0264,7.9062-.9541,8.1264-.9815.106.2002,3.1118,5.9776,3.1118,5.9776l3.7911-.4913-11.2369-20.83-.1147.0156Zm-.0703.3476c.1079.2012,10.6675,19.7774,10.8935,20.1963-.4047.0518-2.8725.3711-3.0742.3975-.105-.2031-3.1089-5.9756-3.1089-5.9756l-8.5883,1.0381s-1.6006,6.3652-1.6548,6.583c-.1983.0234-2.5498.3086-2.9532.3584.1197-.4639,5.6289-22.0078,5.6866-22.2246.2002-.0254,2.5937-.3457,2.7993-.3731Zm-1.0791,4.0186L92.547,48.5225l6.6196-.8282-4.352-8.4482-.1079.4375Zm.2178.5166c.3627.6992,3.5253,6.835,3.7221,7.2197-.4228.0528-5.229.6533-5.6553.7071.1036-.4239,1.7496-7.1612,1.9332-7.9268ZM85.798,55.8613s-8.6738,3.3047-9.2022,3.5059c.105-.5713,3.3863-18.165,3.3863-18.165l-1.0464-2.7461-.1572.0605-11.87163,4.542,1.25783,3.1396s7.6294-2.9414,8.1523-3.1416c-.103.5713-3.227,17.7207-3.227,17.7207l1.1675,3.0694L87.01329,58.96,85.798,55.8613Zm-12.3599,4.8838c.0176-.0908,3.3155-18.2178,3.3155-18.2178s-8.1036,3.1221-8.4004,3.2383c-.105-.2588-.9019-2.248-1.0054-2.5136.3052-.1182,11.0913-4.2461,11.3945-4.3604.1031.2705.8609,2.2617.8921,2.3418-.0195.0918-3.4795,18.6621-3.4795,18.6621s9.1494-3.4873,9.4512-3.6006c.1016.2598.8657,2.2071.9673,2.4727-.3032.1152-11.8189,4.5273-12.1206,4.6445-.105-.2783-.9824-2.5859-1.0147-2.667Zm.0454-24.832-.1552.0576-4.5606,1.7158.8462,2.253,4.7158-1.7745-.8462-2.2519Zm-4.2812,1.9707c.2803-.1065,3.8042-1.4316,4.0845-1.5371.0937.2422.52,1.3818.6103,1.6211-.2808.1084-3.8061,1.4326-4.0879,1.539-.0903-.2441-.518-1.3808-.6069-1.623Zm40.9238-3.0273L107.442,56.5869l10.5103,1.294.4023-3.3223s-6.707-.8105-7.0234-.8486c.0381-.3291,2.2593-18.5743,2.2593-18.5743l-3.4429-.4462-.0215.167Zm.315.2109c.2851.0351,2.4936.3232,2.7744.3594-.0381.3261-2.2613,18.5761-2.2613,18.5761s6.708.8096,7.0264.8477c-.0332.2822-.2881,2.373-.3213,2.6543-.3203-.0391-9.5234-1.1719-9.8413-1.21.0386-.3261,2.5816-20.9004,2.6231-21.2275Zm20.0385,3.8418a10.32879,10.32879,0,0,0-4.2226.9424,11.45117,11.45117,0,0,0-3.7295,2.584,10.88712,10.88712,0,0,0-2.376,3.7705,11.31981,11.31981,0,0,0-.8574,4.2587,10.54489,10.54489,0,0,0,.6972,4.0567,11.53873,11.53873,0,0,0,2.5,3.9766,11.074,11.074,0,0,0,3.9356,2.5429,10.52888,10.52888,0,0,0,8.5312-.1679,12.35467,12.35467,0,0,0,6.1407-6.585l.0703-.1621-12.8799-4.9287-1.2119,3.1396s8.5644,3.3203,9.0596,3.5137a9.266,9.266,0,0,1-3.9942,2.2842,7.437,7.437,0,0,1-6.9502-1.9336,7.61378,7.61378,0,0,1-1.7383-2.5684,6.74637,6.74637,0,0,1-.5546-2.9599,8.77943,8.77943,0,0,1,.5957-3.1358,7.29214,7.29214,0,0,1,1.6572-2.6064,8.11544,8.11544,0,0,1,2.5351-1.8242,6.559,6.559,0,0,1,2.837-.6719,7.28228,7.28228,0,0,1,2.8886.4746,7.50612,7.50612,0,0,1,2.7647,1.8164,6.38424,6.38424,0,0,1,1.6172,2.7978l.0224.0801,3.9551,1.4951-.0147-.2588a10.1042,10.1042,0,0,0-1.9707-5.5419,11.18584,11.18584,0,0,0-4.9209-3.5694,11.34361,11.34361,0,0,0-4.3867-.8193ZM126.546,60.7256a10.73126,10.73126,0,0,1-3.8164-2.4658,11.143,11.143,0,0,1-2.4238-3.8594,10.28994,10.28994,0,0,1-.6758-3.9307,11.00553,11.00553,0,0,1,.834-4.1435,10.58055,10.58055,0,0,1,2.3096-3.6592,11.06225,11.06225,0,0,1,3.622-2.5078,9.98886,9.98886,0,0,1,4.0899-.9131,11.04635,11.04635,0,0,1,4.2617.7959,10.86023,10.86023,0,0,1,4.7725,3.458,9.759,9.759,0,0,1,1.8691,5.0938c-.4424-.167-3.1904-1.2041-3.3076-1.2491a6.67112,6.67112,0,0,0-1.6621-2.8545,7.81644,7.81644,0,0,0-2.8828-1.8945,7.59671,7.59671,0,0,0-3.0176-.4971,6.8632,6.8632,0,0,0-2.9727.7032,8.38481,8.38481,0,0,0-2.6328,1.8935,7.64978,7.64978,0,0,0-1.7334,2.7217,9.19694,9.19694,0,0,0-.6162,3.249,7.03309,7.03309,0,0,0,.5801,3.0957,7.88234,7.88234,0,0,0,1.8105,2.6758,7.76474,7.76474,0,0,0,7.2705,2.0234,9.732,9.732,0,0,0,4.3516-2.5439l.1953-.1836s-8.956-3.4717-9.2588-3.5879c.1006-.2637.8662-2.25.9688-2.5146.3008.1162,11.8847,4.5478,12.2236,4.6787a11.95778,11.95778,0,0,1-5.8896,6.2578,10.069,10.069,0,0,1-8.2696.1582Zm31.1534-8.5156L143.088,68.4873l2.5518,2.3252s5.8779-6.5449,6.5058-7.2451c-.1074.956-1.3242,11.8789-1.3242,11.8789l3.2617,2.94726s.9239-9.84766.9727-10.38676a6.56158,6.56158,0,0,0,4.4766,1.4034,6.15312,6.15312,0,0,0,4.3535-2.1973,6.69392,6.69392,0,0,0,2.0176-5.3809,9.08269,9.08269,0,0,0-3.2832-5.4345l-4.8096-4.3125-.1113.125Zm.1377.3506c.2343.2119,4.5566,4.0869,4.5566,4.0869a8.76231,8.76231,0,0,1,3.1758,5.2275,5.69652,5.69652,0,0,1,.0371.6289,6.62591,6.62591,0,0,1-1.9737,4.4844,5.82379,5.82379,0,0,1-4.1279,2.0849,6.29979,6.29979,0,0,1-4.4844-1.497l-.2441-.1944s-.9082,9.68754-.9668,10.31352c-.4082-.36817-2.5234-2.28027-2.6348-2.38281.0176-.1709,1.4219-12.75191,1.4219-12.75191s-6.7607,7.5312-6.9805,7.7763c-.2119-.1943-1.8447-1.6846-2.0527-1.874.2158-.2441,14.0527-15.6582,14.2735-15.9023ZM172.339,67.1289,154.88,80.27247l2.1026,2.8125,17.5927-13.28517-2.1025-2.7715-.1338.1006Zm.0684.3701c.1718.2256,1.5254,2.0078,1.6953,2.2354-.2637.1982-16.791,12.67869-17.0528,12.87889-.1738-.22852-1.5283-2.04688-1.6972-2.27344.2617-.19727,16.7929-12.64455,17.0547-12.84085Zm1.2578,10.877a6.6225,6.6225,0,0,0-1.5391,1.03907,5.41709,5.41709,0,0,0-1.0859,1.46191,6.79725,6.79725,0,0,0-.5,4.66992c-.002-.0332.0234.30762.0234.30762l.0117.10449a6.17911,6.17911,0,0,1-.0644,3.24414,3.04248,3.04248,0,0,1-1.6944,1.5293,3.5492,3.5492,0,0,1-2.706.27637,3.35616,3.35616,0,0,1-1.9151-1.84766,2.99038,2.99038,0,0,1-.1181-2.49512,4.0603,4.0603,0,0,1,1.9404-1.93066l.1426-.07422-1.3096-2.84277-.1543.07226a7.08784,7.08784,0,0,0-3.7568,3.72266,6.22591,6.22591,0,0,0,.2422,5.01855,6.39365,6.39365,0,0,0,3.8584,3.56446,7.35589,7.35589,0,0,0,5.4521-.53321,5.97986,5.97986,0,0,0,2.9444-2.65722,6.62,6.62,0,0,0,.789-4.00977c-.0019-.00586-.2461-1.55176-.2461-1.55176a5.45594,5.45594,0,0,1,.0254-2.92187,2.06135,2.06135,0,0,1,.4912-.72461,1.83945,1.83945,0,0,1,.7178-.48926,3.086,3.086,0,0,1,2.3066-.2373,2.60513,2.60513,0,0,1,1.5918,1.44628,2.64634,2.64634,0,0,1,.1153,2.01368,2.82372,2.82372,0,0,1-1.4531,1.60156l-.1417.07617,1.3936,2.9707.1563-.083a6.43532,6.43532,0,0,0,3.1894-3.40137,5.60485,5.60485,0,0,0-.2871-4.44727,6.03632,6.03632,0,0,0-3.4902-3.28125,6.46839,6.46839,0,0,0-4.9297.40918Zm-2.7666,7.43164-.0244-.29394a6.53518,6.53518,0,0,1,.4629-4.47949,5.16467,5.16467,0,0,1,1.0214-1.377,6.25235,6.25235,0,0,1,1.4502-.97656,6.14587,6.14587,0,0,1,4.6778-.39648,5.64178,5.64178,0,0,1,3.292,3.10351,6.13275,6.13275,0,0,1,.5918,2.50488,4.682,4.682,0,0,1-.3145,1.68262,6.03052,6.03052,0,0,1-2.8789,3.12891c-.1367-.28613-1.0215-2.166-1.1152-2.37207a3.12184,3.12184,0,0,0,1.4863-1.69141,2.88869,2.88869,0,0,0,.1621-.957,3.16484,3.16484,0,0,0-.293-1.30566,2.91726,2.91726,0,0,0-1.7959-1.627,3.40511,3.40511,0,0,0-2.5459.251,2.145,2.145,0,0,0-.8261.56934,2.27245,2.27245,0,0,0-.5528.81542,5.66207,5.66207,0,0,0-.0488,3.11622l.2402,1.52343a6.286,6.286,0,0,1-.7441,3.81446,5.67837,5.67837,0,0,1-2.794,2.5166,7.01186,7.01186,0,0,1-5.208.5166,6.05159,6.05159,0,0,1-3.6523-3.38281,6.48441,6.48441,0,0,1-.6328-2.7002,5.59224,5.59224,0,0,1,.3965-2.05469,6.61878,6.61878,0,0,1,3.4394-3.458c.1231.27343.9395,2.04394,1.0371,2.2539a4.40066,4.40066,0,0,0-1.9629,2.00489,3.51534,3.51534,0,0,0-.2441,1.26464,3.34845,3.34845,0,0,0,.3682,1.50391,3.67179,3.67179,0,0,0,2.1132,2.02051,3.85736,3.85736,0,0,0,2.9561-.28906,3.34028,3.34028,0,0,0,1.8594-1.70313,6.68429,6.68429,0,0,0,.0918-3.40137c0,.02637-.0127-.125-.0127-.125ZM149.15929,46.9434,137.55969,65.5l2.9531,1.833,11.6875-18.6572-2.9502-1.877-.0908.1446Zm.1953.3213c.2422.1543,2.1416,1.3652,2.3828,1.5156-.1738.2773-11.1562,17.8125-11.332,18.0898-.2402-.1484-2.1387-1.3271-2.3779-1.4785.1748-.2793,11.1513-17.8457,11.3271-18.1269Z" fill="#231f20" fill-rule="evenodd"/><polygon points="102.473 135.759 102.471 135.759 102.473 135.759 102.473 135.759" fill="#231f20" fill-rule="evenodd"/><polygon points="102.483 135.76 102.477 135.76 102.483 135.76 102.483 135.76" fill="#231f20" fill-rule="evenodd"/><polygon points="102.493 135.76 102.488 135.76 102.493 135.76 102.493 135.76" fill="#231f20" fill-rule="evenodd"/><polygon points="102.503 135.76 102.5 135.76 102.503 135.76 102.503 135.76" fill="#231f20" fill-rule="evenodd"/><path d="M144.26479,138.2002c.0693-.0527.1562-.1182,0,0Z" fill="#231f20" fill-rule="evenodd"/></svg>