<?xml version="1.0" encoding="UTF-8"?>
<svg width="90px" height="103px" viewBox="0 0 90 103" version="1.1" xmlns="http://www.w3.org/2000/svg" xmlns:xlink="http://www.w3.org/1999/xlink">
    <!-- Generator: sketchtool 52.6 (67491) - http://www.bohemiancoding.com/sketch -->
    <title>ACB43EC7-C508-472E-B8A7-EA6393E0A53E</title>
    <desc>Created with sketchtool.</desc>
    <g id="Page-1" stroke="none" stroke-width="1" fill="none" fill-rule="evenodd">
        <g id="Home-Desktop-Copy-6" transform="translate(-41.000000, -13.000000)">
            <g id="Header-New" transform="translate(0.000000, -1.000000)">
                <g id="Group-13" transform="translate(42.000000, 15.000000)">
                    <path d="M44,101 C54.0433701,98.8989735 65.7222695,94.1020101 76.4044283,79.2840637 C90.7098428,59.4430652 88.0706671,35.239011 87.3075735,10.6261701 C87.209741,7.46435355 85.3279039,8.30019672 81.3697158,8.76607652 C77.4115277,9.23081445 69.5987387,8.50915751 62.8793719,6.75068964 C55.4061194,4.79582146 47.9812076,1.64884909 45.1739901,0.4053611 C44.4201043,0.0707954597 44,0 44,0 C44,0 43.5798957,0.0707954597 42.8260099,0.4053611 C40.0187924,1.64884909 32.5938806,4.79582146 25.1206281,6.75068964 C18.4024122,8.50915751 10.5884723,9.23081445 6.6302842,8.76607652 C2.67209606,8.30019672 0.790259011,7.46435355 0.692426503,10.6261701 C-0.0706670526,35.239011 -2.7098428,59.4430652 11.5955717,79.2840637 C22.2777305,94.1020101 33.9566299,98.8989735 44,101" id="Fill-1" fill="#231F20"></path>
                    <path d="M43.8976186,101.489406 C30.8986678,98.7700855 20.5318521,92.5352035 11.1899974,79.5764838 C5.14923866,71.1982095 1.78922962,61.6855717 0.364542171,50.2594007 C-0.714296946,41.6069764 -0.715293931,34.5164923 -0.0726811577,17.9510574 C0.0665064483,14.3630441 0.129068172,12.6619824 0.192665681,10.6107066 C0.242218893,9.00921266 0.754121277,8.14960905 1.86223132,7.89140937 C2.6184914,7.71519392 2.56187814,7.70953186 5.73720506,8.14705916 C6.07956757,8.19423319 6.38570604,8.23383818 6.68858959,8.26948767 C10.7846186,8.75040975 18.6215671,7.9349505 24.9940945,6.26696528 C30.962306,4.70578872 37.2144226,2.34421773 42.6231911,-0.0516559095 C43.2271706,-0.319694885 43.6659331,-0.450753399 43.9169121,-0.493048079 L44.0830879,-0.493048079 C44.3340669,-0.450753399 44.7728294,-0.319694885 45.3764929,-0.0517960063 C50.7855774,2.34421773 57.037694,4.70578872 63.0059596,6.26697943 C69.379748,7.93500894 77.2155743,8.7503871 81.3112691,8.26950428 C81.614294,8.23383818 81.9204324,8.19423319 82.2627949,8.14705916 C85.4381219,7.70953186 85.3815086,7.71519392 86.1377687,7.89140937 C87.2458787,8.14960905 87.7577811,9.00921266 87.8073334,10.6106756 C87.8709318,12.6619824 87.9334936,14.3630441 88.0726812,17.9510574 C88.7152939,34.5164923 88.7142969,41.6069764 87.6354578,50.2594007 C86.2107704,61.6855717 82.8507613,71.1982095 76.8100236,79.5764546 C67.4681479,92.5352035 57.1013322,98.7700855 44.1023814,101.489406 L43.8976186,101.489406 Z" id="Stroke-3" stroke="#FFE04F" stroke-linecap="round" stroke-linejoin="round"></path>
                    <path d="M12.4967762,14.5656827 L7.73626374,14.5656827 L7.73626374,15.8847145 L8.40722374,15.8847145 L8.40722374,21.1619048 L14.7352081,21.1619048 L14.7352081,16.6106604 C14.7352081,15.1810892 14.0517175,14.5656827 12.4967762,14.5656827 Z M12.9444626,19.84181 L10.1979693,19.84181 L10.1979693,15.8847145 L11.9784624,15.8847145 C12.6380309,15.8847145 12.9444626,16.1929492 12.9444626,16.8965746 L12.9444626,19.84181 Z M18.1162086,18.4356222 L18.1162086,14.5656827 L15.4175596,14.5656827 L15.4175596,15.8847145 L16.2776187,15.8847145 L16.2776187,18.4356222 L18.1162086,18.4356222 Z M20.6132278,21.1619048 L22.5224451,21.1619048 L24.9374454,15.8847145 L24.9374454,14.5656827 L21.3320322,14.5656827 L21.3320322,13.4666667 L19.5766003,13.4666667 L19.5766003,15.8847145 L23.0168367,15.8847145 L20.6132278,21.1619048 Z M34.3627817,14.5656827 L32.5720361,14.5656827 L32.5720361,18.6109971 C32.5720361,19.4357906 32.1357412,19.84181 31.2050548,19.84181 L29.0486418,19.84181 C28.1190945,19.84181 27.6941911,19.4357906 27.6941911,18.6109971 L27.6941911,14.5656827 L25.9045847,14.5656827 L25.9045847,18.7757432 C25.9045847,20.3594317 26.8466627,21.1619048 28.7900545,21.1619048 L31.4636421,21.1619048 C33.408173,21.1619048 34.3627817,20.3594317 34.3627817,18.7757432 L34.3627817,14.5656827 Z M29.2377408,18.2591844 C29.2377408,18.5674191 29.3789956,18.7098448 29.6740357,18.7098448 L31.0296255,18.7098448 L31.0296255,14.5656827 L29.2377408,14.5656827 L29.2377408,18.2591844 Z M38.1561548,21.1619048 L38.1561548,14.5656827 L35.375487,14.5656827 L35.375487,15.8847145 L36.3187041,15.8847145 L36.3187041,21.1619048 L38.1561548,21.1619048 Z M42.4450587,21.1619048 L44.2950401,21.1619048 L44.2950401,17.0390003 C44.2950401,15.3128861 43.4463726,14.5656827 41.5257638,14.5656827 L39.1107635,14.5656827 L39.1107635,15.8847145 L41.19541,15.8847145 C42.0793912,15.8847145 42.4450587,16.3024257 42.4450587,17.2696448 L42.4450587,21.1619048 Z M47.7113543,18.4356222 L47.7113543,14.5656827 L45.0138445,14.5656827 L45.0138445,15.8847145 L45.8739036,15.8847145 L45.8739036,18.4356222 L47.7113543,18.4356222 Z M54.7683954,21.1619048 L56.6172376,21.1619048 L56.6172376,17.0390003 C56.6172376,15.3128861 55.7697092,14.5656827 53.8502396,14.5656827 L51.4352393,14.5656827 L51.4352393,15.8847145 L53.5198858,15.8847145 C54.4027279,15.8847145 54.7683954,16.3024257 54.7683954,17.2696448 L54.7683954,21.1619048 Z M58.0559855,13.6866825 L57.6550043,16.7860353 L58.8921224,16.7860353 L59.5163772,13.6866825 L58.0559855,13.6866825 Z M60.1281013,13.6866825 L59.7282593,16.7860353 L60.9653774,16.7860353 L61.6010237,13.6866825 L60.1281013,13.6866825 Z M62.4143776,14.5656827 L62.4143776,15.8847145 L63.2744367,15.8847145 L63.2744367,19.84181 L62.0498493,19.84181 L62.0498493,21.1619048 L64.535477,21.1619048 C64.935319,21.1619048 65.1118874,21.0077874 65.1118874,20.6559747 L65.1118874,15.8847145 L67.633968,15.8847145 L67.633968,21.1619048 L69.4725578,21.1619048 L69.4725578,14.5656827 L62.4143776,14.5656827 Z M73.1941645,18.4356222 L73.1941645,14.5656827 L70.4966547,14.5656827 L70.4966547,15.8847145 L71.3567138,15.8847145 L71.3567138,18.4356222 L73.1941645,18.4356222 Z M79.3808942,19.84181 L79.3808942,16.7201368 C79.3808942,15.1268824 78.7441087,14.5656827 76.9647547,14.5656827 L74.1259901,14.5656827 L74.1259901,15.8847145 L76.5763041,15.8847145 C77.2825778,15.8847145 77.5423043,16.1270508 77.5423043,16.8413049 L77.5423043,19.84181 L74.1259901,19.84181 L74.1259901,21.1619048 L80.2637363,21.1619048 L80.2637363,19.84181 L79.3808942,19.84181 Z" id="Fill-5" fill="#FEFEFE"></path>
                    <path d="M10.6694065,28.6771351 C11.2912052,28.5709194 11.6612961,28.1046881 11.6612961,27.3444069 C11.6612961,26.4454862 11.0567377,25.9714286 9.91313382,25.9714286 L7.73626374,25.9714286 L7.73626374,31.6936625 L9.97290005,31.6936625 C11.1992572,31.6936625 11.8038156,31.1536392 11.8038156,30.0914817 C11.8038156,29.2082139 11.3417766,28.767698 10.6694065,28.6771351 Z M10.9050234,27.4830464 C10.9050234,28.1617092 10.5602182,28.4233354 9.77980915,28.4233354 L8.49253645,28.4233354 L8.49253645,26.5595284 L9.77980915,26.5595284 C10.5602182,26.5595284 10.9050234,26.8457519 10.9050234,27.4830464 Z M9.81199097,31.1055626 L8.49253645,31.1055626 L8.49253645,28.9465877 L9.81199097,28.9465877 C10.6694065,28.9465877 11.0394974,29.2406376 11.0394974,30.0098633 C11.0394974,30.7701445 10.6694065,31.1055626 9.81199097,31.1055626 Z M16.502361,26.5762993 L16.502361,25.9714286 L12.7796143,25.9714286 L12.7796143,30.1731001 C12.7796143,31.3012232 13.1991273,31.6936625 14.4266337,31.6936625 L16.502361,31.6936625 L16.502361,31.0887917 L14.5438675,31.0887917 C13.8542571,31.0887917 13.5519779,30.7869154 13.5519779,30.1082526 L13.5519779,28.8817402 L16.1575558,28.8817402 L16.1575558,28.3171196 L13.5519779,28.3171196 L13.5519779,26.5762993 L16.502361,26.5762993 Z M17.5528674,31.6947805 L18.325231,31.6947805 L18.325231,25.9714286 L17.5528674,25.9714286 L17.5528674,31.6947805 Z M23.4524842,25.9714286 L19.2079323,25.9714286 L19.2079323,26.5762993 L20.9468998,26.5762993 L20.9468998,31.6936625 L21.7204128,31.6936625 L21.7204128,26.5762993 L23.4524842,26.5762993 L23.4524842,25.9714286 Z M27.7211724,31.6936625 L28.5705425,31.6936625 L26.2258673,25.9714286 L25.4098283,25.9714286 L23.065153,31.6936625 L23.9133738,31.6936625 L24.4937959,30.2055239 L27.1418997,30.2055239 L27.7211724,31.6936625 Z M24.704127,29.6576742 L25.8224452,26.7887308 L26.9304192,29.6576742 L24.704127,29.6576742 Z M33.0242762,30.7131234 C32.8219905,29.765008 32.5622372,29.2820059 31.99101,29.0695744 C32.7139515,28.9063375 33.0576074,28.4076825 33.0576074,27.5892622 C33.0576074,26.5025073 32.5116658,25.9714286 31.2761139,25.9714286 L29.1923412,25.9714286 L29.1923412,31.6936625 L29.9647048,31.6936625 L29.9647048,29.3312005 L30.9910749,29.3312005 C31.7806788,29.3479714 32.0415814,29.691216 32.2507632,30.7131234 L32.4610944,31.6936625 L33.2438022,31.6936625 L33.0242762,30.7131234 Z M29.9647048,28.7755244 L29.9647048,26.5427575 L31.0152113,26.5427575 C31.9404386,26.5427575 32.2852437,26.902773 32.2852437,27.6552278 C32.2852437,28.4233354 31.9404386,28.7755244 31.0152113,28.7755244 L29.9647048,28.7755244 Z M38.0917631,25.9714286 L36.3263605,25.9714286 L36.3263605,26.5762993 L37.3193995,26.5762993 L37.3193995,30.2144684 C37.3193995,30.834992 37.0665424,31.0887917 36.4780748,31.0887917 L35.8148995,31.0887917 L35.8148995,31.6936625 L36.6205943,31.6936625 C37.6975358,31.6936625 38.0917631,31.2933968 38.0917631,30.2871423 L38.0917631,25.9714286 Z M43.1339643,26.5762993 L43.1339643,25.9714286 L39.4112176,25.9714286 L39.4112176,30.1731001 C39.4112176,31.3012232 39.83188,31.6936625 41.0582371,31.6936625 L43.1339643,31.6936625 L43.1339643,31.0887917 L41.1766202,31.0887917 C40.4870098,31.0887917 40.1847306,30.7869154 40.1847306,30.1082526 L40.1847306,28.8817402 L42.7891591,28.8817402 L42.7891591,28.3171196 L40.1847306,28.3171196 L40.1847306,26.5762993 L43.1339643,26.5762993 Z M48.0164058,30.7131234 C47.8152694,29.765008 47.5555162,29.2820059 46.9842889,29.0695744 C47.7060811,28.9063375 48.0497369,28.4076825 48.0497369,27.5892622 C48.0497369,26.5025073 47.5049447,25.9714286 46.2693928,25.9714286 L44.1844708,25.9714286 L44.1844708,31.6936625 L44.9579837,31.6936625 L44.9579837,29.3312005 L45.9843539,29.3312005 C46.7728084,29.3479714 47.033711,29.691216 47.2440421,30.7131234 L47.4543733,31.6936625 L48.2359317,31.6936625 L48.0164058,30.7131234 Z M44.9579837,28.7755244 L44.9579837,26.5427575 L46.0084902,26.5427575 C46.9325681,26.5427575 47.2785227,26.902773 47.2785227,27.6552278 C47.2785227,28.4233354 46.9325681,28.7755244 46.0084902,28.7755244 L44.9579837,28.7755244 Z M53.8493602,25.9714286 L53.0758472,25.9714286 L53.0758472,29.6576742 C53.0758472,30.7287762 52.6138083,31.1704101 51.5299706,31.1704101 C50.4380875,31.1704101 49.9748992,30.7287762 49.9748992,29.6576742 L49.9748992,25.9714286 L49.2013863,25.9714286 L49.2013863,29.6576742 C49.2013863,31.1055626 49.9335226,31.7428571 51.5299706,31.7428571 C53.1183732,31.7428571 53.8493602,31.1055626 53.8493602,29.6576742 L53.8493602,25.9714286 Z M57.6571588,28.9801295 L56.4216069,28.1863065 C55.8331394,27.8184646 55.5975225,27.622804 55.5975225,27.2706149 C55.5975225,26.7809044 55.9078472,26.5762993 56.5227497,26.5762993 L58.5973276,26.5762993 L58.5973276,25.9714286 L56.3871264,25.9714286 C55.3538602,25.9714286 54.8240095,26.3470969 54.8240095,27.197941 C54.8240095,27.7457907 55.1607692,28.1292854 55.8664705,28.6033431 L57.1008731,29.4541872 C57.647964,29.7963137 57.9249575,30.042287 57.9249575,30.4023025 C57.9249575,30.8841866 57.6307237,31.0887917 57.0503017,31.0887917 L54.966529,31.0887917 L54.966529,31.6936625 L57.202016,31.6936625 C58.1950549,31.6936625 58.6984705,31.260973 58.6984705,30.4179554 C58.6984705,29.8622793 58.3203341,29.4049925 57.6571588,28.9801295 Z M63.5728665,31.6936625 L64.4222366,31.6936625 L62.0775613,25.9714286 L61.2626717,25.9714286 L58.9179964,31.6936625 L59.7662172,31.6936625 L60.3466393,30.2055239 L62.9924444,30.2055239 L63.5728665,31.6936625 Z M60.5558211,29.6576742 L61.6741392,26.7887308 L62.7832626,29.6576742 L60.5558211,29.6576742 Z M68.6909248,31.0887917 L66.708295,31.0887917 C66.0186846,31.0887917 65.7750223,30.8517629 65.7750223,30.2055239 L65.7750223,25.9714286 L65.0015093,25.9714286 L65.0015093,30.410129 C65.0015093,31.3504179 65.4049314,31.6936625 66.488769,31.6936625 L68.6909248,31.6936625 L68.6909248,31.0887917 Z M73.1618987,26.5762993 L73.1618987,25.9714286 L69.4391521,25.9714286 L69.4391521,30.1731001 C69.4391521,31.3012232 69.8586651,31.6936625 71.0861715,31.6936625 L73.1618987,31.6936625 L73.1618987,31.0887917 L71.2034053,31.0887917 C70.5137949,31.0887917 70.212665,30.7869154 70.212665,30.1082526 L70.212665,28.8817402 L72.8170936,28.8817402 L72.8170936,28.3171196 L70.212665,28.3171196 L70.212665,26.5762993 L73.1618987,26.5762993 Z M79.1787493,25.9714286 L77.2374961,29.6420214 L75.2962429,25.9714286 L74.2124052,25.9714286 L74.2124052,31.6936625 L74.9433922,31.6936625 L74.9433922,26.8535783 L76.926022,30.483921 L77.5478207,30.483921 L79.5315999,26.8535783 L79.5315999,31.6936625 L80.2637363,31.6936625 L80.2637363,25.9714286 L79.1787493,25.9714286 Z" id="Fill-7" fill="#FFE04F"></path>
                    <path d="M35.7161942,84.7028571 L35.7161942,83.6857143 L29.978022,83.6857143 L29.978022,93.3047619 L31.1778633,93.3047619 L31.1778633,88.6457143 L35.1815321,88.6457143 L35.1815321,87.6984127 L31.1778633,87.6984127 L31.1778633,84.7028571 L35.7161942,84.7028571 Z M39.8377864,84.7028571 L42.4458383,84.7028571 L42.4458383,83.6857143 L39.6145335,83.6857143 C37.5422885,83.6857143 36.7065212,84.4412698 36.7065212,86.3104762 L36.7065212,90.6939683 C36.7065212,92.5492063 37.5422885,93.3047619 39.6145335,93.3047619 L42.4458383,93.3047619 L42.4458383,92.2888889 L39.8377864,92.2888889 C38.467357,92.2888889 37.9075074,91.7657143 37.9075074,90.5149206 L37.9075074,86.4895238 C37.9075074,85.2387302 38.467357,84.7028571 39.8377864,84.7028571 Z M48.7965249,88.2342857 C49.7616644,88.0565079 50.3352527,87.271746 50.3352527,85.9955556 C50.3352527,84.4831746 49.3964455,83.6857143 47.6218711,83.6857143 L44.2444553,83.6857143 L44.2444553,93.3047619 L47.7134621,93.3047619 C49.6185536,93.3047619 50.5573607,92.3980952 50.5573607,90.6114286 C50.5573607,89.1269841 49.8395167,88.3853968 48.7965249,88.2342857 Z M49.1617438,86.2279365 C49.1617438,87.3695238 48.6259368,87.807619 47.4146466,87.807619 L45.4191091,87.807619 L45.4191091,84.6761905 L47.4146466,84.6761905 C48.6259368,84.6761905 49.1617438,85.1561905 49.1617438,86.2279365 Z M47.4661665,92.3155556 L45.4191091,92.3155556 L45.4191091,88.687619 L47.4661665,88.687619 C48.7965249,88.687619 49.3701132,89.1815873 49.3701132,90.4742857 C49.3701132,91.7530159 48.7965249,92.3155556 47.4661665,92.3155556 Z M55.1208791,83.6857143 L52.383455,83.6857143 L52.383455,84.7028571 L53.9210378,84.7028571 L53.9210378,90.8171429 C53.9210378,91.8622222 53.5306315,92.2888889 52.6181568,92.2888889 L51.5866138,92.2888889 L51.5866138,93.3047619 L52.8391199,93.3047619 C54.5083647,93.3047619 55.1208791,92.631746 55.1208791,90.9415873 L55.1208791,83.6857143 Z" id="Fill-9" fill="#FFE04F"></path>
                    <path d="M45.1468221,63.3298491 L45.1468221,57.8798308 C56.5715143,56.8218319 65.5551114,47.2653042 65.7732713,35.5904762 L61.5363754,35.5904762 C61.3239565,44.9167538 54.2291653,52.5622062 45.1468221,53.6098439 L45.1468221,48.1183806 C51.2311883,47.1190954 55.9124416,41.9188984 56.1179712,35.5904762 L51.8661486,35.5904762 C51.6743975,39.5726505 48.886543,42.8686798 45.1468221,43.7896799 L45.1468221,35.5904762 L40.9191119,35.5904762 L40.9191119,43.7919824 C37.1816875,42.8755873 34.3926848,39.5738018 34.2009337,35.5904762 L29.9479629,35.5904762 C30.1511961,41.9246546 34.8335975,47.1237004 40.9191119,48.1206831 L40.9191119,53.6098439 C31.8356205,52.5691137 24.7385329,44.9213588 24.5249658,35.5904762 L20.2915145,35.5904762 C20.5085263,47.2676067 29.4967162,56.8264369 40.9191119,57.885587 L40.9191119,63.3356054 C26.5056285,62.2534302 15.0958631,50.2643109 14.8754067,35.5904762 L10.6373626,35.5904762 C10.8601154,52.597895 24.1586867,66.4842746 40.8938513,67.5848697 L40.8938513,75.0530296 C36.2493408,75.7506872 32.3362402,78.6829214 30.2740546,82.7238095 L55.7918795,82.7238095 C53.7273974,78.6771652 49.8062594,75.7414772 45.1548596,75.0495759 L45.1548596,67.586021 C61.9038027,66.4911821 75.2069668,52.6025 75.4285714,35.5904762 L71.1951202,35.5904762 C70.9735156,50.2585546 59.562602,62.2499764 45.1468221,63.3298491" id="Fill-11" fill="#FFE04F"></path>
                </g>
            </g>
        </g>
    </g>
</svg>