<?xml version="1.0" encoding="utf-8"?>
<!-- Generator: Adobe Illustrator 15.1.0, SVG Export Plug-In . SVG Version: 6.00 Build 0)  -->
<!DOCTYPE svg PUBLIC "-//W3C//DTD SVG 1.1//EN" "http://www.w3.org/Graphics/SVG/1.1/DTD/svg11.dtd" [
	<!ENTITY ns_extend "http://ns.adobe.com/Extensibility/1.0/">
	<!ENTITY ns_ai "http://ns.adobe.com/AdobeIllustrator/10.0/">
	<!ENTITY ns_graphs "http://ns.adobe.com/Graphs/1.0/">
	<!ENTITY ns_vars "http://ns.adobe.com/Variables/1.0/">
	<!ENTITY ns_imrep "http://ns.adobe.com/ImageReplacement/1.0/">
	<!ENTITY ns_sfw "http://ns.adobe.com/SaveForWeb/1.0/">
	<!ENTITY ns_custom "http://ns.adobe.com/GenericCustomNamespace/1.0/">
	<!ENTITY ns_adobe_xpath "http://ns.adobe.com/XPath/1.0/">
]>
<svg version="1.1" id="Layer_1" xmlns:x="&ns_extend;" xmlns:i="&ns_ai;" xmlns:graph="&ns_graphs;"
	 xmlns="http://www.w3.org/2000/svg" xmlns:xlink="http://www.w3.org/1999/xlink" x="0px" y="0px" width="365"
	 height="274" viewBox="0 -150.368 375.553 282.632" enable-background="new 0 -150.368 375.553 282.632"
	 xml:space="preserve">
<metadata>
	<sfw  xmlns="&ns_sfw;">
		<slices></slices>
		<sliceSourceBounds  width="374.927" height="282.159" y="153.369" x="82.626" bottomLeftOrigin="true"></sliceSourceBounds>
	</sfw>
</metadata>
<path fill="#EF5A20" d="M52.582,70.733L26.404,47.315l-0.57,19.421L5.916,66.165c35.191,41.561,63.458,63.941,77.402,58.276
	l10.243-17.712L52.582,70.733L52.582,70.733z"/>
<path d="M50.791,72.74L28.922,53.171L28.523,66.81l-0.08,2.692l-2.679-0.075l-13.873-0.4c3.528,4.079,6.984,7.963,10.359,11.634
	c4.623,5.029,9.071,9.642,13.322,13.808c20.691,20.283,36.819,30.507,45.925,27.775l8.646-14.95L50.825,72.755L50.791,72.74
	L50.791,72.74z M28.198,45.304l26.181,23.425l-0.009,0.013l40.954,35.971l1.655,1.458l-1.101,1.902l-10.244,17.712l-0.461,0.798
	l-0.849,0.347c-11.135,4.521-29.58-6.171-52.509-28.646c-4.354-4.267-8.865-8.935-13.51-13.991
	C13.649,79.225,8.834,73.755,3.878,67.9h-0.01l-0.006-0.011L0,63.306l5.988,0.173l17.24,0.492l0.491-16.737l0.167-5.788
	L28.198,45.304L28.198,45.304z"/>
<polygon points="81.85,122.185 47.701,82.19 51.773,78.707 85.919,118.702 "/>
<path fill="#EF5A20" d="M322.346,70.165l26.179-23.423l0.571,19.423l19.917-0.573c-35.192,41.562-63.458,63.943-77.4,58.275
	l-10.245-17.713L322.346,70.165L322.346,70.165z"/>
<path d="M320.55,68.161l26.18-23.421l4.31-3.862l0.171,5.79l0.49,16.739l17.237-0.496l5.989-0.175l-3.86,4.591l-0.009,0.009h-0.008
	c-4.954,5.85-9.771,11.323-14.43,16.388c-4.646,5.054-9.155,9.73-13.51,13.997c-22.927,22.474-41.377,33.167-52.506,28.642
	l-0.85-0.346l-0.463-0.796l-10.242-17.712l-1.105-1.904l1.651-1.456l40.954-35.975V68.161L320.55,68.161z M346.008,52.6
	l-21.87,19.566l-0.035,0.015l-39.319,34.535l8.646,14.95c9.108,2.729,25.235-7.492,45.925-27.771
	c4.245-4.167,8.695-8.779,13.316-13.809c3.375-3.677,6.833-7.554,10.36-11.638l-13.873,0.4l-2.682,0.075l-0.077-2.69L346.008,52.6
	L346.008,52.6z"/>
<polygon points="289.009,118.132 323.154,78.135 327.225,81.617 293.077,121.61 "/>
<path fill="#EF5A20" d="M114.324-146.552l-30.147,28.627C114.047-53.818,100.39,4.461,49.956,80.021
	c89.571,64.918,183.078,67.201,275.394,0c-50.245-75.56-63.903-133.839-34.221-197.947l-30.147-28.627
	C212.097-118.197,163.209-118.197,114.324-146.552L114.324-146.552z"/>
<path d="M114.721-143.238l-27.306,25.931c14.52,31.946,18.382,62.535,12.398,94.554c-5.941,31.787-21.608,64.901-46.199,102.1
	c11.755,8.387,23.58,15.685,35.46,21.874c12.57,6.555,25.172,11.869,37.795,15.908c64.236,20.592,129.781,8.805,194.818-37.787
	c-24.491-37.195-40.112-70.303-46.054-102.095c-5.983-32.015-2.167-62.602,12.265-94.547l-27.314-25.938
	c-6.369,3.61-12.737,6.744-19.108,9.402c-6.979,2.915-13.941,5.259-20.9,7.034C185.259-117.788,149.974-123.267,114.721-143.238
	L114.721-143.238z M82.331-119.865l30.147-28.627l1.457-1.383l1.734,1.008c34.562,20.045,69.092,25.67,103.586,16.866
	c6.733-1.719,13.458-3.979,20.166-6.783c6.742-2.813,13.479-6.175,20.221-10.083l0,0l1.713-1.029l1.479,1.404l30.147,28.627
	l1.39,1.323l-0.805,1.742c-14.596,31.527-18.541,61.602-12.666,93.064c5.912,31.646,21.756,64.791,46.688,102.278l1.425,2.142
	l-2.077,1.509c-67.191,48.916-135.068,61.396-201.703,40.045c-12.962-4.151-25.846-9.576-38.635-16.243
	c-12.788-6.667-25.519-14.598-38.172-23.765l0.002-0.002c-0.016-0.013-0.032-0.027-0.058-0.044l-2.067-1.513l1.427-2.137
	C72.747,41.054,88.631,7.913,94.546-23.737c5.879-31.452,1.887-61.524-12.804-93.054l-0.813-1.744L82.331-119.865L82.331-119.865z
	 M48.375,82.181L48.375,82.181c0.012,0.009,0.037,0.029,0.057,0.046l0.002-0.004C48.401,82.196,48.384,82.185,48.375,82.181
	L48.375,82.181z M51.539,77.865C51.511,77.842,51.499,77.836,51.539,77.865L51.539,77.865L51.539,77.865z M48.375,82.181
	C48.362,82.173,48.364,82.173,48.375,82.181L48.375,82.181L48.375,82.181z"/>
<path d="M75.53,56.74c36.417,21.725,72.642,33.004,108.674,33.825c-18.554-12.95-37.56-21.636-56.917-26.957
	C110.299,58.942,93.021,56.857,75.53,56.74L75.53,56.74z M188.033,95.988c-40.935-0.097-82.014-13.284-123.238-39.554l1.364-4.95
	c21.143-0.667,42.021,1.306,62.534,6.948c19.997,5.498,39.63,14.479,58.8,27.9c17.412-11.721,35.988-20.631,55.845-26.45
	c20.454-5.996,42.229-8.704,65.443-7.825l1.354,4.94C269.658,83.084,228.959,96.086,188.033,95.988L188.033,95.988z M190.749,90.602
	c36.401-0.448,72.672-11.554,108.815-33.333c-19.298,0.056-37.51,2.708-54.718,7.754C225.638,70.65,207.641,79.267,190.749,90.602
	L190.749,90.602z"/>
<polygon points="111.492,-83.974 120.581,-68.53 111.492,-51.918 130.371,-51.918 139.229,-36.008 148.551,-51.918 167.896,-51.918 
	158.106,-68.53 167.896,-83.974 148.784,-83.974 139.694,-100.119 130.371,-83.974 "/>
<path d="M214.684-106.415c4.603,0.233,4.145-6.469,11.051-2.771c6.604,4.083,10.896,11.865,17.035,17.104
	c4.489,26.661,1.727,31.281-6.444,41.138c-5.608,34.71-5.454,54.51,14.275,46.223c0.996-19.798,3.833-33.821,4.371-55.931
	c-4.915-15.023-2.69-17.415,7.139-28.889c-2.072,12.173,8.288,21.802-0.691,30.277c-2.147,16.1-1.072,32.202-1.61,48.299
	c-0.846,18.413-8.596,13.25-12.894,19.879l7.829,36.746l-5.756,12.25h-31.542c1.327-4.191,3.921-7.537,7.09-10.491l10.408-3.375
	l-1.84-9.475c-7.061-1.004-13.504-3.544-19.335-7.625l-14.272,11.092l0.92,10.864l-7.596,9.017h-27.176l0.23-6.933L181.3,39.424
	l1.15-20.108c5.834-6.392,10.974-13.712,17.496-19.183l-1.842-6.702l-25.554,6.702l-5.524,5.55l0.922,4.158l-12.892,1.85
	c-0.922-2.929-2.453-6.165-4.606-9.708c-8.401-6.938-23.44-6.938-38.677-2.083l-8.288-12.481
	c16.326-9.121,33.094-11.377,50.647-1.385c3.837-3.006,8.674-2.387,14.965-0.464l18.187-12.248
	c-5.372-4.158-9.361-12.019-16.113-18.025c-5.448-0.154-8.287-1.621-9.439-6.704l-2.897-13.875l2.206-0.454
	c4.299-8.706,7.98-6.396,12.893,4.623c5.832,6.402,11.819,10.019,16.576,12.943c0.847-7.937,3.301-15.177,7.829-19.414
	c-5.833-2.39-6.754-5.242-2.765-9.475c-10.457-2.217-16.788-5.646-13.123-11.556c3.531-3.314,8.442,5.39,10.588,1.156
	c-7.672-6.319-6.75-10.481,2.765-12.483C203.479-101.176,201.253-113.503,214.684-106.415L214.684-106.415z"/>
<path d="M93.643,36.761l8.644-4.454c2.328,3.339,4.838,6.304,7.757,8.458l-7.092,7.563L93.643,36.761L93.643,36.761z"/>
<path d="M90.981,30.304l12.412-1.11c-0.701-4.668-0.852-9.341,0.222-14.017l-13.075-2.67C90.54,12.505,90.981,30.753,90.981,30.304
	L90.981,30.304z"/>
<path d="M104.059,12.059c1.033-3.854,2.66-7.121,4.877-9.792L98.741-5.964L92.313,9.834L104.059,12.059L104.059,12.059z"/>
<path d="M113.813,40.319c10.858,5.488,22.014,5.638,33.468,0.446l9.308,12.013c-15.147,9.792-32.436,10.165-52.308,1.558
	L113.813,40.319L113.813,40.319z"/>
<path d="M149.938,40.765l7.314,8.675c2.733-4.752,5.763-8.9,9.089-12.458l-9.311-4.452
	C154.963,35.869,152.596,38.615,149.938,40.765L149.938,40.765z"/>
<polygon points="155.702,14.284 168.778,13.174 168.559,31.419 157.031,30.082 "/>
<polygon points="119.574,6.496 118.687,3.161 111.596,3.828 109.377,9.836 107.826,14.284 107.161,19.626 107.604,22.965 
	111.818,37.202 120.903,39.427 119.131,18.957 "/>
<polygon points="120.018,5.161 122.454,1.159 128.663,2.049 132.431,5.161 138.414,28.08 136.641,38.761 131.321,40.319 
	124.671,35.648 122.232,19.626 "/>
<polygon points="140.187,2.936 140.408,21.186 137.748,36.536 140.853,39.873 148.388,37.426 151.934,21.405 148.166,4.272 "/>
<path d="M73.414,68.6l4.473-0.779l2.141,10.934c4.085,0.714,6.871-1.175,8.362-5.66l4.277,4.1
	c-3.049,3.059-3.955,6.116-10.891,6.833l1.946,9.563l-4.862,0.586l-2.333-11.52c-5.186-1.754-5.705,2.347-8.557,3.515l-3.306-3.708
	c4.346-3.45,4.346-5.991,10.308-4.883L73.414,68.6L73.414,68.6z"/>
<path d="M98.108,78.755c1.822,0,3.308,1.399,3.308,3.123c0,1.721-1.485,3.125-3.308,3.125c-1.821,0-3.304-1.404-3.304-3.125
	C94.805,80.154,96.29,78.755,98.108,78.755L98.108,78.755z"/>
<polygon points="95.777,96.323 101.222,97.692 107.445,84.608 125.143,92.223 118.336,110.768 113.668,109.014 119.114,95.152 
	109.778,91.052 103.556,104.132 94.61,100.619 "/>
<polygon points="148.479,97.494 147.895,101.985 161.897,103.742 160.341,119.75 165.786,120.533 167.924,99.644 "/>
<polygon points="147.7,105.498 151.98,105.889 151.008,118.189 146.533,117.604 "/>
<polygon points="208.284,99.148 208.56,103.665 222.638,102.746 224.134,118.76 229.634,118.5 227.784,97.579 "/>
<polygon points="209.03,107.152 213.305,106.729 214.676,118.99 210.172,119.259 "/>
<polygon points="171.231,99.644 170.648,104.717 183.873,105.5 182.897,121.51 188.149,122.094 189.317,101.01 "/>
<polygon points="196.514,100.619 201.376,100.227 201.959,121.898 197.097,122.094 "/>
<path d="M233.463,96.715l5.055-1.369l3.506,12.692l-4.669,1.366C237.351,109.404,233.463,96.516,233.463,96.715L233.463,96.715z"/>
<polygon points="244.546,97.298 245.909,101.595 257.575,97.692 256.021,92.615 "/>
<polygon points="259.911,87.927 264.384,86.173 269.051,99.056 264.575,100.812 "/>
<polygon points="267.613,84.927 268.976,88.832 272.283,87.856 276.171,96.052 271.313,98.592 273.061,102.689 284.729,97.031 
	282.783,93.125 281.228,93.711 275.2,81.802 "/>
<polygon points="281.069,78.288 283.209,82.192 291.959,77.509 296.627,85.317 285.737,91.957 287.875,95.663 306.351,84.927 
	304.019,81.023 301.296,82.777 294.101,70.674 "/>
</svg>
