<?xml version="1.0" encoding="UTF-8" standalone="no"?>
<!-- Created with Inkscape (http://www.inkscape.org/) -->

<svg
   xmlns:dc="http://purl.org/dc/elements/1.1/"
   xmlns:cc="http://creativecommons.org/ns#"
   xmlns:rdf="http://www.w3.org/1999/02/22-rdf-syntax-ns#"
   xmlns:svg="http://www.w3.org/2000/svg"
   xmlns="http://www.w3.org/2000/svg"
   xmlns:sodipodi="http://sodipodi.sourceforge.net/DTD/sodipodi-0.dtd"
   xmlns:inkscape="http://www.inkscape.org/namespaces/inkscape"
   version="1.1"
   id="svg2"
   xml:space="preserve"
   width="258.04193"
   height="252"
   viewBox="0 0 258.04192 252"
   sodipodi:docname="cracov.svg"
   inkscape:version="0.92.4 (5da689c313, 2019-01-14)"><metadata
     id="metadata8"><rdf:RDF><cc:Work
         rdf:about=""><dc:format>image/svg+xml</dc:format><dc:type
           rdf:resource="http://purl.org/dc/dcmitype/StillImage" /><dc:title></dc:title></cc:Work></rdf:RDF></metadata><defs
     id="defs6"><clipPath
       clipPathUnits="userSpaceOnUse"
       id="clipPath18"><path
         d="M 0,600 H 800 V 0 H 0 Z"
         id="path16"
         inkscape:connector-curvature="0" /></clipPath></defs><sodipodi:namedview
     pagecolor="#ffffff"
     bordercolor="#666666"
     borderopacity="1"
     objecttolerance="10"
     gridtolerance="10"
     guidetolerance="10"
     inkscape:pageopacity="0"
     inkscape:pageshadow="2"
     inkscape:window-width="1366"
     inkscape:window-height="705"
     id="namedview4"
     showgrid="false"
     fit-margin-top="1"
     fit-margin-bottom="1"
     fit-margin-right="1"
     fit-margin-left="1"
     inkscape:zoom="0.295"
     inkscape:cx="-79.077507"
     inkscape:cy="273.84024"
     inkscape:window-x="-8"
     inkscape:window-y="-8"
     inkscape:window-maximized="1"
     inkscape:current-layer="g12" /><g
     id="g10"
     inkscape:groupmode="layer"
     inkscape:label="mks-cracovia-ssa-2008-seeklogo.com"
     transform="matrix(1.3333333,0,0,-1.3333333,-441.22444,378.15976)"><g
       id="g12"><g
         id="g14"
         clip-path="url(#clipPath18)"
         transform="matrix(0.64144013,0,0,0.64144013,171.10792,-3.3121493)"><g
           id="g20"
           transform="translate(321.6699,290.1904)"><path
             d="m 0,0 -49.808,139.996 c 14.866,-9.543 26.919,-17.11 37.87,-32.547 C 1.559,89.047 9.011,65.854 9.087,43.041 9.125,28.288 4.753,13.84 0,0 M -65.131,144.368 36.083,-136.346 47.718,-134.103 0.57,-1.521 c 11.217,10.646 27.642,15.132 42.737,15.855 15.627,0.723 29.961,-3.878 44.904,-7.148 15.133,-3.346 30.988,-4.981 46.5,-4.144 8.518,0.456 17.072,1.748 25.59,1.141 11.862,-0.837 23.193,-4.221 33.801,-9.088 12.167,-5.551 23.307,-13.574 33.916,-21.596 -2.472,18.744 -7.681,36.539 -14.83,53.991 -4.79,11.596 -10.494,22.547 -16.577,33.535 -2.928,5.247 -4.22,10.608 -5.627,16.349 -3.346,13.536 -6.312,26.919 -8.289,40.721 -21.711,11.673 -43.801,14.22 -67.982,11.407 -13.042,-1.521 -26.084,0.951 -38.555,4.486 -12.243,3.423 -23.536,9.392 -35.779,12.776 -7.49,2.053 -15.246,3.27 -23.003,3.65 -11.787,0.57 -21.254,-3.004 -32.166,-6.122 -11.635,-2.889 -23.308,-3.688 -35.209,-3.764 l -2.09,5.818 c 1.14,0.912 1.901,1.711 2.09,2.509 0.457,1.939 -0.113,3.384 -1.216,4.448 -1.255,1.293 -3.878,2.662 -5.703,2.662 l -7.301,-0.038 c -1.673,-0.038 -3.65,-0.912 -4.981,-1.939 -2.813,-2.205 -2.927,-5.323 -0.037,-7.567 1.102,-0.836 2.547,-1.483 4.106,-2.053"
             style="fill:#ff0000;fill-opacity:1;fill-rule:nonzero;stroke:none"
             id="path22"
             inkscape:connector-curvature="0" /></g><g
           id="g24"
           transform="translate(284.1426,427.0688)"><path
             d="m 0,0 c 11.292,-7.262 20.988,-16.464 28.783,-27.11 6.159,-8.365 10.912,-17.49 14.448,-27.071 9.049,2.851 18.517,4.334 27.984,4.562 13.384,0.305 25.323,-3.194 37.413,-6.273 -4.296,11.71 -8.935,24.22 -13.307,35.17 C 91.632,-11.483 86.994,-3.574 82.622,4.296 80.72,4.942 78.781,5.551 76.842,6.083 69.618,8.06 62.204,9.201 54.713,9.543 43.421,10.114 34.258,6.578 23.802,3.612 16.045,1.445 8.061,0.152 0,0"
             style="fill:#ffffff;fill-opacity:1;fill-rule:nonzero;stroke:none"
             id="path26"
             inkscape:connector-curvature="0" /></g><g
           id="g28"
           transform="translate(502.8057,393.3813)"><path
             d="m 0,0 c -0.76,3.917 -1.444,8.022 -2.091,12.357 -20.38,10.722 -41.254,12.662 -63.877,10.038 -13.535,-1.597 -27.147,0.95 -40.074,4.563 -8.29,2.319 -16.122,5.817 -24.106,8.858 3.878,-6.995 7.832,-14.334 11.216,-21.938 0.038,-0.152 0.114,-0.304 0.19,-0.494 2.205,-0.532 4.373,-1.141 6.54,-1.711 C -94.978,7.148 -78.058,5.779 -59.998,7.186 -38.972,8.555 -19.429,5.589 0,0"
             style="fill:#ffffff;fill-opacity:1;fill-rule:nonzero;stroke:none"
             id="path30"
             inkscape:connector-curvature="0" /></g><g
           id="g32"
           transform="translate(511.5508,357.793)"><path
             d="m 0,0 c -1.063,2.813 -1.977,5.741 -2.737,8.859 -0.723,2.851 -1.407,5.742 -2.13,8.745 -20.417,6.578 -40.759,10.228 -62.85,8.821 -11.444,-0.722 -21.405,-0.646 -31.557,0.533 -6.844,0.798 -13.612,2.053 -20.913,3.878 2.357,-6.198 4.601,-12.472 6.844,-18.745 6.426,-1.445 13.042,-2.509 19.772,-3.27 C -78.818,7.11 -64.522,9.125 -49.847,8.707 -32.584,8.212 -16.158,4.943 0,0"
             style="fill:#ffffff;fill-opacity:1;fill-rule:nonzero;stroke:none"
             id="path34"
             inkscape:connector-curvature="0" /></g><g
           id="g36"
           transform="translate(334.7495,319.5811)"><path
             d="m 0,0 c -0.722,-7.452 -2.433,-14.486 -5.437,-20.874 3.802,1.787 7.415,3.612 11.254,5.019 7.909,2.813 15.894,4.373 24.22,4.752 16.007,0.761 30.646,-3.877 45.931,-7.262 14.79,-3.232 30.341,-4.827 45.436,-4.031 8.707,0.458 17.376,1.788 26.121,1.18 12.281,-0.875 24.105,-4.449 35.17,-9.506 9.468,-4.334 18.403,-9.619 26.578,-15.513 -1.256,7.416 -3.08,14.829 -5.323,22.091 -12.434,6.312 -25.552,11.141 -39.049,14.258 -14.639,3.422 -29.81,4.791 -45.246,3.992 C 109.123,-6.425 99.542,-6.425 89.731,-5.437 70.569,-2.966 54.257,4.183 36.197,5.209 23.992,5.894 11.597,3.612 0,0"
             style="fill:#ffffff;fill-opacity:1;fill-rule:nonzero;stroke:none"
             id="path38"
             inkscape:connector-curvature="0" /></g><g
           id="g40"
           transform="translate(331.9741,357.2227)"><path
             d="m 0,0 c 1.521,-6.73 2.472,-13.65 2.928,-20.57 8.288,2.32 16.045,4.069 23.991,4.563 12.586,0.799 25.475,-1.065 40.227,-5.437 9.62,-2.852 18.289,-4.563 26.958,-5.399 8.555,-0.875 17.414,-0.837 27.489,-0.343 16.844,0.913 33.535,-0.646 49.734,-4.41 9.391,-2.167 18.631,-5.095 27.603,-8.745 -2.851,6.844 -6.008,13.726 -9.353,20.38 -19.733,7.87 -38.935,12.623 -60.151,12.699 C 114.218,-7.186 99.427,-8.593 84.142,-6.844 70.264,-5.019 57.146,-0.228 43.497,2.509 29.429,5.323 13.726,4.373 0,0"
             style="fill:#ffffff;fill-opacity:1;fill-rule:nonzero;stroke:none"
             id="path42"
             inkscape:connector-curvature="0" /></g><g
           id="g44"
           transform="translate(326.917,395.5488)"><path
             d="M 0,0 -13.155,23.231 -9.429,23.459 -3.156,12.015 3.46,24.6 8.517,24.676 2.776,14.372 21.977,1.635 17.186,1.292 1.521,12.091 -0.76,8.06 3.84,-0.076 Z"
             style="fill:#ff0000;fill-opacity:1;fill-rule:nonzero;stroke:none"
             id="path46"
             inkscape:connector-curvature="0" /></g><g
           id="g48"
           transform="translate(345.6997,405.624)"><path
             d="m 0,0 3.194,-0.19 c 2.129,-4.334 7.757,-8.402 12.775,-6.882 2.89,0.685 2.358,3.764 0.532,5.475 -1.825,1.94 -5.398,2.928 -7.794,3.764 -2.624,0.913 -4.41,1.674 -5.551,2.32 -1.445,0.798 -2.623,1.749 -3.498,2.776 -1.521,1.786 -2.813,4.448 -1.863,6.767 0.418,1.027 1.255,1.749 2.509,2.092 1.255,0.379 2.776,0.456 4.563,0.152 5.475,-0.723 10.684,-3.65 12.129,-9.011 L 13.764,7.491 C 12.281,11.027 9.62,12.7 5.894,13.27 4.639,13.422 2.472,13.498 1.483,12.434 0.152,10.951 1.483,8.897 2.738,7.909 3.612,7.187 5.514,6.35 8.517,5.361 c 3.65,-1.254 7.871,-2.357 10.57,-5.322 2.662,-2.891 3.878,-8.328 -0.608,-10 -3.27,-1.103 -7.985,0.113 -10.989,1.596 C 4.145,-6.691 1.179,-3.612 0,0"
             style="fill:#ff0000;fill-opacity:1;fill-rule:nonzero;stroke:none"
             id="path50"
             inkscape:connector-curvature="0" /></g><g
           id="g52"
           transform="translate(467.8262,332.0142)"><path
             d="M 0,0 -7.795,14.904 -2.548,14.867 2.775,3.764 8.555,14.524 13.498,14.372 5.057,-0.114 Z"
             style="fill:#ff0000;fill-opacity:1;fill-rule:nonzero;stroke:none"
             id="path54"
             inkscape:connector-curvature="0" /></g><g
           id="g56"
           transform="translate(481.1719,331.7861)"><path
             d="M 0,0 2.699,14.448 7.262,13.574 4.524,-0.875 Z"
             style="fill:#ff0000;fill-opacity:1;fill-rule:nonzero;stroke:none"
             id="path58"
             inkscape:connector-curvature="0" /></g><g
           id="g60"
           transform="translate(365.0532,349.5801)"><path
             d="m 0,0 c -0.685,-2.624 -3.384,-3.612 -5.817,-3.764 -3.08,-0.076 -6.046,1.293 -6.426,4.677 -0.153,3.498 2.585,5.323 5.817,5.513 2.434,0.152 5.171,-0.456 6.197,-2.928 L 4.98,3.08 c -1.406,6.768 -11.444,6.73 -16.539,5.019 -3.422,-1.217 -5.855,-3.612 -5.665,-7.491 0.38,-5.893 6.768,-7.148 11.558,-6.881 3.955,0.19 9.278,1.293 10.495,5.741 z"
             style="fill:#ff0000;fill-opacity:1;fill-rule:nonzero;stroke:none"
             id="path62"
             inkscape:connector-curvature="0" /></g><g
           id="g64"
           transform="translate(431.0596,337.9834)"><path
             d="m 0,0 c -1.027,-2.585 -3.993,-3.193 -6.502,-2.889 -3.194,0.418 -6.16,2.243 -5.666,5.855 0.381,3.688 3.612,4.677 6.883,4.259 2.243,-0.267 4.98,-1.293 5.551,-3.765 L 4.98,3.118 c -0.836,4.411 -6.198,6.16 -10,6.616 -5.056,0.646 -11.177,-0.456 -11.901,-6.312 -0.683,-5.855 5.361,-8.251 10.114,-8.821 4.259,-0.494 10.267,0.114 11.635,5.057 z"
             style="fill:#ff0000;fill-opacity:1;fill-rule:nonzero;stroke:none"
             id="path66"
             inkscape:connector-curvature="0" /></g><g
           id="g68"
           transform="translate(385.4326,351.4053)"><path
             d="M 0,0 C 0.608,2.167 -4.182,2.509 -5.551,2.813 L -8.517,3.27 -9.125,-0.38 -6.616,-0.76 C -5.095,-0.989 -0.38,-2.167 0,0 M -3.384,4.943 C -1.217,4.601 2.091,4.03 3.84,2.472 4.753,1.635 5.285,0.494 4.905,-0.798 4.411,-3.764 1.179,-4.03 -1.141,-3.84 c 2.32,-1.179 4.867,-5.551 6.312,-7.795 l -5.817,1.179 -2.7,3.764 c -1.901,2.434 -2.281,3.308 -5.551,3.917 l -0.646,0.075 -1.027,-6.045 -4.829,0.836 2.509,14.487 z"
             style="fill:#ff0000;fill-opacity:1;fill-rule:nonzero;stroke:none"
             id="path70"
             inkscape:connector-curvature="0" /></g><g
           id="g72"
           transform="translate(405.8887,341.7856)"><path
             d="M 0,0 -1.673,5.742 -5.475,1.369 Z M -7.643,-1.026 -10.304,-3.84 -15.209,-2.547 -3.194,9.62 1.559,8.479 6.958,-7.984 2.091,-6.844 0.988,-3.118 Z"
             style="fill:#ff0000;fill-opacity:1;fill-rule:nonzero;stroke:none"
             id="path74"
             inkscape:connector-curvature="0" /></g><g
           id="g76"
           transform="translate(453.3398,335.9683)"><path
             d="M 0,0 C 2.319,1.711 2.243,5.932 -0.189,7.491 -2.548,9.125 -7.072,8.935 -9.315,7.225 -11.673,5.476 -11.521,1.369 -9.049,-0.228 -6.615,-1.863 -2.357,-1.787 0,0 M 3.231,9.315 C 5.285,8.023 6.35,6.198 6.388,3.764 6.464,1.407 5.551,-0.456 3.573,-1.863 c -3.916,-2.851 -12.014,-3.042 -16.12,-0.494 -3.08,1.939 -4.221,6.197 -2.243,9.277 1.141,1.711 3.041,2.89 4.98,3.498 3.955,1.141 9.581,1.065 13.041,-1.103"
             style="fill:#ff0000;fill-opacity:1;fill-rule:nonzero;stroke:none"
             id="path78"
             inkscape:connector-curvature="0" /></g><g
           id="g80"
           transform="translate(502.9209,333.5352)"><path
             d="M 0,0 -2.054,5.969 -6.16,1.217 Z m 7.147,-7.376 -4.904,0.988 -1.256,3.65 -9.01,1.787 -2.472,-2.889 -4.79,0.988 11.558,12.662 4.79,-0.951 z"
             style="fill:#ff0000;fill-opacity:1;fill-rule:nonzero;stroke:none"
             id="path82"
             inkscape:connector-curvature="0" /></g></g></g></g></svg>