<?xml version="1.0" encoding="UTF-8" standalone="no"?>
<svg
   xmlns:dc="http://purl.org/dc/elements/1.1/"
   xmlns:cc="http://creativecommons.org/ns#"
   xmlns:rdf="http://www.w3.org/1999/02/22-rdf-syntax-ns#"
   xmlns:svg="http://www.w3.org/2000/svg"
   xmlns="http://www.w3.org/2000/svg"
   xmlns:sodipodi="http://sodipodi.sourceforge.net/DTD/sodipodi-0.dtd"
   xmlns:inkscape="http://www.inkscape.org/namespaces/inkscape"
   width="160.30289pt"
   height="189.5pt"
   viewBox="0 0 160.30289 189.5"
   version="1.1"
   id="svg84"
   sodipodi:docname="Debrecen-VSC-Logo.svg"
   inkscape:version="0.92.4 (5da689c313, 2019-01-14)">
  <metadata
     id="metadata90">
    <rdf:RDF>
      <cc:Work
         rdf:about="">
        <dc:format>image/svg+xml</dc:format>
        <dc:type
           rdf:resource="http://purl.org/dc/dcmitype/StillImage" />
        <dc:title></dc:title>
      </cc:Work>
    </rdf:RDF>
  </metadata>
  <defs
     id="defs88" />
  <sodipodi:namedview
     pagecolor="#ffffff"
     bordercolor="#666666"
     borderopacity="1"
     objecttolerance="10"
     gridtolerance="10"
     guidetolerance="10"
     inkscape:pageopacity="0"
     inkscape:pageshadow="2"
     inkscape:window-width="1366"
     inkscape:window-height="705"
     id="namedview86"
     showgrid="false"
     fit-margin-top="1"
     fit-margin-right="1"
     fit-margin-bottom="1"
     fit-margin-left="1"
     inkscape:zoom="1.1328"
     inkscape:cx="110.34559"
     inkscape:cy="157.42517"
     inkscape:window-x="-8"
     inkscape:window-y="-8"
     inkscape:window-maximized="1"
     inkscape:current-layer="svg84" />
  <g
     id="g135"
     transform="matrix(0.15752629,0,0,0.15752629,-18.26389,-1.6342334)">
    <g
       id="#ffffffff">
      <path
         id="path2"
         d="m 146.08,32.49 c 319.07,0.02 638.13,0 957.2,0.01 -38.4,91.72 -77.32,183.24 -115.9,274.89 C 866.48,593.7 745.7,880.06 624.75,1166.34 465.12,788.43 305.66,410.43 146.08,32.49 m 16.41,10.93 C 316.62,408.41 470.64,773.45 624.75,1138.45 778.85,773.44 932.89,408.42 1087,43.42 778.83,43.4 470.66,43.41 162.49,43.42 Z"
         inkscape:connector-curvature="0"
         style="opacity:1;fill:#ffffff" />
      <path
         id="path4"
         d="M 693.08,433.87 C 802.18,325.32 911.1,216.61 1020.21,108.08 888.4,420.37 756.52,732.64 624.77,1044.95 570.96,917.52 517.2,790.06 463.37,662.64 c 44.2,-43.75 88.1,-87.8 132.26,-131.6 2.96,9.49 7.14,19.01 14.42,26 4.21,4.01 10.08,6.83 16.01,5.88 6.18,-0.88 11.25,-5.15 15.01,-9.91 3.99,-4.82 6.03,-10.96 10.44,-15.48 6.6,-7.06 10.73,-16.17 12.23,-25.68 9.75,0.02 19.5,-0.01 29.25,0.03 4.09,0.15 8.14,-1.13 11.56,-3.35 4.65,-3.21 7.92,-8.04 12.49,-11.33 5.05,-0.35 10.4,0.48 15.14,-1.79 6.32,-2.77 10.4,-8.65 15.43,-13.13 4.82,-0.1 9.84,0.46 14.44,-1.33 6.93,-2.49 11.22,-8.87 16.52,-13.61 4.77,-0.12 9.76,0.55 14.32,-1.23 6.94,-2.48 11.26,-8.84 16.53,-13.62 7.1,-0.25 14.46,0.7 21.33,-1.53 5.16,-1.48 7.94,-8.22 5.12,-12.81 -2.95,-3.93 -8.41,-4.13 -12.89,-4.31 -43.3,0.02 -86.6,-0.03 -129.9,0.03 M 587.66,711.63 c -5.03,5.82 -6.08,13.92 -5.86,21.34 0.29,6.79 1.86,14.27 7.24,18.92 4.07,3.58 10.18,3.49 14.89,1.27 -0.96,3.93 -1.4,8.95 -5.4,11.12 -4.73,1.99 -9.56,-0.71 -13.23,-3.57 -0.19,5.51 -0.59,11.01 -0.83,16.53 6.71,3.07 14.96,4.65 21.77,0.98 6.62,-3.62 9.77,-11.13 11.32,-18.16 2.04,-9.87 2.19,-20.09 1.03,-30.08 -0.89,-6.57 -2.48,-13.53 -7.11,-18.54 -6.06,-6.61 -17.98,-6.78 -23.82,0.19 m 50.54,-4.49 c -3.56,1.05 -6.48,3.64 -8.43,6.73 -4.3,6.89 -5.39,15.19 -5.91,23.14 -0.32,11.06 -0.32,22.64 4.29,32.94 2.42,5.53 7.56,10.34 13.89,10.38 6.39,0.55 12.16,-3.79 14.84,-9.35 5.26,-10.48 5.17,-22.58 4.87,-34.01 -0.55,-8.53 -1.8,-17.62 -7.07,-24.64 -3.7,-5.01 -10.59,-7.11 -16.48,-5.19 m 28.81,3.73 c 0.22,5.97 0.71,11.93 0.97,17.9 3.34,-2.45 6.75,-5.27 11.01,-5.84 2.63,-0.56 5.2,1.56 5.65,4.13 1.19,6.09 -1.32,12.1 -4.28,17.3 -3.99,6.8 -8.97,12.97 -13.98,19.04 -0.02,5.23 0.01,10.46 -0.02,15.69 11.8,0 23.6,0 35.41,0 -0.03,-5.18 -0.03,-10.35 0,-15.52 -5.72,0.02 -11.45,-0.03 -17.17,0.04 5.56,-7.3 10.94,-14.96 14,-23.7 2.28,-6.33 3.07,-13.33 1.6,-19.94 -1.3,-5.81 -5.56,-11.1 -11.41,-12.73 -7.38,-1.99 -15.22,0.07 -21.78,3.63 m -119.26,14.18 c 2.48,4.94 4.91,9.91 7.28,14.91 1.91,-2.4 3.86,-4.77 5.75,-7.18 -0.03,15.44 0,30.87 -0.02,46.31 4.96,0 9.93,0 14.89,0 -0.01,-23.79 0,-47.57 0,-71.36 -3.83,0.01 -7.66,0 -11.48,0.03 -5.42,5.81 -10.97,11.5 -16.42,17.29 z"
         inkscape:connector-curvature="0"
         style="opacity:1;fill:#ffffff" />
      <path
         id="path6"
         d="m 599.51,721.51 c 2.39,-1.24 3.62,1.7 3.86,3.6 0.5,4.36 0.96,9.2 -1.08,13.25 -2.33,2.69 -4.82,-1.15 -4.72,-3.5 -0.17,-4.34 -1.19,-9.94 1.94,-13.35 z"
         inkscape:connector-curvature="0"
         style="opacity:1;fill:#ffffff" />
      <path
         id="path8"
         d="m 642.13,721.71 c 2.76,0.71 3.02,3.84 3.42,6.19 0.96,8.36 0.8,16.81 0.51,25.21 -0.39,4.14 -0.19,8.76 -3.09,12.12 -2.67,-2.31 -2.84,-6 -3.19,-9.24 -0.63,-8.98 -0.67,-18.02 0.18,-26.99 0.18,-2.57 1.02,-5.01 2.17,-7.29 z"
         inkscape:connector-curvature="0"
         style="opacity:1;fill:#ffffff" />
    </g>
    <g
       id="#e0b060ff">
      <path
         id="path11"
         d="m 122.29,16.73 c 334.98,-0.01 669.96,-0.01 1004.93,0 C 959.67,413.46 792.29,810.27 624.74,1207 457.23,810.26 289.81,413.48 122.29,16.73 m 23.79,15.76 C 305.66,410.43 465.12,788.43 624.75,1166.34 745.7,880.06 866.48,593.7 987.38,307.39 c 38.58,-91.65 77.5,-183.17 115.9,-274.89 -319.07,-0.01 -638.13,0.01 -957.2,-0.01 z"
         inkscape:connector-curvature="0"
         style="opacity:1;fill:#e0b060" />
      <path
         id="path13"
         d="m 574.39,165.43 c 6.44,-4.9 14.6,-6.94 22.59,-7.17 12.44,-0.32 24.87,2.89 35.87,8.66 -3.56,6.91 -7.09,13.85 -10.61,20.78 -7.39,-3.78 -15.77,-6.55 -24.16,-5.34 -4.68,1.06 -9.6,3.62 -11.48,8.3 -2.15,5.54 -1.34,12.47 2.97,16.78 4.55,4.47 10.49,7.06 16.11,9.88 8.22,4.26 16.58,9.85 20.48,18.6 4.23,9.76 4.04,20.78 2.74,31.14 -1.45,10.86 -6.08,22.01 -15.29,28.51 -8.52,6.14 -19.53,7.08 -29.7,6.32 -8.84,-0.44 -17.04,-4.4 -24.28,-9.24 0.53,-9.22 1.89,-18.37 2.38,-27.59 6.53,5.27 13.77,10.23 22.22,11.6 4.96,0.61 10.54,0.42 14.6,-2.87 4.96,-3.92 5.95,-11.05 4.59,-16.89 -2.7,-7.87 -10.5,-12.2 -17.53,-15.66 -9.38,-4.67 -19.21,-10.92 -23,-21.22 -3.4,-9.52 -3.82,-19.97 -2.3,-29.9 1.43,-9.5 5.95,-18.88 13.8,-24.69 z"
         inkscape:connector-curvature="0"
         style="opacity:1;fill:#e0b060" />
      <path
         id="path15"
         d="m 681.99,159.72 c 14.45,-3.74 30.98,-0.56 42.11,9.71 -4.08,6.51 -8.51,12.78 -12.67,19.22 -5.51,-4.45 -13.38,-5.31 -19.94,-2.97 -6.34,2.54 -10.5,8.44 -13.51,14.31 -4.79,10.27 -5.62,21.86 -5.47,33.03 0.27,10.89 1.77,22.33 7.77,31.68 3.8,6.09 10.35,10.82 17.74,10.83 7.02,0.24 13.07,-4.04 17.94,-8.66 2.21,8.65 4.81,17.19 7.11,25.81 -8.67,8.42 -21.68,10.28 -33.25,9.03 -11.72,-1.15 -22.7,-7.35 -29.94,-16.61 -10.54,-13.11 -14.59,-30.15 -15.57,-46.64 -0.87,-18.25 0.8,-37.3 9.34,-53.76 5.9,-11.4 15.63,-21.57 28.34,-24.98 z"
         inkscape:connector-curvature="0"
         style="opacity:1;fill:#e0b060" />
      <path
         id="path17"
         d="m 363.85,160.88 c 10.38,0.02 20.76,-0.02 31.15,0.01 12.68,0.28 25.94,2.91 36.12,10.93 8.3,6.44 13.44,16.11 16.28,26.06 3.86,13.68 4.46,28.06 3.64,42.18 -1.13,15.65 -5.17,32.04 -16.11,43.84 -9.55,10.5 -23.95,15.26 -37.85,15.65 -11.09,0.11 -22.17,0.04 -33.25,0.03 0.05,-46.24 0.01,-92.47 0.02,-138.7 m 26.96,25.14 c 0.01,29.55 -0.01,59.11 0.01,88.67 7.15,-0.03 14.72,-1.71 19.91,-6.97 9.4,-9.21 12.04,-23.07 12.17,-35.73 0.12,-12.68 -0.98,-26.52 -8.99,-36.93 -5.36,-7.05 -14.61,-9.47 -23.1,-9.04 z"
         inkscape:connector-curvature="0"
         style="opacity:1;fill:#e0b060" />
      <path
         id="path19"
         d="m 458.95,160.89 c 9.38,-0.02 18.77,0 28.15,-0.01 6,32.65 12.11,65.27 18.11,97.92 6.52,-32.64 13.01,-65.29 19.58,-97.93 8.68,0.02 17.36,0.01 26.05,0.01 -10.38,46.25 -20.85,92.48 -31.2,138.73 -9.9,-0.03 -19.79,0.01 -29.69,-0.02 -10.28,-46.24 -20.79,-92.44 -31,-138.7 z"
         inkscape:connector-curvature="0"
         style="opacity:1;fill:#e0b060" />
      <path
         id="path21"
         d="m 606.6,446.63 c 3.25,-6.01 7.6,-12.29 14.41,-14.47 5.65,-1.6 10.94,2.27 14.41,6.35 4.65,4.98 6.4,11.95 11.38,16.66 3.72,3.81 6.34,8.48 8.63,13.24 -3.35,5.25 -8.96,8.31 -13.12,12.81 -4.66,4.6 -8.21,10.95 -7.54,17.69 0.35,5.76 4.37,11.5 10.23,12.64 4.22,0.52 8.49,0.13 12.73,0.23 -1.47,7.93 -4.95,15.53 -10.47,21.46 -5.82,5.53 -7.79,13.86 -13.82,19.22 -3.36,3.27 -8.39,5.93 -13.1,4.06 -7.12,-2.7 -11.42,-9.63 -14.7,-16.11 -7.97,-16.87 -9.82,-35.97 -8.91,-54.4 0.92,-13.55 3.55,-27.25 9.87,-39.38 m 9.52,9.47 c -5.41,8.19 -6.34,18.35 -6.89,27.91 -0.15,12.64 -0.8,25.51 2.24,37.9 1.34,4.9 3.14,10.04 7.03,13.53 2.72,2.49 6.44,3.26 10.02,3.43 -3.04,-4.56 -5.34,-9.58 -6.75,-14.87 -4.18,-15.21 -4.71,-31.29 -2.58,-46.88 1.42,-9.45 3.82,-19.03 9.28,-27.03 -4.77,-0.02 -9.67,1.9 -12.35,6.01 z"
         inkscape:connector-curvature="0"
         style="opacity:1;fill:#e0b060" />
      <path
         id="path23"
         d="m 560.96,437.45 c 6.75,-0.02 13.7,-0.71 20.25,1.27 3.62,0.97 5.97,4.5 5.89,8.18 -0.19,6.07 -1.36,12.24 0.2,18.24 0.68,3.42 2.71,6.35 4.8,9.07 -1.03,7.28 -1.53,14.64 -1.35,22.01 -1.13,-0.64 -2.26,-1.27 -3.38,-1.89 2.36,-6.98 -4.26,-12.59 -10.14,-14.71 1.06,-1.36 2.68,-2.67 2.28,-4.61 -0.78,-5.51 -5.9,-9.03 -10.81,-10.69 1.87,-1.75 3.71,-4.14 2.77,-6.86 -1.72,-6.59 -9.5,-8.57 -15.47,-8.58 -42,0.01 -84,-0.02 -126,0.01 -3.9,-0.11 -8.31,0.25 -11.6,-2.26 -2.22,-1.9 -2.82,-6.49 0.13,-7.99 1.9,-1.2 4.25,-1.11 6.42,-1.2 45.34,0.03 90.67,0.01 136.01,0.01 z"
         inkscape:connector-curvature="0"
         style="opacity:1;fill:#e0b060" />
      <path
         id="path25"
         d="m 665.23,439.14 c 6.59,-2.53 13.84,-1.68 20.76,-1.69 45.65,0.01 91.31,0.01 136.97,0 2.53,0.1 5.6,0.14 7.34,2.31 1.07,2.03 0.67,4.91 -0.9,6.6 -2.52,2.34 -6.24,2.36 -9.47,2.51 -42.97,0.04 -85.93,-0.02 -128.9,0.02 -5.72,0.09 -12.99,2.03 -14.88,8.16 -1.2,2.82 0.66,5.52 2.73,7.31 -4.94,1.51 -10.24,5.11 -10.83,10.64 -0.49,2.02 1.1,3.41 2.27,4.78 -5.96,1.72 -12.55,7.65 -10.14,14.43 -5.59,2.35 -9.19,8.06 -8.46,14.15 -3.37,-0.09 -7.3,0.51 -9.94,-2.1 -4.95,-4.44 -4.5,-12.44 -1.06,-17.66 4.1,-7.08 11.98,-10.65 16.71,-17.16 4.74,-6.9 3.43,-15.64 2.99,-23.48 -0.31,-3.56 1.27,-7.51 4.81,-8.82 z"
         inkscape:connector-curvature="0"
         style="opacity:1;fill:#e0b060" />
      <path
         id="path27"
         d="m 452.34,452.44 c 34.56,-0.28 69.14,-0.05 103.71,-0.11 4.48,-0.22 9.63,3.66 8.72,8.48 -1.35,2.89 -5.01,2.95 -7.75,3 -31.67,-0.02 -63.33,-0.02 -94.99,0 -4.44,0.08 -8.92,-1.59 -12.14,-4.64 -1.09,-1.16 -2.41,-2.58 -2.06,-4.31 0.84,-1.67 2.78,-2.23 4.51,-2.42 z"
         inkscape:connector-curvature="0"
         style="opacity:1;fill:#e0b060" />
      <path
         id="path29"
         d="m 689.42,452.51 c 34.19,-0.47 68.41,-0.03 102.61,-0.21 2.65,0.08 6.2,-0.1 7.63,2.67 0.13,2.08 -1.4,3.66 -2.85,4.92 -3.28,2.66 -7.54,4.06 -11.76,3.92 -29.7,-0.03 -59.41,-0.01 -89.12,-0.01 -3.1,-0.05 -6.23,0.21 -9.3,-0.29 -2.13,-0.32 -4.55,-1.95 -4.08,-4.4 0.52,-3.38 3.62,-5.96 6.87,-6.6 z"
         inkscape:connector-curvature="0"
         style="opacity:1;fill:#e0b060" />
      <path
         id="path31"
         d="m 482.33,467.4 c 27.2,-0.52 54.45,-0.07 81.67,-0.23 5,-0.34 9.54,5 8.46,9.87 -1.58,1.93 -4.3,1.57 -6.51,1.7 -24.33,-0.04 -48.65,0 -72.98,-0.02 -5.04,-0.06 -10.45,-2.03 -13.44,-6.25 -1.85,-2.08 0.47,-4.9 2.8,-5.07 z"
         inkscape:connector-curvature="0"
         style="opacity:1;fill:#e0b060" />
      <path
         id="path33"
         d="m 681.28,467.35 c 26.9,-0.41 53.83,-0.03 80.75,-0.19 2.89,-0.29 7.61,0.94 6.26,4.83 -3,4.67 -8.88,6.79 -14.24,6.74 -24.36,-0.01 -48.71,-0.02 -73.06,0 -2.1,-0.12 -4.78,0.15 -6.07,-1.92 -0.76,-4.12 2.46,-8.35 6.36,-9.46 z"
         inkscape:connector-curvature="0"
         style="opacity:1;fill:#e0b060" />
      <path
         id="path35"
         d="m 508.93,482.92 c 1.64,-0.49 3.32,-0.9 5.05,-0.83 19.71,0.09 39.43,-0.06 59.14,0.07 4.74,0.25 7.48,4.91 8.39,9.1 -1.17,1.31 -2.65,2.42 -4.52,2.18 -18.34,0.02 -36.68,0.06 -55.01,-0.02 -5.75,-0.43 -12.58,-4.14 -13.05,-10.5 z"
         inkscape:connector-curvature="0"
         style="opacity:1;fill:#e0b060" />
      <path
         id="path37"
         d="m 666.32,492.32 c -0.26,-4.9 3.44,-10.23 8.65,-10.19 19.36,-0.06 38.72,0.03 58.08,-0.04 1.84,-0.05 3.67,0.29 5.46,0.73 -0.34,6.63 -7.57,10.32 -13.48,10.62 -17.66,0.06 -35.32,-0.03 -52.98,0.04 -2,0.12 -3.92,-0.41 -5.73,-1.16 z"
         inkscape:connector-curvature="0"
         style="opacity:1;fill:#e0b060" />
      <path
         id="path39"
         d="m 540.18,499.85 c -0.73,-2.18 2.09,-3 3.74,-2.95 12.71,-0.15 25.44,0 38.15,-0.07 2.99,-0.25 5.89,1.21 7.67,3.58 1.77,1.98 1.27,4.81 1.59,7.24 -2.12,0.45 -4.26,0.75 -6.42,0.7 -10.63,-0.09 -21.26,0.04 -31.89,-0.06 -5.21,-0.39 -11.05,-3.22 -12.84,-8.44 z"
         inkscape:connector-curvature="0"
         style="opacity:1;fill:#e0b060" />
      <path
         id="path41"
         d="m 655.51,507.27 c -0.27,-5.19 3.92,-10.69 9.41,-10.42 12.36,-0.02 24.73,0.01 37.1,-0.02 1.86,-0.06 3.66,0.49 5.44,1.03 -0.12,6.28 -6.93,9.77 -12.43,10.4 -11.03,0.18 -22.08,-0.02 -33.11,0.09 -2.21,0.1 -4.34,-0.41 -6.41,-1.08 z"
         inkscape:connector-curvature="0"
         style="opacity:1;fill:#e0b060" />
      <path
         id="path43"
         d="m 589.79,712.77 c 5.49,-5.97 16.26,-5.05 20.98,1.44 3.98,5.37 5.14,12.21 5.78,18.71 0.64,9.09 0.58,18.35 -1.42,27.29 -1.45,5.92 -3.99,12.2 -9.37,15.59 -5.79,3.52 -13.13,2.51 -18.98,-0.31 0.36,-3.45 0.56,-6.91 0.65,-10.37 4.35,2.35 10.44,3.51 14.32,-0.31 4.65,-4.97 4.31,-12.32 5.02,-18.64 -1.56,1.95 -2.91,4.3 -5.27,5.37 -4.14,1.72 -9.43,0.82 -12.32,-2.77 -4.53,-5.46 -5.24,-12.98 -5.03,-19.8 0.27,-5.76 1.62,-11.85 5.64,-16.2 m 8.59,6.65 c -2.25,1.36 -2.88,4.16 -3.19,6.6 -0.36,3.95 -0.47,8.08 0.75,11.92 0.67,2.62 3.72,4.41 6.29,3.31 3.1,-1.34 3.53,-5.22 3.76,-8.16 0.1,-3.9 0.37,-8.1 -1.4,-11.69 -1.05,-2.35 -4.01,-2.9 -6.21,-1.98 z"
         inkscape:connector-curvature="0"
         style="opacity:1;fill:#e0b060" />
      <path
         id="path45"
         d="m 638.34,709.56 c 4.93,-1.87 10.95,-0.32 14.2,3.88 4.43,5.49 5.74,12.72 6.56,19.54 0.79,10.1 0.85,20.45 -1.75,30.32 -1.19,4.28 -3.05,8.59 -6.38,11.65 -4.7,4.35 -12.85,4 -17.16,-0.73 -4.47,-4.88 -6.07,-11.62 -6.99,-17.99 -1.1,-9.41 -1.11,-18.99 0.41,-28.34 1.33,-7.02 3.83,-15.44 11.11,-18.33 m 2.86,10.54 c -3.59,2.68 -3.39,7.82 -3.86,11.85 -0.27,9.32 -0.67,18.74 0.57,28.01 0.49,2.78 1.53,7.1 5.1,6.97 2.76,0.01 3.84,-3.11 4.4,-5.31 1.55,-8.12 1.11,-16.44 1.12,-24.65 -0.28,-4.87 -0.1,-9.98 -2.03,-14.55 -0.79,-2.02 -3.27,-3.68 -5.3,-2.32 z"
         inkscape:connector-curvature="0"
         style="opacity:1;fill:#e0b060" />
      <path
         id="path47"
         d="m 669.37,712.26 c 5.78,-2.69 12.45,-4.57 18.78,-2.77 4.92,1.33 8.45,5.8 9.66,10.62 1.74,7.1 0.46,14.63 -2.3,21.31 -3.74,9.04 -9.64,16.96 -15.76,24.5 6.52,-0.08 13.04,-0.01 19.56,-0.05 0.01,3.64 0.01,7.28 0,10.93 -10.2,-0.07 -20.41,-0.06 -30.61,-0.01 0.12,-4.18 -0.33,-8.4 0.22,-12.55 6.62,-8.86 14.47,-17.38 17.61,-28.25 1.28,-4.77 1.65,-11.34 -2.99,-14.44 -4.59,-2.55 -9.69,0.3 -13.6,2.8 -0.07,-4.04 -0.29,-8.07 -0.57,-12.09 z"
         inkscape:connector-curvature="0"
         style="opacity:1;fill:#e0b060" />
      <path
         id="path49"
         d="m 550.63,725.37 c 5.11,-5.08 9.8,-10.56 15.04,-15.5 2.54,0.19 5.08,0.26 7.64,0.28 -0.04,22.22 0.07,44.44 -0.06,66.66 -3.37,-0.06 -6.74,-0.06 -10.11,-0.05 0.01,-16.85 -0.01,-33.7 0.01,-50.55 -2.55,3.11 -5.06,6.25 -7.62,9.36 -1.64,-3.4 -3.32,-6.78 -4.9,-10.2 z"
         inkscape:connector-curvature="0"
         style="opacity:1;fill:#e0b060" />
    </g>
    <g
       id="#d40e1fff">
      <path
         id="path52"
         d="M 162.49,43.42 C 470.66,43.41 778.83,43.4 1087,43.42 932.89,408.42 778.85,773.44 624.75,1138.45 470.64,773.45 316.62,408.41 162.49,43.42 m 530.59,390.45 c -7.01,0.17 -14.04,-0.38 -21.04,0.19 -5.01,0.35 -10.76,1.71 -13.47,6.38 -3.31,5.77 -0.77,12.52 -1.09,18.74 -3.34,-5.46 -8.47,-9.59 -11.34,-15.35 -3.95,-7.24 -9.41,-14.58 -17.56,-17.26 -7.39,-2.4 -15.18,1.39 -20.1,6.89 -8.88,9.85 -12.88,22.91 -15.72,35.59 -4,-6.3 -2.51,-14.01 -2.14,-21.01 0.34,-4.87 -2.06,-10.15 -6.76,-12.07 -6.88,-2.85 -14.54,-2.05 -21.81,-2.1 -45.69,0.02 -91.38,0.01 -137.06,0 -4.36,0.14 -9.37,0.21 -12.69,3.47 -3.84,4.2 -1.18,11.65 3.98,13.41 6.58,2.43 13.74,1.44 20.6,1.74 1.52,-0.08 2.41,1.35 3.47,2.22 4.32,3.98 7.98,9.09 13.7,11.17 4.68,1.91 9.83,1.42 14.77,1.41 5.61,4.73 9.89,11.58 17.22,13.84 4.4,1.5 9.13,0.99 13.7,1.02 5.61,4.8 9.96,11.64 17.34,13.9 4.37,1.67 9.18,0.17 13.61,1.19 6.34,5.15 11.18,13.13 19.94,14.37 13.6,0.76 27.35,-0.33 40.9,0.52 1.12,6.35 2.13,12.75 4.1,18.91 -44.16,43.8 -88.06,87.85 -132.26,131.6 53.83,127.42 107.59,254.88 161.4,382.31 C 756.52,732.64 888.4,420.37 1020.21,108.08 911.1,216.61 802.18,325.32 693.08,433.87 M 573.76,157.82 c -10.79,6.33 -17.58,18 -19.58,30.16 -1.82,11.65 -1.52,23.99 2.76,35.1 4.04,10.51 13.54,17.61 23.18,22.69 5.89,3.14 12.78,5.75 16.37,11.77 2.08,4.25 0.72,11.19 -4.51,12.34 -6.72,1.6 -13.45,-1.45 -19.02,-4.99 -6.34,-3.92 -10.84,-9.97 -16.05,-15.17 -1.39,15.12 -2.86,30.24 -4.36,45.35 9.51,8.79 22.52,13.88 35.5,13.65 8.96,0.28 18.23,-1.07 26.11,-5.58 10.9,-6.05 17.75,-17.57 20.31,-29.52 2.59,-12.67 3.11,-26.29 -1.46,-38.58 -3.36,-9.19 -11,-15.98 -19.22,-20.85 -6.19,-3.89 -13.4,-6.11 -18.98,-10.95 -2.91,-2.46 -3.27,-6.89 -1.93,-10.26 1.61,-2.82 5.07,-4.01 8.15,-4.27 8.7,-0.21 16.78,3.8 23.84,8.52 5.57,-10.91 11.11,-21.82 16.68,-32.73 -8.87,-6.03 -19.12,-9.78 -29.62,-11.73 -12.77,-2.32 -26.79,-1.75 -38.17,5.05 m 99.21,-1.91 c -14.96,7.12 -24.94,21.79 -30.08,37.14 -5.93,18.12 -6.61,37.65 -4.18,56.45 2.45,17.68 9.51,35.59 23.36,47.41 12.18,10.54 29.43,13.77 45,10.77 8.98,-1.76 17.96,-6.02 23.33,-13.7 -3.88,-13.72 -7.66,-27.46 -11.53,-41.17 -4.68,5.3 -8.55,11.82 -15.22,14.86 -4.81,2.35 -10.86,1.06 -14.59,-2.69 -5.38,-5.32 -7.69,-12.88 -8.89,-20.16 -1.48,-9.92 -1.41,-20.07 0.19,-29.97 1.24,-7.61 4.19,-15.27 9.9,-20.66 4.01,-3.77 10.48,-3.97 15.21,-1.53 2.5,2.06 4.07,5.01 6.18,7.45 7.17,-10.35 14,-20.93 21.07,-31.35 -14.21,-16.85 -39.88,-21.88 -59.75,-12.85 m -315.78,-1.67 c 0.02,50.68 0.03,101.35 -0.01,152.03 11.95,0.01 23.9,0 35.85,0.01 7.57,0.03 15.19,-0.77 22.46,-2.93 14.1,-3.97 26.22,-14 32.89,-27.02 9.57,-18.16 10.38,-39.36 9.12,-59.42 -1.42,-16.46 -5.74,-33.77 -17.47,-46.03 -10.82,-11.33 -26.8,-16.02 -42.09,-16.5 -13.58,-0.29 -27.17,-0.02 -40.75,-0.14 m 93.34,0.09 c 11.46,50.63 22.72,101.31 34.1,151.96 13.44,-0.04 26.88,0 40.32,-0.02 11.4,-50.67 22.83,-101.34 34.22,-152.02 -13.32,0 -26.64,0.02 -39.95,-0.01 -4.62,24.42 -9.12,48.86 -13.81,73.26 -4.23,-24.42 -8.48,-48.84 -12.71,-73.26 -14.06,0.09 -28.11,-0.09 -42.17,0.09 z"
         inkscape:connector-curvature="0"
         style="opacity:1;fill:#d40e1f" />
      <path
         id="path54"
         d="m 397.43,193.02 c 4.77,0.92 9.44,3.2 12.15,7.39 5.39,8.06 6.44,18.11 6.69,27.56 0.18,10.93 -0.94,22.67 -7.45,31.84 -2.66,3.93 -6.92,6.3 -11.36,7.68 -0.1,-24.82 -0.04,-49.65 -0.03,-74.47 z"
         inkscape:connector-curvature="0"
         style="opacity:1;fill:#d40e1f" />
    </g>
    <g
       id="#000000ff">
      <path
         id="path57"
         d="m 573.76,157.82 c 11.38,-6.8 25.4,-7.37 38.17,-5.05 10.5,1.95 20.75,5.7 29.62,11.73 -5.57,10.91 -11.11,21.82 -16.68,32.73 -7.06,-4.72 -15.14,-8.73 -23.84,-8.52 -3.08,0.26 -6.54,1.45 -8.15,4.27 -1.34,3.37 -0.98,7.8 1.93,10.26 5.58,4.84 12.79,7.06 18.98,10.95 8.22,4.87 15.86,11.66 19.22,20.85 4.57,12.29 4.05,25.91 1.46,38.58 -2.56,11.95 -9.41,23.47 -20.31,29.52 -7.88,4.51 -17.15,5.86 -26.11,5.58 -12.98,0.23 -25.99,-4.86 -35.5,-13.65 1.5,-15.11 2.97,-30.23 4.36,-45.35 5.21,5.2 9.71,11.25 16.05,15.17 5.57,3.54 12.3,6.59 19.02,4.99 5.23,-1.15 6.59,-8.09 4.51,-12.34 -3.59,-6.02 -10.48,-8.63 -16.37,-11.77 -9.64,-5.08 -19.14,-12.18 -23.18,-22.69 -4.28,-11.11 -4.58,-23.45 -2.76,-35.1 2,-12.16 8.79,-23.83 19.58,-30.16 m 0.63,7.61 c -7.85,5.81 -12.37,15.19 -13.8,24.69 -1.52,9.93 -1.1,20.38 2.3,29.9 3.79,10.3 13.62,16.55 23,21.22 7.03,3.46 14.83,7.79 17.53,15.66 1.36,5.84 0.37,12.97 -4.59,16.89 -4.06,3.29 -9.64,3.48 -14.6,2.87 -8.45,-1.37 -15.69,-6.33 -22.22,-11.6 -0.49,9.22 -1.85,18.37 -2.38,27.59 7.24,4.84 15.44,8.8 24.28,9.24 10.17,0.76 21.18,-0.18 29.7,-6.32 9.21,-6.5 13.84,-17.65 15.29,-28.51 1.3,-10.36 1.49,-21.38 -2.74,-31.14 -3.9,-8.75 -12.26,-14.34 -20.48,-18.6 -5.62,-2.82 -11.56,-5.41 -16.11,-9.88 -4.31,-4.31 -5.12,-11.24 -2.97,-16.78 1.88,-4.68 6.8,-7.24 11.48,-8.3 8.39,-1.21 16.77,1.56 24.16,5.34 3.52,-6.93 7.05,-13.87 10.61,-20.78 -11,-5.77 -23.43,-8.98 -35.87,-8.66 -7.99,0.23 -16.15,2.27 -22.59,7.17 z"
         inkscape:connector-curvature="0"
         style="opacity:1;fill:#000000" />
      <path
         id="path59"
         d="m 672.97,155.91 c 19.87,-9.03 45.54,-4 59.75,12.85 -7.07,10.42 -13.9,21 -21.07,31.35 -2.11,-2.44 -3.68,-5.39 -6.18,-7.45 -4.73,-2.44 -11.2,-2.24 -15.21,1.53 -5.71,5.39 -8.66,13.05 -9.9,20.66 -1.6,9.9 -1.67,20.05 -0.19,29.97 1.2,7.28 3.51,14.84 8.89,20.16 3.73,3.75 9.78,5.04 14.59,2.69 6.67,-3.04 10.54,-9.56 15.22,-14.86 3.87,13.71 7.65,27.45 11.53,41.17 -5.37,7.68 -14.35,11.94 -23.33,13.7 -15.57,3 -32.82,-0.23 -45,-10.77 -13.85,-11.82 -20.91,-29.73 -23.36,-47.41 -2.43,-18.8 -1.75,-38.33 4.18,-56.45 5.14,-15.35 15.12,-30.02 30.08,-37.14 m 9.02,3.81 c -12.71,3.41 -22.44,13.58 -28.34,24.98 -8.54,16.46 -10.21,35.51 -9.34,53.76 0.98,16.49 5.03,33.53 15.57,46.64 7.24,9.26 18.22,15.46 29.94,16.61 11.57,1.25 24.58,-0.61 33.25,-9.03 -2.3,-8.62 -4.9,-17.16 -7.11,-25.81 -4.87,4.62 -10.92,8.9 -17.94,8.66 -7.39,-0.01 -13.94,-4.74 -17.74,-10.83 -6,-9.35 -7.5,-20.79 -7.77,-31.68 -0.15,-11.17 0.68,-22.76 5.47,-33.03 3.01,-5.87 7.17,-11.77 13.51,-14.31 6.56,-2.34 14.43,-1.48 19.94,2.97 4.16,-6.44 8.59,-12.71 12.67,-19.22 -11.13,-10.27 -27.66,-13.45 -42.11,-9.71 z"
         inkscape:connector-curvature="0"
         style="opacity:1;fill:#000000" />
      <path
         id="path61"
         d="m 357.19,154.24 c 13.58,0.12 27.17,-0.15 40.75,0.14 15.29,0.48 31.27,5.17 42.09,16.5 11.73,12.26 16.05,29.57 17.47,46.03 1.26,20.06 0.45,41.26 -9.12,59.42 -6.67,13.02 -18.79,23.05 -32.89,27.02 -7.27,2.16 -14.89,2.96 -22.46,2.93 -11.95,-0.01 -23.9,0 -35.85,-0.01 0.04,-50.68 0.03,-101.35 0.01,-152.03 m 6.66,6.64 c -0.01,46.23 0.03,92.46 -0.02,138.7 11.08,0.01 22.16,0.08 33.25,-0.03 13.9,-0.39 28.3,-5.15 37.85,-15.65 10.94,-11.8 14.98,-28.19 16.11,-43.84 0.82,-14.12 0.22,-28.5 -3.64,-42.18 -2.84,-9.95 -7.98,-19.62 -16.28,-26.06 -10.18,-8.02 -23.44,-10.65 -36.12,-10.93 -10.39,-0.03 -20.77,0.01 -31.15,-0.01 z"
         inkscape:connector-curvature="0"
         style="opacity:1;fill:#000000" />
      <path
         id="path63"
         d="m 450.53,154.33 c 14.06,-0.18 28.11,0 42.17,-0.09 4.23,24.42 8.48,48.84 12.71,73.26 4.69,-24.4 9.19,-48.84 13.81,-73.26 13.31,0.03 26.63,0.01 39.95,0.01 -11.39,50.68 -22.82,101.35 -34.22,152.02 -13.44,0.02 -26.88,-0.02 -40.32,0.02 -11.38,-50.65 -22.64,-101.33 -34.1,-151.96 m 8.42,6.56 c 10.21,46.26 20.72,92.46 31,138.7 9.9,0.03 19.79,-0.01 29.69,0.02 10.35,-46.25 20.82,-92.48 31.2,-138.73 -8.69,0 -17.37,0.01 -26.05,-0.01 -6.57,32.64 -13.06,65.29 -19.58,97.93 -6,-32.65 -12.11,-65.27 -18.11,-97.92 -9.38,0.01 -18.77,-0.01 -28.15,0.01 z"
         inkscape:connector-curvature="0"
         style="opacity:1;fill:#000000" />
      <path
         id="path65"
         d="m 390.81,186.02 c 8.49,-0.43 17.74,1.99 23.1,9.04 8.01,10.41 9.11,24.25 8.99,36.93 -0.13,12.66 -2.77,26.52 -12.17,35.73 -5.19,5.26 -12.76,6.94 -19.91,6.97 -0.02,-29.56 0,-59.12 -0.01,-88.67 m 6.62,7 c -0.01,24.82 -0.07,49.65 0.03,74.47 4.44,-1.38 8.7,-3.75 11.36,-7.68 6.51,-9.17 7.63,-20.91 7.45,-31.84 -0.25,-9.45 -1.3,-19.5 -6.69,-27.56 -2.71,-4.19 -7.38,-6.47 -12.15,-7.39 z"
         inkscape:connector-curvature="0"
         style="opacity:1;fill:#000000" />
      <path
         id="path67"
         d="m 608.48,433.46 c 4.92,-5.5 12.71,-9.29 20.1,-6.89 8.15,2.68 13.61,10.02 17.56,17.26 2.87,5.76 8,9.89 11.34,15.35 0.32,-6.22 -2.22,-12.97 1.09,-18.74 2.71,-4.67 8.46,-6.03 13.47,-6.38 7,-0.57 14.03,-0.02 21.04,-0.19 43.3,-0.06 86.6,-0.01 129.9,-0.03 4.48,0.18 9.94,0.38 12.89,4.31 2.82,4.59 0.04,11.33 -5.12,12.81 -6.87,2.23 -14.23,1.28 -21.33,1.53 -5.27,4.78 -9.59,11.14 -16.53,13.62 -4.56,1.78 -9.55,1.11 -14.32,1.23 -5.3,4.74 -9.59,11.12 -16.52,13.61 -4.6,1.79 -9.62,1.23 -14.44,1.33 -5.03,4.48 -9.11,10.36 -15.43,13.13 -4.74,2.27 -10.09,1.44 -15.14,1.79 -4.57,3.29 -7.84,8.12 -12.49,11.33 -3.42,2.22 -7.47,3.5 -11.56,3.35 -9.75,-0.04 -19.5,-0.01 -29.25,-0.03 -1.5,9.51 -5.63,18.62 -12.23,25.68 -4.41,4.52 -6.45,10.66 -10.44,15.48 -3.76,4.76 -8.83,9.03 -15.01,9.91 -5.93,0.95 -11.8,-1.87 -16.01,-5.88 -7.28,-6.99 -11.46,-16.51 -14.42,-26 -1.97,-6.16 -2.98,-12.56 -4.1,-18.91 -13.55,-0.85 -27.3,0.24 -40.9,-0.52 -8.76,-1.24 -13.6,-9.22 -19.94,-14.37 -4.43,-1.02 -9.24,0.48 -13.61,-1.19 -7.38,-2.26 -11.73,-9.1 -17.34,-13.9 -4.57,-0.03 -9.3,0.48 -13.7,-1.02 -7.33,-2.26 -11.61,-9.11 -17.22,-13.84 -4.94,0.01 -10.09,0.5 -14.77,-1.41 -5.72,-2.08 -9.38,-7.19 -13.7,-11.17 -1.06,-0.87 -1.95,-2.3 -3.47,-2.22 -6.86,-0.3 -14.02,0.69 -20.6,-1.74 -5.16,-1.76 -7.82,-9.21 -3.98,-13.41 3.32,-3.26 8.33,-3.33 12.69,-3.47 45.68,0.01 91.37,0.02 137.06,0 7.27,0.05 14.93,-0.75 21.81,2.1 4.7,1.92 7.1,7.2 6.76,12.07 -0.37,7 -1.86,14.71 2.14,21.01 2.84,-12.68 6.84,-25.74 15.72,-35.59 m -1.88,13.17 c -6.32,12.13 -8.95,25.83 -9.87,39.38 -0.91,18.43 0.94,37.53 8.91,54.4 3.28,6.48 7.58,13.41 14.7,16.11 4.71,1.87 9.74,-0.79 13.1,-4.06 6.03,-5.36 8,-13.69 13.82,-19.22 5.52,-5.93 9,-13.53 10.47,-21.46 -4.24,-0.1 -8.51,0.29 -12.73,-0.23 -5.86,-1.14 -9.88,-6.88 -10.23,-12.64 -0.67,-6.74 2.88,-13.09 7.54,-17.69 4.16,-4.5 9.77,-7.56 13.12,-12.81 -2.29,-4.76 -4.91,-9.43 -8.63,-13.24 -4.98,-4.71 -6.73,-11.68 -11.38,-16.66 -3.47,-4.08 -8.76,-7.95 -14.41,-6.35 -6.81,2.18 -11.16,8.46 -14.41,14.47 m -45.64,-9.18 c -45.34,0 -90.67,0.02 -136.01,-0.01 -2.17,0.09 -4.52,0 -6.42,1.2 -2.95,1.5 -2.35,6.09 -0.13,7.99 3.29,2.51 7.7,2.15 11.6,2.26 42,-0.03 84,0 126,-0.01 5.97,0.01 13.75,1.99 15.47,8.58 0.94,2.72 -0.9,5.11 -2.77,6.86 4.91,1.66 10.03,5.18 10.81,10.69 0.4,1.94 -1.22,3.25 -2.28,4.61 5.88,2.12 12.5,7.73 10.14,14.71 1.12,0.62 2.25,1.25 3.38,1.89 -0.18,-7.37 0.32,-14.73 1.35,-22.01 -2.09,-2.72 -4.12,-5.65 -4.8,-9.07 -1.56,-6 -0.39,-12.17 -0.2,-18.24 0.08,-3.68 -2.27,-7.21 -5.89,-8.18 -6.55,-1.98 -13.5,-1.29 -20.25,-1.27 m 104.27,1.69 c -3.54,1.31 -5.12,5.26 -4.81,8.82 0.44,7.84 1.75,16.58 -2.99,23.48 -4.73,6.51 -12.61,10.08 -16.71,17.16 -3.44,5.22 -3.89,13.22 1.06,17.66 2.64,2.61 6.57,2.01 9.94,2.1 -0.73,-6.09 2.87,-11.8 8.46,-14.15 -2.41,-6.78 4.18,-12.71 10.14,-14.43 -1.17,-1.37 -2.76,-2.76 -2.27,-4.78 0.59,-5.53 5.89,-9.13 10.83,-10.64 -2.07,-1.79 -3.93,-4.49 -2.73,-7.31 1.89,-6.13 9.16,-8.07 14.88,-8.16 42.97,-0.04 85.93,0.02 128.9,-0.02 3.23,-0.15 6.95,-0.17 9.47,-2.51 1.57,-1.69 1.97,-4.57 0.9,-6.6 -1.74,-2.17 -4.81,-2.21 -7.34,-2.31 -45.66,0.01 -91.32,0.01 -136.97,0 -6.92,0.01 -14.17,-0.84 -20.76,1.69 m -212.89,13.3 c -1.73,0.19 -3.67,0.75 -4.51,2.42 -0.35,1.73 0.97,3.15 2.06,4.31 3.22,3.05 7.7,4.72 12.14,4.64 31.66,-0.02 63.32,-0.02 94.99,0 2.74,-0.05 6.4,-0.11 7.75,-3 0.91,-4.82 -4.24,-8.7 -8.72,-8.48 -34.57,0.06 -69.15,-0.17 -103.71,0.11 m 237.08,0.07 c -3.25,0.64 -6.35,3.22 -6.87,6.6 -0.47,2.45 1.95,4.08 4.08,4.4 3.07,0.5 6.2,0.24 9.3,0.29 29.71,0 59.42,-0.02 89.12,0.01 4.22,0.14 8.48,-1.26 11.76,-3.92 1.45,-1.26 2.98,-2.84 2.85,-4.92 -1.43,-2.77 -4.98,-2.59 -7.63,-2.67 -34.2,0.18 -68.42,-0.26 -102.61,0.21 M 482.33,467.4 c -2.33,0.17 -4.65,2.99 -2.8,5.07 2.99,4.22 8.4,6.19 13.44,6.25 24.33,0.02 48.65,-0.02 72.98,0.02 2.21,-0.13 4.93,0.23 6.51,-1.7 1.08,-4.87 -3.46,-10.21 -8.46,-9.87 -27.22,0.16 -54.47,-0.29 -81.67,0.23 m 198.95,-0.05 c -3.9,1.11 -7.12,5.34 -6.36,9.46 1.29,2.07 3.97,1.8 6.07,1.92 24.35,-0.02 48.7,-0.01 73.06,0 5.36,0.05 11.24,-2.07 14.24,-6.74 1.35,-3.89 -3.37,-5.12 -6.26,-4.83 -26.92,0.16 -53.85,-0.22 -80.75,0.19 m -172.35,15.57 c 0.47,6.36 7.3,10.07 13.05,10.5 18.33,0.08 36.67,0.04 55.01,0.02 1.87,0.24 3.35,-0.87 4.52,-2.18 -0.91,-4.19 -3.65,-8.85 -8.39,-9.1 -19.71,-0.13 -39.43,0.02 -59.14,-0.07 -1.73,-0.07 -3.41,0.34 -5.05,0.83 m 157.39,9.4 c 1.81,0.75 3.73,1.28 5.73,1.16 17.66,-0.07 35.32,0.02 52.98,-0.04 5.91,-0.3 13.14,-3.99 13.48,-10.62 -1.79,-0.44 -3.62,-0.78 -5.46,-0.73 -19.36,0.07 -38.72,-0.02 -58.08,0.04 -5.21,-0.04 -8.91,5.29 -8.65,10.19 m -126.14,7.53 c 1.79,5.22 7.63,8.05 12.84,8.44 10.63,0.1 21.26,-0.03 31.89,0.06 2.16,0.05 4.3,-0.25 6.42,-0.7 -0.32,-2.43 0.18,-5.26 -1.59,-7.24 -1.78,-2.37 -4.68,-3.83 -7.67,-3.58 -12.71,0.07 -25.44,-0.08 -38.15,0.07 -1.65,-0.05 -4.47,0.77 -3.74,2.95 m 115.33,7.42 c 2.07,0.67 4.2,1.18 6.41,1.08 11.03,-0.11 22.08,0.09 33.11,-0.09 5.5,-0.63 12.31,-4.12 12.43,-10.4 -1.78,-0.54 -3.58,-1.09 -5.44,-1.03 -12.37,0.03 -24.74,0 -37.1,0.02 -5.49,-0.27 -9.68,5.23 -9.41,10.42 z"
         inkscape:connector-curvature="0"
         style="opacity:1;fill:#000000" />
      <path
         id="path69"
         d="m 616.12,456.1 c 2.68,-4.11 7.58,-6.03 12.35,-6.01 -5.46,8 -7.86,17.58 -9.28,27.03 -2.13,15.59 -1.6,31.67 2.58,46.88 1.41,5.29 3.71,10.31 6.75,14.87 -3.58,-0.17 -7.3,-0.94 -10.02,-3.43 -3.89,-3.49 -5.69,-8.63 -7.03,-13.53 -3.04,-12.39 -2.39,-25.26 -2.24,-37.9 0.55,-9.56 1.48,-19.72 6.89,-27.91 z"
         inkscape:connector-curvature="0"
         style="opacity:1;fill:#000000" />
      <path
         id="path71"
         d="m 587.66,711.63 c 5.84,-6.97 17.76,-6.8 23.82,-0.19 4.63,5.01 6.22,11.97 7.11,18.54 1.16,9.99 1.01,20.21 -1.03,30.08 -1.55,7.03 -4.7,14.54 -11.32,18.16 -6.81,3.67 -15.06,2.09 -21.77,-0.98 0.24,-5.52 0.64,-11.02 0.83,-16.53 3.67,2.86 8.5,5.56 13.23,3.57 4,-2.17 4.44,-7.19 5.4,-11.12 -4.71,2.22 -10.82,2.31 -14.89,-1.27 -5.38,-4.65 -6.95,-12.13 -7.24,-18.92 -0.22,-7.42 0.83,-15.52 5.86,-21.34 m 2.13,1.14 c -4.02,4.35 -5.37,10.44 -5.64,16.2 -0.21,6.82 0.5,14.34 5.03,19.8 2.89,3.59 8.18,4.49 12.32,2.77 2.36,-1.07 3.71,-3.42 5.27,-5.37 -0.71,6.32 -0.37,13.67 -5.02,18.64 -3.88,3.82 -9.97,2.66 -14.32,0.31 -0.09,3.46 -0.29,6.92 -0.65,10.37 5.85,2.82 13.19,3.83 18.98,0.31 5.38,-3.39 7.92,-9.67 9.37,-15.59 2,-8.94 2.06,-18.2 1.42,-27.29 -0.64,-6.5 -1.8,-13.34 -5.78,-18.71 -4.72,-6.49 -15.49,-7.41 -20.98,-1.44 z"
         inkscape:connector-curvature="0"
         style="opacity:1;fill:#000000" />
      <path
         id="path73"
         d="m 638.2,707.14 c 5.89,-1.92 12.78,0.18 16.48,5.19 5.27,7.02 6.52,16.11 7.07,24.64 0.3,11.43 0.39,23.53 -4.87,34.01 -2.68,5.56 -8.45,9.9 -14.84,9.35 -6.33,-0.04 -11.47,-4.85 -13.89,-10.38 -4.61,-10.3 -4.61,-21.88 -4.29,-32.94 0.52,-7.95 1.61,-16.25 5.91,-23.14 1.95,-3.09 4.87,-5.68 8.43,-6.73 m 0.14,2.42 c -7.28,2.89 -9.78,11.31 -11.11,18.33 -1.52,9.35 -1.51,18.93 -0.41,28.34 0.92,6.37 2.52,13.11 6.99,17.99 4.31,4.73 12.46,5.08 17.16,0.73 3.33,-3.06 5.19,-7.37 6.38,-11.65 2.6,-9.87 2.54,-20.22 1.75,-30.32 -0.82,-6.82 -2.13,-14.05 -6.56,-19.54 -3.25,-4.2 -9.27,-5.75 -14.2,-3.88 z"
         inkscape:connector-curvature="0"
         style="opacity:1;fill:#000000" />
      <path
         id="path75"
         d="m 667.01,710.87 c 6.56,-3.56 14.4,-5.62 21.78,-3.63 5.85,1.63 10.11,6.92 11.41,12.73 1.47,6.61 0.68,13.61 -1.6,19.94 -3.06,8.74 -8.44,16.4 -14,23.7 5.72,-0.07 11.45,-0.02 17.17,-0.04 -0.03,5.17 -0.03,10.34 0,15.52 -11.81,0 -23.61,0 -35.41,0 0.03,-5.23 0,-10.46 0.02,-15.69 5.01,-6.07 9.99,-12.24 13.98,-19.04 2.96,-5.2 5.47,-11.21 4.28,-17.3 -0.45,-2.57 -3.02,-4.69 -5.65,-4.13 -4.26,0.57 -7.67,3.39 -11.01,5.84 -0.26,-5.97 -0.75,-11.93 -0.97,-17.9 m 2.36,1.39 c 0.28,4.02 0.5,8.05 0.57,12.09 3.91,-2.5 9.01,-5.35 13.6,-2.8 4.64,3.1 4.27,9.67 2.99,14.44 -3.14,10.87 -10.99,19.39 -17.61,28.25 -0.55,4.15 -0.1,8.37 -0.22,12.55 10.2,-0.05 20.41,-0.06 30.61,0.01 0.01,-3.65 0.01,-7.29 0,-10.93 -6.52,0.04 -13.04,-0.03 -19.56,0.05 6.12,-7.54 12.02,-15.46 15.76,-24.5 2.76,-6.68 4.04,-14.21 2.3,-21.31 -1.21,-4.82 -4.74,-9.29 -9.66,-10.62 -6.33,-1.8 -13,0.08 -18.78,2.77 z"
         inkscape:connector-curvature="0"
         style="opacity:1;fill:#000000" />
      <path
         id="path77"
         d="m 547.75,725.05 c 5.45,-5.79 11,-11.48 16.42,-17.29 3.82,-0.03 7.65,-0.02 11.48,-0.03 0,23.79 -0.01,47.57 0,71.36 -4.96,0 -9.93,0 -14.89,0 0.02,-15.44 -0.01,-30.87 0.02,-46.31 -1.89,2.41 -3.84,4.78 -5.75,7.18 -2.37,-5 -4.8,-9.97 -7.28,-14.91 m 2.88,0.32 c 1.58,3.42 3.26,6.8 4.9,10.2 2.56,-3.11 5.07,-6.25 7.62,-9.36 -0.02,16.85 0,33.7 -0.01,50.55 3.37,-0.01 6.74,-0.01 10.11,0.05 0.13,-22.22 0.02,-44.44 0.06,-66.66 -2.56,-0.02 -5.1,-0.09 -7.64,-0.28 -5.24,4.94 -9.93,10.42 -15.04,15.5 z"
         inkscape:connector-curvature="0"
         style="opacity:1;fill:#000000" />
      <path
         id="path79"
         d="m 598.38,719.42 c 2.2,-0.92 5.16,-0.37 6.21,1.98 1.77,3.59 1.5,7.79 1.4,11.69 -0.23,2.94 -0.66,6.82 -3.76,8.16 -2.57,1.1 -5.62,-0.69 -6.29,-3.31 -1.22,-3.84 -1.11,-7.97 -0.75,-11.92 0.31,-2.44 0.94,-5.24 3.19,-6.6 m 1.13,2.09 c -3.13,3.41 -2.11,9.01 -1.94,13.35 -0.1,2.35 2.39,6.19 4.72,3.5 2.04,-4.05 1.58,-8.89 1.08,-13.25 -0.24,-1.9 -1.47,-4.84 -3.86,-3.6 z"
         inkscape:connector-curvature="0"
         style="opacity:1;fill:#000000" />
      <path
         id="path81"
         d="m 641.2,720.1 c 2.03,-1.36 4.51,0.3 5.3,2.32 1.93,4.57 1.75,9.68 2.03,14.55 -0.01,8.21 0.43,16.53 -1.12,24.65 -0.56,2.2 -1.64,5.32 -4.4,5.31 -3.57,0.13 -4.61,-4.19 -5.1,-6.97 -1.24,-9.27 -0.84,-18.69 -0.57,-28.01 0.47,-4.03 0.27,-9.17 3.86,-11.85 m 0.93,1.61 c -1.15,2.28 -1.99,4.72 -2.17,7.29 -0.85,8.97 -0.81,18.01 -0.18,26.99 0.35,3.24 0.52,6.93 3.19,9.24 2.9,-3.36 2.7,-7.98 3.09,-12.12 0.29,-8.4 0.45,-16.85 -0.51,-25.21 -0.4,-2.35 -0.66,-5.48 -3.42,-6.19 z"
         inkscape:connector-curvature="0"
         style="opacity:1;fill:#000000" />
    </g>
  </g>
</svg>
