<?xml version="1.0" encoding="UTF-8" standalone="no"?>
<svg
   xmlns:dc="http://purl.org/dc/elements/1.1/"
   xmlns:cc="http://creativecommons.org/ns#"
   xmlns:rdf="http://www.w3.org/1999/02/22-rdf-syntax-ns#"
   xmlns:svg="http://www.w3.org/2000/svg"
   xmlns="http://www.w3.org/2000/svg"
   id="svg251"
   version="1.1"
   viewBox="0 0 43.769368 66.675004"
   height="252"
   width="165.42754">
  <defs
     id="defs245" />
  <metadata
     id="metadata248">
    <rdf:RDF>
      <cc:Work
         rdf:about="">
        <dc:format>image/svg+xml</dc:format>
        <dc:type
           rdf:resource="http://purl.org/dc/dcmitype/StillImage" />
        <dc:title></dc:title>
      </cc:Work>
    </rdf:RDF>
  </metadata>
  <g
     transform="translate(-65.041801,-92.208448)"
     id="layer1">
    <g
       transform="matrix(0.21863443,0,0,0.21863443,45.609918,84.893993)"
       id="g231">
      <path
         id="path68"
         style="fill:#9f8c50;fill-opacity:1;fill-rule:nonzero;stroke:none;stroke-width:0.13333333"
         d="m 158.91066,34.665345 6.66,20.628 h 21.572 l -17.46666,12.770666 6.67866,20.625333 -17.444,-12.736 -17.46666,12.736 6.688,-20.625333 -17.4492,-12.770666 h 21.5732 l 6.65466,-20.628" />
      <path
         id="path70"
         style="fill:#9f8c50;fill-opacity:1;fill-rule:nonzero;stroke:none;stroke-width:0.13333333"
         d="m 219.04666,34.665345 6.656,20.628 h 21.56533 l -17.448,12.770666 6.68934,20.625333 -17.46267,-12.736 -17.44933,12.736 6.67866,-20.625333 -17.46133,-12.770666 h 21.57867 l 6.65333,-20.628" />
      <path
         id="path72"
         style="fill:#2350a9;fill-opacity:1;fill-rule:evenodd;stroke:none;stroke-width:0.13333333"
         d="m 249.77466,241.29467 c -0.86267,34.29467 -15.46933,61.1572 -47.70533,71.26653 -8.41867,2.59587 -17.50667,1.8324 -26.584,-0.42906 17.85867,-22.7828 30.40533,-58.47867 40.764,-95.90947 -18.43467,-3.21866 -29.204,-12.15333 -35.016,-23.36 3.02667,-2.796 6,-5.73333 8.864,-8.76666 6.05867,-6.492 11.63866,-13.464 16.16,-20.60933 30.42,11.54133 44.456,40.90399 43.51733,77.80799 z m -74.26,-75.44666 c 0.02,-2.444 0.17467,-4.888 0.448,-7.276 3.504,-0.23333 7.132,-0.16533 10.76934,0.26267 2.85866,0.32133 5.624,0.792 8.29333,1.35733 -3.236,5.56933 -7.33067,10.21867 -12.016,14.29733 -2,1.72934 -4.11467,3.36 -6.32267,4.91067 -0.744,-3.87333 -1.112,-7.82 -1.18133,-11.78933 -0.009,-0.584 0,-1.17334 0.009,-1.76267 z m 21.50267,-43.112 c 4.436,1.36133 5.34,7.85867 3.82,22.30933 -6.93333,-1.30266 -14.12533,-1.99733 -21.496,-2.04533 4.368,-13.108 11.63467,-22.11733 17.676,-20.264 z m -59.13867,201.31226 c -1.424,0.2692 -2.90266,0.4172 -4.44133,0.4172 -2.76027,-0.71613 -9.33107,-0.28027 -9.842,-8.8052 1.2552,-4.6 5.876,-5.91626 10.80467,-6.1272 3.544,-0.13173 9.59333,2.9084 17.108,6.9724 -3.71734,3.79173 -8.24934,6.56413 -13.62934,7.5428 z m 149.92933,-84.1736 c -1.692,-42.59066 -31.72933,-78.43333 -73.764,-91.54666 2.556,-6.50133 4.02667,-13.008 3.996,-19.27867 -0.044,-15.02133 -7.07733,-28.86666 -18.89999,-29.554663 -21.85867,0.06 -32.50267,23.461333 -36.14134,44.637333 -65.152796,9.54 -91.001328,77.31733 -59.58933,103.77866 25.34227,10.99854 44.83867,-2.12653 46.24267,-20.51066 -15.90267,1.95066 -21.20827,-8.06 -21.1332,-20.87867 0.0989,-21.62133 13.9772,-38.372 32.9652,-44.99066 0.02,2.32533 0.124,4.472 0.31866,6.40533 0.11334,1.09467 0.24267,2.16667 0.336,3.25467 0.60134,5.60666 1.14667,10.93066 1.67334,16.06666 -6.27334,3.41333 -12.95867,6.63867 -19.75867,10.10133 l 0.19867,20.81467 c 6.50133,-2.76667 13.872,-7.088 21.40133,-12.51467 0.332,3.53734 0.68533,7.04667 0.984,10.572 2.02933,21.88267 1.776,41.628 -2.21067,71.42014 -0.82266,6.0704 -2.77866,12.89173 -5.94,19.00266 -12.47733,-4.69226 -24.08666,-9.9 -32.92626,-10.07186 -8.34787,-0.43334 -20.26454,3.64893 -21.98227,15.32759 -2.5364,17.17867 15.03853,26.43227 30.9312,25.18534 2.59067,-0.2 5.12133,-0.61294 7.57467,-1.2052 8.31733,-2.03067 15.816,-6.2708 22.64133,-12.25054 12.74133,6.6516 27.38133,13.048 40.61333,12.57294 49.544,-1.71294 84.088,-43.96667 82.46933,-96.33707" />
    </g>
  </g>
</svg>
