<?xml version="1.0" encoding="UTF-8" standalone="no"?>
<!-- Created with Inkscape (http://www.inkscape.org/) -->

<svg
   xmlns:dc="http://purl.org/dc/elements/1.1/"
   xmlns:cc="http://creativecommons.org/ns#"
   xmlns:rdf="http://www.w3.org/1999/02/22-rdf-syntax-ns#"
   xmlns:svg="http://www.w3.org/2000/svg"
   xmlns="http://www.w3.org/2000/svg"
   xmlns:sodipodi="http://sodipodi.sourceforge.net/DTD/sodipodi-0.dtd"
   xmlns:inkscape="http://www.inkscape.org/namespaces/inkscape"
   version="1.1"
   id="svg2"
   xml:space="preserve"
   width="244.02574"
   height="252"
   viewBox="0 0 244.02574 251.99999"
   sodipodi:docname="fc-ararat-armenia-yerevan.svg"
   inkscape:version="0.92.4 (5da689c313, 2019-01-14)"><metadata
     id="metadata8"><rdf:RDF><cc:Work
         rdf:about=""><dc:format>image/svg+xml</dc:format><dc:type
           rdf:resource="http://purl.org/dc/dcmitype/StillImage" /><dc:title></dc:title></cc:Work></rdf:RDF></metadata><defs
     id="defs6" /><sodipodi:namedview
     pagecolor="#ffffff"
     bordercolor="#666666"
     borderopacity="1"
     objecttolerance="10"
     gridtolerance="10"
     guidetolerance="10"
     inkscape:pageopacity="0"
     inkscape:pageshadow="2"
     inkscape:window-width="1366"
     inkscape:window-height="705"
     id="namedview4"
     showgrid="false"
     fit-margin-top="1"
     fit-margin-bottom="1"
     fit-margin-right="1"
     fit-margin-left="1"
     inkscape:zoom="0.84096532"
     inkscape:cx="301.97942"
     inkscape:cy="137.54556"
     inkscape:window-x="-8"
     inkscape:window-y="-8"
     inkscape:window-maximized="1"
     inkscape:current-layer="g10" /><g
     id="g10"
     inkscape:groupmode="layer"
     inkscape:label="fc-ararat-armenia-yerevan-seeklogo.com"
     transform="matrix(1.3333333,0,0,-1.3333333,-35.114545,477.8125)"><g
       id="g66"
       transform="matrix(0.33521749,0,0,0.33521749,18.006239,113.08574)"><path
         inkscape:connector-curvature="0"
         id="path12"
         style="fill:#231f20;fill-opacity:1;fill-rule:nonzero;stroke:none"
         d="m 488.89551,538.61426 c 0,-105.39356 -85.43848,-190.83301 -190.83301,-190.83301 -105.39355,0 -190.83252,85.43945 -190.83252,190.83301 0,105.39404 85.43897,190.83349 190.83252,190.83349 105.39453,0 190.83301,-85.43945 190.83301,-190.83349 z" /><path
         inkscape:connector-curvature="0"
         id="path14"
         style="fill:#ffffff;fill-opacity:1;fill-rule:nonzero;stroke:none"
         d="m 142.37988,538.61426 c 0,85.84375 69.83887,155.6831 155.68262,155.6831 85.84375,0 155.68262,-69.83935 155.68262,-155.6831 0,-85.84375 -69.83887,-155.68262 -155.68262,-155.68262 -85.84375,0 -155.68262,69.83887 -155.68262,155.68262 m -17.5747,0 c 0,-95.53418 77.72265,-173.25781 173.25732,-173.25781 95.53418,0 173.25781,77.72363 173.25781,173.25781 0,95.53515 -77.72363,173.2583 -173.25781,173.2583 -95.53467,0 -173.25732,-77.72315 -173.25732,-173.2583 z" /><path
         inkscape:connector-curvature="0"
         id="path16"
         style="fill:#ffffff;fill-opacity:1;fill-rule:nonzero;stroke:none"
         d="m 207.54053,435.87891 c 37.38672,37.31689 122.57861,122.34814 139.08545,138.8247 14.92187,-14.83007 61.65918,-61.28271 81.92285,-81.42285 l -0.31934,-0.84814 C 409.18848,438.9209 358.02637,400.50684 298.0625,400.50684 c -34.98145,0 -66.9668,13.07324 -91.32715,34.59033 z" /><path
         inkscape:connector-curvature="0"
         id="path18"
         style="fill:#ffffff;fill-opacity:1;fill-rule:nonzero;stroke:none"
         d="m 248.87549,503.72607 -47.94238,47.64991 -37.85987,-37.78907 -0.71435,-0.70654 c -1.57813,8.33984 -2.40381,16.94238 -2.40381,25.73389 0,76.15332 61.95508,138.1084 138.10742,138.1084 76.15234,0 138.10742,-61.95508 138.10742,-138.1084 0,-8.53321 -0.77832,-16.88819 -2.26562,-24.99805 l -0.0752,-0.8042 -87.22851,86.69727 -96.81299,-96.63184 z" /><path
         inkscape:connector-curvature="0"
         id="path20"
         style="fill:#ffffff;fill-opacity:1;fill-rule:nonzero;stroke:none"
         d="m 236.83154,489.9458 -41.89795,-41.81982 -0.59277,-0.60694 c -11.48633,13.06201 -20.54932,28.30274 -26.48144,45.01367 l -0.2627,0.73682 c 15.6416,15.61279 28.05371,28.00244 33.36328,33.30127 5.63037,-5.59717 27.17139,-27.00586 36.32471,-36.104 z" /><path
         inkscape:connector-curvature="0"
         id="path22"
         style="fill:#231f20;fill-opacity:1;fill-rule:nonzero;stroke:none"
         d="m 526.70117,294.28223 v -70.41797 h 18.28809 v 70.35937 l 0.0225,0.41504 h 21.90918 l 1.66211,16.625 h -70.77539 l 6.17578,-16.625 h 22.71094 l 0.007,-0.35644 z" /><path
         inkscape:connector-curvature="0"
         id="path24"
         style="fill:#231f20;fill-opacity:1;fill-rule:nonzero;stroke:none"
         d="m 346.90625,294.63867 h 14.81445 c 10.6875,-0.0791 18.12989,-2.4541 18.12989,-12.1123 0,-7.91699 -4.27539,-13.29981 -15.99219,-13.29981 h -17.33692 l -9.7e-4,0.2666 v 25.14356 l 0.38574,0.002 m -18.67285,4.15625 v -74.93066 h 18.28711 v 28.41015 0.32715 h 11.01367 l 0.23145,-0.0264 22.41308,-28.4834 0.18555,-0.22754 h 21.13769 l -0.19726,0.25195 -23.87989,30.34766 0.31153,0.0713 c 4.13183,1.07226 7.8789,2.62695 10.83398,4.75 6.6377,5.34863 10.28028,12.92285 10.28028,24.66601 0,8.74903 -3.90039,14.70899 -8.70899,18.84082 -7.72363,6.63672 -18.90722,8.42383 -28.4209,8.47168 h -38.47558 l 5.00195,-12.08594 -0.0137,-0.38281 z" /><path
         inkscape:connector-curvature="0"
         id="path26"
         style="fill:#231f20;fill-opacity:1;fill-rule:nonzero;stroke:none"
         d="m 156.38232,294.63867 h 14.81397 c 10.6875,-0.0791 18.12988,-2.4541 18.12988,-12.1123 0,-7.91699 -4.2749,-13.29981 -15.99219,-13.29981 h -17.33642 l -9.8e-4,0.2666 v 25.14356 l 0.38574,0.002 m -18.67334,4.15625 v -74.93066 h 18.2876 v 28.41015 0.32715 h 11.01367 l 0.23145,-0.0264 22.41309,-28.4834 0.18554,-0.22754 h 21.13721 l -0.19678,0.25195 -23.88037,30.34766 0.31152,0.0713 c 4.13233,1.07226 7.8794,2.62695 10.83399,4.75 6.63818,5.34863 10.28027,12.92285 10.28027,24.66601 0,8.74903 -3.90039,14.70899 -8.70849,18.84082 -7.72364,6.63672 -18.90723,8.42383 -28.42139,8.47168 h -38.4751 l 5.00147,-12.08594 -0.0137,-0.38281 z" /><path
         inkscape:connector-curvature="0"
         id="path28"
         style="fill:#231f20;fill-opacity:1;fill-rule:nonzero;stroke:none"
         d="m 203.38232,193.54883 h 3.79053 l 10.24121,-23.43945 h -4.32324 l -2.35986,5.61816 H 199.7251 l -2.39453,-5.61816 h -4.18946 l 10.24121,23.43945 m 5.85206,-14.19727 -4.02344,9.31055 -3.98926,-9.31055 z" /><path
         inkscape:connector-curvature="0"
         id="path30"
         style="fill:#231f20;fill-opacity:1;fill-rule:nonzero;stroke:none"
         d="m 229.38379,193.38379 h 10.37402 c 5.45313,0 8.64453,-2.92578 8.64453,-7.41406 0,-3.82422 -2.29394,-6.11914 -5.55224,-7.04883 l 6.28418,-8.81152 h -4.82129 l -5.78516,8.1123 h -5.05469 v -8.1123 h -4.08935 v 23.27441 m 10.07422,-11.53906 c 2.92627,0 4.78808,1.53125 4.78808,3.958 0,2.49415 -1.79492,3.85743 -4.82129,3.85743 h -5.95166 v -7.81543 z" /><path
         inkscape:connector-curvature="0"
         id="path32"
         style="fill:#231f20;fill-opacity:1;fill-rule:nonzero;stroke:none"
         d="m 298.24414,193.38379 h 17.25684 v -3.65723 h -13.167 v -6.05176 h 11.6709 v -3.65722 h -11.6709 v -6.25098 h 13.33301 v -3.65722 h -17.42285 z" /><path
         inkscape:connector-curvature="0"
         id="path34"
         style="fill:#231f20;fill-opacity:1;fill-rule:nonzero;stroke:none"
         d="m 328.50098,193.38379 h 3.79101 l 12.46875,-16.09375 v 16.09375 h 4.02344 v -23.27441 h -3.4248 l -12.83497,16.55761 v -16.55761 h -4.02343 z" /><path
         inkscape:connector-curvature="0"
         id="path36"
         style="fill:#231f20;fill-opacity:1;fill-rule:nonzero;stroke:none"
         d="m 362.98145,193.38379 h 4.08984 v -23.27441 h -4.08984 z" /><path
         inkscape:connector-curvature="0"
         id="path38"
         style="fill:#231f20;fill-opacity:1;fill-rule:nonzero;stroke:none"
         d="m 389.51465,193.54883 h 3.79101 l 10.24024,-23.43945 h -4.32227 l -2.36035,5.61816 h -11.00586 l -2.39453,-5.61816 h -4.18945 l 10.24121,23.43945 m 5.85254,-14.19727 -4.02442,9.31055 -3.99023,-9.31055 z" /><path
         inkscape:connector-curvature="0"
         id="path40"
         style="fill:#231f20;fill-opacity:1;fill-rule:nonzero;stroke:none"
         d="m 468.95215,255.21387 h -28.38184 l -0.32812,-0.0293 14.4414,36.87695 0.16895,-0.3916 14.29297,-36.49902 -0.19336,0.043 m -40.89356,-31.14258 6.21875,15.88281 0.32618,0.0596 h 40.22656 l 0.26367,-0.0312 6.2334,-15.91797 0.0742,-0.20019 h 19.13769 l -0.0557,0.14062 -35.54395,86.98828 -0.11425,0.27051 h -29.47852 l 4.76074,-10.77051 -31.19238,-76.33984 -0.10938,-0.28906 h 19.17774 l 0.0752,0.20703 z" /><path
         inkscape:connector-curvature="0"
         id="path42"
         style="fill:#231f20;fill-opacity:1;fill-rule:nonzero;stroke:none"
         d="m 278.42871,255.21387 h -28.38135 l -0.32861,-0.0293 14.44141,36.87695 0.16894,-0.3916 14.29346,-36.49902 -0.19385,0.043 m -40.89355,-31.14258 6.21923,15.88281 0.32569,0.0596 h 40.22656 l 0.26367,-0.0312 6.2334,-15.91797 0.0742,-0.20019 h 19.1377 l -0.0557,0.14062 -35.54394,86.98828 -0.11377,0.27051 h -29.47901 l 4.76123,-10.77051 -31.19238,-76.33984 -0.10938,-0.28906 h 19.17725 l 0.0752,0.20703 z" /><path
         inkscape:connector-curvature="0"
         id="path44"
         style="fill:#231f20;fill-opacity:1;fill-rule:nonzero;stroke:none"
         d="M 87.23193,255.21387 H 58.8501 l -0.32862,-0.0293 14.4419,36.87695 0.16894,-0.3916 14.29297,-36.49902 -0.19336,0.043 m -40.89404,-31.14258 6.21924,15.88281 0.32617,0.0596 h 40.22656 l 0.26368,-0.0312 6.23339,-15.91797 0.07422,-0.20019 h 19.13819 l -0.0557,0.14062 -35.54492,86.98828 -0.11377,0.27051 h -29.479 l 4.76172,-10.77051 -31.19288,-76.33984 -0.10888,-0.28906 h 19.17724 l 0.07471,0.20703 z" /><path
         inkscape:connector-curvature="0"
         id="path46"
         style="fill:#231f20;fill-opacity:1;fill-rule:nonzero;stroke:none"
         d="m 265.42627,186.73438 v -16.625 h -4.02344 v 23.27441 h 4.35547 l 7.08252,-11.00586 7.08252,11.00586 h 4.35547 v -23.27441 h -4.08936 v 16.6914 l -5.40869,-8.06152 h -4.02246 z" /></g></g></svg>