<?xml version="1.0" encoding="UTF-8" standalone="no"?>
<!-- Generator: Adobe Illustrator 15.1.0, SVG Export Plug-In . SVG Version: 6.00 Build 0)  -->

<svg
   xmlns:dc="http://purl.org/dc/elements/1.1/"
   xmlns:cc="http://creativecommons.org/ns#"
   xmlns:rdf="http://www.w3.org/1999/02/22-rdf-syntax-ns#"
   xmlns:svg="http://www.w3.org/2000/svg"
   xmlns="http://www.w3.org/2000/svg"
   xmlns:sodipodi="http://sodipodi.sourceforge.net/DTD/sodipodi-0.dtd"
   xmlns:inkscape="http://www.inkscape.org/namespaces/inkscape"
   version="1.1"
   id="Layer_1"
   x="0px"
   y="0px"
   width="255.88596"
   height="252"
   viewBox="0 0 255.88596 252"
   enable-background="new 0 0 68.504 68"
   xml:space="preserve"
   sodipodi:docname="FC_Arsenal_Tula_Logo.svg"
   inkscape:version="0.92.4 (5da689c313, 2019-01-14)"><metadata
   id="metadata217"><rdf:RDF><cc:Work
       rdf:about=""><dc:format>image/svg+xml</dc:format><dc:type
         rdf:resource="http://purl.org/dc/dcmitype/StillImage" /><dc:title></dc:title></cc:Work></rdf:RDF></metadata><defs
   id="defs215" /><sodipodi:namedview
   pagecolor="#ffffff"
   bordercolor="#666666"
   borderopacity="1"
   objecttolerance="10"
   gridtolerance="10"
   guidetolerance="10"
   inkscape:pageopacity="0"
   inkscape:pageshadow="2"
   inkscape:window-width="1366"
   inkscape:window-height="705"
   id="namedview213"
   showgrid="false"
   fit-margin-top="1"
   fit-margin-right="1"
   fit-margin-bottom="1"
   fit-margin-left="1"
   inkscape:zoom="3.4705882"
   inkscape:cx="35.306892"
   inkscape:cy="58.42666"
   inkscape:window-x="-8"
   inkscape:window-y="-8"
   inkscape:window-maximized="1"
   inkscape:current-layer="Layer_1" />
<g
   id="g210"
   transform="matrix(3.6915174,0,0,3.6915174,1.4346762,0.64561433)">
	<path
   d="M 34.728,12.241 C 28.911,12.335 23.761,9.122 19.612,5.32 L 19.336,5.067 18.973,4.99 C 18.159,4.816 17.345,4.637 16.531,4.458 14.25,3.955 11.969,3.452 9.662,3.079 9.008,2.973 8.357,3.077 7.808,3.458 7.269,3.83 6.935,4.394 6.776,5.021 6.35,6.698 5.941,8.378 5.531,10.06 l -0.103,0.42 c -0.129,0.529 -0.169,1.083 -0.021,1.613 0.182,0.649 0.606,1.146 1.204,1.457 0.236,0.122 0.48,0.224 0.726,0.326 0.226,0.094 0.544,0.215 0.735,0.369 0.096,0.078 0.159,0.212 0.188,0.329 0.052,0.208 0.025,0.433 -0.035,0.636 -0.984,3.322 -1.813,6.695 -2.417,10.107 -0.6,3.379 -0.98,6.803 -1.064,10.235 -0.006,0.256 -0.01,0.512 -0.011,0.767 -0.043,7.998 2.324,15.794 7.997,21.607 5.507,5.641 13.002,8.246 20.784,8.435 0.24,0.005 0.479,0.009 0.72,0.011 0.226,0 0.451,0 0.677,-0.003 7.601,-0.1 15.037,-2.605 20.595,-7.896 6.091,-5.798 8.692,-13.72 8.737,-21.997 0.002,-0.256 0.001,-0.511 -0.003,-0.766 -0.041,-3.147 -0.325,-6.284 -0.832,-9.389 -0.512,-3.134 -1.247,-6.228 -2.167,-9.265 l -0.229,-0.758 h -10e-4 c -0.197,-0.685 -0.405,-1.575 -0.226,-1.955 0.091,-0.191 0.33,-0.304 0.516,-0.374 0.891,-0.334 1.793,-0.667 2.187,-1.615 C 63.855,11.469 63.536,10.401 63.3,9.517 63.117,8.742 62.927,7.969 62.736,7.195 62.584,6.572 62.429,5.949 62.281,5.326 62.044,4.335 61.572,3.512 60.554,3.191 59.783,2.947 58.899,3.109 58.12,3.247 56.384,3.556 54.663,3.951 52.944,4.345 51.9,4.584 50.855,4.824 49.807,5.044 L 49.436,5.121 49.157,5.38 c -3.969,3.678 -8.856,6.771 -14.429,6.861 z"
   id="path2"
   inkscape:connector-curvature="0"
   style="clip-rule:evenodd;fill:#fbe116;fill-rule:evenodd" />
	<path
   d="M 7.104,12.604 C 6.742,12.416 6.529,12.146 6.434,11.806 6.347,11.494 6.367,11.134 6.464,10.734 L 6.566,10.313 C 6.982,8.607 7.4,6.894 7.809,5.284 7.906,4.9 8.097,4.554 8.414,4.334 8.687,4.146 9.041,4.058 9.492,4.13 c 2.296,0.371 4.548,0.868 6.809,1.368 0.771,0.17 1.542,0.34 2.45,0.534 l 0.08,0.017 0.062,0.057 c 5.43,4.976 10.707,7.284 15.853,7.201 5.146,-0.083 10.186,-2.557 15.137,-7.144 l 0.063,-0.058 0.081,-0.017 c 1.044,-0.219 2.102,-0.461 3.157,-0.704 1.72,-0.393 3.439,-0.788 5.124,-1.086 0.86,-0.153 1.459,-0.237 1.927,-0.09 0.518,0.164 0.817,0.563 1.01,1.367 0.127,0.531 0.292,1.202 0.458,1.876 0.196,0.798 0.394,1.599 0.565,2.327 0.299,1.119 0.426,1.714 0.237,2.168 -0.2,0.481 -0.674,0.687 -1.576,1.025 -1.83,0.687 -1.329,2.338 -0.723,4.341 l 0.016,0.052 h 10e-4 c 0.918,3.028 1.636,6.068 2.135,9.128 0.499,3.056 0.778,6.13 0.819,9.231 0.003,0.249 0.004,0.498 0.003,0.746 -0.05,9.185 -3.271,16.342 -8.407,21.23 -5.134,4.888 -12.178,7.502 -19.874,7.603 -0.218,0.003 -0.437,0.004 -0.657,0.003 C 34.006,65.303 33.773,65.3 33.544,65.294 25.357,65.096 18.398,62.202 13.497,57.181 8.593,52.161 5.752,45.02 5.8,36.324 5.801,36.073 5.804,35.824 5.811,35.577 5.892,32.225 6.263,28.857 6.858,25.503 7.453,22.151 8.272,18.808 9.249,15.511 9.382,15.06 9.381,14.656 9.296,14.315 9.198,13.921 8.987,13.613 8.744,13.416 8.46,13.187 8.103,13.039 7.745,12.891 7.528,12.801 7.311,12.711 7.104,12.604 Z"
   id="path4"
   inkscape:connector-curvature="0"
   style="clip-rule:evenodd;fill:#fecc05;fill-rule:evenodd" />
	<path
   d="m 64.702,9.164 c 0.334,1.248 0.644,2.486 0.122,3.745 -0.516,1.242 -1.471,1.8 -2.608,2.257 0.046,0.229 0.114,0.48 0.162,0.651 l 0.248,0.818 c 0.939,3.099 1.688,6.255 2.21,9.452 0.519,3.174 0.81,6.386 0.852,9.603 0.003,0.265 0.005,0.528 0.003,0.793 -0.048,8.674 -2.808,16.964 -9.187,23.037 -5.826,5.545 -13.609,8.19 -21.574,8.296 -0.234,0.002 -0.469,0.004 -0.703,0.002 C 33.977,67.817 33.729,67.813 33.48,67.807 25.319,67.61 17.469,64.851 11.695,58.937 5.753,52.85 3.241,44.693 3.287,36.311 3.288,36.046 3.292,35.782 3.299,35.517 3.383,32.011 3.772,28.516 4.384,25.065 4.975,21.732 5.775,18.438 6.724,15.189 6.46,15.08 6.199,14.966 5.945,14.835 4.992,14.34 4.305,13.522 4.014,12.485 3.798,11.714 3.834,10.911 4.022,10.139 L 4.125,9.718 C 4.536,8.033 4.946,6.348 5.373,4.667 5.619,3.697 6.156,2.84 6.984,2.268 7.839,1.676 8.872,1.485 9.892,1.65 c 2.334,0.376 4.643,0.884 6.951,1.394 0.81,0.178 1.62,0.357 2.431,0.53 l 0.749,0.16 0.567,0.52 c 3.856,3.534 8.697,6.628 14.114,6.541 5.19,-0.083 9.78,-3.056 13.469,-6.475 l 0.573,-0.531 0.764,-0.16 c 1.039,-0.218 2.074,-0.456 3.11,-0.693 1.742,-0.399 3.485,-0.799 5.246,-1.112 1.05,-0.187 2.073,-0.343 3.121,-0.012 1.522,0.479 2.342,1.684 2.698,3.179 0.148,0.621 0.302,1.24 0.455,1.859 0.19,0.771 0.381,1.541 0.562,2.314 z"
   id="path6"
   inkscape:connector-curvature="0"
   style="clip-rule:evenodd;fill:#151616;fill-rule:evenodd" />
	<path
   d="M 34.728,12.241 C 28.911,12.335 23.761,9.122 19.612,5.32 L 19.336,5.067 18.973,4.99 C 18.159,4.816 17.345,4.637 16.531,4.458 14.25,3.955 11.969,3.452 9.662,3.079 9.008,2.973 8.357,3.077 7.808,3.458 7.269,3.83 6.935,4.394 6.776,5.021 6.35,6.698 5.941,8.378 5.531,10.06 l -0.103,0.42 c -0.129,0.529 -0.169,1.083 -0.021,1.613 0.182,0.649 0.606,1.146 1.204,1.457 0.236,0.122 0.48,0.224 0.726,0.326 0.226,0.094 0.544,0.215 0.735,0.369 0.096,0.078 0.159,0.212 0.188,0.329 0.052,0.208 0.025,0.433 -0.035,0.636 -0.984,3.322 -1.813,6.695 -2.417,10.107 -0.6,3.379 -0.98,6.803 -1.064,10.235 -0.006,0.256 -0.01,0.512 -0.011,0.767 -0.043,7.998 2.324,15.794 7.997,21.607 5.507,5.641 13.002,8.246 20.784,8.435 0.24,0.005 0.479,0.009 0.72,0.011 0.226,0 0.451,0 0.677,-0.003 7.601,-0.1 15.037,-2.605 20.595,-7.896 6.091,-5.798 8.692,-13.72 8.737,-21.997 0.002,-0.256 0.001,-0.511 -0.003,-0.766 -0.041,-3.147 -0.325,-6.284 -0.832,-9.389 -0.512,-3.134 -1.247,-6.228 -2.167,-9.265 l -0.229,-0.758 h -10e-4 c -0.197,-0.685 -0.405,-1.575 -0.226,-1.955 0.091,-0.191 0.33,-0.304 0.516,-0.374 0.891,-0.334 1.793,-0.667 2.187,-1.615 C 63.855,11.469 63.536,10.401 63.3,9.517 63.117,8.742 62.927,7.969 62.736,7.195 62.584,6.572 62.429,5.949 62.281,5.326 62.044,4.335 61.572,3.512 60.554,3.191 59.783,2.947 58.899,3.109 58.12,3.247 56.384,3.556 54.663,3.951 52.944,4.345 51.9,4.584 50.855,4.824 49.807,5.044 L 49.436,5.121 49.157,5.38 c -3.969,3.678 -8.856,6.771 -14.429,6.861 z"
   id="path8"
   inkscape:connector-curvature="0"
   style="clip-rule:evenodd;fill:#fecc05;fill-rule:evenodd" />
	<path
   d="m 23.18,60.772 0.002,-1.32 0.791,0.242 -0.002,-3.677 -0.422,-0.202 c -0.143,-0.068 -0.208,-0.042 -0.244,0.011 -0.035,0.054 -0.026,0.178 -0.026,0.33 v 0.982 L 21.99,56.594 v -2.806 c 1.968,0.786 3.875,1.458 5.683,1.949 v 2.73 l -1.278,-0.303 v -0.685 c 0,-0.151 0.014,-0.579 -0.044,-0.637 -0.058,-0.058 -0.167,-0.145 -0.316,-0.197 l -0.272,-0.096 0.011,3.704 0.78,0.271 v 1.288 z"
   id="path10"
   inkscape:connector-curvature="0"
   style="fill:none;stroke:#cd5200;stroke-width:1.13380003" />
	<path
   d="M 6.858,25.503 C 7.453,22.151 8.272,18.808 9.248,15.511 9.382,15.06 9.381,14.656 9.296,14.315 9.198,13.921 8.987,13.613 8.744,13.416 8.46,13.187 8.103,13.039 7.745,12.891 7.528,12.801 7.31,12.711 7.104,12.603 6.742,12.415 6.529,12.145 6.434,11.805 6.347,11.493 6.367,11.133 6.464,10.733 L 6.566,10.312 C 6.982,8.607 7.4,6.894 7.809,5.284 7.906,4.9 8.097,4.554 8.414,4.334 8.687,4.146 9.041,4.058 9.492,4.13 c 2.296,0.371 4.548,0.868 6.809,1.368 0.771,0.17 1.542,0.34 2.45,0.534 l 0.08,0.017 0.062,0.057 c 5.43,4.976 10.707,7.284 15.853,7.201 5.146,-0.083 10.186,-2.557 15.137,-7.144 l 0.063,-0.058 0.081,-0.017 c 1.044,-0.219 2.102,-0.461 3.157,-0.704 1.72,-0.393 3.439,-0.788 5.124,-1.086 0.86,-0.153 1.459,-0.237 1.927,-0.09 0.518,0.164 0.817,0.563 1.01,1.367 0.127,0.531 0.292,1.202 0.458,1.876 0.196,0.798 0.394,1.599 0.565,2.327 0.299,1.119 0.426,1.714 0.237,2.168 -0.2,0.481 -0.674,0.687 -1.576,1.025 -1.83,0.687 -1.329,2.338 -0.723,4.341 l 0.016,0.052 h 10e-4 c 0.918,3.028 1.636,6.068 2.135,9.128 0.499,3.056 0.778,6.13 0.819,9.231 0.003,0.249 0.004,0.498 0.003,0.746 -0.05,9.185 -3.271,16.342 -8.407,21.23 -5.134,4.888 -12.178,7.502 -19.874,7.603 -0.218,0.003 -0.437,0.004 -0.657,0.003 C 34.006,65.303 33.773,65.3 33.544,65.294 25.357,65.096 18.398,62.202 13.497,57.181 8.593,52.161 5.752,45.02 5.8,36.324 c 0.001,-0.251 0.004,-0.5 0.011,-0.747 0.081,-3.351 0.452,-6.72 1.047,-10.074 z"
   id="path12"
   inkscape:connector-curvature="0"
   style="clip-rule:evenodd;fill:#fbe116;fill-rule:evenodd" />
	<path
   d="M 39.775,55.978 V 57.2 l -0.44,0.103 0.003,3.619 0.424,-0.072 -10e-4,1.292 c -0.754,0.129 -1.474,0.185 -2.232,0.248 l 0.013,-4.96 -0.035,10e-4 -1.547,5.051 -2.338,-0.003 v -1.181 l 0.742,-0.003 c 0.188,-0.001 0.311,-0.188 0.351,-0.313 l 0.992,-3.053 c 0.044,-0.135 -0.116,-0.286 -0.257,-0.286 h -0.321 l 0.005,-1.282 c 1.557,-0.118 3.084,-0.235 4.641,-0.383 z"
   id="path14"
   inkscape:connector-curvature="0"
   style="clip-rule:evenodd;fill:#ee1b23;fill-rule:evenodd" />
	<path
   d="M 39.775,55.978 V 57.2 l -0.44,0.103 0.003,3.619 0.424,-0.072 -10e-4,1.292 c -0.754,0.129 -1.474,0.185 -2.232,0.248 l 0.013,-4.96 -0.035,10e-4 -1.547,5.051 -2.338,-0.003 v -1.181 l 0.742,-0.003 c 0.188,-0.001 0.311,-0.188 0.351,-0.313 l 0.992,-3.052 c 0.044,-0.136 -0.116,-0.287 -0.257,-0.287 h -0.321 l 0.005,-1.282 c 1.557,-0.118 3.084,-0.235 4.641,-0.383 z"
   id="path16"
   inkscape:connector-curvature="0"
   style="fill:none;stroke:#cd5200;stroke-width:1.13380003" />
	<path
   d="m 41.394,55.643 c 1.794,-0.532 3.171,-1.026 4.373,-1.506 l -0.004,1.371 -0.593,0.249 0.788,3.469 0.634,-0.212 -0.01,1.313 -2.229,0.8 -0.173,-1.537 -1.222,0.4 -0.168,1.539 -2.148,0.474 V 60.78 l 0.623,-0.191 0.654,-3.553 c 0.017,-0.089 -0.051,-0.203 -0.166,-0.177 l -0.36,0.086 v -1.302 z m 2.104,0.628 -0.409,2.685 0.932,-0.313 -0.36,-2.43 z"
   id="path18"
   inkscape:connector-curvature="0"
   style="clip-rule:evenodd;fill:#ee1b23;fill-rule:evenodd" />
	<path
   d="m 41.394,55.643 c 1.794,-0.532 3.171,-1.026 4.373,-1.506 l -0.004,1.372 -0.593,0.248 0.788,3.469 0.634,-0.212 -0.01,1.313 -2.229,0.8 -0.173,-1.537 -1.222,0.4 -0.168,1.539 -2.148,0.474 V 60.78 l 0.623,-0.191 0.654,-3.553 c 0.017,-0.089 -0.051,-0.203 -0.166,-0.177 l -0.36,0.086 v -1.302 z m 2.104,0.628 -0.409,2.685 0.932,-0.313 -0.36,-2.43 z"
   id="path20"
   inkscape:connector-curvature="0"
   style="fill:none;stroke:#cd5200;stroke-width:1.13380003" />
	<path
   d="m 28.561,55.945 c 0.678,0.095 1.342,0.174 1.993,0.236 l 0.675,2.233 0.775,-2.062 c 0.645,0.021 1.278,0.014 1.905,-0.008 v 1.285 l -0.434,-10e-4 c -0.112,0 -0.204,0.043 -0.261,0.205 L 31.61,62.379 C 30.738,62.4 30.168,62.358 29.344,62.252 v -1.333 c 0.191,0.037 0.606,0.12 0.807,0.12 0.141,0 0.18,-0.074 0.231,-0.17 0.033,-0.062 0.102,-0.25 0.046,-0.426 l -1.189,-3.005 c -0.035,-0.091 -0.111,-0.188 -0.212,-0.2 L 28.56,57.182 Z"
   id="path22"
   inkscape:connector-curvature="0"
   style="clip-rule:evenodd;fill:#ee1b23;fill-rule:evenodd" />
	<path
   d="m 28.561,55.945 c 0.678,0.095 1.342,0.174 1.993,0.236 l 0.675,2.233 0.775,-2.062 c 0.645,0.021 1.278,0.014 1.905,-0.008 v 1.285 l -0.434,-10e-4 c -0.112,0 -0.204,0.043 -0.261,0.205 L 31.61,62.379 C 30.738,62.4 30.168,62.358 29.344,62.252 v -1.333 c 0.191,0.037 0.606,0.12 0.807,0.12 0.141,0 0.18,-0.074 0.231,-0.17 0.033,-0.062 0.102,-0.25 0.046,-0.426 l -1.189,-3.005 c -0.035,-0.091 -0.111,-0.188 -0.212,-0.2 L 28.56,57.182 Z"
   id="path24"
   inkscape:connector-curvature="0"
   style="fill:none;stroke:#cd5200;stroke-width:1.13380003" />
	<path
   d="m 17.95,54.919 c -1.039,0 -1.882,-0.843 -1.882,-1.883 0,-1.677 2.027,-2.517 3.213,-1.33 1.186,1.186 0.346,3.213 -1.331,3.213 z m 0,-0.865 c -0.562,0 -1.018,-0.455 -1.018,-1.018 0,-0.906 1.096,-1.36 1.737,-0.72 0.642,0.642 0.188,1.738 -0.719,1.738 z"
   id="path26"
   inkscape:connector-curvature="0"
   style="fill:none;stroke:#151616;stroke-width:0.4535" />
	<path
   d="m 17.95,52.019 c -0.562,0 -1.018,0.456 -1.018,1.018 0,0.563 0.456,1.018 1.018,1.018 0.563,0 1.018,-0.455 1.018,-1.018 0,-0.562 -0.455,-1.018 -1.018,-1.018 z"
   id="path28"
   inkscape:connector-curvature="0"
   style="clip-rule:evenodd;fill:#fecc05;fill-rule:evenodd" />
	<path
   d="m 16.933,53.036 c 0,-0.562 0.456,-1.018 1.018,-1.018 0.563,0 1.018,0.456 1.018,1.018 0,0.563 -0.455,1.018 -1.018,1.018 -0.563,0 -1.018,-0.455 -1.018,-1.018 z m 2.9,0 c 0,-1.039 -0.843,-1.882 -1.883,-1.882 -1.039,0 -1.882,0.843 -1.882,1.882 0,1.04 0.843,1.883 1.882,1.883 1.04,0 1.883,-0.843 1.883,-1.883 z"
   id="path30"
   inkscape:connector-curvature="0"
   style="clip-rule:evenodd;fill:#151616;fill-rule:evenodd" />
	<path
   d="m 23.18,60.772 3.373,1.043 v -1.288 l -0.78,-0.271 -0.011,-3.704 0.272,0.096 c 0.148,0.053 0.258,0.14 0.316,0.197 0.058,0.057 0.044,0.485 0.044,0.637 v 0.685 l 1.278,0.303 v -2.73 c -1.808,-0.491 -3.714,-1.163 -5.683,-1.949 v 2.806 l 1.289,0.544 v -0.982 c 0,-0.152 -0.009,-0.276 0.026,-0.33 0.036,-0.053 0.101,-0.079 0.244,-0.011 l 0.422,0.202 0.002,3.677 -0.791,-0.242 z"
   id="path32"
   inkscape:connector-curvature="0"
   style="clip-rule:evenodd;fill:#ee1b23;fill-rule:evenodd" />
	<path
   d="m 23.18,60.772 3.373,1.043 v -1.288 l -0.78,-0.271 -0.011,-3.704 0.272,0.096 c 0.148,0.053 0.258,0.14 0.316,0.197 0.058,0.057 0.044,0.485 0.044,0.637 v 0.685 l 1.278,0.303 v -2.73 c -1.808,-0.491 -3.714,-1.163 -5.683,-1.949 v 2.806 l 1.289,0.544 v -0.982 c 0,-0.152 -0.009,-0.276 0.026,-0.33 0.036,-0.053 0.101,-0.079 0.244,-0.011 l 0.422,0.202 0.002,3.677 -0.791,-0.242 z"
   id="path34"
   inkscape:connector-curvature="0"
   style="fill:none;stroke:#cd5200;stroke-width:1.13380003" />
	<path
   d="m 50.832,54.919 c -1.039,0 -1.882,-0.843 -1.882,-1.883 0,-1.677 2.027,-2.517 3.213,-1.331 1.186,1.186 0.346,3.214 -1.331,3.214 z m 0,-0.865 c -0.562,0 -1.018,-0.455 -1.018,-1.018 0,-0.906 1.096,-1.36 1.737,-0.72 0.641,0.642 0.187,1.738 -0.719,1.738 z"
   id="path36"
   inkscape:connector-curvature="0"
   style="fill:none;stroke:#151616;stroke-width:0.4535" />
	<path
   d="m 50.832,52.019 c -0.562,0 -1.018,0.456 -1.018,1.018 0,0.563 0.456,1.018 1.018,1.018 0.562,0 1.018,-0.455 1.018,-1.018 0,-0.562 -0.456,-1.018 -1.018,-1.018 z"
   id="path38"
   inkscape:connector-curvature="0"
   style="clip-rule:evenodd;fill:#fecc05;fill-rule:evenodd" />
	<path
   d="m 49.814,53.036 c 0,-0.562 0.456,-1.018 1.018,-1.018 0.562,0 1.018,0.456 1.018,1.018 0,0.563 -0.456,1.018 -1.018,1.018 -0.562,0 -1.018,-0.455 -1.018,-1.018 z m 2.901,0 c 0,-1.039 -0.843,-1.882 -1.883,-1.882 -1.039,0 -1.882,0.843 -1.882,1.882 0,1.04 0.843,1.883 1.882,1.883 1.04,0 1.883,-0.843 1.883,-1.883 z"
   id="path40"
   inkscape:connector-curvature="0"
   style="clip-rule:evenodd;fill:#151616;fill-rule:evenodd" />
	<path
   d="m 12.511,40.754 c -1.041,0 -1.882,-0.843 -1.882,-1.882 0,-1.678 2.027,-2.517 3.213,-1.331 1.185,1.186 0.346,3.213 -1.331,3.213 z m 0,-0.864 c -0.562,0 -1.018,-0.456 -1.018,-1.018 0,-0.906 1.096,-1.36 1.737,-0.72 0.641,0.642 0.187,1.738 -0.719,1.738 z"
   id="path42"
   inkscape:connector-curvature="0"
   style="fill:none;stroke:#151616;stroke-width:0.4535" />
	<path
   d="m 12.511,37.854 c -0.562,0 -1.018,0.455 -1.018,1.018 0,0.562 0.456,1.018 1.018,1.018 0.562,0 1.017,-0.456 1.017,-1.018 0,-0.562 -0.456,-1.018 -1.017,-1.018 z"
   id="path44"
   inkscape:connector-curvature="0"
   style="clip-rule:evenodd;fill:#fecc05;fill-rule:evenodd" />
	<path
   d="m 11.493,38.872 c 0,-0.563 0.456,-1.018 1.018,-1.018 0.562,0 1.017,0.455 1.017,1.018 0,0.562 -0.456,1.018 -1.017,1.018 -0.562,0 -1.018,-0.456 -1.018,-1.018 z m 2.9,0 c 0,-1.04 -0.843,-1.883 -1.882,-1.883 -1.041,0 -1.882,0.843 -1.882,1.883 0,1.039 0.842,1.882 1.882,1.882 1.039,0 1.882,-0.843 1.882,-1.882 z"
   id="path46"
   inkscape:connector-curvature="0"
   style="clip-rule:evenodd;fill:#151616;fill-rule:evenodd" />
	<path
   d="m 56.327,40.776 c -1.04,0 -1.883,-0.843 -1.883,-1.882 0,-1.678 2.028,-2.517 3.214,-1.331 1.186,1.186 0.346,3.213 -1.331,3.213 z m 0,-0.864 c -0.563,0 -1.018,-0.456 -1.018,-1.018 0,-0.907 1.096,-1.36 1.737,-0.72 0.642,0.642 0.187,1.738 -0.719,1.738 z"
   id="path48"
   inkscape:connector-curvature="0"
   style="fill:none;stroke:#151616;stroke-width:0.4535" />
	<path
   d="m 56.327,37.877 c -0.563,0 -1.018,0.455 -1.018,1.018 0,0.562 0.455,1.018 1.018,1.018 0.562,0 1.018,-0.456 1.018,-1.018 0,-0.563 -0.456,-1.018 -1.018,-1.018 z"
   id="path50"
   inkscape:connector-curvature="0"
   style="clip-rule:evenodd;fill:#fecc05;fill-rule:evenodd" />
	<path
   d="m 55.31,38.895 c 0,-0.563 0.455,-1.018 1.018,-1.018 0.562,0 1.018,0.455 1.018,1.018 0,0.562 -0.456,1.018 -1.018,1.018 -0.563,-10e-4 -1.018,-0.457 -1.018,-1.018 z m 2.899,0 c 0,-1.04 -0.843,-1.883 -1.882,-1.883 -1.04,0 -1.883,0.843 -1.883,1.883 0,1.039 0.843,1.882 1.883,1.882 1.039,-10e-4 1.882,-0.843 1.882,-1.882 z"
   id="path52"
   inkscape:connector-curvature="0"
   style="clip-rule:evenodd;fill:#151616;fill-rule:evenodd" />
	<path
   d="m 55.617,11.794 c -1.039,0 -1.882,-0.843 -1.882,-1.882 0,-1.677 2.027,-2.517 3.214,-1.331 1.185,1.186 0.346,3.213 -1.332,3.213 z m 0,-0.864 c -0.562,0 -1.017,-0.456 -1.017,-1.018 0,-0.907 1.096,-1.36 1.736,-0.72 0.642,0.642 0.187,1.738 -0.719,1.738 z"
   id="path54"
   inkscape:connector-curvature="0"
   style="fill:none;stroke:#151616;stroke-width:0.4535" />
	<path
   d="m 55.617,8.895 c -0.562,0 -1.017,0.456 -1.017,1.018 0,0.562 0.455,1.018 1.017,1.018 0.563,0 1.019,-0.456 1.019,-1.018 0,-0.562 -0.456,-1.018 -1.019,-1.018 z"
   id="path56"
   inkscape:connector-curvature="0"
   style="clip-rule:evenodd;fill:#fecc05;fill-rule:evenodd" />
	<path
   d="m 54.601,9.912 c 0,-0.562 0.455,-1.018 1.017,-1.018 0.563,0 1.019,0.456 1.019,1.018 0,0.562 -0.456,1.018 -1.019,1.018 -0.562,0 -1.017,-0.456 -1.017,-1.018 z m 2.899,0 c 0,-1.04 -0.843,-1.882 -1.883,-1.882 -1.039,0 -1.882,0.843 -1.882,1.882 0,1.039 0.843,1.882 1.882,1.882 1.04,0 1.883,-0.842 1.883,-1.882 z"
   id="path58"
   inkscape:connector-curvature="0"
   style="clip-rule:evenodd;fill:#151616;fill-rule:evenodd" />
	<path
   d="m 13.06,11.72 c -1.04,0 -1.882,-0.843 -1.882,-1.882 0,-1.677 2.027,-2.517 3.213,-1.331 1.185,1.186 0.346,3.213 -1.331,3.213 z m 0,-0.864 c -0.562,0 -1.018,-0.456 -1.018,-1.018 0,-0.906 1.096,-1.36 1.737,-0.72 0.641,0.642 0.187,1.738 -0.719,1.738 z"
   id="path60"
   inkscape:connector-curvature="0"
   style="fill:none;stroke:#151616;stroke-width:0.4535" />
	<path
   d="m 13.06,8.821 c -0.562,0 -1.018,0.455 -1.018,1.017 0,0.562 0.456,1.018 1.018,1.018 0.562,0 1.018,-0.456 1.018,-1.018 0,-0.562 -0.456,-1.017 -1.018,-1.017 z"
   id="path62"
   inkscape:connector-curvature="0"
   style="clip-rule:evenodd;fill:#fecc05;fill-rule:evenodd" />
	<path
   d="m 12.042,9.838 c 0,-0.562 0.456,-1.017 1.018,-1.017 0.562,0 1.018,0.455 1.018,1.017 0,0.562 -0.456,1.018 -1.018,1.018 -0.562,0 -1.018,-0.456 -1.018,-1.018 z m 2.9,0 c 0,-1.04 -0.843,-1.882 -1.882,-1.882 -1.039,0 -1.882,0.843 -1.882,1.882 0,1.039 0.843,1.882 1.882,1.882 1.039,0 1.882,-0.843 1.882,-1.882 z"
   id="path64"
   inkscape:connector-curvature="0"
   style="clip-rule:evenodd;fill:#151616;fill-rule:evenodd" />
	<path
   d="M 18.544,6.61 C 17.83,6.458 16.999,6.274 16.169,6.09 13.919,5.593 11.679,5.098 9.395,4.73 9.115,4.685 8.907,4.731 8.758,4.834 8.578,4.959 8.463,5.18 8.399,5.431 7.96,7.16 7.558,8.811 7.157,10.455 l -0.103,0.421 c -0.074,0.302 -0.092,0.561 -0.034,0.766 0.049,0.176 0.164,0.319 0.362,0.422 0.191,0.099 0.393,0.183 0.594,0.266 0.401,0.166 0.803,0.333 1.15,0.613 0.337,0.273 0.627,0.694 0.759,1.225 0.11,0.438 0.112,0.951 -0.055,1.515 -0.969,3.271 -1.782,6.591 -2.373,9.924 -0.592,3.333 -0.96,6.673 -1.04,9.984 -0.006,0.249 -0.01,0.494 -0.012,0.735 -0.046,8.526 2.73,15.521 7.523,20.43 4.791,4.908 11.602,7.736 19.625,7.931 0.231,0.006 0.46,0.009 0.688,0.01 0.216,0.002 0.432,0 0.647,-0.002 7.543,-0.1 14.44,-2.656 19.462,-7.437 5.021,-4.779 8.17,-11.788 8.22,-20.793 10e-4,-0.243 0,-0.489 -0.004,-0.736 -0.04,-3.066 -0.316,-6.111 -0.812,-9.14 -0.493,-3.026 -1.206,-6.04 -2.118,-9.05 h 10e-4 l -0.016,-0.051 c -0.697,-2.302 -1.272,-4.199 1.092,-5.086 0.737,-0.276 1.12,-0.435 1.227,-0.689 0.116,-0.282 -0.002,-0.795 -0.266,-1.782 L 61.672,9.921 C 61.487,9.136 61.297,8.364 61.108,7.595 60.963,7 60.817,6.408 60.651,5.714 60.516,5.148 60.338,4.878 60.05,4.788 59.712,4.682 59.182,4.76 58.409,4.896 56.722,5.195 55.02,5.586 53.316,5.977 52.288,6.212 51.259,6.448 50.229,6.665 45.186,11.318 40.036,13.829 34.752,13.914 29.47,14 24.074,11.657 18.544,6.61 Z M 16.3,5.498 c 0.771,0.17 1.542,0.34 2.45,0.534 l 0.08,0.017 0.062,0.057 c 5.43,4.976 10.707,7.284 15.853,7.201 5.146,-0.083 10.186,-2.557 15.137,-7.144 l 0.063,-0.058 0.081,-0.017 c 1.044,-0.219 2.102,-0.461 3.157,-0.704 1.72,-0.393 3.439,-0.788 5.124,-1.086 0.86,-0.153 1.459,-0.237 1.927,-0.09 0.518,0.164 0.817,0.563 1.01,1.367 0.127,0.531 0.292,1.202 0.458,1.876 0.196,0.798 0.394,1.599 0.565,2.327 0.299,1.119 0.426,1.714 0.237,2.168 -0.2,0.481 -0.674,0.687 -1.576,1.025 -1.83,0.687 -1.329,2.338 -0.723,4.341 l 0.016,0.052 h 0.001 c 0.918,3.028 1.636,6.068 2.135,9.128 0.499,3.056 0.778,6.13 0.819,9.231 0.003,0.249 0.004,0.498 0.003,0.746 -0.05,9.185 -3.271,16.342 -8.407,21.23 -5.134,4.888 -12.178,7.502 -19.874,7.603 -0.218,0.003 -0.437,0.004 -0.657,0.003 C 34.005,65.303 33.772,65.3 33.543,65.294 25.356,65.096 18.397,62.202 13.496,57.181 8.593,52.161 5.752,45.02 5.8,36.324 5.801,36.073 5.804,35.824 5.811,35.577 5.892,32.225 6.263,28.857 6.858,25.503 7.453,22.151 8.272,18.808 9.249,15.511 9.382,15.06 9.381,14.656 9.296,14.315 9.198,13.921 8.987,13.613 8.744,13.416 8.46,13.187 8.103,13.039 7.745,12.891 7.528,12.801 7.31,12.711 7.104,12.603 6.742,12.415 6.529,12.145 6.434,11.805 6.347,11.493 6.367,11.133 6.464,10.733 L 6.566,10.312 C 6.982,8.607 7.4,6.894 7.809,5.284 7.907,4.9 8.097,4.554 8.414,4.334 8.687,4.146 9.041,4.058 9.492,4.13 11.788,4.501 14.04,4.998 16.3,5.498 Z"
   id="path66"
   inkscape:connector-curvature="0"
   style="clip-rule:evenodd;fill:#151616;fill-rule:evenodd" />
	<path
   d="M 18.544,6.61 C 17.83,6.458 16.999,6.274 16.169,6.09 13.919,5.593 11.679,5.098 9.395,4.73 9.115,4.685 8.907,4.731 8.758,4.834 8.578,4.959 8.463,5.18 8.399,5.431 7.96,7.16 7.558,8.811 7.157,10.455 l -0.103,0.421 c -0.074,0.302 -0.092,0.561 -0.034,0.766 0.049,0.176 0.164,0.319 0.362,0.422 0.191,0.099 0.393,0.183 0.594,0.266 0.401,0.166 0.803,0.333 1.15,0.613 0.337,0.273 0.627,0.694 0.759,1.225 0.11,0.438 0.112,0.951 -0.055,1.515 -0.969,3.271 -1.782,6.591 -2.373,9.924 -0.592,3.333 -0.96,6.673 -1.04,9.984 -0.006,0.249 -0.01,0.494 -0.012,0.735 -0.046,8.526 2.73,15.521 7.523,20.43 4.791,4.908 11.602,7.736 19.625,7.931 0.231,0.006 0.46,0.009 0.688,0.01 0.216,0.002 0.432,0 0.647,-0.002 7.543,-0.1 14.44,-2.656 19.462,-7.437 5.021,-4.779 8.17,-11.788 8.22,-20.793 10e-4,-0.243 0,-0.489 -0.004,-0.736 -0.04,-3.066 -0.316,-6.111 -0.812,-9.14 -0.493,-3.026 -1.206,-6.04 -2.118,-9.05 h 10e-4 l -0.016,-0.051 c -0.697,-2.302 -1.272,-4.199 1.092,-5.086 0.737,-0.276 1.12,-0.435 1.227,-0.689 0.116,-0.282 -0.002,-0.795 -0.266,-1.782 L 61.672,9.921 C 61.487,9.136 61.297,8.364 61.108,7.595 60.963,7 60.817,6.408 60.651,5.714 60.516,5.148 60.338,4.878 60.05,4.788 59.712,4.682 59.182,4.76 58.409,4.896 56.722,5.195 55.02,5.586 53.316,5.977 52.288,6.212 51.259,6.448 50.229,6.665 45.186,11.318 40.036,13.829 34.752,13.914 29.47,14 24.074,11.657 18.544,6.61 Z m -2.476,46.426 c 0,-1.039 0.843,-1.882 1.882,-1.882 1.04,0 1.883,0.843 1.883,1.882 0,1.04 -0.843,1.883 -1.883,1.883 -1.039,0 -1.882,-0.843 -1.882,-1.883 z m 5.922,0.753 c 1.968,0.786 3.875,1.458 5.683,1.949 v 2.73 L 26.395,58.165 V 57.48 c 0,-0.151 0.014,-0.579 -0.044,-0.637 -0.058,-0.058 -0.167,-0.145 -0.316,-0.197 l -0.272,-0.096 0.011,3.704 0.78,0.271 v 1.288 l -3.373,-1.043 0.002,-1.32 0.791,0.242 -0.002,-3.677 -0.422,-0.202 c -0.143,-0.068 -0.208,-0.042 -0.244,0.011 -0.035,0.054 -0.026,0.178 -0.026,0.33 v 0.982 l -1.289,-0.544 v -2.803 z m 6.571,2.156 c 0.678,0.095 1.342,0.174 1.993,0.236 l 0.675,2.233 0.775,-2.062 c 0.645,0.021 1.278,0.014 1.905,-0.008 v 1.285 l -0.434,-10e-4 c -0.112,0 -0.204,0.043 -0.261,0.205 L 31.61,62.379 C 30.738,62.4 30.168,62.358 29.344,62.252 v -1.333 c 0.191,0.037 0.606,0.12 0.807,0.12 0.141,0 0.18,-0.074 0.231,-0.17 0.033,-0.062 0.102,-0.25 0.046,-0.426 l -1.189,-3.005 c -0.035,-0.091 -0.111,-0.188 -0.212,-0.2 L 28.56,57.182 Z M 13.06,11.72 c -1.04,0 -1.882,-0.843 -1.882,-1.882 0,-1.039 0.843,-1.882 1.882,-1.882 1.039,0 1.882,0.843 1.882,1.882 0,1.039 -0.843,1.882 -1.882,1.882 z m 22.073,44.64 c 1.559,-0.117 3.085,-0.234 4.643,-0.383 v 1.222 l -0.44,0.103 0.003,3.619 0.424,-0.072 -10e-4,1.292 c -0.754,0.129 -1.474,0.185 -2.232,0.248 l 0.013,-4.96 -0.035,10e-4 -1.547,5.051 -2.338,-0.003 v -1.181 l 0.742,-0.003 c 0.188,-10e-4 0.311,-0.188 0.351,-0.313 l 0.992,-3.053 c 0.044,-0.135 -0.116,-0.286 -0.257,-0.286 H 35.13 Z m 6.261,-0.717 c 1.794,-0.532 3.171,-1.026 4.373,-1.506 l -0.004,1.371 -0.593,0.249 0.788,3.469 0.634,-0.212 -0.01,1.313 -2.229,0.8 -0.173,-1.537 -1.222,0.4 -0.168,1.539 -2.148,0.474 V 60.78 l 0.623,-0.191 0.654,-3.553 c 0.017,-0.089 -0.051,-0.203 -0.166,-0.177 l -0.36,0.086 v -1.302 z m 7.556,-2.607 c 0,-1.039 0.843,-1.882 1.882,-1.882 1.04,0 1.883,0.843 1.883,1.882 0,1.04 -0.843,1.883 -1.883,1.883 -1.039,0 -1.882,-0.843 -1.882,-1.883 z m 6.667,-41.242 c -1.039,0 -1.882,-0.843 -1.882,-1.882 0,-1.039 0.843,-1.882 1.882,-1.882 1.04,0 1.883,0.843 1.883,1.882 0,1.039 -0.843,1.882 -1.883,1.882 z M 10.628,38.872 c 0,-1.04 0.842,-1.883 1.882,-1.883 1.04,0 1.882,0.843 1.882,1.883 0,1.039 -0.843,1.882 -1.882,1.882 -1.04,0 -1.882,-0.843 -1.882,-1.882 z m 43.816,0.023 c 0,-1.04 0.843,-1.883 1.883,-1.883 1.039,0 1.882,0.843 1.882,1.883 0,1.039 -0.843,1.882 -1.882,1.882 -1.04,-10e-4 -1.883,-0.843 -1.883,-1.882 z"
   id="path68"
   inkscape:connector-curvature="0"
   style="clip-rule:evenodd;fill:#fecc05;fill-rule:evenodd" />
	<path
   d="m 50.773,0.096 c -2.61,0 -4.439,0.546 -5.606,2.36 1.065,-1.336 2.643,-1.727 4.476,-1.728 h 0.686 V 3.31 L 49.642,3.309 c -0.058,0 -0.197,0.005 -0.274,0.03 v 0.002 l 0.006,37.84 c 10e-4,4.09 -1.604,7.817 -5.854,8.919 -1.351,0.351 -2.695,0.731 -4.063,1.015 -2.011,0.418 -3.304,1.518 -4.492,3.13 L 34.418,55.057 34.394,55.02 33.83,54.199 C 33.009,52.869 31.772,51.845 30.237,51.463 28.599,51.055 27.001,50.495 25.359,50.106 20.763,49.014 19.48,45.124 19.471,40.79 L 19.39,3.3 C 19.308,3.275 19.173,3.268 19.115,3.268 h -0.683 l -0.01,-2.57 h 0.688 c 1.82,-0.001 3.435,0.418 4.511,1.738 -0.987,-1.689 -2.794,-2.339 -5.615,-2.339 -0.017,1.279 0.029,2.552 0.013,3.832 0.201,0.101 0.34,0.208 0.541,0.309 0,12.458 0.061,24.917 0,37.375 -0.022,4.522 1.889,7.502 5.505,8.87 2.315,0.876 5.569,1.68 7.075,2.453 1.493,0.767 2.69,1.813 3.307,3.299 0.558,-1.61 1.789,-2.66 3.477,-3.403 1.92,-0.844 3.952,-1.382 5.952,-2.011 4.859,-1.53 6.353,-5.043 6.342,-9.107 -0.035,-12.508 0,-25.018 0,-37.526 L 50.772,3.634 V 0.096 Z"
   id="path70"
   inkscape:connector-curvature="0"
   style="clip-rule:evenodd;fill:#151616;fill-rule:evenodd" />
	<path
   d="M 50.328,0.729 V 3.31 L 49.641,3.309 c -0.058,0 -0.197,0.005 -0.274,0.03 v 0.002 l 0.006,37.84 c 0.001,4.09 -1.604,7.817 -5.854,8.919 -1.351,0.351 -2.695,0.731 -4.063,1.015 -2.011,0.418 -3.304,1.518 -4.492,3.13 l -0.547,0.812 -0.588,-0.858 C 33.008,52.869 31.771,51.845 30.236,51.463 28.598,51.055 27,50.495 25.358,50.106 20.762,49.014 19.479,45.124 19.47,40.79 L 19.501,3.3 C 19.419,3.275 19.173,3.268 19.115,3.268 h -0.683 l -0.01,-2.57 h 0.688 c 1.82,-0.001 3.435,0.418 4.511,1.738 -0.987,-1.689 -2.794,-2.339 -5.615,-2.339 -0.017,1.279 0.029,2.552 0.013,3.832 0.201,0.101 0.34,0.208 0.541,0.309 0,12.458 0.061,24.917 0,37.375 -0.022,4.522 1.889,7.502 5.505,8.87 2.315,0.876 5.569,1.68 7.075,2.453 1.493,0.767 2.69,1.813 3.307,3.299 0.558,-1.61 1.789,-2.66 3.477,-3.403 1.92,-0.844 3.952,-1.382 5.952,-2.011 4.859,-1.53 6.353,-5.043 6.342,-9.107 -0.035,-12.508 0,-25.018 0,-37.526 L 50.772,3.634 V 0.096 c -2.61,0 -4.439,0.546 -5.606,2.36 1.065,-1.336 2.643,-1.727 4.476,-1.728 h 0.686 z"
   id="path72"
   inkscape:connector-curvature="0"
   style="clip-rule:evenodd;fill:#151616;fill-rule:evenodd" />
	<path
   d="M 56.875,47.37 C 55.69,45.597 50.558,43.013 49.451,42.595 L 14.413,29.398 c -0.209,-0.083 -0.265,0.03 -0.221,0.121 0.182,0.379 0.468,0.782 0.766,1.027 L 49.34,43.724 c 2.533,0.97 5.144,2.32 7.535,3.646 z"
   id="path74"
   inkscape:connector-curvature="0"
   style="clip-rule:evenodd;fill:#ffffff;fill-rule:evenodd" />
	<path
   d="m 57.813,48.129 c 0.078,0.03 0.183,-0.027 0.121,-0.101 -0.629,-0.831 -1.75,-2.052 -4.051,-3.436 -1.374,-0.827 -3.267,-1.833 -4.271,-2.216 L 13.606,28.655 c -0.127,-0.058 -0.314,-0.073 -0.322,0.091 -0.048,1.01 0.419,2.05 1.068,2.66 0.256,0.24 0.517,0.507 0.954,0.672 L 49.127,44.865 Z M 49.34,43.724 14.957,30.546 C 14.66,30.3 14.373,29.898 14.191,29.519 c -0.043,-0.091 0.012,-0.204 0.221,-0.121 l 35.039,13.197 c 1.106,0.418 6.239,3.002 7.424,4.775 -2.391,-1.326 -5.002,-2.676 -7.535,-3.646 z"
   id="path76"
   inkscape:connector-curvature="0"
   style="clip-rule:evenodd;fill:#a9a9ac;fill-rule:evenodd" />
	<path
   d="m 13.568,25.772 c 0.035,-0.123 0.025,-0.23 -0.097,-0.235 -0.178,-0.006 -0.352,0.021 -0.547,0.058 -0.087,0.017 -0.145,0.049 -0.196,0.144 L 8.869,32.74 8.154,34.724 c -0.055,0.152 -0.068,0.371 0.05,0.374 l 0.683,0.025 c 0.616,-0.733 1.191,-1.275 1.826,-1.89 0.122,-0.118 0.105,-0.221 0.005,-0.263 l -0.673,-0.224 2.467,-5.039 0.296,0.065 c 0.075,0.016 0.174,0.035 0.201,-0.061 z"
   id="path78"
   inkscape:connector-curvature="0"
   style="clip-rule:evenodd;fill:#a9a9ac;fill-rule:evenodd" />
	<path
   d="m 2.042,25.578 c 0.389,-0.397 0.83,-0.739 1.541,-0.61 0.114,0.03 0.193,-0.017 0.086,-0.151 -0.282,-0.416 -0.671,-0.632 -1.124,-0.564 -1.413,0.211 -2.052,1.81 -1.551,2.981 0.105,0.247 0.313,0.396 0.499,0.488 0.123,0.067 0.194,0.003 0.141,-0.13 C 1.332,26.828 1.49,26.14 2.042,25.578 Z"
   id="path80"
   inkscape:connector-curvature="0"
   style="clip-rule:evenodd;fill:#a9a9ac;fill-rule:evenodd" />
	<path
   d="m 12.513,27.708 -2.467,5.039 0.673,0.224 c 0.1,0.042 0.117,0.145 -0.005,0.263 -0.634,0.614 -1.21,1.156 -1.826,1.89 L 8.205,35.099 C 8.086,35.096 8.1,34.877 8.155,34.725 L 8.87,32.741 12.729,25.74 c 0.051,-0.095 0.109,-0.127 0.196,-0.144 0.195,-0.037 0.369,-0.064 0.547,-0.058 0.122,0.005 0.132,0.113 0.097,0.235 l -0.558,1.941 c -0.027,0.095 -0.126,0.077 -0.201,0.061 z m -2.356,0.477 c -1.082,-0.138 -1.965,0.405 -2.389,1.287 -0.069,0.144 -0.121,0.161 -0.182,0.03 -0.197,-0.428 0.069,-1.4 1.046,-1.816 -0.925,-0.046 -1.674,0.448 -2.044,1.221 -0.064,0.134 -0.113,0.149 -0.17,0.028 -0.188,-0.408 0.073,-1.342 1.028,-1.72 -0.923,-0.1 -1.675,0.37 -2.038,1.126 -0.06,0.125 -0.106,0.14 -0.158,0.026 -0.193,-0.419 0.124,-1.438 1.26,-1.693 0.51,-0.115 0.837,0.066 1.108,0.375 0.03,0.035 0.049,0.065 0.054,0.091 0.032,-0.008 0.065,-0.017 0.099,-0.024 0.548,-0.123 0.899,0.072 1.191,0.403 0.015,0.017 0.026,0.033 0.036,0.047 0.012,-0.003 0.023,-0.005 0.035,-0.008 0.585,-0.132 0.961,0.076 1.272,0.43 0.123,0.139 0.07,0.224 -0.148,0.197 z m -4,-1.447 C 5.284,26.627 4.571,27.065 4.23,27.776 4.175,27.891 4.132,27.905 4.084,27.8 3.905,27.412 4.198,26.468 5.25,26.232 c 0.472,-0.105 0.775,0.062 1.026,0.348 0.099,0.112 0.057,0.18 -0.119,0.158 z M 4.823,26.255 C 4.02,26.153 3.364,26.556 3.051,27.21 3,27.316 2.96,27.33 2.916,27.233 2.752,26.876 3.021,26.007 3.989,25.79 c 0.435,-0.098 0.714,0.056 0.944,0.319 0.091,0.104 0.052,0.167 -0.11,0.146 z M 3.583,24.968 C 2.872,24.839 2.431,25.18 2.042,25.578 1.49,26.14 1.332,26.828 1.634,27.593 1.687,27.727 1.616,27.791 1.493,27.723 1.306,27.63 1.099,27.481 0.994,27.235 c -0.501,-1.171 0.138,-2.77 1.551,-2.981 0.452,-0.068 0.842,0.148 1.124,0.564 0.107,0.133 0.028,0.18 -0.086,0.15 z m 10.77,6.438 c -0.649,-0.609 -1.116,-1.65 -1.068,-2.66 0.008,-0.165 0.195,-0.149 0.322,-0.091 l 36.005,13.722 c 1.005,0.383 2.897,1.389 4.271,2.216 2.301,1.384 3.422,2.604 4.051,3.436 0.062,0.073 -0.043,0.131 -0.121,0.101 L 49.128,44.866 15.307,32.079 C 14.87,31.913 14.609,31.646 14.353,31.406 Z m -6.824,4.178 h 1.653 l 2.156,-2.257 37.898,14.185 c 4.641,1.571 9.211,2.176 9.752,1.088 0.43,-1.128 -2.747,-3.93 -8.684,-6.589 L 13.574,28.21 14.338,25.026 13.09,24.905 12.243,25.157 10.311,27.642 4.326,25.126 C 4.19,24.339 3.707,23.717 2.633,23.705 1.51,23.693 0.109,24.851 0.109,26.678 c 0,1.467 0.956,2.073 1.697,2.097 0.396,0.013 0.764,-0.201 1.094,-0.411 l 5.254,3.289 -0.947,3.184 z"
   id="path82"
   inkscape:connector-curvature="0"
   style="clip-rule:evenodd;fill:#151616;fill-rule:evenodd" />
	<g
   id="g86">
		<path
   d="m 12.513,27.708 -2.467,5.039 0.673,0.224 c 0.1,0.042 0.117,0.145 -0.005,0.263 -0.634,0.614 -1.21,1.156 -1.826,1.89 L 8.205,35.099 C 8.086,35.096 8.1,34.877 8.155,34.725 L 8.87,32.741 12.729,25.74 c 0.051,-0.095 0.109,-0.127 0.196,-0.144 0.195,-0.037 0.369,-0.064 0.547,-0.058 0.122,0.005 0.132,0.113 0.097,0.235 l -0.558,1.941 c -0.027,0.095 -0.126,0.077 -0.201,0.061 z m -2.356,0.477 C 9.075,28.047 8.192,28.59 7.768,29.472 7.699,29.616 7.647,29.633 7.586,29.502 7.389,29.074 7.655,28.102 8.632,27.686 7.707,27.641 6.958,28.135 6.588,28.908 6.524,29.042 6.475,29.057 6.418,28.936 6.23,28.528 6.491,27.594 7.446,27.217 6.523,27.116 5.771,27.587 5.408,28.343 5.348,28.468 5.302,28.483 5.25,28.369 5.057,27.95 5.374,26.931 6.51,26.676 c 0.51,-0.115 0.837,0.066 1.108,0.375 0.03,0.034 0.049,0.065 0.054,0.091 0.032,-0.008 0.065,-0.017 0.099,-0.024 0.548,-0.123 0.899,0.072 1.191,0.403 0.015,0.017 0.026,0.033 0.036,0.047 0.012,-0.003 0.023,-0.005 0.035,-0.008 0.585,-0.132 0.961,0.076 1.272,0.43 0.123,0.137 0.07,0.222 -0.148,0.195 z m -4,-1.447 C 5.284,26.627 4.571,27.065 4.23,27.776 4.175,27.891 4.132,27.905 4.084,27.8 3.905,27.411 4.198,26.467 5.25,26.232 c 0.472,-0.105 0.775,0.062 1.026,0.348 0.099,0.111 0.057,0.18 -0.119,0.158 z M 4.823,26.255 C 4.02,26.153 3.364,26.556 3.051,27.21 3,27.317 2.96,27.33 2.916,27.233 2.752,26.876 3.021,26.007 3.989,25.79 c 0.435,-0.098 0.714,0.057 0.944,0.319 0.091,0.104 0.052,0.167 -0.11,0.146 z M 3.583,24.968 C 2.872,24.839 2.431,25.18 2.042,25.578 1.49,26.14 1.332,26.828 1.634,27.593 1.687,27.727 1.616,27.79 1.493,27.723 1.306,27.63 1.099,27.481 0.994,27.235 c -0.501,-1.171 0.138,-2.77 1.551,-2.981 0.452,-0.068 0.842,0.148 1.124,0.564 0.107,0.133 0.028,0.18 -0.086,0.15 z m 10.77,6.438 c -0.649,-0.609 -1.116,-1.649 -1.068,-2.659 0.008,-0.165 0.195,-0.149 0.322,-0.091 l 36.005,13.722 c 1.005,0.383 2.897,1.389 4.271,2.216 2.301,1.384 3.422,2.604 4.051,3.436 0.062,0.073 -0.043,0.131 -0.121,0.101 L 49.128,44.867 15.307,32.078 C 14.87,31.913 14.609,31.647 14.353,31.406 Z m -6.824,4.178 h 1.653 l 2.156,-2.257 37.898,14.185 c 4.641,1.571 9.211,2.176 9.752,1.088 0.43,-1.128 -2.747,-3.93 -8.684,-6.589 L 13.574,28.21 14.338,25.026 13.09,24.905 12.243,25.157 10.311,27.642 4.326,25.126 C 4.19,24.339 3.707,23.717 2.633,23.705 1.51,23.693 0.109,24.851 0.109,26.678 c 0,1.467 0.956,2.073 1.697,2.097 0.396,0.013 0.764,-0.201 1.094,-0.411 l 5.254,3.29 -0.947,3.183 z"
   id="path84"
   inkscape:connector-curvature="0"
   style="fill:none;stroke:#151616;stroke-width:0.4535" />
	</g>
	<path
   d="m 11.666,47.37 c 1.186,-1.773 6.317,-4.357 7.425,-4.775 L 54.129,29.398 c 0.21,-0.083 0.265,0.03 0.222,0.121 -0.182,0.379 -0.469,0.782 -0.766,1.027 L 19.201,43.724 c -2.534,0.97 -5.144,2.32 -7.535,3.646 z"
   id="path88"
   inkscape:connector-curvature="0"
   style="clip-rule:evenodd;fill:#ffffff;fill-rule:evenodd" />
	<path
   d="m 10.729,48.129 c -0.078,0.03 -0.183,-0.027 -0.121,-0.101 0.629,-0.831 1.75,-2.052 4.05,-3.436 1.374,-0.827 3.267,-1.833 4.271,-2.216 L 54.934,28.654 c 0.128,-0.058 0.315,-0.073 0.323,0.091 0.048,1.01 -0.42,2.05 -1.068,2.66 -0.256,0.24 -0.518,0.507 -0.954,0.672 L 19.413,44.865 Z m 8.472,-4.405 34.383,-13.177 c 0.297,-0.246 0.584,-0.648 0.766,-1.027 0.043,-0.091 -0.012,-0.204 -0.222,-0.121 L 19.09,42.595 c -1.108,0.418 -6.239,3.002 -7.425,4.775 2.392,-1.326 5.002,-2.676 7.536,-3.646 z"
   id="path90"
   inkscape:connector-curvature="0"
   style="clip-rule:evenodd;fill:#a9a9ac;fill-rule:evenodd" />
	<path
   d="m 54.974,25.772 c -0.036,-0.123 -0.025,-0.23 0.097,-0.235 0.178,-0.006 0.352,0.021 0.547,0.058 0.088,0.017 0.144,0.049 0.196,0.144 l 3.857,7.001 0.716,1.984 c 0.055,0.152 0.068,0.371 -0.051,0.374 l -0.682,0.025 C 59.038,34.39 58.463,33.848 57.828,33.233 57.706,33.115 57.723,33.012 57.823,32.97 l 0.672,-0.224 -2.467,-5.039 -0.296,0.065 c -0.076,0.016 -0.174,0.035 -0.201,-0.061 z"
   id="path92"
   inkscape:connector-curvature="0"
   style="clip-rule:evenodd;fill:#a9a9ac;fill-rule:evenodd" />
	<path
   d="m 66.499,25.578 c -0.39,-0.397 -0.83,-0.739 -1.541,-0.61 -0.114,0.03 -0.193,-0.017 -0.086,-0.151 0.282,-0.416 0.671,-0.632 1.123,-0.564 1.414,0.211 2.052,1.81 1.552,2.981 -0.105,0.247 -0.313,0.396 -0.498,0.488 -0.123,0.067 -0.194,0.003 -0.142,-0.13 0.301,-0.764 0.144,-1.452 -0.408,-2.014 z"
   id="path94"
   inkscape:connector-curvature="0"
   style="clip-rule:evenodd;fill:#a9a9ac;fill-rule:evenodd" />
	<path
   d="m 56.028,27.708 2.467,5.039 -0.672,0.224 c -0.101,0.042 -0.117,0.145 0.005,0.263 0.635,0.614 1.21,1.156 1.826,1.89 l 0.682,-0.025 c 0.119,-0.003 0.105,-0.222 0.051,-0.374 L 59.671,32.741 55.814,25.74 c -0.053,-0.095 -0.108,-0.127 -0.196,-0.144 -0.195,-0.037 -0.369,-0.064 -0.547,-0.058 -0.122,0.005 -0.133,0.113 -0.097,0.235 l 0.558,1.941 c 0.027,0.095 0.125,0.077 0.201,0.061 z m 2.356,0.477 c 1.082,-0.138 1.966,0.405 2.39,1.287 0.068,0.144 0.121,0.161 0.181,0.03 0.197,-0.428 -0.068,-1.4 -1.046,-1.816 0.925,-0.046 1.674,0.448 2.044,1.221 0.064,0.134 0.113,0.149 0.169,0.028 0.188,-0.408 -0.072,-1.342 -1.026,-1.72 0.923,-0.1 1.674,0.37 2.037,1.126 0.06,0.125 0.105,0.14 0.158,0.026 0.192,-0.419 -0.124,-1.438 -1.26,-1.693 -0.51,-0.115 -0.837,0.066 -1.108,0.375 -0.03,0.035 -0.049,0.065 -0.055,0.091 -0.031,-0.008 -0.064,-0.017 -0.098,-0.024 -0.548,-0.123 -0.899,0.072 -1.19,0.403 -0.015,0.017 -0.027,0.033 -0.036,0.047 -0.012,-0.003 -0.023,-0.005 -0.034,-0.008 -0.586,-0.132 -0.962,0.076 -1.273,0.43 -0.124,0.139 -0.071,0.224 0.147,0.197 z m 4.001,-1.447 c 0.872,-0.111 1.585,0.327 1.926,1.038 0.056,0.115 0.099,0.129 0.146,0.024 0.179,-0.388 -0.114,-1.332 -1.165,-1.568 -0.474,-0.105 -0.775,0.062 -1.027,0.348 -0.099,0.112 -0.056,0.18 0.12,0.158 z m 1.333,-0.483 c 0.803,-0.102 1.459,0.301 1.773,0.955 0.05,0.106 0.09,0.119 0.134,0.023 0.165,-0.357 -0.104,-1.226 -1.073,-1.443 -0.434,-0.098 -0.713,0.056 -0.944,0.319 -0.09,0.104 -0.051,0.167 0.11,0.146 z m 1.24,-1.287 c 0.711,-0.129 1.151,0.212 1.541,0.61 0.552,0.562 0.709,1.25 0.408,2.015 -0.053,0.134 0.019,0.198 0.142,0.13 0.186,-0.093 0.393,-0.242 0.498,-0.488 0.5,-1.171 -0.138,-2.77 -1.552,-2.981 -0.452,-0.068 -0.841,0.148 -1.123,0.564 -0.107,0.133 -0.028,0.18 0.086,0.15 z m -10.77,6.438 c 0.648,-0.609 1.116,-1.65 1.068,-2.66 -0.008,-0.165 -0.195,-0.149 -0.323,-0.091 L 18.929,42.377 c -1.004,0.383 -2.897,1.389 -4.271,2.216 -2.3,1.384 -3.421,2.604 -4.05,3.436 -0.062,0.073 0.043,0.131 0.121,0.101 l 8.684,-3.264 33.822,-12.787 c 0.436,-0.166 0.698,-0.433 0.953,-0.673 z m 6.823,4.178 H 59.36 l -2.156,-2.257 -37.9,14.185 c -4.64,1.571 -9.211,2.176 -9.751,1.088 -0.43,-1.128 2.747,-3.93 8.684,-6.589 l 36.73,-13.801 -0.764,-3.184 1.247,-0.121 0.848,0.252 1.932,2.485 5.985,-2.516 c 0.136,-0.787 0.618,-1.409 1.692,-1.421 1.123,-0.012 2.524,1.146 2.524,2.973 0,1.467 -0.956,2.073 -1.696,2.097 -0.397,0.013 -0.765,-0.201 -1.095,-0.411 l -5.254,3.289 0.946,3.184 z"
   id="path96"
   inkscape:connector-curvature="0"
   style="clip-rule:evenodd;fill:#151616;fill-rule:evenodd" />
	<g
   id="g100">
		<path
   d="m 56.028,27.708 2.467,5.039 -0.672,0.224 c -0.101,0.042 -0.117,0.145 0.005,0.263 0.635,0.614 1.21,1.156 1.826,1.89 l 0.682,-0.025 c 0.119,-0.003 0.105,-0.222 0.051,-0.374 L 59.671,32.741 55.814,25.74 c -0.053,-0.095 -0.108,-0.127 -0.196,-0.144 -0.195,-0.037 -0.369,-0.064 -0.547,-0.058 -0.122,0.005 -0.133,0.113 -0.097,0.235 l 0.558,1.941 c 0.027,0.095 0.125,0.077 0.201,0.061 z m 2.356,0.477 c 1.082,-0.138 1.966,0.405 2.39,1.287 0.068,0.144 0.121,0.161 0.181,0.03 0.197,-0.428 -0.068,-1.4 -1.046,-1.816 0.925,-0.045 1.674,0.449 2.044,1.222 0.064,0.134 0.113,0.149 0.169,0.028 0.188,-0.408 -0.072,-1.342 -1.026,-1.719 0.923,-0.101 1.674,0.37 2.037,1.126 0.06,0.125 0.105,0.14 0.158,0.026 0.192,-0.419 -0.124,-1.438 -1.26,-1.693 -0.51,-0.115 -0.837,0.066 -1.108,0.375 -0.03,0.034 -0.049,0.065 -0.055,0.091 -0.031,-0.008 -0.064,-0.017 -0.098,-0.024 -0.548,-0.123 -0.899,0.072 -1.19,0.403 -0.015,0.017 -0.027,0.033 -0.036,0.047 -0.012,-0.003 -0.023,-0.005 -0.034,-0.008 -0.586,-0.132 -0.962,0.076 -1.273,0.43 -0.124,0.137 -0.071,0.222 0.147,0.195 z m 4.001,-1.447 c 0.872,-0.111 1.585,0.327 1.926,1.038 0.056,0.115 0.099,0.129 0.146,0.024 0.179,-0.389 -0.114,-1.333 -1.165,-1.568 -0.474,-0.105 -0.775,0.062 -1.027,0.348 -0.099,0.111 -0.056,0.18 0.12,0.158 z m 1.333,-0.483 c 0.803,-0.102 1.459,0.301 1.773,0.955 0.05,0.106 0.09,0.119 0.134,0.023 0.165,-0.357 -0.104,-1.226 -1.073,-1.443 -0.434,-0.098 -0.713,0.057 -0.944,0.319 -0.09,0.104 -0.051,0.167 0.11,0.146 z m 1.24,-1.287 c 0.711,-0.129 1.151,0.212 1.541,0.61 0.552,0.562 0.709,1.25 0.408,2.015 -0.053,0.134 0.019,0.197 0.142,0.13 0.186,-0.093 0.393,-0.242 0.498,-0.488 0.5,-1.171 -0.138,-2.77 -1.552,-2.981 -0.452,-0.068 -0.841,0.148 -1.123,0.564 -0.107,0.133 -0.028,0.18 0.086,0.15 z m -10.77,6.438 c 0.648,-0.609 1.116,-1.649 1.068,-2.659 -0.008,-0.165 -0.195,-0.149 -0.323,-0.091 L 18.929,42.377 c -1.004,0.383 -2.897,1.389 -4.271,2.216 -2.3,1.384 -3.421,2.604 -4.05,3.436 -0.062,0.073 0.043,0.131 0.121,0.101 l 8.684,-3.264 33.822,-12.787 c 0.436,-0.166 0.698,-0.432 0.953,-0.673 z m 6.823,4.178 H 59.36 l -2.156,-2.257 -37.9,14.185 c -4.64,1.571 -9.211,2.176 -9.751,1.088 -0.43,-1.128 2.747,-3.93 8.684,-6.589 l 36.73,-13.801 -0.764,-3.184 1.247,-0.121 0.848,0.252 1.932,2.485 5.985,-2.516 c 0.136,-0.787 0.618,-1.409 1.692,-1.421 1.123,-0.012 2.524,1.146 2.524,2.973 0,1.467 -0.956,2.073 -1.696,2.097 -0.397,0.013 -0.765,-0.201 -1.095,-0.411 l -5.254,3.29 0.946,3.183 z"
   id="path98"
   inkscape:connector-curvature="0"
   style="fill:none;stroke:#151616;stroke-width:0.4535" />
	</g>
	<path
   d="M 23.359,10.556 H 21.81 l 0.001,-0.931 0.397,10e-4 V 7.34 H 21.81 L 21.809,6.454 25.434,6.455 25.433,7.34 h -0.422 v 2.286 h 0.422 v 0.929 l -1.509,10e-4 V 7.34 H 23.361 Z M 23.663,3.807 C 22.763,1.822 20.986,1.383 19.11,1.383 l 0.005,1.201 c 0.532,0 0.959,0.187 0.96,0.664 l 0.079,37.539 c 0.01,5.099 1.829,7.813 5.361,8.651 1.645,0.39 3.246,0.951 4.886,1.36 1.731,0.431 3.108,1.579 4.011,3.04 1.118,-1.516 2.521,-2.897 4.905,-3.394 1.354,-0.281 2.688,-0.659 4.029,-1.007 3.345,-0.867 5.342,-3.682 5.341,-8.256 L 48.682,3.341 c 10e-4,-0.528 0.404,-0.719 0.96,-0.717 v -1.21 c -1.991,0 -3.577,0.462 -4.458,2.311 C 44.17,1.787 42.513,1.412 40.701,1.409 v 1.176 c 0.553,0 0.911,0.096 0.912,0.61 L 41.617,9.545 37.981,9.54 37.975,3.398 C 37.974,2.755 38.364,2.643 38.969,2.642 V 1.439 C 36.532,1.44 35.198,1.965 34.442,3.678 33.682,1.859 31.975,1.45 30.022,1.455 v 1.168 c 0.467,0 0.86,0.094 0.856,0.724 -0.01,2.057 0.008,4.124 0.012,6.181 L 27.145,9.53 27.151,3.209 C 27.17,2.755 27.645,2.57 28.121,2.57 V 1.42 C 25.932,1.426 24.429,1.814 23.663,3.807 Z M 33.735,9.709 H 32.57 c -0.224,0 -0.442,-0.507 -0.447,-0.856 L 32.117,8.84 32.123,6.988 c 0,-0.278 0.291,-0.717 0.471,-0.717 l 1.148,0.006 -0.006,-0.34 H 33.289 L 33.283,5.055 35.398,5.049 35.404,5.937 34.9,5.924 v 0.353 l 1.234,-0.025 0.013,0.022 c 0.242,0.038 0.405,0.382 0.415,0.72 v 1.864 c 0,0.293 -0.197,0.858 -0.456,0.85 h -1.219 v 0.384 h 0.511 v 0.9 l -2.116,-0.006 v -0.9 h 0.447 z M 43.784,9.626 43.785,7.34 43.382,7.343 V 6.457 L 44.88,6.454 44.874,8.103 45.667,6.454 h 1.24 v 0.881 l -0.503,0.007 -0.429,0.843 0.604,0.006 v 1.442 l 0.473,-0.007 -0.013,0.932 H 45.471 V 8.997 h -0.598 l 0.006,1.562 -1.498,0.006 V 9.626 Z"
   id="path102"
   inkscape:connector-curvature="0"
   style="clip-rule:evenodd;fill:#ed1b24;fill-rule:evenodd" />
	<path
   d="M 25.515,49.437 C 21.983,48.598 20.164,45.884 20.154,40.786 L 20.075,3.247 c 0,-0.477 -0.428,-0.664 -0.96,-0.664 L 19.11,1.382 c 1.875,0 3.652,0.439 4.553,2.424 0.766,-1.993 2.269,-2.381 4.458,-2.386 v 1.15 c -0.477,0 -0.951,0.185 -0.97,0.639 L 27.145,9.53 30.891,9.529 C 30.887,7.472 30.869,5.404 30.879,3.348 30.882,2.718 30.489,2.624 30.023,2.624 V 1.456 c 1.953,-0.004 3.66,0.404 4.42,2.223 C 35.2,1.966 36.534,1.44 38.97,1.44 v 1.202 c -0.605,0 -0.995,0.113 -0.994,0.756 l 0.006,6.142 3.636,0.006 -0.004,-6.35 C 41.613,2.681 41.255,2.586 40.702,2.586 V 1.409 c 1.813,0.003 3.47,0.378 4.483,2.316 0.881,-1.849 2.467,-2.311 4.458,-2.311 V 2.623 C 49.087,2.622 48.684,2.812 48.683,3.34 l 0.005,37.84 c 10e-4,4.574 -1.996,7.389 -5.341,8.256 -1.341,0.347 -2.675,0.726 -4.029,1.007 -2.384,0.496 -3.787,1.878 -4.905,3.394 -0.902,-1.461 -2.279,-2.609 -4.011,-3.04 -1.641,-0.409 -3.242,-0.971 -4.887,-1.36 z M 27.831,8.844 27.836,3.298 c 0.081,-0.032 0.222,-0.043 0.285,-0.043 h 0.685 V 0.734 L 28.119,0.735 C 26.22,0.739 24.635,1.041 23.621,2.435 22.545,1.115 20.93,0.696 19.11,0.697 h -0.688 l 0.01,2.57 h 0.683 c 0.058,0 0.193,0.007 0.275,0.032 l 0.079,37.487 c 0.009,4.334 1.292,8.225 5.888,9.316 1.643,0.39 3.24,0.949 4.878,1.357 1.536,0.383 2.772,1.406 3.593,2.736 l 0.588,0.858 0.547,-0.812 c 1.188,-1.612 2.481,-2.712 4.492,-3.13 1.367,-0.283 2.712,-0.664 4.063,-1.015 4.251,-1.102 5.855,-4.829 5.854,-8.919 L 49.53,3.309 49.366,3.335 C 49.443,3.31 49.583,3.304 49.64,3.305 l 0.687,10e-4 V 0.729 H 49.641 C 47.808,0.73 46.231,1.12 45.165,2.457 44.071,1.134 42.538,0.728 40.7,0.725 L 40.049,0.724 40.05,3.271 h 0.65 c 0.048,0 0.144,10e-4 0.226,0.009 L 40.93,8.86 38.664,8.856 38.659,3.397 38.66,3.347 C 38.755,3.33 38.906,3.328 38.968,3.328 h 0.68 L 39.65,0.754 h -0.68 c -1.856,0 -3.463,0.274 -4.526,1.598 C 33.4,1.089 31.752,0.766 30.021,0.77 l -0.684,0.001 v 2.536 h 0.685 c 0.038,0 0.112,0 0.171,0.008 0,0.011 0,0.021 0,0.028 -0.008,1.833 0.004,3.667 0.011,5.5 z"
   id="path104"
   inkscape:connector-curvature="0"
   style="clip-rule:evenodd;fill:#151616;fill-rule:evenodd" />
	<path
   d="m 28.812,3.586 v -3.49 c -2.976,0 -4.16,0.779 -5.19,2.339 1.014,-1.394 2.598,-1.696 4.498,-1.7 l 0.687,-0.001 v 2.521 h -0.685 c -0.063,0 -0.204,0.011 -0.285,0.043 l -0.005,5.546 h 2.373 c -0.006,-1.833 -0.019,-3.667 -0.011,-5.5 0,-0.008 0,-0.018 0,-0.028 C 30.134,3.31 30.06,3.309 30.022,3.309 L 29.337,3.308 V 0.771 L 30.021,0.77 C 31.752,0.766 33.4,1.089 34.443,2.352 33.321,0.704 31.498,0.096 29.305,0.096 l 0.001,3.492 0.531,-10e-4 c 0.008,1.604 0.001,3.235 0.009,4.839 C 29.25,8.418 28.687,8.431 28.091,8.423 l 0.003,-4.835 z"
   id="path106"
   inkscape:connector-curvature="0"
   style="clip-rule:evenodd;fill:#151616;fill-rule:evenodd" />
	<path
   d="m 39.649,0.096 c -2.202,0 -3.974,0.537 -5.206,2.256 1.063,-1.323 2.67,-1.598 4.526,-1.598 h 0.68 z"
   id="path108"
   inkscape:connector-curvature="0"
   style="clip-rule:evenodd;fill:#151616;fill-rule:evenodd" />
	<path
   d="m 40.051,0.096 v 0.627 l 0.651,0.001 c 1.838,0.002 3.371,0.409 4.465,1.732 -1.019,-1.66 -2.682,-2.36 -5.116,-2.36 z"
   id="path110"
   inkscape:connector-curvature="0"
   style="clip-rule:evenodd;fill:#151616;fill-rule:evenodd" />
	<path
   d="m 40.592,8.423 -1.616,0.002 -0.008,-4.84 0.68,0.004 V 3.327 H 38.97 c -0.062,0 -0.213,0.002 -0.308,0.019 l -10e-4,0.05 0.005,5.459 2.266,0.004 -0.004,-5.58 C 40.846,3.271 40.75,3.27 40.702,3.27 h -0.651 v 0.317 h 0.541 z"
   id="path112"
   inkscape:connector-curvature="0"
   style="clip-rule:evenodd;fill:#151616;fill-rule:evenodd" />
	<path
   d="m 19.55,13.745 0.002,-0.01 h 4.116 c 0.341,0 0.672,0.091 0.966,0.264 0.291,0.17 0.529,0.41 0.706,0.69 0.04,-0.057 0.083,-0.113 0.128,-0.166 0.491,-0.57 1.2,-0.788 1.933,-0.788 h 3.671 v 0.001 l 6.319,-0.001 v 0 l 6.33,0.001 -0.003,0.857 0.141,-0.858 4.914,0.001 10e-4,0.009 h 5.238 l 8.2,13.133 -4.225,1.656 -4.281,-7.981 1.962,7.801 -1.281,-0.172 C 41.031,26.391 27.54,26.466 14.171,28.083 l -1.294,0.156 0.756,-2.761 -1.138,0.071 -1.753,3.046 -4.16,-1.625 8.251,-13.237 z m 3.179,10.587 c 0.884,-0.059 1.769,-0.112 2.653,-0.159 -0.164,-0.129 -0.313,-0.278 -0.444,-0.439 -0.417,-0.512 -0.686,-1.194 -0.602,-1.861 l 0.058,-0.589 c -0.356,0.23 -0.79,0.361 -1.243,0.384 l -0.129,0.007 z m 24.333,-0.046 -0.118,-0.804 -0.06,0.792 c 0.059,0.003 0.119,0.008 0.178,0.012 z M 30.785,19.063 v -0.322 l -2.557,-0.003 -0.024,0.325 z m 5.993,0.787 v -1.642 l -0.838,0.004 -0.012,1.638 z m 6.932,-2.33 -0.009,2.458 0.246,-2.458 z M 24.938,23.734 C 24.521,23.222 24.252,22.54 24.336,21.873 l 0.058,-0.589 c -0.356,0.23 -0.79,0.361 -1.243,0.384 l -0.129,0.007 -0.292,2.656 c 0.884,-0.059 1.769,-0.112 2.653,-0.159 -0.165,-0.128 -0.314,-0.277 -0.445,-0.438 z m 5.847,-4.671 v -0.322 l -2.557,-0.003 -0.024,0.325 z m 5.993,0.787 v -1.642 l -0.838,0.004 -0.012,1.638 z m 6.923,0.128 0.246,-2.458 H 43.71 Z m 3.242,3.504 -0.06,0.792 0.178,0.013 z"
   id="path114"
   inkscape:connector-curvature="0"
   style="clip-rule:evenodd;fill:#151616;fill-rule:evenodd" />
	<path
   d="m 44.494,17.025 h -0.669 l 0.457,-2.796 h 4.087 l 1.476,7.387 0.447,0.02 0.588,3.204 -3.275,-0.266 -0.339,-2.296 -0.729,-0.01 -0.162,2.17 -2.952,-0.161 0.027,-2.977 h 0.617 z m -4.525,0.736 h 0.589 l 0.003,-3.532 h 2.667 l -0.036,9.975 -2.605,-0.066 -0.025,-3.772 H 39.97 l 0.003,3.707 h -2.699 v -9.844 h 2.695 z m -5.015,-0.748 -1.12,0.012 -0.008,0.894 1.622,0.021 -0.016,2.168 -1.616,0.02 -0.002,0.908 1.114,0.009 0.006,-0.701 2.094,0.002 -0.013,3.672 -6.208,0.046 -0.014,-2.979 0.486,-0.002 0.004,-4.061 -0.503,-0.002 -0.001,-2.79 h 6.119 l -0.014,3.482 -1.929,0.009 v -0.708 z m -6.391,0.002 h -0.706 l -0.307,4.246 0.951,-0.022 0.04,-1.681 h 2.063 v 4.519 l -3.747,0.111 c -0.058,0.003 -0.116,0.004 -0.174,0 -0.54,-0.03 -1.027,-0.356 -1.361,-0.767 -0.332,-0.406 -0.563,-0.96 -0.494,-1.492 l 0.604,-6.078 c 0.036,-0.367 0.172,-0.725 0.414,-1.005 0.393,-0.458 0.972,-0.617 1.558,-0.617 h 3.179 l 0.02,4.016 -2.055,-0.002 z m -8.77,-0.011 H 19.3 l 0.645,-2.775 h 3.723 c 0.253,0 0.498,0.067 0.716,0.196 0.555,0.325 0.863,0.991 0.811,1.625 -0.054,0.672 -0.125,1.339 -0.207,2.009 -0.073,0.59 -0.15,1.179 -0.216,1.771 -0.097,0.862 -0.851,1.303 -1.648,1.345 l -1.624,0.084 -0.057,0.266 1.101,-0.039 -0.324,2.945 -4.596,0.393 0.7,-3.149 0.48,-0.02 z m -2.481,8.251 C 28.59,24.229 39.965,24.034 51.244,25.13 L 48.918,14.239 h 4.822 l 7.738,12.395 -3.26,1.278 L 52.687,17.6 H 52.456 L 55.014,27.765 54.456,27.69 C 41.04,25.892 27.54,25.966 14.115,27.59 l -0.563,0.067 0.744,-2.718 -2.095,0.131 -1.673,2.907 -3.211,-1.253 7.79,-12.497 4.624,0.012 z m 29.352,-5.636 h 0.329 L 46.849,17.704 H 46.8 Z M 21.923,19.028 22.446,19 22.71,16.991 22.243,16.998 Z m -5.847,-1.322 -2.345,4.27 1.22,-0.057 z"
   id="path116"
   inkscape:connector-curvature="0"
   style="clip-rule:evenodd;fill:#8e3239;fill-rule:evenodd" />
	<path
   d="m 44.915,16.644 -0.504,5.037 h -0.584 l -0.02,2.237 2.216,0.121 0.161,-2.156 1.41,0.02 0.343,2.317 2.479,0.201 -0.443,-2.417 -0.443,-0.02 -1.472,-7.373 h -3.452 l -0.333,2.034 h 0.642 z m 1.34,3.355 0.191,-2.67 0.756,-0.01 0.202,2.682 z M 37.654,14.61 v 9.083 h 1.938 l -0.003,-3.707 h 1.35 l 0.025,3.781 1.849,0.047 0.032,-9.204 h -1.903 l -0.003,3.532 h -1.35 L 39.588,14.61 Z m -6.495,0 0.001,2.029 0.503,0.003 -0.004,4.818 -0.484,0.002 0.01,2.216 5.45,-0.04 0.011,-2.914 -1.334,-0.001 -0.006,0.704 -1.874,-0.015 0.005,-1.663 1.617,-0.02 0.01,-1.416 -1.622,-0.021 0.015,-1.647 1.879,-0.019 v 0.71 l 1.168,-0.005 0.011,-2.723 h -5.356 z m -3.756,0 c -1.301,0 -1.552,0.863 -1.593,1.279 l -0.604,6.084 c -0.111,0.822 0.755,1.897 1.632,1.833 l 3.385,-0.101 v -3.768 h -1.31 l -0.04,1.672 -1.733,0.04 0.363,-5.017 h 1.445 l -0.015,1.229 1.287,10e-4 -0.017,-3.254 h -2.8 z m -5.929,4.823 0.442,-2.809 1.229,-0.02 -0.363,2.76 z m -1.21,-2.809 -1.148,5.4 -0.483,0.02 -0.524,2.358 3.768,-0.323 0.241,-2.196 -1.148,0.04 0.219,-1.028 1.917,-0.1 c 0.544,-0.028 1.209,-0.297 1.29,-1.008 0.168,-1.506 0.293,-2.176 0.423,-3.768 0.057,-0.7 -0.443,-1.409 -1.148,-1.409 H 20.25 l -0.468,2.013 h 0.482 z m -3.667,0.605 -1.35,5.057 -2.176,0.101 2.821,-5.138 z m -8.714,9.309 2.479,0.967 1.612,-2.8 2.831,-0.177 -0.736,2.685 c 13.428,-1.624 26.903,-1.714 40.438,0.101 L 51.969,17.22 h 0.947 l 5.479,10.215 2.519,-0.987 -7.385,-11.828 h -4.141 l 2.337,10.94 C 40.15,24.393 28.511,24.592 16.828,25.682 L 19.256,14.62 15.318,14.61 Z"
   id="path118"
   inkscape:connector-curvature="0"
   style="clip-rule:evenodd;fill:#ffffff;fill-rule:evenodd" />
	<path
   d="m 31.81,31.628 c -0.04,0.084 -0.018,0.202 0.038,0.276 0.797,1.067 1.638,2.106 2.506,3.123 0.038,0.045 0.118,0.039 0.176,0.025 1.286,-0.309 2.627,-0.725 3.822,-1.203 0.066,-0.026 0.134,-0.081 0.15,-0.15 0.214,-0.875 0.208,-2.048 -0.232,-3.608 -0.018,-0.066 -0.092,-0.121 -0.164,-0.188 -1.034,-0.865 -2.393,-1.444 -3.931,-1.234 -1.062,0.689 -1.791,1.757 -2.365,2.959 z"
   id="path120"
   inkscape:connector-curvature="0"
   style="clip-rule:evenodd;fill:#5a5a5c;fill-rule:evenodd" />
	<path
   d="m 34.21,28.88 c -0.663,0.526 -1.362,1.14 -1.769,1.927 -0.108,0.207 -0.189,0.484 -0.164,0.73 0.037,0.359 0.075,0.747 0.277,1.045 0.552,0.816 1.168,1.617 1.939,2.229 0.21,0.168 0.544,0.015 0.806,-0.05 0.992,-0.244 1.953,-0.569 2.924,-0.892 0.1,-0.033 0.215,-0.089 0.234,-0.192 0.224,-1.202 0.127,-2.343 -0.268,-3.495 C 38.16,30.078 38.031,29.963 37.918,29.9 36.717,29.039 35.48,28.701 34.21,28.88 Z"
   id="path122"
   inkscape:connector-curvature="0"
   style="clip-rule:evenodd;fill:#231e22;fill-rule:evenodd" />
	<path
   d="m 43.305,35.545 c 0.742,0.533 0.951,1.828 0.694,3.104 0.147,-0.33 0.306,-0.626 0.308,-1.202 0.003,-0.655 -0.157,-1.357 -0.521,-1.744 -0.214,-0.247 -0.194,-0.485 -0.1,-0.799 0.218,-1.184 0.23,-2.098 -0.072,-2.928 -0.063,-0.13 -0.115,-0.181 -0.235,-0.209 0.275,1.099 0.294,2.113 0.185,3.25 -0.134,0.186 -0.033,0.251 -0.168,0.436 -0.03,0.029 -0.061,0.062 -0.091,0.092 z"
   id="path124"
   inkscape:connector-curvature="0"
   style="clip-rule:evenodd;fill:#bcbdbf;fill-rule:evenodd" />
	<path
   d="m 42.491,36.196 c -0.335,0.261 -0.702,0.498 -1.089,0.575 0.126,1.269 -0.325,2.519 -1.021,3.475 -0.079,0.114 -0.194,0.172 -0.209,0.293 -0.015,0.1 0.079,0.215 0.134,0.299 0.055,0.073 -0.042,0.166 0.013,0.239 0.233,0.291 0.581,0.556 1.032,0.796 0.966,-0.106 1.84,-1.203 2.575,-3.054 0.023,-0.06 0.048,-0.115 0.073,-0.171 0.257,-1.275 0.048,-2.57 -0.694,-3.104 -0.251,0.256 -0.523,0.478 -0.814,0.652 z"
   id="path126"
   inkscape:connector-curvature="0"
   style="clip-rule:evenodd;fill:#231e22;fill-rule:evenodd" />
	<path
   d="m 39.616,40.5 c 0.888,-1.044 1.228,-2.311 1.304,-3.689 0,-0.101 -0.026,-0.165 -0.076,-0.259 0.602,0.09 1.152,-0.061 1.647,-0.355 0.291,-0.174 0.563,-0.396 0.813,-0.651 l 0.091,-0.094 c 0.135,-0.185 0.034,-0.25 0.168,-0.436 0.109,-1.137 0.091,-2.151 -0.185,-3.25 0.12,0.029 0.173,0.079 0.235,0.209 0.303,0.831 0.29,1.745 0.072,2.928 -0.095,0.313 -0.114,0.552 0.1,0.799 0.363,0.387 0.523,1.089 0.521,1.744 -0.002,0.576 -0.16,0.872 -0.308,1.202 -0.025,0.056 -0.05,0.111 -0.073,0.171 -0.735,1.851 -1.609,2.947 -2.575,3.054 -0.022,0.003 -0.046,0.005 -0.069,0.007 0.14,0.897 -1.899,2.033 -4.014,2.813 -1.121,0.218 -2.321,0.313 -3.038,-0.019 -0.199,-0.113 -0.308,-0.391 -0.425,-0.617 -0.316,0.018 -0.648,-0.005 -1.067,-0.068 0.324,0.068 0.806,0.402 0.853,0.579 0.047,0.176 0.239,0.465 -0.246,0.491 -0.484,0.024 -1.424,0.05 -2.179,-0.063 1.623,0.561 3.465,0.688 3.81,0.227 0.122,-0.163 0.39,-0.107 0.604,-0.075 1.254,0.188 3.369,-0.144 5.691,-2.292 1.119,-1.035 2.286,-2.294 2.979,-4.111 0.798,-2.096 1.122,-4.455 -0.031,-7.524 -0.06,-0.157 -0.118,-0.233 -0.214,-0.063 -0.124,0.22 -0.309,0.356 -0.493,0.454 -0.06,0.029 -0.166,0.035 -0.181,-0.02 -0.268,-1.011 -1.074,-1.965 -2.752,-2.688 1.457,0.86 1.877,1.61 2.191,2.254 0.366,0.75 0.634,2.207 0.579,3.312 -0.018,0.35 -0.194,0.693 -0.415,0.95 -0.39,0.452 -1.255,0.925 -2.117,1.066 -0.686,-1.125 -1.429,-2.026 -2.29,-2.546 1.238,1.213 2.016,2.646 1.813,4.08 -0.163,1.155 -0.916,2.269 -1.813,2.796 -0.742,0.436 -1.543,0.73 -2.419,1.058 1.223,-0.198 2.119,-0.565 3.509,-1.374 z"
   id="path128"
   inkscape:connector-curvature="0"
   style="clip-rule:evenodd;fill:#7e8182;fill-rule:evenodd" />
	<path
   d="m 41.351,41.873 z m -0.97,-1.627 c 0.696,-0.956 1.147,-2.206 1.021,-3.475 0.387,-0.077 0.754,-0.314 1.089,-0.575 -0.495,0.295 -1.046,0.445 -1.647,0.355 0.05,0.094 0.076,0.158 0.076,0.259 -0.076,1.379 -0.416,2.646 -1.304,3.689 0.537,0.743 1.094,1.173 1.665,1.38 l 0.069,-0.007 c -0.451,-0.241 -0.8,-0.505 -1.032,-0.796 -0.055,-0.073 0.042,-0.166 -0.013,-0.239 -0.055,-0.084 -0.148,-0.199 -0.134,-0.299 0.016,-0.12 0.131,-0.178 0.21,-0.292 z"
   id="path130"
   inkscape:connector-curvature="0"
   style="clip-rule:evenodd;fill:#535456;fill-rule:evenodd" />
	<path
   d="m 40.957,41.994 c -0.411,-0.234 -0.813,-0.518 -1.189,-0.92 -1.27,0.652 -2.531,1.162 -3.766,1.209 -0.495,0.846 -1.2,1.498 -2.098,1.975 0.086,0.17 0.183,0.336 0.325,0.417 0.717,0.331 1.917,0.236 3.038,0.019 2.114,-0.78 4.153,-1.916 4.014,-2.813 z"
   id="path132"
   inkscape:connector-curvature="0"
   style="clip-rule:evenodd;fill:#939599;fill-rule:evenodd" />
	<path
   d="m 40.894,36.27 c 0.026,0.103 0.175,0.165 0.273,0.141 0.738,-0.194 1.431,-0.601 1.768,-0.991 0.221,-0.257 0.397,-0.601 0.415,-0.95 0.055,-1.105 -0.213,-2.562 -0.579,-3.312 -0.306,-0.627 -0.712,-1.354 -2.075,-2.185 -0.718,0.126 -1.42,0.369 -1.993,0.926 -0.181,0.176 -0.173,0.417 -0.075,0.605 0.193,0.371 0.279,0.75 0.277,1.133 0.008,0.42 -0.06,0.839 0.024,1.259 0.091,0.415 0.362,1.124 0.818,1.662 0.489,0.575 1.002,1.163 1.147,1.712 z"
   id="path134"
   inkscape:connector-curvature="0"
   style="clip-rule:evenodd;fill:#bbbcbe;fill-rule:evenodd" />
	<path
   d="m 38.527,33.939 c -1.172,0.48 -2.353,0.926 -3.541,1.339 -0.232,0.117 -0.364,0.173 -0.415,0.504 -0.119,1.054 -0.376,1.992 -0.881,2.732 -0.109,0.16 -0.133,0.269 -0.076,0.403 0.56,1.206 1.473,1.99 2.42,2.791 -0.569,0.355 -0.94,1.71 -2.229,2.349 0.033,0.064 0.065,0.133 0.1,0.2 0.897,-0.477 1.603,-1.129 2.098,-1.975 1.234,-0.047 2.496,-0.557 3.766,-1.209 0.377,0.402 0.778,0.686 1.189,0.92 l 0.324,-0.114 c -0.571,-0.207 -1.128,-0.637 -1.665,-1.38 -1.391,0.809 -2.286,1.176 -3.508,1.373 0.876,-0.327 1.677,-0.622 2.419,-1.058 0.896,-0.527 1.649,-1.641 1.813,-2.796 0.202,-1.433 -0.575,-2.866 -1.814,-4.079 z"
   id="path136"
   inkscape:connector-curvature="0"
   style="clip-rule:evenodd;fill:#d1d1d3;fill-rule:evenodd" />
	<path
   d="m 29.696,42.616 c 0.398,0.563 2.277,1.313 3.041,1.373 0.419,0.063 0.751,0.086 1.067,0.068 1.116,-0.554 1.545,-1.644 2.009,-2.156 -0.896,-0.924 -1.944,-1.806 -2.831,-2.188 -0.447,-0.164 -0.868,-0.198 -1.417,-0.113 -0.598,0.093 -1.09,0.329 -1.625,0.535 -0.335,0.129 -0.406,0.272 -0.453,0.478 -0.062,0.272 -0.051,0.418 -0.177,0.707 -0.077,0.223 0.012,0.767 0.386,1.296 z"
   id="path138"
   inkscape:connector-curvature="0"
   style="clip-rule:evenodd;fill:#231e22;fill-rule:evenodd" />
	<path
   d="m 29.488,40.613 c 0.047,-0.205 0.118,-0.349 0.453,-0.478 0.535,-0.206 1.027,-0.442 1.625,-0.535 0.548,-0.085 0.969,-0.051 1.417,0.113 0.886,0.382 1.934,1.264 2.831,2.188 0.029,-0.031 0.058,-0.062 0.087,-0.088 -0.963,-0.774 -1.903,-1.602 -2.601,-2.806 -0.057,-0.098 -0.126,-0.241 -0.265,-0.163 -0.248,0.109 -0.458,0.267 -0.743,0.327 -0.958,0.203 -1.938,0.328 -2.947,0.354 -0.164,0.003 -0.287,0.012 -0.327,0.188 -0.044,0.572 0.027,1.133 0.047,1.7 0.005,0.138 0.01,0.277 0.055,0.409 0.081,0.236 0.2,0.452 0.338,0.661 0.104,0.156 0.203,0.32 0.353,0.428 0.919,0.662 1.981,1.024 3.129,1.145 -0.071,-0.031 -0.141,-0.055 -0.204,-0.067 -0.764,-0.06 -2.643,-0.811 -3.041,-1.373 -0.375,-0.529 -0.463,-1.073 -0.385,-1.296 0.128,-0.289 0.117,-0.434 0.178,-0.707 z"
   id="path140"
   inkscape:connector-curvature="0"
   style="clip-rule:evenodd;fill:#535355;fill-rule:evenodd" />
	<path
   d="m 65.491,27.21 c -0.314,-0.654 -0.971,-1.057 -1.773,-0.955 -0.161,0.021 -0.2,-0.042 -0.11,-0.146 0.231,-0.263 0.511,-0.417 0.944,-0.319 0.969,0.217 1.238,1.085 1.073,1.443 -0.044,0.097 -0.084,0.083 -0.134,-0.023 z"
   id="path142"
   inkscape:connector-curvature="0"
   style="clip-rule:evenodd;fill:#a9a9ac;fill-rule:evenodd" />
	<path
   d="m 28.596,43.506 c 0.391,0.809 1.44,1.194 2.57,1.49 0.755,0.113 1.694,0.088 2.179,0.063 0.485,-0.026 0.292,-0.315 0.246,-0.491 -0.032,-0.122 -0.27,-0.317 -0.52,-0.449 -0.77,0.079 -1.549,-0.104 -2.308,-0.45 -0.393,-0.179 -0.731,-0.483 -1.146,-0.604 -0.272,-0.078 -0.524,-0.003 -0.781,0.038 -0.208,0.033 -0.335,0.206 -0.24,0.403 z"
   id="path144"
   inkscape:connector-curvature="0"
   style="clip-rule:evenodd;fill:#b8bcbd;fill-rule:evenodd" />
	<path
   d="m 28.037,42.687 c -0.017,0.047 -0.027,0.092 -0.033,0.137 -0.07,0.547 0.581,1.002 1.305,1.448 -0.313,-0.205 -0.562,-0.454 -0.713,-0.766 -0.095,-0.197 0.032,-0.37 0.24,-0.403 0.257,-0.041 0.509,-0.116 0.781,-0.038 0.414,0.121 0.753,0.426 1.146,0.604 0.759,0.347 1.538,0.529 2.308,0.45 -0.043,-0.023 -0.086,-0.044 -0.129,-0.063 -1.148,-0.12 -2.21,-0.482 -3.129,-1.145 -0.085,-0.061 -0.152,-0.139 -0.215,-0.224 -0.125,0.08 -0.27,0.106 -0.411,0.128 -0.455,0.07 -0.845,0.01 -1.15,-0.128 z"
   id="path146"
   inkscape:connector-curvature="0"
   style="clip-rule:evenodd;fill:#e5e5e6;fill-rule:evenodd" />
	<path
   d="m 32.583,38.435 c 0.865,-0.671 1.196,-1.944 1.168,-3.273 -0.015,-0.711 -0.525,-1.399 -1.101,-2.21 -0.272,-0.346 -0.54,-0.694 -0.802,-1.047 -0.01,-0.012 -0.018,-0.027 -0.025,-0.041 -0.098,0.005 -0.129,-0.143 -0.134,-0.362 -0.074,0.147 -0.236,0.267 -0.395,0.295 -0.951,0.203 -1.901,0.423 -2.64,1.007 -0.656,0.519 -0.928,1.206 -1.209,1.874 -0.396,0.942 -0.398,2.026 -0.121,2.618 0.362,0.773 0.861,1.42 1.594,2.041 -0.172,0.021 -0.331,0.015 -0.552,0.015 -0.719,-0.618 -1.395,-1.255 -1.737,-2.155 -0.149,-0.324 -0.384,-0.467 -0.645,-0.474 -0.329,-0.007 -0.657,0.013 -0.985,0.006 0.19,3.681 1.891,4.975 2.562,5.187 0.312,0.114 0.661,0.324 0.925,-0.024 0.249,-0.428 0.082,-1.656 0.52,-1.965 0.002,-0.07 0.006,-0.141 0.011,-0.212 0.04,-0.177 0.164,-0.186 0.327,-0.188 0.039,-0.002 0.077,-0.003 0.115,-0.004 0.065,-0.002 0.13,-0.004 0.195,-0.008 0,0 0,0 0.001,0 0.904,-0.053 1.992,-0.354 2.928,-1.08 z"
   id="path148"
   inkscape:connector-curvature="0"
   style="clip-rule:evenodd;fill:#eff1f0;fill-rule:evenodd" />
	<path
   d="m 33.751,35.161 c 0.028,1.329 -0.303,2.603 -1.168,3.273 -0.937,0.727 -2.025,1.027 -2.928,1.079 0.899,-0.04 1.777,-0.159 2.636,-0.342 0.286,-0.061 0.495,-0.218 0.743,-0.327 0.047,-0.026 0.085,-0.027 0.118,-0.014 0.21,-1.051 0.87,-3.126 1.235,-3.779 -0.014,-0.005 -0.025,-0.013 -0.034,-0.024 -0.582,-0.682 -1.152,-1.373 -1.704,-2.076 0.577,0.811 1.087,1.499 1.102,2.21 z"
   id="path150"
   inkscape:connector-curvature="0"
   style="clip-rule:evenodd;fill:#babbbd;fill-rule:evenodd" />
	<path
   d="m 25.985,36.723 c 0.26,0.007 0.495,0.149 0.645,0.474 0.343,0.9 1.019,1.537 1.737,2.155 0.129,0 0.236,0.002 0.336,0 -0.961,-0.689 -1.908,-2.306 -1.797,-2.58 0.029,-0.083 -0.039,-0.165 -0.141,-0.172 -0.621,-0.03 -1.238,-0.056 -1.804,0.022 0.01,0.028 0.023,0.056 0.038,0.081 0,0.008 0.001,0.017 0.001,0.025 0.328,0.007 0.656,-0.012 0.985,-0.005 z"
   id="path152"
   inkscape:connector-curvature="0"
   style="clip-rule:evenodd;fill:#fdfdfe;fill-rule:evenodd" />
	<polygon
   points="61.764,26.64 61.558,26.199 57.637,27.721 57.861,28.292 "
   id="polygon154"
   style="clip-rule:evenodd;fill:#151616;fill-rule:evenodd" />
	<path
   d="m 60.773,29.471 c -0.424,-0.881 -1.308,-1.424 -2.39,-1.287 -0.218,0.027 -0.271,-0.057 -0.148,-0.197 0.312,-0.354 0.688,-0.562 1.273,-0.43 1.304,0.293 1.667,1.463 1.445,1.944 -0.058,0.131 -0.111,0.114 -0.18,-0.03 z"
   id="path156"
   inkscape:connector-curvature="0"
   style="clip-rule:evenodd;fill:#a9a9ac;fill-rule:evenodd" />
	<path
   d="m 28.15,32.681 c -0.81,0.91 -1.291,2.455 -1.385,3.797 0.002,0.068 -0.163,0.07 -0.196,0.03 -0.076,-0.127 -1.141,-0.071 -1.659,-0.021 0.019,0.045 0.034,0.091 0.051,0.134 0.566,-0.078 1.184,-0.053 1.804,-0.022 0.103,0.007 0.17,0.089 0.141,0.172 -0.111,0.274 0.836,1.891 1.797,2.58 0.074,-0.002 0.143,-0.006 0.215,-0.015 -0.732,-0.621 -1.232,-1.268 -1.594,-2.041 -0.278,-0.592 -0.276,-1.676 0.121,-2.618 0.281,-0.668 0.553,-1.355 1.209,-1.874 0.739,-0.584 1.688,-0.804 2.64,-1.007 0.159,-0.029 0.321,-0.148 0.395,-0.295 0.004,0.219 0.036,0.368 0.134,0.362 -0.036,-0.073 -0.045,-0.166 -0.013,-0.235 0.283,-0.592 0.556,-1.129 0.951,-1.608 -0.566,0.579 -1.276,1.536 -1.705,1.618 -0.919,0.234 -1.976,0.56 -2.761,0.982 -0.102,0.049 -0.897,-0.935 -1.401,-2.055 -0.129,0.144 0.676,1.516 1.256,2.116 z m 0.337,9.21 C 28.223,42.24 27.874,42.03 27.562,41.915 26.891,41.703 25.19,40.409 25,36.728 25,36.719 24.999,36.71 24.999,36.703 24.984,36.678 24.971,36.65 24.961,36.622 24.944,36.579 24.929,36.533 24.91,36.488 24.897,36.458 24.881,36.427 24.86,36.4 c -1.234,-1.663 -0.441,-1.385 -0.969,-2.292 -0.132,0.938 -0.021,1.946 0.13,2.841 0.396,2.346 1.997,5.17 3.983,5.874 0.006,-0.045 0.016,-0.09 0.032,-0.137 0.306,0.139 0.696,0.198 1.149,0.13 0.142,-0.021 0.287,-0.048 0.412,-0.128 -0.048,-0.065 -0.092,-0.136 -0.138,-0.204 -0.139,-0.209 -0.258,-0.425 -0.338,-0.661 -0.045,-0.132 -0.05,-0.271 -0.055,-0.409 -0.018,-0.497 -0.074,-0.988 -0.059,-1.488 -0.438,0.308 -0.272,1.537 -0.52,1.965 z"
   id="path158"
   inkscape:connector-curvature="0"
   style="clip-rule:evenodd;fill:#d2d1d2;fill-rule:evenodd" />
	<path
   d="m 28.872,27.3 c -1.294,0.866 -1.76,2.023 -1.978,3.266 0.504,1.12 1.3,2.104 1.401,2.055 0.785,-0.423 1.841,-0.748 2.761,-0.982 0.271,-0.052 0.654,-0.455 1.043,-0.889 0.646,-1.311 1.767,-2.118 1.426,-2.784 -0.134,-0.437 -0.407,-0.949 -0.645,-1.189 -1.292,-0.519 -2.449,-0.301 -3.526,0.362 -0.165,0.109 -0.341,0.071 -0.482,0.161 z"
   id="path160"
   inkscape:connector-curvature="0"
   style="clip-rule:evenodd;fill:#eff1f0;fill-rule:evenodd" />
	<path
   d="m 32.627,29.877 c 0.457,-0.473 0.885,-0.897 1.206,-1.142 0.14,-0.147 0.269,-0.417 0.161,-0.625 -0.366,-0.47 -0.711,-1.031 -0.947,-1.592 l -0.167,0.257 c 0.238,0.24 0.511,0.752 0.645,1.189 0.259,0.505 -0.32,1.09 -0.898,1.913 z"
   id="path162"
   inkscape:connector-curvature="0"
   style="clip-rule:evenodd;fill:#cfd0d2;fill-rule:evenodd" />
	<path
   d="m 28.654,26.452 c 0.048,-0.024 0.115,-0.054 0.161,-0.021 0.07,0.07 0.033,0.281 -0.01,0.443 -0.051,0.189 -0.174,0.332 -0.313,0.443 -0.748,0.609 -1.279,1.403 -1.622,2.307 -0.059,0.156 -0.162,0.378 -0.285,0.404 -0.766,0.156 -1.308,0.614 -1.761,1.188 -0.265,0.336 -0.283,0.281 -0.101,-0.111 1.103,-2.36 2.967,-4.188 3.931,-4.653 z"
   id="path164"
   inkscape:connector-curvature="0"
   style="clip-rule:evenodd;fill:#e6e4e9;fill-rule:evenodd" />
	<path
   d="M 3.051,27.21 C 3.364,26.556 4.02,26.153 4.823,26.255 4.985,26.276 5.024,26.213 4.932,26.109 4.702,25.846 4.423,25.692 3.988,25.79 3.021,26.007 2.751,26.875 2.915,27.233 2.96,27.33 3,27.316 3.051,27.21 Z"
   id="path166"
   inkscape:connector-curvature="0"
   style="clip-rule:evenodd;fill:#a9a9ac;fill-rule:evenodd" />
	<path
   d="m 28.493,27.318 c -0.748,0.609 -1.279,1.403 -1.622,2.307 -0.059,0.156 -0.162,0.378 -0.285,0.404 -0.766,0.156 -1.308,0.614 -1.761,1.188 -0.265,0.336 -0.283,0.281 -0.101,-0.111 1.101,-2.361 2.965,-4.188 3.929,-4.654 0.048,-0.024 0.115,-0.054 0.161,-0.021 0.07,0.07 0.033,0.281 -0.01,0.443 -0.05,0.19 -0.173,0.332 -0.311,0.444 z M 29.19,26.061 28.989,26 c -2.094,1.269 -3.376,3.067 -4.373,5.047 -0.335,0.667 -0.473,1.125 -0.477,1.722 0.148,-0.223 0.747,-2.544 2.787,-2.372 0.231,-1.179 0.711,-2.271 1.947,-3.098 0.141,-0.089 0.317,-0.052 0.483,-0.162 1.077,-0.663 2.234,-0.881 3.526,-0.362 l 0.167,-0.257 c 0.401,-0.761 1.084,-1.172 2.116,-1.153 0.063,-0.04 -0.044,-0.081 -0.172,-0.091 -1.088,-0.014 -1.703,0.44 -2.085,1.088 -0.066,0.111 -0.077,0.175 -0.204,0.105 -0.489,-0.255 -1.042,-0.273 -1.559,-0.217 -0.757,0.083 -1.279,0.235 -1.834,0.67 -0.166,0.13 -0.231,0 -0.241,-0.146 v -0.443 z"
   id="path168"
   inkscape:connector-curvature="0"
   style="clip-rule:evenodd;fill:#f8faf9;fill-rule:evenodd" />
	<path
   d="m 39.306,27.294 c -1.312,-1.28 -2.732,-1.985 -4.142,-1.929 -1.032,-0.019 -1.715,0.393 -2.116,1.153 0.235,0.561 0.581,1.122 0.947,1.592 0.108,0.208 -0.021,0.477 -0.161,0.625 -0.321,0.245 -0.75,0.669 -1.206,1.142 -0.185,0.265 -0.37,0.554 -0.527,0.872 0.226,-0.252 0.453,-0.517 0.661,-0.729 0.398,-0.53 0.86,-0.992 1.414,-1.352 0.924,-0.126 1.784,0.032 2.546,0.367 0.982,0.229 2.4,0.244 2.887,-0.229 0.309,-0.302 0.098,-1.12 -0.303,-1.512 z"
   id="path170"
   inkscape:connector-curvature="0"
   style="clip-rule:evenodd;fill:#dcdddf;fill-rule:evenodd" />
	<path
   d="m 38.929,32.896 c -0.084,-0.42 -0.017,-0.839 -0.024,-1.259 0.002,-0.384 -0.084,-0.762 -0.277,-1.133 -0.098,-0.188 -0.105,-0.429 0.075,-0.605 0.54,-0.524 1.192,-0.771 1.865,-0.902 -1.03,0.051 -1.848,0.35 -2.368,0.992 0.035,0.034 0.063,0.067 0.071,0.103 0.44,1.56 0.446,2.733 0.232,3.608 -0.017,0.069 -0.084,0.124 -0.15,0.15 -1.195,0.479 -2.536,0.895 -3.822,1.203 -0.044,0.011 -0.101,0.017 -0.142,-10e-4 -0.366,0.653 -1.025,2.729 -1.235,3.779 0.065,0.026 0.108,0.111 0.146,0.177 0.698,1.204 1.638,2.031 2.601,2.806 0.043,-0.041 0.088,-0.075 0.134,-0.104 -0.947,-0.801 -1.86,-1.585 -2.42,-2.791 -0.057,-0.135 -0.033,-0.243 0.076,-0.403 0.505,-0.74 0.762,-1.679 0.881,-2.732 0.051,-0.331 0.183,-0.386 0.415,-0.504 1.188,-0.413 2.369,-0.858 3.541,-1.339 0.861,0.52 1.604,1.421 2.29,2.546 0.116,-0.02 0.234,-0.044 0.35,-0.075 -0.099,0.024 -0.247,-0.038 -0.273,-0.141 -0.145,-0.549 -0.657,-1.137 -1.146,-1.712 -0.458,-0.539 -0.729,-1.248 -0.82,-1.663 z"
   id="path172"
   inkscape:connector-curvature="0"
   style="clip-rule:evenodd;fill:#fafcfc;fill-rule:evenodd" />
	<path
   d="m 40.58,28.903 c 0,0 0,0 0,0 0,0 0,0 0,0 z m -5.239,-3.54 c 1.352,0.006 2.708,0.706 3.965,1.932 0.401,0.391 0.612,1.21 0.303,1.511 -0.486,0.474 -1.904,0.458 -2.887,0.229 0.507,0.222 0.973,0.521 1.385,0.867 0.032,0.031 0.065,0.058 0.093,0.085 0.521,-0.642 1.338,-0.941 2.368,-0.992 0.043,-0.008 0.085,-0.016 0.128,-0.023 -0.037,-0.023 -0.076,-0.046 -0.115,-0.069 0.109,-0.944 -0.299,-1.638 -1.032,-2.183 -1.568,-1.084 -2.991,-1.616 -4.208,-1.357 z"
   id="path174"
   inkscape:connector-curvature="0"
   style="clip-rule:evenodd;fill:#909092;fill-rule:evenodd" />
	<path
   d="m 35.341,25.363 c 1.217,-0.259 2.641,0.273 4.207,1.358 -0.095,-0.071 -0.007,-0.193 0.111,-0.202 0.258,-0.03 0.507,-0.027 0.745,0.011 0.096,0.02 0.096,-0.093 -0.016,-0.177 -1.797,-1.339 -3.781,-1.9 -5.928,-1.899 -0.251,0 -0.49,0.022 -0.514,0.124 0.476,0.1 0.857,0.359 1.164,0.718 0.063,0.018 0.094,0.044 0.053,0.07 0.06,-0.003 0.118,-0.004 0.178,-0.003 z"
   id="path176"
   inkscape:connector-curvature="0"
   style="clip-rule:evenodd;fill:#a8a9ac;fill-rule:evenodd" />
	<path
   d="m 34.404,24 c -6.104,0 -11.051,4.935 -11.051,11.021 0,6.088 4.948,11.021 11.051,11.021 6.103,0 11.051,-4.934 11.051,-11.021 C 45.455,28.936 40.508,24 34.404,24 Z m -5.335,2.333 v 0.443 c 0.01,0.146 0.076,0.275 0.241,0.146 0.556,-0.435 1.078,-0.586 1.834,-0.67 0.517,-0.057 1.069,-0.039 1.559,0.217 0.127,0.07 0.138,0.006 0.204,-0.105 0.382,-0.648 0.997,-1.103 2.085,-1.088 0.045,0.003 0.087,0.011 0.119,0.021 -0.307,-0.359 -0.688,-0.618 -1.164,-0.718 0.024,-0.101 0.262,-0.124 0.514,-0.124 2.146,-10e-4 4.131,0.56 5.928,1.899 0.111,0.084 0.111,0.197 0.016,0.177 -0.238,-0.038 -0.487,-0.041 -0.745,-0.011 -0.118,0.009 -0.206,0.131 -0.111,0.202 0.733,0.544 1.142,1.239 1.032,2.183 1.678,0.723 2.483,1.677 2.751,2.688 0.015,0.054 0.121,0.049 0.181,0.02 0.185,-0.098 0.369,-0.234 0.493,-0.454 0.096,-0.17 0.154,-0.094 0.214,0.063 1.153,3.069 0.829,5.429 0.031,7.524 -0.692,1.817 -1.859,3.076 -2.979,4.111 -2.322,2.148 -4.438,2.479 -5.691,2.292 -0.215,-0.032 -0.482,-0.088 -0.604,0.075 -0.345,0.462 -2.187,0.334 -3.81,-0.227 -0.622,-0.163 -1.22,-0.354 -1.696,-0.626 -0.055,-0.032 -0.108,-0.064 -0.16,-0.098 -0.725,-0.446 -1.376,-0.902 -1.306,-1.449 -1.986,-0.704 -3.588,-3.528 -3.983,-5.874 -0.151,-0.895 -0.263,-1.902 -0.13,-2.841 0.528,0.907 -0.265,0.629 0.969,2.292 0.021,0.027 0.037,0.058 0.05,0.088 0.518,-0.051 1.583,-0.106 1.659,0.021 0.033,0.04 0.199,0.038 0.196,-0.03 0.094,-1.343 0.576,-2.888 1.385,-3.797 -0.58,-0.6 -1.385,-1.972 -1.255,-2.115 0.01,-0.056 0.02,-0.112 0.031,-0.168 -2.04,-0.173 -2.638,2.148 -2.787,2.372 0.004,-0.597 0.142,-1.055 0.477,-1.722 0.997,-1.979 2.279,-3.778 4.373,-5.047 l 0.201,0.06 z"
   id="path178"
   inkscape:connector-curvature="0"
   style="clip-rule:evenodd;fill:#231e22;fill-rule:evenodd" />
	<path
   d="m 34.404,24 c -6.104,0 -11.051,4.935 -11.051,11.021 0,6.088 4.948,11.021 11.051,11.021 6.103,0 11.051,-4.934 11.051,-11.021 C 45.455,28.936 40.508,24 34.404,24 Z m -5.335,2.333 v 0.443 c 0.01,0.146 0.076,0.275 0.241,0.146 0.556,-0.435 1.078,-0.586 1.834,-0.67 0.517,-0.057 1.069,-0.039 1.559,0.217 0.127,0.07 0.138,0.006 0.204,-0.105 0.382,-0.648 0.997,-1.103 2.085,-1.088 0.045,0.003 0.087,0.011 0.119,0.021 -0.307,-0.359 -0.688,-0.618 -1.164,-0.718 0.024,-0.101 0.262,-0.124 0.514,-0.124 2.146,-10e-4 4.131,0.56 5.928,1.899 0.111,0.084 0.111,0.197 0.016,0.177 -0.238,-0.038 -0.487,-0.041 -0.745,-0.011 -0.118,0.009 -0.206,0.131 -0.111,0.202 0.733,0.544 1.142,1.239 1.032,2.183 1.678,0.723 2.483,1.677 2.751,2.688 0.015,0.054 0.121,0.049 0.181,0.019 0.185,-0.097 0.369,-0.233 0.493,-0.453 0.096,-0.17 0.154,-0.094 0.214,0.063 1.153,3.069 0.829,5.429 0.031,7.524 -0.692,1.817 -1.859,3.076 -2.979,4.111 -2.322,2.148 -4.438,2.479 -5.691,2.292 -0.215,-0.032 -0.482,-0.088 -0.604,0.075 -0.345,0.462 -2.187,0.334 -3.81,-0.227 -0.622,-0.163 -1.22,-0.354 -1.696,-0.626 -0.055,-0.032 -0.108,-0.064 -0.16,-0.099 -0.725,-0.445 -1.376,-0.901 -1.306,-1.448 -1.986,-0.704 -3.588,-3.528 -3.983,-5.874 -0.151,-0.895 -0.263,-1.902 -0.13,-2.841 0.528,0.907 -0.265,0.63 0.969,2.292 0.021,0.027 0.037,0.058 0.05,0.088 0.518,-0.051 1.583,-0.106 1.659,0.021 0.033,0.041 0.199,0.038 0.196,-0.03 0.094,-1.344 0.576,-2.888 1.385,-3.797 -0.58,-0.6 -1.385,-1.972 -1.255,-2.115 0.01,-0.056 0.02,-0.112 0.031,-0.168 -2.04,-0.173 -2.638,2.148 -2.787,2.372 0.004,-0.597 0.142,-1.055 0.477,-1.722 0.997,-1.979 2.279,-3.778 4.373,-5.047 l 0.201,0.061 z"
   id="path180"
   inkscape:connector-curvature="0"
   style="fill:none;stroke:#151616;stroke-width:0.4535" />
	<polygon
   points="22.208,7.34 22.208,9.627 21.812,9.625 21.81,10.556 23.359,10.556 23.361,7.34 23.923,7.34 23.923,10.556 25.432,10.554 25.432,9.624 25.01,9.625 25.01,7.34 25.433,7.34 25.434,6.455 21.809,6.454 21.811,7.34 "
   id="polygon182"
   style="clip-rule:evenodd;fill:#fdca0a;fill-rule:evenodd" />
	<polygon
   points="43.785,7.34 43.784,9.626 43.382,9.626 43.382,10.564 44.88,10.558 44.874,8.997 45.472,8.997 45.472,10.558 47.04,10.558 47.053,9.626 46.58,9.633 46.58,8.191 45.976,8.185 46.404,7.34 46.907,7.334 46.907,6.453 45.667,6.453 44.874,8.103 44.88,6.453 43.382,6.456 43.382,7.344 "
   id="polygon184"
   style="clip-rule:evenodd;fill:#fdca0a;fill-rule:evenodd" />
	<rect
   x="33.282001"
   y="6.9949999"
   width="0.45300001"
   height="1.845"
   id="rect186"
   style="clip-rule:evenodd;fill:#ed1b24;fill-rule:evenodd" />
	<rect
   x="34.918999"
   y="6.9949999"
   width="0.454"
   height="1.845"
   id="rect188"
   style="clip-rule:evenodd;fill:#ed1b24;fill-rule:evenodd" />
	<path
   d="M 33.282,8.84 V 6.995 h 0.453 V 8.84 Z m 2.115,-3.791 -2.115,0.006 0.006,0.882 h 0.447 l 0.006,0.34 -1.148,-0.006 c -0.18,0 -0.471,0.439 -0.471,0.717 v 1.857 c 10e-4,0.35 0.222,0.863 0.447,0.863 h 1.165 l -0.007,0.377 h -0.446 l -10e-4,0.9 2.116,0.006 v -0.9 H 34.885 V 9.709 h 1.22 C 36.363,9.717 36.56,9.152 36.56,8.859 V 6.995 C 36.55,6.635 36.365,6.267 36.096,6.271 L 34.9,6.277 V 5.924 l 0.503,0.013 z M 34.919,8.84 V 6.995 h 0.454 V 8.84 Z"
   id="path190"
   inkscape:connector-curvature="0"
   style="clip-rule:evenodd;fill:#fdca0a;fill-rule:evenodd" />
	<polygon
   points="56.156,25.115 53.709,20.552 54.818,24.966 55.45,24.905 "
   id="polygon192"
   style="clip-rule:evenodd;fill:#151616;fill-rule:evenodd" />
	<polygon
   points="56.156,25.115 53.709,20.552 54.818,24.966 55.45,24.905 "
   id="polygon194"
   style="fill:none;stroke:#151616;stroke-width:0.4535" />
	<path
   d="m 54.39,28.181 c -1.394,-0.187 -2.789,-0.354 -4.186,-0.5 0,0.772 0,1.545 0,2.317 l 4.666,-1.753 z"
   id="path196"
   inkscape:connector-curvature="0"
   style="clip-rule:evenodd;fill:#151616;fill-rule:evenodd" />
	<path
   d="m 54.39,28.181 c -1.394,-0.187 -2.789,-0.354 -4.186,-0.5 0,0.772 0,1.545 0,2.318 l 4.666,-1.753 z"
   id="path198"
   inkscape:connector-curvature="0"
   style="fill:none;stroke:#151616;stroke-width:0.4535" />
	<path
   d="m 18.588,30.094 c 0,-0.83 0,-1.66 0,-2.488 -1.472,0.14 -2.944,0.299 -4.415,0.477 l -0.585,0.071 -0.014,0.057 z"
   id="path200"
   inkscape:connector-curvature="0"
   style="clip-rule:evenodd;fill:#151616;fill-rule:evenodd" />
	<path
   d="m 18.588,30.094 c 0,-0.83 0,-1.66 0,-2.488 -1.472,0.14 -2.944,0.299 -4.415,0.477 l -0.585,0.071 -0.014,0.057 z"
   id="path202"
   inkscape:connector-curvature="0"
   style="fill:none;stroke:#151616;stroke-width:0.4535" />
	<polygon
   points="43.66,56.214 43.498,56.271 43.089,58.956 44.021,58.644 "
   id="polygon204"
   style="clip-rule:evenodd;fill:#fecc05;fill-rule:evenodd" />
	<polygon
   points="7.168,26.708 7.361,26.334 10.829,27.687 10.649,28.121 "
   id="polygon206"
   style="clip-rule:evenodd;fill:#151616;fill-rule:evenodd" />
	<path
   d="m 7.768,29.471 c 0.423,-0.881 1.307,-1.424 2.389,-1.287 0.218,0.027 0.271,-0.057 0.148,-0.197 -0.312,-0.354 -0.687,-0.562 -1.272,-0.43 -1.304,0.293 -1.668,1.463 -1.446,1.944 0.06,0.131 0.112,0.114 0.181,-0.03 z"
   id="path208"
   inkscape:connector-curvature="0"
   style="clip-rule:evenodd;fill:#a9a9ac;fill-rule:evenodd" />
</g>
</svg>