<svg width="203" height="300" viewBox="0 0 203 300" fill="none" xmlns="http://www.w3.org/2000/svg">
<g clip-path="url(#clip0)">
<path d="M101.42 41.623L101.348 41.9135L201.434 60.3166V199.377C201.434 213.152 194.571 225.981 186.213 236.621C176.429 249.083 163.692 259.944 150.879 269.2C136.425 279.658 120.511 289.06 104.487 296.967L101.42 298.498L98.3181 296.967C82.2947 289.023 66.3806 279.658 51.926 269.2C39.1148 259.944 26.3749 249.083 16.5933 236.621C8.23413 225.981 1.40901 213.152 1.40901 199.377V60.3166L101.458 41.9135L101.42 41.623L101.348 41.9135L101.42 41.623L101.348 41.2939L0.752441 59.7701V199.377C0.752441 213.371 7.68741 226.345 16.0826 237.022C25.9014 249.558 38.7127 260.453 51.5618 269.747C66.051 280.204 82.0024 289.608 98.0277 297.513L101.42 299.191L104.78 297.551C120.84 289.608 136.79 280.204 151.281 269.747C164.13 260.453 176.905 249.558 186.723 237.022C195.119 226.308 202.09 213.371 202.09 199.377V59.7701L101.42 41.2939H101.348L101.42 41.623V41.623Z" fill="#2F89C1"/>
<path d="M101.421 42.6136L0.852539 60.9375C1.9889 93.4659 4.09118 164.063 3.40936 186.222C2.55708 213.92 5.96618 226.705 31.9605 251.42C52.7559 271.193 86.9321 290.057 101.421 297.017C112.216 291.761 140.54 275.71 167.472 253.551C194.404 231.392 201.421 207.955 201.563 199.006V60.9375L101.421 42.6136Z" fill="white"/>
<path d="M61.7896 13.6364L49.4316 15.767L57.9544 23.4375L55.8237 35.7955L66.4771 29.8295L77.1305 35.7955L74.9998 23.8636L83.9487 15.767L72.0169 13.6364L66.4771 2.55682L61.7896 13.6364Z" fill="white"/>
<path d="M131.25 14.0625L120.17 15.767L128.267 23.8636L126.136 35.3693L136.79 29.8295L147.017 35.7955L144.886 23.8636L153.835 15.3409L141.903 13.6364L136.363 2.98296L131.25 14.0625Z" fill="white"/>
<path fill-rule="evenodd" clip-rule="evenodd" d="M194.461 199.377C194.461 209.654 189.825 220.695 180.737 232.32C172.67 242.597 161.244 253.093 146.792 263.588C128.759 276.597 110.363 286.291 101.419 290.699C92.4773 286.291 74.0809 276.597 56.0127 263.588C41.5594 253.093 30.1339 242.597 22.067 232.32C12.9792 220.733 8.37946 209.654 8.37946 199.377V66.1123L101.419 49.0208L194.461 66.1123V199.377ZM101.419 41.6232L1.07959 60.0262V199.377C1.07959 213.261 7.97858 226.162 16.3365 236.804C26.1553 249.302 38.9312 260.199 51.7425 269.455C66.2336 279.949 82.1471 289.315 98.1718 297.259L101.419 298.862L104.632 297.259C120.657 289.315 136.606 279.913 151.061 269.455C163.91 260.199 176.684 249.302 186.467 236.804C194.862 226.162 201.761 213.261 201.761 199.377V60.0262L101.419 41.6232Z" fill="#4296CC"/>
<path fill-rule="evenodd" clip-rule="evenodd" d="M179.315 231.191C171.358 241.285 160.079 251.707 145.734 262.093C128.331 274.656 110.576 284.11 101.406 288.685C92.27 284.11 74.5137 274.656 57.1109 262.093C42.729 251.707 31.4506 241.285 23.5295 231.191C14.5876 219.784 10.2075 209.07 10.2075 199.377V101.085C27.2808 97.6225 44.6576 95.5653 62.0383 94.427C69.9581 93.8793 77.9159 93.5528 85.8729 93.4059C91.056 93.3341 96.2397 93.3341 101.422 93.3341C106.606 93.3341 111.788 93.3341 116.971 93.4059C124.929 93.5528 132.887 93.8793 140.843 94.427C158.211 95.5653 175.543 97.62 192.637 101.078V199.377C192.637 209.07 188.258 219.784 179.315 231.191ZM101.422 50.8661L192.637 67.6418V100.318C183.428 97.7253 173.998 95.9668 164.533 94.681C155.333 93.4419 146.1 92.6414 136.827 92.0943C125.038 91.4016 113.249 91.1457 101.422 91.1457C89.633 91.1457 77.8426 91.4016 66.0522 92.0943C56.7827 92.6414 47.5472 93.4419 38.3489 94.681C28.871 95.968 19.4285 97.7303 10.2075 100.329V67.6418L101.422 50.8661ZM101.422 47.1613L101.093 47.2344L6.55664 64.5811V199.377C6.55664 210.2 11.3742 221.644 20.6457 233.45C28.8584 243.909 40.3938 254.514 54.9563 265.045C73.1349 278.163 91.6027 287.893 100.583 292.339L101.422 292.74L102.225 292.339C111.241 287.893 129.674 278.163 147.851 265.045L147.888 265.008V265.045C162.415 254.514 173.951 243.909 182.162 233.45C191.434 221.644 196.288 210.2 196.288 199.377V64.5811L101.422 47.1613V47.1613Z" fill="#F8C92F"/>
<path d="M35.7934 74.4207L39.1526 79.3395H32.3628L35.7934 74.4207ZM29.7347 83.3853H41.8168L44.919 87.8307C51.9272 87.0283 58.9354 86.4819 65.9436 86.081C68.3887 85.936 70.871 85.7904 73.3168 85.6814C73.7549 85.2805 74.1198 84.77 74.3395 84.1504C74.5219 83.5662 74.6312 82.9466 74.6312 82.327C74.6312 82.0724 74.5945 81.8177 74.5585 81.5259C74.4853 81.1982 74.4121 80.8332 74.2663 80.5067C74.0832 80.1046 73.8641 79.7403 73.5724 79.4126C73.2442 79.0117 72.8054 78.7199 72.3313 78.4653C71.7839 78.1375 71.1627 77.9547 70.5794 77.7719C69.8123 77.5539 68.974 77.3723 68.2069 77.2261L58.2782 75.404C57.9506 75.3668 56.9285 75.1121 56.7094 74.8941L56.5257 74.5663L56.5636 74.3117L56.7094 74.2373C56.9285 74.1289 57.1469 74.0558 57.4026 74.0186C57.7303 73.982 58.0598 73.982 58.4247 73.982H83.318V85.3518C85.6539 85.2805 87.9904 85.244 90.3256 85.2068V73.982H100.947V69.6835H56.6734C55.9058 69.6835 55.1021 69.7553 54.337 69.8285C53.4234 69.9381 52.5851 70.23 51.7808 70.6667C50.9777 71.1042 50.212 71.7237 49.8837 72.5979C49.664 73.1816 49.5175 73.8011 49.5175 74.4566C49.5175 74.7113 49.5541 75.0031 49.5907 75.2577C49.6274 75.6227 49.7 75.9863 49.8477 76.3153C49.9569 76.6425 50.1387 76.9715 50.3584 77.2992C50.6128 77.6642 50.9777 77.9547 51.3439 78.2106C51.6722 78.4653 52.0364 78.648 52.4013 78.793C52.7669 78.9399 53.0952 79.0848 53.4601 79.1939C53.7517 79.2664 54.0447 79.3767 54.3729 79.4126C54.5554 79.4863 54.7378 79.5222 54.9197 79.5222L65.6147 81.4906C66.0156 81.5618 66.455 81.6728 66.8565 81.8177C67.0017 81.8915 67.2574 81.9633 67.366 82.1096L67.4399 82.182L67.4777 82.327L67.4399 82.6201L67.366 82.692L66.9651 82.9466C66.6734 83.0575 66.1633 83.0575 65.8698 83.0575H49.2625L40.9771 71.6506C40.4298 70.9214 39.7359 70.3018 38.8603 69.9741C37.9108 69.5745 36.7795 69.5013 35.7934 69.5013C34.7726 69.5013 33.6046 69.5745 32.6545 69.9741C31.8149 70.3018 31.1217 70.9214 30.5737 71.6506L15.3174 92.9328C18.3837 92.167 21.4493 91.5115 24.5516 90.8913L29.7347 83.3853V83.3853Z" fill="#4296CC"/>
<path d="M163.509 79.3395L166.902 74.4207L170.298 79.3395H163.509ZM105.837 79.3395L109.268 74.4207L112.626 79.3395H105.837ZM187.526 92.9687L172.123 71.6506C171.575 70.9214 170.844 70.3018 170.006 69.9741C169.057 69.5745 167.925 69.5013 166.902 69.5013C165.918 69.5013 164.749 69.5745 163.8 69.9741C162.961 70.3018 162.267 70.9214 161.72 71.6506L151.864 85.2805C151.974 84.9881 152.01 84.6962 152.01 84.3326V69.6835H145.186V81.0519L134.197 70.9951C133.687 70.4846 133.031 70.1568 132.372 69.9381C131.423 69.5745 130.257 69.5013 129.271 69.5013C128.103 69.5013 126.825 69.6463 125.803 70.1568C124.818 70.6667 124.16 71.4678 124.16 72.5979V85.0599L114.45 71.6506C113.905 70.9214 113.211 70.3018 112.334 69.9741C111.386 69.5745 110.254 69.5013 109.268 69.5013C108.245 69.5013 107.079 69.5745 106.13 69.9741C105.289 70.3018 104.596 70.9214 104.048 71.6506L94.3027 85.1337C96.6386 85.1337 99.0117 85.0977 101.348 85.0977H102.004L103.209 83.3853H115.291L116.605 85.2805C121.422 85.3889 126.204 85.5345 131.023 85.7545V75.8414L142.046 85.9713C142.228 86.1541 142.449 86.3009 142.63 86.4447C147.704 86.8102 152.741 87.2842 157.778 87.8306L160.844 83.3853H172.962L178.255 90.9291C181.356 91.5115 184.46 92.2042 187.526 92.9687V92.9687Z" fill="#4296CC"/>
<path d="M38.6041 109.769C38.0568 110.241 37.1079 110.46 35.8302 110.46C34.5524 110.46 33.6408 110.241 33.0562 109.769C32.4728 109.294 32.1812 108.603 32.1812 107.691C32.1812 106.78 32.4728 106.087 33.0562 105.613C33.6408 105.141 34.5524 104.922 35.8302 104.922C37.1079 104.922 38.0568 105.141 38.6041 105.613C39.1887 106.087 39.481 106.78 39.481 107.691C39.481 108.603 39.1887 109.294 38.6041 109.769ZM40.9406 104.412C39.7727 103.719 38.094 103.355 35.8302 103.355C33.6048 103.355 31.8876 103.719 30.7216 104.412C29.589 105.103 29.0044 106.198 29.0044 107.691C29.0044 109.185 29.589 110.315 30.7216 111.008C31.8876 111.699 33.6048 112.027 35.8302 112.027C38.094 112.027 39.7727 111.699 40.9406 111.008C42.1086 110.315 42.6919 109.185 42.6919 107.691C42.6919 106.198 42.1086 105.103 40.9406 104.412Z" fill="#4296CC"/>
<path d="M170.225 103.538H168.619C168.4 103.538 168.215 103.574 168.07 103.683C167.888 103.793 167.815 103.938 167.815 104.083V108.566C167.815 109.149 167.632 109.585 167.268 109.841C166.902 110.133 166.355 110.279 165.588 110.279H164.238C163.472 110.279 162.889 110.133 162.522 109.841C162.157 109.585 161.976 109.149 161.976 108.566V104.083C161.976 103.938 161.902 103.793 161.757 103.683C161.574 103.574 161.391 103.538 161.172 103.538H159.602C159.347 103.538 159.164 103.574 159.019 103.683C158.837 103.793 158.763 103.938 158.763 104.083V108.566C158.763 109.622 159.238 110.46 160.151 111.044C161.063 111.626 162.376 111.918 164.129 111.918H165.662C167.414 111.918 168.764 111.626 169.676 111.044C170.589 110.46 171.027 109.622 171.027 108.566V104.083C171.027 103.938 170.953 103.793 170.808 103.683C170.625 103.574 170.443 103.538 170.225 103.538Z" fill="#4296CC"/>
<path d="M157.012 110.205H149.603V104.083C149.603 103.938 149.531 103.793 149.383 103.683C149.237 103.574 149.018 103.538 148.799 103.538H147.231C147.012 103.538 146.793 103.574 146.646 103.683C146.5 103.793 146.426 103.938 146.426 104.083V111.335C146.426 111.481 146.5 111.591 146.646 111.7C146.793 111.809 147.012 111.845 147.231 111.845H157.012C157.231 111.845 157.414 111.809 157.596 111.7C157.743 111.591 157.815 111.445 157.815 111.299V110.752C157.815 110.607 157.743 110.496 157.596 110.389C157.414 110.28 157.231 110.205 157.012 110.205V110.205Z" fill="#4296CC"/>
<path d="M28.0536 103.683C27.9078 103.574 27.7247 103.538 27.5056 103.538H17.6875C17.4684 103.538 17.2859 103.574 17.1395 103.683C16.957 103.793 16.8838 103.938 16.8838 104.083V111.299C16.8838 111.445 16.957 111.591 17.1395 111.7C17.2859 111.809 17.4684 111.845 17.6875 111.845H19.2922C19.5113 111.845 19.6938 111.809 19.8775 111.7C20.0239 111.591 20.0965 111.445 20.0965 111.299V108.858H26.1186C26.3371 108.858 26.5195 108.821 26.7032 108.711C26.8491 108.603 26.9217 108.456 26.9217 108.311V107.765C26.9217 107.618 26.8491 107.473 26.7032 107.364C26.5195 107.254 26.3371 107.217 26.1186 107.217H20.0965V105.177H27.5056C27.7247 105.177 27.9078 105.104 28.0536 105.031C28.2361 104.922 28.3093 104.776 28.3093 104.631V104.083C28.3093 103.938 28.2361 103.793 28.0536 103.683Z" fill="#4296CC"/>
<path d="M182.343 110.024C182.124 110.205 181.795 110.28 181.357 110.28H176.504V108.274H181.357C181.795 108.274 182.124 108.384 182.343 108.566C182.598 108.748 182.708 108.967 182.708 109.294C182.708 109.585 182.598 109.841 182.343 110.024ZM176.504 105.104H181.03C181.394 105.104 181.686 105.177 181.904 105.322C182.124 105.467 182.234 105.687 182.234 105.942C182.234 106.198 182.124 106.416 181.904 106.561C181.686 106.706 181.394 106.78 181.03 106.78H176.504V105.104V105.104ZM184.277 107.436C185.045 106.998 185.445 106.526 185.445 105.942C185.445 105.359 185.19 104.886 184.752 104.521C183.949 103.864 182.708 103.538 180.992 103.538H174.095C173.876 103.538 173.691 103.574 173.51 103.683C173.363 103.793 173.291 103.938 173.291 104.083V111.299C173.291 111.445 173.363 111.591 173.51 111.7C173.691 111.809 173.876 111.845 174.095 111.845H181.394C182.672 111.845 183.73 111.626 184.606 111.189C185.482 110.752 185.919 110.133 185.919 109.294C185.919 108.456 185.373 107.837 184.277 107.436V107.436Z" fill="#4296CC"/>
<path d="M94.8888 108.2H89.4494L90.2158 106.343C90.3616 105.979 90.6186 105.687 91.0195 105.505C91.4203 105.286 91.8951 105.177 92.4424 105.177H94.8888V108.2ZM97.3692 103.538H92.7707C89.5958 103.538 87.6975 104.302 87.1142 105.796L84.9961 111.335L84.9595 111.481L85.1053 111.736C85.2158 111.809 85.3616 111.845 85.5807 111.845H87.26C87.4784 111.845 87.6975 111.809 87.8793 111.7C88.0996 111.591 88.2089 111.481 88.2821 111.299L88.8282 109.841H94.8888V111.299C94.8888 111.481 94.9614 111.591 95.1078 111.7C95.253 111.809 95.4355 111.845 95.6912 111.845H97.2606C97.4803 111.845 97.6994 111.809 97.8452 111.7C97.9904 111.591 98.1003 111.481 98.1003 111.335V104.083C98.1003 103.938 98.0283 103.793 97.8812 103.683C97.736 103.574 97.5536 103.538 97.3692 103.538V103.538Z" fill="#4296CC"/>
<path d="M123.906 110.205H116.496V104.083C116.496 103.938 116.424 103.793 116.277 103.683C116.132 103.574 115.913 103.538 115.693 103.538H114.125C113.907 103.538 113.687 103.574 113.539 103.683C113.394 103.793 113.322 103.938 113.322 104.083V111.335C113.322 111.481 113.394 111.591 113.539 111.7C113.687 111.809 113.907 111.845 114.125 111.845H123.906C124.125 111.845 124.308 111.809 124.49 111.7C124.637 111.591 124.711 111.445 124.711 111.299V110.752C124.711 110.607 124.637 110.496 124.49 110.389C124.308 110.28 124.125 110.205 123.906 110.205Z" fill="#4296CC"/>
<path d="M53.3507 109.769C52.7668 110.241 51.8545 110.46 50.5767 110.46C49.299 110.46 48.3495 110.241 47.8027 109.769C47.2194 109.294 46.9258 108.603 46.9258 107.691C46.9258 106.78 47.2194 106.087 47.8027 105.613C48.3495 105.141 49.299 104.922 50.5767 104.922C51.8545 104.922 52.7668 105.141 53.3507 105.613C53.8993 106.087 54.1904 106.78 54.1904 107.691C54.1904 108.603 53.8993 109.294 53.3507 109.769ZM55.6506 104.412C54.5186 103.719 52.8034 103.355 50.5767 103.355C48.3135 103.355 46.6342 103.719 45.4656 104.412C44.2996 105.103 43.7144 106.198 43.7144 107.691C43.7144 109.185 44.2996 110.315 45.4656 111.008C46.6342 111.699 48.3135 112.027 50.5767 112.027C52.8034 112.027 54.5186 111.699 55.6506 111.008C56.8185 110.315 57.4025 109.185 57.4025 107.691C57.4025 106.198 56.8185 105.103 55.6506 104.412V104.412Z" fill="#4296CC"/>
<path d="M80.6885 110.024C80.4694 110.205 80.1411 110.28 79.7024 110.28H74.8488V108.274H79.7024C80.1411 108.274 80.4694 108.384 80.6885 108.566C80.9435 108.748 81.0528 108.967 81.0528 109.294C81.0528 109.585 80.9435 109.841 80.6885 110.024ZM74.8488 105.104H79.3741C79.7403 105.104 80.0319 105.177 80.2504 105.322C80.4694 105.467 80.5793 105.687 80.5793 105.942C80.5793 106.198 80.4694 106.416 80.2504 106.561C80.0319 106.706 79.7403 106.78 79.3741 106.78H74.8488V105.104V105.104ZM82.6235 107.436C83.3892 106.998 83.7541 106.526 83.7541 105.942C83.7541 105.359 83.5351 104.886 83.0976 104.521C82.2946 103.864 81.0528 103.538 79.3375 103.538H72.4391C72.2207 103.538 72.0382 103.574 71.8558 103.683C71.7099 103.793 71.6367 103.938 71.6367 104.083V111.299C71.6367 111.445 71.7099 111.591 71.8558 111.7C72.0382 111.809 72.2207 111.845 72.4391 111.845H79.7403C81.0168 111.845 82.0755 111.626 82.9517 111.189C83.8286 110.752 84.2655 110.133 84.2655 109.294C84.2655 108.456 83.7182 107.837 82.6235 107.436V107.436Z" fill="#4296CC"/>
<path d="M111.677 110.389C111.532 110.28 111.349 110.205 111.13 110.205H103.72V104.083C103.72 103.938 103.647 103.793 103.502 103.683C103.32 103.574 103.136 103.538 102.917 103.538H101.31C101.092 103.538 100.91 103.574 100.765 103.683C100.582 103.793 100.508 103.938 100.508 104.083V111.335C100.508 111.481 100.582 111.591 100.765 111.7C100.91 111.809 101.092 111.845 101.31 111.845H111.13C111.349 111.845 111.532 111.809 111.677 111.7C111.86 111.591 111.933 111.445 111.933 111.299V110.752C111.933 110.607 111.86 110.496 111.677 110.389Z" fill="#4296CC"/>
<path d="M143.908 108.711H142.885C142.338 108.711 141.936 108.931 141.645 109.33C141.244 109.95 140.549 110.279 139.563 110.279H137.885C136.644 110.279 135.805 110.097 135.367 109.732C134.929 109.367 134.71 108.675 134.71 107.692C134.71 106.706 134.929 106.051 135.367 105.687C135.805 105.322 136.644 105.141 137.885 105.141H139.382C140.366 105.141 141.061 105.431 141.498 106.051C141.791 106.488 142.192 106.67 142.704 106.67H143.725C143.908 106.67 144.091 106.635 144.31 106.525C144.492 106.452 144.601 106.271 144.601 106.051C144.601 105.25 144.091 104.631 143.104 104.156C142.12 103.719 140.988 103.501 139.712 103.501H137.812C135.695 103.501 134.125 103.828 133.067 104.521C132.008 105.213 131.497 106.271 131.497 107.692C131.497 109.112 132.008 110.204 133.067 110.862C134.125 111.553 135.695 111.918 137.812 111.918H139.857C141.171 111.918 142.301 111.664 143.287 111.227C144.274 110.752 144.748 110.133 144.748 109.33C144.748 109.185 144.674 109.04 144.529 108.895C144.383 108.784 144.164 108.711 143.908 108.711V108.711Z" fill="#4296CC"/>
<path d="M69.4468 103.538H58.6425C58.4235 103.538 58.241 103.574 58.0586 103.683C57.9127 103.793 57.8389 103.938 57.8389 104.083V104.631C57.8389 104.776 57.9127 104.922 58.0586 105.031C58.241 105.141 58.4235 105.177 58.6425 105.177H62.4386V111.335C62.4386 111.481 62.5112 111.591 62.6937 111.7C62.8395 111.809 63.0226 111.845 63.2404 111.845H64.8483C65.0668 111.845 65.2492 111.809 65.4317 111.7C65.5775 111.591 65.6495 111.481 65.6495 111.335V105.177H69.4468C69.6653 105.177 69.8483 105.141 70.0295 105.031C70.1766 104.922 70.2505 104.776 70.2505 104.631V104.083C70.2505 103.938 70.1766 103.793 70.0295 103.683C69.8483 103.574 69.6653 103.538 69.4468 103.538V103.538Z" fill="#4296CC"/>
<path fill-rule="evenodd" clip-rule="evenodd" d="M155.331 173.323C158.982 168.329 159.384 167.601 159.603 161.405C156.135 163.192 153.945 169.714 155.331 173.323Z" fill="#F8C92F"/>
<path fill-rule="evenodd" clip-rule="evenodd" d="M128.177 129.738C131.828 132.29 132.411 132.399 136.827 132.471C135.368 130.138 130.696 128.536 128.177 129.738Z" fill="#F8C92F"/>
<path fill-rule="evenodd" clip-rule="evenodd" d="M145.99 168.73C145.114 175.982 145.443 176.929 148.764 183.379C151.028 179.481 149.713 171.463 145.99 168.73Z" fill="#F8C92F"/>
<path fill-rule="evenodd" clip-rule="evenodd" d="M144.785 193.584C147.814 190.231 148.143 182.104 145.077 178.715C142.705 185.64 142.85 186.623 144.785 193.584Z" fill="#F8C92F"/>
<path fill-rule="evenodd" clip-rule="evenodd" d="M138.471 203.021C142.375 199.633 143.946 190.523 140.952 186.223C137.303 193.692 137.303 194.822 138.471 203.021Z" fill="#F8C92F"/>
<path fill-rule="evenodd" clip-rule="evenodd" d="M131.937 125.838C129.892 123.215 129.564 122.887 126.353 121.903C126.789 123.945 129.892 126.021 131.937 125.838Z" fill="#F8C92F"/>
<path fill-rule="evenodd" clip-rule="evenodd" d="M136.607 128.901C135.623 125.693 135.439 125.292 132.849 123.178C132.483 125.256 134.601 128.317 136.607 128.901Z" fill="#F8C92F"/>
<path fill-rule="evenodd" clip-rule="evenodd" d="M140.988 133.091C140.295 129.118 140.113 128.609 137.303 125.693C136.571 128.135 138.652 132.107 140.988 133.091Z" fill="#F8C92F"/>
<path fill-rule="evenodd" clip-rule="evenodd" d="M144.673 137.718C144.418 133.71 144.309 133.164 141.827 129.956C140.841 132.29 142.485 136.48 144.673 137.718Z" fill="#F8C92F"/>
<path fill-rule="evenodd" clip-rule="evenodd" d="M148.216 142.966C148.435 138.957 148.399 138.411 146.354 134.949C145.077 137.136 146.171 141.509 148.216 142.966Z" fill="#F8C92F"/>
<path fill-rule="evenodd" clip-rule="evenodd" d="M150.333 140.598C148.799 142.638 149.384 147.085 151.209 148.797C151.939 144.861 151.976 144.315 150.333 140.598Z" fill="#F8C92F"/>
<path fill-rule="evenodd" clip-rule="evenodd" d="M154.092 145.773C151.755 148.106 151.646 153.935 153.691 156.487C155.37 151.567 155.515 150.839 154.092 145.773Z" fill="#F8C92F"/>
<path fill-rule="evenodd" clip-rule="evenodd" d="M155.188 164.357C157.634 159.73 157.889 159.074 157.305 153.827C154.603 155.758 153.582 161.515 155.188 164.357Z" fill="#F8C92F"/>
<path fill-rule="evenodd" clip-rule="evenodd" d="M154.311 182.324C158.727 178.024 159.239 177.367 160.48 171.282C156.757 172.447 153.545 178.532 154.311 182.324Z" fill="#F8C92F"/>
<path fill-rule="evenodd" clip-rule="evenodd" d="M151.464 190.959C157.45 187.024 158.178 186.368 160.954 179.7C156.427 180.246 151.39 186.514 151.464 190.959Z" fill="#F8C92F"/>
<path fill-rule="evenodd" clip-rule="evenodd" d="M147.338 199.123C153.983 196.462 154.859 195.989 158.911 190.012C154.383 189.612 148.179 194.75 147.338 199.123Z" fill="#F8C92F"/>
<path fill-rule="evenodd" clip-rule="evenodd" d="M142.338 206.375C150.04 204.807 151.062 204.444 156.574 198.759C151.792 197.483 144.091 201.82 142.338 206.375Z" fill="#F8C92F"/>
<path fill-rule="evenodd" clip-rule="evenodd" d="M43.1567 161.405C43.3752 167.601 43.8127 168.329 47.4269 173.323C48.8139 169.714 46.6245 163.192 43.1567 161.405Z" fill="#F8C92F"/>
<path fill-rule="evenodd" clip-rule="evenodd" d="M66.0142 132.471C70.4321 132.399 71.0154 132.29 74.6297 129.738C72.1114 128.536 67.4384 130.138 66.0142 132.471Z" fill="#F8C92F"/>
<path fill-rule="evenodd" clip-rule="evenodd" d="M56.7723 168.73C53.0855 171.463 51.7711 179.481 54.0343 183.379C57.3557 176.929 57.6852 175.982 56.7723 168.73Z" fill="#F8C92F"/>
<path fill-rule="evenodd" clip-rule="evenodd" d="M57.7203 178.715C54.6534 182.104 54.9829 190.231 57.9754 193.584C59.9103 186.623 60.0562 185.64 57.7203 178.715Z" fill="#F8C92F"/>
<path fill-rule="evenodd" clip-rule="evenodd" d="M61.845 186.223C58.8507 190.523 60.4215 199.633 64.2895 203.021C65.494 194.822 65.494 193.692 61.845 186.223V186.223Z" fill="#F8C92F"/>
<path fill-rule="evenodd" clip-rule="evenodd" d="M71.7374 210.601C71.7374 202.366 71.591 201.237 66.9186 194.349C64.5468 199.013 67.3934 207.832 71.7374 210.601Z" fill="#F8C92F"/>
<path fill-rule="evenodd" clip-rule="evenodd" d="M84.3292 217.379C81.0079 209.288 80.3867 208.233 73.0142 203.386C72.6127 208.889 78.9637 216.397 84.3292 217.379Z" fill="#F8C92F"/>
<path fill-rule="evenodd" clip-rule="evenodd" d="M99.1853 219.748C92.9429 213.59 91.9946 212.861 83.3071 211.294C85.0963 216.542 93.8557 220.951 99.1853 219.748Z" fill="#F8C92F"/>
<path fill-rule="evenodd" clip-rule="evenodd" d="M76.4904 121.903C73.2782 122.887 72.9506 123.215 70.8691 125.838C72.9506 126.021 76.0522 123.945 76.4904 121.903Z" fill="#F8C92F"/>
<path fill-rule="evenodd" clip-rule="evenodd" d="M69.9947 123.178C67.3659 125.292 67.1841 125.693 66.2358 128.901C68.2428 128.317 70.3609 125.256 69.9947 123.178Z" fill="#F8C92F"/>
<path fill-rule="evenodd" clip-rule="evenodd" d="M65.5423 125.693C62.7317 128.609 62.5493 129.118 61.8555 133.091C64.1553 132.107 66.2721 128.135 65.5423 125.693Z" fill="#F8C92F"/>
<path fill-rule="evenodd" clip-rule="evenodd" d="M61.015 129.956C58.5334 133.164 58.4235 133.71 58.1685 137.718C60.3572 136.48 62.0005 132.29 61.015 129.956V129.956Z" fill="#F8C92F"/>
<path fill-rule="evenodd" clip-rule="evenodd" d="M56.4894 134.949C54.4085 138.411 54.3726 138.957 54.6282 142.966C56.6731 141.509 57.7665 137.136 56.4894 134.949V134.949Z" fill="#F8C92F"/>
<path fill-rule="evenodd" clip-rule="evenodd" d="M52.5112 140.598C50.8673 144.315 50.9045 144.861 51.5983 148.797C53.4595 147.085 54.044 142.638 52.5112 140.598Z" fill="#F8C92F"/>
<path fill-rule="evenodd" clip-rule="evenodd" d="M48.7053 145.773C47.2823 150.839 47.4281 151.567 49.1068 156.487C51.151 153.935 51.0424 148.106 48.7053 145.773Z" fill="#F8C92F"/>
<path fill-rule="evenodd" clip-rule="evenodd" d="M45.4952 153.827C44.91 159.074 45.1657 159.73 47.6107 164.357C49.2168 161.515 48.196 155.758 45.4952 153.827Z" fill="#F8C92F"/>
<path fill-rule="evenodd" clip-rule="evenodd" d="M48.4864 182.324C49.2522 178.532 46.0047 172.447 42.2812 171.282C43.5218 177.367 44.0704 178.024 48.4864 182.324Z" fill="#F8C92F"/>
<path fill-rule="evenodd" clip-rule="evenodd" d="M51.3338 190.959C51.3704 186.514 46.3691 180.246 41.8433 179.7C44.5813 186.368 45.3477 187.024 51.3338 190.959Z" fill="#F8C92F"/>
<path fill-rule="evenodd" clip-rule="evenodd" d="M55.4585 199.123C54.6183 194.75 48.4137 189.612 43.8872 190.012C47.939 195.989 48.8152 196.462 55.4585 199.123Z" fill="#F8C92F"/>
<path fill-rule="evenodd" clip-rule="evenodd" d="M46.2236 198.759C51.7356 204.444 52.7577 204.807 60.4231 206.375C58.7066 201.82 51.0058 197.483 46.2236 198.759V198.759Z" fill="#F8C92F"/>
<path fill-rule="evenodd" clip-rule="evenodd" d="M51.9912 208.269C58.4161 212.897 59.4748 213.08 67.3227 213.297C64.8037 209.107 56.4817 206.192 51.9912 208.269Z" fill="#F8C92F"/>
<path fill-rule="evenodd" clip-rule="evenodd" d="M76.9945 219.675C73.3076 215.666 63.5993 214.282 59.146 217.563C67.1763 221.206 68.3796 221.17 76.9945 219.675Z" fill="#F8C92F"/>
<path fill-rule="evenodd" clip-rule="evenodd" d="M69.5464 225.032C78.1613 227.001 79.3286 226.672 87.4681 223.466C83.0521 220.296 73.2333 220.914 69.5464 225.032Z" fill="#F8C92F"/>
<path fill-rule="evenodd" clip-rule="evenodd" d="M81.3003 230.462C90.1336 230.571 91.1917 230.062 98.5294 225.25C93.5288 223.029 84.0749 225.653 81.3003 230.462Z" fill="#F8C92F"/>
<path fill-rule="evenodd" clip-rule="evenodd" d="M58.451 154.336C50.7124 157.178 52.2092 164.394 52.2092 164.394C56.4441 160.677 56.9914 160.02 58.451 154.336Z" fill="#F8C92F"/>
<path fill-rule="evenodd" clip-rule="evenodd" d="M53.6713 155.175C57.9055 152.915 58.4882 152.478 60.8253 148.142C53.4889 148.797 53.6713 155.175 53.6713 155.175V155.175Z" fill="#F8C92F"/>
<path fill-rule="evenodd" clip-rule="evenodd" d="M63.3876 142.019C63.3876 142.019 56.9627 142.202 55.5391 148.579C60.1016 146.573 60.7221 146.246 63.3876 142.019Z" fill="#F8C92F"/>
<path fill-rule="evenodd" clip-rule="evenodd" d="M58.6431 142.237C62.6582 141.18 63.1683 140.962 65.9429 137.827C65.9429 137.827 60.9429 136.99 58.6431 142.237Z" fill="#F8C92F"/>
<path fill-rule="evenodd" clip-rule="evenodd" d="M62.2192 137.172C66.3442 136.59 66.891 136.443 69.9932 133.638C69.9932 133.638 65.1031 132.18 62.2192 137.172Z" fill="#F8C92F"/>
<path fill-rule="evenodd" clip-rule="evenodd" d="M78.4257 126.823C76.8177 125.729 73.8985 125.912 71.8183 126.895C71.1978 127.151 70.6864 127.588 70.2855 128.135L70.2495 128.208C74.1536 128.718 74.7748 128.681 78.4257 126.823Z" fill="#F8C92F"/>
<path fill-rule="evenodd" clip-rule="evenodd" d="M56.9542 161.552C50.6032 165.413 52.3197 172.776 52.3197 172.776C56.0413 168.184 56.4801 167.492 56.9542 161.552Z" fill="#F8C92F"/>
<path fill-rule="evenodd" clip-rule="evenodd" d="M111.303 222.991C123.64 220.623 134.481 213.882 142.221 204.443C149.776 195.15 154.339 183.234 154.339 170.225C154.339 161.552 152.294 153.315 148.68 146.064C144.922 138.519 139.447 131.998 132.802 127.005L133.24 127.879C136.161 130.539 138.716 133.309 140.906 136.224C141.125 136.516 141.271 136.698 141.271 136.698C142.257 138.046 143.168 139.395 144.009 140.743C144.009 140.743 144.409 141.363 144.994 142.455C145.834 143.913 146.564 145.372 147.257 146.866C147.586 147.63 147.877 148.361 147.877 148.361C148.607 150.073 149.192 151.821 149.702 153.535C149.702 153.535 150.14 154.919 150.469 156.413C150.724 157.432 150.944 158.49 151.09 159.547C151.235 160.385 151.345 161.186 151.454 161.989L151.784 165.669C151.894 167.746 151.894 169.788 151.747 171.864C151.711 172.74 151.637 173.503 151.637 173.503C151.271 177.257 150.543 180.975 149.483 184.545C147.111 192.454 143.059 199.743 137.84 205.645C131.086 213.261 122.399 218.618 112.69 220.26C108.166 220.878 104.442 221.061 101.375 221.061C98.3084 221.061 94.5875 220.878 90.0591 220.26C80.3507 218.618 71.6279 213.261 64.9113 205.645C59.655 199.743 55.6399 192.454 53.2668 184.545C52.1727 180.975 51.4423 177.257 51.114 173.503C51.114 173.503 51.0414 172.74 51.0048 171.864C50.8589 169.788 50.8589 167.746 50.9682 165.669L51.2958 161.989C51.3697 161.186 51.5149 160.385 51.6247 159.547C51.8065 158.49 52.0256 157.432 52.2819 156.413C52.6102 154.919 53.0117 153.535 53.0117 153.535C53.5231 151.821 54.1437 150.073 54.8368 148.361C54.8368 148.361 55.1291 147.63 55.494 146.866C56.1506 145.372 56.9177 143.913 57.7207 142.455C58.3406 141.363 58.7421 140.743 58.7421 140.743C59.5824 139.395 60.4953 138.046 61.4789 136.698C61.4789 136.698 61.5887 136.516 61.8457 136.224C64.0351 133.309 66.5534 130.539 69.5098 127.879L69.9486 127.005C63.2693 131.998 57.8299 138.519 54.0704 146.064C50.4568 153.315 48.4126 161.552 48.4126 170.225C48.4126 183.234 52.9385 195.15 60.5313 204.443C68.2327 213.882 79.0729 220.623 91.4467 222.991C92.1039 223.138 92.7971 223.247 93.4555 223.392C94.5502 223.611 98.2724 223.866 101.375 223.975C104.478 223.866 108.202 223.611 109.296 223.392C109.953 223.247 110.61 223.138 111.303 222.991V222.991Z" fill="#F8C92F"/>
<path fill-rule="evenodd" clip-rule="evenodd" d="M135.833 194.349C131.161 201.237 131.014 202.366 130.977 210.601C135.321 207.832 138.168 199.013 135.833 194.349Z" fill="#F8C92F"/>
<path fill-rule="evenodd" clip-rule="evenodd" d="M129.699 203.386C122.327 208.233 121.744 209.288 118.421 217.379C123.786 216.397 130.138 208.889 129.699 203.386Z" fill="#F8C92F"/>
<path fill-rule="evenodd" clip-rule="evenodd" d="M119.444 211.294C110.757 212.861 109.808 213.59 103.566 219.748C108.859 220.951 117.657 216.542 119.444 211.294V211.294Z" fill="#F8C92F"/>
<path fill-rule="evenodd" clip-rule="evenodd" d="M135.431 213.297C143.278 213.08 144.337 212.897 150.762 208.269C146.272 206.192 137.948 209.107 135.431 213.297Z" fill="#F8C92F"/>
<path fill-rule="evenodd" clip-rule="evenodd" d="M125.76 219.675C134.374 221.17 135.579 221.206 143.609 217.563C139.155 214.282 129.446 215.666 125.76 219.675Z" fill="#F8C92F"/>
<path fill-rule="evenodd" clip-rule="evenodd" d="M115.283 223.466C123.422 226.672 124.59 227.001 133.204 225.032C129.481 220.914 119.699 220.296 115.283 223.466Z" fill="#F8C92F"/>
<path fill-rule="evenodd" clip-rule="evenodd" d="M104.223 225.25C111.523 230.062 112.618 230.571 121.451 230.462C118.677 225.653 109.187 223.029 104.223 225.25Z" fill="#F8C92F"/>
<path fill-rule="evenodd" clip-rule="evenodd" d="M144.309 154.336C145.805 160.02 146.352 160.677 150.586 164.394C150.586 164.394 152.047 157.178 144.309 154.336Z" fill="#F8C92F"/>
<path fill-rule="evenodd" clip-rule="evenodd" d="M141.972 148.142C144.309 152.478 144.857 152.915 149.127 155.175C149.127 155.175 149.311 148.797 141.972 148.142Z" fill="#F8C92F"/>
<path fill-rule="evenodd" clip-rule="evenodd" d="M139.453 142.019C142.119 146.246 142.703 146.573 147.266 148.579C145.842 142.202 139.453 142.019 139.453 142.019Z" fill="#F8C92F"/>
<path fill-rule="evenodd" clip-rule="evenodd" d="M136.901 137.827C139.674 140.962 140.187 141.18 144.202 142.237C141.902 136.99 136.901 137.827 136.901 137.827Z" fill="#F8C92F"/>
<path fill-rule="evenodd" clip-rule="evenodd" d="M132.811 133.638C135.951 136.443 136.498 136.59 140.622 137.172C137.739 132.18 132.811 133.638 132.811 133.638Z" fill="#F8C92F"/>
<path fill-rule="evenodd" clip-rule="evenodd" d="M132.592 128.208L132.52 128.135C132.154 127.588 131.645 127.151 131.024 126.895C128.943 125.912 126.023 125.729 124.379 126.823C128.068 128.681 128.687 128.718 132.592 128.208V128.208Z" fill="#F8C92F"/>
<path fill-rule="evenodd" clip-rule="evenodd" d="M145.843 161.552C146.318 167.492 146.756 168.184 150.478 172.776C150.478 172.776 152.195 165.413 145.843 161.552Z" fill="#F8C92F"/>
<path d="M93.8662 137.865C93.8662 137.865 96.8233 135.788 102.662 134.147C102.662 134.147 96.9325 135.203 93.5752 137.355L93.8662 137.865V137.865Z" fill="#4296CC"/>
<path d="M118.809 199.139C119.701 198.458 121.204 197.226 122.752 195.623C122.773 195.602 122.793 195.58 122.815 195.559C123.197 195.161 123.579 194.745 123.955 194.307C124.006 194.249 124.053 194.189 124.102 194.131C124.413 193.762 124.716 193.378 125.011 192.986C125.083 192.888 125.158 192.795 125.228 192.697C125.538 192.269 125.829 191.828 126.103 191.378C126.179 191.255 126.25 191.131 126.319 191.008C126.597 190.529 126.86 190.04 127.081 189.538L126.994 189.499C127.93 188.756 129.412 187.404 130.981 185.353C131.024 185.297 131.065 185.245 131.108 185.188C131.26 184.987 131.411 184.778 131.564 184.563C131.661 184.426 131.757 184.286 131.854 184.145C131.988 183.949 132.12 183.756 132.254 183.55C132.471 183.216 132.687 182.87 132.901 182.508C132.982 182.368 133.062 182.22 133.144 182.074C133.307 181.787 133.47 181.491 133.631 181.186C133.711 181.031 133.791 180.874 133.872 180.715C134.058 180.343 134.242 179.959 134.42 179.564C134.461 179.472 134.506 179.384 134.547 179.289C134.777 178.769 134.998 178.227 135.212 177.666C135.233 177.61 135.253 177.55 135.273 177.492C135.387 177.187 135.502 176.88 135.611 176.561C133.435 186.006 127.374 194.263 118.809 199.139V199.139ZM91.0636 202.191C91.0099 202.167 90.9569 202.144 90.9032 202.118C90.9872 202.133 91.0857 202.149 91.2132 202.168C91.3149 202.186 91.4405 202.205 91.568 202.223C91.5712 202.225 91.5737 202.225 91.5781 202.225C92.8098 202.412 95.1469 202.694 97.8811 202.694C98.1236 202.694 98.383 202.678 98.6305 202.673C98.8098 202.669 98.9885 202.663 99.1684 202.657C99.5434 202.643 99.9146 202.631 100.3 202.605C100.809 202.572 101.324 202.524 101.841 202.464C102.076 202.437 102.309 202.405 102.543 202.37C103.028 202.304 103.509 202.222 103.99 202.128C104.151 202.098 104.312 202.072 104.473 202.038C105.038 201.915 105.595 201.763 106.143 201.595C106.27 201.556 106.404 201.532 106.531 201.492C106.531 201.492 106.557 201.494 106.6 201.498C106.624 201.502 106.65 201.503 106.695 201.507C106.735 201.511 106.779 201.514 106.834 201.518C106.89 201.523 106.939 201.525 107.009 201.53C107.107 201.537 107.222 201.542 107.349 201.548C107.423 201.551 107.5 201.554 107.584 201.555C107.725 201.56 107.877 201.562 108.045 201.564C108.078 201.564 108.103 201.565 108.137 201.565C108.171 201.565 108.212 201.564 108.245 201.564C108.415 201.562 108.597 201.56 108.788 201.555C108.847 201.554 108.901 201.552 108.961 201.55C109.194 201.542 109.443 201.53 109.706 201.514C109.742 201.511 109.776 201.511 109.813 201.508C110.101 201.489 110.405 201.463 110.723 201.433C110.857 201.419 111.001 201.4 111.14 201.385C111.317 201.365 111.492 201.345 111.675 201.319C111.877 201.294 112.087 201.261 112.298 201.228C112.422 201.208 112.548 201.188 112.677 201.167C112.926 201.124 113.18 201.079 113.441 201.028C113.514 201.013 113.587 200.997 113.659 200.981C114.619 200.786 115.642 200.524 116.714 200.181C116.756 200.169 116.796 200.158 116.837 200.143C116.899 200.123 116.959 200.107 117.023 200.086C114.625 201.272 112.061 202.209 109.343 202.841C103.067 204.295 96.7997 203.963 91.0636 202.191V202.191ZM67.0226 175.535C67.0668 174.475 67.2587 173.442 67.6381 172.635C70.2511 175.114 72.8313 176.071 74.1293 176.417C74.395 177.624 76.0263 184.108 81.0712 189.006C81.044 190.37 81.1217 192.871 81.8212 195.807C81.8748 196.058 81.9291 196.31 81.9916 196.559C79.9847 196.247 77.6469 194.431 75.712 192.566C71.6829 188.241 68.6911 182.845 67.2568 176.675C67.1684 176.295 67.0977 175.914 67.0226 175.535V175.535ZM81.3041 140.035C78.6368 142.466 76.3344 146.504 75.6482 147.775C72.1419 149.907 70.8704 152.223 70.8704 152.223C72.7202 149.795 74.6911 148.696 75.6438 148.268C78.2151 149.358 80.8288 151.372 81.5264 151.927C80.0825 158.393 80.5156 163.948 80.8534 166.487C79.8818 167.454 74.4847 172.948 74.104 176.088C73.7 175.971 73.1861 175.8 72.5857 175.545C71.2303 174.971 69.4664 173.977 67.7019 172.264C67.5529 171.531 66.871 167.968 66.6955 163.813C68.0611 154.225 73.3729 145.582 81.3041 140.035ZM106.686 134.116C108.401 134.563 110.472 135.201 112.588 136.109C112.589 136.112 112.59 136.112 112.591 136.115C113.15 136.351 113.708 136.622 114.263 136.898C114.416 136.974 114.571 137.041 114.724 137.121C115.261 137.401 115.786 137.715 116.303 138.036C116.437 138.119 116.576 138.189 116.706 138.272C117.994 139.108 119.194 140.076 120.222 141.186C120.319 141.625 120.397 142.064 120.45 142.496C120.458 142.565 120.473 142.636 120.481 142.704C120.518 143.044 120.524 143.368 120.54 143.698C120.588 144.977 120.502 146.171 120.365 147.157C120.286 147.606 120.212 147.996 120.146 148.355C120.118 148.494 120.087 148.629 120.059 148.751C119.443 148.661 118.819 148.603 118.189 148.589C118.135 148.586 118.083 148.581 118.031 148.579C118.031 148.583 118.032 148.586 118.033 148.589C113.609 148.523 109.093 150.088 107.79 150.581C105.952 149.229 100.352 145.32 94.5522 143.768C94.3906 139.698 95.253 136.807 95.253 136.807C89.9866 136.338 85.7574 137.652 84.0251 138.311C86.9058 136.671 90.0674 135.41 93.4651 134.622C97.9367 133.586 102.408 133.463 106.686 134.116V134.116ZM135.586 160.823C135.602 160.89 135.612 160.958 135.628 161.023C135.628 161.024 135.628 161.026 135.628 161.028C135.626 161.019 135.625 161.013 135.624 161.005C135.541 162.065 135.399 163.324 135.119 164.381C135.117 164.391 135.114 164.403 135.11 164.413C135.024 164.737 134.922 165.036 134.807 165.308C134.801 165.321 134.795 165.332 134.79 165.346C133.726 164.573 131.988 163.696 130.447 162.992C130.419 162.977 130.389 162.964 130.361 162.952C130.088 162.827 129.822 162.707 129.569 162.596C129.524 162.575 129.482 162.557 129.438 162.538C129.22 162.443 129.016 162.354 128.822 162.27C128.717 162.226 128.623 162.187 128.525 162.144C128.434 162.106 128.348 162.071 128.266 162.035C128.208 162.012 128.136 161.981 128.082 161.959C127.615 160.423 127.053 159 126.448 157.703C126.364 157.524 126.279 157.357 126.194 157.182C126.086 156.958 125.979 156.731 125.869 156.516C123.354 151.602 120.402 148.797 120.402 148.797C120.394 148.796 120.384 148.795 120.375 148.794C120.601 147.843 120.856 146.401 120.88 144.729C120.882 144.646 120.882 144.564 120.882 144.481C120.882 144.303 120.877 144.122 120.871 143.938C120.849 143.09 120.769 142.202 120.584 141.291C121.117 141.378 122.3 141.638 123.661 142.12C123.778 142.162 123.888 142.2 124.004 142.244C124.057 142.265 124.11 142.286 124.162 142.307C124.317 142.365 124.474 142.433 124.63 142.499C129.923 147.158 133.872 153.441 135.586 160.823V160.823ZM117.284 170.286C118.437 170.967 119.33 171.515 119.782 171.792C119.782 171.792 119.782 171.829 119.818 171.829C120.621 175.326 120.512 179.153 120.22 182.068C120.009 184.075 119.696 185.667 119.543 186.462C119.537 186.492 119.531 186.525 119.524 186.552C117.988 187.721 111.785 192.309 106.786 194.02C106.479 193.938 106.073 193.817 105.603 193.665C105.425 193.608 105.248 193.548 105.05 193.481C105.031 193.476 105.014 193.471 104.998 193.465C104.716 193.368 104.416 193.263 104.098 193.149C104.07 193.138 104.038 193.125 104.008 193.115C103.771 193.029 103.519 192.934 103.264 192.836C103.131 192.786 102.999 192.735 102.863 192.68C102.559 192.564 102.252 192.441 101.934 192.308C101.475 192.108 101.007 191.898 100.532 191.68C98.1722 190.584 95.6122 189.149 93.575 187.346C93.5737 187.285 93.3931 177.318 93.6823 173.163L106.978 164.92C108.928 165.506 114.052 168.401 117.284 170.286V170.286ZM81.8452 151.924C85.6084 147.336 93.14 144.556 94.3685 144.126C97.657 145.086 100.92 146.531 103.503 148.106C105.235 149.161 106.617 150.131 107.424 150.722C107.422 150.724 107.408 150.729 107.408 150.729C107.738 153.755 107.088 162.84 106.956 164.587L93.3963 172.995C91.931 172.253 84.854 168.65 81.1798 166.423C81.0579 165.518 80.9253 164.232 80.871 162.644C80.7757 159.824 80.9354 156.043 81.8452 151.924V151.924ZM92.9253 202.333C92.366 202.291 91.8041 202.231 91.2416 202.151C91.1179 202.133 90.9942 202.12 90.8698 202.103C90.7587 202.051 90.6469 201.995 90.5365 201.943C87.2271 200.347 84.0743 198.104 82.7341 197.082C82.7233 197.082 82.7139 197.084 82.7044 197.084C82.4897 196.922 82.3237 196.796 82.2132 196.707C82.1261 196.396 82.0339 196.082 81.9664 195.771C81.3155 192.961 81.229 190.541 81.2498 189.151C81.7429 189.294 87.1072 190.701 93.2852 187.494C95.2056 189.213 97.5712 190.606 99.8199 191.687C99.8174 191.687 99.8168 191.688 99.8149 191.69C99.9436 191.75 100.067 191.805 100.194 191.864C100.406 191.963 100.616 192.062 100.825 192.156C100.969 192.22 101.107 192.28 101.249 192.341C101.49 192.447 101.733 192.553 101.967 192.651C101.982 192.657 101.995 192.662 102.008 192.667C103.331 193.217 104.518 193.639 105.441 193.945C105.495 193.962 105.549 193.98 105.6 193.998C105.723 194.038 105.836 194.073 105.948 194.11C106.239 194.203 106.507 194.286 106.714 194.349L106.531 200.98C105.035 201.419 100.692 202.439 95.6179 202.439C94.9203 202.439 94.2019 202.417 93.4803 202.376C93.2965 202.366 93.1109 202.348 92.9253 202.333V202.333ZM135.069 177.625C134.979 177.866 134.88 178.087 134.785 178.318C134.637 178.679 134.495 179.047 134.341 179.389C134.317 179.443 134.291 179.492 134.267 179.545C134.048 180.025 133.824 180.493 133.596 180.938C132.304 183.433 130.867 185.359 129.6 186.806C128.507 188.042 127.487 188.877 126.831 189.425L119.891 186.296C120.258 184.578 120.97 180.351 120.684 175.861C120.683 175.829 120.68 175.797 120.678 175.764C120.653 175.37 120.617 174.973 120.574 174.574C120.567 174.515 120.563 174.459 120.555 174.4C120.459 173.563 120.331 172.726 120.146 171.901C122.786 170.06 125.726 165.893 127.182 163.646C127.606 162.998 127.908 162.516 128.046 162.291C128.099 162.311 128.149 162.334 128.207 162.357C128.853 162.642 129.72 163.011 130.659 163.447C131.402 163.79 132.159 164.17 132.851 164.545C132.879 164.557 132.904 164.572 132.928 164.586C133.134 164.698 133.321 164.807 133.509 164.916C133.947 165.172 134.333 165.42 134.645 165.653C134.643 165.658 134.64 165.666 134.637 165.67C134.637 165.67 135.732 170.39 135.719 174.792C135.718 174.929 135.716 175.065 135.713 175.2C135.711 175.328 135.708 175.456 135.702 175.584C135.7 175.662 135.695 175.74 135.69 175.817C135.538 176.303 135.374 176.766 135.209 177.225C135.16 177.355 135.118 177.496 135.069 177.625V177.625ZM135.624 176.514C135.624 176.507 135.624 176.493 135.624 176.473C135.636 176.44 135.646 176.407 135.658 176.373C135.658 176.373 135.658 176.374 135.658 176.376C135.646 176.422 135.634 176.468 135.624 176.514ZM101.421 132.471C81.3471 132.471 65.0674 148.688 65.0674 168.73C65.0674 188.772 81.3471 205.026 101.421 205.026C121.497 205.026 137.74 188.772 137.74 168.73C137.74 148.688 121.497 132.471 101.421 132.471Z" fill="#4296CC"/>
<path d="M66.5634 27.775L57.7288 32.4026L59.4088 22.6004L52.2901 15.6389L62.1461 14.2189L66.5634 5.29023L70.9795 14.2189L80.8703 15.6389L73.7168 22.6004L75.3955 32.4026L66.5634 27.775V27.775ZM85.5799 14.5838L72.4391 12.6885L66.5634 0.808899L60.6865 12.6885L47.583 14.5838L57.0723 23.8383L54.809 36.8858L66.5634 30.7267L78.3153 36.8858L76.0527 23.8383L85.5799 14.5838V14.5838Z" fill="#4296CC"/>
<path d="M66.5636 8.2262L70.1027 15.3333L77.9506 16.4634L72.2567 22.003L73.6077 29.8368L66.5636 26.1206L59.5187 29.8368L60.8685 22.003L55.1753 16.4634L63.0585 15.3333L66.5636 8.2262Z" fill="#F8C92F"/>
<path d="M136.535 27.775L127.701 32.4026L129.381 22.6004L122.228 15.6389L132.118 14.2189L136.535 5.29023L140.952 14.2189L150.807 15.6389L143.689 22.6004L145.369 32.4026L136.535 27.775V27.775ZM155.515 14.5838L142.411 12.6885L136.535 0.808899L130.658 12.6885L117.518 14.5838L127.045 23.8383L124.783 36.8858L136.535 30.7267L148.288 36.8858L146.025 23.8383L155.515 14.5838V14.5838Z" fill="#4296CC"/>
<path d="M136.462 8.22351L139.966 15.3306L147.85 16.4607L142.155 22.0003L143.506 29.8341L136.462 26.1179L129.416 29.8341L130.767 22.0003L125.073 16.4607L132.958 15.3306L136.462 8.22351Z" fill="#F8C92F"/>
<path d="M72.8047 234.107C72.294 233.888 72.0749 233.778 71.5648 233.523L71.3811 233.596C70.7978 234.834 70.4695 235.455 69.8849 236.731L69.7024 236.766H69.6658L69.556 236.621C69.0093 234.799 68.7889 233.888 68.388 232.065L68.2422 231.846C67.8047 231.592 67.549 231.483 67.1109 231.228L66.9285 231.265C65.8691 233.086 65.3584 233.998 64.3369 235.819L64.4095 235.964C64.9215 236.292 65.1766 236.437 65.7233 236.695L65.9063 236.657C66.4177 235.746 66.6362 235.273 67.1469 234.361C67.4771 235.71 67.6589 236.366 68.0604 237.714C68.0964 237.861 68.1696 237.97 68.3155 238.043C69.2283 238.479 69.6658 238.698 70.6153 239.134L70.7245 239.061C71.6014 237.132 72.0023 236.183 72.8773 234.289L72.8047 234.107V234.107Z" fill="#4296CC"/>
<path d="M79.8121 236.803C79.5198 236.694 79.3367 236.621 79.0457 236.548V236.512C78.8626 236.474 78.754 236.437 78.5715 236.365H78.5349L78.4257 236.437L78.3891 236.512C77.9863 237.605 77.622 238.662 77.2571 239.756L77.2205 239.792C77.1113 240.046 76.7818 240.191 76.4535 240.082C75.5406 239.756 75.0665 239.573 74.1536 239.209C73.8247 239.061 73.6795 238.771 73.7527 238.479L73.7887 238.443C73.8986 238.115 73.9712 237.97 74.081 237.64L74.1176 237.605C74.5198 236.657 74.7016 236.183 75.1031 235.201L75.0665 235.053L75.0305 235.017C74.5564 234.834 74.3007 234.725 73.8247 234.507L73.6795 234.58H73.6435C73.0596 236.002 72.73 236.694 72.1467 238.079L72.1107 238.115V238.151L72.0734 238.224C71.8916 238.771 72.1107 239.427 72.5842 239.865C72.7666 240.01 72.9503 240.119 73.1688 240.228C74.5198 240.775 75.1757 241.031 76.5267 241.504C76.7451 241.577 76.9636 241.613 77.1839 241.613C77.8405 241.577 78.3891 241.249 78.6441 240.703L78.6808 240.667V240.63L78.7167 240.557C79.1909 239.098 79.4099 238.407 79.8853 236.949L79.8121 236.803V236.803Z" fill="#4296CC"/>
<path d="M84.9596 240.265L84.923 240.409C84.8138 240.739 84.4861 240.922 84.1212 240.848C83.2443 240.63 82.8068 240.519 81.9666 240.265L81.8573 240.12C82.0032 239.682 82.0398 239.463 82.1856 239.025L82.3315 238.953C83.1717 239.171 83.6092 239.281 84.4489 239.5C84.8138 239.573 85.0328 239.937 84.9596 240.265V240.265ZM86.0183 241.468C86.2374 241.286 86.3832 240.994 86.4558 240.703C86.4931 240.519 86.4931 240.409 86.5669 240.229C86.7494 239.39 86.1641 238.552 85.2891 238.334C83.6452 237.934 82.8434 237.714 81.2014 237.24L81.0537 237.313C80.4344 239.318 80.1061 240.338 79.5215 242.342L79.5941 242.489C80.1421 242.67 80.3977 242.743 80.9444 242.888L81.0916 242.815C81.2374 242.342 81.3106 242.124 81.4198 241.685L81.5657 241.613C82.661 241.904 83.2083 242.051 84.303 242.306C84.7405 242.416 85.0328 242.815 84.923 243.216C84.887 243.436 84.887 243.546 84.8138 243.764L84.923 243.909C85.4716 244.019 85.7267 244.092 86.2734 244.201L86.4192 244.092C86.4931 243.655 86.5303 243.436 86.6035 242.998C86.7128 242.489 86.5303 241.978 86.1642 241.613L86.0183 241.468V241.468Z" fill="#4296CC"/>
<path d="M91.275 243.252L91.4574 243.143C91.494 242.706 91.5306 242.489 91.6026 242.051L91.494 241.904C90.2529 241.722 89.6329 241.613 88.4284 241.395L88.2459 241.504C88.1727 241.941 88.1367 242.161 88.0635 242.597L88.1727 242.743C89.4139 242.961 90.0344 243.071 91.275 243.252V243.252Z" fill="#4296CC"/>
<path d="M98.4631 245.548C99.0849 245.367 99.559 244.821 99.5944 244.201V244.164C99.5944 243.982 99.5944 243.909 99.5944 243.764C99.6323 243.107 99.1941 242.525 98.5723 242.27L98.5003 242.233C98.3172 242.161 98.136 242.124 97.953 242.124C96.7484 242.051 96.1285 242.014 94.9239 241.904C94.7781 241.904 94.4852 241.794 94.5211 241.468C94.5578 241.176 94.9239 241.14 94.9599 241.14C95.9814 241.249 96.4927 241.285 97.4788 241.321C97.7345 241.321 97.8797 241.43 97.8797 241.649V241.758L97.9889 241.904C98.5003 241.941 98.7554 241.941 99.2667 241.941L99.4132 241.868V241.722C99.4132 241.285 99.2667 240.994 99.0117 240.703L98.8299 240.519L98.6455 240.374L98.4271 240.264H98.3911C98.244 240.191 98.0268 240.155 97.8437 240.119C96.6026 240.082 95.9814 240.01 94.7781 239.901C94.5578 239.901 94.3759 239.901 94.1569 239.972L93.9384 240.046L93.7187 240.155L93.5369 240.301C93.28 240.519 93.0615 240.812 92.9883 241.14L92.9517 241.43V241.613C92.9517 241.978 93.0616 242.342 93.316 242.634C93.4637 242.779 93.6461 242.924 93.8286 243.034H93.8646C94.047 243.107 94.2661 243.18 94.4479 243.18C95.6897 243.327 96.3109 243.363 97.5887 243.436C97.6979 243.436 97.9889 243.546 97.9889 243.835C97.9889 244.054 97.7705 244.237 97.5521 244.201C96.3835 244.164 95.7996 244.091 94.6676 243.982C94.3027 243.982 94.3027 243.691 94.3027 243.691L94.1569 243.546C93.6461 243.472 93.3911 243.472 92.8425 243.4L92.7326 243.472L92.6967 243.546V243.655C92.6241 244.31 92.9883 244.93 93.6095 245.22H93.6462C93.8286 245.293 94.047 245.367 94.2661 245.403C95.6531 245.512 96.3835 245.585 97.8078 245.658C98.0268 245.658 98.244 245.621 98.4631 245.548V245.548Z" fill="#4296CC"/>
<path d="M105.766 245.621C105.985 245.585 106.203 245.548 106.386 245.439C106.97 245.184 107.371 244.675 107.371 244.054V243.909C107.262 242.415 107.19 241.649 107.044 240.119L106.934 240.01C106.606 240.046 106.458 240.046 106.131 240.082C105.948 240.082 105.839 240.082 105.656 240.082L105.62 240.119L105.546 240.228V240.301C105.583 241.467 105.656 242.596 105.73 243.726V243.764C105.73 244.054 105.474 244.31 105.145 244.346C104.159 244.382 103.685 244.382 102.698 244.418C102.371 244.418 102.115 244.201 102.079 243.873V243.835C102.079 243.508 102.079 243.327 102.079 242.998V242.961C102.079 241.941 102.043 241.394 102.043 240.338L101.97 240.228H101.934C101.385 240.228 101.166 240.228 100.619 240.228L100.51 240.338C100.51 241.868 100.474 242.634 100.474 244.164V244.31C100.51 244.894 100.947 245.403 101.532 245.621C101.751 245.695 101.97 245.731 102.189 245.731C103.611 245.695 104.343 245.695 105.766 245.621V245.621Z" fill="#4296CC"/>
<path d="M114.963 243.143C113.174 243.472 112.261 243.617 110.401 243.836L110.255 243.764C110.072 242.197 109.999 241.43 109.78 239.865L109.633 239.756C109.123 239.827 108.868 239.865 108.357 239.901L108.282 240.046C108.467 242.124 108.576 243.18 108.795 245.258L108.94 245.367C111.459 245.113 112.736 244.93 115.219 244.455L115.328 244.31C115.255 243.873 115.219 243.655 115.146 243.252L114.963 243.143V243.143Z" fill="#4296CC"/>
<path d="M119.818 237.676C117.556 238.37 116.386 238.662 114.088 239.134L113.979 239.281C114.052 239.719 114.125 239.901 114.198 240.338L114.343 240.447C115.184 240.264 115.584 240.155 116.386 239.973L116.571 240.046C116.935 241.577 117.118 242.342 117.482 243.873L117.628 243.945C118.176 243.836 118.468 243.764 118.979 243.617L119.088 243.472C118.687 241.941 118.504 241.176 118.103 239.682L118.176 239.537C118.979 239.318 119.381 239.209 120.184 238.953L120.293 238.806C120.184 238.37 120.11 238.188 119.965 237.75L119.818 237.676V237.676Z" fill="#4296CC"/>
<path d="M126.643 238.188C125.402 238.697 124.746 238.953 123.467 239.39L123.284 239.318C123.211 239.061 123.175 238.916 123.066 238.662C122.956 238.334 123.175 237.97 123.505 237.86C124.343 237.567 124.782 237.386 125.62 237.059C125.985 236.949 126.352 237.094 126.461 237.386C126.571 237.64 126.643 237.786 126.716 238.043L126.643 238.188V238.188ZM125.658 235.636C124.416 236.111 123.796 236.365 122.519 236.803C121.679 237.094 121.168 237.97 121.46 238.807C121.898 240.264 122.154 240.994 122.592 242.415L122.773 242.525C123.321 242.342 123.577 242.233 124.088 242.051L124.197 241.904C124.052 241.468 123.979 241.249 123.833 240.812L123.905 240.63C125.22 240.191 125.875 239.937 127.154 239.427L127.335 239.5C127.484 239.937 127.593 240.155 127.739 240.592L127.92 240.63C128.467 240.447 128.722 240.338 129.235 240.119L129.308 239.937C128.722 238.552 128.431 237.823 127.811 236.437C127.484 235.636 126.498 235.272 125.658 235.636V235.636Z" fill="#4296CC"/>
<path d="M134.346 231.628L134.162 231.592C133.688 231.846 133.433 231.992 132.958 232.248L132.886 232.429C133.542 233.633 133.871 234.251 134.528 235.491L134.492 235.673H134.418L134.273 235.71C132.483 235.053 131.609 234.689 129.892 233.924H129.636C129.162 234.143 128.943 234.251 128.468 234.47L128.396 234.653C129.236 236.548 129.673 237.496 130.549 239.427L130.732 239.463C131.279 239.209 131.535 239.098 132.083 238.844L132.154 238.662C131.718 237.714 131.46 237.24 131.024 236.292C132.301 236.84 132.958 237.059 134.273 237.531C134.382 237.605 134.528 237.605 134.674 237.531C135.586 237.059 136.024 236.804 136.9 236.292L136.936 236.147C135.914 234.361 135.368 233.45 134.346 231.628V231.628Z" fill="#4296CC"/>
<path d="M98.9414 262.604C98.9414 263.26 98.9035 263.659 98.7571 263.843C98.6472 263.989 98.3928 264.062 97.9906 264.062H97.6624C97.2608 264.062 97.0045 263.989 96.8593 263.807C96.7141 263.659 96.6769 263.26 96.6769 262.604V261.183C96.6769 260.563 96.7141 260.162 96.8593 259.98C97.0045 259.835 97.2608 259.726 97.6624 259.726H97.9906C98.3928 259.726 98.6472 259.835 98.7571 259.98C98.9035 260.125 98.9414 260.527 98.9414 261.183V262.604V262.604ZM98.2457 258.084H97.3694C96.3852 258.084 95.7274 258.303 95.3265 258.74C94.9256 259.177 94.7432 259.98 94.7432 261.11V262.677C94.7432 263.807 94.9256 264.608 95.3265 265.081C95.7274 265.519 96.3852 265.737 97.3694 265.737H98.2457C99.2318 265.737 99.925 265.519 100.291 265.045C100.693 264.608 100.875 263.807 100.875 262.677V261.11C100.875 259.98 100.693 259.214 100.291 258.74C99.925 258.303 99.2318 258.084 98.2457 258.084V258.084Z" fill="#4296CC"/>
<path d="M113.247 260.708C113.247 260.926 113.211 261.074 113.102 261.146C113.028 261.219 112.774 261.255 112.408 261.255H112.006C111.642 261.255 111.387 261.255 111.313 261.183C111.204 261.11 111.168 260.926 111.168 260.708V260.162C111.168 259.907 111.204 259.761 111.313 259.688C111.423 259.615 111.642 259.578 112.006 259.578H112.408C112.774 259.578 112.992 259.615 113.102 259.688C113.211 259.761 113.247 259.907 113.247 260.162V260.708V260.708ZM112.664 258.084H111.787C110.947 258.084 110.327 258.23 109.889 258.558C109.488 258.886 109.269 259.396 109.269 260.053V260.708C109.269 261.4 109.451 261.911 109.78 262.275C110.108 262.604 110.619 262.749 111.313 262.749H112.042C112.298 262.749 112.517 262.713 112.736 262.639C112.919 262.568 113.102 262.421 113.247 262.275V263.587C113.247 263.879 113.211 264.024 113.138 264.134C113.028 264.207 112.809 264.243 112.481 264.243H112.006C111.751 264.243 111.568 264.207 111.459 264.134C111.387 264.062 111.349 263.915 111.349 263.698V263.587H109.451V264.062C109.451 264.608 109.67 265.045 110.036 265.301C110.436 265.592 111.02 265.737 111.787 265.737H112.664C113.575 265.737 114.234 265.519 114.598 265.045C114.962 264.608 115.145 263.807 115.145 262.677V261.11C115.145 259.98 114.962 259.177 114.598 258.74C114.234 258.303 113.575 258.084 112.664 258.084V258.084Z" fill="#4296CC"/>
<path d="M92.9158 258.596C92.5156 258.23 91.9304 258.084 91.2012 258.084H90.1059C89.3401 258.084 88.7555 258.23 88.354 258.596C87.9525 258.923 87.7694 259.433 87.7694 260.053V260.745H89.5951V260.307C89.5951 260.053 89.6684 259.835 89.7776 259.761C89.9234 259.653 90.1419 259.578 90.4708 259.578H90.8003C91.128 259.578 91.347 259.653 91.4562 259.726C91.6014 259.835 91.6747 260.053 91.6747 260.307V260.599C91.6747 260.781 91.6014 260.926 91.5295 261.001C91.4562 261.11 91.3104 261.183 91.0914 261.255L88.9007 261.911C88.4998 262.02 88.1715 262.239 87.9891 262.568C87.7694 262.896 87.6968 263.331 87.6968 263.879V265.629H93.5004V263.989H89.6317V263.698C89.6317 263.55 89.6684 263.441 89.7416 263.405C89.7776 263.331 89.9234 263.26 90.0692 263.222L92.1867 262.639C92.6614 262.53 92.9891 262.311 93.2075 261.947C93.4644 261.619 93.5743 261.183 93.5743 260.636V260.016C93.5743 259.396 93.3546 258.923 92.9158 258.596V258.596Z" fill="#4296CC"/>
<path d="M106.166 262.604C106.166 263.26 106.092 263.659 105.947 263.843C105.837 263.989 105.581 264.062 105.18 264.062H104.851C104.45 264.062 104.195 263.989 104.048 263.807C103.938 263.659 103.866 263.26 103.866 262.604V261.183C103.866 260.563 103.938 260.162 104.048 259.98C104.195 259.835 104.45 259.726 104.851 259.726H105.18C105.581 259.726 105.837 259.835 105.947 259.98C106.092 260.125 106.166 260.527 106.166 261.183V262.604V262.604ZM105.472 258.084H104.56C103.61 258.084 102.917 258.303 102.515 258.74C102.151 259.177 101.932 259.98 101.932 261.11V262.677C101.932 263.807 102.151 264.608 102.515 265.081C102.917 265.519 103.61 265.737 104.56 265.737H105.472C106.421 265.737 107.115 265.519 107.517 265.045C107.881 264.608 108.099 263.807 108.099 262.677V261.11C108.099 259.98 107.881 259.214 107.517 258.74C107.115 258.303 106.421 258.084 105.472 258.084V258.084Z" fill="#4296CC"/>
</g>
<defs>
<clipPath id="clip0">
<rect width="202.841" height="300" fill="white"/>
</clipPath>
</defs>
</svg>