<?xml version="1.0" encoding="UTF-8" standalone="no"?>
<svg xmlns:rdf="http://www.w3.org/1999/02/22-rdf-syntax-ns#" xmlns="http://www.w3.org/2000/svg" height="297.80834" width="208.60155" version="1.1" xmlns:cc="http://creativecommons.org/ns#" xmlns:dc="http://purl.org/dc/elements/1.1/" viewBox="0 0 208.60155 297.80834"><path d="M104.3405,42.90967H205.33432a5.49566,5.49566,0,0,1,1.08908.0726c1.52471.29042,2.03293,1.3069,2.17815,2.68639V233.35309a6.88966,6.88966,0,0,1-1.16168,3.92067,29.83549,29.83549,0,0,1-4.57412,5.44539c-2.759,2.759-5.73581,5.37278-8.71263,7.84135a312.581,312.581,0,0,1-26.93652,19.74862A188.09536,188.09536,0,0,1,139.554,285.2658a295.63043,295.63043,0,0,1-33.6162,12.27027,5.71086,5.71086,0,0,1-3.48505,0,287.9,287.9,0,0,1-38.40814-14.521A189.4081,189.4081,0,0,1,36.019,266.67886c-7.04271-4.86455-13.9402-9.87431-20.54727-15.31969a104.80041,104.80041,0,0,1-10.74557-9.7291c-1.16168-1.30688-2.25076-2.61379-3.33984-3.99328a7.25969,7.25969,0,0,1-1.3795-4.57412V46.17692c0-.43563.07261-.87126.07261-1.3069a2.30347,2.30347,0,0,1,2.32336-2.03294h.94387l100.99382.07259ZM2.47541,45.37825V232.69962a6.42936,6.42936,0,0,0,1.3069,3.99329c.29042.43563.65345.79866.94387,1.2343a77.78742,77.78742,0,0,0,9.29347,9.003,270.34918,270.34918,0,0,0,22.5076,17.13483,200.58728,200.58728,0,0,0,22.65282,13.795,272.05938,272.05938,0,0,0,44.507,17.42524,1.99136,1.99136,0,0,0,1.45211-.0726,298.93285,298.93285,0,0,0,28.96946-10.30995,188.355,188.355,0,0,0,23.37888-11.47161,283.03058,283.03058,0,0,0,36.44782-25.84745,87.22856,87.22856,0,0,0,9.22087-8.71263,17.49355,17.49355,0,0,0,2.61379-3.485,4.3125,4.3125,0,0,0,.50824-1.88774V45.30563L2.47541,45.37825Z" fill="#f5fafb"/><path d="M138.97316,11.61683c-3.122,2.46858-6.38926,4.71934-9.51129,7.11531l3.70287,11.32641a1.45938,1.45938,0,0,1-.58084-.29043l-8.277-6.02622a10.619,10.619,0,0,0-.94387-.65345c-3.26723,2.32337-6.38925,4.64673-9.58388,6.89749l-.14521-.14521,3.63026-11.1812a3.80527,3.80527,0,0,0-.79866-.72605c-2.759-2.03294-5.5906-4.06589-8.3496-6.02623-.1452-.0726-.21781-.21781-.50823-.50823.79866-.07261,1.66992-.07261,2.46857-.07261h9.58389L123.36305,0h.14521l3.70287,11.32641C131.13181,11.47162,135.05248,11.47162,138.97316,11.61683Z" fill="#ec8f23"/><path d="M81.61507,11.47162,85.31794.14521c1.4521,3.70287,2.61379,7.47833,3.92068,11.32641H100.202c.29042,0,.58085.07261.87126.07261l.07261.21781L91.562,18.73214l3.63026,11.2538-.14521.14521-9.58388-6.9701-9.58388,6.9701-.14521-.14521,3.63026-11.2538c-3.122-2.396-6.38926-4.64674-9.58389-7.04271a.79623.79623,0,0,1,.87126-.21781Z" fill="#ec8f23"/><path d="M2.47541,45.37825H206.133V233.57089a3.51751,3.51751,0,0,1-.50825,1.88774,17.4926,17.4926,0,0,1-2.61379,3.485,94.89147,94.89147,0,0,1-9.22087,8.71263,278.085,278.085,0,0,1-36.44781,25.84745,183.48151,183.48151,0,0,1-23.37888,11.47161,285.76991,285.76991,0,0,1-28.96947,10.30994,3.224,3.224,0,0,1-1.4521.07261,272.059,272.059,0,0,1-44.507-17.42524,200.58728,200.58728,0,0,1-22.65282-13.795,270.34663,270.34663,0,0,1-22.50761-17.13483,84.32592,84.32592,0,0,1-9.29346-9.07564,7.926,7.926,0,0,1-.94387-1.2343,6.34222,6.34222,0,0,1-1.3069-4.0659V46.3947l.14526-1.01645ZM149.2831,253.75513V107.60089h-22.435V266.89667c-7.40573,3.04943-14.81146,5.80842-22.50761,8.277V107.6735H14.31006V231.17493a7.22978,7.22978,0,0,0,.72605.79866c2.25076,2.10555,4.42892,4.2111,6.67968,6.17144a272.54625,272.54625,0,0,0,22.65282,17.13483,200.15992,200.15992,0,0,0,19.676,11.97986,253.22769,253.22769,0,0,0,39.715,15.90053,1.79972,1.79972,0,0,0,1.23429,0c8.56741-2.6864,16.98961-5.7358,25.194-9.22087A178.871,178.871,0,0,0,151.67907,263.339a274.23487,274.23487,0,0,0,27.44475-18.87735,143.17843,143.17843,0,0,0,12.41549-10.45514l2.759-2.759V107.6735H171.79069v130.762a260.61015,260.61015,0,0,1-22.50759,15.31968ZM135.3429,63.52954a10.76617,10.76617,0,0,0-4.86455-4.64673,15.12471,15.12471,0,0,0-12.77851,0,10.52126,10.52126,0,0,0-4.50152,3.84808,2.44754,2.44754,0,0,0-.363,1.23428V88.94136a2.44758,2.44758,0,0,0,.363,1.23429,9.75131,9.75131,0,0,0,4.35631,3.84807,14.867,14.867,0,0,0,12.77852.07261,10.75265,10.75265,0,0,0,4.93714-4.57413l.07261-25.99266Zm25.557,16.40877a8.69009,8.69009,0,0,0,2.8316-3.63025,4.23964,4.23964,0,0,0,.29042-1.3069V64.546a3.39635,3.39635,0,0,0-.65344-2.03295,9.86973,9.86973,0,0,0-7.84135-3.99328c-4.28371-.07261-8.56741,0-12.77852,0a1.59875,1.59875,0,0,0-.58084.0726V94.60456h9.43868V81.3178l.50824.07261L156.25323,94.532H164.022V89.30437a3.25083,3.25083,0,0,0-.29041-1.4521c-.8713-2.68638-1.88779-5.30017-2.83165-7.914ZM184.424,86.03715l.87127,8.49481h9.003V91.55514a36.70258,36.70258,0,0,0-.14522-3.99329c-.14522-1.66992-.50824-3.26723-.79866-4.86454-.58083-3.48505-1.08908-7.0427-1.66991-10.60036-.65344-3.92068-1.2343-7.914-1.88774-11.83464-.07261-.58084-.21781-1.16168-.29042-1.74253h-14.158q-.10892.65345-.2178,1.3069c-.58084,3.55766-1.08908,7.11531-1.66991,10.673-.50825,3.122-.94386,6.17144-1.45211,9.29347-.43563,2.759-.94386,5.44539-1.30688,8.20438-.21781,1.74252-.07261,3.55765-.14522,5.30018v1.3069h8.3496l1.01646-8.49481H184.424v-.07261ZM59.7609,79.13966H50.90307v6.67967a1.67726,1.67726,0,0,1-1.52471,1.74252h-.14521a1.87145,1.87145,0,0,1-2.03295-1.66992v-.14521c.07261-4.06589,0-8.05917,0-12.12506V67.1598a1.67961,1.67961,0,0,1,1.01647-1.52471,1.8872,1.8872,0,0,1,2.46857.79866,2.00979,2.00979,0,0,1,.21782.94386c-.07261,1.66993,0,3.41245,0,5.155a2.01,2.01,0,0,0,.07261.65345H59.7609V62.65828a11.90244,11.90244,0,0,0-5.30018-4.1385,15.69018,15.69018,0,0,0-10.30993-.1452,10.57624,10.57624,0,0,0-5.80842,4.35631,2.618,2.618,0,0,0-.43563,1.4521V88.79615a2.39046,2.39046,0,0,0,.43563,1.3795,10.797,10.797,0,0,0,4.28371,3.77546,15.34024,15.34024,0,0,0,12.63329.29042,10.15488,10.15488,0,0,0,4.57413-3.77547l-.0726-11.3264ZM23.894,94.532V80.22874h7.18791V73.11343H23.96655V65.41728h7.26052v-6.9701H14.52787V94.532Zm52.13052,0V80.15613H83.285v-7.0427H76.09708V65.34467H83.3576V58.44718H66.65841V94.45935l9.36606.07261Zm14.158-36.08478V94.532h16.04575V87.56185H99.476V58.51978l-9.29346-.0726Z" fill="#009639"/><path d="M149.2831,253.82774a261.26185,261.26185,0,0,0,22.50761-15.39231V107.6735h22.65283v123.574c-.87127.87127-1.74252,1.81513-2.759,2.759q-5.98992,5.55431-12.41549,10.45514A282.84755,282.84755,0,0,1,151.82431,263.339a178.87188,178.87188,0,0,1-21.49114,10.60036c-8.277,3.485-16.6992,6.53447-25.26661,9.22087a1.79972,1.79972,0,0,1-1.23429,0,253.23021,253.23021,0,0,1-39.715-15.90053,175.58771,175.58771,0,0,1-19.676-11.97986A260.98092,260.98092,0,0,1,21.78841,238.145c-2.32336-1.96035-4.50152-4.1385-6.67967-6.17144a7.94889,7.94889,0,0,1-.72606-.79866V107.6735h90.03044V275.17366c7.69615-2.46857,15.10188-5.155,22.50761-8.277V107.60089h22.435l-.07264,146.22685ZM29.92017,145.4282l-.14521-.07261a3.64406,3.64406,0,0,0,.14521-.87126,6.54418,6.54418,0,0,0-3.04941-6.9701,10.478,10.478,0,0,0-1.16169,4.64672,5.72274,5.72274,0,0,0,2.396,5.00976c.0726.07261.21782.14521.29042.29041l-2.46858,5.00976c0-.50824-.0726-.79866-.0726-1.08908a3.42534,3.42534,0,0,0-1.16168-2.32336,7.14655,7.14655,0,0,0-4.35631-1.45211,5.844,5.844,0,0,0,.726,3.485c.94387,1.81513,2.68639,2.32337,4.57413,2.54119a41.9383,41.9383,0,0,0-.363,10.45514,1.84692,1.84692,0,0,0-.50823-.14521,1.01419,1.01419,0,0,0-1.08908.21782,3.69954,3.69954,0,0,0-1.16168,3.04941.88687.88687,0,0,0,.29042.65345,2.55614,2.55614,0,0,1,.72605,1.37949,1.31207,1.31207,0,0,0,1.16168,1.01647c.72605.14521,1.45211.29041,2.10555.363.79866,1.81513.87126,1.88774,1.52471,2.03295.43563-.43563-.0726-1.08908.07261-1.4521a38.0482,38.0482,0,0,0,4.06589-.14521c2.03294-.363,3.92068-.87126,5.95362-1.37949a18.933,18.933,0,0,0,6.8975-3.55765c.79866-.58085,1.66992-1.16169,2.61379-1.81513a15.36,15.36,0,0,1,.14521,1.74252c.07261,1.37949.07261,2.759.21781,4.06589a5.79379,5.79379,0,0,0,1.3069,3.55765,10.06247,10.06247,0,0,1,3.84808.726v.07261c-.50824,3.26724-1.01647,6.46186-1.45211,9.72909a50.75954,50.75954,0,0,0-.58084,5.80842c-.07261,2.46857-.07261,4.93714-.07261,7.40574,0,1.66991.14521,3.26723.21782,4.93714a1.78308,1.78308,0,0,0,.58084,1.52471,8.78621,8.78621,0,0,0,1.3795.07261A1.47779,1.47779,0,0,1,55.2594,205.037a4.09316,4.09316,0,0,1,.29041.87127c.21782,1.30689.363,2.54118.50824,3.84807.21781,1.66991,0,3.33984.65344,5.00975a20.6835,20.6835,0,0,0-3.33984,4.2837c-1.52472,2.17816-2.97682,4.42892-4.50152,6.60708-.79867,1.2343-1.66993,2.54118-2.396,3.84807a20.911,20.911,0,0,0-.94387,2.25076,1.46168,1.46168,0,0,0,.363,1.59733c.14521.2178.363.363.50823.58083a7.17266,7.17266,0,0,1,1.52472,2.32337,8.05042,8.05042,0,0,0,1.23428,2.17816,14.37567,14.37567,0,0,0,4.86455,3.99328,5.38693,5.38693,0,0,0,2.54118.72606,1.032,1.032,0,0,1,.43563.14521,3.15766,3.15766,0,0,1-.43563.50825,2.04647,2.04647,0,0,0-.43564,2.759,10.63523,10.63523,0,0,0,1.23429,1.74252c.65344.79866,1.3069,1.59732,2.03295,2.396,1.16168,1.30689,2.25076,2.61379,3.48505,3.92068a4.32463,4.32463,0,0,0,1.52471,1.01646,1.20676,1.20676,0,0,0,1.66992-.43563,1.346,1.346,0,0,0,.14521-.50825l.21782-.43563.58084.21781c1.3069.58083,2.54118,1.16168,3.84808,1.66991a12.09713,12.09713,0,0,0,2.17816.58083,1.61874,1.61874,0,0,0,1.81513-.58083,1.143,1.143,0,0,0-.363-1.2343,5.31456,5.31456,0,0,1-1.37949-2.17816c-.58085-1.52471-1.01647-3.122-1.59732-4.71933-.07261-.29042-.1452-.58084-.21781-.79867a7.48337,7.48337,0,0,0,3.122-3.41245,27.13429,27.13429,0,0,0,1.59731-3.70287A93.433,93.433,0,0,0,80.01776,221.591c.21782-1.4521.363-2.90421.65344-4.35631a30.38893,30.38893,0,0,0,.65344-7.26052c-.1452-2.32338-.43563-4.64673-.72605-6.9701-.363-2.759-.72605-5.44539-1.08908-8.20438-.50823-3.33984-1.01646-6.67969-1.52471-10.09212a9.81653,9.81653,0,0,1-.21782-2.90421,3.72185,3.72185,0,0,0,2.90421.50825,17.958,17.958,0,0,1,4.35631-.58083,1.63238,1.63238,0,0,0,1.4521-.65345l.363-2.25076a8.87286,8.87286,0,0,1,2.396,3.84807,3.95738,3.95738,0,0,0,.87126,1.74252c.94387,1.16168,2.03295,2.17815,3.04942,3.26723a6.34908,6.34908,0,0,0,.72605.58083.48552.48552,0,0,0,.50824-.43563v-.21781l.1452-.14522c.29042.29042.65345.58083.94387.87127a.88008.88008,0,0,0,1.08908.14522l.07261-.72605.94387.50824.43564-.50824-.43564-.87127c.363-.07261.79866,0,.87126-.58084l-3.48505-4.71933h0l1.23429.29041a1.12792,1.12792,0,0,0,1.4521-.65344v-.07261l-.29042-.29041a12.8413,12.8413,0,0,1-3.122-2.03294,4.4951,4.4951,0,0,0-1.23429-.79866,5.37981,5.37981,0,0,1-2.68639-2.54118,6.38415,6.38415,0,0,0-.43563-.72606c-.79866-1.4521-1.66992-2.83159-2.396-4.35631a90.79591,90.79591,0,0,0-5.7358-10.81817,7.26742,7.26742,0,0,1-1.16169-4.42892,36.90387,36.90387,0,0,0-.363-7.47833,7.03217,7.03217,0,0,0-3.122-5.00976c-1.59731-1.01647-3.33984-1.88774-5.00975-2.759a2.935,2.935,0,0,1-1.3795-3.33984h.79866c.58085.07261,1.08908.21782,1.59731.29042,1.01647.07261,1.45211-.29042,1.52472-1.3069v-.65344l.43563-.43564.363-1.81513.94387-.29041c.07261-.07261.14521-.14521.14521-.21782-.363-1.4521-.72605-2.90421-1.16169-4.35631.79866-.87126.14521-1.81513.14521-2.759l.363-.50824a6.44765,6.44765,0,0,0-.94387-3.48505,2.18024,2.18024,0,0,0-1.37949-1.16168,2.68213,2.68213,0,0,1-1.01647-.50824,3.93955,3.93955,0,0,0-2.61379-1.01647,22.4002,22.4002,0,0,0-3.122,0,9.58018,9.58018,0,0,0-5.37278,1.66993,3.39217,3.39217,0,0,1-.72606.363,2.247,2.247,0,0,0-2.9042,1.23429v.07261l-1.3795-.07261a2.17319,2.17319,0,0,0-.29041.58084A24.5569,24.5569,0,0,0,55.332,124.663a17.78646,17.78646,0,0,0-.58084,2.8316,3.98233,3.98233,0,0,0,1.66992,3.84808c.50824.363,1.01647.726,1.45211,1.08908a3.73826,3.73826,0,0,0,2.10554.94387c.50824.87126,1.01647,1.66992,2.03295,1.88773a4.83146,4.83146,0,0,1,.50823,2.68639,1.7308,1.7308,0,0,1-.43563.79867,2.734,2.734,0,0,1-1.08908.65344,22.98857,22.98857,0,0,1-3.19462.87126c-2.97682.29041-4.86455,1.96034-6.24405,4.42892-.14521.29042-.29042.50823-.43564.79866l-2.759,5.73581a29.64827,29.64827,0,0,1-8.4948,10.673q-2.396,1.85142-4.79195,3.70287a10.62049,10.62049,0,0,1-.94387.65344,2.95927,2.95927,0,0,1-3.77546-.07261c-.94387-.726-1.74253-1.52471-2.61379-2.25077l-.65345-.58084-.50823.58084L26.43512,160.53c1.3795.14521,2.61379.29042,3.70286-.65344a6.49019,6.49019,0,0,0,1.88774-3.26723c-1.88774-.65345-3.70286-.72606-5.37279.72605a19.36827,19.36827,0,0,1,1.16169-5.00976c1.74252.87126,3.485,1.66993,5.518,1.08908a8.09638,8.09638,0,0,0,4.42891-3.48505c-1.30689-.94387-2.54118-1.81513-4.13849-1.74252a5.92062,5.92062,0,0,0-3.70286,1.59731l-1.59731,1.45211-.14521-.14521a33.31172,33.31172,0,0,1,5.00976-7.55094,1.84674,1.84674,0,0,1,.50823-.14521,11.71455,11.71455,0,0,0,6.38926-4.2837,2.30008,2.30008,0,0,0,.65345-1.66992,1.81944,1.81944,0,0,0-.50824-.29041,4.46831,4.46831,0,0,0-1.3795.1452c-2.8316.79866-5.08236,2.25077-6.02623,5.22757a1.17016,1.17016,0,0,1-.29042.50824A10.17972,10.17972,0,0,0,29.92017,145.4282Zm158.715,36.66562V173.962a3.81935,3.81935,0,0,0-1.96035-1.88774,6.81416,6.81416,0,0,0-6.46186.43564,2.27162,2.27162,0,0,0-1.30688,1.81513v7.62355a4.06784,4.06784,0,0,0,3.04942,2.25077,12.36026,12.36026,0,0,0,2.8316.14522,4.45494,4.45494,0,0,0,3.84807-2.25079Zm-9.43868-39.27941v2.17815a3.64252,3.64252,0,0,0,2.396,1.45211,16.4258,16.4258,0,0,0,3.26724.14521,4.58372,4.58372,0,0,0,3.04942-1.52472,1.98356,1.98356,0,0,0,.58084-1.37949v-6.82489a1.91652,1.91652,0,0,0-.50825-1.37949,5.48237,5.48237,0,0,0-1.01647-.79866,7.19114,7.19114,0,0,0-6.09883-.363,3.00924,3.00924,0,0,0-1.59732,1.23429v5.22757c1.4521,1.74252,3.19462,1.66992,5.08236.87126v1.96034a1.10421,1.10421,0,0,1-1.4521,0l-.14522-.726-3.55763-.0726Zm-.07261,21.0555A4.02067,4.02067,0,0,0,181.302,165.322a7.65641,7.65641,0,0,0,3.63026.21781,4.755,4.755,0,0,0,2.9042-1.52471,2.08967,2.08967,0,0,0,.65345-1.52471v-6.60708a1.76248,1.76248,0,0,0-.65345-1.52471,10.38848,10.38848,0,0,0-1.08907-.79866,7.70432,7.70432,0,0,0-4.93715-.58085,4.12686,4.12686,0,0,0-2.61379,1.45211v5.155a3.62049,3.62049,0,0,0,4.21109,1.23428l.87127-.29041v1.96034c-.726.363-1.16168.29041-1.4521-.07261l-.14522-.72606h-3.485Zm2.68638-45.52345v6.53447h-1.4521v2.54118h6.9701v-2.46857l-1.37949-.07261v-7.33312a13.0208,13.0208,0,0,0-.07261-2.396c-2.03294,0-3.92068-.29042-5.59061.94387v2.25076Z" fill="#fefefe"/><path d="M135.3429,63.52954V89.59481a10.415,10.415,0,0,1-4.93716,4.57413,15.12371,15.12371,0,0,1-12.77851-.07261,10.20037,10.20037,0,0,1-4.35631-3.84807,2.02714,2.02714,0,0,1-.43564-1.3069V63.96517a2.44754,2.44754,0,0,1,.363-1.23428,9.687,9.687,0,0,1,4.50152-3.84808,15.12471,15.12471,0,0,1,12.77851,0A10.74892,10.74892,0,0,1,135.3429,63.52954ZM122.274,76.45326v9.22087a1.44174,1.44174,0,0,0,.50823,1.30689,1.871,1.871,0,0,0,2.10555.29042,1.60568,1.60568,0,0,0,1.01646-1.66992V67.08719a1.52025,1.52025,0,0,0-.58084-1.3795,1.87254,1.87254,0,0,0-2.10554-.21781,1.56824,1.56824,0,0,0-.94387,1.59731c0,3.19463,0,6.244,0,9.36607Z" fill="#fefefe"/><path d="M160.89993,79.86571c1.01647,2.68639,1.96035,5.30018,2.90421,7.98657a8.56472,8.56472,0,0,1,.29042,1.45211V94.532h-7.76877l-4.1385-13.14154-.50825-.07261V94.45936h-9.43867V58.51978c.21781,0,.363-.0726.58083-.0726,4.2837,0,8.56741-.0726,12.77852,0a9.56843,9.56843,0,0,1,7.84135,3.99329,3.39623,3.39623,0,0,1,.65344,2.03294V74.92856a3.82121,3.82121,0,0,1-.29041,1.3069A9.48726,9.48726,0,0,1,160.89993,79.86571Zm-5.7358-13.21415c-.58083-1.08907-1.4521-1.3795-3.485-1.08907v8.78522h1.59732a1.9076,1.9076,0,0,0,1.88774-1.16168l0-6.53447Z" fill="#fefefe"/><path d="M184.424,86.03715h-4.50153L178.906,94.60457h-8.34959v-1.3069a43.07678,43.07678,0,0,1,.14522-5.30018c.29041-2.759.87127-5.518,1.30688-8.20439.50825-3.122.94386-6.17144,1.4521-9.29347.58084-3.55765,1.16169-7.11531,1.66991-10.673q.10891-.65345.21781-1.30689h14.158c.07261.58084.21781,1.16168.29042,1.74252.65344,3.92069,1.2343,7.914,1.88774,11.83465.58083,3.485,1.08908,7.0427,1.66991,10.60035.29042,1.59732.58083,3.26723.79866,4.86455a36.70258,36.70258,0,0,1,.14522,3.99329V94.532h-8.93043Zm-.65344-7.11531c-.363-3.48505-.65344-6.9701-1.08908-10.45515l-.79866.07261c-.363,3.48505-.87127,6.89749-1.16169,10.38254Z" fill="#fefefe"/><path d="M59.7609,79.13966V90.46607a10.15479,10.15479,0,0,1-4.57412,3.77547,15.06662,15.06662,0,0,1-12.6333-.29042,10.21272,10.21272,0,0,1-4.28371-3.77546,2.39048,2.39048,0,0,1-.43563-1.3795V64.183a2.618,2.618,0,0,1,.43563-1.4521,10.57624,10.57624,0,0,1,5.80842-4.35631,15.24149,15.24149,0,0,1,10.30993.14521,11.41873,11.41873,0,0,1,5.30019,4.13849V73.186H50.83047c0-.21782-.0726-.43563-.0726-.65345,0-1.74252-.07261-3.41244,0-5.155a1.7561,1.7561,0,0,0-1.74252-1.88774,2.23574,2.23574,0,0,0-.94387.21782A1.48174,1.48174,0,0,0,47.055,67.23242v6.46186c0,4.06589.07261,8.05918,0,12.12507a1.92218,1.92218,0,0,0,1.88774,1.88773h.1452a1.67589,1.67589,0,0,0,1.66993-1.59731V79.28489l9.003-.14523Z" fill="#fefefe"/><path d="M23.894,94.532H14.45527V58.51978H31.15446v6.9701H23.894V73.186h7.11531v7.11531H23.82134L23.894,94.532Z" fill="#fefefe"/><path d="M76.02447,94.532H66.65841V58.51978H83.3576v6.8975H76.09708V73.186H83.285v7.0427H76.02447V94.532Z" fill="#fefefe"/><path d="M90.18249,58.44718h9.36606V87.48926h6.75228v6.9701H90.25508l-.07259-36.01218Z" fill="#fefefe"/><path d="M95.047,181.29516l3.485,4.71934c-.07261.58083-.43563.58083-.87126.58083l.43564.87127-.43564.50824-.94387-.50824-.07261.726a.88006.88006,0,0,1-1.08908-.14522c-.29041-.29041-.65344-.58083-.94387-.87127l-.21781-.07261v.14522a.07111.07111,0,0,1,.07261.07261.54539.54539,0,0,1-.29042.65344H93.958a2.84328,2.84328,0,0,1-.72605-.58083c-1.01647-1.08908-2.10555-2.10555-3.04941-3.26723a3.95717,3.95717,0,0,1-.87126-1.74252,9.80149,9.80149,0,0,0-2.396-3.84807l-.363,2.25076a1.82788,1.82788,0,0,1-1.45211.65345,29.86044,29.86044,0,0,0-4.35631.58083,3.44613,3.44613,0,0,1-2.90421-.50825,9.8162,9.8162,0,0,0,.21782,2.90421c.50823,3.33985,1.01647,6.67969,1.52471,10.09212.43564,2.759.79867,5.44539,1.08908,8.20438.29042,2.32337.58085,4.64672.72605,6.9701a34.6462,34.6462,0,0,1-.65344,7.26052q-.32673,2.17815-.65344,4.35631a95.70613,95.70613,0,0,1-3.99329,18.51432,28.4333,28.4333,0,0,1-1.59731,3.70287,7.48326,7.48326,0,0,1-3.122,3.41245,2.57427,2.57427,0,0,0,.21781.79867c.50824,1.59732,1.01647,3.122,1.59732,4.71933a5.31456,5.31456,0,0,0,1.37949,2.17816,1.143,1.143,0,0,1,.363,1.2343,1.88692,1.88692,0,0,1-1.81513.58083,8.08574,8.08574,0,0,1-2.17816-.58083c-1.30689-.50825-2.54118-1.08908-3.84808-1.66991l-.65344-.21781-.21782.43563a1.212,1.212,0,0,1-1.30689,1.08908,1.04932,1.04932,0,0,1-.50824-.14522,4.05041,4.05041,0,0,1-1.4521-1.01647q-1.74254-1.96032-3.48505-3.92067c-.65344-.79866-1.3795-1.59732-2.03295-2.396-.43563-.58084-.87126-1.16169-1.23428-1.74252a2.04643,2.04643,0,0,1,.43563-2.759,3.15832,3.15832,0,0,0,.43564-.50825,1.03189,1.03189,0,0,0-.43564-.14522,5.38691,5.38691,0,0,1-2.54118-.726,14.37569,14.37569,0,0,1-4.86455-3.99328,8.05057,8.05057,0,0,1-1.23428-2.17816,7.17271,7.17271,0,0,0-1.52472-2.32337,1.95745,1.95745,0,0,1-.50823-.58084,1.49025,1.49025,0,0,1-.363-1.59732,12.28873,12.28873,0,0,1,.94387-2.25077c.72606-1.30688,1.52472-2.54118,2.396-3.84806,1.4521-2.25077,2.97681-4.42892,4.50152-6.60708a19.39686,19.39686,0,0,1,3.33984-4.2837c-.58084-1.59732-.43564-3.33984-.65344-5.00975-.14521-1.30689-.29042-2.61379-.50824-3.84807a4.09391,4.09391,0,0,0-.29041-.87127,1.54085,1.54085,0,0,0-1.74252-1.08908A8.78609,8.78609,0,0,1,52.21,203.585a1.921,1.921,0,0,1-.58084-1.52471c-.07261-1.66991-.21782-3.26724-.21782-4.93715,0-2.46857-.07261-4.93714.07261-7.40573a52.446,52.446,0,0,1,.58085-5.80842c.43563-3.26723.94386-6.46186,1.4521-9.72909v-.07261a10.06247,10.06247,0,0,0-3.84808-.726,5.79382,5.79382,0,0,1-1.30689-3.55765c-.14521-1.3795-.14521-2.759-.21782-4.0659a16.8451,16.8451,0,0,0-.14521-1.74252c-.94387.65345-1.74252,1.23429-2.61379,1.81513a19.52638,19.52638,0,0,1-6.89749,3.55765c-1.96034.50824-3.92069,1.01647-5.95363,1.3795a25.38753,25.38753,0,0,1-4.06589.14521c-.14521.43563.363,1.01646-.0726,1.4521-.72605-.14521-.72605-.21782-1.52471-2.03295a18.1495,18.1495,0,0,0-2.10555-.363,1.31209,1.31209,0,0,1-1.16168-1.01647,2.55624,2.55624,0,0,0-.72605-1.3795.92027.92027,0,0,1-.29043-.65344A3.93908,3.93908,0,0,1,23.74878,163.87a1.01419,1.01419,0,0,1,1.08907-.21782,2.25052,2.25052,0,0,0,.50824.14521,45.08083,45.08083,0,0,1,.363-10.38255c-1.88773-.21782-3.63026-.72605-4.57413-2.54118a5.73405,5.73405,0,0,1-.726-3.48505,7.14652,7.14652,0,0,1,4.35631,1.4521,3.28232,3.28232,0,0,1,1.16169,2.32337c0,.29041.0726.65344.0726,1.08907l2.46858-5.00975-.29042-.29042a5.90029,5.90029,0,0,1-2.396-5.00975,10.47818,10.47818,0,0,1,1.16168-4.64673,6.59214,6.59214,0,0,1,3.04942,6.97011,3.64448,3.64448,0,0,0-.14521.87126l-.0726.29041h.0726l.07261-.21782c.79865-.94387,1.66992-1.88774,2.46857-2.83159a1.82,1.82,0,0,0,.29043-.50824c.94386-2.90421,3.19462-4.42892,6.02623-5.22757a4.468,4.468,0,0,1,1.3795-.14521,1.17022,1.17022,0,0,1,.50823.29042,2.42312,2.42312,0,0,1-.65345,1.66992,11.71449,11.71449,0,0,1-6.38925,4.2837,4.62528,4.62528,0,0,1-.50824.14521,35.00039,35.00039,0,0,0-5.00976,7.55094l-.0726.43563.21782-.29042,1.59731-1.4521a5.92057,5.92057,0,0,1,3.70286-1.59731c1.59731-.07261,2.8316.79866,4.13849,1.74252a7.85256,7.85256,0,0,1-4.42891,3.48505c-1.96034.58084-3.77547-.14521-5.518-1.08908a19.36777,19.36777,0,0,0-1.16169,5.00976c1.66993-1.45211,3.48506-1.3795,5.37279-.72606a6.49023,6.49023,0,0,1-1.88773,3.26724c-1.01648.94387-2.32337.79866-3.70287.65344l.14521,3.41244.50823-.58084.65345.58084c.87126.72605,1.66992,1.59731,2.61379,2.25077a2.87217,2.87217,0,0,0,3.77547.07261A10.61961,10.61961,0,0,1,34.93,164.959l4.792-3.70286a29.04609,29.04609,0,0,0,8.49481-10.673l2.759-5.7358c.1452-.29042.29041-.50823.43563-.79866a8.00206,8.00206,0,0,1,6.24405-4.42892,12.26838,12.26838,0,0,0,3.19463-.87126,2.7339,2.7339,0,0,0,1.08907-.65345,1.73069,1.73069,0,0,0,.43564-.79866,4.28045,4.28045,0,0,0-.50823-2.68639c-.94387-.21781-1.45211-1.08907-2.03295-1.88774a3.31365,3.31365,0,0,1-2.10555-.94387c-.50823-.363-.94387-.726-1.4521-1.08907A4.04484,4.04484,0,0,1,54.606,126.8413a19.60183,19.60183,0,0,1,.58084-2.8316c.21782-.79866.50823-1.66992.79866-2.46857.07261-.21782.21782-.363.29042-.58084l1.37949.07261a2.17673,2.17673,0,0,1,2.8316-1.3069h.07261a3.3917,3.3917,0,0,0,.72605-.363,10.87024,10.87024,0,0,1,5.37278-1.66992,22.40034,22.40034,0,0,1,3.122,0,3.93955,3.93955,0,0,1,2.61379,1.01647,2.68175,2.68175,0,0,0,1.01647.50823,2.60787,2.60787,0,0,1,1.52471,1.08908,6.02013,6.02013,0,0,1,.94387,3.48505l-.363.50824c0,.94387.65345,1.88774-.1452,2.759.363,1.52471.79866,2.9042,1.16168,4.35631,0,.07261-.07261.14521-.14521.21782l-.94387.29041-.363,1.81513-.43564.43564v.65344c-.07261,1.01647-.50823,1.4521-1.52471,1.3069-.58084-.07261-1.08908-.21782-1.59731-.29042h-.79866a2.935,2.935,0,0,0,1.37949,3.33984c1.66992.87126,3.41244,1.74252,5.00975,2.759a7.17725,7.17725,0,0,1,3.122,5.00976,36.65107,36.65107,0,0,1,.363,7.47833,6.92363,6.92363,0,0,0,1.16168,4.42892,90.79462,90.79462,0,0,1,5.73581,10.81817c.72605,1.52472,1.59731,2.90421,2.396,4.35631a6.38412,6.38412,0,0,0,.43564.72606,5.705,5.705,0,0,0,2.68639,2.54118,7.19253,7.19253,0,0,1,1.23428.79866,11.01445,11.01445,0,0,0,3.122,2.03293.56691.56691,0,0,1,.29042.29042,1.06107,1.06107,0,0,1-1.3795.726h-.07261l-1.16172.14518Zm-.79866,5.44539s-.07261.07261,0,.07261h0v-.07261Z" fill="#009639"/><path d="M188.63513,182.09382a4.56428,4.56428,0,0,1-3.77548,2.32337,12.35856,12.35856,0,0,1-2.8316-.14522,4.245,4.245,0,0,1-3.04943-2.25076v-7.62355a2.17066,2.17066,0,0,1,1.30689-1.81512,7.02044,7.02044,0,0,1,6.46185-.43564,3.57011,3.57011,0,0,1,1.96035,1.88774l-.07258,8.05918Zm-4.0659-7.33313a1.12289,1.12289,0,0,0-1.52471.07261v6.53447a1.02943,1.02943,0,0,0,1.4521.07261l.07261-.07261v-6.60708Z" fill="#009639"/><path d="M179.12384,142.81441h3.55765l.14522.726a1.10419,1.10419,0,0,0,1.4521,0v-1.96034c-1.88773.79866-3.63025.87126-5.08236-.87126v-5.22757a3.30847,3.30847,0,0,1,1.59732-1.23429,7.17572,7.17572,0,0,1,6.09884.363,5.48221,5.48221,0,0,1,1.01646.79866,1.91653,1.91653,0,0,1,.50825,1.3795v6.82488a1.98359,1.98359,0,0,1-.58083,1.37949,4.28961,4.28961,0,0,1-3.04943,1.52472,16.42491,16.42491,0,0,1-3.26723-.14521,3.6425,3.6425,0,0,1-2.396-1.45211l0-2.10555Zm3.63026-5.80842v2.17816a1.12291,1.12291,0,0,0,1.52471.07261V137.006a1.11641,1.11641,0,0,0-1.52471,0Z" fill="#009639"/><path d="M179.12384,163.86991l.07261-2.10554h3.485l.14522.65344c.29042.363.72605.363,1.4521.07261v-1.96034l-.87127.29042a3.62048,3.62048,0,0,1-4.21109-1.23429v-5.155a4.1269,4.1269,0,0,1,2.61379-1.45211,7.256,7.256,0,0,1,4.93715.58085,4.22949,4.22949,0,0,1,1.08907.79866,1.97738,1.97738,0,0,1,.65345,1.52471c-.07261,2.17816-.07261,4.42892,0,6.60708a1.97736,1.97736,0,0,1-.65345,1.52471,5.64543,5.64543,0,0,1-2.9042,1.52472,7.65654,7.65654,0,0,1-3.63026-.21782A4.62845,4.62845,0,0,1,179.12384,163.86991Zm3.63026-7.914v1.16169c0,.43563.07261.72605.07261,1.01647a1.31211,1.31211,0,0,0,1.52471.07261v-2.32338a1.0804,1.0804,0,0,0-1.59732.07261Z" fill="#009639"/><path d="M181.81022,118.34646h-1.52471V116.0957c1.66991-1.23429,3.63026-1.01647,5.59061-.94387.07261.79866,0,1.59731.07261,2.396s0,1.59731,0,2.46857v4.86455l1.37949.07261v2.46857h-6.9701v-2.54118h1.4521v-6.53446Z" fill="#009639"/><path d="M122.274,76.38066V67.1598a1.5682,1.5682,0,0,1,.94387-1.59731,1.859,1.859,0,0,1,2.10554.21782,1.71648,1.71648,0,0,1,.58085,1.3795V85.67414a1.66337,1.66337,0,0,1-1.01647,1.66992,1.75293,1.75293,0,0,1-2.61378-1.59731C122.274,82.5521,122.274,79.50268,122.274,76.38066Z" fill="#009639"/><path d="M155.16413,66.65156V73.186a1.813,1.813,0,0,1-1.88774,1.16168h-1.59732V65.48988C153.712,65.27206,154.58327,65.56249,155.16413,66.65156Z" fill="#009639"/><path d="M183.77057,78.92184h-3.04943c.363-3.48505.79866-6.89749,1.16169-10.38254l.79866-.07261C183.11713,71.95174,183.40754,75.43679,183.77057,78.92184Z" fill="#009639"/><path d="M29.92017,145.4282l-.0726.21782H29.775l.14521-.21782Z" fill="#fefefe"/><path d="M28.17765,150.87359l-.21782.29041.0726-.43563Z" fill="#fefefe"/><path d="M95.047,181.29516Z" fill="#fefefe"/><path d="M94.24837,186.74055h0v.07261c-.0726,0-.0726,0,0-.07261Z" fill="#fefefe"/><path d="M94.46619,187.24879a.07111.07111,0,0,1-.07261-.07261V187.031l.21781.07261Z" fill="#fefefe"/><path d="M184.56923,174.76069v6.53447a1.0356,1.0356,0,0,1-1.4521.14522l-.07261-.07261V174.8333A1.12289,1.12289,0,0,1,184.56923,174.76069Z" fill="#f5fafb"/><path d="M182.82671,137.006a1.05278,1.05278,0,0,1,1.52471,0v2.25077a1.12291,1.12291,0,0,1-1.52471-.07261V137.006Z" fill="#f5fafb"/><path d="M182.7541,155.88334a1.13951,1.13951,0,0,1,1.59732,0h0v2.25077a1.30632,1.30632,0,0,1-1.52471-.07261c0-.29042-.07261-.65345-.07261-1.01647Z" fill="#f5fafb"/></svg>