<?xml version="1.0" encoding="UTF-8"?>
<!DOCTYPE svg PUBLIC "-//W3C//DTD SVG 1.1//EN" "http://www.w3.org/Graphics/SVG/1.1/DTD/svg11.dtd">
<!-- Creator: CorelDRAW X8 -->
<svg xmlns="http://www.w3.org/2000/svg" xml:space="preserve" width="3.14298in" height="3.94685in" version="1.1" style="shape-rendering:geometricPrecision; text-rendering:geometricPrecision; image-rendering:optimizeQuality; fill-rule:evenodd; clip-rule:evenodd"
viewBox="0 0 3143 3947"
 xmlns:xlink="http://www.w3.org/1999/xlink">
 <defs>
  <style type="text/css">
   <![CDATA[
    .fil0 {fill:#282828}
    .fil1 {fill:#41A93E}
    .fil2 {fill:#D2BD8E}
    .fil3 {fill:#FEFEFE}
    .fil6 {fill:white}
    .fil7 {fill:#282828;fill-rule:nonzero}
    .fil4 {fill:#FEFEFE;fill-rule:nonzero}
    .fil5 {fill:white;fill-rule:nonzero}
   ]]>
  </style>
 </defs>
 <g id="Layer_x0020_1">
  <metadata id="CorelCorpID_0Corel-Layer"/>
  <g id="_733501024">
   <path class="fil0" d="M1571 3942c-589,-248 -1511,-594 -1511,-1394 0,-1158 0,-922 0,-2080 -19,-64 -37,-127 -55,-191 55,-90 110,-181 165,-272 403,85 888,117 1401,123 514,-6 999,-38 1402,-123 55,91 110,182 165,272 -18,64 -36,127 -55,191 0,1158 0,922 0,2080 0,800 -922,1146 -1512,1394zm-1536 -3661c17,60 34,120 51,179l1 4 0 4c0,693 0,1387 0,2080 0,774 889,1114 1484,1364 596,-250 1485,-590 1485,-1364 0,-693 0,-1387 0,-2080l0 -4 1 -4c17,-59 34,-119 51,-179 -49,-81 -99,-163 -148,-245 -212,44 -429,70 -644,88 -247,20 -496,29 -744,32l-1 0c-248,-3 -497,-12 -744,-32 -215,-18 -432,-44 -644,-88 -49,82 -99,164 -148,245z"/>
   <g>
    <path class="fil1" d="M2874 212c-84,15 -168,27 -252,37l0 2891c157,-157 272,-359 272,-592 0,-693 0,-1387 0,-2080l0 -28 8 -28c10,-35 20,-70 30,-106 -16,-26 -42,-68 -58,-94zm-521 65l-23 2c-106,9 -212,16 -319,21l0 3244c117,-56 234,-119 342,-189l0 -3078zm-610 32c-57,1 -113,2 -169,3l-5 0c-56,-1 -112,-2 -169,-3l0 3355c60,25 117,49 171,71 55,-22 112,-46 172,-71l0 -3355zm-611 -9c-107,-5 -213,-12 -319,-21l-23 -2 0 3078c108,70 225,133 342,189l0 -3244zm-611 -51c-84,-10 -168,-22 -252,-37 -16,26 -42,68 -58,94 10,36 20,71 30,106l8 28 0 28c0,693 0,1387 0,2080 0,233 115,435 272,592l0 -2891z"/>
    <path class="fil2" d="M1571 3836c563,-235 1415,-565 1415,-1288 0,-698 0,-1396 0,-2094 15,-54 31,-108 46,-163 -35,-59 -71,-118 -107,-177 -199,39 -401,63 -603,79 -249,21 -499,29 -749,32l-3 0c-250,-3 -500,-11 -749,-32 -202,-16 -404,-40 -603,-79 -36,59 -72,118 -107,177 15,55 31,109 46,163 0,698 0,1396 0,2094 0,723 852,1053 1414,1288zm1303 -3607c-180,31 -362,52 -544,67 -251,21 -504,30 -756,33l-5 0c-252,-3 -505,-12 -756,-33 -182,-15 -364,-36 -544,-67 -16,25 -31,51 -47,77 13,45 26,89 38,134 0,702 0,1405 0,2108 0,647 801,964 1311,1176 511,-212 1312,-529 1312,-1176 0,-703 0,-1406 0,-2108 12,-45 25,-89 38,-134 -16,-26 -31,-52 -47,-77z"/>
   </g>
   <polygon class="fil3" points="108,404 3035,404 3035,1008 108,1008 "/>
   <polygon class="fil0" points="73,440 3070,440 3070,972 73,972 "/>
   <path class="fil0" d="M1575 1603c49,0 96,6 142,15 61,-130 153,-236 331,-277 1,-24 -17,-48 -40,-71 53,4 102,31 138,64 4,-11 8,-26 9,-42 67,35 81,96 78,165 21,1 31,1 52,3 43,6 62,20 95,48 18,15 1,39 26,50 31,13 53,22 84,35 4,6 9,13 13,19 22,11 19,16 19,28 0,16 -3,32 -4,48 -12,5 -26,6 -40,9 -1,4 -2,7 -2,12 0,0 -5,22 -6,14 -1,-5 -3,-15 -6,-22 -17,7 -30,9 -43,26 -16,19 -11,60 23,42 5,-3 9,-7 14,-13 5,-9 9,-17 10,-29 1,-8 6,15 7,18 3,0 7,-1 11,-2 1,-4 2,-8 2,-12 1,-6 3,2 5,9 1,0 3,-1 4,-2 6,1 6,35 3,48 -11,17 -54,34 -82,30 -14,-10 -24,-16 -33,-27 -22,-6 -50,-5 -73,6 173,141 164,298 110,438 -4,-39 -11,-79 -50,-92 19,106 -21,198 -83,268 -8,-45 -10,-79 -37,-97 -16,360 -313,647 -677,647 -374,0 -678,-304 -678,-678 0,-74 12,-145 34,-212l-146 0c-25,0 -44,-14 -63,-29 -17,-13 -33,-26 -38,-48 -3,-11 -1,-22 4,-32l-11 0c-25,0 -44,-14 -63,-29 -17,-13 -33,-27 -39,-49 -3,-12 1,-25 8,-36l-22 0c-25,0 -44,-14 -63,-29 -17,-13 -33,-26 -39,-48 -2,-10 0,-22 5,-31l-12 0c-26,0 -44,-14 -63,-29 -17,-14 -33,-27 -39,-49 -6,-25 15,-57 42,-57l1182 0 0 0 1 0z"/>
   <path class="fil3" d="M1575 1631c359,0 650,291 650,650 0,359 -291,650 -650,650 -359,0 -650,-291 -650,-650 0,-359 291,-650 650,-650z"/>
   <path class="fil0" d="M1744 2029c-47,-24 -99,-50 -148,-76 -66,-34 -130,-79 -193,-27 -51,42 -106,90 -143,138 -70,89 -62,87 -10,198 76,162 75,207 187,198 35,-3 116,-14 179,-26 125,-23 102,0 126,-133 9,-50 32,-140 40,-206 4,-39 1,-47 -38,-66zm97 742c-33,-9 -65,-18 -98,-26 31,-58 60,-124 86,-213 80,-15 148,-47 210,-88 10,22 20,43 29,65 36,87 -85,209 -165,262 -18,13 -42,5 -62,0zm253 -584c-51,-76 -109,-135 -176,-179 6,-69 -1,-138 -26,-207 43,3 86,11 130,30 69,69 119,152 153,245 -16,47 -43,83 -81,111zm-437 -509c-35,-75 -381,8 -385,63 79,-15 138,-8 189,10 53,-38 118,-63 196,-73zm-579 469c-22,-51 -29,-128 -12,-195 -85,28 -109,184 -118,370 13,10 26,20 39,30 16,-90 48,-175 91,-205zm401 640c-94,-59 -159,-118 -176,-175 -68,5 -131,-4 -189,-25 3,60 13,128 60,168 64,54 197,131 244,90 23,-20 38,-38 61,-58z"/>
   <path class="fil4" d="M2312 1795c-82,-55 -225,-113 -260,-213 -17,-50 -3,-127 37,-163 40,-36 109,-19 144,38 -25,6 -41,15 -60,32 -52,44 -70,-9 -47,-38 5,-6 18,-16 30,-17 16,-1 27,12 43,17 6,2 16,2 22,3 -27,-34 -91,-50 -122,-14 -31,36 -42,95 -25,138 37,94 174,160 250,213 -7,2 -5,2 -12,4zm30 -227c0,-48 -52,-30 -60,-53 -5,59 58,42 60,53z"/>
   <path class="fil3" d="M725 1954l81 0c-4,-4 -7,-8 -10,-14l-119 0c-19,0 -33,-11 -51,-24 -13,-11 -28,-22 -32,-38 -3,-12 8,-33 23,-33l74 0c-5,-5 -10,-11 -13,-18l-117 0c-19,0 -33,-11 -51,-25 -13,-11 -28,-22 -32,-38 -3,-12 8,-33 23,-33l288 0c7,-11 18,-19 28,-28 18,-13 32,-24 51,-24l397 0c-26,13 -50,27 -73,43l-310 0c-2,0 -4,2 -4,4 0,2 2,4 4,4l298 0c-19,14 -38,29 -56,45l-549 0c-2,0 -4,2 -4,4 0,2 2,4 4,4l540 0c-17,16 -33,33 -49,50l-292 0c-3,0 -4,2 -4,4 0,3 1,4 4,4l285 0c-13,16 -25,31 -37,48l-331 0c-2,0 -4,1 -4,4 0,2 2,4 4,4l326 0c-11,15 -21,31 -30,47l-97 0c-2,0 -4,2 -4,4 0,3 2,5 4,5l92 0c-8,14 -16,29 -23,45l-160 0c-2,0 -4,2 -4,4 0,2 2,4 4,4l156 0c-6,14 -12,29 -17,44l-153 0c-19,0 -33,-11 -51,-25 -13,-11 -28,-22 -32,-38 -2,-12 9,-33 23,-33zm-333 -331l1021 0c-42,10 -82,24 -120,42l-425 0c-5,0 -10,0 -15,1l-387 0c-2,0 -4,2 -4,5 0,2 2,4 4,4l367 0c-8,5 -16,11 -24,17 -10,8 -20,16 -28,26l-329 0c-19,0 -34,-11 -51,-25 -14,-10 -28,-21 -32,-38 -3,-12 8,-32 23,-32z"/>
   <path class="fil5" d="M452 622l-140 0 0 62 104 0 12 44 -116 0 0 106 -48 0 0 -256 188 0 0 44zm266 178c-13,12 -29,22 -46,29 -18,7 -37,10 -57,10 -20,0 -39,-3 -56,-10 -18,-7 -34,-17 -47,-29 -13,-12 -23,-26 -31,-42 -7,-17 -11,-34 -11,-52 0,-18 4,-36 11,-52 8,-16 18,-30 31,-42 13,-12 29,-22 47,-29 17,-7 36,-10 56,-10 20,0 39,3 57,10 17,7 33,17 46,29l-34 31c-9,-9 -20,-15 -32,-20 -11,-4 -24,-6 -37,-6 -13,0 -25,2 -37,6 -12,5 -22,11 -32,20 -9,8 -16,18 -21,29 -5,11 -7,22 -7,34 0,12 2,23 7,34 5,11 12,21 21,29 10,9 20,15 32,20 12,4 24,6 37,6 13,0 26,-2 37,-6 12,-5 23,-11 32,-20l34 31zm78 34l-48 0 0 -44 48 0 0 44zm229 -212l-140 0 0 62 104 0 12 44 -116 0 0 106 -48 0 0 -256 188 0 0 44zm218 0l-140 0 0 62 104 0 12 44 -116 0 0 62 140 0 0 44 -188 0 0 -256 188 0 0 44zm238 48c0,9 -1,18 -4,27 -3,8 -7,16 -12,23 -4,7 -10,13 -17,19 -8,6 -15,10 -24,14l57 81 -57 0 -50 -72 -33 0 19 -44 21 0c15,0 27,-4 37,-14 5,-5 9,-10 11,-16 3,-6 4,-12 4,-18 0,-6 -1,-12 -4,-18 -2,-6 -6,-11 -11,-16 -10,-9 -22,-14 -37,-14l-56 0 0 24 0 72 0 44 0 72 -48 0 0 -72 0 -116 0 -68 104 0c14,0 27,3 39,7 12,5 23,12 32,20 9,9 16,18 21,29 6,11 8,23 8,36zm167 -53c-13,0 -25,2 -37,6 -12,5 -22,11 -31,20 -10,8 -17,18 -22,29 -5,11 -7,22 -7,34 0,12 2,23 7,34 5,11 12,21 22,29 9,9 19,15 31,20 12,4 24,6 37,6 13,0 26,-2 38,-6 11,-5 22,-11 31,-20 10,-8 17,-18 21,-29 5,-11 8,-22 8,-34 0,-12 -3,-23 -8,-34 -4,-11 -11,-21 -21,-29 -9,-9 -20,-15 -31,-20 -12,-4 -25,-6 -38,-6zm0 -44c20,0 39,3 57,10 17,7 33,17 46,29 13,12 23,26 31,42 8,16 11,34 11,52 0,18 -3,35 -11,52 -8,16 -18,30 -31,42 -13,12 -29,22 -46,29 -18,7 -37,10 -57,10 -20,0 -38,-3 -56,-10 -18,-7 -33,-17 -46,-29 -14,-12 -24,-26 -32,-42 -7,-17 -11,-34 -11,-52 0,-18 4,-36 11,-52 8,-16 18,-30 32,-42 13,-12 28,-22 46,-29 18,-7 36,-10 56,-10zm339 5l48 0 0 256 -52 0 -112 -175 0 175 -48 0 0 -256 52 0 112 175 0 -175zm138 0l0 256 -48 0 0 -256 48 0zm263 257l-68 0 -106 -97 0 96 -48 0 0 -256 48 0 0 97 106 -96 67 0 -139 128 140 128zm222 -213l-140 0 0 62 104 0 12 44 -116 0 0 62 140 0 0 44 -188 0 0 -256 188 0 0 44zm82 168l109 0 0 44 -109 0 -48 0 0 -44 0 -212 48 0 0 212zm187 -212l0 256 -48 0 0 -256 48 0z"/>
   <g>
    <path class="fil6" d="M1806 3278c12,-11 24,-21 35,-32 19,-18 38,-35 56,-53l4 -4 5 -1c31,-7 62,-15 93,-22l24 -6 0 25c0,19 0,39 0,59 0,12 0,23 0,35 4,-1 9,-2 13,-2l23 -5 0 24c0,15 0,30 0,46l0 16 -16 3c-7,1 -13,2 -20,3 0,7 0,14 0,21l0 17 -17 2c-18,3 -36,6 -54,9l-23 4 0 -23c0,-5 0,-9 0,-13 -42,8 -84,15 -127,23l-23 4 0 -23c0,-13 0,-25 0,-37 0,-9 0,-17 0,-26 -10,15 -20,30 -30,45 -17,27 -35,54 -53,81l-5 7 -9 1c-25,3 -49,4 -73,5l-41 2 24 -32c17,-25 35,-50 53,-75 10,-15 20,-29 29,-44 -34,3 -68,5 -102,6l-8 0c1,11 1,23 1,35 0,11 -1,22 -1,33 -1,8 -1,16 -3,24 -6,26 -24,42 -50,46 -30,5 -70,1 -100,-2 -16,-2 -34,-4 -50,-9 -11,-3 -22,-8 -32,-15 -9,-7 -15,-17 -18,-28 -4,-12 -4,-27 -4,-40l0 -23 6 1c-2,-3 -3,-6 -4,-9 -6,-14 -7,-31 -7,-46 0,-18 2,-41 13,-55 10,-14 27,-18 44,-19 23,-1 51,4 74,7 22,3 45,5 66,10 14,3 29,7 40,16 5,4 10,9 13,14 0,-3 0,-6 0,-9l0 -19 19 0c71,-2 142,-9 213,-18l22 -3 0 22c0,15 0,29 0,44l0 3zm-613 -6c-14,9 -27,19 -40,28l-17 11 -11 -17c-10,-16 -21,-32 -31,-49l-10 -16 15 -10c11,-8 23,-16 34,-24 12,-8 23,-16 35,-24l7 -5 9 3c30,7 60,15 90,22l15 4 0 15c0,33 0,67 0,100 0,33 0,67 0,100l0 24 -23 -5c-19,-3 -38,-7 -57,-10l-16 -3 0 -17c0,-25 0,-50 0,-75 0,-17 0,-34 0,-52zm204 25c0,0 0,0 0,0 9,3 25,5 33,6 8,1 27,3 39,3 -11,-3 -31,-4 -40,-5 -7,-1 -22,-4 -32,-4zm532 0c0,-5 0,-11 0,-17 -7,7 -15,14 -22,21 -1,0 -1,1 -2,1 8,-1 16,-3 24,-5z"/>
    <path class="fil7" d="M1179 3187c30,8 60,16 91,23 0,33 0,67 0,100 0,33 0,67 0,100 -20,-3 -39,-7 -58,-11 0,-25 0,-50 0,-75 0,-25 0,-50 0,-75 -5,-1 -10,-2 -15,-3 -18,12 -37,25 -55,38 -11,-17 -21,-33 -32,-49 12,-8 23,-16 35,-24 11,-8 22,-16 34,-24zm147 175c19,3 37,6 55,9 0,1 0,2 0,2 1,4 1,6 2,8 1,1 2,3 5,4 5,2 18,5 39,7 23,3 39,3 47,2 7,-1 12,-4 14,-9 1,-4 2,-15 2,-31 -4,5 -8,7 -12,9 -6,2 -14,4 -23,4 -9,0 -22,0 -39,-3 -36,-4 -60,-11 -72,-18 -8,-5 -14,-12 -17,-21 -3,-10 -5,-23 -5,-40 0,-22 3,-36 8,-43 6,-7 15,-11 29,-11 14,-1 38,2 71,6 29,4 51,7 65,10 15,3 26,7 32,12 8,6 13,15 15,26 1,6 2,15 2,26 1,11 1,25 1,42 0,12 0,23 -1,32 0,9 -1,16 -2,21 -4,17 -15,28 -34,31 -19,3 -51,2 -95,-3 -20,-2 -36,-5 -47,-8 -10,-3 -19,-7 -25,-12 -5,-4 -9,-10 -12,-17 -2,-7 -3,-19 -3,-35zm105 -81c-24,-3 -39,-4 -45,-3 -6,1 -9,7 -9,16 0,6 1,11 2,14 2,3 4,5 8,6 5,2 18,5 40,8 31,4 49,4 54,2 3,-1 5,-2 7,-5 1,-2 2,-6 2,-12 0,-5 -1,-9 -2,-12 -2,-3 -4,-5 -8,-6 -6,-2 -22,-4 -49,-8zm141 -32c71,-2 143,-8 215,-18 0,15 0,29 0,44 -18,28 -36,55 -54,82 -18,27 -35,53 -53,80 -24,2 -48,4 -72,5 17,-25 35,-50 53,-75 17,-26 35,-52 53,-78 -48,5 -95,8 -142,9 0,-16 0,-32 0,-49zm468 47c0,15 0,30 0,46 -12,2 -25,4 -37,6 0,12 0,25 0,37 -18,3 -36,6 -54,9 0,-12 0,-24 0,-37 -50,10 -100,19 -150,28 0,-13 0,-25 0,-37 0,-12 0,-24 0,-37 18,-16 37,-34 56,-51 18,-17 37,-35 56,-53 30,-7 61,-15 92,-22 0,19 0,39 0,59 0,19 0,39 0,59 12,-3 25,-5 37,-7zm-91 17c0,-11 0,-23 0,-34 0,-12 0,-24 0,-35 -4,0 -8,1 -12,2 -14,14 -29,27 -43,40 -15,13 -29,26 -44,39 0,3 0,5 0,8 33,-7 66,-13 99,-20z"/>
   </g>
  </g>
 </g>
</svg>
