<?xml version="1.0" encoding="UTF-8" standalone="no"?>
<svg
   xmlns:dc="http://purl.org/dc/elements/1.1/"
   xmlns:cc="http://creativecommons.org/ns#"
   xmlns:rdf="http://www.w3.org/1999/02/22-rdf-syntax-ns#"
   xmlns:svg="http://www.w3.org/2000/svg"
   xmlns="http://www.w3.org/2000/svg"
   xmlns:sodipodi="http://sodipodi.sourceforge.net/DTD/sodipodi-0.dtd"
   xmlns:inkscape="http://www.inkscape.org/namespaces/inkscape"
   width="216.12891pt"
   height="224.00781pt"
   viewBox="0 0 216.1289 224.00781"
   version="1.2"
   id="svg57"
   sodipodi:docname="FC Honka logo.svg"
   inkscape:version="0.92.4 (5da689c313, 2019-01-14)">
  <metadata
     id="metadata63">
    <rdf:RDF>
      <cc:Work
         rdf:about="">
        <dc:format>image/svg+xml</dc:format>
        <dc:type
           rdf:resource="http://purl.org/dc/dcmitype/StillImage" />
        <dc:title></dc:title>
      </cc:Work>
    </rdf:RDF>
  </metadata>
  <defs
     id="defs61" />
  <sodipodi:namedview
     pagecolor="#ffffff"
     bordercolor="#666666"
     borderopacity="1"
     objecttolerance="10"
     gridtolerance="10"
     guidetolerance="10"
     inkscape:pageopacity="0"
     inkscape:pageshadow="2"
     inkscape:window-width="1366"
     inkscape:window-height="705"
     id="namedview59"
     showgrid="false"
     inkscape:zoom="1.4142136"
     inkscape:cx="84.280766"
     inkscape:cy="172.8853"
     inkscape:window-x="-8"
     inkscape:window-y="-8"
     inkscape:window-maximized="1"
     inkscape:current-layer="surface42" />
  <g
     id="surface42"
     transform="translate(-34.492188,-85.796875)">
    <path
       id="path65"
       d="m 142.56641,85.796875 h -0.0195 c -34.10156,0 -60.308589,6.820313 -76.460932,11.488281 -16.15625,4.664064 -31.59375,9.691404 -31.59375,9.691404 0,0 1.4375,25.48828 4.308593,40.20703 2.871094,14.71875 8.976563,67.12891 41.285157,104.82422 30.691402,35.80469 62.460932,57.79688 62.460932,57.79688 h 0.0195 c 0,0 31.77343,-21.99219 62.46484,-57.79688 32.30469,-37.69531 38.41016,-90.10547 41.28125,-104.82422 2.87109,-14.71875 4.30859,-40.20703 4.30859,-40.20703 0,0 -15.4375,-5.02734 -31.58984,-9.691404 C 202.875,92.617188 176.66797,85.796875 142.56641,85.796875"
       style="fill:#ffc700;fill-opacity:1;fill-rule:nonzero;stroke:none"
       inkscape:connector-curvature="0"
       sodipodi:nodetypes="csccsccccsccc" />
    <path
       style="fill:#000000;fill-opacity:1;fill-rule:nonzero;stroke:none"
       d="m 243.30469,129.21094 c -0.71875,5.20703 -2.24219,18.50781 -2.24219,18.50781 L 72.308594,233.96484 c 0,0 -2.320313,-4.09765 -5.542969,-10.15625 -3.21875,-6.0625 -8.191406,-17.52343 -8.191406,-17.52343 L 244.62109,111.67969 c 0,0 -0.59765,12.32812 -1.3164,17.53125 m -43.22657,119.99218 c -29.08984,33.9375 -57.88671,54.47657 -57.88671,54.47657 0,0 -29.71485,-20.78907 -58.800785,-54.72657 -3.148437,-3.66796 -5.757812,-7.53125 -8.402344,-11.4414 L 240.19141,153 c -3.08594,17.83984 -11.97266,63.37109 -40.11329,96.20312 M 61.964844,115.21094 c 0.519531,-0.5586 1.273437,-1.35547 1.714844,-1.91016 0.433593,-0.55859 1.628906,-1.55469 1.867187,-2.30859 0.238281,-0.75781 0.875,-1.19531 1.710938,-1.23438 0.835937,-0.0391 2.867187,-0.0781 3.226562,0.35938 0.355469,0.4375 1.273438,1.55078 1.867188,1.42969 0.597656,-0.11719 1.195312,-0.23829 1.394531,-0.51563 0.199219,-0.27734 0,-0.51562 0,-0.51562 0,0 -1.433594,-1.51172 -0.636719,-2.82813 0.796875,-1.3125 1.632813,-1.43359 3.34375,-1.47266 1.710938,-0.0391 3.582031,-0.27734 4.097656,-1.39062 0.519532,-1.11719 1.472657,-3.38281 3.023438,-4.53906 1.554687,-1.152347 4.0625,-0.355472 3.503906,1.91015 -0.558594,2.26953 -1.511719,2.03125 -1.433594,2.98438 0.08203,0.95703 0.917969,1.55469 0.558594,2.26953 -0.359375,0.71484 -0.636719,0.71484 -1.074219,0.63672 -0.4375,-0.0781 -0.519531,-0.16016 -0.796875,-0.11719 -0.277343,0.0391 -0.835937,0.59375 -1.550781,0.83594 -0.71875,0.23828 -1.3125,-0.19922 -1.792969,-0.59766 -0.476562,-0.39844 -0.914062,-0.51953 -1.234375,-0.48047 -0.316406,0.043 -2.066406,0.4375 -2.066406,2.07032 0,1.63281 1.152344,3.5039 2.265625,4.33984 1.117188,0.83594 1.316406,1.58984 1.15625,3.38281 -0.160156,1.78906 -0.238281,2.82422 -0.199219,3.14063 0.03906,0.32031 1.113282,0.83593 1.75,0.55859 0.636719,-0.27734 0.949219,-0.23047 1.585938,-1.26172 0.636719,-1.03515 1.480469,-2.99609 3.390625,-3.51172 1.910156,-0.51953 2.546875,-0.83593 3.34375,-2.07031 0.792969,-1.23437 2.148437,-1.47266 4.375,-1.3125 2.230469,0.15625 2.347656,-1.47266 2.347656,-2.19141 0,-0.71484 0.160156,-3.73828 -0.238281,-4.17968 -0.398438,-0.4336 -2.1875,-0.51563 -3.222656,-0.4336 -1.035157,0.0781 -2.585938,0.11719 -3.105469,-0.043 -0.515625,-0.15625 -1.152344,-0.23828 -0.316406,-1.43359 0.835937,-1.19141 2.070312,-2.74609 2.90625,-2.86328 0.835937,-0.12109 1.910156,0.39844 2.347656,0.91406 0.4375,0.51953 1.75,1.39453 2.503906,1.27344 0.757813,-0.11719 1.277344,-1.51172 1.355469,-1.98828 0.07813,-0.47656 1.035156,-0.83594 2.187496,0 1.15625,0.83594 3.10547,3.02344 4.37891,3.10547 1.27344,0.0781 3.82031,-0.5586 4.89453,-0.1211 1.07422,0.4375 1.99219,1.11328 1.51172,1.78907 -0.47656,0.67968 -0.83594,1.11718 -1.15234,1.87109 -0.32032,0.75781 -0.75782,2.19141 -1.39453,2.03125 -0.63672,-0.16016 -1.63282,-1.19531 -1.63282,-1.19531 0,0 -0.71484,-0.0391 -1.98828,-0.0781 -1.27344,-0.0391 -1.55078,0 -2.26953,-0.63672 -0.71484,-0.63672 -1.58984,-1.43359 -2.14844,-1.55468 -0.55468,-0.11719 -1.42968,0.32031 -2.07031,1.03515 -0.636719,0.71875 -0.875,1.75391 -1.03125,3.06641 -0.160156,1.3125 -0.839844,2.94531 -2.589844,2.86719 -1.75,-0.082 -3.300781,-0.043 -4.535156,0.51562 -1.234375,0.55469 -2.269531,1.87109 -2.230469,3.30078 0.03906,1.4336 1.871094,4.0625 4.019532,3.6211 2.148437,-0.4336 5.292968,-3.53907 6.847657,-5.25 1.55078,-1.71094 4.75,-2.89454 5.38672,-3.13282 0.63672,-0.24218 3.20703,-0.41015 5.3164,-0.25 2.10938,0.16016 4.25782,-0.35937 4.41797,-2.38672 0.16016,-2.03125 -0.95312,-1.91015 -1.43359,-2.55078 -0.47656,-0.63672 -0.39453,-2.26562 0.95703,-1.6289 1.35156,0.63672 2.82422,1.82812 3.46094,1.82812 0.63672,0 3.78125,-0.59375 3.90234,1.11719 0.11719,1.71094 -2.98828,2.26562 -3.66406,2.1875 -0.67578,-0.0781 -1.03516,0.55859 -1.55078,1.07422 -0.51563,0.51953 -1.78906,2.625 -3.02344,2.82422 -1.23437,0.19922 -4.53906,0.24218 -5.45312,-0.11719 -0.91407,-0.35938 -3.34375,-1.15234 -4.97657,-0.12109 -1.6289,1.03515 -5.492185,4.9375 -6.367185,5.89062 -0.875,0.95703 -2.90625,1.75 -4.496094,1.63281 -1.59375,-0.12109 -3.222656,-1.35547 -4.058593,-2.23047 -0.835938,-0.875 -1.507813,-1.45703 -2.03125,-1.27343 -1.320313,0.47265 -1.664063,1.40625 -2.277344,2.47656 -0.324219,0.56641 -0.894531,2.43359 -0.773438,3.1875 0.117188,0.75781 0.375,2.26953 0.453125,2.50781 0.08203,0.23828 5.066407,-2.32031 7.054688,-1.5664 1.992187,0.75781 4.296875,3.14453 5.214844,2.90624 0.914062,-0.23828 3.261717,-0.79687 3.582027,-1.07421 0.31641,-0.27735 1.51172,-2.22657 3.5,-2.34766 1.99219,-0.12109 3.06641,-0.24219 3.06641,-0.24219 0,0 3.0625,-2.58203 4.89453,-2.26562 1.82813,0.32031 3.74219,1.11328 4.21875,0.91797 0.47656,-0.19922 3.02344,-2.15235 4.17969,-2.07032 1.15234,0.0781 2.58594,2.34766 3.33984,1.91016 0.75782,-0.4375 1.71485,-2.82812 3.1875,-2.70703 1.47266,0.12109 4.0586,3.62109 5.41016,3.5 1.35547,-0.11719 4.69531,-0.99219 5.6914,-1.78906 0.9961,-0.79688 2.10938,-0.83594 2.94532,1.07422 0.83593,1.91015 1.43359,4.45703 -1.03516,4.69531 -2.46484,0.23828 -3.62109,-0.0781 -4.65625,-0.0781 -1.03516,0 -1.39062,0.71485 -2.46484,0.63672 -1.07813,-0.0781 -1.75391,-0.27734 -2.07032,0.27734 -0.32031,0.5586 -0.99609,1.75391 -2.03125,1.59375 -1.03515,-0.16015 -3.34374,-1.75 -4.29687,-2.90624 -0.95703,-1.15625 -1.75391,-1.39063 -2.54687,-1.19532 -0.79688,0.19922 -1.95313,0.95703 -1.47266,1.79297 0.47656,0.83594 1.3125,1.43359 2.46484,1.67188 1.15625,0.23828 2.19141,3.46093 -0.39843,3.58203 -2.58594,0.11718 -3.42188,-2.46875 -4.45313,-3.10547 -1.03516,-0.63672 -2.74609,-1.58985 -3.50391,-2.625 -0.75781,-1.03516 -1.89062,-2.5 -3.02734,-2.58984 -1.52344,-0.125 -3.57812,0.67578 -4.57422,1.07421 -0.99609,0.39844 -2.26172,1.38282 -2.26172,1.38282 0,0 0.31641,1.14062 1.86719,1.77734 1.55078,0.63672 2.46484,0.98047 2.46484,1.10156 0,0.11719 -0.32031,0.47656 -0.55859,0.55469 -0.23828,0.082 -2.98437,-0.23828 -3.9375,-0.99609 -0.95703,-0.75391 -1.83203,-2.06641 -1.83203,-2.06641 0,0 -2.10547,0.95312 -2.925782,1.36328 -0.75,0.375 -2.230469,0.68359 -2.230469,0.68359 0,0 0.433594,3.14454 0.910156,4.09766 0.476563,0.95703 1.378906,2.64844 1.578125,2.96875 0.19922,0.31641 -0.554687,0.59766 -0.554687,0.59766 0,0 -2.152344,-1.75391 -2.828125,-4.25782 -0.675782,-2.50781 -1.910157,-4.30078 -1.910157,-4.30078 0,0 -2.308593,-2.14843 -4.335937,-1.47265 -2.03125,0.67578 -4.75,3.32422 -4.75,3.32422 0,0 0.125,8.26562 0.0078,12.00781 -0.121093,3.74219 0.324219,12.35547 0.480469,14.5039 0.160156,2.14844 0.679688,8.60938 0.71875,8.76954 0.03906,0.15625 2.347656,5.64843 3.703125,6.52343 1.351563,0.875 4.851563,0.91407 6.207031,0.91407 1.351563,0 2.46875,0.4414 2.585938,1.23437 0.121094,0.79688 -0.03906,1.67188 -0.03906,1.67188 0,0 -1.433593,-0.95313 -2.070312,-1.19141 -0.636719,-0.24219 -3.34375,-0.39844 -5.054688,-0.28125 -1.710937,0.12109 -3.582031,0.35937 -4.535156,0.082 -0.957031,-0.28125 -1.15625,-0.35937 -1.15625,-0.35937 0,0 -0.515625,3.62109 -1.789062,3.85937 -1.273438,0.23828 -3.742188,0.0781 -4.296875,0.32031 -0.558594,0.23828 -1.15625,0.91407 -1.277344,1.67188 -0.117188,0.7539 -0.277344,3.62109 -0.515625,3.82031 -0.238281,0.19922 -2.308594,-0.28125 -2.03125,-2.66797 0.28125,-2.38672 1.117187,-2.54687 1.273437,-3.30469 0.160157,-0.7539 0.4375,-1.35156 1.15625,-1.51171 0.714844,-0.15625 1.433594,-1.42969 1.113282,-2.10938 -0.316407,-0.67578 -1.273438,-0.63672 -1.511719,-0.15625 -0.238281,0.47656 -1.710938,3.33984 -3.503906,3.33984 -1.789063,0 -2.386719,-2.07031 -2.546875,-2.58593 -0.15625,-0.51563 2.152343,-0.47657 2.707031,-0.83594 0.558594,-0.35938 2.867187,-4.29688 3.703125,-5.29297 0.835937,-0.99609 1.035156,-1.63281 1.152344,-1.87109 0.121093,-0.23828 0.71875,-3.58203 0.480468,-4.57422 -0.242187,-0.9961 -1.195312,-4.69531 -0.796875,-5.85156 0.394532,-1.15235 0.992188,-2.07032 0.992188,-2.07032 0,0 -0.238281,-3.53906 -0.355469,-3.9375 -0.121094,-0.39843 -0.519531,-0.67968 -0.519531,-0.67968 0,0 -2.070313,-0.67579 -1.472656,-2.42579 0.597656,-1.75 1.316406,-2.66796 1.511718,-3.46093 0.199219,-0.79688 -0.117187,-5.17578 -0.117187,-5.45313 0,-0.28125 -0.07813,-5.76172 -0.117188,-6.12109 -0.03906,-0.35547 -1.992187,-0.72266 -3.105468,-0.80469 -1.117188,-0.0781 -3.703125,0.0391 -3.78125,2.38672 -0.08203,2.35156 0.238281,11.14453 -0.0039,12.25781 -0.234375,1.11719 -0.914062,2.03125 -2.304687,2.15235 -1.394531,0.11718 -2.429688,0.23828 -2.628906,1.03125 -0.199219,0.79687 -0.03906,3.26562 -0.277344,4.21875 -0.238281,0.95703 -0.757813,1.59375 -1.035156,1.83203 -0.277344,0.23828 -0.160157,1.87109 -0.160157,2.54687 0,0.67578 -0.714843,1.55078 -0.953125,1.51172 -0.238281,-0.0391 -0.398437,-0.23828 -0.398437,-0.23828 0,0 -0.476563,-2.90625 -0.238281,-4.73438 0.238281,-1.83203 0.914062,-2.46875 0.914062,-3.5039 0,-1.03516 -0.4375,-5.33203 0.875,-5.8086 1.316406,-0.48046 3.78125,-0.19921 4.140625,-0.55859 0.355469,-0.35937 0.597656,-1.71094 0.597656,-2.54687 0,-0.83594 -0.320312,-8.03907 -0.28125,-9.47266 0.03906,-1.43359 0.199219,-4.05859 3.105469,-3.98047 2.90625,0.082 5.023438,-0.31641 5.023438,-0.31641 0,-2.28124 -0.59375,-5.24218 -0.820313,-5.92578 -0.230469,-0.6875 -3.597656,-1.29296 -4.738281,-0.86328 -1.140625,0.42578 -3.03125,-0.34765 -3.457031,0.22266 -0.425782,0.57031 -0.855469,0.57031 -0.855469,1.56641 0,1 -0.285156,1.14062 -0.996094,1.28125 -0.710937,0.14453 -1.707031,-0.42579 -1.707031,-0.42579 0,0 1.660156,-0.0742 1.78125,-0.87109 0.117187,-0.79297 0.476562,-2.58594 1.632812,-2.70312 1.152344,-0.1211 2.746094,0.19921 3.222657,-0.043 0.476562,-0.23438 1.75,-0.83203 2.863281,-0.71485 1.113281,0.1211 2.269531,0.39844 2.269531,-1.07422 0,-1.47265 -0.277344,-4.33593 -0.714844,-5.21484 -0.441406,-0.875 -1.355468,-1.66797 -2.230468,-1.62891 -0.875,0.0391 -1.195313,0.11719 -1.113282,0.83594 0.07813,0.71485 -0.320312,2.26953 -1.710937,2.22656 -1.394531,-0.0391 -1.75,-1.07421 -2.148438,-1.39062 -0.398437,-0.32031 -0.957031,0.11719 -0.996093,0.39844 -0.03906,0.27734 -0.796875,0.91406 -1.792969,0.95312 -0.992188,0.0391 -1.152344,-0.23828 -1.550781,0.0391 -0.398438,0.28125 -0.914063,0.75782 -1.832032,0.71875 -0.914062,-0.0391 -2.625,-0.51953 -2.625,-0.51953 0,0 -0.03906,-0.39843 0.476563,-0.95312 M 142.56641,85.796875 h -0.0195 c -34.10156,0 -60.308589,6.820313 -76.460932,11.488281 -16.15625,4.664064 -31.59375,9.691404 -31.59375,9.691404 0,0 1.4375,25.48828 4.308593,40.20703 2.871094,14.71875 8.976563,67.12891 41.285157,104.82422 30.691402,35.80469 62.460932,57.79688 62.460932,57.79688 h 0.0195 c 0,0 31.77343,-21.99219 62.46484,-57.79688 32.30469,-37.69531 38.41016,-90.10547 41.28125,-104.82422 2.87109,-14.71875 4.30859,-40.20703 4.30859,-40.20703 0,0 -15.4375,-5.02734 -31.58984,-9.691404 C 202.875,92.617188 176.66797,85.796875 142.56641,85.796875"
       id="path4"
       inkscape:connector-curvature="0" />
    <path
       style="fill:#ffffff;fill-opacity:1;fill-rule:nonzero;stroke:none"
       d="m 210.96484,156.65625 c 1.46485,-0.11719 1.85547,-3.76953 1.67578,-5.59375 -0.17968,-1.82422 -0.77734,-4.00781 -2.24218,-3.94922 -1.28907,0.0508 -2.1875,2.09375 -2.125,4.78516 0.0586,2.69531 1.22656,4.8789 2.6914,4.75781"
       id="path6"
       inkscape:connector-curvature="0" />
    <path
       style="fill:#ffffff;fill-opacity:1;fill-rule:nonzero;stroke:none"
       d="m 196.21875,149.29687 c 0.17969,-1.43359 -0.21094,-3.64843 -0.96094,-3.58984 -0.74609,0.0586 -1.10547,0.50781 -1.43359,3.32031 -0.32813,2.8125 0.80859,6.58203 0.80859,6.58203 0.59766,-0.50781 1.40625,-4.875 1.58594,-6.3125"
       id="path8"
       inkscape:connector-curvature="0" />
    <path
       style="fill:#ffffff;fill-opacity:1;fill-rule:nonzero;stroke:none"
       d="m 89.148438,197.46094 c 0.53125,-1.05469 2.234375,-3.36719 5.058593,-3.94922 3.351563,-0.6875 4.097657,-2.63281 4.097657,-2.63281 0.71875,0.48046 0.761718,3.16015 0.449218,3.82812 -0.449218,0.96094 -2.003906,1.82813 -4.789062,2.90234 -2.78125,1.07813 -4.867188,2.42579 -4.574219,4.72657 0.238281,1.88672 2.152344,1.73828 2.480469,1.76562 0.328125,0.0312 0.898437,0.0625 0.867187,0.30078 -0.02734,0.23828 -0.08594,1.07422 -0.386718,1.61328 -0.300782,0.53907 -0.523438,1.03907 -1.417969,1.06641 -2.484375,0.0859 -2.648438,-2.97656 -2.769531,-4.14453 -0.152344,-1.43359 0.457031,-4.42188 0.984375,-5.47656 m 12.367192,2.39453 c 0.26562,-0.39063 0.5,-0.17969 0.5,-0.17969 0,0 0.53515,1.375 0.625,1.94531 0.0898,0.56641 -0.0273,0.7461 -0.0273,0.7461 l -2.45312,2.48437 c 0,0 0.77734,1.79297 0.80468,4.36719 0.0742,6.25391 -5.503902,7.57031 -6.789059,7.71875 -1.375,0.16016 -2.332031,-0.23828 -2.78125,-0.53906 -0.449218,-0.29688 -1.019531,-0.89844 -0.898437,-1.34766 0.121094,-0.44922 1.046875,-2.72266 1.675781,-2.72266 0.625,0 0.808594,0.75 1.253906,1.5586 0.449219,0.80469 0.898438,1.64453 2.664063,1.28515 1.488281,-0.30468 1.796875,-2.48437 1.585937,-4.1289 -0.210937,-1.64453 -0.71875,-3.23047 -0.71875,-3.23047 0,0 -0.02734,0.0898 -0.386718,0.44922 -0.359375,0.35937 -2.035157,2.125 -2.035157,2.125 v -1.19922 c 0,-0.62891 -0.05859,-1.43359 -0.05859,-1.43359 l 1.613281,-2.03516 c 0,0 -0.417969,-1.10938 -0.65625,-2.03516 -0.242188,-0.92968 -0.300781,-1.97656 -0.179688,-3.58984 0.117188,-1.61719 2.363282,-2.8125 2.363282,-2.8125 0.328125,0.0586 0.179687,1.21875 0.449218,2.38281 0.265625,1.16797 1.132813,2.64453 1.132813,2.64453 0,0 2.046868,-2.0664 2.316408,-2.45312 m 5.73437,6.10156 c 0,0 1.04297,0.57031 2.12109,0.32813 1.34766,-0.29688 1.88672,-1.40625 1.88672,-1.40625 0,0 0.76172,3.27734 -0.35937,4.25 -1.13672,0.98828 -3.53125,0.92578 -3.53125,0.92578 0,0 0.0898,-0.86719 0.0625,-1.85157 -0.0312,-0.98828 -0.30078,-2.24609 -0.30078,-2.24609 z M 122.77734,179.75 c 2.92969,-0.17578 5.08204,2.00781 5.26172,5.47656 0.17969,3.46875 -1.94531,5.71485 -4.21875,5.83203 -2.27343,0.1211 -2.27734,-2.75 -1.82422,-2.75 0.17969,0 0.21094,0.11719 0.35938,0.29688 0.14844,0.17969 -0.14844,0 0.66016,0.12109 0.80468,0.1211 1.375,-1.04687 1.67578,-3.05078 0.29687,-2.00391 -0.83985,-4.48828 -2.63282,-4.30859 -1.79687,0.17968 -2.875,1.53125 -3.05468,6.85156 -0.20313,6.07422 3.11328,10.53125 7.17968,10.46875 3.94922,-0.0586 5.6836,-3.55859 5.98438,-4.54688 0.30078,-0.98437 0.29687,-1.58593 0.59765,-1.58593 0.30079,0 0.5625,0.54297 0.57032,0.83984 0.004,0.29297 0.11718,0.83594 -0.42188,2.12109 -1.28906,3.08204 -4.78515,6.4336 -9.15234,6.46094 -3.38281,0.0234 -8.16406,-2.90234 -8.40625,-10.3164 -0.25,-7.6836 4.48828,-11.73047 7.42187,-11.91016 m 14.26563,11.55078 c 0,0 1.04297,0.56641 2.125,0.32813 1.34765,-0.30079 1.88672,-1.40625 1.88672,-1.40625 0,0 0.76172,3.27343 -0.35938,4.24609 -1.13672,0.98828 -3.53125,0.92969 -3.53125,0.92969 0,0 0.0898,-0.86719 0.0625,-1.85547 -0.0312,-0.98828 -0.30078,-2.24219 -0.30078,-2.24219 z m 6.97265,-19.57031 c 0.35938,-1.25391 1.01563,-3.46485 3.82813,-4.48438 2.8125,-1.01562 2.30469,-0.29687 3.35156,-1.22656 1.04688,-0.92578 1.04688,-1.10547 1.52344,-0.92578 0.48047,0.17969 -0.38672,2.21875 -0.14063,3.92578 0.17579,1.22656 0.5625,3.56641 0.89063,4.6875 0.28125,0.95703 0.65625,1.97656 0.65625,1.97656 0,0 1.19922,-0.6875 1.76562,-1.10547 0.57032,-0.42187 0.92579,-0.66015 0.92579,-0.66015 0,0 -0.59766,-4.07031 -0.35547,-6.10156 0.23828,-2.03516 0.41797,-3.53125 0.44922,-3.64844 0.0273,-0.1211 2.53906,-2.63281 2.96093,-2.875 0.41797,-0.23828 0.6875,0.21094 0.53907,0.78125 -0.15235,0.5664 -0.48047,5.59375 -0.35938,7.41797 0.11719,1.82422 0.26953,2.24218 0.26953,2.24218 0,0 1.31641,-1.13671 1.85156,-1.76562 0.53907,-0.625 0.69141,-1.19531 1.01954,-0.77734 0.32812,0.41796 0.48046,1.375 -0.21094,2.09375 -0.6875,0.71875 -2.30469,2.33593 -2.30469,2.33593 0,0 0.72266,3.19922 1.73828,4.42578 1.01563,1.22657 2.0625,1.82422 3.14063,1.16797 1.07812,-0.66015 2.12109,-2.72265 2.18359,-3.05078 0.0586,-0.32812 0.0312,-0.50781 0.0312,-0.50781 0,0 -0.74609,-3.71484 -0.30078,-5.50781 0.48047,-1.91407 2.09375,-4.75391 4.39844,-5.47266 2.30468,-0.71875 3.23047,0.0586 3.64843,2.30078 0.41797,2.2461 0.8086,4.9375 0.8086,4.9375 0,0 0.8164,0.72266 2.10156,-0.0234 1.28516,-0.74609 1.27734,-1.89062 1.27734,-1.89062 0,0 -0.95703,-3.58984 -0.98828,-5.38672 -0.0273,-1.79297 -0.0586,-2.33203 -0.0586,-2.33203 0,0 0.0391,-0.19531 0.46484,-0.55469 0.36719,-0.30859 1.72266,-1.50781 2.05078,-1.71875 0.32813,-0.21094 0.52344,0.0977 0.46094,0.9336 -0.0586,0.83593 0.21875,3.17968 0.33594,3.47656 0.12109,0.30078 0.22656,0.65234 0.22656,0.65234 0,0 1.28125,-3.59765 1.75781,-4.91406 0.48047,-1.31641 1.76172,-2.69141 2.98829,-2.66016 1.22656,0.0273 2.00781,1.85547 2.125,3.88672 0.12109,2.03516 0.23828,5.59375 1.375,5.59375 1.13671,0 1.4375,-1.34375 1.70703,-2.21094 0.26953,-0.86718 0.44922,-1.76562 0.44922,-1.76562 0,0 -2.125,-6.43359 -2.00391,-11.07031 0.10547,-4.08985 0.30078,-4.1875 0.30078,-4.1875 0,0 0.25,-0.20703 0.65625,-0.65625 0.53906,-0.60157 2.78125,-2.84375 3.08203,-3.08203 0.30078,-0.23829 0.59375,-0.22657 1.07422,0.15625 0.48047,0.38281 1.19922,1.42968 1.37891,1.9375 0.17968,0.50781 0.0586,3.10937 -0.17969,4.63671 -0.19141,1.22657 -0.44922,2.30469 -0.44922,2.30469 0,0 2.42188,-2.18359 4.12891,-1.82422 1.70312,0.35938 2.0625,2.8086 1.4375,3.94922 -0.62891,1.13281 -2.30469,2.39063 -2.30469,2.39063 0,0 2.09375,-0.14844 2.57031,1.25781 0.48047,1.40625 0.62891,1.82422 1.37891,1.67578 0.74609,-0.15234 1.16406,-1.37891 1.52344,-2.125 0.35937,-0.74609 0.42187,-1.28516 0.42187,-1.28516 0,0 -0.63281,-4.82031 0.47656,-7.54296 0.85547,-2.10547 2.96094,-4.03516 4.63672,-3.61719 1.67578,0.41797 1.70703,0.5664 1.70703,0.5664 0,0 1.4336,-2.44921 1.76172,-2.83984 0.33203,-0.39062 0.75,-0.33203 0.75,0.35938 0,0.6875 0.86719,5.17578 1.22656,6.64062 0.35938,1.46484 0.625,2.30469 1.4336,2.42188 0.80859,0.12109 1.67969,-1.58594 1.91797,-2.63282 0.23828,-1.04687 0.44531,-0.95703 0.68359,-0.53906 0.24219,0.42188 0.21094,0.75 0.21094,0.75 0,0 -0.77735,5.65234 -3.4375,6.01172 -2.66406,0.35937 -3.47266,-2.90234 -3.47266,-2.90234 0,0 -0.14844,1.10937 -0.26953,2.03515 -0.11719,0.92969 -1.19531,4.45703 -3.53125,4.39844 -2.33203,-0.0586 -3.37891,-2.00391 -3.37891,-2.00391 0,0 -1.13671,5.625 -3.82812,5.6836 -2.69141,0.0586 -3.20313,-2.26563 -3.32031,-2.83594 -0.1211,-0.57031 -0.0234,-1.60156 -0.92188,-1.66016 -0.89453,-0.0586 -1.63672,0.0312 -1.27734,-0.80859 0.35937,-0.83594 2.67578,-0.88672 2.58594,-3.10156 -0.0898,-2.21485 -2.71875,-1.82422 -3.37891,-0.32813 -0.66016,1.4961 -1.22656,2.91406 -1.22656,2.91406 0,0 1.19531,3.94922 1.82422,5.3125 0.64453,1.39844 0.95703,2.0625 0.95703,2.0625 0,0 -0.86719,0.75 -1.4961,1.19922 -0.6289,0.44532 -1.13672,0.71485 -1.13672,0.71485 0,0 -0.64062,-0.96875 -1.0664,-1.72657 -0.4961,-0.875 -0.63672,-1.26171 -0.63672,-1.26171 0,0 -0.92969,3.16796 -1.82813,4.1875 -0.89453,1.01562 -1.9414,2.30078 -3.52734,1.67578 -1.58594,-0.62891 -2.39453,-4.75782 -2.30469,-6.52344 0.0898,-1.76563 -0.17968,-2.36328 -0.80859,-2.24219 -0.625,0.11719 -1.52344,3.28906 -1.79297,4.06641 -0.26953,0.77734 -0.48047,1.33203 -0.48047,1.33203 0,0 1.25781,3.42578 1.58594,4.05469 0.32812,0.6289 0.39062,0.77734 0.35937,0.95703 -0.0312,0.17969 -1.3789,1.13672 -1.70703,1.40625 -0.32812,0.26953 -0.89453,0.47656 -0.89453,0.47656 0,0 -1.10547,-1.91406 -1.22656,-2.33203 -0.12109,-0.41797 -0.26953,-0.57031 -0.26953,-0.57031 0,0 -0.82813,1.95312 -1.91406,2.27343 -1.06641,0.32032 -2.21485,0 -2.21485,0 0,0 -0.65625,4.9375 -3.53125,5.35547 -2.87109,0.41797 -4.33594,-1.79297 -4.33594,-1.79297 0,0 -1.3164,6.13282 -4.72656,6.3125 -3.41015,0.17969 -5.5625,-3.38281 -5.95312,-4.66796 -0.39063,-1.28516 -0.67969,-2.47657 -0.67969,-2.47657 l -2.37891,1.54688 c 0,0 0.75391,3.77344 0.63282,5.41797 -0.11719,1.64453 -1.73438,6.01172 -5.23438,6.9414 -3.5,0.92578 -4.72656,-0.41797 -4.875,-0.80859 -0.14844,-0.39063 0.0625,-1.31641 0.35938,-1.97656 0.29687,-0.65625 0.71875,-1.4336 1.19531,-1.19532 0.48047,0.23829 0.66015,0.86719 0.86719,1.31641 0.21093,0.44922 0.98828,1.79297 2.24609,1.43359 1.25391,-0.35546 2.39062,-1.22656 2.21484,-3.85546 -0.18359,-2.63282 -1.07812,-4.64063 -1.07812,-4.64063 0,0 -1.19922,0.75 -1.5586,1.37891 -0.35546,0.6289 -0.71484,1.375 -0.92578,1.46484 -0.21093,0.0898 -0.71875,-0.95703 -0.44922,-1.70312 0.26954,-0.75 0.95704,-1.76563 1.61719,-2.30469 0.65625,-0.53906 0.86719,-0.77735 0.86719,-0.77735 0,0 -0.50781,-2.375 -0.57031,-3.98828 -0.0586,-1.61718 1.04687,-4.83984 1.19922,-5.22656 0.14843,-0.39062 0.0273,-0.65625 0.0273,-0.65625 0,0 -0.98438,1.40234 -2.45313,1.76172 -1.46484,0.35937 -2.87109,0.12109 -3.61718,1.4375 -0.46485,0.81641 -0.53907,2.8125 0.11718,3.28906 0.66016,0.48047 1.88672,0.62891 1.88672,0.62891 0.32813,0.17969 0.41797,1.46484 -0.12109,2.0625 -0.53906,0.59765 -1.52344,0.77734 -2.63281,-0.47656 -1.10547,-1.25782 -0.83985,-3.92969 -0.47657,-5.17969 m -77.249995,53.04687 c 3.222656,6.0586 5.542969,9.1875 5.542969,9.1875 L 241.0625,147.71875 c 0,0 1.52344,-12.33203 2.24219,-17.53906 0.71875,-5.20313 1.3164,-18.53125 1.3164,-18.53125 L 58.574219,206.25781 c 0,0 4.972656,12.46094 8.191406,18.51953"
       id="path10"
       inkscape:connector-curvature="0" />
    <path
       style="fill:#ffffff;fill-opacity:1;fill-rule:nonzero;stroke:none"
       d="m 173.51172,175.71484 c 2.16015,-0.15625 1.73437,-3.08203 1.73437,-3.08203 0,0 0.008,-0.0156 -0.83593,-0.39062 -1.14454,-0.50782 -2.28125,-2.64844 -2.49219,-3.96485 -0.21094,-1.3164 0.54687,-2.70703 0.54687,-2.70703 -2.03515,0.51172 -2.40625,2.26953 -2.51953,3.94141 -0.14453,2.04297 1.48047,6.35156 3.56641,6.20312"
       id="path12"
       inkscape:connector-curvature="0" />
    <path
       style="fill:#000000;fill-opacity:1;fill-rule:nonzero;stroke:none"
       d="m 119.99609,257.51562 2.05079,-0.92187 7.38281,7.16797 1.08984,4.79687 -2.74219,1.25 c 0,0 -3.46875,-2.33593 -5.40234,-4.59375 -1.9375,-2.25781 -3.78906,-5.32031 -3.78906,-5.32031 z m 7.57813,-31.57031 8.94922,-2.86328 3.10547,4.11328 -5.40235,9.79688 -8.22265,1.89453 -3.30469,-4.75781 z m 14.3789,-7.79297 c 0,0 0.57422,-0.0781 1.45313,-0.1914 0.88281,-0.11328 4.71094,0 5.82031,0.23047 1.10938,0.23046 4.51953,1.3789 4.51953,1.3789 l 2.29688,4.7461 -3.17578,3.41015 -9.30469,-2.875 -3.37109,-4.40234 z m 17.83594,9.14844 c 0,0 6.51172,3.94531 6.89453,4.13672 0.38282,0.19141 1.30469,1.22656 1.30469,1.22656 0,0 1.03125,3.0625 1.10938,4.40235 0.0781,1.33984 0.42968,5.4375 0.42968,5.4375 l -4.18359,3.09765 -6.50781,-4.82031 -2.56641,-9.76563 z m -13.91015,30.85547 1.44921,-10.03516 9.15235,-3.46875 6.37109,4.87891 -1.08984,8.98828 -8.62891,4.96094 z m 16.125,10.84766 c -4.5586,3.30468 -8.38672,4.1914 -8.38672,4.1914 l -1.60938,-1.00781 -0.12109,-0.0781 3.65625,-5.05859 7.71094,-4.49609 3.02343,2.57812 c 0,0 0.28125,0.56641 -4.27343,3.8711 m -20.51954,-11.49219 -9.1914,2.42187 -6.85547,-6.77343 1.21094,-9.63672 8.94922,-2.33594 7.41796,6.12891 z M 144,277.86719 c 17.41406,0 31.69531,-14.3086 31.69531,-31.44922 0,-17.14063 -14.02734,-31.45703 -31.4414,-31.45703 -17.41407,0 -31.6211,14.3164 -31.6211,31.45703 0,17.14062 13.94922,31.44922 31.36719,31.44922"
       id="path14"
       inkscape:connector-curvature="0" />
    <path
       style="fill:#ffffff;fill-opacity:1;fill-rule:nonzero;stroke:none"
       d="m 134.22656,236.99219 5.40235,-9.79688 -3.10547,-4.10937 -8.94922,2.85937 -4.875,8.1836 3.30469,4.75781 z m 0,0"
       id="path16"
       inkscape:connector-curvature="0" />
    <path
       style="fill:#ffffff;fill-opacity:1;fill-rule:nonzero;stroke:none"
       d="m 126.64844,243.52344 -1.21094,9.63672 6.85547,6.77343 9.1914,-2.42187 1.53125,-10.19531 -7.41796,-6.12891 z m 0,0"
       id="path18"
       inkscape:connector-curvature="0" />
    <path
       style="fill:#ffffff;fill-opacity:1;fill-rule:nonzero;stroke:none"
       d="m 161.76172,258.51953 1.08984,-8.98828 -6.37109,-4.87891 -9.15235,3.46875 -1.44921,10.03516 7.2539,5.32422 z m 0,0"
       id="path20"
       inkscape:connector-curvature="0" />
    <path
       style="fill:#ffffff;fill-opacity:1;fill-rule:nonzero;stroke:none"
       d="m 127.77734,269.80859 2.74219,-1.25 -1.08984,-4.79687 -7.38281,-7.16797 -2.05079,0.92187 -1.41015,2.37891 c 0,0 1.85156,3.0625 3.78906,5.32031 1.93359,2.25782 5.40234,4.59375 5.40234,4.59375"
       id="path22"
       inkscape:connector-curvature="0" />
    <path
       style="fill:#ffffff;fill-opacity:1;fill-rule:nonzero;stroke:none"
       d="m 163.25391,262.55469 -7.71094,4.49609 -3.66016,5.05859 0.1211,0.082 1.61328,1.0039 c 0,0 3.82812,-0.88672 8.38672,-4.1914 4.55468,-3.30469 4.27343,-3.8711 4.27343,-3.8711 z m 0,0"
       id="path24"
       inkscape:connector-curvature="0" />
    <path
       style="fill:#ffffff;fill-opacity:1;fill-rule:nonzero;stroke:none"
       d="m 165.34375,245.60156 4.18359,-3.09765 c 0,0 -0.35156,-4.09766 -0.42968,-5.4375 -0.0781,-1.33985 -1.10938,-4.40235 -1.10938,-4.40235 0,0 -0.91797,-1.03515 -1.30078,-1.22656 -0.38672,-0.19141 -6.89844,-4.14063 -6.89844,-4.14063 l -3.51562,3.71875 2.5625,9.76563 z m 0,0"
       id="path26"
       inkscape:connector-curvature="0" />
    <path
       style="fill:#ffffff;fill-opacity:1;fill-rule:nonzero;stroke:none"
       d="m 152.86719,227.72656 3.17578,-3.41015 -2.29688,-4.7461 c 0,0 -3.41015,-1.14844 -4.51953,-1.3789 -1.10937,-0.23047 -4.9375,-0.34375 -5.82031,-0.23047 -0.87891,0.11328 -1.45313,0.1914 -1.45313,0.1914 l -1.76171,2.29688 3.37109,4.40234 z m 0,0"
       id="path28"
       inkscape:connector-curvature="0" />
    <path
       style="fill:#000000;fill-opacity:1;fill-rule:nonzero;stroke:none"
       d="m 90.929688,207.08203 c 0.898437,-0.0273 1.121093,-0.52734 1.421875,-1.06641 0.300781,-0.53906 0.359375,-1.375 0.386718,-1.61328 0.03125,-0.23828 -0.539062,-0.26953 -0.867187,-0.30078 -0.328125,-0.0273 -2.242188,0.1211 -2.480469,-1.76562 -0.292969,-2.30078 1.792969,-3.64844 4.574219,-4.72657 2.785156,-1.07421 4.339844,-1.9414 4.789062,-2.90234 0.3125,-0.66797 0.269532,-3.34766 -0.449218,-3.82812 0,0 -0.75,1.94531 -4.097657,2.63281 -2.824218,0.58203 -4.527343,2.89453 -5.058593,3.94922 -0.527344,1.05468 -1.136719,4.04297 -0.984375,5.47656 0.121093,1.16797 0.285156,4.23047 2.765625,4.14453"
       id="path30"
       inkscape:connector-curvature="0" />
    <path
       style="fill:#000000;fill-opacity:1;fill-rule:nonzero;stroke:none"
       d="m 97.617188,197.28125 c 0,0 -2.246094,1.19531 -2.363282,2.8125 -0.121093,1.61328 -0.0625,2.66016 0.179688,3.58984 0.238281,0.92578 0.65625,2.03516 0.65625,2.03516 l -1.613281,2.03516 c 0,0 0.05859,0.80859 0.05859,1.43359 v 1.19922 c 0,0 1.675782,-1.76563 2.035157,-2.125 0.359375,-0.35938 0.386718,-0.44922 0.386718,-0.44922 0,0 0.507813,1.58594 0.71875,3.23047 0.210938,1.64453 -0.09375,3.82422 -1.585937,4.1289 -1.761719,0.35938 -2.214844,-0.48046 -2.664063,-1.28515 -0.445312,-0.8086 -0.625,-1.5586 -1.253906,-1.5586 -0.628906,0 -1.554687,2.27344 -1.675781,2.72266 -0.121094,0.44922 0.449219,1.05078 0.898437,1.34766 0.449219,0.30078 1.40625,0.69922 2.78125,0.53906 1.285157,-0.15234 6.863282,-1.46484 6.792972,-7.71875 -0.0312,-2.57422 -0.80859,-4.36719 -0.80859,-4.36719 l 2.45312,-2.48437 c 0,0 0.11719,-0.17969 0.0273,-0.7461 -0.0898,-0.57031 -0.625,-1.94531 -0.625,-1.94531 0,0 -0.23438,-0.21094 -0.50391,0.17969 -0.26563,0.38672 -2.308598,2.45312 -2.308598,2.45312 0,0 -0.867187,-1.47656 -1.140625,-2.64453 -0.265625,-1.16406 -0.117187,-2.32031 -0.445312,-2.38281"
       id="path32"
       inkscape:connector-curvature="0" />
    <path
       style="fill:#000000;fill-opacity:1;fill-rule:nonzero;stroke:none"
       d="m 107.36719,210.05469 c 0,0 2.39453,0.0586 3.53125,-0.92578 1.12109,-0.97266 0.35937,-4.25 0.35937,-4.25 0,0 -0.53906,1.10937 -1.88281,1.40625 -1.08203,0.24218 -2.125,-0.32813 -2.125,-0.32813 h -0.12109 c 0,0 0.26953,1.25781 0.30078,2.24219 0.0273,0.98828 -0.0625,1.85547 -0.0625,1.85547"
       id="path34"
       inkscape:connector-curvature="0" />
    <path
       style="fill:#000000;fill-opacity:1;fill-rule:nonzero;stroke:none"
       d="m 137.16406,195.39844 c 0,0 2.39453,0.0586 3.53125,-0.92969 1.11719,-0.96875 0.35938,-4.24609 0.35938,-4.24609 0,0 -0.53907,1.10546 -1.88672,1.40625 -1.08203,0.23828 -2.1211,-0.32813 -2.1211,-0.32813 h -0.12109 c 0,0 0.26953,1.25391 0.29688,2.24219 0.0312,0.98828 -0.0586,1.85547 -0.0586,1.85547"
       id="path36"
       inkscape:connector-curvature="0" />
    <path
       style="fill:#000000;fill-opacity:1;fill-rule:nonzero;stroke:none"
       d="m 123.76172,201.97656 c 4.36719,-0.0273 7.86328,-3.3789 9.15234,-6.46094 0.53906,-1.28515 0.42578,-1.82812 0.42188,-2.12109 -0.008,-0.29687 -0.26953,-0.83984 -0.57032,-0.83984 -0.30078,0 -0.29687,0.59765 -0.59765,1.58593 -0.30078,0.98829 -2.03516,4.48829 -5.98438,4.54688 -4.0664,0.0625 -7.38281,-4.39453 -7.17968,-10.46875 0.17968,-5.32031 1.25781,-6.67188 3.05468,-6.85156 1.79297,-0.17969 2.92969,2.30468 2.63282,4.30859 -0.30078,2.00391 -0.8711,3.17188 -1.67578,3.05078 -0.8086,-0.12109 -0.51172,0.0586 -0.66016,-0.12109 -0.14844,-0.17969 -0.17969,-0.29688 -0.35938,-0.29688 -0.45312,0 -0.44921,2.8711 1.82422,2.75 2.27344,-0.11718 4.39844,-2.36328 4.21875,-5.83203 -0.17968,-3.46875 -2.33203,-5.65234 -5.26172,-5.47656 -2.93359,0.17969 -7.67187,4.22656 -7.42187,11.90625 0.24219,7.41797 5.02344,10.34375 8.40625,10.32031"
       id="path38"
       inkscape:connector-curvature="0" />
    <path
       style="fill:#000000;fill-opacity:1;fill-rule:nonzero;stroke:none"
       d="m 169.94531,169.51172 c 0.11328,-1.67188 0.48438,-3.42969 2.51953,-3.94141 0,0 -0.75781,1.39063 -0.54687,2.70703 0.21094,1.31641 1.34765,3.45703 2.49219,3.96485 0.84375,0.375 0.83593,0.39062 0.83593,0.39062 0,0 0.42578,2.92578 -1.73437,3.08203 -2.08594,0.14844 -3.71094,-4.16015 -3.56641,-6.20312 m 23.87891,-20.48438 c 0.32812,-2.8125 0.6875,-3.26172 1.4375,-3.32031 0.74609,-0.0586 1.13672,2.15234 0.95703,3.58984 -0.17969,1.4375 -0.98828,5.80469 -1.58594,6.3125 0,0 -1.14062,-3.76953 -0.80859,-6.58203 m 16.57422,-1.91406 c 1.46484,-0.0586 2.0625,2.125 2.24218,3.94922 0.17969,1.82422 -0.21093,5.47656 -1.67578,5.59375 -1.46484,0.12109 -2.63281,-2.0625 -2.6914,-4.75781 -0.0625,-2.69141 0.83593,-4.73047 2.125,-4.78516 M 147.125,177.38672 c 0.53906,-0.59766 0.44922,-1.88281 0.12109,-2.0625 0,0 -1.22656,-0.14844 -1.88672,-0.62891 -0.65625,-0.47656 -0.58203,-2.47265 -0.11718,-3.28906 0.74609,-1.31641 2.15234,-1.07813 3.61718,-1.4375 1.46875,-0.35938 2.45313,-1.76172 2.45313,-1.76172 0,0 0.12109,0.26563 -0.0273,0.65625 -0.14844,0.38672 -1.25782,3.60938 -1.19532,5.22656 0.0586,1.61719 0.56641,3.98828 0.56641,3.98828 0,0 -0.21094,0.23829 -0.86719,0.77735 -0.65625,0.53906 -1.34765,1.55469 -1.61719,2.30078 -0.26953,0.75 0.23829,1.79687 0.44922,1.70703 0.21094,-0.0898 0.57032,-0.83594 0.92578,-1.46484 0.35938,-0.62891 1.5586,-1.375 1.5586,-1.375 0,0 0.89844,2.0039 1.07422,4.63281 0.17968,2.63281 -0.95703,3.5 -2.21094,3.85937 -1.25781,0.35938 -2.03516,-0.98437 -2.24609,-1.43359 -0.20704,-0.44922 -0.38672,-1.07812 -0.86719,-1.31641 -0.47656,-0.23828 -0.89453,0.53907 -1.19531,1.19532 -0.30079,0.66015 -0.50782,1.58593 -0.35938,1.97656 0.14844,0.39062 1.375,1.73437 4.875,0.80859 3.5,-0.92968 5.11719,-5.29687 5.23438,-6.9414 0.12109,-1.64844 -0.63282,-5.41797 -0.63282,-5.41797 l 2.37891,-1.54688 c 0,0 0.28906,1.19141 0.67969,2.47657 0.38672,1.28515 2.54297,4.84765 5.95312,4.66796 3.41016,-0.17968 4.72656,-6.3125 4.72656,-6.3125 0,0 1.46485,2.21094 4.33594,1.79297 2.8711,-0.41797 3.53125,-5.35547 3.53125,-5.35547 0,0 1.14844,0.32032 2.21485,0 1.08593,-0.32031 1.91406,-2.27343 1.91406,-2.27343 0,0 0.14844,0.15234 0.26953,0.57031 0.11719,0.41797 1.22656,2.33203 1.22656,2.33203 0,0 0.56641,-0.20703 0.89453,-0.47656 0.32813,-0.26953 1.67578,-1.22656 1.70703,-1.40625 0.0312,-0.17969 -0.0312,-0.32813 -0.35937,-0.95703 -0.32813,-0.62891 -1.58594,-4.05469 -1.58594,-4.05469 0,0 0.21094,-0.55469 0.48047,-1.33203 0.26953,-0.77735 1.16797,-3.94922 1.79297,-4.06641 0.62891,-0.12109 0.89844,0.47656 0.80859,2.24219 -0.0898,1.76562 0.71875,5.89453 2.30469,6.52344 1.58594,0.625 2.63281,-0.66016 3.52734,-1.67578 0.89844,-1.01954 1.82813,-4.1875 1.82813,-4.1875 0,0 0.14062,0.38671 0.63281,1.26171 0.42969,0.75782 1.07031,1.72657 1.07031,1.72657 0,0 0.50782,-0.26953 1.13672,-0.71485 0.62891,-0.44922 1.4961,-1.19922 1.4961,-1.19922 0,0 -0.3125,-0.66406 -0.95703,-2.0625 -0.62891,-1.36328 -1.82422,-5.3125 -1.82422,-5.3125 0,0 0.5664,-1.41796 1.22656,-2.91406 0.66016,-1.49609 3.28906,-1.88672 3.37891,0.32813 0.0898,2.21484 -2.22657,2.26562 -2.58594,3.10156 -0.35938,0.83984 0.38281,0.75 1.27734,0.80859 0.89844,0.0586 0.80078,1.08985 0.92188,1.66016 0.11718,0.57031 0.6289,2.89453 3.32031,2.83594 2.69141,-0.0586 3.82812,-5.6836 3.82812,-5.6836 0,0 1.04688,1.94532 3.38282,2.00391 2.33203,0.0586 3.40625,-3.46875 3.52734,-4.39844 0.12109,-0.92578 0.26953,-2.03515 0.26953,-2.03515 0,0 0.8086,3.26171 3.47266,2.90234 2.66015,-0.35938 3.4414,-6.01172 3.4414,-6.01172 0,0 0.0273,-0.32812 -0.21093,-0.75 -0.24219,-0.41797 -0.44922,-0.50781 -0.6875,0.53906 -0.23828,1.04688 -1.10938,2.75391 -1.91797,2.63282 -0.80469,-0.11719 -1.07422,-0.95704 -1.4336,-2.42188 -0.35937,-1.46484 -1.22656,-5.95312 -1.22656,-6.64062 0,-0.69141 -0.41797,-0.75 -0.75,-0.35938 -0.32812,0.38672 -1.76172,2.83984 -1.76172,2.83984 0,0 -0.0312,-0.14843 -1.70703,-0.5664 -1.67187,-0.41797 -3.78125,1.51172 -4.63672,3.61719 -1.10937,2.72265 -0.48047,7.54296 -0.48047,7.54296 0,0 -0.0586,0.53516 -0.41796,1.28516 -0.35938,0.74609 -0.77735,1.97266 -1.52735,2.125 -0.74609,0.14844 -0.89453,-0.26953 -1.375,-1.67578 -0.47656,-1.40625 -2.57031,-1.25781 -2.57031,-1.25781 0,0 1.67578,-1.25782 2.30078,-2.39063 0.62891,-1.14062 0.26953,-3.59375 -1.43359,-3.94922 -1.70703,-0.35937 -4.12891,1.82422 -4.12891,1.82422 0,0 0.25781,-1.07812 0.44922,-2.30469 0.23828,-1.52734 0.35937,-4.1289 0.17969,-4.63671 -0.17969,-0.50782 -0.89844,-1.55469 -1.37891,-1.9375 -0.48047,-0.38282 -0.77734,-0.39454 -1.07422,-0.15625 -0.30078,0.23828 -2.54297,2.48046 -3.08203,3.08203 -0.40625,0.44531 -0.65625,0.65625 -0.65625,0.65625 0,0 -0.19531,0.0977 -0.30078,4.1875 C 190.4727,156.56641 192.5977,163 192.5977,163 c 0,0 -0.17969,0.89844 -0.44922,1.76562 -0.26953,0.86719 -0.57032,2.21094 -1.70703,2.21094 -1.13672,0 -1.25391,-3.55859 -1.375,-5.59375 -0.11719,-2.03125 -0.89454,-3.85937 -2.125,-3.88672 -1.22657,-0.0312 -2.51172,1.34375 -2.98829,2.66016 -0.47656,1.31641 -1.75781,4.91406 -1.75781,4.91406 0,0 -0.10547,-0.35156 -0.22656,-0.65234 -0.11719,-0.29688 -0.39453,-2.64063 -0.33594,-3.47656 0.0625,-0.83594 -0.13281,-1.14454 -0.46094,-0.9336 -0.32812,0.21094 -1.68359,1.41016 -2.05078,1.71875 -0.42578,0.35938 -0.46484,0.55469 -0.46484,0.55469 0,0 0.0312,0.53906 0.0625,2.33203 0.0273,1.79688 0.98437,5.38672 0.98437,5.38672 0,0 0.008,1.14453 -1.27734,1.89062 -1.28516,0.7461 -2.10156,0.0234 -2.10156,0.0234 0,0 -0.39063,-2.6914 -0.8086,-4.9375 -0.41796,-2.24219 -1.34375,-3.01953 -3.64843,-2.30078 -2.30469,0.71875 -3.92188,3.55859 -4.39844,5.47266 -0.44531,1.79297 0.30078,5.5039 0.30078,5.5039 0,0 0.0273,0.1836 -0.0312,0.51172 -0.0586,0.32813 -1.10547,2.39063 -2.18359,3.05078 -1.07813,0.65625 -2.125,0.0586 -3.14063,-1.16797 -1.01562,-1.22656 -1.73437,-4.42578 -1.73437,-4.42578 0,0 1.61328,-1.61718 2.30078,-2.33593 0.6914,-0.71875 0.53906,-1.67579 0.21094,-2.09375 -0.33204,-0.41797 -0.47657,0.15234 -1.01563,0.77734 -0.53906,0.62891 -1.85547,1.76562 -1.85547,1.76562 0,0 -0.15234,-0.41796 -0.26953,-2.24218 -0.12109,-1.82422 0.20703,-6.85157 0.35938,-7.42188 0.14843,-0.5664 -0.1211,-1.01562 -0.53907,-0.77734 -0.42187,0.23828 -2.93359,2.7539 -2.96093,2.875 -0.0312,0.11719 -0.21094,1.61328 -0.44922,3.64844 -0.24219,2.03125 0.35547,6.10156 0.35547,6.10156 0,0 -0.35547,0.23828 -0.92579,0.66015 -0.5664,0.41797 -1.76562,1.10547 -1.76562,1.10547 0,0 -0.375,-1.01953 -0.65625,-1.97265 -0.32813,-1.125 -0.71484,-3.46485 -0.89063,-4.69141 -0.24609,-1.70703 0.6211,-3.74609 0.14063,-3.92578 -0.47656,-0.17969 -0.47656,0 -1.52344,0.92578 -1.04687,0.92969 -0.53906,0.21094 -3.35156,1.22656 -2.8125,1.01953 -3.46875,3.23047 -3.82813,4.48438 -0.36328,1.25 -0.6289,3.92187 0.47657,5.17969 1.10937,1.25781 2.09375,1.07421 2.63281,0.47656"
       id="path40"
       inkscape:connector-curvature="0" />
  </g>
</svg>
