<?xml version="1.0" encoding="UTF-8" standalone="no"?>
<svg id="svg82" height="327.14847" viewBox="0 0 225.00001 245.36133" width="300" xmlns="http://www.w3.org/2000/svg" xmlns:xlink="http://www.w3.org/1999/xlink">
   <clipPath id="clip1">
      <path id="path2" d="m0 0h478.35938v521.64844h-478.35938zm0 0"/>
   </clipPath>
   <g id="surface56" transform="scale(.47035766)">
      <g id="g9" clip-path="url(#clip1)" fill="#211e1e">
         <path id="path7" d="m475.51172 50.5625c-7.91016.925781-12.33984 1.359375-20.26953 2.027344-16.69141 1.382812-27.86328 2.371094-41.75391 2.371094-4.57422-.0078-9.45703-.109375-14.92187-.339844-24.35547-1.066406-37.96875-2.425781-61.59766-8.070313-24.16406-5.8125-37.62891-9.691406-59.44922-21.164062-12.41406-6.519531-18.97265-10.683594-30.18359-19.113281l-8.78906-6.27734425-1.50391 1.26171925-6.11328 5.101562c-11.11328 8.34375-17.67188 12.507813-30.08594 19.027344-21.82031 11.472656-35.29297 15.351562-59.44531 21.164062-23.63282 5.644532-37.2461 7.003907-61.601565 8.070313-5.484375.234375-10.355469.332031-14.933594.332031-13.890625.007813-25.050781-.984375-41.742187-2.363281-7.941406-.667969-12.351563-1.101563-20.269531-2.027344l-2.851563-.324219v8.972657c.269531 24.328125 1.183594 38.25 4.082031 62.382812 4.953125 41.19531 10.0625 64.69141 22.496094 104.27734 13.59375 43.3086 23.359375 67.94141 46.023438 107.375 18.207031 31.70704 30.804687 48.6875 54.195307 76.69532 24.05469 28.82422 40.81251 42.3125 67.33985 68.3789 12.20703 11.98828 19.03125 18.88672 31.59766 30.57813 4.73437 4.39843 7.41796 6.91406 12.24218 11.23437l1.70703 1.51563 1.71094-1.51563c4.95703-4.42969 7.00781-7.05078 11.28906-11.29297 12.11719-12.00781 19.28907-18.48046 31.54297-30.51953 26.52735-26.0664 43.27344-39.55468 67.33594-68.3789 23.39063-28.00782 35.99219-44.98828 54.19922-76.69532 22.66016-39.43359 32.42969-64.0664 46.01953-107.375 12.44531-39.58593 17.53516-63.08203 22.49219-104.27734 2.91015-24.132812 3.82031-38.054687 4.08594-62.359375v-8.996094z"/>
      </g>
      <path id="path11" d="m24.542969 128.95313c5.304687 38.57421 9.300781 59.98437 20.914062 96.99609 12.773438 40.62109 21.585938 62.90234 42.71875 99.70703 17.011719 29.57813 28.410159 44.94141 50.328129 71.22656 22.28515 26.6875 37.71484 39.09766 62.92578 63.86328 11.52344 11.31641 17.86328 17.71875 29.60547 28.64063 3.42578 3.19531 5.67578 5.28906 8.57422 7.91797 2.55468-2.50781 4.35937-4.58203 7.62109-7.82422 11.50391-11.39844 18.26172-17.51172 29.69531-28.73438 25.21875-24.76562 40.63672-37.17578 62.91797-63.86328 21.92969-26.28515 33.33594-41.64843 50.34766-71.22656 21.11718-36.80469 29.9414-59.08594 42.71484-99.70703 11.60547-37.01172 15.60156-58.42188 20.91016-96.99609 3.10547-22.57032 4.27734-35.207036 5.35937-57.945317v-.957032c-5.5039.578125-9.76562.941407-16.18359 1.4375-15.89844 1.210938-26.72656 2.234375-40.42578 2.234375-4.23047 0-8.71875-.09766-13.71094-.3125-23.00781-1-36.65625-2.363281-59.20703-7.785156-22.76563-5.429687-36.47656-9.410156-57.47266-20.472656-11.83984-6.214844-18.62109-10.507813-29.21484-18.492188l-4.0625-2.898437-3.375 2.804687-.0352.02344c-10.68359 8.054687-17.45703 12.347656-29.30078 18.5625-20.98828 11.0625-34.71094 15.042969-57.47266 20.472656-22.55078 5.421875-36.20703 6.785156-59.218746 7.785156-4.984375.214844-9.480469.3125-13.710938.3125-13.707031 0-24.539062-1.023437-40.414062-2.234375-6.429688-.496093-10.671875-.859375-16.1875-1.4375v.96875c1.085937 22.722657 2.253906 35.363277 5.359375 57.933597m212.304731 377.19531c-4.5586-4.07422-7.10938-6.46485-11.55078-10.58985-11.85157-11.02734-18.29297-17.54296-29.76954-28.8125-24.89062-24.46093-40.74218-37.22656-63.47656-64.46093-22.02734-26.3711-34.007811-42.53125-51.179686-72.42969-21.375-37.17578-30.664063-60.59766-43.460938-101.38672-11.734375-37.35547-15.90625-59.70703-21.210937-98.36719-3.132813-22.72265-4.34375-35.871091-5.441406-58.792966v-10.636719l4.675781.511719c8.039062.867187 12.5 1.28125 20.578125 1.902344 15.988281 1.222656 26.527344 2.210937 39.773437 2.210937 4.097657 0 8.476563-.09766 13.351563-.300781 22.898441-1.011719 35.472651-2.257813 57.609371-7.566406 22.72657-5.453125 35.10547-9.023438 55.51954-19.730469 11.60546-6.109375 17.61718-9.914063 28.08203-17.773438l5.66015-4.722656 2.49219-2.082031 9.43359 6.738281c10.51172 7.910156 16.52735 11.710938 28.16016 17.839844 20.41016 10.707031 32.79297 14.277344 55.52344 19.730469 22.13672 5.308593 34.70703 6.554687 57.59765 7.566406 4.87891.203125 9.25391.300781 13.35157.300781 13.25 0 23.79297-.988281 39.78906-2.210937 8.05469-.621094 12.53906-1.035157 20.58594-1.902344l4.66015-.515625v10.488281l-.008.164063c-1.08203 22.910156-2.30469 36.058597-5.42969 58.781247-5.30468 38.66016-9.49218 61.01172-21.22265 98.36719-12.79297 40.78906-22.07813 64.21094-43.45703 101.38672-17.17188 29.89844-29.14063 46.05859-51.17188 72.42969-22.74219 27.23437-38.58984 40-63.48047 64.46093-11.55078 11.35157-18.29687 17.44141-29.67187 28.72266-3.95313 3.89844-5.94922 6.42578-10.69922 10.67969l-2.8086 2.50781-2.80468-2.50781" fill="#fff"/>
      <path id="path13" d="m58.792969 102.72656l-.375-7.183591-18.734375.984375 1.703125 32.628906 8.488281-.44531-.667969-12.8125 9.300782-.48047-.386719-7.1875-9.300781.48828-.28125-5.45313z" fill="#fff"/>
      <path id="path15" d="m87.753906 95.257813c-2.542968-.949219-5.082031-1.46875-7.808593-1.378907-4.59375.167969-9.152344 2.324219-12.246094 5.722657-3.007813 3.316407-4.542969 7.656247-4.390625 12.117187.171875 4.85547 1.964844 9.03516 5.667969 12.16797 3.488281 2.94922 7.882812 4.53125 12.429687 4.37891 2.636719-.0938 4.648438-.81641 7.429688-1.77344l-.347657-10.17969c-1.703125 2.17969-4.425781 3.61328-7.199218 3.71875-5.285157.17969-8.964844-3.42188-9.140625-8.57813-.183594-5.0664 3.191406-9.17187 8.386718-9.34765 2.90625-.10156 5.757813 1.05469 7.570313 3.33203z" fill="#fff"/>
      <path id="path17" d="m114.70703 92.285156l-8.42969 1.039063 3.97657 32.425781 8.4414-1.02734z" fill="#fff"/>
      <path id="path19" d="m124.98047 124.44531l8.27734-1.91015-4.51562-19.50782.0938-.0156 19.66406 16.01172 8.27734-1.91797-7.35546-31.835939-8.26954 1.910157 4.48829 19.464842-.082.0234-19.65625-15.964845-8.27734 1.90625 7.35547 31.835935" fill="#fff"/>
      <path id="path21" d="m167.71094 87.054688l6.70312-2.050782-2.10156-6.882812-21.55078 6.589844 2.10937 6.878906 6.71875-2.050781 7.44141 24.371097 8.12891-2.48438z" fill="#fff"/>
      <path id="path23" d="m192.05859 77.261719l-2.92578-6.566406-16.98047 7.554687 13.28516 29.85156 16.98438-7.55469-2.92579-6.574214-9.22265 4.105469-2.29297-5.140625 8.75391-3.902344-2.92969-6.566406-8.75 3.890625-2.21875-4.984375z" fill="#fff"/>
      <path id="path25" d="m204.04297 69.949219l.75391-.347656c2.51171-1.171875 5.55468-2.019532 7.05859 1.203125 1.49609 3.214843-1.10547 5.011718-3.61719 6.183593l-.7539.347657zm13.02734 8.035156c3.85157-2.703125 4.48438-7.296875 2.57422-11.390625-2.94531-6.324219-8.6875-7.035156-14.53906-4.308594l-11.50781 5.359375 13.80468 29.617188 7.70313-3.589844-5.3125-11.390625.082-.03516 12.58203 7.996094 9.57422-4.457032-14.96094-7.800781" fill="#fff"/>
      <path id="path27" d="m273.29297 70.394531l6.59766 2.402344 2.46093-6.769531-21.17578-7.699219-2.46484 6.757813 6.59765 2.402343-8.71875 23.941407 7.98829 2.90625z" fill="#fff"/>
      <path id="path29" d="m308.92578 76.132813l-5.89062 16.171875c-1.44532 3.984375-3.31641 8.238282-8.45703 6.367187-5.12891-1.863281-3.83204-6.324219-2.3711-10.3125l5.87891-16.171875-7.98047-2.902344-6.28125 17.269532c-1.4375 3.953125-2.70313 7.917968-.72656 12 1.64062 3.457032 5.34765 5.832032 8.9375 7.128902 3.58203 1.30078 7.9414 1.8711 11.42578.28907 4.13672-1.86719 5.71875-5.71485 7.15625-9.667972l6.28906-17.269532z" fill="#fff"/>
      <path id="path31" d="m330.78125 89.316406l.80469.191407c2.68359.671875 5.59375 1.933593 4.73047 5.378906-.85547 3.453125-4.00782 3.199219-6.70703 2.527344l-.80469-.203125zm5.07031 14.429684c4.69532.32422 8.07813-2.85547 9.17969-7.222652 1.67969-6.773438-2.32812-10.945313-8.59766-12.507813l-12.32421-3.066406-7.89844 31.710941 8.24609 2.04687 3.03906-12.19141.0781.0234 4.73828 14.13281 10.26172 2.55469-6.72266-15.48047" fill="#fff"/>
      <path id="path33" d="m361.42969 102.74609l-.082-.0156 1.87109-13.343751-8.41406-1.179688-4.54297 32.359379 8.41797 1.17968 1.96484-14.03515.0859.0195 8.88672 15.55078 10.90234 1.53516-11.63672-19.01172 15.02735-13.507815-10.42578-1.464844-12.05469 11.914059" fill="#fff"/>
      <path id="path35" d="m410.96875 94.390625l-1.49609 17.144535c-.375 4.23046-1.08594 8.82031-6.51563 8.34375-5.44922-.48047-5.34375-5.11719-4.97656-9.35547l1.5-17.132815-8.45703-.746094-1.59766 18.304689c-.37109 4.19531-.55469 8.34765 2.40235 11.78125 2.48046 2.92187 6.67578 4.24219 10.47265 4.58203 3.79297.32031 8.16016-.24609 11.11328-2.69531 3.50782-2.85938 4.05078-6.9961 4.41016-11.17969l1.60547-18.304687z" fill="#fff"/>
      <path id="path37" d="m275.77344 417.48047l-5.35156-4.8125-12.55079 13.94531 24.28907 21.86719 5.67968-6.3125-9.53515-8.58594 6.24219-6.92187-5.35157-4.8125-6.23437 6.92968-4.05469-3.65625z" fill="#fff"/>
      <path id="path39" d="m283.41016 398.88281l-5.79297 6.21485 23.89453 22.28906 5.79687-6.21875z" fill="#fff"/>
      <path id="path41" d="m314.84375 413.58594l5.68359-6.3125-14.88281-13.39844.0586-.0664 25.29296 1.83594 5.67969-6.30859-24.27734-21.8711-5.69141 6.3086 14.85547 13.37109-.0547.0664-25.26953-1.80469-5.67969 6.30859 24.28516 21.8711" fill="#fff"/>
      <path id="path43" d="m322.04688 354.24219l-5.11329 6.78906 26.10157 19.66016 11.23047-14.91797-5.7461-4.32813-6.125 8.12891z" fill="#fff"/>
      <path id="path45" d="m357.68359 337.62891l-3.73828 5.99218-6.96484-8.5.0547-.0664zm6.73829 1.49609l5.93359 1.20703 4.79687-7.67969-34.23046-6.875-4.91797 7.85547 21.0625 27.98047 4.76562-7.64062-3.60937-4.92578z" fill="#fff"/>
      <path id="path47" d="m379.16016 326.00781l3.98828-7.5039-17.67578-9.39844.0351-.0742 24.99219-4.33984 3.97656-7.50391-28.84765-15.33594-3.98828 7.5 17.63671 9.375-.043.082-24.9375 4.35547-3.99219 7.50782 28.85547 15.33593" fill="#fff"/>
      <path id="path49" d="m381.49609 268.03906l.95704-1.74218c2.65625-4.78125 7.40625-6.55469 12.53125-3.71875 5.5664 3.08984 5.88671 8.22656 3.42968 12.65625l-.92187 1.67187zm18.17188 19.78125l5.83594-10.53515c4.39062-7.92578 1.79687-17.98047-6.23828-22.44141-8.03907-4.44922-17.92969-1.36328-22.33985 6.59766l-5.83594 10.54297z" fill="#fff"/>
      <path id="path51" d="m83.070313 274.72656l-3.316407-6.24609 10.828125-1.77344.04297.0742zm-4.660157 5.07813l-4.023437 4.54297 4.25 8 23.074221-26.21485-4.347659-8.18359-34.75 4.23047 4.226563 7.96875 6.070312-.67969zm29.878904-22.51953c.55469 1.03515.76172 2.44531-.45703 3.09375-1.22266.64843-2.27344-.32032-2.82812-1.35157-.56641-1.0625-.77735-2.47656.44921-3.125 1.22266-.65625 2.28125.30079 2.83594 1.38282m2.72266-1.54688c-1.52344-2.86719-4.2461-5.20312-7.53125-3.45703-3.32422 1.76563-2.71485 5.41797-1.20313 8.25 1.4961 2.83594 4.23828 5.21094 7.48828 3.47656 3.33594-1.76953 2.77344-5.40234 1.2461-8.26953" fill="#fff"/>
      <path id="path53" d="m106.61328 290.07031l.28906.54297c1.07422 2.02344 2.16407 4.44141-.48047 5.84375-2.44531 1.29688-3.89062-.58203-4.95312-2.57031l-.44531-.85156zm-20.95703 16.34375c2.808594 5.28516 7.546875 9.39063 13.59375 6.17578 4.01562-2.13671 5.875-5.3789 4.21875-9.79687l.0625-.043c2.43359 1.71094 4.99219 1.42969 7.58984.043 5.51172-2.93359 5.67188-7.4375 2.9375-12.55859l-5.6914-10.71485-28.855471 15.33594zm9.785156-10.40234l.410157.76562c1.296875 2.44922 3.609375 5.98047.132812 7.82422-3.175781 1.6875-5.058594-2.11718-6.238281-4.33593l-.507813-.95704z" fill="#fff"/>
      <path id="path55" d="m123.69922 321.11719c2.6914 4.29297 1.40234 10.00781-2.42578 12.39844-4.76953 2.98046-10.47266 1.63671-13.15625-2.66407-2.6875-4.30468-1.39844-10.00781 3.375-13 3.82031-2.3789 9.51953-1.03125 12.20703 3.26563m6.98047-4.36719c-4.98438-7.97266-15.45703-11.65234-23.83594-6.41016-8.972656 5.60157-11.273437 15.98438-5.71484 24.88672 5.55859 8.88672 15.89843 11.36328 24.86718 5.76172 8.38282-5.24219 9.67188-16.26172 4.6836-24.23828" fill="#fff"/>
      <path id="path57" d="m148.13672 357.14453l-20.35156 15.33203 5.10937 6.78516 26.10156-19.66406-7.93359-10.52344-5.74219 4.32812z" fill="#fff"/>
      <path id="path59" d="m168.30078 378.89453c1.95703 2.26563 1.75391 5.65625-.5 7.61719-2.25781 1.96094-5.64844 1.69531-7.61719-.5625-1.95312-2.25391-1.63671-5.52344.6211-7.48828 2.2539-1.95703 5.52734-1.82031 7.49609.43359m-19.64062 18.96875l11.48828-.73047c4.64844-.32812 9.67969-1.48047 13.24219-4.57031 2.58984-2.25 4.0625-5.83203 3.92968-9.22656-.10937-3.23047-1.91015-6.48828-3.98047-8.87891-4.89453-5.62109-12.48828-7.7539-18.52734-2.48828-4.55859 3.94922-6.03516 10.62891-1.82812 15.47266 1.13281 1.30859 2.30859 2.125 3.76171 2.8164l-.008.125-14.41406.1836 6.33594 7.29687" fill="#fff"/>
      <path id="path61" d="m187.59766 400.20703c2.04297 2.17578 1.94531 5.58985-.23438 7.6211-2.1875 2.04296-5.57812 1.89062-7.62109-.29688-2.03516-2.1875-1.83594-5.46094.35156-7.50391 2.19141-2.03906 5.47266-2.00781 7.50391.17969m-18.95703 19.62891l11.44531-1.13672c4.64453-.46875 9.6289-1.80469 13.08203-5.02344 2.50781-2.33984 3.85547-5.97265 3.60937-9.35547-.22265-3.21875-2.14062-6.41015-4.30078-8.73437-5.07812-5.45313-12.73437-7.3125-18.60156-1.85156-4.40625 4.11328-5.66016 10.85156-1.27344 15.53906 1.17969 1.26562 2.3711 2.05078 3.85157 2.6875l-.004.11328-14.41016.70312 6.60157 7.0586" fill="#fff"/>
      <path id="path63" d="m207.21484 422.25391c2.9961 3.19922-1.37109 8.68359-3.6875 10.83984-2.3125 2.16016-8.16015 6.19531-11.14062 2.98828-2.98047-3.19922 1.44141-8.75 3.75-10.90234 2.3125-2.16016 8.10156-6.13281 11.07812-2.92578m5.49219-5.11328c-6.6289-7.10157-16.15234-3.91016-22.36719 1.88281-6.21093 5.79297-10.07812 15.04687-3.43359 22.17578 6.65234 7.12109 16.14453 3.90234 22.35156-1.89063 6.21485-5.79296 10.06641-15.07031 3.44922-22.16796" fill="#fff"/>
      <path id="path65" d="m106.61719 240.24219c11.15625 26.40234 20.37109 39.83203 35.32812 64.70312 12.35938 20.58203 19.17188 32.13282 33.33203 51.33985 9.55079 12.95312 16.34766 21.84765 24.92579 31.60547l-21.57813-257.375c-.45312.13281-.92187.26562-1.38672.39843-17.97265 5.16797-28.61328 7.19532-47.05078 9.92188-19.77734 2.9414-31.878906 3.96875-50.839844 4.20703.179688 1.80859.371094 3.56641.554688 5.23437 1.894531 8.71875 3.578125 15.5625 6.273437 25.81641 6.75 25.58984 10.238282 39.98828 20.441409 64.14844" fill="#234c9e"/>
      <path id="path67" d="m300.10156 130.91406c-.043-.0117-.0742-.0195-.11718-.0352-.53125-.0586-1.07032-.13282-1.625-.19922l-21.58594 257.63286c8.75781-9.92578 15.60547-18.89062 25.29687-32.02734 14.15235-19.20313 20.95703-30.75782 33.32813-51.33203 14.95312-24.87891 24.17187-38.30469 35.32422-64.71094 10.20312-24.16016 13.6875-38.5586 20.4375-64.14844 3.23047-12.22266 4.98047-19.55469 7.39843-31.04297-19.29296-.23437-31.4414-1.2539-51.40625-4.21094-18.4375-2.73046-29.07812-4.75781-47.05078-9.92578" fill="#eb1923"/>
      <path id="path69" d="m391.16016 176.09766c-6.7461 25.58203-10.23047 39.98828-20.4375 64.14453-11.15625 26.41015-20.375 39.83594-35.32422 64.70703-12.35938 20.57422-19.17188 32.13281-33.33203 51.33984-9.69141 13.125-16.54297 22.10157-25.29688 32.01953l21.59766-257.63281.0234-.24609c.52343.14844 1.05468.30078 1.58984.45703.0469.0117.082.0195.082.0195 18.02344 5.17969 28.66016 7.20703 47.08594 9.92969 19.97265 2.96875 32.11719 3.98437 51.40625 4.21875-2.41016 11.48828-4.16406 18.82422-7.39453 31.04297m-127.14446 225.9805c-7.45704 7.7539-12.8086 11.33203-20.4375 19.77734-1.36329 1.51562-3.07422 3.51562-4.35938 5.03516-1.87891-1.70313-3.39062-3.11719-5.63281-5.21094-8.10938-7.54688-12.64453-11.69141-20.25781-19.60156-2.58204-2.6836-4.96094-5.19532-7.1836-7.59766l.3711-.0391-22.26563-265.50387c11.49219-3.21484 20.13281-5.63672 32.28125-12.02734 8.125-4.28125 12.77344-7.21485 20.10547-12.73829l2.12109-1.76953 1.82032 1.67188.13281.0977c7.32812 5.52344 11.97656 8.45704 20.09375 12.73047 12.04297 6.33594 20.63672 8.78516 31.95703 11.94532l-22.27344 265.59375.6875.0625c-2.21875 2.40234-4.58203 4.90625-7.16015 7.57422m-88.73829-45.78907c-14.16015-19.20703-20.96093-30.76562-33.33203-51.33984-14.96484-24.87109-24.16797-38.29688-35.32812-64.70703-10.203127-24.15625-13.687502-38.5625-20.433596-64.14453-2.703125-10.25782-4.378906-17.10157-6.28125-25.8125-.359375-1.67188-.726563-3.38282-1.117188-5.23047.191407 0 .375 0 .566407-.0117 18.957031-.24219 31.062497-1.27344 50.839847-4.20703 18.43359-2.72266 29.07812-4.75 47.04687-9.92578.46485-.12891.92578-.26563 1.39453-.38672l21.57422 257.37109c-8.58984-9.75781-15.3789-18.65234-24.92969-31.60547m226.82032-216.9414c-21.25782-.16016-33.08203-1.07422-54.10938-4.17969-18.37109-2.72656-28.51172-4.66016-46.29687-9.76563-15.5625-4.46875-24.32032-6.27734-38.21094-13.58203-7.9375-4.17578-12.05859-6.78906-19.19531-12.144529l-5.34375-4.898437-5.875 4.886719c-7.08985 5.339847-11.21485 7.949217-19.20313 12.156247-13.89062 7.30469-22.64844 9.11328-38.20703 13.58203-17.79297 5.10547-27.92969 7.03907-46.29687 9.76563-21.03907 3.10547-32.85938 4.01953-54.121099 4.17969l-3.5.0312.714844 3.42187c2.824219 13.60156 4.632813 21.32031 8.167969 34.75 6.726562 25.48828 10.363281 40.42188 20.714846 64.92969 11.33203 26.84375 20.83984 40.74219 35.6875 65.42969 12.32812 20.51562 19.32422 32.39453 33.63281 51.78515 13.87109 18.81641 22.23828 29.46094 38.54297 46.36328 7.71094 8.01172 12.39062 12.3086 20.47656 19.82032 3.04688 2.83203 4.78516 4.46875 7.91797 7.26172l2.21875 1.97265 1.90234-2.27344c0 0 3.71094-4.45312 6.13282-7.14453 7.16406-7.97265 12.41797-11.46875 20.30859-19.63672 16.28516-16.90234 24.66016-27.54687 38.52734-46.36328 14.3125-19.39062 21.29688-31.26953 33.63672-51.78515 14.83985-24.6875 24.34766-38.58594 35.6875-65.42969 10.35938-24.50781 13.98047-39.44141 20.70313-64.92969 3.54687-13.42969 5.35547-21.15625 8.17187-34.75l.71094-3.42187z" fill="#fff"/>
      <path id="path71" d="m265.23047 143.14063l-19.44922-1.33985-7.14453-17.28906-7.14453 17.28906-19.28125 1.33203 14.3125 13.1211-4.34766 19.33593 16.46094-10.80859 16.6875 10.95313-5.02734-19.47266z" fill="#fff"/>
      <path id="path73" d="m369.98047 177.15234l-18.92188-4.69921-4.03515-18.26172-10.03516 15.77734-19.24219-2.03125 11.83594 15.41016-7.64062 18.28125 18.08984-7.77344 14.51953 13.6875-1.5664-20.05859z" fill="#fff"/>
      <path id="path75" d="m160.26953 171.21094l-19.5.35937-8.6289-16.59765-5.60157 17.84375-19.10937 3.00781 15.42187 11.82812-2.65234 19.62891 15.45703-12.19141 17.56641 9.46094-6.70703-18.96094z" fill="#fff"/>
      <path id="path77" d="m239.12109 381.78125c37.42969 0 67.76172-30.33984 67.76172-67.76953 0-37.42969-30.33203-67.76953-67.76172-67.76953-37.42187 0-67.76953 30.33984-67.76953 67.76953 0 37.42969 30.34766 67.76953 67.76953 67.76953" fill="#fff"/>
      <path id="path79" d="m266.91406 347.05078l-7.82812 25.60547h-38.80469l-7.85547-25.67969 13.85156-26.05078h26.76563zm25.44141-61.12109l11.52344 8.0664c-2.1875-7.08984-5.51172-13.66796-9.75782-19.55859l-2.66796 8.73438-29.65235 7.9375-21.23047-15.42188v-29.41016c-.48047-.008-.96875-.0273-1.44922-.0273-.48437 0-.96875.0195-1.44531.0273v29.41016l-21.23047 15.42188-27-7.23047-3.58593-11.73438c-5.52735 7.00781-9.69141 15.13281-12.10547 23.99219l13.89843-9.73828 27.61329 7.40234 8.40234 25.85938-13.89453 26.125-27.77344-.48047-1.14062 3.3164c7.98828 13.42579 20.48437 23.85938 35.40234 29.19532l3.25391-2.27735v.0234h40.36718l2.83594 1.99609c15.04688-5.59765 27.54688-16.3789 35.375-30.16015l-.73047-2.09375-27.82422.48047-14.42187-27.1211-.26953.14844 8.125-25.01172 29.38281-7.87109" fill="#211e1e"/>
   </g>
</svg>
