<?xml version="1.0" encoding="UTF-8" standalone="no"?>
<svg
   xmlns:dc="http://purl.org/dc/elements/1.1/"
   xmlns:cc="http://creativecommons.org/ns#"
   xmlns:rdf="http://www.w3.org/1999/02/22-rdf-syntax-ns#"
   xmlns:svg="http://www.w3.org/2000/svg"
   xmlns="http://www.w3.org/2000/svg"
   viewBox="0 0 161.05098 250"
   id="svg59"
   height="250"
   width="161.05098"
   version="1.1">
  <metadata
     id="metadata65">
    <rdf:RDF>
      <cc:Work
         rdf:about="">
        <dc:format>image/svg+xml</dc:format>
        <dc:type
           rdf:resource="http://purl.org/dc/dcmitype/StillImage" />
        <dc:title></dc:title>
      </cc:Work>
    </rdf:RDF>
  </metadata>
  <defs
     id="defs63" />
  <g
     transform="matrix(0.44097217,0,0,0.44097217,-50.7245,-60.624986)"
     id="Layer1000">
    <path
       id="path2"
       style="fill:#000200;fill-rule:evenodd"
       d="M 115.0288,424.4417 296.2466,137.4803 480.2468,422.7872 298.8424,704.4095 Z" />
    <path
       id="path4"
       style="fill:#ffd738;fill-rule:evenodd"
       d="M 119.1563,424.4052 296.2774,143.9308 476.118,422.7885 298.8147,698.044 Z" />
    <path
       id="path6"
       style="fill:#000200;fill-rule:evenodd"
       d="m 132.6476,424.0231 166.079,253.3161 163.3635,-253.8605 c -20.046,20.3174 -43.7487,34.7002 -69.4192,44.3277 -0.6311,6.8574 -2.4973,11.8807 -5.1182,15.6478 -3.63,5.1248 -8.7552,7.6876 -14.3073,9.182 l -1.0676,0.2139 0.4273,1.0675 c 0.8541,2.349 1.7083,4.698 2.349,7.047 1.7082,7.0469 1.9217,13.4531 -0.6407,19.2186 -2.349,5.5521 -7.2604,10.2501 -15.5888,13.6666 -1.7082,0.6407 -3.6299,1.2814 -5.552,1.7083 -0.6403,-2.9897 -1.4949,-6.8331 -3.2032,-10.8908 -1.9216,-4.4841 -4.9113,-9.182 -9.182,-12.8124 -3.2031,-2.5624 -7.4738,-4.4841 -11.5315,-5.5517 -4.4841,-1.2814 -8.7547,-1.2814 -10.8903,-0.2138 -2.5624,1.4948 -4.0572,5.7655 -4.2706,10.8907 0,4.4841 1.0675,10.0362 3.6299,14.7342 2.9897,5.7659 7.6877,10.6669 14.3073,14.2973 5.5521,2.9897 11.9583,4.9114 19.6455,5.1248 -1.281,6.4062 -2.9892,14.1038 -6.1923,19.8693 -3.2032,5.766 -8.3284,10.0367 -16.6563,10.2501 -2.9897,0 -6.1928,-0.6407 -9.3959,-2.1351 -3.63,-1.2815 -7.2604,-3.417 -11.7445,-5.766 l -1.9221,-1.0675 0.4273,1.9216 c 2.1351,11.7449 2.349,23.0625 0.8541,33.3126 -1.4948,9.8227 -4.2711,19.0052 -8.7552,26.6924 -4.2711,-7.6872 -7.2603,-16.8697 -8.5418,-26.6924 -1.4948,-10.2501 -1.2809,-21.5677 0.8542,-33.3126 l 0.2134,-1.9216 -1.7083,1.0675 c -4.4841,2.349 -8.3279,4.4845 -11.7444,5.766 -3.417,1.4944 -6.4062,2.1351 -9.3959,2.1351 -8.3279,-0.2134 -13.4532,-4.4841 -16.6563,-10.2501 -3.2031,-5.7655 -4.9114,-13.4631 -6.1928,-19.8693 7.6877,-0.2134 14.0939,-2.1351 19.4325,-5.1248 6.6197,-3.6304 11.5311,-8.5314 14.5208,-14.2973 2.5624,-4.698 3.6299,-10.2501 3.4165,-14.7342 0,-5.1252 -1.4949,-9.3959 -4.0573,-10.8907 -2.1355,-1.0676 -6.4062,-1.0676 -10.8907,0.2138 -4.0573,1.0676 -8.3279,2.9893 -11.531,5.5517 -4.2707,3.6304 -7.047,8.3283 -9.1821,12.8124 -1.7087,4.0577 -2.5628,7.9011 -3.2031,10.8908 -1.9221,-0.4269 -3.8438,-1.0676 -5.5521,-1.7083 -8.3283,-3.4165 -13.2397,-8.1145 -15.5887,-13.6666 -2.5624,-5.7655 -2.349,-12.1717 -0.6407,-19.2186 0.6407,-2.349 1.4948,-4.698 2.349,-7.047 l 0.4273,-1.0675 -1.068,-0.2139 c -5.5517,-1.4944 -10.6769,-4.0572 -14.3069,-9.182 -2.4474,-3.5177 -4.2373,-8.131 -4.9773,-14.3108 -26.5337,-9.451 -51.0181,-23.9778 -71.6215,-45.1203 z m 324.6525,-13.0272 -22.1693,-33.9294 -2.7615,26.3888 z M 428.4066,366.7744 296.3408,164.6478 165.6743,367.3344 c 7.0508,5.546 14.3515,10.9124 21.9077,15.895 L 296.9914,214.8127 406.3089,382.8181 c 7.6191,-5.0345 14.9836,-10.4513 22.0977,-16.0437 z m -269.1958,10.5862 -22.6378,35.1154 26.2413,-8.1015 z" />
    <path
       id="path8"
       style="fill:#000200;fill-rule:evenodd"
       d="M 296.9914,418.9581 C 253.002,418.7445 217.1237,413.4127 162.6709,370.491 l 4.9282,36.9459 -34.5936,10.6805 c 42.9217,46.1248 103.9843,61.2694 164.2028,61.4829 60.432,-0.2135 121.9317,-16.4426 165.067,-62.5675 l -34.5936,-10.4635 3.8437,-36.729 c -54.4529,42.9217 -90.3311,48.9042 -134.534,49.1178 z" />
    <g
       id="Layer1001">
      <path
         id="path10"
         style="fill:#000200;fill-rule:evenodd"
         d="m 296.9914,350.1845 c 15.8438,0 30.7419,6.2639 42.0391,17.3356 10.5924,10.5931 16.6893,24.7217 17.2879,39.6159 -0.567,0.1714 -1.1348,0.3392 -1.7035,0.5041 -0.2741,-8.1562 -2.2895,-16.0156 -5.7547,-22.9974 -2.1863,-4.4056 -0.779,-3.0283 -8.52,-13.0906 l -0.6407,3.63 -1.281,10.8908 c 1.8132,2.9077 2.8001,5.5156 3.6299,8.1145 0.6407,2.3489 1.0676,4.9113 1.0676,7.6872 2.4565,2.293 4.9005,4.5995 7.3406,6.9094 -4.7665,1.2419 -9.5968,2.2622 -14.522,3.0751 0.2772,-0.3414 0.5474,-0.6862 0.8107,-1.0354 1.6615,-2.2028 3.1281,-4.3861 4.449,-7.027 0,-5.6671 -1.2949,-11.6577 -4.4845,-16.4429 -6.8331,-4.9113 -10.4635,-6.1923 -17.7239,-6.1923 l -2.8135,4.6333 -0.8164,1.3456 -2.1356,3.4166 6.6197,21.3542 2.4374,1.6618 c -8.4112,0.7522 -16.8575,1.0064 -25.2861,1.0472 -5.3161,-0.0256 -10.6404,-0.1267 -15.9596,-0.3783 l -1.1239,-1.0493 -2.6639,0.8437 c -1.7768,-0.1089 -3.5528,-0.2373 -5.3274,-0.3869 l 7.7779,-2.5923 c 2.3281,-6.9841 4.6598,-13.9633 7.0469,-20.927 -2.4943,-3.3293 -5.4003,-7.1706 -6.6196,-9.6093 -7.2604,0.2134 -14.948,0.6407 -21.995,2.349 -0.6407,2.3489 -1.281,4.484 -1.9217,6.6196 -1.0675,3.8438 -1.9221,7.6876 -2.1355,11.3176 3.6946,5.0381 7.125,8.8871 10.2912,12.0672 -6.7107,-0.822 -13.2288,-2.0015 -19.6307,-3.5762 l 7.2044,-8.491 c 0.4268,-3.8438 1.2809,-7.9011 2.3485,-11.7449 0.6407,-2.3485 1.2814,-4.6975 2.1356,-7.0465 l -3.8439,-8.7552 c -7.7917,9.4324 -12.6293,21.621 -13.002,34.676 -0.5695,-0.161 -1.1387,-0.3245 -1.7069,-0.492 0.5413,-14.9657 6.7992,-29.2075 17.3013,-39.9261 11.2143,-10.9892 26.0812,-17.3338 41.8243,-17.3338 z m 23.9167,7.0604 c -4.7435,-2.3716 -15.6156,-5.1253 -23.9167,-5.1253 -6.1893,0 -12.4845,1.0303 -18.3645,2.9897 l 13.0259,6.8335 15.8021,0.4269 c 7.5007,-2.8379 7.3437,-2.7754 13.4532,-5.1248 z m -5.5521,26.0517 -3.8438,6.1928 h -22.8491 c -1.9234,-3.207 -5.1166,-7.5983 -7.0465,-10.25 1.8571,-6.195 6.1468,-11.3476 11.1037,-15.3749 l 13.0263,0.4273 c 3.63,2.9892 7.2604,6.6196 9.6094,10.6769 0.8311,1.6627 1.5473,3.3606 2.1351,5.1248 z" />
      <path
         id="path12"
         style="fill:#000200;fill-rule:evenodd"
         d="m 296.9914,317.0997 c 5.3383,5.1248 10.0371,23.7019 0,23.7019 -10.0366,0 -5.1243,-18.5771 0,-23.7019 z" />
      <path
         id="path14"
         style="fill:#000200;fill-rule:evenodd"
         d="m 279.481,318.8066 c 6.1933,4.0577 14.3069,21.3547 4.4846,23.2768 -10.0371,1.9217 -8.5422,-17.2965 -4.4846,-23.2768 z" />
      <path
         id="path16"
         style="fill:#000200;fill-rule:evenodd"
         d="m 262.3975,323.9323 c 6.8339,2.7763 18.1507,18.1511 8.9691,21.7811 -9.6094,3.8442 -11.7441,-15.161 -8.9691,-21.7811 z" />
      <path
         id="path18"
         style="fill:#000200;fill-rule:evenodd"
         d="m 246.8088,332.0468 c 7.2603,1.281 21.1412,14.3073 12.8137,19.8594 -8.543,5.5521 -14.5215,-12.8125 -12.8137,-19.8594 z" />
      <path
         id="path20"
         style="fill:#000200;fill-rule:evenodd"
         d="m 232.9292,343.151 c 7.2604,0 23.4894,10.0366 16.4429,16.8693 -7.4743,7.0478 -16.6563,-9.609 -16.4429,-16.8693 z" />
      <path
         id="path22"
         style="fill:#000200;fill-rule:evenodd"
         d="m 221.3978,356.6041 c 7.2603,-1.4952 24.9846,5.3387 19.4321,13.4532 -5.9786,8.3284 -18.1503,-6.4062 -19.4321,-13.4532 z" />
      <path
         id="path24"
         style="fill:#000200;fill-rule:evenodd"
         d="m 212.643,371.9799 c 6.8331,-2.7772 25.6245,0.4264 21.5672,9.6084 -4.0568,9.3959 -19.0044,-2.7758 -21.5672,-9.6084 z" />
      <path
         id="path26"
         style="fill:#000200;fill-rule:evenodd"
         d="m 207.0905,388.8487 c 6.1928,-4.0577 25.1976,-4.4841 23.0629,5.3391 -2.3485,9.8223 -19.2191,0.8537 -23.0629,-5.3391 z" />
      <path
         id="path28"
         style="fill:#000200;fill-rule:evenodd"
         d="m 314.7153,318.8066 c 4.2706,5.9803 5.3386,24.9851 -4.485,23.2768 -10.0357,-2.1351 -1.7083,-19.2191 4.485,-23.2768 z" />
      <path
         id="path30"
         style="fill:#000200;fill-rule:evenodd"
         d="m 331.7988,323.9323 c 2.9897,6.6201 0.213,25.6253 -8.9695,21.7811 -9.6093,-3.843 2.136,-19.0048 8.9695,-21.7811 z" />
      <path
         id="path32"
         style="fill:#000200;fill-rule:evenodd"
         d="m 347.3871,332.0468 c 1.7083,7.2612 -4.485,25.1981 -12.8133,19.8594 -8.7544,-5.7655 5.7668,-18.3645 12.8133,-19.8594 z" />
      <path
         id="path34"
         style="fill:#000200;fill-rule:evenodd"
         d="m 361.2671,343.151 c 0.2143,7.2603 -9.1821,23.9171 -16.4424,16.8693 -7.2608,-7.0465 9.1825,-16.8693 16.4424,-16.8693 z" />
      <path
         id="path36"
         style="fill:#000200;fill-rule:evenodd"
         d="m 372.7986,356.6041 c -1.068,7.2604 -13.6671,21.5673 -19.4321,13.4532 -5.7664,-8.3279 12.1717,-14.9484 19.4321,-13.4532 z" />
      <path
         id="path38"
         style="fill:#000200;fill-rule:evenodd"
         d="m 381.5533,371.9799 c -2.5624,6.8326 -17.5104,18.7909 -21.5676,9.6084 -4.2703,-9.3954 14.7346,-12.3856 21.5676,-9.6084 z" />
      <path
         id="path40"
         style="fill:#000200;fill-rule:evenodd"
         d="m 387.1054,388.8487 c -3.8434,6.1928 -20.7139,14.9476 -23.0625,5.3391 -2.1347,-10.0366 16.8697,-9.3968 23.0625,-5.3391 z" />
    </g>
    <g
       id="Layer1002">
      <path
         id="path43"
         style="fill:#ffd738;fill-rule:evenodd"
         d="m 283.7552,430.4792 c -5.125,-0.2135 -7.901,-1.2812 -8.1146,-4.2708 0,-2.349 1.2813,-3.6302 2.7761,-3.4167 1.2812,0 2.1354,0.8542 2.1354,2.349 0,0.8541 -0.2136,1.7083 0.2135,2.3489 0.4271,0.8542 1.7083,1.0677 2.9896,1.2813 1.4948,0 2.3489,0.2135 2.9896,-0.6406 0.427,-0.8542 0.2135,-1.9219 0.6406,-2.7761 0.4271,-0.8541 1.0677,-1.4948 2.3489,-1.2812 1.4948,0 2.7761,0.8541 2.349,2.9895 -0.4271,2.9896 -2.5625,3.6302 -8.3281,3.4167 z" />
      <path
         id="path45"
         style="fill:#ffd738;fill-rule:evenodd"
         d="m 409.5307,402.5053 4.6979,8.3281 -0.8542,0.4271 c -1.4948,-1.4948 -2.776,-2.5625 -3.8437,-3.2031 -1.0677,-0.4271 -2.349,-0.6406 -3.6302,-0.6406 -0.6406,0 -1.7083,0.4271 -3.2031,1.2812 l -2.349,1.2813 13.2396,23.703 c 0.8541,1.4948 1.4947,2.5625 1.9218,2.7761 0.4271,0.2135 0.8542,0.427 1.4948,0.427 0.8542,0 1.4948,-0.2135 2.349,-0.6406 l 1.0677,-0.6406 0.427,0.8542 -16.0155,8.9687 -0.4271,-0.8542 0.8542,-0.6406 c 1.0677,-0.4271 1.7083,-1.0677 1.9218,-1.4948 0.4271,-0.4271 0.4271,-1.0677 0.4271,-1.7083 0,-0.4271 -0.4271,-1.4948 -1.2812,-2.9896 l -13.2395,-23.703 -2.349,1.2812 c -1.9219,1.0677 -3.2031,2.3489 -3.6302,3.8437 -0.6406,1.9219 -0.6406,4.0573 0.4271,6.6198 l -0.8542,0.4271 -4.6979,-8.3281 z" />
      <path
         id="path47"
         style="fill:#ffd738;fill-rule:evenodd"
         d="m 372.5882,447.3489 -11.9583,3.2031 -0.6408,3.8438 c 0,1.2814 0,2.1356 0.2135,2.7758 0.2138,1.068 0.6407,1.7087 1.7087,1.9222 0.4268,0.2134 1.7082,0 3.4165,-0.2135 l 0.2134,0.8542 -11.3176,2.9892 -0.2134,-0.8541 c 1.281,-0.6403 2.1351,-1.281 2.5624,-2.349 0.6407,-1.0676 1.0676,-2.9892 1.4949,-5.9789 l 4.9113,-30.3229 h 0.6407 l 19.6456,24.3435 c 1.9221,2.349 3.2031,3.8438 4.2711,4.2711 0.6402,0.4268 1.4944,0.4268 2.5624,0.2134 l 0.2134,1.0676 -16.4424,4.2711 -0.2139,-0.8541 0.6407,-0.2139 c 1.2815,-0.2134 2.349,-0.8541 2.7763,-1.281 0.2134,-0.4273 0.2134,-0.8541 0.2134,-1.2814 -0.2134,-0.2134 -0.2134,-0.6407 -0.4273,-0.8541 0,-0.2135 -0.4268,-0.6408 -1.2809,-1.7083 z m -1.2814,-1.4949 -8.1145,-10.4634 -2.1352,13.2397 z" />
      <path
         id="path49"
         style="fill:#ffd738;fill-rule:evenodd"
         d="m 327.1039,450.552 0.8541,9.6093 c 0,1.9221 0.2135,3.2031 0.6407,3.6304 0.2135,0.4269 0.6408,0.8541 1.2815,1.0676 0.6402,0.2134 1.7082,0.2134 3.4165,0.2134 v 0.8541 l -17.9377,1.4949 v -0.8542 c 1.7087,-0.2134 2.7763,-0.4268 3.2031,-0.8541 0.6407,-0.2134 1.068,-0.6407 1.068,-1.281 0.2134,-0.4273 0.2134,-1.7087 0.2134,-3.417 l -2.1355,-22.8486 c 0,-1.9221 -0.4269,-2.9897 -0.6403,-3.6304 -0.2138,-0.4268 -0.6407,-0.8541 -1.2814,-1.0675 -0.6407,-0.2135 -1.7083,-0.2135 -3.4165,0 v -1.068 l 15.3748,-1.281 c 4.9114,-0.4273 8.7552,0.2134 11.1042,1.7082 2.349,1.7083 3.63,3.8439 3.8438,6.4063 0.2134,2.349 -0.4273,4.2706 -1.7087,5.9789 -1.281,1.9221 -2.9892,3.2036 -5.5516,3.8438 -1.4949,0.6407 -4.4846,1.068 -8.3284,1.4949 z m -1.4948,-17.2966 1.2814,15.1615 c 0.4268,0 0.8541,0 1.281,0 2.1355,-0.2139 3.6304,-0.8546 4.6979,-2.349 1.068,-1.2814 1.4949,-3.2031 1.2814,-5.9794 -0.2134,-2.5624 -1.0675,-4.4845 -2.3489,-5.5521 -1.2815,-1.0675 -2.9897,-1.4948 -5.3387,-1.281 z" />
      <path
         id="path51"
         style="fill:#ffd738;fill-rule:evenodd"
         d="m 237.4237,451.62 -11.9583,-2.9897 -2.349,2.7758 c -0.6407,1.068 -1.2814,1.9221 -1.2814,2.7763 -0.4268,0.8541 -0.2134,1.7082 0.6407,2.349 0.2135,0.4268 1.2814,0.8541 3.2031,1.4948 l -0.4272,0.8541 -11.3176,-2.7762 0.2138,-1.0676 c 1.281,0.2134 2.5624,0 3.4166,-0.6407 1.0675,-0.6407 2.5624,-2.1356 4.2706,-4.4845 l 19.0053,-24.1301 h 0.4268 l 5.3387,31.177 c 0.6407,2.7763 1.0675,4.698 1.7082,5.7655 0.4273,0.6407 1.068,1.068 2.1356,1.4949 l -0.2134,0.8541 -16.4429,-4.0573 0.2135,-1.0675 0.6407,0.2134 c 1.2814,0.4273 2.3489,0.4273 2.9897,0.2134 0.4268,-0.2134 0.6407,-0.6402 0.8541,-1.0675 0,-0.2134 0,-0.6407 0,-1.0676 0,0 0,-0.8541 -0.2134,-1.9221 z m -0.4273,-2.1356 -2.1355,-13.0259 -8.1145,10.4635 z" />
      <path
         id="path53"
         style="fill:#ffd738;fill-rule:evenodd"
         d="m 276.4948,456.9583 13.026,-18.7916 c 0.2135,-1.7083 0,-2.7761 0,-3.2031 -0.2136,-0.4271 -0.6406,-0.8542 -1.2813,-1.2813 -0.427,-0.2135 -1.2812,-0.4271 -2.3489,-0.6406 h -1.0677 v -0.8542 l 18.3645,0.6407 v 0.8541 h -1.2812 c -0.8542,0 -1.7084,0.2136 -2.349,0.4271 -0.4271,0.2135 -0.8542,0.6406 -1.0677,1.2812 -0.2135,0.4271 -0.4271,1.4948 -0.4271,3.2032 l -0.8541,23.2759 c 0,1.7084 0,2.7761 0.2135,3.2031 0.2135,0.6407 0.4271,0.8542 1.0677,1.2813 0.6406,0.4271 1.2812,0.6406 2.3489,0.6406 h 1.0678 v 1.0677 l -18.3646,-0.6406 0.2136,-1.0677 h 1.0677 c 1.0677,0 1.9219,0 2.5625,-0.4271 0.4271,-0.2135 0.6406,-0.6406 1.0677,-1.2812 0.2135,-0.2136 0.2135,-1.4948 0.4271,-3.2032 l 0.6406,-19.2186 -13.026,18.578 -0.2135,0.2136 c 0,1.9218 0,2.9895 0.2135,3.4166 0.2135,0.4271 0.6406,0.8542 1.2812,1.2813 0.4271,0.2135 1.2813,0.427 2.349,0.427 l 1.0677,0.2136 v 0.8541 l -18.3645,-0.6406 v -0.8541 h 1.0677 c 1.0677,0 1.9219,-0.2136 2.5625,-0.4271 0.4271,-0.2136 0.8541,-0.6406 1.0677,-1.2813 0.2135,-0.427 0.4271,-1.4948 0.4271,-3.2031 l 0.8541,-23.2759 c 0,-1.7084 0,-2.7761 -0.2135,-3.2032 -0.2135,-0.6406 -0.6406,-1.0677 -1.0677,-1.2812 -0.6406,-0.4271 -1.4948,-0.6406 -2.349,-0.6406 h -1.2812 v -1.0677 l 18.578,0.6406 -0.2135,1.0677 h -1.0677 c -1.0677,0 -1.9219,0 -2.5625,0.4271 -0.4271,0.2135 -0.8542,0.6406 -1.0677,1.2812 -0.2135,0.2136 -0.2135,1.4948 -0.4271,3.2031 z" />
      <path
         id="path55"
         style="fill:#ffd738;fill-rule:evenodd"
         d="m 196.457,425.2323 4.1326,19.2033 c 0.4382,2.7738 1.0871,4.9072 1.9467,6.1843 0.6437,0.8519 1.2869,1.4895 2.143,1.9132 l -0.4242,0.8563 -0.027,-0.0139 -4.5502,9.1523 -0.8479,-0.4216 c 1.764,-6.3184 0.3798,-10.8482 -4.1544,-13.5839 l -6.6814,-3.3949 0.424,-0.8559 c 1.0666,0.4213 1.71,0.6326 2.1358,0.6307 0.4283,-0.2144 0.6404,-0.4287 0.8514,-0.6435 0.4244,-0.6431 0.2055,-2.3496 -0.2307,-4.6966 l -2.6144,-12.8033 -1.7066,0.4363 -4.237,8.5576 c -0.8462,1.7118 -1.2699,2.7805 -1.2676,3.2075 0.001,0.4268 0.217,1.0671 0.4333,1.4934 0.4286,0.6384 1.286,1.2759 2.3561,1.6999 l -0.426,0.854 -15.8324,-7.8368 0.4239,-0.8555 1.0693,0.4226 c 0.8559,0.4231 1.711,0.6336 2.3515,0.6304 0.6406,-0.002 1.0667,-0.2172 1.4929,-0.6458 0.4254,-0.2153 1.0621,-1.2857 1.6966,-2.783 l 10.5949,-20.5433 c 0.6334,-1.7106 1.056,-2.7799 1.2681,-3.2074 -0.002,-0.4271 -0.2176,-1.0668 -0.6469,-1.4925 -0.216,-0.6393 -0.8584,-1.0642 -1.7143,-1.4873 l -1.07,-0.6366 0.4235,-0.8557 15.6203,7.8374 -0.4234,0.8567 c -1.0703,-0.4236 -1.9242,-0.6335 -2.7789,-0.6302 -0.428,10e-4 -0.8524,0.2177 -1.4924,0.6475 -0.2125,0.2141 -0.8488,1.071 -1.6967,2.7825 l -4.8726,9.6285 16.4275,-3.4818 c 2.3483,-0.437 3.6265,-1.0825 4.0498,-1.9388 0.2111,-0.641 0.2096,-1.0686 -0.2203,-1.9208 -0.4281,-0.2119 -1.0721,-0.8498 -2.5685,-1.4843 l 0.4233,-0.8563 12.4103,6.1432 -0.4237,0.8561 c -1.2833,-0.4219 -2.1381,-0.6328 -2.9921,-0.6291 -0.6404,0.003 -2.7754,0.2252 -5.9753,0.8783 z" />
    </g>
  </g>
</svg>
