<?xml version="1.0" encoding="UTF-8" standalone="no"?>
<!-- Created with Inkscape (http://www.inkscape.org/) -->

<svg
   xmlns:dc="http://purl.org/dc/elements/1.1/"
   xmlns:cc="http://creativecommons.org/ns#"
   xmlns:rdf="http://www.w3.org/1999/02/22-rdf-syntax-ns#"
   xmlns:svg="http://www.w3.org/2000/svg"
   xmlns="http://www.w3.org/2000/svg"
   xmlns:sodipodi="http://sodipodi.sourceforge.net/DTD/sodipodi-0.dtd"
   xmlns:inkscape="http://www.inkscape.org/namespaces/inkscape"
   width="278"
   height="303"
   viewBox="0 0 278 302.99998"
   id="svg3416"
   version="1.1"
   inkscape:version="0.91 r13725"
   sodipodi:docname="kaysar.svg">
  <defs
     id="defs3418" />
  <sodipodi:namedview
     id="base"
     pagecolor="#ffffff"
     bordercolor="#666666"
     borderopacity="1.0"
     inkscape:pageopacity="0.0"
     inkscape:pageshadow="2"
     inkscape:zoom="0.35"
     inkscape:cx="22.142857"
     inkscape:cy="520"
     inkscape:document-units="px"
     inkscape:current-layer="layer1"
     showgrid="false"
     units="px"
     inkscape:window-width="1280"
     inkscape:window-height="744"
     inkscape:window-x="-4"
     inkscape:window-y="-4"
     inkscape:window-maximized="1" />
  <metadata
     id="metadata3421">
    <rdf:RDF>
      <cc:Work
         rdf:about="">
        <dc:format>image/svg+xml</dc:format>
        <dc:type
           rdf:resource="http://purl.org/dc/dcmitype/StillImage" />
        <dc:title></dc:title>
      </cc:Work>
    </rdf:RDF>
  </metadata>
  <g
     inkscape:label="Layer 1"
     inkscape:groupmode="layer"
     id="layer1"
     transform="translate(0,-749.36223)">
    <g
       id="g3426"
       transform="matrix(0.48835709,0,0,0.48835709,-6.3535299,695.29069)">
      <path
         inkscape:connector-curvature="0"
         id="path3428"
         style="fill:#ffffff;fill-rule:evenodd"
         d="m 258.2617,183.0427 c 0.1364,-1.6515 0.3107,-4.322 0.5233,-8.0062 0.2069,-3.6842 0.3325,-6.3218 0.3597,-7.9078 -0.3926,0.2452 -0.7741,0.4904 -1.1446,0.7302 -0.3705,0.2398 -1.1772,0.8122 -2.4197,1.7113 0.0652,-0.9048 0.1199,-1.9675 0.1744,-3.1938 0.0544,-1.2206 0.0816,-2.1146 0.0816,-2.6923 0.5397,-0.3104 1.15,-0.6812 1.8366,-1.1064 0.6814,-0.4249 1.101,-0.6976 1.2591,-0.8065 0.1525,-0.1145 0.3816,-0.2942 0.6922,-0.5394 0.9482,0.0216 2.0382,0.0326 3.2755,0.0326 1.1772,0 2.376,-0.011 3.6022,-0.0326 l -0.316,3.5643 -0.6866,11.821 -0.1581,4.3492 0,2.0764 c -0.9102,-0.0218 -2.0109,-0.0326 -3.3081,-0.0326 -1.5151,0 -2.7686,0.0108 -3.7715,0.0326 z" />
      <path
         inkscape:connector-curvature="0"
         id="path3430"
         style="fill:#ffffff;fill-rule:evenodd"
         d="m 276.116,183.0427 c 0.9374,-1.1282 1.8148,-2.2181 2.6377,-3.27 0.8232,-1.052 1.6514,-2.1745 2.4854,-3.3628 0.8337,-1.1934 1.4661,-2.169 1.902,-2.9375 0.436,-0.7628 0.79,-1.4879 1.0627,-2.1691 0.2671,-0.6812 0.4525,-1.2316 0.5395,-1.6568 0.0927,-0.425 0.1363,-0.8448 0.1363,-1.2589 0,-0.5669 -0.0981,-1.0681 -0.2942,-1.5097 -0.1962,-0.4414 -0.5015,-0.7739 -0.9048,-0.9973 -0.4034,-0.2236 -0.8501,-0.3325 -1.3408,-0.3325 -0.8283,0 -1.537,0.267 -2.1147,0.8011 -0.5831,0.534 -0.8719,1.2427 -0.8719,2.12 0,0.5069 0.1145,0.9431 0.3379,1.3082 0.2236,0.3651 0.5559,0.6429 0.9921,0.8394 0.436,0.1961 0.8773,0.2942 1.3297,0.2942 0.2725,0 0.6648,-0.0544 1.1662,-0.1636 -1.0244,1.4389 -2.0599,2.9648 -3.1065,4.578 -0.3597,0.0436 -0.6704,0.0655 -0.9263,0.0655 -0.7033,0 -1.4718,-0.1307 -2.2947,-0.398 -0.8283,-0.267 -1.5587,-0.6701 -2.1909,-1.2045 -0.6375,-0.5394 -1.1171,-1.2316 -1.4496,-2.0763 -0.3325,-0.8448 -0.4961,-1.7331 -0.4961,-2.6706 0,-1.2588 0.2781,-2.4361 0.8286,-3.5424 0.5559,-1.1064 1.3297,-2.0112 2.3272,-2.7196 0.9973,-0.7086 2.0818,-1.2098 3.259,-1.4986 1.1773,-0.2946 2.4472,-0.4417 3.8095,-0.4417 1.2592,0 2.469,0.1636 3.6298,0.4961 1.1608,0.3268 2.1092,0.8339 2.8505,1.5151 0.741,0.6812 1.2915,1.4987 1.6512,2.4525 0.3651,0.9482 0.5451,1.8692 0.5451,2.7522 0,0.6267 -0.0763,1.3297 -0.2234,2.1039 -0.1474,0.7792 -0.3872,1.5967 -0.7087,2.4579 -0.3268,0.8665 -0.7738,1.8473 -1.3515,2.9483 -0.5723,1.101 -1.2481,2.2292 -2.033,3.3899 -0.7793,1.1608 -1.7385,2.5235 -2.8775,4.0876 l -8.3058,0 z" />
      <path
         inkscape:connector-curvature="0"
         id="path3432"
         style="fill:#ffffff;fill-rule:evenodd"
         d="m 304.8593,169.1124 c 0.5505,-0.0873 1.0792,-0.1307 1.575,-0.1307 1.2208,0 2.3164,0.2398 3.2865,0.7195 0.97,0.4793 1.7058,1.2206 2.2073,2.2288 0.4958,1.0083 0.7466,2.1311 0.7466,3.3682 0,0.8175 -0.1145,1.6132 -0.3432,2.3763 -0.2291,0.7574 -0.5562,1.4606 -0.9811,2.1092 -0.4252,0.6429 -0.9539,1.2206 -1.586,1.7274 -0.6378,0.5069 -1.3136,0.8884 -2.0273,1.1555 -0.7195,0.267 -1.4825,0.4688 -2.2947,0.5995 -0.8064,0.1363 -1.6239,0.2018 -2.4579,0.2018 -1.9239,0 -3.5969,-0.3217 -5.0196,-0.9646 -1.4167,-0.6486 -2.4522,-1.5316 -3.0954,-2.6544 -0.6432,-1.1282 -0.9646,-2.3652 -0.9646,-3.7168 0,-0.7795 0.087,-1.635 0.2616,-2.5616 0.1743,-0.9264 0.5666,-2.0328 1.1662,-3.3135 0.5995,-1.2863 1.4224,-2.7632 2.4689,-4.4365 1.0517,-1.673 2.1147,-3.2045 3.1992,-4.5887 l 8.1749,0 c -1.6132,1.8584 -2.6867,3.1227 -3.2154,3.7823 -0.7577,0.9428 -1.4661,1.9182 -2.1257,2.9265 -0.6647,1.0029 -1.2206,1.9349 -1.6566,2.7961 -0.4416,0.8608 -0.8175,1.7056 -1.1228,2.5341 -0.1853,0.4904 -0.3106,0.9482 -0.3923,1.3734 -0.0819,0.4252 -0.1199,0.8229 -0.1199,1.1937 0,0.5012 0.1035,0.9808 0.305,1.4386 0.2019,0.4578 0.5015,0.8175 0.9102,1.0845 0.4034,0.2673 0.883,0.398 1.4497,0.398 0.5343,0 1.0029,-0.1253 1.4116,-0.3762 0.4088,-0.2452 0.7141,-0.5938 0.9156,-1.0298 0.2016,-0.4416 0.3053,-0.9048 0.3053,-1.3952 0,-0.8558 -0.3107,-1.4825 -0.9374,-1.8748 -0.6214,-0.3926 -1.2427,-0.5888 -1.8641,-0.5888 -0.1907,0 -0.4796,0.0218 -0.8609,0.0655 0.2452,-0.3923 0.7084,-1.1554 1.3788,-2.2782 l 1.3025,-2.1691 z" />
      <path
         inkscape:connector-curvature="0"
         id="path3434"
         style="fill:#ffffff;fill-rule:evenodd"
         d="m 104.5602,239.8405 c 0.4578,-4.4719 0.7704,-8.0541 0.949,-10.7688 0.2679,-4.0099 0.5136,-9.5182 0.7591,-16.5246 0.2344,-7.0177 0.3572,-11.7374 0.3572,-14.1593 l 0,-3.6269 c 6.5542,0.0447 12.6612,0.0674 18.2996,0.0674 5.6942,0 11.1651,-0.0227 16.4126,-0.0674 -0.3461,5.0462 -0.5247,8.3466 -0.5247,9.9011 l -2.8471,-0.1012 -2.2887,-0.034 -2.289,-0.0338 -6.442,0 c -0.737,0 -2.9143,0.0227 -6.5095,0.0678 l -0.2568,7.7723 4.7341,0.0675 5.281,0 c 1.5296,0 3.852,-0.0338 6.9894,-0.1012 -0.2344,4.1677 -0.3572,7.4344 -0.3572,9.7999 -3.5059,-0.1128 -6.0962,-0.1689 -7.7933,-0.1689 -2.8695,0 -5.9958,0.0561 -9.3897,0.1689 l -0.3575,11.8726 -0.0445,4.4156 0,1.453 -7.0228,-0.0675 c -0.5471,0 -3.104,0.0224 -7.6592,0.0675 z" />
      <path
         inkscape:connector-curvature="0"
         id="path3436"
         style="fill:#ffffff;fill-rule:evenodd"
         d="m 184.1335,228.8917 c -0.2568,1.2841 -0.5695,3.0863 -0.938,5.3841 -0.3572,2.3094 -0.6029,4.1003 -0.737,5.362 -4.667,0.7209 -8.8203,1.0814 -12.4824,1.0814 -3.528,0 -6.8218,-0.4507 -9.8589,-1.3405 -3.037,-0.89 -5.828,-2.3544 -8.3625,-4.3818 -2.5458,-2.0389 -4.3545,-4.4382 -5.4487,-7.1866 -1.0829,-2.7485 -1.6299,-5.8238 -1.6299,-9.2367 0,-3.9878 0.7367,-7.5697 2.2107,-10.7462 1.4624,-3.1768 3.5838,-5.8351 6.3417,-7.9526 2.7578,-2.1291 5.7835,-3.6385 9.066,-4.551 3.2939,-0.9122 6.6991,-1.3742 10.205,-1.3742 3.2267,0 7.2125,0.428 11.9688,1.2844 l 0.0668,2.7595 c 0.0335,1.2053 0.1007,2.5234 0.1789,3.9764 l 0.2234,3.7398 c -2.5458,-0.6083 -4.6114,-1.014 -6.1968,-1.228 -1.5855,-0.214 -3.0478,-0.3266 -4.3991,-0.3266 -2.9364,0 -5.5933,0.597 -7.9495,1.7799 -2.3445,1.194 -4.1981,2.9174 -5.5491,5.1815 -1.3507,2.264 -2.0319,4.7761 -2.0319,7.5245 0,2.5008 0.5692,4.6523 1.6971,6.4545 1.1387,1.791 2.6683,3.1765 4.5888,4.1565 1.9315,0.9799 4.3097,1.4643 7.1458,1.4643 1.5406,0 3.2267,-0.1238 5.0465,-0.3716 1.8199,-0.2477 4.0975,-0.7322 6.8443,-1.453 z" />
      <path
         inkscape:connector-curvature="0"
         id="path3438"
         style="fill:#ffffff;fill-rule:evenodd"
         d="m 207.1335,239.8405 c 0.413,-4.1227 0.7146,-7.5246 0.8822,-10.2393 0.3347,-4.7985 0.6808,-11.3655 1.0493,-19.7124 0.2679,-5.8125 0.3909,-9.9128 0.3909,-12.2896 l 0,-2.8383 c 3.6397,0.0447 6.1407,0.0674 7.5141,0.0674 0.9043,0 3.2601,-0.0227 7.045,-0.0674 l -1.5407,24.6687 -0.7815,20.4109 -7.09,-0.0675 c -0.9935,0 -3.4835,0.0224 -7.4693,0.0675 z m 16.3678,-23.7563 7.3469,-10.0817 5.9286,-8.4033 1.8309,-2.8383 c 4.0643,0.0447 6.8219,0.0674 8.2622,0.0674 0.3909,0 3.0035,-0.0227 7.8264,-0.0674 l -13.8107,17.651 -2.5905,3.5371 2.4227,3.886 13.7109,20.0055 -8.0725,-0.0675 c -1.7416,0 -4.7004,0.0224 -8.8764,0.0675 -2.8244,-5.3507 -7.4803,-13.2693 -13.9785,-23.7563 z" />
      <path
         inkscape:connector-curvature="0"
         id="path3440"
         style="fill:#ffffff;fill-rule:evenodd"
         d="m 252.5638,239.8405 2.7133,-4.7534 16.9039,-32.171 1.7974,-3.5935 c 0.5247,-1.0587 1.2504,-2.5795 2.1884,-4.5617 3.8406,0.0447 6.6432,0.0674 8.4072,0.0674 3.0705,0 5.9177,-0.0227 8.5414,-0.0674 l 4.7676,13.776 9.7248,26.4824 1.8978,4.8212 c -3.7738,-0.0451 -6.0627,-0.0675 -6.8666,-0.0675 -1.8309,0 -4.5326,0.0224 -8.0833,0.0675 -0.9604,-3.6383 -2.3446,-7.9189 -4.1644,-12.8412 l -16.4687,0 c -1.887,3.886 -3.8407,8.1666 -5.8615,12.8412 -4.064,-0.0451 -6.554,-0.0675 -7.4696,-0.0675 -1.6633,0 -4.3319,0.0224 -8.0277,0.0675 z m 25.3111,-22.4385 10.1605,0 c -2.5347,-7.7612 -3.9191,-12.0416 -4.1646,-12.8302 -1.4293,3.233 -2.6462,5.8802 -3.6511,7.9526 l -2.3448,4.8776 z" />
      <path
         inkscape:connector-curvature="0"
         id="path3442"
         style="fill:#ffffff;fill-rule:evenodd"
         d="m 322.4347,239.8405 c 0.2234,-1.7799 0.4802,-4.8098 0.7815,-9.0791 0.313,-4.2579 0.4578,-7.2768 0.4578,-9.034 l -14.9612,-26.9665 c 3.2938,0.0447 6.0182,0.0674 8.1507,0.0674 2.0543,0 4.4994,-0.0227 7.3576,-0.0674 0.8711,2.2189 2.0543,4.8659 3.5507,7.9299 1.4961,3.0753 2.702,5.8238 3.6397,8.2343 2.4896,-4.4946 4.4994,-8.009 6.0179,-10.521 1.5072,-2.5232 2.5903,-4.4042 3.2491,-5.6432 2.7689,0.0447 5.4374,0.0674 8.0053,0.0674 1.351,0 3.8186,-0.0227 7.38,-0.0674 l -14.347,21.4021 c -2.8471,4.2803 -4.2763,6.5106 -4.2763,6.7136 l -0.0335,0.3265 0,0.3266 -0.0334,0.3381 -0.2455,5.0012 c -0.1678,3.3231 -0.3013,6.9727 -0.3909,10.9715 -3.0702,-0.0451 -5.4374,-0.0675 -7.1121,-0.0675 -1.7306,0 -4.1199,0.0224 -7.1904,0.0675 z" />
      <path
         inkscape:connector-curvature="0"
         id="path3444"
         style="fill:#ffffff;fill-rule:evenodd"
         d="m 355.7738,239.1647 c -0.2795,-4.6749 -0.6142,-8.4146 -0.9827,-11.2192 2.4562,1.0925 4.6559,1.8473 6.5763,2.264 1.9205,0.428 3.6063,0.6421 5.0466,0.6421 1.9204,0 3.4389,-0.2815 4.5666,-0.8448 1.1276,-0.5632 1.6968,-1.3855 1.6968,-2.4894 0,-0.3719 -0.0556,-0.7321 -0.1673,-1.07 -0.1116,-0.3493 -0.3126,-0.7322 -0.6253,-1.1603 -0.3126,-0.4283 -0.748,-0.89 -1.3172,-1.3969 l -6.2082,-5.4181 c -1.4511,-1.2277 -2.4673,-2.1178 -3.0368,-2.6697 -1.161,-1.1265 -2.0766,-2.1739 -2.724,-3.1427 -0.6478,-0.9686 -1.1166,-1.9486 -1.4182,-2.9512 -0.3013,-1.0026 -0.4468,-2.0614 -0.4468,-3.1878 0,-1.3405 0.2347,-2.6584 0.7036,-3.9425 0.4691,-1.2841 1.1724,-2.4893 2.1214,-3.6158 0.9377,-1.1152 2.1773,-2.0841 3.7404,-2.8951 1.5519,-0.8223 3.2042,-1.3742 4.9793,-1.667 1.7756,-0.3042 3.5955,-0.4507 5.4822,-0.4507 3.6955,0 7.7151,0.428 12.0696,1.2844 0.0556,1.5205 0.1338,2.906 0.2231,4.1677 0.0893,1.2614 0.3014,3.4807 0.6254,6.6459 -2.0209,-0.811 -3.8634,-1.3743 -5.5378,-1.6898 -1.6637,-0.3152 -3.1039,-0.4731 -4.3098,-0.4731 -1.7082,0 -3.1377,0.3155 -4.265,0.9576 -1.1279,0.642 -1.6971,1.4306 -1.6971,2.3768 0,0.4394 0.0893,0.8674 0.2679,1.2841 0.1672,0.4167 0.5025,0.9125 0.9824,1.4757 0.4802,0.5519 1.1166,1.1713 1.9095,1.8474 0.7925,0.6644 2.0318,1.667 3.7289,2.9848 l 2.3673,1.8811 c 0.7032,0.5746 1.4623,1.2617 2.2773,2.0727 0.8039,0.8223 1.5075,1.622 2.0991,2.4106 0.6032,0.7999 1.0496,1.5208 1.3733,2.1852 0.3127,0.6534 0.5582,1.3181 0.7033,1.9939 0.1562,0.6758 0.2347,1.3966 0.2347,2.1628 0,1.9826 -0.4688,3.8637 -1.4068,5.6546 -0.9377,1.8023 -2.2776,3.278 -3.9974,4.4269 -1.7303,1.1602 -3.6284,1.9601 -5.694,2.4219 -2.0656,0.4618 -4.2426,0.6984 -6.5316,0.6984 -3.5393,0 -8.0166,-0.5181 -13.409,-1.5545 z" />
      <path
         inkscape:connector-curvature="0"
         id="path3446"
         style="fill:#ffffff;fill-rule:evenodd"
         d="m 387.3257,239.8405 2.7133,-4.7534 16.9039,-32.171 1.7974,-3.5935 c 0.5247,-1.0587 1.2504,-2.5795 2.1884,-4.5617 3.8406,0.0447 6.6432,0.0674 8.4072,0.0674 3.0705,0 5.9176,-0.0227 8.5414,-0.0674 l 4.7676,13.776 9.7248,26.4824 1.8978,4.8212 c -3.7738,-0.0451 -6.0627,-0.0675 -6.8666,-0.0675 -1.8309,0 -4.5326,0.0224 -8.0833,0.0675 -0.9604,-3.6383 -2.3446,-7.9189 -4.1644,-12.8412 l -16.4687,0 c -1.8871,3.886 -3.8407,8.1666 -5.8615,12.8412 -4.064,-0.0451 -6.554,-0.0675 -7.4696,-0.0675 -1.6634,0 -4.3319,0.0224 -8.0277,0.0675 z m 25.3111,-22.4385 10.1605,0 c -2.5347,-7.7612 -3.9192,-12.0416 -4.1646,-12.8302 -1.4293,3.233 -2.6462,5.8802 -3.6511,7.9526 l -2.3448,4.8776 z" />
      <path
         inkscape:connector-curvature="0"
         id="path3448"
         style="fill:#ffffff;fill-rule:evenodd"
         d="m 447.6841,239.8405 c 0.4243,-3.875 0.7594,-7.367 1.0049,-10.4647 0.2455,-3.1087 0.4575,-6.7132 0.6364,-10.8022 0.1899,-4.1003 0.3237,-8.4147 0.413,-12.9654 0.0893,-4.5508 0.134,-8.1666 0.134,-10.8473 2.7241,0.0674 4.9238,0.1011 6.5985,0.1011 1.7416,0 3.8741,-0.0564 6.3754,-0.1462 2.5121,-0.1015 4.9462,-0.1579 7.3242,-0.1579 2.791,0 5.2699,0.1128 7.4582,0.3379 1.6302,0.1465 3.115,0.4731 4.4547,0.9575 1.3399,0.4845 2.4675,1.0701 3.3831,1.7572 0.9156,0.6985 1.6858,1.4757 2.2887,2.3318 0.6143,0.8561 1.0831,1.8587 1.4295,3.0189 0.3348,1.1489 0.5023,2.3879 0.5023,3.706 0,1.4754 -0.1899,2.861 -0.5584,4.1451 -0.3682,1.2841 -0.949,2.5007 -1.7529,3.6272 -0.7926,1.1376 -1.7975,2.1178 -3.0031,2.9398 -1.2172,0.8224 -2.9143,1.6674 -5.0916,2.5234 l 1.6971,4.2016 c 0.4802,1.1602 0.9939,2.3541 1.541,3.5708 l 4.3764,9.6874 c 0.2012,0.4166 0.5473,1.239 1.0496,2.478 -3.6062,-0.0451 -6.029,-0.0675 -7.2686,-0.0675 -1.574,0 -4.1419,0.0224 -7.7258,0.0675 -0.3461,-1.1489 -0.9825,-3.278 -1.8984,-6.3867 -0.3682,-1.2955 -0.6808,-2.3094 -0.949,-3.0076 -0.5133,-1.5659 -1.2949,-3.7624 -2.3108,-6.5897 l -3.3721,-9.3608 c 1.1835,0.2253 2.3335,0.3381 3.4722,0.3381 1.5857,0 3.026,-0.2367 4.3211,-0.7211 1.2952,-0.4842 2.2776,-1.2277 2.9475,-2.2414 0.6587,-1.0026 0.9935,-2.0616 0.9935,-3.1878 0,-0.9352 -0.2455,-1.7685 -0.7478,-2.4783 -0.5023,-0.7095 -1.2954,-1.2391 -2.3669,-1.5883 -1.0831,-0.3492 -2.7468,-0.5292 -4.9907,-0.5292 -0.7597,0 -1.5522,0.011 -2.3672,0.0451 -0.8152,0.0337 -1.764,0.0674 -2.8584,0.0898 -0.29,4.506 -0.5358,10.0143 -0.7592,16.5025 -0.2233,6.4882 -0.3682,12.8636 -0.4354,19.1154 -3.6397,-0.0451 -6.0069,-0.0675 -7.1008,-0.0675 -1.2617,0 -3.5506,0.0224 -6.8442,0.0675 z" />
      <path
         inkscape:connector-curvature="0"
         id="path3450"
         style="fill:#ffffff;fill-rule:evenodd"
         d="m 211.1562,266.0797 c 0.1593,-1.3312 0.2749,-2.4783 0.3472,-3.4447 0.1108,-1.3799 0.2364,-3.3298 0.3764,-5.8498 0.0916,-1.7243 0.1398,-2.9478 0.1398,-3.6672 l 0,-0.9491 c 1.1721,0.0139 1.9389,0.021 2.3102,0.021 0.2461,0 0.9698,-0.007 2.1799,-0.021 l -0.4386,5.5024 -0.3809,6.5939 -0.0434,1.8145 -2.19,-0.021 c -0.2605,0 -1.027,0.007 -2.3006,0.021 z m 5.1222,-7.3517 3.2074,-2.8468 2.9279,-2.6833 c 0.2075,-0.1947 0.5547,-0.5388 1.0468,-1.029 l 2.5223,0.021 c 0.106,0 0.9068,-0.007 2.4162,-0.021 l -6.4533,5.5268 -1.09,0.9907 0.8873,0.9141 c 0.1304,0.1287 1.0613,1.0114 2.7881,2.6453 l 4.1043,3.8339 -2.5177,-0.021 c -0.4436,0 -1.3601,0.007 -2.7541,0.021 l -0.9066,-1.0185 c -0.1686,-0.1981 -0.4728,-0.5179 -0.9019,-0.9663 l -3.8489,-3.9521 -1.4278,-1.4148 z" />
      <path
         inkscape:connector-curvature="0"
         id="path3452"
         style="fill:#ffffff;fill-rule:evenodd"
         d="m 234.4765,266.0797 c 0.1157,-0.7543 0.2313,-1.7379 0.3521,-2.9546 0.1156,-1.2166 0.1879,-2.1863 0.2072,-2.9058 l -6.3474,-8.0504 c 1.0662,0.0139 1.9004,0.021 2.494,0.021 0.5638,0 1.3212,-0.007 2.2665,-0.021 0.4247,0.7093 1.037,1.6025 1.8474,2.6904 0.8101,1.0845 1.5094,2.0787 2.0931,2.986 l 4.1961,-4.9011 c 0.14,-0.1703 0.3475,-0.4277 0.6222,-0.7753 0.9167,0.0139 1.7269,0.021 2.4361,0.021 0.3665,0 1.1237,-0.007 2.2765,-0.021 l -7.7269,8.2588 -0.1783,2.5826 c -0.0582,0.7614 -0.1015,1.7833 -0.1302,3.0694 -1.0034,-0.0139 -1.7365,-0.021 -2.1948,-0.021 -0.4728,0 -1.2107,0.007 -2.2136,0.021 z" />
      <path
         inkscape:connector-curvature="0"
         id="path3454"
         style="fill:#ffffff;fill-rule:evenodd"
         d="m 246.5008,266.0797 c 0.0867,-0.9281 0.1349,-1.6963 0.1446,-2.3114 l 0.6658,-0.5284 c 0.0286,-0.0209 0.4292,-0.3651 1.2008,-1.0394 l 6.931,-5.9715 2.1897,-1.9536 -0.9312,-0.0105 -0.3566,0 -1.2299,-0.0102 -2.1512,0 c -1.77,0 -3.5014,0.0346 -5.1897,0.104 0.0578,-0.5281 0.087,-1.0981 0.087,-1.7101 0,-0.1146 -0.005,-0.2744 -0.0147,-0.4797 2.4599,0.0139 5.0695,0.021 7.8282,0.021 l 4.7216,-0.0105 2.571,-0.0105 c -0.0771,0.7439 -0.1255,1.5016 -0.1448,2.2802 l -0.9598,0.7614 c -0.188,0.1494 -0.3714,0.3059 -0.5499,0.4692 l -5.0449,4.4458 -4.4231,3.8061 1.1335,0.0105 c 3.1882,0 5.2382,-0.007 6.1495,-0.021 0.9165,-0.0139 1.9151,-0.0451 3.0005,-0.0938 -0.0777,0.9558 -0.1208,1.7067 -0.14,2.2524 -2.706,-0.0139 -5.1852,-0.021 -7.4424,-0.021 l -5.2189,0.0105 -2.8261,0.0105 z" />
      <path
         inkscape:connector-curvature="0"
         id="path3456"
         style="fill:#ffffff;fill-rule:evenodd"
         d="m 269.3679,266.0797 c 0.1156,-0.7543 0.2313,-1.7379 0.352,-2.9546 0.1157,-1.2166 0.188,-2.1863 0.2072,-2.9058 l -6.3473,-8.0504 c 1.0661,0.0139 1.9004,0.021 2.4939,0.021 0.5638,0 1.3213,-0.007 2.2666,-0.021 0.4246,0.7093 1.0369,1.6025 1.8474,2.6904 0.8101,1.0845 1.5094,2.0787 2.0931,2.986 l 4.1961,-4.9011 c 0.14,-0.1703 0.3475,-0.4277 0.6222,-0.7753 0.9167,0.0139 1.7269,0.021 2.4361,0.021 0.3665,0 1.1236,-0.007 2.2765,-0.021 l -7.727,8.2588 -0.1783,2.5826 c -0.0581,0.7614 -0.1015,1.7833 -0.1301,3.0694 -1.0034,-0.0139 -1.7365,-0.021 -2.1949,-0.021 -0.4728,0 -1.2106,0.007 -2.2135,0.021 z" />
      <path
         inkscape:connector-curvature="0"
         id="path3458"
         style="fill:#ffffff;fill-rule:evenodd"
         d="m 282.318,266.0797 c 0.2749,-2.0438 0.4966,-4.324 0.6607,-6.8338 0.1641,-2.5095 0.2605,-4.8696 0.2894,-7.077 0.9647,0.0139 1.7654,0.021 2.4069,0.021 0.434,0 1.1285,-0.007 2.0835,-0.021 -0.1208,1.2235 -0.2316,2.6139 -0.3373,4.1746 l -0.2801,4.0842 c -0.0819,1.1681 -0.1448,2.3289 -0.1783,3.4829 l 2.4307,0.021 c 2.2768,0 3.7766,-0.007 4.4904,-0.0173 0.7186,-0.007 1.4227,-0.0281 2.122,-0.0558 -0.0865,0.6709 -0.1636,1.4079 -0.2313,2.2212 -2.4744,-0.0139 -4.5916,-0.021 -6.3522,-0.021 l -4.4518,0.0105 -2.6526,0.0105 z" />
      <path
         inkscape:connector-curvature="0"
         id="path3460"
         style="fill:#ffffff;fill-rule:evenodd"
         d="m 308.9373,251.9396 c 1.3989,0 2.7447,0.1389 4.0373,0.417 1.2878,0.2781 2.4308,0.7336 3.4291,1.3592 0.9987,0.629 1.751,1.3589 2.2572,2.1969 0.5066,0.8342 0.7623,1.8073 0.7623,2.923 0,1.0429 -0.241,2.0441 -0.7186,2.9963 -0.4825,0.9561 -1.2251,1.7762 -2.2334,2.4644 -1.0029,0.6919 -2.2281,1.2027 -3.6751,1.533 -1.442,0.3336 -2.9617,0.5006 -4.553,0.5006 -1.505,0 -2.952,-0.1531 -4.3413,-0.4589 -1.3887,-0.3059 -2.5801,-0.7821 -3.5833,-1.4355 -1.0034,-0.65 -1.722,-1.4009 -2.1512,-2.2456 -0.434,-0.8445 -0.6511,-1.7586 -0.6511,-2.7459 0,-1.0775 0.2701,-2.1099 0.8101,-3.0935 0.5406,-0.9873 1.3363,-1.8006 2.3877,-2.4471 1.0465,-0.6429 2.2765,-1.133 3.6847,-1.4633 1.4037,-0.3339 2.918,-0.5006 4.5386,-0.5006 z m -0.2265,2.1691 c -1.4227,0 -2.6578,0.2361 -3.7092,0.7089 -1.0513,0.4729 -1.847,1.1194 -2.3777,1.9361 -0.5306,0.8203 -0.7956,1.7033 -0.7956,2.6558 0,0.8827 0.2556,1.6962 0.7664,2.4434 0.5162,0.7439 1.3026,1.3105 2.3636,1.6997 1.0613,0.3929 2.209,0.5876 3.439,0.5876 0.9311,0 1.8232,-0.1148 2.6671,-0.3478 0.8441,-0.2293 1.5775,-0.5802 2.1946,-1.0531 0.6128,-0.4728 1.0757,-1.0428 1.3892,-1.7101 0.3087,-0.6639 0.4629,-1.3592 0.4629,-2.0786 0,-0.671 -0.14,-1.3173 -0.4144,-1.9361 -0.2801,-0.6188 -0.7092,-1.1506 -1.2929,-1.5956 -0.5839,-0.4448 -1.2832,-0.775 -2.1075,-0.9905 -0.8201,-0.212 -1.6835,-0.3197 -2.5855,-0.3197 z" />
      <path
         inkscape:connector-curvature="0"
         id="path3462"
         style="fill:#ffffff;fill-rule:evenodd"
         d="m 322.1002,266.0797 c 0.2798,-2.0231 0.4918,-4.3518 0.6319,-6.9798 0.14,-2.6311 0.2123,-4.9393 0.2123,-6.931 1.1285,0.0139 2.0738,0.021 2.8409,0.021 0.82,0 1.6202,-0.0105 2.4114,-0.0314 0.7863,-0.0207 1.6157,-0.0312 2.4936,-0.0312 1.0948,0 2.069,0.045 2.9325,0.1321 0.8634,0.0904 1.6302,0.2919 2.3009,0.6117 0.6655,0.3197 1.1624,0.7055 1.4904,1.1611 0.3229,0.4552 0.487,0.987 0.487,1.5919 0,0.3787 -0.0626,0.7404 -0.1834,1.0845 -0.1256,0.3405 -0.3036,0.6639 -0.5448,0.9664 -0.2415,0.3024 -0.5258,0.5663 -0.8586,0.7959 -0.328,0.226 -0.656,0.4065 -0.9842,0.5386 -0.3229,0.1321 -0.6942,0.2469 -1.1092,0.3407 -0.4195,0.0973 -0.9743,0.2121 -1.6736,0.3476 l 0.9598,1.3453 c 0.3135,0.4275 0.902,1.1956 1.77,2.3046 l 1.423,1.8039 c 0.0771,0.0938 0.3038,0.4031 0.6803,0.9281 -1.1577,-0.0139 -1.9199,-0.021 -2.2867,-0.021 -0.4578,0 -1.2586,0.007 -2.4015,0.021 l -1.5534,-2.7043 c -0.2699,-0.4135 -0.5979,-0.9003 -0.9791,-1.4635 l -1.6929,-2.4712 c -0.1686,-0.2294 -0.405,-0.5735 -0.6993,-1.0358 0.6271,0.0833 1.2008,0.125 1.717,0.125 0.8056,0 1.5434,-0.0938 2.209,-0.2849 0.6659,-0.1913 1.1772,-0.4867 1.5338,-0.8864 0.3569,-0.3997 0.5355,-0.8342 0.5355,-1.3036 0,-0.2883 -0.0771,-0.5525 -0.2316,-0.7994 -0.159,-0.2432 -0.4195,-0.4519 -0.786,-0.6222 -0.3666,-0.1704 -0.8056,-0.2815 -1.317,-0.3268 -0.506,-0.0485 -1.0174,-0.0729 -1.5242,-0.0729 -0.2843,0 -0.6701,0.003 -1.1622,0.0105 -0.4873,0.007 -1.0899,0.0105 -1.8085,0.0105 l -0.2509,4.1848 -0.2653,7.6402 -2.1849,-0.021 c -0.3521,0 -1.0611,0.007 -2.132,0.021 z" />
      <path
         inkscape:connector-curvature="0"
         id="path3464"
         style="fill:#ffffff;fill-rule:evenodd"
         d="m 340.3848,266.0797 0.3909,-3.5456 0.2843,-4.4351 0.1883,-4.411 c 0.01,-0.1913 0.0144,-0.6987 0.0144,-1.5191 1.0466,0.0139 2.0305,0.021 2.952,0.021 0.6894,0 1.5962,-0.0105 2.7201,-0.0314 1.124,-0.0207 2.0982,-0.0312 2.918,-0.0312 1.1095,0 2.1416,0.0487 3.0869,0.1426 0.9454,0.0972 1.77,0.2744 2.4792,0.5351 0.7039,0.2642 1.3167,0.5911 1.8374,0.9837 0.5162,0.3962 0.9406,0.8308 1.2686,1.3104 0.3282,0.4796 0.5839,1.0117 0.7574,1.599 0.1737,0.5874 0.2602,1.1889 0.2602,1.8006 0,1.1679 -0.2795,2.2802 -0.8391,3.337 -0.5643,1.0564 -1.3986,1.9289 -2.5129,2.6172 -1.1092,0.6916 -2.3442,1.1333 -3.6947,1.3314 -1.3552,0.1982 -2.889,0.2954 -4.6012,0.2954 l -4.8089,-0.021 c -0.3036,0 -1.2008,0.007 -2.7009,0.021 z m 4.3362,-2.1898 c 0.7716,0.0278 1.5386,0.0417 2.2909,0.0417 0.8584,0 1.6546,-0.0312 2.3826,-0.0938 0.7333,-0.0593 1.36,-0.1565 1.8907,-0.2886 0.5261,-0.1321 1.0564,-0.3651 1.5919,-0.6951 0.5306,-0.3339 0.9692,-0.716 1.3071,-1.1542 0.3376,-0.438 0.5978,-0.9244 0.7764,-1.4599 0.1785,-0.5351 0.2701,-1.0808 0.2701,-1.6336 0,-1.0185 -0.2409,-1.8527 -0.7237,-2.5061 -0.4773,-0.6534 -1.114,-1.1262 -1.9,-1.4114 -0.7864,-0.2882 -2.0019,-0.4342 -3.6417,-0.4342 -1.0658,0 -2.2859,0.0139 -3.6607,0.0416 l -0.5836,9.5936 z" />
      <path
         inkscape:connector-curvature="0"
         id="path3466"
         style="fill:#ffffff;fill-rule:evenodd"
         d="m 359.6536,266.0797 c 0.9791,-1.2512 2.1319,-2.7947 3.4486,-4.6369 l 3.7188,-5.1477 c 1.1622,-1.5886 2.122,-2.9651 2.8843,-4.1262 1.2299,0.0139 2.0933,0.021 2.6047,0.021 0.8966,0 1.77,-0.007 2.6286,-0.021 l 2.0205,4.1678 4.3991,8.6202 0.6078,1.1228 -2.1175,-0.021 c -0.4921,0 -1.3122,0.007 -2.4696,0.021 -0.2267,-0.6049 -0.5833,-1.4182 -1.0706,-2.4472 -0.487,-1.0253 -0.902,-1.8561 -1.2396,-2.4956 l -7.4327,0 c -1.1047,1.6163 -2.1753,3.2638 -3.2171,4.9428 l -2.3102,-0.021 c -0.4388,0 -1.2541,0.007 -2.4551,0.021 z m 9.2367,-7.0702 5.4113,0 -2.2235,-4.7029 -1.1429,1.7104 -2.0449,2.9925 z" />
      <path
         inkscape:connector-curvature="0"
         id="path3468"
         style="fill:#000000;fill-rule:evenodd"
         d="m 298.4179,136.9508 c 92.4367,-0.428 168.9534,23.118 229.3815,73.7569 -4.326,69.9747 -14.8575,140.1194 -37.5015,205.5946 -28.6172,82.747 -84.3185,179.7834 -141.7516,230.9046 -9.2072,24.4145 -28.0879,36.4288 -51.0945,36.468 -22.3027,0.038 -41.5672,-12.9184 -50.0646,-36.0003 C 181.6719,584.7761 135.8515,506.4792 105.6345,417.236 82.4678,348.8151 70.4514,279.7316 67.2874,210.979 137.9492,151.4945 216.7478,137.3289 298.4179,136.9508 Z" />
      <path
         inkscape:connector-curvature="0"
         id="path3470"
         style="fill:none"
         d="m 105.6345,417.236 c 3.2094,5.9908 8.4095,10.997 13.875,16.2349 0.7733,0.6953 1.5191,-0.1667 2.1563,-1.1486 16.6794,-25.7 36.3189,-50.2991 61.5952,-72.9366 0.3781,-19.9598 0.5071,-39.7117 3.7511,-60.7504 1.6015,-10.3878 4.1079,-19.5446 10.2129,-26.2148 1.4922,-1.7031 1.8043,-2.0475 3.8497,-1.7226 4.2699,0.6786 8.794,1.7691 13.6642,5.25 5.735,4.0995 11.3198,8.5003 17.0858,12.3285 2.6096,1.8439 5.5327,2.9216 8.2502,4.3591 1.7547,0.9278 3.1655,1.12 5.2498,0.375 17.1935,-6.1452 34.8687,-9.2353 52.1254,-9.5627 18.3827,-0.3486 36.2175,4.1015 52.3129,9.1874 2.6869,0.849 3.4373,1.1719 6.0001,0 6.7818,-3.469 12.2575,-7.0376 17.814,-11.8125 6.664,-5.7269 13.8577,-9.1381 20.2501,-9.9374 2.1323,-0.2665 3.2134,-10e-4 4.4062,1.3476 4.1375,4.6791 6.3621,9.9073 7.7817,15.3402 5.2991,20.2785 5.9451,48.5311 6.1875,72.375 21.4001,18.8496 41.5635,44.7812 62.5334,73.2209 0.4694,0.6364 1.8099,0.2086 2.3437,-0.375 4.8327,-5.2849 9.9371,-10.6194 13.2182,-16.4917" />
      <path
         inkscape:connector-curvature="0"
         id="path3472"
         style="fill:#e60000;fill-rule:evenodd"
         d="m 105.6345,417.236 c 3.2094,5.9908 8.4095,10.997 13.875,16.2349 0.7733,0.6953 1.5191,-0.1667 2.1563,-1.1486 16.6794,-25.7 36.3189,-50.2991 61.5952,-72.9366 0.3781,-19.9598 0.5071,-39.7117 3.7511,-60.7504 1.6015,-10.3878 4.1079,-19.5446 10.2129,-26.2148 1.4922,-1.7031 1.8043,-2.0475 3.8497,-1.7226 4.2699,0.6786 8.794,1.7691 13.6642,5.25 5.735,4.0995 11.3198,8.5003 17.0858,12.3285 2.6096,1.8439 5.5327,2.9216 8.2502,4.3591 1.7547,0.9278 3.1655,1.12 5.2498,0.375 17.1935,-6.1452 34.8687,-9.2353 52.1254,-9.5627 18.3827,-0.3486 36.2175,4.1015 52.3129,9.1874 2.6869,0.849 3.4373,1.1719 6.0001,0 6.7818,-3.469 12.2575,-7.0376 17.814,-11.8125 6.664,-5.7269 13.8577,-9.1381 20.2501,-9.9374 2.1323,-0.2665 3.2134,-10e-4 4.4062,1.3476 4.1375,4.6791 6.3621,9.9073 7.7817,15.3402 5.2991,20.2785 5.9451,48.5311 6.1875,72.375 21.4001,18.8496 41.5635,44.7812 62.5334,73.2209 0.4694,0.6364 1.8099,0.2086 2.3437,-0.375 4.8327,-5.2849 9.9371,-10.6194 13.2182,-16.4917 22.644,-65.4752 33.1755,-135.6199 37.5015,-205.5946 -60.4281,-50.6389 -136.9448,-74.1849 -229.3815,-73.7569 -81.6701,0.3781 -160.4687,14.5437 -231.1305,74.0282 3.164,68.7526 15.1804,137.8361 38.3471,206.257 z m 190.1401,-151.1563 -6.3522,-0.021 -4.4518,0.0105 -2.6526,0.0105 c 0.2749,-2.0438 0.4966,-4.324 0.6607,-6.8338 0.1641,-2.5095 0.2605,-4.8696 0.2894,-7.077 l 2.4069,0.021 2.0835,-0.021 c -0.1208,1.2235 -0.2316,2.6139 -0.3373,4.1746 l -0.2801,4.0842 c -0.0819,1.1681 -0.1448,2.3289 -0.1783,3.4829 l 2.4307,0.021 c 2.2768,0 3.7766,-0.007 4.4904,-0.0173 0.7186,-0.007 1.4227,-0.0281 2.122,-0.0558 -0.0865,0.6709 -0.1636,1.4079 -0.2313,2.2212 z m 4.5439,-1.6441 c -1.0034,-0.65 -1.722,-1.4009 -2.1512,-2.2456 -0.434,-0.8445 -0.6511,-1.7586 -0.6511,-2.7459 0,-1.0775 0.2701,-2.1099 0.8101,-3.0935 0.5406,-0.9873 1.3363,-1.8006 2.3877,-2.4471 1.0465,-0.6429 2.2765,-1.133 3.6847,-1.4633 1.4037,-0.3339 2.918,-0.5006 4.5386,-0.5006 1.3989,0 2.7447,0.1389 4.0373,0.417 1.2878,0.2781 2.4308,0.7336 3.4291,1.3592 0.9987,0.629 1.751,1.3589 2.2572,2.1969 0.5066,0.8342 0.7623,1.8073 0.7623,2.923 0,1.0429 -0.241,2.0441 -0.7186,2.9963 -0.4825,0.9561 -1.2251,1.7762 -2.2334,2.4644 -1.0029,0.6919 -2.2281,1.2027 -3.6751,1.533 -1.442,0.3336 -2.9617,0.5006 -4.553,0.5006 -1.505,0 -2.952,-0.1531 -4.3413,-0.4589 -1.3887,-0.3059 -2.5801,-0.7821 -3.5833,-1.4355 z m 21.7817,1.6441 c 0.2798,-2.0231 0.4918,-4.3518 0.6319,-6.9798 0.14,-2.6311 0.2123,-4.9393 0.2123,-6.931 l 2.8409,0.021 c 0.82,0 1.6202,-0.0105 2.4114,-0.0314 0.7863,-0.0207 1.6157,-0.0312 2.4936,-0.0312 1.0948,0 2.069,0.045 2.9325,0.1321 0.8634,0.0904 1.6302,0.2919 2.3009,0.6117 0.6655,0.3197 1.1624,0.7055 1.4904,1.1611 0.3229,0.4552 0.487,0.987 0.487,1.5919 0,0.3787 -0.0626,0.7404 -0.1834,1.0845 -0.1256,0.3405 -0.3036,0.6639 -0.5448,0.9664 -0.2415,0.3024 -0.5258,0.5663 -0.8586,0.7959 -0.328,0.226 -0.656,0.4065 -0.9842,0.5386 -0.3229,0.1321 -0.6942,0.2469 -1.1092,0.3407 -0.4195,0.0973 -0.9743,0.2121 -1.6736,0.3476 l 0.9598,1.3453 c 0.3135,0.4275 0.902,1.1956 1.77,2.3046 l 1.423,1.8039 c 0.0771,0.0938 0.3038,0.4031 0.6803,0.9281 l -2.2867,-0.021 -2.4015,0.021 -1.5534,-2.7043 -0.9791,-1.4635 -1.6929,-2.4712 c -0.1686,-0.2294 -0.405,-0.5735 -0.6993,-1.0358 0.6271,0.0833 1.2008,0.125 1.717,0.125 0.8056,0 1.5434,-0.0938 2.209,-0.2849 0.6659,-0.1913 1.1772,-0.4867 1.5338,-0.8864 0.3569,-0.3997 0.5355,-0.8342 0.5355,-1.3036 0,-0.2883 -0.0771,-0.5525 -0.2316,-0.7994 -0.159,-0.2432 -0.4195,-0.4519 -0.786,-0.6222 -0.3666,-0.1704 -0.8056,-0.2815 -1.317,-0.3268 -0.506,-0.0485 -1.0174,-0.0729 -1.5242,-0.0729 l -1.1622,0.0105 -1.8085,0.0105 -0.2509,4.1848 -0.2653,7.6402 -2.1849,-0.021 -2.132,0.021 z m 18.9598,-7.9807 0.1883,-4.411 c 0.01,-0.1913 0.0144,-0.6987 0.0144,-1.5191 l 2.952,0.021 c 0.6894,0 1.5962,-0.0105 2.7201,-0.0314 1.124,-0.0207 2.0982,-0.0312 2.918,-0.0312 1.1095,0 2.1416,0.0487 3.0869,0.1426 0.9454,0.0972 1.77,0.2744 2.4792,0.5351 0.7039,0.2642 1.3167,0.5911 1.8374,0.9837 0.5162,0.3962 0.9406,0.8308 1.2686,1.3104 0.3282,0.4796 0.5839,1.0117 0.7574,1.599 0.1737,0.5874 0.2602,1.1889 0.2602,1.8006 0,1.1679 -0.2795,2.2802 -0.8391,3.337 -0.5643,1.0564 -1.3986,1.9289 -2.5129,2.6172 -1.1092,0.6916 -2.3442,1.1333 -3.6947,1.3314 -1.3552,0.1982 -2.889,0.2954 -4.6012,0.2954 l -4.8089,-0.021 -2.7009,0.021 0.3909,-3.5456 0.2843,-4.4351 z m 88.2576,-18.2585 c -0.9604,-3.6383 -2.3446,-7.9189 -4.1644,-12.8412 l -16.4687,0 c -1.8871,3.886 -3.8407,8.1666 -5.8615,12.8412 -4.064,-0.0451 -6.554,-0.0675 -7.4696,-0.0675 -1.6634,0 -4.3319,0.0224 -8.0277,0.0675 l 2.7133,-4.7534 16.9039,-32.171 1.7974,-3.5935 c 0.5247,-1.0587 1.2504,-2.5795 2.1884,-4.5617 3.8406,0.0447 6.6432,0.0674 8.4072,0.0674 3.0705,0 5.9176,-0.0227 8.5414,-0.0674 l 4.7676,13.776 9.7248,26.4824 1.8978,4.8212 c -3.7738,-0.0451 -6.0627,-0.0675 -6.8666,-0.0675 -1.8309,0 -4.5326,0.0224 -8.0833,0.0675 z m 18.3665,0 c 0.4243,-3.875 0.7594,-7.367 1.0049,-10.4647 0.2455,-3.1087 0.4575,-6.7132 0.6364,-10.8022 0.1899,-4.1003 0.3237,-8.4147 0.413,-12.9654 0.0893,-4.5508 0.134,-8.1666 0.134,-10.8473 2.7241,0.0674 4.9238,0.1011 6.5985,0.1011 1.7416,0 3.8741,-0.0564 6.3754,-0.1462 2.5121,-0.1015 4.9462,-0.1579 7.3242,-0.1579 2.791,0 5.2699,0.1128 7.4582,0.3379 1.6302,0.1465 3.115,0.4731 4.4547,0.9575 1.3399,0.4845 2.4675,1.0701 3.3831,1.7572 0.9156,0.6985 1.6858,1.4757 2.2887,2.3318 0.6143,0.8561 1.0831,1.8587 1.4295,3.0189 0.3348,1.1489 0.5023,2.3879 0.5023,3.706 0,1.4754 -0.1899,2.861 -0.5584,4.1451 -0.3682,1.2841 -0.949,2.5007 -1.7529,3.6272 -0.7926,1.1376 -1.7975,2.1178 -3.0031,2.9398 -1.2172,0.8224 -2.9143,1.6674 -5.0916,2.5234 l 1.6971,4.2016 c 0.4802,1.1602 0.9939,2.3541 1.541,3.5708 l 4.3764,9.6874 c 0.2012,0.4166 0.5473,1.239 1.0496,2.478 -3.6062,-0.0451 -6.029,-0.0675 -7.2686,-0.0675 -1.574,0 -4.1419,0.0224 -7.7258,0.0675 -0.3461,-1.1489 -0.9825,-3.278 -1.8984,-6.3867 -0.3682,-1.2955 -0.6808,-2.3094 -0.949,-3.0076 -0.5133,-1.5659 -1.2949,-3.7624 -2.3108,-6.5897 l -3.3721,-9.3608 c 1.1835,0.2253 2.3335,0.3381 3.4722,0.3381 1.5857,0 3.026,-0.2367 4.3211,-0.7211 1.2952,-0.4842 2.2776,-1.2277 2.9475,-2.2414 0.6587,-1.0026 0.9935,-2.0616 0.9935,-3.1878 0,-0.9352 -0.2455,-1.7685 -0.7478,-2.4783 -0.5023,-0.7095 -1.2954,-1.2391 -2.3669,-1.5883 -1.0831,-0.3492 -2.7468,-0.5292 -4.9907,-0.5292 -0.7597,0 -1.5522,0.011 -2.3672,0.0451 -0.8152,0.0337 -1.764,0.0674 -2.8584,0.0898 -0.29,4.506 -0.5358,10.0143 -0.7592,16.5025 -0.2233,6.4882 -0.3682,12.8636 -0.4354,19.1154 -3.6397,-0.0451 -6.0069,-0.0675 -7.1008,-0.0675 -1.2617,0 -3.5506,0.0224 -6.8442,0.0675 z m -201.1833,26.2392 c 0.0867,-0.9281 0.1349,-1.6963 0.1446,-2.3114 l 0.6658,-0.5284 1.2008,-1.0394 6.931,-5.9715 2.1897,-1.9536 -0.9312,-0.0105 -0.3566,0 -1.2299,-0.0102 -2.1512,0 c -1.77,0 -3.5014,0.0346 -5.1897,0.104 0.0578,-0.5281 0.087,-1.0981 0.087,-1.7101 l -0.0147,-0.4797 c 2.4599,0.0139 5.0695,0.021 7.8282,0.021 l 4.7216,-0.0105 2.571,-0.0105 c -0.0771,0.7439 -0.1255,1.5016 -0.1448,2.2802 l -0.9598,0.7614 c -0.188,0.1494 -0.3714,0.3059 -0.5499,0.4692 l -5.0449,4.4458 -4.4231,3.8061 1.1335,0.0105 c 3.1882,0 5.2382,-0.007 6.1495,-0.021 0.9165,-0.0139 1.9151,-0.0451 3.0005,-0.0938 -0.0777,0.9558 -0.1208,1.7067 -0.14,2.2524 l -7.4424,-0.021 -5.2189,0.0105 -2.8261,0.0105 z m 23.4263,-5.8604 -6.3473,-8.0504 2.4939,0.021 2.2666,-0.021 c 0.4246,0.7093 1.0369,1.6025 1.8474,2.6904 0.8101,1.0845 1.5094,2.0787 2.0931,2.986 l 4.1961,-4.9011 0.6222,-0.7753 2.4361,0.021 2.2765,-0.021 -7.727,8.2588 -0.1783,2.5826 c -0.0581,0.7614 -0.1015,1.7833 -0.1301,3.0694 l -2.1949,-0.021 -2.2135,0.021 c 0.1156,-0.7543 0.2313,-1.7379 0.352,-2.9546 0.1157,-1.2166 0.188,-2.1863 0.2072,-2.9058 z m 66.8101,-20.3788 c -3.0702,-0.0451 -5.4374,-0.0675 -7.1121,-0.0675 -1.7306,0 -4.1199,0.0224 -7.1904,0.0675 0.2234,-1.7799 0.4802,-4.8098 0.7815,-9.0791 0.313,-4.2579 0.4578,-7.2768 0.4578,-9.034 l -14.9612,-26.9665 c 3.2938,0.0447 6.0182,0.0674 8.1507,0.0674 2.0543,0 4.4994,-0.0227 7.3576,-0.0674 0.8711,2.2189 2.0543,4.8659 3.5507,7.9299 1.4961,3.0753 2.702,5.8238 3.6397,8.2343 2.4896,-4.4946 4.4994,-8.009 6.0179,-10.521 1.5072,-2.5232 2.5903,-4.4042 3.2491,-5.6432 2.7689,0.0447 5.4374,0.0674 8.0053,0.0674 1.351,0 3.8186,-0.0227 7.38,-0.0674 l -14.347,21.4021 c -2.8471,4.2803 -4.2763,6.5106 -4.2763,6.7136 l -0.0335,0.3265 0,0.3266 -0.0334,0.3381 -0.2455,5.0012 c -0.1678,3.3231 -0.3013,6.9727 -0.3909,10.9715 z m 19.0366,-0.6758 c -0.2795,-4.6749 -0.6142,-8.4146 -0.9827,-11.2192 2.4562,1.0925 4.6559,1.8473 6.5763,2.264 1.9205,0.428 3.6063,0.6421 5.0466,0.6421 1.9204,0 3.4389,-0.2815 4.5666,-0.8448 1.1276,-0.5632 1.6968,-1.3855 1.6968,-2.4894 0,-0.3719 -0.0556,-0.7321 -0.1673,-1.07 -0.1116,-0.3493 -0.3126,-0.7322 -0.6253,-1.1603 -0.3126,-0.4283 -0.748,-0.89 -1.3172,-1.3969 l -6.2082,-5.4181 c -1.4511,-1.2277 -2.4673,-2.1178 -3.0368,-2.6697 -1.161,-1.1265 -2.0766,-2.1739 -2.724,-3.1427 -0.6478,-0.9686 -1.1166,-1.9486 -1.4182,-2.9512 -0.3013,-1.0026 -0.4468,-2.0614 -0.4468,-3.1878 0,-1.3405 0.2347,-2.6584 0.7036,-3.9425 0.4691,-1.2841 1.1724,-2.4893 2.1214,-3.6158 0.9377,-1.1152 2.1773,-2.0841 3.7404,-2.8951 1.5519,-0.8223 3.2042,-1.3742 4.9793,-1.667 1.7756,-0.3042 3.5955,-0.4507 5.4822,-0.4507 3.6955,0 7.7151,0.428 12.0696,1.2844 0.0556,1.5205 0.1338,2.906 0.2231,4.1677 0.0893,1.2614 0.3014,3.4807 0.6254,6.6459 -2.0209,-0.811 -3.8634,-1.3743 -5.5378,-1.6898 -1.6637,-0.3152 -3.1039,-0.4731 -4.3098,-0.4731 -1.7082,0 -3.1377,0.3155 -4.265,0.9576 -1.1279,0.642 -1.6971,1.4306 -1.6971,2.3768 0,0.4394 0.0893,0.8674 0.2679,1.2841 0.1672,0.4167 0.5025,0.9125 0.9824,1.4757 0.4802,0.5519 1.1166,1.1713 1.9095,1.8474 0.7925,0.6644 2.0318,1.667 3.7289,2.9848 l 2.3673,1.8811 c 0.7032,0.5746 1.4623,1.2617 2.2773,2.0727 0.8039,0.8223 1.5075,1.622 2.0991,2.4106 0.6032,0.7999 1.0496,1.5208 1.3733,2.1852 0.3127,0.6534 0.5582,1.3181 0.7033,1.9939 0.1562,0.6758 0.2347,1.3966 0.2347,2.1628 0,1.9826 -0.4688,3.8637 -1.4068,5.6546 -0.9377,1.8023 -2.2776,3.278 -3.9974,4.4269 -1.7303,1.1602 -3.6284,1.9601 -5.694,2.4219 -2.0656,0.4618 -4.2426,0.6984 -6.5316,0.6984 -3.5393,0 -8.0166,-0.5181 -13.409,-1.5545 z M 211.5034,262.635 c 0.1108,-1.3799 0.2364,-3.3298 0.3764,-5.8498 0.0916,-1.7243 0.1398,-2.9478 0.1398,-3.6672 l 0,-0.9491 2.3102,0.021 2.1799,-0.021 -0.4386,5.5024 -0.3809,6.5939 -0.0434,1.8145 -2.19,-0.021 -2.3006,0.021 c 0.1593,-1.3312 0.2749,-2.4783 0.3472,-3.4447 z m 7.9824,-6.7538 2.9279,-2.6833 1.0468,-1.029 2.5223,0.021 2.4162,-0.021 -6.4533,5.5268 -1.09,0.9907 0.8873,0.9141 2.7881,2.6453 4.1043,3.8339 -2.5177,-0.021 -2.7541,0.021 -0.9066,-1.0185 c -0.1686,-0.1981 -0.4728,-0.5179 -0.9019,-0.9663 l -3.8489,-3.9521 -1.4278,-1.4148 3.2074,-2.8468 z m 33.0868,-16.0563 -6.2164,-0.0519 c -1.7416,0 -4.7004,0.0224 -8.8764,0.0675 -2.8244,-5.3507 -7.4803,-13.2693 -13.9785,-23.7563 l 7.3469,-10.0817 5.9286,-8.4033 1.8309,-2.8383 c 4.0643,0.0447 6.8219,0.0674 8.2622,0.0674 l 7.8264,-0.0674 -13.8107,17.651 -2.5905,3.5371 2.4227,3.886 12.6936,18.521 1.8657,-3.2689 16.9039,-32.171 1.7974,-3.5935 c 0.5247,-1.0587 1.2504,-2.5795 2.1884,-4.5617 3.8406,0.0447 6.6432,0.0674 8.4072,0.0674 3.0705,0 5.9177,-0.0227 8.5414,-0.0674 l 4.7676,13.776 9.7248,26.4824 1.8978,4.8212 c -3.7738,-0.0451 -6.0627,-0.0675 -6.8666,-0.0675 -1.8309,0 -4.5326,0.0224 -8.0833,0.0675 -0.9604,-3.6383 -2.3446,-7.9189 -4.1644,-12.8412 l -16.4687,0 c -1.887,3.886 -3.8407,8.1666 -5.8615,12.8412 -4.064,-0.0451 -6.554,-0.0675 -7.4696,-0.0675 -1.3717,0 -3.4265,0.0153 -6.1775,0.046 l 0.0147,0.0215 -1.0993,-0.009 c -0.002,0 -0.004,0 -0.006,0 -0.2483,0.003 -0.5018,0.006 -0.76,0.009 l 0.009,-0.0156 z m -45.4391,0.0156 c 0.413,-4.1227 0.7146,-7.5246 0.8822,-10.2393 0.3347,-4.7985 0.6808,-11.3655 1.0493,-19.7124 0.2679,-5.8125 0.3909,-9.9128 0.3909,-12.2896 l 0,-2.8383 c 3.6397,0.0447 6.1407,0.0674 7.5141,0.0674 0.9043,0 3.2601,-0.0227 7.045,-0.0674 l -1.5407,24.6687 -0.7815,20.4109 -7.09,-0.0675 c -0.9935,0 -3.4835,0.0224 -7.4693,0.0675 z m -24.675,-0.2027 c -4.667,0.7209 -8.8203,1.0814 -12.4824,1.0814 -3.528,0 -6.8218,-0.4507 -9.8589,-1.3405 -3.037,-0.89 -5.828,-2.3544 -8.3625,-4.3818 -2.5458,-2.0389 -4.3545,-4.4382 -5.4487,-7.1866 -1.0829,-2.7485 -1.6299,-5.8238 -1.6299,-9.2367 0,-3.9878 0.7367,-7.5697 2.2107,-10.7462 1.4624,-3.1768 3.5838,-5.8351 6.3417,-7.9526 2.7578,-2.1291 5.7835,-3.6385 9.066,-4.551 3.2939,-0.9122 6.6991,-1.3742 10.205,-1.3742 3.2267,0 7.2125,0.428 11.9688,1.2844 l 0.0668,2.7595 c 0.0335,1.2053 0.1007,2.5234 0.1789,3.9764 l 0.2234,3.7398 c -2.5458,-0.6083 -4.6114,-1.014 -6.1968,-1.228 -1.5855,-0.214 -3.0478,-0.3266 -4.3991,-0.3266 -2.9364,0 -5.5933,0.597 -7.9495,1.7799 -2.3445,1.194 -4.1981,2.9174 -5.5491,5.1815 -1.3507,2.264 -2.0319,4.7761 -2.0319,7.5245 0,2.5008 0.5692,4.6523 1.6971,6.4545 1.1387,1.791 2.6683,3.1765 4.5888,4.1565 1.9315,0.9799 4.3097,1.4643 7.1458,1.4643 1.5406,0 3.2267,-0.1238 5.0465,-0.3716 1.8199,-0.2477 4.0975,-0.7322 6.8443,-1.453 -0.2568,1.2841 -0.5695,3.0863 -0.938,5.3841 -0.3572,2.3094 -0.6029,4.1003 -0.737,5.362 z m -53.4246,-17.7074 c -2.8695,0 -5.9958,0.0561 -9.3897,0.1689 l -0.3575,11.8726 -0.0445,4.4156 0,1.453 -7.0228,-0.0675 -7.6592,0.0675 c 0.4578,-4.4719 0.7704,-8.0541 0.949,-10.7688 0.2679,-4.0099 0.5136,-9.5182 0.7591,-16.5246 0.2344,-7.0177 0.3572,-11.7374 0.3572,-14.1593 l 0,-3.6269 c 6.5542,0.0447 12.6612,0.0674 18.2996,0.0674 5.6942,0 11.1651,-0.0227 16.4126,-0.0674 -0.3461,5.0462 -0.5247,8.3466 -0.5247,9.9011 l -2.8471,-0.1012 -2.2887,-0.034 -2.289,-0.0338 -6.442,0 c -0.737,0 -2.9143,0.0227 -6.5095,0.0678 l -0.2568,7.7723 4.7341,0.0675 5.281,0 c 1.5296,0 3.852,-0.0338 6.9894,-0.1012 -0.2344,4.1677 -0.3572,7.4344 -0.3572,9.7999 -3.5059,-0.1128 -6.0962,-0.1689 -7.7933,-0.1689 z m 173.9506,-38.4625 c -1.9239,0 -3.5969,-0.3217 -5.0196,-0.9646 -1.4167,-0.6486 -2.4522,-1.5316 -3.0954,-2.6544 -0.6432,-1.1282 -0.9646,-2.3652 -0.9646,-3.7168 0,-0.7795 0.087,-1.635 0.2616,-2.5616 0.1743,-0.9264 0.5666,-2.0328 1.1662,-3.3135 0.5995,-1.2863 1.4224,-2.7632 2.4689,-4.4365 1.0517,-1.673 2.1147,-3.2045 3.1992,-4.5887 l 8.1749,0 c -1.6132,1.8584 -2.6867,3.1227 -3.2154,3.7823 -0.7577,0.9428 -1.4661,1.9182 -2.1257,2.9265 -0.6647,1.0029 -1.2206,1.9349 -1.6566,2.7961 -0.4416,0.8608 -0.8175,1.7056 -1.1228,2.5341 -0.1853,0.4904 -0.3106,0.9482 -0.3923,1.3734 -0.0819,0.4252 -0.1199,0.8229 -0.1199,1.1937 0,0.5012 0.1035,0.9808 0.305,1.4386 0.2019,0.4578 0.5015,0.8175 0.9102,1.0845 0.4034,0.2673 0.883,0.398 1.4497,0.398 0.5343,0 1.0029,-0.1253 1.4116,-0.3762 0.4088,-0.2452 0.7141,-0.5938 0.9156,-1.0298 0.2016,-0.4416 0.3053,-0.9048 0.3053,-1.3952 0,-0.8558 -0.3107,-1.4825 -0.9374,-1.8748 -0.6214,-0.3926 -1.2427,-0.5888 -1.8641,-0.5888 -0.1907,0 -0.4796,0.0218 -0.8609,0.0655 0.2452,-0.3923 0.7084,-1.1554 1.3788,-2.2782 l 1.3025,-2.1691 c 0.5505,-0.0873 1.0792,-0.1307 1.575,-0.1307 1.2208,0 2.3164,0.2398 3.2865,0.7195 0.97,0.4793 1.7058,1.2206 2.2073,2.2288 0.4958,1.0083 0.7466,2.1311 0.7466,3.3682 0,0.8175 -0.1145,1.6132 -0.3432,2.3763 -0.2291,0.7574 -0.5562,1.4606 -0.9811,2.1092 -0.4252,0.6429 -0.9539,1.2206 -1.586,1.7274 -0.6378,0.5069 -1.3136,0.8884 -2.0273,1.1555 -0.7195,0.267 -1.4825,0.4688 -2.2947,0.5995 -0.8064,0.1363 -1.6239,0.2018 -2.4579,0.2018 z m 16.666,-11.5923 c -0.6157,-0.2999 -1.0681,-0.5505 -1.3623,-0.7577 -0.2889,-0.2069 -0.5723,-0.4632 -0.8447,-0.7574 -0.2727,-0.2999 -0.4961,-0.6321 -0.6758,-0.9918 -0.18,-0.3598 -0.3107,-0.7359 -0.3869,-1.1175 -0.0709,-0.3869 -0.1092,-0.7684 -0.1092,-1.15 0,-1.0355 0.2344,-1.9672 0.703,-2.7958 0.4689,-0.8283 1.1554,-1.5151 2.071,-2.0545 0.9156,-0.5341 1.8913,-0.9049 2.9375,-1.1064 1.0412,-0.2015 2.1365,-0.3053 3.2812,-0.3053 1.0953,0 2.158,0.1253 3.1773,0.3762 1.0191,0.2506 1.8967,0.6432 2.6215,1.1718 0.7302,0.5341 1.2642,1.1444 1.6021,1.8312 0.3436,0.6865 0.5125,1.5094 0.5125,2.4687 0,0.4578 -0.0436,0.8994 -0.1363,1.3243 -0.0873,0.4252 -0.2291,0.8175 -0.4195,1.1719 -0.1965,0.3597 -0.4252,0.6868 -0.7033,0.9864 -0.2778,0.2943 -0.572,0.5559 -0.8773,0.7793 -0.3107,0.2236 -0.8229,0.5179 -1.548,0.8776 0.6814,0.1908 1.199,0.3651 1.5587,0.5233 0.3651,0.1525 0.7141,0.3651 1.0466,0.6375 0.3325,0.2724 0.6213,0.5887 0.8611,0.9538 0.2399,0.3705 0.4088,0.7628 0.5177,1.1773 0.1034,0.4141 0.1581,0.8501 0.1581,1.3079 0,1.0627 -0.2616,2.082 -0.7795,3.052 -0.5233,0.9647 -1.2317,1.7439 -2.1308,2.3273 -0.8994,0.5884 -1.9403,1.008 -3.134,1.2696 -1.188,0.2616 -2.4032,0.3926 -3.6513,0.3926 -1.1883,0 -2.3326,-0.1145 -3.4336,-0.3489 -1.101,-0.2345 -2.082,-0.6268 -2.9429,-1.1773 -0.8612,-0.5448 -1.4879,-1.1934 -1.8803,-1.94 -0.3925,-0.7413 -0.5887,-1.5917 -0.5887,-2.5398 0,-0.5505 0.0709,-1.09 0.2126,-1.6079 0.1471,-0.5229 0.3651,-1.0136 0.6539,-1.4768 0.2943,-0.4632 0.6322,-0.8558 1.0137,-1.1665 0.3816,-0.316 0.7577,-0.5612 1.1228,-0.7356 0.3705,-0.1743 0.8884,-0.3761 1.5531,-0.5995 z m -43.5345,11.1671 c 0.9374,-1.1282 1.8148,-2.2181 2.6377,-3.27 0.8232,-1.052 1.6514,-2.1745 2.4854,-3.3628 0.8337,-1.1934 1.4661,-2.169 1.902,-2.9375 0.436,-0.7628 0.79,-1.4879 1.0627,-2.1691 0.2671,-0.6812 0.4525,-1.2316 0.5395,-1.6568 0.0927,-0.425 0.1363,-0.8448 0.1363,-1.2589 0,-0.5669 -0.0981,-1.0681 -0.2942,-1.5097 -0.1962,-0.4414 -0.5015,-0.7739 -0.9048,-0.9973 -0.4034,-0.2236 -0.8501,-0.3325 -1.3408,-0.3325 -0.8283,0 -1.537,0.267 -2.1147,0.8011 -0.5831,0.534 -0.8719,1.2427 -0.8719,2.12 0,0.5069 0.1145,0.9431 0.3379,1.3082 0.2236,0.3651 0.5559,0.6429 0.9921,0.8394 0.436,0.1961 0.8773,0.2942 1.3297,0.2942 0.2725,0 0.6648,-0.0544 1.1662,-0.1636 -1.0244,1.4389 -2.0599,2.9648 -3.1065,4.578 -0.3597,0.0436 -0.6704,0.0655 -0.9263,0.0655 -0.7033,0 -1.4718,-0.1307 -2.2947,-0.398 -0.8283,-0.267 -1.5587,-0.6701 -2.1909,-1.2045 -0.6375,-0.5394 -1.1171,-1.2316 -1.4496,-2.0763 -0.3325,-0.8448 -0.4961,-1.7331 -0.4961,-2.6706 0,-1.2588 0.2781,-2.4361 0.8286,-3.5424 0.5559,-1.1064 1.3297,-2.0112 2.3272,-2.7196 0.9973,-0.7086 2.0818,-1.2098 3.259,-1.4986 1.1773,-0.2946 2.4472,-0.4417 3.8095,-0.4417 1.2592,0 2.469,0.1636 3.6298,0.4961 1.1608,0.3268 2.1092,0.8339 2.8505,1.5151 0.741,0.6812 1.2915,1.4987 1.6512,2.4525 0.3651,0.9482 0.5451,1.8692 0.5451,2.7522 0,0.6267 -0.0763,1.3297 -0.2234,2.1039 -0.1474,0.7792 -0.3872,1.5967 -0.7087,2.4579 -0.3268,0.8665 -0.7738,1.8473 -1.3515,2.9483 -0.5723,1.101 -1.2481,2.2292 -2.033,3.3899 -0.7793,1.1608 -1.7385,2.5235 -2.8775,4.0876 l -8.3058,0 z m -17.8543,0 c 0.1364,-1.6515 0.3107,-4.322 0.5233,-8.0062 0.2069,-3.6842 0.3325,-6.3218 0.3597,-7.9078 l -1.1446,0.7302 c -0.3705,0.2398 -1.1772,0.8122 -2.4197,1.7113 0.0652,-0.9048 0.1199,-1.9675 0.1744,-3.1938 0.0544,-1.2206 0.0816,-2.1146 0.0816,-2.6923 0.5397,-0.3104 1.15,-0.6812 1.8366,-1.1064 0.6814,-0.4249 1.101,-0.6976 1.2591,-0.8065 l 0.6922,-0.5394 c 0.9482,0.0216 2.0382,0.0326 3.2755,0.0326 1.1772,0 2.376,-0.011 3.6022,-0.0326 l -0.316,3.5643 -0.6866,11.821 -0.1581,4.3492 0,2.0764 c -0.9102,-0.0218 -2.0109,-0.0326 -3.3081,-0.0326 -1.5151,0 -2.7686,0.0108 -3.7715,0.0326 z m 101.3919,83.037 c 0.9791,-1.2512 2.1319,-2.7947 3.4486,-4.6369 l 3.7188,-5.1477 c 1.1622,-1.5886 2.122,-2.9651 2.8843,-4.1262 l 2.6047,0.021 2.6286,-0.021 2.0205,4.1678 4.3991,8.6202 0.6078,1.1228 -2.1175,-0.021 -2.4696,0.021 c -0.2267,-0.6049 -0.5833,-1.4182 -1.0706,-2.4472 -0.487,-1.0253 -0.902,-1.8561 -1.2396,-2.4956 l -7.4327,0 c -1.1047,1.6163 -2.1753,3.2638 -3.2171,4.9428 l -2.3102,-0.021 -2.4551,0.021 z m -125.1771,0 c 0.1157,-0.7543 0.2313,-1.7379 0.3521,-2.9546 0.1156,-1.2166 0.1879,-2.1863 0.2072,-2.9058 l -6.3474,-8.0504 2.494,0.021 2.2665,-0.021 c 0.4247,0.7093 1.037,1.6025 1.8474,2.6904 0.8101,1.0845 1.5094,2.0787 2.0931,2.986 l 4.1961,-4.9011 0.6222,-0.7753 2.4361,0.021 2.2765,-0.021 -7.7269,8.2588 -0.1783,2.5826 c -0.0582,0.7614 -0.1015,1.7833 -0.1302,3.0694 l -2.1948,-0.021 -2.2136,0.021 z" />
      <path
         inkscape:connector-curvature="0"
         id="path3474"
         style="fill:#ffffff;fill-rule:evenodd"
         d="m 244.0494,414.8714 c 0.286,-0.1126 0.0802,-0.6426 -0.305,-0.7852 -1.0313,-0.3816 -2.0024,-0.9216 -3.0467,-1.2657 -0.6817,-0.2245 -1.3286,0.1287 -2.1095,0.703 -1.7638,1.2971 -2.8412,2.7615 -3.5626,4.4532 -0.3623,0.8496 -0.5179,1.6898 -0.6562,2.5314 -0.2501,1.5225 -0.0868,2.9877 0.1406,4.4532 0.1111,0.7172 0.5068,1.2129 1.125,1.6404 3.8112,2.6362 8.2865,4.9079 12.1465,4.8047 0.8492,-0.0227 1.6072,-0.093 2.338,-0.3982 0.684,-0.2861 1.3399,-0.6211 1.9687,-1.1719 2.5401,-2.2257 3.9296,-4.9694 3.7031,-8.672 -0.0232,-0.3813 -0.1964,-0.627 -0.5156,-0.8439 -1.2469,-0.8478 -2.5254,-1.6512 -3.7499,-2.531 -0.3646,-0.262 -0.7319,-0.4493 -1.1719,-0.6095 -0.5167,-0.1882 -0.5873,-0.0451 -0.5156,0.8907 0.2599,3.3834 -1.3124,4.7814 -4.0314,4.6873 -2.5682,-0.089 -4.0122,-1.487 -4.1718,-4.3123 -0.1037,-1.836 0.7481,-2.918 2.4143,-3.5742 z" />
      <path
         inkscape:connector-curvature="0"
         id="path3476"
         style="fill:#ffffff;fill-rule:evenodd"
         d="m 351.1752,414.8714 c -0.286,-0.1126 -0.0802,-0.6426 0.305,-0.7852 1.0312,-0.3816 2.0024,-0.9216 3.0467,-1.2657 0.6817,-0.2245 1.3286,0.1287 2.1095,0.703 1.7637,1.2971 2.8412,2.7615 3.5626,4.4532 0.3623,0.8496 0.5179,1.6898 0.6562,2.5314 0.25,1.5225 0.0868,2.9877 -0.1406,4.4532 -0.1111,0.7172 -0.5068,1.2129 -1.1251,1.6404 -3.8111,2.6362 -8.2865,4.9079 -12.1464,4.8047 -0.8493,-0.0227 -1.6073,-0.093 -2.338,-0.3982 -0.684,-0.2861 -1.34,-0.6211 -1.9687,-1.1719 -2.5401,-2.2257 -3.9297,-4.9694 -3.7032,-8.672 0.0233,-0.3813 0.1965,-0.627 0.5157,-0.8439 1.2469,-0.8478 2.5253,-1.6512 3.7499,-2.531 0.3645,-0.262 0.7319,-0.4493 1.1718,-0.6095 0.5168,-0.1882 0.5874,-0.0451 0.5157,0.8907 -0.26,3.3834 1.3124,4.7814 4.0314,4.6873 2.5682,-0.089 4.0122,-1.487 4.1717,-4.3123 0.1038,-1.836 -0.748,-2.918 -2.4142,-3.5742 z" />
      <path
         inkscape:connector-curvature="0"
         id="path3478"
         style="fill:#ffffff;fill-rule:evenodd"
         d="m 296.729,550.9329 c 4.6967,0.044 9.3467,0.3314 13.9689,0.7501 4.3917,1.5211 8.6629,2.6328 12.8437,2.9064 1.5718,0.1029 1.3958,0.5136 0.6798,1.2656 -5.3283,5.5962 -12.2312,12.0127 -14.9063,11.9532 -7.5625,0.0311 -15.1257,0.1131 -22.6879,0.0938 -4.0623,-0.0102 -10.355,-6.4877 -15.6566,-12.3287 -0.4706,-0.5185 -0.3331,-0.9684 0.75,-1.0313 3.6842,-0.2137 7.9713,-1.0905 13.0315,-2.9063 3.897,-0.4009 7.8293,-0.7413 11.9769,-0.7028 z" />
      <path
         inkscape:connector-curvature="0"
         id="path3480"
         style="fill:#ffffff;fill-rule:evenodd"
         d="m 305.5017,677.7831 c -0.3461,0.2344 -1.6331,1.1369 1.0981,0.6576 10.6328,-1.8663 20.0645,-7.2108 27.0692,-14.8099 0.316,-0.343 0.4328,-1.4119 -0.6778,-1.2886 -1.4326,0.1587 -4.4045,0.3163 -6.2447,0.0312 1.1355,-4.828 1.8212,-11.9812 2.245,-15.2706 0.112,-0.8688 0.5117,-1.9012 1.368,-2.4199 2.2672,-1.374 7.234,-6.98 9.3036,-10.4168 0.491,-0.8158 0.7189,-0.8475 1.1271,-0.557 1.3632,0.97 3.3151,3.9028 3.9177,5.9426 0.2407,0.8144 0.9278,0.3101 1.012,-0.6472 0.2265,-2.5789 0.6418,-5.1814 0.6418,-7.8573 0,-4.0502 -1.9392,-18.671 -8.786,-27.4414 -0.4646,-0.595 -0.7353,-0.3274 -0.7625,0.5624 -0.0519,1.7028 0.1859,6.7054 -0.112,8.4283 -0.104,0.6012 -0.6914,0.9402 -1.2005,0.589 -4.4867,-3.0966 -9.0504,-4.4484 -14.6001,-5.6458 -1.1112,-2.5313 -4.8376,-12.6915 -7.778,-15.851 -0.4807,-0.5168 -0.7081,-1.1237 0.3181,-1.2915 2.2555,-0.3685 5.9079,-0.2341 8.4639,-0.2545 0.7637,-0.006 1.046,-0.2807 0.3974,-0.6778 -7.3264,-4.485 -14.8872,-6.4409 -24.1163,-6.4409 -0.5405,0 -5.5729,-0.1587 -7.6666,0.152 -0.9861,0.1462 -0.4813,0.7443 -0.0909,0.8745 1.218,0.4056 5.3036,3.1657 5.9638,3.6966 0.398,0.32 0.3461,0.6015 0.003,0.8912 -3.2488,2.7411 -8.3877,6.7207 -12.1062,11.6139 -5.1749,0.3271 -13.3787,0.9394 -17.4722,1.2336 -0.1358,-1.8754 -0.023,-4.4133 0.1925,-5.9786 0.0924,-0.6726 -0.3215,-0.8033 -0.7997,-0.3801 -9.2741,8.2097 -15.3482,19.9361 -16.1166,33.0812 -0.0547,0.9391 0.0294,2.298 1.4173,0.8232 1.7263,-1.8341 3.8769,-3.7769 6.0035,-6.0245 0.5595,-0.5913 1.4012,-0.4904 1.432,-0.1307 0.2172,2.5396 4.1996,8.2126 6.7235,11.804 0.3498,0.4975 0.4743,1.0285 0.3399,1.5597 -0.5913,2.3377 -2.52,12.4523 -2.6226,17.3182 -0.0201,0.9584 -0.8059,0.9505 -1.3533,0.4658 -1.4374,-1.2731 -5.7631,-3.7245 -7.2133,-4.726 -0.5023,-0.3469 -1.1627,-0.0918 -0.7733,0.7206 4.9737,10.3731 12.9929,20.2377 24.2572,24.7845 0.5091,0.2052 1.5812,0.5592 1.1668,-0.7294 -0.4184,-1.3011 -0.4986,-4.1372 -0.3252,-6.2277 4.0244,-0.4394 9.4363,-2.0758 13.7775,-4.371 7.2321,5.1553 12.265,7.3278 18.7918,7.8474 1.1279,0.0899 0.8719,0.4144 0.2914,1.0797 -2.005,2.2975 -3.2244,3.0583 -6.5041,5.281 z" />
      <path
         inkscape:connector-curvature="0"
         id="path3482"
         style="fill:#000000;fill-rule:evenodd"
         d="m 291.3582,613.959 c 6.9905,0.1712 13.8643,0.5627 20.344,2.4375 0.5615,0.1625 0.8597,0.8816 0.9844,1.4531 1.607,7.3678 2.1498,13.661 2.3916,19.453 0.009,0.2194 -0.1261,0.4578 -0.3044,0.5862 -6.0868,4.3846 -11.7848,7.1192 -16.8987,8.8827 -0.4133,0.1423 -0.9326,0.1924 -1.3125,-0.0236 -6.1566,-3.499 -10.684,-8.1331 -14.578,-13.8985 -0.1443,-0.2135 -0.131,-0.5298 -0.0468,-0.7733 2.1192,-6.1243 4.7551,-12.1363 9.1168,-17.8367 0.0834,-0.1092 0.1661,-0.2838 0.3036,-0.2804 z" />
      <path
         inkscape:connector-curvature="0"
         id="path3484"
         style="fill:#ffffff;fill-rule:evenodd"
         d="m 200.1249,274.7347 c 0.4793,-0.7608 1.0805,-0.5201 1.6114,0.006 7.7188,6.3643 15.1719,13.2565 22.1074,20.9004 1.6266,1.7926 3.1697,3.0699 4.8515,4.0666 3.3038,1.9578 6.7576,2.7754 10.711,3.2459 0.8972,0.1069 1.8924,0.0547 2.8066,-0.4629 15.6529,-5.8382 34.0699,-8.8594 56.7272,-8.5357 18.1574,0.2597 35.9354,1.493 52.3126,7.875 1.8113,0.7058 3.5042,1.2685 5.0626,1.125 5.8556,-0.5386 11.5685,-3.1586 14.0743,-5.9882 6.6887,-7.5537 14.0369,-15.4513 23.239,-22.2293 1.1591,-0.8535 1.7374,-0.2987 2.2031,0.6679 6.046,12.5512 6.6549,25.5733 4.3594,39.4574 -3.0934,15.2816 -6.0579,29.9276 -9.1513,45.2092 -0.1642,0.6406 -0.1755,1.3076 0.7151,2.1356 24.3187,21.7712 47.2298,45.5137 69.0486,70.7845 -3.8752,17.2347 -8.7367,33.4415 -13.3038,49.5071 -0.127,0.447 -0.6228,0.7637 -0.8992,0.0411 -12.6258,-33.0165 -32.987,-55.0329 -60.0939,-65.5787 12.89,15.4747 23.2829,32.0446 30.187,50.1112 8.0192,20.9849 7.9211,44.2698 3.9844,68.0627 -0.0536,-1.3658 -0.4014,-2.5892 -0.3345,-3.9617 1.2645,-25.9319 -11.6399,-46.45 -31.1542,-63.8198 -11.1674,14.502 -20.5061,23.3994 -28.5472,27.5267 -0.5706,0.3478 -0.9762,0.0368 -0.8087,-0.7617 1.2419,-5.9204 3.276,-11.245 5.4839,-16.0311 0.1347,-0.2735 0.007,-0.5074 -0.7032,-0.0467 -6.0149,3.9002 -11.2734,9.0983 -14.1101,17.6706 -1.2169,3.6774 -1.0153,7.4455 -1.4062,11.1563 -2.2303,21.1734 -10.0282,34.3766 -21.3758,39.1878 -3.4472,1.4613 -6.054,2.6249 -9.9318,3.6151 -1.3271,0.339 -3.827,0.0411 -5.6075,-0.0644 -0.9498,-0.0564 -1.3827,-0.7109 -0.3047,-1.4882 5.6157,-4.2437 9.8368,-9.4255 12.5626,-16.6875 2.3737,-6.325 4.7934,-12.2993 5.7889,-19.4545 0.1406,-0.625 0.2007,-1.4564 -0.1171,-2.156 -7.1019,-15.6396 -12.1158,-31.0672 -12.0503,-46.222 0.0422,-9.8054 0.5428,-19.6869 7.8137,-25.9631 2.6818,-2.3148 5.0842,-3.9062 7.5382,-4.7872 2.1248,-0.7631 4.3061,-1.182 6.5154,-0.8671 6.5996,0.9411 12.3392,0.9482 17.9532,-0.5624 5.6554,-1.5219 10.1191,-5.3277 12.8206,-11.0392 0.5408,-1.1432 0.6205,-1.6563 2.1563,-2.2969 3.2859,-1.3709 6.8051,-1.6694 12.5623,-1.4766 -3.8279,-2.5313 -8.0082,-4.9504 -11.9174,-7.5059 -4.582,-2.9948 -9.277,-4.2307 -14.3323,-4.1896 -6.2022,0.0505 -10.6466,2.3831 -13.6256,5.139 -2.643,2.4446 -5.068,4.4971 -8.4055,4.7049 -2.9444,0.1831 -4.3045,-2.1254 -4.5939,-5.1562 -1.3782,-14.4326 2.7964,-35.1746 8.6239,-59.9071 -9.2072,22.4396 -17.4487,50.9068 -19.3828,67.1717 -0.9808,8.2483 -1.5945,18.9958 -5.6781,20.9594 -1.1497,0.5527 -1.6832,0.9782 -1.7518,1.775 -1.2611,14.6546 -0.8277,27.9533 1.4959,39.8444 2.5361,12.9787 6.1985,22.4444 10.3822,30.3692 0.3676,0.6965 0.4529,1.2807 -0.7269,1.5526 -2.243,0.5164 -5.1953,0.7239 -7.7343,-0.1406 -6.3711,-2.1702 -12.8772,-3.1306 -19.7351,-3.2811 -6.427,-0.1412 -12.1844,0.625 -18.1831,2.5367 -3.1252,0.9958 -6.2433,1.726 -9.2931,1.0485 -0.7636,-0.1933 -2.0185,-0.2208 -1.2127,-1.898 4.6656,-9.7121 7.5326,-19.2433 9.3742,-28.3128 2.5668,-12.6414 2.7343,-25.9225 2.4375,-39.9376 -0.0348,-1.6503 -0.494,-2.6691 -2.2498,-3.7499 -1.643,-1.0114 -3.3384,-3.4265 -4.43,-10.9454 -0.7175,-4.9428 -0.7634,-10.9367 -2.1339,-17.218 -3.8452,-17.6241 -11.4055,-41.5292 -17.837,-58.9073 3.2969,15.0783 5.9238,30.094 7.8049,45.1641 0.824,6.6039 0.9153,11.8783 -0.1891,16.2201 -0.3637,1.4296 -1.1395,2.2964 -2.531,2.6252 -2.1306,0.5032 -3.9189,-0.2032 -5.4378,-1.2189 -2.1897,-1.4638 -4.5501,-3.7338 -7.3125,-5.4374 -5.4312,-3.3503 -11.5928,-3.7621 -18.2823,-1.9684 -6.6405,1.7807 -12.2913,6.8933 -18.5156,10.4071 0.4606,0.4179 1.0343,0.4335 1.6874,0.3399 1.4012,-0.2007 3.4288,-0.2083 6.4279,0.1814 1.7801,0.2313 3.5696,0.8598 5.2908,1.588 0.5746,0.2429 0.7467,0.5301 0.9377,1.2657 1.969,7.5761 9.9888,12.7593 22.1721,12.9381 3.7803,0.0556 7.0041,-0.6083 10.4544,-0.6783 2.3689,-0.0479 4.5471,0.451 6.7028,1.6172 6.7436,3.6473 10.9619,8.8846 12.284,16.0324 3.3692,18.2132 -1.3051,38.3358 -10.3584,59.2509 -0.6389,1.476 -0.9232,2.6561 -0.5624,4.3127 1.065,4.8849 2.2757,9.792 4.2559,14.5207 1.3785,3.2916 2.4288,6.4216 4.3246,9.5743 2.8219,4.6922 5.9434,8.2795 9.375,10.5001 1.6418,1.0622 1.6705,1.2923 -0.0938,1.5939 -3.1697,0.5423 -6.446,0.406 -10.1251,-1.125 -4.2205,-1.7567 -8.4379,-3.3665 -11.9064,-5.9063 -6.0171,-4.4056 -9.9243,-12.8956 -12.7499,-23.0627 -1.5693,-5.6472 -2.0631,-11.3607 -2.2377,-17.0274 -0.0952,-3.0949 -0.625,-6.1398 -2.0741,-9.3166 -2.8791,-6.3114 -7.2235,-11.2065 -12.9376,-15.0001 -0.7274,-0.4831 -1.1798,-0.2974 -0.75,0.5626 2.4902,4.9831 4.2026,10.0475 5.2616,15.4219 0.2234,1.135 -0.0107,1.1078 -1.0428,0.5157 -9.9176,-5.6917 -19.1262,-15.0628 -27.8433,-26.532 -0.2892,-0.3807 -0.6554,-0.451 -1.1251,0 -17.987,17.2672 -32.3805,34.8276 -30.3276,66.5614 -9.7506,-41.9082 4.117,-83.3034 33.8669,-117.4929 -23.6095,7.9687 -47.3048,30.4262 -60.5384,66.3979 -5.2761,-15.0418 -9.6616,-31.8646 -13.6873,-49.4068 0.25,-0.8124 0.5,-1.6251 0.75,-2.4375 24.7833,-28.6855 47.2484,-50.9119 68.5312,-69.8459 0.6095,-0.5627 0.4301,-1.2686 0.2812,-1.969 -4.6862,-22.0158 -10.5346,-46.3212 -10.4995,-58.5 0.0261,-9.0417 0.9751,-17.983 6.3321,-26.4892 z" />
      <path
         inkscape:connector-curvature="0"
         id="path3486"
         style="fill:#000000;fill-rule:evenodd"
         d="m 198.8164,289.4437 c 23.8768,12.1617 40.2338,26.7298 51.6101,42.8907 -13.6176,4.5468 -27.3756,9.8122 -39.5331,17.0456 5.2237,-7.0532 13.1754,-14.0241 21.8143,-20.1387 0.7393,-0.5233 1.1466,-1.2564 0.4688,-2.0625 -11.0452,-13.1369 -22.7778,-25.4781 -34.3601,-37.7351 z" />
      <path
         inkscape:connector-curvature="0"
         id="path3488"
         style="fill:#000000;fill-rule:evenodd"
         d="m 396.777,289.3711 c -18.5916,8.9303 -36.2532,21.6607 -51.8437,42.8443 12.6164,4.4169 25.4049,8.8483 39.4098,17.0515 -6.2051,-7.6833 -13.8107,-14.3413 -22.3013,-20.5197 -0.4292,-0.3121 -0.5307,-0.6769 -0.0468,-1.2189 11.3009,-12.6615 22.538,-25.4381 34.782,-38.1572 z" />
      <path
         inkscape:connector-curvature="0"
         id="path3490"
         style="fill:none"
         d="m 287.1283,122.2804 c 99.0179,-0.7322 186.4795,21.3945 257.4859,79.7343 C 533.2187,403.662 463.1723,580.9343 297.7702,718.5787 144.1239,596.4046 64.2881,422.5643 50.6424,202.39 113.4298,148.6171 192.3435,122.9814 287.1283,122.2804 Z" />
      <path
         inkscape:connector-curvature="0"
         id="path3492"
         style="fill:none"
         d="m 286.8987,113.8932 c 94.1253,-1.2424 191.0209,8.1043 292.3158,81.5633 C 560.9622,433.8462 460.1245,605.7088 297.8717,728.0974 95.7206,580.5448 29.3652,395.2236 16.0611,195.6436 100.8054,131.8629 192.1357,115.1442 286.8987,113.8932 Z" />
      <path
         inkscape:connector-curvature="0"
         id="path3494"
         style="fill:#ffffff;fill-rule:evenodd"
         d="M 105.6345,417.236 C 82.4678,348.8151 70.4514,279.7316 67.2874,210.979 c 70.6618,-59.4845 149.4604,-73.6501 231.1305,-74.0282 92.4367,-0.428 168.9534,23.118 229.3815,73.7569 -4.326,69.9747 -14.8575,140.1194 -37.5015,205.5946 -28.6172,82.747 -84.3185,179.7834 -141.7516,230.9046 -9.2072,24.4145 -28.0879,36.4288 -51.0945,36.468 -22.3027,0.038 -41.5672,-12.9184 -50.0646,-36.0003 C 181.6719,584.7761 135.8515,506.4792 105.6345,417.236 Z M 287.1283,122.2804 C 192.3435,122.9814 113.4298,148.6171 50.6424,202.39 64.2881,422.5643 144.1239,596.4046 297.7702,718.5787 463.1723,580.9343 533.2187,403.662 544.6142,202.0147 473.6078,143.6749 386.1462,121.5482 287.1283,122.2804 Z" />
      <path
         inkscape:connector-curvature="0"
         id="path3496"
         style="fill:#000000;fill-rule:evenodd"
         d="m 50.6424,202.39 c 62.7874,-53.7729 141.7011,-79.4086 236.4859,-80.1096 99.0179,-0.7322 186.4795,21.3945 257.4859,79.7343 C 533.2187,403.662 463.1723,580.9343 297.7702,718.5787 144.1239,596.4046 64.2881,422.5643 50.6424,202.39 Z m 236.2563,-88.4968 c -94.763,1.251 -186.0933,17.9697 -270.8376,81.7504 13.3041,199.58 79.6595,384.9012 281.8106,532.4538 C 460.1245,605.7088 560.9622,433.8462 579.2145,195.4565 477.9196,121.9975 381.024,112.6508 286.8987,113.8932 Z" />
      <path
         inkscape:connector-curvature="0"
         id="path3498"
         style="fill:#ffffff;fill-rule:evenodd"
         d="m 141.3377,194.7609 -34.7122,0 -0.3572,17.7862 c -0.4161,12.1626 -0.5848,16.3202 -1.7081,27.2934 l 7.6592,-0.0675 7.0228,0.0675 0.402,-17.7412 c 3.3939,-0.1128 6.5202,-0.1689 9.3897,-0.1689 1.6971,0 4.2874,0.0561 7.7933,0.1689 0,-2.3655 0.1228,-5.6322 0.3572,-9.7999 l -17.0045,0.0337 0.2568,-7.7723 20.3763,0.1012 c 0,-1.5545 0.1786,-4.8549 0.5247,-9.9011 z" />
      <path
         inkscape:connector-curvature="0"
         id="path3500"
         style="fill:#ffffff;fill-rule:evenodd"
         d="m 319.6505,171.8756 c -0.6157,-0.2999 -1.0681,-0.5505 -1.3623,-0.7577 -0.2889,-0.2069 -0.5723,-0.4632 -0.8447,-0.7574 -0.2727,-0.2999 -0.4961,-0.6321 -0.6758,-0.9918 -0.18,-0.3598 -0.3107,-0.7359 -0.3869,-1.1175 -0.0709,-0.3869 -0.1092,-0.7684 -0.1092,-1.15 0,-1.0355 0.2344,-1.9672 0.703,-2.7958 0.4689,-0.8283 1.1554,-1.5151 2.071,-2.0545 0.9156,-0.5341 1.8913,-0.9049 2.9375,-1.1064 1.0412,-0.2015 2.1365,-0.3053 3.2812,-0.3053 1.0953,0 2.158,0.1253 3.1773,0.3762 1.0191,0.2506 1.8967,0.6432 2.6215,1.1718 0.7302,0.5341 1.2642,1.1444 1.6021,1.8312 0.3436,0.6865 0.5125,1.5094 0.5125,2.4687 0,0.4578 -0.0436,0.8994 -0.1363,1.3243 -0.0873,0.4252 -0.2291,0.8175 -0.4195,1.1719 -0.1965,0.3597 -0.4252,0.6868 -0.7033,0.9864 -0.2778,0.2943 -0.572,0.5559 -0.8773,0.7793 -0.3107,0.2236 -0.8229,0.5179 -1.548,0.8776 0.6814,0.1908 1.199,0.3651 1.5587,0.5233 0.3651,0.1525 0.7141,0.3651 1.0466,0.6375 0.3325,0.2724 0.6213,0.5887 0.8611,0.9538 0.2399,0.3705 0.4088,0.7628 0.5177,1.1773 0.1034,0.4141 0.1581,0.8501 0.1581,1.3079 0,1.0627 -0.2616,2.082 -0.7795,3.052 -0.5233,0.9647 -1.2317,1.7439 -2.1308,2.3273 -0.8994,0.5884 -1.9403,1.008 -3.134,1.2696 -1.188,0.2616 -2.4032,0.3926 -3.6513,0.3926 -1.1883,0 -2.3326,-0.1145 -3.4336,-0.3489 -1.101,-0.2345 -2.082,-0.6268 -2.9429,-1.1773 -0.8612,-0.5448 -1.4879,-1.1934 -1.8803,-1.94 -0.3925,-0.7413 -0.5887,-1.5917 -0.5887,-2.5398 0,-0.5505 0.0709,-1.09 0.2126,-1.6079 0.1471,-0.5229 0.3651,-1.0136 0.6539,-1.4768 0.2943,-0.4632 0.6322,-0.8558 1.0137,-1.1665 0.3816,-0.316 0.7577,-0.5612 1.1228,-0.7356 0.3705,-0.1743 0.8884,-0.3761 1.5531,-0.5995 z m 5.2268,-6.6217 c -0.8393,0 -1.4989,0.2341 -1.9893,0.703 -0.485,0.4685 -0.7302,1.0409 -0.7302,1.722 0,0.4034 0.1034,0.7742 0.316,1.1174 0.2126,0.3379 0.5122,0.5885 0.8938,0.7575 0.3815,0.1635 0.7957,0.2454 1.237,0.2454 0.7739,0 1.4225,-0.2236 1.9403,-0.6757 0.5177,-0.4524 0.7793,-1.0412 0.7793,-1.766 0,-0.6375 -0.218,-1.1444 -0.6593,-1.5316 -0.4414,-0.3812 -1.0355,-0.572 -1.7876,-0.572 z m -0.3926,8.7636 c -0.9592,0 -1.7059,0.2398 -2.2399,0.7248 -0.5394,0.485 -0.8065,1.1064 -0.8065,1.8748 0,0.4414 0.1199,0.8558 0.3597,1.2427 0.2399,0.3813 0.5831,0.6702 1.0355,0.8666 0.4525,0.1962 0.9428,0.2942 1.4769,0.2942 0.5505,0 1.0519,-0.1034 1.5043,-0.316 0.4522,-0.2126 0.8119,-0.5287 1.0789,-0.9485 0.2673,-0.4195 0.398,-0.9045 0.398,-1.4443 0,-0.7248 -0.2452,-1.286 -0.7413,-1.6894 -0.4957,-0.4034 -1.1826,-0.6049 -2.0656,-0.6049 z" />
      <path
         inkscape:connector-curvature="0"
         id="path3502"
         style="fill:#ffffff;fill-rule:evenodd"
         d="m 149.3379,203.7529 c -1.2739,1.654 -2.277,3.4725 -3.0214,5.4184 -1.1064,2.8922 -1.6404,6.0662 -1.6404,9.4023 0,3.2947 0.466,6.3493 1.5766,9.0998 0.0181,0.0453 0.0368,0.0907 0.0533,0.1369 1.0919,2.6379 2.7822,4.994 5.2319,7.0106 0.0714,0.059 0.144,0.1177 0.2168,0.176 0.0652,0.0522 0.1307,0.1041 0.1962,0.1554 0.0201,0.0159 0.0402,0.0314 0.0604,0.0473 4.449,3.4651 9.5482,4.9782 14.9184,5.4034 5.0417,0.3989 10.3224,-0.161 15.5288,-0.9652 l 1.675,-10.7461 c -0.002,6e-4 -0.003,8e-4 -0.005,0.001 -2.355,0.618 -5.0134,1.2223 -7.6915,1.5596 -2.5059,0.3158 -5.029,0.3974 -7.3367,0.0369 -0.9034,-0.1412 -1.7736,-0.3501 -2.5971,-0.6392 -0.4861,-0.1707 -0.9558,-0.3694 -1.4062,-0.5984 -1.9645,-0.9995 -3.4884,-2.3894 -4.5434,-4.0856 -0.0148,-0.0238 -0.0295,-0.0476 -0.0454,-0.0709 -1.1194,-1.834 -1.6971,-4.0204 -1.6971,-6.4545 0,-2.1163 0.4283,-4.1541 1.2385,-5.9961 0.001,-0.003 0.003,-0.006 0.004,-0.01 0.5604,-1.2714 1.3028,-2.4489 2.2122,-3.4943 0.7534,-0.866 1.6211,-1.6413 2.5948,-2.3037 0.4845,-0.3297 0.9953,-0.6313 1.5313,-0.9023 0.985,-0.498 1.995,-0.8759 3.024,-1.1523 1.6019,-0.43 3.2505,-0.6145 4.9255,-0.6276 0.1698,0.002 0.3401,0.003 0.5105,0.005 3.3134,0.0484 6.7218,0.746 10.0692,1.5454 0.005,0.001 0.0108,0.003 0.0162,0.004 l -0.4691,-10.4757 c -4.7563,-0.8564 -8.7421,-1.2844 -11.9688,-1.2844 -3.4886,0 -6.9346,0.4158 -10.205,1.3742 -0.0331,0.008 -0.066,0.0179 -0.0989,0.0278 -3.2003,0.9479 -6.2308,2.4165 -8.9671,4.5232 -1.5015,1.156 -2.7958,2.4565 -3.8906,3.8781 z" />
      <path
         inkscape:connector-curvature="0"
         id="path3504"
         style="fill:#ffffff;fill-rule:evenodd"
         d="m 208.8558,214.488 c -0.3067,6.2413 -0.6536,12.2766 -0.8401,15.1132 -0.1676,2.7147 -0.4692,6.1166 -0.8822,10.2393 l 14.5593,0 0.7815,-20.4109 1.5407,-24.6687 -14.5591,0 0,2.8383 c 0,1.2869 -0.0368,3.003 -0.0989,4.9813 -0.1086,3.4506 -0.2945,7.6989 -0.4989,11.8593 -8e-4,0.0159 -0.002,0.032 -0.002,0.0482 z" />
      <path
         inkscape:connector-curvature="0"
         id="path3506"
         style="fill:#ffffff;fill-rule:evenodd"
         d="m 223.5013,216.0842 c 6.4982,10.487 11.1541,18.4056 13.9785,23.7563 l 15.0846,-0.0156 0.008,0 -0.009,0.0156 1.8649,0 -0.0147,-0.0215 13.6471,0.0215 c 2.0208,-4.6746 3.9745,-8.9552 5.8615,-12.8412 l 16.4687,0 c 1.8198,4.9223 3.204,9.2029 4.1644,12.8412 l 14.9499,0 -1.8978,-4.8212 -9.7248,-26.4824 -4.7676,-13.776 -16.9486,0 -3.9858,8.1552 -16.9039,32.171 -1.8657,3.2689 -12.6936,-18.521 -2.4227,-3.886 2.5905,-3.5371 13.8107,-17.651 -16.0886,0 -1.8309,2.8383 -5.9286,8.4033 -7.3469,10.0817 z" />
      <path
         inkscape:connector-curvature="0"
         id="path3508"
         style="fill:#e60000;fill-rule:evenodd"
         d="m 277.8749,217.402 10.1605,0 c -2.5347,-7.7612 -3.9191,-12.0416 -4.1646,-12.8302 -1.4293,3.233 -2.6462,5.8802 -3.6511,7.9526 l -2.3448,4.8776 z" />
      <path
         inkscape:connector-curvature="0"
         id="path3510"
         style="fill:#ffffff;fill-rule:evenodd"
         d="m 308.7128,194.7609 14.9612,26.9665 c 0,1.7572 -0.1448,4.7761 -0.4578,9.034 -0.3013,4.2693 -0.5581,7.2992 -0.7815,9.0791 l 14.3025,0 0.7033,-16.9639 c 0.0105,-0.2044 2.0695,-3.3741 4.8192,-7.5232 5.1596,-7.7862 12.7508,-19.0213 13.7987,-20.5846 0.002,-0.003 0.004,-0.005 0.005,-0.008 l -15.3853,0 c -0.6588,1.239 -1.7419,3.12 -3.2491,5.6432 -1.5185,2.512 -3.5283,6.0264 -6.0179,10.521 -0.9377,-2.4105 -2.1436,-5.159 -3.6397,-8.2343 -1.4964,-3.064 -2.6796,-5.711 -3.5507,-7.9299 l -15.5083,0 z" />
      <path
         inkscape:connector-curvature="0"
         id="path3512"
         style="fill:#ffffff;fill-rule:evenodd"
         d="m 357.1804,209.7085 c 0.3231,1.0772 0.8079,2.0472 1.4182,2.9512 0.4722,0.7083 1.0221,1.3759 1.6285,2.0242 1.2027,1.2855 2.6282,2.4956 4.1323,3.7882 l 6.2082,5.4181 c 0.3095,0.2727 0.612,0.5647 0.8861,0.87 0.1539,0.1718 0.299,0.3478 0.4311,0.5269 0.006,0.008 0.0119,0.0165 0.0179,0.0247 0.1471,0.2016 0.2775,0.4071 0.3861,0.6151 0.0898,0.1721 0.1646,0.3459 0.2213,0.5205 0.01,0.03 0.0193,0.0601 0.0281,0.0898 0.3285,1.0843 0.1389,1.9126 -0.3674,2.539 -1.1086,1.3723 -3.7355,1.7754 -5.7568,1.7754 -1.6161,0 -3.3191,-0.2328 -5.0466,-0.6421 -0.0626,-0.0116 -0.1244,-0.0264 -0.1865,-0.0414 -2.1336,-0.5164 -4.3024,-1.2943 -6.3898,-2.2226 0.3685,2.8046 0.7032,6.5443 0.9827,11.2192 0.001,3e-4 0.003,6e-4 0.005,9e-4 4.2188,0.8107 8.9076,1.5755 13.4044,1.5536 1.9695,-0.005 3.9022,-0.1635 5.7427,-0.534 2.35,-0.4731 4.5494,-1.2923 6.4829,-2.5863 1.9054,-1.2753 3.4024,-3.0827 4.3356,-5.1211 0.8949,-1.9556 1.271,-4.1236 0.9907,-6.2382 -0.0391,-0.2962 -0.0913,-0.5916 -0.1568,-0.885 -0.2058,-0.9235 -0.578,-1.8193 -1.0743,-2.6867 -0.6367,-1.1134 -1.4777,-2.1801 -2.4327,-3.1986 -0.9853,-1.0505 -2.092,-2.0497 -3.2216,-2.9959 -1.8249,-1.5287 -3.7091,-2.9188 -5.2364,-4.163 -0.2013,-0.1638 -0.3963,-0.3254 -0.5842,-0.4841 -0.4009,-0.3391 -0.83,-0.722 -1.2391,-1.1342 -0.7917,-0.7979 -1.5088,-1.7056 -1.8036,-2.6164 -0.366,-1.1313 -0.0797,-2.2674 1.527,-3.2028 0.0176,-0.0102 0.0351,-0.0204 0.053,-0.0306 1.0309,-0.5871 2.2921,-0.8725 3.6606,-0.944 0.006,-3e-4 0.012,-5e-4 0.0179,-8e-4 1.5409,-0.0783 3.217,0.1142 4.8529,0.4521 0.0145,0.003 0.0289,0.006 0.0434,0.008 2.0197,0.4215 3.9759,1.063 5.5378,1.6898 l -0.8485,-10.8136 c -0.0221,-0.004 -0.0442,-0.009 -0.0663,-0.0131 -3.8375,-0.7515 -7.8171,-1.2642 -11.639,-1.2699 -0.1217,-3e-4 -0.243,0 -0.3643,-10e-4 -1.8799,0.0156 -3.7193,0.1545 -5.4822,0.4507 -1.1835,0.199 -2.3227,0.5133 -3.3942,0.9348 -0.5477,0.2155 -1.0777,0.459 -1.5851,0.7322 -0.0888,0.0437 -0.1755,0.091 -0.2617,0.1389 -1.4578,0.8127 -2.7343,1.8513 -3.7502,3.0889 -1.5996,1.9494 -2.5535,4.3926 -2.5535,7.2256 0,1.169 0.1585,2.2215 0.4468,3.1878 z" />
      <path
         inkscape:connector-curvature="0"
         id="path3514"
         style="fill:#ffffff;fill-rule:evenodd"
         d="m 406.9429,202.9161 -16.9039,32.171 -2.7133,4.7534 15.4973,0 c 2.0208,-4.6746 3.9744,-8.9552 5.8615,-12.8412 l 16.4687,0 c 1.8198,4.9223 3.204,9.2029 4.1644,12.8412 l 14.9499,0 -1.8978,-4.8212 -9.7248,-26.4824 -4.7676,-13.776 -16.9486,0 -3.9858,8.1552 z" />
      <path
         inkscape:connector-curvature="0"
         id="path3516"
         style="fill:#ffffff;fill-rule:evenodd"
         d="m 449.7384,205.6082 c -0.1182,6.0202 -0.2951,11.4191 -0.5953,16.7491 -0.3195,5.6729 -0.779,11.268 -1.4556,17.4512 -10e-4,0.0107 -0.002,0.0212 -0.003,0.032 l 13.945,0 c 3e-4,-0.0238 6e-4,-0.0479 9e-4,-0.0717 0.051,-4.7069 0.163,-10.2016 0.3271,-15.7346 0.0329,-1.1035 0.0675,-2.2084 0.1074,-3.3091 0.1959,-5.942 0.4536,-11.7545 0.7592,-16.5025 0.003,0 0.006,0 0.009,-3e-4 0.0473,-8e-4 0.0952,-0.002 0.1431,-0.003 0.8229,-0.019 1.747,-0.057 2.7068,-0.0864 0.0176,-0.001 0.0352,-0.002 0.053,-0.002 0.7606,-0.0235 1.5426,-0.042 2.3142,-0.0428 0.3753,0.001 0.7478,0.006 1.1143,0.0161 1.4746,0.042 2.8477,0.1798 3.8764,0.5131 0.0476,0.0153 0.0944,0.0312 0.1409,0.0476 1.421,0.4981 2.2909,1.3887 2.7028,2.4415 0.4014,1.0253 0.3685,2.2042 -0.013,3.3234 -0.1454,0.4274 -0.3419,0.8461 -0.5842,1.2444 -0.0406,0.0663 -0.0822,0.1323 -0.1253,0.1975 -0.0675,0.1024 -0.1381,0.2016 -0.2115,0.2977 -0.5006,0.6539 -1.1392,1.1644 -1.8669,1.5551 -0.8887,0.4773 -1.9105,0.7758 -2.9769,0.9399 -1.9233,0.2963 -3.9918,0.1542 -5.6855,-0.1683 l 3.3721,9.3608 c 1.0159,2.8273 1.7975,5.0238 2.3108,6.5897 l 2.8474,9.3943 14.9944,0 c -0.5023,-1.239 -0.8484,-2.0614 -1.0496,-2.478 l -4.3764,-9.6874 -3.2381,-7.7724 c 2.1773,-0.856 3.8744,-1.701 5.0916,-2.5234 1.6492,-1.1194 2.8945,-2.5353 3.7633,-4.1504 1.0505,-1.9528 1.5511,-4.1973 1.5511,-6.5617 0,-2.1311 -0.4209,-4.0036 -1.2486,-5.5984 -0.2033,-0.392 -0.4315,-0.7676 -0.6832,-1.1265 -0.1205,-0.1695 -0.2458,-0.3353 -0.3764,-0.4978 -0.3665,-0.4549 -0.7762,-0.8796 -1.228,-1.2733 -1.1047,-0.9618 -2.463,-1.7376 -4.0674,-2.3179 -1.2351,-0.4464 -2.7678,-0.7514 -4.4547,-0.9575 -0.0575,-0.004 -0.1148,-0.0108 -0.1723,-0.0176 -4.3234,-0.5 -9.6166,-0.3489 -13.5091,-0.2041 -0.381,0.0142 -0.7489,0.0284 -1.101,0.0417 l -12.9739,0.0451 c 0,2.6807 -0.0447,6.2965 -0.134,10.8473 z" />
      <path
         inkscape:connector-curvature="0"
         id="path3518"
         style="fill:#e60000;fill-rule:evenodd"
         d="m 414.9816,212.5244 -2.3448,4.8776 10.1605,0 c -2.5347,-7.7612 -3.9192,-12.0416 -4.1646,-12.8302 -1.4293,3.233 -2.6462,5.8802 -3.6511,7.9526 z" />
      <path
         inkscape:connector-curvature="0"
         id="path3520"
         style="fill:#ffffff;fill-rule:evenodd"
         d="m 265.4994,176.6171 0.6866,-11.821 0.316,-3.5643 c -1.2262,0.0216 -2.425,0.0326 -3.6022,0.0326 -1.2373,0 -2.3273,-0.011 -3.2755,-0.0326 l -0.6922,0.5394 -3.0957,1.9129 -0.256,5.8861 3.5643,-2.4415 -0.883,15.914 7.0796,0 0.1581,-6.4256 z" />
      <path
         inkscape:connector-curvature="0"
         id="path3522"
         style="fill:#ffffff;fill-rule:evenodd"
         d="m 273.2111,171.7121 c 0.4498,1.1432 1.2393,2.0154 2.2022,2.6217 0.8,0.504 1.7195,0.8241 2.6635,0.9638 0.6641,0.0984 1.3407,0.1074 1.9958,0.0278 1.0466,-1.6132 2.0821,-3.1391 3.1065,-4.578 -0.5014,0.1092 -0.8937,0.1636 -1.1662,0.1636 -0.6652,0 -1.2702,-0.1806 -1.7345,-0.5204 -0.5678,-0.4156 -0.9252,-1.069 -0.9252,-1.9214 0,-1.4244 0.9025,-2.3958 1.9786,-2.7708 0.7424,-0.2588 1.5675,-0.2336 2.2357,0.123 0.5706,0.3047 1.027,0.8512 1.2186,1.6693 0.1128,0.4808 0.1343,1.0553 0.0343,1.7297 -0.0207,0.1378 -0.0462,0.2798 -0.0771,0.4261 -0.0111,0.053 -0.0233,0.1063 -0.036,0.1601 -0.1114,0.4697 -0.2824,0.972 -0.5035,1.4967 -0.0215,0.0584 -0.0462,0.1162 -0.0711,0.1743 -0.4813,1.1146 -1.1687,2.3278 -1.957,3.555 -1.9302,3.0041 -4.4649,6.0908 -6.0597,8.0101 l 8.3058,0 c 1.0012,-1.3751 1.984,-2.7357 2.8775,-4.0876 0.0419,-0.0598 0.0819,-0.1204 0.1219,-0.1814 0.7064,-1.0749 1.3549,-2.1438 1.9111,-3.2085 0.1366,-0.2614 0.271,-0.5247 0.4022,-0.7897 0.9811,-1.9817 1.779,-4.0609 1.8629,-6.1662 0.044,-1.0985 -0.1065,-2.204 -0.5266,-3.3064 -0.0975,-0.2557 -0.2067,-0.4997 -0.3277,-0.7322 -0.3473,-0.6681 -0.79,-1.2407 -1.3235,-1.7203 -0.0272,-0.0261 -0.0556,-0.051 -0.0842,-0.0757 -0.754,-0.6545 -1.6812,-1.1313 -2.7663,-1.4394 -0.6812,-0.1933 -1.4037,-0.3337 -2.147,-0.4176 -1.5426,-0.1746 -3.1742,-0.1066 -4.7098,0.2311 -1.4091,0.3095 -2.7371,0.8461 -3.8415,1.6307 -1.4488,1.0293 -2.4406,2.5447 -2.8899,4.2024 -0.3705,1.3666 -0.3716,2.8301 0.0445,4.1967 0.0547,0.1797 0.1165,0.3577 0.1857,0.5335 z" />
      <path
         inkscape:connector-curvature="0"
         id="path3524"
         style="fill:#ffffff;fill-rule:evenodd"
         d="m 297.8016,165.8205 c -1.1942,1.9046 -2.2595,3.7222 -2.9732,5.5942 -0.3799,0.9967 -0.6602,2.0084 -0.807,3.0572 -0.0763,0.5425 -0.1165,1.095 -0.1165,1.6602 0,1.4763 0.3495,2.7097 0.9646,3.7168 0.0139,0.0275 0.03,0.0536 0.0465,0.0797 1.5392,2.4471 4.6536,3.5393 8.0685,3.5393 0.5797,0 1.1696,-0.0332 1.7564,-0.1012 0.2347,-0.0275 0.4688,-0.0604 0.7015,-0.1006 0.1208,-0.0184 0.2413,-0.0403 0.3609,-0.0632 0.5164,-0.1001 1.0241,-0.2294 1.5131,-0.3895 0.142,-0.0462 0.2821,-0.0953 0.4207,-0.1468 1.1075,-0.4128 2.0591,-1.0673 2.823,-1.8876 1.3507,-1.4505 2.1146,-3.4183 2.1146,-5.4808 0,-1.5631 -0.3617,-2.8423 -1.0048,-3.8311 -0.4953,-0.7611 -1.1577,-1.3498 -1.9491,-1.7659 -0.0516,-0.0233 -0.1024,-0.0488 -0.1534,-0.0735 -0.902,-0.4356 -1.9633,-0.6531 -3.1331,-0.646 -0.313,-3e-4 -0.6339,0.017 -0.9615,0.0505 -0.2019,0.0207 -0.4065,0.0473 -0.6135,0.0802 l -2.6813,4.4473 c 0.3813,-0.0437 0.6702,-0.0655 0.8609,-0.0655 0.6531,0 1.4046,0.2027 1.9647,0.6557 0.4924,0.3982 0.8368,0.9901 0.8368,1.8079 0,0.7132 -0.1857,1.2841 -0.4853,1.7201 -0.3614,0.5258 -0.8889,0.8557 -1.4567,1.0029 -0.5862,0.1519 -1.2158,0.1094 -1.7507,-0.1137 -0.1366,-0.057 -0.2673,-0.1259 -0.3895,-0.2061 -0.0912,-0.0601 -0.1766,-0.1239 -0.2559,-0.1913 -0.003,-0.002 -0.005,-0.004 -0.007,-0.006 -0.5094,-0.4357 -0.7795,-1.0162 -0.8878,-1.6531 -0.1012,-0.5967 -0.0607,-1.2427 0.0558,-1.8661 0.0953,-0.4827 0.235,-0.9519 0.3923,-1.3734 0.127,-0.3401 0.2603,-0.6735 0.3994,-1.0009 0.001,-0.003 0.003,-0.006 0.004,-0.01 0.8345,-1.9593 1.8845,-3.7012 3.1003,-5.3858 0.9657,-1.3383 2.0367,-2.6405 3.1875,-3.987 0.4638,-0.5431 0.9408,-1.093 1.4293,-1.6557 l -8.1749,0 c -1.0845,1.3842 -2.1475,2.9157 -3.1992,4.5887 z" />
      <path
         inkscape:connector-curvature="0"
         id="path3526"
         style="fill:#ffffff;fill-rule:evenodd"
         d="m 316.2716,167.1012 c 0,1.3371 0.3694,2.3199 1.035,3.1011 0.045,0.053 0.0915,0.1049 0.1369,0.1582 0.5643,0.599 1.3116,1.0789 2.207,1.5151 -0.6647,0.2234 -1.1826,0.4252 -1.5531,0.5995 -0.4909,0.2328 -0.9283,0.5364 -1.3068,0.8947 -1.0927,1.0349 -1.6962,2.5268 -1.6962,4.0921 0,2.0525 0.9796,3.5104 2.469,4.4798 0.678,0.436 1.4598,0.7733 2.3028,1.0194 1.8068,0.5272 3.8963,0.6346 5.8383,0.4175 1.9771,-0.2214 3.8021,-0.7789 5.0207,-1.5729 1.131,-0.737 2.0021,-1.8559 2.4877,-3.1065 0.445,-1.1472 0.5658,-2.4052 0.2645,-3.5807 -0.2481,-0.9675 -0.7376,-1.6393 -1.3788,-2.1311 -0.0179,-0.0165 -0.0372,-0.0312 -0.0567,-0.0457 -0.7121,-0.5303 -1.6019,-0.8501 -2.5486,-1.1151 0.7979,-0.3957 1.5244,-0.8178 2.1172,-1.3502 0.5473,-0.4918 0.9802,-1.0777 1.2495,-1.8241 0.0728,-0.2015 0.1335,-0.4147 0.1814,-0.6409 0.0173,-0.0819 0.0332,-0.1632 0.0476,-0.2437 0.1783,-1.0018 0.1298,-1.9171 -0.1134,-2.7298 -0.3217,-1.0741 -0.9839,-1.9695 -1.9125,-2.6507 -0.7243,-0.5255 -1.609,-0.9227 -2.6215,-1.1718 -0.7087,-0.1744 -1.5083,-0.2963 -2.3505,-0.3521 -1.3263,-0.0879 -2.7587,-0.0125 -4.108,0.2812 -0.0303,0.005 -0.0603,0.0111 -0.0904,0.0179 -1.9581,0.4382 -3.7329,1.3365 -4.7438,2.8567 -0.0615,0.0927 -0.1204,0.188 -0.1743,0.2863 -0.447,0.7756 -0.703,1.7017 -0.703,2.7958 z" />
      <path
         inkscape:connector-curvature="0"
         id="path3528"
         style="fill:#ffffff;fill-rule:evenodd"
         d="m 215.6468,266.0797 0.8629,-13.9108 -4.4901,0 -0.5162,10.4661 c -0.0723,0.9664 -0.1879,2.1135 -0.3472,3.4447 l 4.4906,0 z" />
      <path
         inkscape:connector-curvature="0"
         id="path3530"
         style="fill:#e60000;fill-rule:evenodd"
         d="m 326.5503,174.6224 c -0.4957,-0.4034 -1.1826,-0.6049 -2.0656,-0.6049 -0.9592,0 -1.7059,0.2398 -2.2399,0.7248 -0.5394,0.485 -0.8065,1.1064 -0.8065,1.8748 0,0.4414 0.1199,0.8558 0.3597,1.2427 0.2399,0.3813 0.5831,0.6702 1.0355,0.8666 0.4525,0.1962 0.9428,0.2942 1.4769,0.2942 0.5505,0 1.0519,-0.1034 1.5043,-0.316 0.4522,-0.2126 0.8119,-0.5287 1.0789,-0.9485 0.2673,-0.4195 0.398,-0.9045 0.398,-1.4443 0,-0.7248 -0.2452,-1.286 -0.7413,-1.6894 z" />
      <path
         inkscape:connector-curvature="0"
         id="path3532"
         style="fill:#e60000;fill-rule:evenodd"
         d="m 324.6046,169.7992 c 0.7739,0 1.4225,-0.2236 1.9403,-0.6757 0.5177,-0.4524 0.7793,-1.0412 0.7793,-1.766 0,-0.6375 -0.218,-1.1444 -0.6593,-1.5316 -0.4414,-0.3812 -1.0355,-0.572 -1.7876,-0.572 -0.8393,0 -1.4989,0.2341 -1.9893,0.703 -0.485,0.4685 -0.7302,1.0409 -0.7302,1.722 0,0.4034 0.1034,0.7742 0.316,1.1174 0.2126,0.3379 0.5122,0.5885 0.8938,0.7575 0.3815,0.1635 0.7957,0.2454 1.237,0.2454 z" />
      <path
         inkscape:connector-curvature="0"
         id="path3534"
         style="fill:#ffffff;fill-rule:evenodd"
         d="m 216.2784,258.728 7.0852,7.3517 5.2718,0 -7.7797,-7.3933 7.5433,-6.5175 -4.9385,0 -1.0468,1.029 -2.9279,2.6833 -3.2074,2.8468 z" />
      <path
         inkscape:connector-curvature="0"
         id="path3536"
         style="fill:#ffffff;fill-rule:evenodd"
         d="m 235.0358,260.2193 -0.5593,5.8604 4.4084,0 0.3085,-5.652 7.7269,-8.2588 -4.7126,0 -4.8183,5.6764 -1.7762,-2.5585 -2.1643,-3.1179 -4.7605,0 6.3474,8.0504 z" />
      <path
         inkscape:connector-curvature="0"
         id="path3538"
         style="fill:#ffffff;fill-rule:evenodd"
         d="m 257.6327,254.2754 -9.1207,7.9251 -1.8666,1.5678 c -0.01,0.6151 -0.0579,1.3833 -0.1446,2.3114 l 15.4874,0 c 0.0192,-0.5457 0.0623,-1.2966 0.14,-2.2524 l -10.2835,0.1043 4.4231,-3.8061 6.5546,-5.6764 c 0.0193,-0.7786 0.0677,-1.5363 0.1448,-2.2802 l -15.1208,0 -0.0723,2.1898 9.8586,-0.0833 z" />
      <path
         inkscape:connector-curvature="0"
         id="path3540"
         style="fill:#ffffff;fill-rule:evenodd"
         d="m 263.5798,252.1689 6.3473,8.0504 -0.5592,5.8604 4.4084,0 0.3084,-5.652 7.727,-8.2588 -4.7126,0 -4.8183,5.6764 -1.7762,-2.5585 -2.1643,-3.1179 -4.7605,0 z" />
      <path
         inkscape:connector-curvature="0"
         id="path3542"
         style="fill:#ffffff;fill-rule:evenodd"
         d="m 282.9787,259.2459 c -0.1596,2.384 -0.381,4.754 -0.6607,6.8338 l 13.4566,0 c 0.0677,-0.8133 0.1448,-1.5503 0.2313,-2.2212 l -9.0431,0.0521 0.7957,-11.7417 -4.4904,0 c -0.0116,0.889 -0.0348,1.8253 -0.0694,2.7885 -0.0476,1.3263 -0.1168,2.7037 -0.2064,4.079 -0.005,0.0698 -0.009,0.1398 -0.0136,0.2095 z" />
      <path
         inkscape:connector-curvature="0"
         id="path3544"
         style="fill:#ffffff;fill-rule:evenodd"
         d="m 298.048,256.9164 c -0.6288,1.4358 -0.7209,2.9682 -0.2586,4.3554 0.408,1.2232 1.2467,2.333 2.5291,3.1638 0.9369,0.6103 2.0549,1.0556 3.2607,1.3606 0.1069,0.0269 0.214,0.0527 0.3226,0.0749 1.1225,0.2602 2.3131,0.4008 3.4994,0.4427 0.2812,0.01 0.5621,0.0145 0.8419,0.0162 1.6205,-0.008 3.2003,-0.1899 4.553,-0.5006 2.3757,-0.546 4.4725,-1.709 5.6429,-3.5263 0.6236,-0.9683 0.9842,-2.122 0.9842,-3.4674 0,-1.1247 -0.2636,-2.0888 -0.7623,-2.923 -0.5136,-0.8595 -1.2767,-1.5809 -2.2572,-2.1969 -0.0218,-0.0136 -0.0436,-0.0272 -0.0657,-0.0408 -0.003,-0.002 -0.006,-0.003 -0.009,-0.005 -1.5057,-0.9213 -3.6348,-1.4947 -5.9201,-1.6773 -2.3771,-0.1899 -4.9227,0.0437 -7.1099,0.7495 -2.198,0.7093 -4.034,1.8956 -4.9731,3.6088 -0.1023,0.1865 -0.195,0.3753 -0.2783,0.5658 z" />
      <path
         inkscape:connector-curvature="0"
         id="path3546"
         style="fill:#ffffff;fill-rule:evenodd"
         d="m 327.7718,258.4054 c -10e-4,-2e-4 -0.003,-2e-4 -0.004,-5e-4 l 0.004,5e-4 z m -5.0397,0.6945 c -0.1409,2.4789 -0.3524,4.9592 -0.6319,6.9798 l 4.3169,0 0.2653,-7.6402 0.2509,-4.1848 4.4949,0.0519 c 1.1956,0.1102 1.9312,0.5728 2.2172,1.1667 0.2733,0.5672 0.1361,1.254 -0.4022,1.8675 -0.005,0.006 -0.0105,0.0119 -0.0159,0.0178 -0.1063,0.1194 -0.225,0.2274 -0.354,0.3251 -0.0193,0.0145 -0.0388,0.029 -0.0584,0.0431 -0.6026,0.432 -1.4162,0.6523 -2.2669,0.7438 -0.9612,0.1032 -1.97,0.0417 -2.7762,-0.0652 l 2.3879,3.5065 2.5325,4.1678 4.6882,0 c -0.3765,-0.525 -0.6032,-0.8343 -0.6803,-0.9281 l -4.1528,-5.4538 2.7828,-0.6883 c 0.064,-0.0261 0.127,-0.053 0.1888,-0.0813 0.2199,-0.1004 0.4277,-0.2152 0.6216,-0.3419 0.0587,-0.0383 0.1159,-0.0777 0.1738,-0.1154 0.657,-0.4776 1.142,-1.0975 1.4034,-1.7623 0.01,-0.0351 0.0224,-0.0691 0.0343,-0.1032 0.3008,-0.8588 0.2251,-1.7855 -0.3379,-2.5732 -0.4612,-0.6455 -1.1509,-1.0724 -1.9457,-1.3544 -0.6338,-0.2251 -1.3343,-0.3583 -2.0392,-0.4371 -0.957,-0.1069 -1.9219,-0.1134 -2.7389,-0.1134 l -1.1341,0.006 -6.6118,0.0354 c 0,2.0081 -0.0715,4.4691 -0.2123,6.931 z" />
      <path
         inkscape:connector-curvature="0"
         id="path3548"
         style="fill:#e60000;fill-rule:evenodd"
         d="m 311.2963,254.4284 c -0.8201,-0.212 -1.6835,-0.3197 -2.5855,-0.3197 -1.4227,0 -2.6578,0.2361 -3.7092,0.7089 -1.0513,0.4729 -1.847,1.1194 -2.3777,1.9361 -0.5306,0.8203 -0.7956,1.7033 -0.7956,2.6558 0,0.8827 0.2556,1.6962 0.7664,2.4434 0.5162,0.7439 1.3026,1.3105 2.3636,1.6997 1.0613,0.3929 2.209,0.5876 3.439,0.5876 0.9311,0 1.8232,-0.1148 2.6671,-0.3478 0.8441,-0.2293 1.5775,-0.5802 2.1946,-1.0531 0.6128,-0.4728 1.0757,-1.0428 1.3892,-1.7101 0.3087,-0.6639 0.4629,-1.3592 0.4629,-2.0786 0,-0.671 -0.14,-1.3173 -0.4144,-1.9361 -0.2801,-0.6188 -0.7092,-1.1506 -1.2929,-1.5956 -0.5839,-0.4448 -1.2832,-0.775 -2.1075,-0.9905 z" />
      <path
         inkscape:connector-curvature="0"
         id="path3550"
         style="fill:#ffffff;fill-rule:evenodd"
         d="m 341.06,258.099 -0.2843,4.4351 -0.3909,3.5456 7.5098,0 c 1.571,0.003 3.1298,-0.0386 4.6012,-0.2954 0.002,-3e-4 0.003,-6e-4 0.005,-6e-4 1.3181,-0.2304 2.5662,-0.6335 3.6898,-1.3308 1.239,-0.7688 2.1733,-1.8516 2.7386,-3.0801 0.6551,-1.4236 0.8141,-3.0428 0.3761,-4.5953 -0.007,-0.0264 -0.015,-0.053 -0.0229,-0.0794 -0.002,-0.007 -0.004,-0.013 -0.006,-0.0195 -0.5352,-1.7912 -1.6781,-2.8843 -3.1,-3.5479 -1.224,-0.5711 -2.6549,-0.8243 -4.0835,-0.9311 -0.7577,-0.0567 -1.5149,-0.0723 -2.24,-0.0723 l -1.0854,0.005 -7.5047,0.0362 -0.2027,5.9301 z" />
      <path
         inkscape:connector-curvature="0"
         id="path3552"
         style="fill:#ffffff;fill-rule:evenodd"
         d="m 366.821,256.2951 -7.1674,9.7846 4.7653,0 c 1.0418,-1.679 2.1124,-3.3265 3.2171,-4.9428 l 7.4327,0 2.3102,4.9428 4.5871,0 -7.0274,-13.9108 -5.2333,0 c -0.7623,1.1611 -1.7221,2.5376 -2.8843,4.1262 z" />
      <path
         inkscape:connector-curvature="0"
         id="path3554"
         style="fill:#e60000;fill-rule:evenodd"
         d="m 345.3046,254.2963 -0.5836,9.5936 c 0.7716,0.0278 1.5386,0.0417 2.2909,0.0417 0.8584,0 1.6546,-0.0312 2.3826,-0.0938 0.7333,-0.0593 1.36,-0.1565 1.8907,-0.2886 0.5261,-0.1321 1.0564,-0.3651 1.5919,-0.6951 0.5306,-0.3339 0.9692,-0.716 1.3071,-1.1542 0.3376,-0.438 0.5978,-0.9244 0.7764,-1.4599 0.1785,-0.5351 0.2701,-1.0808 0.2701,-1.6336 0,-1.0185 -0.2409,-1.8527 -0.7237,-2.5061 -0.4773,-0.6534 -1.114,-1.1262 -1.9,-1.4114 -0.7864,-0.2882 -2.0019,-0.4342 -3.6417,-0.4342 -1.0658,0 -2.2859,0.0139 -3.6607,0.0416 z" />
      <path
         inkscape:connector-curvature="0"
         id="path3556"
         style="fill:#e60000;fill-rule:evenodd"
         d="m 370.9352,256.017 -2.0449,2.9925 5.4113,0 -2.2235,-4.7029 -1.1429,1.7104 z" />
    </g>
  </g>
</svg>
