<?xml version="1.0" encoding="UTF-8" standalone="no"?>
<svg id="svg105" height="250.29199" viewBox="0 0 298.4998 187.71898" width="397.99976" xmlns="http://www.w3.org/2000/svg">
   <g id="surface32" transform="matrix(.69660993 0 0 .69660993 -48.962438 -106.38739)">
      <path id="path2" d="m407.74609 237.77344c-1.03906-.40625-4.82812-2.27735-7.84375-3.77344v-.008c3.75.35937 8.61328.82031 10.29688.96484 0 0 1.0625.25 1.0625 1.97266 0 2.40625-2.07813 1.40625-3.51563.84375m-.42187 14.43359c0 0-13.90235-8.79297-15.95703-10.36328 1.0039-4.61328 1.85937-10.34375 2.49609-16.33203h.004l1.28515 8.02734c0 0 .3711.0352.98828.0937-1.39453 2.35156-3.11718 7.41016-1.47265 8.39063 13 7.30859 12.65625 9 12.65625 10.18359m-24.76953 49.875c-6.875-.53906-13.33594 1.25-16.08594 8.66797-2.75 7.41406 1.83594 17.16797 1.83594 17.16797l6.16797 16.76953c0 0-.45704 1.33203-1.5 2.5625-12.125-3.16406-28.77735-10.77734-28.77735-10.77734 10.35156-11.46875 16.78516-21.61719 31.83203-49.51563 3.35157 2.62891 7.60938 3.84375 10.52735 2.71094 1.125 1.125 7.64453 2.69531 9.41406 2.69531.75 6.66797 1.98047 8.87109 4.39844 12.28906-2.91797-.75-10.625-2.00781-17.8125-2.57031m3.39062-43.10547l6.19141 8.73047c0 0-5.11328.82813-9.19531 1.49219 1.20312-2.90235 3.0039-10.22266 3.0039-10.22266m-177.69922 81.12891c-1.03906-18.66797-11.52343-28.6875-22.10937-35.85547-9.44141-6.39453-24.41797-9.58203-24.41797-9.58203.73047-6.89844.29297-10.21094.29297-10.21094l12-8.75c0 0 2.21875-1.41797 5.38281-2.94531 3.06641 8.21094 8.34375 20.1875 14.86328 31.3789 8.27344 14.21094 18.69141 27.79297 22.21485 31.92188 0 0-6.64063 3.29297-8.22657 4.04297m-53.95703-92.78516c-.68359-2.50781-.2539-3.17969.0391-3.46875.39063 0 3.23438.8711 6.5.60938l.004.0117c-3.37891 1.47265-6.34766 2.76562-6.54297 2.84765m10.39844-7.68359c.61719 0 1.45312-1.58203.82422-2.44922.89453-.23047 1.25-1.1875.91797-2.60547 3.07031 0 1.29687-4.82422 1.29687-4.82422l-1.74219-4.19922c1.4336-3.28515 1.21485-8.85156 1.21485-8.85156 0 0 .3164 8.75 3.14453 23.50391 0 0-2.48438 1.19531-6.04297 2.75l-.0117-.0508c.60938-1.1211.5625-2.61719.39844-3.27344m10.36328 20.67969c-2.16797.30078-6.47656 7.10156-6.47656 7.10156 0 0-.46094.625-2.77344 1.46875 1.125-3.5-.71094-9.57031-.71094-9.57031l7.75782-6.6836c0 0 1.30468 4.83985 2.20312 7.6836m314.64844 31.51953c2.05859-.21485 4.60547.33984 6.9375.87109-2.96094-17.66406-22.8086-11.51953-24.09375-11.0625 0-2.79297 3.47265-6.04687 4.875-7.77344-13.03125-1.12109-18 7.75-19.39844 14.9961-1.1875 6.17578 2.69922 12.21875 5.78516 19.09375 3.08203 6.875 2.20703 14.16406 1.91406 15.33203-2.19141 5.41406-7.28516 4.07031-10.20703 2.79297-3.04297-1.33594-8.04297-4.62891-14.47656-10.47657-3.27344-2.98046-5.44532-6.02734-6.30079-8.30078-.86718-2.30468-.33984-6.72656-.22265-8.22265.20703-2.71094 1.92969-6.81641 8.70703-14.08594 6.875-7.36719 7.60156-12.14453 7.83203-12.85547.51953 2.08594.58594 5.98438.58594 5.98438 0 0 .91797.20312 2.08203.49609 7.71094-9.125 7.33594-23.66797 7-26.83203h1.125c6.26929-14.81222-4.69946-26.09347-5.84399-27.238l1.16797-1.5c-3.25-19.25-29.15625-15.9375-31.71875-15.84766-.625 2.84766-4.53125 3.67969-6.03125 3.83594-1.5.15625-5.375-.25-7.28125 2.125-1.90625 2.375-4.25 3.20703-4.25 3.20703l-10.40625 1.625-3.38281 5.28906-.0117-.004c1.23047-12.78125 1.43359-26.25782-.0742-32.36719-10.17188-7.00391-46.96094-36.04297-113.875-36.04297-66.91797 0-107.47266 32.92187-112.25 36.25-.56641 3-1.375 14.64844-.875 22.52344-.33594-5.30078-4.53125-10.28125-13.90625-11.78125 0 0-9.37891.0781-12.78125.55078-6.81641.95312-10.42578 2.82422-12.28125 4.13672-2.78125 1.96875-4.03125 4.84375-9.78125 8.65234-8.03125 4.25-9.25 11.19141-9 15.25-2.23828 4.66016-4.25 11.08594-4.25 16.21094 0 0 1.6875-.39453 3.875-.39453-.75.75-6.07813 5.39843-16.621095 11.39843 8.031255 3.19922 16.613285 1.69922 18.238285 1.07422-2.51172 6.07422-.57813 12.19141.73437 14.31641 1.08203-3.1875 5.3125-9.51953 7.09375-10.97266 0 0 .47266 5.41016 4.01172 12.99219 2.23047 4.77734 10.16797 17.125 10.16797 17.125l.20703 3.14844c0 0-6.68359 4.35156-7.16406 15.0625-.48047 10.66797 3.35937 15.89453 9.01953 20.22656 5.95703 4.5625 17.21484 6.54688 20.3164 7.82813 2.69141 1.14843 6.21485 2.9375 5.70313 5.23437-.4375 1.96094-4.375 2.04297-12.28906 1.08594-8.59766-1.04297-20.96094-9.16797-24.5-13.54297-13.58594-16.66406-5.82422-31.59766-4.08594-36.83203-18.25 2.60156-18.45312 20.77344-17.55859 25.875-.4375 0-8.59766-.29297-16.855472 5.72656-8.902344 6.48828-13.132813 13.98438-12.851563 20.07813 2.4375-2.6875 11.089844-6.64844 17.546875-7.83594 12.875-2.40235 16.57422 3.25781 18.94922 5.00781 2.375 1.75 5.47656 5.97266 17.25 15.625 11.8125 9.6875 26.42969 17.30859 38 17.87891 0 0-3.58985 1.13672-9.42188 3.33593 19.45313 15.78907 40.4336 8.91407 49.5 5.78907 2.57813 10.53125 6.22266 18.26953 10 24.94922.96485 1.59375 2.66797 5.84375 3.95313 7.67578 3 .875 10.5 3.34375 37.64062-1.70313 7.56641-1.40625 17.02344-3.46484 26.59766-3.46484 9.57422 0 15.44531 2.0664 25.12891 3.89453 10.59375 2 23.82031 4.08594 35.1875 1.78516 1.26562-1.49219 2.25781-3.15235 3.75781-7.19922 6.16797-10.59766 8.97656-19.47266 10.66015-25.79297 33.58985 10.10547 43.59766-1.5 49.44141-6.53125-14.50781-2.96875-20.09375-8.92969-22.26953-11.48828 2.05859-1.33985 6.47266-4.56641 10.58984-11.17188 3.80078-6.10156 6.51563-9.60937 6.04688-14.33203-4.03125 4.03125-9 5.5625-14 6 .625-2.1875 3.61328-5.74609 3.61328-5.74609 0 0-1.61328-5.37891-2.80078-9.69141 7.625 5.375 14.73047 5.29297 18.89453 5.29297 3.23828 10.5625 10.40234 16.15234 18.51562 19.375 8.375 3.12109 15.58985 5.19531 17.91797 5.8125-1.125 1.125-4.0625 2.52344-10.01562 4.83203-6.4375 2.5-8.25 9.3125-8.25 9.3125h28.8125c2.1875-9.5 6.9375-10.875 9.3125-10.875 0 0 1.1875-8 1.5-12.75-15.24219-3.91797-21.46094-6.16406-24.03125-10.875-2.25391-4.4375-.0391-8.91797.71875-11.1875 9.3125 6.4375 14.62109 8.69141 25.4375 8.0625 13.35547-.77344 12.92578-12.375 12.92578-12.375l-2.34375.75c3.08594-11.5-2.43359-21-3.75-25.08203-1.28906-4 1.05078-3.26563 4.75391-3.54297 8.95703-.66406 10.99609 3.37891 13.95703 5.75391 4.89453-8.3125-.87891-13.35547-2.48047-13.75" fill="#fff" fill-rule="evenodd"/>
      <path id="path4" d="m172.46484 193.69141c0 0 41.22657-33.6875 108.40625-33.6875 67.17578 0 108.58985 33.66406 108.58985 33.66406 0 0 17.8164 104.22656-108.61719 195.82422-127.81641-91.59766-108.37891-195.80078-108.37891-195.80078" fill="#fff"/>
      <path id="path6" d="m174.23828 195.01172c-.0977.65625-.22266 1.64453-.35547 2.9375-.25781 2.58594-.51562 6.40234-.51562 11.26172.0391 31.83203 11.05468 108.1914 107.46875 177.86328 97.02734-70.88281 107.48828-148.73828 107.52734-179.53516 0-6.53125-.47656-10.93359-.70703-12.6914-.008-.0391-.0117-.082-.0195-.11719-.29688-.23047-.71094-.53906-1.24219-.92578-1.23047-.90235-3.07812-2.19532-5.51172-3.75-4.85937-3.10938-12.05078-7.26953-21.32812-11.4336-18.55078-8.32422-45.42578-16.66015-78.6836-16.66015-58.19531-.004-96.73828 25.55859-105.34765 31.85937-.53907.39453-.94922.70703-1.25.9375-.008.0781-.0234.16016-.0352.25391m105.46485 196.07031c-98.54687-70.58203-110.29296-149.03516-110.2539-181.87109 0-9.9961 1.07031-15.78125 1.09375-15.87891l.1289-.70312.55079-.45313c.19531-.15234 41.78906-34.11328 109.64843-34.125 67.85547.0117 109.63282 33.94922 109.82813 34.09375l.5664.46484.125.72657c.0156.0937.89063 5.23828.89063 14.20312.0352 31.77735-11.10938 111.72266-110.28906 183.53516l-1.14453.83203zm0 0" fill="#19191e"/>
      <path id="path8" d="m184.47656 201.10156c0 0 35.44141-29.71484 96.39453-29.71484 60.95313 0 96.1836 29.76953 96.1836 29.76953 0 0 13.51172 91.89062-96.1836 172.83203-110.02343-80.10937-96.39453-172.88672-96.39453-172.88672" fill="#b81151"/>
      <path id="path10" d="m180.32422 201.89453c-.24219 2.4375-.48828 6.01953-.48828 10.58203.0195 29.90625 10.46093 101.62891 101.0039 166.80078 91.125-66.30859 101.03516-139.41797 101.05469-168.36328 0-4.08203-.19922-7.28515-.39844-9.46094-.13281-1.45703-.26172-2.4414-.33593-2.93359-.75782-.58984-2.98829-2.28125-6.625-4.60937-4.5625-2.91797-11.30079-6.8125-19.98829-10.71485-17.375-7.79687-42.53906-15.59765-73.67578-15.59765-54.48437-.004-90.5664 23.91796-98.67968 29.85156-.6875.5039-1.16797.875-1.44532 1.08984-.082.53516-.25 1.66016-.42187 3.35547m99.94922 179.39063c-91.60547-65.63282-102.41407-138.39844-102.39453-168.8086 0-9.25781.99218-14.59375 1-14.64844l.0664-.34765.27735-.23047c.0977-.0742 38.69921-31.60547 101.64843-31.60938 62.94532.004 101.72266 31.51172 101.81641 31.58985l.28516.22656.0625.36328c.008.0508.8164 4.79688.8164 13.09375.0195 29.4336-10.23828 103.58985-102.43359 170.36719l-.57031.41406zm0 0" fill="#19191e"/>
      <path id="path12" d="m280.81641 305.26172c-22.11329 0-40.10547-17.71485-40.10547-39.48828 0-21.76953 17.99218-39.48047 40.10547-39.48047 22.10937 0 40.10156 17.71094 40.10156 39.48047 0 21.77343-17.99219 39.48828-40.10156 39.48828" fill="#fff"/>
      <path id="path14" d="m253.9375 237.73047l.30859 5.84375c1.66016-.67578 6.27344-2.21485 14.88282-2.21485 1.66015-2.39843 5.53515-7.5664 11.3789-9.47265-1.96875-1.35156-7.6289-4.17969-9.47265-3.9961-3.25782 1.16797-14.69922 4.73438-17.09766 9.83985" fill="#19191e"/>
      <path id="path16" d="m288.05078 303.60547c.83984-.66406 2.39844-1.95313 2.99219-2.87891 2.52734-.58203 8.9375-2.53906 13.58203-7.91015.98437.0586 2.66406.0976 3.91797.082-5.46875 5.41797-12.5625 9.23828-20.49219 10.70703m-41.73437-19.71094c1.13671.625 2.80078 1.51563 3.9375 2.05078.92578 1.46875 4.85156 7.14453 12.65234 11.46485.16016.77343.58203 2.08984.96875 3.0625-7.48438-3.55469-13.64844-9.39063-17.55859-16.57813m34.49609-56.61719c7.91016 0 15.26953 2.32813 21.42578 6.3125-1.875-.20312-5.72266-.58593-8.75.30078-1.67969-.58984-6.87891-2.21484-12.96094-2.21875-.45312.004-.90625.0117-1.36718.0312l.0273.49219c.44922-.0234.89062-.0273 1.33984-.0273 3.64844-.004 6.98438.59765 9.41016 1.1914 1.63672.40235 2.85156.80469 3.47656 1.02735 1 1.71484 4.87891 8.5 6.1836 12.50781-2.12891 3.23828-5.98047 6.74219-7.46485 8.03906-7.95312-2.6914-15.46094-2.48437-17.03125-2.40234-3.85547-5.39453-6.05859-11.79688-6.07031-11.80469l-.46484.16016c.008.0117 2.20312 6.39062 6.07812 11.85156-5.45703 7.03906-7.07812 13.26172-7.73047 15.78516 3.57422 5.4414 9.60547 9.57031 12.51563 11.57422v.0664c0 2.25-.30469 7.6836-2.8086 13.19141-3.9375 1.29297-10.46484 3.48047-13.26562 3.74609-7.91016-4.3164-11.82422-10.07812-12.70313-11.46094-.55468-4.68359 3.04297-12.67578 3.67578-14.57421-3.65625-3.65625-6.3164-9.57032-7.20703-12.16797 2.30078-7.79688 7.82032-15.96875 7.82032-15.98438l-.41016-.27734c-.004.0117-5.55469 8.23047-7.89063 16.14453-1.08203 1.43359-4.74218 5.96875-4.92187 6.19141.4375-20.85938 17.80078-37.69532 39.09375-37.69532m19.03906 20.1211c1.63672.1914 7.3711.95312 12.33594 4.35547 3.78125 5.625 4.30859 12.24609 4.30469 15.40234 0 .5625-.0156 1.00781-.0312 1.32422-1.08985 1.73437-4.32422 6.85547-8.98828 9.58984-3.62891-1.26172-10.16407-4.86328-12.26954-6.04297-.0312-5.41406-1.85937-14.15234-2.60937-16.83984 1.54297-1.35156 5.10937-4.625 7.25781-7.78906m4.98828 44.39843c-4.49609 5.71875-11.15234 7.78516-13.80468 8.41797-2.00391-.37109-8.10547-1.54687-13.89063-6.80859 2.46094-5.51172 2.76953-10.88281 2.77344-13.1875 7.86719-2.52734 13.22265-6.52734 14.95703-7.80859 1.99219 1.11718 8.55469 4.75 12.35547 6.09375-.26563 2.61328-1.28516 10.375-2.39063 13.29296m14.44141-19.08203c-.41406-1.26172-1.32031-3.72265-2.3125-4.57422.008-.27343.0156-.60156.0156-.98437 0-3.07031-.48437-9.34766-3.91406-14.92578.49219-2.27735.80469-5.27344.53125-7.41406 3.9961 6.03515 6.32813 13.23046 6.32813 20.95703 0 2.37109-.23047 4.6875-.64844 6.9414m-38.46874-47.40621c-22.6875 0-41.08203 18.11719-41.08203 40.46485 0 22.35156 18.39453 40.46875 41.08203 40.46875 22.69141 0 41.08594-18.11719 41.08594-40.46875 0-22.34766-18.39453-40.46485-41.08594-40.46485" fill="#19191e"/>
      <path id="path18" d="m253.69922 270.99219c.0195-.004 11.9375-2.71094 13.91015-2.71485v.49219c-1.79687-.008-13.78906 2.69531-13.80078 2.69922zm0 0" fill="#19191e"/>
      <path id="path20" d="m354.58594 207.51562l-12.07422 17.69141 2.04297 1.41797 12.07812-17.69141zm-6.66797-4.09765l-13.38672-6.19141-1.05078 2.3086 5.51172 2.51953-7.92969 17.16797 2.25781 1.05078 7.92969-17.16797 5.5625 2.57422zm-24.78125-1.51953l-11.1875-2.99219 2.21094-8.14063-2.46875-.6289-5.56641 20.63672 2.46875.67968 2.73047-10.13281 11.18359 2.99219-2.73047 10.13281 2.41407.67969 5.5664-20.68359-2.41406-.62891zm-33.12891-1.62891l4.04297-7.08594 2.78125 7.5586zm3.41016-10.44531l-10.39453 18.74219 2.73047.15625 3.30859-6.45704 4.35547.36719 4.04297.26172 2.20703 6.98047 2.83594.26562-8.03516-22.15625zm-21.9961 16.64062l-.78515-18.89843-2.52344.15625.89063 21.36718 10.71093-.42187-.10547-2.51563zm-28.30078 4.51563c-.89062.94531-2.04687 1.57422-3.30468 1.99609-1.36719.47266-2.78516.47266-4.20313.36719-1.41406-.31641-2.78125-.83984-3.9375-1.62891-.62891-.52343-1.20703-1.20703-1.67969-1.9414-.47265-.73828-.89062-1.62891-1.20703-2.57422-.36719-1.15625-.57812-2.35938-.47265-3.41406 0-1.09766.36718-2.30469.83984-3.35547.47266-1 1.15625-1.94532 2.10156-2.73047.89063-.73828 1.83594-1.3125 2.94141-1.62891 1.3125-.52734 2.67187-.52734 3.98828-.41797 1.20703.10157 2.57031.62891 3.83203 1.3086l-1-3.14844c-1.36328-.41797-2.73047-.52734-3.88281-.52734-1.20703 0-2.41406.10937-3.57031.52734-1.52344.47266-2.88672 1.21094-3.9375 2.15234-1.10547.89453-2.10157 2.05078-2.78125 3.35938-.6836 1.41797-1.15625 2.83594-1.31641 4.35937-.10156 1.36328.16016 2.9375.63281 4.41016.57422 1.83594 1.52344 3.35937 2.83594 4.56641 1.26172 1.3125 2.78125 2.20703 4.61719 2.67968 1.10547.36328 2.25781.57422 3.30859.47266 1.10547 0 2.20703-.16016 3.30859-.52734 1.31641-.41797 2.46875-1.05079 3.51954-1.73047 1.04687-.73438 1.99218-1.6836 2.78125-2.73047l-1.05079-3.20313c-.57812 1.3125-1.46875 2.51953-2.36328 3.35938m-24.57031-1.20703l-7.5625 4.62109-3.25391-5.46094 7.5625-4.5664-1.20703-1.89063-9.66015 5.87891 11.07812 18.26953 2.15235-1.30859-5.46485-8.92579 7.5625-4.62109zm0 0" fill="#fff"/>
      <path id="path22" d="m287.83203 330.92187c-.74219.0859-1.29687-.22265-1.71094-.59765-.41406-.375-.73437-.67188-.85937-1.75-.0859-.75391.24219-1.29297.66015-1.82031.27735-.29688.69922-.60547 1.55469-.70313.85547-.10156 1.28906.16406 1.75781.58594.41407.375.58594.93359.66407 1.61328.21093 1.85156-1.14063 2.56641-2.06641 2.67187m2.625-5.58984c-.76562-.70312-2.03516-1.03125-3.23047-.89453-1.1914.13672-2.14453.56641-2.84765 1.33594-.69532.82031-1.0586 1.8125-.97266 3.01562.082 1.15235.55469 2.05078 1.21875 2.76563.71094.66015 1.75391 1.01562 2.85156.88672 0 0 1.26953-.10938 1.53516-.44141l-.72656 1.03516-2.47657 3.72265 1.64453.17969 1.08985-1.66016c0 0 3.62109-4.96484 3.2539-7.08593-.0898-1.20704-.57031-2.15235-1.33984-2.85938m11.36328 7.24219c-1.20312.42187-2.50781-.10938-3.01562-1.47266-.50782-1.35156.34765-2.73437 1.47265-3.04297 1.21485-.33593 2.47657-.0898 3.02344 1.41016.51172 1.41406-.0352 2.59766-1.48047 3.10547m3.09766-3.99219c-.36719-.94141-1.05078-1.73047-2.04688-2.15234-.57812-.20703-1.15625-.3125-1.78515-.26172-.36719 0-.73438.0547-1.10547.21094-.15625.0508-.52344.21093-.73438.36718-.15625.10547-.41797.31641-.52343.57813l1.67968-5.40625-1.73437-.16016-.94141 3.46875-.10547.3125c-.78906 2.9375-.83984 5.09375-.41797 6.2461.41797 1.10546 1.10157 1.94531 2.04297 2.36328.57813.26172 1.20703.26172 1.83985.26172.41797-.0508.83984-.10157 1.3125-.3125 1.15234-.41797 2.04687-1.20704 2.51953-2.25782.47265-.89453.47265-1.9414 0-3.25781m-45.3086-5.5625l2.36329.83984-3.6211 9.82032 1.67578.52343 4.19922-11.18359-3.35937-1.26172zm14.1211 7.98047c-.74219 0-1.25781-.36719-1.62891-.78906-.36719-.42188-.65234-.75-.65234-1.83985 0-.75781.39453-1.25781.86328-1.73047.31641-.26171.76953-.52343 1.62891-.52343.86328 0 1.25781.3125 1.67968.78515.36719.42188.47266.9961.47266 1.67969 0 1.85938-1.42969 2.41797-2.36328 2.41797m.14844-6.51172c-1.19922 0-2.19532.31641-2.98047.99609-.78907.73829-1.26172 1.6836-1.31641 2.88672-.0508 1.15625.31641 2.10157.89453 2.89063.62891.73437 1.625 1.20703 2.73047 1.20703 0 0 1.27344.0391 1.57422-.26172l-.83984.94531-2.88672 3.41407 1.60937.36328 1.27735-1.52344c0 0 4.16796-4.51563 4.04296-6.66797.0508-1.20703-.3164-2.19922-1-2.98828-.67968-.78516-1.90234-1.26172-3.10546-1.26172" fill="#fff"/>
      <path id="path24" d="m209.35547 387.79687c0 0 7.78515 17.5 9.125 21.75 3 .75 23.25 1.75 43-3.75 18.625-3.375 29.9375-3.33593 40.5.375 10.5625 3.71094 39.21094 5.42188 42 3 2.625-4.625 9.125-22.5 9.125-22.5-4.375 1.25-21.625 4.25-41.625-.625-11.375-2.375-25.66406-5.17187-31.20703-4.76562-6.69532.41016-40.16797 5.64062-45.16797 7.39062-7.875.875-25.75-.875-25.75-.875" fill="#b81151" fill-rule="evenodd"/>
      <path id="path26" d="m339.73047 344.54687l24.85547 9.0625c-1.26172.46875-9.89844 6.64844-10.73047 11.0625 2.41797 0 24.66797.0859 24.66797.0859 1.54297-1.54297 6.65234-5.73437 9.25-5.58594-.33203 1.66797-6.58594 7.41797-9 8.25 1.79297 1.79297 9.91797 10.08594 12.91797 11-2.91797 1.16797-18.73047 4.55469-36.75-3.58203-2.16797-2.91797-8.83594-8.58203-13.41797-9.66797-4.75-2.16406-14.66797-7.16406-14.66797-7.16406zm0 0" fill="#b81151"/>
      <path id="path28" d="m207.45312 351.72656c0 0-.36328 27.49219-38.60546 25.15625 1.00781 1.60938 1.63281 2.16406 1.63281 2.16406 0 0 23.375 3.125 35.625-4 2.9375-2.9375 19.75-16.125 27.5-17-2.625-2.625-12.5-13.625-12.5-13.625l-12.375 5.75z" fill="#b81151"/>
      <path id="path30" d="m266.38672 382.14062c0 0 15.85156-3.3789 31.05859.4961-6.0625 6.0625-16.75 12.14453-16.75 12.14453zm0 0" fill="#b81151"/>
      <path id="path32" d="m262.29297 377.85937l4.5625 4.8125c0 0 18-3.625 27.5 0 1.625-.625 6.125-4.25 6.125-4.25-3.25-.75-19.34375-6.09375-38.1875-.5625" fill="#fff"/>
      <path id="path34" d="m396.99219 267.31641c1.96484-2.82813 8.68359-9.79297 10.50781-11.66797l-20.61328-13.01172-2.83203 10.18359 11.13672 14.77344c.5039-.0742 1.10156-.16406 1.80078-.27734" fill="#19191e"/>
      <path id="path36" d="m188.94141 309.46484c-4.56641-3.82812-11.57032-8.125-19.96094-10.48437-3.44531-.96485-5.8086-1.50781-7.29688-1.8086-1.48828-.30078-2.07812-.35546-2.07812-.35546l-.75-.0703.75781-8.16797-.0312-6.01953-14.61328 7.77735-3.02344 2.16015-3.48437-1.34765-3.51172.34765.39453 4.92969-.24609.24219c-2.02344 2.02344-5.62891 4.84765-6.81641 11.17969-.22656 1.46093-.33203 2.85546-.33203 4.1914.0195 11.01953 7.30859 17.74219 17.74609 20.69922 1.72266.48438 6.20313 1.50781 10.26563 3.08203 4.01562 1.61719 7.90234 3.60156 8.04297 6.98047 0 .19531-.0156.39453-.0469.59766-.28516 1.83984-1.45703 3.13281-2.96875 3.83593-1.51562.71094-3.36719.95313-5.32422.95313-4.41015-.004-9.40625-1.25-11.91015-1.89453-12.53125-3.27735-25.26563-14.57422-28.33985-24.51563-1.5-4.92578-2.16797-8.83984-2.16797-12.26953-.004-4.60547 1.21875-8.30078 3.16016-12.25781-.53906.17578-1.20312.43359-1.95312.81641-2.05079 1.0625-4.73438 3.04687-7.1875 6.82421-2.07032 3.16407-2.98438 8.04297-2.97657 11.85157-.008 2.08984.28125 3.87109.69922 4.77343l.44141.98438-1.07422.0703c-9.000001.64063-15.535157 3.7461-19.183595 6.8086-2.082031 1.70312-7.234375 7.29687-9.089844 11.14843 7.648438-4.23437 14.1875-5.74218 19.414063-5.74218 5.464846.004 9.472656 1.64453 11.820316 3.54296 3.5664 2.89454 16.0664 14.50391 16.0625 14.50391.0156.004 5.54687 4.93359 13.41015 10.08594 7.85547 5.15234 18.03906 10.49219 27.09375 11.3164 2.05469.15625 4.46875.29297 7.07813.29297 6.60156 0 14.46093-.86328 20.96093-4.27734 6.4961-3.42578 11.67188-9.29688 13.15625-19.64063.40235-2.8789.58985-5.5664.58985-8.07812-.0273-20.78125-12.54688-29.55078-16.72656-33.06641" fill="#19191e"/>
      <path id="path38" d="m178.79297 272.23828l13.0664-2.20312-2.67187-8.40235-13.83203-1.22265-.86719.875zm0 0" fill="#fff"/>
      <path id="path40" d="m366.02734 280.07812l1.86719-4.20312c0 0 1.58984.49609 2.45313.91797 1.35156.66015 1.77734 1.04297 1.77734 1.04297-.24219-3.30469-3.30469-4.33985-3.30469-4.33985l.94531-2.57422c0 0 .62891.19922 1.23438.57422.75391.47266 1.92187 1.50391 1.92187 1.50391-.14062-2.48047-2.4375-3.88281-2.4375-3.88281l.72266-2.14063c0 0 1.26172.6211 2.91016 2.0586 2.04687 1.78515 2.84765 3.60546 2.84375 3.70312l2.91015-.50781c.31641-1.02735.51563-1.67969.51563-1.67969l-2.59375.46875c0 0-2.1836-4.45703-7.27735-6.40234-1.16796 3.16406-6.5664 16.52734-6.5664 16.52734l11.66015 3.75781c.11329-.11718.35547-.69922.67188-1.5625l-5.06641-1.42578zm0 0" fill="#fff"/>
      <path id="path42" d="m373.49609 350.79687c-.0547.0586-.11328.10938-.16797.16797.0547-.0586.11329-.10937.16797-.16797" fill="#19191e"/>
      <path id="path44" d="m366.88672 354.83594c.38672-.10938.7539-.23828 1.10937-.375-.35937.13281-.72265.26562-1.10937.375" fill="#19191e"/>
      <path id="path46" d="m384.49609 351.1875c0 .008.004.0156.004.0195 0-.004-.004-.0117-.004-.0195" fill="#19191e"/>
      <path id="path48" d="m384.875 352.83984l.0391.13672zm0 0" fill="#19191e"/>
      <path id="path50" d="m374.05469 350.17187c.0312-.0351.0664-.0742.0976-.11328-.0312.0391-.0664.0781-.0976.11328" fill="#19191e"/>
      <path id="path52" d="m219.98047 340.39062l-1.67188-2.28906c0 0-4.17187 2.07031-10.1914 4.67188 0 .13281-.008 1.5625-.0781 2.70703 7.51172-3.00781 11.94141-5.08985 11.94141-5.08985" fill="#19191e"/>
      <path id="path54" d="m221.75781 342.51172l14.14844 15.80469c-6.73828 3.00781-26.92578 12.70312-28.63281 17.37109-9.9961 4.71094-18.33985 6.33594-24.95313 6.33594-7.88281 0-12.87109-2.28907-15.98828-3.53125l2.51563-1.60938c0 0 5.46875 2.66406 13.47265 2.51563 7.27735 0 15.01953-2.125 23.03125-5.79297 3.55078-5.22656 17.9961-12.55469 26.08203-16.23828l-10.35547-11.56641c-2.16406.98828-8.99609 4.00391-13.6289 5.92578 0 0 .20312-.95312.44922-3.16797z" fill="#19191e"/>
      <path id="path56" d="m191.92187 370.25c6.49219-3.42578 11.67579-9.29688 13.15625-19.64063.043-.32031.0781-.63281.11719-.95312-5.60156 2.25391-11.33594 4.33984-14.91015 5.04687-9.02344 1.79297-18.19532 2.29297-22.78125-.28515 2.29296 3.58203 6.8789 9.74219 13.18359 13.46875-1.95703 1.95703-4.86719 4.49609-7.65625 6.60937 6.13281-.17187 13.05859-1.18359 18.89062-4.24609" fill="#19191e"/>
      <path id="path58" d="m166.14062 351.69531c0 0 10.67579 4.72656 25.07813 0 4.96875-1.63281 9.92969-3.48437 14.30078-5.20703.0937-1.28125.13672-2.51953.14453-3.71484-7.02734 2.97656-15.62109 6.21875-21.46484 7.05859-10.96094 1.57031-17.73438-.32422-21.64063-3.15625 1.57813 3.73047 3.58203 5.01953 3.58203 5.01953" fill="#19191e"/>
      <path id="path60" d="m371.52734 349.22266c-15.94922-4.74219-29-10.92969-29-10.92969l-1.76562 2.25781c0 0 13.98828 6.07422 28.3789 10.80078 1.1875-.80469 1.60547-1.1875 2.38672-2.1289" fill="#19191e"/>
      <path id="path62" d="m339.62891 342.78125l27.33593 10.125c-1.95703.47656-3.64062 1.17187-3.64062 1.17187-7.8086-2.77343-19.53906-6.89843-23.07422-8.33984l-.37109-.17187-10.91797 11.89843c3.44531 1.58985 8.34375 3.92578 13.32812 6.58985 9.14453 4.89453 12.23828 7.58984 13.37891 9.41406 8.53125 4.14453 16.3789 6.24609 23.33984 6.24609 3.98438 0 7.22656-.6914 9.82813-1.5039-3.92188-2.5586-7.76953-6.22657-9.97266-8.63672l-2.02344-2.19141c8.96485-4.73828 13.88282-12.60937 13.88282-12.60937 0 0 1.52343-.0156 3.49218-.67969-2.29297 3.58203-7.19922 10.06641-13.5039 13.79297 3.86718 4.23828 10.20312 9.61328 14.46875 10.60547-3.11719 1.21093-8.22266 3.72265-16.17188 3.72265-6.40625 0-14.65625-1.6289-25.20312-6.875-1.29688-4.23437-22.35938-14.05468-29.09766-17.0625l14.55078-15.67187" fill="#19191e"/>
      <path id="path64" d="m398.50781 346.91016c-2.74219 1.98828-5.89844 3.27343-11.93359 3.46484 0 .85937.14453 1.63281.6875 2.72656 3.79687 0 7.98047-1.23437 7.98047-1.23437 0 0 .69531-.86328 3.26562-4.95703" fill="#19191e"/>
      <path id="path66" d="m376.96094 272.74219c0 0 0 0 0-.004h-.008c.004.004.004.004.008.004" fill="#fff"/>
      <path id="path68" d="m420.09375 224.96875c-1.35938-.082-3.11719-.13281-3.11719-.13281l-.625-1.78516.41406-1.62109c0 0 2.89454.5 4.77344 1.5 2.03125 1.08203 2.60156 2.96875 2.60156 2.96875 0 0-2.40234-.82813-4.04687-.92969m65.97656 66.80859c1.375-1.02343 3.14063-1.41406 4.875-1.41406 1.44922 0 2.87891.27344 4.04297.67578-2.25391-6.23437-7.38672-9.17578-14.08594-9.17578-3.08203 0-6.49218.62109-10.10547 1.82813-1.15234-3.59375 2.23438-6.98047 3.82813-8.57422-.24219-.0195-.48438-.0312-.73047-.0312-6.25 0-12.93359 6.1875-13.81641 14.88281-.91796 9.03125 6.82813 14.5 7.96094 26.02734.55078 5.56641.11719 12.33594-7.04297 13.44532-.30078.0469-.61718.0703-.94922.0703-8.64843 0-26.94921-15.46485-27.83593-22.39844-.91797-7.19531-.28907-13.33594 6.19922-19.82812 8.26953-8.26563 14.01171-16.32813 11.10546-25.10938 3.89844 5.03125 3.82813 13.78125 3.82813 13.78125 0 0 5.28125-7.68359 5.28125-19.52344 0-9.47265-3.74609-15.58593-3.74609-15.58593 0 0 2.5 1.08984 5.57421 8.7539 0 0 4.00391-8.43359-3.28515-19.64062-3.66016-5.62891-8.52344-9.3125-8.52344-9.3125 0 0 1.90625 0 5.9375 2.73828-.59375-3.03516-1.82031-5.41406-3.38672-7.26953-3.10156-3.67578-7.55078-5.3125-11.09765-6-2.82813-.54688-5.74219-.67578-8.15235-.67578-2.14062 0-3.88672.10156-4.82422.10156-2.15625 4.69531-7.8164 3.3164-10.96875 4.34375-4.125 1.34375-3.71093 4.10937-6.84375 4.82812l-10.24218 1.73438-2.69532 4.01172 1.16016 6.68359 13.78125 1.03125c0 0 4.52344 2.875 2.24609 7.27344-.76172 1.47265-1.97265 1.92187-3.17187 1.92187-1.92188 0-3.82031-1.15625-3.82031-1.15625 0 0-7.10157-3.47656-8.65235-4.28515-1.99219 3.59765-.88281 4.35937-.88281 4.35937l9.60937 5.70703c0 0 7.35157 3.39453 1.91407 11.12891-3.67578 3.67578-10.6836 11.75391-10.6836 11.75391l-9.29687 1.82812-8.70313 1.52344-2.91015.50781c0 .004 0 .004-.004.004 0 0 0 0-.004-.004h.008c.004-.0977-.80078-1.91797-2.84766-3.70312-1.64453-1.4375-2.90625-2.0586-2.90625-2.0586l-.72266 2.14063c0 0 2.29688 1.40234 2.4375 3.88281 0 0-1.16796-1.03125-1.92187-1.50391-.60156-.375-1.23438-.57422-1.23438-.57422l-.94531 2.57422c0 0 3.0625 1.03516 3.30469 4.33985 0 0-.42578-.38282-1.77734-1.04297-.86329-.42188-2.45313-.91797-2.45313-.91797l-1.86719 4.20312 5.19141 1.83594 5.0625 1.42578.15234.043c0 0 2.58203 3.7461 8.12891 4.47266 0 0-1.42188-2.32422-1.42188-3.59375 0 0 4.5625 4.52734 13.32032 5.32031 0 0-2.56641-3-2.56641-4.92578 0 0 3.51953.86328 6.39063.86328 2.87109 0 6.58593-.55859 6.58593-.55859 0 0-4.47656 1.67187-8.14843 5.33984 0 0-.0469 4.83594 1.68359 9.1875 1.38281 3.48828 6.08203 9.28516 6.08203 9.28516 0 0-14.28906-4.08594-25.58594-4.08594-.53906 0-1.07031.008-1.59375.0273-8.26953.30469-10.0625 4.4961-11.07422 9.28516-1.30468 6.15234 9.00782 30.67969 9.00782 30.67969 0 0-.69922 2.25-2.53907 4.6875-.17187.23047-.35546.46093-.55078.6914-.0312.0391-.0664.0781-.0976.11328-.17969.21094-.36328.41797-.5586.625-.0547.0586-.11328.10938-.16797.16797-.40625.41797-.84765.82813-1.33203 1.21875-.92187.7461-1.99218 1.41407-3.21484 1.95313 0 0 0 .004 0 .004-.25781.10938-.51953.21485-.78516.32032-.35547.13672-.72265.26562-1.10937.375-5.78516 1.625-10.01953 8.26562-10.01953 8.26562h2.1289c0 0 4.28125-4.0664 6.39063-4.0664 0 0-1.78906 1.46484-2.57813 2.25-.88281.88281-1.46875 1.8164-1.46875 1.8164h3.92188c0 0 3.42187-4.17578 7.85937-4.96094 0 0-2.1914 1.91797-3.14062 2.86329-.96875.96875-1.67188 2.09765-1.67188 2.09765h8.47266c0 0 3.94531-5.2539 9.57422-6.07812 0 0-.14453-.33203-.35156-.85938-.24219-.61328-.57032-1.49609-.875-2.46484-.0742-.23828-.14454-.48047-.21485-.72266l-.0391-.13672c-.14844-.54687-.28125-1.10156-.375-1.63281-.004-.008-.004-.0117-.004-.0195-.0469-.26953-.0859-.53516-.10937-.78906-.0274-.23828-.043-.46875-.043-.6875 0-2.69532 3.61719-7.10157 3.61719-7.10157 0 0-5.09766-12.97656-1.5-12.97656.59765 0 1.43359.35547 2.57031 1.1875 6.85547 5.00781 13.65234 5.36719 17.38281 5.36719.62891 0 1.16406-.008 1.60547-.008 2.21875 2.21875 2.01563 12.82812 18.75781 19.53125 9.90625 4.44531 20.21875 6.375 20.21875 6.375 0 0-1.55468 2.57031-5.5 4.47656-3.9414 1.90234-3.99218 1.70703-6.66406 2.71875-3 1.14062-6.59375 6.34766-6.59375 6.34766h1.98828c0 0 3.32422-3.92579 6.83203-4.47657 0 0-1.55078 1.23438-2.15625 1.83594-.6875.69141-2.42578 2.64063-2.42578 2.64063h3.95313c0 0 3.45312-4.90235 7.47265-5.16016 0 0-1.23828 1.07031-2.17578 2.17969-.73047.86718-2.26562 2.98047-2.26562 2.98047h12.16417c0 0 2.91016-11.01954 9.45312-11.01954l1.02344-8.71875c0 0-16.50781-3.77734-22.53906-9.80859-6.03125-6.02734.99609-17.78906.99609-17.78906 0 0 9.71094 9.80078 21.89453 9.80078 1.85547 0 4.83594-.21484 6.31641-.57813 7.80859-1.91015 8.42188-7.03906 8.42188-7.03906-2.89844 1.51953-4.7461 1.70313-5.45313 1.70313-.21875 0-.32812-.0195-.32812-.0195 0 0 3.20312-2.90625 4.01953-6.21485.74218-3.01172.76172-7.33203-.15235-10.97265-3.52343-14.00782-8.65234-17.04297 2.71485-17.04297 10.71875 0 11.02343 2.44922 13.78125 5.20703 2.25781-6.92188-2.02735-10.48047-5.70313-11.35938" fill="#19191e"/>
      <path id="path70" d="m157.46875 255.16016c2.5 2.26562 5.62891 3.17187 5.62891 3.17187l11.85937-10.5625-1.55859-6.75781-19.49219 8.73047c0 0 1.01172 3.10547 3.5625 5.41797m31.07031 8.23437l-9.97656-1.28125c0 0-2.01953-.10937-2.72656.19141-.89844.39062-2.02344 1.75781-2.02344 1.75781l-4.55078 5.6875-5.73828 2.64844-14.39453 6.46484-8.03907 3.53125c0 0-4.64843-14.60547-5.39062-17.38672-.97266-3.66015-4.42188-6.07031-6.53516-7.24609 2.29297.35547 5.96485 1.57812 7.83203 5.71484 2.91016 9.76172 5.17578 16.75 5.17578 16.75l2.89844-1.20703c0 0 10.56641-4.49609 15.92578-6.8125 5.35938-2.98437 1.89453-12.30859 1.89453-12.30859 0 0-8.50781-2.44922-10.51953-10.19141-.84765-3.26953-2.28906-8.88281 3.02735-7.91797 2.39453.4336 3.71093 1.03516 5.39453.76563.75781-.11719 1.45312-.28907 1.87109-1.04688.46094-.83594.008-1.17969-.17969-1.91015-.25781-1.02344-.14062-.875.5586-1.38672.47265-.34375.92969-1.42969-.21875-1.76953.59375-.23438 1.60156.0234 1.76562-.92969.21485-1.23828-1.30859-1-.90234-1.97656.25-.59375 1.30078-.82422 1.83594-1.03516.85547-.33984.78906-1.02734.36718-1.73438-.6914-1.14843-2.16406-4.79296-2.34375-5.17578.10547-.32812.21875-.63672.33594-.89843 1.39063-3.11719.81641-5.89844.81641-5.89844 0 0-1.33594.39844-3.56641.65625-.71875.082-3.54297.16797-3.54297.16797 0 0-.86328 2.71484-3.46484 4.53125-3.01563 2.10156-5.76172 1.63672-7.87891 3.08203-1.21875.83203-1.85156 1.37109-1.85156 1.37109 0 0 1.34766 3.21485.42969 7.63672-.92578 4.46875-6.86719 9.69531-6.86719 9.69531 0 0-.58594 2.75782-2.62891 4.38282-.74609.58984-1.46484.80468-2.03906 1.05078 1.28125-1.4961 2.86328-3.8086 2.86328-6.14844 0 0 3.82422-3.14453 5.71485-6.48828.52734-.97656 1.46093-2.08203 1.57812-4.72266.0937-2.45312-1.17187-6.01953-1.17187-6.01953 0 0 2.18359-2.58594 7.39062-3.6875 5.20703-1.10156 6.52344-6.31641 6.52344-6.31641 0 0 6.53906.0195 9.14453-1.17187 0 0-.17578-4.61719-1.61328-7.17969-2.30078-4.10937-10.67969-5.71484-10.67969-5.71484l-11.69922.44922c0 0-9.90234.875-13.59765 5.35156-3.78516 4.57812-4.9961 5.45312-8.03516 7.05469-5.58594 3.35156-7.26953 6.46875-8.21094 9.1875 0 0 2.50391-2.45703 7.58204-3.33203.38281-.0664-8.89063 4.70703-11.83204 21.82812 0 0 6.54297-6.53906 9.30079-6.86719 0 0 .20312 3.82813-4.98438 9.20313-5.34766 5.54297-14.816406 10.35156-14.816406 10.35156 11.710936 1.73047 17.566406-2.0625 17.566406-2.0625-1.11328 1.5625-3.14453 5.80469-2.81641 12.625 2.82813-5.07812 5.96094-8.36328 8.90235-10.50391-.51953 1.95313-.86328 7.25782 4.59375 18.5586 2.63281 5.46094 10.16015 16.01562 10.16015 16.01562l6.55078 1.77735 20.44141-12.31641 10.42578-7.8125 5.34766-3.16016 12.55078-1.68359zm0 0" fill="#19191e"/>
      <path id="path72" d="m211.34375 377.74609c9.78125 6.28125 38.85156-.70312 44.21875-2.15625l-17.64453-15.21093c0 0-31.75391 14.03906-26.57422 17.36718" fill="#19191e"/>
      <path id="path74" d="m397.93359 379.98047c0 0-9.42578 7.55078-28.26172 3.58594-11.03906-2.32032-15.91015-4.76954-15.91015-4.76954-2.01563 1.6875-10.29688 6.39454-33.52344 2.07422-14.14844-2.63281-27.68359-6.73437-39.33594-6.73437-11.65234 0-25.1875 4.10156-39.33203 6.73437-23.23047 4.32032-31.50781-.38672-33.52734-2.07422 0 0-4.8711 2.44922-15.91016 4.76954-18.83594 3.96484-28.52344-3.65625-28.52344-3.65625 0 0-1.69531.6875-3.625 1.27343 9.46875 5.79297 18.60547 7.46094 29.28516 5.77735 4.85156-.76172 14.95313-3.32422 17.96094-4.9336 0 0 3.34765 2 11.15625 3.25782 9.05078.54296 13.51562.33984 21.63281-1.34375 26.09766-5.41407 30.89844-7.25782 40.88281-7.26563 9.98438.008 14.78907 1.85156 40.88672 7.26563 8.11719 1.68359 12.58203 1.88671 21.63281 1.34375 7.80469-1.25782 11.15625-3.25782 11.15625-3.25782 3.00391 1.60938 13.10938 4.17188 17.96094 4.9336 10.67578 1.68359 19.81641.0156 29.28516-5.77735-1.9336-.53515-3.89063-1.20312-3.89063-1.20312" fill="#19191e"/>
      <path id="path76" d="m280.90234 381.92187c-5.4375 0-13.78125 1.75782-22.61718 3.61719-9.52735 2.00391-20.33204 4.27735-30.04688 4.91016-.96484.0625-1.96094.0937-2.95703.0937-5.75391 0-11-1.02735-14.59766-1.97266.74219 2.44922 1.8125 5.69531 3.23438 9.3086 2.09765 5.33593 4.16015 8.85546 5.01562 10.22265 1.32813.46875 4.90625 1.46875 11.15235 1.46875 7.37109 0 16.00781-1.34765 25.67187-4.00781 4.4961-1.23828 13.7461-3.31641 25.14453-3.31641 10.375 0 19.38672 1.80078 25.11719 3.3086 9.98047 2.6289 18.76563 3.96093 26.10938 3.96093 6.10546 0 9.48437-.95312 10.73828-1.40234.84765-1.35547 2.91406-4.88281 5.01953-10.23437 1.42578-3.61329 2.49609-6.85938 3.23437-9.3086-3.59765.94531-8.83984 1.97266-14.59375 1.97266-.99609 0-1.99218-.0312-2.95703-.0937-9.71875-.63281-20.51953-2.90625-30.05078-4.91016-8.83203-1.85937-17.17578-3.61719-22.61719-3.61719m0-2.69921c11.71875 0 34.23047 7.32421 52.84375 8.53125.9336.0625 1.86328.0898 2.78125.0898 10.00391 0 18.50782-3.31641 18.50782-3.31641 0 0-1.4375 6.22266-4.63672 14.33985-2.90625 7.39062-5.72266 11.41406-5.72266 11.41406 0 0-3.60547 1.93359-12.54687 1.93359-6.1875 0-14.92579-.92578-26.79297-4.05078-6.44532-1.69531-15.10547-3.21875-24.4336-3.21875-9.32422 0-18.0039 1.45313-24.42968 3.21875-11.50391 3.16797-20.16407 4.10547-26.38672 4.10547-9.05469 0-12.95313-1.98828-12.95313-1.98828 0 0-2.82031-4.02344-5.72656-11.41406-3.19531-8.11719-4.63672-14.33985-4.63672-14.33985 0 0 8.50781 3.31641 18.51172 3.31641.91406 0 1.84375-.0273 2.78125-.0898 18.61328-1.20704 41.125-8.53125 52.83984-8.53125" fill="#19191e"/>
      <path id="path78" d="m312.78516 412.57422c-14.71094-2.97266-21.625-4.83985-31.88282-4.83985-10.25781 0-17.17187 1.86719-31.88281 4.83985-22.89453 4.625-31.14453.58594-31.14453.58594 0 0 .51953 1.11718 1.60937 3.17968 0 0 6.95313 4.04688 36.21485-1.92968 9.20703-1.88282 17.47656-3.55469 25.20312-3.55469 7.72657 0 15.9961 1.67187 25.20313 3.55469 29.26172 5.97656 36.21484 1.92968 36.21484 1.92968 1.08985-2.0625 1.61328-3.17968 1.61328-3.17968 0 0-8.25 4.03906-31.14843-.58594" fill="#19191e"/>
      <path id="path80" d="m350.46484 377.74609c5.17969-3.32812-27.34765-17.68359-27.34765-17.68359l-16.875 15.52734c5.36718 1.45313 34.4414 8.4375 44.22265 2.15625" fill="#19191e"/>
      <path id="path82" d="m225.79297 405.08203c-.51563.0312-.77344.0391-1.29297.0586-.79297-3.47656-1.48047-5.63671-2.21484-9.11718.5039-.0156.7539-.0274 1.25781-.0586.74609 3.48047 1.4414 5.63672 2.25 9.11719" fill="#fff"/>
      <path id="path84" d="m226.69922 395.62891l9.27734 5.60156-1.09765-6.47266 1.23046-.25 1.66407 9.49219c-3.34766-2.07813-8.97266-5.4375-8.97266-5.4375l1.27344 6.08594c-.51953.0351-.83985.10156-1.35547.12109zm0 0" fill="#fff"/>
      <path id="path86" d="m296.92578 394.56641c.42578-2.1211-.85156-4.21485-3.19531-4.62891-2.34375-.41797-4.29297 1.10547-4.65625 3.23437-.375 2.20704 1.11328 4.20313 3.20703 4.57422 2.09766.3711 4.20703-.98437 4.64453-3.17968m1.22266.23437c-.58594 2.86328-3.28516 4.56641-6.07422 4.07031-2.79297-.49218-4.70703-3.01953-4.23047-5.89453.46094-2.77344 3.22656-4.67969 6.09375-4.16797 2.87109.51172 4.77344 3.23828 4.21094 5.99219" fill="#fff"/>
      <path id="path88" d="m302.65234 393.5625c-.0117-.004-.0156-.004-.0234-.004-.95313 2.40625-1.32813 3.70313-2.25391 6.11328l-1.21094-.26953c1.52344-3.80078 2.15235-5.73828 3.74219-9.52343.82812 3.22265 1.31641 4.92578 2.0625 8.15234 1.96484-2.70703 3.35547-4.19141 5.39453-6.86719l-.53906 10.54688-1.19141-.28125.45703-6.76172c-.008-.004-.0156-.004-.0273-.004-1.75391 2.31641-2.92578 3.6211-4.625 5.96094-.64063-2.78906-1.07813-4.27344-1.78516-7.0625" fill="#fff"/>
      <path id="path90" d="m314.16406 391.82031c2.48438 3.42969 3.83594 5.61719 6.14063 9.10156.57422-2.73828.89843-5.125 1.47265-7.85937.4961.0977.7461.14844 1.24219.24219-.82812 3.85156-1.27734 6.80078-2.10156 10.64843-2.25781-3.48437-3.58985-5.67187-6.02735-9.11328-.51171 2.77344-.90625 4.82813-1.41796 7.60157l-1.19141-.28907c.70312-3.89843 1.17969-6.4375 1.88281-10.33203" fill="#fff"/>
      <path id="path92" d="m325.75 393.95312c2.32812.45313 4.42969.9375 5.57031.83985-.082.48437-.125.73437-.20703 1.21875-1.29687-.0156-1.75-.14063-4.15625-.60938-.19141 1.19141-.41797 2.09375-.60547 3.28516 1.71094.41016 3 .66797 4.05078.74609-.082.48438-.125.65625-.20703 1.14063-1.78906-.19922-2.59765-.39844-4.04687-.74219-.25782 1.60938-.47266 2.14453-.72657 3.75781 1.57032.3711 2.55469.44922 4.23829.59766-.0859.48828-.10938.64844-.19141 1.13281-2.14453-.16797-3.48828-.34765-5.67969-.82422.66016-4.26562 1.30078-6.28125 1.96094-10.54297" fill="#fff"/>
      <path id="path94" d="m339.18359 398.6875c-.125-.74219-.22656-1.60547-1.35156-2.07031-.82812-.33985-1.93359-.0547-2.19922.85937-.22656.8125.46094 1.5 1.05078 1.94531.26563.20704.40235.3125.67188.51563 1.32422 1.01953 2.19922 2.08984 1.67969 3.76562-.56641 1.82032-2.4336 2.84375-4.28907 2.4375-1.68359-.36718-2.63672-1.98437-2.38672-3.80468.5586.0234.84375.0351 1.39844.0586-.34375 1.17969.33594 2.26563 1.45313 2.52734 1.12109.26563 2.19531-.48437 2.51953-1.55468.32812-1.09375-.42969-1.8086-1.23047-2.4375-.25391-.20313-.37891-.30469-.63281-.51172-1.05469-.85938-1.95703-1.90235-1.54688-3.37891.47266-1.71484 2.25-2.07812 3.89063-1.58984 1.4375.42578 2.01953 1.83984 2.11328 3.07422-.49219.0898-.64453.0625-1.14063.16406" fill="#fff"/>
      <path id="path96" d="m243.63672 393.72266c.35937 2.15625.35937 3.26953.72265 5.42578.25391 1.49218.91797 3.05468 2.67969 2.77734 1.76172-.27734 2.03516-1.99219 1.82813-3.48828-.30469-2.16797-.57422-3.42969-.875-5.59375.48437-.0703.72265-.10156 1.20703-.16797.30469 2.32031.58203 3.66406.88672 5.98828.26953 2.02344-.79688 4-2.88282 4.33203-2.08984.32813-3.58203-1.25-3.93359-3.25781-.40625-2.30469-.42969-3.49609-.83594-5.80078.47657-.0898.72266-.13281 1.20313-.21484" fill="#fff"/>
      <path id="path98" d="m251.65234 392.10547c3.29688 2.40625 8.35157 5.3125 8.35157 5.3125-.28907-2.6875-.62891-4.06641-.91407-6.75391l1.36328-.25c.375 3.79297.6875 5.79297 1.0625 9.58594l-8.09375-5.04297c.38282 2.69922 1.17579 6.58594 1.17579 6.58594-.44922.0664-.79297.0976-1.2461.16797 0 0-1.1289-5.8086-1.69922-9.60547" fill="#fff"/>
      <path id="path100" d="m264.40625 389.53516c.24219 2.28125.35547 3.63671.59766 5.91796.16796 1.57813.78515 3.19141 2.64453 3.01954 1.86328-.17579 2.23437-1.88672 2.10937-3.46485-.17969-2.28906-.35937-3.8789-.53515-6.16797 0 0 1.22265-.17578 1.27734-.17578.17187 2.45703.34766 4.20703.51953 6.66016.15234 2.13672-1.0625 4.07031-3.26562 4.27734-2.20704.20703-3.69141-1.47265-3.9336-3.59765-.27734-2.44922-.41015-3.76563-.6875-6.21094zm0 0" fill="#fff"/>
      <path id="path102" d="m275.125 391.95703c-.0117 0-.0195 0-.0273.004-.33594 2.59375-.4961 3.89453-.79688 6.49218-.49609.0274-.74219.0469-1.24219.0781.51953-4.10938.80469-6.16406 1.42188-10.26953 1.57812 2.99219 2.33594 4.49609 3.79297 7.51953 1.24609-3.11719 1.90234-4.67578 3.27343-7.76563.89454 4.05079 1.32032 6.08204 2.125 10.14454-.49609.004-.75.004-1.25.0117-.48046-2.57421-.72656-3.85937-1.23828-6.42578-.008 0-.0117 0-.0273 0-1.16406 2.67969-1.71875 4.02344-2.78906 6.71875-1.25391-2.61718-1.89844-3.91797-3.24219-6.50781" fill="#fff"/>
   </g>
</svg>
