<?xml version="1.0" encoding="UTF-8" standalone="no"?>
<svg
   xmlns:dc="http://purl.org/dc/elements/1.1/"
   xmlns:cc="http://creativecommons.org/ns#"
   xmlns:rdf="http://www.w3.org/1999/02/22-rdf-syntax-ns#"
   xmlns:svg="http://www.w3.org/2000/svg"
   xmlns="http://www.w3.org/2000/svg"
   viewBox="0 0 172.21025 254"
   id="svg88"
   height="254"
   width="172.21025"
   version="1.1">
  <metadata
     id="metadata94">
    <rdf:RDF>
      <cc:Work
         rdf:about="">
        <dc:format>image/svg+xml</dc:format>
        <dc:type
           rdf:resource="http://purl.org/dc/dcmitype/StillImage" />
        <dc:title></dc:title>
      </cc:Work>
    </rdf:RDF>
  </metadata>
  <defs
     id="defs92" />
  <g
     transform="matrix(0.34181878,0,0,0.34181878,-15.633068,-16.886855)"
     id="Layer1000">
    <g
       id="Layer1001">
      <path
         id="path2"
         style="fill:#080808;fill-rule:evenodd"
         d="m 78.4587,276.1089 v 30.5626 c 0,8.0127 5.4582,13.8643 16.5314,12.3767 8.3364,-1.12 17.9016,-9.4023 17.875,-17.8144 l -0.0981,-30.6544 c -0.0323,-10.1636 -6.7654,-14.7033 -16.8639,-12.5288 -8.7848,1.8912 -17.4444,7.81 -17.4444,18.0583 z m 17.2044,-7.4749 c -1.7493,0.3401 -3.5113,1.8981 -3.5156,4.0317 l -0.0711,32.6645 c -0.0063,2.9866 1.8193,3.9489 3.638,3.4639 2.3595,-0.6296 3.933,-1.9063 3.933,-5.472 v -31.6406 c 0,-2.59 -2.2685,-3.3814 -3.9843,-3.0475 z" />
      <path
         id="path4"
         style="fill:#080808;fill-rule:evenodd"
         d="m 145.5231,261.0797 -7.695,1.0312 0.0258,33.6419 c 0.003,4.4214 -2.2873,10.2841 -4.2639,12.5623 -2.4281,2.7989 -5.7112,3.9988 -9.7568,4.763 -1.8454,0.3543 -3.6388,0.201 -5.4768,0.2058 l 0.0343,-11.0792 c 3.8185,-0.0998 5.9714,-2.804 5.9714,-6.4519 v -42.5172 l 13.4572,-2.448 7.7219,-1.3136 13.7324,-2.1736 v 59.5148 l -13.8262,2.3902 z" />
      <path
         id="path6"
         style="fill:#080808;fill-rule:evenodd"
         d="m 166.2075,246.2825 13.8126,-1.8697 16.407,-1.9443 0.002,11.323 -16.4061,1.7113 0.003,11.719 14.1106,-1.4531 0.0431,11.6796 -14.1503,1.586 0.004,12.9396 16.7831,-2.4378 -0.01,12.5274 -16.7698,2.0135 -13.8141,1.8904 z" />
      <path
         id="path8"
         style="fill:#080808;fill-rule:evenodd"
         d="m 204.2444,241.6416 13.1627,-1.2353 -0.006,23.5142 9.0728,-24.2549 14.8504,-1.0188 -11.573,24.7204 11.4636,34.8506 -14.1256,0.9895 -6.3125,-22.3361 -3.3803,6.7841 -0.004,16.3576 -13.0836,1.2496 z" />
      <path
         id="path10"
         style="fill:#080808;fill-rule:evenodd"
         d="m 262.389,297.142 c -8.3053,0.3637 -15.9446,-5.6523 -15.9446,-14.0482 v -31.0314 c 0,-9.1951 6.98,-15.1181 17.7644,-15.4627 8.5709,-0.2742 17.1111,3.9549 17.1111,14.7126 v 7.5002 h -13.6877 l -0.0272,-7.4826 c -0.006,-1.823 -1.4145,-4.4881 -3.9858,-4.0686 -3.1498,0.5142 -3.7684,2.6337 -3.7684,4.8011 v 31.0314 c 0,2.1243 1.8298,4.4597 4.2282,3.998 3.5206,-0.6778 3.5532,-4.1698 3.5532,-7.0195 v -7.5001 h 13.6877 v 7.5001 c 0,8.4963 -4.523,16.4387 -18.9309,17.0697 z" />
      <path
         id="path12"
         style="fill:#080808;fill-rule:evenodd"
         d="m 297.4623,236.9656 -10.6835,59.5415 12.7469,-0.0752 1.7036,-10.8595 9.6871,-0.0366 1.5911,11.0007 13.642,0.3062 -10.8711,-59.6971 z m 8.6315,8.9141 -3.4455,29.016 6.8565,0.1434 z" />
      <path
         id="path14"
         style="fill:#080808;fill-rule:evenodd"
         d="m 352.4567,260.4254 -0.047,-21.8072 14.0207,0.9403 0.0924,59.3662 -14.1131,-0.9056 0.5077,-25.545 -8.2457,-0.5173 V 297.58 l -13.4893,-0.5735 v -59.4116 l 13.4893,0.5944 v 21.8611 z" />
      <path
         id="path16"
         style="fill:#080808;fill-rule:evenodd"
         d="m 401.4777,302.1406 v 7.388 l 12.1768,1.6588 -0.0119,-20.0276 -2.0226,-0.2401 -0.0878,-46.9165 -12.6573,-1.4655 -8.5541,-0.8938 -11.8032,-1.1064 v 25.5141 c 0,5.0556 -1.8266,18.7268 -7.0869,20.7428 l -3e-4,20.4843 12.1408,0.9845 v -7.945 l 15.3,1.5375 z m -15.8253,-14.1128 c 2.7437,-3.4659 4.6684,-14.6373 4.6684,-21.9762 v -13.3118 l 8.5532,1.4999 -0.002,35.1096 z" />
      <path
         id="path18"
         style="fill:#080808;fill-rule:evenodd"
         d="m 433.0658,257.0956 0.005,14.625 c 5.2042,2.1345 7.3423,-0.019 8.0541,-2.7669 0.5701,-2.2002 0.5522,-4.3676 0,-6.5625 -0.9805,-3.8976 -4.7149,-5.0116 -8.0592,-5.2956 z m 4.8504,-9.4933 c 12.367,1.827 16.7088,9.04 16.7088,16.4764 v 4.875 c 0,15.5849 -8.496,15.6946 -16.0228,14.6733 l -5.5276,-0.7501 0.008,23.2949 -13.417,-1.7805 v -59.3569 l 13.3968,1.8508 z" />
      <path
         id="path20"
         style="fill:#080808;fill-rule:evenodd"
         d="m 462.3182,251.5833 13.2256,2.4185 0.2305,59.2985 -13.4561,-2.5055 z" />
      <path
         id="path22"
         style="fill:#080808;fill-rule:evenodd"
         d="m 495.7461,296.9666 0.007,18.2522 c 5e-4,1.1209 -0.9434,1.692 -2.0452,1.4843 l -12.202,-2.2989 -0.0108,-1.7538 c 0.898,0.151 1.6517,-0.152 1.6517,-1.1118 l -0.003,-18.9703 c -8e-4,-6.8638 3.024,-6.6608 6.9885,-8.007 -4.6913,-1.8882 -6.7612,-6.3992 -6.7612,-10.5863 v -5.7971 c 0,-9.0921 5.2949,-11.7425 14.4984,-9.6795 l 6.1257,1.3244 13.3622,3.0243 -0.003,59.2435 -13.2443,-2.9968 -0.0476,-24.588 c 0.0124,-1.5729 -2.8942,-2.3261 -4.5332,-2.1878 -2.5693,0.2171 -3.784,2.5506 -3.7831,4.6486 z m 0.2341,-24.5101 c -0.1973,1.277 -0.3336,2.6549 0.0235,4.8359 0.732,4.4708 3.9277,6.4145 7.9393,6.2442 l 0.0726,-13.2188 c -4.4785,-2.0004 -7.5813,-0.7991 -8.0354,2.1387 z" />
      <path
         id="path24"
         style="fill:#241301;fill-rule:evenodd"
         d="m 289.3646,141.3955 c -0.0374,-2.8516 -2.3474,-6.6878 -7.2473,-5.2035 l 0.0235,28.1137 c 5.0663,1.1288 7.4823,-3.2751 7.4409,-6.4454 z m -19.7161,32.192 c -13.5003,0.9099 -19.9689,-7.6295 -19.9689,-16.3015 v -16.1252 c 0,-8.2876 7.5001,-16.4375 19.9689,-14.8124 v -5.7189 h 12.4688 v 6.0006 c 10.6347,-2.4689 20.084,6.3017 20.0795,14.4896 l -0.009,16.0481 c -0.005,8.4625 -4.5558,16.7944 -20.0758,16.2853 l 0.006,5.9581 h -12.4688 z m 0,-9.1764 -0.0584,-28.3362 c -3.6173,-0.7577 -7.348,2.1464 -7.348,5.0859 v 16.1252 c 0,3.2975 2.5937,7.9846 7.4064,7.1251 z" />
      <path
         id="path26"
         style="fill:#241301;fill-rule:evenodd"
         d="m 331.2972,120.6746 15.5444,0.005 -13.2602,22.8195 12.3982,36.0153 -14.2532,-0.0108 -6.8448,-21.0328 -3.1074,5.3473 0.1874,15.7133 H 309.024 v -58.9227 h 12.9376 v 23.7626 z" />
      <path
         id="path28"
         style="fill:#0a0a0a;fill-rule:evenodd"
         d="m 256.3438,595.904 h 8.7429 l 0.006,-41.0629 h -7.5064 c -1.4794,3.3939 -4.3189,4.7282 -7.9861,4.8098 l -0.053,6.0327 6.7969,-0.0471 z" />
      <path
         id="path30"
         style="fill:#0a0a0a;fill-rule:evenodd"
         d="m 279.7713,583.3865 c -5.9074,-0.0808 -7.9231,-4.4869 -7.9231,-9.2656 v -10.6875 c 0,-4.7814 4.0708,-8.5918 11.5299,-8.5912 7.4591,6e-4 10.8765,4.5371 10.8765,9.2007 v 22.172 c 0,7.3625 -6.1372,9.6877 -11.2144,9.6903 -6.6759,0.004 -10.9947,-2.8046 -11.0693,-10.1931 l 8.6239,8e-4 c 0.0289,2.4979 0.896,3.5674 2.6779,3.5663 1.6565,-10e-4 2.4142,-1.527 2.4037,-2.666 L 285.63,581.667 c -2.4767,1.7969 -5.3215,1.7266 -5.8587,1.7195 z m 3.3506,-6.7819 c 1.7129,0.0168 2.4165,-1.5069 2.4139,-2.719 l -0.0235,-10.2413 c -0.002,-1.0766 -1.3028,-2.1319 -2.3788,-2.1305 -1.1155,0.002 -2.4727,0.8028 -2.4727,1.9196 v 10.6875 c 0,1.1648 0.7555,2.467 2.4611,2.4837 z" />
      <path
         id="path32"
         style="fill:#0a0a0a;fill-rule:evenodd"
         d="m 309.5351,574.6504 c 2.1095,-3.4375 3.8242,-6.5868 5.0902,-11.2433 l 3.7068,0.0102 -0.0312,12.0835 v 5.6251 h 2.5782 v 6.5157 h -2.5782 v 8.2502 h -8.7658 v -8.2502 h -11.643 v -8.5 c 3.1504,-8.5073 5.1165,-16.6697 5.267,-24.3025 l 10.4216,-0.0111 c -1.5409,9.1154 -5.3107,17.2758 -10.3516,24.8916 l -2e-4,1.4063 h 6.3062 z" />
      <path
         id="path34"
         style="fill:#0a0a0a;fill-rule:evenodd"
         d="m 335.8845,577.4182 h 0.1565 c 1.0913,0 1.9843,0.8929 1.9843,1.9842 v 7.7973 c 0,1.0913 -0.893,1.9842 -1.9843,1.9842 h -0.1565 c -1.0913,0 -1.9842,-0.8929 -1.9842,-1.9842 v -7.7973 c 0,-1.0913 0.8929,-1.9842 1.9842,-1.9842 z m 0,-15.8661 h 0.1565 c 1.0913,0 1.9843,0.8929 1.9843,1.9842 v 4.8442 c 0,1.0913 -0.893,1.9842 -1.9843,1.9842 h -0.1565 c -1.0913,0 -1.9842,-0.8929 -1.9842,-1.9842 v -4.8442 c 0,-1.0913 0.8929,-1.9842 1.9842,-1.9842 z m -2.0046,-6.6983 h 4.269 c 4.833,0 8.7627,3.5051 8.7749,8.3367 l 0.0102,4.0037 c 0.009,3.4356 -2.0035,5.428 -4.8966,6.87 3.2865,0.919 5.1764,2.7635 5.1764,8.0036 v 4.0573 c 0,5.2132 -3.8464,9.7622 -9.7623,9.7622 h -2.8862 c -5.7285,0 -9.7622,-3.6601 -9.7622,-10.0457 v -4.0572 c 0,-4.5845 1.5151,-6.8009 5.1763,-7.7202 -3.5963,-1.1608 -4.8696,-3.685 -4.8719,-7.1217 l -0.003,-4.0386 c -0.003,-4.833 3.9424,-8.0501 8.7755,-8.0501 z" />
      <path
         id="path36"
         style="fill:none"
         d="m 297.6911,769.352 c 29.1934,-2.2348 75.7845,-37.3597 110.5316,-76.6876 41.9049,-49.58 78.1053,-101.5991 100.9018,-162.2985 14.7075,-39.1615 23.235,-82.4839 26.1295,-129.2647 5.2239,-84.4254 0.2823,-166.7673 -10.4057,-247.9229 -1.1594,-8.805 -2.6181,-16.9744 -6.12,-23.3008 C 510.7513,115.4659 496.0811,108.65 480.9736,103.678 434.0769,88.2434 357.1381,77.8969 297.6925,77.8028 237.4869,77.7076 161.1986,88.2437 114.302,103.678 c -15.1073,4.972 -29.7777,11.7879 -37.7547,26.1995 -3.5019,6.3264 -4.9606,14.4958 -6.12,23.3008 -10.688,81.1556 -15.6296,163.4975 -10.4057,247.9229 2.8945,46.7808 11.422,90.1032 26.1295,129.2647 22.7965,60.6994 58.9969,112.7185 100.9018,162.2985 34.7471,39.3279 81.4447,74.4528 110.6382,76.6876 z m -0.003,-714.098 c 57.651,0 145.3929,10.8122 194.9516,29.5782 12.6297,4.7823 32.5437,17.261 35.812,38.0627 10.3513,65.8761 14.5605,132.9517 15.1875,200.8131 0.9439,102.13 -11.3848,185.3669 -40.5006,246.3747 -43.9515,92.0953 -97.388,155.8145 -154.4999,194.6245 -16.5449,11.2428 -32.8215,19.0219 -50.9462,21.9285 C 279.5678,783.7291 263.1815,775.95 246.6369,764.7072 189.525,725.8975 136.0885,662.178 92.1368,570.0827 63.021,509.0749 50.6923,425.838 51.6362,323.708 52.2632,255.8466 56.4724,188.771 66.8237,122.8949 70.092,102.0932 90.0062,89.6142 102.6357,84.8322 152.1941,66.0665 241.9123,55.254 297.6883,55.254 Z" />
      <path
         id="path38"
         style="fill:#080808;fill-rule:evenodd"
         d="m 114.302,103.678 c 46.8966,-15.4343 123.1849,-25.9704 183.3905,-25.8752 59.4456,0.0941 136.3844,10.4406 183.2811,25.8752 15.1075,4.972 29.7777,11.7879 37.7547,26.1995 3.5019,6.3264 4.9606,14.4958 6.12,23.3008 10.688,81.1556 15.6296,163.4975 10.4057,247.9229 -2.8945,46.7808 -11.422,90.1032 -26.1295,129.2647 C 486.328,591.0653 450.1276,643.0844 408.2227,692.6644 373.4756,731.9923 326.8845,767.1172 297.6911,769.352 268.4976,767.1172 221.8,731.9923 187.0529,692.6644 145.148,643.0844 108.9476,591.0653 86.1511,530.3659 71.4436,491.2044 62.9161,447.882 60.0216,401.1012 54.7977,316.6758 59.7393,234.3339 70.4273,153.1783 c 1.1594,-8.805 2.6181,-16.9744 6.12,-23.3008 7.977,-14.4116 22.6474,-21.2275 37.7547,-26.1995 z M 297.6883,55.254 c -55.776,0 -145.4942,10.8125 -195.0526,29.5782 -12.6295,4.782 -32.5437,17.261 -35.812,38.0627 -10.3513,65.8761 -14.5605,132.9517 -15.1875,200.8131 -0.9439,102.13 11.3848,185.3669 40.5006,246.3747 43.9517,92.0953 97.3882,155.8148 154.5001,194.6245 16.5446,11.2428 32.9309,19.0219 51.0556,21.9285 18.1247,-2.9066 34.4013,-10.6857 50.9462,-21.9285 C 405.7506,725.8972 459.1871,662.178 503.1388,570.0827 532.2546,509.0749 544.5833,425.838 543.6394,323.708 543.0124,255.8466 538.8032,188.771 528.4519,122.8949 525.1836,102.0932 505.2696,89.6145 492.6399,84.8322 443.0812,66.0662 355.3393,55.254 297.6883,55.254 Z" />
      <path
         id="path40"
         style="fill:none"
         d="m 392.0363,91.0933 c 33.6121,4.6324 67.5136,10.4721 94.7347,21.7032 9.1256,3.765 15.8636,7.992 17.7582,20.5625 5.239,34.7607 9.1446,72.8008 11.6326,108.4847 C 475.6419,230.8122 434.0563,224.93 392.0363,221.1508 Z" />
      <path
         id="path42"
         style="fill:none"
         d="m 108.1196,113.4428 c 33.6648,-13.5513 66.5972,-18.4833 96.7981,-22.7245 v 130.1491 c -43.1921,3.638 -84.1845,11.3371 -124.1255,20.9763 2.4154,-37.1208 5.8734,-73.8357 11.844,-109.6381 1.7014,-10.2027 7.6178,-15.5968 15.4834,-18.7628 z" />
      <path
         id="path44"
         style="fill:none"
         d="m 241.3809,86.125 c 38.1713,-3.8647 75.8919,-4.1349 113.0629,0 v 132.5628 c -37.5613,-2.5347 -75.2516,-2.4653 -113.0629,0 z" />
      <path
         id="path46"
         style="fill:none"
         d="m 241.6561,319.9728 c 37.8247,-2.4114 75.6822,-1.8907 113.2566,0.1979 l -3e-4,383.3538 c -15.5872,12.5841 -28.887,24.0151 -55.4593,32.1831 -21.6774,-4.8631 -45.1134,-21.0713 -57.7908,-33.247 z" />
      <path
         id="path48"
         style="fill:none"
         d="m 391.9861,323.1023 c 43.3052,4.7851 85.3804,12.7556 126.561,21.9155 -0.256,38.1146 -7.8622,104.3246 -19.163,139.7789 -13.9003,43.6099 -32.2994,80.3098 -55.5299,115.2632 -15.5894,23.4558 -32.2971,45.9734 -51.8681,67.6687 z" />
      <path
         id="path50"
         style="fill:none"
         d="m 78.4743,344.6456 c 42.4165,-9.5879 84.6454,-17.2049 126.5621,-21.5433 V 668.8536 C 181.0809,641.9384 160.7289,613.313 142.6632,583.3704 126.794,557.0677 112.1899,529.5152 101.7428,499.1618 86.3073,454.3152 78.6127,403.6853 78.4743,344.6456 Z" />
      <path
         id="path52"
         style="fill:#080808;fill-rule:evenodd"
         d="m 80.7922,241.8437 c 39.941,-9.6392 80.9334,-17.3383 124.1255,-20.9763 V 90.7183 c -30.2009,4.2412 -63.1333,9.1732 -96.7981,22.7245 -7.8656,3.166 -13.782,8.5601 -15.4834,18.7628 -5.9706,35.8024 -9.4286,72.5173 -11.844,109.6381 z" />
      <path
         id="path54"
         style="fill:#080808;fill-rule:evenodd"
         d="m 205.0364,323.1023 c -41.9167,4.3384 -84.1456,11.9554 -126.5621,21.5433 0.1384,59.0397 7.833,109.6696 23.2685,154.5162 10.4471,30.3534 25.0512,57.9059 40.9204,84.2086 18.0657,29.9426 38.4177,58.568 62.3732,85.4832 z" />
      <path
         id="path56"
         style="fill:#ffca34;fill-rule:evenodd"
         d="m 241.6561,319.9728 0.006,382.4878 c 12.6774,12.1757 36.1134,28.3839 57.7908,33.247 26.5723,-8.168 39.8721,-19.599 55.4593,-32.1831 l 3e-4,-383.3538 c -37.5744,-2.0886 -75.4319,-2.6093 -113.2566,-0.1979 z m 83.4483,242.9311 c -0.003,-4.833 3.9424,-8.0501 8.7755,-8.0501 h 4.269 c 4.833,0 8.7627,3.5051 8.7749,8.3367 l 0.0102,4.0037 c 0.009,3.4356 -2.0035,5.428 -4.8966,6.87 3.2865,0.919 5.1764,2.7635 5.1764,8.0036 v 4.0573 c 0,5.2132 -3.8464,9.7622 -9.7623,9.7622 h -2.8862 c -5.7285,0 -9.7622,-3.6601 -9.7622,-10.0457 v -4.0572 c 0,-4.5845 1.5151,-6.8009 5.1763,-7.7202 -3.5963,-1.1608 -4.8696,-3.685 -4.8719,-7.1217 z m -21.9453,-8.0648 10.4216,-0.0111 c -1.5409,9.1154 -5.3107,17.2758 -10.3516,24.8916 l -2e-4,1.4063 h 6.3062 v -6.4755 c 2.1095,-3.4375 3.8242,-6.5868 5.0902,-11.2433 l 3.7068,0.0102 -0.0312,12.0835 v 5.6251 h 2.5782 v 6.5157 h -2.5782 v 8.2502 h -8.7658 v -8.2502 h -11.643 v -8.5 c 3.1504,-8.5073 5.1165,-16.6697 5.267,-24.3025 z m -31.3109,8.5943 c 0,-4.7814 4.0708,-8.5918 11.5299,-8.5912 7.4591,6e-4 10.8765,4.5371 10.8765,9.2007 v 22.172 c 0,7.3625 -6.1372,9.6877 -11.2144,9.6903 -6.6759,0.004 -10.9947,-2.8046 -11.0693,-10.1931 l 8.6239,8e-4 c 0.0289,2.4979 0.896,3.5674 2.6779,3.5663 1.6565,-10e-4 2.4142,-1.527 2.4037,-2.666 L 285.63,581.667 c -2.4767,1.7969 -5.3215,1.7266 -5.8587,1.7195 -5.9074,-0.0808 -7.9231,-4.4869 -7.9231,-9.2656 z m -6.7558,-8.5923 -0.006,41.0629 h -8.7429 v -30.2675 l -6.7969,0.0471 0.053,-6.0327 c 3.6672,-0.0816 6.5067,-1.4159 7.9861,-4.8098 z" />
      <path
         id="path58"
         style="fill:#ffca34;fill-rule:evenodd"
         d="m 280.6608,574.1209 c 0,1.1648 0.7555,2.467 2.4611,2.4837 1.7129,0.0168 2.4165,-1.5069 2.4139,-2.719 l -0.0235,-10.2413 c -0.002,-1.0766 -1.3028,-2.1319 -2.3788,-2.1305 -1.1155,0.002 -2.4727,0.8028 -2.4727,1.9196 z" />
      <path
         id="path60"
         style="fill:#ffca34;fill-rule:evenodd"
         d="m 333.9003,563.5363 v 4.8442 c 0,1.0913 0.8929,1.9842 1.9842,1.9842 h 0.1565 c 1.0913,0 1.9843,-0.8929 1.9843,-1.9842 v -4.8442 c 0,-1.0913 -0.893,-1.9842 -1.9843,-1.9842 h -0.1565 c -1.0913,0 -1.9842,0.8929 -1.9842,1.9842 z" />
      <path
         id="path62"
         style="fill:#ffca34;fill-rule:evenodd"
         d="m 335.8845,577.4182 c -1.0913,0 -1.9842,0.8929 -1.9842,1.9842 v 7.7973 c 0,1.0913 0.8929,1.9842 1.9842,1.9842 h 0.1565 c 1.0913,0 1.9843,-0.8929 1.9843,-1.9842 v -7.7973 c 0,-1.0913 -0.893,-1.9842 -1.9843,-1.9842 z" />
      <path
         id="path64"
         style="fill:#ffca34;fill-rule:evenodd"
         d="m 241.3809,218.6878 c 37.8113,-2.4653 75.5016,-2.5347 113.0629,0 V 86.125 c -37.171,-4.1349 -74.8916,-3.8647 -113.0629,0 z m 80.5807,-39.1569 H 309.024 v -58.9227 h 12.9376 v 23.7626 l 9.3356,-23.6962 15.5444,0.005 -13.2602,22.8195 12.3982,36.0153 -14.2532,-0.0108 -6.8448,-21.0328 -3.1074,5.3473 z m -19.7742,-22.3631 c -0.005,8.4625 -4.5558,16.7944 -20.0758,16.2853 l 0.006,5.9581 h -12.4688 v -5.8237 c -13.5003,0.9099 -19.9689,-7.6295 -19.9689,-16.3015 v -16.1252 c 0,-8.2876 7.5001,-16.4375 19.9689,-14.8124 v -5.7189 h 12.4688 v 6.0006 c 10.6347,-2.4689 20.084,6.3017 20.0795,14.4896 z" />
      <path
         id="path66"
         style="fill:#ffca34;fill-rule:evenodd"
         d="m 262.2421,157.286 c 0,3.2975 2.5937,7.9846 7.4064,7.1251 l -0.0584,-28.3362 c -3.6173,-0.7577 -7.348,2.1464 -7.348,5.0859 z" />
      <path
         id="path68"
         style="fill:#ffca34;fill-rule:evenodd"
         d="m 282.1173,136.192 0.0235,28.1137 c 5.0663,1.1288 7.4823,-3.2751 7.4409,-6.4454 l -0.2171,-16.4648 c -0.0374,-2.8516 -2.3474,-6.6878 -7.2473,-5.2035 z" />
      <path
         id="path70"
         style="fill:#00ad5e;fill-rule:evenodd"
         d="m 392.0363,91.0933 v 130.0575 c 42.02,3.7792 83.6056,9.6614 124.1255,20.6929 -2.488,-35.6839 -6.3936,-73.724 -11.6326,-108.4847 -1.8946,-12.5705 -8.6326,-16.7975 -17.7582,-20.5625 -27.2211,-11.2311 -61.1226,-17.0708 -94.7347,-21.7032 z" />
      <path
         id="path72"
         style="fill:#00ad5e;fill-rule:evenodd"
         d="m 518.5471,345.0178 c -41.1806,-9.1599 -83.2558,-17.1304 -126.561,-21.9155 v 344.6263 c 19.571,-21.6953 36.2787,-44.2129 51.8681,-67.6687 23.2305,-34.9534 41.6296,-71.6533 55.5299,-115.2632 11.3008,-35.4543 18.907,-101.6643 19.163,-139.7789 z" />
    </g>
    <path
       id="path75"
       style="fill:#ffffff;fill-rule:evenodd"
       d="m 241.6623,702.4606 -0.006,-382.4878 c 37.8247,-2.4114 75.6822,-1.8907 113.2566,0.1979 l -3e-4,383.3538 c -15.5872,12.5841 -28.887,24.0151 -55.4593,32.1831 -21.6774,-4.8631 -45.1134,-21.0713 -57.7908,-33.247 z m 150.3238,-34.732 V 323.1023 c 43.3052,4.7851 85.3804,12.7556 126.561,21.9155 -0.256,38.1146 -7.8622,104.3246 -19.163,139.7789 -13.9003,43.6099 -32.2994,80.3098 -55.5299,115.2632 -15.5894,23.4558 -32.2971,45.9734 -51.8681,67.6687 z m -174.5937,-367.7157 -13.0836,1.2496 -0.0644,-59.6209 13.1627,-1.2353 -0.006,23.5142 9.0728,-24.2549 14.8504,-1.0188 -11.573,24.7204 11.4636,34.8506 -14.1256,0.9895 -6.3125,-22.3361 -3.3803,6.7841 z m -12.4747,-79.1455 c -43.1921,3.638 -84.1845,11.3371 -124.1255,20.9763 2.4154,-37.1208 5.8734,-73.8357 11.844,-109.6381 1.7014,-10.2027 7.6178,-15.5968 15.4834,-18.7628 33.6648,-13.5513 66.5972,-18.4833 96.7981,-22.7245 z m 81.8611,75.6397 10.6835,-59.5415 17.8161,0.18 10.8711,59.6971 -13.642,-0.3062 -1.5911,-11.0007 -9.6871,0.0366 -1.7036,10.8595 z m 67.665,-77.8193 c -37.5613,-2.5347 -75.2516,-2.4653 -113.0629,0 V 86.125 c 38.1713,-3.8647 75.8919,-4.1349 113.0629,0 z m -9.7721,78.8922 -13.4893,-0.5735 v -59.4116 l 13.4893,0.5944 v 21.8611 l 7.785,0.375 -0.047,-21.8072 14.0207,0.9403 0.0924,59.3662 -14.1131,-0.9056 0.5077,-25.545 -8.2457,-0.5173 z m 33.8459,-31.5284 v -25.5141 l 11.8032,1.1064 8.5541,0.8938 12.6573,1.4655 0.0878,46.9165 2.0226,0.2401 0.0119,20.0276 -12.1768,-1.6588 v -7.388 l -2.6065,-0.2849 -15.3,-1.5375 v 7.945 l -12.1408,-0.9845 3e-4,-20.4843 c 5.2603,-2.016 7.0869,-15.6872 7.0869,-20.7428 z M 516.1618,241.8437 C 475.6419,230.8122 434.0563,224.93 392.0363,221.1508 V 91.0933 c 33.6121,4.6324 67.5136,10.4721 94.7347,21.7032 9.1256,3.765 15.8636,7.992 17.7582,20.5625 5.239,34.7607 9.1446,72.8008 11.6326,108.4847 z m 8.6865,-88.6654 c -1.1594,-8.805 -2.6181,-16.9744 -6.12,-23.3008 C 510.7513,115.4659 496.0811,108.65 480.9736,103.678 434.0769,88.2434 357.1381,77.8969 297.6925,77.8028 237.4869,77.7076 161.1986,88.2437 114.302,103.678 c -15.1073,4.972 -29.7777,11.7879 -37.7547,26.1995 -3.5019,6.3264 -4.9606,14.4958 -6.12,23.3008 -10.688,81.1556 -15.6296,163.4975 -10.4057,247.9229 2.8945,46.7808 11.422,90.1032 26.1295,129.2647 22.7965,60.6994 58.9969,112.7185 100.9018,162.2985 34.7471,39.3279 81.4447,74.4528 110.6382,76.6876 29.1934,-2.2348 75.7845,-37.3597 110.5316,-76.6876 41.9049,-49.58 78.1053,-101.5991 100.9018,-162.2985 14.7075,-39.1615 23.235,-82.4839 26.1295,-129.2647 5.2239,-84.4254 0.2823,-166.7673 -10.4057,-247.9229 z M 205.0364,323.1023 V 668.8536 C 181.0809,641.9384 160.7289,613.313 142.6632,583.3704 126.794,557.0677 112.1899,529.5152 101.7428,499.1618 86.3073,454.3152 78.6127,403.6853 78.4743,344.6456 c 42.4165,-9.5879 84.6454,-17.2049 126.5621,-21.5433 z m -8.2292,-21.0388 -16.7698,2.0135 -13.8141,1.8904 -0.0158,-59.6849 13.8126,-1.8697 16.407,-1.9443 0.002,11.323 -16.4061,1.7113 0.003,11.719 14.1106,-1.4531 0.0431,11.6796 -14.1503,1.586 0.004,12.9396 16.7831,-2.4378 z m 65.5818,-4.9215 c -8.3053,0.3637 -15.9446,-5.6523 -15.9446,-14.0482 v -31.0314 c 0,-9.1951 6.98,-15.1181 17.7644,-15.4627 8.5709,-0.2742 17.1111,3.9549 17.1111,14.7126 v 7.5002 h -13.6877 l -0.0272,-7.4826 c -0.006,-1.823 -1.4145,-4.4881 -3.9858,-4.0686 -3.1498,0.5142 -3.7684,2.6337 -3.7684,4.8011 v 31.0314 c 0,2.1243 1.8298,4.4597 4.2282,3.998 3.5206,-0.6778 3.5532,-4.1698 3.5532,-7.0195 v -7.5001 h 13.6877 v 7.5001 c 0,8.4963 -4.523,16.4387 -18.9309,17.0697 z m 213.3853,16.1583 -13.4561,-2.5055 v -59.2115 l 13.2256,2.4185 z m 7.3726,-1.7617 -0.003,-18.9703 c -8e-4,-6.8638 3.024,-6.6608 6.9885,-8.007 -4.6913,-1.8882 -6.7612,-6.3992 -6.7612,-10.5863 v -5.7971 c 0,-9.0921 5.2949,-11.7425 14.4984,-9.6795 l 6.1257,1.3244 13.3622,3.0243 -0.003,59.2435 -13.2443,-2.9968 -0.0476,-24.588 c 0.0124,-1.5729 -2.8942,-2.3261 -4.5332,-2.1878 -2.5693,0.2171 -3.784,2.5506 -3.7831,4.6486 l 0.007,18.2522 c 5e-4,1.1209 -0.9434,1.692 -2.0452,1.4843 l -12.202,-2.2989 -0.0108,-1.7538 c 0.898,0.151 1.6517,-0.152 1.6517,-1.1118 z m -63.4813,-7.1473 v -59.3569 l 13.3968,1.8508 4.8538,0.7171 c 12.367,1.827 16.7088,9.04 16.7088,16.4764 v 4.875 c 0,15.5849 -8.496,15.6946 -16.0228,14.6733 l -5.5276,-0.7501 0.008,23.2949 z m -260.392,-57.0909 v 59.5148 l -13.8262,2.3902 0.0757,-48.1257 -7.695,1.0312 0.0258,33.6419 c 0.003,4.4214 -2.2873,10.2841 -4.2639,12.5623 -2.4281,2.7989 -5.7112,3.9988 -9.7568,4.763 -1.8454,0.3543 -3.6388,0.201 -5.4768,0.2058 l 0.0343,-11.0792 c 3.8185,-0.0998 5.9714,-2.804 5.9714,-6.4519 v -42.5172 l 13.4572,-2.448 7.7219,-1.3136 z m -46.4085,53.9334 c 0.0266,8.4121 -9.5386,16.6944 -17.875,17.8144 -11.0732,1.4876 -16.5314,-4.364 -16.5314,-12.3767 v -30.5626 c 0,-10.2483 8.6596,-16.1671 17.4444,-18.0583 10.0985,-2.1745 16.8316,2.3652 16.8639,12.5288 z" />
    <path
       id="path77"
       style="fill:#ffffff;fill-rule:evenodd"
       d="m 99.6474,303.3221 v -31.6406 c 0,-2.59 -2.2685,-3.3814 -3.9843,-3.0475 -1.7493,0.3401 -3.5113,1.8981 -3.5156,4.0317 l -0.0711,32.6645 c -0.0063,2.9866 1.8193,3.9489 3.638,3.4639 2.3595,-0.6296 3.933,-1.9063 3.933,-5.472 z" />
    <path
       id="path79"
       style="fill:#ffffff;fill-rule:evenodd"
       d="m 306.0938,245.8797 -3.4455,29.016 6.8565,0.1434 z" />
    <path
       id="path81"
       style="fill:#ffffff;fill-rule:evenodd"
       d="m 390.3208,266.0516 c 0,7.3389 -1.9247,18.5103 -4.6684,21.9762 l 13.2197,1.3215 0.002,-35.1096 -8.5532,-1.4999 z" />
    <path
       id="path83"
       style="fill:#ffffff;fill-rule:evenodd"
       d="m 433.0658,257.0956 0.005,14.625 c 5.2042,2.1345 7.3423,-0.019 8.0541,-2.7669 0.5701,-2.2002 0.5522,-4.3676 0,-6.5625 -0.9805,-3.8976 -4.7149,-5.0116 -8.0592,-5.2956 z" />
    <path
       id="path85"
       style="fill:#ffffff;fill-rule:evenodd"
       d="m 496.0037,277.2924 c 0.732,4.4708 3.9277,6.4145 7.9393,6.2442 l 0.0726,-13.2188 c -4.4785,-2.0004 -7.5813,-0.7991 -8.0354,2.1387 -0.1973,1.277 -0.3336,2.6549 0.0235,4.8359 z" />
  </g>
</svg>
