<?xml version="1.0" encoding="UTF-8" standalone="no"?>
<svg
   xmlns:dc="http://purl.org/dc/elements/1.1/"
   xmlns:cc="http://creativecommons.org/ns#"
   xmlns:rdf="http://www.w3.org/1999/02/22-rdf-syntax-ns#"
   xmlns:svg="http://www.w3.org/2000/svg"
   xmlns="http://www.w3.org/2000/svg"
   xmlns:sodipodi="http://sodipodi.sourceforge.net/DTD/sodipodi-0.dtd"
   xmlns:inkscape="http://www.inkscape.org/namespaces/inkscape"
   version="1.1"
   width="190.99736"
   height="252"
   id="svg70"
   viewBox="0 0 190.99736 252"
   sodipodi:docname="f-pyunik-yerevan.svg"
   inkscape:version="0.92.4 (5da689c313, 2019-01-14)">
  <metadata
     id="metadata76">
    <rdf:RDF>
      <cc:Work
         rdf:about="">
        <dc:format>image/svg+xml</dc:format>
        <dc:type
           rdf:resource="http://purl.org/dc/dcmitype/StillImage" />
        <dc:title></dc:title>
      </cc:Work>
    </rdf:RDF>
  </metadata>
  <defs
     id="defs74" />
  <sodipodi:namedview
     pagecolor="#ffffff"
     bordercolor="#666666"
     borderopacity="1"
     objecttolerance="10"
     gridtolerance="10"
     guidetolerance="10"
     inkscape:pageopacity="0"
     inkscape:pageshadow="2"
     inkscape:window-width="1366"
     inkscape:window-height="705"
     id="namedview72"
     showgrid="false"
     fit-margin-top="1"
     fit-margin-right="1"
     fit-margin-bottom="1"
     fit-margin-left="1"
     inkscape:zoom="0.56064347"
     inkscape:cx="425.08637"
     inkscape:cy="228.84586"
     inkscape:window-x="-8"
     inkscape:window-y="-8"
     inkscape:window-maximized="1"
     inkscape:current-layer="svg70" />
  <g
     id="Layer1000"
     transform="matrix(0.44097225,0,0,0.44097225,-35.751333,-59.624953)">
    <path
       d="m 297.638,275.8168 c 4.9037,0 9.7647,0.1803 14.5862,0.5046 l 0.0562,-17.6857 8.7251,-0.003 12.4756,-28.8272 35.7938,-16.7538 -14.2717,70.5459 c 90.4856,25.0867 156.9308,108.0533 156.9308,206.5157 0,118.3324 -95.9636,214.296 -214.296,214.296 -118.3328,0 -214.2964,-95.9636 -214.2964,-214.296 0,-98.5929 66.6219,-181.647 157.2912,-206.6132 l -14.0102,-70.4484 35.6942,16.8375 12.3247,28.7598 8.7586,-0.003 -0.035,17.6558 c 4.719,-0.3105 9.4754,-0.4848 14.2729,-0.4848 z"
       style="fill:#053887;fill-rule:evenodd"
       id="path2"
       inkscape:connector-curvature="0" />
    <path
       d="m 297.6378,289.1111 c 110.9916,0 201.002,90.0104 201.002,201.002 0,110.9916 -90.0104,201.002 -201.002,201.002 -110.9916,0 -201.002,-90.0104 -201.002,-201.002 0,-110.9916 90.0104,-201.002 201.002,-201.002 z"
       style="fill:#053887;fill-rule:evenodd"
       id="path4"
       inkscape:connector-curvature="0" />
    <path
       d="m 297.6378,359.2277 c 72.2737,0 130.8854,58.6117 130.8854,130.8854 0,72.2737 -58.6117,130.8854 -130.8854,130.8854 -72.2737,0 -130.8854,-58.6117 -130.8854,-130.8854 0,-72.2737 58.6117,-130.8854 130.8854,-130.8854 z"
       style="fill:#e20040;fill-rule:evenodd"
       id="path6"
       inkscape:connector-curvature="0" />
    <path
       d="m 298.054,365.9885 c 68.478,0 124.0111,55.5135 124.0111,123.967 0,68.4535 -55.5331,123.967 -124.0111,123.967 -68.478,0 -124.0112,-55.5135 -124.0112,-123.967 0,-68.4535 55.5332,-123.967 124.0112,-123.967 z"
       style="fill:#ffffff;fill-rule:evenodd"
       id="path8"
       inkscape:connector-curvature="0" />
    <path
       d="m 381.7798,410.5305 c 19.6488,20.69 31.7084,48.6519 31.7084,79.425 0,63.7173 -51.6924,115.39 -115.4342,115.39 -63.7418,0 -115.4342,-51.6727 -115.4342,-115.39 0,-30.8044 12.4947,-58.7927 32.2847,-79.4891 l 19.7208,9.6596 8.7543,19.3835 c -20.3405,14.07 -32.3903,36.6579 -33.2615,61.1732 -1.0817,30.4396 14.8075,64.8493 51.5941,71.4968 -2.5654,-42.0843 21.0465,-55.8289 28.454,-58.4914 -3.6628,-5.6753 -7.1909,-11.4693 -10.8284,-27.2391 4.6069,5.1091 13.9637,10.2448 24.2636,14.9717 16.0693,7.3747 33.6611,14.9928 35.8902,29.4361 0.7591,4.9183 0.2788,11.0729 -3.1917,17.5699 -1.7353,-2.6449 -2.9093,-5.2664 -4.6905,-6.7228 -5.7837,-4.7287 -12.5886,-3.5635 -16.6595,0.2414 -3.592,3.3573 -4.8959,8.7704 -3.7676,14.0026 0.9216,4.2738 3.3495,9.9121 9.3675,13.6217 7.9833,4.9206 18.8888,5.2499 27.4832,2.0724 25.1341,-9.293 39.0631,-43.3544 38.7333,-69.2439 -0.3041,-23.8645 -13.6861,-48.6101 -33.0903,-62.7057 l 7.9744,-19.3678 z"
       style="fill:#e20040;fill-rule:evenodd"
       id="path10"
       inkscape:connector-curvature="0" />
    <g
       id="Layer1001">
      <path
         d="m 241.358,558.0447 c -7.6966,-16.4047 -8.9177,-35.6025 -4.7457,-50.0191 4.4414,-15.3465 15.4032,-28.1365 32.8854,-38.369 l -7.2154,-15.1527 -15.152,-6.8542 c -20.5659,15.0559 -28.043,37.0571 -28.6284,56.3426 -0.5328,17.5583 6.7393,35.5562 22.8561,54.0524 z"
         style="fill:#e20040;fill-rule:evenodd"
         id="path12"
         inkscape:connector-curvature="0" />
      <path
         d="m 355.1347,557.645 c 7.6965,-16.4047 8.5956,-35.6031 4.424,-50.0191 -4.4407,-15.3461 -15.4032,-27.922 -32.8853,-38.1545 l 7.1081,-14.9383 15.152,-7.2831 c 20.5659,15.056 28.1507,37.0576 28.7356,56.3426 0.5324,17.5579 -6.4177,35.5562 -22.5344,54.0524 z"
         style="fill:#e20040;fill-rule:evenodd"
         id="path14"
         inkscape:connector-curvature="0" />
    </g>
    <path
       d="m 464.9497,467.0709 c 12.6463,0 22.902,10.2557 22.902,22.902 0,12.6462 -10.2557,22.9019 -22.902,22.9019 -12.6463,0 -22.902,-10.2557 -22.902,-22.9019 0,-12.6463 10.2557,-22.902 22.902,-22.902 z"
       style="fill:#f8b302;fill-rule:evenodd"
       id="path17"
       inkscape:connector-curvature="0" />
    <path
       d="m 455.2586,473.3162 c -0.2955,2.9031 0.7052,5.5881 2.2853,8.1663 1.1579,1.8885 3.5093,4.2182 5.5596,5.601 -2e-4,-2.9432 -0.7084,-5.2161 -2.1792,-7.8621 -1.3251,-2.3833 -3.2455,-4.5904 -5.6657,-5.9052 z m 19.3406,0.1327 c -2.6619,1.1956 -4.4868,3.4049 -5.9297,6.0624 -1.0196,1.8788 -1.8393,4.926 -2.0503,7.3539 0.4025,-0.1958 0.8279,-0.3845 1.2687,-0.5637 1.8379,-1.3041 3.1538,-2.8636 4.43,-4.9933 1.4015,-2.3394 2.3527,-5.1059 2.2813,-7.8593 z m -26.6977,6.6808 c 1.1178,-1.936 2.515,-3.6089 4.1114,-5.0001 0.1694,2.8072 1.2198,5.4736 2.7888,8.0336 0.3816,0.6229 0.8572,1.273 1.3969,1.9234 -0.6239,-0.0566 -1.2666,-0.0882 -1.9354,-0.0991 -3.0038,-0.0487 -6.0879,0.5277 -8.7607,1.9103 0.3658,-2.3199 1.1547,-4.6127 2.399,-6.7681 z m 13.9185,9.954 0.1526,0.0941 c -0.3053,0.1714 -0.6008,0.3461 -0.8864,0.5254 -2.1061,0.8635 -4.7141,1.5082 -6.6072,1.5582 -3.023,0.0793 -5.8485,-0.3967 -8.2148,-2.1041 2.3488,-1.4384 5.2201,-1.998 7.9467,-1.9539 2.9121,0.0472 5.1721,0.5335 7.6091,1.8803 z m -5.6906,5.2643 c -0.4345,0.5957 -0.8504,1.2315 -1.2589,1.9131 -1.4028,2.3411 -2.3911,4.9972 -2.6649,7.7178 -3.5298,-2.9912 -5.804,-7.0666 -6.6126,-11.4352 2.6662,1.5129 5.7202,2.0183 8.9704,1.9328 0.4939,-0.0129 1.0194,-0.0575 1.566,-0.1285 z m 6.9754,-2.0156 c 0.0176,0.3924 0.0472,0.7775 0.0877,1.1556 -0.3268,2.1867 -1.0483,4.627 -1.9148,6.2232 -1.4427,2.6576 -3.2676,4.8666 -5.9295,6.0622 -0.0714,-2.7532 0.8796,-5.5197 2.2813,-7.8591 1.3955,-2.3286 2.8372,-3.9765 4.9577,-5.3533 0.1756,-0.0748 0.3482,-0.1509 0.5176,-0.2286 z m 1.8307,7.0975 c 0.2239,0.4661 0.469,0.9366 0.7344,1.4141 1.4568,2.6205 3.493,4.9984 6.0196,6.6218 -4.1307,1.5034 -8.7402,1.6226 -13.0623,0.1527 2.3035,-1.5481 4.0627,-3.7668 5.4772,-6.3729 0.2957,-0.5446 0.5743,-1.1585 0.8311,-1.8157 z m 1.6543,-7.78 0.1999,0.1117 c 1.9244,1.4035 4.005,3.5185 5.0717,5.2586 1.5803,2.5782 2.5808,5.2632 2.2854,8.1663 -2.42,-1.3148 -4.3404,-3.5217 -5.6655,-5.9052 -1.103,-1.9843 -1.7776,-3.7595 -2.0459,-5.7644 0.0839,-0.6475 0.1366,-1.2758 0.1544,-1.867 z m 6.9969,2.2378 c 0.7297,0.0778 1.4857,0.1211 2.2763,0.134 2.908,0.0471 5.8909,-0.4926 8.5034,-1.7812 -0.3784,2.2535 -1.1585,4.4795 -2.3683,6.5748 -1.2263,2.1239 -2.7899,3.9311 -4.5827,5.3964 0.009,-3.1164 -1.0871,-6.0585 -2.8117,-8.8722 -0.2893,-0.4719 -0.633,-0.9602 -1.017,-1.4518 z m -5.3128,-5.0158 c 0.3982,-0.232 0.7792,-0.4705 1.144,-0.7175 2.0333,-0.7867 4.4484,-1.3597 6.2294,-1.4066 3.0229,-0.0794 5.8486,0.3967 8.215,2.1041 -2.3488,1.4384 -5.2201,1.998 -7.947,1.9538 -2.834,-0.0458 -5.0514,-0.5088 -7.415,-1.7752 z m 5.694,-5.2082 c 0.3804,-0.5343 0.7482,-1.1002 1.1088,-1.7023 1.4405,-2.4037 2.4436,-5.1406 2.6852,-7.9371 3.472,2.9698 5.7166,6.993 6.5312,11.307 -2.6087,-1.4094 -5.577,-1.8816 -8.7301,-1.7986 -0.5021,0.0131 -1.0384,0.0579 -1.5951,0.131 z m -9.0566,-4.6122 c -0.3323,-0.7878 -0.7237,-1.5793 -1.1759,-2.3926 -1.3399,-2.4105 -3.1713,-4.6152 -5.4223,-6.217 4.2022,-1.5027 8.8904,-1.5771 13.2647,-0.008 -2.4316,1.5535 -4.2675,3.8399 -5.7348,6.5429 -0.3343,0.6158 -0.648,1.3191 -0.9317,2.0748 z"
       style="fill:#053887;fill-rule:evenodd"
       id="path19"
       inkscape:connector-curvature="0" />
    <path
       d="m 355.0024,283.601 c 90.4847,25.0891 156.9316,108.0499 156.9316,206.5123 0,118.3324 -95.9636,214.296 -214.296,214.296 -118.3328,0 -214.2964,-95.9636 -214.2964,-214.296 0,-98.5929 66.6221,-181.6459 157.2908,-206.6147 l -14.0098,-70.4469 15.4537,7.2898 11.6198,59.9952 h 3e-4 l 2.5289,13.0567 c -91.1291,19.0959 -159.5895,99.9249 -159.5895,196.7197 0,110.9916 90.0104,201.002 201.002,201.002 110.9916,0 201.002,-90.0104 201.002,-201.002 0,-96.6552 -68.2638,-177.3877 -159.1962,-196.634 l 0.7567,-3.8913 13.4621,-69.2285 15.6125,-7.3076 z"
       style="fill:#e20040;fill-rule:evenodd"
       id="path21"
       inkscape:connector-curvature="0" />
    <path
       d="m 297.9834,137.4802 22.3953,50.2082 -22.3953,50.2082 -22.395,-50.2082 z"
       style="fill:#053887;fill-rule:evenodd"
       id="path23"
       inkscape:connector-curvature="0" />
    <path
       d="m 122.0088,471.9623 c 2.5587,-3.5588 6.207,-5.6528 10.7146,-5.186 3.988,0.4127 7.5856,2.6374 9.6529,5.9056 4.5306,0.3491 8.3271,2.4625 10.2306,6.7199 1.6635,3.7204 1.5048,8.0278 -0.3778,11.4815 1.7968,3.9915 1.7836,8.1929 -0.8717,11.8593 -2.4302,3.3562 -6.3276,5.384 -10.3296,5.4168 -2.5628,3.6341 -6.243,5.782 -10.8027,5.3098 -4.0659,-0.4209 -7.7265,-2.7247 -9.7726,-6.0984 -4.2224,-0.5046 -7.731,-2.6139 -9.5362,-6.6519 -1.6925,-3.7852 -1.4989,-8.1775 0.4773,-11.6606 -1.7266,-3.9447 -1.6794,-8.0842 0.9411,-11.7028 2.2973,-3.1726 5.9058,-5.1577 9.6741,-5.3932 z m 21.8507,4.1766 c 0.1151,0.4608 0.2032,0.9327 0.2622,1.4149 0.7767,6.3564 -3.4957,12.0108 -9.3403,14.0268 3.5219,2.7092 8.5542,3.2981 12.2567,0.5114 3.4878,-2.6252 4.3772,-7.4752 2.6327,-11.3773 -1.1626,-2.6001 -3.2503,-4.0121 -5.8113,-4.5758 z m -11.9574,17.2229 c -0.5995,4.4144 1.4058,9.0856 5.681,10.903 4.0172,1.7081 8.6623,0.0534 11.1693,-3.4084 1.5951,-2.2026 1.8301,-4.5941 1.1583,-6.9817 -0.2961,0.2758 -0.6085,0.5389 -0.9383,0.7872 -5.2099,3.9207 -12.4061,2.9447 -17.0703,-1.3001 z m -2.9916,-1.5462 c -4.2686,1.6127 -7.4675,5.7676 -6.891,10.4858 0.5295,4.333 4.2851,7.5284 8.5367,7.9686 2.7935,0.2893 5.0362,-0.7779 6.7938,-2.6642 -0.3446,-0.1098 -0.6866,-0.2365 -1.0254,-0.3806 -5.9927,-2.5482 -8.7463,-9.2546 -7.4141,-15.4096 z m -0.2252,-3.3191 c -3.5191,-2.6719 -8.5177,-3.2395 -12.2002,-0.4678 -3.4879,2.6249 -4.3773,7.4752 -2.6327,11.3773 1.0637,2.379 2.9022,3.7634 5.1689,4.4131 -0.0822,-0.3691 -0.1478,-0.745 -0.1945,-1.1275 -0.7994,-6.5429 3.7505,-12.3424 9.8585,-14.1951 z m 3.0824,-1.6028 c 0.6696,-4.4602 -1.3327,-9.2215 -5.6587,-11.0606 -4.0172,-1.7081 -8.6623,-0.0532 -11.1693,3.4087 -1.5713,2.17 -1.8228,4.5233 -1.1875,6.8757 0.2543,-0.2292 0.5202,-0.4492 0.7985,-0.6587 5.2646,-3.9621 12.5582,-2.9243 17.217,1.4349 z m 3.0527,1.2062 c 3.8689,-1.8016 6.6493,-5.7307 6.1085,-10.1558 -0.5294,-4.3331 -4.285,-7.5284 -8.5366,-7.9686 -2.6492,-0.2743 -4.8031,0.6715 -6.5176,2.3788 0.5028,0.1374 1.0013,0.3098 1.4928,0.5187 5.9335,2.5227 8.6917,9.122 7.4529,15.2269 z"
       style="fill:#f8b302;fill-rule:evenodd"
       id="path25"
       inkscape:connector-curvature="0" />
    <path
       d="m 316.5416,515.7451 c 2.7937,3.3103 4.9959,6.0116 5.8958,10.5454 l 5.5922,0.0223 c -1.3878,-5.0184 -7.4727,-8.128 -11.488,-10.5677 z"
       style="fill:#f8b302;fill-rule:evenodd"
       id="path27"
       inkscape:connector-curvature="0" />
    <g
       id="Layer1002">
      <path
         d="m 293.2344,400.6634 9.6952,-0.0579 c 1.4293,-0.009 2.4605,0.4683 2.9562,1.9622 l 3.2166,9.6986 c 0.2537,0.7644 0.0482,1.636 -1.1856,2.56 l -8.1592,6.1113 c -0.9231,0.6913 -2.0553,0.5058 -2.8787,-0.0881 l -8.1899,-5.9057 c -1.1375,-0.8202 -1.3395,-1.4995 -0.8945,-2.8982 l 3.0877,-9.7024 c 0.3139,-0.9862 0.8384,-1.6706 2.3522,-1.6798 z"
         style="fill:#e20040;fill-rule:evenodd"
         id="path29"
         inkscape:connector-curvature="0" />
      <path
         d="m 318.4991,416.0146 7.0989,-5.1045 c 0.1147,1.0193 0.1758,2.055 0.1758,3.105 0,5.7487 -1.7683,11.0847 -4.7889,15.4958 l -3.4312,-10.7647 c -0.3144,-0.9859 -0.2837,-1.8475 0.9454,-2.7316 z"
         style="fill:#e20040;fill-rule:evenodd"
         id="path31"
         inkscape:connector-curvature="0" />
      <path
         d="m 309.4152,393.1017 -1.5466,-4.8404 c 3.8652,1.4358 7.3187,3.7175 10.1382,6.6189 l -6.2859,-0.0352 c -1.0348,-0.006 -1.8447,-0.3011 -2.3057,-1.7433 z"
         style="fill:#e20040;fill-rule:evenodd"
         id="path33"
         inkscape:connector-curvature="0" />
      <path
         d="m 285.028,394.8424 -6.3511,-0.0311 c 2.8847,-2.9485 6.428,-5.2495 10.3914,-6.6662 l -1.6699,5.0433 c -0.3253,0.9822 -0.8564,1.6613 -2.3704,1.654 z"
         style="fill:#e20040;fill-rule:evenodd"
         id="path35"
         inkscape:connector-curvature="0" />
      <path
         d="m 279.2795,418.6705 -3.5747,10.9461 c -3.065,-4.4315 -4.862,-9.8067 -4.862,-15.6015 0,-1.1956 0.0765,-2.3734 0.2249,-3.5287 l 7.371,5.4184 c 0.8339,0.6131 1.3104,1.3265 0.8408,2.7657 z"
         style="fill:#e20040;fill-rule:evenodd"
         id="path37"
         inkscape:connector-curvature="0" />
      <path
         d="m 299.9611,431.8959 9.7545,7.109 c -3.4745,1.5891 -7.3375,2.4758 -11.4073,2.4758 -4.0239,0 -7.846,-0.8661 -11.2901,-2.4215 l 10.0529,-7.2184 c 0.8407,-0.6036 1.6665,-0.8362 2.89,0.0551 z"
         style="fill:#e20040;fill-rule:evenodd"
         id="path39"
         inkscape:connector-curvature="0" />
    </g>
    <g
       id="Layer1003">
      <path
         d="m 298.4974,643.1418 v 9.4758 h 11.2392 v 7.0349 h -11.2392 v 9.3686 h 15.2129 l -2.0409,7.0348 h -13.172 v 0.0352 h -7.1241 v -0.0352 h -10e-4 v -7.0348 h 10e-4 v -25.8793 h -10e-4 v -7.0348 h 22.338 l -2.0409,7.0348 z"
         style="fill:#f8b302;fill-rule:evenodd"
         id="path42"
         inkscape:connector-curvature="0" />
      <path
         d="m 216.8317,619.6051 -4.8398,8.1466 9.6627,5.7405 -3.593,6.048 -9.6627,-5.7405 -4.785,8.0545 13.079,7.77 -5.3476,5.0057 -11.3244,-6.7277 -0.018,0.0303 -6.1247,-3.6386 0.0179,-0.0302 -9e-4,-6e-4 3.593,-6.048 0.001,5e-4 13.2178,-22.2491 -9e-4,-6e-4 3.593,-6.048 19.2047,11.4091 -5.3477,5.0057 z"
         style="fill:#f8b302;fill-rule:evenodd"
         id="path44"
         inkscape:connector-curvature="0" />
      <path
         d="m 398.9238,597.2467 30.7939,-2.0239 -16.2666,-14.4692 4.7347,-5.323 30.1958,26.8593 -31.0127,1.8292 16.3252,14.5214 -4.7348,5.3229 z"
         style="fill:#f8b302;fill-rule:evenodd"
         id="path46"
         inkscape:connector-curvature="0" />
      <path
         d="m 325.591,306.3404 16.7206,25.938 4.7514,-21.2459 6.9523,1.5548 -8.82,39.4387 -16.6567,-26.2238 -4.7685,21.3224 -6.9523,-1.5547 z"
         style="fill:#f8b302;fill-rule:evenodd"
         id="path48"
         inkscape:connector-curvature="0" />
      <path
         d="m 409.6336,640.7079 -6.9455,4.1463 -5.8466,-4.3836 -12.2615,7.3198 1.0248,7.2622 -6.7614,4.0363 -5.3068,-43.8683 z m -18.5724,-4.571 -9.0871,-6.8131 1.5928,11.287 z"
         style="fill:#f8b302;fill-rule:evenodd"
         id="path50"
         inkscape:connector-curvature="0" />
      <path
         d="m 355.9169,625.8069 -7.7928,2.1687 -3.0435,25.7099 -16.124,-20.3756 -7.5863,2.1113 28.1015,34.1014 z"
         style="fill:#f8b302;fill-rule:evenodd"
         id="path52"
         inkscape:connector-curvature="0" />
      <path
         d="m 181.421,579.1929 5.5624,5.7243 -4.6219,16.8454 17.217,-3.8836 5.4877,5.6475 -25.5248,5.7521 -12.6452,12.2875 -4.9646,-5.1092 12.8598,-12.4961 z"
         style="fill:#f8b302;fill-rule:evenodd"
         id="path54"
         inkscape:connector-curvature="0" />
      <path
         d="m 201.6247,331.5535 7.1427,-3.5622 14.6475,9.5173 1.5261,-17.5835 7.0467,-3.5144 -2.2675,26.0665 7.8691,15.7785 -6.3751,3.1794 -8.0027,-16.0463 z"
         style="fill:#f8b302;fill-rule:evenodd"
         id="path56"
         inkscape:connector-curvature="0" />
      <path
         d="m 158.7594,367.9015 9.8233,-9.7478 c 4.6826,-4.6469 13.7628,-7.6404 21.2272,0.0537 7.0288,7.245 5.5737,15.9306 -0.7674,22.0825 l -4.2956,4.1674 6.8926,7.1046 -5.1132,4.9606 z m 25.8688,-4.6503 c -3.1823,-3.2802 -7.5434,-3.4762 -10.9565,-0.1649 l -4.9753,4.8268 11.152,11.4951 4.9753,-4.8268 c 3.3261,-3.2268 2.9868,-8.0499 -0.1955,-11.3302 z"
         style="fill:#f8b302;fill-rule:evenodd"
         id="path58"
         inkscape:connector-curvature="0" />
      <path
         d="m 246.8926,627.534 13.3973,3.4685 c 6.3864,1.6532 13.5968,7.9319 10.7931,18.2786 -1.7761,6.5542 -6.0734,10.1399 -11.2918,11.0818 l 3.8808,13.0379 -8.5044,-2.3046 -3.247,-11.1426 c -0.072,-0.0188 -0.144,-0.0368 -0.216,-0.0563 l -5.7766,-1.5653 -2.589,9.5541 -6.876,-1.8633 z m 17.2077,19.8674 c 1.1954,-4.4111 -0.863,-8.2608 -5.4529,-9.5046 l -6.6906,-1.813 -4.1889,15.4582 6.6906,1.813 c 4.4728,1.2121 8.4465,-1.5425 9.6418,-5.9536 z"
         style="fill:#f8b302;fill-rule:evenodd"
         id="path60"
         inkscape:connector-curvature="0" />
      <path
         d="m 271.4519,330.2128 -2.6043,-23.0484 -7.079,0.7999 2.6334,23.3058 c 0.5699,5.0435 2.3874,8.671 6.3284,11.675 2.6961,2.0555 6.3321,3.3137 11.0451,2.7812 4.7131,-0.5326 7.998,-2.4844 10.1885,-5.0337 3.2018,-3.7264 4.2325,-7.2898 3.5278,-13.5259 l -2.5675,-22.7228 -7.079,0.7998 2.5866,22.8916 c 0.3903,3.4541 -0.0578,5.2709 -1.2455,7.1118 -1.1877,1.8409 -3.1663,3.2539 -6.0986,3.5852 -2.5657,0.2899 -4.6183,-0.3247 -6.155,-1.4641 -1.976,-1.4649 -3.0151,-3.033 -3.4809,-7.1554 z"
         style="fill:#f8b302;fill-rule:evenodd"
         id="path62"
         inkscape:connector-curvature="0" />
      <path
         d="m 364.2826,360.3888 6.2722,3.378 18.9087,-35.1087 -6.2722,-3.378 z"
         style="fill:#f8b302;fill-rule:evenodd"
         id="path64"
         inkscape:connector-curvature="0" />
      <path
         d="m 415.5793,345.9049 5.1714,4.8999 -11.0393,11.6512 19.9545,-3.2042 6.9614,6.5958 -25.1067,3.6002 -2.398,25.273 -6.8058,-6.4483 2.1278,-20.2579 -11.1207,11.7372 -5.1714,-4.8999 z"
         style="fill:#f8b302;fill-rule:evenodd"
         id="path66"
         inkscape:connector-curvature="0" />
    </g>
  </g>
</svg>
