<?xml version="1.0" encoding="UTF-8"?>
<svg width="82.596" height="83.877" version="1.2" viewBox="0 0 61.947 62.908" xmlns="http://www.w3.org/2000/svg">
 <defs>
  <clipPath id="clip1">
   <path d="m23 36h120v134.08h-120z"/>
  </clipPath>
  <clipPath id="clip2">
   <path d="m0 77h165.34v45h-165.34z"/>
  </clipPath>
 </defs>
 <g transform="matrix(.36106 0 0 .36106 1.2893 .71627)" stroke-width="2.7696">
  <g stroke-width="2.7696">
   <g clip-path="url(#clip1)" stroke-width="2.7696">
    <path d="m23.863 36.617v89.438c0 7.0625 0.90625 9.7852 3.082 13.562l0.12109 0.21484 0.13672 0.20313c12.602 18.812 33.535 30.043 55.992 30.043 22.457 0 43.391-11.23 55.992-30.043l0.13672-0.20313 0.12109-0.21484c2.1719-3.7734 3.082-6.4961 3.082-13.562v-89.438h-118.66" fill="#fff" fill-rule="evenodd"/>
   </g>
   <g>
    <path d="m135.38 110.73v15.324c0 6.0977-0.70703 7.5312-2.1289 10.008-10.863 16.219-29.23 26.879-50.059 26.879-20.828 0-39.191-10.66-50.059-26.879-1.4219-2.4766-2.1289-3.9102-2.1289-10.008v-82.289h104.37zm3.2109-20.262v-49.914h-110.8v85.5c0 6.4805 0.77734 8.5117 2.5586 11.605l0.05469 0.0977 0.05859 0.0937c11.871 17.719 31.582 28.297 52.727 28.297 21.145 0 40.855-10.578 52.727-28.297l0.0586-0.0937 0.0547-0.0937c1.7773-3.0938 2.5586-5.125 2.5586-11.609v-35.586" fill="#071c3a"/>
    <path d="m139.36 116.27v9.7812c0 6.6641-0.8086 8.7695-2.6602 11.984l-0.0664 0.11719-0.0742 0.11328c-12.016 17.934-31.961 28.637-53.359 28.637-21.398 0-41.348-10.703-53.359-28.637l-0.07422-0.11328-0.06641-0.11719c-1.8516-3.2188-2.6602-5.3203-2.6602-11.984v-86.266h112.32zm1.7812-25.262v-53.004h-115.88v88.047c0 7.0586 0.92578 9.4453 2.8945 12.871l0.09766 0.17188 0.11328 0.16406c12.344 18.426 32.844 29.426 54.836 29.426 21.992 0 42.492-11 54.836-29.426l0.11328-0.16406 0.0937-0.17188c1.9688-3.4219 2.8984-5.8086 2.8984-12.871v-35.043" fill="#071c3a" fill-rule="evenodd"/>
    <path d="m73.102 66.848c-1.8164 0-3.293-1.5898-3.293-3.5547 0-1.9648 1.4766-3.5586 3.293-3.5586 1.8164 0 3.2891 1.5938 3.2891 3.5586 0 1.9648-1.4727 3.5547-3.2891 3.5547zm3.2148-20.059 0.01563 10.996c-1.1875-1.1641-2.7734-1.8672-4.5039-1.8672-3.7031 0-6.7031 3.2422-6.7031 7.2422s3 7.2383 6.7031 7.2383c1.75 0 3.332-0.73438 4.5273-1.918v1.7852h4.4531l-0.0039-23.477zm18.566 19.492h-4.1367v-14.797h2.8867c1.2656 0 2.293 1.082 2.293 2.418 0 1.332-1.0273 2.4141-2.293 2.4141h-1.5039v4.1055h2.7539c1.5352 0 2.6992 1.3047 2.6992 2.9258-0.05469 1.6719-1.0273 2.8242-2.6992 2.9336zm3.625-8.4609c1.1797-1.1602 1.9023-2.7188 1.9023-4.4336 0-1.5508-0.56641-2.9766-1.5547-4.0977-1.0312-1.1953-2.8594-1.7266-5.3281-1.7266h-7.3906v22.699h9.5469c3.6602-0.0625 6.6055-2.9922 6.6055-6.5625 0-2.5977-0.86718-4.4492-3.7812-5.8789zm22.027 12.457h4.3242v-23.312h-4.3242zm-7.2656-5.7656c0 1.3633-1.1367 2.4688-2.5391 2.4688-1.3984 0-2.5352-1.1055-2.5352-2.4688v-8.1914h-4.4023v9.0625c0 3.0664 3.0977 5.5547 6.9258 5.5547 3.8242 0 6.9258-2.4883 6.9258-5.5547v-9.0625h-4.375zm-64.238-10.281c0-3.707-2.918-6.7109-6.5156-6.7109-0.11328 0-0.61328 0.0039-0.72266 0.0078h-7.582v22.719h4.6016v-18.801l2.7461-0.02344c1.6992 0 2.9883 1.332 2.9883 2.9727s-1.3789 2.9727-3.0742 2.9727l-1.0703 0.02734v5.4102l4.5977 7.4414h5.4219l-6.3555-9.4961c2.8516-0.71484 4.9648-3.3633 4.9648-6.5195zm5.0469 7.2734c0-1.5312 1.2148-2.7734 2.7109-2.7734 1.4961 0 2.7109 1.2422 2.7109 2.7734zm2.6719-5.9492c-4.0508 0-7.3359 3.3984-7.3359 7.5898 0 4.1953 3.2852 7.5977 7.3359 7.5977 3.0938 0 5.5078-1.4297 6.75-3.6719l-3.6055-1.6992c-0.45703 1.0117-1.5312 1.7266-2.7812 1.7266-1.668 0-3.0195-1.2695-3.0195-2.832 0-0.10156-0.03906-0.05859-0.02734-0.15625l9.8047 0.0039c0.03125-0.30859 0.04297-0.62891 0.04297-0.95312 0.066401-4.9102-3.1133-7.6055-7.1641-7.6055zm71.098-8.5898v23.312h4.3242v-23.312h-4.3242" fill="#e31147"/>
    <path d="m114.03 99.91c0 17.125-13.879 31.004-31 31.004-17.125 0-31.004-13.879-31.004-31.004 0-17.121 13.879-31.004 31.004-31.004 17.121 0 31 13.883 31 31.004" fill="#fad105" fill-rule="evenodd"/>
   </g>
   <g clip-path="url(#clip2)" stroke-width="2.7696">
    <path d="m109.99 109.97c-0.3125-0.60156-1.3945-1.9297-1.2539-2.7695 0.79688 0.0977 2.0078 0.10547 2.4492 0.13281-0.13672 0.25391-1.043 2.3281-1.1953 2.6367zm55.277 9.2109c-0.0586-0.24219-0.15625-0.5-0.23047-0.70313l-0.0703-0.1914c-0.0586-0.15235-0.11328-0.30078-0.16797-0.46485-0.0273-0.0742-0.0508-0.14453-0.0625-0.20703-8e-3 -0.0469-0.0117-0.0898-8e-3 -0.13672 0.0781-0.8789-0.14453-1.3359-0.48828-1.9336-0.26563-0.46875-0.64453-0.65234-0.89453-0.66016-0.0625 0.17969-0.23829 0.29688-0.42969 0.29688-0.0273 0-0.0547-4e-3 -0.0781-8e-3 -0.25-0.0391-0.42187-0.28125-0.39453-0.53125 8e-3 -0.0625 0.0156-0.125 0.0195-0.19532 8e-3 -0.23437-0.043-0.44531-0.16015-0.66406-0.29688-0.55078-2.4297-2.3047-3.2383-2.3047-0.65235 0-1.3438 0.35938-1.8398 0.96485-0.0898 0.10937-0.22265 0.16797-0.36328 0.16797h-0.043c-0.15625-0.0156-0.29297-0.10547-0.36719-0.24219-0.0703-0.13281-0.13281-0.27344-0.1875-0.42578-0.14453-0.38282-0.23046-0.77735-0.3125-1.1562l-0.0625-0.28907c-0.22656-0.98437-0.55859-1.9805-1.875-2.3633-0.10937-0.0312-0.24609-0.0586-0.41796-0.0703-0.14063-0.0156-0.29688-0.0195-0.45313-0.0273h-0.12109c-0.26563-8e-3 -0.54297-0.0117-0.8125-0.0547-0.53907-0.0781-0.89844-0.25391-0.89844-0.85938 0-0.0508 8e-3 -0.10156 0.0234-0.15234l0.14453-0.41797c0.10937-0.30469 0.26172-0.77344 0.38281-1.3281 0.22656-1.0352 0.24609-1.9844 0.0508-2.8203-0.0312-0.15234 0.0117-0.30859 0.11719-0.42187 0.0859-0.0977 0.21094-0.15234 0.33984-0.15234 0.0234 0 0.0469 4e-3 0.0703 8e-3 0.54296 0.082 0.98046 0.0898 1.1016 0.0898 2.8125 0 7.2734-1.8359 7.2734-6.7617 0-2.8281-2.293-5.5195-4.2148-7.2773-0.125-0.11719-0.17969-0.29297-0.13672-0.45703 0.0391-0.16797 0.16797-0.29688 0.33594-0.33984 2.7305-0.71484 4.2383-2.5352 4.2383-5.1211v-0.17578c0-0.40234 0-0.86328-0.0781-1.3516-0.11328-0.6875-0.36719-1.3242-0.77344-1.9453-0.043-0.06641-0.11328-0.13672-0.26172-0.13672-0.0586 0-0.10156 0.01172-0.11719 0.01563-0.10937 0.02734-0.22265 0.10156-0.30468 0.15234-0.25391 0.16797-0.6211 0.48047-0.91407 0.73438-0.33593 0.28516-0.73437 0.49609-1.3008 0.6875-0.33984 0.11328-0.69531 0.20703-1.0742 0.30859-0.19922 0.05078-0.40234 0.10547-0.61328 0.16406-1.3047 0.36328-2.7266 0.89453-4.3086 2.2852-0.72266 0.64062-1.2266 1.6992-1.2734 2.7031-0.043 0.84375 0.26953 1.7188 0.96094 2.668 0.59765 0.82812 1.3906 1.6055 2.2226 2.3984l0.29688 0.28125c0.30469 0.28906 0.60156 0.57422 0.88672 0.85938 0.43359 0.42969 0.75781 0.78516 1.0273 1.1094 0.65625 0.8125 0.96485 1.4766 0.96485 2.0977 0 1.3203-0.94532 2.2109-2.3789 2.2109-1.5859-0.01172-2.8047-0.62109-4.5-1.7422-0.25781-0.17188-0.52344-0.34766-0.79688-0.53516-0.5625-0.37891-1.1445-0.76953-1.793-1.1758-1.1719-0.73438-2.2578-1.3164-3.4141-1.832-0.60937-0.27344-1.2148-0.48438-1.8984-0.66797-0.49219-0.13281-0.95704-0.23047-1.4102-0.32422l-0.21875-0.04297c-1.0352-0.21875-1.9023-0.43359-2.8242-1.0391-0.26172-0.17578-0.53516-0.35938-0.8125-0.55078-0.48047-0.32812-0.98047-0.66797-1.4883-0.98438-0.98047-0.60938-1.7695-0.99609-2.4883-1.2148-0.22266-0.06641-0.45313-0.11328-0.75-0.16016-0.125-0.01953-0.25391-0.03516-0.37891-0.05078l-0.30078-0.03906c-0.46094-0.0625-0.85547-0.15625-1.2734-0.39453-0.26172-0.15625-0.51172-0.32031-0.79297-0.52734-0.19921-0.14453-0.38671-0.29688-0.58203-0.44922l-0.13281-0.10547c-0.49219-0.38281-1.043-0.79688-1.8828-1.2539-1.2695-0.6875-2.543-1.0273-3.6328-1.293l-0.21485-0.05078c-0.42164-0.10157-0.78883-0.18751-1.1013-0.29298-0.17969-0.05859-0.32031-0.11328-0.42187-0.16797-0.0664-0.03516-0.125-0.07813-0.15235-0.09375-0.0312-0.02734-0.0586-0.05469-0.0859-0.08594-2.7148-3.4141-5.9688-3.6797-6.9023-3.6797-0.21484 0-0.41406 0.01172-0.60156 0.03125-1.0898 0.11719-2.3906 1.0781-3.5195 2-0.41016 0.33594-0.82422 0.69141-1.2461 1.0508-0.85937 0.73047-1.7422 1.4883-2.6133 2.1055-4.4961 3.1992-6.125 4.4805-8.2539 6.8047-2.8789 3.1484-3.7852 7.1406-4.582 10.664l-0.05859 0.25391c-0.38672 1.7109-0.78516 3.4805-1.375 5.1016-0.69141 1.8984-1.5352 3.3359-2.6641 4.5156-0.54688 0.57032-1.0039 1.0078-1.3984 1.3359-0.26562 0.21875-0.46484 0.35547-0.63672 0.47656l-0.11719 0.082c-0.47266 0.33593-0.66016 0.76953-0.52344 1.2109 0.17578 0.5625 0.89844 1.1445 2.1172 1.1641 0.13672 4e-3 0.26953 0.0703 0.35547 0.18359 0.08984 0.10937 0.12109 0.25391 0.08984 0.39062-0.05078 0.21094-0.01172 0.39063 0.12109 0.5625 0.33203 0.42969 1.125 0.67188 1.5742 0.6836h0.19141c2.1523 0 4-0.78906 5.5-2.3438 0.09375-0.0977 0.21484-0.14453 0.33594-0.14453 0.11328 0 0.22656 0.043 0.31641 0.12109 0.59375 0.55078 1.3633 0.82813 2.3438 0.84766h0.10547c0.45703 0 0.91406-0.0508 1.332-0.0977 0.21094-0.0234 0.41406-0.043 0.60547-0.0586 0.10547-4e-3 0.21094-0.0117 0.30469-0.0117 0.0703 0 0.13671 0 0.19921 8e-3 0.25391 0.0195 0.57813 0.0977 1.0274 0.25391 0.30859 0.10547 0.64062 0.23047 0.97656 0.35937l0.30078 0.11719c0.65625 0.25 1.6484 0.62891 2.4024 0.62891 0.043 0 0.0859 0 0.125-4e-3 1.6953-0.10547 2.3281-1.3672 2.5547-2.1055 0.0625-0.19922 0.24219-0.33203 0.44922-0.33203h0.0156c0.21093 8e-3 0.39062 0.15234 0.4375 0.35937 0.043 0.17969 0.0898 0.35157 0.14062 0.51954 0.26563 0.89453 0.61719 1.4922 1.1367 1.9414 0.16016 0.14063 0.36328 0.22656 0.66016 0.27344 0.25 0.043 0.60937 0.0625 1.1367 0.0703 0.10156 0 0.19921 0.0312 0.27734 0.0937 0.0586 0.043 0.13672 0.11719 0.25781 0.23828 0.10938 0.10547 0.22266 0.22266 0.32813 0.31641 0.0977 0.082 0.24218 0.19531 0.41797 0.25391 2.375 0.80859 5.4688 1.6836 7.0195 1.707h0.0547c2.1172 0 2.8398-2.0274 3.0508-2.9024 0.043-0.17968 0.18359-0.3164 0.36328-0.34765 1.9688-0.39063 3.0508-3.3516 3.0469-3.8633-0.0117-0.95313-0.3789-1.332-1.3242-1.3984l-3.4375-4e-3c-0.0742 0-0.14843 0.0117-0.22656 0.0352-0.043 0.0117-0.0859 0.0156-0.12891 0.0156-0.15625 0-0.30859-0.0781-0.39453-0.21484-0.125-0.19531-0.26172-0.28906-0.49218-0.34375-0.17188-0.0391-0.30469-0.17578-0.34766-0.34766-0.0391-0.17187 0.0195-0.35156 0.15625-0.46484 0.0703-0.0586 0.13672-0.12109 0.20312-0.17969 0.0898-0.082 0.19922-0.125 0.32032-0.125h0.0195c0.46875 0.0195 1.3789 0.0547 2.2461 0.0547 0.38672 0 0.76172-8e-3 1.082-0.0273 0.69141-0.0352 1.2695-0.10547 1.8789-0.17579 0.95703-0.10937 1.9453-0.22265 3.4297-0.22265l3.2188 0.17578c0.6914 0 1.3164-0.0898 1.8672-0.26563 0.043-0.0156 0.0937-0.0234 0.14063-0.0234 0.0898 0 0.17578 0.0273 0.2539 0.0742 0.11329 0.0742 0.19141 0.19921 0.21094 0.33593 0.20703 1.625 0.74219 3.0625 1.5469 4.1524 0.20703 0.28515 0.46875 0.52734 0.82422 0.76953 0.18359 0.125 0.375 0.24219 0.57031 0.35937 0.11328 0.0664 0.22656 0.13672 0.33594 0.20703 0.85156 0.53125 1.9062 1.1914 3.2266 1.1914 0.35156 0 0.71875-0.0469 1.082-0.14062 0.39453-0.10157 0.79297-0.15235 1.207-0.15235 0.20703 0 0.41406 0.0156 0.60547 0.0352 0.52344 0.0586 0.98828 0.17578 1.3672 0.26953l0.0977 0.0234c0.61328 0.15234 1.1914 0.39453 1.7695 0.73828 0.47657 0.28906 0.87891 0.58984 1.2656 0.88672l0.10547 0.0781c0.76953 0.58594 1.5703 1.1914 2.6836 1.1914 0.043 0 0.0859-4e-3 0.13281-4e-3 0.0742-4e-3 0.16016-0.0273 0.19922-0.0352 0.0586-0.0195 0.13282-0.043 0.21485-0.0703 0.15234-0.0547 0.33203-0.1289 0.51172-0.19922 0.17578-0.0664 0.37109-0.14453 0.59765-0.1914 0.0273-4e-3 0.0586-8e-3 0.0898-8e-3 0.15234 0 0.29687 0.0742 0.38671 0.20312 0.0586 0.0859 0.11329 0.18359 0.17969 0.28125 0.10938 0.17969 0.22266 0.36719 0.3711 0.55469 0.42968 0.55469 1.2109 1.2969 3.0391 1.3438 0.16797 4e-3 0.32812 4e-3 0.48047 4e-3 0.95312 0 1.5391-0.0742 1.8008-0.11718 0.0273-4e-3 0.0508-4e-3 0.0781-4e-3 0.0937 0 0.1875 0.0273 0.26563 0.082 0.19531 0.13672 0.40234 0.19922 0.63281 0.19922 0.49219 0 1.2188-0.14844 1.8125-0.36328 0.35156-0.13281 0.64063-0.28125 0.85938-0.44141 0.27734-0.20703 0.4414-0.4375 0.48046-0.68359 0.0273-0.18359 8e-3 -0.40625-0.0586-0.67578m-107.55-11.113c-0.32031 0.39062-0.79688 0.51172-1.2266 1.2812-0.87891-0.33985-1.0312-1.4922-1.1914-1.9883 0.69922-0.12891 2.3477-0.44141 3.2109-0.57422-0.35547 0.44922-0.61328 0.7539-0.79297 1.2812zm20.734 3.6211c-0.87891-0.5-1.4062-1.2656-1.7617-1.8789-0.15625-0.26562-0.29687-0.53515-0.4375-0.79687l-0.16406-0.30859c-0.17578-0.32813-0.38672-0.70313-0.63672-1.0274-0.09766-0.12109-0.21484-0.25-0.33594-0.3789l-0.35547-0.36719c-0.10938-0.11719-0.21484-0.23438-0.30078-0.34375-0.08594-0.10938-0.14453-0.20313-0.17578-0.28125-1.5469-3.9609-1.9102-6.207-2.4688-10.156-0.28906-2.0312-1.5312-3.6758-3.543-6.1406-0.25391-0.30859-0.53125-0.67187-0.83203-1.0547-0.20703-0.26562-0.41797-0.54297-0.63672-0.81641-0.66016-0.83594-1.1992-1.4531-1.625-1.8711-0.72266-0.60547-1.3633-1.1484-1.9375-1.6367-0.82031-0.69922-1.5156-1.2891-2.1562-1.8164-1.2109-0.99219-2.1406-1.6953-3.2148-2.418-1.4961-1.0117-3.0977-1.5234-4.7578-1.5234-1.6953 0-2.9414 0.54688-3.3672 0.83594-1.4258 0.97266-2.5039 1.5742-3.7148 2.0781-0.87891 0.36328-1.7891 0.66016-2.9414 1.0391-0.37109 0.12109-0.76562 0.25-1.1953 0.39453-1.3125 0.4375-2.2422 1.1992-2.9023 1.8125-0.16016 0.15234-0.3125 0.29688-0.45703 0.4375-0.16016 0.16016-0.31641 0.30859-0.46094 0.44141-0.29688 0.26953-0.50781 0.41797-0.69531 0.48438-0.19922 0.07031-0.51953 0.12109-0.98047 0.15234-0.24219 0.01563-0.49219 0.02734-0.73438 0.03906-0.17969 0.0078-0.35547 0.01562-0.51953 0.02344-1.5039 0.08984-2.7148 0.9375-3.4922 1.5664-0.40234 0.32812-0.78125 0.67188-1.1445 1.0039l-0.17188 0.16016c-0.46094 0.41406-0.78516 0.69531-1.0977 0.89453-1.0664 0.69141-2.0781 0.78906-3.1875 0.89844-0.57031 0.05859-1.1562 0.11719-1.7891 0.24609-0.75 0.15625-1.4609 0.39453-2.1719 0.72656-0.79688 0.375-1.6016 0.85547-2.6094 1.5547-0.4375 0.30469-0.86328 0.61328-1.2852 0.92188-0.375 0.27344-0.74609 0.54297-1.1172 0.80469-1.6641 1.1641-3.0938 1.9414-4.6406 1.9414-1.5273 0-2.6133-0.89453-2.7617-2.2773-0.12891-1.2227 0.49219-2.4531 1.7578-3.4766l0.69531-0.55859c0.51953-0.41406 1.0039-0.80469 1.4453-1.1797 0.73438-0.62891 1.2305-1.1367 1.6172-1.6445 0.94922-1.2461 1.1914-2.5312 0.78125-4.168-0.36719-1.4648-1.4961-2.4648-3.4492-3.0508-0.69922-0.21094-1.4102-0.33984-2.0742-0.44531l-0.23047-0.03906c-0.20312-0.031253-0.39062-0.062503-0.55078-0.089846-0.21484-0.039063-0.36328-0.078126-0.44922-0.11328-1.0586-0.47266-3.3672-2.0156-3.8281-2.3281l-0.1875-0.125-0.12891 0.1875c-0.42188 0.60547-0.75391 1.082-1.0078 3.1836-0.27734 2.3203 1.6367 5.1523 4.9258 5.6719 0.18359 0.02734 0.33203 0.16406 0.37891 0.34375 0.050781 0.17969-0.015625 0.36719-0.16016 0.48438-3.4844 2.7383-4.2266 3.9141-4.4102 6.9883-0.10938 1.9102 0.55469 3.7812 1.832 5.1367 1.3984 1.4805 3.4219 2.2656 5.8555 2.2656 0.64844 0 1.3359-0.0586 2.0352-0.16797 0.02344-4e-3 0.05078-4e-3 0.07422-4e-3 0.10156 0 0.20703 0.0352 0.28906 0.10156 0.10156 0.0781 0.16406 0.19922 0.17578 0.32812 0.16016 2.1406 0.55078 3.8828 1.0352 4.6602 0.11719 0.1875 0.08594 0.4375-0.08203 0.58984-0.14844 0.13672-0.38281 0.27344-0.68359 0.38672-0.74219 0.29297-1.8711 0.47266-2.9922 0.47266-0.69922 0-1.2227 0.48047-1.6406 1.5156-0.13672 0.33594-0.25 0.69141-0.35938 1.0391l-0.02734 0.0977c-0.05859 0.17578-0.10938 0.33985-0.16406 0.48047-0.04687 0.13672-0.09766 0.25781-0.15234 0.35547-0.14062 0.25-0.34766 0.49609-0.63281 0.75391-0.089844 0.0742-0.19922 0.11328-0.3125 0.11328-0.023438 0-0.054688 0-0.078126-4e-3 -0.14062-0.0273-0.26172-0.10937-0.32812-0.23437-0.34375-0.6211-0.88672-1.0156-1.6094-1.1719h-0.015631l-0.074219-4e-3c-1.0664 0-2.9141 0.90625-3.5977 2.6016-0.0625 0.15625-0.20703 0.26953-0.37891 0.28906l-0.085937 0.0117c-0.85156 0.0898-1.3867 0.48437-1.6914 1.2422-0.125 0.32031-0.20312 0.67968-0.26172 0.99609l-0.046875 0.23047c-0.046875 0.26172-0.097657 0.52734-0.16797 0.78515-0.050781 0.20704-0.125 0.38672-0.23438 0.58985-0.054687 0.0977-0.10938 0.1914-0.16406 0.27734-0.039062 0.0625-0.078124 0.12891-0.11328 0.1875-0.1875 0.34766-0.28516 0.70313-0.13281 1.3125 0.070312 0.27735 0.28906 0.51563 0.65234 0.71485 0.26953 0.14453 0.61719 0.27343 1.0352 0.375 0.74219 0.17578 1.4766 0.23437 1.6211 0.23437 0.10156 0 0.20313-0.0273 0.30078-0.082 0.070312-0.043 0.14062-0.0937 0.21875-0.15234 0.082031-0.0664 0.19922-0.10547 0.30859-0.10547 0.023437 0 0.046874 0 0.070312 4e-3l0.34766 0.0664c0.28516 0.0547 0.64062 0.125 0.99219 0.19922l0.054687 8e-3c0.33984 0.0703 0.67188 0.13672 0.94141 0.1875 0.14453 0.0273 0.27734 0.0508 0.37109 0.0625 0.10938 0.0156 0.19531 0.0234 0.24609 0.0234h0.00391c1.4688-0.0664 2.0898-0.64063 2.5039-1.1914 0.11328-0.15234 0.21875-0.3164 0.32031-0.48828l0.16797-0.28125 0.125-0.21484c0.11719-0.20313 0.23828-0.39453 0.37109-0.57422 0.08984-0.1211 0.23047-0.1875 0.375-0.1875 0.04297 0 0.08203 0 0.12109 0.0117 0.16797 0.0469 0.33984 0.0781 0.48438 0.10547 0.33984 0.0547 0.65234 0.0859 0.78516 0.0937 0.09766 8e-3 0.19141 0.0117 0.28516 0.0117 1.3906 0 2.4258-0.77343 3.2852-1.5039l0.28516-0.23828c0.12891-0.11328 0.25781-0.22657 0.38672-0.33594 0.17188-0.14063 0.40234-0.32422 0.63672-0.48047 0.41406-0.27734 0.76953-0.40625 1.1133-0.40625l0.08594 4e-3c0.33203 0.0195 1.5898 0.10937 3.7227 0.44922 0.09375 0.0117 0.18359 0.0195 0.28125 0.0195 0.47656 0 1.0898-0.16407 1.8203-0.49219 0.52344-0.23438 1.125-0.5625 1.7383-0.94141 0.12891-0.082 0.28516-0.15625 0.47266-0.24218l0.05469-0.0234c0.17578-0.0781 0.35938-0.16406 0.55078-0.26172 0.35156-0.17969 0.86328-0.47656 1.2773-0.99219 0.24219-0.30469 0.57031-0.94922 0.89062-1.5976l0.34766-0.71094c0.19141-0.39453 0.39453-0.8125 0.60156-1.2266 0.08203-0.16016 0.24219-0.25782 0.42188-0.25782h0.12891c0.66406 0 1.457-0.10156 2.1445-0.20312 0.30469-0.043 0.60156-0.0898 0.88672-0.13672 0.63281-0.0977 1.1797-0.18359 1.5859-0.19922 0.10156 0 0.37109 0.0156 0.74609 0.043l0.84375 0.0547c1.0664 0.0664 1.9336 0.0977 2.6523 0.0977 0.42969 0 0.80859-0.0117 1.125-0.0352 0.57031-0.0391 1.0938-0.12891 1.5117-0.25391 0.11719-0.0352 0.24609-0.0781 0.375-0.13672 0.05859-0.0234 0.125-0.0352 0.1875-0.0352 0.11719 0 0.23828 0.043 0.32422 0.1289 0.23438 0.23047 0.48047 0.45703 0.73047 0.67969 0.14453 0.12109 0.19531 0.32031 0.13672 0.5-0.05859 0.17578-0.21875 0.30078-0.40625 0.31641-0.09375 4e-3 -0.1875 0.0156-0.27734 0.0273-0.29687 0.043-0.83594 0.16016-1.1094 0.51172-0.08984 0.11719-0.22656 0.18359-0.36719 0.18359-0.06641 0-0.12891-0.0156-0.1875-0.0391-0.06641-0.0312-0.12891-0.0547-0.19922-0.0703-0.14453-0.043-0.28125-0.0469-0.39844-0.0508h-0.21875l-0.23828 4e-3h-0.12891c-0.42578 0-1.418 0-2.2773 0.14063-0.52734 0.0859-0.94531 0.21093-1.2422 0.3789-0.28125 0.16016-0.60938 0.44922-0.58203 0.92578 0.05078 0.87891 1.2891 3.2578 2.1328 4.1016 0.16406 0.16406 0.71875 0.33984 1.3359 0.33984 0.0625 0 0.12891-4e-3 0.19531-8e-3h0.03516c0.17188 0 0.33203 0.0977 0.41406 0.2539 0.86328 1.7031 2.3594 2.8438 3.7188 2.8438h0.08984c1.3008-0.0508 4.8125-1.3164 7.2734-2.4726 0.03125-0.0156 0.0625-0.0273 0.09766-0.0352 0.07813-0.0156 0.17188-0.0312 0.26563-0.043 0.14844-0.0195 0.30859-0.0391 0.48437-0.0586l0.25-0.0312c0.54297-0.0625 1.1602-0.16016 1.6094-0.375 0.41406-0.19531 1.0156-0.96875 1.5352-1.9727 0.08203-0.15625 0.24219-0.2539 0.41406-0.2539 0.01563 0 0.03125 4e-3 0.04687 4e-3 0.1875 0.0156 0.34766 0.14453 0.40234 0.32813 0.0625 0.20312 0.13281 0.3789 0.21875 0.54297 0.41797 0.78906 1.168 1.1914 2.2266 1.1914 0.05859 0 0.11328-4e-3 0.17187-4e-3 0.72656-0.0273 1.5312-0.27344 2.2227-0.5l0.39453-0.12891c0.59766-0.19922 1.1602-0.38672 1.6836-0.48047 0.1875-0.0352 0.39844-0.0508 0.64844-0.0508 0.10938 0 0.23047 4e-3 0.35156 8e-3 0.22266 0.0117 0.44531 0.0312 0.67188 0.0469 0.14844 0.0156 0.30078 0.0234 0.45312 0.0352 0.21484 0.0156 0.4375 0.0273 0.67188 0.0273 0.64453 0 1.1445-0.0937 1.5977-0.3125 0.65625-0.26953 1.1641-0.63672 1.5039-0.87891l0.12109-0.0898c0.08203-0.0586 0.17969-0.0898 0.27734-0.0898 0.10938 0 0.21875 0.0391 0.30859 0.1211 0.91797 0.8164 2.9023 2.1875 5.8203 2.1875 0.09766 0 0.19922 0 0.29688-4e-3 0.69531-0.0195 1.2383-0.25 1.5352-0.64453 0.19531-0.26562 0.25781-0.58203 0.17578-0.89844-0.03125-0.12109-0.0078-0.25781 0.05859-0.36718 0.07031-0.10938 0.18359-0.1875 0.3125-0.21094 0.48047-0.0859 0.86719-0.25391 1.1523-0.50781 0.25781-0.22657 0.42578-0.5586 0.42969-0.84766 0-0.19531-0.07031-0.35938-0.21875-0.49609-0.31641-0.29688-0.5-0.40625-1.4258-0.92188" fill="#fff"/>
   </g>
   <g>
    <path d="m67.414 81.324c0-8.5781 6.9531-15.531 15.531-15.531 8.5781 0 15.527 6.9531 15.527 15.531 0 8.5742-6.9492 15.527-15.527 15.527-8.5781 0-15.531-6.9531-15.531-15.527" fill="#fff"/>
    <path d="m71.273 89.699c4.5273 3.2695 10.91 3.7891 15.898 1.1094 5.4219-2.8047 8.7031-8.582 8.2031-14.812-0.09375-0.90234-0.23828-1.7812-0.47656-2.6367 1.5312 2.3008 2.4102 5.0273 2.4102 7.9648 0 7.9297-6.4297 14.363-14.363 14.363-4.8086 0-9.0625-2.3633-11.672-5.9883" fill="#d1d1d1"/>
    <path d="m78.711 84.91c-3.3594-0.80859-5.6523-1.6211-5.6523-1.6211-0.36328-3.4688-0.05469-6.4883-0.05469-6.4883 1.4531-0.75781 5.3945-2.5195 5.3945-2.5195 1.875 2.1289 3.668 4.9805 3.668 4.9805-0.86719 1.6758-3.3555 5.6484-3.3555 5.6484zm-5.5391-14.117c-0.33594 0.55078-1.3242 2.2109-2.2109 4.1875-0.83984 1.0508-1.5703 2.1172-1.8867 2.5859 0.71094-2.6328 2.1562-4.9688 4.0977-6.7734zm15.074 8.3555s1.2578-2.6289 2.7695-4.7539c0 0 2.9102 1.3711 4.2773 2.4883 0 0 0.50391 1.5664 0.17188 6.1523 0 0-1.7383 1.0078-4.2539 1.625 0 0-1.707-2.8828-2.9648-5.5117zm-6.5156 10.77 6.2109-0.16797 1.1992 3.3828c-2.3477 1.3984-5.1719 2.1289-5.1719 2.1289-2.9688-0.64453-4.6719-1.9336-4.6719-1.9336zm1.2148-22.961c1.8945 0 3.7031 0.36719 5.3594 1.0312-0.05859 0.26953-0.26172 1.0273-0.83984 1.9883-2.9961-0.39062-6.3242-0.08594-6.3242-0.08594l-2.7656-2.1914c1.4375-0.48047 2.9727-0.74219 4.5703-0.74219zm-9.207 25.395c-2.3789-1.9883-4.1055-4.7305-4.8086-7.8633 0.76953 0.79688 2.2539 2.3242 2.2539 2.3242 0.89844 1.8477 3.1328 5.0625 3.1328 5.0625-0.16016 0.17969-0.41406 0.36328-0.57812 0.47656" fill="#071c3a" fill-rule="evenodd"/>
    <path d="m57.867 152.56 5.8867 2.8398 2.8398-5.8828-1.9609-0.94922-1.8945 3.9219-1.9609-0.94532 8.1875-16.969-1.9648-0.94921zm14.902-9.4609 2.1445 0.38281 0.77344-4.2891 2.0859 0.375-7.1836 15.648-0.38281 2.1445 6.4336 1.1562 1.1562-6.4336-2.1445-0.38672-0.76953 4.293-2.0898-0.37891 7.1836-15.645 0.38672-2.1445-6.4375-1.1602zm-13.504-11.801 1.7148 1.3477-4.4805 5.6914-1.7148-1.3476zm-13.371 13.465 1.7148 1.3477 5.8281-7.4062 1.7148 1.3477-5.8281 7.4062 1.7109 1.3476 11.094-14.094c1.1094-1.4141 0.86328-3.4805-0.54688-4.5938-1.4141-1.1094-3.4805-0.86328-4.5938 0.55078zm41.016 14.027 4.3281-0.51953c1.2031-0.14063 2.0508-1.2188 1.9062-2.4219l-0.75391-6.3438c-0.15625-1.2891-0.64844-1.6758-1.1992-1.8164 0.49219-0.35547 0.88672-0.78907 0.76953-1.7812l-0.78906-6.6094c-0.14453-1.1992-1.2227-2.0508-2.4219-1.9062l-4.3281 0.51563zm-0.06641-18.977 2.1641-0.25782 0.85547 7.1953-2.1602 0.25781zm1.1172 9.3594 2.1641-0.26172 0.85547 7.1953-2.1641 0.25782zm11.91-15.449-2.0234 0.8086 7 17.5-2.0234 0.8125-7-17.5-2.0234 0.80859 6.6602 16.652c0.66797 1.668 2.5781 2.4883 4.25 1.8203 1.668-0.66797 2.4844-2.5781 1.8203-4.25zm15.035 15.273 1.7656-1.2734-5.5156-7.6484 1.7695-1.2734 4.5977 6.3789c0.3164 0.42969 0.84765 0.76953 1.2969 0.99219l1.8164-1.3125c-0.54688-0.25781-1-0.47656-1.3398-0.95312l-4.1055-5.6875c-0.75782-1.0508-1.375-1.1524-1.9219-1.0078 0.25391-0.55078 0.39063-1.1172-0.19531-1.9297l-3.8945-5.3984c-0.70703-0.98047-2.0625-1.1992-3.043-0.4961l-3.5352 2.5508zm-9.2617-16.562 1.7656-1.2773 4.2422 5.875-1.7695 1.2773zm18.023 4.168c1.4102 1.1133 3.4766 0.86328 4.5898-0.54688 1.1094-1.4102 0.86328-3.4805-0.54687-4.5938l-6.6875-5.2617-1.9336 2.4531 1.7109 1.3516 0.58594-0.74219 5.6914 4.4805-1.3477 1.7109-13.102-10.309 1.3516-1.7109 2.5898 2.0391 1.3477-1.7148-1.8711-1.4766c-1.4141-1.1094-3.4805-0.85938-4.5938 0.55078-1.1094 1.4102-0.86329 3.4766 0.54687 4.5898zm-68.086-13.008c0.58203 1.1953 0.26953 2.8086-0.625 3.75l-2.293 1.8476-1.3398-1.7305c0.8125-0.7539 1.7617-1.3906 2.6289-2.1133l-1.3086-1.7344-5.7812 4.4414c0.6875 1.2539 2.2031 2.2734 1.6211 3.8789l-0.11719 0.54687-6.1758 4.7617c-0.80469 0.44922-1.9062 0.48438-2.7773 0.13282-1.0352-0.40235-1.8359-1.4648-2.0078-2.5117-0.19531-1.2422 0.24219-2.4141 1.1953-3.2461 0.64063-0.50781 1.3086-0.98828 1.9531-1.5234 0.48437 0.55859 0.91016 1.1719 1.3359 1.7852-0.83984 0.69922-1.7305 1.3398-2.5977 2.0352l1.2812 1.7578c1.9297-1.418 3.8555-2.9688 5.8125-4.4688-0.80078-1.3086-2.5312-2.6055-1.4531-4.2891l0.48047-0.5625 5.6133-4.2812c0.89062-0.55859 2.2617-0.5 3.1602 0.0117 0.57031 0.33984 1.1328 0.93359 1.3945 1.5117" fill="#071c3a" fill-rule="evenodd"/>
   </g>
   <g fill="#e31147">
    <path d="m70.152 103.87c-0.0078 0.0234-0.08203 0.23438-0.08203 0.23438-0.0039 0.0156-0.07031 0.23437-0.07031 0.23437-0.07813 0.21485-0.20312 0.33204-0.38672 0.375-0.10938 0.0312-0.21484 0.0156-0.29688-0.0469-0.08203-0.0625-0.13281-0.16016-0.13281-0.27344 0-4e-3 -0.01563-0.24219-0.01563-0.24219l-0.08203-0.83593c-0.06641-0.38672-0.17969-0.6836-0.35938-0.9336-0.0078-8e-3 -0.36719-0.42578-0.36719-0.42578-0.01172-0.0156-0.41406-0.46875-0.41406-0.46875-0.31641-0.32031-0.60547-0.47265-0.90234-0.48047-0.23047 0.0703-0.44141 0.22657-0.66797 0.47266l-0.28516 0.35156-0.25391 0.34375c-0.09375 0.15625-0.30078 0.0664-0.30078 0.0664s-0.01953-0.0117-0.03906-0.0195c-0.0039-0.0195-0.01563-0.0391-0.01563-0.0391-0.0625-0.16015-0.08594-0.32031-0.08594-0.46484 0-0.26172 0.07813-0.49219 0.15625-0.68359l0.21875-0.44922 0.25391-0.53516 0.03125-0.0508c0.07812-0.07031 0.15234-0.20312 0.23437-0.42188l0.06641-0.18359 0.14844-0.37891c0.22266-0.48047 0.55859-0.60938 1.0469-0.40234 0.37891 0.20312 0.61328 0.52734 0.78906 0.8125l0.12109 0.19922 0.15625 0.25391 0.31641 0.41015c0.875 0.98047 1.2969 1.9024 1.2969 2.8594 0 0.23828-0.02344 0.48047-0.07813 0.72265zm-3.3164 7.3789s-0.01172 8e-3 -0.0078 0.0156c-0.0039-4e-3 -0.02344 4e-3 -0.02344 4e-3 -0.50391 0.15625-1.0742 0.22266-1.6914 0.19141l-0.03125-8e-3 -0.11328-0.0469c-0.0039-4e-3 -0.12109-0.0781-0.12109-0.0781-0.05859-0.0469-0.14844-0.14844-0.09766-0.30469 0.23438-0.70313 0.92969-1.5117 1.8086-1.6953h0.07813 0.125l0.19531 0.0273c0.09375 0.0273 0.25781 0.10547 0.30078 0.33594 0.01172 0.1289 0.02344 0.27343 0.02344 0.42187 0 0.41797-0.08594 0.86719-0.44531 1.1367zm-10.32-17.855c-0.03516-0.01172-0.06641-0.01953-0.06641-0.01953s-0.0039 0.01172-0.0078 0.02734c-0.01172 0.0078-0.01953 0.01953-0.01953 0.01953-0.07813 0.07422-0.21484 0.12891-0.35156 0.03906 0 0-0.01953-0.01172-0.03516-0.02344-0.0039-0.02344-0.0078-0.04687-0.0078-0.04687-0.21094-1.0781-0.45312-2.2227-0.89062-3.2812l-0.25-0.42969-0.09766-0.13672-0.21484-0.3125c-0.17188-0.27344-0.33594-0.64062-0.10938-1.0781l0.02734-0.03516c0.19531-0.19531 0.54297-0.21484 0.78125-0.125l0.03125 0.01562c0.46094 0.32031 0.76172 0.84766 0.97656 1.2305 0.27344 0.63672 0.41406 1.4375 0.41406 2.2617 0 0.62891-0.08203 1.2734-0.24609 1.875 0 0 0.03125 0.0078 0.06641 0.01953zm21.254 19.074c-1.625-0.94922-2.2734-2.7344-3.2773-4.1445-0.34766-0.51563-0.97266-0.84375-1.2969-1.3555-1.1641-3.168-2.168-6.3359-2.4648-9.9648-0.24609-0.89453-0.43359-1.8164-0.92188-2.6562-1.4609-2.3828-3.3555-4.5508-5.1992-6.7422-0.16016-0.16406-0.16406-0.17578-0.51562-0.51562l-6.4141-5.332c-0.78516-0.59766-1.6836-0.97656-2.5742-1.3828-1.3555-0.51562-3.1953-0.40625-4.5195 0.16406-1.3828 0.73047-2.6289 1.7852-4.0938 2.2734-2.1094 0.94922-4.4922 1.1367-6.3086 2.7617-1.0547 0.92188-1.9492 2.3555-3.5195 2.1133-1.7617-0.08203-3.332 0.56641-4.6562 1.6523-1.1914 1.082-2.3281 2.3555-3.875 2.6523-1.3516 0.57031-3.0039 0.29687-4.3867 0.8125-2.1914 0.54297-3.9258 2.2734-5.793 3.6016-1.8672 1.082-3.6562 2.2461-5.9844 2.1914-1.5156-0.10547-2.9805-1.1641-3.4688-2.625-0.45703-1.6797 0.054688-3.4102 1.3828-4.5469 1.3828-1.6523 3.5742-2.6289 4.6562-4.5234 0.57031-1.0039 0.48828-2.6289-0.26953-3.5742-1.4336-1.4883-3.4922-1.543-5.3633-2.0039-1.1875-0.32812-2.1094-1.2461-3.168-1.8125-0.40625 0.62109-0.53906 1.2969-0.48438 2.0547 0.21484 1.707 1.5156 3.25 3.1406 3.8438 0.94531 0.40625 2.0312 0.10938 3.0039 0.32812 0.26953 0.10547 0.54297 0.37891 0.57031 0.67578-0.05469 0.26953-0.08203 0.54297-0.32422 0.73047-1.5195 1.2734-3.1133 2.4922-4.3867 4.0625-1.3555 1.4609-1.5195 4.0352-0.8125 5.875 0.78516 2.1133 2.9766 3.4961 5.0898 3.7656 1.543 0.24609 2.9258-0.16016 4.332-0.46094 0.19141 0 0.26953 0.19141 0.35156 0.30078 0.13672 1.2422-0.05469 2.3555 0.21875 3.4922 0.24219 1.0547 0.59375 1.7891 0.97266 2.8164 0.05469 0.35157 0 0.73047-0.24219 1-0.78516 0.59766-1.5977 1.0039-2.4648 1.3828l-2.1133 0.13672-0.40625 0.1914c-0.78516 0.91797-0.8125 1.8672-1.2969 2.8945-0.65234 1.0859-1.8438 1.5977-2.8438 2.2227-0.32422 0.51172-0.67969 1.0547-1.1367 1.4609-0.35547 0.32422-0.78906 0.40625-1.2461 0.46093-0.73438 0.83985-0.89453 2.0039-1.0859 3.1406 1.1914 0.10937 2.4375 0.75781 3.6016 0.10937 1.0039-0.46093 1.2188-1.6797 1.9805-2.4102 0.59375-0.64844 1.4883-0.16406 2.1914-0.0273 1.0547 0.0547 1.8125-0.70312 2.707-1.0586 0.62109-0.40234 1.1367-1.1055 1.7891-1.5156 1.2461-0.59375 2.9766-0.26954 4.2773-0.0273 1.0273 0.27344 2.1133 0.10938 3.0078-0.29687 0.83594-0.51172 1.6211-1.1641 2.5703-1.3789 0.83984-0.43359 1.2461-1.3828 1.5977-2.168 0.26953-0.73047 0.97656-1.3008 0.92188-2.1406-0.21875-0.1875-0.46094-0.59766-0.78516-0.57032-0.40625 0.57032-0.70703 1.168-1.1641 1.7109-1.9609 2.668-3.5 2.9219-7.4766 2.9219-2.9492-0.10547-5.6055 0.78515-7.6367 3.0859-0.13281 0.082-0.32422 0.0273-0.43359-0.0781-0.07813-0.32422 0.19141-0.86328 0.32422-1.1094 1.8164-2.5703 4.6328-3.1641 7.6094-3.2226 1.625-0.10547 3.1719-0.37891 4.5508-1.082 1.543-0.78516 2.6016-2.0078 3.25-3.5234 0.35156-1.707 0.48828-3.5469 0.92188-5.1758 0.05469-0.16016 0.45703-0.28125 0.59375-0.22656 0.16016 0.0273 0.48438 0.17187 0.48438 0.36328-0.29688 1.6797-0.83594 3.6562-0.18359 5.2812 1.2969 1.707 3.707 0.78515 5.4688 0.70312 1.8438-0.16015 3.3203-0.0195 5.082 0.0898 0.86719-0.0273 1.5078 0.18359 2.1836-0.35547 0.1875-0.30078 0.26563-0.70313 0.21094-1.0274-0.05469-0.48828-0.46094-0.78125 0-1.1875 0.13281-0.10937 0.53906-0.0391 0.64453 0.0977 0.24609 0.67969 0.35547 1.4062 0.78906 2.0039 0.86719 1.1133 2.1367 1.9766 3.3281 2.6016 1.1367 0.78515 2.0859 1.8945 2.168 3.2773 0 0.70313-0.65234 1.1914-1.1914 1.5156-0.92188 0.46093-1.9258 0.83984-3.0078 0.73437-1.4336-0.70703-1.8125-2.2226-2.7617-3.332-0.48438-0.54297-1.2188-0.65234-1.9492-0.59766-0.78516 0.082-1.5703 0.10938-2.2734 0.35547-0.19141 0.16016-0.24609 0.40235-0.21875 0.64844 0.48828 0.89453 1.0312 1.7578 1.5703 2.6523 0.625 0.37891 1.4922-0.21484 2.0312 0.46094 0.46094 0.70313 0.75781 1.543 1.4648 2.0859 0.67578 0.59375 1.707 0.86328 2.5977 0.48828 2.0039-0.625 4.0078-1.2773 5.875-2.2773h0.625c0.75781-0.082 1.5977-0.0273 2.1406-0.59375 0.59375-0.86719 1.082-1.6797 1.543-2.6016 0.45703-0.62109 0.24219-1.5703 0.05469-2.2461-0.92188-1.1367-1.4375-2.4102-1.9258-3.7148-0.45703-0.13282-0.86328-0.40235-1.3789-0.37891-0.24219 0.10938-0.59766 0.0547-0.73438 0.32422l2.1406 4.2304c0.13672 0.32031 0.30078 0.78125 0.21875 1.2188-0.30078 0.89062-0.75781 1.7578-1.4922 2.4102-0.13281 0.0781-0.29687 0.16016-0.40234-0.0273 0.24219-0.92187 0.67578-1.9258 0.62109-2.9805l-2.0859-3.7656c-0.24219-0.51563-0.67578-0.97657-0.64844-1.5742 0-0.26953 0.24219-0.45703 0.46094-0.56641 0.91797-0.29687 2.0312-0.24219 2.7344-0.97265 0.92188-1.4375 1.1133-2.8438 1.3555-4.5508 0.05469-0.10937 0.27344-0.3164 0.43359-0.3164 0.16406-0.0547 0.34766 0.17969 0.42969 0.26172 0.27344 1.8672-0.10938 3.7617-1.1914 5.2266-0.05469 0.19141-0.13281 0.43359 0.08203 0.56641 1.0273 0.32812 2.1133 0 2.9805-0.45704 1.1094 0.0273 2.1367-0.24609 3.1406-0.40625 0.10547 0.0547 0.21484 0.16016 0.21484 0.26954-0.67578 0.75781-1.0547 1.5976-1.2461 2.5742-0.8125 0.83985-1.9766 1.5703-2.0586 2.7891 0.13672 0.59765 0.65234 0.0273 1.0039 0.082 0.16406 0.0273 0.26953 0.16015 0.26953 0.32422l-0.8125 1.1914c-0.43359 0.70703 0.08203 1.5156 0.08203 2.1953 0.19141 0.53906 0.83984 0.8125 1.4062 0.8125 1.2227-0.0547 2.3047-0.51563 3.3867-0.89454 1.1914-0.51562 2.6797-0.48828 3.9805-0.27343 1.2734-0.0781 2.2227-0.91797 3.168-1.7578 0.51562 0 0.97656 0.35157 1.3281 0.73047 1.4609 1.5703 3.3594 2.2461 5.4961 2.1953l0.19141-0.10939c0.13281-0.13672 0.07813-0.37891-0.08203-0.48828l-1.2734-0.64844c-0.89453-0.57031-2.0039-1.3281-2.3008-2.3281-0.27344-0.89453-0.75781-1.8711-1.3008-2.7344-0.1875-0.4375-0.62109-0.78906-0.8125-1.2226 0.05469-0.0547 0.10938-0.13672 0.19141-0.10938 1.4062 0.48828 2.2461 1.8711 2.8945 3.1172 1.0312 1.4375 2.5195 2.6523 4.4688 2.3281l0.16406-0.13281c0.08203-0.10937 0.05469-0.24609 0-0.32812l-0.97656-0.48438"/>
    <path d="m5.875 115.47c0.83984-0.48828 1.3828-1.4062 1.8164-2.1914-0.082031-0.30078-0.38281-0.51562-0.625-0.73437-0.16016-0.13282-0.40625-0.0234-0.59766 0.0273-0.59375 0.51562-1.2148 0.92187-1.8672 1.3281-0.26953 0.19141-0.16016 0.59766-0.21484 0.89454 0 0.26953 0.32422 0.46093 0.48828 0.62109 0.29688 0.13672 0.67578 0.16406 1 0.0547"/>
    <path d="m3.0312 115.55c-0.43359 0.21484-0.89453 0.625-1 1.1094-0.13672 0.86719 0.054688 1.6797-0.625 2.3047-0.027344 0.16016-0.1875 0.34766-0.027344 0.51172 0.59766 0.19141 1.1641 0.43359 1.8945 0.51562 0.32812-1.0586 0.57031-2.2226 0.94922-3.1406v-0.27344c-0.32422-0.40234-0.64844-0.92187-1.1914-1.0273"/>
    <path d="m44.109 112.68c0.54297 0.59766 0.51562 1.5156 1.1406 1.9766 0.80859 0.13672 1.5391-0.1875 2.1641-0.67578 0.35547-0.29688-0.16016-0.67579-0.21484-1.0312-0.35156-0.51172-0.10938-1.543-0.97656-1.5703-0.86719 0.13672-1.7305 0.16407-2.5977 0.16407l-0.24609 0.16015c-0.16016 0.51953 0.59375 0.51953 0.73047 0.97656"/>
    <path d="m163.69 118.34c-0.13281-0.62109 0.0273-1.4883-0.37891-2.0586-0.35156-0.26953-0.67578-0.67578-1.1367-0.56641-0.3789 0.32422-0.94921 0.70313-0.86718 1.2695 0.32422 0.97656 0.54297 1.6797 0.73047 2.6836 0.10937 0.1875 0 0.5664 0.30078 0.5664l1.7305-0.5664c0.30078-0.48829-0.26954-0.86719-0.37891-1.3281"/>
    <path d="m113.98 86.984-0.11719 0.22656-0.125 0.20312c-4e-3 0-0.85547 0.79297-0.85547 0.79297l-0.91406 0.85547c-0.6875 0.66797-1.168 1.2305-1.5156 1.7734-0.28907 0.39844-0.50782 0.86328-0.72266 1.3125-0.0625 0.13281-0.22656 0.13672-0.31641 0.10547 0 0-0.0234-0.0078-0.0508-0.01563-8e-3 -0.02344-0.0156-0.05078-0.0156-0.05078-0.0586-0.17188-0.0859-0.35156-0.0859-0.55078 0-0.15234 0.0156-0.3125 0.0508-0.48828l0.16797-0.67578 0.082-0.30469c0.52344-1.3789 1.6836-2.8242 3.1875-3.9492 0.19141-0.125 0.55078-0.21094 0.82422-0.125 0.16797 0.05078 0.28516 0.16016 0.35547 0.32031 0.0625 0.11328 0.0977 0.22266 0.0977 0.33594 0 0.07422-0.0156 0.15234-0.0469 0.23438 0 0 0.0352 0.01172 0.0664 0.02344-0.0312-0.01172-0.0664-0.02344-0.0664-0.02344zm-11.047 15.398-0.0742 0.25782c-0.0625 0.0898-0.14063 0.1914-0.2461 0.2539-0.082 0.0508-0.21484 0.0937-0.35547 4e-3 -0.14453-0.0586-0.2539-0.14844-0.35156-0.27735-4e-3 0-0.11719-0.17578-0.11719-0.17578l-0.0977-0.17187c-0.1211-0.21094-0.23828-0.36719-0.51953-0.34375-0.25391-0.0156-0.4375 0.0898-0.59766 0.19922l-0.17578 0.13281-0.10156 0.0742-0.28516 0.1914c-0.0117 8e-3 -0.38672 0.33204-0.38672 0.33204l-0.16793 0.14055-0.54688 0.50781c-0.39453 0.41016-0.60938 0.78516-0.67578 1.1758l-0.07422 0.28516-0.02344 0.125-0.03516 0.17188c-0.03516 0.1875-0.10547 0.39843-0.29687 0.51953-0.12891 0.0352-0.28906 0.0117-0.41016-0.0781-0.10156-0.0742-0.15625-0.17578-0.15625-0.28125-0.10938-1.3086 0.34766-2.5312 1.2578-3.3594 0.46094-0.37891 0.84766-0.83594 1.168-1.2305 0 0 0.35546-0.44922 0.35546-0.44922l0.71094-0.88281 0.082-0.03906c0.51563-0.10156 0.83594 0.35938 0.94922 0.56249 0.44922 0.57813 0.8125 1.2305 1.1523 2.0547 0.0195 0.0586 0.0273 0.1211 0.0273 0.1875 0 0.0352-4e-3 0.0742-8e-3 0.11328zm-0.62109 9.375-0.0156 0.0352c-0.17969 0.12109-0.39844 0.17578-0.70313 0.16016l-0.51562-0.0586-0.17188-0.0273-0.0391-0.0117c-0.51953-0.28906-0.64453-0.87891-0.70313-1.4727 0-0.19922 0.0664-0.35547 0.19922-0.46093 0 0 0.0156-0.0156 0.0312-0.0234h0.0352c0.71484 0 1.2539 0.21094 1.5976 0.63281l0.0195 0.0312 0.10546 0.20703 0.16016 0.33594s0.0352-0.0117 0.0664-0.0234c-0.0312 0.0117-0.0664 0.0234-0.0664 0.0234 0.0508 0.125 0.0742 0.24219 0.0742 0.34766 0 0.10546-0.0234 0.20703-0.0742 0.30468zm57.695 5.1797c-1.3828 0.0781-2.0625-1.4102-2.8711-2.2773-0.67969-0.78516-2.0039-1.2461-1.9766-2.4102-0.2461-0.46094-0.30079-1.1914-0.51563-1.7891-0.19141-0.48438-0.37891-1.1875-1.0312-1.2969-1.1641-0.1914-2.5703 0.13672-3.3008-0.94922-0.75781-0.8125 0.0781-1.7617 0.21484-2.5469 0.32422-1.0039 0.35157-2.3281 0.19141-3.3594-0.0273-0.59375-0.43359-1.082-0.32813-1.6758 0.27344-0.51562 0.92188-0.13672 1.3281-0.082 1.5156 0.4336 3.3047 0.21875 4.6836-0.3789 1.8984-0.92188 3.4141-2.8438 3.332-5.0391-0.26953-2.8438-2.3008-5.1719-4.4961-7.0117-0.40234-0.35156-0.91797-0.73438-1.0547-1.2461-0.0547-1.1094 1.1914-0.57031 1.8125-0.83984 0.76172-0.19141 1.5195-0.37891 2.1406-0.8125 1.6523-1.1094 2.0039-3.0586 1.6797-4.9531-0.0547-0.16406-0.0547-0.41016-0.29688-0.41016-0.30078 0.24609-0.59766 0.59766-0.97656 0.8125-1.0547 0.625-2.4648 0.51562-3.5742 1.0586-1.3828 0.59375-3.0859 1.4336-3.6836 3.0039-0.16407 0.78516 0.0273 1.5977 0.3789 2.25 1.6797 2.6523 5.2266 4.3867 5.7969 7.582 0.21484 1.2969-0.4336 2.2461-1.4375 2.9766-1.5156 0.92188-3.7891 0.59766-5.3047-0.21484-2.9258-1.4648-5.4727-3.9023-8.6133-4.9023-1.9766-0.89453-4.4141-0.67578-6.1719-2.0586-1.3281-0.86719-2.5469-2.0039-4.0352-2.3828-1.0312-0.35156-2.1953-0.29688-3.1406-0.8125-0.97656-0.86719-2.0039-1.6797-3.1445-2.2461-1.5664-0.78906-3.3008-1.1914-5.0352-1.5703-1.0274-0.24609-1.4062-1.3828-2.2461-1.9531-1.4375-1.1328-3.0352-1.9492-4.9844-1.7852-0.8125 0.05469-1.4336 0.59375-2.0586 1.1367-4.1406 3.6289-8.8828 6.1211-12.672 10.262-2.5469 2.6289-3.2227 5.9609-4.1719 9.1836-1.3516 4.8711-1.9219 10.238-6.8242 13.242-0.08203 0.13672-0.08203 0.3789 0.08203 0.48828 1.3008 0.32422 2.5742-0.19141 3.4414-1.082 0.83594-1.3281 1.7344-2.6016 2.8672-3.8203l0.27344-0.13281c0.13281 0.0234 0.29688 0.10547 0.24219 0.29688-0.32422 1.082-1.3008 1.8672-1.625 2.9531-0.43359 1.2969-1.6797 2.2969-2.7344 3.2188l-0.02734 0.16406c0 0.13282 0.13672 0.27344 0.26953 0.29688 2.3828 0.10937 4.0898-1.5977 5.6875-3.1953 0.16406-0.16016 0.37891-0.13282 0.59766-0.082 0.70313 0.54296 1.3516 1.3555 2.2734 1.5469 0.97656-0.13672 2.0039-0.27344 3.0352-0.19141 1.4336 0.4336 2.8125 1.0312 4.25 1.5156 0.73047-0.0234 1.2695-0.73047 1.6523-1.3242 0.29688-0.70312-0.13672-1.4102-0.082-2.0859 0.35156-0.21875 0.75781 0.0547 1.1367-0.0547 0.16015-0.10938 0.29687-0.30079 0.29687-0.48829-0.26953-1.2422-1.3789-2.1641-1.7344-3.332-0.53906-1.4883-2.3008-2.3828-2.625-3.9805 0.082-0.10937 0.21484-0.26953 0.35547-0.16406 1.1602 0.83985 2.1914 1.9492 3.625 2.168 1.0859 0.10938 2.1953 0.21484 3.2773 0.13281 0.16406-0.0547 0.29688-0.24218 0.24219-0.42968-0.45703-0.97657-0.89063-1.9531-1.1641-3.0078-0.37891-1.3281-0.64844-3.168-0.21485-4.6289 0.082-0.10938 0.4336-0.32031 0.59375-0.26562 0.21875 0.05469 0.48438 0.31641 0.51172 0.50781 0.16406 2.3047-0.0742 4.4141 1.3047 6.2266 0.59375 0.94922 1.625 1.1367 2.3555 1.8711 0.27343 0.37891 0.32422 1 0.13672 1.4336l-1.6524 2.4414c-0.3789 0.54297-0.75781 1.1367-0.89453 1.7305-0.13672 0.67969-0.0547 1.3281 0 1.9805-0.10937 0.0508-0.16016-0.10938-0.26953-0.16406-0.43359-0.89454-0.92188-2.0312-0.46094-3.0859l2.082-3.2266 0.0859-0.24219c-0.46094-0.2461-0.97656-0.48828-1.4648-0.59766-0.24219 0.10938-0.40625 0.35156-0.57032 0.57031l-2.0273 3.6836c-0.13672 0.43359-0.27344 0.75781-0.16406 1.2188 0.10937 0.54297 0.24219 1.0859 0.48828 1.543 0.16016 0.75781 0.29687 1.2734 0.64844 1.9531 0.51562 0.56641 1.2188 0.0508 1.8711 0.21485 0.64844 0.16406 0.89063 0.94531 1.543 1.1367 1.4609 0.48829 3.0312 0.75782 4.4922 1.3281 0.76172 0.24219 1.8438 0.53906 2.5195-0.082 0.94922-0.51563 1.1914-1.5156 1.3555-2.4648 0.29687-0.40625 0.89062-0.24218 1.3242-0.3789 0.8164-0.54297 1.082-1.5156 1.6797-2.2461l0.10938-0.3789c-0.082-0.2461-0.29688-0.38281-0.51563-0.46094h-2.7617c-1.2734 0.16016-1.3789 1.5703-1.9219 2.4375-0.30078 0.53906-0.89453 0.75391-1.5156 0.70313-1.3008-0.35157-2.8984-0.54297-3.4961-1.9492-0.082-0.35157-0.082-0.78516 0.19141-1.0312 0.67578-0.78516 1.4883-1.6797 2.3281-2.3281 1.1914-0.24219 2.3555-1.1367 2.9805-2.1953 0.32422-0.46094 0.26953-1.1367 0.8125-1.4883 0.16016-0.0312 0.52344-0.0391 0.63281 0.12109 0.2461 0.78516-0.19922 1.3477-0.4414 2.0274 2.9531 0.29687 5.2422-0.55469 8.1094-0.44922 1.2188 0 2.3125 0.14062 3.5039 0.0586 1.1914-0.0508 2.4922-0.54297 2.8711-1.7891 0.54297-1.5938-0.21094-3.4102-0.48437-4.9258l0.32812-0.25782c0.19141-0.10937 0.50781 0.0391 0.64453 0.14844 0.51172 1.4336 0.86328 3.1719 1.082 4.7383 0.21875 1.3828 0.8125 2.2812 1.5703 3.4453 1.3789 2.0586 3.8203 2.8711 6.2305 2.3555 2.9219-0.21484 5.4414 1.3242 7.2266 3.6016v0.13281c-0.0547 0.10937-0.16016 0.24609-0.29688 0.21875-1.543-1.1914-3.0859-2.4648-5.0625-2.7109-2-0.36328-3.793 0.67969-5.8789-0.16015-2.5117-0.82813-3.5664-2.375-4.6289-4.8477h-0.21875c-0.16016 0.0273-0.26563 0.1875-0.29688 0.35156l0.27344 1.6797c0.32422 1.3516 0.75781 2.9531 2.2188 3.5742 1.1367 0.67578 2.25 1.6523 3.6562 1.2734 2.4648-0.54297 4.957 0.16015 6.8516 1.543 0.6211 0.35157 1.1094 1 1.7852 1.2461 0.73438 0.29687 1.625 0.13281 2.2227-0.35156 1.3789-0.46094 1.707 1.2695 2.6523 1.8945 0.83984 0.8125 2.5156 0.47656 3.6289 0.47656l-0.0273-0.125c-0.13281-1.1094-0.43359-1.9766-0.86328-2.9492"/>
    <path d="m120.82 111.87c-0.73047 0.13672-1.5703-0.0273-2.3008 0.082-0.32422 0.48828-0.62109 1.082-0.53906 1.7344 0.0781 0.67578 0.83594 0.73047 1.3242 0.91797 0.46094 0.0547 1.1367 0.21875 1.3828-0.26953 0.26953-0.70313 0.51172-1.4609 0.62109-2.2227-0.0508-0.21484-0.26953-0.29687-0.48828-0.24219"/>
    <path d="m159.3 112.71c-0.53906-0.46094-1.1094 0.21875-1.3789 0.62109 0.1875 0.65235 0.73047 1.1914 1.1367 1.7891 0.21485 0.32422 0.56641 0.53907 0.94922 0.57032 0.375 0 0.67578-0.19141 0.94531-0.41016 0.19141-0.24219 0.40625-0.53906 0.32422-0.89062-0.51172-0.70313-1.3281-1.1406-1.9766-1.6797"/>
   </g>
   <g>
    <path d="m100.35 12.191h-12.574l-4.0586-12.191-4.0586 12.191h-12.57l10.309 7.2344-3.8398 12.043 10.16-7.4102 10.16 7.4102-3.8398-12.043 10.313-7.2344" fill="#fff"/>
    <path d="m83.715 22.359 7.5742 5.5273-2.8672-9.0078 7.5781-5.3164h-9.2188l-3.0664-9.2148-3.0664 9.2148h-9.2188l7.5781 5.3164-2.8672 9.0078 7.5742-5.5273" fill="#fad105"/>
    <path d="m83.715 22.359 7.5742 5.5273-2.8672-9.0078 7.5781-5.3164h-9.2188l-3.0664-9.2148-3.0664 9.2148h-9.2188l7.5781 5.3164-2.8672 9.0078 7.5742-5.5273" fill="#fad105"/>
   </g>
  </g>
 </g>
</svg>
