<?xml version="1.0" encoding="UTF-8" standalone="no"?>
<!-- Creator: CorelDRAW X6 -->

<svg
   xmlns:dc="http://purl.org/dc/elements/1.1/"
   xmlns:cc="http://creativecommons.org/ns#"
   xmlns:rdf="http://www.w3.org/1999/02/22-rdf-syntax-ns#"
   xmlns:svg="http://www.w3.org/2000/svg"
   xmlns="http://www.w3.org/2000/svg"
   xmlns:sodipodi="http://sodipodi.sourceforge.net/DTD/sodipodi-0.dtd"
   xmlns:inkscape="http://www.inkscape.org/namespaces/inkscape"
   xml:space="preserve"
   width="255.79221"
   height="252.00002"
   version="1.1"
   style="clip-rule:evenodd;fill-rule:evenodd;image-rendering:optimizeQuality;shape-rendering:geometricPrecision;text-rendering:geometricPrecision"
   viewBox="0 0 25579221 25201537"
   id="svg31"
   sodipodi:docname="Rostov.svg"
   inkscape:version="0.92.4 (5da689c313, 2019-01-14)"><metadata
   id="metadata35"><rdf:RDF><cc:Work
       rdf:about=""><dc:format>image/svg+xml</dc:format><dc:type
         rdf:resource="http://purl.org/dc/dcmitype/StillImage" /><dc:title></dc:title></cc:Work></rdf:RDF></metadata><sodipodi:namedview
   pagecolor="#ffffff"
   bordercolor="#666666"
   borderopacity="1"
   objecttolerance="10"
   gridtolerance="10"
   guidetolerance="10"
   inkscape:pageopacity="0"
   inkscape:pageshadow="2"
   inkscape:window-width="1366"
   inkscape:window-height="705"
   id="namedview33"
   showgrid="false"
   fit-margin-top="1"
   fit-margin-right="1"
   fit-margin-bottom="1"
   fit-margin-left="1"
   inkscape:zoom="1.1979695"
   inkscape:cx="100.99383"
   inkscape:cy="99.499809"
   inkscape:window-x="-8"
   inkscape:window-y="-8"
   inkscape:window-maximized="1"
   inkscape:current-layer="svg31" />
 <defs
   id="defs4">
  <style
   type="text/css"
   id="style2">
   <![CDATA[
    .fil1 {fill:#264796}
    .fil2 {fill:#FEFEFE}
    .fil0 {fill:#FFED00}
   ]]>
  </style>
 </defs>
 <g
   id="Слой_x0020_1"
   transform="matrix(1.2690388,0,0,1.2690388,99387.335,99968.02)">
  <metadata
   id="CorelCorpID_0Corel-Layer" />
  <g
   id="_645547280">
   <path
   class="fil0"
   d="M 5044720,17265450 C 3409330,17040430 502050,16550810 57510,14630090 -284480,13152590 979820,11192570 1716700,9967400 2098270,9332900 3011670,7970330 3043510,7252350 3066330,6738490 2943040,6186510 2820670,5689600 L 1503080,339030 c 1653350,788250 2537280,1249740 4454680,1296230 1743270,42240 2726160,-611050 4042260,-1635230 1320190,1027370 2293030,1677630 4042260,1635230 1917360,-46490 2801310,-507980 4454670,-1296230 l -1317580,5350570 c -122370,496900 -245680,1048890 -222880,1562750 31870,717970 945260,2080550 1326810,2715050 736880,1225170 2001210,3185200 1659190,4662690 -444540,1920720 -3351820,2410340 -4987170,2635360 -2005530,275970 -3741270,715370 -4955300,2435730 C 8785950,17980820 7050200,17541430 5044720,17265450 Z"
   id="path7"
   inkscape:connector-curvature="0"
   style="fill:#ffed00" />
   <path
   class="fil1"
   d="M 5085350,16970040 C 3596280,16765160 751600,16306700 347990,14562820 33370,13203510 1280740,11270720 1972200,10121090 2391080,9424610 3305900,8065150 3341380,7265550 3365430,6723460 3239060,6141630 3110190,5618320 L 1943160,879170 c 1503740,716910 2254270,1011670 4007360,1054170 1701690,41220 2751000,-545030 4049500,-1555500 1289840,1003750 2329450,1597170 4049510,1555500 1753080,-42510 2503600,-337250 4007350,-1054170 l -1167050,4739150 c -128860,523300 -255250,1105140 -231210,1647230 35500,799600 950320,2159060 1369200,2855540 691460,1149630 1938820,3082420 1624210,4441730 -403600,1743880 -3248310,2202340 -4737340,2407220 -1659160,228360 -3892350,765390 -4914670,2214060 C 8977700,17735430 6744510,17198410 5085350,16970040 Z"
   id="path9"
   inkscape:connector-curvature="0"
   style="fill:#264796" />
   <path
   class="fil0"
   d="M 10000020,18666980 C 9595720,18094030 7771810,17038760 5126020,16674660 3599890,16464750 989090,16010430 638480,14495660 376090,13361910 1325090,11775490 2227710,10274700 2683460,9516980 3600270,8157560 3639250,7278750 3665540,6686100 3520000,6035470 3399700,5547030 L 2383240,1419300 c 818600,390270 1664640,766160 3560060,812100 2151310,52140 3438660,-994710 4056720,-1475750 618060,481040 1905400,1527910 4056670,1475750 1895490,-45950 2741470,-421820 3560080,-812100 l -1016470,4127720 c -120300,488440 -265810,1139080 -239510,1731730 38960,878810 955780,2238230 1411500,2995950 902650,1500790 1851640,3087210 1589230,4220960 -350560,1514770 -2961380,1969090 -4487500,2179000 -2645790,364100 -4469740,1419370 -4874000,1992320 z"
   id="path11"
   inkscape:connector-curvature="0"
   style="fill:#ffed00" />
   <path
   class="fil2"
   d="m 12062000,2853030 c 1061320,0 1921610,860640 1921610,1921670 0,1060960 -860300,1921610 -1921610,1921610 -1061310,-290 -1921620,-860530 -1921620,-1921610 10,-1061160 860300,-1921410 1921620,-1921670 z"
   id="path13"
   inkscape:connector-curvature="0"
   style="fill:#fefefe" />
   <path
   class="fil1"
   d="m 12062000,2771290 c 1106470,0 2003380,897250 2003380,2003410 0,1106100 -896910,2003340 -2003380,2003340 -1106470,-230 -2003380,-897110 -2003380,-2003340 0,-1106300 896910,-2003150 2003380,-2003410 z m 397990,145720 c 465310,99270 867420,368720 1138170,740030 -81770,-26120 -170200,-45060 -239390,-63710 40720,271770 -4760,519480 -53030,755990 186310,119550 344440,292260 461180,526160 58870,-77230 128410,-182050 185450,-290700 6200,62440 9390,125790 9390,189920 0,416320 -134180,801270 -361300,1114370 -620,-84080 -9540,-171730 -13130,-241390 -245930,122680 -495530,155770 -735430,183190 -56140,214100 -171770,417660 -357940,601110 89490,31550 207440,64400 325710,85120 -232130,101060 -488320,157310 -757670,157310 -201370,-10 -395260,-31390 -577320,-89480 77610,-26380 155520,-60890 219260,-85090 -192600,-195960 -301570,-423190 -401460,-642830 -220930,12850 -450470,-34360 -682380,-154630 -2180,93460 2850,213340 19090,330750 -293700,-331760 -473210,-766920 -476790,-1244020 49160,66150 106230,129770 149120,183020 126780,-243920 309210,-417620 487280,-580470 -80440,-206130 -106740,-439050 -63700,-696760 -91150,27290 -206270,70020 -314460,122940 231790,-396410 602980,-701290 1046280,-847520 -49440,69120 -94120,146110 -132720,205480 271100,45310 492730,164930 702710,284030 171210,-140220 384590,-237170 642950,-275910 -55320,-80100 -133740,-179100 -219880,-266910 z"
   id="path15"
   inkscape:connector-curvature="0"
   style="fill:#264796" />
   <path
   class="fil1"
   d="m 12067340,4033180 c 254190,143050 500780,327360 720120,544620 -36930,288560 -129300,581990 -252560,846940 -323450,29290 -630680,29400 -935130,0 -116880,-252400 -203010,-558110 -252610,-846940 219340,-217530 465940,-401300 720170,-544620 z"
   id="path17"
   inkscape:connector-curvature="0"
   style="fill:#264796" />
   <path
   class="fil1"
   d="M 8648980,12753050 7076890,14425570 C 3975150,10155560 6340860,5277680 9259600,3740100 6871980,6028970 6544810,10173060 8648980,12753050 Z M 9853580,3430400 c -1615950,1960280 -1189450,5684300 510340,7498120 L 8805350,12586730 C 6592730,9847560 7322160,5704410 9853580,3430400 Z m 473370,-125760 c -1468740,1908170 138260,4934460 1872520,5671220 l -1680260,1787640 C 8717310,8828520 8507090,5167390 10326950,3304640 Z"
   id="path19"
   inkscape:connector-curvature="0"
   style="fill:#264796" />
   <path
   class="fil1"
   d="m 13928570,15046240 v 269350 h 101830 c 52990,0 92130,-12420 117410,-37130 25370,-24730 37990,-56680 37990,-95870 0,-52990 -15550,-90340 -46640,-112150 -22980,-16140 -56910,-24200 -101870,-24200 z m 0,476450 v 307330 h 113940 c 41420,0 75380,-9820 101830,-29370 35690,-26500 53540,-68480 53540,-125980 0,-46050 -13250,-82870 -39670,-110490 -26480,-27620 -65020,-41490 -115700,-41490 z m -310730,535190 v -1229180 h 517940 c 110480,0 198170,27390 263230,82010 65030,54650 97510,125170 97510,211540 10,73580 -21810,136580 -65570,188980 -43700,52350 -98940,86060 -165720,100980 80530,21930 143020,58670 187270,110480 44340,51810 66460,117410 66460,196860 10,103540 -36190,185860 -108730,246830 -72530,61000 -170370,91500 -293510,91500 z m -764460,-614550 c 0,142660 7520,241070 22470,295140 20690,77180 60970,115750 120810,115750 59840,0 100160,-38070 120890,-113990 14920,-55250 22440,-154240 22440,-296890 0,-140450 -7520,-238850 -22440,-295230 -20720,-77170 -61050,-115740 -120890,-115740 -58700,0 -98400,38070 -119090,113990 -16130,58670 -24190,157660 -24190,296980 z m -334920,0 c 0,-179550 33970,-325210 101830,-436820 81780,-134680 207210,-201920 376370,-201920 169160,0 294640,66700 376330,200160 67940,110490 101910,256730 101910,438590 0,179470 -33970,325130 -101910,436750 -81690,134670 -207170,202030 -376330,202030 -169150,0 -294590,-66820 -376370,-200290 -67850,-110480 -101830,-256650 -101830,-438490 z m -940540,-376410 v -238220 h 866640 v 238220 h -277920 v 990960 h -310800 v -990960 z m -357050,540380 269310,24200 c 0,135800 -38250,244850 -114730,327130 -76590,82310 -181580,123490 -315130,123490 -172610,0 -299190,-66230 -379790,-198610 -65570,-108190 -98370,-254890 -98370,-440170 10,-177300 32220,-320550 96650,-429900 81730,-139240 208900,-208850 381510,-208850 141610,0 250340,43670 326270,131160 69110,80560 103590,188170 103590,322850 h -290030 c 0,-56380 -8000,-104180 -24120,-143360 -23060,-55250 -59290,-82870 -108810,-82870 -59800,0 -101290,40320 -124230,120920 -17300,61010 -25950,158250 -25950,291710 0,145040 8100,244620 24190,298730 21900,73670 66190,110490 132960,110490 54040,0 92050,-20770 113910,-62180 21860,-41450 32760,-103010 32760,-184740 z m -1341000,-163970 c 0,142660 7450,241070 22410,295140 20730,77180 61000,115750 120840,115750 59850,0 100120,-38070 120880,-113990 14960,-55250 22450,-154240 22450,-296890 0,-140450 -7490,-238850 -22450,-295230 -20760,-77170 -61050,-115740 -120880,-115740 -58670,0 -98370,38070 -119100,113990 -16120,58670 -24150,157660 -24150,296980 z m -334940,0 c 0,-179550 33960,-325210 101860,-436820 81740,-134680 207180,-201920 376330,-201920 169190,0 294680,66700 376330,200160 67950,110490 101910,256730 101910,438590 0,179470 -33960,325130 -101910,436750 -81650,134670 -207140,202030 -376330,202030 -169150,0 -294590,-66820 -376330,-200290 -67900,-110480 -101870,-256650 -101870,-438490 z m -964710,614550 v -1229180 h 462700 c 123140,0 221550,27620 295170,82860 81740,61010 122600,149640 122600,265850 0,133540 -44330,233670 -132960,300400 -77090,58750 -182980,88040 -317660,88040 -44870,0 -84570,-2300 -119090,-6850 v 498880 z m 310760,-1011640 v 302150 h 55250 c 52940,0 96090,-10360 129490,-31120 42580,-26490 63850,-66150 63850,-119100 0,-52940 -20680,-92670 -62140,-119170 -34510,-21820 -78260,-32760 -131210,-32760 z m -1549600,-217540 v 530010 l 303820,-530010 h 305590 l -272750,405700 267570,823480 h -303830 l -169200,-531690 -131200,193360 v 338330 h -310770 v -1229180 z m -1296160,873590 v -538670 c -64470,0 -111100,14990 -139860,44920 -39150,40240 -58700,114490 -58700,222670 0,107020 19000,181270 56990,222730 29930,32180 77090,48350 141570,48350 z m 310730,-538670 v 538670 c 64440,0 111060,-15550 139850,-46680 39110,-41370 58670,-116170 58670,-224400 0,-107050 -19560,-180670 -58670,-220930 -29950,-31110 -76550,-46660 -139860,-46660 z m -830380,267590 c 0,-148490 46000,-266420 138100,-353920 92100,-87460 211770,-131210 359070,-131210 h 22480 v -117380 h 310730 v 117380 h 22440 c 146160,0 265610,43750 358250,131210 92640,87500 138960,205430 138960,353920 0,151900 -46320,271340 -138960,358260 -92640,86880 -212090,130350 -358250,130350 h -22440 v 138060 h -310730 v -138060 h -22470 c -145010,0 -262970,-42620 -353900,-127780 -95520,-89750 -143280,-210060 -143280,-360830 z"
   id="path21"
   inkscape:connector-curvature="0"
   style="fill:#264796" />
   <path
   class="fil1"
   d="m 10909910,16743920 c -23730,0 -41500,11110 -53290,33320 -11880,22240 -17770,62170 -17770,119820 v 239790 c 0,58430 5720,98520 17180,120370 11500,21820 29460,32770 53880,32770 23650,0 41370,-11100 53220,-33310 11870,-22210 17760,-62170 17760,-119830 v -239790 c 0,-58430 -5690,-98600 -17190,-120330 -11440,-21860 -29400,-32810 -53790,-32810 z m -277450,273020 c 0,-119090 17720,-212010 53210,-278590 45930,-85040 120650,-127590 224240,-127590 102850,0 177180,42550 223030,127590 36270,67360 54420,160270 54420,278590 10,120580 -21070,216050 -63300,286380 -48040,79890 -119440,119820 -214150,119820 -104370,0 -178700,-39930 -223110,-119820 -36230,-65150 -54340,-160550 -54340,-286380 z m -436170,62140 v -133160 h 44340 c 39270,0 69210,-6970 89940,-21080 24430,-17020 36590,-44050 36590,-81020 0,-27390 -6670,-49750 -19910,-67090 -13360,-17460 -31870,-26110 -55520,-26110 -25200,0 -46090,8650 -62750,26110 -16600,17340 -29040,40470 -37170,69310 l -148670,-65530 c 23610,-54700 59140,-96700 106480,-125920 47410,-29220 101400,-43830 162060,-43830 70280,0 129490,19640 177570,58830 51770,42150 77680,97320 77680,165340 0,45190 -17340,83220 -52170,114340 -30300,27300 -69930,45890 -118740,55480 58440,8130 103940,25860 136510,53250 37750,31050 56600,74370 56600,129880 0,74720 -31820,133940 -95440,177530 -56250,38490 -123190,57730 -200860,57730 -62190,0 -114850,-13510 -158170,-40470 -43280,-27080 -78230,-68610 -104880,-124860 l 145430,-72110 c 18470,39930 35840,66190 52120,78730 16290,12550 35540,18900 57750,18900 65090,0 97660,-31830 97660,-95450 0,-44410 -14100,-74790 -42200,-91000 -19940,-11840 -51460,-17800 -94310,-17800 z m -401770,-118780 c 0,-65810 -3360,-112430 -9970,-139740 -11110,-46680 -33320,-69940 -66620,-69940 -29570,0 -51030,14380 -64360,43290 -9620,21460 -14410,48770 -14410,82080 0,35560 5920,63120 17760,82710 11840,19550 32180,29370 61010,29370 12590,0 25550,-2570 38880,-7750 13280,-5180 25910,-11880 37710,-20020 z m -336280,255280 169820,-26600 c 3700,27380 9970,48450 18850,63300 12580,20690 31440,31050 56610,31050 29600,0 52160,-18360 67700,-54970 15550,-36580 23300,-90460 23300,-161440 -23640,14070 -48270,25470 -73790,34400 -25550,8890 -50520,13280 -74910,13280 -55520,0 -103790,-19740 -144850,-59330 -41050,-39660 -61580,-89790 -61580,-150410 0,-88830 24430,-160030 73240,-213680 48850,-53570 117250,-80420 205300,-80420 97670,0 171680,43680 221970,130940 40720,71060 61050,159110 61050,264170 10,107220 -22200,199380 -66580,276290 -53990,93960 -130970,140980 -230850,140980 -139820,0 -221590,-69150 -245280,-207560 z m -218630,-593710 v 657020 h 117650 v 133160 h -423970 v -133160 h 119870 v -461690 l -119870,28840 v -134300 c 25160,-3650 59560,-15150 103240,-34400 48810,-21460 78770,-39960 89860,-55470 z"
   id="path23"
   inkscape:connector-curvature="0"
   style="fill:#264796" />
   <path
   class="fil1"
   d="M 5009030,2515010 C 4260540,2400220 3572800,2234040 2870410,1959400 l 952970,3830290 c 156900,630600 184260,1061280 183550,1394170 -1710,807690 -566890,1876220 -1070510,2759310 -786410,1378980 -1564570,2498690 -1694100,3881010 -151690,1618530 2544390,2181810 3766710,2291480 z"
   id="path25"
   inkscape:connector-curvature="0"
   style="fill:#264796" />
   <path
   class="fil1"
   d="m 14999500,2515010 c 748490,-114790 1436240,-280970 2138640,-555610 l -952970,3830290 c -156880,630600 -184230,1061280 -183530,1394170 1720,807690 566870,1876220 1070510,2759310 786400,1378980 1564570,2498690 1694100,3881010 151670,1618530 -2544420,2181810 -3766750,2291480 z"
   id="path27"
   inkscape:connector-curvature="0"
   style="fill:#264796" />
  </g>
 </g>
</svg>