<?xml version="1.0" encoding="UTF-8" standalone="no"?>
<!-- Created with Inkscape (http://www.inkscape.org/) -->

<svg
   xmlns:dc="http://purl.org/dc/elements/1.1/"
   xmlns:cc="http://creativecommons.org/ns#"
   xmlns:rdf="http://www.w3.org/1999/02/22-rdf-syntax-ns#"
   xmlns:svg="http://www.w3.org/2000/svg"
   xmlns="http://www.w3.org/2000/svg"
   xmlns:sodipodi="http://sodipodi.sourceforge.net/DTD/sodipodi-0.dtd"
   xmlns:inkscape="http://www.inkscape.org/namespaces/inkscape"
   version="1.1"
   id="svg2"
   xml:space="preserve"
   width="185.70511"
   height="252"
   viewBox="0 0 185.7051 252"
   sodipodi:docname="shirak-fc.svg"
   inkscape:version="0.92.4 (5da689c313, 2019-01-14)"><metadata
     id="metadata8"><rdf:RDF><cc:Work
         rdf:about=""><dc:format>image/svg+xml</dc:format><dc:type
           rdf:resource="http://purl.org/dc/dcmitype/StillImage" /><dc:title></dc:title></cc:Work></rdf:RDF></metadata><defs
     id="defs6"><clipPath
       clipPathUnits="userSpaceOnUse"
       id="clipPath18"><path
         d="M 0,600 H 800 V 0 H 0 Z"
         id="path16"
         inkscape:connector-curvature="0" /></clipPath></defs><sodipodi:namedview
     pagecolor="#ffffff"
     bordercolor="#666666"
     borderopacity="1"
     objecttolerance="10"
     gridtolerance="10"
     guidetolerance="10"
     inkscape:pageopacity="0"
     inkscape:pageshadow="2"
     inkscape:window-width="1366"
     inkscape:window-height="705"
     id="namedview4"
     showgrid="false"
     fit-margin-top="1"
     fit-margin-right="1"
     fit-margin-bottom="1"
     fit-margin-left="1"
     inkscape:zoom="0.417193"
     inkscape:cx="511.92136"
     inkscape:cy="500.17377"
     inkscape:window-x="-8"
     inkscape:window-y="-8"
     inkscape:window-maximized="1"
     inkscape:current-layer="g10" /><g
     id="g10"
     inkscape:groupmode="layer"
     inkscape:label="shirak-fc-seeklogo.com"
     transform="matrix(1.3333333,0,0,-1.3333333,-267.73812,279.1096)"><g
       id="g12"
       transform="matrix(0.34154313,0,0,0.34154313,132.71435,13.881719)"><g
         id="g14"
         clip-path="url(#clipPath18)"><g
           id="g20"
           transform="translate(402.8486,21.1992)"><path
             d="m 0,0 c -39.558,11.803 -81.588,30.536 -116.284,51.581 -34.694,21.072 -62.069,44.339 -72.321,65.725 -10.156,21.283 -12.685,47.323 -12.69,84.333 V 518.35 h 99.27 v 30.512 H 102.832 V 518.35 h 99.274 L 202.104,201.639 C 202.1,164.629 199.572,138.589 189.416,117.306 179.162,95.92 151.788,72.653 117.095,51.581 82.397,30.536 40.368,11.803 0.812,0 L 0.404,-0.117 Z"
             style="fill:#000000;fill-opacity:1;fill-rule:nonzero;stroke:none"
             id="path22"
             inkscape:connector-curvature="0" /></g><g
           id="g24"
           transform="translate(204.3921,222.8379)"><path
             d="m 0,0 c -0.005,-36.902 2.568,-62.52 12.411,-83.11 9.7,-20.395 36.761,-43.638 71.232,-64.522 34.349,-20.837 76.038,-39.435 115.219,-51.167 39.18,11.732 80.87,30.33 115.216,51.167 34.472,20.884 61.535,44.127 71.232,64.522 9.846,20.59 12.418,46.208 12.413,83.11 v 313.873 h -97.851 v 1.418 h 1.417 -1.417 v -1.418 h -1.421 v 30.512 H 99.27 V 313.873 H 0 Z"
             style="fill:#ffffff;fill-opacity:1;fill-rule:nonzero;stroke:none"
             id="path26"
             inkscape:connector-curvature="0" /></g><g
           id="g28"
           transform="translate(495.751,560.126)"><path
             d="m 0,0 v -30.511 h 99.271 v -98.858 h -383.534 v 98.858 h 99.27 V 0 Z"
             style="fill:#ef7e25;fill-opacity:1;fill-rule:nonzero;stroke:none"
             id="path30"
             inkscape:connector-curvature="0" /></g><g
           id="g32"
           transform="translate(492.9121,557.2881)"><path
             d="m 0,0 h -179.316 v -30.511 h -99.27 v -93.182 H 99.271 v 93.182 H 0 Z"
             style="fill:#000000;fill-opacity:1;fill-rule:nonzero;stroke:none"
             id="path34"
             inkscape:connector-curvature="0" /></g><g
           id="g36"
           transform="translate(211.4878,420.8242)"><path
             d="m 0,0 v -197.986 c 0,-33.322 1.993,-59.689 11.719,-80.054 8.652,-18.117 32.983,-39.963 68.509,-61.512 33.406,-20.262 73.915,-38.346 111.538,-49.822 37.625,11.476 78.132,29.56 111.539,49.822 35.526,21.549 59.856,43.395 68.51,61.512 9.725,20.365 11.719,46.732 11.719,80.054 V 0 Z"
             style="fill:#000000;fill-opacity:1;fill-rule:nonzero;stroke:none"
             id="path38"
             inkscape:connector-curvature="0" /></g><path
           d="M 592.183,330.637 H 214.326 v 87.349 h 377.857 z"
           style="fill:#ef7e25;fill-opacity:1;fill-rule:nonzero;stroke:none"
           id="path40"
           inkscape:connector-curvature="0" /><g
           id="g42"
           transform="translate(260.3369,394.1807)"><path
             d="m 0,0 c -2.165,5.392 -6.186,8.135 -12.475,8.135 -6.29,0 -10.725,-3.973 -10.725,-8.514 0,-14.003 31.346,-10.502 31.346,-31.978 0,-12.677 -10.929,-21.381 -27.324,-21.381 -7.424,0 -13.611,1.987 -16.6,4.068 1.34,4.353 2.269,7.758 2.989,12.016 h 1.96 c 1.134,-5.488 5.877,-10.218 14.229,-10.218 8.042,0 12.063,4.352 12.063,9.65 0,14.285 -30.726,10.502 -30.726,31.977 0,13.056 10.93,20.245 23.2,20.245 C -4.639,14 0.929,12.204 4.846,9.366 3.609,6.432 2.888,4.162 1.547,0 Z"
             style="fill:#ffffff;fill-opacity:1;fill-rule:nonzero;stroke:none"
             id="path44"
             inkscape:connector-curvature="0" /></g><g
           id="g46"
           transform="translate(328.0825,373.2715)"><path
             d="m 0,0 c -5.258,0.095 -10.413,0.379 -15.672,0.379 -5.156,0 -10.413,-0.19 -15.672,-0.379 v -5.392 c 0,-10.597 0.206,-17.881 0.824,-26.207 -2.268,0.19 -5.052,0.473 -8.454,0.473 -3.403,0 -6.187,-0.283 -8.456,-0.473 0.618,8.326 0.825,15.61 0.825,26.207 V 7.475 c 0,10.594 -0.207,17.88 -0.825,26.205 2.269,-0.189 5.053,-0.473 8.456,-0.473 3.402,0 6.186,0.284 8.454,0.473 -0.618,-8.231 -0.824,-15.515 -0.824,-26.016 3.505,-0.095 8.454,-0.189 15.775,-0.189 7.321,0 11.652,0.094 15.569,0.189 0,10.501 -0.206,17.785 -0.825,26.016 2.269,-0.189 5.053,-0.473 8.456,-0.473 3.402,0 6.186,0.284 8.454,0.473 C 15.467,25.355 15.261,18.069 15.261,7.475 V -5.392 c 0,-10.597 0.206,-17.881 0.824,-26.207 -2.268,0.19 -5.052,0.473 -8.454,0.473 -3.403,0 -6.187,-0.283 -8.455,-0.473 C -0.206,-23.273 0,-15.989 0,-5.392 Z"
             style="fill:#ffffff;fill-opacity:1;fill-rule:nonzero;stroke:none"
             id="path48"
             inkscape:connector-curvature="0" /></g><g
           id="g50"
           transform="translate(362.1138,380.7461)"><path
             d="m 0,0 c 0,10.595 -0.207,17.88 -0.826,26.206 2.27,-0.189 5.053,-0.474 8.455,-0.474 3.404,0 6.187,0.285 8.456,0.474 C 15.466,17.88 15.26,10.595 15.26,0 v -12.867 c 0,-10.596 0.206,-17.881 0.825,-26.206 -2.269,0.19 -5.052,0.472 -8.456,0.472 -3.402,0 -6.185,-0.282 -8.455,-0.472 0.619,8.325 0.826,15.61 0.826,26.206 z"
             style="fill:#ffffff;fill-opacity:1;fill-rule:nonzero;stroke:none"
             id="path52"
             inkscape:connector-curvature="0" /></g><g
           id="g54"
           transform="translate(411.6055,401.5591)"><path
             d="m 0,0 c -0.203,-8.61 -0.308,-17.125 -0.308,-25.733 0.826,-0.095 1.547,-0.188 2.27,-0.188 9.073,0 14.021,4.634 14.021,13.527 C 15.983,-1.23 11.24,0 0,0 m 0.621,-29.801 h -0.929 v -3.879 c 0,-10.596 0.207,-17.881 0.826,-26.206 -2.268,0.19 -5.053,0.472 -8.455,0.472 -3.402,0 -6.187,-0.282 -8.455,-0.472 0.618,8.325 0.824,15.61 0.824,26.206 v 12.867 c 0,10.595 -0.206,17.88 -0.824,26.206 2.268,-0.189 5.053,-0.474 8.455,-0.474 3.711,0 8.145,0.474 15.157,0.474 10.414,0 14.229,-0.852 17.838,-3.217 4.124,-2.744 6.702,-6.906 6.702,-12.489 0,-9.176 -5.776,-15.041 -15.983,-17.408 6.6,-10.69 14.436,-21.474 21.962,-32.165 -3.093,0.19 -6.186,0.472 -9.278,0.472 -3.095,0 -6.293,-0.282 -9.383,-0.472 z"
             style="fill:#ffffff;fill-opacity:1;fill-rule:nonzero;stroke:none"
             id="path56"
             inkscape:connector-curvature="0" /></g><g
           id="g58"
           transform="translate(489.8701,366.6489)"><path
             d="M 0,0 C -2.991,7.664 -5.877,15.137 -9.176,22.517 -12.684,15.137 -15.878,7.664 -18.868,0 Z m 27.323,-24.976 c -3.299,0.19 -6.184,0.473 -9.073,0.473 -2.886,0 -5.877,-0.283 -8.763,-0.473 -2.166,6.433 -4.539,12.961 -7.117,19.394 -4.431,0.094 -8.761,0.189 -13.197,0.189 -3.61,0 -7.113,-0.095 -10.723,-0.189 -2.783,-6.433 -5.053,-12.866 -7.012,-19.394 -1.65,0.19 -3.196,0.473 -4.845,0.473 -1.65,0 -3.197,-0.283 -5.156,-0.473 5.052,10.501 20.518,44.181 29.387,65.751 1.34,-0.188 2.576,-0.472 3.917,-0.472 1.34,0 2.58,0.284 3.919,0.472 8.764,-21.57 20.827,-50.331 28.663,-65.751"
             style="fill:#ffffff;fill-opacity:1;fill-rule:nonzero;stroke:none"
             id="path60"
             inkscape:connector-curvature="0" /></g><g
           id="g62"
           transform="translate(542.1504,371.3794)"><path
             d="m 0,0 c 0,-13.624 0,-23.746 0.823,-29.707 -2.267,0.19 -5.051,0.473 -8.454,0.473 -3.401,0 -6.186,-0.283 -8.454,-0.473 0.618,8.326 0.826,15.61 0.826,26.207 V 9.367 c 0,10.594 -0.208,17.88 -0.826,26.205 2.268,-0.189 5.053,-0.473 8.454,-0.473 3.403,0 6.187,0.284 8.454,0.473 C 0,30.558 0,17.597 0,5.393 c 9.278,10.028 22.684,25.355 26.294,30.179 1.956,-0.189 3.814,-0.473 5.772,-0.473 1.857,0 3.817,0.284 6.187,0.473 C 33.613,31.315 17.012,14.475 11.65,8.325 20.519,-3.973 34.231,-22.99 39.8,-29.707 c -4.022,0.19 -7.011,0.473 -10.003,0.473 -2.989,0 -5.978,-0.283 -8.971,-0.473 C 14.021,-19.773 7.011,-9.838 0.205,0 Z"
             style="fill:#ffffff;fill-opacity:1;fill-rule:nonzero;stroke:none"
             id="path64"
             inkscape:connector-curvature="0" /></g><g
           id="g66"
           transform="translate(287.8232,320.231)"><path
             d="m 0,0 v -233.218 c 1.759,-1.104 3.543,-2.209 5.365,-3.313 2.237,-1.357 4.511,-2.701 6.811,-4.038 V 0 Z"
             style="fill:#ef7e25;fill-opacity:1;fill-rule:nonzero;stroke:none"
             id="path68"
             inkscape:connector-curvature="0" /></g><g
           id="g70"
           transform="translate(317.3262,320.231)"><path
             d="m 0,0 v -250.134 c 4.003,-2.104 8.066,-4.164 12.177,-6.185 V 0 Z"
             style="fill:#ef7e25;fill-opacity:1;fill-rule:nonzero;stroke:none"
             id="path72"
             inkscape:connector-curvature="0" /></g><g
           id="g74"
           transform="translate(258.3198,320.231)"><path
             d="m 0,0 v -212.471 c 3.79,-3.035 7.855,-6.098 12.176,-9.178 V 0 Z"
             style="fill:#ef7e25;fill-opacity:1;fill-rule:nonzero;stroke:none"
             id="path76"
             inkscape:connector-curvature="0" /></g><g
           id="g78"
           transform="translate(228.8154,320.231)"><path
             d="m 0,0 v -181.707 c 3.038,-4.838 7.124,-9.913 12.177,-15.15 V 0 Z"
             style="fill:#ef7e25;fill-opacity:1;fill-rule:nonzero;stroke:none"
             id="path80"
             inkscape:connector-curvature="0" /></g><g
           id="g82"
           transform="translate(346.8306,320.231)"><path
             d="m 0,0 v -264.462 c 4.038,-1.806 8.103,-3.553 12.176,-5.254 V 0 Z"
             style="fill:#ef7e25;fill-opacity:1;fill-rule:nonzero;stroke:none"
             id="path84"
             inkscape:connector-curvature="0" /></g><g
           id="g86"
           transform="translate(376.335,320.231)"><path
             d="m 0,0 v -276.591 c 4.069,-1.529 8.131,-3 12.176,-4.398 V 0 Z"
             style="fill:#ef7e25;fill-opacity:1;fill-rule:nonzero;stroke:none"
             id="path88"
             inkscape:connector-curvature="0" /></g><g
           id="g90"
           transform="translate(403.2539,202.084)"><path
             d="m 0,0 v -167.664 c 22.968,7.057 47.057,16.614 69.868,27.592 V 0 Z"
             style="fill:#ffffff;fill-opacity:1;fill-rule:nonzero;stroke:none"
             id="path92"
             inkscape:connector-curvature="0" /></g><g
           id="g94"
           transform="translate(592.1826,251.2783)"><path
             d="M 0,0 V 71.317 H -69.866 V -0.002 Z"
             style="fill:#ffffff;fill-opacity:1;fill-rule:nonzero;stroke:none"
             id="path96"
             inkscape:connector-curvature="0" /></g><g
           id="g98"
           transform="translate(473.1221,322.5957)"><path
             d="M 0,0 H -69.868 V -71.32 L 0,-71.319 Z"
             style="fill:#ffffff;fill-opacity:1;fill-rule:nonzero;stroke:none"
             id="path100"
             inkscape:connector-curvature="0" /></g><g
           id="g102"
           transform="translate(522.3164,89.3174)"><path
             d="m 0,0 c 30.155,19.39 50.748,38.617 58.425,54.69 7.403,15.501 10.209,34.748 11.089,58.077 H 0 Z"
             style="fill:#ffffff;fill-opacity:1;fill-rule:nonzero;stroke:none"
             id="path104"
             inkscape:connector-curvature="0" /></g><g
           id="g106"
           transform="translate(592.1826,251.2783)"><path
             d="m 0,0 -69.866,-0.002 v 71.319 h -49.195 V -0.002 l -69.868,-0.001 v -49.191 h 69.868 v -140.073 c 14.073,6.773 27.662,14.083 40.199,21.689 3.089,1.873 6.084,3.745 8.996,5.617 V -49.194 H -0.353 C -0.103,-42.6 0,-35.698 0,-28.44 Z"
             style="fill:#ef7e25;fill-opacity:1;fill-rule:nonzero;stroke:none"
             id="path108"
             inkscape:connector-curvature="0" /></g><g
           id="g110"
           transform="translate(246.1748,485.7285)"><path
             d="m 0,0 c 0,4.132 -0.074,6.973 -0.296,10.22 2.177,-0.036 4.391,-0.184 6.569,-0.184 3.615,0 6.714,0.074 7.71,0.184 -0.074,-0.442 -0.148,-0.885 -0.148,-1.55 0,-0.774 0.074,-1.106 0.148,-1.66 C 11.179,7.195 6.751,7.454 5.646,7.454 5.46,4.76 5.46,2.104 5.46,-0.589 c 3.21,0.073 5.572,0.148 8.375,0.295 -0.147,-0.85 -0.184,-1.182 -0.184,-1.661 0,-0.405 0.074,-0.738 0.184,-1.512 -2.803,0.221 -5.571,0.332 -8.375,0.332 v -1.882 c 0,-4.133 0.074,-6.974 0.296,-10.22 -0.813,0.073 -1.808,0.184 -3.027,0.184 -1.216,0 -2.212,-0.111 -3.025,-0.184 C -0.074,-11.991 0,-9.15 0,-5.017 Z"
             style="fill:#ffffff;fill-opacity:1;fill-rule:nonzero;stroke:none"
             id="path112"
             inkscape:connector-curvature="0" /></g><g
           id="g114"
           transform="translate(287.3125,474.7705)"><path
             d="m 0,0 c -0.405,-1.033 -0.701,-2.103 -0.812,-3.135 -1.955,-1.034 -4.5,-1.624 -7.526,-1.624 -8.56,0 -13.615,5.35 -13.615,12.323 0,10.184 6.899,14.095 14.648,14.095 2.582,0 5.829,-0.776 7.527,-1.808 -0.48,-1.218 -0.738,-2.51 -0.849,-3.764 h -0.516 c -1.845,2.288 -3.726,3.284 -6.347,3.284 -3.948,0 -8.411,-3.432 -8.411,-11.253 0,-7.601 4.501,-10.59 8.743,-10.59 2.361,0 5.092,1.107 6.679,2.767 z"
             style="fill:#ffffff;fill-opacity:1;fill-rule:nonzero;stroke:none"
             id="path116"
             inkscape:connector-curvature="0" /></g><g
           id="g118"
           transform="translate(505.8125,495.4692)"><path
             d="m 0,0 c -0.223,-2.951 -0.37,-7.305 -0.37,-11.032 v -2.25 c 0,-3.948 0.037,-6.642 0.222,-11.696 -0.961,0.073 -1.918,0.184 -2.879,0.184 -0.957,0 -1.955,-0.111 -2.914,-0.184 0.109,1.881 0.404,6.087 0.404,10.184 V -4.39 c -0.735,-0.296 -2.914,-1.513 -4.279,-2.104 -0.516,0.738 -1.365,1.698 -1.808,2.03 3.837,1.366 7.048,2.768 10.922,4.759 z"
             style="fill:#ffffff;fill-opacity:1;fill-rule:nonzero;stroke:none"
             id="path120"
             inkscape:connector-curvature="0" /></g><g
           id="g122"
           transform="translate(524.96,493.8096)"><path
             d="m 0,0 c -1.993,0 -3.101,-2.214 -3.101,-5.867 0,-4.28 1.367,-5.718 3.137,-5.718 1.624,0 3.099,1.475 3.099,5.349 C 3.135,-1.624 1.882,0 0,0 m -6.493,-20.699 c 0.847,-0.664 1.77,-1.402 3.467,-1.402 2.879,0 6.049,3.247 6.235,10.405 l -0.074,0.073 c -0.921,-1.18 -2.139,-2.065 -4.869,-2.065 -3.728,0 -7.01,2.361 -7.01,7.046 0,4.907 3.135,8.302 8.375,8.302 5.385,0 8.965,-3.431 8.965,-10.33 0,-9.446 -4.685,-15.055 -11.659,-15.055 -0.885,0 -2.177,0.147 -2.768,0.591 -0.258,0.701 -0.552,1.439 -0.921,2.177 z"
             style="fill:#ffffff;fill-opacity:1;fill-rule:nonzero;stroke:none"
             id="path124"
             inkscape:connector-curvature="0" /></g><g
           id="g126"
           transform="translate(541.709,482.2612)"><path
             d="m 0,0 c 0.147,1.217 0.258,3.689 0.258,4.943 0,2.215 -0.185,6.679 -0.481,7.712 l 0.296,0.258 c 0.849,-0.184 2.842,-0.295 4.354,-0.295 1.476,0 5.276,0.037 8.449,0.332 -0.074,-0.775 -0.185,-1.586 -0.185,-2.362 0,-0.775 0.111,-1.586 0.185,-2.36 C 12.027,8.302 8.561,8.56 7.23,8.56 4.834,8.56 3.468,8.56 2.287,8.412 2.14,7.562 1.993,4.28 1.993,1.918 c 0.994,0.738 2.545,1.034 4.169,1.034 4.945,0 7.71,-3.137 7.71,-6.9 0,-4.723 -4.059,-8.228 -9.924,-8.228 -2.435,0 -5.055,0.886 -6.493,2.066 0.773,1.255 1.327,2.509 1.844,3.8 h 0.515 c 0.775,-2.767 1.883,-4.206 4.208,-4.206 1.771,0 4.207,1.218 4.207,6.125 0,3.874 -2.03,5.461 -4.355,5.461 -1.069,0 -2.546,-0.885 -2.989,-1.55 z"
             style="fill:#ffffff;fill-opacity:1;fill-rule:nonzero;stroke:none"
             id="path128"
             inkscape:connector-curvature="0" /></g><g
           id="g130"
           transform="translate(571.2607,493.9565)"><path
             d="m 0,0 c -2.177,0 -3.025,-1.845 -3.025,-4.907 0,-2.842 1.403,-4.317 2.842,-4.317 1.77,0 2.988,1.734 2.988,4.686 C 2.805,-1.845 1.92,0 0,0 m -0.183,-10.736 c -1.846,0 -3.138,-1.587 -3.138,-5.794 0,-3.873 1.292,-5.828 3.211,-5.828 1.661,0 3.211,1.807 3.211,5.902 0,3.948 -1.366,5.72 -3.284,5.72 m -3.541,1.107 c -2.29,0.405 -4.245,2.508 -4.245,5.128 0,3.874 3.322,6.014 7.822,6.014 5.349,0 7.897,-2.583 7.897,-5.683 0,-3.098 -1.92,-4.98 -4.208,-5.459 v -0.258 c 2.288,-0.37 5.02,-2.473 5.02,-6.199 0,-5.092 -3.73,-7.786 -8.782,-7.786 -4.945,0 -8.559,2.436 -8.559,7.268 0,3.949 2.398,6.089 5.055,6.717 z"
             style="fill:#ffffff;fill-opacity:1;fill-rule:nonzero;stroke:none"
             id="path132"
             inkscape:connector-curvature="0" /></g><g
           id="g134"
           transform="translate(417.7197,532.27)"><path
             d="m 0,0 h -8.097 v 7.513 h -6.175 V 0 h -8.097 v -6.177 h 8.097 v -20.116 h 6.175 V -6.177 H 0 Z"
             style="fill:#ffffff;fill-opacity:1;fill-rule:nonzero;stroke:none"
             id="path136"
             inkscape:connector-curvature="0" /></g><g
           id="g138"
           transform="translate(471.0391,459.7334)"><path
             d="m 0,0 c -1.021,0.945 -2.156,1.486 -6.055,1.486 -3.163,0 -6.751,-0.636 -10.866,2.323 -2.659,1.911 -5.802,6.534 -9.255,12.363 -2.596,4.388 -6.263,9.456 -8.24,14.563 1.643,-1.642 4.608,-10.192 10.424,-16.007 0,0 4.399,4.644 8.45,25.89 7.215,0.395 6.324,-2.471 9.189,-2.471 1.148,0 2.846,0.791 2.077,4.546 0,0 1.632,-0.197 3.655,-0.197 0,0 2.966,3.261 2.966,5.237 0,1.482 -2.177,2.356 -7.881,7.652 -2.553,2.373 -7.043,7.467 -9.413,7.467 -2.184,0 -2.766,-0.198 -3.954,-0.198 -3.26,0 0.496,4.249 -3.358,4.249 -2.281,0 -2.17,-1.906 -2.86,-3.746 -9.026,-2.449 -20.455,-11.917 -25.37,-15.737 -3.608,-2.804 -5.567,-4.126 -15.482,-4.126 -5.904,0 -28.154,1.687 -37.75,1.687 -12.444,0 -18.77,-9.174 -27.944,-9.174 -3.903,0 -5.695,2.359 -5.695,5.274 0,15.396 39.227,16.133 39.227,33.111 0,2.215 -0.801,4.008 -1.792,4.008 -4.324,0 -1.54,-6.15 -6.875,-10.966 -5.429,-4.901 -12.653,-7.258 -18.764,-9.911 -9.26,-4.02 -17.175,-9.177 -17.175,-16.77 0,-5.393 3.496,-11.6 16.028,-11.6 1.826,0 6.065,0.843 6.065,-0.158 0,-1.529 -3.363,-4.17 -4.961,-5.312 -3.826,-2.733 -7.33,-2.47 -10.453,-3.492 -2.916,-0.955 -4.498,-2.975 -6.859,-9.681 -2.406,-6.838 -2.245,-10.04 -3.193,-10.04 -2.215,0 0.104,3.269 -6.327,3.269 -1.887,0 -4.385,-0.747 -3.902,-4.631 0,0 -1.254,-2.562 0.243,-5.189 0.33,-3.18 3.379,-5.259 7.454,-5.259 12.654,0 14.953,14.27 20.85,18.81 2.402,1.851 6.197,2.881 14.871,2.881 9.069,0 11.732,-1.443 11.732,-1.443 8.298,12.491 22.755,15.767 22.755,15.767 0,0 -20.96,-11.748 -20.96,-16.286 0,-0.31 3.924,-0.31 8.776,-0.31 2.065,0 11.669,8.053 18.689,8.053 8.811,0 10.124,-6.224 27.563,-4.021 -1.335,2.743 -11.415,9.858 -11.415,9.858 7.064,-2.619 10.466,-7.195 14.129,-10.26 8.474,-7.095 12.135,-12.322 16.471,-15.88 5.222,-4.286 9.346,-4.915 19.575,-4.915 7.658,0 7.658,1.99 7.658,4.449 C 2.048,-2.811 1.213,-1.122 0,0"
             style="fill:#ffffff;fill-opacity:1;fill-rule:nonzero;stroke:none"
             id="path140"
             inkscape:connector-curvature="0" /></g><g
           id="g142"
           transform="translate(430.9824,469.0527)"><path
             d="m 0,0 c -0.971,-1.207 -2.254,-2.395 -3.847,-2.991 -5.524,-0.8 -7.213,-0.05 -8.202,1.631 0.569,2.397 -1.825,3.309 -3.656,3.309 -3.057,0 -5.533,-1.723 -5.533,-3.854 0,-4.641 3.904,-7.954 22.629,-8.398 0,0 2.331,1.48 5.198,3.92 C 4.757,-4.478 2.637,-2.353 0,0"
             style="fill:#ffffff;fill-opacity:1;fill-rule:nonzero;stroke:none"
             id="path144"
             inkscape:connector-curvature="0" /></g><g
           id="g146"
           transform="translate(390.8716,461.4907)"><path
             d="m 0,0 c 0,1.025 -0.742,1.854 -2.594,2.149 0,0 -0.223,0.89 -3.483,0.89 -3.707,0 -4.893,-1.852 -7.71,-1.852 -5.261,0 -4.742,5.763 -18.971,5.843 -4.558,0 -7.769,-0.286 -10.138,-0.824 3.82,-8.49 9.311,-10.83 20.601,-10.83 h 18.774 c 1.432,0 2.942,1.215 2.705,2.771 0,0 0.816,0.446 0.816,1.853"
             style="fill:#ffffff;fill-opacity:1;fill-rule:nonzero;stroke:none"
             id="path148"
             inkscape:connector-curvature="0" /></g></g></g></g></svg>