<?xml version="1.0" encoding="utf-8"?>
<!-- Generator: Adobe Illustrator 14.0.0, SVG Export Plug-In . SVG Version: 6.00 Build 43363)  -->
<!DOCTYPE svg PUBLIC "-//W3C//DTD SVG 1.1//EN" "http://www.w3.org/Graphics/SVG/1.1/DTD/svg11.dtd">
<svg version="1.1" id="Ebene_1" xmlns="http://www.w3.org/2000/svg" xmlns:xlink="http://www.w3.org/1999/xlink" x="0px" y="0px"
	 width="351px" height="404px" viewBox="0 0 351 404" enable-background="new 0 0 351 404" xml:space="preserve">
<g>
	<g>
		<defs>
			<rect id="SVGID_1_" x="-3429.408" y="-173.001" width="3975.536" height="5622.545"/>
		</defs>
		<clipPath id="SVGID_2_">
			<use xlink:href="#SVGID_1_"  overflow="visible"/>
		</clipPath>
		<g clip-path="url(#SVGID_2_)">
			<defs>
				<rect id="SVGID_3_" x="-3429.408" y="-173.001" width="3975.536" height="5622.545"/>
			</defs>
			<clipPath id="SVGID_4_">
				<use xlink:href="#SVGID_3_"  overflow="visible"/>
			</clipPath>
		</g>
		<g clip-path="url(#SVGID_2_)">
			<defs>
				<rect id="SVGID_5_" x="-3429.408" y="-173.001" width="3975.536" height="5622.545"/>
			</defs>
			<clipPath id="SVGID_6_">
				<use xlink:href="#SVGID_5_"  overflow="visible"/>
			</clipPath>
			<path clip-path="url(#SVGID_6_)" fill="#FFFFFF" d="M338.813,204.806V107.98c-6.86-3.096-14.779-6.473-23.576-9.105
				c-0.008-11.511-0.015-47.516-0.015-47.516c-26.179-16.057-77.622-28.497-136.803-28.497c-59.773,0-111.647,12.209-137.58,28.524
				v47.509c-9.276,2.778-17.689,6.46-24.785,9.744v96.707l24.778,16.113l-0.007,15.555c0,100.544,137.223,144.91,137.223,144.91
				s137.219-45.481,137.219-144.91c0-6.177,0-6.259,0-15.555L338.813,204.806z"/>
			<path clip-path="url(#SVGID_6_)" fill="#E2001A" d="M311.91,190.156c-0.012-57.706-0.031-136.833-0.031-136.833
				c-25.541-15.774-75.741-26.942-133.478-26.942c-58.328,0-108.943,10.933-134.248,26.969l-0.008,136.807l-24.177,13.425
				l24.177,15.675l-0.006,17.157c0,98.781,133.888,142.366,133.888,142.366S311.92,334.094,311.92,236.414c0-6.072,0-8.022,0-17.157
				l22.974-16.283L311.91,190.156z"/>
			<path clip-path="url(#SVGID_6_)" fill="#FFFFFF" d="M304.687,58.091c-24.596-13.918-71.671-23.925-126.313-23.925
				c-55.181,0-103.294,10.007-127.021,23.953l-0.021,176.797c0,94.416,126.703,136.078,126.703,136.078
				s126.689-42.712,126.689-136.078C304.725,193.144,304.687,58.091,304.687,58.091"/>
			<path clip-path="url(#SVGID_6_)" fill="none" stroke="#FABB00" stroke-width="0.401" d="M304.687,58.091
				c-24.596-13.918-71.671-23.925-126.313-23.925c-55.181,0-103.294,10.007-127.021,23.953l-0.021,176.797
				c0,94.416,126.703,136.078,126.703,136.078s126.689-42.712,126.689-136.078C304.725,193.144,304.687,58.091,304.687,58.091z"/>
			<path clip-path="url(#SVGID_6_)" fill="#E2001A" d="M298.462,61.683c-23.486-12.106-68.146-20.868-120.099-20.868
				c-52.479,0-98.178,8.762-120.79,20.896l-0.012,171.932c0,90.688,120.474,130.695,120.474,130.695s120.474-41.017,120.474-130.695
				C298.509,193.516,298.462,61.683,298.462,61.683"/>
			<path clip-path="url(#SVGID_6_)" fill="#FFFFFF" d="M334.9,203.004v-96.716c-33.1-15.014-90.975-24.958-156.84-24.958
				c-66.701,0-125.208,10.206-158.087,25.53v96.721c32.879-15.329,91.386-25.533,158.087-25.533
				C243.926,178.048,301.801,188.001,334.9,203.004"/>
			<path clip-path="url(#SVGID_6_)" fill="#E2001A" d="M334.9,196.245v-82.953c-33.1-15.161-90.975-25.204-156.84-25.204
				c-66.701,0-125.208,10.306-158.087,25.792v82.946c32.879-15.48,91.386-25.784,158.087-25.784
				C243.926,171.042,301.801,181.086,334.9,196.245"/>
		</g>
		<g clip-path="url(#SVGID_2_)">
			<defs>
				<path id="SVGID_7_" d="M55.344,190.435l1.26,46.283c0,90.688,120.83,126.516,120.83,126.516s119.169-34.192,123.004-131.853
					c0.914-23.126,4.252-37.2,4.252-37.2c-35.262-9.261-86.395-16.801-131.539-17.902c-4.136-0.102-8.212-0.147-12.228-0.147
					C119.454,176.131,84.075,181.427,55.344,190.435"/>
			</defs>
			<clipPath id="SVGID_8_">
				<use xlink:href="#SVGID_7_"  overflow="visible"/>
			</clipPath>
			<path clip-path="url(#SVGID_8_)" fill="#FFFFFF" d="M88.143,80.584l-58.104,69.052C51.927,188.81,88.821,232.5,136.28,272.333
				c48.04,40.303,98.013,69.188,140.718,83.769l56.801-69.873c-42.712-14.581-92.631-43.423-140.674-83.725
				C145.666,162.67,110.031,119.763,88.143,80.584"/>
		</g>
		<polygon clip-path="url(#SVGID_2_)" fill="#FABB00" points="175.816,226.803 155.998,229.516 157.765,249.331 143.286,235.52 
			128.898,249.258 130.666,229.331 110.956,226.643 127.64,215.599 117.444,198.515 136.49,204.671 143.489,186.054 
			150.538,204.779 169.465,198.649 159.229,215.834 		"/>
		<polygon clip-path="url(#SVGID_2_)" fill="none" stroke="#000000" stroke-width="0.22" stroke-miterlimit="3.864" points="
			175.816,226.803 155.998,229.516 157.765,249.331 143.286,235.52 128.898,249.258 130.666,229.331 110.956,226.643 
			127.64,215.599 117.444,198.515 136.49,204.671 143.489,186.054 150.538,204.779 169.465,198.649 159.229,215.834 		"/>
		<g clip-path="url(#SVGID_2_)">
			<defs>
				<rect id="SVGID_9_" x="-3429.408" y="-173.001" width="3975.536" height="5622.545"/>
			</defs>
			<clipPath id="SVGID_10_">
				<use xlink:href="#SVGID_9_"  overflow="visible"/>
			</clipPath>
			<path clip-path="url(#SVGID_10_)" fill="#E2001A" d="M248.7,285.355c-2.784,0-5.557,1.529-5.557,4.647
				c0,1.721,1.082,3.198,2.574,3.693v0.046c-1.948,0.649-3.244,2.136-3.244,4.28c0,3.373,3.416,4.929,6.227,4.929
				c2.812,0,6.227-1.556,6.227-4.929c0-2.144-1.302-3.631-3.244-4.28v-0.046c1.489-0.495,2.574-1.972,2.574-3.693
				C254.257,286.884,251.492,285.355,248.7,285.355 M248.7,295.444c1.084,0,1.95,0.909,1.95,2.037c0,1.103-0.866,1.984-1.95,1.984
				c-1.083,0-1.944-0.881-1.944-1.984C246.756,296.354,247.617,295.444,248.7,295.444 M248.7,288.293
				c0.99,0,1.795,0.822,1.795,1.835c0,1.015-0.805,1.837-1.795,1.837c-0.999,0-1.793-0.822-1.793-1.837
				C246.907,289.115,247.701,288.293,248.7,288.293 M233.979,288.7c1.487,0,2.701,1.187,2.701,2.684
				c0,1.492-1.214,2.677-2.701,2.677c-1.499,0-2.621-1.186-2.621-2.677C231.358,289.887,232.48,288.7,233.979,288.7
				 M234.691,302.302l3.483-4.565c1.401-1.858,2.614-4.128,2.614-6.487c0-1.701-0.866-3.433-2.18-4.493
				c-1.257-1.017-3.077-1.401-4.65-1.401c-3.722,0-7.003,2.154-7.003,6.158c0,3,2.03,5.748,5.225,5.748
				c0.874,0,1.558-0.173,2.296-0.492l0.045,0.038l-4.648,5.495H234.691z M219.037,285.355c-2.789,0-5.557,1.529-5.557,4.647
				c0,1.721,1.084,3.198,2.571,3.693v0.046c-1.943,0.649-3.235,2.136-3.235,4.28c0,3.373,3.409,4.929,6.221,4.929
				c2.813,0,6.23-1.556,6.23-4.929c0-2.144-1.3-3.631-3.242-4.28v-0.046c1.486-0.495,2.571-1.972,2.571-3.693
				C224.597,286.884,221.822,285.355,219.037,285.355 M219.037,295.444c1.086,0,1.943,0.909,1.943,2.037
				c0,1.103-0.857,1.984-1.943,1.984c-1.081,0-1.942-0.881-1.942-1.984C217.095,296.354,217.956,295.444,219.037,295.444
				 M219.037,288.293c0.999,0,1.803,0.822,1.803,1.835c0,1.015-0.804,1.837-1.803,1.837c-0.992,0-1.792-0.822-1.792-1.837
				C217.245,289.115,218.045,288.293,219.037,288.293 M204.553,289.587v12.714h4.239v-16.301h-6.575v3.586H204.553z"/>
			<path clip-path="url(#SVGID_10_)" d="M77.889,75.706v-2.39l0.405-0.085c0.77-0.156,1.766-0.42,2.452-0.222
				c-0.312-1.306-2.016-0.821-3.189-0.573l-0.404,0.078v3.345l0.509-0.102C77.727,75.743,77.819,75.722,77.889,75.706
				 M77.152,69.505l0.443-0.095c0.099-0.02,0.201-0.053,0.293-0.078v-2.04l0.287-0.061c0.521-0.104,1.091-0.2,1.52-0.104
				c-0.188-1.045-1.283-0.897-2.263-0.694l-0.28,0.058V69.505z M84.113,66.944c0-1.85-0.744-3.105-1.956-3.653
				c0.773,0.477,1.226,1.391,1.226,2.854c0,1.408-0.452,2.631-1.678,3.525v0.045c0.54-0.038,0.997,0.006,1.396,0.139
				C83.817,69.044,84.113,68.052,84.113,66.944 M85.554,73.832c0-1.37-0.378-2.397-1.207-2.925c0.313,0.547,0.463,1.268,0.463,2.123
				c0,3.261-2.727,4.9-5.51,5.485l-6.106,1.262l0.738,0.798l6.104-1.269C82.829,78.732,85.554,77.088,85.554,73.832"/>
		</g>
		<path clip-path="url(#SVGID_2_)" d="M92.003,64.854l4.741-0.834v-3.424l-0.742-0.803v3.428l-4.729,0.836v2.601l0.729-0.134V64.854
			z M92.003,72.635v-1.749l4.501-0.795v-3.427l-0.743-0.796v3.42l-4.487,0.795v2.68L92.003,72.635z M95.753,65.861L95.753,65.861z
			 M96.744,76.153v-3.425l-0.742-0.775v3.401l-8.714,1.542l0.738,0.796L96.744,76.153z"/>
		<g clip-path="url(#SVGID_2_)">
			<defs>
				<rect id="SVGID_11_" x="-3429.408" y="-173.001" width="3975.536" height="5622.545"/>
			</defs>
			<clipPath id="SVGID_12_">
				<use xlink:href="#SVGID_11_"  overflow="visible"/>
			</clipPath>
			<path clip-path="url(#SVGID_12_)" d="M103.605,65.562v-2.964l0.392-0.052c0.681-0.101,1.401-0.134,1.937,0.094
				c-0.346-1.05-1.562-1.057-2.674-0.897l-0.382,0.061v3.873l0.382-0.054C103.372,65.604,103.496,65.583,103.605,65.562
				 M102.878,74.265l-4.006,0.582l0.735,0.801l3.998-0.579v-5.793l-0.691-1l-0.036,0.005V74.265z M108.119,68.575l-0.448-0.548
				c2.186-0.714,3.271-2.657,3.271-4.806c0-1.798-0.786-3.148-1.976-3.957c0.764,0.669,1.235,1.684,1.235,3.154
				c0,2.149-1.182,4.181-3.367,4.889l4.833,5.67l-4.956,0.728l0.046,0.044l0.671,0.757l5.139-0.721L111.9,72.99L108.119,68.575z"/>
		</g>
		<path clip-path="url(#SVGID_2_)" d="M117.187,72.291l-4.024,0.452l0.735,0.798l4.018-0.447v-9.508l-0.689-0.829l-0.039,0.007
			V72.291z M129.343,71.831v-15.56l-0.737-0.798V71.03l-4.005,0.441l0.032,0.1l0.692,0.708L129.343,71.831z"/>
		<path clip-path="url(#SVGID_2_)" d="M136.416,59.105l4.795-0.384v-3.428l-0.744-0.803v3.429l-4.785,0.394v2.6l0.734-0.062V59.105z
			 M140.228,60.562v3.409l-4.546,0.365v2.676l0.734-0.058v-1.817l4.548-0.374v-3.418l-0.73-0.782H140.228z M141.211,70.854v-3.427
			l-0.744-0.841l-0.187,0.055l0.187-0.016v3.427l-8.823,0.713l0.743,0.804L141.211,70.854z"/>
		<g clip-path="url(#SVGID_2_)">
			<defs>
				<rect id="SVGID_13_" x="-3429.408" y="-173.001" width="3975.536" height="5622.545"/>
			</defs>
			<clipPath id="SVGID_14_">
				<use xlink:href="#SVGID_13_"  overflow="visible"/>
			</clipPath>
			<path clip-path="url(#SVGID_14_)" d="M147.412,69.618l-4.041,0.224l0.742,0.804l4.038-0.229v-5.735l-0.7-1.054l-0.039,0.007
				V69.618z M148.151,60.977v-3.027l0.39-0.019c0.673-0.042,1.392-0.012,1.934,0.248c-0.395-0.998-1.58-1.108-2.669-1.049
				l-0.394,0.019v3.881l0.394-0.02C147.917,61.003,148.034,60.989,148.151,60.977 M155.547,59.22c0-1.951-0.854-3.396-2.167-4.236
				c0.891,0.737,1.431,1.852,1.431,3.433c0,2.146-1.193,4.073-3.403,4.588l4.883,6.098l-5.028,0.287l-0.092-0.133l0.086,0.14
				l0.742,0.797l5.03-0.288l-4.88-6.098C154.347,63.291,155.547,61.361,155.547,59.22"/>
			<path clip-path="url(#SVGID_14_)" d="M170.308,64.328c-0.536-0.759-0.856-1.701-0.856-2.771c0-2.142,1.977-4.125,4.396-4.147
				c1.128-0.007,2.152,0.424,2.935,1.095c-0.782-1.121-2.138-1.907-3.677-1.894c-2.414,0.026-4.399,2.002-4.399,4.145
				C168.706,62.252,169.339,63.501,170.308,64.328 M178.426,54.399c0.156,0.115,0.321,0.211,0.47,0.339
				C178.738,54.623,178.597,54.5,178.426,54.399 M182.451,61.418c0-2.673-1.357-4.981-3.32-6.507
				c1.557,1.405,2.577,3.375,2.577,5.707c0,5.035-3.609,8.616-8.603,8.66c-3.074,0.035-5.611-1.297-7.123-3.485
				c1.435,2.704,4.335,4.32,7.865,4.289C178.835,70.032,182.451,66.455,182.451,61.418"/>
			<path clip-path="url(#SVGID_14_)" d="M188.783,65.812v-2.566l0.41,0.014c0.777,0.029,1.775,0,2.479,0.355
				c-0.426-1.204-2.074-1.115-3.215-1.153l-0.409-0.018v3.348l0.513,0.013C188.633,65.812,188.705,65.812,188.783,65.812
				 M188.048,59.434l0.447,0.012c0.098,0.008,0.189,0.008,0.288,0v-2.223l0.288,0.006c0.526,0.019,1.09,0.062,1.533,0.255
				c-0.282-0.924-1.334-1.022-2.272-1.059l-0.284-0.004V59.434z M195.137,58.371c0-1.664-0.667-2.892-1.723-3.672
				c0.613,0.662,0.977,1.582,0.977,2.874c0,1.402-0.448,2.523-1.708,3.124v0.039c0.442,0.075,0.821,0.203,1.162,0.361
				C194.653,60.436,195.137,59.473,195.137,58.371 M196.595,65.597c0-1.446-0.429-2.604-1.382-3.325
				c0.439,0.674,0.646,1.529,0.646,2.523c0,3.262-2.777,4.249-5.629,4.162l-6.228-0.199l0.736,0.802l6.23,0.193
				C193.812,69.847,196.595,68.857,196.595,65.597"/>
		</g>
		<path clip-path="url(#SVGID_2_)" d="M203.15,58.152l4.802,0.281v-3.428l-0.735-0.808h-0.119l0.119,0.005v3.429l-4.803-0.28v2.604
			l0.736,0.04V58.152z M203.15,66.107v-1.932l4.553,0.268v-3.426l-0.736-0.74v3.363l-4.553-0.259v2.677L203.15,66.107z
			 M207.952,70.566v-3.427l-0.735-0.726v3.351l-8.835-0.512l0.73,0.799L207.952,70.566z"/>
		<g clip-path="url(#SVGID_2_)">
			<defs>
				<rect id="SVGID_15_" x="-3429.408" y="-173.001" width="3975.536" height="5622.545"/>
			</defs>
			<clipPath id="SVGID_16_">
				<use xlink:href="#SVGID_15_"  overflow="visible"/>
			</clipPath>
			<path clip-path="url(#SVGID_16_)" d="M214.883,61.777v-3.129l0.394,0.033c0.643,0.055,1.327,0.176,1.857,0.482
				c-0.432-0.936-1.562-1.196-2.598-1.285l-0.39-0.033v3.881l0.39,0.032C214.648,61.765,214.765,61.773,214.883,61.777
				 M210.116,69.966v0.01l0.736,0.793l4.03,0.344v-5.627l-0.697-1.16h-0.039v5.984L210.116,69.966z M222.266,60.967
				c0-1.885-0.794-3.327-2.027-4.283c0.796,0.849,1.286,1.983,1.286,3.48c0,2.142-1.188,3.9-3.386,4.104l4.865,6.793l-5.008-0.426
				l0.045,0.074l0.686,0.728l5.02,0.426l-4.87-6.792C221.066,64.866,222.266,63.109,222.266,60.967"/>
		</g>
		<path clip-path="url(#SVGID_2_)" d="M229.259,68.395V56.976l-0.744-0.766v12.098L229.259,68.395z M234.073,73.104v-3.426
			l-0.731-0.805v3.43l-8.838-1.04v0.025l0.73,0.775L234.073,73.104z"/>
		<path clip-path="url(#SVGID_2_)" d="M233.674,72.303l0.729,0.801l4.247,0.614l1.063-2.552l5.034,0.722l-0.255-0.733l-5.511-0.788
			l-1.063,2.55L233.674,72.303z M240.085,67.426l0.964,0.141l1.187-3.386l-0.455-1.464l-0.047-0.006L240.085,67.426z
			 M233.674,72.296l-0.008,0.007L233.674,72.296z M250.5,75.413l-5.807-16.386l-0.729-0.809h-0.03l0.03,0.007l5.792,16.389
			l-4.266-0.617l-0.014-0.039l0.009,0.073l0.749,0.769L250.5,75.413z"/>
		<path clip-path="url(#SVGID_2_)" d="M251.466,74.912l0.684,0.789l3.979,0.747v-9.279l-0.703-1.046l-0.039-0.007v9.53
			L251.466,74.912z M262.702,70.73l-6.574-9.838l-0.703-0.747l7.237,10.833l0.04,0.005V70.73z M267.418,78.577V63.018l-0.735-0.776
			v15.535l-3.966-0.75l0.013,0.02l0.717,0.784L267.418,78.577z"/>
		<g clip-path="url(#SVGID_2_)">
			<defs>
				<rect id="SVGID_17_" x="-3429.408" y="-173.001" width="3975.536" height="5622.545"/>
			</defs>
			<clipPath id="SVGID_18_">
				<use xlink:href="#SVGID_17_"  overflow="visible"/>
			</clipPath>
			<path clip-path="url(#SVGID_18_)" d="M269.668,78.423v0.052l0.739,0.75l5.592,1.275c4.21,0.956,7.704-1.65,7.704-6.022
				c0-2.511-1.168-4.944-2.939-6.759c1.362,1.701,2.204,3.804,2.204,5.956c0,4.373-3.504,6.979-7.703,6.023L269.668,78.423z
				 M274.35,76.065V67.99l0.928,0.207c0.965,0.22,1.82,0.648,2.512,1.244c-0.772-1.018-1.897-1.73-3.256-2.037l-0.924-0.216v8.71
				L274.35,76.065z"/>
			<path clip-path="url(#SVGID_18_)" fill="#FFFFFF" d="M80.813,73.447c0,1.718-1.984,2.063-3.152,2.305l-0.509,0.106v-3.345
				l0.404-0.082C78.848,72.164,80.813,71.571,80.813,73.447 M79.742,67.456c0,1.324-1.096,1.738-2.141,1.956l-0.449,0.089v-3.013
				l0.289-0.06C78.511,66.207,79.742,66.034,79.742,67.456 M81.699,69.713v-0.039c1.239-0.894,1.675-2.124,1.675-3.526
				c0-2.974-1.811-3.665-4.526-3.105l-5.654,1.175v15.561L79.3,78.51c2.783-0.583,5.51-2.216,5.51-5.484
				C84.81,70.864,83.885,69.546,81.699,69.713"/>
		</g>
		<polygon clip-path="url(#SVGID_2_)" fill="#FFFFFF" points="96.002,63.22 96.002,59.797 87.288,61.338 87.288,76.89 
			96.002,75.354 96.002,71.931 91.268,72.765 91.268,70.081 95.753,69.292 95.753,65.864 91.268,66.654 91.268,64.056 		"/>
		<g clip-path="url(#SVGID_2_)">
			<defs>
				<rect id="SVGID_19_" x="-3429.408" y="-173.001" width="3975.536" height="5622.545"/>
			</defs>
			<clipPath id="SVGID_20_">
				<use xlink:href="#SVGID_19_"  overflow="visible"/>
			</clipPath>
			<path clip-path="url(#SVGID_20_)" fill="#FFFFFF" d="M106.031,63.275c0,1.695-1.466,2.156-2.771,2.353l-0.392,0.051v-3.88
				l0.392-0.051C104.565,61.554,106.031,61.585,106.031,63.275 M110.201,62.421c0-3.319-2.303-4.447-5.35-4.007l-5.979,0.874v15.561
				l3.996-0.587v-5.983h0.046l3.778,5.429l4.975-0.727l-4.833-5.671C109.02,66.595,110.201,64.563,110.201,62.421"/>
		</g>
		<polygon clip-path="url(#SVGID_2_)" fill="#FFFFFF" points="113.162,72.743 117.187,72.291 117.187,62.764 117.226,62.756 
			124.589,71.477 128.605,71.03 128.605,55.468 124.589,55.919 124.589,65.429 124.541,65.436 117.187,56.738 113.162,57.181 		"/>
		<polygon clip-path="url(#SVGID_2_)" fill="#FFFFFF" points="140.476,57.921 140.476,54.494 131.65,55.207 131.65,70.77 
			140.476,70.055 140.476,66.627 135.674,67.015 135.674,64.331 140.228,63.963 140.228,60.539 135.674,60.912 135.674,58.31 		"/>
		<g clip-path="url(#SVGID_2_)">
			<defs>
				<rect id="SVGID_21_" x="-3429.408" y="-173.001" width="3975.536" height="5622.545"/>
			</defs>
			<clipPath id="SVGID_22_">
				<use xlink:href="#SVGID_21_"  overflow="visible"/>
			</clipPath>
			<path clip-path="url(#SVGID_22_)" fill="#FFFFFF" d="M150.61,58.905c0,1.696-1.488,2.033-2.81,2.104l-0.389,0.02v-3.881
				l0.389-0.019C149.122,57.058,150.61,57.217,150.61,58.905 M154.811,58.417c0-3.317-2.336-4.653-5.401-4.474l-6.032,0.349v15.556
				l4.035-0.229v-5.984l0.039-0.007l3.811,5.762l5.028-0.287l-4.883-6.098C153.609,62.493,154.811,60.562,154.811,58.417"/>
			<path clip-path="url(#SVGID_22_)" fill="#FFFFFF" d="M177.5,60.678c0,2.686-1.983,4.662-4.388,4.683
				c-2.421,0.024-4.396-1.918-4.396-4.602c0-2.146,1.976-4.127,4.396-4.148C175.517,56.591,177.5,58.534,177.5,60.678
				 M181.711,60.618c0-4.703-4.128-7.972-8.599-7.928c-4.483,0.039-8.612,3.379-8.612,8.088c0,5.034,3.614,8.546,8.612,8.5
				C178.099,69.234,181.711,65.653,181.711,60.618"/>
			<path clip-path="url(#SVGID_22_)" fill="#FFFFFF" d="M191.776,64.254c0,1.719-2.02,1.591-3.222,1.549l-0.507-0.014v-3.345
				l0.409,0.012C189.781,62.5,191.776,62.379,191.776,64.254 M190.681,58.009c0,1.325-1.108,1.472-2.186,1.438l-0.447-0.012v-3.012
				l0.284,0.004C189.421,56.466,190.681,56.587,190.681,58.009 M192.683,60.735v-0.039c1.26-0.601,1.708-1.725,1.708-3.127
				c0-2.972-1.851-4.101-4.609-4.188l-5.779-0.179v15.555l6.223,0.199c2.856,0.087,5.64-0.9,5.64-4.162
				C195.864,62.634,194.906,61.097,192.683,60.735"/>
		</g>
		<polygon clip-path="url(#SVGID_2_)" fill="#FFFFFF" points="207.217,57.631 207.217,54.206 198.377,53.691 198.377,69.246 
			207.217,69.768 207.217,66.341 202.414,66.061 202.414,63.376 206.967,63.644 206.967,60.218 202.414,59.95 202.414,57.351 		"/>
		<g clip-path="url(#SVGID_2_)">
			<defs>
				<rect id="SVGID_23_" x="-3429.408" y="-173.001" width="3975.536" height="5622.545"/>
			</defs>
			<clipPath id="SVGID_24_">
				<use xlink:href="#SVGID_23_"  overflow="visible"/>
			</clipPath>
			<path clip-path="url(#SVGID_24_)" fill="#FFFFFF" d="M217.331,60.058c0,1.692-1.48,1.81-2.801,1.705l-0.384-0.036v-3.881
				l0.384,0.036C215.851,57.989,217.331,58.362,217.331,60.058 M221.524,60.165c0-3.32-2.321-4.984-5.387-5.241l-6.025-0.516V69.97
				l4.034,0.339v-5.984h0.039l3.801,6.311l5.024,0.43l-4.879-6.794C220.328,64.065,221.524,62.311,221.524,60.165"/>
		</g>
		<polygon clip-path="url(#SVGID_2_)" fill="#FFFFFF" points="228.521,56.176 224.504,55.703 224.504,71.264 233.334,72.306 
			233.334,68.881 228.521,68.314 		"/>
		<path clip-path="url(#SVGID_2_)" fill="#FFFFFF" d="M243.411,67.899l-3.333-0.473l1.655-4.715l0.04,0.006L243.411,67.899z
			 M249.763,74.614l-5.805-16.389l-4.37-0.631l-5.922,14.708l4.245,0.613l1.063-2.55l5.519,0.788l1.004,2.843L249.763,74.614z"/>
		<polygon clip-path="url(#SVGID_2_)" fill="#FFFFFF" points="251.414,74.897 255.386,75.647 255.386,66.115 255.425,66.122 
			262.702,77.03 266.683,77.777 266.683,62.215 262.702,61.469 262.702,70.979 262.662,70.972 255.386,60.085 251.414,59.339 		"/>
		<g clip-path="url(#SVGID_2_)">
			<defs>
				<rect id="SVGID_25_" x="-3429.408" y="-173.001" width="3975.536" height="5622.545"/>
			</defs>
			<clipPath id="SVGID_26_">
				<use xlink:href="#SVGID_25_"  overflow="visible"/>
			</clipPath>
			<path clip-path="url(#SVGID_26_)" fill="#FFFFFF" d="M278.856,72.736c0,3.032-2.007,3.899-4.356,3.361l-0.891-0.203v-8.707
				l0.931,0.211C277.069,67.974,278.856,69.95,278.856,72.736 M282.968,73.672c0-4.373-3.478-8.568-7.71-9.529l-5.59-1.275v15.558
				l5.59,1.269C279.464,80.655,282.968,78.047,282.968,73.672"/>
			<path clip-path="url(#SVGID_26_)" d="M44.375,168.885l1.823,1.607c0,0,2.436-0.746,5.938-1.708
				c3.509-0.955,5.72-1.522,5.72-1.522v-18.373c0,0,1.343-0.434,6.313-1.595c4.969-1.17,6.462-1.425,6.462-1.425v-10.217
				l-1.865-1.528v10.143c0,0-1.494,0.255-6.458,1.422c-4.968,1.163-6.325,1.604-6.325,1.604v18.367c0,0-2.21,0.566-5.712,1.526
				C46.95,168.098,44.607,168.811,44.375,168.885 M44.335,168.791l-0.007,0.046l0.007,0.005V168.791z M71.942,127.539v-9.933
				l-1.853-1.601c0,0-0.008,0.005-0.019,0.005v9.924c0,0-1.8,0.338-7.227,1.604c-5.428,1.263-6.862,1.676-6.862,1.676v7.82
				c0,0,0.671-0.173,1.873-0.468v-5.758c0,0,1.436-0.406,6.854-1.669C70.136,127.879,71.942,127.539,71.942,127.539"/>
			<path clip-path="url(#SVGID_26_)" d="M91.059,145.553c-1.659-1.904-2.597-4.568-2.597-7.754c0-7.24,4.91-13.67,12.181-14.767
				c3.199-0.488,6.289,0.243,8.658,1.99c-2.435-2.952-6.361-4.147-10.404-3.539c-7.263,1.104-12.173,7.533-12.173,14.766
				C86.724,140.431,88.325,143.705,91.059,145.553 M109.319,125.034l1.741,1.56v-14.535l-1.741-1.541V125.034z M111.061,156.654
				v-14.535l-1.741-1.528v1.682c0.039,0.877,0.086,1.784,0,1.867c0,0.005,0,0.005,0,0.005v10.967
				c-3.938,1.831-6.783,3.186-10.488,3.747c-6.352,0.951-12.417-0.604-17.141-4.282c-0.029-0.02-0.05-0.049-0.078-0.068
				c0.564,0.568,1.17,1.108,1.821,1.616c4.729,3.674,10.788,5.237,17.15,4.275C104.277,159.845,107.123,158.482,111.061,156.654"/>
			<path clip-path="url(#SVGID_26_)" d="M130.295,117.975L130.295,117.975l2.015,2.039l9.442-0.635v-2.176L130.295,117.975z
				 M167.285,118.409V108.15l-2.017-2.036h-0.003h0.003v10.259l-11.514,0.326v36.103l-11.994,0.604l2.006,2.034l12.001-0.6v-36.107
				L167.285,118.409z"/>
			<path clip-path="url(#SVGID_26_)" d="M170.317,152.471L170.317,152.471l1.977,2.069l12.007,0.014v-18.799
				c0,0,1.659-0.057,8.605,0.114c3.291,0.077,5.411,0.153,6.741,0.198v-1.982c0,0-1.777-0.122-8.727-0.288
				c-6.944-0.17-8.6-0.121-8.6-0.121v18.807L170.317,152.471z M184.301,124.164V108.15l-1.979-2.036v18.036
				C182.321,124.151,182.967,124.151,184.301,124.164 M213.632,155.547v-46.417l-1.982-2.071v46.417l-11.981-0.581l1.964,2.072
				L213.632,155.547z"/>
			<path clip-path="url(#SVGID_26_)" d="M234.442,144.914c-1.439-2.645-1.572-6.202-1.572-9.585v-24.708l-1.674-2.038v24.67
				C231.196,137.635,231.435,142.318,234.442,144.914 M260.993,140.193v-26.185l-1.675-2.091h-0.11l0.11,0.02v26.186
				c0,5.996-0.243,11.909-4.809,15.903c-3.834,3.398-9.859,4.079-15.221,3.473c-5.276-0.603-11.192-2.605-15.034-6.747
				c0.439,0.643,0.926,1.274,1.489,1.893c3.833,4.271,9.865,6.315,15.221,6.925c5.354,0.607,11.388-0.07,15.224-3.466
				C260.754,152.102,260.993,146.189,260.993,140.193"/>
		</g>
		<path clip-path="url(#SVGID_2_)" d="M266.683,159.478v0.029l1.373,2.334l11.003,2.039v-28.123l0.008-0.247l-1.277-2.097
			l-0.106-0.021v28.123L266.683,159.478z M310.318,171.585v-46.341l-1.384-2.329v46.306l-11.248-3.183l0.015,0.015l1.316,2.333
			L310.318,171.585z"/>
		<g clip-path="url(#SVGID_2_)">
			<defs>
				<rect id="SVGID_27_" x="-3429.408" y="-173.001" width="3975.536" height="5622.545"/>
			</defs>
			<clipPath id="SVGID_28_">
				<use xlink:href="#SVGID_27_"  overflow="visible"/>
			</clipPath>
			<path clip-path="url(#SVGID_28_)" fill="#E2001A" d="M183.645,108.15"/>
			<path clip-path="url(#SVGID_28_)" fill="#FFFFFF" d="M70.076,125.938v-9.931c0,0-4.116,0.741-12.867,2.945
				c-8.767,2.211-12.881,3.564-12.881,3.564v46.378c0,0,2.438-0.749,5.942-1.712c3.502-0.956,5.712-1.522,5.712-1.522v-18.374
				c0,0,1.353-0.433,6.321-1.594c4.968-1.171,6.462-1.421,6.462-1.421v-10.221c0,0-2.562,0.529-6.494,1.451
				c-3.94,0.928-6.289,1.53-6.289,1.53v-7.823c0,0,1.435-0.405,6.862-1.67C68.262,126.278,70.076,125.938,70.076,125.938"/>
			<path clip-path="url(#SVGID_28_)" fill="#FFFFFF" d="M109.319,110.511c-3.517-0.955-7.031-1.288-10.848-0.715
				c-6.422,0.97-12.906,4.798-17.392,10.173c-4.36,5.236-6.726,11.712-6.726,18.083c0,6.934,2.304,12.643,7.332,16.524
				c4.728,3.678,10.785,5.233,17.145,4.282c3.701-0.562,6.55-1.917,10.488-3.755V140.57c-2.485,3.408-6.365,5.912-10.239,6.493
				c-7.396,1.114-12.367-3.453-12.367-10.814c0-7.233,4.911-13.663,12.184-14.766c4.058-0.605,7.996,0.587,10.423,3.561V110.511z"/>
			<path clip-path="url(#SVGID_28_)" fill="#FFFFFF" d="M153.747,116.7l11.521-0.329v-10.256c0,0-3.931-0.042-17.438,0.58
				c-13.501,0.621-17.543,1.053-17.543,1.053v10.227l11.465-0.775v36.207l11.995-0.604V116.7z"/>
			<path clip-path="url(#SVGID_28_)" fill="#FFFFFF" d="M182.321,124.151v-18.072h-12.004v46.392l12.004,0.013v-18.807
				c0,0,1.655-0.049,8.607,0.117c6.946,0.17,8.719,0.287,8.719,0.287v18.809l12.002,0.587V107.06l-12.002-0.579v18.071
				c0,0-2.6-0.094-8.62-0.254C185.012,124.144,182.321,124.151,182.321,124.151"/>
			<path clip-path="url(#SVGID_28_)" fill="#FFFFFF" d="M247.389,110.295v24.8c0,6.062-0.432,12.626-8.093,11.759
				c-7.677-0.868-8.1-7.54-8.1-13.595v-24.705l-11.929-1.022v26.04c0,5.997,0.242,11.968,4.808,16.996
				c3.833,4.276,9.851,6.317,15.221,6.928c5.354,0.605,11.38-0.07,15.214-3.467c4.565-4.001,4.813-9.911,4.813-15.912v-26.185
				L247.389,110.295z"/>
			<path clip-path="url(#SVGID_28_)" fill="#FFFFFF" d="M266.683,159.474l10.995,2.038V133.39l0.117,0.025l19.845,32.604l11.305,3.2
				v-46.336c0,0-1.868-0.581-5.435-1.601c-3.568-1.015-5.569-1.53-5.569-1.53v28.791l-0.112-0.02l-20.223-33.428l-10.923-2.035
				V159.474z"/>
			<g clip-path="url(#SVGID_28_)">
				<g>
					<defs>
						<rect id="SVGID_29_" x="9.377" y="16.18" width="336.116" height="372.421"/>
					</defs>
					<clipPath id="SVGID_30_">
						<use xlink:href="#SVGID_29_"  overflow="visible"/>
					</clipPath>
					<g clip-path="url(#SVGID_30_)">
						<defs>
							<path id="SVGID_31_" d="M338.813,204.803v-96.826c-6.866-3.095-14.771-6.473-23.584-9.104
								c-0.007-11.515-0.007-47.51-0.007-47.51C289.039,35.305,237.593,22.86,178.42,22.86c-59.769,0-111.647,12.208-137.58,28.521
								l-0.007,47.521c-9.263,2.778-17.676,6.449-24.778,9.743v96.696l24.771,16.115v15.56
								c0,100.541,137.215,144.904,137.215,144.904s137.227-45.479,137.227-144.904c0-6.181,0-6.264,0-15.56L338.813,204.803z"/>
						</defs>
						<clipPath id="SVGID_32_">
							<use xlink:href="#SVGID_31_"  overflow="visible"/>
						</clipPath>
					</g>
				</g>
			</g>
			<g clip-path="url(#SVGID_28_)">
				<g>
					<defs>
						<rect id="SVGID_33_" x="50.877" y="171.367" width="254.303" height="199.648"/>
					</defs>
					<clipPath id="SVGID_34_">
						<use xlink:href="#SVGID_33_"  overflow="visible"/>
					</clipPath>
					<g clip-path="url(#SVGID_34_)">
						<defs>
							<path id="SVGID_35_" d="M57.554,190.897l0.008,1.594v41.148c0,90.68,120.466,130.697,120.466,130.697
								s120.474-41.028,120.474-130.697c0-9.637,0-23.29-0.007-40.384l0.007-2.394c-32.432-7.985-74.616-12.815-120.44-12.815
								C132.036,178.046,90.048,182.849,57.554,190.897"/>
						</defs>
						<clipPath id="SVGID_36_">
							<use xlink:href="#SVGID_35_"  overflow="visible"/>
						</clipPath>
					</g>
				</g>
			</g>
		</g>
	</g>
</g>
</svg>
