<?xml version="1.0" encoding="UTF-8" standalone="no"?>
<svg
   xmlns:dc="http://purl.org/dc/elements/1.1/"
   xmlns:cc="http://creativecommons.org/ns#"
   xmlns:rdf="http://www.w3.org/1999/02/22-rdf-syntax-ns#"
   xmlns:svg="http://www.w3.org/2000/svg"
   xmlns="http://www.w3.org/2000/svg"
   xmlns:sodipodi="http://sodipodi.sourceforge.net/DTD/sodipodi-0.dtd"
   xmlns:inkscape="http://www.inkscape.org/namespaces/inkscape"
   height="252"
   width="231.5831"
   id="svg22"
   version="1.1"
   viewBox="0 0 231.5831 252"
   sodipodi:docname="utre.svg"
   inkscape:version="0.92.4 (5da689c313, 2019-01-14)">
  <sodipodi:namedview
     pagecolor="#ffffff"
     bordercolor="#666666"
     borderopacity="1"
     objecttolerance="10"
     gridtolerance="10"
     guidetolerance="10"
     inkscape:pageopacity="0"
     inkscape:pageshadow="2"
     inkscape:window-width="1366"
     inkscape:window-height="705"
     id="namedview16"
     showgrid="false"
     fit-margin-top="1"
     fit-margin-right="1"
     fit-margin-bottom="1"
     fit-margin-left="1"
     inkscape:zoom="0.46825397"
     inkscape:cx="60.489267"
     inkscape:cy="151.01317"
     inkscape:window-x="-8"
     inkscape:window-y="-8"
     inkscape:window-maximized="1"
     inkscape:current-layer="svg22" />
  <metadata
     id="metadata28">
    <rdf:RDF>
      <cc:Work
         rdf:about="">
        <dc:format>image/svg+xml</dc:format>
        <dc:type
           rdf:resource="http://purl.org/dc/dcmitype/StillImage" />
        <dc:title></dc:title>
      </cc:Work>
    </rdf:RDF>
  </metadata>
  <defs
     id="defs26" />
  <g
     transform="matrix(2.0683721,0,0,2.0683721,-2.7933944,-2.7106595)"
     id="g57">
    <path
       style="fill:#004996;fill-rule:evenodd"
       id="path2"
       d="M 112.83,26.454 93.01,1.794 H 21.652 L 1.834,26.453 c 3.6,1.163 12.325,11.603 8.022,20.114 -6.122,12.107 -7.897,17.713 -7.08,23.594 1.183,8.472 13.347,18.99 16.52,21.781 0.734,0.646 2.604,2.138 6.046,4.854 10.944,8.64 31.99,25.866 31.99,25.866 0.117,-0.096 21.046,-17.225 31.991,-25.866 3.441,-2.716 5.312,-4.208 6.046,-4.854 3.173,-2.79 15.337,-13.31 16.52,-21.781 0.817,-5.88 -0.959,-11.487 -7.08,-23.595 -4.303,-8.51 4.421,-18.95 8.022,-20.113"
       inkscape:connector-curvature="0" />
    <g
       id="g46">
      <path
         d="m 9.068,69.521 c 0.07,0.731 0.668,2.351 1.762,4.11 1.079,1.773 2.586,3.724 4.204,5.53 3.261,3.674 6.868,6.82 8.451,8.208 0.195,0.173 0.828,0.697 1.786,1.463 0.965,0.775 2.288,1.823 4.003,3.175 8.069,6.37 21.418,17.234 28.056,22.652 6.555,-5.348 19.928,-16.234 28.06,-22.655 a 652.555,652.555 0 0 0 4.001,-3.172 66.399,66.399 0 0 0 1.786,-1.463 c 1.583,-1.389 5.19,-4.534 8.463,-8.223 1.606,-1.79 3.113,-3.742 4.191,-5.515 1.094,-1.759 1.692,-3.379 1.762,-4.11 l 0.002,-0.013 0.005,-0.03 a 12.833,12.833 0 0 0 0.125,-1.838 c -0.004,-1.603 -0.325,-3.5 -1.334,-6.37 -1.007,-2.865 -2.704,-6.623 -5.25,-11.646 -1.309,-2.587 -1.858,-5.324 -1.855,-7.9 l 0.002,-0.016 v -0.123 c 0.072,-5.373 2.225,-9.972 4.723,-13.483 a 26.268,26.268 0 0 1 1.927,-2.374 L 89.967,8.335 H 24.694 l -13.97,17.393 a 26.55,26.55 0 0 1 1.934,2.384 c 2.51,3.528 4.678,8.17 4.717,13.596 l -0.072,1.639 a 17.325,17.325 0 0 1 -1.786,6.282 c -2.543,5.018 -4.24,8.775 -5.247,11.641 -1.013,2.88 -1.332,4.782 -1.334,6.388 v 0.045 c 0,0.591 0.04,1.16 0.127,1.775 L 9.06,69.46 9.068,69.521"
         id="path4"
         style="fill:#1a1919;fill-rule:evenodd"
         inkscape:connector-curvature="0" />
      <path
         d="M 89.967,8.335 H 24.694 l -13.97,17.393 a 26.403,26.403 0 0 1 1.934,2.384 c 2.51,3.528 4.678,8.17 4.717,13.596 l -0.072,1.639 a 17.33,17.33 0 0 1 -1.786,6.283 c -2.543,5.017 -4.24,8.774 -5.247,11.64 -1.013,2.88 -1.332,4.782 -1.334,6.388 v 0.045 c 0,0.591 0.04,1.16 0.126,1.775 L 9.06,69.46 9.068,69.521 c 0.07,0.731 0.668,2.351 1.762,4.11 1.079,1.773 2.586,3.724 4.204,5.53 3.261,3.674 6.868,6.82 8.451,8.208 0.11,0.098 0.365,0.311 0.734,0.613 l 71.94,-71.94 -6.192,-7.707"
         id="path6"
         style="fill:#fffffe;fill-rule:evenodd"
         inkscape:connector-curvature="0" />
      <path
         d="m 25.27,88.832 c 0.966,0.775 2.29,1.823 4.004,3.175 8.069,6.37 21.418,17.234 28.056,22.652 6.555,-5.348 19.928,-16.234 28.06,-22.655 a 652.555,652.555 0 0 0 4.001,-3.172 66.399,66.399 0 0 0 1.786,-1.463 c 1.583,-1.389 5.19,-4.534 8.463,-8.223 1.606,-1.79 3.113,-3.742 4.191,-5.515 1.094,-1.759 1.692,-3.379 1.762,-4.11 l 0.002,-0.013 0.005,-0.03 a 12.833,12.833 0 0 0 0.125,-1.838 c -0.004,-1.603 -0.325,-3.5 -1.334,-6.37 -1.007,-2.865 -2.704,-6.623 -5.25,-11.646 -1.309,-2.587 -1.858,-5.324 -1.855,-7.9 l 0.002,-0.016 v -0.123 c 0.072,-5.373 2.225,-9.972 4.723,-13.483 a 26.268,26.268 0 0 1 1.927,-2.374 l -7.78,-9.685 -71.94,71.939 c 0.285,0.233 0.636,0.517 1.053,0.85"
         id="path8"
         style="fill:#d82333;fill-rule:evenodd"
         inkscape:connector-curvature="0" />
      <path
         d="M 107.563,23.738 32.355,98.946 14.92,81.512 90.13,6.304 107.564,23.738"
         id="path12"
         style="fill:#004996;fill-rule:evenodd"
         inkscape:connector-curvature="0" />
      <path
         d="m 18.848,82.915 c 0.447,-0.374 0.908,-0.733 1.319,-1.142 0.41,-0.41 0.768,-0.872 1.143,-1.317 l 5.015,5.024 c 0.97,0.972 2.387,2.452 3.452,3.226 1.013,0.717 1.692,1.136 2.9,1.163 1.054,0.006 1.908,-0.386 2.631,-1.107 1.528,-1.526 1.748,-2.946 0.788,-5.06 -0.48,-1.072 -2.494,-3.087 -3.359,-3.953 l -5.352,-5.36 A 5.663,5.663 0 0 0 28.7,73.078 l 6.285,6.296 c 1.964,2.064 3.816,3.887 3.38,6.866 -0.198,1.573 -1.083,2.954 -2.166,4.037 -1.988,1.983 -4.809,3.457 -7.713,1.764 -0.87,-0.51 -1.729,-1.203 -2.434,-1.908 L 18.848,82.915 M 48.12,77.912 c -0.446,0.374 -0.91,0.731 -1.322,1.14 -0.41,0.413 -0.768,0.875 -1.141,1.322 L 34.798,69.497 c -1.167,1.167 -2.077,2.323 -2.806,3.298 -0.215,-0.281 -0.413,-0.579 -0.679,-0.845 -0.245,-0.247 -0.543,-0.445 -0.824,-0.658 l 8.457,-8.444 c 0.215,0.279 0.412,0.577 0.658,0.825 0.266,0.265 0.563,0.463 0.843,0.677 -1.092,0.847 -2.185,1.69 -3.187,2.69 l 10.86,10.872 m 0.55,-13.403 c 1.902,-1.544 1.873,-3.282 0.053,-5.103 a 6.802,6.802 0 0 0 -0.963,-0.8 c -1.73,-1.207 -2.82,0.164 -3.82,1.163 z m -8.149,-3.235 3.5,-3.492 c 0.771,-0.77 1.933,-2.003 3.014,-2.303 1.465,-0.405 2.75,-0.099 3.95,1.103 1.731,1.733 1.791,3.861 0.618,5.743 2.599,0.794 5.24,1.405 7.869,2.065 l 1.734,0.457 c -0.529,0.455 -1.074,0.895 -1.583,1.404 -0.493,0.493 -0.934,1.035 -1.39,1.563 L 52.571,66.052 C 51.848,65.82 50.578,65.465 49.545,65.155 l -0.115,0.115 5.668,5.675 c -0.447,0.373 -0.909,0.73 -1.32,1.143 -0.41,0.407 -0.77,0.871 -1.143,1.317 z M 56.86,44.962 c 0.215,0.28 0.43,0.595 0.677,0.843 0.247,0.246 0.562,0.461 0.842,0.677 -1.144,0.86 -2.402,1.833 -4.042,3.539 l 3.797,3.804 1.709,-1.706 a 19.811,19.811 0 0 0 1.86,-2.176 c 0.214,0.28 0.432,0.597 0.676,0.842 0.247,0.247 0.56,0.463 0.843,0.678 a 19.803,19.803 0 0 0 -2.18,1.857 l -1.709,1.705 4.488,4.493 c 1.655,-1.692 2.684,-2.893 3.547,-4.035 0.213,0.28 0.429,0.596 0.673,0.842 0.25,0.248 0.563,0.464 0.844,0.679 L 62.626,63.25 50.603,51.208 56.861,44.962 m 20.951,-0.792 1.158,1.883 c -0.44,1.533 -1.393,2.909 -2.493,4.007 -3.514,3.508 -8.506,3.828 -12.125,0.203 -4.61,-4.614 -3.755,-9.669 -0.176,-13.243 1.085,-1.082 2.7,-2.093 4.217,-2.478 0.452,0.748 0.957,1.449 1.44,2.198 l -0.23,0.228 c -1.56,-0.348 -3.284,0.03 -4.351,1.096 -2.724,2.72 -1.018,6.631 1.58,9.231 3.018,3.023 6.517,3.769 9.047,1.244 1.016,-1.016 1.633,-2.762 1.614,-4.261 l 0.32,-0.107 M 69.899,31.943 c 0.444,-0.373 0.91,-0.73 1.319,-1.142 0.412,-0.41 0.767,-0.871 1.143,-1.316 l 4.785,4.792 c 0.872,-0.8 1.762,-1.584 2.6,-2.42 0.837,-0.836 1.622,-1.725 2.426,-2.596 l -4.785,-4.793 c 0.442,-0.374 0.908,-0.731 1.32,-1.142 0.41,-0.41 0.766,-0.871 1.14,-1.318 L 91.96,34.14 c -0.446,0.374 -0.907,0.732 -1.319,1.142 -0.41,0.41 -0.77,0.872 -1.144,1.32 l -5.915,-5.927 c -0.872,0.802 -1.763,1.586 -2.6,2.421 -0.84,0.836 -1.621,1.725 -2.423,2.596 l 5.916,5.925 c -0.45,0.374 -0.911,0.73 -1.322,1.14 -0.408,0.411 -0.768,0.874 -1.14,1.32 L 69.899,31.942 m 29.32,-5.049 c -0.447,0.373 -0.908,0.73 -1.32,1.14 -0.412,0.41 -0.767,0.874 -1.143,1.318 L 85.898,18.477 c -1.168,1.163 -2.079,2.322 -2.81,3.297 -0.215,-0.28 -0.41,-0.576 -0.676,-0.841 -0.245,-0.25 -0.544,-0.447 -0.82,-0.662 l 8.455,-8.443 c 0.212,0.28 0.41,0.577 0.658,0.825 0.266,0.266 0.56,0.462 0.84,0.677 -1.094,0.845 -2.186,1.688 -3.185,2.688 l 10.859,10.875"
         id="path14"
         style="fill:#fffffe;fill-rule:evenodd"
         inkscape:connector-curvature="0" />
      <path
         d="m 37,42.17 c -0.962,-0.076 -1.925,-0.192 -2.888,-0.192 -0.96,0 -1.922,0.116 -2.885,0.192 V 15.775 h 14.661 c -0.078,0.54 -0.192,1.115 -0.192,1.655 0,0.54 0.114,1.116 0.192,1.655 C 43.541,18.815 41.04,18.546 37,18.546 v 8.272 h 4.078 c 1.5,0 3.04,-0.154 4.655,-0.345 -0.077,0.538 -0.192,1.116 -0.192,1.654 0,0.538 0.115,1.115 0.192,1.654 -1.615,-0.153 -3.155,-0.347 -4.693,-0.347 H 37 V 42.17"
         id="path16"
         style="fill:#d82333;fill-rule:evenodd"
         inkscape:connector-curvature="0" />
      <path
         d="m 86.346,84.901 -0.777,3.04 c -2.12,1.093 -4.63,1.519 -6.996,1.519 -7.56,0 -13.283,-4.664 -13.283,-11.907 0,-9.222 6.36,-13.425 14.061,-13.425 2.331,0 5.159,0.6 7.207,1.731 -0.318,1.201 -0.53,2.402 -0.813,3.638 H 85.25 c -1.307,-1.907 -3.568,-3.25 -5.865,-3.25 -5.864,0 -8.23,5.618 -8.23,10.811 0,6.042 2.968,10.282 8.407,10.282 2.191,0 4.735,-1.132 6.325,-2.65 l 0.459,0.211"
         id="path18"
         style="fill:#fffffe;fill-rule:evenodd"
         inkscape:connector-curvature="0" />
    </g>
  </g>
</svg>
