<?xml version="1.0" encoding="UTF-8" standalone="no"?>
<svg
   xmlns:dc="http://purl.org/dc/elements/1.1/"
   xmlns:cc="http://creativecommons.org/ns#"
   xmlns:rdf="http://www.w3.org/1999/02/22-rdf-syntax-ns#"
   xmlns:svg="http://www.w3.org/2000/svg"
   xmlns="http://www.w3.org/2000/svg"
   viewBox="0 0 266.51602 254"
   id="svg20"
   height="254"
   width="266.51602"
   version="1.1">
  <metadata
     id="metadata26">
    <rdf:RDF>
      <cc:Work
         rdf:about="">
        <dc:format>image/svg+xml</dc:format>
        <dc:type
           rdf:resource="http://purl.org/dc/dcmitype/StillImage" />
        <dc:title></dc:title>
      </cc:Work>
    </rdf:RDF>
  </metadata>
  <defs
     id="defs24" />
  <g
     transform="matrix(0.46304906,0,0,0.46304906,-4.5628869,-67.918185)"
     id="Layer1000">
    <path
       id="path2"
       style="fill:#0a140d;fill-rule:evenodd"
       d="m 204.7209,151.3287 h 64.7576 V 256.718 l 81.3098,-105.7228 h 69.7599 l -151.0697,192.731 v 76.8184 L 485.5172,151.1619 h 68.426 L 374.626,385.9967 581.1024,690.8948 511.2741,690.7484 332.2985,429.2447 299.8622,468.8543 445.7065,690.8948 369.7087,690.7484 269.4785,537.9819 V 690.6707 H 204.7209 V 440.144 l -5.6506,-9.3986 -47.8131,69.9603 v 189.965 H 84.4987 V 150.9952 h 65.0911 v 261.379 l 55.1311,-70.5629 z" />
    <g
       id="Layer1001">
      <path
         id="path4"
         style="fill:#0a140d;fill-rule:evenodd"
         d="m 15.6179,156.4424 h 54.5412 v 9.9232 H 32.4217 v 12.7539 h 29.9721 v 9.9232 H 32.4217 v 19.1449 H 15.6179 Z" />
      <path
         id="path6"
         style="fill:#0a140d;fill-rule:evenodd"
         d="m 14.8122,333.6162 h 16.3035 v 23.5605 L 54.6639,333.6162 H 70.634 l -23.8721,22.8005 24.2056,28.6112 H 53.997 l -16.9772,-21.3388 -5.9041,5.2901 v 16.0487 H 14.8122 Z" />
      <path
         id="path8"
         style="fill:#0a140d;fill-rule:evenodd"
         d="m 29.3096,405.2639 h 27.0498 c 9.362,0 15.1363,4.2437 15.1363,13.701 v 26.3242 c 0,6.5026 -4.2233,12.8873 -15.1363,12.8873 H 29.3096 c -6.8455,0 -15.1364,-3.0384 -15.1364,-13.2558 V 419.097 c 0,-8.2548 4.1499,-13.8331 15.1364,-13.8331 z m 0.1667,14.2533 v 24.5353 c 0,2.8537 1.6998,4.5328 5.1891,4.5328 h 16.9358 c 3.3359,0 4.7582,-1.9153 4.7582,-4.953 v -23.931 c 0,-3.1168 -2.0426,-4.8476 -4.7929,-4.8476 h -17.304 c -2.907,0 -4.7862,1.9265 -4.7862,4.6635 z" />
      <path
         id="path10"
         style="fill:#0a140d;fill-rule:evenodd"
         d="m 29.3442,555.4079 h 27.0499 c 9.3619,0 15.1363,4.2437 15.1363,13.701 v 26.3242 c 0,6.5026 -4.2233,12.8873 -15.1363,12.8873 H 29.3442 c -6.8455,0 -15.1363,-3.0384 -15.1363,-13.2558 V 569.241 c 0,-8.2548 4.1499,-13.8331 15.1363,-13.8331 z m 0.1668,14.2533 v 24.5353 c 0,2.8537 1.6998,4.5328 5.189,4.5328 h 16.9359 c 3.3358,0 4.7582,-1.9153 4.7582,-4.953 v -23.931 c 0,-3.1168 -2.0427,-4.8476 -4.7929,-4.8476 h -17.304 c -2.907,0 -4.7862,1.9265 -4.7862,4.6635 z" />
      <path
         id="path12"
         style="fill:#0a140d;fill-rule:evenodd"
         d="M 18.6953,532.6988 H 66.5668 V 523.109 H 34.1651 V 480.6201 H 18.6953 Z" />
      <path
         id="path14"
         style="fill:#0a140d;fill-rule:evenodd"
         d="m 31.6053,222.178 h 38.5711 v 9.5898 H 39.0487 c -5.1954,0 -6.61,1.6604 -6.61,5.8907 v 21.6697 c 0,5.4602 2.8263,5.7493 6.4606,5.6723 10.4812,-0.2221 20.9624,-0.6116 31.4439,-1.1672 v 9.3363 c -11.6531,0.4352 -23.3585,1.0551 -34.9588,1.3059 -17.6592,0.3822 -20.2494,-6.489 -20.2494,-13.9771 v -24.5207 c 0,-6.4826 4.0112,-13.7997 16.4703,-13.7997 z" />
      <path
         id="path16"
         style="fill:#0a140d;fill-rule:evenodd"
         d="m 31.3812,630.9348 h 33.2353 v 9.7565 H 37.8241 c -5.1833,0 -6.6083,1.6564 -6.61,5.8667 -0.0017,4.6278 2.3104,5.5573 6.61,5.5573 h 18.9661 c 5.1538,0 12.8286,2.5438 12.8286,12.9713 v 3.0014 c 0,7.4881 -0.5892,15.6932 -18.2484,15.311 -11.6004,-0.2508 -22.6388,-0.8707 -34.2918,-1.3059 v -9.3363 c 10.4815,0.5556 20.297,0.9488 30.7768,1.1672 3.6311,0.0757 6.6838,-0.2174 6.6274,-5.6723 l -0.061,-5.8797 H 31.3812 c -11.2912,0 -14.8222,-6.2836 -15.3851,-12.2864 -0.2191,-2.346 -0.2321,-5.1357 0.069,-7.4861 0.7467,-5.807 4.4144,-11.6647 15.3161,-11.6647 z" />
    </g>
  </g>
</svg>
