<?xml version="1.0" encoding="UTF-8" standalone="no"?>
<!-- Generator: Adobe Illustrator 20.1.0, SVG Export Plug-In . SVG Version: 6.00 Build 0)  -->

<svg
   xmlns:dc="http://purl.org/dc/elements/1.1/"
   xmlns:cc="http://creativecommons.org/ns#"
   xmlns:rdf="http://www.w3.org/1999/02/22-rdf-syntax-ns#"
   xmlns:svg="http://www.w3.org/2000/svg"
   xmlns="http://www.w3.org/2000/svg"
   xmlns:sodipodi="http://sodipodi.sourceforge.net/DTD/sodipodi-0.dtd"
   xmlns:inkscape="http://www.inkscape.org/namespaces/inkscape"
   version="1.1"
   id="Layer_0_xA0_Image_1_"
   x="0px"
   y="0px"
   viewBox="0 0 215.39999 220.2"
   xml:space="preserve"
   sodipodi:docname="Bodo-Glimt logo.svg"
   width="215.39999"
   height="220.2"
   inkscape:version="0.92.4 (5da689c313, 2019-01-14)"><metadata
   id="metadata10237"><rdf:RDF><cc:Work
       rdf:about=""><dc:format>image/svg+xml</dc:format><dc:type
         rdf:resource="http://purl.org/dc/dcmitype/StillImage" /></cc:Work></rdf:RDF></metadata><defs
   id="defs10235" /><sodipodi:namedview
   pagecolor="#ffffff"
   bordercolor="#666666"
   borderopacity="1"
   objecttolerance="10"
   gridtolerance="10"
   guidetolerance="10"
   inkscape:pageopacity="0"
   inkscape:pageshadow="2"
   inkscape:window-width="640"
   inkscape:window-height="480"
   id="namedview10233"
   showgrid="false"
   inkscape:zoom="1.0328228"
   inkscape:cx="92.006141"
   inkscape:cy="111.65"
   inkscape:window-x="0"
   inkscape:window-y="0"
   inkscape:window-maximized="0"
   inkscape:current-layer="Layer_0_xA0_Image_1_" />
<style
   type="text/css"
   id="style10200">
	.st0{fill:#F9DD00;}
</style>
<ellipse
   cx="107.7"
   cy="110.1"
   rx="107.7"
   ry="110.1"
   id="ellipse10202" />
<path
   class="st0"
   d="m 189.1,121.8 v 0 H 60.199997 v 30.7 H 178.7 c -14.2,24.8 -40.6,41.4 -70.6,41.4 -45.100003,0 -81.900003,-37.5 -81.900003,-83.7 0,-46.100005 36.7,-83.700005 81.900003,-83.700005 19.3,0 37,6.8 51,18.2 l 10.2,-12.6 c -16.8,-13.7 -38,-22 -61.1,-22 -54.000003,0 -97.900003,44.9 -97.900003,100.000005 0,55.2 43.9,100 97.900003,100 50.2,0 91.6,-38.8 97.2,-88.5 h -16.3 z"
   id="path10204"
   inkscape:connector-curvature="0"
   style="fill:#f9dd00" />
<path
   class="st0"
   d="m 108.5,32.499995 c -19.800003,0 -38.700003,8.1 -53.100003,22.7 -14.5,14.8 -22.5,34.3 -22.5,54.900005 0,42.8 33.1,77.6 73.700003,77.6 41.4,0 73.7,-33.2 73.7,-75.7 0.1,-44.600005 -31.5,-79.500005 -71.8,-79.500005 z m 55.9,37.7 H 159 c -1.9,-5.3 -6,-9.5 -11.2,-11.4 l 1.3,-6.7 c 6,5 11.2,11.1 15.3,18.1 z m -23,-7.4 c 7.5,0 13.7,6.3 13.7,14 0,7.7 -6.1,14 -13.7,14 -7.5,0 -13.7,-6.3 -13.7,-14 0,-7.7 6.1,-14 13.7,-14 z m -32.9,-25.4 c 13.5,0 25.9,4.2 36.3,11.5 l -1.7,8.8 c -0.6,-0.1 -1.2,-0.1 -1.8,-0.1 -0.7,0 -1.4,0.1 -2.1,0.1 -10.2,-1.8 -35.4,-4.5 -62.300003,7.5 -17.2,7.7 -30.6,21.8 -37.8,30.5 6.7,-32.8 35.8,-58.3 69.400003,-58.3 z M 37.799997,105.2 c 3.2,-4.5 19.1,-25.800005 41.1,-35.600005 20.1,-9 39.300003,-9.3 51.300003,-8.3 -2.2,1.6 -4,3.7 -5.3,6.2 -25.600003,2.5 -48.500003,16.9 -66.300003,41.900005 -8.7,12.1 -13.5,22.1 -15.9,27.9 -3.2,-8.4 -5,-17.6 -5,-27.2 -0.1,-1.6 0,-3.2 0.1,-4.9 z M 128,179.5 c 5.1,-8.1 14.2,-23.1 15.7,-30.7 l -4.6,-1 c -1.7,8.6 -15.1,29.2 -17.9,33.5 -4.7,1 -9.5,1.5 -14.5,1.5 -9.300003,0 -18.100003,-1.9 -26.200003,-5.5 9.6,-5.1 31.700003,-17.8 36.600003,-29.6 l -4.4,-1.9 c -4.4,10.5 -27.700003,23.9 -37.700003,28.8 -12.7,-6.9 -23,-17.8 -29.6,-31.1 2.7,-6.8 8.2,-19 17.1,-31.4 16.7,-23.300005 37,-36.600005 60.500003,-39.600005 -0.3,1.3 -0.5,2.7 -0.5,4.2 0,10.6 8.4,19.2 18.8,19.2 10.4,0 18.8,-8.6 18.8,-19.2 0,-0.6 0,-1.2 -0.1,-1.8 h 7 c 5.5,10.9 8.6,23.4 8.6,37.000005 0,32.2 -19.7,58.6 -47.6,67.6 z"
   id="path10206"
   inkscape:connector-curvature="0"
   style="fill:#f9dd00" />
<rect
   x="101"
   y="85.199997"
   class="st0"
   width="7.6999998"
   height="33.900002"
   id="rect10208"
   style="fill:#f9dd00" />
<polygon
   class="st0"
   points="65.6,90.9 65.6,118.5 65.6,124.9 73.3,124.9 88.9,124.9 88.9,118.5 73.3,118.5 73.3,90.9 "
   id="polygon10210"
   style="fill:#f9dd00"
   transform="translate(-5.3000031,-5.7000046)" />
<polygon
   class="st0"
   points="179.7,96.6 189.1,96.6 189.1,124.9 196.8,124.9 196.8,96.6 203,96.6 203,90.2 179.7,90.2 "
   id="polygon10212"
   style="fill:#f9dd00"
   transform="translate(-5.3000031,-5.7000046)" />
<polygon
   class="st0"
   points="148.3,112.4 141.7,90.9 137.7,90.9 130,90.9 130,124.9 137.7,124.9 137.7,103.8 144.7,124.9 151.6,124.9 157.9,104.5 157.9,124.9 165.6,124.9 165.6,90.9 157.9,90.9 154.1,90.9 "
   id="polygon10214"
   style="fill:#f9dd00"
   transform="translate(-5.3000031,-5.7000046)" />
<path
   d="m 77.599997,129.9 c 0.5,0.7 0.8,1.6 0.8,2.7 0,1.1 -0.3,1.9 -0.8,2.6 -0.3,0.4 -0.7,0.7 -1.3,1 0.9,0.3 1.5,0.8 2,1.5 0.4,0.7 0.7,1.5 0.7,2.5 0,1 -0.3,2 -0.8,2.8 -0.3,0.5 -0.7,1 -1.2,1.4 -0.5,0.4 -1.2,0.7 -1.9,0.9 -0.7,0.2 -1.5,0.2 -2.4,0.2 h -7.7 v -17.4 h 8.2 c 2.1,0 3.6,0.6 4.4,1.8 z m -9.2,1.2 v 3.8 h 4.1 c 0.7,0 1.3,-0.1 1.8,-0.4 0.5,-0.3 0.7,-0.8 0.7,-1.5 0,-0.8 -0.3,-1.3 -0.9,-1.6 -0.5,-0.2 -1.2,-0.3 -2,-0.3 z m 0,6.7 v 4.6 h 4.1 c 0.7,0 1.3,-0.1 1.7,-0.3 0.7,-0.4 1.1,-1.1 1.1,-2.2 0,-0.9 -0.4,-1.5 -1.1,-1.9 -0.4,-0.2 -1,-0.3 -1.7,-0.3 h -4.1 z"
   id="path10216"
   inkscape:connector-curvature="0" />
<path
   d="m 98.199997,143.9 c -1.3,1.4 -3.1,2 -5.6,2 -2.4,0 -4.3,-0.7 -5.6,-2 -1.7,-1.7 -2.6,-4 -2.6,-7.2 0,-3.2 0.9,-5.6 2.6,-7.2 1.3,-1.4 3.1,-2 5.6,-2 2.4,0 4.3,0.7 5.6,2 1.7,1.6 2.600003,4 2.600003,7.2 -0.1,3.2 -0.900003,5.6 -2.600003,7.2 z m -2.3,-2.6 c 0.8,-1.1 1.2,-2.6 1.2,-4.5 0,-1.9 -0.4,-3.5 -1.2,-4.5 -0.8,-1.1 -1.9,-1.6 -3.3,-1.6 -1.4,0 -2.5,0.5 -3.4,1.6 -0.8,1.1 -1.3,2.6 -1.3,4.5 0,2 0.4,3.5 1.3,4.5 0.8,1.1 2,1.6 3.4,1.6 1.4,0 2.5,-0.6 3.3,-1.6 z"
   id="path10218"
   inkscape:connector-curvature="0" />
<path
   d="m 116,128.5 c 1.2,0.4 2.2,1.1 2.9,2.2 0.6,0.9 1,1.8 1.2,2.8 0.2,1 0.3,2 0.3,2.9 0,2.3 -0.5,4.3 -1.4,5.9 -1.2,2.2 -3.1,3.2 -5.7,3.2 H 106 v -17.4 h 7.3 c 1.1,0 2,0.1 2.7,0.4 z m -6.5,2.6 v 11.3 h 3.3 c 1.7,0 2.8,-0.8 3.5,-2.5 0.4,-0.9 0.5,-2 0.5,-3.3 0,-1.8 -0.3,-3.1 -0.8,-4.1 -0.5,-0.9 -1.6,-1.4 -3.2,-1.4 z"
   id="path10220"
   inkscape:connector-curvature="0" />
<path
   d="m 136.1,128.1 c 1,0.3 1.8,0.8 2.6,1.5 l 1.9,-2.1 1,1 -1.9,2.2 c 0.4,0.5 0.8,1.3 1.2,2.3 0.3,1 0.5,2.3 0.5,3.9 0,2.7 -0.8,4.9 -2.3,6.7 -1.5,1.7 -3.5,2.5 -5.9,2.5 -0.9,0 -1.9,-0.1 -2.8,-0.4 -0.9,-0.3 -1.8,-0.8 -2.7,-1.5 l -2,2.2 -1,-0.9 2.1,-2.2 c -0.4,-0.6 -0.8,-1.4 -1.2,-2.3 -0.4,-1.1 -0.6,-2.4 -0.6,-3.9 0,-2.7 0.8,-5.1 2.5,-7 1.4,-1.5 3.3,-2.2 5.6,-2.2 1.1,-0.3 2.1,-0.2 3,0.2 z m -0.9,3 c -0.6,-0.3 -1.2,-0.5 -2.1,-0.5 -1.6,0 -2.8,0.6 -3.5,1.7 -0.7,1.1 -1.1,2.6 -1.1,4.4 0,0.8 0.1,1.5 0.2,2.1 0.1,0.4 0.2,0.8 0.4,1.4 l 7.3,-8.2 c -0.2,-0.3 -0.6,-0.6 -1.2,-0.9 z m -3.7,11.5 c 0.5,0.2 1.1,0.3 1.7,0.3 1.6,0 2.8,-0.6 3.5,-1.9 0.7,-1.3 1.1,-2.7 1.1,-4.2 0,-0.5 0,-1 -0.1,-1.5 -0.1,-0.7 -0.3,-1.4 -0.5,-1.9 l -7.2,8.2 c 0.4,0.4 0.9,0.7 1.5,1 z"
   id="path10222"
   inkscape:connector-curvature="0" />
<path
   d="m 158.1,145.5 h -3.2 V 133 c -1.2,1.1 -2.6,2 -4.2,2.5 v -3 c 0.8,-0.3 1.8,-0.8 2.8,-1.6 1,-0.8 1.7,-1.7 2,-2.8 h 2.6 z"
   id="path10224"
   inkscape:connector-curvature="0" />
<path
   d="m 161.6,141.5 3.1,-0.4 c 0.1,0.7 0.3,1.1 0.6,1.5 0.3,0.3 0.8,0.5 1.3,0.5 0.7,0 1.2,-0.3 1.7,-0.9 0.5,-0.6 0.8,-1.9 0.9,-3.9 -0.8,1 -1.8,1.5 -3.1,1.5 -1.3,0 -2.5,-0.5 -3.4,-1.6 -1,-1 -1.4,-2.4 -1.4,-4.1 0,-1.8 0.5,-3.2 1.5,-4.2 1,-1.1 2.3,-1.6 3.9,-1.6 1.7,0 3.1,0.7 4.2,2 1.1,1.4 1.6,3.6 1.6,6.7 0,3.2 -0.6,5.4 -1.7,6.8 -1.1,1.4 -2.6,2.1 -4.5,2.1 -1.3,0 -2.4,-0.4 -3.2,-1.1 -0.7,-0.8 -1.2,-1.9 -1.5,-3.3 z m 7.4,-7.3 c 0,-1.1 -0.2,-1.9 -0.7,-2.5 -0.5,-0.6 -1,-0.9 -1.7,-0.9 -0.6,0 -1.1,0.2 -1.5,0.7 -0.4,0.5 -0.6,1.3 -0.6,2.4 0,1.1 0.2,1.9 0.6,2.5 0.4,0.5 1,0.8 1.6,0.8 0.6,0 1.1,-0.3 1.6,-0.8 0.4,-0.4 0.7,-1.2 0.7,-2.2 z"
   id="path10226"
   inkscape:connector-curvature="0" />
<path
   d="m 182.8,145.5 h -3.2 V 133 c -1.2,1.1 -2.6,2 -4.2,2.5 v -3 c 0.8,-0.3 1.8,-0.8 2.8,-1.6 1,-0.8 1.7,-1.7 2,-2.8 h 2.6 z"
   id="path10228"
   inkscape:connector-curvature="0" />
<path
   d="m 197.4,132.4 -3.1,0.4 c -0.1,-0.7 -0.3,-1.1 -0.6,-1.5 -0.3,-0.3 -0.7,-0.5 -1.3,-0.5 -0.7,0 -1.3,0.3 -1.7,0.9 -0.5,0.6 -0.8,1.9 -0.9,3.9 0.8,-1 1.8,-1.5 3,-1.5 1.4,0 2.5,0.5 3.5,1.6 1,1.1 1.4,2.4 1.4,4.1 0,1.8 -0.5,3.2 -1.5,4.3 -1,1.1 -2.3,1.6 -3.9,1.6 -1.7,0 -3.1,-0.7 -4.2,-2 -1.1,-1.4 -1.6,-3.6 -1.6,-6.7 0,-3.2 0.6,-5.5 1.7,-6.9 1.1,-1.4 2.6,-2.1 4.5,-2.1 1.3,0 2.3,0.4 3.2,1.1 0.7,0.9 1.3,1.9 1.5,3.3 z m -7.3,7.2 c 0,1.1 0.2,1.9 0.7,2.5 0.5,0.6 1,0.9 1.7,0.9 0.6,0 1.1,-0.2 1.5,-0.7 0.4,-0.5 0.6,-1.3 0.6,-2.4 0,-1.1 -0.2,-1.9 -0.6,-2.5 -0.4,-0.5 -1,-0.8 -1.6,-0.8 -0.6,0 -1.1,0.2 -1.6,0.7 -0.5,0.6 -0.7,1.4 -0.7,2.3 z"
   id="path10230"
   inkscape:connector-curvature="0" />
</svg>