<?xml version="1.0" encoding="UTF-8" standalone="no"?>
<!-- Generator: Adobe Illustrator 22.0.1, SVG Export Plug-In . SVG Version: 6.00 Build 0)  -->

<svg
   xmlns:dc="http://purl.org/dc/elements/1.1/"
   xmlns:cc="http://creativecommons.org/ns#"
   xmlns:rdf="http://www.w3.org/1999/02/22-rdf-syntax-ns#"
   xmlns:svg="http://www.w3.org/2000/svg"
   xmlns="http://www.w3.org/2000/svg"
   xmlns:sodipodi="http://sodipodi.sourceforge.net/DTD/sodipodi-0.dtd"
   xmlns:inkscape="http://www.inkscape.org/namespaces/inkscape"
   version="1.1"
   id="Layer_1"
   x="0px"
   y="0px"
   viewBox="0 0 307 181.09077"
   xml:space="preserve"
   sodipodi:docname="FK Haugesund logo.svg"
   width="307"
   height="181.09077"
   inkscape:version="0.92.4 (5da689c313, 2019-01-14)"><metadata
   id="metadata10274"><rdf:RDF><cc:Work
       rdf:about=""><dc:format>image/svg+xml</dc:format><dc:type
         rdf:resource="http://purl.org/dc/dcmitype/StillImage" /></cc:Work></rdf:RDF></metadata><defs
   id="defs10272" /><sodipodi:namedview
   pagecolor="#ffffff"
   bordercolor="#666666"
   borderopacity="1"
   objecttolerance="10"
   gridtolerance="10"
   guidetolerance="10"
   inkscape:pageopacity="0"
   inkscape:pageshadow="2"
   inkscape:window-width="640"
   inkscape:window-height="480"
   id="namedview10270"
   showgrid="false"
   inkscape:zoom="0.85106383"
   inkscape:cx="131.9875"
   inkscape:cy="88.44077"
   inkscape:window-x="0"
   inkscape:window-y="0"
   inkscape:window-maximized="0"
   inkscape:current-layer="Layer_1" />
<style
   type="text/css"
   id="style10239">
	.st0{fill:#1B61A5;}
</style>
<title
   id="title10241">277Artboard 1</title>
<path
   class="st0"
   d="m 88.2,180 h -4.7 l 10.9,-28.9 h 5.5 L 110.8,180 H 106 l -2.8,-7.5 H 90.9 Z m 13.6,-11.6 -4.6,-12.6 -4.7,12.6 z"
   id="path10243"
   inkscape:connector-curvature="0"
   style="fill:#1b61a5" />
<path
   class="st0"
   d="m 119.5,151.1 v 17.8 c 0,2.6 0.2,3.7 0.7,4.7 2.2,3 6.4,3.6 9.4,1.4 0.5,-0.4 1,-0.9 1.4,-1.4 0.6,-1 0.7,-2.1 0.7,-4.7 v -17.8 h 4.5 v 18.6 c 0.1,2 -0.3,4 -1.3,5.8 -2.8,5.2 -9.2,7.1 -14.4,4.3 -3.7,-2 -5.9,-5.9 -5.6,-10.1 v -18.6 z"
   id="path10245"
   inkscape:connector-curvature="0"
   style="fill:#1b61a5" />
<path
   class="st0"
   d="m 170.6,164.4 v 2.2 c 0,8.4 -5.2,14 -13.1,14 -8.3,0 -15.1,-6.7 -15.1,-15 0,-8.3 6.7,-15.1 15,-15.1 v 0 c 3.3,0 6.5,1.1 9,3.2 0.7,0.6 1.4,1.2 2,1.9 l -3.1,3 c -2.8,-2.9 -4.8,-3.9 -8,-3.9 -6,0.2 -10.6,5.2 -10.5,11.1 0.2,5.7 4.8,10.3 10.5,10.5 2.6,0.1 5.2,-1.1 6.8,-3.1 1,-1.4 1.6,-3 1.7,-4.6 h -8.2 v -4.2 z"
   id="path10247"
   inkscape:connector-curvature="0"
   style="fill:#1b61a5" />
<path
   class="st0"
   d="m 182.1,155.2 v 8 h 9.9 v 4.2 h -9.9 v 8.4 h 11.6 v 4.2 h -16.1 v -28.9 h 15.7 v 4.1 z"
   id="path10249"
   inkscape:connector-curvature="0"
   style="fill:#1b61a5" />
<path
   class="st0"
   d="m 214.2,158.1 c -1.7,-2.6 -2.9,-3.4 -4.9,-3.4 -2.3,-0.1 -4.2,1.6 -4.4,3.9 0,0 0,0.1 0,0.1 0,1.6 1.2,2.8 3.7,3.7 l 2.7,1.1 c 4.8,1.8 7,4.3 7,8 -0.3,5.3 -4.8,9.4 -10.1,9.1 -2.6,-0.1 -5.1,-1.4 -6.8,-3.4 -1.1,-1.5 -1.8,-3.1 -2.1,-4.9 l 4.4,-1.2 0.2,0.7 c 0.8,3.1 2.4,4.6 5,4.6 2.7,0.1 4.9,-2 5,-4.7 0,-0.1 0,-0.1 0,-0.2 0,-1.9 -1.2,-3 -4.4,-4.3 l -2.6,-1 c -4.2,-1.6 -6.2,-4.1 -6.2,-7.6 0,-4.7 3.9,-8.2 9,-8.2 3.7,0 6.2,1.6 8.4,5.3 z"
   id="path10251"
   inkscape:connector-curvature="0"
   style="fill:#1b61a5" />
<path
   class="st0"
   d="m 229.2,151.1 v 17.8 c 0,2.6 0.2,3.7 0.7,4.7 2.2,3 6.4,3.6 9.4,1.4 0.5,-0.4 1,-0.9 1.4,-1.4 0.6,-1 0.7,-2.1 0.7,-4.7 v -17.8 h 4.5 v 18.6 c 0.1,2 -0.3,4 -1.3,5.8 -2.8,5.2 -9.2,7.1 -14.4,4.3 -3.7,-2 -5.9,-5.9 -5.6,-10.1 v -18.6 z"
   id="path10253"
   inkscape:connector-curvature="0"
   style="fill:#1b61a5" />
<path
   class="st0"
   d="m 253.3,151.1 h 4 l 15.8,21.2 v -21.2 h 4.5 V 180 h -4 L 257.7,158.7 V 180 h -4.4 z"
   id="path10255"
   inkscape:connector-curvature="0"
   style="fill:#1b61a5" />
<path
   class="st0"
   d="m 291.3,151.1 c 9.6,0 15.7,5.5 15.7,14.4 0,8.9 -6,14.5 -15.7,14.5 h -6.4 v -28.9 z m -1.9,24.7 h 2 c 6.8,0 11,-3.9 11,-10.3 0,-6.4 -4.2,-10.2 -11,-10.2 h -2 z"
   id="path10257"
   inkscape:connector-curvature="0"
   style="fill:#1b61a5" />
<path
   class="st0"
   d="m 7,157.6 v 4.9 H 18.6 V 169 H 7 v 10.9 H 0 v -28.8 h 19.4 v 6.5 z"
   id="path10259"
   inkscape:connector-curvature="0"
   style="fill:#1b61a5" />
<path
   class="st0"
   d="m 50.1,179.9 h -8.4 l -7.4,-11.4 -1.6,1.7 v 9.7 h -7 v -28.8 h 7 v 9.5 l 9,-9.5 h 9 l -11.5,12.3 z"
   id="path10261"
   inkscape:connector-curvature="0"
   style="fill:#1b61a5" />
<path
   class="st0"
   d="m 72.2,162.5 v -11.4 h 7 V 180 h -7 v -11 h -8.9 v 10.9 h -7.1 v -28.8 h 7.1 v 11.4 z"
   id="path10263"
   inkscape:connector-curvature="0"
   style="fill:#1b61a5" />
<path
   class="st0"
   d="M 277.8,15.2 C 267.3,9.3 247.3,3.5 229.9,1.6 221.1,0.6 212.3,0 203.4,0 c -2.8,0 -5.2,0.1 -7.3,0.2 -8,0.1 -16,0.9 -23.9,2.3 -6.7,1.7 -5.8,-0.2 -11.1,12.7 -5.4,15 -16.7,33.4 -34,43.6 -5.7,3.6 -12.4,5.4 -19.2,5.1 -2.8,0 -5.8,-0.2 -9.2,-0.3 v 0 c -10.9,-0.2 -12.3,8.5 -12.3,8.5 0,0 -4.3,1.3 -9.9,2.9 -5.6,1.6 -5.1,6 -5.1,6 2.5,-0.9 5.1,-1.3 7.8,-1.2 7.9,0.2 15.6,2.2 22.7,5.9 5.8,3.3 6.8,4.4 21.8,11.5 15.3,7.3 26.8,8.8 38.4,10.1 4.7,0.5 9.4,0.7 14.2,0.6 12.7,-0.2 41.3,-0.8 49.9,0.8 5.8,1.1 9,-1.6 9,-1.6 -4.9,-3.9 -16,-5.4 -34.4,-10.8 -35.8,-9.7 -15,-75.6 34.8,-80.2 16.7,-2.5 41.5,-1 42.2,-0.9 z"
   id="path10265"
   inkscape:connector-curvature="0"
   style="fill:#1b61a5" />
<path
   class="st0"
   d="m 90.9,59.8 c 0,0 -15.6,-10.7 -27.5,-13.7 8.4,-0.9 15.9,2.1 20.4,4.6 4.3,2.3 17.8,10.1 29,8.6 6.7,-0.9 13.1,-3.4 18.7,-7.1 -23.1,6.2 -29.3,2.5 -43,-4.8 -5.7,-3 -28,-14.8 -44.5,4.6 -2.2,2.7 -3.8,5.9 -4.6,9.3 -1.7,7.2 -1.8,20.8 13.2,38.2 0,0 -1,-33.5 38.3,-39.7 z"
   id="path10267"
   inkscape:connector-curvature="0"
   style="fill:#1b61a5" />
</svg>