<?xml version="1.0" encoding="UTF-8" standalone="no"?>
<svg
   xmlns:dc="http://purl.org/dc/elements/1.1/"
   xmlns:cc="http://creativecommons.org/ns#"
   xmlns:rdf="http://www.w3.org/1999/02/22-rdf-syntax-ns#"
   xmlns:svg="http://www.w3.org/2000/svg"
   xmlns="http://www.w3.org/2000/svg"
   xmlns:sodipodi="http://sodipodi.sourceforge.net/DTD/sodipodi-0.dtd"
   xmlns:inkscape="http://www.inkscape.org/namespaces/inkscape"
   viewBox="0 0 231.78316 252"
   height="252"
   width="231.78316"
   xml:space="preserve"
   id="svg2"
   version="1.1"
   sodipodi:docname="FK_Makedonija_GP_Gjorce_Petrov__new_logo_.svg"
   inkscape:version="0.92.4 (5da689c313, 2019-01-14)"><sodipodi:namedview
     pagecolor="#ffffff"
     bordercolor="#666666"
     borderopacity="1"
     objecttolerance="10"
     gridtolerance="10"
     guidetolerance="10"
     inkscape:pageopacity="0"
     inkscape:pageshadow="2"
     inkscape:window-width="1366"
     inkscape:window-height="705"
     id="namedview49"
     showgrid="false"
     fit-margin-top="1"
     fit-margin-right="1"
     fit-margin-bottom="1"
     fit-margin-left="1"
     inkscape:zoom="1.1879194"
     inkscape:cx="-2.1022974"
     inkscape:cy="381.95598"
     inkscape:window-x="-8"
     inkscape:window-y="-8"
     inkscape:window-maximized="1"
     inkscape:current-layer="svg2" /><metadata
     id="metadata8"><rdf:RDF><cc:Work
         rdf:about=""><dc:format>image/svg+xml</dc:format><dc:type
           rdf:resource="http://purl.org/dc/dcmitype/StillImage" /><dc:title></dc:title></cc:Work></rdf:RDF></metadata><defs
     id="defs6" /><g
     id="g177"
     transform="matrix(0.33072954,0,0,0.33072954,-15.358544,-5.4342403)"><path
       inkscape:connector-curvature="0"
       d="m 528.65999,112.72535 c -35.572,19.91334 -79.11467,31.23334 -119.16933,33.08934 -8.21734,0.38 -16.452,0.37866 -24.67067,0.02 -40.288,-1.76267 -84.48,-13.096 -120.31733,-33.12534 -45.42,31.72134 -97.784,38.01067 -152.01626,28.68267 l -6.93907,7.38667 c 30.77267,43.07866 54.73267,97.76133 51.61,150.87999 -2.42667,41.296 -18.41333,68.552 -47.5448,93.84667 l 15.27813,23.90933 -19.52973,7.71467 6.9864,9.36 -18.359866,17.07066 29.699996,21.7 -5.28333,11.332 c -16.65627,35.728 -21.985866,87.83867 -4.86773,124.528 15.26466,32.712 46.41293,55.8352 78.5996,70.294 29.24666,13.1396 64.33599,22.44226 95.86933,28.1756 22.35333,4.064 45.20133,7.45733 67.21333,13.05573 13.744,3.49587 29.17066,8.38226 41.588,16.588 12.416,-8.19734 27.836,-13.07973 41.572,-16.574 22.012,-5.5984 44.85733,-8.99107 67.20933,-13.05573 31.53333,-5.73427 66.62266,-15.03587 95.87066,-28.17547 32.18533,-14.4588 63.33467,-37.58147 78.59867,-70.2948 17.12266,-36.69866 11.78133,-88.58666 -4.872,-124.30666 l -5.24,-11.23867 29.536,-21.95066 -18.43867,-16.61334 7.23867,-9.98533 -20.244,-7.99467 15.89866,-23.53733 c -28.988,-25.256 -45.08,-52.668 -47.5,-93.83466 -3.12533,-53.16267 20.87867,-107.89067 51.688,-150.98667 l -6.75466,-7.34 c -54.764,8.89334 -106.86,3.40667 -152.70933,-28.62"
       style="fill:#f4e625;fill-opacity:1;fill-rule:evenodd;stroke:none;stroke-width:0.13333333"
       id="path16" /><path
       inkscape:connector-curvature="0"
       d="m 711.36265,403.62535 21.38533,8.44533 -13.736,18.948 25.22667,22.73067 -39.05733,29.02799 c 16.652,42.40134 19.8,97.22534 0.60533,138.36267 -18.24533,39.10266 -54.08267,66.8428 -92.69333,84.18706 -31.37867,14.09787 -68.588,24.05787 -102.42533,30.21093 -21.67334,3.94067 -43.95734,7.212 -65.28933,12.63747 -11.928,3.03333 -30.14934,8.42453 -38.87334,17.61147 l -0.19866,0.20946 -9.70134,9.36294 -9.412,-9.4744 -0.10266,-0.10894 c -8.724,-9.19 -26.94534,-14.58173 -38.87067,-17.61453 -21.336,-5.426 -43.62,-8.69747 -65.29333,-12.63747 -33.83733,-6.15213 -71.04667,-16.11413 -102.42533,-30.21093 -38.61067,-17.3448 -74.44867,-45.08506 -92.693999,-84.18773 -19.177599,-41.10133 -16.057333,-96.07333 0.570267,-138.5 l -38.915599,-28.43199 24.887999,-23.14267 -13.95,-18.68933 22.011467,-8.69467 -10.478133,-16.39467 9.501599,-7.376 c 29.428129,-22.84533 45.160399,-44.156 47.378129,-81.90399 2.95667,-50.28934 -23.5224,-103.53733 -53.491729,-142.28933 l -6.878133,-8.896 34.059862,-36.256 7.18334,1.44133 c 52.30693,10.48667 102.81093,5.80533 145.73759,-27.879999 l 7.28934,-5.72 7.85066,4.922667 c 33.072,20.733332 76.69733,32.457332 115.49467,34.153332 7.368,0.32133 14.75066,0.32533 22.11866,-0.016 38.59467,-1.788 81.524,-13.5 114.41733,-34.123999 l 7.852,-4.922666 7.28934,5.721333 c 43.484,34.124002 93.82533,37.781332 146.76666,27.848002 l 7.18133,-1.348 33.39467,36.28533 -6.80667,8.804 c -29.96933,38.75333 -56.448,92.00133 -53.49066,142.29066 2.21733,37.73867 18.2,59.30267 47.59466,82.12267 l 9.748,7.56666 z M 101.59693,392.18001 h 589.19239 l -10.65067,17.38134 16.51867,10.74266 -6.20934,11.82 18.36934,20.06534 -24.11067,19.98666 h -74.012 v 211.2948 l -84.92533,26.07186 V 472.17601 h -86.52 v 257.35373 l -42.188,13.08533 -41.868,-13.95413 V 472.17601 h -88.24799 v 236.49746 l -84.056,-26.93906 v -209.5584 h -74.34147 l -23.901462,-22.3 16.650532,-14.99066 -4.573466,-14.99334 15.099466,-5.71066 -10.226,-22.00134"
       style="fill:#ee2333;fill-opacity:1;fill-rule:evenodd;stroke:none;stroke-width:0.13333333"
       id="path18" /><path
       inkscape:connector-curvature="0"
       d="m 107.0948,124.91602 c 59.03186,11.836 112.18919,4.31467 156.46653,-30.433332 35.408,22.198662 81.48399,34.386662 121.92266,36.156002 7.76,0.33866 15.544,0.34 23.30267,-0.0187 40.24666,-1.86533 85.60133,-14.048 120.81066,-36.123999 44.27867,34.747999 96.56666,41.835999 157.336,30.434669 l 20.91066,22.72133 c -39.908,51.60666 -58.852,106.42266 -56.224,151.128 2.044,34.76933 13.852,61.62533 52.67334,91.76266 l -13.04534,19.31333 20.85467,8.23467 -10.71867,14.788 22.07467,19.89067 -34.488,25.63066 c 15.972,34.25867 25.87467,92.14933 4.86933,137.16533 -14.37066,30.8 -43.38133,58.52533 -86.14933,77.73773 -29.47866,13.2428 -67.26666,23.4256 -99.38133,29.26574 -46.81466,8.51186 -92.54666,14.32493 -111.364,34.14159 l -0.14533,0.14067 -0.14933,-0.15053 c -18.81334,-19.82187 -64.55067,-25.6344 -111.36667,-34.1464 -32.11466,-5.83853 -69.90266,-16.02187 -99.38133,-29.2656 C 143.13466,674.07601 114.124,646.35067 99.753064,615.55067 78.748931,570.53601 88.646398,512.42401 104.61826,478.16534 l -34.483328,-25.19333 21.856799,-20.32533 -10.7172,-14.35733 20.859869,-8.24 -12.615602,-19.74134 c 38.820802,-30.136 50.410532,-56.772 52.454532,-91.54133 2.628,-44.70666 -16.31493,-99.52266 -56.223865,-151.12933 z m 421.27185,-6.24267 c -35.552,19.25734 -78.48799,30.34534 -118.64266,32.20534 -8.36933,0.388 -16.756,0.38533 -25.12533,0.0213 -40.42534,-1.76933 -83.98133,-12.87867 -119.80267,-32.24267 -45.324,30.53867 -97.24399,36.84267 -150.47146,28.18267 l -2.25,2.396 c 11.21093,16.09467 21.1312,33.22933 29.2108,51.09066 14.036,31.02934 22.948,65.37467 20.932,99.628 -2.35333,40.07333 -17.084,68.30667 -45.9996,94.47067 l 16.2588,25.444 -19.08747,7.54 5.7432,7.69466 -17.19373,15.98667 28.10413,20.53333 L 123,486.73468 c -16.08174,34.49333 -21.29014,85.04666 -4.8688,120.24133 14.72186,31.55066 45.03146,53.864 76.08213,67.81306 29.35866,13.1896 63.072,22.062 94.69866,27.81254 22.56667,4.10306 45.30533,7.47026 67.55733,13.1296 13.72934,3.49333 28.09067,8.08333 40.33867,15.50426 12.244,-7.41253 26.59867,-11.99906 40.32,-15.49013 22.25067,-5.6584 44.98933,-9.02707 67.55333,-13.12973 31.62533,-5.7516 65.34,-14.62294 94.69867,-27.81254 31.05066,-13.9484 61.35999,-36.26306 76.08266,-67.81373 16.424,-35.19866 11.20933,-85.528 -4.872,-120.02 l -6.98667,-14.98533 27.88534,-20.724 -17.228,-15.52133 6.07866,-8.38533 -20.04,-7.91334 16.95067,-25.09466 c -28.732,-26.11867 -43.52933,-54.468 -45.87467,-94.376 -2.01466,-34.252 6.896,-68.596 20.93067,-99.624 8.10267,-17.91733 18.06,-35.1 29.31333,-51.24 l -2.14266,-2.328 c -53.65334,8.264 -105.368,2.71867 -151.11067,-28.104"
       style="fill:#231f20;fill-opacity:1;fill-rule:evenodd;stroke:none;stroke-width:0.13333333"
       id="path20" /><path
       inkscape:connector-curvature="0"
       d="m 529.53332,95.733354 c -34.89067,21.693336 -79.88266,34.007996 -120.7,35.899996 -7.79066,0.36 -15.6,0.35734 -23.39466,0.0173 -41.03334,-1.79334 -86.72533,-14.12 -121.812,-35.932003 C 217.63199,131.51602 163.48533,137.14802 107.4484,126.02002 l -20.368669,21.68267 c 18.104669,23.532 33.489999,49.80666 43.685329,77.73999 8.47227,23.212 13.6776,48.58934 12.22027,73.38267 -2.44667,41.636 -19.87907,66.524 -52.115066,91.716 l 12.780796,19.99866 -20.770395,8.20534 10.467733,14.024 -21.623333,20.10666 34.165065,24.96267 -0.35267,0.756 c -18.465596,39.608 -23.792129,95.96533 -4.8656,136.52666 16.7588,35.91867 50.2388,61.336 85.6468,77.24267 30.31333,13.61826 66.46133,23.25053 99.14667,29.19226 22.01333,4.00254 44.58,7.33493 66.25333,12.84733 14.86266,3.77974 33.97466,9.77187 45.08533,20.99694 11.12,-11.2208 30.21867,-17.20467 45.07467,-20.9828 21.672,-5.51254 44.23599,-8.84427 66.24933,-12.84693 32.68533,-5.9432 68.83333,-15.5744 99.14799,-29.19267 35.40667,-15.9068 68.88667,-41.32347 85.64534,-77.24213 18.932,-40.57333 13.59333,-96.708 -4.86934,-136.308 l -0.34933,-0.74933 34.15867,-25.384 -21.83334,-19.67333 10.48667,-14.46667 -20.81467,-8.21867 13.22134,-19.576 c -32.19734,-25.16933 -49.86667,-50.3 -52.312,-91.91999 -1.45867,-24.79467 3.74666,-50.17067 12.21866,-73.384 10.196,-27.936 25.584,-54.212 43.69067,-77.74667 l -19.952,-21.67866 c -56.664,10.536 -110.49066,5.92666 -157.03333,-30.297336 z m -0.87333,16.991996 c -35.572,19.91334 -79.11467,31.23334 -119.16933,33.08934 -8.21734,0.38 -16.452,0.37866 -24.67067,0.02 -40.288,-1.76267 -84.48,-13.096 -120.31733,-33.12534 -45.42,31.72134 -97.784,38.01067 -152.01626,28.68267 l -6.93907,7.38667 c 30.77267,43.07866 54.73267,97.76133 51.61,150.87999 -2.42667,41.296 -18.41333,68.552 -47.5448,93.84667 l 15.27813,23.90933 -19.52973,7.71467 6.9864,9.36 -18.359866,17.07066 29.699996,21.7 -5.28333,11.332 c -16.65627,35.728 -21.985866,87.83867 -4.86773,124.528 15.26466,32.712 46.41293,55.8352 78.5996,70.294 29.24666,13.1396 64.33599,22.44226 95.86933,28.1756 22.35333,4.064 45.20133,7.45733 67.21333,13.05573 13.744,3.49587 29.17066,8.38226 41.588,16.588 12.416,-8.19734 27.836,-13.07973 41.572,-16.574 22.012,-5.5984 44.85733,-8.99107 67.20933,-13.05573 31.53333,-5.73427 66.62266,-15.03587 95.87066,-28.17547 32.18533,-14.4588 63.33467,-37.58147 78.59867,-70.2948 17.12266,-36.69866 11.78133,-88.58666 -4.872,-124.30666 l -5.24,-11.23867 29.536,-21.95066 -18.43867,-16.61334 7.23867,-9.98533 -20.244,-7.99467 15.89866,-23.53733 c -28.988,-25.256 -45.08,-52.668 -47.5,-93.83466 -3.12533,-53.16267 20.87867,-107.89067 51.688,-150.98667 l -6.75466,-7.34 c -54.764,8.89334 -106.86,3.40667 -152.70933,-28.62"
       style="fill:#ffffff;fill-opacity:1;fill-rule:evenodd;stroke:none;stroke-width:0.13333333"
       id="path22" /><path
       inkscape:connector-curvature="0"
       d="m 396.05599,185.92402 c 50.42933,0 91.32666,40.896 91.32666,91.32666 0,50.43067 -40.89733,91.32667 -91.32666,91.32667 -50.43067,0 -91.32666,-40.896 -91.32666,-91.32667 0,-50.43066 40.89599,-91.32666 91.32666,-91.32666"
       style="fill:#f4e625;fill-opacity:1;fill-rule:evenodd;stroke:none;stroke-width:0.13333333"
       id="path24" /><path
       inkscape:connector-curvature="0"
       d="m 396.05599,184.80802 c 51.04667,0 92.44266,41.39733 92.44266,92.44266 0,51.04533 -41.39599,92.44267 -92.44266,92.44267 -51.04533,0 -92.44133,-41.39734 -92.44133,-92.44267 0,-51.04533 41.396,-92.44266 92.44133,-92.44266 z m 23.77333,57.76933 14.10134,-16.24933 36.93199,9.48133 1.616,-6.49333 c 7.76,12.348 12.616,26.71066 13.596,42.12 l -5.4,-4.992 -24.08266,29.112 -23.18133,-11.184 z m 12.35867,-17.644 -14.14267,16.296 h -44.21733 l -13.856,-15.96533 20.20267,-31.83733 -6.076,-3.69067 c 7.02933,-1.76 14.38266,-2.69733 21.95733,-2.69733 7.7,0 15.172,0.968 22.308,2.78533 l -6.436,3.60267 z m -59.97067,17.84533 -13.92533,-16.04533 -37.05066,9.512 -1.43467,-7.20933 c -7.80267,12.31333 -12.70933,26.644 -13.75067,42.03333 l 5.372,-4.624 24.15333,29.192 23.07734,-11.13333 z m -35.888,54.97334 23.24134,-11.212 35.36533,25.696 v 28.17333 l -35.308,13.98133 2.748,6.56267 c -13.98533,-5.63467 -26.23467,-14.676 -35.724,-26.09067 l 7.288,0.86267 z m 119.43734,-0.11734 -23.13334,-11.16133 -35.46533,25.76933 v 28.16667 l 35.308,13.98133 -3.09333,6.70667 c 14.01866,-5.58 26.30666,-14.576 35.844,-25.95467 l -7.06134,0.584 -2.39866,-38.092"
       style="fill:#231f20;fill-opacity:1;fill-rule:evenodd;stroke:none;stroke-width:0.13333333"
       id="path26" /><path
       inkscape:connector-curvature="0"
       d="m 396.05599,19.454689 c 56.07867,0 101.556,19.629333 101.556,43.833333 0,24.205332 -45.47733,43.833328 -101.556,43.833328 -56.07733,0 -101.556,-19.627996 -101.556,-43.833328 0,-24.204 45.47867,-43.833333 101.556,-43.833333"
       style="fill:#ee2333;fill-opacity:1;fill-rule:evenodd;stroke:none;stroke-width:0.13333333"
       id="path28" /><path
       inkscape:connector-curvature="0"
       d="m 244.51466,168.13869 c 4.032,-0.0413 7.85867,0.78266 11.24267,3.14666 0.916,-2.828 2.82933,-5.26 5.37733,-7.19066 2.60933,1.87066 4.52533,3.928 5.5,7.30266 3.072,-2.33866 7.14667,-3.4 11.36667,-3.25733 -4.644,4.37867 -7.57734,8.19867 -9.532,13.92667 -5.27467,-1.23867 -8.86134,-1.20267 -14.42267,-0.112 -1.832,-4.25067 -4.728,-9.11867 -9.532,-13.816"
       style="fill:#231f20;fill-opacity:1;fill-rule:evenodd;stroke:none;stroke-width:0.13333333"
       id="path30" /><path
       inkscape:connector-curvature="0"
       d="m 247.25333,169.37735 c 3.05733,3.37467 5.55866,7.15067 7.45466,11.31734 4.748,-0.864 8.33867,-0.92934 13.04267,0.0693 1.72133,-4.60533 4.14267,-8.02133 7.43067,-11.41467 -2.82667,0.29467 -5.60534,1.21067 -7.872,2.93467 l -1.29467,0.98667 -0.452,-1.564 c -0.79467,-2.752 -2.26267,-4.55067 -4.40533,-6.20534 -1.95467,1.62934 -3.54667,3.67867 -4.33734,6.12667 l -0.464,1.43333 -1.236,-0.86266 c -2.40533,-1.67734 -5.06,-2.52667 -7.86666,-2.82134"
       style="fill:#f4e625;fill-opacity:1;fill-rule:evenodd;stroke:none;stroke-width:0.13333333"
       id="path32" /><path
       inkscape:connector-curvature="0"
       d="m 243.72666,176.99602 c 4.04,-0.30133 7.13467,1.06267 9.872,3.95867 5.20667,-1.36267 10.53467,-0.98267 15.62533,0.38266 1.91467,0.51334 2.88134,2.656 5.02934,4.08934 1.37333,0.91466 3.10933,1.43333 4.35466,1.88666 1.60134,0.584 3.448,1.00134 4.936,1.28667 0.872,0.0653 2.012,1.152 0.36934,4.9 -0.212,2.672 -0.34934,6.74 -1.17867,8.132 -1.57067,-1.696 -11.344,-2.996 -10.36533,3.35733 0.30933,2.012 7.14533,1.52133 9.49333,1.084 1.576,0.10933 1.64,2.80533 1.216,4.152 -0.448,1.42667 -0.944,2.62133 -0.944,3.66667 -0.12267,1.39066 -6.78133,-0.60667 -11.152,0.19866 -2.89467,0.53334 -4.48,3.06667 -3.60267,5.87334 0.26934,0.864 1.72934,1.78933 4.48934,2.656 1.20933,0.38 2.624,0.75866 4.184,1.13333 2.824,0.68 6.796,0.74 9.11866,0.968 0.764,1.11867 1.896,2.16 3.09067,3.05067 2.756,-1.47867 5.584,-4.96667 8.15067,-6.376 0.0933,0.0707 0.788,0.78133 0.93866,0.92533 1.94267,-1.888 3.78934,-3.944 6.36667,-5.07733 0.68933,0.95866 1.40533,1.97733 1.948,2.572 4.712,-0.848 7.608,-2.91067 8.13733,-5.24534 0.52934,-2.33466 -1.30133,-4.07466 -0.82666,-6.88533 0.66266,-3.92133 1.54,-8.92933 3.332,-12.67467 1.736,1.30267 2.82,2.168 4.556,4.124 1.59066,-1.91866 3.83466,-5.57866 5.97066,-7.06133 1.304,3.72133 3.58534,7.008 3.476,9.86 2.64,-0.25067 5.06133,0.152 7.81067,0.012 -0.21334,3.97867 -0.31867,5.77867 -4.34,11.61067 -1.948,2.156 -4.34933,4.15466 -6.32133,6.40266 -2.81334,3.20934 -5.13867,2.804 -7.88134,6.37334 -1.132,1.472 -0.756,3.74666 -1.90933,5.44266 -0.93867,1.37734 -1.82933,1.15067 -2.43067,3.20934 -0.84266,1.14133 -1.29733,2.53866 -2.20933,3.71733 -1.668,2.16 -4.02667,3.75867 -6.25467,5.19333 -1.80666,3.47867 -3.90266,6.22 -5.86933,7.97067 1.59067,1.30267 3.39867,2.06 4.99067,3.36133 -1.80934,1.30267 -3.07467,2.496 -3.79467,4.12534 0.14533,2.644 4.39067,4.68 8.45867,5.25066 -0.0427,0.50934 0.79466,3.52667 0.97733,4.436 2.21333,2.05334 3.37733,1.764 5.096,1.58934 2.22533,-0.22667 1.564,-3.06 2.80533,-3.43734 3.72934,-1.13333 7.612,-1.23066 11.30267,-1.224 -1.03733,2.25867 -0.32533,5.50534 -1.51867,7.37734 2.85867,1.048 4.52133,3.29466 6.51067,4.23466 -1.808,2.13334 -4.268,4.92 -6.18667,6.29334 1.268,2.204 -0.83466,5.06266 2.60934,8.13866 -3.32934,0.868 -7.924,1.152 -11.07067,-0.22933 -3.972,-1.74267 -6.29467,-9.66667 -7.81067,-9.32667 -3.08266,-1.14533 -6.49333,0.86934 -9.90133,0.81467 l -0.88133,-1.03067 -4.644,-0.77866 -0.83067,-1.30934 -4.464,-1.184 -0.99867,-1.176 c -1.62,-0.63066 -3.99333,-1.52533 -6.38266,-5.86533 -5.064,3.18133 -4.14667,13.98933 -16.60267,10.42 3.55067,4.476 10.05467,11.00533 14.476,15.80667 3.43867,3.73333 6.42,5.04133 7.22267,7.524 1.91733,5.944 -1.164,10.472 -0.005,13.79866 l -2.07333,0.584 c 0.20533,2.036 0.196,3.31067 1.27333,5.34934 l -2.052,0.65066 c -0.0133,0.976 2.13734,2.43467 3.22934,3.872 1.02133,1.344 -0.76134,4.13067 1.692,5.476 4.18933,-0.007 8.23066,0.5 11.60266,1.69867 4.93067,1.752 8.00267,5.41866 9.336,10.67066 -0.90266,-0.0387 -2.35066,1.12 -3.904,1.51734 -0.10933,0.31733 0.652,3.032 0.97867,5.09333 -1.07067,-0.172 -3.67733,0.552 -4.77733,0.116 0.43466,1.77067 0.43466,3.54267 0.652,5.31467 -1.37467,-0.39867 -3.40134,0.292 -5.20934,-0.54134 0.11334,2.24134 -1.07866,4.048 -0.96533,5.636 -3.516,-2.21733 -7.05067,-4.576 -9.46,-7.21333 -4.29467,-4.696 -7.592,-16.12667 -8.668,-15.348 -1.372,0.992 -2.93067,1.84133 -3.79733,4.232 -1.25867,-1.32533 -2.22934,-2.90533 -2.90934,-5.388 -1.56666,-0.25067 -3.13466,0.15333 -4.59466,0.55733 -0.61334,-2.216 -0.956,-5.848 -0.69867,-8.06133 -1.816,-0.70133 -3.088,-0.75067 -5.01067,-0.8 -0.224,-2.13067 -0.13466,-3.464 -0.06,-6.17066 -2.03466,-0.77867 -3.144,-1.284 -4.84666,-0.86267 0.36,-2.204 1.372,-4.84533 2.81866,-6.504 -0.97466,-1.08933 -3.14666,-1.08933 -4.556,-0.87067 -0.0373,-3.18266 2.828,-4.87066 2.71334,-9.65733 -0.0987,-4.14 -2.656,-8.53067 -6.62,-9.336 0.84533,3.79467 2.23333,6.75467 1.87866,11.716 -1.08266,-0.216 -2.748,-0.28667 -4.11866,0.116 -0.0347,2.80267 -0.54134,5.38533 -1.75734,8.188 -1.07466,-0.29467 -4.10533,-0.48267 -5.28666,-0.23333 -0.64267,2.41466 -1.78667,5.28 -3.68934,8.04 -1.92,-1.22134 -6.19733,-1.98934 -8.7,-1.75467 -0.64533,2.88266 -2.87733,5.76666 -5.556,6.91066 -0.35733,-4.78666 -5.49733,-3.73333 -6.83866,-3.576 -2.36267,0.28 -5.556,6.96534 -4.02,10.61334 1.34266,3.192 11.26666,6.05466 12.12666,14.72933 0.15867,1.60667 0.66934,3.30667 0.14,5.352 -1.28533,-0.72533 -3.06933,-0.23467 -4.24933,-0.744 0.42533,1.83467 0.45867,4.75067 -0.488,5.63733 -0.73733,-0.92266 -3.24667,-1.188 -4.464,-1.71733 -0.84,1.368 -2.10933,3.37867 -3.70133,4.424 -0.43334,-1.736 -1.832,-3.256 -2.26667,-4.99333 -0.48667,1.124 -2.58133,3.43066 -4.46267,4.448 -0.97333,-2.63334 -1.66133,-3.89734 -2.92666,-5.53467 -1.25467,-1.62533 -2.32934,-4.60133 -2.84267,-6.58933 -1.85067,-7.16934 -0.88133,-14.08934 -1.65333,-21.772 -0.256,-2.56 -2.24133,-4.65334 -2.45867,-7.112 0.868,-0.724 2.17067,-0.35867 3.03867,-1.08133 -1.584,-2.02667 -2.15867,-3.332 -2.6,-5.644 0.868,0.14 3.028,-0.35734 3.896,-0.64667 -0.868,-1.73067 -2.13067,-5.312 -0.85467,-7.58133 1.092,0.46533 1.93467,0.276 2.716,0.36266 -0.0867,-0.58666 0.364,-1.96533 1.088,-2.93866 0.784,1.06533 4.456,2.75866 7.25867,2.12666 -0.352,-1.44666 0.13333,-4.17733 0.42266,-5.624 1.03734,1.05467 2.60267,2.69467 10.42934,2.14934 2.824,-8.9 0.644,-16.276 4.11866,-23.868 -15.94133,-10.24667 -22.52933,-27.46267 -9.332,-49.472 -3.04,-2.64534 -5.20666,-3.39867 -7.63066,-3.12134 -4.04267,0.46534 -7.43334,4.23867 -9.50934,10.496 5.16534,8.03334 5.39467,12.584 4.33334,18.87734 -2.892,0.14266 -2.524,-3.416 -5.41867,-3.27067 -1.37333,4.27467 -3.61733,7.896 -6.94933,10.86533 -1.156,-3.76133 -2.096,-8.176 -1.948,-11.93733 -2.02533,-0.148 -4.05067,0.356 -6.076,1.08 0.44667,-6.78267 3.884,-10.71467 9.54933,-16.91467 2.74534,-8.53333 7.884,-13.636 13.66933,-15.00533 4.22,-1 9.22267,-0.668 13.02,3.072 7.25067,-11.03467 5.58534,-21.884 -1.084,-32.33333 -6.76533,3.08666 -13.20533,1.70533 -18.23066,-0.43734 1.592,-3.32933 4.488,-5.78399 5.20933,-6.27866 -1.59333,-2.96667 -2.96933,-7.89467 -3.26,-10.64267 2.24267,-0.004 7.096,1.51867 9.12133,2.38534 0.28934,-1.88 1.44534,-5.50267 2.60134,-7.384 4.19866,2.55733 5.06266,6.892 6.93866,15.84 12.22134,17.53199 10.75334,31.70533 4.34534,43.40799 8.67466,14.004 5.73333,28.30667 -1.61334,38.136 1.50534,1.93467 4.16,3.54267 5.412,4.448 0.576,-2.588 1.84,-4.71333 4.87734,-5.912 6.35066,-2.504 11.50266,2.264 16.71066,-6.952 1.34534,-1.99733 -0.19333,-5.84533 -6.13333,-4.9 0.168,-2.51066 0.48133,-4.85733 -0.63867,-8.23866 -1.20266,0.468 -3.66,0.42533 -5.26133,0.208 1.13867,-1.73734 0.10267,-5.60134 1.024,-8.70267 -1.52667,0.51467 -3.79867,0.196 -4.58533,-0.18933 0.52933,-0.93067 0.412,-3.31867 0.32533,-5.48134 -0.11067,-2.78 0.30267,-5.14266 0.92267,-6.88933 -1.32,-0.52267 -2.78534,-0.30533 -3.92667,-1.936 1.50667,-1.84933 1.70933,-7.83867 3.65067,-10.39733 -1.16134,-0.464 -2.76934,-1.01867 -3.79067,-2.64134 3.136,-1.13066 3.064,-4.92933 5.11067,-7.476 -0.68,-0.364 -1.85067,-0.51066 -2.58667,-1.58266 1.88267,-1.564 1.428,-4.38267 3.41867,-6.10934 -0.62,-0.32933 -1.56667,-0.712 -2.35067,-1.42133 1.43733,-1.36133 1.56533,-6.54133 6.35867,-9.64666 -1.00267,-3.336 -1.364,-6.084 -1.08267,-9.43867 z m -19.65867,61.17066 c 1.74,2.57867 3.94267,9.36534 2.93734,15.68534 -0.61734,3.87733 -2.75334,9.25733 -5.11067,11.98133 -2.17467,-4.39333 -3.47333,-8.15467 -2.936,-13.18 0.46267,-4.324 2.972,-11.83733 5.10933,-14.48667"
       style="fill:#231f20;fill-opacity:1;fill-rule:evenodd;stroke:none;stroke-width:0.13333333"
       id="path34" /><path
       inkscape:connector-curvature="0"
       d="m 244.77466,178.07069 c -0.12267,2.808 0.268,5.268 1.10267,8.04266 l 0.24133,0.80267 -0.70267,0.45467 c -4.016,2.60133 -4.03466,6.16 -5.38666,8.47466 0.41866,0.24133 0.85866,0.44 1.29466,0.672 l 1.43734,0.76267 -1.228,1.06533 c -1.424,1.236 -1.356,3.45733 -2.58534,5.20133 0.484,0.27067 1.06534,0.40667 1.54934,0.66534 l 1.18266,0.636 -0.84133,1.04533 c -1.77067,2.204 -1.86933,5.396 -4.23067,7.10933 0.69867,0.588 1.55067,0.912 2.456,1.27334 l 1.36,0.544 -0.88533,1.16666 c -1.756,2.31334 -1.75067,6.948 -3.14133,9.60267 0.82266,0.64933 1.90266,0.608 2.93866,1.01867 l 1.00134,0.39733 -0.36134,1.01333 c -0.71733,2.02267 -0.944,4.33867 -0.85866,6.472 0.0467,1.176 0.19333,3.24134 -0.0627,4.77334 0.95067,0.15066 2.19333,0.10666 2.85067,-0.116 l 2.04,-0.688 -0.61467,2.06266 c -0.62267,2.09867 -0.14133,5.17467 -0.568,7.404 1.17867,0.06 2.57733,0.0293 3.33333,-0.26533 l 1.09334,-0.42533 0.36933,1.11333 c 0.91333,2.75733 0.92933,4.76667 0.77733,7.344 1.99067,-0.096 4.08934,0.316 5.44,1.856 1.19334,1.36133 1.46267,3.36267 0.45467,4.856 -1.92133,3.40133 -4.27733,5.93067 -8.29333,6.48 -3.104,0.424 -5.89867,-0.26667 -8.96667,0.94267 -2.45867,0.97066 -3.64,2.60666 -4.19733,5.116 l -0.368,1.656 -1.37467,-0.99334 c -1.99733,-1.444 -4.092,-2.67866 -5.63733,-4.668 l -0.52267,-0.67066 0.508,-0.68134 c 8.36267,-11.188 8.92133,-24.99333 1.55867,-36.88133 l -0.34267,-0.552 0.312,-0.57067 c 8.10267,-14.79733 5.11733,-28.752 -4.28133,-42.23333 l -0.13067,-0.18666 -0.0467,-0.22267 c -0.92933,-4.43467 -1.72666,-11.22533 -5.46666,-14.42 -0.84934,1.78533 -1.62934,4.28 -1.87867,5.90533 l -0.21867,1.42267 -1.32266,-0.56667 c -1.68934,-0.72533 -5.04934,-1.82533 -7.38,-2.18133 0.512,2.90933 1.70666,6.584 2.94,8.884 l 0.47333,0.88133 -0.82533,0.56534 c -1.48534,1.02 -3.196,3.03733 -4.26134,4.79466 5.336,2.04 10.796,2.448 16.188,-0.0133 l 0.88267,-0.40267 0.52133,0.81734 c 7,10.96933 8.46667,22.29999 1.076,33.54666 l -0.74666,1.136 -0.968,-0.95333 c -3.25867,-3.20934 -7.672,-3.80267 -11.98134,-2.78267 -6.74533,1.59867 -10.87066,8.064 -12.86399,14.26267 l -0.0733,0.23066 -0.164,0.18 c -4.12533,4.51467 -8.09066,8.54667 -9.072,14.56934 1.57867,-0.44934 3.20534,-0.72 4.85467,-0.59867 l 1.07733,0.0773 -0.044,1.07867 c -0.12266,3.152 0.528,6.652 1.39067,9.80933 2.48533,-2.592 4.212,-5.63733 5.332,-9.12266 l 0.23466,-0.73467 0.77067,-0.0387 c 2.93467,-0.14666 3.34267,2.27734 4.55333,3.044 0.93867,-6.75466 -0.40266,-10.79333 -4.35066,-16.93333 l -0.288,-0.448 0.168,-0.50667 c 1.59733,-4.81466 4.836,-10.608 10.44133,-11.252 3.41467,-0.39066 5.99467,1.216 8.48933,3.388 l 0.704,0.61334 -0.48,0.80266 c -10.92533,18.22134 -9.42666,36.128 8.97867,47.96 l 0.81333,0.52134 -0.40133,0.88133 c -3.252,7.1 -1.57467,15.87333 -4.06933,23.74 l -0.22934,0.72133 -0.756,0.0533 c -3.20533,0.224 -6.91066,0.4 -9.73466,-1.25734 -0.18267,1.208 -0.30667,2.55467 -0.112,3.356 l 0.268,1.10267 -1.108,0.24933 c -1.936,0.43734 -5.216,-0.17333 -7.20534,-1.47066 -0.17066,0.39066 -0.29733,0.78533 -0.28,1.03733 l 0.212,1.42667 -1.44,-0.16134 c -0.78,-0.0867 -1.30133,-0.02 -1.92266,-0.116 -0.39734,1.792 0.472,4.31067 1.18133,5.72667 l 0.57733,1.15067 -1.22266,0.408 c -0.68267,0.22666 -1.832,0.51333 -2.86134,0.648 0.404,1.46266 0.988,2.48266 2.09334,3.89733 l 0.66533,0.852 -0.83067,0.692 c -0.80533,0.672 -1.84,0.692 -2.52,0.856 0.48534,2.028 2.096,3.98 2.33467,6.368 0.71867,7.148 -0.17733,14.628 1.624,21.60533 0.48,1.85733 1.47467,4.66933 2.64533,6.18667 1.17067,1.516 1.90667,2.87866 2.58,4.516 1.15867,-0.90134 2.49867,-2.25867 2.904,-3.19067 l 1.30667,-3.01867 0.79867,3.19067 c 0.296,1.18267 1.06,2.24667 1.64933,3.41333 0.90133,-0.94 1.67333,-2.16133 2.28533,-3.15733 l 0.50667,-0.824 0.888,0.38533 c 1.04667,0.45334 2.45467,0.6 3.588,1.09734 0.19467,-1.17067 -0.0173,-3.10267 -0.16667,-3.74267 l -0.49733,-2.15067 2.02667,0.87467 c 0.80266,0.34667 1.81866,0.152 2.91066,0.31467 0.0787,-1.27467 -0.22266,-2.452 -0.35466,-3.78934 -0.83867,-8.46533 -10.23734,-10.11066 -12.044,-14.40533 -1.448,-3.44 1.03066,-11.69333 4.91733,-12.15333 3.23067,-0.38133 6.70267,-0.316 7.77467,2.95866 1.8,-1.25866 3.20533,-3.38399 3.66266,-5.43066 l 0.17734,-0.79067 0.80666,-0.076 c 2.28134,-0.21333 6.02934,0.33067 8.42934,1.408 1.33066,-2.116 2.34533,-4.46 2.98666,-6.86933 l 0.176,-0.66267 0.67067,-0.14133 c 1.07067,-0.22533 3.30533,-0.164 4.832,0.0573 0.87067,-2.24933 1.296,-4.47333 1.328,-6.936 l 0.009,-0.82266 0.792,-0.232 c 1.02267,-0.3 2.232,-0.39067 3.36934,-0.31067 0.0467,-3.81067 -1.05867,-6.412 -1.904,-10.21067 l -0.37334,-1.67733 1.684,0.34267 c 4.64667,0.94533 7.40534,5.944 7.51334,10.40266 0.092,3.85867 -1.95867,6.16534 -2.55334,8.45467 1.508,-0.0293 3.14534,0.27733 4.112,1.356 l 0.656,0.73467 -0.648,0.74266 c -1.01333,1.16267 -1.788,2.884 -2.24,4.51067 1.30534,0.0573 2.45334,0.55467 3.82667,1.08133 l 0.73733,0.28267 -0.02,0.78933 c -0.048,1.71867 -0.12933,3.364 -0.0267,5.05867 1.53066,0.0667 2.8,0.22933 4.38266,0.84133 l 0.80534,0.31067 -0.0987,0.85866 c -0.21333,1.83734 -0.009,4.50534 0.412,6.56267 1.29467,-0.31333 2.59867,-0.50533 3.94933,-0.28933 l 0.71067,0.11333 0.18933,0.69333 c 0.36934,1.35467 0.85734,2.53734 1.59734,3.62534 0.832,-1.28667 1.924,-2.02534 3.37866,-3.07867 1.72267,-1.24533 2.996,2.06133 3.49334,3.144 1.02133,2.22933 1.964,4.48133 3.06266,6.67733 0.95334,1.904 2.14934,4.10134 3.59067,5.67867 2.12,2.32 5.01733,4.32667 7.75867,6.08533 0.308,-1.20533 0.79466,-2.408 0.728,-3.69866 l -0.0933,-1.84134 1.67467,0.772 c 1.05467,0.48534 2.29733,0.30534 3.49867,0.30267 -0.10534,-1.276 -0.188,-2.56133 -0.492,-3.79867 l -0.516,-2.09866 2.01066,0.796 c 0.48534,0.192 1.82534,-0.032 3.008,-0.14934 -0.34533,-1.55333 -0.864,-3.836 -0.67333,-4.38666 l 0.19467,-0.56934 0.584,-0.148 c 0.884,-0.22533 1.85866,-0.84266 2.79466,-1.228 -1.33333,-4.21466 -3.99466,-7.28933 -8.324,-8.82666 -3.512,-1.248 -7.52133,-1.64134 -11.228,-1.636 h -0.28666 l -0.252,-0.136 c -3.076,-1.68667 -1.44,-4.98534 -2.044,-5.77867 -0.96134,-1.26667 -3.47867,-2.94933 -3.45734,-4.564 l 0.012,-0.804 1.61334,-0.512 c -0.58934,-1.50133 -0.656,-2.73466 -0.84,-4.556 l -0.0947,-0.932 1.95467,-0.55066 c -0.472,-3.54 1.80666,-7.89467 0.26533,-12.66934 -0.568,-1.76133 -5.45867,-5.45733 -6.98,-7.11066 -4.79333,-5.20534 -10.14933,-10.348 -14.53067,-15.86934 l -2.16,-2.724 3.34134,0.95867 c 11.79866,3.38 9.58133,-6.44667 15.70266,-10.292 l 1,-0.62933 0.57067,1.03466 c 1.52,2.76134 2.912,4.23734 5.80933,5.364 l 0.264,0.10267 0.956,1.12533 4.54667,1.20534 0.79733,1.25733 4.55334,0.764 0.80666,0.94267 c 3.20534,-0.12934 6.29734,-1.92 9.58934,-0.80667 2.56266,0.28533 4.59333,7.89733 8.06133,9.41867 2.37333,1.04133 5.70933,1.02666 8.50267,0.56 -1.95867,-2.81067 -0.41067,-5.07467 -1.45467,-6.892 l -0.504,-0.876 0.82133,-0.58667 c 1.74134,-1.248 3.58667,-3.30267 5.12267,-5.09467 -1.692,-1.148 -3.07067,-2.70533 -5.18267,-3.47866 l -1.30266,-0.47734 0.74533,-1.16933 c 0.75067,-1.17733 0.592,-3.60533 0.97467,-5.65867 -3.17334,0.032 -6.36267,0.23334 -9.41734,1.148 -0.75333,0.96267 -0.31333,3.22 -3.092,3.50267 -2.68533,0.272 -3.828,0.104 -5.968,-1.88267 l -0.264,-0.244 -0.0707,-0.352 c -0.168,-0.836 -0.67467,-2.492 -0.89467,-3.69466 -3.32933,-0.64134 -8.364,-2.54934 -8.56267,-6.14934 l -0.0147,-0.26933 0.108,-0.24533 c 0.66533,-1.50267 1.72533,-2.64534 2.952,-3.65334 -1.26934,-0.83733 -2.63734,-1.54 -3.83334,-2.51866 l -1.012,-0.82667 0.97734,-0.86933 c 2.28933,-2.03867 4.216,-4.94667 5.62,-7.65067 l 0.13733,-0.26267 0.24933,-0.16133 c 2.13867,-1.37867 4.404,-2.90267 5.97734,-4.93867 0.82666,-1.068 1.28933,-2.40266 2.07733,-3.53466 0.7,-2.236 1.544,-1.90134 2.52133,-3.33734 1.04,-1.52933 0.61334,-3.76 1.94667,-5.49333 2.54133,-3.30533 5.49467,-3.65333 7.928,-6.42933 1.972,-2.24934 4.28,-4.156 6.284,-6.36134 2.72266,-3.95466 3.672,-5.63333 4.02133,-9.776 -2.176,-0.005 -4.36,-0.24666 -6.51066,-0.044 l -1.268,0.12134 0.048,-1.27334 c 0.0773,-2.00266 -1.70134,-5.43466 -2.816,-7.97333 -1.68667,1.672 -3.27734,4.26533 -4.65734,5.92933 l -0.83066,1 -0.86267,-0.972 c -1.10267,-1.24266 -2.096,-2.16533 -3.27333,-3.10666 -1.384,3.45066 -2.076,7.52933 -2.68,11.10266 -0.412,2.44134 1.41466,4.29867 0.81466,6.94667 -0.85333,3.76533 -5.696,5.49733 -9.02933,6.096 l -0.604,0.108 -0.416,-0.45333 c -0.52267,-0.572 -1.012,-1.244 -1.48133,-1.90134 -2.00267,1.11334 -3.60534,2.87467 -5.23334,4.456 l -0.77466,0.75334 -0.77734,-0.752 c -0.14533,-0.14134 -0.244,-0.24134 -0.32533,-0.328 -2.55067,1.668 -4.648,4.44933 -7.46,5.95866 l -0.62667,0.336 -0.568,-0.424 c -1.09733,-0.81866 -2.18666,-1.78266 -3.02933,-2.88133 -2.92933,-0.256 -5.9,-0.256 -8.77467,-0.948 -1.428,-0.34267 -2.856,-0.71333 -4.256,-1.15333 -1.62533,-0.50934 -4.65066,-1.56 -5.22133,-3.38667 -1.07867,-3.45733 0.928,-6.65067 4.46667,-7.30267 1.32,-0.244 2.724,-0.24933 4.06133,-0.18266 0.87467,0.044 4.93333,0.51866 6.21733,0.46133 0.14267,-1.13467 0.624,-2.32933 0.95467,-3.38133 0.116,-0.368 0.328,-2.45334 -0.152,-2.68667 -2.56667,0.444 -10.10267,1.16133 -10.59467,-2.04667 -0.97333,-6.316 7.064,-6.99466 10.88534,-5.23866 0.412,-1.91734 0.54933,-5.256 0.648,-6.508 l 0.0147,-0.188 0.0747,-0.17067 c 0.08,-0.17866 1.21867,-3.292 0.56933,-3.34133 l -0.064,-0.005 -0.0627,-0.012 c -1.70934,-0.328 -3.46934,-0.736 -5.10667,-1.33334 -1.59067,-0.57866 -3.168,-1.05733 -4.592,-2.008 -1.424,-0.94933 -3.412,-3.59333 -4.7,-3.93866 -4.92933,-1.32134 -10.07733,-1.684 -15.05333,-0.38134 l -0.64,0.168 -0.45334,-0.48133 c -2.29333,-2.42667 -4.79733,-3.65733 -8.01333,-3.64933 z m -19.78133,59.47199 c 2.8,4.148 3.884,11.63867 3.112,16.48534 -0.62134,3.91333 -2.77067,9.53466 -5.36667,12.536 l -1.1,1.26933 -0.744,-1.50533 c -2.26933,-4.58534 -3.6,-8.60134 -3.04533,-13.79334 0.42933,-4.02 2.83466,-11.95066 5.35066,-15.06933 l 0.948,-1.17467 0.84534,1.252"
       style="fill:#f4e625;fill-opacity:1;fill-rule:evenodd;stroke:none;stroke-width:0.13333333"
       id="path36" /><path
       inkscape:connector-curvature="0"
       d="m 295.43599,184.68269 c -1.48533,5.772 0.308,12.97733 -2.936,17.97199 -0.936,1.44267 -3.088,3.22934 -5.51466,3.48534 -3.58667,0.37866 -5.932,-1.86667 -6.66267,-1.852 2.17467,-0.92267 3.10133,-2.75867 4.15467,-5.11467 1.12,-2.50667 1.49866,-5.368 2.29333,-7.66666 0.86267,-2.49467 2.244,-5.18267 4.26533,-6.208 1.23067,-0.62267 2.844,-0.63867 4.4,-0.616"
       style="fill:#231f20;fill-opacity:1;fill-rule:evenodd;stroke:none;stroke-width:0.13333333"
       id="path38" /><path
       inkscape:connector-curvature="0"
       d="m 294.06533,185.80002 c -0.89467,0.0293 -1.828,0.14133 -2.52534,0.49333 -1.82933,0.928 -3.068,3.70534 -3.71333,5.576 -0.892,2.57734 -1.19333,5.21467 -2.332,7.76 -0.76667,1.716 -1.528,3.30267 -2.82133,4.47067 1.09066,0.55466 2.42533,1.11733 4.19333,0.93066 1.76667,-0.18666 3.736,-1.504 4.69867,-2.98266 2.71733,-4.18667 1.628,-10.98133 2.5,-16.248"
       style="fill:#f4e625;fill-opacity:1;fill-rule:evenodd;stroke:none;stroke-width:0.13333333"
       id="path40" /><path
       inkscape:connector-curvature="0"
       d="m 269.51733,188.04402 c 0.616,-0.57067 1.84533,-0.248 2.74533,0.72267 0.90133,0.96933 1.132,2.22 0.51467,2.792 -0.616,0.572 -1.84534,0.248 -2.74667,-0.72267 -0.9,-0.96933 -1.12933,-2.22 -0.51333,-2.792"
       style="fill:#231f20;fill-opacity:1;fill-rule:evenodd;stroke:none;stroke-width:0.13333333"
       id="path42" /><path
       inkscape:connector-curvature="0"
       d="m 547.73199,168.13869 c -4.032,-0.0413 -7.85867,0.78266 -11.244,3.14666 -0.91467,-2.828 -2.828,-5.26 -5.37734,-7.19066 -2.608,1.87066 -4.524,3.928 -5.49866,7.30266 -3.072,-2.33866 -7.148,-3.4 -11.368,-3.25733 4.644,4.37867 7.57733,8.19867 9.53333,13.92667 5.27333,-1.23867 8.86133,-1.20267 14.42133,-0.112 1.83334,-4.25067 4.728,-9.11867 9.53334,-13.816"
       style="fill:#231f20;fill-opacity:1;fill-rule:evenodd;stroke:none;stroke-width:0.13333333"
       id="path44" /><path
       inkscape:connector-curvature="0"
       d="m 544.99199,169.37735 c -3.056,3.37467 -5.55734,7.15067 -7.45334,11.31734 -4.74933,-0.864 -8.34,-0.92934 -13.04266,0.0693 -1.72267,-4.60533 -4.144,-8.02133 -7.43067,-11.41467 2.82667,0.29467 5.604,1.21067 7.87067,2.93467 l 1.29466,0.98667 0.45334,-1.564 c 0.79466,-2.752 2.26266,-4.55067 4.404,-6.20534 1.956,1.62934 3.54666,3.67867 4.33866,6.12667 l 0.464,1.43333 1.23467,-0.86266 c 2.40533,-1.67734 5.06,-2.52667 7.86667,-2.82134"
       style="fill:#f4e625;fill-opacity:1;fill-rule:evenodd;stroke:none;stroke-width:0.13333333"
       id="path46" /><path
       inkscape:connector-curvature="0"
       d="m 548.51999,176.99602 c -4.04134,-0.30133 -7.136,1.06267 -9.872,3.95867 -5.208,-1.36267 -10.53467,-0.98267 -15.62534,0.38266 -1.916,0.51334 -2.88133,2.656 -5.02933,4.08934 -1.37467,0.91466 -3.10933,1.43333 -4.35467,1.88666 -1.60133,0.584 -3.448,1.00134 -4.93733,1.28667 -0.87067,0.0653 -2.01067,1.152 -0.36933,4.9 0.21333,2.672 0.34933,6.74 1.18,8.132 1.57066,-1.696 11.34266,-2.996 10.364,3.35733 -0.30934,2.012 -7.144,1.52133 -9.49334,1.084 -1.576,0.10933 -1.63866,2.80533 -1.216,4.152 0.448,1.42667 0.944,2.62133 0.944,3.66667 0.124,1.39066 6.78267,-0.60667 11.15334,0.19866 2.89466,0.53334 4.47866,3.06667 3.60266,5.87334 -0.27066,0.864 -1.72933,1.78933 -4.48933,2.656 -1.21067,0.38 -2.62533,0.75866 -4.184,1.13333 -2.82533,0.68 -6.79733,0.74 -9.12,0.968 -0.764,1.11867 -1.896,2.16 -3.08933,3.05067 -2.756,-1.47867 -5.58534,-4.96667 -8.152,-6.376 -0.092,0.0707 -0.78667,0.78133 -0.93734,0.92533 -1.944,-1.888 -3.79066,-3.944 -6.36666,-5.07733 -0.68934,0.95866 -1.40534,1.97733 -1.948,2.572 -4.71334,-0.848 -7.608,-2.91067 -8.13734,-5.24534 -0.52933,-2.33466 1.3,-4.07466 0.82667,-6.88533 -0.664,-3.92133 -1.54133,-8.92933 -3.33333,-12.67467 -1.736,1.30267 -2.82,2.168 -4.556,4.124 -1.59067,-1.91866 -3.83467,-5.57866 -5.97067,-7.06133 -1.304,3.72133 -3.58533,7.008 -3.476,9.86 -2.63866,-0.25067 -5.06133,0.152 -7.81066,0.012 0.21466,3.97867 0.32,5.77867 4.34,11.61067 1.94933,2.156 4.35066,4.15466 6.32133,6.40266 2.81333,3.20934 5.14,2.804 7.88266,6.37334 1.13067,1.472 0.75467,3.74666 1.90934,5.44266 0.93733,1.37734 1.82933,1.15067 2.43066,3.20934 0.84267,1.14133 1.29734,2.53866 2.208,3.71733 1.668,2.16 4.02667,3.75867 6.256,5.19333 1.80667,3.47867 3.90267,6.22 5.86934,7.97067 -1.592,1.30267 -3.4,2.06 -4.992,3.36133 1.80933,1.30267 3.07466,2.496 3.796,4.12534 -0.14667,2.644 -4.392,4.68 -8.45867,5.25066 0.0427,0.50934 -0.79467,3.52667 -0.97867,4.436 -2.21333,2.05334 -3.37733,1.764 -5.096,1.58934 -2.224,-0.22667 -1.56266,-3.06 -2.804,-3.43734 -3.73066,-1.13333 -7.61199,-1.23066 -11.30266,-1.224 1.03733,2.25867 0.324,5.50534 1.51733,7.37734 -2.85733,1.048 -4.52133,3.29466 -6.51066,4.23466 1.80933,2.13334 4.26933,4.92 6.18666,6.29334 -1.26666,2.204 0.836,5.06266 -2.608,8.13866 3.328,0.868 7.924,1.152 11.07067,-0.22933 3.97066,-1.74267 6.29466,-9.66667 7.81066,-9.32667 3.08267,-1.14533 6.49334,0.86934 9.90134,0.81467 l 0.88,-1.03067 4.64533,-0.77866 0.83067,-1.30934 4.46266,-1.184 1,-1.176 c 1.62,-0.63066 3.992,-1.52533 6.38267,-5.86533 5.064,3.18133 4.14533,13.98933 16.60267,10.42 -3.552,4.476 -10.056,11.00533 -14.476,15.80667 -3.43867,3.73333 -6.42,5.04133 -7.22267,7.524 -1.91867,5.944 1.16267,10.472 0.004,13.79866 l 2.07333,0.584 c -0.20533,2.036 -0.19466,3.31067 -1.27333,5.34934 l 2.05333,0.65066 c 0.0133,0.976 -2.13866,2.43467 -3.22933,3.872 -1.02133,1.344 0.76133,4.13067 -1.69333,5.476 -4.188,-0.007 -8.23067,0.5 -11.60267,1.69867 -4.93067,1.752 -8.00133,5.41866 -9.33467,10.67066 0.90267,-0.0387 2.34934,1.12 3.90267,1.51734 0.10933,0.31733 -0.652,3.032 -0.97867,5.09333 1.072,-0.172 3.67734,0.552 4.77867,0.116 -0.436,1.77067 -0.436,3.54267 -0.652,5.31467 1.37333,-0.39867 3.40133,0.292 5.208,-0.54134 -0.11333,2.24134 1.07867,4.048 0.96533,5.636 3.516,-2.21733 7.052,-4.576 9.46134,-7.21333 4.29333,-4.696 7.59066,-16.12667 8.668,-15.348 1.37066,0.992 2.92933,1.84133 3.796,4.232 1.25866,-1.32533 2.23066,-2.90533 2.90933,-5.388 1.568,-0.25067 3.136,0.15333 4.59467,0.55733 0.61333,-2.216 0.956,-5.848 0.7,-8.06133 1.81466,-0.70133 3.08666,-0.75067 5.01066,-0.8 0.224,-2.13067 0.13467,-3.464 0.0587,-6.17066 2.03467,-0.77867 3.144,-1.284 4.848,-0.86267 -0.36,-2.204 -1.372,-4.84533 -2.81867,-6.504 0.97467,-1.08933 3.14534,-1.08933 4.556,-0.87067 0.0373,-3.18266 -2.828,-4.87066 -2.71333,-9.65733 0.0987,-4.14 2.65467,-8.53067 6.61867,-9.336 -0.84534,3.79467 -2.232,6.75467 -1.87867,11.716 1.084,-0.216 2.748,-0.28667 4.11867,0.116 0.036,2.80267 0.54133,5.38533 1.75866,8.188 1.07334,-0.29467 4.104,-0.48267 5.28534,-0.23333 0.64266,2.41466 1.78666,5.28 3.68933,8.04 1.92,-1.22134 6.19867,-1.98934 8.7,-1.75467 0.64533,2.88266 2.87733,5.76666 5.556,6.91066 0.35867,-4.78666 5.49733,-3.73333 6.83867,-3.576 2.364,0.28 5.556,6.96534 4.02,10.61334 -1.34267,3.192 -11.26667,6.05466 -12.12534,14.72933 -0.15866,1.60667 -0.66933,3.30667 -0.14,5.352 1.284,-0.72533 3.06934,-0.23467 4.248,-0.744 -0.42533,1.83467 -0.45866,4.75067 0.48934,5.63733 0.73733,-0.92266 3.24533,-1.188 4.464,-1.71733 0.84,1.368 2.108,3.37867 3.7,4.424 0.43466,-1.736 1.83333,-3.256 2.26666,-4.99333 0.48667,1.124 2.58267,3.43066 4.46267,4.448 0.97467,-2.63334 1.66267,-3.89734 2.92667,-5.53467 1.256,-1.62533 2.33066,-4.60133 2.844,-6.58933 1.84933,-7.16934 0.88133,-14.08934 1.652,-21.772 0.25733,-2.56 2.24266,-4.65334 2.46,-7.112 -0.86934,-0.724 -2.172,-0.35867 -3.04,-1.08133 1.584,-2.02667 2.15866,-3.332 2.60133,-5.644 -0.868,0.14 -3.02933,-0.35734 -3.89733,-0.64667 0.868,-1.73067 2.132,-5.312 0.85466,-7.58133 -1.09066,0.46533 -1.93466,0.276 -2.716,0.36266 0.0867,-0.58666 -0.36266,-1.96533 -1.08666,-2.93866 -0.784,1.06533 -4.45734,2.75866 -7.25867,2.12666 0.352,-1.44666 -0.13333,-4.17733 -0.42267,-5.624 -1.03733,1.05467 -2.604,2.69467 -10.43066,2.14934 -2.82267,-8.9 -0.64267,-16.276 -4.11734,-23.868 15.94,-10.24667 22.528,-27.46267 9.332,-49.472 3.03867,-2.64534 5.20534,-3.39867 7.62934,-3.12134 4.044,0.46534 7.43333,4.23867 9.51066,10.496 -5.16533,8.03334 -5.39466,12.584 -4.33466,18.87734 2.89333,0.14266 2.52533,-3.416 5.41866,-3.27067 1.37467,4.27467 3.61734,7.896 6.94934,10.86533 1.15733,-3.76133 2.09599,-8.176 1.94933,-11.93733 2.02533,-0.148 4.04933,0.356 6.076,1.08 -0.448,-6.78267 -3.884,-10.71467 -9.55067,-16.91467 -2.744,-8.53333 -7.88266,-13.636 -13.66933,-15.00533 -4.22,-1 -9.22133,-0.668 -13.01867,3.072 -7.252,-11.03467 -5.58533,-21.884 1.084,-32.33333 6.76534,3.08666 13.204,1.70533 18.22934,-0.43734 -1.592,-3.32933 -4.488,-5.78399 -5.20934,-6.27866 1.59334,-2.96667 2.97067,-7.89467 3.26,-10.64267 -2.24266,-0.004 -7.09466,1.51867 -9.12,2.38534 -0.28933,-1.88 -1.44533,-5.50267 -2.60266,-7.384 -4.19867,2.55733 -5.06267,6.892 -6.93734,15.84 -12.22266,17.53199 -10.75466,31.70533 -4.34533,43.40799 -8.676,14.004 -5.73467,28.30667 1.612,38.136 -1.504,1.93467 -4.15867,3.54267 -5.412,4.448 -0.57467,-2.588 -1.83867,-4.71333 -4.87733,-5.912 -6.34934,-2.504 -11.50134,2.264 -16.70934,-6.952 -1.34533,-1.99733 0.192,-5.84533 6.132,-4.9 -0.16666,-2.51066 -0.48,-4.85733 0.63867,-8.23866 1.20267,0.468 3.66133,0.42533 5.26133,0.208 -1.13733,-1.73734 -0.10133,-5.60134 -1.02266,-8.70267 1.52666,0.51467 3.79733,0.196 4.58533,-0.18933 -0.53067,-0.93067 -0.412,-3.31867 -0.32667,-5.48134 0.112,-2.78 -0.30133,-5.14266 -0.92133,-6.88933 1.31867,-0.52267 2.78533,-0.30533 3.92667,-1.936 -1.50667,-1.84933 -1.70934,-7.83867 -3.652,-10.39733 1.16266,-0.464 2.76933,-1.01867 3.79066,-2.64134 -3.13466,-1.13066 -3.06266,-4.92933 -5.10933,-7.476 0.68,-0.364 1.85067,-0.51066 2.58533,-1.58266 -1.88133,-1.564 -1.428,-4.38267 -3.41866,-6.10934 0.62,-0.32933 1.56666,-0.712 2.35066,-1.42133 -1.436,-1.36133 -1.564,-6.54133 -6.35866,-9.64666 1.004,-3.336 1.364,-6.084 1.084,-9.43867 z m 19.65866,61.17066 c -1.74,2.57867 -3.94266,9.36534 -2.93733,15.68534 0.61733,3.87733 2.75333,9.25733 5.11067,11.98133 2.17466,-4.39333 3.472,-8.15467 2.936,-13.18 -0.46267,-4.324 -2.972,-11.83733 -5.10934,-14.48667"
       style="fill:#231f20;fill-opacity:1;fill-rule:evenodd;stroke:none;stroke-width:0.13333333"
       id="path48" /><path
       inkscape:connector-curvature="0"
       d="m 547.47199,178.07069 c 0.12266,2.808 -0.26934,5.268 -1.10267,8.04266 l -0.24267,0.80267 0.70267,0.45467 c 4.016,2.60133 4.03467,6.16 5.38667,8.47466 -0.41734,0.24133 -0.85734,0.44 -1.29334,0.672 l -1.43866,0.76267 1.22933,1.06533 c 1.424,1.236 1.35467,3.45733 2.58533,5.20133 -0.484,0.27067 -1.06666,0.40667 -1.55066,0.66534 l -1.18134,0.636 0.84134,1.04533 c 1.77066,2.204 1.868,5.396 4.22933,7.10933 -0.69867,0.588 -1.55067,0.912 -2.45467,1.27334 l -1.36,0.544 0.88534,1.16666 c 1.75466,2.31334 1.74933,6.948 3.14,9.60267 -0.82134,0.64933 -1.90134,0.608 -2.93867,1.01867 l -1,0.39733 0.36,1.01333 c 0.71867,2.02267 0.94533,4.33867 0.86,6.472 -0.0467,1.176 -0.19467,3.24134 0.0613,4.77334 -0.94933,0.15066 -2.192,0.10666 -2.85066,-0.116 l -2.03867,-0.688 0.61333,2.06266 c 0.624,2.09867 0.14267,5.17467 0.56934,7.404 -1.17867,0.06 -2.57734,0.0293 -3.33334,-0.26533 l -1.09466,-0.42533 -0.36934,1.11333 c -0.91333,2.75733 -0.928,4.76667 -0.77733,7.344 -1.98933,-0.096 -4.088,0.316 -5.43867,1.856 -1.19466,1.36133 -1.464,3.36267 -0.456,4.856 1.92134,3.40133 4.27867,5.93067 8.29334,6.48 3.104,0.424 5.89866,-0.26667 8.968,0.94267 2.45733,0.97066 3.63866,2.60666 4.196,5.116 l 0.368,1.656 1.37466,-0.99334 c 1.99867,-1.444 4.092,-2.67866 5.63867,-4.668 l 0.52267,-0.67066 -0.50934,-0.68134 c -8.36266,-11.188 -8.92,-24.99333 -1.55733,-36.88133 l 0.34267,-0.552 -0.312,-0.57067 c -8.104,-14.79733 -5.11867,-28.752 4.28133,-42.23333 l 0.13067,-0.18666 0.0467,-0.22267 c 0.928,-4.43467 1.72667,-11.22533 5.46534,-14.42 0.85066,1.78533 1.62933,4.28 1.88,5.90533 l 0.21733,1.42267 1.324,-0.56667 c 1.688,-0.72533 5.048,-1.82533 7.37867,-2.18133 -0.512,2.90933 -1.70534,6.584 -2.94,8.884 l -0.47334,0.88133 0.82534,0.56534 c 1.48533,1.02 3.196,3.03733 4.26266,4.79466 -5.336,2.04 -10.796,2.448 -16.18933,-0.0133 l -0.88133,-0.40267 -0.52134,0.81734 c -7.00133,10.96933 -8.468,22.29999 -1.076,33.54666 l 0.74667,1.136 0.968,-0.95333 c 3.25867,-3.20934 7.672,-3.80267 11.98,-2.78267 6.74667,1.59867 10.87067,8.064 12.864,14.26267 l 0.0747,0.23066 0.164,0.18 c 4.12533,4.51467 8.09066,8.54667 9.07066,14.56934 -1.57867,-0.44934 -3.204,-0.72 -4.85467,-0.59867 l -1.07599,0.0773 0.0427,1.07867 c 0.12267,3.152 -0.52666,6.652 -1.39066,9.80933 -2.48534,-2.592 -4.21067,-5.63733 -5.332,-9.12266 l -0.23467,-0.73467 -0.77067,-0.0387 c -2.93333,-0.14666 -3.34133,2.27734 -4.55333,3.044 -0.93867,-6.75466 0.404,-10.79333 4.35067,-16.93333 l 0.28933,-0.448 -0.16933,-0.50667 c -1.59734,-4.81466 -4.83467,-10.608 -10.44,-11.252 -3.41467,-0.39066 -5.99467,1.216 -8.49067,3.388 l -0.704,0.61334 0.48,0.80266 c 10.92533,18.22134 9.42667,36.128 -8.97867,47.96 l -0.81333,0.52134 0.40267,0.88133 c 3.252,7.1 1.57333,15.87333 4.068,23.74 l 0.23066,0.72133 0.756,0.0533 c 3.20534,0.224 6.90934,0.4 9.73334,-1.25734 0.18266,1.208 0.308,2.55467 0.11333,3.356 l -0.268,1.10267 1.10667,0.24933 c 1.936,0.43734 5.216,-0.17333 7.20666,-1.47066 0.17067,0.39066 0.296,0.78533 0.28,1.03733 l -0.212,1.42667 1.44,-0.16134 c 0.78,-0.0867 1.30134,-0.02 1.92134,-0.116 0.39733,1.792 -0.47067,4.31067 -1.18,5.72667 l -0.57867,1.15067 1.22267,0.408 c 0.684,0.22666 1.83333,0.51333 2.86266,0.648 -0.40533,1.46266 -0.988,2.48266 -2.09333,3.89733 l -0.66533,0.852 0.83066,0.692 c 0.80534,0.672 1.83867,0.692 2.52,0.856 -0.48666,2.028 -2.096,3.98 -2.336,6.368 -0.71733,7.148 0.17734,14.628 -1.624,21.60533 -0.47866,1.85733 -1.47333,4.66933 -2.64533,6.18667 -1.17067,1.516 -1.90667,2.87866 -2.57867,4.516 -1.16,-0.90134 -2.5,-2.25867 -2.904,-3.19067 l -1.308,-3.01867 -0.79733,3.19067 c -0.296,1.18267 -1.06,2.24667 -1.65067,3.41333 -0.90133,-0.94 -1.67333,-2.16133 -2.28533,-3.15733 l -0.50667,-0.824 -0.888,0.38533 c -1.04533,0.45334 -2.45333,0.6 -3.58666,1.09734 -0.19467,-1.17067 0.0173,-3.10267 0.16666,-3.74267 l 0.49734,-2.15067 -2.02667,0.87467 c -0.804,0.34667 -1.82,0.152 -2.912,0.31467 -0.0787,-1.27467 0.22267,-2.452 0.35467,-3.78934 0.83866,-8.46533 10.23733,-10.11066 12.04533,-14.40533 1.44667,-3.44 -1.03067,-11.69333 -4.91867,-12.15333 -3.23066,-0.38133 -6.70266,-0.316 -7.77466,2.95866 -1.8,-1.25866 -3.204,-3.38399 -3.66134,-5.43066 l -0.17733,-0.79067 -0.80667,-0.076 c -2.28266,-0.21333 -6.02933,0.33067 -8.43066,1.408 -1.33067,-2.116 -2.34534,-4.46 -2.98534,-6.86933 l -0.17733,-0.66267 -0.67067,-0.14133 c -1.06933,-0.22533 -3.304,-0.164 -4.832,0.0573 -0.87066,-2.24933 -1.296,-4.47333 -1.328,-6.936 l -0.009,-0.82266 -0.79067,-0.232 c -1.02266,-0.3 -2.23333,-0.39067 -3.36933,-0.31067 -0.0467,-3.81067 1.05733,-6.412 1.904,-10.21067 l 0.37333,-1.67733 -1.684,0.34267 c -4.64666,0.94533 -7.40666,5.944 -7.51333,10.40266 -0.092,3.85867 1.95867,6.16534 2.55333,8.45467 -1.50933,-0.0293 -3.14666,0.27733 -4.112,1.356 l -0.65733,0.73467 0.648,0.74266 c 1.01467,1.16267 1.78933,2.884 2.24,4.51067 -1.30533,0.0573 -2.452,0.55467 -3.82533,1.08133 l -0.73867,0.28267 0.0213,0.78933 c 0.048,1.71867 0.12934,3.364 0.0267,5.05867 -1.53067,0.0667 -2.80133,0.22933 -4.384,0.84133 l -0.80533,0.31067 0.1,0.85866 c 0.21333,1.83734 0.008,4.50534 -0.412,6.56267 -1.29467,-0.31333 -2.59867,-0.50533 -3.95067,-0.28933 l -0.70933,0.11333 -0.19067,0.69333 c -0.36933,1.35467 -0.85733,2.53734 -1.59733,3.62534 -0.832,-1.28667 -1.924,-2.02534 -3.37867,-3.07867 -1.72133,-1.24533 -2.996,2.06133 -3.492,3.144 -1.02133,2.22933 -1.96533,4.48133 -3.064,6.67733 -0.95333,1.904 -2.14933,4.10134 -3.58933,5.67867 -2.12,2.32 -5.01867,4.32667 -7.75867,6.08533 -0.30933,-1.20533 -0.79467,-2.408 -0.72933,-3.69866 l 0.0933,-1.84134 -1.67467,0.772 c -1.05466,0.48534 -2.29733,0.30534 -3.49866,0.30267 0.10533,-1.276 0.18933,-2.56133 0.492,-3.79867 l 0.516,-2.09866 -2.00934,0.796 c -0.48533,0.192 -1.82666,-0.032 -3.008,-0.14934 0.34534,-1.55333 0.86267,-3.836 0.67334,-4.38666 l -0.196,-0.56934 -0.58267,-0.148 c -0.884,-0.22533 -1.86,-0.84266 -2.79467,-1.228 1.33334,-4.21466 3.99467,-7.28933 8.324,-8.82666 3.51067,-1.248 7.52134,-1.64134 11.22667,-1.636 h 0.288 l 0.25067,-0.136 c 3.07733,-1.68667 1.44133,-4.98534 2.04533,-5.77867 0.96,-1.26667 3.47733,-2.94933 3.456,-4.564 l -0.0107,-0.804 -1.61333,-0.512 c 0.58933,-1.50133 0.656,-2.73466 0.83867,-4.556 l 0.0947,-0.932 -1.95333,-0.55066 c 0.472,-3.54 -1.808,-7.89467 -0.26667,-12.66934 0.56934,-1.76133 5.46,-5.45733 6.98134,-7.11066 4.792,-5.20534 10.14933,-10.348 14.52933,-15.86934 l 2.16,-2.724 -3.34133,0.95867 c -11.79867,3.38 -9.58,-6.44667 -15.70134,-10.292 l -1,-0.62933 -0.572,1.03466 c -1.51866,2.76134 -2.91066,4.23734 -5.808,5.364 l -0.264,0.10267 -0.956,1.12533 -4.548,1.20534 -0.79733,1.25733 -4.55333,0.764 -0.80667,0.94267 c -3.204,-0.12934 -6.296,-1.92 -9.588,-0.80667 -2.564,0.28533 -4.59467,7.89733 -8.06133,9.41867 -2.37467,1.04133 -5.70933,1.02666 -8.50267,0.56 1.95734,-2.81067 0.40934,-5.07467 1.45467,-6.892 l 0.504,-0.876 -0.82133,-0.58667 c -1.74267,-1.248 -3.588,-3.30267 -5.12267,-5.09467 1.69067,-1.148 3.06933,-2.70533 5.18133,-3.47866 l 1.30267,-0.47734 -0.74533,-1.16933 c -0.75067,-1.17733 -0.592,-3.60533 -0.97334,-5.65867 3.17334,0.032 6.36267,0.23334 9.416,1.148 0.75333,0.96267 0.31467,3.22 3.09333,3.50267 2.684,0.272 3.828,0.104 5.968,-1.88267 l 0.264,-0.244 0.0693,-0.352 c 0.16933,-0.836 0.67466,-2.492 0.896,-3.69466 3.328,-0.64134 8.36266,-2.54934 8.56133,-6.14934 l 0.0147,-0.26933 -0.108,-0.24533 c -0.66534,-1.50267 -1.724,-2.64534 -2.952,-3.65334 1.26933,-0.83733 2.63733,-1.54 3.83466,-2.51866 l 1.01067,-0.82667 -0.976,-0.86933 c -2.29067,-2.03867 -4.21733,-4.94667 -5.62133,-7.65067 l -0.136,-0.26267 -0.24934,-0.16133 c -2.13866,-1.37867 -4.40533,-2.90267 -5.97733,-4.93867 -0.82667,-1.068 -1.29067,-2.40266 -2.07733,-3.53466 -0.70134,-2.236 -1.54534,-1.90134 -2.52267,-3.33734 -1.04,-1.52933 -0.612,-3.76 -1.94667,-5.49333 -2.54,-3.30533 -5.49333,-3.65333 -7.92799,-6.42933 -1.97067,-2.24934 -4.28,-4.156 -6.284,-6.36134 -2.72134,-3.95466 -3.672,-5.63333 -4.02,-9.776 2.17466,-0.005 4.36,-0.24666 6.50933,-0.044 l 1.26933,0.12134 -0.0493,-1.27334 c -0.076,-2.00266 1.70267,-5.43466 2.81733,-7.97333 1.68533,1.672 3.276,4.26533 4.656,5.92933 l 0.83067,1 0.86266,-0.972 c 1.10267,-1.24266 2.096,-2.16533 3.27334,-3.10666 1.384,3.45066 2.076,7.52933 2.68,11.10266 0.41333,2.44134 -1.41467,4.29867 -0.81334,6.94667 0.85334,3.76533 5.696,5.49733 9.028,6.096 l 0.60534,0.108 0.41466,-0.45333 c 0.524,-0.572 1.012,-1.244 1.48134,-1.90134 2.004,1.11334 3.60666,2.87467 5.23466,4.456 l 0.77467,0.75334 0.776,-0.752 c 0.14667,-0.14134 0.244,-0.24134 0.32667,-0.328 2.54933,1.668 4.64666,4.44933 7.46,5.95866 l 0.62533,0.336 0.56933,-0.424 c 1.09734,-0.81866 2.18667,-1.78266 3.028,-2.88133 2.93067,-0.256 5.90134,-0.256 8.77467,-0.948 1.428,-0.34267 2.856,-0.71333 4.25733,-1.15333 1.624,-0.50934 4.65067,-1.56 5.22,-3.38667 1.08,-3.45733 -0.928,-6.65067 -4.46666,-7.30267 -1.31867,-0.244 -2.72267,-0.24933 -4.06134,-0.18266 -0.87466,0.044 -4.93333,0.51866 -6.21733,0.46133 -0.14133,-1.13467 -0.62267,-2.32933 -0.95333,-3.38133 -0.116,-0.368 -0.32934,-2.45334 0.15066,-2.68667 2.56667,0.444 10.10267,1.16133 10.596,-2.04667 0.97334,-6.316 -7.06533,-6.99466 -10.88533,-5.23866 -0.412,-1.91734 -0.55067,-5.256 -0.648,-6.508 l -0.016,-0.188 -0.0747,-0.17067 c -0.0787,-0.17866 -1.21866,-3.292 -0.56933,-3.34133 l 0.064,-0.005 0.0627,-0.012 c 1.70933,-0.328 3.46933,-0.736 5.10666,-1.33334 1.59067,-0.57866 3.168,-1.05733 4.59334,-2.008 1.424,-0.94933 3.412,-3.59333 4.7,-3.93866 4.928,-1.32134 10.076,-1.684 15.052,-0.38134 l 0.64133,0.168 0.45333,-0.48133 c 2.29334,-2.42667 4.79734,-3.65733 8.01334,-3.64933 z m 19.78133,59.47199 c -2.8,4.148 -3.88533,11.63867 -3.11333,16.48534 0.62266,3.91333 2.772,9.53466 5.368,12.536 l 1.09866,1.26933 0.74534,-1.50533 c 2.26933,-4.58534 3.59866,-8.60134 3.04533,-13.79334 -0.43067,-4.02 -2.836,-11.95066 -5.35067,-15.06933 l -0.94933,-1.17467 -0.844,1.252"
       style="fill:#f4e625;fill-opacity:1;fill-rule:evenodd;stroke:none;stroke-width:0.13333333"
       id="path50" /><path
       inkscape:connector-curvature="0"
       d="m 496.81065,184.68269 c 1.48534,5.772 -0.30933,12.97733 2.93467,17.97199 0.93733,1.44267 3.08933,3.22934 5.516,3.48534 3.58667,0.37866 5.932,-1.86667 6.66133,-1.852 -2.17466,-0.92267 -3.1,-2.75867 -4.15333,-5.11467 -1.12133,-2.50667 -1.5,-5.368 -2.29467,-7.66666 -0.86133,-2.49467 -2.24266,-5.18267 -4.26533,-6.208 -1.23067,-0.62267 -2.84267,-0.63867 -4.39867,-0.616"
       style="fill:#231f20;fill-opacity:1;fill-rule:evenodd;stroke:none;stroke-width:0.13333333"
       id="path52" /><path
       inkscape:connector-curvature="0"
       d="m 498.18132,185.80002 c 0.89467,0.0293 1.82667,0.14133 2.52533,0.49333 1.82934,0.928 3.068,3.70534 3.71334,5.576 0.892,2.57734 1.192,5.21467 2.33066,7.76 0.768,1.716 1.52934,3.30267 2.82134,4.47067 -1.08934,0.55466 -2.424,1.11733 -4.19334,0.93066 -1.76533,-0.18666 -3.736,-1.504 -4.69866,-2.98266 -2.71734,-4.18667 -1.628,-10.98133 -2.49867,-16.248"
       style="fill:#f4e625;fill-opacity:1;fill-rule:evenodd;stroke:none;stroke-width:0.13333333"
       id="path54" /><path
       inkscape:connector-curvature="0"
       d="m 522.72799,188.04402 c -0.616,-0.57067 -1.844,-0.248 -2.74534,0.72267 -0.9,0.96933 -1.13066,2.22 -0.51466,2.792 0.616,0.572 1.84533,0.248 2.74666,-0.72267 0.9,-0.96933 1.13067,-2.22 0.51334,-2.792"
       style="fill:#231f20;fill-opacity:1;fill-rule:evenodd;stroke:none;stroke-width:0.13333333"
       id="path56" /><path
       inkscape:connector-curvature="0"
       d="m 159.23066,407.56001 c 0,-0.708 0.48267,-1.11466 1.112,-1.11466 h 6.66934 c 0.524,0 1.11066,0.592 1.11066,1.11466 v 4.66934 c 0,0.2 0.29467,0.316 0.49467,0.348 0.812,0.13466 1.668,0.0933 2.532,0.14 0.864,0.0453 1.708,0.116 2.53067,0.20933 2.22266,0.232 4.03466,1.068 5.436,2.50933 2.75733,2.69334 4.136,5.55067 4.136,8.57067 v 14.35467 c 0,1.348 -0.432,3.136 -1.296,5.36533 -1.4,3.67067 -4.056,5.716 -7.96667,6.13333 -0.90533,0.0933 -1.80133,0.16267 -2.68667,0.20934 -0.88533,0.0467 -1.808,-0.088 -2.68533,0.14 -0.27733,0.0707 -0.49467,0.412 -0.49467,0.696 v 4.668 c 0,0.50933 -0.604,1.04533 -1.11066,1.04533 h -6.66934 c -0.50933,0 -1.112,-0.536 -1.112,-1.04533 v -4.668 c 0,-0.284 -0.21866,-0.62534 -0.49466,-0.696 -0.87734,-0.228 -1.80267,-0.0933 -2.68667,-0.14 -0.884,-0.0467 -1.78,-0.116 -2.68533,-0.20934 -0.20667,-0.0467 -0.45334,-0.0933 -0.74,-0.13866 -0.28934,-0.0467 -0.57734,-0.11734 -0.86534,-0.20934 -5.064,-1.58 -7.59733,-5.296 -7.59733,-11.15066 v -14.35467 c 0,-2.97333 1.36,-5.83067 4.076,-8.57067 1.40133,-1.44133 3.212,-2.27733 5.43467,-2.50933 0.82266,-0.0933 1.668,-0.16267 2.53333,-0.20933 0.864,-0.0453 1.71733,-0.005 2.53067,-0.14 0.19866,-0.032 0.49466,-0.14667 0.49466,-0.348 z m -3.64533,34.07734 h 3.46 v -20.14 l -0.30933,-0.348 c -0.12267,-0.0467 -0.51467,-0.0707 -1.172,-0.0707 -3.00667,0 -4.50934,1.464 -4.50934,4.39067 v 11.84666 c 0,0.83734 0.30934,1.78934 0.92667,2.85734 0.61733,0.976 1.152,1.464 1.604,1.464 z m 13.032,-20.488 -0.30933,0.348 v 19.72133 l 0.30933,0.41867 c 0.12267,0.0467 0.556,0.0693 1.296,0.0693 2.92267,0 4.38533,-1.464 4.38533,-4.39067 v -11.84666 c 0,-2.92667 -1.504,-4.39067 -4.508,-4.39067 -0.65866,0 -1.05066,0.024 -1.17333,0.0707"
       style="fill:#231f20;fill-opacity:1;fill-rule:nonzero;stroke:none;stroke-width:0.13333333"
       id="path58" /><path
       inkscape:connector-curvature="0"
       d="m 196.46666,454.52935 c 0,0.91333 -0.52533,1.39333 -1.11066,1.39333 h -6.66934 c -0.61733,0 -0.92666,-0.464 -0.92666,-1.39333 v -45.924 c 0,-0.696 0.412,-1.04534 1.23466,-1.04534 h 6.052 c 0.94667,0 1.42,0.35067 1.42,1.04534 v 14.46666 c -0.036,0.30134 0.13067,0.656 0.448,0.18 l 9.73867,-14.69466 c 0.60266,-0.90934 1.21866,-1.012 2.04266,-1.01067 l 7.444,0.0107 c 0.94667,0 0.98934,0.83466 0.61067,1.40933 l -10.82533,16.41867 c -0.32534,0.37333 -0.20134,0.77466 -0.0533,1.10266 l 12.42134,27.87867 c 0.28133,0.63067 0.0707,1.532 -0.876,1.53067 l -6.732,-0.004 c -1.05467,0 -1.34134,-0.15067 -1.748,-1.064 l -8.788,-19.78 c -0.15733,-0.27734 -0.29867,-0.51867 -0.60533,-0.0107 l -2.82267,4.28 c -0.22933,0.348 -0.25467,0.436 -0.25467,0.85467 v 14.356"
       style="fill:#231f20;fill-opacity:1;fill-rule:nonzero;stroke:none;stroke-width:0.13333333"
       id="path60" /><path
       inkscape:connector-curvature="0"
       d="m 316.68533,454.53201 c 0,0.91467 -0.52534,1.39467 -1.11067,1.39467 h -6.66933 c -0.61734,0 -0.92667,-0.46533 -0.92667,-1.39467 v -45.924 c 0,-0.696 0.41067,-1.04533 1.23467,-1.04533 h 6.052 c 0.94666,0 1.42,0.352 1.42,1.04533 v 14.46667 c -0.036,0.30133 0.13066,0.65733 0.448,0.18 l 9.73866,-14.69467 c 0.60267,-0.90933 1.21867,-1.012 2.04134,-1.01066 l 7.44533,0.0107 c 0.94666,0 0.98933,0.83467 0.61066,1.40934 l -10.82666,16.41866 c -0.324,0.37334 -0.2,0.77334 -0.0533,1.104 l 12.42266,27.87734 c 0.28,0.63066 0.0693,1.532 -0.876,1.53066 l -6.732,-0.004 c -1.05466,0 -1.34266,-0.15066 -1.74933,-1.06266 l -8.78667,-19.78134 c -0.15733,-0.27733 -0.29866,-0.51866 -0.60666,-0.0107 l -2.82134,4.28 c -0.23066,0.348 -0.25466,0.43733 -0.25466,0.85466 v 14.356"
       style="fill:#231f20;fill-opacity:1;fill-rule:nonzero;stroke:none;stroke-width:0.13333333"
       id="path62" /><path
       inkscape:connector-curvature="0"
       d="m 238.05066,408.59468 c 0.0547,-0.67467 0.36267,-1.02267 0.928,-1.04533 h 6.97867 c 0.53333,0 1.09866,0.56933 1.604,1.74266 l 6.616,15.36134 c 0.296,0.68666 0.60266,0.33333 0.78533,-0.0707 l 7.236,-15.988 c 0.31067,-0.68533 0.69867,-1.04533 1.23333,-1.04533 h 6.66934 c 0.48,0 0.98933,0.45733 0.98933,1.04533 v 45.92533 c 0,0.92667 -0.332,1.392 -0.98933,1.392 h -6.66934 c -0.508,0 -1.11066,-0.536 -1.11066,-1.04533 v -26.20133 c -0.288,0.14 -0.556,0.51066 -0.80267,1.11466 -0.90667,2.556 -1.70933,4.78534 -2.408,6.68934 -0.70133,1.90666 -1.264,3.49333 -1.72933,4.73866 -0.55734,1.49067 -0.82134,2.18534 -2.13467,2.176 l -1.616,-0.0107 c -1.276,-0.008 -1.53333,-1.44534 -1.932,-2.512 -1.524,-4.088 -3.00533,-8.27067 -4.44533,-12.544 l -0.49467,-0.34934 v 26.552 c 0,0.928 -0.37067,1.392 -1.11067,1.392 h -6.66933 c -0.61733,0 -0.928,-0.464 -0.928,-1.392 v -45.92533"
       style="fill:#231f20;fill-opacity:1;fill-rule:nonzero;stroke:none;stroke-width:0.13333333"
       id="path64" /><path
       inkscape:connector-curvature="0"
       d="m 274.45333,454.52001 9.20133,-44.80933 c 0.29467,-1.44 0.7,-2.16133 1.236,-2.16133 h 8.89067 c 0.61866,0 1.05066,0.58133 1.29733,1.74266 l 9.88133,45.57467 c 0.124,0.69733 -0.104,1.04533 -0.68,1.04533 h -6.97866 c -0.57467,0 -0.98667,-0.464 -1.23467,-1.392 -0.288,-1.20933 -0.53467,-2.25466 -0.74,-3.13733 -0.20533,-0.88133 -0.392,-1.62533 -0.55733,-2.22933 -0.164,-0.744 -0.36934,-1.116 -0.61734,-1.116 h -9.26133 l -0.61867,0.768 c -0.20666,0.88266 -0.42266,1.77733 -0.648,2.68266 -0.22666,0.90534 -0.444,1.8 -0.64933,2.68267 -0.28667,1.16133 -0.69867,1.74133 -1.23467,1.74133 h -6.668 c -0.88133,0 -0.66666,-1.15066 -0.61866,-1.392 z m 14.57333,-29.75733 -2.59333,13.58933 h 5.99066 l -2.71733,-13.24133 c -0.0827,-0.27733 -0.268,-0.41733 -0.556,-0.41733 -0.0827,0 -0.124,0.0227 -0.124,0.0693"
       style="fill:#231f20;fill-opacity:1;fill-rule:nonzero;stroke:none;stroke-width:0.13333333"
       id="path66" /><path
       inkscape:connector-curvature="0"
       d="m 514.30265,454.51868 9.2,-44.80933 c 0.29467,-1.44 0.7,-2.16 1.236,-2.16 h 8.892 c 0.61734,0 1.04934,0.58133 1.296,1.74133 l 9.88134,45.576 c 0.124,0.696 -0.104,1.04533 -0.68,1.04533 h -6.97734 c -0.57733,0 -0.98666,-0.46533 -1.23466,-1.39333 -0.28934,-1.20933 -0.536,-2.25467 -0.74134,-3.136 -0.20533,-0.88267 -0.39066,-1.62667 -0.556,-2.23067 -0.16533,-0.74266 -0.37066,-1.11466 -0.61866,-1.11466 h -9.26134 l -0.61733,0.76666 c -0.20667,0.88267 -0.424,1.77734 -0.64933,2.68267 -0.22667,0.90533 -0.444,1.8 -0.64934,2.68267 -0.28666,1.16133 -0.69866,1.74266 -1.23333,1.74266 h -6.67067 c -0.88,0 -0.66533,-1.15066 -0.616,-1.39333 z m 14.57334,-29.75733 -2.59467,13.58933 h 5.99067 l -2.71734,-13.24133 c -0.0813,-0.27734 -0.26666,-0.41734 -0.55466,-0.41734 -0.084,0 -0.124,0.024 -0.124,0.0693"
       style="fill:#231f20;fill-opacity:1;fill-rule:nonzero;stroke:none;stroke-width:0.13333333"
       id="path68" /><path
       inkscape:connector-curvature="0"
       d="m 340.63599,408.60535 c 0.0533,-0.67467 0.36133,-1.02267 0.92667,-1.04534 h 21.61333 c 0.42,0 0.92667,0.52934 0.92667,1.04534 v 6.48133 c 0,0.83467 -0.31067,1.25333 -0.92667,1.25333 h -13.33733 c -0.192,0 -0.31067,0.29867 -0.31067,0.488 v 8.69467 c 0,0.22 0.212,0.50533 0.43333,0.50533 h 10.004 c 0.376,0 0.67867,0.52934 0.67867,0.90534 v 7.17866 c 0,0.356 -0.32267,0.83467 -0.67867,0.83467 h -9.93733 c -0.21067,0 -0.5,0.34667 -0.5,0.55867 v 11.176 c 0,0.288 0.22533,0.46133 0.46133,0.46133 h 14.11334 c 0.37733,0 0.68,0.528 0.68,0.90533 v 7.17867 c 0,0.46267 -0.332,0.696 -0.98934,0.696 h -22.23066 c -0.61734,0 -0.92667,-0.464 -0.92667,-1.39333 v -45.924"
       style="fill:#231f20;fill-opacity:1;fill-rule:nonzero;stroke:none;stroke-width:0.13333333"
       id="path70" /><path
       inkscape:connector-curvature="0"
       d="m 376.04932,407.54935 h 20.07067 c 0.79067,0 1.11067,0.732 1.11067,1.38933 v 38.192 h 2.808 c 0.95466,0 1.14533,0.73733 1.14533,1.25467 v 15.40133 c 0,0.46266 -0.29867,1.04533 -1.25333,1.04533 h -6.03334 c -0.776,0 -1.112,-0.53733 -1.112,-1.04533 v -7.00133 c 0,-0.41734 -0.256,-0.52534 -0.49466,-0.52534 h -15.26134 c -0.32533,0 -0.79466,0.25467 -0.79466,0.58 v 6.94667 c 0,0.50666 -0.25067,1.04533 -1.11067,1.04533 h -6.36133 c -0.73467,0 -0.92534,-0.58 -0.92534,-1.04533 v -15.40133 c 0,-0.372 0.308,-0.72 0.92534,-1.04534 0.65733,-0.0733 1.284,-0.14266 1.91466,-0.348 1.53067,-0.50133 2.052,-7.51066 2.23734,-8.98933 0.764,-6.07467 1.288,-12.06 1.652,-18.25733 0.20533,-3.48534 0.396,-6.36534 0.55733,-8.64267 0.0187,-0.264 0.0933,-1.796 0.14,-2.79333 0.0227,-0.504 0.45333,-0.828 0.78533,-0.76 z m 12.104,8.92 h -3.82933 l -0.308,0.348 c -0.67333,9.716 -1.27733,19.72533 -3.57333,29.196 -0.152,0.62666 -0.092,0.97866 0.424,0.97866 h 7.28666 v -30.52266"
       style="fill:#231f20;fill-opacity:1;fill-rule:nonzero;stroke:none;stroke-width:0.13333333"
       id="path72" /><path
       inkscape:connector-curvature="0"
       d="m 416.62399,456.72135 c -6.14267,-0.328 -10.07467,-2.928 -11.796,-7.80534 -0.83333,-2.36533 -1.23467,-4.52933 -1.23467,-6.48 v -21.18533 c 0,-1.904 0.412,-4.04267 1.23467,-6.41067 1.4,-3.80933 3.624,-6.20266 6.66933,-7.17866 1.688,-0.51067 3.39734,-0.76667 5.12667,-0.76667 2.016,0 3.704,0.256 5.064,0.76667 3.66267,1.48666 5.98933,4.228 6.97733,8.224 0.65867,2.55466 0.988,4.59866 0.988,6.132 v 20.41866 c 0,1.068 -0.22666,2.508 -0.68,4.32 -1.152,4.73867 -3.58,7.828 -7.28533,9.268 -1.236,0.464 -2.92667,0.81067 -5.064,0.69734 z m 0,-8.85067 c 2.716,0 4.07467,-1.81067 4.07467,-5.43467 v -21.18533 c 0,-3.624 -1.35867,-5.43467 -4.07467,-5.43467 -2.75867,0 -4.13733,1.81067 -4.13733,5.43467 v 21.18533 c 0,3.624 1.37866,5.43467 4.13733,5.43467"
       style="fill:#231f20;fill-opacity:1;fill-rule:nonzero;stroke:none;stroke-width:0.13333333"
       id="path74" /><path
       inkscape:connector-curvature="0"
       d="m 433.45999,408.59468 c 0.0547,-0.67467 0.36133,-1.02267 0.92667,-1.04533 h 6.66933 c 0.45867,0 1.112,0 1.112,1.04533 v 15.40133 c 0,0.21467 0.27733,0.41867 0.49467,0.41867 h 7.596 c 0.304,0 0.49333,-0.46267 0.49333,-0.76667 v -15.05333 c 0,-1.04533 0.60133,-1.04533 1.11067,-1.04533 h 6.67066 c 0.47867,0 0.988,0.352 0.988,1.04533 v 46.272 c 0,0.47867 -0.50933,1.04533 -0.988,1.04533 h -6.67066 c -0.508,0 -1.11067,-0.536 -1.11067,-1.04533 v -20.06933 c 0,-0.20134 -0.29467,-0.348 -0.49333,-0.348 h -7.44534 c -0.29333,0 -0.64533,0.30933 -0.64533,0.604 v 19.46666 c 0,0.92667 -0.372,1.392 -1.112,1.392 h -6.66933 c -0.61734,0 -0.92667,-0.464 -0.92667,-1.392 v -45.92533"
       style="fill:#231f20;fill-opacity:1;fill-rule:nonzero;stroke:none;stroke-width:0.13333333"
       id="path76" /><path
       inkscape:connector-curvature="0"
       d="m 464.91866,408.59468 c 0.0533,-0.67467 0.36133,-1.02267 0.92666,-1.04533 h 6.66933 c 0.50934,0 1.11067,0.54133 1.11067,1.04533 v 22.78267 c 0,0.60933 0.33467,0.59866 0.496,0.14533 l 7.59467,-21.464 c 0.59466,-1.68 1.25466,-2.50933 1.91333,-2.50933 h 6.36133 c 0.48,0 0.988,0.56666 0.988,1.04533 v 46.272 c 0,0.47867 -0.50933,1.04533 -0.988,1.04533 h -6.66933 c -0.508,0 -1.112,-0.536 -1.112,-1.04533 v -23.89733 c 0,-0.58 -0.44,-0.30534 -0.49333,-0.14267 l -7.90534,23.69333 c -0.15733,0.47467 -0.212,1.392 -1.60533,1.392 h -6.36 c -0.61733,0 -0.92666,-0.464 -0.92666,-1.392 v -45.92533"
       style="fill:#231f20;fill-opacity:1;fill-rule:nonzero;stroke:none;stroke-width:0.13333333"
       id="path78" /><path
       inkscape:connector-curvature="0"
       d="m 503.47732,408.59468 c 0.116,-0.676 0.484,-1.02267 1.112,-1.04533 h 6.668 c 0.48,0 0.98933,0.56666 0.98933,1.04533 v 37.7 c 0,3.99467 -1.36133,6.88133 -4.13866,8.572 -0.88667,0.54 -1.76934,0.91733 -2.592,1.22 -0.824,0.30133 -1.648,0.47467 -2.47067,0.52133 h -2.59333 c -1.812,0 -3.29467,-0.11466 -4.44667,-0.348 -1.236,-0.27866 -1.85333,-0.62666 -1.85333,-1.04533 v -8.22267 c 0,-0.23333 0.248,-0.34933 0.74133,-0.34933 h 0.18533 c 0.90667,0.0933 1.69734,0.176 2.37734,0.244 0.68,0.0707 1.22533,0.10533 1.63733,0.10533 1.44,0 2.32533,-0.116 2.65467,-0.34933 1.15333,-0.97467 1.72933,-1.81067 1.72933,-2.508 v -35.54"
       style="fill:#231f20;fill-opacity:1;fill-rule:nonzero;stroke:none;stroke-width:0.13333333"
       id="path80" /><path
       inkscape:connector-curvature="0"
       d="m 575.56665,394.58801 c 0.368,-0.7 0.28267,-0.696 0.988,-0.696 h 6.66934 c 0.45333,0 0.812,0.62267 0.408,1.092 l -6.968,8.11467 c -0.63467,0.72267 -0.632,0.828 -1.58534,0.828 h -3.712 c -0.97866,0 0.16,-1.64133 0.43334,-2.16 z m -9.51066,61.324 c -0.464,0 -0.92667,-0.57866 -0.92667,-1.04533 v -45.92267 c 0,-0.92933 0.412,-1.39466 1.236,-1.39466 h 20.56133 c 0.61867,0 1.36134,0.29066 1.36134,1.07866 v 6.79734 c 0,0.36266 -0.25334,0.90533 -0.61734,0.90533 h -13.33866 l -0.49467,0.488 v 38.048 c 0,0.696 -0.26933,1.04533 -0.80267,1.04533 h -6.97866"
       style="fill:#231f20;fill-opacity:1;fill-rule:nonzero;stroke:none;stroke-width:0.13333333"
       id="path82" /><path
       inkscape:connector-curvature="0"
       d="m 593.35332,446.29601 c 1.864,-0.328 3.984,-0.32666 6.36,0 0.61066,0.0827 0.92666,0.34934 0.92666,1.04534 v 7.52533 c 0,0.69733 -0.30933,1.04533 -0.92666,1.04533 h -6.36 c -0.61867,0 -0.92667,-0.348 -0.92667,-1.04533 v -7.52533 c 0,-0.696 0.31734,-0.93867 0.92667,-1.04534"
       style="fill:#231f20;fill-opacity:1;fill-rule:nonzero;stroke:none;stroke-width:0.13333333"
       id="path84" /><path
       inkscape:connector-curvature="0"
       d="m 622.87065,416.47068 h -7.456 c -0.49467,0 -0.63467,0.35867 -0.63467,0.66533 v 37.384 c 0,0.92667 -0.37066,1.392 -1.11066,1.392 h -6.66934 c -0.61733,0 -0.92666,-0.464 -0.92666,-1.392 v -45.92533 c 0,-0.696 0.41066,-1.04533 1.23466,-1.04533 h 23.528 c 0.86534,0 1.29734,0.35066 1.29734,1.04533 v 46.272 c 0,0.47867 -0.50934,1.04533 -0.988,1.04533 h -6.67067 c -0.50667,0 -1.11067,-0.536 -1.11067,-1.04533 v -37.81467 c 0,-0.25466 -0.24,-0.58133 -0.49333,-0.58133"
       style="fill:#231f20;fill-opacity:1;fill-rule:nonzero;stroke:none;stroke-width:0.13333333"
       id="path86" /><path
       inkscape:connector-curvature="0"
       d="m 638.74265,446.29601 c 1.864,-0.328 3.984,-0.32666 6.36,0 0.61067,0.0827 0.92667,0.34934 0.92667,1.04534 v 7.52533 c 0,0.69733 -0.30934,1.04533 -0.92667,1.04533 h -6.36 c -0.61867,0 -0.92667,-0.348 -0.92667,-1.04533 v -7.52533 c 0,-0.696 0.31867,-0.93867 0.92667,-1.04534"
       style="fill:#231f20;fill-opacity:1;fill-rule:nonzero;stroke:none;stroke-width:0.13333333"
       id="path88" /><path
       inkscape:connector-curvature="0"
       d="m 342.92399,50.008022 c 0,-0.438667 -0.35733,-0.542667 -0.63067,-0.542667 h -8.50133 c -0.78533,0 -1.18133,-0.492 -1.18133,-1.473333 v -5.974667 c 0,-0.723999 0.39467,-1.111999 1.18133,-1.163999 0.99733,-0.052 1.86267,-0.104 2.59733,-0.156 0.73467,-0.05067 1.36534,-0.128 1.88934,-0.232 2.204,-0.361334 4.22533,-1.577334 6.06133,-3.648 1.15333,-1.292 1.456,-1.937334 2.04533,-1.937334 h 6.456 c 0.552,0 1.18,0.393334 1.18,1.162667 v 51.130665 c 0,1.032 -0.39466,1.552 -1.18,1.552 h -8.50133 c -0.60933,0 -1.416,-0.281333 -1.416,-1.6 V 50.008022"
       style="fill:#f4e625;fill-opacity:1;fill-rule:nonzero;stroke:none;stroke-width:0.13333333"
       id="path90" /><path
       inkscape:connector-curvature="0"
       d="m 370.78799,71.656021 c -2.36133,0 -4.46133,-0.544 -6.29733,-1.629333 -3.20134,-1.913333 -4.80267,-4.733333 -4.80267,-8.457333 V 45.664022 c 0,-3.104 1.47067,-5.897333 4.40933,-8.378666 1.15467,-0.984 2.64934,-1.785334 4.48667,-2.405334 1.62667,-0.570666 3.67333,-0.854666 6.14,-0.854666 2.67467,0 4.66933,0.284 5.98133,0.854666 5.668,2.585334 8.50134,6.826667 8.50134,12.722667 v 28.009332 c 0,6.052 -2.57067,10.164 -7.71334,12.337333 -3.376,1.404 -6.13866,1.550667 -9.68266,1.550667 h -3.62 c -2.51867,-0.102667 -4.388,-0.533333 -5.668,-1.164 -0.82,-0.402667 -1.25867,-0.749333 -1.25867,-1.162667 v -7.603999 c 0,-1.308 1.02267,-1.361334 1.532,-1.141334 1.82933,0.790667 4.30133,1.801334 6.18,1.917334 0.10667,0.05067 0.788,0.07733 2.048,0.07733 4.30267,0 6.58533,-1.758667 6.848,-5.276 -0.0533,-0.826667 -0.092,-1.654667 -0.11733,-2.482667 -0.0267,-0.828 -0.04,-1.681333 -0.04,-2.56 -0.52534,0 -1.28534,0.232 -2.28267,0.698667 -0.10533,0.05067 -0.26267,0.102667 -0.472,0.154667 -0.21067,0.052 -0.44533,0.129333 -0.708,0.233333 -0.99733,0.309333 -2.152,0.465333 -3.464,0.465333 z m 3.464,-10.009333 c 2.41333,0 3.62,-0.956 3.62,-2.870666 v -12.724 c 0,-1.914667 -1.20667,-2.870667 -3.62,-2.870667 -2.468,0 -3.7,0.956 -3.7,2.870667 v 12.724 c 0,1.914666 1.232,2.870666 3.7,2.870666"
       style="fill:#f4e625;fill-opacity:1;fill-rule:nonzero;stroke:none;stroke-width:0.13333333"
       id="path92" /><path
       inkscape:connector-curvature="0"
       d="m 396.05599,45.197355 c 0,-5.171999 2.44133,-8.611999 7.32,-10.317333 1.62667,-0.569333 3.464,-0.854666 5.51067,-0.854666 9.55066,0 14.32533,4.681333 14.32533,14.043999 0,4.864 -2.33867,9.948 -5.27467,11.56 4.804,2.573333 5.82934,6.253333 6.06267,9.542666 0.052,0.156 0.0773,1.086667 0.0773,2.794667 0,3.050667 -0.288,5.585333 -0.86533,7.602667 -1.99467,6.621333 -6.87467,9.930666 -14.64,9.930666 -1.78533,0 -3.25467,-0.128 -4.40933,-0.386667 -5.03734,-1.345333 -8.13467,-4.268 -9.288,-8.767999 -0.26267,-1.138667 -0.39467,-2.793334 -0.39467,-4.966667 v -3.025333 c 0.10533,-0.776 0.49867,-1.162667 1.18133,-1.162667 h 7.32 c 0.736,0 1.12934,0.386667 1.18134,1.162667 0.0533,0.88 0.10533,1.76 0.15733,2.638666 0.0533,0.878667 0.13067,1.733334 0.236,2.56 0.21067,1.913334 1.41733,2.870667 3.62133,2.870667 2.93867,0 4.43334,-1.344 4.48667,-4.034667 0.0533,-0.154666 0.0787,-1.293333 0.0787,-3.414666 0,-2.274667 -0.15734,-3.929334 -0.472,-4.965334 -0.68267,-2.533333 -1.75734,-3.801333 -3.22667,-3.801333 h -5.668 c -0.84,0 -1.26,-0.594666 -1.26,-1.785333 v -5.197333 c 0,-1.189334 0.42,-1.784 1.26,-1.784 h 5.668 c 1.81467,0 2.61067,-2.48 2.832,-3.026667 0.264,-0.930666 0.39467,-2.198666 0.39467,-3.801333 0,-3.621333 -1.25867,-5.430667 -3.77867,-5.430667 -1.784,0 -2.94267,0.652 -3.14667,2.016 -0.21733,1.436 -0.0987,2.374667 -0.232,2.794667 -0.17866,0.561333 -0.58533,0.852 -0.95066,0.852 h -6.83067 c -0.804,0 -1.276,-0.74 -1.276,-1.458667 v -2.188"
       style="fill:#f4e625;fill-opacity:1;fill-rule:nonzero;stroke:none;stroke-width:0.13333333"
       id="path94" /><path
       inkscape:connector-curvature="0"
       d="m 428.48666,49.000022 c 0,-2.017333 0.0827,-3.684 0.392,-4.966667 1.10666,-4.563999 3.98933,-7.602666 8.50266,-9.153333 1.62534,-0.570666 3.59334,-0.854666 5.904,-0.854666 7.084,0 11.85867,2.948 14.324,8.845333 0.84134,1.862666 1.26134,4.318666 1.26134,7.370666 0,5.689333 -1.844,9.786667 -4.88,12.957333 -2.908,3.036 -5.87067,6.046667 -8.67734,9.032 -2.14666,2.281333 -3.44533,4.364 -3.44533,7.572 h 15.34933 c 0.60934,0 1.18,0.786667 1.18,1.396 v 6.362666 c 0,0.550667 -0.62933,1.164 -1.18,1.164 h -27.15733 c -0.41867,0 -0.812,-0.258666 -1.18133,-0.776 -0.052,-0.413333 -0.0787,-0.841333 -0.0787,-1.281333 0,-0.438667 0,-0.865333 0,-1.28 0,-2.585333 0.42,-4.784 1.26,-6.594666 0.368,-0.826667 0.76133,-1.629334 1.18133,-2.405334 0.42,-0.776 0.84,-1.577333 1.25867,-2.405333 0.84,-1.448 2.17867,-3.309333 4.01467,-5.586667 1.94266,-2.222666 3.62133,-4.162666 5.03733,-5.818666 1.41733,-1.654667 2.59067,-3.058667 3.54267,-4.189333 1.61866,-1.92 2.332,-4.674667 2.332,-8.502667 0,-1.758666 -0.11734,-2.944 -0.148,-3.888 -0.0667,-2.066666 -2.36934,-2.870666 -4.20534,-2.870666 -2.46666,0 -4.10133,1.138666 -4.38933,3.312 -0.22933,1.717333 -0.0387,3.468 -0.12267,5.2 -0.0413,0.870666 -0.708,1.550666 -1.18,1.550666 h -7.71466 c -0.47067,0 -1.18,-0.570666 -1.18,-1.550666 v -2.638667"
       style="fill:#f4e625;fill-opacity:1;fill-rule:nonzero;stroke:none;stroke-width:0.13333333"
       id="path96" /></g></svg>