<?xml version="1.0" encoding="UTF-8" standalone="no"?>
<svg
   xmlns:dc="http://purl.org/dc/elements/1.1/"
   xmlns:cc="http://creativecommons.org/ns#"
   xmlns:rdf="http://www.w3.org/1999/02/22-rdf-syntax-ns#"
   xmlns:svg="http://www.w3.org/2000/svg"
   xmlns="http://www.w3.org/2000/svg"
   xmlns:sodipodi="http://sodipodi.sourceforge.net/DTD/sodipodi-0.dtd"
   xmlns:inkscape="http://www.inkscape.org/namespaces/inkscape"
   width="221.35115"
   height="252"
   viewBox="0 0 166.01337 189"
   version="1.1"
   id="svg182"
   sodipodi:docname="FKR-6.svg"
   inkscape:version="0.92.4 (5da689c313, 2019-01-14)">
  <metadata
     id="metadata188">
    <rdf:RDF>
      <cc:Work
         rdf:about="">
        <dc:format>image/svg+xml</dc:format>
        <dc:type
           rdf:resource="http://purl.org/dc/dcmitype/StillImage" />
        <dc:title />
      </cc:Work>
    </rdf:RDF>
  </metadata>
  <defs
     id="defs186" />
  <sodipodi:namedview
     pagecolor="#ffffff"
     bordercolor="#666666"
     borderopacity="1"
     objecttolerance="10"
     gridtolerance="10"
     guidetolerance="10"
     inkscape:pageopacity="0"
     inkscape:pageshadow="2"
     inkscape:window-width="1366"
     inkscape:window-height="705"
     id="namedview184"
     showgrid="false"
     fit-margin-top="1"
     fit-margin-right="1"
     fit-margin-bottom="1"
     fit-margin-left="1"
     units="px"
     inkscape:zoom="0.7071068"
     inkscape:cx="-156.88638"
     inkscape:cy="8.4899545"
     inkscape:window-x="-8"
     inkscape:window-y="-8"
     inkscape:window-maximized="1"
     inkscape:current-layer="svg182" />
  <g
     id="g281"
     transform="matrix(0.15718214,0,0,0.15718214,-9.8141204,-11.869178)">
    <g
       id="#000000ff">
      <path
         id="path2"
         d="m 579.38,83.45 c 4.43,-2.42 9.59,-3.76 14.64,-2.91 5.48,0.79 10.15,3.99 14.93,6.55 35.62,19.37 72.27,36.8 109.68,52.39 40.24,17.16 81.9,30.89 124.31,41.56 58.47,14.97 118.72,23 179.07,23.74 6.97,0.18 14.4,-0.86 20.88,2.36 7.37,3.57 11.89,11.73 11.46,19.86 0.7,33.41 0.51,66.89 3.92,100.17 2.26,23.25 4.75,46.49 6.47,69.8 -0.22,14.35 1.03,28.67 1.3,43.02 1.26,51.19 -0.03,102.45 -3.78,153.52 -3.69,44.35 -13.29,88.03 -25.93,130.65 -18.36,60.82 -42.62,119.86 -72.11,176.13 -1.74,3.52 -3.52,7.06 -4.55,10.87 5.33,2.91 11.55,3.35 17.35,4.89 39.33,9.15 78.57,19.56 115.98,34.93 6.3,2.41 12.28,6.25 15.97,12.04 5.18,7.45 5.96,17.28 3.64,25.88 -2.08,7.59 -7.87,13.15 -12.66,19.08 -8.45,10.21 -16.82,20.48 -25.38,30.59 -1.85,2.03 -2.56,4.8 -2.12,7.5 2.22,19.95 3.9,39.96 6.17,59.92 0.67,7.49 2.03,15.24 -0.22,22.61 -4.12,14.77 -21.33,25.08 -36.17,20 -14.4,-5.13 -28.27,-11.61 -42.5,-17.19 -2.57,3.13 -3.98,6.97 -5.79,10.55 -6.1,12.31 -11.96,24.73 -18.16,36.99 -2.29,4.32 -4.29,8.81 -7.07,12.85 -6.11,8.62 -17.38,12.78 -27.7,11.23 -6.53,-0.8 -12.2,-4.33 -17.96,-7.2 -21.7,-11.22 -44.3,-20.53 -66.71,-30.21 -17.35,-7.56 -35.27,-13.63 -53.13,-19.84 -3.71,-1.24 -8.39,-3.87 -11.71,-0.41 -18.01,16.06 -35.78,32.44 -55.03,47.03 -39.72,30.14 -83.05,55.51 -128.78,75.4 -5.64,2.43 -11.35,5.54 -17.68,5.36 -5.74,-0.14 -10.87,-2.93 -16,-5.15 -67.57,-29.43 -129.86,-70.9 -183.08,-121.88 -1.73,-1.87 -4.31,-2.99 -6.77,-1.83 -19.95,6.55 -39.73,13.67 -59.18,21.61 -24.65,10.13 -48.56,21.92 -72.58,33.44 -6.47,3.07 -13.92,5.01 -21,3.05 -9.04,-2.6 -17.54,-8.41 -21.85,-16.95 -5.71,-11.01 -11.36,-22.04 -17.05,-33.04 -3.67,-6.68 -6.69,-13.74 -10.78,-20.17 -2.37,-0.49 -4.54,0.97 -6.68,1.75 -11.55,4.81 -23.01,9.84 -34.7,14.29 -13.74,4.81 -30,-2.5 -35.94,-15.67 -4.65,-9.66 -2.24,-20.57 -1.38,-30.75 1.87,-18.97 4.07,-37.91 5.77,-56.9 0.45,-4.01 -2.72,-6.94 -5.03,-9.76 -9.83,-11.84 -19.67,-23.68 -29.39,-35.62 -6.24,-7.6 -8.69,-18.11 -6.2,-27.65 1.61,-6.61 5.98,-12.27 11.34,-16.33 4.54,-3.26 9.91,-5.01 15.04,-7.09 37.67,-14.82 76.94,-25.06 116.35,-34.07 3.72,-0.85 7.54,-1.51 10.99,-3.25 -0.71,-2.49 -1.58,-4.93 -2.74,-7.23 -17.73,-37.22 -35.5,-74.48 -50.04,-113.09 -24.83,-65.47 -44.06,-133.76 -49.23,-203.84 -3.24,-52.91 -6.03,-105.95 -4.12,-158.97 0.68,-19.4 2.46,-38.75 4.29,-58.07 1.44,-20.82 3.79,-41.57 4.78,-62.43 2.13,-27.49 1.81,-55.09 2.76,-82.63 0.34,-7.68 5.18,-14.91 12.24,-18 6.95,-3.04 14.71,-2.11 22.06,-1.82 18.04,-1 36.1,-1.77 54.12,-3.17 45.84,-3.8 91.21,-12.4 135.67,-24.12 56.36,-15.14 111,-36.3 163.66,-61.37 21.77,-10.17 42.83,-21.74 64.04,-33 M 327.88,205.2 c -26.47,5.87 -53.09,11.32 -80.07,14.23 -30.78,3.7 -61.74,6.34 -92.76,6.31 -2.08,0.01 -4.16,0.19 -6.23,0.4 -1.07,16.94 -0.49,33.94 -1.27,50.89 -0.7,21.35 -1.72,42.71 -4.26,63.93 -2.66,23.63 -5.09,47.3 -6.32,71.05 -1.69,31.96 -2.99,63.98 -1.79,95.98 1.49,49.63 5.42,99.37 15.22,148.12 4.36,21.97 8.83,44.01 16.32,65.18 21.01,60.54 44.54,120.35 73.34,177.64 5.58,11.91 12.17,23.31 17.88,35.15 -38.48,9.13 -77.36,16.89 -115.13,28.78 -15.43,4.94 -30.89,10.02 -45.57,16.93 13.04,16.23 26.33,32.26 39.67,48.25 1.58,1.95 3.31,4.19 2.94,6.89 -2.57,28.15 -5.8,56.24 -8.12,84.42 18.65,-7.37 37.18,-15.01 55.82,-22.37 -0.43,-1.39 -0.86,-2.77 -1.5,-4.06 -5.97,-11.68 -12.18,-23.24 -17.97,-35.01 -1.21,-2.55 -2.19,-5.8 -0.43,-8.33 3.94,-5.94 10.07,-9.9 14.74,-15.19 25.11,-24.21 50.03,-48.61 75.08,-72.89 3.65,-3.03 6.46,-6.98 10.39,-9.69 8.48,14.11 17.13,28.11 25.57,42.24 4,-0.15 8.07,-1.09 11.3,-3.56 0.83,-1.05 -0.6,-2.23 -0.92,-3.22 -10.79,-17.06 -21.19,-34.35 -31.05,-51.95 -36.51,-65.51 -65.66,-134.88 -90.57,-205.54 -8.26,-22.18 -14.29,-45.13 -18.96,-68.31 -9.55,-47.92 -14.96,-96.64 -16.92,-145.45 -0.62,-18.33 -0.59,-36.67 0.26,-54.99 0.04,-23.72 1.45,-47.41 3.48,-71.04 1.44,-23.03 5.05,-45.85 6.87,-68.84 2.09,-21.32 1.79,-42.76 2.5,-64.15 0.12,-6.47 -0.1,-13 0.94,-19.42 5.87,-0.48 11.75,-0.68 17.63,-0.67 21.05,-0.63 42.03,-2.52 62.98,-4.58 28.51,-2.81 56.52,-8.98 84.57,-14.59 54.2,-11.79 106.97,-29.55 158.04,-51.09 35,-14.72 69.17,-31.39 102.47,-49.63 2.35,-1.28 5.19,-2.77 7.79,-1.16 12.13,6.25 24.01,12.98 36.26,19.03 74.82,37.75 153.91,67.75 236.04,85.03 21.39,4.71 42.98,8.51 64.73,11.14 22.31,2.27 44.62,5.18 67.08,5.56 7.96,0.51 15.97,-0.05 23.89,1.21 1.14,12.33 0.51,24.74 1.23,37.1 0.5,28.1 3.68,56.05 6,84.04 1.73,18.66 4.16,37.27 4.8,56.02 0.99,14.33 1.83,28.68 2.11,43.05 -0.06,13.99 0.1,27.98 -0.01,41.97 0.18,12.68 -0.91,25.33 -1.49,37.99 -0.96,13.97 -1.47,27.98 -3.08,41.9 -2.37,20.83 -5.17,41.62 -8.92,62.25 -4.57,25.93 -10.07,51.79 -18.61,76.73 -7.09,19.45 -14.39,38.82 -21.68,58.2 -21.63,57.37 -46.92,113.44 -77.4,166.68 -8.89,15.75 -18.59,31.02 -28,46.46 3.92,1.32 7.86,2.57 11.84,3.72 8.34,-14.29 16.68,-28.59 25.12,-42.82 7.79,6.9 14.89,14.52 22.57,21.53 23.02,22.65 46.41,44.9 69.52,67.45 3.47,3.99 8.62,7.24 9.58,12.82 -0.26,4.36 -2.79,8.09 -4.71,11.87 -5.44,10.6 -11.05,21.11 -16.24,31.84 6.57,3.25 13.54,5.61 20.32,8.41 11.78,4.83 23.62,9.53 35.44,14.28 0.43,-4.07 -0.4,-8.1 -0.69,-12.14 -2.28,-24.1 -4.82,-48.17 -7.16,-72.26 -0.24,-4.38 3.5,-7.29 5.97,-10.4 12.36,-14.96 24.95,-29.75 36.97,-44.98 -10.91,-4.61 -21.98,-8.87 -33.27,-12.44 -42.02,-13.48 -85.42,-21.92 -128.03,-33.2 33.19,-60.63 60.03,-124.53 83.48,-189.49 16.36,-42.89 25.71,-88.13 31.89,-133.51 7.61,-57.6 9.83,-115.89 7.09,-173.9 -1.41,-30.09 -3.21,-60.19 -6.87,-90.1 -3.57,-29.15 -4.98,-58.52 -5.5,-87.87 -0.02,-11.06 0.22,-22.14 -0.69,-33.17 -4.79,-0.1 -9.58,-0.19 -14.35,-0.48 -37.56,-0.46 -75.04,-4.15 -112.16,-9.79 -109.28,-17.94 -214.03,-58.35 -310.6,-111.99 -2.46,-1.31 -5.54,-3.02 -8.18,-1.14 -81.69,45.5 -169,81.67 -260.25,102.74 M 515.6,179.51 c -5.93,3.36 -9.88,9.28 -12.67,15.34 -3.31,7.16 -3.14,15.26 -3.12,22.98 -6.18,0 -12.35,-0.01 -18.53,0 0.02,5.89 0.01,11.78 -0.01,17.67 6.18,0.07 12.37,-0.17 18.55,0.16 0.15,19.48 0.57,38.96 0.22,58.45 -0.26,5.63 -0.76,11.79 -4.71,16.2 -3.97,3.97 -9.82,4.76 -15.19,4.57 -0.05,6 -0.04,12 -0.01,18.01 10.44,-0.07 21.84,-2.49 29.03,-10.66 8.72,-10.17 9.52,-24.45 8.53,-37.2 -0.13,-16.49 -0.07,-32.99 -0.03,-49.49 6.51,-0.11 13.01,0.06 19.52,-0.12 -0.07,-5.86 -0.01,-11.72 -0.05,-17.58 -6.5,-0.08 -13.01,0.11 -19.51,-0.12 -0.22,-6.59 0.05,-13.66 3.69,-19.39 3.69,-5.15 10.55,-6.11 16.43,-6.25 -0.07,-5.86 -0.06,-11.73 -0.07,-17.59 -7.59,-0.17 -15.56,0.83 -22.07,5.02 m 29.94,-5 c -0.03,42.36 -0.01,84.73 -0.02,127.09 5.9,0.01 11.8,0.02 17.7,-0.01 0.02,-13.38 -0.06,-26.75 -0.06,-40.13 6.63,0.36 13.4,1.14 19.57,3.76 4.37,1.85 8.29,5.29 9.85,9.88 2.91,8.5 2.48,17.66 2.08,26.5 5.2,0.01 10.41,0.01 15.61,0.01 0.52,-7.24 0.03,-14.49 -0.45,-21.71 -0.71,-8.18 -2.78,-16.92 -9.08,-22.67 -5.89,-5.72 -14.27,-7.39 -22.12,-8.46 7.33,-6.74 13.59,-14.49 20.7,-21.42 5.83,-6.11 12,-11.91 17.56,-18.27 -6.89,-0.14 -13.78,-0.14 -20.66,0 -4.26,4.43 -8.78,8.61 -12.7,13.35 -6.8,7.05 -13.78,13.94 -20.57,21 -0.02,-22.97 0,-45.95 -0.01,-68.92 -5.8,-0.01 -11.6,-0.01 -17.4,0 m 76.42,0.51 c 0,42.2 -0.01,84.39 0.01,126.59 5.48,0 10.97,0 16.46,-0.01 -0.01,-13.42 0,-26.83 0,-40.25 4.68,0 9.37,-0.02 14.06,-0.01 7.99,13.12 16,26.23 24.07,39.29 0.54,1.45 2.24,0.8 3.41,1 5.79,-0.04 11.58,0.02 17.37,-0.07 -2.54,-5.25 -6.16,-9.87 -9.12,-14.88 -6.02,-9.29 -11.86,-18.69 -17.89,-27.97 12.76,-6.99 23.1,-19.87 24.5,-34.69 1.56,-12.69 -1.95,-26.44 -11.22,-35.57 -6.98,-7.85 -17.15,-12.77 -27.61,-13.43 -11.35,-0.03 -22.69,0 -34.04,0 M 171.4,248.55 c -0.81,11.11 -0.95,22.27 -0.99,33.41 -0.58,24.81 -3.44,49.49 -5.81,74.17 -2.98,29.17 -5.24,58.43 -6.45,87.73 -0.59,26.03 -0.94,52.1 -0.01,78.13 2.29,48.69 7.08,97.43 17.84,145.03 3.67,18.07 8.11,36.03 14.49,53.35 5.92,17.79 12.51,35.33 19.35,52.78 27.63,71.64 60.44,141.55 101.68,206.43 3.09,5.19 6.99,9.9 9.54,15.41 -22.92,7.1 -45.43,15.43 -67.8,24.09 -26.4,10.67 -52.74,21.63 -78.14,34.5 20.66,39.74 41.24,79.55 61.65,119.41 1.95,-0.23 3.84,-0.83 5.54,-1.81 67.02,-33.94 137.93,-60.88 211.67,-75.9 46.36,-9.76 93.72,-14.5 141.07,-14.78 24,1.14 48.01,2.44 71.96,4.43 79.82,8.92 157.67,32.19 230.68,65.36 16.43,7.2 32.33,15.53 48.54,23.19 10.3,-20.54 19.96,-41.4 30.29,-61.94 9.33,-19.35 18.55,-38.75 28.25,-57.92 -7.72,-4.61 -16.1,-8.05 -24.12,-12.1 -38.37,-18.79 -78.84,-32.65 -118.59,-48.13 6.94,-11.4 14.45,-22.46 21.17,-34 42.92,-71.57 76.5,-148.37 104.32,-226.94 7.19,-21.2 14.6,-42.44 18.69,-64.51 5.5,-25.05 9.78,-50.37 12.53,-75.86 3.14,-26.1 4.32,-52.38 5.45,-78.63 1.69,-31.49 0.41,-63.04 -1.26,-94.49 -1.29,-28 -4.6,-55.84 -7.03,-83.75 -1.68,-18.03 -3.6,-36.08 -3.79,-54.21 -0.65,-10.79 -0.25,-21.62 -0.95,-32.41 -14.11,-0.35 -28.21,-1.19 -42.28,-2.2 -43.87,-3.33 -87.31,-10.93 -130.09,-21.1 -0.02,245.4 -0.01,490.79 0,736.18 C 799.39,950 759.21,941.1 718.6,935.08 593.78,916.17 465.11,925.59 343.8,960.13 c -0.31,-14.38 -0.12,-28.77 -0.2,-43.16 -0.04,-230.29 -0.01,-460.57 -0.01,-690.86 -1.19,-0.24 -2.37,-0.27 -3.54,-0.09 -55.24,13.25 -111.84,21.24 -168.65,22.53 m 197.32,87.52 c -2.07,14.97 -3.79,29.98 -5.62,44.98 -1.11,7.27 -1.25,14.65 -0.89,21.99 0.25,4.72 1.55,9.55 4.53,13.32 1.39,1.88 3.29,3.57 3.65,6.02 2.11,10.72 4.42,21.4 6.4,32.15 1.18,6.01 1.96,12.11 3.76,17.99 0.65,0.29 1.96,0.88 2.61,1.17 -1.75,4.04 -4.43,7.73 -5.29,12.12 -1.82,10.6 -0.65,22.03 5.04,31.34 1.93,3.14 6.21,3.73 8.12,6.91 0.7,2.09 0.83,4.31 1.23,6.47 15.79,95.16 31.63,190.3 47.55,285.43 2.71,17.39 6,34.69 8.45,52.12 -9.14,3.21 -18.81,4.96 -27.58,9.21 0.88,1.07 1.73,2.26 3.06,2.84 21.09,11.41 45.71,14.67 69.39,13.08 5.85,-1.62 11.63,-3.8 17.79,-3.88 8.14,0.02 15.97,-2.66 24.09,-2.73 4.56,0.19 8.93,-2.86 10.6,-7.05 2.58,-5.96 3.38,-12.86 1.8,-19.17 -1,-4.71 -6.62,-6.48 -7.24,-11.37 -1.71,-10.21 -1.03,-20.64 -0.66,-30.93 0.03,-15.38 2.05,-31.03 -1.67,-46.16 -1.92,-8.65 -5.84,-16.72 -10.69,-24.08 -2.11,-2.41 0.1,-5.35 0.45,-8 0.76,-2.52 0.37,-5.75 2.65,-7.53 2.83,-1.89 5.94,-3.35 8.62,-5.46 10.3,-7.38 16.81,-18.54 25.61,-27.43 1.78,6.13 4.28,12.11 4.55,18.58 -0.1,5.06 4.71,9.41 2.51,14.47 -1.97,5.48 -1.85,11.81 0.96,16.99 2.53,4.74 7.17,7.69 11.47,10.66 1.13,3.9 4.5,6.21 7.18,8.98 0.82,2.16 0.99,4.49 1.34,6.77 1.97,14.37 5.37,28.5 8.26,42.71 1.7,7.31 2.8,14.79 2.84,22.31 -3.83,1.41 -7.84,3.07 -10.42,6.39 -1.95,2.62 -1.94,6.06 -1.75,9.18 -12,8.31 -27.13,10.48 -39.1,18.87 -4.26,3.48 -5.84,8.97 -7.97,13.82 -1.5,4.18 -3.85,8.18 -3.98,12.72 7.3,-1.79 14.23,-4.78 21.51,-6.61 5.67,-1.47 11.43,0.38 17.14,0.42 9.56,0.36 18.74,-2.66 27.97,-4.66 3.03,-0.88 6.02,0.67 9.09,0.51 6.24,0.23 11.68,-3.64 17.89,-3.72 5.45,0.04 11.26,-1.63 14.86,-5.95 4.79,-6.31 5.25,-15.21 2.66,-22.5 -1.27,-4.16 -5.83,-6.22 -6.94,-10.43 -1.33,-3.65 0.09,-7.43 0.63,-11.07 2,-12.51 4.04,-25.06 4.42,-37.74 1.27,-18.38 -1.86,-37.39 -11.06,-53.53 -1.47,-2.49 -3.04,-4.95 -3.94,-7.71 -1.57,-4.66 1.64,-9.32 0.37,-14.02 -0.41,-3.16 -3.79,-5.11 -3.73,-8.38 0.52,-9.49 1.65,-18.94 2.4,-28.41 0.42,-2.09 0.12,-4.76 1.95,-6.23 4.11,-3.37 6.88,-7.98 10.48,-11.84 0.95,23.64 -0.49,47.34 1.08,70.95 2.35,31.89 11.11,63.98 29.52,90.46 13.16,19.27 31.28,34.89 51.68,46.1 4.04,1.97 7.36,-1.74 10.63,-3.51 27.36,-15.9 48.87,-41.09 61.07,-70.22 11.63,-26.96 15.46,-56.62 15.21,-85.79 -0.26,-39.17 0.65,-78.33 -0.01,-117.49 -22.44,-0.02 -44.87,0.05 -67.31,-0.04 1.84,-5.99 2.38,-12.45 5.33,-18.05 2.52,-5.07 9.26,-6.7 10.53,-12.52 0.93,-4.74 1.17,-11.23 -3.84,-13.81 -4.57,-1.89 -9.6,-2.21 -14.3,-3.7 0.26,-6.8 0.22,-13.6 0.05,-20.39 -0.15,-5.21 5.65,-7.97 5.88,-13.07 0.65,-3.41 -1.04,-6.55 -3.3,-8.95 1.19,-5.62 2.32,-11.52 0.79,-17.19 -1.89,-8.64 -9.11,-16.19 -17.98,-17.55 -2.61,-0.63 -5.71,-0.39 -7.7,-2.49 -2.98,-2.78 -5.93,-6.69 -10.5,-6.28 -3.74,0.34 -7.75,0.96 -10.7,-1.94 0.04,-3.68 1.33,-8.16 -1.6,-11.09 -2.95,-3.09 -7.98,-1.13 -11.13,-3.87 -3.53,-2.9 -6.85,-6.15 -11.05,-8.08 -5.13,-3 -11.13,-3.76 -16.94,-4.28 -0.45,-1.57 -0.26,-3.78 -1.99,-4.56 -3.32,-1.71 -6.9,-2.92 -9.92,-5.16 -6.94,-4.62 -11.26,-12.21 -13.91,-19.93 -1.78,-4.17 2.64,-7.45 2.6,-11.56 0.5,-4.21 -2.84,-7.25 -5.54,-9.91 -0.08,-4.2 0.24,-8.43 -0.35,-12.6 -0.76,-3.65 -2.48,-7.07 -4.65,-10.08 -9.14,-11.46 -18.65,-22.87 -30.47,-31.69 -2.48,-2.07 -6.12,-2.03 -8.7,-0.15 -6.64,4.6 -12.36,10.38 -18.55,15.54 -1.22,1.33 -2.98,0.46 -4.38,0.04 -6.89,-2.71 -15.73,1.19 -18.21,8.19 -1.47,4.09 1.06,8.57 -0.78,12.59 -2.45,5.16 -2.15,11.05 -3.48,16.51 -0.9,6.34 -3.87,12.21 -4.5,18.58 -0.65,4.88 2.86,8.73 6.04,11.91 -2.52,4.31 -5.02,8.68 -8.21,12.55 -4.6,5.41 -10.88,9.28 -17.68,11.28 -6.33,1.84 -12.9,2.6 -19.32,4.07 0.13,1.28 0.27,2.57 0.41,3.87 -10.78,5.04 -17.42,16.02 -19.82,27.33 -1.06,5.01 -0.89,10.18 -1.86,15.19 -0.55,3.03 -4.16,3.79 -5.56,6.25 -1.89,4.36 0.54,8.99 0.1,13.48 -0.61,2.04 -1.87,3.8 -2.89,5.65 -6.93,-0.35 -14.41,-0.34 -20.25,-4.64 4.18,-6.15 7.55,-12.93 9.22,-20.19 -4.64,-2.55 -9.38,-6.11 -14.98,-5.41 -3.89,-0.29 -7.65,3.29 -11.37,0.94 -4.51,-2.81 -3.36,-8.81 -5.81,-12.93 -2.85,-6.51 -9.77,-9.61 -16.37,-10.86 -2.03,-7.76 -2.22,-15.85 -3.67,-23.73 -0.94,-7.57 -2.9,-15.06 -2.91,-22.72 0,-6.8 3.02,-13.21 2.71,-20.02 -0.3,-4.79 -1.33,-9.56 -3.36,-13.92 -8.05,-17.97 -17.7,-35.22 -28.52,-51.66 -1.09,-1.71 -2.45,-3.22 -3.85,-4.66 -1.39,3.6 -1.46,7.5 -1.98,11.28 m 150.63,778.23 c -4.52,1.7 -7.65,5.63 -10.14,9.59 2.87,1.86 5.79,3.63 8.8,5.28 2.21,-2.85 4.82,-6.9 8.98,-6.22 3.71,0.47 5.4,5.28 3.18,8.19 -5.38,8.37 -13.87,14.12 -19.72,22.14 -0.31,2.72 -0.1,5.48 -0.08,8.24 10.95,-0.05 21.92,0 32.88,-0.03 0,-3.35 0,-6.69 0,-10.02 -5.84,-0.02 -11.69,0.03 -17.53,-0.04 4.94,-5.03 10.15,-9.92 13.96,-15.9 3.9,-6.12 2.66,-15.5 -3.66,-19.53 -4.78,-3.46 -11.24,-3.51 -16.67,-1.7 m 37.04,3.08 c -5.97,6.17 -7.17,15.36 -6.62,23.58 0.45,6.47 2.41,13.45 7.66,17.67 5.7,4.1 13.6,4.33 20.01,1.89 5.06,-1.94 7.35,-7.03 9.71,-11.48 1.06,-7.82 1.77,-16 -0.67,-23.64 -1.78,-5.53 -6.17,-10.47 -12.02,-11.65 -6.09,-1.32 -13.28,-0.72 -18.07,3.63 m 52.22,-3.64 c -6.31,1.27 -10.73,6.85 -12.27,12.86 -2.06,7.47 -1.86,15.56 0.23,23 1.85,5.96 6.85,11.26 13.23,12.11 5.78,0.83 12.51,0.32 16.87,-4.03 5.09,-4.71 6.56,-12.02 6.74,-18.67 0.3,-7.01 -0.94,-14.45 -5.28,-20.14 -4.62,-5.69 -12.76,-6.66 -19.52,-5.13 m 33.44,0.47 c 0.02,7.84 -0.05,15.69 0.04,23.54 1.35,1.55 2.65,3.15 3.99,4.74 3.57,-1.48 7.54,-3.9 11.47,-2.18 2.79,0.56 4.03,3.27 4.97,5.66 -1.04,2.42 -2.46,5.42 -5.43,5.76 -4.72,0.83 -8.58,-2.6 -11.97,-5.34 -1.92,2.91 -4.09,5.67 -5.81,8.72 6.93,7.47 19.69,9.65 27.9,3.08 7.81,-5.78 7.84,-19.62 -0.53,-24.91 -4.18,-3.05 -9.67,-3.17 -14.61,-2.57 0.04,-2.3 0.07,-4.6 0.13,-6.88 6.03,-0.08 12.06,-0.02 18.09,-0.05 -0.02,-3.2 -0.03,-6.39 0.02,-9.57 -9.42,-0.02 -18.84,0.03 -28.26,0 m -248.02,4.81 c -0.26,2.49 2.37,3.5 3.63,5.25 1.86,2.5 4.73,3.92 6.71,6.32 2.53,3.11 6.14,5.11 8.56,8.35 1.85,1.07 3.33,2.63 4.72,4.25 13.36,11.72 26.88,23.3 41.13,33.95 39.17,29.72 82.14,54.36 127.34,73.66 5.75,2.72 11.63,-0.52 16.8,-2.97 10.27,-4.54 20.45,-9.29 30.38,-14.55 36.28,-17.86 70.17,-40.23 101.98,-65.12 7.94,-6.63 15.92,-13.21 23.79,-19.94 1.03,-1.17 2.21,-2.19 3.49,-3.08 3.03,-2.74 5.75,-5.88 9.17,-8.14 2.39,-3.75 6.65,-5.56 9.25,-9.08 2.65,-3.17 5.83,-5.84 8.37,-9.1 -2.69,-1.29 -5.68,-1.77 -8.32,-3.14 -2.51,0.12 -5.44,-0.72 -7.55,1.02 -2.62,2.32 -4.73,5.17 -7.52,7.31 -2.71,2.02 -4.52,5.02 -7.4,6.85 -9.2,8.82 -19.06,16.92 -28.95,24.94 -27.66,22.35 -57.32,42.25 -88.56,59.26 -16.26,8.59 -32.66,17.12 -49.82,23.78 -16.41,-6.22 -32.05,-14.33 -47.57,-22.47 -34.89,-18.88 -67.97,-41.13 -98.44,-66.53 -11.63,-9.64 -22.63,-20 -33.65,-30.3 -1.93,-2 -4.41,-4.84 -7.51,-3.63 -3.35,0.99 -6.81,1.71 -10.03,3.11 z"
         inkscape:connector-curvature="0"
         style="opacity:1;fill:#000000" />
      <path
         id="path4"
         d="m 638.46,191.83 c 7.7,0.33 15.69,-1 23.1,1.72 10.46,3.99 17.82,15.13 16.8,26.39 -0.55,10.48 -8.19,20.01 -18.09,23.26 -7.08,2.13 -14.57,0.8 -21.84,1.17 0.01,-17.51 -0.05,-35.03 0.03,-52.54 z"
         inkscape:connector-curvature="0"
         style="opacity:1;fill:#000000" />
      <path
         id="path6"
         d="m 579.61,353.61 c 4.4,-4.91 9.56,-9.01 14.56,-13.28 2.32,1.84 4.7,3.67 6.53,6.04 3.22,4.08 7.4,7.27 10.6,11.38 2.35,2.94 5.41,5.25 7.64,8.3 4.38,5.8 6.6,13.42 5.25,20.64 -8.81,0.9 -17.67,0.52 -26.5,0.6 -1.75,-4 -4.72,-7.68 -9.01,-9.03 -7.19,-2.18 -14.81,-1.44 -22.2,-2.11 1.34,-8.9 6.65,-16.54 13.13,-22.54 z"
         inkscape:connector-curvature="0"
         style="opacity:1;fill:#000000" />
      <path
         id="path8"
         d="m 374.81,350.12 c 5.85,9.61 9.79,20.22 14.84,30.25 3.34,6.66 6.52,13.91 5.56,21.56 -2.34,16.14 1.8,32.15 3.89,48.07 0.37,4.08 1.81,8.13 1.35,12.24 -2.57,2.62 -7.29,4.49 -10.51,1.86 -0.97,-1.46 -1.11,-3.27 -1.47,-4.93 -2.18,-12.45 -4.7,-24.85 -6.8,-37.31 -0.82,-4.9 -3.21,-9.36 -6.21,-13.26 -4.67,-6.48 -5.24,-14.94 -4.23,-22.62 0.99,-11.97 1.78,-23.97 3.58,-35.86 z"
         inkscape:connector-curvature="0"
         style="opacity:1;fill:#000000" />
      <path
         id="path10"
         d="m 553.33,356.38 c 1.08,-2.23 3.52,-3.07 5.68,-3.87 2.57,0.88 5.81,2.36 5.89,5.52 -0.9,3.49 -3.17,6.48 -3.84,10.06 -2.38,10.89 -4.75,21.79 -7.27,32.65 -0.45,2.29 -1.67,4.31 -3.48,5.78 -1.77,-0.92 -3.85,-2.21 -3.49,-4.55 2.37,-11.31 5.68,-22.44 7.34,-33.9 0.98,-4.02 -3.35,-7.88 -0.83,-11.69 z"
         inkscape:connector-curvature="0"
         style="opacity:1;fill:#000000" />
      <path
         id="path12"
         d="m 572.65,383.38 c 4.81,-0.49 9.88,0.37 14.02,2.96 2.9,1.81 4.15,5.41 4.1,8.7 -0.43,6.48 -2.08,12.8 -3.75,19.06 -2.18,6.91 -9.28,10.77 -16,12.06 -3.2,0.82 -7.25,-0.52 -8.26,-3.92 -0.56,-2.9 -0.21,-5.89 -0.27,-8.82 3.49,-1.03 8.64,0.89 10.37,-3.32 -1.97,-0.69 -3.93,-1.37 -5.9,-2.04 1.48,-0.91 3.1,-1.68 4.33,-2.94 0.82,-3.24 -1.31,-6.23 -2.14,-9.26 -1.61,0.81 -3.78,1.18 -4.54,3.04 -0.03,1.25 -0.01,2.5 0.08,3.76 -2.37,0.41 -5.84,2.5 -7.18,-0.62 -0.21,-2.32 1.65,-3.98 2.71,-5.83 2.46,-3.48 2.77,-7.87 4.37,-11.72 0.94,-1.54 2.65,-1.03 3.82,-0.06 0.87,2.29 1.15,4.74 1.6,7.14 3.63,-0.4 7.23,-1.04 10.84,-1.59 -0.18,-0.58 -0.54,-1.74 -0.72,-2.32 -2.53,-1.35 -6.4,-1.17 -7.48,-4.28 z"
         inkscape:connector-curvature="0"
         style="opacity:1;fill:#000000" />
      <path
         id="path14"
         d="m 598.21,394.42 c 7.87,-1.15 15.83,-1.51 23.77,-1.69 3.35,-0.37 6.22,4.1 3.84,6.77 -2.18,0.84 -4.56,0.74 -6.84,0.83 -6.96,0 -13.91,-0.01 -20.87,-0.01 0.02,-1.97 0.05,-3.93 0.1,-5.9 z"
         inkscape:connector-curvature="0"
         style="opacity:1;fill:#000000" />
      <path
         id="path16"
         d="m 597.15,407.4 c 8.96,-0.96 17.99,-1.27 26.98,-1.62 0.32,0.23 0.96,0.68 1.29,0.91 1.98,7.64 3.37,15.93 8.83,22.03 4,4.09 8.6,7.53 12.8,11.41 -2.45,4.97 -5.3,9.76 -7.17,15.01 -3.48,9.32 -12.07,16.33 -21.86,18.04 -12.53,2.19 -25.27,2.9 -37.96,3.44 -11.78,0.29 -23.67,-0.34 -35.15,-3.14 -6.79,-1.63 -12.83,-5.97 -16.54,-11.89 -2.87,-4.62 -5.52,-9.38 -8.32,-14.04 9.03,-2 17.81,-6.34 23.83,-13.52 5.48,-6.19 8.47,-14 11.33,-21.63 1.76,5.64 -0.36,12.72 4.15,17.28 5.8,4.91 13.83,1.65 20.54,1.11 -1.39,2.81 -2.73,5.86 -5.38,7.73 -1.78,1.64 -4.58,2.58 -5,5.28 7.68,-1.43 13.55,-7.22 18,-13.27 4.78,-6.92 8.25,-14.81 9.63,-23.13 z"
         inkscape:connector-curvature="0"
         style="opacity:1;fill:#000000" />
      <path
         id="path18"
         d="m 657.01,447.93 c 2.08,-2.01 5.23,-2.13 7.84,-1.2 5.85,1.5 11.06,4.88 15.15,9.28 3.48,3.56 8.47,4.37 13.18,4.96 -1.45,5.27 -5.69,9.11 -9.46,12.81 -6.48,5.47 -14.22,9.61 -22.51,11.49 -10.65,2.36 -21.54,-1.1 -31.11,-5.67 4.77,-1.6 9.23,-4.22 12.56,-8.05 6.63,-6.7 7.29,-17.24 14.35,-23.62 z"
         inkscape:connector-curvature="0"
         style="opacity:1;fill:#000000" />
      <path
         id="path20"
         d="m 486.58,483.18 c 1.07,-12.7 8.29,-26.33 21.29,-30 3.35,4.26 7.23,8.15 9.98,12.87 2.75,4.61 6.09,8.95 10.49,12.12 -4.89,7.45 -11.72,13.67 -19.92,17.29 -8.07,3.53 -16.69,5.97 -25.48,6.78 -0.74,-0.19 -2.22,-0.58 -2.96,-0.77 0.35,-0.73 0.72,-1.45 1.1,-2.16 5.87,-3.1 4.85,-10.58 5.5,-16.13 z"
         inkscape:connector-curvature="0"
         style="opacity:1;fill:#000000" />
      <path
         id="path22"
         d="m 394.24,474.26 c 4.68,-1.38 9.12,-3.58 13.92,-4.51 5.76,0.01 10.64,4.19 12.77,9.34 2.02,4.08 1.13,9.18 4.12,12.83 2.94,3.8 8.45,4.52 12.75,2.89 2.35,-0.78 4.45,-2.3 6.93,-2.66 1.32,0.51 2.12,1.71 2.98,2.78 -8.93,11.06 -17.66,22.34 -27.11,32.95 -0.23,0 -0.68,0 -0.91,-0.01 -1.26,-6.95 -2.5,-13.91 -3.73,-20.87 -0.96,-4.03 0.56,-8.16 -0.46,-12.16 -2.77,-1.12 -5.78,-2.25 -7.57,-4.78 -2.57,-3.57 -2.92,-8.11 -3.28,-12.35 -3.77,-0.04 -8.25,0.36 -10.41,-3.45 z"
         inkscape:connector-curvature="0"
         style="opacity:1;fill:#000000" />
      <path
         id="path24"
         d="m 681.44,484.45 c 5.77,-2.98 10.41,-7.59 15.41,-11.63 2,1.35 4,2.7 6.01,4.06 -3.57,5.44 -6.51,11.52 -6.84,18.13 -0.06,3.08 -1.16,7.3 -4.93,7.44 -9.11,-0.03 -17.5,-5.31 -23.44,-11.92 4.64,-1.91 9.36,-3.69 13.79,-6.08 z"
         inkscape:connector-curvature="0"
         style="opacity:1;fill:#000000" />
      <path
         id="path26"
         d="m 705.58,495 c 0.19,-6.93 3.28,-13.45 7.65,-18.73 1.69,1.98 3.12,4.63 5.91,5.19 4.98,1.06 10.32,1.69 14.61,4.69 5.59,3.64 7.79,11.32 5.62,17.52 -1.35,3.65 -1.89,7.75 -0.44,11.47 0.7,1.35 0.8,3.2 -0.93,3.79 -4.69,1.94 -9.92,2.92 -15,2.45 -6.05,-0.53 -10.98,-5.05 -17.07,-5.29 -3.51,-0.15 -4.7,4.44 -8.1,4.58 -3.21,0.06 -6.84,-2.19 -6.89,-5.69 -0.15,-1.69 1.13,-2.95 1.95,-4.27 3.47,-0.07 7.55,0.01 10.08,-2.81 2.95,-3.61 2.28,-8.57 2.61,-12.9 z"
         inkscape:connector-curvature="0"
         style="opacity:1;fill:#000000" />
      <path
         id="path28"
         d="m 385.28,487.02 c 0.83,-4.34 5.66,-5.8 9.54,-5.31 0.52,3.94 2.69,7.38 3.22,11.31 0.4,3.1 2.26,5.84 2.3,9 -0.42,1.76 -2.02,2.9 -2.95,4.4 -1.62,1.86 -1.33,4.44 -1.58,6.72 -3.22,1.91 -5.58,-1.52 -6.78,-4.11 -3.19,-6.79 -4.74,-14.54 -3.75,-22.01 z"
         inkscape:connector-curvature="0"
         style="opacity:1;fill:#000000" />
      <path
         id="path30"
         d="m 528.47,491.55 c 1.71,-3.49 3.33,-7.08 5.85,-10.07 3.77,1.22 7.59,2.24 11.43,3.24 -7.24,15.72 -12.27,32.9 -11.32,50.35 0.41,13.4 4.7,26.48 11.33,38.06 -4.32,0.18 -10.29,3 -13.22,-1.64 -8.25,-12.15 -12.37,-26.89 -12.84,-41.51 -0.23,-13.28 3.05,-26.49 8.77,-38.43 z"
         inkscape:connector-curvature="0"
         style="opacity:1;fill:#000000" />
      <path
         id="path32"
         d="m 552.9,489.8 c 0.83,-1.85 1.67,-4.38 4.03,-4.62 13.03,0.24 26.1,1.29 39.14,0.43 7.68,0.03 15.38,-1.49 23.04,-0.26 8.73,1.05 16.92,4.38 25.23,7.08 -0.47,3.73 -0.97,7.49 -2.05,11.11 -1.47,5.98 -6.53,9.98 -9.65,15.07 -9.7,14.61 -17.33,30.49 -24.52,46.45 -1.55,3.55 -4.91,6.62 -8.97,6.54 -13.36,0.16 -26.71,0.82 -40.07,1.23 -1.82,0.16 -3.51,-0.83 -4.42,-2.36 -8.25,-12.02 -11.92,-26.88 -11.06,-41.37 0.53,-13.55 4.24,-26.79 9.3,-39.3 z"
         inkscape:connector-curvature="0"
         style="opacity:1;fill:#000000" />
      <path
         id="path34"
         d="m 653.85,497.82 c 2.34,-2.28 6.21,-1.02 8.35,0.97 5.83,5.19 13.11,8.26 19.93,11.89 0.23,5.05 -0.19,10.73 3.31,14.85 3.28,3.55 8.49,3.79 12.85,5.13 1.14,7.89 2.13,15.8 3.19,23.7 -2.49,0.84 -4.98,1.68 -7.47,2.5 1.17,9.99 3.54,19.8 4.9,29.77 -5.47,1.2 -11.39,2.71 -15.12,7.23 -2.22,2.26 -3.07,6.39 -6.84,6.53 -11.07,0.28 -22.15,0.03 -33.22,0.1 -0.22,2.71 -0.55,5.41 -1.03,8.09 -7.24,-11.91 -14.76,-23.8 -24.55,-33.82 -1.52,-1.26 -1.15,-3.4 -0.24,-4.89 7.86,-14.81 15.42,-29.79 23.33,-44.58 2.95,-5.58 8.75,-9.21 10.77,-15.36 1.73,-3.82 1.13,-8.1 1.84,-12.11 z"
         inkscape:connector-curvature="0"
         style="opacity:1;fill:#000000" />
      <path
         id="path36"
         d="m 492.97,507.31 c 8.31,-0.47 15.97,-4.01 23.34,-7.58 -1.11,7.5 -2.93,14.87 -4.21,22.34 -0.21,1.53 -0.83,2.98 -1.83,4.17 -3.55,4.55 -7.22,9 -10.83,13.5 -2.87,-4.81 -7.54,-8.47 -12.88,-10.12 -3.09,-1.16 -6.72,-1.64 -8.99,-4.26 -1.6,-1.49 -2.07,-4 -0.93,-5.9 3.49,-5.98 8.93,-11.84 16.33,-12.15 z"
         inkscape:connector-curvature="0"
         style="opacity:1;fill:#000000" />
      <path
         id="path38"
         d="m 402.74,515.02 c 0.46,-3.07 2,-5.8 4.41,-7.78 4.22,21.21 7.44,42.62 11.18,63.92 15.84,92.89 31.49,185.8 47.4,278.68 0.76,5.81 2.8,11.9 0.71,17.67 -2.4,4.43 -8.49,0.74 -8.6,-3.31 C 438.23,750.5 419.1,636.72 399.6,523 c -0.63,-3.16 2.79,-5.01 3.14,-7.98 z"
         inkscape:connector-curvature="0"
         style="opacity:1;fill:#000000" />
      <path
         id="path40"
         d="m 426.75,536.29 c 5,-6.57 10.73,-12.57 16.32,-18.65 3.01,0.93 5.87,2.27 8.74,3.58 -0.74,4.95 -0.86,10.04 0.67,14.87 -2.41,2.04 -5.09,3.99 -6.53,6.9 -1.17,2.25 -2.16,4.59 -3.48,6.77 -5.5,-4.2 -9.78,-9.81 -15.72,-13.47 z"
         inkscape:connector-curvature="0"
         style="opacity:1;fill:#000000" />
      <path
         id="path42"
         d="m 458.95,523.81 c 2.44,-1.12 5.55,-1.62 7.65,0.49 3.19,2.41 3.05,7.61 6.99,9.15 4.35,1.66 9.16,2.22 13.13,4.81 4.44,3.01 8.27,7.07 10.3,12.09 -2.65,0.87 -5.41,1.5 -7.91,2.79 -2.56,1.3 -3.13,4.34 -4.31,6.7 -2.96,7.08 -11.52,10.86 -18.82,9.4 -4.48,-0.81 -5.65,-6.05 -9.56,-7.75 -2.96,-1.75 -6.56,-1.65 -9.57,-3.26 1.33,-4.74 3.13,-9.42 5.97,-13.46 2.02,-2.79 5.48,-4.93 5.61,-8.72 -0.08,-4.13 -2.61,-8.59 0.52,-12.24 z"
         inkscape:connector-curvature="0"
         style="opacity:1;fill:#000000" />
      <path
         id="path44"
         d="m 707.88,537.18 c -0.62,-3.85 -2.5,-7.78 -1.14,-11.68 4.48,0.79 8.67,2.73 13.17,3.47 5.4,1.1 10.92,1.42 16.43,1.24 0.09,7.18 -0.69,14.35 -0.51,21.54 -8.03,0.69 -16.11,0.58 -24.14,1.27 -2.16,-5.02 -2.5,-10.58 -3.81,-15.84 z"
         inkscape:connector-curvature="0"
         style="opacity:1;fill:#000000" />
      <path
         id="path46"
         d="m 506.57,546.5 c 0.73,-1.55 2.3,-2.42 3.57,-3.48 2.16,8.57 5.46,16.78 9.03,24.84 1.19,2.67 2.68,5.24 3.32,8.12 -1.04,3.17 -3.16,5.84 -4.65,8.81 -5.91,11.27 -10.38,23.22 -14.92,35.09 -5.03,12.83 -10.97,25.97 -10.43,40.06 -0.05,4.61 2.39,8.66 4.47,12.61 -4.13,8.62 -8.6,17.05 -12.99,25.53 -2.43,-0.89 -4.83,-1.82 -7.22,-2.75 -1.59,3.71 -2.29,7.71 -2.09,11.74 0.29,4.52 -4.11,6.95 -6.68,9.97 -5.97,5.73 -7.23,15.21 -3.79,22.6 1.52,3.89 5.55,6.84 5.15,11.38 -0.08,3.8 0.37,7.59 1.21,11.3 1.92,0.61 4.44,0.48 5.69,2.36 1.89,3.18 2.2,6.97 3.17,10.48 4.88,18.63 9.61,37.31 14.57,55.92 1.06,4.22 2.34,8.4 3.01,12.72 -2.9,2.19 -6.44,3.94 -8.09,7.36 -1.58,2.77 -0.26,6.27 -1.71,9.03 -2.63,1.57 -5.63,2.41 -8.43,3.6 -8.36,-43.52 -15.7,-87.23 -23.34,-130.87 -7.97,-45.26 -15.73,-90.54 -23.4,-135.84 -2.9,-17.78 -6.07,-35.52 -8.62,-53.35 4.93,4.35 9.79,8.94 13.57,14.35 1,3.11 1.26,6.4 2.16,9.54 3.76,0.97 7.75,0.78 11.45,1.96 2.57,1.64 4.33,4.3 7.02,5.8 9.05,5.22 21.36,4.27 29.44,-2.4 4.46,-3.6 6.02,-9.92 11.31,-12.61 2.62,-1.53 6.3,-1.56 7.97,-4.44 1.03,-3.13 -1.6,-6.51 0.25,-9.43 z"
         inkscape:connector-curvature="0"
         style="opacity:1;fill:#000000" />
      <path
         id="path48"
         d="m 704.31,564.38 c 8.09,-2.48 16.49,-0.93 24.77,-1.12 6.98,-0.04 13.95,0.53 20.93,0.54 1.59,0.29 4.62,0.86 3.72,3.12 -4.22,4.36 -10.74,6.86 -12.6,13.15 -2.26,8.42 -2.3,17.59 -6.64,25.38 -5.73,1.29 -11.79,-0.23 -17.38,1.94 -0.59,3.86 -0.67,7.86 -2.07,11.56 -0.98,0.95 -2.5,0.96 -3.71,1.45 -0.74,0.68 -1.46,1.37 -2.17,2.07 -2.88,-0.73 -5.56,0.36 -8.23,1.26 -2.58,-1.47 -5.37,-2.29 -8.29,-1.26 -3.7,-3.6 -4.14,-9.45 -4.19,-14.33 -0.11,-6.35 6.69,-8.78 11.31,-11.34 8.35,-4.35 17.57,-0.52 26.31,-0.47 2.74,0.22 3.48,-2.82 4.71,-4.6 -6.24,-5.07 -14.69,-3.98 -22.16,-4.47 -1.64,-7.58 -2.91,-15.24 -4.31,-22.88 z"
         inkscape:connector-curvature="0"
         style="opacity:1;fill:#000000" />
      <path
         id="path50"
         d="m 533.01,582.06 c 23.26,-2.56 46.69,-1.2 70.04,-1.58 2.52,0.12 5.86,-0.61 7.42,1.97 5.35,7.6 11.41,14.7 16.42,22.53 -16.82,8 -35.29,12.57 -53.92,13.07 -19.03,0.45 -37.97,-3.35 -55.95,-9.43 3.11,-6.98 6.79,-13.69 10.03,-20.61 1.27,-2.52 2.63,-5.9 5.96,-5.95 z"
         inkscape:connector-curvature="0"
         style="opacity:1;fill:#000000" />
      <path
         id="path52"
         d="m 611.57,619.32 c 6.48,-2.46 12.9,-5.11 19.2,-8.01 2.65,5.14 5.08,10.4 7.71,15.56 -4.76,4.43 -10.54,7.51 -16.43,10.13 -10.62,4.47 -21.68,7.88 -32.97,10.16 -9.96,2.1 -20.22,3.5 -30.4,2.3 -2.74,-5.56 -4.15,-11.94 -8.38,-16.63 -5.54,-4.77 -14.32,-4.61 -20.33,-0.79 -3.75,2.36 -5.24,6.73 -7.48,10.32 -5.63,-0.57 -10.5,-3.64 -14.76,-7.14 2.48,-6.4 4.38,-13.01 6.83,-19.41 3.95,1.85 7.75,4.03 11.9,5.46 9.43,3.29 19.5,4.05 29.41,4.66 18.74,0.86 37.78,-0.84 55.7,-6.61 z"
         inkscape:connector-curvature="0"
         style="opacity:1;fill:#000000" />
      <path
         id="path54"
         d="m 659.08,614.22 c 6.76,0.1 13.51,0 20.27,0.07 1.01,4.38 1.39,9.34 4.68,12.74 3,3.58 8.01,3.74 12.19,4.95 4.2,1.58 8.45,-0.66 12.74,-0.31 4.17,0.45 7.9,-2.11 10.48,-5.14 2.79,-3.5 3.45,-8.01 4.13,-12.28 26.18,0.01 52.36,0.01 78.54,0 0.79,9.23 0.47,18.5 0.52,27.76 0,19.33 0,38.67 0,58 -0.08,17.93 0.59,35.94 -1.92,53.75 -4.03,27.26 -13.78,54.16 -31.05,75.9 -10.79,13.21 -23.46,25.46 -38.77,33.21 -5.98,-2.06 -10.79,-6.3 -15.75,-10.05 -19.42,-15.34 -33.84,-36.45 -42.74,-59.43 -7.12,-17.82 -11.11,-36.77 -13.17,-55.81 -1.93,-16.46 -0.91,-33.05 -1.16,-49.57 -0.2,-17.02 0.59,-34.03 0.45,-51.04 0.1,-7.59 -0.36,-15.2 0.56,-22.75 m 65.33,27.66 c 0.05,7.47 0.01,14.94 0.02,22.41 -5.19,0.01 -10.37,0.03 -15.55,-0.01 -0.22,1.88 -0.43,3.78 -0.45,5.69 -0.04,38.7 0.03,77.39 -0.04,116.09 0.39,3.63 -3.97,3.34 -6.41,3.41 -1.98,-0.22 -4.58,0.21 -5.81,-1.73 -0.57,-2.89 -0.34,-5.84 -0.37,-8.75 0.09,-24.65 -0.06,-49.3 0.01,-73.95 -0.19,-16.52 0.36,-33.07 -0.29,-49.58 -3.78,-0.03 -7.55,-0.04 -11.31,0.18 -1.03,24.43 -0.29,48.91 -0.52,73.36 0.24,24.05 -0.59,48.13 0.72,72.16 31.04,0.57 62.14,0.91 93.15,-0.46 0.68,-7.55 0.31,-15.14 0.39,-22.7 0.51,-25.99 0.36,-52 0.01,-77.99 0.07,-14.7 0.03,-29.4 -0.5,-44.09 -4.06,0 -8.11,0 -12.16,0.01 0.02,30.36 0.07,60.72 0.01,91.08 -0.18,13.95 0.38,27.93 -0.37,41.87 -3.89,0.22 -7.78,0.21 -11.66,0.06 -0.11,-41.39 -0.02,-82.78 -0.05,-124.16 -5.32,-0.68 -10.7,-0.25 -16.01,-0.84 0.14,-7.58 -0.25,-15.14 -0.48,-22.7 -4.12,-0.27 -8.32,-0.59 -12.33,0.64 z"
         inkscape:connector-curvature="0"
         style="opacity:1;fill:#000000" />
      <path
         id="path56"
         d="m 560.55,657.78 c 28.46,0.91 56.55,-8 80.7,-22.75 2.39,3.75 4.19,7.87 5.37,12.16 -0.65,3.88 -4.81,5.65 -7.64,7.81 -11.94,6.97 -24.54,12.91 -37.68,17.25 -11.65,3.56 -23.58,6.27 -35.57,8.38 -3.08,-7.21 -3.18,-15.31 -5.18,-22.85 z"
         inkscape:connector-curvature="0"
         style="opacity:1;fill:#000000" />
      <path
         id="path58"
         d="m 536.27,639.28 c 4.13,-2.62 9.04,0.67 10.88,4.54 3.03,6.88 4.94,14.19 7.24,21.34 -6.18,1.02 -12.43,0.09 -18.49,-1.18 -3.93,-0.89 -7.92,-2.04 -11.19,-4.48 1.75,-7.58 4.4,-16.09 11.56,-20.22 z"
         inkscape:connector-curvature="0"
         style="opacity:1;fill:#000000" />
      <path
         id="path60"
         d="m 503.61,660.54 c -1.05,-5.16 -0.04,-10.41 1.11,-15.46 5.01,2.15 9.99,4.36 15.02,6.47 -1.54,5.78 -2.6,11.68 -3.95,17.51 -0.34,1.9 -2.06,4.56 -4.3,3.4 -4.01,-2.75 -7.09,-7.06 -7.88,-11.92 z"
         inkscape:connector-curvature="0"
         style="opacity:1;fill:#000000" />
      <path
         id="path62"
         d="m 522.97,667.41 c 9.85,5.04 21.35,6.41 32.18,4.32 0.2,5.66 -1.65,13.49 4.77,16.47 -9.5,13.71 -21.58,25.39 -34.86,35.41 -2.02,-1.31 -3.96,-2.79 -6.24,-3.59 -3,-1.02 -6.41,0.61 -9.25,-0.87 -1.02,-3.55 2.63,-6.59 2.1,-10.2 0.08,-2.04 -2.16,-2.89 -3.72,-3.53 -5.23,-1.52 -10.59,-2.61 -15.79,-4.27 3.09,-8.2 7.94,-15.52 12.27,-23.08 4.18,1.32 7.97,4.11 12.48,4.18 1.88,0.06 3.37,-1.56 3.66,-3.32 0.87,-3.83 1.4,-7.72 2.4,-11.52 z"
         inkscape:connector-curvature="0"
         style="opacity:1;fill:#000000" />
      <path
         id="path64"
         d="m 570.51,688.11 c 19.04,-0.74 36.63,-8.74 54.26,-15.13 -1.5,14.14 -2.3,28.36 -3.87,42.5 -4,0.97 -7.84,2.59 -11.9,3.29 -4.7,-0.56 -4.63,-6.58 -7.5,-9.18 -6.37,-2.46 -12.12,3.59 -18.45,3.04 -3.46,-1.65 -5.81,-5.17 -7.15,-8.65 -1.61,-5.36 -3.71,-10.54 -5.39,-15.87 z"
         inkscape:connector-curvature="0"
         style="opacity:1;fill:#000000" />
      <path
         id="path66"
         d="m 721.25,676.88 c 6.35,-0.3 12.69,-0.08 19.04,0 0.88,5.31 0.57,10.71 0.61,16.07 -0.01,30.7 0.01,61.41 -0.01,92.11 -0.14,1.37 0.02,3.74 -1.84,3.96 -5.89,0.92 -11.89,0.45 -17.79,-0.11 -0.91,-20.63 -0.37,-41.31 -0.97,-61.96 0.24,-11.65 0.2,-23.31 0.47,-34.97 0.06,-5.03 -0.3,-10.1 0.49,-15.1 z"
         inkscape:connector-curvature="0"
         style="opacity:1;fill:#000000" />
      <path
         id="path68"
         d="m 483,709.14 c 3.94,0.82 7.82,1.91 11.81,2.52 1.63,0.27 3.44,0.51 4.6,1.85 2.86,5.36 -0.46,13.24 5.21,17.13 3.7,0.16 7.67,-2.54 11.05,-0.2 4.09,3.29 2.72,11.37 -2.82,12.18 -4.2,-0.7 -9.06,-2.38 -12.88,0.4 -3.35,2.08 -4.47,6.1 -5.6,9.63 -5.22,1.46 -10.71,1.77 -16.05,0.9 0.08,-3.03 0.97,-6.39 -0.8,-9.12 -2.03,-3.25 -5.28,-5.75 -6.37,-9.55 -1.61,-3.87 -0.15,-8.26 2.33,-11.39 2.21,-3.17 5.94,-4.78 8.28,-7.83 1.44,-1.86 0.98,-4.36 1.24,-6.52 z"
         inkscape:connector-curvature="0"
         style="opacity:1;fill:#000000" />
      <path
         id="path70"
         d="m 579.47,721.87 c 5.14,-1.03 10.19,-2.66 15.39,-3.27 2.28,1.9 3.3,5.01 5.95,6.53 3.3,2.29 7.52,2.23 11.36,1.89 3.08,-0.49 5.43,-4.55 8.76,-2.86 2.81,0.99 4.89,4.87 2.88,7.5 -2.95,5.01 -10.37,0.93 -13.61,5.53 -3.22,5.03 -3.45,11.27 -4.12,17.05 -3.8,1.16 -7.54,2.49 -11.37,3.55 -0.66,-2.51 -0.88,-5.71 -3.75,-6.7 -4.47,-1.97 -8.97,-5.09 -10.13,-10.14 -2.01,-4.9 3.1,-9.09 2.11,-13.98 -0.46,-2.09 -2.17,-3.53 -3.47,-5.1 z"
         inkscape:connector-curvature="0"
         style="opacity:1;fill:#000000" />
      <path
         id="path72"
         d="m 617.44,744.44 c 1.41,-1.85 4.55,-3.72 6.16,-1.03 8.74,13.39 16.01,28.49 16.44,44.78 0.69,17.33 -2.64,34.49 -4.78,51.63 -0.78,5.05 -1.32,10.16 -0.66,15.27 0.49,2.2 -1.26,3.79 -2.82,4.99 -1.47,-3.84 -3.47,-7.5 -6.23,-10.55 -3.5,-3.59 -8.1,-5.82 -12.72,-7.57 0.47,-12.39 -1.14,-24.73 -3.9,-36.79 -2.83,-12.78 -5.64,-25.55 -8.18,-38.39 3.23,-3.64 7.99,-4.54 12.55,-5.31 2.45,-5.42 0.23,-12.19 4.14,-17.03 z"
         inkscape:connector-curvature="0"
         style="opacity:1;fill:#000000" />
      <path
         id="path74"
         d="m 506.97,750.36 c 3.55,-0.58 8.2,-1.42 10.46,2.22 9.48,14.09 12.63,31.71 11.38,48.46 -0.19,15.33 -1.35,30.64 -1.11,45.98 -0.1,4.82 0.45,9.73 -0.74,14.47 -2.38,-3.22 -3.47,-7.24 -6.26,-10.16 -2.58,-2.92 -6.1,-4.79 -9.83,-5.76 -2.61,-0.55 -5,-2.42 -5.46,-5.15 -3.14,-13.78 -5.93,-27.63 -9.32,-41.35 -2.42,-12.41 -6.82,-24.31 -10.01,-36.52 4.47,-0.54 9.1,-0.54 13.4,-2.07 4.59,-1.39 4.5,-7.08 7.49,-10.12 z"
         inkscape:connector-curvature="0"
         style="opacity:1;fill:#000000" />
      <path
         id="path76"
         d="m 599.44,853.63 c 3.02,-3.74 8.37,-6.33 13.07,-4.27 10.07,3.64 15.08,15.4 14,25.52 -0.35,4.3 -4.64,6.72 -8.55,7.07 -0.34,-5.55 0.49,-11.52 -2.16,-16.63 -3.59,-6.03 -10.35,-8.76 -16.36,-11.69 z"
         inkscape:connector-curvature="0"
         style="opacity:1;fill:#000000" />
      <path
         id="path78"
         d="m 494.28,856.9 c 1.85,-4.12 6.55,-5.7 10.72,-6.13 6.92,-0.05 13.82,4.64 15.75,11.4 1.67,4.92 2.68,10.63 -0.18,15.33 -0.86,1.68 -2.87,2.01 -4.41,2.77 -2.85,-4.4 -1.69,-10.24 -4.97,-14.48 -3.03,-4.9 -9.1,-5.69 -14.33,-6.14 -0.87,-0.93 -1.73,-1.84 -2.58,-2.75 z"
         inkscape:connector-curvature="0"
         style="opacity:1;fill:#000000" />
      <path
         id="path80"
         d="m 587.04,870.04 c 5.01,-2.28 9.12,-6.03 13.82,-8.83 6.23,2.9 11.91,10.16 8.59,17.18 -10.17,2.43 -19.73,8.05 -30.45,7.55 -3.53,0.12 -6.68,-1.73 -10.11,-2.15 -4.61,-0.9 -9.1,0.85 -13.52,1.85 3.23,-5.38 9.45,-7.01 14.8,-9.42 5.52,-2.37 11.65,-3.08 16.87,-6.18 z"
         inkscape:connector-curvature="0"
         style="opacity:1;fill:#000000" />
      <path
         id="path82"
         d="m 633.33,868.63 c 2.34,-2.21 4.7,-4.47 7.56,-6.01 1.37,3.79 3.07,8.63 -0.15,12.01 -1.51,2.44 -4.45,2 -6.84,1.61 -0.14,-2.55 -0.3,-5.09 -0.57,-7.61 z"
         inkscape:connector-curvature="0"
         style="opacity:1;fill:#000000" />
      <path
         id="path84"
         d="m 535.19,864.24 0.8,-0.07 c 0.72,3.49 0.94,7.3 -0.12,10.75 -1.37,3.1 -5.57,1.7 -8.19,1.62 0,-1.9 0.01,-3.79 0.02,-5.67 3.5,-0.95 6.12,-3.28 7.49,-6.63 z"
         inkscape:connector-curvature="0"
         style="opacity:1;fill:#000000" />
      <path
         id="path86"
         d="m 487.63,870.59 c 2.98,-1.73 5.67,-4.56 9.37,-4.43 5.79,0.1 10.57,5.06 11.44,10.62 -13.19,6.52 -28.51,8.78 -42.98,5.97 -5.49,-1.13 -10.97,-2.41 -16.21,-4.42 4.68,-1.8 9.78,-1.46 14.69,-1.93 8.13,-0.5 16.62,-1.41 23.69,-5.81 z"
         inkscape:connector-curvature="0"
         style="opacity:1;fill:#000000" />
      <path
         id="path88"
         d="m 536.94,939.46 c 32.28,-2.18 64.65,-2.05 96.96,-0.85 25.68,1.85 51.43,3.37 76.92,7.14 36.19,5.21 72.1,12.58 107.26,22.68 6.83,2.03 13.81,3.69 20.4,6.46 -0.03,3.94 -0.02,7.89 -0.04,11.85 -24.99,-7.13 -50.16,-13.6 -75.66,-18.63 -20.06,-3.98 -40.3,-6.92 -60.53,-9.88 -72.37,-9.78 -145.98,-9.13 -218.35,0.33 -30.51,4.02 -60.87,9.21 -90.8,16.42 -16.54,3.6 -32.74,8.55 -49.12,12.73 -0.35,-4.19 -0.78,-8.49 0.14,-12.63 1.69,-2.05 4.65,-2.11 6.99,-3.03 60.25,-18.73 123.05,-27.83 185.83,-32.59 z"
         inkscape:connector-curvature="0"
         style="opacity:1;fill:#000000" />
      <path
         id="path90"
         d="m 564.34,997.85 c 3.18,-0.28 6.37,-0.27 9.57,-0.24 0.11,7.88 -0.34,15.85 0.84,23.67 1.07,4.66 7.15,5.08 10.66,3.05 1.82,-1.5 2.26,-4.05 2.22,-6.27 0.03,-6.8 -0.11,-13.61 0.07,-20.4 3.17,-0.06 6.35,-0.06 9.53,-0.04 -0.01,5.78 0.02,11.57 0.01,17.36 -0.04,3.95 -0.61,8.08 -2.74,11.5 -6.12,9.34 -22.43,8.9 -27.75,-1.03 -2.74,-5.13 -1.73,-11.13 -2.2,-16.69 -0.32,-3.63 -0.29,-7.28 -0.21,-10.91 z"
         inkscape:connector-curvature="0"
         style="opacity:1;fill:#000000" />
      <path
         id="path92"
         d="m 604.07,1032.5 c -0.2,-11.64 0.31,-23.27 0.49,-34.9 5.46,-0.13 10.91,0.5 16.38,0.49 4.3,0.04 8.87,0.9 12.28,3.69 3.22,2.84 3.43,8.62 -0.14,11.26 -0.79,0.87 -2.3,1.46 -1.97,2.91 1.56,1.38 3.76,2.25 4.56,4.35 1.88,3.31 0.53,7.68 -2.19,10.1 -3.84,2.93 -8.91,2.72 -13.49,2.64 -5.31,0.07 -10.6,-0.56 -15.92,-0.54 m 9.68,-27.94 c -0.04,2.48 -0.05,4.97 -0.05,7.47 3.13,-0.02 6.28,0.14 9.42,-0.08 3.62,0.31 4.08,-6.02 0.79,-6.7 -3.36,-0.52 -6.77,-0.57 -10.16,-0.69 m -0.39,14 c -0.06,2.45 -0.11,4.9 -0.14,7.36 4.49,-0.03 9.1,1.27 13.45,-0.41 0.04,-2.01 1.27,-4.98 -1.15,-6.03 -3.79,-1.72 -8.14,-0.63 -12.16,-0.92 z"
         inkscape:connector-curvature="0"
         style="opacity:1;fill:#000000" />
      <path
         id="path94"
         d="m 534.02,999.44 c 3.07,-0.4 6.16,-0.52 9.26,-0.6 0.82,9.01 1.11,18.09 1.5,27.15 5.39,0.32 10.76,-0.83 16.15,-0.35 1.31,2.04 0.32,4.94 0.61,7.34 -8.52,-0.03 -17.01,1.02 -25.53,0.99 -0.36,-11.53 -1.67,-23 -1.99,-34.53 z"
         inkscape:connector-curvature="0"
         style="opacity:1;fill:#000000" />
      <path
         id="path96"
         d="m 519.5,1000.65 c 3.36,-0.78 6.85,-0.63 10.28,-1 -4.87,5.07 -8.82,10.94 -13.27,16.37 5.11,6.24 10.97,11.86 15.82,18.33 -3.16,0.37 -6.34,0.59 -9.51,0.91 -4.19,-3.78 -7.3,-8.61 -11.81,-12.05 -1.14,1.5 -2.27,3.01 -3.38,4.54 0.41,2.94 0.74,5.9 0.77,8.89 -3,0.11 -5.98,0.41 -8.96,0.69 -0.93,-11.54 -2.49,-23.02 -3.82,-34.51 3.18,-0.38 6.37,-0.73 9.56,-1.09 0.41,4.9 0.73,9.84 1.69,14.69 4.48,-5.03 8.08,-10.82 12.63,-15.77 z"
         inkscape:connector-curvature="0"
         style="opacity:1;fill:#000000" />
      <path
         id="path98"
         d="m 655.22,1000.27 c 3.09,0.19 6.28,0.09 9.28,1.01 4.36,11.81 7.99,23.88 11.72,35.9 -3,-0.38 -6,-0.66 -9.01,-0.92 -1.11,-2.35 -1.12,-5.42 -2.96,-7.26 -4.77,-0.42 -9.56,-0.65 -14.31,-1.17 -1.1,2.2 -2.2,4.4 -3.28,6.62 -2.98,-0.06 -5.94,-0.33 -8.9,-0.54 5.39,-11.43 11.31,-22.61 17.46,-33.64 m -1.99,20.95 c 3.17,0.25 6.34,0.55 9.53,0.69 -1.1,-4.19 -2.26,-8.37 -3.78,-12.41 -2.3,3.7 -4.19,7.65 -5.75,11.72 z"
         inkscape:connector-curvature="0"
         style="opacity:1;fill:#000000" />
      <path
         id="path100"
         d="m 686.14,1005.37 c 7.42,-3.69 16.18,-1.09 22.95,2.85 -1.08,2.21 -2.32,4.36 -3.56,6.5 -4.49,-3.05 -10.14,-4.78 -15.47,-2.93 0.03,1.36 0.08,2.72 0.13,4.1 4.44,2.38 9.56,3.35 13.71,6.27 3.39,2.31 5.06,7.06 2.99,10.8 -2.04,5.06 -7.9,7.15 -12.97,7.04 -5.68,-0.41 -11.15,-2.43 -15.98,-5.37 0.94,-2.32 2.2,-4.49 3.69,-6.48 4.67,3.55 10.91,5.54 16.68,3.76 0.01,-1.35 0.02,-2.69 0.05,-4.01 -5.16,-3.14 -12.01,-3.52 -16.01,-8.4 -3.86,-4.45 -1.24,-11.82 3.79,-14.13 z"
         inkscape:connector-curvature="0"
         style="opacity:1;fill:#000000" />
      <path
         id="path102"
         d="m 452.36,1008.47 c 5.18,-1.84 11.2,-1.64 16.07,1.05 7.72,3.84 11.51,14.13 8.07,22.05 -3.59,9.54 -15.56,14.55 -24.99,10.96 -6.73,-2.19 -11.4,-8.73 -12.05,-15.66 -0.83,-8.25 5.08,-16.12 12.9,-18.4 m 3.11,6.98 c -7.94,1.97 -8.4,13.27 -3.18,18.25 4.54,3.87 12.67,2.52 15.09,-3.15 1.71,-4.38 1.24,-10.26 -2.63,-13.38 -2.39,-2.55 -6.16,-1.96 -9.28,-1.72 z"
         inkscape:connector-curvature="0"
         style="opacity:1;fill:#000000" />
      <path
         id="path104"
         d="m 730.95,1009.64 c 6.4,1.47 13.07,1.88 19.3,4.08 5.16,1.7 9.84,6.51 9.43,12.27 -0.08,5.57 -4.33,10.12 -9.38,11.95 1.81,3.9 3.31,7.94 4.93,11.93 -3.01,-0.73 -6.04,-1.34 -9.07,-1.9 -1.7,-3.48 -3.14,-7.09 -4.69,-10.63 -1.92,-0.29 -3.84,-0.54 -5.74,-0.74 -0.52,3 -1.04,6.01 -1.62,9.02 -2.97,-0.55 -5.93,-1.1 -8.9,-1.59 1.76,-11.49 3.89,-22.92 5.74,-34.39 m 8.06,8.9 c -0.69,3.62 -1.41,7.24 -1.84,10.91 3.87,0.39 8.57,2.72 11.87,-0.36 1.53,-2.03 1.39,-5.27 0.15,-7.39 -2.81,-2.41 -6.77,-2.31 -10.18,-3.16 z"
         inkscape:connector-curvature="0"
         style="opacity:1;fill:#000000" />
      <path
         id="path106"
         d="m 408.48,1017.43 c 3.08,-0.81 6.2,-1.45 9.32,-2.14 1.75,8.94 3.43,17.9 5.49,26.78 5.43,-0.69 10.73,-2.04 16.09,-3.09 0.48,2.4 0.96,4.8 1.46,7.21 -8.38,1.61 -16.74,3.29 -25.06,5.11 -2.28,-11.32 -4.87,-22.58 -7.3,-33.87 z"
         inkscape:connector-curvature="0"
         style="opacity:1;fill:#000000" />
      <path
         id="path108"
         d="m 768.21,1016.98 c 2.98,0.74 5.98,1.42 8.97,2.15 -2.36,11.32 -5.14,22.55 -7.57,33.85 -2.91,-0.73 -5.83,-1.39 -8.77,-1.97 2.35,-11.37 4.62,-22.76 7.37,-34.03 z"
         inkscape:connector-curvature="0"
         style="opacity:1;fill:#000000" />
      <path
         id="path110"
         d="m 781.6,1020.23 c 10.21,2.26 20.32,4.99 30.41,7.76 -0.56,2.35 -1.19,4.7 -1.8,7.05 -3.47,-0.98 -6.93,-2.02 -10.45,-2.75 -2.64,8.72 -4.49,17.67 -6.99,26.44 -2.88,-0.81 -5.78,-1.55 -8.68,-2.28 1.97,-8.91 4.53,-17.69 6.37,-26.62 -3.47,-0.88 -6.94,-1.77 -10.41,-2.6 0.49,-2.34 0.98,-4.68 1.55,-7 z"
         inkscape:connector-curvature="0"
         style="opacity:1;fill:#000000" />
      <path
         id="path112"
         d="m 382.51,1022.87 c 5.03,-1.68 10.8,-1.45 15.42,1.3 8.57,4.54 11.86,16.85 6.29,24.92 -3.12,4.91 -8.4,8.13 -14.13,9 -11.44,2.66 -23.18,-8.52 -21.39,-20.06 0.96,-7.29 7.01,-13.03 13.81,-15.16 m 0.87,7.68 c -7.07,3.14 -6.94,13.94 -1.19,18.3 4.36,3.01 11.11,1.88 14,-2.65 2.66,-4.71 1.67,-11.31 -2.58,-14.77 -2.92,-2.18 -6.95,-2.14 -10.23,-0.88 z"
         inkscape:connector-curvature="0"
         style="opacity:1;fill:#000000" />
      <path
         id="path114"
         d="m 807.06,1062.6 c 3.28,-11.07 6.16,-22.24 9.3,-33.35 8.83,2.24 17.42,5.3 26.2,7.73 -0.55,2.3 -1.26,4.57 -2.05,6.82 -5.68,-1.77 -11.4,-3.41 -17.01,-5.38 -0.71,2.15 -1.32,4.32 -1.82,6.54 4.95,1.5 9.87,3.12 14.84,4.57 -0.67,2.11 -1.28,4.25 -1.9,6.39 -5.05,-1.27 -9.95,-3.04 -14.95,-4.47 -0.75,2.3 -1.35,4.66 -1.74,7.06 5.72,1.61 11.37,3.43 17.05,5.19 -0.64,2.22 -1.34,4.43 -2,6.65 -8.63,-2.63 -17.21,-5.4 -25.92,-7.75 z"
         inkscape:connector-curvature="0"
         style="opacity:1;fill:#000000" />
      <path
         id="path116"
         d="m 328.82,1039.19 c 7.1,-2.07 14.04,-4.73 21.27,-6.35 4.61,-1.28 10.71,1.16 11.51,6.29 1.02,3.03 -1.07,5.69 -2.6,8.09 2.08,0.79 4.37,1.26 6.2,2.61 2.22,2.46 3.78,6.32 2.04,9.47 -2.14,4.66 -7.41,6.4 -11.91,7.9 -5.42,1.51 -10.68,3.58 -16.16,4.82 -3.16,-11.03 -7,-21.86 -10.35,-32.83 m 11.25,3.18 c 0.18,2.44 0.85,4.81 1.57,7.16 4.04,-0.78 8.2,-1.69 11.49,-4.31 -0.19,-1.87 -0.04,-4.31 -2.15,-5.14 -3.78,-0.37 -7.32,1.39 -10.91,2.29 m 3.56,13.5 c 0.76,2.37 1.52,4.75 2.26,7.14 3.97,-0.83 8,-1.78 11.59,-3.73 1.9,-1.83 0.79,-4.59 -0.49,-6.4 -4.66,-0.22 -9.06,1.41 -13.36,2.99 z"
         inkscape:connector-curvature="0"
         style="opacity:1;fill:#000000" />
      <path
         id="path118"
         d="m 849.18,1039.4 c 5.67,1.63 11.27,3.57 16.82,5.62 5.76,2.25 11.3,8.23 9.52,14.84 -0.93,5.34 -5.66,9.04 -10.75,10.13 0.93,4.18 1.94,8.34 3.12,12.46 -3.05,-1.05 -6.06,-2.22 -9.07,-3.34 -1.15,-3.56 -1.72,-7.29 -3.05,-10.78 -1.6,-0.97 -3.44,-1.49 -5.14,-2.18 -1.38,2.9 -2.29,5.99 -3.36,9.01 -2.78,-1.01 -5.56,-1.99 -8.36,-2.92 3.13,-11.04 7.16,-21.81 10.27,-32.84 m 6.75,9.8 c -1,3.52 -2.39,6.92 -3.17,10.51 3.29,1.02 6.62,2.73 10.18,2.09 3.69,-0.93 4.4,-6.36 2.06,-8.91 -2.62,-2.05 -5.92,-2.89 -9.07,-3.69 z"
         inkscape:connector-curvature="0"
         style="opacity:1;fill:#000000" />
      <path
         id="path120"
         d="m 295,1051.22 c 9.71,-3.71 19.5,-7.2 29.35,-10.51 0.83,2.26 1.62,4.53 2.43,6.81 -3.42,1.38 -7.12,2.1 -10.32,4 3.04,8.45 5.9,16.95 8.73,25.47 -2.8,1.07 -5.62,2.06 -8.46,2.98 -3.19,-8.55 -5.84,-17.3 -9.32,-25.74 -3.39,1.27 -6.78,2.54 -10.21,3.7 -0.73,-2.24 -1.5,-4.47 -2.2,-6.71 z"
         inkscape:connector-curvature="0"
         style="opacity:1;fill:#000000" />
      <path
         id="path122"
         d="m 885.14,1051.93 c 2.94,1.2 5.89,2.38 8.83,3.62 -4.19,10.71 -8.22,21.48 -12.41,32.19 -2.81,-1.12 -5.61,-2.29 -8.45,-3.32 4.2,-10.76 8.05,-21.65 12.03,-32.49 z"
         inkscape:connector-curvature="0"
         style="opacity:1;fill:#000000" />
      <path
         id="path124"
         d="m 282.75,1056.02 c 2.85,-1.22 5.75,-2.33 8.6,-3.54 2.45,6.53 4.95,13.04 7.25,19.62 1.39,4.06 1.44,8.89 -1.07,12.53 -3.35,5.18 -9.52,7.88 -15.48,8.5 -6.06,0.34 -11.22,-4.14 -13.57,-9.42 -2.59,-6.24 -5.37,-12.4 -7.72,-18.74 2.88,-1.21 5.77,-2.41 8.63,-3.66 2.3,5.77 4.67,11.51 6.99,17.27 1.12,2.52 2.44,5.77 5.56,6.2 3.19,0.52 7.65,-0.8 8.27,-4.46 0.32,-2.57 0.11,-5.2 -0.95,-7.57 -2.18,-5.58 -4.33,-11.16 -6.51,-16.73 z"
         inkscape:connector-curvature="0"
         style="opacity:1;fill:#000000" />
      <path
         id="path126"
         d="m 885.33,1089.21 c 8.65,-9.05 17.48,-17.9 26.76,-26.3 3.09,1.1 6.09,2.46 9.05,3.91 -0.03,12.57 0.15,25.15 0.08,37.73 -2.94,-1.28 -5.86,-2.59 -8.75,-3.94 -0.02,-2.53 -0.03,-5.04 -0.04,-7.55 -4.51,-1.94 -9.08,-3.73 -13.53,-5.78 -1.84,1.75 -3.64,3.53 -5.47,5.29 -2.69,-1.17 -5.4,-2.26 -8.1,-3.36 m 18.37,-7.19 c 2.98,1.41 5.98,2.78 9.09,3.91 0.1,-4.34 0.44,-8.71 -0.29,-13 -3.05,2.91 -6.05,5.89 -8.8,9.09 z"
         inkscape:connector-curvature="0"
         style="opacity:1;fill:#000000" />
      <path
         id="path128"
         d="m 230.89,1078.39 c 8.35,-3.74 16.6,-7.7 24.99,-11.36 0.9,2.15 1.8,4.28 2.76,6.42 -5.36,2.59 -10.91,4.76 -16.25,7.4 0.86,2.7 2.09,5.28 3.41,7.8 4.65,-2.23 9.37,-4.3 14.07,-6.42 0.98,2.14 1.94,4.29 2.92,6.44 -4.47,1.93 -9,3.77 -13.34,6.01 -1.05,0.92 0.18,2.35 0.4,3.43 1.19,2.64 2.42,5.28 3.59,7.95 -2.74,1.34 -5.53,2.59 -8.27,3.94 -4.62,-10.6 -10,-20.88 -14.28,-31.61 z"
         inkscape:connector-curvature="0"
         style="opacity:1;fill:#000000" />
      <path
         id="path130"
         d="m 924.59,1106.04 c 4.54,-10.59 9.5,-20.99 14,-31.6 2.77,1.43 5.64,2.68 8.52,3.91 -4.24,10.76 -9.73,21 -14.29,31.64 -2.77,-1.28 -5.53,-2.56 -8.23,-3.95 z"
         inkscape:connector-curvature="0"
         style="opacity:1;fill:#000000" />
      <path
         id="path132"
         d="m 566.21,1123.15 c 2.2,-1.22 5.08,-0.99 6.91,0.79 3.45,2.93 4.03,7.78 4.41,12.01 0.17,4.93 -0.33,10.31 -3.34,14.42 -2.61,3.11 -7.97,3.25 -10.43,-0.14 -3.56,-4.87 -3.74,-11.36 -3.08,-17.13 0.55,-3.74 1.69,-8.34 5.53,-9.95 z"
         inkscape:connector-curvature="0"
         style="opacity:1;fill:#000000" />
      <path
         id="path134"
         d="m 610.47,1123.5 c 2.95,-1.88 7.31,-1.16 9.24,1.85 2.52,3.69 3.01,8.35 3.13,12.71 -0.35,4.64 -0.74,10.11 -4.66,13.27 -3.09,2.79 -8.43,1.3 -10.19,-2.31 -2.44,-4.92 -2.95,-10.68 -2.09,-16.05 0.52,-3.47 1.58,-7.3 4.57,-9.47 z"
         inkscape:connector-curvature="0"
         style="opacity:1;fill:#000000" />
    </g>
    <g
       id="#d5ff00ff">
      <path
         id="path137"
         d="m 327.88,205.2 c 91.25,-21.07 178.56,-57.24 260.25,-102.74 2.64,-1.88 5.72,-0.17 8.18,1.14 96.57,53.64 201.32,94.05 310.6,111.99 37.12,5.64 74.6,9.33 112.16,9.79 4.77,0.29 9.56,0.38 14.35,0.48 0.91,11.03 0.67,22.11 0.69,33.17 0.52,29.35 1.93,58.72 5.5,87.87 3.66,29.91 5.46,60.01 6.87,90.1 2.74,58.01 0.52,116.3 -7.09,173.9 -6.18,45.38 -15.53,90.62 -31.89,133.51 -23.45,64.96 -50.29,128.86 -83.48,189.49 42.61,11.28 86.01,19.72 128.03,33.2 11.29,3.57 22.36,7.83 33.27,12.44 -12.02,15.23 -24.61,30.02 -36.97,44.98 -2.47,3.11 -6.21,6.02 -5.97,10.4 2.34,24.09 4.88,48.16 7.16,72.26 0.29,4.04 1.12,8.07 0.69,12.14 -11.82,-4.75 -23.66,-9.45 -35.44,-14.28 -6.78,-2.8 -13.75,-5.16 -20.32,-8.41 5.19,-10.73 10.8,-21.24 16.24,-31.84 1.92,-3.78 4.45,-7.51 4.71,-11.87 -0.96,-5.58 -6.11,-8.83 -9.58,-12.82 -23.11,-22.55 -46.5,-44.8 -69.52,-67.45 -7.68,-7.01 -14.78,-14.63 -22.57,-21.53 -8.44,14.23 -16.78,28.53 -25.12,42.82 -3.98,-1.15 -7.92,-2.4 -11.84,-3.72 9.41,-15.44 19.11,-30.71 28,-46.46 30.48,-53.24 55.77,-109.31 77.4,-166.68 7.29,-19.38 14.59,-38.75 21.68,-58.2 8.54,-24.94 14.04,-50.8 18.61,-76.73 3.75,-20.63 6.55,-41.42 8.92,-62.25 1.61,-13.92 2.12,-27.93 3.08,-41.9 0.58,-12.66 1.67,-25.31 1.49,-37.99 0.11,-13.99 -0.05,-27.98 0.01,-41.97 -0.28,-14.37 -1.12,-28.72 -2.11,-43.05 -0.64,-18.75 -3.07,-37.36 -4.8,-56.02 -2.32,-27.99 -5.5,-55.94 -6,-84.04 -0.72,-12.36 -0.09,-24.77 -1.23,-37.1 -7.92,-1.26 -15.93,-0.7 -23.89,-1.21 -22.46,-0.38 -44.77,-3.29 -67.08,-5.56 -21.75,-2.63 -43.34,-6.43 -64.73,-11.14 -82.13,-17.28 -161.22,-47.28 -236.04,-85.03 -12.25,-6.05 -24.13,-12.78 -36.26,-19.03 -2.6,-1.61 -5.44,-0.12 -7.79,1.16 -33.3,18.24 -67.47,34.91 -102.47,49.63 -51.07,21.54 -103.84,39.3 -158.04,51.09 -28.05,5.61 -56.06,11.78 -84.57,14.59 -20.95,2.06 -41.93,3.95 -62.98,4.58 -5.88,-0.01 -11.76,0.19 -17.63,0.67 -1.04,6.42 -0.82,12.95 -0.94,19.42 -0.71,21.39 -0.41,42.83 -2.5,64.15 -1.82,22.99 -5.43,45.81 -6.87,68.84 -2.03,23.63 -3.44,47.32 -3.48,71.04 -0.85,18.32 -0.88,36.66 -0.26,54.99 1.96,48.81 7.37,97.53 16.92,145.45 4.67,23.18 10.7,46.13 18.96,68.31 24.91,70.66 54.06,140.03 90.57,205.54 9.86,17.6 20.26,34.89 31.05,51.95 0.32,0.99 1.75,2.17 0.92,3.22 -3.23,2.47 -7.3,3.41 -11.3,3.56 -8.44,-14.13 -17.09,-28.13 -25.57,-42.24 -3.93,2.71 -6.74,6.66 -10.39,9.69 -25.05,24.28 -49.97,48.68 -75.08,72.89 -4.67,5.29 -10.8,9.25 -14.74,15.19 -1.76,2.53 -0.78,5.78 0.43,8.33 5.79,11.77 12,23.33 17.97,35.01 0.64,1.29 1.07,2.67 1.5,4.06 -18.64,7.36 -37.17,15 -55.82,22.37 2.32,-28.18 5.55,-56.27 8.12,-84.42 0.37,-2.7 -1.36,-4.94 -2.94,-6.89 -13.34,-15.99 -26.63,-32.02 -39.67,-48.25 14.68,-6.91 30.14,-11.99 45.57,-16.93 37.77,-11.89 76.65,-19.65 115.13,-28.78 -5.71,-11.84 -12.3,-23.24 -17.88,-35.15 -28.8,-57.29 -52.33,-117.1 -73.34,-177.64 -7.49,-21.17 -11.96,-43.21 -16.32,-65.18 -9.8,-48.75 -13.73,-98.49 -15.22,-148.12 -1.2,-32 0.1,-64.02 1.79,-95.98 1.23,-23.75 3.66,-47.42 6.32,-71.05 2.54,-21.22 3.56,-42.58 4.26,-63.93 0.78,-16.95 0.2,-33.95 1.27,-50.89 2.07,-0.21 4.15,-0.39 6.23,-0.4 31.02,0.03 61.98,-2.61 92.76,-6.31 26.98,-2.91 53.6,-8.36 80.07,-14.23 z"
         inkscape:connector-curvature="0"
         style="fill-opacity:1;stroke:none;stroke-opacity:1;opacity:1;paint-order:markers stroke fill;fill:#d5ff00" />
      <path
         id="path139"
         d="m 515.6,179.51 c 6.51,-4.19 14.48,-5.19 22.07,-5.02 0.01,5.86 0,11.73 0.07,17.59 -5.88,0.14 -12.74,1.1 -16.43,6.25 -3.64,5.73 -3.91,12.8 -3.69,19.39 6.5,0.23 13.01,0.04 19.51,0.12 0.04,5.86 -0.02,11.72 0.05,17.58 -6.51,0.18 -13.01,0.01 -19.52,0.12 -0.04,16.5 -0.1,33 0.03,49.49 0.99,12.75 0.19,27.03 -8.53,37.2 -7.19,8.17 -18.59,10.59 -29.03,10.66 -0.03,-6.01 -0.04,-12.01 0.01,-18.01 5.37,0.19 11.22,-0.6 15.19,-4.57 3.95,-4.41 4.45,-10.57 4.71,-16.2 0.35,-19.49 -0.07,-38.97 -0.22,-58.45 -6.18,-0.33 -12.37,-0.09 -18.55,-0.16 0.02,-5.89 0.03,-11.78 0.01,-17.67 6.18,-0.01 12.35,0 18.53,0 -0.02,-7.72 -0.19,-15.82 3.12,-22.98 2.79,-6.06 6.74,-11.98 12.67,-15.34 z"
         inkscape:connector-curvature="0"
         style="fill-opacity:1;stroke:none;stroke-opacity:1;opacity:1;paint-order:markers stroke fill;fill:#d5ff00" />
      <path
         id="path141"
         d="m 545.54,174.51 c 5.8,-0.01 11.6,-0.01 17.4,0 0.01,22.97 -0.01,45.95 0.01,68.92 6.79,-7.06 13.77,-13.95 20.57,-21 3.92,-4.74 8.44,-8.92 12.7,-13.35 6.88,-0.14 13.77,-0.14 20.66,0 -5.56,6.36 -11.73,12.16 -17.56,18.27 -7.11,6.93 -13.37,14.68 -20.7,21.42 7.85,1.07 16.23,2.74 22.12,8.46 6.3,5.75 8.37,14.49 9.08,22.67 0.48,7.22 0.97,14.47 0.45,21.71 -5.2,0 -10.41,0 -15.61,-0.01 0.4,-8.84 0.83,-18 -2.08,-26.5 -1.56,-4.59 -5.48,-8.03 -9.85,-9.88 -6.17,-2.62 -12.94,-3.4 -19.57,-3.76 0,13.38 0.08,26.75 0.06,40.13 -5.9,0.03 -11.8,0.02 -17.7,0.01 0.01,-42.36 -0.01,-84.73 0.02,-127.09 z"
         inkscape:connector-curvature="0"
         style="fill-opacity:1;stroke:none;stroke-opacity:1;opacity:1;paint-order:markers stroke fill;fill:#d5ff00" />
      <path
         id="path143"
         d="m 621.96,175.02 c 11.35,0 22.69,-0.03 34.04,0 10.46,0.66 20.63,5.58 27.61,13.43 9.27,9.13 12.78,22.88 11.22,35.57 -1.4,14.82 -11.74,27.7 -24.5,34.69 6.03,9.28 11.87,18.68 17.89,27.97 2.96,5.01 6.58,9.63 9.12,14.88 -5.79,0.09 -11.58,0.03 -17.37,0.07 -1.17,-0.2 -2.87,0.45 -3.41,-1 -8.07,-13.06 -16.08,-26.17 -24.07,-39.29 -4.69,-0.01 -9.38,0.01 -14.06,0.01 0,13.42 -0.01,26.83 0,40.25 -5.49,0.01 -10.98,0.01 -16.46,0.01 -0.02,-42.2 -0.01,-84.39 -0.01,-126.59 m 16.5,16.81 c -0.08,17.51 -0.02,35.03 -0.03,52.54 7.27,-0.37 14.76,0.96 21.84,-1.17 9.9,-3.25 17.54,-12.78 18.09,-23.26 1.02,-11.26 -6.34,-22.4 -16.8,-26.39 -7.41,-2.72 -15.4,-1.39 -23.1,-1.72 z"
         inkscape:connector-curvature="0"
         style="fill-opacity:1;stroke:none;stroke-opacity:1;opacity:1;paint-order:markers stroke fill;fill:#d5ff00" />
      <path
         id="path145"
         d="m 171.4,248.55 c 56.81,-1.29 113.41,-9.28 168.65,-22.53 1.17,-0.18 2.35,-0.15 3.54,0.09 0,230.29 -0.03,460.57 0.01,690.86 0.08,14.39 -0.11,28.78 0.2,43.16 121.31,-34.54 249.98,-43.96 374.8,-25.05 40.61,6.02 80.79,14.92 120.2,26.39 -0.01,-245.39 -0.02,-490.78 0,-736.18 42.78,10.17 86.22,17.77 130.09,21.1 14.07,1.01 28.17,1.85 42.28,2.2 0.7,10.79 0.3,21.62 0.95,32.41 0.19,18.13 2.11,36.18 3.79,54.21 2.43,27.91 5.74,55.75 7.03,83.75 1.67,31.45 2.95,63 1.26,94.49 -1.13,26.25 -2.31,52.53 -5.45,78.63 -2.75,25.49 -7.03,50.81 -12.53,75.86 -4.09,22.07 -11.5,43.31 -18.69,64.51 -27.82,78.57 -61.4,155.37 -104.32,226.94 -6.72,11.54 -14.23,22.6 -21.17,34 39.75,15.48 80.22,29.34 118.59,48.13 8.02,4.05 16.4,7.49 24.12,12.1 -9.7,19.17 -18.92,38.57 -28.25,57.92 -10.33,20.54 -19.99,41.4 -30.29,61.94 -16.21,-7.66 -32.11,-15.99 -48.54,-23.19 -73.01,-33.17 -150.86,-56.44 -230.68,-65.36 -23.95,-1.99 -47.96,-3.29 -71.96,-4.43 -47.35,0.28 -94.71,5.02 -141.07,14.78 -73.74,15.02 -144.65,41.96 -211.67,75.9 -1.7,0.98 -3.59,1.58 -5.54,1.81 -20.41,-39.86 -40.99,-79.67 -61.65,-119.41 25.4,-12.87 51.74,-23.83 78.14,-34.5 22.37,-8.66 44.88,-16.99 67.8,-24.09 -2.55,-5.51 -6.45,-10.22 -9.54,-15.41 -41.24,-64.88 -74.05,-134.79 -101.68,-206.43 -6.84,-17.45 -13.43,-34.99 -19.35,-52.78 -6.38,-17.32 -10.82,-35.28 -14.49,-53.35 -10.76,-47.6 -15.55,-96.34 -17.84,-145.03 -0.93,-26.03 -0.58,-52.1 0.01,-78.13 1.21,-29.3 3.47,-58.56 6.45,-87.73 2.37,-24.68 5.23,-49.36 5.81,-74.17 0.04,-11.14 0.18,-22.3 0.99,-33.41 m 365.54,690.91 c -62.78,4.76 -125.58,13.86 -185.83,32.59 -2.34,0.92 -5.3,0.98 -6.99,3.03 -0.92,4.14 -0.49,8.44 -0.14,12.63 16.38,-4.18 32.58,-9.13 49.12,-12.73 29.93,-7.21 60.29,-12.4 90.8,-16.42 72.37,-9.46 145.98,-10.11 218.35,-0.33 20.23,2.96 40.47,5.9 60.53,9.88 25.5,5.03 50.67,11.5 75.66,18.63 0.02,-3.96 0.01,-7.91 0.04,-11.85 -6.59,-2.77 -13.57,-4.43 -20.4,-6.46 -35.16,-10.1 -71.07,-17.47 -107.26,-22.68 -25.49,-3.77 -51.24,-5.29 -76.92,-7.14 -32.31,-1.2 -64.68,-1.33 -96.96,0.85 m 27.4,58.39 c -0.08,3.63 -0.11,7.28 0.21,10.91 0.47,5.56 -0.54,11.56 2.2,16.69 5.32,9.93 21.63,10.37 27.75,1.03 2.13,-3.42 2.7,-7.55 2.74,-11.5 0.01,-5.79 -0.02,-11.58 -0.01,-17.36 -3.18,-0.02 -6.36,-0.02 -9.53,0.04 -0.18,6.79 -0.04,13.6 -0.07,20.4 0.04,2.22 -0.4,4.77 -2.22,6.27 -3.51,2.03 -9.59,1.61 -10.66,-3.05 -1.18,-7.82 -0.73,-15.79 -0.84,-23.67 -3.2,-0.03 -6.39,-0.04 -9.57,0.24 m 39.73,34.65 c 5.32,-0.02 10.61,0.61 15.92,0.54 4.58,0.08 9.65,0.29 13.49,-2.64 2.72,-2.42 4.07,-6.79 2.19,-10.1 -0.8,-2.1 -3,-2.97 -4.56,-4.35 -0.33,-1.45 1.18,-2.04 1.97,-2.91 3.57,-2.64 3.36,-8.42 0.14,-11.26 -3.41,-2.79 -7.98,-3.65 -12.28,-3.69 -5.47,0.01 -10.92,-0.62 -16.38,-0.49 -0.18,11.63 -0.69,23.26 -0.49,34.9 m -70.05,-33.06 c 0.32,11.53 1.63,23 1.99,34.53 8.52,0.03 17.01,-1.02 25.53,-0.99 -0.29,-2.4 0.7,-5.3 -0.61,-7.34 -5.39,-0.48 -10.76,0.67 -16.15,0.35 -0.39,-9.06 -0.68,-18.14 -1.5,-27.15 -3.1,0.08 -6.19,0.2 -9.26,0.6 m -14.52,1.21 c -4.55,4.95 -8.15,10.74 -12.63,15.77 -0.96,-4.85 -1.28,-9.79 -1.69,-14.69 -3.19,0.36 -6.38,0.71 -9.56,1.09 1.33,11.49 2.89,22.97 3.82,34.51 2.98,-0.28 5.96,-0.58 8.96,-0.69 -0.03,-2.99 -0.36,-5.95 -0.77,-8.89 1.11,-1.53 2.24,-3.04 3.38,-4.54 4.51,3.44 7.62,8.27 11.81,12.05 3.17,-0.32 6.35,-0.54 9.51,-0.91 -4.85,-6.47 -10.71,-12.09 -15.82,-18.33 4.45,-5.43 8.4,-11.3 13.27,-16.37 -3.43,0.37 -6.92,0.22 -10.28,1 m 135.72,-0.38 c -6.15,11.03 -12.07,22.21 -17.46,33.64 2.96,0.21 5.92,0.48 8.9,0.54 1.08,-2.22 2.18,-4.42 3.28,-6.62 4.75,0.52 9.54,0.75 14.31,1.17 1.84,1.84 1.85,4.91 2.96,7.26 3.01,0.26 6.01,0.54 9.01,0.92 -3.73,-12.02 -7.36,-24.09 -11.72,-35.9 -3,-0.92 -6.19,-0.82 -9.28,-1.01 m 30.92,5.1 c -5.03,2.31 -7.65,9.68 -3.79,14.13 4,4.88 10.85,5.26 16.01,8.4 -0.03,1.32 -0.04,2.66 -0.05,4.01 -5.77,1.78 -12.01,-0.21 -16.68,-3.76 -1.49,1.99 -2.75,4.16 -3.69,6.48 4.83,2.94 10.3,4.96 15.98,5.37 5.07,0.11 10.93,-1.98 12.97,-7.04 2.07,-3.74 0.4,-8.49 -2.99,-10.8 -4.15,-2.92 -9.27,-3.89 -13.71,-6.27 -0.05,-1.38 -0.1,-2.74 -0.13,-4.1 5.33,-1.85 10.98,-0.12 15.47,2.93 1.24,-2.14 2.48,-4.29 3.56,-6.5 -6.77,-3.94 -15.53,-6.54 -22.95,-2.85 m -233.78,3.1 c -7.82,2.28 -13.73,10.15 -12.9,18.4 0.65,6.93 5.32,13.47 12.05,15.66 9.43,3.59 21.4,-1.42 24.99,-10.96 3.44,-7.92 -0.35,-18.21 -8.07,-22.05 -4.87,-2.69 -10.89,-2.89 -16.07,-1.05 m 278.59,1.17 c -1.85,11.47 -3.98,22.9 -5.74,34.39 2.97,0.49 5.93,1.04 8.9,1.59 0.58,-3.01 1.1,-6.02 1.62,-9.02 1.9,0.2 3.82,0.45 5.74,0.74 1.55,3.54 2.99,7.15 4.69,10.63 3.03,0.56 6.06,1.17 9.07,1.9 -1.62,-3.99 -3.12,-8.03 -4.93,-11.93 5.05,-1.83 9.3,-6.38 9.38,-11.95 0.41,-5.76 -4.27,-10.57 -9.43,-12.27 -6.23,-2.2 -12.9,-2.61 -19.3,-4.08 m -322.47,7.79 c 2.43,11.29 5.02,22.55 7.3,33.87 8.32,-1.82 16.68,-3.5 25.06,-5.11 -0.5,-2.41 -0.98,-4.81 -1.46,-7.21 -5.36,1.05 -10.66,2.4 -16.09,3.09 -2.06,-8.88 -3.74,-17.84 -5.49,-26.78 -3.12,0.69 -6.24,1.33 -9.32,2.14 m 359.73,-0.45 c -2.75,11.27 -5.02,22.66 -7.37,34.03 2.94,0.58 5.86,1.24 8.77,1.97 2.43,-11.3 5.21,-22.53 7.57,-33.85 -2.99,-0.73 -5.99,-1.41 -8.97,-2.15 m 13.39,3.25 c -0.57,2.32 -1.06,4.66 -1.55,7 3.47,0.83 6.94,1.72 10.41,2.6 -1.84,8.93 -4.4,17.71 -6.37,26.62 2.9,0.73 5.8,1.47 8.68,2.28 2.5,-8.77 4.35,-17.72 6.99,-26.44 3.52,0.73 6.98,1.77 10.45,2.75 0.61,-2.35 1.24,-4.7 1.8,-7.05 -10.09,-2.77 -20.2,-5.5 -30.41,-7.76 m -399.09,2.64 c -6.8,2.13 -12.85,7.87 -13.81,15.16 -1.79,11.54 9.95,22.72 21.39,20.06 5.73,-0.87 11.01,-4.09 14.13,-9 5.57,-8.07 2.28,-20.38 -6.29,-24.92 -4.62,-2.75 -10.39,-2.98 -15.42,-1.3 m 424.55,39.73 c 8.71,2.35 17.29,5.12 25.92,7.75 0.66,-2.22 1.36,-4.43 2,-6.65 -5.68,-1.76 -11.33,-3.58 -17.05,-5.19 0.39,-2.4 0.99,-4.76 1.74,-7.06 5,1.43 9.9,3.2 14.95,4.47 0.62,-2.14 1.23,-4.28 1.9,-6.39 -4.97,-1.45 -9.89,-3.07 -14.84,-4.57 0.5,-2.22 1.11,-4.39 1.82,-6.54 5.61,1.97 11.33,3.61 17.01,5.38 0.79,-2.25 1.5,-4.52 2.05,-6.82 -8.78,-2.43 -17.37,-5.49 -26.2,-7.73 -3.14,11.11 -6.02,22.28 -9.3,33.35 m -478.24,-23.41 c 3.35,10.97 7.19,21.8 10.35,32.83 5.48,-1.24 10.74,-3.31 16.16,-4.82 4.5,-1.5 9.77,-3.24 11.91,-7.9 1.74,-3.15 0.18,-7.01 -2.04,-9.47 -1.83,-1.35 -4.12,-1.82 -6.2,-2.61 1.53,-2.4 3.62,-5.06 2.6,-8.09 -0.8,-5.13 -6.9,-7.57 -11.51,-6.29 -7.23,1.62 -14.17,4.28 -21.27,6.35 m 520.36,0.21 c -3.11,11.03 -7.14,21.8 -10.27,32.84 2.8,0.93 5.58,1.91 8.36,2.92 1.07,-3.02 1.98,-6.11 3.36,-9.01 1.7,0.69 3.54,1.21 5.14,2.18 1.33,3.49 1.9,7.22 3.05,10.78 3.01,1.12 6.02,2.29 9.07,3.34 -1.18,-4.12 -2.19,-8.28 -3.12,-12.46 5.09,-1.09 9.82,-4.79 10.75,-10.13 1.78,-6.61 -3.76,-12.59 -9.52,-14.84 -5.55,-2.05 -11.15,-3.99 -16.82,-5.62 M 295,1051.22 c 0.7,2.24 1.47,4.47 2.2,6.71 3.43,-1.16 6.82,-2.43 10.21,-3.7 3.48,8.44 6.13,17.19 9.32,25.74 2.84,-0.92 5.66,-1.91 8.46,-2.98 -2.83,-8.52 -5.69,-17.02 -8.73,-25.47 3.2,-1.9 6.9,-2.62 10.32,-4 -0.81,-2.28 -1.6,-4.55 -2.43,-6.81 -9.85,3.31 -19.64,6.8 -29.35,10.51 m 590.14,0.71 c -3.98,10.84 -7.83,21.73 -12.03,32.49 2.84,1.03 5.64,2.2 8.45,3.32 4.19,-10.71 8.22,-21.48 12.41,-32.19 -2.94,-1.24 -5.89,-2.42 -8.83,-3.62 m -602.39,4.09 c 2.18,5.57 4.33,11.15 6.51,16.73 1.06,2.37 1.27,5 0.95,7.57 -0.62,3.66 -5.08,4.98 -8.27,4.46 -3.12,-0.43 -4.44,-3.68 -5.56,-6.2 -2.32,-5.76 -4.69,-11.5 -6.99,-17.27 -2.86,1.25 -5.75,2.45 -8.63,3.66 2.35,6.34 5.13,12.5 7.72,18.74 2.35,5.28 7.51,9.76 13.57,9.42 5.96,-0.62 12.13,-3.32 15.48,-8.5 2.51,-3.64 2.46,-8.47 1.07,-12.53 -2.3,-6.58 -4.8,-13.09 -7.25,-19.62 -2.85,1.21 -5.75,2.32 -8.6,3.54 m 602.58,33.19 c 2.7,1.1 5.41,2.19 8.1,3.36 1.83,-1.76 3.63,-3.54 5.47,-5.29 4.45,2.05 9.02,3.84 13.53,5.78 0.01,2.51 0.02,5.02 0.04,7.55 2.89,1.35 5.81,2.66 8.75,3.94 0.07,-12.58 -0.11,-25.16 -0.08,-37.73 -2.96,-1.45 -5.96,-2.81 -9.05,-3.91 -9.28,8.4 -18.11,17.25 -26.76,26.3 m -654.44,-10.82 c 4.28,10.73 9.66,21.01 14.28,31.61 2.74,-1.35 5.53,-2.6 8.27,-3.94 -1.17,-2.67 -2.4,-5.31 -3.59,-7.95 -0.22,-1.08 -1.45,-2.51 -0.4,-3.43 4.34,-2.24 8.87,-4.08 13.34,-6.01 -0.98,-2.15 -1.94,-4.3 -2.92,-6.44 -4.7,2.12 -9.42,4.19 -14.07,6.42 -1.32,-2.52 -2.55,-5.1 -3.41,-7.8 5.34,-2.64 10.89,-4.81 16.25,-7.4 -0.96,-2.14 -1.86,-4.27 -2.76,-6.42 -8.39,3.66 -16.64,7.62 -24.99,11.36 m 693.7,27.65 c 2.7,1.39 5.46,2.67 8.23,3.95 4.56,-10.64 10.05,-20.88 14.29,-31.64 -2.88,-1.23 -5.75,-2.48 -8.52,-3.91 -4.5,10.61 -9.46,21.01 -14,31.6 z"
         inkscape:connector-curvature="0"
         style="fill-opacity:1;stroke:none;stroke-opacity:1;opacity:1;paint-order:markers stroke fill;fill:#d5ff00" />
      <path
         id="path147"
         d="m 368.72,336.07 c 0.52,-3.78 0.59,-7.68 1.98,-11.28 1.4,1.44 2.76,2.95 3.85,4.66 10.82,16.44 20.47,33.69 28.52,51.66 2.03,4.36 3.06,9.13 3.36,13.92 0.31,6.81 -2.71,13.22 -2.71,20.02 0.01,7.66 1.97,15.15 2.91,22.72 1.45,7.88 1.64,15.97 3.67,23.73 6.6,1.25 13.52,4.35 16.37,10.86 2.45,4.12 1.3,10.12 5.81,12.93 3.72,2.35 7.48,-1.23 11.37,-0.94 5.6,-0.7 10.34,2.86 14.98,5.41 -1.67,7.26 -5.04,14.04 -9.22,20.19 5.84,4.3 13.32,4.29 20.25,4.64 1.02,-1.85 2.28,-3.61 2.89,-5.65 0.44,-4.49 -1.99,-9.12 -0.1,-13.48 1.4,-2.46 5.01,-3.22 5.56,-6.25 0.97,-5.01 0.8,-10.18 1.86,-15.19 2.4,-11.31 9.04,-22.29 19.82,-27.33 -0.14,-1.3 -0.28,-2.59 -0.41,-3.87 6.42,-1.47 12.99,-2.23 19.32,-4.07 6.8,-2 13.08,-5.87 17.68,-11.28 3.19,-3.87 5.69,-8.24 8.21,-12.55 -3.18,-3.18 -6.69,-7.03 -6.04,-11.91 0.63,-6.37 3.6,-12.24 4.5,-18.58 1.33,-5.46 1.03,-11.35 3.48,-16.51 1.84,-4.02 -0.69,-8.5 0.78,-12.59 2.48,-7 11.32,-10.9 18.21,-8.19 1.4,0.42 3.16,1.29 4.38,-0.04 6.19,-5.16 11.91,-10.94 18.55,-15.54 2.58,-1.88 6.22,-1.92 8.7,0.15 11.82,8.82 21.33,20.23 30.47,31.69 2.17,3.01 3.89,6.43 4.65,10.08 0.59,4.17 0.27,8.4 0.35,12.6 2.7,2.66 6.04,5.7 5.54,9.91 0.04,4.11 -4.38,7.39 -2.6,11.56 2.65,7.72 6.97,15.31 13.91,19.93 3.02,2.24 6.6,3.45 9.92,5.16 1.73,0.78 1.54,2.99 1.99,4.56 5.81,0.52 11.81,1.28 16.94,4.28 4.2,1.93 7.52,5.18 11.05,8.08 3.15,2.74 8.18,0.78 11.13,3.87 2.93,2.93 1.64,7.41 1.6,11.09 2.95,2.9 6.96,2.28 10.7,1.94 4.57,-0.41 7.52,3.5 10.5,6.28 1.99,2.1 5.09,1.86 7.7,2.49 8.87,1.36 16.09,8.91 17.98,17.55 1.53,5.67 0.4,11.57 -0.79,17.19 2.26,2.4 3.95,5.54 3.3,8.95 -0.23,5.1 -6.03,7.86 -5.88,13.07 0.17,6.79 0.21,13.59 -0.05,20.39 4.7,1.49 9.73,1.81 14.3,3.7 5.01,2.58 4.77,9.07 3.84,13.81 -1.27,5.82 -8.01,7.45 -10.53,12.52 -2.95,5.6 -3.49,12.06 -5.33,18.05 22.44,0.09 44.87,0.02 67.31,0.04 0.66,39.16 -0.25,78.32 0.01,117.49 0.25,29.17 -3.58,58.83 -15.21,85.79 -12.2,29.13 -33.71,54.32 -61.07,70.22 -3.27,1.77 -6.59,5.48 -10.63,3.51 -20.4,-11.21 -38.52,-26.83 -51.68,-46.1 -18.41,-26.48 -27.17,-58.57 -29.52,-90.46 -1.57,-23.61 -0.13,-47.31 -1.08,-70.95 -3.6,3.86 -6.37,8.47 -10.48,11.84 -1.83,1.47 -1.53,4.14 -1.95,6.23 -0.75,9.47 -1.88,18.92 -2.4,28.41 -0.06,3.27 3.32,5.22 3.73,8.38 1.27,4.7 -1.94,9.36 -0.37,14.02 0.9,2.76 2.47,5.22 3.94,7.71 9.2,16.14 12.33,35.15 11.06,53.53 -0.38,12.68 -2.42,25.23 -4.42,37.74 -0.54,3.64 -1.96,7.42 -0.63,11.07 1.11,4.21 5.67,6.27 6.94,10.43 2.59,7.29 2.13,16.19 -2.66,22.5 -3.6,4.32 -9.41,5.99 -14.86,5.95 -6.21,0.08 -11.65,3.95 -17.89,3.72 -3.07,0.16 -6.06,-1.39 -9.09,-0.51 -9.23,2 -18.41,5.02 -27.97,4.66 -5.71,-0.04 -11.47,-1.89 -17.14,-0.42 -7.28,1.83 -14.21,4.82 -21.51,6.61 0.13,-4.54 2.48,-8.54 3.98,-12.72 2.13,-4.85 3.71,-10.34 7.97,-13.82 11.97,-8.39 27.1,-10.56 39.1,-18.87 -0.19,-3.12 -0.2,-6.56 1.75,-9.18 2.58,-3.32 6.59,-4.98 10.42,-6.39 -0.04,-7.52 -1.14,-15 -2.84,-22.31 -2.89,-14.21 -6.29,-28.34 -8.26,-42.71 -0.35,-2.28 -0.52,-4.61 -1.34,-6.77 -2.68,-2.77 -6.05,-5.08 -7.18,-8.98 -4.3,-2.97 -8.94,-5.92 -11.47,-10.66 -2.81,-5.18 -2.93,-11.51 -0.96,-16.99 2.2,-5.06 -2.61,-9.41 -2.51,-14.47 -0.27,-6.47 -2.77,-12.45 -4.55,-18.58 -8.8,8.89 -15.31,20.05 -25.61,27.43 -2.68,2.11 -5.79,3.57 -8.62,5.46 -2.28,1.78 -1.89,5.01 -2.65,7.53 -0.35,2.65 -2.56,5.59 -0.45,8 4.85,7.36 8.77,15.43 10.69,24.08 3.72,15.13 1.7,30.78 1.67,46.16 -0.37,10.29 -1.05,20.72 0.66,30.93 0.62,4.89 6.24,6.66 7.24,11.37 1.58,6.31 0.78,13.21 -1.8,19.17 -1.67,4.19 -6.04,7.24 -10.6,7.05 -8.12,0.07 -15.95,2.75 -24.09,2.73 -6.16,0.08 -11.94,2.26 -17.79,3.88 -23.68,1.59 -48.3,-1.67 -69.39,-13.08 -1.33,-0.58 -2.18,-1.77 -3.06,-2.84 8.77,-4.25 18.44,-6 27.58,-9.21 -2.45,-17.43 -5.74,-34.73 -8.45,-52.12 -15.92,-95.13 -31.76,-190.27 -47.55,-285.43 -0.4,-2.16 -0.53,-4.38 -1.23,-6.47 -1.91,-3.18 -6.19,-3.77 -8.12,-6.91 -5.69,-9.31 -6.86,-20.74 -5.04,-31.34 0.86,-4.39 3.54,-8.08 5.29,-12.12 -0.65,-0.29 -1.96,-0.88 -2.61,-1.17 -1.8,-5.88 -2.58,-11.98 -3.76,-17.99 -1.98,-10.75 -4.29,-21.43 -6.4,-32.15 -0.36,-2.45 -2.26,-4.14 -3.65,-6.02 -2.98,-3.77 -4.28,-8.6 -4.53,-13.32 -0.36,-7.34 -0.22,-14.72 0.89,-21.99 1.83,-15 3.55,-30.01 5.62,-44.98 m 210.89,17.54 c -6.48,6 -11.79,13.64 -13.13,22.54 7.39,0.67 15.01,-0.07 22.2,2.11 4.29,1.35 7.26,5.03 9.01,9.03 8.83,-0.08 17.69,0.3 26.5,-0.6 1.35,-7.22 -0.87,-14.84 -5.25,-20.64 -2.23,-3.05 -5.29,-5.36 -7.64,-8.3 -3.2,-4.11 -7.38,-7.3 -10.6,-11.38 -1.83,-2.37 -4.21,-4.2 -6.53,-6.04 -5,4.27 -10.16,8.37 -14.56,13.28 m -204.8,-3.49 c -1.8,11.89 -2.59,23.89 -3.58,35.86 -1.01,7.68 -0.44,16.14 4.23,22.62 3,3.9 5.39,8.36 6.21,13.26 2.1,12.46 4.62,24.86 6.8,37.31 0.36,1.66 0.5,3.47 1.47,4.93 3.22,2.63 7.94,0.76 10.51,-1.86 0.46,-4.11 -0.98,-8.16 -1.35,-12.24 -2.09,-15.92 -6.23,-31.93 -3.89,-48.07 0.96,-7.65 -2.22,-14.9 -5.56,-21.56 -5.05,-10.03 -8.99,-20.64 -14.84,-30.25 m 178.52,6.26 c -2.52,3.81 1.81,7.67 0.83,11.69 -1.66,11.46 -4.97,22.59 -7.34,33.9 -0.36,2.34 1.72,3.63 3.49,4.55 1.81,-1.47 3.03,-3.49 3.48,-5.78 2.52,-10.86 4.89,-21.76 7.27,-32.65 0.67,-3.58 2.94,-6.57 3.84,-10.06 -0.08,-3.16 -3.32,-4.64 -5.89,-5.52 -2.16,0.8 -4.6,1.64 -5.68,3.87 m 19.32,27 c 1.08,3.11 4.95,2.93 7.48,4.28 0.18,0.58 0.54,1.74 0.72,2.32 -3.61,0.55 -7.21,1.19 -10.84,1.59 -0.45,-2.4 -0.73,-4.85 -1.6,-7.14 -1.17,-0.97 -2.88,-1.48 -3.82,0.06 -1.6,3.85 -1.91,8.24 -4.37,11.72 -1.06,1.85 -2.92,3.51 -2.71,5.83 1.34,3.12 4.81,1.03 7.18,0.62 -0.09,-1.26 -0.11,-2.51 -0.08,-3.76 0.76,-1.86 2.93,-2.23 4.54,-3.04 0.83,3.03 2.96,6.02 2.14,9.26 -1.23,1.26 -2.85,2.03 -4.33,2.94 1.97,0.67 3.93,1.35 5.9,2.04 -1.73,4.21 -6.88,2.29 -10.37,3.32 0.06,2.93 -0.29,5.92 0.27,8.82 1.01,3.4 5.06,4.74 8.26,3.92 6.72,-1.29 13.82,-5.15 16,-12.06 1.67,-6.26 3.32,-12.58 3.75,-19.06 0.05,-3.29 -1.2,-6.89 -4.1,-8.7 -4.14,-2.59 -9.21,-3.45 -14.02,-2.96 m 25.56,11.04 c -0.05,1.97 -0.08,3.93 -0.1,5.9 6.96,0 13.91,0.01 20.87,0.01 2.28,-0.09 4.66,0.01 6.84,-0.83 2.38,-2.67 -0.49,-7.14 -3.84,-6.77 -7.94,0.18 -15.9,0.54 -23.77,1.69 m -1.06,12.98 c -1.38,8.32 -4.85,16.21 -9.63,23.13 -4.45,6.05 -10.32,11.84 -18,13.27 0.42,-2.7 3.22,-3.64 5,-5.28 2.65,-1.87 3.99,-4.92 5.38,-7.73 -6.71,0.54 -14.74,3.8 -20.54,-1.11 -4.51,-4.56 -2.39,-11.64 -4.15,-17.28 -2.86,7.63 -5.85,15.44 -11.33,21.63 -6.02,7.18 -14.8,11.52 -23.83,13.52 2.8,4.66 5.45,9.42 8.32,14.04 3.71,5.92 9.75,10.26 16.54,11.89 11.48,2.8 23.37,3.43 35.15,3.14 12.69,-0.54 25.43,-1.25 37.96,-3.44 9.79,-1.71 18.38,-8.72 21.86,-18.04 1.87,-5.25 4.72,-10.04 7.17,-15.01 -4.2,-3.88 -8.8,-7.32 -12.8,-11.41 -5.46,-6.1 -6.85,-14.39 -8.83,-22.03 -0.33,-0.23 -0.97,-0.68 -1.29,-0.91 -8.99,0.35 -18.02,0.66 -26.98,1.62 m 59.86,40.53 c -7.06,6.38 -7.72,16.92 -14.35,23.62 -3.33,3.83 -7.79,6.45 -12.56,8.05 9.57,4.57 20.46,8.03 31.11,5.67 8.29,-1.88 16.03,-6.02 22.51,-11.49 3.77,-3.7 8.01,-7.54 9.46,-12.81 -4.71,-0.59 -9.7,-1.4 -13.18,-4.96 -4.09,-4.4 -9.3,-7.78 -15.15,-9.28 -2.61,-0.93 -5.76,-0.81 -7.84,1.2 m -170.43,35.25 c -0.65,5.55 0.37,13.03 -5.5,16.13 -0.38,0.71 -0.75,1.43 -1.1,2.16 0.74,0.19 2.22,0.58 2.96,0.77 8.79,-0.81 17.41,-3.25 25.48,-6.78 8.2,-3.62 15.03,-9.84 19.92,-17.29 -4.4,-3.17 -7.74,-7.51 -10.49,-12.12 -2.75,-4.72 -6.63,-8.61 -9.98,-12.87 -13,3.67 -20.22,17.3 -21.29,30 m -92.34,-8.92 c 2.16,3.81 6.64,3.41 10.41,3.45 0.36,4.24 0.71,8.78 3.28,12.35 1.79,2.53 4.8,3.66 7.57,4.78 1.02,4 -0.5,8.13 0.46,12.16 1.23,6.96 2.47,13.92 3.73,20.87 0.23,0.01 0.68,0.01 0.91,0.01 9.45,-10.61 18.18,-21.89 27.11,-32.95 -0.86,-1.07 -1.66,-2.27 -2.98,-2.78 -2.48,0.36 -4.58,1.88 -6.93,2.66 -4.3,1.63 -9.81,0.91 -12.75,-2.89 -2.99,-3.65 -2.1,-8.75 -4.12,-12.83 -2.13,-5.15 -7.01,-9.33 -12.77,-9.34 -4.8,0.93 -9.24,3.13 -13.92,4.51 m 287.2,10.19 c -4.43,2.39 -9.15,4.17 -13.79,6.08 5.94,6.61 14.33,11.89 23.44,11.92 3.77,-0.14 4.87,-4.36 4.93,-7.44 0.33,-6.61 3.27,-12.69 6.84,-18.13 -2.01,-1.36 -4.01,-2.71 -6.01,-4.06 -5,4.04 -9.64,8.65 -15.41,11.63 M 705.58,495 c -0.33,4.33 0.34,9.29 -2.61,12.9 -2.53,2.82 -6.61,2.74 -10.08,2.81 -0.82,1.32 -2.1,2.58 -1.95,4.27 0.05,3.5 3.68,5.75 6.89,5.69 3.4,-0.14 4.59,-4.73 8.1,-4.58 6.09,0.24 11.02,4.76 17.07,5.29 5.08,0.47 10.31,-0.51 15,-2.45 1.73,-0.59 1.63,-2.44 0.93,-3.79 -1.45,-3.72 -0.91,-7.82 0.44,-11.47 2.17,-6.2 -0.03,-13.88 -5.62,-17.52 -4.29,-3 -9.63,-3.63 -14.61,-4.69 -2.79,-0.56 -4.22,-3.21 -5.91,-5.19 -4.37,5.28 -7.46,11.8 -7.65,18.73 m -320.3,-7.98 c -0.99,7.47 0.56,15.22 3.75,22.01 1.2,2.59 3.56,6.02 6.78,4.11 0.25,-2.28 -0.04,-4.86 1.58,-6.72 0.93,-1.5 2.53,-2.64 2.95,-4.4 -0.04,-3.16 -1.9,-5.9 -2.3,-9 -0.53,-3.93 -2.7,-7.37 -3.22,-11.31 -3.88,-0.49 -8.71,0.97 -9.54,5.31 m 143.19,4.53 c -5.72,11.94 -9,25.15 -8.77,38.43 0.47,14.62 4.59,29.36 12.84,41.51 2.93,4.64 8.9,1.82 13.22,1.64 -6.63,-11.58 -10.92,-24.66 -11.33,-38.06 -0.95,-17.45 4.08,-34.63 11.32,-50.35 -3.84,-1 -7.66,-2.02 -11.43,-3.24 -2.52,2.99 -4.14,6.58 -5.85,10.07 m 24.43,-1.75 c -5.06,12.51 -8.77,25.75 -9.3,39.3 -0.86,14.49 2.81,29.35 11.06,41.37 0.91,1.53 2.6,2.52 4.42,2.36 13.36,-0.41 26.71,-1.07 40.07,-1.23 4.06,0.08 7.42,-2.99 8.97,-6.54 7.19,-15.96 14.82,-31.84 24.52,-46.45 3.12,-5.09 8.18,-9.09 9.65,-15.07 1.08,-3.62 1.58,-7.38 2.05,-11.11 -8.31,-2.7 -16.5,-6.03 -25.23,-7.08 -7.66,-1.23 -15.36,0.29 -23.04,0.26 -13.04,0.86 -26.11,-0.19 -39.14,-0.43 -2.36,0.24 -3.2,2.77 -4.03,4.62 m 100.95,8.02 c -0.71,4.01 -0.11,8.29 -1.84,12.11 -2.02,6.15 -7.82,9.78 -10.77,15.36 -7.91,14.79 -15.47,29.77 -23.33,44.58 -0.91,1.49 -1.28,3.63 0.24,4.89 9.79,10.02 17.31,21.91 24.55,33.82 0.48,-2.68 0.81,-5.38 1.03,-8.09 11.07,-0.07 22.15,0.18 33.22,-0.1 3.77,-0.14 4.62,-4.27 6.84,-6.53 3.73,-4.52 9.65,-6.03 15.12,-7.23 -1.36,-9.97 -3.73,-19.78 -4.9,-29.77 2.49,-0.82 4.98,-1.66 7.47,-2.5 -1.06,-7.9 -2.05,-15.81 -3.19,-23.7 -4.36,-1.34 -9.57,-1.58 -12.85,-5.13 -3.5,-4.12 -3.08,-9.8 -3.31,-14.85 -6.82,-3.63 -14.1,-6.7 -19.93,-11.89 -2.14,-1.99 -6.01,-3.25 -8.35,-0.97 m -160.88,9.49 c -7.4,0.31 -12.84,6.17 -16.33,12.15 -1.14,1.9 -0.67,4.41 0.93,5.9 2.27,2.62 5.9,3.1 8.99,4.26 5.34,1.65 10.01,5.31 12.88,10.12 3.61,-4.5 7.28,-8.95 10.83,-13.5 1,-1.19 1.62,-2.64 1.83,-4.17 1.28,-7.47 3.1,-14.84 4.21,-22.34 -7.37,3.57 -15.03,7.11 -23.34,7.58 m -90.23,7.71 c -0.35,2.97 -3.77,4.82 -3.14,7.98 19.5,113.72 38.63,227.5 58.24,341.2 0.11,4.05 6.2,7.74 8.6,3.31 2.09,-5.77 0.05,-11.86 -0.71,-17.67 -15.91,-92.88 -31.56,-185.79 -47.4,-278.68 -3.74,-21.3 -6.96,-42.71 -11.18,-63.92 -2.41,1.98 -3.95,4.71 -4.41,7.78 m 24.01,21.27 c 5.94,3.66 10.22,9.27 15.72,13.47 1.32,-2.18 2.31,-4.52 3.48,-6.77 1.44,-2.91 4.12,-4.86 6.53,-6.9 -1.53,-4.83 -1.41,-9.92 -0.67,-14.87 -2.87,-1.31 -5.73,-2.65 -8.74,-3.58 -5.59,6.08 -11.32,12.08 -16.32,18.65 m 32.2,-12.48 c -3.13,3.65 -0.6,8.11 -0.52,12.24 -0.13,3.79 -3.59,5.93 -5.61,8.72 -2.84,4.04 -4.64,8.72 -5.97,13.46 3.01,1.61 6.61,1.51 9.57,3.26 3.91,1.7 5.08,6.94 9.56,7.75 7.3,1.46 15.86,-2.32 18.82,-9.4 1.18,-2.36 1.75,-5.4 4.31,-6.7 2.5,-1.29 5.26,-1.92 7.91,-2.79 -2.03,-5.02 -5.86,-9.08 -10.3,-12.09 -3.97,-2.59 -8.78,-3.15 -13.13,-4.81 -3.94,-1.54 -3.8,-6.74 -6.99,-9.15 -2.1,-2.11 -5.21,-1.61 -7.65,-0.49 m 248.93,13.37 c 1.31,5.26 1.65,10.82 3.81,15.84 8.03,-0.69 16.11,-0.58 24.14,-1.27 -0.18,-7.19 0.6,-14.36 0.51,-21.54 -5.51,0.18 -11.03,-0.14 -16.43,-1.24 -4.5,-0.74 -8.69,-2.68 -13.17,-3.47 -1.36,3.9 0.52,7.83 1.14,11.68 m -201.31,9.32 c -1.85,2.92 0.78,6.3 -0.25,9.43 -1.67,2.88 -5.35,2.91 -7.97,4.44 -5.29,2.69 -6.85,9.01 -11.31,12.61 -8.08,6.67 -20.39,7.62 -29.44,2.4 -2.69,-1.5 -4.45,-4.16 -7.02,-5.8 -3.7,-1.18 -7.69,-0.99 -11.45,-1.96 -0.9,-3.14 -1.16,-6.43 -2.16,-9.54 -3.78,-5.41 -8.64,-10 -13.57,-14.35 2.55,17.83 5.72,35.57 8.62,53.35 7.67,45.3 15.43,90.58 23.4,135.84 7.64,43.64 14.98,87.35 23.34,130.87 2.8,-1.19 5.8,-2.03 8.43,-3.6 1.45,-2.76 0.13,-6.26 1.71,-9.03 1.65,-3.42 5.19,-5.17 8.09,-7.36 -0.67,-4.32 -1.95,-8.5 -3.01,-12.72 -4.96,-18.61 -9.69,-37.29 -14.57,-55.92 -0.97,-3.51 -1.28,-7.3 -3.17,-10.48 -1.25,-1.88 -3.77,-1.75 -5.69,-2.36 -0.84,-3.71 -1.29,-7.5 -1.21,-11.3 0.4,-4.54 -3.63,-7.49 -5.15,-11.38 -3.44,-7.39 -2.18,-16.87 3.79,-22.6 2.57,-3.02 6.97,-5.45 6.68,-9.97 -0.2,-4.03 0.5,-8.03 2.09,-11.74 2.39,0.93 4.79,1.86 7.22,2.75 4.39,-8.48 8.86,-16.91 12.99,-25.53 -2.08,-3.95 -4.52,-8 -4.47,-12.61 -0.54,-14.09 5.4,-27.23 10.43,-40.06 4.54,-11.87 9.01,-23.82 14.92,-35.09 1.49,-2.97 3.61,-5.64 4.65,-8.81 -0.64,-2.88 -2.13,-5.45 -3.32,-8.12 -3.57,-8.06 -6.87,-16.27 -9.03,-24.84 -1.27,1.06 -2.84,1.93 -3.57,3.48 m 197.74,17.88 c 1.4,7.64 2.67,15.3 4.31,22.88 7.47,0.49 15.92,-0.6 22.16,4.47 -1.23,1.78 -1.97,4.82 -4.71,4.6 -8.74,-0.05 -17.96,-3.88 -26.31,0.47 -4.62,2.56 -11.42,4.99 -11.31,11.34 0.05,4.88 0.49,10.73 4.19,14.33 2.92,-1.03 5.71,-0.21 8.29,1.26 2.67,-0.9 5.35,-1.99 8.23,-1.26 0.71,-0.7 1.43,-1.39 2.17,-2.07 1.21,-0.49 2.73,-0.5 3.71,-1.45 1.4,-3.7 1.48,-7.7 2.07,-11.56 5.59,-2.17 11.65,-0.65 17.38,-1.94 4.34,-7.79 4.38,-16.96 6.64,-25.38 1.86,-6.29 8.38,-8.79 12.6,-13.15 0.9,-2.26 -2.13,-2.83 -3.72,-3.12 -6.98,-0.01 -13.95,-0.58 -20.93,-0.54 -8.28,0.19 -16.68,-1.36 -24.77,1.12 m -171.3,17.68 c -3.33,0.05 -4.69,3.43 -5.96,5.95 -3.24,6.92 -6.92,13.63 -10.03,20.61 17.98,6.08 36.92,9.88 55.95,9.43 18.63,-0.5 37.1,-5.07 53.92,-13.07 -5.01,-7.83 -11.07,-14.93 -16.42,-22.53 -1.56,-2.58 -4.9,-1.85 -7.42,-1.97 -23.35,0.38 -46.78,-0.98 -70.04,1.58 m 78.56,37.26 c -17.92,5.77 -36.96,7.47 -55.7,6.61 -9.91,-0.61 -19.98,-1.37 -29.41,-4.66 -4.15,-1.43 -7.95,-3.61 -11.9,-5.46 -2.45,6.4 -4.35,13.01 -6.83,19.41 4.26,3.5 9.13,6.57 14.76,7.14 2.24,-3.59 3.73,-7.96 7.48,-10.32 6.01,-3.82 14.79,-3.98 20.33,0.79 4.23,4.69 5.64,11.07 8.38,16.63 10.18,1.2 20.44,-0.2 30.4,-2.3 11.29,-2.28 22.35,-5.69 32.97,-10.16 5.89,-2.62 11.67,-5.7 16.43,-10.13 -2.63,-5.16 -5.06,-10.42 -7.71,-15.56 -6.3,2.9 -12.72,5.55 -19.2,8.01 m 47.51,-5.1 c -0.92,7.55 -0.46,15.16 -0.56,22.75 0.14,17.01 -0.65,34.02 -0.45,51.04 0.25,16.52 -0.77,33.11 1.16,49.57 2.06,19.04 6.05,37.99 13.17,55.81 8.9,22.98 23.32,44.09 42.74,59.43 4.96,3.75 9.77,7.99 15.75,10.05 15.31,-7.75 27.98,-20 38.77,-33.21 17.27,-21.74 27.02,-48.64 31.05,-75.9 2.51,-17.81 1.84,-35.82 1.92,-53.75 0,-19.33 0,-38.67 0,-58 -0.05,-9.26 0.27,-18.53 -0.52,-27.76 -26.18,0.01 -52.36,0.01 -78.54,0 -0.68,4.27 -1.34,8.78 -4.13,12.28 -2.58,3.03 -6.31,5.59 -10.48,5.14 -4.29,-0.35 -8.54,1.89 -12.74,0.31 -4.18,-1.21 -9.19,-1.37 -12.19,-4.95 -3.29,-3.4 -3.67,-8.36 -4.68,-12.74 -6.76,-0.07 -13.51,0.03 -20.27,-0.07 m -98.53,43.56 c 2,7.54 2.1,15.64 5.18,22.85 11.99,-2.11 23.92,-4.82 35.57,-8.38 13.14,-4.34 25.74,-10.28 37.68,-17.25 2.83,-2.16 6.99,-3.93 7.64,-7.81 -1.18,-4.29 -2.98,-8.41 -5.37,-12.16 -24.15,14.75 -52.24,23.66 -80.7,22.75 m -24.28,-18.5 c -7.16,4.13 -9.81,12.64 -11.56,20.22 3.27,2.44 7.26,3.59 11.19,4.48 6.06,1.27 12.31,2.2 18.49,1.18 -2.3,-7.15 -4.21,-14.46 -7.24,-21.34 -1.84,-3.87 -6.75,-7.16 -10.88,-4.54 m -32.66,21.26 c 0.79,4.86 3.87,9.17 7.88,11.92 2.24,1.16 3.96,-1.5 4.3,-3.4 1.35,-5.83 2.41,-11.73 3.95,-17.51 -5.03,-2.11 -10.01,-4.32 -15.02,-6.47 -1.15,5.05 -2.16,10.3 -1.11,15.46 m 19.36,6.87 c -1,3.8 -1.53,7.69 -2.4,11.52 -0.29,1.76 -1.78,3.38 -3.66,3.32 -4.51,-0.07 -8.3,-2.86 -12.48,-4.18 -4.33,7.56 -9.18,14.88 -12.27,23.08 5.2,1.66 10.56,2.75 15.79,4.27 1.56,0.64 3.8,1.49 3.72,3.53 0.53,3.61 -3.12,6.65 -2.1,10.2 2.84,1.48 6.25,-0.15 9.25,0.87 2.28,0.8 4.22,2.28 6.24,3.59 13.28,-10.02 25.36,-21.7 34.86,-35.41 -6.42,-2.98 -4.57,-10.81 -4.77,-16.47 -10.83,2.09 -22.33,0.72 -32.18,-4.32 m 47.54,20.7 c 1.68,5.33 3.78,10.51 5.39,15.87 1.34,3.48 3.69,7 7.15,8.65 6.33,0.55 12.08,-5.5 18.45,-3.04 2.87,2.6 2.8,8.62 7.5,9.18 4.06,-0.7 7.9,-2.32 11.9,-3.29 1.57,-14.14 2.37,-28.36 3.87,-42.5 -17.63,6.39 -35.22,14.39 -54.26,15.13 M 483,709.14 c -0.26,2.16 0.2,4.66 -1.24,6.52 -2.34,3.05 -6.07,4.66 -8.28,7.83 -2.48,3.13 -3.94,7.52 -2.33,11.39 1.09,3.8 4.34,6.3 6.37,9.55 1.77,2.73 0.88,6.09 0.8,9.12 5.34,0.87 10.83,0.56 16.05,-0.9 1.13,-3.53 2.25,-7.55 5.6,-9.63 3.82,-2.78 8.68,-1.1 12.88,-0.4 5.54,-0.81 6.91,-8.89 2.82,-12.18 -3.38,-2.34 -7.35,0.36 -11.05,0.2 -5.67,-3.89 -2.35,-11.77 -5.21,-17.13 -1.16,-1.34 -2.97,-1.58 -4.6,-1.85 -3.99,-0.61 -7.87,-1.7 -11.81,-2.52 m 96.47,12.73 c 1.3,1.57 3.01,3.01 3.47,5.1 0.99,4.89 -4.12,9.08 -2.11,13.98 1.16,5.05 5.66,8.17 10.13,10.14 2.87,0.99 3.09,4.19 3.75,6.7 3.83,-1.06 7.57,-2.39 11.37,-3.55 0.67,-5.78 0.9,-12.02 4.12,-17.05 3.24,-4.6 10.66,-0.52 13.61,-5.53 2.01,-2.63 -0.07,-6.51 -2.88,-7.5 -3.33,-1.69 -5.68,2.37 -8.76,2.86 -3.84,0.34 -8.06,0.4 -11.36,-1.89 -2.65,-1.52 -3.67,-4.63 -5.95,-6.53 -5.2,0.61 -10.25,2.24 -15.39,3.27 m 37.97,22.57 c -3.91,4.84 -1.69,11.61 -4.14,17.03 -4.56,0.77 -9.32,1.67 -12.55,5.31 2.54,12.84 5.35,25.61 8.18,38.39 2.76,12.06 4.37,24.4 3.9,36.79 4.62,1.75 9.22,3.98 12.72,7.57 2.76,3.05 4.76,6.71 6.23,10.55 1.56,-1.2 3.31,-2.79 2.82,-4.99 -0.66,-5.11 -0.12,-10.22 0.66,-15.27 2.14,-17.14 5.47,-34.3 4.78,-51.63 -0.43,-16.29 -7.7,-31.39 -16.44,-44.78 -1.61,-2.69 -4.75,-0.82 -6.16,1.03 m -110.47,5.92 c -2.99,3.04 -2.9,8.73 -7.49,10.12 -4.3,1.53 -8.93,1.53 -13.4,2.07 3.19,12.21 7.59,24.11 10.01,36.52 3.39,13.72 6.18,27.57 9.32,41.35 0.46,2.73 2.85,4.6 5.46,5.15 3.73,0.97 7.25,2.84 9.83,5.76 2.79,2.92 3.88,6.94 6.26,10.16 1.19,-4.74 0.64,-9.65 0.74,-14.47 -0.24,-15.34 0.92,-30.65 1.11,-45.98 1.25,-16.75 -1.9,-34.37 -11.38,-48.46 -2.26,-3.64 -6.91,-2.8 -10.46,-2.22 m 92.47,103.27 c 6.01,2.93 12.77,5.66 16.36,11.69 2.65,5.11 1.82,11.08 2.16,16.63 3.91,-0.35 8.2,-2.77 8.55,-7.07 1.08,-10.12 -3.93,-21.88 -14,-25.52 -4.7,-2.06 -10.05,0.53 -13.07,4.27 m -105.16,3.27 c 0.85,0.91 1.71,1.82 2.58,2.75 5.23,0.45 11.3,1.24 14.33,6.14 3.28,4.24 2.12,10.08 4.97,14.48 1.54,-0.76 3.55,-1.09 4.41,-2.77 2.86,-4.7 1.85,-10.41 0.18,-15.33 -1.93,-6.76 -8.83,-11.45 -15.75,-11.4 -4.17,0.43 -8.87,2.01 -10.72,6.13 m 92.76,13.14 c -5.22,3.1 -11.35,3.81 -16.87,6.18 -5.35,2.41 -11.57,4.04 -14.8,9.42 4.42,-1 8.91,-2.75 13.52,-1.85 3.43,0.42 6.58,2.27 10.11,2.15 10.72,0.5 20.28,-5.12 30.45,-7.55 3.32,-7.02 -2.36,-14.28 -8.59,-17.18 -4.7,2.8 -8.81,6.55 -13.82,8.83 m 46.29,-1.41 c 0.27,2.52 0.43,5.06 0.57,7.61 2.39,0.39 5.33,0.83 6.84,-1.61 3.22,-3.38 1.52,-8.22 0.15,-12.01 -2.86,1.54 -5.22,3.8 -7.56,6.01 m -98.14,-4.39 c -1.37,3.35 -3.99,5.68 -7.49,6.63 -0.01,1.88 -0.02,3.77 -0.02,5.67 2.62,0.08 6.82,1.48 8.19,-1.62 1.06,-3.45 0.84,-7.26 0.12,-10.75 l -0.8,0.07 m -47.56,6.35 c -7.07,4.4 -15.56,5.31 -23.69,5.81 -4.91,0.47 -10.01,0.13 -14.69,1.93 5.24,2.01 10.72,3.29 16.21,4.42 14.47,2.81 29.79,0.55 42.98,-5.97 -0.87,-5.56 -5.65,-10.52 -11.44,-10.62 -3.7,-0.13 -6.39,2.7 -9.37,4.43 z"
         inkscape:connector-curvature="0"
         style="opacity:1;fill:#d5ff00" />
      <path
         id="path149"
         d="m 724.41,641.88 c 4.01,-1.23 8.21,-0.91 12.33,-0.64 0.23,7.56 0.62,15.12 0.48,22.7 5.31,0.59 10.69,0.16 16.01,0.84 0.03,41.38 -0.06,82.77 0.05,124.16 3.88,0.15 7.77,0.16 11.66,-0.06 0.75,-13.94 0.19,-27.92 0.37,-41.87 0.06,-30.36 0.01,-60.72 -0.01,-91.08 4.05,-0.01 8.1,-0.01 12.16,-0.01 0.53,14.69 0.57,29.39 0.5,44.09 0.35,25.99 0.5,52 -0.01,77.99 -0.08,7.56 0.29,15.15 -0.39,22.7 -31.01,1.37 -62.11,1.03 -93.15,0.46 -1.31,-24.03 -0.48,-48.11 -0.72,-72.16 0.23,-24.45 -0.51,-48.93 0.52,-73.36 3.76,-0.22 7.53,-0.21 11.31,-0.18 0.65,16.51 0.1,33.06 0.29,49.58 -0.07,24.65 0.08,49.3 -0.01,73.95 0.03,2.91 -0.2,5.86 0.37,8.75 1.23,1.94 3.83,1.51 5.81,1.73 2.44,-0.07 6.8,0.22 6.41,-3.41 0.07,-38.7 0,-77.39 0.04,-116.09 0.02,-1.91 0.23,-3.81 0.45,-5.69 5.18,0.04 10.36,0.02 15.55,0.01 -0.01,-7.47 0.03,-14.94 -0.02,-22.41 m -3.16,35 c -0.79,5 -0.43,10.07 -0.49,15.1 -0.27,11.66 -0.23,23.32 -0.47,34.97 0.6,20.65 0.06,41.33 0.97,61.96 5.9,0.56 11.9,1.03 17.79,0.11 1.86,-0.22 1.7,-2.59 1.84,-3.96 0.02,-30.7 0,-61.41 0.01,-92.11 -0.04,-5.36 0.27,-10.76 -0.61,-16.07 -6.35,-0.08 -12.69,-0.3 -19.04,0 z"
         inkscape:connector-curvature="0"
         style="opacity:1;fill:#d5ff00" />
      <path
         id="path151"
         d="m 613.75,1004.56 c 3.39,0.12 6.8,0.17 10.16,0.69 3.29,0.68 2.83,7.01 -0.79,6.7 -3.14,0.22 -6.29,0.06 -9.42,0.08 0,-2.5 0.01,-4.99 0.05,-7.47 z"
         inkscape:connector-curvature="0"
         style="opacity:1;fill:#d5ff00" />
      <path
         id="path153"
         d="m 653.23,1021.22 c 1.56,-4.07 3.45,-8.02 5.75,-11.72 1.52,4.04 2.68,8.22 3.78,12.41 -3.19,-0.14 -6.36,-0.44 -9.53,-0.69 z"
         inkscape:connector-curvature="0"
         style="opacity:1;fill:#d5ff00" />
      <path
         id="path155"
         d="m 455.47,1015.45 c 3.12,-0.24 6.89,-0.83 9.28,1.72 3.87,3.12 4.34,9 2.63,13.38 -2.42,5.67 -10.55,7.02 -15.09,3.15 -5.22,-4.98 -4.76,-16.28 3.18,-18.25 z"
         inkscape:connector-curvature="0"
         style="opacity:1;fill:#d5ff00" />
      <path
         id="path157"
         d="m 613.36,1018.56 c 4.02,0.29 8.37,-0.8 12.16,0.92 2.42,1.05 1.19,4.02 1.15,6.03 -4.35,1.68 -8.96,0.38 -13.45,0.41 0.03,-2.46 0.08,-4.91 0.14,-7.36 z"
         inkscape:connector-curvature="0"
         style="opacity:1;fill:#d5ff00" />
      <path
         id="path159"
         d="m 739.01,1018.54 c 3.41,0.85 7.37,0.75 10.18,3.16 1.24,2.12 1.38,5.36 -0.15,7.39 -3.3,3.08 -8,0.75 -11.87,0.36 0.43,-3.67 1.15,-7.29 1.84,-10.91 z"
         inkscape:connector-curvature="0"
         style="opacity:1;fill:#d5ff00" />
      <path
         id="path161"
         d="m 383.38,1030.55 c 3.28,-1.26 7.31,-1.3 10.23,0.88 4.25,3.46 5.24,10.06 2.58,14.77 -2.89,4.53 -9.64,5.66 -14,2.65 -5.75,-4.36 -5.88,-15.16 1.19,-18.3 z"
         inkscape:connector-curvature="0"
         style="opacity:1;fill:#d5ff00" />
      <path
         id="path163"
         d="m 340.07,1042.37 c 3.59,-0.9 7.13,-2.66 10.91,-2.29 2.11,0.83 1.96,3.27 2.15,5.14 -3.29,2.62 -7.45,3.53 -11.49,4.31 -0.72,-2.35 -1.39,-4.72 -1.57,-7.16 z"
         inkscape:connector-curvature="0"
         style="opacity:1;fill:#d5ff00" />
      <path
         id="path165"
         d="m 855.93,1049.2 c 3.15,0.8 6.45,1.64 9.07,3.69 2.34,2.55 1.63,7.98 -2.06,8.91 -3.56,0.64 -6.89,-1.07 -10.18,-2.09 0.78,-3.59 2.17,-6.99 3.17,-10.51 z"
         inkscape:connector-curvature="0"
         style="opacity:1;fill:#d5ff00" />
      <path
         id="path167"
         d="m 343.63,1055.87 c 4.3,-1.58 8.7,-3.21 13.36,-2.99 1.28,1.81 2.39,4.57 0.49,6.4 -3.59,1.95 -7.62,2.9 -11.59,3.73 -0.74,-2.39 -1.5,-4.77 -2.26,-7.14 z"
         inkscape:connector-curvature="0"
         style="opacity:1;fill:#d5ff00" />
      <path
         id="path169"
         d="m 903.7,1082.02 c 2.75,-3.2 5.75,-6.18 8.8,-9.09 0.73,4.29 0.39,8.66 0.29,13 -3.11,-1.13 -6.11,-2.5 -9.09,-3.91 z"
         inkscape:connector-curvature="0"
         style="opacity:1;fill:#d5ff00" />
      <path
         id="path171"
         d="m 519.35,1114.3 c 5.43,-1.81 11.89,-1.76 16.67,1.7 6.32,4.03 7.56,13.41 3.66,19.53 -3.81,5.98 -9.02,10.87 -13.96,15.9 5.84,0.07 11.69,0.02 17.53,0.04 0,3.33 0,6.67 0,10.02 -10.96,0.03 -21.93,-0.02 -32.88,0.03 -0.02,-2.76 -0.23,-5.52 0.08,-8.24 5.85,-8.02 14.34,-13.77 19.72,-22.14 2.22,-2.91 0.53,-7.72 -3.18,-8.19 -4.16,-0.68 -6.77,3.37 -8.98,6.22 -3.01,-1.65 -5.93,-3.42 -8.8,-5.28 2.49,-3.96 5.62,-7.89 10.14,-9.59 z"
         inkscape:connector-curvature="0"
         style="opacity:1;fill:#d5ff00" />
      <path
         id="path173"
         d="m 556.39,1117.38 c 4.79,-4.35 11.98,-4.95 18.07,-3.63 5.85,1.18 10.24,6.12 12.02,11.65 2.44,7.64 1.73,15.82 0.67,23.64 -2.36,4.45 -4.65,9.54 -9.71,11.48 -6.41,2.44 -14.31,2.21 -20.01,-1.89 -5.25,-4.22 -7.21,-11.2 -7.66,-17.67 -0.55,-8.22 0.65,-17.41 6.62,-23.58 m 9.82,5.77 c -3.84,1.61 -4.98,6.21 -5.53,9.95 -0.66,5.77 -0.48,12.26 3.08,17.13 2.46,3.39 7.82,3.25 10.43,0.14 3.01,-4.11 3.51,-9.49 3.34,-14.42 -0.38,-4.23 -0.96,-9.08 -4.41,-12.01 -1.83,-1.78 -4.71,-2.01 -6.91,-0.79 z"
         inkscape:connector-curvature="0"
         style="opacity:1;fill:#d5ff00" />
      <path
         id="path175"
         d="m 608.61,1113.74 c 6.76,-1.53 14.9,-0.56 19.52,5.13 4.34,5.69 5.58,13.13 5.28,20.14 -0.18,6.65 -1.65,13.96 -6.74,18.67 -4.36,4.35 -11.09,4.86 -16.87,4.03 -6.38,-0.85 -11.38,-6.15 -13.23,-12.11 -2.09,-7.44 -2.29,-15.53 -0.23,-23 1.54,-6.01 5.96,-11.59 12.27,-12.86 m 1.86,9.76 c -2.99,2.17 -4.05,6 -4.57,9.47 -0.86,5.37 -0.35,11.13 2.09,16.05 1.76,3.61 7.1,5.1 10.19,2.31 3.92,-3.16 4.31,-8.63 4.66,-13.27 -0.12,-4.36 -0.61,-9.02 -3.13,-12.71 -1.93,-3.01 -6.29,-3.73 -9.24,-1.85 z"
         inkscape:connector-curvature="0"
         style="opacity:1;fill:#d5ff00" />
      <path
         id="path177"
         d="m 642.05,1114.21 c 9.42,0.03 18.84,-0.02 28.26,0 -0.05,3.18 -0.04,6.37 -0.02,9.57 -6.03,0.03 -12.06,-0.03 -18.09,0.05 -0.06,2.28 -0.09,4.58 -0.13,6.88 4.94,-0.6 10.43,-0.48 14.61,2.57 8.37,5.29 8.34,19.13 0.53,24.91 -8.21,6.57 -20.97,4.39 -27.9,-3.08 1.72,-3.05 3.89,-5.81 5.81,-8.72 3.39,2.74 7.25,6.17 11.97,5.34 2.97,-0.34 4.39,-3.34 5.43,-5.76 -0.94,-2.39 -2.18,-5.1 -4.97,-5.66 -3.93,-1.72 -7.9,0.7 -11.47,2.18 -1.34,-1.59 -2.64,-3.19 -3.99,-4.74 -0.09,-7.85 -0.02,-15.7 -0.04,-23.54 z"
         inkscape:connector-curvature="0"
         style="opacity:1;fill:#d5ff00" />
      <path
         id="path179"
         d="m 394.03,1119.02 c 3.22,-1.4 6.68,-2.12 10.03,-3.11 3.1,-1.21 5.58,1.63 7.51,3.63 11.02,10.3 22.02,20.66 33.65,30.3 30.47,25.4 63.55,47.65 98.44,66.53 15.52,8.14 31.16,16.25 47.57,22.47 17.16,-6.66 33.56,-15.19 49.82,-23.78 31.24,-17.01 60.9,-36.91 88.56,-59.26 9.89,-8.02 19.75,-16.12 28.95,-24.94 2.88,-1.83 4.69,-4.83 7.4,-6.85 2.79,-2.14 4.9,-4.99 7.52,-7.31 2.11,-1.74 5.04,-0.9 7.55,-1.02 2.64,1.37 5.63,1.85 8.32,3.14 -2.54,3.26 -5.72,5.93 -8.37,9.1 -2.6,3.52 -6.86,5.33 -9.25,9.08 -3.42,2.26 -6.14,5.4 -9.17,8.14 -1.28,0.89 -2.46,1.91 -3.49,3.08 -7.87,6.73 -15.85,13.31 -23.79,19.94 -31.81,24.89 -65.7,47.26 -101.98,65.12 -9.93,5.26 -20.11,10.01 -30.38,14.55 -5.17,2.45 -11.05,5.69 -16.8,2.97 -45.2,-19.3 -88.17,-43.94 -127.34,-73.66 -14.25,-10.65 -27.77,-22.23 -41.13,-33.95 -1.39,-1.62 -2.87,-3.18 -4.72,-4.25 -2.42,-3.24 -6.03,-5.24 -8.56,-8.35 -1.98,-2.4 -4.85,-3.82 -6.71,-6.32 -1.26,-1.75 -3.89,-2.76 -3.63,-5.25 z"
         inkscape:connector-curvature="0"
         style="opacity:1;fill:#d5ff00" />
    </g>
  </g>
</svg>
