<?xml version="1.0" encoding="UTF-8" standalone="no"?>
<!-- Created with Inkscape (http://www.inkscape.org/) -->

<svg
   xmlns:dc="http://purl.org/dc/elements/1.1/"
   xmlns:cc="http://creativecommons.org/ns#"
   xmlns:rdf="http://www.w3.org/1999/02/22-rdf-syntax-ns#"
   xmlns:svg="http://www.w3.org/2000/svg"
   xmlns="http://www.w3.org/2000/svg"
   xmlns:sodipodi="http://sodipodi.sourceforge.net/DTD/sodipodi-0.dtd"
   xmlns:inkscape="http://www.inkscape.org/namespaces/inkscape"
   version="1.1"
   id="svg10"
   xml:space="preserve"
   width="244.948969992"
   height="408.248297608"
   viewBox="0 0 400 666.66669"
   sodipodi:docname="K.F. Renova.svg"
   inkscape:version="0.92.1 r15371"><metadata
     id="metadata16"><rdf:RDF><cc:Work
         rdf:about=""><dc:format>image/svg+xml</dc:format><dc:type
           rdf:resource="http://purl.org/dc/dcmitype/StillImage" /><dc:title></dc:title></cc:Work></rdf:RDF></metadata><defs
     id="defs14"><clipPath
       clipPathUnits="userSpaceOnUse"
       id="clipPath26"><path
         d="M 0,500 H 300 V 0 H 0 Z"
         id="path24"
         inkscape:connector-curvature="0" /></clipPath><clipPath
       clipPathUnits="userSpaceOnUse"
       id="clipPath86"><path
         d="m 73.599,383.452 c 0,-42.194 34.206,-76.4 76.4,-76.4 v 0 c 42.196,0 76.402,34.206 76.402,76.4 v 0 c 0,42.194 -34.206,76.399 -76.402,76.399 v 0 c -42.194,0 -76.4,-34.205 -76.4,-76.399"
         id="path84"
         inkscape:connector-curvature="0" /></clipPath><clipPath
       clipPathUnits="userSpaceOnUse"
       id="clipPath102"><path
         d="M 0,500 H 300 V 0 H 0 Z"
         id="path100"
         inkscape:connector-curvature="0" /></clipPath></defs><sodipodi:namedview
     pagecolor="#ffffff"
     bordercolor="#666666"
     borderopacity="1"
     objecttolerance="10"
     gridtolerance="10"
     guidetolerance="10"
     inkscape:pageopacity="0"
     inkscape:pageshadow="2"
     inkscape:window-width="1680"
     inkscape:window-height="987"
     id="namedview12"
     showgrid="false"
     inkscape:zoom="1.182"
     inkscape:cx="200"
     inkscape:cy="333.33334"
     inkscape:window-x="-8"
     inkscape:window-y="-8"
     inkscape:window-maximized="1"
     inkscape:current-layer="g18" /><g
     id="g18"
     inkscape:groupmode="layer"
     inkscape:label="K.F. Renova"
     transform="matrix(1.3333333,0,0,-1.3333333,0,666.66667)"><g
       id="g20"><g
         id="g22"
         clip-path="url(#clipPath26)"><g
           id="g28"
           transform="translate(150,350.2505)"><path
             d="m 0,0 h -129.899 v -227.84 c 0,-20.118 1.979,-51.463 28.201,-66.434 C -75.479,-309.245 0,-342.461 0,-342.461 c 0,0 75.479,33.216 101.701,48.187 26.22,14.971 28.198,46.316 28.198,66.434 V 0 Z"
             style="fill:#ffffff;fill-opacity:1;fill-rule:nonzero;stroke:none"
             id="path30"
             inkscape:connector-curvature="0" /></g><g
           id="g32"
           transform="translate(150,350.2505)"><path
             d="m 0,0 h -129.899 v -227.84 c 0,-20.118 1.979,-51.463 28.201,-66.434 C -75.479,-309.245 0,-342.461 0,-342.461 c 0,0 75.479,33.216 101.701,48.187 26.22,14.971 28.198,46.316 28.198,66.434 V 0 Z"
             style="fill:none;stroke:#231f20;stroke-width:7;stroke-linecap:butt;stroke-linejoin:miter;stroke-miterlimit:10;stroke-dasharray:none;stroke-opacity:1"
             id="path34"
             inkscape:connector-curvature="0" /></g><g
           id="g36"
           transform="translate(20.1006,350.2505)"><path
             d="m 0,0 v -227.84 c 0,-20.118 1.979,-51.463 28.201,-66.434 2.577,-1.473 5.637,-3.123 9.049,-4.898 V 0 Z"
             style="fill:#039ed2;fill-opacity:1;fill-rule:nonzero;stroke:none"
             id="path38"
             inkscape:connector-curvature="0" /></g><g
           id="g40"
           transform="translate(57.3511,350.2505)"><path
             d="m 0,0 v -299.172 c 10.259,-5.34 23.748,-11.83 37.251,-18.147 V 0 Z"
             style="fill:#ffffff;fill-opacity:1;fill-rule:nonzero;stroke:none"
             id="path42"
             inkscape:connector-curvature="0" /></g><g
           id="g44"
           transform="translate(94.6025,350.2505)"><path
             d="m 0,0 v -317.319 c 13.475,-6.303 26.958,-12.426 37.25,-17.055 V 0 Z"
             style="fill:#039ed2;fill-opacity:1;fill-rule:nonzero;stroke:none"
             id="path46"
             inkscape:connector-curvature="0" /></g><g
           id="g48"
           transform="translate(150,350.2505)"><path
             d="M 0,0 H -18.147 V -334.374 C -7.301,-339.249 0,-342.461 0,-342.461 c 0,0 7.735,3.402 19.104,8.519 V 0 Z"
             style="fill:#ffffff;fill-opacity:1;fill-rule:nonzero;stroke:none"
             id="path50"
             inkscape:connector-curvature="0" /></g><g
           id="g52"
           transform="translate(169.1045,350.2505)"><path
             d="m 0,0 v -333.942 c 10.41,4.686 23.868,10.805 37.249,17.07 V 0 Z"
             style="fill:#039ed2;fill-opacity:1;fill-rule:nonzero;stroke:none"
             id="path54"
             inkscape:connector-curvature="0" /></g><g
           id="g56"
           transform="translate(206.3535,350.2505)"><path
             d="m 0,0 v -316.872 c 13.606,6.373 27.119,12.891 37.252,18.2 V 0 Z"
             style="fill:#ffffff;fill-opacity:1;fill-rule:nonzero;stroke:none"
             id="path58"
             inkscape:connector-curvature="0" /></g><g
           id="g60"
           transform="translate(243.6055,51.5781)"><path
             d="m 0,0 c 3.028,1.586 5.76,3.066 8.096,4.398 26.219,14.971 28.198,46.317 28.198,66.434 v 227.84 H 0 Z"
             style="fill:#039ed2;fill-opacity:1;fill-rule:nonzero;stroke:none"
             id="path62"
             inkscape:connector-curvature="0" /></g><path
           d="m 186.379,94.877 h 48.95 v 168.059 h -48.95 z"
           style="fill:#049849;fill-opacity:1;fill-rule:nonzero;stroke:#ffffff;stroke-width:2;stroke-linecap:butt;stroke-linejoin:miter;stroke-miterlimit:10;stroke-dasharray:none;stroke-opacity:1"
           id="path64"
           inkscape:connector-curvature="0" /><g
           id="g66"
           transform="translate(180.7627,170.9102)"><path
             d="M 0,0 -61.984,91.075 V 15.799 L 0,-75.082 Z"
             style="fill:#ec2227;fill-opacity:1;fill-rule:nonzero;stroke:none"
             id="path68"
             inkscape:connector-curvature="0" /></g><g
           id="g70"
           transform="translate(180.7627,170.9102)"><path
             d="M 0,0 -61.984,91.075 V 15.799 L 0,-75.082 Z"
             style="fill:none;stroke:#ffffff;stroke-width:2;stroke-linecap:butt;stroke-linejoin:miter;stroke-miterlimit:10;stroke-dasharray:none;stroke-opacity:1"
             id="path72"
             inkscape:connector-curvature="0" /></g><path
           d="M 113.163,95.104 H 64.671 v 168.059 h 48.492 z"
           style="fill:#049849;fill-opacity:1;fill-rule:nonzero;stroke:#ffffff;stroke-width:2;stroke-linecap:butt;stroke-linejoin:miter;stroke-miterlimit:10;stroke-dasharray:none;stroke-opacity:1"
           id="path74"
           inkscape:connector-curvature="0" /><g
           id="g76"
           transform="translate(73.5996,383.4521)"><path
             d="m 0,0 c 0,-42.194 34.205,-76.4 76.399,-76.4 42.197,0 76.403,34.206 76.403,76.4 0,42.194 -34.206,76.399 -76.403,76.399 C 34.205,76.399 0,42.194 0,0"
             style="fill:#ffffff;fill-opacity:1;fill-rule:nonzero;stroke:none"
             id="path78"
             inkscape:connector-curvature="0" /></g></g></g><g
       id="g80"><g
         id="g82"
         clip-path="url(#clipPath86)"><g
           id="g88"
           transform="translate(134.8716,534.7407)"><path
             d="m 0,0 166.417,-136.16 -136.16,-166.417 -166.416,136.16 z"
             style="fill:#ffffff;fill-opacity:1;fill-rule:nonzero;stroke:none"
             id="path90"
             inkscape:connector-curvature="0" /></g><g
           id="g92"
           transform="translate(134.8716,534.7407)"><path
             d="m 0,0 166.417,-136.16 -136.16,-166.417 -166.416,136.16 z"
             style="fill:none;stroke:#231f20;stroke-width:3;stroke-linecap:butt;stroke-linejoin:miter;stroke-miterlimit:10;stroke-dasharray:none;stroke-opacity:1"
             id="path94"
             inkscape:connector-curvature="0" /></g></g></g><g
       id="g96"><g
         id="g98"
         clip-path="url(#clipPath102)"><g
           id="g104"
           transform="translate(73.5996,383.4521)"><path
             d="m 0,0 c 0,-42.194 34.205,-76.4 76.399,-76.4 42.197,0 76.403,34.206 76.403,76.4 0,42.194 -34.206,76.399 -76.403,76.399 C 34.205,76.399 0,42.194 0,0"
             style="fill:none;stroke:#231f20;stroke-width:3;stroke-linecap:butt;stroke-linejoin:miter;stroke-miterlimit:10;stroke-dasharray:none;stroke-opacity:1"
             id="path106"
             inkscape:connector-curvature="0" /></g><g
           id="g108"
           transform="translate(216.6455,382.6455)"><path
             d="m 0,0 c 0.085,-4.322 -1.795,-22.582 -8.441,-28.823 -0.966,-0.906 -1.808,-1.646 -2.548,-2.256 -8.491,-4.283 -15.701,-5.428 -19.727,-5.701 -3.296,-0.053 -4.02,1.098 -4.02,1.098 0,0 -12.305,18.162 -14.134,21.312 -0.676,1.16 -0.96,2.111 -1.052,2.849 1.171,2.413 3.499,7.397 5.26,12.421 2.683,7.646 3.883,12.394 4.377,14.66 0.592,0.825 1.815,1.836 4.322,2.772 4.741,1.772 10.436,4.504 19.993,5.225 0.187,0.014 0.384,0.011 0.587,0.002 C -7.841,18.261 -0.041,0.9 -0.041,0.9 -0.036,0.901 -0.035,0.903 -0.031,0.903 -0.019,0.623 -0.006,0.326 0,0 m -66.646,-62.816 c -9.077,0.25 -13.496,1.424 -15.622,2.393 -1.175,1.186 -13.879,14.177 -15.466,21.857 0.084,0.641 0.224,1.261 0.45,1.821 1.277,3.155 13.99,21.166 13.99,21.166 0,0 1.096,1.455 2.844,2.353 2.677,-0.261 7.837,-0.668 13.909,-0.668 6.79,0 13.703,0.657 15.451,0.833 0.983,-0.762 1.56,-1.531 1.56,-1.531 0,0 12.713,-18.011 13.989,-21.164 0.531,-1.317 0.607,-2.961 0.511,-4.435 -3.314,-8.142 -14.849,-19.677 -14.849,-19.677 0.025,-0.029 0.055,-0.057 0.077,-0.084 -2.917,-1.502 -8.111,-3.106 -16.844,-2.864 m -65.938,61.152 c 0.056,3.325 0.372,4.475 0.515,4.831 2.234,4.558 7.631,14.799 13.109,19.486 1.203,0.555 2.457,0.828 3.441,0.755 9.557,-0.721 15.25,-3.454 19.994,-5.224 1.004,-0.375 1.801,-0.763 2.436,-1.144 0.136,-0.811 1.061,-5.856 4.667,-16.14 1.923,-5.486 4.525,-10.925 5.556,-13.017 -0.032,-0.782 -0.287,-1.866 -1.087,-3.242 -1.832,-3.15 -14.137,-21.311 -14.137,-21.311 0,0 -0.326,-0.513 -1.519,-0.839 -3.473,0.058 -11.885,0.819 -22.035,6.077 -0.604,0.513 -1.268,1.104 -2.004,1.792 -6.665,6.224 -9.009,23.654 -8.936,27.976 m 25.708,62.422 c 5.85,4.075 12.315,5.935 16.131,6.739 -0.012,-0.058 -0.019,-0.098 -0.019,-0.098 11.259,0.16 20.987,-4.444 24.071,-6.074 0.395,-0.38 0.787,-1.055 0.878,-2.275 0.194,-2.635 -0.726,-22.802 -0.726,-22.802 0,0 0.008,-0.829 -0.637,-1.725 -2.114,-1.195 -9.023,-5.125 -13.334,-7.918 -4.082,-2.644 -9.514,-6.956 -11.664,-8.69 -1.458,0.101 -2.837,0.708 -2.837,0.708 -6.517,2.929 -17.796,5.273 -20.286,5.419 -1.086,0.064 -1.836,0.644 -2.339,1.277 -0.989,3.562 -3.23,13.442 -0.58,22.081 1.245,2.686 4.582,8.651 11.342,13.358 m 64.41,7.376 c 3.868,-0.864 9.992,-2.737 15.559,-6.613 9.009,-6.273 11.938,-14.783 11.938,-14.783 l 0.282,-0.323 c 2.513,-9.584 -0.593,-20.319 -1.175,-22.183 -0.109,-0.015 -0.213,-0.035 -0.327,-0.041 -2.49,-0.148 -13.769,-2.49 -20.29,-5.419 0,0 -2.488,-1.098 -4.318,-0.585 -0.182,0.048 -0.321,0.035 -0.434,-0.01 -2.332,1.876 -7.45,5.91 -11.338,8.428 -3.871,2.508 -9.837,5.935 -12.546,7.471 -0.492,0.649 -1.048,1.537 -0.992,2.172 0.095,1.123 0.509,20.884 0.779,23.046 0.107,0.852 0.293,1.495 0.5,1.984 7.357,4.354 18.905,6.339 22.362,6.856 M 7.478,9.786 C 7.381,25.898 -3.064,42.107 -3.064,42.107 c -5.286,4.549 -9.409,5.459 -11.133,5.631 -1.268,2.257 -5.142,8.426 -12.287,13.777 -5.209,3.898 -11.101,5.956 -15.118,6.997 -3.079,4.815 -9.224,6.992 -9.224,6.992 -17.382,4.491 -33.885,-0.587 -33.885,-0.587 -4.012,-2.721 -5.392,-5.491 -5.844,-6.776 -3.908,-0.871 -10.776,-2.922 -16.743,-7.39 -6.467,-4.84 -10.256,-10.355 -11.858,-13.032 -1.814,-0.213 -5.843,-1.205 -10.961,-5.612 0,0 -10.449,-16.209 -10.547,-32.321 0,0 2.077,-6.972 7.243,-8.79 0.013,-0.324 0.024,-0.67 0.031,-1.049 0.147,-6.884 2.419,-18.674 6.079,-25.34 1.57,-2.855 2.919,-4.803 3.586,-5.712 -0.653,-1.942 -2.152,-8.054 1.126,-16.527 0,0 7.031,-12.206 25.487,-19.726 0,0 9.177,0.847 14.601,6.477 2.126,-0.876 6.69,-2.089 15.865,-2.265 9.528,-0.184 14.84,1.346 17.497,2.53 5.461,-5.282 14.212,-6.088 14.212,-6.088 18.457,7.52 25.486,19.726 25.486,19.726 3.363,8.695 1.697,14.908 1.077,16.673 0.656,0.901 2.013,2.861 3.583,5.739 3.579,6.548 5.394,18.817 5.583,25.781 4.759,2.101 6.686,8.571 6.686,8.571"
             style="fill:#070405;fill-opacity:1;fill-rule:nonzero;stroke:none"
             id="path110"
             inkscape:connector-curvature="0" /></g><g
           id="g112"
           transform="translate(216.6455,382.6455)"><path
             d="m 0,0 c 0.085,-4.322 -1.795,-22.582 -8.441,-28.823 -0.966,-0.906 -1.808,-1.646 -2.548,-2.256 -8.491,-4.283 -15.701,-5.428 -19.727,-5.701 -3.296,-0.053 -4.02,1.098 -4.02,1.098 0,0 -12.305,18.162 -14.134,21.312 -0.676,1.16 -0.96,2.111 -1.052,2.849 1.171,2.413 3.499,7.397 5.26,12.421 2.683,7.646 3.883,12.394 4.377,14.66 0.592,0.825 1.815,1.836 4.322,2.772 4.741,1.772 10.436,4.504 19.993,5.225 0.187,0.014 0.384,0.011 0.587,0.002 C -7.841,18.261 -0.041,0.9 -0.041,0.9 -0.036,0.901 -0.035,0.903 -0.031,0.903 -0.019,0.623 -0.006,0.326 0,0 Z m -66.646,-62.816 c -9.077,0.25 -13.496,1.424 -15.622,2.393 -1.175,1.186 -13.879,14.177 -15.466,21.857 0.084,0.641 0.224,1.261 0.45,1.821 1.277,3.155 13.99,21.166 13.99,21.166 0,0 1.096,1.455 2.844,2.353 2.677,-0.261 7.837,-0.668 13.909,-0.668 6.79,0 13.703,0.657 15.451,0.833 0.983,-0.762 1.56,-1.531 1.56,-1.531 0,0 12.713,-18.011 13.989,-21.164 0.531,-1.317 0.607,-2.961 0.511,-4.435 -3.314,-8.142 -14.849,-19.677 -14.849,-19.677 0.025,-0.029 0.055,-0.057 0.077,-0.084 -2.917,-1.502 -8.111,-3.106 -16.844,-2.864 z m -65.938,61.152 c 0.056,3.325 0.372,4.475 0.515,4.831 2.234,4.558 7.631,14.799 13.109,19.486 1.203,0.555 2.457,0.828 3.441,0.755 9.557,-0.721 15.25,-3.454 19.994,-5.224 1.004,-0.375 1.801,-0.763 2.436,-1.144 0.136,-0.811 1.061,-5.856 4.667,-16.14 1.923,-5.486 4.525,-10.925 5.556,-13.017 -0.032,-0.782 -0.287,-1.866 -1.087,-3.242 -1.832,-3.15 -14.137,-21.311 -14.137,-21.311 0,0 -0.326,-0.513 -1.519,-0.839 -3.473,0.058 -11.885,0.819 -22.035,6.077 -0.604,0.513 -1.268,1.104 -2.004,1.792 -6.665,6.224 -9.009,23.654 -8.936,27.976 z m 25.708,62.422 c 5.85,4.075 12.315,5.935 16.131,6.739 -0.012,-0.058 -0.019,-0.098 -0.019,-0.098 11.259,0.16 20.987,-4.444 24.071,-6.074 0.395,-0.38 0.787,-1.055 0.878,-2.275 0.194,-2.635 -0.726,-22.802 -0.726,-22.802 0,0 0.008,-0.829 -0.637,-1.725 -2.114,-1.195 -9.023,-5.125 -13.334,-7.918 -4.082,-2.644 -9.514,-6.956 -11.664,-8.69 -1.458,0.101 -2.837,0.708 -2.837,0.708 -6.517,2.929 -17.796,5.273 -20.286,5.419 -1.086,0.064 -1.836,0.644 -2.339,1.277 -0.989,3.562 -3.23,13.442 -0.58,22.081 1.245,2.686 4.582,8.651 11.342,13.358 z m 64.41,7.376 c 3.868,-0.864 9.992,-2.737 15.559,-6.613 9.009,-6.273 11.938,-14.783 11.938,-14.783 l 0.282,-0.323 c 2.513,-9.584 -0.593,-20.319 -1.175,-22.183 -0.109,-0.015 -0.213,-0.035 -0.327,-0.041 -2.49,-0.148 -13.769,-2.49 -20.29,-5.419 0,0 -2.488,-1.098 -4.318,-0.585 -0.182,0.048 -0.321,0.035 -0.434,-0.01 -2.332,1.876 -7.45,5.91 -11.338,8.428 -3.871,2.508 -9.837,5.935 -12.546,7.471 -0.492,0.649 -1.048,1.537 -0.992,2.172 0.095,1.123 0.509,20.884 0.779,23.046 0.107,0.852 0.293,1.495 0.5,1.984 7.357,4.354 18.905,6.339 22.362,6.856 z M 7.478,9.786 C 7.381,25.898 -3.064,42.107 -3.064,42.107 c -5.286,4.549 -9.409,5.459 -11.133,5.631 -1.268,2.257 -5.142,8.426 -12.287,13.777 -5.209,3.898 -11.101,5.956 -15.118,6.997 -3.079,4.815 -9.224,6.992 -9.224,6.992 -17.382,4.491 -33.885,-0.587 -33.885,-0.587 -4.012,-2.721 -5.392,-5.491 -5.844,-6.776 -3.908,-0.871 -10.776,-2.922 -16.743,-7.39 -6.467,-4.84 -10.256,-10.355 -11.858,-13.032 -1.814,-0.213 -5.843,-1.205 -10.961,-5.612 0,0 -10.449,-16.209 -10.547,-32.321 0,0 2.077,-6.972 7.243,-8.79 0.013,-0.324 0.024,-0.67 0.031,-1.049 0.147,-6.884 2.419,-18.674 6.079,-25.34 1.57,-2.855 2.919,-4.803 3.586,-5.712 -0.653,-1.942 -2.152,-8.054 1.126,-16.527 0,0 7.031,-12.206 25.487,-19.726 0,0 9.177,0.847 14.601,6.477 2.126,-0.876 6.69,-2.089 15.865,-2.265 9.528,-0.184 14.84,1.346 17.497,2.53 5.461,-5.282 14.212,-6.088 14.212,-6.088 18.457,7.52 25.486,19.726 25.486,19.726 3.363,8.695 1.697,14.908 1.077,16.673 0.656,0.901 2.013,2.861 3.583,5.739 3.579,6.548 5.394,18.817 5.583,25.781 4.759,2.101 6.686,8.571 6.686,8.571 z"
             style="fill:none;stroke:#231f20;stroke-width:1;stroke-linecap:butt;stroke-linejoin:miter;stroke-miterlimit:10;stroke-dasharray:none;stroke-opacity:1"
             id="path114"
             inkscape:connector-curvature="0" /></g><path
           d="m 156.926,377.308 h 8.722 v 29.943 h -8.722 z"
           style="fill:#049849;fill-opacity:1;fill-rule:nonzero;stroke:none"
           id="path116"
           inkscape:connector-curvature="0" /><g
           id="g118"
           transform="translate(155.251,390.855)"><path
             d="M 0,0 -11.044,16.227 V 2.814 L 0,-13.378 Z"
             style="fill:#ec2227;fill-opacity:1;fill-rule:nonzero;stroke:none"
             id="path120"
             inkscape:connector-curvature="0" /></g><path
           d="m 142.533,377.348 h -8.64 v 29.943 h 8.64 z"
           style="fill:#049849;fill-opacity:1;fill-rule:nonzero;stroke:none"
           id="path122"
           inkscape:connector-curvature="0" /><g
           id="g124"
           transform="translate(49.5737,422.3301)"><path
             d="m 0,0 3.181,6.437 7.873,-3.89 -4.541,10.634 4.23,8.562 L 14.85,10.255 31.745,11.79 27.828,3.862 17.09,3.703 l 1.84,-5.048 5.084,-2.512 -3.181,-6.437 z"
             style="fill:#ec2227;fill-opacity:1;fill-rule:nonzero;stroke:none"
             id="path126"
             inkscape:connector-curvature="0" /></g><g
           id="g128"
           transform="translate(77.7041,438.4131)"><path
             d="M 0,0 4.295,5.395 9.354,1.366 5.06,-4.028 Z"
             style="fill:#ec2227;fill-opacity:1;fill-rule:nonzero;stroke:none"
             id="path130"
             inkscape:connector-curvature="0" /></g><g
           id="g132"
           transform="translate(74.2593,460.5161)"><path
             d="m 0,0 13.445,11.594 3.261,-3.782 -7.983,-6.883 2.65,-3.074 6.818,5.88 3.064,-3.553 -6.818,-5.88 6.2,-7.191 -5.462,-4.71 z"
             style="fill:#ec2227;fill-opacity:1;fill-rule:nonzero;stroke:none"
             id="path134"
             inkscape:connector-curvature="0" /></g><g
           id="g136"
           transform="translate(98.7871,458.9946)"><path
             d="M 0,0 5.796,3.735 9.299,-1.701 3.502,-5.436 Z"
             style="fill:#ec2227;fill-opacity:1;fill-rule:nonzero;stroke:none"
             id="path138"
             inkscape:connector-curvature="0" /></g><g
           id="g140"
           transform="translate(125.2822,479.2969)"><path
             d="M 0,0 2.948,0.69 C 3.267,0.765 3.86,1.012 4.728,1.432 5.169,1.634 5.492,1.958 5.696,2.408 5.9,2.857 5.944,3.329 5.829,3.822 5.658,4.553 5.295,5.06 4.74,5.342 4.186,5.625 3.271,5.617 1.995,5.318 L -1.077,4.599 Z M -3.871,-15.103 -9.168,7.523 2.484,10.251 c 2.161,0.507 3.856,0.708 5.084,0.605 1.229,-0.103 2.31,-0.574 3.245,-1.414 0.935,-0.839 1.571,-1.98 1.908,-3.42 C 13.015,4.767 13,3.622 12.678,2.585 12.356,1.549 11.793,0.639 10.989,-0.146 c -0.512,-0.5 -1.261,-0.99 -2.246,-1.47 0.898,-0.083 1.57,-0.219 2.015,-0.408 0.301,-0.125 0.766,-0.434 1.397,-0.928 0.631,-0.494 1.067,-0.885 1.308,-1.177 l 4.921,-5.763 -7.9,-1.85 -5.356,6.04 c -0.682,0.785 -1.24,1.266 -1.673,1.448 -0.587,0.231 -1.199,0.273 -1.836,0.123 l -0.618,-0.144 2.15,-9.183 z"
             style="fill:#ec2227;fill-opacity:1;fill-rule:nonzero;stroke:none"
             id="path142"
             inkscape:connector-curvature="0" /></g><g
           id="g144"
           transform="translate(144.9321,492.2109)"><path
             d="M 0,0 19.231,-0.673 19.056,-5.632 7.018,-5.21 6.889,-8.901 l 11.167,-0.391 -0.165,-4.738 -11.168,0.392 -0.16,-4.578 12.388,-0.434 -0.185,-5.259 -19.58,0.685 z"
             style="fill:#ec2227;fill-opacity:1;fill-rule:nonzero;stroke:none"
             id="path146"
             inkscape:connector-curvature="0" /></g><g
           id="g148"
           transform="translate(182.4014,462.521)"><path
             d="m 0,0 6.245,-2.343 8.046,21.442 -6.246,2.343 z"
             style="fill:#049849;fill-opacity:1;fill-rule:nonzero;stroke:none"
             id="path150"
             inkscape:connector-curvature="0" /></g><g
           id="g152"
           transform="translate(184.8437,472.6719)"><path
             d="M 0,0 -3.551,14.586 -7.153,4.982 -3.594,-9.58 Z"
             style="fill:#ec2227;fill-opacity:1;fill-rule:nonzero;stroke:none"
             id="path154"
             inkscape:connector-curvature="0" /></g><g
           id="g156"
           transform="translate(172.1064,466.4165)"><path
             d="m 0,0 -6.187,2.321 8.044,21.441 6.186,-2.32 z"
             style="fill:#049849;fill-opacity:1;fill-rule:nonzero;stroke:none"
             id="path158"
             inkscape:connector-curvature="0" /></g><g
           id="g160"
           transform="translate(200.5742,466.2227)"><path
             d="m 0,0 c -1.333,-1.931 -1.932,-3.565 -1.797,-4.904 0.136,-1.34 0.82,-2.435 2.055,-3.287 1.27,-0.877 2.537,-1.142 3.804,-0.797 1.266,0.346 2.637,1.589 4.114,3.728 1.242,1.8 1.788,3.366 1.636,4.698 C 9.659,0.77 8.961,1.865 7.717,2.723 6.525,3.546 5.278,3.785 3.975,3.44 2.67,3.094 1.345,1.947 0,0 m -5.891,4.106 c 2.156,3.122 4.704,4.952 7.644,5.49 2.938,0.538 5.962,-0.264 9.066,-2.407 3.183,-2.198 5.045,-4.746 5.587,-7.643 0.542,-2.898 -0.249,-5.886 -2.376,-8.964 -1.542,-2.235 -3.184,-3.808 -4.923,-4.719 -1.74,-0.911 -3.595,-1.274 -5.566,-1.088 -1.973,0.186 -4.019,1.012 -6.141,2.476 -2.157,1.49 -3.704,3.065 -4.642,4.728 -0.94,1.663 -1.333,3.541 -1.186,5.634 0.149,2.094 0.994,4.258 2.537,6.493"
             style="fill:#ec2227;fill-opacity:1;fill-rule:nonzero;stroke:none"
             id="path162"
             inkscape:connector-curvature="0" /></g><g
           id="g164"
           transform="translate(224.4805,463.2373)"><path
             d="m 0,0 4.821,-5.753 -9.459,-14.75 16.134,6.783 4.681,-5.586 -23.354,-8.311 -4.999,5.966 z"
             style="fill:#ec2227;fill-opacity:1;fill-rule:nonzero;stroke:none"
             id="path166"
             inkscape:connector-curvature="0" /></g><g
           id="g168"
           transform="translate(235.4043,422.0674)"><path
             d="M 0,0 6.464,5.88 -2.175,4.617 Z m -3.911,-3.489 -3.475,7.375 -3.953,-0.61 -3.124,6.632 24.744,2.003 3.338,-7.086 -17.3,-17.803 -3.205,6.803 z"
             style="fill:#ec2227;fill-opacity:1;fill-rule:nonzero;stroke:none"
             id="path170"
             inkscape:connector-curvature="0" /></g></g></g></g></svg>