<?xml version="1.0" encoding="UTF-8" standalone="no"?>
<svg
   xmlns:dc="http://purl.org/dc/elements/1.1/"
   xmlns:cc="http://creativecommons.org/ns#"
   xmlns:rdf="http://www.w3.org/1999/02/22-rdf-syntax-ns#"
   xmlns:svg="http://www.w3.org/2000/svg"
   xmlns="http://www.w3.org/2000/svg"
   xmlns:sodipodi="http://sodipodi.sourceforge.net/DTD/sodipodi-0.dtd"
   xmlns:inkscape="http://www.inkscape.org/namespaces/inkscape"
   version="1.1"
   width="252"
   height="252"
   id="svg137"
   viewBox="0 0 252 252"
   sodipodi:docname="fk_sileks_kratovo.svg"
   inkscape:version="0.92.4 (5da689c313, 2019-01-14)">
  <metadata
     id="metadata143">
    <rdf:RDF>
      <cc:Work
         rdf:about="">
        <dc:format>image/svg+xml</dc:format>
        <dc:type
           rdf:resource="http://purl.org/dc/dcmitype/StillImage" />
        <dc:title></dc:title>
      </cc:Work>
    </rdf:RDF>
  </metadata>
  <defs
     id="defs141" />
  <sodipodi:namedview
     pagecolor="#ffffff"
     bordercolor="#666666"
     borderopacity="1"
     objecttolerance="10"
     gridtolerance="10"
     guidetolerance="10"
     inkscape:pageopacity="0"
     inkscape:pageshadow="2"
     inkscape:window-width="1366"
     inkscape:window-height="705"
     id="namedview139"
     showgrid="false"
     fit-margin-top="1"
     fit-margin-bottom="1"
     fit-margin-right="1"
     fit-margin-left="1"
     inkscape:zoom="0.39732673"
     inkscape:cx="814.54638"
     inkscape:cy="111.66826"
     inkscape:window-x="-8"
     inkscape:window-y="-8"
     inkscape:window-maximized="1"
     inkscape:current-layer="svg137" />
  <path
     inkscape:connector-curvature="0"
     id="path2"
     style="fill:#10298e;fill-rule:evenodd;stroke-width:0.41946259"
     d="M 125.99998,1 C 56.96445,1 1,56.96445 1,126.00002 1,195.03555 56.96445,251 125.99998,251 195.03555,251 251,195.03555 251,126.00002 251,56.96445 195.03555,1 125.99998,1 Z" />
  <g
     id="Layer1001"
     transform="matrix(0.41946259,0,0,0.41946259,1.83909,-50.17427)">
    <g
       id="Layer1002">
      <g
         id="Layer1003">
        <g
           id="Layer1004">
          <path
             inkscape:connector-curvature="0"
             id="path4"
             style="fill:#ffffff;fill-rule:evenodd"
             d="M 493.4222,573.2692 482.03,564.4164 c -0.2638,0.267 -0.5257,0.5495 -0.7861,0.8482 -0.2674,0.3073 -0.588,0.7021 -0.9832,1.2105 -2.8562,3.6754 -4.2926,6.6517 -4.3173,8.9219 -0.0246,2.2702 1.2992,4.4432 3.962,6.5124 2.6183,2.035 4.9326,2.8606 6.9353,2.4854 2.0102,-0.3842 4.1979,-2.0896 6.548,-5.1137 1.3032,-1.677 1.9467,-2.8509 1.9375,-3.5307 -0.009,-0.6797 -0.652,-1.5082 -1.904,-2.4812 z M 467.473,553.1038 c -1.6229,-1.261 -2.8186,-1.8327 -3.6134,-1.7202 -0.7942,0.1122 -1.9644,1.1631 -3.5034,3.1435 -2.5511,3.2827 -3.7542,6.0683 -3.6206,8.3898 0.1402,2.3126 1.6171,4.5619 4.4297,6.7476 1.2784,0.9932 2.5752,1.672 3.8975,2.0274 1.3309,0.3614 2.6292,0.3834 3.8811,0.0826 1.1281,-0.2683 2.2407,-0.8629 3.3243,-1.7664 1.0839,-0.9034 2.6494,-2.6631 4.6944,-5.2945 l 0.5893,-0.7584 c 0.3953,-0.5083 0.6932,-0.892 0.8855,-1.1578 0.1921,-0.2652 0.351,-0.5426 0.4713,-0.8066 z m 5.1255,-20.2265 2.804,2.1789 -2.2322,2.8724 c -0.839,1.0794 -1.2311,1.9481 -1.1785,2.59 0.0529,0.642 0.648,1.4049 1.7854,2.2887 l 27.1133,21.07 c 1.1464,0.8907 2.05,1.2928 2.6939,1.192 0.6437,-0.1006 1.3885,-0.6952 2.2275,-1.7743 l 2.2322,-2.8727 2.7509,2.1378 -17.7958,22.9003 c -3.4385,4.4245 -6.8508,7.1961 -10.2279,8.3205 -3.3924,1.1263 -6.558,0.541 -9.4942,-1.7407 -2.601,-2.0213 -3.9466,-4.5119 -4.045,-7.4791 -0.0987,-2.9668 1.0548,-6.4347 3.4442,-10.4011 -3.372,3.7755 -6.8126,6.1095 -10.323,6.9874 -3.5019,0.8844 -6.6589,0.2336 -9.4628,-1.9453 -3.324,-2.5832 -4.78,-5.9325 -4.3575,-10.0249 0.43,-4.1018 2.7064,-8.8145 6.8382,-14.1313 z" />
          <path
             inkscape:connector-curvature="0"
             id="path6"
             style="fill:#ffffff;fill-rule:evenodd"
             d="m 530.3585,527.6088 -3.1901,-1.4015 1.3589,-3.0929 c 0.5497,-1.2517 0.703,-2.1835 0.4743,-2.8023 -0.2279,-0.6188 -1.0015,-1.2175 -2.31,-1.7923 l -22.4107,-9.8442 c -4.0997,-1.8008 -7.4565,-2.2388 -10.0661,-1.3241 -2.6192,0.9102 -4.7628,3.2633 -6.4307,7.0594 -0.7268,1.6552 -1.1698,3.2746 -1.3331,4.8685 -0.1639,1.594 -0.0388,3.0311 0.3702,4.3215 0.502,1.5777 1.4202,2.931 2.7493,4.0702 1.3388,1.1438 3.8665,2.5251 7.6088,4.1689 l 16.0818,7.0643 c 2.6787,1.1766 4.7177,1.5046 6.1319,0.9785 1.4142,-0.5267 2.6413,-1.9868 3.691,-4.3761 l 0.1859,-0.4241 3.1901,1.4012 -7.497,17.0676 -3.1901,-1.4011 c 0.7954,-2.3655 0.9178,-4.1998 0.3475,-5.5114 -0.5701,-1.3119 -2.1232,-2.5246 -4.6588,-3.6383 l -16.6237,-7.3023 c -3.517,-1.5449 -5.9695,-2.8196 -7.3781,-3.8333 -1.394,-1.0196 -2.514,-2.1901 -3.3559,-3.5223 -1.6642,-2.5696 -2.4605,-5.4491 -2.4049,-8.6579 0.0612,-3.1938 0.9893,-6.8335 2.7754,-10.8986 2.6714,-6.0823 5.936,-10.1274 9.7937,-12.1346 3.8577,-2.0075 8.2403,-1.9335 13.1581,0.2268 l 24.1181,10.5939 c 1.3084,0.5749 2.2728,0.7396 2.8828,0.489 0.6103,-0.25 1.1928,-0.9939 1.7424,-2.2453 l 1.3862,-3.155 3.1898,1.4012 z" />
          <path
             inkscape:connector-curvature="0"
             id="path8"
             style="fill:#ffffff;fill-rule:evenodd"
             d="m 497.8346,484.2807 5.8199,-44.8955 3.5213,0.4564 -0.4428,3.4173 c -0.1758,1.3555 -0.0719,2.2918 0.2989,2.8185 0.3711,0.5264 1.2708,0.8825 2.6992,1.0677 l 34.0526,4.4142 c 1.4618,0.1893 2.443,0.0887 2.9349,-0.3146 0.4912,-0.4033 0.8304,-1.2824 1.0033,-2.6156 l 0.4499,-3.4734 3.4552,0.4479 -3.4505,26.6214 -3.4552,-0.4479 0.5474,-4.2243 c 0.1729,-1.3329 0.0688,-2.2692 -0.3227,-2.81 -0.3914,-0.5404 -1.3023,-0.8978 -2.7307,-1.083 l -33.8531,-4.3883 c -1.429,-0.1852 -2.4161,-0.0398 -2.9411,0.4504 -0.5254,0.4902 -0.9326,1.8955 -1.2333,4.2146 -0.7032,5.423 -0.1256,9.6564 1.7442,12.6896 1.8591,3.0322 5.4279,5.557 10.6949,7.5727 l -0.7565,3.3196 z" />
          <path
             inkscape:connector-curvature="0"
             id="path10"
             style="fill:#ffffff;fill-rule:evenodd"
             d="m 522.9683,436.1554 c -5.8014,-0.7486 -10.3623,-2.8493 -13.6587,-6.281 -3.2956,-3.4316 -5.1699,-8.0484 -5.6092,-13.8274 -0.2211,-2.9063 -0.0374,-5.6511 0.549,-8.2448 0.5984,-2.5838 1.5821,-4.97 2.9722,-7.1603 2.1943,-3.3962 4.9819,-6.0557 8.3851,-7.9915 3.3923,-1.9235 7.2593,-3.056 11.5909,-3.3854 3.3738,-0.2565 6.5659,0.0445 9.5885,0.9139 3.0112,0.8702 5.8062,2.2779 8.3619,4.2251 2.7845,2.1563 4.9294,4.7352 6.4454,7.736 1.5041,2.9903 2.4086,6.4905 2.7133,10.5009 0.186,2.4446 0.057,4.7206 -0.3971,6.8514 -0.4541,2.1305 -1.2538,4.1289 -2.3766,6.0046 l 3.7486,3.4991 0.216,2.8389 -19.3788,2.4369 -0.5179,-3.4166 c 5.3464,-1.8567 9.3206,-4.2324 11.914,-7.0925 2.5934,-2.8596 3.7412,-6.1764 3.456,-9.9278 -0.3367,-4.4272 -2.2629,-7.5215 -5.7912,-9.2926 -3.5268,-1.76 -9.0374,-2.3604 -16.5313,-1.7906 -7.6828,0.5842 -13.0692,2.0588 -16.1824,4.4141 -3.1128,2.3669 -4.4839,5.9837 -4.1131,10.8615 0.288,3.7854 1.7569,6.903 4.4189,9.3629 2.6501,2.4499 6.3612,4.1278 11.1217,5.0238 z" />
        </g>
        <g
           id="Layer1005">
          <path
             inkscape:connector-curvature="0"
             id="path13"
             style="fill:#ffffff;fill-rule:evenodd"
             d="m 482.2062,324.5328 -25.2606,-37.5681 2.9466,-1.9813 1.9229,2.8594 c 0.7628,1.1342 1.4587,1.7693 2.0851,1.9203 0.626,0.1504 1.5369,-0.1759 2.7324,-0.9797 l 28.4948,-19.1602 c 1.223,-0.8221 1.8939,-1.5456 1.9971,-2.1732 0.1028,-0.6272 -0.2225,-1.5114 -0.9729,-2.6272 l -1.954,-2.9064 2.8912,-1.9439 14.9786,22.2764 -2.8915,1.9439 -2.3767,-3.5345 c -0.7499,-1.1155 -1.4461,-1.7506 -2.0969,-1.8981 -0.6509,-0.1478 -1.5712,0.1851 -2.7665,0.9889 l -28.3279,19.0478 c -1.1956,0.8038 -1.8412,1.5647 -1.9123,2.2792 -0.0708,0.7151 0.5508,2.0397 1.8553,3.9804 3.0516,4.5379 6.2791,7.337 9.686,8.3815 3.398,1.0508 7.7456,0.5922 13.0327,-1.3703 l 1.6228,2.9934 z" />
          <path
             inkscape:connector-curvature="0"
             id="path15"
             style="fill:#ffffff;fill-rule:evenodd"
             d="m 455.1403,284.8501 -32.958,-31.036 2.4342,-2.5854 2.5089,2.3626 c 0.9949,0.937 1.8143,1.4018 2.4583,1.4103 0.644,0.008 1.4602,-0.5123 2.4477,-1.5608 l 23.5405,-24.9984 c 1.0101,-1.0727 1.5043,-1.9269 1.4655,-2.5615 -0.0387,-0.6346 -0.5517,-1.4245 -1.5305,-2.3463 l -2.5499,-2.4012 2.3886,-2.5364 19.5429,18.403 -2.3886,2.5367 -3.101,-2.9202 c -0.9785,-0.9215 -1.7981,-1.3863 -2.4655,-1.3861 -0.6674,2e-4 -1.4911,0.5287 -2.4784,1.5772 l -23.4028,24.8518 c -0.9875,1.0488 -1.4488,1.9339 -1.3595,2.6467 0.0895,0.7128 0.9889,1.8668 2.6915,3.47 3.9811,3.7488 7.7486,5.7633 11.3025,6.0267 3.5463,0.2715 7.6841,-1.1391 12.4049,-4.2245 l 2.2455,2.5593 z" />
          <path
             inkscape:connector-curvature="0"
             id="path17"
             style="fill:#ffffff;fill-rule:evenodd"
             d="m 414.7391,209.3436 -14.2124,10.6577 12,6.804 z m -11.4985,33.8391 1.7183,-3.0306 3.0244,1.4453 c 0.5757,0.3136 1.0644,0.4367 1.4411,0.3677 0.3812,-0.0534 0.6962,-0.3112 0.955,-0.7678 0.0992,-0.1749 0.1854,-0.3954 0.2587,-0.6619 0.0786,-0.2765 0.1576,-0.668 0.2585,-1.1888 l 1.042,-8.0226 -15.1056,-8.5651 -3.0968,2.3007 c -0.4665,0.3643 -0.9004,0.7859 -1.3264,1.2629 -0.4266,0.4771 -0.7509,0.9351 -0.9988,1.3724 -0.7106,1.253 -0.7654,2.4029 -0.1499,3.4706 0.621,1.0581 2.0468,2.2774 4.2824,3.6478 l -1.7184,3.0307 -16.7468,-9.4957 1.7187,-3.0307 c 1.7799,0.663 3.5731,0.7296 5.3688,0.2202 1.7954,-0.5095 4.0194,-1.7516 6.6672,-3.7418 l 31.8844,-24.0262 4.403,2.4966 -4.836,46.4364 c -0.1034,1.1222 0.0213,2.0014 0.3539,2.6521 0.3474,0.6466 1.0675,1.3243 2.1535,2.0428 l -1.7184,3.0307 z" />
          <path
             inkscape:connector-curvature="0"
             id="path19"
             style="fill:#ffffff;fill-rule:evenodd"
             d="m 362.0763,181.3421 -4.2397,13.7906 c 0.3434,0.152 0.7006,0.2968 1.0719,0.4344 0.3823,0.141 0.8649,0.3011 1.4804,0.4903 4.4493,1.3678 7.7415,1.6556 9.8728,0.8742 2.1316,-0.782 3.6945,-2.7899 4.6852,-6.0135 0.9746,-3.1699 0.9262,-5.6266 -0.1346,-7.3661 -1.0716,-1.7432 -3.4416,-3.1843 -7.1026,-4.3099 -2.0303,-0.624 -3.3561,-0.8094 -3.9886,-0.56 -0.6319,0.2496 -1.1791,1.1443 -1.6448,2.66 z m -9.6569,31.4126 c -0.604,1.9642 -0.7145,3.2851 -0.3278,3.9883 0.3866,0.7029 1.7839,1.4246 4.1815,2.1617 3.9739,1.2217 7.0049,1.3591 9.1282,0.4112 2.1129,-0.951 3.6924,-3.1289 4.7393,-6.5336 0.4755,-1.5478 0.6506,-3.0012 0.5141,-4.3633 -0.1338,-1.3728 -0.5735,-2.5946 -1.2986,-3.6584 -0.6508,-0.9595 -1.6013,-1.7893 -2.8302,-2.4825 -1.2291,-0.6929 -3.4294,-1.5331 -6.615,-2.5126 l -0.9179,-0.282 c -0.6153,-0.1892 -1.0798,-0.3319 -1.3961,-0.4175 -0.3166,-0.0858 -0.6319,-0.1359 -0.9217,-0.1548 z m -20.7303,2.3774 1.0435,-3.3941 3.4774,1.0689 c 1.3066,0.4018 2.258,0.4605 2.8392,0.1836 0.5821,-0.2769 1.0841,-1.1037 1.5075,-2.4807 l 10.0901,-32.8215 c 0.4265,-1.3876 0.4822,-2.3752 0.1595,-2.9415 -0.3219,-0.5663 -1.142,-1.0521 -2.4489,-1.4539 l -3.4773,-1.0689 1.024,-3.3304 27.7211,8.5222 c 5.3567,1.6467 9.1575,3.855 11.4061,6.6142 2.2561,2.7728 2.8306,5.9405 1.7383,9.4948 -0.9681,3.1487 -2.82,5.2897 -5.5596,6.4335 -2.7391,1.1438 -6.3904,1.2949 -10.9466,0.4666 4.7256,1.8149 8.1277,4.2043 10.1934,7.1756 2.068,2.9607 2.5788,6.1437 1.5353,9.5379 -1.2371,4.0237 -3.8529,6.5726 -7.8294,7.6283 -3.9876,1.0517 -9.2012,0.5941 -15.6374,-1.3845 z" />
          <path
             inkscape:connector-curvature="0"
             id="path21"
             style="fill:#ffffff;fill-rule:evenodd"
             d="m 330.5055,185.1819 c -0.2633,-4.7347 -1.2679,-8.5068 -3.0146,-11.3162 -1.7456,-2.8202 -4.0096,-4.3365 -6.7924,-4.5482 -1.194,-0.0907 -2.0118,0.0825 -2.4633,0.5074 -0.4516,0.4246 -0.7342,1.3102 -0.8368,2.6575 l -2.6382,34.6949 c -0.1089,1.4366 0.0561,2.3899 0.485,2.8593 0.4294,0.4694 1.3243,0.7614 2.6991,0.866 l 3.312,0.2517 -0.2695,3.5408 -25.6176,-1.948 0.2693,-3.5408 3.4024,0.2588 c 1.3405,0.1021 2.2468,-0.0419 2.7295,-0.4308 0.4828,-0.3889 0.7798,-1.3181 0.8907,-2.7768 l 2.6382,-34.6952 c 0.1043,-1.3695 -0.0292,-2.2978 -0.4008,-2.774 -0.3717,-0.4763 -1.1433,-0.7592 -2.3148,-0.8482 -2.7714,-0.2106 -5.2271,0.9465 -7.3797,3.4705 -2.1512,2.5129 -3.7148,6.09 -4.7135,10.7288 l -3.3797,-0.2571 2.4409,-18.0912 44.5663,3.3888 -0.3002,18.254 z" />
          <path
             inkscape:connector-curvature="0"
             id="path23"
             style="fill:#ffffff;fill-rule:evenodd"
             d="m 229.481,197.5877 c -0.6321,-3.5399 -0.6389,-6.9188 -0.0315,-10.1356 0.6171,-3.2295 1.8343,-6.1806 3.6596,-8.8772 1.9131,-2.8486 4.2826,-5.1319 7.107,-6.8616 2.8111,-1.7384 6.1308,-2.9437 9.9567,-3.6269 3.9594,-0.7072 7.5353,-0.7333 10.7526,-0.0714 3.2035,0.6531 6.2363,2.0171 9.099,4.1034 2.5826,1.8641 4.7089,4.1953 6.3791,6.9939 1.6815,2.7964 2.8321,5.9599 3.4602,9.4777 0.6517,3.6496 0.7002,6.9417 0.1434,9.8657 -0.547,2.9109 -1.762,5.7483 -3.6238,8.4968 -2.0247,2.9934 -4.4821,5.4284 -7.3868,7.2856 -2.916,1.8596 -6.2146,3.1179 -9.9071,3.7772 -3.7595,0.6712 -7.2501,0.6596 -10.4842,-0.0335 -3.2247,-0.7055 -6.3246,-2.1259 -9.2792,-4.2752 -2.7689,-1.9443 -4.9388,-4.1998 -6.5126,-6.7773 -1.5735,-2.5773 -2.6807,-5.692 -3.3324,-9.3416 z m 13.3467,-2.3837 c 1.2937,7.2443 3.2173,12.4251 5.7724,15.5532 2.5577,3.1391 5.8377,4.3455 9.8637,3.6263 3.9708,-0.7089 6.6263,-2.9982 7.9665,-6.8675 1.3383,-3.88 1.3649,-9.3863 0.0871,-16.5427 -1.2918,-7.2331 -3.2177,-12.4248 -5.7861,-15.5619 -2.5685,-3.1371 -5.8615,-4.3526 -9.8768,-3.6354 -4.0036,0.7149 -6.6591,3.0041 -7.9792,6.8584 -1.3201,3.8543 -1.3317,9.3807 -0.0476,16.5696 z" />
          <path
             inkscape:connector-curvature="0"
             id="path25"
             style="fill:#ffffff;fill-rule:evenodd"
             d="m 174.6938,223.1525 c -1.6392,-3.2006 -2.6331,-6.4301 -2.9925,-9.6837 -0.3538,-3.2689 -0.0522,-6.4471 0.9051,-9.5596 0.9969,-3.283 2.5957,-6.1594 4.7911,-8.6388 2.1801,-2.4843 5.0026,-4.6072 8.4617,-6.3788 3.5799,-1.8338 6.9919,-2.9038 10.262,-3.2111 3.255,-0.3118 6.5537,0.1063 9.9014,1.2648 3.0147,1.0278 5.7294,2.6357 8.1448,4.824 2.4256,2.1827 4.4501,4.8719 6.0792,8.0524 1.69,3.2998 2.6983,6.4341 3.0206,9.3929 0.3277,2.9437 -0.005,6.0123 -0.9822,9.1851 -1.0613,3.4543 -2.6997,6.5015 -4.9349,9.1264 -2.2447,2.6305 -5.0315,4.7979 -8.3701,6.5081 -3.399,1.7407 -6.7411,2.7496 -10.0363,3.0322 -3.2902,0.2676 -6.6697,-0.1846 -10.1237,-1.3765 -3.2162,-1.05 -5.9508,-2.5728 -8.2091,-4.5777 -2.2581,-2.0049 -4.2273,-4.6599 -5.9171,-7.9597 z m 12.0671,-6.1804 c 3.3545,6.5495 6.7085,10.9418 10.0664,13.1865 3.3636,2.2544 6.8528,2.4494 10.493,0.5851 3.5898,-1.8386 5.4601,-4.8039 5.6112,-8.896 0.146,-4.102 -1.438,-9.3756 -4.7517,-15.8456 -3.3497,-6.5398 -6.7088,-10.9421 -10.0823,-13.1916 -3.3732,-2.249 -6.8777,-2.4492 -10.5077,-0.5899 -3.6202,1.8541 -5.4905,4.8194 -5.6262,8.8914 -0.1364,4.0717 1.468,9.36 4.7973,15.8601 z" />
          <path
             inkscape:connector-curvature="0"
             id="path27"
             style="fill:#ffffff;fill-rule:evenodd"
             d="m 152.6339,208.4552 11.2523,13.3096 -2.6021,2.0644 c -4.1581,-3.1866 -7.9104,-4.7712 -11.232,-4.7584 -3.3374,0.0106 -7.0469,1.6425 -11.1449,4.8937 -1.7434,1.3831 -2.6842,2.415 -2.8246,3.1106 -0.1401,0.6956 0.2578,1.6343 1.195,2.8151 l 8.9046,11.2235 0.7523,-0.5968 c 2.2925,-1.8188 3.5788,-3.7236 3.8425,-5.7 0.2721,-1.9834 -0.4303,-4.5052 -2.0991,-7.5716 l 2.6553,-2.1068 13.7839,17.3734 -2.6552,2.1064 c -2.5791,-2.2872 -4.861,-3.5271 -6.8547,-3.713 -1.9843,-0.1929 -4.1317,0.6269 -6.4241,2.4457 l -0.7521,0.5969 10.0425,12.6581 c 0.9095,1.1461 1.6853,1.7419 2.3116,1.7865 0.6268,0.0444 1.4667,-0.351 2.5199,-1.1865 l 3.8057,-3.0195 2.2071,2.7819 -21.2945,16.895 -2.2068,-2.7819 2.699,-2.1417 c 1.0711,-0.8495 1.6491,-1.5935 1.7503,-2.2295 0.1007,-0.636 -0.2965,-1.5182 -1.1917,-2.647 l -21.335,-26.8906 c -0.909,-1.146 -1.6918,-1.7509 -2.3409,-1.8059 -0.6496,-0.055 -1.5053,0.3391 -2.5759,1.1886 l -2.6996,2.1417 -2.1656,-2.7296 z" />
        </g>
      </g>
      <g
         id="Layer1006">
        <path
           inkscape:connector-curvature="0"
           id="path31"
           style="fill:#ffffff;fill-rule:evenodd"
           d="m 95.2907,367.4216 -18.2851,-6.5997 1.277,-3.2126 c 5.647,0.1534 10.3319,-0.7196 14.0527,-2.6449 3.7281,-1.9102 6.3483,-4.7837 7.8714,-8.6154 1.0935,-2.751 1.2952,-5.163 0.6239,-7.2533 -0.6751,-2.0803 -2.1363,-3.5729 -4.3886,-4.4679 -0.9961,-0.396 -1.9924,-0.5491 -2.9897,-0.4593 -0.997,0.0901 -1.8969,0.3888 -2.6931,0.9112 -1.1482,0.7716 -3.0424,3.0581 -5.6789,6.8489 -0.9767,1.399 -1.7431,2.4805 -2.3133,3.2506 -3.6066,5.0831 -7.0148,8.3968 -10.2017,9.9142 -3.1765,1.5215 -6.645,1.5412 -10.3909,0.0519 -4.0573,-1.6128 -6.7976,-4.4529 -8.2421,-8.5282 -1.4439,-4.0757 -1.222,-8.4735 0.6601,-13.2084 0.8474,-2.1314 1.9369,-4.057 3.2633,-5.7911 1.3328,-1.7197 2.924,-3.2752 4.7816,-4.6525 l -1.7904,-4.3834 1.0976,-2.7611 16.7418,5.7673 -1.1772,2.9605 c -5.6724,0.3351 -10.0589,1.3027 -13.1337,2.901 -3.0788,1.6089 -5.268,4.0333 -6.5659,7.2985 -1.0602,2.6666 -1.2911,4.9701 -0.6862,6.9248 0.5948,1.9506 1.9528,3.3413 4.0593,4.1785 3.0611,1.2168 6.7982,-1.4435 11.1964,-7.9744 0.8208,-1.2179 1.4394,-2.1389 1.8852,-2.7765 2.1198,-3.0963 3.8272,-5.2749 5.1231,-6.5102 1.29,-1.2501 2.6792,-2.2056 4.1717,-2.8768 1.7189,-0.7878 3.6016,-1.17 5.6617,-1.1535 2.0563,0.0269 4.1344,0.4518 6.2412,1.289 4.4201,1.7573 7.3388,4.6319 8.7712,8.6173 1.4318,3.9857 1.1387,8.5015 -0.8687,13.5512 -1.0599,2.6668 -2.3288,4.9221 -3.8067,6.7663 -1.4887,1.8401 -3.2944,3.42 -5.4279,4.736 l 2.2376,5.1933 z" />
        <path
           inkscape:connector-curvature="0"
           id="path33"
           style="fill:#ffffff;fill-rule:evenodd"
           d="m 87.2583,421.4764 -3.5237,-0.44 0.4184,-3.3516 c 0.1694,-1.3567 0.0611,-2.2925 -0.312,-2.8174 -0.3736,-0.5247 -1.2752,-0.8764 -2.7047,-1.0547 l -34.0616,-4.2516 c -1.4518,-0.1811 -2.4343,-0.0647 -2.9359,0.3508 -0.5021,0.4156 -0.8371,1.2959 -1.0064,2.6525 l -0.4184,3.352 -3.4573,-0.4316 3.1738,-25.4262 3.4571,0.4316 -0.41,3.2845 c -0.169,1.3566 -0.0502,2.2939 0.3457,2.8212 0.3957,0.5279 1.3078,0.8807 2.7373,1.059 l 18.0172,2.2491 -14.2274,-17.2833 c -0.617,-0.7374 -1.1166,-1.2436 -1.5012,-1.4965 -0.3837,-0.2645 -0.792,-0.4176 -1.2243,-0.4715 -0.831,-0.1039 -1.4879,0.2012 -1.9944,0.9235 -0.505,0.7113 -0.8542,1.795 -1.0378,3.2636 l -0.242,1.9396 -3.4571,-0.4316 2.8198,-22.5903 3.4239,0.4274 c -0.2257,2.1694 -0.076,4.1236 0.4609,5.864 0.5272,1.7282 1.6551,3.6908 3.3838,5.8875 l 7.3443,9.3196 26.9809,-12.675 c 0.8882,-0.4467 1.5871,-0.9972 2.077,-1.6762 0.4886,-0.6678 0.7957,-1.506 0.9189,-2.4926 l 0.1149,-0.9192 3.5233,0.4397 -3.0461,24.4064 -3.5236,-0.4397 0.2252,-1.8052 c 0.1554,-1.2441 0.1399,-2.2025 -0.035,-2.8734 -0.1864,-0.6723 -0.5462,-1.036 -1.0891,-1.1037 -0.4766,-0.0595 -1.3427,0.2083 -2.5998,0.8141 l -0.0708,0.0253 -16.2369,7.4688 5.1515,6.2449 9.9058,1.2363 c 1.4741,0.1842 2.4438,0.0772 2.91,-0.32 0.4656,-0.3972 0.7897,-1.2788 0.959,-2.6355 l 0.417,-3.3408 3.5234,0.4397 z" />
        <path
           inkscape:connector-curvature="0"
           id="path35"
           style="fill:#ffffff;fill-rule:evenodd"
           d="m 93.6066,469.2028 -3.5203,0.4663 -0.4434,-3.3491 c -0.1791,-1.3549 -0.5208,-2.2328 -1.0147,-2.6462 -0.4943,-0.4131 -1.4552,-0.5252 -2.8833,-0.336 l -34.0294,4.5053 c -1.4501,0.1922 -2.3709,0.5533 -2.7513,1.0822 -0.3806,0.5292 -0.4821,1.4659 -0.3024,2.8208 l 0.4431,3.3491 -3.4538,0.4571 -5.8013,-43.8152 17.1985,-2.8241 0.4356,3.2927 c -4.9473,1.8519 -8.2823,4.231 -10.0178,7.1157 -1.7229,2.895 -2.2444,6.9531 -1.5517,12.1836 0.2919,2.2062 0.7052,3.542 1.2303,4.0195 0.5251,0.4775 1.5241,0.6188 2.9959,0.424 l 14.4246,-1.9097 -0.1263,-0.9523 c -0.3838,-2.9008 -1.3579,-4.9827 -2.9191,-6.2235 -1.5623,-1.2518 -4.087,-1.9433 -7.5753,-2.0856 l -0.445,-3.36 21.9855,-2.9108 0.4447,3.36 c -3.287,1.0393 -5.5224,2.3612 -6.7052,3.9764 -1.1844,1.6043 -1.5829,3.8679 -1.1989,6.7687 l 0.1263,0.952 16.018,-2.1208 c 1.4727,-0.1948 2.4079,-0.6151 2.796,-1.2591 0.3892,-0.6327 0.4335,-2.0859 0.1354,-4.3371 -0.7547,-5.7008 -2.449,-9.8186 -5.0588,-12.3452 -2.6115,-2.5375 -6.738,-4.0997 -12.3693,-4.6874 l -0.1902,-3.3937 18.1284,-1.5001 z" />
        <path
           inkscape:connector-curvature="0"
           id="path37"
           style="fill:#ffffff;fill-rule:evenodd"
           d="m 93.6632,471.0165 15.9385,42.3726 -3.3236,1.2502 -1.2131,-3.2255 c -0.4815,-1.2793 -1.0127,-2.0572 -1.5873,-2.3483 -0.5748,-0.2904 -1.5361,-0.1824 -2.8846,0.3247 l -32.139,12.0891 c -1.3795,0.5187 -2.1989,1.0686 -2.4433,1.6552 -0.2445,0.5869 -0.1315,1.5222 0.342,2.7806 l 1.2327,3.2782 -3.2606,1.2265 -9.4512,-25.1253 3.2612,-1.2266 1.4995,3.9867 c 0.4734,1.2582 1.0049,2.0364 1.6043,2.3297 0.5996,0.2935 1.5715,0.1813 2.9195,-0.3257 l 31.9509,-12.0181 c 1.3483,-0.5074 2.1518,-1.0991 2.3856,-1.7783 0.2334,-0.6795 -0.0666,-2.1118 -0.8899,-4.3006 -1.9254,-5.1183 -4.4224,-8.585 -7.4974,-10.3853 -3.065,-1.8044 -7.4014,-2.3584 -12.9982,-1.6653 l -0.8906,-3.2865 z" />
        <path
           inkscape:connector-curvature="0"
           id="path39"
           style="fill:#ffffff;fill-rule:evenodd"
           d="m 69.0588,537.8883 3.0347,-1.7118 1.9041,3.3749 c 0.6494,1.1515 1.2824,1.819 1.8992,2.003 0.6165,0.1839 1.5692,-0.0814 2.8434,-0.8002 l 29.897,-16.8659 c 1.2742,-0.7189 1.9899,-1.3816 2.1376,-1.9837 0.1474,-0.6023 -0.1117,-1.4936 -0.7724,-2.6648 l -1.904,-3.375 3.0928,-1.7447 13.0896,23.203 -3.0926,1.7447 -1.8377,-3.2573 c -0.6715,-1.1905 -1.3159,-1.8779 -1.9225,-2.0673 -0.6071,-0.1893 -1.5409,0.0647 -2.7955,0.7725 l -29.897,16.8658 c -1.2739,0.7189 -1.9939,1.3978 -2.1549,2.0206 -0.1619,0.6227 0.0935,1.5295 0.7651,2.7201 l 1.8374,3.2573 -3.0345,1.7118 z" />
        <path
           inkscape:connector-curvature="0"
           id="path41"
           style="fill:#ffffff;fill-rule:evenodd"
           d="m 151.5906,569.7398 -14.601,12.8339 -2.1985,-2.6683 c 2.8584,-4.8724 4.3534,-9.3977 4.462,-13.5856 0.125,-4.187 -1.1285,-7.8681 -3.7502,-11.0508 -1.8825,-2.2848 -3.898,-3.625 -6.0531,-4.0454 -2.1476,-0.4118 -4.1599,0.1483 -6.0305,1.6892 -0.8274,0.6817 -1.4419,1.4805 -1.8442,2.3975 -0.4019,0.9168 -0.5746,1.8494 -0.5011,2.7987 0.1221,1.3779 1.2115,4.14 3.2606,8.278 0.7543,1.5304 1.3318,2.7235 1.7314,3.5946 2.7128,5.6112 3.9717,10.1951 3.7639,13.7183 -0.1996,3.5167 -1.8553,6.5642 -4.9669,9.1275 -3.3698,2.7763 -7.1793,3.8067 -11.446,3.106 -4.2667,-0.701 -8.0121,-3.0169 -11.2518,-6.9494 -1.4585,-1.7703 -2.6198,-3.6536 -3.4991,-5.652 -0.8632,-1.9968 -1.4584,-4.1412 -1.7688,-6.4324 l -4.7033,-0.5463 -1.8893,-2.2932 13.1276,-11.8834 2.0256,2.4591 c -2.4429,5.1307 -3.7108,9.4396 -3.7939,12.9038 -0.076,3.473 0.9918,6.5605 3.2258,9.2724 1.8247,2.2148 3.731,3.528 5.7354,3.9411 1.9953,0.42 3.8684,-0.0987 5.6182,-1.5398 2.5424,-2.0948 2.0146,-6.6515 -1.5848,-13.6548 -0.671,-1.3062 -1.1792,-2.2924 -1.5228,-2.9903 -1.69,-3.3505 -2.7745,-5.8969 -3.2318,-7.6283 -0.4725,-1.7328 -0.6395,-3.4106 -0.5077,-5.0417 0.1392,-1.8859 0.7124,-3.7193 1.7207,-5.5162 1.0151,-1.7878 2.3901,-3.4036 4.1394,-4.845 3.6714,-3.0245 7.5977,-4.1947 11.7794,-3.5266 4.1822,0.6682 7.9965,3.1028 11.4517,7.2973 1.8249,2.2147 3.1884,4.4144 4.0909,6.5985 0.8935,2.1914 1.4066,4.5351 1.5302,7.0389 l 5.6287,0.5449 z" />
      </g>
    </g>
    <g
       id="Layer1007">
      <path
         inkscape:connector-curvature="0"
         id="path45"
         style="fill:#ffffff;fill-rule:evenodd"
         d="m 330.5378,627.5133 c 4.887,0.9842 9.2707,1.476 13.1514,1.476 3.0081,0 5.491,-0.3467 7.4256,-1.04 0.7826,-0.2906 1.2413,-0.436 1.3754,-0.436 0.3019,0 0.4586,0.2237 0.4586,0.6596 0,1.4429 -0.5593,2.9974 -1.6886,4.6412 -1.1296,1.6438 -2.5945,2.8851 -4.4062,3.7128 -1.8229,0.8388 -4.1156,1.2524 -6.889,1.2524 -2.1024,0 -4.4731,-0.2237 -7.1124,-0.6597 l -0.7044,9.0136 c 1.6327,-0.7381 3.187,-1.286 4.6298,-1.6441 1.4536,-0.3577 2.8179,-0.5365 4.0816,-0.5365 4.1939,0 7.7837,1.3753 10.7694,4.1377 2.986,2.7621 4.4734,6.4528 4.4734,11.0489 0,4.7418 -1.5322,8.5997 -4.6075,11.5971 -3.0642,2.9857 -7.1124,4.4844 -12.1447,4.4844 -3.9926,0 -7.202,-1.0514 -9.6177,-3.1425 -2.4154,-2.0914 -3.6232,-4.6188 -3.6232,-7.5935 0,-1.9346 0.5255,-3.4891 1.5879,-4.6408 1.0625,-1.152 2.4044,-1.7334 4.0258,-1.7334 1.4204,0 2.5945,0.4583 3.5229,1.3643 0.9281,0.9057 1.3978,2.0129 1.3978,3.3213 0,0.9394 -0.2461,1.7558 -0.7268,2.4378 -0.4811,0.6934 -1.4092,1.3757 -2.7959,2.0467 -1.0065,0.5031 -1.5097,0.9841 -1.5097,1.4425 0,0.7381 0.4808,1.4091 1.4426,2.0018 1.4315,0.8499 3.0977,1.2751 5.0323,1.2751 2.4046,0 4.3279,-0.9732 5.7484,-2.9302 1.4201,-1.9571 2.1359,-5.3119 2.1359,-10.0537 0,-4.0036 -0.6823,-6.9222 -2.0466,-8.7562 -1.3643,-1.8343 -3.0977,-2.7513 -5.2226,-2.7513 -0.9728,0 -2.0353,0.1902 -3.1759,0.5593 -1.1296,0.3691 -2.3485,0.9281 -3.657,1.6775 -0.0224,1.711 -0.2347,2.8851 -0.6486,3.5226 -0.4025,0.6376 -0.9841,0.9505 -1.722,0.9505 -0.6375,0 -1.152,-0.1789 -1.5321,-0.5479 -0.3915,-0.3578 -0.5817,-0.8164 -0.5817,-1.3643 0,-0.8499 0.5817,-2.1249 1.7447,-3.8135 z" />
      <path
         inkscape:connector-curvature="0"
         id="path47"
         style="fill:#ffffff;fill-rule:evenodd"
         d="m 308.5804,650.3268 c -1.6441,0 -3.1201,0.8946 -4.4286,2.6952 -1.3085,1.8006 -1.9684,4.3727 -1.9684,7.7275 0,3.8472 0.7047,6.8667 2.1025,9.0808 0.9842,1.5769 2.3037,2.3709 3.9699,2.3709 1.6776,0 3.0867,-0.8612 4.1939,-2.5835 1.1182,-1.722 1.6775,-4.6298 1.6775,-8.7338 0,-3.9702 -0.5145,-6.7212 -1.5435,-8.2534 -1.0286,-1.5321 -2.3595,-2.3037 -4.0033,-2.3037 z m -6.3298,0.1678 c 1.4202,-1.4986 2.8965,-2.6169 4.4286,-3.3548 1.5208,-0.7381 3.1087,-1.1072 4.7528,-1.1072 3.1201,0 5.927,1.1072 8.4209,3.31 2.4939,2.2031 3.7352,5.5248 3.7352,9.953 0,4.7866 -1.4091,8.6335 -4.2273,11.5524 -2.8182,2.9188 -6.5086,4.3727 -11.0489,4.3727 -4.8087,0 -8.6221,-1.7334 -11.4403,-5.2115 -3.2545,-4.0371 -4.8872,-9.584 -4.8872,-16.6405 0,-7.996 1.9684,-14.4374 5.9048,-19.3357 3.5002,-4.3503 7.8282,-6.5197 12.9949,-6.5197 3.299,0 5.9604,0.8164 7.9622,2.4602 2.0019,1.6328 2.9971,3.545 2.9971,5.7257 0,1.5659 -0.4808,2.863 -1.4425,3.8582 -0.9618,1.0066 -2.1697,1.5098 -3.6122,1.5098 -1.2748,0 -2.3372,-0.436 -3.1873,-1.3085 -0.8609,-0.8833 -1.2861,-1.9794 -1.2861,-3.2876 0,-0.9842 0.2798,-1.946 0.8501,-2.8854 0.3243,-0.548 0.4921,-0.9953 0.4921,-1.3533 0,-0.5479 -0.235,-0.9839 -0.6933,-1.3195 -0.4587,-0.3467 -1.152,-0.5145 -2.0914,-0.5145 -2.7287,0 -4.7863,1.5321 -6.162,4.5853 -1.711,3.7574 -2.5274,8.9351 -2.4602,15.5109 z" />
      <path
         inkscape:connector-curvature="0"
         id="path49"
         style="fill:#ffffff;fill-rule:evenodd"
         d="m 272.3488,630.5328 c -1.8454,0 -3.3327,0.8611 -4.462,2.5832 -1.1296,1.7223 -1.7,4.708 -1.7,8.9577 0,3.6794 0.5145,6.2961 1.5322,7.8282 1.0176,1.5321 2.3819,2.3037 4.0929,2.3037 1.8678,0 3.4557,-0.928 4.7642,-2.7958 1.3082,-1.8675 1.957,-4.6857 1.957,-8.4767 0,-3.8359 -0.7381,-6.6427 -2.2031,-8.4098 -1.0961,-1.3309 -2.4267,-1.9905 -3.9812,-1.9905 z m 5.9831,21.8406 -0.5259,0.4139 c -2.8403,2.4712 -5.8039,3.7128 -8.8681,3.7128 -2.9075,0 -5.4797,-0.9283 -7.7165,-2.7847 -2.9075,-2.3933 -4.3614,-5.7816 -4.3614,-10.1654 0,-3.1872 0.6489,-6.0054 1.946,-8.4656 1.3085,-2.4492 3.1201,-4.328 5.4462,-5.6254 2.3261,-1.2971 5.0323,-1.9457 8.119,-1.9457 4.7639,0 8.4991,1.6776 11.2053,5.0437 3.2545,4.0705 4.8872,9.5278 4.8872,16.3831 0,8.1079 -1.9794,14.6611 -5.9496,19.66 -3.5226,4.4175 -7.8392,6.6206 -12.9387,6.6206 -3.2431,0 -5.9273,-0.8501 -8.0518,-2.5611 -2.1249,-1.711 -3.1873,-3.6122 -3.1873,-5.7147 0,-1.6214 0.4921,-2.9523 1.4763,-3.9923 0.9839,-1.04 2.2031,-1.5545 3.6456,-1.5545 1.2971,0 2.382,0.4473 3.2431,1.3422 0.8612,0.9057 1.2972,2.0129 1.2972,3.3548 0,0.7158 -0.2795,1.6552 -0.8499,2.7848 -0.3243,0.6596 -0.4921,1.1851 -0.4921,1.5766 0,0.481 0.2013,0.8722 0.5928,1.152 0.5703,0.3915 1.2971,0.5927 2.1807,0.5927 1.4538,0 2.8629,-0.6041 4.2497,-1.8229 1.3867,-1.2079 2.4936,-3.2542 3.3324,-6.1396 0.8387,-2.8851 1.275,-6.844 1.3198,-11.8653 z" />
      <path
         inkscape:connector-curvature="0"
         id="path51"
         style="fill:#ffffff;fill-rule:evenodd"
         d="m 228.8358,632.8141 c 3.4447,-0.2126 6.3298,-0.6486 8.6783,-1.2971 2.3372,-0.6489 4.7305,-1.6328 7.1572,-2.9302 h 2.4157 v 40.1476 c 0,0.7827 0.2123,1.3978 0.6486,1.8227 0.4359,0.4249 1.04,0.6375 1.8002,0.6375 h 6.0727 v 3.0195 H 230.178 v -3.0195 h 4.7974 c 1.2302,0 2.1025,-0.2684 2.6169,-0.805 0.5145,-0.5369 0.7716,-1.4205 0.7716,-2.6393 V 637.936 c 0,-0.7047 -0.2123,-1.2413 -0.6372,-1.6103 -0.4362,-0.3691 -1.0738,-0.5593 -1.9349,-0.5593 h -6.956 z" />
    </g>
  </g>
  <g
     id="Layer1008"
     transform="matrix(0.41946259,0,0,0.41946259,1.83909,-50.17427)">
    <path
       inkscape:connector-curvature="0"
       id="path55"
       style="fill:#ff0d01;fill-rule:evenodd"
       d="m 162.468,286.9204 c 35.6236,-35.6238 83.5155,-55.4649 133.903,-55.4649 50.3875,0 98.2794,19.8411 133.903,55.4649 35.6238,35.6236 55.4649,83.5155 55.4649,133.903 0,50.3875 -19.8411,98.2795 -55.4649,133.903 -35.6236,35.6239 -83.5155,55.465 -133.903,55.465 -50.3875,0 -98.2794,-19.8411 -133.903,-55.465 -35.6238,-35.6238 -55.4649,-83.5152 -55.4649,-133.903 0,-50.3878 19.8411,-98.2791 55.4649,-133.903 z" />
  </g>
  <g
     id="Layer1009"
     transform="matrix(0.41946259,0,0,0.41946259,1.83909,-50.17427)">
    <g
       id="Layer1010">
      <path
         inkscape:connector-curvature="0"
         id="path58"
         style="fill:#10298e;fill-rule:evenodd"
         d="M 357.3901,317.1557 H 256.9487 v 60.3233 h 100.4414 z m -102.9873,-5.1818 h 105.5333 2.5459 v 2.5909 65.5051 2.591 h -2.5459 -105.5333 -2.546 v -2.591 -65.5051 -2.5909 z" />
      <path
         inkscape:connector-curvature="0"
         id="path60"
         style="fill:#ff0d01;fill-rule:evenodd"
         d="M 256.9487,377.479 H 357.3901 V 317.1557 H 256.9487 Z" />
    </g>
    <g
       id="Layer1011">
      <path
         inkscape:connector-curvature="0"
         id="path63"
         style="fill:#10298e;fill-rule:evenodd"
         d="M 441.8864,340.0822 H 340.3335 v 59.8434 h 101.5529 z m -104.127,-5.1406 h 106.7011 2.5742 v 2.5703 64.984 2.5703 h -2.5742 -106.7011 -2.5742 v -2.5703 -64.984 -2.5703 z" />
      <path
         inkscape:connector-curvature="0"
         id="path65"
         style="fill:#ff0d01;fill-rule:evenodd"
         d="M 340.3335,399.9256 H 441.8864 V 340.0822 H 340.3335 Z" />
    </g>
    <g
       id="Layer1012">
      <path
         inkscape:connector-curvature="0"
         id="path68"
         style="fill:#10298e;fill-rule:evenodd"
         d="M 277.4945,340.0964 H 176.6611 v 59.3977 H 277.4945 Z M 174.1052,334.994 h 105.9452 2.5558 v 2.5512 64.5001 2.5512 h -2.5558 -105.9452 -2.5558 v -2.5512 -64.5001 -2.5512 z" />
      <path
         inkscape:connector-curvature="0"
         id="path70"
         style="fill:#ff0d01;fill-rule:evenodd"
         d="M 176.6611,399.4941 H 277.4945 V 340.0964 H 176.6611 Z" />
    </g>
    <g
       id="Layer1013">
      <path
         inkscape:connector-curvature="0"
         id="path73"
         style="fill:#10298e;fill-rule:evenodd"
         d="M 235.8453,392.5035 H 134.5528 v 60.0037 h 101.2925 z m -103.86,-5.1544 h 106.4275 2.5675 v 2.5772 65.1581 2.5772 h -2.5675 -106.4275 -2.5676 v -2.5772 -65.1581 -2.5772 z" />
      <path
         inkscape:connector-curvature="0"
         id="path75"
         style="fill:#ff0d01;fill-rule:evenodd"
         d="M 134.5528,452.5072 H 235.8453 V 392.5035 H 134.5528 Z" />
    </g>
    <g
       id="Layer1014">
      <path
         inkscape:connector-curvature="0"
         id="path78"
         style="fill:#10298e;fill-rule:evenodd"
         d="M 278.0319,444.871 H 176.7394 v 60.6441 h 101.2925 z m -103.86,-5.2094 h 106.4275 2.5675 v 2.6047 65.8535 2.6047 h -2.5675 -106.4275 -2.5676 v -2.6047 -65.8535 -2.6047 z" />
      <path
         inkscape:connector-curvature="0"
         id="path80"
         style="fill:#ff0d01;fill-rule:evenodd"
         d="M 176.7394,505.5151 H 278.0319 V 444.871 H 176.7394 Z" />
    </g>
    <g
       id="Layer1015">
      <path
         inkscape:connector-curvature="0"
         id="path83"
         style="fill:#10298e;fill-rule:evenodd"
         d="M 358.4678,467.2246 H 257.1753 v 61.124 h 101.2925 z m -103.86,-5.2506 h 106.4275 2.5675 v 2.6253 66.3746 2.6253 h -2.5675 -106.4275 -2.5675 v -2.6253 -66.3746 -2.6253 z" />
      <path
         inkscape:connector-curvature="0"
         id="path85"
         style="fill:#ff0d01;fill-rule:evenodd"
         d="m 257.1753,528.3486 h 101.2925 v -61.124 H 257.1753 Z" />
    </g>
    <g
       id="Layer1016">
      <path
         inkscape:connector-curvature="0"
         id="path88"
         style="fill:#10298e;fill-rule:evenodd"
         d="M 442.0534,444.6828 H 339.993 v 60.6435 H 442.0534 Z M 337.406,439.4734 h 107.2344 2.587 v 2.6047 65.8529 2.6047 h -2.587 -107.2344 -2.587 v -2.6047 -65.8529 -2.6047 z" />
      <path
         inkscape:connector-curvature="0"
         id="path90"
         style="fill:#ff0d01;fill-rule:evenodd"
         d="M 339.993,505.3263 H 442.0534 V 444.6828 H 339.993 Z" />
    </g>
    <path
       inkscape:connector-curvature="0"
       id="path93"
       style="fill:#10298e;fill-rule:evenodd"
       d="m 296.371,245.0618 c -14.8286,0 -29.2272,1.8394 -42.9829,5.2971 l 6.8029,11.9594 72.9499,-0.0448 6.6146,-11.814 c -13.877,-3.5229 -28.4116,-5.3977 -43.3845,-5.3977 z m -50.0182,7.2201 c -28.4258,8.4229 -53.8458,23.8402 -74.2643,44.259 -11.8672,11.8673 -22.0445,25.4242 -30.1414,40.2784 l 12.9218,4.4484 63.1074,-22.5448 35.9912,-53.0541 z m -107.7023,90.8924 c -10.6903,21.6725 -17.0442,45.8671 -17.9312,71.4509 l 10.967,0.0382 v 7.0589 l -11.0716,-0.0386 c 0.2104,43.8415 16.4707,83.8891 43.2085,114.5668 l 14.9843,-9.883 v -18.3612 h 7.0866 v 18.425 l 49.8444,35.5784 57.6825,-21.0812 -0.0372,-9.1429 7.0589,-0.0278 0.0343,8.4839 57.9492,20.8907 48.8067,-34.6748 -0.101,-17.8095 7.0589,-0.0278 0.1009,17.7874 14.5474,9.9338 c 26.8325,-30.7446 43.1362,-70.9152 43.2896,-114.8928 h -17.2528 l -19.2782,22.032 -6.2994,-3.5722 20.1127,-22.9416 -7.2148,-32.3323 4.2676,-13.4291 9.6004,43.1566 h 15.9499 c -0.9138,-25.2737 -7.1637,-49.1859 -17.6567,-70.6453 l -7.6756,1.618 -1.4395,-6.9205 5.7603,-1.2143 c -8.1303,-15.0035 -18.3807,-28.6906 -30.3491,-40.6591 -20.325,-20.3249 -45.6052,-35.6944 -73.8729,-44.1422 l -7.4001,13.2171 35.8044,53.0836 46.1565,16.8057 -8.244,4.2999 -38.5656,-13.8382 -7.9838,12.727 -5.9794,-3.765 8.2038,-13.0776 -35.4237,-52.5189 -73.3703,0.0448 -35.5286,52.3718 8.5751,13.786 -6.5931,2.753 -7.6839,-12.3185 -61.0401,21.806 -7.9223,43.3041 -6.9483,-1.2733 7.7777,-42.5132 z m 29.9724,198.3628 c 1.1392,1.2053 2.2929,2.3961 3.4656,3.5688 16.8398,16.8401 37.0811,30.2777 59.6052,39.1958 l -0.0192,-16.5104 -49.398,-35.2599 z m 70.1764,45.3991 c 18.0375,6.2504 37.4074,9.6489 57.5717,9.6489 20.4982,0 40.1768,-3.5091 58.468,-9.9596 l 0.394,-19.1421 -57.3319,-20.6685 -59.1621,21.6221 z m 123.1838,-3.0098 c 22.1488,-8.9181 42.0642,-22.214 58.6704,-38.8205 1.144,-1.1441 2.2708,-2.3054 3.3828,-3.4809 l -13.2324,-9.0358 -48.5016,34.4583 z m 6.1039,-141.6654 -17.5312,-38.0622 6.4222,-2.9622 17.5311,38.0622 z M 168.4811,292.9336 c 32.7297,-32.73 77.9463,-52.9742 127.8899,-52.9742 49.9436,0 95.1602,20.2442 127.8899,52.9742 32.7299,32.7296 52.9741,77.9462 52.9741,127.8898 0,49.9436 -20.2442,95.1602 -52.9741,127.8899 -32.7297,32.7299 -77.9463,52.9741 -127.8899,52.9741 -49.9436,0 -95.1602,-20.2442 -127.8899,-52.9741 -32.7299,-32.73 -52.9741,-77.9463 -52.9741,-127.8899 0,-49.9439 20.2442,-95.1599 52.9741,-127.8898 z" />
    <path
       inkscape:connector-curvature="0"
       id="path95"
       style="fill:#ffffff;fill-rule:evenodd"
       d="m 172.4301,334.994 45.5462,-16.2711 35.9912,-53.0541 -7.6147,-13.3869 c -28.4258,8.4229 -53.8458,23.8402 -74.2643,44.259 -11.8672,11.8673 -22.0445,25.4242 -30.1414,40.2784 l 12.9218,4.4484 16.6805,-5.959 v -0.3147 z" />
    <path
       inkscape:connector-curvature="0"
       id="path97"
       style="fill:#ffffff;fill-rule:evenodd"
       d="m 157.7078,347.7754 -7.2397,39.5737 h 21.0813 v -44.5184 z" />
    <path
       inkscape:connector-curvature="0"
       id="path99"
       style="fill:#ffffff;fill-rule:evenodd"
       d="m 138.6505,343.1743 c -10.6903,21.6725 -17.0442,45.8671 -17.9312,71.4509 l 8.6984,0.0303 v -24.7294 -2.577 h 2.5674 11.3017 l 7.3281,-40.0561 z" />
    <path
       inkscape:connector-curvature="0"
       id="path101"
       style="fill:#ffffff;fill-rule:evenodd"
       d="m 193.4858,334.994 h 30.8914 l -5.6293,-9.0246 z" />
    <path
       inkscape:connector-curvature="0"
       id="path103"
       style="fill:#ffffff;fill-rule:evenodd"
       d="m 254.4026,311.9739 h 105.5336 2.1739 l -28.7614,-42.6416 -73.3703,0.0448 -35.5286,52.3718 8.2386,13.2451 h 19.1685 v -20.4287 -2.5914 z" />
    <path
       inkscape:connector-curvature="0"
       id="path105"
       style="fill:#ffffff;fill-rule:evenodd"
       d="m 260.191,262.3183 72.9499,-0.0448 6.6146,-11.814 c -13.877,-3.5229 -28.4116,-5.3977 -43.3845,-5.3977 -14.8286,0 -29.2272,1.8394 -42.9829,5.2971 z" />
    <path
       inkscape:connector-curvature="0"
       id="path107"
       style="fill:#ffffff;fill-rule:evenodd"
       d="m 375.1849,318.6994 44.6088,16.2422 h 24.6668 2.5742 v 2.5702 0.5247 l 3.9679,-0.8365 c -8.1303,-15.0035 -18.3807,-28.6906 -30.3491,-40.6591 -20.325,-20.3249 -45.6052,-35.6944 -73.8729,-44.1422 l -7.4001,13.2171 z" />
    <path
       inkscape:connector-curvature="0"
       id="path109"
       style="fill:#ffffff;fill-rule:evenodd"
       d="m 368.9019,334.9416 h 30.6417 l -25.0118,-8.9748 z" />
    <path
       inkscape:connector-curvature="0"
       id="path111"
       style="fill:#ffffff;fill-rule:evenodd"
       d="m 362.482,314.5653 v 17.3135 l 6.2904,-10.0276 -6.2904,-9.326 z" />
    <path
       inkscape:connector-curvature="0"
       id="path113"
       style="fill:#ffffff;fill-rule:evenodd"
       d="m 447.0347,373.772 9.0295,40.5901 h 15.9499 c -0.9138,-25.2737 -7.1637,-49.1859 -17.6567,-70.6453 l -7.3227,1.5438 z" />
    <path
       inkscape:connector-curvature="0"
       id="path115"
       style="fill:#ffffff;fill-rule:evenodd"
       d="m 374.1304,439.4734 h 55.5494 l 19.7312,-22.5065 -2.6555,-11.9007 h -2.295 -85.7185 l 15.7671,34.2326 z" />
    <path
       inkscape:connector-curvature="0"
       id="path117"
       style="fill:#ffffff;fill-rule:evenodd"
       d="m 283.1669,439.6616 v 2.6045 19.7079 h 51.6521 v -19.8958 -2.6048 h 2.5869 29.3972 l -15.8479,-34.4072 h -13.1958 -2.5742 v -2.5705 -19.8348 h -52.579 v 19.3844 2.5512 h -2.556 -39.0699 v 35.0651 h 39.6193 z" />
    <path
       inkscape:connector-curvature="0"
       id="path119"
       style="fill:#ffffff;fill-rule:evenodd"
       d="m 447.2274,442.0782 v 65.8527 2.6048 h -2.5869 -30.439 l 0.0902,15.872 14.5474,9.9338 c 26.8325,-30.7446 43.1362,-70.9152 43.2896,-114.8928 h -17.2528 l -15.7717,18.0247 h 5.5363 2.5869 z" />
    <path
       inkscape:connector-curvature="0"
       id="path121"
       style="fill:#ffffff;fill-rule:evenodd"
       d="m 300.477,540.2417 57.9492,20.8907 48.8067,-34.6748 -0.0902,-15.9219 h -43.5399 v 20.4384 2.6251 H 361.0352 300.45 Z" />
    <path
       inkscape:connector-curvature="0"
       id="path123"
       style="fill:#ffffff;fill-rule:evenodd"
       d="m 362.3023,567.0475 -0.3192,16.8789 c 22.1488,-8.9181 42.0642,-22.214 58.6704,-38.8205 1.144,-1.1441 2.2708,-2.3054 3.3828,-3.4809 l -13.2324,-9.0358 z" />
    <path
       inkscape:connector-curvature="0"
       id="path125"
       style="fill:#ffffff;fill-rule:evenodd"
       d="m 238.7993,586.9362 c 18.0375,6.2504 37.4074,9.6489 57.5717,9.6489 20.4982,0 40.1768,-3.5091 58.468,-9.9596 l 0.394,-19.1421 -57.3319,-20.6685 -59.1621,21.6221 z" />
    <path
       inkscape:connector-curvature="0"
       id="path127"
       style="fill:#ffffff;fill-rule:evenodd"
       d="m 185.8941,526.4313 49.8444,35.5784 57.6825,-21.0812 -0.0298,-7.3293 h -38.7833 -2.5676 v -2.6251 -20.2496 h -66.1462 z" />
    <path
       inkscape:connector-curvature="0"
       id="path129"
       style="fill:#ffffff;fill-rule:evenodd"
       d="m 172.0885,545.1059 c 16.8398,16.8401 37.0811,30.2777 59.6052,39.1958 l -0.0192,-16.5104 -49.398,-35.2599 -13.6536,9.0057 c 1.1392,1.2053 2.2929,2.3961 3.4656,3.5688 z" />
    <path
       inkscape:connector-curvature="0"
       id="path131"
       style="fill:#ffffff;fill-rule:evenodd"
       d="m 120.6147,421.6837 c 0.2104,43.8415 16.4707,83.8891 43.2085,114.5668 l 14.9843,-9.883 v -15.643 h -4.6358 -2.5674 V 508.12 457.6616 h -39.6192 -2.5674 v -2.577 -33.3703 z" />
  </g>
  <path
     inkscape:connector-curvature="0"
     id="path134"
     style="fill:none;stroke:#ff0d01;stroke-width:6.53967333;stroke-linecap:butt;stroke-linejoin:miter;stroke-dasharray:none"
     d="m 126.13601,6.00629 c -66.41494,0 -120.25493,53.83999 -120.25493,120.25493 0,66.41494 53.83999,120.25498 120.25493,120.25498 66.41494,0 120.25494,-53.84004 120.25494,-120.25498 0,-66.41494 -53.84,-120.25493 -120.25494,-120.25493 z" />
</svg>
