<?xml version="1.0" encoding="UTF-8" standalone="no"?>
<svg
   xmlns:dc="http://purl.org/dc/elements/1.1/"
   xmlns:cc="http://creativecommons.org/ns#"
   xmlns:rdf="http://www.w3.org/1999/02/22-rdf-syntax-ns#"
   xmlns:svg="http://www.w3.org/2000/svg"
   xmlns="http://www.w3.org/2000/svg"
   viewBox="0 0 174.40886 251.99999"
   height="252"
   width="174.40886"
   xml:space="preserve"
   id="svg2"
   version="1.1"><metadata
     id="metadata8"><rdf:RDF><cc:Work
         rdf:about=""><dc:format>image/svg+xml</dc:format><dc:type
           rdf:resource="http://purl.org/dc/dcmitype/StillImage" /><dc:title></dc:title></cc:Work></rdf:RDF></metadata><defs
     id="defs6" /><g
     transform="matrix(1.3333333,0,0,-1.3333333,-100.99674,376.45311)"
     id="g10"><g
       transform="matrix(0.29277085,0,0,0.29277085,54.101304,66.543077)"
       id="g69"><path
         d="M 76.49756,243.39258 V 734.52246 H 518.1626 V 243.39258 L 297.33252,94.08984 Z"
         style="fill:#c89a4a;fill-opacity:1;fill-rule:nonzero;stroke:none"
         id="path12" /><path
         d="m 504.77539,721.13501 c 0,-24.95825 0,-457.2063 0,-470.63306 C 494.00537,243.22021 310.94189,119.45068 297.33252,110.25 283.72363,119.45068 100.65479,243.2207 89.88525,250.50195 c 0,13.42676 0,445.67481 0,470.63306 24.38916,0 390.50049,0 414.89014,0 z"
         style="fill:#ffffff;fill-opacity:1;fill-rule:nonzero;stroke:none"
         id="path14" /><path
         d="m 178.49756,706.93945 17.57226,-54.083 h 56.86573 l -46.0044,-33.42481 17.57227,-54.08301 -46.00586,33.42432 -46.00635,-33.42432 17.57275,54.08301 -46.00488,33.42481 h 56.86572 z"
         style="fill:#293d9b;fill-opacity:1;fill-rule:nonzero;stroke:none"
         id="path16" /><path
         d="m 491.3877,707.74756 c 0,-46.40479 0,-424.83008 0,-450.1377 C 471.79102,244.36133 321.89893,143.01904 297.33252,126.41016 272.76563,143.01904 122.86963,244.36133 103.27246,257.61084 Z"
         style="fill:#ed1c25;fill-opacity:1;fill-rule:nonzero;stroke:none"
         id="path18" /><path
         d="m 279.12061,501.11768 8.45654,9.79492 0.17187,0.30078 c -2.83105,0.27978 -14.67236,1.43896 -22.94677,2.09814 -4.53907,0.36182 -7.92725,0.93311 -11.12696,0.3833 l -0.16601,1.08399 c -0.3169,1.92432 -0.79297,4.06494 -1.31739,6.5581 -1.38134,6.56055 -3.44531,14.8252 -4.67578,19.63819 -0.20898,0.81494 -0.75683,2.99267 -0.75683,2.99267 l -8.20752,-9.50586 0.21435,-0.49853 c 1.14014,-3.43359 3.78711,-11.59229 5.19287,-17.47852 0.7876,-3.29492 1.13331,-5.61279 1.27198,-7.18408 l -1.65576,-1.91699 -0.61524,0.53076 -15.29541,13.20654 -0.36182,0.31299 -7,-8.10693 0.36231,-0.3125 39.37353,-33.99658 6.83204,7.91357 0.21484,0.15186 -16.83936,14.53955 2.00977,2.39892 0.65967,0.003 c 2.76074,0.16846 6.29297,-0.18652 11.00683,-0.90283 7.46045,-1.1333 13.07178,-1.98926 14.9502,-2.27588 l 0.24805,0.271 z"
         style="fill:#c89a4a;fill-opacity:1;fill-rule:nonzero;stroke:none"
         id="path20" /><path
         d="m 229.04639,453.14014 c -9.96582,-8.83643 -20.38477,-8.59668 -27.69092,-2.28711 -7.3042,6.30615 -9.06104,16.57519 -1.78125,27.71679 l 0.26514,0.37598 -4.87403,4.20801 -0.40967,0.35498 6.99903,8.10547 0.26513,-0.22901 5.01856,-4.33349 0.20801,0.16113 c 9.9497,8.78955 20.34521,8.53906 27.63916,2.2417 7.29785,-6.30127 9.05859,-16.5542 1.80175,-27.68604 l -0.0713,-0.25537 4.48779,-3.875 0.38623,-0.33398 -6.99951,-8.10645 -0.4336,0.37549 -4.4873,3.87451 -0.32324,-0.30761 m 0.83886,14.52588 c 2.90039,5.75683 1.8042,10.84863 -1.89062,14.03955 -3.70068,3.19482 -8.90869,3.53369 -14.19043,-0.19434 l -0.30762,-0.2085 16.21289,-13.99902 0.17578,0.36231 m -23.63818,5.15478 c -3.01416,-5.83057 -1.93408,-10.99512 1.79932,-14.21875 3.73584,-3.22607 9.0083,-3.53955 14.34179,0.30176 l 0.32276,0.29346 -16.26074,14.04052 z"
         style="fill:#c89a4a;fill-opacity:1;fill-rule:nonzero;stroke:none"
         id="path22" /><path
         d="m 413.57568,288.62305 v 5.9292 c 8.79786,0.38232 15.58692,0.98779 15.58692,0.98779 v -39.39746 h -7.90479 v 32.57568 l -7.68213,-0.0952 z"
         style="fill:#c89a4a;fill-opacity:1;fill-rule:nonzero;stroke:none"
         id="path24" /><path
         d="m 361.53174,288.62305 v 5.9292 c 8.79785,0.38232 15.58691,0.98779 15.58691,0.98779 v -39.39746 h -7.90478 v 32.57568 l -7.68213,-0.0952 z"
         style="fill:#c89a4a;fill-opacity:1;fill-rule:nonzero;stroke:none"
         id="path26" /><path
         d="m 395.64209,274.82178 c -3.86719,0.29297 -4.16016,5.03955 -4.33496,8.47802 -0.19141,3.76124 2.04004,6.94922 6.24707,6.18409 3.29639,-0.59961 4.08057,-3.50635 4.02051,-8.41553 v -3.31397 c 0,0 -1.72559,-3.25195 -5.93262,-2.93261 m -8.98877,-17.4043 c 0,0 3.18799,-1.7207 10.24951,-1.2749 6.90381,0.43603 12.57715,5.65967 12.57715,12.57715 v 14.24267 c 0,6.91797 -5.65967,12.57764 -12.57715,12.57764 h -0.74902 c -6.91797,0 -12.53125,-5.65967 -12.57764,-12.57764 -0.0464,-6.99365 3.01758,-13.30908 10.15332,-13.55957 4.01026,-0.14111 6.44824,0.97998 7.82813,2.01319 0,0 0.0127,-0.86573 0.0127,-2.71485 0,-1.84863 -0.82812,-6.24756 -5.7373,-6.69385 -4.27051,-0.38769 -7.52197,1.4668 -7.52197,1.4668 l -1.65772,-6.05664 z"
         style="fill:#c89a4a;fill-opacity:1;fill-rule:nonzero;stroke:none"
         id="path28" /><path
         d="m 459.08789,264.94043 v -8.79785 h -7.90478 v 8.76513 l 0.005,0.1919 h -15.81055 v 5.92871 l 15.80518,24.51172 h 7.90478 V 271.1709 l 0.006,-0.14258 h 4.39844 v -5.92871 h -4.39844 l -0.006,-0.15918 m -7.90478,6.24707 v 13.32422 l -8.77588,-13.4834 h 8.78125 l -0.005,0.15918 z"
         style="fill:#c89a4a;fill-opacity:1;fill-rule:nonzero;stroke:none"
         id="path30" /><path
         d="m 287.7373,385.99463 c 3.40137,-0.46826 9.45752,-3.73535 11.28711,-9.7959 1.88965,-6.25586 -1.28173,-11.15088 -11.14502,-22.66943 l -8.05664,-9.33008 -39.15673,33.80908 7.99365,9.2583 c 9.87402,11.43604 17.98047,16.46094 26.65576,8.19092 2.75732,-2.62939 4.37061,-6.10449 4.38232,-9.90772 l -0.0171,-0.64111 c 0,0 3.8794,1.66113 8.05664,1.08594 m -23.26171,-13.47852 3.4165,3.95606 c 4.05225,4.83935 3.78564,8.48144 0.81836,11.04346 -2.82373,2.43847 -6.08984,2.60498 -11.9541,-4.3335 l -2.10401,-2.43604 -0.35205,-0.35937 9.69873,-8.375 0.47657,0.50439 m 20.31543,-9.10107 c 4.53027,5.3999 5.04589,8.20215 2.01318,11.25635 -2.63477,2.65527 -7.19629,3.37744 -13.75098,-4.36573 l -2.97509,-3.54345 10.03662,-8.66553 z"
         style="fill:#ffffff;fill-opacity:1;fill-rule:nonzero;stroke:none"
         id="path32" /><path
         d="m 194.85498,278.79883 c 3.40137,-0.46875 9.45703,-3.73584 11.28711,-9.79639 1.88916,-6.25586 -1.28174,-11.15185 -11.14551,-22.66943 l -8.05664,-9.33057 -39.15674,33.80957 7.99414,9.2583 c 9.87452,11.43604 17.98047,16.46045 26.65479,8.19141 2.7583,-2.62988 4.37158,-6.10498 4.38281,-9.90869 l -0.0171,-0.64014 c 0,0 3.8794,1.66065 8.05713,1.08594 m -23.26172,-13.47949 3.41651,3.95654 c 4.05224,4.83887 3.78515,8.48144 0.81787,11.04346 -2.82373,2.43847 -6.08985,2.60449 -11.95362,-4.3335 l -2.104,-2.43652 -0.35205,-0.35938 9.69873,-8.37402 0.47656,0.50342 m 20.31543,-9.10059 c 4.53027,5.3999 5.04541,8.20166 2.01319,11.25684 -2.63526,2.65478 -7.19678,3.37695 -13.75098,-4.3667 l -2.9751,-3.54297 10.03662,-8.66553 z"
         style="fill:#ffffff;fill-opacity:1;fill-rule:nonzero;stroke:none"
         id="path34" /><path
         d="m 323.63232,394.93701 c -7.01513,-8.12451 -19.40234,-9.03174 -27.52685,-2.01709 l -9.61279,8.30029 c -8.12452,7.01465 -9.03223,19.40235 -2.01709,27.52588 l 2.30468,2.66993 c 7.01465,8.125 19.40235,9.03173 27.52735,2.01709 l 9.61181,-8.3003 c 8.125,-7.01465 9.03272,-19.40185 2.01709,-27.52636 l -2.3042,-2.66944 m -5.51562,7.0918 c 3.79932,4.3999 3.21484,11.18945 -1.29883,15.08642 l -9.4165,8.13086 c -4.51416,3.89746 -11.31543,3.48584 -15.11426,-0.91406 -3.79932,-4.3999 -3.21533,-11.18945 1.29834,-15.08691 l 9.4165,-8.13037 c 4.51416,-3.89746 11.31543,-3.48584 15.11475,0.91406 z"
         style="fill:#ffffff;fill-opacity:1;fill-rule:nonzero;stroke:none"
         id="path36" /><path
         d="m 230.52246,287.10107 c -7.01465,-8.12353 -19.40185,-9.03173 -27.52637,-2.0166 l -9.61328,8.29981 c -8.12402,7.01513 -9.03222,19.40234 -2.01709,27.52685 l 2.30518,2.66944 c 7.01465,8.12451 19.40185,9.03222 27.52637,2.01757 l 9.61279,-8.30029 c 8.12451,-7.01514 9.03223,-19.40185 2.01758,-27.52685 l -2.30518,-2.66993 m -5.51514,7.09229 c 3.79883,4.40039 3.21436,11.18945 -1.29931,15.08643 l -9.41602,8.13037 c -4.51416,3.89795 -11.31543,3.48632 -15.11523,-0.91407 -3.79883,-4.39941 -3.21436,-11.18896 1.29931,-15.08593 l 9.41651,-8.13086 c 4.51416,-3.89698 11.31494,-3.48584 15.11474,0.91406 z"
         style="fill:#ffffff;fill-opacity:1;fill-rule:nonzero;stroke:none"
         id="path38" /><path
         d="m 455.00146,577.66357 -6.85888,-7.94287 -9.28955,14.96631 16.14843,-7.02344 m -3.12109,-34.19531 7.31104,8.46778 -6.17139,9.97119 10.43652,12.08838 10.76563,-4.65235 7.31152,8.46826 -50.5625,20.6001 -6.82715,-7.90674 z"
         style="fill:#ffffff;fill-opacity:1;fill-rule:nonzero;stroke:none"
         id="path40" /><path
         d="m 400.09961,562.65674 6.68701,7.74463 0.17139,0.19873 39.15722,-33.8086 -0.125,-0.14453 -6.73388,-7.79931 -0.14063,-0.16309 -15.85107,13.68604 -0.0937,-0.10743 -13.01416,-15.07324 -0.12256,-0.17871 15.83252,-13.6709 -0.14014,-0.1626 -6.74951,-7.81689 -0.10986,-0.12646 -39.15625,33.80908 0.14062,0.16308 6.74951,7.8169 0.10889,0.12695 16.66553,-14.38965 0.12207,0.17822 12.90576,14.94678 0.2207,0.21924 -16.66504,14.38916 0.14063,0.1626 z"
         style="fill:#ffffff;fill-opacity:1;fill-rule:nonzero;stroke:none"
         id="path42" /><path
         d="m 371.38672,529.40332 39.15674,-33.80957 -6.99951,-8.10645 -26.01954,22.46631 12.77051,-37.81006 -6.99951,-8.10693 -39.15674,33.80908 7,8.10645 25.82666,-22.29932 -12.57812,37.64356 z"
         style="fill:#ffffff;fill-opacity:1;fill-rule:nonzero;stroke:none"
         id="path44" /><path
         d="m 343.5376,418.04004 -6.51416,5.62402 -0.12012,0.10449 3.93701,4.55909 -0.0601,0.32177 c -1.10156,4.21241 -4.06006,7.75879 -9.05127,13.41553 -7.0581,7.99854 -16.55029,16.4126 -19.25293,18.77051 l -0.15527,0.16016 21.79346,25.24023 32.47412,-28.03955 0.16553,0.14404 3.854,4.46338 0.14795,-0.16894 6.29736,-5.43799 0.21387,-0.14258 -33.47607,-38.77002 -0.25342,-0.24414 m 5.05176,19.26221 10.89502,12.61816 0.10449,0.17041 -25.59766,22.10205 -0.20019,0.20703 -7.91602,-9.16748 0.21094,-0.19385 c 4.1416,-3.83203 9.32861,-8.87939 13.67383,-13.8872 3.86621,-4.45606 6.70898,-8.24805 8.52734,-12.17676 z"
         style="fill:#ffffff;fill-opacity:1;fill-rule:nonzero;stroke:none"
         id="path46" /><path
         d="m 245.16943,327.28125 0.69825,-0.60205 c 2.25634,-1.94873 5.69726,-1.69629 7.64599,0.56006 L 255,328.96094 c 1.94824,2.25683 1.69629,5.69775 -0.56055,7.64599 l -28.3706,24.49659 6.99951,8.10546 27.66699,-23.88867 c 6.31983,-5.45605 7.02588,-15.09082 1.56934,-21.41015 l -2.72998,-3.16162 c -5.45655,-6.31934 -15.09082,-7.02491 -21.41016,-1.56836 z"
         style="fill:#ffffff;fill-opacity:1;fill-rule:nonzero;stroke:none"
         id="path48" /></g></g></svg>