<?xml version="1.0" encoding="UTF-8" standalone="no"?>
<svg
   xmlns:dc="http://purl.org/dc/elements/1.1/"
   xmlns:cc="http://creativecommons.org/ns#"
   xmlns:rdf="http://www.w3.org/1999/02/22-rdf-syntax-ns#"
   xmlns:svg="http://www.w3.org/2000/svg"
   xmlns="http://www.w3.org/2000/svg"
   xmlns:sodipodi="http://sodipodi.sourceforge.net/DTD/sodipodi-0.dtd"
   xmlns:inkscape="http://www.inkscape.org/namespaces/inkscape"
   version="1.1"
   width="166.96072"
   height="252"
   id="svg57"
   viewBox="0 0 166.96072 252"
   sodipodi:docname="fk-ventspilso.svg"
   inkscape:version="0.92.4 (5da689c313, 2019-01-14)">
  <metadata
     id="metadata63">
    <rdf:RDF>
      <cc:Work
         rdf:about="">
        <dc:format>image/svg+xml</dc:format>
        <dc:type
           rdf:resource="http://purl.org/dc/dcmitype/StillImage" />
        <dc:title></dc:title>
      </cc:Work>
    </rdf:RDF>
  </metadata>
  <defs
     id="defs61" />
  <sodipodi:namedview
     pagecolor="#ffffff"
     bordercolor="#666666"
     borderopacity="1"
     objecttolerance="10"
     gridtolerance="10"
     guidetolerance="10"
     inkscape:pageopacity="0"
     inkscape:pageshadow="2"
     inkscape:window-width="1366"
     inkscape:window-height="705"
     id="namedview59"
     showgrid="false"
     fit-margin-top="1"
     fit-margin-right="1"
     fit-margin-bottom="1"
     fit-margin-left="1"
     inkscape:zoom="0.56064347"
     inkscape:cx="125.73749"
     inkscape:cy="218.70525"
     inkscape:window-x="-8"
     inkscape:window-y="-8"
     inkscape:window-maximized="1"
     inkscape:current-layer="svg57" />
  <g
     id="Layer1000"
     transform="matrix(0.44097217,0,0,0.44097217,-47.769626,-59.624942)">
    <path
       d="m 110.5957,219.6161 h 374.0842 v 287.0662 c 0,36.3225 -9.14,70.5828 -27.1977,102.0702 -33.1278,57.7659 -92.8477,95.6569 -160.1923,95.6569 -67.6193,0 -127.0935,-38.5856 -160.0879,-96.6188 -16.2167,-28.523 -26.6063,-66.1246 -26.6063,-99.021 z"
       style="fill:#fcc400;fill-rule:evenodd"
       id="path2"
       inkscape:connector-curvature="0" />
    <path
       d="m 114.5715,223.5919 h 366.1326 v 283.0904 c 0,39.4541 -10.9297,72.6443 -26.6707,100.0923 -31.7414,55.3481 -89.5659,93.659 -156.7435,93.659 -67.2159,0 -124.9041,-38.8029 -156.6318,-94.6081 -15.4945,-27.2529 -26.0866,-64.2295 -26.0866,-97.0559 z"
       style="fill:#004d9c;fill-rule:evenodd"
       id="path4"
       inkscape:connector-curvature="0" />
    <path
       d="m 123.5171,299.9467 v 208.7235 c 0,30.6566 9.8091,63.7745 24.9175,90.3486 30.695,53.9886 86.3958,89.7855 148.8553,89.7855 62.702,0 118.1595,-35.2164 148.9835,-88.9649 16.936,-29.5317 25.4851,-61.2763 25.4851,-95.3438 V 299.9467 Z"
       style="fill:#ffc800;fill-rule:evenodd"
       id="path6"
       inkscape:connector-curvature="0" />
    <g
       id="Layer1001">
      <path
         d="m 131.9481,241.1101 h 20.6907 l -0.6337,6.3927 h -12.0976 v 10.6669 h 8.5388 v 6.764 h -8.5388 v 16.607 l -7.9594,0.6337 z"
         style="fill:#ffc800;fill-rule:evenodd"
         id="path8"
         inkscape:connector-curvature="0" />
      <path
         d="m 170.593,263.6009 -3.1366,5.5297 v 12.7269 h -7.9593 v -40.1136 l 7.9593,-0.6338 v 17.8293 l 9.6527,-17.8293 h 8.4935 l -8.7291,16.8151 8.8559,22.7915 -8.0861,1.8561 z"
         style="fill:#ffc800;fill-rule:evenodd"
         id="path10"
         inkscape:connector-curvature="0" />
      <path
         d="m 205.1234,241.427 9.4171,-0.3169 5.4149,28.1157 5.6504,-27.7988 7.6603,-0.3169 -9.8154,40.7474 h -8.7291 z"
         style="fill:#ffc800;fill-rule:evenodd"
         id="path12"
         inkscape:connector-curvature="0" />
      <path
         d="m 239.9886,241.1101 h 20.6907 l -0.6339,6.3657 H 247.948 v 9.7069 h 8.5661 l -0.0273,6.8456 h -8.5388 v 11.4636 h 13.1569 l -0.6339,6.3656 h -20.4824 z"
         style="fill:#ffc800;fill-rule:evenodd"
         id="path14"
         inkscape:connector-curvature="0" />
      <path
         d="m 275.9677,256.7118 v 24.8289 l -7.1084,0.3168 V 241.427 l 8.3035,-0.3169 10.5039,24.2493 v -23.6155 l 6.7368,-0.6338 v 40.4306 l -6.5195,0.6337 z"
         style="fill:#ffc800;fill-rule:evenodd"
         id="path16"
         inkscape:connector-curvature="0" />
      <path
         d="m 301.4701,247.4758 0.6339,-6.3657 h 23.8779 l -0.6337,6.3657 h -7.6153 v 34.0649 l -7.9594,0.6337 v -34.6986 z"
         style="fill:#ffc800;fill-rule:evenodd"
         id="path18"
         inkscape:connector-curvature="0" />
      <path
         d="m 348.8314,251.5899 c -1.1398,-2.4013 -1.8819,-4.8735 -5.0166,-4.8735 -1.7058,0 -3.0849,0.9023 -3.5677,2.5181 -0.1527,0.5113 -0.2262,1.0558 -0.2262,1.6154 0,0.4604 0.0725,0.8935 0.2172,1.2996 0.136,0.4062 0.3261,0.7761 0.5706,1.1101 0.2355,0.334 0.5071,0.6409 0.8059,0.9116 0.2987,0.2708 0.6067,0.4964 0.9055,0.6769 l 6.5739,3.8267 c 1.5576,0.8844 2.8342,1.814 3.8212,2.7797 0.9961,0.9657 1.7658,1.9315 2.3272,2.8791 0.5523,0.9566 0.9415,1.8772 1.15,2.7616 0.2082,0.8935 0.3348,1.6967 0.3712,2.4278 0,1.9493 -0.3352,3.7365 -0.996,5.3518 -0.6609,1.6156 -1.5758,2.9875 -2.7437,4.1337 -1.1681,1.1462 -2.5445,2.0306 -4.129,2.6624 -1.5757,0.6228 -3.287,0.9387 -5.1342,0.9387 -1.6933,0 -3.2508,-0.2618 -4.6634,-0.7672 -1.4126,-0.5144 -2.6803,-1.2183 -3.785,-2.13 -1.1049,-0.9115 -2.0555,-1.9855 -2.8614,-3.222 -0.8059,-1.2454 -1.4579,-2.5902 -1.9469,-4.0342 l 6.737,-3.1499 c 1.6527,2.6813 3.5039,6.967 7.2711,6.7601 2.1478,-0.1181 3.6039,-2.3354 3.6039,-4.2509 0,-1.0741 -0.2626,-2.0128 -0.7787,-2.825 -0.5252,-0.8123 -1.1681,-1.4621 -1.9286,-1.9585 l -7.1354,-4.2056 c -0.9872,-0.5596 -1.8927,-1.2005 -2.7165,-1.9315 -0.824,-0.722 -1.5394,-1.5162 -2.1551,-2.3916 -0.6067,-0.8666 -1.0776,-1.805 -1.4126,-2.8159 -0.3351,-1.0019 -0.5071,-2.0758 -0.5071,-3.222 0,-1.796 0.326,-3.4387 0.9689,-4.9278 0.6429,-1.4981 1.5303,-2.7797 2.6531,-3.8537 1.123,-1.0739 2.4539,-1.9042 4.0024,-2.5 1.5482,-0.5867 3.2236,-0.8844 5.0254,-0.8844 2.7618,0 5.1253,0.7039 7.0901,2.1028 1.965,1.3989 3.4138,3.4476 4.3463,6.1462 z"
         style="fill:#ffc800;fill-rule:evenodd"
         id="path20"
         inkscape:connector-curvature="0" />
      <path
         d="m 458.015,251.6106 c -1.1399,-2.4014 -1.882,-4.8735 -5.0167,-4.8735 -1.7058,0 -3.0848,0.9023 -3.5677,2.5181 -0.1527,0.5112 -0.2262,1.0557 -0.2262,1.6153 0,0.4604 0.0726,0.8936 0.2173,1.2997 0.1359,0.4061 0.326,0.7761 0.5705,1.1101 0.2356,0.3339 0.5071,0.6409 0.8059,0.9116 0.2988,0.2708 0.6067,0.4964 0.9055,0.6769 l 6.574,3.8267 c 1.5575,0.8844 2.8341,1.814 3.8211,2.7797 0.9962,0.9657 1.7659,1.9314 2.3273,2.8791 0.5522,0.9565 0.9414,1.8771 1.15,2.7616 0.2081,0.8935 0.3347,1.6966 0.3711,2.4278 0,1.9493 -0.3352,3.7364 -0.9959,5.3518 -0.661,1.6156 -1.5758,2.9874 -2.7437,4.1337 -1.1681,1.1462 -2.5446,2.0306 -4.1291,2.6624 -1.5756,0.6228 -3.287,0.9386 -5.1342,0.9386 -1.6933,0 -3.2508,-0.2618 -4.6634,-0.7671 -1.4126,-0.5145 -2.6803,-1.2184 -3.7849,-2.13 -1.1049,-0.9115 -2.0555,-1.9855 -2.8614,-3.222 -0.8059,-1.2454 -1.458,-2.5903 -1.947,-4.0343 l 6.737,-3.1498 c 1.6528,2.6813 3.5039,6.967 7.2712,6.7601 2.1477,-0.1181 3.6038,-2.3354 3.6038,-4.251 0,-1.074 -0.2626,-2.0127 -0.7786,-2.825 -0.5252,-0.8122 -1.1681,-1.4621 -1.9287,-1.9585 l -7.1354,-4.2056 c -0.9872,-0.5596 -1.8926,-1.2005 -2.7164,-1.9314 -0.824,-0.722 -1.5395,-1.5162 -2.1551,-2.3916 -0.6067,-0.8666 -1.0777,-1.8051 -1.4126,-2.8159 -0.3352,-1.0019 -0.5071,-2.0758 -0.5071,-3.222 0,-1.7961 0.326,-3.4387 0.9689,-4.9278 0.6429,-1.4981 1.5303,-2.7797 2.653,-3.8538 1.123,-1.0738 2.4539,-1.9042 4.0025,-2.4999 1.5481,-0.5867 3.2235,-0.8845 5.0254,-0.8845 2.7618,0 5.1252,0.704 7.09,2.1028 1.9651,1.3989 3.4139,3.4477 4.3464,6.1462 z"
         style="fill:#ffc800;fill-rule:evenodd"
         id="path22"
         inkscape:connector-curvature="0" />
      <path
         d="m 364.5903,241.1101 h 5.098 c 1.3764,0 2.798,0.009 4.2651,0.0271 1.4668,0.0181 2.9065,0.1268 4.3101,0.3351 1.4124,0.1992 2.7435,0.5342 4.0112,1.0051 1.2588,0.4707 2.3634,1.159 3.3142,2.0644 0.9417,0.9147 1.6933,2.0828 2.2547,3.5043 0.5525,1.4218 0.8332,3.1874 0.8332,5.2972 0,1.9108 -0.2265,3.5406 -0.6883,4.8898 -0.4617,1.3582 -1.0865,2.4992 -1.8835,3.4228 -0.7967,0.9327 -1.7203,1.6661 -2.7707,2.2185 -1.0504,0.5433 -2.1824,0.9689 -3.3866,1.2585 -1.1953,0.2899 -2.4358,0.4799 -3.6945,0.5706 -1.2677,0.0904 -2.4992,0.1268 -3.7035,0.1268 v 15.7104 l -7.9594,0.6337 z m 9.3631,18.282 c 0.9235,0 1.7928,-0.0905 2.6168,-0.2535 0.824,-0.1721 1.5393,-0.4799 2.1641,-0.9327 0.6158,-0.4527 1.1046,-1.0685 1.4668,-1.8653 0.3622,-0.7969 0.5433,-1.8201 0.5433,-3.0516 0,-1.2224 -0.1538,-2.2093 -0.4618,-2.9699 -0.3077,-0.7608 -0.7605,-1.3492 -1.3672,-1.7659 -0.5976,-0.4164 -1.3311,-0.6971 -2.2004,-0.851 -0.8692,-0.1541 -1.8562,-0.2264 -2.97,-0.2264 h -1.1408 v 11.9163 z"
         style="fill:#ffc800;fill-rule:evenodd"
         id="path24"
         inkscape:connector-curvature="0" />
      <path
         d="m 396.0873,241.7439 7.9593,-0.6338 v 40.4306 l -7.9593,0.6337 z"
         style="fill:#ffc800;fill-rule:evenodd"
         id="path26"
         inkscape:connector-curvature="0" />
      <path
         d="m 422.1689,241.1101 v 34.3818 h 13.2939 l -0.7707,6.3656 h -20.4553 v -40.1136 z"
         style="fill:#ffc800;fill-rule:evenodd"
         id="path28"
         inkscape:connector-curvature="0" />
    </g>
    <g
       id="Layer1002">
      <path
         d="m 148.804,481.192 h 5.1512 v -24.0367 l -5.4906,1.2059 v -5.6157 l 9.1332,-5.3657 h 3.8926 v 33.8122 h 5.3043 l -0.3125,6.5619 H 148.804 Z"
         style="fill:#00394c;fill-rule:evenodd"
         id="path31"
         inkscape:connector-curvature="0" />
      <path
         d="m 197.3493,468.0083 c 0,1.4446 -0.0982,2.9526 -0.2946,4.5244 -0.2053,1.5808 -0.5178,3.1342 -0.9552,4.6605 -0.4377,1.5263 -0.9911,2.9798 -1.6786,4.3517 -0.6784,1.3718 -1.4909,2.5801 -2.4284,3.6249 -0.9462,1.0357 -2.0264,1.8625 -3.2585,2.4712 -1.2319,0.6087 -2.607,0.9174 -4.1426,0.9174 -1.1337,0 -2.1963,-0.2179 -3.1962,-0.654 -0.9909,-0.4362 -1.8837,-1.0721 -2.6783,-1.917 -0.7945,-0.8359 -1.4553,-1.8714 -1.9998,-3.0979 -0.5445,-1.2265 -0.9196,-2.5352 -1.125,-4.1342 l 5.8568,-1.3808 c 0.1071,0.5178 0.2266,0.9538 0.357,1.5267 0.1282,0.5625 0.3181,1.0921 0.5713,1.5807 0.6139,1.184 1.2948,1.7892 2.7054,1.7892 2.6095,0 3.5963,-2.4487 4.0911,-4.5329 0.2002,-0.8434 0.3491,-1.7082 0.4554,-2.5892 0.1074,-0.89 0.1698,-1.7627 0.1964,-2.6254 0.0267,-0.863 0.0447,-1.6353 0.0624,-2.3259 -0.8212,0.6179 -1.9843,1.1176 -3.0914,1.4991 -1.107,0.3815 -2.196,0.5723 -3.2764,0.5723 -5.5872,0 -8.8998,-6.3251 -8.8998,-11.3282 0,-3.5393 0.6782,-7.0513 2.7997,-9.93 1.8885,-2.5626 5.0847,-4.4153 8.2963,-4.4153 3.0159,0 5.4349,0.777 7.3743,3.09 1.8868,2.2497 2.8672,5.5063 3.4284,8.3474 0.3123,1.5804 0.5268,3.2162 0.6518,4.924 0.1251,1.6991 0.1785,3.3888 0.1785,5.0513 z m -7.4423,-8.5126 c -0.0521,-0.7433 -0.1397,-2.07 -0.2678,-2.7767 -0.3331,-1.8365 -1.4799,-3.9782 -3.5835,-3.9782 -3.4789,0 -3.9731,4.764 -3.9731,7.3636 0,0.6906 0.0627,1.381 0.2054,2.0533 0.1429,0.6723 0.3664,1.2812 0.6785,1.835 0.3125,0.554 0.7357,1.1842 1.2589,1.5253 0.521,0.3397 1.1695,0.6081 1.9372,0.6081 1.3005,0 2.6908,-0.531 3.7713,-1.244 0.0994,-1.802 0.0994,-3.5852 -0.0269,-5.3864 z"
         style="fill:#00394c;fill-rule:evenodd"
         id="path33"
         inkscape:connector-curvature="0" />
      <path
         d="m 414.627,468.0083 c 0,1.4446 -0.0982,2.9526 -0.2946,4.5244 -0.2053,1.5808 -0.5178,3.1342 -0.9552,4.6605 -0.4377,1.5263 -0.9911,2.9798 -1.6786,4.3517 -0.6784,1.3718 -1.4909,2.5801 -2.4284,3.6249 -0.9462,1.0357 -2.0264,1.8625 -3.2585,2.4712 -1.2319,0.6087 -2.607,0.9174 -4.1426,0.9174 -1.1337,0 -2.1963,-0.2179 -3.1962,-0.654 -0.9909,-0.4362 -1.8837,-1.0721 -2.6783,-1.917 -0.7945,-0.8359 -1.4553,-1.8714 -1.9998,-3.0979 -0.5445,-1.2265 -0.9196,-2.5352 -1.125,-4.1342 l 5.8568,-1.3808 c 0.1071,0.5178 0.2266,0.9538 0.357,1.5267 0.1282,0.5625 0.3181,1.0921 0.5713,1.5807 0.6139,1.184 1.2948,1.7892 2.7054,1.7892 2.6095,0 3.5963,-2.4487 4.0911,-4.5329 0.2002,-0.8434 0.3491,-1.7082 0.4554,-2.5892 0.1074,-0.89 0.1698,-1.7627 0.1964,-2.6254 0.0267,-0.863 0.0447,-1.6353 0.0624,-2.3259 -0.8212,0.6179 -1.9843,1.1176 -3.0914,1.4991 -1.107,0.3815 -2.196,0.5723 -3.2764,0.5723 -5.5872,0 -8.8998,-6.3251 -8.8998,-11.3282 0,-3.5393 0.6782,-7.0513 2.7997,-9.93 1.8885,-2.5626 5.0847,-4.4153 8.2963,-4.4153 3.0159,0 5.4349,0.777 7.3743,3.09 1.8868,2.2497 2.8672,5.5063 3.4284,8.3474 0.3123,1.5804 0.5268,3.2162 0.6518,4.924 0.1251,1.6991 0.1785,3.3888 0.1785,5.0513 z m -7.4423,-8.5126 c -0.0521,-0.7433 -0.1397,-2.07 -0.2678,-2.7767 -0.3331,-1.8365 -1.4799,-3.9782 -3.5835,-3.9782 -3.4789,0 -3.9731,4.764 -3.9731,7.3636 0,0.6906 0.0627,1.381 0.2054,2.0533 0.1429,0.6723 0.3664,1.2812 0.6785,1.835 0.3125,0.554 0.7357,1.1842 1.2589,1.5253 0.521,0.3397 1.1695,0.6081 1.9372,0.6081 1.3005,0 2.6908,-0.531 3.7713,-1.244 0.0994,-1.802 0.0994,-3.5852 -0.0269,-5.3864 z"
         style="fill:#00394c;fill-rule:evenodd"
         id="path35"
         inkscape:connector-curvature="0" />
      <path
         d="m 427.1166,487.8326 c 0.9789,-11.5491 4.9217,-23.4916 9.5753,-34.0824 h -13.3946 l 0.6339,-6.4905 h 21.7494 v 5.6705 c -5.3826,10.7015 -9.9023,22.7818 -9.9023,34.9024 z"
         style="fill:#00394c;fill-rule:evenodd"
         id="path37"
         inkscape:connector-curvature="0" />
    </g>
    <g
       id="Layer1003">
      <path
         d="m 297.2162,313.7204 c 2.7957,0 5.41,0.407 7.9957,1.1355 3.3248,0.9369 6.4434,2.6052 9.2596,4.3867 8.9275,5.6475 14.9457,15.3283 14.9457,26.5683 0,8.4737 -3.1653,16.2108 -8.6464,21.9363 -1.6696,1.7444 -3.6981,3.3387 -5.9011,4.6953 -2.4968,1.5374 -5.1908,2.7705 -7.327,3.5716 l 2.4129,16.5422 c 4.4615,-1.5192 14.8248,-6.3426 23.9012,-12.8606 5.6486,-4.0563 12.4784,-8.1412 17.5146,-14.9619 2.4324,-3.2946 3.7038,-6.4106 4.9517,-11.5639 0.0232,-0.0966 0.2765,-0.6071 0.5015,-0.581 0.225,0.0262 0.5383,1.2977 0.5502,1.3895 0.3881,2.9938 0.5855,6.1637 0.5473,10.3391 -0.1151,12.5315 -2.4552,28.0905 -2.6131,31.2926 l 17.9762,0.2155 3.6725,10.084 c 0.5888,1.6167 1.046,3.1198 0.2373,5.6703 l -3.3929,10.6999 c -0.1113,0.3512 -0.6173,0.6546 -0.9936,0.6083 -5.7637,-0.7099 -12.3878,-1.5884 -16.7791,-1.819 0.6127,1.9456 0.5658,2.9702 -0.4518,4.6642 -4.3038,7.1644 -11.3273,13.4122 -18.3879,18.3712 -10.4856,7.3646 -19.3648,11.0784 -26.1381,13.577 -1.6532,0.6097 -1.9689,1.0647 -1.9689,2.9417 l -10e-4,16.2873 c 0,0.9361 0.8607,1.8473 1.2794,2.2714 3.5951,3.6426 6.6592,6.9455 10.4263,10.6444 2.8381,2.7868 6.1202,5.8866 10.0888,9.0441 8.7597,6.97 19.3668,13.1279 31.4818,16.7093 1.1683,0.3453 2.0977,0.4022 1.9814,2.0196 -0.8717,12.1142 -4.0671,47.2838 -1.3276,66.4217 0.1996,1.3939 -0.3846,1.6166 -1.169,1.5744 -0.1766,-0.009 -0.3839,-0.1783 -0.6024,-0.2447 -0.3642,-0.1109 -0.7615,-0.1149 -1.1007,0.0774 -0.8242,0.4669 -7.6341,6.1032 -13.3762,10.8418 -5.4605,4.5062 -11.3179,7.6025 -12.7629,8.666 1.4553,0.5479 3.4069,0.8157 5.7071,0.7962 3.6064,-0.0308 7.8762,-0.3753 12.6393,-1.8589 11.889,-3.7031 23.4496,-11.6676 32.8834,-25.0589 -5.1787,-3.5178 -12.0182,-4.8666 -18.3348,-4.8771 -0.8884,-10e-4 -0.8967,-1.6038 -0.2527,-2.0221 7.7453,-5.0288 13.7235,-11.0631 18.9609,-17.3005 7.0063,-8.3444 12.4895,-16.0951 16.1624,-24.0552 3.0405,-6.5899 4.7517,-12.1075 5.3628,-14.3928 7.4246,9.8504 10.2567,22.2178 11.2225,34.7608 1.0826,14.063 -0.1229,27.0806 -3.2546,37.9214 -2.3903,8.2743 -7.032,17.5856 -10.3153,20.5174 0.9387,-8.8197 -2.8347,-16.4793 -8.4225,-21.6298 -9.0473,12.2843 -17.9015,20.5778 -28.0111,28.3151 -12.6659,9.6936 -25.9475,17.911 -37.7696,25.6781 -11.2748,7.4075 -19.052,11.9252 -26.6532,22.483 -2.3266,3.2319 -4.5473,7.0304 -6.8616,11.6509 -8.0295,-16.3925 -17.851,-24.1262 -26.8641,-30.0026 -5.813,-3.79 -11.4967,-7.2012 -17.2168,-11.1901 -4.1353,2.854 -7.6817,5.3864 -10.7045,7.7101 -3.2252,2.4789 -5.7589,4.1276 -7.8779,6.2744 -4.4443,4.502 -6.268,9.1246 -7.3719,14.1202 -0.1306,0.5936 -0.3127,1.2795 -0.7629,0.207 -0.5606,-1.3363 -1.0027,-4.8531 -1.4598,-8.4792 -0.459,-3.6428 -0.9893,-8.148 -1.0869,-13.1098 -0.1346,-6.8271 1.1193,-15.1721 2.4162,-22.7434 0.0744,-0.4354 0.3732,-1.5746 0.1289,-2.1929 -4.2108,-2.9631 -7.4004,-6.0146 -10.0696,-8.5593 -2.587,-2.4664 -4.6882,-4.4418 -6.7566,-6.5213 -5.7614,-5.7921 -9.1032,-9.8222 -12.0239,-13.612 -4.1235,4.1331 -6.6133,8.851 -7.6689,13.5176 -0.6333,2.7999 -0.6872,5.582 -0.4457,8.2084 -2.0278,-1.7199 -3.9436,-4.9433 -5.6731,-8.4034 -3.8624,-7.7278 -6.6896,-18.664 -7.9013,-30.5605 -0.2984,-2.9305 -0.2145,-6.2585 -0.2357,-9.7985 -0.0155,-2.5831 -0.0175,-5.2811 0.1695,-8.0198 0.4433,-6.4931 1.3262,-13.2251 2.958,-19.2461 1.6732,-6.1738 4.6497,-12.091 8.1651,-17.3665 1.3612,2.1034 1.4047,4.0792 2.1084,5.9426 5.7303,15.1753 11.5948,22.8341 19.2157,31.7727 6.2436,7.3236 13.4531,14.0115 20.8729,19.5766 -2.5653,1.0308 -4.8548,0.4475 -6.9169,0.7809 -5.7037,0.922 -9.8842,2.5268 -13.2299,4.628 3.2861,4.4418 11.0794,15.1496 19.6334,19.3972 -0.076,-3.717 -0.8528,-4.7201 -0.5417,-6.8134 2.5685,-6.0207 11.6232,-16.3926 27.701,-25.299 7.3077,-4.0484 16.0674,-7.6367 26.3284,-10.6534 0.6862,-7.3516 1.7767,-21.7172 2.0034,-34.0957 -14.3606,-12.5889 -26.9363,-16.9102 -39.0458,-17.9694 -6.6185,-0.5789 -13.0913,-0.1201 -19.9023,0.3326 -1.3062,0.0866 -3.0808,-0.5588 -2.8033,-3.3288 0.22,-2.1956 0.8585,-11.5946 0.9206,-22.2919 0.0522,-8.9968 -0.435,-19.0175 -0.8767,-27.1386 -0.4495,-8.2657 -0.7729,-14.5795 -1.0134,-15.8206 -0.0561,-0.2898 -0.3598,-0.5977 -0.4036,-1.0498 -0.034,-0.3514 0.0899,-0.9365 0.6536,-1.3969 2.2758,-1.8593 9.1152,-7.1407 13.5526,-10.8945 0.1248,-0.1055 0.42,-0.5749 -0.3789,-0.4926 -4.1373,0.426 -10.4661,1.4991 -12.4014,1.9156 -1.0376,0.2232 -1.5436,0.0314 -1.8449,-0.9198 l -3.42,-10.7876 c -0.4485,-1.4156 -0.6091,-2.8584 -0.127,-4.342 1.2601,-3.8768 2.7087,-6.9298 3.5855,-11.633 l 62.845,-1.0448 3.0514,-18.7071 c -0.8051,-0.2817 -1.4991,-0.5972 -2.2807,-0.9381 -3.1681,-1.3824 -6.4987,-3.3413 -8.5388,-5.1314 -4.6897,-4.1156 -7.3404,-8.8995 -9.0957,-14.5346 -0.92,-2.9542 -1.4168,-6.0947 -1.4168,-9.3481 0,-5.6371 1.4896,-11.229 4.0989,-15.7962 1.1534,-2.0183 2.7383,-3.9619 4.298,-5.6252 1.3027,-1.3893 2.4857,-2.5552 3.9862,-3.6921 1.9294,-1.4613 4.2479,-2.7129 6.5672,-3.7472 1.7668,-0.7878 3.6218,-1.5975 5.5423,-2.1313 2.4693,-0.6862 5.0516,-1.0985 7.7083,-1.0985 z m 0.034,15.8539 c 8.5438,0 15.2732,6.7535 15.2732,15.2037 0,5.1628 -2.6358,9.9797 -6.567,12.8383 -2.2724,-0.2912 -4.184,-0.587 -5.8262,-0.7188 -4.5411,-0.3648 -6.9308,-0.1416 -9.3242,-0.1793 -0.7131,-0.0112 -1.5818,0.488 -2.4921,0.9663 -3.7929,-2.4032 -6.735,-7.5487 -6.735,-12.9065 0,-8.4502 7.1274,-15.2037 15.6713,-15.2037 z"
         style="fill:#00394c;fill-rule:evenodd"
         id="path40"
         inkscape:connector-curvature="0" />
      <path
         d="m 296.8882,315.4658 c 6.7841,0 13.1304,2.1062 18.0958,5.9727 6.8722,5.3514 11.0945,13.9958 11.0945,23.3703 0,12.0632 -7.2654,22.3665 -17.683,26.8071 -1.3126,0.5594 -1.4567,-0.4791 -1.534,-1.6897 -0.0201,-0.3171 -0.2284,-0.7701 -0.2318,-1.1459 -0.0102,-1.1271 0.0316,-2.7548 -0.0155,-3.9219 -0.0177,-0.4375 -0.335,-0.7806 -0.3527,-1.2186 -0.0771,-1.9056 0.4608,-2.357 1.9356,-3.4619 4.4776,-3.355 7.3841,-8.7195 7.3841,-14.5926 0,-5.9782 -3.5999,-11.5907 -8.0262,-14.8085 -6.0422,-4.392 -14.5301,-4.4877 -20.5916,-0.3717 -2.7618,1.8752 -5.0131,4.4589 -6.4172,7.4825 -1.021,2.199 -1.7947,4.6244 -1.7947,7.1632 0,4.1891 1.0771,8.2953 3.6574,11.6099 1.0842,1.3927 2.2833,2.6469 3.7887,3.7086 0.7284,0.5137 0.7695,1.0061 0.7628,1.515 0.001,0.864 -0.0517,4.533 -0.1817,7.2209 -0.0728,1.5078 -0.1022,2.7075 -0.3256,2.9301 -10.9884,-4.2024 -18.7555,-14.8528 -18.7555,-27.3259 0,-11.7326 6.8251,-22.0526 16.8147,-26.71 3.7591,-1.7525 7.9534,-2.5336 12.3759,-2.5336 z m -10.7999,207.7954 c -1.2106,24.0518 -3.0322,49.8719 -5.7061,73.3385 -1.3524,1.085 -2.6795,1.8599 -3.9837,2.83 -1.3043,0.97 -2.5859,2.2351 -3.847,3.0088 -7.5668,4.6422 -14.3992,5.9085 -21.0253,5.7242 -5.3317,-0.1483 -10.8008,-1.4661 -16.1141,-3.9724 -5.656,-2.668 -11.1374,-6.6583 -16.0913,-11.1168 -2.7964,-2.5168 -5.8247,-5.2484 -8.2225,-8.1098 -1.9868,-2.3706 -3.4182,-4.8326 -5.0525,-7.3374 5.1666,-3.8772 9.9025,-5.0602 18.0881,-6.4708 -7.9715,-5.8096 -14.1562,-11.9695 -19.7639,-18.8469 -4.4638,-5.4743 -8.3796,-11.4101 -11.6696,-17.5213 -2.5588,-4.7533 -4.6745,-9.5702 -6.7942,-14.6399 -6.0073,11.1809 -8.0403,29.7926 -7.1833,45.9219 0.6252,11.7701 2.8735,26.0119 8.8261,37.9405 0.6464,-3.8808 1.5181,-7.0507 2.8294,-9.9077 1.0138,-2.209 2.4556,-4.1219 4.094,-6.1418 0.8041,-0.9916 1.5701,-2.0675 2.5288,-3.101 0.9012,-0.9715 1.5287,-0.6651 2.1702,0.2201 4.5239,6.2319 10.1515,13.6185 15.5325,19.6762 4.1722,4.6967 8.7249,8.742 14.1344,12.6214 5.5071,3.9496 11.9851,7.6358 18.0655,11.1158 2.7637,1.5816 5.1846,3.1214 7.8538,4.6234 7.092,3.9913 14.0846,7.7103 19.7358,11.8145 10.9264,7.9353 17.2851,16.8157 22.6778,29.2496 3.1358,-9.0602 9.1112,-17.1981 14.8393,-23.0405 5.7781,-5.8932 12.1986,-9.6845 18.7956,-13.4259 7.4551,-4.2279 13.052,-7.4425 20.2888,-11.6792 5.114,-2.9939 12.0916,-6.7187 16.5248,-10.704 16.0821,-14.4576 23.8216,-26.289 27.2007,-30.1607 1.271,-1.4561 1.5092,-1.0665 2.4787,8e-4 0.4771,0.5254 0.9737,1.0317 1.4044,1.5393 2.0682,2.4369 3.6802,4.8801 4.9336,7.584 1.3846,2.9874 2.333,6.1605 2.9785,9.5686 7.2497,-17.2157 8.7118,-29.3858 9.0098,-42.5837 0.3375,-14.9585 -1.7721,-30.6846 -7.4736,-40.9122 -1.41,3.5349 -3.0591,6.9841 -4.7173,10.3152 -1.9638,3.9452 -4.4815,7.6298 -6.7055,11.1989 -2.2241,3.5689 -4.1585,6.927 -6.5454,10.0196 -5.8065,7.523 -10.8387,12.9393 -19.0219,19.6596 7.5076,1.4173 13.2741,3.2852 16.9775,6.1656 -7.0421,11.4504 -17.3705,20.1667 -26.8506,25.0496 -5.512,2.8391 -10.3748,4.0197 -15.0875,4.6378 -11.4579,1.5028 -22.7808,-0.7934 -32.3506,-10.7037 -2.1946,-16.533 -3.1925,-32.1571 -4.2899,-48.3609 -8.3509,-9.3401 -18.1046,-19.7059 -23.4723,-25.0873 z m -2.0849,-105.2061 c 1.0283,7.191 1.6002,14.2717 1.9583,21.3063 0.2296,4.5092 0.3134,9 0.5655,13.4891 0.0577,1.0278 0.685,1.6313 1.4265,2.3457 6.6847,6.4416 12.4363,12.6624 18.6545,19.8202 0.402,-17.6716 0.9866,-38.3234 3.5114,-56.8723 -3.7959,-0.2964 -7.6506,-0.3983 -11.4815,-0.3254 -1.2768,0.0243 -2.5519,0.1567 -3.8201,0.1899 -3.5856,0.0938 -7.142,0.031 -10.8146,0.0465 z m -60.7131,-20.8098 c 10.9233,-0.0455 22.3986,-0.3705 32.991,-0.6011 45.3293,-0.987 83.3871,-0.996 114.5409,0.4624 1.2957,0.0606 1.944,0.921 2.174,1.7453 l 2.0849,7.4722 c 0.3093,1.1086 0.2129,1.5696 0,2.3043 l -3.4846,12.0163 c -23.599,-4.865 -52.9748,-6.0305 -80.1204,-5.8736 -12.581,0.0725 -25.6064,0.4574 -38.4908,1.6243 -10.1486,0.9192 -20.2364,2.4012 -30.3699,4.0841 l -3.299,-9.9264 c -0.461,-1.3875 -0.457,-4.3586 -0.055,-5.7653 l 1.5595,-5.4584 c 0.4003,-1.4014 1.045,-2.0781 2.4694,-2.0841 z m 80.6637,-34.2758 5.0476,31.3834 h -23.1328 c -0.0306,-0.4751 -0.0606,-0.9512 0.009,-1.4255 1.537,-10.4912 3.2067,-20.9825 5.3578,-31.4735 0.0858,-0.2576 0.1202,-0.516 1.1861,-0.5872 1.5597,-0.1044 5.5449,0.1654 7.6252,0.36 2.5575,0.2392 3.7057,0.4894 3.9073,1.7428 z"
         style="fill:#004d9c;fill-rule:evenodd"
         id="path42"
         inkscape:connector-curvature="0" />
      <path
         d="m 355.8573,361.1144 c 0.3896,5.1505 -1.8506,22.8988 -2.4274,33.5399 -0.0185,0.3407 -0.4024,0.9637 -0.7479,0.9367 -5.2019,-0.0505 -11.1285,-0.3185 -16.8888,-0.3976 -5.4109,-0.0743 -10.6774,0.0386 -15.0598,-0.0495 -1.7746,-0.0356 -3.4068,-0.2644 -4.8435,-0.2827 -1.7183,-0.022 -3.1602,-0.0302 -4.2398,-0.0173 -0.2491,0.003 -0.5375,-0.2011 -0.0805,-0.528 2.0941,-1.4972 4.6026,-2.298 6.9145,-3.513 5.9723,-3.1389 13.3047,-7.7279 18.744,-11.5165 4.0604,-2.8282 7.6259,-5.2475 10.643,-8.0745 3.4196,-3.2039 6.0402,-6.8234 7.9862,-10.0975 z M 228.6467,618.1072 c -2.6338,12.0982 -3.8621,25.1489 -1.8138,38.1248 3.5035,-6.8857 5.7192,-8.8577 9.6071,-12.4224 4.1388,-3.7945 9.2565,-6.4444 14.9522,-10.1204 -7.6812,-5.194 -16.3811,-11.4853 -22.7455,-15.582 z m 53.193,-60.5102 -4.0911,35.9302 c -0.4242,3.7269 -2.9566,5.6647 -7.8892,8.2052 -4.6334,2.3867 -11.3928,4.6064 -17.4704,4.4824 -7.657,-0.1565 -15.7633,-2.204 -21.5851,-6.5426 l -0.5383,-7.884 c 3.9514,-6.6062 9.4366,-12.0752 15.834,-16.7346 9.9807,-7.269 19.6839,-12.2117 35.7401,-17.4566 z m 30.1247,-6.265 c -0.0684,5.8158 2.7743,28.6711 4.6088,43.1557 0.1968,0.8248 0.9301,1.8985 2.3324,3.1363 2.0499,1.8094 5.8589,5.1773 10.8561,6.218 4.2784,-1.9921 8.4277,-4.2994 12.5117,-6.8968 5.5965,-3.5596 10.3949,-7.8552 16.7971,-12.5568 -9.9792,-3.0598 -15.0369,-6.7195 -22.1858,-11.47 -8.6286,-5.7337 -15.4314,-12.4671 -24.9203,-21.5864 z m -87.4462,-51.7356 c 0.2459,-7.0236 0.5327,-13.1448 0.5743,-20.0217 0.0837,-13.8478 0.3365,-27.1158 -1.1023,-43.184 9.0483,-1.0274 17.4524,-0.8218 25.3308,0.3825 5.0686,0.7748 9.2321,1.6471 13.2953,3.2047 14.1292,5.4156 23.7932,15.4245 37.467,30.1586 2.5316,2.728 5.2133,5.9049 8.0981,8.9257 9.8467,10.3104 19.593,20.4658 31.7828,28.4493 6.6088,4.328 13.8666,7.82 22.4086,10.5509 -3.1822,25.6865 -3.4955,46.9984 -1.9958,64.4916 -14.8373,-4.9855 -23.7175,-10.784 -33.8689,-19.4946 -7.0412,-6.042 -13.2732,-12.5769 -19.2332,-19.2538 -4.9379,-5.5322 -9.8661,-11.2337 -15.7382,-17.0145 -2.3073,-2.2718 -4.595,-4.725 -7.0459,-6.8477 -2.9582,-2.562 -6.112,-4.7358 -9.236,-6.7175 -4.4429,-2.8183 -9.0326,-5.4634 -13.701,-7.3543 -8.2027,-3.3225 -16.6533,-5.3005 -24.9943,-5.8263 -3.7911,-0.239 -7.5606,0.1783 -11.2732,0.2302 -0.5113,0.007 -0.7814,-0.298 -0.7681,-0.6791 z m 57.1601,-81.4109 c 1.7555,10.0357 2.6481,22.6114 3.2133,34.2261 -3.6212,-2.8165 -8.0216,-5.8532 -10.7641,-8.4494 -0.197,-0.003 -0.3944,-0.007 -0.5912,-0.1099 -4.008,-2.0985 -8.0475,-4.5054 -12.1902,-6.2816 -4.897,-2.0996 -9.9419,-3.6532 -15.2564,-4.7348 -5.6271,-1.1454 -9.1414,-1.8241 -17.94,-0.8345 -0.4302,0.0483 -0.457,-0.4364 -0.3568,-0.5218 4.5244,-3.8679 9.3548,-7.3423 13.9636,-11.1098 14.5019,-1.285 27.5082,-1.8728 39.9218,-2.1843 z m 30.5469,0.027 c 7.3521,0.3658 26.058,0.4799 40.5222,2.2774 1.585,0.197 1.738,2.2385 0.2962,4.7983 -2.7536,4.8885 -10.1564,12.7035 -20.2335,19.4099 -6.728,4.4778 -15.61,8.7343 -23.2972,11.0842 0.1461,-13.4792 1.3955,-25.5545 2.7123,-37.5698 z"
         style="fill:#004d9c;fill-rule:evenodd"
         id="path44"
         inkscape:connector-curvature="0" />
      <path
         d="m 336.2973,395.2008 -0.5041,-0.007 c -5.4109,-0.0743 -10.6774,0.0386 -15.0598,-0.0495 -1.2897,-0.0258 -2.5043,-0.1539 -3.6233,-0.2288 l 0.1541,-3.5104 c 0.4105,-0.1919 0.8182,-0.3907 1.2199,-0.6018 5.8928,-3.0971 13.1096,-7.6061 18.5257,-11.3648 z m -90.2307,241.803 c 1.7059,-1.0466 3.4856,-2.1271 5.3256,-3.3146 -1.7712,-1.1978 -3.5967,-2.4539 -5.4349,-3.7278 -0.1385,2.6762 -0.1308,4.6802 0.1093,7.0424 z m 20.6122,-33.8077 c -4.267,1.753 -9.4908,3.1167 -14.2898,3.0187 -1.8935,-0.0388 -3.8144,-0.1933 -5.7214,-0.4692 0.7013,-11.0241 1.7474,-22.1327 2.9417,-33.1566 5.6444,-3.8128 11.4485,-6.9839 18.6012,-9.9844 -0.47,13.8338 -1.7088,27.9807 -1.5317,40.5915 z m 45.2856,-51.8641 c -0.0684,5.8158 2.7743,28.6711 4.6088,43.1557 0.1968,0.8248 0.9301,1.8985 2.3324,3.1363 1.8869,1.6657 5.2645,4.6515 9.6874,5.9276 0.3304,-11.9565 -1.052,-28.4567 -0.0234,-36.8579 -5.2302,-4.3444 -10.3306,-9.3314 -16.6052,-15.3617 z m 37.1392,40.7454 c 3.0955,-2.3845 6.2629,-4.9688 9.9669,-7.689 -4.2064,-1.2898 -7.5383,-2.6861 -10.5209,-4.2257 0.0375,3.8705 0.1029,7.463 0.554,11.9147 z M 241.0037,435.8949 c 2.8377,0.1684 5.6086,0.4642 8.3173,0.8783 3.8556,0.5894 7.1875,1.2352 10.3499,2.1962 2.7814,26.0125 3.8211,46.6471 3.3814,67.5356 -0.4986,-0.2193 -0.9982,-0.4306 -1.4985,-0.6334 -6.1718,-2.5 -12.484,-4.2386 -18.7843,-5.1703 0.6914,-18.344 -0.0499,-43.4506 -1.7658,-64.8064 z m 40.4393,15.602 c 5.9177,5.0328 11.7733,11.2402 18.6403,18.6396 0.663,0.7145 1.3363,1.4595 2.0207,2.2247 0.3149,7.2502 1.2039,15.0118 1.4653,22.0331 0.1469,3.9487 0.3586,7.8242 0.4407,11.5779 0.3,13.7114 0.1455,25.8103 -0.1163,34.0309 -3.8488,-4.329 -7.8214,-8.7468 -12.357,-13.212 -2.3073,-2.2718 -4.595,-4.725 -7.0459,-6.8477 -0.456,-0.395 -0.9166,-0.7807 -1.381,-1.1578 0.3215,-7.8659 0.5045,-15.3448 0.4789,-22.5768 -0.0557,-15.578 -0.895,-30.0139 -2.1457,-44.7119 z m 42.5635,43.4126 c 4.9509,4.5454 10.1797,8.8178 15.9577,12.602 1.2403,0.8122 2.5032,1.5948 3.7933,2.3487 0.6536,10.4635 1.3085,20.7658 1.4931,30.9031 0.2139,11.734 0.1129,23.491 -0.6025,35.1117 -6.5953,-3.5446 -12.1463,-7.6725 -18.14,-12.8156 -1.2065,-1.0351 -2.3889,-2.0849 -3.5504,-3.1473 1.058,-7.62 1.7003,-23.3457 1.7669,-37.1043 0.0461,-9.5384 -0.331,-19.1819 -0.7181,-27.8983 z m -69.4147,-59.8618 c -2.7666,-0.8866 -5.594,-1.62 -8.5021,-2.2118 -3.5295,-0.7184 -6.2281,-1.2532 -9.9206,-1.3078 l 0.6178,-7.2251 c 1.6689,-1.2947 3.3331,-2.5956 4.9696,-3.9332 4.7389,-0.4199 9.3181,-0.7654 13.7692,-1.051 z m 61.091,-16.6994 c 5.0157,0.166 12.3383,0.3328 20.0418,0.7391 l 0.9309,22.9064 c -1.2325,0.9144 -2.5152,1.8191 -3.8454,2.7043 -4.8554,3.2316 -10.8326,6.3478 -16.6729,8.7152 -0.5427,-10.0673 -0.3725,-23.0185 -0.4544,-35.065 z m -34.0045,-0.1628 c 1.7555,10.0357 2.6481,22.6114 3.2133,34.2261 -3.3844,-2.6324 -7.4495,-5.457 -10.2055,-7.9347 l 1.1593,-26.1246 c 1.9609,-0.0633 3.9041,-0.1185 5.8329,-0.1668 z"
         style="fill:#ffc800;fill-rule:evenodd"
         id="path46"
         inkscape:connector-curvature="0" />
      <path
         d="m 301.221,398.1355 -4.3686,8.3086 c -21.4431,0.7493 -38.2437,1.054 -57.4997,5.2672 l -0.6584,-0.6584 c 12.2898,-4.0689 28.136,-6.9143 47.8329,-7.5819 l -1.3168,-0.5486 c -11.0114,-0.8029 -22.1901,-0.1467 -33.6595,1.7177 -8.9207,1.45 -18.1182,3.912 -27.451,7.4894 l -1.5466,-4.3789 4.2796,-8.2299 c 11.4706,-0.0849 22.9044,-0.2439 34.3064,-0.4652 13.3341,-0.2588 27.5931,-1.1637 40.0817,-0.92 z m 109.2352,134.6621 c 2.9835,8.0653 3.81,20.2591 1.9877,35.8774 -0.8898,7.6256 -2.7648,16.4139 -4.8614,26.0179 -3.4601,-9.0891 -7.0215,-13.6738 -10.7744,-16.0313 2.485,-4.9276 4.831,-10.2742 6.5841,-15.2016 l 0.6035,0.051 -2.14,11.6909 c 1.8568,-1.6557 3.586,-6.9688 4.7631,-11.6817 2.1091,-8.4458 2.9902,-19.7506 3.8374,-30.7226 z M 314.93,645.0144 c 3.3448,-3.1415 6.7978,-6.1688 11.0366,-9.0513 3.6466,-2.4799 7.6117,-4.3903 11.7662,-6.5797 5.5142,-2.9064 11.3654,-6.0804 17.257,-9.5205 l -0.4286,-0.5487 c -8.312,4.2567 -18.0965,6.8368 -30.5056,6.704 l -0.3976,0.4493 c 2.0848,1.0607 5.3718,1.5158 8.6275,1.4058 -4.1058,1.3443 -8.2311,1.5194 -12.6295,0.2298 l -5.092,16.1869 c -0.2946,0.9369 -0.0964,1.1586 0.366,0.7244 z m -17.8713,-110.317 -0.0966,117.8657 -0.4497,0.0493 c -2.3564,-8.5293 -4.9604,-12.8733 -7.8251,-16.5493 -0.7342,-0.9421 8e-4,1.244 0.1008,1.5013 2.328,5.9879 3.3084,8.8024 3.8736,13.5159 l -0.491,0.1145 c -7.2288,-8.6971 -14.5831,-15.5732 -23.4092,-20.0398 -0.3596,-0.1819 -0.6751,-0.2149 -0.779,-0.0817 -0.0919,0.1175 -0.0116,0.349 0.395,0.6379 7.2858,5.1791 13.7553,11.066 18.1147,19.0298 l -0.1769,0.2326 c -6.6386,-5.7715 -16.4523,-12.9902 -24.9885,-18.6267 -5.5133,-3.6402 -11.2432,-7.388 -16.9057,-10.9458 -11.5955,-7.285 -22.916,-14.7323 -31.5331,-25.5119 -5.0223,-6.2824 -9.5827,-13.5438 -13.116,-21.0274 -3.4246,-7.2533 -5.9741,-14.8173 -7.6934,-21.8033 -1.4204,-5.7707 -2.621,-12.6592 -2.2151,-15.851 1.7456,5.9858 4.2396,11.7374 7.0469,16.9004 2.9719,5.4655 8.1033,12.5285 11.2784,15.0587 -0.0935,-1.0156 -0.604,-1.8817 -0.9825,-2.6117 -1.1607,-2.239 -2.1835,-3.9229 -3.5901,-6.1158 -0.8162,-1.2722 -0.1744,-1.6557 0.6027,-0.7422 3.4693,4.0773 6.9523,7.2872 11.3994,10.964 0.8385,0.6932 0.4593,0.7467 -0.0862,0.8779 -3.975,0.956 -7.1016,1.9744 -10.719,3.908 -0.5308,0.2837 -0.7079,0.4099 -0.2576,1.2538 4.6441,8.7022 9.895,14.7065 14.9341,19.7027 7.4121,7.349 15.1303,11.5338 23.5105,13.0408 4.8308,0.8685 12.3717,1.3744 19.199,-0.008 3.3883,-0.6861 6.6839,-1.6244 9.6335,-2.963 6.4897,-2.9457 11.3124,-7.4535 11.7966,-12.8041 l 6.0421,-66.751 c 2.192,2.2684 4.7173,4.9265 7.3874,7.7791 z m -11.1706,-210.786 c -4.2034,2.9693 -10.5049,7.9415 -11.9791,17.1795 -0.9462,5.9305 0.9912,11.7936 3.5542,16.0483 0.2896,0.4807 0.5876,1.0399 0.89,1.4744 1.1203,1.6106 2.3085,3.0888 3.3933,4.2016 0.6485,0.6652 1.7007,2.1925 1.4812,3.0785 -1.1864,-0.7705 -6.4722,-5.2918 -9.4455,-12.3576 -0.472,0.8198 0.0326,2.5823 0.9243,4.4615 1.3799,2.9073 3.1515,5.851 5.3119,7.7574 0.6463,0.5703 0.1602,1.2998 -0.5872,0.6862 -6.1019,-5.0113 -9.7137,-12.5208 -9.7137,-21.0392 0,-4.5042 0.9731,-8.7547 2.8787,-12.5005 2.2231,-4.3702 5.6071,-8.1544 9.7459,-10.7567 4.0114,-2.5223 8.7328,-3.9289 13.7948,-4.0571 -1.0118,0.5693 -3.8134,1.2311 -6.4094,2.2039 -2.5958,0.9729 -4.9902,2.2617 -6.7753,3.2872 -1.8164,1.0437 -2.9926,1.9828 -2.8714,2.564 1.8633,-1.2303 3.4302,-2.2443 4.4561,-2.7608 0.9162,-0.4612 1.3904,-0.5751 1.7249,-0.6283 1.0057,-0.1601 -0.0202,0.9082 -0.3737,1.1577 z m 37.7717,16.5382 c 1.1135,2.5842 0.8578,7.4504 -0.161,11.6318 -0.4974,2.0415 -1.1313,4.0609 -2.105,5.8911 -1.8406,3.4598 -5.8959,8.6909 -9.3857,10.032 -0.0499,-0.4382 0.2565,-0.9828 0.6032,-1.355 2.4242,-2.6023 5.2594,-5.2663 7.0845,-8.0023 l -0.5491,-0.0336 c -0.9518,1.2109 -1.7833,1.9708 -3.3393,2.8515 l -0.3948,-0.7369 c 0.6419,-1.0397 1.8621,-2.8445 2.8859,-4.4005 1.2591,-1.9141 2.2845,-3.8173 3.0733,-5.9621 0.5341,-1.4531 0.9786,-2.9566 1.2869,-4.99 0.2626,-1.7327 0.3777,-4.0251 1.0011,-4.926 z m -26.7265,77.4476 0.094,46.4843 c -2.0694,-2.1984 -4.1694,-4.3588 -6.3543,-6.5264 -0.464,-12.1461 -1.643,-25.3641 -3.8035,-39.8002 2.6726,0.007 5.3026,0.0228 7.9485,-0.0463 0.7033,-0.0185 1.4088,-0.0674 2.1153,-0.1114 z m -0.3211,-53.7413 v 26.8573 l -7.4514,-0.0787 3.7205,-26.7373 z"
         style="fill:#ffffff;fill-rule:evenodd"
         id="path48"
         inkscape:connector-curvature="0" />
    </g>
    <g
       id="Layer1004">
      <path
         d="m 297.6788,137.4802 7.8766,24.4013 25.641,-0.0493 -20.773,15.0315 7.9704,24.3709 -20.715,-15.1113 -20.7151,15.1113 7.9704,-24.3709 -20.773,-15.0315 25.641,0.0493 z"
         style="fill:#ffc800;fill-rule:evenodd"
         id="path51"
         inkscape:connector-curvature="0" />
      <path
         d="m 297.6787,137.4802 7.8767,24.4013 -7.8987,9.1563 33.5397,-9.2056 -20.773,15.0315 -12.7667,-5.8259 20.7372,30.1968 -20.7152,-15.1112 -0.022,-15.0856 -20.6931,30.1968 7.9705,-24.3709 12.7226,-5.8259 -33.4956,-9.2056 25.641,0.0493 7.8546,9.1563 z"
         style="fill:#fab000;fill-rule:evenodd"
         id="path53"
         inkscape:connector-curvature="0" />
    </g>
  </g>
</svg>
