<?xml version="1.0" encoding="UTF-8" standalone="no"?>
<!-- Created with Inkscape (http://www.inkscape.org/) -->

<svg
   xmlns:dc="http://purl.org/dc/elements/1.1/"
   xmlns:cc="http://creativecommons.org/ns#"
   xmlns:rdf="http://www.w3.org/1999/02/22-rdf-syntax-ns#"
   xmlns:svg="http://www.w3.org/2000/svg"
   xmlns="http://www.w3.org/2000/svg"
   xmlns:sodipodi="http://sodipodi.sourceforge.net/DTD/sodipodi-0.dtd"
   xmlns:inkscape="http://www.inkscape.org/namespaces/inkscape"
   width="252.00002"
   height="252.00069"
   viewBox="0 0 252.00003 252.00068"
   id="svg2"
   version="1.1"
   inkscape:version="0.91 r13725"
   sodipodi:docname="havnar boltfelag.svg">
  <defs
     id="defs4" />
  <sodipodi:namedview
     id="base"
     pagecolor="#ffffff"
     bordercolor="#666666"
     borderopacity="1.0"
     inkscape:pageopacity="0.0"
     inkscape:pageshadow="2"
     inkscape:zoom="0.51598204"
     inkscape:cx="108.18066"
     inkscape:cy="412.75057"
     inkscape:document-units="px"
     inkscape:current-layer="layer1"
     showgrid="false"
     fit-margin-top="0"
     fit-margin-left="0"
     fit-margin-right="0"
     fit-margin-bottom="0"
     units="px"
     inkscape:window-width="1280"
     inkscape:window-height="744"
     inkscape:window-x="-4"
     inkscape:window-y="-4"
     inkscape:window-maximized="1" />
  <metadata
     id="metadata7">
    <rdf:RDF>
      <cc:Work
         rdf:about="">
        <dc:format>image/svg+xml</dc:format>
        <dc:type
           rdf:resource="http://purl.org/dc/dcmitype/StillImage" />
        <dc:title></dc:title>
      </cc:Work>
    </rdf:RDF>
  </metadata>
  <g
     inkscape:label="Layer 1"
     inkscape:groupmode="layer"
     id="layer1"
     transform="translate(-263.86658,-686.93107)">
    <g
       transform="matrix(0.52504937,0,0,-0.52504937,227.60368,1071.3778)"
       inkscape:label="ink_ext_XXXXXX"
       id="g3344">
      <g
         transform="scale(0.1,0.1)"
         id="g3346">
        <path
           inkscape:connector-curvature="0"
           id="path3348"
           style="fill:#ffffff;fill-opacity:1;fill-rule:evenodd;stroke:none"
           d="m 5471.16,4922.39 c 0,-1314.83 -1065.9,-2380.8 -2380.73,-2380.8 -1314.83,0 -2380.727,1065.97 -2380.727,2380.8 0,1314.77 1065.897,2380.67 2380.727,2380.67 1314.83,0 2380.73,-1065.9 2380.73,-2380.67" />
        <path
           inkscape:connector-curvature="0"
           id="path3350"
           style="fill:#2f2f32;fill-opacity:1;fill-rule:evenodd;stroke:none"
           d="m 3089.19,2633.62 c 1264.8,0 2290.69,1023.5 2290.69,2288.28 0,1264.9 -1025.89,2290.8 -2290.69,2290.8 l 0,-4579.08" />
        <path
           inkscape:connector-curvature="0"
           id="path3352"
           style="fill:#ee222b;fill-opacity:1;fill-rule:evenodd;stroke:none"
           d="m 3089.19,2633.62 c -1262.32,0 -2288.268,1023.5 -2288.268,2288.28 0,1264.9 1025.948,2290.8 2288.268,2290.8 l 0,-4579.08" />
        <path
           inkscape:connector-curvature="0"
           id="path3354"
           style="fill:#ffffff;fill-opacity:1;fill-rule:evenodd;stroke:none"
           d="m 979.129,4919.25 7.695,105.63 154.496,-11.27 8.44,115.43 -154.631,11.19 7.631,105.57 442.03,-32.07 -7.63,-105.57 -178.52,12.99 -8.42,-115.41 178.51,-12.93 -7.64,-105.57 -441.961,32.01" />
        <path
           inkscape:connector-curvature="0"
           id="path3356"
           style="fill:#ffffff;fill-opacity:1;fill-rule:evenodd;stroke:none"
           d="m 1451.88,5502.49 -35.65,-113.82 64.7,-38.16 -32.25,-103.17 -384.85,253.86 34.9,111.53 461.05,-10.22 -33.05,-105.62 -74.85,5.6 z m -98.31,7.33 -163.06,12.06 140.85,-83.09 22.21,71.03" />
        <path
           inkscape:connector-curvature="0"
           id="path3358"
           style="fill:#ffffff;fill-opacity:1;fill-rule:evenodd;stroke:none"
           d="m 1141.82,5745.77 51.7,97.75 317.7,-81.27 -246.66,215.69 50.11,94.92 332.65,-318.98 -53.5,-101.13 -452,93.02" />
        <path
           inkscape:connector-curvature="0"
           id="path3360"
           style="fill:#ffffff;fill-opacity:1;fill-rule:evenodd;stroke:none"
           d="m 1360.95,6137.81 62.68,76.14 272.07,-56.57 -189.72,156.47 63.22,76.65 341.87,-281.87 -63.21,-76.63 -270.53,56.13 188.66,-155.49 -63.15,-76.7 -341.89,281.87" />
        <path
           inkscape:connector-curvature="0"
           id="path3362"
           style="fill:#ffffff;fill-opacity:1;fill-rule:evenodd;stroke:none"
           d="m 2079.69,6337.68 -94.56,-72.7 31.02,-68.44 -85.62,-65.94 -169.34,428.86 92.58,71.23 371.68,-273.06 -87.71,-67.48 -58.05,47.53 z m -76.34,62.54 -126.56,103.42 67.6,-148.85 58.96,45.43" />
        <path
           inkscape:connector-curvature="0"
           id="path3364"
           style="fill:#ffffff;fill-opacity:1;fill-rule:evenodd;stroke:none"
           d="m 2255.85,6371.29 -186.51,401.9 160.48,74.47 c 29.73,13.8 53.98,21.06 72.81,21.8 18.72,0.75 37.06,-5.6 54.98,-18.9 17.85,-13.35 32.75,-32.8 44.62,-58.35 10.34,-22.28 15.51,-43.15 15.63,-62.85 0,-19.58 -4.17,-37.43 -12.49,-53.55 -5.41,-10.22 -14.34,-20.82 -26.84,-31.7 13.67,0.36 24.33,-0.81 31.9,-3.34 5.04,-1.66 13.47,-6.33 25.16,-14.08 11.76,-7.69 20.14,-13.98 25.05,-18.77 l 101.14,-94.68 -108.46,-50.36 -108.95,98.92 c -13.91,12.93 -24.5,20.57 -31.83,22.96 -9.84,3.02 -19.14,2.46 -27.93,-1.66 l -8.57,-3.87 75.9,-163.37 -96.09,-44.57 z m -15.15,284.14 41.25,19.09 c 4.38,2.09 12.2,7.87 23.33,17.53 5.72,4.63 9.06,11.21 10.04,19.83 0.99,8.62 -0.5,17.29 -4.61,26.03 -5.99,12.88 -13.8,21.23 -23.47,25.13 -9.65,3.92 -23.45,1.71 -41.23,-6.53 l -42.98,-19.89 37.67,-81.19" />
        <path
           inkscape:connector-curvature="0"
           id="path3366"
           style="fill:#ffffff;fill-opacity:1;fill-rule:evenodd;stroke:none"
           d="m 2844.33,7022.55 197.54,9.04 c 32.98,1.55 58.71,-7.93 77.3,-28.37 18.6,-20.38 28.63,-46.22 30.04,-77.56 1.24,-26.23 -4.06,-49.07 -15.82,-68.38 -7.82,-13 -19.63,-23.4 -35.46,-31.41 25.13,-6.51 43.9,-18.71 56.45,-36.8 12.5,-18.04 19.4,-41.06 20.69,-69.13 1.05,-22.96 -2.09,-43.64 -9.54,-62.35 -7.4,-18.6 -18.04,-33.62 -31.83,-44.88 -8.54,-7.01 -21.72,-12.44 -39.45,-16.31 -23.64,-5.11 -39.4,-7.82 -47.16,-8.13 l -182.45,-8.43 -20.31,442.71 z m 114.87,-169.53 45.66,2.09 c 16.32,0.76 27.59,4.99 33.61,12.69 6.1,7.75 8.81,18.65 8.2,32.68 -0.68,13.06 -4.31,23.16 -11.03,30.17 -6.77,7.06 -18.09,10.21 -34.04,9.48 l -46.3,-2.1 3.9,-85.01 z m 7.94,-173.34 53.91,2.41 c 18.16,0.86 30.78,5.6 37.92,14.27 7.01,8.62 10.28,20.07 9.61,34.1 -0.56,13 -4.74,23.33 -12.51,30.9 -7.74,7.64 -20.85,10.96 -39.33,10.16 l -53.67,-2.47 4.07,-89.37" />
        <path
           inkscape:connector-curvature="0"
           id="path3368"
           style="fill:#ffffff;fill-opacity:1;fill-rule:evenodd;stroke:none"
           d="m 3212.12,6814.37 c 11.15,71.52 35.28,124.78 72.2,159.8 37.06,35.02 82.99,48.26 137.9,39.69 56.33,-8.79 96.58,-35.14 120.89,-79.02 24.37,-43.96 31.02,-101.09 20.01,-171.63 -7.94,-51.14 -21.24,-92.15 -39.59,-122.8 -18.46,-30.66 -41.67,-53.12 -69.62,-67.46 -28.01,-14.29 -60.81,-18.53 -98.29,-12.69 -38.18,6.04 -68.46,18.78 -91.05,38.41 -22.53,19.7 -38.91,47.72 -49.12,84.21 -10.15,36.45 -11.32,80.33 -3.33,131.49 z m 104.54,-16.8 c -6.92,-44.27 -5.55,-77.02 4.11,-98.31 9.67,-21.31 25.36,-33.6 47.22,-37.06 22.46,-3.51 41.23,3.26 56.5,20.26 15.27,16.98 26.71,49.97 34.36,98.97 6.4,41.2 4.67,72.27 -5.12,93.33 -9.91,21.04 -25.79,33.29 -47.77,36.68 -21.05,3.33 -39.45,-3.7 -55.21,-21.05 -15.75,-17.3 -27.08,-48.26 -34.09,-92.82 z m 120.45,325.56 80.89,-12.68 -88.47,-77.86 -45.23,7.06 52.81,83.48" />
        <path
           inkscape:connector-curvature="0"
           id="path3370"
           style="fill:#ffffff;fill-opacity:1;fill-rule:evenodd;stroke:none"
           d="m 3710.79,6943.7 99.28,-36.82 -116.03,-313.13 154.46,-57.25 -37.94,-102.36 -253.72,94.05 153.95,415.51" />
        <path
           inkscape:connector-curvature="0"
           id="path3372"
           style="fill:#ffffff;fill-opacity:1;fill-rule:evenodd;stroke:none"
           d="m 4007.49,6830.86 278.85,-160.9 -54.54,-94.48 -93.63,53.97 -166.81,-289.25 -91.79,52.89 166.94,289.3 -93.56,53.99 54.54,94.48" />
        <path
           inkscape:connector-curvature="0"
           id="path3374"
           style="fill:#ffffff;fill-opacity:1;fill-rule:evenodd;stroke:none"
           d="m 4364.95,6610.43 198.88,-168.84 -61.49,-72.39 -118.07,100.4 -50.22,-59.15 100.7,-85.45 -58.06,-68.21 -100.57,85.5 -117.26,-138.12 -80.7,68.5 286.79,337.76" />
        <path
           inkscape:connector-curvature="0"
           id="path3376"
           style="fill:#ffffff;fill-opacity:1;fill-rule:evenodd;stroke:none"
           d="m 4633.26,6371.22 179.99,-218.02 -73.18,-60.39 -112.65,136.29 -53.75,-44.44 104.84,-127.07 -69.87,-57.73 -104.88,127.11 -67.36,-55.57 116.11,-140.54 -77.51,-63.97 -183.37,222.16 341.63,282.17" />
        <path
           inkscape:connector-curvature="0"
           id="path3378"
           style="fill:#ffffff;fill-opacity:1;fill-rule:evenodd;stroke:none"
           d="m 4879.31,6052.99 51.26,-92.58 -292.27,-161.77 79.85,-144.17 -95.41,-52.87 -131.11,236.8 387.68,214.59" />
        <path
           inkscape:connector-curvature="0"
           id="path3380"
           style="fill:#ffffff;fill-opacity:1;fill-rule:evenodd;stroke:none"
           d="m 4782.1,5344.16 -32.68,114.74 -74.98,-3.43 -29.49,103.89 461,-1.34 31.95,-112.41 -391.26,-244.25 -30.22,106.42 65.68,36.38 z m 86.37,47.78 142.8,79.22 -163.23,-7.58 20.43,-71.64" />
        <path
           inkscape:connector-curvature="0"
           id="path3382"
           style="fill:#ffffff;fill-opacity:1;fill-rule:evenodd;stroke:none"
           d="m 4916.3,5042.48 91.47,6.1 10.9,-163.43 -188.92,-12.56 c -29.73,29.42 -50.35,55.83 -61.92,79.21 -11.57,23.4 -18.41,51.6 -20.63,84.58 -2.77,40.64 4,74.32 20.26,101.15 16.2,26.72 41.48,48.32 75.96,64.81 34.4,16.43 74.54,26.17 120.51,29.19 48.22,3.26 90.74,-1.68 127.43,-14.73 36.68,-12.98 65.37,-33.78 85.82,-62.34 15.88,-22.23 25.04,-53.01 27.69,-92.22 2.58,-37.85 0,-66.48 -7.57,-85.81 -7.63,-19.39 -20.25,-35.83 -37.92,-49.42 -17.78,-13.68 -40.62,-24.56 -68.63,-32.63 l -30.04,99.72 c 16.19,5.36 28.44,13.35 36.57,24.06 7.99,10.72 11.62,23.96 10.52,39.65 -1.53,23.45 -13.17,41.49 -34.97,53.98 -21.72,12.5 -55.15,17.25 -100.28,14.28 -47.82,-3.27 -81.62,-12.5 -101.18,-27.82 -19.65,-15.33 -28.64,-35.45 -26.91,-60.51 0.81,-11.76 3.75,-22.96 8.99,-33.42 5.16,-10.46 13.66,-22.29 25.43,-35.52 l 42.1,2.9 -4.68,70.78" />
        <path
           inkscape:connector-curvature="0"
           id="path3384"
           style="fill:#ffffff;fill-opacity:1;fill-rule:evenodd;stroke:none"
           d="m 2792.49,3241.97 -75.15,-373.95 -77.56,15.59 49.18,244.73 c -15.08,-10.1 -29.24,-17.97 -42.46,-23.39 -13.25,-5.54 -29.37,-10.04 -48.51,-13.67 l 16.8,83.48 c 28.25,6.04 51.14,15.44 68.69,28.31 17.54,12.87 32.76,30.16 45.55,51.64 l 63.46,-12.74" />
        <path
           inkscape:connector-curvature="0"
           id="path3386"
           style="fill:#ffffff;fill-opacity:1;fill-rule:evenodd;stroke:none"
           d="m 2821.86,2935.18 78.24,7.63 c 1.04,-14.47 3.75,-24.86 8.18,-31.02 4.43,-6.22 10.1,-9.6 17.12,-10.04 12.44,-0.85 22.65,6.89 30.9,23.21 5.84,12 11.52,37.99 16.81,77.87 -10.16,-12.07 -20.39,-20.81 -30.54,-25.98 -10.21,-5.36 -21.73,-7.57 -34.59,-6.7 -25.12,1.78 -45.43,15.13 -61.07,40.14 -15.51,25.03 -22.09,55.81 -19.62,92.32 1.7,24.88 7.69,47.21 17.89,67.1 10.16,19.83 23.28,34.47 39.48,43.89 16.12,9.42 35.82,13.35 59.15,11.76 28,-1.97 50.09,-9.86 66.11,-23.89 16.05,-14.03 28.18,-35.4 36.44,-64.07 8.25,-28.69 10.71,-65.99 7.62,-111.97 -4.68,-67.67 -18.71,-116.35 -42.1,-146.33 -23.46,-29.92 -54.04,-43.58 -91.65,-41 -22.35,1.55 -39.64,6.16 -52.01,13.85 -12.44,7.77 -22.41,18.53 -30.05,32.32 -7.69,13.85 -13.05,30.85 -16.31,50.91 z m 154.51,157.46 c 1.41,20.31 -1.36,36.5 -8.14,48.56 -6.82,12.08 -15.68,18.48 -26.64,19.21 -10.28,0.73 -19.14,-3.94 -26.66,-13.9 -7.5,-9.92 -11.93,-25.37 -13.42,-46.17 -1.41,-21.06 1.05,-37.38 7.26,-48.95 6.28,-11.57 14.78,-17.72 25.25,-18.46 10.96,-0.8 20.38,4 28.32,14.35 7.99,10.2 12.61,25.35 14.03,45.36" />
        <path
           inkscape:connector-curvature="0"
           id="path3388"
           style="fill:#ffffff;fill-opacity:1;fill-rule:evenodd;stroke:none"
           d="m 3115,3024.99 c -4.94,71.16 1.16,121.57 18.39,151.3 17.18,29.86 45.36,45.98 84.57,48.7 18.78,1.35 34.49,-0.68 46.98,-6.11 12.56,-5.4 22.96,-12.73 31.27,-22.21 8.32,-9.42 15.09,-19.52 20.25,-30.1 5.11,-10.71 9.55,-23.27 13.23,-37.74 7.15,-27.51 11.76,-56.44 13.85,-86.72 4.68,-67.96 -0.49,-118.2 -15.51,-150.95 -14.95,-32.61 -43.45,-50.41 -85.43,-53.36 -23.52,-1.6 -42.85,2.09 -58.12,11.13 -15.2,8.99 -28.06,22.91 -38.72,41.74 -7.69,13.25 -14.27,31.78 -19.63,55.47 -5.41,23.63 -9.11,49.92 -11.13,78.85 z m 77.3,4.99 c 3.26,-47.7 8.69,-80.03 16.19,-97.08 7.52,-17.05 17.17,-25.11 29.17,-24.31 7.82,0.49 14.41,4.68 19.65,12.5 5.24,7.81 8.67,19.82 10.28,36.06 1.66,16.12 1.29,41.25 -1.05,75.17 -3.45,49.73 -8.86,82.97 -16.37,99.65 -7.4,16.68 -17.43,24.57 -30.04,23.7 -12.81,-0.86 -21.43,-10.21 -25.92,-28.06 -4.5,-17.92 -5.17,-50.43 -1.91,-97.63" />
        <path
           inkscape:connector-curvature="0"
           id="path3390"
           style="fill:#ffffff;fill-opacity:1;fill-rule:evenodd;stroke:none"
           d="m 3541.38,2958.02 -139.35,-29.43 -17.67,83.79 92.76,249.97 66.74,14.1 47.58,-225.3 34.77,7.38 16.61,-79.03 -34.7,-7.32 14.59,-68.95 -66.73,-14.02 -14.6,68.81 z m -16.68,79.03 -24.38,115.43 -49.05,-130.94 73.43,15.51" />
        <path
           inkscape:connector-curvature="0"
           id="path3392"
           style="fill:#b69b58;fill-opacity:1;fill-rule:evenodd;stroke:none"
           d="m 4465.96,4876.16 c -0.12,0 -0.38,0 -0.38,0 0,-0.43 0,-0.99 -0.06,-1.48 -9.54,-252.5 -92.75,-491.03 -226.83,-695.82 l -838.02,492.26 -36.57,193.16 -63.71,58.79 -8.25,2.82 132.35,303.96 c 0,0 479.78,-208.79 494.05,-215.07 l 184.12,423.13 c -7.28,7.64 -572.78,531.72 -572.78,531.72 0,0 -747.28,47.22 -757.82,47.47 l -184.18,-423.07 c 14.23,-6.28 494.17,-215.14 494.17,-215.14 l -131.42,-301.69 -6.14,0.87 c -0.39,0.17 -106.81,12.05 -106.81,12.05 l -114.55,-141.07 -96.33,-328.48 c 0,0 78.41,-90.18 78.97,-90.61 l 5.11,-3.75 -222.96,-546.07 2.77,-16.05 c 0,0 74.98,-64.94 143.73,-94.75 67.96,-29.61 164.47,-47.82 164.47,-47.82 l 4.38,8.44 261.61,569.82 56.7,-18.83 633.41,-667.9 c -161.89,-103.96 -362.75,-192.23 -578.94,-192.23 0.12,1.12 14.15,32.39 14.15,32.68 -48,-3.31 -103.22,-4.55 -152.4,-2.7 l -0.07,-0.49 c -697.73,27.03 -1288.54,614.2 -1352.74,1289.35 1.1,-0.07 32.37,-14.17 32.68,-14.1 -3.19,47.52 -4.5,101.87 -2.77,150.69 0.12,0 0.37,0 0.37,0 0,0.49 0,0.98 0.07,1.47 26.39,698.3 614,1289.59 1289.47,1353.86 -0.13,-1.1 -14.17,-32.37 -14.17,-32.74 48.02,3.39 103.23,4.68 152.41,2.83 l 0,0.49 c 697.81,-27.03 1288.63,-614.32 1352.82,-1289.41 -1.1,0.06 -32.37,14.1 -32.68,14.1 3.19,-47.53 4.43,-101.88 2.77,-150.69 z m -1307.57,1485.1 64.88,103.47 -74.25,0.68 c -0.17,0 -0.41,0 -0.66,0 l 0,-0.07 C 2346.09,6494.9 1695.02,5794.76 1657.89,4993.54 l -105.86,65.26 -0.68,-74.17 C 1520.88,4182 2220.9,3528.52 3022.41,3491.21 l -64.82,-103.54 74.23,-0.67 c 0.19,0 0.43,0.06 0.68,0.06 l 0,0.07 c 802.27,-29.61 1453.34,670.52 1490.4,1471.73 l 105.93,-65.19 0.73,74.05 c 30.42,802.75 -669.65,1456.16 -1471.17,1493.54" />
        <path
           inkscape:connector-curvature="0"
           id="path3394"
           style="fill:#ffffff;fill-opacity:1;fill-rule:evenodd;stroke:none"
           d="m 1647.86,5013.68 c -23.33,14.34 -107.59,66.29 -107.59,66.29 l -0.86,-95.22 c -0.62,-16.26 -0.92,-32.51 -0.92,-48.75 0,-750.81 657.11,-1407.05 1463.61,-1454.82 -14.53,-23.21 -65.94,-105.2 -65.94,-105.2 l 95.48,-0.86 c 770.25,-28.32 1452.85,640.18 1501.34,1463.62 23.28,-14.35 107.61,-66.31 107.61,-66.31 l 0.86,95.24 c 0.62,16.31 0.92,32.49 0.92,48.68 0,750.81 -657.11,1407.11 -1463.62,1454.94 14.54,23.14 65.95,105.08 65.95,105.08 l -95.56,0.97 c -770.17,28.2 -1452.83,-640.18 -1501.28,-1463.66 z m 21.92,-20.75 c 37.98,819.86 714.91,1488.61 1478.15,1460.53 0,0 32.07,-0.25 53.98,-0.49 -15.39,-24.62 -64.39,-102.67 -64.39,-102.67 l 20.37,-1 c 803.07,-37.35 1460.59,-688.3 1460.59,-1433.12 0,-16.02 -0.24,-31.95 -0.78,-47.95 0,0 -0.32,-31.78 -0.51,-53.38 -24.8,15.2 -105.2,64.75 -105.2,64.75 l -0.91,-20.19 c -38.05,-819.73 -714.91,-1488.6 -1478.15,-1460.4 0,0 -32.07,0.24 -53.98,0.42 15.39,24.62 64.39,102.74 64.39,102.74 l -20.39,0.87 c -803.1,37.41 -1460.65,688.38 -1460.65,1433.25 0,15.95 0.25,31.9 0.86,47.95 0,0 0.32,31.71 0.56,53.38 24.74,-15.27 105.2,-64.82 105.2,-64.82 l 0.86,20.13" />
        <path
           inkscape:connector-curvature="0"
           id="path3396"
           style="fill:#ffffff;fill-opacity:1;fill-rule:evenodd;stroke:none"
           d="M 3003.64,6343.41 C 2312.8,6277.73 1729.48,5665.24 1703.45,4978.15 c -0.73,-16.85 -1.04,-34.53 -1.04,-52.43 0,-27.03 1.29,-54.67 2.77,-81.94 -7.09,2.77 -37.86,14.83 -37.86,14.83 l 5.91,-20.07 c 65.56,-690.34 677.54,-1273.59 1364.07,-1300.11 41.56,-1.1 89.51,0.07 134.68,2.58 -3.14,-7.75 -14.34,-35.75 -14.34,-35.75 l 18.41,3.68 c 187.93,0 384.91,65.31 585.4,194.15 l 12.07,7.7 -645.37,680.49 -69.6,23.15 c 0,0 -265.99,-579.37 -266.06,-579.5 -24.18,5.07 -98.41,21.5 -153.33,45.37 -58.78,25.5 -123.11,78.07 -137.45,90.06 -0.55,3.33 -0.98,5.67 -1.42,8.44 2.53,6.29 225.11,551.59 225.11,551.59 l -12.61,9.24 c 0,-0.06 0,-0.06 0,-0.06 0,0.37 -56.94,65.68 -72.7,83.85 3.44,12 92.45,315.6 93.75,320.03 2.83,3.44 101.5,124.88 109.01,134.13 11.39,-1.31 99.84,-11.28 99.84,-11.28 l 15.27,-2.28 139.73,321.02 c 0,0 -473.35,206.09 -494.1,215.13 8.79,20.33 169.88,390.33 176.04,404.55 64.39,-3.82 503.52,-31.39 745.19,-46.65 182.83,-169.41 515.54,-477.86 563.62,-523.05 -6.23,-14.34 -167.13,-384.23 -176.06,-404.61 -20.87,9.11 -494.1,215.08 -494.1,215.08 l -142.19,-326.68 c 0,0 15.63,-5.41 18.09,-6.21 3.27,-3.07 53.87,-49.68 59.03,-54.41 1.36,-7.45 36.75,-194.64 36.75,-194.64 l 852.55,-500.64 6.16,9.49 c 140.39,214.27 219.44,456.98 228.74,701.8 l 0.43,1.53 c 0.49,14.83 0.79,30.41 0.79,46.34 0,28.2 -1.42,57.62 -2.95,86.55 6.96,-2.71 37.86,-14.83 37.86,-14.83 l -5.91,20.14 C 4442,5704.2 3830.09,6287.4 3143.55,6314.04 c -41.85,1.05 -89.69,-0.05 -134.75,-2.7 3.02,7.5 15.03,37.91 15.03,37.91 l -20.19,-5.84 z M 1729.55,4826.36 c -2.33,34.47 -3.5,70.24 -3.5,103.91 0,15.76 0.24,31.03 0.8,45.62 25.72,670.08 588.22,1266.19 1258.62,1340.86 -0.24,-0.49 -1.04,-2.39 -1.04,-2.39 l -11.14,-33.63 18.27,6.28 c 49.19,3.51 104.23,4.5 151.06,2.72 668.2,-25.37 1263.81,-587.8 1338.47,-1257.64 -0.24,0.05 -1.71,0.61 -1.71,0.61 l -35.21,10.71 7.08,-17.36 c 2.34,-34.48 3.56,-70.18 3.56,-103.98 0,-15.68 -0.24,-30.95 -0.8,-45.49 l -0.42,-1.46 c -8.93,-236.87 -85.13,-471.52 -219.21,-679.9 -20.19,11.95 -813.89,478.12 -823.06,483.48 -1.78,10.03 -36.26,191.67 -36.26,191.67 0,0 -66.9,61.74 -67.15,61.86 8.67,19.89 114.24,262.41 122.74,281.94 20.8,-9.06 494.1,-215.03 494.1,-215.03 l 191.94,441.31 -5.41,5.72 c -7.33,7.62 -515.48,478.46 -573.4,532.15 l -3.08,2.88 -4.24,0.32 c -30.54,1.85 -747.54,47.21 -758.26,47.46 l -7.99,0.12 -192.06,-441.3 c 0,0 473.18,-206.02 494.12,-215.07 -8.57,-19.64 -116.35,-267.27 -123,-282.48 -6.96,0.87 -110.8,12.49 -110.8,12.49 l -120.22,-148.09 -98.85,-337.02 4.31,-4.87 c 59.21,-68.07 74.23,-85.38 78.73,-90.23 -6.47,-15.83 -220.94,-541.09 -220.94,-541.09 l 4.14,-23.51 3.19,-2.77 c 3.09,-2.78 77.07,-66.53 146.81,-96.7 68.33,-29.86 163.01,-47.9 166.94,-48.56 l 8.74,-1.73 8.44,16.37 c 0,0 248.81,541.87 257.43,560.52 12.8,-4.18 39.52,-13.1 43.71,-14.46 4.05,-4.24 600.71,-633.41 620.9,-654.7 -185.53,-116.72 -367.3,-177.4 -541.07,-181.54 0.61,1.42 1.9,4.5 1.9,4.5 l 11.58,31.83 -18.96,-5.24 c -49.56,-3.5 -104.64,-4.5 -151.06,-2.77 -668.25,25.36 -1263.81,587.8 -1338.47,1257.72 0.32,-0.14 1.73,-0.76 1.73,-0.76 l 35.26,-10.46 -7.26,17.18" />
      </g>
    </g>
  </g>
</svg>
