<?xml version="1.0" encoding="UTF-8" standalone="no"?>
<!-- Created with Inkscape (http://www.inkscape.org/) -->

<svg
   xmlns:dc="http://purl.org/dc/elements/1.1/"
   xmlns:cc="http://creativecommons.org/ns#"
   xmlns:rdf="http://www.w3.org/1999/02/22-rdf-syntax-ns#"
   xmlns:svg="http://www.w3.org/2000/svg"
   xmlns="http://www.w3.org/2000/svg"
   xmlns:sodipodi="http://sodipodi.sourceforge.net/DTD/sodipodi-0.dtd"
   xmlns:inkscape="http://www.inkscape.org/namespaces/inkscape"
   version="1.1"
   id="svg2"
   xml:space="preserve"
   width="201.14461"
   height="252"
   viewBox="0 0 201.1446 252"
   sodipodi:docname="as-la-jeunesse-d-esch.svg"
   inkscape:version="0.92.4 (5da689c313, 2019-01-14)"><metadata
     id="metadata8"><rdf:RDF><cc:Work
         rdf:about=""><dc:format>image/svg+xml</dc:format><dc:type
           rdf:resource="http://purl.org/dc/dcmitype/StillImage" /><dc:title></dc:title></cc:Work></rdf:RDF></metadata><defs
     id="defs6"><clipPath
       clipPathUnits="userSpaceOnUse"
       id="clipPath18"><path
         d="M 0,600 H 800 V 0 H 0 Z"
         id="path16"
         inkscape:connector-curvature="0" /></clipPath></defs><sodipodi:namedview
     pagecolor="#ffffff"
     bordercolor="#666666"
     borderopacity="1"
     objecttolerance="10"
     gridtolerance="10"
     guidetolerance="10"
     inkscape:pageopacity="0"
     inkscape:pageshadow="2"
     inkscape:window-width="1366"
     inkscape:window-height="705"
     id="namedview4"
     showgrid="false"
     fit-margin-top="1"
     fit-margin-right="1"
     fit-margin-bottom="1"
     fit-margin-left="1"
     inkscape:zoom="1.668772"
     inkscape:cx="113.32867"
     inkscape:cy="187.32024"
     inkscape:window-x="-8"
     inkscape:window-y="-8"
     inkscape:window-maximized="1"
     inkscape:current-layer="g10"
     inkscape:lockguides="true" /><g
     id="g10"
     inkscape:groupmode="layer"
     inkscape:label="as-la-jeunesse-d-esch-seeklogo.com"
     transform="matrix(1.3333333,0,0,-1.3333333,-423.51257,465.04217)"><g
       id="g1320"
       transform="matrix(0.68777119,0,0,0.68777119,112.39127,48.886173)"><g
         transform="translate(300.63328,433.8241)"
         id="g24"><path
           inkscape:connector-curvature="0"
           id="path26"
           style="opacity:1;fill:#ffffff;fill-opacity:1;fill-rule:nonzero;stroke:#000000;stroke-width:2.25;stroke-miterlimit:4;stroke-dasharray:none;stroke-opacity:1"
           d="m 0,0 v -157.208 c 0,0 4.797,-91.05 107.457,-113.136 102.659,22.086 107.456,113.136 107.456,113.136 V 0 Z" /></g><g
         transform="translate(312.57808,414.6903)"
         id="g28"><path
           inkscape:connector-curvature="0"
           id="path30"
           style="fill:#000000;fill-opacity:1;fill-rule:nonzero;stroke:none"
           d="m 0,0 v -1.358 c 0,-2.328 1.112,-3.169 2.931,-3.169 2.435,0 3.115,1.461 3.115,3.358 V 13.204 H 8.674 V -1.001 c 0,-4.557 -2.979,-5.774 -5.61,-5.774 -4.532,0 -5.532,3.033 -5.532,4.849 V 0 Z" /></g><g
         transform="translate(335.92428,416.6395)"
         id="g32"><path
           inkscape:connector-curvature="0"
           id="path34"
           style="fill:#000000;fill-opacity:1;fill-rule:nonzero;stroke:none"
           d="M 0,0 V 0 C -0.137,2.199 -1.058,4.23 -3.955,4.23 -6.153,4.23 -7.891,2.199 -7.891,0 Z m 2.276,-3.765 c -0.077,-0.683 -0.731,-2.688 -2.521,-3.881 -0.649,-0.433 -1.569,-0.976 -3.851,-0.976 -3.983,0 -6.342,3.01 -6.342,7.105 0,4.393 2.115,7.89 6.805,7.89 4.091,0 6.102,-3.253 6.102,-8.269 h -10.36 c 0,-2.954 1.383,-4.66 4.121,-4.66 2.251,0 3.582,1.732 3.663,2.791 z" /></g><g
         transform="translate(351.67568,408.4266)"
         id="g36"><path
           inkscape:connector-curvature="0"
           id="path38"
           style="fill:#000000;fill-opacity:1;fill-rule:nonzero;stroke:none"
           d="m 0,0 v 2.06 l -0.052,0.053 c -1.006,-1.655 -2.225,-2.522 -4.502,-2.522 -2.087,0 -4.612,1.005 -4.612,4.394 v 10.194 h 2.387 V 4.771 c 0,-2.332 1.195,-3.114 2.743,-3.114 3.009,0 3.899,2.655 3.899,4.716 v 7.806 H 2.251 V 0 Z" /></g><g
         transform="translate(370.25038,408.4266)"
         id="g40"><path
           inkscape:connector-curvature="0"
           id="path42"
           style="fill:#000000;fill-opacity:1;fill-rule:nonzero;stroke:none"
           d="m 0,0 h -2.383 v 8.731 c 0,2.466 -0.706,3.712 -3.038,3.712 -1.36,0 -3.744,-0.867 -3.744,-4.717 V 0 h -2.384 v 14.179 h 2.251 v -2.006 h 0.055 c 0.51,0.756 1.84,2.413 4.28,2.413 C -2.768,14.586 0,13.69 0,9.65 Z" /></g><g
         transform="translate(384.72988,416.6395)"
         id="g44"><path
           inkscape:connector-curvature="0"
           id="path46"
           style="fill:#000000;fill-opacity:1;fill-rule:nonzero;stroke:none"
           d="M 0,0 V 0 C -0.132,2.199 -1.057,4.23 -3.957,4.23 -6.152,4.23 -7.893,2.199 -7.893,0 Z m 2.281,-3.765 c -0.085,-0.683 -0.736,-2.688 -2.525,-3.881 -0.653,-0.433 -1.57,-0.976 -3.851,-0.976 -3.983,0 -6.345,3.01 -6.345,7.105 0,4.393 2.118,7.89 6.808,7.89 4.091,0 6.097,-3.253 6.097,-8.269 H -7.893 c 0,-2.954 1.386,-4.66 4.124,-4.66 2.247,0 3.577,1.732 3.662,2.791 z" /></g><g
         transform="translate(399.29188,418.5648)"
         id="g48"><path
           inkscape:connector-curvature="0"
           id="path50"
           style="fill:#000000;fill-opacity:1;fill-rule:nonzero;stroke:none"
           d="m 0,0 c -0.029,0.895 -0.351,2.388 -3.363,2.388 -0.732,0 -2.821,-0.244 -2.821,-2.004 0,-1.169 0.733,-1.438 2.577,-1.9 l 2.384,-0.597 c 2.956,-0.732 3.991,-1.816 3.991,-3.741 0,-2.93 -2.416,-4.693 -5.618,-4.693 -5.61,0 -6.02,3.254 -6.098,4.964 h 2.303 c 0.078,-1.113 0.407,-2.898 3.77,-2.898 1.707,0 3.256,0.671 3.256,2.248 0,1.139 -0.791,1.518 -2.824,2.03 l -2.765,0.682 c -1.981,0.487 -3.281,1.488 -3.281,3.442 0,3.115 2.58,4.527 5.37,4.527 5.07,0 5.421,-3.741 5.421,-4.448 z" /></g><g
         transform="translate(414.04098,418.5648)"
         id="g52"><path
           inkscape:connector-curvature="0"
           id="path54"
           style="fill:#000000;fill-opacity:1;fill-rule:nonzero;stroke:none"
           d="m 0,0 c -0.029,0.895 -0.352,2.388 -3.362,2.388 -0.734,0 -2.821,-0.244 -2.821,-2.004 0,-1.169 0.732,-1.438 2.576,-1.9 l 2.383,-0.597 c 2.961,-0.732 3.988,-1.816 3.988,-3.741 0,-2.93 -2.41,-4.693 -5.61,-4.693 -5.613,0 -6.017,3.254 -6.102,4.964 h 2.302 c 0.086,-1.113 0.407,-2.898 3.77,-2.898 1.712,0 3.256,0.671 3.256,2.248 0,1.139 -0.787,1.518 -2.823,2.03 l -2.765,0.682 c -1.977,0.487 -3.277,1.488 -3.277,3.442 0,3.115 2.572,4.527 5.366,4.527 5.07,0 5.425,-3.741 5.425,-4.448 z" /></g><g
         transform="translate(430.49798,416.6395)"
         id="g56"><path
           inkscape:connector-curvature="0"
           id="path58"
           style="fill:#000000;fill-opacity:1;fill-rule:nonzero;stroke:none"
           d="M 0,0 V 0 C -0.133,2.199 -1.053,4.23 -3.955,4.23 -6.154,4.23 -7.887,2.199 -7.887,0 Z m 2.28,-3.765 c -0.081,-0.683 -0.731,-2.688 -2.524,-3.881 -0.647,-0.433 -1.57,-0.976 -3.85,-0.976 -3.985,0 -6.34,3.01 -6.34,7.105 0,4.393 2.111,7.89 6.801,7.89 4.096,0 6.105,-3.253 6.105,-8.269 H -7.887 c 0,-2.954 1.379,-4.66 4.121,-4.66 2.255,0 3.58,1.732 3.662,2.791 z" /></g><g
         transform="translate(460.66988,408.4266)"
         id="g60"><path
           inkscape:connector-curvature="0"
           id="path62"
           style="fill:#000000;fill-opacity:1;fill-rule:nonzero;stroke:none"
           d="m 0,0 h -14.365 v 19.467 h 14.18 v -2.329 h -11.549 v -5.97 H -1.082 V 8.836 H -11.734 V 2.328 H 0 Z" /></g><g
         transform="translate(473.07418,418.5648)"
         id="g64"><path
           inkscape:connector-curvature="0"
           id="path66"
           style="fill:#000000;fill-opacity:1;fill-rule:nonzero;stroke:none"
           d="m 0,0 c -0.033,0.895 -0.355,2.388 -3.363,2.388 -0.733,0 -2.827,-0.244 -2.827,-2.004 0,-1.169 0.731,-1.438 2.583,-1.9 l 2.379,-0.597 c 2.957,-0.732 3.992,-1.816 3.992,-3.741 0,-2.93 -2.413,-4.693 -5.614,-4.693 -5.619,0 -6.021,3.254 -6.105,4.964 h 2.312 c 0.075,-1.113 0.404,-2.898 3.768,-2.898 1.706,0 3.251,0.671 3.251,2.248 0,1.139 -0.79,1.518 -2.823,2.03 l -2.768,0.682 c -1.974,0.487 -3.278,1.488 -3.278,3.442 0,3.115 2.582,4.527 5.373,4.527 5.066,0 5.422,-3.741 5.422,-4.448 z" /></g><g
         transform="translate(490.93938,417.8338)"
         id="g68"><path
           inkscape:connector-curvature="0"
           id="path70"
           style="fill:#000000;fill-opacity:1;fill-rule:nonzero;stroke:none"
           d="m 0,0 c -0.186,2.468 -1.601,5.179 -5.314,5.179 -4.691,0 -6.801,-3.497 -6.801,-7.89 0,-4.095 2.353,-7.105 6.338,-7.105 4.154,0 5.533,3.174 5.777,5.424 h -2.307 c -0.403,-2.17 -1.788,-3.358 -3.384,-3.358 -3.283,0 -3.877,3.008 -3.877,5.447 0,2.52 0.95,5.339 3.898,5.339 2.011,0 3.072,-1.137 3.363,-3.036 z" /></g><g
         transform="translate(506.07028,408.4266)"
         id="g72"><path
           inkscape:connector-curvature="0"
           id="path74"
           style="fill:#000000;fill-opacity:1;fill-rule:nonzero;stroke:none"
           d="m 0,0 h -2.389 v 9.272 c 0,1.925 -0.535,3.171 -2.815,3.171 -1.952,0 -3.959,-1.136 -3.959,-4.717 V 0 h -2.388 v 19.467 h 2.388 v -7.185 h 0.06 c 0.673,0.892 1.865,2.304 4.143,2.304 C -2.766,14.586 0,13.69 0,9.65 Z" /></g><g
         transform="translate(401.15668,375.5257)"
         id="g76"><path
           inkscape:connector-curvature="0"
           id="path78"
           style="fill:#000000;fill-opacity:1;fill-rule:nonzero;stroke:none"
           d="m 0,0 v -14.47 h -1.291 v -0.014 c -39.571,-0.379 -71.531,-31.631 -71.531,-70.127 0,-38.732 32.355,-70.136 72.261,-70.136 2.039,0 4.061,0.086 6.061,0.245 l 0.495,0.027 v -19.592 h 1.614 l 1.601,0.031 c 0.635,0.127 1.416,0.297 2.312,0.498 6.249,1.408 12.274,3.398 18.005,5.89 5.732,2.491 11.178,5.487 16.269,8.904 25.78,17.304 42.36,45.507 42.36,74.495 L 88.158,0 Z" /></g><g
         transform="translate(401.15668,375.5257)"
         id="g80"><path
           inkscape:connector-curvature="0"
           id="path82"
           style="fill:#000000;fill-opacity:1;fill-rule:nonzero;stroke:none"
           d="m 0,0 v -14.47 h -1.291 v -0.014 c -39.571,-0.379 -71.531,-31.631 -71.531,-70.127 0,-38.732 32.355,-70.136 72.261,-70.136 2.039,0 4.061,0.086 6.061,0.245 l 0.495,0.027 v -19.592 h 1.614 l 1.601,0.031 c 0.635,0.127 1.416,0.297 2.312,0.498 6.249,1.408 12.274,3.398 18.005,5.89 5.732,2.491 11.178,5.487 16.269,8.904 25.78,17.304 42.36,45.507 42.36,74.495 L 88.158,0 Z" /></g><g
         transform="translate(409.54588,225.1927)"
         id="g84"><path
           inkscape:connector-curvature="0"
           id="path86"
           style="fill:#ffffff;fill-opacity:1;fill-rule:nonzero;stroke:none"
           d="m 0,0 v 21.229 c 20.819,3.205 29.378,13.964 32.884,21.834 h 20.75 C 48.327,29.152 38.272,17.381 25.308,9.494 21.503,7.18 17.445,5.197 13.185,3.596 8.978,2.014 4.565,0.801 0,0" /></g><g
         transform="translate(464.83688,273.2044)"
         id="g88"><path
           inkscape:connector-curvature="0"
           id="path90"
           style="fill:#ffffff;fill-opacity:1;fill-rule:nonzero;stroke:none"
           d="m 0,0 h -20.673 c 0.604,2.344 0.685,3.852 0.686,3.869 V 41 h 18.066 c 1.07,-2.708 1.963,-5.497 2.655,-8.355 1.151,-4.743 1.767,-9.676 1.785,-14.737 H 2.515 V 17.681 C 2.515,11.559 1.635,5.632 0,0" /></g><g
         transform="translate(444.84958,319.1507)"
         id="g92"><path
           inkscape:connector-curvature="0"
           id="path94"
           style="fill:#ffffff;fill-opacity:1;fill-rule:nonzero;stroke:none"
           d="M 0,0 V 16.7 H -42.615 V 38.332 C -16.777,36.378 5.152,21.363 15.73,0.285 15.778,0.191 15.821,0.095 15.869,0 Z" /></g><g
         transform="translate(406.37198,227.4163)"
         id="g96"><path
           inkscape:connector-curvature="0"
           id="path98"
           style="fill:#ffffff;fill-opacity:1;fill-rule:nonzero;stroke:none"
           d="m 0,0 c -1.905,-0.175 -3.83,-0.262 -5.776,-0.262 -35.218,0 -63.76,28.546 -63.76,63.76 0,34.755 27.811,63.018 62.389,63.744 l 0.641,0.011 v -19.998 l 0.002,-1.18 1.183,10e-4 h 41.43 V 91.734 H -20.548 V 86.788 H 36.109 V 49.751 c -0.018,-0.27 -0.143,-1.772 -0.753,-3.963 H -20.548 V 40.839 H 33.47 C 29.899,33.534 21.537,23.985 1.998,21.216 L 0.816,21.056 V 0.138 Z" /></g><g
         transform="translate(486.08588,291.2767)"
         id="g100"><path
           inkscape:connector-curvature="0"
           id="path102"
           style="fill:#ffffff;fill-opacity:1;fill-rule:nonzero;stroke:none"
           d="m 0,0 c 0,-27.903 -16.01,-55.098 -40.926,-71.821 -4.933,-3.312 -10.21,-6.215 -15.762,-8.628 -5.548,-2.412 -11.38,-4.338 -17.425,-5.701 -0.457,-0.104 -0.985,-0.215 -1.592,-0.34 v 18.812 c 4.474,0.819 8.809,2.022 12.954,3.582 4.361,1.64 8.516,3.67 12.413,6.04 20.052,12.198 33.326,33.465 33.326,57.664 v 0.228 h -0.004 c -0.018,5.203 -0.65,10.272 -1.832,15.139 -1.179,4.867 -2.911,9.539 -5.125,13.951 C -34.535,49.974 -56.129,65.125 -81.7,67.738 V 81.021 H 0 Z" /></g><g
         transform="translate(355.67088,250.1576)"
         id="g104"><path
           inkscape:connector-curvature="0"
           id="path106"
           style="fill:#000000;fill-opacity:1;fill-rule:nonzero;stroke:none"
           d="m 0,0 c -9.395,10.525 -15.192,25.049 -15.192,41.074 0,16.029 5.797,30.553 15.192,41.079 9.391,10.524 22.399,17.057 36.771,17.056 0.447,0 0.88,-0.009 1.31,-0.017 l 0.698,-0.013 V 80.21 H 81.386 V 72.332 H 26.828 V 61.163 h 54.88 V 25.848 H 26.828 V 15.641 h 44.161 v -0.711 0.711 h 0.923 L 71.676,14.749 C 70.042,8.784 63.151,5.652 56.829,3.839 51.726,2.395 46.89,1.85 45.169,1.689 v -17.99 L 44.577,-16.4 c -2.546,-0.428 -5.151,-0.657 -7.806,-0.657 C 22.399,-17.058 9.391,-10.524 0,0" /></g><g
         transform="translate(356.73038,331.3641)"
         id="g108"><path
           inkscape:connector-curvature="0"
           id="path110"
           style="fill:#f7f619;fill-opacity:1;fill-rule:nonzero;stroke:none"
           d="m 0,0 c -9.156,-10.258 -14.832,-24.447 -14.832,-40.132 0,-15.682 5.676,-29.87 14.832,-40.127 9.16,-10.26 21.778,-16.582 35.712,-16.583 2.368,0 4.694,0.186 6.977,0.54 V -78.2 l 0.662,0.045 c 0.004,0.001 1.446,0.099 3.686,0.419 2.237,0.319 5.253,0.859 8.345,1.735 5.839,1.63 11.819,4.521 13.575,9.015 H 24.348 v 13.048 h 54.879 v 32.474 H 24.348 v 14.009 h 54.558 v 5.037 H 36.298 v 18.995 c -0.196,0.003 -0.39,0.005 -0.586,0.005 C 21.778,16.581 9.16,10.259 0,0" /></g><g
         transform="translate(415.55848,219.1322)"
         id="g112"><path
           inkscape:connector-curvature="0"
           id="path114"
           style="fill:#000000;fill-opacity:1;fill-rule:nonzero;stroke:none"
           d="M 0,0 0.376,0.574 0.654,0.637 C 32.941,8 57.049,37.045 57.047,71.766 c 0.002,37.09 -27.524,67.718 -63.141,72.324 l 0.092,0.704 0.711,0.003 -0.711,-0.003 -0.092,-0.704 -0.617,0.081 -0.012,4.189 H 65.201 V 72.799 C 65.201,33.35 37.756,0.363 0.863,-7.787 L 0,-7.978 Z" /></g><g
         transform="translate(416.97848,212.929)"
         id="g116"><path
           inkscape:connector-curvature="0"
           id="path118"
           style="fill:#f7f619;fill-opacity:1;fill-rule:nonzero;stroke:none"
           d="m 0,0 c 35.812,8.326 62.362,40.533 62.361,79.002 v 74.141 h -69.08 l 0.006,-1.523 C 29.311,146.648 57.047,115.563 57.049,77.969 57.047,42.738 32.701,13.235 0,5.559 Z" /></g><g
         transform="translate(310.43108,401.9696)"
         id="g120"><path
           inkscape:connector-curvature="0"
           id="path122"
           style="fill:#000000;fill-opacity:1;fill-rule:nonzero;stroke:none"
           d="m 0,0 v -124.846 c 0,0 2.088,-39.575 34.233,-70.627 v 30.182 c 0,0 -55.996,53.629 3.647,114.052 L 37.88,0 Z" /></g><path
         d="m 467.87688,401.9701 v -17.646 h 27.223 v -103.418 c 0,0 -1.287,-34.54 -31.319,-63.597 v -17.622 c 39.557,31.715 41.969,77.436 41.969,77.436 v 124.847 z"
         style="fill:#000000;fill-opacity:1;fill-rule:nonzero;stroke:none"
         id="path126"
         inkscape:connector-curvature="0" /><g
         transform="translate(398.57028,194.5619)"
         id="g128"><path
           inkscape:connector-curvature="0"
           id="path130"
           style="fill:#000000;fill-opacity:1;fill-rule:nonzero;stroke:none"
           d="m 0,0 v 22.857 c -5.603,0.186 -11.043,0.995 -16.25,2.36 v -37.571 c 7.731,-3.18 16.291,-5.867 25.77,-7.906 6.255,1.346 12.107,2.975 17.589,4.842 V 5.956 C 27.109,5.956 11.237,-2.506 0,0" /></g><g
         transform="translate(427.95108,401.9696)"
         id="g132"><path
           inkscape:connector-curvature="0"
           id="path134"
           style="fill:#000000;fill-opacity:1;fill-rule:nonzero;stroke:none"
           d="m 0,0 v -17.645 h -32.496 v -15.93 h -7.639 V 0 Z" /></g><g
         transform="translate(447.91298,402.162)"
         id="g136"><path
           inkscape:connector-curvature="0"
           id="path138"
           style="fill:#000000;fill-opacity:1;fill-rule:nonzero;stroke:none"
           d="m 0,0 -2.181,-6.752 -7.095,0.014 5.75,-4.162 -2.207,-6.745 5.733,4.182 5.733,-4.182 -2.208,6.745 5.752,4.162 -7.098,-0.014 z" /></g><g
         transform="translate(368.06248,402.162)"
         id="g140"><path
           inkscape:connector-curvature="0"
           id="path142"
           style="fill:#000000;fill-opacity:1;fill-rule:nonzero;stroke:none"
           d="M 0,0 -2.18,-6.752 -9.276,-6.738 -3.527,-10.9 -5.733,-17.645 0,-13.463 5.733,-17.645 3.527,-10.9 9.278,-6.738 2.179,-6.752 Z" /></g></g></g></svg>