<?xml version="1.0" encoding="UTF-8" standalone="no"?>
<svg height="314.08401" viewBox="0 0 313.99988 314.08401" width="313.99988" xmlns="http://www.w3.org/2000/svg">
   <g transform="matrix(.84124797 0 0 .84124797 -12.048841 -10.366345)">
      <circle cx="201" cy="199" fill="#fff" r="180.5"/>
      <path d="m201 323.2c-68.5 0-124.2-55.7-124.2-124.2 0-68.5 55.7-124.2 124.2-124.2 68.5 0 124.2 55.7 124.2 124.2 0 68.5-55.7 124.2-124.2 124.2zm0-243.4c-65.7 0-119.2 53.5-119.2 119.2 0 65.7 53.5 119.2 119.2 119.2 65.7 0 119.2-53.5 119.2-119.2 0-65.7-53.5-119.2-119.2-119.2z" fill="#1d3167"/>
      <path d="m201 383.3c-101.6 0-184.3-82.7-184.3-184.3 0-101.6 82.7-184.3 184.3-184.3 101.6 0 184.2 82.7 184.2 184.3 0 101.6-82.6 184.3-184.2 184.3zm0-361.1c-97.5 0-176.8 79.3-176.8 176.8 0 97.5 79.3 176.8 176.8 176.8 97.5 0 176.8-79.3 176.8-176.8 0-97.5-79.3-176.8-176.8-176.8z" fill="#1d3167"/>
      <path d="m198.3 76.5c-67.7 1-121.7 56.6-120.8 124.2 1 67.7 56.6 121.7 124.2 120.7 67.7-1 121.7-56.6 120.8-124.2-1-67.6-56.6-121.6-124.2-120.7" fill="#1d3167"/>
      <path d="m301.5 106.2l-5.5 10.3c-3.8 7-6.5 17.3-8.2 31.4-1.2 9.5-1.8 19.6-2.2 29.6-.3 10-.4 19.7-.5 28.4 0 4.8-.1 9.7-.2 13.9-.7 32.5-2.7 48.7-19.8 67.7-15 16.8-54.1 33-61.8 36l-2.6 1-2.6-1c-7.7-3.1-46.7-19.2-61.8-36-17.1-19-19.1-35.2-19.8-67.7-.1-4-.1-8.7-.1-13.6v-.2c-.1-17.4-.2-39.1-2.6-58.1-1.8-14.1-4.5-24.4-8.2-31.4l-5.5-10.3z" fill="#fff"/>
      <path d="m298.3 108.1l-4 7.6c-3.9 7.2-6.6 17.7-8.4 32.1-1.2 9.5-1.8 19.7-2.2 29.7-.3 10-.4 19.8-.5 28.5 0 4.8-.1 9.7-.2 13.8-.6 32-2.7 48-19.3 66.5-14.8 16.5-53.5 32.5-61.1 35.5l-1.9.8-1.9-.8c-7.6-3-46.3-19.1-61.1-35.5-16.6-18.5-18.7-34.5-19.3-66.5-.1-4-.1-8.7-.1-13.6v-.2c-.1-17.5-.3-39.2-2.7-58.3-1.8-14.4-4.6-24.9-8.4-32.1l-4.1-7.6h195.2z" fill="#1d3167"/>
      <path d="m280.8 147.1c-2.4 19.4-2.6 41.3-2.7 58.9 0 5-.1 9.7-.1 13.7-.6 31.4-2.5 45.9-18 63.2-11.7 13-41.5 27.1-59.2 34.2-17.6-7.1-47.5-21.2-59.2-34.2-15.6-17.3-17.4-31.8-18-63.2-.1-4-.1-8.7-.1-13.7-.1-17.6-.3-39.5-2.7-58.9-1.9-14.9-4.8-26-9-33.9h89v0 0h89c-4.2 7.8-7.2 19-9 33.9" fill="#fff"/>
      <rect fill="#1d3167" height="22.5" width="22.5" x="257.70001" y="174.3"/>
      <rect fill="#1d3167" height="22.5" width="22.5" x="120.3" y="174.3"/>
      <rect fill="#1d3167" height="22.5" width="22.5" x="166.10001" y="174.3"/>
      <rect fill="#1d3167" height="22.5" width="22.5" x="211.89999" y="174.3"/>
      <rect fill="#1d3167" height="22.5" width="22.5" x="143" y="197"/>
      <rect fill="#1d3167" height="22.5" width="22.5" x="188.8" y="197"/>
      <rect fill="#1d3167" height="22.5" width="22.5" x="234.60001" y="197"/>
      <rect fill="#1d3167" height="22.5" width="22.5" x="120.3" y="219.7"/>
      <rect fill="#1d3167" height="22.5" width="22.5" x="166.10001" y="219.7"/>
      <rect fill="#1d3167" height="22.5" width="22.5" x="211.89999" y="219.7"/>
      <rect fill="#1d3167" height="22.5" width="22.5" x="257.70001" y="219.7"/>
      <path d="m184.8 134.8c-.1-.1-.1-.3-.2-.4z" fill="#0054a0"/>
      <line fill="#1d3167" x1="133.3" x2="133.3" y1="241.7" y2="276.60001"/>
      <rect fill="#1d3167" height="34.900002" width="6" x="130.3" y="241.7"/>
      <line fill="#1d3167" x1="144.60001" x2="144.60001" y1="241.7" y2="289.70001"/>
      <rect fill="#1d3167" height="48" width="6" x="141.60001" y="241.7"/>
      <line fill="#1d3167" x1="155.8" x2="155.8" y1="241.7" y2="297.20001"/>
      <rect fill="#1d3167" height="55.5" width="6" x="152.8" y="241.7"/>
      <line fill="#1d3167" x1="167" x2="167" y1="241.7" y2="304.10001"/>
      <rect fill="#1d3167" height="62.400002" width="6" x="164" y="241.7"/>
      <line fill="#1d3167" x1="178.3" x2="178.3" y1="241.7" y2="309.70001"/>
      <rect fill="#1d3167" height="68" width="6" x="175.3" y="241.7"/>
      <line fill="#1d3167" x1="189.5" x2="189.5" y1="241.7" y2="314.79999"/>
      <rect fill="#1d3167" height="73.099998" width="6" x="186.5" y="241.7"/>
      <line fill="#1d3167" x1="200.7" x2="200.7" y1="241.7" y2="320.89999"/>
      <rect fill="#1d3167" height="79.199997" width="6" x="197.7" y="241.7"/>
      <line fill="#1d3167" x1="212" x2="212" y1="241.7" y2="315.39999"/>
      <rect fill="#1d3167" height="73.699997" width="6" x="209" y="241.7"/>
      <line fill="#1d3167" x1="223.2" x2="223.2" y1="241.7" y2="309.70001"/>
      <rect fill="#1d3167" height="68" width="6" x="220.2" y="241.7"/>
      <line fill="#1d3167" x1="234.39999" x2="234.39999" y1="241.7" y2="304.10001"/>
      <rect fill="#1d3167" height="62.400002" width="6" x="231.39999" y="241.7"/>
      <line fill="#1d3167" x1="245.7" x2="245.7" y1="241.7" y2="298"/>
      <rect fill="#1d3167" height="56.299999" width="6" x="242.7" y="241.7"/>
      <line fill="#1d3167" x1="256.89999" x2="256.89999" y1="241.7" y2="289"/>
      <rect fill="#1d3167" height="47.299999" width="6" x="253.89999" y="241.7"/>
      <polygon fill="#1d3167" points="271.1 276.3 265.1 278.6 265.1 241.7 271.1 241.7"/>
      <path d="m181.1 184.6v-11.2c-.1-2.3-1-8.6-3.8-11.4-4.7-4.7-7.2-12.5-7.2-17.7 0-3.3-1.2-12.5-2.3-19.4-1.8-5.2.1-10.6 4.2-12.2 1.6-.6 3.3-.5 4.9 0 .1-3.6 1.9-6.7 4.9-7.8.8-.3 1.5-.4 2.4-.4 1.6 0 3.2.5 4.6 1.5v-30c0-5.8 3.5-10.3 8-10.3 3.7 0 6.8 3.1 7.7 7.5 1.2-.8 2.5-1.3 4-1.3 4.5 0 8.1 4.5 8.1 10.3 0 0 0 3.3.1 8.1 0 4.4.1 9.9.1 15.4v2.1c.1 10.2.1 16.2.1 18.2 0 .5 0 .9 0 1.3.7-1.6 1.7-3.6 3.5-6.1 4.5-6.6 12.9-8 14.8-8 .1 0 .2 0 .3 0 .3 0 .6 0 1.1 0 4.1 0 6.1 2.3 6.9 4.2 2.2 4.8-3.7 9.5-5 10.4-6.4 6.6-8.5 21.2-8.5 21.4l-.1.7-.5.5c-2.6 2.6-9.7 10.3-10.7 14.2-1.3 4.9-1 11.6-1 11.7v.1 7.3" fill="#1d3167"/>
      <path d="m213.7 180.2c0-2.9-.1-5.9.1-8.8.2-3.1.4-6.9 2.1-10.1 1.5-2.8 3.5-5.4 5.3-7.5 1.6-1.9 3.2-3.7 4.9-5.4.1-.1.1-.1.2-.2.1-.4.1-.9.3-1.5 1.3-6.9 3.1-12.3 5.6-16.7 1.4-2.4 2.9-4.2 4.7-5.8 2.1-1.8 3.2-3.5 3.2-4.7 0-.7-.3-1.3-1-1.8-.7-.6-1.7-.9-3-.9-.7 0-1.4.1-2.3.2-2.2.4-5.5 1.4-8 3.5-3 2.5-4.8 6.2-6.2 9.4-1 2.3-2.1 3.9-3.5 5.4-.1.2-.3.4-.5.5-.1.1-.2.2-.3.3-5.4 4.9-10.6 9.8-14.1 16.4-.2.3-.4.4-.7.4 0 0-.3-.1-.4-.1-.1-.1-.3-.3-.3-.3-.1-.2-.1-.4.5-1.8.3-.7.8-1.8 1.5-3.1 1.2-2.2 3.2-5.5 5.8-8.1.7-.7 1.4-1.4 2.1-2.1 1.1-1.2 2.2-2.3 3.5-3.5-.2-3.2-.2-6.5-.2-9.7 0-1 0-1.9 0-2.9 0-3.6 0-7.2-.1-10.7-1.6.8-3.3 1.3-4.9 1.3v0c-.6 0-.8-.5-.8-.6-.1-.6.4-.8 1-1 1-.4 3.7-1.4 4.8-3v-3.2c0-3.7-.1-7.3-.1-11-1.6.8-3.3 1.3-4.9 1.3h-.1c-.6 0-.8-.5-.8-.6-.1-.6.4-.8 1-1 1-.4 3.7-1.4 4.8-3.1 0-2.5 0-5.1-.1-7.6 0-2.2-1.2-6.7-4.3-6.6-3.4.1-4.4 4.4-4.4 6.6v3.6.6 17.7.6 17.6c0 .8-.6 1.5-1.5 1.5-.9 0-1.5-.6-1.5-1.5v-15.2c-1.6.8-3.2 1.2-4.9 1.3h-.1c-.6 0-.8-.5-.8-.6-.1-.6.4-.8 1-1 1-.4 3.7-1.4 4.8-3.1v-14.7c-1.6.8-3.2 1.2-4.9 1.3h-.2c-.6 0-.8-.5-.8-.6-.1-.6.4-.8 1-1 1-.4 3.7-1.4 4.8-3.1v-9.5c0-2.2-1.2-6.7-4.3-6.6-3.3.1-4.3 4.4-4.3 6.6v36.1l2.6 7.1c1.3 3.6 2.6 7.2 4 10.8 0 0 0 .1 0 .1.8 2.4.9 6-.5 8.5-.8 1.5-2.2 2.5-3.8 2.9-1.7.4-3.4.2-5-.7.3 3.7-1.1 7.6-4.9 8.5-.5.1-1.1.2-1.6.2-4 0-6.8-3.5-8.1-6.5l-.3-.6c-.1-.1-.1-.3-.1-.4-.5-1.3-1-2.7-1.5-4 .2 1.7.3 3.4.4 5.1.2 4.2.8 7.2 2.1 10 1 2.3 2 4 3.2 5.3.2.2.4.5.6.7.8.9 1.7 1.9 2.3 3.1 3.2 6.1 3.1 13 2.9 19.8" fill="#faebdf"/>
      <path d="m194.2 138.6c3.1-1.3 2.6-5.6 1.9-7.7-1.3-3.5-2.6-7-3.9-10.6l-2.7-7.2c0-.1-.1-.2-.1-.3-.9-2.3-3-4.6-5.2-4.6-.4 0-.8.1-1.2.3-3.1 1.3-2.6 5.6-1.9 7.7l.3.9c.3.9.7 1.8 1 2.7l1 2.6c.6 1.7 1.2 3.3 1.8 5 .8-1.4 2-2.6 3.5-3.4.1-.1.3-.1.5-.1 0 0 .3 0 .4.1.1.1.3.3.3.3.2.4 0 .7-.3 1.1-.7.9-2.5 3.1-2.4 6.2 0 .6.1 1.3.3 1.9 0 .1.1.3.1.4l.1.2c0 0 0 .1 0 .1v.1c0 0 0 0 0 .1.9 2.3 3 4.7 5.2 4.7.5-.2.9-.3 1.3-.5" fill="#faebdf"/>
      <path d="m179.6 120.6c-.9-2.2-3-4.6-5.2-4.6-.4 0-.8.1-1.2.3-3 1.3-2.6 5.4-2 7.4 0 .1.1.2.1.3l1.2 3.1c1 2.7 2 5.4 3 8 .8-1.4 2-2.6 3.5-3.4.1-.1.3-.1.5-.1 0 0 .2 0 .3.1.1.1.3.3.3.3.2.4 0 .7-.3 1.1-.7.9-2.5 3.1-2.4 6.2 0 .6.1 1.3.3 1.9 0 .1.1.2.1.4v0c0 0 0 .1 0 .1 0 0 0 .1 0 .1 0 .1.1.1.1.2.9 2.3 3 4.7 5.2 4.7.4 0 .8-.1 1.2-.3 3.1-1.3 2.6-5.6 1.9-7.7-.3-.9-.7-1.8-1-2.7l-.3-.7z" fill="#faebdf"/>
      <path d="m259.2 233.8c0 32.4-26.3 58.7-58.7 58.7-32.4 0-58.7-26.3-58.7-58.7 0-32.4 26.3-58.7 58.7-58.7 32.4-.1 58.7 26.2 58.7 58.7" fill="#1d3167"/>
      <path d="m254.7 233.7c-.1-12.7-4.5-25-12.6-34.7-1.2 2.9-2.1 5.9-2.4 8.8 1.9 4.8 3.3 9.8 4.1 15 0 .1.1.3.1.4 1 6.9 1 14 0 20.9 0 .2 0 .3-.1.5-.8 5.2-2.2 10.2-4.1 15 .4 2.9 1.2 5.9 2.4 8.7 8.1-9.7 12.6-21.9 12.6-34.6m-14.6 8.6c.7-5.7.7-11.4 0-17.1-11.6-2-24.4-3-39.1-3h-.6c-15.4 0-28 1-39.7 3-.7 5.7-.7 11.4 0 17.1 11.6 2 24.4 3 39.2 3h .5c15.4 0 28.1-1 39.7-3m-.7-21.3c-.7-3.8-1.8-7.6-3.3-11.2-7-2.4-14.6-4.1-22.5-5-4.2-.4-8.5-.7-12.9-.7h-.4c-4.6 0-9 .3-13.2.7-8 .8-15.5 2.5-22.5 4.9-1.4 3.6-2.5 7.4-3.3 11.2 11.6-1.9 24.1-2.8 38.4-2.8h.6c14.9 0 27.6 1 39.1 2.9m-3.2 36.8c1.4-3.6 2.5-7.4 3.3-11.2-11.6 1.9-24.2 2.8-38.5 2.8h-.5c-14.7 0-27.5-1-39-2.8.8 3.9 1.8 7.6 3.3 11.2 7 2.4 14.6 4.1 22.5 5 4.2.4 8.5.7 12.8.7h.4c4.5 0 9-.2 13.2-.7 8-1 15.5-2.6 22.5-5m-.1-52.4c.6-3.3 1.7-6.6 3.2-9.7-2.5-2.6-5.2-4.9-8.2-6.8-3.4-2.3-7-4.2-10.9-5.7-.6-.2-1.2-.4-1.7-.6-1.3 6.7-2.1 12.7-2.4 18.4 7 .8 13.7 2.3 20 4.4m3.1 66.3c-1.5-3.1-2.5-6.3-3.1-9.6-6.3 2.1-13 3.6-20 4.4.3 5.7 1.1 11.8 2.4 18.5 2.7-.9 5.3-2.1 7.7-3.4 4.8-2.7 9.2-6 13-9.9m-24.7 14.5c-1.4-7-2.2-13.3-2.6-19.2-3.7.3-7.4.5-11.1.5h-.4c-3.9 0-7.8-.2-11.5-.5-.3 5.9-1.1 12.2-2.5 19.2 4.7 1.3 9.5 1.9 14.3 1.9v0c4.7-.1 9.4-.7 13.8-1.9m-2.5-85.7c.3-5.9 1.1-12.2 2.5-19.2-4.7-1.3-9.5-1.9-14.3-1.9-4.7 0-9.4.6-13.9 1.8 1.4 7 2.2 13.3 2.6 19.2 3.6-.3 7.4-.5 11.2-.5h.4c3.9.1 7.7.3 11.5.6m-29.6 84.4c1.3-6.7 2.1-12.7 2.4-18.4-7-.9-13.8-2.4-20-4.4-.6 3.3-1.7 6.6-3.2 9.7 2.5 2.6 5.2 4.9 8.2 6.8 3.9 2.7 8.2 4.8 12.6 6.3m2.4-84c-.3-5.7-1.1-11.8-2.4-18.5-.8.3-1.6.6-2.3.9-.6.3-1.3.5-2 .9-6.1 2.8-11.6 6.7-16.4 11.6 1.5 3 2.5 6.3 3.1 9.6 6.3-2.1 13-3.6 20-4.5m-23.7 6.9c-.4-2.9-1.2-5.9-2.4-8.7-6.9 8.2-11.2 18.4-12.3 28.7-1.5 14.7 3 29.5 12.2 40.7 1.2-2.9 2.1-5.9 2.4-8.8-1.9-4.8-3.3-9.8-4.1-15 0-.1-.1-.3-.1-.4-1-7-1-14 0-21 0-.1 0-.3.1-.4.9-5.3 2.2-10.3 4.2-15.1" fill="#a87c4f"/>
      <path d="m221.6 231.7c.9 0 1.2.7 1.2 1 0 .6-.2 1.1-2.9 2.1-.6.2-1.9.7-3 .9-.2 1.1-.7 2.5-.9 3.1-1 2.7-1.5 2.9-2.1 2.9-.4 0-1-.2-1-1.2v-4.8h-10.5c-.2 1.1-.6 2.4-.9 3-1 2.7-1.5 2.9-2.1 2.9-.3 0-.5-.1-.7-.3-.3-.3-.3-.8-.3-.9v-4.8h-10.5c-.2 1.1-.6 2.4-.9 3-1 2.7-1.5 2.9-2.1 2.9-.3 0-.5-.1-.7-.3-.3-.3-.3-.8-.3-.9v-4.8h-4.6c-.9 0-1.2-.7-1.2-1 0-.6.2-1.1 2.9-2.1.6-.2 1.9-.7 3-.9.2-1.1.7-2.5.9-3.1 1-2.7 1.5-2.9 2.1-2.9.4 0 1 .2 1 1.2v4.7h10.5c.2-1.1.6-2.4.9-3 1-2.7 1.5-3 2.1-3 .4 0 1 .2 1 1.2v4.7h10.5c.2-1.1.6-2.4.9-3 1-2.7 1.5-3 2.1-3 .4 0 1 .2 1 1.2v4.7h4.6z" fill="#1d3167"/>
      <path d="m60.9 274.4l4 6.3 17.1-10.8 3.2 5.1-17.1 10.7 4 6.3-4.2 2.6-11.1-17.6z" fill="#1d3167"/>
      <path d="m45.3 250.8l23.2-9.7 2.3 5.5-9.6 4 4.8 11.4 9.6-4 2.3 5.5-23.2 9.7-2.3-5.5 9.1-3.8-4.8-11.4-9.1 3.8z" fill="#1d3167"/>
      <path d="m58.9 220.6l4.8-1.1 3.9 17.8-24.6 5.4-3.9-17.5 4.8-1.1 2.6 11.7 4.9-1.1-2.3-10.5 4.8-1.1 2.3 10.5 5.2-1.2z" fill="#1d3167"/>
      <path d="m52.2 201.9v1.1h10.4v6h-25.2v-6h9.9v-1l-9.9-7.6v-7.1l12.3 9.6 12.9-10.2v7.1z" fill="#1d3167"/>
      <path d="m38.3 181.4l.7-5.9 25 3.1-.7 5.9z" fill="#1d3167"/>
      <path d="m63.6 156.7l4.8 1.1-3.8 16.2-24.5-5.8 1.4-5.8 19.7 4.6z" fill="#1d3167"/>
      <path d="m78.8 133.1l-14.3-5.5 11.1 12.5-1.3 2.9-16.6-.2 13.5 7.1-2.5 5.4-22.2-12.1 2.8-6 16.8.3-11.2-12.5 2.8-6.1 23.7 8.9z" fill="#1d3167"/>
      <path d="m90.4 108.7l-6.4 8.5 2.3 3.9-3.9 5.1-13.7-23.6 3.3-4.4 26.4 6.8-3.8 5.1zm-5.1-1.5l-8.9-2.5 4.8 7.9z" fill="#1d3167"/>
      <path d="m102 90.1l-3 2.7 5.9 6.4-4.4 4-17-18.6 8.3-7.5c4-3.6 8.9-3.6 12.2 0 2.1 2.3 2.6 5.3 1.5 8.1l11.4 3-5.2 4.7zm-6.3-1l3-2.7c1.8-1.6 2.1-3.7.8-5.2-1.3-1.5-3.2-1.5-4.8-.1l-3.4 3.1z" fill="#1d3167"/>
      <path d="m105.9 65.3l3.2-1.9 20.6 5.1-7.9-12.8 5.1-3.1 13 21.5-3.1 1.9-20.6-5.1 7.9 12.8-5.1 3.1z" fill="#1d3167"/>
      <path d="m137.4 61.2c-2.6-7.3.8-14 8.5-16.7 7.6-2.7 14.4.3 17.1 7.6 2.6 7.3-.8 14-8.4 16.7-7.7 2.8-14.5-.3-17.2-7.6zm19.8-7c-1.6-4.5-5.5-6.5-9.6-5.1-4.2 1.5-5.9 5.5-4.3 10 1.6 4.5 5.5 6.5 9.7 5 4.1-1.4 5.8-5.4 4.2-9.9z" fill="#1d3167"/>
      <path d="m166.5 51.3c-1.2-7.6 3.5-13.5 11.6-14.7 4.1-.6 7.7.1 10.6 2.4l-3.1 4.4c-1.5-1.6-4-2.4-6.7-1.9-4.5.7-6.9 4.3-6.2 9 .7 4.8 4.3 7.5 8.8 6.8 3.2-.5 5-2.2 6.2-4.8l4.5 3c-2 3.7-5.4 6-10.1 6.7-8.2 1.1-14.5-3.2-15.6-10.9z" fill="#1d3167"/>
      <path d="m202.7 50.1h-1.1l-.2 10.4-6-.1.4-25.2 6 .1-.2 9.9h1l7.8-9.7 7.1.1-9.9 12.1 9.9 13.1-7.1-.1z" fill="#1d3167"/>
      <path d="m236.3 44.2l-1.3 5.6 8.8 2.1-1.1 4.8-8.8-2.1-2.2 9.3-5.8-1.4 5.8-24.5 16.3 3.9-1.1 4.8z" fill="#1d3167"/>
      <path d="m248 54.7c3-7.1 10.1-9.7 17.6-6.5 7.4 3.2 10.4 10.1 7.3 17.2-3 7.1-10.1 9.7-17.5 6.6-7.5-3.3-10.4-10.2-7.4-17.3zm19.3 8.2c1.9-4.4.4-8.5-3.6-10.2-4.1-1.8-8.1 0-10 4.4-1.9 4.4-.4 8.5 3.7 10.3 4 1.7 8 0 9.9-4.5z" fill="#1d3167"/>
      <path d="m275.6 66.9c4.4-6.4 11.8-7.5 18.5-2.9 6.6 4.6 8.2 11.9 3.8 18.3-4.4 6.4-11.8 7.5-18.4 3-6.7-4.7-8.3-12-3.9-18.4zm17.3 11.9c2.7-3.9 2.1-8.3-1.5-10.7-3.7-2.5-7.9-1.6-10.6 2.4-2.7 3.9-2.1 8.3 1.6 10.8 3.5 2.4 7.8 1.4 10.5-2.5z" fill="#1d3167"/>
      <path d="m319.1 92.4l-5.3-5.2-14.1 14.5-4.3-4.2 14.1-14.5-5.3-5.2 3.4-3.5 15 14.5z" fill="#1d3167"/>
      <path d="m324.7 120.6c-3.6 2.7-8.2 1.6-11.4-2.8l-6.9-9.2 20.2-15 6.9 9.2c2.7 3.7 2.4 7.7-.9 10.1-1.7 1.2-3.7 1.4-5.8.6.8 2.8.1 5.4-2.1 7.1zm-3.5-5.1c1.3-1 1.4-2.7.3-4.2l-3.1-4.2-4.4 3.3 3.1 4.1c1.1 1.6 2.8 2 4.1 1zm1.1-11.3l2.4 3.3c1 1.4 2.5 1.7 3.7.9 1.2-.9 1.3-2.3.3-3.7l-2.5-3.4z" fill="#1d3167"/>
      <path d="m331.1 140.1l-4.8-9.5-4.5.4-2.9-5.7 27.2-1.8 2.5 5-17.6 20.6-2.8-5.7zm3.6-4l6.2-6.9-9.2.8z" fill="#1d3167"/>
      <path d="m340.9 165.8l-4.7 1.4-4.9-15.9 24-7.4 1.8 5.7-19.3 5.9z" fill="#1d3167"/>
      <path d="m344.2 185.6l-4.9.8-2.6-16.5 24.8-4 .9 5.9-20 3.2z" fill="#1d3167"/>
      <path d="m352.7 194c7.7.4 12.5 6.1 12.1 14.3-.2 4.1-1.6 7.5-4.5 9.9l-3.7-3.9c1.8-1.2 3.1-3.4 3.2-6.2.2-4.5-2.8-7.7-7.6-7.9-4.8-.2-8.2 2.7-8.4 7.2-.2 3.2 1.2 5.3 3.5 7l-3.8 3.8c-3.3-2.7-4.8-6.5-4.6-11.2.5-8.1 6-13.4 13.8-13z" fill="#1d3167"/>
      <path d="m339.4 238l-4.8-1 3.4-16.3 24.6 5.2-1.2 5.9-19.8-4.2z" fill="#1d3167"/>
      <path d="m343.4 242.3l14.3 5.6-2.2 5.5-14.1-5.5c-3-1.2-5.9 0-7.1 3.1-1.2 3 .1 5.8 3.1 7l14.1 5.5-2.2 5.5-14.3-5.6c-5.7-2.2-7.8-7.9-5.4-14.2 2.7-6.3 8.1-9.1 13.8-6.9z" fill="#1d3167"/>
      <path d="m319.8 284.6c-3.8-2.3-4.5-7-1.6-11.7l6-9.8 21.5 13.1-6 9.8c-2.4 3.9-6.2 5.1-9.7 3-1.8-1.1-2.7-2.9-2.7-5.2-2.4 1.9-5.1 2.2-7.5.8zm3.4-5.2c1.4.9 3 .3 4-1.3l2.7-4.4-4.7-2.9-2.7 4.4c-.9 1.6-.7 3.4.7 4.2zm11-3.1l-2.1 3.5c-.9 1.5-.7 3 .5 3.7 1.2.8 2.6.3 3.5-1.1l2.2-3.6z" fill="#1d3167"/>
      <path d="m120 321.2l-5.1.1-.2-5.1 10.6-.6 3.8 2.5-13.7 21.1-5-3.2z" fill="#a87c4f"/>
      <path d="m121.1 340.5l3.5-3.1c.8 1.5 2.4 2.9 4.2 3.7 2.8 1.3 5.3.8 6.3-1.2.8-1.6.2-3.2-1.5-4.1-1.3-.6-2.7-.6-3.5-.2l-3.3-2.2 7.9-12.3 12.1 5.9-2.1 4.4-7.5-3.6-2.3 3.4c.4.1 1 .2 1.9.6 4.3 2.1 6.2 6.3 4.2 10.3-2.4 5-8 6.4-13.7 3.6-3-1.2-5.2-3.1-6.2-5.2z" fill="#a87c4f"/>
      <path d="m145 340c2.3-7.4 7.7-11.1 13.4-9.3 5.7 1.8 7.9 7.9 5.6 15.3-2.3 7.4-7.7 11.1-13.4 9.3-5.8-1.8-8-7.9-5.6-15.3zm13 4.1c1.4-4.6 1-8.1-1.2-8.8-2.2-.7-4.6 1.9-6 6.5-1.4 4.6-1 8.1 1.2 8.8 2.2.7 4.6-1.9 6-6.5z" fill="#a87c4f"/>
      <path d="m196.3 337.9l-10.6 15.3-1 8.8-5.9-.7 1-8.8-7-17.2 6.4.7 4.2 11.6 6.6-10.4z" fill="#a87c4f"/>
      <path d="m218.3 356.9l.3 4.9-18.2 1-1.4-25.1 17.9-1 .3 4.9-11.9.6.3 5 10.7-.6.3 4.9-10.7.6.3 5.3z" fill="#a87c4f"/>
      <path d="m239.9 353.4l-10.4 2.3-.7 4.4-6.2 1.4 4.9-26.9 5.4-1.2 15.7 22.3-6.2 1.4zm-3-4.3l-5.2-7.7-1.4 9.2z" fill="#a87c4f"/>
      <path d="m258.2 342.6l-3.7 1.5 3.3 8.1-5.5 2.2-9.5-23.3 10.4-4.2c5-2 9.6-.3 11.4 4.2 1.2 2.9.6 5.8-1.4 8.1l9.6 6.8-6.5 2.6zm-5.6-3.1l3.7-1.5c2.2-.9 3.2-2.7 2.5-4.6-.7-1.9-2.5-2.5-4.5-1.7l-4.3 1.7z" fill="#a87c4f"/>
      <path d="m275.1 341.3l-.2-4.6c2.8.3 5.1-.4 7-1.5 2.3-1.4 3.2-2.8 2.4-4.1-.8-1.4-2.8-1-5.5-.2l-1.3.4c-4.4 1.3-8.1 1.4-10.3-2.2-2.5-4.1-.8-8.9 4.2-11.9 2.6-1.6 5.7-2.4 9-2.1l-.1 4.9c-2.4-.2-4.4.2-6.3 1.4-1.9 1.1-2.7 2.6-2 3.7.8 1.3 2.7.9 5 .2l1.3-.3c4-1.2 8.6-1.3 11 2.5 2.4 4 .6 8.7-4.5 11.8-3.1 1.9-6.5 2.6-9.7 2z" fill="#a87c4f"/>
      <path d="m100 307.3c0 3.3-2.7 5.9-5.9 5.9-3.3 0-5.9-2.7-5.9-5.9 0-3.2 2.7-5.9 5.9-5.9 3.3 0 5.9 2.7 5.9 5.9" fill="#1d3167"/>
      <path d="m307.3 307.3c0 3.3-2.7 5.9-5.9 5.9-3.3 0-5.9-2.7-5.9-5.9 0-3.2 2.7-5.9 5.9-5.9 3.2 0 5.9 2.7 5.9 5.9" fill="#1d3167"/>
      <path d="m89 190.1l-5.5 4-1.2-1.7 7.2-5.3h1.8v22.2h-2.3z" fill="#fff"/>
      <path d="m110.3 203.3c0 3.7-2.9 6.2-7.2 6.2-4.3 0-7.2-2.5-7.2-6.2 0-2.7 1.5-4.7 4-5.6-2.1-.9-3.4-2.7-3.4-5.1 0-3.5 2.6-5.8 6.6-5.8 4 0 6.6 2.3 6.6 5.8 0 2.4-1.3 4.3-3.4 5.1 2.5.9 4 3 4 5.6zm-2.3-.1c0-2.7-1.9-4.5-4.8-4.5-2.9 0-4.8 1.8-4.8 4.5 0 2.7 1.9 4.5 4.8 4.5 2.9 0 4.8-1.8 4.8-4.5zm-9.1-10.4c0 2.4 1.7 4 4.2 4 2.5 0 4.2-1.6 4.2-4 0-2.5-1.7-4.1-4.2-4.1-2.5 0-4.2 1.6-4.2 4.1z" fill="#fff"/>
      <path d="m304.5 202.6c0 4.2-2.9 6.9-7.2 6.9-4.3 0-7.2-2.8-7.2-6.9 0-2 .6-3.7 1.7-5.2l7-10.4h2.6l-6.4 9.2c.8-.3 1.7-.4 2.7-.4 3.9.1 6.8 2.8 6.8 6.8zm-2.4.1c0-3-1.9-5-4.8-5-2.9 0-4.8 2-4.8 5 0 3 1.9 5 4.8 5 2.9 0 4.8-2 4.8-5z" fill="#fff"/>
      <path d="m319.9 193.6c0 2-.6 3.7-1.7 5.2l-7 10.4h-2.6l6.4-9.2c-.8.3-1.7.4-2.7.4-3.9 0-6.8-2.7-6.8-6.8 0-4.2 2.9-6.9 7.2-6.9 4.3.1 7.2 2.8 7.2 6.9zm-7.2 5.1c2.9 0 4.8-2 4.8-5 0-3-1.9-5-4.8-5-2.9 0-4.8 2-4.8 5 0 3 1.9 5 4.8 5z" fill="#fff"/>
   </g>
</svg>
