<?xml version="1.0" encoding="utf-8"?>
<!-- Generator: Adobe Illustrator 16.0.0, SVG Export Plug-In . SVG Version: 6.00 Build 0)  -->
<!DOCTYPE svg PUBLIC "-//W3C//DTD SVG 1.1//EN" "http://www.w3.org/Graphics/SVG/1.1/DTD/svg11.dtd">
<svg version="1.1" id="Layer_1" xmlns="http://www.w3.org/2000/svg" xmlns:xlink="http://www.w3.org/1999/xlink" x="0px" y="0px"
	 width="293.641107704" height="340.551773496" viewBox="0 0 322.913 374.5" enable-background="new 0 0 322.913 374.5" xml:space="preserve">
<g id="XMLID_4_">
	<g id="XMLID_5_">
		<g>
			<g>
				<g>
					<path fill="#E6E7E8" d="M62.113,114.28c0.02-0.17,0.06-0.41,0.1-0.69C62.173,113.91,62.133,114.14,62.113,114.28z"/>
				</g>
				<g>
					<path fill="#E6E7E8" d="M313.273,325.81c-0.011,0.021-0.011,0.03-0.011,0.04c-1.279,14.67-20.83,17.71-32.76,17.91
						c-3.54,0.061-6.08-2.38-7.229-5.51c-0.19-0.52-0.38-1.04-0.57-1.56c-21.01,8.409-41.62,17.489-63.76,22.779
						c-14.761,3.521-29.95,5.75-45.13,5.94c-15.29,0.2-30.721-1.79-45.61-5.17c-13.04-2.96-25.79-7.021-38.28-11.78
						c-9.7-3.69-19.189-7.83-28.79-11.75c-0.189,0.521-0.38,1.03-0.569,1.54c-1.16,3.13-3.681,5.57-7.23,5.51
						c-4.29-0.069-8.64-0.55-12.84-1.39c-10.11-2.021-22.85-8.79-19.48-21.26c1.811-6.7,3.62-13.4,5.44-20.101
						c0.75-2.79,1.51-5.59,2.26-8.39c0.28-1.01,0.5-1.96,1.05-2.91c0.681-0.88,1.07-1.38,1.16-1.5c-0.05,0.08-0.229,0.33-0.55,0.76
						c0.24-0.31,0.48-0.62,0.72-0.93c0.11-0.12,0.221-0.25,0.34-0.36c0.881-0.84,1.851-1.62,2.87-2.26
						c6.12-3.84,13.65-3.17,20.431-1.88c-1.09-8.67,1.069-18.1,7.54-24.33c1.989-1.91,4.239-3.52,6.659-4.81
						c-1.47-2.25-3.09-4.4-4.72-6.54c-2.72-3.6-5.04-7.37-7.58-11.08c-2.21-3.23-5.359-6.36-7.43-10.2
						c-2.07-3.85-3.65-8.12-4.6-12.4c-1.94-8.74-2.881-18.6-1.45-27.47c0.2-1.23,0.43-2.45,0.649-3.67
						c0.091-0.47,0.17-0.93,0.261-1.41v-0.05c0.01-0.12,0.029-0.39,0.08-0.82c0.039-0.57,0.05-1.13,0.039-1.7
						c-0.01-0.09-0.01-0.18-0.02-0.26c-0.13-0.4-0.41-1.16-0.27-0.97c-0.271-0.55-0.561-1.08-0.91-1.59c-0.061,0-0.65-0.67-1.04-1.1
						c0,0.16-1.62-0.84-0.721-0.63c-0.489-0.15-0.979-0.26-1.489-0.34c-3.061-0.46-5.771-4.23-5.511-7.23
						c0.051-0.54,0.091-1.09,0.141-1.63c0.2-2.41,1.319-4.7,3.13-6.1c0.13-6.93,1.89-14.13,6.03-19.5
						c5.06-6.55,12.59-10.2,20.8-11.02c2.28-0.23,4.53-0.13,6.71,0.27c0.04-1.77,0.12-3.52,0.22-5.22c0.15-2.47,0.34-4.93,0.62-7.39
						c0.1-0.98,0.23-1.95,0.37-2.93c-0.01,0.06-0.021,0.12-0.03,0.17c0.021-0.21,0.05-0.43,0.08-0.65c0.42-3.37,1.99-6.26,5.51-7.23
						c2.54-0.7,5.44,0.01,7.29,1.93c0.98,1.01,1.96,2.02,2.94,3.03c0.85-5.63,7.97-9.09,12.66-4.39c3.01,3.01,6.51,6.45,7.37,10.79
						c0.369,1.85,0.449,3.71,0.449,5.57c7.17,4.66,14.42,10.81,17.971,18.36c0.87,1.86,1.91,3.81,1.91,5.92
						c0,1.31-0.32,2.44-0.91,3.57c1.649-0.08,3.31,0.08,4.89,0.47c1.97,0.49,3.66,1.3,5.07,2.38c3.83-2.39,7.87-4.4,12.13-5.97
						c0.03-0.78,0.09-1.55,0.22-2.31c-0.89-2.24-1.649-4.49-2.17-6.84c-1.77-2.91-2.59-7.05-3.44-10.19
						c-1.659-6.15-2.92-12.41-3.579-18.75c-0.301-2.86-0.511-5.76-0.301-8.62c0.181-2.43,0.17-5.52,1.73-7.54
						c3.5-4.55,8.25-6.92,13.35-6.61c0.65-0.53,1.34-1,2.08-1.39c0.01-8.14-0.01-16.32-0.5-24.43c-0.05-0.88-0.5-3.75,0.061-0.35
						c-0.2-1.22-0.311-2.36-0.181-3.52c-18.699,2.19-36.84,7.94-54.859,15.14c-12.9,5.16-25.601,11.25-38.971,15.13
						c-5.949,1.73-12.8,3.55-19.06,3.01c-5.16-0.45-11.37-2.38-14.19-7.19c-1.029-1.77-1.39-4.17-1.909-6.11
						c-0.971-3.6-1.95-7.21-2.921-10.81c-0.989-3.65-1.979-7.3-2.96-10.95c-0.56-2.05-1.479-4.38-1.479-6.54v-0.15
						c0-16.06,20.479-19.28,32.84-19.49c3.54-0.06,6.07,2.38,7.23,5.51c0.189,0.52,0.38,1.04,0.58,1.56
						c21-8.42,41.609-17.49,63.75-22.77c14.76-3.52,29.97-5.75,45.159-5.94c15.28-0.2,30.7,1.79,45.58,5.17
						c13.04,2.96,25.78,7.03,38.271,11.78c9.689,3.69,19.189,7.83,28.8,11.74c0.19-0.52,0.38-1.03,0.57-1.54
						c1.149-3.13,3.689-5.57,7.229-5.51c5.771,0.1,11.811,0.75,17.32,2.5c6.25,1.98,12.729,5.5,14.82,12.2
						c1.069,3.45,0.579,6.4-0.301,9.67c-1.939,7.17-3.88,14.34-5.81,21.51c-0.57,2.09-1.14,4.19-1.7,6.28
						c-1.24,4.58-7.09,8.01-11.439,8.63c-13.75,1.99-27.95-3.96-40.431-9.02c-21.52-8.73-43.72-18.37-66.37-22.56
						c0.301,1.13,0.45,2.31,0.46,3.52c0.061,4.59,0.11,9.19,0.16,13.78c0.05,4.14,0.09,8.29,0.141,12.43
						c3.54-1.93,7.5-3.03,11.529-2.7c4.15,0.34,8.391,1.41,11.19,4.76c2.92,3.49,3.76,7.78,2.899,12.19
						c-0.47,2.39-1.859,4.02-3.739,5.47c0.59-0.44,0.87-0.64,0.949-0.69c-0.17,0.16-1.31,1.06-1.77,1.52
						c-0.65,0.62-1.27,1.27-1.85,1.95c-0.15,0.17-0.301,0.34-0.45,0.52c-0.01,0.02-0.03,0.04-0.05,0.06
						c-0.021,0.03-0.051,0.06-0.08,0.09c0,0.01,0,0.01,0,0.01c-0.03,0.03-0.051,0.06-0.08,0.09c-0.101,0.15-0.2,0.28-0.25,0.36
						c-1.271,1.82-2.4,3.71-3.28,5.74c0,0.08-0.59,1.65-0.65,1.85c-0.22,0.7-0.43,1.39-0.6,2.1c-0.18,0.73-0.36,1.47-0.49,2.22
						c-0.069,0.41-0.109,0.64-0.14,0.75v0.01c-0.01,0.12-0.021,0.26-0.03,0.42c-0.2,2.91-0.55,5.26-2.68,7.52
						c-0.95,1.01-1.88,2.04-2.8,3.08c-0.681,0.78-1.351,1.56-2.011,2.36c-0.329,0.4-0.649,0.79-0.979,1.19
						c-0.03,0.04-0.061,0.08-0.09,0.12c-0.021,0.02-0.04,0.05-0.061,0.08c-0.05,0.06-0.1,0.14-0.17,0.23
						c-1.189,1.6-2.399,3.26-3.3,5.07c-0.01,0.04-0.02,0.08-0.04,0.11v4.85c2.69,1.23,5.271,2.61,7.771,4.17
						c1.449-1.17,3.189-2,5.239-2.34c1.681-0.28,3.36-0.42,5.011-0.35c-1.051-1.92-1.4-4.12-0.4-6.67
						c3.49-8.95,11.1-15.92,19.14-21.21c-0.06-2.2,0.011-4.45,0.74-6.28c1.64-4.08,4.12-7.13,7.18-10.17
						c4.7-4.67,11.82-1.25,12.66,4.38c0.98-1.01,1.96-2.02,2.94-3.02c2.34-2.41,6.21-2.86,9.09-1.18c2.5,1.47,3.36,3.76,3.71,6.48
						c0.67,5.17,1.29,10.59,1.36,15.99c2.27-0.41,4.609-0.48,6.979-0.2c8.101,0.98,15.42,4.48,20.43,10.98
						c4.15,5.38,5.891,12.57,6.03,19.51c1.82,1.4,2.95,3.68,3.13,6.09c0.04,0.54,0.08,1.09,0.12,1.63c0.22,3.01-2.43,6.76-5.51,7.23
						c-0.4,0.07-0.8,0.13-1.19,0.23l-0.01,0.01c-0.05,0.05-0.229,0.16-0.56,0.33c-0.101,0.07-0.181,0.12-0.261,0.17
						c-0.069,0.09-0.189,0.21-0.35,0.38c-0.21,0.21-0.42,0.43-0.62,0.65v0.01c0,0.06-0.729,1.09-0.77,1.17
						c-0.141,0.25-0.28,0.5-0.391,0.76c0.2-0.24-0.13,1.15-0.239,1.15c-0.04,3.48,0.93,6.57,1.38,10.61
						c0.46,4.08,0.2,8.18-0.141,12.25c-0.569,6.86-1.54,13.58-4.149,19.98c-1.681,4.11-3.84,7.49-6.59,10.96
						c-2.021,2.55-3.381,4.78-5.28,7.68c-2.54,3.87-5.48,7.47-8.17,11.23c9.1,4.11,17.55,11.34,17.04,22.23
						c-0.141,3.09-0.851,6.11-2,8.97c7.859-1.22,15.85-0.61,21.22,5.26c1.96,2.14,2.41,5.09,3.15,7.8
						c0.979,3.66,1.97,7.32,2.96,10.98c1.34,4.939,3.14,9.979,4.04,15.069c0.199,0.66,0.3,1.351,0.31,2.07
						C313.403,324.7,313.383,325.27,313.273,325.81z"/>
				</g>
			</g>
		</g>
	</g>
</g>
<g id="XMLID_6_" display="none">
	<g id="XMLID_7_" display="inline">
		<path fill="#F1F2F2" d="M303.773,329.66c-5.811,6.24-22.011,6.58-22.7,6.59l-0.57,0.01l-3.439-9.319
			c-3.86,1.5-8.101,3.279-12.69,5.199c-25.82,10.811-61.09,25.591-102.45,25.79c-41.38-0.199-76.67-14.979-102.47-25.79
			c-4.59-1.92-8.82-3.699-12.69-5.199l-3.239,8.779l-0.2,0.54l-0.59-0.01c-0.69-0.01-16.88-0.35-22.681-6.59
			c-1.479-1.601-2.18-3.47-2.06-5.54v-0.08l8.21-30.36l0.04-0.18l0.11-0.11c0.109-0.15,2.77-3.38,8.42-3.38
			c7.85,0,16.75,2.57,26.649,6.3h0.01c5.16,1.93,10.591,4.19,16.301,6.56c22.899,9.51,51.35,21.3,84.189,21.51
			c32.82-0.21,61.271-12,84.17-21.51c4.16-1.73,8.181-3.39,12.051-4.92c0.43-0.17,0.85-0.33,1.27-0.49
			c11.1-4.34,21.01-7.45,29.64-7.45c5.65,0,8.301,3.23,8.42,3.38l0.091,0.11l8.239,30.46l0.011,0.08l0.02,0.08
			C305.943,326.19,305.263,328.06,303.773,329.66z"/>
		<path fill="#F1F2F2" d="M291.963,166.94l-0.12-1.63c-0.02,0-1.529,0.06-3.41-0.12c0.45-3.88,1.58-20.28-10.369-26.26
			c-6.261-3.13-12.25-3.73-17.341-1.75c-2.56,1-4.869,2.67-6.869,4.9c0.1-0.3,0.189-0.62,0.26-0.94
			c2.26-9.25,0.109-25.81,0.02-26.51l-0.22-1.69l-10.64,10.94c-2.63-2.79-6.12-7.36-5.61-9.51l0.65-2.79l-2.04,2.02
			c-0.141,0.14-3.561,3.62-3.561,6.72v6.49c-2.56,1.5-16.09,9.78-19.76,19.71l-0.15,0.4l0.23,0.35c0.04,0.07,3.39,4.93,10.91,5.93
			c1.689,0.23,3.58,0.26,5.689,0c-2.59,6.54-6.77,16.04-8.609,17.52c-1.82,1.45-3.08,0.77-3.511,0.45
			c-0.51-1.93-3.83-13.19-11.89-13.19c-2.75,0-4.79,0.8-6.04,2.37c-0.91,1.14-1.22,2.45-1.31,3.56
			c-5.141-4.2-11.021-7.54-17.44-9.78v-10.72c0.71-5.33,11.69-16.7,11.79-16.82l0.22-0.22l0.011-0.31
			c0.029-0.52,0.069-1.03,0.109-1.54c1.48-15.63,12.181-23.26,12.3-23.34l0.23-0.16l0.09-0.27c0.03-0.13,0.94-3.2-0.82-5.59
			c-1.26-1.7-3.529-2.58-6.729-2.58c-9.53,0-15.3,8.7-17.97,14.09l-0.511-45.53c0-1.72-1.189-4.99-5.739-4.99
			c-2.53,0-4.28,1.08-5.41,2.32c-0.58-3.26-2.37-7.26-6.59-7.26c-5.131,0-7.2,4.39-7.58,6.71l-0.011,0.14l0.011,0.13
			c0.62,3.47,0.72,27.79,0.72,33.33c-0.86-0.35-1.79-0.41-2.82-0.19c-2.04,0.43-3.26,1.44-3.85,3.57
			c-6.061-3.42-9.92,2.18-9.96,2.24l-0.09,0.13l-0.03,0.17c-2.38,12.23,4.87,35.28,6.12,37.38c0.07,0.13,0.18,0.25,0.27,0.37
			c0.25,2.94,2.641,8.4,3.221,9.68l-0.45,0.44l-0.24,0.23v7.28c-8.07,2.1-15.44,5.93-21.71,11.05c-0.09-1.1-0.39-2.4-1.28-3.52
			c-1.26-1.57-3.279-2.37-6.06-2.37c-8.07,0-11.391,11.26-11.87,13.19c-0.44,0.32-1.71,1-3.521-0.45
			c-1.84-1.48-6.039-10.98-8.63-17.52c2.12,0.26,4.021,0.23,5.71-0.01c7.521-1,10.86-5.85,10.92-5.92l0.211-0.35l-0.141-0.4
			c-3.67-9.93-17.2-18.21-19.76-19.71v-6.49c0-3.1-3.43-6.58-3.58-6.72l-2.02-2.02l0.649,2.79c0.49,2.15-2.979,6.72-5.63,9.51
			l-9.44-9.72l-1.189-1.22l-0.21,1.69c-0.11,0.7-2.22,17.26,0,26.51c0.09,0.32,0.18,0.64,0.27,0.94c-2.01-2.23-4.319-3.9-6.88-4.9
			c-5.08-1.98-11.08-1.38-17.319,1.75c-11.971,5.98-10.83,22.38-10.381,26.26c-1.89,0.18-3.38,0.12-3.409,0.12l-0.131,1.63
			c4.91,0.51,9.551,6.62,9.921,11.26c0.189,2.58-0.261,5.08-0.771,7.71c-0.35,1.84-0.7,3.72-0.8,5.64c-0.2,3.74,0.1,7.58,0.41,11.27
			l0.04,0.76c0.54,6.62,2.01,12.59,4.39,17.72c1.31,2.82,3.19,5.2,5.05,7.49c1.431,1.81,2.91,3.67,4.07,5.69
			c1.84,3.25,4.29,6.47,6.649,9.59c2.98,3.94,6.04,7.99,7.98,12.15h-0.03l0.391,1.28c0.029,0.06,0.18,0.47,0.529,1.02
			c-5.92,1.18-17.67,5.5-17.67,21.11c0,5.89,2.42,10.32,7.19,13.11c0.97,0.58,2.03,1.06,3.149,1.48c2.53,0.93,5.381,1.45,8.33,1.65
			c8.13,0.55,17.051-1.35,22.28-4.01c1.83,2.32,9.71,9.5,33.43,1.75c2.82,1.63,22.98,12.21,48.29,0.08
			c2.301,1.8,13.66,9.13,36.431,0.02h0.01c1.53,1.53,7.59,5.29,29.71,5.29c6.64,0,12.17-1.09,16.74-2.85
			c0.43-0.16,0.85-0.33,1.26-0.51c12.75-5.46,17.46-16.24,17.46-22.02c0-11.52-13.98-16.19-20.92-17.8
			c1.95-4.03,4.89-7.94,7.76-11.75c2.38-3.12,4.811-6.34,6.67-9.59c1.141-2.02,2.641-3.88,4.08-5.69c1.83-2.29,3.75-4.67,5.04-7.49
			c2.36-5.13,3.851-11.1,4.37-17.72l0.06-0.76c0.311-3.69,0.61-7.53,0.4-11.27c-0.11-1.92-0.46-3.8-0.81-5.64
			c-0.49-2.63-0.96-5.13-0.74-7.71C282.433,173.56,287.073,167.45,291.963,166.94z M105.543,243.75c0.2-4.13,2.12-7.26,4.25-10.16
			c2.47,5.13,5.7,9.86,9.5,14.03C115.823,245.81,109.323,244.44,105.543,243.75z M121.673,257.92v-0.1c0-1.51-0.6-2.96-1.68-4.19
			c0.82-0.51,1.59-1.41,1.68-2.85c0.021-0.23,0.021-0.48,0-0.74c2.5,2.42,5.221,4.62,8.12,6.54c0.93,0.63,1.88,1.23,2.851,1.8
			C129.283,258,125.503,257.76,121.673,257.92z M202.083,258.67c-3.79-0.52-8.65-0.35-14.07,1.82c-0.17-0.03-0.38-0.09-0.649-0.13
			c5.43-2.69,10.37-6.21,14.66-10.39c-0.17,1.91,0.739,3.06,1.699,3.66c-1.09,1.23-1.699,2.68-1.699,4.19
			C202.023,258.12,202.053,258.39,202.083,258.67z M204.273,247.68c3.87-4.19,7.109-8.96,9.59-14.15c2.149,2.93,4.1,6.06,4.29,10.22
			C214.323,244.45,207.713,245.84,204.273,247.68z"/>
		<path fill="#F1F2F2" d="M305.833,48.5l-0.02,0.07l-0.011,0.09l-8.239,30.46l-0.091,0.12c-0.119,0.14-2.77,3.38-8.42,3.38
			c-11.949,0-26.319-5.96-42.96-12.87c-22.899-9.5-51.35-21.31-84.17-21.51c-32.84,0.2-61.29,12.01-84.189,21.51
			c-16.65,6.91-31.011,12.87-42.96,12.87c-5.65,0-8.311-3.24-8.42-3.38l-0.11-0.12l-0.04-0.18l-8.21-30.37V48.5
			c-0.12-2.08,0.58-3.93,2.06-5.55c5.801-6.23,21.99-6.57,22.681-6.58l0.59-0.01l0.2,0.54l3.239,8.78
			c3.87-1.5,8.101-3.27,12.69-5.18c25.8-10.82,61.09-25.6,102.47-25.8c41.36,0.2,76.63,14.98,102.45,25.8
			c4.59,1.91,8.83,3.68,12.69,5.18l3.439-9.32l0.57,0.01c0.689,0.01,16.89,0.35,22.7,6.58C305.263,44.57,305.943,46.42,305.833,48.5
			z"/>
	</g>
</g>
<g display="none">
	<g id="XMLID_1_" display="inline">
		<path fill="#14143F" d="M294.303,322.2c-3.77,0-9.13,1.63-15.72,4.13l1.96,5.33c6.36-7.42,14.28-6.69,17.51-5.98l-0.93-3.31
			C296.253,322.27,295.343,322.2,294.303,322.2z M284.503,330.12c7.75,1.03,11.2-0.17,12.73-1.42c0.569-0.48,0.859-0.95,1.02-1.311
			C296.243,326.84,290.163,325.72,284.503,330.12z M298.363,329.88c-2.68,2.29-7.891,2.83-15.47,1.64
			c-0.58,0.57-1.131,1.19-1.69,1.9l0.44,1.17c2.899-0.12,16.159-0.93,20.92-6.05c1.09-1.18,1.609-2.46,1.609-3.93
			c-0.67-0.431-2.439-1.38-5.27-1.96l1.13,4.08v0.109C300.033,327,299.983,328.49,298.363,329.88z M42.733,336.25
			c-0.69-0.01-16.881-0.35-22.68-6.59c-1.48-1.601-2.181-3.47-2.061-5.54v-0.08l8.21-30.36l0.04-0.18l0.109-0.11
			c0.11-0.15,2.771-3.38,8.42-3.38c7.851,0,16.75,2.57,26.65,6.3c5.16,1.93,10.6,4.19,16.311,6.56
			c22.9,9.51,51.35,21.3,84.189,21.51c32.82-0.21,61.271-12,84.17-21.51c4.16-1.73,8.18-3.39,12.051-4.92
			c11.619-4.59,21.949-7.94,30.909-7.94c5.65,0,8.301,3.23,8.42,3.38l0.091,0.11l8.239,30.46l0.011,0.08l0.02,0.08
			c0.11,2.07-0.57,3.939-2.06,5.54c-5.811,6.24-22.011,6.58-22.7,6.59l-0.57,0.01l-3.439-9.319c-3.86,1.5-8.101,3.279-12.69,5.199
			c-25.819,10.811-61.09,25.591-102.45,25.79c-41.38-0.199-76.67-14.979-102.47-25.79c-4.59-1.92-8.819-3.699-12.69-5.199
			l-3.24,8.779l-0.199,0.54L42.733,336.25z M26.613,328.7c1.521,1.25,4.96,2.45,12.71,1.42c-5.68-4.4-11.74-3.28-13.75-2.73
			C25.724,327.75,26.003,328.22,26.613,328.7z M29.503,320.56c6.551,0,17.16,4.44,30.57,10.061c25.68,10.75,60.8,25.46,101.85,25.66
			c41.04-0.2,76.15-14.91,101.811-25.66c13.43-5.62,24.029-10.061,30.569-10.061c4.48,0,7.601,1.07,9.41,1.931l-7.63-28.21
			c-0.439-0.48-2.66-2.64-7.03-2.64c-11.609,0-25.85,5.91-42.34,12.75c-23.02,9.551-51.649,21.42-84.79,21.62
			c-33.16-0.2-61.779-12.069-84.83-21.62c-16.47-6.84-30.689-12.75-42.32-12.75c-4.369,0-6.59,2.16-7.029,2.64l-7.62,28.21
			C21.923,321.63,25.054,320.56,29.503,320.56z M42.183,334.59l0.44-1.17c-0.54-0.71-1.12-1.33-1.69-1.9
			c-7.58,1.19-12.77,0.65-15.459-1.64c-1.631-1.39-1.69-2.88-1.69-3.04v-0.109l0.03-0.11l1.119-3.97
			c-2.859,0.58-4.619,1.529-5.289,1.96c0.029,1.47,0.51,2.75,1.609,3.93C26.003,333.66,39.272,334.47,42.183,334.59z M43.263,331.66
			l1.98-5.33c-6.6-2.5-11.95-4.13-15.74-4.13c-1.01,0-1.93,0.069-2.8,0.17l-0.931,3.31C28.983,324.97,36.923,324.24,43.263,331.66z"
			/>
		<path fill="#14143F" d="M204.763,95.16c-1.26-1.7-3.529-2.58-6.729-2.58c-9.53,0-15.3,8.7-17.97,14.09l-0.511-45.53
			c0-1.72-1.189-4.99-5.739-4.99c-2.53,0-4.28,1.08-5.41,2.32c-0.58-3.26-2.37-7.26-6.59-7.26c-5.131,0-7.2,4.39-7.58,6.71
			l-0.011,0.14l0.011,0.13c0.62,3.47,0.72,27.79,0.72,33.33c-0.86-0.35-1.79-0.41-2.82-0.19c-2.04,0.43-3.26,1.44-3.85,3.57
			c-6.061-3.42-9.92,2.18-9.96,2.24l-0.09,0.13l-0.03,0.17c-2.38,12.23,4.87,35.28,6.12,37.38c0.07,0.13,0.18,0.25,0.27,0.37
			c0.25,2.94,2.641,8.4,3.221,9.68l-0.45,0.44l-0.24,0.23v7.28c-8.07,2.1-15.44,5.93-21.71,11.05c-0.09-1.1-0.39-2.4-1.28-3.52
			c-1.26-1.57-3.279-2.37-6.06-2.37c-8.07,0-11.391,11.26-11.87,13.19c-0.44,0.32-1.71,1-3.521-0.45
			c-1.84-1.48-6.039-10.98-8.63-17.52c2.12,0.26,4.021,0.23,5.71-0.01l-0.22-1.54c-1.31,0.17-2.77,0.21-4.39,0.06l0.029-0.1
			c-0.989-0.33-3.779-3.62-5.47-5.85l-1.29,0.99c0.45,0.62,2.16,2.85,3.8,4.52c-3.06-0.63-6.56-1.89-10.56-4.06l-0.79,1.43
			c4.32,2.35,8.12,3.66,11.45,4.27l-0.13,0.05c0.67,1.71,6.58,16.72,9.47,19.03c2.67,2.12,4.96,1.07,5.83,0.21l0.17-0.16l0.06-0.22
			c0.021-0.11,2.881-11.58,9.841-12.15c-1.971,1.16-3.07,2.89-3.131,3.01l1.41,0.84c0.011-0.03,1.99-3.24,5.28-3.24v-0.13
			c0.46,0.19,0.85,0.45,1.19,0.73c-3.75,1.46-5.641,5.13-5.73,5.3l1.46,0.73c0.03-0.03,1.86-3.54,5.33-4.62
			c0.58,1.32,0.46,2.76,0.35,3.32c-1.89,1.55-13.529,11.37-15.06,19.89c-0.3,0.41-1.52,1.9-3.22,3.03v-4.02h-1.65v4.87
			c-0.79,0.32-1.64,0.52-2.52,0.51c-0.19-0.01-0.37-0.05-0.551-0.08v-5.48h-1.649v5.06c-1.79-0.74-3.51-2.34-5.141-4.82l-1.369,0.91
			c2.619,3.96,5.54,5.99,8.71,6.03c3.409,0.06,6.159-2.23,7.659-3.79c0.08,1.01,0.101,2.37-0.3,3.78c-0.21,0.84-0.85,1.99-1.56,3.32
			c-1.63,3.03-3.61,6.75-3.05,10.48c-1.311-0.45-2.75-0.74-4.37-0.74c-8.55,0-14.58,2.57-17.931,7.64
			c-7.109,10.77,0.41,28.72,0.73,29.48l1.52-0.63c-0.09-0.19-7.52-17.91-0.88-27.94c3.011-4.58,8.601-6.91,16.561-6.91
			c9.5,0,13.26,10.66,13.89,15.26l1.601-0.23c-0.53-3.99-3.091-11.74-9.171-15.05c0.11-2.36,0.351-4.69,0.71-6.94
			c0.551-1.29,1.23-2.51,1.83-3.65c0.771-1.41,1.431-2.63,1.71-3.66c0.58-2.14,0.391-4.14,0.21-5.29
			c0.181-0.49,0.391-0.98,0.61-1.46l9.04,12.87l2.12,0.03l15.6-7.92l7.391,6.98l1.46-1.55l-7.891-7.45l3.351-15.35l14.859-7.77
			l-0.989-1.89l-15.221,7.95l-9.989-8.98c7.779-5.19,16.939-8.49,26.779-9.24l-0.13-1.76c-2.96,0.22-5.85,0.67-8.67,1.31v-6.19
			l2.391-2.4l-1.141-1.15l-0.96,0.95c-0.63-1.42-1.88-4.45-2.5-6.81c1.45,0.68,3.23,0.81,4.95,0.18c2.08-0.75,3.27-3.88,3.82-5.83
			c1.68,1.91,3.21,2.43,4.069,2.57c0.38,0.95,1.44,2.88,3.761,3.8l0.59-1.52c-1.48-0.59-2.271-1.74-2.67-2.51
			c2.04-0.63,3.05-1.97,3.17-5.6c0.93-1.57,7.989-13.14,15.17-16.07l0.359-0.13l0.12-0.36c0.05-0.17,5.8-17.11,18.15-17.11
			c2.649,0,4.47,0.63,5.399,1.9c0.75,0.97,0.82,2.18,0.75,3.04c-0.869-0.73-2.939-2.13-5.21-1.64l-0.3,0.06l-0.18,0.25
			c-0.49,0.66-2.94,4.04-2.53,5.95l0.03,0.08l0.03,0.07c0.029,0.09,0.779,1.61,2.149,2.22c-2.99,4.04-6.06,10.06-6.819,18.22
			l1.609,0.14c1.48-15.63,12.181-23.26,12.3-23.34l0.23-0.16l0.09-0.27C205.613,100.62,206.523,97.55,204.763,95.16z M152.483,92.92
			c0.699-0.15,1.52-0.21,2.449,0.45c1.78,1.24,4.28,5.39,6.07,18.17c0.78,5.54,1.271,9.55,1.48,12.47
			c-4.28-1.54-7.511,0.19-8.811,1.1c-0.05-0.14-0.13-0.28-0.16-0.41l0.061-0.15c-0.04-0.02-0.101-0.03-0.13-0.06
			c-0.99-2.6-1.87-6.1-2.511-10.79C148.553,96.32,149.133,93.64,152.483,92.92z M139.783,97.91c0.55-0.72,3.57-4.28,8.16-1.32
			c-0.36,3.38,0.2,8.77,1.37,17.33c0.58,4.13,1.33,7.39,2.199,9.98c-3.64-0.59-6.949,1.62-8.26,2.65
			C140.983,118.6,138.263,106.08,139.783,97.91z M150.943,135.46c-2.07,0.73-4.24,0.12-5.221-1.48c-0.239-0.41-1.04-2.58-1.979-5.74
			l0.03,0.03c0.029-0.04,3.069-2.81,6.529-2.81c0.61,0,1.24,0.09,1.87,0.3c0.61,1.5,1.221,2.71,1.86,3.7
			C153.644,131.54,152.453,134.92,150.943,135.46z M159.894,132.13c-0.131,0-2.95-0.03-5.57-5.49c0.78-0.62,3.88-2.75,8.27-0.82
			C162.803,131.18,161.783,131.76,159.894,132.13z M178.443,110.49c-6.03,2.68-11.681,10.43-14.271,14.4
			c-0.17-3.2-0.7-7.56-1.55-13.57c-1.4-9.99-3.38-16.12-6.03-18.68c0-0.61,0-5.43-0.06-11.31c-0.03-4.27-0.08-9.1-0.18-13.29
			c-0.11-4.66-0.261-8.53-0.49-9.98c0.17-0.77,1.28-5.21,5.95-5.21c4.93,0,5.159,7.7,5.18,7.78v0.08
			c-0.061,0.12-0.12,0.27-0.16,0.38l0.16,0.06V95.6h1.63V61.03c0.47-1.03,1.89-3.25,5.19-3.25c3.939,0,4.09,3.02,4.09,3.37
			l0.12,10.73l0.159,13.26l0.271,23.76l0.61-0.01C178.763,109.6,178.543,110.16,178.443,110.49z M199.253,104.78
			c-0.89-0.08-1.49-1.08-1.68-1.4c-0.101-0.79,0.92-2.74,2.01-4.28c1.69-0.19,3.29,1.09,3.76,1.51
			C202.403,101.38,200.894,102.75,199.253,104.78z"/>
		<path fill="#14143F" d="M291.963,166.94l-0.12-1.63c-0.02,0-1.529,0.06-3.41-0.12c0.45-3.88,1.58-20.28-10.369-26.26
			c-6.261-3.13-12.25-3.73-17.341-1.75c-2.56,1-4.869,2.67-6.869,4.9c0.1-0.3,0.189-0.62,0.26-0.94
			c2.26-9.25,0.109-25.81,0.02-26.51l-0.22-1.69l-10.64,10.94c-2.63-2.79-6.12-7.36-5.61-9.51l0.65-2.79l-2.04,2.02
			c-0.141,0.14-3.561,3.62-3.561,6.72v6.49c-2.56,1.5-16.09,9.78-19.76,19.71l-0.15,0.4l0.23,0.35c0.05,0.09,5.05,7.34,16.6,5.93
			c-2.59,6.54-6.77,16.04-8.609,17.52c-1.82,1.45-3.08,0.77-3.511,0.45c-0.51-1.93-3.83-13.19-11.89-13.19
			c-2.75,0-4.79,0.8-6.04,2.37c-0.91,1.14-1.22,2.45-1.31,3.56c-5.141-4.2-11.021-7.54-17.44-9.78v-10.72
			c0.71-5.33,11.69-16.7,11.79-16.82l0.22-0.22l0.011-0.31c0.029-0.52,0.069-1.03,0.109-1.54l-1.609-0.14
			c-0.051,0.42-0.08,0.85-0.11,1.28c-1.55,1.63-11.34,12.06-12.04,17.56v10.37c-5.5-1.74-11.33-2.67-17.39-2.67
			c-1.48,0-2.94,0.06-4.391,0.18l0.13,1.76c1.41-0.11,2.83-0.16,4.261-0.16c1.51,0,3,0.08,4.51,0.2l-8.67,9.36l-1.67,0.87
			l0.989,1.89l15.15,10.83l-0.03,0.13l-2.58,10.91l-22.659,8.89l-0.2-0.19l-1.46,1.55l-0.511,21.34l-9.539,8.2l-13.66-7.29
			l0.72-21.31l-2.12-0.03l-0.74,21.97l-4.479,5.31c0.26-0.85,0.399-1.73,0.399-2.66c0-0.39-0.04-0.88-0.119-1.44l-1.601,0.23
			c0.061,0.47,0.09,0.88,0.09,1.21c0,3.06-1.92,5.6-4.13,8.55c-2.63,3.52-5.649,7.5-5.649,13.21v0.69l0.689,0.11
			c7.99,1.41,15.24,3.68,15.51,4.87c0.16,1.57-0.83,2.16-1.34,2.36c-2.649-1.95-6.54-2.67-10.29-1.86l0.34,1.6
			c3.42-0.74,6.95-0.07,9.221,1.76c1.33,1.07,2.06,2.44,2.06,3.86c0,1.07-0.29,1.9-0.899,2.45c-0.721,0.7-1.74,0.86-2.28,0.91
			c-0.891-2.79-4.45-5.55-8.91-6.67l-0.4,1.59c4.95,1.25,8.13,4.47,7.87,6.62c-0.18,1.48-2.22,2.36-5.45,2.36
			c-5.14,0-7.64-2.21-10.04-4.35c-2.229-1.97-4.539-4.01-8.63-4.01c-4.409,0-5.72,1.25-6.84,2.35c-1.03,0.99-1.899,1.84-5.439,1.84
			c-4.44,0-6.601-1.49-7.62-2.63c2.95,0.24,5.37-0.36,7.21-1.83c3.17-2.48,3.439-6.5,3.46-6.67l0.01-0.39l-0.27-0.27
			c-0.12-0.1-12.011-11.15-12.011-29.24c0-8.81,2.21-13.93,4.54-19.35c2.391-5.58,4.88-11.35,5.181-21.45h0.04
			c-0.021-0.03-0.04-0.06-0.04-0.07c0.04-0.68,0.04-1.37,0.04-2.08c0-13.15-2.19-20.18-4.48-25.81l0.061-0.02
			c-0.41-1.08-0.87-2.09-1.351-3.06c-1.02-2.41-2-4.7-2.62-7.28c-1.75-7.26-0.67-19.71-0.18-24.22l8.84,9.07l0.58,0.61l0.58-0.59
			c0.67-0.64,5.42-5.53,6.5-9.43c0.9,1.2,1.87,2.8,1.87,4.12v7.45l0.43,0.22c0.12,0.09,12.021,6.86,17.49,15.37
			c-0.75,0.85-1.23,1.95-1.23,3.16c0,0.88,0.24,1.67,0.65,2.37c-1.58,1.15-3.92,2.35-7.16,2.76l0.22,1.54
			c7.521-1,10.86-5.85,10.92-5.92l0.211-0.35l-0.141-0.4c-3.67-9.93-17.2-18.21-19.76-19.71v-6.49c0-3.1-3.43-6.58-3.58-6.72
			l-2.02-2.02l0.649,2.79c0.49,2.15-2.979,6.72-5.63,9.51l-9.44-9.72l-1.189-1.22l-0.21,1.69c-0.11,0.7-2.22,17.26,0,26.51
			c0.09,0.32,0.18,0.64,0.27,0.94c-2.01-2.23-4.319-3.9-6.88-4.9c-5.08-1.98-11.08-1.38-17.319,1.75
			c-11.971,5.98-10.83,22.38-10.381,26.26c-1.89,0.18-3.38,0.12-3.409,0.12l-0.131,1.63c4.91,0.51,9.551,6.62,9.921,11.26
			c0.189,2.58-0.261,5.08-0.771,7.71c-0.35,1.84-0.7,3.72-0.8,5.64c-0.2,3.74,0.1,7.58,0.41,11.27l0.04,0.76
			c0.54,6.62,2.01,12.59,4.39,17.72c1.31,2.82,3.19,5.2,5.05,7.49c1.431,1.81,2.91,3.67,4.07,5.69c1.84,3.25,4.29,6.47,6.649,9.59
			c2.98,3.94,6.04,7.99,7.98,12.15h-0.03l0.391,1.28c0.029,0.06,0.18,0.47,0.529,1.02c-5.92,1.18-17.67,5.5-17.67,21.11
			c0,5.89,2.42,10.32,7.19,13.11c0.97,0.58,2.03,1.06,3.149,1.48c2.53,0.93,5.381,1.45,8.33,1.65c8.13,0.55,17.051-1.35,22.28-4.01
			c1.83,2.32,9.71,9.5,33.43,1.75c2.82,1.63,22.98,12.21,48.29,0.08c2.301,1.8,13.66,9.13,36.44,0.02
			c1.53,1.53,7.59,5.29,29.71,5.29c6.64,0,12.17-1.09,16.74-2.85c13.7-5.27,18.72-16.56,18.72-22.53c0-11.52-13.98-16.19-20.92-17.8
			c1.95-4.03,4.89-7.94,7.76-11.75c2.38-3.12,4.811-6.34,6.67-9.59c1.141-2.02,2.641-3.88,4.08-5.69c1.83-2.29,3.75-4.67,5.04-7.49
			c2.36-5.13,3.851-11.1,4.37-17.72l0.06-0.76c0.311-3.69,0.61-7.53,0.4-11.27c-0.11-1.92-0.46-3.8-0.81-5.64
			c-0.49-2.63-0.96-5.13-0.74-7.71C282.433,173.56,287.073,167.45,291.963,166.94z M105.543,243.75c0.2-4.13,2.12-7.26,4.25-10.16
			c2.47,5.13,5.7,9.86,9.5,14.03C115.823,245.81,109.323,244.44,105.543,243.75z M261.333,138.7c4.63-1.8,10.17-1.22,16,1.69
			c10.82,5.42,9.86,20.94,9.47,24.57c-1.51-0.26-3.109-0.7-4.31-1.44c-4.26-2.62-13.24-4.6-19.91,4.59
			c-3.439,4.7-5.91,11.03-8.09,16.61c-1.75,4.49-3.42,8.74-5.25,11.27c-0.65-1.67-1.28-3.42-1.79-5.37
			c7.94-39.08,28.56-37.61,28.8-37.59l0.15-1.64c-0.87-0.08-21.07-1.67-29.811,35.44c-0.41-2.27-0.68-4.8-0.79-7.7
			c6.61-34.98,23.45-34.57,23.66-34.56l0.11-1.63c-0.71-0.04-15.88-0.59-23.65,28.29c0.641-11.2,3.12-17.02,5.36-22.24
			c0.03-0.09,0.06-0.18,0.11-0.26C253.854,143.75,257.253,140.3,261.333,138.7z M270.623,170c0.12,1.73,0.24,3.92,0.35,6.41
			c0,0-0.02,0.02-0.02,0.03l0.02,0.02c0.091,2.67,0.15,5.73,0.091,9.06l-0.021,0.02l0.021,0.02c-0.03,2.65-0.141,5.45-0.341,8.38
			c-0.1,0.14-0.229,0.3-0.3,0.47l0.26,0.13c-0.72,9.95-2.529,20.95-6.569,30.48c-1.5,3.55-3.21,6.63-4.99,9.31l-0.12,0.02
			l0.021,0.12c-5.03,7.44-10.63,11.63-13.94,13.66c3.58-4.18,10.46-14,10.46-28.25c0-9.15-2.28-14.42-4.689-19.99
			c-0.301-0.72-0.601-1.45-0.91-2.17c2.22-2.59,4.02-7.13,6.08-12.4c2.14-5.49,4.58-11.71,7.87-16.25c3.26-4.47,7.09-5.97,10.5-6.06
			c-1.86,2.11-3.381,5.73-3.73,6.64l-0.08,0.16L270.623,170z M195.533,164.01c0.93,0.7,1.83,1.46,2.71,2.22l0.05,0.33l0.53,0.44
			c0.399,0.33,1.74,1.44,3.439,3.05c4.511,4.73,8.19,10.26,10.841,16.34c-0.07,0.65-0.12,1.15-0.12,1.15
			c-0.03,0.38-0.061,0.81-0.061,1.29c0,0.53,0.04,1.12,0.13,1.72l-9.13-3.18l-8.74-13.12L195.533,164.01z M199.253,250.13
			l-0.49-8.26l10.351-15.77c0.76,2.01,2.1,3.89,3.55,5.8C209.463,238.88,204.863,245.06,199.253,250.13z M213.863,233.53
			c2.149,2.93,4.1,6.06,4.29,10.22c-3.83,0.7-10.44,2.09-13.88,3.93C208.144,243.49,211.383,238.72,213.863,233.53z M202.083,258.67
			c-3.79-0.52-8.65-0.35-14.07,1.82c-0.17-0.03-0.38-0.09-0.649-0.13c5.43-2.69,10.37-6.21,14.66-10.39
			c-0.17,1.91,0.739,3.06,1.699,3.66c-1.09,1.23-1.699,2.68-1.699,4.19C202.023,258.12,202.053,258.39,202.083,258.67z
			 M177.803,239.33l-6.38-12.29l12.45-19.05l13.53-1.13l10.16,17.7l-10.48,15.97L177.803,239.33z M174.163,176.47l19.62-0.48
			l8.28,12.42l-4.58,16.31l-0.25,0.02l-13.561,1.12l-12.279-17.69L174.163,176.47z M119.993,253.63c0.95-0.6,1.83-1.72,1.68-3.59
			c3.311,3.2,7,6.01,10.971,8.34c-3.36-0.38-7.141-0.62-10.971-0.46v-0.1C121.673,256.31,121.073,254.86,119.993,253.63z
			 M72.833,199.89c-2.41,5.57-4.66,10.84-4.66,19.99c0,14.25,6.851,24.07,10.44,28.25c-3.32-2.03-8.92-6.22-13.94-13.66l0.03-0.12
			l-0.12-0.02c-1.8-2.68-3.5-5.76-5-9.31c-4.02-9.53-5.84-20.53-6.56-30.48l0.26-0.13c-0.07-0.17-0.18-0.33-0.32-0.47
			c-0.2-2.93-0.29-5.73-0.33-8.38l0.011-0.02c0,0,0-0.02-0.011-0.02c-0.05-3.33,0-6.39,0.09-9.06l0.03-0.02
			c-0.02-0.01-0.02-0.03-0.02-0.03c0.09-2.49,0.229-4.68,0.37-6.41v-0.19l-0.061-0.16c-0.37-0.91-1.88-4.53-3.75-6.64
			c3.43,0.09,7.28,1.59,10.51,6.06c3.28,4.54,5.721,10.76,7.88,16.25c2.04,5.27,3.851,9.81,6.08,12.4
			C73.443,198.44,73.133,199.17,72.833,199.89z M46.373,140.39c5.82-2.91,11.36-3.49,16-1.69c4.06,1.6,7.46,5.05,9.94,10.03
			c0.029,0.08,0.06,0.17,0.109,0.26c2.23,5.22,4.7,11.04,5.34,22.24c-7.729-28.88-22.93-28.33-23.63-28.29l0.11,1.63
			c0.21-0.01,17.04-0.42,23.64,34.56c-0.09,2.9-0.359,5.43-0.79,7.7c-8.739-37.11-28.93-35.52-29.81-35.44l0.16,1.64
			c0.25-0.02,20.85-1.49,28.81,37.59c-0.53,1.95-1.14,3.7-1.79,5.37c-1.83-2.53-3.49-6.78-5.26-11.27
			c-2.17-5.58-4.65-11.91-8.08-16.61c-6.68-9.19-15.66-7.21-19.93-4.59c-1.181,0.74-2.78,1.18-4.3,1.44
			C36.503,161.33,35.533,145.81,46.373,140.39z M61.993,243.08c-0.01-0.01-0.01-0.01-0.01-0.02c-2.351-3.06-4.74-6.25-6.54-9.4
			c-1.2-2.13-2.74-4.03-4.221-5.89c-0.229-0.29-0.46-0.58-0.689-0.87c-1.59-2.01-3.08-3.98-4.13-6.28
			c-2.3-4.97-3.71-10.75-4.23-17.16l-0.069-0.77c-0.091-1.16-0.181-2.33-0.25-3.5c-0.171-2.53-0.28-5.07-0.141-7.55
			c0.12-1.82,0.46-3.65,0.78-5.42c0.21-1.09,0.41-2.19,0.57-3.31c0.22-1.58,0.33-3.2,0.199-4.84c-0.31-4.01-3.35-8.91-7.319-11.32
			c2.01-0.23,4.35-0.74,6.12-1.84c1.229-0.77,2.949-1.45,4.89-1.76c1.47,0.65,3.5,4.48,4.5,6.94c-0.1,1.29-0.21,2.81-0.271,4.53
			c-1.869-1.52-4.659-2.89-5.39-3.22l-0.7,1.47c2.12,1,5.181,2.82,5.971,3.97c-0.061,2.17-0.091,4.58-0.091,7.18
			c-2.26-1.57-5.18-2.28-5.329-2.32l-0.37,1.6c0.029,0.01,3.84,0.92,5.729,2.85c0.04,2.02,0.12,4.14,0.24,6.33
			c-2.17-1.38-5.3-2.35-6.12-2.58l-0.44,1.57c2.08,0.61,5.4,1.91,6.7,3.13c0.141,2.06,0.351,4.17,0.61,6.3
			c-3.85-2.15-9.08-1.77-9.33-1.76l0.13,1.65c0.08-0.01,6.17-0.45,9.47,2.28c0.311,2.26,0.67,4.55,1.11,6.82
			c-3.5-2.47-8.4-3.07-8.65-3.1l-0.18,1.62c0.03,0.01,1.69,0.21,3.69,0.84c2.01,0.63,4.35,1.69,5.75,3.38
			c0.37,1.61,0.76,3.22,1.22,4.8c-3.61-2.15-8.42-2.2-8.65-2.2v1.64c0.03,0,1.65,0.01,3.641,0.43c1.989,0.42,4.35,1.24,5.85,2.86
			l0.01-0.01c0.58,1.76,1.19,3.49,1.91,5.18c-2.87-0.79-6.189-0.29-6.35-0.27l0.24,1.63c0.06-0.01,4.569-0.69,7.06,0.79
			c1.08,2.38,2.26,4.52,3.48,6.48l-3.961-0.69l-0.31,1.59l5.48,0.96c1.25,1.82,2.5,3.43,3.779,4.87l-4.77,0.19l0.08,1.64l6.109-0.24
			c5.061,5.31,9.74,7.82,11.431,8.62c-0.311,1.2-1.011,3.02-2.641,4.28c-1.689,1.33-4.06,1.78-7,1.35
			C68.633,251.85,65.263,247.39,61.993,243.08z M126.053,291.97c-24.43,8.049-31.33-0.23-32.149-1.42c-0.061-1.04-0.23-6.13,1-11.47
			c1.29-5.56,4.109-11.38,10.2-13.11c1.369,0.45,2.96,0.76,4.869,0.76c5.96,0,6.91-2.67,7.07-3.81v-0.13
			c0.82-0.05,2.18-0.31,3.23-1.31c0.54-0.52,0.909-1.16,1.149-1.9c5.62-0.27,11.12,0.34,15.41,1.05c1.26,0.62,2.57,1.16,3.9,1.69
			c-8.37,4.04-12.051,11.41-13.61,17.9C125.843,285.45,125.943,290.1,126.053,291.97z M152.253,259.9
			c-2.25,0.23-4.62,0.52-7.109,0.86c-0.65-0.18-3.381-0.92-7.28-1.61c-3.28-1.57-6.42-3.45-9.33-5.61l13.43-8.6l19.04,8.89
			l1.22,0.57l0.03-0.06l4.66,4.59C162.693,259.02,157.813,259.31,152.253,259.9z M161.903,251.91l-19.79-9.27l-0.01,0.05
			l-5.511-14.45l9.07-7.78l23.87,7.54l6.21,11.98L161.903,251.91z M210.394,292.18c-22.2,8.87-33.221,1.47-34.921,0.14
			c-0.13-3.01-0.55-24.87,12.881-30.2v-0.01c5.579-2.31,10.56-2.31,14.31-1.65c0.21,0.38,0.45,0.72,0.76,1.02
			c1.061,1,2.431,1.26,3.221,1.31v0.13c0.159,1.14,1.13,3.81,7.069,3.81c1.03,0,1.931-0.09,2.8-0.25
			C210.043,274.8,210.253,289.05,210.394,292.18z M244.673,260.91c-3.529,0-4.41-0.85-5.41-1.84c-1.159-1.1-2.439-2.35-6.85-2.35
			c-4.12,0-6.41,2.04-8.62,4.01c-2.42,2.14-4.92,4.35-10.08,4.35c-3.229,0-5.24-0.88-5.42-2.36c-0.27-2.15,2.89-5.37,7.86-6.62
			l-0.4-1.59c-4.479,1.12-8.04,3.88-8.899,6.67c-0.551-0.05-1.58-0.21-2.311-0.91c-0.59-0.55-0.89-1.38-0.89-2.45
			c0-1.42,0.74-2.79,2.069-3.86c2.271-1.83,5.801-2.5,9.21-1.76l0.351-1.6c-3.76-0.81-7.66-0.09-10.311,1.86
			c-0.489-0.2-1.489-0.79-1.319-2.36c0.26-1.19,7.5-3.46,15.51-4.87l0.67-0.11v-0.69c0-5.71-3-9.69-5.63-13.21
			c-2.23-2.95-4.14-5.49-4.14-8.55c0-3.49,3.5-16.47,13.97-16.47c7.979,0,13.55,2.33,16.59,6.91c6.61,10.03-0.8,27.75-0.88,27.94
			l1.49,0.63c0.34-0.76,7.859-18.71,0.75-29.48c-3.33-5.07-9.391-7.64-17.95-7.64c-1.61,0-3.04,0.29-4.351,0.74
			c0.551-3.73-1.42-7.45-3.05-10.48c-0.729-1.33-1.34-2.48-1.569-3.32c-0.381-1.41-0.381-2.77-0.28-3.78
			c1.49,1.56,4.24,3.85,7.67,3.79c3.15-0.04,6.07-2.07,8.67-6.03l-1.37-0.91c-1.609,2.48-3.34,4.08-5.13,4.82v-5.06h-1.62v5.48
			c-0.2,0.03-0.399,0.07-0.58,0.08c-0.88,0.01-1.74-0.19-2.51-0.51v-4.87h-1.63v4.02c-1.74-1.13-2.94-2.62-3.26-3.03
			c-1.511-8.52-13.15-18.34-15.061-19.89c-0.08-0.56-0.2-2,0.37-3.32c1.73,0.54,3.05,1.68,3.95,2.7c0.89,1.01,1.35,1.89,1.36,1.92
			l1.46-0.73c-0.07-0.17-1.94-3.84-5.721-5.3c0.33-0.28,0.73-0.54,1.19-0.73v0.13c1.64,0,2.95,0.8,3.859,1.61
			c0.91,0.81,1.41,1.61,1.431,1.63l1.399-0.84c-0.069-0.12-1.149-1.85-3.1-3.01c6.94,0.57,9.8,12.04,9.83,12.15l0.05,0.22l0.16,0.16
			c0.86,0.86,3.17,1.91,5.84-0.21c2.87-2.31,8.8-17.32,9.45-19.03l-0.11-0.05c3.32-0.61,7.11-1.92,11.45-4.27l-0.78-1.43
			c-4.01,2.17-7.529,3.43-10.59,4.06c1.641-1.67,3.351-3.9,3.82-4.52l-1.29-0.99c-1.69,2.23-4.49,5.52-5.47,5.85l0.029,0.1
			c-5.609,0.52-9.33-1.2-11.55-2.82c0.391-0.7,0.641-1.49,0.641-2.37c0-1.21-0.461-2.3-1.221-3.15
			c5.48-8.52,17.36-15.29,17.49-15.38l0.41-0.22v-7.45c0-1.32,0.979-2.92,1.89-4.12c1.07,3.9,5.84,8.79,6.49,9.43l0.59,0.59
			l9.42-9.68c0.49,4.51,1.57,16.96-0.18,24.22c-0.64,2.58-1.601,4.87-2.62,7.28c-0.49,0.97-0.94,1.98-1.35,3.06l0.04,0.02
			c-2.28,5.63-4.471,12.66-4.471,25.81c0,0.71,0.011,1.4,0.03,2.08v0.07c0.32,10.1,2.8,15.87,5.2,21.45
			c2.33,5.42,4.54,10.54,4.54,19.35c0,18.09-11.87,29.14-12.01,29.24l-0.29,0.27l0.029,0.39c0,0.17,0.271,4.19,3.44,6.67
			c1.859,1.47,4.26,2.07,7.229,1.83C251.283,259.42,249.123,260.91,244.673,260.91z M280.633,182.86c0.16,1.14,0.37,2.26,0.58,3.36
			c0.34,1.77,0.67,3.6,0.78,5.42c0.14,2.48,0.04,5.03-0.14,7.55c-0.08,1.18-0.171,2.34-0.271,3.5l-0.06,0.77
			c-0.511,6.41-1.92,12.19-4.24,17.16c-1.2,2.63-2.95,4.83-4.811,7.15c-1.489,1.86-3.01,3.76-4.229,5.89
			c-1.79,3.15-4.18,6.32-6.521,9.38c-0.01,0.01-0.02,0.03-0.029,0.04c-3.25,4.31-6.62,8.77-8.58,13.45
			c-2.95,0.43-5.32-0.02-7.021-1.35c-1.609-1.26-2.33-3.08-2.6-4.28c1.67-0.8,6.33-3.31,11.42-8.62l6.12,0.24l0.06-1.64l-4.77-0.19
			c1.27-1.44,2.53-3.05,3.76-4.87l5.48-0.96l-0.29-1.59l-3.971,0.69c1.221-1.96,2.41-4.1,3.471-6.48c2.5-1.48,7.02-0.8,7.06-0.79
			l0.28-1.63c-0.181-0.02-3.5-0.52-6.37,0.27c0.7-1.69,1.34-3.42,1.89-5.18l0.03,0.01c2.99-3.24,9.43-3.29,9.5-3.29v-1.64
			c-0.24,0-5.05,0.05-8.68,2.2c0.46-1.58,0.859-3.19,1.22-4.8c2.82-3.39,9.38-4.21,9.46-4.22l-0.2-1.62
			c-0.24,0.03-5.149,0.63-8.649,3.1c0.46-2.27,0.819-4.56,1.13-6.82c3.319-2.73,9.39-2.29,9.47-2.28l0.12-1.65
			c-0.25-0.01-5.48-0.39-9.32,1.76c0.24-2.13,0.46-4.24,0.61-6.3c1.28-1.22,4.6-2.52,6.7-3.13l-0.46-1.57
			c-0.82,0.23-3.92,1.2-6.12,2.58c0.13-2.19,0.22-4.31,0.25-6.33c1.89-1.93,5.71-2.84,5.75-2.85l-0.38-1.6
			c-0.17,0.04-3.091,0.75-5.341,2.32c0.011-2.6-0.029-5.01-0.09-7.18c0.8-1.15,3.86-2.97,5.96-3.97l-0.699-1.47
			c-0.711,0.33-3.5,1.7-5.36,3.22c-0.09-1.72-0.18-3.24-0.271-4.53c0.99-2.46,3.011-6.29,4.48-6.94c1.95,0.31,3.65,0.99,4.9,1.76
			c1.76,1.1,4.109,1.61,6.119,1.84c-3.979,2.41-7.01,7.31-7.34,11.32C280.303,179.7,280.423,181.29,280.633,182.86z"/>
		<path fill="#14143F" d="M303.773,42.95c1.489,1.62,2.17,3.47,2.06,5.55l-0.02,0.07l-0.011,0.09l-8.239,30.46l-0.091,0.12
			c-0.119,0.14-2.77,3.38-8.42,3.38c-11.949,0-26.319-5.96-42.96-12.87c-22.899-9.5-51.35-21.31-84.17-21.51
			c-32.84,0.2-61.289,12.01-84.189,21.51c-16.65,6.91-31.01,12.87-42.961,12.87c-5.649,0-8.31-3.24-8.42-3.38l-0.109-0.12
			l-0.04-0.18l-8.21-30.37V48.5c-0.12-2.08,0.58-3.93,2.061-5.55c5.799-6.23,21.989-6.57,22.68-6.58l0.59-0.01l0.199,0.54l3.24,8.78
			c3.871-1.5,8.101-3.27,12.69-5.18c25.8-10.82,61.09-25.6,102.47-25.8c41.36,0.2,76.631,14.98,102.45,25.8
			c4.59,1.91,8.83,3.68,12.69,5.18l3.439-9.32l0.57,0.01C281.763,36.38,297.963,36.72,303.773,42.95z M296.083,78.34l7.63-28.2
			c-1.81,0.85-4.93,1.92-9.41,1.92c-6.54,0-17.14-4.44-30.569-10.06c-25.66-10.75-60.771-25.47-101.811-25.66
			c-41.05,0.19-76.17,14.91-101.85,25.66c-13.41,5.62-24.02,10.06-30.57,10.06c-4.449,0-7.58-1.07-9.38-1.92l7.62,28.2
			c0.439,0.49,2.66,2.64,7.029,2.64c11.631,0,25.851-5.9,42.32-12.75c23.051-9.54,51.67-21.42,84.83-21.62
			c33.141,0.2,61.771,12.08,84.79,21.62c16.49,6.85,30.73,12.75,42.34,12.75C293.423,80.98,295.644,78.83,296.083,78.34z
			 M304.173,48.02c0-1.47-0.52-2.77-1.609-3.94c-4.761-5.11-18.021-5.93-20.92-6.05l-0.44,1.18c0.56,0.7,1.11,1.32,1.69,1.89
			c7.579-1.19,12.79-0.64,15.47,1.63c1.62,1.4,1.67,2.89,1.67,3.06v0.12l-1.13,4.07C301.733,49.39,303.503,48.43,304.173,48.02z
			 M297.123,50.25l0.93-3.3c-3.229,0.7-11.149,1.42-17.51-5.99l-1.96,5.32c6.59,2.52,11.95,4.14,15.72,4.14
			C295.343,50.42,296.253,50.35,297.123,50.25z M298.253,45.24c-0.16-0.36-0.45-0.85-1.02-1.31c-1.53-1.26-4.98-2.45-12.73-1.43
			C290.163,46.9,296.243,45.79,298.253,45.24z M45.243,46.28l-1.98-5.32c-6.34,7.41-14.279,6.69-17.49,5.99l0.931,3.3
			c0.87,0.1,1.79,0.17,2.8,0.17C33.293,50.42,38.644,48.8,45.243,46.28z M42.623,39.21l-0.44-1.18c-2.91,0.12-16.18,0.94-20.93,6.05
			c-1.1,1.17-1.58,2.47-1.609,3.94c0.67,0.41,2.43,1.37,5.289,1.96l-1.149-4.07v-0.12c0-0.17,0.06-1.66,1.69-3.06
			c2.689-2.27,7.879-2.82,15.459-1.63C41.503,40.53,42.083,39.91,42.623,39.21z M39.323,42.5c-7.75-1.02-11.189,0.17-12.71,1.43
			c-0.61,0.46-0.89,0.95-1.04,1.31C27.583,45.79,33.644,46.9,39.323,42.5z"/>
		<polygon fill="#14143F" points="268.153,318.87 269.523,322.19 266.123,323.6 264.743,320.29 		"/>
		<path fill="#14143F" d="M261.543,318.99c0.79,3.81-0.5,7.25-4.58,8.95c-4.319,1.77-8.659,0.14-10.979-5.49
			c-2.36-5.7-0.271-9.96,3.93-11.7c4.87-2.01,8.24,0.53,9.41,2.86l-3.391,1.409c-0.689-0.859-1.97-2.479-4.77-1.319
			c-1.641,0.67-3.59,2.76-1.689,7.359c1.199,2.931,3.459,5.091,6.35,3.891c1.89-0.78,2.75-2.391,2.33-4.57L261.543,318.99z"/>
		<polygon fill="#14143F" points="245.343,328.28 246.623,331.6 243.213,332.95 241.903,329.61 		"/>
		<path fill="#14143F" d="M239.224,40.08c5.029,1.98,5.069,5.79,4.299,7.81l-3.289-1.3c0.199-0.76,0.609-2.62-2.381-3.8
			c-1.289-0.51-3.039-0.64-3.619,0.85c-0.51,1.27,0.43,1.96,1.05,2.38l3.61,2.57c2.01,1.43,3.709,3.16,2.56,6.11
			c-1.95,4.93-7.16,3.38-8.59,2.82c-5.979-2.37-5.66-6.22-4.841-8.26l3.291,1.31c-0.351,0.91-0.58,2.84,2.42,4.01
			c1.63,0.64,3.57,0.96,4.26-0.77c0.5-1.29-0.59-2.11-2.18-3.21l-1.58-1.1c-2.4-1.66-4.73-3.27-3.301-6.87
			C231.644,40.79,233.903,37.97,239.224,40.08z"/>
		<path fill="#14143F" d="M239.394,136.78c1.91,0,3.439,0.9,3.439,2.01c0,1.12-1.529,2.02-3.439,2.02c-1.9,0-3.461-0.9-3.461-2.02
			C235.933,137.68,237.493,136.78,239.394,136.78z"/>
		<polygon fill="#14143F" points="238.613,323.47 239.683,326.41 232.373,329.06 234.933,336.03 231.493,337.3 225.433,320.73 
			237.224,316.44 238.283,319.36 229.953,322.4 231.323,326.14 		"/>
		<path fill="#14143F" d="M239.623,227.08l-0.79,1.43v0.01c-0.029-0.03-3.23-1.78-5.96-1.53c0.399,1.75,0.69,3.48,0.931,5.01
			c2.5-0.42,5.09,0.72,5.209,0.78l-0.67,1.48c-0.029-0.01-2.31-0.99-4.32-0.63c0.291,2.23,0.391,3.79,0.391,4.01l-1.63,0.09
			c-0.29-4.79-2.05-17.9-6.41-20.75c-0.94-0.61-1.91-0.71-3.01-0.3c-3.011,1.1-1.64,6.89-0.2,13.01c0.96,4.05,1.971,8.24,1.83,11.66
			l-1.63-0.07c0.12-3.19-0.851-7.27-1.79-11.2c-1.62-6.87-3.17-13.34,1.24-14.95c1.34-0.48,2.619-0.41,3.84,0.16
			c1.869-0.45,4.449-0.09,4.779-0.05l-0.25,1.63c-0.51-0.09-1.609-0.19-2.66-0.17c0.601,0.66,1.141,1.47,1.631,2.37
			c2-0.48,4.38-0.3,4.51-0.28l-0.141,1.64c-0.02,0-1.989-0.16-3.639,0.15c0.239,0.58,0.489,1.19,0.699,1.8
			c2.58-0.72,5.76-0.06,5.91-0.02l-0.35,1.59c-0.03-0.01-2.9-0.59-5.07-0.01c0.15,0.48,0.3,0.96,0.42,1.46
			C235.813,224.98,239.453,226.98,239.623,227.08z"/>
		<path fill="#14143F" d="M229.333,36.7l-3.67,10.88c-1.48,4.39-4.76,5.38-8.98,3.97c-1.539-0.52-3.699-1.67-4.629-3.82
			c-0.551-1.34-0.44-2.8,0.069-4.48l3.75-11.08l3.55,1.19l-3.67,10.85c-0.76,2.33,0.23,3.81,1.86,4.35
			c2.399,0.82,3.76-0.02,4.44-2.04l3.719-11.01L229.333,36.7z"/>
		<polygon fill="#14143F" points="222.323,340.4 217.763,341.67 210.474,335.65 209.263,337.8 210.853,343.55 207.293,344.52 
			202.634,327.52 206.193,326.54 208.083,333.47 212.683,324.77 217.272,323.52 212.233,332.38 		"/>
		<polygon fill="#14143F" points="211.613,30.82 207.373,47.93 204.043,47.11 207.563,32.81 207.533,32.8 200.804,46.32 
			197.304,45.45 197.693,30.38 197.673,30.36 194.134,44.67 190.783,43.84 195.013,26.73 200.224,28.02 200.013,42.28 
			200.043,42.28 206.433,29.54 		"/>
		<path fill="#14143F" d="M198.673,340.24l3.62-0.681c-0.03,3.891-1.979,6.98-6.33,7.801c-4.6,0.859-8.5-1.63-9.63-7.62
			c-1.12-6.061,1.801-9.79,6.26-10.63c5.2-0.971,7.971,2.21,8.641,4.729l-3.631,0.68c-0.489-0.979-1.399-2.829-4.399-2.279
			c-1.729,0.33-4.08,1.97-3.149,6.859c0.58,3.11,2.33,5.69,5.39,5.11C197.453,343.84,198.644,342.44,198.673,340.24z"/>
		<polygon fill="#14143F" points="190.373,25.9 189.953,29 180.673,27.71 180.173,31.38 188.683,32.56 188.253,35.66 179.733,34.47 
			179.123,39 188.804,40.33 188.363,43.43 175.123,41.6 177.543,24.13 		"/>
		<path fill="#14143F" d="M183.953,340.09c0.71,8.25-5.319,9.78-7.63,9.98c-2.35,0.199-8.54-0.29-9.26-8.53
			c-0.69-8.25,5.33-9.771,7.66-9.98C177.054,331.37,183.263,331.86,183.953,340.09z M176.054,346.97
			c1.959-0.189,4.649-1.64,4.229-6.56c-0.41-4.92-3.32-5.9-5.3-5.74c-1.98,0.18-4.66,1.64-4.25,6.55
			C171.183,346.14,174.073,347.12,176.054,346.97z"/>
		<path fill="#14143F" d="M177.343,85.15l-0.5,1.56c-3.199-1.01-7.189-0.17-7.22-0.16l-0.36-1.59
			C169.443,84.91,173.703,84,177.343,85.15z"/>
		<path fill="#14143F" d="M177.283,71.89l-0.75,1.47c-4.44-2.24-6.47-0.56-6.54-0.48v-0.01l-1.189-1.13
			C168.833,71.71,171.543,69.03,177.283,71.89z"/>
		<rect x="170.353" y="94.23" fill="#14143F" width="6.181" height="1.63"/>
		<path fill="#14143F" d="M166.003,23.48c5.94,0.15,7.03,5.25,6.94,8.57c-0.11,3.79-1.74,9.21-7.57,9.05l-7.62-0.2l0.45-17.62
			L166.003,23.48z M169.183,32.24c0.121-5.22-2.33-5.7-3.91-5.74l-3.539-0.09l-0.301,11.53l3.59,0.1
			C168.013,38.11,169.093,35.13,169.183,32.24z"/>
		<path fill="#14143F" d="M166.123,68.35l-1.021,1.28c-4.08-3.31-6.989-0.54-7.109-0.43l-1.16-1.17
			C156.863,68,160.884,64.11,166.123,68.35z"/>
		<path fill="#14143F" d="M165.884,81.6l-0.891,1.38c-1.85-1.18-5.811-0.47-7.18-0.09l-0.43-1.57
			C157.593,81.25,163.043,79.79,165.884,81.6z"/>
		<polygon fill="#14143F" points="164.293,332.79 163.673,350.41 160.003,350.28 153.243,337.44 153.203,337.44 152.753,350.01 
			149.313,349.89 149.953,332.28 153.823,332.41 160.384,344.93 160.423,344.93 160.873,332.66 		"/>
		<polygon fill="#14143F" points="153.413,23.67 154.644,41.26 150.963,41.51 149.743,23.92 		"/>
		<polygon fill="#14143F" points="146.653,24.07 147.083,27.16 138.293,28.39 138.853,32.32 146.543,31.25 146.974,34.34 
			139.283,35.41 140.313,42.76 136.683,43.27 134.213,25.81 		"/>
		<path fill="#14143F" d="M141.983,331.29c4.64,0.65,5.02,4.2,4.81,5.7c-0.28,1.93-1.47,3.45-3.29,3.79
			c1.35,0.83,2.051,1.46,1.61,4.729c-0.36,2.561-0.46,3.19,0.3,3.59l-0.09,0.46l-4.02-0.56c-0.131-0.86-0.15-1.78,0.1-3.59
			c0.33-2.38,0.3-3.33-2.381-3.7l-3.779-0.52l-0.939,6.829l-3.58-0.489l2.43-17.46L141.983,331.29z M143.103,336.85
			c0.11-0.93-0.119-2.34-2.25-2.63l-4.549-0.649l-0.641,4.689l4.26,0.59C141.823,339.1,142.843,338.59,143.103,336.85z"/>
		<polygon fill="#14143F" points="129.522,26.64 133.573,43.8 129.993,44.64 120.103,34.06 120.054,34.07 122.943,46.3 
			119.603,47.09 115.554,29.94 119.323,29.05 128.943,39.39 129.003,39.38 126.173,27.42 		"/>
		<path fill="#14143F" d="M125.283,328.38l2.08,18.57l-3.9-0.9l-0.29-3.8l-6.35-1.46l-2,3.26l-3.78-0.87l10.091-15.77
			L125.283,328.38z M122.853,339.05l-0.539-7.28l-0.061-0.01l-3.779,6.28L122.853,339.05z"/>
		<path fill="#14143F" d="M114.533,39.35c2.569,7.87-2.94,10.74-5.16,11.45c-2.229,0.72-8.38,1.68-10.95-6.18
			c-2.57-7.87,2.95-10.73,5.16-11.46C105.804,32.44,111.953,31.49,114.533,39.35z M108.394,47.85c1.89-0.63,4.17-2.67,2.649-7.35
			c-1.55-4.69-4.6-4.99-6.489-4.37c-1.881,0.61-4.17,2.64-2.61,7.34C103.463,48.16,106.503,48.46,108.394,47.85z"/>
		<polygon fill="#14143F" points="113.363,325.52 108.033,342.34 104.753,341.29 109.213,327.26 109.173,327.24 101.573,340.28 
			98.134,339.19 99.533,324.17 99.474,324.17 95.022,338.2 91.743,337.16 97.083,320.35 102.213,321.99 101.054,336.2 
			101.083,336.21 108.283,323.92 		"/>
		<path fill="#14143F" d="M100.903,215.13c4.4,1.61,2.859,8.08,1.22,14.95c-0.94,3.93-1.899,8.01-1.78,11.2l-1.63,0.07
			c-0.14-3.42,0.851-7.61,1.83-11.66c1.44-6.12,2.83-11.91-0.22-13.01c-1.09-0.41-2.07-0.31-3,0.3c-4.35,2.85-6.1,15.96-6.4,20.75
			l-1.65-0.09c0-0.22,0.121-1.78,0.4-4.01c-2.01-0.36-4.279,0.62-4.31,0.63l-0.69-1.48c0.131-0.06,2.73-1.2,5.221-0.78
			c0.229-1.53,0.539-3.26,0.92-5.01c-2.73-0.25-5.891,1.5-5.94,1.53v-0.01l-0.81-1.43c0.189-0.1,3.81-2.1,7.16-1.68
			c0.119-0.5,0.26-0.98,0.39-1.46c-2.16-0.58-5.021,0-5.05,0.01l-0.351-1.59c0.15-0.04,3.341-0.7,5.91,0.02
			c0.21-0.61,0.44-1.22,0.7-1.8c-1.66-0.31-3.63-0.15-3.641-0.15l-0.14-1.64c0.11-0.02,2.511-0.2,4.511,0.28
			c0.469-0.9,1.02-1.71,1.629-2.37c-1.069-0.02-2.149,0.08-2.68,0.17l-0.25-1.63c0.34-0.04,2.93-0.4,4.811,0.05
			C98.253,214.72,99.533,214.65,100.903,215.13z"/>
		<path fill="#14143F" d="M97.313,48.03c0.729,3.83-0.641,7.24-4.75,8.85c-4.37,1.72-8.67-0.01-10.87-5.67
			c-2.25-5.74-0.091-9.97,4.14-11.64c4.92-1.91,8.221,0.68,9.38,3.04l-3.45,1.35c-0.649-0.88-1.91-2.53-4.74-1.41
			c-1.649,0.63-3.649,2.69-1.829,7.33c1.159,2.95,3.38,5.14,6.27,4c1.89-0.74,2.8-2.33,2.44-4.51L97.313,48.03z"/>
		<polygon fill="#14143F" points="89.993,333.09 88.843,336.09 77.213,331.66 83.453,315.18 86.933,316.49 81.783,329.98 		"/>
		<path fill="#14143F" d="M84.313,136.78c1.899,0,3.439,0.9,3.439,2.01c0,1.12-1.54,2.02-3.439,2.02c-1.91,0-3.44-0.9-3.44-2.02
			C80.873,137.68,82.403,136.78,84.313,136.78z"/>
		<polygon fill="#14143F" points="80.333,313.89 73.713,330.23 70.304,328.84 76.923,312.51 		"/>
		<polygon fill="#14143F" points="75.113,311.78 65.703,315.66 68.693,328.21 64.333,326.38 62.293,317.13 60.013,318.1 
			57.713,323.6 54.323,322.19 61.144,305.93 64.522,307.34 61.743,313.96 70.733,309.94 		"/>
	</g>
</g>
<g>
	<path fill="#231F20" d="M291.963,166.94l-0.12-1.63c-0.01,0-1.52,0.06-3.399-0.12c0.439-3.88,1.569-20.28-10.37-26.26
		c-6.271-3.13-12.25-3.73-17.351-1.75c-2.56,1-4.859,2.67-6.859,4.9c0.09-0.3,0.18-0.62,0.26-0.94c2.25-9.25,0.1-25.81,0.01-26.51
		l-0.22-1.69l-10.63,10.94c-2.64-2.79-6.12-7.36-5.62-9.51l0.65-2.79l-2.03,2.02c-0.15,0.14-3.57,3.62-3.57,6.72v6.49
		c-2.55,1.5-16.09,9.78-19.76,19.71l-0.15,0.4l0.23,0.35c0.05,0.09,5.05,7.34,16.6,5.93c-2.59,6.54-6.76,16.04-8.6,17.52
		c-1.83,1.45-3.08,0.77-3.51,0.45c-0.521-1.93-3.83-13.19-11.9-13.19c-2.75,0-4.79,0.8-6.04,2.37c-0.9,1.14-1.21,2.45-1.3,3.56
		c-5.15-4.2-11.03-7.54-17.45-9.78v-10.72c0.71-5.33,11.7-16.7,11.79-16.82l0.23-0.22l0.01-0.31c0.02-0.52,0.069-1.03,0.1-1.54
		c1.49-15.63,12.181-23.26,12.311-23.34l0.22-0.16l0.09-0.27c0.04-0.13,0.95-3.2-0.81-5.59c-1.271-1.7-3.54-2.58-6.74-2.58
		c-9.53,0-15.3,8.7-17.97,14.09l-0.511-45.53c0-1.72-1.18-4.99-5.739-4.99c-2.521,0-4.28,1.08-5.4,2.32
		c-0.58-3.26-2.38-7.26-6.6-7.26c-5.12,0-7.19,4.39-7.58,6.71l-0.011,0.14l0.011,0.13c0.63,3.47,0.72,27.79,0.72,33.33
		c-0.85-0.35-1.79-0.41-2.82-0.19c-2.029,0.43-3.26,1.44-3.84,3.57c-6.07-3.42-9.92,2.18-9.96,2.24l-0.1,0.13l-0.03,0.17
		c-2.37,12.23,4.88,35.28,6.13,37.38c0.061,0.13,0.17,0.25,0.271,0.37c0.25,2.94,2.63,8.4,3.21,9.68l-0.44,0.44l-0.25,0.23v7.28
		c-8.07,2.1-15.43,5.93-21.71,11.05c-0.08-1.1-0.38-2.4-1.28-3.52c-1.26-1.57-3.27-2.37-6.05-2.37c-8.08,0-11.39,11.26-11.88,13.19
		c-0.43,0.32-1.71,1-3.51-0.45c-1.84-1.48-6.05-10.98-8.641-17.52c2.13,0.26,4.03,0.23,5.721-0.01c7.52-1,10.85-5.85,10.92-5.92
		l0.2-0.35l-0.141-0.4c-3.67-9.93-17.2-18.21-19.76-19.71v-6.49c0-3.1-3.43-6.58-3.58-6.72l-2.02-2.02l0.649,2.79
		c0.49,2.15-2.979,6.72-5.63,9.51l-9.44-9.72l-1.18-1.22l-0.21,1.69c-0.12,0.7-2.22,17.26,0,26.51c0.08,0.32,0.17,0.64,0.271,0.94
		c-2.021-2.23-4.32-3.9-6.891-4.9c-5.08-1.98-11.08-1.38-17.319,1.75c-11.961,5.98-10.83,22.38-10.37,26.26
		c-1.9,0.18-3.391,0.12-3.41,0.12l-0.141,1.63c4.91,0.51,9.561,6.62,9.921,11.26c0.189,2.58-0.261,5.08-0.771,7.71
		c-0.34,1.84-0.69,3.72-0.79,5.64c-0.21,3.74,0.1,7.58,0.4,11.27l0.05,0.76c0.53,6.62,2,12.59,4.38,17.72
		c1.31,2.82,3.2,5.2,5.05,7.49c1.431,1.81,2.91,3.67,4.07,5.69c1.84,3.25,4.3,6.47,6.66,9.59c2.97,3.94,6.029,7.99,7.97,12.15h-0.03
		l0.4,1.28c0.02,0.06,0.17,0.47,0.52,1.02c-5.92,1.18-17.67,5.5-17.67,21.11c0,5.89,2.42,10.32,7.2,13.11
		c0.72,0.44,1.5,0.81,2.32,1.15c0.27,0.12,0.54,0.23,0.819,0.33c0.32,0.12,0.641,0.23,0.96,0.33c2.29,0.73,4.801,1.15,7.37,1.32
		c8.141,0.55,17.061-1.35,22.28-4.01c1.83,2.32,9.71,9.5,33.44,1.75c2.81,1.63,22.97,12.21,48.279,0.08
		c2.311,1.8,13.66,9.13,36.44,0.02c1.54,1.53,7.59,5.29,29.71,5.29c6.65,0,12.17-1.09,16.75-2.85c0.43-0.16,0.85-0.33,1.26-0.51
		c12.75-5.46,17.45-16.24,17.45-22.02c0-11.52-13.97-16.19-20.92-17.8c1.96-4.03,4.89-7.94,7.76-11.75
		c2.38-3.12,4.82-6.34,6.67-9.59c1.15-2.02,2.65-3.88,4.08-5.69c1.83-2.29,3.75-4.67,5.04-7.49c2.37-5.13,3.86-11.1,4.37-17.72
		l0.06-0.76c0.311-3.69,0.61-7.53,0.4-11.27c-0.11-1.92-0.46-3.8-0.8-5.64c-0.49-2.63-0.96-5.13-0.74-7.71
		C282.443,173.56,287.083,167.45,291.963,166.94z M105.543,243.75c0.2-4.13,2.12-7.26,4.25-10.16c2.48,5.13,5.7,9.86,9.5,14.03
		C115.833,245.81,109.333,244.44,105.543,243.75z M121.683,257.92v-0.1c0-1.51-0.6-2.96-1.689-4.19c0.96-0.6,1.84-1.72,1.689-3.59
		c3.301,3.2,7,6.01,10.961,8.34C129.293,258,125.503,257.76,121.683,257.92z M202.083,258.67c-3.79-0.52-8.64-0.35-14.06,1.82
		c-0.17-0.03-0.391-0.09-0.65-0.13c5.42-2.69,10.36-6.21,14.66-10.39c-0.17,1.91,0.74,3.06,1.689,3.66
		c-1.09,1.23-1.689,2.68-1.689,4.19C202.033,258.12,202.053,258.39,202.083,258.67z M204.283,247.68c3.86-4.19,7.1-8.96,9.59-14.15
		c2.15,2.93,4.09,6.06,4.29,10.22C214.333,244.45,207.713,245.84,204.283,247.68z"/>
	<g>
		<g>
			<path fill="#E9CCAC" d="M199.583,99.1c-1.09,1.54-2.11,3.49-2,4.28c0.19,0.32,0.79,1.32,1.67,1.4c1.641-2.03,3.16-3.4,4.101-4.17
				C202.873,100.19,201.283,98.91,199.583,99.1z"/>
			<path fill="#E9CCAC" d="M154.333,126.64c2.62,5.46,5.44,5.49,5.561,5.49c1.899-0.37,2.909-0.95,2.71-6.31
				C158.203,123.89,155.113,126.02,154.333,126.64z"/>
			<path fill="#E9CCAC" d="M156.533,81.33c0.07,5.88,0.07,10.7,0.07,11.31c2.64,2.56,4.619,8.69,6.02,18.68
				c0.85,6.01,1.38,10.37,1.56,13.57c2.591-3.97,8.23-11.72,14.271-14.4c0.09-0.33,0.32-0.89,0.61-1.6l-0.61,0.01l-0.26-23.76
				l-0.16-13.26l-0.12-10.73c0-0.35-0.16-3.37-4.1-3.37c-3.29,0-4.71,2.22-5.19,3.25v10.71v13.22V95.6h-1.63v-14V68.35v-7.2
				l-0.16-0.06c0.04-0.11,0.11-0.26,0.16-0.38v-0.08c-0.021-0.08-0.25-7.78-5.18-7.78c-4.67,0-5.78,4.44-5.94,5.21
				c0.23,1.45,0.37,5.32,0.49,9.98C156.453,72.23,156.503,77.06,156.533,81.33z M176.533,95.86h-6.17v-1.63h6.17V95.86z
				 M177.293,71.89l-0.76,1.47c-4.43-2.24-6.47-0.56-6.54-0.48v-0.01l-1.19-1.13C168.833,71.71,171.543,69.03,177.293,71.89z
				 M177.354,85.15l-0.5,1.56c-3.21-1.01-7.19-0.17-7.23-0.16l-0.35-1.59C169.453,84.91,173.703,84,177.354,85.15z M164.993,82.98
				c-1.85-1.18-5.8-0.47-7.18-0.09l-0.431-1.57c0.221-0.07,5.66-1.53,8.5,0.28L164.993,82.98z M166.123,68.35l-1.01,1.28
				c-4.08-3.31-6.99-0.54-7.12-0.43l-1.16-1.17C156.873,68,160.883,64.11,166.123,68.35z"/>
			<path fill="#E9CCAC" d="M203.443,96.13c-0.94-1.27-2.75-1.9-5.41-1.9c-12.34,0-18.09,16.94-18.15,17.11l-0.109,0.36l-0.36,0.13
				c-7.19,2.93-14.25,14.5-15.18,16.07c-0.11,3.63-1.12,4.97-3.17,5.6c0.399,0.77,1.189,1.92,2.67,2.51l-0.59,1.52
				c-2.311-0.92-3.37-2.85-3.761-3.8c-0.85-0.14-2.39-0.66-4.069-2.57c-0.54,1.95-1.73,5.08-3.82,5.83c-1.71,0.63-3.5,0.5-4.95-0.18
				c0.62,2.36,1.87,5.39,2.5,6.81l0.96-0.95l1.141,1.15l-2.391,2.4v6.19c2.83-0.64,5.71-1.09,8.68-1.31
				c1.44-0.12,2.9-0.18,4.381-0.18c6.06,0,11.89,0.93,17.39,2.67v-10.26v-0.05v-0.06c0.71-5.5,10.5-15.93,12.04-17.56
				c0.04-0.43,0.06-0.86,0.12-1.28c0.76-8.16,3.83-14.18,6.819-18.22c-1.38-0.61-2.13-2.13-2.149-2.22l-0.04-0.07l-0.03-0.08
				c-0.41-1.91,2.04-5.29,2.53-5.95l0.189-0.25l0.29-0.06c2.271-0.49,4.341,0.91,5.221,1.64
				C204.253,98.31,204.193,97.1,203.443,96.13z"/>
			<path fill="#E9CCAC" d="M153.453,124.49c0.02,0.03,0.08,0.04,0.13,0.06l-0.06,0.15c0.02,0.13,0.1,0.27,0.159,0.41
				c1.29-0.91,4.521-2.64,8.801-1.1c-0.2-2.92-0.69-6.93-1.48-12.47c-1.79-12.78-4.29-16.93-6.06-18.17
				c-0.94-0.66-1.75-0.6-2.46-0.45c-3.351,0.72-3.931,3.4-1.54,20.78C151.583,118.39,152.453,121.89,153.453,124.49z"/>
			<path fill="#E9CCAC" d="M151.523,123.9c-0.88-2.59-1.63-5.85-2.21-9.98c-1.17-8.56-1.73-13.95-1.36-17.33
				c-4.59-2.96-7.62,0.6-8.16,1.32c-1.52,8.17,1.19,20.69,3.46,28.64C144.563,125.52,147.873,123.31,151.523,123.9z"/>
			<path fill="#E9CCAC" d="M150.953,135.46c1.5-0.54,2.69-3.92,3.08-6c-0.64-0.99-1.24-2.2-1.851-3.7c-0.64-0.21-1.27-0.3-1.88-0.3
				c-3.449,0-6.5,2.77-6.52,2.81l-0.04-0.03c0.95,3.16,1.74,5.33,1.979,5.74C146.703,135.58,148.873,136.19,150.953,135.46z"/>
		</g>
		<g>
			<path fill="#FFFFFF" d="M198.773,241.87l0.479,8.26c5.62-5.07,10.21-11.25,13.41-18.23c-1.45-1.91-2.79-3.79-3.54-5.8
				L198.773,241.87z"/>
			<polygon fill="#FFFFFF" points="197.413,206.86 183.873,207.99 171.433,227.04 177.803,239.33 197.083,240.53 207.563,224.56 			
				"/>
			<polygon fill="#FFFFFF" points="183.683,205.86 197.233,204.74 197.483,204.72 202.063,188.41 193.793,175.99 174.163,176.47 
				171.394,188.17 			"/>
			<path fill="#FFFFFF" d="M212.983,187.54c0,0,0.05-0.5,0.13-1.15c-2.66-6.08-6.33-11.61-10.84-16.34
				c-1.71-1.61-3.051-2.72-3.44-3.05l-0.54-0.44l-0.05-0.33c-0.87-0.76-1.78-1.52-2.71-2.22l-0.34,10.24l8.739,13.12l9.12,3.18
				c-0.09-0.6-0.12-1.19-0.12-1.72C212.933,188.35,212.953,187.92,212.983,187.54z"/>
			<polygon fill="#FFFFFF" points="145.663,220.46 136.604,228.24 142.113,242.69 142.123,242.64 161.913,251.91 175.743,239.98 
				169.533,228 			"/>
			<polygon fill="#FFFFFF" points="142.123,172.79 138.773,188.14 146.663,195.59 146.863,195.78 169.523,186.89 172.104,175.98 
				172.123,175.85 156.973,165.02 			"/>
			<path fill="#FFFFFF" d="M155.983,163.13l1.68-0.87l8.67-9.36c-1.52-0.12-3-0.2-4.52-0.2c-1.431,0-2.851,0.05-4.261,0.16
				c-9.84,0.75-19,4.05-26.77,9.24l9.99,8.98L155.983,163.13z"/>
			<path fill="#FFFFFF" d="M162.223,254.4l-1.22-0.57l-19.04-8.89l-13.43,8.6c2.92,2.16,6.05,4.04,9.34,5.61
				c3.9,0.69,6.62,1.43,7.271,1.61c2.489-0.34,4.859-0.63,7.109-0.86c5.561-0.59,10.45-0.88,14.66-0.97l-4.66-4.59L162.223,254.4z"
				/>
			<polygon fill="#FFFFFF" points="144.693,218.48 145.203,197.14 137.803,190.16 122.203,198.08 121.483,219.39 135.144,226.68 			
				"/>
			<path fill="#FFFFFF" d="M110.443,186.64c0.18,1.15,0.359,3.15-0.221,5.29c-0.27,1.03-0.93,2.25-1.699,3.66
				c-0.61,1.14-1.29,2.36-1.83,3.65c-0.36,2.25-0.61,4.58-0.721,6.94c6.08,3.31,8.65,11.06,9.171,15.05
				c0.079,0.56,0.13,1.05,0.13,1.44c0,0.93-0.15,1.81-0.4,2.66l4.48-5.31l0.729-21.97l-9.04-12.87
				C110.833,185.66,110.623,186.15,110.443,186.64z"/>
		</g>
	</g>
	<g>
		<g>
			<path fill="#FFFFFF" d="M216.523,266.48c-0.88,0.16-1.78,0.25-2.811,0.25c-5.93,0-6.91-2.67-7.069-3.81c0-0.04,0-0.09,0-0.13
				c-0.78-0.05-2.16-0.31-3.211-1.31c-0.31-0.3-0.56-0.64-0.77-1.02c-3.75-0.66-8.72-0.66-14.3,1.65v0.01
				c-13.431,5.33-13.01,27.19-12.891,30.2c1.71,1.33,12.73,8.73,34.921-0.14C210.253,289.05,210.043,274.8,216.523,266.48z"/>
			<path fill="#FFFFFF" d="M121.433,259.58c-0.239,0.74-0.619,1.38-1.149,1.9c-1.061,1-2.41,1.26-3.24,1.31c0,0.04,0,0.09,0,0.13
				c-0.16,1.14-1.1,3.81-7.07,3.81c-1.909,0-3.5-0.31-4.859-0.76c-6.09,1.73-8.91,7.55-10.2,13.11c-1.23,5.34-1.06,10.43-1,11.47
				c0.81,1.19,7.71,9.47,32.14,1.42c-0.1-1.87-0.199-6.52,1.07-11.75c1.57-6.49,5.25-13.86,13.61-17.9
				c-1.32-0.53-2.63-1.07-3.9-1.69C132.543,259.92,127.043,259.31,121.433,259.58z"/>
		</g>
		<g>
			<path fill="#2F368F" d="M254.703,257.38l-0.04,0.12c-0.05,0.21-1.67,5.05-9.98,5.05c-4.21,0-5.47-1.23-6.569-2.3
				c-1.01-0.97-1.95-1.89-5.7-1.89c-3.5,0-5.37,1.66-7.54,3.59c-1.479,1.32-3.08,2.73-5.34,3.68c-7.351,6.84-7.62,21.67-7.53,25.89
				l-0.01,0.56l0.32,0.6c1.38,1.17,7.29,4.69,28.39,4.69c27.83,0,33.84-19.03,33.84-23.75
				C274.543,263.3,261.193,258.92,254.703,257.38z"/>
			<path fill="#2F368F" d="M152.433,261.53c-2.3,0.25-4.71,0.54-7.229,0.89l-0.18,0.02l-0.07-0.02
				c-10.43,3.26-14.68,11.22-16.35,18.15c-1.44,6-0.94,11.23-0.86,11.99c4.29,2.27,22.95,10.76,46.09-0.34
				c-0.15-3.69-0.45-23.55,11.7-30.55C181.123,260.91,170.233,259.67,152.433,261.53z"/>
			<path fill="#2F368F" d="M91.303,258.36c-3.77,0-4.699,0.92-5.72,1.89c-1.09,1.07-2.37,2.3-6.55,2.3c-4.33,0-6.851-1.32-8.26-2.63
				c-5.091,0.78-17.24,4.24-17.24,19.71c0,5.27,2.149,9.22,6.36,11.71c2.979,1.76,6.77,2.66,10.77,2.94
				c7.87,0.55,16.58-1.35,21.59-3.96c-0.05-1.59-0.109-6.45,1.101-11.59c1.27-5.48,3.949-11.27,9.56-13.71
				c-1.61-0.9-2.88-2.01-4.08-3.07C96.663,260.02,94.793,258.36,91.303,258.36z"/>
		</g>
	</g>
	<g>
		<g>
			<path fill="#BF7537" d="M287.763,166.75c-2.01-0.23-4.35-0.74-6.109-1.84c-1.25-0.77-2.95-1.45-4.91-1.76
				c-1.46,0.65-3.49,4.48-4.48,6.94c0.101,1.29,0.19,2.81,0.271,4.53c1.87-1.52,4.66-2.89,5.37-3.22l0.689,1.47
				c-2.1,1-5.149,2.82-5.96,3.97c0.07,2.17,0.11,4.58,0.09,7.18c2.25-1.57,5.181-2.28,5.351-2.32l0.38,1.6
				c-0.04,0.01-3.87,0.92-5.75,2.85c-0.04,2.02-0.12,4.14-0.25,6.33c2.2-1.38,5.29-2.35,6.12-2.58l0.46,1.57
				c-2.11,0.61-5.42,1.91-6.7,3.13c-0.16,2.06-0.38,4.17-0.62,6.3c3.84-2.15,9.08-1.77,9.32-1.76l-0.12,1.65
				c-0.08-0.01-6.15-0.45-9.46,2.28c-0.32,2.26-0.67,4.55-1.13,6.82c3.5-2.47,8.399-3.07,8.64-3.1l0.2,1.62
				c-0.08,0.01-6.63,0.83-9.46,4.22c-0.36,1.61-0.75,3.22-1.21,4.8c3.63-2.15,8.43-2.2,8.67-2.2v1.64c-0.07,0-6.5,0.05-9.5,3.29
				l-0.03-0.01c-0.55,1.76-1.18,3.49-1.89,5.18c2.88-0.79,6.2-0.29,6.38-0.27l-0.29,1.63c-0.04-0.01-4.55-0.69-7.05,0.79
				c-1.07,2.38-2.25,4.52-3.48,6.48l3.98-0.69l0.29,1.59l-5.49,0.96c-1.22,1.82-2.49,3.43-3.75,4.87l4.76,0.19l-0.06,1.64
				l-6.12-0.24c-5.08,5.31-9.75,7.82-11.42,8.62c0.28,1.2,0.99,3.02,2.61,4.28c1.689,1.33,4.06,1.78,7.02,1.35
				c1.96-4.68,5.33-9.14,8.58-13.45c0-0.01,0.01-0.03,0.02-0.04c2.351-3.06,4.73-6.23,6.521-9.38c1.22-2.13,2.75-4.03,4.229-5.89
				c1.86-2.32,3.61-4.52,4.82-7.15c2.32-4.97,3.72-10.75,4.24-17.16l0.05-0.77c0.11-1.16,0.2-2.32,0.28-3.5
				c0.17-2.52,0.27-5.07,0.13-7.55c-0.11-1.82-0.44-3.65-0.78-5.42c-0.2-1.07-0.41-2.16-0.569-3.27c0-0.03-0.011-0.06-0.011-0.09
				c-0.21-1.57-0.33-3.16-0.21-4.79C280.753,174.06,283.793,169.16,287.763,166.75z"/>
			<path fill="#BF7537" d="M251.293,148.99c-2.25,5.22-4.729,11.04-5.36,22.24c7.771-28.88,22.94-28.33,23.65-28.29l-0.12,1.63
				c-0.21-0.01-17.05-0.42-23.66,34.56c0.11,2.9,0.391,5.43,0.801,7.7c8.729-37.11,28.93-35.52,29.81-35.44l-0.16,1.64
				c-0.24-0.02-20.859-1.49-28.8,37.59c0.51,1.95,1.15,3.7,1.79,5.37c1.84-2.53,3.5-6.78,5.25-11.27
				c2.189-5.58,4.66-11.91,8.09-16.61c6.67-9.19,15.66-7.21,19.91-4.59c1.21,0.74,2.8,1.18,4.31,1.44
				c0.4-3.63,1.36-19.15-9.47-24.57c-5.83-2.91-11.37-3.49-16-1.69c-4.08,1.6-7.47,5.05-9.939,10.03
				C251.354,148.81,251.313,148.9,251.293,148.99z"/>
			<path fill="#BF7537" d="M274.403,163.01c-3.41,0.09-7.24,1.59-10.5,6.06c-3.29,4.54-5.74,10.76-7.87,16.25
				c-2.07,5.27-3.87,9.81-6.08,12.4c0.3,0.72,0.6,1.45,0.91,2.17c2.41,5.57,4.68,10.84,4.68,19.99c0,14.25-6.88,24.07-10.46,28.25
				c3.311-2.03,8.91-6.22,13.95-13.66l-0.03-0.12l0.12-0.02c1.79-2.68,3.5-5.76,5-9.31c4.04-9.53,5.84-20.53,6.57-30.48l-0.271-0.13
				c0.07-0.17,0.2-0.33,0.3-0.47c0.2-2.93,0.311-5.73,0.351-8.38l-0.03-0.02l0.03-0.02c0.05-3.33,0-6.39-0.101-9.06l-0.02-0.02
				c0-0.01,0.02-0.03,0.02-0.03c-0.1-2.49-0.229-4.68-0.35-6.41l-0.04-0.19l0.08-0.16C271.013,168.74,272.533,165.12,274.403,163.01
				z"/>
			<path fill="#BF7537" d="M245.083,256.45c-3.17-2.48-3.45-6.5-3.45-6.67l-0.02-0.39l0.28-0.27c0.14-0.1,12.02-11.15,12.02-29.24
				c0-8.81-2.21-13.93-4.54-19.35c-2.41-5.58-4.89-11.35-5.21-21.45c0-0.03,0-0.06,0-0.07c-0.02-0.68-0.03-1.37-0.03-2.08
				c0-13.15,2.2-20.18,4.48-25.81l-0.05-0.02c0.409-1.08,0.869-2.09,1.35-3.06c1.03-2.41,1.98-4.7,2.62-7.28
				c1.76-7.26,0.67-19.71,0.18-24.22l-9.42,9.68l-0.59-0.59c-0.65-0.64-5.41-5.53-6.49-9.43c-0.91,1.2-1.88,2.8-1.88,4.12v7.45
				l-0.42,0.22c-0.12,0.09-12,6.86-17.48,15.38c0.761,0.85,1.211,1.94,1.211,3.15c0,0.88-0.25,1.67-0.641,2.37
				c2.22,1.62,5.95,3.34,11.55,2.82l-0.02-0.1c0.97-0.33,3.77-3.62,5.46-5.85l1.3,0.99c-0.479,0.62-2.18,2.85-3.83,4.52
				c3.07-0.63,6.58-1.89,10.59-4.06l0.78,1.43c-4.34,2.35-8.13,3.66-11.45,4.27l0.11,0.05c-0.64,1.71-6.58,16.72-9.45,19.03
				c-2.67,2.12-4.979,1.07-5.84,0.21l-0.16-0.16l-0.05-0.22c-0.03-0.11-2.88-11.58-9.83-12.15c1.96,1.16,3.04,2.89,3.11,3.01
				l-1.4,0.84c-0.02-0.02-0.52-0.82-1.43-1.63s-2.23-1.61-3.86-1.61v-0.13c-0.46,0.19-0.87,0.45-1.2,0.73
				c3.78,1.46,5.65,5.13,5.73,5.3l-1.47,0.73c-0.011-0.03-0.461-0.91-1.351-1.92c-0.91-1.02-2.229-2.16-3.96-2.7
				c-0.56,1.32-0.45,2.76-0.37,3.32c1.91,1.55,13.561,11.37,15.07,19.89c0.32,0.41,1.51,1.9,3.26,3.03v-4.02h1.62v4.87
				c0.78,0.32,1.63,0.52,2.52,0.51c0.181-0.01,0.37-0.05,0.57-0.08v-5.48h1.62v5.06c1.79-0.74,3.521-2.34,5.13-4.82l1.37,0.91
				c-2.59,3.96-5.51,5.99-8.67,6.03c-3.42,0.06-6.17-2.23-7.66-3.79c-0.1,1.01-0.1,2.37,0.271,3.78c0.229,0.84,0.85,1.99,1.569,3.32
				c1.641,3.03,3.601,6.75,3.061,10.48c1.3-0.45,2.739-0.74,4.34-0.74c8.57,0,14.63,2.57,17.95,7.64
				c7.12,10.77-0.4,28.72-0.75,29.48l-1.49-0.63c0.09-0.19,7.49-17.91,0.88-27.94c-3.04-4.58-8.6-6.91-16.59-6.91
				c-10.47,0-13.97,12.98-13.97,16.47c0,3.06,1.909,5.6,4.14,8.55c2.63,3.52,5.63,7.5,5.63,13.21v0.69l-0.67,0.11
				c-8,1.41-15.25,3.68-15.5,4.87c-0.18,1.57,0.82,2.16,1.31,2.36c2.65-1.95,6.561-2.67,10.32-1.86l-0.35,1.6
				c-3.41-0.74-6.95-0.07-9.221,1.76c-1.329,1.07-2.06,2.44-2.06,3.86c0,1.07,0.29,1.9,0.88,2.45c0.74,0.7,1.76,0.86,2.32,0.91
				c0.85-2.79,4.42-5.55,8.89-6.67l0.41,1.59c-4.97,1.25-8.13,4.47-7.87,6.62c0.18,1.48,2.19,2.36,5.42,2.36
				c5.16,0,7.66-2.21,10.08-4.35c2.21-1.97,4.5-4.01,8.62-4.01c4.42,0,5.7,1.25,6.86,2.35c1,0.99,1.87,1.84,5.409,1.84
				c4.44,0,6.61-1.49,7.62-2.63C249.333,258.52,246.943,257.92,245.083,256.45z M239.394,140.81c-1.9,0-3.45-0.9-3.45-2.02
				c0-1.11,1.55-2.01,3.45-2.01c1.909,0,3.439,0.9,3.439,2.01C242.833,139.91,241.303,140.81,239.394,140.81z M238.833,228.51v0.01
				c-0.03-0.03-3.22-1.78-5.96-1.53c0.41,1.75,0.69,3.48,0.93,5.01c2.5-0.42,5.091,0.72,5.221,0.78l-0.67,1.48
				c-0.04-0.01-2.32-0.99-4.32-0.63c0.28,2.23,0.38,3.79,0.38,4.01l-1.62,0.09c-0.3-4.79-2.06-17.9-6.42-20.75
				c-0.93-0.61-1.91-0.71-3-0.3c-3.01,1.1-1.65,6.89-0.21,13.01c0.96,4.05,1.97,8.24,1.83,11.66l-1.62-0.07
				c0.11-3.19-0.85-7.27-1.79-11.2c-1.63-6.87-3.17-13.34,1.23-14.95c1.35-0.48,2.63-0.41,3.85,0.16c1.87-0.45,4.45-0.09,4.78-0.05
				l-0.25,1.63c-0.511-0.09-1.61-0.19-2.66-0.17c0.59,0.66,1.13,1.47,1.63,2.37c2-0.48,4.37-0.3,4.5-0.28l-0.13,1.64
				c-0.03,0-2-0.16-3.65,0.15c0.24,0.58,0.49,1.19,0.7,1.8c2.58-0.72,5.771-0.06,5.91-0.02l-0.35,1.59
				c-0.021-0.01-2.9-0.59-5.061-0.01c0.14,0.48,0.29,0.96,0.41,1.46c3.32-0.42,6.96,1.58,7.13,1.68L238.833,228.51z"/>
		</g>
		<g>
			<path fill="#BF7537" d="M108.663,185.5c1.54-8.52,13.17-18.34,15.06-19.89c0.11-0.56,0.23-2-0.35-3.32
				c-3.46,1.08-5.29,4.59-5.33,4.62l-1.46-0.73c0.1-0.17,1.98-3.84,5.73-5.3c-0.341-0.28-0.73-0.54-1.19-0.73v0.13
				c-3.29,0-5.26,3.21-5.27,3.24l-1.41-0.84c0.05-0.12,1.16-1.85,3.12-3.01c-6.95,0.57-9.82,12.04-9.841,12.15l-0.06,0.22
				l-0.17,0.16c-0.87,0.86-3.16,1.91-5.83-0.21c-2.88-2.31-8.79-17.32-9.46-19.03l0.13-0.05c-3.34-0.61-7.13-1.92-11.46-4.27
				l0.79-1.43c4,2.17,7.5,3.43,10.56,4.06c-1.64-1.67-3.35-3.9-3.79-4.52l1.28-0.99c1.7,2.23,4.49,5.52,5.48,5.85l-0.03,0.1
				c1.62,0.15,3.07,0.11,4.38-0.06c3.25-0.41,5.58-1.61,7.16-2.76c-0.41-0.7-0.65-1.49-0.65-2.37c0-1.21,0.48-2.31,1.24-3.16
				c-5.479-8.51-17.38-15.28-17.5-15.37l-0.42-0.22v-0.48v-6.97c0-1.32-0.979-2.92-1.88-4.12c-1.08,3.9-5.83,8.79-6.5,9.43
				l-0.58,0.59l-0.58-0.61l-8.84-9.07c-0.49,4.51-1.561,16.96,0.189,24.22c0.61,2.58,1.601,4.87,2.61,7.28
				c0.49,0.97,0.94,1.98,1.351,3.06l-0.061,0.02c2.29,5.63,4.48,12.66,4.48,25.81c0,0.71,0,1.4-0.03,2.08
				c0,0.01,0.01,0.04,0.03,0.07h-0.03c-0.311,10.1-2.8,15.87-5.18,21.45c-2.33,5.42-4.551,10.54-4.551,19.35
				c0,18.09,11.9,29.14,12.011,29.24l0.27,0.27v0.39c-0.03,0.17-0.29,4.19-3.46,6.67c-1.84,1.47-4.26,2.07-7.21,1.83
				c1.02,1.14,3.17,2.63,7.62,2.63c3.53,0,4.41-0.85,5.43-1.84c1.12-1.1,2.431-2.35,6.84-2.35c4.091,0,6.4,2.04,8.641,4.01
				c2.39,2.14,4.89,4.35,10.029,4.35c3.23,0,5.271-0.88,5.46-2.36c0.261-2.15-2.93-5.37-7.88-6.62l0.4-1.59
				c4.46,1.12,8.02,3.88,8.92,6.67c0.54-0.05,1.56-0.21,2.271-0.91c0.609-0.55,0.899-1.38,0.899-2.45c0-1.42-0.729-2.79-2.06-3.86
				c-2.271-1.83-5.79-2.5-9.21-1.76l-0.341-1.6c3.75-0.81,7.631-0.09,10.28,1.86c0.51-0.2,1.5-0.79,1.34-2.36
				c-0.26-1.19-7.52-3.46-15.51-4.87l-0.68-0.11v-0.69c0-5.71,3.01-9.69,5.64-13.21c2.21-2.95,4.13-5.49,4.13-8.55
				c0-0.33-0.02-0.74-0.09-1.21c-0.63-4.6-4.38-15.26-13.88-15.26c-7.96,0-13.55,2.33-16.56,6.91
				c-6.65,10.03,0.779,27.75,0.869,27.94l-1.52,0.63c-0.32-0.76-7.83-18.71-0.73-29.48c3.36-5.07,9.391-7.64,17.94-7.64
				c1.62,0,3.05,0.29,4.37,0.74c-0.57-3.73,1.42-7.45,3.05-10.48c0.71-1.33,1.35-2.48,1.55-3.32c0.4-1.41,0.391-2.77,0.311-3.78
				c-1.5,1.56-4.25,3.85-7.66,3.79c-3.17-0.04-6.09-2.07-8.72-6.03l1.38-0.91c1.62,2.48,3.35,4.08,5.14,4.82v-5.06h1.64v5.48
				c0.19,0.03,0.36,0.07,0.561,0.08c0.88,0.01,1.72-0.19,2.51-0.51v-4.87h1.66v4.02C107.144,187.4,108.373,185.91,108.663,185.5z
				 M84.313,136.78c1.899,0,3.439,0.9,3.439,2.01c0,1.12-1.54,2.02-3.439,2.02c-1.9,0-3.44-0.9-3.44-2.02
				C80.873,137.68,82.413,136.78,84.313,136.78z M91.223,225.4c0.131-0.5,0.261-0.98,0.4-1.46c-2.17-0.58-5.02,0-5.06,0.01
				l-0.351-1.59c0.16-0.04,3.34-0.7,5.91,0.02c0.21-0.61,0.44-1.22,0.71-1.8c-1.67-0.31-3.63-0.15-3.64-0.15l-0.15-1.64
				c0.12-0.02,2.51-0.2,4.51,0.28c0.48-0.9,1.03-1.71,1.641-2.37c-1.07-0.02-2.16,0.08-2.69,0.17l-0.25-1.63
				c0.351-0.04,2.94-0.4,4.811,0.05c1.189-0.57,2.47-0.64,3.85-0.16c4.39,1.61,2.86,8.08,1.21,14.95c-0.93,3.93-1.9,8.01-1.77,11.2
				l-1.641,0.07c-0.13-3.42,0.851-7.61,1.83-11.66c1.44-6.12,2.83-11.91-0.21-13.01c-1.1-0.41-2.08-0.31-3,0.3
				c-4.36,2.85-6.11,15.96-6.4,20.75l-1.649-0.09c0-0.22,0.11-1.78,0.399-4.01c-2.02-0.36-4.289,0.62-4.31,0.63l-0.69-1.48
				c0.12-0.06,2.73-1.2,5.211-0.78c0.229-1.53,0.55-3.26,0.92-5.01c-2.73-0.25-5.881,1.5-5.94,1.53v-0.01l-0.81-1.43
				C84.253,226.98,87.873,224.98,91.223,225.4z"/>
			<path fill="#BF7537" d="M78.623,248.13c-3.59-4.18-10.44-14-10.44-28.25c0-9.15,2.25-14.42,4.65-19.99
				c0.3-0.72,0.62-1.45,0.94-2.17c-2.24-2.59-4.051-7.13-6.08-12.4c-2.16-5.49-4.61-11.71-7.891-16.25
				c-3.22-4.47-7.08-5.97-10.51-6.06c1.87,2.11,3.39,5.73,3.75,6.64l0.07,0.16V170c-0.15,1.73-0.28,3.92-0.38,6.41
				c0,0,0,0.02,0.02,0.03l-0.03,0.02c-0.09,2.67-0.14,5.73-0.09,9.06c0.011,0,0.011,0.02,0.011,0.02l-0.011,0.02
				c0.05,2.65,0.141,5.45,0.33,8.38c0.15,0.14,0.25,0.3,0.33,0.47l-0.26,0.13c0.71,9.95,2.53,20.95,6.55,30.48
				c1.5,3.55,3.21,6.63,5,9.31l0.12,0.02l-0.021,0.12C69.703,241.91,75.293,246.1,78.623,248.13z"/>
			<path fill="#BF7537" d="M77.604,255.18c1.619-1.26,2.329-3.08,2.63-4.28c-1.69-0.8-6.36-3.31-11.431-8.62l-6.1,0.24l-0.03-0.69
				l-0.05-0.95l4.76-0.19c-1.27-1.44-2.52-3.05-3.77-4.87l-5.49-0.96l0.32-1.59l3.95,0.69c-1.211-1.96-2.4-4.1-3.48-6.48
				c-2.48-1.48-7-0.8-7.05-0.79l-0.24-1.63c0.16-0.02,3.48-0.52,6.34,0.27c-0.72-1.69-1.33-3.41-1.91-5.17h-0.01
				c-1.5-1.62-3.85-2.44-5.84-2.86c-2-0.42-3.62-0.43-3.65-0.43v-1.64c0.24,0,5.051,0.05,8.65,2.2c-0.46-1.58-0.84-3.19-1.22-4.8
				c-1.4-1.69-3.74-2.75-5.75-3.38c-2-0.63-3.65-0.83-3.69-0.84l0.18-1.62c0.25,0.03,5.15,0.63,8.65,3.1
				c-0.43-2.27-0.79-4.56-1.1-6.82c-3.311-2.73-9.4-2.29-9.48-2.28l-0.13-1.65c0.25-0.01,5.48-0.39,9.33,1.76
				c-0.26-2.13-0.46-4.24-0.61-6.3c-1.3-1.22-4.609-2.52-6.689-3.13l0.43-1.57c0.83,0.23,3.96,1.2,6.12,2.58
				c-0.12-2.19-0.2-4.31-0.24-6.33c-1.88-1.93-5.7-2.84-5.72-2.85l0.36-1.6c0.149,0.04,3.069,0.75,5.329,2.32
				c0-2.6,0.03-5.01,0.091-7.18c-0.78-1.15-3.851-2.97-5.96-3.97l0.689-1.47c0.74,0.33,3.521,1.7,5.4,3.22
				c0.05-1.72,0.17-3.24,0.26-4.53c-1-2.46-3.021-6.29-4.5-6.94c-1.93,0.31-3.66,0.99-4.89,1.76c-1.771,1.1-4.11,1.61-6.11,1.84
				c3.96,2.41,7,7.31,7.32,11.32c0.12,1.64,0.02,3.26-0.21,4.84c0,0.02-0.011,0.05-0.011,0.07c-0.149,1.1-0.35,2.17-0.56,3.24
				c-0.311,1.77-0.66,3.6-0.78,5.42c-0.13,2.48-0.02,5.02,0.15,7.55c0.069,1.17,0.16,2.34,0.25,3.5l0.069,0.77
				c0.521,6.41,1.931,12.19,4.23,17.16c1.04,2.3,2.54,4.27,4.12,6.28c0.24,0.29,0.46,0.58,0.689,0.87
				c1.48,1.86,3.021,3.76,4.23,5.89c1.57,2.76,3.59,5.54,5.65,8.25c0.29,0.38,0.59,0.77,0.88,1.15c0,0.01,0,0.01,0.01,0.02
				c3.28,4.31,6.64,8.77,8.61,13.45C73.533,256.96,75.913,256.51,77.604,255.18z"/>
			<path fill="#BF7537" d="M41.203,163.52c4.26-2.62,13.25-4.6,19.92,4.59c3.43,4.7,5.91,11.03,8.08,16.61
				c1.77,4.49,3.43,8.74,5.26,11.27c0.66-1.67,1.26-3.42,1.79-5.37c-7.96-39.08-28.55-37.61-28.8-37.59l-0.16-1.64
				c0.87-0.08,21.07-1.67,29.811,35.44c0.43-2.27,0.689-4.8,0.779-7.7c-6.59-34.98-23.43-34.57-23.64-34.56l-0.11-1.63
				c0.7-0.04,15.9-0.59,23.641,28.29c-0.65-11.2-3.11-17.02-5.341-22.24c-0.06-0.09-0.079-0.18-0.119-0.26
				c-2.48-4.98-5.87-8.43-9.94-10.03c-4.64-1.8-10.17-1.22-16,1.69c-10.84,5.42-9.87,20.94-9.479,24.57
				C38.413,164.7,40.023,164.26,41.203,163.52z"/>
		</g>
	</g>
	<g>
		<g>
			<g>
				<path fill="#FFFFFF" d="M282.903,41.1c-0.58-0.57-1.141-1.19-1.7-1.89l0.45-1.18c2.89,0.12,16.149,0.94,20.92,6.05
					c1.09,1.17,1.6,2.47,1.6,3.94c-0.67,0.41-2.43,1.37-5.26,1.96l1.12-4.07v-0.12c0-0.17-0.04-1.66-1.66-3.06
					C295.693,40.46,290.473,39.91,282.903,41.1z"/>
				<path fill="#FFFFFF" d="M294.303,50.42c-3.77,0-9.13-1.62-15.72-4.14l1.96-5.32c6.37,7.41,14.29,6.69,17.51,5.99l-0.93,3.3
					C296.253,50.35,295.343,50.42,294.303,50.42z"/>
				<path fill="#FFFFFF" d="M297.243,43.93c0.56,0.46,0.85,0.95,1.01,1.31c-2.01,0.55-8.09,1.66-13.75-2.74
					C292.253,41.48,295.703,42.67,297.243,43.93z"/>
				<path fill="#FFFFFF" d="M43.273,40.96l1.97,5.32c-6.6,2.52-11.95,4.14-15.74,4.14c-1.01,0-1.92-0.07-2.8-0.17l-0.92-3.3
					C28.983,47.65,36.933,48.37,43.273,40.96z"/>
				<path fill="#FFFFFF" d="M24.943,49.98c-2.86-0.59-4.63-1.55-5.3-1.96c0.039-1.47,0.52-2.77,1.609-3.94
					c4.75-5.11,18.03-5.93,20.94-6.05l0.43,1.18c-0.54,0.7-1.12,1.32-1.68,1.89c-7.58-1.19-12.78-0.64-15.471,1.63
					c-1.619,1.4-1.68,2.89-1.68,3.06v0.12L24.943,49.98z"/>
				<path fill="#FFFFFF" d="M25.583,45.24c0.14-0.36,0.42-0.85,1.04-1.31c1.51-1.26,4.96-2.45,12.71-1.43
					C33.644,46.9,27.583,45.79,25.583,45.24z"/>
				<path fill="#FFFFFF" d="M303.713,50.14l-7.63,28.2c-0.43,0.49-2.66,2.64-7.03,2.64c-11.6,0-25.85-5.9-42.34-12.75
					c-23.01-9.54-51.649-21.42-84.78-21.62c-33.159,0.2-61.789,12.08-84.829,21.62c-16.48,6.85-30.69,12.75-42.32,12.75
					c-4.37,0-6.59-2.15-7.04-2.64l-7.62-28.2c1.81,0.85,4.93,1.92,9.38,1.92c6.55,0,17.16-4.44,30.58-10.06
					c25.67-10.75,60.79-25.47,101.85-25.66c41.03,0.19,76.15,14.91,101.811,25.66c13.42,5.62,24.02,10.06,30.56,10.06
					C298.793,52.06,301.913,50.99,303.713,50.14z"/>
			</g>
			<g>
				<path fill="#231F20" d="M243.533,47.89c0.76-2.02,0.72-5.83-4.311-7.81c-5.31-2.11-7.579,0.71-8.279,2.55
					c-1.44,3.6,0.89,5.21,3.29,6.87l1.58,1.1c1.6,1.1,2.68,1.92,2.18,3.21c-0.69,1.73-2.62,1.41-4.26,0.77
					c-3-1.17-2.771-3.1-2.42-4.01l-3.28-1.31c-0.83,2.04-1.15,5.89,4.84,8.26c1.42,0.56,6.63,2.11,8.58-2.82
					c1.16-2.95-0.54-4.68-2.56-6.11l-3.601-2.57c-0.63-0.42-1.57-1.11-1.06-2.38c0.58-1.49,2.33-1.36,3.63-0.85
					c2.99,1.18,2.58,3.04,2.37,3.8L243.533,47.89z"/>
				<path fill="#231F20" d="M225.783,35.51l-3.73,11.01c-0.68,2.02-2.029,2.86-4.43,2.04c-1.64-0.54-2.63-2.02-1.87-4.35l3.68-10.85
					l-3.56-1.19l-3.75,11.08c-0.5,1.68-0.62,3.14-0.07,4.48c0.931,2.15,3.091,3.3,4.641,3.82c4.22,1.41,7.5,0.42,8.97-3.97
					l3.67-10.88L225.783,35.51z"/>
				<polygon fill="#231F20" points="200.043,42.28 200.023,42.28 200.223,28.02 195.023,26.73 190.793,43.84 194.133,44.67 
					197.683,30.36 197.703,30.38 197.303,45.45 200.803,46.32 207.533,32.8 207.563,32.81 204.043,47.11 207.373,47.93 
					211.623,30.82 206.443,29.54 				"/>
				<polygon fill="#231F20" points="175.123,41.6 188.373,43.43 188.803,40.33 179.123,39 179.733,34.47 188.253,35.66 
					188.693,32.56 180.183,31.38 180.683,27.71 189.953,29 190.373,25.9 177.543,24.13 				"/>
				<path fill="#231F20" d="M166.003,23.48l-7.8-0.2l-0.45,17.62l7.62,0.2c5.83,0.16,7.46-5.26,7.58-9.05
					C173.033,28.73,171.953,23.63,166.003,23.48z M165.033,38.04l-3.59-0.1l0.29-11.53l3.55,0.09c1.58,0.04,4.02,0.52,3.91,5.74
					C169.104,35.13,168.023,38.11,165.033,38.04z"/>
				<polygon fill="#231F20" points="149.743,23.92 150.963,41.51 154.644,41.26 153.413,23.67 				"/>
				<polygon fill="#231F20" points="146.663,24.07 134.213,25.81 136.693,43.27 140.313,42.76 139.293,35.41 146.973,34.34 
					146.543,31.25 138.863,32.32 138.293,28.39 147.083,27.16 				"/>
				<polygon fill="#231F20" points="126.183,27.42 129.003,39.38 128.953,39.39 119.333,29.05 115.553,29.94 119.613,47.09 
					122.953,46.3 120.053,34.07 120.113,34.06 129.993,44.64 133.583,43.8 129.533,26.64 				"/>
				<path fill="#231F20" d="M103.583,33.16c-2.21,0.73-7.72,3.59-5.15,11.46c2.561,7.86,8.711,6.9,10.94,6.18
					c2.23-0.71,7.74-3.58,5.16-11.45C111.953,31.49,105.803,32.44,103.583,33.16z M108.394,47.85c-1.891,0.61-4.931,0.31-6.44-4.38
					c-1.57-4.7,0.729-6.73,2.6-7.34c1.9-0.62,4.94-0.32,6.49,4.37C112.563,45.18,110.293,47.22,108.394,47.85z"/>
				<path fill="#231F20" d="M93.913,49.37c0.36,2.18-0.55,3.77-2.45,4.51c-2.88,1.14-5.1-1.05-6.26-4c-1.83-4.64,0.17-6.7,1.83-7.33
					c2.83-1.12,4.09,0.53,4.74,1.41l3.439-1.35c-1.16-2.36-4.46-4.95-9.38-3.04c-4.22,1.67-6.38,5.9-4.13,11.64
					c2.19,5.66,6.5,7.39,10.86,5.67c4.119-1.61,5.479-5.02,4.75-8.85L93.913,49.37z"/>
			</g>
			<path fill="#231F20" d="M17.993,48.57l8.21,30.37l0.04,0.18l0.12,0.12c0.1,0.14,2.76,3.38,8.42,3.38
				c11.939,0,26.3-5.96,42.95-12.87c22.899-9.5,51.35-21.31,84.199-21.51c32.811,0.2,61.271,12.01,84.171,21.51
				c16.64,6.91,31.01,12.87,42.949,12.87c5.65,0,8.311-3.24,8.42-3.38l0.101-0.12l8.229-30.46l0.021-0.09l0.01-0.07
				c0.12-2.08-0.57-3.93-2.05-5.55c-5.82-6.23-22.021-6.57-22.7-6.58l-0.58-0.01l-3.43,9.32c-3.87-1.5-8.11-3.27-12.7-5.18
				c-25.82-10.82-61.08-25.6-102.44-25.8c-41.39,0.2-76.68,14.98-102.479,25.8c-4.58,1.91-8.82,3.68-12.68,5.18l-3.24-8.78
				l-0.2-0.54l-0.6,0.01c-0.69,0.01-16.87,0.35-22.681,6.58c-1.47,1.62-2.18,3.47-2.06,5.55V48.57z M281.653,38.03
				c2.89,0.12,16.149,0.94,20.92,6.05c1.09,1.17,1.6,2.47,1.6,3.94c-0.67,0.41-2.43,1.37-5.26,1.96l1.12-4.07v-0.12
				c0-0.17-0.04-1.66-1.66-3.06c-2.68-2.27-7.9-2.82-15.47-1.63c-0.58-0.57-1.141-1.19-1.7-1.89L281.653,38.03z M298.253,45.24
				c-2.01,0.55-8.09,1.66-13.75-2.74c7.75-1.02,11.2,0.17,12.74,1.43C297.803,44.39,298.093,44.88,298.253,45.24z M280.543,40.96
				c6.37,7.41,14.29,6.69,17.51,5.99l-0.93,3.3c-0.87,0.1-1.78,0.17-2.82,0.17c-3.77,0-9.13-1.62-15.72-4.14L280.543,40.96z
				 M60.083,42c25.67-10.75,60.79-25.47,101.85-25.66c41.03,0.19,76.15,14.91,101.811,25.66c13.42,5.62,24.02,10.06,30.56,10.06
				c4.49,0,7.61-1.07,9.41-1.92l-7.63,28.2c-0.43,0.49-2.66,2.64-7.03,2.64c-11.6,0-25.85-5.9-42.34-12.75
				c-23.01-9.54-51.649-21.42-84.78-21.62c-33.159,0.2-61.789,12.08-84.829,21.62c-16.48,6.85-30.69,12.75-42.32,12.75
				c-4.37,0-6.59-2.15-7.04-2.64l-7.62-28.2c1.81,0.85,4.93,1.92,9.38,1.92C36.053,52.06,46.663,47.62,60.083,42z M43.273,40.96
				l1.97,5.32c-6.6,2.52-11.95,4.14-15.74,4.14c-1.01,0-1.92-0.07-2.8-0.17l-0.92-3.3C28.983,47.65,36.933,48.37,43.273,40.96z
				 M25.583,45.24c0.14-0.36,0.42-0.85,1.04-1.31c1.51-1.26,4.96-2.45,12.71-1.43C33.644,46.9,27.583,45.79,25.583,45.24z
				 M21.253,44.08c4.75-5.11,18.03-5.93,20.94-6.05l0.43,1.18c-0.54,0.7-1.12,1.32-1.68,1.89c-7.58-1.19-12.78-0.64-15.471,1.63
				c-1.619,1.4-1.68,2.89-1.68,3.06v0.12l1.15,4.07c-2.86-0.59-4.63-1.55-5.3-1.96C19.683,46.55,20.163,45.25,21.253,44.08z"/>
		</g>
		<g>
			<g>
				<path fill="#FFFFFF" d="M280.543,331.66l-1.96-5.33c6.59-2.5,11.95-4.13,15.72-4.13c1.04,0,1.95,0.069,2.82,0.17l0.93,3.31
					C294.833,324.97,286.913,324.24,280.543,331.66z"/>
				<path fill="#FFFFFF" d="M304.173,324.61c0,1.47-0.51,2.75-1.6,3.93c-4.771,5.12-18.03,5.93-20.92,6.05l-0.45-1.17
					c0.56-0.71,1.12-1.33,1.7-1.9c7.569,1.19,12.79,0.65,15.47-1.64c1.62-1.39,1.66-2.88,1.66-3.04v-0.109l-1.12-4.08
					C301.743,323.23,303.503,324.18,304.173,324.61z"/>
				<path fill="#FFFFFF" d="M298.253,327.39c-0.16,0.36-0.45,0.83-1.01,1.311c-1.54,1.25-4.99,2.45-12.74,1.42
					C290.163,325.72,296.243,326.84,298.253,327.39z"/>
				<path fill="#FFFFFF" d="M29.503,322.2c3.79,0,9.141,1.63,15.74,4.13l-1.97,5.33c-6.341-7.42-14.29-6.69-17.49-5.98l0.92-3.31
					C27.583,322.27,28.493,322.2,29.503,322.2z"/>
				<path fill="#FFFFFF" d="M26.623,328.7c-0.62-0.48-0.9-0.95-1.04-1.311c2-0.55,8.061-1.67,13.75,2.73
					C31.583,331.15,28.133,329.95,26.623,328.7z"/>
				<path fill="#FFFFFF" d="M40.943,331.52c0.56,0.57,1.14,1.19,1.68,1.9l-0.43,1.17c-2.91-0.12-16.19-0.93-20.94-6.05
					c-1.09-1.18-1.57-2.46-1.609-3.93c0.67-0.431,2.439-1.38,5.3-1.96l-1.13,3.97l-0.021,0.11v0.109c0,0.16,0.061,1.65,1.68,3.04
					C28.163,332.17,33.363,332.71,40.943,331.52z"/>
				<path fill="#FFFFFF" d="M294.303,320.56c-6.54,0-17.14,4.44-30.56,10.061c-25.66,10.75-60.78,25.46-101.811,25.66
					c-41.06-0.2-76.18-14.91-101.85-25.66c-13.42-5.62-24.03-10.061-30.58-10.061c-4.45,0-7.57,1.07-9.38,1.931l7.62-28.21
					c0.45-0.48,2.67-2.64,7.04-2.64c11.63,0,25.84,5.91,42.32,12.75c23.04,9.551,51.67,21.42,84.829,21.62
					c33.131-0.2,61.771-12.069,84.78-21.62c16.49-6.84,30.74-12.75,42.34-12.75c4.37,0,6.601,2.16,7.03,2.64l7.63,28.21
					C301.913,321.63,298.793,320.56,294.303,320.56z"/>
			</g>
			<g>
				<polygon fill="#231F20" points="268.163,318.87 264.743,320.29 266.123,323.6 269.533,322.19 				"/>
				<path fill="#231F20" d="M258.163,320.38c0.42,2.18-0.45,3.79-2.33,4.57c-2.89,1.2-5.15-0.96-6.36-3.891
					c-1.89-4.6,0.061-6.689,1.69-7.359c2.8-1.16,4.08,0.46,4.78,1.319l3.39-1.409c-1.17-2.33-4.54-4.87-9.42-2.86
					c-4.2,1.74-6.29,6-3.93,11.7c2.319,5.63,6.66,7.26,10.979,5.49c4.08-1.7,5.37-5.141,4.58-8.95L258.163,320.38z"/>
				<polygon fill="#231F20" points="241.913,329.61 243.213,332.95 246.623,331.6 245.354,328.28 				"/>
				<polygon fill="#231F20" points="238.623,323.47 231.333,326.14 229.953,322.4 238.293,319.36 237.223,316.44 225.443,320.73 
					231.493,337.3 234.943,336.03 232.373,329.06 239.693,326.41 				"/>
				<polygon fill="#231F20" points="217.283,323.52 212.693,324.77 208.083,333.47 206.203,326.54 202.633,327.52 207.293,344.52 
					210.863,343.55 209.273,337.8 210.473,335.65 217.773,341.67 222.333,340.4 212.233,332.38 				"/>
				<path fill="#231F20" d="M195.453,344.21c-3.07,0.58-4.82-2-5.4-5.11c-0.93-4.89,1.42-6.529,3.15-6.859
					c3-0.55,3.92,1.3,4.41,2.279l3.62-0.68c-0.67-2.52-3.44-5.7-8.63-4.729c-4.471,0.84-7.391,4.569-6.271,10.63
					c1.13,5.99,5.04,8.479,9.63,7.62c4.351-0.82,6.311-3.91,6.33-7.801l-3.61,0.681C198.644,342.44,197.453,343.84,195.453,344.21z"
					/>
				<path fill="#231F20" d="M174.723,331.56c-2.329,0.21-8.35,1.73-7.659,9.98c0.729,8.24,6.909,8.729,9.27,8.53
					c2.3-0.2,8.33-1.73,7.62-9.98C183.273,331.86,177.053,331.37,174.723,331.56z M176.053,346.97c-1.97,0.15-4.859-0.83-5.319-5.75
					c-0.4-4.91,2.27-6.37,4.25-6.55c1.979-0.16,4.89,0.82,5.31,5.74C180.703,345.33,178.023,346.78,176.053,346.97z"/>
				<polygon fill="#231F20" points="160.433,344.93 160.383,344.93 153.833,332.41 149.953,332.28 149.313,349.89 152.753,350.01 
					153.203,337.44 153.243,337.44 160.003,350.28 163.683,350.41 164.293,332.79 160.873,332.66 				"/>
				<path fill="#231F20" d="M141.983,331.29l-8.82-1.22l-2.44,17.46l3.58,0.489l0.94-6.829l3.79,0.52c2.67,0.37,2.7,1.32,2.38,3.7
					c-0.25,1.81-0.23,2.729-0.11,3.59l4.03,0.56l0.08-0.46c-0.75-0.399-0.66-1.029-0.29-3.59c0.43-3.27-0.26-3.899-1.62-4.729
					c1.83-0.34,3.021-1.86,3.29-3.79C147.003,335.49,146.623,331.94,141.983,331.29z M143.113,336.85c-0.26,1.74-1.28,2.25-3.181,2
					l-4.27-0.59l0.64-4.689l4.561,0.649C142.983,334.51,143.213,335.92,143.113,336.85z"/>
				<path fill="#231F20" d="M121.133,327.41l-10.09,15.77l3.79,0.87l2-3.26l6.35,1.46l0.28,3.8l3.91,0.9l-2.08-18.57L121.133,327.41
					z M118.473,338.04l3.78-6.28l0.061,0.01l0.55,7.28L118.473,338.04z"/>
				<polygon fill="#231F20" points="108.293,323.92 101.083,336.21 101.053,336.2 102.213,321.99 97.083,320.35 91.743,337.16 
					95.033,338.2 99.473,324.17 99.533,324.17 98.133,339.19 101.583,340.28 109.183,327.24 109.213,327.26 104.753,341.29 
					108.033,342.34 113.373,325.52 				"/>
				<polygon fill="#231F20" points="86.943,316.49 83.453,315.18 77.213,331.66 88.854,336.09 89.993,333.09 81.793,329.98 				"/>
				<polygon fill="#231F20" points="76.933,312.51 70.303,328.84 73.713,330.23 80.333,313.89 				"/>
				<polygon fill="#231F20" points="75.123,311.78 70.733,309.94 61.743,313.96 64.533,307.34 61.144,305.93 54.333,322.19 
					57.713,323.6 60.023,318.1 62.293,317.13 64.333,326.38 68.703,328.21 65.703,315.66 				"/>
			</g>
			<path fill="#231F20" d="M305.823,324.04l-0.021-0.08l-8.229-30.46l-0.101-0.11c-0.109-0.15-2.77-3.38-8.42-3.38
				c-8.63,0-18.529,3.11-29.63,7.45h-0.01c-0.42,0.16-0.83,0.32-1.26,0.49c-3.87,1.53-7.9,3.189-12.05,4.92
				c-22.9,9.51-51.36,21.3-84.171,21.51c-32.85-0.21-61.3-12-84.199-21.51c-5.351-2.22-10.48-4.351-15.351-6.2
				c-0.319-0.12-0.63-0.24-0.95-0.36c-0.279-0.1-0.55-0.21-0.819-0.31c-9.58-3.56-18.21-5.99-25.83-5.99
				c-5.66,0-8.32,3.23-8.42,3.38l-0.12,0.11l-0.04,0.18l-8.21,30.36v0.08c-0.12,2.07,0.59,3.939,2.06,5.54
				c5.811,6.24,21.99,6.58,22.681,6.59l0.6,0.01l0.2-0.54l3.24-8.779c3.859,1.5,8.1,3.279,12.68,5.199
				c25.8,10.811,61.09,25.591,102.479,25.79c41.36-0.199,76.62-14.979,102.44-25.79c4.59-1.92,8.83-3.699,12.7-5.199l3.43,9.319
				l0.58-0.01c0.68-0.01,16.88-0.35,22.7-6.59c1.479-1.601,2.17-3.47,2.05-5.54L305.823,324.04z M42.193,334.59
				c-2.91-0.12-16.19-0.93-20.94-6.05c-1.09-1.18-1.57-2.46-1.609-3.93c0.67-0.431,2.439-1.38,5.3-1.96l-1.13,3.97l-0.021,0.11
				v0.109c0,0.16,0.061,1.65,1.68,3.04c2.69,2.29,7.891,2.83,15.471,1.64c0.56,0.57,1.14,1.19,1.68,1.9L42.193,334.59z
				 M25.583,327.39c2-0.55,8.061-1.67,13.75,2.73c-7.75,1.03-11.2-0.17-12.71-1.42C26.003,328.22,25.723,327.75,25.583,327.39z
				 M43.273,331.66c-6.341-7.42-14.29-6.69-17.49-5.98l0.92-3.31c0.88-0.101,1.79-0.17,2.8-0.17c3.79,0,9.141,1.63,15.74,4.13
				L43.273,331.66z M263.743,330.62c-25.66,10.75-60.78,25.46-101.811,25.66c-41.06-0.2-76.18-14.91-101.85-25.66
				c-13.42-5.62-24.03-10.061-30.58-10.061c-4.45,0-7.57,1.07-9.38,1.931l7.62-28.21c0.45-0.48,2.67-2.64,7.04-2.64
				c11.63,0,25.84,5.91,42.32,12.75c23.04,9.551,51.67,21.42,84.829,21.62c33.131-0.2,61.771-12.069,84.78-21.62
				c16.49-6.84,30.74-12.75,42.34-12.75c4.37,0,6.601,2.16,7.03,2.64l7.63,28.21c-1.8-0.86-4.92-1.931-9.41-1.931
				C287.763,320.56,277.163,325,263.743,330.62z M280.543,331.66l-1.96-5.33c6.59-2.5,11.95-4.13,15.72-4.13
				c1.04,0,1.95,0.069,2.82,0.17l0.93,3.31C294.833,324.97,286.913,324.24,280.543,331.66z M298.253,327.39
				c-0.16,0.36-0.45,0.83-1.01,1.311c-1.54,1.25-4.99,2.45-12.74,1.42C290.163,325.72,296.243,326.84,298.253,327.39z
				 M302.573,328.54c-4.771,5.12-18.03,5.93-20.92,6.05l-0.45-1.17c0.56-0.71,1.12-1.33,1.7-1.9c7.569,1.19,12.79,0.65,15.47-1.64
				c1.62-1.39,1.66-2.88,1.66-3.04v-0.109l-1.12-4.08c2.83,0.58,4.59,1.529,5.26,1.96C304.173,326.08,303.663,327.36,302.573,328.54
				z"/>
		</g>
	</g>
</g>
</svg>
