<?xml version="1.0" encoding="UTF-8" standalone="no"?>
<svg
   xmlns:dc="http://purl.org/dc/elements/1.1/"
   xmlns:cc="http://creativecommons.org/ns#"
   xmlns:rdf="http://www.w3.org/1999/02/22-rdf-syntax-ns#"
   xmlns:svg="http://www.w3.org/2000/svg"
   xmlns="http://www.w3.org/2000/svg"
   xmlns:sodipodi="http://sodipodi.sourceforge.net/DTD/sodipodi-0.dtd"
   xmlns:inkscape="http://www.inkscape.org/namespaces/inkscape"
   viewBox="0 0 300 217.39572"
   id="svg36"
   height="217.39572"
   width="300"
   version="1.1"
   sodipodi:docname="ks-lechia-gdansk.svg"
   inkscape:version="0.92.4 (5da689c313, 2019-01-14)">
  <sodipodi:namedview
     pagecolor="#ffffff"
     bordercolor="#666666"
     borderopacity="1"
     objecttolerance="10"
     gridtolerance="10"
     guidetolerance="10"
     inkscape:pageopacity="0"
     inkscape:pageshadow="2"
     inkscape:window-width="1366"
     inkscape:window-height="705"
     id="namedview23"
     showgrid="false"
     fit-margin-top="0"
     fit-margin-left="0"
     fit-margin-right="0"
     fit-margin-bottom="0"
     inkscape:zoom="0.81846036"
     inkscape:cx="441.83706"
     inkscape:cy="125"
     inkscape:window-x="-8"
     inkscape:window-y="-8"
     inkscape:window-maximized="1"
     inkscape:current-layer="svg36" />
  <metadata
     id="metadata42">
    <rdf:RDF>
      <cc:Work
         rdf:about="">
        <dc:format>image/svg+xml</dc:format>
        <dc:type
           rdf:resource="http://purl.org/dc/dcmitype/StillImage" />
        <dc:title></dc:title>
      </cc:Work>
    </rdf:RDF>
  </metadata>
  <defs
     id="defs40" />
  <g
     transform="matrix(0.5291666,0,0,0.5291666,-7.4999841,-114.05212)"
     id="Layer1000">
    <path
       id="path2"
       style="fill:#cca227;fill-opacity:1;stroke:none;stroke-opacity:1"
       d="m 42.364,252.6945 c 39.7352,-15.463 90.0885,-28.7251 139.356,-28.8653 37.1904,-0.1062 66.9733,7.31 97.9712,20.076 56.226,23.1552 112.3041,60.4561 194.4338,77.8717 30.9229,6.5571 68.0694,10.0585 106.9774,10.8151 -44.2857,80.6695 -81.5352,109.8934 -128.34,123.3384 -50.529,14.5153 -104.0267,2.7731 -157.0842,-1.1071 -43.7567,-3.2003 -79.9703,-0.1167 -116.8015,15.2134 -13.878,5.7758 -31.5229,16.3363 -46.191,27.8157 -6.8823,5.3865 -13.118,10.9208 -18.6217,16.2619 -6.5818,6.3868 -10.9701,11.8374 -18.8583,17.3525 l 17.6143,92.928 -11.6414,1.9634 -70.6537,-375.1414 c -9.1578,-0.7731 -16.3517,-8.4521 -16.3517,-17.8103 0,-9.8707 8.0042,-17.8749 17.8749,-17.8749 9.8713,0 17.8755,8.0042 17.8755,17.8749 0,6.3687 -3.3328,11.9595 -8.3486,15.1258 z m 49.1996,259.5588 c 1.7455,-13.5753 2.5635,-23.7159 2.9008,-33.9978 1.3765,-41.9379 -3.2479,-64.3441 -8.6437,-93.6912 C 80.4528,355.3661 73.4719,322.032 60.9485,294.4025 56.5579,284.7152 51.0449,275.4259 45.1519,267.4004 Z"
       inkscape:connector-curvature="0" />
    <path
       id="path4"
       style="fill:#ffffff;fill-rule:evenodd"
       d="m 47.2577,258.4293 c 8.0738,10.042 15.0059,21.6325 20.1734,33.0346 12.9056,28.4722 19.7584,61.1794 25.3902,91.8132 1.4328,7.7934 2.9057,15.5808 4.2038,23.3983 1.7625,10.6159 3.1384,21.2077 3.9225,31.944 0.9685,13.273 1.0671,26.5723 0.6307,39.8694 -0.4621,14.0723 -1.9825,27.9881 -3.918,41.8814 1.0069,-0.9099 2.0099,-1.8643 3.0239,-2.8706 2.8313,-2.8093 5.5585,-5.7139 8.4231,-8.4931 6.095,-5.9155 12.5026,-11.5243 19.1917,-16.7597 14.0932,-11.0292 31.3691,-21.9254 47.8429,-28.7815 39.3837,-16.3927 77.8224,-18.8297 120.0554,-15.7406 9.7135,0.7101 19.4063,1.6776 29.0914,2.7009 41.2332,4.355 84.9259,10.3218 125.5087,-1.3365 5.0114,-1.4394 9.9632,-3.0831 14.8236,-4.9726 21.0532,-8.1838 38.3472,-20.3114 54.147,-36.3877 19.3483,-19.6861 35.5106,-44.0967 49.3656,-68.3294 -32.1669,-1.0633 -65.2295,-4.032 -96.4852,-10.6597 -38.0319,-8.0645 -73.1964,-21.0818 -108.4272,-37.2791 -29.1286,-13.3918 -57.6238,-28.7771 -87.2403,-40.9737 -31.558,-12.997 -60.8415,-19.6379 -95.2406,-19.5399 -44.9225,0.1281 -92.2879,11.2888 -134.4826,27.4823 z"
       inkscape:connector-curvature="0" />
    <path
       id="path6"
       style="fill:#2c743a;fill-opacity:1;stroke:none;stroke-opacity:1"
       d="m 466.3552,337.4557 c -36.933,-8.232 -71.8692,-21.234 -106.2508,-37.0409 -29.0602,-13.3601 -57.2882,-28.6299 -86.8767,-40.8149 -30.1914,-12.4342 -58.7041,-18.8911 -91.4595,-18.7975 -39.7221,0.1133 -81.0325,9.0593 -118.829,22.3591 5.1582,7.7041 9.6917,15.9011 13.4685,24.2338 4.7744,10.5332 8.7231,21.4924 12.0925,32.6738 39.703,-17.0853 64.2729,-25.331 108.2974,-23.5094 15.5222,0.6417 35.1333,1.1618 54.4252,2.8115 20.353,1.74 40.9502,5.2535 60.7431,10.2414 28.4475,7.1687 54.1974,15.889 89.703,20.6908 20.0075,2.7058 43.0056,5.7774 64.6863,7.1523 z m -356.8756,86.8154 c 0.5267,4.5329 0.9647,9.0768 1.2971,13.631 0.9932,13.6109 1.0994,27.2742 0.6515,40.9102 -0.1692,5.1511 -0.4769,10.2918 -0.893,15.4242 3.7954,-3.3689 7.6932,-6.6228 11.6896,-9.7508 14.973,-11.718 32.5605,-22.8069 50.1299,-30.1191 40.8029,-16.9835 80.9432,-19.6614 124.5615,-16.471 9.8192,0.7178 19.6171,1.6945 29.4078,2.7294 39.7046,4.1934 82.7222,10.2041 121.7528,-1.008 4.7229,-1.3568 9.3927,-2.9052 13.9732,-4.6863 17.5722,-6.8308 32.3645,-16.6495 45.8385,-29.3558 -47.8884,5.9959 -106.0093,1.3792 -151.6277,-5.0952 -37.5834,-5.3334 -74.3297,-14.6856 -111.7977,-13.4603 -45.1403,1.4767 -90.8309,10.9362 -134.9835,37.2517 z"
       inkscape:connector-curvature="0" />
    <path
       id="path8"
       style="fill:#cca227;fill-opacity:1;stroke:none;stroke-opacity:1"
       d="m 208.753,267.7608 107.5966,22.5314 -2.5709,94.9273 c -0.7874,29.1002 -23.226,47.3915 -51.9836,42.1958 -28.6278,-5.1724 -52.4469,-34.6192 -52.5885,-64.3746 z"
       inkscape:connector-curvature="0" />
    <path
       id="path10"
       style="fill:#ad2827;fill-opacity:1;stroke:none;stroke-opacity:1"
       d="m 213.1581,274.0681 0.4287,88.9518 c 0.1292,27.1439 21.8116,54.4444 48.8356,59.3266 10.8491,1.9602 20.1805,0.052 27.6065,-4.0188 11.9726,-6.5642 18.9973,-19.4829 19.4561,-36.3433 l 2.3872,-87.5485 z"
       inkscape:connector-curvature="0" />
    <g
       id="Layer1001">
      <path
         id="path12"
         style="fill:#fefefe;fill-opacity:1;stroke:none;stroke-opacity:1"
         d="m 233.0829,332.2876 3.1745,0.7014 c 0.7649,9.4288 12.6642,14.6473 23.7986,16.6003 -0.4698,-6.5057 -4.9841,-16.0632 -18.7187,-18.2401 v -1.9886 l 42.3124,8.5391 v 1.9388 c -15.82,-2.9227 -18.671,4.7853 -18.8067,10.4571 8.5862,1.2478 23.6945,3.5775 23.7481,-6.8665 l 3.1247,0.6921 v 26.2941 l -3.1499,-0.6362 c -1.9366,-11.1448 -14.731,-14.7261 -23.5883,-16.6063 0.5519,5.2529 3.0941,15.036 18.6721,17.744 v 2.344 l -42.3124,-8.5392 v -1.9913 c 5.7507,0.9762 9.7218,0.5957 12.4682,-0.3444 5.5299,-1.8939 6.1005,-6.5511 6.251,-10.1965 -9.0439,-1.6699 -22.8562,-3.1236 -24.0104,7.0209 l -2.9632,-0.6286 z"
         inkscape:connector-curvature="0" />
      <path
         id="path14"
         style="fill:#fefefe;fill-opacity:1;stroke:none;stroke-opacity:1"
         d="m 233.0829,371.1616 3.1745,0.7013 c 0.7649,9.4289 12.6642,14.6473 23.7986,16.6003 -0.4698,-6.5056 -4.9841,-16.0631 -18.7187,-18.2401 v -1.9886 l 42.3124,8.5392 v 1.9387 c -15.82,-2.9226 -18.671,4.7854 -18.8067,10.4571 8.5862,1.2478 23.6945,3.5775 23.7481,-6.8664 l 3.1247,0.692 v 26.2942 l -3.1499,-0.6363 c -1.9366,-11.1447 -14.731,-14.7261 -23.5883,-16.6063 0.5519,5.253 3.0941,15.0361 18.6721,17.7441 v 2.3439 l -42.3124,-8.5391 v -1.9913 c 5.7507,0.9762 9.7218,0.5957 12.4682,-0.3444 5.5299,-1.8939 6.1005,-6.5511 6.251,-10.1965 -9.0439,-1.6699 -22.8562,-3.1236 -24.0104,7.0209 l -2.9632,-0.6286 z"
         inkscape:connector-curvature="0" />
    </g>
    <path
       id="path17"
       style="fill:#cca227;fill-opacity:1;stroke:none;stroke-opacity:1"
       d="m 233.0824,323.8268 c 23.9436,0.9214 42.8572,5.2042 58.3306,11.7864 l 10.277,-30.2258 c -5.4391,0.5968 -13.803,3.9241 -18.89,8.7663 4.5866,2.9725 6.5007,5.7441 5.4402,8.3136 l -7.5651,-1.526 -2.5471,-6.7909 -3.2101,5.6291 -8.3163,-1.6782 c -0.0772,-3.9837 2.0012,-7.006 5.5535,-9.373 -5.0399,-4.6922 -7.8881,-12.5929 -10.0547,-19.1555 -2.7491,8.0047 -5.7276,12.9773 -9.6873,15.0667 3.2819,2.8482 5.5557,6.4558 5.611,11.7311 l -8.4318,-1.7011 -2.8099,-6.844 -2.7157,5.7287 -8.2637,-1.6678 c 0.9056,-3.2774 1.6601,-4.7366 6.8002,-5.588 -4.8718,-5.8831 -11.9485,-11.6003 -19.6456,-17.0793 z"
       inkscape:connector-curvature="0" />
    <path
       id="path19"
       style="fill:#cca227;fill-opacity:1;stroke:none;stroke-opacity:1"
       d="m 96.7766,333.7988 2.7201,11.4848 4.2312,-1.8134 9.3692,46.9986 -3.6268,1.965 2.2667,13.8983 19.1923,-9.6681 -1.5123,-12.392 -3.9284,1.5111 -4.51,-23.5998 24.4572,27.8305 12.5426,-5.7402 -1.0578,-12.0887 -4.8351,2.4156 -16.6228,-19.4939 7.4047,-26.1419 6.3469,-1.8128 -0.3028,-11.6365 -17.2272,5.5918 -11.6408,36.1824 -3.6219,-18.9546 2.569,-1.0589 -2.2668,-11.0331 z"
       inkscape:connector-curvature="0" />
    <path
       id="path21"
       style="fill:#cca227;fill-opacity:1;stroke:none;stroke-opacity:1"
       d="m 194.0557,309.0634 0.4544,20.7697 -11.7974,2.2738 c -0.1002,-6.1651 -2.99,-10.8069 -8.0152,-10.7637 -3.1203,0.0268 -6.1486,2.5482 -6.0567,6.6962 0.1019,4.5669 3.4122,6.602 8.7193,8.6486 8.2802,3.1932 20.428,5.1872 20.6284,22.2524 0.0953,8.0951 -2.3483,20.7329 -15.7297,21.0729 -4.8932,0.1243 -8.5693,-0.3537 -13.4603,-2.1227 l -0.1511,1.6677 -7.1084,2.4256 -1.6634,-25.0135 12.0991,-0.7583 c 0.5546,8.4394 3.6454,10.762 8.3179,10.3087 3.5507,-0.3444 5.3876,-3.7292 5.4446,-6.9738 0.0618,-3.5424 -1.463,-6.0922 -4.5696,-7.8635 -4.5417,-2.5887 -11.6272,-3.8616 -16.7093,-6.9841 -5.0246,-3.0875 -7.1977,-8.4291 -7.6078,-14.4113 -1.0545,-15.3892 9.4486,-21.0024 17.5442,-21.3763 4.3851,-0.2021 6.9568,0.3537 11.7969,2.4255 l 0.1517,-1.8189 z"
       inkscape:connector-curvature="0" />
    <path
       id="path23"
       style="fill:#cca227;fill-opacity:1;stroke:none;stroke-opacity:1"
       d="m 328.8903,328.5114 -0.6001,8.4416 2.9785,0.5317 -2.7316,35.8587 -2.8115,-0.444 -0.6132,9.7108 29.1659,3.9285 1.5106,-22.2146 -8.1603,-1.135 -0.7556,12.921 -8.4624,-1.0584 2.4178,-35.8106 3.1734,0.4512 0.6051,-8.462 z"
       inkscape:connector-curvature="0" />
    <path
       id="path25"
       style="fill:#cca227;fill-opacity:1;stroke:none;stroke-opacity:1"
       d="m 363.5281,336.207 -0.6007,7.6102 2.6758,0.5084 -2.8827,34.4403 -2.8115,-0.4241 -0.6133,9.1333 30.2248,3.7564 1.1963,-16.2446 -8.9048,-0.9282 -0.7556,7.2008 -9.2186,-1.012 0.8536,-13.2744 9.6435,1.5648 0.7035,-7.4809 -9.6199,-1.502 1.5933,-13.7012 9.223,1.5052 -0.9735,9.1636 8.769,0.8246 1.7143,-15.5153 z"
       inkscape:connector-curvature="0" />
    <path
       id="path27"
       style="fill:#cca227;fill-opacity:1;stroke:none;stroke-opacity:1"
       d="m 426.8707,346.9524 -1.8862,15.8704 -8.7992,-1.1027 0.3143,-3.4537 c 0.2228,-2.4491 -1.8271,-3.9225 -3.8934,-4.3074 -2.6566,-0.4949 -5.5497,0.8087 -5.8503,4.1464 l -1.884,20.8972 c -0.2787,3.0984 2.0138,5.7424 4.5444,5.8229 2.8126,0.0892 5.1604,-1.1054 5.5125,-5.6663 l 0.3148,-4.0796 8.642,0.9429 -0.6291,8.4827 c -0.6334,8.5451 -7.6302,10.1877 -14.6905,9.3527 -3.3793,-0.3996 -6.3091,-1.2948 -8.5418,-2.8076 -3.2633,-2.2115 -5.092,-5.7501 -4.5614,-10.9839 l 2.495,-24.6236 c 0.3767,-3.7199 1.5632,-6.2866 3.6613,-8.0633 1.9716,-1.6689 4.7508,-2.6692 8.4214,-2.6993 3.4685,-0.0285 5.7889,0.8213 7.5591,2.1134 l 1.2571,-0.9417 z"
       inkscape:connector-curvature="0" />
    <path
       id="path29"
       style="fill:#cca227;fill-opacity:1;stroke:none;stroke-opacity:1"
       d="m 468.6,349.8176 0.0734,7.1703 2.6374,0.002 -0.3006,31.6812 -2.8707,-0.003 -0.0114,7.0954 16.3582,-0.2366 -0.008,-6.9354 h -3.2545 l -0.3263,-31.6018 3.1247,-6e-4 -0.0859,-7.1719 z"
       inkscape:connector-curvature="0" />
    <path
       id="path31"
       style="fill:#cca227;fill-opacity:1;stroke:none;stroke-opacity:1"
       d="m 431.0412,347.847 -0.3537,8.1981 2.3735,0.0821 -2.0636,31.2065 -2.9057,-0.0816 -0.4271,7.9626 14.4453,0.547 0.3997,-7.9571 -2.241,-0.1583 0.7824,-12.5064 10.2857,0.5962 -0.6943,12.3548 -2.9089,-0.081 -0.1451,7.8459 14.7009,0.3023 0.1966,-7.9188 -2.6391,-0.1555 1.0009,-30.9043 2.5963,0.2338 0.3701,-7.8432 -13.5046,-0.6986 -0.3783,8.077 2.4562,0.081 -0.6439,11.4574 -10.2397,-0.5864 0.7117,-11.3807 2.6698,0.1571 0.3432,-8.1208 z"
       inkscape:connector-curvature="0" />
    <path
       id="path33"
       style="fill:#cca227;fill-opacity:1;stroke:none;stroke-opacity:1"
       d="m 492.8689,349.7787 -3.1423,37.8731 -2.2004,-10e-4 0.3142,6.9135 13.3568,-0.7856 -0.6286,-6.9136 -3.1427,0.1588 0.6592,-6.8101 8.7965,-0.8202 1.8577,6.0556 -2.8279,0.4736 0.7862,7.23 14.6128,-2.3581 -0.9423,-7.2306 -1.8851,0.3154 -10.5283,-35.6704 z m 5.6914,25.526 1.6946,-17.5119 5.1828,16.8937 z"
       inkscape:connector-curvature="0" />
  </g>
</svg>
