<?xml version="1.0" encoding="UTF-8" standalone="no"?>
<!-- Created with Inkscape (http://www.inkscape.org/) -->

<svg
   xmlns:dc="http://purl.org/dc/elements/1.1/"
   xmlns:cc="http://creativecommons.org/ns#"
   xmlns:rdf="http://www.w3.org/1999/02/22-rdf-syntax-ns#"
   xmlns:svg="http://www.w3.org/2000/svg"
   xmlns="http://www.w3.org/2000/svg"
   xmlns:sodipodi="http://sodipodi.sourceforge.net/DTD/sodipodi-0.dtd"
   xmlns:inkscape="http://www.inkscape.org/namespaces/inkscape"
   version="1.1"
   id="svg2"
   xml:space="preserve"
   width="341.24426"
   height="500"
   viewBox="0 0 341.24425 500"
   sodipodi:docname="fc-differdange-03-vector-logo.svg"
   inkscape:version="0.92.4 (5da689c313, 2019-01-14)"><metadata
     id="metadata8"><rdf:RDF><cc:Work
         rdf:about=""><dc:format>image/svg+xml</dc:format><dc:type
           rdf:resource="http://purl.org/dc/dcmitype/StillImage" /><dc:title></dc:title></cc:Work></rdf:RDF></metadata><defs
     id="defs6"><clipPath
       clipPathUnits="userSpaceOnUse"
       id="clipPath20"><path
         d="M 0,600 H 800 V 0 H 0 Z"
         id="path18"
         inkscape:connector-curvature="0" /></clipPath></defs><sodipodi:namedview
     pagecolor="#ffffff"
     bordercolor="#666666"
     borderopacity="1"
     objecttolerance="10"
     gridtolerance="10"
     guidetolerance="10"
     inkscape:pageopacity="0"
     inkscape:pageshadow="2"
     inkscape:window-width="1366"
     inkscape:window-height="705"
     id="namedview4"
     showgrid="false"
     fit-margin-top="1"
     fit-margin-bottom="1"
     fit-margin-right="1"
     fit-margin-left="1"
     inkscape:zoom="0.59"
     inkscape:cx="-80.220168"
     inkscape:cy="250.38779"
     inkscape:window-x="-8"
     inkscape:window-y="-8"
     inkscape:window-maximized="1"
     inkscape:current-layer="g10" /><g
     id="g10"
     inkscape:groupmode="layer"
     inkscape:label="fc-differdange-03-vector-logo"
     transform="matrix(1.3333333,0,0,-1.3333333,-392.63599,693.92801)"><g
       id="g112"
       transform="matrix(1.2142117,0,0,1.2142117,-63.241076,-31.316892)"><path
         inkscape:connector-curvature="0"
         id="path12"
         style="fill:#000000;fill-opacity:1;fill-rule:nonzero;stroke:none"
         d="M 295.227,146.196 H 504.773 V 453.803 H 295.227 Z" /><g
         id="g14"><g
           clip-path="url(#clipPath20)"
           id="g16"><g
             transform="translate(423.8086,264.3887)"
             id="g22"><path
               inkscape:connector-curvature="0"
               id="path24"
               style="fill:#ffffff;fill-opacity:1;fill-rule:nonzero;stroke:none"
               d="m 0,0 c 5.45,0 11.586,-1.592 11.586,-7.954 0,-6.704 -10.225,-6.704 -15.227,-6.704 -2.158,0 -4.204,0.113 -6.363,0.225 v -17.385 c 3.299,0.456 6.477,0.797 9.775,0.797 5.112,0 12.956,-1.025 12.956,-7.729 0,-6.023 -5.797,-7.16 -12.727,-7.16 -7.019,0 -14.395,1.494 -19.044,2.987 2.398,5.674 3.628,12.285 3.628,19.628 0,12.022 -3.568,22.027 -9.998,29.152 h 0.893 c 1.821,0 3.584,0.059 5.314,0.151 V -3.068 C -14.548,-1.592 -7.275,0 0,0 m -54.733,-46.59 c -9.775,0 -9.775,11.252 -9.775,23.295 0,12.727 0,23.295 9.775,23.295 9.543,0 9.543,-10.568 9.543,-23.295 0,-12.043 0,-23.295 -9.543,-23.295 m -13.06,184.234 h 43.091 c -1.447,-3.237 -2.577,-6.725 -3.327,-10.482 h -39.764 z m 50.766,-77.419 c 0,-17.543 -3.481,-23.174 -14.32,-23.174 h -6.765 V 83.69 h 6.621 c 10.948,0 14.464,-5.702 14.464,-23.465 M 61.432,95.632 C 54.045,93.07 47.664,91.875 41.348,91.875 c -15.744,0 -24.774,8.5 -24.774,23.321 0,16.55 13.473,22.448 26.079,22.448 6.271,0 12.625,-1.748 18.562,-3.636 l 3.861,-1.229 v 33.247 l -4.572,0.829 c -9.128,1.656 -15.723,2.853 -25.983,2.853 -21.259,0 -42.625,-7.526 -54.394,-23.723 v 21.981 h -92.763 V 60.683 h 29.681 V 7.362 c -7.513,-7.411 -11.323,-18.242 -11.323,-30.657 0,-24.205 13.975,-41.021 39.545,-41.021 17.03,0 28.757,7.252 34.73,19.293 v -15.998 c 7.159,-2.045 18.296,-3.295 27.503,-3.295 16.475,0 34.997,6.134 34.997,23.293 0,10.229 -6.821,15.912 -16.363,18.296 v 0.227 c 8.979,2.613 15.225,8.297 15.225,17.953 0,14.108 -14.13,20.327 -27.513,21.873 10.418,8.846 15.683,22.783 15.709,41.748 1.631,-0.083 3.283,-0.134 4.966,-0.134 12.779,0 25.182,3.195 28.68,4.175 l 2.164,0.605 v 33.278 z" /></g><g
             transform="translate(391.3555,276.1738)"
             id="g26"><path
               inkscape:connector-curvature="0"
               id="path28"
               style="fill:#ff0000;fill-opacity:1;fill-rule:nonzero;stroke:none"
               d="m 0,0 h 7.932 c 1.826,0 3.593,0.057 5.314,0.154 v 2.719 c 7.006,2.133 14.117,2.901 22.927,3.042 13.347,7.176 19.911,20.925 19.911,41.509 0,0.124 -0.006,0.238 -0.006,0.361 -14.851,1.76 -27.16,7.177 -36.143,15.525 1.122,-4.465 1.417,-9.599 1.417,-14.87 0,-15.114 -2.453,-29.101 -20.246,-29.101 h -12.691 v 58.493 h 2.963 9.584 c 3.569,0 6.516,-0.568 8.962,-1.586 -1.493,2.771 -2.752,5.708 -3.75,8.808 H -35.34 V 48.897 h -9.235 V 0.223 c 5.93,3.65 13.368,5.72 22.295,5.72 C -13.584,5.943 -6.07,3.837 0,0" /></g><g
             transform="translate(394.9287,385.623)"
             id="g30"><path
               inkscape:connector-curvature="0"
               id="path32"
               style="fill:#ff0000;fill-opacity:1;fill-rule:nonzero;stroke:none"
               d="M 0,0 H -44.84 V 22.336 H 3.08 v 18.469 h -80.909 v -95.43 h 32.989 v 36.157 H 1.033 c -0.846,4.11 -1.293,8.45 -1.293,13.01 0,1.876 0.102,3.686 0.26,5.458" /></g><g
             transform="translate(400.5962,380.165)"
             id="g34"><path
               inkscape:connector-curvature="0"
               id="path36"
               style="fill:#ff0000;fill-opacity:1;fill-rule:nonzero;stroke:none"
               d="m 0,0 c 0,35.433 31.101,48.005 57.734,48.005 9.613,0 15.652,-1.077 24.627,-2.706 V 25.042 c -5.276,1.529 -10.818,2.752 -16.495,2.752 -19.443,0 -32.005,-11.137 -32.005,-28.374 0,-18.04 11.762,-29.248 30.699,-29.248 5.82,0 11.678,0.958 18.091,2.863 V -47.524 C 77.812,-48.754 67.902,-50.909 57.734,-50.909 29.824,-50.909 0,-37.535 0,0" /></g><g
             transform="translate(321.3921,163.8545)"
             id="g38"><path
               inkscape:connector-curvature="0"
               id="path40"
               style="fill:#ffffff;fill-opacity:1;fill-rule:nonzero;stroke:none"
               d="m 0,0 h -1.886 v 10.191 h 1.859 c 2.702,0 3.379,-1.745 3.379,-5.124 C 3.352,1.803 2.732,0 0,0 M 1.634,14.752 H -9.43 V -4.898 H 1.324 c 5.631,0 9.909,2.336 9.909,9.768 0,7.967 -3.969,9.882 -9.599,9.882" /></g><path
             inkscape:connector-curvature="0"
             id="path42"
             style="fill:#ffffff;fill-opacity:1;fill-rule:nonzero;stroke:none"
             d="m 351.573,158.956 h 7.095 v 14.669 h -7.095 z" /><g
             transform="translate(348.0811,180.0703)"
             id="g44"><path
               inkscape:connector-curvature="0"
               id="path46"
               style="fill:#ffffff;fill-opacity:1;fill-rule:nonzero;stroke:none"
               d="m 0,0 h -6.672 l -2.787,-4.391 h 3.914 z" /></g><g
             transform="translate(340.396,167.6836)"
             id="g48"><path
               inkscape:connector-curvature="0"
               id="path50"
               style="fill:#ffffff;fill-opacity:1;fill-rule:nonzero;stroke:none"
               d="M 0,0 C -0.085,1.154 0.28,2.899 1.914,2.899 3.519,2.899 3.688,1.127 3.688,0 Z m 2.14,6.278 c -5.941,0 -9.095,-2.477 -9.095,-7.405 0,-5.066 3.154,-7.937 9.095,-7.937 2.477,0 4.729,0.252 6.616,0.843 V -4.42 C 7.628,-5.012 5.883,-5.35 3.941,-5.35 c -2.083,0 -3.801,0.424 -3.914,2.252 h 9.798 v 0.873 c 0,4.956 -1.998,8.503 -7.685,8.503" /></g><path
             inkscape:connector-curvature="0"
             id="path52"
             style="fill:#ffffff;fill-opacity:1;fill-rule:nonzero;stroke:none"
             d="m 351.573,175.173 h 7.095 v 4.897 h -7.095 z" /><g
             transform="translate(479.3672,163.5176)"
             id="g54"><path
               inkscape:connector-curvature="0"
               id="path56"
               style="fill:#ffffff;fill-opacity:1;fill-rule:nonzero;stroke:none"
               d="m 0,0 c -1.52,0 -1.715,1.575 -1.715,2.927 0,1.239 0.195,2.956 1.744,2.956 1.633,0 1.829,-1.717 1.829,-3.04 C 1.858,1.575 1.662,0 0,0 M 2.029,7.121 H 1.971 c -0.422,2.197 -2.506,3.323 -4.925,3.323 -4.535,0 -6.306,-3.576 -6.306,-7.714 0,-3.885 1.858,-7.292 6.248,-7.292 1.999,0 3.715,0.873 4.816,2.451 h 0.054 c 0,-3.154 -1.577,-4.478 -4.645,-4.478 -2.083,0 -4.167,0.619 -5.518,1.408 v -4.73 c 1.944,-0.564 4.506,-0.9 7.631,-0.9 7.403,0 9.345,3.772 9.345,7.713 V 10.107 H 2.029 Z" /></g><g
             transform="translate(440.9961,167.6836)"
             id="g58"><path
               inkscape:connector-curvature="0"
               id="path60"
               style="fill:#ffffff;fill-opacity:1;fill-rule:nonzero;stroke:none"
               d="M 0,0 C -0.084,1.154 0.28,2.899 1.916,2.899 3.519,2.899 3.687,1.127 3.687,0 Z m 2.139,6.278 c -5.94,0 -9.094,-2.477 -9.094,-7.405 0,-5.066 3.154,-7.937 9.094,-7.937 2.476,0 4.731,0.252 6.615,0.843 V -4.42 C 7.629,-5.012 5.883,-5.35 3.941,-5.35 c -2.084,0 -3.8,0.424 -3.913,2.252 h 9.796 v 0.873 c 0,4.956 -2,8.503 -7.685,8.503" /></g><g
             transform="translate(463.6006,173.9619)"
             id="g62"><path
               inkscape:connector-curvature="0"
               id="path64"
               style="fill:#ffffff;fill-opacity:1;fill-rule:nonzero;stroke:none"
               d="m 0,0 c -1.997,0 -3.938,-0.816 -4.784,-2.871 h -0.057 v 2.534 h -6.7 v -14.669 h 7.093 v 8.446 c 0,0.844 0,1.998 1.267,1.998 1.239,0 1.239,-1.154 1.239,-1.998 v -8.446 H 5.155 V -4.815 C 5.155,-1.972 3.774,0 0,0" /></g><path
             inkscape:connector-curvature="0"
             id="path66"
             style="fill:#ffffff;fill-opacity:1;fill-rule:nonzero;stroke:none"
             d="m 311.724,184.02 h 176.554 v 2.949 H 311.724 Z" /><g
             transform="translate(424.0488,163.3477)"
             id="g68"><path
               inkscape:connector-curvature="0"
               id="path70"
               style="fill:#ffffff;fill-opacity:1;fill-rule:nonzero;stroke:none"
               d="m 0,0 c -1.549,0 -1.804,1.634 -1.804,3.182 0,1.519 0.255,3.041 1.745,3.041 1.578,0 1.803,-1.522 1.803,-3.21 C 1.744,1.634 1.519,0 0,0 M 1.547,8.391 H 1.49 c -1.097,1.576 -2.533,2.223 -4.42,2.223 -3.82,0 -5.699,-2.592 -6.14,-5.856 v 5.716 c -0.284,0.084 -0.733,0.14 -1.156,0.14 -2.225,0 -3.631,-1.576 -4.477,-3.66 h -0.055 v 3.323 h -6.644 V -4.392 h 7.093 V 0.93 c 0,2.167 1.662,3.884 3.632,3.884 0.636,0 1.239,-0.081 1.581,-0.218 -0.055,-0.46 -0.085,-0.934 -0.085,-1.414 0,-4.251 1.748,-7.911 6.449,-7.911 2.308,0 3.744,0.817 4.728,3.012 H 2.055 V -4.392 H 8.641 V 16.723 H 1.547 Z" /></g><g
             transform="translate(384.5156,173.625)"
             id="g72"><path
               inkscape:connector-curvature="0"
               id="path74"
               style="fill:#ffffff;fill-opacity:1;fill-rule:nonzero;stroke:none"
               d="m 0,0 h -3.011 v 0.76 c 0,1.181 0.9,1.801 1.801,1.801 0.9,0 1.21,-0.113 1.548,-0.197 v 3.913 c -0.985,0.252 -2.73,0.507 -4.391,0.507 -3.661,0 -6.25,-1.634 -6.335,-5.546 V 0 h -4.622 v 0.76 c 0,1.181 0.901,1.801 1.802,1.801 0.901,0 1.21,-0.113 1.548,-0.197 v 3.913 c -0.986,0.252 -2.731,0.507 -4.392,0.507 -3.659,0 -6.25,-1.634 -6.335,-5.546 V 0 h -2.589 v -4.225 h 2.589 v -10.444 h 7.377 v 10.444 h 4.622 v -10.444 h 7.377 V -4.225 H 0 Z" /></g><g
             transform="translate(391.4702,167.6836)"
             id="g76"><path
               inkscape:connector-curvature="0"
               id="path78"
               style="fill:#ffffff;fill-opacity:1;fill-rule:nonzero;stroke:none"
               d="M 0,0 C -0.084,1.154 0.282,2.899 1.914,2.899 3.519,2.899 3.688,1.127 3.688,0 Z m 2.14,6.278 c -5.942,0 -9.095,-2.477 -9.095,-7.405 0,-5.066 3.153,-7.937 9.095,-7.937 2.477,0 4.729,0.252 6.615,0.843 V -4.42 C 7.63,-5.012 5.883,-5.35 3.941,-5.35 c -2.084,0 -3.801,0.424 -3.914,2.252 h 9.798 v 0.873 c 0,4.956 -1.998,8.503 -7.685,8.503" /></g></g></g></g></g></svg>