<?xml version="1.0" encoding="UTF-8" standalone="no"?>
<svg
   xmlns:dc="http://purl.org/dc/elements/1.1/"
   xmlns:cc="http://creativecommons.org/ns#"
   xmlns:rdf="http://www.w3.org/1999/02/22-rdf-syntax-ns#"
   xmlns:svg="http://www.w3.org/2000/svg"
   xmlns="http://www.w3.org/2000/svg"
   viewBox="0 0 178.85942 252.1"
   height="252.10001"
   width="178.85942"
   xml:space="preserve"
   id="svg2"
   version="1.1"><metadata
     id="metadata8"><rdf:RDF><cc:Work
         rdf:about=""><dc:format>image/svg+xml</dc:format><dc:type
           rdf:resource="http://purl.org/dc/dcmitype/StillImage" /><dc:title></dc:title></cc:Work></rdf:RDF></metadata><defs
     id="defs6"><clipPath
       id="clipPath18"
       clipPathUnits="userSpaceOnUse"><path
         id="path16"
         d="M 0,841.89 H 595.276 V 0 H 0 Z" /></clipPath></defs><g
     transform="matrix(1.3333333,0,0,-1.3333333,-130.34587,561.72623)"
     id="g10"><g
       transform="matrix(0.35198054,0,0,0.35198054,60.069121,178.59277)"
       id="g12"><g
         clip-path="url(#clipPath18)"
         id="g14"><g
           transform="translate(109.2114,687.4014)"
           id="g20"><path
             id="path22"
             style="fill:#0000a1;fill-opacity:1;fill-rule:evenodd;stroke:none"
             d="m 0,0 h 376.852 v -344.188 c 0,-104.04 -84.685,-188.725 -188.729,-188.725 C 84.686,-532.913 0,-448.228 0,-344.188 Z" /></g><g
           transform="translate(476.3828,343.2139)"
           id="g24"><path
             id="path26"
             style="fill:#ffffff;fill-opacity:1;fill-rule:evenodd;stroke:none"
             d="m 0,0 c 0,-98.596 -80.448,-179.05 -179.049,-179.05 -98.596,0 -179.049,80.454 -179.049,179.05 V 254.661 H 0 Z" /></g><g
           transform="translate(121.917,625.0845)"
           id="g28"><path
             id="path30"
             style="fill:#ffffff;fill-opacity:1;fill-rule:evenodd;stroke:none"
             d="M 0,0 H 6.654 V 20.566 L 12.705,0 h 4.232 l 6.051,20.566 V 0 h 6.654 V 27.22 H 20.568 L 14.517,9.071 9.073,27.22 H 0 Z m 327.849,0 h 6.654 V 11.49 L 342.366,0 h 8.468 l -9.678,13.912 9.076,13.308 h -7.866 L 334.503,15.122 V 27.22 h -6.654 z m -75.611,0 h 15.122 v 6.046 h -8.467 v 4.842 h 8.467 v 6.046 h -8.467 v 4.234 h 8.467 v 6.052 h -15.122 z m -24.197,0 h 9.681 c 5.156,0 10.887,1.696 10.887,7.861 0,3.629 -1.817,5.447 -4.841,6.654 2.421,1.209 3.631,3.027 3.631,5.446 0,6.842 -5.693,7.259 -10.887,7.259 h -8.471 z m 6.653,6.046 v 4.842 h 3.63 c 1.581,0 3.631,-0.463 3.631,-2.42 0,-1.814 -1.209,-2.422 -3.631,-2.422 z m 3.028,10.888 h -3.028 v 4.234 h 3.028 c 1.234,0 3.024,-10e-4 3.024,-1.814 0,-1.878 -1.402,-2.42 -3.024,-2.42 M 194.17,0 h 6.653 L 200.217,20.566 206.268,0 h 4.838 l 6.046,20.566 V 0 h 6.052 v 27.22 h -9.073 L 208.687,9.071 203.243,27.22 h -9.073 z m 115.228,27.822 c -8.465,0 -14.516,-6.046 -14.516,-13.912 0,-8.466 6.051,-14.517 14.516,-14.517 8.373,0 14.52,6.143 14.52,14.517 0,8.187 -6.545,13.912 -14.52,13.912 M 301.535,13.91 c 0,10.61 15.73,10.403 15.73,-0.602 0,-10.828 -15.73,-10.685 -15.73,0.602 M 176.021,27.822 c -8.466,0 -14.518,-6.046 -14.518,-13.912 0,-8.466 6.052,-14.517 14.518,-14.517 8.373,0 14.52,6.143 14.52,14.517 0,8.187 -6.546,13.912 -14.52,13.912 M 168.157,13.91 c 0,10.61 15.73,10.403 15.73,-0.602 0,-10.828 -15.73,-10.685 -15.73,0.602 m -17.539,19.961 -1.814,2.422 h -6.654 l 5.444,-6.051 h 6.046 l 5.444,6.051 h -6.653 z M 141.542,0 h 17.542 v 6.046 h -8.466 l 8.466,15.73 v 5.444 h -17.542 v -6.052 h 9.679 L 141.542,4.234 Z m -23.59,27.22 V 10.888 c 0,-4.234 0.607,-6.654 2.42,-8.471 2.421,-2.417 4.841,-3.024 7.863,-3.024 7.152,0 10.889,4.565 10.889,11.495 V 27.22 h -7.257 V 10.888 c 0,-2.815 -0.017,-5.444 -3.632,-5.444 -2.419,0 -3.629,1.812 -3.629,5.444 V 27.22 Z M 93.154,0 h 6.654 V 8.468 C 101.989,5.557 104.134,2.789 106.462,0 h 8.468 l -7.866,9.071 c 4.479,1.496 6.781,3.709 6.781,9.073 0,6.308 -4.928,9.076 -10.407,9.076 -0.405,0 -0.809,-0.003 -1.213,-0.003 l -9.071,0.003 z m 9.679,13.308 h -3.025 v 7.86 h 3.025 c 1.021,0 2.244,0.177 3.021,-0.605 0.608,-0.602 1.21,-1.812 1.21,-3.021 0.037,-2.541 -1.124,-4.364 -4.231,-4.234 M 271.594,0 h 6.653 V 8.468 C 280.429,5.557 282.573,2.789 284.901,0 h 8.468 l -7.865,9.071 c 4.478,1.496 6.78,3.709 6.78,9.073 0,6.308 -4.928,9.076 -10.407,9.076 -0.404,0 -0.809,-0.003 -1.213,-0.003 l -9.07,0.003 z m 9.677,13.308 h -3.024 v 7.86 h 3.024 c 1.022,0 2.245,0.177 3.023,-0.605 0.607,-0.602 1.21,-1.812 1.21,-3.021 0.036,-2.541 -1.125,-4.364 -4.233,-4.234 M 52.625,0 h 7.261 V 11.49 L 67.145,0 H 75.61 L 65.932,13.912 75.008,27.22 H 67.752 L 59.886,15.122 V 27.22 h -7.261 z m -18.75,0 h 7.257 v 10.281 h 7.864 v 6.051 h -7.864 v 4.836 h 7.864 V 27.22 H 33.875 Z" /></g><g
           transform="translate(307.6816,265.7754)"
           id="g32"><path
             id="path34"
             style="fill:#000000;fill-opacity:1;fill-rule:nonzero;stroke:none"
             d="m 0,0 c 3.958,2.977 9.806,5.363 17.167,6.224 4.775,0.864 21.536,3.582 24.634,19.301 10.728,-1.298 16.669,-7.42 23.757,-13.391 -4.142,10.123 -9.281,16.47 -7.345,27.414 17.683,-3.265 27.445,14.676 30.241,19.209 7.813,14.824 18.65,18.755 28.82,18.904 -7.376,6.258 -13.041,13.74 -9.145,29.985 0.759,4.43 2.344,19.814 -6.876,29.061 5.367,8.517 17.578,14.722 22.839,19.672 -8.528,0.586 -20.586,-0.976 -29.215,3.514 2.371,11.633 -10.021,24.733 -13.314,28.244 -13.162,12.286 -13.587,21.446 -10.111,29.54 -8.616,-4.052 -18.605,-2.924 -32.448,7.927 -4.909,3.278 -24.86,13.156 -39.036,-5.124 l -0.043,16.285 14.929,11.695 v 51.11 l -24.695,-18.693 -24.091,18.793 -0.136,-51.624 15.766,-11.281 v -16.348 c -14.116,18.343 -34.067,8.465 -38.976,5.187 -13.846,-10.851 -23.832,-11.979 -32.449,-7.927 3.477,-8.094 3.051,-17.254 -10.11,-29.54 -3.278,-3.511 -15.686,-16.611 -13.299,-28.244 -8.645,-4.49 -20.704,-2.928 -29.23,-3.514 5.245,-4.95 17.457,-11.155 22.838,-19.672 -9.237,-9.247 -7.634,-24.631 -6.876,-29.061 3.897,-16.245 -1.756,-23.727 -9.144,-29.985 10.169,-0.149 21.005,-4.08 28.819,-18.904 2.796,-4.533 12.559,-22.474 30.242,-19.209 1.932,-10.944 -3.207,-17.291 -7.346,-27.414 7.104,5.971 13.029,12.093 23.755,13.391 3.101,-15.719 19.861,-18.437 24.637,-19.301 7.358,-0.861 13.208,-3.247 17.092,-6.258 v -21.593 l -22.278,8.642 31.302,-45.305 30.54,45.638 -21.278,-8.856 z" /></g><g
           transform="translate(298.3555,211.2598)"
           id="g36"><path
             id="path38"
             style="fill:#ffff00;fill-opacity:1;fill-rule:nonzero;stroke:none"
             d="M 0,0 24.905,37.42 6.904,29.308 6.946,127.407 c -2.149,-0.303 -4.342,-0.463 -6.569,-0.463 -2.407,0 -4.771,0.179 -7.081,0.516 l 0.055,-98.125 -19.467,8.179 z" /></g><g
           transform="translate(291.3745,435.6582)"
           id="g40"><path
             id="path42"
             style="fill:#ffff00;fill-opacity:1;fill-rule:nonzero;stroke:none"
             d="m 0,0 0.091,67.915 -15.613,11.003 v 46.35 L 5.89,108.147 29.001,125.435 V 79.539 L 14.071,67.831 V 0.07 C 11.875,0.378 9.635,0.542 7.358,0.542 4.855,0.542 2.398,0.355 0,0" /></g><g
           transform="translate(195.0889,423.6577)"
           id="g44"><path
             id="path46"
             style="fill:#00ff00;fill-opacity:1;fill-rule:nonzero;stroke:none"
             d="m 0,0 c -6.118,-4.068 -17.335,-3.34 -24.419,-3.34 6.027,-4.431 14.93,-9.999 18.814,-16.577 2.19,1.703 6.195,4.098 10.881,5.045 5.046,0.989 9.446,0.218 13.33,0.989 -4.971,1.749 -9.281,3.312 -12.681,5.789 C 2.797,-5.819 1.193,-2.803 0,0" /></g><g
           transform="translate(402,423.6577)"
           id="g48"><path
             id="path50"
             style="fill:#00ff00;fill-opacity:1;fill-rule:nonzero;stroke:none"
             d="M 0,0 C 6.118,-4.068 17.335,-3.34 24.42,-3.34 18.392,-7.771 9.49,-13.339 5.605,-19.917 c -2.175,1.703 -6.18,4.098 -10.88,5.045 -5.032,0.989 -9.428,0.218 -13.316,0.989 4.956,1.749 9.267,3.312 12.665,5.789 C -2.796,-5.819 -1.181,-2.803 0,0" /></g><g
           transform="translate(242.3491,309.9795)"
           id="g52"><path
             id="path54"
             style="fill:#00ff00;fill-opacity:1;fill-rule:nonzero;stroke:none"
             d="M 0,0 C 3.035,1.689 4.759,2.852 7.736,4.685 7.33,1.725 6.86,0.692 6.317,-2.297 5.303,-7.346 4.474,-12.79 4.865,-16.687 c -3.551,-0.692 -8.613,-1.963 -11.804,-3.715 -1.936,-1.162 -3.853,-2.464 -5.636,-3.885 2.84,5.86 4.999,12.982 3.446,19.949 C -5.926,-3.388 -2.918,-1.71 0,0" /></g><g
           transform="translate(354.7568,309.9795)"
           id="g56"><path
             id="path58"
             style="fill:#00ff00;fill-opacity:1;fill-rule:nonzero;stroke:none"
             d="m 0,0 c -3.054,1.689 -4.775,2.852 -7.74,4.685 0.394,-2.96 0.864,-3.993 1.42,-6.982 1.013,-5.049 1.846,-10.493 1.439,-14.39 3.564,-0.692 8.628,-1.963 11.817,-3.715 1.935,-1.162 3.852,-2.464 5.621,-3.885 C 9.732,-18.427 7.572,-11.305 9.13,-4.338 5.923,-3.388 2.898,-1.71 0,0" /></g><g
           transform="translate(289.3481,280.2354)"
           id="g60"><path
             id="path62"
             style="fill:#ff0000;fill-opacity:1;fill-rule:nonzero;stroke:none"
             d="m 0,0 c -4.58,1.51 -10.35,2.072 -15.551,3.899 -14.902,5.428 -21.098,6.497 -21.447,33.306 l -0.073,0.063 c -25.209,-8.856 -29.653,0.034 -40.519,12.665 -7.951,9.218 -16.033,20.432 -28.138,16.956 10.881,4.623 9.732,17.126 9.763,28.566 -0.124,16.5 -1.088,24.457 24.224,33.291 l 0.031,0.03 c -15.537,13.051 -9.325,24.952 0.378,38.756 6.544,9.562 17.591,18.65 10.578,26.126 9.915,-7.122 17.291,2.069 28.306,7.237 12.497,6.037 20.644,6.364 32.57,-4.36 L 0.059,185.763 c -12.175,-3.364 -23.655,-12.585 -17.053,-37.416 -2.117,-1.346 -4.121,-2.85 -5.997,-4.496 -21.931,17.933 -38.421,5.449 -45.469,-12.333 -3.505,-14.581 -2.649,-34.277 30.155,-35.725 0.583,-2.463 1.357,-4.857 2.301,-7.17 -24.375,-15.718 -17.264,-35.31 -2.261,-47.335 17.167,-13.268 34.17,-1.616 38.324,6.226 z" /></g><g
           transform="translate(191.1455,364.3857)"
           id="g64"><path
             id="path66"
             style="fill:#ff0000;fill-opacity:1;fill-rule:nonzero;stroke:none"
             d="m 0,0 c -0.286,-4.174 -1.013,-8.132 -3.098,-11.093 -1.15,-1.65 -3.098,-3.614 -5.229,-4.896 l -5.777,-2.688 c 2.331,2.563 4.479,5.5 5.972,8.849 1.377,3.147 1.694,6.558 1.694,9.405 -0.059,3.337 -0.606,6.571 -1.302,9.881 -1.373,8.647 -0.513,18.392 4.916,25.56 2.128,2.503 4.244,4.102 7.161,5.577 3.959,1.706 8.344,2.557 12.681,2.557 C 10.91,40.273 5.608,36.966 2.402,30.823 -0.137,25.178 0,18.933 0.106,12.845 0.106,8.613 0.211,4.247 0,0" /></g><g
           transform="translate(405.9434,364.3857)"
           id="g68"><path
             id="path70"
             style="fill:#ff0000;fill-opacity:1;fill-rule:nonzero;stroke:none"
             d="m 0,0 c 0.301,-4.174 1.028,-8.132 3.098,-11.093 1.162,-1.65 3.113,-3.614 5.229,-4.896 l 5.777,-2.688 c -2.315,2.563 -4.478,5.5 -5.957,8.849 -1.376,3.147 -1.709,6.558 -1.709,9.405 0.059,3.337 0.606,6.571 1.299,9.881 1.376,8.647 0.516,18.392 -4.897,25.56 -2.144,2.503 -4.26,4.102 -7.162,5.577 -3.974,1.706 -8.343,2.557 -12.681,2.557 C -10.909,40.273 -5.59,36.966 -2.386,30.823 0.137,25.178 0,18.933 -0.105,12.845 -0.105,8.613 -0.211,4.247 0,0" /></g><g
           transform="translate(219.1631,452.9077)"
           id="g72"><path
             id="path74"
             style="fill:#ff0000;fill-opacity:1;fill-rule:nonzero;stroke:none"
             d="m 0,0 c 2.104,2.728 4.397,5.418 6.396,8.221 2.355,3.53 4.352,7.624 1.556,11.478 -1.24,1.698 -3.75,3.915 -5.397,5.372 C 3.81,17.471 0.453,10.865 -4.396,5.123 -6.391,2.646 -8.734,0.459 -10.94,-1.828 c -5.848,-6.501 -12.681,-15.213 -11.667,-24.528 0.316,-1.594 0.801,-2.865 1.556,-4.315 3.159,-4.55 7.361,-6.84 12.423,-8.903 -2.902,3.704 -4.58,8.063 -4.671,12.787 0.392,9.05 6.048,16.716 11.05,23.847 z" /></g><g
           transform="translate(377.9395,452.9077)"
           id="g76"><path
             id="path78"
             style="fill:#ff0000;fill-opacity:1;fill-rule:nonzero;stroke:none"
             d="m 0,0 c -2.102,2.728 -4.396,5.418 -6.392,8.221 -2.374,3.53 -4.369,7.624 -1.56,11.478 1.224,1.698 3.735,3.915 5.397,5.372 -1.251,-7.6 2.085,-14.206 6.951,-19.948 1.996,-2.477 4.323,-4.664 6.547,-6.951 5.848,-6.501 12.662,-15.213 11.664,-24.528 -0.332,-1.594 -0.8,-2.865 -1.568,-4.315 -3.144,-4.55 -7.346,-6.84 -12.426,-8.903 2.918,3.704 4.579,8.063 4.686,12.787 -0.392,9.05 -6.059,16.716 -11.078,23.847 z" /></g><g
           transform="translate(321.6328,430.3804)"
           id="g80"><path
             id="path82"
             style="fill:#ff0000;fill-opacity:1;fill-rule:nonzero;stroke:none"
             d="m 0,0 c 1.177,4.836 1.725,9.786 1.28,14.935 -0.258,1.889 -0.68,3.679 -1.268,5.552 -2.205,5.245 -5.53,8.517 -10.579,11.102 l -3.552,1.343 0.041,-27.929 C -9.078,4.071 -4.342,2.362 0,0" /></g><g
           transform="translate(274.1709,429.6816)"
           id="g84"><path
             id="path86"
             style="fill:#ff0000;fill-opacity:1;fill-rule:nonzero;stroke:none"
             d="m 0,0 c -1.275,5.104 -1.901,10.347 -1.444,15.626 0.692,4.913 2.174,8.622 5.59,12.285 3.175,2.978 6.903,4.898 10.986,6.131 L 15.08,5.612 C 9.676,4.567 4.598,2.648 0,0" /></g><g
           transform="translate(331.7549,423.0303)"
           id="g88"><path
             id="path90"
             style="fill:#ff0000;fill-opacity:1;fill-rule:nonzero;stroke:none"
             d="m 0,0 c 5.096,3.996 10.474,7.096 17.245,7.693 2.977,0.031 5.334,-0.342 8.112,-1.318 7.877,-3.421 12.833,-10.582 15.931,-18.291 0.954,-3.912 1.436,-8.123 1.208,-12.131 -0.59,-6.762 -3.141,-11.671 -8.811,-15.557 -4.897,-2.899 -9.912,-4.17 -15.564,-4.898 -1.195,-0.116 -2.391,-0.214 -3.588,-0.289 0.548,2.914 0.838,5.91 0.838,8.964 C 15.371,-21.632 9.445,-8.919 0,0" /></g><g
           transform="translate(254.0933,367.1143)"
           id="g92"><path
             id="path94"
             style="fill:#ff0000;fill-opacity:1;fill-rule:nonzero;stroke:none"
             d="m 0,0 c -4.729,-3.166 -8.98,-7.031 -11.958,-11.769 -1.768,-3.261 -2.598,-6.135 -2.75,-9.821 0.286,-9.355 6,-16.455 12.86,-22.229 6.032,-4.097 12.681,-6.821 20.07,-5.26 6.015,1.267 14.388,6.238 17.033,14.132 V -28 C 19.456,-24.907 6.439,-14.171 0,0" /></g><g
           transform="translate(342.5381,366.5928)"
           id="g96"><path
             id="path98"
             style="fill:#ff0000;fill-opacity:1;fill-rule:nonzero;stroke:none"
             d="m 0,0 c 4.444,-3.018 8.397,-6.686 11.295,-11.275 1.756,-3.263 2.585,-6.138 2.736,-9.823 -0.288,-9.343 -5.999,-16.474 -12.843,-22.234 -6.258,-3.565 -12.849,-6.149 -20.148,-5.046 -5.605,1.224 -9.187,4.185 -12.725,8.631 -1.677,2.398 -1.978,2.934 -3.308,5.409 l 0.01,6.785 C -19.498,-24.595 -6.544,-14.025 0,0" /></g><g
           transform="translate(250.5835,378.1904)"
           id="g100"><path
             id="path102"
             style="fill:#ff0000;fill-opacity:1;fill-rule:nonzero;stroke:none"
             d="m 0,0 c -7.013,0.346 -13.894,1.6 -20.084,5.252 -5.653,3.868 -8.207,8.771 -8.812,15.551 -0.228,4.002 0.272,8.221 1.224,12.118 3.339,8.343 8.721,15.804 17.456,18.846 2.206,0.592 4.247,0.81 6.574,0.773 C 3.374,51.92 8.893,48.62 14.154,44.411 4.89,35.517 -0.848,22.981 -0.848,9.013 -0.848,5.942 -0.554,2.93 0,0" /></g><g
           transform="translate(196.1035,343.0273)"
           id="g104"><path
             id="path106"
             style="fill:#ff0000;fill-opacity:1;fill-rule:nonzero;stroke:none"
             d="m 0,0 c -4.143,2.797 -5.777,3.008 -10.067,2.859 -2.812,-0.09 -5.895,-0.861 -8.023,-1.377 0.708,0 4.214,-0.497 6.465,-1.298 4.143,-1.452 7.635,-4.036 10.792,-7.119 2.691,-2.765 4.851,-5.819 6.783,-9.16 1.317,-2.207 2.737,-4.499 4.13,-6.619 4.533,-6.21 9.699,-11.381 17.5,-12.965 8.264,-1.542 13.782,1.556 20.644,5.713 -5.184,-1.18 -12.423,-1.571 -17.41,0.319 -7.193,3.096 -11.879,9.628 -16.776,15.441 C 9.7,-9.233 5.5,-3.716 0,0" /></g><g
           transform="translate(400.9854,343.0273)"
           id="g108"><path
             id="path110"
             style="fill:#ff0000;fill-opacity:1;fill-rule:nonzero;stroke:none"
             d="m 0,0 c 4.158,2.797 5.776,3.008 10.08,2.859 2.799,-0.09 5.882,-0.861 8.01,-1.377 -0.708,0 -4.2,-0.497 -6.466,-1.298 -4.13,-1.452 -7.616,-4.036 -10.775,-7.119 -2.706,-2.765 -4.868,-5.819 -6.799,-9.16 -1.318,-2.207 -2.722,-4.499 -4.114,-6.619 -4.534,-6.21 -9.705,-11.381 -17.499,-12.965 -8.269,-1.542 -13.8,1.556 -20.645,5.713 5.183,-1.18 12.422,-1.571 17.409,0.319 7.194,3.096 11.879,9.628 16.777,15.441 C -9.7,-9.233 -5.485,-3.716 0,0" /></g><g
           transform="translate(289.3481,268.3271)"
           id="g112"><path
             id="path114"
             style="fill:#ff0000;fill-opacity:1;fill-rule:nonzero;stroke:none"
             d="m 0,0 c -3.81,2.598 -7.979,4.174 -12.454,5.076 -1.389,0.259 -2.856,0.498 -4.278,0.697 -7.765,1.527 -14.703,3.658 -19.721,10.142 -2.539,3.884 -3.384,7.421 -3.595,12.06 0.075,3.547 0.83,9.629 1.615,13.068 -0.046,-3.29 0.305,-13.507 6.634,-19.615 4.795,-4.186 10.838,-5.833 16.627,-7.977 l 1.1,-0.36 1.136,-0.309 c 3.748,-1.024 7.769,-1.662 11.455,-2.733 L 0,9.555 Z" /></g><g
           transform="translate(289.3789,482.6201)"
           id="g116"><path
             id="path118"
             style="fill:#ff0000;fill-opacity:1;fill-rule:nonzero;stroke:none"
             d="m 0,0 -0.031,-3.446 c -3.688,3.341 -8.358,6.5 -13.149,7.694 -4.577,0.906 -8.763,0.444 -13.178,-0.945 -4.999,-1.71 -9.837,-4.074 -14.268,-6.939 l -0.936,-0.575 c -3.961,-2.438 -8.597,-5.599 -13.463,-4.871 -4.642,1.118 -8.977,3.821 -11.788,6.065 2.206,-0.544 6.224,-0.476 7.947,-0.261 7.921,0.96 14.887,5.459 21.145,10.228 6.286,4.102 14.25,6.1 21.7,4.786 5.426,-1.24 9.313,-3.884 13.088,-7.989 z" /></g><g
           transform="translate(307.7402,479.1738)"
           id="g120"><path
             id="path122"
             style="fill:#ff0000;fill-opacity:1;fill-rule:nonzero;stroke:none"
             d="m 0,0 -0.032,3.452 2.949,3.74 c 3.778,4.106 7.647,6.734 13.073,7.974 7.45,1.33 15.414,-0.665 21.731,-4.767 6.243,-4.769 13.194,-9.272 21.114,-10.247 1.724,-0.211 5.742,-0.257 7.964,0.28 -2.81,-2.244 -7.151,-4.965 -11.786,-6.069 -4.869,-0.724 -9.508,2.433 -13.466,4.881 L 40.595,-0.19 C 36.165,2.659 31.357,5.049 26.343,6.732 21.912,8.138 17.745,8.607 13.162,7.677 8.357,6.5 3.704,3.34 0,0" /></g><g
           transform="translate(307.6504,268.3271)"
           id="g124"><path
             id="path126"
             style="fill:#ff0000;fill-opacity:1;fill-rule:nonzero;stroke:none"
             d="m 0,0 c 3.881,2.598 8.069,4.174 12.544,5.076 1.389,0.259 2.843,0.498 4.278,0.697 7.749,1.527 14.688,3.658 19.734,10.142 2.526,3.884 3.355,7.421 3.567,12.06 -0.074,3.547 -0.83,9.629 -1.601,13.068 0.044,-3.29 -0.304,-13.507 -6.633,-19.615 -4.807,-4.186 -10.838,-5.833 -16.627,-7.977 l -1.118,-0.36 -1.131,-0.309 C 9.278,11.758 5.257,11.12 1.569,10.049 L 0,9.509 Z" /></g><g
           transform="translate(307.6816,280.2959)"
           id="g128"><path
             id="path130"
             style="fill:#ff0000;fill-opacity:1;fill-rule:nonzero;stroke:none"
             d="M 0,0 -0.109,47.516 C 11.107,30.377 26.46,34.91 37.282,41.258 52.227,53.223 59.39,72.67 35.748,88.323 c 0.985,2.387 1.788,4.863 2.391,7.41 32.191,1.666 32.679,21.283 29.308,35.757 -7.157,17.889 -23.097,31.192 -45.162,12.852 -2.029,1.735 -4.2,3.304 -6.494,4.686 6.08,23.41 -4.2,32.725 -15.866,36.331 l 0.012,11.153 c 11.957,10.747 20.085,10.421 32.597,4.384 11.02,-5.186 18.411,-14.381 28.295,-7.262 -7.001,-7.457 4.049,-16.539 10.596,-26.122 9.697,-13.781 15.911,-25.699 0.376,-38.753 l 0.03,-0.028 C 97.143,119.896 96.16,111.94 96.055,95.45 96.087,83.997 94.924,71.484 105.818,66.876 93.712,70.365 85.628,59.139 77.68,49.933 66.829,37.283 62.366,28.412 37.177,37.256 L 37.099,37.193 C 36.738,10.396 30.54,9.31 15.625,3.899 10.428,2.057 4.653,1.497 0,0" /></g><g
           transform="translate(305.0234,368.6504)"
           id="g132"><path
             id="path134"
             style="fill:#ffffff;fill-opacity:1;fill-rule:evenodd;stroke:none"
             d="m 0,0 3.102,-12.366 12.586,-0.761 13.715,17.513 -3.517,11.98 -12.719,0.958 z" /></g><g
           transform="translate(272.0708,369.0811)"
           id="g136"><path
             id="path138"
             style="fill:#ffffff;fill-opacity:1;fill-rule:evenodd;stroke:none"
             d="m 0,0 c 0,-1.375 1.734,-7.365 2.161,-9.071 0.602,-2.408 -0.062,-2.657 2.21,-3.46 1.35,-0.479 2.702,-1.019 4.066,-1.498 2.011,-0.706 15.542,-5.976 16.382,-5.976 0.049,0 4.283,3.15 4.75,3.487 0.472,0.343 4.665,3.362 4.665,3.467 0,0.566 -1.965,7.619 -2.293,8.726 -0.204,0.689 -0.456,1.476 -0.605,2.177 -0.255,1.208 -0.226,1.01 -1.29,1.384 -1.335,0.469 -2.636,1.034 -3.958,1.498 -2.598,0.912 -5.379,1.992 -7.916,2.995 -1.311,0.518 -2.67,1.024 -3.957,1.5 -1.125,0.416 -2.984,1.002 -3.945,1.51 z" /></g><g
           transform="translate(306.4346,405.4443)"
           id="g140"><path
             id="path142"
             style="fill:#ffffff;fill-opacity:1;fill-rule:evenodd;stroke:none"
             d="m 0,0 11.96,-17.935 12.515,-0.777 c 0.368,1.582 1.596,4.023 2.18,5.736 0.267,0.781 2.205,5.56 2.205,5.818 0,0.229 -11.07,16.933 -12.194,18.629 L 4.414,11.972 Z" /></g><g
           transform="translate(262.5874,399.832)"
           id="g144"><path
             id="path146"
             style="fill:#ffffff;fill-opacity:1;fill-rule:evenodd;stroke:none"
             d="m 0,0 -1.214,-22.193 c 0.992,-0.664 9.737,-7.167 9.842,-7.167 0.405,0 8.827,6.139 10.101,6.85 l 1.294,21.97 -9.232,7.408 z" /></g><g
           transform="translate(278.9175,420.0024)"
           id="g148"><path
             id="path150"
             style="fill:#ffffff;fill-opacity:1;fill-rule:evenodd;stroke:none"
             d="m 0,0 -4.009,-12.044 9.465,-7.747 c 1.112,0.259 2.837,0.842 4.004,1.238 1.398,0.474 2.728,0.761 4.094,1.255 2.634,0.952 5.487,1.51 8.131,2.461 5.219,1.876 3.521,-0.221 5.628,4.962 0.522,1.287 0.914,2.521 1.422,3.82 0.418,1.071 1.197,2.904 1.433,3.916 -1.219,0.816 -9.59,8.023 -9.949,8.023 H 20.112 C 19.986,5.884 10.75,3.209 10.099,2.953 9.253,2.62 0.448,0.01 0,0" /></g><g
           transform="translate(254.7407,403.8486)"
           id="g152"><path
             id="path154"
             style="fill:#ffffff;fill-opacity:1;fill-rule:evenodd;stroke:none"
             d="m 0,0 c 0,-0.426 5.779,-2.707 6.525,-3.102 1.232,1.071 3.879,2.446 5.413,3.467 1.83,1.218 3.685,2.271 5.52,3.467 1.283,0.836 1.016,1.398 1.617,2.875 0.43,1.054 0.799,2.252 1.157,3.336 0.354,1.074 0.794,2.195 1.197,3.296 0.381,1.04 0.711,2.45 1.143,3.35 -0.293,0.555 -3.842,5.991 -3.958,5.991 -0.88,0 -5.328,-3.555 -6.018,-4.253 C 10.761,16.57 9.243,15.164 7.516,13.131 5.822,11.136 0,3.001 0,0" /></g><g
           transform="translate(300.5273,434.0171)"
           id="g156"><path
             id="path158"
             style="fill:#ffffff;fill-opacity:1;fill-rule:evenodd;stroke:none"
             d="m 0,0 -0.516,-6.823 10.145,-8.25 11.98,-0.439 h 0.963 c 0.382,0 4.056,5.123 4.493,5.777 -0.728,0.488 -1.529,1.35 -2.352,1.927 -0.878,0.616 -1.759,1.102 -2.696,1.688 -1.602,1.002 -4.068,2.121 -5.956,2.817 -3.36,1.236 -9.586,3.409 -14.029,3.409 H 0.749 C 0.382,0.106 0.332,0.034 0,0" /></g><g
           transform="translate(300.3135,340.3037)"
           id="g160"><path
             id="path162"
             style="fill:#ffffff;fill-opacity:1;fill-rule:evenodd;stroke:none"
             d="M 0,0 C 7.813,0 20.372,3.588 23.856,7.596 L 19.721,13.429 6.956,14.688 -3.328,6.647 -3.451,0.856 -3.423,0.107 -2.25,-0.024 Z" /></g><g
           transform="translate(337.126,398.0166)"
           id="g164"><path
             id="path166"
             style="fill:#ffffff;fill-opacity:1;fill-rule:evenodd;stroke:none"
             d="m 0,0 c -0.314,-0.396 -4.826,-12.072 -4.826,-12.354 0,-0.937 2.388,-7.817 2.824,-9.372 0.812,-2.893 0.29,-2.315 2.773,-3.325 0.689,-0.281 4.06,-1.595 4.566,-1.638 0.184,0.793 0.971,2.244 1.263,3.336 0.335,1.254 0.663,2.436 0.921,3.786 0.502,2.605 0.811,5.466 0.811,8.497 v 1.818 c 0,2.145 -0.275,3.875 -0.428,5.777 C 7.846,-2.74 7.596,-1.59 7.412,-0.864 7.182,0.049 6.775,0.78 6.615,1.473 Z" /></g><g
           transform="translate(253.6709,374.8574)"
           id="g168"><path
             id="path170"
             style="fill:#ffffff;fill-opacity:1;fill-rule:evenodd;stroke:none"
             d="m 0,0 c 0,-3.278 4.366,-11.44 5.882,-13.588 1.376,-1.948 2.668,-3.707 4.201,-5.533 0.664,-0.79 4.282,-4.521 5.215,-4.521 0.131,0 4.281,4.66 4.599,5.135 -0.527,1.101 -1.428,5.328 -1.795,6.763 -0.308,1.203 -0.537,2.243 -0.836,3.443 -0.283,1.133 -0.455,2.355 -1.237,2.935 C 14.887,-4.52 6.853,1.712 6.205,1.712 5.575,1.712 1.101,0.257 0,0" /></g></g></g></g></svg>