<?xml version="1.0" encoding="UTF-8" standalone="no"?>
<!-- Generator: Adobe Illustrator 13.0.0, SVG Export Plug-In . SVG Version: 6.00 Build 14948)  -->

<svg
   xmlns:dc="http://purl.org/dc/elements/1.1/"
   xmlns:cc="http://creativecommons.org/ns#"
   xmlns:rdf="http://www.w3.org/1999/02/22-rdf-syntax-ns#"
   xmlns:svg="http://www.w3.org/2000/svg"
   xmlns="http://www.w3.org/2000/svg"
   xmlns:sodipodi="http://sodipodi.sourceforge.net/DTD/sodipodi-0.dtd"
   xmlns:inkscape="http://www.inkscape.org/namespaces/inkscape"
   version="1.0"
   id="Layer_1"
   x="0px"
   y="0px"
   width="157.25864"
   height="252"
   viewBox="0 0 157.25863 252"
   enable-background="new 0 0 284.877 458.712"
   xml:space="preserve"
   sodipodi:docname="FK_Mlada_Boleslav_old.svg"
   inkscape:version="0.92.4 (5da689c313, 2019-01-14)"><metadata
   id="metadata884"><rdf:RDF><cc:Work
       rdf:about=""><dc:format>image/svg+xml</dc:format><dc:type
         rdf:resource="http://purl.org/dc/dcmitype/StillImage" /><dc:title></dc:title></cc:Work></rdf:RDF></metadata><defs
   id="defs882" /><sodipodi:namedview
   pagecolor="#ffffff"
   bordercolor="#666666"
   borderopacity="1"
   objecttolerance="10"
   gridtolerance="10"
   guidetolerance="10"
   inkscape:pageopacity="0"
   inkscape:pageshadow="2"
   inkscape:window-width="1366"
   inkscape:window-height="705"
   id="namedview880"
   showgrid="false"
   fit-margin-top="1"
   fit-margin-right="1"
   fit-margin-bottom="1"
   fit-margin-left="1"
   inkscape:zoom="1.0289681"
   inkscape:cx="142.91378"
   inkscape:cy="-0.086145303"
   inkscape:window-x="-8"
   inkscape:window-y="-8"
   inkscape:window-maximized="1"
   inkscape:current-layer="Layer_1" />

















<linearGradient
   id="SVGID_3_"
   gradientUnits="userSpaceOnUse"
   x1="119.8975"
   y1="418.53909"
   x2="136.83009"
   y2="418.53909">
	<stop
   offset="0.0041"
   style="stop-color:#79ADCF"
   id="stop130" />
	<stop
   offset="0.0564"
   style="stop-color:#73A7CA"
   id="stop132" />
	<stop
   offset="0.1312"
   style="stop-color:#6595BA"
   id="stop134" />
	<stop
   offset="0.2194"
   style="stop-color:#4F7BA1"
   id="stop136" />
	<stop
   offset="0.3179"
   style="stop-color:#315A82"
   id="stop138" />
	<stop
   offset="0.4237"
   style="stop-color:#003A63"
   id="stop140" />
	<stop
   offset="0.4339"
   style="stop-color:#003760"
   id="stop142" />
	<stop
   offset="0.9835"
   style="stop-color:#141515"
   id="stop144" />
</linearGradient>

<linearGradient
   id="SVGID_4_"
   gradientUnits="userSpaceOnUse"
   x1="124.3936"
   y1="416.14551"
   x2="132.084"
   y2="416.14551">
	<stop
   offset="0.0041"
   style="stop-color:#79ADCF"
   id="stop149" />
	<stop
   offset="0.0564"
   style="stop-color:#73A7CA"
   id="stop151" />
	<stop
   offset="0.1312"
   style="stop-color:#6595BA"
   id="stop153" />
	<stop
   offset="0.2194"
   style="stop-color:#4F7BA1"
   id="stop155" />
	<stop
   offset="0.3179"
   style="stop-color:#315A82"
   id="stop157" />
	<stop
   offset="0.4237"
   style="stop-color:#003A63"
   id="stop159" />
	<stop
   offset="0.4339"
   style="stop-color:#003760"
   id="stop161" />
	<stop
   offset="0.9835"
   style="stop-color:#141515"
   id="stop163" />
</linearGradient>

<linearGradient
   id="SVGID_5_"
   gradientUnits="userSpaceOnUse"
   x1="124.9395"
   y1="420.74219"
   x2="132.90331"
   y2="420.74219">
	<stop
   offset="0.0041"
   style="stop-color:#79ADCF"
   id="stop168" />
	<stop
   offset="0.2001"
   style="stop-color:#78ABCD"
   id="stop170" />
	<stop
   offset="0.2861"
   style="stop-color:#73A4C4"
   id="stop172" />
	<stop
   offset="0.3506"
   style="stop-color:#6C98B5"
   id="stop174" />
	<stop
   offset="0.4043"
   style="stop-color:#6287A0"
   id="stop176" />
	<stop
   offset="0.4514"
   style="stop-color:#557387"
   id="stop178" />
	<stop
   offset="0.4938"
   style="stop-color:#465C6C"
   id="stop180" />
	<stop
   offset="0.5327"
   style="stop-color:#36444F"
   id="stop182" />
	<stop
   offset="0.5678"
   style="stop-color:#252C33"
   id="stop184" />
	<stop
   offset="0.5785"
   style="stop-color:#1E242A"
   id="stop186" />
	<stop
   offset="0.843"
   style="stop-color:#004F8A"
   id="stop188" />
	<stop
   offset="1"
   style="stop-color:#79ADCF"
   id="stop190" />
</linearGradient>


<linearGradient
   id="SVGID_6_"
   gradientUnits="userSpaceOnUse"
   x1="166.3877"
   y1="413.67871"
   x2="166.3877"
   y2="425.34961">
	<stop
   offset="0.0041"
   style="stop-color:#79ADCF"
   id="stop197" />
	<stop
   offset="0.0564"
   style="stop-color:#73A7CA"
   id="stop199" />
	<stop
   offset="0.1312"
   style="stop-color:#6595BA"
   id="stop201" />
	<stop
   offset="0.2194"
   style="stop-color:#4F7BA1"
   id="stop203" />
	<stop
   offset="0.3179"
   style="stop-color:#315A82"
   id="stop205" />
	<stop
   offset="0.4237"
   style="stop-color:#003A63"
   id="stop207" />
	<stop
   offset="0.4339"
   style="stop-color:#003760"
   id="stop209" />
	<stop
   offset="0.9835"
   style="stop-color:#141515"
   id="stop211" />
</linearGradient>

<linearGradient
   id="SVGID_7_"
   gradientUnits="userSpaceOnUse"
   x1="165.64841"
   y1="410.98831"
   x2="171.606"
   y2="421.30701">
	<stop
   offset="0.0041"
   style="stop-color:#79ADCF"
   id="stop216" />
	<stop
   offset="0.0564"
   style="stop-color:#73A7CA"
   id="stop218" />
	<stop
   offset="0.1312"
   style="stop-color:#6595BA"
   id="stop220" />
	<stop
   offset="0.2194"
   style="stop-color:#4F7BA1"
   id="stop222" />
	<stop
   offset="0.3179"
   style="stop-color:#315A82"
   id="stop224" />
	<stop
   offset="0.4237"
   style="stop-color:#003A63"
   id="stop226" />
	<stop
   offset="0.4339"
   style="stop-color:#003760"
   id="stop228" />
	<stop
   offset="0.9835"
   style="stop-color:#141515"
   id="stop230" />
</linearGradient>








<linearGradient
   id="SVGID_10_"
   gradientUnits="userSpaceOnUse"
   x1="142.8311"
   y1="412.69431"
   x2="154.517"
   y2="424.38019">
	<stop
   offset="0.0041"
   style="stop-color:#79ADCF"
   id="stop281" />
	<stop
   offset="0.0564"
   style="stop-color:#73A7CA"
   id="stop283" />
	<stop
   offset="0.1312"
   style="stop-color:#6595BA"
   id="stop285" />
	<stop
   offset="0.2194"
   style="stop-color:#4F7BA1"
   id="stop287" />
	<stop
   offset="0.3179"
   style="stop-color:#315A82"
   id="stop289" />
	<stop
   offset="0.4237"
   style="stop-color:#003A63"
   id="stop291" />
	<stop
   offset="0.4339"
   style="stop-color:#003760"
   id="stop293" />
	<stop
   offset="0.9835"
   style="stop-color:#141515"
   id="stop295" />
</linearGradient>

<linearGradient
   id="SVGID_11_"
   gradientUnits="userSpaceOnUse"
   x1="140.3994"
   y1="415.52731"
   x2="156.9465"
   y2="421.54999">
	<stop
   offset="0.0041"
   style="stop-color:#79ADCF"
   id="stop300" />
	<stop
   offset="0.0564"
   style="stop-color:#73A7CA"
   id="stop302" />
	<stop
   offset="0.1312"
   style="stop-color:#6595BA"
   id="stop304" />
	<stop
   offset="0.2194"
   style="stop-color:#4F7BA1"
   id="stop306" />
	<stop
   offset="0.3179"
   style="stop-color:#315A82"
   id="stop308" />
	<stop
   offset="0.4237"
   style="stop-color:#003A63"
   id="stop310" />
	<stop
   offset="0.4339"
   style="stop-color:#003760"
   id="stop312" />
	<stop
   offset="0.9835"
   style="stop-color:#141515"
   id="stop314" />
</linearGradient>




<linearGradient
   id="SVGID_14_"
   gradientUnits="userSpaceOnUse"
   x1="235.1465"
   y1="174.55811"
   x2="232.81419"
   y2="180.966">
	<stop
   offset="0.2562"
   style="stop-color:#79ADCF"
   id="stop357" />
	<stop
   offset="0.573"
   style="stop-color:#78ACCF"
   id="stop359" />
	<stop
   offset="0.6872"
   style="stop-color:#72A6CB"
   id="stop361" />
	<stop
   offset="0.7685"
   style="stop-color:#689CC4"
   id="stop363" />
	<stop
   offset="0.8343"
   style="stop-color:#5A8FBA"
   id="stop365" />
	<stop
   offset="0.8906"
   style="stop-color:#467EAE"
   id="stop367" />
	<stop
   offset="0.9405"
   style="stop-color:#2C6A9F"
   id="stop369" />
	<stop
   offset="0.9845"
   style="stop-color:#00558E"
   id="stop371" />
	<stop
   offset="0.9959"
   style="stop-color:#004F8A"
   id="stop373" />
</linearGradient>


<linearGradient
   id="SVGID_45_"
   gradientUnits="userSpaceOnUse"
   x1="216.06149"
   y1="187.69141"
   x2="221.8555"
   y2="187.69141"
   gradientTransform="matrix(0.997,0.0779,-0.0779,0.997,18.7781,-19.3249)">
	<stop
   offset="0.1405"
   style="stop-color:#003760"
   id="stop872" />
	<stop
   offset="0.6198"
   style="stop-color:#292725"
   id="stop874" />
</linearGradient>
<g
   id="g1267"
   transform="matrix(0.54500427,0,0,0.54500427,1,1)"><g
     id="g40">
	<linearGradient
   y2="229.356"
   x2="284.87701"
   y1="229.356"
   x1="0"
   gradientUnits="userSpaceOnUse"
   id="SVGID_1_">
		<stop
   id="stop2"
   style="stop-color:#477D95"
   offset="0" />
		<stop
   id="stop4"
   style="stop-color:#407790"
   offset="0.0903" />
		<stop
   id="stop6"
   style="stop-color:#2D6682"
   offset="0.2233" />
		<stop
   id="stop8"
   style="stop-color:#034D6D"
   offset="0.3817" />
		<stop
   id="stop10"
   style="stop-color:#003E60"
   offset="0.4831" />
		<stop
   id="stop12"
   style="stop-color:#014E6E"
   offset="0.5614" />
		<stop
   id="stop14"
   style="stop-color:#27617E"
   offset="0.663" />
		<stop
   id="stop16"
   style="stop-color:#39708B"
   offset="0.7681" />
		<stop
   id="stop18"
   style="stop-color:#437A92"
   offset="0.878" />
		<stop
   id="stop20"
   style="stop-color:#477D95"
   offset="1" />
	</linearGradient>
	<ellipse
   id="ellipse23"
   ry="229.356"
   rx="142.438"
   cy="229.356"
   cx="142.438"
   style="fill:url(#SVGID_1_)" />
	<g
   id="g38">
		<ellipse
   id="ellipse25"
   ry="224.198"
   rx="137.586"
   cy="228.757"
   cx="141.895"
   style="fill:#003b5e" />
		<radialGradient
   gradientUnits="userSpaceOnUse"
   r="176.3736"
   cy="229.61079"
   cx="141.84669"
   id="SVGID_2_">
			<stop
   id="stop27"
   style="stop-color:#E9F5FB"
   offset="0" />
			<stop
   id="stop29"
   style="stop-color:#E4F3F9"
   offset="0.2782" />
			<stop
   id="stop31"
   style="stop-color:#D3EBF5"
   offset="0.6704" />
			<stop
   id="stop33"
   style="stop-color:#C0E3EF"
   offset="1" />
		</radialGradient>
		<ellipse
   id="ellipse36"
   ry="210.80901"
   rx="133.32201"
   cy="229.61099"
   cx="141.847"
   style="fill:url(#SVGID_2_)" />
	</g>
</g><g
     id="g50">
	<path
   id="path42"
   d="m 77.835,57.722 5.168,-12.38 -8.803,8.706 c -1.629,1.61 -40.013,40.081 -49.878,94.048 l -1.915,10.473 6.999,-9.544 C 39.092,96.038 77.835,57.722 77.835,57.722 Z"
   inkscape:connector-curvature="0"
   style="fill:#53b5e0" />
	<polygon
   id="polygon44"
   points="83.003,131.79 83.003,45.342 77.835,57.722 77.835,131.79 83,136.146 "
   style="fill:#a8d9ed" />
	<path
   id="path46"
   d="m 29.406,149.025 -6.999,9.544 9.414,-4.974 c 23.978,-12.67 46.661,-16.672 46.887,-16.711 L 83,136.146 77.835,131.791 c 0,-0.001 -23.36,3.988 -48.429,17.234 z"
   inkscape:connector-curvature="0"
   style="fill:#b9dbeb" />
	<path
   id="path48"
   d="M 29.406,149.025 C 54.475,135.779 77.835,131.79 77.835,131.79 V 57.722 c 0,0 -38.743,38.316 -48.429,91.303 z"
   inkscape:connector-curvature="0"
   style="fill:#088ac5" />
</g><g
     id="g62">
	<path
   id="path52"
   d="m 166.9,128.632 5.176,5.168 -0.157,-99.043 -5.161,4.139 c 0,18.517 0.142,89.736 0.142,89.736 z"
   inkscape:connector-curvature="0"
   style="fill:#a5cedf" />
	<path
   id="path54"
   d="m 166.758,38.896 5.161,-4.139 -4.04,-0.906 C 146.163,29.025 123.127,32.378 116.585,33.52 l -4.279,0.747 5.168,4.344 c 8.973,-1.567 30.054,-3.988 49.284,0.285 z"
   inkscape:connector-curvature="0"
   style="fill:#2e8bba" />
	<path
   id="path56"
   d="m 166.9,128.632 c 0,0 -8.614,-8.721 -25.874,-8.721 -7.268,0 -23.553,8.721 -23.553,8.721 l -5.168,5.168 c 0,0 9.824,-2.18 29.083,-2.18 19.259,0 30.688,2.18 30.688,2.18 z"
   inkscape:connector-curvature="0"
   style="fill:#b9dbeb" />
	<polygon
   id="polygon58"
   points="117.474,128.632 117.474,38.61 112.306,34.267 112.306,133.8 "
   style="fill:#0987b4" />
	<path
   id="path60"
   d="m 117.474,38.61 v 90.021 c 0,0 5.99,-2.18 24.098,-2.18 18.229,0 25.329,2.18 25.329,2.18 0,0 -0.143,-71.219 -0.143,-89.736 -19.23,-4.272 -40.311,-1.851 -49.284,-0.285 z"
   inkscape:connector-curvature="0"
   style="fill:#00639d" />
</g><g
     id="g72">
	<path
   id="path64"
   d="m 206.29,57.532 -5.169,-12.38 8.803,8.705 c 1.629,1.611 40.014,40.081 49.878,94.048 l 1.915,10.473 -6.998,-9.543 C 245.032,95.848 206.29,57.532 206.29,57.532 Z"
   inkscape:connector-curvature="0"
   style="fill:#a9c8d9" />
	<polygon
   id="polygon66"
   points="201.121,131.6 201.121,45.152 206.29,57.532 206.29,131.6 201.124,135.955 "
   style="fill:#267ca7" />
	<path
   id="path68"
   d="m 254.719,148.835 6.998,9.543 -9.413,-4.974 c -23.979,-12.67 -46.661,-16.671 -46.888,-16.71 l -4.292,-0.739 5.166,-4.355 c 0,0 23.359,3.988 48.429,17.235 z"
   inkscape:connector-curvature="0"
   style="fill:#6ba2bf" />
	<path
   id="path70"
   d="M 254.719,148.835 C 229.649,135.588 206.29,131.6 206.29,131.6 V 57.532 c 0,0 38.742,38.316 48.429,91.303 z"
   inkscape:connector-curvature="0"
   style="fill:#004b80" />
</g><g
     id="g84">
	<path
   id="path74"
   d="m 167.66,237.299 5.177,-5.169 -0.157,168.554 -5.162,-4.14 c 0,-18.518 0.142,-159.245 0.142,-159.245 z"
   inkscape:connector-curvature="0"
   style="fill:#a5cedf" />
	<path
   id="path76"
   d="m 167.518,396.544 5.162,4.14 -4.041,0.905 c -21.716,4.826 -44.751,1.473 -51.294,0.332 l -4.279,-0.748 5.169,-4.344 c 8.973,1.567 30.053,3.989 49.283,-0.285 z"
   inkscape:connector-curvature="0"
   style="fill:#b9dbeb" />
	<path
   id="path78"
   d="m 167.66,237.299 h -49.426 l -5.169,-5.169 c 0,0 13.063,-2.773 29.373,-2.773 16.15,0 30.398,2.773 30.398,2.773 z"
   inkscape:connector-curvature="0"
   style="fill:#3a91bc" />
	<polygon
   id="polygon80"
   points="118.234,237.299 118.234,396.829 113.065,401.173 113.065,232.129 "
   style="fill:#0987b4" />
	<path
   id="path82"
   d="m 118.234,396.829 v -159.53 c 0,0 10.195,-2.18 25.094,-2.18 14.897,0 24.332,2.18 24.332,2.18 0,0 -0.143,140.728 -0.143,159.245 -19.229,4.274 -40.309,1.852 -49.283,0.285 z"
   inkscape:connector-curvature="0"
   style="fill:#00639d" />
</g><g
     id="g96">
	<path
   id="path86"
   d="m 29.162,265.914 -6.093,-3.16 0.701,4.2 c 1.472,7.623 2.66,15.205 4.165,24.801 1.185,7.553 2.526,16.113 4.385,27.19 l 0.094,0.559 5.321,-1.468 c -4.3,-25.629 -5.953,-38.557 -8.573,-52.122 z"
   inkscape:connector-curvature="0"
   style="fill:#3faddd" />
	<path
   id="path88"
   d="m 78.446,245.688 5.491,-7.243 -5.534,1.182 c -0.815,0.006 -21.797,3.781 -52.232,21.112 l -3.101,2.015 6.093,3.16 C 60.071,245.83 78.446,245.688 78.446,245.688 Z"
   inkscape:connector-curvature="0"
   style="fill:#52b2df" />
	<path
   id="path90"
   d="m 37.736,318.036 -5.321,1.468 0.206,0.528 c 16.791,43.006 41.195,64.51 42.226,65.404 l 9.09,7.318 -5.491,-11.466 c 0,10e-4 -24.218,-21.015 -40.71,-63.252 z"
   inkscape:connector-curvature="0"
   style="fill:#209ad2" />
	<polygon
   id="polygon92"
   points="83.937,238.444 78.446,245.688 78.446,381.289 83.937,392.755 "
   style="fill:#a8d9ed" />
	<path
   id="path94"
   d="m 37.736,318.036 c 16.491,42.237 40.709,63.253 40.709,63.253 V 245.688 c 0,0 -18.375,0.142 -49.284,20.226 2.621,13.565 4.274,26.493 8.575,52.122 z"
   inkscape:connector-curvature="0"
   style="fill:#0185c2" />
</g><g
     id="g108">
	<path
   id="path98"
   d="m 255.607,265.628 6.093,-3.16 -0.701,4.202 c -1.471,7.624 -2.66,15.203 -4.165,24.799 -1.184,7.553 -2.525,16.113 -4.385,27.189 l -0.094,0.56 -5.321,-1.468 c 4.301,-25.628 5.954,-38.556 8.573,-52.122 z"
   inkscape:connector-curvature="0"
   style="fill:#a9c8d9" />
	<path
   id="path100"
   d="m 206.324,245.402 -5.491,-7.243 5.534,1.182 c 0.815,0.007 21.797,3.783 52.232,21.113 l 3.101,2.014 -6.093,3.16 c -30.908,-20.084 -49.283,-20.226 -49.283,-20.226 z"
   inkscape:connector-curvature="0"
   style="fill:#006b99" />
	<path
   id="path102"
   d="m 247.034,317.751 5.321,1.468 -0.207,0.529 c -16.79,43.005 -41.194,64.509 -42.226,65.402 l -9.09,7.318 5.491,-11.466 c 0.001,10e-4 24.22,-21.014 40.711,-63.251 z"
   inkscape:connector-curvature="0"
   style="fill:#95c0ce" />
	<polygon
   id="polygon104"
   points="200.833,238.159 206.324,245.402 206.324,381.003 200.833,392.469 "
   style="fill:#267ca7" />
	<path
   id="path106"
   d="m 247.034,317.751 c -16.491,42.237 -40.71,63.252 -40.71,63.252 V 245.402 c 0,0 18.375,0.142 49.283,20.226 -2.619,13.566 -4.272,26.494 -8.573,52.123 z"
   inkscape:connector-curvature="0"
   style="fill:#00497d" />
</g><path
     id="path110"
     d="m 110.419,413.923 c 0.546,-0.289 0.992,-0.665 1.387,-1.081 l -0.481,-1.13 c -0.359,0.492 -0.838,0.896 -1.435,1.212 -0.597,0.316 -1.321,0.548 -2.173,0.692 l 1.13,0.889 c 0.574,-0.156 1.115,-0.339 1.572,-0.582 z"
     inkscape:connector-curvature="0"
     style="fill:#a5cedf" /><path
     id="path112"
     d="m 114.081,412.842 c 0,1.73 0,9.647 0,11.378 l 1.132,1.13 v -13.638 z"
     inkscape:connector-curvature="0"
     style="fill:#111211" /><path
     id="path114"
     d="m 114.081,412.842 1.132,-1.13 h -3.889 l 0.481,1.13 c 0.494,0 1.338,0 2.276,0 z"
     inkscape:connector-curvature="0"
     style="fill:#477d95" /><path
     id="path116"
     d="m 108.847,414.505 -1.13,-0.889 v 3.41 l 1.13,-1.267 c 0,-0.587 0,-0.772 0,-1.254 z"
     inkscape:connector-curvature="0"
     style="fill:#a5cedf" /><path
     id="path118"
     d="m 108.847,415.76 -1.13,1.267 v 0.008 c 0.423,-0.019 0.853,-0.067 1.288,-0.15 0.436,-0.081 0.891,-0.198 1.364,-0.349 l 1.067,-1.439 c 10e-4,-10e-4 -2.444,0.626 -2.589,0.663 z"
     inkscape:connector-curvature="0"
     style="fill:#111211" /><path
     id="path120"
     d="m 111.5,424.22 -1.131,1.13 h 4.844 l -1.132,-1.13 c -0.924,0 -1.657,0 -2.581,0 z"
     inkscape:connector-curvature="0"
     style="fill:#111211" /><path
     id="path122"
     d="m 111.5,416.535 -0.063,-1.439 -1.067,1.439 v 8.814 l 1.131,-1.13 c -0.001,-1.718 -0.001,-7.684 -0.001,-7.684 z"
     inkscape:connector-curvature="0"
     style="fill:#a5cedf" /><path
     id="path124"
     d="m 110.42,413.923 c -0.458,0.241 -0.998,0.426 -1.572,0.581 0,0.482 0,0.668 0,1.256 0.146,-0.038 2.589,-0.666 2.589,-0.666 l 0.063,1.439 c 0,0 0,5.968 0,7.685 0.925,0 1.658,0 2.582,0 0,-1.729 0,-9.646 0,-11.376 -0.938,0 -1.782,0 -2.276,0 -0.395,0.416 -0.841,0.792 -1.386,1.081 z"
     inkscape:connector-curvature="0"
     style="fill:#004e88" /><path
     id="path126"
     d="m 130.282,415.115 c -0.445,-0.227 -1.126,-0.342 -2.038,-0.342 -0.927,0 -1.611,0.112 -2.054,0.338 -0.444,0.225 -0.666,0.57 -0.666,1.037 0,0.469 0.22,0.813 0.66,1.035 0.441,0.222 1.128,0.332 2.06,0.332 0.918,0 1.6,-0.112 2.043,-0.336 0.443,-0.225 0.666,-0.568 0.666,-1.031 0,-0.46 -0.224,-0.805 -0.671,-1.033 z"
     inkscape:connector-curvature="0"
     style="fill:none" /><path
     id="path128"
     d="m 124.939,422.527 0.62,-1.13 h -5.483 l 1.56,1.13 c 1.344,0 2.64,0 3.303,0 z"
     inkscape:connector-curvature="0"
     style="fill:#477d95" /><path
     id="path147"
     d="m 134.669,413.05 c -1.441,-1.143 -3.751,-1.713 -6.929,-1.713 -2.604,0 -4.563,0.403 -5.875,1.208 -1.312,0.805 -1.968,2.006 -1.968,3.604 0,1.489 0.628,2.622 1.883,3.396 1.255,0.772 3.086,1.158 5.493,1.158 0.801,0 1.547,-0.063 2.236,-0.193 0.69,-0.129 1.339,-0.326 1.943,-0.592 l 1.45,-1.868 -1.902,0.831 c -0.524,0.231 -1.097,0.404 -1.698,0.517 -0.618,0.116 -1.301,0.175 -2.028,0.175 -2.185,0 -3.833,-0.334 -4.9,-0.992 -0.917,-0.564 -1.344,-1.337 -1.344,-2.432 0,-1.203 0.453,-2.042 1.428,-2.64 1.125,-0.691 2.902,-1.04 5.283,-1.04 2.902,0 4.997,0.493 6.227,1.467 1.166,0.926 1.733,2.422 1.733,4.575 0,2.115 -0.563,3.615 -1.722,4.585 -1.204,1.005 -3.157,1.516 -5.809,1.516 -2.346,0 -4.125,-0.318 -5.288,-0.944 -0.563,-0.304 -0.966,-0.683 -1.246,-1.14 l -1.56,-1.13 c 0.177,1.458 0.933,2.545 2.27,3.265 1.336,0.72 3.277,1.079 5.824,1.079 2.937,0 5.114,-0.592 6.533,-1.778 1.418,-1.188 2.127,-3.004 2.127,-5.452 0,-2.499 -0.72,-4.32 -2.161,-5.462 z"
     style="fill:url(#SVGID_3_)"
     inkscape:connector-curvature="0" /><path
     id="path166"
     d="m 130.796,414.107 c -0.614,-0.313 -1.448,-0.464 -2.552,-0.464 -1.116,0 -1.956,0.15 -2.564,0.458 -0.829,0.419 -1.286,1.147 -1.286,2.047 0,0.904 0.456,1.63 1.284,2.046 0.604,0.304 1.444,0.452 2.566,0.452 1.108,0 1.943,-0.15 2.554,-0.458 0.829,-0.42 1.286,-1.145 1.286,-2.04 0,-0.892 -0.458,-1.618 -1.288,-2.041 z m -0.509,3.073 c -0.443,0.224 -1.125,0.336 -2.043,0.336 -0.932,0 -1.618,-0.11 -2.06,-0.332 -0.44,-0.222 -0.66,-0.566 -0.66,-1.035 0,-0.467 0.222,-0.813 0.666,-1.037 0.442,-0.226 1.127,-0.338 2.054,-0.338 0.912,0 1.593,0.115 2.038,0.342 0.447,0.228 0.671,0.572 0.671,1.033 0,0.462 -0.223,0.806 -0.666,1.031 z"
     style="fill:url(#SVGID_4_)"
     inkscape:connector-curvature="0" /><path
     id="path193"
     d="m 125.875,423.147 c 0.521,0.193 1.216,0.288 2.122,0.288 1.286,0 2.283,-0.257 3.047,-0.783 0.829,-0.569 1.342,-1.428 1.524,-2.552 l 0.335,-2.052 -1.45,1.868 c -0.132,0.813 -0.481,1.414 -1.049,1.803 -0.566,0.391 -1.368,0.585 -2.407,0.585 -0.763,0 -1.338,-0.072 -1.729,-0.217 -0.391,-0.146 -0.626,-0.375 -0.709,-0.69 l -0.62,1.13 c 0.244,0.263 0.552,0.479 0.936,0.62 z"
     style="fill:url(#SVGID_5_)"
     inkscape:connector-curvature="0" /><path
     id="path195"
     d="m 131.044,422.652 c -0.764,0.526 -1.761,0.783 -3.047,0.783 -0.906,0 -1.602,-0.095 -2.122,-0.288 -0.384,-0.142 -0.692,-0.357 -0.936,-0.62 -0.663,0 -1.959,0 -3.304,0 0.28,0.457 0.683,0.836 1.246,1.14 1.163,0.626 2.942,0.944 5.288,0.944 2.651,0 4.604,-0.511 5.809,-1.516 1.158,-0.97 1.722,-2.47 1.722,-4.585 0,-2.153 -0.567,-3.649 -1.733,-4.575 -1.229,-0.974 -3.324,-1.467 -6.227,-1.467 -2.381,0 -4.158,0.349 -5.283,1.04 -0.975,0.598 -1.428,1.437 -1.428,2.64 0,1.095 0.427,1.867 1.344,2.432 1.067,0.658 2.716,0.992 4.9,0.992 0.728,0 1.41,-0.059 2.028,-0.175 0.602,-0.112 1.174,-0.285 1.698,-0.517 l 1.903,-0.832 -0.335,2.052 c -0.181,1.125 -0.694,1.983 -1.523,2.552 z m -0.246,-4.464 c -0.61,0.308 -1.445,0.458 -2.554,0.458 -1.122,0 -1.962,-0.148 -2.566,-0.452 -0.828,-0.416 -1.284,-1.142 -1.284,-2.046 0,-0.899 0.457,-1.628 1.286,-2.047 0.608,-0.308 1.448,-0.458 2.564,-0.458 1.104,0 1.938,0.151 2.552,0.464 0.83,0.423 1.288,1.148 1.288,2.041 0,0.896 -0.457,1.621 -1.286,2.04 z"
     inkscape:connector-curvature="0"
     style="fill:#004e88" /><path
     id="path214"
     d="m 162.564,421.071 c 0.885,-0.986 2.424,-1.746 4.576,-2.259 0,0 1.96,-0.426 1.957,-0.426 1.818,-0.366 3.678,-0.945 3.678,-2.471 0,-0.804 -0.448,-1.477 -1.231,-1.848 -0.55,-0.262 -1.272,-0.39 -2.207,-0.39 -1.257,0 -2.191,0.205 -2.86,0.623 -0.494,0.31 -0.833,0.757 -1.036,1.282 l 0.917,1.083 c 0,-0.638 0.239,-1.107 0.72,-1.407 0.479,-0.301 1.231,-0.451 2.26,-0.451 0.757,0 1.331,0.094 1.722,0.28 0.392,0.186 0.587,0.462 0.587,0.827 0,0.536 -0.924,0.99 -2.771,1.362 -0.832,0.171 -1.498,0.316 -1.996,0.436 -2.39,0.568 -4.108,1.436 -5.155,2.603 -1.047,1.166 -1.62,2.844 -1.722,5.033 l 1.252,-1.13 c 0.201,-1.334 0.636,-2.396 1.309,-3.147 z"
     style="fill:url(#SVGID_6_)"
     inkscape:connector-curvature="0" /><path
     id="path233"
     d="m 163.317,413.645 c 1.206,-0.769 3.088,-1.159 5.595,-1.159 2.601,0 4.546,0.335 5.785,0.995 1.048,0.557 1.515,1.281 1.515,2.351 0,0.812 -0.226,1.413 -0.692,1.839 -0.381,0.35 -1.218,0.85 -3.03,1.248 l -2.525,0.484 c -3.368,0.599 -4.351,1.199 -4.831,1.657 l -2.044,1.949 2.824,-1.132 c 0.523,-0.498 1.939,-0.952 4.248,-1.362 1.091,-0.194 1.946,-0.359 2.564,-0.492 1.665,-0.365 2.851,-0.872 3.558,-1.518 0.707,-0.647 1.061,-1.537 1.061,-2.674 0,-1.482 -0.706,-2.6 -2.115,-3.35 -1.41,-0.751 -3.516,-1.126 -6.316,-1.126 -2.738,0 -4.806,0.444 -6.203,1.336 -1.397,0.89 -2.134,2.231 -2.21,4.023 l 1.337,-1.131 c 0.246,-0.816 0.721,-1.455 1.479,-1.938 z"
     style="fill:url(#SVGID_7_)"
     inkscape:connector-curvature="0" /><path
     id="path235"
     d="m 161.836,415.584 -1.337,1.131 h 5.858 v -0.048 l -0.917,-1.083 c -0.952,0 -2.336,0 -3.604,0 z"
     inkscape:connector-curvature="0"
     style="fill:#111211" /><path
     id="path237"
     d="m 163.089,423.009 c 0,0 11.014,0 12.839,0 l 1.13,-1.132 h -11.145 z"
     inkscape:connector-curvature="0"
     style="fill:#477d95" /><path
     id="path239"
     d="m 175.928,424.22 c -0.029,0 -0.067,0 -0.102,0 l 1.231,1.13 v -3.473 l -1.13,1.132 c 0.001,0.532 0.001,0.679 0.001,1.211 z"
     inkscape:connector-curvature="0"
     style="fill:#111211" /><path
     id="path241"
     d="m 161.253,424.22 -1.252,1.13 h 17.057 l -1.231,-1.13 c -2.07,0 -12.611,0 -14.574,0 z"
     inkscape:connector-curvature="0"
     style="fill:#111211" /><path
     id="path243"
     d="m 169.964,419.402 2.525,-0.484 c 1.813,-0.398 2.649,-0.898 3.03,-1.248 0.467,-0.426 0.692,-1.027 0.692,-1.839 0,-1.069 -0.467,-1.794 -1.515,-2.351 -1.239,-0.66 -3.185,-0.995 -5.785,-0.995 -2.507,0 -4.389,0.391 -5.595,1.159 -0.759,0.483 -1.233,1.122 -1.481,1.939 1.269,0 2.652,0 3.604,0 0.203,-0.525 0.542,-0.973 1.036,-1.282 0.669,-0.418 1.604,-0.623 2.86,-0.623 0.935,0 1.657,0.128 2.207,0.39 0.783,0.371 1.231,1.044 1.231,1.848 0,1.525 -1.859,2.104 -3.678,2.471 0.003,0 -1.957,0.426 -1.957,0.426 -2.152,0.513 -3.691,1.272 -4.576,2.259 -0.674,0.751 -1.108,1.813 -1.312,3.148 1.963,0 12.504,0 14.573,0 0.034,0 0.072,0 0.102,0 0,-0.532 0,-0.679 0,-1.211 -1.825,0 -12.839,0 -12.839,0 l 2.044,-1.949 c 0.483,-0.458 1.466,-1.059 4.834,-1.658 z"
     inkscape:connector-curvature="0"
     style="fill:#004e88" /><g
     id="g277">
	<g
   id="g256">
		<radialGradient
   gradientUnits="userSpaceOnUse"
   r="79.928299"
   cy="229.6563"
   cx="142.0518"
   id="SVGID_8_">
			<stop
   id="stop245"
   style="stop-color:#49422C"
   offset="0" />
			<stop
   id="stop247"
   style="stop-color:#4C432B"
   offset="0.2876" />
			<stop
   id="stop249"
   style="stop-color:#534727"
   offset="0.673" />
			<stop
   id="stop251"
   style="stop-color:#5B4D21"
   offset="1" />
		</radialGradient>
		<path
   id="path254"
   d="m 254.374,242.179 c -72.459,-28.175 -152.062,-28.263 -224.65,-0.421 0.002,-1.072 -0.016,-2.552 -0.013,-3.625 73.286,-28.108 151.526,-28.027 224.681,0.42 -0.009,1.071 -0.016,2.554 -0.018,3.626 z"
   style="fill:url(#SVGID_8_)"
   inkscape:connector-curvature="0" />
	</g>
	<g
   id="g275">
		<radialGradient
   gradientUnits="userSpaceOnUse"
   r="80.001404"
   cy="227.11079"
   cx="142.0547"
   id="SVGID_9_">
			<stop
   id="stop258"
   style="stop-color:#CEB135"
   offset="0" />
			<stop
   id="stop260"
   style="stop-color:#CFB23C"
   offset="0.1253" />
			<stop
   id="stop262"
   style="stop-color:#D0B54D"
   offset="0.2939" />
			<stop
   id="stop264"
   style="stop-color:#D4BC67"
   offset="0.4869" />
			<stop
   id="stop266"
   style="stop-color:#D8C589"
   offset="0.6983" />
			<stop
   id="stop268"
   style="stop-color:#DED1B3"
   offset="0.9221" />
			<stop
   id="stop270"
   style="stop-color:#E0D6C2"
   offset="1" />
		</radialGradient>
		<path
   id="path273"
   d="m 254.377,240.47 c -72.458,-28.175 -152.083,-28.263 -224.67,-0.421 0.002,-1.072 0.005,-4.016 0.008,-5.087 73.285,-28.109 151.532,-28.447 224.688,0 -0.004,1.071 -0.023,4.434 -0.026,5.508 z"
   style="fill:url(#SVGID_9_)"
   inkscape:connector-curvature="0" />
	</g>
</g><path
     id="path279"
     d="m 148.675,414.863 c -0.998,0 -1.794,0.33 -2.388,0.99 -0.593,0.66 -0.89,1.552 -0.89,2.677 0,1.124 0.297,2.02 0.89,2.688 0.594,0.665 1.39,0.999 2.388,0.999 1.003,0 1.8,-0.332 2.39,-0.995 0.59,-0.663 0.886,-1.56 0.886,-2.691 0,-1.125 -0.296,-2.017 -0.886,-2.677 -0.59,-0.66 -1.387,-0.991 -2.39,-0.991 z"
     inkscape:connector-curvature="0"
     style="fill:none" /><path
     id="path298"
     d="m 155.018,413.229 c -1.491,-1.249 -3.606,-1.874 -6.343,-1.874 -2.739,0 -4.854,0.625 -6.345,1.874 -1.492,1.25 -2.238,3.018 -2.238,5.301 0,2.291 0.746,4.063 2.238,5.314 1.491,1.252 3.605,1.879 6.345,1.879 2.736,0 4.852,-0.627 6.343,-1.879 1.492,-1.252 2.238,-3.023 2.238,-5.314 0,-2.283 -0.746,-4.051 -2.238,-5.301 z m -0.727,9.751 c -1.276,1.07 -3.165,1.612 -5.616,1.612 -2.452,0 -4.342,-0.542 -5.618,-1.612 -1.234,-1.038 -1.834,-2.492 -1.834,-4.45 0,-1.95 0.599,-3.4 1.833,-4.434 1.276,-1.069 3.166,-1.611 5.619,-1.611 2.451,0 4.342,0.542 5.617,1.611 1.234,1.033 1.833,2.483 1.833,4.434 0,1.958 -0.599,3.412 -1.834,4.45 z"
     style="fill:url(#SVGID_10_)"
     inkscape:connector-curvature="0" /><path
     id="path317"
     d="m 150.573,414.117 -0.561,0.988 0.561,-0.988 c -0.563,-0.254 -1.195,-0.386 -1.898,-0.386 -1.327,0 -2.413,0.46 -3.228,1.365 -0.783,0.872 -1.18,2.025 -1.18,3.434 0,1.404 0.396,2.561 1.175,3.438 h 0.002 c 0.813,0.916 1.9,1.379 3.23,1.379 1.335,0 2.424,-0.463 3.234,-1.374 0.778,-0.873 1.171,-2.033 1.171,-3.442 0,-1.406 -0.395,-2.561 -1.173,-3.431 -0.382,-0.429 -0.83,-0.755 -1.333,-0.983 z m 0.491,7.105 c -0.59,0.663 -1.387,0.995 -2.39,0.995 -0.998,0 -1.794,-0.334 -2.388,-0.999 -0.593,-0.668 -0.89,-1.563 -0.89,-2.688 0,-1.125 0.297,-2.017 0.89,-2.677 0.594,-0.66 1.39,-0.99 2.388,-0.99 1.003,0 1.8,0.33 2.39,0.99 0.59,0.66 0.886,1.552 0.886,2.677 0,1.132 -0.296,2.029 -0.886,2.692 z"
     style="fill:url(#SVGID_11_)"
     inkscape:connector-curvature="0" /><path
     id="path319"
     d="m 154.292,414.097 c -1.275,-1.069 -3.166,-1.611 -5.617,-1.611 -2.453,0 -4.343,0.542 -5.619,1.611 -1.234,1.033 -1.833,2.483 -1.833,4.434 0,1.958 0.6,3.412 1.834,4.45 1.276,1.07 3.166,1.612 5.618,1.612 2.451,0 4.34,-0.542 5.616,-1.612 1.235,-1.038 1.834,-2.492 1.834,-4.45 0,-1.951 -0.599,-3.401 -1.833,-4.434 z m -2.383,7.876 c -0.811,0.911 -1.899,1.374 -3.234,1.374 -1.33,0 -2.418,-0.463 -3.23,-1.379 h -0.002 c -0.779,-0.877 -1.175,-2.033 -1.175,-3.438 0,-1.408 0.396,-2.562 1.18,-3.434 0.814,-0.905 1.9,-1.365 3.228,-1.365 0.703,0 1.336,0.132 1.898,0.386 v -0.001 0.001 c 0.503,0.228 0.951,0.554 1.334,0.982 0.778,0.87 1.173,2.024 1.173,3.431 -10e-4,1.409 -0.393,2.57 -1.172,3.443 z"
     inkscape:connector-curvature="0"
     style="fill:#004e88" /><path
     id="path321"
     d="M 192.503,237.091"
     inkscape:connector-curvature="0"
     style="fill:#3a91bc" /><g
     id="g355">
	<g
   id="g334">
		<radialGradient
   gradientUnits="userSpaceOnUse"
   r="79.928299"
   cy="159.1631"
   cx="142.0518"
   id="SVGID_12_">
			<stop
   id="stop323"
   style="stop-color:#49422C"
   offset="0" />
			<stop
   id="stop325"
   style="stop-color:#4C432B"
   offset="0.2876" />
			<stop
   id="stop327"
   style="stop-color:#534727"
   offset="0.673" />
			<stop
   id="stop329"
   style="stop-color:#5B4D21"
   offset="1" />
		</radialGradient>
		<path
   id="path332"
   d="m 254.374,171.686 c -72.459,-28.175 -152.062,-28.263 -224.65,-0.421 0.002,-1.072 -0.016,-2.552 -0.013,-3.625 73.286,-28.109 151.526,-28.027 224.681,0.42 -0.009,1.071 -0.016,2.555 -0.018,3.626 z"
   style="fill:url(#SVGID_12_)"
   inkscape:connector-curvature="0" />
	</g>
	<g
   id="g353">
		<radialGradient
   gradientUnits="userSpaceOnUse"
   r="79.9935"
   cy="156.7144"
   cx="142.0547"
   id="SVGID_13_">
			<stop
   id="stop336"
   style="stop-color:#CEB135"
   offset="0" />
			<stop
   id="stop338"
   style="stop-color:#CFB23C"
   offset="0.1253" />
			<stop
   id="stop340"
   style="stop-color:#D0B54D"
   offset="0.2939" />
			<stop
   id="stop342"
   style="stop-color:#D4BC67"
   offset="0.4869" />
			<stop
   id="stop344"
   style="stop-color:#D8C589"
   offset="0.6983" />
			<stop
   id="stop346"
   style="stop-color:#DED1B3"
   offset="0.9221" />
			<stop
   id="stop348"
   style="stop-color:#E0D6C2"
   offset="1" />
		</radialGradient>
		<path
   id="path351"
   d="m 254.377,169.978 c -72.458,-28.176 -152.083,-28.263 -224.67,-0.422 0.002,-1.071 0.005,-3.824 0.008,-4.896 73.285,-28.109 151.532,-28.447 224.688,0 -0.004,1.072 -0.023,4.244 -0.026,5.318 z"
   style="fill:url(#SVGID_13_)"
   inkscape:connector-curvature="0" />
	</g>
</g><path
     id="path376"
     d="m 252.481,191.276 c -1.364,-1.836 -4.86,-3.973 -9.592,-5.861 -9.768,-3.893 -19.973,-7.37 -30.332,-10.335 -0.279,-0.08 -0.514,-0.267 -0.654,-0.521 l -0.217,-0.392 0.122,-0.432 c 0.079,-0.279 0.267,-0.515 0.52,-0.655 0.252,-0.141 0.552,-0.176 0.83,-0.096 10.43,2.985 20.89,6.049 30.539,10.406 9.488,4.283 9.394,8.706 8.784,7.886 z"
     style="fill:url(#SVGID_14_)"
     inkscape:connector-curvature="0" /><g
     id="g870">
	<g
   id="g477">
		<path
   id="path378"
   d="m 51.281,194.203 c 5.799,-1.844 11.721,-3.504 17.627,-4.999 l 1.404,-2.375 c -6.577,1.62 -13.12,3.46 -19.618,5.525 l -1.252,2.432 z"
   inkscape:connector-curvature="0"
   style="fill:#80a7c6;stroke:#80a7c6;stroke-width:2.1802001;stroke-linejoin:round" />
		<path
   id="path380"
   d="m 72.379,179.322 -1.14,-4.904 c -0.065,-0.283 -0.241,-0.527 -0.487,-0.68 -0.247,-0.152 -0.544,-0.201 -0.826,-0.134 -12.508,2.962 -24.988,6.726 -37.094,11.185 -0.274,0.101 -0.497,0.305 -0.617,0.571 -0.12,0.266 -0.13,0.567 -0.025,0.84 l 11.633,30.236 c 0.214,0.556 0.833,0.834 1.393,0.628 3.375,-1.243 6.847,-2.448 10.322,-3.58 0.274,-0.09 0.502,-0.285 0.634,-0.542 0.079,-0.155 0.118,-0.324 0.118,-0.494 0,-0.114 -0.019,-0.229 -0.054,-0.338 0,0 -3.288,-10.062 -3.864,-11.828 0.4,-0.126 0.813,-0.257 0.813,-0.257 5.394,-1.713 11.185,-3.356 17.213,-4.883 0.493,-0.125 0.823,-0.569 0.823,-1.056 0,-0.088 -0.011,-0.177 -0.033,-0.266 l -1.224,-4.88 c -0.069,-0.281 -0.249,-0.522 -0.498,-0.671 -0.249,-0.149 -0.545,-0.192 -0.826,-0.121 -6.21,1.571 -12.161,3.259 -17.69,5.017 0,0 -0.408,0.13 -0.804,0.256 -0.439,-1.361 -1.59,-4.923 -2.034,-6.296 0.4,-0.127 0.813,-0.258 0.813,-0.258 7.146,-2.27 14.764,-4.368 22.644,-6.236 0.501,-0.119 0.839,-0.566 0.839,-1.061 0,-0.082 -0.009,-0.165 -0.029,-0.248 z"
   inkscape:connector-curvature="0"
   style="fill:#004f8a" />
		<path
   id="path382"
   d="m 46.739,186.416 2.704,8.37 1.252,-2.432 c -0.505,-1.56 -1.009,-3.12 -1.513,-4.68 z"
   inkscape:connector-curvature="0"
   style="fill:#003760;stroke:#003760;stroke-width:2.1802001;stroke-linejoin:round" />
		<g
   id="g388">
			<path
   id="path384"
   d="m 57.641,213.678 c -1.403,-4.281 -2.803,-8.563 -4.196,-12.847 l -2.45,-1.257 c 0,0 3.324,10.178 4.206,12.874 z"
   inkscape:connector-curvature="0"
   style="fill:#003760" />
			<path
   id="path386"
   d="m 50.288,198.744 c -0.336,0.287 -0.467,0.748 -0.329,1.168 l 4.206,12.874 c 0.089,0.276 0.286,0.504 0.545,0.635 l 2.441,1.23 c 0.393,0.198 0.867,0.14 1.201,-0.147 0.334,-0.287 0.462,-0.748 0.325,-1.166 l -4.196,-12.845 c -0.089,-0.273 -0.282,-0.502 -0.538,-0.632 l -2.45,-1.258 c -0.393,-0.201 -0.869,-0.145 -1.205,0.141 z"
   inkscape:connector-curvature="0"
   style="fill:#003760" />
		</g>
		<g
   id="g399">
			<path
   id="path390"
   d="m 53.444,200.831 c 6.304,-2.002 12.652,-3.79 19.033,-5.361 l -2.345,-1.385 c -5.785,1.465 -11.586,3.093 -17.274,4.899 l -1.863,0.589 z"
   inkscape:connector-curvature="0"
   style="fill:#141515" />
			<linearGradient
   y2="197.45799"
   x2="73.566399"
   y1="197.45799"
   x1="49.9048"
   gradientUnits="userSpaceOnUse"
   id="SVGID_15_">
				<stop
   id="stop392"
   style="stop-color:#003760"
   offset="0.1322" />
				<stop
   id="stop394"
   style="stop-color:#292725"
   offset="1" />
			</linearGradient>
			<path
   id="path397"
   d="m 69.864,193.028 c -6.071,1.537 -11.903,3.191 -17.337,4.917 l -1.861,0.588 c -0.421,0.133 -0.721,0.508 -0.757,0.948 -0.038,0.441 0.194,0.86 0.587,1.061 l 2.45,1.258 c 0.257,0.132 0.553,0.157 0.828,0.069 6.237,-1.981 12.618,-3.779 18.963,-5.342 0.43,-0.105 0.753,-0.461 0.817,-0.899 0.065,-0.439 -0.143,-0.873 -0.523,-1.097 l -2.344,-1.386 C 70.438,193 70.144,192.957 69.864,193.028 Z"
   style="fill:url(#SVGID_15_)"
   inkscape:connector-curvature="0" />
		</g>
		<linearGradient
   y2="196.1178"
   x2="71.255898"
   y1="185.8604"
   x1="69.727501"
   gradientUnits="userSpaceOnUse"
   id="SVGID_16_">
			<stop
   id="stop401"
   style="stop-color:#003760"
   offset="0.0041" />
			<stop
   id="stop403"
   style="stop-color:#292725"
   offset="0.9421" />
		</linearGradient>
		<path
   id="path406"
   d="m 73.534,195.205 -2.165,-8.64 c -0.107,-0.429 -0.462,-0.751 -0.9,-0.815 -0.438,-0.063 -0.871,0.144 -1.095,0.524 l -1.404,2.375 c -0.146,0.247 -0.188,0.542 -0.119,0.82 l 1.224,4.882 c 0.071,0.283 0.252,0.525 0.502,0.673 l 2.345,1.385 c 0.379,0.225 0.854,0.198 1.207,-0.065 0.351,-0.263 0.512,-0.713 0.405,-1.139 z"
   style="fill:url(#SVGID_16_)"
   inkscape:connector-curvature="0" />
		<linearGradient
   y2="183.6221"
   x2="74.726601"
   y1="183.6221"
   x1="45.649399"
   gradientUnits="userSpaceOnUse"
   id="SVGID_17_">
			<stop
   id="stop408"
   style="stop-color:#003760"
   offset="0.1322" />
			<stop
   id="stop410"
   style="stop-color:#292725"
   offset="1" />
		</linearGradient>
		<path
   id="path413"
   d="m 74.204,180.052 -2.319,-1.414 c -0.245,-0.15 -0.539,-0.197 -0.819,-0.131 -7.932,1.881 -15.603,3.994 -22.799,6.28 l -1.857,0.589 c -0.421,0.133 -0.719,0.507 -0.756,0.947 -0.038,0.439 0.194,0.858 0.586,1.061 l 2.444,1.259 c 0.256,0.133 0.554,0.158 0.83,0.07 7.998,-2.541 16.196,-4.785 24.368,-6.669 0.432,-0.1 0.761,-0.451 0.832,-0.889 0.069,-0.436 -0.132,-0.872 -0.51,-1.103 z"
   style="fill:url(#SVGID_17_)"
   inkscape:connector-curvature="0" />
		<linearGradient
   y2="179.3898"
   x2="51.431099"
   y1="173.8188"
   x1="49.735401"
   gradientUnits="userSpaceOnUse"
   id="SVGID_18_">
			<stop
   id="stop415"
   style="stop-color:#B8D6E3"
   offset="0" />
			<stop
   id="stop417"
   style="stop-color:#B7D5E2"
   offset="0.4053" />
			<stop
   id="stop419"
   style="stop-color:#B0CFDF"
   offset="0.5513" />
			<stop
   id="stop421"
   style="stop-color:#A4C3D7"
   offset="0.6554" />
			<stop
   id="stop423"
   style="stop-color:#94B3CE"
   offset="0.7395" />
			<stop
   id="stop425"
   style="stop-color:#7E9FC1"
   offset="0.8116" />
			<stop
   id="stop427"
   style="stop-color:#6388B1"
   offset="0.8755" />
			<stop
   id="stop429"
   style="stop-color:#3F6EA0"
   offset="0.9332" />
			<stop
   id="stop431"
   style="stop-color:#00558E"
   offset="0.9845" />
			<stop
   id="stop433"
   style="stop-color:#004F8A"
   offset="0.9959" />
		</linearGradient>
		<path
   id="path436"
   d="m 72.504,171.673 c -0.256,-0.356 -0.701,-0.524 -1.129,-0.426 -13.876,3.199 -27.694,7.365 -41.068,12.383 -0.411,0.155 -0.69,0.542 -0.707,0.981 -0.016,0.44 0.234,0.846 0.634,1.03 l 2.519,1.16 c 0.263,0.121 0.562,0.133 0.833,0.033 12.024,-4.429 24.42,-8.167 36.843,-11.108 0.282,-0.067 0.526,-0.244 0.679,-0.492 l 1.442,-2.354 c 0.228,-0.375 0.211,-0.85 -0.046,-1.207 z"
   style="fill:url(#SVGID_18_)"
   inkscape:connector-curvature="0" />
		<linearGradient
   y2="182.8717"
   x2="72.278801"
   y1="171.68649"
   x1="71.455597"
   gradientUnits="userSpaceOnUse"
   id="SVGID_19_">
			<stop
   id="stop438"
   style="stop-color:#003760"
   offset="0.0041" />
			<stop
   id="stop440"
   style="stop-color:#292725"
   offset="0.6198" />
		</linearGradient>
		<path
   id="path443"
   d="m 74.698,180.735 -2.017,-8.671 c -0.1,-0.431 -0.451,-0.759 -0.887,-0.83 -0.437,-0.07 -0.873,0.129 -1.104,0.506 l -1.442,2.355 c -0.149,0.244 -0.197,0.537 -0.132,0.816 l 1.14,4.904 c 0.067,0.285 0.245,0.531 0.495,0.683 l 2.319,1.414 c 0.375,0.229 0.85,0.21 1.206,-0.048 0.354,-0.256 0.521,-0.701 0.422,-1.129 z"
   style="fill:url(#SVGID_19_)"
   inkscape:connector-curvature="0" />
		<linearGradient
   y2="201.58009"
   x2="45.929199"
   y1="201.58009"
   x1="29.5986"
   gradientUnits="userSpaceOnUse"
   id="SVGID_20_">
			<stop
   id="stop445"
   style="stop-color:#79ADCF"
   offset="0" />
			<stop
   id="stop447"
   style="stop-color:#78ACCF"
   offset="0.4266" />
			<stop
   id="stop449"
   style="stop-color:#72A6CB"
   offset="0.5803" />
			<stop
   id="stop451"
   style="stop-color:#689CC4"
   offset="0.6898" />
			<stop
   id="stop453"
   style="stop-color:#5A8FBA"
   offset="0.7784" />
			<stop
   id="stop455"
   style="stop-color:#467EAE"
   offset="0.8542" />
			<stop
   id="stop457"
   style="stop-color:#2C6A9F"
   offset="0.9213" />
			<stop
   id="stop459"
   style="stop-color:#00558E"
   offset="0.9805" />
			<stop
   id="stop461"
   style="stop-color:#004F8A"
   offset="0.9959" />
		</linearGradient>
		<path
   id="path464"
   d="M 45.855,215.647 34.227,185.423 c -0.102,-0.265 -0.304,-0.483 -0.562,-0.602 l -2.52,-1.16 c -0.403,-0.186 -0.878,-0.111 -1.202,0.193 -0.323,0.304 -0.431,0.771 -0.272,1.185 L 42.7,218.902 c 0.157,0.409 0.545,0.683 0.983,0.696 0.439,0.013 0.842,-0.24 1.025,-0.64 l 1.124,-2.465 c 0.121,-0.265 0.129,-0.573 0.023,-0.846 z"
   style="fill:url(#SVGID_20_)"
   inkscape:connector-curvature="0" />
		<g
   id="g475">
			<path
   id="path466"
   d="m 55.2,212.447 c -3.485,1.136 -6.948,2.336 -10.36,3.594 l -1.124,2.465 c 4.612,-1.734 9.257,-3.343 13.925,-4.829 z"
   inkscape:connector-curvature="0"
   style="fill:#141515" />
			<linearGradient
   y2="215.47749"
   x2="58.730499"
   y1="215.47749"
   x1="42.6255"
   gradientUnits="userSpaceOnUse"
   id="SVGID_21_">
				<stop
   id="stop468"
   style="stop-color:#003760"
   offset="0.0041" />
				<stop
   id="stop470"
   style="stop-color:#292725"
   offset="0.9421" />
			</linearGradient>
			<path
   id="path473"
   d="m 54.862,211.411 c -3.5,1.141 -6.999,2.354 -10.4,3.607 -0.272,0.1 -0.494,0.306 -0.615,0.571 l -1.124,2.465 c -0.183,0.402 -0.105,0.874 0.196,1.197 0.301,0.322 0.767,0.431 1.18,0.276 4.531,-1.704 9.198,-3.323 13.873,-4.81 0.422,-0.135 0.72,-0.511 0.755,-0.953 0.036,-0.441 -0.2,-0.861 -0.596,-1.06 l -2.441,-1.231 c -0.256,-0.128 -0.554,-0.151 -0.828,-0.062 z"
   style="fill:url(#SVGID_21_)"
   inkscape:connector-curvature="0" />
		</g>
	</g>
	<g
   id="g606">
		<path
   id="path479"
   d="m 131.307,198.116 c -5.415,-6.581 -11.096,-12.917 -16.885,-18.831 0,0 -0.307,-0.313 -0.604,-0.616 0.309,-0.292 0.626,-0.593 0.626,-0.593 3.402,-3.221 7.276,-6.669 11.844,-10.54 0.25,-0.211 0.385,-0.518 0.385,-0.832 0,-0.137 -0.025,-0.275 -0.078,-0.407 -0.175,-0.435 -0.609,-0.71 -1.077,-0.681 -5.711,0.348 -10.759,0.768 -15.434,1.281 -0.255,0.029 -0.493,0.146 -0.67,0.332 -4.366,4.578 -8.541,9.237 -12.408,13.848 0,0 -0.605,0.722 -1.191,1.422 -0.535,-3.314 -1.98,-12.273 -1.98,-12.273 -0.046,-0.286 -0.205,-0.542 -0.44,-0.712 -0.236,-0.169 -0.53,-0.237 -0.815,-0.189 -4.106,0.684 -8.24,1.457 -12.288,2.293 -0.285,0.059 -0.535,0.229 -0.693,0.473 -0.159,0.244 -0.213,0.542 -0.151,0.826 l 6.855,31.619 c 0.126,0.584 0.7,0.957 1.285,0.836 3.471,-0.716 7.018,-1.378 10.541,-1.968 0.533,-0.089 0.911,-0.551 0.911,-1.074 0,-0.059 -0.005,-0.118 -0.014,-0.177 0,0 -1.176,-7.176 -1.332,-8.121 0.144,-0.149 0.291,-0.304 0.291,-0.304 0.001,0 5.809,-5.906 5.809,-5.906 0,0 0.312,-0.308 0.612,-0.605 0.292,0.306 0.595,0.621 0.595,0.621 3.819,3.983 7.665,8.235 11.428,12.638 0.231,0.27 0.58,0.412 0.936,0.376 4.104,-0.401 8.408,-0.714 13.156,-0.956 0.411,-0.021 0.776,-0.272 0.942,-0.649 0.063,-0.141 0.093,-0.291 0.093,-0.44 -0.001,-0.247 -0.086,-0.493 -0.249,-0.691 z"
   inkscape:connector-curvature="0"
   style="fill:#004e88" />
		<linearGradient
   y2="171.8765"
   x2="86.669899"
   y1="161.38721"
   x1="84.820297"
   gradientUnits="userSpaceOnUse"
   id="SVGID_22_">
			<stop
   id="stop481"
   style="stop-color:#B8D6E3"
   offset="0" />
			<stop
   id="stop483"
   style="stop-color:#B7D5E2"
   offset="0.4053" />
			<stop
   id="stop485"
   style="stop-color:#B0CFDF"
   offset="0.5513" />
			<stop
   id="stop487"
   style="stop-color:#A4C3D7"
   offset="0.6554" />
			<stop
   id="stop489"
   style="stop-color:#94B3CE"
   offset="0.7395" />
			<stop
   id="stop491"
   style="stop-color:#7E9FC1"
   offset="0.8116" />
			<stop
   id="stop493"
   style="stop-color:#6388B1"
   offset="0.8755" />
			<stop
   id="stop495"
   style="stop-color:#3F6EA0"
   offset="0.9332" />
			<stop
   id="stop497"
   style="stop-color:#00558E"
   offset="0.9845" />
			<stop
   id="stop499"
   style="stop-color:#004F8A"
   offset="0.9959" />
		</linearGradient>
		<path
   id="path502"
   d="m 95.285,167.583 c -0.231,-0.374 -0.665,-0.572 -1.099,-0.502 -5.403,0.866 -10.858,1.884 -16.212,3.025 -0.431,0.091 -0.764,0.433 -0.844,0.865 -0.081,0.433 0.105,0.872 0.474,1.113 l 2.311,1.515 c 0.241,0.158 0.536,0.214 0.818,0.155 4.02,-0.831 8.126,-1.597 12.205,-2.277 0.285,-0.047 0.54,-0.207 0.708,-0.442 l 1.601,-2.244 c 0.254,-0.359 0.27,-0.835 0.038,-1.208 z"
   style="fill:url(#SVGID_22_)"
   inkscape:connector-curvature="0" />
		<linearGradient
   y2="188.87601"
   x2="88.457001"
   y1="188.87601"
   x1="77.110397"
   gradientUnits="userSpaceOnUse"
   id="SVGID_23_">
			<stop
   id="stop504"
   style="stop-color:#79ADCF"
   offset="0" />
			<stop
   id="stop506"
   style="stop-color:#78ACCF"
   offset="0.4266" />
			<stop
   id="stop508"
   style="stop-color:#72A6CB"
   offset="0.5803" />
			<stop
   id="stop510"
   style="stop-color:#689CC4"
   offset="0.6898" />
			<stop
   id="stop512"
   style="stop-color:#5A8FBA"
   offset="0.7784" />
			<stop
   id="stop514"
   style="stop-color:#467EAE"
   offset="0.8542" />
			<stop
   id="stop516"
   style="stop-color:#2C6A9F"
   offset="0.9213" />
			<stop
   id="stop518"
   style="stop-color:#00558E"
   offset="0.9805" />
			<stop
   id="stop520"
   style="stop-color:#004F8A"
   offset="0.9959" />
		</linearGradient>
		<path
   id="path523"
   d="m 88.432,204.073 -6.855,-31.618 c -0.06,-0.28 -0.229,-0.524 -0.468,-0.681 l -2.311,-1.515 c -0.371,-0.242 -0.851,-0.238 -1.216,0.012 -0.364,0.251 -0.542,0.696 -0.448,1.128 l 7.676,35.413 c 0.094,0.429 0.435,0.759 0.867,0.839 0.431,0.08 0.869,-0.108 1.11,-0.476 l 1.49,-2.275 c 0.161,-0.243 0.217,-0.541 0.155,-0.827 z"
   style="fill:url(#SVGID_23_)"
   inkscape:connector-curvature="0" />
		<linearGradient
   y2="204.4541"
   x2="101.2612"
   y1="204.4541"
   x1="84.786598"
   gradientUnits="userSpaceOnUse"
   id="SVGID_24_">
			<stop
   id="stop525"
   style="stop-color:#003760"
   offset="0.0041" />
			<stop
   id="stop527"
   style="stop-color:#292725"
   offset="0.9421" />
		</linearGradient>
		<path
   id="path530"
   d="m 100.803,203.021 -2.223,-1.582 c -0.235,-0.167 -0.527,-0.234 -0.812,-0.187 -3.55,0.595 -7.123,1.262 -10.622,1.984 -0.284,0.058 -0.533,0.228 -0.691,0.47 l -1.49,2.275 c -0.242,0.369 -0.237,0.849 0.013,1.213 0.25,0.365 0.695,0.542 1.127,0.45 4.677,-0.999 9.467,-1.894 14.238,-2.659 0.438,-0.07 0.789,-0.397 0.89,-0.828 0.1,-0.43 -0.069,-0.879 -0.43,-1.136 z"
   style="fill:url(#SVGID_24_)"
   inkscape:connector-curvature="0" />
		<linearGradient
   y2="198.791"
   x2="101.2612"
   y1="198.791"
   x1="95.439903"
   gradientUnits="userSpaceOnUse"
   id="SVGID_25_">
			<stop
   id="stop532"
   style="stop-color:#003760"
   offset="0.0041" />
			<stop
   id="stop534"
   style="stop-color:#292725"
   offset="0.6198" />
		</linearGradient>
		<path
   id="path537"
   d="m 101.247,203.733 -1.572,-9.595 c -0.066,-0.408 -0.358,-0.744 -0.753,-0.866 l -2.069,-0.642 c -0.36,-0.112 -0.753,-0.03 -1.038,0.218 -0.285,0.249 -0.421,0.626 -0.36,0.999 l 1.418,8.657 c 0.047,0.287 0.207,0.543 0.444,0.712 l 2.223,1.581 c 0.358,0.255 0.835,0.269 1.208,0.036 0.373,-0.231 0.57,-0.666 0.499,-1.1 z"
   style="fill:url(#SVGID_25_)"
   inkscape:connector-curvature="0" />
		<path
   id="path539"
   d="m 104.854,184.662 c -0.406,-0.173 -0.878,-0.083 -1.193,0.228 l -1.399,1.38 -5.854,5.953 -0.666,0.696 c -0.196,0.206 -0.302,0.477 -0.302,0.754 0,0.091 0.011,0.183 0.035,0.273 0.094,0.365 0.372,0.656 0.732,0.768 l 2.069,0.642 c 0.389,0.121 0.825,0.002 1.112,-0.289 l 5.767,-5.864 c 0.196,-0.2 0.32,-0.48 0.324,-0.761 l 0.038,-2.761 c 0.006,-0.443 -0.256,-0.846 -0.663,-1.019 z"
   inkscape:connector-curvature="0"
   style="fill:#121312" />
		<path
   id="path541"
   d="m 118.085,199.06 c -3.79,-4.435 -7.663,-8.717 -11.511,-12.73 v 0 l -1.36,-1.419 c -0.306,-0.319 -0.774,-0.422 -1.187,-0.26 -0.411,0.162 -0.684,0.557 -0.69,1 l -0.039,2.761 c -0.003,0.286 0.105,0.563 0.304,0.769 4.149,4.327 8.19,8.805 12.011,13.308 0.247,0.291 0.629,0.431 1.006,0.37 0.376,-0.06 0.693,-0.314 0.837,-0.667 l 0.812,-2.014 c 0.151,-0.379 0.082,-0.809 -0.183,-1.118 z"
   inkscape:connector-curvature="0"
   style="fill:#003760" />
		<path
   id="path543"
   d="m 135.245,199.859 c -6.027,-7.531 -12.567,-14.91 -19.439,-21.929 -0.199,-0.205 -0.472,-0.322 -0.758,-0.328 l -2.763,-0.053 c -0.442,-0.008 -0.846,0.252 -1.021,0.658 -0.176,0.407 -0.088,0.878 0.222,1.194 l 1.378,1.408 c 5.746,5.871 11.385,12.159 16.76,18.692 0.108,0.132 0.246,0.236 0.402,0.305 l 3.929,1.731 c 0.46,0.202 0.998,0.064 1.305,-0.333 0.304,-0.397 0.299,-0.953 -0.015,-1.345 z"
   inkscape:connector-curvature="0"
   style="fill:#00437a" />
		<linearGradient
   y2="200.29491"
   x2="135.4834"
   y1="200.29491"
   x1="115.3545"
   gradientUnits="userSpaceOnUse"
   id="SVGID_26_">
			<stop
   id="stop545"
   style="stop-color:#003760"
   offset="0.0041" />
			<stop
   id="stop547"
   style="stop-color:#292725"
   offset="0.9421" />
		</linearGradient>
		<path
   id="path550"
   d="m 134.834,199.542 -3.931,-1.732 c -0.155,-0.068 -0.324,-0.099 -0.494,-0.091 -4.782,0.244 -9.119,0.559 -13.259,0.963 -0.404,0.04 -0.753,0.301 -0.904,0.677 l -0.813,2.014 c -0.142,0.354 -0.09,0.757 0.14,1.063 0.229,0.306 0.602,0.468 0.981,0.43 5.928,-0.6 11.944,-1.016 17.881,-1.237 0.508,-0.02 0.935,-0.386 1.029,-0.885 0.097,-0.497 -0.166,-0.996 -0.63,-1.202 z"
   style="fill:url(#SVGID_26_)"
   inkscape:connector-curvature="0" />
		<linearGradient
   y2="167.1371"
   x2="120.4158"
   y1="160.70171"
   x1="119.9658"
   gradientUnits="userSpaceOnUse"
   id="SVGID_27_">
			<stop
   id="stop552"
   style="stop-color:#B8D6E3"
   offset="0" />
			<stop
   id="stop554"
   style="stop-color:#B7D5E2"
   offset="0.4053" />
			<stop
   id="stop556"
   style="stop-color:#B0CFDF"
   offset="0.5513" />
			<stop
   id="stop558"
   style="stop-color:#A4C3D7"
   offset="0.6554" />
			<stop
   id="stop560"
   style="stop-color:#94B3CE"
   offset="0.7395" />
			<stop
   id="stop562"
   style="stop-color:#7E9FC1"
   offset="0.8116" />
			<stop
   id="stop564"
   style="stop-color:#6388B1"
   offset="0.8755" />
			<stop
   id="stop566"
   style="stop-color:#3F6EA0"
   offset="0.9332" />
			<stop
   id="stop568"
   style="stop-color:#00558E"
   offset="0.9845" />
			<stop
   id="stop570"
   style="stop-color:#004F8A"
   offset="0.9959" />
		</linearGradient>
		<path
   id="path573"
   d="m 132.353,164.19 c -0.111,-0.52 -0.581,-0.883 -1.111,-0.86 -7.331,0.314 -14.759,0.89 -22.078,1.71 -0.354,0.039 -0.665,0.249 -0.836,0.56 -0.171,0.312 -0.178,0.687 -0.02,1.005 l 0.918,1.859 c 0.203,0.411 0.641,0.651 1.097,0.601 4.639,-0.51 9.652,-0.927 15.327,-1.273 0.116,-0.007 0.231,-0.033 0.339,-0.076 l 5.705,-2.285 c 0.493,-0.197 0.771,-0.721 0.659,-1.241 z"
   style="fill:url(#SVGID_27_)"
   inkscape:connector-curvature="0" />
		<linearGradient
   y2="178.9641"
   x2="106.2399"
   y1="172.98289"
   x1="99.111801"
   gradientUnits="userSpaceOnUse"
   id="SVGID_28_">
			<stop
   id="stop575"
   style="stop-color:#B8D6E3"
   offset="0" />
			<stop
   id="stop577"
   style="stop-color:#B2D0E0"
   offset="0.1216" />
			<stop
   id="stop579"
   style="stop-color:#A1C0D6"
   offset="0.2869" />
			<stop
   id="stop581"
   style="stop-color:#85A5C5"
   offset="0.4773" />
			<stop
   id="stop583"
   style="stop-color:#5C83AF"
   offset="0.6863" />
			<stop
   id="stop585"
   style="stop-color:#215D94"
   offset="0.9082" />
			<stop
   id="stop587"
   style="stop-color:#004F8A"
   offset="0.9959" />
		</linearGradient>
		<path
   id="path590"
   d="m 111.18,167.5 -0.918,-1.859 c -0.157,-0.319 -0.461,-0.541 -0.812,-0.595 -0.352,-0.054 -0.707,0.066 -0.953,0.323 -4.504,4.7 -8.87,9.567 -12.977,14.465 -0.1,0.12 -0.174,0.26 -0.216,0.411 l -1.237,4.494 c -0.137,0.494 0.091,1.017 0.545,1.255 0.454,0.238 1.012,0.127 1.341,-0.265 l 2.723,-3.249 c 3.837,-4.576 7.981,-9.2 12.314,-13.745 0.318,-0.332 0.393,-0.825 0.19,-1.235 z"
   style="fill:url(#SVGID_28_)"
   inkscape:connector-curvature="0" />
		<linearGradient
   y2="176.7829"
   x2="95.3741"
   y1="175.7861"
   x1="92.051804"
   gradientUnits="userSpaceOnUse"
   id="SVGID_29_">
			<stop
   id="stop592"
   style="stop-color:#003760"
   offset="0.0041" />
			<stop
   id="stop594"
   style="stop-color:#292725"
   offset="0.6198" />
		</linearGradient>
		<path
   id="path597"
   d="m 97.433,180.359 -1.997,-12.375 c -0.071,-0.437 -0.397,-0.787 -0.828,-0.888 -0.431,-0.101 -0.879,0.068 -1.136,0.428 l -1.601,2.244 c -0.167,0.233 -0.235,0.523 -0.189,0.807 l 2.36,14.627 c 0.083,0.506 0.505,0.886 1.018,0.915 0.511,0.028 0.974,-0.305 1.11,-0.799 l 1.238,-4.494 c 0.041,-0.152 0.05,-0.31 0.025,-0.465 z"
   style="fill:url(#SVGID_29_)"
   inkscape:connector-curvature="0" />
		<linearGradient
   y2="171.55569"
   x2="132.3779"
   y1="171.55569"
   x1="111.1738"
   gradientUnits="userSpaceOnUse"
   id="SVGID_30_">
			<stop
   id="stop599"
   style="stop-color:#003760"
   offset="0.0041" />
			<stop
   id="stop601"
   style="stop-color:#292725"
   offset="0.6198" />
		</linearGradient>
		<path
   id="path604"
   d="m 132.227,163.867 c -0.272,-0.464 -0.845,-0.659 -1.344,-0.459 l -5.705,2.285 c -0.109,0.044 -0.21,0.104 -0.299,0.18 -4.6,3.897 -8.503,7.371 -11.934,10.621 l -1.431,1.354 c -0.321,0.304 -0.427,0.772 -0.267,1.186 0.16,0.412 0.554,0.688 0.996,0.696 l 2.763,0.053 c 0.285,0.005 0.562,-0.102 0.77,-0.299 5.171,-4.895 10.621,-9.679 16.199,-14.218 0.419,-0.341 0.526,-0.935 0.252,-1.399 z"
   style="fill:url(#SVGID_30_)"
   inkscape:connector-curvature="0" />
	</g>
	<g
   id="g770">
		<polygon
   id="polygon608"
   points="151.578,172.07 153.516,172.102 155.359,171.502 "
   style="fill:#004b72" />
		<polygon
   id="polygon610"
   points="183.61,173.393 185.354,174.242 187.277,174.472 "
   style="fill:#00335b" />
		<path
   id="path612"
   d="m 199.974,169.507 c -0.17,-0.236 -0.427,-0.396 -0.714,-0.441 -6.81,-1.098 -13.669,-1.979 -20.387,-2.621 -0.465,-0.044 -0.905,0.211 -1.097,0.636 -3.083,6.816 -5.972,13.575 -8.588,20.089 0,0 0,0 0,0 0,0 -0.514,1.277 -1.01,2.516 -0.297,-1.301 -0.604,-2.644 -0.604,-2.644 -1.542,-6.75 -3.314,-13.813 -5.266,-20.994 -0.125,-0.459 -0.532,-0.784 -1.008,-0.803 -6.769,-0.271 -13.759,-0.319 -20.776,-0.143 -0.289,0.008 -0.564,0.13 -0.765,0.341 -0.198,0.211 -0.306,0.493 -0.297,0.784 l 1.026,32.324 c 0.019,0.598 0.518,1.069 1.116,1.055 3.507,-0.086 6.625,-0.116 9.536,-0.089 0.599,0.005 1.09,-0.474 1.1,-1.072 0,0 0.383,-23.712 0.411,-25.432 0.711,-0.107 1.222,-0.184 1.94,-0.292 2.797,8.682 5.394,17.539 7.703,26.356 0.119,0.454 0.53,0.781 0.997,0.813 l 8.494,0.57 c 0.465,0.031 0.914,-0.235 1.095,-0.666 3.59,-8.575 7.399,-17.001 11.317,-25.09 0.697,0.205 1.194,0.352 1.885,0.554 -0.206,1.706 -3.052,25.263 -3.052,25.263 -0.005,0.044 -0.008,0.088 -0.008,0.132 0,0.542 0.403,1.011 0.954,1.08 3.2,0.403 6.403,0.861 9.522,1.362 0.591,0.095 1.147,-0.304 1.247,-0.894 l 5.412,-31.876 c 0.053,-0.288 -0.014,-0.581 -0.183,-0.818 z"
   inkscape:connector-curvature="0"
   style="fill:#004e88" />
		<g
   id="g616">
			<path
   id="path614"
   d="m 187.277,174.472 -1.924,-0.23 c -1.121,9.36 -2.253,18.72 -3.393,28.08 l 2.155,-1.671 c 0.402,-3.314 3.162,-26.179 3.162,-26.179 z"
   inkscape:connector-curvature="0"
   style="fill:#2d6085" />
		</g>
		<linearGradient
   y2="186.37061"
   x2="202.41991"
   y1="186.37061"
   x1="192.58501"
   gradientUnits="userSpaceOnUse"
   id="SVGID_31_">
			<stop
   id="stop618"
   style="stop-color:#003760"
   offset="0.0041" />
			<stop
   id="stop620"
   style="stop-color:#292725"
   offset="0.9421" />
		</linearGradient>
		<path
   id="path623"
   d="m 201.904,167.588 c -0.376,-0.234 -0.855,-0.216 -1.215,0.044 l -2.243,1.627 c -0.23,0.167 -0.387,0.418 -0.434,0.7 l -5.412,31.876 c -0.049,0.288 0.02,0.582 0.189,0.82 l 1.59,2.208 c 0.257,0.356 0.703,0.525 1.132,0.426 0.428,-0.099 0.754,-0.446 0.828,-0.878 l 6.064,-35.716 c 0.076,-0.437 -0.122,-0.874 -0.499,-1.107 z"
   style="fill:url(#SVGID_31_)"
   inkscape:connector-curvature="0" />
		<linearGradient
   y2="168.9622"
   x2="189.2019"
   y1="160.2412"
   x1="190.29201"
   gradientUnits="userSpaceOnUse"
   id="SVGID_32_">
			<stop
   id="stop625"
   style="stop-color:#B8D6E3"
   offset="0" />
			<stop
   id="stop627"
   style="stop-color:#B7D5E2"
   offset="0.4053" />
			<stop
   id="stop629"
   style="stop-color:#B0CFDF"
   offset="0.5513" />
			<stop
   id="stop631"
   style="stop-color:#A4C3D7"
   offset="0.6554" />
			<stop
   id="stop633"
   style="stop-color:#94B3CE"
   offset="0.7395" />
			<stop
   id="stop635"
   style="stop-color:#7E9FC1"
   offset="0.8116" />
			<stop
   id="stop637"
   style="stop-color:#6388B1"
   offset="0.8755" />
			<stop
   id="stop639"
   style="stop-color:#3F6EA0"
   offset="0.9332" />
			<stop
   id="stop641"
   style="stop-color:#00558E"
   offset="0.9845" />
			<stop
   id="stop643"
   style="stop-color:#004F8A"
   offset="0.9959" />
		</linearGradient>
		<path
   id="path646"
   d="m 202.392,168.266 c -0.102,-0.428 -0.449,-0.754 -0.882,-0.826 -7.872,-1.318 -15.894,-2.354 -23.842,-3.078 -0.404,-0.037 -0.797,0.156 -1.016,0.499 -0.221,0.343 -0.23,0.779 -0.027,1.132 l 1.199,2.082 c 0.177,0.306 0.49,0.508 0.841,0.541 6.672,0.637 13.484,1.513 20.249,2.603 0.286,0.046 0.579,-0.022 0.813,-0.194 l 2.242,-1.626 c 0.356,-0.26 0.522,-0.706 0.423,-1.133 z"
   style="fill:url(#SVGID_32_)"
   inkscape:connector-curvature="0" />
		<linearGradient
   y2="165.7271"
   x2="150.65919"
   y1="157.3701"
   x1="150.65919"
   gradientUnits="userSpaceOnUse"
   id="SVGID_33_">
			<stop
   id="stop648"
   style="stop-color:#B8D6E3"
   offset="0" />
			<stop
   id="stop650"
   style="stop-color:#B7D5E2"
   offset="0.4053" />
			<stop
   id="stop652"
   style="stop-color:#B0CFDF"
   offset="0.5513" />
			<stop
   id="stop654"
   style="stop-color:#A4C3D7"
   offset="0.6554" />
			<stop
   id="stop656"
   style="stop-color:#94B3CE"
   offset="0.7395" />
			<stop
   id="stop658"
   style="stop-color:#7E9FC1"
   offset="0.8116" />
			<stop
   id="stop660"
   style="stop-color:#6388B1"
   offset="0.8755" />
			<stop
   id="stop662"
   style="stop-color:#3F6EA0"
   offset="0.9332" />
			<stop
   id="stop664"
   style="stop-color:#00558E"
   offset="0.9845" />
			<stop
   id="stop666"
   style="stop-color:#004F8A"
   offset="0.9959" />
		</linearGradient>
		<path
   id="path669"
   d="m 163.757,163.993 c -0.17,-0.373 -0.535,-0.62 -0.943,-0.638 -8.054,-0.359 -16.227,-0.412 -24.294,-0.16 -0.439,0.014 -0.827,0.29 -0.984,0.701 -0.157,0.41 -0.051,0.875 0.267,1.178 l 1.999,1.906 c 0.21,0.199 0.491,0.308 0.78,0.301 6.97,-0.175 13.911,-0.128 20.633,0.141 0.347,0.014 0.68,-0.138 0.896,-0.41 l 1.507,-1.889 c 0.254,-0.32 0.308,-0.757 0.139,-1.13 z"
   style="fill:url(#SVGID_33_)"
   inkscape:connector-curvature="0" />
		<path
   id="path671"
   d="m 141.643,166.157 c -0.008,-0.287 -0.13,-0.558 -0.337,-0.755 l -2,-1.906 c -0.32,-0.305 -0.793,-0.387 -1.197,-0.206 -0.403,0.18 -0.658,0.587 -0.645,1.029 l 1.15,36.198 c 0.014,0.439 0.289,0.827 0.699,0.984 0.411,0.157 0.875,0.052 1.179,-0.266 l 1.876,-1.967 c 0.201,-0.211 0.311,-0.495 0.301,-0.787 z"
   inkscape:connector-curvature="0"
   style="fill:#5289b3" />
		<linearGradient
   y2="179.9649"
   x2="173.8885"
   y1="178.0264"
   x1="170.0117"
   gradientUnits="userSpaceOnUse"
   id="SVGID_34_">
			<stop
   id="stop673"
   style="stop-color:#B8D6E3"
   offset="0" />
			<stop
   id="stop675"
   style="stop-color:#B2D0E0"
   offset="0.1216" />
			<stop
   id="stop677"
   style="stop-color:#A1C0D6"
   offset="0.2869" />
			<stop
   id="stop679"
   style="stop-color:#85A5C5"
   offset="0.4773" />
			<stop
   id="stop681"
   style="stop-color:#5C83AF"
   offset="0.6863" />
			<stop
   id="stop683"
   style="stop-color:#215D94"
   offset="0.9082" />
			<stop
   id="stop685"
   style="stop-color:#004F8A"
   offset="0.9959" />
		</linearGradient>
		<path
   id="path688"
   d="m 179.714,166.985 -1.199,-2.083 c -0.205,-0.353 -0.589,-0.564 -0.997,-0.544 -0.408,0.019 -0.771,0.265 -0.94,0.636 -3.15,6.918 -6.183,13.993 -9.014,21.027 -0.038,0.096 -0.063,0.197 -0.073,0.299 l -0.685,6.896 c -0.053,0.54 0.298,1.038 0.825,1.167 0.527,0.129 1.069,-0.149 1.271,-0.652 l 2.31,-5.75 c 2.604,-6.484 5.481,-13.214 8.55,-20.002 0.145,-0.32 0.127,-0.689 -0.048,-0.994 z"
   style="fill:url(#SVGID_34_)"
   inkscape:connector-curvature="0" />
		<linearGradient
   y2="180.6683"
   x2="163.06351"
   y1="168.07179"
   x1="179.0518"
   gradientUnits="userSpaceOnUse"
   id="SVGID_35_">
			<stop
   id="stop690"
   style="stop-color:#B8D6E3"
   offset="0" />
			<stop
   id="stop692"
   style="stop-color:#B5D3E2"
   offset="0.1734" />
			<stop
   id="stop694"
   style="stop-color:#ABC9DB"
   offset="0.3289" />
			<stop
   id="stop696"
   style="stop-color:#99B8D1"
   offset="0.4775" />
			<stop
   id="stop698"
   style="stop-color:#7FA0C1"
   offset="0.6219" />
			<stop
   id="stop700"
   style="stop-color:#5E84AF"
   offset="0.7632" />
			<stop
   id="stop702"
   style="stop-color:#326599"
   offset="0.9003" />
			<stop
   id="stop704"
   style="stop-color:#004F8A"
   offset="0.9959" />
		</linearGradient>
		<path
   id="path707"
   d="m 169.228,185.625 c -1.643,-7.128 -3.454,-14.343 -5.412,-21.47 -0.108,-0.395 -0.431,-0.696 -0.832,-0.779 -0.401,-0.083 -0.816,0.067 -1.071,0.388 l -1.507,1.889 c -0.217,0.271 -0.29,0.63 -0.199,0.966 1.943,7.151 3.708,14.186 5.243,20.907 l 1.379,6.041 c 0.119,0.521 0.598,0.878 1.132,0.845 0.533,-0.033 0.963,-0.449 1.016,-0.98 l 0.685,-6.896 c 0.003,-0.037 0.005,-0.073 0.005,-0.108 -0.002,-0.334 -0.189,-0.6 -0.439,-0.803 z"
   style="fill:url(#SVGID_35_)"
   inkscape:connector-curvature="0" />
		<linearGradient
   y2="186.0562"
   x2="164.4404"
   y1="186.0562"
   x1="150.06149"
   gradientUnits="userSpaceOnUse"
   id="SVGID_36_">
			<stop
   id="stop709"
   style="stop-color:#141515"
   offset="0.0041" />
			<stop
   id="stop711"
   style="stop-color:#003760"
   offset="0.2231" />
			<stop
   id="stop713"
   style="stop-color:#17466F"
   offset="0.2901" />
			<stop
   id="stop715"
   style="stop-color:#3D6A90"
   offset="0.4275" />
			<stop
   id="stop717"
   style="stop-color:#5B8DB0"
   offset="0.5614" />
			<stop
   id="stop719"
   style="stop-color:#74ACCC"
   offset="0.6886" />
			<stop
   id="stop721"
   style="stop-color:#87C2E1"
   offset="0.8074" />
			<stop
   id="stop723"
   style="stop-color:#93D1EE"
   offset="0.9145" />
			<stop
   id="stop725"
   style="stop-color:#97D6F2"
   offset="1" />
		</linearGradient>
		<path
   id="path728"
   d="m 164.405,198.524 c -2.396,-9.153 -5.091,-18.358 -8.009,-27.358 -0.09,-0.274 -0.284,-0.503 -0.542,-0.634 -0.258,-0.131 -1.481,-0.244 -2.661,-0.087 -1.181,0.156 -2.695,1.006 -2.705,1.608 l -0.427,26.355 c -0.005,0.291 0.107,0.571 0.311,0.779 l 1.908,1.953 c 0.308,0.315 0.773,0.414 1.183,0.251 0.409,-0.163 0.68,-0.555 0.687,-0.995 l 0.349,-21.571 c 2.282,7.375 4.394,14.782 6.287,22.102 0.103,0.397 0.421,0.704 0.822,0.792 0.4,0.087 0.818,-0.058 1.078,-0.377 l 1.51,-1.854 c 0.22,-0.269 0.297,-0.628 0.209,-0.964 z"
   style="fill:url(#SVGID_36_)"
   inkscape:connector-curvature="0" />
		<linearGradient
   y2="199.4492"
   x2="154.1494"
   y1="199.4492"
   x1="138.6133"
   gradientUnits="userSpaceOnUse"
   id="SVGID_37_">
			<stop
   id="stop730"
   style="stop-color:#003760"
   offset="0.0041" />
			<stop
   id="stop732"
   style="stop-color:#292725"
   offset="0.9421" />
		</linearGradient>
		<path
   id="path735"
   d="m 153.84,199.617 -1.908,-1.953 c -0.202,-0.208 -0.479,-0.326 -0.771,-0.329 -2.934,-0.026 -6.075,0.002 -9.607,0.089 -0.29,0.007 -0.563,0.128 -0.763,0.338 l -1.876,1.967 c -0.306,0.32 -0.388,0.793 -0.207,1.197 0.181,0.404 0.587,0.658 1.03,0.644 4.403,-0.139 8.88,-0.174 13.304,-0.103 0.442,0.007 0.845,-0.253 1.02,-0.66 0.173,-0.403 0.085,-0.874 -0.222,-1.19 z"
   style="fill:url(#SVGID_37_)"
   inkscape:connector-curvature="0" />
		<linearGradient
   y2="187.8203"
   x2="168.89391"
   y1="187.8203"
   x1="188.51559"
   gradientUnits="userSpaceOnUse"
   id="SVGID_38_">
			<stop
   id="stop737"
   style="stop-color:#79ADCF"
   offset="0.0041" />
			<stop
   id="stop739"
   style="stop-color:#73A7CA"
   offset="0.0564" />
			<stop
   id="stop741"
   style="stop-color:#6595BA"
   offset="0.1312" />
			<stop
   id="stop743"
   style="stop-color:#4F7BA1"
   offset="0.2194" />
			<stop
   id="stop745"
   style="stop-color:#315A82"
   offset="0.3179" />
			<stop
   id="stop747"
   style="stop-color:#003A63"
   offset="0.4237" />
			<stop
   id="stop749"
   style="stop-color:#003760"
   offset="0.4339" />
			<stop
   id="stop751"
   style="stop-color:#141515"
   offset="0.9835" />
		</linearGradient>
		<path
   id="path754"
   d="m 187.446,173.8 c -0.179,-0.228 -0.809,-1.061 -1.595,-1.387 -0.787,-0.327 -2.323,-0.145 -2.597,-0.05 -0.273,0.094 -0.498,0.293 -0.624,0.553 -4.077,8.374 -8.032,17.133 -11.759,26.035 -0.135,0.321 -0.107,0.687 0.071,0.984 l 1.229,2.038 c 0.213,0.352 0.604,0.555 1.015,0.524 0.41,-0.03 0.768,-0.29 0.926,-0.669 2.644,-6.369 5.474,-12.775 8.434,-19.135 l -2.355,19.5 c -0.054,0.437 0.162,0.863 0.544,1.08 0.384,0.217 0.859,0.183 1.206,-0.086 l 2.154,-1.671 c 0.23,-0.179 0.379,-0.441 0.414,-0.731 l 3.162,-26.179 c 0.035,-0.288 -0.046,-0.578 -0.225,-0.806 z"
   style="fill:url(#SVGID_38_)"
   inkscape:connector-curvature="0" />
		<linearGradient
   y2="200.10451"
   x2="174.1963"
   y1="200.10451"
   x1="160.75"
   gradientUnits="userSpaceOnUse"
   id="SVGID_39_">
			<stop
   id="stop756"
   style="stop-color:#003760"
   offset="0.0041" />
			<stop
   id="stop758"
   style="stop-color:#292725"
   offset="0.9421" />
		</linearGradient>
		<path
   id="path761"
   d="m 174.04,200.848 -1.229,-2.038 c -0.185,-0.306 -0.49,-0.5 -0.845,-0.524 l -8.559,-0.574 c -0.354,-0.023 -0.679,0.126 -0.901,0.4 l -1.512,1.854 c -0.26,0.319 -0.318,0.757 -0.15,1.133 0.168,0.376 0.533,0.625 0.943,0.645 3.751,0.177 7.527,0.431 11.224,0.753 0.408,0.036 0.803,-0.161 1.021,-0.509 0.216,-0.349 0.22,-0.789 0.008,-1.14 z"
   style="fill:url(#SVGID_39_)"
   inkscape:connector-curvature="0" />
		<linearGradient
   y2="202.439"
   x2="196.3555"
   y1="202.439"
   x1="180.87109"
   gradientUnits="userSpaceOnUse"
   id="SVGID_40_">
			<stop
   id="stop763"
   style="stop-color:#003760"
   offset="0.0041" />
			<stop
   id="stop765"
   style="stop-color:#292725"
   offset="0.9421" />
		</linearGradient>
		<path
   id="path768"
   d="m 196.15,203.589 -1.591,-2.208 c -0.169,-0.235 -0.426,-0.393 -0.712,-0.439 -3.143,-0.504 -6.371,-0.966 -9.596,-1.372 -0.286,-0.036 -0.575,0.043 -0.804,0.22 l -2.154,1.67 c -0.351,0.271 -0.502,0.727 -0.383,1.153 0.118,0.426 0.481,0.739 0.922,0.791 4.418,0.527 8.877,1.166 13.253,1.898 0.436,0.073 0.871,-0.125 1.105,-0.5 0.234,-0.375 0.218,-0.855 -0.04,-1.213 z"
   style="fill:url(#SVGID_40_)"
   inkscape:connector-curvature="0" />
	</g>
	<path
   id="path772"
   d="m 228.612,204.341 c 2.308,0.871 3.87,1.262 4.714,1.139 0.84,-0.124 1.474,-0.696 1.893,-1.726 0.433,-1.058 0.374,-1.932 -0.184,-2.617 -0.557,-0.686 -1.983,-1.483 -4.288,-2.354 -3.414,-1.285 -6.843,-2.508 -10.287,-3.664 -0.64,1.877 -1.282,3.754 -1.923,5.631 3.374,1.134 6.733,2.33 10.075,3.591 z"
   inkscape:connector-curvature="0"
   style="fill:none" />
	<path
   id="path774"
   d="m 232.942,191.423 c 2.156,0.81 3.615,1.185 4.389,1.095 0.771,-0.09 1.337,-0.579 1.694,-1.469 0.363,-0.905 0.317,-1.644 -0.142,-2.218 -0.458,-0.571 -1.834,-1.309 -4.134,-2.171 -3.38,-1.266 -6.774,-2.471 -10.183,-3.616 -0.546,1.607 -1.091,3.216 -1.639,4.824 3.353,1.125 6.691,2.312 10.015,3.555 z"
   inkscape:connector-curvature="0"
   style="fill:none" />
	<path
   id="path776"
   d="m 213.813,172.051 -1.331,-2.412 c -0.214,-0.387 -0.64,-0.605 -1.079,-0.555 -0.439,0.051 -0.805,0.362 -0.925,0.788 l -9.859,34.854 c -0.119,0.424 0.026,0.878 0.37,1.152 0.345,0.273 0.819,0.314 1.204,0.102 l 2.387,-1.316 c 0.255,-0.14 0.443,-0.377 0.522,-0.657 l 8.806,-31.132 c 0.076,-0.276 0.043,-0.571 -0.095,-0.824 z"
   inkscape:connector-curvature="0"
   style="fill:#749fc0" />
	<path
   id="path778"
   d="m 254.231,188.522 c -2.078,-2.797 -6.876,-5.125 -10.534,-6.585 -9.835,-3.92 -20.109,-7.421 -30.539,-10.406 -0.278,-0.08 -0.578,-0.045 -0.83,0.096 -0.253,0.141 -0.44,0.377 -0.52,0.655 l -8.805,31.133 c -0.163,0.578 0.171,1.179 0.749,1.344 9.826,2.821 19.496,6.158 28.74,9.92 v 0 c 4.318,1.759 7.726,2.352 10.42,1.813 2.649,-0.531 4.677,-2.228 6.024,-5.045 0.537,-1.122 0.837,-2.17 0.917,-3.205 0.056,-0.71 0.004,-1.414 -0.154,-2.091 -0.391,-1.684 -1.463,-3.26 -3.186,-4.687 0,0 -0.89,-0.736 -1.751,-1.45 1.117,-0.025 2.271,-0.052 2.271,-0.052 1.828,-0.042 3.396,-0.44 4.661,-1.188 1.281,-0.755 2.234,-1.831 2.912,-3.288 0.487,-1.042 0.76,-1.997 0.832,-2.919 0.116,-1.451 -0.291,-2.812 -1.207,-4.045 z m -21.586,3.695 c -3.287,-1.231 -6.646,-2.424 -9.985,-3.546 0,0 -0.409,-0.138 -0.806,-0.271 0.466,-1.376 1.717,-5.061 2.182,-6.43 0.395,0.133 0.801,0.269 0.801,0.269 3.396,1.14 6.83,2.36 10.212,3.627 3.64,1.364 4.285,2.17 4.497,2.436 0.323,0.403 0.627,1.019 0.56,1.881 -0.027,0.352 -0.117,0.745 -0.292,1.18 -0.598,1.49 -1.626,1.908 -2.383,1.997 -0.919,0.107 -2.395,-0.246 -4.786,-1.143 z m -12.715,1.83 c 0.395,0.132 0.801,0.268 0.801,0.268 3.432,1.153 6.901,2.388 10.315,3.674 3.643,1.377 4.4,2.306 4.647,2.612 0.372,0.458 0.723,1.159 0.646,2.135 -0.031,0.4 -0.135,0.845 -0.335,1.338 -0.67,1.641 -1.759,2.125 -2.556,2.244 -0.991,0.146 -2.576,-0.219 -5.135,-1.184 -3.304,-1.245 -6.685,-2.449 -10.048,-3.581 0,0 -0.41,-0.138 -0.809,-0.271 0.492,-1.433 1.988,-5.815 2.474,-7.235 z"
   inkscape:connector-curvature="0"
   style="fill:#004f8a" />
	
		<linearGradient
   gradientTransform="matrix(0.997,0.0779,-0.0779,0.997,18.7781,-19.3249)"
   y2="180.7282"
   x2="225.28551"
   y1="195.6255"
   x1="228.55569"
   gradientUnits="userSpaceOnUse"
   id="SVGID_41_">
		<stop
   id="stop780"
   style="stop-color:#79ADCF"
   offset="0.0041" />
		<stop
   id="stop782"
   style="stop-color:#75A8CB"
   offset="0.0739" />
		<stop
   id="stop784"
   style="stop-color:#6A9BBF"
   offset="0.1552" />
		<stop
   id="stop786"
   style="stop-color:#5886AC"
   offset="0.2423" />
		<stop
   id="stop788"
   style="stop-color:#416C93"
   offset="0.3334" />
		<stop
   id="stop790"
   style="stop-color:#244F77"
   offset="0.4266" />
		<stop
   id="stop792"
   style="stop-color:#003760"
   offset="0.5083" />
		<stop
   id="stop794"
   style="stop-color:#141515"
   offset="0.7934" />
	</linearGradient>
	<path
   id="path797"
   d="m 241.246,186.938 c -0.608,-0.761 -1.73,-1.727 -5.434,-3.114 -3.404,-1.275 -6.864,-2.504 -10.282,-3.652 l -1.831,-0.614 c -0.418,-0.14 -0.877,-0.016 -1.168,0.317 -0.291,0.332 -0.352,0.806 -0.156,1.2 l 1.215,2.453 c 0.128,0.259 0.355,0.457 0.63,0.55 3.395,1.14 6.81,2.353 10.148,3.603 2.989,1.12 3.577,1.723 3.664,1.832 0.079,0.098 0.289,0.361 -0.019,1.131 -0.293,0.731 -0.643,0.772 -0.81,0.792 -0.321,0.038 -1.249,-0.048 -3.879,-1.033 -3.34,-1.249 -6.72,-2.45 -10.049,-3.569 -0.273,-0.092 -0.571,-0.072 -0.831,0.057 l -2.46,1.217 c -0.396,0.195 -0.634,0.61 -0.604,1.05 0.03,0.44 0.322,0.819 0.739,0.96 l 1.845,0.62 c 3.311,1.113 6.646,2.297 9.915,3.521 -0.001,0 -0.001,0 -0.001,0 2.807,1.054 4.488,1.42 5.804,1.266 0.885,-0.104 3.063,-0.638 4.152,-3.35 1.089,-2.711 -0.048,-4.564 -0.588,-5.237 z"
   style="fill:url(#SVGID_41_)"
   inkscape:connector-curvature="0" />
	
		<linearGradient
   gradientTransform="matrix(0.997,0.0779,-0.0779,0.997,18.7781,-19.3249)"
   y2="190.01579"
   x2="229.0594"
   y1="210.36279"
   x1="222.7617"
   gradientUnits="userSpaceOnUse"
   id="SVGID_42_">
		<stop
   id="stop799"
   style="stop-color:#79ADCF"
   offset="0.0041" />
		<stop
   id="stop801"
   style="stop-color:#75A8CB"
   offset="0.0739" />
		<stop
   id="stop803"
   style="stop-color:#6A9BBF"
   offset="0.1552" />
		<stop
   id="stop805"
   style="stop-color:#5886AC"
   offset="0.2423" />
		<stop
   id="stop807"
   style="stop-color:#416C93"
   offset="0.3334" />
		<stop
   id="stop809"
   style="stop-color:#244F77"
   offset="0.4266" />
		<stop
   id="stop811"
   style="stop-color:#003760"
   offset="0.5083" />
		<stop
   id="stop813"
   style="stop-color:#141515"
   offset="0.7934" />
	</linearGradient>
	<path
   id="path816"
   d="m 237.386,199.226 c -0.642,-0.788 -1.854,-1.871 -5.57,-3.276 -3.438,-1.295 -6.935,-2.541 -10.392,-3.702 l -1.829,-0.613 c -0.418,-0.14 -0.881,-0.015 -1.168,0.316 -0.289,0.332 -0.351,0.806 -0.155,1.201 l 1.211,2.449 c 0.129,0.26 0.356,0.458 0.631,0.55 3.366,1.13 6.815,2.358 10.25,3.65 2.846,1.075 3.623,1.771 3.825,2.021 0.117,0.145 0.428,0.526 0.021,1.518 -0.393,0.964 -0.865,1.034 -1.043,1.06 -0.352,0.051 -1.361,-0.02 -4.169,-1.08 -3.325,-1.254 -6.729,-2.466 -10.113,-3.604 -0.273,-0.092 -0.572,-0.072 -0.83,0.056 l -2.465,1.217 c -0.396,0.196 -0.634,0.61 -0.605,1.051 0.031,0.44 0.323,0.819 0.741,0.96 l 1.847,0.62 c 3.34,1.123 6.695,2.318 9.973,3.553 3.004,1.132 4.808,1.509 6.223,1.302 1.112,-0.165 3.144,-0.848 4.255,-3.577 1.199,-2.933 -0.048,-4.943 -0.638,-5.672 z"
   style="fill:url(#SVGID_42_)"
   inkscape:connector-curvature="0" />
	
		<linearGradient
   gradientTransform="matrix(0.997,0.0779,-0.0779,0.997,18.7781,-19.3249)"
   y2="236.564"
   x2="233.70621"
   y1="154.8101"
   x1="217.3555"
   gradientUnits="userSpaceOnUse"
   id="SVGID_43_">
		<stop
   id="stop818"
   style="stop-color:#79ADCF"
   offset="0.0041" />
		<stop
   id="stop820"
   style="stop-color:#6397C0"
   offset="0.0191" />
		<stop
   id="stop822"
   style="stop-color:#336EA2"
   offset="0.0524" />
		<stop
   id="stop824"
   style="stop-color:#005790"
   offset="0.0774" />
		<stop
   id="stop826"
   style="stop-color:#004F8A"
   offset="0.0909" />
		<stop
   id="stop828"
   style="stop-color:#195E96"
   offset="0.1175" />
		<stop
   id="stop830"
   style="stop-color:#477EAE"
   offset="0.1719" />
		<stop
   id="stop832"
   style="stop-color:#6397C0"
   offset="0.2206" />
		<stop
   id="stop834"
   style="stop-color:#73A7CB"
   offset="0.2614" />
		<stop
   id="stop836"
   style="stop-color:#79ADCF"
   offset="0.2893" />
		<stop
   id="stop838"
   style="stop-color:#78ABCD"
   offset="0.3879" />
		<stop
   id="stop840"
   style="stop-color:#73A4C4"
   offset="0.4312" />
		<stop
   id="stop842"
   style="stop-color:#6C98B5"
   offset="0.4637" />
		<stop
   id="stop844"
   style="stop-color:#6287A0"
   offset="0.4908" />
		<stop
   id="stop846"
   style="stop-color:#557387"
   offset="0.5145" />
		<stop
   id="stop848"
   style="stop-color:#465C6C"
   offset="0.5359" />
		<stop
   id="stop850"
   style="stop-color:#36444F"
   offset="0.5554" />
		<stop
   id="stop852"
   style="stop-color:#252C33"
   offset="0.5731" />
		<stop
   id="stop854"
   style="stop-color:#1E242A"
   offset="0.5785" />
		<stop
   id="stop856"
   style="stop-color:#004F8A"
   offset="0.843" />
		<stop
   id="stop858"
   style="stop-color:#79ADCF"
   offset="1" />
	</linearGradient>
	<path
   id="path861"
   d="m 255.787,187.365 c -1.888,-2.537 -5.713,-4.969 -11.37,-7.229 -10.634,-4.236 -21.601,-7.944 -32.596,-11.02 -0.424,-0.119 -0.877,0.029 -1.149,0.373 -0.272,0.345 -0.313,0.819 -0.1,1.204 l 1.331,2.412 c 0.141,0.253 0.375,0.441 0.654,0.521 10.359,2.966 20.564,6.443 30.332,10.336 4.731,1.888 8.228,4.024 9.592,5.86 0.609,0.82 0.858,1.638 0.785,2.575 -0.051,0.657 -0.258,1.365 -0.633,2.167 -0.486,1.045 -1.156,1.807 -2.046,2.331 -0.939,0.556 -2.151,0.854 -3.602,0.887 l -5.194,0.118 c -0.455,0.01 -0.855,0.302 -1.006,0.732 -0.148,0.43 -0.017,0.908 0.335,1.197 l 4.004,3.313 c 1.346,1.114 2.172,2.293 2.452,3.5 0.107,0.461 0.143,0.94 0.104,1.427 -0.06,0.763 -0.292,1.559 -0.711,2.434 -1.065,2.227 -2.49,3.449 -4.485,3.849 -2.261,0.452 -5.262,-0.102 -9.17,-1.694 -9.316,-3.791 -19.061,-7.154 -28.962,-9.997 -0.277,-0.08 -0.574,-0.047 -0.827,0.093 l -2.387,1.315 c -0.387,0.213 -0.607,0.641 -0.556,1.08 0.051,0.439 0.363,0.805 0.789,0.924 10.279,2.876 20.504,6.375 30.39,10.397 4.679,1.907 8.451,2.534 11.53,1.918 3.28,-0.657 5.768,-2.713 7.393,-6.11 0.634,-1.322 1.001,-2.625 1.101,-3.897 0.07,-0.909 0.006,-1.802 -0.198,-2.675 -0.337,-1.451 -1.082,-2.811 -2.168,-4.078 1.2,-0.237 2.302,-0.621 3.261,-1.189 1.606,-0.947 2.847,-2.338 3.685,-4.136 0.585,-1.25 0.921,-2.455 1.012,-3.611 0.149,-1.917 -0.38,-3.701 -1.59,-5.327 z"
   style="fill:url(#SVGID_43_)"
   inkscape:connector-curvature="0" />
	
		<linearGradient
   gradientTransform="matrix(0.997,0.0779,-0.0779,0.997,18.7781,-19.3249)"
   y2="200.4854"
   x2="218.8555"
   y1="200.4854"
   x1="212.83501"
   gradientUnits="userSpaceOnUse"
   id="SVGID_44_">
		<stop
   id="stop863"
   style="stop-color:#003760"
   offset="0.0041" />
		<stop
   id="stop865"
   style="stop-color:#292725"
   offset="0.6198" />
	</linearGradient>
	<path
   id="path868"
   d="m 221.438,194.636 -1.212,-2.45 c -0.195,-0.395 -0.609,-0.633 -1.049,-0.604 -0.439,0.028 -0.817,0.318 -0.96,0.735 l -3.176,9.298 c -0.143,0.418 -0.018,0.88 0.313,1.172 0.332,0.291 0.807,0.354 1.202,0.158 l 2.464,-1.217 c 0.259,-0.128 0.456,-0.353 0.549,-0.625 l 1.923,-5.633 c 0.094,-0.275 0.073,-0.574 -0.054,-0.834 z"
   style="fill:url(#SVGID_44_)"
   inkscape:connector-curvature="0" />
</g><path
     id="path877"
     d="m 225.393,182.527 -1.215,-2.452 c -0.196,-0.395 -0.609,-0.633 -1.05,-0.604 -0.439,0.029 -0.818,0.32 -0.959,0.737 l -2.884,8.494 c -0.141,0.418 -0.017,0.879 0.314,1.17 0.332,0.291 0.807,0.353 1.202,0.157 l 2.46,-1.218 c 0.258,-0.127 0.456,-0.352 0.548,-0.625 l 1.638,-4.824 c 0.094,-0.275 0.074,-0.575 -0.054,-0.835 z"
     style="fill:url(#SVGID_45_)"
     inkscape:connector-curvature="0" /></g>
</svg>