<?xml version="1.0" encoding="UTF-8" standalone="no"?>
<!-- Generator: Adobe Illustrator 21.1.0, SVG Export Plug-In . SVG Version: 6.00 Build 0)  -->

<svg
   xmlns:dc="http://purl.org/dc/elements/1.1/"
   xmlns:cc="http://creativecommons.org/ns#"
   xmlns:rdf="http://www.w3.org/1999/02/22-rdf-syntax-ns#"
   xmlns:svg="http://www.w3.org/2000/svg"
   xmlns="http://www.w3.org/2000/svg"
   xmlns:sodipodi="http://sodipodi.sourceforge.net/DTD/sodipodi-0.dtd"
   xmlns:inkscape="http://www.inkscape.org/namespaces/inkscape"
   version="1.1"
   id="Layer_1"
   x="0px"
   y="0px"
   viewBox="0 0 154.65036 252"
   xml:space="preserve"
   sodipodi:docname="MOL_Fehérvár_FC_címer (1).svg"
   width="154.65036"
   height="252"
   inkscape:version="0.92.4 (5da689c313, 2019-01-14)"><metadata
   id="metadata75"><rdf:RDF><cc:Work
       rdf:about=""><dc:format>image/svg+xml</dc:format><dc:type
         rdf:resource="http://purl.org/dc/dcmitype/StillImage" /><dc:title></dc:title></cc:Work></rdf:RDF></metadata><defs
   id="defs73">
	
	
	
	
	
	
	
	
	
	
	
	
	
	
	
	
</defs><sodipodi:namedview
   pagecolor="#ffffff"
   bordercolor="#666666"
   borderopacity="1"
   objecttolerance="10"
   gridtolerance="10"
   guidetolerance="10"
   inkscape:pageopacity="0"
   inkscape:pageshadow="2"
   inkscape:window-width="1366"
   inkscape:window-height="705"
   id="namedview71"
   showgrid="false"
   fit-margin-top="1"
   fit-margin-bottom="1"
   fit-margin-right="1"
   fit-margin-left="1"
   inkscape:zoom="1.5119112"
   inkscape:cx="129.24238"
   inkscape:cy="203.07766"
   inkscape:window-x="-8"
   inkscape:window-y="-8"
   inkscape:window-maximized="1"
   inkscape:current-layer="Layer_1" />
<style
   type="text/css"
   id="style2">
	.st0{fill-rule:evenodd;clip-rule:evenodd;fill:#FFFFFF;stroke:#0F2C4C;stroke-width:0.75;stroke-miterlimit:10;}
	.st1{fill:#C92027;}
	.st2{fill:#0F2C4C;}
	.st3{fill:#FFFFFF;}
	.st4{fill-rule:evenodd;clip-rule:evenodd;fill:#FFFFFF;}
</style>
<g
   id="g141"
   transform="matrix(0.56631555,0,0,0.56631555,0.98584211,0.98584211)"><path
     class="st0"
     d="m 9.2,0.4 c 83.7,0 167.5,0 251.2,0 h 8.8 v 303.8 c 0,12.7 -1.9,25.3 -5.3,37.4 -16.7,58.3 -67.8,99.5 -129,99.5 h -0.2 C 73.5,441.1 22.3,399.9 5.7,341.6 2.2,329.4 0.4,316.8 0.4,304.2 V 0.4 Z"
     id="path4"
     inkscape:connector-curvature="0"
     style="clip-rule:evenodd;fill:#ffffff;fill-rule:evenodd;stroke:#0f2c4c;stroke-width:0.75;stroke-miterlimit:10" /><path
     class="st1"
     d="M 9.1,126.4 H 68.6 V 413 C 33.4,390.5 9.1,349.4 9.1,296.4 Z"
     id="path6"
     inkscape:connector-curvature="0"
     style="fill:#c92027" /><polygon
     class="st1"
     points="197.7,191.6 197.7,317.4 71.9,317.4 71.9,191.6 "
     id="polygon8"
     style="fill:#c92027" /><path
     class="st2"
     d="m 71.9,126.4 h 61.2 v 61.8 H 71.9 Z m 61.2,194.4 V 432.3 C 111.2,432 90.2,426 71.9,415.1 v -94.3 z"
     id="path10"
     inkscape:connector-curvature="0"
     style="fill:#0f2c4c" /><path
     class="st1"
     d="m 136.5,126.4 h 61.2 v 61.8 h -61.2 z m 61.2,194.4 v 94.3 C 179.4,426 158.4,432 136.5,432.3 V 320.8 Z"
     id="path12"
     inkscape:connector-curvature="0"
     style="fill:#c92027" /><path
     class="st2"
     d="m 201.1,126.4 h 59.5 v 170 c 0,53.1 -24.3,94.1 -59.5,116.7 z"
     id="path14"
     inkscape:connector-curvature="0"
     style="fill:#0f2c4c" /><polygon
     class="st2"
     points="133.1,9.2 133.1,68.7 71.9,68.7 71.9,9.2 "
     id="polygon16"
     style="fill:#0f2c4c" /><polygon
     class="st1"
     points="197.7,9.2 197.7,68.7 136.5,68.7 136.5,9.2 "
     id="polygon18"
     style="fill:#c92027" /><polygon
     class="st1"
     points="68.5,9.2 68.5,68.7 9.1,68.7 9.1,9.2 "
     id="polygon20"
     style="fill:#c92027" /><polygon
     class="st2"
     points="260.6,9.2 260.6,68.7 201.1,68.7 201.1,9.2 "
     id="polygon22"
     style="fill:#0f2c4c" /><g
     id="g26">
		<path
   class="st3"
   d="m 93.8,146.7 c 0,-0.2 0.1,-0.4 0.2,-0.5 0.1,-0.1 0.3,-0.2 0.5,-0.2 h 15.6 c 0.2,0 0.4,0.1 0.6,0.2 0.1,0.1 0.2,0.3 0.2,0.5 v 3.9 c 0,0.2 -0.1,0.3 -0.2,0.5 -0.1,0.2 -0.3,0.2 -0.6,0.2 h -9.9 v 4.8 h 7.3 c 0.2,0 0.4,0.1 0.5,0.2 0.1,0.1 0.2,0.3 0.2,0.5 v 3.7 c 0,0.2 -0.1,0.3 -0.2,0.5 -0.1,0.2 -0.3,0.2 -0.5,0.2 h -7.4 v 7.1 c 0,0.4 -0.3,0.7 -0.8,0.7 h -5 c -0.4,-0.1 -0.6,-0.3 -0.6,-0.7 v -21.6 z"
   id="path24"
   inkscape:connector-curvature="0"
   style="fill:#ffffff" />
	</g><g
     id="g30">
		<path
   class="st3"
   d="m 176.4,147.9 c 0.2,0.1 0.3,0.2 0.4,0.4 0.1,0.2 0.1,0.4 -0.1,0.6 l -2.8,3.7 c -0.1,0.2 -0.3,0.3 -0.4,0.3 -0.1,0 -0.3,0 -0.5,-0.1 -0.5,-0.4 -1.1,-0.7 -1.8,-0.9 -0.6,-0.2 -1.3,-0.3 -2,-0.3 -0.9,0 -1.7,0.2 -2.5,0.5 -0.8,0.3 -1.4,0.8 -1.9,1.3 -0.5,0.6 -1,1.2 -1.3,1.9 -0.3,0.7 -0.5,1.5 -0.5,2.4 0,0.8 0.1,1.6 0.5,2.4 0.3,0.7 0.7,1.4 1.3,1.9 0.5,0.6 1.2,1 1.9,1.3 0.8,0.3 1.6,0.5 2.5,0.5 0.7,0 1.4,-0.1 2.1,-0.3 0.7,-0.2 1.2,-0.5 1.8,-0.9 0.2,-0.1 0.4,-0.2 0.5,-0.1 0.1,0 0.3,0.1 0.4,0.3 l 2.8,3.8 c 0.1,0.2 0.1,0.4 0,0.6 -0.1,0.2 -0.2,0.3 -0.4,0.4 -1,0.6 -2.1,1.1 -3.3,1.5 -1.2,0.4 -2.4,0.5 -3.7,0.5 -1.2,0 -2.3,-0.1 -3.3,-0.4 -1.1,-0.3 -2.1,-0.7 -3,-1.2 -0.9,-0.5 -1.8,-1.1 -2.5,-1.8 -0.8,-0.7 -1.4,-1.5 -2,-2.4 -0.5,-0.9 -1,-1.8 -1.3,-2.8 -0.3,-1 -0.4,-2 -0.4,-3.1 0,-1.1 0.1,-2.1 0.4,-3.1 0.3,-1 0.7,-1.9 1.3,-2.8 0.5,-0.9 1.2,-1.7 2,-2.4 0.8,-0.7 1.6,-1.3 2.5,-1.8 0.9,-0.5 1.9,-0.9 3,-1.2 1.1,-0.3 2.2,-0.4 3.3,-0.4 1.3,0 2.5,0.2 3.7,0.5 1.2,0 2.3,0.5 3.3,1.2 z"
   id="path28"
   inkscape:connector-curvature="0"
   style="fill:#ffffff" />
	</g><g
     id="g36">
		<path
   class="st3"
   d="m 93.6,371 v -19 l -2.6,1.9 -1.8,-2.3 4.9,-3.5 h 2.6 V 371 Z"
   id="path32"
   inkscape:connector-curvature="0"
   style="fill:#ffffff" />
		<path
   class="st3"
   d="m 116.6,354.9 c 0,1.2 -0.4,2.5 -0.9,3.6 v 0.1 l -7.9,12.5 h -3.6 l 5.6,-8.8 c -0.3,0.1 -0.6,0.1 -0.9,0.1 -4.3,0 -7.9,-3.3 -7.9,-7.4 0,-4.1 3.6,-7.5 7.9,-7.5 4.2,-0.1 7.7,3.3 7.7,7.4 z m -3,0 c 0,-2.5 -2.2,-4.6 -4.8,-4.6 -2.7,0 -4.8,2.1 -4.8,4.6 0,2.5 2.2,4.6 4.8,4.6 2.6,0 4.8,-2.1 4.8,-4.6 z"
   id="path34"
   inkscape:connector-curvature="0"
   style="fill:#ffffff" />
	</g><g
     id="g42">
		<path
   class="st3"
   d="M 164.2,365.1 H 152.8 V 363 l 11.3,-14.9 h 3.1 v 14.2 h 4.2 v 2.8 h -4.2 v 6 h -3.1 v -6 z m 0,-12.2 -7.1,9.4 h 7.1 z"
   id="path38"
   inkscape:connector-curvature="0"
   style="fill:#ffffff" />
		<path
   class="st3"
   d="m 176.3,371 v -19 l -2.6,1.9 -1.8,-2.3 4.9,-3.5 h 2.6 V 371 Z"
   id="path40"
   inkscape:connector-curvature="0"
   style="fill:#ffffff" />
	</g><path
     class="st4"
     d="m 180.5,301.1 h -30.4 c 0,0 -0.1,-9.9 -0.1,-14.9 0.1,-11.2 -5.4,-19 -15.4,-19 0,0 0,0 0,0 0,0 -0.1,0 -0.1,0 -10,0 -15.4,7.9 -15.4,19 0,4.9 -0.1,14.9 -0.1,14.9 H 88.8 v -63.5 h 21 v 12 c 0,4 3.2,6 6.4,6 3.1,0 6.3,-1.9 6.3,-5.8 0,-8.1 0,-28.2 0,-28.2 l 12.2,-12.4 12.2,12.4 v 28.2 c 0,3.9 3.1,5.9 6.3,5.9 3.2,0 6.3,-2 6.3,-5.9 v -12.2 h 21 z"
     id="path44"
     inkscape:connector-curvature="0"
     style="clip-rule:evenodd;fill:#ffffff;fill-rule:evenodd" /><g
     id="g66">
		<g
   id="g62">
			<path
   class="st2"
   d="m 19.2,82.7 c 0,-0.3 0.1,-0.5 0.2,-0.7 0.2,-0.2 0.4,-0.3 0.6,-0.3 h 20.6 c 0.3,0 0.6,0.1 0.7,0.3 0.2,0.2 0.2,0.4 0.2,0.8 v 5.3 c 0,0.2 -0.1,0.5 -0.3,0.7 -0.2,0.2 -0.4,0.3 -0.8,0.3 H 27.5 v 6.7 h 9.7 c 0.3,0 0.5,0.1 0.7,0.2 0.2,0.2 0.3,0.4 0.3,0.7 v 5.1 c 0,0.2 -0.1,0.5 -0.2,0.7 -0.2,0.2 -0.4,0.3 -0.7,0.3 h -9.7 v 9.8 c 0,0.6 -0.3,0.9 -1,0.9 H 20 c -0.5,-0.1 -0.8,-0.4 -0.8,-0.9 z"
   id="path46"
   inkscape:connector-curvature="0"
   style="fill:#0f2c4c" />
			<path
   class="st2"
   d="m 46.5,82.7 c 0,-0.3 0.1,-0.5 0.2,-0.7 0.2,-0.2 0.4,-0.3 0.7,-0.3 h 21.3 c 0.3,0 0.6,0.1 0.7,0.3 0.2,0.2 0.3,0.4 0.3,0.8 v 5.3 c 0,0.2 -0.1,0.5 -0.3,0.7 -0.2,0.2 -0.4,0.3 -0.8,0.3 H 54.8 v 5.3 h 10.8 c 0.3,0 0.5,0.1 0.7,0.2 0.2,0.1 0.3,0.3 0.3,0.6 v 4.6 c 0,0.2 -0.1,0.4 -0.2,0.6 -0.2,0.2 -0.4,0.3 -0.7,0.3 H 54.8 v 5.5 h 14.4 c 0.6,0 1,0.3 1,1 v 5.4 c 0,0.1 -0.1,0.3 -0.2,0.4 -0.1,0.4 -0.4,0.6 -0.9,0.6 H 47.5 c -0.3,0 -0.5,-0.1 -0.7,-0.2 -0.2,-0.1 -0.3,-0.4 -0.3,-0.7 z"
   id="path48"
   inkscape:connector-curvature="0"
   style="fill:#0f2c4c" />
			<path
   class="st2"
   d="m 75.1,82.7 c 0,-0.2 0.1,-0.5 0.3,-0.7 0.2,-0.2 0.4,-0.3 0.7,-0.3 h 6.4 c 0.2,0 0.4,0.1 0.7,0.3 0.2,0.2 0.3,0.4 0.3,0.7 V 92.9 H 94.2 V 82.7 c 0,-0.3 0.1,-0.5 0.3,-0.7 0.2,-0.2 0.4,-0.3 0.7,-0.3 h 6.3 c 0.3,0 0.5,0.1 0.8,0.2 0.2,0.1 0.3,0.4 0.3,0.7 v 30.1 c 0,0.3 -0.1,0.6 -0.3,0.7 -0.2,0.2 -0.4,0.2 -0.7,0.2 H 95 c -0.3,0 -0.5,-0.1 -0.7,-0.2 C 94.1,113.2 94,113 94,112.7 V 100.5 H 83.4 v 12.2 c 0,0.3 -0.1,0.5 -0.3,0.7 -0.2,0.2 -0.5,0.2 -0.8,0.2 H 76 c -0.6,0 -0.9,-0.3 -0.9,-0.8 z"
   id="path50"
   inkscape:connector-curvature="0"
   style="fill:#0f2c4c" />
			<path
   class="st2"
   d="m 108.1,82.7 c 0,-0.3 0.1,-0.5 0.2,-0.7 0.2,-0.2 0.4,-0.3 0.7,-0.3 h 21.3 c 0.3,0 0.6,0.1 0.7,0.3 0.2,0.2 0.3,0.4 0.3,0.8 v 5.3 c 0,0.2 -0.1,0.5 -0.3,0.7 -0.2,0.2 -0.4,0.3 -0.8,0.3 h -13.9 v 5.3 h 10.8 c 0.3,0 0.5,0.1 0.7,0.2 0.2,0.1 0.3,0.3 0.3,0.6 v 4.6 c 0,0.2 -0.1,0.4 -0.2,0.6 -0.2,0.2 -0.4,0.3 -0.7,0.3 h -10.8 v 5.5 h 14.4 c 0.6,0 1,0.3 1,1 v 5.4 c 0,0.1 -0.1,0.3 -0.2,0.4 -0.1,0.4 -0.4,0.6 -0.9,0.6 H 109 c -0.3,0 -0.5,-0.1 -0.7,-0.2 -0.2,-0.1 -0.3,-0.4 -0.3,-0.7 v -30 z m 9.2,-7.2 c 0.1,-0.3 0.2,-0.4 0.4,-0.5 0.2,-0.1 0.5,-0.2 0.7,-0.2 h 5.5 c 0.2,0 0.4,0 0.5,0.1 0.1,0.1 0.2,0.1 0.2,0.2 0,0.1 0,0.2 0,0.3 0,0.1 -0.1,0.3 -0.2,0.4 l -2.1,3.6 c -0.2,0.2 -0.3,0.4 -0.5,0.5 -0.2,0.1 -0.4,0.2 -0.7,0.2 h -4.7 c -0.2,0 -0.4,0 -0.4,-0.1 -0.1,-0.1 -0.1,-0.2 -0.1,-0.3 0,-0.1 0,-0.3 0.1,-0.4 0,-0.1 0.1,-0.3 0.1,-0.4 z"
   id="path52"
   inkscape:connector-curvature="0"
   style="fill:#0f2c4c" />
			<path
   class="st2"
   d="m 136.6,82.7 c 0,-0.3 0.1,-0.5 0.2,-0.7 0.2,-0.2 0.4,-0.3 0.7,-0.3 h 13.9 c 1.5,0 2.9,0.3 4.1,0.8 1.3,0.6 2.4,1.3 3.4,2.2 1,0.9 1.7,2.1 2.3,3.3 0.6,1.3 0.8,2.6 0.8,4.1 0,1 -0.1,1.9 -0.4,2.8 -0.3,0.9 -0.6,1.7 -1.1,2.5 -0.5,0.8 -1,1.5 -1.7,2.1 -0.7,0.6 -1.4,1.2 -2.1,1.6 l 5.5,10.4 c 0.1,0.2 0.2,0.4 0.4,0.7 0.2,0.3 0.2,0.5 0.2,0.7 0,0.2 -0.1,0.4 -0.2,0.5 -0.2,0.1 -0.4,0.2 -0.6,0.2 h -7.4 c -0.2,0 -0.5,-0.1 -0.7,-0.2 -0.2,-0.1 -0.3,-0.3 -0.4,-0.6 l -5.2,-9.8 h -3.5 v 9.7 c 0,0.6 -0.3,0.9 -1,0.9 h -6.4 c -0.3,0 -0.5,-0.1 -0.7,-0.2 -0.2,-0.1 -0.3,-0.4 -0.3,-0.7 v -30 z m 16.8,9.6 c 0,-0.4 -0.1,-0.9 -0.2,-1.3 -0.2,-0.4 -0.4,-0.8 -0.7,-1.2 -0.3,-0.4 -0.6,-0.7 -1,-0.9 -0.4,-0.2 -0.8,-0.4 -1.3,-0.5 -0.4,0 -0.8,-0.1 -1.1,-0.1 -0.4,0 -0.7,0 -1.2,0 h -3 v 7.9 h 4 c 0.3,0 0.5,0 0.7,0 0.2,0 0.4,0 0.7,-0.1 0.5,-0.1 1,-0.2 1.4,-0.4 0.4,-0.2 0.7,-0.5 1,-0.9 0.3,-0.4 0.5,-0.7 0.6,-1.2 0,-0.4 0.1,-0.9 0.1,-1.3 z"
   id="path54"
   inkscape:connector-curvature="0"
   style="fill:#0f2c4c" />
			<path
   class="st2"
   d="m 176.4,113.2 c -0.2,-0.3 -0.3,-0.5 -0.4,-0.8 -0.1,-0.3 -0.2,-0.6 -0.4,-0.8 l -11,-28.9 c 0,-0.1 0,-0.1 0,-0.2 0,-0.1 0,-0.1 0,-0.2 0,-0.4 0.3,-0.6 0.8,-0.6 h 6.9 c 0.5,0 0.9,0.3 1.1,0.8 l 6.6,19.6 c 0.6,-1.6 1.2,-3.3 1.7,-4.9 0.5,-1.6 1.1,-3.3 1.6,-4.9 0.5,-1.6 1.1,-3.3 1.6,-4.9 0.5,-1.6 1.1,-3.3 1.7,-4.9 0.2,-0.5 0.6,-0.8 1.2,-0.8 h 6.8 c 0.3,0 0.6,0.1 0.7,0.2 0.1,0.1 0.2,0.3 0.2,0.5 0,0.1 0,0.2 0,0.2 v 0.1 l -11.1,28.9 c -0.1,0.2 -0.2,0.4 -0.3,0.7 -0.1,0.2 -0.2,0.5 -0.3,0.7 -0.1,0.2 -0.3,0.4 -0.5,0.5 -0.2,0.1 -0.4,0.2 -0.6,0.2 h -5.3 c -0.6,0 -0.9,-0.2 -1,-0.5 z"
   id="path56"
   inkscape:connector-curvature="0"
   style="fill:#0f2c4c" />
			<path
   class="st2"
   d="m 201.8,82.6 c 0,-0.1 0.1,-0.2 0.1,-0.3 0.1,-0.1 0.2,-0.2 0.3,-0.3 0.1,-0.1 0.2,-0.2 0.4,-0.2 0.1,0 0.3,-0.1 0.4,-0.1 h 5.5 c 0.2,0 0.5,0.1 0.6,0.2 0.2,0.2 0.3,0.3 0.4,0.4 l 0.5,1.2 11.3,29.1 c 0.1,0.3 0.1,0.5 -0.1,0.7 -0.2,0.2 -0.4,0.3 -0.8,0.3 h -6.2 c -0.3,0 -0.6,-0.1 -0.8,-0.2 -0.2,-0.1 -0.3,-0.3 -0.4,-0.6 -0.3,-0.7 -0.6,-1.5 -0.8,-2.2 -0.3,-0.7 -0.5,-1.5 -0.8,-2.2 H 200 c -0.3,0.7 -0.5,1.5 -0.8,2.2 -0.3,0.7 -0.6,1.5 -0.8,2.2 -0.2,0.5 -0.6,0.8 -1.1,0.8 H 191 c -0.3,0 -0.5,-0.1 -0.7,-0.2 -0.2,-0.1 -0.2,-0.4 -0.1,-0.6 z m 3.9,9.2 c -0.3,0.7 -0.6,1.5 -0.8,2.4 -0.3,0.8 -0.6,1.7 -0.8,2.6 -0.3,0.9 -0.6,1.7 -0.8,2.5 -0.3,0.8 -0.6,1.6 -0.8,2.4 h 6.6 z"
   id="path58"
   inkscape:connector-curvature="0"
   style="fill:#0f2c4c" />
			<path
   class="st2"
   d="m 224.8,82.7 c 0,-0.3 0.1,-0.5 0.2,-0.7 0.2,-0.2 0.4,-0.3 0.7,-0.3 h 13.9 c 1.5,0 2.9,0.3 4.1,0.8 1.3,0.6 2.4,1.3 3.4,2.2 1,0.9 1.7,2.1 2.3,3.3 0.6,1.3 0.8,2.6 0.8,4.1 0,1 -0.1,1.9 -0.4,2.8 -0.3,0.9 -0.6,1.7 -1.1,2.5 -0.5,0.8 -1,1.5 -1.7,2.1 -0.7,0.6 -1.4,1.2 -2.1,1.6 l 5.5,10.4 c 0.1,0.2 0.2,0.4 0.4,0.7 0.2,0.3 0.2,0.5 0.2,0.7 0,0.2 -0.1,0.4 -0.2,0.5 -0.2,0.1 -0.4,0.2 -0.6,0.2 h -7.4 c -0.2,0 -0.5,-0.1 -0.7,-0.2 -0.2,-0.1 -0.3,-0.3 -0.4,-0.6 L 236.5,103 H 233 v 9.7 c 0,0.6 -0.3,0.9 -1,0.9 h -6.4 c -0.3,0 -0.5,-0.1 -0.7,-0.2 -0.2,-0.1 -0.3,-0.4 -0.3,-0.7 v -30 z m 16.8,9.6 c 0,-0.4 -0.1,-0.9 -0.2,-1.3 -0.2,-0.4 -0.4,-0.8 -0.7,-1.2 -0.3,-0.4 -0.6,-0.7 -1,-0.9 -0.4,-0.2 -0.8,-0.4 -1.3,-0.5 -0.4,0 -0.8,-0.1 -1.1,-0.1 -0.4,0 -0.7,0 -1.2,0 h -3 v 7.9 h 4 c 0.3,0 0.5,0 0.7,0 0.2,0 0.4,0 0.7,-0.1 0.5,-0.1 1,-0.2 1.4,-0.4 0.4,-0.2 0.7,-0.5 1,-0.9 0.3,-0.4 0.5,-0.7 0.6,-1.2 0.1,-0.4 0.1,-0.9 0.1,-1.3 z"
   id="path60"
   inkscape:connector-curvature="0"
   style="fill:#0f2c4c" />
		</g>
		<path
   class="st2"
   d="m 204.1,75.5 c 0.1,-0.3 0.2,-0.4 0.4,-0.5 0.2,-0.1 0.5,-0.2 0.7,-0.2 h 5.5 c 0.2,0 0.4,0 0.5,0.1 0.1,0.1 0.2,0.1 0.2,0.2 0,0.1 0,0.2 0,0.3 0,0.1 -0.1,0.3 -0.2,0.4 l -2.1,3.6 c -0.2,0.2 -0.3,0.4 -0.5,0.5 -0.2,0.1 -0.4,0.2 -0.7,0.2 h -4.7 c -0.2,0 -0.4,0 -0.4,-0.1 -0.1,-0.1 -0.1,-0.2 -0.1,-0.3 0,-0.1 0,-0.3 0.1,-0.4 0,-0.1 0.1,-0.3 0.1,-0.4 z"
   id="path64"
   inkscape:connector-curvature="0"
   style="fill:#0f2c4c" />
	</g></g>
</svg>