<?xml version="1.0" encoding="UTF-8" standalone="no"?>
<!-- Generator: Adobe Illustrator 19.0.0, SVG Export Plug-In . SVG Version: 6.00 Build 0)  -->

<svg
   xmlns:dc="http://purl.org/dc/elements/1.1/"
   xmlns:cc="http://creativecommons.org/ns#"
   xmlns:rdf="http://www.w3.org/1999/02/22-rdf-syntax-ns#"
   xmlns:svg="http://www.w3.org/2000/svg"
   xmlns="http://www.w3.org/2000/svg"
   xmlns:sodipodi="http://sodipodi.sourceforge.net/DTD/sodipodi-0.dtd"
   xmlns:inkscape="http://www.inkscape.org/namespaces/inkscape"
   version="1.1"
   id="Layer_1"
   x="0px"
   y="0px"
   viewBox="0 0 211.14702 251.99999"
   xml:space="preserve"
   sodipodi:docname="msk.svg"
   width="211.14702"
   height="252"
   inkscape:version="0.92.4 (5da689c313, 2019-01-14)"><metadata
   id="metadata59"><rdf:RDF><cc:Work
       rdf:about=""><dc:format>image/svg+xml</dc:format><dc:type
         rdf:resource="http://purl.org/dc/dcmitype/StillImage" /><dc:title></dc:title></cc:Work></rdf:RDF></metadata><defs
   id="defs57" /><sodipodi:namedview
   pagecolor="#ffffff"
   bordercolor="#666666"
   borderopacity="1"
   objecttolerance="10"
   gridtolerance="10"
   guidetolerance="10"
   inkscape:pageopacity="0"
   inkscape:pageshadow="2"
   inkscape:window-width="1366"
   inkscape:window-height="705"
   id="namedview55"
   showgrid="false"
   fit-margin-bottom="1"
   fit-margin-top="1"
   fit-margin-right="1"
   fit-margin-left="1"
   inkscape:zoom="0.43486271"
   inkscape:cx="208.5036"
   inkscape:cy="272.35"
   inkscape:window-x="-8"
   inkscape:window-y="-8"
   inkscape:window-maximized="1"
   inkscape:current-layer="Layer_1" />
<style
   type="text/css"
   id="style2">
	.st0{fill-rule:evenodd;clip-rule:evenodd;fill:#009F54;}
	.st1{fill-rule:evenodd;clip-rule:evenodd;fill:#FFDB1D;}
</style>
<g
   id="g52"
   transform="matrix(0.4605748,0,0,0.4605748,1,1.0460575)">
	<path
   class="st0"
   d="M 452.9,144.2 C 445.1,313 360,451.1 226.4,542.7 92.7,451.1 7.9,312.9 0,144.2 c 141.2,-77 311.8,-77 452.9,0 z"
   id="path4"
   inkscape:connector-curvature="0"
   style="clip-rule:evenodd;fill:#009f54;fill-rule:evenodd" />
	<path
   class="st1"
   d="M 426.3,159.9 C 419.2,312.3 347,445.5 226.4,528.2 105.8,445.5 33.7,312.1 26.6,159.9 c 127,-63.7 275,-63.7 399.7,0 z"
   id="path6"
   inkscape:connector-curvature="0"
   style="clip-rule:evenodd;fill:#ffdb1d;fill-rule:evenodd" />
	<polygon
   class="st0"
   points="68.6,167.2 68.6,164 61.3,164 61.3,155.3 69.4,155.3 69.4,152.2 56.4,152.2 56.4,179.7 61.3,179.7 61.3,167.2 "
   id="polygon8"
   style="clip-rule:evenodd;fill:#009f54;fill-rule:evenodd" />
	<path
   class="st0"
   d="m 73.1,152.2 v 19.4 c 0,2.9 0.2,4.3 0.9,5.4 1.2,2.1 3.7,3.1 7.5,3.1 6.1,0 8.3,-2.1 8.3,-7.9 v -20 H 85 v 20 c 0,3.5 -0.7,4.4 -3.5,4.4 -2.9,0 -3.6,-0.9 -3.6,-5 v -19.4 z"
   id="path10"
   inkscape:connector-curvature="0"
   style="clip-rule:evenodd;fill:#009f54;fill-rule:evenodd" />
	<polygon
   class="st0"
   points="102.8,179.7 102.8,155.5 108.2,155.5 108.2,152.2 92.4,152.2 92.4,155.5 98,155.5 98,179.7 "
   id="polygon12"
   style="clip-rule:evenodd;fill:#009f54;fill-rule:evenodd" />
	<path
   class="st0"
   d="m 115.4,167.3 c 3.9,0 5.3,1.2 5.3,4.6 0,3.6 -1.1,4.6 -5.3,4.7 z m 0,-3 v -9.1 c 0.3,0 0.6,0 0.9,0 2.7,0 4.1,1.5 4.1,4.5 0,3.4 -1.2,4.7 -4.7,4.7 h -0.3 z m -4.6,-12.1 v 27.5 h 6.4 c 5.8,0 8.5,-2.4 8.5,-7.5 0,-3.8 -1.2,-5.3 -5.1,-6.5 3.5,-0.9 4.6,-2.5 4.6,-6.4 0,-4.8 -2.5,-7.1 -7.8,-7.1 z"
   id="path14"
   inkscape:connector-curvature="0"
   style="clip-rule:evenodd;fill:#009f54;fill-rule:evenodd" />
	<path
   class="st0"
   d="m 140.3,171.5 h -5.8 l 0.9,-3.5 c 1,-4.2 1.6,-6.8 2.1,-10.4 0.4,2.8 1.1,7.1 1.7,9.5 z m -4.6,-19.3 -7.9,27.5 h 4.7 l 1.4,-5.4 h 7.2 l 1.4,5.4 h 4.8 l -7.8,-27.5 z"
   id="path16"
   inkscape:connector-curvature="0"
   style="clip-rule:evenodd;fill:#009f54;fill-rule:evenodd" />
	<polygon
   class="st0"
   points="154.9,176.6 154.9,152.2 150,152.2 150,179.7 162.8,179.7 162.8,176.6 "
   id="polygon18"
   style="clip-rule:evenodd;fill:#009f54;fill-rule:evenodd" />
	<path
   class="st0"
   d="m 174.2,155.2 c 1.4,0 2.4,0.5 3.1,1.6 0.8,1.3 1.1,4.6 1.1,10.2 0,2.7 -0.2,5.1 -0.5,6.6 -0.5,2.1 -1.7,3.1 -3.7,3.1 -3.3,0 -4.3,-2.4 -4.3,-10.2 0,-5.4 0.2,-7.7 0.8,-9.1 0.7,-1.6 1.8,-2.2 3.5,-2.2 z m -0.2,-3.4 c -6.7,0 -9.3,3.7 -9.3,13.5 0,10.9 2.5,14.8 9.7,14.8 6.6,0 9.2,-3.8 9.2,-13.4 0,-11.1 -2.4,-14.9 -9.6,-14.9 z"
   id="path20"
   inkscape:connector-curvature="0"
   style="clip-rule:evenodd;fill:#009f54;fill-rule:evenodd" />
	<path
   class="st0"
   d="m 184.3,152.2 7,27.5 h 3.9 l 7.1,-27.5 h -4.6 l -2.3,10.1 c -0.2,0.7 -0.2,0.9 -0.7,3.3 l -0.3,1.4 c -0.4,1.9 -0.2,0.7 -0.8,3.5 -0.3,1.4 -0.2,1.1 -0.4,2.3 -0.5,-2.9 -0.4,-2.1 -1.4,-7.4 l -0.3,-1.3 -0.1,-0.6 -0.2,-0.6 -0.1,-0.6 -2.2,-10.1 z"
   id="path22"
   inkscape:connector-curvature="0"
   style="clip-rule:evenodd;fill:#009f54;fill-rule:evenodd" />
	<path
   class="st0"
   d="m 216.3,144.5 -5,3.8 1.7,1.5 5.9,-3.1 z m -12.8,7.7 7.5,15.7 v 11.8 h 4.9 v -11.8 l 6.3,-15.7 h -5.1 l -2,6.2 c -0.4,1.3 -0.1,0.2 -1,3.4 -0.2,0.6 -0.4,1.5 -0.7,3.1 -0.4,-1.9 -0.7,-2.6 -1.8,-5.4 -0.2,-0.5 -0.4,-0.9 -0.5,-1.3 l -2.4,-6 z"
   id="path24"
   inkscape:connector-curvature="0"
   style="clip-rule:evenodd;fill:#009f54;fill-rule:evenodd" />
	<polygon
   class="st0"
   points="245.7,179.7 251.1,179.7 243.4,165.5 250.5,152.2 245.7,152.2 238.9,165.5 238.9,152.2 234,152.2 234,179.7 238.9,179.7 238.9,165.5 "
   id="polygon26"
   style="clip-rule:evenodd;fill:#009f54;fill-rule:evenodd" />
	<polygon
   class="st0"
   points="259,176.6 259,152.2 254.1,152.2 254.1,179.7 267,179.7 267,176.6 "
   id="polygon28"
   style="clip-rule:evenodd;fill:#009f54;fill-rule:evenodd" />
	<path
   class="st0"
   d="m 269.9,152.2 v 19.4 c 0,2.9 0.2,4.3 0.9,5.4 1.2,2.1 3.7,3.1 7.5,3.1 6.1,0 8.3,-2.1 8.3,-7.9 v -20 h -4.8 v 20 c 0,3.5 -0.7,4.4 -3.5,4.4 -2.9,0 -3.6,-0.9 -3.6,-5 v -19.4 z"
   id="path30"
   inkscape:connector-curvature="0"
   style="clip-rule:evenodd;fill:#009f54;fill-rule:evenodd" />
	<path
   class="st0"
   d="m 296.7,167.3 c 3.9,0 5.3,1.2 5.3,4.6 0,3.6 -1.1,4.6 -5.3,4.7 z m 0,-3 v -9.1 c 0.3,0 0.6,0 0.9,0 2.7,0 4.1,1.5 4.1,4.5 0,3.4 -1.2,4.7 -4.7,4.7 h -0.3 z m -4.6,-12.1 v 27.5 h 6.4 c 5.8,0 8.5,-2.4 8.5,-7.5 0,-3.8 -1.2,-5.3 -5.1,-6.5 3.5,-0.9 4.6,-2.5 4.6,-6.4 0,-4.8 -2.5,-7.1 -7.8,-7.1 z"
   id="path32"
   inkscape:connector-curvature="0"
   style="clip-rule:evenodd;fill:#009f54;fill-rule:evenodd" />
	<polygon
   class="st0"
   points="331.1,179.7 331.1,152.2 322.8,152.2 322.8,155.4 326.4,155.4 326.4,179.7 "
   id="polygon34"
   style="clip-rule:evenodd;fill:#009f54;fill-rule:evenodd" />
	<path
   class="st0"
   d="m 345.9,155.3 c 2.1,0 3,1.7 3,5.2 0,3.9 -0.9,5.5 -3,5.5 -2.2,0 -3.1,-1.6 -3.1,-5.5 0,-3.6 1,-5.2 3.1,-5.2 z m 0.3,24.4 0.2,-0.2 0.2,-0.2 0.1,-0.2 c 0,0 0.6,-0.9 1.3,-2 1.5,-2.4 1,-1.5 1.6,-2.6 3.2,-5.4 4.2,-8.5 4.2,-13.2 0,-6.7 -2.2,-9.4 -7.8,-9.4 -5.5,0 -7.7,2.6 -7.7,9.2 0,5.7 2,8.3 6.2,8.3 1.5,0 2.3,-0.2 3.7,-1.1 -1.8,3.3 -2,3.6 -5.5,9 l -0.9,1.4 c 0,0 -0.2,0.2 -0.5,0.8 l -0.2,0.4 h 5.1 z"
   id="path36"
   inkscape:connector-curvature="0"
   style="clip-rule:evenodd;fill:#009f54;fill-rule:evenodd" />
	<path
   class="st0"
   d="m 366.4,155.2 c 2.4,0 3.3,2.7 3.3,10.9 0,8.1 -0.8,10.8 -3.3,10.8 -2.5,0 -3.3,-2.7 -3.3,-10.9 0,-8.1 0.8,-10.8 3.3,-10.8 z m 0.1,-3.3 c -2.9,0 -5.3,1.2 -6.5,3.4 -1.2,2.2 -1.7,5.3 -1.7,10.7 0,5.4 0.5,8.4 1.7,10.7 1.1,2.1 3.5,3.4 6.5,3.4 2.9,0 5.3,-1.2 6.4,-3.4 1.2,-2.4 1.7,-5.3 1.7,-10.7 0,-5.4 -0.5,-8.4 -1.7,-10.7 -1.1,-2.2 -3.5,-3.4 -6.4,-3.4 z"
   id="path38"
   inkscape:connector-curvature="0"
   style="clip-rule:evenodd;fill:#009f54;fill-rule:evenodd" />
	<path
   class="st0"
   d="m 386.9,166.8 c 2.1,0 3,1.5 3,5.4 0,3.1 -1,4.6 -3,4.6 -2,0 -3,-1.5 -3,-4.6 0.1,-3.9 0.9,-5.4 3,-5.4 z m 0,-11.8 c 1.7,0 2.7,1.4 2.7,3.8 0,2.7 -1,4.3 -2.7,4.3 -1.7,0 -2.7,-1.6 -2.7,-4.3 0.1,-2.4 1.1,-3.8 2.7,-3.8 z m 3.6,9.8 c 2.9,-0.9 3.9,-2.6 3.9,-6.1 0,-4.7 -2.3,-6.8 -7.5,-6.8 -5.2,0 -7.5,2.1 -7.5,6.8 0,3.5 1.1,5.2 4,6.1 -3.3,0.9 -4.3,2.5 -4.3,6.9 0,5.7 2.4,8.3 7.8,8.3 5.4,0 7.8,-2.6 7.8,-8.3 0.1,-4.4 -1,-6 -4.2,-6.9 z"
   id="path40"
   inkscape:connector-curvature="0"
   style="clip-rule:evenodd;fill:#009f54;fill-rule:evenodd" />
	<path
   class="st0"
   d="m 56,185.2 c 0,0 -1.2,203.9 170.5,345.7 C 398.1,389.1 395.8,185.2 395.8,185.2 Z"
   id="path42"
   inkscape:connector-curvature="0"
   style="clip-rule:evenodd;fill:#009f54;fill-rule:evenodd" />
	<polygon
   class="st1"
   points="151.5,261.3 134.3,258.2 128.5,274.1 122.7,258.2 105.6,261.3 116.9,248.5 105.6,235.7 122.7,238.8 128.5,223 134.3,238.8 151.5,235.7 140.2,248.5 "
   id="polygon44"
   style="clip-rule:evenodd;fill:#ffdb1d;fill-rule:evenodd" />
	<polygon
   class="st1"
   points="349.2,261.3 332.1,258.2 326.3,274.1 320.5,258.2 303.3,261.3 314.6,248.5 303.3,235.7 320.5,238.8 326.3,223 332.1,238.8 349.2,235.7 337.9,248.5 "
   id="polygon46"
   style="clip-rule:evenodd;fill:#ffdb1d;fill-rule:evenodd" />
	<path
   class="st1"
   d="m 238.9,415.5 v -79.4 h 38.4 c 25.3,0 40.5,6.6 40.5,6.6 -3.4,-19.9 0,-38.2 0,-38.2 -16.2,6.9 -40.9,7.5 -40.9,7.5 h -38.1 v -62.6 c 18.1,-0.9 29.9,4.2 29.9,4.2 -2.5,-16.8 0,-32.5 0,-32.5 -16.5,5.1 -30.3,4.2 -30.3,4.2 0.9,-9.6 0.9,-24.1 0.9,-24.1 -7.2,0.9 -13.4,0.6 -13.4,0.6 0,0 -6.2,0.3 -13.4,-0.6 0,0 0,14.4 0.9,24.1 0,0 -13.7,0.9 -30.3,-4.2 0,0 2.5,15.6 0,32.5 0,0 11.9,-5.1 29.9,-4.2 V 312 h -38.1 c 0,0 -24.6,-0.6 -40.9,-7.5 0,0 3.4,18.3 0,38.2 0,0 15.3,-6.6 40.5,-6.6 h 38.4 v 79.4 c 0,0 1.7,21.5 -8,27.2 -9.7,5.7 -12.2,5.5 -16,9.1 -3.7,3.6 -2.5,10.3 0,13.3 2.5,3 6.2,7.5 5.9,12.6 0,0 4.7,-4.9 -1.2,-12.3 -5,-6.3 6.2,-15 11.5,-7.7 3.8,5.3 0.7,13.1 0.7,13.1 0,0 -5.3,9 3.7,16.2 9,7.2 8.1,5.1 10.3,9.6 0,0 1.5,-3 -4.1,-8.4 -5.8,-5.6 -3.9,-15.1 -0.5,-19 3.4,-3.9 7.5,-4.4 11.7,-1.8 4.5,2.8 2.8,7.8 2.2,11.1 -0.6,3.3 -0.6,6.3 0.6,9.6 1.2,3.3 3.7,7.5 3.1,12.6 0,0 5.1,-2.9 2.2,-9.6 -2.9,-6.7 -1.9,-9.6 0,-12.3 1.9,-2.7 5,-5.7 4.4,-11.7 -0.6,-6 4.1,-10.5 8.4,-10.2 4.4,0.3 9,4.8 8.1,10.2 -0.9,5.4 -5,7.2 -5,11.1 0,3.9 -1.5,8.4 -3,9.3 0,0 3.3,-1.5 6.8,-7.8 3.2,-6 7.1,-7.4 7.1,-7.4 0,0 4.9,-5.1 4.2,-12.2 -0.5,-5.1 -6.2,-9.6 -6.2,-9.6 0,0 -13.4,-4.8 -17.2,-11.1 -3.3,-6.2 -3.7,-23.9 -3.7,-23.9 z"
   id="path48"
   inkscape:connector-curvature="0"
   style="clip-rule:evenodd;fill:#ffdb1d;fill-rule:evenodd" />
	<path
   class="st0"
   d="m 109.8,19.6 -4,-5.7 -9.7,7.6 -10,-2.4 -3.7,7.7 10.1,4.4 C 81.2,36 73.4,45.7 73.4,56.5 c 0,10.7 6.1,14 15.1,13.9 l 7.3,-0.1 c 4.3,-0.1 6.2,0.6 6.2,3.4 0,3.4 -2.5,6.3 -8.7,8 -6.3,1.7 -13,1.1 -17.4,-0.3 l -5.6,13.9 c 6.2,1.6 13.5,2 22.8,-0.5 16.1,-4.3 27.1,-15.1 27.1,-29.9 0,-12.4 -9.6,-12.9 -16.2,-12.8 l -6.3,0.1 c -4.6,0.1 -6,-1.6 -6,-3.6 0,-2.5 2.2,-5 6.3,-6.1 4.3,-1.1 9.8,-1 13.9,0.6 l 7.6,-13.3 c -4.8,-2.1 -11.6,-2.4 -19,-0.8 z m 31.9,63.3 V 21 l -15.9,2.6 v 61.9 z m 36.6,-6 -19.3,-30.4 16.3,-31 -19.7,3.2 -13.7,30.8 15.5,30.7 z M 247.4,62.2 H 223.1 L 247,25.5 v -12 h -16.2 l 9.5,-6.8 -4,-6.7 -9.7,5 -10,-5.1 -3.7,6.7 9.9,7 h -17.1 v 12.9 h 22.4 l -24.3,36.8 v 12.1 h 43.4 z m 24.2,14.6 V 14.9 l -16.3,-0.6 v 61.9 z m 44.5,-7.1 -21,-3.1 V 17.8 l -16.1,-2 v 61.9 l 37.2,5.4 z M 339.4,88 V 26.1 L 323.1,23 v 61.9 z m 54.9,16.1 V 42.3 L 379.2,37.8 V 57 c 0,4.1 0.1,10.2 0.5,14 -1.5,-4.6 -3.4,-9.5 -5.2,-13.3 L 363.3,33 348,28.5 v 61.9 l 15.1,4.5 V 77.5 c 0,-7.6 -0.5,-13.5 -0.9,-16 1.3,4.4 3.2,9.4 4.8,13.1 l 10.9,24.7 z m 36.1,-8.3 -8,-3.6 2.5,-9 c 1.1,-3.7 1.5,-6.9 1.7,-9.1 0.1,2.3 0.5,6.2 1.2,9.2 z m 23.7,34.7 -18.7,-70.2 -16.5,-7.3 -19.9,53 16.7,7.4 3.3,-10.4 14.7,6.5 3.2,13.3 z M 67.2,100.6 61.5,41.2 42.7,49.6 36.4,76 C 35.1,81.5 34.5,84.7 34,89.7 H 33.9 C 33.4,85 32.8,82 31.9,78.9 l -6,-21.8 -19.5,8.7 -6,64.6 16,-7.1 1.2,-25.3 c 0.2,-4 0.3,-7.4 0.3,-12.9 H 18 c 0.4,5.3 1.2,8.5 2,11.5 l 6.6,22.1 13.5,-6 7.5,-29.1 c 1,-3.7 1.4,-7 2.1,-12.6 h 0.1 c 0,5.3 0.2,8.4 0.4,12.2 l 1.5,24.3 z"
   id="path50"
   inkscape:connector-curvature="0"
   style="clip-rule:evenodd;fill:#009f54;fill-rule:evenodd" />
</g>
</svg>