<?xml version="1.0" encoding="UTF-8" standalone="no"?>
<!-- Created with Inkscape (http://www.inkscape.org/) -->

<svg
   xmlns:dc="http://purl.org/dc/elements/1.1/"
   xmlns:cc="http://creativecommons.org/ns#"
   xmlns:rdf="http://www.w3.org/1999/02/22-rdf-syntax-ns#"
   xmlns:svg="http://www.w3.org/2000/svg"
   xmlns="http://www.w3.org/2000/svg"
   xmlns:sodipodi="http://sodipodi.sourceforge.net/DTD/sodipodi-0.dtd"
   xmlns:inkscape="http://www.inkscape.org/namespaces/inkscape"
   version="1.1"
   id="svg2"
   xml:space="preserve"
   width="198.86009"
   height="252"
   viewBox="0 0 198.86009 251.99999"
   sodipodi:docname="pfk-neftci-baku.svg"
   inkscape:version="0.92.4 (5da689c313, 2019-01-14)"><metadata
     id="metadata8"><rdf:RDF><cc:Work
         rdf:about=""><dc:format>image/svg+xml</dc:format><dc:type
           rdf:resource="http://purl.org/dc/dcmitype/StillImage" /><dc:title></dc:title></cc:Work></rdf:RDF></metadata><defs
     id="defs6" /><sodipodi:namedview
     pagecolor="#ffffff"
     bordercolor="#666666"
     borderopacity="1"
     objecttolerance="10"
     gridtolerance="10"
     guidetolerance="10"
     inkscape:pageopacity="0"
     inkscape:pageshadow="2"
     inkscape:window-width="1366"
     inkscape:window-height="705"
     id="namedview4"
     showgrid="false"
     fit-margin-top="1"
     fit-margin-bottom="1"
     fit-margin-right="1"
     fit-margin-left="1"
     inkscape:zoom="2.3786091"
     inkscape:cx="107.18463"
     inkscape:cy="24.324724"
     inkscape:window-x="-8"
     inkscape:window-y="-8"
     inkscape:window-maximized="1"
     inkscape:current-layer="g10" /><g
     id="g10"
     inkscape:groupmode="layer"
     inkscape:label="pfk-neftci-baku-seeklogo.com"
     transform="matrix(1.3333333,0,0,-1.3333333,-40.081386,374.38606)"><g
       id="g72"
       transform="matrix(0.27506632,0,0,0.27506632,22.335961,67.085037)"><path
         inkscape:connector-curvature="0"
         id="path12"
         style="fill:#fddb10;fill-opacity:1;fill-rule:nonzero;stroke:none"
         d="m 298.53271,773.03223 c 0,0 -13.19775,-23.24219 -13.5288,-23.82642 -0.65723,-0.13477 -28.14844,-5.77148 -28.14844,-5.77148 0,0 18.92724,-20.71924 19.37988,-21.21509 -0.0747,-0.66724 -3.20898,-28.55469 -3.20898,-28.55469 0,0 25.5542,11.59815 26.16552,11.87573 0.61133,-0.27758 26.16602,-11.87597 26.16602,-11.87597 0,0 -3.13477,27.88769 -3.20947,28.55493 0.45263,0.49585 19.37988,21.21484 19.37988,21.21484 0,0 -27.49121,5.63696 -28.14844,5.77173 -0.33203,0.58398 -14.18799,24.98755 -14.18799,24.98755 z" /><path
         inkscape:connector-curvature="0"
         id="path14"
         style="fill:#231f20;fill-opacity:1;fill-rule:nonzero;stroke:none"
         d="M 30.81104,686.65674 V 203.89063 l 0.26953,-0.27295 c 34.96582,-35.48633 74.24365,-62.80616 116.7417,-81.19873 45.81201,-19.82618 96.74023,-29.8794 151.36962,-29.8794 54.6294,0 105.55713,10.05322 151.36963,29.8794 42.49805,18.39257 81.77588,45.7124 116.7417,81.19873 l 0.26953,0.27295 v 482.76611 z" /><path
         inkscape:connector-curvature="0"
         id="path16"
         style="fill:#ffffff;fill-opacity:1;fill-rule:nonzero;stroke:none"
         d="m 565.7002,684.78442 c 0,-1.86377 0,-479.3435 0,-480.11987 C 530.97119,169.48242 491.98584,142.38721 449.81738,124.1377 404.24219,104.4126 353.56445,94.41211 299.19189,94.41211 v 0 c -54.37255,0 -105.05029,10.00049 -150.62548,29.72559 -42.16846,18.24951 -81.15381,45.34472 -115.88282,80.52685 0,0.77637 0,478.2561 0,480.11987 1.86255,0 531.1543,0 533.01661,0 M 40.30737,677.16064 c 0,-16.39233 0,-462.42724 0,-469.32226 33.48438,-33.41358 70.9021,-59.22656 111.28736,-76.70459 44.61377,-19.30811 94.27295,-29.09815 147.59716,-29.09815 v 0 c 53.32422,0 102.9834,9.79004 147.59717,29.09815 40.38526,17.47803 77.80274,43.29101 111.2876,76.70459 0,6.89502 0,452.92993 0,469.32226 -16.30713,0 -501.4624,0 -517.76929,0 z" /><path
         inkscape:connector-curvature="0"
         id="path18"
         style="fill:#ffffff;fill-opacity:1;fill-rule:nonzero;stroke:none"
         d="m 110.80811,169.52783 c 51.19287,-11.61719 81.02685,13.83008 81.02685,13.83008 0,0 22.11328,-14.97998 51.00342,-15.33643 36.37891,-0.44921 56.35351,15.33643 56.35351,15.33643 0,0 19.97461,-15.78564 56.35352,-15.33643 28.89014,0.35645 51.00342,15.33643 51.00342,15.33643 0,0 30.1167,-25.6875 81.75342,-13.66309 l 0.44287,0.29981 c 19.24414,12.46924 37.5874,27.12793 54.88623,43.875 0,17.53271 0,408.00098 0,448.84595 -40.24365,0 -448.63526,0 -488.87915,0 0,-40.84497 0,-431.31324 0,-448.84595 17.42407,-16.86768 35.90649,-31.6167 55.30249,-44.14404 z" /><path
         inkscape:connector-curvature="0"
         id="path20"
         style="fill:#ffffff;fill-opacity:1;fill-rule:nonzero;stroke:none"
         d="m 143.95996,150.55127 c 4.41846,-2.16064 8.87598,-4.21533 13.37158,-6.16064 4.80567,-2.07959 9.67334,-4.04444 14.60254,-5.89356 l 0.38086,-0.10986 c 12.61572,4.7373 19.52002,10.59033 19.52002,10.59033 0,0 19.25781,-13.96631 52.78711,-13.87647 39.58984,0.10645 54.56982,15.08545 54.56982,15.08545 0,0 14.97999,-14.979 54.56983,-15.08545 33.5293,-0.0898 52.78711,13.87647 52.78711,13.87647 0,0 6.92627,-5.87109 19.57959,-10.61231 l 0.26269,0.10987 c 4.94873,1.85595 9.83594,3.82763 14.66114,5.91553 4.62646,2.00292 9.21386,4.12011 13.75976,6.35058 l -0.72949,0.0537 c -30.09229,1.6211 -47.53369,16.70606 -47.53369,16.70606 0,0 -19.25781,-14.20752 -52.78711,-14.15674 -34.23975,0.0537 -54.56983,15.38965 -54.56983,15.38965 0,0 -20.33007,-15.33594 -54.56982,-15.38965 -33.5293,-0.0508 -52.78711,14.15674 -52.78711,14.15674 0,0 -17.72363,-15.3291 -48.26514,-16.74268 l 0.39014,-0.20703 z" /><path
         inkscape:connector-curvature="0"
         id="path22"
         style="fill:#ffffff;fill-opacity:1;fill-rule:nonzero;stroke:none"
         d="m 277.69141,129.07813 v -20.26319 h -5.21631 v 13.27783 c -0.84375,-0.68408 -1.65967,-1.23925 -2.44873,-1.66211 -0.78858,-0.42334 -1.77832,-0.8291 -2.96778,-1.2163 v 4.51367 c 1.75489,0.6084 3.11719,1.33886 4.08741,2.19238 0.97021,0.85254 1.72998,1.90479 2.2788,3.15772 z" /><path
         inkscape:connector-curvature="0"
         id="path24"
         style="fill:#ffffff;fill-opacity:1;fill-rule:nonzero;stroke:none"
         d="m 282.1333,113.30518 5.11621,0.69287 c 0.13379,-0.77051 0.35938,-1.31348 0.67725,-1.63135 0.31738,-0.31641 0.70605,-0.47559 1.16601,-0.47559 0.81934,0 1.4585,0.44825 1.91846,1.34522 0.33447,0.66015 0.58496,2.0581 0.75244,4.19531 -0.61328,-0.67725 -1.24365,-1.17383 -1.89062,-1.48926 -0.64649,-0.31543 -1.39453,-0.47314 -2.24317,-0.47314 -1.65527,0 -3.05175,0.6333 -4.19043,1.89941 -1.13818,1.2666 -1.70703,2.86719 -1.70703,4.80371 0,1.3208 0.29004,2.52344 0.87061,3.60889 0.58056,1.08594 1.37988,1.90625 2.39843,2.46289 1.01758,0.55615 2.29639,0.83399 3.83692,0.83399 1.85107,0 3.33642,-0.3418 4.45557,-1.02588 1.11914,-0.6836 2.01367,-1.77002 2.68212,-3.26026 0.66895,-1.49023 1.00391,-3.45898 1.00391,-5.90381 0,-3.5957 -0.70215,-6.22998 -2.10693,-7.90088 -1.4043,-1.67089 -3.35108,-2.50683 -5.83985,-2.50683 -1.47168,0 -2.63232,0.18506 -3.48193,0.55176 -0.84912,0.36816 -1.55566,0.90722 -2.11865,1.61572 -0.56348,0.7085 -0.99658,1.59326 -1.29932,2.65723 m 9.44141,8.87744 c 0,1.07763 -0.25147,1.92285 -0.75537,2.53418 -0.50342,0.61133 -1.11621,0.91748 -1.83789,0.91748 -0.68018,0 -1.24463,-0.27588 -1.69385,-0.82862 -0.44922,-0.55273 -0.67334,-1.38134 -0.67334,-2.4873 0,-1.11475 0.23242,-1.96631 0.69824,-2.55469 0.46631,-0.58935 1.04736,-0.88379 1.74414,-0.88379 0.72217,0 1.32178,0.28516 1.80029,0.85694 0.47852,0.57031 0.71778,1.38525 0.71778,2.4458 z" /><path
         inkscape:connector-curvature="0"
         id="path26"
         style="fill:#ffffff;fill-opacity:1;fill-rule:nonzero;stroke:none"
         d="m 304.27588,122.99268 -4.88184,0.92968 c 0.40528,1.66455 1.18457,2.93946 2.33692,3.82666 1.15283,0.88623 2.78418,1.32911 4.8955,1.32911 2.42334,0 4.17579,-0.48487 5.25635,-1.45557 1.08106,-0.9707 1.62207,-2.18994 1.62207,-3.65918 0,-0.86231 -0.2207,-1.64258 -0.66064,-2.34082 -0.43994,-0.69873 -1.10449,-1.31104 -1.99317,-1.83692 0.71582,-0.18994 1.26368,-0.41162 1.64307,-0.66455 0.61524,-0.40771 1.09326,-0.94336 1.43457,-1.60791 0.34131,-0.66601 0.51221,-1.45996 0.51221,-2.38281 0,-1.15771 -0.28272,-2.26855 -0.84717,-3.33105 -0.56494,-1.06348 -1.37842,-1.88184 -2.44043,-2.45655 -1.06299,-0.5747 -2.45801,-0.8623 -4.18603,-0.8623 -1.68653,0 -3.01612,0.21338 -3.99024,0.63769 -0.97363,0.4253 -1.7749,1.04688 -2.40283,1.86622 -0.62793,0.81933 -1.11084,1.84863 -1.44776,3.08789 l 5.14942,0.72802 c 0.20215,-1.10644 0.51611,-1.87353 0.94189,-2.30078 0.4253,-0.42724 0.96729,-0.6416 1.625,-0.6416 0.69141,0 1.26661,0.27148 1.72608,0.81397 0.45947,0.54248 0.68945,1.26562 0.68945,2.16943 0,0.92139 -0.22217,1.63623 -0.66601,2.14209 -0.44385,0.50683 -1.0459,0.75928 -1.80665,0.75928 -0.40576,0 -0.96386,-0.1084 -1.67382,-0.32471 l 0.26562,3.93701 c 0.28711,-0.0449 0.51123,-0.0679 0.67236,-0.0679 0.67627,0 1.24122,0.23193 1.69385,0.69482 0.45215,0.46289 0.67871,1.0127 0.67871,1.64893 0,0.6084 -0.16894,1.09424 -0.50586,1.45801 -0.3374,0.36328 -0.80078,0.54541 -1.39013,0.54541 -0.60742,0 -1.1001,-0.19532 -1.47949,-0.58643 -0.37891,-0.39062 -0.63624,-1.07617 -0.771,-2.05517 z" /><path
         inkscape:connector-curvature="0"
         id="path28"
         style="fill:#ffffff;fill-opacity:1;fill-rule:nonzero;stroke:none"
         d="m 315.99609,128.74365 h 15.04688 v -3.7417 c -1.31543,-1.26855 -2.41406,-2.6416 -3.2959,-4.11816 -1.06885,-1.79395 -1.91357,-3.79199 -2.53223,-5.99365 -0.49218,-1.71241 -0.82373,-3.7378 -0.99267,-6.0752 h -5.11621 c 0.40332,3.25293 1.03857,5.97901 1.90527,8.18067 0.86621,2.20166 2.23779,4.55712 4.11426,7.06689 h -9.1294 z" /><path
         inkscape:connector-curvature="0"
         id="path30"
         style="fill:#231f20;fill-opacity:1;fill-rule:nonzero;stroke:none"
         d="m 268.69434,589.50879 c -1.04444,0 -2.01368,0.32812 -2.81055,0.88672 l -0.23389,0.15771 c -0.83349,-0.65429 -1.88281,-1.04443 -3.02197,-1.04443 H 251.9292 c -2.70557,0 -4.90625,2.20068 -4.90625,4.90527 v 22.82422 c 0,2.70508 2.20068,4.90576 4.90625,4.90576 h 10.69873 c 0.98877,0 1.91064,-0.29443 2.68213,-0.7998 l 0.36767,-0.24024 c 0.83252,0.65186 1.88038,1.04004 3.01661,1.04004 h 3.61377 l 0.34472,10e-4 3.11719,28.44482 h 46.84375 l 3.1167,-28.44482 0.38965,-10e-4 h 3.56884 c 1.13672,0 2.18458,-0.38818 3.01661,-1.04004 l 0.30957,0.20069 c 0.78271,0.52978 1.72607,0.83935 2.74072,0.83935 h 10.69873 c 2.70557,0 4.90625,-2.20068 4.90625,-4.90576 v -22.82422 c 0,-2.70459 -2.20068,-4.90527 -4.90625,-4.90527 h -10.69873 c -1.01465,0 -1.95801,0.30957 -2.74072,0.83935 l -0.3086,0.20118 c -0.83252,-0.65186 -1.88086,-1.04053 -3.01758,-1.04053 l -0.38671,0.0366 34.82519,-317.85645 0.0713,-0.52148 52.37647,-33.27978 -0.0479,0.50585 v 124.32081 l -0.63867,0.0469 h -23.60693 v 24.25391 h 116.63037 v -24.25391 h -23.67383 l -0.57178,-0.0469 V 225.82127 l 0.43799,-0.0137 h 23.80762 v -24.25244 h -92.78857 l -0.5,-0.005 -47.10108,29.92774 0.104,-0.854 2.86866,-26.18555 0.27832,-0.0366 h 10.52148 v -11.41358 h -9.09521 l -0.45362,0.0366 1.5337,-14.00244 0.0796,-0.65576 h -6.73145 l -0.0669,0.57324 c -0.35938,3.28369 -0.88086,8.04395 -1.542,14.0791 l -0.21972,-0.0308 h -132.9917 l -0.44141,0.0415 c -0.66699,-6.08545 -1.19189,-10.87647 -1.55176,-14.16407 l -0.0576,-0.49902 h -6.73243 l 0.0806,0.66553 1.52881,13.95264 -0.4502,0.003 h -9.09472 v 11.41358 h 10.43213 l 0.36328,0.001 11.98926,109.43262 -0.56836,0.38281 -56.35596,35.8086 -0.0928,-0.91114 V 227.04629 l 0.0811,-1.23926 h 24.16455 V 201.55459 H 89.47171 v 24.25244 h 24.25342 l -0.008,1.06054 v 135.9795 l -0.70557,-0.0864 H 89.47152 v 24.25391 h 92.38477 l 1.1665,-0.72852 59.11621,-37.5625 0.52246,-0.31885 26.41162,241.0625 -0.3789,0.041 m 0,3.74512 h 10.69921 c 0.6294,0 1.16065,0.53125 1.16065,1.16015 v 22.82422 c 0,0.6294 -0.53125,1.16065 -1.16065,1.16065 h -10.69921 c -0.6294,0 -1.16065,-0.53125 -1.16065,-1.16065 v -22.82422 c 0,-0.6289 0.53125,-1.16015 1.16065,-1.16015 m 33.53076,0 h 10.69922 c 0.6289,0 1.16015,0.53125 1.16015,1.16015 v 22.82422 c 0,0.6294 -0.53125,1.16065 -1.16015,1.16065 h -10.69922 c -0.6294,0 -1.16065,-0.53125 -1.16065,-1.16065 v -22.82422 c 0,-0.6289 0.53125,-1.16015 1.16065,-1.16015 m 33.53076,0 h 10.69873 c 0.62939,0 1.16113,0.53125 1.16113,1.16015 v 22.82422 c 0,0.6294 -0.53174,1.16065 -1.16113,1.16065 H 335.7557 c -0.62891,0 -1.16113,-0.53125 -1.16113,-1.16065 v -22.82422 c 0,-0.6289 0.53222,-1.16015 1.16113,-1.16015 m -40.39844,-3.74512 H 287.243 l -0.64111,-0.0234 9.25781,-6.67041 -0.0117,0.38574 v 6.26368 l -0.49072,0.0444 m -31.56885,27.72949 c 0,0.6294 -0.53173,1.16065 -1.16064,1.16065 h -10.69873 c -0.62988,0 -1.16113,-0.53125 -1.16113,-1.16065 v -22.82422 c 0,-0.6289 0.53125,-1.16015 1.16113,-1.16015 h 10.69873 c 0.62891,0 1.16064,0.53125 1.16064,1.16015 v 22.82422 m 20.51026,-22.82422 c 0,-0.6289 0.53174,-1.16015 1.16064,-1.16015 h 10.69922 c 0.62891,0 1.16065,0.53125 1.16065,1.16015 v 22.82422 c 0,0.6294 -0.53174,1.16065 -1.16065,1.16065 h -10.69922 c -0.6289,0 -1.16064,-0.53125 -1.16064,-1.16065 v -22.82422 m -4.90528,27.72998 c 0.98877,0 1.90918,-0.29443 2.68067,-0.79883 l 0.34668,-0.2583 c 0.83594,0.66163 1.8916,1.05713 3.03857,1.05713 h 10.69922 c 1.00586,0 1.94238,-0.30468 2.72168,-0.82617 l 0.28174,-0.25049 c 0.83935,0.67383 1.90527,1.07666 3.06299,1.07666 h 10.69922 c 1.01757,0 1.96484,-0.31201 2.75,-0.8457 l 0.27392,-0.21387 c 0.83643,0.66309 1.89356,1.05957 3.04199,1.05957 l -0.0449,0.5293 c -1.34668,12.29053 -2.17578,19.86084 -2.32617,21.22949 -7.7793,0 -27.07519,0 -34.85449,0 -0.15039,-1.36816 -0.97901,-8.93408 -2.32471,-21.21826 l -0.0464,-0.54053 m 38.43555,-27.72998 c 0,-0.6289 0.53174,-1.16015 1.16113,-1.16015 h 10.69873 c 0.62891,0 1.16114,0.53125 1.16114,1.16015 v 22.82422 c 0,0.6294 -0.53223,1.16065 -1.16114,1.16065 H 318.9901 c -0.62939,0 -1.16113,-0.53125 -1.16113,-1.16065 v -22.82422 m 4.14453,-4.90527 h -2.9834 c -1.13623,0 -2.1831,0.38818 -3.01562,1.03857 l -0.30957,-0.19922 c -0.78369,-0.52978 -1.72656,-0.83935 -2.74072,-0.83935 h -9.85352 l -0.53516,9.8e-4 v -10.78956 l 0.009,-0.72216 23.17334,-16.69629 -0.15381,0.95849 c -1.06884,9.75293 -2.06884,18.88282 -2.98535,27.24756 l -0.60547,9.8e-4 m 18.39258,-162.36572 -37.82178,-29.8667 -0.009,-0.58936 v -35.04297 -0.53174 h 44.40479 l 0.65576,0.0552 c -2.3291,21.25928 -4.71826,43.0625 -7.08594,64.67481 l -0.14404,1.30078 m -6.06494,3.78662 h -30.89648 l -0.86915,-0.003 v -24.54297 l 0.0356,-0.56543 c 12.8501,10.14844 24.56396,19.39795 30.97656,24.46191 l 0.75342,0.64942 m -69.5332,57.84082 c -1.81299,-16.54395 -3.69092,-33.68604 -5.59229,-51.04102 l 0.56006,-0.1123 h 35.30957 l 0.80273,-0.003 v 27.8872 l 0.0225,0.69678 c -11.98145,9.0791 -23.70166,17.95899 -30.9712,23.46729 l -0.13134,-0.89502 M 302.535,460.68535 v -23.07178 l 0.86915,0.003 h 30.16064 l -1.33105,1.02783 c -6.7544,5.11816 -17.95704,13.60644 -29.65918,22.47314 l -0.0396,-0.43212 m -7.28955,-29.75635 h -35.91162 l -0.89648,0.0684 c -2.39844,-21.88916 -4.82471,-44.03467 -7.19483,-65.67041 l 0.58497,0.42138 c 9.36865,7.39795 27.04296,21.35498 44.01367,34.75586 l 0.006,0.59571 v 29.82617 l -0.60205,0.003 m -0.0669,61.70361 H 272.0395 l 0.74511,-0.55225 c 5.10645,-3.86962 13.58057,-10.29052 23.06739,-17.47851 l -0.005,0.39502 v 17.6543 l -0.66894,-0.0186 m 38.05225,0 h -29.95997 l -0.73584,0.019 v -22.53662 l 0.0547,-0.61816 c 13.08106,-9.91162 26.98975,-20.45068 36.18164,-27.41504 l -0.1084,0.61523 c -1.83544,16.75538 -3.6455,33.27784 -5.39209,49.21631 l -0.04,0.71924 m -37.38428,27.04785 c -9.19238,-7.97656 -17.79932,-15.44482 -23.0166,-19.97217 l -0.32178,-0.38818 h 22.60351 l 0.73584,0.019 v 19.52784 l -9.7e-4,0.81347 m 31.43213,27.27393 c -6.31739,-5.48145 -15.46485,-13.41846 -24.70313,-21.43457 l -0.0405,-0.56738 v -25.61329 l 0.73584,-0.019 h 29.22413 l -0.11866,0.75586 c -1.78076,16.26025 -3.4873,31.83252 -5.07568,46.33105 l -0.022,0.54737 m -51.58545,41.53515 c -1.03565,-9.45166 -2.17578,-19.85791 -3.39942,-31.01953 l -0.0532,-0.72705 h 23.60693 v 0.77735 16.51855 l -0.0283,0.56201 c -7.78027,5.60547 -15.30615,11.02735 -20.02636,14.42871 l -0.0996,-0.54004 m 26.84179,-19.39941 v -11.77002 -0.57715 h 18.05616 l -0.52637,0.38819 c -4.29395,3.09423 -10.68555,7.69921 -17.45264,12.5747 l -0.0772,-0.61572 m 18.05616,-19.03467 h -18.05616 v -0.62695 -14.44531 l 0.0591,-0.59375 c 7.03418,6.104 13.34326,11.57861 17.51025,15.19384 l 0.48682,0.47217 m -24.67676,0 h -24.40918 l -0.11231,-0.81445 c -1.55712,-14.20996 -3.23242,-29.49756 -4.98388,-45.48682 l -0.085,-0.83691 c 7.54248,6.54492 18.84472,16.35156 29.54101,25.63379 l -0.0176,0.68066 v 19.99561 l 0.0669,0.82812 m -38.57844,-286.6454 c -1.42529,2.14843 -2.69043,4.41162 -3.77734,6.77441 l -0.26563,-0.2666 -7.67187,-6.50781 0.53955,-0.0239 h 10.63281 l 0.54248,0.0239 m 23.33984,-18.97461 c -6.8667,2.73437 -12.99218,6.94238 -17.9834,12.23193 l -0.8833,0.0312 h -21.60058 l -0.87207,-0.0483 c -2.23047,-20.36328 -4.16944,-38.05615 -5.67627,-51.81006 l -0.0503,-0.43896 h 8.3374 l 0.13086,0.13916 37.86377,39.18799 0.73388,0.70703 m 15.17334,-3.42823 c -2.73633,0.18067 -5.41308,0.58106 -8.01318,1.18457 l -0.56592,-0.50293 -35.88721,-37.1416 -0.13964,-0.14599 h 44.60546 v 0.24267 35.82276 l 4.9e-4,0.54052 m 46.74512,113.41748 h -39.99121 l -0.0669,-0.67236 v -11.63574 l 0.0747,-0.93555 c 6.60254,-0.44629 12.85938,-2.1748 18.52246,-4.93799 l 0.43799,0.36475 20.73047,17.58496 0.29248,0.23193 M 327.32371,332.6538 c 13.30762,-9.0376 22.06738,-24.29443 22.06738,-41.55713 0,-3.40625 -0.34082,-6.73389 -0.99023,-9.95117 l 0.55859,-0.29492 7.47315,-4.74805 0.52051,-0.33594 c -2.51954,22.99658 -5.31641,48.5249 -8.22901,75.10889 l -0.66601,-0.56836 -20.08399,-17.0376 -0.65039,-0.61572 m -31.46777,59.34082 -39.12305,-30.89404 0.729,0.0117 h 38.38623 v 0.53223 29.62549 l 0.008,0.72461 m -0.008,-37.56983 h -45.20751 l -0.59961,-0.0703 c -0.36573,-3.33691 -0.7295,-6.65869 -1.0918,-9.9624 l 0.39453,-0.24561 20.02393,-12.72314 0.29589,0.24756 c 7.46485,5.44726 16.48291,8.88818 26.2544,9.51953 l -0.0698,0.72559 v 11.70312 0.80566 m 65.17041,-118.17919 -27.48925,17.46679 -0.56739,0.27198 c -4.34716,-3.95899 -9.39062,-7.167 -14.92187,-9.41553 l -0.32275,-0.0894 38.51464,-39.86181 0.20508,-0.21631 h 7.98047 l 0.34961,0.041 c -0.979,8.94336 -2.14404,19.5752 -3.45557,31.54297 l -0.29297,0.26026 m -50.80224,5.8706 c -2.33008,-0.52392 -4.7207,-0.88574 -7.16016,-1.07275 l -0.52051,-0.042 v -36.40234 l 0.0225,-0.19775 h 44.56054 l -0.15088,0.18066 -36.37939,37.65137 -0.37207,-0.11719 m -69.16455,26.1875 9.48144,8.04248 0.52344,0.48486 c -1.34277,4.52344 -2.06445,9.31202 -2.06445,14.26563 0,5.03955 0.74658,9.90869 2.13525,14.50098 l 0.0659,0.43164 -5.57666,3.54345 -0.45557,0.24317 c -1.61133,-14.70801 -3.15381,-28.78223 -4.59375,-41.92578 l 0.48438,0.41357 z" /><path
         inkscape:connector-curvature="0"
         id="path32"
         style="fill:#ffffff;fill-opacity:1;fill-rule:nonzero;stroke:none"
         d="m 324.58447,332.51514 c -7.39404,4.54931 -16.09277,7.17578 -25.39258,7.17578 -1.83056,0 -3.63818,-0.10156 -5.41748,-0.30029 l -0.13623,-0.0195 c 2.46192,-2.48291 5.10254,-4.13623 6.15332,-4.74804 l 0.47022,0.004 c 5.86377,0 11.46826,-1.11865 16.60547,-3.15039 l 0.13037,-0.0493 c 0.76562,0.0576 4.32471,0.34375 7.77344,0.96533 l -0.18653,0.12256 z" /><path
         inkscape:connector-curvature="0"
         id="path34"
         style="fill:#ffffff;fill-opacity:1;fill-rule:nonzero;stroke:none"
         d="m 347.15381,284.63379 c -0.8833,0.86279 -1.71045,1.71142 -2.10742,2.12207 l -0.11621,0.12402 c 0.0913,1.15186 0.13818,2.31592 0.13818,3.49024 0,5.58935 -1.05469,10.93945 -2.97705,15.86767 l -0.0713,0.15332 c 0.0718,0.78028 0.3125,2.71143 1.08887,5.48682 l 0.0908,-0.17969 c 2.9414,-6.2583 4.58642,-13.24121 4.58642,-20.60156 0,-2.24658 -0.15283,-4.45898 -0.4497,-6.625 l -0.18262,0.16211 z" /><path
         inkscape:connector-curvature="0"
         id="path36"
         style="fill:#ffffff;fill-opacity:1;fill-rule:nonzero;stroke:none"
         d="m 315.93555,304.94189 c 3.90185,3.32032 7.53613,7.10401 9.53711,9.27247 l 0.20605,-0.0772 c 1.97852,-0.78272 10.7207,-4.32813 15.79932,-7.77539 l 0.0366,-0.1211 c 1.94873,-4.92187 3.01855,-10.27539 3.01855,-15.8706 0,-1.47754 -0.0747,-2.93799 -0.2207,-4.37793 l -0.0772,-0.15283 c -2.80762,-5.25293 -8.80762,-9.6919 -10.31885,-10.75635 l -0.1333,-0.0913 c -7.07129,3.49658 -12.77881,7.1831 -15.6206,9.1206 l -0.0171,0.20801 c -0.16162,2.64698 -0.85352,12.81348 -2.32666,20.52881 l 0.1167,0.0928 z" /><path
         inkscape:connector-curvature="0"
         id="path38"
         style="fill:#ffffff;fill-opacity:1;fill-rule:nonzero;stroke:none"
         d="m 310.39453,243.80518 c 8.69678,2.05957 16.49658,6.46289 22.69434,12.50293 l 0.0776,0.0718 c -1.58154,0.2002 -3.10302,0.32617 -3.78076,0.37744 l -0.0976,-0.0762 c -5.12403,-4.31347 -11.24073,-7.51025 -17.95948,-9.20166 l -0.0688,-0.007 c -0.18213,-0.62744 -0.58106,-2.03418 -0.99366,-3.6958 l 0.12842,0.0288 z" /><path
         inkscape:connector-curvature="0"
         id="path40"
         style="fill:#ffffff;fill-opacity:1;fill-rule:nonzero;stroke:none"
         d="m 310.69434,247.97461 c -7.43946,1.80371 -13.8003,7.05518 -15.30957,8.37305 l -0.10889,0.10009 c 1.87744,6.33545 3.10303,13.39307 3.65918,16.9751 l 0.15771,0.0767 c 2.33838,0.7832 11.43067,4.05811 18.78809,9.92432 l 0.16553,0.12109 c 2.91748,-1.98047 8.56006,-5.60205 15.51172,-9.03857 l -0.0166,-0.16846 c -0.12011,-2.0083 -0.78662,-9.70117 -4.2124,-16.91601 l -0.084,-0.0762 c -5.20069,-4.45752 -11.45996,-7.73877 -18.3501,-9.42285 l -0.20068,0.0518 z" /><path
         inkscape:connector-curvature="0"
         id="path42"
         style="fill:#ffffff;fill-opacity:1;fill-rule:nonzero;stroke:none"
         d="m 261.48682,268.21045 c 3.8164,-6.48975 9.25488,-11.93897 15.76269,-15.80274 l 0.17627,-0.104 c 0.084,-0.80469 0.2959,-2.91894 0.41504,-4.73193 l 0.0117,-0.12891 c -9.46094,4.64307 -17.20117,12.27295 -21.9834,21.65283 l -0.0767,0.16065 c 2.83008,-0.31739 5.01758,-0.7876 5.63818,-0.92871 l 0.0562,-0.11719 z" /><path
         inkscape:connector-curvature="0"
         id="path44"
         style="fill:#ffffff;fill-opacity:1;fill-rule:nonzero;stroke:none"
         d="m 261.69482,269.1416 c 0.70655,5.86182 3.89454,14.11084 4.68457,16.0918 l 0.0899,0.20752 c 2.80566,0.63574 9.29639,2.01953 16.15527,2.88135 l 0.2002,0.0269 c 1.22949,-1.49316 7.52539,-8.94531 15.43701,-14.84082 l 0.12842,-0.10596 c -0.56206,-3.60649 -1.7813,-10.58891 -3.64019,-16.84819 l -0.12988,-0.0508 c -1.86377,-0.63477 -9.54151,-3.1377 -16.62744,-3.8125 l -0.13477,-0.0205 c -6.73779,3.92041 -12.3374,9.55176 -16.18408,16.28418 l 0.021,0.18701 z" /><path
         inkscape:connector-curvature="0"
         id="path46"
         style="fill:#ffffff;fill-opacity:1;fill-rule:nonzero;stroke:none"
         d="m 268.0127,321.06396 c -5.38379,-5.51562 -9.33399,-12.40429 -11.25342,-20.07519 l -0.0591,-0.0898 c -0.90088,-1.21436 -2.99805,-3.84034 -5.97706,-6.34571 l 0.008,0.16553 c 0.97461,13.16016 7.21338,24.87891 16.61279,33.05225 l 0.13574,0.11816 c 0.36963,-3.00732 0.58887,-5.77148 0.65821,-6.70508 l -0.125,-0.12012 z" /><path
         inkscape:connector-curvature="0"
         id="path48"
         style="fill:#ffffff;fill-opacity:1;fill-rule:nonzero;stroke:none"
         d="m 293.14941,308.65918 c -2.91845,5.00488 -5.40087,10.68799 -6.76416,14.00488 l -0.0537,0.14356 c 4.56055,6.39551 11.42237,10.25976 13.38721,11.27881 l 0.54297,0.005 c 6.0166,0 11.75781,-1.19239 16.99267,-3.34912 l 0.14307,-0.0786 c 1.35889,-1.93017 4.9585,-7.49951 7.71484,-15.87353 l 0.0381,-0.13721 c -1.99658,-2.16553 -5.70996,-6.04102 -9.68408,-9.40869 l -0.0908,-0.0752 c -1.82129,0.4502 -9.75781,2.29346 -22.00293,3.46534 l -0.22315,0.0244 z" /><path
         inkscape:connector-curvature="0"
         id="path50"
         style="fill:#ffffff;fill-opacity:1;fill-rule:nonzero;stroke:none"
         d="m 292.59863,308.2207 c -1.47314,-2.21924 -7.82861,-12.04052 -9.91748,-19.33838 l -0.20996,-0.0396 c -6.88428,-0.87011 -13.38232,-2.25927 -16.16406,-2.89062 l -0.061,0.0962 c -1.28027,1.56592 -6.19824,7.84375 -8.82177,14.90479 l -0.0742,0.18945 c 1.97168,7.65674 5.99511,14.51416 11.45605,19.96387 l 0.2378,0.0894 c 5.81787,2.05371 15.34423,1.39551 16.83984,1.27637 l 0.0586,-0.13672 c 1.38135,-3.35303 3.85352,-8.98828 6.7544,-13.96143 l -0.0981,-0.15332 z" /></g></g></svg>