<svg xmlns:dc="http://purl.org/dc/elements/1.1/" xmlns:cc="http://creativecommons.org/ns#" xmlns:rdf="http://www.w3.org/1999/02/22-rdf-syntax-ns#" xmlns:svg="http://www.w3.org/2000/svg" xmlns="http://www.w3.org/2000/svg" height="316" width="316" viewBox="0 0 724 724"
xml:space="preserve" version="1.1"><rect id="backgroundrect" width="100%" height="100%" x="0" y="0" fill="none" stroke="none"/><metadata id="metadata8"><rdf:RDF><cc:Work rdf:about=""><dc:format>image/svg+xml</dc:format><dc:type rdf:resource="http://purl.org/dc/dcmitype/StillImage"/></cc:Work></rdf:RDF></metadata><defs id="defs6"/><g class="currentLayer"><title>Layer 1</title><g id="g10" class=""><path id="path12" style="fill:#3b84cd;fill-opacity:1;fill-rule:nonzero;stroke:none" d="m724.0117406234375,362.00062968860675 c0,199.92576833518902 -162.078115948047,362.003897616569 -362.00520428320306,362.003897616569 c-199.926421668506,0 -362.006497616504,-162.07812928138 -362.006497616504,-362.003897616569 c0,-199.921875001953 162.08007594799798,-362.00064428331706 362.006497616504,-362.00064428331706 c199.92708833515601,0 362.00520428320306,162.078769281364 362.00520428320306,362.00064428331706 z" stroke-width="0"/><path id="path14" style="fill:#f9db0f;fill-opacity:1;fill-rule:nonzero;stroke:none" d="m361.9961230071615,529.2284788412437 l8.238279794043,26.658852666862003 l27.201825986621,-6.197906511719 l-18.962239525944,20.463532821745 l18.962239525944,20.462239488444 l-27.201825986621,-6.197906511719 l-8.238279794043,26.658852666862003 l-8.236973127409001,-26.658852666862003 l-27.204425986556004,6.197906511719 l18.962239525944,-20.462239488444 l-18.962239525944,-20.463532821745 l27.204425986556004,6.197906511719 z" stroke-width="0"/><path id="path16" style="fill:#f9db0f;fill-opacity:1;fill-rule:nonzero;stroke:none" d="m278.3834984308105,506.8196260681317 l-6.195959845101001,27.20573265319 l26.657546000228,8.234373127473999 l-26.652346000358005,8.240893127311 l6.190759845231,27.200519319987002 l-20.459639488509,-18.968759525781003 l-20.462892821761002,18.968759525781003 l6.195319845117,-27.20573265319 l-26.658199333545,-8.234373127473999 l26.651039333724,-8.238279794043 l-6.188159845296,-27.204425986556004 l20.459639488509,18.970052859082 z" stroke-width="0"/><path id="path18" style="fill:#f9db0f;fill-opacity:1;fill-rule:nonzero;stroke:none" d="m445.6107075834636,506.8287460679037 l20.464839488379003,18.968746192448002 l20.458332821875,-18.968746192448002 l-6.191399845215001,27.201825986621 l26.654946000293002,8.239573127344 l-26.658852666862003,8.235679794108 l6.1953065117840005,27.20573265319 l-20.46093282181,-18.970052859082 l-20.462239488444,18.970052859082 l6.190106511914,-27.200519319987002 l-26.652346000358005,-8.240893127311 l26.658852666862003,-8.235666460775 z" stroke-width="0"/><path id="path20" style="fill:#ffffff;fill-opacity:1;fill-rule:nonzero;stroke:none" d="m308.0156576900065,217.60869996507176 v-138.19986321167002 h21.595706126774 v29.628905925944 h21.597652793391998 v-29.628905925944 h21.591799460205003 v29.628905925944 h21.596346126758 v-29.628905925944 h21.595052793457004 v138.19986321167002 l0.1327999966800001,0.06639999834000002 c59.792971838509,22.081386114632 102.541664103125,79.656251341927 102.541664103125,147.02604965768202 c0,86.382811173763 -70.277344909733,156.661449416797 -156.661449416797,156.661449416797 c-86.382811173763,0 -156.660809416813,-70.278638243034 -156.660809416813,-156.661449416797 c0,-67.352864982845 42.724612265218006,-124.91602354376602 102.49739743756501,-147.008462991455 l0.173826662321,-0.08399999790000004 z" stroke-width="0"/><path id="path22" style="fill:#f9db0f;fill-opacity:1;fill-rule:nonzero;stroke:none" d="m712.3047142494465,362.00062968860675 c0,193.46092849681 -156.83463607913401,350.298164575879 -350.298177909212,350.298164575879 c-193.46092849681,0 -350.29881790919603,-156.83723607906902 -350.29881790919603,-350.298164575879 c0,-193.457035163574 156.837889412386,-350.294271242643 350.29881790919603,-350.294271242643 c193.463541830078,0 350.298177909212,156.83723607906902 350.298177909212,350.294271242643 m-193.638021825716,2.700519932487 c0,-28.675785949772003 -7.746093139681,-55.57551861061201 -21.251306135384002,-78.721358031966 l0.014399999640000006,-0.752599981185 v-226.58594100201802 l-0.41927998951800016,-0.16145332929700007 c-5.8984265192060015,-2.6321599341960003 -11.884106369564002,-5.099613205843 -17.955719551107,-7.391919815202002 l-0.38671999033200016,-0.14649332967100004 V259.8105255766927 l0.048133332130000026,0.4947866542970002 c-6.458333171875,-7.213546486328001 -13.574212993978,-13.826826320996 -21.255212801953,-19.744786173047 l-0.029999999250000017,-0.45051998873700017 v-196.38996842358404 l-0.4661466550130001,-0.09439999764000002 c-30.100252580827,-8.992839775179 -61.973945117318,-13.824226321061 -94.958330959375,-13.824226321061 c-32.953772509489006,0 -64.803385046582,4.822266546110001 -94.876290961426,13.80013298833 l-0.5488266529460002,0.07879999803000004 V240.16861940107367 l0.06959999826000003,0.309893325586 c-7.685546474528,5.915373185449001 -14.809892963086,12.524746353548002 -21.277346134733,19.735679506608 l-0.029999999250000017,-0.2246133277180001 V50.941410798420634 l-0.5488266529460002,0.20833332812500008 c-5.909506518929,2.2356799441080004 -11.740879706478001,4.635413217448001 -17.485026229541003,7.193359820166 l-0.7291599817710002,0.21745332789700011 v226.666661 l0.02799999930000002,0.7298133150880001 c-13.515612995443002,23.150386087907002 -21.264319468392,50.059238748519 -21.264319468392,78.744144698063 v0 v-295.665365941699 l-0.9173199770670003,0.5729199856770001 C100.53194287709951,125.82484892633465 29.802771311995507,235.8092195100587 29.802771311995507,362.00062968860675 c0,183.177075420573 149.025382941032,332.200511694987 332.203765028239,332.200511694987 c183.17708875390602,0 332.20312502825504,-149.023436274414 332.20312502825504,-332.200511694987 c0,-126.40755683981101 -70.970051559082,-236.55208741953103 -175.15884895436199,-292.680992682975 l-0.38281332376300015,-0.12373333024000006 V345.1086567775727 l-0.0013066666340000007,19.592452843522 z" stroke-width="0"/><path id="path24" style="fill:#2e6fc0;fill-opacity:1;fill-rule:nonzero;stroke:none" d="m362.0052430069335,416.6568683222007 c23.682292741276,0 32.50519918737,-2.3815066071290003 32.50519918737,-2.3815066071290003 c16.666666250000002,-30.951825892871 25.238279369043,-65.238278369043 25.238279369043,-65.238278369043 c-21.904946119043,-24.285159392871 -57.743478556412995,-44.284505559554006 -57.743478556412995,-44.284505559554006 v0 c0,0 -35.841145770638,19.999346166683 -57.746091889681004,44.284505559554006 c0,0 8.571613119043,34.286452476172 25.238279369043,65.238278369043 c0,0 8.82226644611,2.3815066071290003 32.507812520638,2.3815066071290003 z" stroke-width="0"/><path id="path26" style="fill:#2e6fc0;fill-opacity:1;fill-rule:nonzero;stroke:none" d="m401.82294867815756,213.27276674013672 c12.290359692741001,13.631506325879 18.877599528060003,27.669265974935 18.877599528060003,27.669265974935 C386.8906557181315,244.75127261984073 362.0052430069335,259.51233891748075 362.0052430069335,259.51233891748075 v0 c0,0 -24.888679377783,-14.761066297640001 -58.697918532552,-18.570306202409 c0,0 6.595706501774001,-14.052079648698 18.898439527539,-27.690759307731003 l0.10226666411000004,-0.11653333042000005 c12.682293016276,-3.323559916911 25.988279350293,-5.09439987264 39.697265674235005,-5.09439987264 c13.703119657422002,0 27.002599324935,1.7682266224610004 39.678385674707,5.08919987277 l0.13931999651700008,0.14322666308600004 z" stroke-width="0"/><path id="path28" style="fill:#2e6fc0;fill-opacity:1;fill-rule:nonzero;stroke:none" d="m230.60811295852852,279.8984184078287 c16.6386662507,-7.359386482682001 31.832025870866005,-9.263679768408 31.832025870866005,-9.263679768408 c-6.8242131627279985,33.330732500065 -0.4765599880860002,61.560545127653 -0.4765599880860002,61.560545127653 v0 c0,0 -21.729826123421002,19.109372855599002 -35.798825771696,50.086585414502004 c0,0 -11.229826385921001,-10.526039736849 -20.377612823893003,-26.325519341862 l-0.18814666196300003,-0.2519466603680001 c1.576826627246,-27.740239306494 10.406906406494,-53.57226532736001 24.618492717871,-75.62630477600901 z" stroke-width="0"/><path id="path30" style="fill:#2e6fc0;fill-opacity:1;fill-rule:nonzero;stroke:none" d="m305.06253776383454,510.65426597226565 c-25.255866035270003,-9.888026419466 -47.33985214983701,-26.152346012858004 -64.26237172677399,-46.799478830013 l-0.06506666504000004,-0.52213332028 c-1.8307332875650002,-18.040359548991 1.03906664069,-33.009119174772 1.03906664069,-33.009119174772 c29.591145926888,16.791666246875 58.402345206608004,19.47786617972 58.402345206608004,19.47786617972 v0 c0,0 11.458333046875001,26.572919335677003 36.572252419027,49.52603876184901 c0,0 -13.421212997803002,7.395839815104 -31.216785886247003,11.221359719466 l-0.4693999882650001,0.10546666403000005 z" stroke-width="0"/><path id="path32" style="fill:#2e6fc0;fill-opacity:1;fill-rule:nonzero;stroke:none" d="m483.20835997685555,463.8586938088217 c-16.928386243457,20.652346150358 -39.018225691211,36.917972410383996 -64.28254505960301,46.804692163216004 l-0.4010399899740002,-0.10679999733000003 c-17.820319554492002,-3.8216132377930006 -31.265625885026,-11.230466385905 -31.265625885026,-11.230466385905 c25.113279372167998,-22.954426092806003 36.571612419043,-49.524745428548 36.571612419043,-49.524745428548 v0 c0,0 28.812492613021,-2.6874932661460003 58.402345206608004,-19.47786617972 c0,0 2.868479928288,14.954426292806001 1.04426664056,32.984372508724 l-0.06906666494000005,0.550786652897 z" stroke-width="0"/><path id="path34" style="fill:#2e6fc0;fill-opacity:1;fill-rule:nonzero;stroke:none" d="m493.75002637998057,280.01104507167975 c14.213546311327999,22.037106115739004 23.055986090266998,47.850905470394 24.653652716992003,75.573558110661 l-0.16666666250000003,0.34961332459300004 c-9.152346437858,15.812506271354 -20.393239490169,26.347652674642 -20.393239490169,26.347652674642 c-14.070306314909,-30.977212558903002 -35.799479105013,-50.086585414502004 -35.799479105013,-50.086585414502004 v0 c0,0 6.348959841276001,-28.229812627588004 -0.4765599880860002,-61.56185179428701 c0,0 15.171879620703,1.9016932857910003 31.800785871647,9.24999976875 l0.3815066571290001,0.1275999968100001 z" stroke-width="0"/><path id="path36" style="fill:#ffffff;fill-opacity:1;fill-rule:nonzero;stroke:none" d="m78.4004234303875,312.17445760092767 l-32.550119186247,-4.562506552604001 l2.3456932746910004,-16.740879581478 l52.935545343278,7.419266481185 l-3.4628799134280004,24.708986048942 l-33.281905834619,6.925133160205001 l31.688145874463004,4.442053222282 l-2.3450532747070003,16.740879581478 l-52.934892009961,-7.418613147868 l3.4628932467610003,-24.710932715560002 z" stroke-width="0"/><path id="path38" style="fill:#ffffff;fill-opacity:1;fill-rule:nonzero;stroke:none" d="m41.40954435515951,385.5878690989257 c-0.6302133175780001,-8.440106455663999 1.2760399680990002,-15.14453295472 5.720053190332001,-20.120452830322 c4.445306555534,-4.973959875651 11.020826391146,-7.7857998053549995 19.732426173356,-8.436839789079 c8.832026445866001,-0.6595066501790001 15.824212937728,1.1861866370120002 20.976559475586,5.541013194808 c5.1523465378580005,4.354813224463 8.055986465267,10.873039728174001 8.705079782373,19.551426177880998 c0.6438799839030004,8.628906450944001 -1.2532666353350002,15.460946280143002 -5.6933598576660005,20.497399487565 c-4.440106555664,5.035159874121001 -11.061853056787001,7.880213136328001 -19.869799503255003,8.539066453190001 c-8.928386443457,0.6666666500000001 -15.921226268636001,-1.1809999704750003 -20.978506142204,-5.542973194759001 c-5.0559998736,-4.3606798909830005 -7.9205731353190005,-11.03906639069 -8.592453118522,-20.028639499284 m41.238932302360006,-2.483079937923 c-0.15950666267900004,-2.14453327972 -1.255213301953,-3.580733243815 -3.288413251123,-4.312493225521 c-2.031253282552,-0.7343866483070002 -5.7239598569010015,-0.8984399775390005 -11.076826389746001,-0.4987066541990001 c-5.018879874528,0.37499999062500006 -8.489573121094,1.0755199731120002 -10.411453073047,2.1028666140950003 c-1.9251332852050003,1.028639974284 -2.8092399297690003,2.591146601888 -2.6516932670410007,4.688799882780001 c0.15885332936200006,2.1393199465170003 1.321613300293,3.5729199106770007 3.487626579476,4.296879892578 c2.162759945931,0.7239599819010001 5.970706517399001,0.8815066446290003 11.422533047770001,0.47134665488300015 c4.9179598770510005,-0.36587999085300016 8.273439793164,-1.054679973633 10.067053081657,-2.058586615202 c1.7929732885090002,-1.0052133082030001 2.609373268099,-2.5690132691080003 2.451173272054,-4.690106549414 z" stroke-width="0"/><path id="path40" style="fill:#ffffff;fill-opacity:1;fill-rule:nonzero;stroke:none" d="m64.5332371104005,477.2493201407226 c-2.542306603109,-4.299479892513 -4.75519988112,-8.541666453125 -6.633453167497,-12.729173015104001 c-1.880213286328,-4.1913998952150004 -3.399746581673,-8.259106460189 -4.555346552783001,-12.204426361556001 c-2.4016932732910004,-8.195306461784002 -1.8951732859540003,-15.376292948926002 1.518226628711,-21.544266128060002 c3.4108132480630005,-6.1666665125 9.24999976875,-10.462239738444001 17.518239562044002,-12.885413011197999 c8.286453126172,-2.425786606022 15.469399613265,-1.7695332890950002 21.544266128060002,1.971346617383 c6.074866514795,3.739586573177 10.470053071582,10.243493077246 13.184239670394001,19.507812845638 c2.1015599474610003,7.175786487272001 2.259773276839,13.130213005078 0.4759199881020002,17.861986220117 c-1.7858132886880003,4.731773215039 -5.375653198942,7.888013136133 -10.771493064046002,9.470053096582001 l-0.2831999929200001,0.08199999795000003 l-5.325519866862,-18.18359954541 c1.2981733008790002,-0.5325466533530002 2.1842399453940002,-1.3619732992840001 2.656253266927,-2.4856666045250004 c0.47330665483400025,-1.128906638444 0.4954399876140002,-2.424479939388 0.06510666503900003,-3.8932399026690003 c-0.8196666461750003,-2.8007732633140003 -2.5091199372720006,-4.4726532215170005 -5.066413206673,-5.013013208008 c-2.5572932694009998,-0.54426665306 -6.497399837565,-0.033866665820000016 -11.821613037793002,1.526039961849 c-4.838546545703001,1.415359964616 -8.07226646486,2.976559925586 -9.70573309069,4.682293216276 c-1.6334532924970002,1.7070266239910001 -2.06119994847,3.8893199027670002 -1.281239967969,6.549479836263001 c0.27994665966800014,0.9557333094400001 0.6894533160970002,1.8567732869140006 1.2291599692710002,2.700519932487 c0.5377599865560002,0.8398399790040003 1.2180933028810004,1.621093292806 2.038413282373,2.3450532747070003 l5.891279852718,-1.7252666235350005 l-2.006519949837,-6.855466495280001 l10.053386415332001,-2.944013259733 l7.630213142578,26.046879348828003 l-26.354172674479003,7.720053140332 z" stroke-width="0"/><path id="path42" style="fill:#ffffff;fill-opacity:1;fill-rule:nonzero;stroke:none" d="m78.6947034230305,513.7766658942057 c-4.021493232796,-7.444013147233 -5.020839874479001,-14.345052974707 -2.9973999250650003,-20.700519482487 c2.0266932826660002,-6.356773174414 6.878906494694,-11.610679709733 14.564452969222,-15.761719605957 c7.7929731385090015,-4.209639894759 14.928386293457,-5.381519865462 21.410159464746002,-3.5091199122720007 c6.482413171273,1.8684932866210002 11.793613038493,6.630213167578001 15.932292935026002,14.289066309439999 c4.112626563851,7.6132798096680006 5.171213204053,14.623692967741 3.1751199206220004,21.035159474121002 c-1.9960932834310003,6.407546506478 -6.878253161377001,11.712226373861 -14.648426300456,15.910146268913001 c-7.877613136393001,4.255213226953 -15.014972957959,5.425786531022001 -21.41146613138,3.5104132455730004 c-6.3977865067219994,-1.9166666187499999 -11.739586373177001,-6.839839829004 -16.024732932715,-14.773426297331 m36.626292417676,-19.110679522233 c-1.0208266411460003,-1.8919332860350004 -2.607413268148,-2.7552132644530003 -4.761719880957001,-2.593746601823 c-2.1529866128420005,0.16145332929700007 -5.593093193506,1.518226628711 -10.315746408773,4.068999898275 c-4.427079889323,2.393239940169 -7.308599817285,4.450519888737 -8.643879783903001,6.174479845638 c-1.335293299951,1.723959956901 -1.504559962386,3.5104265789060003 -0.5065066540040002,5.359373199348999 c1.021479974463,1.8893332861 2.6679599333010007,2.7252665985349998 4.9394532098470005,2.501306604134 c2.2708266098960004,-0.22655999433600013 5.810546521403001,-1.6380132923830002 10.619133067855,-4.238279894043 c4.3417998914550004,-2.342453274772 7.121746488623001,-4.339839891504 8.348306457959001,-5.989586516927 c1.2252666360350002,-1.6510399587240001 1.3339866333170005,-3.411453248047 0.32095999197600017,-5.282546534603 z" stroke-width="0"/><path id="path44" style="fill:#ffffff;fill-opacity:1;fill-rule:nonzero;stroke:none" d="m101.42256952150049,551.7493182782227 l39.568359010791,-35.937505768229 l19.747386172982,21.740892789811 l-19.471346179883,25.617186026237004 l27.513012645508002,-16.764319580892 l18.794279530143,20.69399948265 l-39.568359010791,35.937505768229 l-11.605479709863001,-12.776039680599 l28.448572622119002,-25.545572694694002 l-33.88346581958,19.559892844336 l-12.47786635472,-13.736972989909 l22.796226096761,-31.769532539095 l-28.255199293620002,25.760412689323 z" stroke-width="0"/><path id="path46" style="fill:#ffffff;fill-opacity:1;fill-rule:nonzero;stroke:none" d="m162.68232799000648,613.7362900618817 l30.595052568457003,-43.83071890423201 l32.820305846159,22.910146093913003 l-7.837239804069,11.225266386035 l-16.223959594401002,-11.324226383561 l-3.4075465814780004,4.880213211328001 l15.069012956608,10.518226403711001 l-7.8365864707520005,11.226559719336 l-15.069666289925001,-10.519519737012 l-3.5436132447430007,5.076813206413 l16.790359580241,11.720053040332001 l-7.9726531340169995,11.420573047819 z" stroke-width="0"/><path id="path48" style="fill:#ffffff;fill-opacity:1;fill-rule:nonzero;stroke:none" d="m269.8730853102375,613.8625967253907 l-6.069013181608,12.932293010026001 l-11.638679709033001,-5.46093319681 l-16.641266250635002,35.455719113607 l-18.643879533903,-8.74999978125 l16.640626250651,-35.455719113607 l-11.746093039681002,-5.5130265288409985 l6.069653181592001,-12.933599676660002 z" stroke-width="0"/><path id="path50" style="fill:#ffffff;fill-opacity:1;fill-rule:nonzero;stroke:none" d="m283.5273783022135,639.0474894291017 l-7.883466469580001,31.91146586888 l-16.412106256364,-4.0546932319660005 l12.818359679541002,-51.89193203603501 l24.223306061084003,5.980479850488 l3.469399913265,33.818999154525 l7.673173141504,-31.066399223340003 l16.411466256380002,4.054679898633 l-12.817706346224,51.89193203603501 l-24.223959394401003,-5.983066517090001 z" stroke-width="0"/><path id="path52" style="fill:#ffffff;fill-opacity:1;fill-rule:nonzero;stroke:none" d="m352.1536832532225,629.1803030091147 l-3.9739599006510002,53.305985334017 l-20.536466153255002,-1.5312399617190002 l3.971359900716,-53.30599866735 z" stroke-width="0"/><path id="path54" style="fill:#ffffff;fill-opacity:1;fill-rule:nonzero;stroke:none" d="m394.06773553870454,681.8951416912437 l-9.182293103776,-52.657545350228006 l19.821612837793,-3.454426580306 l3.8906265694010003,22.31119944222 l7.2578131518880005,-24.256506060254 l20.904946144043002,-3.645839908854 l-9.654946425293,26.77213266403 l20.908852810612,25.524746028548 l-21.690092791081,3.7812399054690005 l-16.582039585449,-21.60546612653 l4.14453322972,23.774746072298 z" stroke-width="0"/><path id="path56" style="fill:#ffffff;fill-opacity:1;fill-rule:nonzero;stroke:none" d="m493.15887972809253,639.8092094100587 l5.138026538216001,13.200519669987 l-37.389319065267,14.550786302897 l-19.385426182031,-49.812505421354004 l19.304692850716002,-7.514319812142 l14.247399643815,36.611972418034 z" stroke-width="0"/><path id="path58" style="fill:#ffffff;fill-opacity:1;fill-rule:nonzero;stroke:none" d="m477.89977344290355,603.9654636394857 l17.140612904818003,-10.303386409082 l17.023439574414002,28.322919291927 c1.1705733040690003,1.945306618034 2.407559939811,3.2174399195639998 3.710946573893,3.813799904655 c1.305986634017,0.5976533183920002 2.6249999343750003,0.4947866542970002 3.951813234538,-0.3059866590170002 c1.2890666344400001,-0.7734399806640001 1.9752666172850002,-1.902346619108 2.057293281901,-3.3893332486 c0.08199999795000003,-1.4843732962240004 -0.4374933223960002,-3.161453254297 -1.555986627767,-5.026039874349 l-17.023439574414002,-28.320305958659002 l17.243492902246,-10.363279740918 l16.591146251888002,27.605465976530002 c3.8867199028320005,6.4648398383790004 5.0221332077800005,12.270826359896 3.415359914616,17.423172897754 c-1.608066626465,5.157559871061 -6.0572931819010005,9.921879751953 -13.345052999706999,14.303386309082 c-4.204426561556,2.5247466035480004 -7.9466131346680005,4.167973229134001 -11.223959719401002,4.928386543457001 c-3.2773332514000004,0.7578133143880001 -6.397133173405001,0.7148399821290001 -9.35546643278,-0.1289333301100001 c-2.350253274577,-0.6744799831380002 -4.401039889974,-1.763026622591 -6.1484398462889995,-3.263026585091 c-1.7499999562500004,-1.4999999625 -3.709626573926,-4.0624932317710005 -5.890613186068,-7.6874931411460015 l-16.591146251888002,-27.609372643099 z" stroke-width="0"/><path id="path60" style="fill:#ffffff;fill-opacity:1;fill-rule:nonzero;stroke:none" d="m561.7643446796226,613.7050500626627 l-36.221345761133,-39.31119901722 l14.468746304947999,-13.32813300013 c4.194013228483,-3.8632799034180003 7.591146476888,-6.765626497526001 10.195306411784001,-8.703119782422 c2.602866601595,-1.93879995153 4.848959878776001,-3.253906585319 6.744799831380002,-3.9466132346680007 c2.4114532730470004,-0.8736933114910004 4.786453213672001,-0.9908933085610002 7.1184931553710005,-0.34895999127600014 c2.3320266083660006,0.6406266506510003 4.458333221875,1.99999995 6.373693173991,4.080733231315 c2.028639949284,2.201813278288 3.085933256185,4.563799885905 3.170573254069,7.076813156413001 c0.08466666455000005,2.5156266037760004 -0.8085999797850001,5.251306535384001 -2.692706599349,8.196626461751 c3.372386582357,-2.084639947884 6.434893172461001,-3.009119924772 9.187493103646,-2.768239930794 c2.7539065978190003,0.23958666067700005 5.322919866927,1.6549466252930005 7.713546473828001,4.248706560449 c3.4374932473960005,3.7317599067060003 4.684893216211002,7.776039805599 3.7408799064780007,12.126293030176 c-0.944013309733,4.348959891276 -4.078119898047,8.97786644222 -9.39973309834,13.880212986327999 l-20.399746156673,18.796879530078 m-7.3424398164390015,-36.778652413867 l1.972653284017,-1.8163999545900005 c1.506506629004,-1.3893332986000002 2.3815066071290003,-2.7669332641600004 2.6171866012370004,-4.126306563509001 c0.23697332740900004,-1.3632799659180002 -0.17317332900399998,-2.621093267806 -1.234373302474,-3.7695332390950003 c-1.10546663903,-1.201826636621 -2.35026660791,-1.7447866230470002 -3.738279906543,-1.6289066259440004 c-1.3854132986980001,0.11719999707000005 -2.851559928711,0.8854133111980003 -4.395839890104001,2.307293275651 l-1.915359952116,1.7656266225260002 l6.694013165983,7.2682264849610005 m6.93879982653,7.5260398118489995 l7.098959822526001,7.7070398073240005 l2.449213272103,-2.256519943587 c1.6223999594400005,-1.4960932959309998 2.528653270117,-2.9413999264650004 2.709639932259001,-4.334626558301 c0.18489332871100003,-1.39453329847 -0.3294266584310001,-2.7513065978840006 -1.550786627897,-4.075519898112 c-1.1562533044270005,-1.255213301953 -2.415359939616,-1.8216132877930002 -3.778639905534,-1.7083332906250002 c-1.360679965983,0.11199999720000003 -2.8554665952800002,0.9166666437500002 -4.480466554655,2.415359939616 z" stroke-width="0"/><path id="path62" style="fill:#ffffff;fill-opacity:1;fill-rule:nonzero;stroke:none" d="m632.9284095671875,495.7740530109377 c5.817706521223999,3.614586576302 9.10026643916,8.042973132259 9.851559753711001,13.28906633444 c0.7499999812500001,5.246093202181 -1.031253307552,11.421879714453 -5.342439866439,18.526039536849 c-4.388026556966,7.233079819173001 -9.8333330875,11.580733043815 -16.339852924837,13.044266340560002 c-6.50519983737,1.464853296712 -13.489572996094001,-0.06773333164000003 -20.958332809375,-4.598946551693 c-7.5729064773440005,-4.593759885156 -12.201813028288,-10.143239746419 -13.884106319564001,-16.648439583789003 c-1.6861999578450004,-6.5039065040690005 -0.27865332636700013,-13.464839663379001 4.221346561133,-20.881506144629 c4.096359897591,-6.753906497819 8.66146645013,-10.907559727311 13.691412991048002,-12.463546355078 c5.028639874284,-1.555986627767 10.574213068978,-0.52213332028 16.635412917448,3.0989599225260003 l-9.708333090625,15.9999996 l-0.5533866528320001,-0.3372399915690001 c-1.975253283952,-1.1979199700520002 -3.596346576758,-1.721359956966 -4.864586545052,-1.576826627246 c-1.268226634961,0.14322666308600004 -2.365879940853,0.9765599755860002 -3.289053251107,2.4960932709310004 c-1.10026663916,1.8098932880860001 -1.044279973893,3.5885465769530005 0.16145332929700007,5.332026533366 c1.2044266365560001,1.7447999563800003 4.0520798986980004,3.976573233919 8.539066453190001,6.696626499251002 c4.5481732196290015,2.7617065976240003 7.876293136426,4.2838532262369995 9.981773083789,4.561186552637 c2.109373280599,0.28125332630200006 3.707026573991,-0.47265332151700007 4.7890532136070005,-2.263013276758 c0.8619866451170002,-1.4192666311850002 1.0533866403320002,-2.729173265104 0.5807333188150001,-3.9309865683920004 c-0.4778666547200001,-1.203133303255 -1.6679732916340002,-2.4557332719400002 -3.576826577246,-3.7526132395180003 z" stroke-width="0"/><path id="path64" style="fill:#ffffff;fill-opacity:1;fill-rule:nonzero;stroke:none" d="m655.4622623371746,492.6438530891927 l-50.058585415202,-18.743492864746 l14.035146315788001,-37.48306572959 l12.819013012858,4.799466546680001 l-6.937493159896,18.53386620332 l5.572906527344001,2.085933281185 l6.446613172168,-17.21093290306 l12.819013012858,4.799466546680001 l-6.442706505598999,17.209639569759002 l5.798173188379001,2.171879945703 l7.179693153841,-19.175786187272003 l13.042973007259,4.8815065446290005 z" stroke-width="0"/><path id="path66" style="fill:#ffffff;fill-opacity:1;fill-rule:nonzero;stroke:none" d="m667.1888220440104,397.5995754652997 l13.920572985319,2.631519934212 l-7.453119813672001,39.419265681185 l-52.52213202028,-9.928386418457 l3.8489599037760005,-20.354159491146 l38.598945701693005,7.300773150814 z" stroke-width="0"/><path id="path68" style="fill:#ffffff;fill-opacity:1;fill-rule:nonzero;stroke:none" d="m664.0247687897785,393.6842155631838 l0.38670665699900014,-17.662759558431002 c1.7708399557290002,0.04039999899000002 3.0937599226560004,-0.19661332841800008 3.963546567578,-0.703119982422 c0.8736933114910004,-0.5117199872070001 1.3203199669920003,-1.319013300358 1.3450532997070004,-2.424479939388 c0.03253333252000002,-1.4381599640459999 -0.6601599834960002,-2.44466660555 -2.078119948047,-3.015626591276 c-1.414066631315,-0.5696666524250001 -4.619799884505,-0.9114666438800002 -9.609373093099,-1.021479974463 l-28.93359927666,-0.6360799840980002 l0.4518266553710003,-20.589839485254 l31.002599224935004,0.6803466496580002 c3.3320265833660003,0.07293333151000002 5.8294265209309994,0.2200399944990001 7.489586479427,0.43618665576200016 c1.6601466251630002,0.2193999945150001 3.2096265864260003,0.5592533193520001 4.6510398837240015,1.026693307666 c3.5247332452150006,1.069013306608 6.231773177539001,3.4557332469400004 8.119786463672,7.159506487679 c1.8867199528320002,3.7050799073730003 2.7656265975260004,8.37239979069 2.643226600586,14.002612983268001 c-0.16275999593100007,7.4915331460450005 -1.7799466221680005,13.205066336540002 -4.846346545508,17.137359571566 c-3.067706589974,3.9335999016600005 -7.386719815332,5.839853187337 -12.959639676009001,5.717453190397001 c-0.4335866558270002,-0.009333333100000004 -0.7708266473960003,-0.020799999480000005 -1.0117199747070003,-0.039066665690000016 c-0.24087999397800003,-0.018266666210000004 -0.44530665553400034,-0.04039999899000002 -0.614573317969,-0.06773333164000003 z" stroke-width="0"/><path id="path70" style="fill:#ffffff;fill-opacity:1;fill-rule:nonzero;stroke:none" d="m681.8112216784505,331.6262704479657 l-52.804692013216005,8.292973126009 l-6.209626511426001,-39.541012344808 l13.526039661849,-2.1236932802410005 l3.0690132566079997,19.547519511312 l5.881506519629,-0.9225199769370004 l-2.852866595345,-18.15559954611 l13.526039661849,-2.124359946891 l2.848959928776,18.15559954611 l6.117186513737,-0.9596266426760004 l-3.178386587207,-20.228519494287003 l13.761719655957,-2.1614532792970005 z" stroke-width="0"/></g></g></svg>