<?xml version="1.0" encoding="utf-8"?>
<!-- Generator: Adobe Illustrator 12.0.0, SVG Export Plug-In  -->
<!DOCTYPE svg PUBLIC "-//W3C//DTD SVG 1.1//EN" "http://www.w3.org/Graphics/SVG/1.1/DTD/svg11.dtd" [
	<!ENTITY ns_flows "http://ns.adobe.com/Flows/1.0/">
	<!ENTITY ns_svg "http://www.w3.org/2000/svg">
	<!ENTITY ns_xlink "http://www.w3.org/1999/xlink">
]>
<svg  version="1.1" xmlns="&ns_svg;" xmlns:xlink="&ns_xlink;" xmlns:a="http://ns.adobe.com/AdobeSVGViewerExtensions/3.0/"
	 width="193" height="193" viewBox="0 0 193 193" enable-background="new 0 0 193 193" xml:space="preserve">
<defs>
</defs>
<polygon opacity="0" fill-rule="evenodd" clip-rule="evenodd" fill="#FFFFFF" points="0,0 192.7558594,0 192.7558594,192.7558594 
	0,192.7558594 0,0 "/>
<path fill-rule="evenodd" clip-rule="evenodd" fill="#FF0000" d="M96.8193359,184.1347656l-0.4414063,0.1171875
	l-0.4121094-0.1171875c-20.2539063-5.7119141-36.0625-15.4853516-47.0722656-27.2021484
	c-12.0405273-12.8349609-18.3110352-27.9960938-18.3110352-42.7744141V8.5039063h131.590332v105.6542969
	c0,14.7783203-6.2998047,29.9394531-18.3105469,42.7744141C132.8525391,168.6494141,117.0439453,178.4228516,96.8193359,184.1347656
	L96.8193359,184.1347656z"/>
<path fill-rule="evenodd" clip-rule="evenodd" fill="#FFFFFF" d="M96.3779297,182.5742188
	c41.5673828-11.7460938,64.1464844-40.8310547,64.1464844-68.4160156V10.1230469H32.2016602v104.0351563
	C32.2016602,141.7431641,54.78125,170.828125,96.3779297,182.5742188L96.3779297,182.5742188z"/>
<polygon fill-rule="evenodd" clip-rule="evenodd" fill="#FFE600" points="158.9052734,38.2661133 158.9052734,11.7416992 
	33.8505859,11.7416992 33.8505859,38.2661133 158.9052734,38.2661133 "/>
<path fill-rule="evenodd" clip-rule="evenodd" fill="#FFE600" d="M96.3779297,180.8955078
	c19.4003906-5.5634766,34.5898438-14.9541016,45.1289063-26.2001953c11.421875-12.1875,17.3984375-26.5830078,17.3984375-40.5371094
	V39.8852539H33.8505859v74.2729492c0,13.9541016,5.9462891,28.3496094,17.3979492,40.5371094
	C61.7875977,165.9414063,76.9780273,175.3320313,96.3779297,180.8955078L96.3779297,180.8955078z"/>
<polygon fill-rule="evenodd" clip-rule="evenodd" fill="#FF0000" points="96.3779297,39.9145508 114.7480469,77.7724609 
	156.8154297,83.3955078 126.1113281,112.3925781 133.7353516,153.7246094 96.3779297,133.7939453 59.0205078,153.7246094 
	66.6450195,112.3925781 35.9404297,83.3955078 78.0083008,77.7724609 96.3779297,39.9145508 "/>
<path fill-rule="evenodd" clip-rule="evenodd" fill="#CC5C04" d="M96.3779297,72.4150391
	c8.4482422,0,16.0732422,3.4443359,21.6074219,8.9785156c5.5351563,5.534668,8.9785156,13.1884766,8.9785156,21.578125
	c0,8.4492188-3.4433594,16.1035156-8.9785156,21.6376953c-5.5341797,5.5341797-13.1591797,8.9785156-21.6074219,8.9785156
	c-8.4194336,0-16.0737305-3.4443359-21.6079102-8.9785156s-8.9790039-13.1884766-8.9790039-21.6376953
	c0-8.3896484,3.4448242-16.043457,8.9790039-21.578125C80.3041992,75.859375,87.9584961,72.4150391,96.3779297,72.4150391
	L96.3779297,72.4150391z"/>
<path fill-rule="evenodd" clip-rule="evenodd" fill="#EBB803" d="M113.0693359,79.3623047
	c-3.5029297-2.5019531-7.5654297-4.2094727-12.0107422-4.9453125c-5.9169922,1.972168-10.5683594,5.7695313-13.9243164,10.4506836
	c-4.2685547,6.034668-6.3881836,13.4829102-6.1821289,20.3422852c5.0341797,0.9707031,10.0678711,0.1464844,14.6015625-2.6503906
	c-0.2060547-6.2109375,2.0898438-11.6865234,6.2705078-16.0136719
	C104.7382813,83.5136719,108.5654297,81.0698242,113.0693359,79.3623047L113.0693359,79.3623047z"/>
<path fill-rule="evenodd" clip-rule="evenodd" fill="#EBB803" d="M120.8408203,118.4267578
	c2.8564453-4.4736328,4.5048828-9.7734375,4.5048828-15.4550781c0-7.9477539-3.2675781-15.1899414-8.5078125-20.4296875
	c-0.7070313-0.706543-1.4423828-1.3837891-2.2373047-2.0019531c-4.5634766,1.5605469-8.3613281,3.8857422-11.2753906,6.7705078
	c6.1523438,3.4448242,11.6875,9.1850586,14.8369141,16.0439453
	C120.2822266,107.9765625,121.3417969,113.0986328,120.8408203,118.4267578L120.8408203,118.4267578z"/>
<path fill-rule="evenodd" clip-rule="evenodd" fill="#EBB803" d="M108.5068359,129.2900391
	c3.0908203-1.4423828,5.9169922-3.4150391,8.3310547-5.8291016c0.6767578-0.7060547,1.3535156-1.4121094,1.9423828-2.1777344
	c1.2666016-6.0947266,0.2949219-12.0117188-2.0898438-17.2519531c-3.0615234-6.6816406-8.4492188-12.2456055-14.5126953-15.4838867
	c-3.3564453,3.855957-5.1816406,8.6254883-5.0048828,13.9243164c5.5048828,2.9443359,9.1259766,7.6835938,10.7744141,13.453125
	C109.0957031,119.9580078,109.2714844,124.4912109,108.5068359,129.2900391L108.5068359,129.2900391z"/>
<path fill-rule="evenodd" clip-rule="evenodd" fill="#EBB803" d="M70.7368164,116.4550781
	c1.3837891,2.5908203,3.1206055,4.9453125,5.1811523,7.0058594c5.2402344,5.2402344,12.4819336,8.5078125,20.4599609,8.5078125
	c3.6503906,0,7.1240234-0.6767578,10.3623047-1.9130859c0.9130859-4.7392578,0.8242188-9.2441406-0.2060547-13.2177734
	c-6.09375,3.6503906-13.8066406,5.5634766-21.3725586,4.8271484
	C80.0981445,121.1943359,75.1230469,119.5458984,70.7368164,116.4550781L70.7368164,116.4550781z"/>
<path fill-rule="evenodd" clip-rule="evenodd" fill="#EBB803" d="M67.5283203,100.3222656
	c-0.059082,0.8837891-0.1181641,1.7666016-0.1181641,2.6494141c0,3.6210938,0.6772461,7.0654297,1.8842773,10.2744141
	c4.6513672,4.1513672,10.3037109,6.2705078,16.0146484,6.8300781c7.3598633,0.6767578,14.8959961-1.2363281,20.7250977-4.828125
	c-1.6787109-4.8574219-4.8876953-8.8320313-9.5976563-11.3339844c-5.2988281,3.296875-11.1865234,4.0625-17.0444336,2.5908203
	C75.3291016,105.5039063,71.2963867,103.4140625,67.5283203,100.3222656L67.5283203,100.3222656z"/>
<path fill-rule="evenodd" clip-rule="evenodd" fill="#EBB803" d="M96.3779297,74.0341797
	c-7.9780273,0-15.2197266,3.2675781-20.4599609,8.5078125c-4.2094727,4.2387695-7.1533203,9.7441406-8.125,15.8964844
	c3.6210938,3.1201172,7.565918,5.2988281,11.5400391,6.3886719c-0.1176758-7.0654297,2.090332-14.6904297,6.5058594-20.9018555
	c2.9438477-4.1210938,6.859375-7.6245117,11.7167969-9.8618164C97.1728516,74.0341797,96.7900391,74.0341797,96.3779297,74.0341797
	L96.3779297,74.0341797z"/>
<path fill-rule="evenodd" clip-rule="evenodd" fill="#FF0000" d="M118.3388672,146.7763672
	c0.3242188,0,0.5888672,0.0888672,0.7949219,0.3242188c0.2060547,0.2060547,0.3242188,0.4707031,0.3242188,0.765625
	c0,0.3232422-0.1181641,0.5585938-0.3242188,0.7949219c-0.2060547,0.2060547-0.4707031,0.3232422-0.7949219,0.3232422
	c-0.2939453,0-0.5595703-0.1171875-0.7646484-0.3232422c-0.2070313-0.2363281-0.3242188-0.4716797-0.3242188-0.7949219
	c0-0.2949219,0.1171875-0.5595703,0.3242188-0.765625C117.7792969,146.8652344,118.0449219,146.7763672,118.3388672,146.7763672
	L118.3388672,146.7763672z"/>
<path fill-rule="evenodd" clip-rule="evenodd" fill="#FF0000" d="M114.953125,146.7763672
	c0.2949219,0,0.5595703,0.0888672,0.765625,0.3242188c0.2353516,0.2060547,0.3242188,0.4707031,0.3242188,0.765625
	c0,0.3232422-0.0888672,0.5585938-0.3242188,0.7949219c-0.2060547,0.2060547-0.4707031,0.3232422-0.765625,0.3232422
	c-0.3232422,0-0.5585938-0.1171875-0.7939453-0.3232422c-0.2070313-0.2363281-0.2949219-0.4716797-0.2949219-0.7949219
	c0-0.2949219,0.0878906-0.5595703,0.2949219-0.765625C114.3945313,146.8652344,114.6298828,146.7763672,114.953125,146.7763672
	L114.953125,146.7763672z"/>
<polygon fill-rule="evenodd" clip-rule="evenodd" fill="#FF0000" points="113.5703125,149.8378906 119.7519531,149.8378906 
	119.7519531,151.9277344 115.71875,151.9277344 115.71875,153.9892578 119.7519531,153.9892578 119.7519531,156.0498047 
	115.71875,156.0498047 115.71875,159.0234375 119.7519531,159.0234375 119.7519531,161.1425781 113.5703125,161.1425781 
	113.5703125,149.8378906 "/>
<polygon fill-rule="evenodd" clip-rule="evenodd" fill="#FF0000" points="102.1474609,149.8378906 104.2089844,149.8378906 
	109.0654297,157.2568359 109.0654297,149.8378906 111.1855469,149.8378906 111.1855469,161.1425781 109.125,161.1425781 
	104.296875,153.7246094 104.296875,161.1425781 102.1474609,161.1425781 102.1474609,149.8378906 "/>
<polygon fill-rule="evenodd" clip-rule="evenodd" fill="#FF0000" points="94.140625,149.8378906 96.3188477,149.8378906 
	100.6757813,161.1425781 98.4384766,161.1425781 97.5556641,158.8164063 92.9335938,158.8164063 92.0209961,161.1425781 
	89.7836914,161.1425781 94.140625,149.8378906 "/>
<polygon fill-rule="evenodd" clip-rule="evenodd" fill="#FFE600" points="95.2592773,152.8408203 93.7285156,156.6972656 
	96.730957,156.6972656 95.2592773,152.8408203 "/>
<path fill-rule="evenodd" clip-rule="evenodd" fill="#FF0000" d="M81.9233398,149.8378906h2.2670898
	c1.2363281,0,2.1489258,0.1181641,2.6787109,0.3242188c0.5004883,0.2353516,0.9423828,0.6181641,1.2661133,1.1181641
	c0.3237305,0.5302734,0.4711914,1.1191406,0.4711914,1.8251953c0,0.765625-0.1772461,1.3837891-0.5302734,1.8847656
	c-0.3535156,0.5-0.8828125,0.8535156-1.5898438,1.1181641l2.6494141,5.0341797h-2.3251953l-2.5615234-4.7988281h-0.2060547
	v4.7988281h-2.1196289V149.8378906L81.9233398,149.8378906z"/>
<path fill-rule="evenodd" clip-rule="evenodd" fill="#FFE600" d="M84.0429688,154.2539063h0.6772461
	c0.706543,0,1.1777344-0.0878906,1.4423828-0.2646484c0.2358398-0.1767578,0.3828125-0.4707031,0.3828125-0.8837891
	c0-0.2646484-0.059082-0.4707031-0.2060547-0.6474609c-0.1176758-0.1767578-0.2944336-0.3232422-0.5004883-0.3828125
	c-0.2353516-0.0878906-0.6181641-0.1474609-1.1772461-0.1474609h-0.6186523V154.2539063L84.0429688,154.2539063z"/>
<polygon fill-rule="evenodd" clip-rule="evenodd" fill="#FF0000" points="77.3901367,149.8378906 79.5097656,149.8378906 
	79.5097656,161.1425781 77.3901367,161.1425781 77.3901367,149.8378906 "/>
<polygon fill-rule="evenodd" clip-rule="evenodd" fill="#FF0000" points="70.0009766,149.8378906 76.2416992,149.8378906 
	76.2416992,151.9580078 74.1811523,151.9580078 74.1811523,161.1425781 72.0029297,161.1425781 72.0029297,151.9580078 
	70.0009766,151.9580078 70.0009766,149.8378906 "/>
<polygon fill-rule="evenodd" clip-rule="evenodd" fill="#FF0000" points="99.0566406,165.5292969 100.4697266,165.5292969 
	100.4697266,170.3867188 101.1464844,170.3867188 101.1464844,171.7109375 100.4697266,171.7109375 100.4697266,173.2714844 
	99.0859375,173.2714844 99.0859375,171.7109375 95.7597656,171.7109375 95.7597656,170.3867188 99.0566406,165.5292969 "/>
<polygon fill-rule="evenodd" clip-rule="evenodd" fill="#FFE600" points="99.0859375,170.3867188 99.0859375,167.8544922 
	97.3496094,170.3867188 99.0859375,170.3867188 "/>
<path fill-rule="evenodd" clip-rule="evenodd" fill="#FF0000" d="M92.8452148,173.2714844h-1.5600586l1.5014648-3.0029297
	c-0.6186523,0-1.1479492-0.2060547-1.5898438-0.6767578c-0.4418945-0.4414063-0.6772461-1.03125-0.6772461-1.7080078
	c0-0.6474609,0.2353516-1.2070313,0.706543-1.6777344c0.4414063-0.4414063,1.0009766-0.6767578,1.6484375-0.6767578
	c0.706543,0,1.2661133,0.2353516,1.7075195,0.7060547c0.4711914,0.4716797,0.6772461,1.0302734,0.6772461,1.6484375
	c0,0.2363281-0.0297852,0.4716797-0.0883789,0.7070313c-0.0883789,0.2353516-0.2353516,0.5888672-0.5004883,1.0595703
	L92.8452148,173.2714844L92.8452148,173.2714844z"/>
<path fill-rule="evenodd" clip-rule="evenodd" fill="#FFE600" d="M92.9335938,168.9140625
	c0.2651367,0,0.4711914-0.0878906,0.6474609-0.2939453c0.2060547-0.1767578,0.2944336-0.4121094,0.2944336-0.7060547
	c0-0.2949219-0.1176758-0.5605469-0.2944336-0.7363281c-0.2060547-0.2060547-0.4121094-0.2949219-0.6767578-0.2949219
	c-0.2651367,0-0.5004883,0.0888672-0.6772461,0.2949219c-0.2060547,0.1757813-0.2944336,0.4414063-0.2944336,0.7363281
	c0,0.2939453,0.0883789,0.5292969,0.2944336,0.7060547C92.4038086,168.8261719,92.6391602,168.9140625,92.9335938,168.9140625
	L92.9335938,168.9140625z"/>
<polygon fill-rule="evenodd" clip-rule="evenodd" fill="#FF0000" points="86.8984375,165.5292969 89.0478516,165.5292969 
	89.0478516,173.2714844 87.6347656,173.2714844 87.6347656,166.8828125 86.074707,166.8828125 86.8984375,165.5292969 "/>
<path fill-rule="evenodd" clip-rule="evenodd" fill="#FF0000" d="M104.4150391,165.5292969h1.5302734l-1.5009766,3.0029297
	c0.6474609,0,1.1474609,0.2060547,1.5898438,0.6767578c0.4707031,0.4414063,0.6767578,1.0302734,0.6767578,1.7070313
	c0,0.6484375-0.2353516,1.2070313-0.6767578,1.6787109c-0.4716797,0.4414063-1.0302734,0.6767578-1.6787109,0.6767578
	c-0.6767578,0-1.2363281-0.2353516-1.7070313-0.7070313c-0.4414063-0.4707031-0.6767578-1.0302734-0.6767578-1.6484375
	c0-0.2353516,0.0292969-0.4707031,0.1171875-0.7060547c0.0585938-0.2363281,0.2353516-0.5888672,0.4707031-1.0595703
	L104.4150391,165.5292969L104.4150391,165.5292969z"/>
<path fill-rule="evenodd" clip-rule="evenodd" fill="#FFE600" d="M104.3261719,169.8857422
	c-0.2646484,0-0.5,0.0878906-0.6767578,0.2939453c-0.1767578,0.1777344-0.2646484,0.4130859-0.2646484,0.7070313
	c0,0.2949219,0.0878906,0.5595703,0.2939453,0.7363281c0.1767578,0.2060547,0.4121094,0.2939453,0.6474609,0.2939453
	c0.265625,0,0.5-0.0878906,0.7060547-0.2939453c0.1777344-0.1767578,0.265625-0.4414063,0.265625-0.7363281
	c0-0.2939453-0.0878906-0.5292969-0.265625-0.7070313C104.8261719,169.9736328,104.6210938,169.8857422,104.3261719,169.8857422
	L104.3261719,169.8857422z"/>
<polygon fill-rule="evenodd" clip-rule="evenodd" fill="#FF0000" points="153.2236328,15.2451172 156.4619141,15.2451172 
	156.4619141,34.7924805 153.2236328,34.7924805 153.2236328,15.2451172 "/>
<polygon fill-rule="evenodd" clip-rule="evenodd" fill="#FF0000" points="138.7695313,15.2451172 141.8896484,15.2451172 
	149.2490234,28.1098633 149.2490234,15.2451172 152.4873047,15.2451172 152.4873047,34.7924805 149.3671875,34.7924805 
	142.0371094,21.9570313 142.0371094,34.7924805 138.7695313,34.7924805 138.7695313,15.2451172 "/>
<polygon fill-rule="evenodd" clip-rule="evenodd" fill="#FF0000" points="128.5546875,15.2451172 131.8808594,15.2451172 
	138.4453125,34.7924805 135.0605469,34.7924805 133.7353516,30.7592773 126.7587891,30.7592773 125.3457031,34.7924805 
	121.9599609,34.7924805 128.5546875,15.2451172 "/>
<polygon fill-rule="evenodd" clip-rule="evenodd" fill="#FF0000" points="111.5097656,15.2451172 122.1074219,15.2451172 
	115.984375,31.2304688 121.6953125,31.2304688 121.6953125,34.7924805 111.2441406,34.7924805 117.3378906,18.9248047 
	111.5097656,18.9248047 111.5097656,15.2451172 "/>
<polygon fill-rule="evenodd" clip-rule="evenodd" fill="#FF0000" points="107.6533203,15.2451172 110.8613281,15.2451172 
	110.8613281,34.7924805 107.6533203,34.7924805 107.6533203,15.2451172 "/>
<polygon fill-rule="evenodd" clip-rule="evenodd" fill="#FF0000" points="97.7910156,15.2158203 107.2705078,15.2158203 
	107.2705078,18.8955078 104.1494141,18.8955078 104.1494141,34.7626953 100.8525391,34.7626953 100.8525391,18.8955078 
	97.7910156,18.8955078 97.7910156,15.2158203 "/>
<path fill-rule="evenodd" clip-rule="evenodd" fill="#FF0000" d="M87.2519531,15.2451172h3.4736328
	c1.8842773,0,3.2382813,0.2060547,4.0332031,0.5888672s1.4423828,1.0302734,1.9428711,1.9135742
	s0.7363281,1.9428711,0.7363281,3.1791992c0,1.2661133-0.2651367,2.3554688-0.824707,3.2089844
	c-0.5297852,0.8828125-1.3540039,1.5307617-2.4135742,1.972168l4.0327148,8.6845703h-3.5620117l-3.8564453-8.2719727h-0.2944336
	v8.2719727h-3.2675781V15.2451172L87.2519531,15.2451172z"/>
<polygon fill-rule="evenodd" clip-rule="evenodd" fill="#FF0000" points="76.9780273,15.2451172 80.2753906,15.2451172 
	86.8691406,34.7924805 83.4838867,34.7924805 82.1293945,30.7592773 75.152832,30.7592773 73.769043,34.7924805 
	70.3837891,34.7924805 76.9780273,15.2451172 "/>
<path fill-rule="evenodd" clip-rule="evenodd" fill="#FF0000" d="M63.7011719,15.2451172h3.4443359
	c1.8837891,0,3.2382813,0.2060547,4.0625,0.5888672c0.8242188,0.4121094,1.4716797,1.0302734,1.9428711,1.9135742
	s0.7363281,1.9428711,0.7363281,3.1791992c0,1.3544922-0.3242188,2.5024414-0.9423828,3.3857422
	c-0.6181641,0.9125977-1.472168,1.5302734-2.5610352,1.8837891c-0.6181641,0.2060547-1.7666016,0.3242188-3.4150391,0.3242188
	v8.2719727h-3.2675781V15.2451172L63.7011719,15.2451172z"/>
<polygon fill-rule="evenodd" clip-rule="evenodd" fill="#FF0000" points="45.5961914,15.2451172 48.8935547,15.2451172 
	48.8935547,21.9570313 53.5449219,15.2451172 57.4599609,15.2451172 51.484375,23.9589844 58.0488281,34.7924805 
	54.1630859,34.7924805 48.8935547,26.1079102 48.8935547,34.7924805 45.5961914,34.7924805 45.5961914,15.2451172 "/>
<polygon fill-rule="evenodd" clip-rule="evenodd" fill="#FF0000" points="36.2939453,15.2451172 44.7719727,15.2451172 
	44.7719727,18.8662109 39.5024414,18.8662109 39.5024414,22.3989258 44.7719727,22.3989258 44.7719727,25.9907227 
	39.5024414,25.9907227 39.5024414,34.7924805 36.2939453,34.7924805 36.2939453,15.2451172 "/>
<polygon fill-rule="evenodd" clip-rule="evenodd" fill="#FFE600" points="130.2324219,20.4262695 127.9658203,27.1381836 
	132.4990234,27.1381836 130.2324219,20.4262695 "/>
<path fill-rule="evenodd" clip-rule="evenodd" fill="#FFE600" d="M90.5195313,22.8994141h1.0302734
	c1.0307617,0,1.7368164-0.1767578,2.1494141-0.4711914c0.3828125-0.3242188,0.5888672-0.8242188,0.5888672-1.5307617
	c0-0.4414063-0.1181641-0.8242188-0.2944336-1.1186523c-0.206543-0.3242188-0.4711914-0.5297852-0.7949219-0.6772461
	c-0.3242188-0.1469727-0.9125977-0.2060547-1.7958984-0.2060547h-0.8833008V22.8994141L90.5195313,22.8994141z"/>
<polygon fill-rule="evenodd" clip-rule="evenodd" fill="#FFE600" points="78.65625,20.4262695 76.3598633,27.1381836 
	80.9228516,27.1381836 78.65625,20.4262695 "/>
<path fill-rule="evenodd" clip-rule="evenodd" fill="#FFE600" d="M66.96875,22.8994141h1.0302734
	c0.8242188,0,1.3837891-0.0883789,1.7075195-0.2060547c0.2944336-0.1474609,0.5595703-0.3535156,0.7358398-0.6772461
	c0.1767578-0.2944336,0.2944336-0.6479492,0.2944336-1.0893555c0-0.765625-0.2651367-1.2954102-0.7949219-1.6484375
	c-0.3530273-0.2651367-1.0595703-0.3828125-2.0605469-0.3828125H66.96875V22.8994141L66.96875,22.8994141z"/>
</svg>
