<?xml version="1.0" encoding="UTF-8" standalone="no"?>
<svg
   xmlns:dc="http://purl.org/dc/elements/1.1/"
   xmlns:cc="http://creativecommons.org/ns#"
   xmlns:rdf="http://www.w3.org/1999/02/22-rdf-syntax-ns#"
   xmlns:svg="http://www.w3.org/2000/svg"
   xmlns="http://www.w3.org/2000/svg"
   xmlns:sodipodi="http://sodipodi.sourceforge.net/DTD/sodipodi-0.dtd"
   xmlns:inkscape="http://www.inkscape.org/namespaces/inkscape"
   viewBox="0 0 227.4493 252"
   height="252"
   width="227.4493"
   xml:space="preserve"
   id="svg2"
   version="1.1"
   sodipodi:docname="lokomotiv-plovdiv.svg"
   inkscape:version="0.92.4 (5da689c313, 2019-01-14)"><sodipodi:namedview
     pagecolor="#ffffff"
     bordercolor="#666666"
     borderopacity="1"
     objecttolerance="10"
     gridtolerance="10"
     guidetolerance="10"
     inkscape:pageopacity="0"
     inkscape:pageshadow="2"
     inkscape:window-width="1366"
     inkscape:window-height="705"
     id="namedview20"
     showgrid="false"
     fit-margin-top="1"
     fit-margin-right="1"
     fit-margin-bottom="1"
     fit-margin-left="1"
     inkscape:zoom="1.7322892"
     inkscape:cx="238.04728"
     inkscape:cy="124.5826"
     inkscape:window-x="-8"
     inkscape:window-y="-8"
     inkscape:window-maximized="1"
     inkscape:current-layer="svg2" /><metadata
     id="metadata8"><rdf:RDF><cc:Work
         rdf:about=""><dc:format>image/svg+xml</dc:format><dc:type
           rdf:resource="http://purl.org/dc/dcmitype/StillImage" /><dc:title></dc:title></cc:Work></rdf:RDF></metadata><defs
     id="defs6" /><g
     id="g69"
     transform="matrix(0.64999438,0,0,0.64999438,0.60929662,0.79461074)"><g
       id="g10"
       transform="matrix(1.3333333,0,0,-1.3333333,0,385.33333)"><g
         id="g12"
         transform="scale(0.1)"><path
           d="m 313.023,2385.23 -255.1011,-543.07 255.1011,-255.1 1984.247,0.26 255.12,254.63 -253.67,543.58 -1985.697,-0.3"
           style="fill:#ffffff;fill-opacity:1;fill-rule:evenodd;stroke:none"
           id="path14"
           inkscape:connector-curvature="0" /><path
           d="m 313.023,2385.23 -255.1011,-543.07 255.1011,-255.1 1984.247,0.26 255.12,254.63 -253.67,543.58 z"
           style="fill:none;stroke:#cfa550;stroke-width:50.00030136;stroke-linecap:butt;stroke-linejoin:round;stroke-miterlimit:2.61313009;stroke-dasharray:none;stroke-opacity:1"
           id="path16"
           inkscape:connector-curvature="0" /><path
           d="M 227.887,2579.16 29.5078,2153.97 312.957,1870.5 H 2297.2 l 283.59,283.47 -198.54,425.19 H 227.887"
           style="fill:#ffffff;fill-opacity:1;fill-rule:evenodd;stroke:none"
           id="path18"
           inkscape:connector-curvature="0" /><path
           d="M 227.887,2579.16 29.5078,2153.97 312.957,1870.5 H 2297.2 l 283.59,283.47 -198.54,425.19 z"
           style="fill:none;stroke:#cfa550;stroke-width:50.00030136;stroke-linecap:butt;stroke-linejoin:round;stroke-miterlimit:2.61313009;stroke-dasharray:none;stroke-opacity:1"
           id="path20"
           inkscape:connector-curvature="0" /><path
           d="m 1305.15,28.0508 0.05,-0.0625 C 1590.57,397.016 2297.67,169.859 2297.28,736.637 V 2862.63 H 1305.15 V 28.0508"
           style="fill:#d62612;fill-opacity:1;stroke:none;stroke-opacity:1"
           id="path22"
           inkscape:connector-curvature="0" /><path
           d="m 313.027,2862.63 c 0,-1322.77 0.192,-1746.47 0.192,-2125.954 0,-566.981 708.391,-340.149 991.931,-708.6252 V 2862.63 H 313.027"
           style="fill:#231f20;fill-opacity:1;fill-rule:evenodd;stroke:none"
           id="path24"
           inkscape:connector-curvature="0" /><path
           d="m 313.027,2862.63 c 0,-1322.77 -0.004,-1746.5 -0.004,-2125.989 0,-566.911 708.607,-340.114 992.177,-708.6527 283.23,368.5387 992.05,141.8707 992.08,708.6487 V 2862.63 Z"
           style="fill:none;stroke:#cfa550;stroke-width:50.00030136;stroke-linecap:butt;stroke-linejoin:round;stroke-miterlimit:2.61313009;stroke-dasharray:none;stroke-opacity:1"
           id="path26"
           inkscape:connector-curvature="0" /><path
           d="M 1305.16,2862.63 1305.15,27.9805"
           style="fill:none;stroke:#cfa550;stroke-width:29.99909973;stroke-linecap:butt;stroke-linejoin:miter;stroke-miterlimit:2.61313009;stroke-dasharray:none;stroke-opacity:1"
           id="path28"
           inkscape:connector-curvature="0" /><path
           d="m 1305.15,668.738 h -42.52 V 459.605 c -9.77,0 -29.37,-2.582 -32.9,9.36 -43.81,128.164 -26.11,138.762 -91.62,140.765 l -313.243,-0.003 39.086,-38.852 h 243.057 l 12.1,-33.016 H 897.172 l 43.793,-43.527 h 194.075 l 12.72,-34.727 H 975.902 l 42.288,-42.035 h 244.44 V 268.418 h 42.52 v 56.695 h 42.52 v 92.461 h 244.44 l 42.29,42.031 h -171.86 l 12.72,34.731 h 194.08 l 43.79,43.523 H 1491.2 l 12.09,33.02 h 243.05 l 39.09,38.851 -313.24,0.004 c -65.51,-2.004 -47.81,-12.605 -91.62,-140.765 -3.53,-11.946 -23.14,-9.364 -32.9,-9.364 v 160.309 h -42.52 v 48.824"
           style="fill:#ccab6a;fill-opacity:1;stroke:none;stroke-opacity:1"
           id="path30"
           inkscape:connector-curvature="0" /><path
           d="m 856.344,1089.51 1.433,-0.04 c 71.243,-0.71 132.782,-41.98 162.663,-101.798 41.24,46.178 21.9,187.648 13.92,247.148 -41.2,294.12 -202.204,474.03 -316.227,630.05 0,0 -0.039,18.41 0.031,30.68 l 1180.046,0.08 c -0.01,-10.25 -0.03,-20.47 -0.05,-30.67 -61.03,-23.36 -105.95,-97.58 -105.95,-184.91 V 937.809 c 0,-87.371 44.97,-161.625 106.04,-184.942 l -0.02,-30.637 -479.79,-0.488 v 31.113 c 61.1,23.293 106.08,97.555 106.09,184.954 l 0.07,822.641 c -147.18,-0.02 -292.47,-0.02 -438.87,0 0,0 54.7,-330.9 62.25,-522.61 8.14,-206.61 1.05,-279.625 -54.86,-374.539 C 1037.2,768.387 940.707,721.703 857.086,721.703 l -1.184,-0.098 v 0.219 h -0.011 c -101.516,0 -183.84,82.324 -183.84,183.836 0,12.805 1.312,25.305 3.808,37.375 l 0.016,0.082 c 0.277,1.36 0.574,2.707 0.887,4.055 3.625,15.848 9.304,30.816 16.726,44.676 30.899,58.082 92.035,97.652 162.403,97.652 h 0.062 l 0.391,0.01"
           style="fill:#ccab6a;fill-opacity:1;stroke:none;stroke-opacity:1"
           id="path32"
           inkscape:connector-curvature="0" /><path
           d="M 29.5742,2153.97 H 2580.87 L 2382.3,2579.16 H 227.773 L 29.5742,2153.97"
           style="fill:#ffffff;fill-opacity:1;fill-rule:evenodd;stroke:none"
           id="path34"
           inkscape:connector-curvature="0" /><path
           d="M 29.5742,2153.97 H 2580.87 L 2382.3,2579.16 H 227.773 Z"
           style="fill:none;stroke:#cfa550;stroke-width:50.00030136;stroke-linecap:butt;stroke-linejoin:round;stroke-miterlimit:2.61313009;stroke-dasharray:none;stroke-opacity:1"
           id="path36"
           inkscape:connector-curvature="0" /><path
           d="m 337.965,2266.62 h 73.91 v 179.4 h 59.816 v -179.4 h 73.907 v 200.1 H 337.965 Z m 305.812,0 54.86,151.5 50.289,-151.5 h 74.293 l -67.43,200.1 h -65.914 l -73.91,-200.1 z m 351.145,-3.3 c 16.198,0.05 30.538,1.8 42.928,5.25 12.44,3.45 23.05,8.3 31.94,14.6 8.89,6.3 16.19,13.75 21.84,22.35 5.65,8.6 9.78,18.05 12.44,28.4 2.74,10.4 4,21.35 4,32.9 0,11.65 -1.33,22.65 -4,33 -2.73,10.4 -6.92,19.85 -12.57,28.45 -5.65,8.6 -12.95,16 -21.84,22.3 -8.89,6.25 -19.56,11.1 -31.94,14.55 -12.38,3.4 -26.67,5.15 -42.798,5.2 -16,-0.05 -30.098,-1.8 -42.414,-5.25 -12.32,-3.45 -22.922,-8.35 -31.813,-14.7 -8.89,-6.3 -16.195,-13.75 -21.906,-22.35 -5.652,-8.6 -9.84,-18.1 -12.574,-28.45 -2.727,-10.3 -4.067,-21.25 -4.067,-32.75 0,-11.55 1.34,-22.5 4.008,-32.9 2.727,-10.35 6.856,-19.8 12.567,-28.4 5.652,-8.6 12.894,-16.05 21.781,-22.35 8.891,-6.3 19.492,-11.15 31.812,-14.6 12.383,-3.45 26.539,-5.2 42.606,-5.25 z m 0,16.2 c -6.348,0.05 -11.492,1.25 -15.426,3.5 -4.004,2.3 -7.051,5.3 -9.273,8.95 -2.223,3.65 -3.875,7.6 -4.953,11.85 -1.016,4.25 -1.84,8.35 -2.348,12.3 -1.27,8.4 -2.035,16.85 -2.352,25.35 -0.254,8.5 -0.382,16.95 -0.316,25.35 0,6.3 0.187,12.6 0.445,18.9 0.25,6.3 0.508,12.6 0.699,18.9 0.125,3.55 0.375,7.5 0.825,11.85 0.507,4.35 1.332,8.7 2.539,13.1 1.207,4.4 2.984,8.45 5.398,12.15 2.414,3.7 5.653,6.65 9.653,8.95 4,2.25 9.078,3.4 15.109,3.45 6.348,-0.05 11.498,-1.25 15.498,-3.5 4,-2.3 7.17,-5.3 9.39,-9 2.29,-3.65 3.94,-7.65 5.08,-11.9 1.08,-4.3 1.91,-8.45 2.42,-12.5 1.26,-8.25 2.09,-16.65 2.34,-25.1 0.26,-8.45 0.39,-16.9 0.32,-25.3 0,-6.3 -0.12,-12.6 -0.44,-18.9 -0.25,-6.3 -0.44,-12.6 -0.7,-18.9 -0.19,-3.6 -0.51,-7.6 -0.95,-11.95 -0.45,-4.35 -1.27,-8.75 -2.48,-13.1 -1.2,-4.4 -2.98,-8.45 -5.4,-12.15 -2.34,-3.65 -5.58,-6.6 -9.65,-8.85 -4.06,-2.25 -9.21,-3.4 -15.428,-3.45 z m 270.768,82.5 c 10.85,0.1 20.12,-0.4 27.94,-1.4 7.74,-0.95 14.09,-2.9 19.04,-5.85 4.89,-2.9 8.58,-7.2 10.86,-12.85 2.35,-5.7 3.49,-13.2 3.49,-22.5 0,-6.95 -0.95,-12.7 -2.79,-17.15 -1.91,-4.5 -4.64,-7.95 -8.13,-10.5 -3.56,-2.5 -7.81,-4.3 -12.83,-5.4 -5.01,-1.1 -10.73,-1.8 -17.01,-2.05 -6.29,-0.25 -13.14,-0.35 -20.57,-0.3 z m 51.81,-95.4 c 8.44,0 16.76,0.6 24.95,1.9 8.26,1.25 15.94,3.25 23.18,5.9 7.24,2.65 13.65,6.1 19.24,10.3 5.59,4.15 9.97,9.15 13.14,14.95 3.17,5.8 4.76,12.5 4.83,20.05 -0.07,7.85 -1.71,14.75 -4.95,20.65 -3.25,5.9 -7.75,11 -13.59,15.2 -5.78,4.2 -12.51,7.7 -20.19,10.5 -7.69,2.75 -16.01,4.9 -24.9,6.45 10.17,1.95 19.11,4.65 26.99,8.1 7.94,3.45 14.1,8.1 18.67,13.9 4.51,5.8 6.86,13.15 6.92,22.1 -0.06,7.6 -1.78,14.2 -5.08,19.85 -3.3,5.6 -7.88,10.35 -13.65,14.25 -5.78,3.9 -12.38,7 -19.75,9.35 -7.43,2.35 -15.3,4.05 -23.56,5.1 -8.25,1.05 -16.51,1.55 -24.82,1.55 h -113.54 v -200.1 z m -51.81,182.1 c 7.11,0.05 13.52,-0.05 19.23,-0.25 5.72,-0.25 10.8,-0.85 15.12,-1.85 4.31,-1.05 8,-2.75 10.92,-5.1 2.92,-2.35 5.14,-5.6 6.6,-9.85 1.46,-4.2 2.22,-9.65 2.22,-16.25 0,-7.1 -0.63,-12.9 -1.9,-17.4 -1.27,-4.55 -3.24,-8.05 -5.97,-10.6 -2.67,-2.5 -6.16,-4.3 -10.41,-5.4 -4.26,-1.1 -9.34,-1.8 -15.24,-2 -5.97,-0.25 -12.83,-0.35 -20.57,-0.3 z m 240.28,-182.1 h 131.44 v -42 h 55.62 v 62.7 h -23.24 l -60.58,179.4 h -65.91 l -66.29,-179.4 h -24.76 v -62.7 h 53.72 z m -1.15,20.7 47.25,130.8 43.43,-130.8 z m 252.85,-20.7 h 80.77 l 54.86,148.8 v -148.8 h 72.01 v 200.1 h -80.77 l -54.86,-151.5 v 151.5 h -72.01 z m 376.3,95.4 c 10.85,0.1 20.12,-0.4 27.94,-1.4 7.75,-0.95 14.09,-2.9 19.05,-5.85 4.89,-2.9 8.57,-7.2 10.85,-12.85 2.35,-5.7 3.49,-13.2 3.49,-22.5 0,-6.95 -0.95,-12.7 -2.79,-17.15 -1.9,-4.5 -4.63,-7.95 -8.13,-10.5 -3.55,-2.5 -7.8,-4.3 -12.82,-5.4 -5.02,-1.1 -10.73,-1.8 -17.02,-2.05 -6.29,-0.25 -13.14,-0.35 -20.57,-0.3 z m 51.81,-95.4 c 8.45,0 16.77,0.6 24.95,1.9 8.26,1.25 15.95,3.25 23.18,5.9 7.24,2.65 13.66,6.1 19.24,10.3 5.59,4.15 9.97,9.15 13.15,14.95 3.17,5.8 4.76,12.5 4.83,20.05 -0.07,7.85 -1.72,14.75 -4.96,20.65 -3.24,5.9 -7.75,11 -13.59,15.2 -5.78,4.2 -12.51,7.7 -20.19,10.5 -7.68,2.75 -16,4.9 -24.89,6.45 10.16,1.95 19.11,4.65 26.98,8.1 7.94,3.45 14.1,8.1 18.67,13.9 4.51,5.8 6.86,13.15 6.92,22.1 -0.06,7.6 -1.77,14.2 -5.07,19.85 -3.31,5.6 -7.88,10.35 -13.66,14.25 -5.78,3.9 -12.38,7 -19.74,9.35 -7.43,2.35 -15.31,4.05 -23.56,5.1 -8.26,1.05 -16.51,1.55 -24.83,1.55 h -113.53 v -200.1 z m -51.81,182.1 c 7.11,0.05 13.52,-0.05 19.24,-0.25 5.71,-0.25 10.79,-0.85 15.11,-1.85 4.32,-1.05 8,-2.75 10.92,-5.1 2.92,-2.35 5.14,-5.6 6.61,-9.85 1.46,-4.2 2.22,-9.65 2.22,-16.25 0,-7.1 -0.64,-12.9 -1.91,-17.4 -1.27,-4.55 -3.24,-8.05 -5.96,-10.6 -2.67,-2.5 -6.16,-4.3 -10.42,-5.4 -4.26,-1.1 -9.33,-1.8 -15.24,-2 -5.97,-0.25 -12.83,-0.35 -20.57,-0.3 v 69"
           style="fill:#ccab6a;fill-opacity:1;stroke:none;stroke-opacity:1"
           id="path38"
           inkscape:connector-curvature="0" /></g></g><path
       inkscape:connector-curvature="0"
       id="path46"
       d="m 168.5514,380.12914 c -8.84145,-9.30234 -17.64877,-14.89251 -31.90459,-20.25045 -6.78061,-2.54843 -13.69393,-4.60046 -29.76239,-8.83413 -21.637878,-5.70108 -27.525249,-7.62461 -36.533191,-11.93618 -6.909633,-3.30722 -12.488601,-7.11003 -16.95152,-11.55471 -5.921047,-5.89684 -9.44536,-11.80785 -12.020502,-20.16088 -2.751594,-8.92539 -2.618607,-5.51968 -2.763973,-70.78372 l -0.131605,-59.08581 h 3.279845 3.279844 v 57.66784 c 0,37.09415 0.150148,58.90186 0.420864,61.12677 1.945556,15.9898 9.597556,27.2421 24.070662,35.39603 7.191013,4.05131 17.540415,7.56968 38.662106,13.14356 8.57959,2.26409 17.9476,4.83955 20.81779,5.72324 17.67623,5.44221 30.41741,12.09442 39.72299,20.73948 l 3.25333,3.02241 v -12.48523 -12.48522 h 1.02048 c 1.01292,0 1.02048,-0.0272 1.02048,-3.67373 0,-3.64652 0.008,-3.67373 1.02048,-3.67373 h 1.02048 v 16.16802 16.16803 l 3.47837,-3.29257 c 5.71439,-5.40914 14.18966,-10.70758 23.55697,-14.72695 8.99658,-3.86031 16.70055,-6.28006 36.43853,-11.44504 20.42512,-5.34479 28.52943,-8.02686 36.76307,-12.16652 14.38578,-7.23279 22.15204,-16.88592 25.54883,-31.75609 l 0.92607,-4.05411 0.12967,-59.69809 0.12967,-59.6981 h 3.25382 3.25382 l -3.4e-4,56.02437 c -2.1e-4,34.64492 -0.15832,57.73784 -0.41432,60.51448 -2.24035,24.29948 -14.1302,38.9355 -39.38407,48.4805 -7.00085,2.64605 -12.42107,4.26269 -28.36935,8.46148 -22.80393,6.00371 -30.58715,8.57306 -40.21514,13.27562 -8.71903,4.25861 -13.38555,7.60611 -20.29006,14.55497 -4.11213,4.13854 -6.29521,6.05017 -6.90929,6.05017 -0.61485,0 -2.32212,-1.49863 -5.41783,-4.75571 z"
       style="fill:#ccab6a;fill-opacity:1;stroke:none;stroke-width:0.4081921;stroke-opacity:1" /><path
       inkscape:connector-curvature="0"
       id="path50"
       d="m 38.512245,176.19479 c 0,-1.20575 -1.564799,-2.89292 -16.939973,-18.26475 C 7.8086867,144.16945 4.6323002,140.79161 4.6323002,139.91567 c 0,-0.59295 2.5462954,-6.49768 5.6584338,-13.12161 l 5.658435,-12.04352 -7.5769376,-7.57693 C 1.5405103,100.34188 0.79775067,99.464321 0.82026748,98.250998 0.85125988,96.580966 27.139359,40.090664 28.372553,39.044093 c 0.694309,-0.589237 1.655878,-0.714336 5.490704,-0.714336 h 4.648988 V 20.796703 c 0,-11.980236 0.143532,-17.8480727 0.453204,-18.5277284 C 39.214711,1.7219034 39.866257,1.0703579 40.413328,0.82109555 41.135797,0.49191654 77.771981,0.36789137 174.28673,0.36789137 h 132.87872 l 1.19317,1.19317693 1.19318,1.1931769 V 20.542001 38.329757 h 4.64899 c 3.83797,0 4.79438,0.124616 5.48244,0.714336 0.4584,0.392885 6.91699,13.779186 14.35244,29.747334 10.36611,22.261973 13.46048,29.266137 13.2681,30.032644 -0.13799,0.549802 -3.54541,4.290349 -7.57205,8.312319 -4.02664,4.02198 -7.32116,7.50912 -7.32116,7.7492 0,0.24008 2.47976,5.7316 5.51059,12.20336 3.03083,6.47178 5.51059,12.2479 5.51059,12.83583 0,0.86393 -3.24931,4.31759 -16.93997,18.00526 -15.37517,15.37183 -16.93997,17.059 -16.93997,18.26475 v 1.32847 h -3.26554 -3.26553 V 139.3573 101.19134 h -63.47388 -63.47387 v 15.7154 15.71539 h -2.04096 -2.04096 v -15.71539 -15.7154 H 108.51719 45.043318 v 38.16596 38.16596 h -3.265537 -3.265536 z m -8.89639,-47.77255 -8.907186,-8.90718 -4.559781,9.71702 -4.55978,9.71703 13.35952,13.37082 13.359521,13.37082 0.107446,-14.18066 0.107447,-14.18066 z m 306.725115,10.34829 c -0.0578,-0.12629 -2.10059,-4.51203 -4.53952,-9.74609 l -4.43442,-9.51649 -8.90761,8.90072 -8.90762,8.90071 v 14.28788 14.28789 l 13.44713,-13.4425 c 7.39593,-7.39338 13.39984,-13.54583 13.34204,-13.67212 z M 38.512245,114.66168 V 101.19134 H 25.246001 c -7.296433,0 -13.266243,0.13672 -13.266243,0.30383 0,0.26756 26.162618,26.63685 26.428083,26.63685 0.05742,0 0.104404,-6.06165 0.104404,-13.47034 z M 336.08429,101.49984 c 0,-0.16967 -5.96981,-0.3085 -13.26625,-0.3085 H 309.5518 v 13.57003 13.57003 l 13.26624,-13.26153 c 7.29644,-7.29384 13.26625,-13.40036 13.26625,-13.57003 z m 2.85734,-6.677509 c 0,-0.135368 -5.26249,-11.523928 -11.69443,-25.30791 L 315.55277,44.452638 H 174.01929 32.485824 L 20.804119,69.492064 C 14.379181,83.263747 9.1224134,94.652307 9.1224134,94.799975 c 0,0.147667 74.2093236,0.268484 164.9096066,0.268484 90.70029,0 164.90961,-0.110759 164.90961,-0.246128 z M 171.99106,22.614361 V 6.898965 H 108.51719 45.043318 v 15.715396 15.715396 h 63.473872 63.47387 z m 131.02967,0 V 6.898965 h -63.47388 -63.47387 v 15.715396 15.715396 h 63.47387 63.47388 z"
       style="fill:#ccab6a;fill-opacity:1;stroke:none;stroke-width:0.4081921;stroke-opacity:1" /></g></svg>