<?xml version="1.0" encoding="UTF-8" standalone="no"?>
<!-- Created with Inkscape (http://www.inkscape.org/) -->

<svg
   xmlns:dc="http://purl.org/dc/elements/1.1/"
   xmlns:cc="http://creativecommons.org/ns#"
   xmlns:rdf="http://www.w3.org/1999/02/22-rdf-syntax-ns#"
   xmlns:svg="http://www.w3.org/2000/svg"
   xmlns="http://www.w3.org/2000/svg"
   xmlns:sodipodi="http://sodipodi.sourceforge.net/DTD/sodipodi-0.dtd"
   xmlns:inkscape="http://www.inkscape.org/namespaces/inkscape"
   version="1.1"
   id="svg2"
   xml:space="preserve"
   width="233.18658"
   height="252"
   viewBox="0 0 233.18658 251.99999"
   sodipodi:docname="fc-puskas-akademia.svg"
   inkscape:version="0.92.4 (5da689c313, 2019-01-14)"><metadata
     id="metadata8"><rdf:RDF><cc:Work
         rdf:about=""><dc:format>image/svg+xml</dc:format><dc:type
           rdf:resource="http://purl.org/dc/dcmitype/StillImage" /><dc:title></dc:title></cc:Work></rdf:RDF></metadata><defs
     id="defs6" /><sodipodi:namedview
     pagecolor="#ffffff"
     bordercolor="#666666"
     borderopacity="1"
     objecttolerance="10"
     gridtolerance="10"
     guidetolerance="10"
     inkscape:pageopacity="0"
     inkscape:pageshadow="2"
     inkscape:window-width="1366"
     inkscape:window-height="705"
     id="namedview4"
     showgrid="false"
     fit-margin-top="1"
     fit-margin-bottom="1"
     fit-margin-right="1"
     fit-margin-left="1"
     inkscape:zoom="0.29732614"
     inkscape:cx="167.39325"
     inkscape:cy="337.64354"
     inkscape:window-x="-8"
     inkscape:window-y="-8"
     inkscape:window-maximized="1"
     inkscape:current-layer="g10" /><g
     id="g10"
     inkscape:groupmode="layer"
     inkscape:label="fc-puskas-akademia-felcsut-seeklogo.com"
     transform="matrix(1.3333333,0,0,-1.3333333,-35.401692,425.46357)"><g
       id="g48"
       transform="matrix(0.32374086,0,0,0.32374086,18.462733,88.486939)"><path
         inkscape:connector-curvature="0"
         id="path12"
         style="fill:#11294b;fill-opacity:1;fill-rule:nonzero;stroke:none"
         d="m 278.6748,335.24219 18.3877,171.93994 1.04932,0.11621 h 13.15381 c 33.86132,-0.45703 49.14453,2.36182 43.5625,-48.92578 l -6.4961,-64.55713 c -5.1709,-44.88965 -9.70117,-58.57324 -44.47949,-58.5752 h -23.70313 l -1.47461,0.002 m -6.07617,-57.35352 h 25.39649 c 41.6416,0.15332 70.46972,3.35645 91.52051,24.40625 20.36523,20.36524 25.625,40.72656 33.99609,109.35449 l 3.33008,31.14258 c 5.29394,52.6377 3.39941,77.31934 -14.44629,97.45362 -21.48145,24.23437 -44.84571,27.91357 -96.55274,28.06543 H 189.16406 l -0.82226,-0.0762 -6.52442,-61.02002 1.24414,0.0835 h 40.26856 l -0.0337,-0.91943 -40.15772,-375.53125 h 73.67676 l 15.64404,146.28515 0.13916,0.75586 z" /><path
         inkscape:connector-curvature="0"
         id="path14"
         style="fill:#fbbf23;fill-opacity:1;fill-rule:nonzero;stroke:none"
         d="m 311.88086,490.83057 -14.87744,-139.11573 6.84912,-9.7e-4 c 20.40625,9.7e-4 23.04297,0.007 28.10156,43.89453 0.0303,0.28808 6.49805,64.5459 6.49805,64.5459 1.2539,14.02197 2.55762,22.58642 -1.71289,27.16259 -3.68555,3.94874 -11.54492,3.54834 -23.98535,3.51075 l -0.87305,0.003 z" /><path
         inkscape:connector-curvature="0"
         id="path16"
         style="fill:#11294b;fill-opacity:1;fill-rule:nonzero;stroke:none"
         d="M 194.34277,390.78906 C 186.56885,380.81641 178.71436,370.25 170.7832,359.03613 92.55225,248.41895 72.85742,139.39063 72.85742,139.39063 c 0,0 -0.45801,102.95898 58.11475,216.90039 19.20117,37.34961 42.86767,73.57177 71.25537,107.83642 l -0.14551,-1.20605 -7.60351,-71.10889 z" /><path
         inkscape:connector-curvature="0"
         id="path18"
         style="fill:#11294b;fill-opacity:1;fill-rule:nonzero;stroke:none"
         d="m 336.43359,584.49756 c 27.89649,-0.84766 49.71582,-4.08301 68.667,-16.25977 l 0.85742,-0.55957 c 62.08496,33.66846 129.07226,53.5625 129.07226,53.5625 l -30.20019,50.79248 c 0,0 -70.92774,-21.04882 -166.10938,-85.1123 -1.16504,-0.78516 -2.32617,-1.57178 -3.48242,-2.36084 z" /><path
         inkscape:connector-curvature="0"
         id="path20"
         style="fill:#11294b;fill-opacity:1;fill-rule:nonzero;stroke:none"
         d="m 206.20215,490.8252 c -11.97608,0 -23.55371,0 -33.82813,0 l -0.55029,0.0161 C 132.00732,428.27002 107.80664,362.06836 96.19482,299.54883 c 0,0 28.55176,80.6875 94.26465,169.31152 5.66162,7.63428 11.18701,14.90918 16.64063,21.87549 l -0.89795,0.0894 z" /><path
         inkscape:connector-curvature="0"
         id="path22"
         style="fill:#11294b;fill-opacity:1;fill-rule:nonzero;stroke:none"
         d="m 298.30127,584.78467 h -50.03174 l -0.92627,0.0112 c 0.86524,0.86279 1.73242,1.72363 2.60449,2.58252 88.31592,86.94336 182.58057,122.63623 182.58057,122.63623 L 458.6123,677.5249 c 0,0 -51.20312,-20.40136 -106.62011,-55.82715 -19.68164,-12.58105 -36.9209,-24.65478 -52.59766,-36.92138 l -1.09326,0.008 z" /><path
         inkscape:connector-curvature="0"
         id="path24"
         style="fill:#fbbf23;fill-opacity:1;fill-rule:nonzero;stroke:none"
         d="m 133.50146,262.97168 c 13.1294,27.32422 29.7837,56.93652 50.73292,86.55469 2.22363,3.14551 4.44384,6.23926 6.65673,9.28222 l -0.0395,-0.90722 -13.84082,-129.43653 -0.52344,0.34473 c -15.53173,9.53516 -29.83886,20.88086 -42.62109,33.74512 l -0.36475,0.41699 z" /><path
         inkscape:connector-curvature="0"
         id="path26"
         style="fill:#11294b;fill-opacity:1;fill-rule:nonzero;stroke:none"
         d="m 172.31152,184.70313 c -20.08398,10.38183 -38.68798,23.23046 -55.4082,38.14453 l -0.76514,0.60937 c 3.0083,7.53027 6.31348,15.38574 9.93995,23.50293 l 0.61328,-0.58984 c 14.55615,-13.89942 30.82861,-26.0166 48.4663,-35.99903 l -0.18603,-0.96875 -2.48486,-23.23925 z" /><path
         inkscape:connector-curvature="0"
         id="path28"
         style="fill:#11294b;fill-opacity:1;fill-rule:nonzero;stroke:none"
         d="m 276.1416,156.63086 2.35596,22.03711 0.12695,0.76758 c 5.44092,-0.36328 10.93408,-0.54688 16.46826,-0.54688 134.67676,0 243.86231,109.1836 243.86231,243.86133 0,61.104 -22.47363,116.95752 -59.60547,159.74951 l -0.76856,0.9458 c 8.43458,3.42823 16.38672,6.49121 23.5879,9.16309 l 0.88769,-1.13428 c 37.4082,-46.05176 59.82715,-104.77051 59.82715,-168.72412 0,-147.89746 -119.89649,-267.79102 -267.79102,-267.79102 -6.4082,0 -12.76464,0.22559 -19.06006,0.66797 z" /><path
         inkscape:connector-curvature="0"
         id="path30"
         style="fill:#fbbf23;fill-opacity:1;fill-rule:nonzero;stroke:none"
         d="m 287.31836,261.41504 h 10.67676 c 40.62988,0.14941 76.39062,2.45215 103.16992,29.23047 25.16894,25.16992 30.60254,52.62793 38.69824,119.00976 l 3.35938,31.38477 c 5.46484,54.34814 4.08691,84.64892 -18.49903,110.13232 -1.34863,1.52051 -4.91992,5.21875 -4.91992,5.21875 14.30176,7.51075 28.79199,14.28418 42.51953,20.23194 l 0.83399,-0.86182 c 36.83593,-40.4248 59.32422,-94.1416 59.32422,-153.01123 0,-125.38184 -102.00684,-227.3877 -227.38868,-227.3877 -4.94091,0 -9.84375,0.15918 -14.70605,0.46973 l 0.13574,1.75488 6.72119,62.84668 0.0747,0.98145 z" /><path
         inkscape:connector-curvature="0"
         id="path32"
         style="fill:#fbbf23;fill-opacity:1;fill-rule:nonzero;stroke:none"
         d="m 88.44238,327.9043 c -13.30957,28.88281 -20.73633,61.01367 -20.73633,94.8457 0,125.38281 102.00489,227.38916 227.38672,227.38916 l 2.34668,0.0361 c -19.23291,-14.61718 -39.2583,-31.57519 -59.04834,-51.05761 -4.78418,-4.71045 -9.48242,-9.50684 -14.09179,-14.38672 l -1.1211,0.0537 H 173.5293 l -0.0381,-0.4917 -7.80908,-73.02881 -0.21826,-0.354 C 150.98926,489.27637 138.0083,466.67725 126.64844,443.34229 113.07031,412.7207 99.41211,370.91797 88.72705,329.02344 Z" /><path
         inkscape:connector-curvature="0"
         id="path34"
         style="fill:#11294b;fill-opacity:1;fill-rule:nonzero;stroke:none"
         d="M 75.6123,269.28027 C 45.16553,312.74121 27.30127,365.66016 27.30127,422.75 c 0,147.89795 119.89648,267.79395 267.7915,267.79395 17.96387,0 35.5127,-1.76856 52.48828,-5.14258 l 0.95118,-0.19922 c -9.51563,-5.86182 -19.58594,-12.41651 -30.02637,-19.69434 l -0.83691,0.0737 c -7.43457,0.68311 -14.96485,1.03174 -22.57618,1.03174 -134.68066,0 -243.86035,-109.18115 -243.86035,-243.86328 0,-43.43066 11.35254,-84.20996 31.25586,-119.53223 l -0.09765,-0.61718 c -2.45118,-10.92481 -4.64991,-21.69043 -6.54249,-32.09961 l -0.23584,-1.22071 z" /></g></g></svg>