<?xml version="1.0" encoding="UTF-8" standalone="no"?>
<svg id="svg37" height="276.3447" viewBox="0 0 269.24999 207.25852" width="359" xmlns="http://www.w3.org/2000/svg">
   <g id="surface36" transform="matrix(.74319312 0 0 .74319312 -85.773644 -209.2143)">
      <path id="path2" d="m .00143125-.0016375c-.94921925.2226565-2.09765625-.046875-3.03125025.2226565-1.71875-.1757815-3.453125.300781-5.171875.316406-.835937.015625-1.53125.21875-2.335937.21875-.550782.0625-1.136719.128906-1.765625.191406-2.019532.203125-3.785157.597656-5.742188.757813-5.507812.976562-11.042969 2.082031-16.375 3.59375v.03125c-3.976562 1.199218-7.964844 2.351562-11.800781 3.882812-1.511719.597656-3.011719 1.199219-4.542969 1.765625-.378906.207031-.789062.363281-1.167969.566406-.878906.300782-1.671875.835938-2.585937 1.074219-1.464844.742188-2.964844 1.402344-4.417969 2.175781-1.230469.648438-2.445312 1.34375-3.722656 1.863282-.347656.394531-.914063.25-1.261719.628906-.582031.332031-1.167969.679687-1.765625.980469-1.609375.960937-3.25 1.859375-4.828125 2.902343-5.078125 3.234375-10.253906 6.828125-14.953125 10.757813-2.554687 2.222656-5.09375 4.320312-7.476562 6.75-2.195313 2.003906-4.308594 4.496094-6.4375 6.722656-2.996099 3.40625-5.914059 7.019531-8.613279 10.695313-2.69532 3.691406-5.07813 7.492187-7.28907 11.421875-1.49609 2.523437-2.83984 5.125-4.16406 7.726562-3.25 6.296875-5.67969 12.953125-7.88672 19.625-1.05468 3.582031-2.1289 7.128904-2.93359 10.855474-.83594 3.8164-1.65625 7.67968-2.11328 11.60937-.51953 2.82031-.60156 5.89844-.94531 8.83203-.16016 4.08594-.61719 8.44141-.34766 12.65235-.0625 2.67968.21875 5.16015.25 7.76171.26953 2.79297.45703 5.66016.82031 8.48438.48828 3.56641 1.01172 7.08594 1.73828 10.60156 1.21094 6.16797 2.85157 12.14844 4.88672 18.01563 1.40625 3.84765 2.71485 7.74609 4.44922 11.45312.83594 1.79688 1.57813 3.69141 2.55469 5.45703 1.42187 3.1875 3.41015 6.16797 5.08203 9.21094 5.44141 8.86719 11.64062 17.37109 19.496094 24.95703 1.546875 1.82813 3.519531 3.40625 5.238281 5.07813 4.242187 3.88281 8.707031 7.33593 13.28125 10.57031l.03125.0312-.03125.0312c5.046875 3.64453 10.585937 6.8164 16.152344 9.5625 1.390625.72265 2.855468 1.27734 4.230468 2.01562.675782.25391 1.339844.67969 2.050782.91797 3.21875 1.35547 6.417968 2.76172 9.78125 3.78516 3.246093 1.4375 6.796875 2.1289 10.1875 3.21875 2.949218.78906 5.933593 1.46484 8.960937 2.05078 4.101563.82031 8.425781 1.44922 12.527344 1.89062 1.101562.0312 2.082031.17579 3.121094.25391 1.484375.30078 3.140625.17188 4.574218.37891 1.214844-.10938 2.289063.10937 3.566407.125 3.566406-.0781 8.140625.1914 11.765625-.21875 2.636718.0469 5.097656-.42578 7.605468-.57032 3.800782-.5664 7.601563-.85156 11.292969-1.70312 3.835938-.67969 7.574219-1.5625 11.265625-2.58594 6.46875-1.71875 12.714844-3.97656 18.804688-6.59375 3.625-1.53125 7.160156-3.34375 10.695312-5.11328 3.3125-1.89062 6.71875-3.6914 9.839844-5.86719 3.535156-2.36718 6.957031-4.66796 10.285156-7.47656 4.070313-3.29687 8.09375-6.84765 11.707034-10.53906 1.98828-1.85938 3.76953-3.97266 5.71093-6.02344 1.3086-1.5625 2.60157-3.26562 4.00782-4.73437.0156.0937.0625.1914.15625.2539.125-.11328.30078-.3164.3789-.47265 5.82032-7.46094 11.02735-15.39844 15.04688-23.66407 2.73047-5.3789 4.95312-10.94921 6.8789-16.65625.9961-2.73046 1.75-5.55468 2.58594-8.36328 2.13281-8.58203 3.80469-17.22656 4.41797-26.3125.19141-2.67968.26953-5.03125.31641-7.69531l.0625-.31641c-.0937-1.9414.0781-4.38671-.15625-6.34375.0625-.67578.0312-1.46484-.0937-2.14453.0625-1.95703-.20703-3.86328-.34766-5.89843-.80469-9.3086-2.39844-18.23438-4.95312-26.847661-3.55079-12.304688-8.64454-24.058594-15.36719-35.085938-5.64453-9.417969-13.04297-18.25-21.01172-26.121094-1.054688-1.011718-2.191406-1.863281-3.152344-2.933593-3.960937-3.488282-8.1875-6.738282-12.335937-9.75-4.101613-2.808494-8.332082-5.456932-12.621144-7.886619-2.335938-1.042969-4.464844-2.589844-6.847656-3.503906-4.257813-2.128907-8.691407-3.863282-13.15625-5.488282-7.335938-2.601562-14.90625-4.589843-22.746094-5.964843-3.15625-.425782-6.167969-1.070313-9.339844-1.261719-2.382812-.332031-4.777344-.519531-7.191406-.566406-.570313-.1406253-1.359375.015625-1.925781-.1250003-.550782-.0976562-1.199219.0625003-1.703125-.1289062zm0 0" fill="#1966ba" fill-rule="evenodd" stroke="#1966ba" stroke-miterlimit="3.86400008" stroke-width=".12" transform="matrix(1 0 0 -1 293.0806 558.2718)"/>
      <path id="path4" d="m290.27344 544.51562c-4.19532-.125-8.15625-.91406-12.24219-1.51171-2.53906-.49219-5.125-1.02735-7.66797-1.60938-1.79687-.22266-3.46875-.77344-5.17187-1.23047-2.83985-.71094-5.52344-1.8164-8.29688-2.68359-.88281-1.6875-1.64453-3.45313-2.52344-5.14063-1.04297-2.10156-1.91015-4.27734-2.80859-6.4375-1.57813-3.51953-2.69922-7.24218-4.03906-10.85156-1.48438-4.52734-2.8086-9.12109-3.94532-13.78906-.39453-1.53125-.70703-3.08985-1.13281-4.60547-.58594-3.80078-1.54687-7.69922-1.92578-11.54688-.31641-2.01953-.50391-4.10156-.82031-6.12109-.15625-2.60156-.44141-5.34766-.60156-8.10937.28515.0937.50781.33203.75781.5039 2.21094 1.5625 4.54297 3.3125 6.8789 4.73438 5.78907 3.89453 11.91016 7.23828 18.10938 10.28515.67969.25391 1.30859.62891 1.98828.88282.48828.26953 1.05469.48828 1.57813.75781 2.67968 1.13672 5.36328 2.28515 8.10546 3.28125.34766.1875.74219.26953 1.10547.41015 2.8711 1.00782 5.72657 2.05079 8.67578 2.8711 1.13672.33203 2.25782.72265 3.40625 1.00781 4.58985 1.27734 9.29297 2.32031 14.10547 3.09375.66016.23438 1.4336.31641 2.11328.41016 2.61719.33203 5.07813.74218 7.73047.97656 2.8711.33203 6.00782.64844 8.95703.69531.9961.20313 2.21094-.0156 3.15625.1875 4.08594.0977 8.82032-.0156 12.8086-.15625 3.58203-.10937 6.95703-.61719 10.38281-.91406 6.64063-.86719 13.13672-2.06641 19.46484-3.69141 1.5625-.45703 3.15235-.85156 4.69922-1.35937 7.17969-2.14453 14.16797-4.7461 20.91797-7.94922.97656-.53516 2.03516-.89844 2.9961-1.45313 1.35937-.67578 2.68359-1.37109 4.03906-2.14453 1.73437-.82031 3.32812-1.98437 5.08203-2.77343-3.58203 6.8125-7.90625 13.40625-13.03125 19.58984-8.39453 10.11328-18.58203 18.88281-29.27734 25.62109-5.34766 3.26172-10.83985 6.21485-16.53125 8.67578-5.9336 2.60157-12.03907 4.76172-18.36329 6.40235-1.42187.39453-2.88671.66406-4.35546.94922-6.54688 1.58984-13.20313 2.4414-20.22266 2.80468-.83594.20704-1.64063-.0156-2.42969.19141-.91406-.0312-1.97265-.0937-2.93359.0625-3.07422-.20703-5.77344.0312-8.73828-.31641" fill="#fff" fill-rule="evenodd"/>
      <path id="path6" d="m .0005375.001375c-4.1953125.125-8.1562495.914063-12.2421875 1.511719-2.539062.492187-5.125 1.027344-7.667969 1.609375-1.796875.222656-3.46875.773437-5.171875 1.230469-2.839843.710937-5.523437 1.816406-8.296875 2.683593-.882812 1.6875-1.644531 3.453125-2.523437 5.140625-1.042969 2.101563-1.910156 4.277344-2.808594 6.4375-1.578125 3.519532-2.699219 7.242188-4.039062 10.851563-1.484375 4.527344-2.808594 9.121094-3.945313 13.789062-.394531 1.53125-.707031 3.089844-1.132812 4.605469-.585938 3.800781-1.546875 7.699219-1.925782 11.546875-.316406 2.019531-.503906 4.101563-.820312 6.121094-.15625 2.601562-.441406 5.347656-.601563 8.109375.285157-.09375.507813-.332031.757813-.503906 2.210937-1.5625 4.542969-3.3125 6.878906-4.734375 5.789063-3.894532 11.910156-7.238282 18.109375-10.285157.679688-.253906 1.308594-.628906 1.988281-.882812.488282-.269531 1.054688-.488281 1.578125-.757813 2.679688-1.136718 5.363282-2.285156 8.105469-3.28125.347656-.1875.742188-.269531 1.105469-.410156 2.871094-1.007812 5.726562-2.050781 8.675781-2.871094 1.136719-.332031 2.257813-.722656 3.40625-1.007812 4.589844-1.277344 9.292969-2.320313 14.105469-3.09375.660156-.234375 1.433594-.316406 2.113281-.410156 2.617188-.332032 5.078125-.742188 7.730469-.976563 2.871094-.332031 6.007812-.648437 8.957031-.695312.996094-.203125 2.210938.01563 3.15625-.1875 4.085938-.09766 8.820313.01563 12.808594.15625 3.582031.109375 6.957031.617187 10.382812.914062 6.640625.867188 13.136719 2.066406 19.464844 3.691406 1.5625.457032 3.152344.851563 4.699219 1.359375 7.179687 2.144532 14.167969 4.746094 20.917966 7.949219.97656.535156 2.03516.898438 2.9961 1.453125 1.35937.675781 2.68359 1.371094 4.03906 2.144531 1.73437.820313 3.32812 1.984375 5.08203 2.773438-3.58203-6.8125-7.90625-13.40625-13.03125-19.589844-8.394531-10.113281-18.582031-18.882812-29.277344-25.621094-5.347656-3.261718-10.839843-6.214843-16.53125-8.675781-5.933593-2.601562-12.039062-4.761719-18.363281-6.402344-1.421875-.394531-2.886719-.664062-4.355469-.949218-6.546875-1.589844-13.203125-2.441407-20.222656-2.804688-.835937-.207031-1.640625.015625-2.429687-.191406-.914063.03125-1.972657.09375-2.933594-.0625-3.074219.207031-5.773438-.03125-8.7382815.316406zm0 0" fill="none" stroke="#fff" stroke-miterlimit="3.86400008" stroke-width=".12" transform="matrix(1 0 0 -1 290.2729 544.517)"/>
      <path id="path8" d="m197.29687 492.58594c-14.49609-20.55469-22.875-44.20313-23.60156-69.97657.0352-3.32812-.0937-6.26171.22266-9.58984-.20703-.94922.3789-1.70703.21875-2.58984.1914-.48828.0352-.99219.1289-1.51172 1.51172-17.76563 6.53125-34.46875 15.04688-49.53516 1.16797-2.1289 2.54297-4.17969 3.82031-6.27734l6.05469-8.64453c.22266-.14453.42578.125.66406.125.44141.23828.88281.4414 1.35547.60156 2.16406.96094 4.37109 1.79687 6.46875 2.90234 2.09766 1.03907 4.11719 2.25391 6.15234 3.4375 5.23829 3.20313 10.22266 7.11328 14.64063 11.54688.61328.3789 1.05469 1.10547 1.57422 1.57812 2.33594 2.28516 4.19922 4.6211 6.4375 7.00391.0625.44141-.23828.80469-.31641 1.23047-.83594 2.74609-1.71875 5.47265-2.64844 8.17187-2.09765 7.05078-3.97656 14.08594-5.45703 21.39063-1.16797 4.875-1.7539 9.90625-2.55859 14.89062-.20313.80469-.23438 1.6875-.34375 2.52344-.46094 3.83203-1.02734 7.85547-1.16797 11.70313-.22266 1.51562-.20703 2.96875-.37891 4.54296-.0937 1.375-.0781 2.69922-.1289 4.03907-.20313 1.12109.0156 2.24218-.1875 3.4414l-.0312 11.42188c.14062 2.05078.0937 4.05078.28515 6.08594-.0977 3.28125.37891 6.57812.62891 9.65625.19141 4.11718.83594 7.91796 1.26172 12.05078.96484 5.85156 1.80078 11.76953 3.09375 17.48047.45703 2.2539.99219 4.48046 1.57812 6.6875.47266 2.77734 1.40235 5.4414 2.11329 8.17187.89843 3.66016 2.1914 7.14453 3.28125 10.72656.23437.56641.3789 1.19922.53515 1.79688-15.0664-8.35938-28.33203-20.77344-38.74219-35.08203" fill="#fff" fill-rule="evenodd"/>
      <path id="path10" d="m .000475-.0006375c-14.496094 20.5546875-22.875 44.2031245-23.601563 69.9765625.03516 3.328125-.09375 6.261719.222657 9.589844-.207032.949218.378906 1.707031.21875 2.589843.191406.488282.03516.992188.128906 1.511719 1.511719 17.765629 6.53125 34.468749 15.046875 49.535159 1.167969 2.1289 2.542969 4.17968 3.820312 6.27734l6.054688 8.64453c.222656.14453.425781-.125.664062-.125.441407-.23828.882813-.4414 1.355469-.60156 2.164063-.96094 4.371094-1.79688 6.46875-2.90234 2.097656-1.03907 4.117188-2.25391 6.152344-3.4375 5.238281-3.20313 10.222656-7.11329 14.640625-11.54688.613281-.37891 1.054687-1.10547 1.574219-1.57812 2.335937-2.28516 4.199218-4.6211 6.4375-7.00391.0625-.44141-.238282-.80469-.316407-1.23047-.835937-2.74609-1.71875-5.47265-2.648437-8.17187-2.097656-7.05078-3.976563-14.085941-5.457031-21.390629-1.167969-4.875-1.753907-9.90625-2.558594-14.890625-.203125-.804687-.234375-1.6875-.34375-2.523437-.460938-3.832032-1.027344-7.855469-1.167969-11.703125-.222656-1.515625-.207031-2.96875-.378906-4.542969-.09375-1.375-.07813-2.699219-.128906-4.039063-.203125-1.121093.01563-2.242187-.1875-3.441406l-.03125-11.421875c.140625-2.050781.09375-4.050781.285156-6.085937-.09766-3.28125.378906-6.578125.628906-9.65625.191406-4.117188.835938-7.917969 1.261719-12.050782.964844-5.851562 1.800781-11.769531 3.09375-17.480468.457031-2.253907.992187-4.480469 1.578125-6.6875.472656-2.777344 1.402344-5.441407 2.113281-8.171875.898438-3.660157 2.191406-7.144532 3.28125-10.726563.234375-.566406.378906-1.199219.535156-1.796875-15.066406 8.359375-28.332031 20.773438-38.742187 35.0820315zm0 0" fill="none" stroke="#fff" stroke-miterlimit="3.86400008" stroke-width=".12" transform="matrix(1 0 0 -1 197.2964 492.5853)"/>
      <path id="path12" d="m-.0014625-.00063125c-1.5117185-.09374995-2.9648435.16015625-4.3515625.16015625-1.59375.15625-3.359375.171875-5.015625.472656-5.332031.488282-10.601563 1.433594-15.902344 2.585938-1.796875.519531-3.675781.835937-5.457031 1.386719-3.25.902343-6.421875 1.957031-9.59375 3.03125-.0625.1875-.25.03125-.34375.125-5.792969 2.113281-11.421875 4.558593-16.847656 7.539062-3.960938 2.226563-7.859375 4.6875-11.613282 7.351563-5.457031 3.867187-10.945312 8.265625-15.898437 12.9375-.08203 1.371093-.191406 2.710937-.285156 4.007812.07813 1.324219-.125 2.539063-.1875 3.816406.15625 4.195313-.238282 8.5.34375 12.746094.175781 5.425781 1.042968 10.597656 1.863281 15.835938.773437 4.527343 1.84375 8.945312 3.027344 13.316406.07813.171875.07813.378906.191406.535156 1.167969 4.101563 2.445312 8.125 3.972656 12.113281.679688 1.71875 1.375 3.441404 2.019531 5.175784l.378907.3789c6.121093 4.41797 12.636718 8.23438 19.277343 11.60938.929688.30078 1.703125.92969 2.648438 1.19922 1.390625.78906 2.890625 1.35547 4.355469 1.95703.503906.28125 1.121093.44141 1.640625.72266.582031.2539 1.183593.50781 1.765625.75781 3.773437 1.35937 7.542968 2.69922 11.390625 3.88281 1.734375.45703 3.453125.97656 5.207031 1.38672 6.023437 1.54687 12.238281 2.60156 18.488281 3.34375 1.023438.0195 2.019531.34765 3.058594.3164 1.5.17579 3.09375.16016 4.574219.37891.503906-.0625 1.136718-.0312 1.640625.0937 1.5-.15625 2.949218.16016 4.480468.0937l.125.0664 5.585938-.0312c.835937-.20703 1.925781.0156 2.808594-.19141 1.183593-.0156 2.476562-.0625 3.722656-.22266 1.609375-.10937 3.328125-.14062 4.921875-.375 4.242187-.41015 8.566406-1.12109 12.554687-1.95703 6.972657-1.33984 13.742188-3.21875 20.320313-5.52343.488281-.25 1.023437-.375 1.511719-.62891 3.09375-1.02734 6.027343-2.44531 9.023437-3.72266 3.738281-1.8164 7.445313-3.66015 11.074219-5.71093.269531-.23438.648437-.34766.949219-.56641 5.660156-3.375 11.136718-6.98828 16.277343-11.234375.441407-.960937.632813-2.082031.945313-3.058594.570312-2.304687 1.246094-4.558593 1.546875-6.847656.191406-.644531.269531-1.339844.410156-2.019531.773438-3.25 1.042969-6.703125 1.484375-10.09375.316406-1.828125.300781-3.722656.378906-5.492188.109375-2.128906.332032-4.414062.09375-6.496093.0625-1.863282-.109375-4.023438-.09375-5.839844-.113281-.691406-.175781-1.402344-.191406-2.144531l-.0625-.0625c-.25-4.496094-.898437-9.070313-1.765625-13.441407-.601562-2.445312-1.027344-4.90625-1.734375-7.347656-.917969-1.34375-2.179687-2.019531-3.25-3.25-4.085937-3.660156-8.125-6.847656-12.523437-9.972656-10.019532-6.93744-20.683594-12.445253-32.058594-16.152284-1.039063-.441406-2.175781-.644531-3.214844-1.074219-7.652344-2.378906-15.652344-4.050781-23.851562-5.015625-.617188-.09375-1.3125-.1875-1.957032-.28125-1.230468-.066406-2.605468-.253906-3.882812-.316406-2.285156-.2070312-4.480469-.25390625-6.875-.3164062-2.320313-.1406248-4.371094 0-6.785156 0zm0 0" fill="#fff" fill-rule="evenodd" stroke="#fff" stroke-miterlimit="3.86400008" stroke-width=".12" transform="matrix(1 0 0 -1 323.3999 485.5189)"/>
      <path id="path14" d="m209.50391 332.56641c.26171-.85547 9.69531-8.5586 11.07421-9.6211 21.77344-16.78515 42.85157-22.99219 69.85157-25.33594 1.76172-.15234 12.2539-.0976 13.4414.28516 8.60157 2.77344 27.39844 22.58203 33.16016 30.12891 3.42187 4.48437 7.10547 9.85156 9.52734 14.95312v.12891c-17.61328-1.6875-35.04297-.8125-52.24609 3.40625-6.39844 1.5664-12.71484 3.48828-18.86719 5.83594-5.46875 2.08593-21.29297 10.7539-23.60156 11.39062-.33594.0937-1.26563.23828-1.60938.21875-1.20312-.0703-1.92578-1.29687-2.55468-2.14453-9.85938-13.31641-23.62891-21.98438-38.17578-29.24609" fill="#fff" fill-rule="evenodd"/>
      <path id="path16" d="m-.00149375-.00060625c.26171875.85546825 9.69531275 8.55859325 11.07421875 9.62109325 21.773437 16.785157 42.851562 22.992188 69.851562 25.335938 1.761719.152344 12.253907.09766 13.441407-.285156 8.601566-2.773438 27.398436-22.582032 33.160156-30.128907 3.42187-4.4843745 7.10547-9.851562 9.52734-14.953125v-.128906c-17.61328 1.6875-35.04296.8125-52.24609-3.40625-6.398438-1.566406-12.714844-3.488281-18.867188-5.835937-5.46875-2.085938-21.292968-10.753907-23.601562-11.390625-.335938-.09375-1.265625-.238282-1.609375-.21875-1.203125.07031-1.925781 1.296875-2.554688 2.144531-9.859375 13.316406-23.628906 21.984375-38.17578075 29.24609375zm0 0" fill="none" stroke="#fff" stroke-miterlimit="3.86400008" stroke-width=".12" transform="matrix(1 0 0 -1 209.5054 332.5658)"/>
      <path id="path18" d="m366.46484 346.25781c-5.57422-16.25781-14.63281-28.20703-25.93359-40.82422 23.73047 8.04688 53.87109 31.86719 64.51953 54.89453-12.88281-5.52734-24.86719-10.69531-38.58594-14.07031" fill="#fff" fill-rule="evenodd"/>
      <path id="path20" d="m-.00045625.0008875c-5.57421875 16.2578125-14.63281275 28.2070315-25.93359375 40.8242185 23.730469-8.046875 53.871094-31.867187 64.519531-54.894531-12.882812 5.527344-24.867187 10.695313-38.58593725 14.0703125zm0 0" fill="none" stroke="#fff" stroke-miterlimit="3.86400008" stroke-width=".12" transform="matrix(1 0 0 -1 366.4653 346.2587)"/>
      <path id="path22" d="m279.39453 529.30859h12.5625l.69141-3.5625h-4.25l2.27343-13.15625h-3.46093l-.99219 1.1875-.49219.39453-.59375.39844-.59375.29688-.6914.0976-.79297.19532h-1.1875l-.59375 3.46484h1.08984l.59375-.0977h.49219l.49609-.10156.39453-.0977.39844-.0977.39453-.19922.29688-.19922-1.48438 7.91406h-3.95703zm0 0" fill="#1966ba" fill-rule="evenodd"/>
      <path id="path24" d="m311.14844 524.26172l-3.85938.98828.19922.49609.19531.4961.19922.39453.29688.49219.29687.39843.39453.29688.39453.39453.39844.29687.39453.29688.4961.19922.49218.19531.4961.19922.49219.0977.49609.10156.59375.0977h1.28516l.6914-.0977.69531-.19922.69141-.19922.59375-.19531.59375-.39844.49219-.29687.49609-.39454.4961-.49609.39453-.49219.29687-.49609.29688-.49219.19531-.59375.19922-.59375.0976-.59375v-1.1875l-.0976-.59375-.0977-.49609-.10156-.39453-.19531-.4961-.29688-.39453-.19922-.39453-.29687-.39453-.39453-.29688-.29688-.29687-.39453-.19922-.49609-.19922-.39453-.19531-.4961-.0977-.49219-.10156h-.99218l-.39453.10156-.4961.0977-.39453.19531-.39453.19922-.29688.29688-.39453.29687-.39843.29688.79296-3.06641h7.21875l1.08985-3.85938h-11.17578l-2.17578 8.90235 3.55859.79297.19922-.19922.19922-.29688.19531-.19531.29687-.19922.19922-.0976.29688-.10157.29687-.0976h.29688l.49219.0976.39453.10157.39843.19531.39454.29687.19921.29688.19532.39844.10156.49218.0977.39844-.0977.49219-.10156.49609-.59375.78906-.29688.29688-.39453.19922-.49609.19922h-.88672l-.4961-.10157-.39453-.19531-.59375-.39844-.29687-.39453-.19922-.39453zm0 0" fill="#1966ba" fill-rule="evenodd"/>
      <path id="path26" d="m300.36328 520.00781h-.39453l-.29688-.0976-.29687-.19922-.39453-.49219-.19922-.29688-.0977-.39453v-.79297l.0977-.39453.19922-.39843.19531-.39454.30078-.29687.29688-.19922.39453-.0977h.78906l.29688.0977.29687.19922.29688.29687.39843.59375.0977.39454.0977.39843-.19532.78907-.19922.39453-.29687.39843-.29688.19532-.39453.19922-.29687.0976zm1.78125 1.38672l-.0977.69141-.0976.49609-.10156.49219-.0977.49609-.19922.39453-.0977.39453-.19921.39844-.0977.29688-.39453.49218-.4961.39844-.49218.19531-.4961.0977h-.29687l-.59375-.19531-.29688-.19922-.39453-.49219-.10156-.39844-.19531-.39453-4.05469.79297.0977.49219.19921.49609.19532.4961.19922.39453.59375.78906.29687.29688.29297.29687.39844.19922.29687.29687.4961.19922.39453.0977.49218.0977.4961.10156.49609.0977h1.38281l.39454-.0977.29687-.10156.39844-.0977.39453-.0977.39453-.10156.29688-.19531.69531-.29688.58984-.49609.69531-.49609.59375-.59375.29688-.39454.19531-.29687.29688-.39453.19922-.4961.19921-.39453.19532-.39453.19922-.49609.19531-.49219.10156-.49609.19531-.4961.0977-.49218.10156-.59375.0977-.4961v-.59375l.10156-.49219v-1.38671l-.10156-.69141-.19922-.69141-.0977-.69531-.29687-.59375-.29688-.58984-.78906-.99219-.39453-.39453-.49609-.39453-.4961-.29688-.59375-.29687-.58984-.19922-.69531-.19531-.69141-.10157h-1.38281l-.59766.10157-.58984.19531-.59375.19922-.59375.19531-.4961.39844-.49218.29687-.4961.39453-.39453.39453-.30078.4961-.39453.49219-.19531.59375-.19922.59375-.19532.49609-.10156.69141v1.08984l.10156.49219.0977.49609.19531.39453.10157.39844.29687.39453.19531.39453.59375.59375.39844.29688.29688.19922.39453.19531.39453.10156.39453.0977.49609.0976h.98828l.59375-.0976.4961-.19922.49219-.19531.39843-.29688.39453-.29687.39454-.4961zm0 0" fill="#1966ba" fill-rule="evenodd"/>
      <path id="path28" d="m326.37891 524.06641v-1.28907l.0976-.39453v-.49609l.10156-.39453v-.49219l.0977-.39844.10156-.39453.0977-.49609.0977-.39453.0976-.4961.19922-.39453.0977-.29687.19922-.39454.0976-.29687.10156-.29688.19532-.29687.19922-.29688.78906-.59375.59375.0977.29687.10156.29688.19532.29687.49609.10157.29687.0976.4961v1.48047l-.0976.39843v.39454l-.10157.49609-.0976.39453-.0977.49219-.10156.49609-.0977.59375-.0976.4961-.10157.49218-.0976.39844-.19922.39453-.19531.78906-.19922.29688-.0977.29687-.19922.29688-.39453.29687-.49609.10157h-.49219l-.29688-.10157-.29687-.19531-.29688-.49609-.10156-.39453-.0976-.4961zm1.48437 5.73437l.59375-.0977.69141-.19921.6914-.19532.59375-.29687.69141-.30078.59375-.49219.49609-.39453.39453-.59375.29688-.39453.29687-.39844.19922-.39453.29688-.4961.19531-.39453.19922-.49609.19922-.49219.19531-.49609.10156-.4961.19532-.49218.10156-.4961.0976-.59375.0977-.49218v-.59375l.10156-.4961v-1.28515l-.10156-.69141-.0977-.69531-.19921-.69141-.29688-.59375-.29687-.58984-.29688-.4961-.39453-.49609-.39453-.39453-.4961-.39453-.49218-.29688-.4961-.29687-.49609-.19922-.58984-.19531-.59375-.10157h-1.28907l-.58984.10157-.69531.19531-.69141.29687-.59375.29688-.49609.29687-.49219.4961-.39453.49218-.29688.39844-.39843.39453-.29688.39453-.19531.4961-.29688.49219-.39843.99218-.19532.59375-.19922.49219-.0976.49609-.0977.59375-.10156.49219-.19531 1.1875v1.98047l.19531 1.38281.39844 1.1875.29297.4961.29687.49218.39844.4961.39453.39453.49609.39453.49219.39844.49609.19531.59375.29688.59375.19921.59375.0977zm0 0" fill="#1966ba" fill-rule="evenodd"/>
      <path id="path30" d="m361.85156 345.30078c-5.57422-16.25781-26.75781-36.95703-40.57422-48.90625 47.69141 8.64844 82.375 50.56641 93.01953 73.59375-10.49218-9.54687-38.72656-21.3125-52.44531-24.6875" fill="#fff" fill-rule="evenodd"/>
      <path id="path32" d="m-.00045-.00059375c7.324219-.04687505 17.269531-1.29296925 22.5625-4.62500025l4.144531 3.855469 12.425782-.175781-2.992188-23.40625-12.195312-.175782c-2.488282 6.851563-9.4375 13.589844-19.210938 13.761719-2.746094.05078-13.808594.175781-13.808594-5.691406 0-7.972656 37.160157-18.214844 37.160157-35.15625 0-17.339844-20.128907-22.53125-33.839844-23.324219-3.769531-.21875-13.675781.269531-20.6875 2.898438-2.300781-32.875004-55.570313-40.242184-77.312504-40.066404-54.0664.4375-85.61328 20.402341-109.40625 39.890622-12.30468 10.078125-27.88671 18.308594-41.32812 18.308594l-1.81641-4.019531c-1.13672-2.515625-2.63672-5.261719 2.53125-5.4375 4.89063-.167969 8.51563-.351563 8.51563-.351563l-3.53906-9.902343-48.875.144531 3.20703 9.578125c0 0 9.60937-.121094 11.15234 3.84375 0 0 11.55859 27.734375 17.25391 44.324219 1.64453 4.796875-10.13672 4.257812-10.13672 4.257812l3.55859 9.808594 43.71875-.160156c15.29688-.527344 25.65235-3.507813 31.63672-10.875 4.78516-5.890625 4.78516-11.617188 4.78516-13.613282 0-8.667968-12.14844-20.394531-27.80078-21.621093 2.98437-1.441407 10.33203-6.496094 15.52343-12.394532 20.54297-23.351562 50.74219-37.574218 90.20313-36.347656 20.253904.628906 60.050779 5.515625 60.050779 31.027344 0 1.992187-.90625 9.5-3.789063 16.484375l22.300782.324219c5.601562-10.769532 14.636718-14.878907 26.011718-14.878907 5.886719 0 14.039063 2.757813 14.039063 7.542969 0 10.363281-35.777344 17.894531-35.777344 36.03125 0 12.457031 15.527344 20.25 31.734375 20.14062525zm-114.72266-1.61328125l44.578129-.167969c9.414062.074219 24.800781-2.984375 31.777344-11.410156 2.824218-3.410156 3.972656-9.777344 3.910156-11.769531-.507813-16.433594-19.222656-24.730469-44.195313-24.472657l-16.46875-.132812c0 0-5.609376-11.664063-3.398437-13.347656 1.4375-1.09375 6.058594-.507813 11.050781-.800782l-3.511719-9.804687-48.863281.113281 3.26563 9.601563c2.73437.167968 4.94921.390625 6.79296.628906 2.40625.3125 3.74219 1.945312 5.12891 5.066406l16.60547 42.347656c1.76172 4.488282-2.03516 4.125-10.20313 4.257813zm-116.95703-10.730469c9.15625 0 11.66797-6.390625 11.61328-10.078125-.13671-9.570312-8.16015-16.660156-20.58984-16.660156h-8.49219l10.32032 24.632812c.95703 2.546875 4.53515 2.105469 7.14843 2.105469zm157.96094.191406c9.359375-.648437 11.910156-6.527343 11.910156-10.214843 0-9.566407-7.316406-16.335938-20.414062-16.59375l-8.804688-.121094 9.824219 23.976562c1.359375 3.339844 4.878906 3.132813 7.484375 2.953125zm-83.58984-12.679687c16.08593 0 27.58203-9.546875 27.58203-20.210938 0-18.933593-21.4961-29.253906-42.38281-29.382812-17.12891-.105469-29.16407 10.582031-28.3711 22.011719.67969 9.851562 7.16016 18.898437 23.60938 24.863281 8.08984 2.929687 16.94922 2.71875 19.5625 2.71875zm.17187-8.945313c4.87891-.722656 4.21485-6.730468 4.21485-7.230468 0-4.78125-6.80469-24.59375-17.65625-24.371094-6.29297.128906-6.85157 3.714844-6.97266 5.703125-.34375 5.574219 6.46484 27.972656 20.41406 25.898437zm0 0" fill="none" stroke="#1966ba" stroke-miterlimit="3.86400008" stroke-width="17.00799942" transform="matrix(1 0 0 -1 426.9067 384.558)"/>
      <path id="path34" d="m426.90625 384.55859c7.32422.0469 17.26953 1.29297 22.5625 4.625l4.14453-3.85547 12.42578.17579-2.99219 23.40625-12.19531.17578c-2.48828-6.85157-9.4375-13.58985-19.21094-13.76172-2.74609-.0508-13.80859-.17578-13.80859 5.6914 0 7.97266 37.16016 18.21485 37.16016 35.15625 0 17.33985-20.12891 22.53125-33.83985 23.32422-3.76953.21875-13.67578-.26953-20.6875-2.89843-2.30078 32.875-55.57031 40.24218-77.3125 40.0664-54.0664-.4375-85.61328-20.40234-109.40625-39.89062-12.30468-10.07813-27.88672-18.3086-41.32812-18.3086l-1.81641 4.01953c-1.13672 2.51563-2.63672 5.26172 2.53125 5.4375 4.89063.16797 8.51563.35157 8.51563.35157l-3.53907 9.90234-48.875-.14453 3.20704-9.57813c0 0 9.60937.1211 11.15234-3.84375 0 0 11.55859-27.73437 17.25391-44.32421 1.64453-4.79688-10.13672-4.25782-10.13672-4.25782l3.55859-9.80859 43.71875.16016c15.29688.52734 25.65234 3.50781 31.63672 10.875 4.78516 5.89062 4.78516 11.61718 4.78516 13.61328 0 8.66797-12.14844 20.39453-27.80079 21.62109 2.98438 1.44141 10.33204 6.49609 15.52344 12.39453 20.54297 23.35156 50.74219 37.57422 90.20313 36.34766 20.2539-.62891 60.05078-5.51563 60.05078-31.02735 0-1.99218-.90625-9.5-3.78906-16.48437l22.30078-.32422c5.60156 10.76953 14.63672 14.87891 26.01172 14.87891 5.88671 0 14.03906-2.75782 14.03906-7.54297 0-10.36328-35.77735-17.89453-35.77735-36.03125 0-12.45703 15.52735-20.25 31.73438-20.14063m-114.72266 1.61328l44.57813.16797c9.41406-.0742 24.80078 2.98438 31.77734 11.41016 2.82422 3.41016 3.97266 9.77734 3.91016 11.76953-.50781 16.43359-19.22266 24.73047-44.19531 24.47266l-16.46875.13281c0 0-5.60938 11.66406-3.39844 13.34766 1.4375 1.09375 6.05859.50781 11.05078.80078l-3.51172 9.80468-48.86328-.11328 3.26562-9.60156c2.73438-.16797 4.94922-.39062 6.79297-.62891 2.40625-.3125 3.74219-1.94531 5.12891-5.0664l16.60547-42.34766c1.76172-4.48828-2.03516-4.125-10.20313-4.25781zm-116.95703 10.73047c9.15625 0 11.66797 6.39063 11.61328 10.07813-.13672 9.57031-8.16015 16.66015-20.58984 16.66015h-8.49219l10.32031-24.63281c.95704-2.54687 4.53516-2.10547 7.14844-2.10547m157.96094-.1914c9.35937.64843 11.91016 6.52734 11.91016 10.21484 0 9.56641-7.31641 16.33594-20.41407 16.59375l-8.80468.12109 9.82421-23.97656c1.35938-3.33984 4.87891-3.13281 7.48438-2.95312m-83.58984 12.67968c16.08593 0 27.58203 9.54688 27.58203 20.21094 0 18.9336-21.4961 29.25391-42.38282 29.38281-17.1289.10547-29.16406-10.58203-28.37109-22.01171.67969-9.85157 7.16016-18.89844 23.60938-24.86329 8.08984-2.92968 16.94921-2.71875 19.5625-2.71875m.17187 8.94532c4.87891.72265 4.21484 6.73047 4.21484 7.23047 0 4.78125-6.80468 24.59375-17.65625 24.37109-6.29296-.12891-6.85156-3.71484-6.97265-5.70313-.34375-5.57421 6.46484-27.97265 20.41406-25.89843" fill="#fff" fill-rule="evenodd"/>
   </g>
</svg>
