<?xml version="1.0" encoding="utf-8"?>
<!-- Generator: Adobe Illustrator 13.0.0, SVG Export Plug-In . SVG Version: 6.00 Build 14948)  -->
<!DOCTYPE svg PUBLIC "-//W3C//DTD SVG 1.0//EN" "http://www.w3.org/TR/2001/REC-SVG-20010904/DTD/svg10.dtd">
<svg version="1.0" id="Ebene_1" xmlns="http://www.w3.org/2000/svg" xmlns:xlink="http://www.w3.org/1999/xlink" x="0px" y="0px"
	 width="230.516747104" height="433.807960836" viewBox="0 0 244.398 459.931" enable-background="new 0 0 244.398 459.931"
	 xml:space="preserve">
<path d="M243.451,134.167h-1.168h-51.048c1.099-0.416,2.022-1.276,2.439-2.471c0.741-2.133-0.389-4.472-2.519-5.218
	c-0.203-0.07-1.661-0.563-4.518-1.248l7.583-3.958l-4.334-5.418c1.265,0.287,1.941,0.465,1.978,0.476
	c2.178,0.6,4.439-0.684,5.042-2.863c0.417-1.509-0.085-3.048-1.15-4.057l2.243-1.448c0,0,1.261,5.359,7.884,2.521
	c0.208-0.088,0.374-0.192,0.563-0.287c2.702-0.679,4.716-3.109,4.716-6.019c0-1.82-0.798-3.443-2.049-4.582
	c0.537-0.954,1.172-2.378,1.814-4.562c0.339-1.155,0.519-3.116,0.588-5.479c3.071-0.935,5.325-3.762,5.325-7.134
	c0-3.265-2.11-6.017-5.029-7.038c4.01-0.138,7.234-3.421,7.234-7.466c0-4.128-3.358-7.487-7.487-7.487
	c-0.567,0-1.117,0.076-1.651,0.198c1.59-1.497,2.594-3.603,2.594-5.954c0-4.52-3.675-8.198-8.197-8.198
	c-2.396,0-4.538,1.053-6.038,2.699c-0.241-4.307-3.787-7.744-8.151-7.744c-4.371,0-7.922,3.448-8.152,7.763l-0.158-0.029
	c-0.533-3.477-3.516-6.156-7.14-6.156c-2.604,0-4.876,1.396-6.153,3.465c0.293-0.788,0.477-1.63,0.477-2.519
	c0-3.998-3.254-7.251-7.253-7.251c-3.817,0-6.925,2.979-7.195,6.727c-1.303-1.958-3.524-3.261-6.047-3.261
	c-1.659,0-3.172,0.584-4.394,1.525l-3.028-0.875l-0.2-1.862c0,0-0.69-1.224-2.023-1.409c-1.33-0.188-2.806,1.023-2.806,1.023
	s-0.148,0.315-0.327,0.699l-0.324-0.093c-0.351-4.687-3.145-8.699-7.117-10.761c-0.487-2.431-1.881-9.416-2.135-10.677
	c1.349-0.305,6.502-1.478,6.502-1.478l0.572-10.249c0,0-4.87,1.77-6.681,2.428c0.063-0.257,2.001-8.44,2.001-8.44h-6.334h-6.335
	c0,0,1.939,8.183,2,8.44c-1.809-0.658-6.68-2.428-6.68-2.428l0.571,10.249c0,0,5.154,1.173,6.503,1.478
	c-0.253,1.261-1.648,8.246-2.135,10.677c-3.973,2.062-6.766,6.074-7.117,10.761l-0.323,0.093c-0.18-0.384-0.327-0.699-0.327-0.699
	s-1.476-1.211-2.807-1.023c-1.332,0.185-2.023,1.409-2.023,1.409l-0.198,1.862l-3.029,0.875c-1.221-0.941-2.734-1.525-4.394-1.525
	c-2.523,0-4.745,1.303-6.045,3.261c-0.272-3.749-3.38-6.727-7.198-6.727c-3.999,0-7.252,3.253-7.252,7.251
	c0,0.889,0.183,1.731,0.477,2.519c-1.278-2.069-3.548-3.465-6.154-3.465c-3.623,0-6.606,2.679-7.14,6.156l-0.157,0.029
	c-0.229-4.315-3.78-7.763-8.152-7.763c-4.365,0-7.91,3.438-8.151,7.744c-1.5-1.646-3.641-2.699-6.038-2.699
	c-4.521,0-8.197,3.678-8.197,8.198c0,2.351,1.005,4.458,2.595,5.954c-0.534-0.122-1.084-0.198-1.652-0.198
	c-4.129,0-7.487,3.358-7.487,7.487c0,4.045,3.226,7.329,7.235,7.466c-2.918,1.021-5.03,3.773-5.03,7.038
	c0,3.372,2.255,6.199,5.325,7.134c0.072,2.363,0.249,4.325,0.589,5.479c0.643,2.184,1.277,3.608,1.814,4.562
	c-1.251,1.139-2.049,2.762-2.049,4.582c0,2.91,2.014,5.34,4.716,6.019c0.188,0.095,0.354,0.199,0.562,0.287
	c6.623,2.838,7.884-2.521,7.884-2.521l2.243,1.448c-1.064,1.008-1.566,2.547-1.149,4.057c0.603,2.179,2.863,3.462,5.041,2.863
	c0.037-0.01,0.712-0.189,1.978-0.476l-4.334,5.418l7.583,3.958c-2.857,0.685-4.314,1.178-4.519,1.248
	c-2.129,0.746-3.259,3.084-2.519,5.218c0.418,1.195,1.34,2.055,2.438,2.471H2.116H0.946H0l0.015,279.756l0.104,0.579
	c0.134,0.766,3.525,18.865,22.077,23.225c7.719,1.818,24.186,2.024,41.721,2.237c14.957,0.19,31.905,0.4,37.102,1.785
	c11.708,3.12,21.181,18.182,21.181,18.182s9.473-15.062,21.181-18.182c5.197-1.385,22.144-1.595,37.101-1.785
	c17.537-0.213,34.002-0.419,41.721-2.237c18.552-4.36,21.943-22.459,22.078-23.225l0.104-0.579l0.015-279.756H243.451z
	 M141.242,72.647c0,0,12.297-0.947,15.766,1.892c6.896,5.644,5.015,22.858,4.124,28.829c-0.005-0.001-0.011-0.001-0.018-0.001
	c-3.129-0.292-6.471-0.558-10.029-0.79c-0.004-0.002-0.008-0.002-0.013-0.002c-3.568-0.233-7.348-0.433-11.344-0.587L141.242,72.647
	z M87.39,74.539c3.469-2.839,15.766-1.892,15.766-1.892l1.513,29.341c-3.996,0.154-7.775,0.354-11.344,0.587
	c-0.004,0-0.008,0-0.012,0.002c-3.559,0.232-6.901,0.498-10.029,0.79c-0.006,0-0.013,0-0.018,0.001
	C82.375,97.397,80.494,80.183,87.39,74.539z"/>
<path fill="#FFE500" d="M242.387,136.177c0,3.961-0.013,277.214-0.013,277.568c-0.032,0.17-0.074,0.403-0.074,0.403
	c-0.125,0.72-3.277,17.561-20.557,21.622c-7.523,1.773-23.924,1.974-41.286,2.186c-0.001,0-0.199,0.002-0.199,0.002
	c-15.722,0.2-31.98,0.407-37.396,1.85c-9.476,2.526-17.338,12.023-20.663,16.586c-3.325-4.563-11.187-14.06-20.664-16.586
	c-5.415-1.442-21.672-1.649-37.395-1.85l-0.198-0.002c-17.363-0.212-33.764-0.413-41.286-2.186
	c-17.282-4.061-20.433-20.902-20.559-21.615c0,0-0.042-0.237-0.072-0.409c0-0.354-0.015-273.607-0.015-277.568
	C2.027,136.177,242.37,136.177,242.387,136.177z"/>
<path d="M237.581,140.983c-9.045,0-221.721,0-230.765,0c0,2.904,0.001,30.833,0.003,67.785h230.757
	C237.579,171.817,237.581,143.887,237.581,140.983z"/>
<path d="M237.566,413.321c-0.105,0.593-2.718,14.431-16.928,17.77c-7.007,1.652-23.9,1.859-40.22,2.059l-0.25,0.002
	c-19.664,0.251-32.971,0.526-38.543,2.012c-8.016,2.136-14.798,8.233-19.426,13.532c-4.626-5.299-11.406-11.396-19.424-13.532
	c-5.576-1.486-18.881-1.761-38.598-2.012c0,0-0.235-0.002-0.183-0.002c-16.335-0.2-33.229-0.407-40.239-2.059
	C9.576,427.76,6.949,413.979,6.829,413.307c0-0.577-0.005-120.164-0.009-200.727h230.757
	C237.573,293.153,237.566,412.761,237.566,413.321z"/>
<path fill="#FFE500" d="M204.303,48.368c3.478,0,6.307,2.828,6.307,6.306c0,3.477-2.829,6.308-6.307,6.308
	c-3.476,0-6.306-2.831-6.306-6.308C197.998,51.196,200.827,48.368,204.303,48.368z"/>
<path fill="#FFE500" d="M199.338,67.515c-0.699-2.333-3.39-6.134-9.045-5.597c-1.04,0.101-1.963-0.663-2.061-1.704
	c-0.101-1.039,0.664-1.962,1.702-2.063c8.093-0.769,11.999,4.841,13.03,8.277c1.379,4.602-3.172,20.36-4.099,23.472
	c-0.3,1-1.352,1.571-2.354,1.272c-1.002-0.297-1.57-1.351-1.272-2.351C197.409,81.529,200.116,70.101,199.338,67.515z"/>
<path fill="#FFE500" d="M180.027,93.597c-1.534-0.448-2.688,0.098-4.179,0.098c-3.206,0-5.271-3.077-4.317-6.07
	c0.445-1.399,2.011-2.445,3.449-1.889c1.538,0.599,2.471,2.066,3.486,3.286c1.222,1.464,2.679,1.206,4.4,0.951
	c0.758-0.113,1.383-0.214,2.125,0.113c0.443,0.197,1.103,1.401,1.103,1.401c0.179,1.226-0.805,2.221-1.969,2.701
	C182.621,94.806,181.426,94.008,180.027,93.597z"/>
<path fill="#FFE500" d="M182.23,100.079c0,2.957-2.403,5.36-5.358,5.36c-2.957,0-5.36-2.404-5.36-5.36c0-2.953,2.404-5.36,5.36-5.36
	C179.828,94.719,182.23,97.125,182.23,100.079z"/>
<path fill="#FFE500" d="M175.612,78.322c0-2.954,2.403-5.359,5.36-5.359c2.955,0,5.359,2.405,5.359,5.359
	c0,2.956-2.404,5.359-5.359,5.359C178.015,83.681,175.612,81.278,175.612,78.322z"/>
<path fill="#FFE500" d="M184.125,96.927c0,0,2.993,0.177,4.14-2.651c0.831-2.054,0.367-4.147-0.626-5.637
	c-1.309-1.96-5.879-1.804-5.879-1.804c2.837,0,7.566-2.994,6.113-7.864l0.705,0.271c0,0,8.769,4.386,1.879,18.479
	c0,0-2.864,8.033-3.81,9.612c0,0-2.836-0.633-4.414-0.947C182.233,106.386,187.595,99.133,184.125,96.927z"/>
<path fill="#FFE500" d="M190.114,43.322c3.478,0,6.305,2.831,6.305,6.307c0,3.477-2.827,6.306-6.305,6.306
	c-3.476,0-6.306-2.829-6.306-6.306C183.809,46.153,186.638,43.322,190.114,43.322z"/>
<path fill="#FFE500" d="M186.96,62.873c0,2.955-2.403,5.36-5.358,5.36c-2.955,0-5.361-2.405-5.361-5.36
	c0-2.956,2.406-5.359,5.361-5.359C184.557,57.514,186.96,59.917,186.96,62.873z"/>
<path fill="#FFE500" d="M174.665,44.901c2.958,0,5.362,2.406,5.362,5.359c0,2.957-2.404,5.361-5.362,5.361
	c-2.956,0-5.358-2.404-5.358-5.361C169.307,47.307,171.709,44.901,174.665,44.901z"/>
<path fill="#FFE500" d="M161.735,38.595c2.958,0,5.36,2.403,5.36,5.36c0,2.954-2.402,5.36-5.36,5.36
	c-2.955,0-5.358-2.406-5.358-5.36C156.377,40.998,158.781,38.595,161.735,38.595z"/>
<path fill="#FFE500" d="M148.493,42.062c2.958,0,5.36,2.406,5.36,5.361c0,2.956-2.402,5.358-5.36,5.358
	c-2.955,0-5.359-2.402-5.359-5.358C143.134,44.468,145.538,42.062,148.493,42.062z"/>
<path fill="#FFE500" d="M141.063,60.217c0.497-0.235,12.213-5.774,16.466-6.755c4.971-1.147,8.985,0.862,10.932,2.162
	c2.607,1.735,4.267,4.931,5.226,10.054c1,5.323-4.456,25.105-5.083,27.344c-0.281,1.007-1.324,1.595-2.333,1.313
	c-1.004-0.282-1.592-1.325-1.31-2.33c2.27-8.128,5.637-22.271,5.009-25.629c-0.751-3.999-1.931-6.484-3.606-7.604
	c-1.445-0.961-4.399-2.449-7.986-1.621c-3.198,0.737-12.414,4.932-15.696,6.486c-0.945,0.447-2.071,0.044-2.518-0.9
	C139.716,61.792,140.118,60.665,141.063,60.217z"/>
<path fill="#FFE500" d="M136.671,40.739c0.032-0.782,0.695-1.39,1.48-1.356c0.784,0.035,1.39,0.698,1.353,1.48l-1.896,42.874
	l-1.423-0.593c-0.058-0.024-0.584-0.241-1.369-0.511L136.671,40.739z"/>
<path fill="#FFE500" d="M109.932,90.556c0.035,0.785-0.571,1.448-1.354,1.483c-0.782,0.033-1.446-0.573-1.479-1.355l-0.281-6.351
	l0.612,1.088c0.067,0.118,0.899,1.567,2.408,2.995L109.932,90.556z"/>
<path fill="#FFE500" d="M112.741,64.764c0-5.213,4.243-9.457,9.458-9.458c5.216,0.001,9.458,4.245,9.458,9.458
	c0,0.293-0.019,0.582-0.043,0.869c-2.041-3.024-5.5-5.017-9.415-5.017c-3.914,0-7.373,1.993-9.414,5.017
	C112.759,65.346,112.741,65.058,112.741,64.764z"/>
<path fill="#FFE500" d="M111.21,42.962h10.989h10.989c-1.25,4.91-5.696,8.56-10.989,8.56
	C116.905,51.521,112.46,47.872,111.21,42.962z"/>
<path fill="#FFE500" d="M127.556,95.666c0,2.955-2.402,5.356-5.357,5.358c-2.956-0.002-5.357-2.403-5.357-5.358
	c0-1.983,1.095-3.699,2.701-4.626c0.528-0.304,1.104-0.53,1.725-0.64c0.304-0.054,0.613-0.094,0.932-0.094
	c0.318,0,0.626,0.04,0.931,0.094c0.622,0.11,1.198,0.335,1.726,0.64C126.461,91.967,127.556,93.682,127.556,95.666z"/>
<path fill="#FFE500" d="M112.785,71.1c0.088-0.959,0.319-1.878,0.671-2.734c1.419-3.434,4.802-5.857,8.742-5.858
	c3.94,0.001,7.323,2.425,8.742,5.858c0.354,0.855,0.584,1.774,0.673,2.734c0.025,0.286,0.043,0.574,0.043,0.867
	c0,5.215-4.242,9.458-9.458,9.459c-5.215-0.001-9.458-4.244-9.458-9.459C112.741,71.674,112.759,71.386,112.785,71.1z"/>
<path fill="#FFE500" d="M126.154,89.604c-0.789-0.517-1.683-0.88-2.644-1.057c-0.24-0.441-0.241-1.011-0.241-1.711
	c0-1.891,2.837-3.783,5.676-3.783c2.025,0,4.527,0.802,5.797,1.263c0.508,0.185,0.825,0.315,0.825,0.315s-0.314,0.551-0.897,1.284
	c-1.184,1.495-3.5,3.759-6.673,3.759C127.273,89.673,126.674,89.648,126.154,89.604z"/>
<path fill="#FFE500" d="M115.453,83.052c2.838,0,5.675,1.892,5.675,3.783c0,0.701-0.001,1.271-0.24,1.711
	c-0.961,0.177-1.856,0.541-2.645,1.057c-0.519,0.045-1.12,0.069-1.843,0.069c-3.172,0-5.489-2.264-6.673-3.759
	c-0.583-0.733-0.896-1.284-0.896-1.284s0.317-0.131,0.825-0.315C110.925,83.854,113.427,83.052,115.453,83.052z"/>
<path fill="#FFE500" d="M134.561,88.415c1.508-1.428,2.341-2.877,2.408-2.995l0.612-1.088l-0.282,6.351
	c-0.033,0.782-0.696,1.388-1.479,1.355c-0.783-0.035-1.389-0.698-1.355-1.483L134.561,88.415z"/>
<path fill="#FFE500" d="M132.816,60.787L132.816,60.787c-0.239-0.634-0.532-1.242-0.876-1.817c-0.002-0.005-0.006-0.011-0.01-0.017
	c-0.34-0.569-0.728-1.106-1.158-1.605c-0.011-0.012-0.023-0.024-0.033-0.037c-0.431-0.495-0.903-0.955-1.414-1.369
	c-0.003-0.002-0.004-0.003-0.006-0.006c-0.518-0.419-1.075-0.795-1.662-1.119c2.417-1.35,4.9-3.336,6.017-6.134
	C133.674,48.684,135.734,54.919,132.816,60.787z"/>
<path fill="#FFE500" d="M133.188,37.379c-1.354,0-6.241,0-8.199,0c0-1.957,0-6.846,0-8.198
	C129.007,30.201,132.167,33.363,133.188,37.379z"/>
<path fill="#FFE500" d="M126.528,8.354c0,0-0.004,0.048-0.012,0.092C126.516,8.437,126.528,8.354,126.528,8.354z"/>
<path fill="#FFE500" d="M117.881,8.446c-0.007-0.044-0.011-0.092-0.011-0.092S117.881,8.437,117.881,8.446z"/>
<path fill="#FFE500" d="M113.567,14.732c-0.054-0.957-0.238-4.229-0.335-5.962c1.735,0.63,6.921,2.517,6.921,2.517l-0.397-3.027
	c-0.015-0.1-1.005-4.278-1.5-6.369c0.794,0,2.4,0,3.943,0c1.544,0,3.148,0,3.944,0c-0.495,2.091-1.485,6.269-1.5,6.369l-0.398,3.027
	c0,0,5.185-1.887,6.92-2.517c-0.097,1.734-0.28,5.006-0.334,5.962c-1.115,0.253-6.908,1.57-6.908,1.57s1.847,9.233,2.213,11.067
	c-0.792,0-2.364,0-3.938,0c-1.573,0-3.146,0-3.937,0c0.367-1.833,2.212-11.067,2.212-11.067S114.682,14.985,113.567,14.732z"/>
<path fill="#FFE500" d="M119.408,29.182c0,1.352,0,6.241,0,8.198c-1.957,0-6.844,0-8.198,0
	C112.231,33.363,115.392,30.201,119.408,29.182z"/>
<path fill="#FFE500" d="M110.911,38.989h10.107V28.88c0.39-0.038,0.782-0.059,1.18-0.059c0.398,0,0.791,0.021,1.18,0.059v10.109
	h10.107c0.041,0.387,0.063,0.783,0.063,1.18c0,0.4-0.022,0.794-0.063,1.184h-11.287h-11.288c-0.04-0.39-0.063-0.784-0.063-1.184
	C110.849,39.772,110.872,39.376,110.911,38.989z"/>
<path fill="#FFE500" d="M110.724,48.684c1.117,2.798,3.6,4.784,6.017,6.134c-0.587,0.324-1.144,0.699-1.662,1.119
	c-0.001,0.003-0.003,0.004-0.006,0.006c-0.511,0.415-0.982,0.874-1.415,1.369c-0.01,0.013-0.022,0.024-0.032,0.037
	c-0.431,0.499-0.819,1.036-1.159,1.605c-0.003,0.006-0.006,0.011-0.01,0.017c-0.342,0.575-0.636,1.183-0.875,1.818v-0.001
	C108.663,54.919,110.724,48.684,110.724,48.684z"/>
<path fill="#FFE500" d="M106.247,39.383c0.784-0.034,1.447,0.574,1.48,1.356l1.855,41.895c-0.785,0.27-1.312,0.486-1.369,0.511
	l-1.422,0.593l-1.898-42.874C104.857,40.081,105.462,39.418,106.247,39.383z"/>
<path fill="#FFE500" d="M95.905,42.062c2.955,0,5.359,2.406,5.359,5.361c0,2.956-2.404,5.358-5.359,5.358
	c-2.957,0-5.361-2.402-5.361-5.358C90.544,44.468,92.948,42.062,95.905,42.062z"/>
<path fill="#FFE500" d="M82.662,38.595c2.955,0,5.359,2.403,5.359,5.36c0,2.954-2.404,5.36-5.359,5.36
	c-2.957,0-5.36-2.406-5.36-5.36C77.301,40.998,79.705,38.595,82.662,38.595z"/>
<path fill="#FFE500" d="M75.936,55.623c1.949-1.3,5.963-3.309,10.933-2.162c4.251,0.981,15.969,6.521,16.465,6.755
	c0.945,0.448,1.347,1.575,0.901,2.52c-0.448,0.944-1.575,1.347-2.52,0.9c-3.282-1.554-12.499-5.749-15.696-6.486
	c-3.587-0.828-6.542,0.66-7.985,1.621c-1.676,1.119-2.856,3.604-3.607,7.604c-0.628,3.359,2.739,17.501,5.01,25.629
	c0.281,1.004-0.307,2.048-1.311,2.33c-1.009,0.282-2.053-0.305-2.333-1.313C75.167,90.783,69.712,71,70.711,65.677
	C71.671,60.554,73.331,57.358,75.936,55.623z"/>
<path fill="#FFE500" d="M68.549,93.694c-1.49,0-2.646-0.546-4.178-0.098c-1.399,0.411-2.595,1.209-4.099,0.591
	c-1.164-0.48-2.148-1.475-1.969-2.701c0,0,0.66-1.204,1.103-1.401c0.742-0.328,1.367-0.227,2.125-0.113
	c1.721,0.254,3.179,0.513,4.4-0.951c1.016-1.22,1.948-2.688,3.486-3.286c1.438-0.557,3.004,0.49,3.45,1.889
	C73.821,90.617,71.756,93.694,68.549,93.694z"/>
<path fill="#FFE500" d="M72.885,100.079c0,2.957-2.403,5.36-5.36,5.36c-2.955,0-5.358-2.404-5.358-5.36
	c0-2.953,2.403-5.36,5.358-5.36C70.482,94.719,72.885,97.125,72.885,100.079z"/>
<path fill="#FFE500" d="M49.158,88.821c0.299,1-0.271,2.054-1.273,2.351c-1.002,0.299-2.053-0.272-2.353-1.272
	c-0.928-3.112-5.479-18.87-4.1-23.472c1.032-3.437,4.938-9.046,13.03-8.277c1.04,0.101,1.802,1.024,1.702,2.063
	c-0.098,1.041-1.021,1.804-2.061,1.704c-5.655-0.537-8.347,3.265-9.045,5.597C44.281,70.101,46.989,81.529,49.158,88.821z"/>
<path fill="#FFE500" d="M55.818,79.242l0.706-0.271c-1.455,4.87,3.275,7.864,6.113,7.864c0,0-4.57-0.156-5.879,1.804
	c-0.993,1.489-1.457,3.583-0.626,5.637c1.146,2.828,4.14,2.651,4.14,2.651c-3.469,2.206,1.893,9.458,1.893,9.458
	c-1.578,0.314-4.414,0.947-4.414,0.947c-0.946-1.579-3.811-9.612-3.811-9.612C47.05,83.628,55.818,79.242,55.818,79.242z"/>
<path fill="#FFE500" d="M58.067,78.322c0-2.954,2.404-5.359,5.359-5.359c2.957,0,5.36,2.405,5.36,5.359
	c0,2.956-2.403,5.359-5.36,5.359C60.471,83.681,58.067,81.278,58.067,78.322z"/>
<path fill="#FFE500" d="M69.732,44.901c2.956,0,5.359,2.406,5.359,5.359c0,2.957-2.403,5.361-5.359,5.361
	c-2.957,0-5.361-2.404-5.361-5.361C64.371,47.307,66.775,44.901,69.732,44.901z"/>
<path fill="#FFE500" d="M62.796,57.514c2.955,0,5.36,2.403,5.36,5.359c0,2.955-2.405,5.36-5.36,5.36
	c-2.957,0-5.359-2.405-5.359-5.36C57.438,59.917,59.84,57.514,62.796,57.514z"/>
<path fill="#FFE500" d="M54.283,43.322c3.476,0,6.306,2.831,6.306,6.307c0,3.477-2.83,6.306-6.306,6.306
	c-3.477,0-6.305-2.829-6.305-6.306C47.978,46.153,50.806,43.322,54.283,43.322z"/>
<path fill="#FFE500" d="M33.788,54.674c0-3.478,2.83-6.306,6.306-6.306c3.478,0,6.306,2.828,6.306,6.306
	c0,3.477-2.829,6.308-6.306,6.308C36.617,60.981,33.788,58.15,33.788,54.674z"/>
<path fill="#FFE500" d="M27.082,67.917c0-3.175,2.583-5.759,5.758-5.759c3.176,0,5.761,2.583,5.761,5.759
	c0,3.177-2.585,5.764-5.761,5.764C29.665,73.681,27.082,71.094,27.082,67.917z"/>
<path fill="#FFE500" d="M29.287,82.421c0-3.176,2.583-5.761,5.759-5.761c3.177,0,5.762,2.585,5.762,5.761
	c0,3.177-2.584,5.764-5.762,5.764C31.87,88.185,29.287,85.599,29.287,82.421z"/>
<path fill="#FFE500" d="M35.03,94.493c0,0-0.812-1.217,0-2.636c0,0,4.055-2.837,8.111-2.634c0,0,3.242,4.258,1.215,6.893
	C44.355,96.116,37.869,93.276,35.03,94.493z"/>
<path fill="#FFE500" d="M39.461,108.675c-2.479,0-4.494-2.017-4.494-4.497c0-2.478,2.015-4.495,4.494-4.495
	c2.48,0,4.495,2.017,4.495,4.495C43.957,106.659,41.942,108.675,39.461,108.675z"/>
<path fill="#FFE500" d="M46.49,105.553c0,0,0.55-3.354-0.495-4.62c-1.046-1.265-5.722-4.896-9.408-2.036
	c0,0-1.157-1.264-1.267-3.244c0,0,5.834,0,9.792,3.079c0,0,2.309-4.676,1.486-5.831c0,0,2.861,1.156,3.577-1.649
	c0,0,4.675,14.521,5.776,16.501c0,0-3.96,0.771-4.622,0.991C51.33,108.744,46.765,105.719,46.49,105.553z"/>
<path fill="#FFE500" d="M187.246,122.245c-0.007,0.004-0.015,0.008-0.024,0.012c-0.646,0.339-1.237,0.646-1.659,0.866
	c-0.713-1.122-2.265-3.561-3.113-4.894c1.361-0.648,3.549-1.689,4.568-2.175c0.285,0.356,0.732,0.917,1.232,1.542
	c0.013,0.017,0.029,0.035,0.042,0.052c0.772,0.966,1.663,2.079,2.286,2.858C189.662,120.984,188.368,121.659,187.246,122.245z"/>
<path fill="#FFE500" d="M179.021,117.244l4.699,7.384c-2.454-0.461-6.421-1.154-11.612-1.888c1.672-1.045,2.795-2.889,2.795-5.003
	c0-1.796-0.822-3.389-2.092-4.473c4.568,0.638,8.257,1.254,10.922,1.737L179.021,117.244z"/>
<path fill="#FFE500" d="M168.989,121.285c-1.955,0-3.546-1.591-3.546-3.548c0-1.955,1.591-3.547,3.546-3.547
	c1.957,0,3.548,1.592,3.548,3.547C172.538,119.693,170.946,121.285,168.989,121.285z"/>
<path fill="#FFE500" d="M163.077,117.736c0,1.568,0.625,2.985,1.623,4.045c-3.858-0.456-8.145-0.896-12.794-1.276l9.804-4.901
	l-7.685-4.434c4.506,0.381,8.655,0.816,12.401,1.265C164.452,113.394,163.077,115.399,163.077,117.736z"/>
<path fill="#FFE500" d="M150.477,118.576c-0.749-0.509-3.627-2.466-5.552-3.774c2.12-0.942,5.294-2.354,6.022-2.677
	c0.688,0.396,3.713,2.143,5.771,3.331C154.559,116.536,151.292,118.168,150.477,118.576z"/>
<path fill="#FFE500" d="M140.081,114.367l8.67,5.894c-6.09-0.442-12.736-0.771-19.809-0.893c1.812-0.838,3.078-2.661,3.078-4.785
	c0-2.042-1.178-3.797-2.879-4.675c6.812,0.115,13.218,0.414,19.124,0.82L140.081,114.367z"/>
<path fill="#FFE500" d="M126.74,111.668c1.607,0,2.917,1.309,2.917,2.916c0,1.609-1.31,2.918-2.917,2.918h-4.541h-4.541
	c-1.608,0-2.917-1.309-2.917-2.918c0-1.607,1.309-2.916,2.917-2.916h4.541H126.74z"/>
<path fill="#FFE500" d="M112.377,114.584c0,2.124,1.267,3.946,3.078,4.785c-7.072,0.122-13.719,0.45-19.809,0.893l8.669-5.894
	l-8.183-3.638c5.905-0.406,12.312-0.705,19.124-0.82C113.556,110.787,112.377,112.542,112.377,114.584z"/>
<path fill="#FFE500" d="M99.472,114.801c-1.923,1.308-4.802,3.266-5.55,3.774c-0.816-0.407-4.082-2.04-6.243-3.121
	c2.059-1.188,5.085-2.934,5.773-3.331C94.178,112.448,97.352,113.859,99.472,114.801z"/>
<path fill="#FFE500" d="M82.689,115.604l9.804,4.901c-4.651,0.38-8.937,0.82-12.795,1.276c0.999-1.06,1.622-2.477,1.622-4.045
	c0-2.337-1.374-4.342-3.348-5.301c3.747-0.449,7.895-0.884,12.401-1.265L82.689,115.604z"/>
<path fill="#FFE500" d="M75.408,114.189c1.956,0,3.546,1.592,3.546,3.547c0,1.957-1.591,3.548-3.546,3.548
	c-1.957,0-3.549-1.591-3.549-3.548C71.859,115.781,73.452,114.189,75.408,114.189z"/>
<path fill="#FFE500" d="M69.496,117.736c0,2.114,1.123,3.958,2.796,5.003c-5.193,0.734-9.159,1.426-11.612,1.888l4.698-7.384
	L60.666,115c2.665-0.482,6.353-1.099,10.922-1.737C70.318,114.348,69.496,115.94,69.496,117.736z"/>
<path fill="#FFE500" d="M57.151,122.245c-1.122-0.585-2.416-1.261-3.332-1.738c0.625-0.78,1.514-1.893,2.285-2.858
	c0.014-0.017,0.029-0.035,0.043-0.052c0.5-0.625,0.947-1.185,1.232-1.542c1.019,0.485,3.206,1.527,4.567,2.175
	c-0.848,1.333-2.399,3.772-3.113,4.894c-0.421-0.22-1.011-0.527-1.659-0.866C57.167,122.253,57.16,122.249,57.151,122.245z"/>
<path fill="#FFE500" d="M190.27,129.01c0.738,0.257,1.127,1.068,0.868,1.807c-0.256,0.739-1.065,1.131-1.805,0.872
	c-0.187-0.066-19.24-6.495-67.134-6.54c-47.894,0.045-66.946,6.474-67.134,6.54c-0.739,0.259-1.549-0.133-1.806-0.872
	c-0.258-0.738,0.13-1.55,0.868-1.807c0.78-0.273,19.585-6.655,68.072-6.699C170.686,122.355,189.492,128.737,190.27,129.01z"/>
<path fill="#FFE500" d="M194.32,112.755c-0.209,0.753-0.989,1.197-1.744,0.99c-0.239-0.066-24.307-6.553-70.377-6.571
	c-46.07,0.018-70.138,6.505-70.376,6.571c-0.756,0.207-1.535-0.237-1.745-0.99c-0.208-0.755,0.235-1.538,0.989-1.746
	c0.242-0.066,24.627-6.654,71.132-6.672c46.507,0.018,70.891,6.606,71.132,6.672C194.085,111.217,194.528,112,194.32,112.755z"/>
<path fill="#FFE500" d="M198.403,100.933c-1.046,1.266-0.497,4.62-0.497,4.62c-0.275,0.166-4.84,3.191-4.84,3.191
	c-0.662-0.22-4.623-0.991-4.623-0.991c1.103-1.98,5.777-16.501,5.777-16.501c0.715,2.805,3.576,1.649,3.576,1.649
	c-0.824,1.155,1.487,5.831,1.487,5.831c3.959-3.079,9.792-3.079,9.792-3.079c-0.109,1.98-1.266,3.244-1.266,3.244
	C204.125,96.036,199.449,99.667,198.403,100.933z"/>
<path fill="#FFE500" d="M209.43,104.178c0,2.48-2.015,4.497-4.493,4.497c-2.481,0-4.497-2.017-4.497-4.497
	c0-2.478,2.016-4.495,4.497-4.495C207.415,99.684,209.43,101.701,209.43,104.178z"/>
<path fill="#FFE500" d="M209.369,94.493c-2.838-1.217-9.326,1.623-9.326,1.623c-2.027-2.635,1.214-6.893,1.214-6.893
	c4.056-0.203,8.112,2.634,8.112,2.634C210.179,93.276,209.369,94.493,209.369,94.493z"/>
<path fill="#FFE500" d="M215.11,82.421c0,3.177-2.583,5.764-5.758,5.764c-3.178,0-5.761-2.586-5.761-5.764
	c0-3.176,2.583-5.761,5.761-5.761C212.526,76.661,215.11,79.246,215.11,82.421z"/>
<path fill="#FFE500" d="M211.557,73.681c-3.175,0-5.762-2.586-5.762-5.764c0-3.175,2.586-5.759,5.762-5.759
	c3.176,0,5.759,2.583,5.759,5.759C217.316,71.094,214.733,73.681,211.557,73.681z"/>
<path d="M95.905,52.119c2.589,0,4.697-2.107,4.697-4.696c0-1.84-1.085-3.52-2.765-4.28c-0.476-0.215-1.037-0.004-1.252,0.472
	c-0.215,0.476-0.004,1.037,0.472,1.251c1.004,0.455,1.652,1.458,1.652,2.557c0,1.546-1.257,2.804-2.804,2.804
	c-0.748,0-1.451-0.292-1.981-0.822c-0.37-0.369-0.969-0.369-1.338,0c-0.369,0.37-0.369,0.969,0,1.337
	C93.474,51.631,94.653,52.119,95.905,52.119z"/>
<path d="M69.735,54.958c2.59,0,4.697-2.107,4.697-4.697c0-1.839-1.085-3.519-2.764-4.279c-0.476-0.215-1.037-0.004-1.252,0.471
	s-0.004,1.037,0.472,1.252c1.004,0.454,1.653,1.458,1.653,2.556c0,1.547-1.258,2.805-2.805,2.805c-0.747,0-1.451-0.292-1.981-0.822
	c-0.37-0.37-0.969-0.37-1.338,0c-0.369,0.37-0.369,0.969,0,1.338C67.305,54.469,68.484,54.958,69.735,54.958z"/>
<path d="M82.662,48.651c2.59,0,4.696-2.107,4.696-4.697c0-1.839-1.084-3.519-2.762-4.279c-0.476-0.215-1.036-0.005-1.252,0.471
	c-0.216,0.476-0.004,1.035,0.471,1.252c1.003,0.454,1.651,1.458,1.651,2.556c0,1.547-1.257,2.804-2.804,2.804
	c-0.747,0-1.451-0.292-1.983-0.823c-0.37-0.369-0.968-0.367-1.337,0.002c-0.369,0.37-0.368,0.969,0.002,1.338
	C80.232,48.162,81.411,48.651,82.662,48.651z"/>
<path d="M62.796,67.569c2.589,0,4.697-2.107,4.697-4.697c0-1.84-1.085-3.52-2.764-4.278c-0.476-0.215-1.034-0.003-1.251,0.473
	c-0.215,0.477-0.004,1.035,0.473,1.251c1.002,0.454,1.65,1.456,1.65,2.555c0,1.547-1.258,2.805-2.804,2.805
	c-0.748,0-1.451-0.292-1.98-0.821c-0.369-0.37-0.968-0.37-1.337,0c-0.37,0.369-0.37,0.968-0.001,1.337
	C60.364,67.081,61.543,67.569,62.796,67.569z"/>
<path d="M67.527,104.775c2.589,0,4.696-2.107,4.696-4.696c0-1.841-1.085-3.52-2.764-4.279c-0.477-0.215-1.035-0.004-1.251,0.473
	c-0.216,0.476-0.003,1.035,0.472,1.251c1.002,0.454,1.65,1.456,1.65,2.555c0,1.546-1.257,2.804-2.804,2.804
	c-0.748,0-1.451-0.292-1.98-0.822c-0.369-0.369-0.968-0.369-1.337,0s-0.37,0.968-0.001,1.337
	C65.094,104.286,66.273,104.775,67.527,104.775z"/>
<path d="M67.527,104.775c2.589,0,4.696-2.107,4.696-4.696c0-1.841-1.085-3.52-2.764-4.279c-0.477-0.215-1.035-0.004-1.251,0.473
	c-0.216,0.476-0.003,1.035,0.472,1.251c1.002,0.454,1.65,1.456,1.65,2.555c0,1.546-1.257,2.804-2.804,2.804
	c-0.748,0-1.451-0.292-1.98-0.822c-0.369-0.369-0.968-0.369-1.337,0s-0.37,0.968-0.001,1.337
	C65.094,104.286,66.273,104.775,67.527,104.775z"/>
<path d="M63.426,83.018c2.59,0,4.696-2.107,4.696-4.697c0-1.841-1.084-3.52-2.764-4.278c-0.476-0.215-1.034-0.003-1.25,0.473
	c-0.216,0.476-0.004,1.034,0.472,1.251c1.002,0.454,1.65,1.456,1.65,2.555c0,1.547-1.257,2.804-2.804,2.804
	c-0.748,0-1.451-0.291-1.98-0.821c-0.369-0.37-0.968-0.37-1.337-0.001c-0.37,0.37-0.37,0.968-0.001,1.338
	C60.994,82.529,62.172,83.018,63.426,83.018z"/>
<path d="M55.231,54.643c2.589,0,4.697-2.107,4.697-4.697c0-1.84-1.085-3.52-2.766-4.28c-0.476-0.215-1.037-0.004-1.251,0.472
	c-0.216,0.477-0.005,1.037,0.471,1.252c1.005,0.455,1.653,1.458,1.653,2.556c0,1.546-1.258,2.804-2.804,2.804
	c-0.747,0-1.451-0.292-1.981-0.822c-0.369-0.37-0.968-0.37-1.337,0c-0.37,0.369-0.37,0.968,0,1.337
	C52.799,54.154,53.979,54.643,55.231,54.643z"/>
<path d="M40.725,59.373c2.589,0,4.697-2.107,4.697-4.697c0-1.84-1.085-3.52-2.763-4.28c-0.476-0.216-1.037-0.004-1.251,0.472
	c-0.216,0.475-0.004,1.037,0.471,1.251c1.003,0.455,1.651,1.458,1.651,2.557c0,1.547-1.257,2.804-2.804,2.804
	c-0.746,0-1.449-0.292-1.979-0.822c-0.369-0.371-0.968-0.371-1.337-0.001c-0.37,0.369-0.37,0.968,0,1.338
	C38.295,58.883,39.474,59.373,40.725,59.373z"/>
<path d="M39.779,82.421c0-1.838-1.086-3.518-2.766-4.278c-0.476-0.215-1.037-0.004-1.252,0.472
	c-0.215,0.476-0.004,1.037,0.472,1.252c1.004,0.455,1.653,1.457,1.653,2.555c0,1.547-1.257,2.806-2.804,2.806
	c-0.748,0-1.451-0.292-1.981-0.822c-0.368-0.37-0.968-0.371-1.338-0.002c-0.37,0.369-0.37,0.968-0.001,1.338
	c0.887,0.889,2.066,1.378,3.32,1.378C37.672,87.119,39.779,85.012,39.779,82.421z"/>
<path d="M37.57,68.232c0-1.838-1.084-3.517-2.762-4.279c-0.476-0.216-1.037-0.005-1.252,0.469c-0.216,0.476-0.005,1.036,0.469,1.252
	c1.004,0.457,1.652,1.461,1.652,2.558c0,1.547-1.258,2.805-2.804,2.805c-0.747,0-1.449-0.292-1.981-0.823
	c-0.369-0.369-0.968-0.369-1.337,0.001c-0.369,0.37-0.369,0.969,0,1.338c0.889,0.888,2.067,1.376,3.318,1.376
	C35.462,72.93,37.57,70.823,37.57,68.232z"/>
<path d="M40.489,100.904c-0.369-0.167-0.799-0.004-0.969,0.364c-0.167,0.369-0.004,0.798,0.364,0.969
	c0.777,0.353,1.278,1.129,1.278,1.979c0,1.197-0.972,2.171-2.168,2.171c-0.578,0-1.123-0.226-1.535-0.638
	c-0.286-0.285-0.75-0.285-1.036,0c-0.285,0.286-0.285,0.751,0.001,1.036c0.688,0.688,1.601,1.066,2.569,1.066
	c2.003,0,3.633-1.631,3.633-3.635C42.625,102.792,41.787,101.493,40.489,100.904z"/>
<path d="M148.495,52.119c2.588,0,4.696-2.107,4.696-4.696c0-1.84-1.084-3.52-2.764-4.28c-0.475-0.215-1.037-0.004-1.252,0.472
	c-0.215,0.476-0.004,1.037,0.472,1.251c1.005,0.455,1.653,1.458,1.653,2.557c0,1.546-1.258,2.804-2.804,2.804
	c-0.747,0-1.451-0.292-1.983-0.822c-0.369-0.369-0.968-0.369-1.336,0c-0.37,0.37-0.37,0.969,0,1.337
	C146.063,51.631,147.243,52.119,148.495,52.119z"/>
<path d="M174.671,54.958c2.589,0,4.696-2.107,4.696-4.697c0-1.839-1.085-3.519-2.765-4.279c-0.474-0.215-1.036-0.004-1.252,0.471
	c-0.215,0.476-0.004,1.037,0.472,1.252c1.005,0.454,1.653,1.458,1.653,2.556c0,1.547-1.257,2.805-2.804,2.805
	c-0.747,0-1.451-0.292-1.982-0.822c-0.37-0.37-0.969-0.37-1.337,0c-0.369,0.37-0.369,0.969,0,1.338
	C172.24,54.469,173.42,54.958,174.671,54.958z"/>
<path d="M161.737,48.651c2.589,0,4.696-2.107,4.696-4.697c0-1.839-1.084-3.519-2.761-4.279c-0.476-0.215-1.037-0.005-1.253,0.471
	c-0.215,0.476-0.004,1.035,0.472,1.252c1.003,0.454,1.651,1.458,1.651,2.556c0,1.547-1.257,2.804-2.804,2.804
	c-0.747,0-1.451-0.292-1.983-0.823c-0.371-0.369-0.969-0.367-1.337,0.002c-0.37,0.37-0.368,0.969,0.001,1.338
	C159.307,48.162,160.487,48.651,161.737,48.651z"/>
<path d="M181.6,67.569c2.589,0,4.697-2.107,4.697-4.697c0-1.84-1.085-3.52-2.764-4.278c-0.476-0.215-1.035-0.003-1.251,0.473
	c-0.215,0.477-0.003,1.035,0.473,1.251c1.002,0.454,1.65,1.456,1.65,2.555c0,1.547-1.257,2.805-2.804,2.805
	c-0.749,0-1.451-0.292-1.981-0.821c-0.368-0.37-0.966-0.37-1.336,0c-0.37,0.369-0.37,0.968-0.002,1.337
	C179.167,67.081,180.348,67.569,181.6,67.569z"/>
<path d="M176.871,104.775c2.59,0,4.697-2.107,4.697-4.696c0-1.841-1.084-3.52-2.764-4.279c-0.476-0.215-1.034-0.004-1.25,0.473
	c-0.216,0.476-0.005,1.035,0.471,1.251c1.003,0.454,1.65,1.456,1.65,2.555c0,1.546-1.258,2.804-2.805,2.804
	c-0.747,0-1.451-0.292-1.979-0.822c-0.37-0.369-0.969-0.369-1.338,0c-0.371,0.369-0.371,0.968,0,1.337
	C174.438,104.286,175.618,104.775,176.871,104.775z"/>
<path d="M176.871,104.775c2.59,0,4.697-2.107,4.697-4.696c0-1.841-1.084-3.52-2.764-4.279c-0.476-0.215-1.034-0.004-1.25,0.473
	c-0.216,0.476-0.005,1.035,0.471,1.251c1.003,0.454,1.65,1.456,1.65,2.555c0,1.546-1.258,2.804-2.805,2.804
	c-0.747,0-1.451-0.292-1.979-0.822c-0.37-0.369-0.969-0.369-1.338,0c-0.371,0.369-0.371,0.968,0,1.337
	C174.438,104.286,175.618,104.775,176.871,104.775z"/>
<path d="M180.97,83.018c2.589,0,4.696-2.107,4.696-4.697c0-1.841-1.084-3.52-2.764-4.278c-0.476-0.215-1.034-0.003-1.25,0.473
	c-0.216,0.476-0.004,1.034,0.472,1.251c1.003,0.454,1.649,1.456,1.649,2.555c0,1.547-1.257,2.804-2.803,2.804
	c-0.748,0-1.451-0.291-1.979-0.821c-0.371-0.37-0.969-0.37-1.339-0.001c-0.37,0.37-0.37,0.968,0,1.338
	C178.539,82.529,179.717,83.018,180.97,83.018z"/>
<path d="M191.061,54.643c2.59,0,4.697-2.107,4.697-4.697c0-1.84-1.086-3.52-2.766-4.28c-0.476-0.215-1.037-0.004-1.251,0.472
	c-0.216,0.477-0.005,1.037,0.472,1.252c1.004,0.455,1.652,1.458,1.652,2.556c0,1.546-1.257,2.804-2.804,2.804
	c-0.747,0-1.451-0.292-1.981-0.822c-0.369-0.37-0.969-0.37-1.336,0c-0.371,0.369-0.371,0.968,0,1.337
	C188.63,54.154,189.809,54.643,191.061,54.643z"/>
<path d="M204.936,59.373c2.587,0,4.696-2.107,4.696-4.697c0-1.84-1.084-3.52-2.764-4.28c-0.475-0.216-1.035-0.004-1.251,0.472
	c-0.215,0.475-0.004,1.037,0.471,1.251c1.003,0.455,1.652,1.458,1.652,2.557c0,1.547-1.258,2.804-2.804,2.804
	c-0.747,0-1.449-0.292-1.979-0.822c-0.371-0.371-0.968-0.371-1.338-0.001s-0.37,0.968,0,1.338
	C202.505,58.883,203.684,59.373,204.936,59.373z"/>
<path d="M214.082,82.421c0-1.838-1.086-3.518-2.766-4.278c-0.475-0.215-1.036-0.004-1.251,0.472
	c-0.215,0.476-0.004,1.037,0.471,1.252c1.004,0.455,1.653,1.457,1.653,2.555c0,1.547-1.258,2.806-2.804,2.806
	c-0.748,0-1.451-0.292-1.981-0.822c-0.369-0.37-0.968-0.371-1.337-0.002c-0.371,0.369-0.371,0.968-0.001,1.338
	c0.886,0.889,2.065,1.378,3.319,1.378C211.975,87.119,214.082,85.012,214.082,82.421z"/>
<path d="M216.283,68.232c0-1.838-1.084-3.517-2.76-4.279c-0.477-0.216-1.039-0.005-1.253,0.469
	c-0.216,0.476-0.004,1.036,0.469,1.252c1.003,0.457,1.652,1.461,1.652,2.558c0,1.547-1.258,2.805-2.804,2.805
	c-0.747,0-1.45-0.292-1.981-0.823c-0.37-0.369-0.969-0.369-1.337,0.001c-0.37,0.37-0.37,0.969,0,1.338
	c0.89,0.888,2.068,1.376,3.318,1.376C214.178,72.93,216.283,70.823,216.283,68.232z"/>
<path d="M205.962,100.904c-0.368-0.167-0.8-0.004-0.968,0.364c-0.167,0.369-0.004,0.798,0.364,0.969
	c0.775,0.353,1.276,1.129,1.276,1.979c0,1.197-0.971,2.171-2.167,2.171c-0.578,0-1.125-0.226-1.535-0.638
	c-0.287-0.285-0.75-0.285-1.035,0c-0.287,0.286-0.287,0.751,0,1.036c0.689,0.688,1.602,1.066,2.57,1.066
	c2.003,0,3.633-1.631,3.633-3.635C208.099,102.792,207.26,101.493,205.962,100.904z"/>
<path fill="#FFFFFF" d="M8.713,214.473c-0.001,1.874-0.015,198.532-0.015,198.532c0.096,0.542,2.521,13.284,15.581,16.358
	c1.812,0.425,4.521,0.775,7.983,1.052c0-0.218,0-214.56,0-215.942C31.423,214.473,9.56,214.473,8.713,214.473z"/>
<path fill="#FFFFFF" d="M59.598,431.313c1.261,0.017,4.318,0.055,4.318,0.055s17.465,0.318,19.231,0.352
	c0-0.194,0-216.472,0-217.247c-1.686,0-21.863,0-23.549,0V431.313z"/>
<path fill="#FFFFFF" d="M235.684,214.473c0,1.874,0.015,198.532,0.015,198.532c-0.097,0.542-2.522,13.284-15.582,16.358
	c-1.811,0.425-4.521,0.775-7.982,1.052c0-0.218,0-214.56,0-215.942C212.974,214.473,234.837,214.473,235.684,214.473z"/>
<path fill="#FFFFFF" d="M184.799,431.313c-1.261,0.017-4.318,0.055-4.318,0.055s-17.465,0.318-19.231,0.352
	c0-0.194,0-216.472,0-217.247c1.685,0,21.863,0,23.549,0V431.313z"/>
<path fill="#FFFFFF" d="M110.482,436.244c4.654,2.627,8.657,6.192,11.716,9.465c3.06-3.275,7.064-6.836,11.722-9.465h0.111v-0.066
	c0-0.672,0-221.137,0-221.705c-1.686,0-21.864,0-23.549,0V436.244z"/>
<g>
	<path fill="#FFFFFF" d="M38.55,162.478h1.055c3.551,0,7.546,0.667,7.546,5.215c0,4.551-3.996,5.215-7.546,5.215H38.55V162.478z
		 M49.315,178.846c5.936-1.054,9.153-6.047,9.153-11.817c0-8.934-6.27-12.874-14.536-12.874H27.676v41.835H38.55V179.9h0.111
		l10.265,16.09h13.537L49.315,178.846z"/>
	<path fill="#FFFFFF" d="M78.183,190.608c0,3.55-2.884,6.492-6.491,6.492c-3.606,0-6.491-2.942-6.491-6.492
		c0-3.607,2.885-6.491,6.491-6.491C75.299,184.118,78.183,187.001,78.183,190.608z"/>
	<path fill="#FFFFFF" d="M109.37,168.192c-2.219-2.994-5.827-4.604-9.543-4.604c-6.658,0-11.152,5.105-11.152,11.596
		c0,6.602,4.55,11.375,11.319,11.375c3.55,0,7.101-1.721,9.376-4.439v13.037c-3.607,1.109-6.214,1.944-9.599,1.944
		c-5.824,0-11.373-2.219-15.702-6.159c-4.604-4.162-6.713-9.599-6.713-15.813c0-5.715,2.164-11.207,6.159-15.313
		c4.107-4.217,10.043-6.77,15.924-6.77c3.495,0,6.713,0.778,9.932,2.109V168.192z"/>
	<path fill="#FFFFFF" d="M125.381,190.608c0,3.55-2.887,6.492-6.493,6.492c-3.607,0-6.491-2.942-6.491-6.492
		c0-3.607,2.884-6.491,6.491-6.491C122.494,184.118,125.381,187.001,125.381,190.608z"/>
	<path fill="#FFFFFF" d="M151.709,164.919c-1.996-1.665-4.549-2.774-7.211-2.774c-1.999,0-4.66,1.166-4.66,3.496
		c0,2.441,2.938,3.383,4.826,3.994l2.773,0.833c5.824,1.721,10.321,4.661,10.321,11.43c0,4.162-0.999,8.433-4.329,11.263
		c-3.274,2.774-7.656,3.94-11.874,3.94c-5.27,0-10.43-1.776-14.701-4.772l4.66-8.766c2.719,2.385,5.936,4.328,9.652,4.328
		c2.555,0,5.273-1.276,5.273-4.218c0-3.051-4.272-4.105-6.602-4.772c-6.825-1.94-11.321-3.716-11.321-11.816
		c0-8.49,6.049-14.039,14.426-14.039c4.217,0,9.377,1.333,13.093,3.441L151.709,164.919z"/>
	<path fill="#FFFFFF" d="M171.702,190.608c0,3.55-2.885,6.492-6.492,6.492s-6.491-2.942-6.491-6.492
		c0-3.607,2.884-6.491,6.491-6.491S171.702,187.001,171.702,190.608z"/>
	<path fill="#FFFFFF" d="M201.792,168.192c-2.22-2.994-5.824-4.604-9.544-4.604c-6.657,0-11.149,5.105-11.149,11.596
		c0,6.602,4.549,11.375,11.317,11.375c3.552,0,7.102-1.721,9.376-4.439v13.037c-3.608,1.109-6.213,1.944-9.598,1.944
		c-5.827,0-11.375-2.219-15.702-6.159c-4.606-4.162-6.714-9.599-6.714-15.813c0-5.715,2.164-11.207,6.159-15.313
		c4.105-4.217,10.044-6.77,15.923-6.77c3.497,0,6.712,0.778,9.932,2.109V168.192z"/>
	<path fill="#FFFFFF" d="M218.086,190.608c0,3.55-2.884,6.492-6.49,6.492s-6.493-2.942-6.493-6.492c0-3.607,2.886-6.491,6.493-6.491
		S218.086,187.001,218.086,190.608z"/>
</g>
</svg>
