<?xml version="1.0" encoding="UTF-8" standalone="no"?>
<!-- Generator: Adobe Illustrator 13.0.0, SVG Export Plug-In . SVG Version: 6.00 Build 14948)  -->

<svg
   xmlns:dc="http://purl.org/dc/elements/1.1/"
   xmlns:cc="http://creativecommons.org/ns#"
   xmlns:rdf="http://www.w3.org/1999/02/22-rdf-syntax-ns#"
   xmlns:svg="http://www.w3.org/2000/svg"
   xmlns="http://www.w3.org/2000/svg"
   xmlns:sodipodi="http://sodipodi.sourceforge.net/DTD/sodipodi-0.dtd"
   xmlns:inkscape="http://www.inkscape.org/namespaces/inkscape"
   version="1.0"
   id="Ebene_1"
   x="0px"
   y="0px"
   width="188.38493"
   height="254"
   viewBox="0 0 188.38493 254"
   enable-background="new 0 0 259.243 351.496"
   xml:space="preserve"
   sodipodi:docname="Sivasspor_-_Logo.svg"
   inkscape:version="0.92.4 (5da689c313, 2019-01-14)"><metadata
   id="metadata53"><rdf:RDF><cc:Work
       rdf:about=""><dc:format>image/svg+xml</dc:format><dc:type
         rdf:resource="http://purl.org/dc/dcmitype/StillImage" /><dc:title></dc:title></cc:Work></rdf:RDF></metadata><defs
   id="defs51" /><sodipodi:namedview
   pagecolor="#ffffff"
   bordercolor="#666666"
   borderopacity="1"
   objecttolerance="10"
   gridtolerance="10"
   guidetolerance="10"
   inkscape:pageopacity="0"
   inkscape:pageshadow="2"
   inkscape:window-width="1366"
   inkscape:window-height="705"
   id="namedview49"
   showgrid="false"
   fit-margin-top="2"
   fit-margin-right="2"
   fit-margin-bottom="2"
   fit-margin-left="2"
   inkscape:zoom="1.3428318"
   inkscape:cx="199.09201"
   inkscape:cy="183.2641"
   inkscape:window-x="-8"
   inkscape:window-y="-8"
   inkscape:window-maximized="1"
   inkscape:current-layer="Ebene_1" />






















<g
   id="g78"
   transform="matrix(0.71124362,0,0,0.71124362,2,2)"><path
     id="path2"
     d="M 194.382,25.813 C 169.538,25.863 144.741,17.26 129.622,0 114.502,17.26 89.707,25.863 64.861,25.813 40.067,25.813 15.223,17.157 0,0 v 274.67 c 0,24.438 20.568,46.076 45.363,45.973 l 26.219,-0.152 c 25.201,-0.152 44.294,9.826 58.04,31.006 13.746,-21.18 32.838,-31.158 58.039,-31.006 l 26.221,0.152 c 24.793,0.104 45.361,-21.535 45.361,-45.973 V 0 c -15.222,17.157 -40.066,25.813 -64.861,25.813 z"
     inkscape:connector-curvature="0"
     style="clip-rule:evenodd;fill:#da0020;fill-rule:evenodd" /><path
     id="path4"
     d="M 5.651,116.538 V 274.67 c 0,21.332 17.972,40.424 39.66,40.271 l 26.271,-0.102 c 22.453,-0.152 44.345,8.248 58.04,26.576 13.695,-18.328 35.588,-26.729 58.039,-26.576 l 26.271,0.102 c 21.688,0.152 39.66,-18.939 39.66,-40.271 V 116.538 Z"
     inkscape:connector-curvature="0"
     style="clip-rule:evenodd;fill:#ffffff;fill-rule:evenodd" /><path
     id="path6"
     d="M 43.887,106.202 V 93.271 c 0,-0.611 0,-1.578 -0.255,-2.087 -0.254,-0.407 -0.662,-0.407 -1.375,-0.56 -0.865,-0.153 -2.037,-0.306 -2.037,-1.579 0,-0.458 0.103,-0.865 0.408,-1.069 0.662,-0.662 2.393,-0.305 3.156,-0.254 0.56,0.05 1.069,0.102 1.579,0.152 0.61,0 1.222,0.051 1.884,0.051 1.119,0 2.239,-0.102 3.309,-0.203 0.712,-0.051 1.935,-0.306 2.8,0 0.509,0.152 0.917,0.56 0.917,1.323 0,1.833 -2.088,1.222 -2.953,1.985 -0.56,0.408 -0.661,1.273 -0.661,2.24 v 12.932 c 0,1.985 0.406,2.342 1.476,2.597 0.459,0.102 0.968,0.153 1.426,0.407 0.407,0.204 0.764,0.56 0.764,1.222 0,1.019 -0.764,1.426 -1.629,1.426 -1.12,0.051 -2.343,-0.204 -3.564,-0.255 -0.56,0 -1.222,-0.05 -1.832,-0.05 -0.662,0 -1.324,0.05 -1.884,0.05 -0.561,0.051 -1.12,0.051 -1.527,0.153 -0.153,0 -0.356,0 -0.561,0.051 -0.56,0.051 -1.782,0.204 -2.343,-0.051 -0.508,-0.203 -0.712,-0.662 -0.712,-1.324 0,-1.068 0.916,-1.426 1.731,-1.527 1.628,-0.305 1.933,-0.866 1.883,-2.699 z"
     inkscape:connector-curvature="0"
     style="clip-rule:evenodd;fill:#ffffff;fill-rule:evenodd" /><path
     id="path8"
     d="m 71.531,104.318 c 0.051,-0.152 0.56,-1.324 0.662,-1.426 l 5.04,-11.353 c -0.509,-0.306 -1.171,-0.356 -1.73,-0.51 -0.407,-0.102 -0.764,-0.254 -1.019,-0.406 -0.407,-0.256 -0.61,-0.611 -0.61,-1.02 0,-0.508 0.203,-0.865 0.661,-1.119 0.305,-0.204 0.713,-0.306 1.222,-0.306 0.458,0 0.764,0.102 1.323,0.153 0.714,0.101 1.427,0.152 2.14,0.152 0.967,0 1.884,-0.103 2.8,-0.204 0.814,-0.051 1.476,-0.254 2.139,0.356 0.254,0.255 0.458,0.56 0.458,0.916 0,0.561 -0.255,0.866 -0.611,1.07 -0.458,0.305 -1.12,0.458 -1.578,0.61 -0.561,0.254 -0.865,0.51 -1.171,0.968 -0.255,0.457 -0.509,0.916 -0.714,1.374 L 71.328,111.8 h 0.052 c -0.255,0.458 -0.916,0.713 -1.579,0.713 -0.712,0 -1.425,-0.255 -1.629,-0.713 L 59.263,93.421 c -0.255,-0.408 -0.458,-0.814 -0.662,-1.12 -0.204,-0.255 -0.407,-0.56 -0.662,-0.764 -0.306,-0.356 -0.61,-0.458 -1.069,-0.611 -0.712,-0.152 -1.476,-0.458 -1.476,-1.324 0,-0.458 0.203,-0.814 0.611,-1.068 0.508,-0.356 1.17,-0.306 1.781,-0.306 1.374,0.103 2.749,0.306 4.124,0.306 1.171,0 2.291,-0.051 3.462,-0.153 0.814,-0.102 1.985,-0.305 2.698,-0.102 0.561,0.204 0.968,0.407 1.069,1.019 0.102,0.509 0,0.916 -0.407,1.272 -0.306,0.255 -0.764,0.407 -1.273,0.51 -0.305,0.051 -1.272,0.102 -1.578,0.356 0,0 0,0.102 0.051,0.203 0.102,0.203 0.255,0.509 0.459,0.916 z"
     inkscape:connector-curvature="0"
     style="clip-rule:evenodd;fill:#ffffff;fill-rule:evenodd" /><path
     id="path10"
     d="m 166.634,100.806 v 4.582 c 0,1.323 0,2.139 0.154,2.597 0.203,0.51 0.609,0.662 1.781,0.814 0.662,0.102 1.629,0.102 2.189,0.561 0.305,0.254 0.457,0.61 0.457,1.018 0,0.561 -0.254,0.917 -0.609,1.172 -0.713,0.406 -1.732,0.203 -2.547,0.152 l -1.322,-0.103 c -1.121,-0.05 -2.24,-0.152 -3.412,-0.152 -1.068,0 -2.137,0.051 -3.258,0.152 l 0.051,-0.05 c -0.307,0.05 -0.713,0.101 -1.121,0.152 -0.814,0.102 -1.73,0.203 -2.289,0.051 -0.611,-0.153 -1.223,-0.662 -1.223,-1.375 0,-0.661 0.459,-1.12 1.018,-1.323 1.477,-0.51 2.24,-0.255 2.646,-0.968 0.205,-0.355 0.307,-0.916 0.307,-2.036 V 93.321 c 0,-1.069 0.051,-1.68 -0.307,-2.087 -0.201,-0.204 -0.508,-0.356 -1.016,-0.458 -0.459,-0.103 -0.867,-0.152 -1.326,-0.255 -0.1,-0.051 -0.203,-0.051 -0.305,-0.102 -0.559,-0.204 -1.018,-0.561 -1.018,-1.273 0,-0.509 0.254,-1.018 0.662,-1.272 0.865,-0.509 3.258,-0.051 3.869,0 h -0.051 c 2.291,0.204 4.48,0.102 6.771,-0.103 1.68,-0.152 3.41,-0.305 5.09,-0.254 1.02,0.051 2.037,0.102 3.055,0.306 1.73,0.356 3.666,1.019 5.041,2.189 1.426,1.222 2.342,2.901 2.342,4.785 0,3.055 -2.139,5.347 -4.836,6.415 -1.783,0.713 -3.77,0.967 -5.551,0.814 -1.729,-0.151 -3.408,-0.661 -5.242,-1.22 z m 0,-9.928 v 7.025 c 1.07,0.459 2.24,0.764 3.361,0.764 1.273,0.051 2.443,-0.255 3.207,-0.916 0.713,-0.61 1.121,-1.477 1.121,-2.698 0,-0.968 -0.307,-1.782 -0.814,-2.394 -0.969,-1.119 -2.648,-1.526 -4.074,-1.68 -0.916,-0.101 -1.832,-0.101 -2.801,-0.101 z"
     inkscape:connector-curvature="0"
     style="clip-rule:evenodd;fill:#ffffff;fill-rule:evenodd" /><path
     id="path12"
     d="m 198.251,87.161 c 3.361,0 7.484,0.968 9.979,3.31 2.598,2.291 4.021,5.702 4.021,9.113 0,2.647 -0.916,5.346 -2.443,7.484 -2.75,3.768 -7.076,5.192 -11.709,5.192 -3.156,0 -6.365,-0.712 -8.961,-2.393 -3.41,-2.24 -5.092,-5.855 -5.092,-9.979 0,-3.056 0.918,-6.11 2.902,-8.451 2.801,-3.207 7.18,-4.276 11.303,-4.276 z m -0.256,3.055 c -2.9,0 -5.09,1.935 -6.006,4.633 -0.611,1.63 -0.764,3.411 -0.764,5.143 0,1.477 0.152,2.749 0.457,3.869 0.867,3.055 3.209,5.396 6.568,5.396 3.666,0 5.447,-2.749 6.211,-5.854 0.305,-1.273 0.408,-2.597 0.408,-3.921 0,-1.426 -0.152,-2.851 -0.561,-4.226 -0.914,-3.004 -2.952,-5.04 -6.313,-5.04 z"
     inkscape:connector-curvature="0"
     style="clip-rule:evenodd;fill:#ffffff;fill-rule:evenodd" /><path
     id="path14"
     d="m 224.216,101.061 v 5.447 c 0.051,1.578 0.154,1.884 1.426,2.188 0.355,0.052 0.764,0.103 1.17,0.204 0.715,0.204 1.326,0.611 1.326,1.426 0,0.662 -0.256,1.069 -0.764,1.323 -0.459,0.204 -1.121,0.153 -1.732,0.103 -2.189,-0.203 -4.379,-0.356 -6.568,-0.255 -0.711,0.052 -1.271,0.052 -1.781,0.102 l -1.477,0.153 -0.051,0.051 c -0.102,0 -0.203,0 -0.406,0 -0.104,0 -0.205,0 -0.357,0 -0.305,0 -0.611,-0.051 -0.865,-0.153 -0.307,-0.101 -0.559,-0.254 -0.766,-0.509 -0.1,-0.102 -0.15,-0.203 -0.201,-0.356 -0.051,-0.102 -0.051,-0.254 -0.051,-0.356 0,-0.458 0.152,-0.814 0.559,-1.12 0.256,-0.203 0.664,-0.355 1.121,-0.458 l 0.764,-0.153 c 0.355,-0.05 0.611,-0.152 0.814,-0.202 0.152,-0.052 0.254,-0.103 0.305,-0.103 0.051,-0.051 0.102,-0.153 0.152,-0.306 0.104,-0.203 0.154,-0.509 0.154,-0.865 v -1.171 -12.678 c 0,-0.662 0.102,-1.375 -0.154,-1.885 -0.152,-0.305 -0.406,-0.56 -0.967,-0.661 -0.406,-0.103 -0.967,-0.153 -1.426,-0.306 -0.713,-0.153 -1.426,-0.509 -1.426,-1.375 0,-0.458 0.205,-0.865 0.563,-1.068 0.406,-0.356 1.068,-0.407 1.627,-0.407 1.629,0.051 3.209,0.356 4.785,0.356 1.223,0 2.445,-0.153 3.668,-0.256 1.68,-0.152 3.359,-0.254 5.039,-0.254 2.088,0 4.227,0.407 6.059,1.375 2.088,1.12 3.514,2.901 3.514,5.346 0,2.24 -1.375,3.817 -3.26,4.785 -0.711,0.407 -1.475,0.662 -2.238,0.814 l 4.988,7.587 c 0.51,0.813 0.662,1.069 1.578,1.323 0.459,0.102 0.814,0.152 1.223,0.356 0.406,0.255 0.764,0.661 0.764,1.272 0,1.019 -0.867,1.527 -1.781,1.426 -1.121,-0.153 -2.242,-0.306 -3.311,-0.306 -0.916,0 -1.73,0.052 -2.598,0.204 -0.1,0.051 -0.152,0.051 -0.203,0.051 -0.355,0.051 -0.764,0.102 -1.119,-0.051 -0.256,-0.204 -0.408,-0.458 -0.561,-0.713 l -6.109,-9.928 c -0.458,0.053 -0.917,0.053 -1.427,0.003 z m -0.051,-3.055 c 0.102,0 0.152,0 0.305,0 2.293,0 3.92,-0.306 5.041,-0.917 0.916,-0.56 1.375,-1.323 1.375,-2.443 0,-0.561 -0.102,-1.12 -0.355,-1.578 -0.561,-1.171 -1.682,-1.681 -2.904,-1.935 -0.914,-0.204 -2.035,-0.306 -3.41,-0.306 0,0 0,0 -0.051,0 v 7.179 z"
     inkscape:connector-curvature="0"
     style="clip-rule:evenodd;fill:#ffffff;fill-rule:evenodd" /><polygon
     id="polygon16"
     points="153.397,45.057 135.069,45.057 129.57,28.307 124.123,45.057 105.847,45.057 120.458,56.054 114.502,74.229 129.57,62.876 144.741,74.229 138.735,56.054 "
     style="clip-rule:evenodd;fill:#ffffff;fill-rule:evenodd" /><polygon
     id="polygon18"
     points="85.888,45.057 67.611,45.057 62.062,28.307 56.563,45.057 38.336,45.057 52.948,56.054 46.991,74.229 62.062,62.876 77.233,74.229 71.227,56.054 "
     style="clip-rule:evenodd;fill:#ffffff;fill-rule:evenodd" /><polygon
     id="polygon20"
     points="220.907,45.057 202.579,45.057 197.081,28.307 191.581,45.057 173.354,45.057 187.917,56.054 182.011,74.229 197.081,62.876 212.251,74.229 206.243,56.054 "
     style="clip-rule:evenodd;fill:#ffffff;fill-rule:evenodd" /><path
     id="path22"
     d="m 17.921,109.816 v -4.785 c 0,-0.306 0,-0.509 0.051,-0.713 0.051,-0.255 0.153,-0.458 0.255,-0.662 0.152,-0.254 0.407,-0.406 0.662,-0.509 0.203,-0.051 0.458,-0.102 0.713,-0.102 0.305,0 0.561,0.051 0.763,0.152 0.255,0.102 0.459,0.254 0.611,0.51 v -0.052 c 0.103,0.153 0.204,0.306 0.306,0.51 0.103,0.152 0.152,0.356 0.255,0.611 v -0.052 l 0.355,0.866 c 0.256,0.509 0.51,1.018 0.866,1.425 0.356,0.408 0.764,0.714 1.272,1.019 0.561,0.356 1.222,0.611 1.833,0.764 0.662,0.203 1.324,0.306 2.036,0.306 1.731,0 3.106,-0.408 4.073,-1.171 v -0.051 c 0.407,-0.255 0.662,-0.611 0.865,-0.968 0.153,-0.356 0.254,-0.764 0.254,-1.272 0,-0.255 -0.05,-0.561 -0.152,-0.814 -0.05,-0.204 -0.203,-0.459 -0.407,-0.713 -0.254,-0.255 -0.661,-0.561 -1.222,-0.815 -0.61,-0.306 -1.374,-0.61 -2.341,-0.865 l -3.106,-0.865 c -0.968,-0.306 -1.781,-0.561 -2.393,-0.764 -0.663,-0.254 -1.222,-0.458 -1.629,-0.713 -1.069,-0.56 -1.884,-1.323 -2.443,-2.189 -0.561,-0.916 -0.815,-1.935 -0.815,-3.055 0,-0.61 0.051,-1.222 0.255,-1.833 0.203,-0.56 0.458,-1.119 0.814,-1.68 0.916,-1.426 2.239,-2.494 3.92,-3.207 1.63,-0.662 3.563,-1.019 5.905,-1.019 0.866,0 1.681,0.051 2.444,0.103 0.814,0.101 1.578,0.203 2.24,0.355 H 34.11 c 0.407,0.103 0.814,0.203 1.272,0.356 0.459,0.153 1.019,0.306 1.63,0.561 l 0.56,0.203 v 0.509 l 0.051,3.768 0.051,0.408 v 0.051 c 0,0.203 -0.051,0.355 -0.051,0.509 0,0.102 0,0.255 -0.051,0.407 v 0.051 c -0.102,0.356 -0.306,0.611 -0.611,0.814 -0.306,0.153 -0.61,0.255 -1.018,0.255 -0.764,0 -1.324,-0.407 -1.731,-1.272 v 0.051 l -0.255,-0.51 c -0.56,-1.222 -1.222,-2.138 -2.087,-2.698 -0.764,-0.56 -1.731,-0.865 -2.901,-0.865 -0.611,0 -1.172,0.051 -1.682,0.203 -0.508,0.103 -0.966,0.306 -1.374,0.561 -0.407,0.204 -0.712,0.51 -0.916,0.815 -0.203,0.305 -0.306,0.661 -0.306,1.068 0,0.356 0.103,0.661 0.255,0.916 0.152,0.306 0.407,0.561 0.764,0.815 0.203,0.102 0.509,0.254 1.018,0.458 0.51,0.203 1.171,0.407 2.087,0.661 l 2.801,0.815 c 1.171,0.355 2.189,0.713 3.055,1.069 0.865,0.355 1.629,0.764 2.189,1.17 0.51,0.306 0.967,0.713 1.323,1.172 0.356,0.458 0.662,0.967 0.916,1.527 0.154,0.355 0.256,0.763 0.357,1.171 0.051,0.406 0.102,0.814 0.102,1.222 0,0.61 -0.051,1.171 -0.255,1.782 -0.152,0.56 -0.407,1.119 -0.712,1.68 -0.306,0.561 -0.662,1.019 -1.12,1.527 -0.458,0.458 -0.968,0.865 -1.527,1.272 -1.069,0.713 -2.291,1.273 -3.717,1.63 -1.375,0.356 -2.902,0.509 -4.633,0.509 -1.171,0 -2.292,-0.051 -3.36,-0.203 -1.12,-0.153 -2.087,-0.357 -3.004,-0.662 -0.458,-0.153 -0.916,-0.306 -1.375,-0.561 -0.509,-0.203 -1.018,-0.458 -1.527,-0.713 z"
     inkscape:connector-curvature="0"
     style="clip-rule:evenodd;fill:#ffffff;fill-rule:evenodd" /><path
     id="path24"
     d="m 88.078,103.452 -2.546,5.703 c 0.458,0.305 1.171,0.356 1.68,0.509 0.459,0.102 0.815,0.255 1.069,0.407 0.407,0.255 0.561,0.611 0.561,1.019 0,0.509 -0.203,0.865 -0.611,1.12 -0.305,0.203 -0.713,0.306 -1.222,0.306 -0.51,0 -0.814,-0.103 -1.324,-0.153 -0.713,-0.102 -1.477,-0.152 -2.189,-0.152 -0.916,0 -1.832,0.102 -2.748,0.203 -0.815,0.052 -1.477,0.255 -2.139,-0.355 -0.255,-0.255 -0.458,-0.561 -0.458,-0.917 0,-0.56 0.254,-0.865 0.56,-1.12 0.51,-0.305 1.12,-0.407 1.629,-0.561 0.561,-0.254 0.866,-0.508 1.171,-0.966 0.255,-0.459 0.459,-0.917 0.713,-1.376 l 9.165,-18.226 c 0.254,-0.459 0.916,-0.713 1.578,-0.713 0.713,0 1.425,0.254 1.577,0.713 l 8.961,18.379 c 0.204,0.407 0.458,0.814 0.662,1.12 0.204,0.255 0.407,0.509 0.611,0.764 h 0.05 c 0.307,0.356 0.611,0.458 1.07,0.61 0.713,0.153 1.425,0.459 1.425,1.324 0,0.459 -0.153,0.814 -0.56,1.069 -0.509,0.356 -1.172,0.306 -1.783,0.306 -1.373,-0.103 -2.748,-0.306 -4.123,-0.306 -1.171,0 -2.291,0.051 -3.462,0.152 -0.814,0.102 -1.985,0.306 -2.698,0.102 -0.561,-0.203 -0.967,-0.458 -1.069,-1.018 -0.102,-0.51 -0.051,-0.917 0.356,-1.272 0.356,-0.255 0.814,-0.407 1.324,-0.51 0.305,-0.051 1.272,-0.102 1.578,-0.356 0,0 -0.051,-0.102 -0.103,-0.203 -0.051,-0.204 -0.203,-0.51 -0.407,-0.917 l -2.036,-4.685 z m 3.156,-7.076 c -0.051,0.153 -0.61,1.324 -0.662,1.426 l -1.12,2.546 h 3.514 z"
     inkscape:connector-curvature="0"
     style="clip-rule:evenodd;fill:#ffffff;fill-rule:evenodd" /><path
     id="path26"
     d="m 109.002,109.816 v -4.785 c 0,-0.306 0,-0.509 0.052,-0.713 0.051,-0.255 0.102,-0.458 0.254,-0.662 0.152,-0.204 0.356,-0.406 0.662,-0.509 0.204,-0.051 0.458,-0.102 0.713,-0.102 0.305,0 0.509,0.051 0.764,0.152 0.255,0.101 0.458,0.254 0.611,0.51 v -0.052 c 0.102,0.153 0.204,0.306 0.305,0.51 0.052,0.152 0.153,0.356 0.255,0.611 v -0.052 l 0.356,0.866 c 0.203,0.56 0.509,1.018 0.865,1.425 0.356,0.408 0.764,0.714 1.273,1.019 0.56,0.356 1.171,0.611 1.832,0.764 0.662,0.203 1.324,0.306 2.037,0.306 1.73,0 3.105,-0.408 4.073,-1.171 0.407,-0.306 0.661,-0.662 0.864,-1.019 0.153,-0.356 0.255,-0.764 0.255,-1.272 0,-0.255 -0.051,-0.561 -0.152,-0.814 -0.103,-0.204 -0.255,-0.459 -0.407,-0.713 -0.255,-0.255 -0.663,-0.561 -1.223,-0.815 -0.61,-0.306 -1.374,-0.61 -2.341,-0.865 l -3.157,-0.865 c -0.916,-0.306 -1.731,-0.561 -2.342,-0.764 -0.661,-0.254 -1.222,-0.458 -1.629,-0.713 -1.069,-0.56 -1.884,-1.323 -2.443,-2.189 -0.561,-0.865 -0.866,-1.935 -0.866,-3.055 0,-0.61 0.103,-1.222 0.306,-1.833 0.152,-0.56 0.458,-1.119 0.814,-1.68 0.917,-1.426 2.24,-2.494 3.869,-3.207 1.629,-0.662 3.615,-1.019 5.957,-1.019 0.866,0 1.68,0.051 2.443,0.103 0.814,0.101 1.527,0.203 2.189,0.355 0.356,0.103 0.814,0.203 1.273,0.356 0.458,0.153 0.966,0.306 1.629,0.561 l 0.56,0.203 v 0.509 l 0.052,3.768 v 0.408 0.051 c 0,0.203 0,0.355 0,0.509 0,0.102 -0.052,0.255 -0.052,0.407 v 0.051 c -0.102,0.356 -0.306,0.611 -0.662,0.814 -0.255,0.153 -0.561,0.255 -0.967,0.255 -0.764,0 -1.375,-0.407 -1.731,-1.272 v 0.051 l -0.254,-0.51 c -0.561,-1.222 -1.223,-2.138 -2.089,-2.698 -0.813,-0.56 -1.781,-0.865 -2.9,-0.865 -0.611,0 -1.172,0.051 -1.681,0.203 -0.509,0.103 -0.967,0.306 -1.375,0.561 -0.407,0.204 -0.712,0.51 -0.916,0.815 -0.203,0.305 -0.306,0.661 -0.306,1.068 0,0.356 0.052,0.661 0.255,0.916 0.153,0.306 0.407,0.561 0.764,0.815 0.152,0.102 0.51,0.254 0.967,0.458 0.561,0.203 1.223,0.407 2.088,0.661 l 2.851,0.866 c 1.172,0.305 2.189,0.662 3.055,1.019 0.866,0.406 1.63,0.764 2.189,1.17 0.51,0.306 0.968,0.713 1.324,1.172 0.356,0.458 0.61,0.967 0.865,1.527 0.153,0.355 0.254,0.763 0.356,1.171 0.051,0.406 0.102,0.814 0.102,1.222 0,0.61 -0.102,1.171 -0.255,1.782 -0.152,0.56 -0.407,1.119 -0.712,1.68 -0.255,0.561 -0.663,1.019 -1.069,1.527 -0.458,0.458 -0.968,0.865 -1.527,1.272 -1.069,0.713 -2.343,1.273 -3.717,1.63 -1.375,0.356 -2.902,0.509 -4.634,0.509 -1.17,0 -2.341,-0.051 -3.41,-0.203 -1.069,-0.153 -2.036,-0.357 -2.953,-0.662 -0.458,-0.153 -0.916,-0.306 -1.426,-0.561 -0.458,-0.203 -0.967,-0.458 -1.476,-0.713 z"
     inkscape:connector-curvature="0"
     style="clip-rule:evenodd;fill:#ffffff;fill-rule:evenodd" /><path
     id="path28"
     d="m 133.235,109.816 v -4.785 c 0,-0.306 0,-0.509 0.053,-0.713 0.051,-0.255 0.102,-0.458 0.254,-0.662 0.152,-0.254 0.357,-0.406 0.662,-0.509 0.203,-0.051 0.457,-0.102 0.713,-0.102 0.254,0 0.508,0.051 0.764,0.152 0.254,0.102 0.457,0.254 0.611,0.51 v -0.052 c 0.102,0.153 0.203,0.306 0.305,0.51 0.051,0.152 0.152,0.356 0.256,0.611 v -0.052 l 0.355,0.866 c 0.203,0.509 0.51,1.018 0.865,1.425 0.355,0.408 0.764,0.714 1.271,1.019 0.561,0.356 1.172,0.611 1.834,0.764 0.662,0.203 1.324,0.306 2.037,0.306 1.73,0 3.055,-0.408 4.072,-1.171 v -0.051 c 0.357,-0.255 0.662,-0.611 0.865,-0.968 0.152,-0.356 0.256,-0.764 0.256,-1.272 0,-0.255 -0.051,-0.561 -0.154,-0.814 -0.102,-0.204 -0.254,-0.459 -0.457,-0.713 -0.205,-0.255 -0.611,-0.561 -1.172,-0.815 -0.611,-0.306 -1.426,-0.61 -2.342,-0.865 l -3.156,-0.865 c -0.967,-0.306 -1.73,-0.561 -2.342,-0.764 -0.713,-0.254 -1.223,-0.458 -1.629,-0.713 -1.068,-0.56 -1.936,-1.323 -2.443,-2.189 -0.561,-0.916 -0.867,-1.935 -0.867,-3.055 0,-0.61 0.104,-1.222 0.307,-1.833 0.152,-0.56 0.459,-1.119 0.814,-1.68 0.916,-1.426 2.189,-2.494 3.869,-3.207 1.629,-0.662 3.615,-1.019 5.957,-1.019 0.814,0 1.68,0.051 2.443,0.103 0.814,0.101 1.527,0.203 2.189,0.355 0.355,0.103 0.764,0.203 1.273,0.356 0.457,0.153 0.967,0.306 1.627,0.561 l 0.51,0.203 0.053,0.509 0.051,3.768 v 0.408 0.051 c 0,0.203 0,0.355 0,0.509 0,0.102 -0.051,0.255 -0.051,0.407 l -0.053,0.051 c -0.102,0.356 -0.305,0.611 -0.609,0.814 -0.256,0.153 -0.611,0.255 -0.969,0.255 -0.764,0 -1.373,-0.407 -1.73,-1.272 v 0.051 l -0.254,-0.51 c -0.561,-1.222 -1.273,-2.138 -2.088,-2.698 -0.814,-0.56 -1.781,-0.865 -2.902,-0.865 -0.609,0 -1.17,0.051 -1.68,0.203 -0.508,0.103 -0.967,0.306 -1.375,0.561 -0.406,0.204 -0.713,0.51 -0.916,0.815 -0.203,0.305 -0.307,0.661 -0.307,1.068 0,0.356 0.053,0.661 0.205,0.916 0.203,0.306 0.457,0.561 0.814,0.815 0.152,0.102 0.508,0.254 0.967,0.458 0.51,0.203 1.223,0.407 2.088,0.661 l 2.852,0.815 h -0.051 c 1.221,0.355 2.24,0.713 3.055,1.069 0.916,0.355 1.629,0.764 2.24,1.17 0.508,0.306 0.967,0.713 1.322,1.172 0.355,0.458 0.662,0.967 0.918,1.527 0.15,0.355 0.254,0.763 0.305,1.171 0.102,0.406 0.152,0.814 0.152,1.222 0,0.61 -0.102,1.171 -0.254,1.782 -0.154,0.56 -0.408,1.119 -0.713,1.68 -0.307,0.561 -0.713,1.019 -1.172,1.527 -0.408,0.458 -0.916,0.865 -1.477,1.272 -1.068,0.713 -2.342,1.273 -3.717,1.63 -1.373,0.356 -2.953,0.509 -4.631,0.509 -1.223,0 -2.344,-0.051 -3.412,-0.203 -1.07,-0.153 -2.037,-0.357 -2.953,-0.662 -0.457,-0.153 -0.916,-0.306 -1.426,-0.561 -0.459,-0.203 -0.967,-0.458 -1.477,-0.713 z"
     inkscape:connector-curvature="0"
     style="clip-rule:evenodd;fill:#ffffff;fill-rule:evenodd" /><path
     id="path30"
     d="m 89.248,197.334 c -9.47,-2.342 -18.582,-5.6 -26.729,-11.098 -8.858,-5.957 -12.932,-14.46 -12.932,-23.929 0,-13.899 8.859,-24.233 21.639,-29.987 8.857,-4.022 20.059,-5.651 31.463,-5.702 12.932,-0.051 26.117,1.985 36.249,5.04 19.297,5.854 22.656,6.67 24.592,-2.291 h 13.082 v 36.504 c -4.479,-0.968 -8.959,-1.63 -13.49,-2.037 -1.578,-0.152 -3.156,-0.305 -4.734,-0.406 -4.379,-7.281 -10.029,-13.746 -15.273,-17.208 -9.42,-6.212 -22.198,-8.655 -39.967,-8.655 -12.932,0 -31.005,8.96 -31.005,21.994 0,9.571 13.644,15.629 26.575,19.295 -4.887,5.091 -8.298,11.302 -9.47,18.48 z"
     inkscape:connector-curvature="0"
     style="clip-rule:evenodd;fill:#da0020;fill-rule:evenodd" /><path
     id="path32"
     d="m 173.712,255.986 c 12.27,-7.535 17.463,-19.348 17.463,-30.906 0,-10.486 -4.582,-20.363 -14.713,-26.777 -10.643,-6.822 -26.068,-10.082 -40.578,-12.475 -2.697,1.018 -5.346,2.342 -7.535,3.973 -4.123,2.9 -7.025,6.617 -7.025,10.742 0,0.965 0.305,1.934 0.864,2.85 0.204,0.051 0.46,0.102 0.714,0.154 7.28,1.322 23.42,4.072 32.635,8.857 6.465,3.359 9.57,10.336 9.469,17.514 -0.1,7.637 -3.869,15.529 -9.623,19.5 -5.191,3.564 -13.439,5.906 -26.371,6.059 -39.253,0 -60.279,-25.049 -70.207,-50.658 l -12.779,-0.102 v 56.615 h 12.015 c 1.936,-5.551 4.379,-8.656 8.096,-9.625 8.146,-2.086 12.677,3.82 26.423,8.352 10.285,3.412 24.438,7.279 36.453,7.178 15.373,-0.204 32.939,-3.971 44.699,-11.251 z"
     inkscape:connector-curvature="0"
     style="clip-rule:evenodd;fill:#da0020;fill-rule:evenodd" /><path
     id="path34"
     d="m 160.017,229.816 c -0.051,3.156 -0.867,6.314 -2.24,9.113 -0.662,1.324 -1.426,2.545 -2.342,3.615 -17.156,-2.801 -34.366,-5.703 -48.724,-15.324 -8.858,-5.957 -12.932,-14.512 -12.932,-23.98 0,-12.627 7.383,-22.299 18.38,-28.307 9.571,-5.245 22.502,-7.281 35.639,-7.229 12.676,0 25.455,2.036 35.332,4.988 19.297,5.806 22.656,6.669 24.592,-2.341 h 13.082 v 45.057 l -12.982,-0.051 c -4.021,-11.15 -12.676,-23.012 -20.516,-28.154 -9.471,-6.211 -22.25,-8.604 -40.018,-8.604 -12.932,0 -30.954,8.908 -30.954,21.943 0,13.643 28.003,20.211 41.8,22.756 0.254,0.053 0.508,0.053 0.764,0.104 0.763,1.985 1.119,4.174 1.119,6.414 z"
     inkscape:connector-curvature="0"
     style="clip-rule:evenodd;fill:#da0020;fill-rule:evenodd" /><path
     id="path36"
     d="m 217.903,297.02 c 12.27,-7.535 17.463,-19.346 17.463,-30.902 0,-10.539 -4.582,-20.416 -14.766,-26.881 -6.771,-4.328 -15.477,-7.23 -24.691,-9.42 -0.611,5.346 -2.189,10.59 -4.939,15.477 -0.764,1.324 -1.578,2.648 -2.545,3.922 4.176,1.17 8.146,2.596 11.303,4.225 6.465,3.359 9.572,10.283 9.469,17.463 -0.152,7.637 -3.869,15.527 -9.672,19.551 -5.193,3.563 -13.391,5.855 -26.373,6.059 -25.559,0 -43.377,-10.59 -55.393,-25.1 -2.901,-0.408 -5.804,-0.916 -8.654,-1.527 -6.568,-1.426 -12.83,-3.311 -18.074,-5.041 -0.305,-0.102 -0.56,-0.203 -0.814,-0.254 v 37.775 h 12.016 c 1.935,-5.6 4.379,-8.654 8.096,-9.621 8.145,-2.088 12.676,3.768 26.371,8.35 10.285,3.41 24.438,7.279 36.453,7.127 15.424,-0.155 32.991,-3.973 44.75,-11.203 z"
     inkscape:connector-curvature="0"
     style="clip-rule:evenodd;fill:#da0020;fill-rule:evenodd" /><polygon
     id="polygon38"
     points="68.935,273.6 84.922,273.6 84.922,275.586 74.484,296.766 68.527,296.766 77.59,278.336 68.935,278.336 "
     style="clip-rule:evenodd;fill:#da0020;fill-rule:evenodd" /><path
     id="path40"
     d="m 41.851,288.518 c -0.408,0.051 -0.815,0.051 -1.172,0.051 -1.985,0 -3.768,-0.66 -5.143,-2.088 -1.425,-1.424 -1.985,-3.309 -1.985,-5.295 0,-2.24 0.713,-4.326 2.394,-5.904 1.73,-1.629 3.971,-2.24 6.313,-2.24 2.241,0 4.328,0.611 5.906,2.24 1.629,1.629 2.24,3.717 2.24,5.957 0,1.525 -0.357,3.105 -0.968,4.529 -0.306,0.816 -0.713,1.682 -1.171,2.545 -0.51,0.918 -1.069,1.834 -1.731,2.803 l -3.716,5.65 h -6.466 z m 3.104,-7.383 c 0,-0.865 -0.203,-1.68 -0.764,-2.291 -0.611,-0.559 -1.374,-0.762 -2.188,-0.762 -0.815,0 -1.579,0.203 -2.139,0.814 -0.61,0.609 -0.814,1.373 -0.814,2.238 0,0.969 0.254,1.732 0.814,2.291 0.56,0.613 1.426,0.764 2.24,0.764 0.814,0 1.527,-0.254 2.087,-0.814 0.561,-0.611 0.764,-1.426 0.764,-2.24 z"
     inkscape:connector-curvature="0"
     style="clip-rule:evenodd;fill:#da0020;fill-rule:evenodd" /><polygon
     id="polygon42"
     points="21.128,273.6 29.783,273.6 29.783,296.766 24.234,296.766 24.234,278.336 21.078,278.336 "
     style="clip-rule:evenodd;fill:#da0020;fill-rule:evenodd" /><path
     id="path44"
     d="m 59.274,281.854 c 0.407,-0.053 0.813,-0.053 1.17,-0.053 1.986,0 3.768,0.662 5.143,2.088 1.426,1.426 1.985,3.311 1.985,5.295 0,2.24 -0.713,4.328 -2.393,5.906 -1.731,1.629 -3.972,2.24 -6.313,2.24 -2.239,0 -4.327,-0.611 -5.905,-2.24 -1.629,-1.629 -2.24,-3.717 -2.24,-5.957 0,-1.527 0.356,-3.105 0.968,-4.531 0.306,-0.813 0.713,-1.68 1.17,-2.545 0.51,-0.916 1.069,-1.834 1.731,-2.801 l 3.717,-5.65 h 6.466 z m -3.106,7.38 c 0,0.867 0.204,1.682 0.765,2.291 0.61,0.561 1.374,0.764 2.189,0.764 0.813,0 1.577,-0.203 2.138,-0.814 0.611,-0.609 0.814,-1.373 0.814,-2.24 0,-0.967 -0.255,-1.73 -0.814,-2.291 -0.561,-0.609 -1.426,-0.764 -2.24,-0.764 -0.815,0 -1.527,0.256 -2.087,0.814 -0.561,0.611 -0.765,1.426 -0.765,2.24 z"
     inkscape:connector-curvature="0"
     style="clip-rule:evenodd;fill:#da0020;fill-rule:evenodd" /><path
     id="path46"
     d="m 47.247,77.997 c 1.883,0 3.919,1.375 3.919,3.666 0,2.29 -2.036,3.665 -3.919,3.665 -1.833,0 -3.921,-1.375 -3.921,-3.665 0,-2.291 2.088,-3.666 3.921,-3.666 z"
     inkscape:connector-curvature="0"
     style="clip-rule:evenodd;fill:#ffffff;fill-rule:evenodd" /></g>
</svg>