<?xml version="1.0" encoding="UTF-8" standalone="no"?>
<!-- Generator: Adobe Illustrator 13.0.0, SVG Export Plug-In . SVG Version: 6.00 Build 14948)  -->

<svg
   xmlns:dc="http://purl.org/dc/elements/1.1/"
   xmlns:cc="http://creativecommons.org/ns#"
   xmlns:rdf="http://www.w3.org/1999/02/22-rdf-syntax-ns#"
   xmlns:svg="http://www.w3.org/2000/svg"
   xmlns="http://www.w3.org/2000/svg"
   xmlns:sodipodi="http://sodipodi.sourceforge.net/DTD/sodipodi-0.dtd"
   xmlns:inkscape="http://www.inkscape.org/namespaces/inkscape"
   version="1.0"
   id="Ebene_1"
   x="0px"
   y="0px"
   width="252"
   height="252"
   viewBox="0 0 252 252"
   enable-background="new 0 0 396.85 396.85"
   xml:space="preserve"
   sodipodi:docname="FC_Slovan_Liberec.svg"
   inkscape:version="0.92.4 (5da689c313, 2019-01-14)"><metadata
   id="metadata59"><rdf:RDF><cc:Work
       rdf:about=""><dc:format>image/svg+xml</dc:format><dc:type
         rdf:resource="http://purl.org/dc/dcmitype/StillImage" /><dc:title></dc:title></cc:Work></rdf:RDF></metadata><defs
   id="defs57" /><sodipodi:namedview
   pagecolor="#ffffff"
   bordercolor="#666666"
   borderopacity="1"
   objecttolerance="10"
   gridtolerance="10"
   guidetolerance="10"
   inkscape:pageopacity="0"
   inkscape:pageshadow="2"
   inkscape:window-width="1366"
   inkscape:window-height="705"
   id="namedview55"
   showgrid="false"
   fit-margin-top="1"
   fit-margin-right="1"
   fit-margin-bottom="1"
   fit-margin-left="1"
   inkscape:zoom="1.1893662"
   inkscape:cx="127.57412"
   inkscape:cy="117.79025"
   inkscape:window-x="-8"
   inkscape:window-y="-8"
   inkscape:window-maximized="1"
   inkscape:current-layer="Ebene_1" />

























<g
   id="g87"
   transform="matrix(0.62996094,0,0,0.62996094,1,1)"><path
     id="path2"
     d="M 198.425,396.85 C 307.692,396.85 396.85,307.692 396.85,198.425 396.85,89.158 307.692,0 198.425,0 89.157,0 0,89.158 0,198.425 0,307.692 89.157,396.85 198.425,396.85 Z"
     inkscape:connector-curvature="0" /><path
     id="path4"
     d="m 198.425,73.685 c 66.981,0 121.917,53.323 124.639,119.7 -8.215,-1.26 -15.624,-2.52 -20.865,-3.931 -14.465,-3.881 -28.526,-8.921 -42.588,-11.189 -3.579,-0.554 -6.502,-0.605 -8.417,0.05 -3.024,-3.83 -7.812,-7.207 -12.348,-8.87 -2.873,-1.059 -6.552,-3.528 -9.777,-4.99 -3.578,-1.663 -6.955,-3.578 -11.895,-2.621 -2.873,-4.184 -5.998,-5.947 -8.114,-7.207 2.016,-1.008 4.183,-2.772 5.695,-4.587 -10.937,-7.358 -14.011,-26.258 -16.329,-40.723 -2.318,14.465 -5.393,33.365 -16.33,40.723 1.512,1.865 3.226,3.428 5.241,4.284 -12.701,1.966 -17.337,9.375 -25.653,14.768 -4.586,2.974 -10.08,5.241 -15.574,7.61 -15.523,6.653 -31.45,10.13 -47.527,14.565 -2.167,0.605 -12.802,1.865 -24.796,3.074 C 75.953,127.512 131.09,73.685 198.425,73.685 Z"
     inkscape:connector-curvature="0"
     style="fill:#0b89c6" /><path
     id="path6"
     d="M 385.409,205.078 C 381.83,305.072 299.225,385.56 198.425,385.56 97.625,385.56 15.019,305.071 11.441,205.078 h 55.742 c 3.528,69.3 61.135,124.74 131.242,124.74 70.106,0 127.713,-55.44 131.241,-124.74 z"
     inkscape:connector-curvature="0"
     style="fill:#ffffff" /><path
     id="path8"
     d="m 198.425,11.29 c 103.068,0 187.135,84.067 187.135,187.135 0,1.764 -0.051,3.579 -0.101,5.393 -11.138,-1.058 -21.571,-4.485 -32.508,-6.098 -7.358,-1.109 -15.423,-2.218 -23.184,-3.326 C 327.6,123.833 269.438,67.032 198.425,67.032 c -71.215,0 -129.528,57.154 -131.343,128.017 -11.793,1.159 -23.587,2.217 -28.929,2.57 -2.722,0.202 -3.024,0.453 -5.292,1.562 -1.562,0.857 -3.276,1.26 -7.812,1.966 -3.327,0.504 -3.427,0.554 -10.987,1.613 -0.403,0.252 -1.613,0.756 -2.671,1.26 -0.05,-1.865 -0.101,-3.729 -0.101,-5.594 C 11.29,95.357 95.356,11.29 198.425,11.29 Z"
     inkscape:connector-curvature="0"
     style="fill:#ffffff" /><polygon
     id="polygon10"
     points="65.52,115.214 60.228,112.442 51.357,129.125 41.681,123.984 51.811,104.983 46.217,102.01 32.659,127.461 69.602,147.067 73.029,140.616 56.649,131.947 " /><path
     id="path12"
     d="m 91.526,69.703 c -7.106,-5.645 -16.027,-3.931 -22.579,2.822 -8.719,9.022 -6.753,21.319 1.815,29.585 8.568,8.316 20.966,9.828 29.635,0.857 7.056,-7.308 7.006,-17.187 0.202,-24.595 l -4.939,5.141 c 3.981,4.687 4.989,10.583 0.454,15.271 -6.199,6.451 -14.515,3.679 -20.261,-1.916 -5.796,-5.544 -8.871,-13.759 -2.621,-20.21 4.233,-4.385 8.871,-4.133 13.205,-1.713 z"
     inkscape:connector-curvature="0" /><path
     id="path14"
     d="m 127.058,63 c 3.881,9.626 12.701,11.088 21.622,7.711 7.761,-3.024 14.162,-9.476 10.785,-18.245 -1.512,-4.032 -5.645,-7.459 -11.39,-7.005 -2.268,0.151 -11.743,1.26 -12.398,1.31 -3.075,0.303 -5.544,-0.503 -6.603,-3.226 -1.512,-3.931 2.066,-6.652 5.242,-7.862 4.687,-1.814 8.77,-1.209 11.037,3.679 l 6.854,-2.621 c -3.125,-8.165 -11.642,-9.828 -19.756,-6.703 -7.056,2.671 -12.853,9.122 -9.879,16.934 1.563,4.032 5.091,7.308 12.449,6.552 5.896,-0.555 9.727,-1.21 12.852,-1.21 1.814,0 3.931,0.555 5.09,3.579 1.108,2.923 0,6.754 -5.998,9.021 -5.443,2.117 -10.786,1.462 -13.104,-4.536 z"
     inkscape:connector-curvature="0" /><polygon
     id="polygon16"
     points="179.071,54.936 176.602,19.555 169.293,20.059 172.216,61.74 200.642,59.774 200.189,53.475 " /><path
     id="path18"
     d="m 232.596,20.866 c -12.348,-2.167 -21.42,6.3 -23.537,18.094 -2.066,11.743 3.578,22.831 15.926,25.048 12.348,2.167 21.42,-6.35 23.537,-18.094 2.067,-11.793 -3.578,-22.881 -15.926,-25.048 z m -1.059,5.896 c 8.82,1.512 11.139,9.979 9.778,17.842 -1.411,7.913 -6.451,15.07 -15.271,13.507 -8.82,-1.563 -11.139,-9.979 -9.778,-17.892 1.411,-7.913 6.451,-15.019 15.271,-13.457 z"
     inkscape:connector-curvature="0" /><polygon
     id="polygon20"
     points="292.975,44.856 268.43,69.451 268.33,69.401 274.025,35.179 267.221,31.702 260.668,75.297 267.926,78.977 299.628,48.233 " /><path
     id="path22"
     d="m 317.268,73.382 0.101,0.101 -7.661,17.438 -9.324,-8.719 z m -38.052,11.794 5.494,5.141 10.433,-5.393 12.197,11.391 -4.687,10.735 5.746,5.343 16.733,-41.53 -5.695,-5.292 z"
     inkscape:connector-curvature="0" /><polygon
     id="polygon24"
     points="341.057,108.562 323.971,140.414 327.801,147.118 363.989,126.202 360.511,120.154 333.85,135.576 333.799,135.475 350.935,103.522 347.054,96.869 310.867,117.734 314.344,123.782 340.956,108.411 " /><polygon
     id="polygon26"
     points="56.649,299.931 84.571,278.057 80.085,272.312 47.174,298.066 64.764,320.544 69.703,316.663 " /><polygon
     id="polygon28"
     points="109.721,304.668 83.412,337.125 89.107,341.712 115.416,309.254 " /><path
     id="path30"
     d="m 148.831,328.003 -18.396,-8.619 -17.64,37.901 17.388,8.114 c 9.778,4.586 16.078,1.865 18.85,-4.083 2.419,-5.141 1.613,-9.878 -2.571,-13.053 l 0.051,-0.101 c 4.183,0.101 7.409,-1.714 9.173,-5.544 2.973,-6.299 -0.051,-11.44 -6.855,-14.615 z m -5.998,29.383 c -1.814,3.831 -5.141,4.939 -9.173,3.024 l -11.743,-5.443 5.544,-11.844 11.693,5.494 c 4.032,1.864 5.393,5.09 3.679,8.769 z m 5.695,-16.632 c -1.612,3.377 -4.838,4.133 -8.013,2.671 l -10.836,-5.091 4.838,-10.433 10.836,5.04 c 3.629,1.715 4.939,3.983 3.175,7.813 z"
     inkscape:connector-curvature="0" /><polygon
     id="polygon32"
     points="177.66,371.196 178.718,358.999 199.634,360.864 200.138,354.917 179.222,353.052 180.18,342.166 202.809,344.131 203.364,337.832 173.426,335.21 169.797,376.841 200.138,379.512 200.692,373.212 " /><path
     id="path34"
     d="m 224.431,340.604 11.542,-2.873 c 3.679,-0.907 7.308,-0.706 8.618,4.435 1.059,4.284 -0.856,7.106 -5.342,8.215 l -11.642,2.923 z m 1.613,36.539 7.056,-1.764 -4.133,-16.682 10.433,-2.621 c 6.552,-1.613 8.871,1.26 10.735,8.719 0.504,1.966 1.058,4.184 2.57,5.695 l 7.61,-1.915 c -1.916,-1.26 -3.679,-5.393 -4.889,-10.08 -1.562,-6.451 -5.594,-7.358 -8.165,-7.106 v -0.101 c 1.209,-0.807 6.099,-4.133 4.133,-11.895 -1.714,-6.854 -7.258,-9.828 -16.128,-7.61 l -19.354,4.838 z"
     inkscape:connector-curvature="0" /><polygon
     id="polygon36"
     points="286.524,348.97 279.871,338.688 297.511,327.247 294.286,322.207 276.595,333.698 270.648,324.525 289.75,312.127 286.271,306.835 261.072,323.215 283.802,358.243 309.405,341.611 305.928,336.319 " /><path
     id="path38"
     d="m 328.104,278.863 c -7.661,-4.889 -16.33,-2.218 -22.176,5.191 -7.711,9.828 -4.485,21.874 4.939,29.232 9.375,7.359 21.823,7.561 29.534,-2.318 6.25,-7.963 5.191,-17.792 -2.369,-24.394 l -4.385,5.594 c 4.435,4.234 6.048,10.03 2.066,15.12 -5.494,7.056 -14.062,5.141 -20.362,0.202 -6.3,-4.889 -10.231,-12.751 -4.737,-19.807 3.78,-4.788 8.417,-5.04 12.953,-3.074 z"
     inkscape:connector-curvature="0" /><path
     id="path40"
     d="m 143.337,310.262 c -13.911,-6.854 -26.359,-16.279 -36.742,-27.619 v -77.565 h 36.742 z"
     inkscape:connector-curvature="0"
     style="fill:#ffffff" /><path
     id="path42"
     d="m 216.771,321.804 c -5.998,0.907 -12.146,1.361 -18.346,1.361 -6.2,0 -12.348,-0.454 -18.346,-1.361 V 205.078 h 36.691 v 116.726 z"
     inkscape:connector-curvature="0"
     style="fill:#ffffff" /><path
     id="path44"
     d="m 290.253,282.643 c -10.383,11.34 -22.831,20.765 -36.742,27.619 V 205.078 h 36.742 z"
     inkscape:connector-curvature="0"
     style="fill:#ffffff" /><path
     id="path46"
     d="m 106.596,282.643 c -19,-20.664 -31.147,-47.729 -32.709,-77.565 h 32.709 z"
     inkscape:connector-curvature="0"
     style="fill:#0b89c6" /><path
     id="path48"
     d="m 180.079,321.804 c -13.003,-1.916 -25.352,-5.897 -36.742,-11.542 V 205.078 h 36.742 z"
     inkscape:connector-curvature="0"
     style="fill:#0b89c6" /><path
     id="path50"
     d="m 253.512,310.262 c -11.39,5.645 -23.738,9.626 -36.741,11.542 V 205.078 h 36.741 z"
     inkscape:connector-curvature="0"
     style="fill:#0b89c6" /><path
     id="path52"
     d="m 322.963,205.078 c -1.563,29.836 -13.709,56.901 -32.709,77.565 v -77.565 z"
     inkscape:connector-curvature="0"
     style="fill:#0b89c6" /></g>
</svg>