<?xml version="1.0" encoding="UTF-8" standalone="no"?>
<svg id="svg85" height="314" viewBox="0 0 235.5 235.5" width="314" xmlns="http://www.w3.org/2000/svg">
   <g id="surface32" transform="matrix(.65522519 0 0 .65522519 -77.270353 -158.06269)">
      <path id="path2" d="m120.21875 420.94141c0 97.83203 79.58984 177.42187 177.41797 177.42187 97.82812 0 177.42187-79.58984 177.42187-177.42187 0-97.82422-79.59375-177.41797-177.42187-177.41797-97.82813 0-177.41797 79.59375-177.41797 177.41797" fill="#334285"/>
      <path id="path4" d="m297.63672 556.21875c-74.70703 0-135.27344-60.5625-135.27344-135.27734 0-74.70704 60.56641-135.27344 135.27344-135.27344 74.71094 0 135.27344 60.5664 135.27344 135.27344 0 74.71484-60.5625 135.27734-135.27344 135.27734m0-310.6875c-96.72266 0-175.41016 78.6875-175.41016 175.41016 0 96.72656 78.6875 175.41796 175.41016 175.41796 96.72656 0 175.41406-78.6914 175.41406-175.41796 0-96.72266-78.6875-175.41016-175.41406-175.41016" fill="#fff"/>
      <path id="path6" d="m432.89062 420.94922c0 74.71094-60.5664 135.26953-135.26171 135.26953-74.70313 0-135.26563-60.55859-135.26563-135.26953 0-74.71094 60.5625-135.28125 135.26563-135.28125 74.69531 0 135.26171 60.57031 135.26171 135.28125" fill="#334285"/>
      <path id="path8" d="m164.55859 421.37109c0-73.7539 59.66797-133.54297 133.26953-133.54297 73.59766 0 133.26563 59.78907 133.26563 133.54297z" fill="#fff"/>
      <path id="path10" d="m321.31641 349.12891c-.21485.92968-.41797 1.85546-.63672 2.78515 8.72656-8.2539 21.77343 7.4336 26.71093-6.40234l.21094-1.95703c-8.29687 7.42968-20.60156-6.70703-26.28515 5.57422" fill="#bd0026"/>
      <path id="path12" d="m244.55859 392.57422c5.04688 5.15625 10.11328 10.69922 11.79688 17.41406l8.08203.0195c-.41797-2.67969-1.6875-5.46875-3.57813-7.83594 1.89063.50782 3.67969 3.09375 4.9375 4.84766 0 0 1.25391 1.72266 1.6836 2.96875l6.625.0195c-.625-2.89453-2.20313-5.36719-4.19922-7.63672 2.72656 1.34375 5.57031 4.64844 6.82812 7.63672h7.15235c-1.05078-6.8125-8.72266-11.44922-14.50391-13.92969-5.26172-4.64453 2.94141-8.45703.20313-13.72656-8.41016 3.20313-15.8711 8.67188-25.02735 10.22266m47.73828-57.06641c-4.20703 6.91406-3.78125 17.75 1.26563 24.14063 11.13281 17.75 42.04687 13.10937 41.83594 39.42187 5.90234-2.36328 10.82812-8.55859 11.88281-14.85547 1.90234-9.1875-1.99609-17.44531-9.57031-22.70312-2.41797-1.24219-4.83203-2.37891-7.46094-2.98828l.62891-4.44532c-5.05079-.20703-11.56641.41407-13.98829-4.84375-.41796-1.85546-.32031-4.02734 1.27344-5.36718 3.87891-3.51172 9.98438-1.76172 15.13672-2.17188l1.57422-8.35937-20.30078-3.60547c-.63281-1.23828-.41797-3.09375-.20703-4.44531-8.82813-1.23047-17.44922 2.26953-22.07032 10.22265m91.86329 67.95313v-7.33588c-2.20704-.61328-5.57032-.14453-7.11329.16016 2.00391-1.23438 5.84766-2.3711 7.11329-2.10157v-6.37109c-2.62891-.10547-5.4375.83203-7.64063 1.55859 2.10156-1.75 4.94531-3.17187 7.64063-3.35156v-7.25391c0 0-1.8086-.5039-5.4375.9961-5.80469 2.39844-8.40625 9.40234-14.5 10.33203-6.31641.51562-10.73047-5.16016-13.14844-10.00391l5.15625-.72656c10.82031-2.88672 11.5625-14.86328 19.33594-20.83984 2.3125-1.14844 6.29296-2.08203 8.61328-1.82422v-7.88672c-3.28516-.53125-5.35157.31641-7.66016.82812 2.10156-1.4414 4.94141-2.77343 7.67188-2.77343l.004-.42188v-6.60547l-.0156-.64453c-2.73438.10156-6.08985 1.16016-7.86719 2.08985 2.20703-2.47266 5.14844-3.29688 7.88281-4.4375v-6.70704c-11.88281.3086-17.03125 13.51954-22.71484 21.77344-5.25 7.11719-15.56641 7.53125-23.65625 6.50391 6.30469 3.92187 10.82422 10.00781 12.18359 16.8164 1.91016 10.73047-3.25 20.75-12.18359 26.21485 0 0 4.23828 1.8164 10.40234 6.29297 12.51953 7.53906 24.47266-5.52735 35.9336-4.28125m-172.80079 5.46484c-.63281-10.82812-11.80859-21.61719-3.91796-32.75391 3.77343-5.375 12.19531-1.86328 14.40234-9.08984l.94141-4.85156c-2.72657-1.96094-6.20313-3.91797-7.04297-7.42969-.51563-2.77734.11328-5.67187 1.58203-7.94141 1.99609-2.47265 4.63281-3.50781 7.78125-3.50781 5.38672.91016 10.03125 2.48438 15.66797 3.9961 11.14453 3.40234 25.95312 4.54296 36.91406.10546 1.64453-.66796 1.47266-2.55078 1.00391-3.40625-.48438-.88281-1.53516-.53515-1.53516-.53515-14.19141 3.30078-29.72266.19531-42.76563-4.54688-4.20312 1.54688-9.04296.41016-12.51171-1.85937-3.57032-2.47266-5.36329-6.5-8.94141-8.98047 8.51562-.20703 19.34766-4.125 24.82031 4.64844 11.98828 3.91797 26.60547 6.50781 38.97656 3.10156 5.42188-.72656 7.46094 2.37109 8.94532 5.98828 1.05078 3.09766.51953 7.11719-1.79297 9.39063-3.78906 3.71093-9.07031 4.50781-13.98047 5.26562-16.08984 2.16406-43.48828-5.79297-44.48438-5.95312-.98437-.15625-2.4375.35156-2.35546 1.67578.082 1.3164 1.5 2.17187 3.30468 2.96484 1.80078.80078 11.4961 3.97266 15.56641 4.64844 4.0625.68359 9.78125 1.34765 14.93359 1.44531 11.66407.10547 21.54297-1.23437 32.16797-3.08594 8.71875 15.58203 26.37891 16.09375 38.3711 27.13282 3.36328 4.23046 5.46875 9.28906 5.5625 14.96484-2.39844 1.33984-5.2461 1.44141-8.19532 1.33984-.10547-3.71875-1.04687-7.01562-2.83203-10.0039.94531 2.8789 1.57031 6.91015.19922 9.80078l-5.87891-1.65235c.51954-2.78515.73829-6.8164-.21484-9.70312-.10547 3.09766-.19531 6.30469-2.21484 8.56641-15.13282-6.60547-25.64063-26.3086-44.66407-19.29688-11.67578 4.43359-21.98046 13.10547-36.49609 10.21484-2.52344 0-5.99609-2.47656-7.57031 0-2.73047 8.25391 9.78125 8.48438 11.24609 20.42188l-6.93359.008c-.94531-2.98828-2.73828-5.66406-5.25781-7.94531 1.36328 2.38672 2.48046 5.14453 2.90234 7.9375l-6.16797.008c-.14062-1.96875-1.36328-5.55859-3.57031-7.83594.63672 1.64844 2.29297 5.39063 2.03125 7.82813h-8.00781l.0117-1.07422" fill="#334285"/>
      <path id="path14" d="m307.95703 338.10156c0 1.15235 1.36328 2.3086 2.41406 2.63281 2.21094.51563 3.67969.72657 5.67969-.21484.73438-.52734.51953-1.26562 0-1.89844-1.78125-1.89062-4.73437-1.99218-7.14844-1.2539-.32031.0976-.63281.41797-.94531.73437" fill="#fff"/>
      <path id="path16" d="m271.46875 454.84766c.19531.88671.40234 1.76953.60547 2.66015-8.35547-7.89453-20.83985 7.10938-25.57031-6.12109l-.19532-1.88281c7.94922 7.11328 19.71875-6.41407 25.16016 5.34375" fill="#bd0026"/>
      <path id="path18" d="m344.94922 496.42578c-8.76172-1.48828-15.91406-6.72266-23.96094-9.78516-2.625 5.04688 5.23438 8.6875.19141 13.14454-5.53125 2.375-12.8711 6.80859-13.88672 13.33203h6.84765c1.20313-2.86328 3.92579-6.02735 6.54297-7.31641-1.91406 2.17188-3.41797 4.54688-4.02734 7.31641l6.34766-.0117c.41015-1.19531 1.61328-2.85156 1.61328-2.85156 1.20312-1.67579 2.91797-4.14844 4.72656-4.64063-1.80859 2.26563-3.03125 4.9375-3.42578 7.50391l7.73828-.0117c1.60937-6.42969 6.45703-11.75 11.29297-16.67969m-45.69922-54.62504c-4.42969-7.60156-12.67969-10.95703-21.12109-9.77344.19531 1.28516.39843 3.0586-.21094 4.25l-19.42578 3.45313 1.5039 8.0039c4.9336.38672 10.77344-1.28906 14.49219 2.07813 1.51953 1.28125 1.62109 3.35547 1.21484 5.12891-2.3164 5.03515-8.55078 4.44531-13.38671 4.64453l.60156 4.24218c-2.51563.59375-4.83203 1.67969-7.14453 2.875-7.2461 5.01954-10.97657 12.92969-9.15625 21.72266 1.01172 6.02734 5.73437 11.95313 11.375 14.22266-.20703-25.19532 29.38672-20.7461 40.04687-37.72657 4.83594-6.1289 5.23438-16.5039 1.21094-23.12109m-87.9375 65.05078c10.96875-1.19531 22.41406 11.3125 34.39844 4.08985 5.90625-4.27735 9.96093-6.01563 9.96093-6.01563-8.55468-5.23437-13.49218-14.82031-11.67578-25.10156 1.3086-6.51563 5.63282-12.32813 11.67578-16.08594-7.74218.98047-17.61718.58984-22.64843-6.23047-5.4375-7.89453-10.36328-20.54297-21.74219-20.83984v6.42187c2.61719 1.08594 5.43359 1.875 7.54687 4.23828-1.70703-.88281-4.91406-1.88671-7.52734-1.99609l-.0195.61719v6.72265c2.61719 0 5.33203 1.27735 7.34766 2.65625-2.21094-.48046-4.19141-1.29687-7.33204-.78515v7.53906c2.21875-.23437 6.02735.66016 8.23829 1.74609 7.44921 5.73438 8.15625 17.1836 18.51953 19.95313l4.92968.6875c-2.3125 4.64453-6.53906 10.07812-12.58203 9.58203-5.83593-.89844-8.32812-7.58203-13.88672-9.89062-3.46875-1.4336-5.20312-.96094-5.20312-.96094v6.95312c2.58203.17578 5.30078 1.53516 7.31641 3.21094-2.11329-.69531-4.80079-1.59375-7.31641-1.5v6.10156c1.21094-.24609 4.89844.82813 6.80469 2.00782-1.46875-.29297-4.69532-.73047-6.80469-.15235v7.03125m165.41406 5.23438l.0117 1.01953h-7.66406c-.25781-2.33203 1.32812-5.92188 1.94531-7.49219-2.11719 2.17188-3.28516 5.60938-3.42578 7.50391l-5.90234-.0117c.40234-2.67188 1.48046-5.32031 2.77734-7.58985-2.40625 2.17579-4.12109 4.73829-5.02734 7.60157l-6.64063-.0117c1.41016-11.42969 13.37891-11.64453 10.76563-19.54688-1.50391-2.36718-4.82813 0-7.2461 0-13.89062 2.76563-23.75781-5.53125-34.9375-9.77734-18.20312-6.71484-28.26172 12.15234-42.75781 18.47656-1.92578-2.17969-2.01953-5.23828-2.12109-8.20703-.90625 2.76563-.70313 6.61719-.19922 9.29297l-5.63282 1.58203c-1.30859-2.76562-.70312-6.63281.19532-9.38281-1.70703 2.85937-2.60938 6.01562-2.71485 9.57031-2.8164.0937-5.53906 0-7.84375-1.28516.0937-5.42578 2.10547-10.26953 5.33203-14.32421 11.46875-10.55469 28.375-11.05469 36.73047-25.96094 10.16016 1.77734 19.6211 3.05469 30.78907 2.94531 4.93359-.082 10.40625-.71875 14.30078-1.37109 3.89062-.66016 13.17187-3.6836 14.89453-4.45313 1.72265-.76172 3.08203-1.58594 3.16797-2.83594.0742-1.26562-1.31641-1.75-2.25782-1.60937-.95703.15234-27.17578 7.76562-42.58203 5.69531-4.70312-.72265-9.76562-1.48828-13.39062-5.03515-2.20703-2.17579-2.71875-6.02735-1.71485-8.99219 1.42188-3.45313 3.3711-6.41797 8.5625-5.72266 11.84766 3.25 25.83985.76953 37.32032-2.97656 5.23047-8.40234 15.60547-4.66016 23.75-4.45313-3.41797 2.38282-5.13282 6.22657-8.55469 8.60157-3.31641 2.17187-7.94922 3.26172-11.98047 1.77343-12.48047 4.55079-27.34766 7.51563-40.9375 4.35938 0 0-1.00781-.33203-1.46875.51172-.44531.8125-.67969 2.62109.96484 3.25781 10.53516 4.13672 24.66797 3.15625 35.33204-.10156 5.39453-1.44531 9.83984-2.94531 15-3.82031 3.02734 0 5.54296.98046 7.45312 3.35546 1.41016 2.17579 2.00391 4.94532 1.5 7.60157-.80078 3.35547-4.125 5.23437-6.73828 7.11328l.91016 4.64453c2.10937 6.91797 10.17187 3.54687 13.78906 8.69141 7.55078 10.67187-3.14453 20.98828-3.75391 31.36328" fill="#fff"/>
      <path id="path20" d="m284.25391 444.28125c0 1.11328-1.30079 2.22266-2.3125 2.51562-2.11329.51172-3.51954.71094-5.4375-.19921-.70313-.4961-.4961-1.20313 0-1.8086 1.71093-1.82031 4.53515-1.91015 6.84375-1.20703.3164.0977.60546.40234.90625.69922" fill="#334285"/>
      <path id="path22" d="m155.0625 470.30469c.4375-1.07422.56641-2.3125.21094-3.44532-.26953-.85156-1.125-1.82812-2.11719-1.51562-1.03906.32812-1.04688 1.71094-1.05078 2.59375l.0195 1.29297c.0508 2.71484-.59766 5.02344-3.48047 5.93359-1.77344.5625-3.72656.71094-5.37891-.32422-1.62109-1.01953-2.70703-2.73437-3.27343-4.52734-.71094-2.24609-.64844-4.68359.0508-6.90234l4.35937.80078c-.64843 1.48047-1.04297 3.11328-.54297 4.69531.34375 1.08594 1.25391 2.07422 2.50782 1.67578 1.29687-.40625 1.17187-2.37109 1.14453-3.45312-.0937-3.16797.0586-5.32032 3.50781-6.41016 3.61719-1.14063 6.78906.6875 7.91797 4.25781.57031 1.79297.69531 4.17188.29687 6.03906zm0 0" fill="#334285"/>
      <path id="path24" d="m163.4375 489.75781c.0625-.88672-.0977-1.82812-.52734-2.69531-1.28125-2.60156-4.44532-3.69141-6.75782-2.55078-.95312.46875-1.71093 1.12109-2.22656 1.92578zm-10.46875-.72265c-.082.89453.0898 1.80468.51953 2.67187 1.28125 2.60156 4.44141 3.69531 7.33203 2.26953.73438-.35937 1.32422-.89844 1.73828-1.57422zm-3.92188-4.3086c.96485-1.96875 2.60547-3.63281 4.89454-4.76172 5.0664-2.5 10.8125.19532 13.1914 5.01563 1 2.02344 1.32813 4.26172 1.00781 6.41406l3.10547 1.09375-.92187 2.60938-2.96485-1.02735c-.80859 1.83594-2.25781 3.4336-4.28125 4.42969-5.42187 2.67578-11.16406.66797-13.8125-4.71094-1.05468-2.13281-1.39453-4.33984-1.03906-6.42187l-3.0664-1.0586.92578-2.60937zm0 0" fill="#334285"/>
      <path id="path26" d="m174.07031 499.19141l2.86328 3.92578-3.99218 13.91797.0273.043 9.23047-6.73046 2.86328 3.92578-15.10156 11.0039-2.85938-3.92578 4.01172-13.93359-.0273-.0391-9.25391 6.74218-2.85937-3.92578zm0 0" fill="#334285"/>
      <path id="path28" d="m182.62109 532.91797l.77344.76953c2.05859 2.03906 4.93359 2.66016 7.5.0703 2.35156-2.375 2.11328-5.26562-.10547-7.46484l-.80859-.80078zm6.80469-13.76563l4.89063 4.84766c3.69921 3.66406 3.86328 9.58203.16796 13.31641-3.69921 3.73046-9.64062 3.59765-13.32031-.043l-4.89062-4.85157zm0 0" fill="#334285"/>
      <path id="path30" d="m207.04687 540.56641l-1.88281 2.49218 4.36719 3.30078-2.47656 3.28125-4.3711-3.30078-1.9414 2.57032 4.60937 3.48046-2.48047 3.28516-8.48437-6.41016 11.26172-14.90625 8.48437 6.40625-2.48047 3.28125zm0 0" fill="#334285"/>
      <path id="path32" d="m219.74609 554.20312l.40625.23829c1.37891.78125 3.07813 1.41015 4.08203-.35938 1.00391-1.76562-.39453-2.90625-1.77734-3.69141l-.40625-.23046zm4.17578 14.25l-5.2539-2.99609-.42578-8.51562-.043-.0234-3.5586 6.24219-4.21875-2.40235 9.25-16.23437 6.30469 3.59375c3.21094 1.82812 4.76953 4.74218 2.79688 8.21093-1.27344 2.23829-3.62891 3.46485-6.16407 2.5625zm0 0" fill="#334285"/>
      <path id="path34" d="m246.12109 557.63672l-4.83203 11.64844c-1.50781 3.64453-4.41406 5.27734-8.23828 3.69531-1.92187-.80078-3.01172-2.375-3.38672-4.38281l3.71875-1.64844c.21875.89453.60156 1.96484 1.19922 2.21094 1.32813.55468 1.9375-1.04688 2.33594-2.00782l4.71484-11.3789zm0 0" fill="#334285"/>
      <path id="path36" d="m250.40625 559.42578l5.62109 1.52344 2.03907 5.82031 4.70312-3.98828 5.62109 1.52734-9.19531 7.57032-2.35156 8.65625-4.6875-1.27344 2.35156-8.65625zm0 0" fill="#334285"/>
      <path id="path38" d="m282.63672 571.06641c-.79297-.84766-1.86328-1.48047-3.03906-1.63282-.88672-.11328-2.13282.25-2.26563 1.28516-.13672 1.08203 1.11328 1.66797 1.91406 2.04297l1.1836.52344c2.48437 1.08984 4.30859 2.65234 3.92578 5.64843-.23438 1.84375-.91797 3.67969-2.55469 4.7461-1.60547 1.04297-3.61328 1.3125-5.48047 1.07422-2.33594-.29688-4.52344-1.375-6.24609-2.94532l2.55859-3.61718c1.07031 1.20703 2.38672 2.25 4.03516 2.46093 1.1289.14453 2.40625-.26562 2.57031-1.57031.17578-1.35156-1.66016-2.0625-2.65234-2.48828-2.91407-1.24609-4.80469-2.28516-4.34766-5.875.48047-3.76172 3.47266-5.875 7.18359-5.40234 1.86719.23437 4.07813 1.11718 5.60547 2.26171zm0 0" fill="#334285"/>
      <path id="path40" d="m302.46484 566.89062l6.01953-.10156-7.28906 8.96875 8.26172 9.70703-6.29297.10157-6.39844-8h-.0508l.13282 8.10546-4.85938.0781-.30078-18.67969 4.85547-.082.125 7.70703.0508-.004zm0 0" fill="#334285"/>
      <path id="path42" d="m319.40234 569.48828l.45703 3.08984 5.41797-.80468.60547 4.07031-5.41797.80469.47266 3.18359 5.71094-.84766.60547 4.07032-10.51563 1.5625-2.74609-18.48047 10.51953-1.5625.60156 4.0664zm0 0" fill="#bd0026"/>
      <path id="path44" d="m339.63672 575.94531l5.625-1.51172 1.07031 3.96875-10.3125 2.77735-4.85937-18.04297 4.6914-1.26172zm0 0" fill="#334285"/>
      <path id="path46" d="m357.78125 574.27734l-4.54688 1.71094-6.58203-17.48828 4.54688-1.71094zm0 0" fill="#334285"/>
      <path id="path48" d="m372.72266 567.51953l-4.35547 2.15625-6.46875-13.05469-3.59766 1.78516-1.82812-3.6875 11.54296-5.72656 1.83204 3.6875-3.60157 1.78515zm0 0" fill="#334285"/>
      <path id="path50" d="m379.07031 546.99609l1.70703 2.61719 4.58594-2.99219 2.24609 3.44922-4.58593 2.98828 1.75781 2.69922 4.83594-3.15234 2.24609 3.44531-8.90625 5.80469-10.19922-15.65235 8.90235-5.80078 2.24609 3.44141zm0 0" fill="#334285"/>
      <path id="path52" d="m398.03125 533.46484c-1.16406.008-2.35547.36328-3.26172 1.13282-.68359.57421-1.25391 1.73828-.58203 2.53125.69922.83593 1.97656.30859 2.79687-.0274l1.1836-.51562c2.48437-1.08985 4.86328-1.38282 6.8164.92968 1.20313 1.41797 2.08985 3.16407 1.77344 5.08985-.32031 1.88672-1.48047 3.55078-2.91797 4.76562-1.80078 1.51563-4.07422 2.39844-6.39453 2.60938l-.93359-4.33594c1.61328.0312 3.26953-.23437 4.53906-1.30469.87109-.73437 1.43359-1.95312.58594-2.95703-.88281-1.03906-2.64063-.16797-3.62891.27344-2.88672 1.30469-4.93359 1.99609-7.26953-.76953-2.44531-2.89453-1.98047-6.53125.87891-8.94922 1.4375-1.21484 3.58203-2.24609 5.45703-2.59766zm0 0" fill="#334285"/>
      <path id="path54" d="m410.83984 526.11719l.55078-.60547c1.17969-1.30469 2.34766-2.58594.66407-4.1211-1.7461-1.58203-2.84766-.40625-4.11328.98438l-.55079.60547zm-9.61328-2.17578l5-5.5c2.69922-2.96875 5.94531-3.77735 9.11328-.89063 3.26563 2.96875 3.09375 6.02734.2461 9.16406l-1.85157 2.03516 4.58594 4.16406-3.26562 3.59766zm0 0" fill="#334285"/>
      <path id="path56" d="m424.07031 510.70312c2.6875 1.78125 5.96485 1.09766 7.56641-1.32031 1.60156-2.41797.94922-5.70312-1.73438-7.48047-2.15234-1.42187-5.42578-.73828-7.02734 1.67969-1.60156 2.41797-.94922 5.70313 1.19531 7.12109m8.60156-13.02734c5.03907 3.33594 6.19922 9.30469 2.89063 14.30469-3.30859 5.0039-9.26172 6.26172-14.30078 2.92578-4.71094-3.12109-5.28125-9.4375-2.3125-13.92188 2.96875-4.48437 9.00781-6.42578 13.72265-3.30859" fill="#334285"/>
      <path id="path58" d="m437.33594 486.64453l.19922-.42969c.66015-1.4414 1.1289-3.1875-.71875-4.03125-1.85157-.84375-2.85938.65235-3.51954 2.09766l-.19531.42969zm13.8164-5.43359l-2.51172 5.5-8.4414 1.18359-.0195.0469 6.53515 2.98437-2.01562 4.41797-16.9961-7.75781 3.01563-6.60938c1.53516-3.35547 4.29687-5.17187 7.92578-3.51562 2.34375 1.07031 3.77344 3.30468 3.10156 5.91015zm0 0" fill="#334285"/>
      <path id="path60" d="m455.73047 467.19922l-1.4336 4.63672-13.92187-4.30078-1.18359 3.83593-3.92969-1.21484 3.80469-12.30859 3.92968 1.21093-1.18359 3.83594zm0 0" fill="#334285"/>
      <path id="path62" d="m156.95312 342.16016c-1.375.58203-2.61718 1.58593-3.32031 2.94531-.52734 1.01562-.63672 2.68359.55078 3.29687 1.24219.64844 2.5-.59765 3.3125-1.40234l1.15625-1.19141c2.41797-2.51953 5.10547-4.03125 8.55469-2.24218 2.12109 1.10156 4.03516 2.73828 4.59766 5.1875.54687 2.39843-.0156 4.9414-1.12891 7.09375-1.39844 2.68359-3.66406 4.84765-6.32031 6.23046l-3.23828-4.6914c1.9375-.75391 3.77734-1.88281 4.75781-3.77735.67578-1.30078.74219-3.02343-.75391-3.80078-1.55859-.80468-3.22265 1.08985-4.17968 2.10547-2.79297 2.96094-4.88672 4.78516-9.01563 2.64453-4.32812-2.25-5.55859-6.79687-3.34375-11.0664 1.11719-2.15235 3.16016-4.42969 5.21484-5.76563zm0 0" fill="#334285"/>
      <path id="path64" d="m181.97656 326.24219c1.10156-.35547 2.08985-1.01953 2.90235-1.96094 2.42578-2.82813 2.125-7.12109-1.01954-9.81641-.79687-.6914-1.73046-1.11328-2.73828-1.26562zm-4.42578-12.7461c-1.07812.375-2.11328 1.03907-2.92187 1.98438-2.42969 2.82812-2.125 7.12109.39062 9.27734 1.03906.89063 2.1875 1.46094 3.40234 1.66406zm1.30469 19.55469c-2.8125-.14844-5.60547-1.24219-8.09375-3.38281-5.51563-4.73438-5.23047-12.89063-.72656-18.13281 1.89062-2.19922 4.37109-3.71875 7.07421-4.42188l-.27343-4.22656 3.55078-.22656.28515 4.02343c2.57813.0274 5.19922.9375 7.39844 2.82422 5.89844 5.06641 6.42188 12.86328 1.39844 18.71485-1.99219 2.32421-4.42969 3.83984-7.07031 4.46875l.29297 4.16015-3.55079.22266zm0 0" fill="#334285"/>
      <path id="path66" d="m192.89062 289.95312l5.14063-3.54687 17.75781 5.58594.0547-.0352-8.34766-12.08594 5.14063-3.55078 13.64844 19.77344-5.14063 3.54687-17.77344-5.61718-.0547.0391 8.36328 12.10937-5.13672 3.55079zm0 0" fill="#334285"/>
      <path id="path68" d="m242.17578 283.00391l1.3125-.49219c3.49219-1.30469 5.75781-4.33203 4.11328-8.72266-1.50781-4.02344-5.01172-5.29687-8.77344-3.88672l-1.37109.51563zm-12.42187-15.34766l8.29296-3.10938c6.26563-2.34765 13.27344.64063 15.64063 6.96485 2.37109 6.32422-.97656 13.1914-7.21094 15.53125l-8.29297 3.10547zm0 0" fill="#334285"/>
      <path id="path70" d="m273.52734 260.66406l.58203 3.97266 6.96875-1.02344.76563 5.23047-6.96484 1.02344.60156 4.10156 7.34375-1.07813.76953 5.22657-13.52344 1.98828-3.48828-23.76953 13.52344-1.98438.76562 5.23438zm0 0" fill="#334285"/>
      <path id="path72" d="m304.01172 264.46484l.60156.0312c2.03516.11719 4.34766-.13672 4.49609-2.74218.14454-2.60938-2.125-3.1211-4.16015-3.23438l-.60156-.0352zm12.96094 14.00782l-7.75782-.44141-5.36718-9.55859h-.0664l-.51953 9.22656-6.23438-.35547 1.35547-23.98438 9.32031.52735c4.73829.26953 8.20704 2.73047 7.91407 7.84765-.1836 3.3125-2.19141 6.07032-5.62891 6.48047zm0 0" fill="#334285"/>
      <path id="path74" d="m345.47266 260.44531l-4.08594 15.69531c-1.27735 4.90235-4.6875 7.50391-9.83594 6.16016-2.58594-.67187-4.25391-2.48828-5.08594-4.97656l4.4375-2.76172c.4375 1.10156 1.1211 2.39844 1.92188 2.60547 1.78515.46875 2.27734-1.67578 2.61719-2.97266l3.98828-15.32031zm0 0" fill="#334285"/>
      <path id="path76" d="m360.59375 265.41406l6.71875 3.3086 1.14453 7.84375 6.91406-3.875 6.71485 3.30859-13.46094 7.28906-5.09766 10.34766-5.60156-2.75781 5.09375-10.34766zm0 0" fill="#334285"/>
      <path id="path78" d="m401.99219 298.08594c-.30469-1.46094-1.05469-2.8711-2.25-3.82032-.89844-.71875-2.51172-1.14453-3.34766-.0937-.87109 1.09375.11719 2.57032.74609 3.51563l.94922 1.36719c2.00391 2.85547 2.97266 5.78125.55469 8.82812-1.48437 1.86719-3.46094 3.42969-5.96875 3.51172-2.46484.0781-4.85156-.96094-6.74609-2.46875-2.3711-1.88672-4.05469-4.52734-4.90625-7.39844l5.23047-2.27343c.36718 2.04296 1.12109 4.0625 2.79296 5.39062 1.14454.91406 2.82422 1.30859 3.875-.008 1.09375-1.375-.45312-3.375-1.26171-4.50781-2.375-3.3125-3.76172-5.71485-.86719-9.35547 3.03515-3.82032 7.73437-4.15235 11.5-1.15625 1.89453 1.50781 3.73828 3.94922 4.65625 6.22265zm0 0" fill="#334285"/>
      <path id="path80" d="m429.9375 318.47656l4.88281 6.00781-14.85547-.24218-3.24218 16.0664-5.10547-6.27734 3-12.83203-.043-.0469-8.08203 6.57032-3.9375-4.83985 18.63672-15.15625 3.9375 4.84375-7.6875 6.25.043.0508zm0 0" fill="#334285"/>
      <path id="path82" d="m441.89453 347.11719l-3.57812 1.82422 3.19921 6.27343-4.71093 2.40235-3.19922-6.27344-3.69141 1.88281 3.375 6.61328-4.71094 2.40235-6.21093-12.17578 21.39843-10.91797 6.21094 12.17578-4.70703 2.40625zm0 0" fill="#334285"/>
   </g>
</svg>
