<?xml version="1.0" encoding="UTF-8"?>
<!DOCTYPE svg PUBLIC "-//W3C//DTD SVG 1.1//EN" "http://www.w3.org/Graphics/SVG/1.1/DTD/svg11.dtd">
<!-- Creator: CorelDRAW X8 -->
<svg xmlns="http://www.w3.org/2000/svg" xml:space="preserve" width="284.559795707" height="351.419988026" version="1.1" style="shape-rendering:geometricPrecision; text-rendering:geometricPrecision; image-rendering:optimizeQuality; fill-rule:evenodd; clip-rule:evenodd"
viewBox="0 0 10020 12374"
 xmlns:xlink="http://www.w3.org/1999/xlink">
 <defs>
  <style type="text/css">
   <![CDATA[
    .fil0 {fill:#1A3787}
   ]]>
  </style>
 </defs>
 <g id="Layer_x0020_1">
  <metadata id="CorelCorpID_0Corel-Layer"/>
  <path class="fil0" d="M2143 8918l-777 781c178,246 379,473 599,678 21,20 27,57 4,81 -20,20 -53,26 -83,-1 -647,-577 -1113,-1304 -1380,-2129 239,66 478,132 717,197 74,-319 233,-852 345,-1215 210,681 300,1045 575,1608zm6392 -3137l615 0 0 16 0 118 0 146 -134 0 0 -146 -209 0 0 229 153 0 0 134 -153 0 0 255 81 0 0 134 -81 0 -194 0 -78 0 0 -134 78 0 0 -618 -78 0 0 -134zm-7544 0l353 0 0 134 -82 0 0 618 82 0 0 134 -82 0 -194 0 -77 0 0 -134 77 0 0 -618 -77 0 0 -134zm278 427l228 325 -92 0 0 134 375 0 0 -134 -75 0 -250 -365 217 -253 58 0 0 -134 -310 0 0 134 99 0 -250 293zm2934 -646c-48,39 -175,198 -217,316 -70,3 -264,-35 -221,209 3,16 5,36 8,56 111,-36 118,-106 139,-200 11,63 45,107 90,145 28,24 64,35 117,35 157,1 190,-42 225,-169 58,157 89,184 286,203 75,7 123,10 161,-3 52,-16 89,-35 126,-108 52,141 189,164 315,187 177,31 247,35 339,-84 41,140 81,173 261,194 97,12 226,26 275,-81 -6,-5 -13,-9 -19,-14 33,-626 -317,-851 -372,-900 18,-168 3,-325 -28,-447 136,-69 271,-126 406,-145 333,-49 632,22 751,62 -79,-181 -398,-423 -627,-496 -436,-139 -956,85 -1289,347 -262,207 -347,127 -641,496 -45,58 -75,103 -107,176 -53,122 -26,190 22,221zm-423 616c4,22 11,42 21,57 14,21 39,27 66,30 -41,212 -87,463 -149,666 -31,104 -63,208 -88,316 -38,165 37,202 163,227 2,60 4,101 6,140 -64,71 -21,118 2,148 -36,108 31,162 69,165 3,4 5,16 16,45 14,35 22,62 36,94 23,49 66,123 97,161 71,89 175,168 313,198 188,41 347,-11 458,-61 116,218 281,593 426,760 -20,15 -46,34 -66,63 -22,34 -37,81 1,97 37,16 62,-27 70,-66 8,-32 5,-62 2,-86 13,14 25,26 37,36 77,66 227,96 366,103 -19,23 -44,52 -60,91 -17,44 -21,101 25,110 47,9 64,-46 64,-94 0,-42 -14,-79 -23,-106 84,4 164,1 220,-8 -11,27 -28,63 -31,105 -4,47 8,104 56,99 48,-5 48,-63 34,-109 -12,-41 -36,-72 -53,-96 70,-11 134,-30 199,-61 -4,30 -11,69 -3,112 10,48 37,100 82,82 46,-18 30,-75 4,-116 -23,-37 -55,-61 -79,-80 97,-46 195,-117 314,-217 6,28 15,62 35,94 25,42 69,81 105,48 36,-33 2,-80 -37,-110 -30,-22 -63,-34 -90,-43 62,-59 93,-104 106,-149 11,22 26,48 49,71 32,32 81,57 106,19 25,-38 -17,-73 -59,-91 -32,-14 -65,-17 -92,-19 9,-49 0,-101 -7,-173 133,-44 330,-160 412,-399 103,-303 -127,-575 -167,-615 0,-42 84,-480 -534,-861 -50,-31 -88,-54 -102,-70 -5,-19 -5,-39 -5,-57 35,-13 68,-32 92,-72 -65,-53 -74,-173 -81,-248 -30,26 -57,51 -91,63 -43,14 -97,16 -187,5 -189,-22 -222,-77 -264,-182 -78,72 -136,107 -337,71 -94,-16 -155,-35 -204,-64 -43,-25 -75,-69 -108,-113 -22,36 -67,82 -114,98 -44,14 -94,11 -175,4 -193,-19 -218,-58 -280,-178 -40,103 -82,145 -227,144 -61,-1 -104,-13 -139,-43 -25,-22 -44,-57 -63,-99 -21,76 -39,134 -137,164zm2423 345c4,-12 8,-26 11,-41 22,-103 -27,-162 -97,-213 6,85 17,205 86,254zm-2118 178c-34,-40 -58,-94 -65,-145 49,90 118,163 207,218 -75,27 -135,70 -179,131 -1,-23 10,-56 17,-76 -4,-52 -3,-98 20,-128zm-89 -169c168,-10 329,5 484,45 -128,-65 -290,-121 -483,-115 -25,1 -66,7 -64,39 2,32 40,33 63,31zm2230 2582c3,30 4,73 22,116 19,44 57,89 97,62 41,-27 13,-79 -21,-114 -32,-33 -71,-50 -98,-64zm-836 143c2,28 7,68 -3,111 -11,44 -40,92 -81,73 -42,-20 -25,-72 2,-110 25,-35 59,-57 82,-74zm-547 -4288c29,0 53,22 53,49 0,27 -24,48 -53,48 -29,0 -53,-21 -53,-48 0,-27 24,-49 53,-49zm-905 3672c-172,69 -203,211 -88,298 82,62 170,40 207,-23 32,-54 44,-125 70,-155 60,180 361,427 665,431 -213,-60 -392,-148 -491,-384 185,65 367,104 560,60 -562,-75 -756,-211 -969,-368 9,43 35,99 46,141zm397 -3150c20,-41 51,-95 122,-131 127,-66 381,-19 551,-121 95,-56 78,-125 127,-210 489,-126 672,-291 944,-327 177,-24 364,-16 614,22 -134,-150 -409,-253 -698,-227 -261,24 -401,97 -626,199 -39,18 -60,11 -66,-1 -5,-12 0,-27 36,-43 14,-6 34,-15 62,-28 44,-22 78,-38 125,-56 180,-71 321,-108 459,-117 145,-10 355,-1 548,101 -126,-106 -322,-198 -553,-212 -82,-4 -169,2 -262,20 -309,61 -565,212 -776,374 -208,161 -259,115 -456,305 -98,94 -233,239 -265,369 -20,80 5,106 58,122 43,14 35,2 56,-39zm-31 97c-21,-4 -31,-4 -45,4 -41,23 -139,145 -211,294 337,19 682,87 1017,132 306,43 685,89 958,195 3,-593 -306,-952 -898,-1012 -58,120 -240,158 -397,172 -175,16 -303,19 -355,164 -15,41 -34,59 -69,51zm1034 2794c73,53 180,80 249,6 66,-72 69,-180 81,-295l-168 143c-52,43 -128,97 -162,146zm-366 -2018l-136 -20c-51,232 -3,298 82,469 296,599 57,517 -86,780 -37,70 -43,160 -7,242 23,51 82,151 143,140 117,-22 254,-179 294,-274 150,-362 -92,-775 -238,-1107 -51,-64 -65,-121 -52,-230zm287 1994c31,-19 333,-275 357,-315 180,-288 18,-884 -227,-1147 -56,-59 -210,-206 -277,-246 92,263 369,645 219,1043 -21,55 -46,91 -71,126 -72,104 -167,169 -302,216 -4,219 93,247 301,323zm-229 -1984c-2,62 1,108 29,146 53,73 163,125 307,270 123,124 215,226 291,446 186,538 33,594 100,958 15,81 140,193 200,99 65,-105 42,-516 40,-660 -6,-313 -143,-553 -324,-775 -144,-176 -257,-212 -352,-430 -61,-13 -206,-38 -291,-54zm1311 965c125,39 158,190 171,295 6,56 33,48 57,41 30,-9 57,-23 81,-42 34,-29 27,-55 28,-99 0,-163 -99,-376 -234,-506 -142,-136 -377,-279 -397,-325 -18,-43 -8,-70 -9,-93 -101,-29 -128,-46 -627,-162 38,164 474,470 634,890 86,224 5,558 195,560 245,2 134,-437 101,-559zm-2360 86c-37,45 -100,46 -133,55l3 136c68,25 183,86 226,116 -59,88 -97,117 -149,168 4,89 91,228 134,284 241,309 647,194 864,40 -21,-55 -36,-123 -28,-193 -38,-42 -137,-84 -156,-269 -24,-238 144,-296 226,-432 86,-145 -38,-348 -101,-481 -164,-348 -103,-418 -91,-512 -291,-52 -545,-50 -843,-69 -63,232 -107,489 -167,712 -18,70 -93,292 -82,355 10,55 83,77 142,83 65,6 93,-22 120,-34 37,-16 70,-3 35,41zm1980 1021c125,93 233,130 408,134 177,4 536,-227 493,-563 -20,-152 -109,-274 -185,-358 -196,167 -635,605 -716,787zm-1107 -112c99,214 344,717 455,787 64,40 145,63 217,77 228,42 437,8 609,-108 84,-57 146,-89 221,-165 88,-88 106,-140 76,-284 -351,13 -433,-103 -492,-136 -13,-8 -26,-12 -41,-11 -63,3 -142,22 -215,26 -236,15 -244,-31 -388,-85 -58,-22 -237,-61 -335,-163 -28,21 -52,34 -107,62zm156 -4624c877,0 1671,356 2246,931 574,574 930,1368 930,2245 0,877 -356,1671 -930,2246 -575,575 -1369,930 -2246,930 -877,0 -1671,-355 -2246,-930 -574,-575 -930,-1369 -930,-2246 0,-877 356,-1671 930,-2245 575,-575 1369,-931 2246,-931zm2157 1019c-552,-552 -1314,-894 -2157,-894 -843,0 -1605,342 -2157,894 -553,552 -894,1315 -894,2157 0,843 341,1606 894,2158 552,552 1314,893 2157,893 843,0 1605,-341 2157,-893 553,-552 894,-1315 894,-2158 0,-842 -341,-1605 -894,-2157zm-6123 -4608l-887 1727 782 1391 -1 17c-62,1268 -301,2210 -504,3006 -61,238 -119,464 -165,670 -33,150 -60,309 -81,465 -24,180 -40,354 -48,504 -155,2725 1790,3253 2669,3491 73,20 138,37 195,54 412,123 811,243 1171,379 314,118 598,249 835,404 237,-155 521,-286 835,-404 360,-136 759,-256 1171,-379 57,-17 122,-34 195,-54 879,-238 2824,-766 2669,-3491 -8,-150 -24,-324 -48,-504 -21,-156 -48,-315 -81,-465 -46,-206 -104,-432 -165,-670 -203,-796 -442,-1738 -504,-3006l-1 -17 782 -1391 -887 -1727 -7932 0zm3966 12253c-241,-169 -541,-310 -877,-437 -355,-133 -752,-253 -1163,-375 -56,-16 -120,-34 -192,-53 -909,-247 -2919,-792 -2759,-3615 9,-152 25,-330 50,-513 21,-158 48,-321 83,-475 49,-222 105,-441 164,-674 201,-788 438,-1719 501,-2964l-797 -1417c317,-617 634,-1234 951,-1851l8078 0c317,617 634,1234 951,1851l-797 1417c63,1245 300,2176 501,2964 59,233 115,452 164,674 35,154 62,317 84,475 24,183 40,361 49,513 160,2823 -1850,3368 -2759,3615 -72,19 -136,37 -192,53 -411,122 -808,242 -1163,375 -336,127 -636,268 -877,437zm-3833 -12035l-772 1505 755 1343 -4 80c-27,562 -93,1117 -195,1670l1329 0c607,-846 1599,-1397 2720,-1397 1121,0 2113,551 2720,1397l1329 0c-102,-553 -168,-1108 -195,-1670l-4 -80 755 -1343 -772 -1505 -1413 0 0 720 -1440 0 0 -720 -1960 0 0 720 -1440 0 0 -720 -1413 0zm2468 1997l268 791c20,59 36,97 46,111 11,15 27,25 47,30 20,4 49,1 85,-12l23 -7 8 25 -509 172 -8 -25 25 -9c42,-14 69,-28 84,-44 14,-15 22,-32 22,-51 1,-19 -9,-59 -30,-120l-170 -502c-15,-45 -27,-72 -35,-82 -8,-10 -20,-17 -34,-20 -14,-5 -29,-4 -44,1 -25,9 -51,26 -81,53l-21 -20 300 -283 24 -8zm643 928l-3 -22c80,-29 147,-66 199,-110 53,-44 93,-95 120,-154 26,-59 41,-124 46,-196 -29,19 -54,33 -75,42 -20,9 -43,15 -67,18 -76,9 -144,-10 -201,-58 -59,-49 -94,-121 -106,-217 -8,-66 -2,-129 18,-188 21,-59 55,-106 102,-143 47,-37 98,-59 153,-66 59,-8 117,2 174,29 57,27 105,71 144,131 40,60 65,131 75,214 14,106 1,211 -37,315 -39,104 -104,192 -198,264 -93,71 -207,118 -344,141zm365 -546c-3,-56 -7,-105 -12,-147 -12,-91 -33,-174 -63,-250 -18,-41 -39,-71 -65,-89 -14,-9 -30,-12 -50,-10 -25,3 -43,16 -54,40 -15,31 -18,89 -7,171 17,138 45,231 85,279 25,31 56,45 93,40 19,-2 44,-14 73,-34zm986 500l-598 -46 1 -16c201,-205 324,-343 369,-416 44,-72 69,-144 75,-216 4,-53 -9,-98 -39,-135 -30,-37 -68,-57 -115,-61 -77,-6 -140,28 -188,102l-27 -12c34,-94 80,-162 139,-204 58,-42 124,-60 195,-54 52,4 98,19 139,47 40,27 71,62 92,106 21,43 30,83 27,120 -5,66 -29,132 -71,198 -57,88 -177,209 -360,362l220 16c54,4 89,5 106,2 16,-4 30,-10 42,-20 11,-10 26,-31 46,-64l27 2 -80 289zm975 -240c-33,96 -77,182 -132,256 -33,46 -69,81 -108,104 -38,24 -78,39 -119,47 -41,7 -82,4 -123,-9 -46,-16 -84,-42 -114,-79 -29,-36 -51,-81 -65,-135 -10,-40 -14,-89 -11,-148 4,-79 19,-158 45,-235 36,-105 83,-197 142,-274 49,-65 105,-109 167,-131 62,-21 121,-23 176,-5 56,19 102,56 138,111 36,54 54,118 55,190 2,100 -15,202 -51,308zm-218 -76c57,-168 89,-267 97,-296 17,-68 21,-116 11,-145 -7,-20 -23,-34 -50,-43 -21,-7 -39,-6 -54,1 -24,11 -45,36 -66,76 -20,40 -73,185 -158,436 -46,137 -72,230 -78,280 -5,36 -2,62 8,78 9,16 25,28 46,35 24,8 45,6 62,-5 29,-20 54,-57 75,-111l107 -306zm-3037 7123c-222,-139 -444,-278 -667,-417l-142 229 125 78 71 -114 107 67 -252 403 -115 -72 -67 106 116 72 56 36 90 55 56 36 116 72 66 -107 -115 -72 252 -403 106 67 -71 114 125 79 143 -229zm2371 342c251,-76 502,-153 753,-229l78 258 -141 43 -40 -129 -120 37 139 454 130 -39 36 120 -130 39 -64 20 -101 30 -64 20 -129 40 -37 -121 130 -39 -139 -455 -120 37 40 129 -142 43 -79 -258zm1133 -305l113 -76 75 554 -79 53 66 98 338 -230 -66 -97 -95 65 -19 -143 223 -151 119 75 -88 60 65 97 338 -229 -65 -97 -59 39 -463 -291 110 -74 -66 -97 -513 347 66 97zm290 -95l174 110 -146 99 -28 -209zm-2282 582c0,129 0,242 0,370 0,140 278,140 278,0 0,-128 0,-241 0,-370l-95 0 0 -117 417 0 0 117 -95 0c0,129 0,216 0,344 0,366 -732,366 -732,0 0,-128 0,-215 0,-344l-95 0 0 -117 417 0 0 117 -95 0zm-1292 -401l739 259 -77 219 -153 -53 38 -109 -264 -92 -59 169 195 68 -37 105 -195 -68 -66 191 264 92 3 -9 32 -92 153 53 -77 220c-255,-89 -515,-180 -771,-270l42 -118 128 45 107 -306 56 -159 -97 -34 39 -111zm4298 -1230l777 781c-178,246 -379,473 -599,678 -21,20 -27,57 -4,81 20,20 53,26 83,-1 647,-577 1113,-1304 1380,-2129 -239,66 -478,132 -717,197 -73,-319 -233,-852 -345,-1215 -210,681 -300,1045 -575,1608zm-2867 2473c1258,0 2397,-510 3221,-1334 101,-101 197,-206 288,-316 -249,-250 -499,-500 -748,-751l-98 -98c-88,114 -183,222 -284,323 -609,609 -1450,985 -2379,985 -929,0 -1770,-376 -2379,-985 -101,-101 -196,-209 -284,-323l-98 98c-249,251 -498,501 -748,751 91,110 187,215 288,316 825,824 1963,1334 3221,1334z"/>
 </g>
</svg>
