<?xml version="1.0" encoding="UTF-8"?>
<!DOCTYPE svg PUBLIC "-//W3C//DTD SVG 1.1//EN" "http://www.w3.org/Graphics/SVG/1.1/DTD/svg11.dtd">
<!-- Creator: CorelDRAW X7 -->
<svg xmlns="http://www.w3.org/2000/svg" xml:space="preserve" width="243.060416583" height="411.420343163" version="1.1" style="shape-rendering:geometricPrecision; text-rendering:geometricPrecision; image-rendering:optimizeQuality; fill-rule:evenodd; clip-rule:evenodd"
viewBox="0 0 2907 4921"
 xmlns:xlink="http://www.w3.org/1999/xlink">
 <defs>
  <style type="text/css">
   <![CDATA[
    .fil0 {fill:#0059AB}
    .fil4 {fill:#0059AB}
    .fil2 {fill:#FFCA03}
    .fil3 {fill:white}
    .fil1 {fill:#FFCA03;fill-rule:nonzero}
   ]]>
  </style>
 </defs>
 <g id="Layer_x0020_1">
  <metadata id="CorelCorpID_0Corel-Layer"/>
  <g id="_1450522976">
   <path class="fil0" d="M2411 2624l0 1386c-33,61 -68,118 -106,172 -93,132 -200,243 -318,327l0 -2025c-99,-17 -206,-29 -321,-37l0 2215c-69,18 -140,27 -212,27 -72,0 -143,-9 -212,-27l0 -2215c-115,8 -222,20 -322,37l0 2025c-117,-84 -225,-195 -317,-327 -38,-54 -74,-111 -107,-172l0 -1386c-92,49 -179,110 -262,188 0,-16 1,-32 2,-49 89,-78 181,-140 280,-188 468,-229 1407,-229 1875,0 99,48 192,110 280,188 1,17 2,33 3,49 -84,-78 -171,-139 -263,-188zm-1830 -769c-31,-13 -61,-26 -92,-40 6,-11 11,-21 17,-31 30,-54 62,-105 97,-154 92,-132 200,-242 317,-326l0 625 -4 -1c104,25 212,42 326,52l0 -829c69,-18 140,-28 212,-28 72,0 143,10 212,28l0 829c112,-10 219,-27 321,-51l0 -625c118,84 225,194 318,326 34,49 66,100 96,154l0 0c6,10 12,20 17,31 -30,14 -61,27 -91,40 -541,226 -1206,226 -1746,0z"/>
   <path class="fil1" d="M1454 891c409,0 777,232 1040,606 256,362 413,861 413,1409 0,549 -157,1047 -413,1410 -263,374 -631,605 -1040,605 -410,0 -777,-231 -1041,-605 -255,-363 -413,-861 -413,-1410 0,-548 158,-1047 413,-1409 264,-374 631,-606 1041,-606zm851 739c-221,-313 -522,-507 -851,-507 -330,0 -631,194 -851,507 -229,325 -371,776 -371,1276 0,500 142,951 371,1276 220,313 521,507 851,507 329,0 630,-194 851,-507 229,-325 370,-776 370,-1276 0,-500 -141,-951 -370,-1276z"/>
   <g>
    <path class="fil0" d="M1060 3233c-5,-93 -10,-186 -17,-279 -5,-65 -12,-130 -22,-195 -11,-64 -26,-127 -44,-189l-14 -48 46 21c143,65 288,88 445,88 156,0 301,-23 444,-88l46 -21 -14 48c-17,62 -33,125 -43,189 -11,65 -17,130 -22,195 -7,93 -12,186 -18,279l0 4 -2 4c-79,176 -115,372 -115,565 0,213 29,428 130,619l29 55 -58 -22c-122,-47 -248,-55 -377,-55 -130,0 -255,8 -377,55l-58 22 29 -55c101,-191 129,-406 129,-619 0,-193 -36,-389 -115,-565l-1 -4 -1 -4z"/>
    <path class="fil2" d="M1454 4380c-148,0 -268,10 -386,56 95,-180 133,-388 133,-630 0,-212 -43,-409 -117,-575 -22,-343 -23,-451 -85,-667 131,60 272,90 455,90 182,0 323,-30 454,-90 -62,216 -63,324 -84,667 -74,166 -117,363 -117,575 0,242 37,450 132,630 -118,-46 -237,-56 -385,-56z"/>
   </g>
   <g>
    <path class="fil3" d="M1317 4167l0 -48 13 -11 0 -517 -15 -9 0 -38 15 0 0 -94 29 0 0 -149 6 0 0 -110 -10 0 0 -29 7 0 88 -152 4 -7 3 7 88 152 8 0 0 29 -11 0 0 110 10 0 0 149 26 0 0 94 15 0 0 38 -15 9 0 517 13 11 0 48c-92,0 -183,0 -274,0zm202 -976l-28 0 0 110 28 0 0 -110zm-103 0l-27 0 0 110 27 0 0 -110zm51 0l-27 0 0 110 27 0 0 -110z"/>
    <path class="fil0" d="M1530 3473l0 33 -73 0 0 -33 73 0zm39 73l-72 0 0 -34 72 0 0 34zm-230 -34l72 0 0 34 -72 0 0 -34zm0 -39l33 0 0 33 -33 0 0 -33zm230 -6l-230 0 0 -10c76,0 153,0 230,0l0 10zm-34 39l0 -33 34 0 0 33 -34 0zm-157 0l0 -33 73 0 0 33 -73 0zm113 487l0 34 -74 0 0 -34 74 0zm0 -402l0 35 -74 0 0 -35 74 0zm0 -79l0 34 -74 0 0 -34 74 0zm-167 58l260 0 0 -18c-87,0 -174,0 -260,0l0 18zm133 222l0 34 73 0 0 -34 -73 0zm-6 34l0 -34 -73 0 0 34 73 0zm30 332l0 -71c0,-8 -3,-15 -8,-20l0 0c-5,-5 -12,-8 -19,-8l0 0c-8,0 -15,3 -20,8l0 0c-5,5 -8,12 -8,20l0 71c19,0 37,0 55,0zm88 -125l-34 0 0 35 34 0 0 -35zm0 -40l-72 0 0 34 72 0 0 -34zm0 -40l-34 0 0 34 34 0 0 -34zm0 -40l-72 0 0 34 72 0 0 -34zm0 -41l-34 0 0 35 34 0 0 -35zm0 -40l-72 0 0 35 72 0 0 -35zm0 -40l-34 0 0 34 34 0 0 -34zm0 -40l-72 0 0 34 72 0 0 -34zm0 -40l-34 0 0 34 34 0 0 -34zm0 -40l-72 0 0 34 72 0 0 -34zm0 -41l-34 0 0 35 34 0 0 -35zm0 -40l-72 0 0 35 72 0 0 -35zm-234 -6l237 0 12 -7 0 -2 -260 0 0 2 11 7zm4 41l72 0 0 -35 -72 0 0 35zm0 40l33 0 0 -35 -33 0 0 35zm0 40l72 0 0 -34 -72 0 0 34zm0 40l33 0 0 -34 -33 0 0 34zm0 40l72 0 0 -34 -72 0 0 34zm0 40l33 0 0 -34 -33 0 0 34zm0 41l72 0 0 -35 -72 0 0 35zm0 40l33 0 0 -35 -33 0 0 35zm0 40l72 0 0 -34 -72 0 0 34zm0 40l33 0 0 -34 -33 0 0 34zm0 40l72 0 0 -34 -72 0 0 34zm0 41l33 0 0 -35 -33 0 0 35zm0 40l68 0 0 -24c0,-3 1,-7 1,-11l-69 0 0 35zm-13 14l81 0 0 -8 -72 0 -9 8zm81 36l0 -31 -81 0 0 31 81 0zm87 0l0 -74c0,-11 -4,-21 -12,-28l0 0c-7,-8 -17,-12 -28,-12 -12,0 -22,4 -29,12l0 0c-7,7 -12,17 -12,28l0 74 8 0 0 -71c0,-10 3,-18 9,-24l0 0c6,-6 15,-10 24,-10l0 0c9,0 17,4 23,10l0 0c6,6 10,14 10,24l0 71 7 0zm-177 9l0 -48 13 -11 0 -517 -15 -9 0 -38 15 0 0 -94 29 0 0 -149 6 0 0 -110 -10 0 0 -29 7 0 88 -152 4 -7 3 7 88 152 8 0 0 29 -11 0 0 110 10 0 0 149 26 0 0 94 15 0 0 38 -15 9 0 517 13 11 0 48c-92,0 -183,0 -274,0zm265 -40l-82 0 0 31 82 0 0 -31zm-10 -13l-72 0 0 8 81 0 -9 -8zm-73 -41c1,4 1,8 1,11l0 24 69 0 0 -35 -70 0zm-45 -35c13,0 24,5 33,13l0 0c4,5 8,10 10,17l33 0 0 -35 -152 0 0 35 32 0c3,-7 6,-12 11,-17l0 0c8,-8 20,-13 33,-13zm-3 -57l-9 0 0 -28 -64 0 0 34 73 0 0 -6zm14 -28l0 28 -8 0 0 6 73 0 0 -34 -65 0zm-23 -21l23 0 0 15 26 0 0 -34 -74 0 0 34 25 0 0 -15zm9 -49l-9 0 0 -11 -64 0 0 35 73 0 0 -24zm14 -11l0 11 -8 0 0 24 73 0 0 -35 -65 0zm-23 -39l23 0 0 34 26 0 0 -35 -74 0 0 35 25 0 0 -34zm23 -81l0 33 -23 0 0 -33 -25 0 0 34 74 0 0 -34 -26 0zm-8 -17l8 0 0 11 65 0 0 -34 -73 0 0 23zm8 -63l0 14 -23 0 0 -14 -25 0 0 34 74 0 0 -34 -26 0zm-8 -35l8 0 0 29 65 0 0 -35 -73 0 0 6zm-15 0l9 0 0 -6 -73 0 0 35 64 0 0 -29zm-6 469c3,0 5,2 5,5 0,2 -2,5 -5,5 -3,0 -5,-3 -5,-5 0,-3 2,-5 5,-5zm15 -461l6 0 0 33 -6 0 0 -33zm0 99l6 0 0 32 -6 0 0 -32zm0 98l6 0 0 32 -6 0 0 -32zm0 99l6 0 0 32 -6 0 0 -32zm0 -206l0 -23 -73 0 0 34 64 0 0 -11 9 0zm37 -389c-8,-8 -20,-13 -33,-13 -12,0 -24,5 -32,13 -9,9 -14,20 -14,33 0,13 5,25 14,33 8,8 20,14 32,14 13,0 25,-6 33,-14 9,-8 14,-20 14,-33 0,-13 -5,-24 -14,-33zm-71 -2c0,0 1,-1 1,-2l1 0c8,-8 20,-14 33,-15l0 -19 -79 0 44 36zm-14 32c1,-10 4,-20 10,-27l-45 -37 0 64 35 0zm10 34c-6,-8 -9,-18 -10,-28l-35 0 0 65 45 -37zm39 21c-13,0 -25,-6 -33,-15l-1 0c0,0 -1,-1 -1,-2l-44 36 76 0 3 0 0 -19zm42 -17c-1,1 -1,2 -2,2l0 0c-9,9 -20,15 -34,15l0 19 1 0 79 0 -44 -36zm13 -32c0,10 -4,20 -9,28l45 37 0 -65 -36 0zm-9 -33c5,7 9,17 9,27l36 0 0 -64 -45 37zm-40 -22c14,1 25,7 34,15l0 0c1,1 1,2 2,2l44 -36 -80 0 0 19zm-3 46c1,0 2,1 3,1l15 -12c1,-1 3,-1 4,0 1,1 1,3 0,4l-16 12c0,1 0,1 0,1 0,1 0,1 0,2l21 21c1,2 1,3 0,5 -1,1 -3,1 -4,-1l-21 -21c-1,0 -1,0 -2,0 -3,0 -5,-3 -5,-6 0,-3 2,-6 5,-6zm-21 -72l0 -110 -12 0 0 110 12 0zm103 0l0 -110 -13 0 0 110 13 0zm-154 0l0 -110 -12 0 0 110 12 0zm102 0l0 -110 -12 0 0 110 12 0zm-69 -110l-27 0 0 110 27 0 0 -110zm51 0l-27 0 0 110 27 0 0 -110zm52 0l-28 0 0 110 28 0 0 -110zm-157 -6l183 0 0 -17 -183 0 0 17zm173 -23l-81 -141 -82 141 163 0z"/>
   </g>
   <g>
    <path class="fil0" d="M1223 2988c-7,-19 -12,-38 -19,-56 -3,-6 -14,-10 -18,-17 -6,-12 -11,-24 -15,-35l-1 -2 2 -1c7,-3 15,-6 22,-9l-20 -57 -16 -14 0 0c-4,-12 -9,-23 -12,-34l-1 -2 2 -1c11,-4 21,-7 32,-11l2 -1 6 21 7 -2 -7 -21 1 0c12,-4 25,-8 37,-11l1 -1 7 21 6 -2 -6 -20 1 -1c11,-3 22,-5 32,-8l2 0 1 1c2,12 7,23 9,35l0 0 -4 20 15 61c1,0 2,0 2,-1l2 0 6 27 10 -2 -5 -27 1 0c13,-3 26,-5 39,-6l2 -1 3 27 11 -2 -4 -26 2 0c10,-1 21,-2 31,-3l0 -67 -11 -10 0 -38 30 0 0 19 9 0 0 -19 30 0 0 19 7 0 7 0 0 -19 29 0 0 19 10 0 0 -19 30 0 0 38 -12 10 0 67c11,1 21,2 31,3l2 0 -4 26 11 2 4 -27 2 1c12,1 25,3 38,6l2 0 -6 27 11 2 5 -27 2 0c1,1 2,1 2,1l16 -61 -5 -20 0 0c3,-12 7,-23 10,-35l0 -1 2 0c11,3 21,5 32,8l2 1 -7 20 6 2 7 -21 2 1c12,3 24,7 36,11l2 0 -7 21 6 2 7 -21 2 1c10,4 21,7 31,11l2 1 -1 2c-3,11 -7,22 -12,34l0 0 -15 14 -21 57c8,3 15,6 23,9l1 1 0 2c-5,11 -10,23 -16,35 -3,7 -15,11 -17,17 -8,18 -13,37 -19,56 4,2 9,3 13,5l2 0 -1 2c-3,8 -6,16 -9,24l0 1 -2 0c-75,-25 -155,-36 -234,-36 -80,0 -159,11 -235,36l-1 0 -1 -1c-3,-8 -6,-16 -9,-24l-1 -2 2 0c5,-2 9,-3 14,-5zm231 -91l-4 0c-7,0 -14,3 -19,9 -1,1 -1,2 -2,3 -2,4 -4,8 -4,12l0 33c10,0 19,0 29,0 9,0 19,0 28,0l0 -33c0,-4 -1,-8 -3,-12 -1,-1 -2,-2 -3,-3 -5,-6 -12,-9 -19,-9l-3 0z"/>
    <path class="fil3" d="M1454 2745l-71 0 0 -29 21 0 0 19 18 0 0 -19 21 0 0 19c6,0 4,0 11,0 6,0 4,0 11,0l0 -19 21 0 0 19 18 0 0 -19 21 0 0 29 -71 0zm0 32l7 0 0 33 -7 0 -7 0 0 -33 7 0zm0 181c17,1 35,1 52,2l1 0c54,4 108,13 161,28l1 0c8,3 17,5 25,8 -2,6 -5,13 -7,19 -74,-24 -151,-34 -229,-35 0,0 -3,0 -4,0 -2,0 -4,0 -5,0 -77,1 -155,11 -228,35 -3,-6 -5,-13 -8,-19 9,-3 17,-5 26,-8l0 0c54,-15 108,-24 161,-28l1 0c18,-1 35,-1 53,-2zm32 -181l14 0 0 33 -14 0 0 -33zm211 32l13 5 -9 30 -13 -5 9 -30zm-44 -13l14 5 -8 30 -14 -4 8 -31zm-170 -15l-4 0 -3 0 -2 0 0 -21 39 0 0 21 -10 0 0 -7 -20 0 0 7zm-4 4l4 0 0 18 -4 0 -3 0 -9 0 -3 0 0 -18 3 0 9 0 3 0zm24 0l10 0 0 18 -10 0 0 -18zm-49 -25l17 0 0 21 -7 0 0 -7 -10 0 -10 0 0 7 -7 0 0 -21 17 0zm0 96l13 0 0 -27c10,0 18,0 27,1l0 26 24 2 0 -27c10,1 18,2 28,3l-4 26 20 3 4 -27c11,2 22,4 32,6l-5 26 19 4 6 -27c10,2 20,5 30,7l-9 26 21 6 8 -26c9,3 15,4 23,7l-9 26 20 7 10 -25c7,2 13,4 19,7 -3,10 -7,20 -12,29 -16,-6 -33,-11 -50,-16 -24,-7 -47,-13 -66,-17 -26,-5 -52,-8 -78,-10 -23,-2 -47,-3 -71,-3 -25,0 -48,1 -72,3 -26,2 -52,5 -78,10 -18,4 -42,10 -66,17 -16,5 -34,10 -50,16 -4,-9 -8,-19 -12,-29 7,-3 13,-5 20,-7l10 25 19 -7 -9 -26c9,-3 15,-4 23,-7l8 26 21 -6 -8 -26c10,-2 20,-5 30,-7l5 27 20 -4 -6 -26c11,-2 22,-4 33,-6l4 27 19 -3 -4 -26c10,-1 18,-2 28,-3l1 27 23 -2 0 -26c9,-1 18,-1 27,-1l0 27 14 0zm0 10c24,0 48,1 71,3 26,2 52,5 78,10 18,4 41,10 65,17 17,4 34,10 50,16l-1 1c-2,5 -9,8 -14,12 -71,-26 -143,-39 -214,-43 -9,-6 -19,-9 -30,-9l-5 0 -5 0c-12,0 -22,3 -30,9 -71,4 -143,17 -215,43 -5,-4 -12,-7 -14,-12l0 -1c16,-6 33,-12 49,-16 24,-7 48,-13 66,-17 26,-5 51,-8 77,-10 24,-2 47,-3 72,-3zm246 63c0,0 -1,1 -1,2 -2,5 -4,10 -5,15 -12,-4 -24,-8 -36,-12l6 -17c12,4 24,8 36,12zm-39 -13l-6 17c-13,-4 -26,-7 -39,-10l4 -18c13,4 27,7 41,11zm-44 -11l-4 17c-11,-2 -22,-4 -33,-6 -4,-1 -9,-2 -13,-2l2 -19c16,3 32,6 48,10zm-51 -10l-3 18c-11,-2 -23,-3 -35,-4l1 -19c12,1 24,3 37,5zm-40 -5l-1 18c-7,0 -13,-1 -19,-1 -2,-8 -6,-14 -12,-19 11,0 21,1 32,2zm152 54c5,1 10,3 15,5 -2,5 -4,11 -6,17 -5,-2 -9,-4 -14,-5l5 -17zm-41 -13c13,4 25,8 38,12l-5 17c-13,-4 -26,-7 -38,-10l5 -19zm-45 -10c14,3 28,6 42,10l-5 18c-14,-3 -27,-5 -40,-8l3 -20zm-45 -7c11,1 22,3 32,5 4,0 7,1 10,2l-4 20c-2,-1 -5,-1 -8,-1 -10,-2 -21,-3 -32,-5l2 -21zm-41 -4c13,1 26,2 38,4l-2 21c-12,-1 -23,-2 -35,-3l0 -13c0,-3 0,-6 -1,-9zm145 48c11,3 23,7 35,10 -2,6 -4,12 -6,18 -11,-3 -23,-6 -35,-9l6 -19zm-41 -9c13,2 25,5 38,8l-6 19c-12,-3 -24,-5 -36,-8l4 -19zm-46 -8c4,0 8,1 13,2 10,1 20,3 30,5l-4 20c-14,-3 -28,-5 -42,-7l3 -20zm-38 -4c12,1 23,2 34,3l-2 20c-11,-1 -22,-2 -33,-3l1 -20zm-19 -2c6,1 11,1 16,1l-1 20c-5,0 -10,0 -15,-1l0 -20zm-53 -59l5 0c25,0 45,19 45,43l0 36c-6,0 -11,-1 -17,-1l0 -33c0,-16 -13,-28 -30,-28l-3 0 -4 0c-16,0 -30,12 -30,28l0 33c-5,0 -11,1 -17,1l0 -36c0,-24 21,-43 46,-43l5 0zm0 20l3 0c8,0 16,3 21,9 0,0 1,1 2,3 2,4 4,8 4,13l0 8 0 2 0 23c-10,0 -20,-1 -30,-1 -10,0 -20,1 -30,1l0 -23 0 -2 0 -8c0,-5 1,-9 3,-13 2,-2 3,-3 3,-3 5,-6 12,-9 20,-9l4 0zm10 -90l7 0 0 20c-2,0 -4,-1 -6,-1l0 27 -11 0 -11 0 0 -27c-2,0 -4,1 -6,1l0 -20 7 0 0 6 10 0 10 0 0 -6zm49 0l0 22 0 25 0 0 -15 -1 0 -26c-8,0 -16,0 -24,0l0 -20 5 0 4 0 0 8 20 0 0 -8 10 0zm11 -58l-10 9 -60 0 -60 0 -11 -9 71 0 70 0zm99 94l5 -20c5,2 10,3 14,4l-1 3 20 6 1 -4c3,1 6,2 9,3l0 0 -6 20 0 0 -8 25 -13 -3 8 -27c-9,-2 -19,-5 -29,-7zm92 7l-16 43 -12 -4 9 -25c-9,-3 -17,-6 -26,-9l6 -18c3,1 5,1 9,2l-1 3 19 7 1 -3c4,1 7,2 11,4zm-72 -26c-5,-1 -9,-2 -14,-4l5 -21c5,1 10,3 15,4l-6 21zm43 12c-5,-1 -9,-2 -14,-4 -3,-1 -6,-2 -9,-3l5 -21c4,1 7,2 10,3 5,2 9,3 14,4l-6 21zm37 -10l-7 21c-4,-2 -7,-3 -11,-4l6 -21c4,1 8,3 12,4zm-43 -17l-1 -1c-3,-1 -7,-2 -10,-3l2 -6 -20 -6 -2 7c-4,-1 -9,-3 -14,-4l3 -13c14,4 28,8 42,12 1,0 3,1 4,1l-4 13zm49 2l-5 12c-4,-1 -8,-3 -12,-4l2 -6 -20 -7 -1 6c-4,-1 -5,-1 -9,-2l4 -13c14,5 27,9 41,14zm14 -14l-13 11c-16,-5 -32,-11 -49,-16 -14,-4 -28,-8 -42,-12l-4 -16c17,4 35,9 52,14 19,6 38,12 56,19zm13 -32c-3,10 -7,20 -11,30 -18,-7 -38,-14 -57,-20 -18,-5 -36,-10 -54,-14 3,-10 6,-20 9,-30 8,2 17,4 25,6l-6 20 15 5 7 -21c10,3 20,6 30,9l-6 21 15 5 7 -20c9,3 17,6 26,9zm-335 13l-14 0 0 33 14 0 0 -33zm-210 32l-13 5 8 30 14 -5 -9 -30zm43 -13l-13 5 8 30 13 -4 -8 -31zm170 -15l4 0 3 0 2 0 0 -21 -39 0 0 21 10 0 0 -7 20 0 0 7zm4 4l-4 0 0 18 4 0 3 0 10 0 3 0 0 -18 -3 0 -10 0 -3 0zm-24 0l-10 0 0 18 10 0 0 -18zm-197 144c1,0 1,1 1,2 2,5 4,10 6,15 11,-4 23,-8 35,-12l-5 -17c-12,4 -25,8 -37,12zm40 -13l5 17c13,-4 26,-7 39,-10l-3 -18c-14,4 -28,7 -41,11zm44 -11l4 17c11,-2 21,-4 32,-6 5,-1 9,-2 14,-2l-2 -19c-16,3 -32,6 -48,10zm51 -10l2 18c12,-2 24,-3 35,-4l-1 -19c-12,1 -24,3 -36,5zm40 -5l1 18c6,0 12,-1 19,-1 2,-8 6,-14 11,-19 -10,0 -21,1 -31,2zm-153 54c-5,1 -9,3 -14,5 2,5 3,11 5,17 5,-2 10,-4 15,-5l-6 -17zm42 -13c-13,4 -26,8 -39,12l6 17c12,-4 25,-7 38,-10l-5 -19zm44 -10c-14,3 -27,6 -41,10l5 18c13,-3 27,-5 40,-8l-4 -20zm45 -7c-11,1 -21,3 -32,5 -3,0 -6,1 -10,2l4 20c3,-1 5,-1 8,-1 11,-2 22,-3 32,-5l-2 -21zm41 -4c-13,1 -25,2 -38,4l2 21c12,-1 23,-2 35,-3l0 -13c0,-3 0,-6 1,-9zm-144 48c-12,3 -24,7 -36,10 2,6 4,12 6,18 12,-3 24,-6 36,-9l-6 -19zm40 -9c-12,2 -25,5 -37,8l6 19c12,-3 24,-5 35,-8l-4 -19zm47 -8c-5,0 -9,1 -13,2 -10,1 -21,3 -31,5l5 20c14,-3 27,-5 41,-7l-2 -20zm37 -4c-11,1 -23,2 -34,3l2 20c11,-1 22,-2 33,-3l-1 -20zm19 -2c-5,1 -10,1 -16,1l2 20c4,0 9,0 14,-1l0 -20zm-6 -129l0 22 0 25 1 0 14 -1 0 -26c8,0 16,0 24,0l0 -20 -5 0 -4 0 0 8 -20 0 0 -8 -10 0zm-110 36l-5 -20c-5,2 -9,3 -14,4l1 3 -19 6 -1 -4c-4,1 -7,2 -10,3l0 0 7 20 0 0 7 25 13 -3 -8 -27c9,-2 20,-5 29,-7zm-91 7l15 43 12 -4 -8 -25c9,-3 16,-6 26,-9l-7 -18c-3,1 -5,1 -8,2l1 3 -20 7 -1 -3c-3,1 -7,2 -10,4zm71 -26c5,-1 10,-2 14,-4l-5 -21c-5,1 -9,3 -14,4l5 21zm-42 12c4,-1 9,-2 13,-4 3,-1 7,-2 10,-3l-6 -21c-3,1 -7,2 -10,3 -4,2 -9,3 -13,4l6 21zm-38 -10l7 21c4,-2 8,-3 11,-4l-6 -21c-4,1 -8,3 -12,4zm44 -17l0 -1c4,-1 7,-2 10,-3l-1 -6 19 -6 2 7c5,-1 10,-3 14,-4l-3 -13c-14,4 -28,8 -42,12 -1,0 -2,1 -3,1l4 13zm-49 2l4 12c4,-1 8,-3 13,-4l-2 -6 19 -7 2 6c3,-1 5,-1 8,-2l-4 -13c-14,5 -27,9 -40,14zm-15 -14l13 11c16,-5 33,-11 49,-16 14,-4 28,-8 43,-12l4 -16c-18,4 -35,9 -53,14 -19,6 -37,12 -56,19zm-12 -32c3,10 6,20 10,30 19,-7 38,-14 57,-20 18,-5 36,-10 54,-14 -2,-10 -6,-20 -9,-30 -8,2 -17,4 -25,6l7 20 -16 5 -7 -21c-10,3 -20,6 -30,9l7 21 -16 5 -7 -20c-8,3 -17,6 -25,9z"/>
   </g>
   <path class="fil4" d="M459 2348l0 -247 50 0 0 109 101 -109 67 0 -93 96 98 151 -65 0 -68 -116 -40 41 0 75 -50 0zm248 0l0 -47 47 0 0 47 -47 0zm97 0l0 -247 170 0 0 42 -120 0 0 58 104 0 0 42 -104 0 0 105 -50 0zm172 0l0 -47 47 0 0 47 -47 0zm249 0l0 -205 -74 0 0 -42 197 0 0 42 -73 0 0 205 -50 0zm153 0l0 -247 51 0 0 247 -51 0zm98 0l0 -247 106 0c26,0 45,2 57,6 12,5 22,13 29,24 7,12 11,24 11,39 0,19 -5,34 -16,46 -11,12 -27,20 -49,23 11,6 20,13 27,21 7,7 16,21 28,40l30 48 -60 0 -36 -54c-12,-19 -21,-31 -26,-36 -5,-5 -10,-8 -15,-10 -5,-2 -14,-3 -25,-3l-11 0 0 103 -50 0zm50 -142l37 0c24,0 39,-2 45,-4 6,-2 11,-5 14,-10 4,-5 5,-11 5,-19 0,-8 -2,-15 -6,-20 -5,-5 -11,-8 -19,-10 -4,0 -16,0 -36,0l-40 0 0 63zm423 142l-54 0 -21 -56 -100 0 -20 56 -53 0 96 -247 53 0 99 247zm-91 -98l-35 -92 -33 92 68 0zm118 98l0 -247 48 0 102 166 0 -166 47 0 0 247 -50 0 -101 -162 0 162 -46 0zm473 0l-54 0 -22 -56 -99 0 -20 56 -54 0 97 -247 53 0 99 247zm-92 -98l-34 -92 -34 92 68 0z"/>
   <path class="fil0" d="M1278 4334l0 -14 0 -10 0 -13 0 -61 -21 11c-2,1 -3,1 -4,1 -1,1 -2,0 -3,0 0,-1 -1,-2 -1,-3 0,-2 0,-4 0,-6 0,-2 0,-3 0,-4 0,-1 0,-2 1,-3 0,0 0,-1 1,-1 0,-1 1,-1 2,-2l28 -18c1,0 1,0 2,-1 0,0 1,0 2,0 1,0 2,0 3,0 1,0 3,0 5,0 3,0 5,0 7,0 1,0 3,0 3,0 1,1 2,1 2,1 0,1 0,1 0,2l0 84 0 11 0 12 0 14 0 3c0,0 0,1 0,1 0,1 -1,1 -2,1 0,1 -2,1 -3,1 -5,0 -11,0 -16,0 -2,0 -3,0 -4,-1 -1,0 -1,0 -1,-1 -1,0 -1,-1 -1,-1l0 -3zm163 -65c0,6 -1,11 -1,17 -1,5 -2,11 -3,16 -2,6 -4,11 -7,16 -3,5 -6,9 -10,12 -5,4 -10,7 -16,9 -6,2 -14,3 -22,3 -3,0 -6,0 -9,0 -3,-1 -6,-1 -8,-2 -2,0 -4,-1 -6,-2 -2,0 -3,-1 -4,-2 -1,0 -1,-1 -2,-3 0,-1 0,-3 0,-5 0,-3 0,-4 0,-6 0,-1 0,-2 1,-3 0,-1 0,-1 1,-1 0,0 1,-1 2,-1 0,0 2,1 3,1 2,1 3,1 6,2 2,0 4,1 7,1 3,1 6,1 9,1 6,0 11,-1 15,-3 4,-2 7,-5 10,-8 2,-4 4,-7 5,-12 2,-4 2,-9 2,-14 -3,2 -7,4 -11,5 -5,1 -10,2 -16,2 -7,0 -13,-1 -18,-3 -5,-1 -9,-4 -12,-7 -3,-4 -5,-8 -7,-13 -1,-5 -2,-10 -2,-16 0,-7 1,-13 3,-18 2,-5 5,-10 9,-14 4,-4 9,-7 15,-9 6,-3 12,-4 20,-4 6,0 12,1 16,2 5,2 9,4 12,6 4,3 7,6 9,10 2,4 4,8 5,12 1,5 2,10 3,15 0,5 1,11 1,16zm-27 -3c0,-7 -1,-13 -2,-18 0,-5 -2,-9 -3,-12 -2,-2 -4,-4 -7,-6 -2,-1 -5,-1 -8,-1 -4,0 -6,0 -9,1 -2,1 -4,3 -6,5 -1,2 -2,4 -3,7 -1,3 -1,6 -1,9 0,3 0,6 1,9 0,3 2,5 3,7 1,2 3,3 5,4 3,1 6,1 9,1 4,0 8,-1 11,-2 4,-1 7,-2 10,-4zm134 63c0,2 0,4 0,5 0,2 -1,3 -1,4 0,1 -1,1 -1,1 -1,1 -2,1 -2,1l-77 0c-2,0 -3,0 -4,0 -1,-1 -2,-1 -3,-2 -1,-1 -1,-2 -2,-3 0,-2 0,-4 0,-6 0,-2 0,-4 0,-6 1,-1 1,-3 1,-4 1,-1 2,-2 3,-3 0,-2 2,-3 3,-4l23 -24c5,-5 9,-9 11,-13 3,-4 6,-7 7,-11 2,-3 3,-6 3,-8 1,-3 1,-5 1,-8 0,-2 0,-4 -1,-6 -1,-2 -2,-4 -3,-5 -1,-2 -3,-3 -5,-4 -3,-1 -5,-1 -8,-1 -4,0 -8,1 -11,2 -3,1 -6,2 -8,3 -2,1 -4,2 -6,3 -2,1 -3,2 -4,2 0,0 -1,0 -1,-1 -1,0 -1,-1 -1,-2 -1,-1 -1,-2 -1,-3 0,-2 0,-4 0,-6 0,-2 0,-3 0,-4 0,-1 0,-2 0,-3 0,-1 1,-1 1,-2 0,0 1,-1 2,-2 1,-1 2,-2 5,-3 2,-1 5,-2 8,-4 4,-1 7,-2 11,-2 4,-1 9,-2 13,-2 7,0 13,1 18,3 6,2 10,4 13,7 4,3 7,7 8,11 2,4 3,8 3,13 0,4 -1,9 -1,13 -1,4 -3,8 -6,13 -2,4 -6,10 -11,15 -5,6 -11,13 -19,20l-15 16 52 0c1,0 2,0 2,0 1,1 1,1 2,2 0,1 1,2 1,3 0,2 0,3 0,5zm110 -54c0,10 0,19 -2,28 -2,8 -5,15 -9,21 -4,6 -9,10 -15,14 -6,3 -14,4 -23,4 -9,0 -17,-1 -23,-4 -6,-3 -10,-8 -14,-13 -4,-6 -6,-13 -7,-21 -2,-8 -3,-18 -3,-28 0,-10 1,-20 3,-28 2,-9 5,-16 9,-21 4,-6 9,-11 15,-14 6,-3 14,-5 23,-5 9,0 17,2 23,5 6,3 10,7 14,13 4,6 6,13 7,21 2,8 2,17 2,28zm-27 1c0,-6 0,-11 0,-16 -1,-5 -1,-9 -2,-12 -1,-4 -2,-7 -3,-9 -1,-2 -2,-4 -4,-6 -1,-1 -3,-2 -5,-3 -2,0 -4,-1 -6,-1 -4,0 -8,1 -11,3 -2,2 -4,5 -6,9 -1,3 -3,8 -3,14 -1,5 -1,12 -1,20 0,9 0,16 1,22 1,6 2,11 4,15 1,3 3,6 6,7 2,2 6,2 9,2 3,0 5,0 7,-1 2,-1 4,-2 6,-4 1,-1 3,-3 4,-6 1,-2 2,-5 2,-9 1,-3 1,-7 2,-11 0,-4 0,-9 0,-14z"/>
   <path class="fil2" d="M919 0l119 254 279 35 -205 191 53 276 -246 -136 -245 136 52 -276 -204 -191 278 -35 119 -254zm1069 0l119 254 278 35 -204 191 53 276 -246 -136 -245 136 52 -276 -204 -191 278 -35 119 -254z"/>
  </g>
 </g>
</svg>
