<?xml version="1.0" encoding="UTF-8" standalone="no"?>
<svg
   xmlns:dc="http://purl.org/dc/elements/1.1/"
   xmlns:cc="http://creativecommons.org/ns#"
   xmlns:rdf="http://www.w3.org/1999/02/22-rdf-syntax-ns#"
   xmlns:svg="http://www.w3.org/2000/svg"
   xmlns="http://www.w3.org/2000/svg"
   version="1.1"
   id="svg2"
   xml:space="preserve"
   width="176.77089"
   height="254"
   viewBox="0 0 176.77089 254"><metadata
     id="metadata8"><rdf:RDF><cc:Work
         rdf:about=""><dc:format>image/svg+xml</dc:format><dc:type
           rdf:resource="http://purl.org/dc/dcmitype/StillImage" /><dc:title></dc:title></cc:Work></rdf:RDF></metadata><defs
     id="defs6"><clipPath
       clipPathUnits="userSpaceOnUse"
       id="clipPath20"><path
         d="M 0,0 H 3519 V 5809.52 H 0 Z"
         id="path18" /></clipPath></defs><g
     transform="matrix(0.36817959,0,0,0.36817959,2.0000634,-33.191862)"
     id="g113"><path
       id="path22"
       style="fill:#a41d34;fill-opacity:1;stroke:none;stroke-width:0.13333333;stroke-opacity:1"
       d="M 0.65052132,129.74002 0.00468751,562.91067 c 0,0 -3.36042071,177.99866 166.64997249,205.57578 226.72133,37.67755 278.05333,-111.11711 278.05333,-111.11711 0,0 24.62666,-58.396 23.03733,-107.06 2.384,-54.34133 1.23467,-393.14532 1.23467,-393.14532 0,0 -40.38,40.86266 -114.344,18.45733 -55.21866,-21.68533 -68.94266,-33.37333 -99.05866,-46.984 C 171.07066,87.297351 96.735464,81.526684 0.65052132,129.74002" /><path
       id="path24"
       style="fill:#14c0f1;fill-opacity:1;stroke:none;stroke-width:0.13333333;stroke-opacity:1"
       d="m 468.40265,347.54668 c -33.87999,23.9 -79.49333,33.13466 -132.51733,33.13466 -8.29066,0 -16.05466,-0.516 -23.29199,-1.38133 15.00133,8.62933 23.20533,18.89867 28.32133,37.27733 -10.58533,-4.83066 -20.99733,-7.42266 -27.96667,-7.42266 -15.17466,-0.0853 -29.468,10.27066 -28.852,25.97333 0.44134,10.096 8.032,19.07066 19.32267,23.644 25.676,10.26933 51.87866,17.948 75.7,32.36 47.37866,28.904 56.99333,64.54266 56.99333,94.39999 0,38.82934 -17.82267,86.19867 -58.228,120.71747 -32.46667,27.69586 -79.49466,47.11306 -143.636,47.11306 -69.87599,0 -123.86933,-27.09586 -160.130259,-66.35573 C 39.002666,648.95054 20.650533,599.42 20.650533,552.22134 c 0,-66.35333 33.085466,-122.70133 82.493727,-158.856 36.26107,-26.49066 86.01974,-42.36533 128.54773,-41.936 -25.676,-12.16666 -52.93733,-23.556 -95.72666,-23.556 -47.289866,0 -96.522131,18.984 -135.8721008,65.32 V 278.42801 c 33.6155698,-19.75866 83.3775688,-33.824 131.7229008,-33.824 65.2012,0 99.43186,24.68 130.5772,49.44534 31.32133,24.67599 59.64266,49.44133 113.01999,49.44133 33.612,0 65.992,-14.23734 92.98933,-32.272 z m -218.27199,35.29333 c -63.08266,13.2 -127.92906,71.96133 -127.92906,138.31866 0,74.124 69.52106,118.73067 127.39839,118.73067 46.05467,0 91.848,-19.67334 91.93333,-71.09733 0,-40.128 -28.32133,-55.14 -62.73066,-67.824 -30.26133,-11.22 -52.22933,-39.52134 -52.49467,-72.05067 -0.0853,-17.432 7.94,-35.46533 23.82267,-46.07733" /><path
       id="path26"
       style="fill:#ffffff;fill-opacity:1;fill-rule:evenodd;stroke:none;stroke-width:0.13333333"
       d="m 248.81466,700.30787 c -1.26133,0 -2.284,2.28533 -2.284,5.09893 0,2.81813 1.02267,5.10253 2.284,5.10253 1.26133,0 2.284,-2.2844 2.284,-5.10253 0,-2.8136 -1.02267,-5.09893 -2.284,-5.09893 m -2.58,-21 12.43333,0.14267 -7.304,12.73333 c 11.568,-2.29227 19.39867,26.15213 -1.58,27.1744 -14.64666,-0.0692 -14.36933,-17.1556 -11.44533,-23.33427 l 7.896,-16.71613" /><path
       id="path28"
       style="fill:#ffffff;fill-opacity:1;fill-rule:evenodd;stroke:none;stroke-width:0.13333333"
       d="m 204.06666,679.63854 -0.20533,38.19839 -10.344,-0.15986 0.024,-29.612 -4.32133,-0.0495 -0.007,-8.3396 14.85333,-0.0375" /><path
       id="path30"
       style="fill:#ffffff;fill-opacity:1;fill-rule:evenodd;stroke:none;stroke-width:0.13333333"
       d="m 264.09866,679.65827 -0.15467,9.1444 11.796,-0.22813 -13.26666,29.00933 12.088,0.3188 14.936,-38.34693 -25.39867,0.10253" /><path
       id="path32"
       style="fill:#ffffff;fill-opacity:1;fill-rule:evenodd;stroke:none;stroke-width:0.13333333"
       d="m 221.90799,687.13854 c 1.26134,0 2.284,2.28546 2.284,5.10266 0,2.81707 -1.02266,5.09894 -2.284,5.09894 -1.26133,0 -2.28533,-2.28187 -2.28533,-5.09894 0,-2.8172 1.024,-5.10266 2.28533,-5.10266 m -0.28133,17.85626 -7.956,12.63013 11.528,0.1 9.17067,-18.62386 c 6.89333,-25.16933 -30.79734,-27.93333 -24.28134,-1.14893 1.31067,4.8172 4.596,7.23173 11.53867,7.04266" /><path
       id="path34"
       style="fill:#ffffff;fill-opacity:1;fill-rule:nonzero;stroke:none;stroke-width:0.13333333"
       d="m 194.58266,217.61201 c -2.51866,-5.90666 -3.85733,-11.552 -4.072,-18.24933 6.844,-8.56933 14.11733,-14.90933 21.392,-19.52133 14.044,-8.78667 28.16133,-10.94533 39.468,-9.72133 0.50667,3.45733 0.47333,6.00266 0.328,9.10266 -0.14267,3.09467 -0.576,6.048 -1.22533,8.856 -9.21734,-0.576 -19.58934,0.43333 -30.17867,5.90667 -8.64133,4.39333 -17.35467,11.74 -25.712,23.62666" /><path
       id="path36"
       style="fill:#ffffff;fill-opacity:1;fill-rule:nonzero;stroke:none;stroke-width:0.13333333"
       d="m 262.21866,245.77335 c -6.26533,2.736 -12.46267,3.52933 -19.66667,3.52933 -19.51733,0 -36.66133,-10.876 -45.59066,-26.86667 4.39333,-6.62533 7.492,-10.512 12.028,-14.54533 5.11466,10.94667 14.62133,22.39867 29.74533,30.39467 6.48533,3.456 14.76933,5.61466 23.484,7.488" /><path
       id="path38"
       style="fill:#ffffff;fill-opacity:1;fill-rule:nonzero;stroke:none;stroke-width:0.13333333"
       d="m 282.22799,229.12135 c -3.95866,5.25866 -6.90533,9.016 -12.452,12.476 -10.8,-1.65867 -19.95066,-4.75467 -27.44,-8.79067 -14.62133,-7.704 -23.62266,-18.868 -28.16266,-29.384 2.73866,-2.08933 5.476,-3.81733 8.284,-5.26 2.73466,-1.43733 3.58933,-1.884 6.33066,-2.74933 4.17467,8.284 10.22667,16.784 20.16667,23.26266 8.13733,5.26134 18.868,9.148 33.27333,10.44534" /><path
       id="path40"
       style="fill:#ffffff;fill-opacity:1;fill-rule:nonzero;stroke:none;stroke-width:0.13333333"
       d="m 274.61999,155.68402 c 12.604,9.57866 20.08,24.47333 20.08,41.47199 0,9.79334 -2.73733,19.01467 -7.492,26.864 -7.92266,-0.50266 -12.896,-1.25733 -18.72666,-3.132 6.98666,-9.936 12.10133,-23.91066 11.45333,-40.98133 -0.21867,-7.42 -2.576,-15.724 -5.31467,-24.22266" /><path
       id="path42"
       style="fill:#ffffff;fill-opacity:1;fill-rule:nonzero;stroke:none;stroke-width:0.13333333"
       d="m 250.52399,145.52135 c 6.62934,0.79467 11.188,2.728 16.876,5.75067 3.96267,10.23066 5.83734,19.66666 6.12134,28.23599 0.64933,16.56667 -4.536,29.89334 -11.30667,39.11067 -3.24133,-1.29733 -6.12133,-2.808 -8.71333,-4.536 -2.66534,-1.65867 -2.68267,-2.77467 -4.768,-4.72133 5.112,-7.77734 8.77733,-17.88534 9.42666,-29.77067 0.42934,-9.72133 -1.51333,-20.95866 -7.636,-34.06933" /><path
       id="path44"
       style="fill:#ffffff;fill-opacity:1;fill-rule:nonzero;stroke:none;stroke-width:0.13333333"
       d="m 242.55333,145.00802 h 0.864 c 3.52933,7.05866 5.52533,12.55866 6.82,18.53733 -12.028,-1.07867 -26.64934,1.44133 -41.19734,10.516 -6.268,3.96266 -12.46266,9.15066 -18.51066,15.776 3.168,-25.78533 25.44666,-44.82933 52.024,-44.82933" /><path
       style="fill:#a41d34;fill-opacity:1;stroke:none;stroke-width:1.6411016;stroke-opacity:1"
       d="M 206.09734,772.64485 C 171.71861,769.7646 138.84163,762.68619 116.94013,753.4493 65.944811,731.9422 27.540387,686.54564 10.85942,628.0549 1.2037775,594.19802 0.95963734,590.7398 0.95963734,487.8253 V 393.09236 L 13.2679,380.68055 c 22.180498,-22.3671 52.017511,-39.65167 81.333087,-47.11623 12.725573,-3.24029 18.589073,-3.71839 44.211193,-3.60494 26.26492,0.11629 31.27444,0.59618 45.18619,4.3286 8.60551,2.3088 21.89843,6.78728 29.53983,9.95219 l 13.89346,5.75438 -9.84661,1.10466 c -58.40069,6.55179 -106.70323,28.98048 -142.015927,65.94337 -27.82537,29.12567 -44.979305,61.94049 -52.636769,100.69214 -3.057512,15.47294 -2.603163,56.97058 0.790594,72.20847 9.266779,41.6076 28.806024,77.16164 57.567305,104.75075 30.690377,29.43957 64.520857,46.74633 108.455617,55.48297 20.53236,4.08294 71.03593,4.10462 91.84215,0.0394 45.47215,-8.88456 78.9802,-25.566 106.36757,-52.95337 20.66443,-20.66443 36.48537,-47.80411 44.11324,-75.6731 5.33923,-19.5072 5.23358,-52.65342 -0.22092,-69.30949 -4.84212,-14.78608 -16.82183,-33.19403 -28.45073,-43.71724 -18.25916,-16.52304 -38.20055,-27.16346 -81.44984,-43.46043 -25.94219,-9.7754 -33.13204,-14.76263 -35.93916,-24.92919 -3.54288,-12.83127 4.18939,-25.08818 18.32329,-29.04543 8.29639,-2.32285 17.50046,-1.259 29.36153,3.39373 4.28737,1.68181 7.79523,2.72707 7.79523,2.3228 0,-0.40428 -1.5983,-5.00688 -3.55177,-10.22801 -2.46133,-6.57848 -6.13418,-12.01368 -11.96311,-17.7034 l -8.41132,-8.21043 13.72626,0.58369 c 16.46778,0.70027 52.2361,-2.25082 69.2796,-5.71597 19.10506,-3.88428 41.43081,-11.8162 54.96049,-19.52642 l 12.32468,-7.02352 -0.0338,95.43454 c -0.0396,111.57894 -1.19384,134.99525 -8.02139,162.71971 -12.75932,51.81146 -26.9809,78.70584 -56.7131,107.24993 -34.23085,32.86298 -76.98936,51.39815 -132.98445,57.64675 -13.71589,1.53059 -48.82388,1.84512 -64.00297,0.57341 z"
       id="path37" /><path
       style="fill:#14c0f1;fill-opacity:1;stroke:none;stroke-width:0.58021706;stroke-opacity:1"
       d="M 22.427693,576.46367 C 21.352105,569.43752 20.950355,542.726 21.786216,533.81316 28.020239,467.33938 69.366061,408.03357 131.48028,376.4697 c 28.91749,-14.69466 60.2715,-23.03365 93.09752,-24.76041 l 7.51551,-0.39535 -4.90453,-2.27987 c -31.16648,-14.48774 -54.52534,-20.30351 -84.97448,-21.15652 -30.67627,-0.85935 -56.855432,4.826 -83.298162,18.08995 -18.283935,9.17142 -31.370946,18.84165 -47.978786,35.4524 L 0.34555385,392.01356 0.49344497,335.13894 0.64133609,278.26431 7.6039407,274.569 C 45.754535,254.32111 99.587694,242.68994 143.51978,245.20308 c 39.7991,2.27671 67.94666,12.10801 100.27668,35.02434 3.53461,2.50542 12.28138,9.16739 19.43727,14.80438 26.72577,21.05298 36.50731,27.74964 50.72481,34.72738 17.08047,8.38283 31.86843,12.27414 51.70649,13.60609 21.53721,1.44601 42.46672,-2.28386 65.16061,-11.61236 11.01344,-4.52716 24.70165,-11.73203 33.23223,-17.49198 1.81742,-1.22715 3.44929,-2.23118 3.62636,-2.23118 0.17707,0 0.32151,8.02875 0.32098,17.84167 l -10e-4,17.84168 -5.07594,3.18693 c -25.71511,16.14539 -56.78742,25.21379 -97.62036,28.49039 -10.13049,0.81291 -36.47481,1.00183 -46.12725,0.33079 l -6.96261,-0.48405 4.64174,3.02143 c 6.08321,3.95973 13.20644,11.27518 16.6938,17.1443 2.42291,4.07769 7.18441,15.71948 6.64848,16.25541 -0.10724,0.10724 -2.21427,-0.58912 -4.68229,-1.54745 -8.97498,-3.485 -15.17002,-4.82795 -22.4314,-4.86266 -5.5218,-0.0264 -7.34195,0.19939 -10.55441,1.3093 -7.6689,2.64962 -13.3753,7.47148 -16.58329,14.01274 -1.40938,2.87379 -1.57604,3.85665 -1.57934,9.31415 -0.003,5.77372 0.1029,6.3189 1.98174,10.15379 2.26953,4.63231 6.80846,9.39999 11.73744,12.32894 1.75309,1.04175 12.53494,5.42235 23.95966,9.73468 24.80655,9.36338 35.19354,13.68262 45.28849,18.8324 32.83198,16.74871 54.16741,39.10483 63.20719,66.23103 2.61029,7.83285 4.30344,16.33653 4.76956,23.95464 l 0.3751,6.1306 -47.2308,1.1e-4 -47.23081,10e-5 -0.0101,-12.03961 c -0.011,-13.1553 -0.40915,-15.73115 -3.78417,-24.48287 -2.50246,-6.48908 -6.82136,-12.83736 -12.66674,-18.61862 -8.72883,-8.63309 -20.61716,-15.49559 -40.04202,-23.11417 -18.23505,-7.15191 -25.55961,-11.59469 -35.47967,-21.52047 -9.9902,-9.99598 -16.91632,-21.95204 -20.41921,-35.24823 -1.68345,-6.39003 -1.80246,-7.50632 -1.8115,-16.99311 -0.008,-8.68573 0.17478,-10.82491 1.26618,-14.79553 2.92229,-10.63154 10.14765,-22.10213 17.76949,-28.2099 2.08192,-1.66834 3.68731,-3.13135 3.56753,-3.25113 -0.39223,-0.39223 -7.74514,1.51444 -15.29146,3.9652 -53.11385,17.24932 -97.66011,61.74747 -109.13419,109.01633 -2.60869,10.74682 -3.20797,17.03262 -2.81342,29.50978 0.59714,18.88444 4.94875,34.58125 13.91516,50.19373 l 3.20946,5.58839 H 81.332284 23.160472 Z"
       id="path39" /></g></svg>