<svg xmlns="http://www.w3.org/2000/svg" xmlns:xlink="http://www.w3.org/1999/xlink" width="90" height="87" viewBox="0 0 90 87">
    <defs>
        <path id="a" d="M.127 7.28h6.828V.021H.127V7.28z"/>
    </defs>
    <g fill="none" fill-rule="evenodd">
        <path fill="#000" d="M28.695 55.447l-.615-.601a22.047 22.047 0 0 1 15.824-6.664 22.05 22.05 0 0 1 15.826 6.664l-.616.6a21.198 21.198 0 0 0-15.21-6.406 21.194 21.194 0 0 0-15.21 6.407zm6.048 6.825l-.649-.568a13.013 13.013 0 0 1 9.81-4.448c3.91 0 7.418 1.722 9.808 4.448l-.645.568a12.148 12.148 0 0 0-9.163-4.154 12.148 12.148 0 0 0-9.161 4.154zm21.34-7.827c.255.198.237.4.173.595l-1.594 5.541-.906-.831.306-1.067-1.063-.82.923-.595.448.347.551-1.899-3.48 2.258-1.022-.573 4.83-3.136c.176-.112.361-.18.618.016l.217.164zM33.766 58.42c-.395-.043-.642-.21-1.017-.671l-1.92-2.362-.852.693 2.099 2.581c.442.54.938.826 1.524.882.66.06 1.246-.133 1.83-.606.578-.474.892-1.007.966-1.666.067-.585-.113-1.13-.552-1.67l-2.098-2.58-.852.686 1.918 2.364c.378.462.487.737.449 1.131-.027.326-.222.65-.518.889-.295.242-.656.369-.977.329zm8.277-6.993l-.206-1.015-3.394.691c-.234.046-.377.23-.324.489l.712 3.487c.242 1.188 1.104 1.459 2.06 1.263l2.067-.42-.209-1.012-2.002.407c-.519.103-.748.006-.865-.573l-.106-.522 2.493-.507-.203-.999-2.494.505-.251-1.24 2.722-.554zm5.257 2.622l2.459.646.256-.988-2.455-.642.134-.518c.149-.57.382-.658.896-.523l1.978.519.262-1.002-2.038-.533c-.944-.249-1.822-.026-2.132 1.148l-.9 3.445c-.068.25.06.44.293.503l.664.173.583-2.228z"/>
        <g transform="translate(43.524 78.881)">
            <mask id="b" fill="#fff">
                <use xlink:href="#a"/>
            </mask>
            <path fill="#000" d="M3.296 4.643H5.46v.502c-.35.39-.912.691-1.604.691-1.213 0-2.126-.712-2.126-2.185 0-1.474.993-2.186 1.946-2.186.872 0 1.433.421 1.664 1.203l1.534-.45C6.514.903 5.491.02 3.697.02c-1.925 0-3.57 1.384-3.57 3.63S1.752 7.28 3.717 7.28c1.524 0 2.466-.601 3.238-1.544V3.39h-3.66v1.253z" mask="url(#b)"/>
        </g>
        <path fill="#000" d="M26.518 79.024h-1.603v7.013h4.93v-1.443h-3.327zM32.202 83.222h2.986v-1.443h-2.986v-1.312h3.246v-1.443h-4.85v7.013h4.93v-1.443h-3.326zM59.667 84.593v-1.372h2.986v-1.443h-2.986v-1.312h3.246v-1.443h-4.849v7.013h4.93v-1.443zM55.552 83.192c0 .941-.481 1.523-1.363 1.523-.881 0-1.362-.582-1.362-1.523v-4.168h-1.603v4.258c0 1.953 1.352 2.875 2.965 2.875 1.613 0 2.966-.932 2.966-2.875v-4.258h-1.603v4.168zM39.145 83.262l.822-2.154.822 2.154h-1.644zm-.03-4.238l-2.845 7.013h1.814l.51-1.333h2.746l.51 1.333h1.814l-2.845-7.013h-1.704zM59.655 69.748h-1.66v-2.754h1.66c1.111 0 1.55.579 1.55 1.377s-.439 1.377-1.55 1.377m4.053-1.377c0-2.38-1.768-3.631-3.928-3.631H55.49v10.956h2.505v-3.694h1.784c2.16 0 3.928-1.252 3.928-3.631M16.504 71.298h4.664v-2.254h-4.664v-2.05h5.07V64.74H14v10.956h7.7v-2.254h-5.196zM29.895 71.25c0 1.472-.752 2.38-2.129 2.38s-2.129-.908-2.129-2.38v-6.51h-2.504v6.652c0 3.052 2.113 4.491 4.633 4.491s4.633-1.455 4.633-4.491V64.74h-2.504v6.51zM67.094 71.36l1.284-3.365 1.283 3.365h-2.567zm2.614-6.62h-2.661l-4.445 10.956h2.833l.798-2.082h4.289l.798 2.082h2.833L69.708 64.74zM38.331 69.498h-1.878v-2.504h1.878c1.034 0 1.425.532 1.425 1.252s-.391 1.252-1.425 1.252m3.929-1.252c0-2.145-1.738-3.506-3.96-3.506h-4.351v10.956h2.504v-3.944H37.8l2.191 3.944h2.818l-2.442-4.398c1.111-.627 1.894-1.613 1.894-3.052M48.741 73.686c-1.564 0-2.8-1.126-2.8-3.472s1.236-3.472 2.8-3.472c1.564 0 2.8 1.126 2.8 3.472s-1.236 3.472-2.8 3.472m0-9.197c-3.222 0-5.302 2.174-5.302 5.725 0 3.55 2.08 5.724 5.302 5.724 3.222 0 5.302-2.174 5.302-5.724 0-3.55-2.08-5.725-5.302-5.725M45.538 43.052v.002a20.144 20.144 0 0 0 4.21-.756v-.002a.09.09 0 0 0 .053-.08.074.074 0 0 0-.008-.037l.003-.003c-1.744-1.861-4.426-5.693-6.227-9.162.912 3.729 1.71 7.823 1.89 9.968.01.037.04.068.079.07M53.303 4.28L53.3 4.28a.072.072 0 0 0 .01-.037.086.086 0 0 0-.042-.072l.002-.002L46.773.451v.003A.09.09 0 0 0 46.73.44a.087.087 0 0 0-.087.074h-.002c-.336 1.415-3.364 15.19 1.51 31.625-1.749-10.779 2.463-22.596 5.152-27.86"/>
        <path fill="#6F6F6F" d="M51.291 41.796C42.192 27.14 43.631 6.428 44.656.093h-.004l.002-.004c0-.05-.04-.089-.089-.089a.062.062 0 0 0-.026.006l-.001-.002c-1.16.466-9.206 3.697-10.064 4.044a.087.087 0 0 0-.063.082c0 .008.003.014.005.02h-.002c1.624 7.434 5.793 25.038 16.877 37.646M38.864 42.325c0 .006-.004.013-.004.02 0 .036.025.067.057.082a20.14 20.14 0 0 0 4.907.674.088.088 0 0 0 .083-.082h.001c-.215-3.564-1.037-10.903-4.063-17.398.983 6.59-.094 13.449-.981 16.704"/>
        <path fill="#F18800" d="M36.508 41.617c.033 0 .061-.02.076-.046l.004.002.112-.496-.004-.002c.001-.005.004-.01.004-.016a.085.085 0 0 0-.064-.082l.001-.003c-6.56-2.81-10.912-10.392-10.912-17.964 0-5.917 2.533-12.37 6.894-15.736v-.002a.083.083 0 0 0 .026-.061c0-.007-.001-.01-.003-.017l.005-.003a12.39 12.39 0 0 1-.112-.481.088.088 0 0 0-.084-.064.089.089 0 0 0-.052.017c-5.094 3.643-8.42 9.605-8.42 16.347 0 8.407 5.171 15.605 12.504 18.602a.095.095 0 0 0 .025.005M55.102 6.213l-.001.002a.077.077 0 0 0-.035-.007.09.09 0 0 0-.074.044l-.204.442a.08.08 0 0 0-.01.039c0 .027.012.05.034.066l-.001.005c4.863 3.31 7.619 9.894 7.619 16.206 0 7.029-3.415 14.075-9.23 17.164v.002a.092.092 0 0 0-.028.065c0 .012.004.024.008.035h-.002l.248.43h.002c.017.02.04.035.07.035a.08.08 0 0 0 .04-.01c6.327-3.384 10.635-10.047 10.635-17.721 0-7.027-3.609-13.206-9.07-16.797"/>
        <path fill="#000" d="M59.088 41.225h.49v1.368h.223v-1.368h.49v-.191h-1.203zM61.85 41.034l-.518 1.356-.52-1.356h-.249v1.56h.223v-1.12l.427 1.12h.237l.427-1.12v1.12h.223v-1.56z"/>
    </g>
</svg>
