<?xml version="1.0" encoding="UTF-8" standalone="no"?>
<svg
   xmlns:dc="http://purl.org/dc/elements/1.1/"
   xmlns:cc="http://creativecommons.org/ns#"
   xmlns:rdf="http://www.w3.org/1999/02/22-rdf-syntax-ns#"
   xmlns:svg="http://www.w3.org/2000/svg"
   xmlns="http://www.w3.org/2000/svg"
   xmlns:xlink="http://www.w3.org/1999/xlink"
   xmlns:sodipodi="http://sodipodi.sourceforge.net/DTD/sodipodi-0.dtd"
   xmlns:inkscape="http://www.inkscape.org/namespaces/inkscape"
   version="1.1"
   width="215.64075"
   height="252"
   id="svg147"
   viewBox="0 0 215.64075 252"
   sodipodi:docname="union-titus-petange.svg"
   inkscape:version="0.92.4 (5da689c313, 2019-01-14)">
  <metadata
     id="metadata153">
    <rdf:RDF>
      <cc:Work
         rdf:about="">
        <dc:format>image/svg+xml</dc:format>
        <dc:type
           rdf:resource="http://purl.org/dc/dcmitype/StillImage" />
        <dc:title></dc:title>
      </cc:Work>
    </rdf:RDF>
  </metadata>
  <defs
     id="defs151">
    <defs
       id="defs41">
      <linearGradient
         gradientUnits="userSpaceOnUse"
         y2="29.038673"
         x2="856.78766"
         y1="29.038673"
         x1="794.867"
         gradientTransform="scale(0.16164063,6.1865634)"
         id="grad1">
        <stop
           id="stop24"
           stop-opacity="1.0000"
           stop-color="#cbc9c7"
           offset="201392128.0000%" />
        <stop
           id="stop26"
           stop-opacity="1.0000"
           stop-color="#cbc9c7"
           offset="201392135.0000%" />
        <stop
           id="stop28"
           stop-opacity="1.0000"
           stop-color="#cbc9c7"
           offset="201392150.0000%" />
        <stop
           id="stop30"
           stop-opacity="1.0000"
           stop-color="#b2b0ad"
           offset="201392175.0000%" />
        <stop
           id="stop32"
           stop-opacity="1.0000"
           stop-color="#7a7e76"
           offset="201392211.0000%" />
        <stop
           id="stop34"
           stop-opacity="1.0000"
           stop-color="#6d736b"
           offset="201392221.0000%" />
        <stop
           id="stop36"
           stop-opacity="1.0000"
           stop-color="#cecbc9"
           offset="201392226.0000%" />
        <stop
           id="stop38"
           stop-opacity="1.0000"
           stop-color="#cbcac6"
           offset="100.0000%" />
      </linearGradient>
    </defs>
  </defs>
  <sodipodi:namedview
     pagecolor="#ffffff"
     bordercolor="#666666"
     borderopacity="1"
     objecttolerance="10"
     gridtolerance="10"
     guidetolerance="10"
     inkscape:pageopacity="0"
     inkscape:pageshadow="2"
     inkscape:window-width="1366"
     inkscape:window-height="705"
     id="namedview149"
     showgrid="false"
     fit-margin-top="1"
     fit-margin-right="1"
     fit-margin-bottom="1"
     fit-margin-left="1"
     inkscape:zoom="1.1212869"
     inkscape:cx="140.75592"
     inkscape:cy="81.06665"
     inkscape:window-x="-8"
     inkscape:window-y="-8"
     inkscape:window-maximized="1"
     inkscape:current-layer="svg147" />
  <g
     id="g303"
     transform="matrix(0.44097045,0,0,0.44097045,-23.429117,-59.623731)">
    <path
       d="m 514.9154,189.0368 c 7.2923,32.377 14.2848,65.075 19.1363,97.9164 3.9899,27.0071 6.4771,54.3207 5.6755,81.6427 -1.6486,56.1803 -16.8461,108.2225 -43.0995,157.8563 -43.7403,82.6926 -113.9423,139.5808 -198.3942,177.6919 l -0.5878,0.2653 -0.5917,-0.2559 C 212.2242,667.4766 147.2504,611.2914 100.9693,531.2529 78.9544,493.1806 64.9965,451.9371 58.5881,408.4202 c -2.4822,-16.8566 -3.3608,-33.9439 -3.1626,-50.9721 0.2098,-18.0505 1.6246,-36.0983 3.7659,-54.0171 4.5985,-38.483 12.5023,-76.7445 20.9072,-114.5565 l 0.1498,-0.6737 0.6155,-0.3117 c 17.0683,-8.6426 34.7548,-16.0761 52.8084,-22.3988 51.7716,-18.131 108.4291,-27.8351 163.2898,-28.01 74.0635,-0.2358 150.9294,17.5934 217.1798,50.5708 l 0.6212,0.3091 z"
       style="fill:#f6f6f6;fill-rule:evenodd"
       id="path2"
       inkscape:connector-curvature="0" />
    <path
       d="m 81.5233,189.1912 c 67.3296,-34.0927 145.9066,-50.0299 215.4434,-50.2514 74.6581,-0.2379 151.3477,17.9748 216.5249,50.4178 16.4421,72.9993 26.2762,128.0925 24.7768,179.1954 -1.5689,53.4619 -15.3528,105.0791 -42.9309,157.2168 C 458.9153,594.6277 397.6935,657.6589 297.6331,702.814 201.7022,661.3373 142.0554,599.3913 102.2326,530.5223 80.6421,493.1838 66.5453,452.4369 60.0321,408.2077 50.4181,342.9254 64.1048,267.5528 81.5233,189.1912 Z"
       style="fill:#eeeeed;fill-rule:evenodd"
       id="path4"
       inkscape:connector-curvature="0" />
    <path
       d="m 507.3392,186.3537 c 2.0619,0.9872 4.1127,1.9887 6.1524,3.0039 16.4421,72.9993 26.2762,128.0925 24.7768,179.1954 -1.5689,53.4619 -15.3528,105.0791 -42.9309,157.2168 -36.4222,68.8579 -97.644,131.8891 -197.7044,177.0442 l -0.0262,-0.0114 0.1027,-31.6038 6.5643,-392.4284 z"
       style="fill:#e1dfde;fill-rule:evenodd"
       id="path6"
       inkscape:connector-curvature="0" />
    <g
       id="Layer1001">
      <path
         d="m 376.3698,658.5168 c -20.371,14.2039 -43.0891,27.4394 -68.3942,39.4965 V 277.0856 l 68.3942,-31.1265 z"
         style="fill:#999791;fill-rule:evenodd"
         id="path8"
         inkscape:connector-curvature="0" />
      <path
         d="m 455.44,585.8897 c -18.6973,22.8552 -41.0613,44.517 -67.7268,64.4422 V 240.7964 L 455.44,209.9735 Z"
         style="fill:#999791;fill-rule:evenodd"
         id="path10"
         inkscape:connector-curvature="0" />
    </g>
    <path
       d="m 81.5233,189.1912 c 67.3296,-34.0927 145.9066,-50.0299 215.4434,-50.2514 74.6441,-0.2379 151.3188,17.9684 216.4881,50.3997 l -15.4722,12.5323 -395.9397,3.3336 -20.5272,-15.9798 z"
       style="fill:#ffffff;fill-rule:evenodd"
       id="path13"
       inkscape:connector-curvature="0" />
    <g
       id="Layer1002">
      <path
         d="m 307.9756,139.039 c 22.7993,0.477 45.7246,2.648 68.3942,6.3927 v 57.464 l -68.3942,0.5759 z"
         style="fill:#999791;fill-rule:evenodd"
         id="path15"
         inkscape:connector-curvature="0" />
      <path
         d="m 387.7132,147.4387 c 23.0452,4.3574 45.7566,10.3344 67.7268,17.8044 v 36.9868 l -67.7268,0.5704 z"
         style="fill:#999791;fill-rule:evenodd"
         id="path17"
         inkscape:connector-curvature="0" />
    </g>
    <path
       d="M 296.9232,689.7172 C 234.0543,661.2293 173.2566,614.8405 133.395,558.1394 124.4962,545.4814 116.6645,532.0445 109.6005,518.286 101.7796,503.0532 94.8878,487.3288 88.9829,471.2559 81.2974,450.3358 75.1225,428.5378 71.872,406.4642 66.9411,372.9827 68.1119,338.6011 72.0273,305.0758 76.2357,269.04 84.1267,233.5514 91.9219,198.1592 l 0.1526,-0.6932 0.6396,-0.308 c 63.7469,-30.6869 133.6104,-46.0254 204.2909,-46.2508 69.7239,-0.2221 142.8925,15.3756 205.525,46.2062 l 0.6273,0.3088 0.1526,0.6821 c 6.7243,30.0816 12.9532,60.3088 17.4591,90.811 3.8743,26.2272 6.3159,52.7529 5.5371,79.2866 -1.5858,54.0425 -16.3396,104.3164 -41.5472,151.9723 -41.3225,78.1223 -107.2511,132.6618 -186.6182,169.5371 l -0.6074,0.2823 z"
       style="fill:#f6f6f6;fill-rule:evenodd"
       id="path20"
       inkscape:connector-curvature="0" />
    <path
       d="m 501.8855,198.4228 c -11.4686,-5.6454 -23.3088,-10.7836 -35.4299,-15.4077 l -169.446,-30.6484 c -72.0307,0.2297 -141.4146,16.1409 -203.6624,46.1063 -7.7687,35.272 -15.6768,70.8653 -19.8704,106.7721 -3.8938,33.3419 -5.0646,67.7096 -0.1608,101.0066 3.2236,21.8918 9.4143,43.752 17.0367,64.5009 5.8775,15.9982 12.7614,31.7045 20.5461,46.8667 7.0141,13.6616 14.854,27.1119 23.6901,39.6807 39.64,56.3858 100.2602,102.6873 162.9368,131.0879 L 466.4489,548.2817 c 6.06,-9.2178 11.741,-18.8102 17.0198,-28.7899 25.1323,-47.5132 39.7977,-97.4555 41.3786,-151.3328 0.7761,-26.4461 -1.6606,-52.8896 -5.522,-79.0303 -4.4936,-30.4181 -10.7342,-60.7087 -17.4398,-90.7059 z"
       style="fill:#42473d;fill-rule:evenodd"
       id="path22"
       inkscape:connector-curvature="0" />
    <path
       d="m 138.4917,179.6496 c -3.3526,1.1927 -6.6886,2.4242 -10.0089,3.6924 v 364.8983 c 1.9811,3.0631 4.0155,6.0862 6.1061,9.0597 1.279,1.8193 2.5808,3.6279 3.9028,5.4259 z"
       style="fill:url(#grad1)"
       id="path43"
       inkscape:connector-curvature="0" />
    <path
       d="M 466.4081,182.9991 C 412.964,162.6176 354.0455,152.2219 297.2995,152.3667 v 535.9176 l 0.2262,0.1036 c 68.9163,-32.02 127.6597,-77.375 168.8824,-140.0513 z"
       style="fill:#ffffff;fill-rule:evenodd"
       id="path45"
       inkscape:connector-curvature="0" />
    <g
       id="Layer1003">
      <path
         d="m 307.9756,527.6583 v 155.7304 c 24.2572,-11.9354 47.1671,-25.6005 68.3942,-41.1769 V 527.6583 Z"
         style="fill:#b1aeab;fill-rule:evenodd"
         id="path47"
         inkscape:connector-curvature="0" />
      <path
         d="m 387.7132,527.6583 v 105.9171 c 25.444,-20.0928 48.2324,-43.1474 67.7268,-69.5132 v -60.3389 z"
         style="fill:#b1aeab;fill-rule:evenodd"
         id="path49"
         inkscape:connector-curvature="0" />
    </g>
    <g
       id="Layer1004">
      <path
         d="m 376.3698,158.8245 c -22.7452,-3.7625 -45.7038,-5.893 -68.3942,-6.3597 v 97.6134 h 68.3942 z"
         style="fill:#999791;fill-rule:evenodd"
         id="path52"
         inkscape:connector-curvature="0" />
      <path
         d="m 455.44,178.9838 c -21.9323,-7.7041 -44.6772,-13.7632 -67.7268,-18.1421 v 89.2365 H 455.44 Z"
         style="fill:#999791;fill-rule:evenodd"
         id="path54"
         inkscape:connector-curvature="0" />
    </g>
    <path
       d="m 122.4795,208.38 c -7.8728,39.0884 -20.7624,90.9622 -21.1658,147.2528 -0.4938,68.9055 21.9726,143.5575 58.3085,198.278 35.5985,53.61 75.4228,89.9123 137.841,122.7429 72.1607,-38.5642 111.5343,-80.284 143.4877,-132.0536 24.5021,-39.697 53.039,-110.0073 52.9269,-183.6099 C 493.7888,302.5874 478.4765,237.7634 473.097,208.418 427.3448,183.427 362.3237,164.4194 297.0561,164.6261 229.7632,164.8391 167.7738,182.6476 122.4795,208.38 Z"
       style="fill:#ffffff;fill-rule:evenodd"
       id="path57"
       inkscape:connector-curvature="0" />
    <g
       id="Layer1005">
      <path
         d="m 153.1714,332.8602 c 1.6439,0 3.0027,1.359 3.0027,3.0026 v 5.2371 h 5.7371 c 1.6494,0 3.0026,1.3512 3.0026,3.0027 0,1.6439 -1.3587,3.0027 -3.0026,3.0027 h -5.7371 v 15.5107 h 15.5168 v -5.7359 c 0,-1.6515 1.3512,-3.0027 3.0027,-3.0027 1.6439,0 3.0027,1.3608 3.0027,3.0027 v 5.7359 h 5.2309 c 1.6483,0 3.0027,1.3511 3.0027,3.0027 0,1.6439 -1.3587,3.0026 -3.0027,3.0026 h -5.2309 v 5.7383 c 0,1.6495 -1.3512,3.0027 -3.0027,3.0027 -1.6439,0 -3.0027,-1.3588 -3.0027,-3.0027 v -5.7383 h -15.5168 v 29.6721 c 0,1.6512 -1.3512,3.0026 -3.0027,3.0026 -1.6439,0 -3.0026,-1.3587 -3.0026,-3.0026 v -29.6721 h -15.3803 v 5.7383 c 0,1.6495 -1.3512,3.0027 -3.0027,3.0027 -1.6439,0 -3.0026,-1.3588 -3.0026,-3.0027 v -5.7383 h -5.3676 c -1.6515,0 -3.0027,-1.3511 -3.0027,-3.0026 0,-1.644 1.362,-3.0027 3.0027,-3.0027 h 5.3676 v -5.7359 c 0,-1.6515 1.3511,-3.0027 3.0026,-3.0027 1.644,0 3.0027,1.3608 3.0027,3.0027 v 5.7359 h 15.3803 v -15.5107 h -5.7371 c -1.6515,0 -3.0027,-1.3512 -3.0027,-3.0027 0,-1.6439 1.3608,-3.0027 3.0027,-3.0027 h 5.7371 v -5.2371 c 0,-1.6515 1.3511,-3.0026 3.0026,-3.0026 z"
         style="fill:#494f46;fill-rule:evenodd"
         id="path59"
         inkscape:connector-curvature="0" />
      <path
         d="m 439.5151,332.8602 c 1.6439,0 3.0027,1.359 3.0027,3.0026 v 5.2371 h 5.7371 c 1.6494,0 3.0026,1.3512 3.0026,3.0027 0,1.6439 -1.3587,3.0027 -3.0026,3.0027 h -5.7371 v 15.5107 h 15.5168 v -5.7359 c 0,-1.6515 1.3512,-3.0027 3.0027,-3.0027 1.6439,0 3.0027,1.3608 3.0027,3.0027 v 5.7359 h 5.2309 c 1.6483,0 3.0027,1.3511 3.0027,3.0027 0,1.6439 -1.3588,3.0026 -3.0027,3.0026 H 464.04 v 5.7383 c 0,1.6495 -1.3512,3.0027 -3.0027,3.0027 -1.6439,0 -3.0027,-1.3588 -3.0027,-3.0027 v -5.7383 h -15.5168 v 29.6721 c 0,1.6512 -1.3512,3.0026 -3.0027,3.0026 -1.6439,0 -3.0027,-1.3587 -3.0027,-3.0026 v -29.6721 h -15.3802 v 5.7383 c 0,1.6495 -1.3512,3.0027 -3.0027,3.0027 -1.6439,0 -3.0026,-1.3588 -3.0026,-3.0027 v -5.7383 h -5.3676 c -1.6515,0 -3.0027,-1.3511 -3.0027,-3.0026 0,-1.644 1.362,-3.0027 3.0027,-3.0027 h 5.3676 v -5.7359 c 0,-1.6515 1.3511,-3.0027 3.0026,-3.0027 1.6439,0 3.0027,1.3608 3.0027,3.0027 v 5.7359 h 15.3802 v -15.5107 h -5.737 c -1.6516,0 -3.0027,-1.3512 -3.0027,-3.0027 0,-1.6439 1.3608,-3.0027 3.0027,-3.0027 h 5.737 v -5.2371 c 0,-1.6515 1.3512,-3.0026 3.0027,-3.0026 z"
         style="fill:#494f46;fill-rule:evenodd"
         id="path61"
         inkscape:connector-curvature="0" />
    </g>
    <g
       id="Layer1006">
      <defs
         id="defs76">
        <linearGradient
           id="grad2">
          <stop
             offset="201392128.0000%"
             stop-color="#575d53"
             stop-opacity="1.0000"
             id="stop64" />
          <stop
             offset="201392133.0000%"
             stop-color="#5f635a"
             stop-opacity="1.0000"
             id="stop66" />
          <stop
             offset="201392153.0000%"
             stop-color="#a2a09b"
             stop-opacity="1.0000"
             id="stop68" />
          <stop
             offset="201392179.0000%"
             stop-color="#d0cfcc"
             stop-opacity="1.0000"
             id="stop70" />
          <stop
             offset="100.0000%"
             stop-color="#dfdfdd"
             stop-opacity="1.0000"
             id="stop72" />
        </linearGradient>
        <linearGradient
           xlink:href="#grad2"
           id="grad3"
           x1="194.96581"
           y1="333.0892"
           x2="194.96581"
           y2="577.90192"
           gradientUnits="userSpaceOnUse"
           gradientTransform="scale(0.92225144,1.084303)" />
      </defs>
      <path
         d="m 267.9401,426.2824 c -7.8075,5.8991 -14.7778,11.3913 -20.9968,17.7218 -1.1839,-2.5476 -1.7551,-7.6362 -2.9113,-9.8274 -0.782,-0.1004 -3.0135,1.5313 -4.8874,2.3217 0.8009,-3.1644 0.9381,-6.2423 -0.2449,-8.717 -1.6457,1.1501 -4.045,2.0421 -6.0313,2.7619 2.4994,-7.3279 2.387,-9.5717 1.1237,-11.1251 -0.643,-0.7907 -1.9273,-1.251 -3.6492,-0.2983 -1.033,0.5718 -2.0911,1.9133 -3.2872,3.3926 -0.423,0.5231 -1.1877,0.6042 -2.1445,0.6649 -1.2303,0.078 -2.7277,0.0672 -3.665,0.3246 -2.2344,0.6147 -6.4376,1.4478 -8.6259,2.132 0.3961,-2.7622 1.8631,-5.379 3.5961,-7.463 -0.1145,-1.4662 -0.1825,-3.3253 0.0283,-4.4245 0.2942,-1.5313 1.6433,-1.3062 3.1176,-1.3126 0.3319,-0.002 1.3632,0.0417 2.2277,-0.2525 1.1116,-0.3783 1.7887,-1.7876 0.5552,-2.8004 -1.6162,-0.1159 -5.74,-0.815 -6.7984,-1.0161 -1.9495,-0.3707 -4.2484,-3.059 -5.0281,-4.214 l -4.8404,-0.4302 c 0.3544,-1.6726 2.8804,-3.4204 5.5827,-3.4143 0.521,-1.2063 3.0365,-3.3196 4.5044,-3.3024 1.834,0.0216 5.2751,3.7216 6.9196,3.9058 1.9682,0.2203 2.1827,-1.6405 1.7218,-2.5535 -0.5026,-0.9968 -1.7335,-1.5026 -3.3006,-2.6133 -1.7482,-1.2385 -3.6169,-2.6249 -3.8261,-4.8497 -0.0777,-0.8252 -0.0138,-1.7029 0.2667,-2.5754 l -4.4431,-6.0427 c 2.7484,-1.1731 5.6133,-1.4083 7.7473,-0.8137 1.6597,0.462 2.3842,1.4323 3.63,3.0668 2.8272,-0.202 4.3891,0.3882 5.0292,1.9563 0.9674,2.3692 -0.7536,4.1828 -0.5443,6.2473 0.082,0.8094 1.0496,1.5275 2.1643,2.4113 1.8474,1.4641 4.7867,0.005 4.9385,-0.7872 0.4434,-2.3188 -2.8302,-3.4306 -2.7122,-6.8714 0.0525,-1.5208 1.556,-4.0748 1.9699,-5.6452 0.7896,-2.9988 0.512,-5.8369 0.3366,-10.1694 7.0275,1.5275 8.1536,6.1563 8.9461,9.1329 0.3333,1.2528 0.7011,2.2362 1.5178,3.2584 0.4034,0.5047 1.2444,1.0718 1.7382,1.5368 1.8632,1.7534 1.0234,3.2817 0.209,4.1092 -2.0199,2.0506 -5.54,4.17 -3.8366,8.4103 6.7147,16.7112 18.7353,24.019 23.9026,28.1647 z M 236.078,495.99 c 2.8182,-0.7773 2.7651,-0.1348 5.2397,-1.4682 2.6711,-1.4399 4.2721,-3.749 5.7753,-5.6749 1.2595,-1.6136 3.1714,-3.7549 4.4149,-4.5666 4.0669,3.9198 8.0141,8.7114 13.318,8.6163 -3.7438,-3.4102 -3.8906,-7.6922 -2.2125,-9.2445 2.6705,-2.4694 9.1393,-4.8588 14.891,-6.6638 10.8738,14.5656 20.927,17.732 31.14,23.0771 2.3182,1.2131 5.1874,2.6547 7.5541,4.3208 0.8681,0.6106 0.6036,0.5315 -0.578,0.7776 -3.169,0.6611 -7.7756,-0.6786 -12.5679,-1.7309 -9.6177,-2.1118 -20.8216,-6.5246 -30.9525,-7.8025 -6.9537,-0.876 -14.3867,-0.2344 -18.7061,6.3109 -4.1897,6.3495 -4.2954,11.9611 -6.4434,16.6173 -1.2887,2.7931 -2.8421,3.2517 -4.7021,3.4808 -5.1553,0.6363 -9.3918,-3.3888 -9.3752,-11.7988 -3.5134,2.4826 -5.301,5.7476 -5.7245,8.8323 -0.8088,5.8909 1.3625,10.8189 5.5964,13.3849 2.9957,1.8156 9.7363,3.2184 16.2755,-1.8561 5.2125,4.9321 8.0789,7.9931 7.1991,12.1543 -1.1068,5.2385 -7.9726,11.3904 -16.2862,14.4082 -0.5111,-3.6244 -1.6697,-3.9486 -2.3051,-5.8156 -1.0598,-3.1112 -2.4662,-3.1833 -5.4881,-3.0645 -2.3602,-3.6638 -7.4096,-3.6589 -10.2985,-2.2808 2.5532,2.218 2.3352,4.1159 2.4455,5.1655 -0.7344,3.336 -2.1787,3.5252 -1.045,6.3796 1.0003,2.519 4.841,3.4848 5.3568,5.8243 0.343,1.5549 -2.3564,3.9084 -3.3649,3.5243 -1.965,-0.7484 -2.23,-5.0398 -5.2762,-5.5103 -2.2219,-0.3432 -4.8022,1.2257 -7.0777,3.2161 -4.0465,0.3762 -7.6665,2.7373 -8.9173,7.3675 3.0123,-0.112 5.527,-0.5732 7.7047,-0.2413 2.2,0.7621 2.6174,2.4635 3.691,3.9933 1.5032,2.1422 2.9746,2.5771 4.8497,0.5298 1.5555,-1.6979 5.8685,-3.5874 7.4003,-1.587 -1.5158,0.7612 -6.3036,4.6982 -7.2091,8.1562 -0.474,1.8112 0.0534,2.3579 2.0397,4.4972 -0.0735,2.7861 -0.8806,6.4578 0.6215,9.7444 2.0277,-3.0155 4.2096,-5.5873 5.7394,-6.9297 3.5202,-1.2143 4.6113,-2.7622 4.9002,-5.4245 0.1226,-1.1305 0.2169,-3.1635 0.2803,-4.7838 0.1366,-3.4959 6.3751,-3.1626 6.855,-0.6786 0.5522,2.8608 -1.7887,6.907 1.4767,8.7972 0.5026,3.109 1.3896,6.6405 2.1751,9.2541 4.0634,-2.9014 6.2561,-5.8906 7.0179,-9.4779 1.4551,-2.5506 1.1142,-4.5375 0.4878,-6.5162 -0.2899,-0.9159 -0.6253,-1.6427 -1.0138,-2.2872 -0.7259,-1.2052 -0.7399,-2.8751 0.2181,-4.2864 1.2361,-1.8217 3.8418,-3.7383 8.9569,-2.9405 0.3114,2.7379 1.0911,5.531 2.1918,7.6609 1.9694,3.8115 4.9779,3.1337 6.9528,8.5591 3.7108,-4.3366 0.2324,-5.9511 -1.6889,-9.4896 -0.6401,-1.1793 -0.7743,-2.7026 -0.7326,-3.8828 0.0925,-2.6106 3.3728,-6.5181 5.1822,-7.7091 0.4924,6.7415 -0.2907,12.8149 2.8065,15.0134 4.1206,0.3435 7.6437,0.5984 10.9651,1.5636 -2.5817,-5.0283 -5.7359,-4.5275 -7.6089,-8.585 -1.1399,-2.4691 -0.2064,-6.0016 0.4384,-7.8402 2.411,1.7231 1.4256,3.6484 4.7627,7.2657 2.2817,2.4735 7.412,3.7587 10.3843,3.8101 -2.3243,-2.9344 -5.1086,-5.1098 -7.1889,-7.9126 -1.1387,-1.5335 -0.667,-3.5158 0.4617,-5.2114 1.5748,-2.3651 5.2949,-2.9714 7.8101,-5.0826 2.4075,-2.0208 4.6244,-5.3571 4.9802,-11.1747 0.2954,-4.8215 -2.1888,-9.4441 -6.8092,-11.4982 2.7873,8.3189 3.5985,14.7749 -1.622,17.34 -3.1898,-10.5535 -10.7529,-14.1762 -9.8939,-21.7416 1.2817,-11.2871 14.5221,-7.1455 21.3158,-7.9129 6.1896,-0.6991 9.7851,-2.8304 13.7445,-4.2986 2.294,-0.8503 3.3813,-1.8352 5.5191,-2.0462 1.2064,-0.1194 0.9387,0.0715 0.3911,0.9819 -4.4256,7.3559 -7.6224,13.7699 -10.1341,20.2542 -3.0634,7.9073 -2.3596,14.6503 -0.2195,21.693 0.8237,2.7117 1.51,4.9315 2.0497,6.7572 0.7384,2.4977 1.1319,7.6759 -1.8579,8.6765 -1.9174,0.6421 -4.4362,-0.6127 -8.0985,-1.5149 3.0783,7.0777 10.3752,7.2493 15.274,3.5175 2.9385,-2.2385 3.3424,-7.1653 3.2747,-11.0676 10.1233,1.0593 15.6403,0.1077 24.2566,-0.1923 1.5622,-0.0543 2.2006,0.8433 0.6997,3.9887 -2.8576,5.2432 -7.8749,14.8811 -10.283,17.7658 -1.1658,1.3964 -2.8669,4.8842 -3.5584,4.3991 -0.7265,-0.5099 -0.1133,-2.7639 0.1056,-3.3964 0.6828,-1.9764 0.3853,-3.1212 -1.3622,-3.6291 -4.7105,-1.3693 -15.6581,-1.8456 -19.7913,2.146 l 5.747,4.6098 c 1.2884,1.3249 3.2391,2.9014 4.6218,3.9276 3.2543,2.4151 6.6095,0.5651 6.0389,6.4505 -1.4679,0.008 -3.8915,0.2662 -5.6031,-0.0195 -1.3304,-0.2222 -2.524,0.2653 -2.5996,1.1229 -0.3756,4.2499 -3.1296,4.1985 -3.9349,9.6971 -0.4922,3.362 0.6217,5.9686 1.8663,7.851 1.3637,-0.6074 4.2487,-2.7502 6.6595,-5.3933 1.023,-1.1217 3.4536,-0.695 4.6544,-2.2621 0.8748,-1.1422 1.3305,-5.9551 1.8839,-7.3335 2.0887,-4.0884 5.9753,0.2496 4.249,4.0112 -0.8549,1.8634 -2.6033,3.4428 -1.2466,5.3801 1.9349,2.763 3.1492,3.9589 5.3448,5.7 2.5079,1.989 4.7111,3.447 8.1399,3.8827 0.7782,-3.1384 -0.883,-5.6063 -2.1597,-7.6054 1.9641,-2.2549 1.8164,-5.0235 1.1232,-7.1773 -0.6112,-1.9005 -2.3086,-2.9948 -3.2514,-3.9353 -1.6932,-1.6903 1.1772,-3.8047 2.7251,-3.7058 1.9565,0.1249 3.7502,2.3153 3.5079,7.1606 -0.1684,3.3679 4.0348,1.4525 5.5579,3.7786 0.1022,3.1191 1.0718,5.019 1.843,6.3678 3.5371,-2.993 5.4592,-12.6271 4.0377,-18.2104 -0.7207,-2.8307 -1.6606,-2.7344 -5.165,-2.7306 -2.2356,0.002 -1.688,-3.9332 -0.3462,-4.1551 7.701,-1.2741 7.6146,-5.2362 9.4578,-3.3342 3.8185,3.9405 6.8212,5.5611 10.2754,6.672 0.7709,-7.2701 -7.6486,-7.9242 -5.0123,-17.0087 2.5797,4.8918 6.0903,5.8483 8.6253,7.888 2.3325,1.8754 3.3363,3.7721 3.0684,6.8542 5.7581,-6.0594 -0.2254,-10.1018 -3.0065,-14.9028 -1.2639,-2.181 -1.3614,-5.3576 -1.4761,-7.0094 -0.1926,-2.7697 1.4504,-2.7195 2.4116,-1.7516 2.4776,2.4948 2.1148,5.4081 5.2021,8.1995 2.0015,1.8097 5.9449,2.5061 8.1694,1.8073 3.8217,-1.2011 9.398,-4.2449 11.3057,-14.3916 -3.5266,0.8053 -6.4341,7.5935 -11.7978,7.651 -2.7817,0.0298 -4.6779,-2.6103 -5.4464,-6.7695 -0.8716,-4.7146 3.3766,-7.9931 0.0674,-23.3771 3.4697,0.1701 6.7523,3.6696 9.1481,7.9452 1.0214,-6.0605 0.3053,-8.4365 -2.7148,-11.9345 -3.6627,-4.2423 -12.0422,-3.0867 -20.9209,0.1217 -4.6624,1.6845 -8.9237,0.4174 -15.1783,2.7841 -4.4808,-2.7523 -3.2052,-10.5375 -1.5239,-13.1847 5.6273,-1.0593 13.3154,-4.0187 17.321,-10.5419 4.8751,-7.9379 5.0619,-20.7892 1.4831,-30.5313 -3.2047,-8.7235 -10.0793,-16.9939 -8.9076,-29.9503 1.4688,-16.2422 13.8522,-27.613 20.7416,-44.5946 1.2248,-3.0196 2.275,-7.3281 -0.1339,-13.7094 -2.409,-6.3816 -9.1268,-11.614 -7.8043,-18.6964 0.301,-1.6116 1.672,-2.9484 4.0742,-2.8282 2.402,0.12 4.717,0.6676 9.6782,4.6332 -3.0882,-11.7109 -10.2433,-14.9132 -14.4874,-14.8744 -3.2998,0.0304 -6.0952,2.0666 -8.7161,8.44 -3.0791,-2.3456 -7.6965,0.3526 -11.4499,-0.6501 -1.705,-0.4553 -2.6974,-1.2034 -4.43,-3.6451 -2.0117,9.2223 1.6599,15.7247 7.9017,18.1267 -3.8103,5.0024 -0.1424,8.2062 1.5829,11.9359 1.2201,2.6384 2.5155,6.5541 -1.6836,11.3823 6.1662,0.0759 7.6577,-1.8331 9.3437,-4.3235 2.6226,-3.8734 1.1077,-9.2164 1.2808,-12.6984 0.2207,-4.4408 3.6314,-3.6273 5.4309,-1.0756 3.7426,5.3036 3.9726,14.4226 2.0059,20.2493 -1.0444,3.0943 -3.2132,7.6089 -4.9003,10.8008 -6.0266,11.4006 -14.1706,25.4557 -14.8058,32.8723 -0.5359,6.2566 5.1507,14.985 7.8629,25.0838 2.5479,9.4861 3.0427,22.0651 2.2032,28.8189 -0.575,4.625 -11.8624,9.6603 -12.4333,7.5733 -1.5485,-9.4157 -8.9756,-15.5174 -15.0218,-23.7659 -5.3687,-7.3238 -7.8186,-13.0656 -7.7996,-15.1561 l 0.3386,-21.8497 -9.5579,-7.2575 c -8.3796,5.3856 -18.1921,9.7249 -26.212,10.3297 -0.9119,0.0685 -0.4627,-0.5684 -0.3155,-0.9817 0.476,-1.3354 1.8409,-3.2049 2.9387,-4.8077 -10.1058,4.1968 -21.7899,7.1668 -32.1265,5.874 -0.6565,-0.082 0.1196,-4.6008 2.6649,-7.4782 -8.5956,2.5622 -16.9757,3.4519 -26.252,3.2032 -6.3264,4.8848 -16.1245,9.0772 -25.6255,9.6151 -2.235,0.1267 -3.0538,-0.063 -2.8848,-1.2548 0.0823,-0.5826 0.7362,-1.3687 1.4052,-2.0497 0.8949,-0.9107 2.6921,-2.0514 2.4481,-3.9656 -0.1851,-1.4548 -0.9443,-3.843 -2.5768,-4.9242 -2.3588,-5.4084 -5.0503,-7.8597 -6.4181,-7.3124 -1.2064,0.4831 -4.4166,4.3927 -3.1924,10.7649 -2.7756,1.5686 -2.3377,2.6542 -2.277,3.7193 0.1345,2.3485 2.9942,4.1407 3.7791,5.1685 1.8053,2.3622 -0.7385,3.7251 -6.057,3.1133 -0.5646,0.0119 -0.1209,-1.1244 0.2209,-2.397 0.3415,-1.2724 -0.0554,-2.4151 -0.2711,-2.977 -1.7374,-4.5249 -15.5184,-4.78 -20.7718,-0.0313 2.7718,1.7651 4.9192,2.9931 7.1881,5.3533 l -0.0657,1.5987 c -0.075,1.826 1.2157,2.6016 2.867,2.7283 1.7417,0.134 4.8771,-0.8118 5.4168,0.5627 0.5038,1.282 0.4058,2.3827 -1.2454,2.5847 -1.7914,0.2189 -3.5865,0.3774 -5.2479,-0.3348 -1.2449,5.7117 -6.4762,7.2173 -13.9188,7.1297 3.4405,5.0342 6.4172,6.287 8.4117,7.0524 5.4329,2.0846 10.7091,0.4101 13.5609,-3.461 1.7172,-2.3313 4.9341,-1.5592 4.2721,0.0751 -1.2738,3.1416 -5.268,6.3842 -3.59,9.7044 0.3856,0.7636 0.4364,1.3742 1.2625,2.423 l 0.0954,7.7175 c 0.0301,2.4575 11.4689,-6.3465 15.8537,-12.3807 -5.2488,-1.8798 -1.9481,-6.0582 1.6311,-7.7459 2.9066,-1.3707 4.6991,-0.7029 5.2452,-0.2779 1.4925,1.162 0.693,3.8597 -0.6556,6.1679 4.2701,-2.3369 8.3399,-6.8848 12.1958,-10.7369 0.648,-0.6474 4.1226,0.3839 2.8789,2.8562 -0.8967,1.7823 -3.6565,1.9326 -4.8912,4.93 z m 88.6218,-127.9268 c -5.1881,-0.636 -13.2898,-2.8952 -18.7805,-1.4582 -4.6805,1.2247 -8.8892,9.2928 -10.6017,10.2412 l -8.0247,4.4437 c -1.4507,0.8033 -3.1238,1.4644 -1.7595,3.3226 0.7522,1.0245 1.5646,1.6165 3.2088,2.8442 -0.2878,5.4531 -1.1895,5.8138 0.6593,7.1384 1.1644,0.8342 9.1447,-2.8763 14.4544,-3.7248 2.78,-0.4442 8.3726,5.8299 6.6388,7.5331 -0.7517,0.7385 -5.7176,-3.3468 -9.6397,-2.4098 -3.9624,0.9463 -7.09,3.7954 -14.6742,6.0838 -8.1945,2.4723 -15.2039,0.6752 -17.1429,-1.0972 -2.2292,-2.0371 -5.1948,-5.0614 1.5627,-11.9435 -7.7572,1.7247 -9.8066,6.2178 -10.7733,9.28 -4.2134,13.3461 14.9465,15.5443 31.1239,6.2383 1.1328,2.1845 3.2721,6.8305 7.0982,9.665 1.0543,0.7811 4.6063,-0.1421 6.8923,1.3815 1.8661,1.2438 2.8912,2.3892 2.4067,2.7844 -1.0774,0.8777 -5.1034,5.8153 -11.4739,5.6527 -3.822,-0.0978 -7.4645,-0.9437 -12.2311,-7.5065 -0.5224,1.1229 0.2052,5.4548 0.7616,8.8515 -15.5963,1.9064 -22.5882,10.9754 -32.0133,18.3462 -5.6548,4.4224 -11.5191,6.531 -15.3972,6.6522 -5.0503,0.1576 -9.8095,-3.3334 -7.0914,-13.7988 -6.9552,6.7759 -6.0357,14.2716 -1.9837,18.2991 3.8383,3.815 14.4409,4.4131 26.7858,-0.4171 l -4.045,5.0725 c 2.1579,1.1214 3.4166,0.9331 8.7862,0.6868 6.5336,-0.2998 15.2136,-4.395 19.8631,-4.5328 l -4.9379,9.0644 c 4.6203,0.5569 4.5426,-0.1369 9.0818,-0.5333 10.6283,-0.9279 19.5204,-6.9181 25.1542,-10.3551 l -2.031,9.2976 c 5.8226,0.657 11.7147,-4.2123 18.4909,-8.7497 8.0229,5.7079 14.1809,8.2006 19.8371,10.0655 -4.6822,-9.9345 -4.5006,-16.3207 -2.007,-20.4434 l 4.4563,2.4323 c -2.3287,-4.6211 -7.1309,-12.449 -3.6501,-20.7857 l 6.252,4.2362 c -1.5213,-5.0856 -1.0949,-13.7112 -1.2455,-19.9524 -0.0747,-3.1051 -0.6719,-5.2739 -1.6664,-6.9047 l 3.1869,-1.5992 c -3.9668,-10.1219 -5.224,-17.9898 -11.2098,-24.1711 l 2.9653,-3.6702 c 1.9607,-2.4271 1.489,-4.0483 -0.1637,-6.6327 -2.3944,-3.7429 -6.172,-5.7703 -8.3206,-5.8199 -2.4373,-0.0567 -5.2152,3.4267 -8.8022,6.8929 z m -30.248,34.7416 c 0.8272,1.6915 2.6361,3.7274 6.271,3.0637 1.3327,0.6681 2.0563,-0.3468 3.2122,-0.6895 0.4285,-0.2664 1.3564,-2.6512 1.2137,-3.2785 -0.0155,-0.0674 -0.0642,-0.1246 -0.1138,-0.1704 -0.9542,-0.8833 -2.949,-1.5415 -4.1869,-1.5459 -2.6308,-0.01 -4.043,1.3094 -6.3962,2.6206 z"
         style="fill:url(#grad3)"
         id="path78"
         inkscape:connector-curvature="0" />
      <path
         d="m 318.1515,370.5186 c -4.8538,-0.601 -12.7451,-2.4209 -17.8829,-1.0628 -4.3795,1.1577 -7.1688,8.7299 -8.8273,9.518 l -7.508,3.5683 c -1.4049,0.6676 -2.9227,1.3833 -1.6463,3.139 0.7041,0.9679 1.4639,1.5272 3.0021,2.6871 -0.2691,5.1519 -0.4898,8.9561 1.2405,10.2083 1.09,0.7887 8.5556,-4.6066 13.5236,-5.4087 2.6016,-0.42 7.2102,3.9326 5.5879,5.5424 -0.7037,0.6979 -5.3492,-2.8474 -9.0191,-1.9618 -3.7076,0.8943 -6.6332,3.9002 -13.7293,6.0625 -7.6671,2.336 -13.445,0.4805 -15.2594,-1.1941 -2.0858,-1.9247 -4.0809,-5.4116 1.3059,-11.9135 -6.7902,1.944 -9.7984,6.6616 -10.703,9.5548 -3.9425,12.609 14.9196,16.4176 30.0553,7.6256 1.0598,2.0639 2.1255,4.721 5.7056,7.3991 0.9865,0.7382 4.3097,-0.1343 6.4487,1.305 1.7458,1.1752 2.7049,2.2572 2.2516,2.6305 -1.0079,0.8293 -4.7747,5.4946 -10.7351,5.3405 -3.5762,-0.0923 -7.7637,-1.9939 -12.2235,-8.1943 -0.4889,1.0611 0.1921,5.1536 0.7125,8.3627 -14.5921,1.8009 -20.3537,11.4709 -29.172,18.4348 -5.2911,4.1782 -10.7774,6.1703 -14.4059,6.2847 -4.7251,0.1489 -9.1779,-3.1492 -6.6347,-13.0364 -6.5073,6.4015 -5.6474,13.4827 -1.8561,17.2881 3.5917,3.6045 12.419,4.0117 22.8777,0.3932 l -3.0047,4.005 c 2.019,1.0595 4.5996,0.8821 9.6242,0.6489 6.1133,-0.2838 12.0504,-3.5229 16.4004,-3.653 l -3.8401,6.6743 c 4.3229,0.5263 5.6533,1.1308 9.9009,0.756 9.9441,-0.8771 18.575,-6.6936 22.1308,-7.264 l -2.836,5.0051 c 5.4478,0.6208 12.6762,-2.7196 19.016,-7.0066 7.5062,5.3927 12.9558,8.0623 19.1836,9.5095 -3.4452,-9.2281 -4.8346,-14.7894 -2.5015,-18.6841 l 4.1693,1.6681 c -2.3348,-6.7277 -5.503,-11.2888 -3.3377,-18.8499 l 6.0053,4.0021 c -0.6436,-6.0643 -0.7881,-12.7956 -0.9308,-18.6926 -0.071,-2.9356 -0.4726,-5.4549 -1.4031,-6.9955 l 2.6696,-1.6687 c -3.7114,-9.5626 -4.5757,-16.6806 -10.1762,-22.5205 l 2.6186,-3.9399 c 1.6252,-2.4457 1.2382,-3.8237 -0.3091,-6.266 -2.2409,-3.5371 -6.2421,-5.766 -8.2526,-5.8135 -2.2811,-0.0537 -4.8795,3.2376 -8.2357,6.5123 z m -25.613,33.8668 c 1.2431,0.9428 3.1352,1.4813 4.524,1.4831 1.7487,0.003 3.6369,-0.5132 5.1256,-1.4382 0.4285,-0.2664 1.8555,-1.3202 1.7128,-1.9474 -0.0155,-0.0675 -0.0642,-0.1247 -0.1139,-0.1705 -0.9542,-0.8833 -2.4498,-1.0423 -3.6877,-1.0467 -2.6308,-0.01 -5.2076,1.8085 -7.5608,3.1197 z m 11.2325,-19.1786 c 1.6194,-0.1025 3.244,-0.2218 4.8664,-0.2761 -0.5304,-2.2245 -1.5867,-4.4254 -3.9137,-5.1685 -1.8751,-0.599 -4.6565,-0.2376 -6.6017,0.1739 0.317,0.3678 0.6276,0.74 0.963,1.0926 0.5522,0.1199 1.1042,0.2399 1.6562,0.3599 l 0.317,0.0689 0.1955,0.2589 c 0.8593,1.1363 1.7528,2.2823 2.5173,3.4904 z"
         style="fill:#474d44;fill-rule:evenodd"
         id="path80"
         inkscape:connector-curvature="0" />
      <path
         d="m 267.0238,425.5045 c -7.9146,5.6945 -14.2486,11.6388 -20.5826,17.7495 -1.1377,-2.4592 -2.2846,-7.2105 -3.4011,-9.3259 -0.7802,-0.0969 -3.0412,1.4782 -4.9297,2.2412 0.8588,-3.0547 1.052,-6.0258 -0.0861,-8.4146 -1.6667,1.1103 -4.0821,1.9714 -6.0815,2.6661 2.6325,-7.0737 2.561,-9.2395 1.326,-10.7392 -0.6287,-0.7633 -1.9045,-1.2076 -3.6436,-0.2878 -1.0435,0.5519 -2.1261,1.8468 -3.3492,3.2747 -0.4322,0.505 -1.1985,0.5835 -2.1564,0.6419 -1.2318,0.0753 -2.7289,0.0645 -3.6708,0.3134 -2.2461,0.5935 -4.8898,1.719 -7.0903,2.3792 0.4463,-2.6661 2.3068,-5.9145 3.751,-8.2479 -0.0878,-1.4151 -0.1319,-2.7271 0.1002,-3.7893 0.3228,-1.4793 1.2633,-1.902 2.7376,-1.9095 0.3333,-0.002 1.3622,0.0405 2.2324,-0.2438 1.1188,-0.3654 1.9772,-1.1632 0.7621,-2.141 -1.6142,-0.1118 -5.2441,0.1772 -6.2993,-0.0172 -1.9431,-0.3582 -4.1927,-2.953 -4.9513,-4.0678 l -4.8325,-0.4153 c 0.3847,-1.6145 2.1349,-4.5865 6.0832,-4.5001 0.5433,-1.1646 3.116,-3.4271 4.5646,-3.188 2.078,0.3427 3.7134,3.5561 5.3512,3.7703 1.632,0.2137 2.1116,-0.6194 1.667,-1.5015 -0.4851,-0.9623 -2.3637,-1.8517 -3.911,-2.9241 -1.726,-1.1959 -2.7327,-2.7747 -2.9017,-4.9224 -0.0625,-0.7969 0.0172,-1.6437 0.3138,-2.4861 l -4.3334,-5.8328 c 2.7697,-1.1325 6.6341,-1.1994 8.7576,-0.6252 1.6515,0.4463 2.3581,1.3827 3.5741,2.9606 2.8308,-0.195 4.3816,0.3748 4.9937,1.8883 0.9238,2.2875 -0.8301,4.0377 -0.6582,6.0307 0.0674,0.7817 0.7793,1.9577 2.1206,2.3275 1.3412,0.3698 2.5461,-0.3149 2.7125,-1.0809 0.4866,-2.2387 -2.1866,-3.3112 -2.0044,-6.6331 0.0803,-1.4694 0.9448,-2.8892 1.387,-4.4052 0.8442,-2.8947 0.641,-7.7544 0.8667,-10.4593 6.9998,1.4743 8.2079,5.9426 8.9464,8.8162 0.3105,1.2096 0.6605,2.1585 1.4585,3.1451 0.3941,0.4872 1.2248,1.0348 1.7102,1.4837 1.8313,1.6924 0.9641,3.1679 0.1343,3.9665 -2.0572,1.9799 -4.0038,2.3386 -2.3771,6.4324 6.411,16.1318 16.7856,23.9886 21.7095,28.0707 z"
         style="fill:#464e45;fill-rule:evenodd"
         id="path82"
         inkscape:connector-curvature="0" />
      <path
         d="m 235.5538,490.7591 c 2.641,-0.7283 3.8398,0.0312 6.16,-1.2199 2.5044,-1.3502 3.6895,-3.6678 5.0996,-5.4741 1.1819,-1.5134 2.6597,-3.2064 3.8249,-3.967 3.8112,3.6731 6.7295,7.0701 11.6998,6.9811 -2.2586,-5.2263 -2.3967,-6.8962 -0.824,-8.351 2.5024,-2.3141 7.4318,-4.045 12.8216,-5.7365 10.1901,14.2743 19.2985,16.4606 28.8696,21.4697 2.1725,1.1372 4.8608,2.4878 7.0789,4.0491 0.8135,0.5727 0.5657,0.4979 -0.5415,0.7288 -2.9702,0.6194 -7.7552,0.3013 -12.2465,-0.6848 -9.0129,-1.9793 -19.5122,-6.1145 -29.0059,-7.3118 -6.5165,-0.8211 -13.4821,-0.2198 -17.5297,5.914 -3.9265,5.9502 -4.0255,11.2088 -6.0384,15.5723 -1.2075,2.6174 -2.6634,3.047 -4.4063,3.2619 -4.8311,0.5963 -7.2395,-4.5815 -7.2237,-12.4626 -4.2295,2.4826 -5.2794,5.8539 -5.677,8.7454 -0.7589,5.521 2.0573,10.6063 5.4006,12.2307 2.9533,1.4352 9.2803,3.1723 15.4082,-1.5832 4.8848,4.6221 6.0089,8.5836 5.1846,12.4835 -1.0377,4.909 -7.4712,10.6742 -15.262,13.5023 -0.479,-3.3967 0.1532,-5.8874 -0.4423,-7.6367 -0.993,-2.9157 -3.404,-3.4519 -6.2359,-3.3404 -2.2119,-3.4335 -6.9437,-3.4288 -9.651,-2.1375 1.768,2.0785 2.657,3.857 2.7607,4.8407 -0.6883,3.1264 -2.5106,3.3036 -1.4481,5.9785 0.9373,2.3605 4.7304,4.2785 5.2155,6.4723 0.3228,1.4589 -0.9571,2.1019 -1.9037,1.7408 -1.8427,-0.7031 -3.3381,-3.1591 -6.1942,-3.6019 -2.0838,-0.3231 -3.8751,0.0552 -6.0077,1.9204 -3.7919,0.3526 -7.8092,3.6585 -8.9814,7.9977 2.8228,-0.105 6.8206,-0.2638 8.8612,0.0473 0.8123,0.5581 1.6287,2.3045 2.6384,3.7421 1.4127,2.0111 3.2545,2.4168 5.0134,0.4965 1.4595,-1.5929 3.3898,-1.9942 4.8253,-0.1197 -2.1644,1.087 -9.0089,4.1515 -3.5944,9.9832 -0.5373,2.7671 -0.6695,7.3013 1.0506,10.069 1.9002,-2.8261 4.101,-5.7044 5.5345,-6.9624 3.2989,-1.1381 4.9055,-3.0955 5.1796,-5.5923 0.1164,-1.0625 0.2031,-2.9645 0.2624,-4.4829 0.1281,-3.2761 4.3304,-2.9673 4.7829,-0.636 0.521,2.6839 -1.4026,7.0196 1.6573,8.7911 0.4711,2.9134 1.3024,7.0433 2.0386,9.4926 3.8077,-2.719 6.6831,-6.0672 7.397,-9.4289 1.3635,-2.39 1.3176,-5.346 0.7306,-7.2004 -0.2717,-0.8584 -0.5834,-1.5368 -0.9501,-2.1433 -0.6827,-1.132 -1.7907,-1.6755 -0.8896,-3.0015 1.162,-1.7102 3.6001,-3.9715 8.3935,-3.2239 0.2919,2.5657 0.749,5.183 1.7806,7.179 1.8456,3.5718 5.5634,4.0307 6.789,9.1148 2.0573,-1.4428 2.8121,-4.7388 1.8696,-7.0614 -0.8316,-2.0493 -3.0751,-3.4784 -3.5138,-5.6261 -0.4901,-2.4003 1.4417,-5.405 3.1372,-6.5212 0.4615,6.3177 0.2747,10.368 3.1773,12.4284 3.8614,0.322 8.8039,0.5607 11.9163,1.4653 -2.4191,-4.7123 -5.4892,-5.3337 -7.2476,-8.3577 -1.2828,-2.2067 -1.4825,-5.9367 -0.8783,-7.6597 2.2596,1.6147 1.0214,4.1976 4.151,7.59 2.1407,2.3202 8.1563,3.6784 10.6294,3.4142 -0.3038,-1.8129 -4.2773,-5.5678 -6.2292,-8.196 -1.0689,-1.4396 -1.4078,-2.512 -0.3485,-4.1025 1.4776,-2.2181 4.9607,-2.7829 7.3191,-4.763 2.2578,-1.8953 4.3311,-5.4085 4.6665,-10.8618 0.2782,-4.5199 -2.0508,-8.4605 -6.3804,-10.3855 1.6748,7.6397 1.4977,14.3143 -1.5202,15.0002 -2.9892,-9.8901 -10.168,-15.6701 -8.1779,-21.9363 1.7849,-5.6201 12.0113,-3.7225 18.4124,-4.057 3.6171,-0.1892 7.4508,-1.7146 11.1622,-3.0911 2.1506,-0.7978 4.2616,-1.5613 6.2651,-1.7607 1.1317,-0.1118 0.8798,0.0671 0.3666,0.9203 -4.1474,6.8933 -7.1431,12.9039 -9.4969,18.9804 -2.8707,7.4102 -2.2111,13.7291 -0.2055,20.329 0.7718,2.5409 1.7268,4.6209 2.233,6.3322 0.6923,2.341 0.2802,4.2251 -2.522,5.1633 -1.7971,0.6019 -4.1571,-0.5742 -7.5891,-1.4198 2.1039,7.7258 10.0346,8.6683 14.6257,5.1706 2.7543,-2.0984 4.6945,-5.9339 4.1624,-10.6838 8.7059,0.6801 14.8125,0.5698 22.8873,0.2881 1.4644,-0.0511 0.9688,1.7274 -0.4378,4.6752 -2.6778,4.9134 -7.3781,13.9442 -9.6362,16.6485 -1.0937,1.31 -2.6856,2.1171 -3.3348,1.6609 -0.6822,-0.479 -0.1068,-2.5882 0.0989,-3.1828 0.6416,-1.8529 0.3611,-2.9247 -1.2764,-3.4008 -4.4142,-1.2832 -14.8297,-2.0418 -18.7028,1.6988 l 5.5418,4.6323 c 1.2073,1.2414 3.0354,3.8126 4.3311,4.7744 3.0496,2.2633 4.9446,-0.408 5.6591,4.9511 -1.3757,0.007 -3.6451,-0.8427 -5.2508,-1.1124 -1.2487,-0.2099 -2.3643,0.2454 -2.4361,1.0522 -0.3552,3.9834 -3.0864,4.9884 -3.8436,10.1432 -0.4629,3.153 0.1141,6.0617 2.0613,8.7628 1.2779,-0.5692 4.6434,-3.3955 6.905,-5.8746 0.9609,-1.0534 3.235,-0.6494 4.3617,-2.1197 0.8216,-1.0718 1.0514,-3.0415 1.5698,-4.3331 1.9574,-3.8316 4.7029,-2.5806 3.0835,0.946 -0.803,1.7482 -2.4411,3.2248 -1.1682,5.0419 1.815,2.5908 3.2225,4.2548 5.2821,5.8885 2.3523,1.8661 5.2353,3.2304 8.4484,3.6387 0.7295,-2.941 0.1101,-5.1372 -2.0236,-7.9478 1.8406,-2.113 1.7037,-4.7056 1.0525,-6.7257 -0.5747,-1.7829 -2.1617,-2.8048 -3.047,-3.6881 -1.5885,-1.5855 0.2799,-2.7472 1.7332,-2.6521 1.836,0.12 3.3392,2.4475 3.0138,6.9838 -0.1591,2.221 3.7811,1.3611 5.2084,3.5409 -0.3727,2.6106 0.536,4.5473 1.8833,5.9674 3.9397,-2.6486 6.0162,-13.1199 4.6822,-18.3532 -0.6763,-2.6544 -1.5558,-2.5625 -4.8401,-2.5587 -2.0958,0.002 -1.7388,-2.5922 -0.4807,-2.8004 7.2169,-1.1947 6.1982,-5.2198 7.9259,-3.437 3.5789,3.693 6.2363,5.9922 10.5664,6.4088 0.7225,-6.813 -7.0114,-9.4567 -5.322,-14.2212 3.2876,4.3924 6.1784,3.6667 8.4669,6.9049 0.7627,1.0792 1.6068,3.0433 2.1792,5.1922 5.3959,-5.6781 0.883,-9.9351 -1.7242,-14.4343 -1.1845,-2.0446 -1.744,-3.9265 -1.852,-5.4752 -0.1813,-2.5958 0.2662,-3.017 1.1669,-2.1101 2.3217,2.338 2.2143,5.2613 5.1087,7.8784 1.8768,1.697 5.5693,2.35 7.6557,1.6935 3.5829,-1.1272 9.9003,-5.228 10.5947,-14.5804 -3.3048,0.7545 -8.527,7.1142 -11.0559,7.17 -2.6083,0.0572 -3.7569,-2.4443 -4.4791,-6.344 -0.8187,-4.4198 3.5553,-6.7473 0.4542,-20.0706 3.2514,0.1597 5.8588,4.064 8.1041,8.0707 0.9571,-5.6795 0.7551,-9.6238 -2.0754,-12.9021 -3.4326,-3.9758 -10.3481,-4.4545 -18.6684,-1.4477 -4.369,1.5785 -9.7681,3.6711 -15.6295,5.8888 -4.1991,-2.5791 -2.6912,-10.9683 -1.1159,-13.4491 5.2736,-0.9924 12.4774,-4.0774 16.232,-10.191 4.5692,-7.4397 4.4321,-20.4186 1.702,-28.2993 -2.8512,-8.2301 -9.6475,-17.9454 -8.8159,-26.9732 1.5589,-16.9238 12.8247,-25.8763 19.2813,-41.7904 1.148,-2.8299 2.2881,-7.6481 0.0307,-13.6284 -2.2578,-5.9802 -8.3971,-11.3521 -7.4698,-16.7396 0.2607,-1.5143 1.5666,-2.763 3.8179,-2.6503 2.2511,0.1127 4.7327,1.094 9.3819,4.8103 -2.894,-10.9744 -9.9102,-15.774 -13.8886,-15.736 -3.0938,0.0294 -6.4928,1.8593 -8.6365,8.9254 -2.8856,-2.198 -7.0167,-0.7236 -10.5348,-1.6644 -1.599,-0.4276 -2.5278,-1.1276 -4.1516,-3.4157 -1.885,8.6423 1.8293,16.1033 7.6785,18.354 -3.5707,4.6881 -0.6022,7.6896 1.0149,11.1855 1.1439,2.4726 1.7326,5.9858 -2.2024,10.5104 5.7783,0.0709 8.2693,-1.5616 9.8493,-3.8956 2.4577,-3.6296 1.0379,-8.6367 1.2002,-11.8997 0.2067,-4.1615 3.0906,-3.3994 4.7771,-1.0079 3.507,4.97 3.0987,13.8271 1.2548,19.2881 -0.9793,2.9002 -2.8547,6.1933 -4.4358,9.1843 -5.6475,10.6837 -13.0705,22.2843 -13.5624,30.3366 -0.4349,7.1175 4.67,13.8861 7.2123,23.3503 2.3883,8.8901 2.6956,19.5838 1.9084,25.9131 -0.5391,4.3346 -10.0232,8.7407 -10.5582,6.785 -1.451,-8.8238 -8.567,-14.5413 -14.2334,-22.2715 -5.0313,-6.8635 -7.3268,-12.2439 -7.309,-14.203 l 0.1612,-17.8205 -8.957,-6.801 c -7.8527,5.0471 -17.0481,9.1134 -24.5636,9.6799 -0.8547,0.0645 -0.4335,-0.5324 -0.2957,-0.9197 0.446,-1.2513 1.725,-3.0036 2.754,-4.5053 -9.4704,3.9329 -20.4198,6.7161 -30.1064,5.5044 -0.615,-0.0767 0.1121,-4.3115 2.4974,-7.0079 -8.055,2.401 -15.9083,3.235 -24.601,3.0017 -5.9286,4.5778 -13.1955,8.5051 -22.0996,9.0107 -2.0961,0.1191 -2.8628,-0.0584 -2.7035,-1.176 0.078,-0.547 0.6889,-1.2817 1.3167,-1.9207 0.8398,-0.8546 2.5237,-1.9212 2.2943,-3.7163 -0.1746,-1.3643 -2.7995,-3.6014 -4.3293,-4.6145 -2.2105,-5.0684 -4.5766,-6.8971 -5.8582,-6.3842 -1.1305,0.4527 -2.5763,2.7878 -1.8976,8.1347 -2.601,1.4699 -2.6594,2.6433 -2.6025,3.6416 0.1261,2.2008 3.1183,3.568 3.8538,4.531 1.6918,2.2137 -0.6921,3.491 -5.6761,2.9177 -0.5289,0.0111 -0.1147,-1.0523 0.207,-2.2464 0.3216,-1.1938 -0.052,-2.2633 -0.254,-2.7899 -1.6281,-4.2402 -14.5425,-4.167 -19.4655,0.2832 2.5975,1.6541 4.6098,2.4924 6.7359,4.7044 l -0.0615,2.5919 c -0.0409,1.7164 1.1374,2.4362 2.6868,2.557 1.6343,0.1276 3.4744,-0.216 3.9822,1.0742 0.4741,1.2034 0.3804,2.2326 -1.1672,2.4221 -1.679,0.2054 -3.3608,-0.5835 -4.9178,-1.2508 -1.0105,4.8836 -4.0386,5.67 -11.0133,5.5879 0.8815,3.6241 4.1668,6.6046 7.5705,7.8583 5.1174,1.8853 10.7771,0.3473 13.4517,-3.2826 1.6115,-2.1868 2.9434,-1.1095 2.3229,0.4221 -1.1936,2.944 -4.3909,5.4732 -2.8165,8.5862 0.3629,0.7172 0.7213,1.444 1.4954,2.4268 l 0.1664,6.9592 c 0.0551,2.3056 11.6849,-6.1034 15.7941,-12.3828 -4.9189,-1.7616 -3.2324,-4.5833 0.1226,-6.1659 2.7248,-1.2852 4.5593,-1.2843 5.0719,-0.8853 1.3996,1.0899 0.1807,4.0856 -0.9271,6.7172 4.0015,-2.1897 8.7912,-6.4895 12.4056,-10.1008 0.6086,-0.608 2.4385,0.467 0.6676,2.364 -0.6854,0.7341 -2.958,0.7178 -3.803,4.6201 z"
         style="fill:#464e45;fill-rule:evenodd"
         id="path84"
         inkscape:connector-curvature="0" />
      <defs
         id="defs96">
        <linearGradient
           id="grad4">
          <stop
             offset="201392128.0000%"
             stop-color="#ffd300"
             stop-opacity="1.0000"
             id="stop86" />
          <stop
             offset="201392153.0000%"
             stop-color="#ffd300"
             stop-opacity="1.0000"
             id="stop88" />
          <stop
             offset="201392183.0000%"
             stop-color="#ffd700"
             stop-opacity="1.0000"
             id="stop90" />
          <stop
             offset="100.0000%"
             stop-color="#ffd700"
             stop-opacity="1.0000"
             id="stop92" />
        </linearGradient>
        <linearGradient
           xlink:href="#grad4"
           id="grad5"
           x1="202.24284"
           y1="334.19754"
           x2="202.24284"
           y2="559.95148"
           gradientUnits="userSpaceOnUse"
           gradientTransform="scale(0.9159078,1.091813)" />
      </defs>
      <path
         d="m 286.9284,397.7715 c 1.0245,-0.1708 6.2981,-2.998 7.2631,-3.454 1.7586,-0.8313 3.796,-1.7031 5.7222,-2.0143 1.4781,-0.2385 3.1404,0.6363 4.2756,1.5102 1.2729,0.9796 3.2163,3.0555 2.5242,4.8276 -0.1019,0.261 -0.2568,0.4936 -0.4556,0.6909 -0.7586,0.7522 -2.144,0.0648 -2.9542,-0.2782 -1.1548,-0.4889 -2.2975,-0.9936 -3.5167,-1.3053 -0.9457,-0.2414 -1.9986,-0.3806 -2.9595,-0.1489 -1.8695,0.451 -3.7012,1.5593 -5.3807,2.4738 -2.7221,1.4822 -5.3208,2.6679 -8.299,3.5754 -3.2686,0.9959 -6.808,1.4282 -10.2053,0.9358 -1.902,-0.2759 -4.4531,-0.986 -5.9032,-2.3241 -3.5739,-3.298 -2.73,-7.2184 -0.5423,-10.6977 -3.3731,1.6106 -6.299,4.3547 -7.4251,7.9566 -0.6629,2.1203 -0.756,4.364 0.3724,6.3454 2.0768,3.6466 7.2118,4.7852 11.0694,4.9072 5.9568,0.188 12.2126,-1.6684 17.3379,-4.6454 l 0.7975,-0.4632 0.4214,0.8205 c 1.5929,3.1019 2.5263,4.9099 5.4511,7.0979 0.1961,0.1401 1.1287,0.1731 1.3759,0.1824 0.9458,0.0353 1.8734,0.0505 2.8077,0.2294 0.7925,0.1518 1.5567,0.4151 2.2295,0.8678 0.9238,0.6217 3.3007,2.2563 2.6322,3.637 -0.1141,0.2358 -0.1144,0.2326 -0.3131,0.3961 -0.4093,0.3368 -0.8278,0.7992 -1.2216,1.1687 -0.7388,0.6929 -1.5135,1.3392 -2.348,1.9151 -2.3036,1.5893 -4.9212,2.5289 -7.7444,2.4559 -4.7292,-0.122 -8.5229,-3.1311 -11.4365,-6.644 0.1815,2.0716 0.6818,4.9916 0.8123,5.797 l 0.1457,0.8978 -0.9028,0.1112 c -9.7804,1.2073 -15.2775,5.8005 -22.1092,12.3114 -2.1495,2.0484 -4.2943,4.0995 -6.6274,5.9417 -3.9238,3.0987 -9.799,6.3112 -14.9211,6.4729 -1.4212,0.0447 -2.8663,-0.1976 -4.1471,-0.8322 -3.8384,-1.9019 -4.4449,-6.1288 -3.9832,-10.0363 -1.3911,1.944 -2.3476,4.1781 -2.4469,6.6101 -0.1059,2.5911 0.8424,5.1729 2.6793,7.0168 2.0102,2.0172 5.5479,2.5791 8.2654,2.6477 4.5605,0.1153 9.4178,-0.9808 13.7057,-2.4641 l 2.7038,-0.9355 -4.0269,5.3672 c 2.3742,0.6448 6.108,0.2715 8.1883,0.1749 0.315,-0.0146 0.6293,-0.0374 0.9431,-0.0675 2.7817,-0.267 5.4905,-1.094 8.149,-1.9171 2.2729,-0.704 4.9399,-1.5975 7.3226,-1.669 l 1.5672,-0.0467 -3.9729,6.9046 c 1.2691,0.188 2.5336,0.406 3.8024,0.5534 1.5684,0.1819 3.0412,0.1609 4.6133,0.0222 4.5865,-0.4045 8.9824,-1.8891 13.1955,-3.6807 1.7134,-0.7286 3.397,-1.5169 5.1025,-2.2613 1.1323,-0.4941 2.5514,-1.1188 3.7712,-1.3143 l 1.7987,-0.2884 -3.036,5.3576 c 5.6965,-0.0394 12.6698,-3.9592 17.0656,-6.9315 l 0.5056,-0.3421 0.4956,0.3564 c 5.4797,3.9364 10.8338,7.1782 17.2711,8.9604 -1.1769,-3.2029 -2.3547,-6.6667 -2.8806,-9.9432 -0.4347,-2.7087 -0.4215,-5.5085 1.0295,-7.9309 l 0.3835,-0.6401 3.0441,1.2177 c -2.2925,-6.043 -4.7178,-10.4575 -2.6865,-17.5504 l 0.3298,-1.1524 5.4662,3.6428 c -0.5041,-5.6154 -0.6188,-11.2903 -0.7551,-16.9188 -0.0467,-1.9282 -0.2592,-4.8781 -1.2773,-6.5637 l -0.4457,-0.7382 2.7893,-1.7435 c -1.1364,-3.007 -2.0923,-6.0503 -3.1119,-9.0994 -0.9028,-2.6996 -1.8777,-5.4206 -3.2741,-7.9105 -0.9302,-1.6585 -2.0295,-3.1708 -3.3465,-4.5444 l -0.4857,-0.5064 3.0067,-4.524 c 1.4399,-2.1667 1.0074,-3.2187 -0.3193,-5.3127 -0.9912,-1.5648 -2.4078,-2.9376 -3.9533,-3.9522 -0.9087,-0.596 -2.4665,-1.4285 -3.5804,-1.4548 -1.0458,-0.0245 -2.3818,1.1261 -3.1062,1.782 -1.5576,1.4093 -2.9893,3.0106 -4.4972,4.4817 l -0.3012,0.2942 -0.418,-0.0519 c -5.1119,-0.6329 -12.5682,-2.4026 -17.5513,-1.0853 -1.6664,0.4405 -3.0996,2.0508 -4.1005,3.3757 -0.8783,1.1629 -1.634,2.3982 -2.4259,3.6189 -0.495,0.763 -1.3138,2.0709 -2.1489,2.4679 l -7.508,3.5683 c -0.0779,0.0368 -0.1558,0.0739 -0.2335,0.1113 -0.331,0.1587 -1.2335,0.5834 -1.3751,0.9445 -0.0869,0.2216 0.1778,0.6165 0.2946,0.777 0.7326,1.0073 1.8371,1.761 2.8211,2.5033 l 0.3715,0.2802 -0.0242,0.4647 c -0.0893,1.7102 -0.6961,7.9709 0.7648,9.3574 z M 223.452,536.18 c 0.7837,1.0321 1.6247,2.3299 2.005,3.5021 1.8602,0.3211 4.0383,-0.1141 5.4884,-1.2575 l -0.0131,-0.0204 c -1.5476,-2.4025 -4.8401,-3.0006 -7.4803,-2.2242 z m 2.2026,4.4172 0.009,0.0855 -0.0304,0.1386 c -0.197,0.8947 -0.505,1.6772 -0.9478,2.4758 -0.2317,0.4186 -0.5683,0.914 -0.7198,1.3626 -0.1868,0.5543 -0.0306,1.1027 0.1781,1.6287 0.918,2.3118 4.6647,3.9289 5.2566,6.6064 0.4268,1.9279 -1.272,3.4341 -3.0706,2.7481 -2.2044,-0.8412 -3.3953,-3.1483 -6.0165,-3.5546 -2.0587,-0.3196 -3.5009,0.2145 -5.0555,1.5079 1.0015,2.6305 0.8263,4.8103 -0.507,6.8255 l 0.0648,0.0447 c 1.0391,0.714 2.0759,2.8456 2.859,3.9606 1.0993,1.5649 2.2917,1.8927 3.6513,0.4081 1.8325,-2 4.3941,-2.3742 6.1662,-0.0604 l 0.6433,0.84 -0.9457,0.4749 c -3.8276,1.9224 -7.4348,4.2006 -3.3457,8.6049 l 0.0324,0.0348 c 2.4504,-0.0123 4.3807,0.9486 5.8509,2.7598 2.2619,-0.8281 4.0909,-2.2417 4.3693,-4.78 0.1582,-1.4445 0.2012,-2.967 0.2578,-4.4215 0.1684,-4.3013 5.8667,-4.123 6.5176,-0.7689 0.2352,1.2117 0.0487,2.5955 -0.0473,3.8212 -0.1089,1.3908 -0.2388,3.0949 0.8649,4.0774 2.5692,-0.9709 6.2741,-0.9093 8.8133,0.3937 0.918,-1.824 1.1059,-4.2867 0.4982,-6.2067 -0.2174,-0.6871 -0.4915,-1.3372 -0.8651,-1.9551 -0.4241,-0.7034 -1.0797,-1.1988 -1.2919,-2.038 -0.1746,-0.6903 0.0385,-1.3351 0.4279,-1.908 2.1524,-3.1679 5.5535,-4.1741 9.2526,-3.597 l 0.6597,0.1027 0.0756,0.6635 c 0.2542,2.2365 0.6509,4.8684 1.6882,6.8761 0.5722,1.1071 1.3713,1.9104 2.2908,2.7285 1.9381,1.7245 3.2913,2.9315 4.1334,5.1466 1.0112,-1.4226 1.266,-3.561 0.6451,-5.0905 -0.843,-2.0777 -3.0543,-3.3036 -3.5602,-5.7803 -0.5347,-2.6191 1.3582,-6.0089 3.5135,-7.4277 l 1.2464,-0.8202 0.1086,1.4877 c 0.1649,2.2595 0.225,4.6008 0.5245,6.8407 0.1856,1.3865 0.5058,2.977 1.3973,4.0985 0.2081,0.2621 0.4434,0.495 0.7043,0.7008 3.0511,0.2458 6.6344,0.3879 9.7731,0.988 -0.5021,-0.7119 -1.0695,-1.3695 -1.7245,-2.0017 -0.9224,-0.89 -1.9516,-1.6615 -2.8614,-2.5611 -0.6206,-0.6132 -1.1582,-1.2691 -1.5978,-2.0251 -1.2263,-2.1098 -1.7552,-6.0865 -0.9475,-8.3898 l 0.3862,-1.101 0.9492,0.6784 c 0.5703,0.4077 1.0096,0.9045 1.3401,1.5225 0.4836,0.9036 0.6745,1.9547 1.0006,2.9224 0.4273,1.2682 1.0347,2.2773 1.9448,3.2639 1.5199,1.6471 5.8498,2.9781 8.6513,3.1503 -0.7971,-1.256 -2.3608,-2.9854 -2.9262,-3.6296 -0.9077,-1.0342 -1.8511,-2.0824 -2.6716,-3.1869 -1.2951,-1.7443 -1.644,-3.2035 -0.3742,-5.1098 1.6597,-2.4913 5.233,-3.0575 7.4849,-4.9484 2.9341,-2.4627 4.1285,-6.5544 4.3556,-10.2447 0.2224,-3.6151 -1.3967,-6.759 -4.2826,-8.6683 0.8161,4.5284 1.7741,13.2077 -2.55,14.1905 l -0.796,0.181 -0.2364,-0.7814 c -1.2035,-3.9822 -3.1442,-7.3404 -5.1866,-10.919 -1.5371,-2.6939 -3.392,-5.9166 -3.3719,-9.1038 0.005,-0.8289 0.1334,-1.6418 0.3844,-2.432 0.2403,-0.7563 0.625,-1.4378 1.1594,-2.0248 3.5246,-3.8711 13.0872,-2.3827 18.0417,-2.6416 3.6308,-0.1897 7.5144,-1.7805 10.9035,-3.0377 2.0643,-0.7656 4.2818,-1.592 6.4835,-1.8109 0.5972,-0.0593 1.3182,-0.1095 1.65,0.5234 0.3305,0.6299 -0.138,1.2063 -0.4468,1.7198 -3.6419,6.0526 -6.877,12.252 -9.431,18.8452 -2.66,6.8662 -2.2767,12.8712 -0.1842,19.7581 0.6539,2.1521 1.6051,4.2087 2.235,6.3383 0.8868,2.9983 -0.004,5.2109 -3.0835,6.2421 -1.1947,0.3999 -2.4951,0.1591 -3.6807,-0.1503 -0.9446,-0.2464 -1.8734,-0.5397 -2.8097,-0.815 0.9874,2.252 2.7233,3.984 5.2324,4.6641 2.5412,0.6886 5.3935,0.1191 7.4858,-1.4749 3.0382,-2.315 4.2379,-6.1851 3.8228,-9.8898 l -0.1179,-1.0531 1.0564,0.0826 c 4.3707,0.3415 8.7196,0.516 13.1035,0.5046 3.2294,-0.008 6.4577,-0.1062 9.6849,-0.2186 0.4971,-0.0175 0.9813,0.1083 1.3368,0.4741 1.1936,1.2271 -0.3648,4.2189 -0.9536,5.4533 l -0.0102,0.0213 -0.0114,0.0208 c -1.326,2.4334 -2.6246,4.8815 -3.9574,7.3118 -1.0225,1.8643 -2.0602,3.7268 -3.1518,5.552 -0.7747,1.2948 -1.6571,2.7692 -2.6235,3.9268 -0.8778,1.0511 -3.0839,2.8188 -4.5103,1.8162 -1.1477,-0.806 -0.613,-3.0661 -0.2254,-4.1857 0.3842,-1.1092 0.5803,-1.9035 -0.6932,-2.2736 -2.1845,-0.6348 -5.7934,-1.1109 -9.2888,-0.9982 -0.1982,2.3543 -1.0412,4.6276 -2.7902,6.0981 0.6434,0.6895 1.2438,1.4548 1.8454,2.1758 0.6047,0.725 1.4162,1.7262 2.1699,2.2858 0.6205,0.4606 1.2239,0.718 1.9752,0.8771 0.6617,0.1404 1.3354,0.1932 1.9542,0.4921 1.5196,0.7341 1.8748,2.662 2.0759,4.1694 l 0.1313,0.9863 -0.995,0.005 c -1.7003,0.009 -3.6872,-0.8368 -5.4003,-1.1243 -0.2154,-0.0362 -1.3905,-0.0502 -1.4188,0.2662 -0.1244,1.3937 -0.5225,2.5485 -1.1828,3.7718 -1.225,2.2697 -2.1439,3.4282 -2.5954,5.9811 2.8111,-0.3191 5.3056,0.7796 7.0625,2.9536 0.1162,-0.1226 0.223,-0.2376 0.3193,-0.343 1.1889,-1.3035 3.4286,-0.9072 4.3136,-2.0622 0.6853,-0.894 1.0009,-3.0023 1.4521,-4.1264 l 0.0149,-0.0371 0.0178,-0.0353 c 2.4919,-4.8775 6.7549,-2.8541 4.6592,1.7099 -0.1188,0.2586 -0.2528,0.5102 -0.3935,0.7574 -0.5701,1.0018 -1.6641,2.259 -0.8532,3.4166 1.5374,2.1944 3.0053,4.0363 5.109,5.705 l 0.0189,0.0149 c 1.0964,-1.9965 2.8719,-3.4452 5.0792,-4.0728 l 0.1223,-0.1406 c 1.4711,-1.6886 1.5391,-3.8349 0.8795,-5.8819 -0.4852,-1.5047 -1.7806,-2.2875 -2.8322,-3.3369 -2.1136,-2.1095 0.01,-4.3027 2.4089,-4.1457 1.4247,0.0931 2.4504,1.0955 3.0482,2.3275 0.8068,1.6632 0.9119,3.78 0.7817,5.5926 -0.007,0.0943 -0.004,0.2035 0.0517,0.2843 0.4787,0.6918 3.3692,0.6641 4.8077,2.43 1.4186,-0.4988 2.9679,-0.5242 4.4005,-0.1089 0.3117,-1.0359 0.5406,-2.0277 0.6912,-2.8327 0.4767,-2.5482 0.7472,-5.9289 0.101,-8.4637 -0.1179,-0.4632 -0.3403,-1.2913 -0.7586,-1.5879 -0.5762,-0.4083 -2.5412,-0.3123 -3.2321,-0.3114 -3.1624,0.003 -2.9411,-4.1568 -0.6247,-4.5401 1.7593,-0.291 3.6253,-0.8508 4.9928,-2.0484 0.6343,-0.5558 1.352,-1.7161 2.1699,-1.8354 0.6273,-0.0914 1.1241,0.2773 1.5351,0.7014 2.7239,2.8106 5.2511,5.3386 9.1093,6.0225 -0.0281,-2.0452 -0.9204,-3.6997 -2.1629,-5.3921 -1.2307,-1.6757 -3.0106,-3.5531 -3.3766,-5.6524 -0.1466,-0.8415 -0.0645,-1.6696 0.2204,-2.4738 l 0.5467,-1.5411 0.9798,1.3091 c 0.8308,1.1103 1.7549,2.0348 2.9102,2.8042 0.8969,0.5975 1.8622,1.0467 2.784,1.5969 1.1355,0.6784 2.0184,1.4361 2.7867,2.5234 0.7498,1.0607 1.371,2.5105 1.8342,3.8888 3.1869,-4.4548 -0.3298,-7.8343 -2.852,-12.1867 -1.0199,-1.7609 -1.8252,-3.8068 -1.968,-5.8532 -0.0688,-0.9866 -0.2486,-3.0389 0.9814,-3.4274 0.6497,-0.2055 1.244,0.1997 1.6807,0.6393 2.3509,2.3675 2.5006,5.5187 5.0745,7.8459 1.5228,1.3769 4.8547,2.1215 6.8057,1.5077 2.2519,-0.7085 4.4195,-2.2187 5.9939,-3.9581 2.1644,-2.3905 3.3757,-5.2981 3.834,-8.4286 -1.3062,0.7172 -2.7747,1.9566 -3.6577,2.6872 -1.4422,1.1935 -4.4463,3.958 -6.3494,3.9997 -3.7537,0.0823 -4.8145,-4.1174 -5.3594,-7.0599 -0.1209,-0.6521 -0.1468,-1.3015 -0.0885,-1.9618 0.0873,-0.9866 0.3564,-1.9457 0.62,-2.8964 0.3094,-1.115 0.5931,-2.2012 0.7747,-3.3468 0.6185,-3.9067 0.0446,-8.0089 -0.8439,-11.8265 l -0.263,-1.1299 1.1588,0.0569 c 3.2181,0.1579 5.7587,3.4177 7.5544,6.3334 0.3891,-3.4583 0.1903,-6.9131 -2.2315,-9.7179 -4.1217,-4.7744 -12.6064,-3.04 -17.708,-1.1967 -5.2287,1.8894 -10.4167,3.9169 -15.617,5.8845 l -0.4019,0.1521 -0.3664,-0.2251 c -0.4378,-0.2688 -0.8327,-0.5969 -1.1795,-0.9758 -1.5785,-1.7242 -2.0023,-4.294 -1.9609,-6.5526 0.0388,-2.1229 0.5873,-5.315 1.7435,-7.1361 l 0.204,-0.3208 0.3733,-0.0704 c 5.9893,-1.1272 12.3878,-4.4808 15.6479,-9.7888 4.3828,-7.1364 4.3007,-19.8175 1.6206,-27.5544 -1.3587,-3.9224 -3.3713,-7.7359 -5.0684,-11.5313 -2.1687,-4.851 -4.2899,-10.403 -3.7919,-15.8088 0.5797,-6.2952 2.5152,-11.7935 5.4703,-17.3414 2.1524,-4.0416 4.6874,-7.8697 7.0871,-11.7658 2.5715,-4.1752 4.9367,-8.3784 6.7844,-12.9322 1.723,-4.247 1.6378,-8.7114 0.0227,-12.9897 -0.6573,-1.7414 -1.6381,-3.3903 -2.6308,-4.9589 -2.1853,-3.453 -5.6264,-7.9163 -4.8827,-12.2386 0.4013,-2.3305 2.4668,-3.4893 4.7248,-3.3763 2.7306,0.1366 5.3816,1.6471 7.6901,3.3164 -1.192,-3.3395 -2.9866,-6.5325 -5.5032,-9.0045 -1.6361,-1.6071 -4.3212,-3.5105 -6.729,-3.4875 -4.5272,0.0432 -6.6697,4.5553 -7.8069,8.304 l -0.366,1.2061 -1.0026,-0.7636 c -0.3947,-0.3009 -0.829,-0.5266 -1.2966,-0.6912 -2.5943,-0.9136 -6.0275,-0.0467 -8.9339,-0.824 -1.5201,-0.4066 -2.5085,-1.1378 -3.397,-2.1439 -0.3727,3.0771 -0.0452,6.2543 1.2117,9.1026 1.2326,2.7931 3.3605,5.2035 6.2528,6.3165 l 1.0896,0.4191 -0.7072,0.9288 c -3.144,4.1273 -0.6608,6.4525 1.113,10.2871 1.6909,3.6553 0.9474,6.9519 -1.1705,9.9697 2.8655,-0.1579 5.5567,-0.9066 7.2975,-3.4781 2.2814,-3.369 0.8649,-7.7184 1.0508,-11.4523 0.2344,-4.7242 3.9934,-4.8352 6.367,-1.4691 3.6597,5.186 3.3243,14.2822 1.369,20.073 -1.0774,3.1909 -2.9163,6.334 -4.4913,9.3133 -1.1796,2.2315 -2.4017,4.4402 -3.6227,6.6492 -2.2893,4.1414 -4.6282,8.323 -6.5888,12.631 -1.4559,3.1991 -3.0348,7.1638 -3.2511,10.7007 -0.0251,0.4147 -0.0306,0.8307 -0.0175,1.246 0.1069,3.3755 1.4507,6.7827 2.7336,9.8665 1.6532,3.9735 3.3456,7.7789 4.4679,11.9573 2.1054,7.8366 2.928,18.2393 1.9317,26.2481 -0.2813,2.2633 -2.4279,4.2336 -4.2023,5.4616 -1.3742,0.951 -6.402,3.8713 -7.8442,1.9133 -0.1816,-0.2463 -0.1431,-0.1658 -0.2254,-0.4667 l -0.0119,-0.0441 -0.007,-0.0449 c -0.3103,-1.8871 -0.9055,-3.6811 -1.7309,-5.4038 -1.4157,-2.9545 -3.4475,-5.6031 -5.524,-8.1189 -2.2946,-2.7805 -4.6863,-5.4616 -6.8209,-8.3732 -2.1369,-2.9153 -7.5124,-10.9657 -7.4782,-14.7287 l 0.1573,-17.3809 -8.121,-6.1664 c -6.9951,4.4253 -16.264,8.8693 -24.4542,9.4867 -0.542,0.0411 -1.0925,-0.1022 -1.3508,-0.6323 -0.2765,-0.5671 -0.0135,-0.9544 0.1643,-1.4544 0.2647,-0.7429 0.7215,-1.5471 1.2286,-2.334 -8.7127,3.3147 -18.7332,5.6382 -27.8647,4.496 -1.5213,-0.19 -0.8687,-2.7286 -0.6095,-3.632 0.2659,-0.9276 0.6451,-1.8695 1.1247,-2.7511 -7.3197,1.9137 -14.6024,2.5731 -22.2227,2.3912 -6.6081,5.05 -13.9097,8.5232 -22.3375,9.0016 -1.5814,0.0899 -3.9507,0.1456 -3.62,-2.1737 0.1249,-0.8766 0.9562,-1.7975 1.559,-2.411 0.7764,-0.7899 2.2154,-1.6988 2.0502,-2.9913 -0.1319,-1.0318 -2.674,-3.1057 -3.7519,-3.864 -1.8646,1.441 -4.6498,2.0654 -6.9327,1.594 l -0.101,0.0572 c -1.2245,0.692 -2.244,1.3395 -2.1591,2.8293 0.099,1.7277 2.7584,2.8485 3.6755,4.0491 0.5321,0.6967 0.9089,1.5791 0.6205,2.4574 -0.7703,2.3479 -5.1524,2.0817 -7.0508,1.8669 -0.2455,-0.0102 -0.4805,-0.0952 -0.6702,-0.2563 -0.8097,-0.6874 -0.1395,-2.2402 0.0899,-3.0925 0.2087,-0.7741 0.054,-1.5187 -0.2259,-2.2485 -0.4749,-1.237 -2.3684,-1.8768 -3.5302,-2.1486 -1.58,-0.3695 -3.3313,-0.4676 -5.0167,-0.3809 -0.0636,2.6778 -1.1553,4.5795 -3.345,5.9951 0.2046,0.1906 0.4083,0.3906 0.6112,0.6013 l 0.2528,0.263 -0.0704,2.9566 c -0.0289,1.2107 0.7878,1.5779 1.8795,1.6632 1.6279,0.1269 3.9793,-0.2779 4.7289,1.6264 0.7043,1.7878 0.2239,3.3549 -1.8757,3.6121 -1.5484,0.1894 -3.0152,-0.3217 -4.4247,-0.9116 -0.362,1.2076 -0.9358,2.3293 -1.895,3.1997 -0.253,0.2294 -0.5286,0.4338 -0.8231,0.6156 1.8211,2.2076 2.6471,5.47 2.451,8.3171 3.39,0.2064 6.9382,-0.9364 8.9718,-3.6968 0.7084,-0.9614 2.0972,-2.1772 3.3363,-1.3097 0.8383,0.5867 0.8538,1.7149 0.5029,2.5803 -0.338,0.8337 -0.8073,1.6101 -1.2887,2.3676 -1.0128,1.5931 -2.5487,3.5353 -1.5578,5.4945 0.4265,0.8427 0.8115,1.5307 1.402,2.2802 l 0.0324,0.0412 c 2.951,-0.9104 7.1273,-1.4072 9.4441,0.3027 1.5508,-1.437 3.1783,-3.0964 4.458,-4.8352 -4.1247,-1.9945 -3.0949,-5.3757 1.087,-7.3483 1.3433,-0.6337 4.597,-1.8637 5.9834,-0.7843 1.4247,1.1095 1.0103,3.341 0.3342,5.2814 3.5631,-2.394 7.1437,-5.7522 9.9876,-8.5935 1.4116,-1.4104 4.4931,0.8316 1.9265,3.5809 -0.4845,0.519 -1.3561,0.77 -1.953,1.2225 -0.5733,0.4343 -0.9606,1.0201 -1.2315,1.6646 0.6903,-0.0838 1.3599,-0.1068 2.1392,-0.1705 0.8839,-0.0718 1.5611,-0.2609 2.3465,-0.6847 2.2739,-1.2257 3.3086,-3.2998 4.825,-5.2421 1.0733,-1.3745 2.5978,-3.2222 4.0365,-4.1615 l 0.5841,-0.3812 0.5023,0.484 c 2.8483,2.7449 5.684,6.092 9.7243,6.6554 -0.8987,-2.1273 -1.9194,-4.9861 -0.9895,-6.8314 0.2332,-0.463 0.5599,-0.8555 0.9387,-1.2061 3.0208,-2.7937 9.2468,-4.7029 13.154,-5.9292 l 0.606,-0.1903 0.369,0.517 c 3.2539,4.5584 6.9601,8.6609 11.4835,11.989 3.4992,2.5745 7.1863,4.4373 11.0921,6.2903 2.0073,0.9521 4.0184,1.8929 5.9872,2.9232 2.4329,1.2736 4.9268,2.5252 7.177,4.109 0.46,0.3237 0.9869,0.7262 0.8234,1.38 -0.1909,0.7627 -1.0654,0.7916 -1.6903,0.9221 -3.7172,0.7753 -8.9137,0.1255 -12.6129,-0.6868 -9.6495,-2.1191 -19.1062,-6.0596 -28.9277,-7.2984 -6.2709,-0.7902 -12.8819,-0.242 -16.6893,5.5275 -1.7021,2.5791 -2.7596,5.1994 -3.6276,8.1463 -0.7184,2.4385 -1.2791,4.9966 -2.3465,7.3107 -1.1314,2.4522 -2.4992,3.4443 -5.0944,3.7639 -1.1381,0.1407 -2.2718,0.008 -3.3132,-0.4871 -3.7205,-1.7674 -4.6849,-7.1823 -4.8606,-11.2337 -2.3768,1.7995 -3.5336,4.1048 -3.9665,7.254 -0.3298,2.3994 0.0467,4.8927 1.0856,7.0819 0.7971,1.6798 2.1235,3.4127 3.8301,4.242 4.8334,2.3488 10.2206,1.8249 14.4889,-1.4875 l 0.5931,-0.4603 0.5455,0.5161 c 3.8188,3.6136 6.5859,7.8757 5.4394,13.3005 -0.6527,3.0879 -3.0722,5.9613 -5.3737,8.0054 -2.9948,2.6591 -6.6875,4.7744 -10.4462,6.139 l -1.0151,0.3684 -0.1509,-1.0692 c -0.2181,-1.5479 -0.2149,-3.0202 -0.1857,-4.5748 0.0164,-0.8777 0.0663,-2.0663 -0.2183,-2.902 -0.8424,-2.4732 -2.8944,-2.8278 -5.2243,-2.7528 -1.5572,1.4522 -4.0132,2.0736 -6.1965,1.7975 z m -7.043,-82.5479 c -0.728,-1.6468 -1.758,-3.5981 -3.0281,-4.8667 -0.2667,-0.2665 -1.1912,-1.084 -1.6366,-0.9057 -0.5426,0.2175 -0.9577,1.1822 -1.1185,1.6854 -0.5362,1.6789 -0.4553,3.7896 -0.2373,5.5146 1.9851,0.3561 4.4029,-0.1987 6.0205,-1.4276 z m -21.6013,5.4499 c -0.3319,0.0298 -0.6597,0.0662 -0.981,0.1092 -2.1629,0.2878 -4.778,0.9681 -6.7076,2.2463 1.608,0.9685 3.1019,1.789 4.535,2.9753 2.0608,-1.2555 3.0748,-2.9105 3.1536,-5.3308 z m -4.8766,19.9778 c -2.0385,0.918 -4.6787,1.0344 -6.8979,1.0312 1.1448,2.8328 3.8842,5.1253 6.6691,6.151 0.8231,0.3033 1.7005,0.5158 2.5998,0.6331 0.1781,-2.6775 -0.6167,-5.7913 -2.371,-7.8153 z m 14.8067,16.5256 0.1439,6.0182 c 0.9125,-0.3173 2.6142,-1.4157 3.0824,-1.7315 1.8768,-1.2659 3.7017,-2.7292 5.3938,-4.2514 -2.0964,-1.408 -5.9846,-0.8564 -8.6201,-0.0353 z m 7.541,54.0165 c -3.3714,0.3328 -6.4651,3.0704 -7.7806,6.2001 0.7452,-0.0266 1.4903,-0.0502 2.2358,-0.0669 1.531,-0.0336 3.3022,-0.0788 4.8752,0.0882 1.3456,-1.8381 1.57,-3.7838 0.6696,-6.2214 z m 9.5526,21.5867 c -0.4258,2.308 -0.516,5.5815 0.3515,8.0025 1.3409,-1.9405 3.0146,-4.2021 4.5891,-5.6574 -1.2607,-1.5109 -2.8714,-2.3173 -4.9406,-2.3451 z m 18.4571,0.4644 0.0432,0.2668 c 0.427,2.6422 0.9574,5.5249 1.6684,8.1694 2.5468,-1.993 5.2126,-4.7908 5.9835,-7.8778 -2.1483,-1.1445 -5.3603,-1.268 -7.6951,-0.5584 z m 68.8591,24.9213 c -0.289,2.5508 0.178,4.8669 1.5356,7.0269 1.465,-0.9165 3.6145,-2.8981 5.0433,-4.3401 -1.6191,-2.0561 -3.9359,-3.0642 -6.5789,-2.6868 z m 22.559,7.585 c 1.9399,1.3827 4.1428,2.3585 6.4887,2.7858 0.4037,-2.5024 -0.4265,-4.3109 -2.0319,-6.4259 l -0.0467,-0.0616 c -1.9279,0.6051 -3.4641,1.9156 -4.4101,3.7017 z m 13.9943,-6.672 -0.0122,0.0849 c -0.2481,1.7368 0.124,3.2882 1.131,4.6271 1.16,-1.1107 2.0386,-2.9595 2.66,-4.7896 -1.23,-0.3523 -2.5575,-0.3369 -3.7788,0.0776 z m -33.0734,-27.7558 c -2.6877,0.1667 -5.2295,0.7087 -6.9073,1.8275 l 4.3442,3.6311 c 1.6013,-1.2916 2.3661,-3.3389 2.5631,-5.4586 z M 239.393,434.556 c 1.366,-0.7242 2.9933,-1.5914 3.7551,-1.4968 l 0.4533,0.0563 0.2131,0.404 c 0.7852,1.4878 1.3532,3.439 1.8728,5.0488 0.3316,1.028 0.6687,2.1276 1.0671,3.1688 6.0346,-5.7952 12.0843,-11.3178 18.8433,-16.2787 -3.3988,-2.8287 -6.5153,-5.5179 -9.5241,-8.8872 -4.9747,-5.5707 -8.8148,-11.8738 -11.5731,-18.814 -0.5943,-1.496 -1.0587,-3.231 -0.1728,-4.7135 0.6296,-1.054 1.8698,-1.8199 2.7566,-2.6734 0.9743,-0.9378 0.8648,-1.7808 -0.1217,-2.6924 -0.5797,-0.5362 -1.2937,-0.9542 -1.7963,-1.5759 -0.8754,-1.0823 -1.2844,-2.1468 -1.6262,-3.4779 -0.4317,-1.6807 -0.8998,-3.2154 -1.9725,-4.6191 -1.3515,-1.768 -3.2027,-2.7677 -5.2955,-3.3357 0.0169,2.9294 -0.003,6.6986 -0.8561,9.625 -0.3847,1.3185 -1.2817,2.8944 -1.3532,4.2079 -0.1588,2.8956 2.561,4.1244 1.9857,6.7713 -0.3476,1.6004 -2.3961,2.1264 -3.801,1.7391 -1.3733,-0.3786 -2.6346,-1.6381 -2.7604,-3.0964 -0.1777,-2.0596 1.4641,-3.9323 0.7189,-5.778 -0.6135,-1.5166 -2.7846,-1.4349 -4.1217,-1.3427 l -0.4676,0.0322 -0.2861,-0.3713 c -0.911,-1.1822 -1.6045,-2.2432 -3.1092,-2.6498 -1.97,-0.5327 -4.9014,-0.3935 -7.1093,0.2224 l 3.8944,5.2418 -0.1547,0.4393 c -0.2411,0.6847 -0.3234,1.4042 -0.2668,2.1267 0.1469,1.8663 1.0021,3.2143 2.5275,4.2712 1.2079,0.8371 3.5605,1.9927 4.1942,3.2499 0.263,0.5219 0.3491,1.1246 0.1144,1.6746 -0.4495,1.0534 -1.6719,1.2206 -2.6769,1.0893 -2.0978,-0.2747 -3.6124,-3.4831 -5.3801,-3.7747 -0.9746,-0.1609 -3.2368,1.8541 -3.6285,2.6941 l -0.2417,0.5178 -0.5712,-0.0125 c -2.0628,-0.045 -3.9937,1.0318 -4.8658,2.8488 l 4.1241,0.3544 0.2341,0.3441 c 0.8269,1.2152 2.8841,3.4224 4.3862,3.6994 0.8068,0.1486 2.3585,0.0365 3.2117,0.0126 0.9758,-0.0272 2.0172,-0.075 2.9892,-0.008 l 0.2744,0.019 0.2142,0.1725 c 1.7785,1.4311 0.7554,3.0692 -1.0391,3.6556 -0.8398,0.2744 -1.6337,0.2831 -2.5,0.2869 -1.0213,0.005 -1.6524,0.1483 -1.8865,1.2207 -0.2373,1.0855 -0.1503,2.442 -0.0817,3.5482 l 0.0172,0.2782 -0.1465,0.237 c -1.1194,1.8086 -2.545,4.2356 -3.2651,6.4665 1.8742,-0.6474 3.7186,-1.3987 5.6358,-1.9051 1.1617,-0.3071 2.6302,-0.2671 3.8412,-0.341 0.3401,-0.0207 1.3025,-0.0545 1.5447,-0.3374 0.9711,-1.134 2.2841,-2.7805 3.6049,-3.4793 1.5476,-0.8185 3.5155,-0.9682 4.7292,0.5052 0.9536,1.158 1.1243,2.4651 0.9828,3.9207 -0.1807,1.8585 -0.843,4.0012 -1.5252,5.9295 1.4513,-0.5336 2.9534,-1.1609 4.1364,-1.9493 l 0.8412,-0.5604 0.4346,0.9127 c 1.0581,2.2204 1.0371,4.7742 0.5783,7.1779 z m 51.6787,-30.3907 c 1.9913,-0.9568 5.745,-3.7875 9.0308,-3.7753 2.6346,0.01 3.7266,0.768 4.2794,1.2797 1.7534,1.6229 -2.5263,5.0815 -7.3206,5.0745 -2.1731,-0.003 -4.8249,-1.0538 -5.9896,-2.5789 z m 5.6569,-24.4574 c 0.7764,0.7764 1.1369,1.3441 1.9133,2.1206 0.6378,0.1386 1.2756,0.2773 1.9133,0.4159 0.8596,1.1369 1.9688,2.5657 2.7453,3.869 1.8301,-0.1109 4.4089,-0.305 6.4055,-0.3328 -0.8389,-4.7487 -2.9385,-6.2849 -4.7158,-6.8527 -1.7125,-0.547 -4.3311,-0.4471 -7.2634,0.1977 z"
         style="fill:url(#grad5)"
         id="path98"
         inkscape:connector-curvature="0" />
    </g>
    <g
       id="Layer1007">
      <path
         d="m 172.2773,318.0655 h 3.3679 v -22.4726 h 7.2566 v -2.688 H 165.021 v 2.688 h 7.2563 z"
         style="fill:#09120b;fill-rule:evenodd"
         id="path101"
         inkscape:connector-curvature="0" />
      <path
         d="m 185.9089,292.9049 v 25.1606 h 3.3678 v -25.1606 z"
         style="fill:#09120b;fill-rule:evenodd"
         id="path103"
         inkscape:connector-curvature="0" />
      <path
         d="m 199.9812,318.0655 h 3.3678 v -22.4726 h 7.2567 v -2.688 h -17.8812 v 2.688 h 7.2567 z"
         style="fill:#09120b;fill-rule:evenodd"
         id="path105"
         inkscape:connector-curvature="0" />
      <path
         d="m 214.0135,292.9049 v 15.4173 c 0.007,1.8354 0.2274,3.3973 0.6547,4.6851 0.4346,1.2878 1.0423,2.3331 1.8243,3.1293 0.7884,0.8027 1.7108,1.3877 2.7797,1.7546 1.0691,0.3672 2.2452,0.5537 3.5213,0.5476 1.3299,0.006 2.5529,-0.1868 3.6755,-0.5785 1.1156,-0.3859 2.0911,-0.9957 2.9198,-1.8232 0.8286,-0.8211 1.4702,-1.8914 1.9314,-3.2041 0.4542,-1.3129 0.688,-2.8932 0.6947,-4.7347 v -15.1934 h -3.3678 v 15.492 c -0.007,1.7359 -0.2406,3.1545 -0.7082,4.2493 -0.4679,1.0952 -1.1293,1.8979 -1.9848,2.4142 -0.8617,0.5164 -1.8707,0.7715 -3.04,0.7654 -1.0625,0.006 -2.0115,-0.2429 -2.8401,-0.7467 -0.8284,-0.5041 -1.4834,-1.3065 -1.9644,-2.4016 -0.4744,-1.0949 -0.7219,-2.5199 -0.7283,-4.2806 v -15.492 z"
         style="fill:#09120b;fill-rule:evenodd"
         id="path107"
         inkscape:connector-curvature="0" />
      <path
         d="m 236.3048,316.9455 c 0.4276,0.2676 0.9691,0.5041 1.6372,0.7279 0.6681,0.2178 1.3964,0.3921 2.1918,0.5228 0.7884,0.1305 1.5902,0.1991 2.3853,0.2052 1.4434,-0.006 2.7196,-0.1929 3.829,-0.5598 1.1025,-0.3672 2.031,-0.871 2.7861,-1.5246 0.7551,-0.6532 1.3229,-1.4121 1.7038,-2.277 0.3879,-0.8649 0.5817,-1.798 0.5817,-2.8059 0,-1.1387 -0.2274,-2.1527 -0.6886,-3.0363 -0.4541,-0.8835 -1.1491,-1.6798 -2.0712,-2.3891 -0.9288,-0.7093 -2.0914,-1.3625 -3.4948,-1.9659 -1.1226,-0.4667 -2.0447,-0.9209 -2.773,-1.3751 -0.7282,-0.4603 -1.2761,-0.9644 -1.6305,-1.5306 -0.354,-0.5599 -0.5277,-1.2379 -0.5277,-2.0219 0,-0.4355 0.0867,-0.871 0.2674,-1.3004 0.1737,-0.4355 0.4542,-0.8336 0.8351,-1.1944 0.3809,-0.3611 0.8686,-0.6471 1.4702,-0.8649 0.6013,-0.2177 1.3162,-0.3298 2.158,-0.336 0.7084,0.006 1.3564,0.0622 1.9445,0.1804 0.5815,0.1182 1.0961,0.2551 1.5371,0.423 0.4475,0.1617 0.8086,0.3237 1.0891,0.4793 l 0.8821,-2.6133 c -0.3343,-0.193 -0.7619,-0.3734 -1.2832,-0.5412 -0.521,-0.1681 -1.1159,-0.305 -1.7904,-0.4107 -0.6752,-0.1121 -1.4169,-0.1681 -2.2187,-0.1681 -1.2496,0.006 -2.3786,0.1742 -3.3944,0.5102 -1.0158,0.336 -1.8908,0.8027 -2.6194,1.4125 -0.7283,0.6033 -1.2963,1.319 -1.6903,2.1401 -0.3879,0.8214 -0.5882,1.7172 -0.5949,2.6941 0.007,0.8585 0.1737,1.6425 0.4945,2.3579 0.3272,0.7155 0.7884,1.3626 1.3765,1.9411 0.5882,0.5849 1.2762,1.1077 2.0713,1.568 0.7886,0.4668 1.6573,0.871 2.5928,1.2257 1.0689,0.4416 1.944,0.9083 2.6326,1.3873 0.688,0.4854 1.1958,1.0266 1.5236,1.6177 0.334,0.5911 0.4942,1.2694 0.4942,2.0344 0,0.8649 -0.2137,1.6177 -0.6349,2.2587 -0.4209,0.6407 -1.0222,1.1384 -1.8176,1.493 -0.7948,0.3546 -1.7504,0.535 -2.8794,0.5415 -0.7017,0 -1.3836,-0.0686 -2.0582,-0.193 -0.6748,-0.1307 -1.3032,-0.3047 -1.8978,-0.5225 -0.5946,-0.218 -1.1159,-0.4667 -1.5768,-0.7405 z"
         style="fill:#09120b;fill-rule:evenodd"
         id="path109"
         inkscape:connector-curvature="0" />
      <path
         d="m 283.7339,318.0655 h 3.3678 v -10.1537 c 0.3407,0.0744 0.7085,0.1243 1.1092,0.1491 0.3944,0.0248 0.8153,0.0374 1.2563,0.0374 1.0491,0 2.0511,-0.1057 3.0001,-0.3112 0.9556,-0.2052 1.8313,-0.5163 2.6328,-0.9331 0.7951,-0.4168 1.4834,-0.9332 2.0648,-1.5555 0.6416,-0.6346 1.1294,-1.3935 1.4636,-2.2709 0.3339,-0.8836 0.5009,-1.8915 0.5009,-3.0298 -0.007,-1.1261 -0.207,-2.134 -0.5949,-3.0237 -0.3941,-0.8897 -0.9419,-1.6363 -1.6501,-2.24 -0.7819,-0.6719 -1.7709,-1.1757 -2.9603,-1.5117 -1.1892,-0.3359 -2.5724,-0.5041 -4.1361,-0.5041 -1.263,0.006 -2.3923,0.05 -3.388,0.1431 -0.9956,0.0934 -1.8841,0.2055 -2.6661,0.3424 z m 3.3678,-22.6221 c 0.2806,-0.0622 0.6615,-0.1121 1.1294,-0.1556 0.4746,-0.0434 1.0356,-0.0683 1.6769,-0.0683 1.2496,0 2.3056,0.1991 3.1743,0.5911 0.8686,0.3856 1.5368,0.9519 1.991,1.6921 0.4547,0.7405 0.6885,1.6302 0.6885,2.6816 -0.007,1.1573 -0.2609,2.1404 -0.7685,2.9367 -0.5012,0.7963 -1.2227,1.406 -2.1515,1.8167 -0.9355,0.4107 -2.045,0.6223 -3.3343,0.6223 -0.4813,0 -0.9224,-0.0125 -1.3231,-0.0438 -0.4011,-0.0309 -0.7619,-0.0869 -1.0827,-0.1803 z"
         style="fill:#09120b;fill-rule:evenodd"
         id="path111"
         inkscape:connector-curvature="0" />
      <path
         d="m 316.5695,303.6187 h -9.3414 v -8.0632 h 9.9427 v -2.6506 h -13.3105 v 25.1606 h 13.8721 v -2.6504 h -10.5043 v -9.1831 h 9.3414 z m -4.1294,-16.3132 -3.7286,4.2555 h 2.7263 l 5.0917,-4.2555 z"
         style="fill:#09120b;fill-rule:evenodd"
         id="path113"
         inkscape:connector-curvature="0" />
      <path
         d="m 328.1157,318.0655 h 3.3679 v -22.4726 h 7.2566 v -2.688 h -17.8808 v 2.688 h 7.2563 z"
         style="fill:#09120b;fill-rule:evenodd"
         id="path115"
         inkscape:connector-curvature="0" />
      <path
         d="m 352.4517,310.2635 2.5658,7.802 h 3.4883 l -8.2593,-25.1606 h -3.9288 l -8.2993,25.1606 h 3.4481 l 2.4857,-7.802 z m -7.8979,-2.4638 2.2849,-7.0182 c 0.2408,-0.7901 0.4676,-1.599 0.6883,-2.4326 0.2139,-0.8336 0.4142,-1.6486 0.5949,-2.4574 h 0.1202 c 0.1804,0.7837 0.3739,1.5925 0.5812,2.42 0.2072,0.8275 0.441,1.6676 0.7017,2.5074 l 2.2852,6.9808 z"
         style="fill:#09120b;fill-rule:evenodd"
         id="path117"
         inkscape:connector-curvature="0" />
      <path
         d="m 366.2435,318.0655 v -10.1537 c 0,-1.4933 -0.007,-2.862 -0.0198,-4.0941 -0.0137,-1.2317 -0.0403,-2.3952 -0.0803,-3.484 -0.0403,-1.0951 -0.1004,-2.1777 -0.1804,-3.2478 l 0.12,-0.0374 c 0.6284,1.4373 1.3234,2.862 2.0917,4.2806 0.7749,1.4124 1.5703,2.8123 2.3987,4.1936 l 7.5775,12.5428 h 3.3275 v -25.1606 h -3.127 v 10.0792 c 0,1.3377 0.0131,2.5943 0.0333,3.7829 0.0201,1.1821 0.0601,2.3392 0.1068,3.4717 0.0537,1.1323 0.127,2.2832 0.2207,3.4592 h -0.0803 c -0.5811,-1.3129 -1.2496,-2.6755 -1.9913,-4.0815 -0.7481,-1.4124 -1.5502,-2.8372 -2.4189,-4.2805 l -7.5371,-12.431 h -3.5684 v 25.1606 z"
         style="fill:#09120b;fill-rule:evenodd"
         id="path119"
         inkscape:connector-curvature="0" />
      <path
         d="m 406.3757,304.8878 h -8.1387 v 2.5386 h 4.8512 v 7.7275 c -0.3208,0.1552 -0.7951,0.286 -1.4233,0.3917 -0.6281,0.1059 -1.4232,0.162 -2.3853,0.1681 -1.3564,0 -2.5996,-0.2116 -3.7222,-0.6346 -1.129,-0.4293 -2.0981,-1.0639 -2.9201,-1.9101 -0.8219,-0.8523 -1.4498,-1.9163 -1.8975,-3.1854 -0.4475,-1.2755 -0.6749,-2.7624 -0.6813,-4.4609 0.006,-1.6924 0.2469,-3.1732 0.728,-4.4423 0.4743,-1.2756 1.1494,-2.3334 2.0181,-3.1857 0.8687,-0.8523 1.8909,-1.493 3.0736,-1.9224 1.1763,-0.4293 2.4726,-0.641 3.8821,-0.641 1.1562,0.007 2.1451,0.0934 2.9735,0.2677 0.829,0.1743 1.5435,0.3981 2.1585,0.6658 l 0.8019,-2.6133 c -0.3608,-0.1678 -0.8351,-0.3234 -1.4099,-0.479 -0.5814,-0.1494 -1.2428,-0.2799 -2.0047,-0.3733 -0.7551,-0.0995 -1.5768,-0.1556 -2.479,-0.1556 -1.9513,0.006 -3.7353,0.2986 -5.3457,0.8836 -1.6167,0.591 -3.0134,1.4434 -4.1897,2.5695 -1.1825,1.1261 -2.0911,2.495 -2.7394,4.1063 -0.648,1.6115 -0.9755,3.4469 -0.9957,5.5062 0.007,1.3812 0.1536,2.669 0.4475,3.8637 0.2942,1.1883 0.7087,2.2648 1.2432,3.2228 0.5411,0.9583 1.1757,1.7858 1.9174,2.4699 1.183,1.0888 2.5327,1.8789 4.043,2.3582 1.5032,0.479 3.1538,0.7154 4.9378,0.7029 1.0222,-0.006 1.9913,-0.0747 2.9134,-0.2052 0.9221,-0.1308 1.7572,-0.2863 2.4989,-0.4729 0.7417,-0.1929 1.3567,-0.3733 1.8444,-0.5537 z"
         style="fill:#09120b;fill-rule:evenodd"
         id="path121"
         inkscape:connector-curvature="0" />
      <path
         d="m 424.8582,303.6187 h -9.3414 v -8.0632 h 9.9427 v -2.6506 H 412.149 v 25.1606 h 13.8721 v -2.6504 h -10.5043 v -9.1831 h 9.3414 z"
         style="fill:#09120b;fill-rule:evenodd"
         id="path123"
         inkscape:connector-curvature="0" />
    </g>
    <g
       id="Layer1008">
      <path
         d="m 144.2308,208.6503 v 38.6144 c 0.0161,6.0987 0.6711,11.3291 1.9814,15.6905 1.31,4.3611 3.1795,7.907 5.6402,10.6552 2.4606,2.7656 5.4166,4.787 8.8836,6.0812 3.4671,1.2942 7.3495,1.9501 11.6797,1.9323 6.1673,0.0178 11.4561,-1.2055 15.882,-3.6521 4.4259,-2.4466 7.8451,-6.1697 10.2258,-11.2048 2.3806,-5.0351 3.5791,-11.4353 3.6109,-19.1833 v -38.9334 h -15.2427 v 39.4655 c -0.0161,6.6662 -1.1825,11.7188 -3.5153,15.1407 -2.3488,3.4396 -5.768,5.1591 -10.2896,5.1769 -2.94,-0.0178 -5.4327,-0.7977 -7.4459,-2.3757 -2.0292,-1.5779 -3.5628,-3.8827 -4.6013,-6.9143 -1.0385,-3.014 -1.5657,-6.6839 -1.5657,-11.0276 v -39.4655 z"
         style="fill:#09120b;fill-rule:evenodd"
         id="path126"
         inkscape:connector-curvature="0" />
      <path
         d="m 231.5525,280.3475 v -23.4026 c 0,-5.3541 -0.0318,-10.5489 -0.1118,-15.6196 -0.0796,-5.0704 -0.2235,-10.1586 -0.4632,-15.2293 l 0.3836,-0.1063 c 1.23,3.0138 2.5403,6.0457 3.9463,9.0597 1.406,3.0316 2.8599,6.01 4.3459,8.9531 1.5018,2.9432 2.9878,5.7975 4.4578,8.581 l 15.147,27.764 h 16.5852 v -71.6972 h -14.1885 v 22.5517 c 0,3.3509 0.0161,6.5953 0.0639,9.7156 0.0479,3.1381 0.1597,6.2762 0.3197,9.4321 0.1596,3.1381 0.4153,6.4002 0.7668,9.7865 h -0.2876 c -1.6296,-4.3793 -3.4352,-8.7582 -5.4323,-13.1196 -1.9814,-4.3792 -4.1066,-8.6166 -6.3594,-12.7296 l -14.5717,-25.6367 h -18.7898 v 71.6972 z"
         style="fill:#09120b;fill-rule:evenodd"
         id="path128"
         inkscape:connector-curvature="0" />
      <path
         d="m 292.0443,208.6503 v 71.6972 h 15.2428 v -71.6972 z"
         style="fill:#09120b;fill-rule:evenodd"
         id="path130"
         inkscape:connector-curvature="0" />
      <path
         d="m 353.4821,207.3739 c -5.1766,0.0178 -9.8904,0.9574 -14.1242,2.8013 -4.2502,1.8438 -7.9251,4.4676 -11.0086,7.8363 -3.0839,3.3684 -5.4485,7.3755 -7.1262,11.985 -1.6775,4.6095 -2.5246,9.6977 -2.5404,15.2472 0.0158,5.1944 0.7989,9.9814 2.3646,14.396 1.55,4.397 3.8028,8.2441 6.7427,11.524 2.9399,3.2975 6.4867,5.8507 10.6251,7.6767 4.1541,1.8261 8.8197,2.7482 14.0124,2.7835 5.2888,-0.0175 10.0982,-0.9396 14.4121,-2.7478 4.3141,-1.8086 8.0211,-4.3793 11.1367,-7.7124 3.1154,-3.3152 5.5121,-7.2867 7.1898,-11.8962 1.6775,-4.592 2.5246,-9.698 2.5404,-15.3003 -0.0158,-5.2657 -0.7989,-10.1236 -2.3486,-14.5559 -1.566,-4.4499 -3.8188,-8.3148 -6.7745,-11.5948 -2.972,-3.2977 -6.5508,-5.8506 -10.7689,-7.6767 -4.2184,-1.8085 -8.9958,-2.7481 -14.3324,-2.7659 z m -0.2875,13.1905 c 2.876,0.0178 5.4484,0.6561 7.7173,1.8973 2.2528,1.2408 4.1863,2.9606 5.7519,5.1591 1.5821,2.1982 2.7803,4.7336 3.5953,7.6236 0.8307,2.8722 1.246,5.9569 1.246,9.2546 0,3.4394 -0.4153,6.6306 -1.246,9.5206 -0.8468,2.9075 -2.0453,5.4429 -3.6271,7.588 -1.5817,2.1632 -3.4991,3.8296 -5.768,5.0176 -2.2528,1.1877 -4.8095,1.7904 -7.6694,1.8082 -2.8121,-0.0178 -5.3366,-0.6384 -7.5894,-1.8439 -2.2531,-1.2055 -4.1702,-2.8722 -5.7681,-5.0351 -1.5978,-2.1451 -2.8281,-4.6626 -3.6748,-7.5348 -0.8471,-2.8544 -1.2785,-5.9572 -1.2785,-9.3078 0,-3.3687 0.4156,-6.5246 1.2464,-9.4321 0.8149,-2.9075 2.0131,-5.4607 3.5952,-7.6767 1.5817,-2.1985 3.4988,-3.918 5.7519,-5.1591 2.2689,-1.2234 4.8413,-1.8617 7.7173,-1.8795 z"
         style="fill:#09120b;fill-rule:evenodd"
         id="path132"
         inkscape:connector-curvature="0" />
      <path
         d="m 413.6951,280.3475 v -23.4026 c 0,-5.3541 -0.0321,-10.5489 -0.1118,-15.6196 -0.0799,-5.0704 -0.2238,-10.1586 -0.4635,-15.2293 l 0.3836,-0.1063 c 1.2303,3.0138 2.5406,6.0457 3.9466,9.0597 1.406,3.0316 2.8599,6.01 4.346,8.9531 1.5017,2.9432 2.9877,5.7975 4.4577,8.581 l 15.147,27.764 h 16.5849 v -71.6972 h -14.1882 v 22.5517 c 0,3.3509 0.0161,6.5953 0.0639,9.7156 0.0479,3.1381 0.1597,6.2762 0.3197,9.4321 0.1596,3.1381 0.4153,6.4002 0.7668,9.7865 h -0.2876 c -1.6296,-4.3793 -3.4352,-8.7582 -5.4323,-13.1196 -1.9814,-4.3792 -4.1066,-8.6166 -6.3594,-12.7296 L 418.2968,208.6503 H 399.507 v 71.6972 z"
         style="fill:#09120b;fill-rule:evenodd"
         id="path134"
         inkscape:connector-curvature="0" />
    </g>
    <g
       id="Layer1009">
      <path
         d="m 276.7289,643.4912 c -0.8675,-0.0683 -2.0903,-0.1025 -3.6688,-0.1025 -0.9367,0 -2.5409,0.0342 -4.8133,0.1025 l 0.052,-0.5383 c 0.6419,-0.0683 1.5958,-0.171 2.8623,-0.3076 -0.1042,-0.906 -0.5205,-3.1448 -1.249,-6.717 -0.4682,-2.3415 -0.9279,-4.8967 -1.3792,-7.6656 h -0.1039 l -6.6084,15.3312 c -2.2724,-5.5891 -4.2496,-10.7079 -5.9324,-15.3569 h -0.1039 c -0.4512,2.3757 -0.9019,4.7602 -1.3529,7.1528 -0.5032,2.8544 -0.7548,5.2558 -0.7548,7.2041 0.5035,0.1028 1.275,0.2222 2.3156,0.359 l 0.1045,0.5383 c -1.0062,-0.0683 -1.9516,-0.1025 -2.8363,-0.1025 -0.9364,0 -2.2461,0.0342 -3.9286,0.1025 l 0.1822,-0.5383 c 0.8152,-0.1024 1.4308,-0.2136 1.847,-0.3333 0.9367,-3.3669 2.2032,-8.8107 3.799,-16.3309 -0.798,-0.1539 -1.6565,-0.2905 -2.5759,-0.4101 l -0.1562,-0.5386 c 0.85,0.0683 2.4977,0.1028 4.9437,0.1028 0.364,0 0.815,-0.0172 1.3526,-0.0514 0.7633,-0.0341 1.2143,-0.0514 1.353,-0.0514 l -0.104,0.5386 c -0.659,0.1024 -1.3097,0.2221 -1.9515,0.3587 1.3532,3.9139 2.9314,8.1355 4.7356,12.6648 0.9191,-2.1022 1.8471,-4.1959 2.7837,-6.2809 1.0754,-2.4953 1.9166,-4.6232 2.524,-6.3839 -0.7113,-0.188 -1.3012,-0.3077 -1.7694,-0.3587 l -0.1302,-0.5386 c 1.1967,0.0683 2.6451,0.1028 4.3451,0.1028 -0.2604,0 0.6678,-0.0345 2.784,-0.1028 l -0.0782,0.5386 c -0.4857,0.0683 -1.2143,0.1879 -2.1857,0.3587 0.9714,5.2642 2.1077,10.7164 3.4084,16.3566 0.1909,0.0342 0.9107,0.1538 2.1594,0.359 z"
         style="fill:#09120b;fill-rule:evenodd"
         id="path137"
         inkscape:connector-curvature="0" />
      <path
         d="m 304.2039,643.4912 c -0.8675,-0.0683 -2.0903,-0.1025 -3.6688,-0.1025 -0.9367,0 -2.5412,0.0342 -4.8133,0.1025 l 0.052,-0.5383 c 0.6419,-0.0683 1.5957,-0.171 2.8623,-0.3076 -0.1045,-0.906 -0.5208,-3.1448 -1.249,-6.717 -0.4682,-2.3415 -0.9282,-4.8967 -1.3792,-7.6656 h -0.1039 l -6.6087,15.3312 c -2.2724,-5.5891 -4.2496,-10.7079 -5.9321,-15.3569 h -0.1039 c -0.4512,2.3757 -0.9019,4.7602 -1.3529,7.1528 -0.5032,2.8544 -0.7548,5.2558 -0.7548,7.2041 0.5032,0.1028 1.275,0.2222 2.3155,0.359 l 0.1042,0.5383 c -1.0058,-0.0683 -1.9512,-0.1025 -2.836,-0.1025 -0.9366,0 -2.246,0.0342 -3.9288,0.1025 l 0.1824,-0.5383 c 0.815,-0.1024 1.4309,-0.2136 1.8471,-0.3333 0.9367,-3.3669 2.2032,-8.8107 3.799,-16.3309 -0.7981,-0.1539 -1.6568,-0.2905 -2.5763,-0.4101 l -0.1558,-0.5386 c 0.85,0.0683 2.4977,0.1028 4.9434,0.1028 0.3643,0 0.8153,-0.0172 1.3529,-0.0514 0.763,-0.0341 1.2143,-0.0514 1.3529,-0.0514 l -0.1039,0.5386 c -0.6591,0.1024 -1.3097,0.2221 -1.9516,0.3587 1.3532,3.9139 2.9315,8.1355 4.7354,12.6648 0.9191,-2.1022 1.8473,-4.1959 2.784,-6.2809 1.0753,-2.4953 1.9166,-4.6232 2.5237,-6.3839 -0.7111,-0.188 -1.301,-0.3077 -1.7691,-0.3587 l -0.1302,-0.5386 c 1.1967,0.0683 2.6451,0.1028 4.345,0.1028 -0.2603,0 0.6676,-0.0345 2.7841,-0.1028 l -0.0782,0.5386 c -0.4858,0.0683 -1.2143,0.1879 -2.1857,0.3587 0.9714,5.2642 2.1077,10.7164 3.4084,16.3566 0.1906,0.0342 0.9107,0.1538 2.1594,0.359 z"
         style="fill:#09120b;fill-rule:evenodd"
         id="path139"
         inkscape:connector-curvature="0" />
      <path
         d="m 325.252,644.3117 -1.0925,0.2563 c -2.3766,-2.0508 -5.3597,-5.2298 -8.9502,-9.5369 -1.5783,1.9997 -3.1741,4.5205 -4.7873,7.5628 0.4854,0.0855 1.2055,0.2052 2.1594,0.359 l 0.0782,0.5383 c -1.0756,-0.0683 -2.4457,-0.1025 -4.111,-0.1025 -0.1561,0 -1.0233,0.0342 -2.6016,0.1025 l 0.1822,-0.5383 c 0.3815,-0.0683 0.9276,-0.1879 1.6389,-0.359 1.5091,-1.5552 3.7814,-4.3497 6.8168,-8.3833 -0.4685,-0.5812 -1.4743,-1.9227 -3.0181,-4.0249 -1.2315,-1.6921 -2.2809,-3.0082 -3.1481,-3.9484 -0.3645,-0.0852 -0.9282,-0.2049 -1.6912,-0.3587 l -0.0782,-0.5386 c 0.9195,0.0683 1.8214,0.1028 2.7061,0.1028 h 2.5756 c 0.9195,0 1.8646,-0.0345 2.836,-0.1028 l -0.1561,0.5386 c -0.6244,0.0683 -1.3617,0.1879 -2.2117,0.3587 0.85,1.5041 2.2032,3.4612 4.0591,5.8711 1.8902,-2.4954 3.2175,-4.4525 3.9805,-5.8711 -0.3988,-0.0852 -1.0147,-0.2049 -1.8474,-0.3587 l -0.1039,-0.5386 c 1.0061,0.0683 2.1334,0.1028 3.3824,0.1028 1.162,0 2.0639,-0.0345 2.7058,-0.1028 l -0.052,0.5386 c -0.347,0.0683 -0.8844,0.1879 -1.6132,0.3587 -1.4221,1.453 -3.3824,3.6749 -5.8801,6.6659 0.9194,1.1964 2.2895,3.1019 4.1109,5.7169 1.7692,2.5126 3.1396,4.4096 4.1107,5.6916 z"
         style="fill:#09120b;fill-rule:evenodd"
         id="path141"
         inkscape:connector-curvature="0" />
      <path
         d="m 348.0442,625.34 -0.1302,0.5386 -1.587,0.3587 c -0.9367,1.3161 -2.3678,3.9396 -4.2931,7.8708 l -5.0736,10.4088 c -0.5724,-1.1109 -1.5088,-3.0853 -2.81,-5.9224 -1.3527,-2.9224 -2.4718,-5.2984 -3.3562,-7.1271 -0.5552,-1.1793 -1.4483,-2.9227 -2.6798,-5.2301 -0.4685,-0.1366 -1.0146,-0.2563 -1.639,-0.3587 l -0.1042,-0.5386 c 0.9022,0.0683 2.3328,0.1028 4.2931,0.1028 1.4396,0 2.7663,-0.0345 3.9805,-0.1028 l -0.1299,0.5386 c -0.8675,0.0683 -1.6827,0.1879 -2.4457,0.3587 2.0812,5.7429 4.0675,10.2465 5.958,13.511 1.4916,-2.991 2.5585,-5.2044 3.2003,-6.6402 1.1276,-2.4954 2.0033,-4.7855 2.6279,-6.8708 l -2.3938,-0.3587 -0.1302,-0.5386 c 0.2951,0.0683 1.4396,0.1028 3.4344,0.1028 1.4224,0 2.5149,-0.0345 3.2785,-0.1028 z"
         style="fill:#09120b;fill-rule:evenodd"
         id="path143"
         inkscape:connector-curvature="0" />
    </g>
  </g>
</svg>
