<?xml version="1.0" encoding="UTF-8" standalone="no"?>
<svg
   xmlns:dc="http://purl.org/dc/elements/1.1/"
   xmlns:cc="http://creativecommons.org/ns#"
   xmlns:rdf="http://www.w3.org/1999/02/22-rdf-syntax-ns#"
   xmlns:svg="http://www.w3.org/2000/svg"
   xmlns="http://www.w3.org/2000/svg"
   viewBox="0 0 190.12953 252"
   id="svg50"
   height="252"
   width="190.12953"
   version="1.1">
  <metadata
     id="metadata56">
    <rdf:RDF>
      <cc:Work
         rdf:about="">
        <dc:format>image/svg+xml</dc:format>
        <dc:type
           rdf:resource="http://purl.org/dc/dcmitype/StillImage" />
        <dc:title></dc:title>
      </cc:Work>
    </rdf:RDF>
  </metadata>
  <defs
     id="defs54" />
  <g
     transform="matrix(0.50193924,0,0,0.50193924,-55.099641,-67.437784)"
     id="g82">
    <path
       d="m 299.1685,634.415 c 10.3479,-11.0645 18.923,-19.1464 27.0408,-25.6632 13.9947,-11.2343 35.3835,-19.4709 57.2706,-27.7169 26.65,-10.0406 52.4308,-24.2147 70.5518,-42.4922 24.2138,-24.4227 32.4859,-55.5656 31.4087,-85.985 -0.4938,-13.9411 -3.3378,-25.7085 -6.8258,-40.199 -3.8582,-16.0279 -7.6136,-34.973 -7.7856,-51.5259 -0.1644,-15.84 3.3531,-31.2902 15.7422,-42.8102 l -0.0831,-105.9389 -374.6392,-9e-4 -0.0831,105.9389 c 12.3891,11.52 15.9066,26.9703 15.7422,42.8103 -0.172,16.5529 -3.9274,35.498 -7.7856,51.5259 -3.488,14.4904 -6.332,26.2579 -6.8258,40.199 -1.0772,30.4194 7.1949,61.5622 31.4087,85.985 18.121,18.2775 43.9018,32.4515 70.5518,42.4921 21.8871,8.246 43.2759,16.4827 57.2706,27.7169 8.1178,6.5169 16.6929,14.5987 27.0408,25.6641 z"
       style="fill:#1b1918;fill-rule:evenodd"
       id="path2" />
    <path
       d="m 299.1685,618.7195 c -7.0588,-18.9487 -19.0029,-29.0639 -36.4323,-37.3606 -26.7545,-12.7361 -52.931,-18.1718 -79.3888,-34.1062 -10.2537,-6.1755 -19.4899,-13.0779 -27.017,-20.6696 -14.8045,-14.9324 -22.3188,-32.2118 -24.9735,-50.6271 -2.8196,-19.5593 -0.3994,-40.5635 5.5738,-61.7519 4.4181,-15.6722 8.5649,-36.5253 8.7386,-53.2392 0.0709,-6.8542 0.7705,-20.103 -3.7536,-32.368 -1.942,-5.2647 -4.5763,-10.0757 -8.9068,-14.3949 v -85.8429 l 332.3192,8e-4 v 85.843 c -4.3305,4.3191 -6.9648,9.1301 -8.9068,14.3949 -4.5241,12.2649 -3.8245,25.5138 -3.7536,32.368 0.1737,16.7139 4.3206,37.567 8.7386,53.2391 5.9732,21.1885 8.3934,42.1926 5.5738,61.752 -2.6547,18.4152 -10.169,35.6947 -24.9735,50.627 -7.5271,7.5918 -16.7633,14.4941 -27.017,20.6697 -26.4578,15.9344 -52.6343,21.3701 -79.3888,34.1061 -17.4294,8.2968 -29.3735,18.4119 -36.4323,37.3598 z"
       style="fill:#f4e400;fill-rule:evenodd"
       id="path4" />
    <path
       d="m 299.1688,136.6302 c 67.7874,0 122.7399,54.9524 122.7399,122.7399 0,67.7877 -54.9525,122.7399 -122.7399,122.7399 -67.7877,0 -122.7402,-54.9522 -122.7402,-122.7399 0,-67.7875 54.9525,-122.7399 122.7402,-122.7399 z"
       style="fill:#1b1918;fill-rule:evenodd;stroke:#1b1918;stroke-width:0.56690001;stroke-linecap:butt;stroke-linejoin:miter;stroke-dasharray:none"
       id="path6" />
    <path
       d="m 299.1685,144.5669 c 63.4042,0 114.8034,51.399 114.8034,114.8032 0,63.4039 -51.3992,114.8028 -114.8034,114.8028 -63.4039,0 -114.8031,-51.3989 -114.8031,-114.8028 0,-63.4042 51.3992,-114.8032 114.8031,-114.8032 z"
       style="fill:#f4e400;fill-rule:evenodd;stroke:#1b1918;stroke-width:0.56690001;stroke-linecap:butt;stroke-linejoin:miter;stroke-dasharray:none"
       id="path8" />
    <path
       d="m 299.1685,151.6535 c 59.4904,0 107.7168,48.2262 107.7168,107.7166 0,59.4901 -48.2264,107.7162 -107.7168,107.7162 -59.4901,0 -107.7165,-48.2261 -107.7165,-107.7162 0,-59.4904 48.2264,-107.7166 107.7165,-107.7166 z"
       style="fill:#1b1918;fill-rule:evenodd;stroke:#1b1918;stroke-width:0.56690001;stroke-linecap:butt;stroke-linejoin:miter;stroke-dasharray:none"
       id="path10" />
    <path
       d="m 299.1685,321.8306 c -16.058,-1.9612 -25.3443,-17.8367 -25.3443,-35.816 0,-17.9793 10.9012,-29.0106 25.3443,-20.0129 14.4431,-8.9971 25.3443,2.0342 25.3443,20.0135 0,17.9793 -10.3244,33.7394 -25.3443,35.8154 z"
       style="fill:#f4e400;fill-rule:evenodd;stroke:#1b1918;stroke-width:0.56690001;stroke-linecap:butt;stroke-linejoin:miter;stroke-dasharray:none"
       id="path12" />
    <path
       d="m 225.6083,290.9169 c 35.1513,1.0734 55.476,18.534 67.2486,45.4475 -28.997,-1.9868 -52.4013,-15.1611 -67.2486,-45.4475 z m -8.5036,-27.7595 c 12.5733,1.488 23.0451,4.9264 31.7386,10.0149 0.8527,7.2963 4.133,15.2345 9.2024,21.5552 -8.8041,-4.4391 -19.1752,-7.1465 -31.3951,-7.8101 -4.5714,-6.595 -7.8052,-14.4657 -9.5459,-23.76 z m 1.3427,-29.6537 c 14.8281,5.5482 26.5686,12.1345 35.2795,19.3186 -3.3463,4.1329 -5.1055,10.1376 -5.1055,16.6575 0,0.2149 0.003,0.4312 0.008,0.648 -7.7142,-4.7576 -16.8752,-8.1722 -27.7208,-10.0238 -2.2626,-7.4483 -3.1366,-16.2539 -2.4611,-26.6003 z m 14.3808,-22.9346 c 20.3402,11.9883 33.4533,25.1246 39.8466,37.9307 -7.4795,-2.6144 -13.3603,-1.156 -17.4348,2.6867 -6.7385,-6.4268 -15.7782,-12.4529 -27.1681,-17.7852 -0.4581,-7.0682 0.993,-14.6837 4.7563,-22.8322 z m 66.3403,46.4726 c -4.5312,-8.8818 -13.5383,-13.1749 -23.3853,-7.9724 -4.8775,-12.2134 -15.2509,-25.0101 -30.683,-35.8546 0.5301,-7.0631 3.3293,-15.2873 8.1899,-22.8328 17.6468,15.1478 34.9503,34.9818 45.8784,53.4036 10.9281,-18.4224 28.2317,-38.2564 45.8785,-53.4042 4.8605,7.5456 7.6597,15.7697 8.1898,22.8328 -15.4321,10.8445 -25.8055,23.6412 -30.683,35.8546 -9.847,-5.2024 -18.8541,-0.9094 -23.3853,7.973 z m 73.5602,33.8746 c -35.1513,1.0735 -55.476,18.534 -67.2486,45.4476 28.997,-1.9868 52.4013,-15.1611 67.2486,-45.4476 z m 8.5036,-27.7594 c -12.5733,1.4879 -23.0451,4.9263 -31.7386,10.0148 -0.8527,7.2964 -4.1329,15.2345 -9.2024,21.5552 8.8041,-4.4391 19.1752,-7.1464 31.3951,-7.81 4.5714,-6.5951 7.8052,-14.4658 9.5459,-23.76 z m -1.3427,-29.6538 c -14.8281,5.5482 -26.5686,12.1345 -35.2795,19.3187 3.3463,4.1329 5.1055,10.1375 5.1055,16.6575 0,0.2148 -0.003,0.4311 -0.008,0.648 7.7142,-4.7577 16.8752,-8.1723 27.7208,-10.0239 2.2626,-7.4483 3.1366,-16.2539 2.4611,-26.6003 z m -14.3808,-22.9346 c -20.3402,11.9883 -33.4533,25.1246 -39.8466,37.9307 7.4795,-2.6144 13.3603,-1.156 17.4348,2.6867 6.7385,-6.4267 15.7782,-12.4529 27.1681,-17.7851 0.4581,-7.0682 -0.993,-14.6838 -4.7563,-22.8323 z"
       style="fill:#ffffff;fill-rule:evenodd"
       id="path14" />
    <path
       d="m 274.6327,304.5155 c -13.5156,-3.4118 -22.6095,-20.5566 -22.6095,-34.3018 0,-14.5644 9.3977,-25.6969 22.7654,-17.369 10.7793,-6.715 19.2877,-1.3748 22.1794,9.6696 -15.5038,-7.2026 -26.9453,4.0878 -26.9453,21.9889 0,7.234 1.593,14.1403 4.61,20.0123 z"
       style="fill:#f4e400;fill-rule:evenodd;stroke:#1b1918;stroke-width:0.56690001;stroke-linecap:butt;stroke-linejoin:miter;stroke-dasharray:none"
       id="path16" />
    <path
       d="m 323.7043,304.5149 c 13.5156,-3.4118 22.6095,-20.5565 22.6095,-34.3017 0,-14.5644 -9.3977,-25.6969 -22.7654,-17.369 -10.7793,-6.715 -19.2877,-1.3748 -22.1794,9.6695 15.5039,-7.2026 26.9453,4.0878 26.9453,21.9889 0,7.234 -1.593,14.1404 -4.61,20.0123 z"
       style="fill:#f4e400;fill-rule:evenodd;stroke:#1b1918;stroke-width:0.56690001;stroke-linecap:butt;stroke-linejoin:miter;stroke-dasharray:none"
       id="path18" />
    <path
       d="m 298.0023,237.9838 c -0.6205,-1.0159 -1.2605,-2.0429 -1.9202,-3.0784 h 6.1728 c -0.6597,1.0355 -1.3,2.0622 -1.9205,3.0784 z m -2.91,-4.6176 c -0.6628,-1.0199 -1.3428,-2.0469 -2.0387,-3.0785 h 12.2295 c -0.6959,1.0316 -1.3756,2.0586 -2.0381,3.0785 z m -3.0869,-4.6179 c -0.703,-1.0234 -1.4208,-2.0501 -2.153,-3.0785 h 18.6322 c -0.7319,1.0284 -1.4505,2.0554 -2.1535,3.0785 z m -3.2585,-4.6177 c -0.7435,-1.0264 -1.5001,-2.0534 -2.2688,-3.0784 h 25.3803 c -0.7688,1.0253 -1.5259,2.0523 -2.2692,3.0784 z m -3.4333,-4.6176 c -0.7855,-1.0296 -1.5829,-2.0566 -2.3905,-3.0784 h 32.4896 c -0.8076,1.0218 -1.6044,2.0488 -2.3899,3.0784 z m -3.617,-4.6177 c -0.8308,-1.0329 -1.6722,-2.0599 -2.522,-3.0784 h 39.9869 c -0.8498,1.0185 -1.6905,2.0455 -2.5214,3.0784 z"
       style="fill:#ffffff;fill-rule:evenodd"
       id="path20" />
    <path
       d="m 320.2101,200.5228 v 9.4873 h -42.0832 v -9.4873 h 6.0117 v 4.4524 h 6.012 v -4.4524 h 6.012 v 4.4524 h 6.0118 v -4.4524 h 6.012 v 4.4524 h 6.0117 v -4.4524 z"
       style="fill:#ffffff;fill-rule:evenodd;stroke:#1b1918;stroke-width:0.56690001;stroke-linecap:butt;stroke-linejoin:miter;stroke-dasharray:none"
       id="path22" />
    <path
       d="m 333.8413,198.86 -1.942,-0.8203 0.0765,-2.3338 -3.5322,-1.4921 -1.5766,1.7002 -1.8927,-0.7994 7.1745,-7.3823 1.8867,0.7969 z m -1.809,-4.8832 0.1675,-3.7936 -2.5787,2.7751 z m -12.8594,-0.4785 1.0451,-3.9002 -1.9556,-6.2742 2.194,0.5879 1.1988,4.2494 3.1175,-3.0929 2.1552,0.5775 -4.8475,4.4654 -1.0415,3.8871 z m -9.7642,-1.7983 1.0953,-7.8925 -2.8185,-0.3912 0.2234,-1.6081 7.5497,1.0474 -0.223,1.6081 -2.8117,-0.3897 -1.0953,7.8927 z m -3.7999,-0.7075 h -2.1081 l -0.8376,-2.1799 h -3.8348 l -0.7905,2.1799 h -2.0546 l 3.7364,-9.5922 h 2.048 z m -3.5665,-3.7945 -1.3221,-3.5597 -1.2954,3.5597 z m -14.8675,4.2585 -0.6636,-9.4907 1.9316,-0.1352 0.551,7.8781 4.8031,-0.3359 0.1128,1.6129 z m -6.4233,-2.6351 -1.9769,-3.242 -0.5924,3.7415 z m 4.2251,3.0444 -2.0693,0.4023 -1.2382,-1.98 -3.7644,0.7316 -0.36,2.2907 -2.0169,0.392 1.8375,-10.1288 2.0103,-0.3909 z m -20.3466,5.616 -3.2805,-9.0136 2.7241,-0.9915 4.1389,5.4572 -0.3561,-6.8343 2.7304,-0.9936 3.2808,9.0137 -1.6892,0.6148 -2.5826,-7.0957 0.7925,7.7474 -2.0188,0.7344 -4.6324,-6.3493 2.5827,7.0957 z"
       style="fill:#ffffff;fill-rule:evenodd"
       id="path24" />
    <path
       d="m 299.1685,600.7224 c -5.2809,-14.1427 -13.9422,-23.4494 -25.6581,-30.5045 v -62.3455 c 8.32,1.2773 16.8409,1.944 25.5184,1.944 8.7746,0 17.3894,-0.6814 25.7981,-1.9868 v 62.3883 c -11.7142,7.0543 -20.3775,16.3627 -25.6584,30.5045 z M 273.5104,438.677 v -46.1035 c 8.3098,1.5911 16.8849,2.4344 25.6584,2.4344 8.7732,0 17.3486,-0.8428 25.6581,-2.4341 v 46.0397 c -8.2695,1.887 -16.909,2.8879 -25.7981,2.8879 -8.7891,0 -17.3339,-0.9785 -25.5184,-2.8244 z"
       style="fill:#1b1918;fill-rule:evenodd"
       id="path26" />
    <path
       d="m 420.967,527.0196 c -15.577,11.1453 -33.387,17.8971 -51.3164,24.3881 v -57.2368 c 19.44,-9.0961 36.8379,-21.8291 51.3164,-37.3255 z M 369.6506,402.4953 v -27.2168 c 22.0081,-13.4113 39.8897,-32.9176 51.3164,-56.1697 v 120.5436 z"
       style="fill:#1b1918;fill-rule:evenodd"
       id="path28" />
    <path
       d="m 228.6865,551.4066 c -17.93,-6.4899 -35.7398,-13.2415 -51.3165,-24.385 v -69.8817 c 14.4921,15.4372 31.8886,28.1137 51.3165,37.1614 z M 177.37,439.6323 V 319.1085 c 11.4262,23.2524 29.3103,42.757 51.3165,56.1697 v 27.2055 z"
       style="fill:#1b1918;fill-rule:evenodd"
       id="path30" />
    <path
       d="m 377.7667,416.3794 c -20.4287,18.3685 -48.1717,29.6575 -78.7379,29.6575 -30.5054,0 -58.1959,-11.2419 -78.6127,-29.5455 l -43.0455,31.123 c 0.8263,0.9601 1.6642,1.9102 2.5126,2.8502 1.8414,2.0392 3.7341,4.0311 5.6767,5.9737 29.0392,29.039 69.1568,47.0002 113.4689,47.0002 44.312,0 84.4299,-17.9615 113.4686,-47.0002 2.3584,-2.3584 4.644,-4.79 6.8428,-7.2802 0.4875,-0.5527 0.9686,-1.1123 1.453,-1.6682 z"
       style="fill:#1b1918;fill-rule:evenodd"
       id="path32" />
    <path
       d="m 377.9972,421.077 37.3572,27.011 c -1.7728,1.9605 -3.5941,3.8761 -5.4627,5.7447 -28.3719,28.372 -67.5683,45.9207 -110.8629,45.9207 -43.2947,0 -82.4911,-17.5487 -110.8633,-45.9207 -1.8298,-1.8297 -3.615,-3.7046 -5.3527,-5.6225 l 37.3842,-27.0295 c 20.8366,17.7336 48.4937,28.5412 78.8318,28.5412 29.3969,0 56.4122,-9.8501 78.9684,-28.6449 z"
       style="fill:#f4e400;fill-rule:evenodd"
       id="path34" />
    <path
       d="m 395.4431,451.5483 -7.4111,5.5848 1.6591,4.3226 -6.6467,5.0086 -8.3149,-27.4943 7.0926,-5.3447 24.1424,15.5675 -6.8085,5.1306 z m -4.8721,-3.631 -8.1615,-5.9862 3.5197,9.4841 z"
       style="fill:#1b1918;fill-rule:evenodd"
       id="path36" />
    <path
       d="m 343.7416,455.9552 8.1992,-3.8233 8.6695,6.0007 0.9758,-10.4984 8.1488,-3.7998 -2.6673,18.5323 4.7727,10.2352 -7.3978,3.4497 -4.7728,-10.2352 z"
       style="fill:#1b1918;fill-rule:evenodd"
       id="path38" />
    <path
       d="m 316.1775,462.6603 24.2176,-5.1476 1.3848,6.5147 -8.1285,1.7278 4.221,19.8581 -7.9666,1.6933 -4.2209,-19.8581 -8.1227,1.7266 z"
       style="fill:#1b1918;fill-rule:evenodd"
       id="path40" />
    <path
       d="m 304.6398,479.6919 -2.9151,-9.6925 -2.897,9.6925 z m 1.7062,5.832 h -9.2798 l -1.2764,4.4507 h -8.3226 l 9.9057,-26.962 h 8.881 l 9.9121,26.962 h -8.5252 z"
       style="fill:#1b1918;fill-rule:evenodd"
       id="path42" />
    <path
       d="m 266.7043,459.3374 8.001,1.5553 -3.8773,19.9471 12.4773,2.4253 -1.2673,6.5195 -20.4783,-3.9805 z"
       style="fill:#1b1918;fill-rule:evenodd"
       id="path44" />
    <path
       d="m 247.2914,476.6727 -8.6634,-3.3255 -2.7867,3.6976 -7.7697,-2.9825 18.91,-21.6214 8.2911,3.1827 -0.4085,28.7234 -7.9589,-3.0552 z m 0.4971,-6.0561 0.752,-10.0934 -6.1781,8.0106 z"
       style="fill:#1b1918;fill-rule:evenodd"
       id="path46" />
    <path
       d="m 211.8916,430.3247 8.7781,6.1465 -5.9572,15.8724 13.1601,-10.697 8.748,6.1253 -15.4648,22.086 -5.4502,-3.8163 11.7922,-16.841 -16.3349,13.5661 -4.9319,-3.4534 7.4531,-19.917 -12.5474,16.4631 -5.465,-3.8266 z"
       style="fill:#1b1918;fill-rule:evenodd"
       id="path48" />
  </g>
</svg>
