<?xml version="1.0" encoding="utf-8"?>
<!-- Generator: Adobe Illustrator 15.0.0, SVG Export Plug-In . SVG Version: 6.00 Build 0)  -->
<svg version="1.2" baseProfile="tiny" id="Layer_1" xmlns="http://www.w3.org/2000/svg" xmlns:xlink="http://www.w3.org/1999/xlink"
	 x="0px" y="0px" width="175.752px" height="138.457px" viewBox="0 0 175.752 138.457" xml:space="preserve">
<g>
	<path fill-rule="evenodd" fill="#FFFFFF" d="M142.271,111.6c-1.224,6.408-2.951,11.736-4.031,15.264l-3.168,10.225
		c2.592-1.584,8.352-4.968,16.056-6.048c-0.288,1.224-0.576,2.376-0.864,3.672l-0.864,3.527l6.192,0.217
		c5.616,0,12.96-1.513,15.048-5.761c0-0.071,0.433-0.72,0.721-2.016c0.359-1.944,0.216-3.024,0.216-3.024
		c0-11.304-6.553-35.928-8.712-43.416c0.647-1.728,12.384-33.912,12.384-33.912c0.359-1.08,0.504-2.088,0.504-2.952
		c0-1.584-0.504-2.88-1.008-3.744c-0.504-0.936-1.296-1.656-2.305-2.376c1.368-2.448,2.305-5.04,2.305-7.848
		c0-7.92-5.761-14.256-13.248-15.696c0.216-2.304,0.432-5.112,0.432-5.112c0.937-8.208-1.439-9.72-5.399-12.6
		c-0.937,2.808-2.593,7.2-10.009,12.528l-1.512,1.08c-3.672,2.808-5.76,6.12-6.12,9.792l-0.288,2.592H0V74.88h0.072
		c0.432,10.8,9.36,19.439,20.16,19.439h28.872v8.137c0.144,5.111,3.816,9.144,8.352,9.144H142.271L142.271,111.6z"/>
	<path fill-rule="evenodd" fill="#B11116" d="M155.231,127.224c6.553-26.352,4.969-33.912,3.24-42.048
		c0.433,8.496-2.664,23.544-12.96,43.775C148.32,128.088,151.632,127.512,155.231,127.224L155.231,127.224z"/>
	<path fill-rule="evenodd" fill="#ED1C24" d="M148.607,128.16c4.32-8.424,11.305-32.399,9.937-42.552
		c-0.145-0.647-0.216-0.288-0.288-0.936c-5.328,13.464-10.44,26.424-15.408,41.256c-0.504,1.584-1.008,3.168-1.584,4.752
		C143.352,129.6,145.8,128.736,148.607,128.16L148.607,128.16z"/>
	<path fill-rule="evenodd" fill="#004B97" d="M172.151,45.072c-0.647-1.152-2.304-2.016-3.96-2.592
		c2.232-2.376,3.601-5.544,3.601-9.072c0-7.416-5.977-13.392-13.393-13.392c0,0,0,0-0.071,0c0.288-3.096,0.647-7.632,0.647-7.632
		c0.072-3.312,0.288-5.544-1.728-7.2c-2.232,5.472-6.552,8.064-9.072,9.792l-1.44,1.008c-2.951,2.232-4.607,4.968-4.896,7.776
		l-1.872,16.344l-0.072,0.144c0,0.072,0,0.144,0,0.216c0,1.8,0.937,6.912,10.08,10.872c-1.296,0.144-2.664,0.36-4.176,0.504
		l-1.584,0.216c-3.672,0.432-5.76,1.368-6.552,2.952c-0.288,0.576-0.433,1.08-0.433,1.656c0,0.144,0.072,0.36,0.072,0.504
		c-1.008-0.216-2.016-0.288-3.023-0.288h-18.864c-5.328,0-10.08,2.376-13.32,6.192V56.88H49.248
		c-5.184,0.144-9.36,4.392-9.432,9.576v7.632c0,0.432-0.288,0.792-0.72,0.792H20.232c-0.36,0-0.72-0.36-0.72-0.792v-7.632
		c-0.072-5.184-4.248-9.432-9.432-9.576H2.952v17.496h0.072c0.072,9.432,7.776,16.991,17.208,16.991h85.032l0,0
		c4.393-0.144,7.992-3.168,9.072-7.271h21.024c1.079,4.104,4.68,7.128,9.071,7.271h2.448c0.072,1.225,0.072,2.376,0.072,3.601
		c0,14.256-3.744,26.136-5.904,32.76l-1.08,3.6h0.072c0.864-0.504,1.8-1.008,2.952-1.439c2.231-6.192,9.071-24.768,15.552-42.48
		c1.224,7.992,2.448,15.48-5.4,47.952h0.072h-0.072c0.792,0.072,1.584,0.145,2.448,0.145c6.12,0,11.232-1.8,12.384-4.177
		c0.216-0.287,0.288-0.647,0.433-1.151c0.144-0.72,0.144-1.584,0.144-2.521c0-10.512-6.264-35.136-8.784-43.56
		c6.12-16.632,11.664-31.896,12.672-34.704C172.944,47.808,172.872,46.296,172.151,45.072L172.151,45.072z"/>
	<polygon fill-rule="evenodd" fill="#FFFFFF" points="158.832,5.256 158.832,5.184 158.832,5.256 	"/>
	<path fill-rule="evenodd" fill="#FFFFFF" d="M160.056,32.76c1.944,0.36,3.889,1.008,5.688,1.8c0.792-1.44,1.296-3.096,1.584-4.752
		c-0.937-2.088-2.521-3.816-4.536-4.896c-1.584,0.288-3.096,0.864-4.393,1.584C159.336,28.44,159.912,30.528,160.056,32.76
		L160.056,32.76z"/>
	<path fill-rule="evenodd" fill="#FFFFFF" d="M149.616,17.136v-0.072l-1.368,1.008c-1.584,1.224-3.601,3.24-3.888,5.904
		l-0.648,5.688c0,0-0.504,4.824-0.576,4.968c0.145-0.504,6.552-5.472,6.552-5.472c0.145-0.072,2.017-1.368,2.017-1.368
		c2.447-1.728,3.384-2.808,3.888-5.616l0.937-10.224l0.071-1.728C154.512,13.896,151.271,15.984,149.616,17.136L149.616,17.136z"/>
	<path fill-rule="evenodd" fill="#ED1C24" d="M168.768,46.368c-0.071,0.72-1.872,2.448-13.823,4.248
		c-12.816-3.888-12.744-9.648-12.673-10.296v-0.144c0-1.44,1.225-2.952,3.024-4.536c1.08,6.336,6.552,11.088,13.104,11.088
		c2.881,0,5.545-0.864,7.704-2.448C168.696,45.576,168.768,46.296,168.768,46.368L168.768,46.368z"/>
	<path fill-rule="evenodd" fill="#B11116" d="M166.104,44.28c-0.792,0.576-1.655,1.008-2.592,1.44
		c0.864,1.08,0.792,2.16,0.145,3.168c4.176-1.08,5.04-2.016,5.111-2.52C168.768,46.296,168.696,45.576,166.104,44.28L166.104,44.28z
		"/>
	<polygon fill-rule="evenodd" points="2.952,31.968 2.952,50.904 8.856,50.904 8.856,43.992 12.96,43.992 14.616,39.96 8.856,39.96 
		8.856,36.072 15.912,36.072 17.424,31.968 2.952,31.968 	"/>
	<polygon fill-rule="evenodd" points="19.872,31.968 19.872,50.904 25.776,50.904 25.776,31.968 19.872,31.968 	"/>
	<path fill-rule="evenodd" d="M54.36,31.968h-5.976l-6.84,18.936h5.76l0.72-2.592h6.552l0.72,2.592h5.976L54.36,31.968L54.36,31.968
		z M49.104,44.64l2.088-7.848l2.376,7.848H49.104L49.104,44.64z"/>
	<polygon fill-rule="evenodd" points="29.808,31.968 29.808,50.904 35.784,50.904 35.784,43.992 39.96,43.992 41.616,39.96 
		35.784,39.96 35.784,36.072 42.912,36.072 44.424,31.968 29.808,31.968 	"/>
	<path fill-rule="evenodd" fill="#FFFFFF" d="M146.088,54.432l-1.584,0.144c-3.6,0.432-4.248,1.296-4.464,1.656
		c-0.288,0.432-0.216,1.08,0,1.656c6.624,2.376,11.448,8.568,11.52,15.984l0,0v17.495h-2.231c0.071,1.225,0.216,2.376,0.216,3.601
		c0,5.688-0.72,10.728-1.368,14.544c0.288-2.16,21.816-60.984,21.816-60.984l0.144-0.288
		C169.128,51.048,161.496,52.632,146.088,54.432L146.088,54.432z"/>
	<path fill-rule="evenodd" fill="#FFFFFF" d="M9,62.856c0,0.576,0,11.232,0,11.232c0,6.264,5.04,11.304,11.232,11.304h18.864
		c6.192,0,11.304-5.04,11.304-11.304c0,0,0-10.656,0-11.232c-0.36,0-0.864,0-0.864,0c-2.016,0-3.672,1.728-3.672,3.744v7.488
		c0,3.744-3.024,6.768-6.768,6.768H20.232c-3.672,0-6.696-3.023-6.696-6.768V66.6c0-2.016-1.656-3.744-3.744-3.744
		C9.792,62.856,9.288,62.856,9,62.856L9,62.856z"/>
	<path fill-rule="evenodd" fill="#FFFFFF" d="M60.696,80.856c-2.088,0-3.744,1.729-3.744,3.816c0,0,0,0.432,0,0.72
		c0.576,0,34.056,0,34.056,0c3.744,0,6.84-3.024,6.84-6.768c0-3.744-3.096-6.769-6.84-6.769H63.504
		c-1.296,0-2.304-1.008-2.304-2.231c0-1.225,1.008-2.232,2.304-2.232h28.872c2.016,0,3.744-1.728,3.744-3.816c0,0,0-0.432,0-0.72
		c-0.576,0-32.616,0-32.616,0c-3.744,0-6.84,3.024-6.84,6.769c0,3.672,2.88,6.624,6.552,6.768H91.08c1.224,0,2.16,1.008,2.16,2.232
		c0,1.224-1.009,2.231-2.232,2.231H60.696L60.696,80.856z"/>
	<path fill-rule="evenodd" fill="#FFFFFF" d="M115.416,62.856c-6.265,0-11.304,5.04-11.304,11.232c0,0,0,10.728,0,11.304
		c0.359,0,0.792,0,0.792,0c2.088,0,3.743-1.728,3.743-3.744v-3.023h32.4v3.023c0,2.017,1.656,3.744,3.744,3.744c0,0,0.432,0,0.792,0
		c0-0.576,0-11.304,0-11.304c0-6.192-5.04-11.232-11.304-11.232H115.416L115.416,62.856z M108.72,73.728
		c0.216-3.528,3.168-6.336,6.696-6.336h18.864c3.6,0,6.479,2.808,6.695,6.336l0.072,0.36H108.72V73.728L108.72,73.728z"/>
	<path fill-rule="evenodd" fill="#ED1C24" d="M134.28,102.528c-0.072,3.385-2.448,6.12-5.473,6.192h-71.28
		c-3.024-0.072-5.4-2.808-5.472-6.192v-4.68c0-3.456,2.448-6.336,5.4-6.408h71.424c2.952,0.072,5.4,2.952,5.4,6.408V102.528
		L134.28,102.528z"/>
	<path fill-rule="evenodd" fill="#FFFFFF" d="M115.776,100.44c0,0.216-0.072,0.433-0.072,0.72h13.104
		c0.576,0,1.008,0.505,1.008,1.152c0,0.648-0.432,1.225-1.008,1.225h-13.68c-0.288,0.72-0.648,1.439-1.08,2.088
		c3.384,0,14.76,0,14.76,0c1.584-0.072,2.809-1.513,2.809-3.313c0-0.864-0.288-1.656-0.792-2.231
		c0.504-0.576,0.792-1.368,0.792-2.232c0-1.8-1.225-3.24-2.809-3.312h-14.76c0.504,0.647,0.864,1.296,1.152,2.088h13.607
		c0.576,0,1.008,0.504,1.008,1.224c0,0.648-0.432,1.152-1.008,1.152h-13.104c0,0.216,0.072,0.432,0.072,0.647V100.44L115.776,100.44
		z"/>
	<path fill-rule="evenodd" fill="#FFFFFF" d="M57.528,103.537c-0.576,0-1.008-0.576-1.008-1.225c0-0.647,0.504-1.224,1.08-1.224
		h11.736c1.584,0,2.808-1.513,2.808-3.24c0-1.8-1.224-3.24-2.808-3.312H56.52v0.216c0,1.008,0.72,1.872,1.656,1.872h11.16
		c0.576,0,1.08,0.504,1.08,1.224c0,0.648-0.504,1.152-1.08,1.152l-11.808,0.071c-1.512,0-2.736,1.44-2.736,3.24
		s1.224,3.24,2.736,3.24h16.2c-0.432-0.576-0.792-1.296-1.08-2.016H57.528L57.528,103.537z"/>
	<path fill-rule="evenodd" fill="#FFFFFF" d="M87.768,105.552c2.592,0,4.68-2.304,4.751-5.256V99.72
		c-0.144-2.88-2.159-5.184-4.68-5.256h-8.424c-2.52,0-4.608,2.376-4.752,5.256v0.576c0.144,2.952,2.16,5.256,4.68,5.256H87.768
		L87.768,105.552z M76.464,100.008c0-1.944,1.296-3.456,2.952-3.456h8.352c1.656,0,2.952,1.512,2.952,3.384v0.145
		c0,1.871-1.296,3.456-2.952,3.456h-8.352c-1.656,0-2.952-1.585-2.952-3.456V100.008L76.464,100.008z"/>
	<path fill-rule="evenodd" fill="#FFFFFF" d="M108.36,105.552c2.592,0,4.607-2.304,4.752-5.256V99.72
		c-0.145-2.88-2.16-5.184-4.681-5.256h-8.424c-2.592,0-4.608,2.376-4.752,5.256v0.576c0.144,2.952,2.16,5.256,4.68,5.256H108.36
		L108.36,105.552z M97.056,100.008c0-1.944,1.296-3.456,2.952-3.456h8.353c1.655,0,2.951,1.512,2.951,3.384v0.145
		c0,1.871-1.296,3.456-2.951,3.456h-8.353c-1.656,0-2.952-1.585-2.952-3.456V100.008L97.056,100.008z"/>
	<path fill-rule="evenodd" d="M127.8,53.856c0.792,0,1.44-0.648,1.44-1.44v-1.512h3.6c0.792,0,1.44-0.648,1.44-1.44v-3.96
		c0-0.792-0.648-1.44-1.44-1.44h-5.04V53.856L127.8,53.856z M80.568,32.616H76.68c-0.792,0-1.44,0.648-1.44,1.44v3.888
		c0,0.792,0.648,1.44,1.44,1.44h3.888c0.792,0,1.44-0.648,1.44-1.44v-3.888C82.008,33.264,81.36,32.616,80.568,32.616L80.568,32.616
		z M102.815,39.384c0-0.792-0.647-1.44-1.439-1.44h-3.24c-0.144,0-0.36-0.144-0.36-0.36V36.72h3.601c0.792,0,1.439-0.648,1.439-1.44
		v-1.224c0-0.792-0.647-1.44-1.439-1.44h-3.601c-0.792,0-1.439,0.648-1.439,1.44v3.888c0,0.792,0.647,1.44,1.439,1.44H102.815
		L102.815,39.384z M103.824,44.064h-3.601c-0.792,0-1.439,0.648-1.439,1.44v3.888c0,0.864,0.647,1.512,1.439,1.512h5.04v-8.928
		c-0.72,0-1.368,0.576-1.439,1.296V44.064L103.824,44.064z M84.456,44.064h-3.888c-0.792,0-1.44,0.648-1.44,1.44v3.888
		c0,0.864,0.648,1.512,1.44,1.512h3.888c0.792,0,1.44-0.648,1.44-1.512v-3.888C85.896,44.712,85.248,44.064,84.456,44.064
		L84.456,44.064z M115.776,43.416c0.791,0,1.439-0.648,1.439-1.44h-5.04c-0.792,0-1.44,0.648-1.44,1.44v6.048
		c0,0.792,0.648,1.44,1.44,1.44h5.04c0-0.792-0.648-1.44-1.439-1.44h-3.169c-0.216,0-0.432-0.216-0.432-0.432v-5.256
		c0-0.144,0.216-0.36,0.432-0.36H115.776L115.776,43.416z M71.208,37.944h-2.016c-0.216,0-0.432-0.144-0.432-0.36v-7.056
		c-0.72,0-1.368,0.576-1.44,1.368v6.048h-2.016c-0.216,0-0.36-0.144-0.36-0.36v-7.056c-0.792,0-1.44,0.648-1.44,1.44v5.976
		c0,0.792,0.648,1.44,1.44,1.44h7.704v-8.856c-0.792,0-1.44,0.648-1.44,1.44V37.944L71.208,37.944z M80.568,37.584
		c0,0.216-0.144,0.36-0.36,0.36H77.04c-0.216,0-0.36-0.144-0.36-0.36v-3.168c0-0.216,0.144-0.36,0.36-0.36h3.168
		c0.216,0,0.36,0.144,0.36,0.36V37.584L80.568,37.584z M122.184,39.384c0.792,0,1.513-0.648,1.513-1.44V36.72
		c0-0.792-0.721-1.44-1.513-1.44h-3.527v-0.864c0-0.216,0.144-0.36,0.359-0.36h3.168c0.792,0,1.513-0.648,1.513-1.44h-5.04
		c-0.792,0-1.44,0.648-1.44,1.44v1.224c0,0.792,0.648,1.44,1.44,1.44h3.527v0.864c0,0.216-0.144,0.36-0.288,0.36h-3.239
		c-0.792,0-1.44,0.648-1.44,1.44H122.184L122.184,39.384z M115.344,30.528h-1.439v1.44c0,0.792,0.647,1.44,1.439,1.44V30.528
		L115.344,30.528z M97.775,34.416c0-0.216,0.217-0.36,0.36-0.36h2.88c0.145,0,0.36,0.144,0.36,0.36v0.72
		c0,0.144-0.216,0.36-0.36,0.36h-2.88c-0.216,0-0.36-0.216-0.36-0.36V34.416L97.775,34.416z M92.376,37.944
		c0,0.792,0.576,1.44,1.439,1.44v-5.328c0-0.792-0.72-1.44-1.439-1.44H84.6v5.328c0,0.792,0.648,1.44,1.44,1.44v-5.328h2.088
		c0.216,0,0.36,0.144,0.36,0.36v3.528c0,0.792,0.647,1.44,1.439,1.44v-5.328h2.017c0.216,0,0.432,0.144,0.432,0.36V37.944
		L92.376,37.944z M110.376,37.944c0,0.792,0.647,1.44,1.439,1.44l0,0l0,0v-5.328c0-0.792-0.647-1.44-1.439-1.44h-5.04v5.256l0,0
		c0,0.072,0,0.072,0,0.072c0,0.792,0.647,1.44,1.439,1.44v-5.328h3.24c0.145,0,0.36,0.144,0.36,0.36V37.944L110.376,37.944z
		 M103.824,49.392h-3.24c-0.145,0-0.36-0.144-0.36-0.36v-3.168c0-0.144,0.216-0.36,0.36-0.36h3.24V49.392L103.824,49.392z
		 M96.264,41.976c-0.792,0-1.439,0.648-1.439,1.44v7.488h1.439V41.976L96.264,41.976z M89.928,44.064
		c-0.792,0-1.439,0.648-1.439,1.44v5.4h1.439v-4.968c0-0.216,0.145-0.36,0.36-0.36h1.439c0.792,0,1.44-0.72,1.44-1.512H89.928
		L89.928,44.064z M75.096,49.392h-2.088c-0.144,0-0.36-0.144-0.36-0.36v-7.056c-0.792,0-1.368,0.648-1.44,1.44v5.976h-2.016
		c-0.216,0-0.36-0.144-0.36-0.36v-7.056c-0.864,0-1.512,0.648-1.512,1.44v5.976c0,0.864,0.648,1.512,1.512,1.512h7.776v-8.928
		c-0.864,0-1.512,0.648-1.512,1.44V49.392L75.096,49.392z M84.456,49.032c0,0.216-0.144,0.36-0.36,0.36h-3.168
		c-0.216,0-0.36-0.144-0.36-0.36v-3.096c0-0.216,0.144-0.36,0.36-0.36h3.168c0.216,0,0.36,0.144,0.36,0.36V49.032L84.456,49.032z
		 M125.567,44.064c-0.791,0-1.439,0.648-1.439,1.44v3.528c0,0.216-0.145,0.432-0.36,0.432h-2.808c-0.216,0-0.36-0.216-0.36-0.432
		v-3.528c-0.071-0.792-0.647-1.44-1.512-1.44v5.4c0,0.792,0.647,1.44,1.512,1.44h3.528c0.792,0,1.439-0.648,1.439-1.44V44.064
		L125.567,44.064z M132.84,49.032c0,0.216-0.216,0.432-0.36,0.432h-3.239v-3.888h3.239c0.145,0,0.36,0.144,0.36,0.36V49.032
		L132.84,49.032z"/>
</g>
</svg>
