<?xml version="1.0" encoding="UTF-8"?>
<svg width="440" height="180" version="1.1" viewBox="0 0 633.6 259.2" xmlns="http://www.w3.org/2000/svg">
 <defs>
  <linearGradient id="a" x1="360" x2="360" y1="188.65" y2="79.15" gradientUnits="userSpaceOnUse">
   <stop stop-color="#32445a" offset="0"/>
   <stop stop-color="#748295" offset="1"/>
  </linearGradient>
 </defs>
 <g transform="translate(-43.2,-14.4)">
  <path d="m91.5 79.15v34.27h43.25l-16.18 17.28h-27.07v54.9h-19.5v-125.74h95.79l-18.07 19.29zm214.91 66.13-87.75-87.28v127.47h19.34v-84.14l87.76 87.32v-129h-19.35zm87.16-89.45 58.07 129.77h-19.83l-11.45-26.43h-53.57l-11.45 26.43h-19.83zm19.43 86.32-19.43-44.86-19.42 44.86zm67.7-82.29h-19.7v125.74h71.75v-16.9h-52.05zm118.12 54.61c-25.65-7.29-35.58-12.59-35.58-24.23s14.48-15.81 24.32-15.81a37.82 37.82 0 0 1 30.29 15.71l12.59-12.58s-14.44-19.69-43.54-19.69-43.16 17.13-43.16 34.07 12.4 28.4 33.41 34.55 34.85 11.26 34.85 23.51-9.18 21-24.89 21-26.6-7.58-32.75-15.62l-12.59 12.78s12.12 19.12 46.57 19.12 43.25-24.61 43.25-37.58-7.12-27.94-32.77-35.23zm32.61-53.19h2.35v7h1.45v-7h2.35v-1.2h-6.15zm12.43 3.19-4.14-4.39v8.29h1.28v-4.9l2.84 3 2.83-3v4.9h1.33v-8.29zm-448.39-16.07-6.86-5.2-6.86 5.2 6.86 5.21zm6 30 3.08-10.18c-0.66-0.9-4.59-3.26-10.41-6.1s-15.52-6.44-15.9-8.52a3 3 0 0 1 1.7-3.08l-0.42-0.66s-3.84 2.18-3.51 5.06 2.18 13.68 2.18 13.68a82.69 82.69 0 0 1 23.24 9.81zm6.87 7.43a112.56 112.56 0 0 0-37.58-16.52l3.41 17a81.86 81.86 0 0 1 25.36 9.94c-9.26 36.77-15.05 89.3-15.05 89.3h21.92s-0.41-0.9-1.53-3.31c-0.64-1.37-1.52-3.22-2.69-5.68a69.34 69.34 0 0 1-4.32-13.2c-5.28-21.44 0.73-44.08 6.69-64.73 1.95-6.86 3.75-12.79 3.75-12.79zm-41.87 1.75a210.22 210.22 0 0 1 8.74 27.8c0.19 0.75 0.37 1.51 0.55 2.26 1.73 7.3 3 14.69 4.2 22.09 1.13 7.17 1.65 14.61 0.16 21.76-1.45 6.94-4.18 13.53-7.1 20-1.16 2.56-2 4.13-2 4.13h11a791.68 791.68 0 0 1 14.34-87.69 92.22 92.22 0 0 0-29.93-10.34z" fill="url(#a)"/>
  <g fill="#32445a">
   <path d="m146.15 217.64h-11.31v26.36h6.06v-7.43h5.25a9.47 9.47 0 0 0 0-18.93zm-0.85 13.91h-4.4v-8.9h4.4a4.45 4.45 0 0 1 0 8.9z"/>
   <path d="m185.76 217.64c-7.65 0-13.84 5.9-13.84 13.18s6.19 13.18 13.84 13.18 13.84-5.9 13.84-13.18-6.2-13.18-13.84-13.18zm0 21.89c-4.44 0-8-3.9-8-8.71s3.6-8.71 8-8.71 8 3.9 8 8.71-3.56 8.71-8 8.71z"/>
   <path d="m237.32 227.1a9.47 9.47 0 0 0-9.46-9.46h-11.32v26.36h6.06v-8.52h5l4.59 8.52h6.62l-6.08-9.59a7.83 7.83 0 0 0 4.59-7.31zm-10.32 3.36h-4.4v-7.81h4.4a4.45 4.45 0 0 1 4.45 4.45c0 2.46-1.99 3.36-4.45 3.36z"/>
   <polygon points="260.04 243.62 265.72 243.62 265.72 222.56 273.74 222.56 273.74 217.64 252.01 217.64 252.01 222.56 260.04 222.56"/>
   <path d="m307.05 234a5.23 5.23 0 0 1-5.23 5.23h-1a5.23 5.23 0 0 1-5.22-5.23v-16.36h-5.72v16.26a10.62 10.62 0 0 0 10.63 10.63h1.64a10.63 10.63 0 0 0 10.63-10.63v-16.26h-5.73z"/>
   <path d="m345.25 230v5h4.86v2.41a9.39 9.39 0 0 1-6.27 2.2c-4.45 0-8-3.9-8-8.72s3.59-8.7 8-8.7a7.9 7.9 0 0 1 6.7 3.88l3.91-3.63a14.1 14.1 0 0 0-10.61-4.73c-7.65 0-13.86 5.91-13.86 13.18s6.21 13.2 13.86 13.2h1.05c7.72-0.36 10.9-4.77 10.9-4.77v-9.32z"/>
   <path d="m371 244h6.2l2-4.21h9.71l2 4.21h6.09l-13-27.18zm13-8.91h-2.67l2.67-5.73 2.66 5.73z"/>
   <polygon points="412.92 244.01 414.58 244.01 418.69 244.01 430.53 244.01 430.53 238.79 418.69 238.79 418.69 217.78 412.92 217.78"/>
   <path d="m478.47 239.08 2.1-2.67c3.17-4 8.76-9.2 5.73-14.8-1.76-3.25-5.59-4.55-9.11-4.46-3.13 0.08-5.59 2.1-7.49 4.45a24.28 24.28 0 0 0-1.52 2.1c-0.24 0.37-0.45 0.72-0.65 1l4.88 2.36a13.5 13.5 0 0 1 0.71-1.36c0.18-0.32 0.41-0.67 0.66-1 1.15-1.58 2.82-3.05 4.92-2.58a3.68 3.68 0 0 1 2.76 2.57 5.22 5.22 0 0 1-1 3.77c-0.82 1.35-6.75 8.29-10.3 12.4-1.56 1.82-2.67 3.08-2.67 3.08h20.16v-4.87h-9.22z"/>
   <path d="m513.44 217.14c-5.65 0-10.22 6.2-10.22 13.83s4.57 13.83 10.22 13.83 10.22-6.19 10.22-13.83-4.57-13.83-10.22-13.83zm0 22.34c-2.48 0-4.5-3.81-4.5-8.51s2-8.5 4.5-8.5 4.5 3.8 4.5 8.5-2.02 8.51-4.5 8.51z"/>
   <polygon points="543.21 243.81 549.08 243.81 549.08 222.65 549.08 221.19 549.08 217.78 538.24 217.78 538.24 222.65 543.21 222.65"/>
   <path d="m585.14 226.16c0-4.92-4.43-8.9-9.61-8.9a8.91 8.91 0 1 0 0 17.79 9.3 9.3 0 0 0 1.5-0.14l-0.13 0.14-6.81 8.76h6.24s6.22-8.46 7.39-10.6a14.1 14.1 0 0 0 1.42-7.05zm-9.61 4.26a4.27 4.27 0 1 1 4-4.26 4.15 4.15 0 0 1-4 4.26z"/>
  </g>
 </g>
</svg>
