<?xml version="1.0" encoding="UTF-8"?>
<!DOCTYPE svg PUBLIC "-//W3C//DTD SVG 1.1//EN" "http://www.w3.org/Graphics/SVG/1.1/DTD/svg11.dtd">
<svg xmlns="http://www.w3.org/2000/svg" xml:space="preserve" width="260.995127227" height="383.1489157" version="1.1" style="shape-rendering:geometricPrecision; text-rendering:geometricPrecision; image-rendering:optimizeQuality; fill-rule:evenodd; clip-rule:evenodd"
viewBox="0 0 10208 14986"
 xmlns:xlink="http://www.w3.org/1999/xlink">
 <defs>
  <style type="text/css">
   <![CDATA[
    .fil7 {fill:#2D2C2B;fill-rule:nonzero}
    .fil0 {fill:#667186;fill-rule:nonzero}
    .fil44 {fill:url(#id0)}
    .fil96 {fill:url(#id1)}
    .fil47 {fill:url(#id2)}
    .fil5 {fill:url(#id3)}
    .fil71 {fill:url(#id4)}
    .fil2 {fill:url(#id5)}
    .fil39 {fill:url(#id6)}
    .fil4 {fill:url(#id7)}
    .fil40 {fill:url(#id8)}
    .fil61 {fill:url(#id9)}
    .fil51 {fill:url(#id10)}
    .fil17 {fill:url(#id11)}
    .fil89 {fill:url(#id12)}
    .fil23 {fill:url(#id13)}
    .fil45 {fill:url(#id14)}
    .fil43 {fill:url(#id15)}
    .fil48 {fill:url(#id16)}
    .fil46 {fill:url(#id17)}
    .fil55 {fill:url(#id18)}
    .fil64 {fill:url(#id19)}
    .fil9 {fill:url(#id20)}
    .fil98 {fill:url(#id21)}
    .fil15 {fill:url(#id22)}
    .fil88 {fill:url(#id23)}
    .fil85 {fill:url(#id24)}
    .fil87 {fill:url(#id25)}
    .fil86 {fill:url(#id26)}
    .fil12 {fill:url(#id27)}
    .fil1 {fill:url(#id28)}
    .fil73 {fill:url(#id29)}
    .fil8 {fill:url(#id30)}
    .fil72 {fill:url(#id31)}
    .fil74 {fill:url(#id32)}
    .fil76 {fill:url(#id33)}
    .fil79 {fill:url(#id34)}
    .fil75 {fill:url(#id35)}
    .fil41 {fill:url(#id36)}
    .fil42 {fill:url(#id37)}
    .fil6 {fill:url(#id38)}
    .fil58 {fill:url(#id39)}
    .fil62 {fill:url(#id40)}
    .fil60 {fill:url(#id41)}
    .fil59 {fill:url(#id42)}
    .fil52 {fill:url(#id43)}
    .fil10 {fill:url(#id44)}
    .fil34 {fill:url(#id45)}
    .fil38 {fill:url(#id46)}
    .fil35 {fill:url(#id47)}
    .fil53 {fill:url(#id48)}
    .fil21 {fill:url(#id49)}
    .fil18 {fill:url(#id50)}
    .fil11 {fill:url(#id51)}
    .fil92 {fill:url(#id52)}
    .fil27 {fill:url(#id53)}
    .fil24 {fill:url(#id54)}
    .fil28 {fill:url(#id55)}
    .fil26 {fill:url(#id56)}
    .fil31 {fill:url(#id57)}
    .fil3 {fill:url(#id58)}
    .fil102 {fill:url(#id59)}
    .fil65 {fill:url(#id60)}
    .fil99 {fill:url(#id61)}
    .fil49 {fill:url(#id62)}
    .fil13 {fill:url(#id63)}
    .fil14 {fill:url(#id64)}
    .fil78 {fill:url(#id65)}
    .fil77 {fill:url(#id66)}
    .fil37 {fill:url(#id67)}
    .fil33 {fill:url(#id68)}
    .fil94 {fill:url(#id69)}
    .fil97 {fill:url(#id70)}
    .fil54 {fill:url(#id71)}
    .fil20 {fill:url(#id72)}
    .fil90 {fill:url(#id73)}
    .fil91 {fill:url(#id74)}
    .fil30 {fill:url(#id75)}
    .fil22 {fill:url(#id76)}
    .fil70 {fill:url(#id77)}
    .fil101 {fill:url(#id78)}
    .fil66 {fill:url(#id79)}
    .fil84 {fill:url(#id80)}
    .fil68 {fill:url(#id81)}
    .fil93 {fill:url(#id82)}
    .fil63 {fill:url(#id83)}
    .fil32 {fill:url(#id84)}
    .fil56 {fill:url(#id85)}
    .fil57 {fill:url(#id86)}
    .fil19 {fill:url(#id87)}
    .fil25 {fill:url(#id88)}
    .fil95 {fill:url(#id89)}
    .fil50 {fill:url(#id90)}
    .fil83 {fill:url(#id91)}
    .fil67 {fill:url(#id92)}
    .fil100 {fill:url(#id93)}
    .fil16 {fill:url(#id94)}
    .fil36 {fill:url(#id95)}
    .fil82 {fill:url(#id96)}
    .fil80 {fill:url(#id97)}
    .fil69 {fill:url(#id98)}
    .fil29 {fill:url(#id99)}
    .fil81 {fill:url(#id100)}
    .fil103 {fill:url(#id101)}
   ]]>
  </style>
  <linearGradient id="id0" gradientUnits="userSpaceOnUse" x1="3696.97" y1="3193.75" x2="4637.28" y2="3070.28">
   <stop offset="0" style="stop-color:#FBDD26"/>
   <stop offset="0.501961" style="stop-color:#C89B3C"/>
   <stop offset="1" style="stop-color:#FBDD26"/>
  </linearGradient>
  <linearGradient id="id1" gradientUnits="userSpaceOnUse" xlink:href="#id0" x1="3185.65" y1="2242.69" x2="4882.55" y2="2019.86">
  </linearGradient>
  <linearGradient id="id2" gradientUnits="userSpaceOnUse" xlink:href="#id0" x1="5995.62" y1="7963.74" x2="7649.89" y2="7746.51">
  </linearGradient>
  <linearGradient id="id3" gradientUnits="userSpaceOnUse" x1="5759.7" y1="4718.28" x2="7282.11" y2="4516.78">
   <stop offset="0" style="stop-color:#2680C2"/>
   <stop offset="0.529412" style="stop-color:#24649B"/>
   <stop offset="1" style="stop-color:#2680C2"/>
  </linearGradient>
  <linearGradient id="id4" gradientUnits="userSpaceOnUse" x1="3261.5" y1="3930.47" x2="5048.5" y2="3686.79">
   <stop offset="0" style="stop-color:#E53438"/>
   <stop offset="0.501961" style="stop-color:#9F3234"/>
   <stop offset="1" style="stop-color:#E53438"/>
  </linearGradient>
  <linearGradient id="id5" gradientUnits="userSpaceOnUse" xlink:href="#id4" x1="5665.54" y1="3083.51" x2="7136.34" y2="2882.94">
  </linearGradient>
  <linearGradient id="id6" gradientUnits="userSpaceOnUse" x1="3237.31" y1="3210.55" x2="5070.04" y2="2959">
   <stop offset="0" style="stop-color:#4BA5DB"/>
   <stop offset="0.501961" style="stop-color:#397CAB"/>
   <stop offset="1" style="stop-color:#4BA5DB"/>
  </linearGradient>
  <linearGradient id="id7" gradientUnits="userSpaceOnUse" xlink:href="#id6" x1="6462.13" y1="3882.9" x2="8068.91" y2="3662.36">
  </linearGradient>
  <linearGradient id="id8" gradientUnits="userSpaceOnUse" xlink:href="#id6" x1="6695.83" y1="7113.84" x2="8250.52" y2="6900.45">
  </linearGradient>
  <linearGradient id="id9" gradientUnits="userSpaceOnUse" x1="3589.13" y1="2000.93" x2="4506.69" y2="1871.39">
   <stop offset="0" style="stop-color:#EB594F"/>
   <stop offset="0.501961" style="stop-color:#C74840"/>
   <stop offset="1" style="stop-color:#EB594F"/>
  </linearGradient>
  <linearGradient id="id10" gradientUnits="userSpaceOnUse" x1="3167.8" y1="1563.23" x2="4899.43" y2="1313.39">
   <stop offset="0" style="stop-color:#29A154"/>
   <stop offset="0.501961" style="stop-color:#24834B"/>
   <stop offset="1" style="stop-color:#29A154"/>
  </linearGradient>
  <linearGradient id="id11" gradientUnits="userSpaceOnUse" xlink:href="#id10" x1="5851.98" y1="6345.18" x2="7367.46" y2="6126.53">
  </linearGradient>
  <linearGradient id="id12" gradientUnits="userSpaceOnUse" x1="3363.48" y1="7514.6" x2="5250.72" y2="7198.47">
   <stop offset="0" style="stop-color:#325092"/>
   <stop offset="0.501961" style="stop-color:#3B3F76"/>
   <stop offset="1" style="stop-color:#325092"/>
  </linearGradient>
  <linearGradient id="id13" gradientUnits="userSpaceOnUse" xlink:href="#id0" x1="3280.75" y1="5704.93" x2="5133.68" y2="5394.54">
  </linearGradient>
  <linearGradient id="id14" gradientUnits="userSpaceOnUse" x1="3805.44" y1="7226.03" x2="4815.67" y2="7093.37">
   <stop offset="0" style="stop-color:#FAC42C"/>
   <stop offset="0.45098" style="stop-color:#C78D3B"/>
   <stop offset="1" style="stop-color:#FAC42C"/>
  </linearGradient>
  <linearGradient id="id15" gradientUnits="userSpaceOnUse" xlink:href="#id12" x1="5102.24" y1="5905.8" x2="6547.09" y2="5716.07">
  </linearGradient>
  <linearGradient id="id16" gradientUnits="userSpaceOnUse" xlink:href="#id0" x1="2502.84" y1="8222.51" x2="4468.49" y2="7964.39">
  </linearGradient>
  <linearGradient id="id17" gradientUnits="userSpaceOnUse" xlink:href="#id0" x1="7081.51" y1="7184.63" x2="7871.03" y2="7080.95">
  </linearGradient>
  <linearGradient id="id18" gradientUnits="userSpaceOnUse" xlink:href="#id12" x1="3766.83" y1="4955.48" x2="4700.72" y2="4832.85">
  </linearGradient>
  <linearGradient id="id19" gradientUnits="userSpaceOnUse" x1="5219.12" y1="7555.66" x2="6720.06" y2="7357.01">
   <stop offset="0" style="stop-color:#2680C2"/>
   <stop offset="0.501961" style="stop-color:#24649B"/>
   <stop offset="1" style="stop-color:#2680C2"/>
  </linearGradient>
  <linearGradient id="id20" gradientUnits="userSpaceOnUse" xlink:href="#id19" x1="2402.78" y1="4459.77" x2="4276.37" y2="4211.79">
  </linearGradient>
  <linearGradient id="id21" gradientUnits="userSpaceOnUse" xlink:href="#id10" x1="1469.88" y1="2618.64" x2="3205.52" y2="2388.92">
  </linearGradient>
  <linearGradient id="id22" gradientUnits="userSpaceOnUse" x1="4257.7" y1="5919.12" x2="5879.96" y2="5703.35">
   <stop offset="0" style="stop-color:#27854F"/>
   <stop offset="0.45098" style="stop-color:#276941"/>
   <stop offset="1" style="stop-color:#27854F"/>
  </linearGradient>
  <linearGradient id="id23" gradientUnits="userSpaceOnUse" x1="4266.78" y1="6492.54" x2="5868.68" y2="6275.41">
   <stop offset="0" style="stop-color:#FEFEFE"/>
   <stop offset="0.458824" style="stop-color:#AAAAA9"/>
   <stop offset="1" style="stop-color:#D0D1D1"/>
  </linearGradient>
  <linearGradient id="id24" gradientUnits="userSpaceOnUse" xlink:href="#id23" x1="5858.92" y1="7002.5" x2="7360.52" y2="6798.97">
  </linearGradient>
  <linearGradient id="id25" gradientUnits="userSpaceOnUse" x1="4088.94" y1="3173.83" x2="5681.79" y2="2957.93">
   <stop offset="0" style="stop-color:#FEFEFE"/>
   <stop offset="0.490196" style="stop-color:#AAAAA9"/>
   <stop offset="1" style="stop-color:#D0D1D1"/>
  </linearGradient>
  <linearGradient id="id26" gradientUnits="userSpaceOnUse" xlink:href="#id25" x1="4250.69" y1="4793.13" x2="5783.78" y2="4585.33">
  </linearGradient>
  <linearGradient id="id27" gradientUnits="userSpaceOnUse" xlink:href="#id4" x1="3278.84" y1="4982.3" x2="5131.51" y2="4729.66">
  </linearGradient>
  <linearGradient id="id28" gradientUnits="userSpaceOnUse" xlink:href="#id4" x1="2347.04" y1="2624.91" x2="4112.58" y2="2384.15">
  </linearGradient>
  <linearGradient id="id29" gradientUnits="userSpaceOnUse" xlink:href="#id12" x1="1477.42" y1="2080.74" x2="3197.98" y2="1846.12">
  </linearGradient>
  <linearGradient id="id30" gradientUnits="userSpaceOnUse" xlink:href="#id4" x1="1481.96" y1="3884.8" x2="3269.01" y2="3641.11">
  </linearGradient>
  <linearGradient id="id31" gradientUnits="userSpaceOnUse" xlink:href="#id4" x1="1468.28" y1="6318.87" x2="3314.69" y2="6067.08">
  </linearGradient>
  <linearGradient id="id32" gradientUnits="userSpaceOnUse" xlink:href="#id4" x1="5029.4" y1="4269.48" x2="6490.92" y2="4070.19">
  </linearGradient>
  <linearGradient id="id33" gradientUnits="userSpaceOnUse" xlink:href="#id4" x1="6517.17" y1="6138.89" x2="7962.2" y2="5941.85">
  </linearGradient>
  <linearGradient id="id34" gradientUnits="userSpaceOnUse" xlink:href="#id4" x1="6823.32" y1="3979.76" x2="7648.33" y2="3867.26">
  </linearGradient>
  <linearGradient id="id35" gradientUnits="userSpaceOnUse" xlink:href="#id4" x1="4868.11" y1="2179.57" x2="6223.25" y2="1994.78">
  </linearGradient>
  <linearGradient id="id36" gradientUnits="userSpaceOnUse" xlink:href="#id10" x1="6565.17" y1="2734.15" x2="7402.5" y2="2619.22">
  </linearGradient>
  <linearGradient id="id37" gradientUnits="userSpaceOnUse" xlink:href="#id6" x1="6886.98" y1="5605.37" x2="7651.74" y2="5500.41">
  </linearGradient>
  <linearGradient id="id38" gradientUnits="userSpaceOnUse" x1="5033.04" y1="3741.28" x2="6488.27" y2="3539.16">
   <stop offset="0" style="stop-color:#F29534"/>
   <stop offset="0.501961" style="stop-color:#D67F39"/>
   <stop offset="1" style="stop-color:#F29534"/>
  </linearGradient>
  <linearGradient id="id39" gradientUnits="userSpaceOnUse" xlink:href="#id9" x1="1472.52" y1="8231.69" x2="3397.91" y2="7959.87">
  </linearGradient>
  <linearGradient id="id40" gradientUnits="userSpaceOnUse" x1="3815.05" y1="6795.41" x2="4795.96" y2="6656.93">
   <stop offset="0" style="stop-color:#FEFEFE"/>
   <stop offset="0.501961" style="stop-color:#D0D1D1"/>
   <stop offset="1" style="stop-color:#FEFEFE"/>
  </linearGradient>
  <linearGradient id="id41" gradientUnits="userSpaceOnUse" xlink:href="#id9" x1="1932.02" y1="5798.3" x2="2874.04" y2="5665.3">
  </linearGradient>
  <linearGradient id="id42" gradientUnits="userSpaceOnUse" xlink:href="#id4" x1="6702.58" y1="7693.02" x2="8245.3" y2="7475.22">
  </linearGradient>
  <linearGradient id="id43" gradientUnits="userSpaceOnUse" xlink:href="#id10" x1="6463.33" y1="4545.63" x2="8067.71" y2="4314.15">
  </linearGradient>
  <linearGradient id="id44" gradientUnits="userSpaceOnUse" xlink:href="#id10" x1="2398.07" y1="6329.76" x2="4290.77" y2="6056.68">
  </linearGradient>
  <linearGradient id="id45" gradientUnits="userSpaceOnUse" x1="3353.72" y1="6865.72" x2="5252.51" y2="6576.57">
   <stop offset="0" style="stop-color:#B13438"/>
   <stop offset="0.4" style="stop-color:#7B2E2E"/>
   <stop offset="1" style="stop-color:#B13438"/>
  </linearGradient>
  <linearGradient id="id46" gradientUnits="userSpaceOnUse" xlink:href="#id40" x1="7077.55" y1="7547.48" x2="7930.78" y2="7417.54">
  </linearGradient>
  <linearGradient id="id47" gradientUnits="userSpaceOnUse" x1="4075.65" y1="2637.39" x2="5698.22" y2="2390.3">
   <stop offset="0" style="stop-color:#B13438"/>
   <stop offset="0.501961" style="stop-color:#7B2E2E"/>
   <stop offset="1" style="stop-color:#B13438"/>
  </linearGradient>
  <linearGradient id="id48" gradientUnits="userSpaceOnUse" xlink:href="#id14" x1="4437.07" y1="7577.88" x2="6025.89" y2="7334.79">
  </linearGradient>
  <linearGradient id="id49" gradientUnits="userSpaceOnUse" xlink:href="#id40" x1="6866.72" y1="5986.41" x2="7679.1" y2="5855.69">
  </linearGradient>
  <linearGradient id="id50" gradientUnits="userSpaceOnUse" xlink:href="#id40" x1="1943.59" y1="8093.6" x2="2958.34" y2="7930.31">
  </linearGradient>
  <linearGradient id="id51" gradientUnits="userSpaceOnUse" xlink:href="#id40" x1="3746.86" y1="5413.41" x2="4740.71" y2="5253.48">
  </linearGradient>
  <linearGradient id="id52" gradientUnits="userSpaceOnUse" xlink:href="#id12" x1="3602.55" y1="1551.26" x2="4462.4" y2="1407.22">
  </linearGradient>
  <linearGradient id="id53" gradientUnits="userSpaceOnUse" xlink:href="#id12" x1="5214.84" y1="7034.07" x2="6724.33" y2="6781.22">
  </linearGradient>
  <linearGradient id="id54" gradientUnits="userSpaceOnUse" xlink:href="#id12" x1="1480.39" y1="5739.68" x2="3302.57" y2="5434.44">
  </linearGradient>
  <linearGradient id="id55" gradientUnits="userSpaceOnUse" xlink:href="#id12" x1="6525.15" y1="5533.65" x2="7954.22" y2="5294.27">
  </linearGradient>
  <linearGradient id="id56" gradientUnits="userSpaceOnUse" xlink:href="#id4" x1="6202.74" y1="2282.27" x2="7724.25" y2="2027.4">
  </linearGradient>
  <linearGradient id="id57" gradientUnits="userSpaceOnUse" xlink:href="#id12" x1="3682.19" y1="3674.44" x2="4661.48" y2="3510.39">
  </linearGradient>
  <linearGradient id="id58" gradientUnits="userSpaceOnUse" xlink:href="#id12" x1="6812.94" y1="4405.67" x2="7669.09" y2="4262.25">
  </linearGradient>
  <linearGradient id="id59" gradientUnits="userSpaceOnUse" x1="3961.39" y1="1569.7" x2="5421.47" y2="1304.88">
   <stop offset="0" style="stop-color:#FEFEFE"/>
   <stop offset="0.541176" style="stop-color:#AAAAA9"/>
   <stop offset="1" style="stop-color:#FEFEFE"/>
  </linearGradient>
  <linearGradient id="id60" gradientUnits="userSpaceOnUse" x1="2358" y1="3243.46" x2="4107.82" y2="2926.09">
   <stop offset="0" style="stop-color:#FEFEFE"/>
   <stop offset="0.501961" style="stop-color:#AAAAA9"/>
   <stop offset="1" style="stop-color:#FEFEFE"/>
  </linearGradient>
  <linearGradient id="id61" gradientUnits="userSpaceOnUse" x1="2305.13" y1="1506.33" x2="3980.53" y2="1202.45">
   <stop offset="0" style="stop-color:#FEFEFE"/>
   <stop offset="1" style="stop-color:#AAAAA9"/>
  </linearGradient>
  <linearGradient id="id62" gradientUnits="userSpaceOnUse" xlink:href="#id10" x1="1481.61" y1="7721.97" x2="3388.82" y2="7132.67">
  </linearGradient>
  <linearGradient id="id63" gradientUnits="userSpaceOnUse" xlink:href="#id19" x1="5433.02" y1="5784.31" x2="6179.26" y2="5685.55">
  </linearGradient>
  <linearGradient id="id64" gradientUnits="userSpaceOnUse" x1="1476.64" y1="6647.11" x2="2434.36" y2="6519.74">
   <stop offset="0" style="stop-color:#27854F"/>
   <stop offset="0.501961" style="stop-color:#276941"/>
   <stop offset="1" style="stop-color:#27854F"/>
  </linearGradient>
  <linearGradient id="id65" gradientUnits="userSpaceOnUse" xlink:href="#id4" x1="5572.14" y1="7054.5" x2="6322.02" y2="6952.24">
  </linearGradient>
  <linearGradient id="id66" gradientUnits="userSpaceOnUse" xlink:href="#id4" x1="5214.83" y1="2504" x2="5941.96" y2="2404.84">
  </linearGradient>
  <linearGradient id="id67" gradientUnits="userSpaceOnUse" xlink:href="#id40" x1="1885.78" y1="2449.69" x2="2824.04" y2="2306.8">
  </linearGradient>
  <linearGradient id="id68" gradientUnits="userSpaceOnUse" xlink:href="#id47" x1="5116.15" y1="5389.37" x2="6534.56" y2="5173.37">
  </linearGradient>
  <linearGradient id="id69" gradientUnits="userSpaceOnUse" x1="1904.92" y1="2120.22" x2="2796.81" y2="1983.76">
   <stop offset="0" style="stop-color:#FAC42C"/>
   <stop offset="0.501961" style="stop-color:#C78D3B"/>
   <stop offset="1" style="stop-color:#FAC42C"/>
  </linearGradient>
  <linearGradient id="id70" gradientUnits="userSpaceOnUse" xlink:href="#id69" x1="6207.78" y1="2864" x2="7722.97" y2="2632.17">
  </linearGradient>
  <linearGradient id="id71" gradientUnits="userSpaceOnUse" xlink:href="#id69" x1="1917.06" y1="6194.4" x2="2885.55" y2="6046.22">
  </linearGradient>
  <linearGradient id="id72" gradientUnits="userSpaceOnUse" xlink:href="#id40" x1="5575.85" y1="7390.32" x2="6349.3" y2="7265.86">
  </linearGradient>
  <linearGradient id="id73" gradientUnits="userSpaceOnUse" xlink:href="#id40" x1="1924.94" y1="3937.93" x2="2855.61" y2="3788.17">
  </linearGradient>
  <linearGradient id="id74" gradientUnits="userSpaceOnUse" xlink:href="#id40" x1="6565.72" y1="2354.19" x2="7366.9" y2="2225.26">
  </linearGradient>
  <linearGradient id="id75" gradientUnits="userSpaceOnUse" xlink:href="#id12" x1="1900.26" y1="4340.92" x2="2869" y2="4178.64">
  </linearGradient>
  <linearGradient id="id76" gradientUnits="userSpaceOnUse" x1="4254.05" y1="4298.9" x2="5785.5" y2="4042.36">
   <stop offset="0" style="stop-color:#325092"/>
   <stop offset="0.411765" style="stop-color:#3B3F76"/>
   <stop offset="1" style="stop-color:#325092"/>
  </linearGradient>
  <linearGradient id="id77" gradientUnits="userSpaceOnUse" xlink:href="#id60" x1="5669.52" y1="3766.6" x2="7132.36" y2="3501.28">
  </linearGradient>
  <linearGradient id="id78" gradientUnits="userSpaceOnUse" xlink:href="#id60" x1="5401.87" y1="2207.01" x2="6800.4" y2="1953.36">
  </linearGradient>
  <linearGradient id="id79" gradientUnits="userSpaceOnUse" x1="5769.51" y1="5411.21" x2="7272.3" y2="5138.64">
   <stop offset="0" style="stop-color:#FEFEFE"/>
   <stop offset="0.478431" style="stop-color:#AAAAA9"/>
   <stop offset="1" style="stop-color:#FEFEFE"/>
  </linearGradient>
  <linearGradient id="id80" gradientUnits="userSpaceOnUse" x1="2406.94" y1="5146.2" x2="4277.26" y2="4565.76">
   <stop offset="0" style="stop-color:#D0D1D1"/>
   <stop offset="1" style="stop-color:#FEFEFE"/>
  </linearGradient>
  <linearGradient id="id81" gradientUnits="userSpaceOnUse" xlink:href="#id80" x1="8251.14" y1="6592.68" x2="7342.35" y2="6812.9">
  </linearGradient>
  <linearGradient id="id82" gradientUnits="userSpaceOnUse" xlink:href="#id0" x1="5189.52" y1="2161.56" x2="5895.36" y2="2068.87">
  </linearGradient>
  <linearGradient id="id83" gradientUnits="userSpaceOnUse" xlink:href="#id0" x1="5434.09" y1="5401.53" x2="6156.11" y2="5299.6">
  </linearGradient>
  <linearGradient id="id84" gradientUnits="userSpaceOnUse" xlink:href="#id47" x1="1479.5" y1="3075.19" x2="2378.99" y2="2938.21">
  </linearGradient>
  <linearGradient id="id85" gradientUnits="userSpaceOnUse" xlink:href="#id69" x1="7628" y1="7658.78" x2="8603.86" y2="7509.46">
  </linearGradient>
  <linearGradient id="id86" gradientUnits="userSpaceOnUse" xlink:href="#id69" x1="1482.55" y1="8481.53" x2="2520.04" y2="8322.79">
  </linearGradient>
  <linearGradient id="id87" gradientUnits="userSpaceOnUse" xlink:href="#id40" x1="5377.27" y1="3790.51" x2="6122.06" y2="3670.66">
  </linearGradient>
  <linearGradient id="id88" gradientUnits="userSpaceOnUse" xlink:href="#id12" x1="1478.56" y1="4873.32" x2="2432.44" y2="4713.53">
  </linearGradient>
  <linearGradient id="id89" gradientUnits="userSpaceOnUse" xlink:href="#id12" x1="4876.27" y1="2623.44" x2="6215.09" y2="2399.17">
  </linearGradient>
  <linearGradient id="id90" gradientUnits="userSpaceOnUse" xlink:href="#id10" x1="1467.81" y1="4615.78" x2="3283.15" y2="4054.86">
  </linearGradient>
  <linearGradient id="id91" gradientUnits="userSpaceOnUse" xlink:href="#id80" x1="2413.15" y1="7010.87" x2="4280.29" y2="6431.42">
  </linearGradient>
  <linearGradient id="id92" gradientUnits="userSpaceOnUse" xlink:href="#id80" x1="8067.53" y1="3323.64" x2="7115.28" y2="3574.59">
  </linearGradient>
  <linearGradient id="id93" gradientUnits="userSpaceOnUse" xlink:href="#id80" x1="7731.14" y1="1540.49" x2="6784.52" y2="1972.28">
  </linearGradient>
  <linearGradient id="id94" gradientUnits="userSpaceOnUse" xlink:href="#id64" x1="7339.04" y1="6089.94" x2="8023.9" y2="5998.85">
  </linearGradient>
  <linearGradient id="id95" gradientUnits="userSpaceOnUse" xlink:href="#id47" x1="7111.6" y1="2816.57" x2="7958" y2="2687.68">
  </linearGradient>
  <linearGradient id="id96" gradientUnits="userSpaceOnUse" xlink:href="#id80" x1="1474.64" y1="5682.37" x2="2436.36" y2="5475.05">
  </linearGradient>
  <linearGradient id="id97" gradientUnits="userSpaceOnUse" xlink:href="#id80" x1="1478.63" y1="7511.54" x2="2432.37" y2="7293.21">
  </linearGradient>
  <linearGradient id="id98" gradientUnits="userSpaceOnUse" xlink:href="#id80" x1="8024.62" y1="4957.59" x2="7254.68" y2="5221.57">
  </linearGradient>
  <linearGradient id="id99" gradientUnits="userSpaceOnUse" xlink:href="#id12" x1="7263.26" y1="4501.59" x2="8064.44" y2="4367.39">
  </linearGradient>
  <linearGradient id="id100" gradientUnits="userSpaceOnUse" xlink:href="#id80" x1="1470.5" y1="3861.1" x2="2388" y2="3651.07">
  </linearGradient>
  <linearGradient id="id101" gradientUnits="userSpaceOnUse" xlink:href="#id80" x1="1473.84" y1="2094.86" x2="2322.34" y2="1824.89">
  </linearGradient>
 </defs>
 <g id="Layer_x0020_1">
  <metadata id="CorelCorpID_0Corel-Layer"/>
  <path class="fil0" d="M4842 10520l190 0 -96 -222 -94 222zm279 204l-365 0 -49 118c-2,5 -7,8 -12,8l-245 0c-10,0 -16,-10 -12,-19l501 -1048c5,-11 14,-11 19,0l500 1048c4,9 -2,19 -12,19l-260 0c-5,0 -10,-3 -12,-8l-52 -119zm-1330 -922c-7,0 -13,6 -13,13l0 1022c0,7 6,13 13,13l254 0c7,0 13,-6 13,-13l0 -351 368 0c7,0 13,-6 13,-13l0 -210c0,-7 -6,-13 -13,-13l-368 0 0 -213 438 0c5,0 10,-3 12,-8l100 -210c4,-9 -2,-19 -12,-19l-805 0zm-893 0c-7,0 -13,6 -13,13l0 1022c0,7 6,13 13,13l731 0c7,0 13,-6 13,-13l0 -209c0,-7 -6,-13 -13,-13l-463 0 0 -180 366 0c7,0 13,-6 13,-13l0 -197c0,-7 -6,-13 -13,-13l-366 0 0 -173 442 0c7,0 13,-6 13,-13l0 -210c0,-7 -6,-13 -13,-13l-709 0zm-1093 643c0,282 193,421 455,421 262,0 455,-139 455,-421l0 -630c0,-7 -6,-13 -13,-13l-254 0c-7,0 -13,6 -13,13l0 627c0,120 -56,188 -177,187 -96,-1 -172,-82 -172,-177l0 -636c0,-7 -6,-13 -13,-13l-254 0c-7,0 -13,6 -13,13l0 630z"/>
  <path class="fil0" d="M2827 12017l246 0 -124 -288 -122 288zm362 264l-474 0 -64 153c-3,6 -9,11 -16,11l-317 0c-13,0 -21,-13 -16,-25l650 -1359c6,-14 18,-14 24,0l648 1359c5,11 -3,25 -16,25l-337 0c-7,0 -13,-4 -16,-10l-67 -154zm-1052 188c22,18 28,12 28,-4l0 -1362c0,-9 -8,-17 -17,-17l-308 0c-10,0 -17,8 -17,17l0 664 -854 -704c-22,-18 -28,-8 -28,4l0 1360c0,9 8,17 17,17l308 0c9,0 17,-8 17,-17l0 -661 854 702zm5976 0c22,18 28,12 28,-4l0 -1362c0,-9 -8,-17 -17,-17l-308 0c-10,0 -17,8 -17,17l0 665 -854 -704c-22,-18 -28,-8 -28,4l0 1360c0,9 8,17 17,17l308 0c9,0 17,-8 17,-17l0 -661 854 702zm186 -239c-6,6 -7,17 -1,24 93,102 260,211 530,211 360,0 516,-180 516,-430 0,-192 -92,-322 -364,-412l-180 -60c-66,-22 -96,-48 -96,-100 0,-54 44,-94 132,-94 105,0 176,38 231,93 1,1 158,-157 202,-201 6,-6 7,-17 1,-24 -82,-89 -224,-168 -453,-168 -242,0 -464,138 -464,406 0,224 140,344 338,410l160 54c90,30 134,58 134,116 0,76 -64,108 -172,108 -128,0 -213,-65 -278,-141 -7,-8 -18,-8 -25,-1l-210 210zm-4448 198c0,9 8,17 17,17l330 0c9,0 17,-8 17,-17l0 -1037 343 0c9,0 17,-8 17,-17l0 -272c0,-9 -8,-17 -17,-17l-1192 0c-13,0 -21,13 -15,24l129 272c3,6 9,10 15,10l356 0 0 1037zm2525 -663c0,-214 -130,-380 -358,-380 -228,0 -358,166 -358,380 0,214 130,382 358,382 228,0 358,-168 358,-382zm-1088 0c0,-410 338,-696 730,-696 392,0 730,286 730,696 0,410 -338,698 -730,698 -392,0 -730,-288 -730,-698zm-525 -680c-9,0 -17,8 -17,17l0 1325c0,9 8,17 17,17l330 0c9,0 17,-8 17,-17l0 -1325c0,-9 -8,-17 -17,-17l-330 0z"/>
  <path class="fil0" d="M1306 1646c0,-22 -22,-36 -42,-27 -64,29 -190,96 -291,221 -20,25 -31,56 -31,89l0 8720c0,36 16,70 45,92l267 219c21,17 52,2 52,-25l0 -9288z"/>
  <path class="fil0" d="M3665 13617l246 0 -124 -288 -122 288zm362 264l-474 0 -64 153c-3,6 -9,11 -16,11l-317 0c-13,0 -21,-13 -16,-25l650 -1359c6,-14 18,-14 24,0l648 1359c5,11 -3,25 -15,25l-337 0c-7,0 -13,-4 -16,-10l-67 -154zm1378 -178c-58,28 -132,54 -264,54 -240,0 -364,-178 -364,-392 0,-214 122,-380 344,-380 128,0 221,51 288,131 7,8 18,9 26,1l213 -215c6,-6 7,-17 1,-24 -119,-132 -297,-210 -519,-210 -392,0 -724,286 -724,696 0,410 332,698 732,698 302,0 466,-84 592,-188l0 -571c0,-9 -8,-17 -17,-17l-559 0c-9,0 -17,8 -17,17l0 246c0,9 8,17 17,17l253 0 0 136zm1911 -1018c-9,0 -17,8 -17,17l0 1325c0,10 8,17 17,17l947 0c9,0 17,-8 17,-17l0 -271c0,-10 -8,-17 -17,-17l-601 0 0 -234 475 0c9,0 17,-8 17,-17l0 -256c0,-9 -8,-17 -17,-17l-475 0 0 -224 573 0c9,0 17,-8 17,-17l0 -272c0,-9 -8,-17 -17,-17l-919 0zm-1419 834c0,366 250,546 590,546 340,0 590,-180 590,-546l0 -817c0,-9 -8,-17 -17,-17l-330 0c-9,0 -17,8 -17,17l0 813c0,155 -73,243 -229,242 -124,-1 -222,-106 -222,-230l0 -825c0,-9 -8,-17 -17,-17l-330 0c-9,0 -17,8 -17,17l0 817zm-3828 -834c-9,0 -17,8 -17,17l0 1325c0,10 8,17 17,17l947 0c9,0 17,-8 17,-17l0 -271c0,-10 -8,-17 -17,-17l-601 0 0 -234 475 0c9,0 17,-8 17,-17l0 -256c0,-9 -8,-17 -17,-17l-475 0 0 -224 573 0c9,0 17,-8 17,-17l0 -272c0,-9 -8,-17 -17,-17l-919 0zm-1110 0c-9,0 -17,8 -17,17l0 1325c0,10 8,17 17,17l907 0c9,0 17,-8 17,-17l0 -271c0,-10 -8,-17 -17,-17l-561 0 0 -1036c0,-9 -8,-17 -17,-17l-330 0z"/>
  <path class="fil0" d="M8374 12729l0 -36c0,-2 2,-4 4,-4l187 0c2,0 4,2 4,4l0 36c0,2 -2,4 -4,4l-66 0 0 207c0,2 -2,4 -4,4l-43 0c-2,0 -4,-2 -4,-4l0 -207 -68 0c-2,0 -4,-2 -4,-4z"/>
  <path class="fil0" d="M8619 12685l5 0 120 130c3,3 7,3 9,0l120 -130 5 0 0 254c0,4 -3,6 -6,6l-38 0c-3,0 -6,-3 -6,-6l0 -144 -74 85c-3,3 -7,3 -10,0l-73 -85 0 144c0,4 -3,6 -6,6l-39 0c-4,0 -6,-3 -6,-6l0 -254z"/>
  <path class="fil1" d="M2371 3176l-6 -25c136,-215 265,-434 391,-647 134,-226 261,-441 389,-641l43 -32 44 7c297,195 587,420 863,671l0 26 -43 19c-396,17 -884,257 -1358,487 -93,45 -189,92 -282,136l-40 -2z"/>
  <path class="fil2" d="M6755 3390c-307,0 -644,-80 -1028,-245l-51 -42 3 -28c195,-174 343,-312 495,-484l37 -14 47 21c251,254 533,484 862,703l6 27 -39 28c-106,23 -218,35 -332,35 0,0 0,0 0,0z"/>
  <path class="fil3" d="M7194 4609c-111,0 -208,-47 -273,-134 -58,-77 -93,-165 -102,-258l17 -18 18 -18c31,1 60,2 90,2 238,0 461,-41 681,-125l19 12 19 12c1,110 -38,222 -114,327 -83,124 -216,199 -354,199 0,0 0,0 0,0z"/>
  <path class="fil4" d="M6836 4200l-17 18c-106,-6 -191,-12 -300,-28l-45 -25 1 -27c220,-222 420,-478 612,-783l39 -28 46 8c279,183 564,352 869,513l16 30 -61 58c-97,55 -214,100 -334,147l-19 -12 -19 -12c-9,-129 -77,-240 -194,-316 -48,-31 -107,-47 -169,-47 -124,0 -238,62 -314,171 -64,93 -97,204 -94,316l-18 18z"/>
  <path class="fil5" d="M6771 5070c-301,0 -579,-83 -946,-280l-51 -48 6 -27c222,-162 438,-323 656,-537l39 -13 45 25c260,303 505,551 748,764l1 28 -46 29c-162,39 -310,59 -451,59 0,0 0,0 0,0z"/>
  <path class="fil6" d="M6435 4178c-92,-16 -192,-40 -297,-71l-21 -26 -22 -26c-15,-90 -57,-188 -118,-279 -125,-186 -277,-301 -398,-301 -40,0 -75,13 -106,38 -55,46 -75,143 -54,266l-17 12 -16 13c-99,-49 -194,-100 -278,-150l-63 -56 4 -26c222,-163 408,-303 592,-464l34 -5 51 42c258,378 504,704 748,993l-1 27 -39 13z"/>
  <path class="fil7" d="M5928 4396c-136,0 -310,-127 -432,-316 -51,-80 -91,-179 -109,-276l16 -13 17 -12c166,82 413,193 675,276l22 26 21 26c6,116 -34,209 -113,261 -28,18 -60,28 -97,28 0,0 0,0 0,0z"/>
  <path class="fil8" d="M1501 4298c325,-303 569,-681 822,-1080l48 -42 40 2c246,137 522,278 845,433l7 23 -57 58c-118,74 -234,141 -346,201l-18 -11 -19 -11c2,-128 -48,-224 -142,-270 -33,-16 -69,-24 -107,-24 -131,0 -341,111 -513,358 -58,84 -96,184 -109,286l-21 25 -20 24c-129,33 -245,61 -385,80l-41 -14 14 -38z"/>
  <path class="fil9" d="M2424 5036l-5 -25c251,-354 435,-688 598,-982 66,-119 128,-232 190,-337l57 -58 38 -2c434,209 715,375 958,567l0 25 -56 27c-410,71 -812,296 -1169,495 -201,112 -391,218 -570,292l-42 -3z"/>
  <path class="fil10" d="M2424 6898l-5 -25c336,-438 586,-889 823,-1327l53 -60 38 -4c332,146 646,321 934,521l2 26 -52 31c-286,76 -565,238 -860,409 -283,164 -575,332 -890,432l-44 -4z"/>
  <path class="fil11" d="M4204 5639c-120,0 -229,-37 -316,-107 -85,-68 -134,-176 -137,-300l19 -29 20 -29c227,-97 451,-146 665,-146 74,0 148,6 221,18l23 23 22 23c17,149 -33,293 -139,400 -92,92 -233,147 -378,147l0 0z"/>
  <path class="fil12" d="M3288 5464c261,-479 554,-866 917,-1212l56 -27 46 13c296,244 550,545 816,967l-4 28 -34 3c-111,-57 -234,-118 -365,-145l-22 -23 -23 -23c-17,-87 -48,-161 -92,-221 -72,-98 -174,-152 -289,-152 -124,0 -253,63 -353,172 -88,95 -141,211 -152,330l-20 29 -19 29c-128,59 -269,150 -417,251l-38 4 -8 -24z"/>
  <path class="fil13" d="M5973 6070c-125,0 -294,-140 -421,-350 -58,-95 -98,-200 -114,-295l17 -12 17 -12c202,107 421,215 660,294l21 26 19 25c3,136 -40,249 -115,299 -24,16 -52,24 -83,24z"/>
  <path class="fil14" d="M2419 6874c-341,-204 -626,-438 -892,-736l-39 -17 0 892 15 21c51,7 107,11 168,11 0,0 0,0 0,0 198,0 440,-40 705,-114l49 -33 -5 -25z"/>
  <path class="fil15" d="M5833 6389c-293,-167 -682,-385 -1163,-385 -116,0 -236,12 -356,36l-44 -9 -2 -26c226,-253 494,-504 818,-768l34 -3 50 47c255,406 475,756 701,1083l-4 26 -33 1z"/>
  <path class="fil16" d="M7949 5499l-39 42c-159,346 -352,695 -561,1013l5 27 42 8c187,-49 406,-134 609,-239l10 -26c-53,-294 -68,-575 -65,-826z"/>
  <path class="fil17" d="M6834 6664c-320,0 -627,-77 -911,-225l-57 -50 4 -26c229,-166 425,-351 621,-542l39 -13 42 22c245,284 500,521 776,724l5 27 -39 27c-162,36 -323,55 -480,55 0,0 0,0 0,0z"/>
  <path class="fil18" d="M2398 8350c-91,0 -181,-28 -259,-81 -102,-69 -171,-186 -187,-316l17 -19 17 -20c316,-23 627,-103 922,-240l20 11 19 11c4,117 -34,245 -110,371 -110,182 -266,282 -438,282 0,0 0,0 0,0z"/>
  <path class="fil19" d="M5993 3766c-163,-243 -389,-386 -531,-267 -68,58 -81,172 -59,292 216,107 468,214 714,290 -11,-100 -55,-211 -125,-315z"/>
  <path class="fil20" d="M6150 7646c-122,0 -309,-97 -428,-281 -68,-105 -117,-221 -140,-327l17 -13 17 -13c121,49 227,99 329,148 119,56 232,110 348,152l23 28 21 27c5,114 -34,214 -102,259 -23,15 -52,22 -86,22 0,0 0,0 0,0z"/>
  <path class="fil21" d="M7245 6205c-83,0 -164,-29 -228,-81 -87,-71 -136,-167 -142,-279l18 -19 19 -19c238,-13 472,-68 714,-169l20 12 20 12c5,115 -29,241 -93,346 -76,126 -196,198 -328,198 0,0 0,0 0,0z"/>
  <path class="fil22" d="M5740 4744c-44,-25 -89,-51 -136,-78 -333,-193 -747,-433 -1184,-433 -38,0 -76,2 -113,6l-46 -13 0 -25c250,-231 506,-419 752,-599l35 -2 63 56c165,235 323,493 489,765 59,97 120,196 181,296l-6 27 -34 2z"/>
  <path class="fil23" d="M5119 5233c-136,-71 -273,-138 -420,-165 25,153 -22,301 -130,410 -157,158 -466,202 -669,39 -89,-71 -134,-187 -130,-314 -149,66 -313,172 -473,284 365,158 689,343 974,544 219,-246 494,-510 849,-798z"/>
  <path class="fil24" d="M1504 6082c373,-333 627,-666 869,-1006l51 -39 42 3c281,165 571,314 822,424l8 24 -53 60c-127,88 -243,166 -359,228l-19 -11 -19 -11c-5,-109 -49,-189 -132,-239 -50,-30 -105,-45 -164,-45 -146,0 -309,94 -446,259 -78,93 -129,212 -142,329l-21 23 -19 22c-131,21 -248,30 -395,37l-39 -17 17 -40z"/>
  <path class="fil25" d="M1577 5251c-25,0 -49,-1 -73,-2l-17 -20 0 -892 41 14c234,223 555,462 890,662l5 25 -51 39c-307,116 -575,175 -796,175 0,0 0,0 0,0z"/>
  <path class="fil26" d="M6470 2609c-69,0 -141,-5 -212,-11l-47 -21 -4 -32c170,-196 365,-446 549,-816l40 -28 43 8c224,153 572,329 858,433l22 28 -46 59c-90,68 -187,128 -288,178l-20 -11 -21 -11c-26,-125 -107,-225 -229,-283 -44,-21 -91,-32 -138,-32 -136,0 -267,91 -334,231 -41,87 -56,179 -43,267l-16 19 -15 19c-33,1 -67,2 -100,2z"/>
  <path class="fil27" d="M6669 7427c-115,-9 -215,-25 -331,-62l-21 -27 -23 -28c-12,-72 -45,-172 -131,-282 -137,-175 -289,-279 -405,-279 -40,0 -75,12 -103,37 -43,38 -57,119 -38,225l-17 13 -17 13c-104,-42 -195,-75 -298,-105l-54 -33 0 -26c208,-193 411,-345 602,-483l33 -1 57 50c265,376 521,686 784,948l2 26 -39 14z"/>
  <path class="fil28" d="M6808 5846c-78,0 -156,-6 -235,-16l-42 -22 1 -27c236,-232 461,-483 690,-770l46 -29 39 9c194,167 399,322 626,475l16 33 -39 42c-81,44 -163,85 -243,119l-20 -12 -20 -12c-8,-88 -42,-161 -94,-207 -55,-48 -121,-73 -192,-73 -114,0 -233,66 -325,180 -63,78 -100,175 -103,270l-19 19 -18 19c-22,1 -45,1 -68,1 0,0 0,0 0,0z"/>
  <path class="fil29" d="M8057 3878l-61 58c-289,429 -521,753 -729,1018l1 28 39 9c231,-63 480,-164 681,-276l24 -35c36,-257 49,-523 46,-802z"/>
  <path class="fil30" d="M2220 4648c-67,0 -128,-20 -183,-60 -83,-61 -129,-179 -124,-318l20 -24 21 -25c284,-89 573,-191 870,-350l19 11 18 11c-6,115 -50,243 -127,371 -144,240 -337,383 -514,383 0,0 0,0 0,0z"/>
  <path class="fil31" d="M4203 3884c-140,0 -276,-51 -374,-141 -92,-84 -142,-192 -144,-313l19 -27 21 -27c156,-51 306,-76 458,-76 141,0 279,21 423,65l23 27 21 27c7,129 -35,251 -118,339 -76,80 -196,126 -330,126 0,0 0,0 0,0z"/>
  <path class="fil32" d="M1487 3444l0 -892 41 12c228,204 516,407 837,588l6 25 -48 42c-333,151 -627,239 -819,244l-17 -18z"/>
  <path class="fil33" d="M6531 5808l-39 13c-106,-17 -210,-41 -320,-75l-19 -25 -21 -26c-10,-91 -40,-181 -88,-262 -140,-239 -297,-324 -389,-324 -47,0 -89,19 -127,55 -50,49 -70,132 -56,237l-17 12 -17 12c-49,-26 -97,-52 -144,-77 -43,-23 -83,-46 -124,-68l-50 -47 4 -28c192,-155 372,-284 546,-410 24,-17 47,-35 71,-52l34 -2 51 48c182,291 420,652 707,991l-1 27z"/>
  <path class="fil34" d="M3383 7411l-8 -25c220,-438 438,-859 843,-1324l52 -31 44 9c335,239 644,519 917,832l0 26 -35 8c-112,-28 -244,-43 -391,-48l-20 -19 -21 -19c-14,-98 -59,-192 -130,-255 -73,-64 -154,-97 -240,-97 -154,0 -315,109 -430,293 -62,99 -108,210 -117,308l-20 32 -18 32c-138,77 -265,181 -391,274l-34 5z"/>
  <path class="fil35" d="M5643 3108c-109,-49 -220,-104 -329,-157 -381,-188 -775,-383 -1173,-397l-46 -18 0 -26c241,-243 537,-449 749,-588l37 -2 70 62c200,270 375,542 530,785 71,111 138,217 199,307l-3 28 -34 5z"/>
  <path class="fil36" d="M7719 2169l-46 59c-191,427 -372,779 -553,1073l6 27 46 8c250,-63 530,-148 765,-286l12 -29c0,0 0,0 0,0 -81,-353 -182,-635 -230,-852z"/>
  <path class="fil37" d="M2199 2778c-72,0 -139,-22 -198,-66 -67,-49 -105,-141 -106,-255l19 -26 20 -27c209,-79 384,-178 554,-273 91,-51 185,-104 282,-153l20 11 19 11c7,128 -31,275 -105,407 -130,229 -323,371 -504,371l0 0z"/>
  <path class="fil38" d="M7508 7770c-90,0 -175,-26 -245,-76 -98,-69 -160,-164 -179,-273l16 -21 17 -21c272,-35 520,-111 728,-183l24 11 23 12c33,125 15,263 -50,375 -63,108 -191,176 -333,176l0 0z"/>
  <path class="fil39" d="M3264 3634l-7 -23c260,-425 520,-771 795,-1057l43 -19 46 18c345,320 643,652 910,1018l-4 26 -35 2c-132,-78 -235,-138 -361,-180l-21 -27 -23 -27c-16,-89 -58,-173 -122,-245 -100,-112 -222,-174 -343,-174 -109,0 -211,48 -291,140 -72,83 -115,188 -126,289l-21 27 -19 27c-134,49 -244,115 -383,202l-38 2z"/>
  <path class="fil40" d="M6819 7433c-22,0 -44,-1 -66,-1l-46 -18 -2 -26c209,-225 413,-485 608,-778l39 -27 42 8c252,181 526,334 814,458l30 33 -29 28c-68,21 -134,46 -215,74 -33,12 -68,24 -104,36l-23 -12 -24 -11c-31,-87 -87,-155 -164,-198 -67,-38 -135,-57 -203,-57 -117,0 -222,58 -291,160 -53,80 -80,182 -71,279l-17 21 -16 21c-93,10 -177,12 -264,12l0 0z"/>
  <path class="fil41" d="M6996 2969c-89,0 -180,-37 -270,-111 -80,-66 -134,-153 -156,-252l15 -19 16 -19c268,-15 518,-77 744,-184l21 11 20 11c12,85 0,175 -34,262 -76,192 -206,302 -355,302l0 0z"/>
  <path class="fil42" d="M7545 5416c-155,-135 -382,-92 -544,109 -68,85 -109,194 -107,301 234,-10 484,-64 753,-177 -6,-95 -40,-179 -102,-233z"/>
  <path class="fil43" d="M6046 6030c-124,82 -335,-84 -478,-319 -58,-95 -99,-201 -113,-298 -115,-61 -227,-122 -336,-179 268,427 506,809 747,1156 239,-172 440,-361 665,-581 -131,-18 -257,-49 -379,-88 9,139 -31,259 -106,309z"/>
  <path class="fil44" d="M3836 3074c-80,92 -128,211 -132,329 323,-111 623,-108 925,-11 -11,-98 -53,-198 -130,-285 -199,-223 -478,-247 -663,-33z"/>
  <path class="fil45" d="M4234 7498c-64,0 -127,-14 -189,-43 -140,-64 -229,-178 -237,-322l18 -32 20 -32c311,-167 617,-247 917,-249l21 19 20 19c8,133 -35,267 -121,378 -130,168 -290,261 -450,261 0,0 0,0 0,0z"/>
  <path class="fil46" d="M7690 6980c-201,-114 -408,-56 -518,109 -53,79 -88,195 -73,310 289,-35 548,-116 769,-193 -29,-93 -88,-175 -178,-226z"/>
  <path class="fil47" d="M7638 8064c-72,-35 -477,-240 -885,-633l-46 -18 -39 14c-223,234 -431,414 -658,559l-7 28c457,252 985,283 1637,74l-3 -24z"/>
  <path class="fil48" d="M4452 7848c-155,-72 -320,-143 -494,-219 -177,-77 -359,-138 -541,-222l-34 5 -51 62c-14,29 -28,57 -43,86 -192,389 -391,774 -777,1196l3 25c904,-184 1197,-575 1944,-907l-7 -25z"/>
  <path class="fil49" d="M1790 7945c-85,0 -170,-6 -256,-16l-46 -23 14 -35c380,-312 625,-618 874,-940l49 -33 44 4c250,146 531,309 907,484l8 25 -51 62c-115,79 -248,159 -385,223l-19 -11 -20 -11c-11,-123 -74,-221 -175,-271 -58,-29 -122,-43 -190,-43 -179,0 -364,103 -472,262 -61,90 -91,191 -86,293l-17 20 -17 19c-57,3 -110,-8 -162,-8l0 0z"/>
  <path class="fil50" d="M3264 3634c-145,93 -284,175 -421,248 -4,111 -45,240 -125,373 -197,328 -478,459 -670,317 -88,-65 -126,-191 -115,-327 -160,42 -284,71 -446,90 213,209 542,467 936,700 383,-538 615,-1033 840,-1402z"/>
  <path class="fil51" d="M4843 1922c-99,-51 -212,-97 -363,-141l-24 -27 -26 -26c-23,-85 -69,-172 -128,-241 -98,-113 -218,-178 -329,-178 -84,0 -162,35 -233,105 -69,69 -109,177 -108,291l-18 22 -17 22c-115,21 -228,49 -366,88l-44 -7 -5 -25c267,-408 512,-684 747,-843l47 -8 64 26c244,197 541,518 844,913l-4 25 -37 2z"/>
  <path class="fil52" d="M7533 4399c-150,225 -452,257 -597,65 -59,-77 -94,-170 -100,-264 -132,-6 -237,-16 -362,-35 260,306 518,577 794,817 241,-305 496,-667 789,-1104 -136,86 -289,144 -414,193 4,105 -31,219 -110,328z"/>
  <path class="fil53" d="M5285 6932l-54 -33 -35 8c-298,282 -541,590 -744,941l7 25c668,-298 1269,-11 1545,141l7 -28c-192,-379 -448,-727 -726,-1054z"/>
  <path class="fil54" d="M2286 6488c-93,0 -179,-31 -249,-89 -77,-65 -119,-172 -116,-298l19 -22 21 -23c309,-55 598,-154 884,-304l19 11 19 11c-1,135 -57,295 -156,442 -115,172 -276,271 -442,271 0,0 0,0 0,0z"/>
  <path class="fil55" d="M3927 4832c-103,113 -154,247 -158,371 335,-149 644,-186 929,-135 -14,-83 -42,-174 -100,-254 -168,-229 -469,-202 -671,18z"/>
  <path class="fil56" d="M8240 7080l-29 28c-120,333 -351,719 -572,956l3 24c587,-189 953,-215 953,-215 0,0 -172,-375 -354,-793z"/>
  <path class="fil57" d="M2512 8756c-342,-232 -662,-494 -979,-827l-46 -23 0 845c0,0 449,147 1028,29l-3 -25z"/>
  <path class="fil7" d="M2741 7386c-238,-118 -538,7 -685,225 -71,105 -97,218 -88,323 366,-24 692,-124 959,-248 -8,-137 -76,-244 -186,-299z"/>
  <path class="fil58" d="M2927 7685c6,110 -26,238 -107,373 -189,313 -479,326 -671,195 -102,-69 -169,-187 -180,-320 -158,10 -306,-4 -481,-27 294,312 625,602 1028,874 449,-487 651,-936 868,-1369 -121,90 -282,192 -456,274z"/>
  <path class="fil59" d="M7825 7584c-102,175 -370,221 -551,94 -110,-77 -161,-178 -174,-279 -130,16 -253,21 -391,13 466,461 933,675 933,675 219,-230 471,-635 599,-1007 -108,31 -225,76 -371,126 38,123 23,264 -43,378z"/>
  <path class="fil60" d="M2723 5498c-191,-114 -438,-17 -634,218 -90,107 -141,240 -148,364 309,-52 609,-149 924,-315 -2,-111 -43,-207 -142,-266z"/>
  <path class="fil61" d="M4122 2201c-122,0 -252,-48 -357,-132 -96,-78 -155,-190 -167,-319l17 -22 18 -22c133,-22 253,-33 369,-33 149,0 289,18 429,56l26 27 24 27c18,125 -14,236 -92,316 -67,68 -159,104 -266,104l0 0z"/>
  <path class="fil62" d="M4646 6552c-229,-201 -518,-87 -698,200 -74,118 -119,244 -121,349 314,-173 632,-268 958,-262 -10,-104 -54,-212 -139,-288z"/>
  <path class="fil63" d="M6059 5423c-132,-226 -371,-442 -545,-273 -60,58 -76,155 -60,262 218,115 449,229 698,308 -6,-96 -36,-200 -93,-298z"/>
  <path class="fil64" d="M6317 7337c13,127 -27,228 -91,270 -98,64 -346,-34 -488,-253 -70,-109 -119,-227 -139,-331 -113,-46 -227,-86 -368,-125 347,399 609,788 773,1116 255,-160 479,-361 704,-601 -149,-8 -268,-33 -391,-75z"/>
  <path class="fil65" d="M2371 3176c320,179 645,340 892,458 263,-431 532,-794 831,-1099 -495,1 -1141,368 -1723,641z"/>
  <path class="fil66" d="M5774 4742c222,357 465,723 757,1066 236,-231 477,-496 737,-826 -563,146 -954,60 -1494,-240z"/>
  <path class="fil67" d="M7949 3020c0,0 0,0 0,0 -254,155 -565,243 -823,307 289,192 595,374 931,550 -4,-327 -52,-613 -108,-857 0,0 0,0 0,0z"/>
  <path class="fil68" d="M8240 7080c-110,-253 -181,-509 -226,-755 -191,99 -434,202 -660,257 260,190 552,359 886,499z"/>
  <path class="fil69" d="M7949 5499c3,-343 36,-629 63,-819 -236,137 -521,244 -744,302 216,188 441,357 681,517z"/>
  <path class="fil70" d="M5676 3103c272,402 534,752 798,1062 215,-215 429,-477 652,-838 -441,109 -930,7 -1450,-225z"/>
  <path class="fil71" d="M5046 3598c-146,-88 -270,-158 -417,-205 15,133 -26,263 -111,353 -148,156 -475,168 -676,-16 -101,-93 -142,-210 -138,-326 -151,52 -282,129 -441,231 399,191 717,367 997,590 262,-244 528,-437 786,-627z"/>
  <path class="fil72" d="M2424 6898c352,-457 605,-919 872,-1411 -149,104 -291,202 -431,276 2,141 -60,305 -152,443 -195,292 -489,324 -663,178 -82,-68 -117,-182 -109,-305 -155,26 -289,35 -454,42 258,294 555,551 936,777z"/>
  <path class="fil73" d="M1502 2511c227,-228 535,-697 758,-1093l49 -49 37 -5c276,114 557,263 837,443l5 25 -43 32c-111,35 -219,79 -337,137l-19 -11 -20 -11c-10,-92 -47,-159 -104,-191 -40,-22 -86,-33 -136,-33 -167,0 -348,118 -473,309 -71,108 -114,228 -124,341l-20 27 -19 26c-115,42 -220,79 -366,106l-41 -12 15 -41z"/>
  <path class="fil74" d="M6015 4353c-124,82 -353,-50 -503,-283 -51,-79 -91,-181 -109,-278 -137,-68 -260,-135 -357,-194 247,340 474,737 728,1144 243,-176 472,-349 700,-577 -114,-18 -235,-47 -356,-84 13,115 -18,216 -103,272z"/>
  <path class="fil75" d="M6175 2591c-85,-11 -164,-45 -256,-77l-26 -29 -28 -31c-30,-98 -86,-206 -161,-309 -104,-144 -256,-299 -372,-299 -30,0 -56,11 -78,32 -38,37 -39,129 -2,247l-16 12 -16 13c-55,-35 -227,-141 -271,-169l-70 -62 4 -25c42,-27 84,-56 125,-84 114,-78 223,-158 352,-225l45 -2 59 35c162,174 313,368 439,541 106,146 207,283 303,385l4 32 -37 14z"/>
  <path class="fil76" d="M7557 5997c-136,225 -383,232 -528,112 -93,-77 -134,-179 -135,-284 -125,6 -246,-1 -363,-18 236,278 505,541 823,774 238,-362 439,-737 595,-1083 -103,58 -204,108 -302,149 8,112 -23,239 -89,349z"/>
  <path class="fil77" d="M5794 2783c-128,0 -308,-180 -430,-359 -68,-100 -116,-192 -144,-273l16 -13 16 -12c204,127 404,248 613,329l28 31 26 29c18,93 8,168 -29,220 -23,32 -56,49 -95,49 0,0 0,0 0,0z"/>
  <path class="fil78" d="M6177 7016c-205,-261 -419,-347 -535,-245 -53,46 -64,141 -42,253 282,115 490,236 717,314 -10,-97 -52,-210 -140,-321z"/>
  <path class="fil79" d="M7643 4071c-5,-138 -77,-262 -203,-344 -142,-92 -375,-63 -508,128 -71,102 -104,225 -96,345 248,12 513,-14 808,-129z"/>
  <path class="fil80" d="M2424 6898c-366,109 -703,154 -936,115l0 893c419,-340 681,-677 936,-1008z"/>
  <path class="fil81" d="M2371 3176c-316,148 -660,267 -884,268l0 892c354,-322 613,-733 884,-1160z"/>
  <path class="fil82" d="M2424 5036c-415,164 -719,210 -936,192l0 892c415,-365 687,-734 936,-1085z"/>
  <path class="fil83" d="M2424 6898c305,181 634,362 959,513 213,-424 440,-878 887,-1380 -600,134 -1171,667 -1846,867z"/>
  <path class="fil84" d="M4261 4224c-674,93 -1307,603 -1837,812 296,175 605,335 872,451 306,-564 632,-954 965,-1263z"/>
  <path class="fil85" d="M5866 6389c262,376 536,721 842,1024 236,-252 453,-537 646,-831 -462,111 -981,94 -1488,-193z"/>
  <path class="fil86" d="M4261 4224c311,249 575,556 858,1009 234,-190 449,-342 655,-491 -394,-219 -938,-597 -1513,-517z"/>
  <path class="fil87" d="M5046 3598c216,-159 427,-315 630,-495 -506,-225 -1038,-569 -1581,-567 343,314 663,664 952,1062z"/>
  <path class="fil88" d="M4270 6031c386,271 702,570 961,867 219,-205 437,-368 635,-510 -380,-215 -872,-519 -1596,-358z"/>
  <path class="fil89" d="M5231 6898c-149,-42 -308,-56 -446,-59 14,141 -30,275 -116,386 -169,218 -391,316 -616,213 -135,-62 -230,-175 -226,-337 -146,81 -291,197 -443,310 373,173 751,310 1076,462 236,-414 505,-726 772,-975z"/>
  <path class="fil90" d="M2690 3585c-215,-105 -495,127 -643,340 -67,97 -106,212 -114,321 296,-77 594,-194 910,-363 5,-138 -48,-246 -153,-298z"/>
  <path class="fil91" d="M7123 2084c-196,-92 -406,17 -496,209 -46,97 -59,200 -42,294 271,-13 536,-75 780,-193 -22,-130 -103,-244 -242,-310z"/>
  <path class="fil92" d="M4457 1754c-21,-103 -74,-203 -140,-280 -156,-181 -393,-270 -590,-74 -78,78 -119,201 -112,327 309,-54 575,-50 842,27z"/>
  <path class="fil93" d="M5719 2135c-143,-199 -355,-389 -479,-269 -48,47 -43,154 -4,272 211,132 429,264 656,347 -28,-110 -90,-235 -173,-350z"/>
  <path class="fil94" d="M2675 1771c-177,-98 -455,10 -634,282 -82,125 -124,261 -128,378 342,-125 588,-299 876,-442 -8,-100 -47,-181 -114,-218z"/>
  <path class="fil95" d="M6211 2577c-111,-11 -211,-52 -319,-91 24,97 21,182 -19,238 -96,133 -336,-78 -494,-309 -59,-86 -114,-183 -144,-275 -137,-86 -226,-148 -356,-218 327,429 594,884 796,1183 202,-179 365,-332 535,-526z"/>
  <path class="fil96" d="M4880 1920c-136,-74 -291,-128 -423,-166 24,118 6,239 -82,329 -147,150 -413,120 -598,-29 -105,-85 -155,-206 -162,-326 -138,24 -271,59 -427,104 305,197 611,433 907,704 228,-233 508,-435 785,-615z"/>
  <path class="fil97" d="M7126 3327c189,-306 384,-684 594,-1159 -112,91 -230,166 -354,226 15,85 4,177 -31,266 -116,294 -353,383 -596,184 -83,-68 -135,-158 -153,-257 -124,6 -249,2 -374,-11 275,283 578,528 915,751z"/>
  <path class="fil98" d="M3188 1832c-148,43 -277,97 -399,158 10,121 -24,271 -102,409 -180,316 -470,451 -675,299 -69,-51 -103,-150 -99,-267 -136,50 -250,91 -425,120 226,207 531,427 884,625 293,-461 553,-939 817,-1344z"/>
  <path class="fil99" d="M2309 1368c281,114 579,269 879,463 246,-378 510,-702 789,-877 -525,-78 -1047,10 -1668,414z"/>
  <path class="fil100" d="M7609 1344c0,0 -426,249 -813,357 221,158 605,356 923,468 -102,-461 -110,-825 -110,-825z"/>
  <path class="fil101" d="M5406 1584c328,336 580,760 805,993 213,-245 405,-504 585,-876 -386,108 -849,83 -1390,-117z"/>
  <path class="fil102" d="M4880 1920c170,-111 330,-240 526,-336 -547,-202 -895,-550 -1429,-629 279,211 612,583 903,965z"/>
  <path class="fil103" d="M2309 1368c-411,267 -822,290 -822,290l0 892c258,-242 609,-797 822,-1183z"/>
 </g>
</svg>
