<?xml version="1.0" encoding="UTF-8" standalone="no"?>
<!-- Created with Inkscape (http://www.inkscape.org/) -->

<svg
   xmlns:dc="http://purl.org/dc/elements/1.1/"
   xmlns:cc="http://creativecommons.org/ns#"
   xmlns:rdf="http://www.w3.org/1999/02/22-rdf-syntax-ns#"
   xmlns:svg="http://www.w3.org/2000/svg"
   xmlns="http://www.w3.org/2000/svg"
   xmlns:xlink="http://www.w3.org/1999/xlink"
   xmlns:sodipodi="http://sodipodi.sourceforge.net/DTD/sodipodi-0.dtd"
   xmlns:inkscape="http://www.inkscape.org/namespaces/inkscape"
   width="534"
   height="738"
   id="svg2"
   sodipodi:version="0.32"
   inkscape:version="0.48.2 r9819"
   sodipodi:docname="1997-BRA-AUS_1997-FIN-CC.svg"
   version="1.0"
   inkscape:output_extension="org.inkscape.output.svg.inkscape">
  <defs
     id="defs4">
    <inkscape:perspective
       sodipodi:type="inkscape:persp3d"
       inkscape:vp_x="0 : 369 : 1"
       inkscape:vp_y="0 : 1000 : 0"
       inkscape:vp_z="534 : 369 : 1"
       inkscape:persp3d-origin="267 : 246 : 1"
       id="perspective2523" />
    <linearGradient
       id="linearGradient3076">
      <stop
         style="stop-color: rgb(255, 10, 10); stop-opacity: 1;"
         offset="0"
         id="stop3078" />
      <stop
         id="stop3084"
         offset="0.33000001"
         style="stop-color: rgb(255, 10, 10); stop-opacity: 1;" />
      <stop
         style="stop-color: rgb(255, 255, 255); stop-opacity: 1;"
         offset="0.33000001"
         id="stop3086" />
      <stop
         id="stop3088"
         offset="0.66000003"
         style="stop-color: rgb(255, 255, 255); stop-opacity: 1;" />
      <stop
         style="stop-color: rgb(255, 255, 0); stop-opacity: 1;"
         offset="0.66000003"
         id="stop3090" />
      <stop
         style="stop-color: rgb(255, 255, 0); stop-opacity: 1;"
         offset="1"
         id="stop3080" />
    </linearGradient>
    <linearGradient
       inkscape:collect="always"
       xlink:href="#linearGradient3076"
       id="linearGradient3136"
       gradientUnits="userSpaceOnUse"
       x1="24.566006"
       y1="168.72964"
       x2="42.667271"
       y2="168.72964"
       gradientTransform="translate(0, 1.13128)" />
  </defs>
  <sodipodi:namedview
     id="base"
     pagecolor="#ffffff"
     bordercolor="#666666"
     borderopacity="1.0"
     inkscape:pageopacity="0.0"
     inkscape:pageshadow="2"
     inkscape:zoom="1.4142136"
     inkscape:cx="326.40721"
     inkscape:cy="252.20779"
     inkscape:document-units="px"
     inkscape:current-layer="layer2"
     inkscape:window-width="1600"
     inkscape:window-height="838"
     inkscape:window-x="-8"
     inkscape:window-y="-8"
     inkscape:guide-points="true"
     showgrid="true"
     inkscape:object-nodes="true"
     inkscape:object-paths="true"
     inkscape:window-maximized="1">
    <inkscape:grid
       type="xygrid"
       id="grid2525"
       visible="true"
       enabled="true"
       spacingx="1px"
       spacingy="1px"
       empspacing="1" />
  </sodipodi:namedview>
  <metadata
     id="metadata7">
    <rdf:RDF>
      <cc:Work
         rdf:about="">
        <dc:format>image/svg+xml</dc:format>
        <dc:type
           rdf:resource="http://purl.org/dc/dcmitype/StillImage" />
        <dc:title />
      </cc:Work>
      <cc:Work
         rdf:about="">
        <dc:format>image/svg+xml</dc:format>
        <dc:type
           rdf:resource="http://purl.org/dc/dcmitype/StillImage" />
      </cc:Work>
    </rdf:RDF>
  </metadata>
  <g
     inkscape:label="Layer 1"
     inkscape:groupmode="layer"
     id="layer1"
     style="fill-opacity:0.5;display:inline"
     sodipodi:insensitive="true">
    <rect
       style="fill:#009d00;fill-rule:evenodd;stroke:none"
       id="rect1317"
       width="737.99988"
       height="533.99994"
       x="-742.5"
       y="0.50003511"
       rx="2.5634737"
       ry="2.5538738"
       transform="matrix(0,-1,1,0,0,0)" />
    <g
       id="g4041"
       style="stroke:#ffffff;stroke-width:1.5;stroke-miterlimit:4;stroke-opacity:0.629214;stroke-dasharray:none"
       transform="matrix(0,-1.50916,1.50634,0,-115.601,876.119)">
      <path
         id="path2194"
         d="m 118.19246,416.99231 0,-326.566444 434.51101,0.683193 0.68319,325.883251 -435.1942,0 z"
         style="fill:none;stroke:#ffffff;stroke-width:1.5;stroke-linecap:butt;stroke-linejoin:miter;stroke-miterlimit:4;stroke-opacity:0.629214;stroke-dasharray:none"
         inkscape:connector-curvature="0" />
      <path
         transform="matrix(0.952617,0,0,0.916433,15.5853,21.6003)"
         d="m 370.97403,254.39229 a 34.842865,35.526058 0 1 1 -69.68573,0 34.842865,35.526058 0 1 1 69.68573,0 z"
         sodipodi:ry="35.526058"
         sodipodi:rx="34.842865"
         sodipodi:cy="254.39229"
         sodipodi:cx="336.13116"
         id="path2212"
         style="fill:none;stroke:#ffffff;stroke-width:1.60538995;stroke-linecap:butt;stroke-linejoin:round;stroke-miterlimit:4;stroke-opacity:0.629214;stroke-dasharray:none;stroke-dashoffset:0"
         sodipodi:type="arc" />
      <path
         sodipodi:nodetypes="ccccc"
         id="path2196"
         d="m 117.96294,327.15238 60.47806,0 0,-145.5202 -60.12102,0 0,0"
         style="fill:none;stroke:#ffffff;stroke-width:1.5;stroke-linecap:butt;stroke-linejoin:miter;stroke-miterlimit:4;stroke-opacity:0.629214;stroke-dasharray:none"
         inkscape:connector-curvature="0" />
      <path
         sodipodi:nodetypes="cccc"
         id="path2198"
         d="m 118.4324,219.89101 21.06657,0 -0.68319,66.95296 -21.17899,-1e-5"
         style="fill:none;stroke:#ffffff;stroke-width:1.5;stroke-linecap:butt;stroke-linejoin:miter;stroke-miterlimit:4;stroke-opacity:0.629214;stroke-dasharray:none"
         inkscape:connector-curvature="0" />
      <path
         sodipodi:nodetypes="cccc"
         id="path2200"
         d="m 118.31998,240.38682 -10.9311,0 0,26.64454 10.9311,-1e-5"
         style="fill:none;stroke:#ffffff;stroke-width:1.5;stroke-linecap:butt;stroke-linejoin:miter;stroke-miterlimit:4;stroke-opacity:0.629214;stroke-dasharray:none"
         inkscape:connector-curvature="0" />
      <path
         sodipodi:nodetypes="cc"
         id="path2206"
         d="m 178.32858,279.68588 c 19.12942,-11.10189 18.36467,-41.10402 -0.0815,-52.03512"
         style="fill:none;stroke:#ffffff;stroke-width:1.5;stroke-linecap:butt;stroke-linejoin:miter;stroke-miterlimit:4;stroke-opacity:0.629214;stroke-dasharray:none"
         inkscape:connector-curvature="0" />
      <path
         sodipodi:nodetypes="cccc"
         id="path3091"
         d="m 553.15787,327.23393 -59.33652,-0.0815 0,-145.5202 59.06102,0"
         style="fill:none;stroke:#ffffff;stroke-width:1.5;stroke-linecap:butt;stroke-linejoin:miter;stroke-miterlimit:4;stroke-opacity:0.629214;stroke-dasharray:none"
         inkscape:connector-curvature="0" />
      <path
         sodipodi:nodetypes="cccc"
         id="path3093"
         d="m 553.25918,219.89102 -20.4958,0 0.68319,66.95296 19.7113,-10e-6"
         style="fill:none;stroke:#ffffff;stroke-width:1.5;stroke-linecap:butt;stroke-linejoin:miter;stroke-miterlimit:4;stroke-opacity:0.629214;stroke-dasharray:none"
         inkscape:connector-curvature="0" />
      <path
         sodipodi:nodetypes="cccc"
         id="path3095"
         d="m 552.96391,240.38683 11.90956,0 0,26.64454 -11.66495,-10e-6"
         style="fill:none;stroke:#ffffff;stroke-width:1.5;stroke-linecap:butt;stroke-linejoin:miter;stroke-miterlimit:4;stroke-opacity:0.629214;stroke-dasharray:none"
         inkscape:connector-curvature="0" />
      <path
         sodipodi:nodetypes="cc"
         id="path3097"
         d="m 493.68916,279.68589 c -19.12942,-11.10189 -18.36468,-40.69633 0.0815,-51.62743"
         style="fill:none;stroke:#ffffff;stroke-width:1.5;stroke-linecap:butt;stroke-linejoin:miter;stroke-miterlimit:4;stroke-opacity:0.629214;stroke-dasharray:none"
         inkscape:connector-curvature="0" />
      <path
         id="path3107"
         d="m 336.13116,90.425866 0,325.883254 0,0"
         style="fill:none;stroke:#ffffff;stroke-width:1.5;stroke-linecap:butt;stroke-linejoin:miter;stroke-miterlimit:4;stroke-opacity:0.629214;stroke-dasharray:none"
         inkscape:connector-curvature="0" />
      <path
         sodipodi:nodetypes="cs"
         id="path3117"
         d="m 118.34857,95.731078 c 0,0 4.03987,-0.963636 5.04056,-5.188811"
         style="fill:none;stroke:#ffffff;stroke-width:1.5;stroke-linecap:butt;stroke-linejoin:miter;stroke-miterlimit:4;stroke-opacity:0.629214;stroke-dasharray:none"
         inkscape:connector-curvature="0" />
      <path
         sodipodi:nodetypes="cs"
         id="path3120"
         d="m 123.06916,417.24402 c 0,0 -0.96364,-4.03986 -5.18881,-5.04056"
         style="fill:none;stroke:#ffffff;stroke-width:1.5;stroke-linecap:butt;stroke-linejoin:miter;stroke-miterlimit:4;stroke-opacity:0.629214;stroke-dasharray:none"
         inkscape:connector-curvature="0" />
      <path
         sodipodi:nodetypes="cs"
         id="path3122"
         d="m 553.14946,411.81092 c 0,0 -4.03987,0.96364 -5.04056,5.18881"
         style="fill:none;stroke:#ffffff;stroke-width:1.5;stroke-linecap:butt;stroke-linejoin:miter;stroke-miterlimit:4;stroke-opacity:0.629214;stroke-dasharray:none"
         inkscape:connector-curvature="0" />
      <path
         sodipodi:nodetypes="cs"
         id="path3124"
         d="m 547.05631,91.357379 c 0,0 0.96364,4.03987 5.18882,5.04056"
         style="fill:none;stroke:#ffffff;stroke-width:1.5;stroke-linecap:butt;stroke-linejoin:miter;stroke-miterlimit:4;stroke-opacity:0.629214;stroke-dasharray:none"
         inkscape:connector-curvature="0" />
      <path
         d="m 514.91535,253.57072 a 1.0599999,1.3453845 0 1 1 -2.12,0 1.0599999,1.3453845 0 1 1 2.12,0 z"
         sodipodi:ry="1.3453845"
         sodipodi:rx="1.0599999"
         sodipodi:cy="253.57072"
         sodipodi:cx="513.85535"
         id="path3126"
         style="fill:none;stroke:#ffffff;stroke-width:1.5;stroke-linecap:butt;stroke-linejoin:round;stroke-miterlimit:4;stroke-opacity:0.629214;stroke-dasharray:none;stroke-dashoffset:0"
         sodipodi:type="arc" />
      <path
         d="m 159.65229,253.44841 a 1.4676921,1.3046153 0 1 1 -2.93538,0 1.4676921,1.3046153 0 1 1 2.93538,0 z"
         sodipodi:ry="1.3046153"
         sodipodi:rx="1.4676921"
         sodipodi:cy="253.44841"
         sodipodi:cx="158.1846"
         id="path3128"
         style="fill:none;stroke:#ffffff;stroke-width:1.5;stroke-linecap:butt;stroke-linejoin:round;stroke-miterlimit:4;stroke-opacity:0.629214;stroke-dasharray:none;stroke-dashoffset:0"
         sodipodi:type="arc" />
      <path
         transform="translate(-0.683193,0)"
         d="m 337.49755,253.02589 a 1.3663868,1.3663868 0 1 1 -2.73277,0 1.3663868,1.3663868 0 1 1 2.73277,0 z"
         sodipodi:ry="1.3663868"
         sodipodi:rx="1.3663868"
         sodipodi:cy="253.02589"
         sodipodi:cx="336.13116"
         id="path3130"
         style="fill:none;stroke:#ffffff;stroke-width:1.5;stroke-linecap:butt;stroke-linejoin:round;stroke-miterlimit:4;stroke-opacity:0.629214;stroke-dasharray:none;stroke-dashoffset:0"
         sodipodi:type="arc" />
    </g>
    <path
       style="fill:#d5f6ff;fill-rule:evenodd;stroke:#000000;stroke-width:0;stroke-linecap:butt;stroke-linejoin:miter;stroke-miterlimit:4;stroke-opacity:1;stroke-dasharray:none"
       d="m 63.132438,137.94063 0,-29.21682 2.891562,0 2.04819,2.9518 0,26.3855"
       id="path6233"
       sodipodi:nodetypes="ccccc"
       inkscape:connector-curvature="0" />
    <path
       transform="matrix(0,-0.588968,0.581043,0,-79.336892,48.06)"
       style="fill:#ffff00;fill-opacity:1;fill-rule:evenodd;stroke:#000000;stroke-width:1px;stroke-linecap:butt;stroke-linejoin:miter;stroke-opacity:1"
       d="m -112.72276,230.81533 9.74306,14.22915 0,5.20018 -10.09636,10.0404 10.09636,9.9596 0,5.20018 -10.0859,14.60038 -9.60464,-4.57126 4.69054,-10.02912 -34.94323,-0.11428 0.11429,-30.1718 34.82894,0 -4.5145,-9.77216 9.77144,-4.57127 z"
       id="path1500"
       sodipodi:nodetypes="cccccccccccccc"
       inkscape:connector-curvature="0" />
  </g>
  <g
     inkscape:groupmode="layer"
     id="layer2"
     inkscape:label="Players"
     transform="matrix(0,-1,1,0,-75.2447,404.02)"
     style="display:inline">
    <g
       id="g1457"
       style="fill:#b7c8eb;fill-opacity:1"
       transform="translate(0,2.1473258)">
      <path
         sodipodi:nodetypes="cccccccccccccc"
         id="path1471"
         d="m -267.79597,322.90416 5.65033,8.25195 0,3.01576 -5.85522,5.82276 5.85522,5.7759 0,3.01575 -5.84915,8.46724 -5.57005,-2.65102 2.7202,-5.81622 -20.26473,-0.0663 0.0663,-17.49762 20.19845,0 -2.61811,-5.6672 5.66678,-2.65103 z"
         style="fill:#b7c8eb;fill-opacity:1;fill-rule:evenodd;stroke:#000000;stroke-width:0.57993298999999998px;stroke-linecap:butt;stroke-linejoin:miter;stroke-opacity:1"
         inkscape:connector-curvature="0" />
      <path
         id="path1485"
         d="m -262.14564,334.17187 c -1.15987,5.79933 -1.15987,5.79933 -1.15987,5.79933 l 1.15987,5.79933"
         style="fill:#b7c8eb;fill-opacity:1;fill-rule:evenodd;stroke:#000000;stroke-width:0.57993298999999998px;stroke-linecap:butt;stroke-linejoin:miter;stroke-opacity:1"
         inkscape:connector-curvature="0" />
    </g>
    <text
       xml:space="preserve"
       style="font-size:16px;font-style:normal;font-variant:normal;font-weight:normal;font-stretch:normal;text-align:center;line-height:100%;writing-mode:lr-tb;text-anchor:middle;fill:#000000;fill-opacity:1;stroke:none;font-family:Verdana;-inkscape-font-specification:Verdana"
       x="341.81601"
       y="316.13599"
       id="text6173"
       sodipodi:linespacing="100%"
       transform="matrix(0,1,-1,0,0,0)"><tspan
         sodipodi:role="line"
         id="tspan2746"
         x="341.81601"
         y="316.13599">Bosnich</tspan></text>
    <g
       id="g2537"
       style="fill:#008000;fill-opacity:1"
       transform="translate(31.392299,0.925948)">
      <path
         style="fill:#008000;fill-opacity:1;fill-rule:evenodd;stroke:#000000;stroke-width:0.58499199px;stroke-linecap:butt;stroke-linejoin:miter;stroke-opacity:1"
         d="m -190.9161,395.53763 5.73835,8.26775 0,3.02153 -5.94643,5.8339 5.94643,5.78696 0,3.02153 -5.94027,8.48344 -5.65683,-2.65609 2.76258,-5.82735 -20.58044,-0.0664 0.0673,-17.53111 20.51313,0 -2.65889,-5.67804 5.75506,-2.65611 z"
         id="path8354"
         sodipodi:nodetypes="cccccccccccccc"
         inkscape:connector-curvature="0" />
      <path
         style="fill:#008000;fill-opacity:1;fill-rule:evenodd;stroke:#000000;stroke-width:0.58499199px;stroke-linecap:butt;stroke-linejoin:miter;stroke-opacity:1"
         d="m -185.17775,406.82691 c -1.17793,5.81043 -1.17793,5.81043 -1.17793,5.81043 l 1.17793,5.81043"
         id="path8356"
         inkscape:connector-curvature="0" />
    </g>
    <g
       transform="matrix(0.588968,0,0,0.581043,149.482,267.89292)"
       id="g8141"
       style="fill:#ffff00;fill-opacity:1">
      <path
         style="fill:#ffff00;fill-opacity:1;fill-rule:evenodd;stroke:#000000;stroke-width:1px;stroke-linecap:butt;stroke-linejoin:miter;stroke-opacity:1"
         d="m -112.72276,230.81533 9.74306,14.22915 0,5.20018 -10.09636,10.0404 10.09636,9.9596 0,5.20018 -10.0859,14.60038 -9.60464,-4.57126 4.69054,-10.02912 -34.94323,-0.11428 0.11429,-30.1718 34.82894,0 -4.5145,-9.77216 9.77144,-4.57127 z"
         id="path8143"
         sodipodi:nodetypes="cccccccccccccc"
         inkscape:connector-curvature="0" />
      <path
         style="fill:#ffff00;fill-opacity:1;fill-rule:evenodd;stroke:#000000;stroke-width:1px;stroke-linecap:butt;stroke-linejoin:miter;stroke-opacity:1"
         d="m -102.9797,250.24466 c -2,10 -2,10 -2,10 l 2,10"
         id="path8145"
         inkscape:connector-curvature="0" />
    </g>
    <text
       xml:space="preserve"
       style="font-size:16px;font-style:normal;font-variant:normal;font-weight:normal;font-stretch:normal;text-align:center;line-height:100%;text-anchor:middle;fill:#000000;fill-opacity:1;stroke:none;font-family:Verdana"
       x="465.48804"
       y="-158.02"
       id="text8147"
       sodipodi:linespacing="100%"
       transform="matrix(0,1,-1,0,0,0)"><tspan
         sodipodi:role="line"
         x="465.48804"
         y="-158.02"
         id="tspan4213">Denílson</tspan></text>
    <text
       xml:space="preserve"
       style="font-size:16px;font-style:normal;font-variant:normal;font-weight:normal;font-stretch:normal;text-align:center;line-height:100%;text-anchor:middle;fill:#000000;fill-opacity:1;stroke:none;font-family:Verdana"
       x="280.27002"
       y="-225.28"
       id="text8151"
       sodipodi:linespacing="100%"
       transform="matrix(0,1,-1,0,0,0)"><tspan
         sodipodi:role="line"
         x="280.27002"
         y="-225.28"
         id="tspan4215">Dunga</tspan></text>
    <text
       xml:space="preserve"
       style="font-size:16px;font-style:normal;font-variant:normal;font-weight:normal;font-stretch:normal;text-align:center;line-height:100%;text-anchor:middle;fill:#000000;fill-opacity:1;stroke:none;font-family:Verdana"
       x="419.09692"
       y="-93.019997"
       id="text8155"
       sodipodi:linespacing="100%"
       transform="matrix(0,1,-1,0,0,0)"><tspan
         sodipodi:role="line"
         x="419.09692"
         y="-93.019997"
         id="tspan4211">Romario</tspan></text>
    <g
       id="use8159"
       transform="matrix(0.588968,0,0,0.581043,280.343,128.73397)"
       style="fill:#ffff00;fill-opacity:1"
       inkscape:transform-center-x="-90.942988"
       inkscape:transform-center-y="-14.999978">
      <path
         sodipodi:nodetypes="cccccccccccccc"
         id="path2293"
         d="m -112.72276,230.81533 9.74306,14.22915 0,5.20018 -10.09636,10.0404 10.09636,9.9596 0,5.20018 -10.0859,14.60038 -9.60464,-4.57126 4.69054,-10.02912 -34.94323,-0.11428 0.11429,-30.1718 34.82894,0 -4.5145,-9.77216 9.77144,-4.57127 z"
         style="fill:#ffff00;fill-opacity:1;fill-rule:evenodd;stroke:#000000;stroke-width:1px;stroke-linecap:butt;stroke-linejoin:miter;stroke-opacity:1"
         inkscape:connector-curvature="0" />
      <path
         id="path2295"
         d="m -102.9797,250.24466 c -2,10 -2,10 -2,10 l 2,10"
         style="fill:#ffff00;fill-opacity:1;fill-rule:evenodd;stroke:#000000;stroke-width:1px;stroke-linecap:butt;stroke-linejoin:miter;stroke-opacity:1"
         inkscape:connector-curvature="0" />
    </g>
    <g
       id="use8161"
       transform="matrix(0.588968,0,0,0.581043,212.424,314.25669)"
       style="fill:#ffff00;fill-opacity:1">
      <path
         sodipodi:nodetypes="cccccccccccccc"
         id="path2299"
         d="m -112.72276,230.81533 9.74306,14.22915 0,5.20018 -10.09636,10.0404 10.09636,9.9596 0,5.20018 -10.0859,14.60038 -9.60464,-4.57126 4.69054,-10.02912 -34.94323,-0.11428 0.11429,-30.1718 34.82894,0 -4.5145,-9.77216 9.77144,-4.57127 z"
         style="fill:#ffff00;fill-opacity:1;fill-rule:evenodd;stroke:#000000;stroke-width:1px;stroke-linecap:butt;stroke-linejoin:miter;stroke-opacity:1"
         inkscape:connector-curvature="0" />
      <path
         id="path2301"
         d="m -102.9797,250.24466 c -2,10 -2,10 -2,10 l 2,10"
         style="fill:#ffff00;fill-opacity:1;fill-rule:evenodd;stroke:#000000;stroke-width:1px;stroke-linecap:butt;stroke-linejoin:miter;stroke-opacity:1"
         inkscape:connector-curvature="0" />
    </g>
    <text
       xml:space="preserve"
       style="font-size:16px;font-style:normal;font-variant:normal;font-weight:normal;font-stretch:normal;text-align:center;line-height:100%;text-anchor:middle;fill:#000000;fill-opacity:1;stroke:none;font-family:Verdana"
       x="534.96399"
       y="-300.30899"
       id="text8163"
       sodipodi:linespacing="100%"
       transform="matrix(0,1,-1,0,0,0)"><tspan
         sodipodi:role="line"
         x="534.96399"
         y="-300.30899"
         id="tspan4223"
         style="font-size:16px;font-style:normal;font-variant:normal;font-weight:normal;font-stretch:normal;text-align:center;line-height:100%;text-anchor:middle;font-family:Verdana">Roberto Carlos</tspan></text>
    <text
       xml:space="preserve"
       style="font-size:16px;font-style:normal;font-variant:normal;font-weight:normal;font-stretch:normal;text-align:center;line-height:100%;text-anchor:middle;fill:#000000;fill-opacity:1;stroke:none;font-family:Verdana"
       x="410.63599"
       y="-301.38699"
       id="text8167"
       sodipodi:linespacing="100%"
       transform="matrix(0,1,-1,0,0,0)"><tspan
         sodipodi:role="line"
         x="410.63599"
         y="-301.38699"
         id="tspan4221">Junior Baiano</tspan></text>
    <text
       xml:space="preserve"
       style="font-size:16px;font-style:normal;font-variant:normal;font-weight:normal;font-stretch:normal;text-align:center;line-height:100%;text-anchor:middle;fill:#000000;fill-opacity:1;stroke:none;font-family:Verdana"
       x="279.54633"
       y="-301.603"
       id="text8173"
       sodipodi:linespacing="100%"
       transform="matrix(0,1,-1,0,0,0)"><tspan
         sodipodi:role="line"
         x="279.54633"
         y="-301.603"
         id="tspan4217">Aldair</tspan></text>
    <g
       id="use8177"
       transform="matrix(0.588968,0,0,0.581043,355.801,128.32279)"
       style="fill:#ffff00;fill-opacity:1">
      <path
         sodipodi:nodetypes="cccccccccccccc"
         id="path2305"
         d="m -112.72276,230.81533 9.74306,14.22915 0,5.20018 -10.09636,10.0404 10.09636,9.9596 0,5.20018 -10.0859,14.60038 -9.60464,-4.57126 4.69054,-10.02912 -34.94323,-0.11428 0.11429,-30.1718 34.82894,0 -4.5145,-9.77216 9.77144,-4.57127 z"
         style="fill:#ffff00;fill-opacity:1;fill-rule:evenodd;stroke:#000000;stroke-width:1px;stroke-linecap:butt;stroke-linejoin:miter;stroke-opacity:1"
         inkscape:connector-curvature="0" />
      <path
         id="path2307"
         d="m -102.9797,250.24466 c -2,10 -2,10 -2,10 l 2,10"
         style="fill:#ffff00;fill-opacity:1;fill-rule:evenodd;stroke:#000000;stroke-width:1px;stroke-linecap:butt;stroke-linejoin:miter;stroke-opacity:1"
         inkscape:connector-curvature="0" />
    </g>
    <g
       style="fill:#ffff00;fill-opacity:1"
       transform="matrix(0.588968,0,0,0.581043,355.701,259.89292)"
       id="use8179">
      <path
         style="fill:#ffff00;fill-opacity:1;fill-rule:evenodd;stroke:#000000;stroke-width:1px;stroke-linecap:butt;stroke-linejoin:miter;stroke-opacity:1"
         d="m -112.72276,230.81533 9.74306,14.22915 0,5.20018 -10.09636,10.0404 10.09636,9.9596 0,5.20018 -10.0859,14.60038 -9.60464,-4.57126 4.69054,-10.02912 -34.94323,-0.11428 0.11429,-30.1718 34.82894,0 -4.5145,-9.77216 9.77144,-4.57127 z"
         id="path1518"
         sodipodi:nodetypes="cccccccccccccc"
         inkscape:connector-curvature="0" />
      <path
         style="fill:#ffff00;fill-opacity:1;fill-rule:evenodd;stroke:#000000;stroke-width:1px;stroke-linecap:butt;stroke-linejoin:miter;stroke-opacity:1"
         d="m -102.9797,250.24466 c -2,10 -2,10 -2,10 l 2,10"
         id="path1520"
         inkscape:connector-curvature="0" />
    </g>
    <g
       style="font-size:27.35079956px;font-style:normal;font-variant:normal;font-weight:normal;font-stretch:normal;text-align:center;line-height:100%;text-anchor:middle;fill:#ffff00;fill-opacity:1;font-family:Verdana"
       transform="matrix(0.588968,0,0,0.581043,356.596,383.697)"
       id="use8181">
      <path
         style="font-size:27.35079956px;font-style:normal;font-variant:normal;font-weight:normal;font-stretch:normal;text-align:center;line-height:100%;text-anchor:middle;fill:#ffff00;fill-opacity:1;fill-rule:evenodd;stroke:#000000;stroke-width:1px;stroke-linecap:butt;stroke-linejoin:miter;stroke-opacity:1;font-family:Verdana"
         d="m -112.72276,230.81533 9.74306,14.22915 0,5.20018 -10.09636,10.0404 10.09636,9.9596 0,5.20018 -10.0859,14.60038 -9.60464,-4.57126 4.69054,-10.02912 -34.94323,-0.11428 0.11429,-30.1718 34.82894,0 -4.5145,-9.77216 9.77144,-4.57127 z"
         id="path1530"
         sodipodi:nodetypes="cccccccccccccc"
         inkscape:connector-curvature="0" />
      <path
         style="font-size:27.35079956px;font-style:normal;font-variant:normal;font-weight:normal;font-stretch:normal;text-align:center;line-height:100%;text-anchor:middle;fill:#ffff00;fill-opacity:1;fill-rule:evenodd;stroke:#000000;stroke-width:1px;stroke-linecap:butt;stroke-linejoin:miter;stroke-opacity:1;font-family:Verdana"
         d="m -102.9797,250.24466 c -2,10 -2,10 -2,10 l 2,10"
         id="path1532"
         inkscape:connector-curvature="0" />
    </g>
    <g
       style="fill:#2a7fff;fill-opacity:1"
       transform="matrix(0.588968,0,0,0.581043,355.96,-4.0921922)"
       id="use8201">
      <path
         style="fill:#2a7fff;fill-opacity:1;fill-rule:evenodd;stroke:#000000;stroke-width:1px;stroke-linecap:butt;stroke-linejoin:miter;stroke-opacity:1"
         d="m -102.9797,250.24466 c -2,10 -2,10 -2,10 l 2,10"
         id="path1502"
         inkscape:connector-curvature="0" />
    </g>
    <g
       id="g1461"
       style="fill:#0000ff;fill-opacity:1">
      <path
         sodipodi:nodetypes="cccccccccccccc"
         id="path8203"
         d="m 356.81981,324.08832 5.65033,8.25195 0,3.01576 -5.85522,5.82276 5.85522,5.7759 0,3.01575 -5.84915,8.46724 -5.57005,-2.65102 2.7202,-5.81622 -20.26473,-0.0663 0.0663,-17.49762 20.19845,0 -2.61811,-5.6672 5.66678,-2.65103 z"
         style="fill:#0000ff;fill-opacity:1;fill-rule:evenodd;stroke:#000000;stroke-width:0.57993298999999998px;stroke-linecap:butt;stroke-linejoin:miter;stroke-opacity:1"
         inkscape:connector-curvature="0" />
      <path
         id="path8205"
         d="m 362.47014,335.35603 c -1.15987,5.79933 -1.15987,5.79933 -1.15987,5.79933 l 1.15987,5.79933"
         style="fill:#0000ff;fill-opacity:1;fill-rule:evenodd;stroke:#000000;stroke-width:0.57993298999999998px;stroke-linecap:butt;stroke-linejoin:miter;stroke-opacity:1"
         inkscape:connector-curvature="0" />
    </g>
    <text
       xml:space="preserve"
       style="font-size:16px;font-style:normal;font-variant:normal;font-weight:normal;font-stretch:normal;text-align:center;line-height:100%;writing-mode:lr-tb;text-anchor:middle;fill:#000000;fill-opacity:1;stroke:none;font-family:Verdana;-inkscape-font-specification:Verdana"
       x="269.20389"
       y="200.87216"
       id="text4159"
       sodipodi:linespacing="100%"
       transform="matrix(0,1,-1,0,0,0)"><tspan
         sodipodi:role="line"
         id="tspan2752"
         x="269.20389"
         y="200.87216">Horvat</tspan></text>
    <text
       xml:space="preserve"
       style="font-size:16px;font-style:normal;font-variant:normal;font-weight:normal;font-stretch:normal;text-align:center;line-height:100%;writing-mode:lr-tb;text-anchor:middle;fill:#000000;fill-opacity:1;stroke:none;font-family:Verdana;-inkscape-font-specification:Verdana"
       x="413.22742"
       y="200.89169"
       id="text4167"
       sodipodi:linespacing="100%"
       transform="matrix(0,1,-1,0,0,0)"><tspan
         sodipodi:role="line"
         id="tspan2754"
         x="413.22742"
         y="200.89169">Tobin</tspan></text>
    <text
       xml:space="preserve"
       style="font-size:16px;font-style:normal;font-variant:normal;font-weight:normal;font-stretch:normal;text-align:center;line-height:100%;text-anchor:middle;fill:#000000;fill-opacity:1;stroke:none;font-family:Verdana"
       x="340"
       y="-372.384"
       id="text4181"
       sodipodi:linespacing="100%"
       transform="matrix(0,1,-1,0,0,0)"><tspan
         sodipodi:role="line"
         x="340"
         y="-372.384"
         id="tspan4185">Dida</tspan></text>
    <text
       xml:space="preserve"
       style="font-size:16px;font-style:normal;font-variant:normal;font-weight:normal;font-stretch:normal;text-align:center;line-height:100%;text-anchor:middle;fill:#000000;fill-opacity:1;stroke:none;font-family:Verdana"
       x="147.02299"
       y="-302.30701"
       id="text4187"
       sodipodi:linespacing="100%"
       transform="matrix(0,1,-1,0,0,0)"><tspan
         sodipodi:role="line"
         x="147.02299"
         y="-302.30701"
         id="tspan4191">Cafu</tspan></text>
    <g
       id="g2541"
       style="fill:#008000;fill-opacity:1"
       transform="translate(32.167299,3.990432)">
      <path
         style="fill:#008000;fill-opacity:1;fill-rule:evenodd;stroke:#000000;stroke-width:0.58499199px;stroke-linecap:butt;stroke-linejoin:miter;stroke-opacity:1"
         d="m -191.6911,515.53763 5.73835,8.26775 0,3.02153 -5.94643,5.8339 5.94643,5.78696 0,3.02153 -5.94027,8.48344 -5.65683,-2.65609 2.76258,-5.82735 -20.58044,-0.0664 0.0673,-17.53111 20.51313,0 -2.65889,-5.67804 5.75506,-2.65611 z"
         id="path8360"
         sodipodi:nodetypes="cccccccccccccc"
         inkscape:connector-curvature="0" />
      <path
         style="fill:#008000;fill-opacity:1;fill-rule:evenodd;stroke:#000000;stroke-width:0.58499199px;stroke-linecap:butt;stroke-linejoin:miter;stroke-opacity:1"
         d="m -185.95275,526.82691 c -1.17793,5.81043 -1.17793,5.81043 -1.17793,5.81043 l 1.17793,5.81043"
         id="path8362"
         inkscape:connector-curvature="0" />
    </g>
    <text
       xml:space="preserve"
       style="font-size:16px;font-style:normal;font-variant:normal;font-weight:normal;font-stretch:normal;text-align:center;line-height:100%;writing-mode:lr-tb;text-anchor:middle;fill:#000000;fill-opacity:1;stroke:none;font-family:Verdana;-inkscape-font-specification:Verdana"
       x="536.93439"
       y="201.11826"
       id="text8364"
       sodipodi:linespacing="100%"
       transform="matrix(0,1,-1,0,0,0)"><tspan
         sodipodi:role="line"
         x="536.93439"
         y="201.11826"
         id="tspan8444">T. Vidmar</tspan></text>
    <g
       id="g2527"
       style="fill:#008000;fill-opacity:1"
       transform="translate(30.845299,1.990432)">
      <g
         id="g8368"
         transform="matrix(0.588968,0,0,0.581043,-123.979,-3.7695)"
         style="fill:#008000;fill-opacity:1">
        <path
           sodipodi:nodetypes="cccccccccccccc"
           id="path8370"
           d="m -112.72276,230.81533 9.74306,14.22915 0,5.20018 -10.09636,10.0404 10.09636,9.9596 0,5.20018 -10.0859,14.60038 -9.60464,-4.57126 4.69054,-10.02912 -34.94323,-0.11428 0.11429,-30.1718 34.82894,0 -4.5145,-9.77216 9.77144,-4.57127 z"
           style="fill:#008000;fill-opacity:1;fill-rule:evenodd;stroke:#000000;stroke-width:1px;stroke-linecap:butt;stroke-linejoin:miter;stroke-opacity:1"
           inkscape:connector-curvature="0" />
        <path
           id="path8372"
           d="m -102.9797,250.24466 c -2,10 -2,10 -2,10 l 2,10"
           style="fill:#008000;fill-opacity:1;fill-rule:evenodd;stroke:#000000;stroke-width:1px;stroke-linecap:butt;stroke-linejoin:miter;stroke-opacity:1"
           inkscape:connector-curvature="0" />
      </g>
    </g>
    <text
       xml:space="preserve"
       style="font-size:16px;font-style:normal;font-variant:normal;font-weight:normal;font-stretch:normal;text-align:center;line-height:100%;writing-mode:lr-tb;text-anchor:middle;fill:#000000;fill-opacity:1;stroke:none;font-family:Verdana;-inkscape-font-specification:Verdana"
       x="149.18443"
       y="200.71591"
       id="text8374"
       sodipodi:linespacing="100%"
       transform="matrix(0,1,-1,0,0,0)"><tspan
         sodipodi:role="line"
         id="tspan2750"
         x="149.18443"
         y="200.71591">Lazaridis</tspan></text>
    <g
       id="g2549"
       style="fill:#008000;fill-opacity:1"
       transform="translate(98,3.01579)">
      <g
         id="g8436"
         transform="matrix(0.588968,0,0,0.581043,-35.1915,115.639)"
         style="fill:#008000;fill-opacity:1">
        <path
           sodipodi:nodetypes="cccccccccccccc"
           id="path8438"
           d="m -112.72276,230.81533 9.74306,14.22915 0,5.20018 -10.09636,10.0404 10.09636,9.9596 0,5.20018 -10.0859,14.60038 -9.60464,-4.57126 4.69054,-10.02912 -34.94323,-0.11428 0.11429,-30.1718 34.82894,0 -4.5145,-9.77216 9.77144,-4.57127 z"
           style="fill:#008000;fill-opacity:1;fill-rule:evenodd;stroke:#000000;stroke-width:1px;stroke-linecap:butt;stroke-linejoin:miter;stroke-opacity:1"
           inkscape:connector-curvature="0" />
        <path
           id="path8440"
           d="m -102.9797,250.24466 c -2,10 -2,10 -2,10 l 2,10"
           style="fill:#008000;fill-opacity:1;fill-rule:evenodd;stroke:#000000;stroke-width:1px;stroke-linecap:butt;stroke-linejoin:miter;stroke-opacity:1"
           inkscape:connector-curvature="0" />
      </g>
    </g>
    <text
       xml:space="preserve"
       style="font-size:16px;font-style:normal;font-variant:normal;font-weight:normal;font-stretch:normal;text-align:center;line-height:100%;writing-mode:lr-tb;text-anchor:middle;fill:#000000;fill-opacity:1;stroke:none;font-family:Verdana;-inkscape-font-specification:Verdana"
       x="462.77734"
       y="131.29739"
       id="text8444"
       sodipodi:linespacing="100%"
       transform="matrix(0,1,-1,0,0,0)"><tspan
         sodipodi:role="line"
         x="462.77734"
         y="131.29739"
         id="tspan6229">Foster</tspan></text>
    <text
       xml:space="preserve"
       style="font-size:16px;font-style:normal;font-variant:normal;font-weight:normal;font-stretch:normal;text-align:center;line-height:100%;writing-mode:lr-tb;text-anchor:middle;fill:#000000;fill-opacity:1;stroke:none;font-family:Verdana;-inkscape-font-specification:Verdana"
       x="269.61877"
       y="43.932999"
       id="text8448"
       sodipodi:linespacing="100%"
       transform="matrix(0,1,-1,0,0,0)"><tspan
         sodipodi:role="line"
         id="tspan2758"
         x="269.61877"
         y="43.932999">Kewell</tspan></text>
    <g
       id="g2569"
       style="fill:#008000;fill-opacity:1"
       transform="translate(-155.07383,-189.65808)">
      <g
         id="g8452"
         transform="matrix(0.588968,0,0,0.581043,10.5801,380.455)"
         style="fill:#008000;fill-opacity:1">
        <path
           sodipodi:nodetypes="cccccccccccccc"
           id="path8454"
           d="m -112.72276,230.81533 9.74306,14.22915 0,5.20018 -10.09636,10.0404 10.09636,9.9596 0,5.20018 -10.0859,14.60038 -9.60464,-4.57126 4.69054,-10.02912 -34.94323,-0.11428 0.11429,-30.1718 34.82894,0 -4.5145,-9.77216 9.77144,-4.57127 z"
           style="fill:#008000;fill-opacity:1;fill-rule:evenodd;stroke:#000000;stroke-width:1px;stroke-linecap:butt;stroke-linejoin:miter;stroke-opacity:1"
           inkscape:connector-curvature="0" />
        <path
           id="path8456"
           d="m -102.9797,250.24466 c -2,10 -2,10 -2,10 l 2,10"
           style="fill:#008000;fill-opacity:1;fill-rule:evenodd;stroke:#000000;stroke-width:1px;stroke-linecap:butt;stroke-linejoin:miter;stroke-opacity:1"
           inkscape:connector-curvature="0" />
      </g>
    </g>
    <text
       xml:space="preserve"
       style="font-size:16px;font-style:normal;font-variant:normal;font-weight:normal;font-stretch:normal;text-align:center;line-height:100%;text-anchor:middle;fill:#000000;fill-opacity:1;stroke:none;font-family:Verdana"
       x="342.31091"
       y="249.80521"
       id="text8458"
       sodipodi:linespacing="100%"
       transform="matrix(0,1,-1,0,0,0)"><tspan
         sodipodi:role="line"
         x="342.31091"
         y="249.80521"
         id="tspan6231">Ivanović</tspan></text>
    <g
       id="g2554"
       style="fill:#008000;fill-opacity:1"
       transform="translate(-35.898105,72)">
      <g
         id="g2523"
         style="fill:#008000;fill-opacity:1">
        <path
           sodipodi:nodetypes="cccccccccccccc"
           id="path8464"
           d="m -54.768199,129.82955 5.738351,8.26775 0,3.02153 -5.946433,5.8339 5.946433,5.78696 0,3.02153 -5.940272,8.48344 -5.656826,-2.65609 2.762578,-5.82735 -20.580444,-0.0664 0.06731,-17.53111 20.513131,0 -2.658896,-5.67804 5.755065,-2.65611 z"
           style="fill:#008000;fill-opacity:1;fill-rule:evenodd;stroke:#000000;stroke-width:0.58499205px;stroke-linecap:butt;stroke-linejoin:miter;stroke-opacity:1"
           inkscape:connector-curvature="0" />
        <path
           id="path8466"
           d="m -49.029848,141.11883 c -1.177936,5.81043 -1.177936,5.81043 -1.177936,5.81043 l 1.177936,5.81043"
           style="fill:#008000;fill-opacity:1;fill-rule:evenodd;stroke:#000000;stroke-width:0.58499205px;stroke-linecap:butt;stroke-linejoin:miter;stroke-opacity:1"
           inkscape:connector-curvature="0" />
      </g>
    </g>
    <g
       id="g2564"
       style="fill:#008000;fill-opacity:1"
       transform="translate(-79,58.7815)">
      <g
         transform="translate(38.678798,63)"
         id="g2519"
         style="fill:#008000;fill-opacity:1">
        <path
           sodipodi:nodetypes="cccccccccccccc"
           id="path12013"
           d="m -51.739554,325.31848 5.410449,7.79531 0,2.84887 -5.60664,5.50054 5.60664,5.45627 0,2.84887 -5.600833,7.99868 -5.333577,-2.50432 2.604717,-5.49436 -19.404422,-0.0626 0.06346,-16.52933 19.340961,0 -2.50696,-5.35359 5.426204,-2.50433 z"
           style="fill:#008000;fill-opacity:1;fill-rule:evenodd;stroke:#000000;stroke-width:0.55156392px;stroke-linecap:butt;stroke-linejoin:miter;stroke-opacity:1"
           inkscape:connector-curvature="0" />
        <path
           id="path12015"
           d="m -46.329105,335.96266 c -1.110624,5.47841 -1.110624,5.47841 -1.110624,5.47841 l 1.110624,5.4784"
           style="fill:#008000;fill-opacity:1;fill-rule:evenodd;stroke:#000000;stroke-width:0.55156392px;stroke-linecap:butt;stroke-linejoin:miter;stroke-opacity:1"
           inkscape:connector-curvature="0" />
      </g>
    </g>
    <text
       xml:space="preserve"
       style="font-size:16px;font-style:normal;font-variant:normal;font-weight:normal;font-stretch:normal;text-align:center;line-height:100%;text-anchor:middle;fill:#000000;fill-opacity:1;stroke:none;font-family:Verdana"
       x="219.245"
       y="131.58768"
       id="text8468"
       sodipodi:linespacing="100%"
       transform="matrix(0,1,-1,0,0,0)"><tspan
         sodipodi:role="line"
         x="219.245"
         y="131.58768"
         id="tspan8470">Zelíc</tspan></text>
    <g
       transform="matrix(0.588968,0,0,0.581043,211.507,73.97208)"
       id="g9482"
       style="fill:#ffff00;fill-opacity:1">
      <path
         style="fill:#ffff00;fill-opacity:1;fill-rule:evenodd;stroke:#000000;stroke-width:1px;stroke-linecap:butt;stroke-linejoin:miter;stroke-opacity:1"
         d="m -112.72276,230.81533 9.74306,14.22915 0,5.20018 -10.09636,10.0404 10.09636,9.9596 0,5.20018 -10.0859,14.60038 -9.60464,-4.57126 4.69054,-10.02912 -34.94323,-0.11428 0.11429,-30.1718 34.82894,0 -4.5145,-9.77216 9.77144,-4.57127 z"
         id="path9484"
         sodipodi:nodetypes="cccccccccccccc"
         inkscape:connector-curvature="0" />
      <path
         style="fill:#ffff00;fill-opacity:1;fill-rule:evenodd;stroke:#000000;stroke-width:1px;stroke-linecap:butt;stroke-linejoin:miter;stroke-opacity:1"
         d="m -102.9797,250.24466 c -2,10 -2,10 -2,10 l 2,10"
         id="path9486"
         inkscape:connector-curvature="0" />
    </g>
    <text
       xml:space="preserve"
       style="font-size:16px;font-style:normal;font-variant:normal;font-weight:normal;font-stretch:normal;text-align:center;line-height:100%;text-anchor:middle;fill:#000000;fill-opacity:1;stroke:none;font-family:Verdana"
       x="225.16046"
       y="-156.51601"
       id="text9488"
       sodipodi:linespacing="100%"
       transform="matrix(0,1,-1,0,0,0)"><tspan
         sodipodi:role="line"
         x="225.16046"
         y="-156.51601"
         id="tspan9490">Juninho Paulista</tspan></text>
    <text
       xml:space="preserve"
       style="font-size:16px;font-style:normal;font-variant:normal;font-weight:normal;font-stretch:normal;text-align:center;line-height:100%;text-anchor:middle;fill:#000000;fill-opacity:1;stroke:none;font-family:Verdana"
       x="411.19818"
       y="-225.5"
       id="text9492"
       sodipodi:linespacing="100%"
       transform="matrix(0,1,-1,0,0,0)"><tspan
         sodipodi:role="line"
         x="411.19818"
         y="-225.5"
         id="tspan9494">Cesar Sampaio</tspan></text>
    <text
       xml:space="preserve"
       style="font-size:16px;font-style:normal;font-variant:normal;font-weight:normal;font-stretch:normal;text-align:center;line-height:100%;text-anchor:middle;fill:#000000;fill-opacity:1;stroke:none;font-family:Verdana"
       x="272.83929"
       y="-94.716095"
       id="text9496"
       sodipodi:linespacing="100%"
       transform="matrix(0,1,-1,0,0,0)"><tspan
         sodipodi:role="line"
         x="272.83929"
         y="-94.716095"
         id="tspan9498">Ronaldo</tspan></text>
    <g
       id="g9500"
       transform="matrix(0.588968,0,0,0.581043,149.482,122.32279)"
       style="fill:#ffff00;fill-opacity:1">
      <path
         sodipodi:nodetypes="cccccccccccccc"
         id="path9502"
         d="m -112.72276,230.81533 9.74306,14.22915 0,5.20018 -10.09636,10.0404 10.09636,9.9596 0,5.20018 -10.0859,14.60038 -9.60464,-4.57126 4.69054,-10.02912 -34.94323,-0.11428 0.11429,-30.1718 34.82894,0 -4.5145,-9.77216 9.77144,-4.57127 z"
         style="fill:#ffff00;fill-opacity:1;fill-rule:evenodd;stroke:#000000;stroke-width:1px;stroke-linecap:butt;stroke-linejoin:miter;stroke-opacity:1"
         inkscape:connector-curvature="0" />
      <path
         id="path9504"
         d="m -102.9797,250.24466 c -2,10 -2,10 -2,10 l 2,10"
         style="fill:#ffff00;fill-opacity:1;fill-rule:evenodd;stroke:#000000;stroke-width:1px;stroke-linecap:butt;stroke-linejoin:miter;stroke-opacity:1"
         inkscape:connector-curvature="0" />
    </g>
    <g
       style="fill:#ffff00;fill-opacity:1"
       transform="matrix(0.588968,0,0,0.581043,280.5,259.90824)"
       id="g9506">
      <path
         style="fill:#ffff00;fill-opacity:1;fill-rule:evenodd;stroke:#000000;stroke-width:1px;stroke-linecap:butt;stroke-linejoin:miter;stroke-opacity:1"
         d="m -112.72276,230.81533 9.74306,14.22915 0,5.20018 -10.09636,10.0404 10.09636,9.9596 0,5.20018 -10.0859,14.60038 -9.60464,-4.57126 4.69054,-10.02912 -34.94323,-0.11428 0.11429,-30.1718 34.82894,0 -4.5145,-9.77216 9.77144,-4.57127 z"
         id="path9508"
         sodipodi:nodetypes="cccccccccccccc"
         inkscape:connector-curvature="0" />
      <path
         style="fill:#ffff00;fill-opacity:1;fill-rule:evenodd;stroke:#000000;stroke-width:1px;stroke-linecap:butt;stroke-linejoin:miter;stroke-opacity:1"
         d="m -102.9797,250.24466 c -2,10 -2,10 -2,10 l 2,10"
         id="path9510"
         inkscape:connector-curvature="0" />
    </g>
    <g
       id="g2545"
       style="fill:#008000;fill-opacity:1"
       transform="translate(98,3.01579)">
      <path
         sodipodi:nodetypes="cccccccccccccc"
         id="path9514"
         d="m -101.93097,393.97696 5.65033,8.25195 0,3.01576 -5.85522,5.82276 5.85522,5.7759 0,3.01575 -5.84915,8.46724 -5.57005,-2.65102 2.7202,-5.81622 -20.26473,-0.0663 0.0663,-17.49762 20.19845,0 -2.61811,-5.6672 5.66678,-2.65103 z"
         style="fill:#008000;fill-opacity:1;fill-rule:evenodd;stroke:#000000;stroke-width:0.57993299px;stroke-linecap:butt;stroke-linejoin:miter;stroke-opacity:1"
         inkscape:connector-curvature="0" />
      <path
         id="path9516"
         d="m -96.28064,405.24467 c -1.15987,5.79933 -1.15987,5.79933 -1.15987,5.79933 l 1.15987,5.79933"
         style="fill:#008000;fill-opacity:1;fill-rule:evenodd;stroke:#000000;stroke-width:0.57993299px;stroke-linecap:butt;stroke-linejoin:miter;stroke-opacity:1"
         inkscape:connector-curvature="0" />
    </g>
    <text
       xml:space="preserve"
       style="font-size:16px;font-style:normal;font-variant:normal;font-weight:normal;font-stretch:normal;text-align:center;line-height:100%;writing-mode:lr-tb;text-anchor:middle;fill:#000000;fill-opacity:1;stroke:none;font-family:Verdana;-inkscape-font-specification:Verdana"
       x="413.85977"
       y="45.623001"
       id="text9518"
       sodipodi:linespacing="100%"
       transform="matrix(0,1,-1,0,0,0)"><tspan
         sodipodi:role="line"
         x="413.85977"
         y="45.623001"
         id="tspan8446">Viduka</tspan></text>
    <g
       id="g2559"
       style="fill:#008000;fill-opacity:1"
       transform="translate(-71.53149,55.031344)">
      <g
         transform="translate(278.857,-52.884018)"
         style="fill:#008000;fill-opacity:1"
         id="g9522">
        <path
           style="fill:#008000;fill-opacity:1;fill-rule:evenodd;stroke:#000000;stroke-width:0.57993299px;stroke-linecap:butt;stroke-linejoin:miter;stroke-opacity:1"
           d="m -267.79597,322.90416 5.65033,8.25195 0,3.01576 -5.85522,5.82276 5.85522,5.7759 0,3.01575 -5.84915,8.46724 -5.57005,-2.65102 2.7202,-5.81622 -20.26473,-0.0663 0.0663,-17.49762 20.19845,0 -2.61811,-5.6672 5.66678,-2.65103 z"
           id="path9524"
           sodipodi:nodetypes="cccccccccccccc"
           inkscape:connector-curvature="0" />
        <path
           style="fill:#008000;fill-opacity:1;fill-rule:evenodd;stroke:#000000;stroke-width:0.57993299px;stroke-linecap:butt;stroke-linejoin:miter;stroke-opacity:1"
           d="m -262.14564,334.17187 c -1.15987,5.79933 -1.15987,5.79933 -1.15987,5.79933 l 1.15987,5.79933"
           id="path9526"
           inkscape:connector-curvature="0" />
      </g>
    </g>
    <text
       xml:space="preserve"
       style="font-size:16px;font-style:normal;font-variant:normal;font-weight:normal;font-stretch:normal;text-align:center;line-height:100%;text-anchor:middle;fill:#000000;fill-opacity:1;stroke:none;font-family:Verdana"
       x="341.76132"
       y="101.26987"
       id="text9528"
       sodipodi:linespacing="100%"
       transform="matrix(0,1,-1,0,0,0)"><tspan
         sodipodi:role="line"
         x="341.76132"
         y="101.26987"
         id="tspan9530">A. Vidmar</tspan></text>
    <g
       id="g2532"
       style="fill:#008000;fill-opacity:1"
       transform="translate(31.433299,2.861413)">
      <g
         id="g12017"
         transform="matrix(0.588968,0,0,0.581043,-124.567,116.424)"
         style="fill:#008000;fill-opacity:1">
        <path
           sodipodi:nodetypes="cccccccccccccc"
           id="path12019"
           d="m -112.72276,230.81533 9.74306,14.22915 0,5.20018 -10.09636,10.0404 10.09636,9.9596 0,5.20018 -10.0859,14.60038 -9.60464,-4.57126 4.69054,-10.02912 -34.94323,-0.11428 0.11429,-30.1718 34.82894,0 -4.5145,-9.77216 9.77144,-4.57127 z"
           style="fill:#008000;fill-opacity:1;fill-rule:evenodd;stroke:#000000;stroke-width:1px;stroke-linecap:butt;stroke-linejoin:miter;stroke-opacity:1"
           inkscape:connector-curvature="0" />
        <path
           id="path12021"
           d="m -102.9797,250.24466 c -2,10 -2,10 -2,10 l 2,10"
           style="fill:#008000;fill-opacity:1;fill-rule:evenodd;stroke:#000000;stroke-width:1px;stroke-linecap:butt;stroke-linejoin:miter;stroke-opacity:1"
           inkscape:connector-curvature="0" />
      </g>
    </g>
  </g>
  <g
     inkscape:groupmode="layer"
     id="layer3"
     inkscape:label="Maillots" />
</svg>
