<?xml version="1.0" encoding="utf-8"?>
<!-- Generator: Adobe Illustrator 15.0.0, SVG Export Plug-In . SVG Version: 6.00 Build 0)  -->
<svg version="1.2" baseProfile="tiny" id="Layer_1" xmlns="http://www.w3.org/2000/svg" xmlns:xlink="http://www.w3.org/1999/xlink"
	 x="0px" y="0px" width="108.383px" height="154.971px" viewBox="0 0 108.383 154.971" xml:space="preserve">
<g>
	<path d="M41.577,154.44h0.652l-2.95-8.608c-0.068-0.215-0.171-0.323-0.309-0.323c-0.16,0-0.274,0.108-0.343,0.323l-2.95,8.608
		h0.652l2.607-7.641L41.577,154.44L41.577,154.44z"/>
	<path d="M11.501,131.857c0.229,0.36,0.446,0.54,0.652,0.54c0.114,0,0.343-0.192,0.686-0.576c0.411-0.432,0.834-0.779,1.269-1.043
		c0.64-0.385,1.44-0.576,2.401-0.576c1.555,0,2.79,0.442,3.704,1.325c1.052,1.004,1.578,2.437,1.578,4.301v18.705h0.67V135.79
		c0-1.987-0.572-3.58-1.716-4.776c-1.053-1.102-2.472-1.652-4.255-1.652c-1.74,0-3.192,0.682-4.359,2.045
		c-1.167-1.363-2.609-2.045-4.325-2.045c-1.761,0-3.169,0.551-4.221,1.652c-1.145,1.196-1.716,2.789-1.716,4.776v18.743h0.715
		v-18.705c0-1.864,0.502-3.297,1.509-4.301c0.915-0.883,2.161-1.325,3.739-1.325C9.5,130.202,10.724,130.753,11.501,131.857
		L11.501,131.857z"/>
	<path d="M11.785,136.539v17.994H12.5v-17.994c0-1.051,0.319-2.091,0.958-3.119c0.775-1.241,1.791-1.863,3.047-1.863
		c1.026,0,1.939,0.395,2.738,1.183c0.776,0.789,1.164,1.816,1.164,3.083v18.711h0.714V135.79c0-1.58-0.441-2.813-1.325-3.699
		s-1.978-1.328-3.286-1.328c-1.031,0-1.949,0.335-2.752,1.005c-0.803,0.67-1.341,1.506-1.616,2.51
		c-0.275-1.004-0.802-1.84-1.579-2.51c-0.779-0.67-1.693-1.005-2.747-1.005c-1.328,0-2.402,0.431-3.226,1.293
		c-0.893,0.909-1.339,2.154-1.339,3.734v18.743h0.67v-18.711c0-1.267,0.388-2.294,1.163-3.083c0.775-0.788,1.686-1.183,2.734-1.183
		c1.23,0,2.234,0.622,3.008,1.863C11.466,134.448,11.785,135.488,11.785,136.539L11.785,136.539z"/>
	<path d="M4.593,135.817v18.716h0.67v-18.722c0-0.765,0.233-1.422,0.702-1.973c0.468-0.551,1.079-0.825,1.832-0.825
		s1.393,0.395,1.918,1.184c0.456,0.741,0.685,1.519,0.685,2.331v18.005h0.714v-17.998c0-1.005-0.32-1.948-0.961-2.833
		c-0.664-0.933-1.442-1.398-2.334-1.398c-0.869,0-1.625,0.37-2.266,1.111C4.914,134.108,4.593,134.909,4.593,135.817L4.593,135.817z
		"/>
	<path d="M19.737,154.533v-18.716c0-0.908-0.322-1.709-0.963-2.402c-0.643-0.741-1.398-1.111-2.269-1.111
		c-0.94,0-1.731,0.466-2.373,1.398c-0.642,0.885-0.962,1.828-0.962,2.833v17.998h0.715v-18.005c0-0.813,0.239-1.602,0.719-2.367
		c0.479-0.764,1.108-1.147,1.884-1.147c0.753,0,1.363,0.274,1.833,0.825c0.468,0.551,0.702,1.208,0.702,1.973v18.722H19.737
		L19.737,154.533z"/>
	<path d="M28.704,153.833c-1.762,0.049-3.259-0.562-4.494-1.829c-1.213-1.268-1.818-2.811-1.818-4.628v-10.691
		c0-1.722,0.627-3.24,1.883-4.556c1.255-1.315,2.705-1.974,4.35-1.974c1.575,0,3.002,0.664,4.281,1.992s1.883,2.828,1.815,4.502
		h0.714c0.137-2.008-0.491-3.705-1.886-5.093c-1.395-1.432-3.028-2.16-4.902-2.186c-1.92-0.047-3.555,0.635-4.903,2.045
		c-1.348,1.365-2.023,3.112-2.023,5.241v10.697c0,1.985,0.687,3.674,2.061,5.062c1.396,1.412,3.031,2.117,4.909,2.117
		c1.877,0,3.491-0.711,4.842-2.135c1.35-1.411,2.014-3.108,1.992-5.094h-0.715c0.068,1.698-0.526,3.204-1.784,4.52
		C31.791,153.116,30.351,153.786,28.704,153.833L28.704,153.833z"/>
	<path d="M28.806,152.385c-1.505,0.071-2.714-0.371-3.626-1.327c-0.936-0.979-1.404-2.211-1.404-3.693v-5.021h7.205v-0.747h-7.205
		v-4.949c0-1.387,0.478-2.581,1.434-3.586c0.956-1.004,2.094-1.506,3.415-1.506c1.297,0,2.423,0.515,3.38,1.545
		c0.956,1.006,1.4,2.191,1.332,3.556h0.714c0.091-1.581-0.412-2.945-1.511-4.095c-1.123-1.173-2.427-1.771-3.915-1.796
		c-1.556-0.047-2.873,0.527-3.949,1.724c-1.076,1.174-1.614,2.563-1.614,4.167v10.703c0,1.652,0.539,3.042,1.617,4.167
		c1.078,1.125,2.419,1.676,4.026,1.651c1.491-0.022,2.787-0.61,3.887-1.762c1.055-1.147,1.571-2.522,1.548-4.125h-0.714
		c-0.046,1.482-0.501,2.679-1.369,3.587C31.167,151.811,30.083,152.314,28.806,152.385L28.806,152.385z"/>
	<path fill="#FFFFFF" stroke="#FFFFFF" stroke-width="3.2634" stroke-miterlimit="2.6131" d="M31.984,136.662h0.682
		c0.115-1.195-0.262-2.224-1.13-3.085c-0.822-0.849-1.792-1.273-2.911-1.273c-0.617,0-1.182,0.108-1.695,0.322
		c-0.514,0.215-0.954,0.52-1.319,0.913c-0.366,0.394-0.651,0.854-0.856,1.378c-0.205,0.526-0.308,1.11-0.308,1.755v4.226h6.547
		v-0.701h-5.832v-3.523c0-1.079,0.33-1.973,0.989-2.68c0.66-0.707,1.49-1.037,2.491-0.988c1.022,0.071,1.847,0.43,2.473,1.075
		C31.739,134.725,32.029,135.585,31.984,136.662L31.984,136.662z"/>
	<path d="M28.753,151.002c-1.163,0.049-2.052-0.251-2.668-0.896s-0.923-1.555-0.923-2.727v-3.587h5.832v-0.748h-6.547v4.32
		c0,0.647,0.108,1.242,0.326,1.782c0.218,0.539,0.521,1.008,0.91,1.403c0.389,0.396,0.852,0.696,1.391,0.899
		c0.537,0.205,1.115,0.283,1.733,0.235c0.549-0.024,1.064-0.155,1.545-0.395c0.48-0.239,0.898-0.551,1.253-0.934
		s0.635-0.831,0.841-1.346c0.206-0.514,0.309-1.082,0.309-1.703h-0.684c-0.069,1.148-0.411,2.039-1.027,2.672
		C30.43,150.615,29.665,150.956,28.753,151.002L28.753,151.002z"/>
	<polygon points="33.653,154.44 37.941,141.918 33.653,129.361 32.967,129.361 37.255,141.918 32.967,154.44 33.653,154.44 	"/>
	<polygon points="42.916,154.44 43.602,154.44 39.279,141.918 43.602,129.361 42.778,129.325 38.902,140.802 34.99,129.361 
		34.304,129.361 38.558,141.775 34.304,154.44 34.99,154.44 38.936,142.891 42.916,154.44 	"/>
	<path fill="#FFFFFF" stroke="#FFFFFF" stroke-width="3.2634" stroke-miterlimit="2.6131" d="M39.279,137.97l2.95-8.609h-0.652
		L38.936,137l-2.607-7.64h-0.652l2.95,8.609c0.069,0.238,0.172,0.357,0.309,0.357C39.096,138.328,39.21,138.208,39.279,137.97
		L39.279,137.97z"/>
	<polygon points="44.253,154.44 44.94,154.44 40.617,141.918 44.94,129.361 44.253,129.361 40.308,140.914 40.034,141.918 
		44.253,154.44 	"/>
	<polygon points="47.024,129.319 46.31,129.319 46.31,154.498 47.024,154.498 47.024,129.319 	"/>
	<polygon points="48.364,154.498 48.364,129.319 47.694,129.319 47.694,154.498 48.364,154.498 	"/>
	<polygon points="49.749,154.498 49.749,129.319 49.034,129.319 49.034,154.498 49.749,154.498 	"/>
	<path d="M64.225,147.258h-0.67c0.068,1.697-0.524,3.204-1.78,4.519c-1.233,1.292-2.672,1.961-4.314,2.009
		c-1.599,0.024-3.05-0.596-4.351-1.861c-1.256-1.289-1.883-2.781-1.883-4.476v-10.956c0-1.719,0.627-3.199,1.883-4.439
		c1.233-1.218,2.684-1.85,4.351-1.898c1.574-0.024,3,0.646,4.28,2.007c1.278,1.338,1.883,2.843,1.814,4.514h0.67
		c0.046-1.934-0.628-3.642-2.022-5.123c-1.371-1.529-2.96-2.282-4.765-2.259c-1.852,0.049-3.475,0.777-4.869,2.188
		c-1.372,1.41-2.057,3.081-2.057,5.016v10.964c0,1.912,0.696,3.596,2.091,5.052c1.417,1.435,3.028,2.139,4.835,2.114
		c1.874-0.049,3.473-0.807,4.799-2.275C63.607,150.894,64.271,149.195,64.225,147.258L64.225,147.258z"/>
	<path d="M62.885,147.292H62.17c0.068,1.412-0.378,2.597-1.338,3.554c-0.96,1.006-2.093,1.521-3.395,1.544
		c-1.304,0.024-2.447-0.442-3.43-1.399c-0.961-0.958-1.44-2.131-1.44-3.519v-10.985c0-1.388,0.479-2.548,1.44-3.481
		c0.937-0.966,2.08-1.448,3.43-1.448c1.302,0,2.435,0.515,3.395,1.545c0.96,1.006,1.406,2.191,1.338,3.556h0.715
		c0.091-1.532-0.424-2.897-1.545-4.095c-1.1-1.197-2.394-1.796-3.88-1.796c-1.604,0-2.933,0.575-3.985,1.724
		c-1.052,1.102-1.579,2.49-1.579,4.167v10.812c0,1.557,0.549,2.909,1.649,4.059c1.121,1.15,2.427,1.7,3.915,1.651
		c1.486-0.022,2.791-0.621,3.914-1.794C62.473,150.187,62.976,148.824,62.885,147.292L62.885,147.292z"/>
	<path d="M61.5,147.275h-0.715c0.046,1.076-0.244,1.955-0.87,2.635c-0.628,0.682-1.454,1.021-2.478,1.021
		c-1.026,0-1.863-0.31-2.514-0.932c-0.648-0.621-0.973-1.47-0.973-2.545v-10.969c0-1.074,0.324-1.93,0.973-2.563
		c0.65-0.634,1.487-0.938,2.514-0.914c1.023,0.024,1.85,0.371,2.478,1.039c0.626,0.67,0.916,1.541,0.87,2.617H61.5
		c0.092-1.147-0.276-2.175-1.103-3.082c-0.826-0.885-1.813-1.327-2.96-1.327c-0.62,0-1.183,0.108-1.688,0.322
		c-0.506,0.216-0.946,0.521-1.324,0.915c-0.38,0.394-0.671,0.86-0.878,1.397c-0.206,0.538-0.309,1.13-0.309,1.774v10.789
		c0,1.195,0.413,2.199,1.239,3.012c0.803,0.813,1.79,1.219,2.961,1.219c1.146,0,2.134-0.443,2.96-1.327
		C61.224,149.45,61.592,148.422,61.5,147.275L61.5,147.275z"/>
	<path d="M77.544,147.493v-10.804c0-2.034-0.709-3.721-2.126-5.062c-1.417-1.339-3.052-2.01-4.901-2.01
		c-1.92,0-3.509,0.683-4.766,2.047c-1.28,1.34-1.92,3.015-1.92,5.024v10.804c0,1.915,0.662,3.603,1.988,5.062
		c1.325,1.459,2.891,2.189,4.697,2.189c1.987,0,3.645-0.694,4.972-2.082C76.859,151.274,77.544,149.55,77.544,147.493
		L77.544,147.493z M76.874,136.703v10.777c0,1.813-0.628,3.342-1.884,4.583c-1.281,1.265-2.767,1.91-4.457,1.934
		c-1.577,0-2.982-0.669-4.216-2.006c-1.212-1.384-1.816-2.888-1.816-4.511v-10.777c0-1.646,0.616-3.115,1.852-4.403
		c1.232-1.289,2.627-1.934,4.181-1.934c1.69,0,3.165,0.62,4.422,1.86C76.235,133.492,76.874,134.984,76.874,136.703L76.874,136.703z
		 M76.204,147.496v-10.798c0-1.578-0.571-2.941-1.717-4.09c-1.122-1.147-2.439-1.661-3.949-1.542
		c-1.466-0.095-2.725,0.431-3.777,1.578c-1.03,1.196-1.545,2.547-1.545,4.054v10.798c0,1.506,0.526,2.857,1.579,4.054
		c1.099,1.291,2.347,1.889,3.743,1.793c1.556,0.12,2.885-0.418,3.984-1.614C75.644,150.556,76.204,149.146,76.204,147.496
		L76.204,147.496z M75.489,136.696v10.803c0,1.412-0.488,2.621-1.468,3.625c-1.001,0.98-2.163,1.472-3.482,1.472
		c-1.253,0-2.333-0.513-3.243-1.54c-0.911-1.027-1.365-2.21-1.365-3.549v-10.785c0-0.716,0.113-1.373,0.341-1.97
		s0.546-1.11,0.955-1.541c0.41-0.43,0.894-0.77,1.451-1.021c0.558-0.251,1.179-0.376,1.861-0.376c1.389,0,2.549,0.467,3.482,1.4
		C75.001,134.147,75.489,135.307,75.489,136.696L75.489,136.696z M74.819,147.488v-10.783c0-0.646-0.108-1.23-0.324-1.756
		c-0.218-0.524-0.514-0.972-0.892-1.343c-0.376-0.37-0.827-0.651-1.353-0.843c-0.525-0.19-1.097-0.274-1.712-0.25
		c-1.12-0.071-2.056,0.322-2.81,1.183c-0.752,0.836-1.129,1.839-1.129,3.009v10.783c0,1.171,0.388,2.198,1.164,3.081
		c0.776,0.885,1.7,1.325,2.774,1.325c1.141,0,2.146-0.417,3.014-1.253C74.397,149.782,74.819,148.73,74.819,147.488L74.819,147.488z
		 M74.149,136.688v10.781c0,2.316-1.204,3.558-3.611,3.725c-0.963-0.071-1.749-0.459-2.355-1.164
		c-0.609-0.704-0.912-1.558-0.912-2.561v-10.781c0-1.074,0.286-1.923,0.859-2.543s1.375-0.932,2.408-0.932
		c1.101,0,1.978,0.306,2.631,0.914S74.149,135.589,74.149,136.688L74.149,136.688z"/>
	<polygon points="86.259,154.721 94.987,129.393 82.47,129.393 82.47,130.148 94.047,130.148 85.599,154.721 86.259,154.721 	"/>
	<polygon points="82.47,130.856 82.47,131.611 92.17,131.611 84.208,154.735 84.903,154.735 93.108,130.856 82.47,130.856 	"/>
	<polygon points="82.853,154.7 83.547,154.7 91.267,132.32 82.47,132.32 82.47,133.027 90.327,133.027 82.853,154.7 	"/>
	<path d="M106.421,147.644v-10.917c0-2.055-0.719-3.76-2.154-5.113c-1.438-1.354-3.094-2.032-4.97-2.032
		c-1.946,0-3.556,0.69-4.83,2.068c-1.297,1.354-1.946,3.047-1.946,5.077v10.917c0,1.936,0.673,3.641,2.017,5.114
		c1.344,1.476,2.93,2.213,4.76,2.213c2.016,0,3.694-0.701,5.039-2.104C105.725,151.464,106.421,149.724,106.421,147.644
		L106.421,147.644z M105.741,136.741v10.89c0,1.834-0.637,3.378-1.91,4.632c-1.298,1.278-2.804,1.93-4.517,1.953
		c-1.598,0-3.022-0.675-4.272-2.025c-1.229-1.399-1.842-2.919-1.842-4.56v-10.89c0-1.664,0.625-3.147,1.877-4.449
		c1.25-1.303,2.663-1.954,4.237-1.954c1.713,0,3.207,0.627,4.481,1.881C105.093,133.497,105.741,135.004,105.741,136.741
		L105.741,136.741z M105.062,147.647v-10.911c0-1.594-0.58-2.972-1.74-4.133c-1.138-1.158-2.472-1.678-4.002-1.559
		c-1.485-0.096-2.762,0.437-3.828,1.596c-1.044,1.208-1.566,2.573-1.566,4.096v10.911c0,1.522,0.534,2.888,1.601,4.096
		c1.114,1.305,2.378,1.909,3.794,1.813c1.578,0.121,2.924-0.423,4.037-1.631C104.493,150.74,105.062,149.315,105.062,147.647
		L105.062,147.647z M104.337,136.734v10.916c0,1.427-0.494,2.648-1.486,3.663c-1.016,0.992-2.192,1.487-3.53,1.487
		c-1.269,0-2.365-0.519-3.287-1.557s-1.384-2.233-1.384-3.585V136.76c0-0.725,0.115-1.388,0.346-1.991
		c0.23-0.603,0.553-1.122,0.968-1.557c0.416-0.435,0.906-0.778,1.472-1.032c0.564-0.253,1.193-0.38,1.886-0.38
		c1.406,0,2.583,0.472,3.53,1.415C103.843,134.159,104.337,135.331,104.337,136.734L104.337,136.734z M103.659,147.639v-10.896
		c0-0.652-0.11-1.244-0.33-1.774c-0.221-0.531-0.521-0.983-0.902-1.357c-0.383-0.374-0.84-0.657-1.371-0.851
		c-0.532-0.194-1.111-0.278-1.735-0.253c-1.135-0.073-2.083,0.325-2.847,1.194c-0.764,0.845-1.145,1.857-1.145,3.041v10.896
		c0,1.183,0.393,2.221,1.179,3.114c0.787,0.893,1.725,1.339,2.813,1.339c1.156,0,2.175-0.422,3.054-1.267
		C103.23,149.957,103.659,148.894,103.659,147.639L103.659,147.639z M102.979,136.726v10.894c0,2.341-1.221,3.596-3.66,3.765
		c-0.976-0.072-1.772-0.464-2.388-1.176c-0.617-0.712-0.925-1.574-0.925-2.589v-10.894c0-1.085,0.29-1.941,0.873-2.569
		c0.58-0.627,1.394-0.941,2.439-0.941c1.115,0,2.004,0.309,2.667,0.924C102.648,134.754,102.979,135.617,102.979,136.726
		L102.979,136.726z"/>
	<polygon points="86.353,154.668 95.08,129.34 82.563,129.34 82.563,130.095 94.142,130.095 85.692,154.668 86.353,154.668 	"/>
	<polygon points="82.563,130.803 82.563,131.558 92.264,131.558 84.302,154.681 84.998,154.681 93.202,130.803 82.563,130.803 	"/>
	<polygon points="82.946,154.647 83.642,154.647 91.36,132.266 82.563,132.266 82.563,132.974 90.421,132.974 82.946,154.647 	"/>
	<path d="M106.515,147.591v-10.917c0-2.055-0.719-3.76-2.155-5.114c-1.437-1.354-3.093-2.031-4.969-2.031
		c-1.946,0-3.556,0.689-4.829,2.067c-1.298,1.354-1.946,3.047-1.946,5.078v10.917c0,1.935,0.672,3.64,2.016,5.114
		c1.343,1.475,2.93,2.212,4.76,2.212c2.016,0,3.694-0.7,5.039-2.104C105.818,151.412,106.515,149.671,106.515,147.591
		L106.515,147.591z M105.835,136.688v10.89c0,1.834-0.637,3.378-1.911,4.632c-1.297,1.278-2.803,1.93-4.515,1.953
		c-1.599,0-3.022-0.675-4.273-2.026c-1.228-1.398-1.841-2.918-1.841-4.559v-10.89c0-1.664,0.625-3.147,1.876-4.449
		c1.25-1.303,2.663-1.954,4.238-1.954c1.712,0,3.206,0.627,4.48,1.881C105.187,133.444,105.835,134.952,105.835,136.688
		L105.835,136.688z M105.156,147.594v-10.911c0-1.594-0.58-2.972-1.74-4.133c-1.138-1.159-2.472-1.679-4.002-1.559
		c-1.486-0.096-2.763,0.436-3.829,1.596c-1.044,1.208-1.566,2.573-1.566,4.096v10.911c0,1.522,0.534,2.888,1.601,4.096
		c1.114,1.306,2.379,1.908,3.795,1.813c1.577,0.121,2.923-0.423,4.037-1.631C104.587,150.687,105.156,149.262,105.156,147.594
		L105.156,147.594z M104.432,136.681v10.916c0,1.427-0.496,2.648-1.487,3.663c-1.016,0.991-2.192,1.487-3.53,1.487
		c-1.269,0-2.364-0.519-3.287-1.557c-0.923-1.039-1.384-2.232-1.384-3.585v-10.898c0-0.725,0.115-1.388,0.347-1.991
		c0.229-0.603,0.552-1.122,0.968-1.557c0.415-0.435,0.905-0.778,1.471-1.032s1.194-0.38,1.886-0.38c1.407,0,2.584,0.472,3.53,1.415
		C103.936,134.106,104.432,135.278,104.432,136.681L104.432,136.681z M103.753,147.586v-10.896c0-0.652-0.11-1.244-0.33-1.775
		c-0.22-0.53-0.521-0.982-0.902-1.356s-0.839-0.657-1.371-0.851c-0.533-0.194-1.111-0.278-1.735-0.253
		c-1.135-0.073-2.084,0.325-2.847,1.194c-0.764,0.845-1.145,1.857-1.145,3.041v10.896c0,1.183,0.393,2.221,1.179,3.114
		c0.787,0.893,1.725,1.339,2.813,1.339c1.156,0,2.175-0.422,3.055-1.267C103.324,149.904,103.753,148.841,103.753,147.586
		L103.753,147.586z M103.073,136.673v10.894c0,2.341-1.22,3.596-3.659,3.765c-0.977-0.072-1.773-0.464-2.389-1.176
		c-0.616-0.712-0.924-1.574-0.924-2.589v-10.894c0-1.086,0.29-1.942,0.871-2.569s1.395-0.941,2.441-0.941
		c1.114,0,2.003,0.309,2.666,0.924C102.741,134.701,103.073,135.563,103.073,136.673L103.073,136.673z"/>
	<path d="M41.671,154.387h0.652l-2.951-8.608c-0.068-0.215-0.171-0.323-0.309-0.323c-0.16,0-0.274,0.108-0.343,0.323l-2.951,8.608
		h0.653l2.607-7.641L41.671,154.387L41.671,154.387z"/>
	<path d="M11.595,131.804c0.229,0.359,0.446,0.539,0.652,0.539c0.115,0,0.343-0.191,0.687-0.575
		c0.411-0.433,0.834-0.779,1.269-1.043c0.64-0.385,1.44-0.577,2.4-0.577c1.556,0,2.79,0.443,3.705,1.326
		c1.052,1.004,1.578,2.437,1.578,4.301v18.705h0.67v-18.743c0-1.988-0.572-3.58-1.716-4.777c-1.053-1.101-2.472-1.651-4.256-1.651
		c-1.74,0-3.192,0.682-4.358,2.045c-1.167-1.363-2.609-2.045-4.325-2.045c-1.762,0-3.169,0.551-4.222,1.651
		c-1.145,1.197-1.716,2.789-1.716,4.777v18.743h0.714v-18.705c0-1.864,0.502-3.297,1.51-4.301c0.914-0.883,2.161-1.326,3.738-1.326
		C9.594,130.148,10.818,130.701,11.595,131.804L11.595,131.804z"/>
	<path d="M11.879,136.485v17.995h0.714v-17.995c0-1.05,0.319-2.09,0.959-3.118c0.775-1.241,1.791-1.863,3.046-1.863
		c1.026,0,1.938,0.395,2.738,1.183c0.776,0.789,1.164,1.816,1.164,3.083v18.711h0.715v-18.743c0-1.58-0.442-2.813-1.325-3.699
		c-0.883-0.886-1.979-1.328-3.286-1.328c-1.032,0-1.95,0.334-2.752,1.005c-0.803,0.67-1.342,1.506-1.617,2.51
		c-0.275-1.004-0.801-1.84-1.579-2.51c-0.778-0.671-1.693-1.005-2.746-1.005c-1.328,0-2.403,0.431-3.227,1.293
		c-0.893,0.909-1.338,2.154-1.338,3.734v18.743h0.67v-18.711c0-1.267,0.387-2.294,1.162-3.083c0.774-0.788,1.686-1.183,2.734-1.183
		c1.23,0,2.233,0.622,3.008,1.863C11.561,134.395,11.879,135.435,11.879,136.485L11.879,136.485z"/>
	<path d="M4.688,135.764v18.716h0.67v-18.722c0-0.766,0.234-1.422,0.702-1.973c0.468-0.55,1.078-0.826,1.832-0.826
		c0.753,0,1.392,0.396,1.918,1.185c0.457,0.741,0.685,1.519,0.685,2.331v18.005h0.715v-17.999c0-1.004-0.321-1.948-0.961-2.833
		c-0.664-0.932-1.441-1.397-2.334-1.397c-0.87,0-1.625,0.37-2.266,1.111C5.008,134.055,4.688,134.856,4.688,135.764L4.688,135.764z"
		/>
	<path d="M19.831,154.48v-18.716c0-0.908-0.321-1.709-0.962-2.402c-0.642-0.741-1.398-1.111-2.269-1.111
		c-0.94,0-1.731,0.466-2.373,1.397c-0.642,0.885-0.962,1.829-0.962,2.833v17.999h0.714v-18.005c0-0.813,0.239-1.602,0.719-2.367
		c0.479-0.765,1.107-1.148,1.883-1.148c0.753,0,1.364,0.276,1.832,0.826c0.467,0.551,0.703,1.207,0.703,1.973v18.722H19.831
		L19.831,154.48z"/>
	<path d="M28.797,153.78c-1.761,0.049-3.259-0.562-4.493-1.829c-1.212-1.269-1.819-2.811-1.819-4.628v-10.691
		c0-1.723,0.628-3.24,1.884-4.557c1.255-1.314,2.706-1.973,4.35-1.973c1.576,0,3.002,0.664,4.281,1.992
		c1.278,1.328,1.883,2.828,1.815,4.501h0.714c0.137-2.008-0.491-3.704-1.886-5.092c-1.395-1.432-3.028-2.16-4.902-2.186
		c-1.92-0.047-3.554,0.635-4.902,2.045c-1.349,1.364-2.023,3.111-2.023,5.241v10.697c0,1.985,0.687,3.673,2.06,5.062
		c1.396,1.412,3.032,2.117,4.91,2.117c1.877,0,3.491-0.711,4.842-2.135c1.35-1.411,2.013-3.108,1.991-5.094h-0.714
		c0.068,1.698-0.526,3.204-1.784,4.52C31.885,153.063,30.444,153.732,28.797,153.78L28.797,153.78z"/>
	<path d="M28.9,152.333c-1.506,0.071-2.715-0.371-3.627-1.327c-0.935-0.979-1.402-2.211-1.402-3.693v-5.021h7.204v-0.746h-7.204
		v-4.949c0-1.387,0.477-2.582,1.433-3.586s2.094-1.506,3.415-1.506c1.297,0,2.423,0.515,3.38,1.545
		c0.956,1.006,1.4,2.19,1.331,3.556h0.715c0.09-1.581-0.413-2.945-1.511-4.095c-1.123-1.173-2.427-1.771-3.915-1.796
		c-1.557-0.047-2.873,0.527-3.949,1.724c-1.076,1.174-1.614,2.563-1.614,4.167v10.703c0,1.652,0.539,3.042,1.617,4.167
		s2.42,1.676,4.025,1.651c1.491-0.022,2.787-0.61,3.888-1.762c1.055-1.147,1.57-2.522,1.548-4.126H33.52
		c-0.046,1.483-0.502,2.68-1.368,3.588C31.261,151.757,30.178,152.261,28.9,152.333L28.9,152.333z"/>
	<path d="M32.078,136.609h0.682c0.114-1.195-0.262-2.224-1.13-3.085c-0.822-0.849-1.793-1.273-2.912-1.273
		c-0.617,0-1.181,0.107-1.695,0.322c-0.514,0.215-0.953,0.52-1.318,0.913c-0.366,0.394-0.651,0.853-0.856,1.378
		c-0.206,0.526-0.308,1.11-0.308,1.755v4.225h6.547v-0.7h-5.833v-3.524c0-1.078,0.33-1.972,0.99-2.679s1.489-1.037,2.49-0.989
		c1.024,0.072,1.848,0.431,2.473,1.075C31.833,134.672,32.123,135.533,32.078,136.609L32.078,136.609z"/>
	<path d="M28.847,150.95c-1.164,0.049-2.053-0.251-2.668-0.896c-0.616-0.646-0.924-1.555-0.924-2.727v-3.588h5.833v-0.747h-6.547
		v4.32c0,0.647,0.108,1.242,0.327,1.782c0.218,0.539,0.52,1.008,0.91,1.403c0.388,0.396,0.852,0.696,1.391,0.899
		c0.537,0.205,1.115,0.282,1.734,0.234c0.549-0.023,1.064-0.154,1.545-0.394c0.48-0.239,0.898-0.551,1.253-0.934
		s0.635-0.831,0.841-1.346c0.206-0.514,0.309-1.082,0.309-1.703h-0.685c-0.068,1.148-0.411,2.039-1.026,2.672
		C30.522,150.562,29.759,150.903,28.847,150.95L28.847,150.95z"/>
	<polygon points="33.746,154.387 38.035,141.866 33.746,129.308 33.06,129.308 37.349,141.866 33.06,154.387 33.746,154.387 	"/>
	<polygon points="43.009,154.387 43.695,154.387 39.373,141.866 43.695,129.308 42.873,129.272 38.996,140.75 35.084,129.308 
		34.398,129.308 38.652,141.722 34.398,154.387 35.084,154.387 39.03,142.838 43.009,154.387 	"/>
	<path d="M39.373,137.917l2.951-8.608h-0.652l-2.642,7.64l-2.607-7.64H35.77l2.951,8.608c0.069,0.239,0.172,0.358,0.309,0.358
		C39.189,138.275,39.305,138.156,39.373,137.917L39.373,137.917z"/>
	<polygon points="44.347,154.387 45.033,154.387 40.711,141.866 45.033,129.308 44.347,129.308 40.402,140.861 40.127,141.866 
		44.347,154.387 	"/>
	<polygon points="47.118,129.266 46.404,129.266 46.404,154.445 47.118,154.445 47.118,129.266 	"/>
	<polygon points="48.458,154.445 48.458,129.266 47.789,129.266 47.789,154.445 48.458,154.445 	"/>
	<polygon points="49.843,154.445 49.843,129.266 49.128,129.266 49.128,154.445 49.843,154.445 	"/>
	<path d="M64.318,147.205h-0.669c0.067,1.698-0.525,3.205-1.781,4.52c-1.233,1.291-2.672,1.961-4.315,2.009
		c-1.598,0.024-3.048-0.596-4.349-1.861c-1.257-1.289-1.883-2.781-1.883-4.476v-10.957c0-1.718,0.626-3.198,1.883-4.439
		c1.233-1.217,2.683-1.849,4.349-1.897c1.575-0.024,3.002,0.646,4.281,2.007c1.278,1.337,1.883,2.842,1.815,4.514h0.669
		c0.046-1.935-0.629-3.642-2.022-5.123c-1.372-1.529-2.96-2.282-4.766-2.259c-1.851,0.049-3.474,0.777-4.869,2.187
		c-1.371,1.41-2.056,3.082-2.056,5.017v10.964c0,1.911,0.696,3.596,2.091,5.052c1.417,1.435,3.028,2.139,4.833,2.114
		c1.874-0.049,3.474-0.807,4.8-2.275C63.701,150.84,64.364,149.142,64.318,147.205L64.318,147.205z"/>
	<path d="M62.979,147.238h-0.715c0.069,1.413-0.377,2.598-1.338,3.555c-0.96,1.006-2.093,1.521-3.396,1.544s-2.446-0.442-3.429-1.4
		c-0.96-0.958-1.44-2.13-1.44-3.518v-10.985c0-1.389,0.48-2.549,1.44-3.482c0.936-0.965,2.08-1.447,3.429-1.447
		c1.303,0,2.436,0.515,3.396,1.545c0.961,1.006,1.407,2.19,1.338,3.556h0.715c0.092-1.532-0.424-2.897-1.545-4.095
		c-1.1-1.197-2.393-1.796-3.881-1.796c-1.602,0-2.931,0.575-3.983,1.724c-1.052,1.102-1.579,2.49-1.579,4.167v10.812
		c0,1.557,0.549,2.909,1.649,4.059c1.121,1.15,2.426,1.7,3.914,1.651c1.488-0.022,2.792-0.621,3.915-1.795
		C62.566,150.134,63.07,148.771,62.979,147.238L62.979,147.238z"/>
	<path d="M61.594,147.222h-0.715c0.046,1.076-0.244,1.954-0.871,2.635c-0.626,0.682-1.453,1.021-2.478,1.021
		c-1.025,0-1.863-0.31-2.512-0.932c-0.649-0.621-0.974-1.47-0.974-2.545v-10.969c0-1.074,0.324-1.93,0.974-2.563
		c0.648-0.634,1.486-0.938,2.512-0.914c1.024,0.024,1.852,0.371,2.478,1.039c0.627,0.669,0.917,1.541,0.871,2.617h0.715
		c0.092-1.147-0.275-2.175-1.103-3.082c-0.825-0.885-1.813-1.327-2.961-1.327c-0.619,0-1.182,0.108-1.688,0.322
		c-0.505,0.216-0.945,0.521-1.324,0.915c-0.38,0.394-0.672,0.86-0.878,1.397c-0.207,0.538-0.309,1.129-0.309,1.774v10.789
		c0,1.195,0.413,2.198,1.239,3.011c0.803,0.813,1.79,1.219,2.96,1.219c1.147,0,2.136-0.442,2.961-1.326
		C61.318,149.397,61.686,148.37,61.594,147.222L61.594,147.222z"/>
	<path d="M77.638,147.44v-10.804c0-2.034-0.708-3.722-2.125-5.062s-3.052-2.01-4.902-2.01c-1.921,0-3.509,0.683-4.766,2.046
		c-1.28,1.34-1.92,3.016-1.92,5.025v10.804c0,1.915,0.662,3.603,1.988,5.062c1.325,1.459,2.891,2.189,4.697,2.189
		c1.987,0,3.645-0.694,4.972-2.082C76.952,151.22,77.638,149.498,77.638,147.44L77.638,147.44z M76.969,136.65v10.777
		c0,1.813-0.63,3.342-1.886,4.582c-1.28,1.266-2.766,1.91-4.456,1.935c-1.576,0-2.981-0.669-4.216-2.006
		c-1.212-1.384-1.816-2.888-1.816-4.511V136.65c0-1.647,0.616-3.116,1.851-4.404s2.628-1.934,4.182-1.934
		c1.69,0,3.165,0.621,4.422,1.861C76.328,133.439,76.969,134.931,76.969,136.65L76.969,136.65z M76.299,147.442v-10.797
		c0-1.578-0.573-2.941-1.718-4.09c-1.122-1.147-2.439-1.661-3.949-1.542c-1.466-0.096-2.725,0.431-3.777,1.577
		c-1.03,1.197-1.545,2.548-1.545,4.055v10.797c0,1.507,0.526,2.858,1.579,4.054c1.099,1.292,2.347,1.89,3.743,1.794
		c1.557,0.12,2.885-0.418,3.983-1.614C75.737,150.503,76.299,149.093,76.299,147.442L76.299,147.442z M75.583,136.643v10.803
		c0,1.412-0.488,2.62-1.468,3.624c-1.002,0.981-2.162,1.472-3.482,1.472c-1.252,0-2.334-0.512-3.243-1.54
		c-0.91-1.027-1.365-2.209-1.365-3.548v-10.785c0-0.716,0.113-1.373,0.341-1.97c0.228-0.598,0.546-1.11,0.956-1.541
		c0.409-0.431,0.893-0.771,1.451-1.021c0.557-0.251,1.178-0.376,1.86-0.376c1.388,0,2.549,0.467,3.482,1.4
		C75.095,134.094,75.583,135.254,75.583,136.643L75.583,136.643z M74.913,147.435v-10.783c0-0.646-0.108-1.23-0.324-1.756
		c-0.218-0.524-0.514-0.973-0.891-1.343c-0.378-0.37-0.829-0.651-1.354-0.843c-0.525-0.19-1.097-0.274-1.712-0.25
		c-1.12-0.071-2.056,0.322-2.809,1.183c-0.754,0.836-1.13,1.839-1.13,3.009v10.783c0,1.17,0.388,2.198,1.164,3.081
		c0.775,0.884,1.701,1.325,2.774,1.325c1.141,0,2.146-0.417,3.014-1.254C74.491,149.728,74.913,148.677,74.913,147.435
		L74.913,147.435z M74.243,136.635v10.78c0,2.316-1.203,3.559-3.611,3.726c-0.963-0.071-1.749-0.459-2.356-1.164
		c-0.607-0.704-0.911-1.558-0.911-2.562v-10.78c0-1.074,0.286-1.923,0.859-2.543s1.376-0.932,2.408-0.932
		c1.101,0,1.978,0.306,2.631,0.914S74.243,135.537,74.243,136.635L74.243,136.635z"/>
	<polygon fill="#519CD5" points="20.745,21.501 33.559,12.399 50.19,20.033 50.463,26.786 28.106,42.934 21.018,39.998 
		20.745,21.501 	"/>
	<polygon fill="#519CD5" points="74.455,12.399 88.905,23.263 88.087,41.172 81.271,43.227 59.188,26.199 58.914,19.446 
		74.455,12.399 	"/>
	<polygon fill="#519CD5" points="90.269,50.273 101.174,65.541 95.993,81.102 79.362,85.505 75.001,79.34 83.726,52.623 
		90.269,50.273 	"/>
	<polygon fill="#519CD5" points="24.835,51.742 33.014,79.046 28.106,85.211 12.021,80.221 7.386,64.073 18.291,49.687 
		24.835,51.742 	"/>
	<polygon fill="#519CD5" points="67.366,84.918 40.103,85.211 36.286,91.083 45.828,107.231 61.642,107.525 71.729,91.671 
		67.366,84.918 	"/>
	<polygon fill="#519CD5" points="54.28,39.705 70.639,52.329 64.641,71.706 43.647,72 38.194,52.035 54.28,39.705 	"/>
	<path fill="#519CD5" d="M68.092,113.571c12.828-3.616,23.791-12.121,31.028-23.529l-19.071,5.104L68.092,113.571L68.092,113.571z"
		/>
	<path fill="#519CD5" d="M108.362,59.338c0.014-0.53,0.021-1.061,0.021-1.594c0-13.104-4.097-25.188-10.999-34.878l-1.296,19.308
		L108.362,59.338L108.362,59.338z"/>
	<path fill="#519CD5" d="M36.905,3c5.429-1.945,11.241-3,17.286-3c6.553,0,12.835,1.24,18.651,3.511l-17.739,8.014L36.905,3
		L36.905,3z"/>
	<path fill="#519CD5" d="M0.003,58.357C0,58.153,0,57.949,0,57.745C0,44.393,4.252,32.1,11.392,22.319l1.359,20.59L0.003,58.357
		L0.003,58.357z"/>
	<path fill="#519CD5" d="M38.001,112.868c-12.171-4.055-22.498-12.561-29.3-23.729l18.623,5.262L38.001,112.868L38.001,112.868z"/>
</g>
</svg>
