<?xml version="1.0" encoding="utf-8"?>
<svg xmlns="http://www.w3.org/2000/svg" width="34.262" height="32.202">
<polygon points="21.872 1.7044 29.153 15.936 8.076 26.718 0.79373 12.496" clip-rule="evenodd" fill="#f9f208" fill-rule="evenodd"/>
<polygon points="10.727 9.0322 2.2174 13.713 11.623 9.2227 1.8499 14.55 11.255 10.06 2.741 14.74 12.151 10.25 2.3735 15.571 11.783 11.087 3.2694 15.762 12.674 11.277 2.9016 16.598 23.975 5.8168 21.872 1.7044 0.79373 12.496 10.204 8.0062 1.6899 12.686 11.1 8.1964 1.3213 13.523" clip-rule="evenodd" fill="#fd1205" fill-rule="evenodd"/>
<polygon points="6.5013 23.638 15.907 19.148 7.3969 23.829 16.803 19.339 7.0246 24.665 16.435 20.175 7.9202 24.855 17.33 20.365 7.553 25.691 16.958 21.201 8.4488 25.882 17.849 21.392 8.076 26.718 29.153 15.936 27.052 11.825 5.9734 22.612 15.384 18.122 6.8688 22.797 16.279 18.307" clip-rule="evenodd" fill="#fd1205" fill-rule="evenodd"/>
<path d="m33.457 9.4315c0.22754-4.5219-3.2729-8.3975-7.7972-8.6266-4.5217-0.2286-8.3917 3.2729-8.6203 7.7956-0.22886 4.5214 3.2686 8.3919 7.7911 8.6211 4.5217 0.22807 8.3959-3.2689 8.6253-7.79z" fill="#fff"/>
<polygon points="28.221 10.523 27.6 6.6526 23.731 6.0478 21.959 9.5434 24.732 12.307" fill="#0b256b"/>
<path d="m23.837 1.0837c-1.5719 0.27649-3.0368 1.0279-4.1968 2.1473l-0.2278 0.98397c1.0451-0.24818 2.1082-0.39528 3.1808-0.44502 0.64293-0.83528 1.3867-1.6145 2.1963-2.3145l-0.95249-0.37174z" fill="#0b256b"/>
<path d="m17.272 7.9075c-0.21166 1.5851 0.03916 3.2078 0.74479 4.6508l0.86147 0.52254c0.09128-1.0702 0.27622-2.1254 0.56356-3.162-0.58657-0.84189-1.093-1.7878-1.5065-2.7752l-0.6633 0.76384z" fill="#0b256b"/>
<path d="m21.731 16.256c1.4475 0.69717 3.0763 0.96281 4.6653 0.72521l0.75167-0.65748c-0.96545-0.39581-1.9119-0.90275-2.8106-1.4891-1.0051 0.27728-2.0664 0.46751-3.1358 0.55932l0.52942 0.862z" fill="#0b256b"/>
<path d="m31.05 14.598c1.1141-1.1544 1.855-2.6178 2.1315-4.1991l-0.39264-0.93079c-0.67865 0.79136-1.4539 1.5409-2.2902 2.2119-0.05424 1.0663-0.18653 2.1111-0.43153 3.1549l0.98292-0.2368z" fill="#0b256b"/>
<path d="m32.352 5.2223c-0.75485-1.4184-1.9161-2.5749-3.3329-3.3276l-1.0094 0.089957c0.55562 0.91518 1.0274 1.8817 1.4036 2.8871 0.99535 0.35057 1.9672 0.81729 2.8829 1.3748z" fill="#0b256b"/>
<path d="m3.2594 31.34v-4.0864h2.65v0.48339h-2.1619v1.2475h2.023v0.48259h-2.023v1.3914h2.2492v0.48259h-2.7373z" fill="#0b256b"/>
<path d="m6.5116 30.028 0.45693-0.04604c0.02196 0.20399 0.071966 0.37279 0.15081 0.50429 0.079639 0.1307 0.2024 0.23733 0.36935 0.31855 0.16616 0.08123 0.35374 0.12118 0.56197 0.12118 0.18494 0 0.34819-0.0299 0.49027-0.0926 0.14129-0.06059 0.24685-0.14552 0.31617-0.25267 0.069055-0.10663 0.10398-0.22357 0.10398-0.34872 0-0.12806-0.033866-0.23997-0.10028-0.33522-0.066939-0.094984-0.17674-0.17568-0.33046-0.23997-0.098159-0.042862-0.31617-0.10927-0.65272-0.19923-0.33708-0.090222-0.57255-0.17568-0.70749-0.25479-0.17542-0.10345-0.30559-0.22992-0.39131-0.38179-0.085459-0.15187-0.12859-0.32173-0.12859-0.50958 0-0.20664 0.052387-0.39978 0.15769-0.57943 0.10504-0.17965 0.25876-0.31617 0.46037-0.4093 0.20188-0.09287 0.4265-0.13996 0.67336-0.13996 0.27146 0 0.5117 0.04948 0.71913 0.14711 0.20796 0.09684 0.36803 0.2405 0.47968 0.43021 0.11165 0.1905 0.17145 0.40534 0.17991 0.64505l-0.46725 0.04075c-0.024871-0.25665-0.11006-0.45138-0.254-0.58208-0.14446-0.13229-0.35692-0.19791-0.63922-0.19791-0.29316 0-0.50694 0.06006-0.64134 0.17991-0.13441 0.1188-0.20108 0.26379-0.20108 0.43232 0 0.14711 0.047624 0.26776 0.14234 0.36274 0.093661 0.09366 0.33708 0.19103 0.73183 0.29051 0.39422 0.09975 0.66489 0.18653 0.81094 0.26035 0.21378 0.1098 0.37121 0.24791 0.47307 0.41645 0.1016 0.16722 0.1524 0.36062 0.1524 0.57943 0 0.21722-0.056091 0.42148-0.16774 0.61303-0.11139 0.19288-0.27199 0.3421-0.48101 0.44793-0.20902 0.10716-0.44449 0.16086-0.7059 0.16086-0.33205 0-0.60986-0.05424-0.83316-0.16219-0.22463-0.10716-0.40057-0.26934-0.52757-0.48577-0.12726-0.21643-0.19473-0.4601-0.20108-0.73342z" fill="#0b256b"/>
<path d="m10.092 31.34v-4.0875h1.3859c0.24368 0 0.42968 0.01349 0.55826 0.03942 0.18071 0.03334 0.33125 0.0971 0.45323 0.19103 0.1225 0.09366 0.2204 0.22569 0.29474 0.39396 0.07461 0.16854 0.11139 0.35427 0.11139 0.5572 0 0.34739-0.09895 0.64108-0.29765 0.88184-0.1987 0.23997-0.55747 0.36062-1.0766 0.36062h-0.94138v1.6632h-0.48789zm0.48789-2.1457h0.94773c0.31326 0 0.53551-0.06509 0.66701-0.19473 0.13176-0.13017 0.19764-0.313 0.19764-0.54847 0-0.17039-0.03889-0.31723-0.11615-0.43841-0.07752-0.12144-0.17991-0.20188-0.30638-0.23997-0.08149-0.02434-0.23204-0.03651-0.45217-0.03651h-0.93767z" fill="#0b256b"/>
<path d="m12.729 31.34 1.4049-4.0875h0.52995l1.5026 4.0875h-0.55377l-0.42439-1.2374h-1.5462l-0.3966 1.2374h-0.51646zm1.0567-1.6793h1.2491l-0.38364-1.1313c-0.11536-0.34422-0.20267-0.62679-0.26299-0.85036-0.04974 0.26299-0.11642 0.5236-0.20108 0.78263l-0.40137 1.1991z" fill="#0b256b"/>
<path d="m16.548 31.34v-4.0875h0.50006l1.924 3.2083v-3.2083h0.46751v4.0875h-0.50085l-1.9238-3.207v3.207z" fill="#0b256b"/>
<path d="m19.855 31.34 1.4047-4.0875h0.52995l1.5026 4.0875h-0.55377l-0.42439-1.2374h-1.5459l-0.39714 1.2374zm1.0559-1.6793h1.2491l-0.38311-1.1313c-0.11562-0.34422-0.2032-0.62679-0.26299-0.85036-0.04974 0.26299-0.11668 0.5236-0.20188 0.78263l-0.4011 1.1991z" fill="#0b256b"/>
<path d="m17.542 27.612v-0.25135c0.08228-0.08678 0.17753-0.13017 0.28522-0.13017 0.04154 0 0.07805 4e-3 0.11192 0.01164 0.03439 0.0082 0.09551 0.0299 0.18362 0.06509 0.08811 0.03572 0.14843 0.05292 0.17965 0.05292 0.03572 0 0.07779-0.01164 0.12515-0.03334 0.04736-0.02223 0.0934-0.05741 0.13785-0.10504v0.26035c-0.0299 0.03043-0.07117 0.06006-0.12409 0.08678-0.05292 0.02672-0.10768 0.04022-0.16404 0.04022-0.03175 0-0.06297-0.0034-0.09366-0.01164-0.0299-0.0077-0.07858-0.02619-0.14499-0.05424-0.09842-0.04286-0.17621-0.06376-0.23362-0.06376-0.08943 0-0.17753 0.04392-0.26299 0.13202v5.29e-4z" fill="#0b256b"/>
<path d="m25.531 29.065c-0.2241-0.08414-0.38682-0.19844-0.48842-0.34422-0.10213-0.14631-0.15266-0.30559-0.15266-0.48074 0-0.29739 0.11827-0.54265 0.35454-0.73659 0.23627-0.19473 0.57202-0.2913 1.0075-0.2913 0.431 0 0.7657 0.09631 1.0038 0.2913 0.23865 0.19394 0.35771 0.4392 0.35771 0.73659 0 0.18521-0.05503 0.35004-0.16483 0.49424-0.1098 0.14446-0.26379 0.25426-0.46169 0.33072 0.25162 0.08943 0.44264 0.2196 0.57414 0.39078 0.13017 0.17118 0.19605 0.36935 0.19605 0.59398 0 0.37015-0.13361 0.67018-0.4011 0.90275-0.26696 0.23098-0.6215 0.34739-1.0649 0.34739-0.41248 0-0.75511-0.09578-1.03-0.28733-0.32385-0.22595-0.48524-0.5363-0.48524-0.93026 0-0.21643 0.06006-0.41566 0.1815-0.59769 0.12091-0.1815 0.31273-0.3212 0.57361-0.41962zm0.09895 0.94164c0 0.21272 0.06138 0.37808 0.18388 0.49741 0.1225 0.11932 0.27596 0.17886 0.45958 0.17886 0.18018 0 0.32887-0.05741 0.44688-0.17224 0.11747-0.11456 0.17621-0.27913 0.17621-0.49556 0-0.18891-0.06006-0.34078-0.18018-0.45455-0.11933-0.11509-0.2712-0.17224-0.45455-0.17224-0.21352 0-0.37147 0.06509-0.47651 0.19526-0.10292 0.13017-0.15531 0.2704-0.15531 0.42306zm0.08546-1.7105c0 0.15266 0.04868 0.27119 0.14711 0.35692 0.09816 0.08546 0.22833 0.12832 0.39184 0.12832 0.16483 0 0.29765-0.04339 0.39581-0.12885 0.09975-0.08678 0.14922-0.2069 0.14922-0.35877 0-0.1442-0.04974-0.25902-0.14816-0.34607-0.0971-0.08625-0.22727-0.12885-0.38814-0.12885-0.16748 0-0.3003 0.04339-0.39978 0.1307-0.0979 0.08758-0.1479 0.2024-0.1479 0.3466z" fill="#0b256b"/>
<path d="m30.624 30.509v0.71357h-2.7199c0.03016-0.26881 0.11827-0.5236 0.26564-0.76358 0.14711-0.2413 0.43814-0.55985 0.87232-0.95699 0.34978-0.32199 0.56435-0.53948 0.64372-0.65457 0.10716-0.15716 0.15981-0.31353 0.15981-0.46804 0-0.17065-0.04604-0.30215-0.13917-0.39396-0.09207-0.09075-0.22092-0.13679-0.38444-0.13679-0.16139 0-0.28998 0.04815-0.38549 0.14314-0.09578 0.09684-0.15134 0.25611-0.16616 0.47889l-0.7731-0.07673c0.04524-0.42121 0.19103-0.72389 0.43365-0.90724s0.54636-0.27516 0.91016-0.27516c0.39978 0 0.71331 0.10583 0.94138 0.31802 0.22833 0.21272 0.3421 0.47704 0.3421 0.79295 0 0.17938-0.03254 0.3511-0.09763 0.51302-0.06429 0.16219-0.16854 0.33205-0.31035 0.51038-0.09366 0.118-0.26352 0.28786-0.50879 0.50879-0.24659 0.22225-0.4011 0.36935-0.46619 0.44185-0.06509 0.07276-0.1188 0.14314-0.15901 0.21219h1.5414z" fill="#0b256b"/>
</svg>