<?xml version="1.0" encoding="utf-8"?>
<!-- Generator: Adobe Illustrator 13.0.2, SVG Export Plug-In . SVG Version: 6.00 Build 14948)  -->
<!DOCTYPE svg PUBLIC "-//W3C//DTD SVG 1.0//EN" "http://www.w3.org/TR/2001/REC-SVG-20010904/DTD/svg10.dtd">
<svg version="1.0" id="Layer_1" xmlns="http://www.w3.org/2000/svg" xmlns:xlink="http://www.w3.org/1999/xlink" x="0px" y="0px"
	 width="195.75px" height="129.25px" viewBox="0 0 195.75 129.25" enable-background="new 0 0 195.75 129.25" xml:space="preserve">
<g>
	<path fill-rule="evenodd" clip-rule="evenodd" fill="#008C44" d="M89.166,100.543h-3.998c-0.069,0-0.162,0.047-0.208,0.117
		l-2.011,2.957l-6.956,10.354c-0.046,0.094-0.046,0.186,0,0.279l6.956,10.377l2.011,2.934c0.046,0.047,0.139,0.092,0.208,0.092
		h3.998c0.138,0,0.254-0.092,0.254-0.23v-26.623C89.42,100.66,89.304,100.543,89.166,100.543L89.166,100.543L89.166,100.543z
		 M86.555,124.025c0,0.139-0.093,0.23-0.231,0.23c-0.092,0-0.162-0.023-0.208-0.092l-3.167-4.668l-3.513-5.246
		c-0.069-0.094-0.069-0.186,0-0.279l3.513-5.223l3.167-4.691c0.139-0.207,0.439-0.115,0.439,0.139V124.025L86.555,124.025z"/>
	<path fill-rule="evenodd" clip-rule="evenodd" fill="#008C44" d="M158.801,97.471c0-3.26-2.682-5.941-5.94-5.941
		c-3.281,0-5.939,2.682-5.939,5.941c0,3.281,2.658,5.939,5.939,5.939C156.119,103.41,158.801,100.752,158.801,97.471L158.801,97.471
		L158.801,97.471z M149.765,97.471c0-1.688,1.386-3.098,3.096-3.098c1.688,0,3.098,1.41,3.098,3.098c0,1.709-1.41,3.096-3.098,3.096
		C151.15,100.566,149.765,99.18,149.765,97.471L149.765,97.471z"/>
	<path fill-rule="evenodd" clip-rule="evenodd" fill="#008C44" d="M152.86,104.842c-5.107,0-9.267,4.184-9.267,9.268
		c0,5.109,4.159,9.268,9.267,9.268c5.085,0,9.269-4.158,9.269-9.268C162.129,109.025,157.945,104.842,152.86,104.842L152.86,104.842
		L152.86,104.842z M152.86,120.535c-3.559,0-6.425-2.865-6.425-6.426c0-3.535,2.866-6.424,6.425-6.424
		c3.537,0,6.426,2.889,6.426,6.424C159.286,117.67,156.397,120.535,152.86,120.535L152.86,120.535z"/>
	<path fill-rule="evenodd" clip-rule="evenodd" fill="#008C44" d="M177.105,123.377c5.107,0,9.29-4.158,9.29-9.268
		c0-5.084-4.183-9.268-9.29-9.268c-5.131,0-9.292,4.184-9.292,9.268C167.813,119.219,171.975,123.377,177.105,123.377
		L177.105,123.377L177.105,123.377z M177.105,107.686c3.535,0,6.424,2.889,6.424,6.424c0,3.561-2.889,6.426-6.424,6.426
		c-3.56,0-6.426-2.865-6.426-6.426C170.68,110.574,173.546,107.686,177.105,107.686L177.105,107.686z"/>
	<path fill-rule="evenodd" clip-rule="evenodd" fill="#008C44" d="M128.617,104.842c-5.107,0-9.268,4.184-9.268,9.268
		c0,5.109,4.16,9.268,9.268,9.268c5.085,0,9.268-4.158,9.268-9.268C137.885,109.025,133.702,104.842,128.617,104.842
		L128.617,104.842L128.617,104.842z M128.617,120.535c-3.56,0-6.425-2.865-6.425-6.426c0-3.535,2.865-6.424,6.425-6.424
		c3.536,0,6.425,2.889,6.425,6.424C135.042,117.67,132.153,120.535,128.617,120.535L128.617,120.535z"/>
	<path fill-rule="evenodd" clip-rule="evenodd" fill="#008C44" d="M24.5,104.52c-0.092,0-0.162,0.045-0.208,0.092L9.016,127.283
		c-0.046,0.047-0.046,0.094-0.046,0.139c0,0.139,0.093,0.23,0.231,0.23h2.866c0.093,0,0.162-0.045,0.208-0.092l9.175-13.611
		c0.115-0.186,0.416-0.094,0.416,0.139v13.334c0,0.139,0.116,0.23,0.254,0.23h2.38c0.115,0,0.231-0.092,0.231-0.23V104.75
		C24.731,104.635,24.616,104.52,24.5,104.52L24.5,104.52z"/>
	<path fill-rule="evenodd" clip-rule="evenodd" fill="#008C44" d="M74.12,114.109c0-0.045,0-0.092-0.023-0.139l-8.99-13.311
		c-0.046-0.07-0.116-0.117-0.185-0.117H39.407c-0.093,0-0.162,0.047-0.208,0.117l-9.753,14.467
		c-0.046,0.068-0.116,0.115-0.208,0.115c-0.116,0-0.231-0.115-0.231-0.254v-14.189c0-0.139-0.116-0.256-0.231-0.256h-2.38
		c-0.139,0-0.231,0.117-0.231,0.256v23.527c0,0.23,0.3,0.322,0.416,0.139l14.144-20.963c0.046-0.047,0.116-0.092,0.185-0.092h22.487
		c0.069,0,0.162,0.045,0.208,0.092l7.049,10.469c0.023,0.047,0.046,0.094,0.046,0.139c0,0.047-0.023,0.094-0.046,0.141
		l-7.049,10.445c-0.046,0.07-0.139,0.115-0.208,0.115H42.366c-0.139,0-0.231-0.115-0.231-0.254V104.75c0-0.23-0.3-0.324-0.439-0.139
		l-15.3,22.672c-0.023,0.047-0.023,0.094-0.023,0.139c0,0.139,0.092,0.23,0.231,0.23h2.866c0.069,0,0.162-0.045,0.208-0.092
		l9.152-13.611c0.046-0.07,0.139-0.094,0.208-0.094c0.139,0,0.231,0.094,0.231,0.232v13.334c0,0.139,0.115,0.23,0.254,0.23h25.399
		c0.069,0,0.139-0.045,0.185-0.092l8.99-13.311C74.12,114.203,74.12,114.156,74.12,114.109L74.12,114.109z"/>
	<path fill-rule="evenodd" clip-rule="evenodd" fill="#008C44" d="M46.641,107.686h16.64c0.139,0,0.231-0.115,0.231-0.232v-2.381
		c0-0.137-0.093-0.23-0.231-0.23H43.798c-0.139,0-0.254,0.094-0.254,0.23v8.09c0,0.115,0.116,0.232,0.254,0.232h19.483
		c0.139,0,0.231-0.117,0.231-0.232v-2.381c0-0.137-0.093-0.254-0.231-0.254h-16.64c-0.139,0-0.231-0.092-0.231-0.23v-2.381
		C46.41,107.801,46.502,107.686,46.641,107.686L46.641,107.686z"/>
	<path fill-rule="evenodd" clip-rule="evenodd" fill="#008C44" d="M43.544,123.146c0,0.117,0.116,0.23,0.254,0.23h19.483
		c0.139,0,0.231-0.113,0.231-0.23v-2.381c0-0.139-0.093-0.23-0.231-0.23h-16.64c-0.139,0-0.231-0.115-0.231-0.254V117.9
		c0-0.115,0.092-0.23,0.231-0.23h16.64c0.139,0,0.231-0.117,0.231-0.232v-2.379c0-0.139-0.093-0.232-0.231-0.232H43.798
		c-0.139,0-0.254,0.094-0.254,0.232V123.146L43.544,123.146z"/>
	<path fill-rule="evenodd" clip-rule="evenodd" fill="#008C44" d="M74.836,112.539c0.093,0.139,0.301,0.139,0.394,0l7.834-11.625
		c0.023-0.023,0.046-0.07,0.046-0.115c0-0.139-0.116-0.256-0.231-0.256h-2.866c-0.092,0-0.162,0.047-0.208,0.117l-4.576,6.771
		c-0.046,0.068-0.116,0.115-0.185,0.115c-0.092,0-0.162-0.047-0.208-0.115l-4.576-6.771c-0.023-0.07-0.115-0.117-0.185-0.117H67.21
		c-0.185,0-0.301,0.23-0.208,0.371L74.836,112.539L74.836,112.539z"/>
	<path fill-rule="evenodd" clip-rule="evenodd" fill="#008C44" d="M75.23,115.682c-0.093-0.139-0.301-0.139-0.394,0l-7.834,11.602
		c-0.023,0.047-0.023,0.094-0.023,0.139c0,0.139,0.092,0.23,0.231,0.23h2.865c0.07,0,0.162-0.045,0.185-0.092l4.576-6.795
		c0.047-0.045,0.116-0.092,0.208-0.092c0.069,0,0.139,0.047,0.185,0.092l4.576,6.795c0.046,0.047,0.116,0.092,0.208,0.092h2.866
		c0.115,0,0.231-0.092,0.231-0.23c0-0.045-0.023-0.092-0.046-0.139L75.23,115.682L75.23,115.682z"/>
	<path fill-rule="evenodd" clip-rule="evenodd" fill="#008C44" d="M104.374,107.686c1.987,0,3.882,0.947,5.107,2.52
		c0.022,0.068,0.092,0.092,0.185,0.092h2.773c0.138,0,0.254-0.092,0.254-0.23c0-0.047-0.023-0.07-0.046-0.117
		c-1.549-3.119-4.761-5.107-8.273-5.107c-5.132,0-9.269,4.139-9.269,9.268c0,5.109,4.137,9.268,9.269,9.268
		c3.513,0,6.725-1.986,8.296-5.129h-0.022c0.022-0.023,0.046-0.07,0.046-0.094c0-0.139-0.116-0.254-0.254-0.254h-2.773
		c-0.093,0-0.162,0.047-0.208,0.092c-3.721,4.9-11.51,2.266-11.51-3.883C97.948,110.551,100.814,107.686,104.374,107.686
		L104.374,107.686z"/>
	<path fill-rule="evenodd" clip-rule="evenodd" fill="#008C44" d="M24.87,100.543h-2.866c-0.093,0-0.162,0.047-0.208,0.117
		L3.839,127.283c-0.023,0.047-0.023,0.094-0.023,0.139c0,0.139,0.092,0.23,0.231,0.23h2.866c0.069,0,0.162-0.045,0.185-0.092
		l17.98-26.646c0.023-0.023,0.023-0.07,0.023-0.115C25.102,100.66,25.009,100.543,24.87,100.543L24.87,100.543z"/>
	<path fill-rule="evenodd" clip-rule="evenodd" fill="#008C44" d="M179.555,100.773c-0.115-0.021-0.209-0.113-0.209-0.23
		c0-0.045,0.023-0.115,0.047-0.139l9.637-12.779c0.023-0.047,0.047-0.094,0.047-0.139c0-0.139-0.092-0.254-0.23-0.254h-2.982
		c-0.068,0-0.138,0.045-0.185,0.115l-12.272,16.248c-0.022,0.045-0.046,0.092-0.046,0.16c0,0.162,0.162,0.277,0.348,0.209
		c1.086-0.369,2.241-0.555,3.397-0.555c5.916,0,10.7,4.783,10.7,10.699c0,5.895-4.784,10.701-10.7,10.701
		c-5.895,0-10.701-4.807-10.701-10.701c0-2.334,0.763-4.598,2.172-6.447l15.092-20.037c0.047-0.047,0.047-0.094,0.047-0.139
		c0-0.139-0.093-0.254-0.231-0.254h-2.98c-0.07,0-0.14,0.045-0.186,0.115l-14.029,18.604c-0.485,0.648-0.924,1.363-1.294,2.104
		c-0.901-1.803-2.219-3.396-3.813-4.645c1.249-1.734,1.896-3.814,1.896-5.939c0-5.662-4.576-10.238-10.216-10.238
		c-8.319,0-13.149,9.428-8.297,16.154c-1.617,1.248-2.912,2.842-3.813,4.668c-2.52-4.992-7.327-7.488-12.134-7.488
		c-4.831,0-9.638,2.496-12.134,7.488c-2.403-4.783-7.095-7.373-11.855-7.488c-3.837-0.068-7.72,1.457-10.516,4.715
		c-0.046,0.047-0.116,0.07-0.185,0.07c-0.138,0-0.231-0.094-0.231-0.232v-4.32c0-0.139-0.116-0.256-0.254-0.256h-2.357
		c-0.139,0-0.254,0.117-0.254,0.256v26.623c0,0.139,0.115,0.23,0.254,0.23h2.357c0.139,0,0.254-0.092,0.254-0.23v-4.344
		c0-0.115,0.093-0.232,0.231-0.232c0.069,0,0.139,0.047,0.185,0.094c2.796,3.281,6.679,4.807,10.516,4.738
		c4.783-0.117,9.452-2.705,11.879-7.512c2.473,4.992,7.279,7.486,12.11,7.486c4.807,0.025,9.614-2.473,12.134-7.486
		c2.473,4.992,7.279,7.486,12.109,7.486c4.808,0.025,9.615-2.473,12.134-7.486c2.288,4.6,6.98,7.486,12.111,7.486
		c7.488,0,13.565-6.055,13.565-13.543C190.671,107.57,186.003,101.953,179.555,100.773L179.555,100.773L179.555,100.773z
		 M115.074,114.109c0,1.287,0.183,2.572,0.525,3.791h-1.08c-0.094,0-0.186,0.07-0.208,0.162c-1.826,4.6-5.755,6.725-9.684,6.771
		c-5.455,0.068-10.932-3.859-10.932-10.725c0-5.916,4.761-10.699,10.678-10.699c0.068,0,0.161,0.023,0.254,0.023
		c4.275,0.092,8.089,2.75,9.684,6.725c0.022,0.092,0.114,0.139,0.208,0.139h1.086C115.259,111.521,115.074,112.816,115.074,114.109
		L115.074,114.109L115.074,114.109z M128.617,124.811c-5.917,0-10.7-4.807-10.7-10.701c0-5.893,4.783-10.699,10.7-10.699
		c5.893,0,10.7,4.807,10.7,10.699C139.317,120.004,134.51,124.811,128.617,124.811L128.617,124.811L128.617,124.811z
		 M152.86,124.811c-5.916,0-10.7-4.807-10.7-10.701c0-4.414,2.704-8.365,6.771-9.961c0.093-0.021,0.162-0.115,0.162-0.207
		s-0.046-0.162-0.093-0.209c-2.195-1.34-3.513-3.721-3.513-6.262c0-4.068,3.305-7.373,7.372-7.373c4.068,0,7.373,3.305,7.373,7.373
		c0,2.541-1.317,4.922-3.49,6.262c-0.161,0.094-0.139,0.348,0.047,0.416c4.09,1.619,6.771,5.57,6.771,9.961
		C163.562,120.004,158.778,124.811,152.86,124.811L152.86,124.811z"/>
	<path fill-rule="evenodd" clip-rule="evenodd" d="M57.134,7.127H27.782c0.531-0.231,1.063-0.439,1.595-0.624l27.757,0.023
		c0.162,0,0.3,0.115,0.3,0.3C57.434,6.989,57.295,7.127,57.134,7.127L57.134,7.127z"/>
	<path fill-rule="evenodd" clip-rule="evenodd" d="M36.449,8.353H25.125c0.439-0.231,0.855-0.417,1.271-0.624h10.054
		c0.185,0,0.3,0.138,0.3,0.323C36.75,8.214,36.634,8.353,36.449,8.353L36.449,8.353z"/>
	<path fill-rule="evenodd" clip-rule="evenodd" d="M62.218,9.577H22.906c0.37-0.231,0.74-0.439,1.109-0.624h38.203
		c0.162,0,0.301,0.138,0.301,0.3C62.519,9.439,62.38,9.577,62.218,9.577L62.218,9.577z"/>
	<path fill-rule="evenodd" clip-rule="evenodd" d="M34.161,10.802H20.987c0.324-0.231,0.647-0.439,0.948-0.625h12.226
		c0.162,0,0.3,0.139,0.3,0.301C34.461,10.664,34.323,10.802,34.161,10.802L34.161,10.802z"/>
	<path fill-rule="evenodd" clip-rule="evenodd" d="M45.901,10.802h-5.478c-0.162,0-0.3-0.139-0.3-0.323
		c0-0.162,0.139-0.301,0.3-0.301h5.478c0.162,0,0.301,0.139,0.301,0.301C46.202,10.664,46.063,10.802,45.901,10.802L45.901,10.802z"
		/>
	<path fill-rule="evenodd" clip-rule="evenodd" d="M65.985,12.004H19.277c0.277-0.208,0.554-0.416,0.832-0.601h45.876
		c0.162,0,0.301,0.138,0.301,0.3C66.286,11.865,66.147,12.004,65.985,12.004L65.985,12.004z"/>
	<path fill-rule="evenodd" clip-rule="evenodd" d="M37.142,13.229H17.729c0.277-0.231,0.532-0.439,0.786-0.625l18.627,0.023
		c0.162,0,0.301,0.139,0.301,0.301C37.443,13.09,37.304,13.229,37.142,13.229L37.142,13.229z"/>
	<path fill-rule="evenodd" clip-rule="evenodd" d="M48.444,13.229h-7.696c-0.162,0-0.3-0.139-0.3-0.3c0-0.162,0.139-0.301,0.3-0.301
		h7.696c0.162,0,0.301,0.139,0.301,0.301C48.745,13.09,48.605,13.229,48.444,13.229L48.444,13.229z"/>
	<path fill-rule="evenodd" clip-rule="evenodd" d="M68.99,14.454H16.342c0.254-0.231,0.462-0.439,0.693-0.625l51.955,0.023
		c0.162,0,0.3,0.138,0.3,0.3C69.29,14.315,69.151,14.454,68.99,14.454L68.99,14.454z"/>
	<path fill-rule="evenodd" clip-rule="evenodd" d="M49.599,15.679H18.861c-0.162,0-0.301-0.139-0.301-0.3
		c0-0.185,0.139-0.301,0.301-0.301h30.738c0.162,0,0.301,0.116,0.301,0.301C49.9,15.54,49.761,15.679,49.599,15.679L49.599,15.679z"
		/>
	<path fill-rule="evenodd" clip-rule="evenodd" d="M68.088,16.903c0.185-0.208,0.393-0.416,0.578-0.624l-54.173-0.022
		c-0.185,0.185-0.37,0.393-0.601,0.646H68.088L68.088,16.903z"/>
	<path fill-rule="evenodd" clip-rule="evenodd" d="M17.012,17.504h28.889c0.162,0,0.301,0.139,0.301,0.3
		c0,0.185-0.139,0.324-0.301,0.324H17.012c-0.162,0-0.3-0.139-0.3-0.324C16.712,17.643,16.851,17.504,17.012,17.504L17.012,17.504z"
		/>
	<path fill-rule="evenodd" clip-rule="evenodd" d="M42.227,20.555H15.625c-0.162,0-0.3-0.139-0.3-0.3c0-0.162,0.139-0.3,0.3-0.3
		h26.602c0.162,0,0.3,0.138,0.3,0.3C42.527,20.417,42.389,20.555,42.227,20.555L42.227,20.555z"/>
	<path fill-rule="evenodd" clip-rule="evenodd" d="M40.84,23.005H15.164c-0.162,0-0.301-0.139-0.301-0.3s0.139-0.301,0.301-0.301
		H40.84c0.162,0,0.3,0.139,0.3,0.301S41.002,23.005,40.84,23.005L40.84,23.005z"/>
	<path fill-rule="evenodd" clip-rule="evenodd" d="M37.604,25.455H15.625c-0.162,0-0.3-0.138-0.3-0.3c0-0.185,0.139-0.324,0.3-0.324
		h21.979c0.162,0,0.3,0.139,0.3,0.324C37.905,25.316,37.766,25.455,37.604,25.455L37.604,25.455z"/>
	<path fill-rule="evenodd" clip-rule="evenodd" d="M27.458,27.882H18.63c-0.162,0-0.301-0.116-0.301-0.301
		c0-0.162,0.139-0.3,0.301-0.3h8.828c0.185,0,0.324,0.138,0.324,0.3C27.782,27.766,27.644,27.882,27.458,27.882L27.458,27.882z"/>
	<path fill-rule="evenodd" clip-rule="evenodd" d="M16.643,27.882h-1.017c-0.162,0-0.3-0.116-0.3-0.301c0-0.162,0.139-0.3,0.3-0.3
		h1.017c0.162,0,0.3,0.138,0.3,0.3C16.943,27.766,16.804,27.882,16.643,27.882L16.643,27.882z"/>
	<path fill-rule="evenodd" clip-rule="evenodd" d="M30.833,27.882c-0.162,0-0.301-0.116-0.301-0.301c0-0.162,0.139-0.3,0.301-0.3
		h1.248c0.162,0,0.3,0.138,0.3,0.3c0,0.186-0.139,0.301-0.3,0.301H30.833L30.833,27.882z"/>
	<path fill-rule="evenodd" clip-rule="evenodd" d="M37.835,27.882H36.61c-0.185,0-0.3-0.116-0.3-0.301c0-0.162,0.115-0.3,0.3-0.3
		h1.225c0.162,0,0.3,0.138,0.3,0.3C38.136,27.766,37.997,27.882,37.835,27.882L37.835,27.882z"/>
	<path fill-rule="evenodd" clip-rule="evenodd" d="M17.105,30.331h-1.017c-0.162,0-0.301-0.139-0.301-0.3s0.139-0.3,0.301-0.3h1.017
		c0.162,0,0.3,0.139,0.3,0.3S17.267,30.331,17.105,30.331L17.105,30.331z"/>
	<path fill-rule="evenodd" clip-rule="evenodd" d="M26.095,30.331h-6.541c-0.162,0-0.301-0.139-0.301-0.3s0.139-0.3,0.301-0.3h6.541
		c0.162,0,0.3,0.139,0.3,0.3S26.257,30.331,26.095,30.331L26.095,30.331z"/>
	<path fill-rule="evenodd" clip-rule="evenodd" d="M38.067,30.331h-0.994c-0.185,0-0.323-0.139-0.323-0.3s0.139-0.3,0.323-0.3h0.994
		c0.162,0,0.3,0.139,0.3,0.3S38.229,30.331,38.067,30.331L38.067,30.331z"/>
	<path fill-rule="evenodd" clip-rule="evenodd" d="M25.864,32.781h-5.847c-0.162,0-0.3-0.138-0.3-0.301
		c0-0.185,0.139-0.323,0.3-0.323h5.847c0.162,0,0.301,0.139,0.301,0.323C26.165,32.643,26.026,32.781,25.864,32.781L25.864,32.781z"
		/>
	<path fill-rule="evenodd" clip-rule="evenodd" d="M26.326,35.231h-5.385c-0.185,0-0.324-0.139-0.324-0.324
		c0-0.162,0.139-0.3,0.324-0.3h5.385c0.162,0,0.3,0.139,0.3,0.3C26.626,35.092,26.488,35.231,26.326,35.231L26.326,35.231z"/>
	<path fill-rule="evenodd" clip-rule="evenodd" d="M31.85,35.231h-1.456c-0.185,0-0.323-0.139-0.323-0.324
		c0-0.162,0.139-0.3,0.323-0.3h1.456c0.162,0,0.301,0.139,0.301,0.3C32.15,35.092,32.011,35.231,31.85,35.231L31.85,35.231z"/>
	<path fill-rule="evenodd" clip-rule="evenodd" d="M32.081,37.658h-7.234c-0.162,0-0.3-0.139-0.3-0.301c0-0.161,0.138-0.3,0.3-0.3
		h7.234c0.162,0,0.3,0.139,0.3,0.3C32.381,37.519,32.243,37.658,32.081,37.658L32.081,37.658z"/>
	<path fill-rule="evenodd" clip-rule="evenodd" d="M34.831,40.107h-3.074c-0.162,0-0.301-0.139-0.301-0.3
		c0-0.185,0.139-0.324,0.301-0.324h3.074c0.185,0,0.323,0.139,0.323,0.324C35.154,39.969,35.016,40.107,34.831,40.107L34.831,40.107
		z"/>
	<path fill-rule="evenodd" clip-rule="evenodd" d="M35.293,42.557h-1.225c-0.162,0-0.3-0.139-0.3-0.323
		c0-0.162,0.139-0.301,0.3-0.301h1.225c0.185,0,0.324,0.139,0.324,0.301C35.617,42.418,35.479,42.557,35.293,42.557L35.293,42.557z"
		/>
	<path fill-rule="evenodd" clip-rule="evenodd" d="M50.963,42.557h-8.135c-0.162,0-0.3-0.139-0.3-0.323
		c0-0.162,0.139-0.301,0.3-0.301h8.135c0.185,0,0.324,0.139,0.324,0.301C51.287,42.418,51.148,42.557,50.963,42.557L50.963,42.557z"
		/>
	<path fill-rule="evenodd" clip-rule="evenodd" d="M37.604,44.984h-1.225c-0.185,0-0.3-0.139-0.3-0.3c0-0.162,0.116-0.3,0.3-0.3
		h1.225c0.162,0,0.3,0.138,0.3,0.3C37.905,44.845,37.766,44.984,37.604,44.984L37.604,44.984z"/>
	<path fill-rule="evenodd" clip-rule="evenodd" d="M55.585,44.984H40.054c-0.162,0-0.3-0.139-0.3-0.3c0-0.162,0.139-0.3,0.3-0.3
		h15.531c0.162,0,0.301,0.138,0.301,0.3C55.886,44.845,55.747,44.984,55.585,44.984L55.585,44.984z"/>
	<path fill-rule="evenodd" clip-rule="evenodd" d="M3.654,45.608h52.394c0.162,0,0.301,0.139,0.301,0.301
		c0,0.162-0.139,0.3-0.301,0.3H3.677c0-0.139-0.023-0.347-0.023-0.555V45.608L3.654,45.608z"/>
	<path fill-rule="evenodd" clip-rule="evenodd" d="M62.496,66.986H44.908c-0.185,0-0.3-0.139-0.3-0.324c0-0.161,0.115-0.3,0.3-0.3
		h17.588c0.162,0,0.3,0.139,0.3,0.3C62.796,66.848,62.657,66.986,62.496,66.986L62.496,66.986z"/>
	<path fill-rule="evenodd" clip-rule="evenodd" d="M59.26,69.391H44.677c-0.185,0-0.301-0.139-0.301-0.301
		c0-0.139,0.116-0.277,0.301-0.277H59.26c0.185,0,0.324,0.139,0.324,0.277C59.583,69.252,59.445,69.391,59.26,69.391L59.26,69.391z"
		/>
	<path fill-rule="evenodd" clip-rule="evenodd" d="M56.51,71.84H43.752c-0.162,0-0.3-0.139-0.3-0.301c0-0.186,0.138-0.301,0.3-0.301
		H56.51c0.162,0,0.3,0.115,0.3,0.301C56.81,71.701,56.672,71.84,56.51,71.84L56.51,71.84z"/>
	<path fill-rule="evenodd" clip-rule="evenodd" d="M68.99,73.064H17.012c-0.208-0.186-0.416-0.371-0.647-0.578l52.625-0.047
		c0.162,0,0.3,0.139,0.3,0.324C69.29,72.926,69.151,73.064,68.99,73.064L68.99,73.064z"/>
	<path fill-rule="evenodd" clip-rule="evenodd" d="M54.198,74.289H42.828c-0.162,0-0.3-0.139-0.3-0.322
		c0-0.162,0.139-0.301,0.3-0.301h11.371c0.162,0,0.301,0.139,0.301,0.301C54.499,74.15,54.36,74.289,54.198,74.289L54.198,74.289z"
		/>
	<path fill-rule="evenodd" clip-rule="evenodd" d="M65.985,75.514H20.109c-0.277-0.207-0.554-0.416-0.832-0.623h46.708
		c0.162,0,0.301,0.139,0.301,0.301C66.286,75.375,66.147,75.514,65.985,75.514L65.985,75.514z"/>
	<path fill-rule="evenodd" clip-rule="evenodd" d="M49.83,76.717h-7.696c-0.162,0-0.3-0.139-0.3-0.301s0.139-0.301,0.3-0.301h7.696
		c0.162,0,0.301,0.139,0.301,0.301S49.992,76.717,49.83,76.717L49.83,76.717z"/>
	<path fill-rule="evenodd" clip-rule="evenodd" d="M62.218,77.941H23.992c-0.346-0.186-0.716-0.393-1.063-0.602h39.289
		c0.162,0,0.301,0.139,0.301,0.301S62.38,77.941,62.218,77.941L62.218,77.941z"/>
	<path fill-rule="evenodd" clip-rule="evenodd" d="M47.057,79.166H41.21c-0.162,0-0.3-0.139-0.3-0.301s0.139-0.301,0.3-0.301h5.847
		c0.162,0,0.3,0.139,0.3,0.301S47.219,79.166,47.057,79.166L47.057,79.166z"/>
	<path fill-rule="evenodd" clip-rule="evenodd" d="M57.134,80.391H29.331c-0.485-0.186-1.017-0.393-1.548-0.602l29.352-0.021
		c0.162,0,0.3,0.139,0.3,0.322C57.434,80.252,57.295,80.391,57.134,80.391L57.134,80.391z"/>
	<path fill-rule="evenodd" clip-rule="evenodd" d="M43.821,81.615h-3.536c-0.162,0-0.301-0.139-0.301-0.301
		c0-0.184,0.139-0.322,0.301-0.322h3.536c0.185,0,0.324,0.139,0.324,0.322C44.145,81.477,44.006,81.615,43.821,81.615L43.821,81.615
		z"/>
	<path fill-rule="evenodd" clip-rule="evenodd" d="M46.433,4.215c-1.109-0.093-2.288-0.139-3.444-0.139
		c-1.155,0-2.288,0.046-3.443,0.139c-0.115,0.023-0.208,0.116-0.208,0.231c0,0.139,0.093,0.231,0.231,0.231h6.841
		c0.115,0,0.231-0.092,0.231-0.231C46.641,4.331,46.549,4.238,46.433,4.215L46.433,4.215z"/>
	<path fill-rule="evenodd" clip-rule="evenodd" d="M46.41,82.68c0.139,0,0.231-0.117,0.231-0.232s-0.116-0.23-0.231-0.23h-6.841
		c-0.301,0-0.324,0.439-0.023,0.463c1.155,0.092,2.288,0.16,3.466,0.16L46.41,82.68L46.41,82.68z"/>
	<path fill-rule="evenodd" clip-rule="evenodd" d="M66.494,18.729c-0.162,0.185-0.324,0.394-0.485,0.602H11.836
		c0.184-0.208,0.323-0.417,0.485-0.602H66.494L66.494,18.729z"/>
	<path fill-rule="evenodd" clip-rule="evenodd" d="M64.668,21.179c-0.139,0.185-0.277,0.393-0.416,0.601h-54.15
		c0.138-0.208,0.277-0.416,0.416-0.624L64.668,21.179L64.668,21.179z"/>
	<path fill-rule="evenodd" clip-rule="evenodd" d="M63.119,23.605c-0.115,0.185-0.208,0.393-0.323,0.578L8.6,24.23
		c0.138-0.231,0.254-0.439,0.369-0.647L63.119,23.605L63.119,23.605z"/>
	<path fill-rule="evenodd" clip-rule="evenodd" d="M61.802,26.056c-0.069,0.162-0.185,0.37-0.277,0.578L7.352,26.68
		c0.116-0.254,0.208-0.462,0.324-0.67L61.802,26.056L61.802,26.056z"/>
	<path fill-rule="evenodd" clip-rule="evenodd" d="M60.692,28.505c-0.069,0.163-0.138,0.371-0.231,0.579L6.289,29.106
		c0.092-0.231,0.185-0.439,0.277-0.647L60.692,28.505L60.692,28.505z"/>
	<path fill-rule="evenodd" clip-rule="evenodd" d="M59.791,30.956c-0.069,0.162-0.138,0.369-0.208,0.601H5.434
		c0.069-0.231,0.139-0.439,0.208-0.647L59.791,30.956L59.791,30.956z"/>
	<path fill-rule="evenodd" clip-rule="evenodd" d="M59.052,33.382c-0.023,0.162-0.092,0.346-0.139,0.554L4.74,34.006
		c0.069-0.278,0.116-0.462,0.185-0.671L59.052,33.382L59.052,33.382z"/>
	<path fill-rule="evenodd" clip-rule="evenodd" d="M58.497,35.832c-0.046,0.186-0.069,0.393-0.116,0.578l-54.15,0.023
		c0.023-0.208,0.069-0.416,0.116-0.624L58.497,35.832L58.497,35.832z"/>
	<path fill-rule="evenodd" clip-rule="evenodd" d="M58.082,38.281c-0.023,0.185-0.047,0.394-0.07,0.578l-54.15,0.023
		c0.023-0.208,0.046-0.416,0.07-0.624L58.082,38.281L58.082,38.281z"/>
	<path fill-rule="evenodd" clip-rule="evenodd" d="M57.85,40.708c-0.023,0.139-0.023,0.347-0.046,0.555l-54.15,0.069
		c0-0.277,0.023-0.485,0.046-0.693L57.85,40.708L57.85,40.708z"/>
	<path fill-rule="evenodd" clip-rule="evenodd" d="M57.758,43.158c0,0.069,0,0.185,0,0.3s0,0.231,0,0.347L3.585,43.759
		c0-0.186,0-0.416,0-0.647L57.758,43.158L57.758,43.158z"/>
	<path fill-rule="evenodd" clip-rule="evenodd" d="M57.896,46.833c0.023,0.208,0.023,0.416,0.046,0.601H40.748
		c-0.162,0-0.3-0.139-0.3-0.301c0-0.185,0.139-0.3,0.3-0.3H57.896L57.896,46.833z"/>
	<path fill-rule="evenodd" clip-rule="evenodd" d="M58.012,48.035c0.023,0.231,0.046,0.439,0.093,0.647L3.932,48.659
		c-0.023-0.185-0.047-0.393-0.07-0.601L58.012,48.035L58.012,48.035z"/>
	<path fill-rule="evenodd" clip-rule="evenodd" d="M58.174,49.259c0.046,0.231,0.069,0.439,0.115,0.647L39.13,49.884
		c-0.162,0-0.301-0.139-0.301-0.324c0-0.162,0.139-0.301,0.301-0.301H58.174L58.174,49.259z"/>
	<path fill-rule="evenodd" clip-rule="evenodd" d="M58.381,50.485c0.046,0.231,0.07,0.438,0.116,0.624H4.347
		c-0.046-0.185-0.092-0.393-0.116-0.601L58.381,50.485L58.381,50.485z"/>
	<path fill-rule="evenodd" clip-rule="evenodd" d="M58.613,51.709c0.046,0.208,0.092,0.416,0.139,0.624L37.304,52.31
		c-0.185,0-0.324-0.138-0.324-0.3c0-0.162,0.139-0.3,0.324-0.3H58.613L58.613,51.709z"/>
	<path fill-rule="evenodd" clip-rule="evenodd" d="M58.913,52.934c0.046,0.254,0.116,0.462,0.162,0.647L4.902,53.535
		c-0.046-0.139-0.093-0.347-0.138-0.531L58.913,52.934L58.913,52.934z"/>
	<path fill-rule="evenodd" clip-rule="evenodd" d="M59.237,54.159c0.046,0.231,0.115,0.416,0.185,0.624L36.379,54.76
		c-0.185,0-0.3-0.139-0.3-0.301c0-0.162,0.116-0.3,0.3-0.3H59.237L59.237,54.159z"/>
	<path fill-rule="evenodd" clip-rule="evenodd" d="M59.583,55.384c0.069,0.208,0.139,0.417,0.231,0.647L5.642,55.985
		c-0.069-0.185-0.139-0.393-0.208-0.601H59.583L59.583,55.384z"/>
	<path fill-rule="evenodd" clip-rule="evenodd" d="M60,56.586c0.092,0.254,0.162,0.462,0.254,0.67L37.535,57.21
		c-0.185,0-0.324-0.139-0.324-0.301c0-0.185,0.139-0.323,0.324-0.323H60L60,56.586z"/>
	<path fill-rule="evenodd" clip-rule="evenodd" d="M60.461,57.811c0.093,0.231,0.162,0.462,0.254,0.67L6.542,58.435
		c-0.069-0.162-0.162-0.393-0.23-0.602L60.461,57.811L60.461,57.811z"/>
	<path fill-rule="evenodd" clip-rule="evenodd" d="M60.947,59.036c0.116,0.231,0.208,0.439,0.301,0.647l-23.481-0.046
		c-0.185,0-0.323-0.116-0.323-0.301c0-0.162,0.138-0.3,0.323-0.3H60.947L60.947,59.036z"/>
	<path fill-rule="evenodd" clip-rule="evenodd" d="M61.501,60.261c0.116,0.254,0.231,0.462,0.324,0.647L7.652,60.862
		c-0.093-0.139-0.185-0.347-0.277-0.555L61.501,60.261L61.501,60.261z"/>
	<path fill-rule="evenodd" clip-rule="evenodd" d="M62.103,61.485c0.139,0.254,0.254,0.462,0.347,0.647l-23.088-0.046
		c-0.162,0-0.3-0.139-0.3-0.301s0.139-0.301,0.3-0.301H62.103L62.103,61.485z"/>
	<path fill-rule="evenodd" clip-rule="evenodd" d="M62.772,62.71c0.139,0.231,0.231,0.439,0.347,0.624l-54.15-0.023
		c-0.115-0.162-0.231-0.37-0.346-0.578L62.772,62.71L62.772,62.71z"/>
	<path fill-rule="evenodd" clip-rule="evenodd" d="M63.489,63.912c0.116,0.231,0.254,0.439,0.393,0.647l-21.979-0.023
		c-0.162,0-0.301-0.139-0.301-0.3c0-0.185,0.139-0.324,0.301-0.324H63.489L63.489,63.912z"/>
	<path fill-rule="evenodd" clip-rule="evenodd" d="M64.252,65.137c0.139,0.231,0.277,0.439,0.416,0.647l-54.173-0.023
		c-0.116-0.185-0.255-0.393-0.393-0.624H64.252L64.252,65.137z"/>
	<path fill-rule="evenodd" clip-rule="evenodd" d="M66.008,67.586c0.162,0.209,0.324,0.418,0.485,0.625l-54.173-0.023
		c-0.162-0.184-0.301-0.393-0.462-0.578L66.008,67.586L66.008,67.586z"/>
	<path fill-rule="evenodd" clip-rule="evenodd" d="M68.065,70.014c0.208,0.23,0.416,0.439,0.601,0.646L14.47,70.615
		c-0.162-0.162-0.347-0.371-0.532-0.555L68.065,70.014L68.065,70.014z"/>
	<path fill-rule="evenodd" clip-rule="evenodd" d="M137.122,7.127l29.421,0.023c-0.531-0.231-1.063-0.439-1.618-0.624h-27.803
		c-0.185,0-0.3,0.139-0.3,0.3C136.822,6.989,136.938,7.127,137.122,7.127L137.122,7.127z"/>
	<path fill-rule="evenodd" clip-rule="evenodd" d="M154.71,4.215c0.115,0.023,0.208,0.116,0.208,0.231
		c0,0.139-0.093,0.231-0.23,0.231h-6.842c-0.115,0-0.231-0.092-0.231-0.231c0-0.115,0.093-0.208,0.209-0.231
		c2.334-0.185,4.646-0.185,6.956,0.023L154.71,4.215L154.71,4.215z"/>
	<path fill-rule="evenodd" clip-rule="evenodd" d="M154.71,82.68c0.115,0,0.208-0.117,0.208-0.232s-0.093-0.23-0.23-0.23h-6.842l0,0
		c-0.115,0-0.231,0.115-0.231,0.23s0.093,0.232,0.209,0.232c1.155,0.092,2.311,0.16,3.443,0.16c1.179,0,2.334-0.068,3.513-0.16
		H154.71L154.71,82.68z"/>
	<path fill-rule="evenodd" clip-rule="evenodd" d="M169.132,8.353h-1.872c-0.186,0-0.324-0.139-0.324-0.301
		c0-0.185,0.139-0.323,0.324-0.323h0.601c0.485,0.231,0.878,0.439,1.294,0.647L169.132,8.353L169.132,8.353z"/>
	<path fill-rule="evenodd" clip-rule="evenodd" d="M170.264,8.954c0.416,0.23,0.763,0.439,1.11,0.647l-39.336-0.023
		c-0.162,0-0.301-0.138-0.301-0.324c0-0.162,0.139-0.3,0.301-0.3H170.264L170.264,8.954z"/>
	<path fill-rule="evenodd" clip-rule="evenodd" d="M153.739,10.802h-3.536c-0.186,0-0.323-0.139-0.323-0.323
		c0-0.162,0.138-0.301,0.323-0.301h3.536c0.161,0,0.3,0.139,0.3,0.301C154.039,10.664,153.9,10.802,153.739,10.802L153.739,10.802z"
		/>
	<path fill-rule="evenodd" clip-rule="evenodd" d="M173.269,10.802h-18.004c-0.162,0-0.301-0.139-0.301-0.323
		c0-0.162,0.139-0.301,0.301-0.301h17.079c0.348,0.231,0.647,0.417,0.948,0.625H173.269L173.269,10.802z"/>
	<path fill-rule="evenodd" clip-rule="evenodd" d="M128.271,12.004h46.708c-0.208-0.162-0.485-0.37-0.786-0.578l-45.922-0.023
		c-0.162,0-0.301,0.138-0.301,0.3C127.97,11.865,128.108,12.004,128.271,12.004L128.271,12.004z"/>
	<path fill-rule="evenodd" clip-rule="evenodd" d="M152.353,13.229c0.161,0,0.301-0.139,0.301-0.3c0-0.162-0.14-0.301-0.301-0.301
		h-4.923c-0.162,0-0.3,0.139-0.3,0.301c0,0.161,0.138,0.3,0.3,0.3H152.353L152.353,13.229z"/>
	<path fill-rule="evenodd" clip-rule="evenodd" d="M176.527,13.229c-0.231-0.186-0.485-0.393-0.74-0.601h-21.678
		c-0.162,0-0.301,0.139-0.301,0.301c0,0.161,0.139,0.3,0.301,0.3H176.527L176.527,13.229z"/>
	<path fill-rule="evenodd" clip-rule="evenodd" d="M125.266,14.454h52.648c-0.208-0.185-0.417-0.394-0.647-0.578l-52.001-0.023
		c-0.161,0-0.301,0.138-0.301,0.3C124.965,14.315,125.104,14.454,125.266,14.454L125.266,14.454z"/>
	<path fill-rule="evenodd" clip-rule="evenodd" d="M140.127,15.078h-0.994c-0.162,0-0.301,0.116-0.301,0.301
		c0,0.162,0.139,0.3,0.301,0.3h0.994c0.185,0,0.323-0.139,0.323-0.3C140.45,15.193,140.312,15.078,140.127,15.078L140.127,15.078z"
		/>
	<path fill-rule="evenodd" clip-rule="evenodd" d="M142.9,15.679c0.161,0,0.3-0.139,0.3-0.3c0-0.185-0.139-0.301-0.3-0.301h-1.226
		c-0.185,0-0.3,0.116-0.3,0.301c0,0.162,0.115,0.3,0.3,0.3H142.9L142.9,15.679z"/>
	<path fill-rule="evenodd" clip-rule="evenodd" d="M150.734,15.679c0.162,0,0.301-0.139,0.301-0.3c0-0.185-0.139-0.301-0.301-0.301
		h-1.225c-0.185,0-0.3,0.116-0.3,0.301c0,0.162,0.115,0.3,0.3,0.3H150.734L150.734,15.679z"/>
	<path fill-rule="evenodd" clip-rule="evenodd" d="M178.561,15.078H154.34c-0.161,0-0.301,0.116-0.301,0.301
		c0,0.162,0.14,0.3,0.301,0.3h24.845c-0.161-0.185-0.393-0.393-0.601-0.601H178.561L178.561,15.078z"/>
	<path fill-rule="evenodd" clip-rule="evenodd" d="M126.19,16.903h54.173c-0.185-0.208-0.369-0.416-0.555-0.601l-54.173-0.023
		c0.185,0.208,0.393,0.417,0.578,0.624H126.19L126.19,16.903z"/>
	<path fill-rule="evenodd" clip-rule="evenodd" d="M142.9,17.504h-2.612c-0.161,0-0.301,0.139-0.301,0.3
		c0,0.185,0.14,0.324,0.301,0.324h2.612c0.161,0,0.3-0.139,0.3-0.324C143.2,17.643,143.062,17.504,142.9,17.504L142.9,17.504z"/>
	<path fill-rule="evenodd" clip-rule="evenodd" d="M180.896,17.504h-35.777c-0.161,0-0.3,0.139-0.3,0.3
		c0,0.185,0.139,0.324,0.3,0.324h36.309c-0.162-0.185-0.324-0.393-0.508-0.601L180.896,17.504L180.896,17.504z"/>
	<path fill-rule="evenodd" clip-rule="evenodd" d="M182.42,19.331c-0.139-0.162-0.3-0.347-0.438-0.555l-54.22-0.047
		c0.208,0.254,0.37,0.439,0.532,0.647L182.42,19.331L182.42,19.331z"/>
	<path fill-rule="evenodd" clip-rule="evenodd" d="M182.883,19.955h-42.132c-0.162,0-0.301,0.138-0.301,0.3
		c0,0.162,0.139,0.3,0.301,0.3h42.57c-0.115-0.162-0.276-0.37-0.415-0.578L182.883,19.955L182.883,19.955z"/>
	<path fill-rule="evenodd" clip-rule="evenodd" d="M130.004,21.78h54.149c-0.092-0.162-0.23-0.369-0.369-0.577l-54.196-0.023
		c0.161,0.231,0.323,0.439,0.462,0.67L130.004,21.78L130.004,21.78z"/>
	<path fill-rule="evenodd" clip-rule="evenodd" d="M138.301,22.404h-2.172c-0.162,0-0.301,0.139-0.301,0.301s0.139,0.3,0.301,0.3
		h2.172c0.162,0,0.301-0.139,0.301-0.3S138.463,22.404,138.301,22.404L138.301,22.404z"/>
	<path fill-rule="evenodd" clip-rule="evenodd" d="M147.291,22.404h-6.771c-0.162,0-0.3,0.139-0.3,0.301s0.138,0.3,0.3,0.3h6.771
		c0.162,0,0.3-0.139,0.3-0.3S147.453,22.404,147.291,22.404L147.291,22.404z"/>
	<path fill-rule="evenodd" clip-rule="evenodd" d="M157.183,22.404h-7.673c-0.185,0-0.3,0.139-0.3,0.301s0.115,0.3,0.3,0.3h7.673
		c0.186,0,0.324-0.139,0.324-0.3S157.368,22.404,157.183,22.404L157.183,22.404z"/>
	<path fill-rule="evenodd" clip-rule="evenodd" d="M166.866,22.404h-3.998c-0.162,0-0.301,0.139-0.301,0.301s0.139,0.3,0.301,0.3
		h3.998c0.162,0,0.301-0.139,0.301-0.3S167.028,22.404,166.866,22.404L166.866,22.404z"/>
	<path fill-rule="evenodd" clip-rule="evenodd" d="M184.547,22.404h-15c-0.16,0-0.3,0.139-0.3,0.301s0.14,0.3,0.3,0.3h15.393
		c-0.092-0.162-0.231-0.37-0.369-0.578L184.547,22.404L184.547,22.404z"/>
	<path fill-rule="evenodd" clip-rule="evenodd" d="M131.482,24.23h54.173c-0.115-0.185-0.23-0.393-0.347-0.578l-54.173-0.046
		c0.139,0.231,0.255,0.439,0.37,0.647L131.482,24.23L131.482,24.23z"/>
	<path fill-rule="evenodd" clip-rule="evenodd" d="M140.82,24.831h-5.594c-0.185,0-0.323,0.139-0.323,0.324
		c0,0.162,0.139,0.3,0.323,0.3h5.594c0.185,0,0.323-0.138,0.323-0.3C141.144,24.97,141.005,24.831,140.82,24.831L140.82,24.831z"/>
	<path fill-rule="evenodd" clip-rule="evenodd" d="M148.886,24.831h-1.688c-0.161,0-0.3,0.139-0.3,0.324c0,0.162,0.139,0.3,0.3,0.3
		h1.688c0.186,0,0.324-0.138,0.324-0.3C149.21,24.97,149.071,24.831,148.886,24.831L148.886,24.831z"/>
	<path fill-rule="evenodd" clip-rule="evenodd" d="M157.183,24.831h-5.385c-0.161,0-0.301,0.139-0.301,0.324
		c0,0.162,0.14,0.3,0.301,0.3h5.385c0.186,0,0.324-0.138,0.324-0.3C157.507,24.97,157.368,24.831,157.183,24.831L157.183,24.831z"/>
	<path fill-rule="evenodd" clip-rule="evenodd" d="M168.484,24.831h-2.843c-0.186,0-0.301,0.139-0.301,0.324
		c0,0.162,0.115,0.3,0.301,0.3h2.843c0.161,0,0.301-0.138,0.301-0.3C168.785,24.97,168.646,24.831,168.484,24.831L168.484,24.831z"
		/>
	<path fill-rule="evenodd" clip-rule="evenodd" d="M172.09,24.831h13.89c0.116,0.231,0.231,0.416,0.323,0.624H172.09
		c-0.162,0-0.301-0.138-0.301-0.3C171.789,24.97,171.928,24.831,172.09,24.831L172.09,24.831z"/>
	<path fill-rule="evenodd" clip-rule="evenodd" d="M132.754,26.68h54.15c-0.093-0.185-0.185-0.393-0.277-0.601l-54.174-0.023
		c0.116,0.231,0.208,0.439,0.301,0.647V26.68L132.754,26.68z"/>
	<path fill-rule="evenodd" clip-rule="evenodd" d="M187.459,27.882c-0.07-0.139-0.162-0.347-0.255-0.555l-14.652-0.046
		c-0.162,0-0.3,0.138-0.3,0.3c0,0.186,0.138,0.301,0.3,0.301H187.459L187.459,27.882z"/>
	<path fill-rule="evenodd" clip-rule="evenodd" d="M169.408,27.882c0.162,0,0.301-0.116,0.301-0.301c0-0.162-0.139-0.3-0.301-0.3
		h-12.063c-0.186,0-0.301,0.138-0.301,0.3c0,0.186,0.115,0.301,0.301,0.301H169.408L169.408,27.882z"/>
	<path fill-rule="evenodd" clip-rule="evenodd" d="M154.433,27.281h-1.249c-0.161,0-0.3,0.138-0.3,0.3
		c0,0.186,0.139,0.301,0.3,0.301h1.249c0.162,0,0.3-0.116,0.3-0.301C154.732,27.419,154.595,27.281,154.433,27.281L154.433,27.281z"
		/>
	<path fill-rule="evenodd" clip-rule="evenodd" d="M150.504,27.882c0.161,0,0.3-0.116,0.3-0.301c0-0.162-0.139-0.3-0.3-0.3h-0.763
		c-0.185,0-0.301,0.138-0.301,0.3c0,0.186,0.116,0.301,0.301,0.301H150.504L150.504,27.882z"/>
	<path fill-rule="evenodd" clip-rule="evenodd" d="M138.532,27.281h-2.866c-0.162,0-0.301,0.138-0.301,0.3
		c0,0.186,0.139,0.301,0.301,0.301h2.866c0.161,0,0.3-0.116,0.3-0.301C138.832,27.419,138.693,27.281,138.532,27.281L138.532,27.281
		z"/>
	<path fill-rule="evenodd" clip-rule="evenodd" d="M187.713,28.505h-54.15c0.093,0.232,0.162,0.44,0.254,0.648l54.15-0.046
		c-0.069-0.162-0.161-0.37-0.254-0.578V28.505L187.713,28.505z"/>
	<path fill-rule="evenodd" clip-rule="evenodd" d="M157.807,30.331h30.6c-0.047-0.162-0.139-0.393-0.208-0.601h-30.392
		c-0.186,0-0.3,0.139-0.3,0.3S157.621,30.331,157.807,30.331L157.807,30.331z"/>
	<path fill-rule="evenodd" clip-rule="evenodd" d="M144.749,29.73h-10.724c0.093,0.208,0.162,0.439,0.254,0.647l10.47-0.046
		c0.161,0,0.3-0.139,0.3-0.3S144.91,29.73,144.749,29.73L144.749,29.73z"/>
	<path fill-rule="evenodd" clip-rule="evenodd" d="M188.614,30.956h-54.149c0.068,0.231,0.161,0.438,0.207,0.67l54.15-0.069
		c-0.046-0.162-0.116-0.37-0.186-0.601H188.614L188.614,30.956z"/>
	<path fill-rule="evenodd" clip-rule="evenodd" d="M162.637,32.781h26.556c-0.047-0.185-0.116-0.37-0.163-0.578l-26.393-0.046
		c-0.161,0-0.3,0.139-0.3,0.323C162.337,32.643,162.476,32.781,162.637,32.781L162.637,32.781z"/>
	<path fill-rule="evenodd" clip-rule="evenodd" d="M135.019,32.781h11.811c0.162,0,0.301-0.138,0.301-0.301
		c0-0.185-0.139-0.323-0.301-0.323h-11.972c0.069,0.254,0.115,0.439,0.185,0.647L135.019,32.781L135.019,32.781z"/>
	<path fill-rule="evenodd" clip-rule="evenodd" d="M189.354,33.382h-54.15c0.046,0.208,0.093,0.416,0.139,0.624h54.173
		c-0.047-0.208-0.116-0.417-0.161-0.601V33.382L189.354,33.382z"/>
	<path fill-rule="evenodd" clip-rule="evenodd" d="M174.17,35.231h14.121c0.185,0,0.323-0.139,0.323-0.324
		c0-0.162-0.139-0.3-0.323-0.3H174.17c-0.186,0-0.301,0.139-0.301,0.3C173.869,35.092,173.984,35.231,174.17,35.231L174.17,35.231z"
		/>
	<path fill-rule="evenodd" clip-rule="evenodd" d="M135.504,34.607h35.291c0.162,0,0.301,0.139,0.301,0.3
		c0,0.185-0.139,0.324-0.301,0.324h-35.151c-0.047-0.162-0.093-0.37-0.14-0.555V34.607L135.504,34.607z"/>
	<path fill-rule="evenodd" clip-rule="evenodd" d="M189.908,35.832h-54.149c0.046,0.254,0.092,0.463,0.115,0.647l54.15-0.046
		c-0.023-0.138-0.047-0.347-0.093-0.554L189.908,35.832L189.908,35.832z"/>
	<path fill-rule="evenodd" clip-rule="evenodd" d="M184.292,37.658h3.56c0.161,0,0.301-0.139,0.301-0.301
		c0-0.161-0.14-0.3-0.301-0.3h-3.56c-0.161,0-0.3,0.139-0.3,0.3C183.992,37.519,184.131,37.658,184.292,37.658L184.292,37.658z"/>
	<path fill-rule="evenodd" clip-rule="evenodd" d="M176.55,37.057h-1.687c-0.186,0-0.323,0.139-0.323,0.3
		c0,0.162,0.138,0.301,0.323,0.301h1.687c0.162,0,0.301-0.139,0.301-0.301C176.851,37.196,176.712,37.057,176.55,37.057
		L176.55,37.057z"/>
	<path fill-rule="evenodd" clip-rule="evenodd" d="M172.159,37.658h-8.136c-0.161,0-0.301-0.139-0.301-0.301
		c0-0.161,0.14-0.3,0.301-0.3h8.136c0.185,0,0.323,0.139,0.323,0.3C172.482,37.519,172.344,37.658,172.159,37.658L172.159,37.658z"
		/>
	<path fill-rule="evenodd" clip-rule="evenodd" d="M136.082,37.658h25.261c0.162,0,0.301-0.139,0.301-0.301
		c0-0.161-0.139-0.3-0.301-0.3H135.99c0.022,0.254,0.068,0.439,0.092,0.646V37.658L136.082,37.658z"/>
	<path fill-rule="evenodd" clip-rule="evenodd" d="M190.324,38.281h-54.149c0.022,0.254,0.046,0.439,0.068,0.647l54.15-0.046
		c-0.022-0.162-0.046-0.347-0.069-0.554V38.281L190.324,38.281z"/>
	<path fill-rule="evenodd" clip-rule="evenodd" d="M187.852,39.483h-2.635c-0.162,0-0.3,0.139-0.3,0.324c0,0.162,0.138,0.3,0.3,0.3
		h2.635c0.161,0,0.301-0.139,0.301-0.3C188.152,39.622,188.013,39.483,187.852,39.483L187.852,39.483z"/>
	<path fill-rule="evenodd" clip-rule="evenodd" d="M165.41,40.107h11.602c0.162,0,0.301-0.139,0.301-0.3
		c0-0.185-0.139-0.324-0.301-0.324H165.41c-0.185,0-0.301,0.139-0.301,0.324C165.109,39.969,165.226,40.107,165.41,40.107
		L165.41,40.107z"/>
	<path fill-rule="evenodd" clip-rule="evenodd" d="M136.359,40.107h26.37c0.161,0,0.3-0.139,0.3-0.3c0-0.185-0.139-0.324-0.3-0.324
		h-26.416c0.022,0.277,0.046,0.485,0.046,0.693V40.107L136.359,40.107z"/>
	<path fill-rule="evenodd" clip-rule="evenodd" d="M190.579,40.708h-54.173c0.022,0.208,0.022,0.416,0.046,0.624h54.15
		C190.603,41.125,190.579,40.917,190.579,40.708L190.579,40.708z"/>
	<path fill-rule="evenodd" clip-rule="evenodd" d="M187.852,41.933h-1.017c-0.161,0-0.301,0.139-0.301,0.301
		c0,0.185,0.14,0.323,0.301,0.323h1.017c0.161,0,0.301-0.139,0.301-0.323C188.152,42.072,188.013,41.933,187.852,41.933
		L187.852,41.933z"/>
	<path fill-rule="evenodd" clip-rule="evenodd" d="M167.028,42.557h9.521c0.162,0,0.301-0.139,0.301-0.323
		c0-0.162-0.139-0.301-0.301-0.301h-9.521c-0.185,0-0.323,0.139-0.323,0.301C166.705,42.418,166.844,42.557,167.028,42.557
		L167.028,42.557z"/>
	<path fill-rule="evenodd" clip-rule="evenodd" d="M136.498,42.557h28.058c0.185,0,0.323-0.139,0.323-0.323
		c0-0.162-0.139-0.301-0.323-0.301h-28.08c0,0.231,0.022,0.439,0.022,0.647V42.557L136.498,42.557z"/>
	<path fill-rule="evenodd" clip-rule="evenodd" d="M190.671,43.158h-54.173c0,0.116,0,0.208,0,0.3s0,0.185,0,0.277l54.173,0.023
		c0-0.116,0-0.208,0-0.301s0-0.185,0-0.277V43.158L190.671,43.158z"/>
	<path fill-rule="evenodd" clip-rule="evenodd" d="M174.239,44.984c0.162,0,0.301-0.139,0.301-0.3c0-0.162-0.139-0.3-0.301-0.3
		h-5.386c-0.161,0-0.3,0.138-0.3,0.3c0,0.162,0.139,0.3,0.3,0.3H174.239L174.239,44.984z"/>
	<path fill-rule="evenodd" clip-rule="evenodd" d="M136.476,44.984h29.929c0.162,0,0.301-0.139,0.301-0.3
		c0-0.162-0.139-0.3-0.301-0.3h-29.906C136.498,44.568,136.476,44.776,136.476,44.984L136.476,44.984z"/>
	<path fill-rule="evenodd" clip-rule="evenodd" d="M190.603,45.608h-54.15c-0.023,0.185-0.023,0.393-0.046,0.601h54.173
		c0-0.208,0.023-0.416,0.023-0.625V45.608L190.603,45.608z"/>
	<path fill-rule="evenodd" clip-rule="evenodd" d="M169.316,47.434h1.017c0.162,0,0.301-0.139,0.301-0.301
		c0-0.185-0.139-0.3-0.301-0.3h-1.017c-0.162,0-0.301,0.115-0.301,0.3C169.016,47.295,169.154,47.434,169.316,47.434L169.316,47.434
		z"/>
	<path fill-rule="evenodd" clip-rule="evenodd" d="M136.313,47.434h31.015c0.163,0,0.301-0.139,0.301-0.301
		c0-0.185-0.138-0.3-0.301-0.3h-30.969c0,0.139-0.023,0.347-0.046,0.554V47.434L136.313,47.434z"/>
	<path fill-rule="evenodd" clip-rule="evenodd" d="M190.394,48.035h-54.15c-0.022,0.162-0.046,0.37-0.068,0.578l54.149,0.046
		c0.023-0.254,0.047-0.462,0.069-0.67V48.035L190.394,48.035z"/>
	<path fill-rule="evenodd" clip-rule="evenodd" d="M174.701,49.884c0.162,0,0.3-0.139,0.3-0.324c0-0.162-0.138-0.301-0.3-0.301
		h-38.619c-0.023,0.162-0.069,0.37-0.092,0.578L174.701,49.884L174.701,49.884z"/>
	<path fill-rule="evenodd" clip-rule="evenodd" d="M190.024,50.485h-54.15c-0.023,0.161-0.069,0.369-0.115,0.554l54.149,0.069
		c0.069-0.254,0.093-0.462,0.139-0.67L190.024,50.485L190.024,50.485z"/>
	<path fill-rule="evenodd" clip-rule="evenodd" d="M135.504,52.31h36.886c0.185,0,0.323-0.138,0.323-0.3
		c0-0.162-0.139-0.3-0.323-0.3h-36.746c-0.047,0.139-0.093,0.347-0.14,0.555V52.31L135.504,52.31z"/>
	<path fill-rule="evenodd" clip-rule="evenodd" d="M189.516,52.934h-54.173c-0.046,0.186-0.093,0.393-0.139,0.601h54.15
		C189.399,53.327,189.469,53.12,189.516,52.934L189.516,52.934z"/>
	<path fill-rule="evenodd" clip-rule="evenodd" d="M138.209,54.76h32.355c0.161,0,0.3-0.139,0.3-0.301c0-0.162-0.139-0.3-0.3-0.3
		h-32.355c-0.163,0-0.302,0.139-0.302,0.3C137.907,54.622,138.046,54.76,138.209,54.76L138.209,54.76z"/>
	<path fill-rule="evenodd" clip-rule="evenodd" d="M188.822,55.384h-54.15c-0.046,0.139-0.139,0.37-0.207,0.578l54.149,0.023
		c0.092-0.231,0.162-0.462,0.231-0.67L188.822,55.384L188.822,55.384z"/>
	<path fill-rule="evenodd" clip-rule="evenodd" d="M142.6,57.21h26.347c0.162,0,0.301-0.139,0.301-0.301
		c0-0.185-0.139-0.323-0.301-0.323H142.6c-0.185,0-0.323,0.139-0.323,0.323C142.276,57.071,142.415,57.21,142.6,57.21L142.6,57.21z"
		/>
	<path fill-rule="evenodd" clip-rule="evenodd" d="M187.967,57.811h-54.172c-0.07,0.185-0.14,0.393-0.232,0.601l54.15,0.023
		c0.093-0.231,0.185-0.439,0.254-0.67V57.811L187.967,57.811z"/>
	<path fill-rule="evenodd" clip-rule="evenodd" d="M141.444,59.637h25.19c0.162,0,0.301-0.116,0.301-0.301
		c0-0.162-0.139-0.3-0.301-0.3h-25.19c-0.186,0-0.301,0.139-0.301,0.3C141.144,59.521,141.259,59.637,141.444,59.637L141.444,59.637
		z"/>
	<path fill-rule="evenodd" clip-rule="evenodd" d="M186.904,60.261h-54.15c-0.093,0.185-0.185,0.393-0.301,0.601h54.15
		c0.116-0.208,0.208-0.417,0.301-0.625V60.261L186.904,60.261z"/>
	<path fill-rule="evenodd" clip-rule="evenodd" d="M142.6,62.087h21.956c0.185,0,0.323-0.139,0.323-0.301s-0.139-0.301-0.323-0.301
		H142.6c-0.185,0-0.323,0.139-0.323,0.301S142.415,62.087,142.6,62.087L142.6,62.087z"/>
	<path fill-rule="evenodd" clip-rule="evenodd" d="M185.655,62.71h-54.173c-0.092,0.162-0.208,0.37-0.323,0.578l54.127,0.023
		c0.139-0.231,0.254-0.439,0.369-0.625V62.71L185.655,62.71z"/>
	<path fill-rule="evenodd" clip-rule="evenodd" d="M144.888,64.536h19.437c0.185,0,0.323-0.139,0.323-0.3
		c0-0.185-0.139-0.324-0.323-0.324h-19.437c-0.162,0-0.301,0.139-0.301,0.324C144.587,64.397,144.726,64.536,144.888,64.536
		L144.888,64.536z"/>
	<path fill-rule="evenodd" clip-rule="evenodd" d="M184.153,65.137h-54.149c-0.093,0.162-0.255,0.37-0.393,0.578l54.149,0.046
		c0.162-0.254,0.301-0.462,0.439-0.67L184.153,65.137L184.153,65.137z"/>
	<path fill-rule="evenodd" clip-rule="evenodd" d="M170.795,66.986c0.162,0,0.301-0.139,0.301-0.324c0-0.161-0.139-0.3-0.301-0.3
		h-1.479c-0.162,0-0.301,0.139-0.301,0.3c0,0.186,0.139,0.324,0.301,0.324H170.795L170.795,66.986z"/>
	<path fill-rule="evenodd" clip-rule="evenodd" d="M144.102,66.986h20.223c0.185,0,0.323-0.139,0.323-0.324
		c0-0.161-0.139-0.3-0.323-0.3h-20.223c-0.162,0-0.3,0.139-0.3,0.3C143.802,66.848,143.939,66.986,144.102,66.986L144.102,66.986z"
		/>
	<path fill-rule="evenodd" clip-rule="evenodd" d="M182.42,67.586h-54.173c-0.115,0.162-0.277,0.371-0.438,0.555l54.127,0.047
		c0.185-0.23,0.346-0.439,0.508-0.623L182.42,67.586L182.42,67.586z"/>
	<path fill-rule="evenodd" clip-rule="evenodd" d="M169.641,68.813h-1.919c-0.185,0-0.323,0.139-0.323,0.277
		c0,0.162,0.139,0.301,0.323,0.301h1.919c0.161,0,0.3-0.139,0.3-0.301C169.94,68.951,169.802,68.813,169.641,68.813L169.641,68.813z
		"/>
	<path fill-rule="evenodd" clip-rule="evenodd" d="M144.194,69.391h18.998c0.161,0,0.3-0.139,0.3-0.301
		c0-0.139-0.139-0.277-0.3-0.277h-18.998c-0.162,0-0.301,0.139-0.301,0.277C143.894,69.252,144.032,69.391,144.194,69.391
		L144.194,69.391z"/>
	<path fill-rule="evenodd" clip-rule="evenodd" d="M180.363,70.014H126.19c-0.162,0.186-0.37,0.393-0.555,0.602h54.15
		C179.994,70.406,180.179,70.199,180.363,70.014L180.363,70.014z"/>
	<path fill-rule="evenodd" clip-rule="evenodd" d="M168.253,71.238h-1.456c-0.185,0-0.322,0.115-0.322,0.301
		c0,0.162,0.138,0.301,0.322,0.301h1.456c0.162,0,0.301-0.139,0.301-0.301C168.554,71.354,168.415,71.238,168.253,71.238
		L168.253,71.238z"/>
	<path fill-rule="evenodd" clip-rule="evenodd" d="M145.813,71.84h14.375c0.161,0,0.3-0.139,0.3-0.301
		c0-0.186-0.139-0.301-0.3-0.301h-14.375c-0.162,0-0.301,0.115-0.301,0.301C145.512,71.701,145.65,71.84,145.813,71.84
		L145.813,71.84z"/>
	<path fill-rule="evenodd" clip-rule="evenodd" d="M177.914,72.439h-52.648c-0.161,0-0.301,0.139-0.301,0.324
		c0,0.162,0.14,0.301,0.301,0.301h51.978c0.254-0.23,0.463-0.416,0.693-0.625H177.914L177.914,72.439z"/>
	<path fill-rule="evenodd" clip-rule="evenodd" d="M146.274,74.289h12.526c0.161,0,0.301-0.139,0.301-0.322
		c0-0.162-0.14-0.301-0.301-0.301h-12.526c-0.162,0-0.301,0.139-0.301,0.301C145.974,74.15,146.112,74.289,146.274,74.289
		L146.274,74.289z"/>
	<path fill-rule="evenodd" clip-rule="evenodd" d="M174.979,74.891h-46.708c-0.162,0-0.301,0.139-0.301,0.301
		c0,0.184,0.139,0.322,0.301,0.322h45.876c0.347-0.254,0.624-0.439,0.879-0.646L174.979,74.891L174.979,74.891z"/>
	<path fill-rule="evenodd" clip-rule="evenodd" d="M147.661,76.115h7.233c0.162,0,0.301,0.139,0.301,0.301s-0.139,0.301-0.301,0.301
		h-7.233c-0.162,0-0.301-0.139-0.301-0.301S147.499,76.115,147.661,76.115L147.661,76.115z"/>
	<path fill-rule="evenodd" clip-rule="evenodd" d="M171.35,77.34h-39.312c-0.162,0-0.301,0.139-0.301,0.301s0.139,0.301,0.301,0.301
		h38.226c0.416-0.209,0.763-0.416,1.11-0.625L171.35,77.34L171.35,77.34z"/>
	<path fill-rule="evenodd" clip-rule="evenodd" d="M137.122,80.391h27.803c0.555-0.209,1.087-0.416,1.618-0.646l-29.421,0.023
		c-0.161,0-0.3,0.139-0.3,0.322C136.822,80.252,136.961,80.391,137.122,80.391L137.122,80.391z"/>
	<path fill-rule="evenodd" clip-rule="evenodd" fill="#FFFFFF" d="M136.498,43.458c0-21.702-17.703-39.382-39.382-39.382
		c-21.678,0-39.358,17.68-39.358,39.382c0,21.679,17.68,39.36,39.358,39.36C118.795,82.818,136.498,65.137,136.498,43.458
		L136.498,43.458z"/>
	<path fill-rule="evenodd" clip-rule="evenodd" fill="#EE3224" d="M107.331,5.417c-3.305-0.878-6.748-1.34-10.215-1.34
		c-3.42,0-6.841,0.439-10.169,1.34c-1.248,1.364-2.519,2.843-3.721,4.391c4.807,1.317,9.476,3.005,13.936,5.108
		c4.553-2.149,9.222-3.836,14.006-5.13c-1.248-1.41-2.52-2.912-3.837-4.346V5.417L107.331,5.417z"/>
	<path fill-rule="evenodd" clip-rule="evenodd" fill="#EE3224" d="M97.116,28.714c-5.223,2.45-9.984,5.916-13.982,10.168
		c0.693,5.847,2.52,11.44,5.362,16.571c2.843,0.485,5.731,0.762,8.62,0.762c2.935,0,5.848-0.277,8.713-0.832
		c2.797-5.13,4.6-10.724,5.315-16.524c-3.951-4.183-8.712-7.649-14.004-10.123L97.116,28.714L97.116,28.714z"/>
	<path fill-rule="evenodd" clip-rule="evenodd" fill="#EE3224" d="M64.113,22.011c-3.768,5.755-5.939,12.457-6.31,19.391
		c0.971,1.733,2.011,3.397,3.097,5.015c2.658-4.276,5.731-8.182,9.106-11.833c-0.647-4.877-0.809-9.892-0.555-14.884
		c-1.733,0.739-3.537,1.479-5.339,2.288V22.011L64.113,22.011z"/>
	<path fill-rule="evenodd" clip-rule="evenodd" fill="#EE3224" d="M130.143,22.011c3.791,5.824,5.963,12.526,6.31,19.46
		c-0.901,1.548-1.942,3.212-3.028,4.83c-2.635-4.044-5.686-7.95-9.06-11.602c0.347-3.582,0.556-7.002,0.556-10.446
		c0-1.479-0.047-2.935-0.116-4.415c1.849,0.67,3.675,1.41,5.454,2.219L130.143,22.011L130.143,22.011z"/>
	<path fill-rule="evenodd" clip-rule="evenodd" fill="#EE3224" d="M66.517,68.234c4.368,5.385,10.1,9.521,16.571,11.994
		c1.872-0.416,3.79-0.879,5.662-1.41c-3.166-3.721-5.939-7.857-8.366-12.156c-4.854-1.017-9.638-2.403-14.26-4.16
		c0.046,1.965,0.185,3.929,0.416,5.871L66.517,68.234L66.517,68.234z"/>
	<path fill-rule="evenodd" clip-rule="evenodd" fill="#EE3224" d="M128.155,62.479c-4.507,1.733-9.292,3.12-14.145,4.091
		c-2.474,4.275-5.27,8.389-8.366,12.248c1.872,0.578,3.79,1.041,5.709,1.434c6.354-2.52,12.063-6.68,16.408-12.041
		c0.186-1.918,0.324-3.882,0.416-5.847L128.155,62.479L128.155,62.479z"/>
</g>
</svg>
