<?xml version="1.0" encoding="UTF-8" standalone="no"?>
<!-- Created with Inkscape (http://www.inkscape.org/) -->

<svg
   xmlns:dc="http://purl.org/dc/elements/1.1/"
   xmlns:cc="http://creativecommons.org/ns#"
   xmlns:rdf="http://www.w3.org/1999/02/22-rdf-syntax-ns#"
   xmlns:svg="http://www.w3.org/2000/svg"
   xmlns="http://www.w3.org/2000/svg"
   xmlns:sodipodi="http://sodipodi.sourceforge.net/DTD/sodipodi-0.dtd"
   xmlns:inkscape="http://www.inkscape.org/namespaces/inkscape"
   width="254.56622"
   height="300"
   id="svg5019"
   version="1.1"
   inkscape:version="0.47 r22583"
   sodipodi:docname="New document 2">
  <defs
     id="defs5021">
    <inkscape:perspective
       sodipodi:type="inkscape:persp3d"
       inkscape:vp_x="0 : 526.18109 : 1"
       inkscape:vp_y="0 : 1000 : 0"
       inkscape:vp_z="744.09448 : 526.18109 : 1"
       inkscape:persp3d-origin="372.04724 : 350.78739 : 1"
       id="perspective5027" />
    <inkscape:perspective
       id="perspective5037"
       inkscape:persp3d-origin="0.5 : 0.33333333 : 1"
       inkscape:vp_z="1 : 0.5 : 1"
       inkscape:vp_y="0 : 1000 : 0"
       inkscape:vp_x="0 : 0.5 : 1"
       sodipodi:type="inkscape:persp3d" />
  </defs>
  <sodipodi:namedview
     id="base"
     pagecolor="#ffffff"
     bordercolor="#666666"
     borderopacity="1.0"
     inkscape:pageopacity="0.0"
     inkscape:pageshadow="2"
     inkscape:zoom="1.4"
     inkscape:cx="232.8163"
     inkscape:cy="133.54458"
     inkscape:document-units="px"
     inkscape:current-layer="layer1"
     showgrid="false"
     inkscape:window-width="1280"
     inkscape:window-height="750"
     inkscape:window-x="-8"
     inkscape:window-y="-8"
     inkscape:window-maximized="1" />
  <metadata
     id="metadata5024">
    <rdf:RDF>
      <cc:Work
         rdf:about="">
        <dc:format>image/svg+xml</dc:format>
        <dc:type
           rdf:resource="http://purl.org/dc/dcmitype/StillImage" />
        <dc:title></dc:title>
      </cc:Work>
    </rdf:RDF>
  </metadata>
  <g
     inkscape:label="Layer 1"
     inkscape:groupmode="layer"
     id="layer1"
     transform="translate(-189.3192,-431.27088)">
    <g
       transform="matrix(2.5128785,0,0,-2.5128785,-270.47789,1397.234)"
       id="g4754">
      <g
         transform="translate(257.611,303.55)"
         id="g1184">
        <path
           id="path1186"
           style="fill:#231f20;fill-opacity:1;fill-rule:nonzero;stroke:none"
           d="m 0,0 c -6.023,-6.764 -11.862,-9.697 -17.81,-8.9 -1.004,0.132 -2.047,0.283 -3.107,0.443 l 0.308,0.137 -0.563,0.707 -0.217,0.269 c 1.178,0 2.746,0.309 4.91,0.971 l 0.098,0.035 0.082,0.055 c 2.869,1.92 3.405,4.201 2.952,5.705 -0.226,0.742 -0.696,1.293 -1.241,1.512 3.007,1.683 6.022,5.15 6.963,8.384 l 0.083,0.299 -0.162,0.262 c -2.425,3.9 -7.354,6.484 -10.349,7.76 l 0.379,0.679 -0.726,0.289 c -0.938,0.375 -1.972,0.723 -3.067,1.038 0.907,0.267 1.767,0.58 2.574,0.939 l 0.086,-0.057 c 0,0 3.469,1.213 5.325,3.532 0.959,-0.598 2.687,-1.766 2.687,-1.766 0,0 1.705,0.652 3.324,4.074 0.788,1.658 1.224,4.192 1.224,4.192 l 2.715,-0.942 c 0,0 2.264,4.953 0.425,9.473 0.045,0.146 0.075,0.519 0.093,1.049 0.311,0.037 0.629,0.082 0.989,0.125 2.002,0.236 2.515,0.378 3.355,0.816 1.513,3.403 -0.918,6.299 -1.458,7.026 5.463,1.063 7.656,7.078 7.656,7.078 0,0 -6.389,1.745 -10.251,5.172 -0.408,0.362 -0.839,0.79 -1.291,1.26 l -0.002,0.004 c 1.67,1.037 3.021,2.012 3.98,2.687 -5.189,2.842 -6.8,8.357 -14.362,10.512 -2.526,0.72 -4.944,0.755 -7.196,0.365 -0.554,1.66 -1.61,3.185 -3.188,4.534 -7.688,-4.084 -16.805,-1.594 -22.809,-7.335 -1.869,-1.794 -2.592,-4.001 -2.641,-6.322 -4.372,-0.358 -7.221,-4.236 -7.221,-4.236 0,0 1.912,-0.94 2.998,-1.574 -9.326,-1.114 -10.404,-8.639 -10.404,-8.639 0,0 2.474,-0.217 4.192,-0.706 -1.457,-1.295 -2.643,-2.745 -3.502,-4.338 -0.725,-1.377 -1.097,-2.624 -1.287,-3.557 -0.2,-0.996 -0.2,-1.64 -0.19,-1.695 l 0.009,-0.804 c 0,0 3.432,-0.436 3.63,-0.491 -0.525,-0.697 -0.805,-1.449 -0.95,-2.144 -0.263,-1.314 -0.027,-2.428 -0.008,-2.51 l 0.198,-0.924 c 0,0 1.929,0.426 3.043,0.471 -0.128,-0.371 -0.028,-1.639 0.008,-1.982 0.277,-2.604 2.159,-4.592 3.193,-5.498 -1.273,0.41 -2.628,0.632 -4.039,0.632 -7.3,0 -13.22,-5.918 -13.22,-13.222 0,-5.266 3.087,-9.801 7.545,-11.928 0.024,-0.039 0.039,-0.078 0.065,-0.117 1.631,-2.42 5.859,-4.528 8.792,-4.983 0.797,-0.117 1.604,-0.179 2.409,-0.179 1.706,0 3.984,0.289 6.564,1.334 -0.038,-0.434 -0.074,-0.881 -0.108,-1.342 l -0.027,-0.412 -0.6,-2.287 -1.328,-3.532 -0.254,-0.65 0.175,-0.066 c -0.538,-1.481 -4.096,-11.311 -5.055,-13.127 l -0.073,-0.01 -0.245,-0.1 c -3.041,-1.258 -6.202,-4.445 -6.907,-6.972 -0.336,-1.231 -0.02,-2.01 0.306,-2.453 l 0.002,0 c 0.286,-0.389 0.93,-0.788 3.651,-1.075 1.674,-0.178 3.865,-0.273 6.174,-0.273 2.605,0 5.066,0.121 6.92,0.34 0.305,0.035 0.572,0.074 0.831,0.113 0.018,-0.014 0.034,-0.022 0.05,-0.039 0.021,0.019 0.023,0.033 0.035,0.051 0.22,0.035 0.414,0.072 0.603,0.109 0.12,-0.061 0.259,-0.107 0.45,-0.105 -0.064,0.001 -0.068,-0.026 -0.126,-0.024 0.227,-0.09 0.448,0.121 0.725,-0.025 0.156,0.217 0.363,-0.012 0.411,0.263 l -0.559,-0.064 c 0.312,0.07 0.613,0.393 1.132,0.238 -0.041,-0.056 -0.193,-0.129 -0.3,-0.172 0.153,-0.08 0.297,0.057 0.453,-0.029 -0.046,-0.273 -0.681,-0.057 -1.022,-0.268 0.166,-0.115 0.645,0.2 0.475,-0.099 0.242,0.379 0.601,-0.047 1.011,0.242 l -0.027,-0.162 c 0.068,0.025 0.202,0.101 0.322,0.096 l -0.219,-0.213 c 0.336,0.183 0.646,-0.158 0.968,-0.057 -0.672,-0.008 -0.153,0.195 -0.434,0.317 0.828,0.218 0.473,-0.43 1.399,-0.352 -0.125,-0.023 -0.469,0.098 -0.276,0.174 0.178,-0.033 0.411,-0.096 0.519,-0.186 0.612,0.037 -0.095,0.174 0.165,0.274 0.211,-0.202 0.305,0.08 0.572,0.144 l 0,-0.168 c 0.703,-0.105 0.189,0.352 0.82,0.221 l -0.269,-0.232 0.331,0.06 -0.071,-0.189 c 0.358,0.14 0.47,0.105 0.818,0.05 -0.081,0.116 0.044,0.305 0.357,0.309 0.211,-0.102 -0.119,-0.158 0.319,-0.135 -0.098,-0.103 -0.207,-0.236 -0.399,-0.084 -0.017,-0.054 -0.094,-0.105 -0.116,-0.156 0.227,-0.115 0.574,-0.025 0.729,-0.025 -0.057,0.006 -0.133,0.015 -0.168,0.041 l 0.633,0.228 c 0.103,-0.062 0.024,-0.111 -0.056,-0.162 0.128,0.018 0.219,0.096 0.406,0.109 -0.049,-0.134 -0.036,-0.275 -0.304,-0.339 l 0.608,0.152 c 0.04,-0.061 0.309,-0.164 0.233,-0.213 0.336,-0.08 0.824,0.264 1.271,0.158 0.022,0.026 0.067,0.051 0.161,0.071 0.422,-0.03 0.792,-0.198 1.289,-0.012 l 0.281,-0.244 c 0.389,0.056 -0.379,0.308 0.264,0.398 0.463,0.078 0.175,-0.205 0.336,-0.275 0.228,0.123 0.622,0.373 1.043,0.176 -0.14,-0.047 -0.247,-0.012 -0.375,-0.028 l 0.316,-0.135 c -0.385,-0.224 -0.667,-0.148 -0.362,-0.337 0.046,0.472 1.245,0.048 1.289,0.519 l 0.216,-0.098 c -0.063,0.004 -0.073,-0.023 -0.136,-0.019 0.412,-0.225 0.309,0.34 0.837,0.273 0.188,-0.035 0.315,-0.105 0.188,-0.162 l 0.413,0.117 c 0.12,-0.005 0.089,-0.091 -0.028,-0.08 l 0.626,0.035 -0.004,-0.011 c 0.09,0.074 0.294,0.187 0.395,0.236 0.155,-0.068 -0.082,-0.053 -0.041,-0.107 l 0.349,0.113 c 0.137,-0.123 -0.148,-0.242 -0.39,-0.223 0.327,-0.472 0.292,0.117 0.988,-0.156 l -0.325,-0.062 c 0.209,-0.266 0.469,-0.17 0.836,-0.338 -0.085,0.091 -0.742,0.423 -0.363,0.541 0.108,-0.035 0.246,-0.053 0.449,0.041 0.004,-0.166 0.2,-0.127 0.451,-0.116 l -0.017,-0.224 c 0.267,0.064 0.246,0.178 0.406,0.279 0.3,-0.023 0.361,-0.193 0.43,-0.34 0.484,-0.035 -0.332,0.276 0.236,0.319 0.398,-0.084 0.681,0.006 1.16,0.138 0.277,-0.078 -0.049,-0.138 0.049,-0.203 l 0.249,0.182 c 0.06,-0.006 0.041,-0.061 0.031,-0.088 0.206,0.068 0.02,0.221 0.346,0.281 0.086,0.238 0.647,-0.328 1.054,-0.088 0.015,-0.008 0.03,-0.013 0.048,-0.021 0.028,-0.057 -0.069,-0.119 -0.041,-0.192 0.129,0.041 0.218,0.071 0.296,0.094 0.554,-0.187 1.477,-0.363 3.081,-0.515 1.844,-0.172 4.302,-0.27 6.739,-0.27 7.302,0 9.219,0.682 9.792,1.189 0.023,-0.027 0.031,-0.054 -0.006,-0.087 0.082,0.043 0.156,0.121 0.326,0.128 0.334,-0.205 -0.379,-0.033 -0.127,-0.277 0.021,0.137 0.442,0.19 0.689,0.274 -0.077,0.214 -0.564,0.043 -0.812,-0.045 0,0.041 0.026,0.08 0.041,0.119 0.056,0.066 0.094,0.129 0.12,0.185 0.173,0.182 0.468,0.344 0.845,0.43 0.461,0.074 0.203,-0.188 0.281,-0.145 0.87,-0.052 0.742,0.51 1.461,0.297 0.286,-0.185 0.014,-0.369 0.075,-0.502 -0.375,-0.072 -0.575,0.118 -0.833,0.11 l 0.315,-0.09 c -0.117,-0.061 -0.371,-0.108 -0.508,-0.055 0.239,-0.168 1.469,-0.031 2.137,-0.187 0.12,0.062 0.326,0.129 0.228,0.203 l -0.211,-0.024 c -0.195,0.149 0.4,0.207 0.129,0.278 0.285,0.105 0.607,0.273 1.004,0.185 l 0.075,-0.213 c -0.008,0.063 -0.26,0.127 -0.372,0.063 0.166,0.094 0.614,-0.289 0.797,-0.01 l -0.282,0.149 c 0.286,0.105 0.636,0.334 0.995,0.263 -0.162,0.211 -0.086,-0.023 -0.338,0.223 0.221,-0.305 -0.907,0.012 -0.554,-0.307 -0.259,0.284 -0.446,0.117 -0.787,0.362 0.013,-0.071 0.122,-0.133 -0.18,-0.098 l -0.061,-0.063 -0.022,0.004 0.018,-0.007 c -0.013,-0.01 -0.013,-0.012 0.004,-0.004 0.071,-0.028 0.129,-0.067 0.153,-0.108 -0.149,-0.158 -0.623,-0.154 -0.786,-0.236 -0.173,0.033 0.079,0.08 -0.017,0.156 l -0.242,-0.125 c -0.022,0.154 -0.469,0.258 -0.052,0.348 l -0.375,0.008 c -0.222,0.087 -0.526,0.123 -0.714,0.058 -0.174,0.033 -0.441,-0.174 -0.29,-0.051 l -0.587,-0.097 -0.008,0.039 c -0.36,0.012 -0.737,-0.08 -1.131,-0.09 0.032,0.602 -0.143,1.293 -0.544,2.074 l 0,-0.004 c -1.458,2.836 -5.541,6.385 -7.715,7.184 l 0.028,0.008 -0.653,0.652 c -1.819,1.809 -4.572,4.934 -7.353,8.117 1.839,0.059 3.674,0.276 5.452,0.594 6.506,1.164 12.237,7.775 18.535,10.451 7.529,3.199 17.388,-0.92 18.31,5.891 C 26.646,11.695 8.891,9.988 0,0 m -25.626,11.816 0.012,0.09 c 0.659,-0.261 2.027,-0.785 3.44,-1.24 l 0.586,-0.189 0.171,0.375 c 0.603,-0.25 1.128,-0.493 1.588,-0.71 0.254,-0.119 0.487,-0.226 0.724,-0.337 -0.209,-0.098 -0.409,-0.207 -0.608,-0.325 -2.8,-1.713 -4.319,-2.935 -5.743,-4.699 -0.154,2.834 -0.22,5.578 -0.17,7.035 m -18.072,8.014 c -1.888,-0.406 -3.062,-1.732 -3.79,-3.074 -0.616,4.232 -3.225,7.807 -6.853,9.746 0,0.473 0.372,1.283 1.317,1.523 1.123,-2.232 6.401,-4.601 6.519,-4.646 l 0.01,0.006 c 1.268,-1.194 3.009,-2.289 5.386,-3.139 l -0.003,0 c -0.1,-0.014 -0.198,-0.025 -0.297,-0.039 l 0.002,0 c -0.883,-0.119 -1.668,-0.244 -2.291,-0.377 m 17.667,-52.818 c 0.108,0.191 0.188,0.099 0.35,0.043 -0.093,-0.032 -0.279,-0.141 -0.35,-0.043 m 4.021,1.138 0.015,0.026 c -0.731,0.195 -0.317,-0.09 -1.037,0.131 l 0.04,-0.168 c -0.067,-0.356 -0.64,0.213 -1.056,0.074 l 0.147,-0.094 c -0.226,-0.123 -0.635,0.484 -0.867,0.533 -0.049,0.028 0.08,0.047 0.151,0.071 -0.603,0.212 -0.081,-0.217 -0.526,-0.268 -0.081,0.115 0.106,0.299 -0.194,0.322 -0.152,0.094 -0.876,-0.382 -1.285,-0.158 0.091,-0.092 0.18,-0.184 -0.031,-0.25 -0.317,-0.031 -0.86,0.342 -1.151,0.057 -0.034,0.023 -0.052,0.051 -0.052,0.074 -0.246,-0.074 -0.792,-0.123 -0.94,-0.277 -0.222,0.572 -1.513,-0.284 -1.509,0.25 l -0.751,-0.032 0.024,0.055 c -0.48,0.035 -0.65,-0.09 -0.82,-0.219 -0.107,0.035 -0.025,0.084 -0.018,0.114 -0.701,0.109 -0.77,0.086 -1.356,-0.178 l -0.063,0.17 c -0.16,-0.098 -1.009,0.269 -1.7,0.068 0.009,0.022 0.023,0.055 0.078,0.08 -0.771,-0.205 -1.849,0.477 -2.131,-0.15 l -0.512,-0.154 c 0.662,-0.051 -0.097,-0.274 0.177,-0.375 -0.261,-0.038 -0.672,0.187 -0.355,0.218 l 0.05,-0.031 c 0.117,0.328 -0.819,0.115 -0.8,0.34 -1.169,-0.016 -2.305,0.123 -3.406,0.162 0.003,0.01 0.007,0.021 0.011,0.031 l 0.001,0.004 c 0.397,1.936 0.605,4.008 0.822,6.197 0.389,3.938 1.2,8.065 2.383,11.582 l 0.026,-0.009 0.714,-0.264 0.201,0.736 c 0.054,0.207 0.235,0.85 0.397,1.211 l 0.164,0.354 c 0.111,-0.01 0.208,-0.01 0.317,-0.01 0.254,0 0.515,0.018 0.769,0.045 l 0.127,-0.344 c 0.299,-0.795 1.357,-1.863 1.576,-2.072 l 0.334,-0.326 0.566,0.25 c 1.941,-2.61 4.481,-6.418 6.751,-9.906 l -0.01,0.011 c 1.59,-2.445 3.05,-4.736 4.075,-6.347 l -10e-4,0.003 c 0.405,-0.634 0.743,-1.167 1.004,-1.57 -0.097,0.016 -0.206,0.047 -0.349,0.033 m 23.937,0.475 -0.009,-0.01 c -0.21,0.069 -0.135,0.041 0.009,0.01 m -29.667,-0.033 c -0.085,-0.03 -0.12,-0.061 -0.116,-0.092 0.083,0.023 0.135,0.051 0.116,0.092 m 31.062,0.17 c 0.125,0.011 0.019,0.015 0,0 m 3.097,-0.121 0.571,-0.022 -0.039,-0.019 0.119,0.015 c -0.132,0.026 -0.23,0.08 -0.406,0.19 -0.191,-0.071 -0.232,-0.121 -0.245,-0.164 m -0.3,-0.225 c 0.099,-0.076 0.629,-0.174 0.389,-0.299 -0.375,-0.072 -0.309,0.049 -0.492,0.121 0.156,-0.172 -0.479,-0.25 -0.394,-0.5 l 0.325,0.088 c 0.011,-0.039 -0.111,-0.101 -0.017,-0.139 0.017,0.139 0.345,0.266 0.627,0.118 0.273,0.103 0.093,0.554 -0.147,0.808 C 6.4,-31.447 6.4,-31.5 6.119,-31.584 m 2.3,0.15 c 0.125,-0.027 0.2,0.006 0.267,0.053 l -0.293,-0.025 c -0.01,-0.022 -0.01,-0.034 0.026,-0.028 m -2.009,0.047 0.009,0.028 -0.031,0 0.022,-0.028 z m -3.06,0.123 c -0.028,0.01 -0.035,0.02 -0.028,0.026 -0.041,-0.004 -0.095,-0.006 -0.179,-0.008 l 0.207,-0.018 z m -0.45,-0.09 c 0.096,-0.037 0.061,0.18 0.111,0.121 0.1,0.18 -0.611,-0.216 -0.111,-0.121 m 5.954,0.065 0.017,0.008 c -0.041,0.031 -0.036,0.015 -0.017,-0.008 m -0.168,-0.092 0.207,0.049 -0.039,0.043 -0.168,-0.092 z m -2.558,0.033 0.207,0.063 0.061,0.156 -0.268,-0.219 z m -0.371,0.18 -0.157,-0.082 0.134,-0.055 0.023,0.137 z m 2.554,-0.113 c -0.125,-0.063 -0.258,-0.067 -0.415,-0.078 0.165,-0.03 0.336,-0.047 0.497,-0.047 0.026,0.048 0.091,0.131 -0.082,0.125 m -0.698,-0.012 c -0.067,0.047 -0.192,0.121 -0.214,0.082 l 0.214,-0.082 z m 0.009,-0.008 0.006,0 0,-0.004 c 0.021,-0.019 0.03,-0.031 0.004,-0.019 l -0.015,-0.002 -0.021,-0.057 c -0.161,0.031 -0.028,0.039 0.021,0.057 l 0.011,0.021 -0.006,0.004 -0.552,-0.084 c 0.12,-0.019 0.26,-0.015 0.526,0 -0.096,-0.148 -0.371,-0.209 -0.2,-0.373 0.344,0.012 0.24,0.125 0.445,0.19 -0.554,-0.037 0.157,0.084 -0.241,0.168 l 0.296,0.041 -0.283,0.066 0.009,-0.008 z M 0.18,-32.707 c 0.034,0.059 0.373,0.107 0.06,0.156 -0.03,-0.058 -0.49,-0.17 -0.06,-0.156 m 0.023,0.685 -0.336,-0.048 c -0.035,-0.063 0.06,-0.098 0.185,-0.075 0.08,0.043 0.206,0.067 0.151,0.123 m -25.173,-1.376 0.023,0.056 c -0.04,0.057 -0.105,0.061 -0.224,0.072 l 0.201,-0.128 z m 26.046,1.031 -0.009,-0.215 0.157,0.084 c -0.088,0.037 -0.099,0.072 -0.148,0.131 m -32.45,-1.121 c 0.122,-0.008 0.26,0.039 0.381,0.029 -0.259,-0.037 -0.413,0.225 -0.381,-0.029 m 2.923,0.258 0.058,-0.003 -0.112,0.204 0.054,-0.201 z m 31.975,1.175 0.309,-0.047 c -0.005,0.028 0.034,0.043 0.079,0.057 -0.187,0.004 -0.396,0.041 -0.388,-0.01 m 1.369,0.334 c 0.023,-0.138 0.198,-0.094 0.388,-0.066 l -0.034,0 c 0.058,0.197 -0.148,0.131 -0.354,0.066 m -0.024,-0.427 0.181,-0.036 -0.071,0.176 -0.11,-0.14 z m 0.457,0.365 0.181,0.006 c 0.021,0.078 -0.077,0.015 -0.181,-0.006 m -1.011,-0.403 0.315,-0.048 -0.095,0.035 -0.22,0.013 z m 2.716,-0.013 0.125,0.023 -0.013,0.078 c -0.169,-0.004 -0.289,-0.066 -0.112,-0.101 m -2.867,0.183 c -0.055,-0.002 -0.172,-0.006 -0.252,-0.029 0.104,-0.004 0.197,0 0.252,0.029 m 4.466,0.061 -0.015,0.08 c 0.265,-0.031 0.207,0.062 0.242,0.123 l -0.461,-0.072 0.234,-0.131 z m 4.819,0.289 c 0.166,-0.248 0.64,0.041 0.951,-0.049 l 0.055,-0.057 0.144,0.2 c -0.385,-0.032 -0.883,-0.164 -1.15,-0.094 m -0.092,-0.256 0.186,-0.074 0.154,0.086 c -0.074,-0.043 -0.353,0.064 -0.34,-0.012 m 3.743,0.582 c 0.116,-0.014 0.077,0.133 0.093,0.16 C 17,-31.215 17.104,-31.379 17.1,-31.34 m -1.884,-0.33 0.031,0.061 -0.278,-0.147 0.247,0.086 z m -7.159,0.643 c 0.157,0.043 0.316,0.031 0.528,-0.055 0.11,0.105 -0.157,0.176 -0.035,0.236 -0.189,-0.017 -0.347,-0.105 -0.493,-0.181 m 4.631,-0.11 c 0.181,0.008 -0.127,0.08 0,0 m 0.041,-0.023 -0.041,0.023 c -0.039,-0.002 -0.095,-0.002 -0.18,0.004 0.053,-0.094 -0.205,-0.082 0.221,-0.027 m -0.515,-0.309 c 0.47,0.031 0.395,0.205 -0.068,0.172 0.133,-0.055 0.314,-0.088 0.068,-0.172 m -54.738,-1.174 -0.025,0.016 c -0.132,-0.063 -0.077,-0.053 0.025,-0.016 m 46.883,1.436 c 0.135,0.008 0.185,-0.027 0.25,-0.055 -0.007,0.039 -0.056,0.098 0.03,0.098 l -0.28,-0.043 z m -37.853,-1.961 -0.157,-0.154 c 0.245,0.002 0.139,0.078 0.157,0.154 m 0.032,0.029 -0.014,0.002 -0.018,-0.031 0.032,0.029 z m 6.319,0.119 0.021,0.071 c -0.045,-0.037 -0.062,-0.067 -0.021,-0.071 m 30.625,1.786 0.112,-0.016 c 0.021,0.027 0.006,0.039 -0.112,0.016 m 8.405,0.242 c -0.255,-0.051 -0.201,-0.106 -0.059,-0.199 l 0.248,0.086 c -0.055,0.056 -0.274,0.07 -0.189,0.113 M 9.69,-31.57 9.833,-31.523 9.725,-31.51 9.69,-31.57 z m 0.448,0.152 -0.305,-0.105 0.286,-0.032 c -0.01,0.037 -0.058,0.094 0.019,0.137 m -0.68,0.232 0.107,-0.15 0.107,0 c -0.023,0.031 -0.063,0.117 -0.214,0.15 m -0.309,0.069 0.119,0.058 0.153,0.123 -0.272,-0.181 z m 1.154,0.054 c -0.014,-0.054 0.08,-0.142 0.097,-0.21 l 0.185,0.062 c -0.095,0.037 -0.268,0.07 -0.282,0.148 m -0.735,-0.275 -0.003,0.002 c -0.118,0.004 -0.198,0.008 -0.229,0.01 0.029,-0.002 0.099,-0.006 0.232,-0.012 m 2.028,-0.035 0.125,0.037 c -0.024,0.023 -0.055,0.031 -0.125,-0.037 m -1.196,0.1 -0.268,-0.09 c 0.241,-0.01 0.289,0.031 0.268,0.09 m 0.275,-0.54 c 0.112,0.102 -0.073,0.174 0.169,0.299 -0.162,-0.084 -0.492,-0.174 -0.169,-0.299 m 1.173,0.504 c -0.022,-0.074 0.03,-0.004 0.146,0.049 l -0.273,-0.076 c 0.036,-0.039 0.04,-0.121 0.127,0.027 m -0.296,-0.339 0.442,0.189 -0.528,-0.191 0.086,0.002 z m -1.173,-0.485 -0.018,0.035 c -0.035,-0.019 -0.05,-0.031 0.018,-0.035 m -0.031,0.193 c -0.225,0.051 -0.512,0.237 -0.47,0.258 0.067,-0.133 0.12,-0.228 0.272,-0.361 0.04,0.021 0.071,0.082 0.202,0.066 0.117,-0.045 0,-0.072 0.009,-0.121 0.077,0.037 0.272,0.108 0.027,0.178" />
      </g>
      <g
         transform="translate(270.504,310.76)"
         id="g1188">
        <path
           id="path1190"
           style="fill:#ffe512;fill-opacity:1;fill-rule:nonzero;stroke:none"
           d="m 0,0 c -0.51,-0.133 -1.016,-0.273 -1.518,-0.426 -7.023,-2.113 -10.672,-7.533 -14.429,-10.849 -3.906,-3.442 -7.955,-6.014 -14.842,-5.364 -0.813,0.078 -1.68,0.174 -2.575,0.28 0.845,-0.959 1.739,-1.983 2.664,-3.041 0.118,-0.135 0.237,-0.272 0.354,-0.407 2.084,0.002 4.147,0.149 6.065,0.508 5.543,1.041 8.518,4.059 12.341,6.904 3.858,2.872 8.393,4.545 11.913,4.844 0.283,0.024 0.597,0.041 0.941,0.055 C 1.729,-5.609 0.784,-1.148 0,0" />
      </g>
      <g
         transform="translate(270.504,310.76)"
         id="g1192">
        <path
           id="path1194"
           style="fill:#ffffff;fill-opacity:1;fill-rule:nonzero;stroke:none"
           d="M 0,0 C 0.784,-1.148 1.729,-5.609 0.914,-7.496 4.828,-7.328 12.158,-7.539 11.957,-3.145 11.737,1.643 5.697,1.475 0,0" />
      </g>
      <g
         transform="translate(273.092,305.794)"
         id="g1196">
        <path
           id="path1198"
           style="fill:#d1d3d4;fill-opacity:1;fill-rule:nonzero;stroke:none"
           d="m 0,0 c -0.468,-0.092 -0.912,-0.211 -1.363,-0.326 0.017,-0.86 -0.07,-1.645 -0.311,-2.203 2.928,0.125 7.768,0.039 9.936,1.828 C 7.4,-0.002 5.181,1.025 0,0" />
      </g>
      <g
         transform="translate(270.477,303.21)"
         id="g1200">
        <path
           id="path1202"
           style="fill:#d5b718;fill-opacity:1;fill-rule:nonzero;stroke:none"
           d="m 0,0 c 0.283,0.023 0.598,0.041 0.941,0.055 0.242,0.558 0.328,1.345 0.311,2.203 -12.063,-3.24 -12.9,-6.459 -21.92,-11.682 -2.705,-1.566 -8.278,-1.836 -10.539,-1.814 0.176,-0.201 0.354,-0.407 0.534,-0.612 0.118,-0.134 0.237,-0.271 0.355,-0.406 2.084,0.002 4.146,0.149 6.064,0.508 5.543,1.041 8.519,4.059 12.342,6.904 C -8.055,-1.973 -3.52,-0.299 0,0" />
      </g>
      <g
         transform="translate(240.301,291.514)"
         id="g1204">
        <path
           id="path1206"
           style="fill:#937a08;fill-opacity:1;fill-rule:nonzero;stroke:none"
           d="M 0,0 1.49,0.906 1.082,2.09 c -0.633,0.021 -1.306,0.053 -2,0.09 l -0.34,-1.266" />
      </g>
      <g
         transform="translate(255.049,296.665)"
         id="g1208">
        <path
           id="path1210"
           style="fill:#937a08;fill-opacity:1;fill-rule:nonzero;stroke:none"
           d="m 0,0 -2.125,0.207 -0.586,-2.049 0.747,-0.555 c 0.769,0.5 1.503,1.038 2.232,1.594" />
      </g>
      <g
         transform="translate(267.14,307.311)"
         id="g1212">
        <path
           id="path1214"
           style="fill:#937a08;fill-opacity:1;fill-rule:nonzero;stroke:none"
           d="M 0,0 1.249,0.305 1.337,1.752 0.077,2.223 C 0.022,2.199 -0.036,2.178 -0.091,2.154 L -0.953,1.219" />
      </g>
      <g
         transform="translate(263.51,301.516)"
         id="g1216">
        <path
           id="path1218"
           style="fill:#937a08;fill-opacity:1;fill-rule:nonzero;stroke:none"
           d="m 0,0 -1.4,1.358 -1.844,-0.735 0.478,-2.015 0.407,-0.075 c 0.724,0.416 1.455,0.797 2.189,1.135" />
      </g>
      <g
         transform="translate(248.301,293.469)"
         id="g1220">
        <path
           id="path1222"
           style="fill:#937a08;fill-opacity:1;fill-rule:nonzero;stroke:none"
           d="M 0,0 1.375,0.732 1.018,1.994 C 0.394,1.705 -0.254,1.453 -0.942,1.244 L -1.074,0.867" />
      </g>
      <g
         transform="translate(245.367,292.928)"
         id="g1224">
        <path
           id="path1226"
           style="fill:#937a08;fill-opacity:1;fill-rule:nonzero;stroke:none"
           d="m 0,0 -0.994,-0.396 0.26,-1.086 0.531,-0.096 c 0.171,0.025 0.346,0.055 0.516,0.086 l 0.437,0.758" />
      </g>
      <g
         transform="translate(257.76,299.118)"
         id="g1228">
        <path
           id="path1230"
           style="fill:#937a08;fill-opacity:1;fill-rule:nonzero;stroke:none"
           d="M 0,0 0.65,1.125 -0.268,2.016 -1.167,1.658 C -1.256,1.561 -1.346,1.459 -1.436,1.361 l 0.274,-1.15" />
      </g>
      <g
         transform="translate(263.215,305.606)"
         id="g1232">
        <path
           id="path1234"
           style="fill:#937a08;fill-opacity:1;fill-rule:nonzero;stroke:none"
           d="M 0,0 0.375,-1.572 1.758,-1.82 2.533,-0.486 1.441,0.572" />
      </g>
      <g
         transform="translate(268.451,305.874)"
         id="g1236">
        <path
           id="path1238"
           style="fill:#937a08;fill-opacity:1;fill-rule:nonzero;stroke:none"
           d="M 0,0 0.313,-1.324 1.477,-1.535 2.126,-0.41 1.207,0.482" />
      </g>
      <g
         transform="translate(248.343,280.807)"
         id="g1240">
        <path
           id="path1242"
           style="fill:#ffe512;fill-opacity:1;fill-rule:nonzero;stroke:none"
           d="m 0,0 c -3.019,-0.957 -6.202,-2.609 -7.969,-4.42 1.55,2.232 4.555,4.012 7.347,5.166 -2.846,2.842 -7.992,8.885 -11.811,13.193 l -11.136,-4.98 c 4.098,-5.535 10.699,-16.115 12.038,-18.166 0.424,-0.652 5.312,-1.025 10.089,-1.025 4.606,0 9.106,0.347 9.411,1.13 C 8.938,-6.625 2.495,-0.637 0,0" />
      </g>
      <g
         transform="translate(240.278,270.839)"
         id="g1244">
        <path
           id="path1246"
           style="fill:#d5b718;fill-opacity:1;fill-rule:nonzero;stroke:none"
           d="m 0,0 -3.015,2.166 -10.669,17.576 -1.819,-0.814 C -11.405,13.393 -4.805,2.813 -3.466,0.762 -3.253,0.432 -1.9,0.174 0,0" />
      </g>
      <g
         transform="translate(240.149,283.473)"
         id="g1248">
        <path
           id="path1250"
           style="fill:#937a08;fill-opacity:1;fill-rule:nonzero;stroke:none"
           d="m 0,0 -0.748,-1.43 1.49,-1.025 1.321,0.726 -0.372,1.602" />
      </g>
      <g
         transform="translate(234.615,283.87)"
         id="g1252">
        <path
           id="path1254"
           style="fill:#937a08;fill-opacity:1;fill-rule:nonzero;stroke:none"
           d="m 0,0 -0.646,-0.631 0.591,-0.746 0.819,0.186 0.093,0.878" />
      </g>
      <g
         transform="translate(238.315,285.268)"
         id="g1256">
        <path
           id="path1258"
           style="fill:#937a08;fill-opacity:1;fill-rule:nonzero;stroke:none"
           d="m 0,0 -1.275,0.783 -1.16,-1.002 0.534,-1.129 1.575,0.055" />
      </g>
      <g
         transform="translate(234.732,291.2)"
         id="g1260">
        <path
           id="path1262"
           style="fill:#937a08;fill-opacity:1;fill-rule:nonzero;stroke:none"
           d="m 0,0 -1.308,0.002 -0.258,-1.215 0.97,-0.564 1.065,0.724" />
      </g>
      <g
         transform="translate(233.098,287.717)"
         id="g1264">
        <path
           id="path1266"
           style="fill:#937a08;fill-opacity:1;fill-rule:nonzero;stroke:none"
           d="m 0,0 -1.021,-0.748 0.654,-1.121 1.159,0.111 0.317,1.184" />
      </g>
      <g
         transform="translate(240.968,287.26)"
         id="g1268">
        <path
           id="path1270"
           style="fill:#937a08;fill-opacity:1;fill-rule:nonzero;stroke:none"
           d="m 0,0 -1.148,-0.182 -0.021,-1.107 0.955,-0.363 0.805,0.789" />
      </g>
      <g
         transform="translate(237.366,288.772)"
         id="g1272">
        <path
           id="path1274"
           style="fill:#937a08;fill-opacity:1;fill-rule:nonzero;stroke:none"
           d="m 0,0 -0.94,-0.147 -0.024,-0.906 0.784,-0.299 0.658,0.643" />
      </g>
      <g
         transform="translate(251.913,274.71)"
         id="g1276">
        <path
           id="path1278"
           style="fill:#937a08;fill-opacity:1;fill-rule:nonzero;stroke:none"
           d="M 0,0 0.37,1.406 -1.069,2.039 -2.05,1.15 l 0.6,-1.353" />
      </g>
      <g
         transform="translate(248.213,278.846)"
         id="g1280">
        <path
           id="path1282"
           style="fill:#937a08;fill-opacity:1;fill-rule:nonzero;stroke:none"
           d="m 0,0 -1.213,-0.842 0.621,-1.351 1.311,0.082 0.466,1.39" />
      </g>
      <g
         transform="translate(246.457,276.555)"
         id="g1284">
        <path
           id="path1286"
           style="fill:#937a08;fill-opacity:1;fill-rule:nonzero;stroke:none"
           d="m 0,0 -1.027,-0.258 0.031,-1.062 0.885,-0.276 0.693,0.815" />
      </g>
      <g
         transform="translate(207.708,293.995)"
         id="g1288">
        <path
           id="path1290"
           style="fill:#ffe512;fill-opacity:1;fill-rule:nonzero;stroke:none"
           d="m 0,0 c -0.53,-1.469 -4.105,-11.348 -5.091,-13.215 3.38,-1.375 5.89,-3.512 7.575,-5.639 -2.484,2.233 -5.011,4.077 -8.241,5.213 -3.79,-1.562 -7.792,-6.375 -6.309,-8.369 0.523,-0.709 4.84,-1.07 9.269,-1.07 4.906,0 9.953,0.443 10.141,1.351 1.109,5.379 1.213,12.311 3.23,17.875" />
      </g>
      <g
         transform="translate(217.006,290.608)"
         id="g1292">
        <path
           id="path1294"
           style="fill:#d5b718;fill-opacity:1;fill-rule:nonzero;stroke:none"
           d="m 0,0 c -1.102,-5.24 -3.569,-16.805 -4.006,-17.461 -0.401,-0.6 -1.564,-1.51 -2.224,-1.998 2.413,0.219 4.166,0.59 4.276,1.117 1.109,5.379 1.213,12.311 3.23,17.875" />
      </g>
      <g
         transform="translate(210.587,283.018)"
         id="g1296">
        <path
           id="path1298"
           style="fill:#937a08;fill-opacity:1;fill-rule:nonzero;stroke:none"
           d="m 0,0 -0.792,0.557 -0.704,-0.752 0.341,-0.819 0.97,0.061" />
      </g>
      <g
         transform="translate(207.614,287.051)"
         id="g1300">
        <path
           id="path1302"
           style="fill:#937a08;fill-opacity:1;fill-rule:nonzero;stroke:none"
           d="m 0,0 -0.792,0.557 -0.706,-0.75 0.339,-0.823 0.971,0.065" />
      </g>
      <g
         transform="translate(206.706,283.491)"
         id="g1304">
        <path
           id="path1306"
           style="fill:#937a08;fill-opacity:1;fill-rule:nonzero;stroke:none"
           d="m 0,0 -0.791,0.559 -0.707,-0.754 0.34,-0.819 0.97,0.061" />
      </g>
      <g
         transform="translate(210.872,286.153)"
         id="g1308">
        <path
           id="path1310"
           style="fill:#937a08;fill-opacity:1;fill-rule:nonzero;stroke:none"
           d="m 0,0 -1.02,0.723 -0.904,-0.971 0.434,-1.057 1.249,0.08" />
      </g>
      <g
         transform="translate(210.591,289.624)"
         id="g1312">
        <path
           id="path1314"
           style="fill:#937a08;fill-opacity:1;fill-rule:nonzero;stroke:none"
           d="m 0,0 -0.537,1.31 -1.289,-0.611 -0.147,-1.385 1.14,-0.541" />
      </g>
      <g
         transform="translate(213.513,287.272)"
         id="g1316">
        <path
           id="path1318"
           style="fill:#937a08;fill-opacity:1;fill-rule:nonzero;stroke:none"
           d="m 0,0 -0.949,0.67 -0.844,-0.9 0.406,-0.989 1.158,0.078" />
      </g>
      <g
         transform="translate(202.187,278.276)"
         id="g1320">
        <path
           id="path1322"
           style="fill:#937a08;fill-opacity:1;fill-rule:nonzero;stroke:none"
           d="m 0,0 -1.006,0.248 -0.499,-0.916 0.624,-0.635 0.993,0.375" />
      </g>
      <g
         transform="translate(204.161,276.358)"
         id="g1324">
        <path
           id="path1326"
           style="fill:#937a08;fill-opacity:1;fill-rule:nonzero;stroke:none"
           d="m 0,0 -0.841,0.205 -0.413,-0.76 0.516,-0.527 0.827,0.311" />
      </g>
      <g
         transform="translate(201.221,275.524)"
         id="g1328">
        <path
           id="path1330"
           style="fill:#937a08;fill-opacity:1;fill-rule:nonzero;stroke:none"
           d="m 0,0 -1.028,0.857 -1.175,-0.8 0.319,-1.09 1.414,-0.117" />
      </g>
      <g
         transform="translate(231.842,300.376)"
         id="g1332">
        <path
           id="path1334"
           style="fill:#428b37;fill-opacity:1;fill-rule:nonzero;stroke:none"
           d="m 0,0 c -3.923,0.451 -8.341,0.549 -11.381,0.549 -4.187,0 -8.438,-0.194 -10.581,-0.481 l -0.191,-0.025 -0.561,-2.146 -1.342,-3.567 11.414,-4.16 c 0,0 0.22,0.826 0.442,1.32 -2.411,0.942 -6.836,4.262 -6.836,4.262 0,0 3.418,-1.982 5.324,-2.941 0.762,-0.385 1.706,-0.567 2.623,-0.567 0.833,0 1.643,0.149 2.287,0.436 2.228,0.99 6.572,3.56 6.572,3.56 0,0 -4.783,-3.033 -7.312,-4.75 0.26,-0.691 1.411,-1.816 1.411,-1.816 l 12.182,5.449 -2,2.477" />
      </g>
      <g
         transform="translate(219.2,290.546)"
         id="g1336">
        <path
           id="path1338"
           style="fill:#0a6c2f;fill-opacity:1;fill-rule:nonzero;stroke:none"
           d="M 0,0 C 0,0 0.22,0.826 0.441,1.32 -0.176,1.563 -0.926,1.961 -1.701,2.418 -1.758,2.137 -1.88,1.551 -2.05,0.746" />
      </g>
      <g
         transform="translate(223.711,290.05)"
         id="g1340">
        <path
           id="path1342"
           style="fill:#0a6c2f;fill-opacity:1;fill-rule:nonzero;stroke:none"
           d="M 0,0 1.595,0.715 0.28,2.943 C -0.334,2.539 -0.917,2.152 -1.411,1.816 -1.151,1.125 0,0 0,0" />
      </g>
      <g
         transform="translate(249.313,313.063)"
         id="g1344">
        <path
           id="path1346"
           style="fill:#ffe512;fill-opacity:1;fill-rule:nonzero;stroke:none"
           d="m 0,0 c -2.291,3.695 -6.959,6.188 -10.086,7.514 -0.891,-1.645 -1.725,-3.326 -2.748,-5.543 1.361,-0.561 2.26,-1.073 3.111,-1.358 0.725,0.073 1.16,0.403 2.363,0.403 0.276,0 0.591,-0.018 0.958,-0.059 -1.536,-0.297 -3.205,-0.727 -4.659,-1.584 -2.997,-1.826 -4.488,-3.074 -6.039,-5.16 0.144,-2.293 0.342,-4.547 0.585,-6.125 l 0.14,-0.901 -0.085,0.01 1.57,-1.836 0.008,-0.007 0.007,-0.006 1.189,-1.477 c 0.185,-0.023 0.38,-0.033 0.588,-0.033 1.16,0 2.739,0.342 4.714,0.943 4.165,2.785 2.724,6.041 1.587,6.041 -0.142,0 -0.277,-0.05 -0.402,-0.16 -0.502,-0.457 0.021,-2.504 -0.766,-3.476 0.125,0.544 0.418,2.834 -1.211,3.912 C -5.838,-8.467 -1.188,-4.094 0,0" />
      </g>
      <g
         transform="translate(242.749,307.108)"
         id="g1348">
        <path
           id="path1350"
           style="fill:#d5b718;fill-opacity:1;fill-rule:nonzero;stroke:none"
           d="m 0,0 c -1.987,-0.9 -3.692,-3.596 -3.692,-3.596 l 0.662,-4.258 -1.801,-2.173 c 0.869,0.158 1.875,0.418 3.011,0.763 4.165,2.785 2.723,6.041 1.587,6.041 -0.143,0 -0.278,-0.05 -0.403,-0.16 -0.502,-0.457 0.022,-2.504 -0.765,-3.476 0.125,0.545 0.418,2.834 -1.211,3.912 3.338,0.435 7.987,4.808 9.175,8.902 C 6.563,5.955 1.987,0.896 0,0" />
      </g>
      <g
         transform="translate(234.861,307.967)"
         id="g1352">
        <path
           id="path1354"
           style="fill:#937a08;fill-opacity:1;fill-rule:nonzero;stroke:none"
           d="m 0,0 -1.061,-0.422 0.225,-1.125 0.993,-0.166 0.602,0.965" />
      </g>
      <g
         transform="translate(239.871,306.79)"
         id="g1356">
        <path
           id="path1358"
           style="fill:#937a08;fill-opacity:1;fill-rule:nonzero;stroke:none"
           d="M 0,0 0.738,0.283 0.637,0.99 -0.031,1.08 -0.478,0.461" />
      </g>
      <g
         transform="translate(241.815,308.967)"
         id="g1360">
        <path
           id="path1362"
           style="fill:#937a08;fill-opacity:1;fill-rule:nonzero;stroke:none"
           d="M 0,0 1.332,0.514 1.146,1.793 -0.058,1.955 -0.869,0.834" />
      </g>
      <g
         transform="translate(237.438,308.219)"
         id="g1364">
        <path
           id="path1366"
           style="fill:#937a08;fill-opacity:1;fill-rule:nonzero;stroke:none"
           d="M 0,0 1.477,0.572 1.27,1.992 -0.066,2.168 -0.962,0.924" />
      </g>
      <g
         transform="translate(236.77,304.882)"
         id="g1368">
        <path
           id="path1370"
           style="fill:#937a08;fill-opacity:1;fill-rule:nonzero;stroke:none"
           d="M 0,0 1.058,0.408 0.91,1.426 -0.049,1.555 -0.691,0.662" />
      </g>
      <g
         transform="translate(240.096,311.544)"
         id="g1372">
        <path
           id="path1374"
           style="fill:#937a08;fill-opacity:1;fill-rule:nonzero;stroke:none"
           d="M 0,0 0.734,0.283 0.635,0.992 -0.033,1.08 -0.478,0.459" />
      </g>
      <g
         transform="translate(232.078,316.167)"
         id="g1376">
        <path
           id="path1378"
           style="fill:#ffffff;fill-opacity:1;fill-rule:nonzero;stroke:none"
           d="M 0,0 C 0.663,-0.266 2.117,-0.824 3.565,-1.287 4.657,1.09 5.647,3.139 6.868,5.352 5.674,5.826 4.333,6.248 2.928,6.613 -0.061,5.947 -3.459,5.732 -7.061,5.992 c -2.691,0.194 -4.969,0.588 -6.898,1.127 -1.618,-0.164 -3.043,-0.363 -4.064,-0.582 -2.116,-0.453 -3.235,-2.283 -3.81,-3.771 0.008,-0.18 0.028,-0.356 0.028,-0.537 0,-0.553 -0.045,-1.092 -0.109,-1.627 l 1.948,-0.518 1.625,3.217 -0.711,-2.672 c -0.862,-2.449 -1.746,-4.707 -2.329,-7.555 -0.455,-2.222 -0.671,-4.801 -0.911,-8.107 2.04,0.271 6.144,0.482 10.675,0.482 3.911,0 8.15,-0.156 11.654,-0.568 -0.597,3.861 -0.923,11.637 -0.829,14.361 0.098,1.121 -0.099,1.914 -0.062,3.664 C -0.56,2.016 -0.063,1.057 0,0" />
      </g>
      <g
         transform="translate(235.111,322.749)"
         id="g1380">
        <path
           id="path1382"
           style="fill:#d1d3d4;fill-opacity:1;fill-rule:nonzero;stroke:none"
           d="m 0,0 c -0.035,0.01 -0.07,0.022 -0.105,0.031 -2.99,-0.666 -6.388,-0.881 -9.99,-0.621 -2.691,0.194 -4.968,0.588 -6.898,1.127 -0.374,-0.039 -0.736,-0.078 -1.088,-0.121 2.487,-1.623 5.885,-2.561 9.619,-2.51 C -5.251,-2.053 -2.317,-1.285 0,0" />
      </g>
      <g
         transform="translate(222.304,309.05)"
         id="g1384">
        <path
           id="path1386"
           style="fill:#231f20;fill-opacity:1;fill-rule:nonzero;stroke:none"
           d="M 0,0 C 0.035,-0.336 0.438,-0.322 0.525,-0.609 0.365,-1.35 0.477,-2.352 0.294,-3.07 c 0.353,-0.27 0.822,-0.428 1.485,-0.397 0.023,1.479 0,2.914 -0.186,4.192 C 0.852,0.685 0.217,0.547 0,0" />
      </g>
      <g
         transform="translate(215.087,308.811)"
         id="g1388">
        <path
           id="path1390"
           style="fill:#231f20;fill-opacity:1;fill-rule:nonzero;stroke:none"
           d="m 0,0 c 0.194,-0.016 0.061,-0.346 0.208,-0.41 0.557,-0.022 1.06,0.549 1.59,0.213 C 0.931,-1.109 -0.84,-1.146 -0.66,-3.072 0.38,-3.328 1.813,-3.336 2.73,-2.953 2.756,-2.555 2.507,-2.424 2.419,-2.139 1.97,-2.318 1.227,-2.221 0.622,-2.248 1.088,-1.352 2.61,-1.508 2.852,-0.6 3.34,1.236 0.629,1.182 0,0" />
      </g>
      <g
         transform="translate(219.576,309.448)"
         id="g1392">
        <path
           id="path1394"
           style="fill:#231f20;fill-opacity:1;fill-rule:nonzero;stroke:none"
           d="M 0,0 C -0.867,-0.234 -1.251,-1.197 -1.28,-1.748 -1.434,-4.838 3.06,-4.08 2.322,-1.217 2.103,-0.375 0.753,0.197 0,0 m 0.833,-2.453 c -0.08,-0.02 -0.156,-0.024 -0.235,-0.018 -0.347,0.02 -0.657,0.278 -0.792,0.582 -0.139,0.313 -0.095,0.672 0.295,0.868 1.225,0.605 1.558,-1.215 0.732,-1.432" />
      </g>
      <g
         transform="translate(225.999,309.475)"
         id="g1396">
        <path
           id="path1398"
           style="fill:#231f20;fill-opacity:1;fill-rule:nonzero;stroke:none"
           d="M 0,0 C -1.76,-0.426 -1.577,-3.453 -0.129,-3.783 2.926,-4.475 3.012,0.734 0,0 m 0.935,-2.449 c -0.834,-0.096 -1.278,0.308 -1.266,0.81 0.048,1.412 2.482,0.475 1.266,-0.81" />
      </g>
      <g
         transform="translate(215.932,310.96)"
         id="g1400">
        <path
           id="path1402"
           style="fill:#231f20;fill-opacity:1;fill-rule:nonzero;stroke:none"
           d="M 0,0 C 0.244,0.002 0.297,-0.172 0.616,-0.098 0.784,-0.23 0.646,-0.66 0.811,-0.787 L 1.63,-0.785 C 1.531,0.266 1.085,0.977 0.725,1.779 L -0.094,1.775 C -0.341,0.881 -1.193,0.068 -1.13,-0.799 l 0.715,0.002 C -0.292,-0.514 -0.267,-0.141 0,0 M 0.315,1.086 C 0.463,0.9 0.508,0.617 0.513,0.297 0.265,0.252 0.294,0.475 0,0.393 0.143,0.59 0.203,0.861 0.315,1.086" />
      </g>
      <g
         transform="translate(219.622,312.456)"
         id="g1404">
        <path
           id="path1406"
           style="fill:#231f20;fill-opacity:1;fill-rule:nonzero;stroke:none"
           d="m 0,0 0,0.299 c -0.587,0.072 -0.873,-0.151 -1.427,-0.108 -0.268,-0.636 -0.438,-1.363 -0.425,-2.273 0.245,-0.16 0.477,-0.324 0.917,-0.291 l 0.01,1.086 c 0.084,0.248 0.797,-0.11 0.714,0.299 0.061,0.593 -0.578,0.01 -0.714,0.293 C -1.079,-0.018 -0.048,-0.482 0,0" />
      </g>
      <g
         transform="translate(221.43,310.094)"
         id="g1408">
        <path
           id="path1410"
           style="fill:#231f20;fill-opacity:1;fill-rule:nonzero;stroke:none"
           d="M 0,0 C 0.011,0.182 0.342,0.064 0.405,0.201 0.558,0.58 -0.108,0.92 -0.302,1.285 0.083,1.309 0.102,1.689 0.212,1.975 -0.023,2.533 -0.596,2.764 -1.518,2.66 -1.514,1.791 -1.514,0.934 -1.635,0.189 -1.474,0.02 -1.21,-0.053 -0.819,-0.004 -0.674,0.439 -1.088,0.84 -0.811,1.084 -0.624,0.643 -0.386,0.254 0,0 M -1.006,2.166 C -0.659,2.248 -0.578,2.06 -0.4,1.973 -0.431,1.74 -0.717,1.748 -0.811,1.578 -0.977,1.676 -0.919,1.996 -1.006,2.166" />
      </g>
      <g
         transform="translate(223.063,310.104)"
         id="g1412">
        <path
           id="path1414"
           style="fill:#231f20;fill-opacity:1;fill-rule:nonzero;stroke:none"
           d="M 0,0 C 0.07,0.387 -0.045,0.83 -0.094,1.283 -0.148,1.809 0.021,2.625 -0.595,2.66 -1.253,2.369 -0.752,0.959 -0.919,0.191 -0.655,0.088 -0.417,-0.047 0,0" />
      </g>
      <g
         transform="translate(225.114,310.708)"
         id="g1416">
        <path
           id="path1418"
           style="fill:#231f20;fill-opacity:1;fill-rule:nonzero;stroke:none"
           d="m 0,0 c -0.436,0.17 -0.96,0.252 -1.016,0.781 0.18,0.387 0.473,0.668 1.025,0.697 0.044,0.239 -0.184,0.215 -0.099,0.495 -2.031,0.615 -2.327,-2.76 -0.221,-2.571 0.1,0.205 0.213,0.393 0.311,0.598" />
      </g>
      <g
         transform="translate(226.454,312.786)"
         id="g1420">
        <path
           id="path1422"
           style="fill:#231f20;fill-opacity:1;fill-rule:nonzero;stroke:none"
           d="m 0,0 c -0.373,-0.863 -0.969,-1.51 -1.138,-2.574 l 0.716,0.002 c 0.164,0.238 0.232,0.572 0.411,0.797 0.322,0.048 0.363,-0.178 0.717,-0.098 -0.055,-0.313 0.183,-0.348 0.097,-0.688 l 0.919,0.002 C 1.53,-1.572 1.194,-0.717 0.717,0.002 L 0,0 z M 0.096,-1.383 C 0.078,-1.07 0.37,-1.051 0.303,-0.69 0.502,-0.855 0.575,-1.145 0.608,-1.479 0.362,-1.518 0.383,-1.301 0.096,-1.383" />
      </g>
      <g
         transform="translate(216.571,313.86)"
         id="g1424">
        <path
           id="path1426"
           style="fill:#231f20;fill-opacity:1;fill-rule:nonzero;stroke:none"
           d="M 0,0 C -0.501,-0.152 -0.916,0.088 -1.324,0.287 -1.477,0.115 -1.266,-0.307 -1.225,-0.598 -0.423,-0.83 0.773,-0.717 1.021,-0.096 0.978,0.742 0.185,0.861 -0.19,1.381 0.095,1.531 0.448,1.623 0.931,1.584 0.996,1.94 0.814,2.061 0.728,2.272 -0.343,2.252 -1.134,1.955 -1.421,1.176 -1.134,0.6 -0.164,0.69 0,0" />
      </g>
      <g
         transform="translate(223.943,315.376)"
         id="g1428">
        <path
           id="path1430"
           style="fill:#231f20;fill-opacity:1;fill-rule:nonzero;stroke:none"
           d="M 0,0 C -0.136,-0.699 -0.229,-1.435 -0.222,-2.27 0.229,-2.309 0.567,-2.24 0.799,-2.066 0.665,-1.412 0.711,-0.586 0.715,0.205 0.875,0.41 1.521,0.148 1.431,0.602 1.096,1.037 0.208,0.518 -0.512,0.69 -0.543,0.463 -0.637,0.283 -0.716,0.096 -0.56,-0.18 -0.171,0.322 0,0" />
      </g>
      <g
         transform="translate(219.228,313.083)"
         id="g1432">
        <path
           id="path1434"
           style="fill:#231f20;fill-opacity:1;fill-rule:nonzero;stroke:none"
           d="M 0,0 C 1.533,0.107 1.645,3.293 -0.392,2.861 -2.334,2.451 -1.475,-0.104 0,0 M 0.217,2.273 C 1.16,1.293 -0.496,0.455 -0.806,1.674 c 0.159,0.371 0.368,0.699 1.023,0.599" />
      </g>
      <g
         transform="translate(220.657,313.485)"
         id="g1436">
        <path
           id="path1438"
           style="fill:#231f20;fill-opacity:1;fill-rule:nonzero;stroke:none"
           d="m 0,0 c 0.616,-0.287 1.338,-0.564 1.838,0.01 0.037,-0.227 0.065,-0.463 0.41,-0.395 0.233,0.364 0.353,1.85 0.115,2.471 C 2.242,2.408 2.108,2.734 1.653,2.576 1.465,1.705 2.161,0.57 1.231,0.404 0.34,0.459 0.946,1.955 0.625,2.57 -0.766,2.65 0.314,0.953 0,0" />
      </g>
      <g
         transform="translate(227.11,315.987)"
         id="g1440">
        <path
           id="path1442"
           style="fill:#231f20;fill-opacity:1;fill-rule:nonzero;stroke:none"
           d="M 0,0 C -0.009,-0.389 -0.054,-0.742 -0.21,-0.988 L -0.723,-0.99 c -0.176,0.185 -0.07,0.65 -0.09,0.986 -0.244,-0.002 -0.304,0.168 -0.614,0.098 -0.334,-0.836 -0.296,-1.989 -0.222,-2.967 0.315,0.019 0.75,-0.063 0.916,0.103 -0.069,0.233 -0.231,0.881 0.006,1.088 0.322,0.018 0.619,0.006 0.718,-0.195 L -0.02,-2.766 C 0.312,-2.924 0.536,-2.811 0.902,-2.762 0.84,-1.84 0.694,-0.998 0.715,0.004" />
      </g>
      <g
         transform="translate(210.24,316.03)"
         id="g1444">
        <path
           id="path1446"
           style="fill:#ffe512;fill-opacity:1;fill-rule:nonzero;stroke:none"
           d="m 0,0 c -0.246,-1.197 -0.652,-2.359 -1.298,-3.385 -2.143,-4.418 -6.659,-7.472 -11.896,-7.472 -1.528,0 -2.99,0.271 -4.354,0.75 1.798,-1.87 5.174,-3.485 7.643,-3.866 0.792,-0.121 1.556,-0.173 2.305,-0.173 2.539,0 4.798,0.634 6.636,1.421 0.539,5.506 1.459,8.92 2.598,12.291" />
      </g>
      <g
         transform="translate(203.485,305.026)"
         id="g1448">
        <path
           id="path1450"
           style="fill:#d5b718;fill-opacity:1;fill-rule:nonzero;stroke:none"
           d="M 0,0 C 4.722,1.096 6.364,3.131 6.47,3.268 6.984,6.109 7.639,8.35 8.389,10.57 L 6.756,11.004 C 6.51,9.807 6.103,8.645 5.457,7.619 3.314,3.201 -1.201,0.146 -6.438,0.146 c -1.528,0 -2.991,0.272 -4.355,0.75 C -8.391,-0.428 -3.602,-0.836 0,0" />
      </g>
      <g
         transform="translate(202.34,303.917)"
         id="g1452">
        <path
           id="path1454"
           style="fill:#937a08;fill-opacity:1;fill-rule:nonzero;stroke:none"
           d="m 0,0 -0.605,-0.965 -0.993,0.166 -0.225,1.125 1.062,0.424" />
      </g>
      <g
         transform="translate(207.114,303.434)"
         id="g1456">
        <path
           id="path1458"
           style="fill:#937a08;fill-opacity:1;fill-rule:nonzero;stroke:none"
           d="M 0,0 0.801,0.311 0.689,1.084 -0.041,1.18 -0.527,0.502" />
      </g>
      <g
         transform="translate(204.214,303.815)"
         id="g1460">
        <path
           id="path1462"
           style="fill:#937a08;fill-opacity:1;fill-rule:nonzero;stroke:none"
           d="M 0,0 1.236,0.48 1.067,1.67 -0.058,1.82 -0.814,0.775" />
      </g>
      <g
         transform="translate(206.04,306.993)"
         id="g1464">
        <path
           id="path1466"
           style="fill:#937a08;fill-opacity:1;fill-rule:nonzero;stroke:none"
           d="M 0,0 0.402,-0.389 1.02,-0.151 0.936,0.443 0.374,0.519" />
      </g>
      <g
         transform="translate(207.505,318.913)"
         id="g1468">
        <path
           id="path1470"
           style="fill:#ffffff;fill-opacity:1;fill-rule:nonzero;stroke:none"
           d="m 0,0 c 0,0 -0.497,-1.865 -0.847,-2.555 0,0 2.364,-0.074 1.858,-2.996 -0.632,-1.433 -1.516,-2.732 -2.609,-3.824 -1.329,-1.328 -2.957,-2.348 -4.769,-2.975 -1.224,-0.076 -1.863,0.608 -1.863,0.608 -0.242,-0.242 -1.861,-0.918 -1.861,-0.918 1.261,-0.053 2.188,-0.016 2.813,0.035 -1.016,-0.266 -2.078,-0.422 -3.18,-0.422 -2.202,0 -4.268,0.572 -6.067,1.57 1.869,-0.757 5.744,-1.136 5.744,-1.136 -0.286,0.316 -0.844,1.15 -0.844,1.15 -3.388,-1.1 -5.872,1.246 -5.872,1.246 0.212,-0.515 0.456,-0.861 0.578,-1.021 -0.872,0.527 -1.683,1.146 -2.398,1.863 -2.268,2.268 -3.671,5.398 -3.671,8.858 0,3.462 1.403,6.591 3.671,8.859 0.539,0.539 1.13,1.025 1.759,1.459 2.937,1.265 3.467,-1.367 3.467,-1.367 0.627,0.539 2.232,1.468 2.232,1.468 -2.555,0.557 -3.121,1.047 -3.242,1.211 1.437,0.575 3.001,0.899 4.643,0.901 2.719,-0.002 5.224,-0.875 7.276,-2.344 0.007,-0.022 0.013,-0.043 0.013,-0.043 -0.117,-0.436 -1.263,-0.422 -1.263,-0.422 1.844,-1.443 2.167,-1.846 2.167,-1.846 -0.232,1.246 -0.013,1.526 -0.013,1.526 0.012,0.013 0.028,0.023 0.042,0.037 0.217,-0.189 0.434,-0.377 0.638,-0.58 2.267,-2.268 3.669,-5.397 3.669,-8.859 0,-1.743 -0.357,-3.401 -1,-4.909 0.117,0.371 0.355,1.217 0.597,2.623 0,0 -0.259,-0.685 -1.668,2.803" />
      </g>
      <g
         transform="translate(203.042,326.19)"
         id="g1472">
        <path
           id="path1474"
           style="fill:#231f20;fill-opacity:1;fill-rule:nonzero;stroke:none"
           d="M 0,0 C -0.245,1.684 -0.38,1.893 -0.38,1.893 -3.615,1.896 -6.864,2.531 -6.864,2.531 -6.51,0.84 -6.519,0.496 -6.519,0.496 -3.283,2.539 0,0 0,0" />
      </g>
      <g
         transform="translate(196.11,326.393)"
         id="g1476">
        <path
           id="path1478"
           style="fill:#231f20;fill-opacity:1;fill-rule:nonzero;stroke:none"
           d="m 0,0 c -1.481,0.264 -2.634,0.516 -2.634,0.516 0.183,-3.301 -2.114,-6.041 -2.114,-6.041 0.265,-0.129 2.637,-0.518 2.637,-0.518 C -3.005,-1.84 0,0 0,0" />
      </g>
      <g
         transform="translate(205.325,325.819)"
         id="g1480">
        <path
           id="path1482"
           style="fill:#231f20;fill-opacity:1;fill-rule:nonzero;stroke:none"
           d="m 0,0 -0.02,0.064 -0.062,0 C -0.56,0.068 -1.715,0.01 -1.723,0.01 L -1.93,0 -1.777,-0.139 c 2.89,-2.636 1.86,-6.24 1.852,-6.277 L 0.039,-6.533 0.16,-6.525 1.918,-6.404 2.031,-6.395 1.99,-6.289 C 0.777,-2.861 0.008,-0.025 0,0" />
      </g>
      <g
         transform="translate(200.036,315.366)"
         id="g1484">
        <path
           id="path1486"
           style="fill:#231f20;fill-opacity:1;fill-rule:nonzero;stroke:none"
           d="M 0,0 C 0.129,-0.391 0.961,-2.48 0.961,-2.48 3.637,0.727 6.152,0.969 6.152,0.969 5.875,2.146 5.24,3.436 5.24,3.436 3.472,-0.449 0,0 0,0" />
      </g>
      <g
         transform="translate(199.323,315.413)"
         id="g1488">
        <path
           id="path1490"
           style="fill:#231f20;fill-opacity:1;fill-rule:nonzero;stroke:none"
           d="M 0,0 C -4.021,0.691 -5.136,4.324 -5.136,4.324 -5.65,3.664 -6.996,2.045 -6.996,2.045 -3.198,1.258 -1.789,-2.178 -1.789,-2.178 -1.172,-1.469 0,0 0,0" />
      </g>
      <g
         transform="translate(196.388,307.696)"
         id="g1492">
        <path
           id="path1494"
           style="fill:#231f20;fill-opacity:1;fill-rule:nonzero;stroke:none"
           d="m 0,0 c 0.922,-0.215 2.69,-0.252 2.69,-0.252 -0.805,2.367 1.539,4.9 1.539,4.9 C 3.016,4.637 1.429,4.939 1.429,4.939 2.645,1.367 0,0 0,0" />
      </g>
      <g
         transform="translate(186.44,318.036)"
         id="g1496">
        <path
           id="path1498"
           style="fill:#231f20;fill-opacity:1;fill-rule:nonzero;stroke:none"
           d="m 0,0 c 0,0 0.253,-1.254 0.824,-2.752 0,0 0.717,2.709 4.448,2.297 0,0 -0.43,1.217 -0.777,2.703 C 4.495,2.248 1.948,-0.76 0,0" />
      </g>
      <g
         transform="translate(185.309,322.385)"
         id="g1500">
        <path
           id="path1502"
           style="fill:#231f20;fill-opacity:1;fill-rule:nonzero;stroke:none"
           d="m 0,0 c 0,0 -0.393,-0.973 -0.543,-2.352 0,0 0.123,-2.171 0.766,-4.011 0,0 0.301,1.578 0.551,2.099 0,0 -1.651,0.924 -0.774,4.264" />
      </g>
      <g
         transform="translate(187.091,314.774)"
         id="g1504">
        <path
           id="path1506"
           style="fill:#231f20;fill-opacity:1;fill-rule:nonzero;stroke:none"
           d="M 0,0 C -0.426,0.111 -1.387,0.643 -1.387,0.643 -0.43,-2.648 0.943,-4.982 0.943,-4.982 1.341,-5.301 2.208,-5.541 2.208,-5.541 -0.699,-2.666 0,0 0,0" />
      </g>
      <g
         transform="translate(204.448,339.542)"
         id="g1508">
        <path
           id="path1510"
           style="fill:#ffe512;fill-opacity:1;fill-rule:nonzero;stroke:none"
           d="m 0,0 c 0.003,0.15 -0.016,0.277 -0.02,0.42 -3.25,0.971 -3.578,-1.236 -3.578,-1.236 0,0 -0.989,3.56 3.499,2.357 -0.082,0.609 -0.216,1.141 -0.371,1.615 -0.142,0.223 -0.305,0.446 -0.515,0.658 0,0 -4.997,-0.33 -4.476,-3.459 0.914,-5.453 5.81,-5.087 6.422,-5.019 C 0.38,-3.627 -0.033,-2.139 0,0" />
      </g>
      <g
         transform="translate(204.448,339.542)"
         id="g1512">
        <path
           id="path1514"
           style="fill:#d5b718;fill-opacity:1;fill-rule:nonzero;stroke:none"
           d="m 0,0 c 0.003,0.15 -0.016,0.277 -0.02,0.42 -3.25,0.971 -3.578,-1.236 -3.578,-1.236 l 3.625,-0.2 C 0.008,-0.691 -0.005,-0.359 0,0" />
      </g>
      <g
         transform="translate(246.104,343.848)"
         id="g1516">
        <path
           id="path1518"
           style="fill:#ffe512;fill-opacity:1;fill-rule:nonzero;stroke:none"
           d="m 0,0 c -4.219,2.014 -14.099,4.506 -19.251,6.71 -6.194,2.277 -9.845,4.094 -13.953,4.137 -1.762,-3.802 -2.256,-6.114 -2.256,-6.114 0,0 -1.024,-0.959 -2.416,-1.876 -0.992,-9.037 0.064,-12.724 0.064,-12.724 0,0 0.002,-0.013 0.008,-0.032 0.039,-5.297 5.152,-9.997 16.709,-11.113 10.648,-1.028 20.782,3.446 20.476,11.336 0.57,1.605 0.832,3.062 0.855,4.336 C 0.725,-3.489 0.783,-1.79 0,0" />
      </g>
      <g
         transform="translate(231.6,326.418)"
         id="g1520">
        <path
           id="path1522"
           style="fill:#ffffff;fill-opacity:1;fill-rule:nonzero;stroke:none"
           d="m 0,0 c -10.783,-0.343 -19.647,5.328 -21.31,6.352 -1.608,0.988 -1.885,0.043 -1.634,-1.128 1.341,-4.305 6.509,-7.854 16.353,-8.805 8.968,-0.867 17.574,2.172 19.88,7.867 C 12.351,2.028 7.974,0.254 0,0" />
      </g>
      <g
         transform="translate(231.755,325.333)"
         id="g1524">
        <path
           id="path1526"
           style="fill:#231f20;fill-opacity:1;fill-rule:nonzero;stroke:none"
           d="m 0,0 c 0.044,0.202 0.06,0.438 0.063,0.659 3.441,0.543 4.37,3.814 4.37,3.814 0,0 -1.734,-2.723 -4.656,-2.719 -3.261,0.007 -4.82,2.679 -4.82,2.679 0,0 1.311,-3.722 4.632,-3.793 -0.008,-0.3 -0.023,-0.593 -0.054,-0.766 -0.048,-0.301 -0.202,-0.566 -0.308,-0.726 -1.693,-0.087 -3.727,-0.074 -6.011,0.191 -6.802,0.785 -9.275,3.083 -9.341,2.844 -0.176,-0.644 4.254,-2.464 7.879,-3.075 0.874,-0.147 1.742,-0.269 2.595,-0.363 4,-0.441 7.961,0.134 9.974,1.035 C 4.636,-0.079 2.94,-0.591 -0.047,-0.809 -0.055,-0.57 -0.07,-0.332 0,0" />
      </g>
      <g
         transform="translate(236.188,329.805)"
         id="g1528">
        <path
           id="path1530"
           style="fill:#231f20;fill-opacity:1;fill-rule:nonzero;stroke:none"
           d="M 0,0 C -0.82,0.917 -2.229,1.625 -4.357,1.625 -6.179,1.624 -7.729,1.421 -9.003,0.395 -7.927,1.219 -6.328,1.449 -4.477,1.445 -2.351,1.441 -0.688,0.784 0,0" />
      </g>
      <g
         transform="translate(233.571,329.586)"
         id="g1532">
        <path
           id="path1534"
           style="fill:#fff083;fill-opacity:1;fill-rule:nonzero;stroke:none"
           d="m 0,0 c -0.011,-0.262 -0.598,-0.46 -1.3,-0.437 -0.707,0.019 -1.271,0.249 -1.254,0.508 0.009,0.266 0.594,0.464 1.301,0.442 C -0.545,0.492 0.017,0.263 0,0" />
      </g>
      <g
         transform="translate(222.385,336.449)"
         id="g1536">
        <path
           id="path1538"
           style="fill:#231f20;fill-opacity:1;fill-rule:nonzero;stroke:none"
           d="m 0,0 c -1.229,1.462 -2.877,2.841 -3.669,3.309 -1.825,1.075 -3.216,1.754 -4.854,0.898 -2.076,-1.089 -2.377,-4.296 -2.336,-5.511 -0.627,-0.074 -0.939,-0.148 -0.939,-0.148 0,0 3.522,-0.199 6.472,-0.31 4.122,-0.16 6.309,-0.577 6.274,-0.065 C 0.939,-1.664 0.685,-0.816 0,0" />
      </g>
      <g
         transform="translate(214.349,340.234)"
         id="g1540">
        <path
           id="path1542"
           style="fill:#d1d3d4;fill-opacity:1;fill-rule:nonzero;stroke:none"
           d="m 0,0 c -1.108,-0.523 -1.995,-1.938 -2.102,-2.714 -0.498,-1.715 0.527,-2.059 1.661,-2.23 l 0.171,0 c -0.671,0.76 -1.003,1.842 -0.795,2.972 C -0.918,-1.184 -0.527,-0.511 0,0 M 6.391,-2.8 C 6.222,-2.632 5.863,-2.339 5.409,-2.004 5.44,-2.343 5.44,-2.688 5.37,-3.042 5.207,-3.871 4.777,-4.574 4.207,-5.093 6.089,-5.12 7.245,-4.925 7.878,-4.749 7.672,-4.102 6.767,-3.179 6.391,-2.8" />
      </g>
      <g
         transform="translate(219.759,337.454)"
         id="g1544">
        <path
           id="path1546"
           style="fill:#ffffff;fill-opacity:1;fill-rule:nonzero;stroke:none"
           d="M 0,0 C -0.01,-0.087 -0.022,-0.176 -0.04,-0.262 -0.203,-1.091 -0.633,-1.794 -1.203,-2.313 -0.276,-2.325 0.474,-2.286 1.074,-2.22 2.59,-1.767 0.822,-0.664 0,0 m -6.475,0.809 c 0.006,0.027 0.012,0.057 0.018,0.085 -0.53,-0.14 -0.87,-0.414 -1.055,-0.827 -0.498,-1.715 0.527,-2.06 1.66,-2.231 l 0.172,0 c -0.672,0.761 -1.004,1.843 -0.795,2.973" />
      </g>
      <g
         transform="translate(218.737,338.93)"
         id="g1548">
        <path
           id="path1550"
           style="fill:#0a6c2f;fill-opacity:1;fill-rule:nonzero;stroke:none"
           d="M 0,0 C -0.845,0.543 -1.807,1.073 -2.659,1.34 -3.63,1.112 -4.445,0.289 -4.648,-0.798 c -0.236,-1.257 0.406,-2.437 1.468,-2.858 0.456,-0.013 0.936,-0.035 1.461,-0.071 0.925,0.258 1.694,1.063 1.899,2.121 C 0.293,-1.032 0.213,-0.477 0,0 m -0.588,-1.477 c -0.209,-1.075 -1.11,-1.825 -2.015,-1.672 -0.902,0.149 -1.475,1.144 -1.274,2.219 0.2,1.077 1.106,1.827 2.018,1.675 0.912,-0.151 1.476,-1.147 1.271,-2.222" />
      </g>
      <g
         transform="translate(215.557,335.274)"
         id="g1552">
        <path
           id="path1554"
           style="fill:#428b37;fill-opacity:1;fill-rule:nonzero;stroke:none"
           d="M 0,0 C 0.456,-0.013 0.936,-0.035 1.461,-0.07 2.385,0.188 3.155,0.992 3.359,2.05 3.473,2.804 3.169,2.668 2.624,2.406 2.616,2.331 2.605,2.257 2.591,2.18 2.383,1.105 1.482,0.355 0.577,0.507 -0.326,0.656 -0.898,1.651 -0.698,2.727 -0.684,2.805 -0.665,2.879 -0.645,2.952 -1.06,3.374 -1.293,3.573 -1.469,2.858 -1.705,1.602 -1.063,0.421 0,0" />
      </g>
      <g
         transform="translate(216.18,337.828)"
         id="g1556">
        <path
           id="path1558"
           style="fill:#ffffff;fill-opacity:1;fill-rule:nonzero;stroke:none"
           d="m 0,0 c -0.089,-0.433 -0.547,-0.723 -1.017,-0.651 -0.465,0.07 -0.778,0.471 -0.684,0.902 0.089,0.43 0.546,0.722 1.016,0.655 C -0.214,0.833 0.088,0.427 0,0" />
      </g>
      <g
         transform="translate(242.985,334.059)"
         id="g1560">
        <path
           id="path1562"
           style="fill:#231f20;fill-opacity:1;fill-rule:nonzero;stroke:none"
           d="M 0,0 C 0.267,0.184 0.492,0.472 0.664,0.929 1.168,2.281 0.986,4.645 -0.49,4.781 -1.566,4.879 -3.102,4.019 -3.914,3.316 -4.557,2.762 -5.412,2.023 -5.816,1.453 -6.186,1.059 -6.828,0.308 -6.695,-0.009 c 0.181,-0.437 1.57,-0.132 4.593,-0.324 1.164,-0.073 1.149,-0.073 3.149,-0.113 0,0 -0.227,0.254 -1.047,0.446" />
      </g>
      <g
         transform="translate(240.322,337.79)"
         id="g1564">
        <path
           id="path1566"
           style="fill:#428b37;fill-opacity:1;fill-rule:nonzero;stroke:none"
           d="m 0,0 c -0.243,-0.113 -0.484,-0.246 -0.713,-0.384 0.104,0.013 0.211,0.021 0.317,0.005 0.679,-0.094 1.121,-0.802 0.985,-1.579 -0.136,-0.78 -0.792,-1.335 -1.474,-1.241 -0.68,0.097 -1.117,0.807 -0.983,1.586 0.034,0.211 0.11,0.405 0.214,0.574 -0.207,-0.165 -0.371,-0.31 -0.45,-0.399 -0.132,-0.144 -0.255,-0.29 -0.367,-0.434 0.002,-0.523 0.213,-0.999 0.567,-1.331 0.435,-0.15 1.058,-0.263 1.933,-0.301 0.571,0.258 1.017,0.792 1.135,1.461 C 1.322,-1.125 0.818,-0.278 0,0" />
      </g>
      <g
         transform="translate(240.322,337.79)"
         id="g1568">
        <path
           id="path1570"
           style="fill:#0a6c2f;fill-opacity:1;fill-rule:nonzero;stroke:none"
           d="m 0,0 c -0.243,-0.113 -0.484,-0.246 -0.713,-0.384 0.104,0.013 0.211,0.021 0.317,0.005 C 0.156,-0.454 0.551,-0.938 0.607,-1.531 0.83,-1.594 1.039,-1.641 1.191,-1.625 1.16,-0.879 0.691,-0.235 0,0" />
      </g>
      <g
         transform="translate(239.899,336.313)"
         id="g1572">
        <path
           id="path1574"
           style="fill:#ffffff;fill-opacity:1;fill-rule:nonzero;stroke:none"
           d="m 0,0 c -0.047,-0.356 -0.344,-0.602 -0.662,-0.544 -0.318,0.056 -0.541,0.395 -0.498,0.751 0.051,0.359 0.347,0.602 0.662,0.547 C -0.18,0.695 0.047,0.355 0,0" />
      </g>
      <g
         transform="translate(241.346,334.258)"
         id="g1576">
        <path
           id="path1578"
           style="fill:#ffffff;fill-opacity:1;fill-rule:nonzero;stroke:none"
           d="M 0,0 C 0.234,-0.012 0.445,-0.028 0.647,-0.048 1.514,0.218 1.799,0.78 1.875,1.082 1.951,1.397 1.648,3.569 0.482,3.835 0.283,3.879 0.061,3.871 -0.178,3.824 0.531,3.301 0.928,2.395 0.756,1.426 0.656,0.862 0.381,0.371 0,0" />
      </g>
      <g
         transform="translate(241.828,338.093)"
         id="g1580">
        <path
           id="path1582"
           style="fill:#d1d3d4;fill-opacity:1;fill-rule:nonzero;stroke:none"
           d="m 0,0 c -0.199,0.044 -0.422,0.036 -0.66,-0.011 0.527,-0.387 0.879,-0.985 0.957,-1.664 l 0.201,0.012 0.861,-0.481 C 1.234,-1.382 0.844,-0.191 0,0" />
      </g>
      <g
         transform="translate(246.104,343.848)"
         id="g1584">
        <path
           id="path1586"
           style="fill:#d5b718;fill-opacity:1;fill-rule:nonzero;stroke:none"
           d="m 0,0 c -4.219,2.014 -14.099,4.506 -19.251,6.71 -6.194,2.277 -9.844,4.094 -13.953,4.137 -1.762,-3.802 -2.256,-6.114 -2.256,-6.114 0,0 -1.024,-0.959 -2.416,-1.876 -0.051,-0.473 -0.098,-0.932 -0.139,-1.377 -0.009,-0.103 2.476,2.092 2.476,2.092 l 3.145,6.032 c 0,0 5.217,-1.157 12.18,-3.472 6.156,-2.047 15.304,-4.648 18.378,-7.027 2.295,-1.775 1.861,-6.585 1.42,-8.169 l 0.002,10e-4 C 0.014,-7.699 0.217,-6.45 0.236,-5.34 0.725,-3.489 0.783,-1.79 0,0" />
      </g>
      <g
         transform="translate(211.349,344.008)"
         id="g1588">
        <path
           id="path1590"
           style="fill:#937a08;fill-opacity:1;fill-rule:nonzero;stroke:none"
           d="M 0,0 C 3.588,0.586 8.09,-2.341 12.789,-5.548 9.113,-2.591 4.5,0.769 0.805,0.937 -3.219,1.121 -3.504,-4.449 -3.398,-6.723 -3.336,-4.633 -2.613,-0.426 0,0" />
      </g>
      <g
         transform="translate(246.143,338.102)"
         id="g1592">
        <path
           id="path1594"
           style="fill:#937a08;fill-opacity:1;fill-rule:nonzero;stroke:none"
           d="M 0,0 C -0.17,1.815 -0.592,3.683 -2.078,4.082 -3.557,4.473 -5.422,3.155 -6.373,2.512 -7.752,1.57 -8.703,0.719 -9.748,-0.106 c 1.73,0.687 4.146,3.41 6.836,3.598 1.445,0.109 2.269,-0.969 2.644,-2.344 C -0.186,0.851 0,0 0,0" />
      </g>
      <g
         transform="translate(218.642,350.135)"
         id="g1596">
        <path
           id="path1598"
           style="fill:#937a08;fill-opacity:1;fill-rule:nonzero;stroke:none"
           d="m 0,0 0.801,-1.091 -0.946,-0.984 -1.113,0.461 0.004,1.344" />
      </g>
      <g
         transform="translate(214.753,352.699)"
         id="g1600">
        <path
           id="path1602"
           style="fill:#937a08;fill-opacity:1;fill-rule:nonzero;stroke:none"
           d="M 0,0 1.225,-0.6 0.926,-1.92 -0.242,-2.031 -0.914,-0.826" />
      </g>
      <g
         transform="translate(214.185,348.307)"
         id="g1604">
        <path
           id="path1606"
           style="fill:#937a08;fill-opacity:1;fill-rule:nonzero;stroke:none"
           d="M 0,0 1.473,-0.141 1.727,-1.643 0.613,-2.224 -0.555,-1.229" />
      </g>
      <g
         transform="translate(218.628,346.135)"
         id="g1608">
        <path
           id="path1610"
           style="fill:#937a08;fill-opacity:1;fill-rule:nonzero;stroke:none"
           d="M 0,0 1.753,-0.169 2.045,-1.972 0.711,-2.67 -0.675,-1.478" />
      </g>
      <g
         transform="translate(237.227,340.832)"
         id="g1612">
        <path
           id="path1614"
           style="fill:#937a08;fill-opacity:1;fill-rule:nonzero;stroke:none"
           d="M 0,0 0.914,0.121 0.992,1.07 0.258,1.407 -0.426,0.758" />
      </g>
      <g
         transform="translate(239.088,343.528)"
         id="g1616">
        <path
           id="path1618"
           style="fill:#937a08;fill-opacity:1;fill-rule:nonzero;stroke:none"
           d="M 0,0 1.518,0.199 1.648,1.762 0.435,2.321 -0.693,1.25" />
      </g>
      <g
         transform="translate(234.634,343.078)"
         id="g1620">
        <path
           id="path1622"
           style="fill:#937a08;fill-opacity:1;fill-rule:nonzero;stroke:none"
           d="m 0,0 1.405,0.185 0.11,1.457 -1.131,0.522 -1.044,-1" />
      </g>
      <g
         transform="translate(234.146,341.368)"
         id="g1624">
        <path
           id="path1626"
           style="fill:#937a08;fill-opacity:1;fill-rule:nonzero;stroke:none"
           d="m 0,0 0.778,-0.793 -0.663,-0.961 -0.963,0.226 -0.14,1.125" />
      </g>
      <g
         transform="translate(246.727,334.932)"
         id="g1628">
        <path
           id="path1630"
           style="fill:#ffe512;fill-opacity:1;fill-rule:nonzero;stroke:none"
           d="M 0,0 C 0,0 1.121,0.174 2.234,0.732 3.141,1.199 4.023,1.902 4.312,2.934 5.197,6.039 1.729,6.891 1.729,6.891 L 1.457,5.166 C 1.723,5.096 3.049,4.691 3.316,3.336 2.574,4.199 1.508,4.244 1.313,4.244" />
      </g>
      <g
         transform="translate(259.412,355.57)"
         id="g1632">
        <path
           id="path1634"
           style="fill:#428b37;fill-opacity:1;fill-rule:nonzero;stroke:none"
           d="m 0,0 c 1.199,0.43 2.08,0.914 2.717,1.367 1.217,0.859 1.547,1.593 1.547,1.593 0,0 -1.99,0.467 -3.449,1.085 -1.459,0.617 -4.014,1.877 -6.243,3.584 -0.31,0.238 -0.781,0.726 -1.377,1.381 -5.13,-3.025 -12.754,-6.199 -21.062,-3.961 12.611,-1.694 25.48,6.957 24.803,7.361 -5.333,3.197 -7.455,8.083 -15.27,9.879 -6.079,1.399 -13.071,-2.588 -16.783,-5.161 2.495,2.132 6.171,4.729 10.549,5.796 -0.749,2.438 -1.764,3.986 -2.109,3.78 -7.026,-4.183 -17.603,-1.425 -22.618,-8.443 -2.046,-2.861 -2.468,-5.993 -2.071,-8.91 l 0,-0.001 c -0.364,1.3 -0.614,2.626 -0.666,3.926 -0.038,-0.005 -0.076,-0.006 -0.113,-0.013 -3.15,-0.587 -5.791,-3.227 -5.791,-3.227 0,0 1.837,-1.163 4.099,-2.223 -10.754,-0.904 -11.429,-7.399 -11.429,-7.399 0,0 1.687,-0.263 4.336,-1.381 0.01,-0.004 0.018,-0.011 0.027,-0.018 -2.046,-1.593 -3.335,-3.297 -4.153,-4.828 -1.453,-2.727 -1.4,-4.905 -1.4,-4.905 0,0 0.96,-0.037 2.264,-0.326 0.326,-0.07 1.562,-0.344 2.022,-0.6 -2.304,-1.791 -1.618,-4.888 -1.618,-4.888 0,0 1.08,0.242 2.494,0.262 -0.098,0.367 -0.181,0.761 -0.248,1.181 -0.389,2.418 4.559,3.922 5.218,4.111 -0.273,0.405 -0.486,0.627 -0.486,0.627 0,0 2.516,-1.029 2.596,-5.169 0.078,-4.397 1.795,-6.323 2.841,-7.092 -0.021,0.181 -0.037,0.361 -0.044,0.537 -1.769,4.949 -1.143,9.539 -0.8,13.348 -0.456,-0.236 -0.947,-0.429 -1.487,-0.54 -3.498,-0.722 -5.645,0.309 -5.645,0.309 0,0 3.543,-0.097 6.891,1.38 1.203,0.531 2.17,1.304 2.875,1.984 1.03,2.223 1.883,4.283 2.386,5.538 0.136,0.337 0.241,0.604 0.322,0.813 -0.446,1.175 -2.039,5.413 -2.595,7.456 -0.869,3.188 -1.639,9.285 4.604,11.49 0.05,0.019 0.097,0.029 0.149,0.045 -1.988,-1.094 -3.202,-2.911 -3.844,-4.23 -0.864,-1.768 -0.663,-4.528 -0.19,-6.379 0.427,-1.649 2.537,-6.97 3,-8.129 0.056,-0.14 0.094,-0.236 0.094,-0.236 2.994,-1.193 11.927,-4.71 20.526,-7.697 6.902,-1.904 16.147,-4.291 19.82,-3.826 3.01,0.383 3.625,0.545 3.625,0.545 0,0 0.944,1.894 -0.735,3.777 -1.003,1.129 -2.052,1.884 -2.737,2.314 -2.152,-0.506 -5.5,-0.626 -9.742,1.385 -3.442,1.633 -6.958,3.926 -6.958,3.926 0,0 4.417,-2.208 7.301,-3.305 3.743,-1.425 6.715,-1.675 8.78,-1.561 0.637,0.05 3.279,0.323 5.402,1.48 2.371,1.293 3.588,3.261 3.637,3.367 C 3.252,1.17 3.235,1.151 3.209,1.123 2.947,0.851 1.853,-0.264 0.58,-0.724 c -1.449,-0.524 -3.493,-0.784 -6.586,-0.39 -2.978,0.38 -4.938,1.546 -5.082,1.635 C -10.842,0.416 -5.264,-1.891 0,0" />
      </g>
      <g
         transform="translate(253.395,343.606)"
         id="g1636">
        <path
           id="path1638"
           style="fill:#0a6c2f;fill-opacity:1;fill-rule:nonzero;stroke:none"
           d="m 0,0 c -1.16,-0.01 -2.715,0.197 -5.93,0.984 0.155,-1.603 0.162,-2.912 0.049,-4.152 l 0.012,0.047 0.348,2.183 c 0,0 4.993,-1.031 3.886,-4.898 -0.875,-3.111 -4.565,-3.35 -5.195,-3.367 -0.002,-2.209 -0.605,-4.131 -1.697,-5.76 1.261,-0.81 1.905,-1.389 1.905,-1.389 0,0 2.62,1.803 3.409,7.797 1.826,-0.173 3.279,-0.966 3.279,-0.966 0,0 1.89,2.908 -0.267,9.076 C -0.123,-0.318 -0.059,-0.166 0,0" />
      </g>
      <g
         transform="translate(205.867,334.196)"
         id="g1640">
        <path
           id="path1642"
           style="fill:#0a6c2f;fill-opacity:1;fill-rule:nonzero;stroke:none"
           d="m 0,0 c -1.307,-0.189 -4.557,-0.334 -6.549,2.455 0.588,-3.832 3.644,-5.609 3.644,-5.609 0,0 -0.225,0.738 2.121,1.328 0.479,-1.762 2.659,-2.369 3.888,-2.576 C 2.617,-3.42 2.335,-2.443 2.208,-1.543 1.602,-1.357 0.736,-0.936 0,0" />
      </g>
      <g
         transform="translate(256.991,349.143)"
         id="g1644">
        <path
           id="path1646"
           style="fill:#0a6c2f;fill-opacity:1;fill-rule:nonzero;stroke:none"
           d="M 0,0 C -1.003,1.129 -2.052,1.884 -2.737,2.314 -3.569,2.118 -4.581,1.984 -5.753,2.005 -5.835,2.004 -5.914,1.991 -5.997,1.993 c -0.026,0.002 -13.611,-1.434 -22.86,1.791 -9.251,3.225 -16.689,8.478 -17.874,14.85 0.015,-1.092 0.174,-2.184 0.401,-3.069 0.427,-1.648 2.536,-6.969 3,-8.129 0.056,-0.139 0.094,-0.235 0.094,-0.235 2.994,-1.193 11.926,-4.71 20.526,-7.697 6.902,-1.904 16.147,-4.291 19.819,-3.826 3.011,0.382 3.625,0.545 3.625,0.545 0,0 0.945,1.894 -0.734,3.777" />
      </g>
      <g
         transform="translate(206.954,347.992)"
         id="g1648">
        <path
           id="path1650"
           style="fill:#0a6c2f;fill-opacity:1;fill-rule:nonzero;stroke:none"
           d="M 0,0 C 1.203,0.531 2.171,1.304 2.875,1.984 3.905,4.207 4.758,6.268 5.262,7.522 5.071,7.886 4.853,8.292 4.619,8.733 4.491,8.425 4.373,8.123 4.219,7.797 1.86,2.806 -5.514,1.982 -9.076,2.757 c 0.998,3.993 0.98,6.492 3.781,9.018 0.114,0.103 0.23,0.184 0.344,0.28 -4.605,-1.017 -7.503,-3.9 -7.823,-4.068 0.159,-0.027 1.789,-0.314 4.303,-1.376 0.009,-0.004 0.018,-0.01 0.026,-0.018 C -10.49,5 -11.779,3.296 -12.597,1.766 c -1.453,-2.728 -1.401,-4.906 -1.401,-4.906 0,0 0.961,-0.037 2.264,-0.326 0.327,-0.07 1.563,-0.344 2.022,-0.599 -2.303,-1.791 -1.617,-4.889 -1.617,-4.889 0,0 1.079,0.242 2.494,0.262 -0.098,0.367 -0.182,0.761 -0.249,1.181 -0.389,2.418 4.56,3.922 5.218,4.112 -0.273,0.404 -0.485,0.627 -0.485,0.627 0,0 2.516,-1.03 2.595,-5.17 0.078,-4.397 1.796,-6.323 2.841,-7.092 -0.021,0.181 -0.036,0.361 -0.044,0.537 -1.769,4.949 -1.142,9.539 -0.8,13.349 -0.455,-0.237 -0.947,-0.43 -1.487,-0.54 -3.497,-0.723 -5.645,0.308 -5.645,0.308 0,0 3.543,-0.097 6.891,1.38" />
      </g>
      <g
         transform="translate(194.357,349.758)"
         id="g1652">
        <path
           id="path1654"
           style="fill:#428b37;fill-opacity:1;fill-rule:nonzero;stroke:none"
           d="m 0,0 c -1.453,-2.728 -1.401,-4.905 -1.401,-4.905 0,0 0.779,-0.032 1.88,-0.248 -0.104,0.566 -0.391,2.69 0.597,5.18 0.906,2.287 3.076,4.8 3.076,4.8 C 2.107,3.234 0.818,1.53 0,0" />
      </g>
      <g
         transform="translate(196.281,341.6)"
         id="g1656">
        <path
           id="path1658"
           style="fill:#428b37;fill-opacity:1;fill-rule:nonzero;stroke:none"
           d="m 0,0 c 0.175,1.125 0.961,2.326 0.961,2.326 -2.303,-1.791 -1.617,-4.889 -1.617,-4.889 0,0 0.392,0.088 1.003,0.163 C 0.151,-1.934 -0.151,-1.012 0,0" />
      </g>
      <g
         transform="translate(235.864,362.698)"
         id="g1660">
        <path
           id="path1662"
           style="fill:#0a6c2f;fill-opacity:1;fill-rule:nonzero;stroke:none"
           d="M 0,0 C -4.593,0.39 -13.718,2.237 -13.922,2.278 -13.369,1.489 -8.92,-1.377 -4.318,-2.079 8.293,-3.772 21.161,4.878 20.484,5.282 12.112,0.966 5.032,-0.427 0,0" />
      </g>
      <g
         transform="translate(262.621,356.693)"
         id="g1664">
        <path
           id="path1666"
           style="fill:#0a6c2f;fill-opacity:1;fill-rule:nonzero;stroke:none"
           d="m 0,0 c -0.262,-0.272 -1.356,-1.387 -2.629,-1.847 -1.449,-0.524 -3.493,-0.784 -6.586,-0.39 -2.978,0.38 -4.938,1.546 -5.082,1.635 -3.693,1.43 -5.763,3.365 -5.763,3.365 0,0 1.372,-2.085 2.255,-2.819 0.886,-0.736 1.887,-1.561 1.887,-1.561 0,0 -4.61,1.563 -6.899,2.76 -1.366,0.715 -2.646,1.415 -3.805,2.065 -0.914,0.053 -1.841,0.161 -2.778,0.336 1.783,-1.783 3.071,-2.678 4.333,-3.469 0,0 4.417,-2.208 7.301,-3.305 3.743,-1.425 6.715,-1.675 8.78,-1.561 0.637,0.05 3.279,0.323 5.402,1.48 2.371,1.293 3.588,3.261 3.637,3.367 C 0.043,0.047 0.026,0.028 0,0" />
      </g>
      <g
         transform="translate(235.205,268.393)"
         id="g1668">
        <path
           id="path1670"
           style="fill:#231f20;fill-opacity:1;fill-rule:nonzero;stroke:none"
           d="m 0,0 c 0.617,0 1.117,-0.502 1.117,-1.117 0,-0.615 -0.5,-1.119 -1.117,-1.119 -0.615,0 -1.117,0.504 -1.117,1.119 C -1.117,-0.502 -0.615,0 0,0 m 0,-0.248 c -0.447,0 -0.795,-0.355 -0.795,-0.869 0,-0.518 0.348,-0.869 0.795,-0.869 0.443,0 0.795,0.351 0.795,0.869 0,0.514 -0.352,0.869 -0.795,0.869 M 0.584,-1.297 C 0.539,-1.6 0.31,-1.768 0.043,-1.768 c -0.384,0 -0.63,0.29 -0.63,0.661 0,0.377 0.234,0.658 0.624,0.658 0.277,0 0.496,-0.16 0.539,-0.463 l -0.248,0 c -0.029,0.144 -0.148,0.217 -0.291,0.217 -0.207,0 -0.322,-0.168 -0.322,-0.41 0,-0.229 0.131,-0.415 0.328,-0.415 0.156,0 0.271,0.079 0.285,0.223" />
      </g>
      <g
         transform="translate(237.557,266.194)"
         id="g1672">
        <path
           id="path1674"
           style="fill:#231f20;fill-opacity:1;fill-rule:nonzero;stroke:none"
           d="m 0,0 0,0.363 c 0.201,0.196 0.934,0.809 0.934,1.205 0,0.198 -0.176,0.291 -0.352,0.291 -0.184,0 -0.357,-0.08 -0.5,-0.174 l -0.033,0.36 c 0.195,0.1 0.422,0.154 0.64,0.154 0.413,0 0.678,-0.207 0.678,-0.631 0,-0.459 -0.461,-0.879 -0.814,-1.226 l 0.883,0 0,-0.342" />
      </g>
      <g
         transform="translate(239.321,267.27)"
         id="g1676">
        <path
           id="path1678"
           style="fill:#231f20;fill-opacity:1;fill-rule:nonzero;stroke:none"
           d="M 0,0 C 0,0.541 0.164,1.123 0.75,1.123 1.381,1.123 1.506,0.502 1.506,0 1.506,-0.502 1.375,-1.113 0.75,-1.113 0.084,-1.113 0,-0.453 0,0 m 1.071,0 c 0,0.279 0,0.801 -0.321,0.801 C 0.433,0.801 0.433,0.279 0.433,0 c 0,-0.274 -0.004,-0.789 0.317,-0.789 0.324,0 0.321,0.515 0.321,0.789" />
      </g>
      <g
         transform="translate(241.135,267.27)"
         id="g1680">
        <path
           id="path1682"
           style="fill:#231f20;fill-opacity:1;fill-rule:nonzero;stroke:none"
           d="M 0,0 C 0,0.541 0.164,1.123 0.75,1.123 1.381,1.123 1.506,0.502 1.506,0 1.506,-0.502 1.375,-1.113 0.75,-1.113 0.084,-1.113 0,-0.453 0,0 m 1.072,0 c 0,0.279 0,0.801 -0.322,0.801 C 0.434,0.801 0.434,0.279 0.434,0 c 0,-0.274 -0.004,-0.789 0.316,-0.789 0.324,0 0.322,0.515 0.322,0.789" />
      </g>
      <g
         transform="translate(242.887,268.356)"
         id="g1684">
        <path
           id="path1686"
           style="fill:#231f20;fill-opacity:1;fill-rule:nonzero;stroke:none"
           d="m 0,0 1.395,0 0,-0.359 -0.768,-1.803 -0.471,0 0.801,1.822 -0.957,0" />
      </g>
      <g
         transform="translate(245.442,268.356)"
         id="g1688">
        <path
           id="path1690"
           style="fill:#231f20;fill-opacity:1;fill-rule:nonzero;stroke:none"
           d="m 0,0 1.201,0 0,-0.34 -0.767,0 0,-0.533 0.73,0 0,-0.34 -0.73,0 0,-0.949 -0.434,0" />
      </g>
      <path
         id="path1692"
         style="fill:#231f20;fill-opacity:1;fill-rule:nonzero;stroke:none"
         d="m 247.014,266.195 0.43402,0 0,2.162 -0.43402,0 0,-2.162 z" />
      <g
         transform="translate(247.975,268.356)"
         id="g1694">
        <path
           id="path1696"
           style="fill:#231f20;fill-opacity:1;fill-rule:nonzero;stroke:none"
           d="m 0,0 1.201,0 0,-0.34 -0.767,0 0,-0.533 0.73,0 0,-0.34 -0.73,0 0,-0.949 -0.434,0" />
      </g>
      <g
         transform="translate(250.018,268.356)"
         id="g1698">
        <path
           id="path1700"
           style="fill:#231f20;fill-opacity:1;fill-rule:nonzero;stroke:none"
           d="m 0,0 0.49,0 0.848,-2.162 -0.481,0 -0.185,0.496 -0.877,0 -0.188,-0.496 -0.449,0 L 0,0 z m 0.238,-0.434 -0.006,0 -0.312,-0.89 0.631,0" />
      </g>
      <g
         transform="translate(252.765,268.014)"
         id="g1702">
        <path
           id="path1704"
           style="fill:#231f20;fill-opacity:1;fill-rule:nonzero;stroke:none"
           d="m 0,0 -0.618,0 0,0.34 1.672,0 0,-0.34 -0.619,0 0,-1.822 -0.435,0" />
      </g>
      <g
         transform="translate(254.235,268.354)"
         id="g1706">
        <path
           id="path1708"
           style="fill:#231f20;fill-opacity:1;fill-rule:nonzero;stroke:none"
           d="m 0,0 0.693,0 0.514,-1.639 0.008,0 0.514,1.639 0.693,0 0,-2.162 -0.414,0 0,1.785 -0.008,0 -0.58,-1.785 -0.416,0 -0.582,1.785 -0.008,-0.008 0,-1.777 -0.414,0" />
      </g>
    </g>
  </g>
</svg>
