<?xml version="1.0" encoding="UTF-8" standalone="no"?>
<!-- Generator: Adobe Illustrator 26.0.0, SVG Export Plug-In . SVG Version: 6.00 Build 0)  -->

<svg
   version="1.1"
   id="Layer_1"
   x="0px"
   y="0px"
   viewBox="0 0 183.37732 300"
   xml:space="preserve"
   sodipodi:docname="2023_FIFA_Women's_World_Cup_logo.svg"
   width="183.37732"
   height="300"
   inkscape:version="1.1 (c68e22c387, 2021-05-23)"
   xmlns:inkscape="http://www.inkscape.org/namespaces/inkscape"
   xmlns:sodipodi="http://sodipodi.sourceforge.net/DTD/sodipodi-0.dtd"
   xmlns:xlink="http://www.w3.org/1999/xlink"
   xmlns="http://www.w3.org/2000/svg"
   xmlns:svg="http://www.w3.org/2000/svg"><defs
   id="defs199" /><sodipodi:namedview
   id="namedview197"
   pagecolor="#ffffff"
   bordercolor="#666666"
   borderopacity="1.0"
   inkscape:pageshadow="2"
   inkscape:pageopacity="0.0"
   inkscape:pagecheckerboard="0"
   showgrid="false"
   fit-margin-top="0"
   fit-margin-left="0"
   fit-margin-right="0"
   fit-margin-bottom="0"
   inkscape:zoom="0.62205742"
   inkscape:cx="739.48158"
   inkscape:cy="584.3512"
   inkscape:window-width="1920"
   inkscape:window-height="1017"
   inkscape:window-x="-8"
   inkscape:window-y="-8"
   inkscape:window-maximized="1"
   inkscape:current-layer="g3380" />
<style
   type="text/css"
   id="style2">
	.st0{fill:#F1F0D9;}
	.st1{fill:#FCC82F;}
	.st2{fill:#0198FF;}
	.st3{fill:#FD5211;}
	.st4{fill:#FF808B;}
	.st5{fill:#009545;}
	.st6{fill:#0099FF;}
	.st7{clip-path:url(#SVGID_00000070097097865724052160000016695233595613777050_);fill:#027CFF;}
	.st8{fill:#009645;}
	.st9{clip-path:url(#SVGID_00000016781377157082527800000014285197472564711834_);fill:#007F2F;}
</style>





<g
   id="g3380"
   transform="scale(0.21119637)"><g
     id="g1031"
     transform="matrix(4.7058813,0,0,4.7342176,58.789308,0)"
     style="opacity:1"><g
       id="g1114"
       transform="scale(0.29761905)"><rect
         width="536"
         height="1008"
         id="rect4"
         x="0"
         y="0" /><g
         id="g76">
	<path
   class="st0"
   d="m 360.216,238.61 -0.908,-46.707 -46.606,-33.861 -44.702,13.569 -44.702,-13.57 -46.606,33.861 -0.908,46.707 -26.719,38.321 17.802,54.789 44.14,15.297 28.189,37.253 H 268 296.804 l 28.189,-37.253 44.14,-15.297 17.802,-54.789 z m -60.584,73.498 H 236.368 L 216.818,251.94 268,214.754 319.182,251.94 Z"
   id="path6" />
	<g
   id="g40">
		
			<rect
   x="213.909"
   y="96.757004"
   transform="matrix(0.9808,-0.1951,0.1951,0.9808,-19.1382,48.9182)"
   class="st1"
   width="49.719002"
   height="49.719002"
   id="rect8" />
		
			<rect
   x="159.896"
   y="119.129"
   transform="matrix(0.8315,-0.5556,0.5556,0.8315,-48.8589,126.9113)"
   class="st2"
   width="49.719002"
   height="49.719002"
   id="rect10" />
		
			<rect
   x="96.183998"
   y="214.48199"
   transform="matrix(0.1951,-0.9808,0.9808,0.1951,-137.3133,311.3656)"
   class="st0"
   width="49.719002"
   height="49.719002"
   id="rect12" />
		
			<rect
   x="118.557"
   y="160.46899"
   transform="matrix(0.5556,-0.8315,0.8315,0.5556,-90.3565,201.6116)"
   class="st3"
   width="49.719002"
   height="49.719002"
   id="rect14" />
		
			<rect
   x="96.183998"
   y="272.94501"
   transform="matrix(-0.1951,-0.9808,0.9808,-0.1951,-147.4242,474.6204)"
   class="st1"
   width="49.719002"
   height="49.719002"
   id="rect16" />
		
			<rect
   x="118.557"
   y="326.95801"
   transform="matrix(-0.5556,-0.8315,0.8315,-0.5556,-69.4312,666.5221)"
   class="st2"
   width="49.719002"
   height="49.719002"
   id="rect18" />
		
			<rect
   x="213.909"
   y="390.67001"
   transform="matrix(-0.9808,-0.1951,0.1951,-0.9808,391.8834,869.6558)"
   class="st0"
   width="49.719002"
   height="49.719002"
   id="rect20" />
		
			<rect
   x="159.896"
   y="368.297"
   transform="matrix(-0.8315,-0.5556,0.5556,-0.8315,119.9485,822.699)"
   class="st3"
   width="49.719002"
   height="49.719002"
   id="rect22" />
		
			<rect
   x="272.37201"
   y="390.67001"
   transform="matrix(-0.9808,0.1951,-0.1951,-0.9808,669.8175,765.0874)"
   class="st1"
   width="49.719002"
   height="49.719002"
   id="rect24" />
		
			<rect
   x="326.38501"
   y="368.297"
   transform="matrix(-0.8315,0.5556,-0.5556,-0.8315,861.7192,524.9133)"
   class="st2"
   width="49.719002"
   height="49.719002"
   id="rect26" />
		
			<rect
   x="390.09698"
   y="272.94501"
   transform="matrix(-0.1951,0.9808,-0.9808,-0.1951,787.9926,-51.0806)"
   class="st0"
   width="49.719002"
   height="49.719002"
   id="rect28" />
		
			<rect
   x="367.724"
   y="326.95801"
   transform="matrix(-0.5556,0.8315,-0.8315,-0.5556,903.2169,220.8544)"
   class="st3"
   width="49.719002"
   height="49.719002"
   id="rect30" />
		
			<rect
   x="390.09698"
   y="214.48199"
   transform="matrix(0.1951,0.9808,-0.9808,0.1951,568.7449,-214.3354)"
   class="st1"
   width="49.719002"
   height="49.719002"
   id="rect32" />
		
			<rect
   x="367.724"
   y="160.46899"
   transform="matrix(0.5556,0.8315,-0.8315,0.5556,328.5709,-244.0561)"
   class="st2"
   width="49.719002"
   height="49.719002"
   id="rect34" />
		
			<rect
   x="272.37201"
   y="96.757004"
   transform="matrix(0.9808,0.1951,-0.1951,0.9808,29.4373,-55.6502)"
   class="st0"
   width="49.719002"
   height="49.719002"
   id="rect36" />
		
			<rect
   x="326.38501"
   y="119.129"
   transform="matrix(0.8315,0.5556,-0.5556,0.8315,139.1912,-170.8744)"
   class="st3"
   width="49.719002"
   height="49.719002"
   id="rect38" />
	</g>
	<g
   id="g74">
		<rect
   x="233.91701"
   y="29.059"
   class="st4"
   width="68.166"
   height="68.166"
   id="rect42" />
		
			<rect
   x="155.302"
   y="44.696999"
   transform="matrix(0.9239,-0.3827,0.3827,0.9239,-15.7316,78.4713)"
   class="st5"
   width="68.166"
   height="68.166"
   id="rect44" />
		
			<rect
   x="44.124001"
   y="155.875"
   transform="matrix(0.3827,-0.9239,0.9239,0.3827,-127.2197,189.5179)"
   class="st5"
   width="68.166"
   height="68.166"
   id="rect46" />
		
			<rect
   x="88.655998"
   y="89.227997"
   transform="matrix(0.7071,-0.7071,0.7071,0.7071,-51.245,122.9064)"
   class="st0"
   width="68.166"
   height="68.166"
   id="rect48" />
		
			<rect
   x="28.486"
   y="234.49001"
   transform="rotate(-90,62.5695,268.5727)"
   class="st4"
   width="68.166"
   height="68.166"
   id="rect50" />
		
			<rect
   x="44.124001"
   y="313.104"
   transform="matrix(-0.3827,-0.9239,0.9239,-0.3827,-212.6239,552.3043)"
   class="st5"
   width="68.166"
   height="68.166"
   id="rect52" />
		
			<rect
   x="155.302"
   y="424.28299"
   transform="matrix(-0.9239,-0.3827,0.3827,-0.9239,188.9453,954.3149)"
   class="st5"
   width="68.166"
   height="68.166"
   id="rect54" />
		
			<rect
   x="88.655998"
   y="379.75101"
   transform="matrix(-0.7071,-0.7071,0.7071,-0.7071,-83.0967,793.2481)"
   class="st0"
   width="68.166"
   height="68.166"
   id="rect56" />
		
			<rect
   x="233.91701"
   y="439.92001"
   transform="rotate(180,268,474.00315)"
   class="st4"
   width="68.166"
   height="68.166"
   id="rect58" />
		
			<rect
   x="312.53201"
   y="424.28299"
   transform="matrix(-0.9239,0.3827,-0.3827,-0.9239,842.2542,749.1966)"
   class="st5"
   width="68.166"
   height="68.166"
   id="rect60" />
		
			<rect
   x="423.70999"
   y="313.104"
   transform="matrix(-0.3827,0.9239,-0.9239,-0.3827,953.7422,57.1048)"
   class="st5"
   width="68.166"
   height="68.166"
   id="rect62" />
		
			<rect
   x="379.17801"
   y="379.75101"
   transform="matrix(-0.7071,0.7071,-0.7071,-0.7071,998.106,414.2389)"
   class="st0"
   width="68.166"
   height="68.166"
   id="rect64" />
		
			<rect
   x="439.34698"
   y="234.49001"
   transform="rotate(90,473.4305,268.5727)"
   class="st4"
   width="68.166"
   height="68.166"
   id="rect66" />
		
			<rect
   x="423.70999"
   y="155.875"
   transform="matrix(0.3827,0.9239,-0.9239,0.3827,458.1013,-305.6815)"
   class="st5"
   width="68.166"
   height="68.166"
   id="rect68" />
		
			<rect
   x="312.53201"
   y="44.696999"
   transform="matrix(0.9239,0.3827,-0.3827,0.9239,56.5321,-126.647)"
   class="st5"
   width="68.166"
   height="68.166"
   id="rect70" />
		
			<rect
   x="379.17801"
   y="89.227997"
   transform="matrix(0.7071,0.7071,-0.7071,0.7071,208.2357,-256.1028)"
   class="st0"
   width="68.166"
   height="68.166"
   id="rect72" />
	</g>
</g><g
         id="g138"
         transform="matrix(1,0,0,1.0042777,0,-4.844605)">
	<g
   id="g86">
		<g
   id="g84">
			<g
   id="g82">
				<g
   id="g80">
					<path
   class="st0"
   d="m 507.462,714.248 -19.122,-94.695 11.812,-40.827 -7.622,-6.2 c 5.687,-3.34 9.515,-9.515 9.515,-16.573 0,-10.592 -8.623,-19.215 -19.215,-19.215 -1.245,0 -2.465,0.118 -3.643,0.345 V 523.69 l -23.413,23.001 v 24.742 l 4.03,3.071 15.076,11.5 -17.372,5.393 15.152,61.136 -17.86,61.716 h 52.662 z M 479.187,543.14 c 1.161,-0.336 2.381,-0.513 3.643,-0.513 7.344,0 13.326,5.982 13.326,13.326 0,7.344 -5.982,13.318 -13.326,13.318 -4.879,0 -9.162,-2.642 -11.467,-6.57 l 7.824,-8.001 z m -17.524,6.015 11.635,-11.425 v 14.563 l -11.635,11.896 z m 2.288,21.108 3.188,-3.247 c 3.483,4.921 9.212,8.144 15.69,8.144 1.11,0 2.204,-0.093 3.264,-0.278 h 0.008 l 6.789,5.527 -11.113,3.449 z m 0.606,25.112 27.081,-8.413 -15.707,54.28 z m 20.241,36.402 10.087,49.947 h -24.549 z m 11.282,55.836 4.19,20.746 h -37.64 l 6.007,-20.746 z"
   id="path78" />
				</g>
			</g>
		</g>
	</g>
	<g
   id="g136">
		<g
   id="g102">
			<polygon
   class="st0"
   points="77.942,652.675 89.498,605.025 82.768,605.025 73.516,643.172 62.974,605.025 61.268,605.025 56.244,605.025 54.538,605.025 43.996,643.172 34.744,605.025 28.014,605.025 39.57,652.675 41.369,652.675 46.3,652.675 48.1,652.675 58.756,614.115 69.412,652.675 71.212,652.675 76.143,652.675 "
   id="polygon88" />
			<path
   class="st0"
   d="m 115.799,604.02 c -13.939,0 -25.238,11.117 -25.238,24.83 0,13.713 11.3,24.83 25.238,24.83 13.938,0 25.238,-11.117 25.238,-24.83 0.001,-13.714 -11.299,-24.83 -25.238,-24.83 z m 0,42.928 c -10.002,0 -18.111,-8.103 -18.111,-18.099 0,-9.996 8.109,-18.099 18.111,-18.099 10.002,0 18.111,8.103 18.111,18.099 0,9.996 -8.108,18.099 -18.111,18.099 z"
   id="path90" />
			<polygon
   class="st0"
   points="153.619,616.832 153.619,652.675 146.888,652.675 146.888,605.025 153.08,605.025 170.478,627.016 187.867,605.025 194.059,605.025 194.059,652.675 187.329,652.675 187.329,616.849 171.925,635.807 169.031,635.807 "
   id="polygon92" />
			<path
   class="st0"
   d="m 239.982,611.755 v -6.73 h -37.978 v 34.61 c 0,7.202 5.838,13.04 13.04,13.04 h 24.938 v -6.73 h -24.097 c -3.949,0 -7.151,-3.202 -7.151,-7.151 v -6.848 h 30.126 v -6.73 h -30.126 v -13.461 z"
   id="path94" />
			<polygon
   class="st0"
   points="246.382,605.025 253.112,605.025 282.768,640.85 282.768,605.025 289.498,605.025 289.498,652.675 282.768,652.675 253.112,616.849 253.112,652.675 246.382,652.675 "
   id="polygon96" />
			<polygon
   class="st0"
   points="299.362,605.025 297.54,623.603 303.008,623.603 307.355,605.025 "
   id="polygon98" />
			<path
   class="st0"
   d="m 358.681,639.08 c 0,7.504 -6.082,13.595 -13.595,13.595 h -30.471 v -6.73 h 30.471 c 3.794,0 6.865,-3.071 6.865,-6.865 0,-3.794 -3.071,-6.865 -6.865,-6.865 h -18.214 c -7.504,0 -13.595,-6.091 -13.595,-13.595 0,-7.504 6.091,-13.595 13.595,-13.595 h 29.277 v 6.73 h -29.277 c -3.794,0 -6.865,3.071 -6.865,6.865 0,3.794 3.071,6.865 6.865,6.865 h 18.214 c 7.513,0 13.595,6.09 13.595,13.595 z"
   id="path100" />
		</g>
		<g
   id="g124">
			<polygon
   class="st0"
   points="73.515,704.725 62.973,666.578 54.537,666.578 43.995,704.725 34.744,666.578 28.014,666.578 39.57,714.228 41.369,714.228 46.3,714.228 48.099,714.228 58.755,675.669 69.411,714.228 71.211,714.228 76.142,714.228 77.941,714.228 89.497,666.578 82.767,666.578 "
   id="polygon104" />
			<path
   class="st0"
   d="m 115.799,665.574 c -13.939,0 -25.238,11.117 -25.238,24.83 0,13.713 11.3,24.83 25.238,24.83 13.938,0 25.238,-11.117 25.238,-24.83 0.001,-13.714 -11.299,-24.83 -25.238,-24.83 z m 0,42.928 c -10.002,0 -18.111,-8.103 -18.111,-18.099 0,-9.996 8.109,-18.099 18.111,-18.099 10.002,0 18.111,8.103 18.111,18.099 0,9.996 -8.108,18.099 -18.111,18.099 z"
   id="path106" />
			<path
   class="st0"
   d="m 380.521,666.581 v 29.798 c 0,10.407 -9.835,18.845 -21.966,18.845 -12.131,0 -21.966,-8.438 -21.966,-18.845 v -29.798 h 6.73 v 29.798 c 0,6.688 6.823,12.115 15.236,12.115 8.413,0 15.236,-5.426 15.236,-12.115 v -29.798 z"
   id="path108" />
			<g
   id="g112">
				<path
   class="st0"
   d="m 164.278,693.94 h 9.55 c 7.555,0 13.679,-6.125 13.679,-13.679 0,-7.555 -6.125,-13.679 -13.679,-13.679 h -26.939 v 47.65 h 6.73 V 693.94 h 0.766 l 24.004,20.292 h 10.568 z m -10.659,-6.73 v -13.898 h 20.209 c 3.836,0 6.949,3.113 6.949,6.949 0,3.836 -3.113,6.949 -6.949,6.949 z"
   id="path110" />
			</g>
			<g
   id="g116">
				<path
   class="st0"
   d="m 206.771,707.501 c -3.949,0 -7.151,-3.202 -7.151,-7.151 v -33.769 h -6.73 v 34.61 c 0,7.202 5.838,13.04 13.04,13.04 h 19.119 v -6.73 z"
   id="path114" />
			</g>
			<path
   class="st0"
   d="m 251.258,666.581 h -20.881 v 47.65 h 20.881 c 13.158,0 23.825,-10.667 23.825,-23.825 0,-13.157 -10.667,-23.825 -23.825,-23.825 z m 0,40.92 h -14.15 v -34.19 h 14.15 c 9.439,0 17.095,7.656 17.095,17.095 0,9.439 -7.656,17.095 -17.095,17.095 z"
   id="path118" />
			<path
   class="st0"
   d="m 330.7,707.501 h -15.325 c -9.439,0 -17.095,-7.656 -17.095,-17.095 0,-9.439 7.656,-17.095 17.095,-17.095 H 330.7 v -6.73 h -15.325 c -13.158,0 -23.825,10.667 -23.825,23.825 0,13.158 10.667,23.825 23.825,23.825 H 330.7 Z"
   id="path120" />
			<path
   class="st0"
   d="m 413.281,666.581 h -25.743 v 47.65 h 6.73 v -18.416 h 19.013 c 8.076,0 14.613,-6.545 14.613,-14.622 0,-8.067 -6.537,-14.612 -14.613,-14.612 z m 0,22.505 h -19.013 v -15.774 h 19.013 c 4.358,0 7.883,3.533 7.883,7.883 -10e-4,4.357 -3.526,7.891 -7.883,7.891 z"
   id="path122" />
		</g>
		<g
   id="g134">
			<polygon
   class="st0"
   points="76.504,591.959 93.898,591.959 93.898,536.223 76.526,536.223 "
   id="polygon126" />
			<polygon
   class="st0"
   points="71.132,536.223 28.364,536.223 28.364,592.004 45.961,592.004 45.961,571.845 58.187,571.845 62.974,559.664 45.961,559.664 45.961,548.359 66.615,548.359 "
   id="polygon128" />
			<path
   class="st0"
   d="M 178.199,536.223 H 160.13 l -20.024,55.736 h 16.811 l 2.158,-7.484 h 19.62 l 2.27,7.484 h 17.305 z m -16.047,37.577 6.72,-23.238 6.944,23.238 z"
   id="path130" />
			<polygon
   class="st0"
   points="123.497,548.337 144.151,548.337 148.713,536.201 105.922,536.201 105.922,536.223 105.922,591.959 123.542,591.959 123.542,571.822 135.723,571.822 140.51,559.641 123.497,559.641 "
   id="polygon132" />
		</g>
	</g>
</g><g
         id="g166">
	<rect
   x="0"
   y="740"
   class="st6"
   width="268"
   height="268"
   id="rect140" />
	<g
   id="g150">
		<defs
   id="defs143">
			<rect
   id="SVGID_1_"
   x="0"
   y="740"
   width="268"
   height="268" />
		</defs>
		<clipPath
   id="SVGID_00000054985755748264509110000002163270367851144075_">
			<use
   xlink:href="#SVGID_1_"
   style="overflow:visible"
   id="use145"
   x="0"
   y="0"
   width="100%"
   height="100%" />
		</clipPath>
		<path
   style="fill:#027cff"
   d="M 95.479,773 47.739,820.74 0,773 Z m -47.739,47.74 47.74,47.74 47.74,-47.74 z m 47.739,47.739 47.74,47.74 47.74,-47.74 z m 47.74,47.74 47.74,47.74 47.74,-47.74 z m 47.739,47.739 47.74,47.74 47.74,-47.74 z M -47.74,820.74 0,868.479 47.74,820.739 H -47.74 Z M 0,868.479 l 47.74,47.74 47.74,-47.74 z m 47.74,47.74 47.74,47.74 47.74,-47.74 z m 47.739,47.739 47.74,47.74 47.74,-47.74 z M -47.74,725.26 0,773 47.74,725.26 Z M 174.74,773 222.48,820.74 270.22,773 Z m 47.739,47.74 47.74,47.74 47.74,-47.74 z M 127,725.26 174.74,773 222.48,725.26 Z m -149.813,215.698 77.917,77.917 h 16.667 l -94.583,-94.583 v 16.666 z m 0,32.195 45.722,45.722 h 16.667 l -62.389,-62.389 z"
   clip-path="url(#SVGID_00000054985755748264509110000002163270367851144075_)"
   id="path148" />
	</g>
	<g
   id="g164">
		<g
   id="g156">
			<polygon
   class="st1"
   points="131.257,980.222 109.035,980.222 55.257,921.222 55.257,980.222 30.701,980.222 30.701,882.222 52.924,882.222 106.701,941.222 106.701,882.222 131.257,882.222 "
   id="polygon152" />
			<polygon
   class="st1"
   points="144.868,980.222 144.868,961.111 201.812,904.611 144.868,904.611 144.868,882.222 238.688,882.222 238.688,901.333 181.743,957.833 238.688,957.833 238.688,980.222 "
   id="polygon154" />
		</g>
		<g
   id="g162">
			<path
   class="st0"
   d="m 79.369,767.64 c -27.49,0 -49.78,16.47 -49.78,47.77 v 52.03 h 24.78 v -20 h 50 v 20 h 24.78 v -52.03 c 0,-31.3 -22.29,-47.77 -49.78,-47.77 z m 25,57.8 h -50 v -10.03 c 0,-16.4 11.19,-25.04 25,-25.04 13.81,0 25,8.64 25,25.04 z"
   id="path158" />
			<path
   class="st0"
   d="m 240.039,770.04 v 52.03 c 0,31.3 -22.29,47.78 -49.78,47.78 -27.49,0 -49.78,-16.48 -49.78,-47.78 v -52.03 h 24.78 v 52.03 c 0,16.4 11.19,25.04 25,25.04 13.8,0 25,-8.64 25,-25.04 v -52.03 z"
   id="path160" />
		</g>
	</g>
</g><g
         id="g194">
	<rect
   x="268"
   y="740"
   class="st8"
   width="268"
   height="268"
   id="rect168" />
	<g
   id="g178">
		<defs
   id="defs171">
			<rect
   id="SVGID_00000157278557299782113090000000695928040682338443_"
   x="268"
   y="740"
   width="268"
   height="268" />
		</defs>
		<clipPath
   id="SVGID_00000019642650818274312580000009043661108192746166_">
			<use
   xlink:href="#SVGID_00000157278557299782113090000000695928040682338443_"
   style="overflow:visible"
   id="use173"
   x="0"
   y="0"
   width="100%"
   height="100%" />
		</clipPath>
		<path
   style="fill:#007f2f"
   d="m 307.171,889.126 c -0.104,0.932 -0.388,1.855 -0.873,2.742 -1.848,3.379 -6.149,4.663 -9.695,3.473 -2.466,-0.827 -4.427,-2.47 -5.224,-5.006 -0.49,-1.559 -0.372,-3.374 0.134,-4.915 1.186,-3.608 4.153,-6.425 8.13,-6.402 1.69,0.01 3.171,0.652 4.295,1.686 1.676,0.935 2.951,2.52 3.46,4.398 0.383,1.409 0.263,2.795 -0.227,4.024 z m 20.793,-2.088 c 0.052,3.652 -0.537,7.371 -1.714,10.875 -0.127,0.761 -0.293,1.508 -0.538,2.229 -0.681,2.005 -1.842,4.102 -3.313,5.993 -1.283,2.011 -2.893,3.745 -4.933,4.875 -0.931,0.751 -1.906,1.443 -2.946,2.035 -10.856,6.176 -27.823,4.097 -35.988,-5.772 -4.031,-4.873 -9.063,-10.173 -9.177,-16.872 -0.111,-6.478 2.34,-13.951 6.114,-19.174 7.092,-9.814 21.324,-16.78 32.988,-11.744 9.476,4.091 17.903,11.052 19.122,20.673 0.034,0.078 0.077,0.151 0.105,0.233 0.82,2.356 0.695,4.466 0.28,6.649 z m -7.792,-3.408 c -0.552,-2.979 -1.734,-5.786 -3.53,-8.219 -0.031,-0.03 -0.065,-0.058 -0.096,-0.088 -0.744,-1.611 -1.728,-3.068 -3.501,-4.243 -3.5,-2.32 -8.242,-3.427 -12.398,-3.341 -0.219,0.005 -0.416,0.041 -0.615,0.074 -0.269,-0.008 -0.538,-0.019 -0.807,-0.015 -4.482,0.058 -7.215,1.51 -10.544,4.281 -0.783,0.652 -1.504,1.237 -2.229,1.755 -0.014,0.014 -0.029,0.028 -0.043,0.042 -0.81,1.307 -1.484,2.742 -2.068,4.245 -0.098,0.211 -0.192,0.426 -0.281,0.646 -0.002,0.005 -0.004,0.01 -0.006,0.015 -0.305,0.467 -0.558,0.983 -0.736,1.557 -0.128,0.414 -0.205,0.877 -0.255,1.356 -0.218,0.326 -0.434,0.654 -0.64,0.99 -0.558,0.91 -0.669,1.843 -0.481,2.693 -0.5,1.657 -0.734,3.361 -0.607,5.131 -0.008,0.049 -0.017,0.099 -0.024,0.148 0.073,0.335 0.111,0.695 0.068,1.106 -0.077,0.743 -0.048,1.566 0.067,2.427 1.054,2.773 2.4,5.434 4.523,7.546 3.164,3.148 7.865,3.864 12.146,4.172 8.453,0.607 15.146,-3.071 19.047,-10.62 1.98,-3.835 3.119,-7.827 3.01,-11.658 z m 35.194,-0.723 c -0.084,-4.619 -0.626,-9.303 -1.19,-13.93 -0.115,-0.327 -0.227,-0.659 -0.345,-0.976 -2.604,-6.981 -6,-14.301 -10.657,-20.15 -4.331,-5.438 -10.357,-9.88 -16.85,-12.384 -5.713,-2.203 -11.684,-2.094 -17.668,-2.004 -0.641,-0.072 -1.28,-0.14 -1.917,-0.202 -10.809,-1.051 -20.789,1.932 -29.298,7.518 -1.129,0.642 -2.244,1.304 -3.252,2.13 -0.244,0.2 -0.5,0.48 -0.763,0.782 -0.378,0.302 -0.752,0.609 -1.123,0.922 -1.154,0.465 -2.086,1.206 -3.004,2.384 -0.723,0.48 -1.447,0.961 -2.17,1.441 -1.065,0.707 -1.612,1.669 -1.772,2.67 -0.653,0.304 -1.248,0.826 -1.699,1.633 -0.629,1.124 -1.258,2.248 -1.886,3.371 -1.38,2.466 -0.108,4.639 1.812,5.478 0.783,2.145 3.651,3.603 5.768,1.499 0.222,-0.221 0.444,-0.442 0.665,-0.663 0.188,-0.304 0.425,-0.601 0.765,-0.875 1.564,-1.262 2.462,-3.513 3.84,-5.031 1.687,-1.859 3.616,-3.528 5.67,-4.974 3.538,-2.489 7.794,-4.465 11.79,-6.108 5.985,-2.461 13.693,-1.942 20.289,0.345 0.022,0.002 0.045,0.003 0.067,0.004 8.953,0.674 14.181,4.429 18.749,12.013 4.147,6.885 7.614,14.539 8.692,22.557 0.761,5.661 0.358,11.384 -1.11,16.777 -1.361,3.017 -2.9,5.953 -4.623,8.813 -1.79,2.971 -3.809,6.53 -6.237,9.538 -1.706,1.617 -3.558,3.105 -5.592,4.4 -10.911,6.947 -24.722,7.435 -35.8,1.325 -1.58,-0.787 -3.082,-1.7 -4.729,-2.519 -0.153,-0.076 -0.308,-0.145 -0.461,-0.217 -1.899,-1.816 -3.887,-3.6 -6.209,-4.723 -1.198,-1.187 -2.42,-2.372 -3.499,-3.624 -0.152,-0.19 -0.307,-0.377 -0.466,-0.56 -0.116,-0.144 -0.235,-0.287 -0.347,-0.433 -0.958,-1.551 -1.775,-3.105 -2.413,-4.494 -0.889,-1.938 -2.81,-2.463 -4.601,-2.076 -2.842,-0.157 -5.669,2.163 -4.674,5.522 1.424,4.807 3.269,9.463 5.464,13.97 0.454,0.933 1.078,1.547 1.778,1.906 0.636,0.792 1.18,1.616 1.726,2.429 0.853,0.707 1.693,1.419 2.538,2.045 1.699,1.258 3.368,2.568 5.065,3.838 0.574,0.248 1.131,0.534 1.664,0.89 0.106,0.071 0.185,0.155 0.28,0.23 1.364,0.322 2.598,0.819 3.942,1.547 0.302,0.164 0.56,0.352 0.783,0.557 4.604,1.649 9.392,2.768 14.31,2.859 6.256,0.116 12.076,-1.764 17.762,-4.193 5.682,-2.427 11.408,-4.696 17.112,-7.064 1.533,-0.637 2.967,-1.348 4.326,-2.117 0.123,-0.162 0.256,-0.313 0.383,-0.47 4.998,-3.135 8.3,-7.621 10.856,-12.638 2.32,-3.236 4.308,-6.683 5.438,-10.726 1.427,-5.11 2.319,-10.302 2.842,-15.535 -0.002,-0.901 -0.005,-1.803 -0.021,-2.707 z m 37.777,-5.056 c -0.222,-1.651 -0.616,-3.243 -0.909,-4.841 0.069,-0.779 -0.034,-1.569 -0.316,-2.291 -0.06,-0.719 -0.061,-1.448 -0.008,-2.188 0.377,-0.834 0.453,-1.848 0.057,-3.005 -4.285,-12.506 -8.564,-27.554 -18.099,-37.467 -0.148,-0.77 -0.528,-1.539 -1.212,-2.245 -12.629,-13.027 -29.068,-23.369 -46.847,-27.582 -9.385,-2.224 -20.165,-2.168 -29.682,-1.169 -10.228,1.073 -20.839,2.993 -30.363,6.926 -5.279,2.18 -2.965,10.891 2.393,8.679 8.465,-3.495 17.981,-5.47 27.078,-6.511 8.851,-1.013 19.44,-1.311 28.182,0.754 12.735,3.008 24.593,9.405 34.702,17.74 -0.348,1.634 0.205,3.382 2.17,4.39 13.953,7.155 18.334,25.259 23.001,38.879 0.011,0.032 0.025,0.06 0.036,0.091 0.02,0.968 0.04,1.936 0.066,2.904 0.123,0.283 0.2,0.583 0.248,0.888 -0.128,0.873 -0.026,1.779 0.293,2.594 -0.019,0.086 -0.026,0.176 -0.05,0.26 0.019,0.065 0.039,0.127 0.05,0.201 0.043,0.308 0.078,0.615 0.116,0.922 0.003,0 0.005,-10e-4 0.008,-10e-4 -0.001,0.015 -0.001,0.03 -0.002,0.046 0.257,2.055 0.423,4.094 0.446,6.177 0.002,0.185 -0.018,0.355 -0.039,0.524 0.006,0.211 0.015,0.422 0.014,0.634 -0.017,5.771 -0.796,11.529 -1.42,17.256 -0.937,8.613 -2.622,16.393 -6.729,23.448 -1.479,-0.106 -3.009,0.474 -4.04,2.064 -4.748,7.325 -10.319,13.986 -16.771,19.872 -6.472,5.904 -14.343,9.157 -21.099,14.571 -1.534,0.689 -3.075,1.352 -4.627,1.961 -9.568,3.757 -19.362,3.344 -29.39,2.192 -2.746,0.2 -5.713,-0.238 -8.635,-0.766 -5.084,-0.917 -10.159,-1.822 -15.246,-2.714 -3.224,-0.565 -6.707,-1.309 -9.369,-3.302 -0.211,-0.158 -0.401,-0.341 -0.574,-0.539 -3.875,0.267 -5.303,6.158 -1.787,8.372 0.089,1.708 1.036,3.376 3.093,4.076 10.542,3.585 20.514,7.065 31.785,7.033 11.24,-0.032 23.938,0.231 34.764,-3.127 2.805,-0.87 5.541,-1.959 8.214,-3.199 1.743,-1.447 3.447,-2.952 5.23,-4.302 4.32,-3.27 8.093,-7.073 12.274,-10.495 4.339,-3.552 8.531,-7.067 12.354,-11.19 2.635,-2.842 4.94,-5.952 7.273,-9.041 0.006,-0.227 -0.011,-0.45 -0.045,-0.667 6.664,-8.286 10.419,-17.857 11.702,-28.559 0.806,-6.729 1.7,-13.532 1.978,-20.307 0.107,-2.666 0.087,-5.3 -0.268,-7.946 z m -105.7,-133.4 c -0.111,-0.165 -0.239,-0.313 -0.366,-0.461 -0.035,-0.054 -0.082,-0.1 -0.12,-0.151 -0.008,-0.009 -0.015,-0.019 -0.023,-0.027 -0.098,-0.128 -0.192,-0.259 -0.313,-0.37 -0.236,-0.182 -0.472,-0.365 -0.708,-0.547 -0.546,-0.317 -1.135,-0.476 -1.766,-0.478 -0.291,-0.026 -0.583,-0.005 -0.873,0.034 -0.287,0.026 -0.577,0.065 -0.883,0.124 -0.424,0.083 -0.855,0.323 -1.231,0.63 -1.135,0.687 -2.026,1.969 -1.973,3.32 0.073,1.825 1.22,3.097 2.889,3.657 0.47,0.158 0.965,0.253 1.454,0.325 0.62,0.167 1.241,0.167 1.861,0 0.593,-0.166 1.108,-0.466 1.544,-0.9 0.484,-0.621 0.777,-0.924 0.998,-1.693 0.11,-0.385 0.177,-0.788 0.177,-1.19 0,-0.784 -0.229,-1.623 -0.667,-2.273 z m -3.409,15.081 c -0.155,-2.051 -1.42,-3.752 -3.436,-4.299 -1.845,-0.501 -4.248,0.237 -5.277,1.903 -0.182,0.232 -0.349,0.479 -0.483,0.754 -0.683,1.405 -0.888,3.224 -0.54,4.756 0.447,1.968 2.275,3.303 4.278,3.211 1.702,-0.078 3.068,-0.982 4.081,-2.294 0.866,-1.119 1.486,-2.593 1.377,-4.031 z m -10.478,-8.46 c 0.042,-2.578 -2.102,-4.392 -4.618,-4.421 -2.428,-0.028 -4.126,1.86 -4.437,4.09 -0.571,1.523 -0.526,3.365 0.354,4.697 1.54,2.333 4.78,3.055 6.889,1.013 0.324,-0.313 0.594,-0.693 0.819,-1.112 0.16,-0.17 0.312,-0.349 0.444,-0.545 0.753,-1.112 0.893,-2.482 0.549,-3.722 z m 31.343,-29.326 c -4.04,8.39 -8.056,16.81 -11.347,25.529 -1.584,4.196 -2.785,8.473 -4.117,12.748 -1.304,4.186 -3.203,8.137 -4.089,12.447 -1.808,8.794 11.684,12.555 13.5,3.722 0.771,-3.752 2.345,-7.166 3.562,-10.777 1.422,-4.222 2.496,-8.538 4.019,-12.731 2.974,-8.189 6.785,-16.031 10.561,-23.872 3.891,-8.081 -8.177,-15.19 -12.089,-7.066 z m 43.971,4.814 c -0.239,4.523 -0.453,8.677 -1.74,13.033 -1.369,4.633 -2.842,9.238 -4.263,13.855 -2.747,8.929 -5.495,17.858 -8.242,26.786 -3.035,9.864 12.404,14.081 15.428,4.253 2.937,-9.545 5.874,-19.089 8.811,-28.634 1.414,-4.596 3.001,-9.176 4.242,-13.822 1.357,-5.08 1.489,-10.25 1.764,-15.472 0.543,-10.289 -15.459,-10.26 -16,10e-4 z m 63.232,-2.224 c -0.489,-11.54 -18.492,-11.602 -18,0 0.526,12.413 -2.153,24.274 -5.449,36.165 -1.543,5.568 -2.998,11.222 -5.009,16.643 -2.073,5.589 -4.908,10.816 -6.228,16.668 -2.545,11.281 14.805,16.098 17.357,4.785 1.319,-5.847 4.169,-11.074 6.228,-16.668 2.217,-6.023 3.835,-12.307 5.518,-18.495 3.465,-12.734 6.145,-25.837 5.583,-39.098 z m -11.981,298.76 c -8.006,-5.456 -14.131,-12.898 -21.464,-19.182 -4.049,-3.469 -8.114,-7.3 -11.68,-11.259 -3.375,-3.747 -5.481,-8.627 -7.904,-13.02 -4.352,-7.891 -16.447,-0.837 -12.089,7.066 2.73,4.95 5.2,10.155 8.875,14.492 3.821,4.508 8.412,8.778 12.898,12.621 8.278,7.093 15.226,15.189 24.298,21.371 7.464,5.086 14.476,-7.04 7.066,-12.089 z m 65.168,-9.673 c -14.297,-6.223 -28.191,-13.74 -40.538,-23.324 -6.993,-5.428 -13.371,-11.543 -19.469,-17.94 -0.126,-0.237 -0.264,-0.474 -0.427,-0.71 -0.441,-0.641 -0.839,-1.32 -1.225,-2.009 -0.599,-0.587 -1.084,-1.317 -1.467,-2.102 -2.017,-2.225 -3.94,-4.568 -5.828,-6.903 -0.191,-0.236 -0.402,-0.563 -0.627,-0.939 -0.965,-0.963 -1.938,-1.985 -2.724,-3.095 -0.125,-0.053 -0.245,-0.117 -0.372,-0.165 -0.352,-0.281 -0.726,-0.547 -1.13,-0.794 -0.377,-0.23 -0.762,-0.403 -1.15,-0.55 -3.329,-2.975 -7.506,-1.646 -9.768,1.211 -0.586,0.686 -1.058,1.475 -1.387,2.321 1.764,6.251 6.363,11.001 10.673,16.04 4.738,5.54 10.131,11.01 15.599,15.834 6.028,5.319 11.301,11.609 18.257,15.667 2.37,1.382 4.399,2.986 6.291,4.704 8.988,5.676 18.439,10.583 28.227,14.843 3.492,1.52 7.473,1.001 9.577,-2.511 1.765,-2.947 0.949,-8.072 -2.512,-9.578 z m 81.906,2.575 c -22.425,-17.916 -48.166,-30.416 -73.388,-43.8 -12.587,-6.679 -25.063,-13.641 -36.788,-21.761 -5.691,-3.941 -11.17,-8.164 -16.354,-12.754 -5.239,-4.638 -9.691,-10.362 -16.496,-12.692 -5.198,-1.78 -7.865,4.963 -4.793,8.282 0.034,0.044 0.075,0.088 0.111,0.132 0.557,1.163 1.305,2.129 2.33,2.912 1.816,2.485 3.667,4.932 5.597,7.295 4.215,3.451 8.321,7.031 12.319,10.745 0.958,0.89 1.905,1.79 2.849,2.694 1.228,0.915 2.255,2.15 3.597,2.828 0.528,0.274 0.952,0.672 1.279,1.139 0.136,0.073 0.266,0.153 0.403,0.224 6.217,3.254 12.475,6.163 18.431,9.91 6.159,3.875 12.214,7.89 18.469,11.612 24.378,14.506 50.374,26.815 71.862,45.645 3.927,3.441 9.364,-0.593 8.627,-4.505 3.232,-1.183 5.31,-5.217 1.945,-7.906 z M 543.251,862.66 c -12.877,1.953 -25.049,6.228 -37.136,10.808 -2.712,0.637 -5.411,1.345 -8.073,2.273 -4.058,1.414 -8.114,2.832 -12.171,4.249 -0.61,0.213 -1.239,0.458 -1.874,0.71 -3.532,0.894 -7.067,1.778 -10.603,2.653 -0.355,0.055 -0.687,0.14 -1.001,0.25 -8.005,1.975 -16.026,3.882 -24.076,5.629 -3.925,0.265 -7.856,0.442 -11.785,0.635 -4.444,0.218 -12.033,1.992 -16.247,0.176 -0.203,-0.087 -0.404,-0.161 -0.605,-0.226 -0.718,-0.755 -1.527,-1.337 -2.655,-1.648 -1.436,-0.396 -3.349,-0.217 -4.623,0.605 -2.466,1.59 -4.178,5.532 -2.153,8.209 0.275,0.363 0.557,0.708 0.842,1.047 0.015,0.114 0.031,0.229 0.046,0.343 0.285,1.016 0.8,1.899 1.543,2.648 0.405,0.313 0.81,0.625 1.214,0.938 0.915,0.531 1.902,0.8 2.959,0.815 0.878,0.47 1.81,0.883 2.807,1.238 2.031,0.724 4.427,-0.106 5.952,-1.667 1.385,-0.016 2.798,-0.078 4.259,-0.15 5.495,-0.27 10.993,-0.507 16.484,-0.845 0.817,0.184 1.719,0.201 2.696,-0.007 0.409,-0.087 0.816,-0.181 1.224,-0.269 10.709,-0.863 21.156,-2.748 31.443,-5.978 3,-0.942 5.974,-1.964 8.936,-3.025 1.314,1.508 3.323,2.426 5.806,1.925 15.79,-3.185 30.601,-9.525 45.573,-15.294 2.193,-0.845 3.416,-2.529 3.851,-4.373 0.186,-0.029 0.369,-0.069 0.556,-0.097 7.611,-1.155 4.378,-12.719 -3.189,-11.572 z m 6.476,-45.678 c -1.37,-1.461 -3.441,-2.138 -5.993,-1.142 -11.226,4.381 -22.451,8.762 -33.677,13.143 -11.331,4.422 -22.61,9.392 -34.295,12.813 -22.536,6.598 -46.957,7.3 -70.203,9.753 -8.235,0.869 -8.324,13.878 0,13 0.129,-0.014 0.259,-0.026 0.388,-0.039 0.56,0.179 1.143,0.311 1.74,0.389 25.867,3.379 51.468,-3.367 76.232,-10.14 23.137,-6.327 46.489,-13.097 66.98,-25.944 5.157,-3.233 3.086,-10.085 -1.172,-11.833 z m -6.342,-46.373 c -17.097,8.067 -34.815,14.412 -51.306,23.794 -0.364,0.207 -0.684,0.436 -0.968,0.681 -6.998,2.85 -14.042,5.589 -21.234,7.881 -12.214,3.893 -24.847,5.423 -37.374,7.914 -13.118,2.609 -25.923,6.513 -38.7,10.417 -6.715,2.052 -3.901,12.567 2.818,10.634 7.374,-0.442 14.403,-3.138 21.677,-4.328 8.119,-1.328 16.213,-2.675 24.253,-4.437 4.408,-0.966 8.791,-2.026 13.154,-3.163 3.925,-0.667 7.833,-1.489 11.767,-2.596 9.14,-2.573 18.109,-5.674 26.923,-9.203 1.046,-0.419 1.844,-1.05 2.429,-1.797 l 47.113,-20.29 c 1.833,-0.79 2.7,-2.114 2.855,-3.545 0.847,-0.644 1.406,-1.421 1.703,-2.261 0.147,-0.069 0.294,-0.136 0.441,-0.205 6.399,-3.016 0.822,-12.503 -5.551,-9.496 z M 287.434,986.408 c -1.451,-1.451 -3.159,-2.156 -4.904,-2.261 -1.365,-0.486 -2.958,-0.568 -4.741,-0.053 -0.179,0.052 -0.352,0.114 -0.527,0.174 -1.207,0.228 -2.236,0.7 -3.082,1.35 -0.324,0.219 -0.634,0.453 -0.91,0.718 -0.074,0.052 -0.151,0.098 -0.225,0.152 -0.871,0.447 -1.696,0.947 -2.482,1.504 -0.901,0.459 -1.734,1.076 -2.483,1.933 -0.466,0.533 -0.845,1.076 -1.158,1.624 -0.275,0.229 -0.563,0.444 -0.874,0.641 -1.723,1.085 -3.75,1.625 -5.475,2.692 -2.867,1.774 -4.28,4.414 -4.459,7.79 -0.148,2.795 9.074,19.051 15.727,15.313 3.915,-2.199 7.568,-4.877 9.612,-8.992 0.393,-0.791 0.743,-1.558 1.087,-2.308 2.171,-2.731 3.91,-5.898 5.773,-8.75 0.859,-1.315 1.241,-2.638 1.266,-3.903 0.56,-2.684 -0.29,-5.769 -2.145,-7.624 z m 12.959,20.843 c -0.194,-0.785 -0.385,-0.964 -0.8,-1.501 -0.338,-0.437 -0.739,-0.831 -1.221,-1.116 -0.078,-0.046 -0.202,-0.107 -0.336,-0.169 -0.023,-0.012 -0.047,-0.021 -0.07,-0.032 -0.076,-0.034 -0.147,-0.065 -0.224,-0.096 -0.04,-0.016 -0.079,-0.033 -0.12,-0.047 -0.137,-0.052 -0.265,-0.097 -0.354,-0.116 -0.195,-0.041 -0.39,-0.068 -0.586,-0.09 -0.402,-0.072 -0.806,-0.134 -1.212,-0.135 -0.272,-10e-4 -0.567,0.062 -0.826,0.096 -0.301,0.04 -0.524,0.047 -0.788,0.142 -0.867,0.312 -1.479,0.641 -2.153,1.267 -0.692,0.644 -0.963,1.322 -1.288,2.182 -0.203,0.756 -0.203,1.512 0,2.268 0.132,0.555 0.387,1.039 0.764,1.451 0.301,0.464 0.7,0.831 1.197,1.099 0.665,0.386 1.383,0.58 2.153,0.582 0.38,0.045 0.761,0.074 1.143,0.074 1.268,10e-4 2.619,-0.404 3.521,-1.338 0.553,-0.573 0.976,-1.223 1.203,-1.994 0.117,-0.396 0.184,-0.916 0.173,-1.333 -0.01,-0.338 -0.095,-0.867 -0.176,-1.194 z m 6.829,-12.623 c 0,0.441 -0.035,0.882 -0.139,1.305 -0.235,0.957 -0.894,1.747 -1.511,2.478 -1.878,2.225 -4.943,3.364 -7.648,1.868 -1.544,-0.854 -2.592,-2.384 -2.825,-4.12 -0.24,-1.788 0.343,-3.486 1.575,-4.805 0.911,-0.975 2.083,-1.489 3.309,-1.946 1.371,-0.511 2.664,-0.47 4.088,-0.263 1.128,0.164 2.1,1.154 2.689,2.068 0.65,1.008 0.711,2.277 0.462,3.415 z m 15.991,-9.403 c -0.07,-0.723 -0.262,-1.426 -0.612,-2.064 -1.231,-2.246 -4.106,-3.321 -6.57,-2.721 -1.324,0.238 -2.429,0.746 -3.44,1.739 -0.728,0.715 -1.385,1.607 -1.874,2.51 -0.906,1.675 -1.198,3.639 -0.19,5.363 0.792,1.353 2.305,2.164 3.787,2.512 0.122,0.029 0.243,0.046 0.364,0.071 0.691,0.331 1.463,0.54 2.296,0.59 2.596,0.157 5.095,-1.073 6.242,-3.47 0.684,-1.427 0.724,-3.171 -0.003,-4.53 z m 16.049,-1.52 c -0.097,1.943 -0.808,3.83 -2.568,4.86 -1.248,0.73 -2.585,0.657 -3.951,0.555 -0.417,-0.031 -0.833,-0.057 -1.248,-0.105 -1.51,-0.175 -2.747,-0.614 -3.707,-1.856 -1.288,-1.667 -1.44,-3.976 -0.375,-5.819 0.755,-1.306 2.034,-2.303 3.48,-2.742 0.221,-0.102 0.444,-0.184 0.666,-0.224 1.332,-0.24 2.558,-0.238 3.778,0.132 0.041,0.007 0.08,0.011 0.122,0.018 0.785,0.134 1.436,0.52 1.946,1.052 1.215,0.995 1.937,2.531 1.857,4.129 z m 8.13,13.017 c -0.797,-1.888 -2.699,-3.147 -4.772,-3.068 -1.123,0.042 -2.101,0.434 -2.898,1.08 -0.062,0.033 -0.131,0.059 -0.191,0.094 -1.466,0.88 -2.394,2.497 -2.418,4.206 -0.006,0.389 0.053,0.799 0.155,1.198 0.059,0.758 0.328,1.585 0.707,2.199 0.64,1.037 1.675,1.843 2.85,2.183 0.862,0.249 1.816,0.194 2.674,-0.025 0.985,-0.251 2.071,-0.986 2.654,-1.887 0.363,-0.341 0.692,-0.771 0.945,-1.196 0.853,-1.44 0.935,-3.264 0.294,-4.784 z m 198.557,0.71 c -0.497,2.8 -2.721,5.048 -5.665,5.057 -1.174,0 -2.629,-0.308 -3.634,-0.943 -1.294,-0.818 -2.204,-2.183 -2.44,-3.696 -0.252,-1.618 -0.257,-3.159 0.636,-4.614 0.824,-1.344 2.386,-2.401 3.999,-2.511 0.597,-0.279 1.249,-0.448 1.829,-0.397 1.018,0.09 1.84,0.236 2.751,0.708 0.795,0.413 1.418,1.121 1.9,1.857 0.896,1.369 0.898,2.993 0.624,4.539 z m -14.767,-12.479 c -0.096,-0.949 -0.479,-1.854 -1.259,-2.521 -1.339,-1.145 -2.729,-1.799 -4.498,-1.909 -1.292,-0.081 -2.711,0.326 -3.787,1.038 -3.245,2.147 -4.317,6.883 -0.95,9.484 1.015,0.784 2.139,1.507 3.414,1.779 2.191,0.468 4.34,-0.258 5.71,-2.031 0.907,-1.174 1.499,-2.653 1.575,-4.144 0.028,-0.587 -0.051,-1.155 -0.205,-1.696 z m -17.706,-7.127 c 0.002,-0.052 0.011,-0.099 0.012,-0.153 0.033,-2.257 -1.471,-3.948 -3.409,-4.885 -1.104,-0.534 -2.251,-0.789 -3.467,-0.454 -0.768,0.212 -1.582,0.706 -2.164,1.339 -0.805,0.591 -1.394,1.372 -1.789,2.307 -0.491,1.163 -0.711,2.365 -0.38,3.63 0.329,1.254 1.193,2.397 2.306,3.066 1.453,0.873 3.355,1.155 4.982,0.683 0.856,-0.248 1.568,-0.708 2.182,-1.347 0.13,-0.135 0.227,-0.256 0.325,-0.378 0.009,-0.009 0.021,-0.015 0.029,-0.024 0.961,-1.042 1.48,-2.39 1.373,-3.784 z m -33.679,-22.027 c -0.454,-0.763 -1.032,-1.367 -1.784,-1.848 -0.239,-0.153 -0.507,-0.275 -0.782,-0.377 -0.665,-0.359 -1.377,-0.546 -2.139,-0.549 -1.681,-0.152 -3.443,0.243 -4.681,1.457 -1.689,1.656 -1.935,4.317 -0.748,6.325 0.49,0.828 1.235,1.54 2.091,1.975 1.062,0.54 1.719,0.623 2.915,0.759 0.978,0.111 2.005,-0.137 2.858,-0.618 0.583,-0.328 0.999,-0.727 1.379,-1.19 0.61,-0.627 1.061,-1.362 1.333,-2.2 0.376,-1.159 0.168,-2.708 -0.442,-3.734 z m -16.04,-2.513 c -2.437,2.365 -6.583,1.908 -8.68,-0.533 -0.173,-0.128 -0.338,-0.261 -0.482,-0.405 -0.748,-0.748 -1.412,-2.092 -1.318,-3.182 0.093,-1.073 0.249,-1.961 0.844,-2.881 0.27,-0.418 0.59,-0.777 0.94,-1.098 1.288,-1.594 3.445,-2.16 5.442,-1.731 0.739,0.159 1.349,0.533 1.848,1.018 1.335,0.742 2.394,1.901 2.858,3.414 0.577,1.879 -0.053,4.041 -1.452,5.398 z M 448.9,938.167 c -0.069,-0.248 -0.18,-0.463 -0.283,-0.709 -0.267,-0.633 -0.594,-1.173 -1.095,-1.671 -0.756,-0.752 -1.716,-1.203 -2.723,-1.512 -1.097,-0.337 -2.488,-0.119 -3.468,0.454 -0.364,0.213 -0.72,0.507 -1.035,0.849 -0.817,0.681 -1.378,1.574 -1.715,2.612 -0.553,1.7 0.067,3.606 1.227,4.879 0.986,1.082 2.41,1.404 3.799,1.498 1.234,0.084 2.463,-0.374 3.422,-1.114 0.548,-0.423 0.991,-0.849 1.352,-1.465 0.191,-0.326 0.393,-0.844 0.506,-1.203 0.133,-0.422 0.197,-0.888 0.181,-1.331 -0.012,-0.365 -0.071,-0.938 -0.168,-1.287 z M 421.423,923.39 c -1.752,1.354 -4.442,1.446 -6.443,0.602 -2.531,-1.068 -4.217,-3.874 -3.386,-6.635 0.499,-1.659 1.858,-3.081 3.552,-3.537 1.173,-0.315 2.125,-0.188 3.299,-0.019 0.921,0.132 1.735,0.82 2.325,1.565 0.748,0.5 1.432,1.196 1.851,1.948 1.14,2.051 0.659,4.641 -1.198,6.076 z m 23.997,-10.898 c -1.799,-1.872 -4.554,-2.051 -6.789,-0.894 -1.881,0.974 -3.327,3.083 -3.368,5.22 -0.014,0.704 0.123,1.364 0.366,1.972 0.357,1.302 1.133,2.462 2.371,3.139 0.948,0.519 2.007,0.878 3.098,0.899 2.686,0.05 4.665,-1.849 5.52,-4.247 0.716,-2.011 0.291,-4.54 -1.198,-6.089 z m 17.076,-1.121 c -0.094,-0.417 -0.23,-0.823 -0.467,-1.19 -0.595,-0.923 -1.557,-1.886 -2.689,-2.068 -0.711,-0.114 -1.439,-0.253 -2.164,-0.22 -1.138,0.052 -2.192,0.453 -3.032,1.151 -0.003,0.002 -0.006,0.003 -0.009,0.005 -2.321,1.374 -3.22,4.446 -1.875,6.812 0.465,0.819 1.15,1.504 1.979,1.951 0.523,0.282 1.13,0.494 1.752,0.597 0.964,0.262 1.998,0.299 2.964,0.091 2.271,-0.489 4.014,-2.635 4.041,-4.953 0.009,-0.759 -0.173,-1.504 -0.5,-2.176 z m 18.192,-2.433 c 0,-0.024 0.002,-0.047 0.002,-0.071 -0.008,-1.737 -0.891,-3.377 -2.416,-4.251 -0.974,-0.558 -2.231,-0.778 -3.333,-0.797 -2.745,-0.046 -4.817,2.105 -5.44,4.638 -0.287,1.167 -0.277,2.395 0.158,3.508 0.391,1.119 1.165,2.091 2.206,2.719 1.42,0.857 3.171,0.982 4.722,0.483 0.764,-0.166 1.494,-0.457 2.109,-0.887 0.977,-0.684 1.742,-1.506 2.068,-2.689 0.221,-0.802 0.201,-1.8 -0.076,-2.653 z m 35.407,-9.277 c -0.727,-1.249 -1.828,-1.937 -3.065,-2.252 -1.131,-0.661 -2.543,-0.851 -3.802,-0.518 -2.198,0.582 -3.49,2.472 -3.829,4.58 -10e-4,0.002 0,0.004 -10e-4,0.005 0,-10e-4 10e-4,-0.002 10e-4,-0.002 0,0.002 0,0.004 -10e-4,0.007 -0.155,0.437 -0.254,0.876 -0.262,1.459 -0.012,0.889 0.209,1.75 0.647,2.523 0.686,1.212 1.794,1.997 3.09,2.429 2.038,0.68 4.783,-0.029 6.287,-1.523 1.687,-1.678 2.145,-4.629 0.935,-6.708 z m 17.646,-7.883 c -1.729,-1.681 -4.506,-2.355 -6.656,-1.026 -0.099,0.061 -0.178,0.138 -0.271,0.204 -1.041,0.398 -1.888,1.122 -2.474,2.093 -0.63,1.045 -0.72,2.299 -0.562,3.474 0.012,0.091 0.037,0.178 0.053,0.268 0.025,0.351 0.067,0.708 0.149,1.034 0.389,1.552 1.838,3.018 3.409,3.338 0.559,0.114 1.118,0.151 1.666,0.103 2.428,0.165 4.914,-1.025 5.937,-3.45 0.886,-2.099 0.392,-4.441 -1.251,-6.038 z M 427.015,735.531 c -0.178,-0.161 -0.382,-0.303 -0.567,-0.446 -0.159,-0.123 -0.354,-0.298 -0.548,-0.412 -0.053,-0.031 -0.109,-0.054 -0.165,-0.08 -0.366,-0.168 -0.791,-0.379 -1.18,-0.488 -0.004,-10e-4 -0.008,-10e-4 -0.012,-0.002 -0.241,-0.12 -0.491,-0.222 -0.752,-0.294 -0.598,-0.188 -1.196,-0.214 -1.794,-0.08 -0.599,0.027 -1.157,0.205 -1.673,0.534 -0.961,0.619 -1.807,1.542 -2.068,2.689 -0.265,1.165 -0.191,2.426 0.454,3.468 0.156,0.252 0.337,0.496 0.531,0.733 0.079,0.109 0.177,0.2 0.265,0.301 0.055,0.059 0.105,0.123 0.162,0.18 0.127,0.129 0.264,0.243 0.408,0.353 0.145,0.117 0.298,0.22 0.455,0.318 0.005,0.002 0.008,0.006 0.013,0.009 l 0.006,0.003 c 0.112,0.069 0.219,0.148 0.337,0.206 0.399,0.195 0.924,0.456 1.407,0.542 1.262,0.225 1.455,0.195 2.735,-0.012 0.762,-0.214 1.424,-0.6 1.986,-1.157 0.558,-0.562 0.944,-1.223 1.157,-1.986 0.41,-1.488 0.017,-3.319 -1.157,-4.379 z m -1.56,17.348 c -0.288,-1.285 -1.084,-2.296 -2.071,-3.098 -0.106,-0.125 -0.198,-0.261 -0.324,-0.367 -0.986,-0.828 -2.088,-1.46 -3.418,-1.433 -0.446,0.009 -0.902,0.068 -1.344,0.18 -0.512,0.073 -1.013,0.23 -1.51,0.521 -0.933,0.546 -1.824,1.617 -2.068,2.689 -0.025,0.11 -0.032,0.226 -0.051,0.339 -0.066,0.173 -0.144,0.341 -0.198,0.519 -0.578,1.877 -0.145,3.941 1.193,5.386 0.77,0.831 1.904,1.463 3.018,1.686 1.499,0.3 3.153,0.234 4.455,-0.67 1.925,-1.334 2.84,-3.421 2.318,-5.752 z m -5.095,14.787 c -1.16,-1.848 -3.46,-3.032 -5.646,-2.36 -0.082,0.025 -0.156,0.062 -0.236,0.091 -0.255,0.046 -0.506,0.104 -0.739,0.171 -0.527,0.152 -1.171,0.451 -1.656,0.778 -0.966,0.651 -1.673,1.29 -2.14,2.398 -0.518,1.227 -0.557,2.429 -0.03,3.68 0.666,1.579 1.918,2.592 3.528,3.146 1.051,0.362 2.467,0.466 3.552,0.172 1.431,-0.387 2.733,-1.329 3.384,-2.692 0.801,-1.681 1.024,-3.727 -0.017,-5.384 z m -3.801,19.409 c -0.113,-0.837 -0.14,-1.047 -0.584,-1.92 -0.226,-0.445 -0.356,-0.618 -0.813,-1.125 -0.581,-0.645 -1.369,-1.106 -2.19,-1.387 -0.019,-0.008 -0.039,-0.014 -0.058,-0.022 -0.031,-0.01 -0.061,-0.025 -0.092,-0.035 -0.007,-0.002 -0.014,-0.002 -0.021,-0.005 -0.129,-0.049 -0.258,-0.099 -0.394,-0.137 -0.842,-0.334 -2.066,-0.264 -2.92,-0.025 -0.903,0.253 -1.686,0.769 -2.351,1.415 -1.387,1.349 -1.839,3.537 -1.346,5.368 0.395,1.467 1.427,2.793 2.768,3.508 2.061,1.1 4.615,0.799 6.316,-0.829 1.301,-1.244 1.924,-3.03 1.685,-4.806 z m -9.179,16.238 c -1.254,1.26 -3.006,1.758 -4.737,1.525 -1.267,-0.17 -2.479,-0.827 -3.144,-1.962 -0.458,-0.782 -0.572,-1.605 -0.46,-2.42 -0.127,-0.665 -0.123,-1.357 0.064,-2.035 0.559,-2.017 2.406,-3.338 4.46,-3.404 0.3,-0.01 0.583,0.035 0.856,0.102 0.21,0.003 0.42,0.004 0.643,0.034 1.247,0.168 2.33,0.733 3.105,1.736 1.486,1.923 0.837,4.791 -0.787,6.424 z m 30.376,-5.265 c -1.519,-1.325 -3.618,-1.624 -5.419,-0.679 -0.561,0.295 -1.095,0.731 -1.534,1.248 -0.909,0.802 -1.561,1.885 -1.726,3.116 -0.534,3.976 4.559,6.227 7.654,4.286 1.37,-0.859 2.357,-2.264 2.573,-3.868 0.204,-1.521 -0.388,-3.091 -1.548,-4.103 z m 17.14,-4.904 c -1.911,-1.805 -5.039,-1.67 -6.708,0.137 -0.004,0.003 -0.008,0.005 -0.012,0.008 -0.204,0.157 -0.378,0.33 -0.539,0.508 -1.045,0.881 -1.718,2.213 -1.715,3.723 0.004,2.57 1.905,4.681 4.324,5.321 2.907,0.769 5.924,-0.86 6.337,-3.931 0.272,-2.033 -0.143,-4.308 -1.687,-5.766 z m 16.708,-0.846 c -0.489,-1.48 -1.706,-2.655 -3.384,-3.124 -0.492,-0.137 -0.987,-0.19 -1.476,-0.197 -0.009,-0.005 -0.016,-0.013 -0.026,-0.018 -1.725,-0.912 -3.744,-0.4 -4.789,1.256 -1.022,1.618 -1.348,3.726 -0.756,5.558 0.766,2.37 3.047,3.44 5.404,3.397 1.275,-0.023 2.6,-0.298 3.535,-1.235 0.303,-0.304 0.565,-0.675 0.798,-1.066 1.166,-1.351 1.362,-3.14 0.694,-4.571 z m 30.502,-13.862 c -0.072,-1.486 -1.011,-2.755 -2.525,-3.247 -2.378,-0.774 -5.562,-0.697 -6.898,1.773 -1.162,2.148 -2.093,5.086 -0.07,7.065 1.761,1.722 5.108,1.955 7.249,0.856 1.201,-0.617 2.071,-1.993 2.485,-3.248 0.354,-1.075 0.232,-2.213 -0.241,-3.199 z m 15.542,-7.948 c -0.088,-0.675 -0.285,-1.331 -0.638,-1.924 -1.145,-1.924 -3.209,-2.73 -5.218,-2.593 -0.799,-0.171 -1.653,-0.077 -2.427,0.38 -0.573,0.338 -1.031,0.786 -1.401,1.292 -0.654,0.642 -1.164,1.448 -1.42,2.426 -0.523,1.999 0.028,4.157 1.529,5.604 1.515,1.461 3.839,1.903 5.853,1.405 2.53,-0.625 3.85,-3.049 3.829,-5.525 -0.002,-0.365 -0.044,-0.719 -0.107,-1.065 z m 16.626,-10.202 c -0.789,-0.642 -1.706,-1.072 -2.674,-1.344 -0.19,-0.102 -0.387,-0.193 -0.594,-0.266 -3.495,-1.232 -7.297,0.877 -8.132,4.468 -0.41,1.763 -0.357,3.629 0.63,5.188 0.968,1.529 2.987,2.737 4.748,2.991 3.607,0.519 7.261,-1.854 7.813,-5.501 0.328,-2.159 -0.023,-4.097 -1.791,-5.536 z"
   clip-path="url(#SVGID_00000019642650818274312580000009043661108192746166_)"
   id="path176" />
	</g>
	<g
   id="g192">
		<g
   id="g184">
			<path
   class="st0"
   d="m 324.539,845.25 h 67.83 v 22.48 h -92.22 v -58.57 h 62.05 c 4.6,0 8.34,-3.73 8.34,-8.34 0,-4.61 -3.74,-8.34 -8.34,-8.34 h -62.05 V 770 h 64.36 c 16.61,0 30.08,13.47 30.08,30.08 0,16.62 -13.47,30.09 -30.08,30.09 h -39.97 z"
   id="path180" />
			<path
   class="st0"
   d="m 457.479,768 c -33.5,0 -54,22.773 -54,50.865 0,28.092 20.5,50.865 54,50.865 33.5,0 54,-22.773 54,-50.865 0,-28.092 -20.5,-50.865 -54,-50.865 z m 0,79.397 c -17.681,0 -28.5,-12.774 -28.5,-28.532 0,-15.758 10.819,-28.532 28.5,-28.532 17.681,0 28.5,12.774 28.5,28.532 0,15.758 -10.819,28.532 -28.5,28.532 z"
   id="path182" />
		</g>
		<g
   id="g190">
			<path
   class="st0"
   d="m 324.539,957.631 h 67.83 v 22.48 h -92.22 v -58.57 h 62.05 c 4.6,0 8.34,-3.73 8.34,-8.34 0,-4.61 -3.74,-8.34 -8.34,-8.34 h -62.05 v -22.48 h 64.36 c 16.61,0 30.08,13.47 30.08,30.08 0,16.62 -13.47,30.09 -30.08,30.09 h -39.97 z"
   id="path186" />
			<path
   class="st0"
   d="m 507.979,953.97 c 0,14.44 -12.85,26.14 -28.69,26.14 h -63.79 v -22.48 h 60.88 c 4.46,0 8.07,-3.61 8.07,-8.07 0,-4.45 -3.61,-8.07 -8.07,-8.07 h -60.88 V 921 h 60.88 c 4.46,0 8.07,-3.61 8.07,-8.07 0,-4.46 -3.61,-8.07 -8.07,-8.07 h -60.88 v -22.48 h 63.79 c 15.84,0 28.69,11.71 28.69,26.14 0,12.62 -6.45,19.68 -15.84,22.73 9.39,3.04 15.84,10.1 15.84,22.72 z"
   id="path188" />
		</g>
	</g>
</g></g></g><g
     id="g2932"
     transform="translate(-83.793602,162.7575)"><rect
       style="fill:#000000;fill-opacity:1;stroke-width:0.891968;stroke-linecap:round;stroke-linejoin:round;paint-order:fill markers stroke"
       id="rect1607"
       width="6.4302745"
       height="33.959888"
       x="916.11316"
       y="1223.7616" /><rect
       style="fill:#000000;fill-opacity:1;stroke-width:0.92057;stroke-linecap:round;stroke-linejoin:round;paint-order:fill markers stroke"
       id="rect1611"
       width="35.958649"
       height="7.4350052"
       x="916.11316"
       y="1237.225" /><path
       id="rect1611-0"
       style="fill:#000000;fill-opacity:1;stroke-width:0.912421;stroke-linecap:round;stroke-linejoin:round;paint-order:fill markers stroke"
       d="m 916.11328,1181.127 v 7.3027 l 17.27734,11.8789 -17.27734,12.0996 12.37695,-0.022 12.85743,-10.0176 0.0723,-4.4043 -13.17578,-9.5351 h 23.82813 v -7.3027 z m 0,31.2812 v 7.3047 h 35.95899 v -7.3047 z" /></g></g></svg>
